ISO-10303-21;
HEADER;
FILE_DESCRIPTION((''),'2;1');
FILE_NAME('2797T127_LIGHT_DUTY_DRY-RUNNING','2026-06-15T13:45:12',('Esia'),(''),
'CREO PARAMETRIC BY PTC INC, 2025102','CREO PARAMETRIC BY PTC INC, 2025102','');
FILE_SCHEMA((
'AP242_MANAGED_MODEL_BASED_3D_ENGINEERING_MIM_LF { 1 0 10303 442 1 1 4 }'));
ENDSEC;
DATA;
#15=DIRECTION('',(7.071067811865E-1,0.E0,-7.071067811865E-1));
#16=VECTOR('',#15,1.346871385062E-2);
#17=CARTESIAN_POINT('',(-3.149606299213E-1,0.E0,-2.000374015748E-2));
#18=LINE('',#17,#16);
#19=DRAUGHTING_PRE_DEFINED_CURVE_FONT('continuous');
#20=CURVE_STYLE('',#19,POSITIVE_LENGTH_MEASURE(2.E-2),#13);
#21=PRESENTATION_STYLE_ASSIGNMENT((#20));
#22=STYLED_ITEM('',(#21),#18);
#23=CARTESIAN_POINT('',(0.E0,0.E0,-2.000374015748E-2));
#24=DIRECTION('',(0.E0,0.E0,-1.E0));
#25=DIRECTION('',(1.E0,0.E0,0.E0));
#26=AXIS2_PLACEMENT_3D('',#23,#24,#25);
#28=CURVE_STYLE('',#19,POSITIVE_LENGTH_MEASURE(2.E-2),#13);
#29=PRESENTATION_STYLE_ASSIGNMENT((#28));
#30=STYLED_ITEM('',(#29),#27);
#31=DIRECTION('',(-7.071067811865E-1,0.E0,-7.071067811865E-1));
#32=VECTOR('',#31,1.346871385062E-2);
#33=CARTESIAN_POINT('',(3.149606299213E-1,0.E0,-2.000374015748E-2));
#34=LINE('',#33,#32);
#35=CURVE_STYLE('',#19,POSITIVE_LENGTH_MEASURE(2.E-2),#13);
#36=PRESENTATION_STYLE_ASSIGNMENT((#35));
#37=STYLED_ITEM('',(#36),#34);
#38=CARTESIAN_POINT('',(0.E0,0.E0,-2.000374015748E-2));
#39=DIRECTION('',(0.E0,0.E0,-1.E0));
#40=DIRECTION('',(-1.E0,0.E0,0.E0));
#41=AXIS2_PLACEMENT_3D('',#38,#39,#40);
#43=CURVE_STYLE('',#19,POSITIVE_LENGTH_MEASURE(2.E-2),#13);
#44=PRESENTATION_STYLE_ASSIGNMENT((#43));
#45=STYLED_ITEM('',(#44),#42);
#46=CARTESIAN_POINT('',(0.E0,0.E0,-2.952755905512E-2));
#47=DIRECTION('',(0.E0,0.E0,-1.E0));
#48=DIRECTION('',(1.E0,0.E0,0.E0));
#49=AXIS2_PLACEMENT_3D('',#46,#47,#48);
#51=CURVE_STYLE('',#19,POSITIVE_LENGTH_MEASURE(2.E-2),#13);
#52=PRESENTATION_STYLE_ASSIGNMENT((#51));
#53=STYLED_ITEM('',(#52),#50);
#54=CARTESIAN_POINT('',(0.E0,0.E0,-2.952755905512E-2));
#55=DIRECTION('',(0.E0,0.E0,-1.E0));
#56=DIRECTION('',(-1.E0,0.E0,0.E0));
#57=AXIS2_PLACEMENT_3D('',#54,#55,#56);
#59=CURVE_STYLE('',#19,POSITIVE_LENGTH_MEASURE(2.E-2),#13);
#60=PRESENTATION_STYLE_ASSIGNMENT((#59));
#61=STYLED_ITEM('',(#60),#58);
#62=CARTESIAN_POINT('',(0.E0,0.E0,-2.952755905512E-2));
#63=DIRECTION('',(0.E0,0.E0,1.E0));
#64=DIRECTION('',(-1.E0,0.E0,0.E0));
#65=AXIS2_PLACEMENT_3D('',#62,#63,#64);
#67=CURVE_STYLE('',#19,POSITIVE_LENGTH_MEASURE(2.E-2),#13);
#68=PRESENTATION_STYLE_ASSIGNMENT((#67));
#69=STYLED_ITEM('',(#68),#66);
#70=CARTESIAN_POINT('',(0.E0,0.E0,-2.952755905512E-2));
#71=DIRECTION('',(0.E0,0.E0,1.E0));
#72=DIRECTION('',(1.E0,0.E0,0.E0));
#73=AXIS2_PLACEMENT_3D('',#70,#71,#72);
#75=CURVE_STYLE('',#19,POSITIVE_LENGTH_MEASURE(2.E-2),#13);
#76=PRESENTATION_STYLE_ASSIGNMENT((#75));
#77=STYLED_ITEM('',(#76),#74);
#78=CARTESIAN_POINT('',(0.E0,0.E0,-2.000374015748E-2));
#79=DIRECTION('',(0.E0,0.E0,1.E0));
#80=DIRECTION('',(-1.E0,0.E0,0.E0));
#81=AXIS2_PLACEMENT_3D('',#78,#79,#80);
#83=CURVE_STYLE('',#19,POSITIVE_LENGTH_MEASURE(2.E-2),#13);
#84=PRESENTATION_STYLE_ASSIGNMENT((#83));
#85=STYLED_ITEM('',(#84),#82);
#86=DIRECTION('',(7.071067811865E-1,0.E0,7.071067811866E-1));
#87=VECTOR('',#86,1.346871385062E-2);
#88=CARTESIAN_POINT('',(-1.682541338583E-1,0.E0,-2.952755905512E-2));
#89=LINE('',#88,#87);
#90=CURVE_STYLE('',#19,POSITIVE_LENGTH_MEASURE(2.E-2),#13);
#91=PRESENTATION_STYLE_ASSIGNMENT((#90));
#92=STYLED_ITEM('',(#91),#89);
#93=DIRECTION('',(0.E0,0.E0,1.E0));
#94=VECTOR('',#93,4.000748031496E-2);
#95=CARTESIAN_POINT('',(-1.587303149606E-1,0.E0,-2.000374015748E-2));
#96=LINE('',#95,#94);
#97=CURVE_STYLE('',#19,POSITIVE_LENGTH_MEASURE(2.E-2),#13);
#98=PRESENTATION_STYLE_ASSIGNMENT((#97));
#99=STYLED_ITEM('',(#98),#96);
#100=CARTESIAN_POINT('',(0.E0,0.E0,2.000374015748E-2));
#101=DIRECTION('',(0.E0,0.E0,-1.E0));
#102=DIRECTION('',(1.E0,0.E0,0.E0));
#103=AXIS2_PLACEMENT_3D('',#100,#101,#102);
#105=CURVE_STYLE('',#19,POSITIVE_LENGTH_MEASURE(2.E-2),#13);
#106=PRESENTATION_STYLE_ASSIGNMENT((#105));
#107=STYLED_ITEM('',(#106),#104);
#108=DIRECTION('',(-7.071067811865E-1,0.E0,-7.071067811866E-1));
#109=VECTOR('',#108,1.346871385062E-2);
#110=CARTESIAN_POINT('',(1.682541338583E-1,0.E0,2.952755905512E-2));
#111=LINE('',#110,#109);
#112=CURVE_STYLE('',#19,POSITIVE_LENGTH_MEASURE(2.E-2),#13);
#113=PRESENTATION_STYLE_ASSIGNMENT((#112));
#114=STYLED_ITEM('',(#113),#111);
#115=DIRECTION('',(7.071067811865E-1,0.E0,-7.071067811866E-1));
#116=VECTOR('',#115,1.346871385062E-2);
#117=CARTESIAN_POINT('',(-1.682541338583E-1,0.E0,2.952755905512E-2));
#118=LINE('',#117,#116);
#119=CURVE_STYLE('',#19,POSITIVE_LENGTH_MEASURE(2.E-2),#13);
#120=PRESENTATION_STYLE_ASSIGNMENT((#119));
#121=STYLED_ITEM('',(#120),#118);
#122=CARTESIAN_POINT('',(0.E0,0.E0,2.000374015748E-2));
#123=DIRECTION('',(0.E0,0.E0,-1.E0));
#124=DIRECTION('',(-1.E0,0.E0,0.E0));
#125=AXIS2_PLACEMENT_3D('',#122,#123,#124);
#127=CURVE_STYLE('',#19,POSITIVE_LENGTH_MEASURE(2.E-2),#13);
#128=PRESENTATION_STYLE_ASSIGNMENT((#127));
#129=STYLED_ITEM('',(#128),#126);
#130=CARTESIAN_POINT('',(0.E0,0.E0,2.952755905512E-2));
#131=DIRECTION('',(0.E0,0.E0,1.E0));
#132=DIRECTION('',(-1.E0,0.E0,0.E0));
#133=AXIS2_PLACEMENT_3D('',#130,#131,#132);
#135=CURVE_STYLE('',#19,POSITIVE_LENGTH_MEASURE(2.E-2),#13);
#136=PRESENTATION_STYLE_ASSIGNMENT((#135));
#137=STYLED_ITEM('',(#136),#134);
#138=CARTESIAN_POINT('',(0.E0,0.E0,2.952755905512E-2));
#139=DIRECTION('',(0.E0,0.E0,1.E0));
#140=DIRECTION('',(1.E0,0.E0,0.E0));
#141=AXIS2_PLACEMENT_3D('',#138,#139,#140);
#143=CURVE_STYLE('',#19,POSITIVE_LENGTH_MEASURE(2.E-2),#13);
#144=PRESENTATION_STYLE_ASSIGNMENT((#143));
#145=STYLED_ITEM('',(#144),#142);
#146=CARTESIAN_POINT('',(0.E0,0.E0,2.952755905512E-2));
#147=DIRECTION('',(0.E0,0.E0,-1.E0));
#148=DIRECTION('',(1.E0,0.E0,0.E0));
#149=AXIS2_PLACEMENT_3D('',#146,#147,#148);
#151=CURVE_STYLE('',#19,POSITIVE_LENGTH_MEASURE(2.E-2),#13);
#152=PRESENTATION_STYLE_ASSIGNMENT((#151));
#153=STYLED_ITEM('',(#152),#150);
#154=CARTESIAN_POINT('',(0.E0,0.E0,2.952755905512E-2));
#155=DIRECTION('',(0.E0,0.E0,-1.E0));
#156=DIRECTION('',(-1.E0,0.E0,0.E0));
#157=AXIS2_PLACEMENT_3D('',#154,#155,#156);
#159=CURVE_STYLE('',#19,POSITIVE_LENGTH_MEASURE(2.E-2),#13);
#160=PRESENTATION_STYLE_ASSIGNMENT((#159));
#161=STYLED_ITEM('',(#160),#158);
#162=DIRECTION('',(-7.071067811866E-1,0.E0,7.071067811865E-1));
#163=VECTOR('',#162,1.346871385062E-2);
#164=CARTESIAN_POINT('',(3.149606299213E-1,0.E0,2.000374015748E-2));
#165=LINE('',#164,#163);
#166=CURVE_STYLE('',#19,POSITIVE_LENGTH_MEASURE(2.E-2),#13);
#167=PRESENTATION_STYLE_ASSIGNMENT((#166));
#168=STYLED_ITEM('',(#167),#165);
#169=CARTESIAN_POINT('',(0.E0,0.E0,2.000374015748E-2));
#170=DIRECTION('',(0.E0,0.E0,1.E0));
#171=DIRECTION('',(-1.E0,0.E0,0.E0));
#172=AXIS2_PLACEMENT_3D('',#169,#170,#171);
#174=CURVE_STYLE('',#19,POSITIVE_LENGTH_MEASURE(2.E-2),#13);
#175=PRESENTATION_STYLE_ASSIGNMENT((#174));
#176=STYLED_ITEM('',(#175),#173);
#177=DIRECTION('',(7.071067811866E-1,0.E0,7.071067811865E-1));
#178=VECTOR('',#177,1.346871385062E-2);
#179=CARTESIAN_POINT('',(-3.149606299213E-1,0.E0,2.000374015748E-2));
#180=LINE('',#179,#178);
#181=CURVE_STYLE('',#19,POSITIVE_LENGTH_MEASURE(2.E-2),#13);
#182=PRESENTATION_STYLE_ASSIGNMENT((#181));
#183=STYLED_ITEM('',(#182),#180);
#184=CARTESIAN_POINT('',(0.E0,0.E0,2.000374015748E-2));
#185=DIRECTION('',(0.E0,0.E0,1.E0));
#186=DIRECTION('',(1.E0,0.E0,0.E0));
#187=AXIS2_PLACEMENT_3D('',#184,#185,#186);
#189=CURVE_STYLE('',#19,POSITIVE_LENGTH_MEASURE(2.E-2),#13);
#190=PRESENTATION_STYLE_ASSIGNMENT((#189));
#191=STYLED_ITEM('',(#190),#188);
#192=DIRECTION('',(0.E0,0.E0,1.E0));
#193=VECTOR('',#192,4.000748031496E-2);
#194=CARTESIAN_POINT('',(-3.149606299213E-1,0.E0,-2.000374015748E-2));
#195=LINE('',#194,#193);
#196=CURVE_STYLE('',#19,POSITIVE_LENGTH_MEASURE(2.E-2),#13);
#197=PRESENTATION_STYLE_ASSIGNMENT((#196));
#198=STYLED_ITEM('',(#197),#195);
#199=DIRECTION('',(0.E0,0.E0,1.E0));
#200=VECTOR('',#199,4.000748031496E-2);
#201=CARTESIAN_POINT('',(3.149606299213E-1,0.E0,-2.000374015748E-2));
#202=LINE('',#201,#200);
#203=CURVE_STYLE('',#19,POSITIVE_LENGTH_MEASURE(2.E-2),#13);
#204=PRESENTATION_STYLE_ASSIGNMENT((#203));
#205=STYLED_ITEM('',(#204),#202);
#206=DIRECTION('',(0.E0,0.E0,1.E0));
#207=VECTOR('',#206,4.000748031496E-2);
#208=CARTESIAN_POINT('',(1.587303149606E-1,0.E0,-2.000374015748E-2));
#209=LINE('',#208,#207);
#210=CURVE_STYLE('',#19,POSITIVE_LENGTH_MEASURE(2.E-2),#13);
#211=PRESENTATION_STYLE_ASSIGNMENT((#210));
#212=STYLED_ITEM('',(#211),#209);
#213=DIRECTION('',(-7.071067811865E-1,0.E0,7.071067811866E-1));
#214=VECTOR('',#213,1.346871385062E-2);
#215=CARTESIAN_POINT('',(1.682541338583E-1,0.E0,-2.952755905512E-2));
#216=LINE('',#215,#214);
#217=CURVE_STYLE('',#19,POSITIVE_LENGTH_MEASURE(2.E-2),#13);
#218=PRESENTATION_STYLE_ASSIGNMENT((#217));
#219=STYLED_ITEM('',(#218),#216);
#220=CARTESIAN_POINT('',(0.E0,0.E0,-2.000374015748E-2));
#221=DIRECTION('',(0.E0,0.E0,1.E0));
#222=DIRECTION('',(1.E0,0.E0,0.E0));
#223=AXIS2_PLACEMENT_3D('',#220,#221,#222);
#225=CURVE_STYLE('',#19,POSITIVE_LENGTH_MEASURE(2.E-2),#13);
#226=PRESENTATION_STYLE_ASSIGNMENT((#225));
#227=STYLED_ITEM('',(#226),#224);
#228=CARTESIAN_POINT('',(-1.587303149606E-1,0.E0,2.000374015748E-2));
#229=CARTESIAN_POINT('',(1.587303149606E-1,0.E0,2.000374015748E-2));
#230=VERTEX_POINT('',#228);
#231=VERTEX_POINT('',#229);
#232=CARTESIAN_POINT('',(1.587303149606E-1,0.E0,-2.000374015748E-2));
#233=CARTESIAN_POINT('',(-1.587303149606E-1,0.E0,-2.000374015748E-2));
#234=VERTEX_POINT('',#232);
#235=VERTEX_POINT('',#233);
#236=CARTESIAN_POINT('',(-1.682541338583E-1,0.E0,2.952755905512E-2));
#237=VERTEX_POINT('',#236);
#238=CARTESIAN_POINT('',(-3.054368110236E-1,0.E0,-2.952755905512E-2));
#239=CARTESIAN_POINT('',(3.054368110236E-1,0.E0,-2.952755905512E-2));
#240=VERTEX_POINT('',#238);
#241=VERTEX_POINT('',#239);
#242=CARTESIAN_POINT('',(3.149606299213E-1,0.E0,-2.000374015748E-2));
#243=CARTESIAN_POINT('',(-3.149606299213E-1,0.E0,-2.000374015748E-2));
#244=VERTEX_POINT('',#242);
#245=VERTEX_POINT('',#243);
#246=CARTESIAN_POINT('',(1.682541338583E-1,0.E0,-2.952755905512E-2));
#247=CARTESIAN_POINT('',(-1.682541338583E-1,0.E0,-2.952755905512E-2));
#248=VERTEX_POINT('',#246);
#249=VERTEX_POINT('',#247);
#250=CARTESIAN_POINT('',(1.682541338583E-1,0.E0,2.952755905512E-2));
#251=VERTEX_POINT('',#250);
#252=CARTESIAN_POINT('',(3.149606299213E-1,0.E0,2.000374015748E-2));
#253=VERTEX_POINT('',#252);
#254=CARTESIAN_POINT('',(-3.149606299213E-1,0.E0,2.000374015748E-2));
#255=VERTEX_POINT('',#254);
#256=CARTESIAN_POINT('',(-3.054368110236E-1,0.E0,2.952755905512E-2));
#257=CARTESIAN_POINT('',(3.054368110236E-1,0.E0,2.952755905512E-2));
#258=VERTEX_POINT('',#256);
#259=VERTEX_POINT('',#257);
#260=CARTESIAN_POINT('',(0.E0,0.E0,-2.476564960630E-2));
#261=DIRECTION('',(0.E0,0.E0,1.E0));
#262=DIRECTION('',(1.E0,0.E0,0.E0));
#263=AXIS2_PLACEMENT_3D('',#260,#261,#262);
#264=CONICAL_SURFACE('',#263,3.101987204724E-1,4.5E1);
#266=ORIENTED_EDGE('',*,*,#265,.F.);
#268=ORIENTED_EDGE('',*,*,#267,.F.);
#270=ORIENTED_EDGE('',*,*,#269,.T.);
#272=ORIENTED_EDGE('',*,*,#271,.T.);
#273=EDGE_LOOP('',(#266,#268,#270,#272));
#274=FACE_OUTER_BOUND('',#273,.F.);
#276=CARTESIAN_POINT('',(0.E0,0.E0,-2.476564960630E-2));
#277=DIRECTION('',(0.E0,0.E0,1.E0));
#278=DIRECTION('',(1.E0,0.E0,0.E0));
#279=AXIS2_PLACEMENT_3D('',#276,#277,#278);
#280=CONICAL_SURFACE('',#279,3.101987204724E-1,4.5E1);
#282=ORIENTED_EDGE('',*,*,#281,.T.);
#283=ORIENTED_EDGE('',*,*,#269,.F.);
#285=ORIENTED_EDGE('',*,*,#284,.F.);
#286=ORIENTED_EDGE('',*,*,#265,.T.);
#287=EDGE_LOOP('',(#282,#283,#285,#286));
#288=FACE_OUTER_BOUND('',#287,.F.);
#290=CARTESIAN_POINT('',(0.E0,0.E0,-2.952755905512E-2));
#291=DIRECTION('',(0.E0,0.E0,1.E0));
#292=DIRECTION('',(1.E0,0.E0,0.E0));
#293=AXIS2_PLACEMENT_3D('',#290,#291,#292);
#294=PLANE('',#293);
#295=ORIENTED_EDGE('',*,*,#271,.F.);
#296=ORIENTED_EDGE('',*,*,#281,.F.);
#297=EDGE_LOOP('',(#295,#296));
#298=FACE_OUTER_BOUND('',#297,.F.);
#300=ORIENTED_EDGE('',*,*,#299,.F.);
#302=ORIENTED_EDGE('',*,*,#301,.F.);
#303=EDGE_LOOP('',(#300,#302));
#304=FACE_BOUND('',#303,.F.);
#306=CARTESIAN_POINT('',(0.E0,0.E0,-2.476564960630E-2));
#307=DIRECTION('',(0.E0,0.E0,-1.E0));
#308=DIRECTION('',(-1.E0,0.E0,0.E0));
#309=AXIS2_PLACEMENT_3D('',#306,#307,#308);
#310=CONICAL_SURFACE('',#309,1.634922244094E-1,4.5E1);
#312=ORIENTED_EDGE('',*,*,#311,.F.);
#314=ORIENTED_EDGE('',*,*,#313,.F.);
#315=ORIENTED_EDGE('',*,*,#299,.T.);
#317=ORIENTED_EDGE('',*,*,#316,.T.);
#318=EDGE_LOOP('',(#312,#314,#315,#317));
#319=FACE_OUTER_BOUND('',#318,.F.);
#321=CARTESIAN_POINT('',(0.E0,0.E0,2.952755905512E-2));
#322=DIRECTION('',(0.E0,0.E0,-1.E0));
#323=DIRECTION('',(-1.E0,0.E0,0.E0));
#324=AXIS2_PLACEMENT_3D('',#321,#322,#323);
#325=CYLINDRICAL_SURFACE('',#324,1.587303149606E-1);
#327=ORIENTED_EDGE('',*,*,#326,.T.);
#329=ORIENTED_EDGE('',*,*,#328,.F.);
#330=ORIENTED_EDGE('',*,*,#311,.T.);
#332=ORIENTED_EDGE('',*,*,#331,.T.);
#333=EDGE_LOOP('',(#327,#329,#330,#332));
#334=FACE_OUTER_BOUND('',#333,.F.);
#336=CARTESIAN_POINT('',(0.E0,0.E0,2.476564960630E-2));
#337=DIRECTION('',(0.E0,0.E0,1.E0));
#338=DIRECTION('',(1.E0,0.E0,0.E0));
#339=AXIS2_PLACEMENT_3D('',#336,#337,#338);
#340=CONICAL_SURFACE('',#339,1.634922244094E-1,4.5E1);
#341=ORIENTED_EDGE('',*,*,#326,.F.);
#343=ORIENTED_EDGE('',*,*,#342,.F.);
#345=ORIENTED_EDGE('',*,*,#344,.T.);
#347=ORIENTED_EDGE('',*,*,#346,.T.);
#348=EDGE_LOOP('',(#341,#343,#345,#347));
#349=FACE_OUTER_BOUND('',#348,.F.);
#351=CARTESIAN_POINT('',(0.E0,0.E0,2.476564960630E-2));
#352=DIRECTION('',(0.E0,0.E0,1.E0));
#353=DIRECTION('',(1.E0,0.E0,0.E0));
#354=AXIS2_PLACEMENT_3D('',#351,#352,#353);
#355=CONICAL_SURFACE('',#354,1.634922244094E-1,4.5E1);
#356=ORIENTED_EDGE('',*,*,#346,.F.);
#358=ORIENTED_EDGE('',*,*,#357,.T.);
#359=ORIENTED_EDGE('',*,*,#342,.T.);
#361=ORIENTED_EDGE('',*,*,#360,.F.);
#362=EDGE_LOOP('',(#356,#358,#359,#361));
#363=FACE_OUTER_BOUND('',#362,.F.);
#365=CARTESIAN_POINT('',(0.E0,0.E0,2.952755905512E-2));
#366=DIRECTION('',(0.E0,0.E0,1.E0));
#367=DIRECTION('',(1.E0,0.E0,0.E0));
#368=AXIS2_PLACEMENT_3D('',#365,#366,#367);
#369=PLANE('',#368);
#371=ORIENTED_EDGE('',*,*,#370,.F.);
#373=ORIENTED_EDGE('',*,*,#372,.F.);
#374=EDGE_LOOP('',(#371,#373));
#375=FACE_OUTER_BOUND('',#374,.F.);
#376=ORIENTED_EDGE('',*,*,#344,.F.);
#377=ORIENTED_EDGE('',*,*,#357,.F.);
#378=EDGE_LOOP('',(#376,#377));
#379=FACE_BOUND('',#378,.F.);
#381=CARTESIAN_POINT('',(0.E0,0.E0,2.476564960630E-2));
#382=DIRECTION('',(0.E0,0.E0,-1.E0));
#383=DIRECTION('',(-1.E0,0.E0,0.E0));
#384=AXIS2_PLACEMENT_3D('',#381,#382,#383);
#385=CONICAL_SURFACE('',#384,3.101987204724E-1,4.5E1);
#387=ORIENTED_EDGE('',*,*,#386,.F.);
#389=ORIENTED_EDGE('',*,*,#388,.F.);
#391=ORIENTED_EDGE('',*,*,#390,.T.);
#392=ORIENTED_EDGE('',*,*,#370,.T.);
#393=EDGE_LOOP('',(#387,#389,#391,#392));
#394=FACE_OUTER_BOUND('',#393,.F.);
#396=CARTESIAN_POINT('',(0.E0,0.E0,2.476564960630E-2));
#397=DIRECTION('',(0.E0,0.E0,-1.E0));
#398=DIRECTION('',(-1.E0,0.E0,0.E0));
#399=AXIS2_PLACEMENT_3D('',#396,#397,#398);
#400=CONICAL_SURFACE('',#399,3.101987204724E-1,4.5E1);
#401=ORIENTED_EDGE('',*,*,#372,.T.);
#402=ORIENTED_EDGE('',*,*,#390,.F.);
#404=ORIENTED_EDGE('',*,*,#403,.F.);
#405=ORIENTED_EDGE('',*,*,#386,.T.);
#406=EDGE_LOOP('',(#401,#402,#404,#405));
#407=FACE_OUTER_BOUND('',#406,.F.);
#409=CARTESIAN_POINT('',(0.E0,0.E0,2.952755905512E-2));
#410=DIRECTION('',(0.E0,0.E0,-1.E0));
#411=DIRECTION('',(-1.E0,0.E0,0.E0));
#412=AXIS2_PLACEMENT_3D('',#409,#410,#411);
#413=CYLINDRICAL_SURFACE('',#412,3.149606299213E-1);
#414=ORIENTED_EDGE('',*,*,#403,.T.);
#416=ORIENTED_EDGE('',*,*,#415,.F.);
#417=ORIENTED_EDGE('',*,*,#284,.T.);
#419=ORIENTED_EDGE('',*,*,#418,.T.);
#420=EDGE_LOOP('',(#414,#416,#417,#419));
#421=FACE_OUTER_BOUND('',#420,.F.);
#423=CARTESIAN_POINT('',(0.E0,0.E0,2.952755905512E-2));
#424=DIRECTION('',(0.E0,0.E0,-1.E0));
#425=DIRECTION('',(-1.E0,0.E0,0.E0));
#426=AXIS2_PLACEMENT_3D('',#423,#424,#425);
#427=CYLINDRICAL_SURFACE('',#426,3.149606299213E-1);
#428=ORIENTED_EDGE('',*,*,#418,.F.);
#429=ORIENTED_EDGE('',*,*,#267,.T.);
#430=ORIENTED_EDGE('',*,*,#415,.T.);
#431=ORIENTED_EDGE('',*,*,#388,.T.);
#432=EDGE_LOOP('',(#428,#429,#430,#431));
#433=FACE_OUTER_BOUND('',#432,.F.);
#435=CARTESIAN_POINT('',(0.E0,0.E0,2.952755905512E-2));
#436=DIRECTION('',(0.E0,0.E0,-1.E0));
#437=DIRECTION('',(-1.E0,0.E0,0.E0));
#438=AXIS2_PLACEMENT_3D('',#435,#436,#437);
#439=CYLINDRICAL_SURFACE('',#438,1.587303149606E-1);
#440=ORIENTED_EDGE('',*,*,#331,.F.);
#442=ORIENTED_EDGE('',*,*,#441,.T.);
#443=ORIENTED_EDGE('',*,*,#328,.T.);
#444=ORIENTED_EDGE('',*,*,#360,.T.);
#445=EDGE_LOOP('',(#440,#442,#443,#444));
#446=FACE_OUTER_BOUND('',#445,.F.);
#448=CARTESIAN_POINT('',(0.E0,0.E0,-2.476564960630E-2));
#449=DIRECTION('',(0.E0,0.E0,-1.E0));
#450=DIRECTION('',(-1.E0,0.E0,0.E0));
#451=AXIS2_PLACEMENT_3D('',#448,#449,#450);
#452=CONICAL_SURFACE('',#451,1.634922244094E-1,4.5E1);
#453=ORIENTED_EDGE('',*,*,#316,.F.);
#454=ORIENTED_EDGE('',*,*,#301,.T.);
#455=ORIENTED_EDGE('',*,*,#313,.T.);
#456=ORIENTED_EDGE('',*,*,#441,.F.);
#457=EDGE_LOOP('',(#453,#454,#455,#456));
#458=FACE_OUTER_BOUND('',#457,.F.);
#462=FILL_AREA_STYLE_COLOUR('',#13);
#463=FILL_AREA_STYLE('',(#462));
#464=SURFACE_STYLE_FILL_AREA(#463);
#465=SURFACE_SIDE_STYLE('',(#464));
#466=SURFACE_STYLE_USAGE(.BOTH.,#465);
#467=PRESENTATION_STYLE_ASSIGNMENT((#466));
#14=STYLED_ITEM('',(#467),#461);
#468=PRESENTATION_LAYER_ASSIGNMENT('NONE_39','',(#14,#275,#289,#305,#320,#335,
#350,#364,#380,#395,#408,#422,#434,#447,#459));
#470=LENGTH_MEASURE_WITH_UNIT(LENGTH_MEASURE(2.54E1),#469);
#471=(CONVERSION_BASED_UNIT('INCH',#470)LENGTH_UNIT()NAMED_UNIT(*));
#473=PLANE_ANGLE_MEASURE_WITH_UNIT(PLANE_ANGLE_MEASURE(1.745329251994E-2),#472);
#474=(CONVERSION_BASED_UNIT('DEGREE',#473)NAMED_UNIT(*)PLANE_ANGLE_UNIT());
#476=UNCERTAINTY_MEASURE_WITH_UNIT(LENGTH_MEASURE(8.927627503016E-5),#471,
'closure',
'Maximum model space distance between geometric entities at asserted connectivities');
#478=CARTESIAN_POINT('',(0.E0,0.E0,0.E0));
#479=DIRECTION('',(0.E0,0.E0,1.E0));
#480=DIRECTION('',(1.E0,0.E0,0.E0));
#483=MECHANICAL_DESIGN_GEOMETRIC_PRESENTATION_REPRESENTATION('',(#22,#30,#37,
#45,#53,#61,#69,#77,#85,#92,#99,#107,#114,#121,#129,#137,#145,#153,#161,#168,
#176,#183,#191,#198,#205,#212,#219,#227,#14),#477);
#484=APPLICATION_CONTEXT('automotive design');
#485=APPLICATION_PROTOCOL_DEFINITION('international standard',
'config_control_design',1994,#484);
#486=PRODUCT_DEFINITION_CONTEXT('',#484,'design');
#487=PRODUCT_CONTEXT('',#484,'mechanical');
#488=PRODUCT('2797T127_LIGHT_DUTY_DRY-RUNNING',
'2797T127_LIGHT_DUTY_DRY-RUNNING','NOT SPECIFIED',(#487));
#489=PRODUCT_DEFINITION_FORMATION_WITH_SPECIFIED_SOURCE('1','LAST_VERSION',#488,
.MADE.);
#497=LENGTH_MEASURE_WITH_UNIT(LENGTH_MEASURE(2.54E1),#496);
#498=(CONVERSION_BASED_UNIT('INCH',#497)LENGTH_UNIT()NAMED_UNIT(*));
#499=DERIVED_UNIT_ELEMENT(#498,2.E0);
#500=AREA_UNIT((#499));
#501=MEASURE_REPRESENTATION_ITEM('surface area measure',AREA_MEASURE(
3.919621059045E2),#500);
#506=LENGTH_MEASURE_WITH_UNIT(LENGTH_MEASURE(2.54E1),#505);
#507=(CONVERSION_BASED_UNIT('INCH',#506)LENGTH_UNIT()NAMED_UNIT(*));
#508=DERIVED_UNIT_ELEMENT(#507,3.E0);
#509=VOLUME_UNIT((#508));
#510=MEASURE_REPRESENTATION_ITEM('volume measure',VOLUME_MEASURE(
2.205691446127E2),#509);
#514=CARTESIAN_POINT('centre point',(0.E0,0.E0,0.E0));
#519=LENGTH_MEASURE_WITH_UNIT(LENGTH_MEASURE(2.54E1),#518);
#520=(CONVERSION_BASED_UNIT('INCH',#519)LENGTH_UNIT()NAMED_UNIT(*));
#521=DERIVED_UNIT_ELEMENT(#520,2.E0);
#522=AREA_UNIT((#521));
#523=MEASURE_REPRESENTATION_ITEM('surface area measure',AREA_MEASURE(
3.919621059045E2),#522);
#528=LENGTH_MEASURE_WITH_UNIT(LENGTH_MEASURE(2.54E1),#527);
#529=(CONVERSION_BASED_UNIT('INCH',#528)LENGTH_UNIT()NAMED_UNIT(*));
#530=DERIVED_UNIT_ELEMENT(#529,3.E0);
#531=VOLUME_UNIT((#530));
#532=MEASURE_REPRESENTATION_ITEM('volume measure',VOLUME_MEASURE(
2.205691446127E2),#531);
#536=CARTESIAN_POINT('centre point',(0.E0,0.E0,0.E0));
#1=DRAUGHTING_PRE_DEFINED_COLOUR('green');
#2=COLOUR_RGB('',1.1E-2,1.2E-2,1.E0);
#3=COLOUR_RGB('',4.1E-1,2.61589E-1,1.12848E-1);
#4=COLOUR_RGB('',5.04854E-1,1.5455E-2,1.5455E-2);
#5=COLOUR_RGB('',6.35294E-1,6.86275E-1,7.4902E-1);
#6=COLOUR_RGB('',6.40777E-1,6.40777E-1,6.40777E-1);
#7=COLOUR_RGB('',6.69062E-1,6.69903E-1,6.55217E-1);
#8=COLOUR_RGB('',9.21569E-1,7.05882E-1,4.70588E-1);
#9=DRAUGHTING_PRE_DEFINED_COLOUR('red');
#10=DRAUGHTING_PRE_DEFINED_COLOUR('yellow');
#11=COLOUR_RGB('',1.E0,1.E0,5.3E-1);
#12=COLOUR_RGB('',1.E0,1.E0,9.49E-1);
#13=DRAUGHTING_PRE_DEFINED_COLOUR('white');
#27=CIRCLE('',#26,3.149606299213E-1);
#42=CIRCLE('',#41,3.149606299213E-1);
#50=CIRCLE('',#49,3.054368110236E-1);
#58=CIRCLE('',#57,3.054368110236E-1);
#66=CIRCLE('',#65,1.682541338583E-1);
#74=CIRCLE('',#73,1.682541338583E-1);
#82=CIRCLE('',#81,1.587303149606E-1);
#104=CIRCLE('',#103,1.587303149606E-1);
#126=CIRCLE('',#125,1.587303149606E-1);
#134=CIRCLE('',#133,3.054368110236E-1);
#142=CIRCLE('',#141,3.054368110236E-1);
#150=CIRCLE('',#149,1.682541338583E-1);
#158=CIRCLE('',#157,1.682541338583E-1);
#173=CIRCLE('',#172,3.149606299213E-1);
#188=CIRCLE('',#187,3.149606299213E-1);
#224=CIRCLE('',#223,1.587303149606E-1);
#265=EDGE_CURVE('',#245,#240,#18,.T.);
#267=EDGE_CURVE('',#244,#245,#27,.T.);
#269=EDGE_CURVE('',#244,#241,#34,.T.);
#271=EDGE_CURVE('',#241,#240,#50,.T.);
#275=ADVANCED_FACE('',(#274),#264,.T.);
#281=EDGE_CURVE('',#240,#241,#58,.T.);
#284=EDGE_CURVE('',#245,#244,#42,.T.);
#289=ADVANCED_FACE('',(#288),#280,.T.);
#299=EDGE_CURVE('',#249,#248,#66,.T.);
#301=EDGE_CURVE('',#248,#249,#74,.T.);
#305=ADVANCED_FACE('',(#298,#304),#294,.F.);
#311=EDGE_CURVE('',#235,#234,#82,.T.);
#313=EDGE_CURVE('',#249,#235,#89,.T.);
#316=EDGE_CURVE('',#248,#234,#216,.T.);
#320=ADVANCED_FACE('',(#319),#310,.F.);
#326=EDGE_CURVE('',#231,#230,#104,.T.);
#328=EDGE_CURVE('',#235,#230,#96,.T.);
#331=EDGE_CURVE('',#234,#231,#209,.T.);
#335=ADVANCED_FACE('',(#334),#325,.F.);
#342=EDGE_CURVE('',#251,#231,#111,.T.);
#344=EDGE_CURVE('',#251,#237,#150,.T.);
#346=EDGE_CURVE('',#237,#230,#118,.T.);
#350=ADVANCED_FACE('',(#349),#340,.F.);
#357=EDGE_CURVE('',#237,#251,#158,.T.);
#360=EDGE_CURVE('',#230,#231,#126,.T.);
#364=ADVANCED_FACE('',(#363),#355,.F.);
#370=EDGE_CURVE('',#258,#259,#134,.T.);
#372=EDGE_CURVE('',#259,#258,#142,.T.);
#380=ADVANCED_FACE('',(#375,#379),#369,.T.);
#386=EDGE_CURVE('',#253,#259,#165,.T.);
#388=EDGE_CURVE('',#255,#253,#173,.T.);
#390=EDGE_CURVE('',#255,#258,#180,.T.);
#395=ADVANCED_FACE('',(#394),#385,.T.);
#403=EDGE_CURVE('',#253,#255,#188,.T.);
#408=ADVANCED_FACE('',(#407),#400,.T.);
#415=EDGE_CURVE('',#245,#255,#195,.T.);
#418=EDGE_CURVE('',#244,#253,#202,.T.);
#422=ADVANCED_FACE('',(#421),#413,.T.);
#434=ADVANCED_FACE('',(#433),#427,.T.);
#441=EDGE_CURVE('',#234,#235,#224,.T.);
#447=ADVANCED_FACE('',(#446),#439,.F.);
#459=ADVANCED_FACE('',(#458),#452,.F.);
#460=CLOSED_SHELL('',(#275,#289,#305,#320,#335,#350,#364,#380,#395,#408,#422,
#434,#447,#459));
#461=MANIFOLD_SOLID_BREP('',#460);
#469=(LENGTH_UNIT()NAMED_UNIT(*)SI_UNIT(.MILLI.,.METRE.));
#472=(NAMED_UNIT(*)PLANE_ANGLE_UNIT()SI_UNIT($,.RADIAN.));
#475=(NAMED_UNIT(*)SI_UNIT($,.STERADIAN.)SOLID_ANGLE_UNIT());
#477=(GEOMETRIC_REPRESENTATION_CONTEXT(3)GLOBAL_UNCERTAINTY_ASSIGNED_CONTEXT((
#476))GLOBAL_UNIT_ASSIGNED_CONTEXT((#471,#474,#475))REPRESENTATION_CONTEXT
('ID1','3'));
#481=AXIS2_PLACEMENT_3D('',#478,#479,#480);
#482=ADVANCED_BREP_SHAPE_REPRESENTATION('',(#481,#461),#477);
#490=PRODUCT_DEFINITION('design','',#489,#486);
#491=PRODUCT_DEFINITION_SHAPE('','SHAPE FOR 2797T127_LIGHT_DUTY_DRY-RUNNING.',
#490);
#492=SHAPE_ASPECT('',
'solid data associated with 2797T127_LIGHT_DUTY_DRY-RUNNING',#491,.F.);
#493=PROPERTY_DEFINITION('',
'shape for solid data with which properties are associated',#492);
#494=SHAPE_REPRESENTATION('',(#461),#477);
#495=SHAPE_DEFINITION_REPRESENTATION(#493,#494);
#496=(LENGTH_UNIT()NAMED_UNIT(*)SI_UNIT(.MILLI.,.METRE.));
#502=PROPERTY_DEFINITION('geometric validation property',
'area of 2797T127_LIGHT_DUTY_DRY-RUNNING',#492);
#503=REPRESENTATION('surface area',(#501),#477);
#504=PROPERTY_DEFINITION_REPRESENTATION(#502,#503);
#505=(LENGTH_UNIT()NAMED_UNIT(*)SI_UNIT(.MILLI.,.METRE.));
#511=PROPERTY_DEFINITION('geometric validation property',
'volume of 2797T127_LIGHT_DUTY_DRY-RUNNING',#492);
#512=REPRESENTATION('volume',(#510),#477);
#513=PROPERTY_DEFINITION_REPRESENTATION(#511,#512);
#515=PROPERTY_DEFINITION('geometric validation property',
'centroid of 2797T127_LIGHT_DUTY_DRY-RUNNING',#492);
#516=REPRESENTATION('centroid',(#514),#477);
#517=PROPERTY_DEFINITION_REPRESENTATION(#515,#516);
#518=(LENGTH_UNIT()NAMED_UNIT(*)SI_UNIT(.MILLI.,.METRE.));
#524=PROPERTY_DEFINITION('geometric validation property',
'area of 2797T127_LIGHT_DUTY_DRY-RUNNING',#491);
#525=REPRESENTATION('surface area',(#523),#477);
#526=PROPERTY_DEFINITION_REPRESENTATION(#524,#525);
#527=(LENGTH_UNIT()NAMED_UNIT(*)SI_UNIT(.MILLI.,.METRE.));
#533=PROPERTY_DEFINITION('geometric validation property',
'volume of 2797T127_LIGHT_DUTY_DRY-RUNNING',#491);
#534=REPRESENTATION('volume',(#532),#477);
#535=PROPERTY_DEFINITION_REPRESENTATION(#533,#534);
#537=PROPERTY_DEFINITION('geometric validation property',
'centroid of 2797T127_LIGHT_DUTY_DRY-RUNNING',#491);
#538=REPRESENTATION('centroid',(#536),#477);
#539=PROPERTY_DEFINITION_REPRESENTATION(#537,#538);
#540=SHAPE_DEFINITION_REPRESENTATION(#491,#482);
ENDSEC;
END-ISO-10303-21;
