ISO-10303-21;
HEADER;
FILE_DESCRIPTION((''),'2;1');
FILE_NAME('688Z_BEARING','2026-06-15T13:45:12',('Esia'),(''),
'CREO PARAMETRIC BY PTC INC, 2025102','CREO PARAMETRIC BY PTC INC, 2025102','');
FILE_SCHEMA((
'AP242_MANAGED_MODEL_BASED_3D_ENGINEERING_MIM_LF { 1 0 10303 442 1 1 4 }'));
ENDSEC;
DATA;
#16=CARTESIAN_POINT('',(0.E0,0.E0,0.E0));
#17=DIRECTION('',(-1.E0,0.E0,0.E0));
#18=DIRECTION('',(0.E0,0.E0,-1.E0));
#19=AXIS2_PLACEMENT_3D('',#16,#17,#18);
#21=DRAUGHTING_PRE_DEFINED_CURVE_FONT('continuous');
#22=CURVE_STYLE('',#21,POSITIVE_LENGTH_MEASURE(2.E-2),#8);
#23=PRESENTATION_STYLE_ASSIGNMENT((#22));
#24=STYLED_ITEM('',(#23),#20);
#25=CARTESIAN_POINT('',(0.E0,0.E0,0.E0));
#26=DIRECTION('',(-1.E0,0.E0,0.E0));
#27=DIRECTION('',(0.E0,0.E0,1.E0));
#28=AXIS2_PLACEMENT_3D('',#25,#26,#27);
#30=CURVE_STYLE('',#21,POSITIVE_LENGTH_MEASURE(2.E-2),#8);
#31=PRESENTATION_STYLE_ASSIGNMENT((#30));
#32=STYLED_ITEM('',(#31),#29);
#33=CARTESIAN_POINT('',(0.E0,0.E0,0.E0));
#34=DIRECTION('',(1.E0,0.E0,0.E0));
#35=DIRECTION('',(0.E0,0.E0,1.E0));
#36=AXIS2_PLACEMENT_3D('',#33,#34,#35);
#38=CURVE_STYLE('',#21,POSITIVE_LENGTH_MEASURE(2.E-2),#8);
#39=PRESENTATION_STYLE_ASSIGNMENT((#38));
#40=STYLED_ITEM('',(#39),#37);
#41=CARTESIAN_POINT('',(0.E0,0.E0,0.E0));
#42=DIRECTION('',(1.E0,0.E0,0.E0));
#43=DIRECTION('',(0.E0,0.E0,-1.E0));
#44=AXIS2_PLACEMENT_3D('',#41,#42,#43);
#46=CURVE_STYLE('',#21,POSITIVE_LENGTH_MEASURE(2.E-2),#8);
#47=PRESENTATION_STYLE_ASSIGNMENT((#46));
#48=STYLED_ITEM('',(#47),#45);
#49=CARTESIAN_POINT('',(0.E0,0.E0,0.E0));
#50=DIRECTION('',(-1.E0,0.E0,0.E0));
#51=DIRECTION('',(0.E0,0.E0,-1.E0));
#52=AXIS2_PLACEMENT_3D('',#49,#50,#51);
#54=CURVE_STYLE('',#21,POSITIVE_LENGTH_MEASURE(2.E-2),#8);
#55=PRESENTATION_STYLE_ASSIGNMENT((#54));
#56=STYLED_ITEM('',(#55),#53);
#57=CARTESIAN_POINT('',(0.E0,0.E0,0.E0));
#58=DIRECTION('',(-1.E0,0.E0,0.E0));
#59=DIRECTION('',(0.E0,0.E0,1.E0));
#60=AXIS2_PLACEMENT_3D('',#57,#58,#59);
#62=CURVE_STYLE('',#21,POSITIVE_LENGTH_MEASURE(2.E-2),#8);
#63=PRESENTATION_STYLE_ASSIGNMENT((#62));
#64=STYLED_ITEM('',(#63),#61);
#65=CARTESIAN_POINT('',(0.E0,0.E0,0.E0));
#66=DIRECTION('',(1.E0,0.E0,0.E0));
#67=DIRECTION('',(0.E0,0.E0,1.E0));
#68=AXIS2_PLACEMENT_3D('',#65,#66,#67);
#70=CURVE_STYLE('',#21,POSITIVE_LENGTH_MEASURE(2.E-2),#8);
#71=PRESENTATION_STYLE_ASSIGNMENT((#70));
#72=STYLED_ITEM('',(#71),#69);
#73=CARTESIAN_POINT('',(0.E0,0.E0,0.E0));
#74=DIRECTION('',(1.E0,0.E0,0.E0));
#75=DIRECTION('',(0.E0,0.E0,-1.E0));
#76=AXIS2_PLACEMENT_3D('',#73,#74,#75);
#78=CURVE_STYLE('',#21,POSITIVE_LENGTH_MEASURE(2.E-2),#8);
#79=PRESENTATION_STYLE_ASSIGNMENT((#78));
#80=STYLED_ITEM('',(#79),#77);
#81=CARTESIAN_POINT('',(7.874015748031E-3,1.343478280014E-14,
-3.070866141732E-1));
#82=DIRECTION('',(0.E0,-1.E0,-4.374885870240E-14));
#83=DIRECTION('',(-1.E0,0.E0,0.E0));
#84=AXIS2_PLACEMENT_3D('',#81,#82,#83);
#86=CURVE_STYLE('',#21,POSITIVE_LENGTH_MEASURE(2.E-2),#8);
#87=PRESENTATION_STYLE_ASSIGNMENT((#86));
#88=STYLED_ITEM('',(#87),#85);
#89=CARTESIAN_POINT('',(7.874015748031E-3,-1.347034463139E-14,
3.070866141732E-1));
#90=DIRECTION('',(0.E0,1.E0,4.386508517529E-14));
#91=DIRECTION('',(-1.E0,0.E0,0.E0));
#92=AXIS2_PLACEMENT_3D('',#89,#90,#91);
#94=CURVE_STYLE('',#21,POSITIVE_LENGTH_MEASURE(2.E-2),#8);
#95=PRESENTATION_STYLE_ASSIGNMENT((#94));
#96=STYLED_ITEM('',(#95),#93);
#97=CARTESIAN_POINT('',(7.874015748031E-3,0.E0,0.E0));
#98=DIRECTION('',(-1.E0,0.E0,0.E0));
#99=DIRECTION('',(0.E0,0.E0,1.E0));
#100=AXIS2_PLACEMENT_3D('',#97,#98,#99);
#102=CURVE_STYLE('',#21,POSITIVE_LENGTH_MEASURE(2.E-2),#8);
#103=PRESENTATION_STYLE_ASSIGNMENT((#102));
#104=STYLED_ITEM('',(#103),#101);
#105=CARTESIAN_POINT('',(1.889763779528E-1,0.E0,0.E0));
#106=DIRECTION('',(1.E0,0.E0,0.E0));
#107=DIRECTION('',(0.E0,0.E0,-1.E0));
#108=AXIS2_PLACEMENT_3D('',#105,#106,#107);
#110=CURVE_STYLE('',#21,POSITIVE_LENGTH_MEASURE(2.E-2),#8);
#111=PRESENTATION_STYLE_ASSIGNMENT((#110));
#112=STYLED_ITEM('',(#111),#109);
#113=CARTESIAN_POINT('',(7.874015748031E-3,0.E0,0.E0));
#114=DIRECTION('',(-1.E0,0.E0,0.E0));
#115=DIRECTION('',(0.E0,0.E0,-1.E0));
#116=AXIS2_PLACEMENT_3D('',#113,#114,#115);
#118=CURVE_STYLE('',#21,POSITIVE_LENGTH_MEASURE(2.E-2),#8);
#119=PRESENTATION_STYLE_ASSIGNMENT((#118));
#120=STYLED_ITEM('',(#119),#117);
#121=DIRECTION('',(1.E0,0.E0,0.E0));
#122=VECTOR('',#121,1.811023622047E-1);
#123=CARTESIAN_POINT('',(7.874015748031E-3,0.E0,3.149606299213E-1));
#124=LINE('',#123,#122);
#125=CURVE_STYLE('',#21,POSITIVE_LENGTH_MEASURE(2.E-2),#8);
#126=PRESENTATION_STYLE_ASSIGNMENT((#125));
#127=STYLED_ITEM('',(#126),#124);
#128=CARTESIAN_POINT('',(1.889763779528E-1,0.E0,0.E0));
#129=DIRECTION('',(1.E0,0.E0,0.E0));
#130=DIRECTION('',(0.E0,0.E0,1.E0));
#131=AXIS2_PLACEMENT_3D('',#128,#129,#130);
#133=CURVE_STYLE('',#21,POSITIVE_LENGTH_MEASURE(2.E-2),#8);
#134=PRESENTATION_STYLE_ASSIGNMENT((#133));
#135=STYLED_ITEM('',(#134),#132);
#136=DIRECTION('',(-1.E0,0.E0,0.E0));
#137=VECTOR('',#136,1.811023622047E-1);
#138=CARTESIAN_POINT('',(1.889763779528E-1,0.E0,-3.149606299213E-1));
#139=LINE('',#138,#137);
#140=CURVE_STYLE('',#21,POSITIVE_LENGTH_MEASURE(2.E-2),#8);
#141=PRESENTATION_STYLE_ASSIGNMENT((#140));
#142=STYLED_ITEM('',(#141),#139);
#143=CARTESIAN_POINT('',(1.889763779528E-1,0.E0,3.070866141732E-1));
#144=DIRECTION('',(0.E0,-1.E0,2.455327607898E-14));
#145=DIRECTION('',(1.E0,0.E0,0.E0));
#146=AXIS2_PLACEMENT_3D('',#143,#144,#145);
#148=CURVE_STYLE('',#21,POSITIVE_LENGTH_MEASURE(2.E-2),#8);
#149=PRESENTATION_STYLE_ASSIGNMENT((#148));
#150=STYLED_ITEM('',(#149),#147);
#151=CARTESIAN_POINT('',(1.968503937008E-1,0.E0,0.E0));
#152=DIRECTION('',(-1.E0,0.E0,0.E0));
#153=DIRECTION('',(0.E0,0.E0,-1.E0));
#154=AXIS2_PLACEMENT_3D('',#151,#152,#153);
#156=CURVE_STYLE('',#21,POSITIVE_LENGTH_MEASURE(2.E-2),#8);
#157=PRESENTATION_STYLE_ASSIGNMENT((#156));
#158=STYLED_ITEM('',(#157),#155);
#159=CARTESIAN_POINT('',(1.968503937008E-1,0.E0,0.E0));
#160=DIRECTION('',(-1.E0,0.E0,0.E0));
#161=DIRECTION('',(0.E0,0.E0,1.E0));
#162=AXIS2_PLACEMENT_3D('',#159,#160,#161);
#164=CURVE_STYLE('',#21,POSITIVE_LENGTH_MEASURE(2.E-2),#8);
#165=PRESENTATION_STYLE_ASSIGNMENT((#164));
#166=STYLED_ITEM('',(#165),#163);
#167=CARTESIAN_POINT('',(1.968503937008E-1,0.E0,0.E0));
#168=DIRECTION('',(1.E0,0.E0,0.E0));
#169=DIRECTION('',(0.E0,0.E0,1.E0));
#170=AXIS2_PLACEMENT_3D('',#167,#168,#169);
#172=CURVE_STYLE('',#21,POSITIVE_LENGTH_MEASURE(2.E-2),#8);
#173=PRESENTATION_STYLE_ASSIGNMENT((#172));
#174=STYLED_ITEM('',(#173),#171);
#175=CARTESIAN_POINT('',(1.968503937008E-1,0.E0,0.E0));
#176=DIRECTION('',(1.E0,0.E0,0.E0));
#177=DIRECTION('',(0.E0,0.E0,-1.E0));
#178=AXIS2_PLACEMENT_3D('',#175,#176,#177);
#180=CURVE_STYLE('',#21,POSITIVE_LENGTH_MEASURE(2.E-2),#8);
#181=PRESENTATION_STYLE_ASSIGNMENT((#180));
#182=STYLED_ITEM('',(#181),#179);
#183=CARTESIAN_POINT('',(1.968503937008E-1,0.E0,0.E0));
#184=DIRECTION('',(-1.E0,0.E0,0.E0));
#185=DIRECTION('',(0.E0,0.E0,-1.E0));
#186=AXIS2_PLACEMENT_3D('',#183,#184,#185);
#188=CURVE_STYLE('',#21,POSITIVE_LENGTH_MEASURE(2.E-2),#8);
#189=PRESENTATION_STYLE_ASSIGNMENT((#188));
#190=STYLED_ITEM('',(#189),#187);
#191=CARTESIAN_POINT('',(1.968503937008E-1,0.E0,0.E0));
#192=DIRECTION('',(-1.E0,0.E0,0.E0));
#193=DIRECTION('',(0.E0,0.E0,1.E0));
#194=AXIS2_PLACEMENT_3D('',#191,#192,#193);
#196=CURVE_STYLE('',#21,POSITIVE_LENGTH_MEASURE(2.E-2),#8);
#197=PRESENTATION_STYLE_ASSIGNMENT((#196));
#198=STYLED_ITEM('',(#197),#195);
#199=CARTESIAN_POINT('',(1.968503937008E-1,0.E0,0.E0));
#200=DIRECTION('',(1.E0,0.E0,0.E0));
#201=DIRECTION('',(0.E0,0.E0,1.E0));
#202=AXIS2_PLACEMENT_3D('',#199,#200,#201);
#204=CURVE_STYLE('',#21,POSITIVE_LENGTH_MEASURE(2.E-2),#8);
#205=PRESENTATION_STYLE_ASSIGNMENT((#204));
#206=STYLED_ITEM('',(#205),#203);
#207=CARTESIAN_POINT('',(1.968503937008E-1,0.E0,0.E0));
#208=DIRECTION('',(1.E0,0.E0,0.E0));
#209=DIRECTION('',(0.E0,0.E0,-1.E0));
#210=AXIS2_PLACEMENT_3D('',#207,#208,#209);
#212=CURVE_STYLE('',#21,POSITIVE_LENGTH_MEASURE(2.E-2),#8);
#213=PRESENTATION_STYLE_ASSIGNMENT((#212));
#214=STYLED_ITEM('',(#213),#211);
#215=CARTESIAN_POINT('',(1.889763779528E-1,2.232675849756E-14,
-2.874015748031E-1));
#216=DIRECTION('',(0.E0,-1.E0,-7.768525406293E-14));
#217=DIRECTION('',(1.E0,0.E0,4.934941344459E-14));
#218=AXIS2_PLACEMENT_3D('',#215,#216,#217);
#220=CURVE_STYLE('',#21,POSITIVE_LENGTH_MEASURE(2.E-2),#8);
#221=PRESENTATION_STYLE_ASSIGNMENT((#220));
#222=STYLED_ITEM('',(#221),#219);
#223=CARTESIAN_POINT('',(1.889763779528E-1,-2.242867350177E-14,
2.874015748031E-1));
#224=DIRECTION('',(0.E0,1.E0,7.803827029029E-14));
#225=DIRECTION('',(1.E0,0.E0,-4.934941344459E-14));
#226=AXIS2_PLACEMENT_3D('',#223,#224,#225);
#228=CURVE_STYLE('',#21,POSITIVE_LENGTH_MEASURE(2.E-2),#8);
#229=PRESENTATION_STYLE_ASSIGNMENT((#228));
#230=STYLED_ITEM('',(#229),#227);
#231=CARTESIAN_POINT('',(1.889763779528E-1,0.E0,0.E0));
#232=DIRECTION('',(-1.E0,0.E0,0.E0));
#233=DIRECTION('',(0.E0,0.E0,1.E0));
#234=AXIS2_PLACEMENT_3D('',#231,#232,#233);
#236=CURVE_STYLE('',#21,POSITIVE_LENGTH_MEASURE(2.E-2),#8);
#237=PRESENTATION_STYLE_ASSIGNMENT((#236));
#238=STYLED_ITEM('',(#237),#235);
#239=CARTESIAN_POINT('',(1.574803149606E-1,0.E0,0.E0));
#240=DIRECTION('',(1.E0,0.E0,0.E0));
#241=DIRECTION('',(0.E0,0.E0,-1.E0));
#242=AXIS2_PLACEMENT_3D('',#239,#240,#241);
#244=CURVE_STYLE('',#21,POSITIVE_LENGTH_MEASURE(2.E-2),#8);
#245=PRESENTATION_STYLE_ASSIGNMENT((#244));
#246=STYLED_ITEM('',(#245),#243);
#247=DIRECTION('',(1.E0,-6.699784735109E-14,0.E0));
#248=VECTOR('',#247,3.149606299213E-2);
#249=CARTESIAN_POINT('',(1.574803149606E-1,0.E0,2.795275590551E-1));
#250=LINE('',#249,#248);
#251=CURVE_STYLE('',#21,POSITIVE_LENGTH_MEASURE(2.E-2),#8);
#252=PRESENTATION_STYLE_ASSIGNMENT((#251));
#253=STYLED_ITEM('',(#252),#250);
#254=CARTESIAN_POINT('',(1.889763779528E-1,0.E0,0.E0));
#255=DIRECTION('',(-1.E0,0.E0,0.E0));
#256=DIRECTION('',(0.E0,0.E0,-1.E0));
#257=AXIS2_PLACEMENT_3D('',#254,#255,#256);
#259=CURVE_STYLE('',#21,POSITIVE_LENGTH_MEASURE(2.E-2),#8);
#260=PRESENTATION_STYLE_ASSIGNMENT((#259));
#261=STYLED_ITEM('',(#260),#258);
#262=CARTESIAN_POINT('',(1.574803149606E-1,0.E0,0.E0));
#263=DIRECTION('',(1.E0,0.E0,0.E0));
#264=DIRECTION('',(0.E0,0.E0,1.E0));
#265=AXIS2_PLACEMENT_3D('',#262,#263,#264);
#267=CURVE_STYLE('',#21,POSITIVE_LENGTH_MEASURE(2.E-2),#8);
#268=PRESENTATION_STYLE_ASSIGNMENT((#267));
#269=STYLED_ITEM('',(#268),#266);
#270=DIRECTION('',(1.E0,6.753973386019E-14,0.E0));
#271=VECTOR('',#270,3.149606299213E-2);
#272=CARTESIAN_POINT('',(1.574803149606E-1,0.E0,-2.795275590551E-1));
#273=LINE('',#272,#271);
#274=CURVE_STYLE('',#21,POSITIVE_LENGTH_MEASURE(2.E-2),#8);
#275=PRESENTATION_STYLE_ASSIGNMENT((#274));
#276=STYLED_ITEM('',(#275),#273);
#277=CARTESIAN_POINT('',(1.889763779528E-1,0.E0,0.E0));
#278=DIRECTION('',(1.E0,0.E0,0.E0));
#279=DIRECTION('',(0.E0,0.E0,1.E0));
#280=AXIS2_PLACEMENT_3D('',#277,#278,#279);
#282=CURVE_STYLE('',#21,POSITIVE_LENGTH_MEASURE(2.E-2),#8);
#283=PRESENTATION_STYLE_ASSIGNMENT((#282));
#284=STYLED_ITEM('',(#283),#281);
#285=CARTESIAN_POINT('',(1.574803149606E-1,0.E0,0.E0));
#286=DIRECTION('',(1.E0,0.E0,0.E0));
#287=DIRECTION('',(0.E0,0.E0,1.E0));
#288=AXIS2_PLACEMENT_3D('',#285,#286,#287);
#290=CURVE_STYLE('',#21,POSITIVE_LENGTH_MEASURE(2.E-2),#8);
#291=PRESENTATION_STYLE_ASSIGNMENT((#290));
#292=STYLED_ITEM('',(#291),#289);
#293=DIRECTION('',(1.E0,-1.472077570468E-13,0.E0));
#294=VECTOR('',#293,3.149606299213E-2);
#295=CARTESIAN_POINT('',(1.574803149606E-1,0.E0,1.909448818898E-1));
#296=LINE('',#295,#294);
#297=CURVE_STYLE('',#21,POSITIVE_LENGTH_MEASURE(2.E-2),#8);
#298=PRESENTATION_STYLE_ASSIGNMENT((#297));
#299=STYLED_ITEM('',(#298),#296);
#300=CARTESIAN_POINT('',(1.889763779528E-1,1.971014497448E-14,
1.830708661417E-1));
#301=DIRECTION('',(0.E0,-1.E0,1.076638778130E-13));
#302=DIRECTION('',(1.E0,0.E0,0.E0));
#303=AXIS2_PLACEMENT_3D('',#300,#301,#302);
#305=CURVE_STYLE('',#21,POSITIVE_LENGTH_MEASURE(2.E-2),#8);
#306=PRESENTATION_STYLE_ASSIGNMENT((#305));
#307=STYLED_ITEM('',(#306),#304);
#308=CARTESIAN_POINT('',(1.889763779528E-1,-1.969583350581E-14,
-1.830708661417E-1));
#309=DIRECTION('',(0.E0,1.E0,-1.075849478949E-13));
#310=DIRECTION('',(1.E0,0.E0,0.E0));
#311=AXIS2_PLACEMENT_3D('',#308,#309,#310);
#313=CURVE_STYLE('',#21,POSITIVE_LENGTH_MEASURE(2.E-2),#8);
#314=PRESENTATION_STYLE_ASSIGNMENT((#313));
#315=STYLED_ITEM('',(#314),#312);
#316=CARTESIAN_POINT('',(1.889763779528E-1,0.E0,0.E0));
#317=DIRECTION('',(1.E0,0.E0,0.E0));
#318=DIRECTION('',(0.E0,0.E0,-1.E0));
#319=AXIS2_PLACEMENT_3D('',#316,#317,#318);
#321=CURVE_STYLE('',#21,POSITIVE_LENGTH_MEASURE(2.E-2),#8);
#322=PRESENTATION_STYLE_ASSIGNMENT((#321));
#323=STYLED_ITEM('',(#322),#320);
#324=CARTESIAN_POINT('',(1.574803149606E-1,0.E0,0.E0));
#325=DIRECTION('',(1.E0,0.E0,0.E0));
#326=DIRECTION('',(0.E0,0.E0,-1.E0));
#327=AXIS2_PLACEMENT_3D('',#324,#325,#326);
#329=CURVE_STYLE('',#21,POSITIVE_LENGTH_MEASURE(2.E-2),#8);
#330=PRESENTATION_STYLE_ASSIGNMENT((#329));
#331=STYLED_ITEM('',(#330),#328);
#332=DIRECTION('',(1.E0,1.465970212100E-13,0.E0));
#333=VECTOR('',#332,3.149606299213E-2);
#334=CARTESIAN_POINT('',(1.574803149606E-1,0.E0,-1.909448818898E-1));
#335=LINE('',#334,#333);
#336=CURVE_STYLE('',#21,POSITIVE_LENGTH_MEASURE(2.E-2),#8);
#337=PRESENTATION_STYLE_ASSIGNMENT((#336));
#338=STYLED_ITEM('',(#337),#335);
#339=CARTESIAN_POINT('',(1.889763779528E-1,7.571504187509E-14,
-1.653543307087E-1));
#340=DIRECTION('',(0.E0,-1.E0,-4.578941392719E-13));
#341=DIRECTION('',(1.E0,0.E0,2.784716901516E-13));
#342=AXIS2_PLACEMENT_3D('',#339,#340,#341);
#344=CURVE_STYLE('',#21,POSITIVE_LENGTH_MEASURE(2.E-2),#8);
#345=PRESENTATION_STYLE_ASSIGNMENT((#344));
#346=STYLED_ITEM('',(#345),#343);
#347=CARTESIAN_POINT('',(1.889763779528E-1,-7.569942936381E-14,
1.653543307087E-1));
#348=DIRECTION('',(0.E0,1.E0,4.577987294807E-13));
#349=DIRECTION('',(1.E0,0.E0,-2.784716901516E-13));
#350=AXIS2_PLACEMENT_3D('',#347,#348,#349);
#352=CURVE_STYLE('',#21,POSITIVE_LENGTH_MEASURE(2.E-2),#8);
#353=PRESENTATION_STYLE_ASSIGNMENT((#352));
#354=STYLED_ITEM('',(#353),#351);
#355=CARTESIAN_POINT('',(7.874015748031E-3,0.E0,0.E0));
#356=DIRECTION('',(1.E0,0.E0,0.E0));
#357=DIRECTION('',(0.E0,0.E0,-1.E0));
#358=AXIS2_PLACEMENT_3D('',#355,#356,#357);
#360=CURVE_STYLE('',#21,POSITIVE_LENGTH_MEASURE(2.E-2),#8);
#361=PRESENTATION_STYLE_ASSIGNMENT((#360));
#362=STYLED_ITEM('',(#361),#359);
#363=CARTESIAN_POINT('',(1.889763779528E-1,0.E0,0.E0));
#364=DIRECTION('',(-1.E0,0.E0,0.E0));
#365=DIRECTION('',(0.E0,0.E0,1.E0));
#366=AXIS2_PLACEMENT_3D('',#363,#364,#365);
#368=CURVE_STYLE('',#21,POSITIVE_LENGTH_MEASURE(2.E-2),#8);
#369=PRESENTATION_STYLE_ASSIGNMENT((#368));
#370=STYLED_ITEM('',(#369),#367);
#371=DIRECTION('',(-1.E0,0.E0,0.E0));
#372=VECTOR('',#371,1.811023622047E-1);
#373=CARTESIAN_POINT('',(1.889763779528E-1,0.E0,-1.574803149606E-1));
#374=LINE('',#373,#372);
#375=CURVE_STYLE('',#21,POSITIVE_LENGTH_MEASURE(2.E-2),#8);
#376=PRESENTATION_STYLE_ASSIGNMENT((#375));
#377=STYLED_ITEM('',(#376),#374);
#378=CARTESIAN_POINT('',(7.874015748031E-3,-4.347390503145E-14,
-1.653543307087E-1));
#379=DIRECTION('',(0.E0,1.E0,-2.629129552956E-13));
#380=DIRECTION('',(-1.E0,0.E0,9.164891068281E-14));
#381=AXIS2_PLACEMENT_3D('',#378,#379,#380);
#383=CURVE_STYLE('',#21,POSITIVE_LENGTH_MEASURE(2.E-2),#8);
#384=PRESENTATION_STYLE_ASSIGNMENT((#383));
#385=STYLED_ITEM('',(#384),#382);
#386=CARTESIAN_POINT('',(7.874015748031E-3,4.352095940574E-14,
1.653543307087E-1));
#387=DIRECTION('',(0.E0,-1.E0,2.631974499456E-13));
#388=DIRECTION('',(-1.E0,0.E0,-1.057487430955E-13));
#389=AXIS2_PLACEMENT_3D('',#386,#387,#388);
#391=CURVE_STYLE('',#21,POSITIVE_LENGTH_MEASURE(2.E-2),#8);
#392=PRESENTATION_STYLE_ASSIGNMENT((#391));
#393=STYLED_ITEM('',(#392),#390);
#394=CARTESIAN_POINT('',(7.874015748031E-3,0.E0,0.E0));
#395=DIRECTION('',(1.E0,0.E0,0.E0));
#396=DIRECTION('',(0.E0,0.E0,1.E0));
#397=AXIS2_PLACEMENT_3D('',#394,#395,#396);
#399=CURVE_STYLE('',#21,POSITIVE_LENGTH_MEASURE(2.E-2),#8);
#400=PRESENTATION_STYLE_ASSIGNMENT((#399));
#401=STYLED_ITEM('',(#400),#398);
#402=CARTESIAN_POINT('',(1.889763779528E-1,0.E0,0.E0));
#403=DIRECTION('',(-1.E0,0.E0,0.E0));
#404=DIRECTION('',(0.E0,0.E0,-1.E0));
#405=AXIS2_PLACEMENT_3D('',#402,#403,#404);
#407=CURVE_STYLE('',#21,POSITIVE_LENGTH_MEASURE(2.E-2),#8);
#408=PRESENTATION_STYLE_ASSIGNMENT((#407));
#409=STYLED_ITEM('',(#408),#406);
#410=DIRECTION('',(-1.E0,0.E0,0.E0));
#411=VECTOR('',#410,1.811023622047E-1);
#412=CARTESIAN_POINT('',(1.889763779528E-1,0.E0,1.574803149606E-1));
#413=LINE('',#412,#411);
#414=CURVE_STYLE('',#21,POSITIVE_LENGTH_MEASURE(2.E-2),#8);
#415=PRESENTATION_STYLE_ASSIGNMENT((#414));
#416=STYLED_ITEM('',(#415),#413);
#417=CARTESIAN_POINT('',(1.889763779528E-1,0.E0,-3.070866141732E-1));
#418=DIRECTION('',(0.E0,1.E0,-2.438674262528E-14));
#419=DIRECTION('',(1.E0,0.E0,0.E0));
#420=AXIS2_PLACEMENT_3D('',#417,#418,#419);
#422=CURVE_STYLE('',#21,POSITIVE_LENGTH_MEASURE(2.E-2),#8);
#423=PRESENTATION_STYLE_ASSIGNMENT((#422));
#424=STYLED_ITEM('',(#423),#421);
#425=CARTESIAN_POINT('',(7.874015748031E-3,2.245599539652E-14,
2.874015748031E-1));
#426=DIRECTION('',(0.E0,-1.E0,7.813454744321E-14));
#427=DIRECTION('',(-1.E0,0.E0,-3.524958103185E-14));
#428=AXIS2_PLACEMENT_3D('',#425,#426,#427);
#430=CURVE_STYLE('',#21,POSITIVE_LENGTH_MEASURE(2.E-2),#8);
#431=PRESENTATION_STYLE_ASSIGNMENT((#430));
#432=STYLED_ITEM('',(#431),#429);
#433=CARTESIAN_POINT('',(7.874015748031E-3,-2.236275400969E-14,
-2.874015748031E-1));
#434=DIRECTION('',(0.E0,1.E0,-7.780928679146E-14));
#435=DIRECTION('',(-1.E0,0.E0,4.229949723822E-14));
#436=AXIS2_PLACEMENT_3D('',#433,#434,#435);
#438=CURVE_STYLE('',#21,POSITIVE_LENGTH_MEASURE(2.E-2),#8);
#439=PRESENTATION_STYLE_ASSIGNMENT((#438));
#440=STYLED_ITEM('',(#439),#437);
#441=CARTESIAN_POINT('',(7.874015748031E-3,0.E0,0.E0));
#442=DIRECTION('',(1.E0,0.E0,0.E0));
#443=DIRECTION('',(0.E0,0.E0,-1.E0));
#444=AXIS2_PLACEMENT_3D('',#441,#442,#443);
#446=CURVE_STYLE('',#21,POSITIVE_LENGTH_MEASURE(2.E-2),#8);
#447=PRESENTATION_STYLE_ASSIGNMENT((#446));
#448=STYLED_ITEM('',(#447),#445);
#449=DIRECTION('',(1.E0,-6.918740329934E-14,0.E0));
#450=VECTOR('',#449,3.149606299213E-2);
#451=CARTESIAN_POINT('',(7.874015748031E-3,0.E0,2.795275590551E-1));
#452=LINE('',#451,#450);
#453=CURVE_STYLE('',#21,POSITIVE_LENGTH_MEASURE(2.E-2),#8);
#454=PRESENTATION_STYLE_ASSIGNMENT((#453));
#455=STYLED_ITEM('',(#454),#452);
#456=CARTESIAN_POINT('',(7.874015748031E-3,0.E0,0.E0));
#457=DIRECTION('',(1.E0,0.E0,0.E0));
#458=DIRECTION('',(0.E0,0.E0,1.E0));
#459=AXIS2_PLACEMENT_3D('',#456,#457,#458);
#461=CURVE_STYLE('',#21,POSITIVE_LENGTH_MEASURE(2.E-2),#8);
#462=PRESENTATION_STYLE_ASSIGNMENT((#461));
#463=STYLED_ITEM('',(#462),#460);
#464=DIRECTION('',(1.E0,6.846084265759E-14,0.E0));
#465=VECTOR('',#464,3.149606299213E-2);
#466=CARTESIAN_POINT('',(7.874015748031E-3,0.E0,-2.795275590551E-1));
#467=LINE('',#466,#465);
#468=CURVE_STYLE('',#21,POSITIVE_LENGTH_MEASURE(2.E-2),#8);
#469=PRESENTATION_STYLE_ASSIGNMENT((#468));
#470=STYLED_ITEM('',(#469),#467);
#471=CARTESIAN_POINT('',(3.937007874016E-2,0.E0,0.E0));
#472=DIRECTION('',(-1.E0,0.E0,0.E0));
#473=DIRECTION('',(0.E0,0.E0,1.E0));
#474=AXIS2_PLACEMENT_3D('',#471,#472,#473);
#476=CURVE_STYLE('',#21,POSITIVE_LENGTH_MEASURE(2.E-2),#8);
#477=PRESENTATION_STYLE_ASSIGNMENT((#476));
#478=STYLED_ITEM('',(#477),#475);
#479=CARTESIAN_POINT('',(3.937007874016E-2,0.E0,0.E0));
#480=DIRECTION('',(-1.E0,0.E0,0.E0));
#481=DIRECTION('',(0.E0,0.E0,-1.E0));
#482=AXIS2_PLACEMENT_3D('',#479,#480,#481);
#484=CURVE_STYLE('',#21,POSITIVE_LENGTH_MEASURE(2.E-2),#8);
#485=PRESENTATION_STYLE_ASSIGNMENT((#484));
#486=STYLED_ITEM('',(#485),#483);
#487=CARTESIAN_POINT('',(3.937007874016E-2,0.E0,0.E0));
#488=DIRECTION('',(1.E0,0.E0,0.E0));
#489=DIRECTION('',(0.E0,0.E0,1.E0));
#490=AXIS2_PLACEMENT_3D('',#487,#488,#489);
#492=CURVE_STYLE('',#21,POSITIVE_LENGTH_MEASURE(2.E-2),#8);
#493=PRESENTATION_STYLE_ASSIGNMENT((#492));
#494=STYLED_ITEM('',(#493),#491);
#495=CARTESIAN_POINT('',(3.937007874016E-2,0.E0,0.E0));
#496=DIRECTION('',(1.E0,0.E0,0.E0));
#497=DIRECTION('',(0.E0,0.E0,-1.E0));
#498=AXIS2_PLACEMENT_3D('',#495,#496,#497);
#500=CURVE_STYLE('',#21,POSITIVE_LENGTH_MEASURE(2.E-2),#8);
#501=PRESENTATION_STYLE_ASSIGNMENT((#500));
#502=STYLED_ITEM('',(#501),#499);
#503=CARTESIAN_POINT('',(7.874015748031E-3,0.E0,0.E0));
#504=DIRECTION('',(-1.E0,0.E0,0.E0));
#505=DIRECTION('',(0.E0,0.E0,-1.E0));
#506=AXIS2_PLACEMENT_3D('',#503,#504,#505);
#508=CURVE_STYLE('',#21,POSITIVE_LENGTH_MEASURE(2.E-2),#8);
#509=PRESENTATION_STYLE_ASSIGNMENT((#508));
#510=STYLED_ITEM('',(#509),#507);
#511=DIRECTION('',(1.E0,-1.458018363136E-13,0.E0));
#512=VECTOR('',#511,3.149606299213E-2);
#513=CARTESIAN_POINT('',(7.874015748031E-3,0.E0,1.909448818898E-1));
#514=LINE('',#513,#512);
#515=CURVE_STYLE('',#21,POSITIVE_LENGTH_MEASURE(2.E-2),#8);
#516=PRESENTATION_STYLE_ASSIGNMENT((#515));
#517=STYLED_ITEM('',(#516),#514);
#518=CARTESIAN_POINT('',(7.874015748031E-3,1.979254433959E-14,
-1.830708661417E-1));
#519=DIRECTION('',(0.E0,-1.E0,-1.081140385550E-13));
#520=DIRECTION('',(-1.E0,0.E0,0.E0));
#521=AXIS2_PLACEMENT_3D('',#518,#519,#520);
#523=CURVE_STYLE('',#21,POSITIVE_LENGTH_MEASURE(2.E-2),#8);
#524=PRESENTATION_STYLE_ASSIGNMENT((#523));
#525=STYLED_ITEM('',(#524),#522);
#526=CARTESIAN_POINT('',(7.874015748031E-3,-1.976413824267E-14,
1.830708661417E-1));
#527=DIRECTION('',(0.E0,1.E0,1.079587808039E-13));
#528=DIRECTION('',(-1.E0,0.E0,-1.762479051592E-14));
#529=AXIS2_PLACEMENT_3D('',#526,#527,#528);
#531=CURVE_STYLE('',#21,POSITIVE_LENGTH_MEASURE(2.E-2),#8);
#532=PRESENTATION_STYLE_ASSIGNMENT((#531));
#533=STYLED_ITEM('',(#532),#530);
#534=CARTESIAN_POINT('',(7.874015748031E-3,0.E0,0.E0));
#535=DIRECTION('',(-1.E0,0.E0,0.E0));
#536=DIRECTION('',(0.E0,0.E0,1.E0));
#537=AXIS2_PLACEMENT_3D('',#534,#535,#536);
#539=CURVE_STYLE('',#21,POSITIVE_LENGTH_MEASURE(2.E-2),#8);
#540=PRESENTATION_STYLE_ASSIGNMENT((#539));
#541=STYLED_ITEM('',(#540),#538);
#542=DIRECTION('',(1.E0,1.460390819725E-13,0.E0));
#543=VECTOR('',#542,3.149606299213E-2);
#544=CARTESIAN_POINT('',(7.874015748031E-3,0.E0,-1.909448818898E-1));
#545=LINE('',#544,#543);
#546=CURVE_STYLE('',#21,POSITIVE_LENGTH_MEASURE(2.E-2),#8);
#547=PRESENTATION_STYLE_ASSIGNMENT((#546));
#548=STYLED_ITEM('',(#547),#545);
#549=CARTESIAN_POINT('',(1.574803149606E-1,0.E0,1.909448818898E-1));
#550=CARTESIAN_POINT('',(1.574803149606E-1,0.E0,-1.909448818898E-1));
#551=VERTEX_POINT('',#549);
#552=VERTEX_POINT('',#550);
#553=CARTESIAN_POINT('',(1.574803149606E-1,0.E0,2.795275590551E-1));
#554=CARTESIAN_POINT('',(1.574803149606E-1,0.E0,-2.795275590551E-1));
#555=VERTEX_POINT('',#553);
#556=VERTEX_POINT('',#554);
#557=CARTESIAN_POINT('',(1.968503937008E-1,0.E0,-2.874015748031E-1));
#558=CARTESIAN_POINT('',(1.968503937008E-1,0.E0,2.874015748031E-1));
#559=VERTEX_POINT('',#557);
#560=VERTEX_POINT('',#558);
#561=CARTESIAN_POINT('',(1.889763779528E-1,0.E0,-2.795275590551E-1));
#562=CARTESIAN_POINT('',(1.889763779528E-1,0.E0,2.795275590551E-1));
#563=VERTEX_POINT('',#561);
#564=VERTEX_POINT('',#562);
#565=CARTESIAN_POINT('',(1.968503937008E-1,0.E0,1.830708661417E-1));
#566=CARTESIAN_POINT('',(1.968503937008E-1,0.E0,-1.830708661417E-1));
#567=VERTEX_POINT('',#565);
#568=VERTEX_POINT('',#566);
#569=CARTESIAN_POINT('',(1.889763779528E-1,0.E0,1.909448818898E-1));
#570=CARTESIAN_POINT('',(1.889763779528E-1,0.E0,-1.909448818898E-1));
#571=VERTEX_POINT('',#569);
#572=VERTEX_POINT('',#570);
#573=CARTESIAN_POINT('',(1.968503937008E-1,0.E0,-1.653543307087E-1));
#574=CARTESIAN_POINT('',(1.968503937008E-1,0.E0,1.653543307087E-1));
#575=VERTEX_POINT('',#573);
#576=VERTEX_POINT('',#574);
#577=CARTESIAN_POINT('',(1.889763779528E-1,0.E0,-1.574803149606E-1));
#578=CARTESIAN_POINT('',(1.889763779528E-1,0.E0,1.574803149606E-1));
#579=VERTEX_POINT('',#577);
#580=VERTEX_POINT('',#578);
#581=CARTESIAN_POINT('',(0.E0,0.E0,-3.070866141732E-1));
#582=CARTESIAN_POINT('',(0.E0,0.E0,3.070866141732E-1));
#583=VERTEX_POINT('',#581);
#584=VERTEX_POINT('',#582);
#585=CARTESIAN_POINT('',(7.874015748031E-3,0.E0,-3.149606299213E-1));
#586=CARTESIAN_POINT('',(7.874015748031E-3,0.E0,3.149606299213E-1));
#587=VERTEX_POINT('',#585);
#588=VERTEX_POINT('',#586);
#589=CARTESIAN_POINT('',(3.937007874016E-2,0.E0,2.795275590551E-1));
#590=CARTESIAN_POINT('',(3.937007874016E-2,0.E0,-2.795275590551E-1));
#591=VERTEX_POINT('',#589);
#592=VERTEX_POINT('',#590);
#593=CARTESIAN_POINT('',(3.937007874016E-2,0.E0,1.909448818898E-1));
#594=CARTESIAN_POINT('',(3.937007874016E-2,0.E0,-1.909448818898E-1));
#595=VERTEX_POINT('',#593);
#596=VERTEX_POINT('',#594);
#597=CARTESIAN_POINT('',(0.E0,0.E0,2.874015748031E-1));
#598=CARTESIAN_POINT('',(0.E0,0.E0,-2.874015748031E-1));
#599=VERTEX_POINT('',#597);
#600=VERTEX_POINT('',#598);
#601=CARTESIAN_POINT('',(7.874015748031E-3,0.E0,2.795275590551E-1));
#602=CARTESIAN_POINT('',(7.874015748031E-3,0.E0,-2.795275590551E-1));
#603=VERTEX_POINT('',#601);
#604=VERTEX_POINT('',#602);
#605=CARTESIAN_POINT('',(1.968503937008E-1,0.E0,3.070866141732E-1));
#606=CARTESIAN_POINT('',(1.968503937008E-1,0.E0,-3.070866141732E-1));
#607=VERTEX_POINT('',#605);
#608=VERTEX_POINT('',#606);
#609=CARTESIAN_POINT('',(1.889763779528E-1,0.E0,3.149606299213E-1));
#610=CARTESIAN_POINT('',(1.889763779528E-1,0.E0,-3.149606299213E-1));
#611=VERTEX_POINT('',#609);
#612=VERTEX_POINT('',#610);
#613=CARTESIAN_POINT('',(0.E0,0.E0,-1.830708661417E-1));
#614=CARTESIAN_POINT('',(0.E0,0.E0,1.830708661417E-1));
#615=VERTEX_POINT('',#613);
#616=VERTEX_POINT('',#614);
#617=CARTESIAN_POINT('',(7.874015748031E-3,0.E0,-1.909448818898E-1));
#618=CARTESIAN_POINT('',(7.874015748031E-3,0.E0,1.909448818898E-1));
#619=VERTEX_POINT('',#617);
#620=VERTEX_POINT('',#618);
#621=CARTESIAN_POINT('',(0.E0,0.E0,1.653543307087E-1));
#622=CARTESIAN_POINT('',(0.E0,0.E0,-1.653543307087E-1));
#623=VERTEX_POINT('',#621);
#624=VERTEX_POINT('',#622);
#625=CARTESIAN_POINT('',(7.874015748031E-3,0.E0,1.574803149606E-1));
#626=CARTESIAN_POINT('',(7.874015748031E-3,0.E0,-1.574803149606E-1));
#627=VERTEX_POINT('',#625);
#628=VERTEX_POINT('',#626);
#629=CARTESIAN_POINT('',(0.E0,0.E0,0.E0));
#630=DIRECTION('',(1.E0,0.E0,0.E0));
#631=DIRECTION('',(0.E0,0.E0,-1.E0));
#632=AXIS2_PLACEMENT_3D('',#629,#630,#631);
#633=PLANE('',#632);
#635=ORIENTED_EDGE('',*,*,#634,.F.);
#637=ORIENTED_EDGE('',*,*,#636,.F.);
#638=EDGE_LOOP('',(#635,#637));
#639=FACE_OUTER_BOUND('',#638,.F.);
#641=ORIENTED_EDGE('',*,*,#640,.F.);
#643=ORIENTED_EDGE('',*,*,#642,.F.);
#644=EDGE_LOOP('',(#641,#643));
#645=FACE_BOUND('',#644,.F.);
#647=CARTESIAN_POINT('',(0.E0,0.E0,0.E0));
#648=DIRECTION('',(1.E0,0.E0,0.E0));
#649=DIRECTION('',(0.E0,0.E0,-1.E0));
#650=AXIS2_PLACEMENT_3D('',#647,#648,#649);
#651=PLANE('',#650);
#653=ORIENTED_EDGE('',*,*,#652,.F.);
#655=ORIENTED_EDGE('',*,*,#654,.F.);
#656=EDGE_LOOP('',(#653,#655));
#657=FACE_OUTER_BOUND('',#656,.F.);
#659=ORIENTED_EDGE('',*,*,#658,.F.);
#661=ORIENTED_EDGE('',*,*,#660,.F.);
#662=EDGE_LOOP('',(#659,#661));
#663=FACE_BOUND('',#662,.F.);
#665=CARTESIAN_POINT('',(7.874015748031E-3,0.E0,0.E0));
#666=DIRECTION('',(1.E0,0.E0,0.E0));
#667=DIRECTION('',(0.E0,6.329532360442E-3,-9.999799683094E-1));
#668=AXIS2_PLACEMENT_3D('',#665,#666,#667);
#669=TOROIDAL_SURFACE('',#668,3.070866141732E-1,7.874015748031E-3);
#670=ORIENTED_EDGE('',*,*,#634,.T.);
#672=ORIENTED_EDGE('',*,*,#671,.T.);
#674=ORIENTED_EDGE('',*,*,#673,.F.);
#676=ORIENTED_EDGE('',*,*,#675,.F.);
#677=EDGE_LOOP('',(#670,#672,#674,#676));
#678=FACE_OUTER_BOUND('',#677,.F.);
#680=CARTESIAN_POINT('',(7.874015748031E-3,0.E0,0.E0));
#681=DIRECTION('',(1.E0,0.E0,0.E0));
#682=DIRECTION('',(0.E0,-6.329532360442E-3,9.999799683094E-1));
#683=AXIS2_PLACEMENT_3D('',#680,#681,#682);
#684=TOROIDAL_SURFACE('',#683,3.070866141732E-1,7.874015748031E-3);
#685=ORIENTED_EDGE('',*,*,#636,.T.);
#686=ORIENTED_EDGE('',*,*,#675,.T.);
#688=ORIENTED_EDGE('',*,*,#687,.F.);
#689=ORIENTED_EDGE('',*,*,#671,.F.);
#690=EDGE_LOOP('',(#685,#686,#688,#689));
#691=FACE_OUTER_BOUND('',#690,.F.);
#693=CARTESIAN_POINT('',(0.E0,0.E0,0.E0));
#694=DIRECTION('',(1.E0,0.E0,0.E0));
#695=DIRECTION('',(0.E0,0.E0,-1.E0));
#696=AXIS2_PLACEMENT_3D('',#693,#694,#695);
#697=CYLINDRICAL_SURFACE('',#696,3.149606299213E-1);
#698=ORIENTED_EDGE('',*,*,#687,.T.);
#700=ORIENTED_EDGE('',*,*,#699,.F.);
#702=ORIENTED_EDGE('',*,*,#701,.T.);
#704=ORIENTED_EDGE('',*,*,#703,.F.);
#705=EDGE_LOOP('',(#698,#700,#702,#704));
#706=FACE_OUTER_BOUND('',#705,.F.);
#708=CARTESIAN_POINT('',(0.E0,0.E0,0.E0));
#709=DIRECTION('',(1.E0,0.E0,0.E0));
#710=DIRECTION('',(0.E0,0.E0,-1.E0));
#711=AXIS2_PLACEMENT_3D('',#708,#709,#710);
#712=CYLINDRICAL_SURFACE('',#711,3.149606299213E-1);
#713=ORIENTED_EDGE('',*,*,#673,.T.);
#714=ORIENTED_EDGE('',*,*,#703,.T.);
#716=ORIENTED_EDGE('',*,*,#715,.T.);
#717=ORIENTED_EDGE('',*,*,#699,.T.);
#718=EDGE_LOOP('',(#713,#714,#716,#717));
#719=FACE_OUTER_BOUND('',#718,.F.);
#721=CARTESIAN_POINT('',(1.889763779528E-1,0.E0,0.E0));
#722=DIRECTION('',(1.E0,0.E0,0.E0));
#723=DIRECTION('',(0.E0,4.455688670267E-3,9.999900733700E-1));
#724=AXIS2_PLACEMENT_3D('',#721,#722,#723);
#725=TOROIDAL_SURFACE('',#724,3.070866141732E-1,7.874015748031E-3);
#727=ORIENTED_EDGE('',*,*,#726,.T.);
#729=ORIENTED_EDGE('',*,*,#728,.T.);
#730=ORIENTED_EDGE('',*,*,#715,.F.);
#732=ORIENTED_EDGE('',*,*,#731,.F.);
#733=EDGE_LOOP('',(#727,#729,#730,#732));
#734=FACE_OUTER_BOUND('',#733,.F.);
#736=CARTESIAN_POINT('',(1.968503937008E-1,0.E0,0.E0));
#737=DIRECTION('',(1.E0,0.E0,0.E0));
#738=DIRECTION('',(0.E0,0.E0,-1.E0));
#739=AXIS2_PLACEMENT_3D('',#736,#737,#738);
#740=PLANE('',#739);
#742=ORIENTED_EDGE('',*,*,#741,.F.);
#744=ORIENTED_EDGE('',*,*,#743,.F.);
#745=EDGE_LOOP('',(#742,#744));
#746=FACE_OUTER_BOUND('',#745,.F.);
#748=ORIENTED_EDGE('',*,*,#747,.F.);
#750=ORIENTED_EDGE('',*,*,#749,.F.);
#751=EDGE_LOOP('',(#748,#750));
#752=FACE_BOUND('',#751,.F.);
#754=CARTESIAN_POINT('',(1.968503937008E-1,0.E0,0.E0));
#755=DIRECTION('',(1.E0,0.E0,0.E0));
#756=DIRECTION('',(0.E0,0.E0,-1.E0));
#757=AXIS2_PLACEMENT_3D('',#754,#755,#756);
#758=PLANE('',#757);
#759=ORIENTED_EDGE('',*,*,#726,.F.);
#761=ORIENTED_EDGE('',*,*,#760,.F.);
#762=EDGE_LOOP('',(#759,#761));
#763=FACE_OUTER_BOUND('',#762,.F.);
#765=ORIENTED_EDGE('',*,*,#764,.F.);
#767=ORIENTED_EDGE('',*,*,#766,.F.);
#768=EDGE_LOOP('',(#765,#767));
#769=FACE_BOUND('',#768,.F.);
#771=CARTESIAN_POINT('',(1.889763779528E-1,0.E0,0.E0));
#772=DIRECTION('',(1.E0,0.E0,0.E0));
#773=DIRECTION('',(0.E0,7.131854610167E-3,-9.999745680015E-1));
#774=AXIS2_PLACEMENT_3D('',#771,#772,#773);
#775=TOROIDAL_SURFACE('',#774,2.874015748031E-1,7.874015748031E-3);
#776=ORIENTED_EDGE('',*,*,#764,.T.);
#778=ORIENTED_EDGE('',*,*,#777,.T.);
#780=ORIENTED_EDGE('',*,*,#779,.F.);
#782=ORIENTED_EDGE('',*,*,#781,.F.);
#783=EDGE_LOOP('',(#776,#778,#780,#782));
#784=FACE_OUTER_BOUND('',#783,.F.);
#786=CARTESIAN_POINT('',(1.889763779528E-1,0.E0,0.E0));
#787=DIRECTION('',(1.E0,0.E0,0.E0));
#788=DIRECTION('',(0.E0,-7.131854610168E-3,9.999745680015E-1));
#789=AXIS2_PLACEMENT_3D('',#786,#787,#788);
#790=TOROIDAL_SURFACE('',#789,2.874015748031E-1,7.874015748031E-3);
#791=ORIENTED_EDGE('',*,*,#766,.T.);
#792=ORIENTED_EDGE('',*,*,#781,.T.);
#794=ORIENTED_EDGE('',*,*,#793,.F.);
#795=ORIENTED_EDGE('',*,*,#777,.F.);
#796=EDGE_LOOP('',(#791,#792,#794,#795));
#797=FACE_OUTER_BOUND('',#796,.F.);
#799=CARTESIAN_POINT('',(4.330708661417E-2,0.E0,0.E0));
#800=DIRECTION('',(1.E0,0.E0,0.E0));
#801=DIRECTION('',(0.E0,0.E0,-1.E0));
#802=AXIS2_PLACEMENT_3D('',#799,#800,#801);
#803=CYLINDRICAL_SURFACE('',#802,2.795275590551E-1);
#804=ORIENTED_EDGE('',*,*,#793,.T.);
#806=ORIENTED_EDGE('',*,*,#805,.F.);
#808=ORIENTED_EDGE('',*,*,#807,.T.);
#810=ORIENTED_EDGE('',*,*,#809,.T.);
#811=EDGE_LOOP('',(#804,#806,#808,#810));
#812=FACE_OUTER_BOUND('',#811,.F.);
#814=CARTESIAN_POINT('',(4.330708661417E-2,0.E0,0.E0));
#815=DIRECTION('',(1.E0,0.E0,0.E0));
#816=DIRECTION('',(0.E0,0.E0,-1.E0));
#817=AXIS2_PLACEMENT_3D('',#814,#815,#816);
#818=CYLINDRICAL_SURFACE('',#817,2.795275590551E-1);
#819=ORIENTED_EDGE('',*,*,#779,.T.);
#820=ORIENTED_EDGE('',*,*,#809,.F.);
#822=ORIENTED_EDGE('',*,*,#821,.T.);
#823=ORIENTED_EDGE('',*,*,#805,.T.);
#824=EDGE_LOOP('',(#819,#820,#822,#823));
#825=FACE_OUTER_BOUND('',#824,.F.);
#827=CARTESIAN_POINT('',(1.574803149606E-1,0.E0,0.E0));
#828=DIRECTION('',(1.E0,0.E0,0.E0));
#829=DIRECTION('',(0.E0,0.E0,-1.E0));
#830=AXIS2_PLACEMENT_3D('',#827,#828,#829);
#831=PLANE('',#830);
#832=ORIENTED_EDGE('',*,*,#821,.F.);
#833=ORIENTED_EDGE('',*,*,#807,.F.);
#834=EDGE_LOOP('',(#832,#833));
#835=FACE_OUTER_BOUND('',#834,.F.);
#837=ORIENTED_EDGE('',*,*,#836,.T.);
#839=ORIENTED_EDGE('',*,*,#838,.T.);
#840=EDGE_LOOP('',(#837,#839));
#841=FACE_BOUND('',#840,.F.);
#843=FILL_AREA_STYLE_COLOUR('',#8);
#844=FILL_AREA_STYLE('',(#843));
#845=SURFACE_STYLE_FILL_AREA(#844);
#846=SURFACE_SIDE_STYLE('',(#845));
#847=SURFACE_STYLE_USAGE(.NEGATIVE.,#846);
#848=PRESENTATION_STYLE_ASSIGNMENT((#847));
#849=STYLED_ITEM('',(#848),#842);
#850=CARTESIAN_POINT('',(4.330708661417E-2,0.E0,0.E0));
#851=DIRECTION('',(1.E0,0.E0,0.E0));
#852=DIRECTION('',(0.E0,0.E0,-1.E0));
#853=AXIS2_PLACEMENT_3D('',#850,#851,#852);
#854=CYLINDRICAL_SURFACE('',#853,1.909448818898E-1);
#856=ORIENTED_EDGE('',*,*,#855,.T.);
#858=ORIENTED_EDGE('',*,*,#857,.F.);
#859=ORIENTED_EDGE('',*,*,#836,.F.);
#861=ORIENTED_EDGE('',*,*,#860,.T.);
#862=EDGE_LOOP('',(#856,#858,#859,#861));
#863=FACE_OUTER_BOUND('',#862,.F.);
#865=CARTESIAN_POINT('',(1.889763779528E-1,0.E0,0.E0));
#866=DIRECTION('',(1.E0,0.E0,0.E0));
#867=DIRECTION('',(0.E0,7.349547711231E-3,9.999729917095E-1));
#868=AXIS2_PLACEMENT_3D('',#865,#866,#867);
#869=TOROIDAL_SURFACE('',#868,1.830708661417E-1,7.874015748031E-3);
#870=ORIENTED_EDGE('',*,*,#741,.T.);
#872=ORIENTED_EDGE('',*,*,#871,.T.);
#873=ORIENTED_EDGE('',*,*,#855,.F.);
#875=ORIENTED_EDGE('',*,*,#874,.F.);
#876=EDGE_LOOP('',(#870,#872,#873,#875));
#877=FACE_OUTER_BOUND('',#876,.F.);
#879=CARTESIAN_POINT('',(1.889763779528E-1,0.E0,0.E0));
#880=DIRECTION('',(1.E0,0.E0,0.E0));
#881=DIRECTION('',(0.E0,-7.349547711231E-3,-9.999729917095E-1));
#882=AXIS2_PLACEMENT_3D('',#879,#880,#881);
#883=TOROIDAL_SURFACE('',#882,1.830708661417E-1,7.874015748031E-3);
#884=ORIENTED_EDGE('',*,*,#743,.T.);
#885=ORIENTED_EDGE('',*,*,#874,.T.);
#887=ORIENTED_EDGE('',*,*,#886,.F.);
#888=ORIENTED_EDGE('',*,*,#871,.F.);
#889=EDGE_LOOP('',(#884,#885,#887,#888));
#890=FACE_OUTER_BOUND('',#889,.F.);
#892=CARTESIAN_POINT('',(4.330708661417E-2,0.E0,0.E0));
#893=DIRECTION('',(1.E0,0.E0,0.E0));
#894=DIRECTION('',(0.E0,0.E0,-1.E0));
#895=AXIS2_PLACEMENT_3D('',#892,#893,#894);
#896=CYLINDRICAL_SURFACE('',#895,1.909448818898E-1);
#897=ORIENTED_EDGE('',*,*,#886,.T.);
#898=ORIENTED_EDGE('',*,*,#860,.F.);
#899=ORIENTED_EDGE('',*,*,#838,.F.);
#900=ORIENTED_EDGE('',*,*,#857,.T.);
#901=EDGE_LOOP('',(#897,#898,#899,#900));
#902=FACE_OUTER_BOUND('',#901,.F.);
#904=CARTESIAN_POINT('',(1.889763779528E-1,0.E0,0.E0));
#905=DIRECTION('',(1.E0,0.E0,0.E0));
#906=DIRECTION('',(0.E0,1.265881113842E-2,-9.999198740402E-1));
#907=AXIS2_PLACEMENT_3D('',#904,#905,#906);
#908=TOROIDAL_SURFACE('',#907,1.653543307087E-1,7.874015748031E-3);
#909=ORIENTED_EDGE('',*,*,#747,.T.);
#911=ORIENTED_EDGE('',*,*,#910,.T.);
#913=ORIENTED_EDGE('',*,*,#912,.F.);
#915=ORIENTED_EDGE('',*,*,#914,.F.);
#916=EDGE_LOOP('',(#909,#911,#913,#915));
#917=FACE_OUTER_BOUND('',#916,.F.);
#919=CARTESIAN_POINT('',(1.889763779528E-1,0.E0,0.E0));
#920=DIRECTION('',(1.E0,0.E0,0.E0));
#921=DIRECTION('',(0.E0,-1.265881113842E-2,9.999198740402E-1));
#922=AXIS2_PLACEMENT_3D('',#919,#920,#921);
#923=TOROIDAL_SURFACE('',#922,1.653543307087E-1,7.874015748031E-3);
#924=ORIENTED_EDGE('',*,*,#749,.T.);
#925=ORIENTED_EDGE('',*,*,#914,.T.);
#927=ORIENTED_EDGE('',*,*,#926,.F.);
#928=ORIENTED_EDGE('',*,*,#910,.F.);
#929=EDGE_LOOP('',(#924,#925,#927,#928));
#930=FACE_OUTER_BOUND('',#929,.F.);
#932=CARTESIAN_POINT('',(1.968503937008E-1,0.E0,0.E0));
#933=DIRECTION('',(1.E0,0.E0,0.E0));
#934=DIRECTION('',(0.E0,0.E0,-1.E0));
#935=AXIS2_PLACEMENT_3D('',#932,#933,#934);
#936=CYLINDRICAL_SURFACE('',#935,1.574803149606E-1);
#938=ORIENTED_EDGE('',*,*,#937,.T.);
#940=ORIENTED_EDGE('',*,*,#939,.F.);
#941=ORIENTED_EDGE('',*,*,#926,.T.);
#943=ORIENTED_EDGE('',*,*,#942,.T.);
#944=EDGE_LOOP('',(#938,#940,#941,#943));
#945=FACE_OUTER_BOUND('',#944,.F.);
#947=CARTESIAN_POINT('',(7.874015748032E-3,0.E0,0.E0));
#948=DIRECTION('',(1.E0,0.E0,0.E0));
#949=DIRECTION('',(0.E0,-8.911288880588E-3,-9.999602936769E-1));
#950=AXIS2_PLACEMENT_3D('',#947,#948,#949);
#951=TOROIDAL_SURFACE('',#950,1.653543307087E-1,7.874015748031E-3);
#952=ORIENTED_EDGE('',*,*,#660,.T.);
#954=ORIENTED_EDGE('',*,*,#953,.T.);
#955=ORIENTED_EDGE('',*,*,#937,.F.);
#957=ORIENTED_EDGE('',*,*,#956,.F.);
#958=EDGE_LOOP('',(#952,#954,#955,#957));
#959=FACE_OUTER_BOUND('',#958,.F.);
#961=CARTESIAN_POINT('',(7.874015748032E-3,0.E0,0.E0));
#962=DIRECTION('',(1.E0,0.E0,0.E0));
#963=DIRECTION('',(0.E0,8.911288880589E-3,9.999602936769E-1));
#964=AXIS2_PLACEMENT_3D('',#961,#962,#963);
#965=TOROIDAL_SURFACE('',#964,1.653543307087E-1,7.874015748031E-3);
#966=ORIENTED_EDGE('',*,*,#658,.T.);
#967=ORIENTED_EDGE('',*,*,#956,.T.);
#969=ORIENTED_EDGE('',*,*,#968,.F.);
#970=ORIENTED_EDGE('',*,*,#953,.F.);
#971=EDGE_LOOP('',(#966,#967,#969,#970));
#972=FACE_OUTER_BOUND('',#971,.F.);
#974=CARTESIAN_POINT('',(1.968503937008E-1,0.E0,0.E0));
#975=DIRECTION('',(1.E0,0.E0,0.E0));
#976=DIRECTION('',(0.E0,0.E0,-1.E0));
#977=AXIS2_PLACEMENT_3D('',#974,#975,#976);
#978=CYLINDRICAL_SURFACE('',#977,1.574803149606E-1);
#979=ORIENTED_EDGE('',*,*,#968,.T.);
#980=ORIENTED_EDGE('',*,*,#942,.F.);
#981=ORIENTED_EDGE('',*,*,#912,.T.);
#982=ORIENTED_EDGE('',*,*,#939,.T.);
#983=EDGE_LOOP('',(#979,#980,#981,#982));
#984=FACE_OUTER_BOUND('',#983,.F.);
#986=CARTESIAN_POINT('',(1.889763779528E-1,0.E0,0.E0));
#987=DIRECTION('',(1.E0,0.E0,0.E0));
#988=DIRECTION('',(0.E0,-4.455688670267E-3,-9.999900733700E-1));
#989=AXIS2_PLACEMENT_3D('',#986,#987,#988);
#990=TOROIDAL_SURFACE('',#989,3.070866141732E-1,7.874015748031E-3);
#991=ORIENTED_EDGE('',*,*,#760,.T.);
#992=ORIENTED_EDGE('',*,*,#731,.T.);
#993=ORIENTED_EDGE('',*,*,#701,.F.);
#994=ORIENTED_EDGE('',*,*,#728,.F.);
#995=EDGE_LOOP('',(#991,#992,#993,#994));
#996=FACE_OUTER_BOUND('',#995,.F.);
#998=CARTESIAN_POINT('',(7.874015748031E-3,0.E0,0.E0));
#999=DIRECTION('',(-1.E0,0.E0,0.E0));
#1000=DIRECTION('',(0.E0,7.131854610167E-3,9.999745680015E-1));
#1001=AXIS2_PLACEMENT_3D('',#998,#999,#1000);
#1002=TOROIDAL_SURFACE('',#1001,2.874015748031E-1,7.874015748031E-3);
#1003=ORIENTED_EDGE('',*,*,#640,.T.);
#1005=ORIENTED_EDGE('',*,*,#1004,.T.);
#1007=ORIENTED_EDGE('',*,*,#1006,.F.);
#1009=ORIENTED_EDGE('',*,*,#1008,.F.);
#1010=EDGE_LOOP('',(#1003,#1005,#1007,#1009));
#1011=FACE_OUTER_BOUND('',#1010,.F.);
#1013=CARTESIAN_POINT('',(7.874015748031E-3,0.E0,0.E0));
#1014=DIRECTION('',(-1.E0,0.E0,0.E0));
#1015=DIRECTION('',(0.E0,-7.131854610168E-3,-9.999745680015E-1));
#1016=AXIS2_PLACEMENT_3D('',#1013,#1014,#1015);
#1017=TOROIDAL_SURFACE('',#1016,2.874015748031E-1,7.874015748031E-3);
#1018=ORIENTED_EDGE('',*,*,#642,.T.);
#1019=ORIENTED_EDGE('',*,*,#1008,.T.);
#1021=ORIENTED_EDGE('',*,*,#1020,.F.);
#1022=ORIENTED_EDGE('',*,*,#1004,.F.);
#1023=EDGE_LOOP('',(#1018,#1019,#1021,#1022));
#1024=FACE_OUTER_BOUND('',#1023,.F.);
#1026=CARTESIAN_POINT('',(0.E0,0.E0,0.E0));
#1027=DIRECTION('',(-1.E0,0.E0,0.E0));
#1028=DIRECTION('',(0.E0,0.E0,1.E0));
#1029=AXIS2_PLACEMENT_3D('',#1026,#1027,#1028);
#1030=CYLINDRICAL_SURFACE('',#1029,2.795275590551E-1);
#1031=ORIENTED_EDGE('',*,*,#1020,.T.);
#1033=ORIENTED_EDGE('',*,*,#1032,.T.);
#1035=ORIENTED_EDGE('',*,*,#1034,.T.);
#1037=ORIENTED_EDGE('',*,*,#1036,.F.);
#1038=EDGE_LOOP('',(#1031,#1033,#1035,#1037));
#1039=FACE_OUTER_BOUND('',#1038,.F.);
#1041=CARTESIAN_POINT('',(0.E0,0.E0,0.E0));
#1042=DIRECTION('',(-1.E0,0.E0,0.E0));
#1043=DIRECTION('',(0.E0,0.E0,1.E0));
#1044=AXIS2_PLACEMENT_3D('',#1041,#1042,#1043);
#1045=CYLINDRICAL_SURFACE('',#1044,2.795275590551E-1);
#1046=ORIENTED_EDGE('',*,*,#1006,.T.);
#1047=ORIENTED_EDGE('',*,*,#1036,.T.);
#1049=ORIENTED_EDGE('',*,*,#1048,.T.);
#1050=ORIENTED_EDGE('',*,*,#1032,.F.);
#1051=EDGE_LOOP('',(#1046,#1047,#1049,#1050));
#1052=FACE_OUTER_BOUND('',#1051,.F.);
#1054=CARTESIAN_POINT('',(3.937007874016E-2,0.E0,0.E0));
#1055=DIRECTION('',(-1.E0,0.E0,0.E0));
#1056=DIRECTION('',(0.E0,0.E0,1.E0));
#1057=AXIS2_PLACEMENT_3D('',#1054,#1055,#1056);
#1058=PLANE('',#1057);
#1059=ORIENTED_EDGE('',*,*,#1034,.F.);
#1060=ORIENTED_EDGE('',*,*,#1048,.F.);
#1061=EDGE_LOOP('',(#1059,#1060));
#1062=FACE_OUTER_BOUND('',#1061,.F.);
#1064=ORIENTED_EDGE('',*,*,#1063,.F.);
#1066=ORIENTED_EDGE('',*,*,#1065,.F.);
#1067=EDGE_LOOP('',(#1064,#1066));
#1068=FACE_BOUND('',#1067,.F.);
#1070=CARTESIAN_POINT('',(0.E0,0.E0,0.E0));
#1071=DIRECTION('',(-1.E0,0.E0,0.E0));
#1072=DIRECTION('',(0.E0,0.E0,1.E0));
#1073=AXIS2_PLACEMENT_3D('',#1070,#1071,#1072);
#1074=CYLINDRICAL_SURFACE('',#1073,1.909448818898E-1);
#1076=ORIENTED_EDGE('',*,*,#1075,.T.);
#1078=ORIENTED_EDGE('',*,*,#1077,.T.);
#1079=ORIENTED_EDGE('',*,*,#1063,.T.);
#1081=ORIENTED_EDGE('',*,*,#1080,.F.);
#1082=EDGE_LOOP('',(#1076,#1078,#1079,#1081));
#1083=FACE_OUTER_BOUND('',#1082,.F.);
#1085=CARTESIAN_POINT('',(7.874015748031E-3,0.E0,0.E0));
#1086=DIRECTION('',(-1.E0,0.E0,0.E0));
#1087=DIRECTION('',(0.E0,7.349547711231E-3,-9.999729917095E-1));
#1088=AXIS2_PLACEMENT_3D('',#1085,#1086,#1087);
#1089=TOROIDAL_SURFACE('',#1088,1.830708661417E-1,7.874015748031E-3);
#1090=ORIENTED_EDGE('',*,*,#652,.T.);
#1092=ORIENTED_EDGE('',*,*,#1091,.T.);
#1093=ORIENTED_EDGE('',*,*,#1075,.F.);
#1095=ORIENTED_EDGE('',*,*,#1094,.F.);
#1096=EDGE_LOOP('',(#1090,#1092,#1093,#1095));
#1097=FACE_OUTER_BOUND('',#1096,.F.);
#1099=CARTESIAN_POINT('',(7.874015748031E-3,0.E0,0.E0));
#1100=DIRECTION('',(-1.E0,0.E0,0.E0));
#1101=DIRECTION('',(0.E0,-7.349547711231E-3,9.999729917095E-1));
#1102=AXIS2_PLACEMENT_3D('',#1099,#1100,#1101);
#1103=TOROIDAL_SURFACE('',#1102,1.830708661417E-1,7.874015748031E-3);
#1104=ORIENTED_EDGE('',*,*,#654,.T.);
#1105=ORIENTED_EDGE('',*,*,#1094,.T.);
#1107=ORIENTED_EDGE('',*,*,#1106,.F.);
#1108=ORIENTED_EDGE('',*,*,#1091,.F.);
#1109=EDGE_LOOP('',(#1104,#1105,#1107,#1108));
#1110=FACE_OUTER_BOUND('',#1109,.F.);
#1112=CARTESIAN_POINT('',(0.E0,0.E0,0.E0));
#1113=DIRECTION('',(-1.E0,0.E0,0.E0));
#1114=DIRECTION('',(0.E0,0.E0,1.E0));
#1115=AXIS2_PLACEMENT_3D('',#1112,#1113,#1114);
#1116=CYLINDRICAL_SURFACE('',#1115,1.909448818898E-1);
#1117=ORIENTED_EDGE('',*,*,#1106,.T.);
#1118=ORIENTED_EDGE('',*,*,#1080,.T.);
#1119=ORIENTED_EDGE('',*,*,#1065,.T.);
#1120=ORIENTED_EDGE('',*,*,#1077,.F.);
#1121=EDGE_LOOP('',(#1117,#1118,#1119,#1120));
#1122=FACE_OUTER_BOUND('',#1121,.F.);
#1126=FILL_AREA_STYLE_COLOUR('',#8);
#1127=FILL_AREA_STYLE('',(#1126));
#1128=SURFACE_STYLE_FILL_AREA(#1127);
#1129=SURFACE_SIDE_STYLE('',(#1128));
#1130=SURFACE_STYLE_USAGE(.BOTH.,#1129);
#1131=PRESENTATION_STYLE_ASSIGNMENT((#1130));
#15=STYLED_ITEM('',(#1131),#1125);
#1133=LENGTH_MEASURE_WITH_UNIT(LENGTH_MEASURE(2.54E1),#1132);
#1134=(CONVERSION_BASED_UNIT('INCH',#1133)LENGTH_UNIT()NAMED_UNIT(*));
#1136=PLANE_ANGLE_MEASURE_WITH_UNIT(PLANE_ANGLE_MEASURE(1.745329251994E-2),
#1135);
#1137=(CONVERSION_BASED_UNIT('DEGREE',#1136)NAMED_UNIT(*)PLANE_ANGLE_UNIT());
#1139=UNCERTAINTY_MEASURE_WITH_UNIT(LENGTH_MEASURE(9.126548787170E-5),#1134,
'closure',
'Maximum model space distance between geometric entities at asserted connectivities');
#1141=CARTESIAN_POINT('',(0.E0,0.E0,0.E0));
#1142=DIRECTION('',(0.E0,0.E0,1.E0));
#1143=DIRECTION('',(1.E0,0.E0,0.E0));
#1146=MECHANICAL_DESIGN_GEOMETRIC_PRESENTATION_REPRESENTATION('',(#24,#32,#40,
#48,#56,#64,#72,#80,#88,#96,#104,#112,#120,#127,#135,#142,#150,#158,#166,#174,
#182,#190,#198,#206,#214,#222,#230,#238,#246,#253,#261,#269,#276,#284,#292,#299,
#307,#315,#323,#331,#338,#346,#354,#362,#370,#377,#385,#393,#401,#409,#416,#424,
#432,#440,#448,#455,#463,#470,#478,#486,#494,#502,#510,#517,#525,#533,#541,#548,
#849,#15),#1140);
#1147=APPLICATION_CONTEXT('automotive design');
#1148=APPLICATION_PROTOCOL_DEFINITION('international standard',
'config_control_design',1994,#1147);
#1149=PRODUCT_DEFINITION_CONTEXT('',#1147,'design');
#1150=PRODUCT_CONTEXT('',#1147,'mechanical');
#1151=PRODUCT('688Z_BEARING','688Z_BEARING','NOT SPECIFIED',(#1150));
#1152=PRODUCT_DEFINITION_FORMATION_WITH_SPECIFIED_SOURCE('1','LAST_VERSION',
#1151,.MADE.);
#1160=LENGTH_MEASURE_WITH_UNIT(LENGTH_MEASURE(2.54E1),#1159);
#1161=(CONVERSION_BASED_UNIT('INCH',#1160)LENGTH_UNIT()NAMED_UNIT(*));
#1162=DERIVED_UNIT_ELEMENT(#1161,2.E0);
#1163=AREA_UNIT((#1162));
#1164=MEASURE_REPRESENTATION_ITEM('surface area measure',AREA_MEASURE(
8.029171216948E2),#1163);
#1169=LENGTH_MEASURE_WITH_UNIT(LENGTH_MEASURE(2.54E1),#1168);
#1170=(CONVERSION_BASED_UNIT('INCH',#1169)LENGTH_UNIT()NAMED_UNIT(*));
#1171=DERIVED_UNIT_ELEMENT(#1170,3.E0);
#1172=VOLUME_UNIT((#1171));
#1173=MEASURE_REPRESENTATION_ITEM('volume measure',VOLUME_MEASURE(
5.824595898554E2),#1172);
#1177=CARTESIAN_POINT('centre point',(2.5E0,0.E0,0.E0));
#1182=LENGTH_MEASURE_WITH_UNIT(LENGTH_MEASURE(2.54E1),#1181);
#1183=(CONVERSION_BASED_UNIT('INCH',#1182)LENGTH_UNIT()NAMED_UNIT(*));
#1184=DERIVED_UNIT_ELEMENT(#1183,2.E0);
#1185=AREA_UNIT((#1184));
#1186=MEASURE_REPRESENTATION_ITEM('surface area measure',AREA_MEASURE(
8.029171216948E2),#1185);
#1191=LENGTH_MEASURE_WITH_UNIT(LENGTH_MEASURE(2.54E1),#1190);
#1192=(CONVERSION_BASED_UNIT('INCH',#1191)LENGTH_UNIT()NAMED_UNIT(*));
#1193=DERIVED_UNIT_ELEMENT(#1192,3.E0);
#1194=VOLUME_UNIT((#1193));
#1195=MEASURE_REPRESENTATION_ITEM('volume measure',VOLUME_MEASURE(
5.824595898554E2),#1194);
#1199=CARTESIAN_POINT('centre point',(2.5E0,0.E0,0.E0));
#1=DRAUGHTING_PRE_DEFINED_COLOUR('green');
#2=COLOUR_RGB('',1.1E-2,1.2E-2,1.E0);
#3=COLOUR_RGB('',4.1E-1,2.61589E-1,1.12848E-1);
#4=COLOUR_RGB('',5.04854E-1,1.5455E-2,1.5455E-2);
#5=COLOUR_RGB('',6.35294E-1,6.86275E-1,7.4902E-1);
#6=COLOUR_RGB('',6.40777E-1,6.40777E-1,6.40777E-1);
#7=COLOUR_RGB('',6.69062E-1,6.69903E-1,6.55217E-1);
#8=COLOUR_RGB('',8.23529E-1,7.05882E-1,4.31373E-1);
#9=COLOUR_RGB('',9.21569E-1,7.05882E-1,4.70588E-1);
#10=DRAUGHTING_PRE_DEFINED_COLOUR('red');
#11=DRAUGHTING_PRE_DEFINED_COLOUR('yellow');
#12=COLOUR_RGB('',1.E0,1.E0,5.3E-1);
#13=COLOUR_RGB('',1.E0,1.E0,9.49E-1);
#14=DRAUGHTING_PRE_DEFINED_COLOUR('white');
#20=CIRCLE('',#19,3.070866141732E-1);
#29=CIRCLE('',#28,3.070866141732E-1);
#37=CIRCLE('',#36,2.874015748031E-1);
#45=CIRCLE('',#44,2.874015748031E-1);
#53=CIRCLE('',#52,1.830708661417E-1);
#61=CIRCLE('',#60,1.830708661417E-1);
#69=CIRCLE('',#68,1.653543307087E-1);
#77=CIRCLE('',#76,1.653543307087E-1);
#85=CIRCLE('',#84,7.874015748031E-3);
#93=CIRCLE('',#92,7.874015748031E-3);
#101=CIRCLE('',#100,3.149606299213E-1);
#109=CIRCLE('',#108,3.149606299213E-1);
#117=CIRCLE('',#116,3.149606299213E-1);
#132=CIRCLE('',#131,3.149606299213E-1);
#147=CIRCLE('',#146,7.874015748031E-3);
#155=CIRCLE('',#154,2.874015748031E-1);
#163=CIRCLE('',#162,2.874015748031E-1);
#171=CIRCLE('',#170,1.830708661417E-1);
#179=CIRCLE('',#178,1.830708661417E-1);
#187=CIRCLE('',#186,1.653543307087E-1);
#195=CIRCLE('',#194,1.653543307087E-1);
#203=CIRCLE('',#202,3.070866141732E-1);
#211=CIRCLE('',#210,3.070866141732E-1);
#219=CIRCLE('',#218,7.874015748031E-3);
#227=CIRCLE('',#226,7.874015748031E-3);
#235=CIRCLE('',#234,2.795275590551E-1);
#243=CIRCLE('',#242,2.795275590551E-1);
#258=CIRCLE('',#257,2.795275590551E-1);
#266=CIRCLE('',#265,2.795275590551E-1);
#281=CIRCLE('',#280,1.909448818898E-1);
#289=CIRCLE('',#288,1.909448818898E-1);
#304=CIRCLE('',#303,7.874015748031E-3);
#312=CIRCLE('',#311,7.874015748031E-3);
#320=CIRCLE('',#319,1.909448818898E-1);
#328=CIRCLE('',#327,1.909448818898E-1);
#343=CIRCLE('',#342,7.874015748031E-3);
#351=CIRCLE('',#350,7.874015748031E-3);
#359=CIRCLE('',#358,1.574803149606E-1);
#367=CIRCLE('',#366,1.574803149606E-1);
#382=CIRCLE('',#381,7.874015748031E-3);
#390=CIRCLE('',#389,7.874015748031E-3);
#398=CIRCLE('',#397,1.574803149606E-1);
#406=CIRCLE('',#405,1.574803149606E-1);
#421=CIRCLE('',#420,7.874015748031E-3);
#429=CIRCLE('',#428,7.874015748031E-3);
#437=CIRCLE('',#436,7.874015748031E-3);
#445=CIRCLE('',#444,2.795275590551E-1);
#460=CIRCLE('',#459,2.795275590551E-1);
#475=CIRCLE('',#474,2.795275590551E-1);
#483=CIRCLE('',#482,2.795275590551E-1);
#491=CIRCLE('',#490,1.909448818898E-1);
#499=CIRCLE('',#498,1.909448818898E-1);
#507=CIRCLE('',#506,1.909448818898E-1);
#522=CIRCLE('',#521,7.874015748031E-3);
#530=CIRCLE('',#529,7.874015748031E-3);
#538=CIRCLE('',#537,1.909448818898E-1);
#634=EDGE_CURVE('',#583,#584,#20,.T.);
#636=EDGE_CURVE('',#584,#583,#29,.T.);
#640=EDGE_CURVE('',#599,#600,#37,.T.);
#642=EDGE_CURVE('',#600,#599,#45,.T.);
#646=ADVANCED_FACE('',(#639,#645),#633,.F.);
#652=EDGE_CURVE('',#615,#616,#53,.T.);
#654=EDGE_CURVE('',#616,#615,#61,.T.);
#658=EDGE_CURVE('',#623,#624,#69,.T.);
#660=EDGE_CURVE('',#624,#623,#77,.T.);
#664=ADVANCED_FACE('',(#657,#663),#651,.F.);
#671=EDGE_CURVE('',#584,#588,#93,.T.);
#673=EDGE_CURVE('',#587,#588,#117,.T.);
#675=EDGE_CURVE('',#583,#587,#85,.T.);
#679=ADVANCED_FACE('',(#678),#669,.T.);
#687=EDGE_CURVE('',#588,#587,#101,.T.);
#692=ADVANCED_FACE('',(#691),#684,.T.);
#699=EDGE_CURVE('',#612,#587,#139,.T.);
#701=EDGE_CURVE('',#612,#611,#109,.T.);
#703=EDGE_CURVE('',#588,#611,#124,.T.);
#707=ADVANCED_FACE('',(#706),#697,.T.);
#715=EDGE_CURVE('',#611,#612,#132,.T.);
#720=ADVANCED_FACE('',(#719),#712,.T.);
#726=EDGE_CURVE('',#607,#608,#203,.T.);
#728=EDGE_CURVE('',#608,#612,#421,.T.);
#731=EDGE_CURVE('',#607,#611,#147,.T.);
#735=ADVANCED_FACE('',(#734),#725,.T.);
#741=EDGE_CURVE('',#567,#568,#171,.T.);
#743=EDGE_CURVE('',#568,#567,#179,.T.);
#747=EDGE_CURVE('',#575,#576,#187,.T.);
#749=EDGE_CURVE('',#576,#575,#195,.T.);
#753=ADVANCED_FACE('',(#746,#752),#740,.T.);
#760=EDGE_CURVE('',#608,#607,#211,.T.);
#764=EDGE_CURVE('',#559,#560,#155,.T.);
#766=EDGE_CURVE('',#560,#559,#163,.T.);
#770=ADVANCED_FACE('',(#763,#769),#758,.T.);
#777=EDGE_CURVE('',#560,#564,#227,.T.);
#779=EDGE_CURVE('',#563,#564,#258,.T.);
#781=EDGE_CURVE('',#559,#563,#219,.T.);
#785=ADVANCED_FACE('',(#784),#775,.T.);
#793=EDGE_CURVE('',#564,#563,#235,.T.);
#798=ADVANCED_FACE('',(#797),#790,.T.);
#805=EDGE_CURVE('',#556,#563,#273,.T.);
#807=EDGE_CURVE('',#556,#555,#243,.T.);
#809=EDGE_CURVE('',#555,#564,#250,.T.);
#813=ADVANCED_FACE('',(#812),#803,.F.);
#821=EDGE_CURVE('',#555,#556,#266,.T.);
#826=ADVANCED_FACE('',(#825),#818,.F.);
#836=EDGE_CURVE('',#551,#552,#289,.T.);
#838=EDGE_CURVE('',#552,#551,#328,.T.);
#842=ADVANCED_FACE('',(#835,#841),#831,.T.);
#855=EDGE_CURVE('',#571,#572,#281,.T.);
#857=EDGE_CURVE('',#552,#572,#335,.T.);
#860=EDGE_CURVE('',#551,#571,#296,.T.);
#864=ADVANCED_FACE('',(#863),#854,.T.);
#871=EDGE_CURVE('',#568,#572,#312,.T.);
#874=EDGE_CURVE('',#567,#571,#304,.T.);
#878=ADVANCED_FACE('',(#877),#869,.T.);
#886=EDGE_CURVE('',#572,#571,#320,.T.);
#891=ADVANCED_FACE('',(#890),#883,.T.);
#903=ADVANCED_FACE('',(#902),#896,.T.);
#910=EDGE_CURVE('',#576,#580,#351,.T.);
#912=EDGE_CURVE('',#579,#580,#406,.T.);
#914=EDGE_CURVE('',#575,#579,#343,.T.);
#918=ADVANCED_FACE('',(#917),#908,.T.);
#926=EDGE_CURVE('',#580,#579,#367,.T.);
#931=ADVANCED_FACE('',(#930),#923,.T.);
#937=EDGE_CURVE('',#628,#627,#359,.T.);
#939=EDGE_CURVE('',#580,#627,#413,.T.);
#942=EDGE_CURVE('',#579,#628,#374,.T.);
#946=ADVANCED_FACE('',(#945),#936,.F.);
#953=EDGE_CURVE('',#623,#627,#390,.T.);
#956=EDGE_CURVE('',#624,#628,#382,.T.);
#960=ADVANCED_FACE('',(#959),#951,.T.);
#968=EDGE_CURVE('',#627,#628,#398,.T.);
#973=ADVANCED_FACE('',(#972),#965,.T.);
#985=ADVANCED_FACE('',(#984),#978,.F.);
#997=ADVANCED_FACE('',(#996),#990,.T.);
#1004=EDGE_CURVE('',#600,#604,#437,.T.);
#1006=EDGE_CURVE('',#603,#604,#460,.T.);
#1008=EDGE_CURVE('',#599,#603,#429,.T.);
#1012=ADVANCED_FACE('',(#1011),#1002,.T.);
#1020=EDGE_CURVE('',#604,#603,#445,.T.);
#1025=ADVANCED_FACE('',(#1024),#1017,.T.);
#1032=EDGE_CURVE('',#603,#591,#452,.T.);
#1034=EDGE_CURVE('',#591,#592,#475,.T.);
#1036=EDGE_CURVE('',#604,#592,#467,.T.);
#1040=ADVANCED_FACE('',(#1039),#1030,.F.);
#1048=EDGE_CURVE('',#592,#591,#483,.T.);
#1053=ADVANCED_FACE('',(#1052),#1045,.F.);
#1063=EDGE_CURVE('',#595,#596,#491,.T.);
#1065=EDGE_CURVE('',#596,#595,#499,.T.);
#1069=ADVANCED_FACE('',(#1062,#1068),#1058,.T.);
#1075=EDGE_CURVE('',#619,#620,#507,.T.);
#1077=EDGE_CURVE('',#620,#595,#514,.T.);
#1080=EDGE_CURVE('',#619,#596,#545,.T.);
#1084=ADVANCED_FACE('',(#1083),#1074,.T.);
#1091=EDGE_CURVE('',#616,#620,#530,.T.);
#1094=EDGE_CURVE('',#615,#619,#522,.T.);
#1098=ADVANCED_FACE('',(#1097),#1089,.T.);
#1106=EDGE_CURVE('',#620,#619,#538,.T.);
#1111=ADVANCED_FACE('',(#1110),#1103,.T.);
#1123=ADVANCED_FACE('',(#1122),#1116,.T.);
#1124=CLOSED_SHELL('',(#646,#664,#679,#692,#707,#720,#735,#753,#770,#785,#798,
#813,#826,#842,#864,#878,#891,#903,#918,#931,#946,#960,#973,#985,#997,#1012,
#1025,#1040,#1053,#1069,#1084,#1098,#1111,#1123));
#1125=MANIFOLD_SOLID_BREP('',#1124);
#1132=(LENGTH_UNIT()NAMED_UNIT(*)SI_UNIT(.MILLI.,.METRE.));
#1135=(NAMED_UNIT(*)PLANE_ANGLE_UNIT()SI_UNIT($,.RADIAN.));
#1138=(NAMED_UNIT(*)SI_UNIT($,.STERADIAN.)SOLID_ANGLE_UNIT());
#1140=(GEOMETRIC_REPRESENTATION_CONTEXT(3)GLOBAL_UNCERTAINTY_ASSIGNED_CONTEXT((
#1139))GLOBAL_UNIT_ASSIGNED_CONTEXT((#1134,#1137,#1138))REPRESENTATION_CONTEXT(
'ID1','3'));
#1144=AXIS2_PLACEMENT_3D('',#1141,#1142,#1143);
#1145=ADVANCED_BREP_SHAPE_REPRESENTATION('',(#1144,#1125),#1140);
#1153=PRODUCT_DEFINITION('design','',#1152,#1149);
#1154=PRODUCT_DEFINITION_SHAPE('','SHAPE FOR 688Z_BEARING.',#1153);
#1155=SHAPE_ASPECT('','solid data associated with 688Z_BEARING',#1154,.F.);
#1156=PROPERTY_DEFINITION('',
'shape for solid data with which properties are associated',#1155);
#1157=SHAPE_REPRESENTATION('',(#1125),#1140);
#1158=SHAPE_DEFINITION_REPRESENTATION(#1156,#1157);
#1159=(LENGTH_UNIT()NAMED_UNIT(*)SI_UNIT(.MILLI.,.METRE.));
#1165=PROPERTY_DEFINITION('geometric validation property',
'area of 688Z_BEARING',#1155);
#1166=REPRESENTATION('surface area',(#1164),#1140);
#1167=PROPERTY_DEFINITION_REPRESENTATION(#1165,#1166);
#1168=(LENGTH_UNIT()NAMED_UNIT(*)SI_UNIT(.MILLI.,.METRE.));
#1174=PROPERTY_DEFINITION('geometric validation property',
'volume of 688Z_BEARING',#1155);
#1175=REPRESENTATION('volume',(#1173),#1140);
#1176=PROPERTY_DEFINITION_REPRESENTATION(#1174,#1175);
#1178=PROPERTY_DEFINITION('geometric validation property',
'centroid of 688Z_BEARING',#1155);
#1179=REPRESENTATION('centroid',(#1177),#1140);
#1180=PROPERTY_DEFINITION_REPRESENTATION(#1178,#1179);
#1181=(LENGTH_UNIT()NAMED_UNIT(*)SI_UNIT(.MILLI.,.METRE.));
#1187=PROPERTY_DEFINITION('geometric validation property',
'area of 688Z_BEARING',#1154);
#1188=REPRESENTATION('surface area',(#1186),#1140);
#1189=PROPERTY_DEFINITION_REPRESENTATION(#1187,#1188);
#1190=(LENGTH_UNIT()NAMED_UNIT(*)SI_UNIT(.MILLI.,.METRE.));
#1196=PROPERTY_DEFINITION('geometric validation property',
'volume of 688Z_BEARING',#1154);
#1197=REPRESENTATION('volume',(#1195),#1140);
#1198=PROPERTY_DEFINITION_REPRESENTATION(#1196,#1197);
#1200=PROPERTY_DEFINITION('geometric validation property',
'centroid of 688Z_BEARING',#1154);
#1201=REPRESENTATION('centroid',(#1199),#1140);
#1202=PROPERTY_DEFINITION_REPRESENTATION(#1200,#1201);
#1203=SHAPE_DEFINITION_REPRESENTATION(#1154,#1145);
ENDSEC;
END-ISO-10303-21;
