ISO-10303-21;
HEADER;
FILE_DESCRIPTION((''),'2;1');
FILE_NAME('97414A610_LOW_CLEARANCE_EXTERNA','2026-06-15T13:45:20',('Esia'),(''),
'CREO PARAMETRIC BY PTC INC, 2025102','CREO PARAMETRIC BY PTC INC, 2025102','');
FILE_SCHEMA((
'AP242_MANAGED_MODEL_BASED_3D_ENGINEERING_MIM_LF { 1 0 10303 442 1 1 4 }'));
ENDSEC;
DATA;
#19=DIRECTION('',(1.E0,0.E0,0.E0));
#20=VECTOR('',#19,1.5E-2);
#21=CARTESIAN_POINT('',(-7.5E-3,0.E0,-6.675E-2));
#22=LINE('',#21,#20);
#23=DRAUGHTING_PRE_DEFINED_CURVE_FONT('continuous');
#24=CURVE_STYLE('',#23,POSITIVE_LENGTH_MEASURE(2.E-2),#7);
#25=PRESENTATION_STYLE_ASSIGNMENT((#24));
#26=STYLED_ITEM('',(#25),#22);
#27=CARTESIAN_POINT('',(7.5E-3,1.970143053508E-2,6.793827926702E-2));
#28=DIRECTION('',(1.E0,0.E0,0.E0));
#29=DIRECTION('',(0.E0,-9.981860363643E-1,-6.020495666671E-2));
#30=AXIS2_PLACEMENT_3D('',#27,#28,#29);
#32=CURVE_STYLE('',#23,POSITIVE_LENGTH_MEASURE(2.E-2),#7);
#33=PRESENTATION_STYLE_ASSIGNMENT((#32));
#34=STYLED_ITEM('',(#33),#31);
#35=CARTESIAN_POINT('',(7.5E-3,1.818198529412E-2,0.E0));
#36=DIRECTION('',(-1.E0,0.E0,0.E0));
#37=DIRECTION('',(0.E0,-2.628138700678E-1,-9.648465524113E-1));
#38=AXIS2_PLACEMENT_3D('',#35,#36,#37);
#40=CURVE_STYLE('',#23,POSITIVE_LENGTH_MEASURE(2.E-2),#7);
#41=PRESENTATION_STYLE_ASSIGNMENT((#40));
#42=STYLED_ITEM('',(#41),#39);
#43=CARTESIAN_POINT('',(7.5E-3,1.970143053508E-2,-6.793827926702E-2));
#44=DIRECTION('',(1.E0,0.E0,0.E0));
#45=DIRECTION('',(0.E0,9.944963250861E-1,1.047714626708E-1));
#46=AXIS2_PLACEMENT_3D('',#43,#44,#45);
#48=CURVE_STYLE('',#23,POSITIVE_LENGTH_MEASURE(2.E-2),#7);
#49=PRESENTATION_STYLE_ASSIGNMENT((#48));
#50=STYLED_ITEM('',(#49),#47);
#51=CARTESIAN_POINT('',(7.5E-3,3.022816805868E-2,-6.682927397491E-2));
#52=DIRECTION('',(1.E0,0.E0,0.E0));
#53=DIRECTION('',(0.E0,4.121212121212E-1,-9.111290284695E-1));
#54=AXIS2_PLACEMENT_3D('',#51,#52,#53);
#56=CURVE_STYLE('',#23,POSITIVE_LENGTH_MEASURE(2.E-2),#7);
#57=PRESENTATION_STYLE_ASSIGNMENT((#56));
#58=STYLED_ITEM('',(#57),#55);
#59=CARTESIAN_POINT('',(7.5E-3,0.E0,0.E0));
#60=DIRECTION('',(1.E0,0.E0,0.E0));
#61=DIRECTION('',(0.E0,0.E0,-1.E0));
#62=AXIS2_PLACEMENT_3D('',#59,#60,#61);
#64=CURVE_STYLE('',#23,POSITIVE_LENGTH_MEASURE(2.E-2),#7);
#65=PRESENTATION_STYLE_ASSIGNMENT((#64));
#66=STYLED_ITEM('',(#65),#63);
#67=CARTESIAN_POINT('',(7.5E-3,0.E0,0.E0));
#68=DIRECTION('',(1.E0,0.E0,0.E0));
#69=DIRECTION('',(0.E0,-1.E0,0.E0));
#70=AXIS2_PLACEMENT_3D('',#67,#68,#69);
#72=CURVE_STYLE('',#23,POSITIVE_LENGTH_MEASURE(2.E-2),#7);
#73=PRESENTATION_STYLE_ASSIGNMENT((#72));
#74=STYLED_ITEM('',(#73),#71);
#75=CARTESIAN_POINT('',(7.5E-3,0.E0,0.E0));
#76=DIRECTION('',(1.E0,0.E0,0.E0));
#77=DIRECTION('',(0.E0,4.121212121212E-1,9.111290284695E-1));
#78=AXIS2_PLACEMENT_3D('',#75,#76,#77);
#80=CURVE_STYLE('',#23,POSITIVE_LENGTH_MEASURE(2.E-2),#7);
#81=PRESENTATION_STYLE_ASSIGNMENT((#80));
#82=STYLED_ITEM('',(#81),#79);
#83=CARTESIAN_POINT('',(7.5E-3,3.022816805868E-2,6.682927397491E-2));
#84=DIRECTION('',(1.E0,0.E0,0.E0));
#85=DIRECTION('',(0.E0,9.944963250861E-1,-1.047714626708E-1));
#86=AXIS2_PLACEMENT_3D('',#83,#84,#85);
#88=CURVE_STYLE('',#23,POSITIVE_LENGTH_MEASURE(2.E-2),#7);
#89=PRESENTATION_STYLE_ASSIGNMENT((#88));
#90=STYLED_ITEM('',(#89),#87);
#91=CARTESIAN_POINT('',(7.5E-3,1.970143053508E-2,6.793827926702E-2));
#92=DIRECTION('',(1.E0,0.E0,0.E0));
#93=DIRECTION('',(0.E0,0.E0,-1.E0));
#94=AXIS2_PLACEMENT_3D('',#91,#92,#93);
#96=CURVE_STYLE('',#23,POSITIVE_LENGTH_MEASURE(2.E-2),#7);
#97=PRESENTATION_STYLE_ASSIGNMENT((#96));
#98=STYLED_ITEM('',(#97),#95);
#99=CARTESIAN_POINT('',(7.5E-3,1.970143053508E-2,6.793827926702E-2));
#100=DIRECTION('',(-1.E0,0.E0,0.E0));
#101=DIRECTION('',(0.E0,0.E0,-1.E0));
#102=AXIS2_PLACEMENT_3D('',#99,#100,#101);
#104=CURVE_STYLE('',#23,POSITIVE_LENGTH_MEASURE(2.E-2),#7);
#105=PRESENTATION_STYLE_ASSIGNMENT((#104));
#106=STYLED_ITEM('',(#105),#103);
#107=DIRECTION('',(1.E0,0.E0,0.E0));
#108=VECTOR('',#107,1.5E-2);
#109=CARTESIAN_POINT('',(-7.5E-3,3.933003637838E-2,6.587038047995E-2));
#110=LINE('',#109,#108);
#111=CURVE_STYLE('',#23,POSITIVE_LENGTH_MEASURE(2.E-2),#7);
#112=PRESENTATION_STYLE_ASSIGNMENT((#111));
#113=STYLED_ITEM('',(#112),#110);
#114=CARTESIAN_POINT('',(-7.5E-3,1.970143053508E-2,6.793827926702E-2));
#115=DIRECTION('',(-1.E0,0.E0,0.E0));
#116=DIRECTION('',(0.E0,9.944963250861E-1,-1.047714626708E-1));
#117=AXIS2_PLACEMENT_3D('',#114,#115,#116);
#119=CURVE_STYLE('',#23,POSITIVE_LENGTH_MEASURE(2.E-2),#7);
#120=PRESENTATION_STYLE_ASSIGNMENT((#119));
#121=STYLED_ITEM('',(#120),#118);
#122=CARTESIAN_POINT('',(-7.5E-3,3.022816805868E-2,6.682927397491E-2));
#123=DIRECTION('',(-1.E0,0.E0,0.E0));
#124=DIRECTION('',(0.E0,4.121212121212E-1,9.111290284695E-1));
#125=AXIS2_PLACEMENT_3D('',#122,#123,#124);
#127=CURVE_STYLE('',#23,POSITIVE_LENGTH_MEASURE(2.E-2),#7);
#128=PRESENTATION_STYLE_ASSIGNMENT((#127));
#129=STYLED_ITEM('',(#128),#126);
#130=CARTESIAN_POINT('',(-7.5E-3,0.E0,0.E0));
#131=DIRECTION('',(-1.E0,0.E0,0.E0));
#132=DIRECTION('',(0.E0,-1.E0,0.E0));
#133=AXIS2_PLACEMENT_3D('',#130,#131,#132);
#135=CURVE_STYLE('',#23,POSITIVE_LENGTH_MEASURE(2.E-2),#7);
#136=PRESENTATION_STYLE_ASSIGNMENT((#135));
#137=STYLED_ITEM('',(#136),#134);
#138=CARTESIAN_POINT('',(-7.5E-3,0.E0,0.E0));
#139=DIRECTION('',(-1.E0,0.E0,0.E0));
#140=DIRECTION('',(0.E0,4.121212121212E-1,-9.111290284695E-1));
#141=AXIS2_PLACEMENT_3D('',#138,#139,#140);
#143=CURVE_STYLE('',#23,POSITIVE_LENGTH_MEASURE(2.E-2),#7);
#144=PRESENTATION_STYLE_ASSIGNMENT((#143));
#145=STYLED_ITEM('',(#144),#142);
#146=CARTESIAN_POINT('',(-7.5E-3,3.022816805868E-2,-6.682927397491E-2));
#147=DIRECTION('',(-1.E0,0.E0,0.E0));
#148=DIRECTION('',(0.E0,9.944963250861E-1,1.047714626708E-1));
#149=AXIS2_PLACEMENT_3D('',#146,#147,#148);
#151=CURVE_STYLE('',#23,POSITIVE_LENGTH_MEASURE(2.E-2),#7);
#152=PRESENTATION_STYLE_ASSIGNMENT((#151));
#153=STYLED_ITEM('',(#152),#150);
#154=CARTESIAN_POINT('',(-7.5E-3,1.970143053508E-2,-6.793827926702E-2));
#155=DIRECTION('',(-1.E0,0.E0,0.E0));
#156=DIRECTION('',(0.E0,-9.981860363643E-1,6.020495666671E-2));
#157=AXIS2_PLACEMENT_3D('',#154,#155,#156);
#159=CURVE_STYLE('',#23,POSITIVE_LENGTH_MEASURE(2.E-2),#7);
#160=PRESENTATION_STYLE_ASSIGNMENT((#159));
#161=STYLED_ITEM('',(#160),#158);
#162=CARTESIAN_POINT('',(-7.5E-3,1.818198529412E-2,0.E0));
#163=DIRECTION('',(1.E0,0.E0,0.E0));
#164=DIRECTION('',(0.E0,-2.628138700678E-1,9.648465524113E-1));
#165=AXIS2_PLACEMENT_3D('',#162,#163,#164);
#167=CURVE_STYLE('',#23,POSITIVE_LENGTH_MEASURE(2.E-2),#7);
#168=PRESENTATION_STYLE_ASSIGNMENT((#167));
#169=STYLED_ITEM('',(#168),#166);
#170=CARTESIAN_POINT('',(-7.5E-3,1.970143053508E-2,6.793827926702E-2));
#171=DIRECTION('',(-1.E0,0.E0,0.E0));
#172=DIRECTION('',(0.E0,-2.235949142271E-2,-9.997499953205E-1));
#173=AXIS2_PLACEMENT_3D('',#170,#171,#172);
#175=CURVE_STYLE('',#23,POSITIVE_LENGTH_MEASURE(2.E-2),#7);
#176=PRESENTATION_STYLE_ASSIGNMENT((#175));
#177=STYLED_ITEM('',(#176),#174);
#178=DIRECTION('',(1.E0,0.E0,0.E0));
#179=VECTOR('',#178,1.5E-2);
#180=CARTESIAN_POINT('',(-7.5E-3,3.4E-2,7.516814484873E-2));
#181=LINE('',#180,#179);
#182=CURVE_STYLE('',#23,POSITIVE_LENGTH_MEASURE(2.E-2),#7);
#183=PRESENTATION_STYLE_ASSIGNMENT((#182));
#184=STYLED_ITEM('',(#183),#181);
#185=DIRECTION('',(1.E0,0.E0,0.E0));
#186=VECTOR('',#185,1.5E-2);
#187=CARTESIAN_POINT('',(-7.5E-3,3.4E-2,-7.516814484873E-2));
#188=LINE('',#187,#186);
#189=CURVE_STYLE('',#23,POSITIVE_LENGTH_MEASURE(2.E-2),#7);
#190=PRESENTATION_STYLE_ASSIGNMENT((#189));
#191=STYLED_ITEM('',(#190),#188);
#192=DIRECTION('',(1.E0,0.E0,0.E0));
#193=VECTOR('',#192,1.5E-2);
#194=CARTESIAN_POINT('',(-7.5E-3,3.933003637838E-2,-6.587038047995E-2));
#195=LINE('',#194,#193);
#196=CURVE_STYLE('',#23,POSITIVE_LENGTH_MEASURE(2.E-2),#7);
#197=PRESENTATION_STYLE_ASSIGNMENT((#196));
#198=STYLED_ITEM('',(#197),#195);
#199=DIRECTION('',(1.E0,0.E0,0.E0));
#200=VECTOR('',#199,1.5E-2);
#201=CARTESIAN_POINT('',(-7.5E-3,0.E0,6.675E-2));
#202=LINE('',#201,#200);
#203=CURVE_STYLE('',#23,POSITIVE_LENGTH_MEASURE(2.E-2),#7);
#204=PRESENTATION_STYLE_ASSIGNMENT((#203));
#205=STYLED_ITEM('',(#204),#202);
#206=CARTESIAN_POINT('',(7.5E-3,3.933003637838E-2,-6.587038047995E-2));
#207=CARTESIAN_POINT('',(7.5E-3,0.E0,-6.675E-2));
#208=VERTEX_POINT('',#206);
#209=VERTEX_POINT('',#207);
#210=CARTESIAN_POINT('',(-7.5E-3,3.933003637838E-2,-6.587038047995E-2));
#211=VERTEX_POINT('',#210);
#212=CARTESIAN_POINT('',(-7.5E-3,0.E0,-6.675E-2));
#213=VERTEX_POINT('',#212);
#214=CARTESIAN_POINT('',(7.5E-3,3.4E-2,7.516814484873E-2));
#215=CARTESIAN_POINT('',(7.5E-3,-8.25E-2,0.E0));
#216=VERTEX_POINT('',#214);
#217=VERTEX_POINT('',#215);
#218=CARTESIAN_POINT('',(7.5E-3,0.E0,-8.25E-2));
#219=VERTEX_POINT('',#218);
#220=CARTESIAN_POINT('',(7.5E-3,3.4E-2,-7.516814484873E-2));
#221=VERTEX_POINT('',#220);
#222=CARTESIAN_POINT('',(-7.5E-3,3.4E-2,7.516814484873E-2));
#223=VERTEX_POINT('',#222);
#224=CARTESIAN_POINT('',(-7.5E-3,-8.25E-2,0.E0));
#225=VERTEX_POINT('',#224);
#226=CARTESIAN_POINT('',(-7.5E-3,3.4E-2,-7.516814484873E-2));
#227=VERTEX_POINT('',#226);
#228=CARTESIAN_POINT('',(-7.5E-3,1.926011603957E-2,4.820598050937E-2));
#229=CARTESIAN_POINT('',(-7.5E-3,0.E0,6.675E-2));
#230=VERTEX_POINT('',#228);
#231=VERTEX_POINT('',#229);
#232=CARTESIAN_POINT('',(-7.5E-3,3.933003637838E-2,6.587038047995E-2));
#233=VERTEX_POINT('',#232);
#234=CARTESIAN_POINT('',(7.5E-3,3.933003637838E-2,6.587038047995E-2));
#235=VERTEX_POINT('',#234);
#236=CARTESIAN_POINT('',(7.5E-3,0.E0,6.675E-2));
#237=CARTESIAN_POINT('',(7.5E-3,1.926011603957E-2,4.820598050937E-2));
#238=VERTEX_POINT('',#236);
#239=VERTEX_POINT('',#237);
#240=CARTESIAN_POINT('',(7.5E-3,1.970143053508E-2,4.820104610872E-2));
#241=VERTEX_POINT('',#240);
#242=CARTESIAN_POINT('',(7.5E-3,1.970143053508E-2,-6.793827926702E-2));
#243=DIRECTION('',(-1.E0,0.E0,0.E0));
#244=DIRECTION('',(0.E0,0.E0,1.E0));
#245=AXIS2_PLACEMENT_3D('',#242,#243,#244);
#246=CYLINDRICAL_SURFACE('',#245,1.973723315830E-2);
#248=ORIENTED_EDGE('',*,*,#247,.T.);
#250=ORIENTED_EDGE('',*,*,#249,.F.);
#252=ORIENTED_EDGE('',*,*,#251,.T.);
#254=ORIENTED_EDGE('',*,*,#253,.T.);
#255=EDGE_LOOP('',(#248,#250,#252,#254));
#256=FACE_OUTER_BOUND('',#255,.F.);
#258=CARTESIAN_POINT('',(7.5E-3,1.894170791460E-2,3.396913963351E-2));
#259=DIRECTION('',(-1.E0,0.E0,0.E0));
#260=DIRECTION('',(0.E0,0.E0,1.E0));
#261=AXIS2_PLACEMENT_3D('',#258,#259,#260);
#262=PLANE('',#261);
#264=ORIENTED_EDGE('',*,*,#263,.F.);
#266=ORIENTED_EDGE('',*,*,#265,.F.);
#267=ORIENTED_EDGE('',*,*,#247,.F.);
#269=ORIENTED_EDGE('',*,*,#268,.F.);
#271=ORIENTED_EDGE('',*,*,#270,.F.);
#273=ORIENTED_EDGE('',*,*,#272,.F.);
#275=ORIENTED_EDGE('',*,*,#274,.F.);
#277=ORIENTED_EDGE('',*,*,#276,.F.);
#279=ORIENTED_EDGE('',*,*,#278,.F.);
#281=ORIENTED_EDGE('',*,*,#280,.T.);
#282=EDGE_LOOP('',(#264,#266,#267,#269,#271,#273,#275,#277,#279,#281));
#283=FACE_OUTER_BOUND('',#282,.F.);
#285=CARTESIAN_POINT('',(7.5E-3,1.970143053508E-2,6.793827926702E-2));
#286=DIRECTION('',(-1.E0,0.E0,0.E0));
#287=DIRECTION('',(0.E0,-2.235949142271E-2,-9.997499953205E-1));
#288=AXIS2_PLACEMENT_3D('',#285,#286,#287);
#289=CYLINDRICAL_SURFACE('',#288,1.973723315830E-2);
#291=ORIENTED_EDGE('',*,*,#290,.T.);
#293=ORIENTED_EDGE('',*,*,#292,.T.);
#294=ORIENTED_EDGE('',*,*,#263,.T.);
#295=ORIENTED_EDGE('',*,*,#280,.F.);
#296=ORIENTED_EDGE('',*,*,#278,.T.);
#298=ORIENTED_EDGE('',*,*,#297,.F.);
#300=ORIENTED_EDGE('',*,*,#299,.T.);
#301=EDGE_LOOP('',(#291,#293,#294,#295,#296,#298,#300));
#302=FACE_OUTER_BOUND('',#301,.F.);
#304=CARTESIAN_POINT('',(-7.5E-3,1.894170791460E-2,3.396913963351E-2));
#305=DIRECTION('',(-1.E0,0.E0,0.E0));
#306=DIRECTION('',(0.E0,0.E0,1.E0));
#307=AXIS2_PLACEMENT_3D('',#304,#305,#306);
#308=PLANE('',#307);
#309=ORIENTED_EDGE('',*,*,#299,.F.);
#311=ORIENTED_EDGE('',*,*,#310,.F.);
#313=ORIENTED_EDGE('',*,*,#312,.F.);
#315=ORIENTED_EDGE('',*,*,#314,.F.);
#317=ORIENTED_EDGE('',*,*,#316,.F.);
#318=ORIENTED_EDGE('',*,*,#251,.F.);
#320=ORIENTED_EDGE('',*,*,#319,.F.);
#321=ORIENTED_EDGE('',*,*,#290,.F.);
#322=EDGE_LOOP('',(#309,#311,#313,#315,#317,#318,#320,#321));
#323=FACE_OUTER_BOUND('',#322,.F.);
#325=CARTESIAN_POINT('',(7.5E-3,3.022816805868E-2,6.682927397491E-2));
#326=DIRECTION('',(-1.E0,0.E0,0.E0));
#327=DIRECTION('',(0.E0,0.E0,1.E0));
#328=AXIS2_PLACEMENT_3D('',#325,#326,#327);
#329=CYLINDRICAL_SURFACE('',#328,9.152239269370E-3);
#330=ORIENTED_EDGE('',*,*,#310,.T.);
#331=ORIENTED_EDGE('',*,*,#297,.T.);
#332=ORIENTED_EDGE('',*,*,#276,.T.);
#334=ORIENTED_EDGE('',*,*,#333,.F.);
#335=EDGE_LOOP('',(#330,#331,#332,#334));
#336=FACE_OUTER_BOUND('',#335,.F.);
#338=CARTESIAN_POINT('',(7.5E-3,0.E0,0.E0));
#339=DIRECTION('',(-1.E0,0.E0,0.E0));
#340=DIRECTION('',(0.E0,-1.E0,0.E0));
#341=AXIS2_PLACEMENT_3D('',#338,#339,#340);
#342=CYLINDRICAL_SURFACE('',#341,8.25E-2);
#343=ORIENTED_EDGE('',*,*,#270,.T.);
#345=ORIENTED_EDGE('',*,*,#344,.F.);
#346=ORIENTED_EDGE('',*,*,#314,.T.);
#347=ORIENTED_EDGE('',*,*,#312,.T.);
#348=ORIENTED_EDGE('',*,*,#333,.T.);
#349=ORIENTED_EDGE('',*,*,#274,.T.);
#350=ORIENTED_EDGE('',*,*,#272,.T.);
#351=EDGE_LOOP('',(#343,#345,#346,#347,#348,#349,#350));
#352=FACE_OUTER_BOUND('',#351,.F.);
#354=CARTESIAN_POINT('',(7.5E-3,3.022816805868E-2,-6.682927397491E-2));
#355=DIRECTION('',(-1.E0,0.E0,0.E0));
#356=DIRECTION('',(0.E0,0.E0,1.E0));
#357=AXIS2_PLACEMENT_3D('',#354,#355,#356);
#358=CYLINDRICAL_SURFACE('',#357,9.152239269370E-3);
#359=ORIENTED_EDGE('',*,*,#316,.T.);
#360=ORIENTED_EDGE('',*,*,#344,.T.);
#361=ORIENTED_EDGE('',*,*,#268,.T.);
#362=ORIENTED_EDGE('',*,*,#253,.F.);
#363=EDGE_LOOP('',(#359,#360,#361,#362));
#364=FACE_OUTER_BOUND('',#363,.F.);
#366=CARTESIAN_POINT('',(7.5E-3,1.818198529412E-2,0.E0));
#367=DIRECTION('',(-1.E0,0.E0,0.E0));
#368=DIRECTION('',(0.E0,0.E0,1.E0));
#369=AXIS2_PLACEMENT_3D('',#366,#367,#368);
#370=CYLINDRICAL_SURFACE('',#369,6.918198529412E-2);
#371=ORIENTED_EDGE('',*,*,#319,.T.);
#372=ORIENTED_EDGE('',*,*,#249,.T.);
#373=ORIENTED_EDGE('',*,*,#265,.T.);
#374=ORIENTED_EDGE('',*,*,#292,.F.);
#375=EDGE_LOOP('',(#371,#372,#373,#374));
#376=FACE_OUTER_BOUND('',#375,.F.);
#380=FILL_AREA_STYLE_COLOUR('',#7);
#381=FILL_AREA_STYLE('',(#380));
#382=SURFACE_STYLE_FILL_AREA(#381);
#383=SURFACE_SIDE_STYLE('',(#382));
#384=SURFACE_STYLE_USAGE(.BOTH.,#383);
#385=PRESENTATION_STYLE_ASSIGNMENT((#384));
#18=STYLED_ITEM('',(#385),#379);
#387=LENGTH_MEASURE_WITH_UNIT(LENGTH_MEASURE(2.54E1),#386);
#388=(CONVERSION_BASED_UNIT('INCH',#387)LENGTH_UNIT()NAMED_UNIT(*));
#390=PLANE_ANGLE_MEASURE_WITH_UNIT(PLANE_ANGLE_MEASURE(1.745329251994E-2),#389);
#391=(CONVERSION_BASED_UNIT('DEGREE',#390)NAMED_UNIT(*)PLANE_ANGLE_UNIT());
#393=UNCERTAINTY_MEASURE_WITH_UNIT(LENGTH_MEASURE(2.057326298151E-5),#388,
'closure',
'Maximum model space distance between geometric entities at asserted connectivities');
#395=CARTESIAN_POINT('',(0.E0,0.E0,0.E0));
#396=DIRECTION('',(0.E0,0.E0,1.E0));
#397=DIRECTION('',(1.E0,0.E0,0.E0));
#400=MECHANICAL_DESIGN_GEOMETRIC_PRESENTATION_REPRESENTATION('',(#26,#34,#42,
#50,#58,#66,#74,#82,#90,#98,#106,#113,#121,#129,#137,#145,#153,#161,#169,#177,
#184,#191,#198,#205,#18),#394);
#401=APPLICATION_CONTEXT('automotive design');
#402=APPLICATION_PROTOCOL_DEFINITION('international standard',
'config_control_design',1994,#401);
#403=PRODUCT_DEFINITION_CONTEXT('',#401,'design');
#404=PRODUCT_CONTEXT('',#401,'mechanical');
#405=PRODUCT('97414A610_LOW_CLEARANCE_EXTERNA',
'97414A610_LOW_CLEARANCE_EXTERNA','NOT SPECIFIED',(#404));
#406=PRODUCT_DEFINITION_FORMATION_WITH_SPECIFIED_SOURCE('1','LAST_VERSION',#405,
.MADE.);
#414=LENGTH_MEASURE_WITH_UNIT(LENGTH_MEASURE(2.54E1),#413);
#415=(CONVERSION_BASED_UNIT('INCH',#414)LENGTH_UNIT()NAMED_UNIT(*));
#416=DERIVED_UNIT_ELEMENT(#415,2.E0);
#417=AREA_UNIT((#416));
#418=MEASURE_REPRESENTATION_ITEM('surface area measure',AREA_MEASURE(
2.527903065381E-2),#417);
#423=LENGTH_MEASURE_WITH_UNIT(LENGTH_MEASURE(2.54E1),#422);
#424=(CONVERSION_BASED_UNIT('INCH',#423)LENGTH_UNIT()NAMED_UNIT(*));
#425=DERIVED_UNIT_ELEMENT(#424,3.E0);
#426=VOLUME_UNIT((#425));
#427=MEASURE_REPRESENTATION_ITEM('volume measure',VOLUME_MEASURE(
1.164446078002E-4),#426);
#431=CARTESIAN_POINT('centre point',(1.110639611104E-14,-2.948462285472E-2,
1.627908896326E-11));
#436=LENGTH_MEASURE_WITH_UNIT(LENGTH_MEASURE(2.54E1),#435);
#437=(CONVERSION_BASED_UNIT('INCH',#436)LENGTH_UNIT()NAMED_UNIT(*));
#438=DERIVED_UNIT_ELEMENT(#437,2.E0);
#439=AREA_UNIT((#438));
#440=MEASURE_REPRESENTATION_ITEM('surface area measure',AREA_MEASURE(
2.527903065381E-2),#439);
#445=LENGTH_MEASURE_WITH_UNIT(LENGTH_MEASURE(2.54E1),#444);
#446=(CONVERSION_BASED_UNIT('INCH',#445)LENGTH_UNIT()NAMED_UNIT(*));
#447=DERIVED_UNIT_ELEMENT(#446,3.E0);
#448=VOLUME_UNIT((#447));
#449=MEASURE_REPRESENTATION_ITEM('volume measure',VOLUME_MEASURE(
1.164446078002E-4),#448);
#453=CARTESIAN_POINT('centre point',(1.110639611104E-14,-2.948462285472E-2,
1.627908896326E-11));
#1=DRAUGHTING_PRE_DEFINED_COLOUR('green');
#2=COLOUR_RGB('',1.1E-2,1.2E-2,1.E0);
#3=COLOUR_RGB('',2.352941176471E-1,2.352941176471E-1,2.352941176471E-1);
#4=COLOUR_RGB('',2.666666666667E-1,4.666666666667E-1,4.E-1);
#5=COLOUR_RGB('',4.1E-1,2.61589E-1,1.12848E-1);
#6=COLOUR_RGB('',5.04854E-1,1.5455E-2,1.5455E-2);
#7=COLOUR_RGB('',6.274509803922E-1,6.274509803922E-1,6.274509803922E-1);
#8=COLOUR_RGB('',6.35294E-1,6.86275E-1,7.4902E-1);
#9=COLOUR_RGB('',6.40777E-1,6.40777E-1,6.40777E-1);
#10=COLOUR_RGB('',6.69062E-1,6.69903E-1,6.55217E-1);
#11=COLOUR_RGB('',9.098039215686E-1,4.431372549020E-1,3.137254901961E-2);
#12=COLOUR_RGB('',9.21569E-1,7.05882E-1,4.70588E-1);
#13=DRAUGHTING_PRE_DEFINED_COLOUR('red');
#14=DRAUGHTING_PRE_DEFINED_COLOUR('yellow');
#15=COLOUR_RGB('',1.E0,1.E0,5.3E-1);
#16=COLOUR_RGB('',1.E0,1.E0,9.49E-1);
#17=DRAUGHTING_PRE_DEFINED_COLOUR('white');
#31=CIRCLE('',#30,1.973723315830E-2);
#39=CIRCLE('',#38,6.918198529412E-2);
#47=CIRCLE('',#46,1.973723315830E-2);
#55=CIRCLE('',#54,9.152239269370E-3);
#63=CIRCLE('',#62,8.25E-2);
#71=CIRCLE('',#70,8.25E-2);
#79=CIRCLE('',#78,8.25E-2);
#87=CIRCLE('',#86,9.152239269370E-3);
#95=CIRCLE('',#94,1.973723315830E-2);
#103=CIRCLE('',#102,1.973723315830E-2);
#118=CIRCLE('',#117,1.973723315830E-2);
#126=CIRCLE('',#125,9.152239269370E-3);
#134=CIRCLE('',#133,8.25E-2);
#142=CIRCLE('',#141,8.25E-2);
#150=CIRCLE('',#149,9.152239269370E-3);
#158=CIRCLE('',#157,1.973723315830E-2);
#166=CIRCLE('',#165,6.918198529412E-2);
#174=CIRCLE('',#173,1.973723315830E-2);
#247=EDGE_CURVE('',#208,#209,#47,.T.);
#249=EDGE_CURVE('',#213,#209,#22,.T.);
#251=EDGE_CURVE('',#213,#211,#158,.T.);
#253=EDGE_CURVE('',#211,#208,#195,.T.);
#257=ADVANCED_FACE('',(#256),#246,.T.);
#263=EDGE_CURVE('',#238,#239,#31,.T.);
#265=EDGE_CURVE('',#209,#238,#39,.T.);
#268=EDGE_CURVE('',#221,#208,#55,.T.);
#270=EDGE_CURVE('',#219,#221,#63,.T.);
#272=EDGE_CURVE('',#217,#219,#71,.T.);
#274=EDGE_CURVE('',#216,#217,#79,.T.);
#276=EDGE_CURVE('',#235,#216,#87,.T.);
#278=EDGE_CURVE('',#241,#235,#95,.T.);
#280=EDGE_CURVE('',#241,#239,#103,.T.);
#284=ADVANCED_FACE('',(#283),#262,.F.);
#290=EDGE_CURVE('',#230,#231,#174,.T.);
#292=EDGE_CURVE('',#231,#238,#202,.T.);
#297=EDGE_CURVE('',#233,#235,#110,.T.);
#299=EDGE_CURVE('',#233,#230,#118,.T.);
#303=ADVANCED_FACE('',(#302),#289,.T.);
#310=EDGE_CURVE('',#223,#233,#126,.T.);
#312=EDGE_CURVE('',#225,#223,#134,.T.);
#314=EDGE_CURVE('',#227,#225,#142,.T.);
#316=EDGE_CURVE('',#211,#227,#150,.T.);
#319=EDGE_CURVE('',#231,#213,#166,.T.);
#324=ADVANCED_FACE('',(#323),#308,.T.);
#333=EDGE_CURVE('',#223,#216,#181,.T.);
#337=ADVANCED_FACE('',(#336),#329,.T.);
#344=EDGE_CURVE('',#227,#221,#188,.T.);
#353=ADVANCED_FACE('',(#352),#342,.T.);
#365=ADVANCED_FACE('',(#364),#358,.T.);
#377=ADVANCED_FACE('',(#376),#370,.F.);
#378=CLOSED_SHELL('',(#257,#284,#303,#324,#337,#353,#365,#377));
#379=MANIFOLD_SOLID_BREP('',#378);
#386=(LENGTH_UNIT()NAMED_UNIT(*)SI_UNIT(.MILLI.,.METRE.));
#389=(NAMED_UNIT(*)PLANE_ANGLE_UNIT()SI_UNIT($,.RADIAN.));
#392=(NAMED_UNIT(*)SI_UNIT($,.STERADIAN.)SOLID_ANGLE_UNIT());
#394=(GEOMETRIC_REPRESENTATION_CONTEXT(3)GLOBAL_UNCERTAINTY_ASSIGNED_CONTEXT((
#393))GLOBAL_UNIT_ASSIGNED_CONTEXT((#388,#391,#392))REPRESENTATION_CONTEXT
('ID1','3'));
#398=AXIS2_PLACEMENT_3D('',#395,#396,#397);
#399=ADVANCED_BREP_SHAPE_REPRESENTATION('',(#398,#379),#394);
#407=PRODUCT_DEFINITION('design','',#406,#403);
#408=PRODUCT_DEFINITION_SHAPE('','SHAPE FOR 97414A610_LOW_CLEARANCE_EXTERNA.',
#407);
#409=SHAPE_ASPECT('',
'solid data associated with 97414A610_LOW_CLEARANCE_EXTERNA',#408,.F.);
#410=PROPERTY_DEFINITION('',
'shape for solid data with which properties are associated',#409);
#411=SHAPE_REPRESENTATION('',(#379),#394);
#412=SHAPE_DEFINITION_REPRESENTATION(#410,#411);
#413=(LENGTH_UNIT()NAMED_UNIT(*)SI_UNIT(.MILLI.,.METRE.));
#419=PROPERTY_DEFINITION('geometric validation property',
'area of 97414A610_LOW_CLEARANCE_EXTERNA',#409);
#420=REPRESENTATION('surface area',(#418),#394);
#421=PROPERTY_DEFINITION_REPRESENTATION(#419,#420);
#422=(LENGTH_UNIT()NAMED_UNIT(*)SI_UNIT(.MILLI.,.METRE.));
#428=PROPERTY_DEFINITION('geometric validation property',
'volume of 97414A610_LOW_CLEARANCE_EXTERNA',#409);
#429=REPRESENTATION('volume',(#427),#394);
#430=PROPERTY_DEFINITION_REPRESENTATION(#428,#429);
#432=PROPERTY_DEFINITION('geometric validation property',
'centroid of 97414A610_LOW_CLEARANCE_EXTERNA',#409);
#433=REPRESENTATION('centroid',(#431),#394);
#434=PROPERTY_DEFINITION_REPRESENTATION(#432,#433);
#435=(LENGTH_UNIT()NAMED_UNIT(*)SI_UNIT(.MILLI.,.METRE.));
#441=PROPERTY_DEFINITION('geometric validation property',
'area of 97414A610_LOW_CLEARANCE_EXTERNA',#408);
#442=REPRESENTATION('surface area',(#440),#394);
#443=PROPERTY_DEFINITION_REPRESENTATION(#441,#442);
#444=(LENGTH_UNIT()NAMED_UNIT(*)SI_UNIT(.MILLI.,.METRE.));
#450=PROPERTY_DEFINITION('geometric validation property',
'volume of 97414A610_LOW_CLEARANCE_EXTERNA',#408);
#451=REPRESENTATION('volume',(#449),#394);
#452=PROPERTY_DEFINITION_REPRESENTATION(#450,#451);
#454=PROPERTY_DEFINITION('geometric validation property',
'centroid of 97414A610_LOW_CLEARANCE_EXTERNA',#408);
#455=REPRESENTATION('centroid',(#453),#394);
#456=PROPERTY_DEFINITION_REPRESENTATION(#454,#455);
#457=SHAPE_DEFINITION_REPRESENTATION(#408,#399);
ENDSEC;
END-ISO-10303-21;
