ISO-10303-21;
HEADER;
FILE_DESCRIPTION((''),'2;1');
FILE_NAME('_4120001','2026-06-15T13:45:43',('Esia'),(''),
'CREO PARAMETRIC BY PTC INC, 2025102','CREO PARAMETRIC BY PTC INC, 2025102','');
FILE_SCHEMA((
'AP242_MANAGED_MODEL_BASED_3D_ENGINEERING_MIM_LF { 1 0 10303 442 1 1 4 }'));
ENDSEC;
DATA;
#17=DIRECTION('',(0.E0,1.E0,0.E0));
#18=VECTOR('',#17,2.984251968504E0);
#19=CARTESIAN_POINT('',(2.375984251969E0,-1.492125984252E0,1.653543307087E-1));
#20=LINE('',#19,#18);
#21=DIRECTION('',(1.E0,0.E0,0.E0));
#22=VECTOR('',#21,4.751968503937E0);
#23=CARTESIAN_POINT('',(-2.375984251969E0,-1.492125984252E0,1.653543307087E-1));
#24=LINE('',#23,#22);
#25=DIRECTION('',(0.E0,-1.E0,0.E0));
#26=VECTOR('',#25,2.984251968504E0);
#27=CARTESIAN_POINT('',(-2.375984251969E0,1.492125984252E0,1.653543307087E-1));
#28=LINE('',#27,#26);
#29=DIRECTION('',(-1.E0,0.E0,0.E0));
#30=VECTOR('',#29,4.751968503937E0);
#31=CARTESIAN_POINT('',(2.375984251969E0,1.492125984252E0,1.653543307087E-1));
#32=LINE('',#31,#30);
#33=DIRECTION('',(1.E0,0.E0,0.E0));
#34=VECTOR('',#33,4.251968503937E0);
#35=CARTESIAN_POINT('',(-2.125984251969E0,1.359842519685E0,1.653543307087E-1));
#36=LINE('',#35,#34);
#37=DIRECTION('',(0.E0,1.E0,0.E0));
#38=VECTOR('',#37,2.551181102362E0);
#39=CARTESIAN_POINT('',(-2.125984251969E0,-1.191338582677E0,1.653543307087E-1));
#40=LINE('',#39,#38);
#41=DIRECTION('',(-1.E0,0.E0,0.E0));
#42=VECTOR('',#41,4.251968503937E0);
#43=CARTESIAN_POINT('',(2.125984251969E0,-1.191338582677E0,1.653543307087E-1));
#44=LINE('',#43,#42);
#45=DIRECTION('',(0.E0,-1.E0,0.E0));
#46=VECTOR('',#45,2.551181102362E0);
#47=CARTESIAN_POINT('',(2.125984251969E0,1.359842519685E0,1.653543307087E-1));
#48=LINE('',#47,#46);
#49=DIRECTION('',(0.E0,1.E0,0.E0));
#50=VECTOR('',#49,2.984251968504E0);
#51=CARTESIAN_POINT('',(2.375984251969E0,-1.492125984252E0,0.E0));
#52=LINE('',#51,#50);
#53=DIRECTION('',(0.E0,0.E0,-1.E0));
#54=VECTOR('',#53,1.653543307087E-1);
#55=CARTESIAN_POINT('',(2.375984251969E0,-1.492125984252E0,1.653543307087E-1));
#56=LINE('',#55,#54);
#57=DIRECTION('',(0.E0,0.E0,1.E0));
#58=VECTOR('',#57,1.653543307087E-1);
#59=CARTESIAN_POINT('',(2.375984251969E0,1.492125984252E0,0.E0));
#60=LINE('',#59,#58);
#61=DIRECTION('',(-1.E0,0.E0,0.E0));
#62=VECTOR('',#61,4.751968503937E0);
#63=CARTESIAN_POINT('',(2.375984251969E0,1.492125984252E0,0.E0));
#64=LINE('',#63,#62);
#65=DIRECTION('',(0.E0,0.E0,1.E0));
#66=VECTOR('',#65,1.653543307087E-1);
#67=CARTESIAN_POINT('',(-2.375984251969E0,1.492125984252E0,0.E0));
#68=LINE('',#67,#66);
#69=DIRECTION('',(0.E0,-1.E0,0.E0));
#70=VECTOR('',#69,2.984251968504E0);
#71=CARTESIAN_POINT('',(-2.375984251969E0,1.492125984252E0,0.E0));
#72=LINE('',#71,#70);
#73=DIRECTION('',(0.E0,0.E0,1.E0));
#74=VECTOR('',#73,1.653543307087E-1);
#75=CARTESIAN_POINT('',(-2.375984251969E0,-1.492125984252E0,0.E0));
#76=LINE('',#75,#74);
#77=DIRECTION('',(1.E0,0.E0,0.E0));
#78=VECTOR('',#77,4.751968503937E0);
#79=CARTESIAN_POINT('',(-2.375984251969E0,-1.492125984252E0,0.E0));
#80=LINE('',#79,#78);
#81=CARTESIAN_POINT('',(1.629649214968E0,4.292307848933E-1,1.653543307087E-1));
#82=DIRECTION('',(0.E0,0.E0,1.E0));
#83=DIRECTION('',(4.799942949018E-14,1.E0,0.E0));
#84=AXIS2_PLACEMENT_3D('',#81,#82,#83);
#86=CARTESIAN_POINT('',(1.198949337526E0,5.222239892441E-1,1.653543307087E-1));
#87=DIRECTION('',(0.E0,0.E0,1.E0));
#88=DIRECTION('',(9.774755791895E-1,2.110485538640E-1,0.E0));
#89=AXIS2_PLACEMENT_3D('',#86,#87,#88);
#91=CARTESIAN_POINT('',(1.629649214968E0,6.152171935949E-1,1.653543307087E-1));
#92=DIRECTION('',(0.E0,0.E0,1.E0));
#93=DIRECTION('',(-9.774755791895E-1,-2.110485538640E-1,0.E0));
#94=AXIS2_PLACEMENT_3D('',#91,#92,#93);
#96=DIRECTION('',(1.E0,0.E0,0.E0));
#97=VECTOR('',#96,1.964574838795E-2);
#98=CARTESIAN_POINT('',(1.629649214968E0,5.782093195791E-1,1.653543307087E-1));
#99=LINE('',#98,#97);
#100=CARTESIAN_POINT('',(1.649294963356E0,6.191041826661E-1,1.653543307087E-1));
#101=DIRECTION('',(0.E0,0.E0,1.E0));
#102=DIRECTION('',(2.171858156880E-14,-1.E0,0.E0));
#103=AXIS2_PLACEMENT_3D('',#100,#101,#102);
#105=CARTESIAN_POINT('',(1.198949337526E0,5.222239892441E-1,1.653543307087E-1));
#106=DIRECTION('',(0.E0,0.E0,1.E0));
#107=DIRECTION('',(9.776341767261E-1,2.103126636630E-1,0.E0));
#108=AXIS2_PLACEMENT_3D('',#105,#106,#107);
#110=CARTESIAN_POINT('',(1.642553035950E0,4.199387444516E-1,1.653543307087E-1));
#111=DIRECTION('',(0.E0,0.E0,1.E0));
#112=DIRECTION('',(9.744320114631E-1,-2.246825650466E-1,0.E0));
#113=AXIS2_PLACEMENT_3D('',#110,#111,#112);
#115=DIRECTION('',(-1.E0,0.E0,0.E0));
#116=VECTOR('',#115,1.290382098260E-2);
#117=CARTESIAN_POINT('',(1.642553035950E0,4.662386589091E-1,1.653543307087E-1));
#118=LINE('',#117,#116);
#119=CARTESIAN_POINT('',(7.466235077463E-1,-4.530954984043E-1,
1.653543307087E-1));
#120=DIRECTION('',(0.E0,0.E0,1.E0));
#121=DIRECTION('',(8.724001471769E-1,-4.887923722868E-1,0.E0));
#122=AXIS2_PLACEMENT_3D('',#119,#120,#121);
#124=DIRECTION('',(-1.E0,0.E0,0.E0));
#125=VECTOR('',#124,1.493247015493E0);
#126=CARTESIAN_POINT('',(7.466235077463E-1,-4.137254196642E-1,
1.653543307087E-1));
#127=LINE('',#126,#125);
#128=CARTESIAN_POINT('',(-7.466235077463E-1,-4.530954984043E-1,
1.653543307087E-1));
#129=DIRECTION('',(0.E0,0.E0,1.E0));
#130=DIRECTION('',(0.E0,1.E0,0.E0));
#131=AXIS2_PLACEMENT_3D('',#128,#129,#130);
#133=CARTESIAN_POINT('',(0.E0,-3.477384092019E-2,1.653543307087E-1));
#134=DIRECTION('',(0.E0,0.E0,1.E0));
#135=DIRECTION('',(-8.724001471769E-1,-4.887923722868E-1,0.E0));
#136=AXIS2_PLACEMENT_3D('',#133,#134,#135);
#138=CARTESIAN_POINT('',(-1.629649214968E0,4.292307848933E-1,
1.653543307087E-1));
#139=DIRECTION('',(0.E0,0.E0,1.E0));
#140=DIRECTION('',(9.774755791895E-1,2.110485538641E-1,0.E0));
#141=AXIS2_PLACEMENT_3D('',#138,#139,#140);
#143=DIRECTION('',(-1.E0,0.E0,0.E0));
#144=VECTOR('',#143,1.290382098260E-2);
#145=CARTESIAN_POINT('',(-1.629649214968E0,4.662386589091E-1,
1.653543307087E-1));
#146=LINE('',#145,#144);
#147=CARTESIAN_POINT('',(-1.642553035950E0,4.199387444516E-1,
1.653543307087E-1));
#148=DIRECTION('',(0.E0,0.E0,1.E0));
#149=DIRECTION('',(1.918315465822E-14,1.E0,0.E0));
#150=AXIS2_PLACEMENT_3D('',#147,#148,#149);
#152=CARTESIAN_POINT('',(-1.198949337526E0,5.222239892441E-1,
1.653543307087E-1));
#153=DIRECTION('',(0.E0,0.E0,1.E0));
#154=DIRECTION('',(-9.744320114631E-1,-2.246825650466E-1,0.E0));
#155=AXIS2_PLACEMENT_3D('',#152,#153,#154);
#157=CARTESIAN_POINT('',(-1.649294963356E0,6.191041826661E-1,
1.653543307087E-1));
#158=DIRECTION('',(0.E0,0.E0,1.E0));
#159=DIRECTION('',(-9.776341767261E-1,2.103126636630E-1,0.E0));
#160=AXIS2_PLACEMENT_3D('',#157,#158,#159);
#162=DIRECTION('',(1.E0,0.E0,0.E0));
#163=VECTOR('',#162,1.964574838794E-2);
#164=CARTESIAN_POINT('',(-1.649294963356E0,5.782093195791E-1,
1.653543307087E-1));
#165=LINE('',#164,#163);
#166=CARTESIAN_POINT('',(-1.629649214968E0,6.152171935949E-1,
1.653543307087E-1));
#167=DIRECTION('',(0.E0,0.E0,1.E0));
#168=DIRECTION('',(2.399971474509E-14,-1.E0,0.E0));
#169=AXIS2_PLACEMENT_3D('',#166,#167,#168);
#171=CARTESIAN_POINT('',(-1.198949337526E0,5.222239892441E-1,
1.653543307087E-1));
#172=DIRECTION('',(0.E0,0.E0,1.E0));
#173=DIRECTION('',(-9.774755791895E-1,-2.110485538639E-1,0.E0));
#174=AXIS2_PLACEMENT_3D('',#171,#172,#173);
#176=DIRECTION('',(0.E0,0.E0,1.E0));
#177=VECTOR('',#176,3.937007874016E-2);
#178=CARTESIAN_POINT('',(1.629649214968E0,4.662386589091E-1,1.653543307087E-1));
#179=LINE('',#178,#177);
#180=DIRECTION('',(0.E0,0.E0,1.E0));
#181=VECTOR('',#180,3.937007874016E-2);
#182=CARTESIAN_POINT('',(1.642553035950E0,4.662386589091E-1,1.653543307087E-1));
#183=LINE('',#182,#181);
#184=DIRECTION('',(1.127986593019E-14,0.E0,1.E0));
#185=VECTOR('',#184,3.937007874016E-2);
#186=CARTESIAN_POINT('',(1.687669154726E0,4.095359609098E-1,1.653543307087E-1));
#187=LINE('',#186,#185);
#188=DIRECTION('',(0.E0,0.E0,1.E0));
#189=VECTOR('',#188,3.937007874016E-2);
#190=CARTESIAN_POINT('',(1.689275179162E0,6.277048902521E-1,1.653543307087E-1));
#191=LINE('',#190,#189);
#192=DIRECTION('',(0.E0,0.E0,1.E0));
#193=VECTOR('',#192,3.937007874016E-2);
#194=CARTESIAN_POINT('',(1.649294963356E0,5.782093195791E-1,1.653543307087E-1));
#195=LINE('',#194,#193);
#196=DIRECTION('',(0.E0,0.E0,1.E0));
#197=VECTOR('',#196,3.937007874016E-2);
#198=CARTESIAN_POINT('',(1.629649214968E0,5.782093195791E-1,1.653543307087E-1));
#199=LINE('',#198,#197);
#200=DIRECTION('',(0.E0,0.E0,1.E0));
#201=VECTOR('',#200,3.937007874016E-2);
#202=CARTESIAN_POINT('',(1.593474921879E0,6.074067353023E-1,1.653543307087E-1));
#203=LINE('',#202,#201);
#204=DIRECTION('',(0.E0,-1.973976537784E-14,1.E0));
#205=VECTOR('',#204,3.937007874016E-2);
#206=CARTESIAN_POINT('',(1.593474921879E0,4.370412431859E-1,1.653543307087E-1));
#207=LINE('',#206,#205);
#208=CARTESIAN_POINT('',(1.629649214968E0,4.292307848933E-1,2.047244094488E-1));
#209=DIRECTION('',(0.E0,0.E0,1.E0));
#210=DIRECTION('',(4.199950080390E-14,1.E0,0.E0));
#211=AXIS2_PLACEMENT_3D('',#208,#209,#210);
#213=DIRECTION('',(-1.E0,0.E0,0.E0));
#214=VECTOR('',#213,1.290382098260E-2);
#215=CARTESIAN_POINT('',(1.642553035950E0,4.662386589091E-1,2.047244094488E-1));
#216=LINE('',#215,#214);
#217=CARTESIAN_POINT('',(1.642553035950E0,4.199387444516E-1,2.047244094488E-1));
#218=DIRECTION('',(0.E0,0.E0,1.E0));
#219=DIRECTION('',(9.744320114631E-1,-2.246825650466E-1,0.E0));
#220=AXIS2_PLACEMENT_3D('',#217,#218,#219);
#222=CARTESIAN_POINT('',(1.198949337526E0,5.222239892441E-1,2.047244094488E-1));
#223=DIRECTION('',(0.E0,0.E0,1.E0));
#224=DIRECTION('',(9.776341767261E-1,2.103126636630E-1,0.E0));
#225=AXIS2_PLACEMENT_3D('',#222,#223,#224);
#227=CARTESIAN_POINT('',(1.649294963356E0,6.191041826661E-1,2.047244094488E-1));
#228=DIRECTION('',(0.E0,0.E0,1.E0));
#229=DIRECTION('',(2.171858156880E-14,-1.E0,0.E0));
#230=AXIS2_PLACEMENT_3D('',#227,#228,#229);
#232=DIRECTION('',(1.E0,0.E0,0.E0));
#233=VECTOR('',#232,1.964574838795E-2);
#234=CARTESIAN_POINT('',(1.629649214968E0,5.782093195791E-1,2.047244094488E-1));
#235=LINE('',#234,#233);
#236=CARTESIAN_POINT('',(1.629649214968E0,6.152171935949E-1,2.047244094488E-1));
#237=DIRECTION('',(0.E0,0.E0,1.E0));
#238=DIRECTION('',(-9.774755791895E-1,-2.110485538640E-1,0.E0));
#239=AXIS2_PLACEMENT_3D('',#236,#237,#238);
#241=CARTESIAN_POINT('',(1.198949337526E0,5.222239892441E-1,2.047244094488E-1));
#242=DIRECTION('',(0.E0,0.E0,-1.E0));
#243=DIRECTION('',(9.774755791895E-1,-2.110485538639E-1,0.E0));
#244=AXIS2_PLACEMENT_3D('',#241,#242,#243);
#246=CARTESIAN_POINT('',(7.466235077463E-1,-4.530954984043E-1,
2.047244094488E-1));
#247=DIRECTION('',(0.E0,0.E0,1.E0));
#248=DIRECTION('',(8.724001471769E-1,-4.887923722868E-1,0.E0));
#249=AXIS2_PLACEMENT_3D('',#246,#247,#248);
#251=CARTESIAN_POINT('',(0.E0,-3.477384092019E-2,2.047244094488E-1));
#252=DIRECTION('',(0.E0,0.E0,1.E0));
#253=DIRECTION('',(-8.724001471769E-1,-4.887923722868E-1,0.E0));
#254=AXIS2_PLACEMENT_3D('',#251,#252,#253);
#256=CARTESIAN_POINT('',(-7.466235077463E-1,-4.530954984043E-1,
2.047244094488E-1));
#257=DIRECTION('',(0.E0,0.E0,1.E0));
#258=DIRECTION('',(0.E0,1.E0,0.E0));
#259=AXIS2_PLACEMENT_3D('',#256,#257,#258);
#261=DIRECTION('',(-1.E0,0.E0,0.E0));
#262=VECTOR('',#261,1.493247015493E0);
#263=CARTESIAN_POINT('',(7.466235077463E-1,-4.137254196642E-1,
2.047244094488E-1));
#264=LINE('',#263,#262);
#265=CARTESIAN_POINT('',(-1.629649214968E0,4.292307848933E-1,
2.047244094488E-1));
#266=DIRECTION('',(0.E0,0.E0,1.E0));
#267=DIRECTION('',(9.774755791895E-1,2.110485538641E-1,0.E0));
#268=AXIS2_PLACEMENT_3D('',#265,#266,#267);
#270=CARTESIAN_POINT('',(-1.198949337526E0,5.222239892441E-1,
2.047244094488E-1));
#271=DIRECTION('',(0.E0,0.E0,-1.E0));
#272=DIRECTION('',(-9.774755791895E-1,2.110485538640E-1,0.E0));
#273=AXIS2_PLACEMENT_3D('',#270,#271,#272);
#275=CARTESIAN_POINT('',(-1.629649214968E0,6.152171935949E-1,
2.047244094488E-1));
#276=DIRECTION('',(0.E0,0.E0,1.E0));
#277=DIRECTION('',(2.399971474509E-14,-1.E0,0.E0));
#278=AXIS2_PLACEMENT_3D('',#275,#276,#277);
#280=DIRECTION('',(1.E0,0.E0,0.E0));
#281=VECTOR('',#280,1.964574838794E-2);
#282=CARTESIAN_POINT('',(-1.649294963356E0,5.782093195791E-1,
2.047244094488E-1));
#283=LINE('',#282,#281);
#284=CARTESIAN_POINT('',(-1.649294963356E0,6.191041826661E-1,
2.047244094488E-1));
#285=DIRECTION('',(0.E0,0.E0,1.E0));
#286=DIRECTION('',(-9.776341767261E-1,2.103126636630E-1,0.E0));
#287=AXIS2_PLACEMENT_3D('',#284,#285,#286);
#289=CARTESIAN_POINT('',(-1.198949337526E0,5.222239892441E-1,
2.047244094488E-1));
#290=DIRECTION('',(0.E0,0.E0,1.E0));
#291=DIRECTION('',(-9.744320114631E-1,-2.246825650466E-1,0.E0));
#292=AXIS2_PLACEMENT_3D('',#289,#290,#291);
#294=CARTESIAN_POINT('',(-1.642553035950E0,4.199387444516E-1,
2.047244094488E-1));
#295=DIRECTION('',(0.E0,0.E0,1.E0));
#296=DIRECTION('',(1.918315465822E-14,1.E0,0.E0));
#297=AXIS2_PLACEMENT_3D('',#294,#295,#296);
#299=DIRECTION('',(-1.E0,0.E0,0.E0));
#300=VECTOR('',#299,1.290382098260E-2);
#301=CARTESIAN_POINT('',(-1.629649214968E0,4.662386589091E-1,
2.047244094488E-1));
#302=LINE('',#301,#300);
#303=DIRECTION('',(0.E0,0.E0,1.E0));
#304=VECTOR('',#303,3.937007874016E-2);
#305=CARTESIAN_POINT('',(7.809699702336E-1,-4.723392925889E-1,
1.653543307087E-1));
#306=LINE('',#305,#304);
#307=DIRECTION('',(0.E0,0.E0,1.E0));
#308=VECTOR('',#307,3.937007874016E-2);
#309=CARTESIAN_POINT('',(-7.809699702336E-1,-4.723392925889E-1,
1.653543307087E-1));
#310=LINE('',#309,#308);
#311=DIRECTION('',(0.E0,0.E0,1.E0));
#312=VECTOR('',#311,3.937007874016E-2);
#313=CARTESIAN_POINT('',(-7.466235077463E-1,-4.137254196642E-1,
1.653543307087E-1));
#314=LINE('',#313,#312);
#315=DIRECTION('',(0.E0,0.E0,1.E0));
#316=VECTOR('',#315,3.937007874016E-2);
#317=CARTESIAN_POINT('',(7.466235077463E-1,-4.137254196642E-1,
1.653543307087E-1));
#318=LINE('',#317,#316);
#319=DIRECTION('',(0.E0,0.E0,1.E0));
#320=VECTOR('',#319,3.937007874016E-2);
#321=CARTESIAN_POINT('',(-1.593474921879E0,4.370412431859E-1,
1.653543307087E-1));
#322=LINE('',#321,#320);
#323=DIRECTION('',(0.E0,2.255973186038E-14,1.E0));
#324=VECTOR('',#323,3.937007874016E-2);
#325=CARTESIAN_POINT('',(-1.593474921879E0,6.074067353023E-1,
1.653543307087E-1));
#326=LINE('',#325,#324);
#327=DIRECTION('',(0.E0,0.E0,1.E0));
#328=VECTOR('',#327,3.937007874016E-2);
#329=CARTESIAN_POINT('',(-1.629649214968E0,5.782093195791E-1,
1.653543307087E-1));
#330=LINE('',#329,#328);
#331=DIRECTION('',(0.E0,0.E0,1.E0));
#332=VECTOR('',#331,3.937007874016E-2);
#333=CARTESIAN_POINT('',(-1.649294963356E0,5.782093195791E-1,
1.653543307087E-1));
#334=LINE('',#333,#332);
#335=DIRECTION('',(0.E0,0.E0,1.E0));
#336=VECTOR('',#335,3.937007874016E-2);
#337=CARTESIAN_POINT('',(-1.689275179162E0,6.277048902521E-1,
1.653543307087E-1));
#338=LINE('',#337,#336);
#339=DIRECTION('',(0.E0,0.E0,1.E0));
#340=VECTOR('',#339,3.937007874016E-2);
#341=CARTESIAN_POINT('',(-1.687669154726E0,4.095359609098E-1,
1.653543307087E-1));
#342=LINE('',#341,#340);
#343=DIRECTION('',(0.E0,0.E0,1.E0));
#344=VECTOR('',#343,3.937007874016E-2);
#345=CARTESIAN_POINT('',(-1.642553035950E0,4.662386589091E-1,
1.653543307087E-1));
#346=LINE('',#345,#344);
#347=DIRECTION('',(0.E0,0.E0,1.E0));
#348=VECTOR('',#347,3.937007874016E-2);
#349=CARTESIAN_POINT('',(-1.629649214968E0,4.662386589091E-1,
1.653543307087E-1));
#350=LINE('',#349,#348);
#351=CARTESIAN_POINT('',(2.125984251969E0,1.359842519685E0,1.653543307087E-1));
#352=CARTESIAN_POINT('',(2.125984251969E0,-1.191338582677E0,1.653543307087E-1));
#353=VERTEX_POINT('',#351);
#354=VERTEX_POINT('',#352);
#355=CARTESIAN_POINT('',(-2.125984251969E0,1.359842519685E0,1.653543307087E-1));
#356=VERTEX_POINT('',#355);
#357=CARTESIAN_POINT('',(2.375984251969E0,1.492125984252E0,1.653543307087E-1));
#358=CARTESIAN_POINT('',(-2.375984251969E0,1.492125984252E0,1.653543307087E-1));
#359=VERTEX_POINT('',#357);
#360=VERTEX_POINT('',#358);
#361=CARTESIAN_POINT('',(2.375984251969E0,1.492125984252E0,0.E0));
#362=VERTEX_POINT('',#361);
#363=CARTESIAN_POINT('',(-2.375984251969E0,1.492125984252E0,0.E0));
#364=VERTEX_POINT('',#363);
#365=CARTESIAN_POINT('',(-2.375984251969E0,-1.492125984252E0,
1.653543307087E-1));
#366=VERTEX_POINT('',#365);
#367=CARTESIAN_POINT('',(2.375984251969E0,-1.492125984252E0,1.653543307087E-1));
#368=VERTEX_POINT('',#367);
#369=CARTESIAN_POINT('',(-2.375984251969E0,-1.492125984252E0,0.E0));
#370=CARTESIAN_POINT('',(2.375984251969E0,-1.492125984252E0,0.E0));
#371=VERTEX_POINT('',#369);
#372=VERTEX_POINT('',#370);
#373=CARTESIAN_POINT('',(-2.125984251969E0,-1.191338582677E0,
1.653543307087E-1));
#374=VERTEX_POINT('',#373);
#375=CARTESIAN_POINT('',(1.629649214968E0,4.662386589091E-1,2.047244094488E-1));
#376=CARTESIAN_POINT('',(1.593474921879E0,4.370412431859E-1,2.047244094488E-1));
#377=VERTEX_POINT('',#375);
#378=VERTEX_POINT('',#376);
#379=CARTESIAN_POINT('',(1.593474921879E0,6.074067353023E-1,2.047244094488E-1));
#380=VERTEX_POINT('',#379);
#381=CARTESIAN_POINT('',(1.629649214968E0,5.782093195791E-1,2.047244094488E-1));
#382=VERTEX_POINT('',#381);
#383=CARTESIAN_POINT('',(1.649294963356E0,5.782093195791E-1,2.047244094488E-1));
#384=VERTEX_POINT('',#383);
#385=CARTESIAN_POINT('',(1.689275179162E0,6.277048902521E-1,2.047244094488E-1));
#386=VERTEX_POINT('',#385);
#387=CARTESIAN_POINT('',(1.687669154726E0,4.095359609098E-1,2.047244094488E-1));
#388=VERTEX_POINT('',#387);
#389=CARTESIAN_POINT('',(1.642553035950E0,4.662386589091E-1,2.047244094488E-1));
#390=VERTEX_POINT('',#389);
#391=CARTESIAN_POINT('',(7.809699702336E-1,-4.723392925889E-1,
2.047244094488E-1));
#392=CARTESIAN_POINT('',(7.466235077463E-1,-4.137254196642E-1,
2.047244094488E-1));
#393=VERTEX_POINT('',#391);
#394=VERTEX_POINT('',#392);
#395=CARTESIAN_POINT('',(-7.466235077463E-1,-4.137254196642E-1,
2.047244094488E-1));
#396=VERTEX_POINT('',#395);
#397=CARTESIAN_POINT('',(-7.809699702336E-1,-4.723392925889E-1,
2.047244094488E-1));
#398=VERTEX_POINT('',#397);
#399=CARTESIAN_POINT('',(-1.593474921879E0,4.370412431859E-1,
2.047244094488E-1));
#400=CARTESIAN_POINT('',(-1.629649214968E0,4.662386589091E-1,
2.047244094488E-1));
#401=VERTEX_POINT('',#399);
#402=VERTEX_POINT('',#400);
#403=CARTESIAN_POINT('',(-1.642553035950E0,4.662386589091E-1,
2.047244094488E-1));
#404=VERTEX_POINT('',#403);
#405=CARTESIAN_POINT('',(-1.687669154726E0,4.095359609098E-1,
2.047244094488E-1));
#406=VERTEX_POINT('',#405);
#407=CARTESIAN_POINT('',(-1.689275179162E0,6.277048902521E-1,
2.047244094488E-1));
#408=VERTEX_POINT('',#407);
#409=CARTESIAN_POINT('',(-1.649294963356E0,5.782093195791E-1,
2.047244094488E-1));
#410=VERTEX_POINT('',#409);
#411=CARTESIAN_POINT('',(-1.629649214968E0,5.782093195791E-1,
2.047244094488E-1));
#412=VERTEX_POINT('',#411);
#413=CARTESIAN_POINT('',(-1.593474921879E0,6.074067353023E-1,
2.047244094488E-1));
#414=VERTEX_POINT('',#413);
#415=CARTESIAN_POINT('',(1.629649214968E0,4.662386589091E-1,1.653543307087E-1));
#416=CARTESIAN_POINT('',(1.593474921879E0,4.370412431859E-1,1.653543307087E-1));
#417=VERTEX_POINT('',#415);
#418=VERTEX_POINT('',#416);
#419=CARTESIAN_POINT('',(1.593474921879E0,6.074067353023E-1,1.653543307087E-1));
#420=VERTEX_POINT('',#419);
#421=CARTESIAN_POINT('',(1.629649214968E0,5.782093195791E-1,1.653543307087E-1));
#422=VERTEX_POINT('',#421);
#423=CARTESIAN_POINT('',(1.649294963356E0,5.782093195791E-1,1.653543307087E-1));
#424=VERTEX_POINT('',#423);
#425=CARTESIAN_POINT('',(1.689275179162E0,6.277048902521E-1,1.653543307087E-1));
#426=VERTEX_POINT('',#425);
#427=CARTESIAN_POINT('',(1.687669154726E0,4.095359609098E-1,1.653543307087E-1));
#428=VERTEX_POINT('',#427);
#429=CARTESIAN_POINT('',(1.642553035950E0,4.662386589091E-1,1.653543307087E-1));
#430=VERTEX_POINT('',#429);
#431=CARTESIAN_POINT('',(7.809699702336E-1,-4.723392925889E-1,
1.653543307087E-1));
#432=CARTESIAN_POINT('',(7.466235077463E-1,-4.137254196642E-1,
1.653543307087E-1));
#433=VERTEX_POINT('',#431);
#434=VERTEX_POINT('',#432);
#435=CARTESIAN_POINT('',(-7.466235077463E-1,-4.137254196642E-1,
1.653543307087E-1));
#436=VERTEX_POINT('',#435);
#437=CARTESIAN_POINT('',(-7.809699702336E-1,-4.723392925889E-1,
1.653543307087E-1));
#438=VERTEX_POINT('',#437);
#439=CARTESIAN_POINT('',(-1.593474921879E0,4.370412431859E-1,
1.653543307087E-1));
#440=CARTESIAN_POINT('',(-1.629649214968E0,4.662386589091E-1,
1.653543307087E-1));
#441=VERTEX_POINT('',#439);
#442=VERTEX_POINT('',#440);
#443=CARTESIAN_POINT('',(-1.642553035950E0,4.662386589091E-1,
1.653543307087E-1));
#444=VERTEX_POINT('',#443);
#445=CARTESIAN_POINT('',(-1.687669154726E0,4.095359609098E-1,
1.653543307087E-1));
#446=VERTEX_POINT('',#445);
#447=CARTESIAN_POINT('',(-1.689275179162E0,6.277048902521E-1,
1.653543307087E-1));
#448=VERTEX_POINT('',#447);
#449=CARTESIAN_POINT('',(-1.649294963356E0,5.782093195791E-1,
1.653543307087E-1));
#450=VERTEX_POINT('',#449);
#451=CARTESIAN_POINT('',(-1.629649214968E0,5.782093195791E-1,
1.653543307087E-1));
#452=VERTEX_POINT('',#451);
#453=CARTESIAN_POINT('',(-1.593474921879E0,6.074067353023E-1,
1.653543307087E-1));
#454=VERTEX_POINT('',#453);
#455=CARTESIAN_POINT('',(0.E0,0.E0,1.653543307087E-1));
#456=DIRECTION('',(0.E0,0.E0,1.E0));
#457=DIRECTION('',(1.E0,0.E0,0.E0));
#458=AXIS2_PLACEMENT_3D('',#455,#456,#457);
#459=PLANE('',#458);
#461=ORIENTED_EDGE('',*,*,#460,.F.);
#463=ORIENTED_EDGE('',*,*,#462,.F.);
#465=ORIENTED_EDGE('',*,*,#464,.F.);
#467=ORIENTED_EDGE('',*,*,#466,.F.);
#468=EDGE_LOOP('',(#461,#463,#465,#467));
#469=FACE_OUTER_BOUND('',#468,.F.);
#471=ORIENTED_EDGE('',*,*,#470,.F.);
#473=ORIENTED_EDGE('',*,*,#472,.F.);
#475=ORIENTED_EDGE('',*,*,#474,.F.);
#477=ORIENTED_EDGE('',*,*,#476,.F.);
#478=EDGE_LOOP('',(#471,#473,#475,#477));
#479=FACE_BOUND('',#478,.F.);
#481=FILL_AREA_STYLE_COLOUR('',#1);
#482=FILL_AREA_STYLE('',(#481));
#483=SURFACE_STYLE_FILL_AREA(#482);
#484=SURFACE_SIDE_STYLE('',(#483));
#485=SURFACE_STYLE_USAGE(.BOTH.,#484);
#486=PRESENTATION_STYLE_ASSIGNMENT((#485));
#487=STYLED_ITEM('',(#486),#480);
#488=CARTESIAN_POINT('',(2.375984251969E0,1.492125984252E0,1.653543307087E-1));
#489=DIRECTION('',(-1.E0,0.E0,0.E0));
#490=DIRECTION('',(0.E0,-1.E0,0.E0));
#491=AXIS2_PLACEMENT_3D('',#488,#489,#490);
#492=PLANE('',#491);
#494=ORIENTED_EDGE('',*,*,#493,.F.);
#496=ORIENTED_EDGE('',*,*,#495,.F.);
#497=ORIENTED_EDGE('',*,*,#460,.T.);
#499=ORIENTED_EDGE('',*,*,#498,.F.);
#500=EDGE_LOOP('',(#494,#496,#497,#499));
#501=FACE_OUTER_BOUND('',#500,.F.);
#503=FILL_AREA_STYLE_COLOUR('',#16);
#504=FILL_AREA_STYLE('',(#503));
#505=SURFACE_STYLE_FILL_AREA(#504);
#506=SURFACE_SIDE_STYLE('',(#505));
#507=SURFACE_STYLE_USAGE(.BOTH.,#506);
#508=PRESENTATION_STYLE_ASSIGNMENT((#507));
#509=STYLED_ITEM('',(#508),#502);
#510=CARTESIAN_POINT('',(0.E0,0.E0,0.E0));
#511=DIRECTION('',(0.E0,0.E0,1.E0));
#512=DIRECTION('',(1.E0,0.E0,0.E0));
#513=AXIS2_PLACEMENT_3D('',#510,#511,#512);
#514=PLANE('',#513);
#515=ORIENTED_EDGE('',*,*,#493,.T.);
#517=ORIENTED_EDGE('',*,*,#516,.T.);
#519=ORIENTED_EDGE('',*,*,#518,.T.);
#521=ORIENTED_EDGE('',*,*,#520,.T.);
#522=EDGE_LOOP('',(#515,#517,#519,#521));
#523=FACE_OUTER_BOUND('',#522,.F.);
#525=FILL_AREA_STYLE_COLOUR('',#16);
#526=FILL_AREA_STYLE('',(#525));
#527=SURFACE_STYLE_FILL_AREA(#526);
#528=SURFACE_SIDE_STYLE('',(#527));
#529=SURFACE_STYLE_USAGE(.BOTH.,#528);
#530=PRESENTATION_STYLE_ASSIGNMENT((#529));
#531=STYLED_ITEM('',(#530),#524);
#532=CARTESIAN_POINT('',(-2.375984251969E0,1.492125984252E0,1.653543307087E-1));
#533=DIRECTION('',(0.E0,-1.E0,0.E0));
#534=DIRECTION('',(0.E0,0.E0,-1.E0));
#535=AXIS2_PLACEMENT_3D('',#532,#533,#534);
#536=PLANE('',#535);
#537=ORIENTED_EDGE('',*,*,#516,.F.);
#538=ORIENTED_EDGE('',*,*,#498,.T.);
#539=ORIENTED_EDGE('',*,*,#466,.T.);
#541=ORIENTED_EDGE('',*,*,#540,.F.);
#542=EDGE_LOOP('',(#537,#538,#539,#541));
#543=FACE_OUTER_BOUND('',#542,.F.);
#545=FILL_AREA_STYLE_COLOUR('',#16);
#546=FILL_AREA_STYLE('',(#545));
#547=SURFACE_STYLE_FILL_AREA(#546);
#548=SURFACE_SIDE_STYLE('',(#547));
#549=SURFACE_STYLE_USAGE(.BOTH.,#548);
#550=PRESENTATION_STYLE_ASSIGNMENT((#549));
#551=STYLED_ITEM('',(#550),#544);
#552=CARTESIAN_POINT('',(-2.375984251969E0,1.492125984252E0,1.653543307087E-1));
#553=DIRECTION('',(1.E0,0.E0,0.E0));
#554=DIRECTION('',(0.E0,1.E0,0.E0));
#555=AXIS2_PLACEMENT_3D('',#552,#553,#554);
#556=PLANE('',#555);
#557=ORIENTED_EDGE('',*,*,#518,.F.);
#558=ORIENTED_EDGE('',*,*,#540,.T.);
#559=ORIENTED_EDGE('',*,*,#464,.T.);
#561=ORIENTED_EDGE('',*,*,#560,.F.);
#562=EDGE_LOOP('',(#557,#558,#559,#561));
#563=FACE_OUTER_BOUND('',#562,.F.);
#565=FILL_AREA_STYLE_COLOUR('',#16);
#566=FILL_AREA_STYLE('',(#565));
#567=SURFACE_STYLE_FILL_AREA(#566);
#568=SURFACE_SIDE_STYLE('',(#567));
#569=SURFACE_STYLE_USAGE(.BOTH.,#568);
#570=PRESENTATION_STYLE_ASSIGNMENT((#569));
#571=STYLED_ITEM('',(#570),#564);
#572=CARTESIAN_POINT('',(-2.375984251969E0,-1.492125984252E0,
1.653543307087E-1));
#573=DIRECTION('',(0.E0,1.E0,0.E0));
#574=DIRECTION('',(0.E0,0.E0,1.E0));
#575=AXIS2_PLACEMENT_3D('',#572,#573,#574);
#576=PLANE('',#575);
#577=ORIENTED_EDGE('',*,*,#520,.F.);
#578=ORIENTED_EDGE('',*,*,#560,.T.);
#579=ORIENTED_EDGE('',*,*,#462,.T.);
#580=ORIENTED_EDGE('',*,*,#495,.T.);
#581=EDGE_LOOP('',(#577,#578,#579,#580));
#582=FACE_OUTER_BOUND('',#581,.F.);
#584=FILL_AREA_STYLE_COLOUR('',#16);
#585=FILL_AREA_STYLE('',(#584));
#586=SURFACE_STYLE_FILL_AREA(#585);
#587=SURFACE_SIDE_STYLE('',(#586));
#588=SURFACE_STYLE_USAGE(.BOTH.,#587);
#589=PRESENTATION_STYLE_ASSIGNMENT((#588));
#590=STYLED_ITEM('',(#589),#583);
#591=CARTESIAN_POINT('',(0.E0,0.E0,1.653543307087E-1));
#592=DIRECTION('',(0.E0,0.E0,1.E0));
#593=DIRECTION('',(1.E0,0.E0,0.E0));
#594=AXIS2_PLACEMENT_3D('',#591,#592,#593);
#595=PLANE('',#594);
#596=ORIENTED_EDGE('',*,*,#476,.T.);
#597=ORIENTED_EDGE('',*,*,#474,.T.);
#598=ORIENTED_EDGE('',*,*,#472,.T.);
#599=ORIENTED_EDGE('',*,*,#470,.T.);
#600=EDGE_LOOP('',(#596,#597,#598,#599));
#601=FACE_OUTER_BOUND('',#600,.F.);
#603=ORIENTED_EDGE('',*,*,#602,.T.);
#605=ORIENTED_EDGE('',*,*,#604,.F.);
#607=ORIENTED_EDGE('',*,*,#606,.T.);
#609=ORIENTED_EDGE('',*,*,#608,.T.);
#611=ORIENTED_EDGE('',*,*,#610,.T.);
#613=ORIENTED_EDGE('',*,*,#612,.T.);
#615=ORIENTED_EDGE('',*,*,#614,.T.);
#617=ORIENTED_EDGE('',*,*,#616,.T.);
#618=EDGE_LOOP('',(#603,#605,#607,#609,#611,#613,#615,#617));
#619=FACE_BOUND('',#618,.F.);
#621=ORIENTED_EDGE('',*,*,#620,.T.);
#623=ORIENTED_EDGE('',*,*,#622,.T.);
#625=ORIENTED_EDGE('',*,*,#624,.T.);
#627=ORIENTED_EDGE('',*,*,#626,.T.);
#628=EDGE_LOOP('',(#621,#623,#625,#627));
#629=FACE_BOUND('',#628,.F.);
#631=ORIENTED_EDGE('',*,*,#630,.T.);
#633=ORIENTED_EDGE('',*,*,#632,.T.);
#635=ORIENTED_EDGE('',*,*,#634,.T.);
#637=ORIENTED_EDGE('',*,*,#636,.T.);
#639=ORIENTED_EDGE('',*,*,#638,.T.);
#641=ORIENTED_EDGE('',*,*,#640,.T.);
#643=ORIENTED_EDGE('',*,*,#642,.T.);
#645=ORIENTED_EDGE('',*,*,#644,.F.);
#646=EDGE_LOOP('',(#631,#633,#635,#637,#639,#641,#643,#645));
#647=FACE_BOUND('',#646,.F.);
#649=FILL_AREA_STYLE_COLOUR('',#4);
#650=FILL_AREA_STYLE('',(#649));
#651=SURFACE_STYLE_FILL_AREA(#650);
#652=SURFACE_SIDE_STYLE('',(#651));
#653=SURFACE_STYLE_USAGE(.POSITIVE.,#652);
#654=PRESENTATION_STYLE_ASSIGNMENT((#653));
#655=STYLED_ITEM('',(#654),#648);
#656=CARTESIAN_POINT('',(1.629649214968E0,4.292307848933E-1,1.653543307087E-1));
#657=DIRECTION('',(0.E0,0.E0,1.E0));
#658=DIRECTION('',(1.E0,0.E0,0.E0));
#659=AXIS2_PLACEMENT_3D('',#656,#657,#658);
#660=CYLINDRICAL_SURFACE('',#659,3.700787401575E-2);
#661=ORIENTED_EDGE('',*,*,#602,.F.);
#663=ORIENTED_EDGE('',*,*,#662,.T.);
#665=ORIENTED_EDGE('',*,*,#664,.T.);
#667=ORIENTED_EDGE('',*,*,#666,.F.);
#668=EDGE_LOOP('',(#661,#663,#665,#667));
#669=FACE_OUTER_BOUND('',#668,.F.);
#671=FILL_AREA_STYLE_COLOUR('',#5);
#672=FILL_AREA_STYLE('',(#671));
#673=SURFACE_STYLE_FILL_AREA(#672);
#674=SURFACE_SIDE_STYLE('',(#673));
#675=SURFACE_STYLE_USAGE(.POSITIVE.,#674);
#676=PRESENTATION_STYLE_ASSIGNMENT((#675));
#677=STYLED_ITEM('',(#676),#670);
#678=CARTESIAN_POINT('',(1.642553035950E0,4.662386589091E-1,1.653543307087E-1));
#679=DIRECTION('',(0.E0,1.E0,0.E0));
#680=DIRECTION('',(-1.E0,0.E0,0.E0));
#681=AXIS2_PLACEMENT_3D('',#678,#679,#680);
#682=PLANE('',#681);
#683=ORIENTED_EDGE('',*,*,#616,.F.);
#685=ORIENTED_EDGE('',*,*,#684,.T.);
#687=ORIENTED_EDGE('',*,*,#686,.T.);
#688=ORIENTED_EDGE('',*,*,#662,.F.);
#689=EDGE_LOOP('',(#683,#685,#687,#688));
#690=FACE_OUTER_BOUND('',#689,.F.);
#692=FILL_AREA_STYLE_COLOUR('',#5);
#693=FILL_AREA_STYLE('',(#692));
#694=SURFACE_STYLE_FILL_AREA(#693);
#695=SURFACE_SIDE_STYLE('',(#694));
#696=SURFACE_STYLE_USAGE(.POSITIVE.,#695);
#697=PRESENTATION_STYLE_ASSIGNMENT((#696));
#698=STYLED_ITEM('',(#697),#691);
#699=CARTESIAN_POINT('',(1.642553035950E0,4.199387444516E-1,1.653543307087E-1));
#700=DIRECTION('',(0.E0,0.E0,1.E0));
#701=DIRECTION('',(1.E0,0.E0,0.E0));
#702=AXIS2_PLACEMENT_3D('',#699,#700,#701);
#703=CYLINDRICAL_SURFACE('',#702,4.629991445748E-2);
#704=ORIENTED_EDGE('',*,*,#614,.F.);
#706=ORIENTED_EDGE('',*,*,#705,.T.);
#708=ORIENTED_EDGE('',*,*,#707,.T.);
#709=ORIENTED_EDGE('',*,*,#684,.F.);
#710=EDGE_LOOP('',(#704,#706,#708,#709));
#711=FACE_OUTER_BOUND('',#710,.F.);
#713=FILL_AREA_STYLE_COLOUR('',#5);
#714=FILL_AREA_STYLE('',(#713));
#715=SURFACE_STYLE_FILL_AREA(#714);
#716=SURFACE_SIDE_STYLE('',(#715));
#717=SURFACE_STYLE_USAGE(.POSITIVE.,#716);
#718=PRESENTATION_STYLE_ASSIGNMENT((#717));
#719=STYLED_ITEM('',(#718),#712);
#720=CARTESIAN_POINT('',(1.198949337526E0,5.222239892441E-1,1.653543307087E-1));
#721=DIRECTION('',(0.E0,0.E0,1.E0));
#722=DIRECTION('',(1.E0,0.E0,0.E0));
#723=AXIS2_PLACEMENT_3D('',#720,#721,#722);
#724=CYLINDRICAL_SURFACE('',#723,5.015432697720E-1);
#725=ORIENTED_EDGE('',*,*,#612,.F.);
#727=ORIENTED_EDGE('',*,*,#726,.T.);
#729=ORIENTED_EDGE('',*,*,#728,.T.);
#730=ORIENTED_EDGE('',*,*,#705,.F.);
#731=EDGE_LOOP('',(#725,#727,#729,#730));
#732=FACE_OUTER_BOUND('',#731,.F.);
#734=FILL_AREA_STYLE_COLOUR('',#5);
#735=FILL_AREA_STYLE('',(#734));
#736=SURFACE_STYLE_FILL_AREA(#735);
#737=SURFACE_SIDE_STYLE('',(#736));
#738=SURFACE_STYLE_USAGE(.POSITIVE.,#737);
#739=PRESENTATION_STYLE_ASSIGNMENT((#738));
#740=STYLED_ITEM('',(#739),#733);
#741=CARTESIAN_POINT('',(1.649294963356E0,6.191041826661E-1,1.653543307087E-1));
#742=DIRECTION('',(0.E0,0.E0,1.E0));
#743=DIRECTION('',(1.E0,0.E0,0.E0));
#744=AXIS2_PLACEMENT_3D('',#741,#742,#743);
#745=CYLINDRICAL_SURFACE('',#744,4.089486308700E-2);
#746=ORIENTED_EDGE('',*,*,#610,.F.);
#748=ORIENTED_EDGE('',*,*,#747,.T.);
#750=ORIENTED_EDGE('',*,*,#749,.T.);
#751=ORIENTED_EDGE('',*,*,#726,.F.);
#752=EDGE_LOOP('',(#746,#748,#750,#751));
#753=FACE_OUTER_BOUND('',#752,.F.);
#755=FILL_AREA_STYLE_COLOUR('',#5);
#756=FILL_AREA_STYLE('',(#755));
#757=SURFACE_STYLE_FILL_AREA(#756);
#758=SURFACE_SIDE_STYLE('',(#757));
#759=SURFACE_STYLE_USAGE(.POSITIVE.,#758);
#760=PRESENTATION_STYLE_ASSIGNMENT((#759));
#761=STYLED_ITEM('',(#760),#754);
#762=CARTESIAN_POINT('',(1.629649214968E0,5.782093195791E-1,1.653543307087E-1));
#763=DIRECTION('',(0.E0,-1.E0,0.E0));
#764=DIRECTION('',(1.E0,0.E0,0.E0));
#765=AXIS2_PLACEMENT_3D('',#762,#763,#764);
#766=PLANE('',#765);
#767=ORIENTED_EDGE('',*,*,#608,.F.);
#769=ORIENTED_EDGE('',*,*,#768,.T.);
#771=ORIENTED_EDGE('',*,*,#770,.T.);
#772=ORIENTED_EDGE('',*,*,#747,.F.);
#773=EDGE_LOOP('',(#767,#769,#771,#772));
#774=FACE_OUTER_BOUND('',#773,.F.);
#776=FILL_AREA_STYLE_COLOUR('',#5);
#777=FILL_AREA_STYLE('',(#776));
#778=SURFACE_STYLE_FILL_AREA(#777);
#779=SURFACE_SIDE_STYLE('',(#778));
#780=SURFACE_STYLE_USAGE(.POSITIVE.,#779);
#781=PRESENTATION_STYLE_ASSIGNMENT((#780));
#782=STYLED_ITEM('',(#781),#775);
#783=CARTESIAN_POINT('',(1.629649214968E0,6.152171935949E-1,1.653543307087E-1));
#784=DIRECTION('',(0.E0,0.E0,1.E0));
#785=DIRECTION('',(1.E0,0.E0,0.E0));
#786=AXIS2_PLACEMENT_3D('',#783,#784,#785);
#787=CYLINDRICAL_SURFACE('',#786,3.700787401573E-2);
#788=ORIENTED_EDGE('',*,*,#606,.F.);
#790=ORIENTED_EDGE('',*,*,#789,.T.);
#792=ORIENTED_EDGE('',*,*,#791,.T.);
#793=ORIENTED_EDGE('',*,*,#768,.F.);
#794=EDGE_LOOP('',(#788,#790,#792,#793));
#795=FACE_OUTER_BOUND('',#794,.F.);
#797=FILL_AREA_STYLE_COLOUR('',#5);
#798=FILL_AREA_STYLE('',(#797));
#799=SURFACE_STYLE_FILL_AREA(#798);
#800=SURFACE_SIDE_STYLE('',(#799));
#801=SURFACE_STYLE_USAGE(.POSITIVE.,#800);
#802=PRESENTATION_STYLE_ASSIGNMENT((#801));
#803=STYLED_ITEM('',(#802),#796);
#804=CARTESIAN_POINT('',(1.198949337526E0,5.222239892441E-1,1.653543307087E-1));
#805=DIRECTION('',(0.E0,0.E0,1.E0));
#806=DIRECTION('',(1.E0,0.E0,0.E0));
#807=AXIS2_PLACEMENT_3D('',#804,#805,#806);
#808=CYLINDRICAL_SURFACE('',#807,4.036168194409E-1);
#809=ORIENTED_EDGE('',*,*,#604,.T.);
#810=ORIENTED_EDGE('',*,*,#666,.T.);
#812=ORIENTED_EDGE('',*,*,#811,.T.);
#813=ORIENTED_EDGE('',*,*,#789,.F.);
#814=EDGE_LOOP('',(#809,#810,#812,#813));
#815=FACE_OUTER_BOUND('',#814,.F.);
#817=FILL_AREA_STYLE_COLOUR('',#5);
#818=FILL_AREA_STYLE('',(#817));
#819=SURFACE_STYLE_FILL_AREA(#818);
#820=SURFACE_SIDE_STYLE('',(#819));
#821=SURFACE_STYLE_USAGE(.POSITIVE.,#820);
#822=PRESENTATION_STYLE_ASSIGNMENT((#821));
#823=STYLED_ITEM('',(#822),#816);
#824=CARTESIAN_POINT('',(0.E0,0.E0,2.047244094488E-1));
#825=DIRECTION('',(0.E0,0.E0,1.E0));
#826=DIRECTION('',(1.E0,0.E0,0.E0));
#827=AXIS2_PLACEMENT_3D('',#824,#825,#826);
#828=PLANE('',#827);
#829=ORIENTED_EDGE('',*,*,#664,.F.);
#830=ORIENTED_EDGE('',*,*,#686,.F.);
#831=ORIENTED_EDGE('',*,*,#707,.F.);
#832=ORIENTED_EDGE('',*,*,#728,.F.);
#833=ORIENTED_EDGE('',*,*,#749,.F.);
#834=ORIENTED_EDGE('',*,*,#770,.F.);
#835=ORIENTED_EDGE('',*,*,#791,.F.);
#836=ORIENTED_EDGE('',*,*,#811,.F.);
#837=EDGE_LOOP('',(#829,#830,#831,#832,#833,#834,#835,#836));
#838=FACE_OUTER_BOUND('',#837,.F.);
#840=FILL_AREA_STYLE_COLOUR('',#5);
#841=FILL_AREA_STYLE('',(#840));
#842=SURFACE_STYLE_FILL_AREA(#841);
#843=SURFACE_SIDE_STYLE('',(#842));
#844=SURFACE_STYLE_USAGE(.POSITIVE.,#843);
#845=PRESENTATION_STYLE_ASSIGNMENT((#844));
#846=STYLED_ITEM('',(#845),#839);
#847=CARTESIAN_POINT('',(0.E0,0.E0,2.047244094488E-1));
#848=DIRECTION('',(0.E0,0.E0,1.E0));
#849=DIRECTION('',(1.E0,0.E0,0.E0));
#850=AXIS2_PLACEMENT_3D('',#847,#848,#849);
#851=PLANE('',#850);
#853=ORIENTED_EDGE('',*,*,#852,.F.);
#855=ORIENTED_EDGE('',*,*,#854,.F.);
#857=ORIENTED_EDGE('',*,*,#856,.F.);
#859=ORIENTED_EDGE('',*,*,#858,.F.);
#860=EDGE_LOOP('',(#853,#855,#857,#859));
#861=FACE_OUTER_BOUND('',#860,.F.);
#863=FILL_AREA_STYLE_COLOUR('',#5);
#864=FILL_AREA_STYLE('',(#863));
#865=SURFACE_STYLE_FILL_AREA(#864);
#866=SURFACE_SIDE_STYLE('',(#865));
#867=SURFACE_STYLE_USAGE(.POSITIVE.,#866);
#868=PRESENTATION_STYLE_ASSIGNMENT((#867));
#869=STYLED_ITEM('',(#868),#862);
#870=CARTESIAN_POINT('',(0.E0,0.E0,2.047244094488E-1));
#871=DIRECTION('',(0.E0,0.E0,1.E0));
#872=DIRECTION('',(1.E0,0.E0,0.E0));
#873=AXIS2_PLACEMENT_3D('',#870,#871,#872);
#874=PLANE('',#873);
#876=ORIENTED_EDGE('',*,*,#875,.F.);
#878=ORIENTED_EDGE('',*,*,#877,.F.);
#880=ORIENTED_EDGE('',*,*,#879,.F.);
#882=ORIENTED_EDGE('',*,*,#881,.F.);
#884=ORIENTED_EDGE('',*,*,#883,.F.);
#886=ORIENTED_EDGE('',*,*,#885,.F.);
#888=ORIENTED_EDGE('',*,*,#887,.F.);
#890=ORIENTED_EDGE('',*,*,#889,.F.);
#891=EDGE_LOOP('',(#876,#878,#880,#882,#884,#886,#888,#890));
#892=FACE_OUTER_BOUND('',#891,.F.);
#894=FILL_AREA_STYLE_COLOUR('',#5);
#895=FILL_AREA_STYLE('',(#894));
#896=SURFACE_STYLE_FILL_AREA(#895);
#897=SURFACE_SIDE_STYLE('',(#896));
#898=SURFACE_STYLE_USAGE(.POSITIVE.,#897);
#899=PRESENTATION_STYLE_ASSIGNMENT((#898));
#900=STYLED_ITEM('',(#899),#893);
#901=CARTESIAN_POINT('',(7.466235077463E-1,-4.530954984043E-1,
1.653543307087E-1));
#902=DIRECTION('',(0.E0,0.E0,1.E0));
#903=DIRECTION('',(1.E0,0.E0,0.E0));
#904=AXIS2_PLACEMENT_3D('',#901,#902,#903);
#905=CYLINDRICAL_SURFACE('',#904,3.937007874016E-2);
#906=ORIENTED_EDGE('',*,*,#620,.F.);
#908=ORIENTED_EDGE('',*,*,#907,.T.);
#909=ORIENTED_EDGE('',*,*,#852,.T.);
#911=ORIENTED_EDGE('',*,*,#910,.F.);
#912=EDGE_LOOP('',(#906,#908,#909,#911));
#913=FACE_OUTER_BOUND('',#912,.F.);
#915=FILL_AREA_STYLE_COLOUR('',#5);
#916=FILL_AREA_STYLE('',(#915));
#917=SURFACE_STYLE_FILL_AREA(#916);
#918=SURFACE_SIDE_STYLE('',(#917));
#919=SURFACE_STYLE_USAGE(.POSITIVE.,#918);
#920=PRESENTATION_STYLE_ASSIGNMENT((#919));
#921=STYLED_ITEM('',(#920),#914);
#922=CARTESIAN_POINT('',(0.E0,-3.477384092019E-2,1.653543307087E-1));
#923=DIRECTION('',(0.E0,0.E0,1.E0));
#924=DIRECTION('',(1.E0,0.E0,0.E0));
#925=AXIS2_PLACEMENT_3D('',#922,#923,#924);
#926=CYLINDRICAL_SURFACE('',#925,8.951969721244E-1);
#927=ORIENTED_EDGE('',*,*,#626,.F.);
#929=ORIENTED_EDGE('',*,*,#928,.T.);
#930=ORIENTED_EDGE('',*,*,#854,.T.);
#931=ORIENTED_EDGE('',*,*,#907,.F.);
#932=EDGE_LOOP('',(#927,#929,#930,#931));
#933=FACE_OUTER_BOUND('',#932,.F.);
#935=FILL_AREA_STYLE_COLOUR('',#5);
#936=FILL_AREA_STYLE('',(#935));
#937=SURFACE_STYLE_FILL_AREA(#936);
#938=SURFACE_SIDE_STYLE('',(#937));
#939=SURFACE_STYLE_USAGE(.POSITIVE.,#938);
#940=PRESENTATION_STYLE_ASSIGNMENT((#939));
#941=STYLED_ITEM('',(#940),#934);
#942=CARTESIAN_POINT('',(-7.466235077463E-1,-4.530954984043E-1,
1.653543307087E-1));
#943=DIRECTION('',(0.E0,0.E0,1.E0));
#944=DIRECTION('',(1.E0,0.E0,0.E0));
#945=AXIS2_PLACEMENT_3D('',#942,#943,#944);
#946=CYLINDRICAL_SURFACE('',#945,3.937007874016E-2);
#947=ORIENTED_EDGE('',*,*,#624,.F.);
#949=ORIENTED_EDGE('',*,*,#948,.T.);
#950=ORIENTED_EDGE('',*,*,#856,.T.);
#951=ORIENTED_EDGE('',*,*,#928,.F.);
#952=EDGE_LOOP('',(#947,#949,#950,#951));
#953=FACE_OUTER_BOUND('',#952,.F.);
#955=FILL_AREA_STYLE_COLOUR('',#5);
#956=FILL_AREA_STYLE('',(#955));
#957=SURFACE_STYLE_FILL_AREA(#956);
#958=SURFACE_SIDE_STYLE('',(#957));
#959=SURFACE_STYLE_USAGE(.POSITIVE.,#958);
#960=PRESENTATION_STYLE_ASSIGNMENT((#959));
#961=STYLED_ITEM('',(#960),#954);
#962=CARTESIAN_POINT('',(7.466235077463E-1,-4.137254196642E-1,
1.653543307087E-1));
#963=DIRECTION('',(0.E0,1.E0,0.E0));
#964=DIRECTION('',(-1.E0,0.E0,0.E0));
#965=AXIS2_PLACEMENT_3D('',#962,#963,#964);
#966=PLANE('',#965);
#967=ORIENTED_EDGE('',*,*,#622,.F.);
#968=ORIENTED_EDGE('',*,*,#910,.T.);
#969=ORIENTED_EDGE('',*,*,#858,.T.);
#970=ORIENTED_EDGE('',*,*,#948,.F.);
#971=EDGE_LOOP('',(#967,#968,#969,#970));
#972=FACE_OUTER_BOUND('',#971,.F.);
#974=FILL_AREA_STYLE_COLOUR('',#5);
#975=FILL_AREA_STYLE('',(#974));
#976=SURFACE_STYLE_FILL_AREA(#975);
#977=SURFACE_SIDE_STYLE('',(#976));
#978=SURFACE_STYLE_USAGE(.POSITIVE.,#977);
#979=PRESENTATION_STYLE_ASSIGNMENT((#978));
#980=STYLED_ITEM('',(#979),#973);
#981=CARTESIAN_POINT('',(-1.629649214968E0,4.292307848933E-1,
1.653543307087E-1));
#982=DIRECTION('',(0.E0,0.E0,1.E0));
#983=DIRECTION('',(1.E0,0.E0,0.E0));
#984=AXIS2_PLACEMENT_3D('',#981,#982,#983);
#985=CYLINDRICAL_SURFACE('',#984,3.700787401575E-2);
#986=ORIENTED_EDGE('',*,*,#630,.F.);
#988=ORIENTED_EDGE('',*,*,#987,.T.);
#989=ORIENTED_EDGE('',*,*,#875,.T.);
#991=ORIENTED_EDGE('',*,*,#990,.F.);
#992=EDGE_LOOP('',(#986,#988,#989,#991));
#993=FACE_OUTER_BOUND('',#992,.F.);
#995=FILL_AREA_STYLE_COLOUR('',#5);
#996=FILL_AREA_STYLE('',(#995));
#997=SURFACE_STYLE_FILL_AREA(#996);
#998=SURFACE_SIDE_STYLE('',(#997));
#999=SURFACE_STYLE_USAGE(.POSITIVE.,#998);
#1000=PRESENTATION_STYLE_ASSIGNMENT((#999));
#1001=STYLED_ITEM('',(#1000),#994);
#1002=CARTESIAN_POINT('',(-1.198949337526E0,5.222239892441E-1,
1.653543307087E-1));
#1003=DIRECTION('',(0.E0,0.E0,1.E0));
#1004=DIRECTION('',(1.E0,0.E0,0.E0));
#1005=AXIS2_PLACEMENT_3D('',#1002,#1003,#1004);
#1006=CYLINDRICAL_SURFACE('',#1005,4.036168194409E-1);
#1007=ORIENTED_EDGE('',*,*,#644,.T.);
#1009=ORIENTED_EDGE('',*,*,#1008,.T.);
#1010=ORIENTED_EDGE('',*,*,#877,.T.);
#1011=ORIENTED_EDGE('',*,*,#987,.F.);
#1012=EDGE_LOOP('',(#1007,#1009,#1010,#1011));
#1013=FACE_OUTER_BOUND('',#1012,.F.);
#1015=FILL_AREA_STYLE_COLOUR('',#5);
#1016=FILL_AREA_STYLE('',(#1015));
#1017=SURFACE_STYLE_FILL_AREA(#1016);
#1018=SURFACE_SIDE_STYLE('',(#1017));
#1019=SURFACE_STYLE_USAGE(.POSITIVE.,#1018);
#1020=PRESENTATION_STYLE_ASSIGNMENT((#1019));
#1021=STYLED_ITEM('',(#1020),#1014);
#1022=CARTESIAN_POINT('',(-1.629649214968E0,6.152171935949E-1,
1.653543307087E-1));
#1023=DIRECTION('',(0.E0,0.E0,1.E0));
#1024=DIRECTION('',(1.E0,0.E0,0.E0));
#1025=AXIS2_PLACEMENT_3D('',#1022,#1023,#1024);
#1026=CYLINDRICAL_SURFACE('',#1025,3.700787401575E-2);
#1027=ORIENTED_EDGE('',*,*,#642,.F.);
#1029=ORIENTED_EDGE('',*,*,#1028,.T.);
#1030=ORIENTED_EDGE('',*,*,#879,.T.);
#1031=ORIENTED_EDGE('',*,*,#1008,.F.);
#1032=EDGE_LOOP('',(#1027,#1029,#1030,#1031));
#1033=FACE_OUTER_BOUND('',#1032,.F.);
#1035=FILL_AREA_STYLE_COLOUR('',#5);
#1036=FILL_AREA_STYLE('',(#1035));
#1037=SURFACE_STYLE_FILL_AREA(#1036);
#1038=SURFACE_SIDE_STYLE('',(#1037));
#1039=SURFACE_STYLE_USAGE(.POSITIVE.,#1038);
#1040=PRESENTATION_STYLE_ASSIGNMENT((#1039));
#1041=STYLED_ITEM('',(#1040),#1034);
#1042=CARTESIAN_POINT('',(-1.649294963356E0,5.782093195791E-1,
1.653543307087E-1));
#1043=DIRECTION('',(0.E0,-1.E0,0.E0));
#1044=DIRECTION('',(1.E0,0.E0,0.E0));
#1045=AXIS2_PLACEMENT_3D('',#1042,#1043,#1044);
#1046=PLANE('',#1045);
#1047=ORIENTED_EDGE('',*,*,#640,.F.);
#1049=ORIENTED_EDGE('',*,*,#1048,.T.);
#1050=ORIENTED_EDGE('',*,*,#881,.T.);
#1051=ORIENTED_EDGE('',*,*,#1028,.F.);
#1052=EDGE_LOOP('',(#1047,#1049,#1050,#1051));
#1053=FACE_OUTER_BOUND('',#1052,.F.);
#1055=FILL_AREA_STYLE_COLOUR('',#5);
#1056=FILL_AREA_STYLE('',(#1055));
#1057=SURFACE_STYLE_FILL_AREA(#1056);
#1058=SURFACE_SIDE_STYLE('',(#1057));
#1059=SURFACE_STYLE_USAGE(.POSITIVE.,#1058);
#1060=PRESENTATION_STYLE_ASSIGNMENT((#1059));
#1061=STYLED_ITEM('',(#1060),#1054);
#1062=CARTESIAN_POINT('',(-1.649294963356E0,6.191041826661E-1,
1.653543307087E-1));
#1063=DIRECTION('',(0.E0,0.E0,1.E0));
#1064=DIRECTION('',(1.E0,0.E0,0.E0));
#1065=AXIS2_PLACEMENT_3D('',#1062,#1063,#1064);
#1066=CYLINDRICAL_SURFACE('',#1065,4.089486308701E-2);
#1067=ORIENTED_EDGE('',*,*,#638,.F.);
#1069=ORIENTED_EDGE('',*,*,#1068,.T.);
#1070=ORIENTED_EDGE('',*,*,#883,.T.);
#1071=ORIENTED_EDGE('',*,*,#1048,.F.);
#1072=EDGE_LOOP('',(#1067,#1069,#1070,#1071));
#1073=FACE_OUTER_BOUND('',#1072,.F.);
#1075=FILL_AREA_STYLE_COLOUR('',#5);
#1076=FILL_AREA_STYLE('',(#1075));
#1077=SURFACE_STYLE_FILL_AREA(#1076);
#1078=SURFACE_SIDE_STYLE('',(#1077));
#1079=SURFACE_STYLE_USAGE(.POSITIVE.,#1078);
#1080=PRESENTATION_STYLE_ASSIGNMENT((#1079));
#1081=STYLED_ITEM('',(#1080),#1074);
#1082=CARTESIAN_POINT('',(-1.198949337526E0,5.222239892441E-1,
1.653543307087E-1));
#1083=DIRECTION('',(0.E0,0.E0,1.E0));
#1084=DIRECTION('',(1.E0,0.E0,0.E0));
#1085=AXIS2_PLACEMENT_3D('',#1082,#1083,#1084);
#1086=CYLINDRICAL_SURFACE('',#1085,5.015432697720E-1);
#1087=ORIENTED_EDGE('',*,*,#636,.F.);
#1089=ORIENTED_EDGE('',*,*,#1088,.T.);
#1090=ORIENTED_EDGE('',*,*,#885,.T.);
#1091=ORIENTED_EDGE('',*,*,#1068,.F.);
#1092=EDGE_LOOP('',(#1087,#1089,#1090,#1091));
#1093=FACE_OUTER_BOUND('',#1092,.F.);
#1095=FILL_AREA_STYLE_COLOUR('',#5);
#1096=FILL_AREA_STYLE('',(#1095));
#1097=SURFACE_STYLE_FILL_AREA(#1096);
#1098=SURFACE_SIDE_STYLE('',(#1097));
#1099=SURFACE_STYLE_USAGE(.POSITIVE.,#1098);
#1100=PRESENTATION_STYLE_ASSIGNMENT((#1099));
#1101=STYLED_ITEM('',(#1100),#1094);
#1102=CARTESIAN_POINT('',(-1.642553035950E0,4.199387444516E-1,
1.653543307087E-1));
#1103=DIRECTION('',(0.E0,0.E0,1.E0));
#1104=DIRECTION('',(1.E0,0.E0,0.E0));
#1105=AXIS2_PLACEMENT_3D('',#1102,#1103,#1104);
#1106=CYLINDRICAL_SURFACE('',#1105,4.629991445748E-2);
#1107=ORIENTED_EDGE('',*,*,#634,.F.);
#1109=ORIENTED_EDGE('',*,*,#1108,.T.);
#1110=ORIENTED_EDGE('',*,*,#887,.T.);
#1111=ORIENTED_EDGE('',*,*,#1088,.F.);
#1112=EDGE_LOOP('',(#1107,#1109,#1110,#1111));
#1113=FACE_OUTER_BOUND('',#1112,.F.);
#1115=FILL_AREA_STYLE_COLOUR('',#5);
#1116=FILL_AREA_STYLE('',(#1115));
#1117=SURFACE_STYLE_FILL_AREA(#1116);
#1118=SURFACE_SIDE_STYLE('',(#1117));
#1119=SURFACE_STYLE_USAGE(.POSITIVE.,#1118);
#1120=PRESENTATION_STYLE_ASSIGNMENT((#1119));
#1121=STYLED_ITEM('',(#1120),#1114);
#1122=CARTESIAN_POINT('',(-1.629649214968E0,4.662386589091E-1,
1.653543307087E-1));
#1123=DIRECTION('',(0.E0,1.E0,0.E0));
#1124=DIRECTION('',(-1.E0,0.E0,0.E0));
#1125=AXIS2_PLACEMENT_3D('',#1122,#1123,#1124);
#1126=PLANE('',#1125);
#1127=ORIENTED_EDGE('',*,*,#632,.F.);
#1128=ORIENTED_EDGE('',*,*,#990,.T.);
#1129=ORIENTED_EDGE('',*,*,#889,.T.);
#1130=ORIENTED_EDGE('',*,*,#1108,.F.);
#1131=EDGE_LOOP('',(#1127,#1128,#1129,#1130));
#1132=FACE_OUTER_BOUND('',#1131,.F.);
#1134=FILL_AREA_STYLE_COLOUR('',#5);
#1135=FILL_AREA_STYLE('',(#1134));
#1136=SURFACE_STYLE_FILL_AREA(#1135);
#1137=SURFACE_SIDE_STYLE('',(#1136));
#1138=SURFACE_STYLE_USAGE(.POSITIVE.,#1137);
#1139=PRESENTATION_STYLE_ASSIGNMENT((#1138));
#1140=STYLED_ITEM('',(#1139),#1133);
#1143=PRESENTATION_LAYER_ASSIGNMENT('SHELL_377','',(#480,#502,#524,#544,#564,
#583,#648,#670,#691,#712,#733,#754,#775,#796,#816,#839,#862,#893,#914,#934,#954,
#973,#994,#1014,#1034,#1054,#1074,#1094,#1114,#1133,#1142));
#1145=LENGTH_MEASURE_WITH_UNIT(LENGTH_MEASURE(2.54E1),#1144);
#1146=(CONVERSION_BASED_UNIT('INCH',#1145)LENGTH_UNIT()NAMED_UNIT(*));
#1148=PLANE_ANGLE_MEASURE_WITH_UNIT(PLANE_ANGLE_MEASURE(1.745329251994E-2),
#1147);
#1149=(CONVERSION_BASED_UNIT('DEGREE',#1148)NAMED_UNIT(*)PLANE_ANGLE_UNIT());
#1151=UNCERTAINTY_MEASURE_WITH_UNIT(LENGTH_MEASURE(1.102474662876E-4),#1146,
'closure',
'Maximum model space distance between geometric entities at asserted connectivities');
#1153=CARTESIAN_POINT('',(0.E0,0.E0,0.E0));
#1154=DIRECTION('',(0.E0,0.E0,1.E0));
#1155=DIRECTION('',(1.E0,0.E0,0.E0));
#1158=MECHANICAL_DESIGN_GEOMETRIC_PRESENTATION_REPRESENTATION('',(#487,#509,
#531,#551,#571,#590,#655,#677,#698,#719,#740,#761,#782,#803,#823,#846,#869,#900,
#921,#941,#961,#980,#1001,#1021,#1041,#1061,#1081,#1101,#1121,#1140),#1152);
#1159=APPLICATION_CONTEXT('automotive design');
#1160=APPLICATION_PROTOCOL_DEFINITION('international standard',
'config_control_design',1994,#1159);
#1161=PRODUCT_DEFINITION_CONTEXT('',#1159,'design');
#1162=PRODUCT_CONTEXT('',#1159,'mechanical');
#1163=PRODUCT('_4120001','_4120001','NOT SPECIFIED',(#1162));
#1164=PRODUCT_DEFINITION_FORMATION_WITH_SPECIFIED_SOURCE('1','LAST_VERSION',
#1163,.MADE.);
#1172=LENGTH_MEASURE_WITH_UNIT(LENGTH_MEASURE(2.54E1),#1171);
#1173=(CONVERSION_BASED_UNIT('INCH',#1172)LENGTH_UNIT()NAMED_UNIT(*));
#1174=DERIVED_UNIT_ELEMENT(#1173,2.E0);
#1175=AREA_UNIT((#1174));
#1176=MEASURE_REPRESENTATION_ITEM('surface area measure',AREA_MEASURE(
2.032273294227E-2),#1175);
#1181=LENGTH_MEASURE_WITH_UNIT(LENGTH_MEASURE(2.54E1),#1180);
#1182=(CONVERSION_BASED_UNIT('INCH',#1181)LENGTH_UNIT()NAMED_UNIT(*));
#1183=DERIVED_UNIT_ELEMENT(#1182,3.E0);
#1184=VOLUME_UNIT((#1183));
#1185=MEASURE_REPRESENTATION_ITEM('volume measure',VOLUME_MEASURE(
3.915569134013E-5),#1184);
#1189=CARTESIAN_POINT('centre point',(1.817373549098E-12,-4.102057534216E-5,
2.148449209277E-3));
#1194=LENGTH_MEASURE_WITH_UNIT(LENGTH_MEASURE(2.54E1),#1193);
#1195=(CONVERSION_BASED_UNIT('INCH',#1194)LENGTH_UNIT()NAMED_UNIT(*));
#1196=DERIVED_UNIT_ELEMENT(#1195,2.E0);
#1197=AREA_UNIT((#1196));
#1198=MEASURE_REPRESENTATION_ITEM('surface area measure',AREA_MEASURE(
2.032273294227E-2),#1197);
#1203=LENGTH_MEASURE_WITH_UNIT(LENGTH_MEASURE(2.54E1),#1202);
#1204=(CONVERSION_BASED_UNIT('INCH',#1203)LENGTH_UNIT()NAMED_UNIT(*));
#1205=DERIVED_UNIT_ELEMENT(#1204,3.E0);
#1206=VOLUME_UNIT((#1205));
#1207=MEASURE_REPRESENTATION_ITEM('volume measure',VOLUME_MEASURE(
3.915569134013E-5),#1206);
#1211=CARTESIAN_POINT('centre point',(1.817373549098E-12,-4.102057534216E-5,
2.148449209277E-3));
#1=DRAUGHTING_PRE_DEFINED_COLOUR('black');
#2=DRAUGHTING_PRE_DEFINED_COLOUR('green');
#3=COLOUR_RGB('',1.1E-2,1.2E-2,1.E0);
#4=COLOUR_RGB('',2.352941176471E-1,2.352941176471E-1,2.352941176471E-1);
#5=COLOUR_RGB('',3.815597173994E-1,7.4902E-1,7.349915297734E-1);
#6=COLOUR_RGB('',4.1E-1,2.61589E-1,1.12848E-1);
#7=COLOUR_RGB('',5.04854E-1,1.5455E-2,1.5455E-2);
#8=COLOUR_RGB('',6.35294E-1,6.86275E-1,7.4902E-1);
#9=COLOUR_RGB('',6.40777E-1,6.40777E-1,6.40777E-1);
#10=COLOUR_RGB('',6.69062E-1,6.69903E-1,6.55217E-1);
#11=COLOUR_RGB('',9.21569E-1,7.05882E-1,4.70588E-1);
#12=DRAUGHTING_PRE_DEFINED_COLOUR('red');
#13=DRAUGHTING_PRE_DEFINED_COLOUR('yellow');
#14=COLOUR_RGB('',1.E0,1.E0,5.3E-1);
#15=COLOUR_RGB('',1.E0,1.E0,9.49E-1);
#16=DRAUGHTING_PRE_DEFINED_COLOUR('white');
#85=CIRCLE('',#84,3.700787401575E-2);
#90=CIRCLE('',#89,4.036168194409E-1);
#95=CIRCLE('',#94,3.700787401573E-2);
#104=CIRCLE('',#103,4.089486308700E-2);
#109=CIRCLE('',#108,5.015432697720E-1);
#114=CIRCLE('',#113,4.629991445748E-2);
#123=CIRCLE('',#122,3.937007874016E-2);
#132=CIRCLE('',#131,3.937007874016E-2);
#137=CIRCLE('',#136,8.951969721244E-1);
#142=CIRCLE('',#141,3.700787401575E-2);
#151=CIRCLE('',#150,4.629991445748E-2);
#156=CIRCLE('',#155,5.015432697720E-1);
#161=CIRCLE('',#160,4.089486308701E-2);
#170=CIRCLE('',#169,3.700787401575E-2);
#175=CIRCLE('',#174,4.036168194409E-1);
#212=CIRCLE('',#211,3.700787401575E-2);
#221=CIRCLE('',#220,4.629991445748E-2);
#226=CIRCLE('',#225,5.015432697720E-1);
#231=CIRCLE('',#230,4.089486308700E-2);
#240=CIRCLE('',#239,3.700787401573E-2);
#245=CIRCLE('',#244,4.036168194409E-1);
#250=CIRCLE('',#249,3.937007874016E-2);
#255=CIRCLE('',#254,8.951969721244E-1);
#260=CIRCLE('',#259,3.937007874016E-2);
#269=CIRCLE('',#268,3.700787401575E-2);
#274=CIRCLE('',#273,4.036168194409E-1);
#279=CIRCLE('',#278,3.700787401575E-2);
#288=CIRCLE('',#287,4.089486308701E-2);
#293=CIRCLE('',#292,5.015432697720E-1);
#298=CIRCLE('',#297,4.629991445748E-2);
#460=EDGE_CURVE('',#368,#359,#20,.T.);
#462=EDGE_CURVE('',#366,#368,#24,.T.);
#464=EDGE_CURVE('',#360,#366,#28,.T.);
#466=EDGE_CURVE('',#359,#360,#32,.T.);
#470=EDGE_CURVE('',#356,#353,#36,.T.);
#472=EDGE_CURVE('',#374,#356,#40,.T.);
#474=EDGE_CURVE('',#354,#374,#44,.T.);
#476=EDGE_CURVE('',#353,#354,#48,.T.);
#480=ADVANCED_FACE('',(#469,#479),#459,.T.);
#493=EDGE_CURVE('',#372,#362,#52,.T.);
#495=EDGE_CURVE('',#368,#372,#56,.T.);
#498=EDGE_CURVE('',#362,#359,#60,.T.);
#502=ADVANCED_FACE('',(#501),#492,.F.);
#516=EDGE_CURVE('',#362,#364,#64,.T.);
#518=EDGE_CURVE('',#364,#371,#72,.T.);
#520=EDGE_CURVE('',#371,#372,#80,.T.);
#524=ADVANCED_FACE('',(#523),#514,.F.);
#540=EDGE_CURVE('',#364,#360,#68,.T.);
#544=ADVANCED_FACE('',(#543),#536,.F.);
#560=EDGE_CURVE('',#371,#366,#76,.T.);
#564=ADVANCED_FACE('',(#563),#556,.F.);
#583=ADVANCED_FACE('',(#582),#576,.F.);
#602=EDGE_CURVE('',#417,#418,#85,.T.);
#604=EDGE_CURVE('',#420,#418,#90,.T.);
#606=EDGE_CURVE('',#420,#422,#95,.T.);
#608=EDGE_CURVE('',#422,#424,#99,.T.);
#610=EDGE_CURVE('',#424,#426,#104,.T.);
#612=EDGE_CURVE('',#426,#428,#109,.T.);
#614=EDGE_CURVE('',#428,#430,#114,.T.);
#616=EDGE_CURVE('',#430,#417,#118,.T.);
#620=EDGE_CURVE('',#433,#434,#123,.T.);
#622=EDGE_CURVE('',#434,#436,#127,.T.);
#624=EDGE_CURVE('',#436,#438,#132,.T.);
#626=EDGE_CURVE('',#438,#433,#137,.T.);
#630=EDGE_CURVE('',#441,#442,#142,.T.);
#632=EDGE_CURVE('',#442,#444,#146,.T.);
#634=EDGE_CURVE('',#444,#446,#151,.T.);
#636=EDGE_CURVE('',#446,#448,#156,.T.);
#638=EDGE_CURVE('',#448,#450,#161,.T.);
#640=EDGE_CURVE('',#450,#452,#165,.T.);
#642=EDGE_CURVE('',#452,#454,#170,.T.);
#644=EDGE_CURVE('',#441,#454,#175,.T.);
#648=ADVANCED_FACE('',(#601,#619,#629,#647),#595,.T.);
#662=EDGE_CURVE('',#417,#377,#179,.T.);
#664=EDGE_CURVE('',#377,#378,#212,.T.);
#666=EDGE_CURVE('',#418,#378,#207,.T.);
#670=ADVANCED_FACE('',(#669),#660,.T.);
#684=EDGE_CURVE('',#430,#390,#183,.T.);
#686=EDGE_CURVE('',#390,#377,#216,.T.);
#691=ADVANCED_FACE('',(#690),#682,.T.);
#705=EDGE_CURVE('',#428,#388,#187,.T.);
#707=EDGE_CURVE('',#388,#390,#221,.T.);
#712=ADVANCED_FACE('',(#711),#703,.T.);
#726=EDGE_CURVE('',#426,#386,#191,.T.);
#728=EDGE_CURVE('',#386,#388,#226,.T.);
#733=ADVANCED_FACE('',(#732),#724,.T.);
#747=EDGE_CURVE('',#424,#384,#195,.T.);
#749=EDGE_CURVE('',#384,#386,#231,.T.);
#754=ADVANCED_FACE('',(#753),#745,.T.);
#768=EDGE_CURVE('',#422,#382,#199,.T.);
#770=EDGE_CURVE('',#382,#384,#235,.T.);
#775=ADVANCED_FACE('',(#774),#766,.T.);
#789=EDGE_CURVE('',#420,#380,#203,.T.);
#791=EDGE_CURVE('',#380,#382,#240,.T.);
#796=ADVANCED_FACE('',(#795),#787,.T.);
#811=EDGE_CURVE('',#378,#380,#245,.T.);
#816=ADVANCED_FACE('',(#815),#808,.F.);
#839=ADVANCED_FACE('',(#838),#828,.T.);
#852=EDGE_CURVE('',#393,#394,#250,.T.);
#854=EDGE_CURVE('',#398,#393,#255,.T.);
#856=EDGE_CURVE('',#396,#398,#260,.T.);
#858=EDGE_CURVE('',#394,#396,#264,.T.);
#862=ADVANCED_FACE('',(#861),#851,.T.);
#875=EDGE_CURVE('',#401,#402,#269,.T.);
#877=EDGE_CURVE('',#414,#401,#274,.T.);
#879=EDGE_CURVE('',#412,#414,#279,.T.);
#881=EDGE_CURVE('',#410,#412,#283,.T.);
#883=EDGE_CURVE('',#408,#410,#288,.T.);
#885=EDGE_CURVE('',#406,#408,#293,.T.);
#887=EDGE_CURVE('',#404,#406,#298,.T.);
#889=EDGE_CURVE('',#402,#404,#302,.T.);
#893=ADVANCED_FACE('',(#892),#874,.T.);
#907=EDGE_CURVE('',#433,#393,#306,.T.);
#910=EDGE_CURVE('',#434,#394,#318,.T.);
#914=ADVANCED_FACE('',(#913),#905,.T.);
#928=EDGE_CURVE('',#438,#398,#310,.T.);
#934=ADVANCED_FACE('',(#933),#926,.T.);
#948=EDGE_CURVE('',#436,#396,#314,.T.);
#954=ADVANCED_FACE('',(#953),#946,.T.);
#973=ADVANCED_FACE('',(#972),#966,.T.);
#987=EDGE_CURVE('',#441,#401,#322,.T.);
#990=EDGE_CURVE('',#442,#402,#350,.T.);
#994=ADVANCED_FACE('',(#993),#985,.T.);
#1008=EDGE_CURVE('',#454,#414,#326,.T.);
#1014=ADVANCED_FACE('',(#1013),#1006,.F.);
#1028=EDGE_CURVE('',#452,#412,#330,.T.);
#1034=ADVANCED_FACE('',(#1033),#1026,.T.);
#1048=EDGE_CURVE('',#450,#410,#334,.T.);
#1054=ADVANCED_FACE('',(#1053),#1046,.T.);
#1068=EDGE_CURVE('',#448,#408,#338,.T.);
#1074=ADVANCED_FACE('',(#1073),#1066,.T.);
#1088=EDGE_CURVE('',#446,#406,#342,.T.);
#1094=ADVANCED_FACE('',(#1093),#1086,.T.);
#1108=EDGE_CURVE('',#444,#404,#346,.T.);
#1114=ADVANCED_FACE('',(#1113),#1106,.T.);
#1133=ADVANCED_FACE('',(#1132),#1126,.T.);
#1141=CLOSED_SHELL('',(#480,#502,#524,#544,#564,#583,#648,#670,#691,#712,#733,
#754,#775,#796,#816,#839,#862,#893,#914,#934,#954,#973,#994,#1014,#1034,#1054,
#1074,#1094,#1114,#1133));
#1142=MANIFOLD_SOLID_BREP('',#1141);
#1144=(LENGTH_UNIT()NAMED_UNIT(*)SI_UNIT(.MILLI.,.METRE.));
#1147=(NAMED_UNIT(*)PLANE_ANGLE_UNIT()SI_UNIT($,.RADIAN.));
#1150=(NAMED_UNIT(*)SI_UNIT($,.STERADIAN.)SOLID_ANGLE_UNIT());
#1152=(GEOMETRIC_REPRESENTATION_CONTEXT(3)GLOBAL_UNCERTAINTY_ASSIGNED_CONTEXT((
#1151))GLOBAL_UNIT_ASSIGNED_CONTEXT((#1146,#1149,#1150))REPRESENTATION_CONTEXT(
'ID1','3'));
#1156=AXIS2_PLACEMENT_3D('',#1153,#1154,#1155);
#1157=ADVANCED_BREP_SHAPE_REPRESENTATION('',(#1156,#1142),#1152);
#1165=PRODUCT_DEFINITION('design','',#1164,#1161);
#1166=PRODUCT_DEFINITION_SHAPE('','SHAPE FOR _4120001.',#1165);
#1167=SHAPE_ASPECT('','solid data associated with _4120001',#1166,.F.);
#1168=PROPERTY_DEFINITION('',
'shape for solid data with which properties are associated',#1167);
#1169=SHAPE_REPRESENTATION('',(#1142),#1152);
#1170=SHAPE_DEFINITION_REPRESENTATION(#1168,#1169);
#1171=(LENGTH_UNIT()NAMED_UNIT(*)SI_UNIT(.MILLI.,.METRE.));
#1177=PROPERTY_DEFINITION('geometric validation property','area of _4120001',
#1167);
#1178=REPRESENTATION('surface area',(#1176),#1152);
#1179=PROPERTY_DEFINITION_REPRESENTATION(#1177,#1178);
#1180=(LENGTH_UNIT()NAMED_UNIT(*)SI_UNIT(.MILLI.,.METRE.));
#1186=PROPERTY_DEFINITION('geometric validation property','volume of _4120001',
#1167);
#1187=REPRESENTATION('volume',(#1185),#1152);
#1188=PROPERTY_DEFINITION_REPRESENTATION(#1186,#1187);
#1190=PROPERTY_DEFINITION('geometric validation property',
'centroid of _4120001',#1167);
#1191=REPRESENTATION('centroid',(#1189),#1152);
#1192=PROPERTY_DEFINITION_REPRESENTATION(#1190,#1191);
#1193=(LENGTH_UNIT()NAMED_UNIT(*)SI_UNIT(.MILLI.,.METRE.));
#1199=PROPERTY_DEFINITION('geometric validation property','area of _4120001',
#1166);
#1200=REPRESENTATION('surface area',(#1198),#1152);
#1201=PROPERTY_DEFINITION_REPRESENTATION(#1199,#1200);
#1202=(LENGTH_UNIT()NAMED_UNIT(*)SI_UNIT(.MILLI.,.METRE.));
#1208=PROPERTY_DEFINITION('geometric validation property','volume of _4120001',
#1166);
#1209=REPRESENTATION('volume',(#1207),#1152);
#1210=PROPERTY_DEFINITION_REPRESENTATION(#1208,#1209);
#1212=PROPERTY_DEFINITION('geometric validation property',
'centroid of _4120001',#1166);
#1213=REPRESENTATION('centroid',(#1211),#1152);
#1214=PROPERTY_DEFINITION_REPRESENTATION(#1212,#1213);
#1215=SHAPE_DEFINITION_REPRESENTATION(#1166,#1157);
ENDSEC;
END-ISO-10303-21;
