ISO-10303-21;
HEADER;
FILE_DESCRIPTION((''),'2;1');
FILE_NAME('AXLE-FAMILY_INST044','2026-06-15T13:45:38',('Esia'),(''),
'CREO PARAMETRIC BY PTC INC, 2025102','CREO PARAMETRIC BY PTC INC, 2025102','');
FILE_SCHEMA((
'AP242_MANAGED_MODEL_BASED_3D_ENGINEERING_MIM_LF { 1 0 10303 442 1 1 4 }'));
ENDSEC;
DATA;
#16=CARTESIAN_POINT('',(0.E0,0.E0,-2.216535E-1));
#17=DIRECTION('',(0.E0,0.E0,-1.E0));
#18=DIRECTION('',(1.E0,0.E0,0.E0));
#19=AXIS2_PLACEMENT_3D('',#16,#17,#18);
#21=DRAUGHTING_PRE_DEFINED_CURVE_FONT('continuous');
#22=CURVE_STYLE('',#21,POSITIVE_LENGTH_MEASURE(2.E-2),#3);
#23=PRESENTATION_STYLE_ASSIGNMENT((#22));
#24=STYLED_ITEM('',(#23),#20);
#25=CARTESIAN_POINT('',(0.E0,0.E0,-2.216535E-1));
#26=DIRECTION('',(0.E0,0.E0,-1.E0));
#27=DIRECTION('',(-1.E0,0.E0,0.E0));
#28=AXIS2_PLACEMENT_3D('',#25,#26,#27);
#30=CURVE_STYLE('',#21,POSITIVE_LENGTH_MEASURE(2.E-2),#3);
#31=PRESENTATION_STYLE_ASSIGNMENT((#30));
#32=STYLED_ITEM('',(#31),#29);
#33=CARTESIAN_POINT('',(0.E0,0.E0,-2.216535E-1));
#34=DIRECTION('',(0.E0,0.E0,1.E0));
#35=DIRECTION('',(1.E0,0.E0,0.E0));
#36=AXIS2_PLACEMENT_3D('',#33,#34,#35);
#38=CURVE_STYLE('',#21,POSITIVE_LENGTH_MEASURE(2.E-2),#3);
#39=PRESENTATION_STYLE_ASSIGNMENT((#38));
#40=STYLED_ITEM('',(#39),#37);
#41=CARTESIAN_POINT('',(0.E0,0.E0,-2.216535E-1));
#42=DIRECTION('',(0.E0,0.E0,1.E0));
#43=DIRECTION('',(-1.E0,0.E0,0.E0));
#44=AXIS2_PLACEMENT_3D('',#41,#42,#43);
#46=CURVE_STYLE('',#21,POSITIVE_LENGTH_MEASURE(2.E-2),#3);
#47=PRESENTATION_STYLE_ASSIGNMENT((#46));
#48=STYLED_ITEM('',(#47),#45);
#49=DIRECTION('',(0.E0,0.E0,1.E0));
#50=VECTOR('',#49,4.43307E-1);
#51=CARTESIAN_POINT('',(7.874015748031E-2,0.E0,-2.216535E-1));
#52=LINE('',#51,#50);
#53=CURVE_STYLE('',#21,POSITIVE_LENGTH_MEASURE(2.E-2),#3);
#54=PRESENTATION_STYLE_ASSIGNMENT((#53));
#55=STYLED_ITEM('',(#54),#52);
#56=DIRECTION('',(0.E0,0.E0,1.E0));
#57=VECTOR('',#56,4.43307E-1);
#58=CARTESIAN_POINT('',(-7.874015748031E-2,0.E0,-2.216535E-1));
#59=LINE('',#58,#57);
#60=CURVE_STYLE('',#21,POSITIVE_LENGTH_MEASURE(2.E-2),#3);
#61=PRESENTATION_STYLE_ASSIGNMENT((#60));
#62=STYLED_ITEM('',(#61),#59);
#63=CARTESIAN_POINT('',(0.E0,0.E0,2.216535E-1));
#64=DIRECTION('',(0.E0,0.E0,-1.E0));
#65=DIRECTION('',(1.E0,0.E0,0.E0));
#66=AXIS2_PLACEMENT_3D('',#63,#64,#65);
#68=CURVE_STYLE('',#21,POSITIVE_LENGTH_MEASURE(2.E-2),#3);
#69=PRESENTATION_STYLE_ASSIGNMENT((#68));
#70=STYLED_ITEM('',(#69),#67);
#71=CARTESIAN_POINT('',(0.E0,0.E0,2.216535E-1));
#72=DIRECTION('',(0.E0,0.E0,-1.E0));
#73=DIRECTION('',(-1.E0,0.E0,0.E0));
#74=AXIS2_PLACEMENT_3D('',#71,#72,#73);
#76=CURVE_STYLE('',#21,POSITIVE_LENGTH_MEASURE(2.E-2),#3);
#77=PRESENTATION_STYLE_ASSIGNMENT((#76));
#78=STYLED_ITEM('',(#77),#75);
#79=CARTESIAN_POINT('',(0.E0,0.E0,2.216535E-1));
#80=DIRECTION('',(0.E0,0.E0,1.E0));
#81=DIRECTION('',(1.E0,0.E0,0.E0));
#82=AXIS2_PLACEMENT_3D('',#79,#80,#81);
#84=CURVE_STYLE('',#21,POSITIVE_LENGTH_MEASURE(2.E-2),#3);
#85=PRESENTATION_STYLE_ASSIGNMENT((#84));
#86=STYLED_ITEM('',(#85),#83);
#87=CARTESIAN_POINT('',(0.E0,0.E0,2.216535E-1));
#88=DIRECTION('',(0.E0,0.E0,1.E0));
#89=DIRECTION('',(-1.E0,0.E0,0.E0));
#90=AXIS2_PLACEMENT_3D('',#87,#88,#89);
#92=CURVE_STYLE('',#21,POSITIVE_LENGTH_MEASURE(2.E-2),#3);
#93=PRESENTATION_STYLE_ASSIGNMENT((#92));
#94=STYLED_ITEM('',(#93),#91);
#95=DIRECTION('',(0.E0,0.E0,1.E0));
#96=VECTOR('',#95,4.43307E-1);
#97=CARTESIAN_POINT('',(1.574803149606E-1,0.E0,-2.216535E-1));
#98=LINE('',#97,#96);
#99=CURVE_STYLE('',#21,POSITIVE_LENGTH_MEASURE(2.E-2),#3);
#100=PRESENTATION_STYLE_ASSIGNMENT((#99));
#101=STYLED_ITEM('',(#100),#98);
#102=DIRECTION('',(0.E0,0.E0,1.E0));
#103=VECTOR('',#102,4.43307E-1);
#104=CARTESIAN_POINT('',(-1.574803149606E-1,0.E0,-2.216535E-1));
#105=LINE('',#104,#103);
#106=CURVE_STYLE('',#21,POSITIVE_LENGTH_MEASURE(2.E-2),#3);
#107=PRESENTATION_STYLE_ASSIGNMENT((#106));
#108=STYLED_ITEM('',(#107),#105);
#109=CARTESIAN_POINT('',(7.874015748031E-2,0.E0,-2.216535E-1));
#110=CARTESIAN_POINT('',(-7.874015748031E-2,0.E0,-2.216535E-1));
#111=VERTEX_POINT('',#109);
#112=VERTEX_POINT('',#110);
#113=CARTESIAN_POINT('',(1.574803149606E-1,0.E0,-2.216535E-1));
#114=CARTESIAN_POINT('',(-1.574803149606E-1,0.E0,-2.216535E-1));
#115=VERTEX_POINT('',#113);
#116=VERTEX_POINT('',#114);
#117=CARTESIAN_POINT('',(7.874015748031E-2,0.E0,2.216535E-1));
#118=CARTESIAN_POINT('',(-7.874015748031E-2,0.E0,2.216535E-1));
#119=VERTEX_POINT('',#117);
#120=VERTEX_POINT('',#118);
#121=CARTESIAN_POINT('',(1.574803149606E-1,0.E0,2.216535E-1));
#122=CARTESIAN_POINT('',(-1.574803149606E-1,0.E0,2.216535E-1));
#123=VERTEX_POINT('',#121);
#124=VERTEX_POINT('',#122);
#125=CARTESIAN_POINT('',(0.E0,0.E0,-2.216535E-1));
#126=DIRECTION('',(0.E0,0.E0,1.E0));
#127=DIRECTION('',(1.E0,0.E0,0.E0));
#128=AXIS2_PLACEMENT_3D('',#125,#126,#127);
#129=PLANE('',#128);
#131=ORIENTED_EDGE('',*,*,#130,.T.);
#133=ORIENTED_EDGE('',*,*,#132,.T.);
#134=EDGE_LOOP('',(#131,#133));
#135=FACE_OUTER_BOUND('',#134,.F.);
#137=ORIENTED_EDGE('',*,*,#136,.T.);
#139=ORIENTED_EDGE('',*,*,#138,.T.);
#140=EDGE_LOOP('',(#137,#139));
#141=FACE_BOUND('',#140,.F.);
#143=CARTESIAN_POINT('',(0.E0,0.E0,-2.216535E-1));
#144=DIRECTION('',(0.E0,0.E0,1.E0));
#145=DIRECTION('',(1.E0,0.E0,0.E0));
#146=AXIS2_PLACEMENT_3D('',#143,#144,#145);
#147=CYLINDRICAL_SURFACE('',#146,7.874015748031E-2);
#148=ORIENTED_EDGE('',*,*,#136,.F.);
#150=ORIENTED_EDGE('',*,*,#149,.T.);
#152=ORIENTED_EDGE('',*,*,#151,.T.);
#154=ORIENTED_EDGE('',*,*,#153,.F.);
#155=EDGE_LOOP('',(#148,#150,#152,#154));
#156=FACE_OUTER_BOUND('',#155,.F.);
#158=CARTESIAN_POINT('',(0.E0,0.E0,-2.216535E-1));
#159=DIRECTION('',(0.E0,0.E0,1.E0));
#160=DIRECTION('',(1.E0,0.E0,0.E0));
#161=AXIS2_PLACEMENT_3D('',#158,#159,#160);
#162=CYLINDRICAL_SURFACE('',#161,7.874015748031E-2);
#163=ORIENTED_EDGE('',*,*,#138,.F.);
#164=ORIENTED_EDGE('',*,*,#153,.T.);
#166=ORIENTED_EDGE('',*,*,#165,.T.);
#167=ORIENTED_EDGE('',*,*,#149,.F.);
#168=EDGE_LOOP('',(#163,#164,#166,#167));
#169=FACE_OUTER_BOUND('',#168,.F.);
#171=CARTESIAN_POINT('',(0.E0,0.E0,2.216535E-1));
#172=DIRECTION('',(0.E0,0.E0,1.E0));
#173=DIRECTION('',(1.E0,0.E0,0.E0));
#174=AXIS2_PLACEMENT_3D('',#171,#172,#173);
#175=PLANE('',#174);
#177=ORIENTED_EDGE('',*,*,#176,.F.);
#179=ORIENTED_EDGE('',*,*,#178,.F.);
#180=EDGE_LOOP('',(#177,#179));
#181=FACE_OUTER_BOUND('',#180,.F.);
#182=ORIENTED_EDGE('',*,*,#151,.F.);
#183=ORIENTED_EDGE('',*,*,#165,.F.);
#184=EDGE_LOOP('',(#182,#183));
#185=FACE_BOUND('',#184,.F.);
#187=CARTESIAN_POINT('',(0.E0,0.E0,-2.216535E-1));
#188=DIRECTION('',(0.E0,0.E0,1.E0));
#189=DIRECTION('',(1.E0,0.E0,0.E0));
#190=AXIS2_PLACEMENT_3D('',#187,#188,#189);
#191=CYLINDRICAL_SURFACE('',#190,1.574803149606E-1);
#192=ORIENTED_EDGE('',*,*,#130,.F.);
#194=ORIENTED_EDGE('',*,*,#193,.T.);
#195=ORIENTED_EDGE('',*,*,#176,.T.);
#197=ORIENTED_EDGE('',*,*,#196,.F.);
#198=EDGE_LOOP('',(#192,#194,#195,#197));
#199=FACE_OUTER_BOUND('',#198,.F.);
#201=CARTESIAN_POINT('',(0.E0,0.E0,-2.216535E-1));
#202=DIRECTION('',(0.E0,0.E0,1.E0));
#203=DIRECTION('',(1.E0,0.E0,0.E0));
#204=AXIS2_PLACEMENT_3D('',#201,#202,#203);
#205=CYLINDRICAL_SURFACE('',#204,1.574803149606E-1);
#206=ORIENTED_EDGE('',*,*,#132,.F.);
#207=ORIENTED_EDGE('',*,*,#196,.T.);
#208=ORIENTED_EDGE('',*,*,#178,.T.);
#209=ORIENTED_EDGE('',*,*,#193,.F.);
#210=EDGE_LOOP('',(#206,#207,#208,#209));
#211=FACE_OUTER_BOUND('',#210,.F.);
#215=FILL_AREA_STYLE_COLOUR('',#3);
#216=FILL_AREA_STYLE('',(#215));
#217=SURFACE_STYLE_FILL_AREA(#216);
#218=SURFACE_SIDE_STYLE('',(#217));
#219=SURFACE_STYLE_USAGE(.BOTH.,#218);
#220=PRESENTATION_STYLE_ASSIGNMENT((#219));
#15=STYLED_ITEM('',(#220),#214);
#222=LENGTH_MEASURE_WITH_UNIT(LENGTH_MEASURE(2.54E1),#221);
#223=(CONVERSION_BASED_UNIT('INCH',#222)LENGTH_UNIT()NAMED_UNIT(*));
#225=PLANE_ANGLE_MEASURE_WITH_UNIT(PLANE_ANGLE_MEASURE(1.745329251994E-2),#224);
#226=(CONVERSION_BASED_UNIT('DEGREE',#225)NAMED_UNIT(*)PLANE_ANGLE_UNIT());
#228=UNCERTAINTY_MEASURE_WITH_UNIT(LENGTH_MEASURE(3.9E-4),#223,'closure',
'Maximum model space distance between geometric entities at asserted connectivities');
#230=CARTESIAN_POINT('',(0.E0,0.E0,0.E0));
#231=DIRECTION('',(0.E0,0.E0,1.E0));
#232=DIRECTION('',(1.E0,0.E0,0.E0));
#235=MECHANICAL_DESIGN_GEOMETRIC_PRESENTATION_REPRESENTATION('',(#24,#32,#40,
#48,#55,#62,#70,#78,#86,#94,#101,#108,#15),#229);
#236=APPLICATION_CONTEXT('automotive design');
#237=APPLICATION_PROTOCOL_DEFINITION('international standard',
'config_control_design',1994,#236);
#238=PRODUCT_DEFINITION_CONTEXT('',#236,'design');
#239=PRODUCT_CONTEXT('',#236,'mechanical');
#240=PRODUCT('AXLE-FAMILY_INST044','AXLE-FAMILY_INST044','NOT SPECIFIED',
(#239));
#241=PRODUCT_DEFINITION_FORMATION_WITH_SPECIFIED_SOURCE('1','LAST_VERSION',#240,
.MADE.);
#249=LENGTH_MEASURE_WITH_UNIT(LENGTH_MEASURE(2.54E1),#248);
#250=(CONVERSION_BASED_UNIT('INCH',#249)LENGTH_UNIT()NAMED_UNIT(*));
#251=DERIVED_UNIT_ELEMENT(#250,2.E0);
#252=AREA_UNIT((#251));
#253=MEASURE_REPRESENTATION_ITEM('surface area measure',AREA_MEASURE(
7.748312668193E-1),#252);
#258=LENGTH_MEASURE_WITH_UNIT(LENGTH_MEASURE(2.54E1),#257);
#259=(CONVERSION_BASED_UNIT('INCH',#258)LENGTH_UNIT()NAMED_UNIT(*));
#260=DERIVED_UNIT_ELEMENT(#259,3.E0);
#261=VOLUME_UNIT((#260));
#262=MEASURE_REPRESENTATION_ITEM('volume measure',VOLUME_MEASURE(
2.590408607759E-2),#261);
#266=CARTESIAN_POINT('centre point',(0.E0,0.E0,0.E0));
#271=LENGTH_MEASURE_WITH_UNIT(LENGTH_MEASURE(2.54E1),#270);
#272=(CONVERSION_BASED_UNIT('INCH',#271)LENGTH_UNIT()NAMED_UNIT(*));
#273=DERIVED_UNIT_ELEMENT(#272,2.E0);
#274=AREA_UNIT((#273));
#275=MEASURE_REPRESENTATION_ITEM('surface area measure',AREA_MEASURE(
7.748312668193E-1),#274);
#280=LENGTH_MEASURE_WITH_UNIT(LENGTH_MEASURE(2.54E1),#279);
#281=(CONVERSION_BASED_UNIT('INCH',#280)LENGTH_UNIT()NAMED_UNIT(*));
#282=DERIVED_UNIT_ELEMENT(#281,3.E0);
#283=VOLUME_UNIT((#282));
#284=MEASURE_REPRESENTATION_ITEM('volume measure',VOLUME_MEASURE(
2.590408607759E-2),#283);
#288=CARTESIAN_POINT('centre point',(0.E0,0.E0,0.E0));
#1=DRAUGHTING_PRE_DEFINED_COLOUR('green');
#2=COLOUR_RGB('',1.1E-2,1.2E-2,1.E0);
#3=COLOUR_RGB('',2.352941176471E-1,2.352941176471E-1,2.352941176471E-1);
#4=COLOUR_RGB('',4.1E-1,2.61589E-1,1.12848E-1);
#5=COLOUR_RGB('',5.04854E-1,1.5455E-2,1.5455E-2);
#6=COLOUR_RGB('',6.35294E-1,6.86275E-1,7.4902E-1);
#7=COLOUR_RGB('',6.40777E-1,6.40777E-1,6.40777E-1);
#8=COLOUR_RGB('',6.69062E-1,6.69903E-1,6.55217E-1);
#9=COLOUR_RGB('',9.21569E-1,7.05882E-1,4.70588E-1);
#10=DRAUGHTING_PRE_DEFINED_COLOUR('red');
#11=DRAUGHTING_PRE_DEFINED_COLOUR('yellow');
#12=COLOUR_RGB('',1.E0,1.E0,5.3E-1);
#13=COLOUR_RGB('',1.E0,1.E0,9.49E-1);
#14=DRAUGHTING_PRE_DEFINED_COLOUR('white');
#20=CIRCLE('',#19,7.874015748031E-2);
#29=CIRCLE('',#28,7.874015748031E-2);
#37=CIRCLE('',#36,1.574803149606E-1);
#45=CIRCLE('',#44,1.574803149606E-1);
#67=CIRCLE('',#66,7.874015748031E-2);
#75=CIRCLE('',#74,7.874015748031E-2);
#83=CIRCLE('',#82,1.574803149606E-1);
#91=CIRCLE('',#90,1.574803149606E-1);
#130=EDGE_CURVE('',#115,#116,#37,.T.);
#132=EDGE_CURVE('',#116,#115,#45,.T.);
#136=EDGE_CURVE('',#111,#112,#20,.T.);
#138=EDGE_CURVE('',#112,#111,#29,.T.);
#142=ADVANCED_FACE('',(#135,#141),#129,.F.);
#149=EDGE_CURVE('',#111,#119,#52,.T.);
#151=EDGE_CURVE('',#119,#120,#67,.T.);
#153=EDGE_CURVE('',#112,#120,#59,.T.);
#157=ADVANCED_FACE('',(#156),#147,.F.);
#165=EDGE_CURVE('',#120,#119,#75,.T.);
#170=ADVANCED_FACE('',(#169),#162,.F.);
#176=EDGE_CURVE('',#123,#124,#83,.T.);
#178=EDGE_CURVE('',#124,#123,#91,.T.);
#186=ADVANCED_FACE('',(#181,#185),#175,.T.);
#193=EDGE_CURVE('',#115,#123,#98,.T.);
#196=EDGE_CURVE('',#116,#124,#105,.T.);
#200=ADVANCED_FACE('',(#199),#191,.T.);
#212=ADVANCED_FACE('',(#211),#205,.T.);
#213=CLOSED_SHELL('',(#142,#157,#170,#186,#200,#212));
#214=MANIFOLD_SOLID_BREP('',#213);
#221=(LENGTH_UNIT()NAMED_UNIT(*)SI_UNIT(.MILLI.,.METRE.));
#224=(NAMED_UNIT(*)PLANE_ANGLE_UNIT()SI_UNIT($,.RADIAN.));
#227=(NAMED_UNIT(*)SI_UNIT($,.STERADIAN.)SOLID_ANGLE_UNIT());
#229=(GEOMETRIC_REPRESENTATION_CONTEXT(3)GLOBAL_UNCERTAINTY_ASSIGNED_CONTEXT((
#228))GLOBAL_UNIT_ASSIGNED_CONTEXT((#223,#226,#227))REPRESENTATION_CONTEXT
('ID1','3'));
#233=AXIS2_PLACEMENT_3D('',#230,#231,#232);
#234=ADVANCED_BREP_SHAPE_REPRESENTATION('',(#233,#214),#229);
#242=PRODUCT_DEFINITION('design','',#241,#238);
#243=PRODUCT_DEFINITION_SHAPE('','SHAPE FOR AXLE-FAMILY_INST044.',#242);
#244=SHAPE_ASPECT('','solid data associated with AXLE-FAMILY_INST044',#243,.F.);
#245=PROPERTY_DEFINITION('',
'shape for solid data with which properties are associated',#244);
#246=SHAPE_REPRESENTATION('',(#214),#229);
#247=SHAPE_DEFINITION_REPRESENTATION(#245,#246);
#248=(LENGTH_UNIT()NAMED_UNIT(*)SI_UNIT(.MILLI.,.METRE.));
#254=PROPERTY_DEFINITION('geometric validation property',
'area of AXLE-FAMILY_INST044',#244);
#255=REPRESENTATION('surface area',(#253),#229);
#256=PROPERTY_DEFINITION_REPRESENTATION(#254,#255);
#257=(LENGTH_UNIT()NAMED_UNIT(*)SI_UNIT(.MILLI.,.METRE.));
#263=PROPERTY_DEFINITION('geometric validation property',
'volume of AXLE-FAMILY_INST044',#244);
#264=REPRESENTATION('volume',(#262),#229);
#265=PROPERTY_DEFINITION_REPRESENTATION(#263,#264);
#267=PROPERTY_DEFINITION('geometric validation property',
'centroid of AXLE-FAMILY_INST044',#244);
#268=REPRESENTATION('centroid',(#266),#229);
#269=PROPERTY_DEFINITION_REPRESENTATION(#267,#268);
#270=(LENGTH_UNIT()NAMED_UNIT(*)SI_UNIT(.MILLI.,.METRE.));
#276=PROPERTY_DEFINITION('geometric validation property',
'area of AXLE-FAMILY_INST044',#243);
#277=REPRESENTATION('surface area',(#275),#229);
#278=PROPERTY_DEFINITION_REPRESENTATION(#276,#277);
#279=(LENGTH_UNIT()NAMED_UNIT(*)SI_UNIT(.MILLI.,.METRE.));
#285=PROPERTY_DEFINITION('geometric validation property',
'volume of AXLE-FAMILY_INST044',#243);
#286=REPRESENTATION('volume',(#284),#229);
#287=PROPERTY_DEFINITION_REPRESENTATION(#285,#286);
#289=PROPERTY_DEFINITION('geometric validation property',
'centroid of AXLE-FAMILY_INST044',#243);
#290=REPRESENTATION('centroid',(#288),#229);
#291=PROPERTY_DEFINITION_REPRESENTATION(#289,#290);
#292=SHAPE_DEFINITION_REPRESENTATION(#243,#234);
ENDSEC;
END-ISO-10303-21;
