ISO-10303-21;
HEADER;
FILE_DESCRIPTION((''),'2;1');
FILE_NAME('BODY2-4117','2026-06-15T13:45:24',('Esia'),(''),
'CREO PARAMETRIC BY PTC INC, 2025102','CREO PARAMETRIC BY PTC INC, 2025102','');
FILE_SCHEMA((
'AP242_MANAGED_MODEL_BASED_3D_ENGINEERING_MIM_LF { 1 0 10303 442 1 1 4 }'));
ENDSEC;
DATA;
#24=DIRECTION('',(0.E0,0.E0,-1.E0));
#25=VECTOR('',#24,5.905511811024E-2);
#26=CARTESIAN_POINT('',(1.096456692913E0,5.905511811024E-2,6.142989212598E-2));
#27=LINE('',#26,#25);
#28=DRAUGHTING_PRE_DEFINED_CURVE_FONT('continuous');
#29=CURVE_STYLE('',#28,POSITIVE_LENGTH_MEASURE(2.E-2),#1);
#30=PRESENTATION_STYLE_ASSIGNMENT((#29));
#31=STYLED_ITEM('',(#30),#27);
#32=DIRECTION('',(0.E0,0.E0,1.E0));
#33=VECTOR('',#32,5.905511811024E-2);
#34=CARTESIAN_POINT('',(1.049212598425E0,5.905511811024E-2,2.374774015748E-3));
#35=LINE('',#34,#33);
#36=CURVE_STYLE('',#28,POSITIVE_LENGTH_MEASURE(2.E-2),#1);
#37=PRESENTATION_STYLE_ASSIGNMENT((#36));
#38=STYLED_ITEM('',(#37),#35);
#39=DIRECTION('',(7.071067811865E-1,7.071067811866E-1,0.E0));
#40=VECTOR('',#39,1.113553986121E-2);
#41=CARTESIAN_POINT('',(1.114173228346E0,0.E0,6.142989212598E-2));
#42=LINE('',#41,#40);
#43=CURVE_STYLE('',#28,POSITIVE_LENGTH_MEASURE(2.E-2),#1);
#44=PRESENTATION_STYLE_ASSIGNMENT((#43));
#45=STYLED_ITEM('',(#44),#42);
#46=DIRECTION('',(1.E0,0.E0,0.E0));
#47=VECTOR('',#46,9.055118110236E-2);
#48=CARTESIAN_POINT('',(1.023622047244E0,0.E0,6.142989212598E-2));
#49=LINE('',#48,#47);
#50=CURVE_STYLE('',#28,POSITIVE_LENGTH_MEASURE(2.E-2),#1);
#51=PRESENTATION_STYLE_ASSIGNMENT((#50));
#52=STYLED_ITEM('',(#51),#49);
#53=DIRECTION('',(0.E0,-1.E0,0.E0));
#54=VECTOR('',#53,1.181102362205E-1);
#55=CARTESIAN_POINT('',(1.023622047244E0,1.181102362205E-1,6.142989212598E-2));
#56=LINE('',#55,#54);
#57=CURVE_STYLE('',#28,POSITIVE_LENGTH_MEASURE(2.E-2),#1);
#58=PRESENTATION_STYLE_ASSIGNMENT((#57));
#59=STYLED_ITEM('',(#58),#56);
#60=DIRECTION('',(-1.E0,0.E0,0.E0));
#61=VECTOR('',#60,9.055118110236E-2);
#62=CARTESIAN_POINT('',(1.114173228346E0,1.181102362205E-1,6.142989212598E-2));
#63=LINE('',#62,#61);
#64=CURVE_STYLE('',#28,POSITIVE_LENGTH_MEASURE(2.E-2),#1);
#65=PRESENTATION_STYLE_ASSIGNMENT((#64));
#66=STYLED_ITEM('',(#65),#63);
#67=DIRECTION('',(-7.071067811865E-1,7.071067811866E-1,0.E0));
#68=VECTOR('',#67,1.113553986121E-2);
#69=CARTESIAN_POINT('',(1.122047244094E0,1.102362204724E-1,6.142989212598E-2));
#70=LINE('',#69,#68);
#71=CURVE_STYLE('',#28,POSITIVE_LENGTH_MEASURE(2.E-2),#1);
#72=PRESENTATION_STYLE_ASSIGNMENT((#71));
#73=STYLED_ITEM('',(#72),#70);
#74=DIRECTION('',(0.E0,1.E0,0.E0));
#75=VECTOR('',#74,1.023622047244E-1);
#76=CARTESIAN_POINT('',(1.122047244094E0,7.874015748031E-3,6.142989212598E-2));
#77=LINE('',#76,#75);
#78=CURVE_STYLE('',#28,POSITIVE_LENGTH_MEASURE(2.E-2),#1);
#79=PRESENTATION_STYLE_ASSIGNMENT((#78));
#80=STYLED_ITEM('',(#79),#77);
#81=CARTESIAN_POINT('',(1.072834645669E0,5.905511811024E-2,6.142989212598E-2));
#82=DIRECTION('',(0.E0,0.E0,-1.E0));
#83=DIRECTION('',(1.E0,0.E0,0.E0));
#84=AXIS2_PLACEMENT_3D('',#81,#82,#83);
#86=CURVE_STYLE('',#28,POSITIVE_LENGTH_MEASURE(2.E-2),#1);
#87=PRESENTATION_STYLE_ASSIGNMENT((#86));
#88=STYLED_ITEM('',(#87),#85);
#89=CARTESIAN_POINT('',(1.072834645669E0,5.905511811024E-2,6.142989212598E-2));
#90=DIRECTION('',(0.E0,0.E0,-1.E0));
#91=DIRECTION('',(-1.E0,0.E0,0.E0));
#92=AXIS2_PLACEMENT_3D('',#89,#90,#91);
#94=CURVE_STYLE('',#28,POSITIVE_LENGTH_MEASURE(2.E-2),#1);
#95=PRESENTATION_STYLE_ASSIGNMENT((#94));
#96=STYLED_ITEM('',(#95),#93);
#97=DIRECTION('',(0.E0,0.E0,-1.E0));
#98=VECTOR('',#97,5.905511811024E-2);
#99=CARTESIAN_POINT('',(1.114173228346E0,0.E0,6.142989212598E-2));
#100=LINE('',#99,#98);
#101=CURVE_STYLE('',#28,POSITIVE_LENGTH_MEASURE(2.E-2),#1);
#102=PRESENTATION_STYLE_ASSIGNMENT((#101));
#103=STYLED_ITEM('',(#102),#100);
#104=DIRECTION('',(-7.071067811866E-1,-7.071067811865E-1,0.E0));
#105=VECTOR('',#104,1.113553986121E-2);
#106=CARTESIAN_POINT('',(1.122047244094E0,7.874015748031E-3,2.374774015748E-3));
#107=LINE('',#106,#105);
#108=CURVE_STYLE('',#28,POSITIVE_LENGTH_MEASURE(2.E-2),#1);
#109=PRESENTATION_STYLE_ASSIGNMENT((#108));
#110=STYLED_ITEM('',(#109),#107);
#111=DIRECTION('',(0.E0,-1.E0,0.E0));
#112=VECTOR('',#111,1.023622047244E-1);
#113=CARTESIAN_POINT('',(1.122047244094E0,1.102362204724E-1,2.374774015748E-3));
#114=LINE('',#113,#112);
#115=CURVE_STYLE('',#28,POSITIVE_LENGTH_MEASURE(2.E-2),#1);
#116=PRESENTATION_STYLE_ASSIGNMENT((#115));
#117=STYLED_ITEM('',(#116),#114);
#118=DIRECTION('',(7.071067811865E-1,-7.071067811866E-1,0.E0));
#119=VECTOR('',#118,1.113553986121E-2);
#120=CARTESIAN_POINT('',(1.114173228346E0,1.181102362205E-1,2.374774015748E-3));
#121=LINE('',#120,#119);
#122=CURVE_STYLE('',#28,POSITIVE_LENGTH_MEASURE(2.E-2),#1);
#123=PRESENTATION_STYLE_ASSIGNMENT((#122));
#124=STYLED_ITEM('',(#123),#121);
#125=DIRECTION('',(1.E0,0.E0,0.E0));
#126=VECTOR('',#125,9.055118110236E-2);
#127=CARTESIAN_POINT('',(1.023622047244E0,1.181102362205E-1,2.374774015748E-3));
#128=LINE('',#127,#126);
#129=CURVE_STYLE('',#28,POSITIVE_LENGTH_MEASURE(2.E-2),#1);
#130=PRESENTATION_STYLE_ASSIGNMENT((#129));
#131=STYLED_ITEM('',(#130),#128);
#132=DIRECTION('',(0.E0,1.E0,0.E0));
#133=VECTOR('',#132,1.181102362205E-1);
#134=CARTESIAN_POINT('',(1.023622047244E0,0.E0,2.374774015748E-3));
#135=LINE('',#134,#133);
#136=CURVE_STYLE('',#28,POSITIVE_LENGTH_MEASURE(2.E-2),#1);
#137=PRESENTATION_STYLE_ASSIGNMENT((#136));
#138=STYLED_ITEM('',(#137),#135);
#139=DIRECTION('',(-1.E0,0.E0,0.E0));
#140=VECTOR('',#139,9.055118110236E-2);
#141=CARTESIAN_POINT('',(1.114173228346E0,0.E0,2.374774015748E-3));
#142=LINE('',#141,#140);
#143=CURVE_STYLE('',#28,POSITIVE_LENGTH_MEASURE(2.E-2),#1);
#144=PRESENTATION_STYLE_ASSIGNMENT((#143));
#145=STYLED_ITEM('',(#144),#142);
#146=CARTESIAN_POINT('',(1.072834645669E0,5.905511811024E-2,2.374774015748E-3));
#147=DIRECTION('',(0.E0,0.E0,1.E0));
#148=DIRECTION('',(1.E0,0.E0,0.E0));
#149=AXIS2_PLACEMENT_3D('',#146,#147,#148);
#151=CURVE_STYLE('',#28,POSITIVE_LENGTH_MEASURE(2.E-2),#1);
#152=PRESENTATION_STYLE_ASSIGNMENT((#151));
#153=STYLED_ITEM('',(#152),#150);
#154=CARTESIAN_POINT('',(1.072834645669E0,5.905511811024E-2,2.374774015748E-3));
#155=DIRECTION('',(0.E0,0.E0,1.E0));
#156=DIRECTION('',(-1.E0,0.E0,0.E0));
#157=AXIS2_PLACEMENT_3D('',#154,#155,#156);
#159=CURVE_STYLE('',#28,POSITIVE_LENGTH_MEASURE(2.E-2),#1);
#160=PRESENTATION_STYLE_ASSIGNMENT((#159));
#161=STYLED_ITEM('',(#160),#158);
#162=DIRECTION('',(0.E0,0.E0,-1.E0));
#163=VECTOR('',#162,5.905511811024E-2);
#164=CARTESIAN_POINT('',(1.122047244094E0,7.874015748031E-3,6.142989212598E-2));
#165=LINE('',#164,#163);
#166=CURVE_STYLE('',#28,POSITIVE_LENGTH_MEASURE(2.E-2),#1);
#167=PRESENTATION_STYLE_ASSIGNMENT((#166));
#168=STYLED_ITEM('',(#167),#165);
#169=DIRECTION('',(0.E0,0.E0,-1.E0));
#170=VECTOR('',#169,5.905511811024E-2);
#171=CARTESIAN_POINT('',(1.122047244094E0,1.102362204724E-1,6.142989212598E-2));
#172=LINE('',#171,#170);
#173=CURVE_STYLE('',#28,POSITIVE_LENGTH_MEASURE(2.E-2),#1);
#174=PRESENTATION_STYLE_ASSIGNMENT((#173));
#175=STYLED_ITEM('',(#174),#172);
#176=DIRECTION('',(0.E0,0.E0,-1.E0));
#177=VECTOR('',#176,5.905511811024E-2);
#178=CARTESIAN_POINT('',(1.114173228346E0,1.181102362205E-1,6.142989212598E-2));
#179=LINE('',#178,#177);
#180=CURVE_STYLE('',#28,POSITIVE_LENGTH_MEASURE(2.E-2),#1);
#181=PRESENTATION_STYLE_ASSIGNMENT((#180));
#182=STYLED_ITEM('',(#181),#179);
#183=DIRECTION('',(0.E0,0.E0,1.E0));
#184=VECTOR('',#183,5.905511811024E-2);
#185=CARTESIAN_POINT('',(1.023622047244E0,0.E0,2.374774015748E-3));
#186=LINE('',#185,#184);
#187=CURVE_STYLE('',#28,POSITIVE_LENGTH_MEASURE(2.E-2),#1);
#188=PRESENTATION_STYLE_ASSIGNMENT((#187));
#189=STYLED_ITEM('',(#188),#186);
#190=DIRECTION('',(0.E0,0.E0,-1.E0));
#191=VECTOR('',#190,5.905511811024E-2);
#192=CARTESIAN_POINT('',(1.023622047244E0,1.181102362205E-1,6.142989212598E-2));
#193=LINE('',#192,#191);
#194=CURVE_STYLE('',#28,POSITIVE_LENGTH_MEASURE(2.E-2),#1);
#195=PRESENTATION_STYLE_ASSIGNMENT((#194));
#196=STYLED_ITEM('',(#195),#193);
#197=CARTESIAN_POINT('',(1.122047244094E0,7.874015748031E-3,2.374774015748E-3));
#198=CARTESIAN_POINT('',(1.114173228346E0,0.E0,2.374774015748E-3));
#199=VERTEX_POINT('',#197);
#200=VERTEX_POINT('',#198);
#201=CARTESIAN_POINT('',(1.122047244094E0,7.874015748031E-3,6.142989212598E-2));
#202=VERTEX_POINT('',#201);
#203=CARTESIAN_POINT('',(1.114173228346E0,0.E0,6.142989212598E-2));
#204=VERTEX_POINT('',#203);
#205=CARTESIAN_POINT('',(1.122047244094E0,1.102362204724E-1,2.374774015748E-3));
#206=VERTEX_POINT('',#205);
#207=CARTESIAN_POINT('',(1.122047244094E0,1.102362204724E-1,6.142989212598E-2));
#208=VERTEX_POINT('',#207);
#209=CARTESIAN_POINT('',(1.114173228346E0,1.181102362205E-1,2.374774015748E-3));
#210=VERTEX_POINT('',#209);
#211=CARTESIAN_POINT('',(1.114173228346E0,1.181102362205E-1,6.142989212598E-2));
#212=VERTEX_POINT('',#211);
#213=CARTESIAN_POINT('',(1.023622047244E0,1.181102362205E-1,6.142989212598E-2));
#214=VERTEX_POINT('',#213);
#215=CARTESIAN_POINT('',(1.023622047244E0,0.E0,6.142989212598E-2));
#216=VERTEX_POINT('',#215);
#217=CARTESIAN_POINT('',(1.023622047244E0,0.E0,2.374774015748E-3));
#218=VERTEX_POINT('',#217);
#219=CARTESIAN_POINT('',(1.023622047244E0,1.181102362205E-1,2.374774015748E-3));
#220=VERTEX_POINT('',#219);
#221=CARTESIAN_POINT('',(1.096456692913E0,5.905511811024E-2,6.142989212598E-2));
#222=CARTESIAN_POINT('',(1.096456692913E0,5.905511811024E-2,2.374774015748E-3));
#223=VERTEX_POINT('',#221);
#224=VERTEX_POINT('',#222);
#225=CARTESIAN_POINT('',(1.049212598425E0,5.905511811024E-2,6.142989212598E-2));
#226=VERTEX_POINT('',#225);
#227=CARTESIAN_POINT('',(1.049212598425E0,5.905511811024E-2,2.374774015748E-3));
#228=VERTEX_POINT('',#227);
#229=CARTESIAN_POINT('',(1.072834645669E0,5.905511811024E-2,0.E0));
#230=DIRECTION('',(0.E0,0.E0,-1.E0));
#231=DIRECTION('',(1.E0,0.E0,0.E0));
#232=AXIS2_PLACEMENT_3D('',#229,#230,#231);
#233=CYLINDRICAL_SURFACE('',#232,2.362204724409E-2);
#235=ORIENTED_EDGE('',*,*,#234,.T.);
#237=ORIENTED_EDGE('',*,*,#236,.T.);
#239=ORIENTED_EDGE('',*,*,#238,.T.);
#241=ORIENTED_EDGE('',*,*,#240,.T.);
#242=EDGE_LOOP('',(#235,#237,#239,#241));
#243=FACE_OUTER_BOUND('',#242,.F.);
#245=CARTESIAN_POINT('',(1.072834645669E0,5.905511811024E-2,0.E0));
#246=DIRECTION('',(0.E0,0.E0,-1.E0));
#247=DIRECTION('',(1.E0,0.E0,0.E0));
#248=AXIS2_PLACEMENT_3D('',#245,#246,#247);
#249=CYLINDRICAL_SURFACE('',#248,2.362204724409E-2);
#250=ORIENTED_EDGE('',*,*,#234,.F.);
#252=ORIENTED_EDGE('',*,*,#251,.T.);
#253=ORIENTED_EDGE('',*,*,#238,.F.);
#255=ORIENTED_EDGE('',*,*,#254,.T.);
#256=EDGE_LOOP('',(#250,#252,#253,#255));
#257=FACE_OUTER_BOUND('',#256,.F.);
#259=CARTESIAN_POINT('',(5.610236220472E-1,2.559055156243E-1,
6.142989212598E-2));
#260=DIRECTION('',(0.E0,0.E0,1.E0));
#261=DIRECTION('',(-1.E0,0.E0,0.E0));
#262=AXIS2_PLACEMENT_3D('',#259,#260,#261);
#263=PLANE('',#262);
#265=ORIENTED_EDGE('',*,*,#264,.F.);
#267=ORIENTED_EDGE('',*,*,#266,.F.);
#269=ORIENTED_EDGE('',*,*,#268,.F.);
#271=ORIENTED_EDGE('',*,*,#270,.F.);
#273=ORIENTED_EDGE('',*,*,#272,.F.);
#275=ORIENTED_EDGE('',*,*,#274,.F.);
#276=EDGE_LOOP('',(#265,#267,#269,#271,#273,#275));
#277=FACE_OUTER_BOUND('',#276,.F.);
#278=ORIENTED_EDGE('',*,*,#251,.F.);
#279=ORIENTED_EDGE('',*,*,#240,.F.);
#280=EDGE_LOOP('',(#278,#279));
#281=FACE_BOUND('',#280,.F.);
#283=CARTESIAN_POINT('',(1.114173228346E0,0.E0,0.E0));
#284=DIRECTION('',(-7.071067811865E-1,7.071067811865E-1,0.E0));
#285=DIRECTION('',(7.071067811865E-1,7.071067811865E-1,0.E0));
#286=AXIS2_PLACEMENT_3D('',#283,#284,#285);
#287=PLANE('',#286);
#289=ORIENTED_EDGE('',*,*,#288,.T.);
#291=ORIENTED_EDGE('',*,*,#290,.F.);
#292=ORIENTED_EDGE('',*,*,#264,.T.);
#294=ORIENTED_EDGE('',*,*,#293,.T.);
#295=EDGE_LOOP('',(#289,#291,#292,#294));
#296=FACE_OUTER_BOUND('',#295,.F.);
#298=CARTESIAN_POINT('',(5.610236220472E-1,2.559055156243E-1,
2.374774015748E-3));
#299=DIRECTION('',(0.E0,0.E0,1.E0));
#300=DIRECTION('',(-1.E0,0.E0,0.E0));
#301=AXIS2_PLACEMENT_3D('',#298,#299,#300);
#302=PLANE('',#301);
#303=ORIENTED_EDGE('',*,*,#288,.F.);
#305=ORIENTED_EDGE('',*,*,#304,.F.);
#307=ORIENTED_EDGE('',*,*,#306,.F.);
#309=ORIENTED_EDGE('',*,*,#308,.F.);
#311=ORIENTED_EDGE('',*,*,#310,.F.);
#313=ORIENTED_EDGE('',*,*,#312,.F.);
#314=EDGE_LOOP('',(#303,#305,#307,#309,#311,#313));
#315=FACE_OUTER_BOUND('',#314,.F.);
#316=ORIENTED_EDGE('',*,*,#236,.F.);
#317=ORIENTED_EDGE('',*,*,#254,.F.);
#318=EDGE_LOOP('',(#316,#317));
#319=FACE_BOUND('',#318,.F.);
#321=CARTESIAN_POINT('',(1.122047244094E0,7.874015748031E-3,0.E0));
#322=DIRECTION('',(-1.E0,0.E0,0.E0));
#323=DIRECTION('',(0.E0,1.E0,0.E0));
#324=AXIS2_PLACEMENT_3D('',#321,#322,#323);
#325=PLANE('',#324);
#326=ORIENTED_EDGE('',*,*,#304,.T.);
#327=ORIENTED_EDGE('',*,*,#293,.F.);
#328=ORIENTED_EDGE('',*,*,#274,.T.);
#330=ORIENTED_EDGE('',*,*,#329,.T.);
#331=EDGE_LOOP('',(#326,#327,#328,#330));
#332=FACE_OUTER_BOUND('',#331,.F.);
#334=CARTESIAN_POINT('',(1.122047244094E0,1.102362204724E-1,0.E0));
#335=DIRECTION('',(-7.071067811865E-1,-7.071067811865E-1,0.E0));
#336=DIRECTION('',(-7.071067811865E-1,7.071067811865E-1,0.E0));
#337=AXIS2_PLACEMENT_3D('',#334,#335,#336);
#338=PLANE('',#337);
#339=ORIENTED_EDGE('',*,*,#306,.T.);
#340=ORIENTED_EDGE('',*,*,#329,.F.);
#341=ORIENTED_EDGE('',*,*,#272,.T.);
#343=ORIENTED_EDGE('',*,*,#342,.T.);
#344=EDGE_LOOP('',(#339,#340,#341,#343));
#345=FACE_OUTER_BOUND('',#344,.F.);
#347=CARTESIAN_POINT('',(1.114173228346E0,1.181102362205E-1,0.E0));
#348=DIRECTION('',(0.E0,-1.E0,0.E0));
#349=DIRECTION('',(-1.E0,0.E0,0.E0));
#350=AXIS2_PLACEMENT_3D('',#347,#348,#349);
#351=PLANE('',#350);
#352=ORIENTED_EDGE('',*,*,#308,.T.);
#353=ORIENTED_EDGE('',*,*,#342,.F.);
#354=ORIENTED_EDGE('',*,*,#270,.T.);
#356=ORIENTED_EDGE('',*,*,#355,.T.);
#357=EDGE_LOOP('',(#352,#353,#354,#356));
#358=FACE_OUTER_BOUND('',#357,.F.);
#360=CARTESIAN_POINT('',(1.023622047244E0,2.559055156243E-1,3.268345E-2));
#361=DIRECTION('',(1.E0,0.E0,0.E0));
#362=DIRECTION('',(0.E0,0.E0,-1.E0));
#363=AXIS2_PLACEMENT_3D('',#360,#361,#362);
#364=PLANE('',#363);
#366=ORIENTED_EDGE('',*,*,#365,.F.);
#367=ORIENTED_EDGE('',*,*,#310,.T.);
#368=ORIENTED_EDGE('',*,*,#355,.F.);
#369=ORIENTED_EDGE('',*,*,#268,.T.);
#370=EDGE_LOOP('',(#366,#367,#368,#369));
#371=FACE_OUTER_BOUND('',#370,.F.);
#373=CARTESIAN_POINT('',(0.E0,0.E0,0.E0));
#374=DIRECTION('',(0.E0,1.E0,0.E0));
#375=DIRECTION('',(1.E0,0.E0,0.E0));
#376=AXIS2_PLACEMENT_3D('',#373,#374,#375);
#377=PLANE('',#376);
#378=ORIENTED_EDGE('',*,*,#365,.T.);
#379=ORIENTED_EDGE('',*,*,#266,.T.);
#380=ORIENTED_EDGE('',*,*,#290,.T.);
#381=ORIENTED_EDGE('',*,*,#312,.T.);
#382=EDGE_LOOP('',(#378,#379,#380,#381));
#383=FACE_OUTER_BOUND('',#382,.F.);
#387=FILL_AREA_STYLE_COLOUR('',#1);
#388=FILL_AREA_STYLE('',(#387));
#389=SURFACE_STYLE_FILL_AREA(#388);
#390=SURFACE_SIDE_STYLE('',(#389));
#391=SURFACE_STYLE_USAGE(.BOTH.,#390);
#392=PRESENTATION_STYLE_ASSIGNMENT((#391));
#23=STYLED_ITEM('',(#392),#386);
#394=LENGTH_MEASURE_WITH_UNIT(LENGTH_MEASURE(2.54E1),#393);
#395=(CONVERSION_BASED_UNIT('INCH',#394)LENGTH_UNIT()NAMED_UNIT(*));
#397=PLANE_ANGLE_MEASURE_WITH_UNIT(PLANE_ANGLE_MEASURE(1.745329251994E-2),#396);
#398=(CONVERSION_BASED_UNIT('DEGREE',#397)NAMED_UNIT(*)PLANE_ANGLE_UNIT());
#400=UNCERTAINTY_MEASURE_WITH_UNIT(LENGTH_MEASURE(1.646902677427E-5),#395,
'closure',
'Maximum model space distance between geometric entities at asserted connectivities');
#402=CARTESIAN_POINT('',(0.E0,0.E0,0.E0));
#403=DIRECTION('',(0.E0,0.E0,1.E0));
#404=DIRECTION('',(1.E0,0.E0,0.E0));
#407=MECHANICAL_DESIGN_GEOMETRIC_PRESENTATION_REPRESENTATION('',(#31,#38,#45,
#52,#59,#66,#73,#80,#88,#96,#103,#110,#117,#124,#131,#138,#145,#153,#161,#168,
#175,#182,#189,#196,#23),#401);
#408=APPLICATION_CONTEXT('automotive design');
#409=APPLICATION_PROTOCOL_DEFINITION('international standard',
'config_control_design',1994,#408);
#410=PRODUCT_DEFINITION_CONTEXT('',#408,'design');
#411=PRODUCT_CONTEXT('',#408,'mechanical');
#412=PRODUCT('BODY2-4117','BODY2-4117','NOT SPECIFIED',(#411));
#413=PRODUCT_DEFINITION_FORMATION_WITH_SPECIFIED_SOURCE('1','LAST_VERSION',#412,
.MADE.);
#421=LENGTH_MEASURE_WITH_UNIT(LENGTH_MEASURE(2.54E1),#420);
#422=(CONVERSION_BASED_UNIT('INCH',#421)LENGTH_UNIT()NAMED_UNIT(*));
#423=DERIVED_UNIT_ELEMENT(#422,2.E0);
#424=AREA_UNIT((#423));
#425=MEASURE_REPRESENTATION_ITEM('surface area measure',AREA_MEASURE(
3.446144820440E1),#424);
#430=LENGTH_MEASURE_WITH_UNIT(LENGTH_MEASURE(2.54E1),#429);
#431=(CONVERSION_BASED_UNIT('INCH',#430)LENGTH_UNIT()NAMED_UNIT(*));
#432=DERIVED_UNIT_ELEMENT(#431,3.E0);
#433=VOLUME_UNIT((#432));
#434=MEASURE_REPRESENTATION_ITEM('volume measure',VOLUME_MEASURE(
9.493539967337E0),#433);
#438=CARTESIAN_POINT('centre point',(2.724252123020E1,1.5E0,8.1031926E-1));
#443=LENGTH_MEASURE_WITH_UNIT(LENGTH_MEASURE(2.54E1),#442);
#444=(CONVERSION_BASED_UNIT('INCH',#443)LENGTH_UNIT()NAMED_UNIT(*));
#445=DERIVED_UNIT_ELEMENT(#444,2.E0);
#446=AREA_UNIT((#445));
#447=MEASURE_REPRESENTATION_ITEM('surface area measure',AREA_MEASURE(
3.446144820440E1),#446);
#452=LENGTH_MEASURE_WITH_UNIT(LENGTH_MEASURE(2.54E1),#451);
#453=(CONVERSION_BASED_UNIT('INCH',#452)LENGTH_UNIT()NAMED_UNIT(*));
#454=DERIVED_UNIT_ELEMENT(#453,3.E0);
#455=VOLUME_UNIT((#454));
#456=MEASURE_REPRESENTATION_ITEM('volume measure',VOLUME_MEASURE(
9.493539967337E0),#455);
#460=CARTESIAN_POINT('centre point',(2.724252123020E1,1.5E0,8.1031926E-1));
#1=COLOUR_RGB('',9.568627450980E-1,8.980392156863E-1,6.549019607843E-1);
#2=DRAUGHTING_PRE_DEFINED_COLOUR('green');
#3=COLOUR_RGB('',1.1E-2,1.2E-2,1.E0);
#4=COLOUR_RGB('',1.921568627451E-1,1.921568627451E-1,1.921568627451E-1);
#5=COLOUR_RGB('',2.352941176471E-1,2.352941176471E-1,2.352941176471E-1);
#6=COLOUR_RGB('',2.509803921569E-1,2.509803921569E-1,2.509803921569E-1);
#7=COLOUR_RGB('',3.137254901961E-1,3.137254901961E-1,3.137254901961E-1);
#8=COLOUR_RGB('',4.1E-1,2.61589E-1,1.12848E-1);
#9=COLOUR_RGB('',5.04854E-1,1.5455E-2,1.5455E-2);
#10=COLOUR_RGB('',6.274509803922E-1,6.274509803922E-1,6.274509803922E-1);
#11=COLOUR_RGB('',6.35294E-1,6.86275E-1,7.4902E-1);
#12=COLOUR_RGB('',6.40777E-1,6.40777E-1,6.40777E-1);
#13=COLOUR_RGB('',6.69062E-1,6.69903E-1,6.55217E-1);
#14=COLOUR_RGB('',8.313725490196E-1,0.E0,0.E0);
#15=COLOUR_RGB('',8.666666666667E-1,8.666666666667E-1,8.666666666667E-1);
#16=COLOUR_RGB('',9.21569E-1,7.05882E-1,4.70588E-1);
#17=COLOUR_RGB('',9.568627450980E-1,8.980392156863E-1,6.549019607843E-1);
#18=DRAUGHTING_PRE_DEFINED_COLOUR('red');
#19=DRAUGHTING_PRE_DEFINED_COLOUR('yellow');
#20=COLOUR_RGB('',1.E0,1.E0,5.3E-1);
#21=COLOUR_RGB('',1.E0,1.E0,9.49E-1);
#22=DRAUGHTING_PRE_DEFINED_COLOUR('white');
#85=CIRCLE('',#84,2.362204724409E-2);
#93=CIRCLE('',#92,2.362204724409E-2);
#150=CIRCLE('',#149,2.362204724409E-2);
#158=CIRCLE('',#157,2.362204724409E-2);
#234=EDGE_CURVE('',#223,#224,#27,.T.);
#236=EDGE_CURVE('',#224,#228,#150,.T.);
#238=EDGE_CURVE('',#228,#226,#35,.T.);
#240=EDGE_CURVE('',#226,#223,#93,.T.);
#244=ADVANCED_FACE('',(#243),#233,.F.);
#251=EDGE_CURVE('',#223,#226,#85,.T.);
#254=EDGE_CURVE('',#228,#224,#158,.T.);
#258=ADVANCED_FACE('',(#257),#249,.F.);
#264=EDGE_CURVE('',#204,#202,#42,.T.);
#266=EDGE_CURVE('',#216,#204,#49,.T.);
#268=EDGE_CURVE('',#214,#216,#56,.T.);
#270=EDGE_CURVE('',#212,#214,#63,.T.);
#272=EDGE_CURVE('',#208,#212,#70,.T.);
#274=EDGE_CURVE('',#202,#208,#77,.T.);
#282=ADVANCED_FACE('',(#277,#281),#263,.T.);
#288=EDGE_CURVE('',#199,#200,#107,.T.);
#290=EDGE_CURVE('',#204,#200,#100,.T.);
#293=EDGE_CURVE('',#202,#199,#165,.T.);
#297=ADVANCED_FACE('',(#296),#287,.F.);
#304=EDGE_CURVE('',#206,#199,#114,.T.);
#306=EDGE_CURVE('',#210,#206,#121,.T.);
#308=EDGE_CURVE('',#220,#210,#128,.T.);
#310=EDGE_CURVE('',#218,#220,#135,.T.);
#312=EDGE_CURVE('',#200,#218,#142,.T.);
#320=ADVANCED_FACE('',(#315,#319),#302,.F.);
#329=EDGE_CURVE('',#208,#206,#172,.T.);
#333=ADVANCED_FACE('',(#332),#325,.F.);
#342=EDGE_CURVE('',#212,#210,#179,.T.);
#346=ADVANCED_FACE('',(#345),#338,.F.);
#355=EDGE_CURVE('',#214,#220,#193,.T.);
#359=ADVANCED_FACE('',(#358),#351,.F.);
#365=EDGE_CURVE('',#218,#216,#186,.T.);
#372=ADVANCED_FACE('',(#371),#364,.F.);
#384=ADVANCED_FACE('',(#383),#377,.F.);
#385=CLOSED_SHELL('',(#244,#258,#282,#297,#320,#333,#346,#359,#372,#384));
#386=MANIFOLD_SOLID_BREP('',#385);
#393=(LENGTH_UNIT()NAMED_UNIT(*)SI_UNIT(.MILLI.,.METRE.));
#396=(NAMED_UNIT(*)PLANE_ANGLE_UNIT()SI_UNIT($,.RADIAN.));
#399=(NAMED_UNIT(*)SI_UNIT($,.STERADIAN.)SOLID_ANGLE_UNIT());
#401=(GEOMETRIC_REPRESENTATION_CONTEXT(3)GLOBAL_UNCERTAINTY_ASSIGNED_CONTEXT((
#400))GLOBAL_UNIT_ASSIGNED_CONTEXT((#395,#398,#399))REPRESENTATION_CONTEXT
('ID1','3'));
#405=AXIS2_PLACEMENT_3D('',#402,#403,#404);
#406=ADVANCED_BREP_SHAPE_REPRESENTATION('',(#405,#386),#401);
#414=PRODUCT_DEFINITION('design','',#413,#410);
#415=PRODUCT_DEFINITION_SHAPE('','SHAPE FOR BODY2-4117.',#414);
#416=SHAPE_ASPECT('','solid data associated with BODY2-4117',#415,.F.);
#417=PROPERTY_DEFINITION('',
'shape for solid data with which properties are associated',#416);
#418=SHAPE_REPRESENTATION('',(#386),#401);
#419=SHAPE_DEFINITION_REPRESENTATION(#417,#418);
#420=(LENGTH_UNIT()NAMED_UNIT(*)SI_UNIT(.MILLI.,.METRE.));
#426=PROPERTY_DEFINITION('geometric validation property','area of BODY2-4117',
#416);
#427=REPRESENTATION('surface area',(#425),#401);
#428=PROPERTY_DEFINITION_REPRESENTATION(#426,#427);
#429=(LENGTH_UNIT()NAMED_UNIT(*)SI_UNIT(.MILLI.,.METRE.));
#435=PROPERTY_DEFINITION('geometric validation property','volume of BODY2-4117',
#416);
#436=REPRESENTATION('volume',(#434),#401);
#437=PROPERTY_DEFINITION_REPRESENTATION(#435,#436);
#439=PROPERTY_DEFINITION('geometric validation property',
'centroid of BODY2-4117',#416);
#440=REPRESENTATION('centroid',(#438),#401);
#441=PROPERTY_DEFINITION_REPRESENTATION(#439,#440);
#442=(LENGTH_UNIT()NAMED_UNIT(*)SI_UNIT(.MILLI.,.METRE.));
#448=PROPERTY_DEFINITION('geometric validation property','area of BODY2-4117',
#415);
#449=REPRESENTATION('surface area',(#447),#401);
#450=PROPERTY_DEFINITION_REPRESENTATION(#448,#449);
#451=(LENGTH_UNIT()NAMED_UNIT(*)SI_UNIT(.MILLI.,.METRE.));
#457=PROPERTY_DEFINITION('geometric validation property','volume of BODY2-4117',
#415);
#458=REPRESENTATION('volume',(#456),#401);
#459=PROPERTY_DEFINITION_REPRESENTATION(#457,#458);
#461=PROPERTY_DEFINITION('geometric validation property',
'centroid of BODY2-4117',#415);
#462=REPRESENTATION('centroid',(#460),#401);
#463=PROPERTY_DEFINITION_REPRESENTATION(#461,#462);
#464=SHAPE_DEFINITION_REPRESENTATION(#415,#406);
ENDSEC;
END-ISO-10303-21;
