ISO-10303-21;
HEADER;
FILE_DESCRIPTION((''),'2;1');
FILE_NAME('BODY3-4122','2026-06-15T13:45:25',('Esia'),(''),
'CREO PARAMETRIC BY PTC INC, 2025102','CREO PARAMETRIC BY PTC INC, 2025102','');
FILE_SCHEMA((
'AP242_MANAGED_MODEL_BASED_3D_ENGINEERING_MIM_LF { 1 0 10303 442 1 1 4 }'));
ENDSEC;
DATA;
#23=DIRECTION('',(-1.E0,0.E0,0.E0));
#24=VECTOR('',#23,1.944881889764E-2);
#25=CARTESIAN_POINT('',(9.724409448819E-3,1.417322834709E-2,
-1.968503937008E-2));
#26=LINE('',#25,#24);
#27=DRAUGHTING_PRE_DEFINED_CURVE_FONT('continuous');
#28=CURVE_STYLE('',#27,POSITIVE_LENGTH_MEASURE(2.E-2),#1);
#29=PRESENTATION_STYLE_ASSIGNMENT((#28));
#30=STYLED_ITEM('',(#29),#26);
#31=DIRECTION('',(1.E0,0.E0,0.E0));
#32=VECTOR('',#31,1.944881889764E-2);
#33=CARTESIAN_POINT('',(-9.724409448819E-3,1.456692913449E-2,
-1.929133858268E-2));
#34=LINE('',#33,#32);
#35=CURVE_STYLE('',#27,POSITIVE_LENGTH_MEASURE(2.E-2),#1);
#36=PRESENTATION_STYLE_ASSIGNMENT((#35));
#37=STYLED_ITEM('',(#36),#34);
#38=DIRECTION('',(-1.E0,0.E0,0.E0));
#39=VECTOR('',#38,1.944881889764E-2);
#40=CARTESIAN_POINT('',(9.724409448819E-3,7.874015754295E-4,
-1.929133858268E-2));
#41=LINE('',#40,#39);
#42=CURVE_STYLE('',#27,POSITIVE_LENGTH_MEASURE(2.E-2),#1);
#43=PRESENTATION_STYLE_ASSIGNMENT((#42));
#44=STYLED_ITEM('',(#43),#41);
#45=DIRECTION('',(1.E0,0.E0,0.E0));
#46=VECTOR('',#45,1.944881889764E-2);
#47=CARTESIAN_POINT('',(-9.724409448819E-3,1.181102362831E-3,
-1.968503937008E-2));
#48=LINE('',#47,#46);
#49=CURVE_STYLE('',#27,POSITIVE_LENGTH_MEASURE(2.E-2),#1);
#50=PRESENTATION_STYLE_ASSIGNMENT((#49));
#51=STYLED_ITEM('',(#50),#48);
#52=DIRECTION('',(-1.E0,0.E0,0.E0));
#53=VECTOR('',#52,1.944881889764E-2);
#54=CARTESIAN_POINT('',(9.724409448819E-3,7.874015754295E-4,
-9.842519685039E-3));
#55=LINE('',#54,#53);
#56=CURVE_STYLE('',#27,POSITIVE_LENGTH_MEASURE(2.E-2),#1);
#57=PRESENTATION_STYLE_ASSIGNMENT((#56));
#58=STYLED_ITEM('',(#57),#55);
#59=DIRECTION('',(-1.E0,0.E0,0.E0));
#60=VECTOR('',#59,1.944881889764E-2);
#61=CARTESIAN_POINT('',(9.724409448819E-3,1.574803150233E-3,
-9.842519685039E-3));
#62=LINE('',#61,#60);
#63=CURVE_STYLE('',#27,POSITIVE_LENGTH_MEASURE(2.E-2),#1);
#64=PRESENTATION_STYLE_ASSIGNMENT((#63));
#65=STYLED_ITEM('',(#64),#62);
#66=DIRECTION('',(-1.E0,0.E0,0.E0));
#67=VECTOR('',#66,1.944881889764E-2);
#68=CARTESIAN_POINT('',(9.724409448819E-3,1.574803150233E-3,
-1.889763779528E-2));
#69=LINE('',#68,#67);
#70=CURVE_STYLE('',#27,POSITIVE_LENGTH_MEASURE(2.E-2),#1);
#71=PRESENTATION_STYLE_ASSIGNMENT((#70));
#72=STYLED_ITEM('',(#71),#69);
#73=DIRECTION('',(-1.E0,0.E0,0.E0));
#74=VECTOR('',#73,1.944881889764E-2);
#75=CARTESIAN_POINT('',(9.724409448819E-3,1.377952755969E-2,
-1.889763779528E-2));
#76=LINE('',#75,#74);
#77=CURVE_STYLE('',#27,POSITIVE_LENGTH_MEASURE(2.E-2),#1);
#78=PRESENTATION_STYLE_ASSIGNMENT((#77));
#79=STYLED_ITEM('',(#78),#76);
#80=DIRECTION('',(-1.E0,0.E0,0.E0));
#81=VECTOR('',#80,1.944881889764E-2);
#82=CARTESIAN_POINT('',(9.724409448819E-3,1.377952755969E-2,
-1.181102362205E-2));
#83=LINE('',#82,#81);
#84=CURVE_STYLE('',#27,POSITIVE_LENGTH_MEASURE(2.E-2),#1);
#85=PRESENTATION_STYLE_ASSIGNMENT((#84));
#86=STYLED_ITEM('',(#85),#83);
#87=DIRECTION('',(-1.E0,0.E0,0.E0));
#88=VECTOR('',#87,1.944881889764E-2);
#89=CARTESIAN_POINT('',(9.724409448819E-3,1.456692913449E-2,
-1.181102362205E-2));
#90=LINE('',#89,#88);
#91=CURVE_STYLE('',#27,POSITIVE_LENGTH_MEASURE(2.E-2),#1);
#92=PRESENTATION_STYLE_ASSIGNMENT((#91));
#93=STYLED_ITEM('',(#92),#90);
#94=DIRECTION('',(0.E0,0.E0,-1.E0));
#95=VECTOR('',#94,7.362204724409E-3);
#96=CARTESIAN_POINT('',(9.842519685039E-3,1.444881889827E-2,
-1.192913385827E-2));
#97=LINE('',#96,#95);
#98=CURVE_STYLE('',#27,POSITIVE_LENGTH_MEASURE(2.E-2),#1);
#99=PRESENTATION_STYLE_ASSIGNMENT((#98));
#100=STYLED_ITEM('',(#99),#97);
#101=DIRECTION('',(0.E0,0.E0,1.E0));
#102=VECTOR('',#101,7.480314960630E-3);
#103=CARTESIAN_POINT('',(9.724409448819E-3,1.456692913449E-2,
-1.929133858268E-2));
#104=LINE('',#103,#102);
#105=CURVE_STYLE('',#27,POSITIVE_LENGTH_MEASURE(2.E-2),#1);
#106=PRESENTATION_STYLE_ASSIGNMENT((#105));
#107=STYLED_ITEM('',(#106),#104);
#108=CARTESIAN_POINT('',(9.724409448819E-3,1.417322834709E-2,
-1.956692913386E-2));
#109=DIRECTION('',(0.E0,1.E0,0.E0));
#110=DIRECTION('',(1.E0,0.E0,0.E0));
#111=AXIS2_PLACEMENT_3D('',#108,#109,#110);
#113=CURVE_STYLE('',#27,POSITIVE_LENGTH_MEASURE(2.E-2),#1);
#114=PRESENTATION_STYLE_ASSIGNMENT((#113));
#115=STYLED_ITEM('',(#114),#112);
#116=CARTESIAN_POINT('',(9.724409448819E-3,1.444881889827E-2,
-1.929133858268E-2));
#117=DIRECTION('',(0.E0,0.E0,-1.E0));
#118=DIRECTION('',(0.E0,1.E0,0.E0));
#119=AXIS2_PLACEMENT_3D('',#116,#117,#118);
#121=CURVE_STYLE('',#27,POSITIVE_LENGTH_MEASURE(2.E-2),#1);
#122=PRESENTATION_STYLE_ASSIGNMENT((#121));
#123=STYLED_ITEM('',(#122),#120);
#124=CARTESIAN_POINT('',(9.724409448819E-3,1.417322834709E-2,
-1.929133858268E-2));
#125=DIRECTION('',(1.E0,0.E0,0.E0));
#126=DIRECTION('',(0.E0,0.E0,-1.E0));
#127=AXIS2_PLACEMENT_3D('',#124,#125,#126);
#129=CURVE_STYLE('',#27,POSITIVE_LENGTH_MEASURE(2.E-2),#1);
#130=PRESENTATION_STYLE_ASSIGNMENT((#129));
#131=STYLED_ITEM('',(#130),#128);
#132=DIRECTION('',(0.E0,-1.E0,0.E0));
#133=VECTOR('',#132,1.299212598426E-2);
#134=CARTESIAN_POINT('',(9.842519685039E-3,1.417322834709E-2,
-1.956692913386E-2));
#135=LINE('',#134,#133);
#136=CURVE_STYLE('',#27,POSITIVE_LENGTH_MEASURE(2.E-2),#1);
#137=PRESENTATION_STYLE_ASSIGNMENT((#136));
#138=STYLED_ITEM('',(#137),#135);
#139=DIRECTION('',(0.E0,1.E0,0.E0));
#140=VECTOR('',#139,1.299212598426E-2);
#141=CARTESIAN_POINT('',(9.724409448819E-3,1.181102362831E-3,
-1.968503937008E-2));
#142=LINE('',#141,#140);
#143=CURVE_STYLE('',#27,POSITIVE_LENGTH_MEASURE(2.E-2),#1);
#144=PRESENTATION_STYLE_ASSIGNMENT((#143));
#145=STYLED_ITEM('',(#144),#142);
#146=CARTESIAN_POINT('',(9.724409448819E-3,9.055118116500E-4,
-1.929133858268E-2));
#147=DIRECTION('',(0.E0,0.E0,-1.E0));
#148=DIRECTION('',(1.E0,-1.101549407245E-14,0.E0));
#149=AXIS2_PLACEMENT_3D('',#146,#147,#148);
#151=CURVE_STYLE('',#27,POSITIVE_LENGTH_MEASURE(2.E-2),#1);
#152=PRESENTATION_STYLE_ASSIGNMENT((#151));
#153=STYLED_ITEM('',(#152),#150);
#154=CARTESIAN_POINT('',(9.724409448819E-3,1.181102362831E-3,
-1.956692913386E-2));
#155=DIRECTION('',(0.E0,-1.E0,0.E0));
#156=DIRECTION('',(0.E0,0.E0,-1.E0));
#157=AXIS2_PLACEMENT_3D('',#154,#155,#156);
#159=CURVE_STYLE('',#27,POSITIVE_LENGTH_MEASURE(2.E-2),#1);
#160=PRESENTATION_STYLE_ASSIGNMENT((#159));
#161=STYLED_ITEM('',(#160),#158);
#162=CARTESIAN_POINT('',(9.724409448819E-3,1.181102362831E-3,
-1.929133858268E-2));
#163=DIRECTION('',(1.E0,0.E0,0.E0));
#164=DIRECTION('',(0.E0,-1.E0,0.E0));
#165=AXIS2_PLACEMENT_3D('',#162,#163,#164);
#167=CURVE_STYLE('',#27,POSITIVE_LENGTH_MEASURE(2.E-2),#1);
#168=PRESENTATION_STYLE_ASSIGNMENT((#167));
#169=STYLED_ITEM('',(#168),#166);
#170=DIRECTION('',(0.E0,0.E0,-1.E0));
#171=VECTOR('',#170,9.448818897638E-3);
#172=CARTESIAN_POINT('',(9.724409448819E-3,7.874015754295E-4,
-9.842519685039E-3));
#173=LINE('',#172,#171);
#174=CURVE_STYLE('',#27,POSITIVE_LENGTH_MEASURE(2.E-2),#1);
#175=PRESENTATION_STYLE_ASSIGNMENT((#174));
#176=STYLED_ITEM('',(#175),#173);
#177=DIRECTION('',(0.E0,0.E0,1.E0));
#178=VECTOR('',#177,9.330708661417E-3);
#179=CARTESIAN_POINT('',(9.842519685039E-3,9.055118116500E-4,
-1.929133858268E-2));
#180=LINE('',#179,#178);
#181=CURVE_STYLE('',#27,POSITIVE_LENGTH_MEASURE(2.E-2),#1);
#182=PRESENTATION_STYLE_ASSIGNMENT((#181));
#183=STYLED_ITEM('',(#182),#180);
#184=CARTESIAN_POINT('',(9.724409448819E-3,7.874015754295E-4,
-9.842519685039E-3));
#185=CARTESIAN_POINT('',(9.736123844629E-3,7.874015754295E-4,
-9.842519685039E-3));
#186=CARTESIAN_POINT('',(9.759875472921E-3,7.907130282753E-4,
-9.845835465235E-3));
#187=CARTESIAN_POINT('',(9.794637815441E-3,8.082659284025E-4,
-9.863346445598E-3));
#188=CARTESIAN_POINT('',(9.819636379032E-3,8.325762960845E-4,
-9.887686406155E-3));
#189=CARTESIAN_POINT('',(9.838248608806E-3,8.667817494699E-4,
-9.921897819603E-3));
#190=CARTESIAN_POINT('',(9.842519685039E-3,8.922163202304E-4,
-9.947334429840E-3));
#191=CARTESIAN_POINT('',(9.842519685039E-3,9.055118116500E-4,
-9.960629921260E-3));
#193=CURVE_STYLE('',#27,POSITIVE_LENGTH_MEASURE(2.E-2),#1);
#194=PRESENTATION_STYLE_ASSIGNMENT((#193));
#195=STYLED_ITEM('',(#194),#192);
#196=DIRECTION('',(0.E0,-1.E0,0.E0));
#197=VECTOR('',#196,7.874015748031E-4);
#198=CARTESIAN_POINT('',(9.724409448819E-3,1.574803150233E-3,
-9.842519685039E-3));
#199=LINE('',#198,#197);
#200=CURVE_STYLE('',#27,POSITIVE_LENGTH_MEASURE(2.E-2),#1);
#201=PRESENTATION_STYLE_ASSIGNMENT((#200));
#202=STYLED_ITEM('',(#201),#199);
#203=DIRECTION('',(0.E0,1.E0,0.E0));
#204=VECTOR('',#203,5.511811023622E-4);
#205=CARTESIAN_POINT('',(9.842519685039E-3,9.055118116500E-4,
-9.960629921260E-3));
#206=LINE('',#205,#204);
#207=CURVE_STYLE('',#27,POSITIVE_LENGTH_MEASURE(2.E-2),#1);
#208=PRESENTATION_STYLE_ASSIGNMENT((#207));
#209=STYLED_ITEM('',(#208),#206);
#210=CARTESIAN_POINT('',(9.724409448819E-3,1.574803150233E-3,
-9.842519685039E-3));
#211=CARTESIAN_POINT('',(9.736123844629E-3,1.574803150233E-3,
-9.842519685039E-3));
#212=CARTESIAN_POINT('',(9.759875472922E-3,1.571487370037E-3,
-9.845831137885E-3));
#213=CARTESIAN_POINT('',(9.794637815442E-3,1.553976389673E-3,
-9.863384038011E-3));
#214=CARTESIAN_POINT('',(9.819636379034E-3,1.529636429116E-3,
-9.887694405693E-3));
#215=CARTESIAN_POINT('',(9.838248608806E-3,1.495425015667E-3,
-9.921899859078E-3));
#216=CARTESIAN_POINT('',(9.842519685039E-3,1.469988405432E-3,
-9.947334429840E-3));
#217=CARTESIAN_POINT('',(9.842519685039E-3,1.456692914012E-3,
-9.960629921260E-3));
#219=CURVE_STYLE('',#27,POSITIVE_LENGTH_MEASURE(2.E-2),#1);
#220=PRESENTATION_STYLE_ASSIGNMENT((#219));
#221=STYLED_ITEM('',(#220),#218);
#222=DIRECTION('',(0.E0,0.E0,1.E0));
#223=VECTOR('',#222,9.055118110236E-3);
#224=CARTESIAN_POINT('',(9.724409448819E-3,1.574803150233E-3,
-1.889763779528E-2));
#225=LINE('',#224,#223);
#226=CURVE_STYLE('',#27,POSITIVE_LENGTH_MEASURE(2.E-2),#1);
#227=PRESENTATION_STYLE_ASSIGNMENT((#226));
#228=STYLED_ITEM('',(#227),#225);
#229=DIRECTION('',(0.E0,0.E0,-1.E0));
#230=VECTOR('',#229,9.055118110236E-3);
#231=CARTESIAN_POINT('',(9.842519685039E-3,1.456692914012E-3,
-9.960629921260E-3));
#232=LINE('',#231,#230);
#233=CURVE_STYLE('',#27,POSITIVE_LENGTH_MEASURE(2.E-2),#1);
#234=PRESENTATION_STYLE_ASSIGNMENT((#233));
#235=STYLED_ITEM('',(#234),#232);
#236=CARTESIAN_POINT('',(9.724409448819E-3,1.574803150233E-3,
-1.889763779528E-2));
#237=CARTESIAN_POINT('',(9.736123844629E-3,1.574803150233E-3,
-1.889763779528E-2));
#238=CARTESIAN_POINT('',(9.759875472921E-3,1.571491697387E-3,
-1.890095357547E-2));
#239=CARTESIAN_POINT('',(9.794637815441E-3,1.553938797260E-3,
-1.891846455583E-2));
#240=CARTESIAN_POINT('',(9.819636379032E-3,1.529628429578E-3,
-1.894280451639E-2));
#241=CARTESIAN_POINT('',(9.838248608806E-3,1.495422976192E-3,
-1.897701592984E-2));
#242=CARTESIAN_POINT('',(9.842519685039E-3,1.469988405432E-3,
-1.900245254008E-2));
#243=CARTESIAN_POINT('',(9.842519685039E-3,1.456692914012E-3,
-1.901574803150E-2));
#245=CURVE_STYLE('',#27,POSITIVE_LENGTH_MEASURE(2.E-2),#1);
#246=PRESENTATION_STYLE_ASSIGNMENT((#245));
#247=STYLED_ITEM('',(#246),#244);
#248=DIRECTION('',(0.E0,-1.E0,0.E0));
#249=VECTOR('',#248,1.220472440945E-2);
#250=CARTESIAN_POINT('',(9.724409448819E-3,1.377952755969E-2,
-1.889763779528E-2));
#251=LINE('',#250,#249);
#252=CURVE_STYLE('',#27,POSITIVE_LENGTH_MEASURE(2.E-2),#1);
#253=PRESENTATION_STYLE_ASSIGNMENT((#252));
#254=STYLED_ITEM('',(#253),#251);
#255=DIRECTION('',(0.E0,1.E0,0.E0));
#256=VECTOR('',#255,1.244094488189E-2);
#257=CARTESIAN_POINT('',(9.842519685039E-3,1.456692914012E-3,
-1.901574803150E-2));
#258=LINE('',#257,#256);
#259=CURVE_STYLE('',#27,POSITIVE_LENGTH_MEASURE(2.E-2),#1);
#260=PRESENTATION_STYLE_ASSIGNMENT((#259));
#261=STYLED_ITEM('',(#260),#258);
#262=CARTESIAN_POINT('',(9.724409448819E-3,1.377952755969E-2,
-1.889763779528E-2));
#263=CARTESIAN_POINT('',(9.736123844629E-3,1.377952755969E-2,
-1.889763779528E-2));
#264=CARTESIAN_POINT('',(9.759875472922E-3,1.378284333988E-2,
-1.890094924812E-2));
#265=CARTESIAN_POINT('',(9.794637815441E-3,1.380035432024E-2,
-1.891850214825E-2));
#266=CARTESIAN_POINT('',(9.819636379033E-3,1.382469428080E-2,
-1.894281251593E-2));
#267=CARTESIAN_POINT('',(9.838248608806E-3,1.385890569425E-2,
-1.897701796931E-2));
#268=CARTESIAN_POINT('',(9.842519685039E-3,1.388434230449E-2,
-1.900245254008E-2));
#269=CARTESIAN_POINT('',(9.842519685039E-3,1.389763779591E-2,
-1.901574803150E-2));
#271=CURVE_STYLE('',#27,POSITIVE_LENGTH_MEASURE(2.E-2),#1);
#272=PRESENTATION_STYLE_ASSIGNMENT((#271));
#273=STYLED_ITEM('',(#272),#270);
#274=DIRECTION('',(0.E0,0.E0,-1.E0));
#275=VECTOR('',#274,7.086614173228E-3);
#276=CARTESIAN_POINT('',(9.724409448819E-3,1.377952755969E-2,
-1.181102362205E-2));
#277=LINE('',#276,#275);
#278=CURVE_STYLE('',#27,POSITIVE_LENGTH_MEASURE(2.E-2),#1);
#279=PRESENTATION_STYLE_ASSIGNMENT((#278));
#280=STYLED_ITEM('',(#279),#277);
#281=DIRECTION('',(0.E0,0.E0,1.E0));
#282=VECTOR('',#281,7.086614173228E-3);
#283=CARTESIAN_POINT('',(9.842519685039E-3,1.389763779591E-2,
-1.901574803150E-2));
#284=LINE('',#283,#282);
#285=CURVE_STYLE('',#27,POSITIVE_LENGTH_MEASURE(2.E-2),#1);
#286=PRESENTATION_STYLE_ASSIGNMENT((#285));
#287=STYLED_ITEM('',(#286),#284);
#288=CARTESIAN_POINT('',(9.724409448819E-3,1.377952755969E-2,
-1.181102362205E-2));
#289=CARTESIAN_POINT('',(9.736123844629E-3,1.377952755969E-2,
-1.181102362205E-2));
#290=CARTESIAN_POINT('',(9.759875472922E-3,1.378283901253E-2,
-1.181433940224E-2));
#291=CARTESIAN_POINT('',(9.794637815441E-3,1.380039191266E-2,
-1.183185038261E-2));
#292=CARTESIAN_POINT('',(9.819636379033E-3,1.382470228034E-2,
-1.185619034316E-2));
#293=CARTESIAN_POINT('',(9.838248608806E-3,1.385890773372E-2,
-1.189040175661E-2));
#294=CARTESIAN_POINT('',(9.842519685039E-3,1.388434230449E-2,
-1.191583836685E-2));
#295=CARTESIAN_POINT('',(9.842519685039E-3,1.389763779591E-2,
-1.192913385827E-2));
#297=CURVE_STYLE('',#27,POSITIVE_LENGTH_MEASURE(2.E-2),#1);
#298=PRESENTATION_STYLE_ASSIGNMENT((#297));
#299=STYLED_ITEM('',(#298),#296);
#300=DIRECTION('',(0.E0,-1.E0,0.E0));
#301=VECTOR('',#300,7.874015748031E-4);
#302=CARTESIAN_POINT('',(9.724409448819E-3,1.456692913449E-2,
-1.181102362205E-2));
#303=LINE('',#302,#301);
#304=CURVE_STYLE('',#27,POSITIVE_LENGTH_MEASURE(2.E-2),#1);
#305=PRESENTATION_STYLE_ASSIGNMENT((#304));
#306=STYLED_ITEM('',(#305),#303);
#307=CARTESIAN_POINT('',(9.842519685039E-3,1.444881889827E-2,
-1.192913385827E-2));
#308=CARTESIAN_POINT('',(9.842519685039E-3,1.446204078948E-2,
-1.191591196706E-2));
#309=CARTESIAN_POINT('',(9.838351147273E-3,1.448751179376E-2,
-1.189043785893E-2));
#310=CARTESIAN_POINT('',(9.819033375187E-3,1.452271181453E-2,
-1.185523799210E-2));
#311=CARTESIAN_POINT('',(9.793159866348E-3,1.454724426224E-2,
-1.183066716869E-2));
#312=CARTESIAN_POINT('',(9.757238722662E-3,1.456435758204E-2,
-1.181360317594E-2));
#313=CARTESIAN_POINT('',(9.734999470150E-3,1.456692913449E-2,
-1.181102362205E-2));
#314=CARTESIAN_POINT('',(9.724409448819E-3,1.456692913449E-2,
-1.181102362205E-2));
#316=CURVE_STYLE('',#27,POSITIVE_LENGTH_MEASURE(2.E-2),#1);
#317=PRESENTATION_STYLE_ASSIGNMENT((#316));
#318=STYLED_ITEM('',(#317),#315);
#319=DIRECTION('',(0.E0,1.E0,0.E0));
#320=VECTOR('',#319,5.511811023622E-4);
#321=CARTESIAN_POINT('',(9.842519685039E-3,1.389763779591E-2,
-1.192913385827E-2));
#322=LINE('',#321,#320);
#323=CURVE_STYLE('',#27,POSITIVE_LENGTH_MEASURE(2.E-2),#1);
#324=PRESENTATION_STYLE_ASSIGNMENT((#323));
#325=STYLED_ITEM('',(#324),#322);
#326=CARTESIAN_POINT('',(9.842519685039E-3,1.417322834709E-2,
-1.929133858268E-2));
#327=DIRECTION('',(1.E0,0.E0,0.E0));
#328=DIRECTION('',(0.E0,0.E0,-1.E0));
#329=AXIS2_PLACEMENT_3D('',#326,#327,#328);
#331=CURVE_STYLE('',#27,POSITIVE_LENGTH_MEASURE(2.E-2),#1);
#332=PRESENTATION_STYLE_ASSIGNMENT((#331));
#333=STYLED_ITEM('',(#332),#330);
#334=CARTESIAN_POINT('',(9.842519685039E-3,1.181102362831E-3,
-1.929133858268E-2));
#335=DIRECTION('',(1.E0,0.E0,0.E0));
#336=DIRECTION('',(0.E0,-1.E0,3.776740824841E-14));
#337=AXIS2_PLACEMENT_3D('',#334,#335,#336);
#339=CURVE_STYLE('',#27,POSITIVE_LENGTH_MEASURE(2.E-2),#1);
#340=PRESENTATION_STYLE_ASSIGNMENT((#339));
#341=STYLED_ITEM('',(#340),#338);
#342=CARTESIAN_POINT('',(-9.842519685039E-3,1.444881889827E-2,
-1.192913385827E-2));
#343=CARTESIAN_POINT('',(-9.842519685039E-3,1.446204078948E-2,
-1.191591196706E-2));
#344=CARTESIAN_POINT('',(-9.838351147273E-3,1.448751489760E-2,
-1.189044096278E-2));
#345=CARTESIAN_POINT('',(-9.819033375187E-3,1.452271476444E-2,
-1.185524094200E-2));
#346=CARTESIAN_POINT('',(-9.793159866348E-3,1.454728558784E-2,
-1.183070849430E-2));
#347=CARTESIAN_POINT('',(-9.757238722662E-3,1.456434958059E-2,
-1.181359517449E-2));
#348=CARTESIAN_POINT('',(-9.734999470150E-3,1.456692913449E-2,
-1.181102362205E-2));
#349=CARTESIAN_POINT('',(-9.724409448819E-3,1.456692913449E-2,
-1.181102362205E-2));
#351=CURVE_STYLE('',#27,POSITIVE_LENGTH_MEASURE(2.E-2),#1);
#352=PRESENTATION_STYLE_ASSIGNMENT((#351));
#353=STYLED_ITEM('',(#352),#350);
#354=DIRECTION('',(0.E0,0.E0,1.E0));
#355=VECTOR('',#354,7.362204724409E-3);
#356=CARTESIAN_POINT('',(-9.842519685039E-3,1.444881889827E-2,
-1.929133858268E-2));
#357=LINE('',#356,#355);
#358=CURVE_STYLE('',#27,POSITIVE_LENGTH_MEASURE(2.E-2),#1);
#359=PRESENTATION_STYLE_ASSIGNMENT((#358));
#360=STYLED_ITEM('',(#359),#357);
#361=DIRECTION('',(0.E0,0.E0,-1.E0));
#362=VECTOR('',#361,7.480314960630E-3);
#363=CARTESIAN_POINT('',(-9.724409448819E-3,1.456692913449E-2,
-1.181102362205E-2));
#364=LINE('',#363,#362);
#365=CURVE_STYLE('',#27,POSITIVE_LENGTH_MEASURE(2.E-2),#1);
#366=PRESENTATION_STYLE_ASSIGNMENT((#365));
#367=STYLED_ITEM('',(#366),#364);
#368=CARTESIAN_POINT('',(-9.842519685039E-3,1.389763779591E-2,
-1.192913385827E-2));
#369=CARTESIAN_POINT('',(-9.842519685039E-3,1.388441590470E-2,
-1.191591196706E-2));
#370=CARTESIAN_POINT('',(-9.838351147273E-3,1.385894490042E-2,
-1.189043785893E-2));
#371=CARTESIAN_POINT('',(-9.819033375187E-3,1.382374487964E-2,
-1.185523799210E-2));
#372=CARTESIAN_POINT('',(-9.793159866348E-3,1.379921243193E-2,
-1.183066716869E-2));
#373=CARTESIAN_POINT('',(-9.757238722662E-3,1.378209911213E-2,
-1.181360317594E-2));
#374=CARTESIAN_POINT('',(-9.734999470150E-3,1.377952755969E-2,
-1.181102362205E-2));
#375=CARTESIAN_POINT('',(-9.724409448819E-3,1.377952755969E-2,
-1.181102362205E-2));
#377=CURVE_STYLE('',#27,POSITIVE_LENGTH_MEASURE(2.E-2),#1);
#378=PRESENTATION_STYLE_ASSIGNMENT((#377));
#379=STYLED_ITEM('',(#378),#376);
#380=DIRECTION('',(0.E0,-1.E0,0.E0));
#381=VECTOR('',#380,5.511811023622E-4);
#382=CARTESIAN_POINT('',(-9.842519685039E-3,1.444881889827E-2,
-1.192913385827E-2));
#383=LINE('',#382,#381);
#384=CURVE_STYLE('',#27,POSITIVE_LENGTH_MEASURE(2.E-2),#1);
#385=PRESENTATION_STYLE_ASSIGNMENT((#384));
#386=STYLED_ITEM('',(#385),#383);
#387=DIRECTION('',(0.E0,1.E0,0.E0));
#388=VECTOR('',#387,7.874015748032E-4);
#389=CARTESIAN_POINT('',(-9.724409448819E-3,1.377952755969E-2,
-1.181102362205E-2));
#390=LINE('',#389,#388);
#391=CURVE_STYLE('',#27,POSITIVE_LENGTH_MEASURE(2.E-2),#1);
#392=PRESENTATION_STYLE_ASSIGNMENT((#391));
#393=STYLED_ITEM('',(#392),#390);
#394=CARTESIAN_POINT('',(-9.842519685039E-3,1.389763779591E-2,
-1.901574803150E-2));
#395=CARTESIAN_POINT('',(-9.842519685039E-3,1.388441590470E-2,
-1.900252614029E-2));
#396=CARTESIAN_POINT('',(-9.838351147273E-3,1.385894179657E-2,
-1.897705513601E-2));
#397=CARTESIAN_POINT('',(-9.819033375187E-3,1.382374192973E-2,
-1.894185511523E-2));
#398=CARTESIAN_POINT('',(-9.793159866348E-3,1.379917110633E-2,
-1.891732266752E-2));
#399=CARTESIAN_POINT('',(-9.757238722662E-3,1.378210711358E-2,
-1.890020934772E-2));
#400=CARTESIAN_POINT('',(-9.734999470150E-3,1.377952755969E-2,
-1.889763779528E-2));
#401=CARTESIAN_POINT('',(-9.724409448819E-3,1.377952755969E-2,
-1.889763779528E-2));
#403=CURVE_STYLE('',#27,POSITIVE_LENGTH_MEASURE(2.E-2),#1);
#404=PRESENTATION_STYLE_ASSIGNMENT((#403));
#405=STYLED_ITEM('',(#404),#402);
#406=DIRECTION('',(0.E0,0.E0,-1.E0));
#407=VECTOR('',#406,7.086614173228E-3);
#408=CARTESIAN_POINT('',(-9.842519685039E-3,1.389763779591E-2,
-1.192913385827E-2));
#409=LINE('',#408,#407);
#410=CURVE_STYLE('',#27,POSITIVE_LENGTH_MEASURE(2.E-2),#1);
#411=PRESENTATION_STYLE_ASSIGNMENT((#410));
#412=STYLED_ITEM('',(#411),#409);
#413=DIRECTION('',(0.E0,0.E0,1.E0));
#414=VECTOR('',#413,7.086614173228E-3);
#415=CARTESIAN_POINT('',(-9.724409448819E-3,1.377952755969E-2,
-1.889763779528E-2));
#416=LINE('',#415,#414);
#417=CURVE_STYLE('',#27,POSITIVE_LENGTH_MEASURE(2.E-2),#1);
#418=PRESENTATION_STYLE_ASSIGNMENT((#417));
#419=STYLED_ITEM('',(#418),#416);
#420=DIRECTION('',(0.E0,1.E0,0.E0));
#421=VECTOR('',#420,1.220472440945E-2);
#422=CARTESIAN_POINT('',(-9.724409448819E-3,1.574803150233E-3,
-1.889763779528E-2));
#423=LINE('',#422,#421);
#424=CURVE_STYLE('',#27,POSITIVE_LENGTH_MEASURE(2.E-2),#1);
#425=PRESENTATION_STYLE_ASSIGNMENT((#424));
#426=STYLED_ITEM('',(#425),#423);
#427=DIRECTION('',(0.E0,-1.E0,0.E0));
#428=VECTOR('',#427,1.244094488189E-2);
#429=CARTESIAN_POINT('',(-9.842519685039E-3,1.389763779591E-2,
-1.901574803150E-2));
#430=LINE('',#429,#428);
#431=CURVE_STYLE('',#27,POSITIVE_LENGTH_MEASURE(2.E-2),#1);
#432=PRESENTATION_STYLE_ASSIGNMENT((#431));
#433=STYLED_ITEM('',(#432),#430);
#434=CARTESIAN_POINT('',(-9.724409448819E-3,1.574803150233E-3,
-1.889763779528E-2));
#435=CARTESIAN_POINT('',(-9.736123844629E-3,1.574803150233E-3,
-1.889763779528E-2));
#436=CARTESIAN_POINT('',(-9.759875472922E-3,1.571487370037E-3,
-1.890094924812E-2));
#437=CARTESIAN_POINT('',(-9.794637815442E-3,1.553976389673E-3,
-1.891850214825E-2));
#438=CARTESIAN_POINT('',(-9.819636379034E-3,1.529636429116E-3,
-1.894281251593E-2));
#439=CARTESIAN_POINT('',(-9.838248608806E-3,1.495425015667E-3,
-1.897701796931E-2));
#440=CARTESIAN_POINT('',(-9.842519685039E-3,1.469988405432E-3,
-1.900245254008E-2));
#441=CARTESIAN_POINT('',(-9.842519685039E-3,1.456692914012E-3,
-1.901574803150E-2));
#443=CURVE_STYLE('',#27,POSITIVE_LENGTH_MEASURE(2.E-2),#1);
#444=PRESENTATION_STYLE_ASSIGNMENT((#443));
#445=STYLED_ITEM('',(#444),#442);
#446=DIRECTION('',(0.E0,0.E0,-1.E0));
#447=VECTOR('',#446,9.055118110236E-3);
#448=CARTESIAN_POINT('',(-9.724409448819E-3,1.574803150233E-3,
-9.842519685039E-3));
#449=LINE('',#448,#447);
#450=CURVE_STYLE('',#27,POSITIVE_LENGTH_MEASURE(2.E-2),#1);
#451=PRESENTATION_STYLE_ASSIGNMENT((#450));
#452=STYLED_ITEM('',(#451),#449);
#453=DIRECTION('',(0.E0,0.E0,1.E0));
#454=VECTOR('',#453,9.055118110236E-3);
#455=CARTESIAN_POINT('',(-9.842519685039E-3,1.456692914012E-3,
-1.901574803150E-2));
#456=LINE('',#455,#454);
#457=CURVE_STYLE('',#27,POSITIVE_LENGTH_MEASURE(2.E-2),#1);
#458=PRESENTATION_STYLE_ASSIGNMENT((#457));
#459=STYLED_ITEM('',(#458),#456);
#460=CARTESIAN_POINT('',(-9.724409448819E-3,1.574803150233E-3,
-9.842519685039E-3));
#461=CARTESIAN_POINT('',(-9.736123844629E-3,1.574803150233E-3,
-9.842519685039E-3));
#462=CARTESIAN_POINT('',(-9.759875472921E-3,1.571491697387E-3,
-9.845835465235E-3));
#463=CARTESIAN_POINT('',(-9.794637815441E-3,1.553938797260E-3,
-9.863346445598E-3));
#464=CARTESIAN_POINT('',(-9.819636379032E-3,1.529628429578E-3,
-9.887686406155E-3));
#465=CARTESIAN_POINT('',(-9.838248608806E-3,1.495422976192E-3,
-9.921897819603E-3));
#466=CARTESIAN_POINT('',(-9.842519685039E-3,1.469988405432E-3,
-9.947334429840E-3));
#467=CARTESIAN_POINT('',(-9.842519685039E-3,1.456692914012E-3,
-9.960629921260E-3));
#469=CURVE_STYLE('',#27,POSITIVE_LENGTH_MEASURE(2.E-2),#1);
#470=PRESENTATION_STYLE_ASSIGNMENT((#469));
#471=STYLED_ITEM('',(#470),#468);
#472=DIRECTION('',(0.E0,1.E0,0.E0));
#473=VECTOR('',#472,7.874015748031E-4);
#474=CARTESIAN_POINT('',(-9.724409448819E-3,7.874015754295E-4,
-9.842519685039E-3));
#475=LINE('',#474,#473);
#476=CURVE_STYLE('',#27,POSITIVE_LENGTH_MEASURE(2.E-2),#1);
#477=PRESENTATION_STYLE_ASSIGNMENT((#476));
#478=STYLED_ITEM('',(#477),#475);
#479=DIRECTION('',(0.E0,-1.E0,0.E0));
#480=VECTOR('',#479,5.511811023622E-4);
#481=CARTESIAN_POINT('',(-9.842519685039E-3,1.456692914012E-3,
-9.960629921260E-3));
#482=LINE('',#481,#480);
#483=CURVE_STYLE('',#27,POSITIVE_LENGTH_MEASURE(2.E-2),#1);
#484=PRESENTATION_STYLE_ASSIGNMENT((#483));
#485=STYLED_ITEM('',(#484),#482);
#486=CARTESIAN_POINT('',(-9.724409448819E-3,7.874015754295E-4,
-9.842519685039E-3));
#487=CARTESIAN_POINT('',(-9.736123844629E-3,7.874015754295E-4,
-9.842519685039E-3));
#488=CARTESIAN_POINT('',(-9.759875472922E-3,7.907173556252E-4,
-9.845831137885E-3));
#489=CARTESIAN_POINT('',(-9.794637815442E-3,8.082283359888E-4,
-9.863384038011E-3));
#490=CARTESIAN_POINT('',(-9.819636379034E-3,8.325682965467E-4,
-9.887694405693E-3));
#491=CARTESIAN_POINT('',(-9.838248608806E-3,8.667797099951E-4,
-9.921899859078E-3));
#492=CARTESIAN_POINT('',(-9.842519685039E-3,8.922163202304E-4,
-9.947334429840E-3));
#493=CARTESIAN_POINT('',(-9.842519685039E-3,9.055118116500E-4,
-9.960629921260E-3));
#495=CURVE_STYLE('',#27,POSITIVE_LENGTH_MEASURE(2.E-2),#1);
#496=PRESENTATION_STYLE_ASSIGNMENT((#495));
#497=STYLED_ITEM('',(#496),#494);
#498=DIRECTION('',(0.E0,0.E0,1.E0));
#499=VECTOR('',#498,9.448818897638E-3);
#500=CARTESIAN_POINT('',(-9.724409448819E-3,7.874015754295E-4,
-1.929133858268E-2));
#501=LINE('',#500,#499);
#502=CURVE_STYLE('',#27,POSITIVE_LENGTH_MEASURE(2.E-2),#1);
#503=PRESENTATION_STYLE_ASSIGNMENT((#502));
#504=STYLED_ITEM('',(#503),#501);
#505=DIRECTION('',(0.E0,0.E0,-1.E0));
#506=VECTOR('',#505,9.330708661417E-3);
#507=CARTESIAN_POINT('',(-9.842519685039E-3,9.055118116500E-4,
-9.960629921260E-3));
#508=LINE('',#507,#506);
#509=CURVE_STYLE('',#27,POSITIVE_LENGTH_MEASURE(2.E-2),#1);
#510=PRESENTATION_STYLE_ASSIGNMENT((#509));
#511=STYLED_ITEM('',(#510),#508);
#512=CARTESIAN_POINT('',(-9.724409448819E-3,9.055118116500E-4,
-1.929133858268E-2));
#513=DIRECTION('',(0.E0,0.E0,-1.E0));
#514=DIRECTION('',(0.E0,-1.E0,0.E0));
#515=AXIS2_PLACEMENT_3D('',#512,#513,#514);
#517=CURVE_STYLE('',#27,POSITIVE_LENGTH_MEASURE(2.E-2),#1);
#518=PRESENTATION_STYLE_ASSIGNMENT((#517));
#519=STYLED_ITEM('',(#518),#516);
#520=CARTESIAN_POINT('',(-9.724409448819E-3,1.181102362831E-3,
-1.929133858268E-2));
#521=DIRECTION('',(-1.E0,0.E0,0.E0));
#522=DIRECTION('',(0.E0,0.E0,-1.E0));
#523=AXIS2_PLACEMENT_3D('',#520,#521,#522);
#525=CURVE_STYLE('',#27,POSITIVE_LENGTH_MEASURE(2.E-2),#1);
#526=PRESENTATION_STYLE_ASSIGNMENT((#525));
#527=STYLED_ITEM('',(#526),#524);
#528=CARTESIAN_POINT('',(-9.724409448819E-3,1.181102362831E-3,
-1.956692913386E-2));
#529=DIRECTION('',(0.E0,-1.E0,0.E0));
#530=DIRECTION('',(-1.E0,0.E0,0.E0));
#531=AXIS2_PLACEMENT_3D('',#528,#529,#530);
#533=CURVE_STYLE('',#27,POSITIVE_LENGTH_MEASURE(2.E-2),#1);
#534=PRESENTATION_STYLE_ASSIGNMENT((#533));
#535=STYLED_ITEM('',(#534),#532);
#536=DIRECTION('',(0.E0,-1.E0,0.E0));
#537=VECTOR('',#536,1.299212598426E-2);
#538=CARTESIAN_POINT('',(-9.724409448819E-3,1.417322834709E-2,
-1.968503937008E-2));
#539=LINE('',#538,#537);
#540=CURVE_STYLE('',#27,POSITIVE_LENGTH_MEASURE(2.E-2),#1);
#541=PRESENTATION_STYLE_ASSIGNMENT((#540));
#542=STYLED_ITEM('',(#541),#539);
#543=DIRECTION('',(0.E0,1.E0,0.E0));
#544=VECTOR('',#543,1.299212598426E-2);
#545=CARTESIAN_POINT('',(-9.842519685039E-3,1.181102362831E-3,
-1.956692913386E-2));
#546=LINE('',#545,#544);
#547=CURVE_STYLE('',#27,POSITIVE_LENGTH_MEASURE(2.E-2),#1);
#548=PRESENTATION_STYLE_ASSIGNMENT((#547));
#549=STYLED_ITEM('',(#548),#546);
#550=CARTESIAN_POINT('',(-9.724409448819E-3,1.444881889827E-2,
-1.929133858268E-2));
#551=DIRECTION('',(0.E0,0.E0,-1.E0));
#552=DIRECTION('',(-1.E0,1.468732542994E-14,0.E0));
#553=AXIS2_PLACEMENT_3D('',#550,#551,#552);
#555=CURVE_STYLE('',#27,POSITIVE_LENGTH_MEASURE(2.E-2),#1);
#556=PRESENTATION_STYLE_ASSIGNMENT((#555));
#557=STYLED_ITEM('',(#556),#554);
#558=CARTESIAN_POINT('',(-9.724409448819E-3,1.417322834709E-2,
-1.956692913386E-2));
#559=DIRECTION('',(0.E0,1.E0,0.E0));
#560=DIRECTION('',(0.E0,0.E0,-1.E0));
#561=AXIS2_PLACEMENT_3D('',#558,#559,#560);
#563=CURVE_STYLE('',#27,POSITIVE_LENGTH_MEASURE(2.E-2),#1);
#564=PRESENTATION_STYLE_ASSIGNMENT((#563));
#565=STYLED_ITEM('',(#564),#562);
#566=CARTESIAN_POINT('',(-9.724409448819E-3,1.417322834709E-2,
-1.929133858268E-2));
#567=DIRECTION('',(-1.E0,0.E0,0.E0));
#568=DIRECTION('',(0.E0,1.E0,0.E0));
#569=AXIS2_PLACEMENT_3D('',#566,#567,#568);
#571=CURVE_STYLE('',#27,POSITIVE_LENGTH_MEASURE(2.E-2),#1);
#572=PRESENTATION_STYLE_ASSIGNMENT((#571));
#573=STYLED_ITEM('',(#572),#570);
#574=CARTESIAN_POINT('',(-9.842519685039E-3,1.181102362831E-3,
-1.929133858268E-2));
#575=DIRECTION('',(-1.E0,0.E0,0.E0));
#576=DIRECTION('',(0.E0,0.E0,-1.E0));
#577=AXIS2_PLACEMENT_3D('',#574,#575,#576);
#579=CURVE_STYLE('',#27,POSITIVE_LENGTH_MEASURE(2.E-2),#1);
#580=PRESENTATION_STYLE_ASSIGNMENT((#579));
#581=STYLED_ITEM('',(#580),#578);
#582=CARTESIAN_POINT('',(-9.842519685039E-3,1.417322834709E-2,
-1.929133858268E-2));
#583=DIRECTION('',(-1.E0,0.E0,0.E0));
#584=DIRECTION('',(0.E0,1.E0,0.E0));
#585=AXIS2_PLACEMENT_3D('',#582,#583,#584);
#587=CURVE_STYLE('',#27,POSITIVE_LENGTH_MEASURE(2.E-2),#1);
#588=PRESENTATION_STYLE_ASSIGNMENT((#587));
#589=STYLED_ITEM('',(#588),#586);
#590=CARTESIAN_POINT('',(9.724409448819E-3,1.417322834709E-2,
-1.968503937008E-2));
#591=CARTESIAN_POINT('',(-9.724409448819E-3,1.417322834709E-2,
-1.968503937008E-2));
#592=VERTEX_POINT('',#590);
#593=VERTEX_POINT('',#591);
#594=CARTESIAN_POINT('',(-9.724409448819E-3,1.456692913449E-2,
-1.929133858268E-2));
#595=VERTEX_POINT('',#594);
#596=CARTESIAN_POINT('',(9.724409448819E-3,1.456692913449E-2,
-1.929133858268E-2));
#597=VERTEX_POINT('',#596);
#598=CARTESIAN_POINT('',(-9.724409448819E-3,1.456692913449E-2,
-1.181102362205E-2));
#599=VERTEX_POINT('',#598);
#600=CARTESIAN_POINT('',(9.724409448819E-3,1.456692913449E-2,
-1.181102362205E-2));
#601=VERTEX_POINT('',#600);
#602=CARTESIAN_POINT('',(-9.724409448819E-3,1.377952755969E-2,
-1.181102362205E-2));
#603=VERTEX_POINT('',#602);
#604=CARTESIAN_POINT('',(9.724409448819E-3,1.377952755969E-2,
-1.181102362205E-2));
#605=VERTEX_POINT('',#604);
#606=CARTESIAN_POINT('',(-9.724409448819E-3,1.377952755969E-2,
-1.889763779528E-2));
#607=VERTEX_POINT('',#606);
#608=CARTESIAN_POINT('',(9.724409448819E-3,1.377952755969E-2,
-1.889763779528E-2));
#609=VERTEX_POINT('',#608);
#610=CARTESIAN_POINT('',(-9.724409448819E-3,1.574803150233E-3,
-1.889763779528E-2));
#611=VERTEX_POINT('',#610);
#612=CARTESIAN_POINT('',(9.724409448819E-3,1.574803150233E-3,
-1.889763779528E-2));
#613=VERTEX_POINT('',#612);
#614=CARTESIAN_POINT('',(-9.724409448819E-3,1.574803150233E-3,
-9.842519685039E-3));
#615=VERTEX_POINT('',#614);
#616=CARTESIAN_POINT('',(9.724409448819E-3,1.574803150233E-3,
-9.842519685039E-3));
#617=VERTEX_POINT('',#616);
#618=CARTESIAN_POINT('',(-9.724409448819E-3,7.874015754295E-4,
-9.842519685039E-3));
#619=VERTEX_POINT('',#618);
#620=CARTESIAN_POINT('',(9.724409448819E-3,7.874015754295E-4,
-9.842519685039E-3));
#621=VERTEX_POINT('',#620);
#622=CARTESIAN_POINT('',(-9.724409448819E-3,7.874015754295E-4,
-1.929133858268E-2));
#623=VERTEX_POINT('',#622);
#624=CARTESIAN_POINT('',(9.724409448819E-3,7.874015754295E-4,
-1.929133858268E-2));
#625=VERTEX_POINT('',#624);
#626=CARTESIAN_POINT('',(-9.724409448819E-3,1.181102362831E-3,
-1.968503937008E-2));
#627=VERTEX_POINT('',#626);
#628=CARTESIAN_POINT('',(9.724409448819E-3,1.181102362831E-3,
-1.968503937008E-2));
#629=VERTEX_POINT('',#628);
#630=CARTESIAN_POINT('',(-9.842519685039E-3,1.181102362831E-3,
-1.956692913386E-2));
#631=CARTESIAN_POINT('',(-9.842519685039E-3,9.055118116500E-4,
-1.929133858268E-2));
#632=VERTEX_POINT('',#630);
#633=VERTEX_POINT('',#631);
#634=CARTESIAN_POINT('',(-9.842519685039E-3,9.055118116500E-4,
-9.960629921260E-3));
#635=VERTEX_POINT('',#634);
#636=CARTESIAN_POINT('',(-9.842519685039E-3,1.456692914012E-3,
-9.960629921260E-3));
#637=VERTEX_POINT('',#636);
#638=CARTESIAN_POINT('',(-9.842519685039E-3,1.456692914012E-3,
-1.901574803150E-2));
#639=VERTEX_POINT('',#638);
#640=CARTESIAN_POINT('',(-9.842519685039E-3,1.389763779591E-2,
-1.901574803150E-2));
#641=VERTEX_POINT('',#640);
#642=CARTESIAN_POINT('',(-9.842519685039E-3,1.389763779591E-2,
-1.192913385827E-2));
#643=VERTEX_POINT('',#642);
#644=CARTESIAN_POINT('',(-9.842519685039E-3,1.444881889827E-2,
-1.192913385827E-2));
#645=VERTEX_POINT('',#644);
#646=CARTESIAN_POINT('',(-9.842519685039E-3,1.444881889827E-2,
-1.929133858268E-2));
#647=VERTEX_POINT('',#646);
#648=CARTESIAN_POINT('',(-9.842519685039E-3,1.417322834709E-2,
-1.956692913386E-2));
#649=VERTEX_POINT('',#648);
#650=CARTESIAN_POINT('',(9.842519685039E-3,1.389763779591E-2,
-1.901574803150E-2));
#651=CARTESIAN_POINT('',(9.842519685039E-3,1.389763779591E-2,
-1.192913385827E-2));
#652=VERTEX_POINT('',#650);
#653=VERTEX_POINT('',#651);
#654=CARTESIAN_POINT('',(9.842519685039E-3,1.456692914012E-3,
-1.901574803150E-2));
#655=VERTEX_POINT('',#654);
#656=CARTESIAN_POINT('',(9.842519685039E-3,1.456692914012E-3,
-9.960629921260E-3));
#657=VERTEX_POINT('',#656);
#658=CARTESIAN_POINT('',(9.842519685039E-3,9.055118116500E-4,
-9.960629921260E-3));
#659=VERTEX_POINT('',#658);
#660=CARTESIAN_POINT('',(9.842519685039E-3,9.055118116500E-4,
-1.929133858268E-2));
#661=VERTEX_POINT('',#660);
#662=CARTESIAN_POINT('',(9.842519685039E-3,1.181102362831E-3,
-1.956692913386E-2));
#663=VERTEX_POINT('',#662);
#664=CARTESIAN_POINT('',(9.842519685039E-3,1.417322834709E-2,
-1.956692913386E-2));
#665=VERTEX_POINT('',#664);
#666=CARTESIAN_POINT('',(9.842519685039E-3,1.444881889827E-2,
-1.929133858268E-2));
#667=VERTEX_POINT('',#666);
#668=CARTESIAN_POINT('',(9.842519685039E-3,1.444881889827E-2,
-1.192913385827E-2));
#669=VERTEX_POINT('',#668);
#670=CARTESIAN_POINT('',(-2.677623084063E-2,1.417322834709E-2,
-1.929133858268E-2));
#671=DIRECTION('',(1.E0,0.E0,0.E0));
#672=DIRECTION('',(0.E0,0.E0,1.E0));
#673=AXIS2_PLACEMENT_3D('',#670,#671,#672);
#674=CYLINDRICAL_SURFACE('',#673,3.937007874016E-4);
#676=ORIENTED_EDGE('',*,*,#675,.F.);
#678=ORIENTED_EDGE('',*,*,#677,.T.);
#680=ORIENTED_EDGE('',*,*,#679,.F.);
#682=ORIENTED_EDGE('',*,*,#681,.T.);
#683=EDGE_LOOP('',(#676,#678,#680,#682));
#684=FACE_OUTER_BOUND('',#683,.F.);
#686=CARTESIAN_POINT('',(-2.677623084063E-2,1.181102362831E-3,
-1.968503937008E-2));
#687=DIRECTION('',(0.E0,0.E0,-1.E0));
#688=DIRECTION('',(1.E0,0.E0,0.E0));
#689=AXIS2_PLACEMENT_3D('',#686,#687,#688);
#690=PLANE('',#689);
#692=ORIENTED_EDGE('',*,*,#691,.T.);
#694=ORIENTED_EDGE('',*,*,#693,.T.);
#695=ORIENTED_EDGE('',*,*,#675,.T.);
#697=ORIENTED_EDGE('',*,*,#696,.T.);
#698=EDGE_LOOP('',(#692,#694,#695,#697));
#699=FACE_OUTER_BOUND('',#698,.F.);
#701=CARTESIAN_POINT('',(-2.677623084063E-2,1.181102362831E-3,
-1.929133858268E-2));
#702=DIRECTION('',(1.E0,0.E0,0.E0));
#703=DIRECTION('',(0.E0,0.E0,1.E0));
#704=AXIS2_PLACEMENT_3D('',#701,#702,#703);
#705=CYLINDRICAL_SURFACE('',#704,3.937007874016E-4);
#707=ORIENTED_EDGE('',*,*,#706,.F.);
#709=ORIENTED_EDGE('',*,*,#708,.T.);
#710=ORIENTED_EDGE('',*,*,#691,.F.);
#712=ORIENTED_EDGE('',*,*,#711,.T.);
#713=EDGE_LOOP('',(#707,#709,#710,#712));
#714=FACE_OUTER_BOUND('',#713,.F.);
#716=CARTESIAN_POINT('',(-2.677623084063E-2,7.874015754295E-4,
-1.929133858268E-2));
#717=DIRECTION('',(0.E0,-1.E0,0.E0));
#718=DIRECTION('',(0.E0,0.E0,1.E0));
#719=AXIS2_PLACEMENT_3D('',#716,#717,#718);
#720=PLANE('',#719);
#722=ORIENTED_EDGE('',*,*,#721,.F.);
#724=ORIENTED_EDGE('',*,*,#723,.T.);
#725=ORIENTED_EDGE('',*,*,#706,.T.);
#727=ORIENTED_EDGE('',*,*,#726,.T.);
#728=EDGE_LOOP('',(#722,#724,#725,#727));
#729=FACE_OUTER_BOUND('',#728,.F.);
#731=CARTESIAN_POINT('',(-2.677623084063E-2,1.574803150233E-3,
-9.842519685039E-3));
#732=DIRECTION('',(0.E0,0.E0,1.E0));
#733=DIRECTION('',(-1.E0,0.E0,0.E0));
#734=AXIS2_PLACEMENT_3D('',#731,#732,#733);
#735=PLANE('',#734);
#737=ORIENTED_EDGE('',*,*,#736,.F.);
#739=ORIENTED_EDGE('',*,*,#738,.T.);
#740=ORIENTED_EDGE('',*,*,#721,.T.);
#742=ORIENTED_EDGE('',*,*,#741,.T.);
#743=EDGE_LOOP('',(#737,#739,#740,#742));
#744=FACE_OUTER_BOUND('',#743,.F.);
#746=CARTESIAN_POINT('',(-2.677623084063E-2,1.574803150233E-3,
-1.889763779528E-2));
#747=DIRECTION('',(0.E0,1.E0,0.E0));
#748=DIRECTION('',(0.E0,0.E0,-1.E0));
#749=AXIS2_PLACEMENT_3D('',#746,#747,#748);
#750=PLANE('',#749);
#752=ORIENTED_EDGE('',*,*,#751,.F.);
#754=ORIENTED_EDGE('',*,*,#753,.T.);
#755=ORIENTED_EDGE('',*,*,#736,.T.);
#757=ORIENTED_EDGE('',*,*,#756,.T.);
#758=EDGE_LOOP('',(#752,#754,#755,#757));
#759=FACE_OUTER_BOUND('',#758,.F.);
#761=CARTESIAN_POINT('',(-2.677623084063E-2,1.574803150233E-3,
-1.889763779528E-2));
#762=DIRECTION('',(0.E0,0.E0,1.E0));
#763=DIRECTION('',(-1.E0,0.E0,0.E0));
#764=AXIS2_PLACEMENT_3D('',#761,#762,#763);
#765=PLANE('',#764);
#767=ORIENTED_EDGE('',*,*,#766,.F.);
#769=ORIENTED_EDGE('',*,*,#768,.T.);
#770=ORIENTED_EDGE('',*,*,#751,.T.);
#772=ORIENTED_EDGE('',*,*,#771,.T.);
#773=EDGE_LOOP('',(#767,#769,#770,#772));
#774=FACE_OUTER_BOUND('',#773,.F.);
#776=CARTESIAN_POINT('',(-2.677623084063E-2,1.377952755969E-2,
-1.889763779528E-2));
#777=DIRECTION('',(0.E0,-1.E0,0.E0));
#778=DIRECTION('',(0.E0,0.E0,1.E0));
#779=AXIS2_PLACEMENT_3D('',#776,#777,#778);
#780=PLANE('',#779);
#782=ORIENTED_EDGE('',*,*,#781,.F.);
#784=ORIENTED_EDGE('',*,*,#783,.T.);
#785=ORIENTED_EDGE('',*,*,#766,.T.);
#787=ORIENTED_EDGE('',*,*,#786,.T.);
#788=EDGE_LOOP('',(#782,#784,#785,#787));
#789=FACE_OUTER_BOUND('',#788,.F.);
#791=CARTESIAN_POINT('',(-2.677623084063E-2,1.456692913449E-2,
-1.181102362205E-2));
#792=DIRECTION('',(0.E0,0.E0,1.E0));
#793=DIRECTION('',(-1.E0,0.E0,0.E0));
#794=AXIS2_PLACEMENT_3D('',#791,#792,#793);
#795=PLANE('',#794);
#797=ORIENTED_EDGE('',*,*,#796,.F.);
#799=ORIENTED_EDGE('',*,*,#798,.T.);
#800=ORIENTED_EDGE('',*,*,#781,.T.);
#802=ORIENTED_EDGE('',*,*,#801,.T.);
#803=EDGE_LOOP('',(#797,#799,#800,#802));
#804=FACE_OUTER_BOUND('',#803,.F.);
#806=CARTESIAN_POINT('',(-2.677623084063E-2,1.456692913449E-2,
-1.929133858268E-2));
#807=DIRECTION('',(0.E0,1.E0,0.E0));
#808=DIRECTION('',(0.E0,0.E0,-1.E0));
#809=AXIS2_PLACEMENT_3D('',#806,#807,#808);
#810=PLANE('',#809);
#811=ORIENTED_EDGE('',*,*,#679,.T.);
#813=ORIENTED_EDGE('',*,*,#812,.T.);
#814=ORIENTED_EDGE('',*,*,#796,.T.);
#816=ORIENTED_EDGE('',*,*,#815,.T.);
#817=EDGE_LOOP('',(#811,#813,#814,#816));
#818=FACE_OUTER_BOUND('',#817,.F.);
#820=CARTESIAN_POINT('',(9.724409448819E-3,1.444881889827E-2,0.E0));
#821=DIRECTION('',(0.E0,0.E0,-1.E0));
#822=DIRECTION('',(1.E0,0.E0,0.E0));
#823=AXIS2_PLACEMENT_3D('',#820,#821,#822);
#824=CYLINDRICAL_SURFACE('',#823,1.181102362205E-4);
#826=ORIENTED_EDGE('',*,*,#825,.T.);
#828=ORIENTED_EDGE('',*,*,#827,.F.);
#830=ORIENTED_EDGE('',*,*,#829,.T.);
#831=ORIENTED_EDGE('',*,*,#812,.F.);
#832=EDGE_LOOP('',(#826,#828,#830,#831));
#833=FACE_OUTER_BOUND('',#832,.F.);
#835=CARTESIAN_POINT('',(9.724409448819E-3,1.417322834709E-2,
-1.929133858268E-2));
#836=DIRECTION('',(1.E0,0.E0,0.E0));
#837=DIRECTION('',(0.E0,0.E0,1.E0));
#838=AXIS2_PLACEMENT_3D('',#835,#836,#837);
#839=TOROIDAL_SURFACE('',#838,2.755905511811E-4,1.181102362205E-4);
#841=ORIENTED_EDGE('',*,*,#840,.F.);
#843=ORIENTED_EDGE('',*,*,#842,.T.);
#844=ORIENTED_EDGE('',*,*,#825,.F.);
#845=ORIENTED_EDGE('',*,*,#677,.F.);
#846=EDGE_LOOP('',(#841,#843,#844,#845));
#847=FACE_OUTER_BOUND('',#846,.F.);
#849=CARTESIAN_POINT('',(9.724409448819E-3,0.E0,-1.956692913386E-2));
#850=DIRECTION('',(0.E0,-1.E0,0.E0));
#851=DIRECTION('',(0.E0,0.E0,1.E0));
#852=AXIS2_PLACEMENT_3D('',#849,#850,#851);
#853=CYLINDRICAL_SURFACE('',#852,1.181102362205E-4);
#855=ORIENTED_EDGE('',*,*,#854,.T.);
#857=ORIENTED_EDGE('',*,*,#856,.F.);
#858=ORIENTED_EDGE('',*,*,#840,.T.);
#859=ORIENTED_EDGE('',*,*,#693,.F.);
#860=EDGE_LOOP('',(#855,#857,#858,#859));
#861=FACE_OUTER_BOUND('',#860,.F.);
#863=CARTESIAN_POINT('',(9.724409448819E-3,1.181102362831E-3,
-1.929133858268E-2));
#864=DIRECTION('',(1.E0,0.E0,0.E0));
#865=DIRECTION('',(0.E0,0.E0,1.E0));
#866=AXIS2_PLACEMENT_3D('',#863,#864,#865);
#867=TOROIDAL_SURFACE('',#866,2.755905511811E-4,1.181102362205E-4);
#869=ORIENTED_EDGE('',*,*,#868,.F.);
#871=ORIENTED_EDGE('',*,*,#870,.T.);
#872=ORIENTED_EDGE('',*,*,#854,.F.);
#873=ORIENTED_EDGE('',*,*,#708,.F.);
#874=EDGE_LOOP('',(#869,#871,#872,#873));
#875=FACE_OUTER_BOUND('',#874,.F.);
#877=CARTESIAN_POINT('',(9.724409448819E-3,9.055118116500E-4,0.E0));
#878=DIRECTION('',(0.E0,0.E0,1.E0));
#879=DIRECTION('',(0.E0,1.E0,0.E0));
#880=AXIS2_PLACEMENT_3D('',#877,#878,#879);
#881=CYLINDRICAL_SURFACE('',#880,1.181102362205E-4);
#882=ORIENTED_EDGE('',*,*,#868,.T.);
#883=ORIENTED_EDGE('',*,*,#723,.F.);
#885=ORIENTED_EDGE('',*,*,#884,.T.);
#887=ORIENTED_EDGE('',*,*,#886,.F.);
#888=EDGE_LOOP('',(#882,#883,#885,#887));
#889=FACE_OUTER_BOUND('',#888,.F.);
#891=CARTESIAN_POINT('',(9.724409448819E-3,0.E0,-9.960629921260E-3));
#892=DIRECTION('',(0.E0,1.E0,0.E0));
#893=DIRECTION('',(0.E0,0.E0,-1.E0));
#894=AXIS2_PLACEMENT_3D('',#891,#892,#893);
#895=CYLINDRICAL_SURFACE('',#894,1.181102362205E-4);
#896=ORIENTED_EDGE('',*,*,#884,.F.);
#897=ORIENTED_EDGE('',*,*,#738,.F.);
#899=ORIENTED_EDGE('',*,*,#898,.T.);
#901=ORIENTED_EDGE('',*,*,#900,.F.);
#902=EDGE_LOOP('',(#896,#897,#899,#901));
#903=FACE_OUTER_BOUND('',#902,.F.);
#905=CARTESIAN_POINT('',(9.724409448819E-3,1.456692914012E-3,0.E0));
#906=DIRECTION('',(0.E0,0.E0,-1.E0));
#907=DIRECTION('',(1.E0,0.E0,0.E0));
#908=AXIS2_PLACEMENT_3D('',#905,#906,#907);
#909=CYLINDRICAL_SURFACE('',#908,1.181102362205E-4);
#910=ORIENTED_EDGE('',*,*,#898,.F.);
#911=ORIENTED_EDGE('',*,*,#753,.F.);
#913=ORIENTED_EDGE('',*,*,#912,.T.);
#915=ORIENTED_EDGE('',*,*,#914,.F.);
#916=EDGE_LOOP('',(#910,#911,#913,#915));
#917=FACE_OUTER_BOUND('',#916,.F.);
#919=CARTESIAN_POINT('',(9.724409448819E-3,0.E0,-1.901574803150E-2));
#920=DIRECTION('',(0.E0,1.E0,0.E0));
#921=DIRECTION('',(0.E0,0.E0,-1.E0));
#922=AXIS2_PLACEMENT_3D('',#919,#920,#921);
#923=CYLINDRICAL_SURFACE('',#922,1.181102362205E-4);
#924=ORIENTED_EDGE('',*,*,#912,.F.);
#925=ORIENTED_EDGE('',*,*,#768,.F.);
#927=ORIENTED_EDGE('',*,*,#926,.T.);
#929=ORIENTED_EDGE('',*,*,#928,.F.);
#930=EDGE_LOOP('',(#924,#925,#927,#929));
#931=FACE_OUTER_BOUND('',#930,.F.);
#933=CARTESIAN_POINT('',(9.724409448819E-3,1.389763779591E-2,0.E0));
#934=DIRECTION('',(0.E0,0.E0,1.E0));
#935=DIRECTION('',(0.E0,1.E0,0.E0));
#936=AXIS2_PLACEMENT_3D('',#933,#934,#935);
#937=CYLINDRICAL_SURFACE('',#936,1.181102362205E-4);
#938=ORIENTED_EDGE('',*,*,#926,.F.);
#939=ORIENTED_EDGE('',*,*,#783,.F.);
#941=ORIENTED_EDGE('',*,*,#940,.T.);
#943=ORIENTED_EDGE('',*,*,#942,.F.);
#944=EDGE_LOOP('',(#938,#939,#941,#943));
#945=FACE_OUTER_BOUND('',#944,.F.);
#947=CARTESIAN_POINT('',(9.724409448819E-3,0.E0,-1.192913385827E-2));
#948=DIRECTION('',(0.E0,1.E0,0.E0));
#949=DIRECTION('',(0.E0,0.E0,-1.E0));
#950=AXIS2_PLACEMENT_3D('',#947,#948,#949);
#951=CYLINDRICAL_SURFACE('',#950,1.181102362205E-4);
#952=ORIENTED_EDGE('',*,*,#940,.F.);
#953=ORIENTED_EDGE('',*,*,#798,.F.);
#954=ORIENTED_EDGE('',*,*,#829,.F.);
#956=ORIENTED_EDGE('',*,*,#955,.F.);
#957=EDGE_LOOP('',(#952,#953,#954,#956));
#958=FACE_OUTER_BOUND('',#957,.F.);
#960=CARTESIAN_POINT('',(9.842519685039E-3,0.E0,0.E0));
#961=DIRECTION('',(1.E0,0.E0,0.E0));
#962=DIRECTION('',(0.E0,0.E0,1.E0));
#963=AXIS2_PLACEMENT_3D('',#960,#961,#962);
#964=PLANE('',#963);
#965=ORIENTED_EDGE('',*,*,#942,.T.);
#966=ORIENTED_EDGE('',*,*,#955,.T.);
#967=ORIENTED_EDGE('',*,*,#827,.T.);
#968=ORIENTED_EDGE('',*,*,#842,.F.);
#969=ORIENTED_EDGE('',*,*,#856,.T.);
#970=ORIENTED_EDGE('',*,*,#870,.F.);
#971=ORIENTED_EDGE('',*,*,#886,.T.);
#972=ORIENTED_EDGE('',*,*,#900,.T.);
#973=ORIENTED_EDGE('',*,*,#914,.T.);
#974=ORIENTED_EDGE('',*,*,#928,.T.);
#975=EDGE_LOOP('',(#965,#966,#967,#968,#969,#970,#971,#972,#973,#974));
#976=FACE_OUTER_BOUND('',#975,.F.);
#978=CARTESIAN_POINT('',(-9.724409448819E-3,1.444881889827E-2,0.E0));
#979=DIRECTION('',(0.E0,0.E0,-1.E0));
#980=DIRECTION('',(1.E0,0.E0,0.E0));
#981=AXIS2_PLACEMENT_3D('',#978,#979,#980);
#982=CYLINDRICAL_SURFACE('',#981,1.181102362205E-4);
#984=ORIENTED_EDGE('',*,*,#983,.F.);
#986=ORIENTED_EDGE('',*,*,#985,.F.);
#988=ORIENTED_EDGE('',*,*,#987,.T.);
#989=ORIENTED_EDGE('',*,*,#815,.F.);
#990=EDGE_LOOP('',(#984,#986,#988,#989));
#991=FACE_OUTER_BOUND('',#990,.F.);
#993=CARTESIAN_POINT('',(-9.724409448819E-3,0.E0,-1.192913385827E-2));
#994=DIRECTION('',(0.E0,1.E0,0.E0));
#995=DIRECTION('',(0.E0,0.E0,-1.E0));
#996=AXIS2_PLACEMENT_3D('',#993,#994,#995);
#997=CYLINDRICAL_SURFACE('',#996,1.181102362205E-4);
#999=ORIENTED_EDGE('',*,*,#998,.F.);
#1001=ORIENTED_EDGE('',*,*,#1000,.F.);
#1002=ORIENTED_EDGE('',*,*,#983,.T.);
#1003=ORIENTED_EDGE('',*,*,#801,.F.);
#1004=EDGE_LOOP('',(#999,#1001,#1002,#1003));
#1005=FACE_OUTER_BOUND('',#1004,.F.);
#1007=CARTESIAN_POINT('',(-9.724409448819E-3,1.389763779591E-2,0.E0));
#1008=DIRECTION('',(0.E0,0.E0,1.E0));
#1009=DIRECTION('',(0.E0,1.E0,0.E0));
#1010=AXIS2_PLACEMENT_3D('',#1007,#1008,#1009);
#1011=CYLINDRICAL_SURFACE('',#1010,1.181102362205E-4);
#1013=ORIENTED_EDGE('',*,*,#1012,.F.);
#1015=ORIENTED_EDGE('',*,*,#1014,.F.);
#1016=ORIENTED_EDGE('',*,*,#998,.T.);
#1017=ORIENTED_EDGE('',*,*,#786,.F.);
#1018=EDGE_LOOP('',(#1013,#1015,#1016,#1017));
#1019=FACE_OUTER_BOUND('',#1018,.F.);
#1021=CARTESIAN_POINT('',(-9.724409448819E-3,0.E0,-1.901574803150E-2));
#1022=DIRECTION('',(0.E0,1.E0,0.E0));
#1023=DIRECTION('',(0.E0,0.E0,-1.E0));
#1024=AXIS2_PLACEMENT_3D('',#1021,#1022,#1023);
#1025=CYLINDRICAL_SURFACE('',#1024,1.181102362205E-4);
#1026=ORIENTED_EDGE('',*,*,#1012,.T.);
#1027=ORIENTED_EDGE('',*,*,#771,.F.);
#1029=ORIENTED_EDGE('',*,*,#1028,.T.);
#1031=ORIENTED_EDGE('',*,*,#1030,.F.);
#1032=EDGE_LOOP('',(#1026,#1027,#1029,#1031));
#1033=FACE_OUTER_BOUND('',#1032,.F.);
#1035=CARTESIAN_POINT('',(-9.724409448819E-3,1.456692914012E-3,0.E0));
#1036=DIRECTION('',(0.E0,0.E0,-1.E0));
#1037=DIRECTION('',(1.E0,0.E0,0.E0));
#1038=AXIS2_PLACEMENT_3D('',#1035,#1036,#1037);
#1039=CYLINDRICAL_SURFACE('',#1038,1.181102362205E-4);
#1040=ORIENTED_EDGE('',*,*,#1028,.F.);
#1041=ORIENTED_EDGE('',*,*,#756,.F.);
#1043=ORIENTED_EDGE('',*,*,#1042,.T.);
#1045=ORIENTED_EDGE('',*,*,#1044,.F.);
#1046=EDGE_LOOP('',(#1040,#1041,#1043,#1045));
#1047=FACE_OUTER_BOUND('',#1046,.F.);
#1049=CARTESIAN_POINT('',(-9.724409448819E-3,0.E0,-9.960629921260E-3));
#1050=DIRECTION('',(0.E0,1.E0,0.E0));
#1051=DIRECTION('',(0.E0,0.E0,-1.E0));
#1052=AXIS2_PLACEMENT_3D('',#1049,#1050,#1051);
#1053=CYLINDRICAL_SURFACE('',#1052,1.181102362205E-4);
#1054=ORIENTED_EDGE('',*,*,#1042,.F.);
#1055=ORIENTED_EDGE('',*,*,#741,.F.);
#1057=ORIENTED_EDGE('',*,*,#1056,.T.);
#1059=ORIENTED_EDGE('',*,*,#1058,.F.);
#1060=EDGE_LOOP('',(#1054,#1055,#1057,#1059));
#1061=FACE_OUTER_BOUND('',#1060,.F.);
#1063=CARTESIAN_POINT('',(-9.724409448819E-3,9.055118116500E-4,0.E0));
#1064=DIRECTION('',(0.E0,0.E0,1.E0));
#1065=DIRECTION('',(0.E0,1.E0,0.E0));
#1066=AXIS2_PLACEMENT_3D('',#1063,#1064,#1065);
#1067=CYLINDRICAL_SURFACE('',#1066,1.181102362205E-4);
#1068=ORIENTED_EDGE('',*,*,#1056,.F.);
#1069=ORIENTED_EDGE('',*,*,#726,.F.);
#1071=ORIENTED_EDGE('',*,*,#1070,.T.);
#1073=ORIENTED_EDGE('',*,*,#1072,.F.);
#1074=EDGE_LOOP('',(#1068,#1069,#1071,#1073));
#1075=FACE_OUTER_BOUND('',#1074,.F.);
#1077=CARTESIAN_POINT('',(-9.724409448819E-3,1.181102362831E-3,
-1.929133858268E-2));
#1078=DIRECTION('',(1.E0,0.E0,0.E0));
#1079=DIRECTION('',(0.E0,0.E0,1.E0));
#1080=AXIS2_PLACEMENT_3D('',#1077,#1078,#1079);
#1081=TOROIDAL_SURFACE('',#1080,2.755905511811E-4,1.181102362205E-4);
#1082=ORIENTED_EDGE('',*,*,#1070,.F.);
#1083=ORIENTED_EDGE('',*,*,#711,.F.);
#1085=ORIENTED_EDGE('',*,*,#1084,.F.);
#1087=ORIENTED_EDGE('',*,*,#1086,.T.);
#1088=EDGE_LOOP('',(#1082,#1083,#1085,#1087));
#1089=FACE_OUTER_BOUND('',#1088,.F.);
#1091=CARTESIAN_POINT('',(-9.724409448819E-3,0.E0,-1.956692913386E-2));
#1092=DIRECTION('',(0.E0,-1.E0,0.E0));
#1093=DIRECTION('',(0.E0,0.E0,1.E0));
#1094=AXIS2_PLACEMENT_3D('',#1091,#1092,#1093);
#1095=CYLINDRICAL_SURFACE('',#1094,1.181102362205E-4);
#1096=ORIENTED_EDGE('',*,*,#1084,.T.);
#1097=ORIENTED_EDGE('',*,*,#696,.F.);
#1099=ORIENTED_EDGE('',*,*,#1098,.T.);
#1101=ORIENTED_EDGE('',*,*,#1100,.F.);
#1102=EDGE_LOOP('',(#1096,#1097,#1099,#1101));
#1103=FACE_OUTER_BOUND('',#1102,.F.);
#1105=CARTESIAN_POINT('',(-9.724409448819E-3,1.417322834709E-2,
-1.929133858268E-2));
#1106=DIRECTION('',(1.E0,0.E0,0.E0));
#1107=DIRECTION('',(0.E0,0.E0,1.E0));
#1108=AXIS2_PLACEMENT_3D('',#1105,#1106,#1107);
#1109=TOROIDAL_SURFACE('',#1108,2.755905511811E-4,1.181102362205E-4);
#1110=ORIENTED_EDGE('',*,*,#987,.F.);
#1112=ORIENTED_EDGE('',*,*,#1111,.T.);
#1113=ORIENTED_EDGE('',*,*,#1098,.F.);
#1114=ORIENTED_EDGE('',*,*,#681,.F.);
#1115=EDGE_LOOP('',(#1110,#1112,#1113,#1114));
#1116=FACE_OUTER_BOUND('',#1115,.F.);
#1118=CARTESIAN_POINT('',(-9.842519685039E-3,0.E0,0.E0));
#1119=DIRECTION('',(1.E0,0.E0,0.E0));
#1120=DIRECTION('',(0.E0,0.E0,1.E0));
#1121=AXIS2_PLACEMENT_3D('',#1118,#1119,#1120);
#1122=PLANE('',#1121);
#1123=ORIENTED_EDGE('',*,*,#1086,.F.);
#1124=ORIENTED_EDGE('',*,*,#1100,.T.);
#1125=ORIENTED_EDGE('',*,*,#1111,.F.);
#1126=ORIENTED_EDGE('',*,*,#985,.T.);
#1127=ORIENTED_EDGE('',*,*,#1000,.T.);
#1128=ORIENTED_EDGE('',*,*,#1014,.T.);
#1129=ORIENTED_EDGE('',*,*,#1030,.T.);
#1130=ORIENTED_EDGE('',*,*,#1044,.T.);
#1131=ORIENTED_EDGE('',*,*,#1058,.T.);
#1132=ORIENTED_EDGE('',*,*,#1072,.T.);
#1133=EDGE_LOOP('',(#1123,#1124,#1125,#1126,#1127,#1128,#1129,#1130,#1131,
#1132));
#1134=FACE_OUTER_BOUND('',#1133,.F.);
#1138=FILL_AREA_STYLE_COLOUR('',#1);
#1139=FILL_AREA_STYLE('',(#1138));
#1140=SURFACE_STYLE_FILL_AREA(#1139);
#1141=SURFACE_SIDE_STYLE('',(#1140));
#1142=SURFACE_STYLE_USAGE(.BOTH.,#1141);
#1143=PRESENTATION_STYLE_ASSIGNMENT((#1142));
#22=STYLED_ITEM('',(#1143),#1137);
#1145=LENGTH_MEASURE_WITH_UNIT(LENGTH_MEASURE(2.54E1),#1144);
#1146=(CONVERSION_BASED_UNIT('INCH',#1145)LENGTH_UNIT()NAMED_UNIT(*));
#1148=PLANE_ANGLE_MEASURE_WITH_UNIT(PLANE_ANGLE_MEASURE(1.745329251994E-2),
#1147);
#1149=(CONVERSION_BASED_UNIT('DEGREE',#1148)NAMED_UNIT(*)PLANE_ANGLE_UNIT());
#1151=UNCERTAINTY_MEASURE_WITH_UNIT(LENGTH_MEASURE(2.596531165755E-6),#1146,
'closure',
'Maximum model space distance between geometric entities at asserted connectivities');
#1153=CARTESIAN_POINT('',(0.E0,0.E0,0.E0));
#1154=DIRECTION('',(0.E0,0.E0,1.E0));
#1155=DIRECTION('',(1.E0,0.E0,0.E0));
#1158=MECHANICAL_DESIGN_GEOMETRIC_PRESENTATION_REPRESENTATION('',(#30,#37,#44,
#51,#58,#65,#72,#79,#86,#93,#100,#107,#115,#123,#131,#138,#145,#153,#161,#169,
#176,#183,#195,#202,#209,#221,#228,#235,#247,#254,#261,#273,#280,#287,#299,#306,
#318,#325,#333,#341,#353,#360,#367,#379,#386,#393,#405,#412,#419,#426,#433,#445,
#452,#459,#471,#478,#485,#497,#504,#511,#519,#527,#535,#542,#549,#557,#565,#573,
#581,#589,#22),#1152);
#1159=APPLICATION_CONTEXT('automotive design');
#1160=APPLICATION_PROTOCOL_DEFINITION('international standard',
'config_control_design',1994,#1159);
#1161=PRODUCT_DEFINITION_CONTEXT('',#1159,'design');
#1162=PRODUCT_CONTEXT('',#1159,'mechanical');
#1163=PRODUCT('BODY3-4122','BODY3-4122','NOT SPECIFIED',(#1162));
#1164=PRODUCT_DEFINITION_FORMATION_WITH_SPECIFIED_SOURCE('1','LAST_VERSION',
#1163,.MADE.);
#1172=LENGTH_MEASURE_WITH_UNIT(LENGTH_MEASURE(2.54E1),#1171);
#1173=(CONVERSION_BASED_UNIT('INCH',#1172)LENGTH_UNIT()NAMED_UNIT(*));
#1174=DERIVED_UNIT_ELEMENT(#1173,2.E0);
#1175=AREA_UNIT((#1174));
#1176=MEASURE_REPRESENTATION_ITEM('surface area measure',AREA_MEASURE(
8.020178043918E-1),#1175);
#1181=LENGTH_MEASURE_WITH_UNIT(LENGTH_MEASURE(2.54E1),#1180);
#1182=(CONVERSION_BASED_UNIT('INCH',#1181)LENGTH_UNIT()NAMED_UNIT(*));
#1183=DERIVED_UNIT_ELEMENT(#1182,3.E0);
#1184=VOLUME_UNIT((#1183));
#1185=MEASURE_REPRESENTATION_ITEM('volume measure',VOLUME_MEASURE(
7.572567119859E-3),#1184);
#1189=CARTESIAN_POINT('centre point',(3.020951540397E-9,1.841138310445E-1,
-4.282932734951E-1));
#1194=LENGTH_MEASURE_WITH_UNIT(LENGTH_MEASURE(2.54E1),#1193);
#1195=(CONVERSION_BASED_UNIT('INCH',#1194)LENGTH_UNIT()NAMED_UNIT(*));
#1196=DERIVED_UNIT_ELEMENT(#1195,2.E0);
#1197=AREA_UNIT((#1196));
#1198=MEASURE_REPRESENTATION_ITEM('surface area measure',AREA_MEASURE(
8.020178043918E-1),#1197);
#1203=LENGTH_MEASURE_WITH_UNIT(LENGTH_MEASURE(2.54E1),#1202);
#1204=(CONVERSION_BASED_UNIT('INCH',#1203)LENGTH_UNIT()NAMED_UNIT(*));
#1205=DERIVED_UNIT_ELEMENT(#1204,3.E0);
#1206=VOLUME_UNIT((#1205));
#1207=MEASURE_REPRESENTATION_ITEM('volume measure',VOLUME_MEASURE(
7.572567119859E-3),#1206);
#1211=CARTESIAN_POINT('centre point',(3.020951540397E-9,1.841138310445E-1,
-4.282932734951E-1));
#1=COLOUR_RGB('',7.921568627451E-1,8.196078431373E-1,9.333333333333E-1);
#2=DRAUGHTING_PRE_DEFINED_COLOUR('green');
#3=COLOUR_RGB('',1.1E-2,1.2E-2,1.E0);
#4=COLOUR_RGB('',1.921568627451E-1,1.921568627451E-1,1.921568627451E-1);
#5=COLOUR_RGB('',2.352941176471E-1,2.352941176471E-1,2.352941176471E-1);
#6=COLOUR_RGB('',3.137254901961E-1,3.137254901961E-1,3.137254901961E-1);
#7=COLOUR_RGB('',4.1E-1,2.61589E-1,1.12848E-1);
#8=COLOUR_RGB('',5.04854E-1,1.5455E-2,1.5455E-2);
#9=COLOUR_RGB('',6.274509803922E-1,6.274509803922E-1,6.274509803922E-1);
#10=COLOUR_RGB('',6.35294E-1,6.86275E-1,7.4902E-1);
#11=COLOUR_RGB('',6.40777E-1,6.40777E-1,6.40777E-1);
#12=COLOUR_RGB('',6.69062E-1,6.69903E-1,6.55217E-1);
#13=COLOUR_RGB('',7.921568627451E-1,8.196078431373E-1,9.333333333333E-1);
#14=COLOUR_RGB('',8.313725490196E-1,0.E0,0.E0);
#15=COLOUR_RGB('',8.666666666667E-1,8.666666666667E-1,8.666666666667E-1);
#16=COLOUR_RGB('',9.21569E-1,7.05882E-1,4.70588E-1);
#17=DRAUGHTING_PRE_DEFINED_COLOUR('red');
#18=DRAUGHTING_PRE_DEFINED_COLOUR('yellow');
#19=COLOUR_RGB('',1.E0,1.E0,5.3E-1);
#20=COLOUR_RGB('',1.E0,1.E0,9.49E-1);
#21=DRAUGHTING_PRE_DEFINED_COLOUR('white');
#112=CIRCLE('',#111,1.181102362205E-4);
#120=CIRCLE('',#119,1.181102362205E-4);
#128=CIRCLE('',#127,3.937007874016E-4);
#150=CIRCLE('',#149,1.181102362205E-4);
#158=CIRCLE('',#157,1.181102362205E-4);
#166=CIRCLE('',#165,3.937007874016E-4);
#192=B_SPLINE_CURVE_WITH_KNOTS('',3,(#184,#185,#186,#187,#188,#189,#190,#191),
.UNSPECIFIED.,.F.,.F.,(4,1,1,1,1,4),(0.E0,2.E-1,4.E-1,6.E-1,8.E-1,1.E0),
.UNSPECIFIED.);
#218=B_SPLINE_CURVE_WITH_KNOTS('',3,(#210,#211,#212,#213,#214,#215,#216,#217),
.UNSPECIFIED.,.F.,.F.,(4,1,1,1,1,4),(0.E0,2.E-1,4.E-1,6.E-1,8.E-1,1.E0),
.UNSPECIFIED.);
#244=B_SPLINE_CURVE_WITH_KNOTS('',3,(#236,#237,#238,#239,#240,#241,#242,#243),
.UNSPECIFIED.,.F.,.F.,(4,1,1,1,1,4),(0.E0,2.E-1,4.E-1,6.E-1,8.E-1,1.E0),
.UNSPECIFIED.);
#270=B_SPLINE_CURVE_WITH_KNOTS('',3,(#262,#263,#264,#265,#266,#267,#268,#269),
.UNSPECIFIED.,.F.,.F.,(4,1,1,1,1,4),(0.E0,2.E-1,4.E-1,6.E-1,8.E-1,1.E0),
.UNSPECIFIED.);
#296=B_SPLINE_CURVE_WITH_KNOTS('',3,(#288,#289,#290,#291,#292,#293,#294,#295),
.UNSPECIFIED.,.F.,.F.,(4,1,1,1,1,4),(0.E0,2.E-1,4.E-1,6.E-1,8.E-1,1.E0),
.UNSPECIFIED.);
#315=B_SPLINE_CURVE_WITH_KNOTS('',3,(#307,#308,#309,#310,#311,#312,#313,#314),
.UNSPECIFIED.,.F.,.F.,(4,1,1,1,1,4),(0.E0,2.E-1,4.E-1,6.E-1,8.E-1,1.E0),
.UNSPECIFIED.);
#330=CIRCLE('',#329,2.755905511811E-4);
#338=CIRCLE('',#337,2.755905511811E-4);
#350=B_SPLINE_CURVE_WITH_KNOTS('',3,(#342,#343,#344,#345,#346,#347,#348,#349),
.UNSPECIFIED.,.F.,.F.,(4,1,1,1,1,4),(0.E0,2.E-1,4.E-1,6.E-1,8.E-1,1.E0),
.UNSPECIFIED.);
#376=B_SPLINE_CURVE_WITH_KNOTS('',3,(#368,#369,#370,#371,#372,#373,#374,#375),
.UNSPECIFIED.,.F.,.F.,(4,1,1,1,1,4),(0.E0,2.E-1,4.E-1,6.E-1,8.E-1,1.E0),
.UNSPECIFIED.);
#402=B_SPLINE_CURVE_WITH_KNOTS('',3,(#394,#395,#396,#397,#398,#399,#400,#401),
.UNSPECIFIED.,.F.,.F.,(4,1,1,1,1,4),(0.E0,2.E-1,4.E-1,6.E-1,8.E-1,1.E0),
.UNSPECIFIED.);
#442=B_SPLINE_CURVE_WITH_KNOTS('',3,(#434,#435,#436,#437,#438,#439,#440,#441),
.UNSPECIFIED.,.F.,.F.,(4,1,1,1,1,4),(0.E0,2.E-1,4.E-1,6.E-1,8.E-1,1.E0),
.UNSPECIFIED.);
#468=B_SPLINE_CURVE_WITH_KNOTS('',3,(#460,#461,#462,#463,#464,#465,#466,#467),
.UNSPECIFIED.,.F.,.F.,(4,1,1,1,1,4),(0.E0,2.E-1,4.E-1,6.E-1,8.E-1,1.E0),
.UNSPECIFIED.);
#494=B_SPLINE_CURVE_WITH_KNOTS('',3,(#486,#487,#488,#489,#490,#491,#492,#493),
.UNSPECIFIED.,.F.,.F.,(4,1,1,1,1,4),(0.E0,2.E-1,4.E-1,6.E-1,8.E-1,1.E0),
.UNSPECIFIED.);
#516=CIRCLE('',#515,1.181102362205E-4);
#524=CIRCLE('',#523,3.937007874016E-4);
#532=CIRCLE('',#531,1.181102362205E-4);
#554=CIRCLE('',#553,1.181102362205E-4);
#562=CIRCLE('',#561,1.181102362205E-4);
#570=CIRCLE('',#569,3.937007874016E-4);
#578=CIRCLE('',#577,2.755905511811E-4);
#586=CIRCLE('',#585,2.755905511811E-4);
#675=EDGE_CURVE('',#592,#593,#26,.T.);
#677=EDGE_CURVE('',#592,#597,#128,.T.);
#679=EDGE_CURVE('',#595,#597,#34,.T.);
#681=EDGE_CURVE('',#595,#593,#570,.T.);
#685=ADVANCED_FACE('',(#684),#674,.T.);
#691=EDGE_CURVE('',#627,#629,#48,.T.);
#693=EDGE_CURVE('',#629,#592,#142,.T.);
#696=EDGE_CURVE('',#593,#627,#539,.T.);
#700=ADVANCED_FACE('',(#699),#690,.T.);
#706=EDGE_CURVE('',#625,#623,#41,.T.);
#708=EDGE_CURVE('',#625,#629,#166,.T.);
#711=EDGE_CURVE('',#627,#623,#524,.T.);
#715=ADVANCED_FACE('',(#714),#705,.T.);
#721=EDGE_CURVE('',#621,#619,#55,.T.);
#723=EDGE_CURVE('',#621,#625,#173,.T.);
#726=EDGE_CURVE('',#623,#619,#501,.T.);
#730=ADVANCED_FACE('',(#729),#720,.T.);
#736=EDGE_CURVE('',#617,#615,#62,.T.);
#738=EDGE_CURVE('',#617,#621,#199,.T.);
#741=EDGE_CURVE('',#619,#615,#475,.T.);
#745=ADVANCED_FACE('',(#744),#735,.T.);
#751=EDGE_CURVE('',#613,#611,#69,.T.);
#753=EDGE_CURVE('',#613,#617,#225,.T.);
#756=EDGE_CURVE('',#615,#611,#449,.T.);
#760=ADVANCED_FACE('',(#759),#750,.T.);
#766=EDGE_CURVE('',#609,#607,#76,.T.);
#768=EDGE_CURVE('',#609,#613,#251,.T.);
#771=EDGE_CURVE('',#611,#607,#423,.T.);
#775=ADVANCED_FACE('',(#774),#765,.T.);
#781=EDGE_CURVE('',#605,#603,#83,.T.);
#783=EDGE_CURVE('',#605,#609,#277,.T.);
#786=EDGE_CURVE('',#607,#603,#416,.T.);
#790=ADVANCED_FACE('',(#789),#780,.T.);
#796=EDGE_CURVE('',#601,#599,#90,.T.);
#798=EDGE_CURVE('',#601,#605,#303,.T.);
#801=EDGE_CURVE('',#603,#599,#390,.T.);
#805=ADVANCED_FACE('',(#804),#795,.T.);
#812=EDGE_CURVE('',#597,#601,#104,.T.);
#815=EDGE_CURVE('',#599,#595,#364,.T.);
#819=ADVANCED_FACE('',(#818),#810,.T.);
#825=EDGE_CURVE('',#597,#667,#120,.T.);
#827=EDGE_CURVE('',#669,#667,#97,.T.);
#829=EDGE_CURVE('',#669,#601,#315,.T.);
#834=ADVANCED_FACE('',(#833),#824,.T.);
#840=EDGE_CURVE('',#665,#592,#112,.T.);
#842=EDGE_CURVE('',#665,#667,#330,.T.);
#848=ADVANCED_FACE('',(#847),#839,.T.);
#854=EDGE_CURVE('',#629,#663,#158,.T.);
#856=EDGE_CURVE('',#665,#663,#135,.T.);
#862=ADVANCED_FACE('',(#861),#853,.T.);
#868=EDGE_CURVE('',#661,#625,#150,.T.);
#870=EDGE_CURVE('',#661,#663,#338,.T.);
#876=ADVANCED_FACE('',(#875),#867,.T.);
#884=EDGE_CURVE('',#621,#659,#192,.T.);
#886=EDGE_CURVE('',#661,#659,#180,.T.);
#890=ADVANCED_FACE('',(#889),#881,.T.);
#898=EDGE_CURVE('',#617,#657,#218,.T.);
#900=EDGE_CURVE('',#659,#657,#206,.T.);
#904=ADVANCED_FACE('',(#903),#895,.T.);
#912=EDGE_CURVE('',#613,#655,#244,.T.);
#914=EDGE_CURVE('',#657,#655,#232,.T.);
#918=ADVANCED_FACE('',(#917),#909,.T.);
#926=EDGE_CURVE('',#609,#652,#270,.T.);
#928=EDGE_CURVE('',#655,#652,#258,.T.);
#932=ADVANCED_FACE('',(#931),#923,.T.);
#940=EDGE_CURVE('',#605,#653,#296,.T.);
#942=EDGE_CURVE('',#652,#653,#284,.T.);
#946=ADVANCED_FACE('',(#945),#937,.T.);
#955=EDGE_CURVE('',#653,#669,#322,.T.);
#959=ADVANCED_FACE('',(#958),#951,.T.);
#977=ADVANCED_FACE('',(#976),#964,.T.);
#983=EDGE_CURVE('',#645,#599,#350,.T.);
#985=EDGE_CURVE('',#647,#645,#357,.T.);
#987=EDGE_CURVE('',#647,#595,#554,.T.);
#992=ADVANCED_FACE('',(#991),#982,.T.);
#998=EDGE_CURVE('',#643,#603,#376,.T.);
#1000=EDGE_CURVE('',#645,#643,#383,.T.);
#1006=ADVANCED_FACE('',(#1005),#997,.T.);
#1012=EDGE_CURVE('',#641,#607,#402,.T.);
#1014=EDGE_CURVE('',#643,#641,#409,.T.);
#1020=ADVANCED_FACE('',(#1019),#1011,.T.);
#1028=EDGE_CURVE('',#611,#639,#442,.T.);
#1030=EDGE_CURVE('',#641,#639,#430,.T.);
#1034=ADVANCED_FACE('',(#1033),#1025,.T.);
#1042=EDGE_CURVE('',#615,#637,#468,.T.);
#1044=EDGE_CURVE('',#639,#637,#456,.T.);
#1048=ADVANCED_FACE('',(#1047),#1039,.T.);
#1056=EDGE_CURVE('',#619,#635,#494,.T.);
#1058=EDGE_CURVE('',#637,#635,#482,.T.);
#1062=ADVANCED_FACE('',(#1061),#1053,.T.);
#1070=EDGE_CURVE('',#623,#633,#516,.T.);
#1072=EDGE_CURVE('',#635,#633,#508,.T.);
#1076=ADVANCED_FACE('',(#1075),#1067,.T.);
#1084=EDGE_CURVE('',#632,#627,#532,.T.);
#1086=EDGE_CURVE('',#632,#633,#578,.T.);
#1090=ADVANCED_FACE('',(#1089),#1081,.T.);
#1098=EDGE_CURVE('',#593,#649,#562,.T.);
#1100=EDGE_CURVE('',#632,#649,#546,.T.);
#1104=ADVANCED_FACE('',(#1103),#1095,.T.);
#1111=EDGE_CURVE('',#647,#649,#586,.T.);
#1117=ADVANCED_FACE('',(#1116),#1109,.T.);
#1135=ADVANCED_FACE('',(#1134),#1122,.F.);
#1136=CLOSED_SHELL('',(#685,#700,#715,#730,#745,#760,#775,#790,#805,#819,#834,
#848,#862,#876,#890,#904,#918,#932,#946,#959,#977,#992,#1006,#1020,#1034,#1048,
#1062,#1076,#1090,#1104,#1117,#1135));
#1137=MANIFOLD_SOLID_BREP('',#1136);
#1144=(LENGTH_UNIT()NAMED_UNIT(*)SI_UNIT(.MILLI.,.METRE.));
#1147=(NAMED_UNIT(*)PLANE_ANGLE_UNIT()SI_UNIT($,.RADIAN.));
#1150=(NAMED_UNIT(*)SI_UNIT($,.STERADIAN.)SOLID_ANGLE_UNIT());
#1152=(GEOMETRIC_REPRESENTATION_CONTEXT(3)GLOBAL_UNCERTAINTY_ASSIGNED_CONTEXT((
#1151))GLOBAL_UNIT_ASSIGNED_CONTEXT((#1146,#1149,#1150))REPRESENTATION_CONTEXT(
'ID1','3'));
#1156=AXIS2_PLACEMENT_3D('',#1153,#1154,#1155);
#1157=ADVANCED_BREP_SHAPE_REPRESENTATION('',(#1156,#1137),#1152);
#1165=PRODUCT_DEFINITION('design','',#1164,#1161);
#1166=PRODUCT_DEFINITION_SHAPE('','SHAPE FOR BODY3-4122.',#1165);
#1167=SHAPE_ASPECT('','solid data associated with BODY3-4122',#1166,.F.);
#1168=PROPERTY_DEFINITION('',
'shape for solid data with which properties are associated',#1167);
#1169=SHAPE_REPRESENTATION('',(#1137),#1152);
#1170=SHAPE_DEFINITION_REPRESENTATION(#1168,#1169);
#1171=(LENGTH_UNIT()NAMED_UNIT(*)SI_UNIT(.MILLI.,.METRE.));
#1177=PROPERTY_DEFINITION('geometric validation property','area of BODY3-4122',
#1167);
#1178=REPRESENTATION('surface area',(#1176),#1152);
#1179=PROPERTY_DEFINITION_REPRESENTATION(#1177,#1178);
#1180=(LENGTH_UNIT()NAMED_UNIT(*)SI_UNIT(.MILLI.,.METRE.));
#1186=PROPERTY_DEFINITION('geometric validation property',
'volume of BODY3-4122',#1167);
#1187=REPRESENTATION('volume',(#1185),#1152);
#1188=PROPERTY_DEFINITION_REPRESENTATION(#1186,#1187);
#1190=PROPERTY_DEFINITION('geometric validation property',
'centroid of BODY3-4122',#1167);
#1191=REPRESENTATION('centroid',(#1189),#1152);
#1192=PROPERTY_DEFINITION_REPRESENTATION(#1190,#1191);
#1193=(LENGTH_UNIT()NAMED_UNIT(*)SI_UNIT(.MILLI.,.METRE.));
#1199=PROPERTY_DEFINITION('geometric validation property','area of BODY3-4122',
#1166);
#1200=REPRESENTATION('surface area',(#1198),#1152);
#1201=PROPERTY_DEFINITION_REPRESENTATION(#1199,#1200);
#1202=(LENGTH_UNIT()NAMED_UNIT(*)SI_UNIT(.MILLI.,.METRE.));
#1208=PROPERTY_DEFINITION('geometric validation property',
'volume of BODY3-4122',#1166);
#1209=REPRESENTATION('volume',(#1207),#1152);
#1210=PROPERTY_DEFINITION_REPRESENTATION(#1208,#1209);
#1212=PROPERTY_DEFINITION('geometric validation property',
'centroid of BODY3-4122',#1166);
#1213=REPRESENTATION('centroid',(#1211),#1152);
#1214=PROPERTY_DEFINITION_REPRESENTATION(#1212,#1213);
#1215=SHAPE_DEFINITION_REPRESENTATION(#1166,#1157);
ENDSEC;
END-ISO-10303-21;
