ISO-10303-21;
HEADER;
FILE_DESCRIPTION((''),'2;1');
FILE_NAME('BODY3-4187','2026-06-15T13:45:28',('Esia'),(''),
'CREO PARAMETRIC BY PTC INC, 2025102','CREO PARAMETRIC BY PTC INC, 2025102','');
FILE_SCHEMA((
'AP242_MANAGED_MODEL_BASED_3D_ENGINEERING_MIM_LF { 1 0 10303 442 1 1 4 }'));
ENDSEC;
DATA;
#23=CARTESIAN_POINT('',(1.115957517423E-2,2.045611880705E-2,7.757525980640E-3));
#24=CARTESIAN_POINT('',(1.115121346461E-2,2.045974768151E-2,7.726816757990E-3));
#25=CARTESIAN_POINT('',(1.113456876999E-2,2.046579112714E-2,7.665338378114E-3));
#26=CARTESIAN_POINT('',(1.110986975364E-2,2.047123337415E-2,7.572842108580E-3));
#27=CARTESIAN_POINT('',(1.109361112742E-2,2.047244094488E-2,7.511168559946E-3));
#28=CARTESIAN_POINT('',(1.108553131095E-2,2.047244094488E-2,7.480314960629E-3));
#30=DRAUGHTING_PRE_DEFINED_CURVE_FONT('continuous');
#31=CURVE_STYLE('',#30,POSITIVE_LENGTH_MEASURE(2.E-2),#1);
#32=PRESENTATION_STYLE_ASSIGNMENT((#31));
#33=STYLED_ITEM('',(#32),#29);
#34=CARTESIAN_POINT('',(1.012231421996E-2,1.062992125984E-2,0.E0));
#35=CARTESIAN_POINT('',(1.012231421996E-2,1.394450803327E-2,2.616779027442E-3));
#36=CARTESIAN_POINT('',(1.047231174051E-2,1.725808632485E-2,5.232763498579E-3));
#37=CARTESIAN_POINT('',(1.115957517423E-2,2.045611880705E-2,7.757525980640E-3));
#39=CURVE_STYLE('',#30,POSITIVE_LENGTH_MEASURE(2.E-2),#1);
#40=PRESENTATION_STYLE_ASSIGNMENT((#39));
#41=STYLED_ITEM('',(#40),#38);
#42=CARTESIAN_POINT('',(1.115957517426E-2,2.045611880711E-2,
-7.757525980735E-3));
#43=CARTESIAN_POINT('',(1.047231174050E-2,1.725808632486E-2,
-5.232763498606E-3));
#44=CARTESIAN_POINT('',(1.012231421996E-2,1.394450803334E-2,
-2.616779027520E-3));
#45=CARTESIAN_POINT('',(1.012231421996E-2,1.062992125984E-2,0.E0));
#47=CURVE_STYLE('',#30,POSITIVE_LENGTH_MEASURE(2.E-2),#1);
#48=PRESENTATION_STYLE_ASSIGNMENT((#47));
#49=STYLED_ITEM('',(#48),#46);
#50=CARTESIAN_POINT('',(1.108553131095E-2,2.047244094488E-2,
-7.480314960629E-3));
#51=CARTESIAN_POINT('',(1.109361113571E-2,2.047244094488E-2,
-7.511168591600E-3));
#52=CARTESIAN_POINT('',(1.110986977318E-2,2.047123337168E-2,
-7.572842182377E-3));
#53=CARTESIAN_POINT('',(1.113456878977E-2,2.046579112092E-2,
-7.665338451544E-3));
#54=CARTESIAN_POINT('',(1.115121347317E-2,2.045974767787E-2,
-7.726816789404E-3));
#55=CARTESIAN_POINT('',(1.115957517426E-2,2.045611880711E-2,
-7.757525980735E-3));
#57=CURVE_STYLE('',#30,POSITIVE_LENGTH_MEASURE(2.E-2),#1);
#58=PRESENTATION_STYLE_ASSIGNMENT((#57));
#59=STYLED_ITEM('',(#58),#56);
#60=DIRECTION('',(-1.E0,0.E0,-1.640912419843E-13));
#61=VECTOR('',#60,6.237303334716E-3);
#62=CARTESIAN_POINT('',(1.732283464567E-2,2.047244094488E-2,7.480314960630E-3));
#63=LINE('',#62,#61);
#64=CURVE_STYLE('',#30,POSITIVE_LENGTH_MEASURE(2.E-2),#1);
#65=PRESENTATION_STYLE_ASSIGNMENT((#64));
#66=STYLED_ITEM('',(#65),#63);
#67=DIRECTION('',(1.E0,1.646474834825E-13,0.E0));
#68=VECTOR('',#67,6.237303334716E-3);
#69=CARTESIAN_POINT('',(1.108553131095E-2,1.811023622047E-2,9.842519685039E-3));
#70=LINE('',#69,#68);
#71=CURVE_STYLE('',#30,POSITIVE_LENGTH_MEASURE(2.E-2),#1);
#72=PRESENTATION_STYLE_ASSIGNMENT((#71));
#73=STYLED_ITEM('',(#72),#70);
#74=CARTESIAN_POINT('',(1.115957518152E-2,1.838744726726E-2,9.826197543391E-3));
#75=CARTESIAN_POINT('',(1.115121989054E-2,1.835676161789E-2,9.829823632224E-3));
#76=CARTESIAN_POINT('',(1.113457185011E-2,1.829527077602E-2,9.835869036572E-3));
#77=CARTESIAN_POINT('',(1.110987852523E-2,1.820279267390E-2,9.841311140096E-3));
#78=CARTESIAN_POINT('',(1.109360960663E-2,1.814108401250E-2,9.842519685039E-3));
#79=CARTESIAN_POINT('',(1.108553131095E-2,1.811023622047E-2,9.842519685039E-3));
#81=CURVE_STYLE('',#30,POSITIVE_LENGTH_MEASURE(2.E-2),#1);
#82=PRESENTATION_STYLE_ASSIGNMENT((#81));
#83=STYLED_ITEM('',(#82),#80);
#84=CARTESIAN_POINT('',(1.115957517423E-2,2.045611880705E-2,7.757525980640E-3));
#85=CARTESIAN_POINT('',(1.119670925431E-2,2.044000396649E-2,7.893897252761E-3));
#86=CARTESIAN_POINT('',(1.126461271185E-2,2.038435379573E-2,8.159856194867E-3));
#87=CARTESIAN_POINT('',(1.134103101074E-2,2.023960303542E-2,8.527635761422E-3));
#88=CARTESIAN_POINT('',(1.138823757603E-2,2.003880408743E-2,8.862739758242E-3));
#89=CARTESIAN_POINT('',(1.140475291140E-2,1.978712658151E-2,9.159070010381E-3));
#90=CARTESIAN_POINT('',(1.138802604397E-2,1.949063364074E-2,9.410312010747E-3));
#91=CARTESIAN_POINT('',(1.134069948265E-2,1.915577207545E-2,9.610518047767E-3));
#92=CARTESIAN_POINT('',(1.126433353615E-2,1.878864664184E-2,9.754713973296E-3));
#93=CARTESIAN_POINT('',(1.119659578255E-2,1.852340180034E-2,9.810131948423E-3));
#94=CARTESIAN_POINT('',(1.115957518152E-2,1.838744726726E-2,9.826197543391E-3));
#96=CURVE_STYLE('',#30,POSITIVE_LENGTH_MEASURE(2.E-2),#1);
#97=PRESENTATION_STYLE_ASSIGNMENT((#96));
#98=STYLED_ITEM('',(#97),#95);
#99=CARTESIAN_POINT('',(3.964987327508E-2,2.047244094488E-2,0.E0));
#100=DIRECTION('',(0.E0,1.E0,0.E0));
#101=DIRECTION('',(-9.673790478516E-1,0.E0,-2.533333333333E-1));
#102=AXIS2_PLACEMENT_3D('',#99,#100,#101);
#104=CURVE_STYLE('',#30,POSITIVE_LENGTH_MEASURE(2.E-2),#1);
#105=PRESENTATION_STYLE_ASSIGNMENT((#104));
#106=STYLED_ITEM('',(#105),#103);
#107=CARTESIAN_POINT('',(1.115957517423E-2,1.838744724049E-2,
-9.826197547202E-3));
#108=CARTESIAN_POINT('',(1.119670925431E-2,1.852381851261E-2,
-9.810082706648E-3));
#109=CARTESIAN_POINT('',(1.126461271185E-2,1.878977745471E-2,
-9.754432535889E-3));
#110=CARTESIAN_POINT('',(1.134103101074E-2,1.915755702127E-2,
-9.609681775562E-3));
#111=CARTESIAN_POINT('',(1.138823757604E-2,1.949266101807E-2,
-9.408882827656E-3));
#112=CARTESIAN_POINT('',(1.140475291134E-2,1.978899127026E-2,
-9.157205321426E-3));
#113=CARTESIAN_POINT('',(1.138802604420E-2,2.004023327046E-2,
-8.860712381788E-3));
#114=CARTESIAN_POINT('',(1.134069948180E-2,2.024043930809E-2,
-8.525850812274E-3));
#115=CARTESIAN_POINT('',(1.126433353933E-2,2.038463523133E-2,
-8.158725394437E-3));
#116=CARTESIAN_POINT('',(1.119659577570E-2,2.044005321216E-2,
-7.893480513702E-3));
#117=CARTESIAN_POINT('',(1.115957517426E-2,2.045611880711E-2,
-7.757525980735E-3));
#119=CURVE_STYLE('',#30,POSITIVE_LENGTH_MEASURE(2.E-2),#1);
#120=PRESENTATION_STYLE_ASSIGNMENT((#119));
#121=STYLED_ITEM('',(#120),#118);
#122=CARTESIAN_POINT('',(1.108553131095E-2,1.811023622047E-2,
-9.842519685039E-3));
#123=CARTESIAN_POINT('',(1.109360961369E-2,1.814108403944E-2,
-9.842519685039E-3));
#124=CARTESIAN_POINT('',(1.110987854090E-2,1.820279273313E-2,
-9.841311138493E-3));
#125=CARTESIAN_POINT('',(1.113457187033E-2,1.829527085105E-2,
-9.835869029528E-3));
#126=CARTESIAN_POINT('',(1.115121989056E-2,1.835676161779E-2,
-9.829823632883E-3));
#127=CARTESIAN_POINT('',(1.115957517423E-2,1.838744724049E-2,
-9.826197547202E-3));
#129=CURVE_STYLE('',#30,POSITIVE_LENGTH_MEASURE(2.E-2),#1);
#130=PRESENTATION_STYLE_ASSIGNMENT((#129));
#131=STYLED_ITEM('',(#130),#128);
#132=DIRECTION('',(-1.E0,-1.173669561311E-13,0.E0));
#133=VECTOR('',#132,6.237303334716E-3);
#134=CARTESIAN_POINT('',(1.732283464567E-2,1.811023622047E-2,
-9.842519685039E-3));
#135=LINE('',#134,#133);
#136=CURVE_STYLE('',#30,POSITIVE_LENGTH_MEASURE(2.E-2),#1);
#137=PRESENTATION_STYLE_ASSIGNMENT((#136));
#138=STYLED_ITEM('',(#137),#135);
#139=DIRECTION('',(1.E0,0.E0,-1.280746049725E-13));
#140=VECTOR('',#139,6.237303334716E-3);
#141=CARTESIAN_POINT('',(1.108553131095E-2,2.047244094488E-2,
-7.480314960629E-3));
#142=LINE('',#141,#140);
#143=CURVE_STYLE('',#30,POSITIVE_LENGTH_MEASURE(2.E-2),#1);
#144=PRESENTATION_STYLE_ASSIGNMENT((#143));
#145=STYLED_ITEM('',(#144),#142);
#146=CARTESIAN_POINT('',(1.012231421996E-2,1.062992125984E-2,0.E0));
#147=CARTESIAN_POINT('',(1.012231421996E-2,1.324670028729E-2,
-3.314586773435E-3));
#148=CARTESIAN_POINT('',(1.047231174051E-2,1.586268475842E-2,
-6.628165065012E-3));
#149=CARTESIAN_POINT('',(1.115957517423E-2,1.838744724049E-2,
-9.826197547202E-3));
#151=CURVE_STYLE('',#30,POSITIVE_LENGTH_MEASURE(2.E-2),#1);
#152=PRESENTATION_STYLE_ASSIGNMENT((#151));
#153=STYLED_ITEM('',(#152),#150);
#154=CARTESIAN_POINT('',(1.115957518153E-2,2.872395252363E-3,
-9.826197543382E-3));
#155=CARTESIAN_POINT('',(1.047231174095E-2,5.397157746030E-3,
-6.628165064184E-3));
#156=CARTESIAN_POINT('',(1.012231421996E-2,8.013142218639E-3,
-3.314586771259E-3));
#157=CARTESIAN_POINT('',(1.012231421996E-2,1.062992125984E-2,0.E0));
#159=CURVE_STYLE('',#30,POSITIVE_LENGTH_MEASURE(2.E-2),#1);
#160=PRESENTATION_STYLE_ASSIGNMENT((#159));
#161=STYLED_ITEM('',(#160),#158);
#162=CARTESIAN_POINT('',(1.115957517423E-2,8.037237126401E-4,
-7.757525980646E-3));
#163=CARTESIAN_POINT('',(1.115121346460E-2,8.000948381773E-4,
-7.726816757975E-3));
#164=CARTESIAN_POINT('',(1.113456876998E-2,7.940513925435E-4,
-7.665338378081E-3));
#165=CARTESIAN_POINT('',(1.110986975363E-2,7.886091455298E-4,
-7.572842108561E-3));
#166=CARTESIAN_POINT('',(1.109361112742E-2,7.874015748031E-4,
-7.511168559938E-3));
#167=CARTESIAN_POINT('',(1.108553131095E-2,7.874015748031E-4,
-7.480314960629E-3));
#169=CURVE_STYLE('',#30,POSITIVE_LENGTH_MEASURE(2.E-2),#1);
#170=PRESENTATION_STYLE_ASSIGNMENT((#169));
#171=STYLED_ITEM('',(#170),#168);
#172=CARTESIAN_POINT('',(1.012231421996E-2,1.062992125984E-2,0.E0));
#173=CARTESIAN_POINT('',(1.012231421996E-2,7.315334486422E-3,
-2.616779027451E-3));
#174=CARTESIAN_POINT('',(1.047231174050E-2,4.001756194828E-3,
-5.232763498578E-3));
#175=CARTESIAN_POINT('',(1.115957517423E-2,8.037237126401E-4,
-7.757525980646E-3));
#177=CURVE_STYLE('',#30,POSITIVE_LENGTH_MEASURE(2.E-2),#1);
#178=PRESENTATION_STYLE_ASSIGNMENT((#177));
#179=STYLED_ITEM('',(#178),#176);
#180=CARTESIAN_POINT('',(1.115957518154E-2,8.037237164584E-4,
7.757526007476E-3));
#181=CARTESIAN_POINT('',(1.047231174096E-2,4.001756195656E-3,
5.232763513812E-3));
#182=CARTESIAN_POINT('',(1.012231421996E-2,7.315334488597E-3,
2.616779041203E-3));
#183=CARTESIAN_POINT('',(1.012231421996E-2,1.062992125984E-2,0.E0));
#185=CURVE_STYLE('',#30,POSITIVE_LENGTH_MEASURE(2.E-2),#1);
#186=PRESENTATION_STYLE_ASSIGNMENT((#185));
#187=STYLED_ITEM('',(#186),#184);
#188=CARTESIAN_POINT('',(1.108553131095E-2,7.874015748031E-4,
7.480314960629E-3));
#189=CARTESIAN_POINT('',(1.109361113571E-2,7.874015748031E-4,
7.511168591599E-3));
#190=CARTESIAN_POINT('',(1.110986977340E-2,7.886091481941E-4,
7.572842183190E-3));
#191=CARTESIAN_POINT('',(1.113456878901E-2,7.940513980880E-4,
7.665338448691E-3));
#192=CARTESIAN_POINT('',(1.115121347478E-2,8.000948432602E-4,
7.726816795507E-3));
#193=CARTESIAN_POINT('',(1.115957518154E-2,8.037237164584E-4,
7.757526007476E-3));
#195=CURVE_STYLE('',#30,POSITIVE_LENGTH_MEASURE(2.E-2),#1);
#196=PRESENTATION_STYLE_ASSIGNMENT((#195));
#197=STYLED_ITEM('',(#196),#194);
#198=DIRECTION('',(-1.E0,0.E0,1.638131212352E-13));
#199=VECTOR('',#198,6.237303334716E-3);
#200=CARTESIAN_POINT('',(1.732283464567E-2,7.874015748031E-4,
-7.480314960630E-3));
#201=LINE('',#200,#199);
#202=CURVE_STYLE('',#30,POSITIVE_LENGTH_MEASURE(2.E-2),#1);
#203=PRESENTATION_STYLE_ASSIGNMENT((#202));
#204=STYLED_ITEM('',(#203),#201);
#205=DIRECTION('',(1.E0,-1.161154127601E-13,0.E0));
#206=VECTOR('',#205,6.237303334716E-3);
#207=CARTESIAN_POINT('',(1.108553131095E-2,3.149606299213E-3,
-9.842519685039E-3));
#208=LINE('',#207,#206);
#209=CURVE_STYLE('',#30,POSITIVE_LENGTH_MEASURE(2.E-2),#1);
#210=PRESENTATION_STYLE_ASSIGNMENT((#209));
#211=STYLED_ITEM('',(#210),#208);
#212=CARTESIAN_POINT('',(1.115957518153E-2,2.872395252363E-3,
-9.826197543382E-3));
#213=CARTESIAN_POINT('',(1.115121989056E-2,2.903080901732E-3,
-9.829823632214E-3));
#214=CARTESIAN_POINT('',(1.113457185009E-2,2.964571743701E-3,
-9.835869036578E-3));
#215=CARTESIAN_POINT('',(1.110987852524E-2,3.057049845777E-3,
-9.841311140095E-3));
#216=CARTESIAN_POINT('',(1.109360960663E-2,3.118758507183E-3,
-9.842519685039E-3));
#217=CARTESIAN_POINT('',(1.108553131095E-2,3.149606299213E-3,
-9.842519685039E-3));
#219=CURVE_STYLE('',#30,POSITIVE_LENGTH_MEASURE(2.E-2),#1);
#220=PRESENTATION_STYLE_ASSIGNMENT((#219));
#221=STYLED_ITEM('',(#220),#218);
#222=CARTESIAN_POINT('',(1.115957517423E-2,8.037237126401E-4,
-7.757525980646E-3));
#223=CARTESIAN_POINT('',(1.119670925430E-2,8.198385531928E-4,
-7.893897252765E-3));
#224=CARTESIAN_POINT('',(1.126461271184E-2,8.754887239476E-4,
-8.159856194826E-3));
#225=CARTESIAN_POINT('',(1.134103101074E-2,1.020239484264E-3,
-8.527635761429E-3));
#226=CARTESIAN_POINT('',(1.138823757602E-2,1.221038432249E-3,
-8.862739758235E-3));
#227=CARTESIAN_POINT('',(1.140475291140E-2,1.472715938143E-3,
-9.159070010344E-3));
#228=CARTESIAN_POINT('',(1.138802604397E-2,1.769208878878E-3,
-9.410312010694E-3));
#229=CARTESIAN_POINT('',(1.134069948267E-2,2.104070444160E-3,
-9.610518047737E-3));
#230=CARTESIAN_POINT('',(1.126433353614E-2,2.471195877881E-3,
-9.754713973306E-3));
#231=CARTESIAN_POINT('',(1.119659578257E-2,2.736440719282E-3,
-9.810131948414E-3));
#232=CARTESIAN_POINT('',(1.115957518153E-2,2.872395252363E-3,
-9.826197543382E-3));
#234=CURVE_STYLE('',#30,POSITIVE_LENGTH_MEASURE(2.E-2),#1);
#235=PRESENTATION_STYLE_ASSIGNMENT((#234));
#236=STYLED_ITEM('',(#235),#233);
#237=CARTESIAN_POINT('',(3.964987327508E-2,7.874015748031E-4,0.E0));
#238=DIRECTION('',(0.E0,-1.E0,0.E0));
#239=DIRECTION('',(-9.673790478516E-1,0.E0,2.533333333333E-1));
#240=AXIS2_PLACEMENT_3D('',#237,#238,#239);
#242=CURVE_STYLE('',#30,POSITIVE_LENGTH_MEASURE(2.E-2),#1);
#243=PRESENTATION_STYLE_ASSIGNMENT((#242));
#244=STYLED_ITEM('',(#243),#241);
#245=CARTESIAN_POINT('',(1.115957517423E-2,2.872395279191E-3,
9.826197547201E-3));
#246=CARTESIAN_POINT('',(1.119670925431E-2,2.736024007067E-3,
9.810082706647E-3));
#247=CARTESIAN_POINT('',(1.126461271185E-2,2.470065064976E-3,
9.754432535883E-3));
#248=CARTESIAN_POINT('',(1.134103101074E-2,2.102285498425E-3,
9.609681775581E-3));
#249=CARTESIAN_POINT('',(1.138823757603E-2,1.767181501605E-3,
9.408882827595E-3));
#250=CARTESIAN_POINT('',(1.140475291140E-2,1.470851249458E-3,
9.157205321663E-3));
#251=CARTESIAN_POINT('',(1.138802604396E-2,1.219609249087E-3,
8.860712380881E-3));
#252=CARTESIAN_POINT('',(1.134069948265E-2,1.019403212069E-3,
8.525850815600E-3));
#253=CARTESIAN_POINT('',(1.126433353614E-2,8.752072865413E-4,
8.158725381966E-3));
#254=CARTESIAN_POINT('',(1.119659578257E-2,8.197893114262E-4,
7.893480540553E-3));
#255=CARTESIAN_POINT('',(1.115957518154E-2,8.037237164584E-4,
7.757526007476E-3));
#257=CURVE_STYLE('',#30,POSITIVE_LENGTH_MEASURE(2.E-2),#1);
#258=PRESENTATION_STYLE_ASSIGNMENT((#257));
#259=STYLED_ITEM('',(#258),#256);
#260=CARTESIAN_POINT('',(1.108553131095E-2,3.149606299214E-3,
9.842519685039E-3));
#261=CARTESIAN_POINT('',(1.109360961369E-2,3.118758480243E-3,
9.842519685039E-3));
#262=CARTESIAN_POINT('',(1.110987854090E-2,3.057049786550E-3,
9.841311138493E-3));
#263=CARTESIAN_POINT('',(1.113457187033E-2,2.964571668639E-3,
9.835869029528E-3));
#264=CARTESIAN_POINT('',(1.115121989057E-2,2.903080901894E-3,
9.829823632882E-3));
#265=CARTESIAN_POINT('',(1.115957517423E-2,2.872395279191E-3,
9.826197547201E-3));
#267=CURVE_STYLE('',#30,POSITIVE_LENGTH_MEASURE(2.E-2),#1);
#268=PRESENTATION_STYLE_ASSIGNMENT((#267));
#269=STYLED_ITEM('',(#268),#266);
#270=DIRECTION('',(-1.E0,2.595561891217E-13,0.E0));
#271=VECTOR('',#270,6.237303334717E-3);
#272=CARTESIAN_POINT('',(1.732283464567E-2,3.149606299213E-3,
9.842519685039E-3));
#273=LINE('',#272,#271);
#274=CURVE_STYLE('',#30,POSITIVE_LENGTH_MEASURE(2.E-2),#1);
#275=PRESENTATION_STYLE_ASSIGNMENT((#274));
#276=STYLED_ITEM('',(#275),#273);
#277=DIRECTION('',(1.E0,0.E0,1.521320497719E-13));
#278=VECTOR('',#277,6.237303334716E-3);
#279=CARTESIAN_POINT('',(1.108553131095E-2,7.874015748031E-4,
7.480314960629E-3));
#280=LINE('',#279,#278);
#281=CURVE_STYLE('',#30,POSITIVE_LENGTH_MEASURE(2.E-2),#1);
#282=PRESENTATION_STYLE_ASSIGNMENT((#281));
#283=STYLED_ITEM('',(#282),#280);
#284=CARTESIAN_POINT('',(1.012231421996E-2,1.062992125984E-2,0.E0));
#285=CARTESIAN_POINT('',(1.012231421996E-2,8.013142232395E-3,
3.314586773435E-3));
#286=CARTESIAN_POINT('',(1.047231174051E-2,5.397157761258E-3,
6.628165065011E-3));
#287=CARTESIAN_POINT('',(1.115957517423E-2,2.872395279191E-3,
9.826197547201E-3));
#289=CURVE_STYLE('',#30,POSITIVE_LENGTH_MEASURE(2.E-2),#1);
#290=PRESENTATION_STYLE_ASSIGNMENT((#289));
#291=STYLED_ITEM('',(#290),#288);
#292=CARTESIAN_POINT('',(1.115957518152E-2,1.838744726726E-2,
9.826197543391E-3));
#293=CARTESIAN_POINT('',(1.047231174096E-2,1.586268477363E-2,
6.628165064185E-3));
#294=CARTESIAN_POINT('',(1.012231421996E-2,1.324670030101E-2,
3.314586771265E-3));
#295=CARTESIAN_POINT('',(1.012231421996E-2,1.062992125984E-2,0.E0));
#297=CURVE_STYLE('',#30,POSITIVE_LENGTH_MEASURE(2.E-2),#1);
#298=PRESENTATION_STYLE_ASSIGNMENT((#297));
#299=STYLED_ITEM('',(#298),#296);
#300=CARTESIAN_POINT('',(3.964987327508E-2,1.062992125984E-2,
9.842519685039E-3));
#301=DIRECTION('',(0.E0,0.E0,1.E0));
#302=DIRECTION('',(-9.673790478516E-1,2.533333333333E-1,0.E0));
#303=AXIS2_PLACEMENT_3D('',#300,#301,#302);
#305=CURVE_STYLE('',#30,POSITIVE_LENGTH_MEASURE(2.E-2),#1);
#306=PRESENTATION_STYLE_ASSIGNMENT((#305));
#307=STYLED_ITEM('',(#306),#304);
#308=CARTESIAN_POINT('',(3.964987327508E-2,1.062992125984E-2,
9.842519685039E-3));
#309=DIRECTION('',(0.E0,0.E0,1.E0));
#310=DIRECTION('',(-1.E0,0.E0,0.E0));
#311=AXIS2_PLACEMENT_3D('',#308,#309,#310);
#313=CURVE_STYLE('',#30,POSITIVE_LENGTH_MEASURE(2.E-2),#1);
#314=PRESENTATION_STYLE_ASSIGNMENT((#313));
#315=STYLED_ITEM('',(#314),#312);
#316=DIRECTION('',(0.E0,-1.E0,0.E0));
#317=VECTOR('',#316,1.496062992126E-2);
#318=CARTESIAN_POINT('',(1.732283464567E-2,1.811023622047E-2,
9.842519685039E-3));
#319=LINE('',#318,#317);
#320=CURVE_STYLE('',#30,POSITIVE_LENGTH_MEASURE(2.E-2),#1);
#321=PRESENTATION_STYLE_ASSIGNMENT((#320));
#322=STYLED_ITEM('',(#321),#319);
#323=DIRECTION('',(0.E0,1.E0,0.E0));
#324=VECTOR('',#323,1.496062992126E-2);
#325=CARTESIAN_POINT('',(1.968503937008E-2,3.149606299213E-3,
7.480314960630E-3));
#326=LINE('',#325,#324);
#327=CURVE_STYLE('',#30,POSITIVE_LENGTH_MEASURE(2.E-2),#1);
#328=PRESENTATION_STYLE_ASSIGNMENT((#327));
#329=STYLED_ITEM('',(#328),#326);
#330=CARTESIAN_POINT('',(1.732283464567E-2,1.811023622047E-2,
7.480314960630E-3));
#331=DIRECTION('',(0.E0,1.E0,0.E0));
#332=DIRECTION('',(0.E0,0.E0,1.E0));
#333=AXIS2_PLACEMENT_3D('',#330,#331,#332);
#335=CURVE_STYLE('',#30,POSITIVE_LENGTH_MEASURE(2.E-2),#1);
#336=PRESENTATION_STYLE_ASSIGNMENT((#335));
#337=STYLED_ITEM('',(#336),#334);
#338=CARTESIAN_POINT('',(1.732283464567E-2,1.811023622047E-2,
7.480314960630E-3));
#339=DIRECTION('',(1.E0,0.E0,0.E0));
#340=DIRECTION('',(0.E0,1.E0,0.E0));
#341=AXIS2_PLACEMENT_3D('',#338,#339,#340);
#343=CURVE_STYLE('',#30,POSITIVE_LENGTH_MEASURE(2.E-2),#1);
#344=PRESENTATION_STYLE_ASSIGNMENT((#343));
#345=STYLED_ITEM('',(#344),#342);
#346=CARTESIAN_POINT('',(1.732283464567E-2,1.811023622047E-2,
7.480314960630E-3));
#347=DIRECTION('',(0.E0,0.E0,1.E0));
#348=DIRECTION('',(1.E0,0.E0,0.E0));
#349=AXIS2_PLACEMENT_3D('',#346,#347,#348);
#351=CURVE_STYLE('',#30,POSITIVE_LENGTH_MEASURE(2.E-2),#1);
#352=PRESENTATION_STYLE_ASSIGNMENT((#351));
#353=STYLED_ITEM('',(#352),#350);
#354=DIRECTION('',(0.E0,0.E0,-1.E0));
#355=VECTOR('',#354,1.496062992126E-2);
#356=CARTESIAN_POINT('',(1.968503937008E-2,1.811023622047E-2,
7.480314960630E-3));
#357=LINE('',#356,#355);
#358=CURVE_STYLE('',#30,POSITIVE_LENGTH_MEASURE(2.E-2),#1);
#359=PRESENTATION_STYLE_ASSIGNMENT((#358));
#360=STYLED_ITEM('',(#359),#357);
#361=DIRECTION('',(0.E0,0.E0,1.E0));
#362=VECTOR('',#361,1.496062992126E-2);
#363=CARTESIAN_POINT('',(1.732283464567E-2,2.047244094488E-2,
-7.480314960630E-3));
#364=LINE('',#363,#362);
#365=CURVE_STYLE('',#30,POSITIVE_LENGTH_MEASURE(2.E-2),#1);
#366=PRESENTATION_STYLE_ASSIGNMENT((#365));
#367=STYLED_ITEM('',(#366),#364);
#368=CARTESIAN_POINT('',(1.732283464567E-2,1.811023622047E-2,
-7.480314960630E-3));
#369=DIRECTION('',(0.E0,0.E0,-1.E0));
#370=DIRECTION('',(0.E0,1.E0,0.E0));
#371=AXIS2_PLACEMENT_3D('',#368,#369,#370);
#373=CURVE_STYLE('',#30,POSITIVE_LENGTH_MEASURE(2.E-2),#1);
#374=PRESENTATION_STYLE_ASSIGNMENT((#373));
#375=STYLED_ITEM('',(#374),#372);
#376=CARTESIAN_POINT('',(1.732283464567E-2,1.811023622047E-2,
-7.480314960630E-3));
#377=DIRECTION('',(1.E0,0.E0,0.E0));
#378=DIRECTION('',(0.E0,0.E0,-1.E0));
#379=AXIS2_PLACEMENT_3D('',#376,#377,#378);
#381=CURVE_STYLE('',#30,POSITIVE_LENGTH_MEASURE(2.E-2),#1);
#382=PRESENTATION_STYLE_ASSIGNMENT((#381));
#383=STYLED_ITEM('',(#382),#380);
#384=CARTESIAN_POINT('',(1.732283464567E-2,1.811023622047E-2,
-7.480314960630E-3));
#385=DIRECTION('',(0.E0,1.E0,0.E0));
#386=DIRECTION('',(1.E0,0.E0,0.E0));
#387=AXIS2_PLACEMENT_3D('',#384,#385,#386);
#389=CURVE_STYLE('',#30,POSITIVE_LENGTH_MEASURE(2.E-2),#1);
#390=PRESENTATION_STYLE_ASSIGNMENT((#389));
#391=STYLED_ITEM('',(#390),#388);
#392=DIRECTION('',(0.E0,-1.E0,0.E0));
#393=VECTOR('',#392,1.496062992126E-2);
#394=CARTESIAN_POINT('',(1.968503937008E-2,1.811023622047E-2,
-7.480314960630E-3));
#395=LINE('',#394,#393);
#396=CURVE_STYLE('',#30,POSITIVE_LENGTH_MEASURE(2.E-2),#1);
#397=PRESENTATION_STYLE_ASSIGNMENT((#396));
#398=STYLED_ITEM('',(#397),#395);
#399=DIRECTION('',(0.E0,1.E0,0.E0));
#400=VECTOR('',#399,1.496062992126E-2);
#401=CARTESIAN_POINT('',(1.732283464567E-2,3.149606299213E-3,
-9.842519685039E-3));
#402=LINE('',#401,#400);
#403=CURVE_STYLE('',#30,POSITIVE_LENGTH_MEASURE(2.E-2),#1);
#404=PRESENTATION_STYLE_ASSIGNMENT((#403));
#405=STYLED_ITEM('',(#404),#402);
#406=DIRECTION('',(0.E0,0.E0,-1.E0));
#407=VECTOR('',#406,1.496062992126E-2);
#408=CARTESIAN_POINT('',(1.732283464567E-2,7.874015748031E-4,
7.480314960630E-3));
#409=LINE('',#408,#407);
#410=CURVE_STYLE('',#30,POSITIVE_LENGTH_MEASURE(2.E-2),#1);
#411=PRESENTATION_STYLE_ASSIGNMENT((#410));
#412=STYLED_ITEM('',(#411),#409);
#413=DIRECTION('',(0.E0,0.E0,1.E0));
#414=VECTOR('',#413,1.496062992126E-2);
#415=CARTESIAN_POINT('',(1.968503937008E-2,3.149606299213E-3,
-7.480314960630E-3));
#416=LINE('',#415,#414);
#417=CURVE_STYLE('',#30,POSITIVE_LENGTH_MEASURE(2.E-2),#1);
#418=PRESENTATION_STYLE_ASSIGNMENT((#417));
#419=STYLED_ITEM('',(#418),#416);
#420=CARTESIAN_POINT('',(1.732283464567E-2,3.149606299213E-3,
-7.480314960630E-3));
#421=DIRECTION('',(0.E0,0.E0,-1.E0));
#422=DIRECTION('',(1.E0,0.E0,0.E0));
#423=AXIS2_PLACEMENT_3D('',#420,#421,#422);
#425=CURVE_STYLE('',#30,POSITIVE_LENGTH_MEASURE(2.E-2),#1);
#426=PRESENTATION_STYLE_ASSIGNMENT((#425));
#427=STYLED_ITEM('',(#426),#424);
#428=CARTESIAN_POINT('',(1.732283464567E-2,3.149606299213E-3,
-7.480314960630E-3));
#429=DIRECTION('',(0.E0,-1.E0,0.E0));
#430=DIRECTION('',(0.E0,0.E0,-1.E0));
#431=AXIS2_PLACEMENT_3D('',#428,#429,#430);
#433=CURVE_STYLE('',#30,POSITIVE_LENGTH_MEASURE(2.E-2),#1);
#434=PRESENTATION_STYLE_ASSIGNMENT((#433));
#435=STYLED_ITEM('',(#434),#432);
#436=CARTESIAN_POINT('',(1.732283464567E-2,3.149606299213E-3,
-7.480314960630E-3));
#437=DIRECTION('',(1.E0,0.E0,0.E0));
#438=DIRECTION('',(0.E0,-1.E0,0.E0));
#439=AXIS2_PLACEMENT_3D('',#436,#437,#438);
#441=CURVE_STYLE('',#30,POSITIVE_LENGTH_MEASURE(2.E-2),#1);
#442=PRESENTATION_STYLE_ASSIGNMENT((#441));
#443=STYLED_ITEM('',(#442),#440);
#444=CARTESIAN_POINT('',(1.732283464567E-2,3.149606299213E-3,
7.480314960630E-3));
#445=DIRECTION('',(0.E0,0.E0,1.E0));
#446=DIRECTION('',(0.E0,-1.E0,0.E0));
#447=AXIS2_PLACEMENT_3D('',#444,#445,#446);
#449=CURVE_STYLE('',#30,POSITIVE_LENGTH_MEASURE(2.E-2),#1);
#450=PRESENTATION_STYLE_ASSIGNMENT((#449));
#451=STYLED_ITEM('',(#450),#448);
#452=CARTESIAN_POINT('',(1.732283464567E-2,3.149606299213E-3,
7.480314960630E-3));
#453=DIRECTION('',(1.E0,0.E0,0.E0));
#454=DIRECTION('',(0.E0,0.E0,1.E0));
#455=AXIS2_PLACEMENT_3D('',#452,#453,#454);
#457=CURVE_STYLE('',#30,POSITIVE_LENGTH_MEASURE(2.E-2),#1);
#458=PRESENTATION_STYLE_ASSIGNMENT((#457));
#459=STYLED_ITEM('',(#458),#456);
#460=CARTESIAN_POINT('',(1.732283464567E-2,3.149606299213E-3,
7.480314960630E-3));
#461=DIRECTION('',(0.E0,-1.E0,0.E0));
#462=DIRECTION('',(1.E0,0.E0,0.E0));
#463=AXIS2_PLACEMENT_3D('',#460,#461,#462);
#465=CURVE_STYLE('',#30,POSITIVE_LENGTH_MEASURE(2.E-2),#1);
#466=PRESENTATION_STYLE_ASSIGNMENT((#465));
#467=STYLED_ITEM('',(#466),#464);
#468=CARTESIAN_POINT('',(3.964987327508E-2,1.062992125984E-2,
-9.842519685039E-3));
#469=DIRECTION('',(0.E0,0.E0,-1.E0));
#470=DIRECTION('',(-9.673790478516E-1,-2.533333333333E-1,0.E0));
#471=AXIS2_PLACEMENT_3D('',#468,#469,#470);
#473=CURVE_STYLE('',#30,POSITIVE_LENGTH_MEASURE(2.E-2),#1);
#474=PRESENTATION_STYLE_ASSIGNMENT((#473));
#475=STYLED_ITEM('',(#474),#472);
#476=CARTESIAN_POINT('',(3.964987327508E-2,1.062992125984E-2,
-9.842519685039E-3));
#477=DIRECTION('',(0.E0,0.E0,-1.E0));
#478=DIRECTION('',(-1.E0,0.E0,0.E0));
#479=AXIS2_PLACEMENT_3D('',#476,#477,#478);
#481=CURVE_STYLE('',#30,POSITIVE_LENGTH_MEASURE(2.E-2),#1);
#482=PRESENTATION_STYLE_ASSIGNMENT((#481));
#483=STYLED_ITEM('',(#482),#480);
#484=VERTEX_POINT('',#34);
#485=VERTEX_POINT('',#37);
#486=VERTEX_POINT('',#292);
#487=VERTEX_POINT('',#287);
#488=VERTEX_POINT('',#260);
#489=CARTESIAN_POINT('',(1.012231421996E-2,1.062992125984E-2,
9.842519685039E-3));
#490=VERTEX_POINT('',#489);
#491=CARTESIAN_POINT('',(1.108553131096E-2,1.811023622047E-2,
9.842519685039E-3));
#492=VERTEX_POINT('',#491);
#493=VERTEX_POINT('',#28);
#494=CARTESIAN_POINT('',(1.108553131096E-2,2.047244094488E-2,
-7.480314960630E-3));
#495=VERTEX_POINT('',#494);
#496=VERTEX_POINT('',#55);
#497=VERTEX_POINT('',#180);
#498=VERTEX_POINT('',#107);
#499=VERTEX_POINT('',#122);
#500=CARTESIAN_POINT('',(1.012231421996E-2,1.062992125984E-2,
-9.842519685039E-3));
#501=VERTEX_POINT('',#500);
#502=CARTESIAN_POINT('',(1.108553131096E-2,3.149606299213E-3,
-9.842519685039E-3));
#503=VERTEX_POINT('',#502);
#504=VERTEX_POINT('',#212);
#505=VERTEX_POINT('',#175);
#506=VERTEX_POINT('',#167);
#507=CARTESIAN_POINT('',(1.108553131096E-2,7.874015748031E-4,
7.480314960630E-3));
#508=VERTEX_POINT('',#507);
#509=CARTESIAN_POINT('',(1.732283464567E-2,7.874015748031E-4,
-7.480314960630E-3));
#510=VERTEX_POINT('',#509);
#511=CARTESIAN_POINT('',(1.732283464567E-2,3.149606299213E-3,
-9.842519685039E-3));
#512=VERTEX_POINT('',#511);
#513=CARTESIAN_POINT('',(1.732283464567E-2,7.874015748031E-4,
7.480314960630E-3));
#514=VERTEX_POINT('',#513);
#515=CARTESIAN_POINT('',(1.732283464567E-2,3.149606299213E-3,
9.842519685039E-3));
#516=VERTEX_POINT('',#515);
#517=CARTESIAN_POINT('',(1.968503937008E-2,3.149606299213E-3,
7.480314960630E-3));
#518=VERTEX_POINT('',#517);
#519=CARTESIAN_POINT('',(1.732283464567E-2,2.047244094488E-2,
-7.480314960630E-3));
#520=VERTEX_POINT('',#519);
#521=CARTESIAN_POINT('',(1.732283464567E-2,1.811023622047E-2,
-9.842519685039E-3));
#522=VERTEX_POINT('',#521);
#523=CARTESIAN_POINT('',(1.732283464567E-2,2.047244094488E-2,
7.480314960630E-3));
#524=VERTEX_POINT('',#523);
#525=CARTESIAN_POINT('',(1.732283464567E-2,1.811023622047E-2,
9.842519685039E-3));
#526=VERTEX_POINT('',#525);
#527=CARTESIAN_POINT('',(1.968503937008E-2,1.811023622047E-2,
7.480314960630E-3));
#528=VERTEX_POINT('',#527);
#529=CARTESIAN_POINT('',(1.968503937008E-2,1.811023622047E-2,
-7.480314960630E-3));
#530=VERTEX_POINT('',#529);
#531=CARTESIAN_POINT('',(1.968503937008E-2,3.149606299213E-3,
-7.480314960630E-3));
#532=VERTEX_POINT('',#531);
#533=CARTESIAN_POINT('',(1.126986835877E-2,1.878198167010E-2,
1.037420529948E-2));
#534=CARTESIAN_POINT('',(1.147748721591E-2,1.948776533780E-2,
9.608627614226E-3));
#535=CARTESIAN_POINT('',(1.147748740432E-2,2.023854683498E-2,
8.857846062791E-3));
#536=CARTESIAN_POINT('',(1.126986890894E-2,2.100412453062E-2,
8.152062280509E-3));
#537=CARTESIAN_POINT('',(1.050943908025E-2,1.613457537361E-2,
7.005952701724E-3));
#538=CARTESIAN_POINT('',(1.059117448234E-2,1.665979159201E-2,
6.532618750001E-3));
#539=CARTESIAN_POINT('',(1.059117455585E-2,1.716253868389E-2,
6.029871704787E-3));
#540=CARTESIAN_POINT('',(1.050943929877E-2,1.763587269609E-2,
5.504655517959E-3));
#541=CARTESIAN_POINT('',(1.012231421996E-2,1.338301106060E-2,
3.503960749214E-3));
#542=CARTESIAN_POINT('',(1.012231421996E-2,1.363347723273E-2,
3.253842748953E-3));
#543=CARTESIAN_POINT('',(1.012231421996E-2,1.388376333670E-2,
3.003556645290E-3));
#544=CARTESIAN_POINT('',(1.012231421996E-2,1.413388133724E-2,
2.753090473502E-3));
#545=CARTESIAN_POINT('',(1.012231421996E-2,1.062992125984E-2,0.E0));
#546=CARTESIAN_POINT('',(1.012231421996E-2,1.062992125984E-2,0.E0));
#547=CARTESIAN_POINT('',(1.012231421996E-2,1.062992125984E-2,0.E0));
#548=CARTESIAN_POINT('',(1.012231421996E-2,1.062992125984E-2,0.E0));
#549=(BOUNDED_SURFACE()B_SPLINE_SURFACE(3,3,((#533,#534,#535,#536),(#537,#538,
#539,#540),(#541,#542,#543,#544),(#545,#546,#547,#548)),.UNSPECIFIED.,.F.,.F.,
.F.)B_SPLINE_SURFACE_WITH_KNOTS((4,4),(4,4),(-3.754990513689E-3,1.E0),(
-1.001583615616E-2,1.010014922920E0),.UNSPECIFIED.)GEOMETRIC_REPRESENTATION_ITEM()RATIONAL_B_SPLINE_SURFACE(((1.000391269139E0,9.869770353652E-1,
9.869770233554E-1,1.000391233110E0),(1.000134308772E0,9.955296796832E-1,
9.955296755607E-1,1.000134296404E0),(9.999995352124E-1,1.000015469947E0,
1.000015469961E0,9.999995352552E-1),(1.E0,1.E0,1.E0,1.E0)))REPRESENTATION_ITEM(
'')SURFACE());
#551=ORIENTED_EDGE('',*,*,#550,.T.);
#553=ORIENTED_EDGE('',*,*,#552,.T.);
#555=ORIENTED_EDGE('',*,*,#554,.T.);
#556=EDGE_LOOP('',(#551,#553,#555));
#557=FACE_OUTER_BOUND('',#556,.F.);
#559=FILL_AREA_STYLE_COLOUR('',#9);
#560=FILL_AREA_STYLE('',(#559));
#561=SURFACE_STYLE_FILL_AREA(#560);
#562=SURFACE_SIDE_STYLE('',(#561));
#563=SURFACE_STYLE_USAGE(.BOTH.,#562);
#564=PRESENTATION_STYLE_ASSIGNMENT((#563));
#565=OVER_RIDING_STYLED_ITEM('',(#564),#558,#22);
#566=CARTESIAN_POINT('',(3.964987327508E-2,2.047244094488E-2,0.E0));
#567=DIRECTION('',(0.E0,-1.E0,0.E0));
#568=DIRECTION('',(0.E0,0.E0,1.E0));
#569=AXIS2_PLACEMENT_3D('',#566,#567,#568);
#570=CYLINDRICAL_SURFACE('',#569,2.952755905512E-2);
#572=ORIENTED_EDGE('',*,*,#571,.F.);
#573=ORIENTED_EDGE('',*,*,#550,.F.);
#575=ORIENTED_EDGE('',*,*,#574,.F.);
#577=ORIENTED_EDGE('',*,*,#576,.F.);
#579=ORIENTED_EDGE('',*,*,#578,.T.);
#580=EDGE_LOOP('',(#572,#573,#575,#577,#579));
#581=FACE_OUTER_BOUND('',#580,.F.);
#583=FILL_AREA_STYLE_COLOUR('',#9);
#584=FILL_AREA_STYLE('',(#583));
#585=SURFACE_STYLE_FILL_AREA(#584);
#586=SURFACE_SIDE_STYLE('',(#585));
#587=SURFACE_STYLE_USAGE(.BOTH.,#586);
#588=PRESENTATION_STYLE_ASSIGNMENT((#587));
#589=OVER_RIDING_STYLED_ITEM('',(#588),#582,#22);
#590=CARTESIAN_POINT('',(-1.732283464567E-2,1.811023622047E-2,
7.480314960630E-3));
#591=DIRECTION('',(-1.E0,0.E0,0.E0));
#592=DIRECTION('',(0.E0,0.E0,-1.E0));
#593=AXIS2_PLACEMENT_3D('',#590,#591,#592);
#594=CYLINDRICAL_SURFACE('',#593,2.362204724409E-3);
#596=ORIENTED_EDGE('',*,*,#595,.F.);
#598=ORIENTED_EDGE('',*,*,#597,.T.);
#600=ORIENTED_EDGE('',*,*,#599,.F.);
#602=ORIENTED_EDGE('',*,*,#601,.F.);
#603=ORIENTED_EDGE('',*,*,#552,.F.);
#604=ORIENTED_EDGE('',*,*,#571,.T.);
#605=EDGE_LOOP('',(#596,#598,#600,#602,#603,#604));
#606=FACE_OUTER_BOUND('',#605,.F.);
#608=FILL_AREA_STYLE_COLOUR('',#9);
#609=FILL_AREA_STYLE('',(#608));
#610=SURFACE_STYLE_FILL_AREA(#609);
#611=SURFACE_SIDE_STYLE('',(#610));
#612=SURFACE_STYLE_USAGE(.BOTH.,#611);
#613=PRESENTATION_STYLE_ASSIGNMENT((#612));
#614=OVER_RIDING_STYLED_ITEM('',(#613),#607,#22);
#615=CARTESIAN_POINT('',(-1.732283464567E-2,2.047244094488E-2,
7.480314960630E-3));
#616=DIRECTION('',(0.E0,1.E0,0.E0));
#617=DIRECTION('',(0.E0,0.E0,-1.E0));
#618=AXIS2_PLACEMENT_3D('',#615,#616,#617);
#619=PLANE('',#618);
#620=ORIENTED_EDGE('',*,*,#578,.F.);
#622=ORIENTED_EDGE('',*,*,#621,.T.);
#624=ORIENTED_EDGE('',*,*,#623,.T.);
#625=ORIENTED_EDGE('',*,*,#595,.T.);
#626=EDGE_LOOP('',(#620,#622,#624,#625));
#627=FACE_OUTER_BOUND('',#626,.F.);
#629=FILL_AREA_STYLE_COLOUR('',#9);
#630=FILL_AREA_STYLE('',(#629));
#631=SURFACE_STYLE_FILL_AREA(#630);
#632=SURFACE_SIDE_STYLE('',(#631));
#633=SURFACE_STYLE_USAGE(.BOTH.,#632);
#634=PRESENTATION_STYLE_ASSIGNMENT((#633));
#635=OVER_RIDING_STYLED_ITEM('',(#634),#628,#22);
#636=CARTESIAN_POINT('',(-1.732283464567E-2,1.811023622047E-2,
-7.480314960630E-3));
#637=DIRECTION('',(1.E0,0.E0,0.E0));
#638=DIRECTION('',(0.E0,0.E0,1.E0));
#639=AXIS2_PLACEMENT_3D('',#636,#637,#638);
#640=CYLINDRICAL_SURFACE('',#639,2.362204724409E-3);
#642=ORIENTED_EDGE('',*,*,#641,.F.);
#644=ORIENTED_EDGE('',*,*,#643,.F.);
#646=ORIENTED_EDGE('',*,*,#645,.F.);
#648=ORIENTED_EDGE('',*,*,#647,.T.);
#649=ORIENTED_EDGE('',*,*,#621,.F.);
#650=ORIENTED_EDGE('',*,*,#576,.T.);
#651=EDGE_LOOP('',(#642,#644,#646,#648,#649,#650));
#652=FACE_OUTER_BOUND('',#651,.F.);
#654=FILL_AREA_STYLE_COLOUR('',#9);
#655=FILL_AREA_STYLE('',(#654));
#656=SURFACE_STYLE_FILL_AREA(#655);
#657=SURFACE_SIDE_STYLE('',(#656));
#658=SURFACE_STYLE_USAGE(.BOTH.,#657);
#659=PRESENTATION_STYLE_ASSIGNMENT((#658));
#660=OVER_RIDING_STYLED_ITEM('',(#659),#653,#22);
#661=CARTESIAN_POINT('',(1.126986835126E-2,2.100412658702E-2,
-8.152060384720E-3));
#662=CARTESIAN_POINT('',(1.147748721594E-2,2.023854889234E-2,
-8.857844059685E-3));
#663=CARTESIAN_POINT('',(1.147748740689E-2,1.948776733121E-2,
-9.608625565819E-3));
#664=CARTESIAN_POINT('',(1.126986890887E-2,1.878198354011E-2,
-1.037420327104E-2));
#665=CARTESIAN_POINT('',(1.050943907727E-2,1.763587397885E-2,
-5.504654094598E-3));
#666=CARTESIAN_POINT('',(1.059117448235E-2,1.716254002208E-2,
-6.029870319932E-3));
#667=CARTESIAN_POINT('',(1.059117455686E-2,1.665979297097E-2,
-6.532617418344E-3));
#668=CARTESIAN_POINT('',(1.050943929875E-2,1.613457677762E-2,
-7.005951436408E-3));
#669=CARTESIAN_POINT('',(1.012231421996E-2,1.413388201822E-2,
-2.753089791576E-3));
#670=CARTESIAN_POINT('',(1.012231421996E-2,1.388376401488E-2,
-3.003555966795E-3));
#671=CARTESIAN_POINT('',(1.012231421996E-2,1.363347790813E-2,
-3.253842073861E-3));
#672=CARTESIAN_POINT('',(1.012231421996E-2,1.338301173325E-2,
-3.503960077495E-3));
#673=CARTESIAN_POINT('',(1.012231421996E-2,1.062992125984E-2,0.E0));
#674=CARTESIAN_POINT('',(1.012231421996E-2,1.062992125984E-2,0.E0));
#675=CARTESIAN_POINT('',(1.012231421996E-2,1.062992125984E-2,0.E0));
#676=CARTESIAN_POINT('',(1.012231421996E-2,1.062992125984E-2,0.E0));
#677=(BOUNDED_SURFACE()B_SPLINE_SURFACE(3,3,((#661,#662,#663,#664),(#665,#666,
#667,#668),(#669,#670,#671,#672),(#673,#674,#675,#676)),.UNSPECIFIED.,.F.,.F.,
.F.)B_SPLINE_SURFACE_WITH_KNOTS((4,4),(4,4),(-3.754990513689E-3,1.E0),(
-1.001584862610E-2,1.010014923037E0),.UNSPECIFIED.)GEOMETRIC_REPRESENTATION_ITEM()RATIONAL_B_SPLINE_SURFACE(((1.000391269631E0,9.869770353636E-1,
9.869770231914E-1,1.000391233115E0),(1.000134308940E0,9.955296796827E-1,
9.955296755044E-1,1.000134296406E0),(9.999995352118E-1,1.000015469947E0,
1.000015469961E0,9.999995352552E-1),(1.E0,1.E0,1.E0,1.E0)))REPRESENTATION_ITEM(
'')SURFACE());
#678=ORIENTED_EDGE('',*,*,#574,.T.);
#680=ORIENTED_EDGE('',*,*,#679,.T.);
#681=ORIENTED_EDGE('',*,*,#641,.T.);
#682=EDGE_LOOP('',(#678,#680,#681));
#683=FACE_OUTER_BOUND('',#682,.F.);
#685=FILL_AREA_STYLE_COLOUR('',#9);
#686=FILL_AREA_STYLE('',(#685));
#687=SURFACE_STYLE_FILL_AREA(#686);
#688=SURFACE_SIDE_STYLE('',(#687));
#689=SURFACE_STYLE_USAGE(.BOTH.,#688);
#690=PRESENTATION_STYLE_ASSIGNMENT((#689));
#691=OVER_RIDING_STYLED_ITEM('',(#690),#684,#22);
#692=CARTESIAN_POINT('',(3.964987327508E-2,1.062992125984E-2,
-9.335906864409E-2));
#693=DIRECTION('',(0.E0,0.E0,1.E0));
#694=DIRECTION('',(-1.E0,0.E0,0.E0));
#695=AXIS2_PLACEMENT_3D('',#692,#693,#694);
#696=CYLINDRICAL_SURFACE('',#695,2.952755905512E-2);
#697=ORIENTED_EDGE('',*,*,#679,.F.);
#699=ORIENTED_EDGE('',*,*,#698,.F.);
#701=ORIENTED_EDGE('',*,*,#700,.T.);
#703=ORIENTED_EDGE('',*,*,#702,.T.);
#705=ORIENTED_EDGE('',*,*,#704,.T.);
#706=ORIENTED_EDGE('',*,*,#643,.T.);
#707=EDGE_LOOP('',(#697,#699,#701,#703,#705,#706));
#708=FACE_OUTER_BOUND('',#707,.F.);
#710=FILL_AREA_STYLE_COLOUR('',#9);
#711=FILL_AREA_STYLE('',(#710));
#712=SURFACE_STYLE_FILL_AREA(#711);
#713=SURFACE_SIDE_STYLE('',(#712));
#714=SURFACE_STYLE_USAGE(.BOTH.,#713);
#715=PRESENTATION_STYLE_ASSIGNMENT((#714));
#716=OVER_RIDING_STYLED_ITEM('',(#715),#709,#22);
#717=CARTESIAN_POINT('',(1.012231421996E-2,1.062992125984E-2,0.E0));
#718=CARTESIAN_POINT('',(1.012231421996E-2,1.062992125984E-2,0.E0));
#719=CARTESIAN_POINT('',(1.012231421996E-2,1.062992125984E-2,0.E0));
#720=CARTESIAN_POINT('',(1.012231421996E-2,1.062992125984E-2,0.E0));
#721=CARTESIAN_POINT('',(1.012231421996E-2,7.125977545071E-3,
-2.753076400433E-3));
#722=CARTESIAN_POINT('',(1.012231421996E-2,7.376094328466E-3,
-3.003541354497E-3));
#723=CARTESIAN_POINT('',(1.012231421996E-2,7.626379214721E-3,
-3.253826241075E-3));
#724=CARTESIAN_POINT('',(1.012231421996E-2,7.876844168442E-3,
-3.503943024772E-3));
#725=CARTESIAN_POINT('',(1.050943531181E-2,3.624002604267E-3,
-5.504627330777E-3));
#726=CARTESIAN_POINT('',(1.059116989966E-2,4.097334531994E-3,
-6.029840740504E-3));
#727=CARTESIAN_POINT('',(1.059116997517E-2,4.600079109515E-3,
-6.532585365951E-3));
#728=CARTESIAN_POINT('',(1.050943553625E-2,5.125292486823E-3,
-7.005917355789E-3));
#729=CARTESIAN_POINT('',(1.126985725786E-2,2.557650705465E-4,
-8.152021763361E-3));
#730=CARTESIAN_POINT('',(1.147747416805E-2,1.021338892724E-3,
-8.857802427082E-3));
#731=CARTESIAN_POINT('',(1.147747436156E-2,1.772116794130E-3,
-9.608580272752E-3));
#732=CARTESIAN_POINT('',(1.126985782294E-2,2.477897575545E-3,
-1.037415410561E-2));
#733=(BOUNDED_SURFACE()B_SPLINE_SURFACE(3,3,((#717,#718,#719,#720),(#721,#722,
#723,#724),(#725,#726,#727,#728),(#729,#730,#731,#732)),.UNSPECIFIED.,.F.,.F.,
.F.)B_SPLINE_SURFACE_WITH_KNOTS((4,4),(4,4),(0.E0,1.003750108179E0),(
-1.001584851044E-2,1.010014910520E0),.UNSPECIFIED.)GEOMETRIC_REPRESENTATION_ITEM()RATIONAL_B_SPLINE_SURFACE(((1.E0,1.E0,1.E0,1.E0),(9.999995352141E-1,
1.000015469872E0,1.000015469886E0,9.999995352580E-1),(1.000134307628E0,
9.955297233775E-1,9.955297191432E-1,1.000134294925E0),(1.000391265877E0,
9.869771603299E-1,9.869771479947E-1,1.000391228871E0)))REPRESENTATION_ITEM('')SURFACE());
#735=ORIENTED_EDGE('',*,*,#734,.T.);
#737=ORIENTED_EDGE('',*,*,#736,.T.);
#738=ORIENTED_EDGE('',*,*,#698,.T.);
#739=EDGE_LOOP('',(#735,#737,#738));
#740=FACE_OUTER_BOUND('',#739,.F.);
#742=FILL_AREA_STYLE_COLOUR('',#9);
#743=FILL_AREA_STYLE('',(#742));
#744=SURFACE_STYLE_FILL_AREA(#743);
#745=SURFACE_SIDE_STYLE('',(#744));
#746=SURFACE_STYLE_USAGE(.BOTH.,#745);
#747=PRESENTATION_STYLE_ASSIGNMENT((#746));
#748=OVER_RIDING_STYLED_ITEM('',(#747),#741,#22);
#749=CARTESIAN_POINT('',(3.964987327508E-2,2.047244094488E-2,0.E0));
#750=DIRECTION('',(0.E0,-1.E0,0.E0));
#751=DIRECTION('',(0.E0,0.E0,1.E0));
#752=AXIS2_PLACEMENT_3D('',#749,#750,#751);
#753=CYLINDRICAL_SURFACE('',#752,2.952755905512E-2);
#755=ORIENTED_EDGE('',*,*,#754,.F.);
#756=ORIENTED_EDGE('',*,*,#734,.F.);
#758=ORIENTED_EDGE('',*,*,#757,.F.);
#760=ORIENTED_EDGE('',*,*,#759,.F.);
#762=ORIENTED_EDGE('',*,*,#761,.T.);
#763=EDGE_LOOP('',(#755,#756,#758,#760,#762));
#764=FACE_OUTER_BOUND('',#763,.F.);
#766=FILL_AREA_STYLE_COLOUR('',#9);
#767=FILL_AREA_STYLE('',(#766));
#768=SURFACE_STYLE_FILL_AREA(#767);
#769=SURFACE_SIDE_STYLE('',(#768));
#770=SURFACE_STYLE_USAGE(.BOTH.,#769);
#771=PRESENTATION_STYLE_ASSIGNMENT((#770));
#772=OVER_RIDING_STYLED_ITEM('',(#771),#765,#22);
#773=CARTESIAN_POINT('',(-1.732283464567E-2,3.149606299213E-3,
-7.480314960630E-3));
#774=DIRECTION('',(-1.E0,0.E0,0.E0));
#775=DIRECTION('',(0.E0,0.E0,-1.E0));
#776=AXIS2_PLACEMENT_3D('',#773,#774,#775);
#777=CYLINDRICAL_SURFACE('',#776,2.362204724409E-3);
#779=ORIENTED_EDGE('',*,*,#778,.F.);
#781=ORIENTED_EDGE('',*,*,#780,.T.);
#783=ORIENTED_EDGE('',*,*,#782,.F.);
#784=ORIENTED_EDGE('',*,*,#700,.F.);
#785=ORIENTED_EDGE('',*,*,#736,.F.);
#786=ORIENTED_EDGE('',*,*,#754,.T.);
#787=EDGE_LOOP('',(#779,#781,#783,#784,#785,#786));
#788=FACE_OUTER_BOUND('',#787,.F.);
#790=FILL_AREA_STYLE_COLOUR('',#9);
#791=FILL_AREA_STYLE('',(#790));
#792=SURFACE_STYLE_FILL_AREA(#791);
#793=SURFACE_SIDE_STYLE('',(#792));
#794=SURFACE_STYLE_USAGE(.BOTH.,#793);
#795=PRESENTATION_STYLE_ASSIGNMENT((#794));
#796=OVER_RIDING_STYLED_ITEM('',(#795),#789,#22);
#797=CARTESIAN_POINT('',(-1.732283464567E-2,7.874015748031E-4,
7.480314960630E-3));
#798=DIRECTION('',(0.E0,1.E0,0.E0));
#799=DIRECTION('',(0.E0,0.E0,-1.E0));
#800=AXIS2_PLACEMENT_3D('',#797,#798,#799);
#801=PLANE('',#800);
#803=ORIENTED_EDGE('',*,*,#802,.T.);
#805=ORIENTED_EDGE('',*,*,#804,.T.);
#806=ORIENTED_EDGE('',*,*,#778,.T.);
#807=ORIENTED_EDGE('',*,*,#761,.F.);
#808=EDGE_LOOP('',(#803,#805,#806,#807));
#809=FACE_OUTER_BOUND('',#808,.F.);
#811=FILL_AREA_STYLE_COLOUR('',#9);
#812=FILL_AREA_STYLE('',(#811));
#813=SURFACE_STYLE_FILL_AREA(#812);
#814=SURFACE_SIDE_STYLE('',(#813));
#815=SURFACE_STYLE_USAGE(.BOTH.,#814);
#816=PRESENTATION_STYLE_ASSIGNMENT((#815));
#817=OVER_RIDING_STYLED_ITEM('',(#816),#810,#22);
#818=CARTESIAN_POINT('',(-1.732283464567E-2,3.149606299213E-3,
7.480314960630E-3));
#819=DIRECTION('',(1.E0,0.E0,0.E0));
#820=DIRECTION('',(0.E0,0.E0,1.E0));
#821=AXIS2_PLACEMENT_3D('',#818,#819,#820);
#822=CYLINDRICAL_SURFACE('',#821,2.362204724409E-3);
#824=ORIENTED_EDGE('',*,*,#823,.F.);
#826=ORIENTED_EDGE('',*,*,#825,.F.);
#828=ORIENTED_EDGE('',*,*,#827,.F.);
#830=ORIENTED_EDGE('',*,*,#829,.T.);
#831=ORIENTED_EDGE('',*,*,#802,.F.);
#832=ORIENTED_EDGE('',*,*,#759,.T.);
#833=EDGE_LOOP('',(#824,#826,#828,#830,#831,#832));
#834=FACE_OUTER_BOUND('',#833,.F.);
#836=FILL_AREA_STYLE_COLOUR('',#9);
#837=FILL_AREA_STYLE('',(#836));
#838=SURFACE_STYLE_FILL_AREA(#837);
#839=SURFACE_SIDE_STYLE('',(#838));
#840=SURFACE_STYLE_USAGE(.BOTH.,#839);
#841=PRESENTATION_STYLE_ASSIGNMENT((#840));
#842=OVER_RIDING_STYLED_ITEM('',(#841),#835,#22);
#843=CARTESIAN_POINT('',(1.012231421996E-2,1.062992125984E-2,0.E0));
#844=CARTESIAN_POINT('',(1.012231421996E-2,1.062992125984E-2,0.E0));
#845=CARTESIAN_POINT('',(1.012231421996E-2,1.062992125984E-2,0.E0));
#846=CARTESIAN_POINT('',(1.012231421996E-2,1.062992125984E-2,0.E0));
#847=CARTESIAN_POINT('',(1.012231421996E-2,7.876844859415E-3,
3.503943714785E-3));
#848=CARTESIAN_POINT('',(1.012231421996E-2,7.626379905347E-3,
3.253826931381E-3));
#849=CARTESIAN_POINT('',(1.012231421996E-2,7.376095018771E-3,
3.003542045123E-3));
#850=CARTESIAN_POINT('',(1.012231421996E-2,7.125978235080E-3,
2.753077091403E-3));
#851=CARTESIAN_POINT('',(1.050943531181E-2,5.125293929068E-3,
7.005918655568E-3));
#852=CARTESIAN_POINT('',(1.059116989966E-2,4.600080519339E-3,
6.532586727846E-3));
#853=CARTESIAN_POINT('',(1.059116997517E-2,4.097335893887E-3,
6.029842150327E-3));
#854=CARTESIAN_POINT('',(1.050943553625E-2,3.624003904039E-3,
5.504628773016E-3));
#855=CARTESIAN_POINT('',(1.126985725786E-2,2.477899496489E-3,
1.037415618929E-2));
#856=CARTESIAN_POINT('',(1.147747416805E-2,1.772118832755E-3,
9.608582367109E-3));
#857=CARTESIAN_POINT('',(1.147747436156E-2,1.021340987077E-3,
8.857804465704E-3));
#858=CARTESIAN_POINT('',(1.126985782293E-2,2.557671542206E-4,
8.152023684295E-3));
#859=(BOUNDED_SURFACE()B_SPLINE_SURFACE(3,3,((#843,#844,#845,#846),(#847,#848,
#849,#850),(#851,#852,#853,#854),(#855,#856,#857,#858)),.UNSPECIFIED.,.F.,.F.,
.F.)B_SPLINE_SURFACE_WITH_KNOTS((4,4),(4,4),(0.E0,1.003750108179E0),(
-1.001584851294E-2,1.010014910522E0),.UNSPECIFIED.)GEOMETRIC_REPRESENTATION_ITEM()RATIONAL_B_SPLINE_SURFACE(((1.E0,1.E0,1.E0,1.E0),(9.999995352141E-1,
1.000015469872E0,1.000015469886E0,9.999995352580E-1),(1.000134307628E0,
9.955297233775E-1,9.955297191432E-1,1.000134294925E0),(1.000391265877E0,
9.869771603299E-1,9.869771479947E-1,1.000391228872E0)))REPRESENTATION_ITEM('')SURFACE());
#860=ORIENTED_EDGE('',*,*,#757,.T.);
#862=ORIENTED_EDGE('',*,*,#861,.T.);
#863=ORIENTED_EDGE('',*,*,#823,.T.);
#864=EDGE_LOOP('',(#860,#862,#863));
#865=FACE_OUTER_BOUND('',#864,.F.);
#867=FILL_AREA_STYLE_COLOUR('',#9);
#868=FILL_AREA_STYLE('',(#867));
#869=SURFACE_STYLE_FILL_AREA(#868);
#870=SURFACE_SIDE_STYLE('',(#869));
#871=SURFACE_STYLE_USAGE(.BOTH.,#870);
#872=PRESENTATION_STYLE_ASSIGNMENT((#871));
#873=OVER_RIDING_STYLED_ITEM('',(#872),#866,#22);
#874=CARTESIAN_POINT('',(3.964987327508E-2,1.062992125984E-2,
-9.335906864409E-2));
#875=DIRECTION('',(0.E0,0.E0,1.E0));
#876=DIRECTION('',(-1.E0,0.E0,0.E0));
#877=AXIS2_PLACEMENT_3D('',#874,#875,#876);
#878=CYLINDRICAL_SURFACE('',#877,2.952755905512E-2);
#879=ORIENTED_EDGE('',*,*,#861,.F.);
#880=ORIENTED_EDGE('',*,*,#554,.F.);
#881=ORIENTED_EDGE('',*,*,#601,.T.);
#883=ORIENTED_EDGE('',*,*,#882,.T.);
#885=ORIENTED_EDGE('',*,*,#884,.T.);
#886=ORIENTED_EDGE('',*,*,#825,.T.);
#887=EDGE_LOOP('',(#879,#880,#881,#883,#885,#886));
#888=FACE_OUTER_BOUND('',#887,.F.);
#890=FILL_AREA_STYLE_COLOUR('',#9);
#891=FILL_AREA_STYLE('',(#890));
#892=SURFACE_STYLE_FILL_AREA(#891);
#893=SURFACE_SIDE_STYLE('',(#892));
#894=SURFACE_STYLE_USAGE(.BOTH.,#893);
#895=PRESENTATION_STYLE_ASSIGNMENT((#894));
#896=OVER_RIDING_STYLED_ITEM('',(#895),#889,#22);
#897=CARTESIAN_POINT('',(-1.732283464567E-2,2.047244094488E-2,
9.842519685039E-3));
#898=DIRECTION('',(0.E0,0.E0,-1.E0));
#899=DIRECTION('',(1.E0,0.E0,0.E0));
#900=AXIS2_PLACEMENT_3D('',#897,#898,#899);
#901=PLANE('',#900);
#902=ORIENTED_EDGE('',*,*,#882,.F.);
#903=ORIENTED_EDGE('',*,*,#599,.T.);
#905=ORIENTED_EDGE('',*,*,#904,.T.);
#906=ORIENTED_EDGE('',*,*,#827,.T.);
#907=ORIENTED_EDGE('',*,*,#884,.F.);
#908=EDGE_LOOP('',(#902,#903,#905,#906,#907));
#909=FACE_OUTER_BOUND('',#908,.F.);
#911=FILL_AREA_STYLE_COLOUR('',#9);
#912=FILL_AREA_STYLE('',(#911));
#913=SURFACE_STYLE_FILL_AREA(#912);
#914=SURFACE_SIDE_STYLE('',(#913));
#915=SURFACE_STYLE_USAGE(.BOTH.,#914);
#916=PRESENTATION_STYLE_ASSIGNMENT((#915));
#917=OVER_RIDING_STYLED_ITEM('',(#916),#910,#22);
#918=CARTESIAN_POINT('',(1.732283464567E-2,2.047244094488E-2,
7.480314960630E-3));
#919=DIRECTION('',(0.E0,-1.E0,0.E0));
#920=DIRECTION('',(0.E0,0.E0,1.E0));
#921=AXIS2_PLACEMENT_3D('',#918,#919,#920);
#922=CYLINDRICAL_SURFACE('',#921,2.362204724409E-3);
#923=ORIENTED_EDGE('',*,*,#904,.F.);
#925=ORIENTED_EDGE('',*,*,#924,.T.);
#927=ORIENTED_EDGE('',*,*,#926,.F.);
#929=ORIENTED_EDGE('',*,*,#928,.T.);
#930=EDGE_LOOP('',(#923,#925,#927,#929));
#931=FACE_OUTER_BOUND('',#930,.F.);
#933=FILL_AREA_STYLE_COLOUR('',#9);
#934=FILL_AREA_STYLE('',(#933));
#935=SURFACE_STYLE_FILL_AREA(#934);
#936=SURFACE_SIDE_STYLE('',(#935));
#937=SURFACE_STYLE_USAGE(.BOTH.,#936);
#938=PRESENTATION_STYLE_ASSIGNMENT((#937));
#939=OVER_RIDING_STYLED_ITEM('',(#938),#932,#22);
#940=CARTESIAN_POINT('',(1.732283464567E-2,1.811023622047E-2,
7.480314960630E-3));
#941=DIRECTION('',(1.E0,0.E0,0.E0));
#942=DIRECTION('',(0.E0,0.E0,-1.E0));
#943=AXIS2_PLACEMENT_3D('',#940,#941,#942);
#944=SPHERICAL_SURFACE('',#943,2.362204724409E-3);
#945=ORIENTED_EDGE('',*,*,#924,.F.);
#946=ORIENTED_EDGE('',*,*,#597,.F.);
#948=ORIENTED_EDGE('',*,*,#947,.F.);
#949=EDGE_LOOP('',(#945,#946,#948));
#950=FACE_OUTER_BOUND('',#949,.F.);
#952=FILL_AREA_STYLE_COLOUR('',#9);
#953=FILL_AREA_STYLE('',(#952));
#954=SURFACE_STYLE_FILL_AREA(#953);
#955=SURFACE_SIDE_STYLE('',(#954));
#956=SURFACE_STYLE_USAGE(.BOTH.,#955);
#957=PRESENTATION_STYLE_ASSIGNMENT((#956));
#958=OVER_RIDING_STYLED_ITEM('',(#957),#951,#22);
#959=CARTESIAN_POINT('',(1.732283464567E-2,1.811023622047E-2,
7.480314960630E-3));
#960=DIRECTION('',(0.E0,0.E0,1.E0));
#961=DIRECTION('',(-1.E0,0.E0,0.E0));
#962=AXIS2_PLACEMENT_3D('',#959,#960,#961);
#963=CYLINDRICAL_SURFACE('',#962,2.362204724409E-3);
#965=ORIENTED_EDGE('',*,*,#964,.T.);
#967=ORIENTED_EDGE('',*,*,#966,.F.);
#968=ORIENTED_EDGE('',*,*,#947,.T.);
#969=ORIENTED_EDGE('',*,*,#623,.F.);
#970=EDGE_LOOP('',(#965,#967,#968,#969));
#971=FACE_OUTER_BOUND('',#970,.F.);
#973=FILL_AREA_STYLE_COLOUR('',#9);
#974=FILL_AREA_STYLE('',(#973));
#975=SURFACE_STYLE_FILL_AREA(#974);
#976=SURFACE_SIDE_STYLE('',(#975));
#977=SURFACE_STYLE_USAGE(.BOTH.,#976);
#978=PRESENTATION_STYLE_ASSIGNMENT((#977));
#979=OVER_RIDING_STYLED_ITEM('',(#978),#972,#22);
#980=CARTESIAN_POINT('',(1.732283464567E-2,1.811023622047E-2,
-7.480314960630E-3));
#981=DIRECTION('',(1.E0,0.E0,0.E0));
#982=DIRECTION('',(0.E0,0.E0,-1.E0));
#983=AXIS2_PLACEMENT_3D('',#980,#981,#982);
#984=SPHERICAL_SURFACE('',#983,2.362204724409E-3);
#985=ORIENTED_EDGE('',*,*,#964,.F.);
#986=ORIENTED_EDGE('',*,*,#647,.F.);
#988=ORIENTED_EDGE('',*,*,#987,.F.);
#989=EDGE_LOOP('',(#985,#986,#988));
#990=FACE_OUTER_BOUND('',#989,.F.);
#992=FILL_AREA_STYLE_COLOUR('',#9);
#993=FILL_AREA_STYLE('',(#992));
#994=SURFACE_STYLE_FILL_AREA(#993);
#995=SURFACE_SIDE_STYLE('',(#994));
#996=SURFACE_STYLE_USAGE(.BOTH.,#995);
#997=PRESENTATION_STYLE_ASSIGNMENT((#996));
#998=OVER_RIDING_STYLED_ITEM('',(#997),#991,#22);
#999=CARTESIAN_POINT('',(1.732283464567E-2,2.047244094488E-2,
-7.480314960630E-3));
#1000=DIRECTION('',(0.E0,-1.E0,0.E0));
#1001=DIRECTION('',(0.E0,0.E0,1.E0));
#1002=AXIS2_PLACEMENT_3D('',#999,#1000,#1001);
#1003=CYLINDRICAL_SURFACE('',#1002,2.362204724409E-3);
#1005=ORIENTED_EDGE('',*,*,#1004,.F.);
#1006=ORIENTED_EDGE('',*,*,#987,.T.);
#1008=ORIENTED_EDGE('',*,*,#1007,.F.);
#1010=ORIENTED_EDGE('',*,*,#1009,.T.);
#1011=EDGE_LOOP('',(#1005,#1006,#1008,#1010));
#1012=FACE_OUTER_BOUND('',#1011,.F.);
#1014=FILL_AREA_STYLE_COLOUR('',#9);
#1015=FILL_AREA_STYLE('',(#1014));
#1016=SURFACE_STYLE_FILL_AREA(#1015);
#1017=SURFACE_SIDE_STYLE('',(#1016));
#1018=SURFACE_STYLE_USAGE(.BOTH.,#1017);
#1019=PRESENTATION_STYLE_ASSIGNMENT((#1018));
#1020=OVER_RIDING_STYLED_ITEM('',(#1019),#1013,#22);
#1021=CARTESIAN_POINT('',(1.968503937008E-2,2.047244094488E-2,
7.480314960630E-3));
#1022=DIRECTION('',(-1.E0,0.E0,0.E0));
#1023=DIRECTION('',(0.E0,0.E0,-1.E0));
#1024=AXIS2_PLACEMENT_3D('',#1021,#1022,#1023);
#1025=PLANE('',#1024);
#1026=ORIENTED_EDGE('',*,*,#926,.T.);
#1027=ORIENTED_EDGE('',*,*,#966,.T.);
#1028=ORIENTED_EDGE('',*,*,#1004,.T.);
#1030=ORIENTED_EDGE('',*,*,#1029,.T.);
#1031=EDGE_LOOP('',(#1026,#1027,#1028,#1030));
#1032=FACE_OUTER_BOUND('',#1031,.F.);
#1034=FILL_AREA_STYLE_COLOUR('',#9);
#1035=FILL_AREA_STYLE('',(#1034));
#1036=SURFACE_STYLE_FILL_AREA(#1035);
#1037=SURFACE_SIDE_STYLE('',(#1036));
#1038=SURFACE_STYLE_USAGE(.BOTH.,#1037);
#1039=PRESENTATION_STYLE_ASSIGNMENT((#1038));
#1040=OVER_RIDING_STYLED_ITEM('',(#1039),#1033,#22);
#1041=CARTESIAN_POINT('',(1.732283464567E-2,3.149606299213E-3,
7.480314960630E-3));
#1042=DIRECTION('',(0.E0,0.E0,-1.E0));
#1043=DIRECTION('',(1.E0,0.E0,0.E0));
#1044=AXIS2_PLACEMENT_3D('',#1041,#1042,#1043);
#1045=CYLINDRICAL_SURFACE('',#1044,2.362204724409E-3);
#1047=ORIENTED_EDGE('',*,*,#1046,.T.);
#1048=ORIENTED_EDGE('',*,*,#804,.F.);
#1050=ORIENTED_EDGE('',*,*,#1049,.T.);
#1051=ORIENTED_EDGE('',*,*,#1029,.F.);
#1052=EDGE_LOOP('',(#1047,#1048,#1050,#1051));
#1053=FACE_OUTER_BOUND('',#1052,.F.);
#1055=FILL_AREA_STYLE_COLOUR('',#9);
#1056=FILL_AREA_STYLE('',(#1055));
#1057=SURFACE_STYLE_FILL_AREA(#1056);
#1058=SURFACE_SIDE_STYLE('',(#1057));
#1059=SURFACE_STYLE_USAGE(.BOTH.,#1058);
#1060=PRESENTATION_STYLE_ASSIGNMENT((#1059));
#1061=OVER_RIDING_STYLED_ITEM('',(#1060),#1054,#22);
#1062=CARTESIAN_POINT('',(1.732283464567E-2,3.149606299213E-3,
-7.480314960630E-3));
#1063=DIRECTION('',(1.E0,0.E0,0.E0));
#1064=DIRECTION('',(0.E0,0.E0,-1.E0));
#1065=AXIS2_PLACEMENT_3D('',#1062,#1063,#1064);
#1066=SPHERICAL_SURFACE('',#1065,2.362204724409E-3);
#1067=ORIENTED_EDGE('',*,*,#1046,.F.);
#1068=ORIENTED_EDGE('',*,*,#1009,.F.);
#1069=ORIENTED_EDGE('',*,*,#780,.F.);
#1070=EDGE_LOOP('',(#1067,#1068,#1069));
#1071=FACE_OUTER_BOUND('',#1070,.F.);
#1073=FILL_AREA_STYLE_COLOUR('',#9);
#1074=FILL_AREA_STYLE('',(#1073));
#1075=SURFACE_STYLE_FILL_AREA(#1074);
#1076=SURFACE_SIDE_STYLE('',(#1075));
#1077=SURFACE_STYLE_USAGE(.BOTH.,#1076);
#1078=PRESENTATION_STYLE_ASSIGNMENT((#1077));
#1079=OVER_RIDING_STYLED_ITEM('',(#1078),#1072,#22);
#1080=CARTESIAN_POINT('',(1.732283464567E-2,3.149606299213E-3,
7.480314960630E-3));
#1081=DIRECTION('',(1.E0,0.E0,0.E0));
#1082=DIRECTION('',(0.E0,0.E0,-1.E0));
#1083=AXIS2_PLACEMENT_3D('',#1080,#1081,#1082);
#1084=SPHERICAL_SURFACE('',#1083,2.362204724409E-3);
#1085=ORIENTED_EDGE('',*,*,#1049,.F.);
#1086=ORIENTED_EDGE('',*,*,#829,.F.);
#1087=ORIENTED_EDGE('',*,*,#928,.F.);
#1088=EDGE_LOOP('',(#1085,#1086,#1087));
#1089=FACE_OUTER_BOUND('',#1088,.F.);
#1091=FILL_AREA_STYLE_COLOUR('',#9);
#1092=FILL_AREA_STYLE('',(#1091));
#1093=SURFACE_STYLE_FILL_AREA(#1092);
#1094=SURFACE_SIDE_STYLE('',(#1093));
#1095=SURFACE_STYLE_USAGE(.BOTH.,#1094);
#1096=PRESENTATION_STYLE_ASSIGNMENT((#1095));
#1097=OVER_RIDING_STYLED_ITEM('',(#1096),#1090,#22);
#1098=CARTESIAN_POINT('',(-1.732283464567E-2,2.047244094488E-2,
-9.842519685039E-3));
#1099=DIRECTION('',(0.E0,0.E0,1.E0));
#1100=DIRECTION('',(-1.E0,0.E0,0.E0));
#1101=AXIS2_PLACEMENT_3D('',#1098,#1099,#1100);
#1102=PLANE('',#1101);
#1103=ORIENTED_EDGE('',*,*,#702,.F.);
#1104=ORIENTED_EDGE('',*,*,#782,.T.);
#1105=ORIENTED_EDGE('',*,*,#1007,.T.);
#1106=ORIENTED_EDGE('',*,*,#645,.T.);
#1107=ORIENTED_EDGE('',*,*,#704,.F.);
#1108=EDGE_LOOP('',(#1103,#1104,#1105,#1106,#1107));
#1109=FACE_OUTER_BOUND('',#1108,.F.);
#1111=FILL_AREA_STYLE_COLOUR('',#9);
#1112=FILL_AREA_STYLE('',(#1111));
#1113=SURFACE_STYLE_FILL_AREA(#1112);
#1114=SURFACE_SIDE_STYLE('',(#1113));
#1115=SURFACE_STYLE_USAGE(.BOTH.,#1114);
#1116=PRESENTATION_STYLE_ASSIGNMENT((#1115));
#1117=OVER_RIDING_STYLED_ITEM('',(#1116),#1110,#22);
#1120=FILL_AREA_STYLE_COLOUR('',#1);
#1121=FILL_AREA_STYLE('',(#1120));
#1122=SURFACE_STYLE_FILL_AREA(#1121);
#1123=SURFACE_SIDE_STYLE('',(#1122));
#1124=SURFACE_STYLE_USAGE(.BOTH.,#1123);
#1125=PRESENTATION_STYLE_ASSIGNMENT((#1124));
#22=STYLED_ITEM('',(#1125),#1119);
#1127=LENGTH_MEASURE_WITH_UNIT(LENGTH_MEASURE(2.54E1),#1126);
#1128=(CONVERSION_BASED_UNIT('INCH',#1127)LENGTH_UNIT()NAMED_UNIT(*));
#1130=PLANE_ANGLE_MEASURE_WITH_UNIT(PLANE_ANGLE_MEASURE(1.745329251994E-2),
#1129);
#1131=(CONVERSION_BASED_UNIT('DEGREE',#1130)NAMED_UNIT(*)PLANE_ANGLE_UNIT());
#1133=UNCERTAINTY_MEASURE_WITH_UNIT(LENGTH_MEASURE(3.063816200682E-6),#1128,
'closure',
'Maximum model space distance between geometric entities at asserted connectivities');
#1135=CARTESIAN_POINT('',(0.E0,0.E0,0.E0));
#1136=DIRECTION('',(0.E0,0.E0,1.E0));
#1137=DIRECTION('',(1.E0,0.E0,0.E0));
#1140=MECHANICAL_DESIGN_GEOMETRIC_PRESENTATION_REPRESENTATION('',(#33,#41,#49,
#59,#66,#73,#83,#98,#106,#121,#131,#138,#145,#153,#161,#171,#179,#187,#197,#204,
#211,#221,#236,#244,#259,#269,#276,#283,#291,#299,#307,#315,#322,#329,#337,#345,
#353,#360,#367,#375,#383,#391,#398,#405,#412,#419,#427,#435,#443,#451,#459,#467,
#475,#483,#565,#589,#614,#635,#660,#691,#716,#748,#772,#796,#817,#842,#873,#896,
#917,#939,#958,#979,#998,#1020,#1040,#1061,#1079,#1097,#1117,#22),#1134);
#1141=APPLICATION_CONTEXT('automotive design');
#1142=APPLICATION_PROTOCOL_DEFINITION('international standard',
'config_control_design',1994,#1141);
#1143=PRODUCT_DEFINITION_CONTEXT('',#1141,'design');
#1144=PRODUCT_CONTEXT('',#1141,'mechanical');
#1145=PRODUCT('BODY3-4187','BODY3-4187','NOT SPECIFIED',(#1144));
#1146=PRODUCT_DEFINITION_FORMATION_WITH_SPECIFIED_SOURCE('1','LAST_VERSION',
#1145,.MADE.);
#1154=LENGTH_MEASURE_WITH_UNIT(LENGTH_MEASURE(2.54E1),#1153);
#1155=(CONVERSION_BASED_UNIT('INCH',#1154)LENGTH_UNIT()NAMED_UNIT(*));
#1156=DERIVED_UNIT_ELEMENT(#1155,2.E0);
#1157=AREA_UNIT((#1156));
#1158=MEASURE_REPRESENTATION_ITEM('surface area measure',AREA_MEASURE(
8.824549435423E-1),#1157);
#1163=LENGTH_MEASURE_WITH_UNIT(LENGTH_MEASURE(2.54E1),#1162);
#1164=(CONVERSION_BASED_UNIT('INCH',#1163)LENGTH_UNIT()NAMED_UNIT(*));
#1165=DERIVED_UNIT_ELEMENT(#1164,3.E0);
#1166=VOLUME_UNIT((#1165));
#1167=MEASURE_REPRESENTATION_ITEM('volume measure',VOLUME_MEASURE(
5.696288065906E-2),#1166);
#1171=CARTESIAN_POINT('centre point',(3.791219507466E-1,2.699999999999E-1,
-2.494591847383E-11));
#1176=LENGTH_MEASURE_WITH_UNIT(LENGTH_MEASURE(2.54E1),#1175);
#1177=(CONVERSION_BASED_UNIT('INCH',#1176)LENGTH_UNIT()NAMED_UNIT(*));
#1178=DERIVED_UNIT_ELEMENT(#1177,2.E0);
#1179=AREA_UNIT((#1178));
#1180=MEASURE_REPRESENTATION_ITEM('surface area measure',AREA_MEASURE(
8.824549435423E-1),#1179);
#1185=LENGTH_MEASURE_WITH_UNIT(LENGTH_MEASURE(2.54E1),#1184);
#1186=(CONVERSION_BASED_UNIT('INCH',#1185)LENGTH_UNIT()NAMED_UNIT(*));
#1187=DERIVED_UNIT_ELEMENT(#1186,3.E0);
#1188=VOLUME_UNIT((#1187));
#1189=MEASURE_REPRESENTATION_ITEM('volume measure',VOLUME_MEASURE(
5.696288065906E-2),#1188);
#1193=CARTESIAN_POINT('centre point',(3.791219507466E-1,2.699999999999E-1,
-2.494591847383E-11));
#1=DRAUGHTING_PRE_DEFINED_COLOUR('white');
#2=DRAUGHTING_PRE_DEFINED_COLOUR('green');
#3=COLOUR_RGB('',1.1E-2,1.2E-2,1.E0);
#4=COLOUR_RGB('',1.921568627451E-1,1.921568627451E-1,1.921568627451E-1);
#5=COLOUR_RGB('',2.352941176471E-1,2.352941176471E-1,2.352941176471E-1);
#6=COLOUR_RGB('',3.137254901961E-1,3.137254901961E-1,3.137254901961E-1);
#7=COLOUR_RGB('',4.1E-1,2.61589E-1,1.12848E-1);
#8=COLOUR_RGB('',5.04854E-1,1.5455E-2,1.5455E-2);
#9=COLOUR_RGB('',6.E-1,6.E-1,6.E-1);
#10=COLOUR_RGB('',6.274509803922E-1,6.274509803922E-1,6.274509803922E-1);
#11=COLOUR_RGB('',6.35294E-1,6.86275E-1,7.4902E-1);
#12=COLOUR_RGB('',6.40777E-1,6.40777E-1,6.40777E-1);
#13=COLOUR_RGB('',6.69062E-1,6.69903E-1,6.55217E-1);
#14=COLOUR_RGB('',8.313725490196E-1,0.E0,0.E0);
#15=COLOUR_RGB('',8.666666666667E-1,8.666666666667E-1,8.666666666667E-1);
#16=COLOUR_RGB('',9.21569E-1,7.05882E-1,4.70588E-1);
#17=DRAUGHTING_PRE_DEFINED_COLOUR('red');
#18=DRAUGHTING_PRE_DEFINED_COLOUR('yellow');
#19=COLOUR_RGB('',1.E0,1.E0,5.3E-1);
#20=COLOUR_RGB('',1.E0,1.E0,9.49E-1);
#21=DRAUGHTING_PRE_DEFINED_COLOUR('white');
#29=B_SPLINE_CURVE_WITH_KNOTS('',3,(#23,#24,#25,#26,#27,#28),.UNSPECIFIED.,.F.,
.F.,(4,1,1,4),(0.E0,3.333333333333E-1,6.666666666667E-1,1.E0),.UNSPECIFIED.);
#38=B_SPLINE_CURVE_WITH_KNOTS('',3,(#34,#35,#36,#37),.UNSPECIFIED.,.F.,.F.,(4,
4),(0.E0,1.E0),.UNSPECIFIED.);
#46=B_SPLINE_CURVE_WITH_KNOTS('',3,(#42,#43,#44,#45),.UNSPECIFIED.,.F.,.F.,(4,
4),(0.E0,1.E0),.UNSPECIFIED.);
#56=B_SPLINE_CURVE_WITH_KNOTS('',3,(#50,#51,#52,#53,#54,#55),.UNSPECIFIED.,.F.,
.F.,(4,1,1,4),(0.E0,3.333333333333E-1,6.666666666667E-1,1.E0),.UNSPECIFIED.);
#80=B_SPLINE_CURVE_WITH_KNOTS('',3,(#74,#75,#76,#77,#78,#79),.UNSPECIFIED.,.F.,
.F.,(4,1,1,4),(0.E0,3.333333333333E-1,6.666666666667E-1,1.E0),.UNSPECIFIED.);
#95=B_SPLINE_CURVE_WITH_KNOTS('',3,(#84,#85,#86,#87,#88,#89,#90,#91,#92,#93,
#94),.UNSPECIFIED.,.F.,.F.,(4,1,1,1,1,1,1,1,4),(0.E0,1.25E-1,2.5E-1,3.75E-1,
5.E-1,6.25E-1,7.5E-1,8.75E-1,1.E0),.UNSPECIFIED.);
#103=CIRCLE('',#102,2.952755905512E-2);
#118=B_SPLINE_CURVE_WITH_KNOTS('',3,(#107,#108,#109,#110,#111,#112,#113,#114,
#115,#116,#117),.UNSPECIFIED.,.F.,.F.,(4,1,1,1,1,1,1,1,4),(0.E0,1.25E-1,2.5E-1,
3.75E-1,5.E-1,6.25E-1,7.5E-1,8.75E-1,1.E0),.UNSPECIFIED.);
#128=B_SPLINE_CURVE_WITH_KNOTS('',3,(#122,#123,#124,#125,#126,#127),
.UNSPECIFIED.,.F.,.F.,(4,1,1,4),(0.E0,3.333333333333E-1,6.666666666667E-1,1.E0),
.UNSPECIFIED.);
#150=B_SPLINE_CURVE_WITH_KNOTS('',3,(#146,#147,#148,#149),.UNSPECIFIED.,.F.,.F.,
(4,4),(0.E0,1.E0),.UNSPECIFIED.);
#158=B_SPLINE_CURVE_WITH_KNOTS('',3,(#154,#155,#156,#157),.UNSPECIFIED.,.F.,.F.,
(4,4),(0.E0,1.E0),.UNSPECIFIED.);
#168=B_SPLINE_CURVE_WITH_KNOTS('',3,(#162,#163,#164,#165,#166,#167),
.UNSPECIFIED.,.F.,.F.,(4,1,1,4),(0.E0,3.333333333333E-1,6.666666666667E-1,1.E0),
.UNSPECIFIED.);
#176=B_SPLINE_CURVE_WITH_KNOTS('',3,(#172,#173,#174,#175),.UNSPECIFIED.,.F.,.F.,
(4,4),(0.E0,1.E0),.UNSPECIFIED.);
#184=B_SPLINE_CURVE_WITH_KNOTS('',3,(#180,#181,#182,#183),.UNSPECIFIED.,.F.,.F.,
(4,4),(0.E0,1.E0),.UNSPECIFIED.);
#194=B_SPLINE_CURVE_WITH_KNOTS('',3,(#188,#189,#190,#191,#192,#193),
.UNSPECIFIED.,.F.,.F.,(4,1,1,4),(0.E0,3.333333333333E-1,6.666666666667E-1,1.E0),
.UNSPECIFIED.);
#218=B_SPLINE_CURVE_WITH_KNOTS('',3,(#212,#213,#214,#215,#216,#217),
.UNSPECIFIED.,.F.,.F.,(4,1,1,4),(0.E0,3.333333333333E-1,6.666666666667E-1,1.E0),
.UNSPECIFIED.);
#233=B_SPLINE_CURVE_WITH_KNOTS('',3,(#222,#223,#224,#225,#226,#227,#228,#229,
#230,#231,#232),.UNSPECIFIED.,.F.,.F.,(4,1,1,1,1,1,1,1,4),(0.E0,1.25E-1,2.5E-1,
3.75E-1,5.E-1,6.25E-1,7.5E-1,8.75E-1,1.E0),.UNSPECIFIED.);
#241=CIRCLE('',#240,2.952755905512E-2);
#256=B_SPLINE_CURVE_WITH_KNOTS('',3,(#245,#246,#247,#248,#249,#250,#251,#252,
#253,#254,#255),.UNSPECIFIED.,.F.,.F.,(4,1,1,1,1,1,1,1,4),(0.E0,1.25E-1,2.5E-1,
3.75E-1,5.E-1,6.25E-1,7.5E-1,8.75E-1,1.E0),.UNSPECIFIED.);
#266=B_SPLINE_CURVE_WITH_KNOTS('',3,(#260,#261,#262,#263,#264,#265),
.UNSPECIFIED.,.F.,.F.,(4,1,1,4),(0.E0,3.333333333333E-1,6.666666666667E-1,1.E0),
.UNSPECIFIED.);
#288=B_SPLINE_CURVE_WITH_KNOTS('',3,(#284,#285,#286,#287),.UNSPECIFIED.,.F.,.F.,
(4,4),(0.E0,1.E0),.UNSPECIFIED.);
#296=B_SPLINE_CURVE_WITH_KNOTS('',3,(#292,#293,#294,#295),.UNSPECIFIED.,.F.,.F.,
(4,4),(0.E0,1.E0),.UNSPECIFIED.);
#304=CIRCLE('',#303,2.952755905512E-2);
#312=CIRCLE('',#311,2.952755905512E-2);
#334=CIRCLE('',#333,2.362204724409E-3);
#342=CIRCLE('',#341,2.362204724409E-3);
#350=CIRCLE('',#349,2.362204724409E-3);
#372=CIRCLE('',#371,2.362204724409E-3);
#380=CIRCLE('',#379,2.362204724409E-3);
#388=CIRCLE('',#387,2.362204724409E-3);
#424=CIRCLE('',#423,2.362204724409E-3);
#432=CIRCLE('',#431,2.362204724409E-3);
#440=CIRCLE('',#439,2.362204724409E-3);
#448=CIRCLE('',#447,2.362204724409E-3);
#456=CIRCLE('',#455,2.362204724409E-3);
#464=CIRCLE('',#463,2.362204724409E-3);
#472=CIRCLE('',#471,2.952755905512E-2);
#480=CIRCLE('',#479,2.952755905512E-2);
#550=EDGE_CURVE('',#484,#485,#38,.T.);
#552=EDGE_CURVE('',#485,#486,#95,.T.);
#554=EDGE_CURVE('',#486,#484,#296,.T.);
#558=ADVANCED_FACE('',(#557),#549,.F.);
#571=EDGE_CURVE('',#485,#493,#29,.T.);
#574=EDGE_CURVE('',#496,#484,#46,.T.);
#576=EDGE_CURVE('',#495,#496,#56,.T.);
#578=EDGE_CURVE('',#495,#493,#103,.T.);
#582=ADVANCED_FACE('',(#581),#570,.T.);
#595=EDGE_CURVE('',#524,#493,#63,.T.);
#597=EDGE_CURVE('',#524,#526,#342,.T.);
#599=EDGE_CURVE('',#492,#526,#70,.T.);
#601=EDGE_CURVE('',#486,#492,#80,.T.);
#607=ADVANCED_FACE('',(#606),#594,.T.);
#621=EDGE_CURVE('',#495,#520,#142,.T.);
#623=EDGE_CURVE('',#520,#524,#364,.T.);
#628=ADVANCED_FACE('',(#627),#619,.T.);
#641=EDGE_CURVE('',#498,#496,#118,.T.);
#643=EDGE_CURVE('',#499,#498,#128,.T.);
#645=EDGE_CURVE('',#522,#499,#135,.T.);
#647=EDGE_CURVE('',#522,#520,#380,.T.);
#653=ADVANCED_FACE('',(#652),#640,.T.);
#679=EDGE_CURVE('',#484,#498,#150,.T.);
#684=ADVANCED_FACE('',(#683),#677,.F.);
#698=EDGE_CURVE('',#504,#484,#158,.T.);
#700=EDGE_CURVE('',#504,#503,#218,.T.);
#702=EDGE_CURVE('',#503,#501,#472,.T.);
#704=EDGE_CURVE('',#501,#499,#480,.T.);
#709=ADVANCED_FACE('',(#708),#696,.T.);
#734=EDGE_CURVE('',#484,#505,#176,.T.);
#736=EDGE_CURVE('',#505,#504,#233,.T.);
#741=ADVANCED_FACE('',(#740),#733,.F.);
#754=EDGE_CURVE('',#505,#506,#168,.T.);
#757=EDGE_CURVE('',#497,#484,#184,.T.);
#759=EDGE_CURVE('',#508,#497,#194,.T.);
#761=EDGE_CURVE('',#508,#506,#241,.T.);
#765=ADVANCED_FACE('',(#764),#753,.T.);
#778=EDGE_CURVE('',#510,#506,#201,.T.);
#780=EDGE_CURVE('',#510,#512,#440,.T.);
#782=EDGE_CURVE('',#503,#512,#208,.T.);
#789=ADVANCED_FACE('',(#788),#777,.T.);
#802=EDGE_CURVE('',#508,#514,#280,.T.);
#804=EDGE_CURVE('',#514,#510,#409,.T.);
#810=ADVANCED_FACE('',(#809),#801,.F.);
#823=EDGE_CURVE('',#487,#497,#256,.T.);
#825=EDGE_CURVE('',#488,#487,#266,.T.);
#827=EDGE_CURVE('',#516,#488,#273,.T.);
#829=EDGE_CURVE('',#516,#514,#456,.T.);
#835=ADVANCED_FACE('',(#834),#822,.T.);
#861=EDGE_CURVE('',#484,#487,#288,.T.);
#866=ADVANCED_FACE('',(#865),#859,.F.);
#882=EDGE_CURVE('',#492,#490,#304,.T.);
#884=EDGE_CURVE('',#490,#488,#312,.T.);
#889=ADVANCED_FACE('',(#888),#878,.T.);
#904=EDGE_CURVE('',#526,#516,#319,.T.);
#910=ADVANCED_FACE('',(#909),#901,.F.);
#924=EDGE_CURVE('',#526,#528,#334,.T.);
#926=EDGE_CURVE('',#518,#528,#326,.T.);
#928=EDGE_CURVE('',#518,#516,#464,.T.);
#932=ADVANCED_FACE('',(#931),#922,.T.);
#947=EDGE_CURVE('',#528,#524,#350,.T.);
#951=ADVANCED_FACE('',(#950),#944,.T.);
#964=EDGE_CURVE('',#520,#530,#372,.T.);
#966=EDGE_CURVE('',#528,#530,#357,.T.);
#972=ADVANCED_FACE('',(#971),#963,.T.);
#987=EDGE_CURVE('',#530,#522,#388,.T.);
#991=ADVANCED_FACE('',(#990),#984,.T.);
#1004=EDGE_CURVE('',#530,#532,#395,.T.);
#1007=EDGE_CURVE('',#512,#522,#402,.T.);
#1009=EDGE_CURVE('',#512,#532,#432,.T.);
#1013=ADVANCED_FACE('',(#1012),#1003,.T.);
#1029=EDGE_CURVE('',#532,#518,#416,.T.);
#1033=ADVANCED_FACE('',(#1032),#1025,.F.);
#1046=EDGE_CURVE('',#532,#510,#424,.T.);
#1049=EDGE_CURVE('',#514,#518,#448,.T.);
#1054=ADVANCED_FACE('',(#1053),#1045,.T.);
#1072=ADVANCED_FACE('',(#1071),#1066,.T.);
#1090=ADVANCED_FACE('',(#1089),#1084,.T.);
#1110=ADVANCED_FACE('',(#1109),#1102,.F.);
#1118=CLOSED_SHELL('',(#558,#582,#607,#628,#653,#684,#709,#741,#765,#789,#810,
#835,#866,#889,#910,#932,#951,#972,#991,#1013,#1033,#1054,#1072,#1090,#1110));
#1119=MANIFOLD_SOLID_BREP('',#1118);
#1126=(LENGTH_UNIT()NAMED_UNIT(*)SI_UNIT(.MILLI.,.METRE.));
#1129=(NAMED_UNIT(*)PLANE_ANGLE_UNIT()SI_UNIT($,.RADIAN.));
#1132=(NAMED_UNIT(*)SI_UNIT($,.STERADIAN.)SOLID_ANGLE_UNIT());
#1134=(GEOMETRIC_REPRESENTATION_CONTEXT(3)GLOBAL_UNCERTAINTY_ASSIGNED_CONTEXT((
#1133))GLOBAL_UNIT_ASSIGNED_CONTEXT((#1128,#1131,#1132))REPRESENTATION_CONTEXT(
'ID1','3'));
#1138=AXIS2_PLACEMENT_3D('',#1135,#1136,#1137);
#1139=ADVANCED_BREP_SHAPE_REPRESENTATION('',(#1138,#1119),#1134);
#1147=PRODUCT_DEFINITION('design','',#1146,#1143);
#1148=PRODUCT_DEFINITION_SHAPE('','SHAPE FOR BODY3-4187.',#1147);
#1149=SHAPE_ASPECT('','solid data associated with BODY3-4187',#1148,.F.);
#1150=PROPERTY_DEFINITION('',
'shape for solid data with which properties are associated',#1149);
#1151=SHAPE_REPRESENTATION('',(#1119),#1134);
#1152=SHAPE_DEFINITION_REPRESENTATION(#1150,#1151);
#1153=(LENGTH_UNIT()NAMED_UNIT(*)SI_UNIT(.MILLI.,.METRE.));
#1159=PROPERTY_DEFINITION('geometric validation property','area of BODY3-4187',
#1149);
#1160=REPRESENTATION('surface area',(#1158),#1134);
#1161=PROPERTY_DEFINITION_REPRESENTATION(#1159,#1160);
#1162=(LENGTH_UNIT()NAMED_UNIT(*)SI_UNIT(.MILLI.,.METRE.));
#1168=PROPERTY_DEFINITION('geometric validation property',
'volume of BODY3-4187',#1149);
#1169=REPRESENTATION('volume',(#1167),#1134);
#1170=PROPERTY_DEFINITION_REPRESENTATION(#1168,#1169);
#1172=PROPERTY_DEFINITION('geometric validation property',
'centroid of BODY3-4187',#1149);
#1173=REPRESENTATION('centroid',(#1171),#1134);
#1174=PROPERTY_DEFINITION_REPRESENTATION(#1172,#1173);
#1175=(LENGTH_UNIT()NAMED_UNIT(*)SI_UNIT(.MILLI.,.METRE.));
#1181=PROPERTY_DEFINITION('geometric validation property','area of BODY3-4187',
#1148);
#1182=REPRESENTATION('surface area',(#1180),#1134);
#1183=PROPERTY_DEFINITION_REPRESENTATION(#1181,#1182);
#1184=(LENGTH_UNIT()NAMED_UNIT(*)SI_UNIT(.MILLI.,.METRE.));
#1190=PROPERTY_DEFINITION('geometric validation property',
'volume of BODY3-4187',#1148);
#1191=REPRESENTATION('volume',(#1189),#1134);
#1192=PROPERTY_DEFINITION_REPRESENTATION(#1190,#1191);
#1194=PROPERTY_DEFINITION('geometric validation property',
'centroid of BODY3-4187',#1148);
#1195=REPRESENTATION('centroid',(#1193),#1134);
#1196=PROPERTY_DEFINITION_REPRESENTATION(#1194,#1195);
#1197=SHAPE_DEFINITION_REPRESENTATION(#1148,#1139);
ENDSEC;
END-ISO-10303-21;
