ISO-10303-21;
HEADER;
FILE_DESCRIPTION((''),'2;1');
FILE_NAME('BODY2-4133','2026-06-15T13:45:26',('Esia'),(''),
'CREO PARAMETRIC BY PTC INC, 2025102','CREO PARAMETRIC BY PTC INC, 2025102','');
FILE_SCHEMA((
'AP242_MANAGED_MODEL_BASED_3D_ENGINEERING_MIM_LF { 1 0 10303 442 1 1 4 }'));
ENDSEC;
DATA;
#23=DIRECTION('',(1.E0,0.E0,0.E0));
#24=VECTOR('',#23,1.279527559055E-2);
#25=CARTESIAN_POINT('',(6.791338582677E-2,4.429133858268E-2,0.E0));
#26=LINE('',#25,#24);
#27=DRAUGHTING_PRE_DEFINED_CURVE_FONT('continuous');
#28=CURVE_STYLE('',#27,POSITIVE_LENGTH_MEASURE(2.E-2),#1);
#29=PRESENTATION_STYLE_ASSIGNMENT((#28));
#30=STYLED_ITEM('',(#29),#26);
#31=DIRECTION('',(0.E0,0.E0,-1.E0));
#32=VECTOR('',#31,3.937007874016E-3);
#33=CARTESIAN_POINT('',(8.070866141732E-2,4.429133858268E-2,3.937007874016E-3));
#34=LINE('',#33,#32);
#35=CURVE_STYLE('',#27,POSITIVE_LENGTH_MEASURE(2.E-2),#1);
#36=PRESENTATION_STYLE_ASSIGNMENT((#35));
#37=STYLED_ITEM('',(#36),#34);
#38=DIRECTION('',(0.E0,-1.E0,0.E0));
#39=VECTOR('',#38,9.842519685039E-3);
#40=CARTESIAN_POINT('',(8.070866141732E-2,5.413385826772E-2,3.937007874016E-3));
#41=LINE('',#40,#39);
#42=CURVE_STYLE('',#27,POSITIVE_LENGTH_MEASURE(2.E-2),#1);
#43=PRESENTATION_STYLE_ASSIGNMENT((#42));
#44=STYLED_ITEM('',(#43),#41);
#45=DIRECTION('',(1.E0,0.E0,0.E0));
#46=VECTOR('',#45,1.279527559055E-2);
#47=CARTESIAN_POINT('',(6.791338582677E-2,4.429133858268E-2,3.937007874016E-3));
#48=LINE('',#47,#46);
#49=CURVE_STYLE('',#27,POSITIVE_LENGTH_MEASURE(2.E-2),#1);
#50=PRESENTATION_STYLE_ASSIGNMENT((#49));
#51=STYLED_ITEM('',(#50),#48);
#52=CARTESIAN_POINT('',(6.791338582677E-2,4.921259842520E-2,3.937007874016E-3));
#53=DIRECTION('',(0.E0,0.E0,1.E0));
#54=DIRECTION('',(-1.E0,0.E0,0.E0));
#55=AXIS2_PLACEMENT_3D('',#52,#53,#54);
#57=CURVE_STYLE('',#27,POSITIVE_LENGTH_MEASURE(2.E-2),#1);
#58=PRESENTATION_STYLE_ASSIGNMENT((#57));
#59=STYLED_ITEM('',(#58),#56);
#60=CARTESIAN_POINT('',(6.791338582677E-2,4.921259842520E-2,3.937007874016E-3));
#61=DIRECTION('',(0.E0,0.E0,1.E0));
#62=DIRECTION('',(0.E0,1.E0,0.E0));
#63=AXIS2_PLACEMENT_3D('',#60,#61,#62);
#65=CURVE_STYLE('',#27,POSITIVE_LENGTH_MEASURE(2.E-2),#1);
#66=PRESENTATION_STYLE_ASSIGNMENT((#65));
#67=STYLED_ITEM('',(#66),#64);
#68=DIRECTION('',(0.E0,0.E0,-1.E0));
#69=VECTOR('',#68,3.937007874016E-3);
#70=CARTESIAN_POINT('',(6.791338582677E-2,5.413385826772E-2,3.937007874016E-3));
#71=LINE('',#70,#69);
#72=CURVE_STYLE('',#27,POSITIVE_LENGTH_MEASURE(2.E-2),#1);
#73=PRESENTATION_STYLE_ASSIGNMENT((#72));
#74=STYLED_ITEM('',(#73),#71);
#75=DIRECTION('',(0.E0,0.E0,1.E0));
#76=VECTOR('',#75,3.937007874016E-3);
#77=CARTESIAN_POINT('',(6.791338582677E-2,4.429133858268E-2,0.E0));
#78=LINE('',#77,#76);
#79=CURVE_STYLE('',#27,POSITIVE_LENGTH_MEASURE(2.E-2),#1);
#80=PRESENTATION_STYLE_ASSIGNMENT((#79));
#81=STYLED_ITEM('',(#80),#78);
#82=DIRECTION('',(0.E0,-1.E0,0.E0));
#83=VECTOR('',#82,9.842519685039E-3);
#84=CARTESIAN_POINT('',(8.070866141732E-2,5.413385826772E-2,0.E0));
#85=LINE('',#84,#83);
#86=CURVE_STYLE('',#27,POSITIVE_LENGTH_MEASURE(2.E-2),#1);
#87=PRESENTATION_STYLE_ASSIGNMENT((#86));
#88=STYLED_ITEM('',(#87),#85);
#89=DIRECTION('',(1.E0,0.E0,0.E0));
#90=VECTOR('',#89,1.279527559055E-2);
#91=CARTESIAN_POINT('',(6.791338582677E-2,5.413385826772E-2,0.E0));
#92=LINE('',#91,#90);
#93=CURVE_STYLE('',#27,POSITIVE_LENGTH_MEASURE(2.E-2),#1);
#94=PRESENTATION_STYLE_ASSIGNMENT((#93));
#95=STYLED_ITEM('',(#94),#92);
#96=CARTESIAN_POINT('',(6.791338582677E-2,4.921259842520E-2,0.E0));
#97=DIRECTION('',(0.E0,0.E0,-1.E0));
#98=DIRECTION('',(-1.E0,0.E0,0.E0));
#99=AXIS2_PLACEMENT_3D('',#96,#97,#98);
#101=CURVE_STYLE('',#27,POSITIVE_LENGTH_MEASURE(2.E-2),#1);
#102=PRESENTATION_STYLE_ASSIGNMENT((#101));
#103=STYLED_ITEM('',(#102),#100);
#104=CARTESIAN_POINT('',(6.791338582677E-2,4.921259842520E-2,0.E0));
#105=DIRECTION('',(0.E0,0.E0,-1.E0));
#106=DIRECTION('',(0.E0,-1.E0,0.E0));
#107=AXIS2_PLACEMENT_3D('',#104,#105,#106);
#109=CURVE_STYLE('',#27,POSITIVE_LENGTH_MEASURE(2.E-2),#1);
#110=PRESENTATION_STYLE_ASSIGNMENT((#109));
#111=STYLED_ITEM('',(#110),#108);
#112=DIRECTION('',(0.E0,0.E0,-1.E0));
#113=VECTOR('',#112,3.937007874016E-3);
#114=CARTESIAN_POINT('',(8.070866141732E-2,5.413385826772E-2,
3.937007874016E-3));
#115=LINE('',#114,#113);
#116=CURVE_STYLE('',#27,POSITIVE_LENGTH_MEASURE(2.E-2),#1);
#117=PRESENTATION_STYLE_ASSIGNMENT((#116));
#118=STYLED_ITEM('',(#117),#115);
#119=DIRECTION('',(1.E0,0.E0,0.E0));
#120=VECTOR('',#119,1.279527559055E-2);
#121=CARTESIAN_POINT('',(6.791338582677E-2,5.413385826772E-2,
3.937007874016E-3));
#122=LINE('',#121,#120);
#123=CURVE_STYLE('',#27,POSITIVE_LENGTH_MEASURE(2.E-2),#1);
#124=PRESENTATION_STYLE_ASSIGNMENT((#123));
#125=STYLED_ITEM('',(#124),#122);
#126=CARTESIAN_POINT('',(8.070866141732E-2,4.429133858268E-2,
3.937007874016E-3));
#127=CARTESIAN_POINT('',(8.070866141732E-2,4.429133858268E-2,0.E0));
#128=VERTEX_POINT('',#126);
#129=VERTEX_POINT('',#127);
#130=CARTESIAN_POINT('',(6.791338582677E-2,4.429133858268E-2,
3.937007874016E-3));
#131=VERTEX_POINT('',#130);
#132=CARTESIAN_POINT('',(6.791338582677E-2,4.429133858268E-2,0.E0));
#133=VERTEX_POINT('',#132);
#134=CARTESIAN_POINT('',(6.299212598425E-2,4.921259842520E-2,0.E0));
#135=CARTESIAN_POINT('',(6.791338582677E-2,5.413385826772E-2,0.E0));
#136=VERTEX_POINT('',#134);
#137=VERTEX_POINT('',#135);
#138=CARTESIAN_POINT('',(6.791338582677E-2,5.413385826772E-2,
3.937007874016E-3));
#139=CARTESIAN_POINT('',(6.299212598425E-2,4.921259842520E-2,
3.937007874016E-3));
#140=VERTEX_POINT('',#138);
#141=VERTEX_POINT('',#139);
#142=CARTESIAN_POINT('',(8.070866141732E-2,5.413385826772E-2,
3.937007874016E-3));
#143=CARTESIAN_POINT('',(8.070866141732E-2,5.413385826772E-2,0.E0));
#144=VERTEX_POINT('',#142);
#145=VERTEX_POINT('',#143);
#146=CARTESIAN_POINT('',(8.070866141732E-2,4.429133858268E-2,0.E0));
#147=DIRECTION('',(0.E0,-1.E0,0.E0));
#148=DIRECTION('',(-1.E0,0.E0,0.E0));
#149=AXIS2_PLACEMENT_3D('',#146,#147,#148);
#150=PLANE('',#149);
#152=ORIENTED_EDGE('',*,*,#151,.T.);
#154=ORIENTED_EDGE('',*,*,#153,.F.);
#156=ORIENTED_EDGE('',*,*,#155,.T.);
#158=ORIENTED_EDGE('',*,*,#157,.T.);
#159=EDGE_LOOP('',(#152,#154,#156,#158));
#160=FACE_OUTER_BOUND('',#159,.F.);
#162=CARTESIAN_POINT('',(8.070866141732E-2,4.429133858268E-2,0.E0));
#163=DIRECTION('',(-1.E0,0.E0,0.E0));
#164=DIRECTION('',(0.E0,1.E0,0.E0));
#165=AXIS2_PLACEMENT_3D('',#162,#163,#164);
#166=PLANE('',#165);
#167=ORIENTED_EDGE('',*,*,#151,.F.);
#169=ORIENTED_EDGE('',*,*,#168,.F.);
#171=ORIENTED_EDGE('',*,*,#170,.T.);
#173=ORIENTED_EDGE('',*,*,#172,.T.);
#174=EDGE_LOOP('',(#167,#169,#171,#173));
#175=FACE_OUTER_BOUND('',#174,.F.);
#177=CARTESIAN_POINT('',(7.284813049657E-2,4.921259842520E-2,
3.937007874016E-3));
#178=DIRECTION('',(0.E0,0.E0,-1.E0));
#179=DIRECTION('',(-1.E0,0.E0,0.E0));
#180=AXIS2_PLACEMENT_3D('',#177,#178,#179);
#181=PLANE('',#180);
#182=ORIENTED_EDGE('',*,*,#157,.F.);
#184=ORIENTED_EDGE('',*,*,#183,.F.);
#186=ORIENTED_EDGE('',*,*,#185,.F.);
#188=ORIENTED_EDGE('',*,*,#187,.T.);
#189=ORIENTED_EDGE('',*,*,#168,.T.);
#190=EDGE_LOOP('',(#182,#184,#186,#188,#189));
#191=FACE_OUTER_BOUND('',#190,.F.);
#193=CARTESIAN_POINT('',(6.791338582677E-2,4.921259842520E-2,0.E0));
#194=DIRECTION('',(0.E0,0.E0,-1.E0));
#195=DIRECTION('',(-1.E0,0.E0,0.E0));
#196=AXIS2_PLACEMENT_3D('',#193,#194,#195);
#197=CYLINDRICAL_SURFACE('',#196,4.921259842520E-3);
#199=ORIENTED_EDGE('',*,*,#198,.T.);
#201=ORIENTED_EDGE('',*,*,#200,.F.);
#202=ORIENTED_EDGE('',*,*,#185,.T.);
#203=ORIENTED_EDGE('',*,*,#183,.T.);
#204=ORIENTED_EDGE('',*,*,#155,.F.);
#206=ORIENTED_EDGE('',*,*,#205,.T.);
#207=EDGE_LOOP('',(#199,#201,#202,#203,#204,#206));
#208=FACE_OUTER_BOUND('',#207,.F.);
#210=CARTESIAN_POINT('',(7.284813049657E-2,4.921259842520E-2,0.E0));
#211=DIRECTION('',(0.E0,0.E0,-1.E0));
#212=DIRECTION('',(-1.E0,0.E0,0.E0));
#213=AXIS2_PLACEMENT_3D('',#210,#211,#212);
#214=PLANE('',#213);
#215=ORIENTED_EDGE('',*,*,#153,.T.);
#216=ORIENTED_EDGE('',*,*,#172,.F.);
#218=ORIENTED_EDGE('',*,*,#217,.F.);
#219=ORIENTED_EDGE('',*,*,#198,.F.);
#220=ORIENTED_EDGE('',*,*,#205,.F.);
#221=EDGE_LOOP('',(#215,#216,#218,#219,#220));
#222=FACE_OUTER_BOUND('',#221,.F.);
#224=CARTESIAN_POINT('',(8.070866141732E-2,5.413385826772E-2,0.E0));
#225=DIRECTION('',(0.E0,-1.E0,0.E0));
#226=DIRECTION('',(-1.E0,0.E0,0.E0));
#227=AXIS2_PLACEMENT_3D('',#224,#225,#226);
#228=PLANE('',#227);
#229=ORIENTED_EDGE('',*,*,#170,.F.);
#230=ORIENTED_EDGE('',*,*,#187,.F.);
#231=ORIENTED_EDGE('',*,*,#200,.T.);
#232=ORIENTED_EDGE('',*,*,#217,.T.);
#233=EDGE_LOOP('',(#229,#230,#231,#232));
#234=FACE_OUTER_BOUND('',#233,.F.);
#238=FILL_AREA_STYLE_COLOUR('',#1);
#239=FILL_AREA_STYLE('',(#238));
#240=SURFACE_STYLE_FILL_AREA(#239);
#241=SURFACE_SIDE_STYLE('',(#240));
#242=SURFACE_STYLE_USAGE(.BOTH.,#241);
#243=PRESENTATION_STYLE_ASSIGNMENT((#242));
#22=STYLED_ITEM('',(#243),#237);
#245=LENGTH_MEASURE_WITH_UNIT(LENGTH_MEASURE(2.54E1),#244);
#246=(CONVERSION_BASED_UNIT('INCH',#245)LENGTH_UNIT()NAMED_UNIT(*));
#248=PLANE_ANGLE_MEASURE_WITH_UNIT(PLANE_ANGLE_MEASURE(1.745329251994E-2),#247);
#249=(CONVERSION_BASED_UNIT('DEGREE',#248)NAMED_UNIT(*)PLANE_ANGLE_UNIT());
#251=UNCERTAINTY_MEASURE_WITH_UNIT(LENGTH_MEASURE(2.064501763418E-6),#246,
'closure',
'Maximum model space distance between geometric entities at asserted connectivities');
#253=CARTESIAN_POINT('',(0.E0,0.E0,0.E0));
#254=DIRECTION('',(0.E0,0.E0,1.E0));
#255=DIRECTION('',(1.E0,0.E0,0.E0));
#258=MECHANICAL_DESIGN_GEOMETRIC_PRESENTATION_REPRESENTATION('',(#30,#37,#44,
#51,#59,#67,#74,#81,#88,#95,#103,#111,#118,#125,#22),#252);
#259=APPLICATION_CONTEXT('automotive design');
#260=APPLICATION_PROTOCOL_DEFINITION('international standard',
'config_control_design',1994,#259);
#261=PRODUCT_DEFINITION_CONTEXT('',#259,'design');
#262=PRODUCT_CONTEXT('',#259,'mechanical');
#263=PRODUCT('BODY2-4133','BODY2-4133','NOT SPECIFIED',(#262));
#264=PRODUCT_DEFINITION_FORMATION_WITH_SPECIFIED_SOURCE('1','LAST_VERSION',#263,
.MADE.);
#272=LENGTH_MEASURE_WITH_UNIT(LENGTH_MEASURE(2.54E1),#271);
#273=(CONVERSION_BASED_UNIT('INCH',#272)LENGTH_UNIT()NAMED_UNIT(*));
#274=DERIVED_UNIT_ELEMENT(#273,2.E0);
#275=AREA_UNIT((#274));
#276=MEASURE_REPRESENTATION_ITEM('surface area measure',AREA_MEASURE(
3.408572933822E-1),#275);
#281=LENGTH_MEASURE_WITH_UNIT(LENGTH_MEASURE(2.54E1),#280);
#282=(CONVERSION_BASED_UNIT('INCH',#281)LENGTH_UNIT()NAMED_UNIT(*));
#283=DERIVED_UNIT_ELEMENT(#282,3.E0);
#284=VOLUME_UNIT((#283));
#285=MEASURE_REPRESENTATION_ITEM('volume measure',VOLUME_MEASURE(
1.057936926061E-2),#284);
#289=CARTESIAN_POINT('centre point',(1.837492922541E0,1.250000000034E0,5.E-2));
#294=LENGTH_MEASURE_WITH_UNIT(LENGTH_MEASURE(2.54E1),#293);
#295=(CONVERSION_BASED_UNIT('INCH',#294)LENGTH_UNIT()NAMED_UNIT(*));
#296=DERIVED_UNIT_ELEMENT(#295,2.E0);
#297=AREA_UNIT((#296));
#298=MEASURE_REPRESENTATION_ITEM('surface area measure',AREA_MEASURE(
3.408572933822E-1),#297);
#303=LENGTH_MEASURE_WITH_UNIT(LENGTH_MEASURE(2.54E1),#302);
#304=(CONVERSION_BASED_UNIT('INCH',#303)LENGTH_UNIT()NAMED_UNIT(*));
#305=DERIVED_UNIT_ELEMENT(#304,3.E0);
#306=VOLUME_UNIT((#305));
#307=MEASURE_REPRESENTATION_ITEM('volume measure',VOLUME_MEASURE(
1.057936926061E-2),#306);
#311=CARTESIAN_POINT('centre point',(1.837492922541E0,1.250000000034E0,5.E-2));
#1=COLOUR_RGB('',7.333333333333E-1,7.725490196078E-1,7.960784313725E-1);
#2=DRAUGHTING_PRE_DEFINED_COLOUR('green');
#3=COLOUR_RGB('',1.1E-2,1.2E-2,1.E0);
#4=COLOUR_RGB('',1.921568627451E-1,1.921568627451E-1,1.921568627451E-1);
#5=COLOUR_RGB('',2.352941176471E-1,2.352941176471E-1,2.352941176471E-1);
#6=COLOUR_RGB('',3.137254901961E-1,3.137254901961E-1,3.137254901961E-1);
#7=COLOUR_RGB('',4.1E-1,2.61589E-1,1.12848E-1);
#8=COLOUR_RGB('',5.04854E-1,1.5455E-2,1.5455E-2);
#9=COLOUR_RGB('',6.274509803922E-1,6.274509803922E-1,6.274509803922E-1);
#10=COLOUR_RGB('',6.35294E-1,6.86275E-1,7.4902E-1);
#11=COLOUR_RGB('',6.40777E-1,6.40777E-1,6.40777E-1);
#12=COLOUR_RGB('',6.69062E-1,6.69903E-1,6.55217E-1);
#13=COLOUR_RGB('',7.333333333333E-1,7.725490196078E-1,7.960784313725E-1);
#14=COLOUR_RGB('',8.313725490196E-1,0.E0,0.E0);
#15=COLOUR_RGB('',8.666666666667E-1,8.666666666667E-1,8.666666666667E-1);
#16=COLOUR_RGB('',9.21569E-1,7.05882E-1,4.70588E-1);
#17=DRAUGHTING_PRE_DEFINED_COLOUR('red');
#18=DRAUGHTING_PRE_DEFINED_COLOUR('yellow');
#19=COLOUR_RGB('',1.E0,1.E0,5.3E-1);
#20=COLOUR_RGB('',1.E0,1.E0,9.49E-1);
#21=DRAUGHTING_PRE_DEFINED_COLOUR('white');
#56=CIRCLE('',#55,4.921259842520E-3);
#64=CIRCLE('',#63,4.921259842520E-3);
#100=CIRCLE('',#99,4.921259842520E-3);
#108=CIRCLE('',#107,4.921259842520E-3);
#151=EDGE_CURVE('',#128,#129,#34,.T.);
#153=EDGE_CURVE('',#133,#129,#26,.T.);
#155=EDGE_CURVE('',#133,#131,#78,.T.);
#157=EDGE_CURVE('',#131,#128,#48,.T.);
#161=ADVANCED_FACE('',(#160),#150,.T.);
#168=EDGE_CURVE('',#144,#128,#41,.T.);
#170=EDGE_CURVE('',#144,#145,#115,.T.);
#172=EDGE_CURVE('',#145,#129,#85,.T.);
#176=ADVANCED_FACE('',(#175),#166,.F.);
#183=EDGE_CURVE('',#141,#131,#56,.T.);
#185=EDGE_CURVE('',#140,#141,#64,.T.);
#187=EDGE_CURVE('',#140,#144,#122,.T.);
#192=ADVANCED_FACE('',(#191),#181,.F.);
#198=EDGE_CURVE('',#136,#137,#100,.T.);
#200=EDGE_CURVE('',#140,#137,#71,.T.);
#205=EDGE_CURVE('',#133,#136,#108,.T.);
#209=ADVANCED_FACE('',(#208),#197,.T.);
#217=EDGE_CURVE('',#137,#145,#92,.T.);
#223=ADVANCED_FACE('',(#222),#214,.T.);
#235=ADVANCED_FACE('',(#234),#228,.F.);
#236=CLOSED_SHELL('',(#161,#176,#192,#209,#223,#235));
#237=MANIFOLD_SOLID_BREP('',#236);
#244=(LENGTH_UNIT()NAMED_UNIT(*)SI_UNIT(.MILLI.,.METRE.));
#247=(NAMED_UNIT(*)PLANE_ANGLE_UNIT()SI_UNIT($,.RADIAN.));
#250=(NAMED_UNIT(*)SI_UNIT($,.STERADIAN.)SOLID_ANGLE_UNIT());
#252=(GEOMETRIC_REPRESENTATION_CONTEXT(3)GLOBAL_UNCERTAINTY_ASSIGNED_CONTEXT((
#251))GLOBAL_UNIT_ASSIGNED_CONTEXT((#246,#249,#250))REPRESENTATION_CONTEXT
('ID1','3'));
#256=AXIS2_PLACEMENT_3D('',#253,#254,#255);
#257=ADVANCED_BREP_SHAPE_REPRESENTATION('',(#256,#237),#252);
#265=PRODUCT_DEFINITION('design','',#264,#261);
#266=PRODUCT_DEFINITION_SHAPE('','SHAPE FOR BODY2-4133.',#265);
#267=SHAPE_ASPECT('','solid data associated with BODY2-4133',#266,.F.);
#268=PROPERTY_DEFINITION('',
'shape for solid data with which properties are associated',#267);
#269=SHAPE_REPRESENTATION('',(#237),#252);
#270=SHAPE_DEFINITION_REPRESENTATION(#268,#269);
#271=(LENGTH_UNIT()NAMED_UNIT(*)SI_UNIT(.MILLI.,.METRE.));
#277=PROPERTY_DEFINITION('geometric validation property','area of BODY2-4133',
#267);
#278=REPRESENTATION('surface area',(#276),#252);
#279=PROPERTY_DEFINITION_REPRESENTATION(#277,#278);
#280=(LENGTH_UNIT()NAMED_UNIT(*)SI_UNIT(.MILLI.,.METRE.));
#286=PROPERTY_DEFINITION('geometric validation property','volume of BODY2-4133',
#267);
#287=REPRESENTATION('volume',(#285),#252);
#288=PROPERTY_DEFINITION_REPRESENTATION(#286,#287);
#290=PROPERTY_DEFINITION('geometric validation property',
'centroid of BODY2-4133',#267);
#291=REPRESENTATION('centroid',(#289),#252);
#292=PROPERTY_DEFINITION_REPRESENTATION(#290,#291);
#293=(LENGTH_UNIT()NAMED_UNIT(*)SI_UNIT(.MILLI.,.METRE.));
#299=PROPERTY_DEFINITION('geometric validation property','area of BODY2-4133',
#266);
#300=REPRESENTATION('surface area',(#298),#252);
#301=PROPERTY_DEFINITION_REPRESENTATION(#299,#300);
#302=(LENGTH_UNIT()NAMED_UNIT(*)SI_UNIT(.MILLI.,.METRE.));
#308=PROPERTY_DEFINITION('geometric validation property','volume of BODY2-4133',
#266);
#309=REPRESENTATION('volume',(#307),#252);
#310=PROPERTY_DEFINITION_REPRESENTATION(#308,#309);
#312=PROPERTY_DEFINITION('geometric validation property',
'centroid of BODY2-4133',#266);
#313=REPRESENTATION('centroid',(#311),#252);
#314=PROPERTY_DEFINITION_REPRESENTATION(#312,#313);
#315=SHAPE_DEFINITION_REPRESENTATION(#266,#257);
ENDSEC;
END-ISO-10303-21;
