ISO-10303-21;
HEADER;
FILE_DESCRIPTION((''),'2;1');
FILE_NAME('BODY2-4183','2026-06-15T13:45:28',('Esia'),(''),
'CREO PARAMETRIC BY PTC INC, 2025102','CREO PARAMETRIC BY PTC INC, 2025102','');
FILE_SCHEMA((
'AP242_MANAGED_MODEL_BASED_3D_ENGINEERING_MIM_LF { 1 0 10303 442 1 1 4 }'));
ENDSEC;
DATA;
#23=CARTESIAN_POINT('',(-1.694494179092E-2,2.449188701495E-3,
-1.502402673481E-2));
#24=CARTESIAN_POINT('',(-1.687258892923E-2,2.616188383328E-3,
-1.514228919679E-2));
#25=CARTESIAN_POINT('',(-1.672523100294E-2,2.963316176355E-3,
-1.534937980192E-2));
#26=CARTESIAN_POINT('',(-1.649746154636E-2,3.525648106861E-3,
-1.557756307248E-2));
#27=CARTESIAN_POINT('',(-1.626970139662E-2,4.117897744256E-3,
-1.571659998172E-2));
#28=CARTESIAN_POINT('',(-1.612325655960E-2,4.520286182946E-3,
-1.574803149606E-2));
#29=CARTESIAN_POINT('',(-1.605108808685E-2,4.724409448820E-3,
-1.574803149606E-2));
#31=DRAUGHTING_PRE_DEFINED_CURVE_FONT('continuous');
#32=CURVE_STYLE('',#31,POSITIVE_LENGTH_MEASURE(2.E-2),#1);
#33=PRESENTATION_STYLE_ASSIGNMENT((#32));
#34=STYLED_ITEM('',(#33),#30);
#35=CARTESIAN_POINT('',(-1.694494264581E-2,2.449187028793E-3,
1.502402868357E-2));
#36=CARTESIAN_POINT('',(-1.664857704942E-2,3.133561294568E-3,
1.395222791355E-2));
#37=CARTESIAN_POINT('',(-1.624205923896E-2,4.167009807188E-3,
1.229675504440E-2));
#38=CARTESIAN_POINT('',(-1.579104256459E-2,5.473533308449E-3,
9.990110934799E-3));
#39=CARTESIAN_POINT('',(-1.549530227154E-2,6.416949472667E-3,
8.166931247197E-3));
#40=CARTESIAN_POINT('',(-1.525047427062E-2,7.286254605033E-3,
6.258135450592E-3));
#41=CARTESIAN_POINT('',(-1.506406785980E-2,8.009496600408E-3,
4.251302525173E-3));
#42=CARTESIAN_POINT('',(-1.494491707026E-2,8.507454729179E-3,
2.175033234275E-3));
#43=CARTESIAN_POINT('',(-1.490161959726E-2,8.702745712315E-3,
3.082759486529E-5));
#44=CARTESIAN_POINT('',(-1.494239398520E-2,8.517904756725E-3,
-2.112434800803E-3));
#45=CARTESIAN_POINT('',(-1.505907063087E-2,8.028578949051E-3,
-4.189413427700E-3));
#46=CARTESIAN_POINT('',(-1.524389996570E-2,7.310039479760E-3,
-6.201481735522E-3));
#47=CARTESIAN_POINT('',(-1.557100167163E-2,6.146412360743E-3,
-8.766495585609E-3));
#48=CARTESIAN_POINT('',(-1.609900514792E-2,4.530952415785E-3,
-1.171309529898E-2));
#49=CARTESIAN_POINT('',(-1.664771188283E-2,3.135561310826E-3,
-1.394902939851E-2));
#50=CARTESIAN_POINT('',(-1.694494179092E-2,2.449188701495E-3,
-1.502402673481E-2));
#52=CURVE_STYLE('',#31,POSITIVE_LENGTH_MEASURE(2.E-2),#1);
#53=PRESENTATION_STYLE_ASSIGNMENT((#52));
#54=STYLED_ITEM('',(#53),#51);
#55=CARTESIAN_POINT('',(-1.605108808685E-2,4.724409448819E-3,
1.574803149606E-2));
#56=CARTESIAN_POINT('',(-1.612338266409E-2,4.519929505584E-3,
1.574803149606E-2));
#57=CARTESIAN_POINT('',(-1.627002338386E-2,4.117051267058E-3,
1.571650263816E-2));
#58=CARTESIAN_POINT('',(-1.649727634031E-2,3.526122984487E-3,
1.557765866869E-2));
#59=CARTESIAN_POINT('',(-1.672538993505E-2,2.962921866712E-3,
1.534917344295E-2));
#60=CARTESIAN_POINT('',(-1.687264856064E-2,2.616051044731E-3,
1.514219542676E-2));
#61=CARTESIAN_POINT('',(-1.694494264581E-2,2.449187028793E-3,
1.502402868357E-2));
#63=CURVE_STYLE('',#31,POSITIVE_LENGTH_MEASURE(2.E-2),#1);
#64=PRESENTATION_STYLE_ASSIGNMENT((#63));
#65=STYLED_ITEM('',(#64),#62);
#66=CARTESIAN_POINT('',(-1.694494179092E-2,3.062167744023E-2,
1.502402673481E-2));
#67=CARTESIAN_POINT('',(-1.687258892923E-2,3.045467775840E-2,
1.514228919679E-2));
#68=CARTESIAN_POINT('',(-1.672523100294E-2,3.010754996538E-2,
1.534937980192E-2));
#69=CARTESIAN_POINT('',(-1.649746154636E-2,2.954521803488E-2,
1.557756307248E-2));
#70=CARTESIAN_POINT('',(-1.626970139663E-2,2.895296839748E-2,
1.571659998172E-2));
#71=CARTESIAN_POINT('',(-1.612325655960E-2,2.855057995879E-2,
1.574803149606E-2));
#72=CARTESIAN_POINT('',(-1.605108808685E-2,2.834645669291E-2,
1.574803149606E-2));
#74=CURVE_STYLE('',#31,POSITIVE_LENGTH_MEASURE(2.E-2),#1);
#75=PRESENTATION_STYLE_ASSIGNMENT((#74));
#76=STYLED_ITEM('',(#75),#73);
#77=CARTESIAN_POINT('',(-1.694494264582E-2,3.062167911295E-2,
-1.502402868356E-2));
#78=CARTESIAN_POINT('',(-1.664857704942E-2,2.993730484718E-2,
-1.395222791353E-2));
#79=CARTESIAN_POINT('',(-1.624205923896E-2,2.890385633454E-2,
-1.229675504440E-2));
#80=CARTESIAN_POINT('',(-1.579104256459E-2,2.759733283328E-2,
-9.990110934798E-3));
#81=CARTESIAN_POINT('',(-1.549530227154E-2,2.665391666907E-2,
-8.166931247197E-3));
#82=CARTESIAN_POINT('',(-1.525047427062E-2,2.578461153670E-2,
-6.258135450592E-3));
#83=CARTESIAN_POINT('',(-1.506406785980E-2,2.506136954133E-2,
-4.251302525173E-3));
#84=CARTESIAN_POINT('',(-1.494491707026E-2,2.456341141255E-2,
-2.175033234274E-3));
#85=CARTESIAN_POINT('',(-1.490161959726E-2,2.436812042942E-2,
-3.082759486466E-5));
#86=CARTESIAN_POINT('',(-1.494239398520E-2,2.455296138501E-2,
2.112434800803E-3));
#87=CARTESIAN_POINT('',(-1.505907063087E-2,2.504228719268E-2,
4.189413427700E-3));
#88=CARTESIAN_POINT('',(-1.524389996570E-2,2.576082666197E-2,
6.201481735522E-3));
#89=CARTESIAN_POINT('',(-1.557100167163E-2,2.692445378099E-2,
8.766495585609E-3));
#90=CARTESIAN_POINT('',(-1.609900514792E-2,2.853991372596E-2,
1.171309529897E-2));
#91=CARTESIAN_POINT('',(-1.664771188283E-2,2.993530483090E-2,
1.394902939851E-2));
#92=CARTESIAN_POINT('',(-1.694494179092E-2,3.062167744023E-2,
1.502402673481E-2));
#94=CURVE_STYLE('',#31,POSITIVE_LENGTH_MEASURE(2.E-2),#1);
#95=PRESENTATION_STYLE_ASSIGNMENT((#94));
#96=STYLED_ITEM('',(#95),#93);
#97=CARTESIAN_POINT('',(-1.605108808685E-2,2.834645669291E-2,
-1.574803149606E-2));
#98=CARTESIAN_POINT('',(-1.612338266409E-2,2.855093663615E-2,
-1.574803149606E-2));
#99=CARTESIAN_POINT('',(-1.627002338386E-2,2.895381487467E-2,
-1.571650263816E-2));
#100=CARTESIAN_POINT('',(-1.649727634032E-2,2.954474315725E-2,
-1.557765866868E-2));
#101=CARTESIAN_POINT('',(-1.672538993505E-2,3.010794427501E-2,
-1.534917344295E-2));
#102=CARTESIAN_POINT('',(-1.687264856065E-2,3.045481509702E-2,
-1.514219542675E-2));
#103=CARTESIAN_POINT('',(-1.694494264582E-2,3.062167911295E-2,
-1.502402868356E-2));
#105=CURVE_STYLE('',#31,POSITIVE_LENGTH_MEASURE(2.E-2),#1);
#106=PRESENTATION_STYLE_ASSIGNMENT((#105));
#107=STYLED_ITEM('',(#106),#104);
#108=CARTESIAN_POINT('',(-4.945770767047E-2,1.653543307087E-2,
-1.574803149606E-2));
#109=DIRECTION('',(0.E0,0.E0,-1.E0));
#110=DIRECTION('',(9.428090415821E-1,3.333333333333E-1,0.E0));
#111=AXIS2_PLACEMENT_3D('',#108,#109,#110);
#113=CURVE_STYLE('',#31,POSITIVE_LENGTH_MEASURE(2.E-2),#1);
#114=PRESENTATION_STYLE_ASSIGNMENT((#113));
#115=STYLED_ITEM('',(#114),#112);
#116=CARTESIAN_POINT('',(-1.651479708802E-2,3.228346456693E-2,
-1.181102362205E-2));
#117=CARTESIAN_POINT('',(-1.656484178198E-2,3.228346456693E-2,
-1.200484588830E-2));
#118=CARTESIAN_POINT('',(-1.666767176174E-2,3.225503884104E-2,
-1.239224394352E-2));
#119=CARTESIAN_POINT('',(-1.682771342563E-2,3.212510237450E-2,
-1.296675285457E-2));
#120=CARTESIAN_POINT('',(-1.693246873270E-2,3.198545713937E-2,
-1.332573869789E-2));
#121=CARTESIAN_POINT('',(-1.698401318561E-2,3.190343685448E-2,
-1.349861970118E-2));
#123=CURVE_STYLE('',#31,POSITIVE_LENGTH_MEASURE(2.E-2),#1);
#124=PRESENTATION_STYLE_ASSIGNMENT((#123));
#125=STYLED_ITEM('',(#124),#122);
#126=DIRECTION('',(1.E0,0.E0,0.E0));
#127=VECTOR('',#126,1.104425803009E-2);
#128=CARTESIAN_POINT('',(-2.755905511811E-2,3.228346456693E-2,
-1.181102362205E-2));
#129=LINE('',#128,#127);
#130=CURVE_STYLE('',#31,POSITIVE_LENGTH_MEASURE(2.E-2),#1);
#131=PRESENTATION_STYLE_ASSIGNMENT((#130));
#132=STYLED_ITEM('',(#131),#129);
#133=DIRECTION('',(-1.E0,5.788457795941E-14,0.E0));
#134=VECTOR('',#133,1.150796703126E-2);
#135=CARTESIAN_POINT('',(-1.605108808685E-2,2.834645669291E-2,
-1.574803149606E-2));
#136=LINE('',#135,#134);
#137=CURVE_STYLE('',#31,POSITIVE_LENGTH_MEASURE(2.E-2),#1);
#138=PRESENTATION_STYLE_ASSIGNMENT((#137));
#139=STYLED_ITEM('',(#138),#136);
#140=CARTESIAN_POINT('',(-1.698401318561E-2,3.190343685448E-2,
-1.349861970118E-2));
#141=CARTESIAN_POINT('',(-1.703137510988E-2,3.182811602044E-2,
-1.365737971247E-2));
#142=CARTESIAN_POINT('',(-1.710324021369E-2,3.165771082036E-2,
-1.396179820613E-2));
#143=CARTESIAN_POINT('',(-1.713552116265E-2,3.134711175937E-2,
-1.437708408894E-2));
#144=CARTESIAN_POINT('',(-1.708435139594E-2,3.099316153966E-2,
-1.473936760304E-2));
#145=CARTESIAN_POINT('',(-1.699911473989E-2,3.074672248646E-2,
-1.493547772713E-2));
#146=CARTESIAN_POINT('',(-1.694494264582E-2,3.062167911295E-2,
-1.502402868356E-2));
#148=CURVE_STYLE('',#31,POSITIVE_LENGTH_MEASURE(2.E-2),#1);
#149=PRESENTATION_STYLE_ASSIGNMENT((#148));
#150=STYLED_ITEM('',(#149),#147);
#151=CARTESIAN_POINT('',(-1.698401425117E-2,3.190342539002E-2,
1.349861374601E-2));
#152=CARTESIAN_POINT('',(-1.678977221363E-2,3.140610321381E-2,
1.284749951986E-2));
#153=CARTESIAN_POINT('',(-1.644984429205E-2,3.047545078420E-2,
1.160413312539E-2));
#154=CARTESIAN_POINT('',(-1.605904086011E-2,2.929377921466E-2,
9.923894942512E-3));
#155=CARTESIAN_POINT('',(-1.576079196002E-2,2.830909136112E-2,
8.406022651318E-3));
#156=CARTESIAN_POINT('',(-1.553571559116E-2,2.749894584973E-2,
7.038619930816E-3));
#157=CARTESIAN_POINT('',(-1.536706630793E-2,2.684210059291E-2,
5.800685705796E-3));
#158=CARTESIAN_POINT('',(-1.524312758400E-2,2.633274439884E-2,
4.681744763342E-3));
#159=CARTESIAN_POINT('',(-1.515441375794E-2,2.595099395886E-2,
3.674186943677E-3));
#160=CARTESIAN_POINT('',(-1.509220104870E-2,2.567304669146E-2,
2.754311192172E-3));
#161=CARTESIAN_POINT('',(-1.505072197289E-2,2.548182823185E-2,
1.906231466393E-3));
#162=CARTESIAN_POINT('',(-1.502575280425E-2,2.536353159562E-2,
1.117537012616E-3));
#163=CARTESIAN_POINT('',(-1.501410313541E-2,2.530636777840E-2,
3.675471862936E-4));
#164=CARTESIAN_POINT('',(-1.501411800248E-2,2.530633979754E-2,
-3.692933695716E-4));
#165=CARTESIAN_POINT('',(-1.502578747057E-2,2.536364466718E-2,
-1.118911332244E-3));
#166=CARTESIAN_POINT('',(-1.505076743374E-2,2.548207702023E-2,
-1.907344650859E-3));
#167=CARTESIAN_POINT('',(-1.509227128405E-2,2.567346875199E-2,
-2.755546134149E-3));
#168=CARTESIAN_POINT('',(-1.515454543072E-2,2.595172134383E-2,
-3.675941998660E-3));
#169=CARTESIAN_POINT('',(-1.524340130597E-2,2.633406953676E-2,
-4.684603529953E-3));
#170=CARTESIAN_POINT('',(-1.536762115490E-2,2.684438145498E-2,
-5.805306485479E-3));
#171=CARTESIAN_POINT('',(-1.553665682125E-2,2.750217072307E-2,
-7.044930480876E-3));
#172=CARTESIAN_POINT('',(-1.576207562125E-2,2.831414506296E-2,
-8.413217997199E-3));
#173=CARTESIAN_POINT('',(-1.606125632746E-2,2.930203085997E-2,
-9.934496827243E-3));
#174=CARTESIAN_POINT('',(-1.645320575403E-2,3.048491360221E-2,
-1.161718429138E-2));
#175=CARTESIAN_POINT('',(-1.679134132364E-2,3.141014421447E-2,
-1.285281324936E-2));
#176=CARTESIAN_POINT('',(-1.698401318561E-2,3.190343685448E-2,
-1.349861970118E-2));
#178=CURVE_STYLE('',#31,POSITIVE_LENGTH_MEASURE(2.E-2),#1);
#179=PRESENTATION_STYLE_ASSIGNMENT((#178));
#180=STYLED_ITEM('',(#179),#177);
#181=CARTESIAN_POINT('',(-1.698401425117E-2,3.190342539002E-2,
1.349861374601E-2));
#182=CARTESIAN_POINT('',(-1.693247861500E-2,3.198543263069E-2,
1.332576261815E-2));
#183=CARTESIAN_POINT('',(-1.682774121022E-2,3.212507470772E-2,
1.296685391804E-2));
#184=CARTESIAN_POINT('',(-1.666769527993E-2,3.225502722292E-2,
1.239232990734E-2));
#185=CARTESIAN_POINT('',(-1.656485154092E-2,3.228346456693E-2,
1.200488368452E-2));
#186=CARTESIAN_POINT('',(-1.651479708802E-2,3.228346456693E-2,
1.181102362205E-2));
#188=CURVE_STYLE('',#31,POSITIVE_LENGTH_MEASURE(2.E-2),#1);
#189=PRESENTATION_STYLE_ASSIGNMENT((#188));
#190=STYLED_ITEM('',(#189),#187);
#191=CARTESIAN_POINT('',(-1.694494179092E-2,3.062167744023E-2,
1.502402673481E-2));
#192=CARTESIAN_POINT('',(-1.699911112464E-2,3.074671451131E-2,
1.493548050704E-2));
#193=CARTESIAN_POINT('',(-1.708434544178E-2,3.099314136722E-2,
1.473938617621E-2));
#194=CARTESIAN_POINT('',(-1.713551769781E-2,3.134708146860E-2,
1.437711721081E-2));
#195=CARTESIAN_POINT('',(-1.710324039441E-2,3.165771419538E-2,
1.396180863732E-2));
#196=CARTESIAN_POINT('',(-1.703137089896E-2,3.182810745795E-2,
1.365736545379E-2));
#197=CARTESIAN_POINT('',(-1.698401425117E-2,3.190342539002E-2,
1.349861374601E-2));
#199=CURVE_STYLE('',#31,POSITIVE_LENGTH_MEASURE(2.E-2),#1);
#200=PRESENTATION_STYLE_ASSIGNMENT((#199));
#201=STYLED_ITEM('',(#200),#198);
#202=DIRECTION('',(1.E0,-5.155345224510E-14,0.E0));
#203=VECTOR('',#202,1.150796703126E-2);
#204=CARTESIAN_POINT('',(-2.755905511811E-2,2.834645669291E-2,
1.574803149606E-2));
#205=LINE('',#204,#203);
#206=CURVE_STYLE('',#31,POSITIVE_LENGTH_MEASURE(2.E-2),#1);
#207=PRESENTATION_STYLE_ASSIGNMENT((#206));
#208=STYLED_ITEM('',(#207),#205);
#209=DIRECTION('',(-1.E0,0.E0,0.E0));
#210=VECTOR('',#209,1.104425803009E-2);
#211=CARTESIAN_POINT('',(-1.651479708802E-2,3.228346456693E-2,
1.181102362205E-2));
#212=LINE('',#211,#210);
#213=CURVE_STYLE('',#31,POSITIVE_LENGTH_MEASURE(2.E-2),#1);
#214=PRESENTATION_STYLE_ASSIGNMENT((#213));
#215=STYLED_ITEM('',(#214),#212);
#216=CARTESIAN_POINT('',(-4.945770767047E-2,1.653543307087E-2,
1.574803149606E-2));
#217=DIRECTION('',(0.E0,0.E0,1.E0));
#218=DIRECTION('',(9.428090415821E-1,-3.333333333333E-1,0.E0));
#219=AXIS2_PLACEMENT_3D('',#216,#217,#218);
#221=CURVE_STYLE('',#31,POSITIVE_LENGTH_MEASURE(2.E-2),#1);
#222=PRESENTATION_STYLE_ASSIGNMENT((#221));
#223=STYLED_ITEM('',(#222),#220);
#224=CARTESIAN_POINT('',(-1.651479708802E-2,7.874015748031E-4,
1.181102362205E-2));
#225=CARTESIAN_POINT('',(-1.656484178198E-2,7.874015748031E-4,
1.200484588830E-2));
#226=CARTESIAN_POINT('',(-1.666767176174E-2,8.158273006911E-4,
1.239224394352E-2));
#227=CARTESIAN_POINT('',(-1.682771342564E-2,9.457637672303E-4,
1.296675285457E-2));
#228=CARTESIAN_POINT('',(-1.693246873270E-2,1.085409002357E-3,
1.332573869788E-2));
#229=CARTESIAN_POINT('',(-1.698401318560E-2,1.167429287256E-3,
1.349861970118E-2));
#231=CURVE_STYLE('',#31,POSITIVE_LENGTH_MEASURE(2.E-2),#1);
#232=PRESENTATION_STYLE_ASSIGNMENT((#231));
#233=STYLED_ITEM('',(#232),#230);
#234=DIRECTION('',(1.E0,0.E0,0.E0));
#235=VECTOR('',#234,1.104425803009E-2);
#236=CARTESIAN_POINT('',(-2.755905511811E-2,7.874015748031E-4,
1.181102362205E-2));
#237=LINE('',#236,#235);
#238=CURVE_STYLE('',#31,POSITIVE_LENGTH_MEASURE(2.E-2),#1);
#239=PRESENTATION_STYLE_ASSIGNMENT((#238));
#240=STYLED_ITEM('',(#239),#237);
#241=DIRECTION('',(-1.E0,-5.117659952401E-14,0.E0));
#242=VECTOR('',#241,1.150796703126E-2);
#243=CARTESIAN_POINT('',(-1.605108808685E-2,4.724409448819E-3,
1.574803149606E-2));
#244=LINE('',#243,#242);
#245=CURVE_STYLE('',#31,POSITIVE_LENGTH_MEASURE(2.E-2),#1);
#246=PRESENTATION_STYLE_ASSIGNMENT((#245));
#247=STYLED_ITEM('',(#246),#244);
#248=CARTESIAN_POINT('',(-1.698401318560E-2,1.167429287256E-3,
1.349861970118E-2));
#249=CARTESIAN_POINT('',(-1.703137510988E-2,1.242750121288E-3,
1.365737971248E-2));
#250=CARTESIAN_POINT('',(-1.710324021370E-2,1.413155321383E-3,
1.396179820613E-2));
#251=CARTESIAN_POINT('',(-1.713552116265E-2,1.723754382369E-3,
1.437708408894E-2));
#252=CARTESIAN_POINT('',(-1.708435139593E-2,2.077704602083E-3,
1.473936760304E-2));
#253=CARTESIAN_POINT('',(-1.699911473989E-2,2.324143655260E-3,
1.493547772713E-2));
#254=CARTESIAN_POINT('',(-1.694494264581E-2,2.449187028793E-3,
1.502402868357E-2));
#256=CURVE_STYLE('',#31,POSITIVE_LENGTH_MEASURE(2.E-2),#1);
#257=PRESENTATION_STYLE_ASSIGNMENT((#256));
#258=STYLED_ITEM('',(#257),#255);
#259=CARTESIAN_POINT('',(-1.698401425117E-2,1.167440751716E-3,
-1.349861374601E-2));
#260=CARTESIAN_POINT('',(-1.678977221363E-2,1.664762927922E-3,
-1.284749951986E-2));
#261=CARTESIAN_POINT('',(-1.644984429205E-2,2.595415357519E-3,
-1.160413312540E-2));
#262=CARTESIAN_POINT('',(-1.605904086011E-2,3.777086927073E-3,
-9.923894942516E-3));
#263=CARTESIAN_POINT('',(-1.576079196002E-2,4.761774780607E-3,
-8.406022651318E-3));
#264=CARTESIAN_POINT('',(-1.553571559116E-2,5.571920291999E-3,
-7.038619930814E-3));
#265=CARTESIAN_POINT('',(-1.536706630793E-2,6.228765548823E-3,
-5.800685705792E-3));
#266=CARTESIAN_POINT('',(-1.524312758400E-2,6.738121742899E-3,
-4.681744763337E-3));
#267=CARTESIAN_POINT('',(-1.515441375794E-2,7.119872182876E-3,
-3.674186943672E-3));
#268=CARTESIAN_POINT('',(-1.509220104870E-2,7.397819450273E-3,
-2.754311192169E-3));
#269=CARTESIAN_POINT('',(-1.505072197289E-2,7.589037909878E-3,
-1.906231466389E-3));
#270=CARTESIAN_POINT('',(-1.502575280425E-2,7.707334546114E-3,
-1.117537012611E-3));
#271=CARTESIAN_POINT('',(-1.501410313541E-2,7.764498363331E-3,
-3.675471862885E-4));
#272=CARTESIAN_POINT('',(-1.501411800248E-2,7.764526344194E-3,
3.692933695771E-4));
#273=CARTESIAN_POINT('',(-1.502578747057E-2,7.707221474549E-3,
1.118911332250E-3));
#274=CARTESIAN_POINT('',(-1.505076743374E-2,7.588789121499E-3,
1.907344650866E-3));
#275=CARTESIAN_POINT('',(-1.509227128405E-2,7.397397389736E-3,
2.755546134157E-3));
#276=CARTESIAN_POINT('',(-1.515454543072E-2,7.119144797898E-3,
3.675941998670E-3));
#277=CARTESIAN_POINT('',(-1.524340130597E-2,6.736796604972E-3,
4.684603529965E-3));
#278=CARTESIAN_POINT('',(-1.536762115490E-2,6.226484686748E-3,
5.805306485494E-3));
#279=CARTESIAN_POINT('',(-1.553665682125E-2,5.568695418648E-3,
7.044930480893E-3));
#280=CARTESIAN_POINT('',(-1.576207562126E-2,4.756721078760E-3,
8.413217997217E-3));
#281=CARTESIAN_POINT('',(-1.606125632746E-2,3.768835281753E-3,
9.934496827267E-3));
#282=CARTESIAN_POINT('',(-1.645320575404E-2,2.585952539515E-3,
1.161718429141E-2));
#283=CARTESIAN_POINT('',(-1.679134132364E-2,1.660721927251E-3,
1.285281324937E-2));
#284=CARTESIAN_POINT('',(-1.698401318560E-2,1.167429287256E-3,
1.349861970118E-2));
#286=CURVE_STYLE('',#31,POSITIVE_LENGTH_MEASURE(2.E-2),#1);
#287=PRESENTATION_STYLE_ASSIGNMENT((#286));
#288=STYLED_ITEM('',(#287),#285);
#289=CARTESIAN_POINT('',(-1.698401425117E-2,1.167440751716E-3,
-1.349861374601E-2));
#290=CARTESIAN_POINT('',(-1.693247861500E-2,1.085433511046E-3,
-1.332576261815E-2));
#291=CARTESIAN_POINT('',(-1.682774121022E-2,9.457914340091E-4,
-1.296685391804E-2));
#292=CARTESIAN_POINT('',(-1.666769527993E-2,8.158389188158E-4,
-1.239232990733E-2));
#293=CARTESIAN_POINT('',(-1.656485154092E-2,7.874015748031E-4,
-1.200488368452E-2));
#294=CARTESIAN_POINT('',(-1.651479708802E-2,7.874015748031E-4,
-1.181102362205E-2));
#296=CURVE_STYLE('',#31,POSITIVE_LENGTH_MEASURE(2.E-2),#1);
#297=PRESENTATION_STYLE_ASSIGNMENT((#296));
#298=STYLED_ITEM('',(#297),#295);
#299=CARTESIAN_POINT('',(-1.694494179092E-2,2.449188701495E-3,
-1.502402673481E-2));
#300=CARTESIAN_POINT('',(-1.699911112464E-2,2.324151630417E-3,
-1.493548050703E-2));
#301=CARTESIAN_POINT('',(-1.708434544178E-2,2.077724774516E-3,
-1.473938617621E-2));
#302=CARTESIAN_POINT('',(-1.713551769781E-2,1.723784673128E-3,
-1.437711721080E-2));
#303=CARTESIAN_POINT('',(-1.710324039440E-2,1.413151946342E-3,
-1.396180863731E-2));
#304=CARTESIAN_POINT('',(-1.703137089896E-2,1.242758683782E-3,
-1.365736545379E-2));
#305=CARTESIAN_POINT('',(-1.698401425117E-2,1.167440751716E-3,
-1.349861374601E-2));
#307=CURVE_STYLE('',#31,POSITIVE_LENGTH_MEASURE(2.E-2),#1);
#308=PRESENTATION_STYLE_ASSIGNMENT((#307));
#309=STYLED_ITEM('',(#308),#306);
#310=DIRECTION('',(1.E0,5.758309578254E-14,0.E0));
#311=VECTOR('',#310,1.150796703126E-2);
#312=CARTESIAN_POINT('',(-2.755905511811E-2,4.724409448819E-3,
-1.574803149606E-2));
#313=LINE('',#312,#311);
#314=CURVE_STYLE('',#31,POSITIVE_LENGTH_MEASURE(2.E-2),#1);
#315=PRESENTATION_STYLE_ASSIGNMENT((#314));
#316=STYLED_ITEM('',(#315),#313);
#317=DIRECTION('',(-1.E0,0.E0,0.E0));
#318=VECTOR('',#317,1.104425803009E-2);
#319=CARTESIAN_POINT('',(-1.651479708802E-2,7.874015748031E-4,
-1.181102362205E-2));
#320=LINE('',#319,#318);
#321=CURVE_STYLE('',#31,POSITIVE_LENGTH_MEASURE(2.E-2),#1);
#322=PRESENTATION_STYLE_ASSIGNMENT((#321));
#323=STYLED_ITEM('',(#322),#320);
#324=CARTESIAN_POINT('',(-2.755905511811E-2,4.724409448819E-3,
-1.181102362205E-2));
#325=DIRECTION('',(0.E0,-1.E0,0.E0));
#326=DIRECTION('',(-1.E0,0.E0,0.E0));
#327=AXIS2_PLACEMENT_3D('',#324,#325,#326);
#329=CURVE_STYLE('',#31,POSITIVE_LENGTH_MEASURE(2.E-2),#1);
#330=PRESENTATION_STYLE_ASSIGNMENT((#329));
#331=STYLED_ITEM('',(#330),#328);
#332=CARTESIAN_POINT('',(-2.755905511811E-2,4.724409448819E-3,
-1.181102362205E-2));
#333=DIRECTION('',(0.E0,0.E0,-1.E0));
#334=DIRECTION('',(0.E0,-1.E0,0.E0));
#335=AXIS2_PLACEMENT_3D('',#332,#333,#334);
#337=CURVE_STYLE('',#31,POSITIVE_LENGTH_MEASURE(2.E-2),#1);
#338=PRESENTATION_STYLE_ASSIGNMENT((#337));
#339=STYLED_ITEM('',(#338),#336);
#340=CARTESIAN_POINT('',(-2.755905511811E-2,4.724409448819E-3,
-1.181102362205E-2));
#341=DIRECTION('',(-1.E0,0.E0,0.E0));
#342=DIRECTION('',(0.E0,0.E0,-1.E0));
#343=AXIS2_PLACEMENT_3D('',#340,#341,#342);
#345=CURVE_STYLE('',#31,POSITIVE_LENGTH_MEASURE(2.E-2),#1);
#346=PRESENTATION_STYLE_ASSIGNMENT((#345));
#347=STYLED_ITEM('',(#346),#344);
#348=DIRECTION('',(0.E0,-1.E0,0.E0));
#349=VECTOR('',#348,2.362204724409E-2);
#350=CARTESIAN_POINT('',(-2.755905511811E-2,2.834645669291E-2,
-1.574803149606E-2));
#351=LINE('',#350,#349);
#352=CURVE_STYLE('',#31,POSITIVE_LENGTH_MEASURE(2.E-2),#1);
#353=PRESENTATION_STYLE_ASSIGNMENT((#352));
#354=STYLED_ITEM('',(#353),#351);
#355=DIRECTION('',(0.E0,1.E0,0.E0));
#356=VECTOR('',#355,2.362204724409E-2);
#357=CARTESIAN_POINT('',(-3.149606299213E-2,4.724409448819E-3,
-1.181102362205E-2));
#358=LINE('',#357,#356);
#359=CURVE_STYLE('',#31,POSITIVE_LENGTH_MEASURE(2.E-2),#1);
#360=PRESENTATION_STYLE_ASSIGNMENT((#359));
#361=STYLED_ITEM('',(#360),#358);
#362=CARTESIAN_POINT('',(-2.755905511811E-2,2.834645669291E-2,
-1.181102362205E-2));
#363=DIRECTION('',(-1.E0,0.E0,0.E0));
#364=DIRECTION('',(0.E0,1.E0,0.E0));
#365=AXIS2_PLACEMENT_3D('',#362,#363,#364);
#367=CURVE_STYLE('',#31,POSITIVE_LENGTH_MEASURE(2.E-2),#1);
#368=PRESENTATION_STYLE_ASSIGNMENT((#367));
#369=STYLED_ITEM('',(#368),#366);
#370=CARTESIAN_POINT('',(-2.755905511811E-2,2.834645669291E-2,
-1.181102362205E-2));
#371=DIRECTION('',(0.E0,0.E0,-1.E0));
#372=DIRECTION('',(-1.E0,0.E0,0.E0));
#373=AXIS2_PLACEMENT_3D('',#370,#371,#372);
#375=CURVE_STYLE('',#31,POSITIVE_LENGTH_MEASURE(2.E-2),#1);
#376=PRESENTATION_STYLE_ASSIGNMENT((#375));
#377=STYLED_ITEM('',(#376),#374);
#378=CARTESIAN_POINT('',(-2.755905511811E-2,2.834645669291E-2,
-1.181102362205E-2));
#379=DIRECTION('',(0.E0,1.E0,0.E0));
#380=DIRECTION('',(0.E0,0.E0,-1.E0));
#381=AXIS2_PLACEMENT_3D('',#378,#379,#380);
#383=CURVE_STYLE('',#31,POSITIVE_LENGTH_MEASURE(2.E-2),#1);
#384=PRESENTATION_STYLE_ASSIGNMENT((#383));
#385=STYLED_ITEM('',(#384),#382);
#386=DIRECTION('',(0.E0,0.E0,-1.E0));
#387=VECTOR('',#386,2.362204724409E-2);
#388=CARTESIAN_POINT('',(-2.755905511811E-2,3.228346456693E-2,
1.181102362205E-2));
#389=LINE('',#388,#387);
#390=CURVE_STYLE('',#31,POSITIVE_LENGTH_MEASURE(2.E-2),#1);
#391=PRESENTATION_STYLE_ASSIGNMENT((#390));
#392=STYLED_ITEM('',(#391),#389);
#393=DIRECTION('',(0.E0,0.E0,1.E0));
#394=VECTOR('',#393,2.362204724409E-2);
#395=CARTESIAN_POINT('',(-3.149606299213E-2,2.834645669291E-2,
-1.181102362205E-2));
#396=LINE('',#395,#394);
#397=CURVE_STYLE('',#31,POSITIVE_LENGTH_MEASURE(2.E-2),#1);
#398=PRESENTATION_STYLE_ASSIGNMENT((#397));
#399=STYLED_ITEM('',(#398),#396);
#400=CARTESIAN_POINT('',(-6.225869487787E-2,3.228346456693E-2,0.E0));
#401=DIRECTION('',(0.E0,1.E0,0.E0));
#402=DIRECTION('',(9.682458365519E-1,0.E0,2.5E-1));
#403=AXIS2_PLACEMENT_3D('',#400,#401,#402);
#405=CURVE_STYLE('',#31,POSITIVE_LENGTH_MEASURE(2.E-2),#1);
#406=PRESENTATION_STYLE_ASSIGNMENT((#405));
#407=STYLED_ITEM('',(#406),#404);
#408=CARTESIAN_POINT('',(-2.755905511811E-2,2.834645669291E-2,
1.181102362205E-2));
#409=DIRECTION('',(0.E0,0.E0,1.E0));
#410=DIRECTION('',(0.E0,1.E0,0.E0));
#411=AXIS2_PLACEMENT_3D('',#408,#409,#410);
#413=CURVE_STYLE('',#31,POSITIVE_LENGTH_MEASURE(2.E-2),#1);
#414=PRESENTATION_STYLE_ASSIGNMENT((#413));
#415=STYLED_ITEM('',(#414),#412);
#416=CARTESIAN_POINT('',(-2.755905511811E-2,2.834645669291E-2,
1.181102362205E-2));
#417=DIRECTION('',(-1.E0,0.E0,0.E0));
#418=DIRECTION('',(0.E0,0.E0,1.E0));
#419=AXIS2_PLACEMENT_3D('',#416,#417,#418);
#421=CURVE_STYLE('',#31,POSITIVE_LENGTH_MEASURE(2.E-2),#1);
#422=PRESENTATION_STYLE_ASSIGNMENT((#421));
#423=STYLED_ITEM('',(#422),#420);
#424=CARTESIAN_POINT('',(-2.755905511811E-2,2.834645669291E-2,
1.181102362205E-2));
#425=DIRECTION('',(0.E0,1.E0,0.E0));
#426=DIRECTION('',(-1.E0,0.E0,0.E0));
#427=AXIS2_PLACEMENT_3D('',#424,#425,#426);
#429=CURVE_STYLE('',#31,POSITIVE_LENGTH_MEASURE(2.E-2),#1);
#430=PRESENTATION_STYLE_ASSIGNMENT((#429));
#431=STYLED_ITEM('',(#430),#428);
#432=DIRECTION('',(0.E0,-1.E0,0.E0));
#433=VECTOR('',#432,2.362204724409E-2);
#434=CARTESIAN_POINT('',(-3.149606299213E-2,2.834645669291E-2,
1.181102362205E-2));
#435=LINE('',#434,#433);
#436=CURVE_STYLE('',#31,POSITIVE_LENGTH_MEASURE(2.E-2),#1);
#437=PRESENTATION_STYLE_ASSIGNMENT((#436));
#438=STYLED_ITEM('',(#437),#435);
#439=DIRECTION('',(0.E0,1.E0,0.E0));
#440=VECTOR('',#439,2.362204724409E-2);
#441=CARTESIAN_POINT('',(-2.755905511811E-2,4.724409448819E-3,
1.574803149606E-2));
#442=LINE('',#441,#440);
#443=CURVE_STYLE('',#31,POSITIVE_LENGTH_MEASURE(2.E-2),#1);
#444=PRESENTATION_STYLE_ASSIGNMENT((#443));
#445=STYLED_ITEM('',(#444),#442);
#446=DIRECTION('',(0.E0,0.E0,-1.E0));
#447=VECTOR('',#446,2.362204724409E-2);
#448=CARTESIAN_POINT('',(-3.149606299213E-2,4.724409448819E-3,
1.181102362205E-2));
#449=LINE('',#448,#447);
#450=CURVE_STYLE('',#31,POSITIVE_LENGTH_MEASURE(2.E-2),#1);
#451=PRESENTATION_STYLE_ASSIGNMENT((#450));
#452=STYLED_ITEM('',(#451),#449);
#453=DIRECTION('',(0.E0,0.E0,1.E0));
#454=VECTOR('',#453,2.362204724409E-2);
#455=CARTESIAN_POINT('',(-2.755905511811E-2,7.874015748031E-4,
-1.181102362205E-2));
#456=LINE('',#455,#454);
#457=CURVE_STYLE('',#31,POSITIVE_LENGTH_MEASURE(2.E-2),#1);
#458=PRESENTATION_STYLE_ASSIGNMENT((#457));
#459=STYLED_ITEM('',(#458),#456);
#460=CARTESIAN_POINT('',(-2.755905511811E-2,4.724409448819E-3,
1.181102362205E-2));
#461=DIRECTION('',(0.E0,-1.E0,0.E0));
#462=DIRECTION('',(0.E0,0.E0,1.E0));
#463=AXIS2_PLACEMENT_3D('',#460,#461,#462);
#465=CURVE_STYLE('',#31,POSITIVE_LENGTH_MEASURE(2.E-2),#1);
#466=PRESENTATION_STYLE_ASSIGNMENT((#465));
#467=STYLED_ITEM('',(#466),#464);
#468=CARTESIAN_POINT('',(-2.755905511811E-2,4.724409448819E-3,
1.181102362205E-2));
#469=DIRECTION('',(-1.E0,0.E0,0.E0));
#470=DIRECTION('',(0.E0,-1.E0,0.E0));
#471=AXIS2_PLACEMENT_3D('',#468,#469,#470);
#473=CURVE_STYLE('',#31,POSITIVE_LENGTH_MEASURE(2.E-2),#1);
#474=PRESENTATION_STYLE_ASSIGNMENT((#473));
#475=STYLED_ITEM('',(#474),#472);
#476=CARTESIAN_POINT('',(-2.755905511811E-2,4.724409448819E-3,
1.181102362205E-2));
#477=DIRECTION('',(0.E0,0.E0,1.E0));
#478=DIRECTION('',(-1.E0,0.E0,0.E0));
#479=AXIS2_PLACEMENT_3D('',#476,#477,#478);
#481=CURVE_STYLE('',#31,POSITIVE_LENGTH_MEASURE(2.E-2),#1);
#482=PRESENTATION_STYLE_ASSIGNMENT((#481));
#483=STYLED_ITEM('',(#482),#480);
#484=CARTESIAN_POINT('',(-6.225869487787E-2,7.874015748031E-4,0.E0));
#485=DIRECTION('',(0.E0,-1.E0,0.E0));
#486=DIRECTION('',(9.682458365519E-1,0.E0,-2.5E-1));
#487=AXIS2_PLACEMENT_3D('',#484,#485,#486);
#489=CURVE_STYLE('',#31,POSITIVE_LENGTH_MEASURE(2.E-2),#1);
#490=PRESENTATION_STYLE_ASSIGNMENT((#489));
#491=STYLED_ITEM('',(#490),#488);
#492=CARTESIAN_POINT('',(-1.605108808686E-2,2.834645669291E-2,
-1.574803149606E-2));
#493=CARTESIAN_POINT('',(-1.605108808686E-2,4.724409448819E-3,
-1.574803149606E-2));
#494=VERTEX_POINT('',#492);
#495=VERTEX_POINT('',#493);
#496=VERTEX_POINT('',#103);
#497=VERTEX_POINT('',#92);
#498=VERTEX_POINT('',#72);
#499=CARTESIAN_POINT('',(-1.605108808686E-2,4.724409448819E-3,
1.574803149606E-2));
#500=VERTEX_POINT('',#499);
#501=VERTEX_POINT('',#61);
#502=VERTEX_POINT('',#50);
#503=VERTEX_POINT('',#151);
#504=VERTEX_POINT('',#176);
#505=VERTEX_POINT('',#116);
#506=CARTESIAN_POINT('',(-1.651479708802E-2,3.228346456693E-2,
1.181102362205E-2));
#507=VERTEX_POINT('',#506);
#508=VERTEX_POINT('',#259);
#509=VERTEX_POINT('',#284);
#510=VERTEX_POINT('',#224);
#511=CARTESIAN_POINT('',(-1.651479708802E-2,7.874015748031E-4,
-1.181102362205E-2));
#512=VERTEX_POINT('',#511);
#513=CARTESIAN_POINT('',(-2.755905511811E-2,7.874015748031E-4,
-1.181102362205E-2));
#514=VERTEX_POINT('',#513);
#515=CARTESIAN_POINT('',(-2.755905511811E-2,4.724409448819E-3,
-1.574803149606E-2));
#516=VERTEX_POINT('',#515);
#517=CARTESIAN_POINT('',(-2.755905511811E-2,4.724409448819E-3,
1.574803149606E-2));
#518=VERTEX_POINT('',#517);
#519=CARTESIAN_POINT('',(-2.755905511811E-2,7.874015748031E-4,
1.181102362205E-2));
#520=VERTEX_POINT('',#519);
#521=CARTESIAN_POINT('',(-2.755905511811E-2,2.834645669291E-2,
-1.574803149606E-2));
#522=VERTEX_POINT('',#521);
#523=CARTESIAN_POINT('',(-2.755905511811E-2,3.228346456693E-2,
-1.181102362205E-2));
#524=VERTEX_POINT('',#523);
#525=CARTESIAN_POINT('',(-3.149606299213E-2,2.834645669291E-2,
-1.181102362205E-2));
#526=VERTEX_POINT('',#525);
#527=CARTESIAN_POINT('',(-2.755905511811E-2,3.228346456693E-2,
1.181102362205E-2));
#528=VERTEX_POINT('',#527);
#529=CARTESIAN_POINT('',(-2.755905511811E-2,2.834645669291E-2,
1.574803149606E-2));
#530=VERTEX_POINT('',#529);
#531=CARTESIAN_POINT('',(-3.149606299213E-2,2.834645669291E-2,
1.181102362205E-2));
#532=VERTEX_POINT('',#531);
#533=CARTESIAN_POINT('',(-3.149606299213E-2,4.724409448819E-3,
1.181102362205E-2));
#534=VERTEX_POINT('',#533);
#535=CARTESIAN_POINT('',(-3.149606299213E-2,4.724409448819E-3,
-1.181102362205E-2));
#536=VERTEX_POINT('',#535);
#537=CARTESIAN_POINT('',(-4.945770767047E-2,1.653543307087E-2,
-1.159678902469E-1));
#538=DIRECTION('',(0.E0,0.E0,1.E0));
#539=DIRECTION('',(1.E0,-6.629175694757E-14,0.E0));
#540=AXIS2_PLACEMENT_3D('',#537,#538,#539);
#541=CYLINDRICAL_SURFACE('',#540,3.543307086614E-2);
#543=ORIENTED_EDGE('',*,*,#542,.T.);
#545=ORIENTED_EDGE('',*,*,#544,.F.);
#547=ORIENTED_EDGE('',*,*,#546,.F.);
#549=ORIENTED_EDGE('',*,*,#548,.F.);
#551=ORIENTED_EDGE('',*,*,#550,.T.);
#553=ORIENTED_EDGE('',*,*,#552,.F.);
#555=ORIENTED_EDGE('',*,*,#554,.F.);
#557=ORIENTED_EDGE('',*,*,#556,.F.);
#558=EDGE_LOOP('',(#543,#545,#547,#549,#551,#553,#555,#557));
#559=FACE_OUTER_BOUND('',#558,.F.);
#561=FILL_AREA_STYLE_COLOUR('',#9);
#562=FILL_AREA_STYLE('',(#561));
#563=SURFACE_STYLE_FILL_AREA(#562);
#564=SURFACE_SIDE_STYLE('',(#563));
#565=SURFACE_STYLE_USAGE(.BOTH.,#564);
#566=PRESENTATION_STYLE_ASSIGNMENT((#565));
#567=OVER_RIDING_STYLED_ITEM('',(#566),#560,#22);
#568=CARTESIAN_POINT('',(-2.755905511811E-2,3.228346456693E-2,
-1.574803149606E-2));
#569=DIRECTION('',(0.E0,0.E0,1.E0));
#570=DIRECTION('',(-1.E0,0.E0,0.E0));
#571=AXIS2_PLACEMENT_3D('',#568,#569,#570);
#572=PLANE('',#571);
#574=ORIENTED_EDGE('',*,*,#573,.T.);
#576=ORIENTED_EDGE('',*,*,#575,.T.);
#578=ORIENTED_EDGE('',*,*,#577,.T.);
#579=ORIENTED_EDGE('',*,*,#542,.F.);
#580=EDGE_LOOP('',(#574,#576,#578,#579));
#581=FACE_OUTER_BOUND('',#580,.F.);
#583=FILL_AREA_STYLE_COLOUR('',#9);
#584=FILL_AREA_STYLE('',(#583));
#585=SURFACE_STYLE_FILL_AREA(#584);
#586=SURFACE_SIDE_STYLE('',(#585));
#587=SURFACE_STYLE_USAGE(.BOTH.,#586);
#588=PRESENTATION_STYLE_ASSIGNMENT((#587));
#589=OVER_RIDING_STYLED_ITEM('',(#588),#582,#22);
#590=CARTESIAN_POINT('',(-2.755905511811E-2,2.834645669291E-2,
-1.181102362205E-2));
#591=DIRECTION('',(1.E0,0.E0,0.E0));
#592=DIRECTION('',(0.E0,0.E0,1.E0));
#593=AXIS2_PLACEMENT_3D('',#590,#591,#592);
#594=CYLINDRICAL_SURFACE('',#593,3.937007874016E-3);
#596=ORIENTED_EDGE('',*,*,#595,.F.);
#598=ORIENTED_EDGE('',*,*,#597,.F.);
#600=ORIENTED_EDGE('',*,*,#599,.T.);
#601=ORIENTED_EDGE('',*,*,#573,.F.);
#602=ORIENTED_EDGE('',*,*,#556,.T.);
#604=ORIENTED_EDGE('',*,*,#603,.F.);
#605=EDGE_LOOP('',(#596,#598,#600,#601,#602,#604));
#606=FACE_OUTER_BOUND('',#605,.F.);
#608=FILL_AREA_STYLE_COLOUR('',#9);
#609=FILL_AREA_STYLE('',(#608));
#610=SURFACE_STYLE_FILL_AREA(#609);
#611=SURFACE_SIDE_STYLE('',(#610));
#612=SURFACE_STYLE_USAGE(.BOTH.,#611);
#613=PRESENTATION_STYLE_ASSIGNMENT((#612));
#614=OVER_RIDING_STYLED_ITEM('',(#613),#607,#22);
#615=CARTESIAN_POINT('',(-6.225869487787E-2,3.228346456693E-2,0.E0));
#616=DIRECTION('',(0.E0,-1.E0,0.E0));
#617=DIRECTION('',(0.E0,0.E0,1.E0));
#618=AXIS2_PLACEMENT_3D('',#615,#616,#617);
#619=CYLINDRICAL_SURFACE('',#618,4.724409448819E-2);
#620=ORIENTED_EDGE('',*,*,#595,.T.);
#622=ORIENTED_EDGE('',*,*,#621,.F.);
#624=ORIENTED_EDGE('',*,*,#623,.T.);
#626=ORIENTED_EDGE('',*,*,#625,.T.);
#627=EDGE_LOOP('',(#620,#622,#624,#626));
#628=FACE_OUTER_BOUND('',#627,.F.);
#630=FILL_AREA_STYLE_COLOUR('',#9);
#631=FILL_AREA_STYLE('',(#630));
#632=SURFACE_STYLE_FILL_AREA(#631);
#633=SURFACE_SIDE_STYLE('',(#632));
#634=SURFACE_STYLE_USAGE(.BOTH.,#633);
#635=PRESENTATION_STYLE_ASSIGNMENT((#634));
#636=OVER_RIDING_STYLED_ITEM('',(#635),#629,#22);
#637=CARTESIAN_POINT('',(-1.717025452242E-2,3.240871715508E-2,
1.410847713065E-2));
#638=CARTESIAN_POINT('',(-1.728967691123E-2,3.184709501114E-2,
1.447122143123E-2));
#639=CARTESIAN_POINT('',(-1.723367368273E-2,3.126642828692E-2,
1.490249755904E-2));
#640=CARTESIAN_POINT('',(-1.701298080169E-2,3.077799955727E-2,
1.531965216422E-2));
#641=CARTESIAN_POINT('',(-1.683439515713E-2,3.157836987748E-2,
1.303477523848E-2));
#642=CARTESIAN_POINT('',(-1.693640924593E-2,3.104817019118E-2,
1.337479779766E-2));
#643=CARTESIAN_POINT('',(-1.688382712788E-2,3.050218060746E-2,
1.376958653989E-2));
#644=CARTESIAN_POINT('',(-1.668548768011E-2,3.003217239682E-2,
1.415303495148E-2));
#645=CARTESIAN_POINT('',(-1.624354483264E-2,2.995476212428E-2,
1.089086089276E-2));
#646=CARTESIAN_POINT('',(-1.631425763571E-2,2.948498398942E-2,
1.118242577994E-2));
#647=CARTESIAN_POINT('',(-1.626772580861E-2,2.900498799389E-2,
1.150727783044E-2));
#648=CARTESIAN_POINT('',(-1.610981944031E-2,2.857509235774E-2,
1.182533492124E-2));
#649=CARTESIAN_POINT('',(-1.568505791673E-2,2.809631946238E-2,
8.082341840532E-3));
#650=CARTESIAN_POINT('',(-1.572451305817E-2,2.769451855616E-2,
8.303932971360E-3));
#651=CARTESIAN_POINT('',(-1.568360323390E-2,2.728647157370E-2,
8.542194908051E-3));
#652=CARTESIAN_POINT('',(-1.556593752336E-2,2.690798704560E-2,
8.776686954398E-3));
#653=CARTESIAN_POINT('',(-1.535042474646E-2,2.680144259039E-2,
5.717527795201E-3));
#654=CARTESIAN_POINT('',(-1.537095034712E-2,2.644601266825E-2,
5.875715173013E-3));
#655=CARTESIAN_POINT('',(-1.533329180606E-2,2.608651168779E-2,
6.042942633339E-3));
#656=CARTESIAN_POINT('',(-1.523987378271E-2,2.574601250931E-2,
6.208688369210E-3));
#657=CARTESIAN_POINT('',(-1.516132209324E-2,2.600179523979E-2,
3.862449394961E-3));
#658=CARTESIAN_POINT('',(-1.517105040973E-2,2.567500116137E-2,
3.969607335538E-3));
#659=CARTESIAN_POINT('',(-1.513521966129E-2,2.534503780869E-2,
4.082048219466E-3));
#660=CARTESIAN_POINT('',(-1.505563895880E-2,2.502852004028E-2,
4.194292555666E-3));
#661=CARTESIAN_POINT('',(-1.504196115776E-2,2.545726235433E-2,
1.947559055325E-3));
#662=CARTESIAN_POINT('',(-1.504469670542E-2,2.514967486238E-2,
2.001907681195E-3));
#663=CARTESIAN_POINT('',(-1.501000969393E-2,2.483959659992E-2,
2.058430579262E-3));
#664=CARTESIAN_POINT('',(-1.493934483372E-2,2.453992829480E-2,
2.114889133851E-3));
#665=CARTESIAN_POINT('',(-1.500025329189E-2,2.525157959836E-2,
-2.842093679133E-5));
#666=CARTESIAN_POINT('',(-1.500041253223E-2,2.495089776979E-2,
-2.922915056547E-5));
#667=CARTESIAN_POINT('',(-1.496612422536E-2,2.464827684173E-2,
-3.005307438761E-5));
#668=CARTESIAN_POINT('',(-1.489870999110E-2,2.435538228971E-2,
-3.086282252555E-5));
#669=CARTESIAN_POINT('',(-1.504454212065E-2,2.546889224233E-2,
-2.005272553479E-3));
#670=CARTESIAN_POINT('',(-1.504742284194E-2,2.516087272932E-2,
-2.061200244451E-3));
#671=CARTESIAN_POINT('',(-1.501271132993E-2,2.485037090178E-2,
-2.119401912542E-3));
#672=CARTESIAN_POINT('',(-1.494185995127E-2,2.455036360382E-2,
-2.177561415968E-3));
#673=CARTESIAN_POINT('',(-1.516643517214E-2,2.602303408645E-2,
-3.919513467978E-3));
#674=CARTESIAN_POINT('',(-1.517644381972E-2,2.569542928114E-2,
-4.028174700107E-3));
#675=CARTESIAN_POINT('',(-1.514056388303E-2,2.536468407675E-2,
-4.142290743011E-3));
#676=CARTESIAN_POINT('',(-1.506062046477E-2,2.504757634098E-2,
-4.256256732914E-3));
#677=CARTESIAN_POINT('',(-1.535715007E-2,2.682791007184E-2,-5.769757878008E-3));
#678=CARTESIAN_POINT('',(-1.537805424778E-2,2.647151021821E-2,
-5.929306812484E-3));
#679=CARTESIAN_POINT('',(-1.534033100283E-2,2.611102382427E-2,
-6.098092905428E-3));
#680=CARTESIAN_POINT('',(-1.524642783852E-2,2.576976529023E-2,
-6.265409353455E-3));
#681=CARTESIAN_POINT('',(-1.560761991500E-2,2.779527931613E-2,
-7.529597241799E-3));
#682=CARTESIAN_POINT('',(-1.564268854285E-2,2.740424745639E-2,
-7.736373498041E-3));
#683=CARTESIAN_POINT('',(-1.560252851586E-2,2.700747159839E-2,
-7.958037937113E-3));
#684=CARTESIAN_POINT('',(-1.549047621419E-2,2.663783062423E-2,
-8.176427333401E-3));
#685=CARTESIAN_POINT('',(-1.591026706009E-2,2.884535389698E-2,
-9.210854772593E-3));
#686=CARTESIAN_POINT('',(-1.596234976296E-2,2.841620909756E-2,
-9.460455090272E-3));
#687=CARTESIAN_POINT('',(-1.591918060306E-2,2.797917889035E-2,
-9.733546650919E-3));
#688=CARTESIAN_POINT('',(-1.578528086032E-2,2.757995827321E-2,
-1.000177079421E-2));
#689=CARTESIAN_POINT('',(-1.639129612741E-2,3.036091341735E-2,
-1.142774794733E-2));
#690=CARTESIAN_POINT('',(-1.646983742583E-2,2.987602140980E-2,
-1.173154014770E-2));
#691=CARTESIAN_POINT('',(-1.642179501525E-2,2.937952302685E-2,
-1.207391122840E-2));
#692=CARTESIAN_POINT('',(-1.625378035342E-2,2.893960003203E-2,
-1.240826868132E-2));
#693=CARTESIAN_POINT('',(-1.683521029716E-2,3.158036329827E-2,
-1.303736710599E-2));
#694=CARTESIAN_POINT('',(-1.693727267978E-2,3.105009917331E-2,
-1.337745849842E-2));
#695=CARTESIAN_POINT('',(-1.688468820065E-2,3.050404067074E-2,
-1.377235562782E-2));
#696=CARTESIAN_POINT('',(-1.668629892790E-2,3.003400055585E-2,
-1.415591021673E-2));
#697=CARTESIAN_POINT('',(-1.717027372629E-2,3.240876643801E-2,
-1.410853856238E-2));
#698=CARTESIAN_POINT('',(-1.728969606874E-2,3.184714038999E-2,
-1.447128121764E-2));
#699=CARTESIAN_POINT('',(-1.723369163304E-2,3.126646921505E-2,
-1.490255592872E-2));
#700=CARTESIAN_POINT('',(-1.701299671623E-2,3.077803739515E-2,
-1.531970882574E-2));
#701=B_SPLINE_SURFACE_WITH_KNOTS('',3,3,((#637,#638,#639,#640),(#641,#642,#643,
#644),(#645,#646,#647,#648),(#649,#650,#651,#652),(#653,#654,#655,#656),(#657,
#658,#659,#660),(#661,#662,#663,#664),(#665,#666,#667,#668),(#669,#670,#671,
#672),(#673,#674,#675,#676),(#677,#678,#679,#680),(#681,#682,#683,#684),(#685,
#686,#687,#688),(#689,#690,#691,#692),(#693,#694,#695,#696),(#697,#698,#699,
#700)),.UNSPECIFIED.,.F.,.F.,.F.,(4,1,1,1,1,1,1,1,1,1,1,1,1,4),(4,4),(
-3.849116442658E-3,1.25E-1,2.5E-1,3.125E-1,3.75E-1,4.375E-1,5.E-1,5.625E-1,
6.25E-1,6.875E-1,7.5E-1,8.125E-1,8.75E-1,1.003632724636E0),(-1.513105143159E-2,
1.014826921412E0),.UNSPECIFIED.);
#702=ORIENTED_EDGE('',*,*,#621,.T.);
#703=ORIENTED_EDGE('',*,*,#603,.T.);
#704=ORIENTED_EDGE('',*,*,#554,.T.);
#706=ORIENTED_EDGE('',*,*,#705,.T.);
#707=EDGE_LOOP('',(#702,#703,#704,#706));
#708=FACE_OUTER_BOUND('',#707,.F.);
#710=FILL_AREA_STYLE_COLOUR('',#9);
#711=FILL_AREA_STYLE('',(#710));
#712=SURFACE_STYLE_FILL_AREA(#711);
#713=SURFACE_SIDE_STYLE('',(#712));
#714=SURFACE_STYLE_USAGE(.BOTH.,#713);
#715=PRESENTATION_STYLE_ASSIGNMENT((#714));
#716=OVER_RIDING_STYLED_ITEM('',(#715),#709,#22);
#717=CARTESIAN_POINT('',(-2.755905511811E-2,2.834645669291E-2,
1.181102362205E-2));
#718=DIRECTION('',(-1.E0,0.E0,0.E0));
#719=DIRECTION('',(0.E0,0.E0,-1.E0));
#720=AXIS2_PLACEMENT_3D('',#717,#718,#719);
#721=CYLINDRICAL_SURFACE('',#720,3.937007874016E-3);
#722=ORIENTED_EDGE('',*,*,#623,.F.);
#723=ORIENTED_EDGE('',*,*,#705,.F.);
#724=ORIENTED_EDGE('',*,*,#552,.T.);
#726=ORIENTED_EDGE('',*,*,#725,.F.);
#728=ORIENTED_EDGE('',*,*,#727,.T.);
#730=ORIENTED_EDGE('',*,*,#729,.F.);
#731=EDGE_LOOP('',(#722,#723,#724,#726,#728,#730));
#732=FACE_OUTER_BOUND('',#731,.F.);
#734=FILL_AREA_STYLE_COLOUR('',#9);
#735=FILL_AREA_STYLE('',(#734));
#736=SURFACE_STYLE_FILL_AREA(#735);
#737=SURFACE_SIDE_STYLE('',(#736));
#738=SURFACE_STYLE_USAGE(.BOTH.,#737);
#739=PRESENTATION_STYLE_ASSIGNMENT((#738));
#740=OVER_RIDING_STYLED_ITEM('',(#739),#733,#22);
#741=CARTESIAN_POINT('',(-2.755905511811E-2,3.228346456693E-2,
1.574803149606E-2));
#742=DIRECTION('',(0.E0,0.E0,-1.E0));
#743=DIRECTION('',(1.E0,0.E0,0.E0));
#744=AXIS2_PLACEMENT_3D('',#741,#742,#743);
#745=PLANE('',#744);
#747=ORIENTED_EDGE('',*,*,#746,.T.);
#749=ORIENTED_EDGE('',*,*,#748,.T.);
#750=ORIENTED_EDGE('',*,*,#725,.T.);
#751=ORIENTED_EDGE('',*,*,#550,.F.);
#752=EDGE_LOOP('',(#747,#749,#750,#751));
#753=FACE_OUTER_BOUND('',#752,.F.);
#755=FILL_AREA_STYLE_COLOUR('',#9);
#756=FILL_AREA_STYLE('',(#755));
#757=SURFACE_STYLE_FILL_AREA(#756);
#758=SURFACE_SIDE_STYLE('',(#757));
#759=SURFACE_STYLE_USAGE(.BOTH.,#758);
#760=PRESENTATION_STYLE_ASSIGNMENT((#759));
#761=OVER_RIDING_STYLED_ITEM('',(#760),#754,#22);
#762=CARTESIAN_POINT('',(-2.755905511811E-2,4.724409448819E-3,
1.181102362205E-2));
#763=DIRECTION('',(1.E0,0.E0,0.E0));
#764=DIRECTION('',(0.E0,0.E0,1.E0));
#765=AXIS2_PLACEMENT_3D('',#762,#763,#764);
#766=CYLINDRICAL_SURFACE('',#765,3.937007874016E-3);
#768=ORIENTED_EDGE('',*,*,#767,.F.);
#770=ORIENTED_EDGE('',*,*,#769,.F.);
#772=ORIENTED_EDGE('',*,*,#771,.T.);
#773=ORIENTED_EDGE('',*,*,#746,.F.);
#774=ORIENTED_EDGE('',*,*,#548,.T.);
#776=ORIENTED_EDGE('',*,*,#775,.F.);
#777=EDGE_LOOP('',(#768,#770,#772,#773,#774,#776));
#778=FACE_OUTER_BOUND('',#777,.F.);
#780=FILL_AREA_STYLE_COLOUR('',#9);
#781=FILL_AREA_STYLE('',(#780));
#782=SURFACE_STYLE_FILL_AREA(#781);
#783=SURFACE_SIDE_STYLE('',(#782));
#784=SURFACE_STYLE_USAGE(.BOTH.,#783);
#785=PRESENTATION_STYLE_ASSIGNMENT((#784));
#786=OVER_RIDING_STYLED_ITEM('',(#785),#779,#22);
#787=CARTESIAN_POINT('',(-6.225869487787E-2,3.228346456693E-2,0.E0));
#788=DIRECTION('',(0.E0,-1.E0,0.E0));
#789=DIRECTION('',(0.E0,0.E0,1.E0));
#790=AXIS2_PLACEMENT_3D('',#787,#788,#789);
#791=CYLINDRICAL_SURFACE('',#790,4.724409448819E-2);
#792=ORIENTED_EDGE('',*,*,#767,.T.);
#794=ORIENTED_EDGE('',*,*,#793,.F.);
#796=ORIENTED_EDGE('',*,*,#795,.T.);
#798=ORIENTED_EDGE('',*,*,#797,.T.);
#799=EDGE_LOOP('',(#792,#794,#796,#798));
#800=FACE_OUTER_BOUND('',#799,.F.);
#802=FILL_AREA_STYLE_COLOUR('',#9);
#803=FILL_AREA_STYLE('',(#802));
#804=SURFACE_STYLE_FILL_AREA(#803);
#805=SURFACE_SIDE_STYLE('',(#804));
#806=SURFACE_STYLE_USAGE(.BOTH.,#805);
#807=PRESENTATION_STYLE_ASSIGNMENT((#806));
#808=OVER_RIDING_STYLED_ITEM('',(#807),#801,#22);
#809=CARTESIAN_POINT('',(-1.717025452243E-2,6.621489866376E-4,
-1.410847713065E-2));
#810=CARTESIAN_POINT('',(-1.728967691123E-2,1.223771130575E-3,
-1.447122143123E-2));
#811=CARTESIAN_POINT('',(-1.723367368273E-2,1.804437854806E-3,
-1.490249755905E-2));
#812=CARTESIAN_POINT('',(-1.701298080169E-2,2.292866584469E-3,
-1.531965216422E-2));
#813=CARTESIAN_POINT('',(-1.683439515713E-2,1.492496264246E-3,
-1.303477523848E-2));
#814=CARTESIAN_POINT('',(-1.693640924593E-2,2.022695950538E-3,
-1.337479779767E-2));
#815=CARTESIAN_POINT('',(-1.688382712788E-2,2.568685534269E-3,
-1.376958653989E-2));
#816=CARTESIAN_POINT('',(-1.668548768011E-2,3.038693744918E-3,
-1.415303495148E-2));
#817=CARTESIAN_POINT('',(-1.624354483264E-2,3.116104017444E-3,
-1.089086089276E-2));
#818=CARTESIAN_POINT('',(-1.631425763571E-2,3.585882152308E-3,
-1.118242577994E-2));
#819=CARTESIAN_POINT('',(-1.626772580861E-2,4.065878147849E-3,
-1.150727783044E-2));
#820=CARTESIAN_POINT('',(-1.610981944031E-2,4.495773784E-3,-1.182533492125E-2));
#821=CARTESIAN_POINT('',(-1.568505791673E-2,4.974546679353E-3,
-8.082341840532E-3));
#822=CARTESIAN_POINT('',(-1.572451305817E-2,5.376347585573E-3,
-8.303932971361E-3));
#823=CARTESIAN_POINT('',(-1.568360323390E-2,5.784394568037E-3,
-8.542194908052E-3));
#824=CARTESIAN_POINT('',(-1.556593752336E-2,6.162879096132E-3,
-8.776686954399E-3));
#825=CARTESIAN_POINT('',(-1.535042474646E-2,6.269423551344E-3,
-5.717527795201E-3));
#826=CARTESIAN_POINT('',(-1.537095034712E-2,6.624853473482E-3,
-5.875715173013E-3));
#827=CARTESIAN_POINT('',(-1.533329180606E-2,6.984354453944E-3,
-6.042942633339E-3));
#828=CARTESIAN_POINT('',(-1.523987378271E-2,7.324853632428E-3,
-6.208688369211E-3));
#829=CARTESIAN_POINT('',(-1.516132209324E-2,7.069070901939E-3,
-3.862449394961E-3));
#830=CARTESIAN_POINT('',(-1.517105040973E-2,7.395864980364E-3,
-3.969607335537E-3));
#831=CARTESIAN_POINT('',(-1.513521966129E-2,7.725828333046E-3,
-4.082048219466E-3));
#832=CARTESIAN_POINT('',(-1.505563895880E-2,8.042346101451E-3,
-4.194292555666E-3));
#833=CARTESIAN_POINT('',(-1.504196115776E-2,7.613603787401E-3,
-1.947559055325E-3));
#834=CARTESIAN_POINT('',(-1.504469670542E-2,7.921191279357E-3,
-2.001907681195E-3));
#835=CARTESIAN_POINT('',(-1.501000969393E-2,8.231269541810E-3,
-2.058430579262E-3));
#836=CARTESIAN_POINT('',(-1.493934483372E-2,8.530937846937E-3,
-2.114889133851E-3));
#837=CARTESIAN_POINT('',(-1.500025329189E-2,7.819286543368E-3,
2.842093679196E-5));
#838=CARTESIAN_POINT('',(-1.500041253223E-2,8.119968371946E-3,
2.922915056610E-5));
#839=CARTESIAN_POINT('',(-1.496612422536E-2,8.422589300003E-3,
3.005307438824E-5));
#840=CARTESIAN_POINT('',(-1.489870999110E-2,8.715483852020E-3,
3.086282252618E-5));
#841=CARTESIAN_POINT('',(-1.504454212065E-2,7.601973899399E-3,
2.005272553479E-3));
#842=CARTESIAN_POINT('',(-1.504742284194E-2,7.909993412412E-3,
2.061200244451E-3));
#843=CARTESIAN_POINT('',(-1.501271132993E-2,8.220495239949E-3,
2.119401912542E-3));
#844=CARTESIAN_POINT('',(-1.494185995127E-2,8.520502537915E-3,
2.177561415969E-3));
#845=CARTESIAN_POINT('',(-1.516643517214E-2,7.047832055287E-3,
3.919513467978E-3));
#846=CARTESIAN_POINT('',(-1.517644381972E-2,7.375436860594E-3,
4.028174700107E-3));
#847=CARTESIAN_POINT('',(-1.514056388303E-2,7.706182064988E-3,
4.142290743012E-3));
#848=CARTESIAN_POINT('',(-1.506062046477E-2,8.023289800755E-3,
4.256256732915E-3));
#849=CARTESIAN_POINT('',(-1.535715007E-2,6.242956069893E-3,5.769757878008E-3));
#850=CARTESIAN_POINT('',(-1.537805424778E-2,6.599355923527E-3,
5.929306812484E-3));
#851=CARTESIAN_POINT('',(-1.534033100283E-2,6.959842317465E-3,
6.098092905429E-3));
#852=CARTESIAN_POINT('',(-1.524642783852E-2,7.301100851500E-3,
6.265409353455E-3));
#853=CARTESIAN_POINT('',(-1.560761991500E-2,5.275586825604E-3,
7.529597241799E-3));
#854=CARTESIAN_POINT('',(-1.564268854285E-2,5.666618685345E-3,
7.736373498041E-3));
#855=CARTESIAN_POINT('',(-1.560252851586E-2,6.063394543343E-3,
7.958037937114E-3));
#856=CARTESIAN_POINT('',(-1.549047621419E-2,6.433035517506E-3,
8.176427333402E-3));
#857=CARTESIAN_POINT('',(-1.591026706009E-2,4.225512244753E-3,
9.210854772593E-3));
#858=CARTESIAN_POINT('',(-1.596234976296E-2,4.654657044174E-3,
9.460455090272E-3));
#859=CARTESIAN_POINT('',(-1.591918060306E-2,5.091687251378E-3,
9.733546650920E-3));
#860=CARTESIAN_POINT('',(-1.578528086032E-2,5.490907868520E-3,
1.000177079421E-2));
#861=CARTESIAN_POINT('',(-1.639129612741E-2,2.709952724389E-3,
1.142774794733E-2));
#862=CARTESIAN_POINT('',(-1.646983742583E-2,3.194844731936E-3,
1.173154014770E-2));
#863=CARTESIAN_POINT('',(-1.642179501525E-2,3.691343114875E-3,
1.207391122840E-2));
#864=CARTESIAN_POINT('',(-1.625378035342E-2,4.131266109698E-3,
1.240826868132E-2));
#865=CARTESIAN_POINT('',(-1.683521029716E-2,1.490502843473E-3,
1.303736710599E-2));
#866=CARTESIAN_POINT('',(-1.693727267978E-2,2.020766968432E-3,
1.337745849842E-2));
#867=CARTESIAN_POINT('',(-1.688468820065E-2,2.566825470989E-3,
1.377235562782E-2));
#868=CARTESIAN_POINT('',(-1.668629892790E-2,3.036865585877E-3,
1.415591021673E-2));
#869=CARTESIAN_POINT('',(-1.717027372629E-2,6.620997037213E-4,
1.410853856238E-2));
#870=CARTESIAN_POINT('',(-1.728969606874E-2,1.223725751760E-3,
1.447128121764E-2));
#871=CARTESIAN_POINT('',(-1.723369163304E-2,1.804396926695E-3,
1.490255592872E-2));
#872=CARTESIAN_POINT('',(-1.701299671623E-2,2.292828746577E-3,
1.531970882574E-2));
#873=B_SPLINE_SURFACE_WITH_KNOTS('',3,3,((#809,#810,#811,#812),(#813,#814,#815,
#816),(#817,#818,#819,#820),(#821,#822,#823,#824),(#825,#826,#827,#828),(#829,
#830,#831,#832),(#833,#834,#835,#836),(#837,#838,#839,#840),(#841,#842,#843,
#844),(#845,#846,#847,#848),(#849,#850,#851,#852),(#853,#854,#855,#856),(#857,
#858,#859,#860),(#861,#862,#863,#864),(#865,#866,#867,#868),(#869,#870,#871,
#872)),.UNSPECIFIED.,.F.,.F.,.F.,(4,1,1,1,1,1,1,1,1,1,1,1,1,4),(4,4),(
-3.849116442688E-3,1.25E-1,2.5E-1,3.125E-1,3.75E-1,4.375E-1,5.E-1,5.625E-1,
6.25E-1,6.875E-1,7.5E-1,8.125E-1,8.75E-1,1.003632724636E0),(-1.513105143177E-2,
1.014826921414E0),.UNSPECIFIED.);
#874=ORIENTED_EDGE('',*,*,#793,.T.);
#875=ORIENTED_EDGE('',*,*,#775,.T.);
#876=ORIENTED_EDGE('',*,*,#546,.T.);
#878=ORIENTED_EDGE('',*,*,#877,.T.);
#879=EDGE_LOOP('',(#874,#875,#876,#878));
#880=FACE_OUTER_BOUND('',#879,.F.);
#882=FILL_AREA_STYLE_COLOUR('',#9);
#883=FILL_AREA_STYLE('',(#882));
#884=SURFACE_STYLE_FILL_AREA(#883);
#885=SURFACE_SIDE_STYLE('',(#884));
#886=SURFACE_STYLE_USAGE(.BOTH.,#885);
#887=PRESENTATION_STYLE_ASSIGNMENT((#886));
#888=OVER_RIDING_STYLED_ITEM('',(#887),#881,#22);
#889=CARTESIAN_POINT('',(-2.755905511811E-2,4.724409448819E-3,
-1.181102362205E-2));
#890=DIRECTION('',(-1.E0,0.E0,0.E0));
#891=DIRECTION('',(0.E0,0.E0,-1.E0));
#892=AXIS2_PLACEMENT_3D('',#889,#890,#891);
#893=CYLINDRICAL_SURFACE('',#892,3.937007874016E-3);
#894=ORIENTED_EDGE('',*,*,#795,.F.);
#895=ORIENTED_EDGE('',*,*,#877,.F.);
#896=ORIENTED_EDGE('',*,*,#544,.T.);
#897=ORIENTED_EDGE('',*,*,#577,.F.);
#899=ORIENTED_EDGE('',*,*,#898,.T.);
#901=ORIENTED_EDGE('',*,*,#900,.F.);
#902=EDGE_LOOP('',(#894,#895,#896,#897,#899,#901));
#903=FACE_OUTER_BOUND('',#902,.F.);
#905=FILL_AREA_STYLE_COLOUR('',#9);
#906=FILL_AREA_STYLE('',(#905));
#907=SURFACE_STYLE_FILL_AREA(#906);
#908=SURFACE_SIDE_STYLE('',(#907));
#909=SURFACE_STYLE_USAGE(.BOTH.,#908);
#910=PRESENTATION_STYLE_ASSIGNMENT((#909));
#911=OVER_RIDING_STYLED_ITEM('',(#910),#904,#22);
#912=CARTESIAN_POINT('',(-2.755905511811E-2,4.724409448819E-3,
-1.181102362205E-2));
#913=DIRECTION('',(1.E0,0.E0,0.E0));
#914=DIRECTION('',(0.E0,0.E0,-1.E0));
#915=AXIS2_PLACEMENT_3D('',#912,#913,#914);
#916=SPHERICAL_SURFACE('',#915,3.937007874016E-3);
#918=ORIENTED_EDGE('',*,*,#917,.F.);
#920=ORIENTED_EDGE('',*,*,#919,.F.);
#921=ORIENTED_EDGE('',*,*,#898,.F.);
#922=EDGE_LOOP('',(#918,#920,#921));
#923=FACE_OUTER_BOUND('',#922,.F.);
#925=FILL_AREA_STYLE_COLOUR('',#9);
#926=FILL_AREA_STYLE('',(#925));
#927=SURFACE_STYLE_FILL_AREA(#926);
#928=SURFACE_SIDE_STYLE('',(#927));
#929=SURFACE_STYLE_USAGE(.BOTH.,#928);
#930=PRESENTATION_STYLE_ASSIGNMENT((#929));
#931=OVER_RIDING_STYLED_ITEM('',(#930),#924,#22);
#932=CARTESIAN_POINT('',(-2.755905511811E-2,3.228346456693E-2,
-1.181102362205E-2));
#933=DIRECTION('',(0.E0,-1.E0,0.E0));
#934=DIRECTION('',(0.E0,0.E0,1.E0));
#935=AXIS2_PLACEMENT_3D('',#932,#933,#934);
#936=CYLINDRICAL_SURFACE('',#935,3.937007874016E-3);
#937=ORIENTED_EDGE('',*,*,#575,.F.);
#939=ORIENTED_EDGE('',*,*,#938,.T.);
#941=ORIENTED_EDGE('',*,*,#940,.F.);
#942=ORIENTED_EDGE('',*,*,#917,.T.);
#943=EDGE_LOOP('',(#937,#939,#941,#942));
#944=FACE_OUTER_BOUND('',#943,.F.);
#946=FILL_AREA_STYLE_COLOUR('',#9);
#947=FILL_AREA_STYLE('',(#946));
#948=SURFACE_STYLE_FILL_AREA(#947);
#949=SURFACE_SIDE_STYLE('',(#948));
#950=SURFACE_STYLE_USAGE(.BOTH.,#949);
#951=PRESENTATION_STYLE_ASSIGNMENT((#950));
#952=OVER_RIDING_STYLED_ITEM('',(#951),#945,#22);
#953=CARTESIAN_POINT('',(-2.755905511811E-2,2.834645669291E-2,
-1.181102362205E-2));
#954=DIRECTION('',(1.E0,0.E0,0.E0));
#955=DIRECTION('',(0.E0,0.E0,-1.E0));
#956=AXIS2_PLACEMENT_3D('',#953,#954,#955);
#957=SPHERICAL_SURFACE('',#956,3.937007874016E-3);
#958=ORIENTED_EDGE('',*,*,#599,.F.);
#960=ORIENTED_EDGE('',*,*,#959,.F.);
#961=ORIENTED_EDGE('',*,*,#938,.F.);
#962=EDGE_LOOP('',(#958,#960,#961));
#963=FACE_OUTER_BOUND('',#962,.F.);
#965=FILL_AREA_STYLE_COLOUR('',#9);
#966=FILL_AREA_STYLE('',(#965));
#967=SURFACE_STYLE_FILL_AREA(#966);
#968=SURFACE_SIDE_STYLE('',(#967));
#969=SURFACE_STYLE_USAGE(.BOTH.,#968);
#970=PRESENTATION_STYLE_ASSIGNMENT((#969));
#971=OVER_RIDING_STYLED_ITEM('',(#970),#964,#22);
#972=CARTESIAN_POINT('',(-2.755905511811E-2,2.834645669291E-2,
1.181102362205E-2));
#973=DIRECTION('',(0.E0,0.E0,-1.E0));
#974=DIRECTION('',(1.E0,0.E0,0.E0));
#975=AXIS2_PLACEMENT_3D('',#972,#973,#974);
#976=CYLINDRICAL_SURFACE('',#975,3.937007874016E-3);
#977=ORIENTED_EDGE('',*,*,#959,.T.);
#979=ORIENTED_EDGE('',*,*,#978,.F.);
#981=ORIENTED_EDGE('',*,*,#980,.T.);
#983=ORIENTED_EDGE('',*,*,#982,.F.);
#984=EDGE_LOOP('',(#977,#979,#981,#983));
#985=FACE_OUTER_BOUND('',#984,.F.);
#987=FILL_AREA_STYLE_COLOUR('',#9);
#988=FILL_AREA_STYLE('',(#987));
#989=SURFACE_STYLE_FILL_AREA(#988);
#990=SURFACE_SIDE_STYLE('',(#989));
#991=SURFACE_STYLE_USAGE(.BOTH.,#990);
#992=PRESENTATION_STYLE_ASSIGNMENT((#991));
#993=OVER_RIDING_STYLED_ITEM('',(#992),#986,#22);
#994=CARTESIAN_POINT('',(-2.755905511811E-2,3.228346456693E-2,
1.181102362205E-2));
#995=DIRECTION('',(0.E0,1.E0,0.E0));
#996=DIRECTION('',(0.E0,0.E0,-1.E0));
#997=AXIS2_PLACEMENT_3D('',#994,#995,#996);
#998=PLANE('',#997);
#999=ORIENTED_EDGE('',*,*,#729,.T.);
#1000=ORIENTED_EDGE('',*,*,#978,.T.);
#1001=ORIENTED_EDGE('',*,*,#597,.T.);
#1002=ORIENTED_EDGE('',*,*,#625,.F.);
#1003=EDGE_LOOP('',(#999,#1000,#1001,#1002));
#1004=FACE_OUTER_BOUND('',#1003,.F.);
#1006=FILL_AREA_STYLE_COLOUR('',#9);
#1007=FILL_AREA_STYLE('',(#1006));
#1008=SURFACE_STYLE_FILL_AREA(#1007);
#1009=SURFACE_SIDE_STYLE('',(#1008));
#1010=SURFACE_STYLE_USAGE(.BOTH.,#1009);
#1011=PRESENTATION_STYLE_ASSIGNMENT((#1010));
#1012=OVER_RIDING_STYLED_ITEM('',(#1011),#1005,#22);
#1013=CARTESIAN_POINT('',(-2.755905511811E-2,2.834645669291E-2,
1.181102362205E-2));
#1014=DIRECTION('',(1.E0,0.E0,0.E0));
#1015=DIRECTION('',(0.E0,0.E0,-1.E0));
#1016=AXIS2_PLACEMENT_3D('',#1013,#1014,#1015);
#1017=SPHERICAL_SURFACE('',#1016,3.937007874016E-3);
#1018=ORIENTED_EDGE('',*,*,#980,.F.);
#1019=ORIENTED_EDGE('',*,*,#727,.F.);
#1021=ORIENTED_EDGE('',*,*,#1020,.F.);
#1022=EDGE_LOOP('',(#1018,#1019,#1021));
#1023=FACE_OUTER_BOUND('',#1022,.F.);
#1025=FILL_AREA_STYLE_COLOUR('',#9);
#1026=FILL_AREA_STYLE('',(#1025));
#1027=SURFACE_STYLE_FILL_AREA(#1026);
#1028=SURFACE_SIDE_STYLE('',(#1027));
#1029=SURFACE_STYLE_USAGE(.BOTH.,#1028);
#1030=PRESENTATION_STYLE_ASSIGNMENT((#1029));
#1031=OVER_RIDING_STYLED_ITEM('',(#1030),#1024,#22);
#1032=CARTESIAN_POINT('',(-2.755905511811E-2,3.228346456693E-2,
1.181102362205E-2));
#1033=DIRECTION('',(0.E0,-1.E0,0.E0));
#1034=DIRECTION('',(0.E0,0.E0,1.E0));
#1035=AXIS2_PLACEMENT_3D('',#1032,#1033,#1034);
#1036=CYLINDRICAL_SURFACE('',#1035,3.937007874016E-3);
#1038=ORIENTED_EDGE('',*,*,#1037,.F.);
#1039=ORIENTED_EDGE('',*,*,#1020,.T.);
#1040=ORIENTED_EDGE('',*,*,#748,.F.);
#1042=ORIENTED_EDGE('',*,*,#1041,.T.);
#1043=EDGE_LOOP('',(#1038,#1039,#1040,#1042));
#1044=FACE_OUTER_BOUND('',#1043,.F.);
#1046=FILL_AREA_STYLE_COLOUR('',#9);
#1047=FILL_AREA_STYLE('',(#1046));
#1048=SURFACE_STYLE_FILL_AREA(#1047);
#1049=SURFACE_SIDE_STYLE('',(#1048));
#1050=SURFACE_STYLE_USAGE(.BOTH.,#1049);
#1051=PRESENTATION_STYLE_ASSIGNMENT((#1050));
#1052=OVER_RIDING_STYLED_ITEM('',(#1051),#1045,#22);
#1053=CARTESIAN_POINT('',(-3.149606299213E-2,3.228346456693E-2,
1.181102362205E-2));
#1054=DIRECTION('',(1.E0,0.E0,0.E0));
#1055=DIRECTION('',(0.E0,0.E0,1.E0));
#1056=AXIS2_PLACEMENT_3D('',#1053,#1054,#1055);
#1057=PLANE('',#1056);
#1058=ORIENTED_EDGE('',*,*,#940,.T.);
#1059=ORIENTED_EDGE('',*,*,#982,.T.);
#1060=ORIENTED_EDGE('',*,*,#1037,.T.);
#1062=ORIENTED_EDGE('',*,*,#1061,.T.);
#1063=EDGE_LOOP('',(#1058,#1059,#1060,#1062));
#1064=FACE_OUTER_BOUND('',#1063,.F.);
#1066=FILL_AREA_STYLE_COLOUR('',#9);
#1067=FILL_AREA_STYLE('',(#1066));
#1068=SURFACE_STYLE_FILL_AREA(#1067);
#1069=SURFACE_SIDE_STYLE('',(#1068));
#1070=SURFACE_STYLE_USAGE(.BOTH.,#1069);
#1071=PRESENTATION_STYLE_ASSIGNMENT((#1070));
#1072=OVER_RIDING_STYLED_ITEM('',(#1071),#1065,#22);
#1073=CARTESIAN_POINT('',(-2.755905511811E-2,4.724409448819E-3,
1.181102362205E-2));
#1074=DIRECTION('',(0.E0,0.E0,1.E0));
#1075=DIRECTION('',(-1.E0,0.E0,0.E0));
#1076=AXIS2_PLACEMENT_3D('',#1073,#1074,#1075);
#1077=CYLINDRICAL_SURFACE('',#1076,3.937007874016E-3);
#1078=ORIENTED_EDGE('',*,*,#919,.T.);
#1079=ORIENTED_EDGE('',*,*,#1061,.F.);
#1081=ORIENTED_EDGE('',*,*,#1080,.T.);
#1083=ORIENTED_EDGE('',*,*,#1082,.F.);
#1084=EDGE_LOOP('',(#1078,#1079,#1081,#1083));
#1085=FACE_OUTER_BOUND('',#1084,.F.);
#1087=FILL_AREA_STYLE_COLOUR('',#9);
#1088=FILL_AREA_STYLE('',(#1087));
#1089=SURFACE_STYLE_FILL_AREA(#1088);
#1090=SURFACE_SIDE_STYLE('',(#1089));
#1091=SURFACE_STYLE_USAGE(.BOTH.,#1090);
#1092=PRESENTATION_STYLE_ASSIGNMENT((#1091));
#1093=OVER_RIDING_STYLED_ITEM('',(#1092),#1086,#22);
#1094=CARTESIAN_POINT('',(-2.755905511811E-2,4.724409448819E-3,
1.181102362205E-2));
#1095=DIRECTION('',(1.E0,0.E0,0.E0));
#1096=DIRECTION('',(0.E0,0.E0,-1.E0));
#1097=AXIS2_PLACEMENT_3D('',#1094,#1095,#1096);
#1098=SPHERICAL_SURFACE('',#1097,3.937007874016E-3);
#1099=ORIENTED_EDGE('',*,*,#1041,.F.);
#1100=ORIENTED_EDGE('',*,*,#771,.F.);
#1101=ORIENTED_EDGE('',*,*,#1080,.F.);
#1102=EDGE_LOOP('',(#1099,#1100,#1101));
#1103=FACE_OUTER_BOUND('',#1102,.F.);
#1105=FILL_AREA_STYLE_COLOUR('',#9);
#1106=FILL_AREA_STYLE('',(#1105));
#1107=SURFACE_STYLE_FILL_AREA(#1106);
#1108=SURFACE_SIDE_STYLE('',(#1107));
#1109=SURFACE_STYLE_USAGE(.BOTH.,#1108);
#1110=PRESENTATION_STYLE_ASSIGNMENT((#1109));
#1111=OVER_RIDING_STYLED_ITEM('',(#1110),#1104,#22);
#1112=CARTESIAN_POINT('',(-2.755905511811E-2,7.874015748031E-4,
1.181102362205E-2));
#1113=DIRECTION('',(0.E0,1.E0,0.E0));
#1114=DIRECTION('',(0.E0,0.E0,-1.E0));
#1115=AXIS2_PLACEMENT_3D('',#1112,#1113,#1114);
#1116=PLANE('',#1115);
#1117=ORIENTED_EDGE('',*,*,#797,.F.);
#1118=ORIENTED_EDGE('',*,*,#900,.T.);
#1119=ORIENTED_EDGE('',*,*,#1082,.T.);
#1120=ORIENTED_EDGE('',*,*,#769,.T.);
#1121=EDGE_LOOP('',(#1117,#1118,#1119,#1120));
#1122=FACE_OUTER_BOUND('',#1121,.F.);
#1124=FILL_AREA_STYLE_COLOUR('',#9);
#1125=FILL_AREA_STYLE('',(#1124));
#1126=SURFACE_STYLE_FILL_AREA(#1125);
#1127=SURFACE_SIDE_STYLE('',(#1126));
#1128=SURFACE_STYLE_USAGE(.BOTH.,#1127);
#1129=PRESENTATION_STYLE_ASSIGNMENT((#1128));
#1130=OVER_RIDING_STYLED_ITEM('',(#1129),#1123,#22);
#1133=FILL_AREA_STYLE_COLOUR('',#1);
#1134=FILL_AREA_STYLE('',(#1133));
#1135=SURFACE_STYLE_FILL_AREA(#1134);
#1136=SURFACE_SIDE_STYLE('',(#1135));
#1137=SURFACE_STYLE_USAGE(.BOTH.,#1136);
#1138=PRESENTATION_STYLE_ASSIGNMENT((#1137));
#22=STYLED_ITEM('',(#1138),#1132);
#1140=LENGTH_MEASURE_WITH_UNIT(LENGTH_MEASURE(2.54E1),#1139);
#1141=(CONVERSION_BASED_UNIT('INCH',#1140)LENGTH_UNIT()NAMED_UNIT(*));
#1143=PLANE_ANGLE_MEASURE_WITH_UNIT(PLANE_ANGLE_MEASURE(1.745329251994E-2),
#1142);
#1144=(CONVERSION_BASED_UNIT('DEGREE',#1143)NAMED_UNIT(*)PLANE_ANGLE_UNIT());
#1146=UNCERTAINTY_MEASURE_WITH_UNIT(LENGTH_MEASURE(4.784878110534E-6),#1141,
'closure',
'Maximum model space distance between geometric entities at asserted connectivities');
#1148=CARTESIAN_POINT('',(0.E0,0.E0,0.E0));
#1149=DIRECTION('',(0.E0,0.E0,1.E0));
#1150=DIRECTION('',(1.E0,0.E0,0.E0));
#1153=MECHANICAL_DESIGN_GEOMETRIC_PRESENTATION_REPRESENTATION('',(#34,#54,#65,
#76,#96,#107,#115,#125,#132,#139,#150,#180,#190,#201,#208,#215,#223,#233,#240,
#247,#258,#288,#298,#309,#316,#323,#331,#339,#347,#354,#361,#369,#377,#385,#392,
#399,#407,#415,#423,#431,#438,#445,#452,#459,#467,#475,#483,#491,#567,#589,#614,
#636,#716,#740,#761,#786,#808,#888,#911,#931,#952,#971,#993,#1012,#1031,#1052,
#1072,#1093,#1111,#1130,#22),#1147);
#1154=APPLICATION_CONTEXT('automotive design');
#1155=APPLICATION_PROTOCOL_DEFINITION('international standard',
'config_control_design',1994,#1154);
#1156=PRODUCT_DEFINITION_CONTEXT('',#1154,'design');
#1157=PRODUCT_CONTEXT('',#1154,'mechanical');
#1158=PRODUCT('BODY2-4183','BODY2-4183','NOT SPECIFIED',(#1157));
#1159=PRODUCT_DEFINITION_FORMATION_WITH_SPECIFIED_SOURCE('1','LAST_VERSION',
#1158,.MADE.);
#1167=LENGTH_MEASURE_WITH_UNIT(LENGTH_MEASURE(2.54E1),#1166);
#1168=(CONVERSION_BASED_UNIT('INCH',#1167)LENGTH_UNIT()NAMED_UNIT(*));
#1169=DERIVED_UNIT_ELEMENT(#1168,2.E0);
#1170=AREA_UNIT((#1169));
#1171=MEASURE_REPRESENTATION_ITEM('surface area measure',AREA_MEASURE(
2.372644694085E0),#1170);
#1176=LENGTH_MEASURE_WITH_UNIT(LENGTH_MEASURE(2.54E1),#1175);
#1177=(CONVERSION_BASED_UNIT('INCH',#1176)LENGTH_UNIT()NAMED_UNIT(*));
#1178=DERIVED_UNIT_ELEMENT(#1177,3.E0);
#1179=VOLUME_UNIT((#1178));
#1180=MEASURE_REPRESENTATION_ITEM('volume measure',VOLUME_MEASURE(
2.599261567266E-1),#1179);
#1184=CARTESIAN_POINT('centre point',(-5.843806338939E-1,4.200000000106E-1,
5.766525122949E-10));
#1189=LENGTH_MEASURE_WITH_UNIT(LENGTH_MEASURE(2.54E1),#1188);
#1190=(CONVERSION_BASED_UNIT('INCH',#1189)LENGTH_UNIT()NAMED_UNIT(*));
#1191=DERIVED_UNIT_ELEMENT(#1190,2.E0);
#1192=AREA_UNIT((#1191));
#1193=MEASURE_REPRESENTATION_ITEM('surface area measure',AREA_MEASURE(
2.372644694085E0),#1192);
#1198=LENGTH_MEASURE_WITH_UNIT(LENGTH_MEASURE(2.54E1),#1197);
#1199=(CONVERSION_BASED_UNIT('INCH',#1198)LENGTH_UNIT()NAMED_UNIT(*));
#1200=DERIVED_UNIT_ELEMENT(#1199,3.E0);
#1201=VOLUME_UNIT((#1200));
#1202=MEASURE_REPRESENTATION_ITEM('volume measure',VOLUME_MEASURE(
2.599261567266E-1),#1201);
#1206=CARTESIAN_POINT('centre point',(-5.843806338939E-1,4.200000000106E-1,
5.766525122949E-10));
#1=DRAUGHTING_PRE_DEFINED_COLOUR('white');
#2=DRAUGHTING_PRE_DEFINED_COLOUR('green');
#3=COLOUR_RGB('',1.1E-2,1.2E-2,1.E0);
#4=COLOUR_RGB('',1.921568627451E-1,1.921568627451E-1,1.921568627451E-1);
#5=COLOUR_RGB('',2.352941176471E-1,2.352941176471E-1,2.352941176471E-1);
#6=COLOUR_RGB('',3.137254901961E-1,3.137254901961E-1,3.137254901961E-1);
#7=COLOUR_RGB('',4.1E-1,2.61589E-1,1.12848E-1);
#8=COLOUR_RGB('',5.04854E-1,1.5455E-2,1.5455E-2);
#9=COLOUR_RGB('',6.E-1,6.E-1,6.E-1);
#10=COLOUR_RGB('',6.274509803922E-1,6.274509803922E-1,6.274509803922E-1);
#11=COLOUR_RGB('',6.35294E-1,6.86275E-1,7.4902E-1);
#12=COLOUR_RGB('',6.40777E-1,6.40777E-1,6.40777E-1);
#13=COLOUR_RGB('',6.69062E-1,6.69903E-1,6.55217E-1);
#14=COLOUR_RGB('',8.313725490196E-1,0.E0,0.E0);
#15=COLOUR_RGB('',8.666666666667E-1,8.666666666667E-1,8.666666666667E-1);
#16=COLOUR_RGB('',9.21569E-1,7.05882E-1,4.70588E-1);
#17=DRAUGHTING_PRE_DEFINED_COLOUR('red');
#18=DRAUGHTING_PRE_DEFINED_COLOUR('yellow');
#19=COLOUR_RGB('',1.E0,1.E0,5.3E-1);
#20=COLOUR_RGB('',1.E0,1.E0,9.49E-1);
#21=DRAUGHTING_PRE_DEFINED_COLOUR('white');
#30=B_SPLINE_CURVE_WITH_KNOTS('',3,(#23,#24,#25,#26,#27,#28,#29),.UNSPECIFIED.,
.F.,.F.,(4,1,1,1,4),(0.E0,2.5E-1,5.E-1,7.5E-1,1.E0),.UNSPECIFIED.);
#51=B_SPLINE_CURVE_WITH_KNOTS('',3,(#35,#36,#37,#38,#39,#40,#41,#42,#43,#44,#45,
#46,#47,#48,#49,#50),.UNSPECIFIED.,.F.,.F.,(4,1,1,1,1,1,1,1,1,1,1,1,1,4),(0.E0,
1.199572208168E-1,1.832784891530E-1,2.465997574892E-1,3.099210258253E-1,
3.732422941615E-1,4.365635624976E-1,4.998848308338E-1,5.632060991700E-1,
6.265273675061E-1,6.898486358423E-1,7.531699041785E-1,8.798124408508E-1,1.E0),
.UNSPECIFIED.);
#62=B_SPLINE_CURVE_WITH_KNOTS('',3,(#55,#56,#57,#58,#59,#60,#61),.UNSPECIFIED.,
.F.,.F.,(4,1,1,1,4),(0.E0,2.5E-1,5.E-1,7.5E-1,1.E0),.UNSPECIFIED.);
#73=B_SPLINE_CURVE_WITH_KNOTS('',3,(#66,#67,#68,#69,#70,#71,#72),.UNSPECIFIED.,
.F.,.F.,(4,1,1,1,4),(0.E0,2.5E-1,5.E-1,7.5E-1,1.E0),.UNSPECIFIED.);
#93=B_SPLINE_CURVE_WITH_KNOTS('',3,(#77,#78,#79,#80,#81,#82,#83,#84,#85,#86,#87,
#88,#89,#90,#91,#92),.UNSPECIFIED.,.F.,.F.,(4,1,1,1,1,1,1,1,1,1,1,1,1,4),(0.E0,
1.199572208170E-1,1.832784891532E-1,2.465997574893E-1,3.099210258255E-1,
3.732422941617E-1,4.365635624978E-1,4.998848308340E-1,5.632060991701E-1,
6.265273675063E-1,6.898486358424E-1,7.531699041786E-1,8.798124408509E-1,1.E0),
.UNSPECIFIED.);
#104=B_SPLINE_CURVE_WITH_KNOTS('',3,(#97,#98,#99,#100,#101,#102,#103),
.UNSPECIFIED.,.F.,.F.,(4,1,1,1,4),(0.E0,2.5E-1,5.E-1,7.5E-1,1.E0),
.UNSPECIFIED.);
#112=CIRCLE('',#111,3.543307086614E-2);
#122=B_SPLINE_CURVE_WITH_KNOTS('',3,(#116,#117,#118,#119,#120,#121),
.UNSPECIFIED.,.F.,.F.,(4,1,1,4),(0.E0,3.333333333333E-1,6.666666666667E-1,1.E0),
.UNSPECIFIED.);
#147=B_SPLINE_CURVE_WITH_KNOTS('',3,(#140,#141,#142,#143,#144,#145,#146),
.UNSPECIFIED.,.F.,.F.,(4,1,1,1,4),(0.E0,2.5E-1,5.E-1,7.5E-1,1.E0),
.UNSPECIFIED.);
#177=B_SPLINE_CURVE_WITH_KNOTS('',3,(#151,#152,#153,#154,#155,#156,#157,#158,
#159,#160,#161,#162,#163,#164,#165,#166,#167,#168,#169,#170,#171,#172,#173,#174,
#175,#176),.UNSPECIFIED.,.F.,.F.,(4,1,1,1,1,1,1,1,1,1,1,1,1,1,1,1,1,1,1,1,1,1,1,
4),(0.E0,4.347826086957E-2,8.695652173913E-2,1.304347826087E-1,
1.739130434783E-1,2.173913043478E-1,2.608695652174E-1,3.043478260870E-1,
3.478260869565E-1,3.913043478261E-1,4.347826086957E-1,4.782608695652E-1,
5.217391304348E-1,5.652173913043E-1,6.086956521739E-1,6.521739130435E-1,
6.956521739130E-1,7.391304347826E-1,7.826086956522E-1,8.260869565217E-1,
8.695652173913E-1,9.130434782609E-1,9.565217391304E-1,1.E0),.UNSPECIFIED.);
#187=B_SPLINE_CURVE_WITH_KNOTS('',3,(#181,#182,#183,#184,#185,#186),
.UNSPECIFIED.,.F.,.F.,(4,1,1,4),(0.E0,3.333333333333E-1,6.666666666667E-1,1.E0),
.UNSPECIFIED.);
#198=B_SPLINE_CURVE_WITH_KNOTS('',3,(#191,#192,#193,#194,#195,#196,#197),
.UNSPECIFIED.,.F.,.F.,(4,1,1,1,4),(0.E0,2.5E-1,5.E-1,7.5E-1,1.E0),
.UNSPECIFIED.);
#220=CIRCLE('',#219,3.543307086614E-2);
#230=B_SPLINE_CURVE_WITH_KNOTS('',3,(#224,#225,#226,#227,#228,#229),
.UNSPECIFIED.,.F.,.F.,(4,1,1,4),(0.E0,3.333333333333E-1,6.666666666667E-1,1.E0),
.UNSPECIFIED.);
#255=B_SPLINE_CURVE_WITH_KNOTS('',3,(#248,#249,#250,#251,#252,#253,#254),
.UNSPECIFIED.,.F.,.F.,(4,1,1,1,4),(0.E0,2.5E-1,5.E-1,7.5E-1,1.E0),
.UNSPECIFIED.);
#285=B_SPLINE_CURVE_WITH_KNOTS('',3,(#259,#260,#261,#262,#263,#264,#265,#266,
#267,#268,#269,#270,#271,#272,#273,#274,#275,#276,#277,#278,#279,#280,#281,#282,
#283,#284),.UNSPECIFIED.,.F.,.F.,(4,1,1,1,1,1,1,1,1,1,1,1,1,1,1,1,1,1,1,1,1,1,1,
4),(0.E0,4.347826086957E-2,8.695652173913E-2,1.304347826087E-1,
1.739130434783E-1,2.173913043478E-1,2.608695652174E-1,3.043478260870E-1,
3.478260869565E-1,3.913043478261E-1,4.347826086957E-1,4.782608695652E-1,
5.217391304348E-1,5.652173913043E-1,6.086956521739E-1,6.521739130435E-1,
6.956521739130E-1,7.391304347826E-1,7.826086956522E-1,8.260869565217E-1,
8.695652173913E-1,9.130434782609E-1,9.565217391304E-1,1.E0),.UNSPECIFIED.);
#295=B_SPLINE_CURVE_WITH_KNOTS('',3,(#289,#290,#291,#292,#293,#294),
.UNSPECIFIED.,.F.,.F.,(4,1,1,4),(0.E0,3.333333333333E-1,6.666666666667E-1,1.E0),
.UNSPECIFIED.);
#306=B_SPLINE_CURVE_WITH_KNOTS('',3,(#299,#300,#301,#302,#303,#304,#305),
.UNSPECIFIED.,.F.,.F.,(4,1,1,1,4),(0.E0,2.5E-1,5.E-1,7.5E-1,1.E0),
.UNSPECIFIED.);
#328=CIRCLE('',#327,3.937007874016E-3);
#336=CIRCLE('',#335,3.937007874016E-3);
#344=CIRCLE('',#343,3.937007874016E-3);
#366=CIRCLE('',#365,3.937007874016E-3);
#374=CIRCLE('',#373,3.937007874016E-3);
#382=CIRCLE('',#381,3.937007874016E-3);
#404=CIRCLE('',#403,4.724409448819E-2);
#412=CIRCLE('',#411,3.937007874016E-3);
#420=CIRCLE('',#419,3.937007874016E-3);
#428=CIRCLE('',#427,3.937007874016E-3);
#464=CIRCLE('',#463,3.937007874016E-3);
#472=CIRCLE('',#471,3.937007874016E-3);
#480=CIRCLE('',#479,3.937007874016E-3);
#488=CIRCLE('',#487,4.724409448819E-2);
#542=EDGE_CURVE('',#494,#495,#112,.T.);
#544=EDGE_CURVE('',#502,#495,#30,.T.);
#546=EDGE_CURVE('',#501,#502,#51,.T.);
#548=EDGE_CURVE('',#500,#501,#62,.T.);
#550=EDGE_CURVE('',#500,#498,#220,.T.);
#552=EDGE_CURVE('',#497,#498,#73,.T.);
#554=EDGE_CURVE('',#496,#497,#93,.T.);
#556=EDGE_CURVE('',#494,#496,#104,.T.);
#560=ADVANCED_FACE('',(#559),#541,.T.);
#573=EDGE_CURVE('',#494,#522,#136,.T.);
#575=EDGE_CURVE('',#522,#516,#351,.T.);
#577=EDGE_CURVE('',#516,#495,#313,.T.);
#582=ADVANCED_FACE('',(#581),#572,.F.);
#595=EDGE_CURVE('',#505,#504,#122,.T.);
#597=EDGE_CURVE('',#524,#505,#129,.T.);
#599=EDGE_CURVE('',#524,#522,#366,.T.);
#603=EDGE_CURVE('',#504,#496,#147,.T.);
#607=ADVANCED_FACE('',(#606),#594,.T.);
#621=EDGE_CURVE('',#503,#504,#177,.T.);
#623=EDGE_CURVE('',#503,#507,#187,.T.);
#625=EDGE_CURVE('',#507,#505,#404,.T.);
#629=ADVANCED_FACE('',(#628),#619,.T.);
#705=EDGE_CURVE('',#497,#503,#198,.T.);
#709=ADVANCED_FACE('',(#708),#701,.F.);
#725=EDGE_CURVE('',#530,#498,#205,.T.);
#727=EDGE_CURVE('',#530,#528,#420,.T.);
#729=EDGE_CURVE('',#507,#528,#212,.T.);
#733=ADVANCED_FACE('',(#732),#721,.T.);
#746=EDGE_CURVE('',#500,#518,#244,.T.);
#748=EDGE_CURVE('',#518,#530,#442,.T.);
#754=ADVANCED_FACE('',(#753),#745,.F.);
#767=EDGE_CURVE('',#510,#509,#230,.T.);
#769=EDGE_CURVE('',#520,#510,#237,.T.);
#771=EDGE_CURVE('',#520,#518,#472,.T.);
#775=EDGE_CURVE('',#509,#501,#255,.T.);
#779=ADVANCED_FACE('',(#778),#766,.T.);
#793=EDGE_CURVE('',#508,#509,#285,.T.);
#795=EDGE_CURVE('',#508,#512,#295,.T.);
#797=EDGE_CURVE('',#512,#510,#488,.T.);
#801=ADVANCED_FACE('',(#800),#791,.T.);
#877=EDGE_CURVE('',#502,#508,#306,.T.);
#881=ADVANCED_FACE('',(#880),#873,.F.);
#898=EDGE_CURVE('',#516,#514,#344,.T.);
#900=EDGE_CURVE('',#512,#514,#320,.T.);
#904=ADVANCED_FACE('',(#903),#893,.T.);
#917=EDGE_CURVE('',#536,#516,#328,.T.);
#919=EDGE_CURVE('',#514,#536,#336,.T.);
#924=ADVANCED_FACE('',(#923),#916,.T.);
#938=EDGE_CURVE('',#522,#526,#382,.T.);
#940=EDGE_CURVE('',#536,#526,#358,.T.);
#945=ADVANCED_FACE('',(#944),#936,.T.);
#959=EDGE_CURVE('',#526,#524,#374,.T.);
#964=ADVANCED_FACE('',(#963),#957,.T.);
#978=EDGE_CURVE('',#528,#524,#389,.T.);
#980=EDGE_CURVE('',#528,#532,#412,.T.);
#982=EDGE_CURVE('',#526,#532,#396,.T.);
#986=ADVANCED_FACE('',(#985),#976,.T.);
#1005=ADVANCED_FACE('',(#1004),#998,.T.);
#1020=EDGE_CURVE('',#532,#530,#428,.T.);
#1024=ADVANCED_FACE('',(#1023),#1017,.T.);
#1037=EDGE_CURVE('',#532,#534,#435,.T.);
#1041=EDGE_CURVE('',#518,#534,#464,.T.);
#1045=ADVANCED_FACE('',(#1044),#1036,.T.);
#1061=EDGE_CURVE('',#534,#536,#449,.T.);
#1065=ADVANCED_FACE('',(#1064),#1057,.F.);
#1080=EDGE_CURVE('',#534,#520,#480,.T.);
#1082=EDGE_CURVE('',#514,#520,#456,.T.);
#1086=ADVANCED_FACE('',(#1085),#1077,.T.);
#1104=ADVANCED_FACE('',(#1103),#1098,.T.);
#1123=ADVANCED_FACE('',(#1122),#1116,.F.);
#1131=CLOSED_SHELL('',(#560,#582,#607,#629,#709,#733,#754,#779,#801,#881,#904,
#924,#945,#964,#986,#1005,#1024,#1045,#1065,#1086,#1104,#1123));
#1132=MANIFOLD_SOLID_BREP('',#1131);
#1139=(LENGTH_UNIT()NAMED_UNIT(*)SI_UNIT(.MILLI.,.METRE.));
#1142=(NAMED_UNIT(*)PLANE_ANGLE_UNIT()SI_UNIT($,.RADIAN.));
#1145=(NAMED_UNIT(*)SI_UNIT($,.STERADIAN.)SOLID_ANGLE_UNIT());
#1147=(GEOMETRIC_REPRESENTATION_CONTEXT(3)GLOBAL_UNCERTAINTY_ASSIGNED_CONTEXT((
#1146))GLOBAL_UNIT_ASSIGNED_CONTEXT((#1141,#1144,#1145))REPRESENTATION_CONTEXT(
'ID1','3'));
#1151=AXIS2_PLACEMENT_3D('',#1148,#1149,#1150);
#1152=ADVANCED_BREP_SHAPE_REPRESENTATION('',(#1151,#1132),#1147);
#1160=PRODUCT_DEFINITION('design','',#1159,#1156);
#1161=PRODUCT_DEFINITION_SHAPE('','SHAPE FOR BODY2-4183.',#1160);
#1162=SHAPE_ASPECT('','solid data associated with BODY2-4183',#1161,.F.);
#1163=PROPERTY_DEFINITION('',
'shape for solid data with which properties are associated',#1162);
#1164=SHAPE_REPRESENTATION('',(#1132),#1147);
#1165=SHAPE_DEFINITION_REPRESENTATION(#1163,#1164);
#1166=(LENGTH_UNIT()NAMED_UNIT(*)SI_UNIT(.MILLI.,.METRE.));
#1172=PROPERTY_DEFINITION('geometric validation property','area of BODY2-4183',
#1162);
#1173=REPRESENTATION('surface area',(#1171),#1147);
#1174=PROPERTY_DEFINITION_REPRESENTATION(#1172,#1173);
#1175=(LENGTH_UNIT()NAMED_UNIT(*)SI_UNIT(.MILLI.,.METRE.));
#1181=PROPERTY_DEFINITION('geometric validation property',
'volume of BODY2-4183',#1162);
#1182=REPRESENTATION('volume',(#1180),#1147);
#1183=PROPERTY_DEFINITION_REPRESENTATION(#1181,#1182);
#1185=PROPERTY_DEFINITION('geometric validation property',
'centroid of BODY2-4183',#1162);
#1186=REPRESENTATION('centroid',(#1184),#1147);
#1187=PROPERTY_DEFINITION_REPRESENTATION(#1185,#1186);
#1188=(LENGTH_UNIT()NAMED_UNIT(*)SI_UNIT(.MILLI.,.METRE.));
#1194=PROPERTY_DEFINITION('geometric validation property','area of BODY2-4183',
#1161);
#1195=REPRESENTATION('surface area',(#1193),#1147);
#1196=PROPERTY_DEFINITION_REPRESENTATION(#1194,#1195);
#1197=(LENGTH_UNIT()NAMED_UNIT(*)SI_UNIT(.MILLI.,.METRE.));
#1203=PROPERTY_DEFINITION('geometric validation property',
'volume of BODY2-4183',#1161);
#1204=REPRESENTATION('volume',(#1202),#1147);
#1205=PROPERTY_DEFINITION_REPRESENTATION(#1203,#1204);
#1207=PROPERTY_DEFINITION('geometric validation property',
'centroid of BODY2-4183',#1161);
#1208=REPRESENTATION('centroid',(#1206),#1147);
#1209=PROPERTY_DEFINITION_REPRESENTATION(#1207,#1208);
#1210=SHAPE_DEFINITION_REPRESENTATION(#1161,#1152);
ENDSEC;
END-ISO-10303-21;
