ISO-10303-21;
HEADER;
FILE_DESCRIPTION((''),'2;1');
FILE_NAME('BODY-MOVE_COPY1100','2026-06-15T13:46:11',('Esia'),(''),
'CREO PARAMETRIC BY PTC INC, 2025102','CREO PARAMETRIC BY PTC INC, 2025102','');
FILE_SCHEMA((
'AP242_MANAGED_MODEL_BASED_3D_ENGINEERING_MIM_LF { 1 0 10303 442 1 1 4 }'));
ENDSEC;
DATA;
#17=DIRECTION('',(8.294475794375E-4,1.393074065274E-1,9.902488366584E-1));
#18=VECTOR('',#17,1.202333651639E-1);
#19=CARTESIAN_POINT('',(-2.489933000767E-1,6.498781462472E-2,
3.907902327769E-1));
#20=LINE('',#19,#18);
#21=DRAUGHTING_PRE_DEFINED_CURVE_FONT('continuous');
#22=CURVE_STYLE('',#21,POSITIVE_LENGTH_MEASURE(2.E-2),#9);
#23=PRESENTATION_STYLE_ASSIGNMENT((#22));
#24=STYLED_ITEM('',(#23),#20);
#25=DIRECTION('',(1.215266933436E-6,-9.999989474937E-1,1.450865247007E-3));
#26=VECTOR('',#25,5.400280248944E-2);
#27=CARTESIAN_POINT('',(-2.489933657045E-1,1.189905602759E-1,
3.907118819875E-1));
#28=LINE('',#27,#26);
#29=CURVE_STYLE('',#21,POSITIVE_LENGTH_MEASURE(2.E-2),#9);
#30=PRESENTATION_STYLE_ASSIGNMENT((#29));
#31=STYLED_ITEM('',(#30),#28);
#32=DIRECTION('',(-1.028889183746E-6,-9.999992455708E-1,-1.228355283816E-3));
#33=VECTOR('',#32,5.224359616617E-2);
#34=CARTESIAN_POINT('',(-2.489933119517E-1,1.712341170279E-1,
3.907760556849E-1));
#35=LINE('',#34,#33);
#36=CURVE_STYLE('',#21,POSITIVE_LENGTH_MEASURE(2.E-2),#9);
#37=PRESENTATION_STYLE_ASSIGNMENT((#36));
#38=STYLED_ITEM('',(#37),#35);
#39=DIRECTION('',(-8.294480883916E-4,1.393030872515E-1,-9.902494442806E-1));
#40=VECTOR('',#39,1.202476080757E-1);
#41=CARTESIAN_POINT('',(-2.488935728030E-1,1.544832539884E-1,
5.098511827579E-1));
#42=LINE('',#41,#40);
#43=CURVE_STYLE('',#21,POSITIVE_LENGTH_MEASURE(2.E-2),#9);
#44=PRESENTATION_STYLE_ASSIGNMENT((#43));
#45=STYLED_ITEM('',(#44),#42);
#46=DIRECTION('',(4.363428195104E-2,1.391747740106E-1,9.893060354196E-1));
#47=VECTOR('',#46,1.201136859142E-1);
#48=CARTESIAN_POINT('',(-2.488782304776E-1,6.498781462472E-2,
3.907902327769E-1));
#49=LINE('',#48,#47);
#50=CURVE_STYLE('',#21,POSITIVE_LENGTH_MEASURE(2.E-2),#9);
#51=PRESENTATION_STYLE_ASSIGNMENT((#50));
#52=STYLED_ITEM('',(#51),#49);
#53=CARTESIAN_POINT('',(-2.432818984116E-1,8.191271793678E-2,
5.110987377811E-1));
#54=CARTESIAN_POINT('',(-2.431990604415E-1,8.194367637955E-2,
5.112821276471E-1));
#55=CARTESIAN_POINT('',(-2.430074101329E-1,8.200344187081E-2,
5.116344114288E-1));
#56=CARTESIAN_POINT('',(-2.426519087386E-1,8.208609222277E-2,
5.121097395521E-1));
#57=CARTESIAN_POINT('',(-2.422321155521E-1,8.216163544839E-2,
5.125281071889E-1));
#58=CARTESIAN_POINT('',(-2.419201001962E-1,8.220536099417E-2,
5.127590524392E-1));
#59=CARTESIAN_POINT('',(-2.417570333163E-1,8.222535144390E-2,
5.128622406935E-1));
#61=CURVE_STYLE('',#21,POSITIVE_LENGTH_MEASURE(2.E-2),#9);
#62=PRESENTATION_STYLE_ASSIGNMENT((#61));
#63=STYLED_ITEM('',(#62),#60);
#64=DIRECTION('',(-2.449165734641E-12,-1.E0,-1.656754461898E-12));
#65=VECTOR('',#64,7.176976955362E-2);
#66=CARTESIAN_POINT('',(-2.417570333162E-1,1.539951209975E-1,
5.128622406936E-1));
#67=LINE('',#66,#65);
#68=CURVE_STYLE('',#21,POSITIVE_LENGTH_MEASURE(2.E-2),#9);
#69=PRESENTATION_STYLE_ASSIGNMENT((#68));
#70=STYLED_ITEM('',(#69),#67);
#71=CARTESIAN_POINT('',(-2.417570333162E-1,1.539951209975E-1,
5.128622406936E-1));
#72=CARTESIAN_POINT('',(-2.419201599399E-1,1.540151187713E-1,
5.127590146336E-1));
#73=CARTESIAN_POINT('',(-2.422320692170E-1,1.540588700415E-1,
5.125278858117E-1));
#74=CARTESIAN_POINT('',(-2.426487472459E-1,1.541337397364E-1,
5.121133551852E-1));
#75=CARTESIAN_POINT('',(-2.430073328314E-1,1.542169545178E-1,
5.116348862045E-1));
#76=CARTESIAN_POINT('',(-2.431989817219E-1,1.542767666426E-1,
5.112823019195E-1));
#77=CARTESIAN_POINT('',(-2.432818984116E-1,1.543077545047E-1,
5.110987377810E-1));
#79=CURVE_STYLE('',#21,POSITIVE_LENGTH_MEASURE(2.E-2),#9);
#80=PRESENTATION_STYLE_ASSIGNMENT((#79));
#81=STYLED_ITEM('',(#80),#78);
#82=CARTESIAN_POINT('',(-2.432818984116E-1,1.543077545047E-1,
5.110987377810E-1));
#83=CARTESIAN_POINT('',(-2.433534215314E-1,1.543300290306E-1,
5.109403971631E-1));
#84=CARTESIAN_POINT('',(-2.434745163756E-1,1.543751878892E-1,
5.106193810569E-1));
#85=CARTESIAN_POINT('',(-2.435935605035E-1,1.544452202936E-1,
5.101215489493E-1));
#86=CARTESIAN_POINT('',(-2.436297333410E-1,1.544921942050E-1,
5.097876303652E-1));
#87=CARTESIAN_POINT('',(-2.436371560403E-1,1.545158561439E-1,
5.096194271883E-1));
#89=CURVE_STYLE('',#21,POSITIVE_LENGTH_MEASURE(2.E-2),#9);
#90=PRESENTATION_STYLE_ASSIGNMENT((#89));
#91=STYLED_ITEM('',(#90),#88);
#92=DIRECTION('',(0.E0,1.E0,1.082605210282E-13));
#93=VECTOR('',#92,7.281124642645E-2);
#94=CARTESIAN_POINT('',(-2.436371560403E-1,8.170460971741E-2,
5.096194271883E-1));
#95=LINE('',#94,#93);
#96=CURVE_STYLE('',#21,POSITIVE_LENGTH_MEASURE(2.E-2),#9);
#97=PRESENTATION_STYLE_ASSIGNMENT((#96));
#98=STYLED_ITEM('',(#97),#95);
#99=CARTESIAN_POINT('',(-2.436371560403E-1,8.170460971741E-2,
5.096194271883E-1));
#100=CARTESIAN_POINT('',(-2.436297333405E-1,8.172827240611E-2,
5.097876303768E-1));
#101=CARTESIAN_POINT('',(-2.435935604992E-1,8.177524780495E-2,
5.101215489760E-1));
#102=CARTESIAN_POINT('',(-2.434745163689E-1,8.184528242281E-2,
5.106193810769E-1));
#103=CARTESIAN_POINT('',(-2.433534215277E-1,8.189044270769E-2,
5.109403971714E-1));
#104=CARTESIAN_POINT('',(-2.432818984116E-1,8.191271793678E-2,
5.110987377811E-1));
#106=CURVE_STYLE('',#21,POSITIVE_LENGTH_MEASURE(2.E-2),#9);
#107=PRESENTATION_STYLE_ASSIGNMENT((#106));
#108=STYLED_ITEM('',(#107),#105);
#109=DIRECTION('',(-1.E0,1.209054259220E-11,4.493306782432E-11));
#110=VECTOR('',#109,9.389181949628E-3);
#111=CARTESIAN_POINT('',(-2.394943574694E-1,8.256167423627E-2,
5.142838589499E-1));
#112=LINE('',#111,#110);
#113=CURVE_STYLE('',#21,POSITIVE_LENGTH_MEASURE(2.E-2),#9);
#114=PRESENTATION_STYLE_ASSIGNMENT((#113));
#115=STYLED_ITEM('',(#114),#112);
#116=CARTESIAN_POINT('',(-2.417570333163E-1,8.222535144390E-2,
5.128622406935E-1));
#117=CARTESIAN_POINT('',(-2.413790343903E-1,8.227136052043E-2,
5.130997339142E-1));
#118=CARTESIAN_POINT('',(-2.406237223436E-1,8.236885207564E-2,
5.135742894703E-1));
#119=CARTESIAN_POINT('',(-2.398693767957E-1,8.248562576973E-2,
5.140482377842E-1));
#120=CARTESIAN_POINT('',(-2.394943574694E-1,8.256167423627E-2,
5.142838589499E-1));
#122=CURVE_STYLE('',#21,POSITIVE_LENGTH_MEASURE(2.E-2),#9);
#123=PRESENTATION_STYLE_ASSIGNMENT((#122));
#124=STYLED_ITEM('',(#123),#121);
#125=DIRECTION('',(1.E0,1.507567311325E-12,8.951335628493E-12));
#126=VECTOR('',#125,5.606099781727E-3);
#127=CARTESIAN_POINT('',(-2.488879981933E-1,8.191271793677E-2,
5.110987377810E-1));
#128=LINE('',#127,#126);
#129=CURVE_STYLE('',#21,POSITIVE_LENGTH_MEASURE(2.E-2),#9);
#130=PRESENTATION_STYLE_ASSIGNMENT((#129));
#131=STYLED_ITEM('',(#130),#128);
#132=CARTESIAN_POINT('',(-2.488835394190E-1,8.256167423639E-2,
5.142838589503E-1));
#133=CARTESIAN_POINT('',(-2.488851763676E-1,8.279227578035E-2,
5.151411825603E-1));
#134=CARTESIAN_POINT('',(-2.488887884843E-1,8.302287618823E-2,
5.159985019465E-1));
#135=CARTESIAN_POINT('',(-2.488924012169E-1,8.325347621486E-2,
5.168558199153E-1));
#137=CURVE_STYLE('',#21,POSITIVE_LENGTH_MEASURE(2.E-2),#9);
#138=PRESENTATION_STYLE_ASSIGNMENT((#137));
#139=STYLED_ITEM('',(#138),#136);
#140=CARTESIAN_POINT('',(-2.488879981933E-1,8.191271793677E-2,
5.110987377810E-1));
#141=CARTESIAN_POINT('',(-2.488869273874E-1,8.195704502135E-2,
5.113613200485E-1));
#142=CARTESIAN_POINT('',(-2.488850655461E-1,8.204294529893E-2,
5.118666411333E-1));
#143=CARTESIAN_POINT('',(-2.488832740576E-1,8.216705907306E-2,
5.125635571753E-1));
#144=CARTESIAN_POINT('',(-2.488825132894E-1,8.229041394823E-2,
5.132014633521E-1));
#145=CARTESIAN_POINT('',(-2.488827103927E-1,8.241686751068E-2,
5.137761496422E-1));
#146=CARTESIAN_POINT('',(-2.488832304063E-1,8.250943915674E-2,
5.141220188644E-1));
#147=CARTESIAN_POINT('',(-2.488835394190E-1,8.256167423639E-2,
5.142838589503E-1));
#149=CURVE_STYLE('',#21,POSITIVE_LENGTH_MEASURE(2.E-2),#9);
#150=PRESENTATION_STYLE_ASSIGNMENT((#149));
#151=STYLED_ITEM('',(#150),#148);
#152=CARTESIAN_POINT('',(-2.488935728030E-1,8.173721290376E-2,
5.098511827579E-1));
#153=CARTESIAN_POINT('',(-2.488929253470E-1,8.175674353677E-2,
5.099900137584E-1));
#154=CARTESIAN_POINT('',(-2.488916311093E-1,8.179578474208E-2,
5.102675331603E-1));
#155=CARTESIAN_POINT('',(-2.488897459684E-1,8.185428640707E-2,
5.106833847445E-1));
#156=CARTESIAN_POINT('',(-2.488885626006E-1,8.189324743661E-2,
5.109603342272E-1));
#157=CARTESIAN_POINT('',(-2.488879981933E-1,8.191271793677E-2,
5.110987377810E-1));
#159=CURVE_STYLE('',#21,POSITIVE_LENGTH_MEASURE(2.E-2),#9);
#160=PRESENTATION_STYLE_ASSIGNMENT((#159));
#161=STYLED_ITEM('',(#160),#158);
#162=DIRECTION('',(0.E0,-1.E0,0.E0));
#163=VECTOR('',#162,7.274604108463E-2);
#164=CARTESIAN_POINT('',(-2.488935728030E-1,1.544832539884E-1,
5.098511827579E-1));
#165=LINE('',#164,#163);
#166=CURVE_STYLE('',#21,POSITIVE_LENGTH_MEASURE(2.E-2),#9);
#167=PRESENTATION_STYLE_ASSIGNMENT((#166));
#168=STYLED_ITEM('',(#167),#165);
#169=CARTESIAN_POINT('',(-2.488879981933E-1,1.543077545046E-1,
5.110987377811E-1));
#170=CARTESIAN_POINT('',(-2.488885626006E-1,1.543272243892E-1,
5.109603342274E-1));
#171=CARTESIAN_POINT('',(-2.488897459684E-1,1.543661841868E-1,
5.106833847446E-1));
#172=CARTESIAN_POINT('',(-2.488916311093E-1,1.544246840020E-1,
5.102675331604E-1));
#173=CARTESIAN_POINT('',(-2.488929253470E-1,1.544637239729E-1,
5.099900137584E-1));
#174=CARTESIAN_POINT('',(-2.488935728030E-1,1.544832539884E-1,
5.098511827579E-1));
#176=CURVE_STYLE('',#21,POSITIVE_LENGTH_MEASURE(2.E-2),#9);
#177=PRESENTATION_STYLE_ASSIGNMENT((#176));
#178=STYLED_ITEM('',(#177),#175);
#179=CARTESIAN_POINT('',(-2.488835394190E-1,1.536587982044E-1,
5.142838589529E-1));
#180=CARTESIAN_POINT('',(-2.488832337935E-1,1.537104607186E-1,
5.141237928478E-1));
#181=CARTESIAN_POINT('',(-2.488827160795E-1,1.538024172245E-1,
5.137810041570E-1));
#182=CARTESIAN_POINT('',(-2.488825116385E-1,1.539287369824E-1,
5.132078677551E-1));
#183=CARTESIAN_POINT('',(-2.488832571609E-1,1.540517818921E-1,
5.125723997123E-1));
#184=CARTESIAN_POINT('',(-2.488850424525E-1,1.541763842685E-1,
5.118733325864E-1));
#185=CARTESIAN_POINT('',(-2.488869164340E-1,1.542629739938E-1,
5.113640060292E-1));
#186=CARTESIAN_POINT('',(-2.488879981933E-1,1.543077545046E-1,
5.110987377811E-1));
#188=CURVE_STYLE('',#21,POSITIVE_LENGTH_MEASURE(2.E-2),#9);
#189=PRESENTATION_STYLE_ASSIGNMENT((#188));
#190=STYLED_ITEM('',(#189),#187);
#191=CARTESIAN_POINT('',(-2.488924012169E-1,1.529669962265E-1,
5.168558199153E-1));
#192=CARTESIAN_POINT('',(-2.488887884843E-1,1.531975962531E-1,
5.159985019465E-1));
#193=CARTESIAN_POINT('',(-2.488851763676E-1,1.534281966604E-1,
5.151411825627E-1));
#194=CARTESIAN_POINT('',(-2.488835394190E-1,1.536587982044E-1,
5.142838589529E-1));
#196=CURVE_STYLE('',#21,POSITIVE_LENGTH_MEASURE(2.E-2),#9);
#197=PRESENTATION_STYLE_ASSIGNMENT((#196));
#198=STYLED_ITEM('',(#197),#195);
#199=DIRECTION('',(8.382052684419E-1,1.416538765431E-1,5.266365988199E-1));
#200=VECTOR('',#199,1.785827690192E-2);
#201=CARTESIAN_POINT('',(-2.394943574694E-1,8.256167423627E-2,
5.142838589499E-1));
#202=LINE('',#201,#200);
#203=CURVE_STYLE('',#21,POSITIVE_LENGTH_MEASURE(2.E-2),#9);
#204=PRESENTATION_STYLE_ASSIGNMENT((#203));
#205=STYLED_ITEM('',(#204),#202);
#206=CARTESIAN_POINT('',(-2.458711178544E-1,1.522519393847E-1,
5.195142371237E-1));
#207=CARTESIAN_POINT('',(-2.470367910023E-1,1.524449953475E-1,
5.187964993670E-1));
#208=CARTESIAN_POINT('',(-2.480420601920E-1,1.526838689954E-1,
5.179084219732E-1));
#209=CARTESIAN_POINT('',(-2.488924012169E-1,1.529669962265E-1,
5.168558199153E-1));
#211=CURVE_STYLE('',#21,POSITIVE_LENGTH_MEASURE(2.E-2),#9);
#212=PRESENTATION_STYLE_ASSIGNMENT((#211));
#213=STYLED_ITEM('',(#212),#210);
#214=DIRECTION('',(0.E0,1.E0,0.E0));
#215=VECTOR('',#214,6.828340632824E-2);
#216=CARTESIAN_POINT('',(-2.458711178544E-1,8.396853305650E-2,
5.195142371237E-1));
#217=LINE('',#216,#215);
#218=CURVE_STYLE('',#21,POSITIVE_LENGTH_MEASURE(2.E-2),#9);
#219=PRESENTATION_STYLE_ASSIGNMENT((#218));
#220=STYLED_ITEM('',(#219),#217);
#221=CARTESIAN_POINT('',(-2.488924012169E-1,8.325347621486E-2,
5.168558199153E-1));
#222=CARTESIAN_POINT('',(-2.480420601920E-1,8.353660344585E-2,
5.179084219732E-1));
#223=CARTESIAN_POINT('',(-2.470367910023E-1,8.377547709379E-2,
5.187964993670E-1));
#224=CARTESIAN_POINT('',(-2.458711178544E-1,8.396853305650E-2,
5.195142371237E-1));
#226=CURVE_STYLE('',#21,POSITIVE_LENGTH_MEASURE(2.E-2),#9);
#227=PRESENTATION_STYLE_ASSIGNMENT((#226));
#228=STYLED_ITEM('',(#227),#225);
#229=DIRECTION('',(0.E0,-1.E0,0.E0));
#230=VECTOR('',#229,6.971352001161E-2);
#231=CARTESIAN_POINT('',(-2.488924012169E-1,1.529669962265E-1,
5.168558199153E-1));
#232=LINE('',#231,#230);
#233=CURVE_STYLE('',#21,POSITIVE_LENGTH_MEASURE(2.E-2),#9);
#234=PRESENTATION_STYLE_ASSIGNMENT((#233));
#235=STYLED_ITEM('',(#234),#232);
#236=DIRECTION('',(-8.382052684398E-1,1.416538765611E-1,-5.266365988183E-1));
#237=VECTOR('',#236,1.785827690073E-2);
#238=CARTESIAN_POINT('',(-2.245254556849E-1,1.511291040533E-1,
5.236886811583E-1));
#239=LINE('',#238,#237);
#240=CURVE_STYLE('',#21,POSITIVE_LENGTH_MEASURE(2.E-2),#9);
#241=PRESENTATION_STYLE_ASSIGNMENT((#240));
#242=STYLED_ITEM('',(#241),#239);
#243=DIRECTION('',(-1.E0,-2.871556783472E-12,2.000187828487E-11));
#244=VECTOR('',#243,5.606099781737E-3);
#245=CARTESIAN_POINT('',(-2.432818984116E-1,1.543077545047E-1,
5.110987377810E-1));
#246=LINE('',#245,#244);
#247=CURVE_STYLE('',#21,POSITIVE_LENGTH_MEASURE(2.E-2),#9);
#248=PRESENTATION_STYLE_ASSIGNMENT((#247));
#249=STYLED_ITEM('',(#248),#246);
#250=CARTESIAN_POINT('',(-2.394943574684E-1,1.536587982050E-1,
5.142838589506E-1));
#251=CARTESIAN_POINT('',(-2.398686295435E-1,1.537346951399E-1,
5.140487072758E-1));
#252=CARTESIAN_POINT('',(-2.406222137501E-1,1.538514191049E-1,
5.135752373056E-1));
#253=CARTESIAN_POINT('',(-2.413782799841E-1,1.539490200966E-1,
5.131002079006E-1));
#254=CARTESIAN_POINT('',(-2.417570333162E-1,1.539951209975E-1,
5.128622406936E-1));
#256=CURVE_STYLE('',#21,POSITIVE_LENGTH_MEASURE(2.E-2),#9);
#257=PRESENTATION_STYLE_ASSIGNMENT((#256));
#258=STYLED_ITEM('',(#257),#255);
#259=DIRECTION('',(1.E0,6.643590566924E-11,-2.470727505489E-10));
#260=VECTOR('',#259,9.389181950664E-3);
#261=CARTESIAN_POINT('',(-2.488835394190E-1,1.536587982044E-1,
5.142838589529E-1));
#262=LINE('',#261,#260);
#263=CURVE_STYLE('',#21,POSITIVE_LENGTH_MEASURE(2.E-2),#9);
#264=PRESENTATION_STYLE_ASSIGNMENT((#263));
#265=STYLED_ITEM('',(#264),#262);
#266=DIRECTION('',(-1.E0,0.E0,0.E0));
#267=VECTOR('',#266,1.144561799295E-4);
#268=CARTESIAN_POINT('',(-2.488788557717E-1,1.712341170279E-1,
3.907760556849E-1));
#269=LINE('',#268,#267);
#270=CURVE_STYLE('',#21,POSITIVE_LENGTH_MEASURE(2.E-2),#9);
#271=PRESENTATION_STYLE_ASSIGNMENT((#270));
#272=STYLED_ITEM('',(#271),#269);
#273=DIRECTION('',(-4.363430867432E-2,1.391704586845E-1,-9.893066413080E-1));
#274=VECTOR('',#273,1.201279426835E-1);
#275=CARTESIAN_POINT('',(-2.436371560403E-1,1.545158561439E-1,
5.096194271883E-1));
#276=LINE('',#275,#274);
#277=CURVE_STYLE('',#21,POSITIVE_LENGTH_MEASURE(2.E-2),#9);
#278=PRESENTATION_STYLE_ASSIGNMENT((#277));
#279=STYLED_ITEM('',(#278),#276);
#280=DIRECTION('',(-1.E0,-1.491173108670E-11,0.E0));
#281=VECTOR('',#280,1.116794909495E-4);
#282=CARTESIAN_POINT('',(-2.488816862136E-1,1.189905602759E-1,
3.907118819875E-1));
#283=LINE('',#282,#281);
#284=CURVE_STYLE('',#21,POSITIVE_LENGTH_MEASURE(2.E-2),#9);
#285=PRESENTATION_STYLE_ASSIGNMENT((#284));
#286=STYLED_ITEM('',(#285),#283);
#287=DIRECTION('',(5.417777592979E-5,9.999992441037E-1,1.228355282014E-3));
#288=VECTOR('',#287,5.224359624281E-2);
#289=CARTESIAN_POINT('',(-2.488816862136E-1,1.189905602759E-1,
3.907118819875E-1));
#290=LINE('',#289,#288);
#291=CURVE_STYLE('',#21,POSITIVE_LENGTH_MEASURE(2.E-2),#9);
#292=PRESENTATION_STYLE_ASSIGNMENT((#291));
#293=STYLED_ITEM('',(#292),#290);
#294=DIRECTION('',(-6.399178905728E-5,9.999989454470E-1,-1.450865244036E-3));
#295=VECTOR('',#294,5.400280259997E-2);
#296=CARTESIAN_POINT('',(-2.488782304776E-1,6.498781462472E-2,
3.907902327769E-1));
#297=LINE('',#296,#295);
#298=CURVE_STYLE('',#21,POSITIVE_LENGTH_MEASURE(2.E-2),#9);
#299=PRESENTATION_STYLE_ASSIGNMENT((#298));
#300=STYLED_ITEM('',(#299),#297);
#301=DIRECTION('',(-1.E0,1.206034253925E-13,4.824137015701E-13));
#302=VECTOR('',#301,1.150695990818E-4);
#303=CARTESIAN_POINT('',(-2.488782304776E-1,6.498781462472E-2,
3.907902327769E-1));
#304=LINE('',#303,#302);
#305=CURVE_STYLE('',#21,POSITIVE_LENGTH_MEASURE(2.E-2),#9);
#306=PRESENTATION_STYLE_ASSIGNMENT((#305));
#307=STYLED_ITEM('',(#306),#304);
#308=CARTESIAN_POINT('',(-2.229694532311E-1,1.508213278817E-1,
5.248330895009E-1));
#309=CARTESIAN_POINT('',(-2.231343596776E-1,1.508599277651E-1,
5.246895839943E-1));
#310=CARTESIAN_POINT('',(-2.234698839032E-1,1.509341107893E-1,
5.244135433384E-1));
#311=CARTESIAN_POINT('',(-2.239896495960E-1,1.510368157972E-1,
5.240318100021E-1));
#312=CARTESIAN_POINT('',(-2.243452806546E-1,1.510993027662E-1,
5.237994755035E-1));
#313=CARTESIAN_POINT('',(-2.245254556849E-1,1.511291040533E-1,
5.236886811583E-1));
#315=CURVE_STYLE('',#21,POSITIVE_LENGTH_MEASURE(2.E-2),#9);
#316=PRESENTATION_STYLE_ASSIGNMENT((#315));
#317=STYLED_ITEM('',(#316),#314);
#318=DIRECTION('',(0.E0,1.E0,0.E0));
#319=VECTOR('',#318,6.603773566547E-2);
#320=CARTESIAN_POINT('',(-2.245254556849E-1,8.509136838781E-2,
5.236886811583E-1));
#321=LINE('',#320,#319);
#322=CURVE_STYLE('',#21,POSITIVE_LENGTH_MEASURE(2.E-2),#9);
#323=PRESENTATION_STYLE_ASSIGNMENT((#322));
#324=STYLED_ITEM('',(#323),#321);
#325=CARTESIAN_POINT('',(-2.245254556849E-1,8.509136838781E-2,
5.236886811583E-1));
#326=CARTESIAN_POINT('',(-2.243452806546E-1,8.512116967494E-2,
5.237994755035E-1));
#327=CARTESIAN_POINT('',(-2.239896495960E-1,8.518365664388E-2,
5.240318100021E-1));
#328=CARTESIAN_POINT('',(-2.234698839028E-1,8.528636165181E-2,
5.244135433387E-1));
#329=CARTESIAN_POINT('',(-2.231343596780E-1,8.536054467592E-2,
5.246895839941E-1));
#330=CARTESIAN_POINT('',(-2.229694532318E-1,8.539914455923E-2,
5.248330895003E-1));
#332=CURVE_STYLE('',#21,POSITIVE_LENGTH_MEASURE(2.E-2),#9);
#333=PRESENTATION_STYLE_ASSIGNMENT((#332));
#334=STYLED_ITEM('',(#333),#331);
#335=DIRECTION('',(1.736531067562E-7,-9.999999999998E-1,-5.964954763010E-7));
#336=VECTOR('',#335,6.381789691373E-2);
#337=CARTESIAN_POINT('',(-2.193669274539E-1,1.500191835887E-1,
5.371001470383E-1));
#338=LINE('',#337,#336);
#339=CURVE_STYLE('',#21,POSITIVE_LENGTH_MEASURE(2.E-2),#9);
#340=PRESENTATION_STYLE_ASSIGNMENT((#339));
#341=STYLED_ITEM('',(#340),#338);
#342=CARTESIAN_POINT('',(-2.374057928805E-1,8.539914455932E-2,
5.248329223194E-1));
#343=CARTESIAN_POINT('',(-2.370530562786E-1,8.542298907996E-2,
5.250545434560E-1));
#344=CARTESIAN_POINT('',(-2.363030113370E-1,8.546944121560E-2,
5.255257893517E-1));
#345=CARTESIAN_POINT('',(-2.350423365495E-1,8.553769712483E-2,
5.263178613745E-1));
#346=CARTESIAN_POINT('',(-2.336521028840E-1,8.560537586933E-2,
5.271913259097E-1));
#347=CARTESIAN_POINT('',(-2.321234079001E-1,8.567364161073E-2,
5.281518146025E-1));
#348=CARTESIAN_POINT('',(-2.304598374658E-1,8.574285960131E-2,
5.291969316399E-1));
#349=CARTESIAN_POINT('',(-2.292612477102E-1,8.578985997451E-2,
5.299502155133E-1));
#350=CARTESIAN_POINT('',(-2.286395402227E-1,8.581371109412E-2,
5.303408285636E-1));
#352=CURVE_STYLE('',#21,POSITIVE_LENGTH_MEASURE(2.E-2),#9);
#353=PRESENTATION_STYLE_ASSIGNMENT((#352));
#354=STYLED_ITEM('',(#353),#351);
#355=CARTESIAN_POINT('',(-2.286395402227E-1,8.581371109412E-2,
5.303408285636E-1));
#356=CARTESIAN_POINT('',(-2.284768115232E-1,8.581999666471E-2,
5.304437682134E-1));
#357=CARTESIAN_POINT('',(-2.281654189948E-1,8.583395799057E-2,
5.306731007470E-1));
#358=CARTESIAN_POINT('',(-2.277507030112E-1,8.585846815915E-2,
5.310822301181E-1));
#359=CARTESIAN_POINT('',(-2.273972924031E-1,8.588594712772E-2,
5.315484960602E-1));
#360=CARTESIAN_POINT('',(-2.271142681383E-1,8.591580750811E-2,
5.320621657695E-1));
#361=CARTESIAN_POINT('',(-2.269094711466E-1,8.594712602595E-2,
5.326059505093E-1));
#362=CARTESIAN_POINT('',(-2.267838088829E-1,8.597977197223E-2,
5.331781285743E-1));
#363=CARTESIAN_POINT('',(-2.267418274712E-1,8.601238287900E-2,
5.337543508007E-1));
#364=CARTESIAN_POINT('',(-2.267823031035E-1,8.604502676857E-2,
5.343340909068E-1));
#365=CARTESIAN_POINT('',(-2.268632299267E-1,8.606610659904E-2,
5.347081404488E-1));
#366=CARTESIAN_POINT('',(-2.269164446369E-1,8.607639546262E-2,
5.348912185720E-1));
#368=CURVE_STYLE('',#21,POSITIVE_LENGTH_MEASURE(2.E-2),#9);
#369=PRESENTATION_STYLE_ASSIGNMENT((#368));
#370=STYLED_ITEM('',(#369),#367);
#371=CARTESIAN_POINT('',(-2.269164446369E-1,8.607639546262E-2,
5.348912185720E-1));
#372=CARTESIAN_POINT('',(-2.272442533116E-1,8.613946076454E-2,
5.360133908138E-1));
#373=CARTESIAN_POINT('',(-2.275720630243E-1,8.620249708095E-2,
5.371359590392E-1));
#374=CARTESIAN_POINT('',(-2.278998296646E-1,8.626828246054E-2,
5.382579873870E-1));
#376=CURVE_STYLE('',#21,POSITIVE_LENGTH_MEASURE(2.E-2),#9);
#377=PRESENTATION_STYLE_ASSIGNMENT((#376));
#378=STYLED_ITEM('',(#377),#375);
#379=DIRECTION('',(-1.E0,0.E0,-2.709621003872E-14));
#380=VECTOR('',#379,8.194673890102E-3);
#381=CARTESIAN_POINT('',(-2.197051557745E-1,8.626828246054E-2,
5.382579873870E-1));
#382=LINE('',#381,#380);
#383=CURVE_STYLE('',#21,POSITIVE_LENGTH_MEASURE(2.E-2),#9);
#384=PRESENTATION_STYLE_ASSIGNMENT((#383));
#385=STYLED_ITEM('',(#384),#382);
#386=CARTESIAN_POINT('',(-2.193669163717E-1,8.620128667501E-2,
5.371001089712E-1));
#387=CARTESIAN_POINT('',(-2.194049717573E-1,8.620873788851E-2,
5.372303822070E-1));
#388=CARTESIAN_POINT('',(-2.194806395135E-1,8.622361316476E-2,
5.374894108954E-1));
#389=CARTESIAN_POINT('',(-2.195934718192E-1,8.624594117780E-2,
5.378756649963E-1));
#390=CARTESIAN_POINT('',(-2.196680267141E-1,8.626083036201E-2,
5.381308851971E-1));
#391=CARTESIAN_POINT('',(-2.197051557745E-1,8.626828246054E-2,
5.382579873870E-1));
#393=CURVE_STYLE('',#21,POSITIVE_LENGTH_MEASURE(2.E-2),#9);
#394=PRESENTATION_STYLE_ASSIGNMENT((#393));
#395=STYLED_ITEM('',(#394),#392);
#396=CARTESIAN_POINT('',(-2.229694532318E-1,8.539914455923E-2,
5.248330895003E-1));
#397=CARTESIAN_POINT('',(-2.226294235302E-1,8.543098105104E-2,
5.251289914229E-1));
#398=CARTESIAN_POINT('',(-2.219775078993E-1,8.549177269318E-2,
5.257640457069E-1));
#399=CARTESIAN_POINT('',(-2.211123689764E-1,8.557817875170E-2,
5.268239334384E-1));
#400=CARTESIAN_POINT('',(-2.203777759325E-1,8.566103849132E-2,
5.279654273462E-1));
#401=CARTESIAN_POINT('',(-2.197762163971E-1,8.574224220229E-2,
5.291856451465E-1));
#402=CARTESIAN_POINT('',(-2.193220420958E-1,8.582243024283E-2,
5.304735471966E-1));
#403=CARTESIAN_POINT('',(-2.190242862002E-1,8.590060434241E-2,
5.317929425039E-1));
#404=CARTESIAN_POINT('',(-2.188777143893E-1,8.597779528003E-2,
5.331387426304E-1));
#405=CARTESIAN_POINT('',(-2.188840951137E-1,8.605411108914E-2,
5.344931198803E-1));
#406=CARTESIAN_POINT('',(-2.190409057467E-1,8.612862636534E-2,
5.358207540128E-1));
#407=CARTESIAN_POINT('',(-2.192422525155E-1,8.617721678327E-2,
5.366792831983E-1));
#408=CARTESIAN_POINT('',(-2.193669163717E-1,8.620128667501E-2,
5.371001089712E-1));
#410=CURVE_STYLE('',#21,POSITIVE_LENGTH_MEASURE(2.E-2),#9);
#411=PRESENTATION_STYLE_ASSIGNMENT((#410));
#412=STYLED_ITEM('',(#411),#409);
#413=DIRECTION('',(9.999999999329E-1,-6.212942115437E-12,1.158056247399E-5));
#414=VECTOR('',#413,1.443633964962E-2);
#415=CARTESIAN_POINT('',(-2.374057928805E-1,8.539914455932E-2,
5.248329223194E-1));
#416=LINE('',#415,#414);
#417=CURVE_STYLE('',#21,POSITIVE_LENGTH_MEASURE(2.E-2),#9);
#418=PRESENTATION_STYLE_ASSIGNMENT((#417));
#419=STYLED_ITEM('',(#418),#416);
#420=DIRECTION('',(-8.382052684393E-1,1.416538765614E-1,-5.266365988191E-1));
#421=VECTOR('',#420,1.009934593887E-2);
#422=CARTESIAN_POINT('',(-2.374057928807E-1,1.508213278818E-1,
5.248329223193E-1));
#423=LINE('',#422,#421);
#424=CURVE_STYLE('',#21,POSITIVE_LENGTH_MEASURE(2.E-2),#9);
#425=PRESENTATION_STYLE_ASSIGNMENT((#424));
#426=STYLED_ITEM('',(#425),#423);
#427=DIRECTION('',(8.382052684415E-1,1.416538765433E-1,5.266365988205E-1));
#428=VECTOR('',#427,1.009934593905E-2);
#429=CARTESIAN_POINT('',(-2.458711178544E-1,8.396853305650E-2,
5.195142371237E-1));
#430=LINE('',#429,#428);
#431=CURVE_STYLE('',#21,POSITIVE_LENGTH_MEASURE(2.E-2),#9);
#432=PRESENTATION_STYLE_ASSIGNMENT((#431));
#433=STYLED_ITEM('',(#432),#430);
#434=CARTESIAN_POINT('',(-2.286395402228E-1,1.504067613470E-1,
5.303408285636E-1));
#435=CARTESIAN_POINT('',(-2.292612477102E-1,1.504306124666E-1,
5.299502155133E-1));
#436=CARTESIAN_POINT('',(-2.304598374657E-1,1.504776128398E-1,
5.291969316399E-1));
#437=CARTESIAN_POINT('',(-2.321234079001E-1,1.505468308303E-1,
5.281518146025E-1));
#438=CARTESIAN_POINT('',(-2.336521028841E-1,1.506150965717E-1,
5.271913259097E-1));
#439=CARTESIAN_POINT('',(-2.350423365496E-1,1.506827753162E-1,
5.263178613744E-1));
#440=CARTESIAN_POINT('',(-2.363030113372E-1,1.507510312255E-1,
5.255257893516E-1));
#441=CARTESIAN_POINT('',(-2.370530562788E-1,1.507974833611E-1,
5.250545434559E-1));
#442=CARTESIAN_POINT('',(-2.374057928807E-1,1.508213278818E-1,
5.248329223193E-1));
#444=CURVE_STYLE('',#21,POSITIVE_LENGTH_MEASURE(2.E-2),#9);
#445=PRESENTATION_STYLE_ASSIGNMENT((#444));
#446=STYLED_ITEM('',(#445),#443);
#447=DIRECTION('',(-9.999999999329E-1,2.757035120832E-12,-1.158061279972E-5));
#448=VECTOR('',#447,1.443633965054E-2);
#449=CARTESIAN_POINT('',(-2.229694532311E-1,1.508213278817E-1,
5.248330895009E-1));
#450=LINE('',#449,#448);
#451=CURVE_STYLE('',#21,POSITIVE_LENGTH_MEASURE(2.E-2),#9);
#452=PRESENTATION_STYLE_ASSIGNMENT((#451));
#453=STYLED_ITEM('',(#452),#450);
#454=CARTESIAN_POINT('',(-2.193669274539E-1,1.500191835887E-1,
5.371001470383E-1));
#455=CARTESIAN_POINT('',(-2.192518535488E-1,1.500414019102E-1,
5.367116939092E-1));
#456=CARTESIAN_POINT('',(-2.190639657566E-1,1.500859435499E-1,
5.359252831831E-1));
#457=CARTESIAN_POINT('',(-2.189052677373E-1,1.501534313417E-1,
5.347236786882E-1));
#458=CARTESIAN_POINT('',(-2.188695380891E-1,1.502212626128E-1,
5.335178428684E-1));
#459=CARTESIAN_POINT('',(-2.189536669770E-1,1.502894076890E-1,
5.323211759691E-1));
#460=CARTESIAN_POINT('',(-2.191601159190E-1,1.503591238995E-1,
5.311253548599E-1));
#461=CARTESIAN_POINT('',(-2.194912051553E-1,1.504301902767E-1,
5.299507286342E-1));
#462=CARTESIAN_POINT('',(-2.199464701839E-1,1.505025374250E-1,
5.288134678011E-1));
#463=CARTESIAN_POINT('',(-2.205299534805E-1,1.505773647699E-1,
5.277114426642E-1));
#464=CARTESIAN_POINT('',(-2.212347927920E-1,1.506548393632E-1,
5.266645023806E-1));
#465=CARTESIAN_POINT('',(-2.220440233643E-1,1.507349024315E-1,
5.256975167980E-1));
#466=CARTESIAN_POINT('',(-2.226525606157E-1,1.507916576820E-1,
5.251088569817E-1));
#467=CARTESIAN_POINT('',(-2.229694532311E-1,1.508213278817E-1,
5.248330895009E-1));
#469=CURVE_STYLE('',#21,POSITIVE_LENGTH_MEASURE(2.E-2),#9);
#470=PRESENTATION_STYLE_ASSIGNMENT((#469));
#471=STYLED_ITEM('',(#470),#468);
#472=CARTESIAN_POINT('',(-2.197051557745E-1,1.499521899805E-1,
5.382579873869E-1));
#473=CARTESIAN_POINT('',(-2.196680267137E-1,1.499596420791E-1,
5.381308851959E-1));
#474=CARTESIAN_POINT('',(-2.195934732960E-1,1.499745309713E-1,
5.378756700690E-1));
#475=CARTESIAN_POINT('',(-2.194806343411E-1,1.499968602991E-1,
5.374893931283E-1));
#476=CARTESIAN_POINT('',(-2.194049828389E-1,1.500117323613E-1,
5.372304202721E-1));
#477=CARTESIAN_POINT('',(-2.193669274539E-1,1.500191835887E-1,
5.371001470383E-1));
#479=CURVE_STYLE('',#21,POSITIVE_LENGTH_MEASURE(2.E-2),#9);
#480=PRESENTATION_STYLE_ASSIGNMENT((#479));
#481=STYLED_ITEM('',(#480),#478);
#482=DIRECTION('',(1.E0,0.E0,0.E0));
#483=VECTOR('',#482,8.194673890102E-3);
#484=CARTESIAN_POINT('',(-2.278998296646E-1,1.499521899805E-1,
5.382579873869E-1));
#485=LINE('',#484,#483);
#486=CURVE_STYLE('',#21,POSITIVE_LENGTH_MEASURE(2.E-2),#9);
#487=PRESENTATION_STYLE_ASSIGNMENT((#486));
#488=STYLED_ITEM('',(#487),#485);
#489=CARTESIAN_POINT('',(-2.278998296646E-1,1.499521899805E-1,
5.382579873869E-1));
#490=CARTESIAN_POINT('',(-2.275720630243E-1,1.500179753601E-1,
5.371359590392E-1));
#491=CARTESIAN_POINT('',(-2.272442533116E-1,1.500810116765E-1,
5.360133908138E-1));
#492=CARTESIAN_POINT('',(-2.269164446369E-1,1.501440769784E-1,
5.348912185720E-1));
#494=CURVE_STYLE('',#21,POSITIVE_LENGTH_MEASURE(2.E-2),#9);
#495=PRESENTATION_STYLE_ASSIGNMENT((#494));
#496=STYLED_ITEM('',(#495),#493);
#497=CARTESIAN_POINT('',(-2.269164446369E-1,1.501440769784E-1,
5.348912185720E-1));
#498=CARTESIAN_POINT('',(-2.268631570380E-1,1.501543799348E-1,
5.347078896850E-1));
#499=CARTESIAN_POINT('',(-2.267823466838E-1,1.501754810176E-1,
5.343334655820E-1));
#500=CARTESIAN_POINT('',(-2.267418229242E-1,1.502079293969E-1,
5.337571876970E-1));
#501=CARTESIAN_POINT('',(-2.267837681388E-1,1.502407129953E-1,
5.331779054908E-1));
#502=CARTESIAN_POINT('',(-2.269091417294E-1,1.502732623484E-1,
5.326074226329E-1));
#503=CARTESIAN_POINT('',(-2.271135999437E-1,1.503045967460E-1,
5.320633371445E-1));
#504=CARTESIAN_POINT('',(-2.273976400516E-1,1.503345488697E-1,
5.315480994891E-1));
#505=CARTESIAN_POINT('',(-2.277489282433E-1,1.503618834496E-1,
5.310842650554E-1));
#506=CARTESIAN_POINT('',(-2.281658555038E-1,1.503865466579E-1,
5.306725569488E-1));
#507=CARTESIAN_POINT('',(-2.284770501227E-1,1.504004849925E-1,
5.304436172791E-1));
#508=CARTESIAN_POINT('',(-2.286395402228E-1,1.504067613470E-1,
5.303408285636E-1));
#510=CURVE_STYLE('',#21,POSITIVE_LENGTH_MEASURE(2.E-2),#9);
#511=PRESENTATION_STYLE_ASSIGNMENT((#510));
#512=STYLED_ITEM('',(#511),#509);
#513=DIRECTION('',(-2.776659805696E-1,1.393244419348E-1,9.505210692635E-1));
#514=VECTOR('',#513,7.662241287808E-2);
#515=CARTESIAN_POINT('',(-2.197051557745E-1,8.626828246054E-2,
5.382579873870E-1));
#516=LINE('',#515,#514);
#517=CURVE_STYLE('',#21,POSITIVE_LENGTH_MEASURE(2.E-2),#9);
#518=PRESENTATION_STYLE_ASSIGNMENT((#517));
#519=STYLED_ITEM('',(#518),#516);
#520=DIRECTION('',(2.776659772939E-1,1.393244420720E-1,-9.505210702003E-1));
#521=VECTOR('',#520,7.428557380802E-2);
#522=CARTESIAN_POINT('',(-2.485264061148E-1,1.396023938557E-1,
6.088679905034E-1));
#523=LINE('',#522,#521);
#524=CURVE_STYLE('',#21,POSITIVE_LENGTH_MEASURE(2.E-2),#9);
#525=PRESENTATION_STYLE_ASSIGNMENT((#524));
#526=STYLED_ITEM('',(#525),#523);
#527=DIRECTION('',(-2.776659772939E-1,1.393244420721E-1,9.505210702003E-1));
#528=VECTOR('',#527,7.428557380796E-2);
#529=CARTESIAN_POINT('',(-2.278998296646E-1,8.626828246054E-2,
5.382579873870E-1));
#530=LINE('',#529,#528);
#531=CURVE_STYLE('',#21,POSITIVE_LENGTH_MEASURE(2.E-2),#9);
#532=PRESENTATION_STYLE_ASSIGNMENT((#531));
#533=STYLED_ITEM('',(#532),#530);
#534=DIRECTION('',(2.776659805696E-1,1.393244419347E-1,-9.505210692635E-1));
#535=VECTOR('',#534,7.662241287813E-2);
#536=CARTESIAN_POINT('',(-2.409805931799E-1,1.392768150666E-1,
6.110892052054E-1));
#537=LINE('',#536,#535);
#538=CURVE_STYLE('',#21,POSITIVE_LENGTH_MEASURE(2.E-2),#9);
#539=PRESENTATION_STYLE_ASSIGNMENT((#538));
#540=STYLED_ITEM('',(#539),#537);
#541=CARTESIAN_POINT('',(-2.409805931798E-1,1.392768150666E-1,
6.110892052052E-1));
#542=CARTESIAN_POINT('',(-2.410155463354E-1,1.392592766239E-1,
6.112088587211E-1));
#543=CARTESIAN_POINT('',(-2.410504135166E-1,1.392417345870E-1,
6.113285367580E-1));
#544=CARTESIAN_POINT('',(-2.410851945348E-1,1.392241889479E-1,
6.114482393697E-1));
#546=CURVE_STYLE('',#21,POSITIVE_LENGTH_MEASURE(2.E-2),#9);
#547=PRESENTATION_STYLE_ASSIGNMENT((#546));
#548=STYLED_ITEM('',(#547),#545);
#549=DIRECTION('',(1.553881585860E-13,1.E0,-5.218944060524E-13));
#550=VECTOR('',#549,4.233315769210E-2);
#551=CARTESIAN_POINT('',(-2.409805931799E-1,9.694365737448E-2,
6.110892052054E-1));
#552=LINE('',#551,#550);
#553=CURVE_STYLE('',#21,POSITIVE_LENGTH_MEASURE(2.E-2),#9);
#554=PRESENTATION_STYLE_ASSIGNMENT((#553));
#555=STYLED_ITEM('',(#554),#552);
#556=CARTESIAN_POINT('',(-2.410851945348E-1,9.699628349313E-2,
6.114482393697E-1));
#557=CARTESIAN_POINT('',(-2.410504135166E-1,9.697873785410E-2,
6.113285367580E-1));
#558=CARTESIAN_POINT('',(-2.410155463354E-1,9.696119581717E-2,
6.112088587211E-1));
#559=CARTESIAN_POINT('',(-2.409805931798E-1,9.694365737446E-2,
6.110892052052E-1));
#561=CURVE_STYLE('',#21,POSITIVE_LENGTH_MEASURE(2.E-2),#9);
#562=PRESENTATION_STYLE_ASSIGNMENT((#561));
#563=STYLED_ITEM('',(#562),#560);
#564=CARTESIAN_POINT('',(-2.410851945348E-1,9.699628349313E-2,
6.114482393697E-1));
#565=CARTESIAN_POINT('',(-2.411881368103E-1,9.704821377287E-2,
6.118025262725E-1));
#566=CARTESIAN_POINT('',(-2.413965606573E-1,9.719004208243E-2,
6.125254936536E-1));
#567=CARTESIAN_POINT('',(-2.417117606663E-1,9.753008785966E-2,
6.136375677419E-1));
#568=CARTESIAN_POINT('',(-2.420268356142E-1,9.801724950868E-2,
6.147703523026E-1));
#569=CARTESIAN_POINT('',(-2.423220991152E-1,9.863620105841E-2,
6.158542270098E-1));
#570=CARTESIAN_POINT('',(-2.425913540099E-1,9.937245301305E-2,
6.168650065367E-1));
#571=CARTESIAN_POINT('',(-2.428327918028E-1,1.002196455457E-1,
6.177941723960E-1));
#572=CARTESIAN_POINT('',(-2.430440146435E-1,1.011676659978E-1,
6.186302453886E-1));
#573=CARTESIAN_POINT('',(-2.432235710019E-1,1.022082221712E-1,
6.193644083558E-1));
#574=CARTESIAN_POINT('',(-2.433698693415E-1,1.033244693319E-1,
6.199854013757E-1));
#575=CARTESIAN_POINT('',(-2.434843250405E-1,1.045249656037E-1,
6.204930220984E-1));
#576=CARTESIAN_POINT('',(-2.435618377120E-1,1.057279019461E-1,
6.208540225882E-1));
#577=CARTESIAN_POINT('',(-2.436054992351E-1,1.068090737828E-1,
6.210662314195E-1));
#578=CARTESIAN_POINT('',(-2.436272162876E-1,1.077764491667E-1,
6.211747705731E-1));
#579=CARTESIAN_POINT('',(-2.436315594662E-1,1.083942799347E-1,
6.211967962882E-1));
#580=CARTESIAN_POINT('',(-2.436315594662E-1,1.086923630452E-1,
6.211967962882E-1));
#582=CURVE_STYLE('',#21,POSITIVE_LENGTH_MEASURE(2.E-2),#9);
#583=PRESENTATION_STYLE_ASSIGNMENT((#582));
#584=STYLED_ITEM('',(#583),#581);
#585=DIRECTION('',(-4.391204563816E-13,-1.E0,0.E0));
#586=VECTOR('',#585,1.883574634990E-2);
#587=CARTESIAN_POINT('',(-2.436315594662E-1,1.275281093951E-1,
6.211967962882E-1));
#588=LINE('',#587,#586);
#589=CURVE_STYLE('',#21,POSITIVE_LENGTH_MEASURE(2.E-2),#9);
#590=PRESENTATION_STYLE_ASSIGNMENT((#589));
#591=STYLED_ITEM('',(#590),#588);
#592=CARTESIAN_POINT('',(-2.436315594662E-1,1.275281093951E-1,
6.211967962882E-1));
#593=CARTESIAN_POINT('',(-2.436315594662E-1,1.278120581681E-1,
6.211967962882E-1));
#594=CARTESIAN_POINT('',(-2.436277541408E-1,1.284141266204E-1,
6.211774889870E-1));
#595=CARTESIAN_POINT('',(-2.436051836204E-1,1.294316424347E-1,
6.210645746261E-1));
#596=CARTESIAN_POINT('',(-2.435597838805E-1,1.305282210893E-1,
6.208443080926E-1));
#597=CARTESIAN_POINT('',(-2.434848374394E-1,1.316834280442E-1,
6.204956101713E-1));
#598=CARTESIAN_POINT('',(-2.433731931902E-1,1.328670672068E-1,
6.199997888539E-1));
#599=CARTESIAN_POINT('',(-2.432255064247E-1,1.339999035799E-1,
6.193724290633E-1));
#600=CARTESIAN_POINT('',(-2.430476966554E-1,1.350332616127E-1,
6.186451274783E-1));
#601=CARTESIAN_POINT('',(-2.428377775334E-1,1.359809500884E-1,
6.178136381268E-1));
#602=CARTESIAN_POINT('',(-2.425975357228E-1,1.368285301555E-1,
6.168885348837E-1));
#603=CARTESIAN_POINT('',(-2.423298902176E-1,1.375654752702E-1,
6.158831536207E-1));
#604=CARTESIAN_POINT('',(-2.420352342563E-1,1.381876823012E-1,
6.148009055711E-1));
#605=CARTESIAN_POINT('',(-2.417215735106E-1,1.386781073596E-1,
6.136724355928E-1));
#606=CARTESIAN_POINT('',(-2.413987778174E-1,1.390294035539E-1,
6.125331143113E-1));
#607=CARTESIAN_POINT('',(-2.411887608042E-1,1.391719438881E-1,
6.118046738147E-1));
#608=CARTESIAN_POINT('',(-2.410851945348E-1,1.392241889479E-1,
6.114482393697E-1));
#610=CURVE_STYLE('',#21,POSITIVE_LENGTH_MEASURE(2.E-2),#9);
#611=PRESENTATION_STYLE_ASSIGNMENT((#610));
#612=STYLED_ITEM('',(#611),#609);
#613=CARTESIAN_POINT('',(-2.487294085773E-1,1.061385779129E-1,
6.209289069241E-1));
#614=CARTESIAN_POINT('',(-2.481747214517E-1,1.069026381349E-1,
6.210911470440E-1));
#615=CARTESIAN_POINT('',(-2.478135143986E-1,1.077343506828E-1,
6.211967962882E-1));
#616=CARTESIAN_POINT('',(-2.478135143986E-1,1.086923630452E-1,
6.211967962882E-1));
#618=CURVE_STYLE('',#21,POSITIVE_LENGTH_MEASURE(2.E-2),#9);
#619=PRESENTATION_STYLE_ASSIGNMENT((#618));
#620=STYLED_ITEM('',(#619),#617);
#621=DIRECTION('',(-1.E0,2.797489526113E-12,5.309588661662E-14));
#622=VECTOR('',#621,4.181954932372E-3);
#623=CARTESIAN_POINT('',(-2.436315594662E-1,1.086923630452E-1,
6.211967962882E-1));
#624=LINE('',#623,#622);
#625=CURVE_STYLE('',#21,POSITIVE_LENGTH_MEASURE(2.E-2),#9);
#626=PRESENTATION_STYLE_ASSIGNMENT((#625));
#627=STYLED_ITEM('',(#626),#624);
#628=DIRECTION('',(1.E0,-2.734232772117E-13,-1.827618747678E-12));
#629=VECTOR('',#628,7.714865275185E-3);
#630=CARTESIAN_POINT('',(-2.488000598100E-1,9.699628349313E-2,
6.114482393697E-1));
#631=LINE('',#630,#629);
#632=CURVE_STYLE('',#21,POSITIVE_LENGTH_MEASURE(2.E-2),#9);
#633=PRESENTATION_STYLE_ASSIGNMENT((#632));
#634=STYLED_ITEM('',(#633),#631);
#635=CARTESIAN_POINT('',(-2.488000598100E-1,1.392241889479E-1,
6.114482393697E-1));
#636=CARTESIAN_POINT('',(-2.488001258900E-1,1.392505802675E-1,
6.112681883681E-1));
#637=CARTESIAN_POINT('',(-2.488001899389E-1,1.393035436082E-1,
6.109068535549E-1));
#638=CARTESIAN_POINT('',(-2.488001495144E-1,1.393835307421E-1,
6.103611527788E-1));
#639=CARTESIAN_POINT('',(-2.488000763662E-1,1.394372168674E-1,
6.099948868710E-1));
#640=CARTESIAN_POINT('',(-2.488000396360E-1,1.394641502767E-1,
6.098111375401E-1));
#642=CURVE_STYLE('',#21,POSITIVE_LENGTH_MEASURE(2.E-2),#9);
#643=PRESENTATION_STYLE_ASSIGNMENT((#642));
#644=STYLED_ITEM('',(#643),#641);
#645=CARTESIAN_POINT('',(-2.487294085773E-1,1.300818945282E-1,
6.209289069241E-1));
#646=CARTESIAN_POINT('',(-2.487310492940E-1,1.303024144065E-1,
6.208820818566E-1));
#647=CARTESIAN_POINT('',(-2.487349277614E-1,1.307575285235E-1,
6.207727479906E-1));
#648=CARTESIAN_POINT('',(-2.487412665088E-1,1.314856786544E-1,
6.205513754965E-1));
#649=CARTESIAN_POINT('',(-2.487472270270E-1,1.322783055109E-1,
6.202525613355E-1));
#650=CARTESIAN_POINT('',(-2.487532463232E-1,1.331388658386E-1,
6.198529310749E-1));
#651=CARTESIAN_POINT('',(-2.487591635307E-1,1.340572346806E-1,
6.193302129843E-1));
#652=CARTESIAN_POINT('',(-2.487650443753E-1,1.350387698892E-1,
6.186408446473E-1));
#653=CARTESIAN_POINT('',(-2.487706989343E-1,1.360062740539E-1,
6.177904835597E-1));
#654=CARTESIAN_POINT('',(-2.487773106055E-1,1.368680953737E-1,
6.168417861949E-1));
#655=CARTESIAN_POINT('',(-2.487852159760E-1,1.376153565715E-1,
6.158072512701E-1));
#656=CARTESIAN_POINT('',(-2.487924037789E-1,1.382295792572E-1,
6.147161735362E-1));
#657=CARTESIAN_POINT('',(-2.487972360671E-1,1.387049336112E-1,
6.135967782570E-1));
#658=CARTESIAN_POINT('',(-2.487994372528E-1,1.390397011836E-1,
6.124862953060E-1));
#659=CARTESIAN_POINT('',(-2.487999356373E-1,1.391745963126E-1,
6.117865780279E-1));
#660=CARTESIAN_POINT('',(-2.488000598100E-1,1.392241889479E-1,
6.114482393697E-1));
#662=CURVE_STYLE('',#21,POSITIVE_LENGTH_MEASURE(2.E-2),#9);
#663=PRESENTATION_STYLE_ASSIGNMENT((#662));
#664=STYLED_ITEM('',(#663),#661);
#665=DIRECTION('',(0.E0,1.E0,0.E0));
#666=VECTOR('',#665,2.394331661526E-2);
#667=CARTESIAN_POINT('',(-2.487294085773E-1,1.061385779129E-1,
6.209289069241E-1));
#668=LINE('',#667,#666);
#669=CURVE_STYLE('',#21,POSITIVE_LENGTH_MEASURE(2.E-2),#9);
#670=PRESENTATION_STYLE_ASSIGNMENT((#669));
#671=STYLED_ITEM('',(#670),#668);
#672=CARTESIAN_POINT('',(-2.488000598100E-1,9.699628349313E-2,
6.114482393697E-1));
#673=CARTESIAN_POINT('',(-2.487999271288E-1,9.704927430876E-2,
6.118097616269E-1));
#674=CARTESIAN_POINT('',(-2.487993787422E-1,9.719461949818E-2,
6.125494114835E-1));
#675=CARTESIAN_POINT('',(-2.487969450632E-1,9.755249113290E-2,
6.137010767766E-1));
#676=CARTESIAN_POINT('',(-2.487916919369E-1,9.805193141722E-2,
6.148395197437E-1));
#677=CARTESIAN_POINT('',(-2.487843594128E-1,9.868117150138E-2,
6.159233093971E-1));
#678=CARTESIAN_POINT('',(-2.487765974574E-1,9.942908118612E-2,
6.169353042358E-1));
#679=CARTESIAN_POINT('',(-2.487700986248E-1,1.003109110881E-1,
6.178845832374E-1));
#680=CARTESIAN_POINT('',(-2.487645182801E-1,1.012723212090E-1,
6.187103688617E-1));
#681=CARTESIAN_POINT('',(-2.487586340708E-1,1.022487419197E-1,
6.193837825299E-1));
#682=CARTESIAN_POINT('',(-2.487526678042E-1,1.031668364953E-1,
6.198961619049E-1));
#683=CARTESIAN_POINT('',(-2.487467238007E-1,1.040117347498E-1,
6.202809352584E-1));
#684=CARTESIAN_POINT('',(-2.487408527786E-1,1.047846803411E-1,
6.205677535510E-1));
#685=CARTESIAN_POINT('',(-2.487346686156E-1,1.054917556150E-1,
6.207800442365E-1));
#686=CARTESIAN_POINT('',(-2.487309727640E-1,1.059283440226E-1,
6.208842659775E-1));
#687=CARTESIAN_POINT('',(-2.487294085773E-1,1.061385779129E-1,
6.209289069241E-1));
#689=CURVE_STYLE('',#21,POSITIVE_LENGTH_MEASURE(2.E-2),#9);
#690=PRESENTATION_STYLE_ASSIGNMENT((#689));
#691=STYLED_ITEM('',(#690),#688);
#692=CARTESIAN_POINT('',(-2.488000396360E-1,9.675632216437E-2,
6.098111375401E-1));
#693=CARTESIAN_POINT('',(-2.488000763662E-1,9.678325557383E-2,
6.099948868723E-1));
#694=CARTESIAN_POINT('',(-2.488001495144E-1,9.683694169935E-2,
6.103611527817E-1));
#695=CARTESIAN_POINT('',(-2.488001899389E-1,9.691692883330E-2,
6.109068535578E-1));
#696=CARTESIAN_POINT('',(-2.488001258900E-1,9.696989217372E-2,
6.112681883693E-1));
#697=CARTESIAN_POINT('',(-2.488000598100E-1,9.699628349313E-2,
6.114482393697E-1));
#699=CURVE_STYLE('',#21,POSITIVE_LENGTH_MEASURE(2.E-2),#9);
#700=PRESENTATION_STYLE_ASSIGNMENT((#699));
#701=STYLED_ITEM('',(#700),#698);
#702=DIRECTION('',(0.E0,-1.E0,0.E0));
#703=VECTOR('',#702,4.270782811232E-2);
#704=CARTESIAN_POINT('',(-2.488000396360E-1,1.394641502767E-1,
6.098111375401E-1));
#705=LINE('',#704,#703);
#706=CURVE_STYLE('',#21,POSITIVE_LENGTH_MEASURE(2.E-2),#9);
#707=PRESENTATION_STYLE_ASSIGNMENT((#706));
#708=STYLED_ITEM('',(#707),#705);
#709=DIRECTION('',(-1.E0,4.317209640186E-14,-2.014697832087E-13));
#710=VECTOR('',#709,7.714865275183E-3);
#711=CARTESIAN_POINT('',(-2.410851945348E-1,1.392241889479E-1,
6.114482393697E-1));
#712=LINE('',#711,#710);
#713=CURVE_STYLE('',#21,POSITIVE_LENGTH_MEASURE(2.E-2),#9);
#714=PRESENTATION_STYLE_ASSIGNMENT((#713));
#715=STYLED_ITEM('',(#714),#712);
#716=DIRECTION('',(1.E0,-1.869174318476E-10,0.E0));
#717=VECTOR('',#716,4.181954932380E-3);
#718=CARTESIAN_POINT('',(-2.478135143986E-1,1.275281093959E-1,
6.211967962882E-1));
#719=LINE('',#718,#717);
#720=CURVE_STYLE('',#21,POSITIVE_LENGTH_MEASURE(2.E-2),#9);
#721=PRESENTATION_STYLE_ASSIGNMENT((#720));
#722=STYLED_ITEM('',(#721),#719);
#723=CARTESIAN_POINT('',(-2.478135143986E-1,1.275281093959E-1,
6.211967962882E-1));
#724=CARTESIAN_POINT('',(-2.478135143986E-1,1.284861217583E-1,
6.211967962882E-1));
#725=CARTESIAN_POINT('',(-2.481747214517E-1,1.293178343062E-1,
6.210911470440E-1));
#726=CARTESIAN_POINT('',(-2.487294085773E-1,1.300818945282E-1,
6.209289069241E-1));
#728=CURVE_STYLE('',#21,POSITIVE_LENGTH_MEASURE(2.E-2),#9);
#729=PRESENTATION_STYLE_ASSIGNMENT((#728));
#730=STYLED_ITEM('',(#729),#727);
#731=DIRECTION('',(-2.210337867602E-14,1.E0,0.E0));
#732=VECTOR('',#731,1.883574635067E-2);
#733=CARTESIAN_POINT('',(-2.478135143986E-1,1.086923630452E-1,
6.211967962882E-1));
#734=LINE('',#733,#732);
#735=CURVE_STYLE('',#21,POSITIVE_LENGTH_MEASURE(2.E-2),#9);
#736=PRESENTATION_STYLE_ASSIGNMENT((#735));
#737=STYLED_ITEM('',(#736),#734);
#738=CARTESIAN_POINT('',(-2.488000396360E-1,1.394641502767E-1,
6.098111375401E-1));
#739=CARTESIAN_POINT('',(-2.487094253813E-1,1.395102563201E-1,
6.094965856564E-1));
#740=CARTESIAN_POINT('',(-2.486182118410E-1,1.395563374146E-1,
6.091822039830E-1));
#741=CARTESIAN_POINT('',(-2.485264061148E-1,1.396023938557E-1,
6.088679905034E-1));
#743=CURVE_STYLE('',#21,POSITIVE_LENGTH_MEASURE(2.E-2),#9);
#744=PRESENTATION_STYLE_ASSIGNMENT((#743));
#745=STYLED_ITEM('',(#744),#742);
#746=CARTESIAN_POINT('',(-2.485264061148E-1,9.661807858535E-2,
6.088679905034E-1));
#747=CARTESIAN_POINT('',(-2.486182118410E-1,9.666413502651E-2,
6.091822039830E-1));
#748=CARTESIAN_POINT('',(-2.487094253813E-1,9.671021612099E-2,
6.094965856564E-1));
#749=CARTESIAN_POINT('',(-2.488000396360E-1,9.675632216437E-2,
6.098111375401E-1));
#751=CURVE_STYLE('',#21,POSITIVE_LENGTH_MEASURE(2.E-2),#9);
#752=PRESENTATION_STYLE_ASSIGNMENT((#751));
#753=STYLED_ITEM('',(#752),#750);
#754=DIRECTION('',(-6.457140340854E-14,-1.E0,2.117942031800E-13));
#755=VECTOR('',#754,4.298431527037E-2);
#756=CARTESIAN_POINT('',(-2.485264061148E-1,1.396023938557E-1,
6.088679905034E-1));
#757=LINE('',#756,#755);
#758=CURVE_STYLE('',#21,POSITIVE_LENGTH_MEASURE(2.E-2),#9);
#759=PRESENTATION_STYLE_ASSIGNMENT((#758));
#760=STYLED_ITEM('',(#759),#757);
#761=DIRECTION('',(0.E0,1.E0,0.E0));
#762=VECTOR('',#761,6.406768151581E-2);
#763=CARTESIAN_POINT('',(-2.269164446369E-1,8.607639546262E-2,
5.348912185720E-1));
#764=LINE('',#763,#762);
#765=CURVE_STYLE('',#21,POSITIVE_LENGTH_MEASURE(2.E-2),#9);
#766=PRESENTATION_STYLE_ASSIGNMENT((#765));
#767=STYLED_ITEM('',(#766),#764);
#768=DIRECTION('',(6.978313398012E-13,-1.E0,4.554810469146E-13));
#769=VECTOR('',#768,6.459305025284E-2);
#770=CARTESIAN_POINT('',(-2.286395402228E-1,1.504067613470E-1,
5.303408285636E-1));
#771=LINE('',#770,#769);
#772=CURVE_STYLE('',#21,POSITIVE_LENGTH_MEASURE(2.E-2),#9);
#773=PRESENTATION_STYLE_ASSIGNMENT((#772));
#774=STYLED_ITEM('',(#773),#771);
#775=CARTESIAN_POINT('',(-2.409805931799E-1,9.694365737448E-2,
6.110892052054E-1));
#776=CARTESIAN_POINT('',(-2.409805931799E-1,1.392768150666E-1,
6.110892052054E-1));
#777=VERTEX_POINT('',#775);
#778=VERTEX_POINT('',#776);
#779=CARTESIAN_POINT('',(-2.193669274539E-1,1.500191835887E-1,
5.371001470383E-1));
#780=CARTESIAN_POINT('',(-2.193669163717E-1,8.620128667501E-2,
5.371001089712E-1));
#781=VERTEX_POINT('',#779);
#782=VERTEX_POINT('',#780);
#783=VERTEX_POINT('',#592);
#784=VERTEX_POINT('',#608);
#785=VERTEX_POINT('',#169);
#786=VERTEX_POINT('',#174);
#787=CARTESIAN_POINT('',(-2.432818984116E-1,1.543077545047E-1,
5.110987377810E-1));
#788=VERTEX_POINT('',#787);
#789=CARTESIAN_POINT('',(-2.489933119517E-1,1.712341170279E-1,
3.907760556849E-1));
#790=VERTEX_POINT('',#789);
#791=CARTESIAN_POINT('',(-2.488816862136E-1,1.189905602759E-1,
3.907118819875E-1));
#792=CARTESIAN_POINT('',(-2.488788557717E-1,1.712341170279E-1,
3.907760556849E-1));
#793=VERTEX_POINT('',#791);
#794=VERTEX_POINT('',#792);
#795=VERTEX_POINT('',#179);
#796=VERTEX_POINT('',#71);
#797=VERTEX_POINT('',#132);
#798=VERTEX_POINT('',#135);
#799=VERTEX_POINT('',#191);
#800=VERTEX_POINT('',#250);
#801=CARTESIAN_POINT('',(-2.394943574694E-1,8.256167423627E-2,
5.142838589499E-1));
#802=VERTEX_POINT('',#801);
#803=VERTEX_POINT('',#116);
#804=CARTESIAN_POINT('',(-2.374057928805E-1,8.539914455932E-2,
5.248329223194E-1));
#805=CARTESIAN_POINT('',(-2.229694532318E-1,8.539914455923E-2,
5.248330895003E-1));
#806=VERTEX_POINT('',#804);
#807=VERTEX_POINT('',#805);
#808=CARTESIAN_POINT('',(-2.485264061148E-1,1.396023938557E-1,
6.088679905034E-1));
#809=CARTESIAN_POINT('',(-2.485264061148E-1,9.661807858535E-2,
6.088679905034E-1));
#810=VERTEX_POINT('',#808);
#811=VERTEX_POINT('',#809);
#812=CARTESIAN_POINT('',(-2.269164446369E-1,8.607639546262E-2,
5.348912185720E-1));
#813=CARTESIAN_POINT('',(-2.269164446369E-1,1.501440769784E-1,
5.348912185720E-1));
#814=VERTEX_POINT('',#812);
#815=VERTEX_POINT('',#813);
#816=CARTESIAN_POINT('',(-2.488000396360E-1,1.394641502767E-1,
6.098111375401E-1));
#817=CARTESIAN_POINT('',(-2.488000396360E-1,9.675632216437E-2,
6.098111375401E-1));
#818=VERTEX_POINT('',#816);
#819=VERTEX_POINT('',#817);
#820=VERTEX_POINT('',#645);
#821=VERTEX_POINT('',#660);
#822=VERTEX_POINT('',#672);
#823=VERTEX_POINT('',#687);
#824=VERTEX_POINT('',#564);
#825=VERTEX_POINT('',#580);
#826=VERTEX_POINT('',#616);
#827=CARTESIAN_POINT('',(-2.478135143986E-1,1.275281093959E-1,
6.211967962882E-1));
#828=VERTEX_POINT('',#827);
#829=CARTESIAN_POINT('',(-2.278998296646E-1,1.499521899805E-1,
5.382579873869E-1));
#830=VERTEX_POINT('',#829);
#831=CARTESIAN_POINT('',(-2.278998296646E-1,8.626828246054E-2,
5.382579873870E-1));
#832=VERTEX_POINT('',#831);
#833=CARTESIAN_POINT('',(-2.197051557745E-1,8.626828246054E-2,
5.382579873870E-1));
#834=VERTEX_POINT('',#833);
#835=VERTEX_POINT('',#434);
#836=VERTEX_POINT('',#442);
#837=VERTEX_POINT('',#467);
#838=VERTEX_POINT('',#313);
#839=CARTESIAN_POINT('',(-2.458711178544E-1,1.522519393847E-1,
5.195142371237E-1));
#840=VERTEX_POINT('',#839);
#841=VERTEX_POINT('',#224);
#842=VERTEX_POINT('',#355);
#843=VERTEX_POINT('',#325);
#844=VERTEX_POINT('',#53);
#845=CARTESIAN_POINT('',(-2.436371560403E-1,8.170460971741E-2,
5.096194271883E-1));
#846=CARTESIAN_POINT('',(-2.436371560403E-1,1.545158561439E-1,
5.096194271883E-1));
#847=VERTEX_POINT('',#845);
#848=VERTEX_POINT('',#846);
#849=CARTESIAN_POINT('',(-2.489933000767E-1,6.498781462472E-2,
3.907902327769E-1));
#850=CARTESIAN_POINT('',(-2.488935728030E-1,8.173721290376E-2,
5.098511827579E-1));
#851=VERTEX_POINT('',#849);
#852=VERTEX_POINT('',#850);
#853=CARTESIAN_POINT('',(-2.488782304776E-1,6.498781462472E-2,
3.907902327769E-1));
#854=VERTEX_POINT('',#853);
#855=VERTEX_POINT('',#157);
#856=CARTESIAN_POINT('',(-2.489933657045E-1,1.189905602759E-1,
3.907118819875E-1));
#857=VERTEX_POINT('',#856);
#858=CARTESIAN_POINT('',(-2.197051557745E-1,1.499521899805E-1,
5.382579873869E-1));
#859=VERTEX_POINT('',#858);
#860=CARTESIAN_POINT('',(-2.488935728030E-1,1.712598425197E-1,
5.098511827579E-1));
#861=DIRECTION('',(-9.999996492005E-1,0.E0,8.376150092407E-4));
#862=DIRECTION('',(8.376150092407E-4,0.E0,9.999996492005E-1));
#863=AXIS2_PLACEMENT_3D('',#860,#861,#862);
#864=PLANE('',#863);
#866=ORIENTED_EDGE('',*,*,#865,.F.);
#868=ORIENTED_EDGE('',*,*,#867,.F.);
#870=ORIENTED_EDGE('',*,*,#869,.F.);
#872=ORIENTED_EDGE('',*,*,#871,.F.);
#874=ORIENTED_EDGE('',*,*,#873,.T.);
#875=EDGE_LOOP('',(#866,#868,#870,#872,#874));
#876=FACE_OUTER_BOUND('',#875,.F.);
#878=CARTESIAN_POINT('',(1.055425938018E-1,8.191271793677E-2,
5.110987377810E-1));
#879=DIRECTION('',(0.E0,9.902491772959E-1,-1.393074544480E-1));
#880=DIRECTION('',(0.E0,1.393074544480E-1,9.902491772959E-1));
#881=AXIS2_PLACEMENT_3D('',#878,#879,#880);
#882=PLANE('',#881);
#884=ORIENTED_EDGE('',*,*,#883,.F.);
#886=ORIENTED_EDGE('',*,*,#885,.F.);
#888=ORIENTED_EDGE('',*,*,#887,.T.);
#889=ORIENTED_EDGE('',*,*,#865,.T.);
#891=ORIENTED_EDGE('',*,*,#890,.T.);
#893=ORIENTED_EDGE('',*,*,#892,.T.);
#894=EDGE_LOOP('',(#884,#886,#888,#889,#891,#893));
#895=FACE_OUTER_BOUND('',#894,.F.);
#897=CARTESIAN_POINT('',(-2.436409213254E-1,1.712598425197E-1,
5.094661260709E-1));
#898=CARTESIAN_POINT('',(-2.436338313359E-1,1.712598425197E-1,
5.108884379823E-1));
#899=CARTESIAN_POINT('',(-2.428515422664E-1,1.712598425197E-1,
5.122318885395E-1));
#900=CARTESIAN_POINT('',(-2.416254825184E-1,1.712598425197E-1,
5.129419153913E-1));
#902=DIRECTION('',(0.E0,-1.E0,0.E0));
#903=VECTOR('',#902,1.E0);
#904=SURFACE_OF_LINEAR_EXTRUSION('',#901,#903);
#906=ORIENTED_EDGE('',*,*,#905,.T.);
#908=ORIENTED_EDGE('',*,*,#907,.F.);
#910=ORIENTED_EDGE('',*,*,#909,.T.);
#912=ORIENTED_EDGE('',*,*,#911,.T.);
#914=ORIENTED_EDGE('',*,*,#913,.F.);
#915=ORIENTED_EDGE('',*,*,#883,.T.);
#916=EDGE_LOOP('',(#906,#908,#910,#912,#914,#915));
#917=FACE_OUTER_BOUND('',#916,.F.);
#919=CARTESIAN_POINT('',(1.055425938018E-1,8.264035848521E-2,
5.145030147189E-1));
#920=CARTESIAN_POINT('',(1.055425938018E-1,8.238018711537E-2,
5.138618415118E-1));
#921=CARTESIAN_POINT('',(1.055425938018E-1,8.213258423532E-2,
5.124043681354E-1));
#922=CARTESIAN_POINT('',(1.055425938018E-1,8.187362925144E-2,
5.108668638187E-1));
#924=DIRECTION('',(-1.E0,0.E0,0.E0));
#925=VECTOR('',#924,1.E0);
#926=SURFACE_OF_LINEAR_EXTRUSION('',#923,#925);
#928=ORIENTED_EDGE('',*,*,#927,.T.);
#930=ORIENTED_EDGE('',*,*,#929,.F.);
#932=ORIENTED_EDGE('',*,*,#931,.F.);
#933=ORIENTED_EDGE('',*,*,#905,.F.);
#934=ORIENTED_EDGE('',*,*,#892,.F.);
#935=EDGE_LOOP('',(#928,#930,#932,#933,#934));
#936=FACE_OUTER_BOUND('',#935,.F.);
#938=CARTESIAN_POINT('',(-2.488936902422E-1,1.712598425197E-1,
5.171625070999E-1));
#939=CARTESIAN_POINT('',(-2.488881827156E-1,1.712598425197E-1,
5.158452948862E-1));
#940=CARTESIAN_POINT('',(-2.488765032956E-1,1.712598425197E-1,
5.133083795314E-1));
#941=CARTESIAN_POINT('',(-2.488893443754E-1,1.712598425197E-1,
5.107663770324E-1));
#942=CARTESIAN_POINT('',(-2.488950007359E-1,1.712598425197E-1,
5.095442199433E-1));
#944=DIRECTION('',(0.E0,-1.E0,0.E0));
#945=VECTOR('',#944,1.E0);
#946=SURFACE_OF_LINEAR_EXTRUSION('',#943,#945);
#948=ORIENTED_EDGE('',*,*,#947,.F.);
#949=ORIENTED_EDGE('',*,*,#927,.F.);
#950=ORIENTED_EDGE('',*,*,#890,.F.);
#951=ORIENTED_EDGE('',*,*,#873,.F.);
#953=ORIENTED_EDGE('',*,*,#952,.F.);
#955=ORIENTED_EDGE('',*,*,#954,.F.);
#957=ORIENTED_EDGE('',*,*,#956,.F.);
#959=ORIENTED_EDGE('',*,*,#958,.T.);
#960=EDGE_LOOP('',(#948,#949,#950,#951,#953,#955,#957,#959));
#961=FACE_OUTER_BOUND('',#960,.F.);
#963=CARTESIAN_POINT('',(1.055425938018E-1,8.539914455932E-2,
5.248329223194E-1));
#964=DIRECTION('',(0.E0,9.656769075462E-1,-2.597462419980E-1));
#965=DIRECTION('',(0.E0,2.597462419980E-1,9.656769075462E-1));
#966=AXIS2_PLACEMENT_3D('',#963,#964,#965);
#967=PLANE('',#966);
#968=ORIENTED_EDGE('',*,*,#947,.T.);
#970=ORIENTED_EDGE('',*,*,#969,.T.);
#972=ORIENTED_EDGE('',*,*,#971,.T.);
#974=ORIENTED_EDGE('',*,*,#973,.T.);
#976=ORIENTED_EDGE('',*,*,#975,.F.);
#978=ORIENTED_EDGE('',*,*,#977,.F.);
#979=ORIENTED_EDGE('',*,*,#929,.T.);
#980=EDGE_LOOP('',(#968,#970,#972,#974,#976,#978,#979));
#981=FACE_OUTER_BOUND('',#980,.F.);
#983=CARTESIAN_POINT('',(-2.396240476963E-1,1.712598425197E-1,
5.093684117611E-1));
#984=DIRECTION('',(0.E0,-1.E0,0.E0));
#985=DIRECTION('',(-5.243095798E-1,0.E0,8.515277238763E-1));
#986=AXIS2_PLACEMENT_3D('',#983,#984,#985);
#987=CYLINDRICAL_SURFACE('',#986,1.191485030746E-2);
#989=ORIENTED_EDGE('',*,*,#988,.F.);
#991=ORIENTED_EDGE('',*,*,#990,.F.);
#992=ORIENTED_EDGE('',*,*,#969,.F.);
#993=ORIENTED_EDGE('',*,*,#958,.F.);
#994=EDGE_LOOP('',(#989,#991,#992,#993));
#995=FACE_OUTER_BOUND('',#994,.F.);
#997=CARTESIAN_POINT('',(1.055425938018E-1,1.536587982050E-1,
5.142838589506E-1));
#998=DIRECTION('',(0.E0,-9.656769075377E-1,-2.597462420295E-1));
#999=DIRECTION('',(0.E0,2.597462420295E-1,-9.656769075377E-1));
#1000=AXIS2_PLACEMENT_3D('',#997,#998,#999);
#1001=PLANE('',#1000);
#1002=ORIENTED_EDGE('',*,*,#956,.T.);
#1004=ORIENTED_EDGE('',*,*,#1003,.T.);
#1006=ORIENTED_EDGE('',*,*,#1005,.F.);
#1008=ORIENTED_EDGE('',*,*,#1007,.F.);
#1010=ORIENTED_EDGE('',*,*,#1009,.T.);
#1012=ORIENTED_EDGE('',*,*,#1011,.T.);
#1013=ORIENTED_EDGE('',*,*,#988,.T.);
#1014=EDGE_LOOP('',(#1002,#1004,#1006,#1008,#1010,#1012,#1013));
#1015=FACE_OUTER_BOUND('',#1014,.F.);
#1017=CARTESIAN_POINT('',(1.055425938018E-1,1.543465465627E-1,
5.108686249906E-1));
#1018=CARTESIAN_POINT('',(1.055425938018E-1,1.540915416941E-1,
5.123826664978E-1));
#1019=CARTESIAN_POINT('',(1.055425938018E-1,1.538475371185E-1,
5.138188222036E-1));
#1020=CARTESIAN_POINT('',(1.055425938018E-1,1.535916879944E-1,
5.144739342317E-1));
#1022=DIRECTION('',(-1.E0,0.E0,0.E0));
#1023=VECTOR('',#1022,1.E0);
#1024=SURFACE_OF_LINEAR_EXTRUSION('',#1021,#1023);
#1025=ORIENTED_EDGE('',*,*,#954,.T.);
#1027=ORIENTED_EDGE('',*,*,#1026,.F.);
#1028=ORIENTED_EDGE('',*,*,#909,.F.);
#1030=ORIENTED_EDGE('',*,*,#1029,.F.);
#1031=ORIENTED_EDGE('',*,*,#1003,.F.);
#1032=EDGE_LOOP('',(#1025,#1027,#1028,#1030,#1031));
#1033=FACE_OUTER_BOUND('',#1032,.F.);
#1035=CARTESIAN_POINT('',(1.055425938018E-1,1.712341170279E-1,
3.907760556849E-1));
#1036=DIRECTION('',(0.E0,-9.902497849187E-1,-1.393031351707E-1));
#1037=DIRECTION('',(0.E0,1.393031351707E-1,-9.902497849187E-1));
#1038=AXIS2_PLACEMENT_3D('',#1035,#1036,#1037);
#1039=PLANE('',#1038);
#1040=ORIENTED_EDGE('',*,*,#911,.F.);
#1041=ORIENTED_EDGE('',*,*,#1026,.T.);
#1042=ORIENTED_EDGE('',*,*,#952,.T.);
#1043=ORIENTED_EDGE('',*,*,#871,.T.);
#1045=ORIENTED_EDGE('',*,*,#1044,.F.);
#1047=ORIENTED_EDGE('',*,*,#1046,.F.);
#1048=EDGE_LOOP('',(#1040,#1041,#1042,#1043,#1045,#1047));
#1049=FACE_OUTER_BOUND('',#1048,.F.);
#1051=CARTESIAN_POINT('',(1.055425938018E-1,1.189905602759E-1,
3.907118819875E-1));
#1052=DIRECTION('',(0.E0,-1.228355283816E-3,9.999992455714E-1));
#1053=DIRECTION('',(0.E0,-9.999992455714E-1,-1.228355283816E-3));
#1054=AXIS2_PLACEMENT_3D('',#1051,#1052,#1053);
#1055=PLANE('',#1054);
#1057=ORIENTED_EDGE('',*,*,#1056,.T.);
#1058=ORIENTED_EDGE('',*,*,#1044,.T.);
#1059=ORIENTED_EDGE('',*,*,#869,.T.);
#1061=ORIENTED_EDGE('',*,*,#1060,.F.);
#1062=EDGE_LOOP('',(#1057,#1058,#1059,#1061));
#1063=FACE_OUTER_BOUND('',#1062,.F.);
#1065=CARTESIAN_POINT('',(-2.489955276655E-1,1.712598425197E-1,
3.881307913759E-1));
#1066=DIRECTION('',(9.990287494394E-1,0.E0,-4.406311148374E-2));
#1067=DIRECTION('',(-4.406311148374E-2,0.E0,-9.990287494394E-1));
#1068=AXIS2_PLACEMENT_3D('',#1065,#1066,#1067);
#1069=PLANE('',#1068);
#1070=ORIENTED_EDGE('',*,*,#885,.T.);
#1071=ORIENTED_EDGE('',*,*,#913,.T.);
#1072=ORIENTED_EDGE('',*,*,#1046,.T.);
#1073=ORIENTED_EDGE('',*,*,#1056,.F.);
#1075=ORIENTED_EDGE('',*,*,#1074,.F.);
#1076=EDGE_LOOP('',(#1070,#1071,#1072,#1073,#1075));
#1077=FACE_OUTER_BOUND('',#1076,.F.);
#1079=CARTESIAN_POINT('',(1.055425938018E-1,6.498781462471E-2,
3.907902327769E-1));
#1080=DIRECTION('',(0.E0,1.450865247007E-3,9.999989474945E-1));
#1081=DIRECTION('',(0.E0,-9.999989474945E-1,1.450865247007E-3));
#1082=AXIS2_PLACEMENT_3D('',#1079,#1080,#1081);
#1083=PLANE('',#1082);
#1084=ORIENTED_EDGE('',*,*,#1074,.T.);
#1085=ORIENTED_EDGE('',*,*,#1060,.T.);
#1086=ORIENTED_EDGE('',*,*,#867,.T.);
#1087=ORIENTED_EDGE('',*,*,#887,.F.);
#1088=EDGE_LOOP('',(#1084,#1085,#1086,#1087));
#1089=FACE_OUTER_BOUND('',#1088,.F.);
#1091=CARTESIAN_POINT('',(-2.417570333163E-1,1.712598425197E-1,
5.128622406935E-1));
#1092=DIRECTION('',(5.320011663205E-1,0.E0,-8.467436206040E-1));
#1093=DIRECTION('',(-8.467436206040E-1,0.E0,-5.320011663205E-1));
#1094=AXIS2_PLACEMENT_3D('',#1091,#1092,#1093);
#1095=PLANE('',#1094);
#1096=ORIENTED_EDGE('',*,*,#1029,.T.);
#1097=ORIENTED_EDGE('',*,*,#907,.T.);
#1098=ORIENTED_EDGE('',*,*,#931,.T.);
#1099=ORIENTED_EDGE('',*,*,#977,.T.);
#1101=ORIENTED_EDGE('',*,*,#1100,.T.);
#1102=ORIENTED_EDGE('',*,*,#1005,.T.);
#1103=EDGE_LOOP('',(#1096,#1097,#1098,#1099,#1101,#1102));
#1104=FACE_OUTER_BOUND('',#1103,.F.);
#1106=CARTESIAN_POINT('',(-2.246575492924E-1,1.712598425197E-1,
5.236086725565E-1));
#1107=CARTESIAN_POINT('',(-2.223971884730E-1,1.712598425197E-1,
5.249570446794E-1));
#1108=CARTESIAN_POINT('',(-2.188205455532E-1,1.712598425197E-1,
5.292035532790E-1));
#1109=CARTESIAN_POINT('',(-2.186318590589E-1,1.712598425197E-1,
5.347408561459E-1));
#1110=CARTESIAN_POINT('',(-2.194117010181E-1,1.712598425197E-1,
5.372475850518E-1));
#1112=DIRECTION('',(0.E0,-1.E0,0.E0));
#1113=VECTOR('',#1112,1.E0);
#1114=SURFACE_OF_LINEAR_EXTRUSION('',#1111,#1113);
#1115=ORIENTED_EDGE('',*,*,#1007,.T.);
#1116=ORIENTED_EDGE('',*,*,#1100,.F.);
#1117=ORIENTED_EDGE('',*,*,#975,.T.);
#1119=ORIENTED_EDGE('',*,*,#1118,.T.);
#1121=ORIENTED_EDGE('',*,*,#1120,.F.);
#1123=ORIENTED_EDGE('',*,*,#1122,.T.);
#1124=EDGE_LOOP('',(#1115,#1116,#1117,#1119,#1121,#1123));
#1125=FACE_OUTER_BOUND('',#1124,.F.);
#1127=CARTESIAN_POINT('',(1.055425938018E-1,8.628319533727E-2,
5.385114557154E-1));
#1128=CARTESIAN_POINT('',(1.055425938018E-1,8.613336806149E-2,
5.359740083789E-1));
#1129=CARTESIAN_POINT('',(1.055425938018E-1,8.582991926439E-2,
5.302650594520E-1));
#1130=CARTESIAN_POINT('',(1.055425938018E-1,8.552647046730E-2,
5.259275542520E-1));
#1131=CARTESIAN_POINT('',(1.055425938018E-1,8.537284894598E-2,
5.245967778601E-1));
#1133=DIRECTION('',(-1.E0,0.E0,0.E0));
#1134=VECTOR('',#1133,1.E0);
#1135=SURFACE_OF_LINEAR_EXTRUSION('',#1132,#1134);
#1137=ORIENTED_EDGE('',*,*,#1136,.T.);
#1139=ORIENTED_EDGE('',*,*,#1138,.T.);
#1141=ORIENTED_EDGE('',*,*,#1140,.T.);
#1143=ORIENTED_EDGE('',*,*,#1142,.F.);
#1145=ORIENTED_EDGE('',*,*,#1144,.F.);
#1146=ORIENTED_EDGE('',*,*,#1118,.F.);
#1147=ORIENTED_EDGE('',*,*,#973,.F.);
#1148=EDGE_LOOP('',(#1137,#1139,#1141,#1143,#1145,#1146,#1147));
#1149=FACE_OUTER_BOUND('',#1148,.F.);
#1151=CARTESIAN_POINT('',(-2.286395402227E-1,1.712598425197E-1,
5.303406775888E-1));
#1152=DIRECTION('',(-5.320011663214E-1,0.E0,8.467436206035E-1));
#1153=DIRECTION('',(8.467436206035E-1,0.E0,5.320011663214E-1));
#1154=AXIS2_PLACEMENT_3D('',#1151,#1152,#1153);
#1155=PLANE('',#1154);
#1156=ORIENTED_EDGE('',*,*,#1011,.F.);
#1158=ORIENTED_EDGE('',*,*,#1157,.F.);
#1160=ORIENTED_EDGE('',*,*,#1159,.T.);
#1161=ORIENTED_EDGE('',*,*,#1136,.F.);
#1162=ORIENTED_EDGE('',*,*,#971,.F.);
#1163=ORIENTED_EDGE('',*,*,#990,.T.);
#1164=EDGE_LOOP('',(#1156,#1158,#1160,#1161,#1162,#1163));
#1165=FACE_OUTER_BOUND('',#1164,.F.);
#1167=CARTESIAN_POINT('',(1.055425938018E-1,1.508494873194E-1,
5.245806745994E-1));
#1168=CARTESIAN_POINT('',(1.055425938018E-1,1.506952445233E-1,
5.259097989644E-1));
#1169=CARTESIAN_POINT('',(1.055425938018E-1,1.503912077895E-1,
5.302528948424E-1));
#1170=CARTESIAN_POINT('',(1.055425938018E-1,1.500871710556E-1,
5.359727539828E-1));
#1171=CARTESIAN_POINT('',(1.055425938018E-1,1.499373771178E-1,
5.385097618543E-1));
#1173=DIRECTION('',(-1.E0,0.E0,0.E0));
#1174=VECTOR('',#1173,1.E0);
#1175=SURFACE_OF_LINEAR_EXTRUSION('',#1172,#1174);
#1176=ORIENTED_EDGE('',*,*,#1157,.T.);
#1177=ORIENTED_EDGE('',*,*,#1009,.F.);
#1178=ORIENTED_EDGE('',*,*,#1122,.F.);
#1180=ORIENTED_EDGE('',*,*,#1179,.F.);
#1182=ORIENTED_EDGE('',*,*,#1181,.F.);
#1184=ORIENTED_EDGE('',*,*,#1183,.T.);
#1186=ORIENTED_EDGE('',*,*,#1185,.T.);
#1187=EDGE_LOOP('',(#1176,#1177,#1178,#1180,#1182,#1184,#1186));
#1188=FACE_OUTER_BOUND('',#1187,.F.);
#1190=CARTESIAN_POINT('',(-2.193668248883E-1,1.712598425197E-1,
5.370997949609E-1));
#1191=DIRECTION('',(9.598830123916E-1,0.E0,2.804007890897E-1));
#1192=DIRECTION('',(2.804007890897E-1,0.E0,-9.598830123916E-1));
#1193=AXIS2_PLACEMENT_3D('',#1190,#1191,#1192);
#1194=PLANE('',#1193);
#1195=ORIENTED_EDGE('',*,*,#1179,.T.);
#1196=ORIENTED_EDGE('',*,*,#1120,.T.);
#1197=ORIENTED_EDGE('',*,*,#1144,.T.);
#1199=ORIENTED_EDGE('',*,*,#1198,.T.);
#1201=ORIENTED_EDGE('',*,*,#1200,.T.);
#1203=ORIENTED_EDGE('',*,*,#1202,.T.);
#1204=EDGE_LOOP('',(#1195,#1196,#1197,#1199,#1201,#1203));
#1205=FACE_OUTER_BOUND('',#1204,.F.);
#1207=CARTESIAN_POINT('',(1.055425938018E-1,9.699628349313E-2,
6.114482393697E-1));
#1208=DIRECTION('',(0.E0,9.894276612064E-1,-1.450272499896E-1));
#1209=DIRECTION('',(0.E0,1.450272499896E-1,9.894276612064E-1));
#1210=AXIS2_PLACEMENT_3D('',#1207,#1208,#1209);
#1211=PLANE('',#1210);
#1213=ORIENTED_EDGE('',*,*,#1212,.T.);
#1215=ORIENTED_EDGE('',*,*,#1214,.T.);
#1217=ORIENTED_EDGE('',*,*,#1216,.T.);
#1219=ORIENTED_EDGE('',*,*,#1218,.T.);
#1221=ORIENTED_EDGE('',*,*,#1220,.T.);
#1222=ORIENTED_EDGE('',*,*,#1198,.F.);
#1223=ORIENTED_EDGE('',*,*,#1142,.T.);
#1224=EDGE_LOOP('',(#1213,#1215,#1217,#1219,#1221,#1222,#1223));
#1225=FACE_OUTER_BOUND('',#1224,.F.);
#1227=CARTESIAN_POINT('',(-2.485264061148E-1,1.712598425197E-1,
6.088679905034E-1));
#1228=DIRECTION('',(-9.598830133563E-1,0.E0,-2.804007857872E-1));
#1229=DIRECTION('',(-2.804007857872E-1,0.E0,9.598830133563E-1));
#1230=AXIS2_PLACEMENT_3D('',#1227,#1228,#1229);
#1231=PLANE('',#1230);
#1232=ORIENTED_EDGE('',*,*,#1183,.F.);
#1234=ORIENTED_EDGE('',*,*,#1233,.F.);
#1236=ORIENTED_EDGE('',*,*,#1235,.T.);
#1237=ORIENTED_EDGE('',*,*,#1212,.F.);
#1238=ORIENTED_EDGE('',*,*,#1140,.F.);
#1240=ORIENTED_EDGE('',*,*,#1239,.T.);
#1241=EDGE_LOOP('',(#1232,#1234,#1236,#1237,#1238,#1240));
#1242=FACE_OUTER_BOUND('',#1241,.F.);
#1244=CARTESIAN_POINT('',(1.055425938018E-1,1.499521899805E-1,
5.382579873869E-1));
#1245=DIRECTION('',(0.E0,-9.894276612065E-1,-1.450272499895E-1));
#1246=DIRECTION('',(0.E0,1.450272499895E-1,-9.894276612065E-1));
#1247=AXIS2_PLACEMENT_3D('',#1244,#1245,#1246);
#1248=PLANE('',#1247);
#1249=ORIENTED_EDGE('',*,*,#1233,.T.);
#1250=ORIENTED_EDGE('',*,*,#1181,.T.);
#1251=ORIENTED_EDGE('',*,*,#1202,.F.);
#1253=ORIENTED_EDGE('',*,*,#1252,.T.);
#1255=ORIENTED_EDGE('',*,*,#1254,.T.);
#1257=ORIENTED_EDGE('',*,*,#1256,.T.);
#1259=ORIENTED_EDGE('',*,*,#1258,.T.);
#1260=EDGE_LOOP('',(#1249,#1250,#1251,#1253,#1255,#1257,#1259));
#1261=FACE_OUTER_BOUND('',#1260,.F.);
#1263=CARTESIAN_POINT('',(-2.404420449334E-1,1.712598425197E-1,
6.111542305105E-1));
#1264=DIRECTION('',(0.E0,1.E0,0.E0));
#1265=DIRECTION('',(-2.807276846076E-1,0.E0,9.597874593340E-1));
#1266=AXIS2_PLACEMENT_3D('',#1263,#1264,#1265);
#1269=DIRECTION('',(0.E0,-1.E0,0.E0));
#1270=VECTOR('',#1269,1.E0);
#1271=SURFACE_OF_LINEAR_EXTRUSION('',#1268,#1270);
#1272=ORIENTED_EDGE('',*,*,#1252,.F.);
#1273=ORIENTED_EDGE('',*,*,#1200,.F.);
#1274=ORIENTED_EDGE('',*,*,#1220,.F.);
#1276=ORIENTED_EDGE('',*,*,#1275,.T.);
#1278=ORIENTED_EDGE('',*,*,#1277,.F.);
#1280=ORIENTED_EDGE('',*,*,#1279,.T.);
#1281=EDGE_LOOP('',(#1272,#1273,#1274,#1276,#1278,#1280));
#1282=FACE_OUTER_BOUND('',#1281,.F.);
#1284=CARTESIAN_POINT('',(1.055425938018E-1,1.086923630452E-1,
6.098721537504E-1));
#1285=DIRECTION('',(1.E0,0.E0,0.E0));
#1286=DIRECTION('',(0.E0,1.E0,1.156482317318E-14));
#1287=AXIS2_PLACEMENT_3D('',#1284,#1285,#1286);
#1290=DIRECTION('',(-1.E0,0.E0,0.E0));
#1291=VECTOR('',#1290,1.E0);
#1292=SURFACE_OF_LINEAR_EXTRUSION('',#1289,#1291);
#1294=ORIENTED_EDGE('',*,*,#1293,.T.);
#1296=ORIENTED_EDGE('',*,*,#1295,.T.);
#1298=ORIENTED_EDGE('',*,*,#1297,.F.);
#1299=ORIENTED_EDGE('',*,*,#1275,.F.);
#1300=ORIENTED_EDGE('',*,*,#1218,.F.);
#1301=EDGE_LOOP('',(#1294,#1296,#1298,#1299,#1300));
#1302=FACE_OUTER_BOUND('',#1301,.F.);
#1304=CARTESIAN_POINT('',(-2.487187021165E-1,1.712598425197E-1,
6.212746350324E-1));
#1305=CARTESIAN_POINT('',(-2.487265122303E-1,1.712598425197E-1,
6.209632778436E-1));
#1306=CARTESIAN_POINT('',(-2.487389279250E-1,1.712598425197E-1,
6.207745759861E-1));
#1307=CARTESIAN_POINT('',(-2.487552525281E-1,1.712598425197E-1,
6.197587093948E-1));
#1308=CARTESIAN_POINT('',(-2.487653509482E-1,1.712598425197E-1,
6.186485282010E-1));
#1309=CARTESIAN_POINT('',(-2.487764576675E-1,1.712598425197E-1,
6.168608139111E-1));
#1310=CARTESIAN_POINT('',(-2.488035535910E-1,1.712598425197E-1,
6.136528680057E-1));
#1311=CARTESIAN_POINT('',(-2.487998038556E-1,1.712598425197E-1,
6.105302089677E-1));
#1312=CARTESIAN_POINT('',(-2.487999130843E-1,1.712598425197E-1,
6.086979541336E-1));
#1314=DIRECTION('',(0.E0,-1.E0,0.E0));
#1315=VECTOR('',#1314,1.E0);
#1316=SURFACE_OF_LINEAR_EXTRUSION('',#1313,#1315);
#1317=ORIENTED_EDGE('',*,*,#1256,.F.);
#1319=ORIENTED_EDGE('',*,*,#1318,.F.);
#1321=ORIENTED_EDGE('',*,*,#1320,.F.);
#1322=ORIENTED_EDGE('',*,*,#1293,.F.);
#1323=ORIENTED_EDGE('',*,*,#1216,.F.);
#1325=ORIENTED_EDGE('',*,*,#1324,.F.);
#1326=EDGE_LOOP('',(#1317,#1319,#1321,#1322,#1323,#1325));
#1327=FACE_OUTER_BOUND('',#1326,.F.);
#1329=CARTESIAN_POINT('',(1.055425938018E-1,1.275281093959E-1,
6.098721537504E-1));
#1330=DIRECTION('',(1.E0,0.E0,0.E0));
#1331=DIRECTION('',(0.E0,1.E0,1.156482317318E-14));
#1332=AXIS2_PLACEMENT_3D('',#1329,#1330,#1331);
#1335=DIRECTION('',(-1.E0,0.E0,0.E0));
#1336=VECTOR('',#1335,1.E0);
#1337=SURFACE_OF_LINEAR_EXTRUSION('',#1334,#1336);
#1338=ORIENTED_EDGE('',*,*,#1318,.T.);
#1339=ORIENTED_EDGE('',*,*,#1254,.F.);
#1340=ORIENTED_EDGE('',*,*,#1279,.F.);
#1342=ORIENTED_EDGE('',*,*,#1341,.F.);
#1344=ORIENTED_EDGE('',*,*,#1343,.T.);
#1345=EDGE_LOOP('',(#1338,#1339,#1340,#1342,#1344));
#1346=FACE_OUTER_BOUND('',#1345,.F.);
#1348=CARTESIAN_POINT('',(1.055425938018E-1,1.275281093959E-1,
6.211967962882E-1));
#1349=DIRECTION('',(0.E0,0.E0,-1.E0));
#1350=DIRECTION('',(-1.E0,0.E0,0.E0));
#1351=AXIS2_PLACEMENT_3D('',#1348,#1349,#1350);
#1352=PLANE('',#1351);
#1354=ORIENTED_EDGE('',*,*,#1353,.T.);
#1355=ORIENTED_EDGE('',*,*,#1341,.T.);
#1356=ORIENTED_EDGE('',*,*,#1277,.T.);
#1357=ORIENTED_EDGE('',*,*,#1297,.T.);
#1358=EDGE_LOOP('',(#1354,#1355,#1356,#1357));
#1359=FACE_OUTER_BOUND('',#1358,.F.);
#1361=CARTESIAN_POINT('',(-2.437964938482E-1,1.712598425197E-1,
6.223717323297E-1));
#1362=DIRECTION('',(-2.807276846064E-1,0.E0,9.597874593344E-1));
#1363=DIRECTION('',(9.597874593344E-1,0.E0,2.807276846064E-1));
#1364=AXIS2_PLACEMENT_3D('',#1361,#1362,#1363);
#1365=PLANE('',#1364);
#1366=ORIENTED_EDGE('',*,*,#1343,.F.);
#1367=ORIENTED_EDGE('',*,*,#1353,.F.);
#1368=ORIENTED_EDGE('',*,*,#1295,.F.);
#1369=ORIENTED_EDGE('',*,*,#1320,.T.);
#1370=EDGE_LOOP('',(#1366,#1367,#1368,#1369));
#1371=FACE_OUTER_BOUND('',#1370,.F.);
#1373=CARTESIAN_POINT('',(-2.479916647669E-1,1.712598425197E-1,
6.089460465268E-1));
#1374=DIRECTION('',(0.E0,-1.E0,0.E0));
#1375=DIRECTION('',(2.807276846075E-1,0.E0,-9.597874593340E-1));
#1376=AXIS2_PLACEMENT_3D('',#1373,#1374,#1375);
#1379=DIRECTION('',(0.E0,-1.E0,0.E0));
#1380=VECTOR('',#1379,1.E0);
#1381=SURFACE_OF_LINEAR_EXTRUSION('',#1378,#1380);
#1382=ORIENTED_EDGE('',*,*,#1258,.F.);
#1383=ORIENTED_EDGE('',*,*,#1324,.T.);
#1384=ORIENTED_EDGE('',*,*,#1214,.F.);
#1385=ORIENTED_EDGE('',*,*,#1235,.F.);
#1386=EDGE_LOOP('',(#1382,#1383,#1384,#1385));
#1387=FACE_OUTER_BOUND('',#1386,.F.);
#1389=CARTESIAN_POINT('',(-2.308036456391E-1,1.712598425197E-1,
5.337617311928E-1));
#1390=DIRECTION('',(0.E0,1.E0,0.E0));
#1391=DIRECTION('',(9.602577059746E-1,0.E0,2.791149191934E-1));
#1392=AXIS2_PLACEMENT_3D('',#1389,#1390,#1391);
#1393=CYLINDRICAL_SURFACE('',#1392,4.048081028675E-3);
#1394=ORIENTED_EDGE('',*,*,#1185,.F.);
#1395=ORIENTED_EDGE('',*,*,#1239,.F.);
#1396=ORIENTED_EDGE('',*,*,#1138,.F.);
#1397=ORIENTED_EDGE('',*,*,#1159,.F.);
#1398=EDGE_LOOP('',(#1394,#1395,#1396,#1397));
#1399=FACE_OUTER_BOUND('',#1398,.F.);
#1403=FILL_AREA_STYLE_COLOUR('',#9);
#1404=FILL_AREA_STYLE('',(#1403));
#1405=SURFACE_STYLE_FILL_AREA(#1404);
#1406=SURFACE_SIDE_STYLE('',(#1405));
#1407=SURFACE_STYLE_USAGE(.BOTH.,#1406);
#1408=PRESENTATION_STYLE_ASSIGNMENT((#1407));
#16=STYLED_ITEM('',(#1408),#1402);
#1409=PRESENTATION_LAYER_ASSIGNMENT('SHELL_225','',(#16,#877,#896,#901,#918,
#923,#937,#943,#962,#982,#996,#1016,#1021,#1034,#1050,#1064,#1078,#1090,#1105,
#1111,#1126,#1132,#1150,#1166,#1172,#1189,#1206,#1226,#1243,#1262,#1268,#1283,
#1289,#1303,#1313,#1328,#1334,#1347,#1360,#1372,#1378,#1388,#1400));
#1411=LENGTH_MEASURE_WITH_UNIT(LENGTH_MEASURE(2.54E1),#1410);
#1412=(CONVERSION_BASED_UNIT('INCH',#1411)LENGTH_UNIT()NAMED_UNIT(*));
#1414=PLANE_ANGLE_MEASURE_WITH_UNIT(PLANE_ANGLE_MEASURE(1.745329251994E-2),
#1413);
#1415=(CONVERSION_BASED_UNIT('DEGREE',#1414)NAMED_UNIT(*)PLANE_ANGLE_UNIT());
#1417=UNCERTAINTY_MEASURE_WITH_UNIT(LENGTH_MEASURE(2.555641209705E-5),#1412,
'closure',
'Maximum model space distance between geometric entities at asserted connectivities');
#1419=CARTESIAN_POINT('',(0.E0,0.E0,0.E0));
#1420=DIRECTION('',(0.E0,0.E0,1.E0));
#1421=DIRECTION('',(1.E0,0.E0,0.E0));
#1424=MECHANICAL_DESIGN_GEOMETRIC_PRESENTATION_REPRESENTATION('',(#24,#31,#38,
#45,#52,#63,#70,#81,#91,#98,#108,#115,#124,#131,#139,#151,#161,#168,#178,#190,
#198,#205,#213,#220,#228,#235,#242,#249,#258,#265,#272,#279,#286,#293,#300,#307,
#317,#324,#334,#341,#354,#370,#378,#385,#395,#412,#419,#426,#433,#446,#453,#471,
#481,#488,#496,#512,#519,#526,#533,#540,#548,#555,#563,#584,#591,#612,#620,#627,
#634,#644,#664,#671,#691,#701,#708,#715,#722,#730,#737,#745,#753,#760,#767,#774,
#16),#1418);
#1425=APPLICATION_CONTEXT('automotive design');
#1426=APPLICATION_PROTOCOL_DEFINITION('international standard',
'config_control_design',1994,#1425);
#1427=PRODUCT_DEFINITION_CONTEXT('',#1425,'design');
#1428=PRODUCT_CONTEXT('',#1425,'mechanical');
#1429=PRODUCT('BODY-MOVE_COPY1100','BODY-MOVE_COPY1100','NOT SPECIFIED',
(#1428));
#1430=PRODUCT_DEFINITION_FORMATION_WITH_SPECIFIED_SOURCE('1','LAST_VERSION',
#1429,.MADE.);
#1438=LENGTH_MEASURE_WITH_UNIT(LENGTH_MEASURE(2.54E1),#1437);
#1439=(CONVERSION_BASED_UNIT('INCH',#1438)LENGTH_UNIT()NAMED_UNIT(*));
#1440=DERIVED_UNIT_ELEMENT(#1439,2.E0);
#1441=AREA_UNIT((#1440));
#1442=MEASURE_REPRESENTATION_ITEM('surface area measure',AREA_MEASURE(
2.473461306724E1),#1441);
#1447=LENGTH_MEASURE_WITH_UNIT(LENGTH_MEASURE(2.54E1),#1446);
#1448=(CONVERSION_BASED_UNIT('INCH',#1447)LENGTH_UNIT()NAMED_UNIT(*));
#1449=DERIVED_UNIT_ELEMENT(#1448,3.E0);
#1450=VOLUME_UNIT((#1449));
#1451=MEASURE_REPRESENTATION_ITEM('volume measure',VOLUME_MEASURE(
1.336334078239E0),#1450);
#1455=CARTESIAN_POINT('centre point',(-6.056539974842E0,2.999999646075E0,
1.336818728261E1));
#1460=LENGTH_MEASURE_WITH_UNIT(LENGTH_MEASURE(2.54E1),#1459);
#1461=(CONVERSION_BASED_UNIT('INCH',#1460)LENGTH_UNIT()NAMED_UNIT(*));
#1462=DERIVED_UNIT_ELEMENT(#1461,2.E0);
#1463=AREA_UNIT((#1462));
#1464=MEASURE_REPRESENTATION_ITEM('surface area measure',AREA_MEASURE(
2.473461306724E1),#1463);
#1469=LENGTH_MEASURE_WITH_UNIT(LENGTH_MEASURE(2.54E1),#1468);
#1470=(CONVERSION_BASED_UNIT('INCH',#1469)LENGTH_UNIT()NAMED_UNIT(*));
#1471=DERIVED_UNIT_ELEMENT(#1470,3.E0);
#1472=VOLUME_UNIT((#1471));
#1473=MEASURE_REPRESENTATION_ITEM('volume measure',VOLUME_MEASURE(
1.336334078239E0),#1472);
#1477=CARTESIAN_POINT('centre point',(-6.056539974842E0,2.999999646075E0,
1.336818728261E1));
#1=DRAUGHTING_PRE_DEFINED_COLOUR('green');
#2=COLOUR_RGB('',1.1E-2,1.2E-2,1.E0);
#3=COLOUR_RGB('',2.352941176471E-1,2.352941176471E-1,2.352941176471E-1);
#4=COLOUR_RGB('',4.1E-1,2.61589E-1,1.12848E-1);
#5=COLOUR_RGB('',5.04854E-1,1.5455E-2,1.5455E-2);
#6=COLOUR_RGB('',6.35294E-1,6.86275E-1,7.4902E-1);
#7=COLOUR_RGB('',6.40777E-1,6.40777E-1,6.40777E-1);
#8=COLOUR_RGB('',6.69062E-1,6.69903E-1,6.55217E-1);
#9=COLOUR_RGB('',7.921568627451E-1,8.196078431373E-1,9.333333333333E-1);
#10=COLOUR_RGB('',9.21569E-1,7.05882E-1,4.70588E-1);
#11=DRAUGHTING_PRE_DEFINED_COLOUR('red');
#12=DRAUGHTING_PRE_DEFINED_COLOUR('yellow');
#13=COLOUR_RGB('',1.E0,1.E0,5.3E-1);
#14=COLOUR_RGB('',1.E0,1.E0,9.49E-1);
#15=DRAUGHTING_PRE_DEFINED_COLOUR('white');
#60=B_SPLINE_CURVE_WITH_KNOTS('',3,(#53,#54,#55,#56,#57,#58,#59),.UNSPECIFIED.,
.F.,.F.,(4,1,1,1,4),(0.E0,2.5E-1,5.E-1,7.5E-1,1.E0),.UNSPECIFIED.);
#78=B_SPLINE_CURVE_WITH_KNOTS('',3,(#71,#72,#73,#74,#75,#76,#77),.UNSPECIFIED.,
.F.,.F.,(4,1,1,1,4),(0.E0,2.5E-1,5.E-1,7.5E-1,1.E0),.UNSPECIFIED.);
#88=B_SPLINE_CURVE_WITH_KNOTS('',3,(#82,#83,#84,#85,#86,#87),.UNSPECIFIED.,.F.,
.F.,(4,1,1,4),(0.E0,3.333333333333E-1,6.666666666667E-1,1.E0),.UNSPECIFIED.);
#105=B_SPLINE_CURVE_WITH_KNOTS('',3,(#99,#100,#101,#102,#103,#104),
.UNSPECIFIED.,.F.,.F.,(4,1,1,4),(0.E0,3.333333333333E-1,6.666666666667E-1,1.E0),
.UNSPECIFIED.);
#121=B_SPLINE_CURVE_WITH_KNOTS('',3,(#116,#117,#118,#119,#120),.UNSPECIFIED.,
.F.,.F.,(4,1,4),(0.E0,5.E-1,1.E0),.UNSPECIFIED.);
#136=B_SPLINE_CURVE_WITH_KNOTS('',3,(#132,#133,#134,#135),.UNSPECIFIED.,.F.,.F.,
(4,4),(0.E0,1.E0),.UNSPECIFIED.);
#148=B_SPLINE_CURVE_WITH_KNOTS('',3,(#140,#141,#142,#143,#144,#145,#146,#147),
.UNSPECIFIED.,.F.,.F.,(4,1,1,1,1,4),(0.E0,2.E-1,4.E-1,6.E-1,8.E-1,1.E0),
.UNSPECIFIED.);
#158=B_SPLINE_CURVE_WITH_KNOTS('',3,(#152,#153,#154,#155,#156,#157),
.UNSPECIFIED.,.F.,.F.,(4,1,1,4),(0.E0,3.333333333333E-1,6.666666666667E-1,1.E0),
.UNSPECIFIED.);
#175=B_SPLINE_CURVE_WITH_KNOTS('',3,(#169,#170,#171,#172,#173,#174),
.UNSPECIFIED.,.F.,.F.,(4,1,1,4),(0.E0,3.333333333333E-1,6.666666666667E-1,1.E0),
.UNSPECIFIED.);
#187=B_SPLINE_CURVE_WITH_KNOTS('',3,(#179,#180,#181,#182,#183,#184,#185,#186),
.UNSPECIFIED.,.F.,.F.,(4,1,1,1,1,4),(0.E0,2.E-1,4.E-1,6.E-1,8.E-1,1.E0),
.UNSPECIFIED.);
#195=B_SPLINE_CURVE_WITH_KNOTS('',3,(#191,#192,#193,#194),.UNSPECIFIED.,.F.,.F.,
(4,4),(0.E0,1.E0),.UNSPECIFIED.);
#210=B_SPLINE_CURVE_WITH_KNOTS('',3,(#206,#207,#208,#209),.UNSPECIFIED.,.F.,.F.,
(4,4),(0.E0,1.E0),.UNSPECIFIED.);
#225=B_SPLINE_CURVE_WITH_KNOTS('',3,(#221,#222,#223,#224),.UNSPECIFIED.,.F.,.F.,
(4,4),(0.E0,1.E0),.UNSPECIFIED.);
#255=B_SPLINE_CURVE_WITH_KNOTS('',3,(#250,#251,#252,#253,#254),.UNSPECIFIED.,
.F.,.F.,(4,1,4),(0.E0,5.E-1,1.E0),.UNSPECIFIED.);
#314=B_SPLINE_CURVE_WITH_KNOTS('',3,(#308,#309,#310,#311,#312,#313),
.UNSPECIFIED.,.F.,.F.,(4,1,1,4),(0.E0,3.333333333333E-1,6.666666666667E-1,1.E0),
.UNSPECIFIED.);
#331=B_SPLINE_CURVE_WITH_KNOTS('',3,(#325,#326,#327,#328,#329,#330),
.UNSPECIFIED.,.F.,.F.,(4,1,1,4),(0.E0,3.333333333333E-1,6.666666666667E-1,1.E0),
.UNSPECIFIED.);
#351=B_SPLINE_CURVE_WITH_KNOTS('',3,(#342,#343,#344,#345,#346,#347,#348,#349,
#350),.UNSPECIFIED.,.F.,.F.,(4,1,1,1,1,1,4),(0.E0,1.666666666667E-1,
3.333333333333E-1,5.E-1,6.666666666667E-1,8.333333333333E-1,1.E0),
.UNSPECIFIED.);
#367=B_SPLINE_CURVE_WITH_KNOTS('',3,(#355,#356,#357,#358,#359,#360,#361,#362,
#363,#364,#365,#366),.UNSPECIFIED.,.F.,.F.,(4,1,1,1,1,1,1,1,1,4),(0.E0,
1.111111111111E-1,2.222222222222E-1,3.333333333333E-1,4.444444444444E-1,
5.555555555556E-1,6.666666666667E-1,7.777777777778E-1,8.888888888889E-1,1.E0),
.UNSPECIFIED.);
#375=B_SPLINE_CURVE_WITH_KNOTS('',3,(#371,#372,#373,#374),.UNSPECIFIED.,.F.,.F.,
(4,4),(0.E0,1.E0),.UNSPECIFIED.);
#392=B_SPLINE_CURVE_WITH_KNOTS('',3,(#386,#387,#388,#389,#390,#391),
.UNSPECIFIED.,.F.,.F.,(4,1,1,4),(0.E0,3.333333333333E-1,6.666666666667E-1,1.E0),
.UNSPECIFIED.);
#409=B_SPLINE_CURVE_WITH_KNOTS('',3,(#396,#397,#398,#399,#400,#401,#402,#403,
#404,#405,#406,#407,#408),.UNSPECIFIED.,.F.,.F.,(4,1,1,1,1,1,1,1,1,1,4),(0.E0,
1.E-1,2.E-1,3.E-1,4.E-1,5.E-1,6.E-1,7.E-1,8.E-1,9.E-1,1.E0),.UNSPECIFIED.);
#443=B_SPLINE_CURVE_WITH_KNOTS('',3,(#434,#435,#436,#437,#438,#439,#440,#441,
#442),.UNSPECIFIED.,.F.,.F.,(4,1,1,1,1,1,4),(0.E0,1.666666666667E-1,
3.333333333333E-1,5.E-1,6.666666666667E-1,8.333333333333E-1,1.E0),
.UNSPECIFIED.);
#468=B_SPLINE_CURVE_WITH_KNOTS('',3,(#454,#455,#456,#457,#458,#459,#460,#461,
#462,#463,#464,#465,#466,#467),.UNSPECIFIED.,.F.,.F.,(4,1,1,1,1,1,1,1,1,1,1,4),(
0.E0,9.090909090909E-2,1.818181818182E-1,2.727272727273E-1,3.636363636364E-1,
4.545454545455E-1,5.454545454545E-1,6.363636363636E-1,7.272727272727E-1,
8.181818181818E-1,9.090909090909E-1,1.E0),.UNSPECIFIED.);
#478=B_SPLINE_CURVE_WITH_KNOTS('',3,(#472,#473,#474,#475,#476,#477),
.UNSPECIFIED.,.F.,.F.,(4,1,1,4),(0.E0,3.333333333333E-1,6.666666666667E-1,1.E0),
.UNSPECIFIED.);
#493=B_SPLINE_CURVE_WITH_KNOTS('',3,(#489,#490,#491,#492),.UNSPECIFIED.,.F.,.F.,
(4,4),(0.E0,1.E0),.UNSPECIFIED.);
#509=B_SPLINE_CURVE_WITH_KNOTS('',3,(#497,#498,#499,#500,#501,#502,#503,#504,
#505,#506,#507,#508),.UNSPECIFIED.,.F.,.F.,(4,1,1,1,1,1,1,1,1,4),(0.E0,
1.111111111111E-1,2.222222222222E-1,3.333333333333E-1,4.444444444444E-1,
5.555555555556E-1,6.666666666667E-1,7.777777777778E-1,8.888888888889E-1,1.E0),
.UNSPECIFIED.);
#545=B_SPLINE_CURVE_WITH_KNOTS('',3,(#541,#542,#543,#544),.UNSPECIFIED.,.F.,.F.,
(4,4),(0.E0,1.E0),.UNSPECIFIED.);
#560=B_SPLINE_CURVE_WITH_KNOTS('',3,(#556,#557,#558,#559),.UNSPECIFIED.,.F.,.F.,
(4,4),(0.E0,1.E0),.UNSPECIFIED.);
#581=B_SPLINE_CURVE_WITH_KNOTS('',3,(#564,#565,#566,#567,#568,#569,#570,#571,
#572,#573,#574,#575,#576,#577,#578,#579,#580),.UNSPECIFIED.,.F.,.F.,(4,1,1,1,1,
1,1,1,1,1,1,1,1,1,4),(0.E0,7.142857142857E-2,1.428571428571E-1,
2.142857142857E-1,2.857142857143E-1,3.571428571429E-1,4.285714285714E-1,5.E-1,
5.714285714286E-1,6.428571428571E-1,7.142857142857E-1,7.857142857143E-1,
8.571428571429E-1,9.285714285714E-1,1.E0),.UNSPECIFIED.);
#609=B_SPLINE_CURVE_WITH_KNOTS('',3,(#592,#593,#594,#595,#596,#597,#598,#599,
#600,#601,#602,#603,#604,#605,#606,#607,#608),.UNSPECIFIED.,.F.,.F.,(4,1,1,1,1,
1,1,1,1,1,1,1,1,1,4),(0.E0,7.142857142857E-2,1.428571428571E-1,
2.142857142857E-1,2.857142857143E-1,3.571428571429E-1,4.285714285714E-1,5.E-1,
5.714285714286E-1,6.428571428571E-1,7.142857142857E-1,7.857142857143E-1,
8.571428571429E-1,9.285714285714E-1,1.E0),.UNSPECIFIED.);
#617=B_SPLINE_CURVE_WITH_KNOTS('',3,(#613,#614,#615,#616),.UNSPECIFIED.,.F.,.F.,
(4,4),(0.E0,1.E0),.UNSPECIFIED.);
#641=B_SPLINE_CURVE_WITH_KNOTS('',3,(#635,#636,#637,#638,#639,#640),
.UNSPECIFIED.,.F.,.F.,(4,1,1,4),(0.E0,3.333333333333E-1,6.666666666667E-1,1.E0),
.UNSPECIFIED.);
#661=B_SPLINE_CURVE_WITH_KNOTS('',3,(#645,#646,#647,#648,#649,#650,#651,#652,
#653,#654,#655,#656,#657,#658,#659,#660),.UNSPECIFIED.,.F.,.F.,(4,1,1,1,1,1,1,1,
1,1,1,1,1,4),(0.E0,7.692307692308E-2,1.538461538462E-1,2.307692307692E-1,
3.076923076923E-1,3.846153846154E-1,4.615384615385E-1,5.384615384615E-1,
6.153846153846E-1,6.923076923077E-1,7.692307692308E-1,8.461538461538E-1,
9.230769230769E-1,1.E0),.UNSPECIFIED.);
#688=B_SPLINE_CURVE_WITH_KNOTS('',3,(#672,#673,#674,#675,#676,#677,#678,#679,
#680,#681,#682,#683,#684,#685,#686,#687),.UNSPECIFIED.,.F.,.F.,(4,1,1,1,1,1,1,1,
1,1,1,1,1,4),(0.E0,7.692307692308E-2,1.538461538462E-1,2.307692307692E-1,
3.076923076923E-1,3.846153846154E-1,4.615384615385E-1,5.384615384615E-1,
6.153846153846E-1,6.923076923077E-1,7.692307692308E-1,8.461538461538E-1,
9.230769230769E-1,1.E0),.UNSPECIFIED.);
#698=B_SPLINE_CURVE_WITH_KNOTS('',3,(#692,#693,#694,#695,#696,#697),
.UNSPECIFIED.,.F.,.F.,(4,1,1,4),(0.E0,3.333333333333E-1,6.666666666667E-1,1.E0),
.UNSPECIFIED.);
#727=B_SPLINE_CURVE_WITH_KNOTS('',3,(#723,#724,#725,#726),.UNSPECIFIED.,.F.,.F.,
(4,4),(0.E0,1.E0),.UNSPECIFIED.);
#742=B_SPLINE_CURVE_WITH_KNOTS('',3,(#738,#739,#740,#741),.UNSPECIFIED.,.F.,.F.,
(4,4),(0.E0,1.E0),.UNSPECIFIED.);
#750=B_SPLINE_CURVE_WITH_KNOTS('',3,(#746,#747,#748,#749),.UNSPECIFIED.,.F.,.F.,
(4,4),(0.E0,1.E0),.UNSPECIFIED.);
#865=EDGE_CURVE('',#851,#852,#20,.T.);
#867=EDGE_CURVE('',#857,#851,#28,.T.);
#869=EDGE_CURVE('',#790,#857,#35,.T.);
#871=EDGE_CURVE('',#786,#790,#42,.T.);
#873=EDGE_CURVE('',#786,#852,#165,.T.);
#877=ADVANCED_FACE('',(#876),#864,.T.);
#883=EDGE_CURVE('',#847,#844,#105,.T.);
#885=EDGE_CURVE('',#854,#847,#49,.T.);
#887=EDGE_CURVE('',#854,#851,#304,.T.);
#890=EDGE_CURVE('',#852,#855,#158,.T.);
#892=EDGE_CURVE('',#855,#844,#128,.T.);
#896=ADVANCED_FACE('',(#895),#882,.F.);
#901=B_SPLINE_CURVE_WITH_KNOTS('',3,(#897,#898,#899,#900),.UNSPECIFIED.,.F.,.F.,
(4,4),(0.E0,1.E0),.UNSPECIFIED.);
#905=EDGE_CURVE('',#844,#803,#60,.T.);
#907=EDGE_CURVE('',#796,#803,#67,.T.);
#909=EDGE_CURVE('',#796,#788,#78,.T.);
#911=EDGE_CURVE('',#788,#848,#88,.T.);
#913=EDGE_CURVE('',#847,#848,#95,.T.);
#918=ADVANCED_FACE('',(#917),#904,.T.);
#923=B_SPLINE_CURVE_WITH_KNOTS('',3,(#919,#920,#921,#922),.UNSPECIFIED.,.F.,.F.,
(4,4),(0.E0,1.E0),.UNSPECIFIED.);
#927=EDGE_CURVE('',#855,#797,#148,.T.);
#929=EDGE_CURVE('',#802,#797,#112,.T.);
#931=EDGE_CURVE('',#803,#802,#121,.T.);
#937=ADVANCED_FACE('',(#936),#926,.F.);
#943=B_SPLINE_CURVE_WITH_KNOTS('',3,(#938,#939,#940,#941,#942),.UNSPECIFIED.,
.F.,.F.,(4,1,4),(0.E0,5.191725606574E-1,1.E0),.UNSPECIFIED.);
#947=EDGE_CURVE('',#797,#798,#136,.T.);
#952=EDGE_CURVE('',#785,#786,#175,.T.);
#954=EDGE_CURVE('',#795,#785,#187,.T.);
#956=EDGE_CURVE('',#799,#795,#195,.T.);
#958=EDGE_CURVE('',#799,#798,#232,.T.);
#962=ADVANCED_FACE('',(#961),#946,.T.);
#969=EDGE_CURVE('',#798,#841,#225,.T.);
#971=EDGE_CURVE('',#841,#806,#430,.T.);
#973=EDGE_CURVE('',#806,#807,#416,.T.);
#975=EDGE_CURVE('',#843,#807,#331,.T.);
#977=EDGE_CURVE('',#802,#843,#202,.T.);
#982=ADVANCED_FACE('',(#981),#967,.F.);
#988=EDGE_CURVE('',#840,#799,#210,.T.);
#990=EDGE_CURVE('',#841,#840,#217,.T.);
#996=ADVANCED_FACE('',(#995),#987,.T.);
#1003=EDGE_CURVE('',#795,#800,#262,.T.);
#1005=EDGE_CURVE('',#838,#800,#239,.T.);
#1007=EDGE_CURVE('',#837,#838,#314,.T.);
#1009=EDGE_CURVE('',#837,#836,#450,.T.);
#1011=EDGE_CURVE('',#836,#840,#423,.T.);
#1016=ADVANCED_FACE('',(#1015),#1001,.F.);
#1021=B_SPLINE_CURVE_WITH_KNOTS('',3,(#1017,#1018,#1019,#1020),.UNSPECIFIED.,
.F.,.F.,(4,4),(0.E0,1.E0),.UNSPECIFIED.);
#1026=EDGE_CURVE('',#788,#785,#246,.T.);
#1029=EDGE_CURVE('',#800,#796,#255,.T.);
#1034=ADVANCED_FACE('',(#1033),#1024,.F.);
#1044=EDGE_CURVE('',#794,#790,#269,.T.);
#1046=EDGE_CURVE('',#848,#794,#276,.T.);
#1050=ADVANCED_FACE('',(#1049),#1039,.F.);
#1056=EDGE_CURVE('',#793,#794,#290,.T.);
#1060=EDGE_CURVE('',#793,#857,#283,.T.);
#1064=ADVANCED_FACE('',(#1063),#1055,.F.);
#1074=EDGE_CURVE('',#854,#793,#297,.T.);
#1078=ADVANCED_FACE('',(#1077),#1069,.T.);
#1090=ADVANCED_FACE('',(#1089),#1083,.F.);
#1100=EDGE_CURVE('',#843,#838,#321,.T.);
#1105=ADVANCED_FACE('',(#1104),#1095,.T.);
#1111=B_SPLINE_CURVE_WITH_KNOTS('',3,(#1106,#1107,#1108,#1109,#1110),
.UNSPECIFIED.,.F.,.F.,(4,1,4),(0.E0,4.999865391791E-1,1.E0),.UNSPECIFIED.);
#1118=EDGE_CURVE('',#807,#782,#409,.T.);
#1120=EDGE_CURVE('',#781,#782,#338,.T.);
#1122=EDGE_CURVE('',#781,#837,#468,.T.);
#1126=ADVANCED_FACE('',(#1125),#1114,.T.);
#1132=B_SPLINE_CURVE_WITH_KNOTS('',3,(#1127,#1128,#1129,#1130,#1131),
.UNSPECIFIED.,.F.,.F.,(4,1,4),(0.E0,4.937481288876E-1,1.E0),.UNSPECIFIED.);
#1136=EDGE_CURVE('',#806,#842,#351,.T.);
#1138=EDGE_CURVE('',#842,#814,#367,.T.);
#1140=EDGE_CURVE('',#814,#832,#375,.T.);
#1142=EDGE_CURVE('',#834,#832,#382,.T.);
#1144=EDGE_CURVE('',#782,#834,#392,.T.);
#1150=ADVANCED_FACE('',(#1149),#1135,.F.);
#1157=EDGE_CURVE('',#835,#836,#443,.T.);
#1159=EDGE_CURVE('',#835,#842,#771,.T.);
#1166=ADVANCED_FACE('',(#1165),#1155,.T.);
#1172=B_SPLINE_CURVE_WITH_KNOTS('',3,(#1167,#1168,#1169,#1170,#1171),
.UNSPECIFIED.,.F.,.F.,(4,1,4),(0.E0,5.073163171119E-1,1.E0),.UNSPECIFIED.);
#1179=EDGE_CURVE('',#859,#781,#478,.T.);
#1181=EDGE_CURVE('',#830,#859,#485,.T.);
#1183=EDGE_CURVE('',#830,#815,#493,.T.);
#1185=EDGE_CURVE('',#815,#835,#509,.T.);
#1189=ADVANCED_FACE('',(#1188),#1175,.F.);
#1198=EDGE_CURVE('',#834,#777,#516,.T.);
#1200=EDGE_CURVE('',#777,#778,#552,.T.);
#1202=EDGE_CURVE('',#778,#859,#537,.T.);
#1206=ADVANCED_FACE('',(#1205),#1194,.T.);
#1212=EDGE_CURVE('',#832,#811,#530,.T.);
#1214=EDGE_CURVE('',#811,#819,#750,.T.);
#1216=EDGE_CURVE('',#819,#822,#698,.T.);
#1218=EDGE_CURVE('',#822,#824,#631,.T.);
#1220=EDGE_CURVE('',#824,#777,#560,.T.);
#1226=ADVANCED_FACE('',(#1225),#1211,.F.);
#1233=EDGE_CURVE('',#810,#830,#523,.T.);
#1235=EDGE_CURVE('',#810,#811,#757,.T.);
#1239=EDGE_CURVE('',#814,#815,#764,.T.);
#1243=ADVANCED_FACE('',(#1242),#1231,.T.);
#1252=EDGE_CURVE('',#778,#784,#545,.T.);
#1254=EDGE_CURVE('',#784,#821,#712,.T.);
#1256=EDGE_CURVE('',#821,#818,#641,.T.);
#1258=EDGE_CURVE('',#818,#810,#742,.T.);
#1262=ADVANCED_FACE('',(#1261),#1248,.F.);
#1267=ELLIPSE('',#1266,1.181102362205E-2,5.351613735786E-4);
#1268=TRIMMED_CURVE('',#1267,(PARAMETER_VALUE(2.704306550279E2)),(PARAMETER_VALUE(3.331114967168E2)),.T.,.UNSPECIFIED.);
#1275=EDGE_CURVE('',#824,#825,#581,.T.);
#1277=EDGE_CURVE('',#783,#825,#588,.T.);
#1279=EDGE_CURVE('',#783,#784,#609,.T.);
#1283=ADVANCED_FACE('',(#1282),#1271,.T.);
#1288=ELLIPSE('',#1287,1.181102362205E-2,1.132464253781E-2);
#1289=TRIMMED_CURVE('',#1288,(PARAMETER_VALUE(9.E1)),(PARAMETER_VALUE(
1.719999999999E2)),.T.,.UNSPECIFIED.);
#1293=EDGE_CURVE('',#822,#823,#688,.T.);
#1295=EDGE_CURVE('',#823,#826,#617,.T.);
#1297=EDGE_CURVE('',#825,#826,#624,.T.);
#1303=ADVANCED_FACE('',(#1302),#1292,.F.);
#1313=B_SPLINE_CURVE_WITH_KNOTS('',3,(#1304,#1305,#1306,#1307,#1308,#1309,#1310,
#1311,#1312),.UNSPECIFIED.,.F.,.F.,(4,1,1,1,1,1,4),(0.E0,1.888341017838E-1,
2.941404314481E-1,4.019082055908E-1,5.123572254874E-1,7.066220634653E-1,1.E0),
.UNSPECIFIED.);
#1318=EDGE_CURVE('',#820,#821,#661,.T.);
#1320=EDGE_CURVE('',#823,#820,#668,.T.);
#1324=EDGE_CURVE('',#818,#819,#705,.T.);
#1328=ADVANCED_FACE('',(#1327),#1316,.T.);
#1333=ELLIPSE('',#1332,1.181102362205E-2,1.132464253781E-2);
#1334=TRIMMED_CURVE('',#1333,(PARAMETER_VALUE(8.000000000154E0)),(PARAMETER_VALUE(9.E1)),.T.,.UNSPECIFIED.);
#1341=EDGE_CURVE('',#828,#783,#719,.T.);
#1343=EDGE_CURVE('',#828,#820,#727,.T.);
#1347=ADVANCED_FACE('',(#1346),#1337,.F.);
#1353=EDGE_CURVE('',#826,#828,#734,.T.);
#1360=ADVANCED_FACE('',(#1359),#1352,.F.);
#1372=ADVANCED_FACE('',(#1371),#1365,.T.);
#1377=ELLIPSE('',#1376,1.181102362205E-2,5.351613735903E-4);
#1378=TRIMMED_CURVE('',#1377,(PARAMETER_VALUE(2.648644258205E2)),(PARAMETER_VALUE(2.696352015133E2)),.T.,.UNSPECIFIED.);
#1388=ADVANCED_FACE('',(#1387),#1381,.T.);
#1400=ADVANCED_FACE('',(#1399),#1393,.F.);
#1401=CLOSED_SHELL('',(#877,#896,#918,#937,#962,#982,#996,#1016,#1034,#1050,
#1064,#1078,#1090,#1105,#1126,#1150,#1166,#1189,#1206,#1226,#1243,#1262,#1283,
#1303,#1328,#1347,#1360,#1372,#1388,#1400));
#1402=MANIFOLD_SOLID_BREP('',#1401);
#1410=(LENGTH_UNIT()NAMED_UNIT(*)SI_UNIT(.MILLI.,.METRE.));
#1413=(NAMED_UNIT(*)PLANE_ANGLE_UNIT()SI_UNIT($,.RADIAN.));
#1416=(NAMED_UNIT(*)SI_UNIT($,.STERADIAN.)SOLID_ANGLE_UNIT());
#1418=(GEOMETRIC_REPRESENTATION_CONTEXT(3)GLOBAL_UNCERTAINTY_ASSIGNED_CONTEXT((
#1417))GLOBAL_UNIT_ASSIGNED_CONTEXT((#1412,#1415,#1416))REPRESENTATION_CONTEXT(
'ID1','3'));
#1422=AXIS2_PLACEMENT_3D('',#1419,#1420,#1421);
#1423=ADVANCED_BREP_SHAPE_REPRESENTATION('',(#1422,#1402),#1418);
#1431=PRODUCT_DEFINITION('design','',#1430,#1427);
#1432=PRODUCT_DEFINITION_SHAPE('','SHAPE FOR BODY-MOVE_COPY1100.',#1431);
#1433=SHAPE_ASPECT('','solid data associated with BODY-MOVE_COPY1100',#1432,
.F.);
#1434=PROPERTY_DEFINITION('',
'shape for solid data with which properties are associated',#1433);
#1435=SHAPE_REPRESENTATION('',(#1402),#1418);
#1436=SHAPE_DEFINITION_REPRESENTATION(#1434,#1435);
#1437=(LENGTH_UNIT()NAMED_UNIT(*)SI_UNIT(.MILLI.,.METRE.));
#1443=PROPERTY_DEFINITION('geometric validation property',
'area of BODY-MOVE_COPY1100',#1433);
#1444=REPRESENTATION('surface area',(#1442),#1418);
#1445=PROPERTY_DEFINITION_REPRESENTATION(#1443,#1444);
#1446=(LENGTH_UNIT()NAMED_UNIT(*)SI_UNIT(.MILLI.,.METRE.));
#1452=PROPERTY_DEFINITION('geometric validation property',
'volume of BODY-MOVE_COPY1100',#1433);
#1453=REPRESENTATION('volume',(#1451),#1418);
#1454=PROPERTY_DEFINITION_REPRESENTATION(#1452,#1453);
#1456=PROPERTY_DEFINITION('geometric validation property',
'centroid of BODY-MOVE_COPY1100',#1433);
#1457=REPRESENTATION('centroid',(#1455),#1418);
#1458=PROPERTY_DEFINITION_REPRESENTATION(#1456,#1457);
#1459=(LENGTH_UNIT()NAMED_UNIT(*)SI_UNIT(.MILLI.,.METRE.));
#1465=PROPERTY_DEFINITION('geometric validation property',
'area of BODY-MOVE_COPY1100',#1432);
#1466=REPRESENTATION('surface area',(#1464),#1418);
#1467=PROPERTY_DEFINITION_REPRESENTATION(#1465,#1466);
#1468=(LENGTH_UNIT()NAMED_UNIT(*)SI_UNIT(.MILLI.,.METRE.));
#1474=PROPERTY_DEFINITION('geometric validation property',
'volume of BODY-MOVE_COPY1100',#1432);
#1475=REPRESENTATION('volume',(#1473),#1418);
#1476=PROPERTY_DEFINITION_REPRESENTATION(#1474,#1475);
#1478=PROPERTY_DEFINITION('geometric validation property',
'centroid of BODY-MOVE_COPY1100',#1432);
#1479=REPRESENTATION('centroid',(#1477),#1418);
#1480=PROPERTY_DEFINITION_REPRESENTATION(#1478,#1479);
#1481=SHAPE_DEFINITION_REPRESENTATION(#1432,#1423);
ENDSEC;
END-ISO-10303-21;
