ISO-10303-21;
HEADER;
FILE_DESCRIPTION((''),'2;1');
FILE_NAME('BODY4-4220','2026-06-15T13:45:30',('Esia'),(''),
'CREO PARAMETRIC BY PTC INC, 2025102','CREO PARAMETRIC BY PTC INC, 2025102','');
FILE_SCHEMA((
'AP242_MANAGED_MODEL_BASED_3D_ENGINEERING_MIM_LF { 1 0 10303 442 1 1 4 }'));
ENDSEC;
DATA;
#23=DIRECTION('',(0.E0,-1.E0,0.E0));
#24=VECTOR('',#23,4.527559055118E-2);
#25=CARTESIAN_POINT('',(6.555118110236E-2,-8.799212598425E-2,0.E0));
#26=LINE('',#25,#24);
#27=DRAUGHTING_PRE_DEFINED_CURVE_FONT('continuous');
#28=CURVE_STYLE('',#27,POSITIVE_LENGTH_MEASURE(2.E-2),#1);
#29=PRESENTATION_STYLE_ASSIGNMENT((#28));
#30=STYLED_ITEM('',(#29),#26);
#31=DIRECTION('',(0.E0,0.E0,-1.E0));
#32=VECTOR('',#31,3.937007874016E-3);
#33=CARTESIAN_POINT('',(6.555118110236E-2,-8.799212598425E-2,
3.937007874016E-3));
#34=LINE('',#33,#32);
#35=CURVE_STYLE('',#27,POSITIVE_LENGTH_MEASURE(2.E-2),#1);
#36=PRESENTATION_STYLE_ASSIGNMENT((#35));
#37=STYLED_ITEM('',(#36),#34);
#38=DIRECTION('',(0.E0,0.E0,-1.E0));
#39=VECTOR('',#38,3.937007874016E-3);
#40=CARTESIAN_POINT('',(6.555118110236E-2,-1.332677165354E-1,
3.937007874016E-3));
#41=LINE('',#40,#39);
#42=CURVE_STYLE('',#27,POSITIVE_LENGTH_MEASURE(2.E-2),#1);
#43=PRESENTATION_STYLE_ASSIGNMENT((#42));
#44=STYLED_ITEM('',(#43),#41);
#45=DIRECTION('',(-1.E0,0.E0,0.E0));
#46=VECTOR('',#45,1.889763779528E-2);
#47=CARTESIAN_POINT('',(8.444881889764E-2,-1.332677165354E-1,
3.937007874016E-3));
#48=LINE('',#47,#46);
#49=CURVE_STYLE('',#27,POSITIVE_LENGTH_MEASURE(2.E-2),#1);
#50=PRESENTATION_STYLE_ASSIGNMENT((#49));
#51=STYLED_ITEM('',(#50),#48);
#52=DIRECTION('',(-1.E0,0.E0,0.E0));
#53=VECTOR('',#52,1.889763779528E-2);
#54=CARTESIAN_POINT('',(8.444881889764E-2,-1.332677165354E-1,0.E0));
#55=LINE('',#54,#53);
#56=CURVE_STYLE('',#27,POSITIVE_LENGTH_MEASURE(2.E-2),#1);
#57=PRESENTATION_STYLE_ASSIGNMENT((#56));
#58=STYLED_ITEM('',(#57),#55);
#59=DIRECTION('',(0.E0,-1.E0,0.E0));
#60=VECTOR('',#59,4.527559055118E-2);
#61=CARTESIAN_POINT('',(8.444881889764E-2,-8.799212598425E-2,0.E0));
#62=LINE('',#61,#60);
#63=CURVE_STYLE('',#27,POSITIVE_LENGTH_MEASURE(2.E-2),#1);
#64=PRESENTATION_STYLE_ASSIGNMENT((#63));
#65=STYLED_ITEM('',(#64),#62);
#66=DIRECTION('',(0.E0,0.E0,-1.E0));
#67=VECTOR('',#66,3.937007874016E-3);
#68=CARTESIAN_POINT('',(8.444881889764E-2,-1.332677165354E-1,
3.937007874016E-3));
#69=LINE('',#68,#67);
#70=CURVE_STYLE('',#27,POSITIVE_LENGTH_MEASURE(2.E-2),#1);
#71=PRESENTATION_STYLE_ASSIGNMENT((#70));
#72=STYLED_ITEM('',(#71),#69);
#73=DIRECTION('',(0.E0,-1.E0,0.E0));
#74=VECTOR('',#73,4.527559055118E-2);
#75=CARTESIAN_POINT('',(8.444881889764E-2,-8.799212598425E-2,
3.937007874016E-3));
#76=LINE('',#75,#74);
#77=CURVE_STYLE('',#27,POSITIVE_LENGTH_MEASURE(2.E-2),#1);
#78=PRESENTATION_STYLE_ASSIGNMENT((#77));
#79=STYLED_ITEM('',(#78),#76);
#80=DIRECTION('',(0.E0,-1.E0,0.E0));
#81=VECTOR('',#80,4.527559055118E-2);
#82=CARTESIAN_POINT('',(6.555118110236E-2,-8.799212598425E-2,
3.937007874016E-3));
#83=LINE('',#82,#81);
#84=CURVE_STYLE('',#27,POSITIVE_LENGTH_MEASURE(2.E-2),#1);
#85=PRESENTATION_STYLE_ASSIGNMENT((#84));
#86=STYLED_ITEM('',(#85),#83);
#87=DIRECTION('',(-1.E0,0.E0,0.E0));
#88=VECTOR('',#87,1.889763779528E-2);
#89=CARTESIAN_POINT('',(8.444881889764E-2,-8.799212598425E-2,
3.937007874016E-3));
#90=LINE('',#89,#88);
#91=CURVE_STYLE('',#27,POSITIVE_LENGTH_MEASURE(2.E-2),#1);
#92=PRESENTATION_STYLE_ASSIGNMENT((#91));
#93=STYLED_ITEM('',(#92),#90);
#94=DIRECTION('',(-1.E0,0.E0,0.E0));
#95=VECTOR('',#94,1.889763779528E-2);
#96=CARTESIAN_POINT('',(8.444881889764E-2,-8.799212598425E-2,0.E0));
#97=LINE('',#96,#95);
#98=CURVE_STYLE('',#27,POSITIVE_LENGTH_MEASURE(2.E-2),#1);
#99=PRESENTATION_STYLE_ASSIGNMENT((#98));
#100=STYLED_ITEM('',(#99),#97);
#101=DIRECTION('',(0.E0,0.E0,-1.E0));
#102=VECTOR('',#101,3.937007874016E-3);
#103=CARTESIAN_POINT('',(8.444881889764E-2,-8.799212598425E-2,
3.937007874016E-3));
#104=LINE('',#103,#102);
#105=CURVE_STYLE('',#27,POSITIVE_LENGTH_MEASURE(2.E-2),#1);
#106=PRESENTATION_STYLE_ASSIGNMENT((#105));
#107=STYLED_ITEM('',(#106),#104);
#108=CARTESIAN_POINT('',(6.555118110236E-2,-1.332677165354E-1,
3.937007874016E-3));
#109=CARTESIAN_POINT('',(6.555118110236E-2,-1.332677165354E-1,0.E0));
#110=VERTEX_POINT('',#108);
#111=VERTEX_POINT('',#109);
#112=CARTESIAN_POINT('',(6.555118110236E-2,-8.799212598425E-2,
3.937007874016E-3));
#113=VERTEX_POINT('',#112);
#114=CARTESIAN_POINT('',(6.555118110236E-2,-8.799212598425E-2,0.E0));
#115=VERTEX_POINT('',#114);
#116=CARTESIAN_POINT('',(8.444881889764E-2,-1.332677165354E-1,
3.937007874016E-3));
#117=CARTESIAN_POINT('',(8.444881889764E-2,-1.332677165354E-1,0.E0));
#118=VERTEX_POINT('',#116);
#119=VERTEX_POINT('',#117);
#120=CARTESIAN_POINT('',(8.444881889764E-2,-8.799212598425E-2,0.E0));
#121=VERTEX_POINT('',#120);
#122=CARTESIAN_POINT('',(8.444881889764E-2,-8.799212598425E-2,
3.937007874016E-3));
#123=VERTEX_POINT('',#122);
#124=CARTESIAN_POINT('',(6.555118110236E-2,-1.332677165354E-1,0.E0));
#125=DIRECTION('',(1.E0,0.E0,0.E0));
#126=DIRECTION('',(0.E0,0.E0,1.E0));
#127=AXIS2_PLACEMENT_3D('',#124,#125,#126);
#128=PLANE('',#127);
#130=ORIENTED_EDGE('',*,*,#129,.T.);
#132=ORIENTED_EDGE('',*,*,#131,.F.);
#134=ORIENTED_EDGE('',*,*,#133,.F.);
#136=ORIENTED_EDGE('',*,*,#135,.T.);
#137=EDGE_LOOP('',(#130,#132,#134,#136));
#138=FACE_OUTER_BOUND('',#137,.F.);
#140=CARTESIAN_POINT('',(6.555118110236E-2,-1.332677165354E-1,0.E0));
#141=DIRECTION('',(0.E0,1.E0,0.E0));
#142=DIRECTION('',(0.E0,0.E0,1.E0));
#143=AXIS2_PLACEMENT_3D('',#140,#141,#142);
#144=PLANE('',#143);
#146=ORIENTED_EDGE('',*,*,#145,.T.);
#147=ORIENTED_EDGE('',*,*,#129,.F.);
#149=ORIENTED_EDGE('',*,*,#148,.F.);
#151=ORIENTED_EDGE('',*,*,#150,.T.);
#152=EDGE_LOOP('',(#146,#147,#149,#151));
#153=FACE_OUTER_BOUND('',#152,.F.);
#155=CARTESIAN_POINT('',(6.555118110236E-2,-1.332677165354E-1,0.E0));
#156=DIRECTION('',(0.E0,0.E0,1.E0));
#157=DIRECTION('',(1.E0,0.E0,0.E0));
#158=AXIS2_PLACEMENT_3D('',#155,#156,#157);
#159=PLANE('',#158);
#160=ORIENTED_EDGE('',*,*,#131,.T.);
#161=ORIENTED_EDGE('',*,*,#145,.F.);
#163=ORIENTED_EDGE('',*,*,#162,.F.);
#165=ORIENTED_EDGE('',*,*,#164,.T.);
#166=EDGE_LOOP('',(#160,#161,#163,#165));
#167=FACE_OUTER_BOUND('',#166,.F.);
#169=CARTESIAN_POINT('',(8.444881889764E-2,-1.332677165354E-1,0.E0));
#170=DIRECTION('',(1.E0,0.E0,0.E0));
#171=DIRECTION('',(0.E0,0.E0,1.E0));
#172=AXIS2_PLACEMENT_3D('',#169,#170,#171);
#173=PLANE('',#172);
#174=ORIENTED_EDGE('',*,*,#150,.F.);
#176=ORIENTED_EDGE('',*,*,#175,.F.);
#178=ORIENTED_EDGE('',*,*,#177,.T.);
#179=ORIENTED_EDGE('',*,*,#162,.T.);
#180=EDGE_LOOP('',(#174,#176,#178,#179));
#181=FACE_OUTER_BOUND('',#180,.F.);
#183=CARTESIAN_POINT('',(6.555118110236E-2,-1.332677165354E-1,
3.937007874016E-3));
#184=DIRECTION('',(0.E0,0.E0,1.E0));
#185=DIRECTION('',(1.E0,0.E0,0.E0));
#186=AXIS2_PLACEMENT_3D('',#183,#184,#185);
#187=PLANE('',#186);
#188=ORIENTED_EDGE('',*,*,#135,.F.);
#190=ORIENTED_EDGE('',*,*,#189,.F.);
#191=ORIENTED_EDGE('',*,*,#175,.T.);
#192=ORIENTED_EDGE('',*,*,#148,.T.);
#193=EDGE_LOOP('',(#188,#190,#191,#192));
#194=FACE_OUTER_BOUND('',#193,.F.);
#196=CARTESIAN_POINT('',(6.555118110236E-2,-8.799212598425E-2,0.E0));
#197=DIRECTION('',(0.E0,1.E0,0.E0));
#198=DIRECTION('',(0.E0,0.E0,1.E0));
#199=AXIS2_PLACEMENT_3D('',#196,#197,#198);
#200=PLANE('',#199);
#201=ORIENTED_EDGE('',*,*,#164,.F.);
#202=ORIENTED_EDGE('',*,*,#177,.F.);
#203=ORIENTED_EDGE('',*,*,#189,.T.);
#204=ORIENTED_EDGE('',*,*,#133,.T.);
#205=EDGE_LOOP('',(#201,#202,#203,#204));
#206=FACE_OUTER_BOUND('',#205,.F.);
#210=FILL_AREA_STYLE_COLOUR('',#1);
#211=FILL_AREA_STYLE('',(#210));
#212=SURFACE_STYLE_FILL_AREA(#211);
#213=SURFACE_SIDE_STYLE('',(#212));
#214=SURFACE_STYLE_USAGE(.BOTH.,#213);
#215=PRESENTATION_STYLE_ASSIGNMENT((#214));
#22=STYLED_ITEM('',(#215),#209);
#217=LENGTH_MEASURE_WITH_UNIT(LENGTH_MEASURE(2.54E1),#216);
#218=(CONVERSION_BASED_UNIT('INCH',#217)LENGTH_UNIT()NAMED_UNIT(*));
#220=PLANE_ANGLE_MEASURE_WITH_UNIT(PLANE_ANGLE_MEASURE(1.745329251994E-2),#219);
#221=(CONVERSION_BASED_UNIT('DEGREE',#220)NAMED_UNIT(*)PLANE_ANGLE_UNIT());
#223=UNCERTAINTY_MEASURE_WITH_UNIT(LENGTH_MEASURE(4.921692847881E-6),#218,
'closure',
'Maximum model space distance between geometric entities at asserted connectivities');
#225=CARTESIAN_POINT('',(0.E0,0.E0,0.E0));
#226=DIRECTION('',(0.E0,0.E0,1.E0));
#227=DIRECTION('',(1.E0,0.E0,0.E0));
#230=MECHANICAL_DESIGN_GEOMETRIC_PRESENTATION_REPRESENTATION('',(#30,#37,#44,
#51,#58,#65,#72,#79,#86,#93,#100,#107,#22),#224);
#231=APPLICATION_CONTEXT('automotive design');
#232=APPLICATION_PROTOCOL_DEFINITION('international standard',
'config_control_design',1994,#231);
#233=PRODUCT_DEFINITION_CONTEXT('',#231,'design');
#234=PRODUCT_CONTEXT('',#231,'mechanical');
#235=PRODUCT('BODY4-4220','BODY4-4220','NOT SPECIFIED',(#234));
#236=PRODUCT_DEFINITION_FORMATION_WITH_SPECIFIED_SOURCE('1','LAST_VERSION',#235,
.MADE.);
#244=LENGTH_MEASURE_WITH_UNIT(LENGTH_MEASURE(2.54E1),#243);
#245=(CONVERSION_BASED_UNIT('INCH',#244)LENGTH_UNIT()NAMED_UNIT(*));
#246=DERIVED_UNIT_ELEMENT(#245,2.E0);
#247=AREA_UNIT((#246));
#248=MEASURE_REPRESENTATION_ITEM('surface area measure',AREA_MEASURE(1.43E0),
#247);
#253=LENGTH_MEASURE_WITH_UNIT(LENGTH_MEASURE(2.54E1),#252);
#254=(CONVERSION_BASED_UNIT('INCH',#253)LENGTH_UNIT()NAMED_UNIT(*));
#255=DERIVED_UNIT_ELEMENT(#254,3.E0);
#256=VOLUME_UNIT((#255));
#257=MEASURE_REPRESENTATION_ITEM('volume measure',VOLUME_MEASURE(5.52E-2),#256);
#261=CARTESIAN_POINT('centre point',(1.905E0,-2.81E0,5.E-2));
#266=LENGTH_MEASURE_WITH_UNIT(LENGTH_MEASURE(2.54E1),#265);
#267=(CONVERSION_BASED_UNIT('INCH',#266)LENGTH_UNIT()NAMED_UNIT(*));
#268=DERIVED_UNIT_ELEMENT(#267,2.E0);
#269=AREA_UNIT((#268));
#270=MEASURE_REPRESENTATION_ITEM('surface area measure',AREA_MEASURE(1.43E0),
#269);
#275=LENGTH_MEASURE_WITH_UNIT(LENGTH_MEASURE(2.54E1),#274);
#276=(CONVERSION_BASED_UNIT('INCH',#275)LENGTH_UNIT()NAMED_UNIT(*));
#277=DERIVED_UNIT_ELEMENT(#276,3.E0);
#278=VOLUME_UNIT((#277));
#279=MEASURE_REPRESENTATION_ITEM('volume measure',VOLUME_MEASURE(5.52E-2),#278);
#283=CARTESIAN_POINT('centre point',(1.905E0,-2.81E0,5.E-2));
#1=COLOUR_RGB('',7.333333333333E-1,7.725490196078E-1,7.960784313725E-1);
#2=DRAUGHTING_PRE_DEFINED_COLOUR('green');
#3=COLOUR_RGB('',1.1E-2,1.2E-2,1.E0);
#4=COLOUR_RGB('',1.921568627451E-1,1.921568627451E-1,1.921568627451E-1);
#5=COLOUR_RGB('',2.352941176471E-1,2.352941176471E-1,2.352941176471E-1);
#6=COLOUR_RGB('',3.137254901961E-1,3.137254901961E-1,3.137254901961E-1);
#7=COLOUR_RGB('',4.1E-1,2.61589E-1,1.12848E-1);
#8=COLOUR_RGB('',5.04854E-1,1.5455E-2,1.5455E-2);
#9=COLOUR_RGB('',6.274509803922E-1,6.274509803922E-1,6.274509803922E-1);
#10=COLOUR_RGB('',6.35294E-1,6.86275E-1,7.4902E-1);
#11=COLOUR_RGB('',6.40777E-1,6.40777E-1,6.40777E-1);
#12=COLOUR_RGB('',6.69062E-1,6.69903E-1,6.55217E-1);
#13=COLOUR_RGB('',7.333333333333E-1,7.725490196078E-1,7.960784313725E-1);
#14=COLOUR_RGB('',8.313725490196E-1,0.E0,0.E0);
#15=COLOUR_RGB('',8.666666666667E-1,8.666666666667E-1,8.666666666667E-1);
#16=COLOUR_RGB('',9.21569E-1,7.05882E-1,4.70588E-1);
#17=DRAUGHTING_PRE_DEFINED_COLOUR('red');
#18=DRAUGHTING_PRE_DEFINED_COLOUR('yellow');
#19=COLOUR_RGB('',1.E0,1.E0,5.3E-1);
#20=COLOUR_RGB('',1.E0,1.E0,9.49E-1);
#21=DRAUGHTING_PRE_DEFINED_COLOUR('white');
#129=EDGE_CURVE('',#110,#111,#41,.T.);
#131=EDGE_CURVE('',#115,#111,#26,.T.);
#133=EDGE_CURVE('',#113,#115,#34,.T.);
#135=EDGE_CURVE('',#113,#110,#83,.T.);
#139=ADVANCED_FACE('',(#138),#128,.F.);
#145=EDGE_CURVE('',#119,#111,#55,.T.);
#148=EDGE_CURVE('',#118,#110,#48,.T.);
#150=EDGE_CURVE('',#118,#119,#69,.T.);
#154=ADVANCED_FACE('',(#153),#144,.F.);
#162=EDGE_CURVE('',#121,#119,#62,.T.);
#164=EDGE_CURVE('',#121,#115,#97,.T.);
#168=ADVANCED_FACE('',(#167),#159,.F.);
#175=EDGE_CURVE('',#123,#118,#76,.T.);
#177=EDGE_CURVE('',#123,#121,#104,.T.);
#182=ADVANCED_FACE('',(#181),#173,.T.);
#189=EDGE_CURVE('',#123,#113,#90,.T.);
#195=ADVANCED_FACE('',(#194),#187,.T.);
#207=ADVANCED_FACE('',(#206),#200,.T.);
#208=CLOSED_SHELL('',(#139,#154,#168,#182,#195,#207));
#209=MANIFOLD_SOLID_BREP('',#208);
#216=(LENGTH_UNIT()NAMED_UNIT(*)SI_UNIT(.MILLI.,.METRE.));
#219=(NAMED_UNIT(*)PLANE_ANGLE_UNIT()SI_UNIT($,.RADIAN.));
#222=(NAMED_UNIT(*)SI_UNIT($,.STERADIAN.)SOLID_ANGLE_UNIT());
#224=(GEOMETRIC_REPRESENTATION_CONTEXT(3)GLOBAL_UNCERTAINTY_ASSIGNED_CONTEXT((
#223))GLOBAL_UNIT_ASSIGNED_CONTEXT((#218,#221,#222))REPRESENTATION_CONTEXT
('ID1','3'));
#228=AXIS2_PLACEMENT_3D('',#225,#226,#227);
#229=ADVANCED_BREP_SHAPE_REPRESENTATION('',(#228,#209),#224);
#237=PRODUCT_DEFINITION('design','',#236,#233);
#238=PRODUCT_DEFINITION_SHAPE('','SHAPE FOR BODY4-4220.',#237);
#239=SHAPE_ASPECT('','solid data associated with BODY4-4220',#238,.F.);
#240=PROPERTY_DEFINITION('',
'shape for solid data with which properties are associated',#239);
#241=SHAPE_REPRESENTATION('',(#209),#224);
#242=SHAPE_DEFINITION_REPRESENTATION(#240,#241);
#243=(LENGTH_UNIT()NAMED_UNIT(*)SI_UNIT(.MILLI.,.METRE.));
#249=PROPERTY_DEFINITION('geometric validation property','area of BODY4-4220',
#239);
#250=REPRESENTATION('surface area',(#248),#224);
#251=PROPERTY_DEFINITION_REPRESENTATION(#249,#250);
#252=(LENGTH_UNIT()NAMED_UNIT(*)SI_UNIT(.MILLI.,.METRE.));
#258=PROPERTY_DEFINITION('geometric validation property','volume of BODY4-4220',
#239);
#259=REPRESENTATION('volume',(#257),#224);
#260=PROPERTY_DEFINITION_REPRESENTATION(#258,#259);
#262=PROPERTY_DEFINITION('geometric validation property',
'centroid of BODY4-4220',#239);
#263=REPRESENTATION('centroid',(#261),#224);
#264=PROPERTY_DEFINITION_REPRESENTATION(#262,#263);
#265=(LENGTH_UNIT()NAMED_UNIT(*)SI_UNIT(.MILLI.,.METRE.));
#271=PROPERTY_DEFINITION('geometric validation property','area of BODY4-4220',
#238);
#272=REPRESENTATION('surface area',(#270),#224);
#273=PROPERTY_DEFINITION_REPRESENTATION(#271,#272);
#274=(LENGTH_UNIT()NAMED_UNIT(*)SI_UNIT(.MILLI.,.METRE.));
#280=PROPERTY_DEFINITION('geometric validation property','volume of BODY4-4220',
#238);
#281=REPRESENTATION('volume',(#279),#224);
#282=PROPERTY_DEFINITION_REPRESENTATION(#280,#281);
#284=PROPERTY_DEFINITION('geometric validation property',
'centroid of BODY4-4220',#238);
#285=REPRESENTATION('centroid',(#283),#224);
#286=PROPERTY_DEFINITION_REPRESENTATION(#284,#285);
#287=SHAPE_DEFINITION_REPRESENTATION(#238,#229);
ENDSEC;
END-ISO-10303-21;
