ISO-10303-21;
HEADER;
FILE_DESCRIPTION((''),'2;1');
FILE_NAME('BODY2-4189','2026-06-15T13:45:28',('Esia'),(''),
'CREO PARAMETRIC BY PTC INC, 2025102','CREO PARAMETRIC BY PTC INC, 2025102','');
FILE_SCHEMA((
'AP242_MANAGED_MODEL_BASED_3D_ENGINEERING_MIM_LF { 1 0 10303 442 1 1 4 }'));
ENDSEC;
DATA;
#23=CARTESIAN_POINT('',(-4.092226897141E-2,2.900554414368E-3,
-3.011747985272E-2));
#24=CARTESIAN_POINT('',(-4.087189437591E-2,3.165800433698E-3,
-3.033968560389E-2));
#25=CARTESIAN_POINT('',(-4.076694288163E-2,3.725773011842E-3,
-3.073067554487E-2));
#26=CARTESIAN_POINT('',(-4.059694915450E-2,4.662580743601E-3,
-3.116826425434E-2));
#27=CARTESIAN_POINT('',(-4.042217856060E-2,5.661756037265E-3,
-3.143549035267E-2));
#28=CARTESIAN_POINT('',(-4.030727872964E-2,6.344973859547E-3,
-3.149606299213E-2));
#29=CARTESIAN_POINT('',(-4.024997693228E-2,6.692913385826E-3,
-3.149606299213E-2));
#31=DRAUGHTING_PRE_DEFINED_CURVE_FONT('continuous');
#32=CURVE_STYLE('',#31,POSITIVE_LENGTH_MEASURE(2.E-2),#1);
#33=PRESENTATION_STYLE_ASSIGNMENT((#32));
#34=STYLED_ITEM('',(#33),#30);
#35=CARTESIAN_POINT('',(-3.815683419106E-2,3.228346456693E-2,0.E0));
#36=CARTESIAN_POINT('',(-3.815683419106E-2,2.732450866502E-2,
-5.082929800369E-3));
#37=CARTESIAN_POINT('',(-3.862354101793E-2,1.747264851135E-2,
-1.518108800971E-2));
#38=CARTESIAN_POINT('',(-4.000929416772E-2,7.707890591188E-3,
-2.518996027062E-2));
#39=CARTESIAN_POINT('',(-4.092226897141E-2,2.900554414368E-3,
-3.011747985272E-2));
#41=CURVE_STYLE('',#31,POSITIVE_LENGTH_MEASURE(2.E-2),#1);
#42=PRESENTATION_STYLE_ASSIGNMENT((#41));
#43=STYLED_ITEM('',(#42),#40);
#44=CARTESIAN_POINT('',(-3.815695517854E-2,3.247867286121E-2,
-1.952082942811E-4));
#45=CARTESIAN_POINT('',(-3.815692829244E-2,3.245698306493E-2,
-1.735184838054E-4));
#46=CARTESIAN_POINT('',(-3.815688348227E-2,3.241360345904E-2,
-1.301388628539E-4));
#47=CARTESIAN_POINT('',(-3.815684315310E-2,3.234853400798E-2,
-6.506943142674E-5));
#48=CARTESIAN_POINT('',(-3.815683419106E-2,3.230515437987E-2,
-2.168981047560E-5));
#49=CARTESIAN_POINT('',(-3.815683419106E-2,3.228346456693E-2,0.E0));
#51=CURVE_STYLE('',#31,POSITIVE_LENGTH_MEASURE(2.E-2),#1);
#52=PRESENTATION_STYLE_ASSIGNMENT((#51));
#53=STYLED_ITEM('',(#52),#50);
#54=CARTESIAN_POINT('',(-4.099558842686E-2,6.204984319598E-2,
-2.976637862905E-2));
#55=CARTESIAN_POINT('',(-4.037065674394E-2,5.880321343303E-2,
-2.651974886610E-2));
#56=CARTESIAN_POINT('',(-3.932627929755E-2,5.227714714018E-2,
-1.999377354693E-2));
#57=CARTESIAN_POINT('',(-3.837763998120E-2,4.239796205981E-2,
-1.011440616421E-2));
#58=CARTESIAN_POINT('',(-3.816105751023E-2,3.578814283795E-2,
-3.504678271019E-3));
#59=CARTESIAN_POINT('',(-3.815695517854E-2,3.247867286121E-2,
-1.952082942811E-4));
#61=CURVE_STYLE('',#31,POSITIVE_LENGTH_MEASURE(2.E-2),#1);
#62=PRESENTATION_STYLE_ASSIGNMENT((#61));
#63=STYLED_ITEM('',(#62),#60);
#64=CARTESIAN_POINT('',(-4.024997693228E-2,5.787401574803E-2,
-3.149606299213E-2));
#65=CARTESIAN_POINT('',(-4.031493176431E-2,5.826842490319E-2,
-3.149606299213E-2));
#66=CARTESIAN_POINT('',(-4.044479781474E-2,5.903840482084E-2,
-3.141841071026E-2));
#67=CARTESIAN_POINT('',(-4.064097561672E-2,6.015167767222E-2,
-3.108061166119E-2));
#68=CARTESIAN_POINT('',(-4.082954114636E-2,6.117936827037E-2,
-3.052957631042E-2));
#69=CARTESIAN_POINT('',(-4.094240919969E-2,6.177356777834E-2,
-3.004265404670E-2));
#70=CARTESIAN_POINT('',(-4.099558842686E-2,6.204984319598E-2,
-2.976637862905E-2));
#72=CURVE_STYLE('',#31,POSITIVE_LENGTH_MEASURE(2.E-2),#1);
#73=PRESENTATION_STYLE_ASSIGNMENT((#72));
#74=STYLED_ITEM('',(#73),#71);
#75=CARTESIAN_POINT('',(-1.956371491517E-1,3.228346456693E-2,
-3.149606299213E-2));
#76=DIRECTION('',(0.E0,0.E0,-1.E0));
#77=DIRECTION('',(9.999992317295E-1,1.239572668685E-3,0.E0));
#78=AXIS2_PLACEMENT_3D('',#75,#76,#77);
#80=CURVE_STYLE('',#31,POSITIVE_LENGTH_MEASURE(2.E-2),#1);
#81=PRESENTATION_STYLE_ASSIGNMENT((#80));
#82=STYLED_ITEM('',(#81),#79);
#83=CARTESIAN_POINT('',(-1.956371491517E-1,3.228346456693E-2,
-3.149606299213E-2));
#84=DIRECTION('',(0.E0,0.E0,-1.E0));
#85=DIRECTION('',(9.867085435933E-1,1.625E-1,0.E0));
#86=AXIS2_PLACEMENT_3D('',#83,#84,#85);
#88=CURVE_STYLE('',#31,POSITIVE_LENGTH_MEASURE(2.E-2),#1);
#89=PRESENTATION_STYLE_ASSIGNMENT((#88));
#90=STYLED_ITEM('',(#89),#87);
#91=CARTESIAN_POINT('',(-4.024997693228E-2,6.377952755906E-2,
-2.559055118110E-2));
#92=CARTESIAN_POINT('',(-4.031384051946E-2,6.377952755906E-2,
-2.597833424015E-2));
#93=CARTESIAN_POINT('',(-4.044435625026E-2,6.370273622288E-2,
-2.675234242263E-2));
#94=CARTESIAN_POINT('',(-4.063998009884E-2,6.336603158044E-2,
-2.786243731722E-2));
#95=CARTESIAN_POINT('',(-4.082847596420E-2,6.281731873334E-2,
-2.889072564468E-2));
#96=CARTESIAN_POINT('',(-4.094280925353E-2,6.232404026372E-2,
-2.949218156132E-2));
#97=CARTESIAN_POINT('',(-4.099558842686E-2,6.204984319598E-2,
-2.976637862905E-2));
#99=CURVE_STYLE('',#31,POSITIVE_LENGTH_MEASURE(2.E-2),#1);
#100=PRESENTATION_STYLE_ASSIGNMENT((#99));
#101=STYLED_ITEM('',(#100),#98);
#102=DIRECTION('',(1.E0,0.E0,-2.307931524911E-14));
#103=VECTOR('',#102,1.683663724095E-2);
#104=CARTESIAN_POINT('',(-5.708661417323E-2,6.377952755906E-2,
-2.559055118110E-2));
#105=LINE('',#104,#103);
#106=CURVE_STYLE('',#31,POSITIVE_LENGTH_MEASURE(2.E-2),#1);
#107=PRESENTATION_STYLE_ASSIGNMENT((#106));
#108=STYLED_ITEM('',(#107),#105);
#109=DIRECTION('',(-1.E0,-3.544323413256E-14,0.E0));
#110=VECTOR('',#109,1.683663724095E-2);
#111=CARTESIAN_POINT('',(-4.024997693228E-2,5.787401574803E-2,
-3.149606299213E-2));
#112=LINE('',#111,#110);
#113=CURVE_STYLE('',#31,POSITIVE_LENGTH_MEASURE(2.E-2),#1);
#114=PRESENTATION_STYLE_ASSIGNMENT((#113));
#115=STYLED_ITEM('',(#114),#112);
#116=CARTESIAN_POINT('',(-4.092226897135E-2,6.240094442020E-2,
2.938291015192E-2));
#117=CARTESIAN_POINT('',(-4.000929416763E-2,5.747342483817E-2,
2.457557397501E-2));
#118=CARTESIAN_POINT('',(-3.862354101803E-2,4.746455257593E-2,
1.481081605638E-2));
#119=CARTESIAN_POINT('',(-3.815683419106E-2,3.736639436722E-2,
4.958955901988E-3));
#120=CARTESIAN_POINT('',(-3.815683419106E-2,3.228346456693E-2,0.E0));
#122=CURVE_STYLE('',#31,POSITIVE_LENGTH_MEASURE(2.E-2),#1);
#123=PRESENTATION_STYLE_ASSIGNMENT((#122));
#124=STYLED_ITEM('',(#123),#121);
#125=CARTESIAN_POINT('',(-4.099558842686E-2,2.517085937876E-3,
2.976637862905E-2));
#126=CARTESIAN_POINT('',(-4.037065674394E-2,5.763715700834E-3,
2.651974886610E-2));
#127=CARTESIAN_POINT('',(-3.932627929755E-2,1.228978199368E-2,
1.999377354693E-2));
#128=CARTESIAN_POINT('',(-3.837763998120E-2,2.216896707405E-2,
1.011440616421E-2));
#129=CARTESIAN_POINT('',(-3.816105751023E-2,2.877878629591E-2,
3.504678271021E-3));
#130=CARTESIAN_POINT('',(-3.815695517854E-2,3.208825627265E-2,
1.952082942823E-4));
#132=CURVE_STYLE('',#31,POSITIVE_LENGTH_MEASURE(2.E-2),#1);
#133=PRESENTATION_STYLE_ASSIGNMENT((#132));
#134=STYLED_ITEM('',(#133),#131);
#135=CARTESIAN_POINT('',(-4.024997693228E-2,6.692913385826E-3,
3.149606299213E-2));
#136=CARTESIAN_POINT('',(-4.031493176431E-2,6.298504230666E-3,
3.149606299213E-2));
#137=CARTESIAN_POINT('',(-4.044479781474E-2,5.528524313015E-3,
3.141841071026E-2));
#138=CARTESIAN_POINT('',(-4.064097561672E-2,4.415251461631E-3,
3.108061166119E-2));
#139=CARTESIAN_POINT('',(-4.082954114636E-2,3.387560863484E-3,
3.052957631042E-2));
#140=CARTESIAN_POINT('',(-4.094240919969E-2,2.793361355519E-3,
3.004265404670E-2));
#141=CARTESIAN_POINT('',(-4.099558842686E-2,2.517085937876E-3,
2.976637862905E-2));
#143=CURVE_STYLE('',#31,POSITIVE_LENGTH_MEASURE(2.E-2),#1);
#144=PRESENTATION_STYLE_ASSIGNMENT((#143));
#145=STYLED_ITEM('',(#144),#142);
#146=CARTESIAN_POINT('',(-4.092226897141E-2,6.166637471947E-2,
3.011747985273E-2));
#147=CARTESIAN_POINT('',(-4.087189437591E-2,6.140112870014E-2,
3.033968560390E-2));
#148=CARTESIAN_POINT('',(-4.076694288163E-2,6.084115612203E-2,
3.073067554487E-2));
#149=CARTESIAN_POINT('',(-4.059694915450E-2,5.990434839026E-2,
3.116826425434E-2));
#150=CARTESIAN_POINT('',(-4.042217856060E-2,5.890517309660E-2,
3.143549035266E-2));
#151=CARTESIAN_POINT('',(-4.030727872964E-2,5.822195527431E-2,
3.149606299213E-2));
#152=CARTESIAN_POINT('',(-4.024997693228E-2,5.787401574803E-2,
3.149606299213E-2));
#154=CURVE_STYLE('',#31,POSITIVE_LENGTH_MEASURE(2.E-2),#1);
#155=PRESENTATION_STYLE_ASSIGNMENT((#154));
#156=STYLED_ITEM('',(#155),#153);
#157=CARTESIAN_POINT('',(-3.815683419106E-2,3.228346456693E-2,0.E0));
#158=CARTESIAN_POINT('',(-3.815683419106E-2,3.724242046885E-2,
5.082929800367E-3));
#159=CARTESIAN_POINT('',(-3.862354101793E-2,4.709428062253E-2,
1.518108800968E-2));
#160=CARTESIAN_POINT('',(-4.000929416772E-2,5.685903854265E-2,
2.518996027064E-2));
#161=CARTESIAN_POINT('',(-4.092226897141E-2,6.166637471947E-2,
3.011747985273E-2));
#163=CURVE_STYLE('',#31,POSITIVE_LENGTH_MEASURE(2.E-2),#1);
#164=PRESENTATION_STYLE_ASSIGNMENT((#163));
#165=STYLED_ITEM('',(#164),#162);
#166=CARTESIAN_POINT('',(-3.815695517854E-2,3.208825627265E-2,
1.952082942823E-4));
#167=CARTESIAN_POINT('',(-3.815692829244E-2,3.210994606893E-2,
1.735184838065E-4));
#168=CARTESIAN_POINT('',(-3.815688348227E-2,3.215332567482E-2,
1.301388628550E-4));
#169=CARTESIAN_POINT('',(-3.815684315310E-2,3.221839512587E-2,
6.506943142759E-5));
#170=CARTESIAN_POINT('',(-3.815683419106E-2,3.226177475398E-2,
2.168981047578E-5));
#171=CARTESIAN_POINT('',(-3.815683419106E-2,3.228346456693E-2,0.E0));
#173=CURVE_STYLE('',#31,POSITIVE_LENGTH_MEASURE(2.E-2),#1);
#174=PRESENTATION_STYLE_ASSIGNMENT((#173));
#175=STYLED_ITEM('',(#174),#172);
#176=CARTESIAN_POINT('',(-4.092226897130E-2,2.165984713438E-3,
-2.938291015164E-2));
#177=CARTESIAN_POINT('',(-4.000929416760E-2,7.093504295524E-3,
-2.457557397480E-2));
#178=CARTESIAN_POINT('',(-3.862354101800E-2,1.710237655767E-2,
-1.481081605611E-2));
#179=CARTESIAN_POINT('',(-3.815683419106E-2,2.720053476657E-2,
-4.958955901922E-3));
#180=CARTESIAN_POINT('',(-3.815683419106E-2,3.228346456693E-2,0.E0));
#182=CURVE_STYLE('',#31,POSITIVE_LENGTH_MEASURE(2.E-2),#1);
#183=PRESENTATION_STYLE_ASSIGNMENT((#182));
#184=STYLED_ITEM('',(#183),#181);
#185=CARTESIAN_POINT('',(-4.092226897130E-2,2.165984713438E-3,
-2.938291015164E-2));
#186=CARTESIAN_POINT('',(-4.087232918354E-2,1.945696928942E-3,
-2.911995360029E-2));
#187=CARTESIAN_POINT('',(-4.076654585804E-2,1.551265830266E-3,
-2.855587105678E-2));
#188=CARTESIAN_POINT('',(-4.059673137397E-2,1.115061129324E-3,
-2.761962609415E-2));
#189=CARTESIAN_POINT('',(-4.042230708003E-2,8.477495025267E-4,
-2.662218988037E-2));
#190=CARTESIAN_POINT('',(-4.030666351044E-2,7.874015748032E-4,
-2.593475506404E-2));
#191=CARTESIAN_POINT('',(-4.024997693228E-2,7.874015748032E-4,
-2.559055118110E-2));
#193=CURVE_STYLE('',#31,POSITIVE_LENGTH_MEASURE(2.E-2),#1);
#194=PRESENTATION_STYLE_ASSIGNMENT((#193));
#195=STYLED_ITEM('',(#194),#192);
#196=CARTESIAN_POINT('',(-4.092226897141E-2,2.900554414368E-3,
-3.011747985272E-2));
#197=CARTESIAN_POINT('',(-4.093902912022E-2,2.812305208332E-3,
-3.004355044496E-2));
#198=CARTESIAN_POINT('',(-4.096146832849E-2,2.639866715737E-3,
-2.989034705539E-2));
#199=CARTESIAN_POINT('',(-4.096146832839E-2,2.393117511459E-3,
-2.964359785100E-2));
#200=CARTESIAN_POINT('',(-4.093902912039E-2,2.239914122332E-3,
-2.947115935915E-2));
#201=CARTESIAN_POINT('',(-4.092226897130E-2,2.165984713438E-3,
-2.938291015164E-2));
#203=CURVE_STYLE('',#31,POSITIVE_LENGTH_MEASURE(2.E-2),#1);
#204=PRESENTATION_STYLE_ASSIGNMENT((#203));
#205=STYLED_ITEM('',(#204),#202);
#206=DIRECTION('',(1.E0,-3.987363839913E-14,0.E0));
#207=VECTOR('',#206,1.683663724095E-2);
#208=CARTESIAN_POINT('',(-5.708661417323E-2,6.692913385827E-3,
-3.149606299213E-2));
#209=LINE('',#208,#207);
#210=CURVE_STYLE('',#31,POSITIVE_LENGTH_MEASURE(2.E-2),#1);
#211=PRESENTATION_STYLE_ASSIGNMENT((#210));
#212=STYLED_ITEM('',(#211),#209);
#213=DIRECTION('',(-1.E0,0.E0,2.596422965525E-14));
#214=VECTOR('',#213,1.683663724095E-2);
#215=CARTESIAN_POINT('',(-4.024997693228E-2,7.874015748032E-4,
-2.559055118110E-2));
#216=LINE('',#215,#214);
#217=CURVE_STYLE('',#31,POSITIVE_LENGTH_MEASURE(2.E-2),#1);
#218=PRESENTATION_STYLE_ASSIGNMENT((#217));
#219=STYLED_ITEM('',(#218),#216);
#220=CARTESIAN_POINT('',(-5.708661417323E-2,6.692913385827E-3,
-2.559055118110E-2));
#221=DIRECTION('',(0.E0,-1.E0,0.E0));
#222=DIRECTION('',(-1.E0,0.E0,0.E0));
#223=AXIS2_PLACEMENT_3D('',#220,#221,#222);
#225=CURVE_STYLE('',#31,POSITIVE_LENGTH_MEASURE(2.E-2),#1);
#226=PRESENTATION_STYLE_ASSIGNMENT((#225));
#227=STYLED_ITEM('',(#226),#224);
#228=CARTESIAN_POINT('',(-5.708661417323E-2,6.692913385827E-3,
-2.559055118110E-2));
#229=DIRECTION('',(0.E0,0.E0,-1.E0));
#230=DIRECTION('',(0.E0,-1.E0,0.E0));
#231=AXIS2_PLACEMENT_3D('',#228,#229,#230);
#233=CURVE_STYLE('',#31,POSITIVE_LENGTH_MEASURE(2.E-2),#1);
#234=PRESENTATION_STYLE_ASSIGNMENT((#233));
#235=STYLED_ITEM('',(#234),#232);
#236=CARTESIAN_POINT('',(-5.708661417323E-2,6.692913385827E-3,
-2.559055118110E-2));
#237=DIRECTION('',(-1.E0,0.E0,0.E0));
#238=DIRECTION('',(0.E0,0.E0,-1.E0));
#239=AXIS2_PLACEMENT_3D('',#236,#237,#238);
#241=CURVE_STYLE('',#31,POSITIVE_LENGTH_MEASURE(2.E-2),#1);
#242=PRESENTATION_STYLE_ASSIGNMENT((#241));
#243=STYLED_ITEM('',(#242),#240);
#244=DIRECTION('',(0.E0,-1.E0,0.E0));
#245=VECTOR('',#244,5.118110236220E-2);
#246=CARTESIAN_POINT('',(-5.708661417323E-2,5.787401574803E-2,
-3.149606299213E-2));
#247=LINE('',#246,#245);
#248=CURVE_STYLE('',#31,POSITIVE_LENGTH_MEASURE(2.E-2),#1);
#249=PRESENTATION_STYLE_ASSIGNMENT((#248));
#250=STYLED_ITEM('',(#249),#247);
#251=DIRECTION('',(0.E0,1.E0,0.E0));
#252=VECTOR('',#251,5.118110236220E-2);
#253=CARTESIAN_POINT('',(-6.299212598425E-2,6.692913385827E-3,
-2.559055118110E-2));
#254=LINE('',#253,#252);
#255=CURVE_STYLE('',#31,POSITIVE_LENGTH_MEASURE(2.E-2),#1);
#256=PRESENTATION_STYLE_ASSIGNMENT((#255));
#257=STYLED_ITEM('',(#256),#254);
#258=CARTESIAN_POINT('',(-5.708661417323E-2,5.787401574803E-2,
-2.559055118110E-2));
#259=DIRECTION('',(-1.E0,0.E0,0.E0));
#260=DIRECTION('',(0.E0,1.E0,0.E0));
#261=AXIS2_PLACEMENT_3D('',#258,#259,#260);
#263=CURVE_STYLE('',#31,POSITIVE_LENGTH_MEASURE(2.E-2),#1);
#264=PRESENTATION_STYLE_ASSIGNMENT((#263));
#265=STYLED_ITEM('',(#264),#262);
#266=CARTESIAN_POINT('',(-5.708661417323E-2,5.787401574803E-2,
-2.559055118110E-2));
#267=DIRECTION('',(0.E0,0.E0,-1.E0));
#268=DIRECTION('',(-1.E0,0.E0,0.E0));
#269=AXIS2_PLACEMENT_3D('',#266,#267,#268);
#271=CURVE_STYLE('',#31,POSITIVE_LENGTH_MEASURE(2.E-2),#1);
#272=PRESENTATION_STYLE_ASSIGNMENT((#271));
#273=STYLED_ITEM('',(#272),#270);
#274=CARTESIAN_POINT('',(-5.708661417323E-2,5.787401574803E-2,
-2.559055118110E-2));
#275=DIRECTION('',(0.E0,1.E0,0.E0));
#276=DIRECTION('',(0.E0,0.E0,-1.E0));
#277=AXIS2_PLACEMENT_3D('',#274,#275,#276);
#279=CURVE_STYLE('',#31,POSITIVE_LENGTH_MEASURE(2.E-2),#1);
#280=PRESENTATION_STYLE_ASSIGNMENT((#279));
#281=STYLED_ITEM('',(#280),#278);
#282=DIRECTION('',(0.E0,0.E0,-1.E0));
#283=VECTOR('',#282,5.118110236220E-2);
#284=CARTESIAN_POINT('',(-5.708661417323E-2,6.377952755906E-2,
2.559055118110E-2));
#285=LINE('',#284,#283);
#286=CURVE_STYLE('',#31,POSITIVE_LENGTH_MEASURE(2.E-2),#1);
#287=PRESENTATION_STYLE_ASSIGNMENT((#286));
#288=STYLED_ITEM('',(#287),#285);
#289=DIRECTION('',(0.E0,0.E0,1.E0));
#290=VECTOR('',#289,5.118110236220E-2);
#291=CARTESIAN_POINT('',(-6.299212598425E-2,5.787401574803E-2,
-2.559055118110E-2));
#292=LINE('',#291,#290);
#293=CURVE_STYLE('',#31,POSITIVE_LENGTH_MEASURE(2.E-2),#1);
#294=PRESENTATION_STYLE_ASSIGNMENT((#293));
#295=STYLED_ITEM('',(#294),#292);
#296=CARTESIAN_POINT('',(-1.956371491517E-1,6.377952755906E-2,0.E0));
#297=DIRECTION('',(0.E0,1.E0,0.E0));
#298=DIRECTION('',(9.867085435933E-1,0.E0,1.625E-1));
#299=AXIS2_PLACEMENT_3D('',#296,#297,#298);
#301=CURVE_STYLE('',#31,POSITIVE_LENGTH_MEASURE(2.E-2),#1);
#302=PRESENTATION_STYLE_ASSIGNMENT((#301));
#303=STYLED_ITEM('',(#302),#300);
#304=CARTESIAN_POINT('',(-4.092226897135E-2,6.240094442020E-2,
2.938291015192E-2));
#305=CARTESIAN_POINT('',(-4.087232918359E-2,6.262123220469E-2,
2.911995360057E-2));
#306=CARTESIAN_POINT('',(-4.076654585801E-2,6.301566330370E-2,
2.855587105664E-2));
#307=CARTESIAN_POINT('',(-4.059673137398E-2,6.345186800451E-2,
2.761962609418E-2));
#308=CARTESIAN_POINT('',(-4.042230708003E-2,6.371917963134E-2,
2.662218988035E-2));
#309=CARTESIAN_POINT('',(-4.030666351044E-2,6.377952755906E-2,
2.593475506404E-2));
#310=CARTESIAN_POINT('',(-4.024997693228E-2,6.377952755906E-2,
2.559055118110E-2));
#312=CURVE_STYLE('',#31,POSITIVE_LENGTH_MEASURE(2.E-2),#1);
#313=PRESENTATION_STYLE_ASSIGNMENT((#312));
#314=STYLED_ITEM('',(#313),#311);
#315=CARTESIAN_POINT('',(-4.092226897141E-2,6.166637471947E-2,
3.011747985273E-2));
#316=CARTESIAN_POINT('',(-4.093902912023E-2,6.175462392555E-2,
3.004355044495E-2));
#317=CARTESIAN_POINT('',(-4.096146832849E-2,6.192706241809E-2,
2.989034705543E-2));
#318=CARTESIAN_POINT('',(-4.096146832837E-2,6.217381162251E-2,
2.964359785086E-2));
#319=CARTESIAN_POINT('',(-4.093902912042E-2,6.232701501130E-2,
2.947115935944E-2));
#320=CARTESIAN_POINT('',(-4.092226897135E-2,6.240094442020E-2,
2.938291015192E-2));
#322=CURVE_STYLE('',#31,POSITIVE_LENGTH_MEASURE(2.E-2),#1);
#323=PRESENTATION_STYLE_ASSIGNMENT((#322));
#324=STYLED_ITEM('',(#323),#321);
#325=DIRECTION('',(1.E0,3.709175665036E-14,0.E0));
#326=VECTOR('',#325,1.683663724095E-2);
#327=CARTESIAN_POINT('',(-5.708661417323E-2,5.787401574803E-2,
3.149606299213E-2));
#328=LINE('',#327,#326);
#329=CURVE_STYLE('',#31,POSITIVE_LENGTH_MEASURE(2.E-2),#1);
#330=PRESENTATION_STYLE_ASSIGNMENT((#329));
#331=STYLED_ITEM('',(#330),#328);
#332=DIRECTION('',(-1.E0,0.E0,-2.184292336077E-14));
#333=VECTOR('',#332,1.683663724095E-2);
#334=CARTESIAN_POINT('',(-4.024997693228E-2,6.377952755906E-2,
2.559055118110E-2));
#335=LINE('',#334,#333);
#336=CURVE_STYLE('',#31,POSITIVE_LENGTH_MEASURE(2.E-2),#1);
#337=PRESENTATION_STYLE_ASSIGNMENT((#336));
#338=STYLED_ITEM('',(#337),#335);
#339=CARTESIAN_POINT('',(-1.956371491517E-1,3.228346456693E-2,
3.149606299213E-2));
#340=DIRECTION('',(0.E0,0.E0,1.E0));
#341=DIRECTION('',(9.999992317295E-1,-1.239572668697E-3,0.E0));
#342=AXIS2_PLACEMENT_3D('',#339,#340,#341);
#344=CURVE_STYLE('',#31,POSITIVE_LENGTH_MEASURE(2.E-2),#1);
#345=PRESENTATION_STYLE_ASSIGNMENT((#344));
#346=STYLED_ITEM('',(#345),#343);
#347=CARTESIAN_POINT('',(-1.956371491517E-1,3.228346456693E-2,
3.149606299213E-2));
#348=DIRECTION('',(0.E0,0.E0,1.E0));
#349=DIRECTION('',(9.867085435933E-1,-1.625E-1,0.E0));
#350=AXIS2_PLACEMENT_3D('',#347,#348,#349);
#352=CURVE_STYLE('',#31,POSITIVE_LENGTH_MEASURE(2.E-2),#1);
#353=PRESENTATION_STYLE_ASSIGNMENT((#352));
#354=STYLED_ITEM('',(#353),#351);
#355=CARTESIAN_POINT('',(-4.024997693228E-2,7.874015748032E-4,
2.559055118110E-2));
#356=CARTESIAN_POINT('',(-4.031384051946E-2,7.874015748032E-4,
2.597833424015E-2));
#357=CARTESIAN_POINT('',(-4.044435625026E-2,8.641929109773E-4,
2.675234242264E-2));
#358=CARTESIAN_POINT('',(-4.063998009884E-2,1.200897553427E-3,
2.786243731722E-2));
#359=CARTESIAN_POINT('',(-4.082847596420E-2,1.749610400516E-3,
2.889072564468E-2));
#360=CARTESIAN_POINT('',(-4.094280925353E-2,2.242888870140E-3,
2.949218156132E-2));
#361=CARTESIAN_POINT('',(-4.099558842686E-2,2.517085937876E-3,
2.976637862905E-2));
#363=CURVE_STYLE('',#31,POSITIVE_LENGTH_MEASURE(2.E-2),#1);
#364=PRESENTATION_STYLE_ASSIGNMENT((#363));
#365=STYLED_ITEM('',(#364),#362);
#366=DIRECTION('',(1.E0,0.E0,2.390357650801E-14));
#367=VECTOR('',#366,1.683663724095E-2);
#368=CARTESIAN_POINT('',(-5.708661417323E-2,7.874015748032E-4,
2.559055118110E-2));
#369=LINE('',#368,#367);
#370=CURVE_STYLE('',#31,POSITIVE_LENGTH_MEASURE(2.E-2),#1);
#371=PRESENTATION_STYLE_ASSIGNMENT((#370));
#372=STYLED_ITEM('',(#371),#369);
#373=DIRECTION('',(-1.E0,3.673114234959E-14,0.E0));
#374=VECTOR('',#373,1.683663724095E-2);
#375=CARTESIAN_POINT('',(-4.024997693228E-2,6.692913385826E-3,
3.149606299213E-2));
#376=LINE('',#375,#374);
#377=CURVE_STYLE('',#31,POSITIVE_LENGTH_MEASURE(2.E-2),#1);
#378=PRESENTATION_STYLE_ASSIGNMENT((#377));
#379=STYLED_ITEM('',(#378),#376);
#380=CARTESIAN_POINT('',(-1.956371491517E-1,7.874015748032E-4,0.E0));
#381=DIRECTION('',(0.E0,-1.E0,0.E0));
#382=DIRECTION('',(9.867085435933E-1,0.E0,-1.625E-1));
#383=AXIS2_PLACEMENT_3D('',#380,#381,#382);
#385=CURVE_STYLE('',#31,POSITIVE_LENGTH_MEASURE(2.E-2),#1);
#386=PRESENTATION_STYLE_ASSIGNMENT((#385));
#387=STYLED_ITEM('',(#386),#384);
#388=DIRECTION('',(0.E0,0.E0,-1.E0));
#389=VECTOR('',#388,5.118110236220E-2);
#390=CARTESIAN_POINT('',(-6.299212598425E-2,6.692913385827E-3,
2.559055118110E-2));
#391=LINE('',#390,#389);
#392=CURVE_STYLE('',#31,POSITIVE_LENGTH_MEASURE(2.E-2),#1);
#393=PRESENTATION_STYLE_ASSIGNMENT((#392));
#394=STYLED_ITEM('',(#393),#391);
#395=DIRECTION('',(0.E0,0.E0,1.E0));
#396=VECTOR('',#395,5.118110236220E-2);
#397=CARTESIAN_POINT('',(-5.708661417323E-2,7.874015748032E-4,
-2.559055118110E-2));
#398=LINE('',#397,#396);
#399=CURVE_STYLE('',#31,POSITIVE_LENGTH_MEASURE(2.E-2),#1);
#400=PRESENTATION_STYLE_ASSIGNMENT((#399));
#401=STYLED_ITEM('',(#400),#398);
#402=DIRECTION('',(0.E0,-1.E0,0.E0));
#403=VECTOR('',#402,5.118110236220E-2);
#404=CARTESIAN_POINT('',(-6.299212598425E-2,5.787401574803E-2,
2.559055118110E-2));
#405=LINE('',#404,#403);
#406=CURVE_STYLE('',#31,POSITIVE_LENGTH_MEASURE(2.E-2),#1);
#407=PRESENTATION_STYLE_ASSIGNMENT((#406));
#408=STYLED_ITEM('',(#407),#405);
#409=DIRECTION('',(0.E0,1.E0,0.E0));
#410=VECTOR('',#409,5.118110236220E-2);
#411=CARTESIAN_POINT('',(-5.708661417323E-2,6.692913385827E-3,
3.149606299213E-2));
#412=LINE('',#411,#410);
#413=CURVE_STYLE('',#31,POSITIVE_LENGTH_MEASURE(2.E-2),#1);
#414=PRESENTATION_STYLE_ASSIGNMENT((#413));
#415=STYLED_ITEM('',(#414),#412);
#416=CARTESIAN_POINT('',(-5.708661417323E-2,5.787401574803E-2,
2.559055118110E-2));
#417=DIRECTION('',(0.E0,0.E0,1.E0));
#418=DIRECTION('',(0.E0,1.E0,0.E0));
#419=AXIS2_PLACEMENT_3D('',#416,#417,#418);
#421=CURVE_STYLE('',#31,POSITIVE_LENGTH_MEASURE(2.E-2),#1);
#422=PRESENTATION_STYLE_ASSIGNMENT((#421));
#423=STYLED_ITEM('',(#422),#420);
#424=CARTESIAN_POINT('',(-5.708661417323E-2,5.787401574803E-2,
2.559055118110E-2));
#425=DIRECTION('',(-1.E0,0.E0,0.E0));
#426=DIRECTION('',(0.E0,0.E0,1.E0));
#427=AXIS2_PLACEMENT_3D('',#424,#425,#426);
#429=CURVE_STYLE('',#31,POSITIVE_LENGTH_MEASURE(2.E-2),#1);
#430=PRESENTATION_STYLE_ASSIGNMENT((#429));
#431=STYLED_ITEM('',(#430),#428);
#432=CARTESIAN_POINT('',(-5.708661417323E-2,5.787401574803E-2,
2.559055118110E-2));
#433=DIRECTION('',(0.E0,1.E0,0.E0));
#434=DIRECTION('',(-1.E0,0.E0,0.E0));
#435=AXIS2_PLACEMENT_3D('',#432,#433,#434);
#437=CURVE_STYLE('',#31,POSITIVE_LENGTH_MEASURE(2.E-2),#1);
#438=PRESENTATION_STYLE_ASSIGNMENT((#437));
#439=STYLED_ITEM('',(#438),#436);
#440=CARTESIAN_POINT('',(-5.708661417323E-2,6.692913385827E-3,
2.559055118110E-2));
#441=DIRECTION('',(0.E0,-1.E0,0.E0));
#442=DIRECTION('',(0.E0,0.E0,1.E0));
#443=AXIS2_PLACEMENT_3D('',#440,#441,#442);
#445=CURVE_STYLE('',#31,POSITIVE_LENGTH_MEASURE(2.E-2),#1);
#446=PRESENTATION_STYLE_ASSIGNMENT((#445));
#447=STYLED_ITEM('',(#446),#444);
#448=CARTESIAN_POINT('',(-5.708661417323E-2,6.692913385827E-3,
2.559055118110E-2));
#449=DIRECTION('',(-1.E0,0.E0,0.E0));
#450=DIRECTION('',(0.E0,-1.E0,0.E0));
#451=AXIS2_PLACEMENT_3D('',#448,#449,#450);
#453=CURVE_STYLE('',#31,POSITIVE_LENGTH_MEASURE(2.E-2),#1);
#454=PRESENTATION_STYLE_ASSIGNMENT((#453));
#455=STYLED_ITEM('',(#454),#452);
#456=CARTESIAN_POINT('',(-5.708661417323E-2,6.692913385827E-3,
2.559055118110E-2));
#457=DIRECTION('',(0.E0,0.E0,1.E0));
#458=DIRECTION('',(-1.E0,0.E0,0.E0));
#459=AXIS2_PLACEMENT_3D('',#456,#457,#458);
#461=CURVE_STYLE('',#31,POSITIVE_LENGTH_MEASURE(2.E-2),#1);
#462=PRESENTATION_STYLE_ASSIGNMENT((#461));
#463=STYLED_ITEM('',(#462),#460);
#464=CARTESIAN_POINT('',(-4.024997693228E-2,5.787401574803E-2,
-3.149606299213E-2));
#465=CARTESIAN_POINT('',(-3.815695517854E-2,3.247867286121E-2,
-3.149606299213E-2));
#466=VERTEX_POINT('',#464);
#467=VERTEX_POINT('',#465);
#468=CARTESIAN_POINT('',(-4.024997693228E-2,6.692913385827E-3,
-3.149606299213E-2));
#469=VERTEX_POINT('',#468);
#470=VERTEX_POINT('',#70);
#471=VERTEX_POINT('',#44);
#472=VERTEX_POINT('',#49);
#473=VERTEX_POINT('',#39);
#474=VERTEX_POINT('',#166);
#475=VERTEX_POINT('',#125);
#476=VERTEX_POINT('',#161);
#477=VERTEX_POINT('',#152);
#478=CARTESIAN_POINT('',(-4.024997693228E-2,6.692913385827E-3,
3.149606299213E-2));
#479=CARTESIAN_POINT('',(-3.815695517854E-2,3.208825627265E-2,
3.149606299213E-2));
#480=VERTEX_POINT('',#478);
#481=VERTEX_POINT('',#479);
#482=VERTEX_POINT('',#116);
#483=VERTEX_POINT('',#91);
#484=CARTESIAN_POINT('',(-4.024997693228E-2,6.377952755906E-2,
2.559055118110E-2));
#485=VERTEX_POINT('',#484);
#486=VERTEX_POINT('',#355);
#487=CARTESIAN_POINT('',(-4.024997693228E-2,7.874015748032E-4,
-2.559055118110E-2));
#488=VERTEX_POINT('',#487);
#489=VERTEX_POINT('',#185);
#490=CARTESIAN_POINT('',(-5.708661417323E-2,7.874015748032E-4,
-2.559055118110E-2));
#491=VERTEX_POINT('',#490);
#492=CARTESIAN_POINT('',(-5.708661417323E-2,6.692913385827E-3,
-3.149606299213E-2));
#493=VERTEX_POINT('',#492);
#494=CARTESIAN_POINT('',(-5.708661417323E-2,6.692913385827E-3,
3.149606299213E-2));
#495=VERTEX_POINT('',#494);
#496=CARTESIAN_POINT('',(-5.708661417323E-2,7.874015748032E-4,
2.559055118110E-2));
#497=VERTEX_POINT('',#496);
#498=CARTESIAN_POINT('',(-5.708661417323E-2,5.787401574803E-2,
-3.149606299213E-2));
#499=VERTEX_POINT('',#498);
#500=CARTESIAN_POINT('',(-5.708661417323E-2,6.377952755906E-2,
-2.559055118110E-2));
#501=VERTEX_POINT('',#500);
#502=CARTESIAN_POINT('',(-6.299212598425E-2,5.787401574803E-2,
-2.559055118110E-2));
#503=VERTEX_POINT('',#502);
#504=CARTESIAN_POINT('',(-5.708661417323E-2,6.377952755906E-2,
2.559055118110E-2));
#505=VERTEX_POINT('',#504);
#506=CARTESIAN_POINT('',(-5.708661417323E-2,5.787401574803E-2,
3.149606299213E-2));
#507=VERTEX_POINT('',#506);
#508=CARTESIAN_POINT('',(-6.299212598425E-2,5.787401574803E-2,
2.559055118110E-2));
#509=VERTEX_POINT('',#508);
#510=CARTESIAN_POINT('',(-6.299212598425E-2,6.692913385827E-3,
2.559055118110E-2));
#511=VERTEX_POINT('',#510);
#512=CARTESIAN_POINT('',(-6.299212598425E-2,6.692913385827E-3,
-2.559055118110E-2));
#513=VERTEX_POINT('',#512);
#514=CARTESIAN_POINT('',(-1.956371491517E-1,3.228346456693E-2,
-4.769176574402E-1));
#515=DIRECTION('',(0.E0,0.E0,1.E0));
#516=DIRECTION('',(9.999992317295E-1,1.239572668685E-3,0.E0));
#517=AXIS2_PLACEMENT_3D('',#514,#515,#516);
#518=CYLINDRICAL_SURFACE('',#517,1.574803149606E-1);
#520=ORIENTED_EDGE('',*,*,#519,.T.);
#522=ORIENTED_EDGE('',*,*,#521,.F.);
#524=ORIENTED_EDGE('',*,*,#523,.F.);
#526=ORIENTED_EDGE('',*,*,#525,.F.);
#528=ORIENTED_EDGE('',*,*,#527,.F.);
#530=ORIENTED_EDGE('',*,*,#529,.F.);
#532=ORIENTED_EDGE('',*,*,#531,.T.);
#533=EDGE_LOOP('',(#520,#522,#524,#526,#528,#530,#532));
#534=FACE_OUTER_BOUND('',#533,.F.);
#536=FILL_AREA_STYLE_COLOUR('',#9);
#537=FILL_AREA_STYLE('',(#536));
#538=SURFACE_STYLE_FILL_AREA(#537);
#539=SURFACE_SIDE_STYLE('',(#538));
#540=SURFACE_STYLE_USAGE(.BOTH.,#539);
#541=PRESENTATION_STYLE_ASSIGNMENT((#540));
#542=OVER_RIDING_STYLED_ITEM('',(#541),#535,#22);
#543=CARTESIAN_POINT('',(-5.708661417323E-2,6.377952755906E-2,
-3.149606299213E-2));
#544=DIRECTION('',(0.E0,0.E0,1.E0));
#545=DIRECTION('',(-1.E0,0.E0,0.E0));
#546=AXIS2_PLACEMENT_3D('',#543,#544,#545);
#547=PLANE('',#546);
#549=ORIENTED_EDGE('',*,*,#548,.T.);
#551=ORIENTED_EDGE('',*,*,#550,.T.);
#553=ORIENTED_EDGE('',*,*,#552,.T.);
#554=ORIENTED_EDGE('',*,*,#519,.F.);
#555=ORIENTED_EDGE('',*,*,#531,.F.);
#556=EDGE_LOOP('',(#549,#551,#553,#554,#555));
#557=FACE_OUTER_BOUND('',#556,.F.);
#559=FILL_AREA_STYLE_COLOUR('',#9);
#560=FILL_AREA_STYLE('',(#559));
#561=SURFACE_STYLE_FILL_AREA(#560);
#562=SURFACE_SIDE_STYLE('',(#561));
#563=SURFACE_STYLE_USAGE(.BOTH.,#562);
#564=PRESENTATION_STYLE_ASSIGNMENT((#563));
#565=OVER_RIDING_STYLED_ITEM('',(#564),#558,#22);
#566=CARTESIAN_POINT('',(-5.708661417323E-2,5.787401574803E-2,
-2.559055118110E-2));
#567=DIRECTION('',(1.E0,0.E0,0.E0));
#568=DIRECTION('',(0.E0,0.E0,1.E0));
#569=AXIS2_PLACEMENT_3D('',#566,#567,#568);
#570=CYLINDRICAL_SURFACE('',#569,5.905511811024E-3);
#572=ORIENTED_EDGE('',*,*,#571,.F.);
#574=ORIENTED_EDGE('',*,*,#573,.F.);
#576=ORIENTED_EDGE('',*,*,#575,.T.);
#577=ORIENTED_EDGE('',*,*,#548,.F.);
#578=ORIENTED_EDGE('',*,*,#529,.T.);
#579=EDGE_LOOP('',(#572,#574,#576,#577,#578));
#580=FACE_OUTER_BOUND('',#579,.F.);
#582=FILL_AREA_STYLE_COLOUR('',#9);
#583=FILL_AREA_STYLE('',(#582));
#584=SURFACE_STYLE_FILL_AREA(#583);
#585=SURFACE_SIDE_STYLE('',(#584));
#586=SURFACE_STYLE_USAGE(.BOTH.,#585);
#587=PRESENTATION_STYLE_ASSIGNMENT((#586));
#588=OVER_RIDING_STYLED_ITEM('',(#587),#581,#22);
#589=CARTESIAN_POINT('',(-1.956371491517E-1,6.377952755906E-2,0.E0));
#590=DIRECTION('',(0.E0,-1.E0,0.E0));
#591=DIRECTION('',(0.E0,0.E0,1.E0));
#592=AXIS2_PLACEMENT_3D('',#589,#590,#591);
#593=CYLINDRICAL_SURFACE('',#592,1.574803149606E-1);
#594=ORIENTED_EDGE('',*,*,#525,.T.);
#596=ORIENTED_EDGE('',*,*,#595,.F.);
#598=ORIENTED_EDGE('',*,*,#597,.T.);
#600=ORIENTED_EDGE('',*,*,#599,.T.);
#601=ORIENTED_EDGE('',*,*,#571,.T.);
#602=ORIENTED_EDGE('',*,*,#527,.T.);
#603=EDGE_LOOP('',(#594,#596,#598,#600,#601,#602));
#604=FACE_OUTER_BOUND('',#603,.F.);
#606=FILL_AREA_STYLE_COLOUR('',#9);
#607=FILL_AREA_STYLE('',(#606));
#608=SURFACE_STYLE_FILL_AREA(#607);
#609=SURFACE_SIDE_STYLE('',(#608));
#610=SURFACE_STYLE_USAGE(.BOTH.,#609);
#611=PRESENTATION_STYLE_ASSIGNMENT((#610));
#612=OVER_RIDING_STYLED_ITEM('',(#611),#605,#22);
#613=CARTESIAN_POINT('',(-3.815683419106E-2,3.228346456693E-2,0.E0));
#614=CARTESIAN_POINT('',(-3.815683419106E-2,3.228346456693E-2,0.E0));
#615=CARTESIAN_POINT('',(-3.815683419106E-2,3.228346456693E-2,0.E0));
#616=CARTESIAN_POINT('',(-3.815683419106E-2,3.228346456693E-2,0.E0));
#617=CARTESIAN_POINT('',(-3.815683419106E-2,3.723577706223E-2,
5.089570788683E-3));
#618=CARTESIAN_POINT('',(-3.815683419106E-2,3.728153651644E-2,
5.043828838523E-3));
#619=CARTESIAN_POINT('',(-3.815683419106E-2,3.732728721903E-2,
4.998078136729E-3));
#620=CARTESIAN_POINT('',(-3.815683419106E-2,3.737302916997E-2,
4.952318683301E-3));
#621=CARTESIAN_POINT('',(-3.862686199904E-2,4.718031534261E-2,
1.530972820323E-2));
#622=CARTESIAN_POINT('',(-3.863913614411E-2,4.731710297739E-2,
1.517127954191E-2));
#623=CARTESIAN_POINT('',(-3.863913669735E-2,4.745472546105E-2,
1.503365698338E-2));
#624=CARTESIAN_POINT('',(-3.862686365878E-2,4.759317404790E-2,
1.489686927334E-2));
#625=CARTESIAN_POINT('',(-4.003392960402E-2,5.703633882158E-2,
2.543849241559E-2));
#626=CARTESIAN_POINT('',(-4.007201631395E-2,5.726063125415E-2,
2.520873856641E-2));
#627=CARTESIAN_POINT('',(-4.007201803069E-2,5.749217190286E-2,
2.497719767153E-2));
#628=CARTESIAN_POINT('',(-4.003393475422E-2,5.772192591313E-2,
2.475290458553E-2));
#629=CARTESIAN_POINT('',(-4.097403175688E-2,6.193983287465E-2,
3.047746316597E-2));
#630=CARTESIAN_POINT('',(-4.103070677261E-2,6.220507951912E-2,
3.020133494923E-2));
#631=CARTESIAN_POINT('',(-4.103070932720E-2,6.248476185518E-2,
2.992165212270E-2));
#632=CARTESIAN_POINT('',(-4.097403942064E-2,6.276089039234E-2,
2.965640417684E-2));
#633=B_SPLINE_SURFACE_WITH_KNOTS('',3,3,((#613,#614,#615,#616),(#617,#618,#619,
#620),(#621,#622,#623,#624),(#625,#626,#627,#628),(#629,#630,#631,#632)),
.UNSPECIFIED.,.F.,.F.,.F.,(4,1,4),(4,4),(0.E0,5.E-1,1.004057365676E0),(
-5.357739043622E-2,1.053527486214E0),.UNSPECIFIED.);
#634=ORIENTED_EDGE('',*,*,#595,.T.);
#636=ORIENTED_EDGE('',*,*,#635,.T.);
#638=ORIENTED_EDGE('',*,*,#637,.T.);
#639=EDGE_LOOP('',(#634,#636,#638));
#640=FACE_OUTER_BOUND('',#639,.F.);
#642=FILL_AREA_STYLE_COLOUR('',#9);
#643=FILL_AREA_STYLE('',(#642));
#644=SURFACE_STYLE_FILL_AREA(#643);
#645=SURFACE_SIDE_STYLE('',(#644));
#646=SURFACE_STYLE_USAGE(.BOTH.,#645);
#647=PRESENTATION_STYLE_ASSIGNMENT((#646));
#648=OVER_RIDING_STYLED_ITEM('',(#647),#641,#22);
#649=CARTESIAN_POINT('',(-1.956371491517E-1,3.228346456693E-2,
-4.769176574402E-1));
#650=DIRECTION('',(0.E0,0.E0,1.E0));
#651=DIRECTION('',(9.999992317295E-1,-1.239572668693E-3,0.E0));
#652=AXIS2_PLACEMENT_3D('',#649,#650,#651);
#653=CYLINDRICAL_SURFACE('',#652,1.574803149606E-1);
#655=ORIENTED_EDGE('',*,*,#654,.F.);
#657=ORIENTED_EDGE('',*,*,#656,.F.);
#659=ORIENTED_EDGE('',*,*,#658,.T.);
#661=ORIENTED_EDGE('',*,*,#660,.T.);
#663=ORIENTED_EDGE('',*,*,#662,.F.);
#664=ORIENTED_EDGE('',*,*,#635,.F.);
#666=ORIENTED_EDGE('',*,*,#665,.F.);
#667=EDGE_LOOP('',(#655,#657,#659,#661,#663,#664,#666));
#668=FACE_OUTER_BOUND('',#667,.F.);
#670=FILL_AREA_STYLE_COLOUR('',#9);
#671=FILL_AREA_STYLE('',(#670));
#672=SURFACE_STYLE_FILL_AREA(#671);
#673=SURFACE_SIDE_STYLE('',(#672));
#674=SURFACE_STYLE_USAGE(.BOTH.,#673);
#675=PRESENTATION_STYLE_ASSIGNMENT((#674));
#676=OVER_RIDING_STYLED_ITEM('',(#675),#669,#22);
#677=CARTESIAN_POINT('',(-1.956371491517E-1,6.377952755906E-2,0.E0));
#678=DIRECTION('',(0.E0,-1.E0,0.E0));
#679=DIRECTION('',(0.E0,0.E0,1.E0));
#680=AXIS2_PLACEMENT_3D('',#677,#678,#679);
#681=CYLINDRICAL_SURFACE('',#680,1.574803149606E-1);
#682=ORIENTED_EDGE('',*,*,#665,.T.);
#684=ORIENTED_EDGE('',*,*,#683,.F.);
#686=ORIENTED_EDGE('',*,*,#685,.T.);
#688=ORIENTED_EDGE('',*,*,#687,.T.);
#690=ORIENTED_EDGE('',*,*,#689,.T.);
#691=ORIENTED_EDGE('',*,*,#654,.T.);
#692=EDGE_LOOP('',(#682,#684,#686,#688,#690,#691));
#693=FACE_OUTER_BOUND('',#692,.F.);
#695=FILL_AREA_STYLE_COLOUR('',#9);
#696=FILL_AREA_STYLE('',(#695));
#697=SURFACE_STYLE_FILL_AREA(#696);
#698=SURFACE_SIDE_STYLE('',(#697));
#699=SURFACE_STYLE_USAGE(.BOTH.,#698);
#700=PRESENTATION_STYLE_ASSIGNMENT((#699));
#701=OVER_RIDING_STYLED_ITEM('',(#700),#694,#22);
#702=CARTESIAN_POINT('',(-4.097404194209E-2,1.805946808151E-3,
-2.965642143283E-2));
#703=CARTESIAN_POINT('',(-4.103071715923E-2,2.082075527433E-3,
-2.992166852115E-2));
#704=CARTESIAN_POINT('',(-4.103071971379E-2,2.361758875686E-3,
-3.020135137892E-2));
#705=CARTESIAN_POINT('',(-4.097404960578E-2,2.627007265397E-3,
-3.047748041864E-2));
#706=CARTESIAN_POINT('',(-4.003393470602E-2,6.844935424782E-3,
-2.475290999232E-2));
#707=CARTESIAN_POINT('',(-4.007202150954E-2,7.074689605132E-3,
-2.497720274230E-2));
#708=CARTESIAN_POINT('',(-4.007202322626E-2,7.306230840675E-3,
-2.520874373167E-2));
#709=CARTESIAN_POINT('',(-4.003393985616E-2,7.530524244089E-3,
-2.543849807312E-2));
#710=CARTESIAN_POINT('',(-3.862686285119E-2,1.697371783472E-2,
-1.489686880499E-2));
#711=CARTESIAN_POINT('',(-3.863913701850E-2,1.711216666419E-2,
-1.503365660487E-2));
#712=CARTESIAN_POINT('',(-3.863913757175E-2,1.724978938935E-2,
-1.517127925517E-2));
#713=CARTESIAN_POINT('',(-3.862686451092E-2,1.738657726449E-2,
-1.530972801016E-2));
#714=CARTESIAN_POINT('',(-3.815683419106E-2,2.719389377825E-2,
-4.952312495302E-3));
#715=CARTESIAN_POINT('',(-3.815683419106E-2,2.723963572843E-2,
-4.998071949543E-3));
#716=CARTESIAN_POINT('',(-3.815683419106E-2,2.728538643025E-2,
-5.043822652148E-3));
#717=CARTESIAN_POINT('',(-3.815683419106E-2,2.733114588370E-2,
-5.089564603119E-3));
#718=CARTESIAN_POINT('',(-3.815683419106E-2,3.228346456693E-2,0.E0));
#719=CARTESIAN_POINT('',(-3.815683419106E-2,3.228346456693E-2,0.E0));
#720=CARTESIAN_POINT('',(-3.815683419106E-2,3.228346456693E-2,0.E0));
#721=CARTESIAN_POINT('',(-3.815683419106E-2,3.228346456693E-2,0.E0));
#722=B_SPLINE_SURFACE_WITH_KNOTS('',3,3,((#702,#703,#704,#705),(#706,#707,#708,
#709),(#710,#711,#712,#713),(#714,#715,#716,#717),(#718,#719,#720,#721)),
.UNSPECIFIED.,.F.,.F.,.F.,(4,1,4),(4,4),(-4.059186017144E-3,5.E-1,1.E0),(
-5.357739039117E-2,1.053527486812E0),.UNSPECIFIED.);
#723=ORIENTED_EDGE('',*,*,#683,.T.);
#724=ORIENTED_EDGE('',*,*,#523,.T.);
#726=ORIENTED_EDGE('',*,*,#725,.T.);
#727=EDGE_LOOP('',(#723,#724,#726));
#728=FACE_OUTER_BOUND('',#727,.F.);
#730=FILL_AREA_STYLE_COLOUR('',#9);
#731=FILL_AREA_STYLE('',(#730));
#732=SURFACE_STYLE_FILL_AREA(#731);
#733=SURFACE_SIDE_STYLE('',(#732));
#734=SURFACE_STYLE_USAGE(.BOTH.,#733);
#735=PRESENTATION_STYLE_ASSIGNMENT((#734));
#736=OVER_RIDING_STYLED_ITEM('',(#735),#729,#22);
#737=CARTESIAN_POINT('',(-5.708661417323E-2,6.692913385827E-3,
-2.559055118110E-2));
#738=DIRECTION('',(-1.E0,0.E0,0.E0));
#739=DIRECTION('',(0.E0,0.E0,-1.E0));
#740=AXIS2_PLACEMENT_3D('',#737,#738,#739);
#741=CYLINDRICAL_SURFACE('',#740,5.905511811024E-3);
#742=ORIENTED_EDGE('',*,*,#685,.F.);
#743=ORIENTED_EDGE('',*,*,#725,.F.);
#744=ORIENTED_EDGE('',*,*,#521,.T.);
#745=ORIENTED_EDGE('',*,*,#552,.F.);
#747=ORIENTED_EDGE('',*,*,#746,.T.);
#749=ORIENTED_EDGE('',*,*,#748,.F.);
#750=EDGE_LOOP('',(#742,#743,#744,#745,#747,#749));
#751=FACE_OUTER_BOUND('',#750,.F.);
#753=FILL_AREA_STYLE_COLOUR('',#9);
#754=FILL_AREA_STYLE('',(#753));
#755=SURFACE_STYLE_FILL_AREA(#754);
#756=SURFACE_SIDE_STYLE('',(#755));
#757=SURFACE_STYLE_USAGE(.BOTH.,#756);
#758=PRESENTATION_STYLE_ASSIGNMENT((#757));
#759=OVER_RIDING_STYLED_ITEM('',(#758),#752,#22);
#760=CARTESIAN_POINT('',(-5.708661417323E-2,6.692913385827E-3,
-2.559055118110E-2));
#761=DIRECTION('',(1.E0,0.E0,0.E0));
#762=DIRECTION('',(0.E0,0.E0,-1.E0));
#763=AXIS2_PLACEMENT_3D('',#760,#761,#762);
#764=SPHERICAL_SURFACE('',#763,5.905511811024E-3);
#766=ORIENTED_EDGE('',*,*,#765,.F.);
#768=ORIENTED_EDGE('',*,*,#767,.F.);
#769=ORIENTED_EDGE('',*,*,#746,.F.);
#770=EDGE_LOOP('',(#766,#768,#769));
#771=FACE_OUTER_BOUND('',#770,.F.);
#773=FILL_AREA_STYLE_COLOUR('',#9);
#774=FILL_AREA_STYLE('',(#773));
#775=SURFACE_STYLE_FILL_AREA(#774);
#776=SURFACE_SIDE_STYLE('',(#775));
#777=SURFACE_STYLE_USAGE(.BOTH.,#776);
#778=PRESENTATION_STYLE_ASSIGNMENT((#777));
#779=OVER_RIDING_STYLED_ITEM('',(#778),#772,#22);
#780=CARTESIAN_POINT('',(-5.708661417323E-2,6.377952755906E-2,
-2.559055118110E-2));
#781=DIRECTION('',(0.E0,-1.E0,0.E0));
#782=DIRECTION('',(0.E0,0.E0,1.E0));
#783=AXIS2_PLACEMENT_3D('',#780,#781,#782);
#784=CYLINDRICAL_SURFACE('',#783,5.905511811024E-3);
#785=ORIENTED_EDGE('',*,*,#550,.F.);
#787=ORIENTED_EDGE('',*,*,#786,.T.);
#789=ORIENTED_EDGE('',*,*,#788,.F.);
#790=ORIENTED_EDGE('',*,*,#765,.T.);
#791=EDGE_LOOP('',(#785,#787,#789,#790));
#792=FACE_OUTER_BOUND('',#791,.F.);
#794=FILL_AREA_STYLE_COLOUR('',#9);
#795=FILL_AREA_STYLE('',(#794));
#796=SURFACE_STYLE_FILL_AREA(#795);
#797=SURFACE_SIDE_STYLE('',(#796));
#798=SURFACE_STYLE_USAGE(.BOTH.,#797);
#799=PRESENTATION_STYLE_ASSIGNMENT((#798));
#800=OVER_RIDING_STYLED_ITEM('',(#799),#793,#22);
#801=CARTESIAN_POINT('',(-5.708661417323E-2,5.787401574803E-2,
-2.559055118110E-2));
#802=DIRECTION('',(1.E0,0.E0,0.E0));
#803=DIRECTION('',(0.E0,0.E0,-1.E0));
#804=AXIS2_PLACEMENT_3D('',#801,#802,#803);
#805=SPHERICAL_SURFACE('',#804,5.905511811024E-3);
#806=ORIENTED_EDGE('',*,*,#575,.F.);
#808=ORIENTED_EDGE('',*,*,#807,.F.);
#809=ORIENTED_EDGE('',*,*,#786,.F.);
#810=EDGE_LOOP('',(#806,#808,#809));
#811=FACE_OUTER_BOUND('',#810,.F.);
#813=FILL_AREA_STYLE_COLOUR('',#9);
#814=FILL_AREA_STYLE('',(#813));
#815=SURFACE_STYLE_FILL_AREA(#814);
#816=SURFACE_SIDE_STYLE('',(#815));
#817=SURFACE_STYLE_USAGE(.BOTH.,#816);
#818=PRESENTATION_STYLE_ASSIGNMENT((#817));
#819=OVER_RIDING_STYLED_ITEM('',(#818),#812,#22);
#820=CARTESIAN_POINT('',(-5.708661417323E-2,5.787401574803E-2,
2.559055118110E-2));
#821=DIRECTION('',(0.E0,0.E0,-1.E0));
#822=DIRECTION('',(1.E0,0.E0,0.E0));
#823=AXIS2_PLACEMENT_3D('',#820,#821,#822);
#824=CYLINDRICAL_SURFACE('',#823,5.905511811024E-3);
#825=ORIENTED_EDGE('',*,*,#807,.T.);
#827=ORIENTED_EDGE('',*,*,#826,.F.);
#829=ORIENTED_EDGE('',*,*,#828,.T.);
#831=ORIENTED_EDGE('',*,*,#830,.F.);
#832=EDGE_LOOP('',(#825,#827,#829,#831));
#833=FACE_OUTER_BOUND('',#832,.F.);
#835=FILL_AREA_STYLE_COLOUR('',#9);
#836=FILL_AREA_STYLE('',(#835));
#837=SURFACE_STYLE_FILL_AREA(#836);
#838=SURFACE_SIDE_STYLE('',(#837));
#839=SURFACE_STYLE_USAGE(.BOTH.,#838);
#840=PRESENTATION_STYLE_ASSIGNMENT((#839));
#841=OVER_RIDING_STYLED_ITEM('',(#840),#834,#22);
#842=CARTESIAN_POINT('',(-5.708661417323E-2,6.377952755906E-2,
2.559055118110E-2));
#843=DIRECTION('',(0.E0,1.E0,0.E0));
#844=DIRECTION('',(0.E0,0.E0,-1.E0));
#845=AXIS2_PLACEMENT_3D('',#842,#843,#844);
#846=PLANE('',#845);
#848=ORIENTED_EDGE('',*,*,#847,.T.);
#849=ORIENTED_EDGE('',*,*,#826,.T.);
#850=ORIENTED_EDGE('',*,*,#573,.T.);
#851=ORIENTED_EDGE('',*,*,#599,.F.);
#852=EDGE_LOOP('',(#848,#849,#850,#851));
#853=FACE_OUTER_BOUND('',#852,.F.);
#855=FILL_AREA_STYLE_COLOUR('',#9);
#856=FILL_AREA_STYLE('',(#855));
#857=SURFACE_STYLE_FILL_AREA(#856);
#858=SURFACE_SIDE_STYLE('',(#857));
#859=SURFACE_STYLE_USAGE(.BOTH.,#858);
#860=PRESENTATION_STYLE_ASSIGNMENT((#859));
#861=OVER_RIDING_STYLED_ITEM('',(#860),#854,#22);
#862=CARTESIAN_POINT('',(-5.708661417323E-2,5.787401574803E-2,
2.559055118110E-2));
#863=DIRECTION('',(-1.E0,0.E0,0.E0));
#864=DIRECTION('',(0.E0,0.E0,-1.E0));
#865=AXIS2_PLACEMENT_3D('',#862,#863,#864);
#866=CYLINDRICAL_SURFACE('',#865,5.905511811024E-3);
#867=ORIENTED_EDGE('',*,*,#597,.F.);
#868=ORIENTED_EDGE('',*,*,#637,.F.);
#869=ORIENTED_EDGE('',*,*,#662,.T.);
#871=ORIENTED_EDGE('',*,*,#870,.F.);
#873=ORIENTED_EDGE('',*,*,#872,.T.);
#874=ORIENTED_EDGE('',*,*,#847,.F.);
#875=EDGE_LOOP('',(#867,#868,#869,#871,#873,#874));
#876=FACE_OUTER_BOUND('',#875,.F.);
#878=FILL_AREA_STYLE_COLOUR('',#9);
#879=FILL_AREA_STYLE('',(#878));
#880=SURFACE_STYLE_FILL_AREA(#879);
#881=SURFACE_SIDE_STYLE('',(#880));
#882=SURFACE_STYLE_USAGE(.BOTH.,#881);
#883=PRESENTATION_STYLE_ASSIGNMENT((#882));
#884=OVER_RIDING_STYLED_ITEM('',(#883),#877,#22);
#885=CARTESIAN_POINT('',(-5.708661417323E-2,6.377952755906E-2,
3.149606299213E-2));
#886=DIRECTION('',(0.E0,0.E0,-1.E0));
#887=DIRECTION('',(1.E0,0.E0,0.E0));
#888=AXIS2_PLACEMENT_3D('',#885,#886,#887);
#889=PLANE('',#888);
#891=ORIENTED_EDGE('',*,*,#890,.T.);
#893=ORIENTED_EDGE('',*,*,#892,.T.);
#894=ORIENTED_EDGE('',*,*,#870,.T.);
#895=ORIENTED_EDGE('',*,*,#660,.F.);
#896=ORIENTED_EDGE('',*,*,#658,.F.);
#897=EDGE_LOOP('',(#891,#893,#894,#895,#896));
#898=FACE_OUTER_BOUND('',#897,.F.);
#900=FILL_AREA_STYLE_COLOUR('',#9);
#901=FILL_AREA_STYLE('',(#900));
#902=SURFACE_STYLE_FILL_AREA(#901);
#903=SURFACE_SIDE_STYLE('',(#902));
#904=SURFACE_STYLE_USAGE(.BOTH.,#903);
#905=PRESENTATION_STYLE_ASSIGNMENT((#904));
#906=OVER_RIDING_STYLED_ITEM('',(#905),#899,#22);
#907=CARTESIAN_POINT('',(-5.708661417323E-2,6.692913385827E-3,
2.559055118110E-2));
#908=DIRECTION('',(1.E0,0.E0,0.E0));
#909=DIRECTION('',(0.E0,0.E0,1.E0));
#910=AXIS2_PLACEMENT_3D('',#907,#908,#909);
#911=CYLINDRICAL_SURFACE('',#910,5.905511811024E-3);
#912=ORIENTED_EDGE('',*,*,#689,.F.);
#914=ORIENTED_EDGE('',*,*,#913,.F.);
#916=ORIENTED_EDGE('',*,*,#915,.T.);
#917=ORIENTED_EDGE('',*,*,#890,.F.);
#918=ORIENTED_EDGE('',*,*,#656,.T.);
#919=EDGE_LOOP('',(#912,#914,#916,#917,#918));
#920=FACE_OUTER_BOUND('',#919,.F.);
#922=FILL_AREA_STYLE_COLOUR('',#9);
#923=FILL_AREA_STYLE('',(#922));
#924=SURFACE_STYLE_FILL_AREA(#923);
#925=SURFACE_SIDE_STYLE('',(#924));
#926=SURFACE_STYLE_USAGE(.BOTH.,#925);
#927=PRESENTATION_STYLE_ASSIGNMENT((#926));
#928=OVER_RIDING_STYLED_ITEM('',(#927),#921,#22);
#929=CARTESIAN_POINT('',(-5.708661417323E-2,7.874015748031E-4,
2.559055118110E-2));
#930=DIRECTION('',(0.E0,1.E0,0.E0));
#931=DIRECTION('',(0.E0,0.E0,-1.E0));
#932=AXIS2_PLACEMENT_3D('',#929,#930,#931);
#933=PLANE('',#932);
#934=ORIENTED_EDGE('',*,*,#687,.F.);
#935=ORIENTED_EDGE('',*,*,#748,.T.);
#937=ORIENTED_EDGE('',*,*,#936,.T.);
#938=ORIENTED_EDGE('',*,*,#913,.T.);
#939=EDGE_LOOP('',(#934,#935,#937,#938));
#940=FACE_OUTER_BOUND('',#939,.F.);
#942=FILL_AREA_STYLE_COLOUR('',#9);
#943=FILL_AREA_STYLE('',(#942));
#944=SURFACE_STYLE_FILL_AREA(#943);
#945=SURFACE_SIDE_STYLE('',(#944));
#946=SURFACE_STYLE_USAGE(.BOTH.,#945);
#947=PRESENTATION_STYLE_ASSIGNMENT((#946));
#948=OVER_RIDING_STYLED_ITEM('',(#947),#941,#22);
#949=CARTESIAN_POINT('',(-5.708661417323E-2,6.692913385827E-3,
2.559055118110E-2));
#950=DIRECTION('',(0.E0,0.E0,1.E0));
#951=DIRECTION('',(-1.E0,0.E0,0.E0));
#952=AXIS2_PLACEMENT_3D('',#949,#950,#951);
#953=CYLINDRICAL_SURFACE('',#952,5.905511811024E-3);
#954=ORIENTED_EDGE('',*,*,#767,.T.);
#956=ORIENTED_EDGE('',*,*,#955,.F.);
#958=ORIENTED_EDGE('',*,*,#957,.T.);
#959=ORIENTED_EDGE('',*,*,#936,.F.);
#960=EDGE_LOOP('',(#954,#956,#958,#959));
#961=FACE_OUTER_BOUND('',#960,.F.);
#963=FILL_AREA_STYLE_COLOUR('',#9);
#964=FILL_AREA_STYLE('',(#963));
#965=SURFACE_STYLE_FILL_AREA(#964);
#966=SURFACE_SIDE_STYLE('',(#965));
#967=SURFACE_STYLE_USAGE(.BOTH.,#966);
#968=PRESENTATION_STYLE_ASSIGNMENT((#967));
#969=OVER_RIDING_STYLED_ITEM('',(#968),#962,#22);
#970=CARTESIAN_POINT('',(-6.299212598425E-2,6.377952755906E-2,
2.559055118110E-2));
#971=DIRECTION('',(1.E0,0.E0,0.E0));
#972=DIRECTION('',(0.E0,0.E0,1.E0));
#973=AXIS2_PLACEMENT_3D('',#970,#971,#972);
#974=PLANE('',#973);
#975=ORIENTED_EDGE('',*,*,#788,.T.);
#976=ORIENTED_EDGE('',*,*,#830,.T.);
#978=ORIENTED_EDGE('',*,*,#977,.T.);
#979=ORIENTED_EDGE('',*,*,#955,.T.);
#980=EDGE_LOOP('',(#975,#976,#978,#979));
#981=FACE_OUTER_BOUND('',#980,.F.);
#983=FILL_AREA_STYLE_COLOUR('',#9);
#984=FILL_AREA_STYLE('',(#983));
#985=SURFACE_STYLE_FILL_AREA(#984);
#986=SURFACE_SIDE_STYLE('',(#985));
#987=SURFACE_STYLE_USAGE(.BOTH.,#986);
#988=PRESENTATION_STYLE_ASSIGNMENT((#987));
#989=OVER_RIDING_STYLED_ITEM('',(#988),#982,#22);
#990=CARTESIAN_POINT('',(-5.708661417323E-2,6.377952755906E-2,
2.559055118110E-2));
#991=DIRECTION('',(0.E0,-1.E0,0.E0));
#992=DIRECTION('',(0.E0,0.E0,1.E0));
#993=AXIS2_PLACEMENT_3D('',#990,#991,#992);
#994=CYLINDRICAL_SURFACE('',#993,5.905511811024E-3);
#995=ORIENTED_EDGE('',*,*,#977,.F.);
#997=ORIENTED_EDGE('',*,*,#996,.T.);
#998=ORIENTED_EDGE('',*,*,#892,.F.);
#1000=ORIENTED_EDGE('',*,*,#999,.T.);
#1001=EDGE_LOOP('',(#995,#997,#998,#1000));
#1002=FACE_OUTER_BOUND('',#1001,.F.);
#1004=FILL_AREA_STYLE_COLOUR('',#9);
#1005=FILL_AREA_STYLE('',(#1004));
#1006=SURFACE_STYLE_FILL_AREA(#1005);
#1007=SURFACE_SIDE_STYLE('',(#1006));
#1008=SURFACE_STYLE_USAGE(.BOTH.,#1007);
#1009=PRESENTATION_STYLE_ASSIGNMENT((#1008));
#1010=OVER_RIDING_STYLED_ITEM('',(#1009),#1003,#22);
#1011=CARTESIAN_POINT('',(-5.708661417323E-2,5.787401574803E-2,
2.559055118110E-2));
#1012=DIRECTION('',(1.E0,0.E0,0.E0));
#1013=DIRECTION('',(0.E0,0.E0,-1.E0));
#1014=AXIS2_PLACEMENT_3D('',#1011,#1012,#1013);
#1015=SPHERICAL_SURFACE('',#1014,5.905511811024E-3);
#1016=ORIENTED_EDGE('',*,*,#828,.F.);
#1017=ORIENTED_EDGE('',*,*,#872,.F.);
#1018=ORIENTED_EDGE('',*,*,#996,.F.);
#1019=EDGE_LOOP('',(#1016,#1017,#1018));
#1020=FACE_OUTER_BOUND('',#1019,.F.);
#1022=FILL_AREA_STYLE_COLOUR('',#9);
#1023=FILL_AREA_STYLE('',(#1022));
#1024=SURFACE_STYLE_FILL_AREA(#1023);
#1025=SURFACE_SIDE_STYLE('',(#1024));
#1026=SURFACE_STYLE_USAGE(.BOTH.,#1025);
#1027=PRESENTATION_STYLE_ASSIGNMENT((#1026));
#1028=OVER_RIDING_STYLED_ITEM('',(#1027),#1021,#22);
#1029=CARTESIAN_POINT('',(-5.708661417323E-2,6.692913385827E-3,
2.559055118110E-2));
#1030=DIRECTION('',(1.E0,0.E0,0.E0));
#1031=DIRECTION('',(0.E0,0.E0,-1.E0));
#1032=AXIS2_PLACEMENT_3D('',#1029,#1030,#1031);
#1033=SPHERICAL_SURFACE('',#1032,5.905511811024E-3);
#1034=ORIENTED_EDGE('',*,*,#999,.F.);
#1035=ORIENTED_EDGE('',*,*,#915,.F.);
#1036=ORIENTED_EDGE('',*,*,#957,.F.);
#1037=EDGE_LOOP('',(#1034,#1035,#1036));
#1038=FACE_OUTER_BOUND('',#1037,.F.);
#1040=FILL_AREA_STYLE_COLOUR('',#9);
#1041=FILL_AREA_STYLE('',(#1040));
#1042=SURFACE_STYLE_FILL_AREA(#1041);
#1043=SURFACE_SIDE_STYLE('',(#1042));
#1044=SURFACE_STYLE_USAGE(.BOTH.,#1043);
#1045=PRESENTATION_STYLE_ASSIGNMENT((#1044));
#1046=OVER_RIDING_STYLED_ITEM('',(#1045),#1039,#22);
#1049=FILL_AREA_STYLE_COLOUR('',#1);
#1050=FILL_AREA_STYLE('',(#1049));
#1051=SURFACE_STYLE_FILL_AREA(#1050);
#1052=SURFACE_SIDE_STYLE('',(#1051));
#1053=SURFACE_STYLE_USAGE(.BOTH.,#1052);
#1054=PRESENTATION_STYLE_ASSIGNMENT((#1053));
#22=STYLED_ITEM('',(#1054),#1048);
#1056=LENGTH_MEASURE_WITH_UNIT(LENGTH_MEASURE(2.54E1),#1055);
#1057=(CONVERSION_BASED_UNIT('INCH',#1056)LENGTH_UNIT()NAMED_UNIT(*));
#1059=PLANE_ANGLE_MEASURE_WITH_UNIT(PLANE_ANGLE_MEASURE(1.745329251994E-2),
#1058);
#1060=(CONVERSION_BASED_UNIT('DEGREE',#1059)NAMED_UNIT(*)PLANE_ANGLE_UNIT());
#1062=UNCERTAINTY_MEASURE_WITH_UNIT(LENGTH_MEASURE(9.250756383703E-6),#1057,
'closure',
'Maximum model space distance between geometric entities at asserted connectivities');
#1064=CARTESIAN_POINT('',(0.E0,0.E0,0.E0));
#1065=DIRECTION('',(0.E0,0.E0,1.E0));
#1066=DIRECTION('',(1.E0,0.E0,0.E0));
#1069=MECHANICAL_DESIGN_GEOMETRIC_PRESENTATION_REPRESENTATION('',(#34,#43,#53,
#63,#74,#82,#90,#101,#108,#115,#124,#134,#145,#156,#165,#175,#184,#195,#205,
#212,#219,#227,#235,#243,#250,#257,#265,#273,#281,#288,#295,#303,#314,#324,#331,
#338,#346,#354,#365,#372,#379,#387,#394,#401,#408,#415,#423,#431,#439,#447,#455,
#463,#542,#565,#588,#612,#648,#676,#701,#736,#759,#779,#800,#819,#841,#861,#884,
#906,#928,#948,#969,#989,#1010,#1028,#1046,#22),#1063);
#1070=APPLICATION_CONTEXT('automotive design');
#1071=APPLICATION_PROTOCOL_DEFINITION('international standard',
'config_control_design',1994,#1070);
#1072=PRODUCT_DEFINITION_CONTEXT('',#1070,'design');
#1073=PRODUCT_CONTEXT('',#1070,'mechanical');
#1074=PRODUCT('BODY2-4189','BODY2-4189','NOT SPECIFIED',(#1073));
#1075=PRODUCT_DEFINITION_FORMATION_WITH_SPECIFIED_SOURCE('1','LAST_VERSION',
#1074,.MADE.);
#1083=LENGTH_MEASURE_WITH_UNIT(LENGTH_MEASURE(2.54E1),#1082);
#1084=(CONVERSION_BASED_UNIT('INCH',#1083)LENGTH_UNIT()NAMED_UNIT(*));
#1085=DERIVED_UNIT_ELEMENT(#1084,2.E0);
#1086=AREA_UNIT((#1085));
#1087=MEASURE_REPRESENTATION_ITEM('surface area measure',AREA_MEASURE(
8.407703530511E0),#1086);
#1092=LENGTH_MEASURE_WITH_UNIT(LENGTH_MEASURE(2.54E1),#1091);
#1093=(CONVERSION_BASED_UNIT('INCH',#1092)LENGTH_UNIT()NAMED_UNIT(*));
#1094=DERIVED_UNIT_ELEMENT(#1093,3.E0);
#1095=VOLUME_UNIT((#1094));
#1096=MEASURE_REPRESENTATION_ITEM('volume measure',VOLUME_MEASURE(
1.541156298352E0),#1095);
#1100=CARTESIAN_POINT('centre point',(-1.285769799191E0,8.200000000008E-1,
3.336252148541E-9));
#1105=LENGTH_MEASURE_WITH_UNIT(LENGTH_MEASURE(2.54E1),#1104);
#1106=(CONVERSION_BASED_UNIT('INCH',#1105)LENGTH_UNIT()NAMED_UNIT(*));
#1107=DERIVED_UNIT_ELEMENT(#1106,2.E0);
#1108=AREA_UNIT((#1107));
#1109=MEASURE_REPRESENTATION_ITEM('surface area measure',AREA_MEASURE(
8.407703530511E0),#1108);
#1114=LENGTH_MEASURE_WITH_UNIT(LENGTH_MEASURE(2.54E1),#1113);
#1115=(CONVERSION_BASED_UNIT('INCH',#1114)LENGTH_UNIT()NAMED_UNIT(*));
#1116=DERIVED_UNIT_ELEMENT(#1115,3.E0);
#1117=VOLUME_UNIT((#1116));
#1118=MEASURE_REPRESENTATION_ITEM('volume measure',VOLUME_MEASURE(
1.541156298352E0),#1117);
#1122=CARTESIAN_POINT('centre point',(-1.285769799191E0,8.200000000008E-1,
3.336252148541E-9));
#1=DRAUGHTING_PRE_DEFINED_COLOUR('white');
#2=DRAUGHTING_PRE_DEFINED_COLOUR('green');
#3=COLOUR_RGB('',1.1E-2,1.2E-2,1.E0);
#4=COLOUR_RGB('',1.921568627451E-1,1.921568627451E-1,1.921568627451E-1);
#5=COLOUR_RGB('',2.352941176471E-1,2.352941176471E-1,2.352941176471E-1);
#6=COLOUR_RGB('',3.137254901961E-1,3.137254901961E-1,3.137254901961E-1);
#7=COLOUR_RGB('',4.1E-1,2.61589E-1,1.12848E-1);
#8=COLOUR_RGB('',5.04854E-1,1.5455E-2,1.5455E-2);
#9=COLOUR_RGB('',6.E-1,6.E-1,6.E-1);
#10=COLOUR_RGB('',6.274509803922E-1,6.274509803922E-1,6.274509803922E-1);
#11=COLOUR_RGB('',6.35294E-1,6.86275E-1,7.4902E-1);
#12=COLOUR_RGB('',6.40777E-1,6.40777E-1,6.40777E-1);
#13=COLOUR_RGB('',6.69062E-1,6.69903E-1,6.55217E-1);
#14=COLOUR_RGB('',8.313725490196E-1,0.E0,0.E0);
#15=COLOUR_RGB('',8.666666666667E-1,8.666666666667E-1,8.666666666667E-1);
#16=COLOUR_RGB('',9.21569E-1,7.05882E-1,4.70588E-1);
#17=DRAUGHTING_PRE_DEFINED_COLOUR('red');
#18=DRAUGHTING_PRE_DEFINED_COLOUR('yellow');
#19=COLOUR_RGB('',1.E0,1.E0,5.3E-1);
#20=COLOUR_RGB('',1.E0,1.E0,9.49E-1);
#21=DRAUGHTING_PRE_DEFINED_COLOUR('white');
#30=B_SPLINE_CURVE_WITH_KNOTS('',3,(#23,#24,#25,#26,#27,#28,#29),.UNSPECIFIED.,
.F.,.F.,(4,1,1,1,4),(0.E0,2.5E-1,5.E-1,7.5E-1,1.E0),.UNSPECIFIED.);
#40=B_SPLINE_CURVE_WITH_KNOTS('',3,(#35,#36,#37,#38,#39),.UNSPECIFIED.,.F.,.F.,(
4,1,4),(0.E0,5.033323603846E-1,1.E0),.UNSPECIFIED.);
#50=B_SPLINE_CURVE_WITH_KNOTS('',3,(#44,#45,#46,#47,#48,#49),.UNSPECIFIED.,.F.,
.F.,(4,1,1,4),(0.E0,3.333333333333E-1,6.666666666667E-1,1.E0),.UNSPECIFIED.);
#60=B_SPLINE_CURVE_WITH_KNOTS('',3,(#54,#55,#56,#57,#58,#59),.UNSPECIFIED.,.F.,
.F.,(4,1,1,4),(0.E0,3.333333333333E-1,6.666666666667E-1,1.E0),.UNSPECIFIED.);
#71=B_SPLINE_CURVE_WITH_KNOTS('',3,(#64,#65,#66,#67,#68,#69,#70),.UNSPECIFIED.,
.F.,.F.,(4,1,1,1,4),(0.E0,2.5E-1,5.E-1,7.5E-1,1.E0),.UNSPECIFIED.);
#79=CIRCLE('',#78,1.574803149606E-1);
#87=CIRCLE('',#86,1.574803149606E-1);
#98=B_SPLINE_CURVE_WITH_KNOTS('',3,(#91,#92,#93,#94,#95,#96,#97),.UNSPECIFIED.,
.F.,.F.,(4,1,1,1,4),(0.E0,2.5E-1,5.E-1,7.5E-1,1.E0),.UNSPECIFIED.);
#121=B_SPLINE_CURVE_WITH_KNOTS('',3,(#116,#117,#118,#119,#120),.UNSPECIFIED.,
.F.,.F.,(4,1,4),(0.E0,4.966676396158E-1,1.E0),.UNSPECIFIED.);
#131=B_SPLINE_CURVE_WITH_KNOTS('',3,(#125,#126,#127,#128,#129,#130),
.UNSPECIFIED.,.F.,.F.,(4,1,1,4),(0.E0,3.333333333333E-1,6.666666666667E-1,1.E0),
.UNSPECIFIED.);
#142=B_SPLINE_CURVE_WITH_KNOTS('',3,(#135,#136,#137,#138,#139,#140,#141),
.UNSPECIFIED.,.F.,.F.,(4,1,1,1,4),(0.E0,2.5E-1,5.E-1,7.5E-1,1.E0),
.UNSPECIFIED.);
#153=B_SPLINE_CURVE_WITH_KNOTS('',3,(#146,#147,#148,#149,#150,#151,#152),
.UNSPECIFIED.,.F.,.F.,(4,1,1,1,4),(0.E0,2.5E-1,5.E-1,7.5E-1,1.E0),
.UNSPECIFIED.);
#162=B_SPLINE_CURVE_WITH_KNOTS('',3,(#157,#158,#159,#160,#161),.UNSPECIFIED.,
.F.,.F.,(4,1,4),(0.E0,5.033323603847E-1,1.E0),.UNSPECIFIED.);
#172=B_SPLINE_CURVE_WITH_KNOTS('',3,(#166,#167,#168,#169,#170,#171),
.UNSPECIFIED.,.F.,.F.,(4,1,1,4),(0.E0,3.333333333333E-1,6.666666666667E-1,1.E0),
.UNSPECIFIED.);
#181=B_SPLINE_CURVE_WITH_KNOTS('',3,(#176,#177,#178,#179,#180),.UNSPECIFIED.,
.F.,.F.,(4,1,4),(0.E0,4.966676396154E-1,1.E0),.UNSPECIFIED.);
#192=B_SPLINE_CURVE_WITH_KNOTS('',3,(#185,#186,#187,#188,#189,#190,#191),
.UNSPECIFIED.,.F.,.F.,(4,1,1,1,4),(0.E0,2.5E-1,5.E-1,7.5E-1,1.E0),
.UNSPECIFIED.);
#202=B_SPLINE_CURVE_WITH_KNOTS('',3,(#196,#197,#198,#199,#200,#201),
.UNSPECIFIED.,.F.,.F.,(4,1,1,4),(0.E0,3.333333333333E-1,6.666666666667E-1,1.E0),
.UNSPECIFIED.);
#224=CIRCLE('',#223,5.905511811024E-3);
#232=CIRCLE('',#231,5.905511811024E-3);
#240=CIRCLE('',#239,5.905511811024E-3);
#262=CIRCLE('',#261,5.905511811024E-3);
#270=CIRCLE('',#269,5.905511811024E-3);
#278=CIRCLE('',#277,5.905511811024E-3);
#300=CIRCLE('',#299,1.574803149606E-1);
#311=B_SPLINE_CURVE_WITH_KNOTS('',3,(#304,#305,#306,#307,#308,#309,#310),
.UNSPECIFIED.,.F.,.F.,(4,1,1,1,4),(0.E0,2.5E-1,5.E-1,7.5E-1,1.E0),
.UNSPECIFIED.);
#321=B_SPLINE_CURVE_WITH_KNOTS('',3,(#315,#316,#317,#318,#319,#320),
.UNSPECIFIED.,.F.,.F.,(4,1,1,4),(0.E0,3.333333333333E-1,6.666666666667E-1,1.E0),
.UNSPECIFIED.);
#343=CIRCLE('',#342,1.574803149606E-1);
#351=CIRCLE('',#350,1.574803149606E-1);
#362=B_SPLINE_CURVE_WITH_KNOTS('',3,(#355,#356,#357,#358,#359,#360,#361),
.UNSPECIFIED.,.F.,.F.,(4,1,1,1,4),(0.E0,2.5E-1,5.E-1,7.5E-1,1.E0),
.UNSPECIFIED.);
#384=CIRCLE('',#383,1.574803149606E-1);
#420=CIRCLE('',#419,5.905511811024E-3);
#428=CIRCLE('',#427,5.905511811024E-3);
#436=CIRCLE('',#435,5.905511811024E-3);
#444=CIRCLE('',#443,5.905511811024E-3);
#452=CIRCLE('',#451,5.905511811024E-3);
#460=CIRCLE('',#459,5.905511811024E-3);
#519=EDGE_CURVE('',#467,#469,#79,.T.);
#521=EDGE_CURVE('',#473,#469,#30,.T.);
#523=EDGE_CURVE('',#472,#473,#40,.T.);
#525=EDGE_CURVE('',#471,#472,#50,.T.);
#527=EDGE_CURVE('',#470,#471,#60,.T.);
#529=EDGE_CURVE('',#466,#470,#71,.T.);
#531=EDGE_CURVE('',#466,#467,#87,.T.);
#535=ADVANCED_FACE('',(#534),#518,.T.);
#548=EDGE_CURVE('',#466,#499,#112,.T.);
#550=EDGE_CURVE('',#499,#493,#247,.T.);
#552=EDGE_CURVE('',#493,#469,#209,.T.);
#558=ADVANCED_FACE('',(#557),#547,.F.);
#571=EDGE_CURVE('',#483,#470,#98,.T.);
#573=EDGE_CURVE('',#501,#483,#105,.T.);
#575=EDGE_CURVE('',#501,#499,#262,.T.);
#581=ADVANCED_FACE('',(#580),#570,.T.);
#595=EDGE_CURVE('',#482,#472,#121,.T.);
#597=EDGE_CURVE('',#482,#485,#311,.T.);
#599=EDGE_CURVE('',#485,#483,#300,.T.);
#605=ADVANCED_FACE('',(#604),#593,.T.);
#635=EDGE_CURVE('',#472,#476,#162,.T.);
#637=EDGE_CURVE('',#476,#482,#321,.T.);
#641=ADVANCED_FACE('',(#640),#633,.F.);
#654=EDGE_CURVE('',#475,#474,#131,.T.);
#656=EDGE_CURVE('',#480,#475,#142,.T.);
#658=EDGE_CURVE('',#480,#481,#351,.T.);
#660=EDGE_CURVE('',#481,#477,#343,.T.);
#662=EDGE_CURVE('',#476,#477,#153,.T.);
#665=EDGE_CURVE('',#474,#472,#172,.T.);
#669=ADVANCED_FACE('',(#668),#653,.T.);
#683=EDGE_CURVE('',#489,#472,#181,.T.);
#685=EDGE_CURVE('',#489,#488,#192,.T.);
#687=EDGE_CURVE('',#488,#486,#384,.T.);
#689=EDGE_CURVE('',#486,#475,#362,.T.);
#694=ADVANCED_FACE('',(#693),#681,.T.);
#725=EDGE_CURVE('',#473,#489,#202,.T.);
#729=ADVANCED_FACE('',(#728),#722,.F.);
#746=EDGE_CURVE('',#493,#491,#240,.T.);
#748=EDGE_CURVE('',#488,#491,#216,.T.);
#752=ADVANCED_FACE('',(#751),#741,.T.);
#765=EDGE_CURVE('',#513,#493,#224,.T.);
#767=EDGE_CURVE('',#491,#513,#232,.T.);
#772=ADVANCED_FACE('',(#771),#764,.T.);
#786=EDGE_CURVE('',#499,#503,#278,.T.);
#788=EDGE_CURVE('',#513,#503,#254,.T.);
#793=ADVANCED_FACE('',(#792),#784,.T.);
#807=EDGE_CURVE('',#503,#501,#270,.T.);
#812=ADVANCED_FACE('',(#811),#805,.T.);
#826=EDGE_CURVE('',#505,#501,#285,.T.);
#828=EDGE_CURVE('',#505,#509,#420,.T.);
#830=EDGE_CURVE('',#503,#509,#292,.T.);
#834=ADVANCED_FACE('',(#833),#824,.T.);
#847=EDGE_CURVE('',#485,#505,#335,.T.);
#854=ADVANCED_FACE('',(#853),#846,.T.);
#870=EDGE_CURVE('',#507,#477,#328,.T.);
#872=EDGE_CURVE('',#507,#505,#428,.T.);
#877=ADVANCED_FACE('',(#876),#866,.T.);
#890=EDGE_CURVE('',#480,#495,#376,.T.);
#892=EDGE_CURVE('',#495,#507,#412,.T.);
#899=ADVANCED_FACE('',(#898),#889,.F.);
#913=EDGE_CURVE('',#497,#486,#369,.T.);
#915=EDGE_CURVE('',#497,#495,#452,.T.);
#921=ADVANCED_FACE('',(#920),#911,.T.);
#936=EDGE_CURVE('',#491,#497,#398,.T.);
#941=ADVANCED_FACE('',(#940),#933,.F.);
#955=EDGE_CURVE('',#511,#513,#391,.T.);
#957=EDGE_CURVE('',#511,#497,#460,.T.);
#962=ADVANCED_FACE('',(#961),#953,.T.);
#977=EDGE_CURVE('',#509,#511,#405,.T.);
#982=ADVANCED_FACE('',(#981),#974,.F.);
#996=EDGE_CURVE('',#509,#507,#436,.T.);
#999=EDGE_CURVE('',#495,#511,#444,.T.);
#1003=ADVANCED_FACE('',(#1002),#994,.T.);
#1021=ADVANCED_FACE('',(#1020),#1015,.T.);
#1039=ADVANCED_FACE('',(#1038),#1033,.T.);
#1047=CLOSED_SHELL('',(#535,#558,#581,#605,#641,#669,#694,#729,#752,#772,#793,
#812,#834,#854,#877,#899,#921,#941,#962,#982,#1003,#1021,#1039));
#1048=MANIFOLD_SOLID_BREP('',#1047);
#1055=(LENGTH_UNIT()NAMED_UNIT(*)SI_UNIT(.MILLI.,.METRE.));
#1058=(NAMED_UNIT(*)PLANE_ANGLE_UNIT()SI_UNIT($,.RADIAN.));
#1061=(NAMED_UNIT(*)SI_UNIT($,.STERADIAN.)SOLID_ANGLE_UNIT());
#1063=(GEOMETRIC_REPRESENTATION_CONTEXT(3)GLOBAL_UNCERTAINTY_ASSIGNED_CONTEXT((
#1062))GLOBAL_UNIT_ASSIGNED_CONTEXT((#1057,#1060,#1061))REPRESENTATION_CONTEXT(
'ID1','3'));
#1067=AXIS2_PLACEMENT_3D('',#1064,#1065,#1066);
#1068=ADVANCED_BREP_SHAPE_REPRESENTATION('',(#1067,#1048),#1063);
#1076=PRODUCT_DEFINITION('design','',#1075,#1072);
#1077=PRODUCT_DEFINITION_SHAPE('','SHAPE FOR BODY2-4189.',#1076);
#1078=SHAPE_ASPECT('','solid data associated with BODY2-4189',#1077,.F.);
#1079=PROPERTY_DEFINITION('',
'shape for solid data with which properties are associated',#1078);
#1080=SHAPE_REPRESENTATION('',(#1048),#1063);
#1081=SHAPE_DEFINITION_REPRESENTATION(#1079,#1080);
#1082=(LENGTH_UNIT()NAMED_UNIT(*)SI_UNIT(.MILLI.,.METRE.));
#1088=PROPERTY_DEFINITION('geometric validation property','area of BODY2-4189',
#1078);
#1089=REPRESENTATION('surface area',(#1087),#1063);
#1090=PROPERTY_DEFINITION_REPRESENTATION(#1088,#1089);
#1091=(LENGTH_UNIT()NAMED_UNIT(*)SI_UNIT(.MILLI.,.METRE.));
#1097=PROPERTY_DEFINITION('geometric validation property',
'volume of BODY2-4189',#1078);
#1098=REPRESENTATION('volume',(#1096),#1063);
#1099=PROPERTY_DEFINITION_REPRESENTATION(#1097,#1098);
#1101=PROPERTY_DEFINITION('geometric validation property',
'centroid of BODY2-4189',#1078);
#1102=REPRESENTATION('centroid',(#1100),#1063);
#1103=PROPERTY_DEFINITION_REPRESENTATION(#1101,#1102);
#1104=(LENGTH_UNIT()NAMED_UNIT(*)SI_UNIT(.MILLI.,.METRE.));
#1110=PROPERTY_DEFINITION('geometric validation property','area of BODY2-4189',
#1077);
#1111=REPRESENTATION('surface area',(#1109),#1063);
#1112=PROPERTY_DEFINITION_REPRESENTATION(#1110,#1111);
#1113=(LENGTH_UNIT()NAMED_UNIT(*)SI_UNIT(.MILLI.,.METRE.));
#1119=PROPERTY_DEFINITION('geometric validation property',
'volume of BODY2-4189',#1077);
#1120=REPRESENTATION('volume',(#1118),#1063);
#1121=PROPERTY_DEFINITION_REPRESENTATION(#1119,#1120);
#1123=PROPERTY_DEFINITION('geometric validation property',
'centroid of BODY2-4189',#1077);
#1124=REPRESENTATION('centroid',(#1122),#1063);
#1125=PROPERTY_DEFINITION_REPRESENTATION(#1123,#1124);
#1126=SHAPE_DEFINITION_REPRESENTATION(#1077,#1068);
ENDSEC;
END-ISO-10303-21;
