ISO-10303-21;
HEADER;
FILE_DESCRIPTION((''),'2;1');
FILE_NAME('BODY2-4126','2026-06-15T13:45:25',('Esia'),(''),
'CREO PARAMETRIC BY PTC INC, 2025102','CREO PARAMETRIC BY PTC INC, 2025102','');
FILE_SCHEMA((
'AP242_MANAGED_MODEL_BASED_3D_ENGINEERING_MIM_LF { 1 0 10303 442 1 1 4 }'));
ENDSEC;
DATA;
#23=DIRECTION('',(-1.E0,0.E0,0.E0));
#24=VECTOR('',#23,7.432988957244E-3);
#25=CARTESIAN_POINT('',(-4.768512127898E-2,7.874015748031E-3,
7.874015748031E-3));
#26=LINE('',#25,#24);
#27=DRAUGHTING_PRE_DEFINED_CURVE_FONT('continuous');
#28=CURVE_STYLE('',#27,POSITIVE_LENGTH_MEASURE(2.E-2),#1);
#29=PRESENTATION_STYLE_ASSIGNMENT((#28));
#30=STYLED_ITEM('',(#29),#26);
#31=DIRECTION('',(0.E0,-1.E0,0.E0));
#32=VECTOR('',#31,1.574803149606E-2);
#33=CARTESIAN_POINT('',(-5.511811023622E-2,7.874015748031E-3,
7.874015748031E-3));
#34=LINE('',#33,#32);
#35=CURVE_STYLE('',#27,POSITIVE_LENGTH_MEASURE(2.E-2),#1);
#36=PRESENTATION_STYLE_ASSIGNMENT((#35));
#37=STYLED_ITEM('',(#36),#34);
#38=DIRECTION('',(-1.E0,0.E0,0.E0));
#39=VECTOR('',#38,1.363251862878E-2);
#40=CARTESIAN_POINT('',(-4.148559160744E-2,7.874015748031E-3,0.E0));
#41=LINE('',#40,#39);
#42=CURVE_STYLE('',#27,POSITIVE_LENGTH_MEASURE(2.E-2),#1);
#43=PRESENTATION_STYLE_ASSIGNMENT((#42));
#44=STYLED_ITEM('',(#43),#41);
#45=CARTESIAN_POINT('',(-4.148559160744E-2,7.874015748031E-3,
3.937007874016E-3));
#46=DIRECTION('',(0.E0,1.E0,0.E0));
#47=DIRECTION('',(9.720822085787E-1,0.E0,-2.346405330815E-1));
#48=AXIS2_PLACEMENT_3D('',#45,#46,#47);
#50=CURVE_STYLE('',#27,POSITIVE_LENGTH_MEASURE(2.E-2),#1);
#51=PRESENTATION_STYLE_ASSIGNMENT((#50));
#52=STYLED_ITEM('',(#51),#49);
#53=DIRECTION('',(-2.346405331041E-1,0.E0,-9.720822085732E-1));
#54=VECTOR('',#53,2.006376433157E-2);
#55=CARTESIAN_POINT('',(-3.295072393925E-2,7.874015748031E-3,
2.251685459138E-2));
#56=LINE('',#55,#54);
#57=CURVE_STYLE('',#27,POSITIVE_LENGTH_MEASURE(2.E-2),#1);
#58=PRESENTATION_STYLE_ASSIGNMENT((#57));
#59=STYLED_ITEM('',(#58),#56);
#60=DIRECTION('',(-1.E0,0.E0,-2.074998200899E-13));
#61=VECTOR('',#60,1.454660947123E-3);
#62=CARTESIAN_POINT('',(-3.149606299213E-2,7.874015748031E-3,
2.251685459138E-2));
#63=LINE('',#62,#61);
#64=CURVE_STYLE('',#27,POSITIVE_LENGTH_MEASURE(2.E-2),#1);
#65=PRESENTATION_STYLE_ASSIGNMENT((#64));
#66=STYLED_ITEM('',(#65),#63);
#67=DIRECTION('',(0.E0,0.E0,-1.E0));
#68=VECTOR('',#67,7.874015748031E-3);
#69=CARTESIAN_POINT('',(-3.149606299213E-2,7.874015748031E-3,
3.039087033941E-2));
#70=LINE('',#69,#68);
#71=CURVE_STYLE('',#27,POSITIVE_LENGTH_MEASURE(2.E-2),#1);
#72=PRESENTATION_STYLE_ASSIGNMENT((#71));
#73=STYLED_ITEM('',(#72),#70);
#74=CARTESIAN_POINT('',(-3.605048877504E-2,7.874015748031E-3,
2.645386246539E-2));
#75=DIRECTION('',(0.E0,1.E0,0.E0));
#76=DIRECTION('',(-9.720822085747E-1,0.E0,2.346405330980E-1));
#77=AXIS2_PLACEMENT_3D('',#74,#75,#76);
#79=CURVE_STYLE('',#27,POSITIVE_LENGTH_MEASURE(2.E-2),#1);
#80=PRESENTATION_STYLE_ASSIGNMENT((#79));
#81=STYLED_ITEM('',(#80),#78);
#82=DIRECTION('',(2.346405331036E-1,0.E0,9.720822085734E-1));
#83=VECTOR('',#82,1.696399949589E-2);
#84=CARTESIAN_POINT('',(-4.385802596967E-2,7.874015748031E-3,
1.088724199558E-2));
#85=LINE('',#84,#83);
#86=CURVE_STYLE('',#27,POSITIVE_LENGTH_MEASURE(2.E-2),#1);
#87=PRESENTATION_STYLE_ASSIGNMENT((#86));
#88=STYLED_ITEM('',(#87),#85);
#89=CARTESIAN_POINT('',(-4.768512127898E-2,7.874015748031E-3,
1.181102362205E-2));
#90=DIRECTION('',(0.E0,-1.E0,0.E0));
#91=DIRECTION('',(0.E0,0.E0,-1.E0));
#92=AXIS2_PLACEMENT_3D('',#89,#90,#91);
#94=CURVE_STYLE('',#27,POSITIVE_LENGTH_MEASURE(2.E-2),#1);
#95=PRESENTATION_STYLE_ASSIGNMENT((#94));
#96=STYLED_ITEM('',(#95),#93);
#97=DIRECTION('',(-1.E0,0.E0,0.E0));
#98=VECTOR('',#97,1.363251862878E-2);
#99=CARTESIAN_POINT('',(-4.148559160744E-2,-7.874015748031E-3,0.E0));
#100=LINE('',#99,#98);
#101=CURVE_STYLE('',#27,POSITIVE_LENGTH_MEASURE(2.E-2),#1);
#102=PRESENTATION_STYLE_ASSIGNMENT((#101));
#103=STYLED_ITEM('',(#102),#100);
#104=DIRECTION('',(0.E0,-1.E0,0.E0));
#105=VECTOR('',#104,1.574803149606E-2);
#106=CARTESIAN_POINT('',(-5.511811023622E-2,7.874015748031E-3,0.E0));
#107=LINE('',#106,#105);
#108=CURVE_STYLE('',#27,POSITIVE_LENGTH_MEASURE(2.E-2),#1);
#109=PRESENTATION_STYLE_ASSIGNMENT((#108));
#110=STYLED_ITEM('',(#109),#107);
#111=DIRECTION('',(0.E0,0.E0,-1.E0));
#112=VECTOR('',#111,7.874015748031E-3);
#113=CARTESIAN_POINT('',(-5.511811023622E-2,7.874015748031E-3,
7.874015748031E-3));
#114=LINE('',#113,#112);
#115=CURVE_STYLE('',#27,POSITIVE_LENGTH_MEASURE(2.E-2),#1);
#116=PRESENTATION_STYLE_ASSIGNMENT((#115));
#117=STYLED_ITEM('',(#116),#114);
#118=DIRECTION('',(0.E0,0.E0,-1.E0));
#119=VECTOR('',#118,7.874015748031E-3);
#120=CARTESIAN_POINT('',(-5.511811023622E-2,-7.874015748031E-3,
7.874015748031E-3));
#121=LINE('',#120,#119);
#122=CURVE_STYLE('',#27,POSITIVE_LENGTH_MEASURE(2.E-2),#1);
#123=PRESENTATION_STYLE_ASSIGNMENT((#122));
#124=STYLED_ITEM('',(#123),#121);
#125=DIRECTION('',(-1.E0,0.E0,0.E0));
#126=VECTOR('',#125,7.432988957244E-3);
#127=CARTESIAN_POINT('',(-4.768512127898E-2,-7.874015748031E-3,
7.874015748031E-3));
#128=LINE('',#127,#126);
#129=CURVE_STYLE('',#27,POSITIVE_LENGTH_MEASURE(2.E-2),#1);
#130=PRESENTATION_STYLE_ASSIGNMENT((#129));
#131=STYLED_ITEM('',(#130),#128);
#132=CARTESIAN_POINT('',(-4.768512127898E-2,-7.874015748031E-3,
1.181102362205E-2));
#133=DIRECTION('',(0.E0,1.E0,0.E0));
#134=DIRECTION('',(9.720822085572E-1,0.E0,-2.346405331707E-1));
#135=AXIS2_PLACEMENT_3D('',#132,#133,#134);
#137=CURVE_STYLE('',#27,POSITIVE_LENGTH_MEASURE(2.E-2),#1);
#138=PRESENTATION_STYLE_ASSIGNMENT((#137));
#139=STYLED_ITEM('',(#138),#136);
#140=DIRECTION('',(-2.346405331036E-1,0.E0,-9.720822085734E-1));
#141=VECTOR('',#140,1.696399949589E-2);
#142=CARTESIAN_POINT('',(-3.987758408439E-2,-7.874015748031E-3,
2.737764409178E-2));
#143=LINE('',#142,#141);
#144=CURVE_STYLE('',#27,POSITIVE_LENGTH_MEASURE(2.E-2),#1);
#145=PRESENTATION_STYLE_ASSIGNMENT((#144));
#146=STYLED_ITEM('',(#145),#143);
#147=CARTESIAN_POINT('',(-3.605048877504E-2,-7.874015748031E-3,
2.645386246539E-2));
#148=DIRECTION('',(0.E0,-1.E0,0.E0));
#149=DIRECTION('',(0.E0,0.E0,1.E0));
#150=AXIS2_PLACEMENT_3D('',#147,#148,#149);
#152=CURVE_STYLE('',#27,POSITIVE_LENGTH_MEASURE(2.E-2),#1);
#153=PRESENTATION_STYLE_ASSIGNMENT((#152));
#154=STYLED_ITEM('',(#153),#151);
#155=DIRECTION('',(-1.E0,0.E0,0.E0));
#156=VECTOR('',#155,4.554425782913E-3);
#157=CARTESIAN_POINT('',(-3.149606299213E-2,-7.874015748031E-3,
3.039087033941E-2));
#158=LINE('',#157,#156);
#159=CURVE_STYLE('',#27,POSITIVE_LENGTH_MEASURE(2.E-2),#1);
#160=PRESENTATION_STYLE_ASSIGNMENT((#159));
#161=STYLED_ITEM('',(#160),#158);
#162=DIRECTION('',(2.346405331041E-1,0.E0,9.720822085732E-1));
#163=VECTOR('',#162,2.006376433157E-2);
#164=CARTESIAN_POINT('',(-3.765849629808E-2,-7.874015748031E-3,
3.013226247655E-3));
#165=LINE('',#164,#163);
#166=CURVE_STYLE('',#27,POSITIVE_LENGTH_MEASURE(2.E-2),#1);
#167=PRESENTATION_STYLE_ASSIGNMENT((#166));
#168=STYLED_ITEM('',(#167),#165);
#169=CARTESIAN_POINT('',(-4.148559160744E-2,-7.874015748031E-3,
3.937007874016E-3));
#170=DIRECTION('',(0.E0,-1.E0,0.E0));
#171=DIRECTION('',(0.E0,0.E0,-1.E0));
#172=AXIS2_PLACEMENT_3D('',#169,#170,#171);
#174=CURVE_STYLE('',#27,POSITIVE_LENGTH_MEASURE(2.E-2),#1);
#175=PRESENTATION_STYLE_ASSIGNMENT((#174));
#176=STYLED_ITEM('',(#175),#173);
#177=DIRECTION('',(0.E0,-1.E0,0.E0));
#178=VECTOR('',#177,1.574803149606E-2);
#179=CARTESIAN_POINT('',(-4.768512127898E-2,7.874015748031E-3,
7.874015748031E-3));
#180=LINE('',#179,#178);
#181=CURVE_STYLE('',#27,POSITIVE_LENGTH_MEASURE(2.E-2),#1);
#182=PRESENTATION_STYLE_ASSIGNMENT((#181));
#183=STYLED_ITEM('',(#182),#180);
#184=DIRECTION('',(0.E0,1.E0,0.E0));
#185=VECTOR('',#184,1.574803149606E-2);
#186=CARTESIAN_POINT('',(-4.385802596967E-2,-7.874015748031E-3,
1.088724199558E-2));
#187=LINE('',#186,#185);
#188=CURVE_STYLE('',#27,POSITIVE_LENGTH_MEASURE(2.E-2),#1);
#189=PRESENTATION_STYLE_ASSIGNMENT((#188));
#190=STYLED_ITEM('',(#189),#187);
#191=DIRECTION('',(0.E0,-1.E0,0.E0));
#192=VECTOR('',#191,1.574803149606E-2);
#193=CARTESIAN_POINT('',(-3.987758408439E-2,7.874015748031E-3,
2.737764409178E-2));
#194=LINE('',#193,#192);
#195=CURVE_STYLE('',#27,POSITIVE_LENGTH_MEASURE(2.E-2),#1);
#196=PRESENTATION_STYLE_ASSIGNMENT((#195));
#197=STYLED_ITEM('',(#196),#194);
#198=DIRECTION('',(0.E0,1.E0,0.E0));
#199=VECTOR('',#198,1.574803149606E-2);
#200=CARTESIAN_POINT('',(-3.605048877504E-2,-7.874015748031E-3,
3.039087033941E-2));
#201=LINE('',#200,#199);
#202=CURVE_STYLE('',#27,POSITIVE_LENGTH_MEASURE(2.E-2),#1);
#203=PRESENTATION_STYLE_ASSIGNMENT((#202));
#204=STYLED_ITEM('',(#203),#201);
#205=DIRECTION('',(-1.E0,0.E0,0.E0));
#206=VECTOR('',#205,4.554425782913E-3);
#207=CARTESIAN_POINT('',(-3.149606299213E-2,7.874015748031E-3,
3.039087033941E-2));
#208=LINE('',#207,#206);
#209=CURVE_STYLE('',#27,POSITIVE_LENGTH_MEASURE(2.E-2),#1);
#210=PRESENTATION_STYLE_ASSIGNMENT((#209));
#211=STYLED_ITEM('',(#210),#208);
#212=DIRECTION('',(0.E0,0.E0,-1.E0));
#213=VECTOR('',#212,7.874015748031E-3);
#214=CARTESIAN_POINT('',(-3.149606299213E-2,-7.874015748031E-3,
3.039087033941E-2));
#215=LINE('',#214,#213);
#216=CURVE_STYLE('',#27,POSITIVE_LENGTH_MEASURE(2.E-2),#1);
#217=PRESENTATION_STYLE_ASSIGNMENT((#216));
#218=STYLED_ITEM('',(#217),#215);
#219=DIRECTION('',(0.E0,-1.E0,0.E0));
#220=VECTOR('',#219,1.574803149606E-2);
#221=CARTESIAN_POINT('',(-3.149606299213E-2,7.874015748031E-3,
3.039087033941E-2));
#222=LINE('',#221,#220);
#223=CURVE_STYLE('',#27,POSITIVE_LENGTH_MEASURE(2.E-2),#1);
#224=PRESENTATION_STYLE_ASSIGNMENT((#223));
#225=STYLED_ITEM('',(#224),#222);
#226=DIRECTION('',(-1.E0,0.E0,-2.074998200899E-13));
#227=VECTOR('',#226,1.454660947123E-3);
#228=CARTESIAN_POINT('',(-3.149606299213E-2,-7.874015748031E-3,
2.251685459138E-2));
#229=LINE('',#228,#227);
#230=CURVE_STYLE('',#27,POSITIVE_LENGTH_MEASURE(2.E-2),#1);
#231=PRESENTATION_STYLE_ASSIGNMENT((#230));
#232=STYLED_ITEM('',(#231),#229);
#233=DIRECTION('',(0.E0,-1.E0,0.E0));
#234=VECTOR('',#233,1.574803149606E-2);
#235=CARTESIAN_POINT('',(-3.149606299213E-2,7.874015748031E-3,
2.251685459138E-2));
#236=LINE('',#235,#234);
#237=CURVE_STYLE('',#27,POSITIVE_LENGTH_MEASURE(2.E-2),#1);
#238=PRESENTATION_STYLE_ASSIGNMENT((#237));
#239=STYLED_ITEM('',(#238),#236);
#240=DIRECTION('',(0.E0,-1.E0,0.E0));
#241=VECTOR('',#240,1.574803149606E-2);
#242=CARTESIAN_POINT('',(-3.295072393925E-2,7.874015748031E-3,
2.251685459138E-2));
#243=LINE('',#242,#241);
#244=CURVE_STYLE('',#27,POSITIVE_LENGTH_MEASURE(2.E-2),#1);
#245=PRESENTATION_STYLE_ASSIGNMENT((#244));
#246=STYLED_ITEM('',(#245),#243);
#247=DIRECTION('',(0.E0,1.E0,0.E0));
#248=VECTOR('',#247,1.574803149606E-2);
#249=CARTESIAN_POINT('',(-4.148559160744E-2,-7.874015748031E-3,0.E0));
#250=LINE('',#249,#248);
#251=CURVE_STYLE('',#27,POSITIVE_LENGTH_MEASURE(2.E-2),#1);
#252=PRESENTATION_STYLE_ASSIGNMENT((#251));
#253=STYLED_ITEM('',(#252),#250);
#254=DIRECTION('',(0.E0,-1.E0,0.E0));
#255=VECTOR('',#254,1.574803149606E-2);
#256=CARTESIAN_POINT('',(-3.765849629808E-2,7.874015748031E-3,
3.013226247655E-3));
#257=LINE('',#256,#255);
#258=CURVE_STYLE('',#27,POSITIVE_LENGTH_MEASURE(2.E-2),#1);
#259=PRESENTATION_STYLE_ASSIGNMENT((#258));
#260=STYLED_ITEM('',(#259),#257);
#261=CARTESIAN_POINT('',(-4.768512127898E-2,7.874015748031E-3,
7.874015748031E-3));
#262=CARTESIAN_POINT('',(-5.511811023622E-2,7.874015748031E-3,
7.874015748031E-3));
#263=VERTEX_POINT('',#261);
#264=VERTEX_POINT('',#262);
#265=CARTESIAN_POINT('',(-5.511811023622E-2,-7.874015748031E-3,
7.874015748031E-3));
#266=VERTEX_POINT('',#265);
#267=CARTESIAN_POINT('',(-4.768512127898E-2,-7.874015748031E-3,
7.874015748031E-3));
#268=VERTEX_POINT('',#267);
#269=CARTESIAN_POINT('',(-4.148559160744E-2,7.874015748031E-3,0.E0));
#270=CARTESIAN_POINT('',(-5.511811023622E-2,7.874015748031E-3,0.E0));
#271=VERTEX_POINT('',#269);
#272=VERTEX_POINT('',#270);
#273=CARTESIAN_POINT('',(-4.385802596970E-2,7.874015748031E-3,
1.088724199539E-2));
#274=VERTEX_POINT('',#273);
#275=CARTESIAN_POINT('',(-3.987758408439E-2,7.874015748031E-3,
2.737764409178E-2));
#276=VERTEX_POINT('',#275);
#277=CARTESIAN_POINT('',(-3.605048877504E-2,7.874015748031E-3,
3.039087033941E-2));
#278=VERTEX_POINT('',#277);
#279=CARTESIAN_POINT('',(-3.149606299213E-2,7.874015748031E-3,
3.039087033941E-2));
#280=VERTEX_POINT('',#279);
#281=CARTESIAN_POINT('',(-3.149606299213E-2,7.874015748031E-3,
2.251685459138E-2));
#282=VERTEX_POINT('',#281);
#283=CARTESIAN_POINT('',(-3.295072393925E-2,7.874015748031E-3,
2.251685459138E-2));
#284=VERTEX_POINT('',#283);
#285=CARTESIAN_POINT('',(-3.765849629808E-2,7.874015748031E-3,
3.013226247655E-3));
#286=VERTEX_POINT('',#285);
#287=CARTESIAN_POINT('',(-4.385802596970E-2,-7.874015748031E-3,
1.088724199539E-2));
#288=VERTEX_POINT('',#287);
#289=CARTESIAN_POINT('',(-5.511811023622E-2,-7.874015748031E-3,0.E0));
#290=VERTEX_POINT('',#289);
#291=CARTESIAN_POINT('',(-4.148559160744E-2,-7.874015748031E-3,0.E0));
#292=VERTEX_POINT('',#291);
#293=CARTESIAN_POINT('',(-3.765849629808E-2,-7.874015748031E-3,
3.013226247711E-3));
#294=VERTEX_POINT('',#293);
#295=CARTESIAN_POINT('',(-3.295072393925E-2,-7.874015748031E-3,
2.251685459138E-2));
#296=VERTEX_POINT('',#295);
#297=CARTESIAN_POINT('',(-3.149606299213E-2,-7.874015748031E-3,
2.251685459138E-2));
#298=VERTEX_POINT('',#297);
#299=CARTESIAN_POINT('',(-3.149606299213E-2,-7.874015748031E-3,
3.039087033941E-2));
#300=VERTEX_POINT('',#299);
#301=CARTESIAN_POINT('',(-3.605048877504E-2,-7.874015748031E-3,
3.039087033941E-2));
#302=VERTEX_POINT('',#301);
#303=CARTESIAN_POINT('',(-3.987758408439E-2,-7.874015748031E-3,
2.737764409176E-2));
#304=VERTEX_POINT('',#303);
#305=CARTESIAN_POINT('',(-5.511811023622E-2,-7.874015748031E-3,
7.874015748031E-3));
#306=DIRECTION('',(0.E0,0.E0,1.E0));
#307=DIRECTION('',(1.E0,0.E0,0.E0));
#308=AXIS2_PLACEMENT_3D('',#305,#306,#307);
#309=PLANE('',#308);
#311=ORIENTED_EDGE('',*,*,#310,.F.);
#313=ORIENTED_EDGE('',*,*,#312,.T.);
#315=ORIENTED_EDGE('',*,*,#314,.T.);
#317=ORIENTED_EDGE('',*,*,#316,.F.);
#318=EDGE_LOOP('',(#311,#313,#315,#317));
#319=FACE_OUTER_BOUND('',#318,.F.);
#321=CARTESIAN_POINT('',(-4.167232815878E-2,7.874015748031E-3,
1.311913027177E-2));
#322=DIRECTION('',(0.E0,1.E0,0.E0));
#323=DIRECTION('',(0.E0,0.E0,1.E0));
#324=AXIS2_PLACEMENT_3D('',#321,#322,#323);
#325=PLANE('',#324);
#327=ORIENTED_EDGE('',*,*,#326,.F.);
#329=ORIENTED_EDGE('',*,*,#328,.F.);
#331=ORIENTED_EDGE('',*,*,#330,.F.);
#333=ORIENTED_EDGE('',*,*,#332,.F.);
#335=ORIENTED_EDGE('',*,*,#334,.F.);
#337=ORIENTED_EDGE('',*,*,#336,.T.);
#339=ORIENTED_EDGE('',*,*,#338,.F.);
#341=ORIENTED_EDGE('',*,*,#340,.F.);
#343=ORIENTED_EDGE('',*,*,#342,.F.);
#344=ORIENTED_EDGE('',*,*,#310,.T.);
#346=ORIENTED_EDGE('',*,*,#345,.T.);
#347=EDGE_LOOP('',(#327,#329,#331,#333,#335,#337,#339,#341,#343,#344,#346));
#348=FACE_OUTER_BOUND('',#347,.F.);
#350=CARTESIAN_POINT('',(-5.511811023622E-2,-7.874015748031E-3,0.E0));
#351=DIRECTION('',(0.E0,0.E0,1.E0));
#352=DIRECTION('',(1.E0,0.E0,0.E0));
#353=AXIS2_PLACEMENT_3D('',#350,#351,#352);
#354=PLANE('',#353);
#355=ORIENTED_EDGE('',*,*,#326,.T.);
#357=ORIENTED_EDGE('',*,*,#356,.T.);
#359=ORIENTED_EDGE('',*,*,#358,.F.);
#361=ORIENTED_EDGE('',*,*,#360,.T.);
#362=EDGE_LOOP('',(#355,#357,#359,#361));
#363=FACE_OUTER_BOUND('',#362,.F.);
#365=CARTESIAN_POINT('',(-5.511811023622E-2,-7.874015748031E-3,0.E0));
#366=DIRECTION('',(1.E0,0.E0,0.E0));
#367=DIRECTION('',(0.E0,0.E0,1.E0));
#368=AXIS2_PLACEMENT_3D('',#365,#366,#367);
#369=PLANE('',#368);
#371=ORIENTED_EDGE('',*,*,#370,.T.);
#372=ORIENTED_EDGE('',*,*,#356,.F.);
#373=ORIENTED_EDGE('',*,*,#345,.F.);
#374=ORIENTED_EDGE('',*,*,#316,.T.);
#375=EDGE_LOOP('',(#371,#372,#373,#374));
#376=FACE_OUTER_BOUND('',#375,.F.);
#378=CARTESIAN_POINT('',(-4.167232815878E-2,-7.874015748031E-3,
1.311913027177E-2));
#379=DIRECTION('',(0.E0,-1.E0,0.E0));
#380=DIRECTION('',(0.E0,0.E0,-1.E0));
#381=AXIS2_PLACEMENT_3D('',#378,#379,#380);
#382=PLANE('',#381);
#383=ORIENTED_EDGE('',*,*,#358,.T.);
#384=ORIENTED_EDGE('',*,*,#370,.F.);
#385=ORIENTED_EDGE('',*,*,#314,.F.);
#387=ORIENTED_EDGE('',*,*,#386,.F.);
#389=ORIENTED_EDGE('',*,*,#388,.F.);
#391=ORIENTED_EDGE('',*,*,#390,.F.);
#393=ORIENTED_EDGE('',*,*,#392,.F.);
#395=ORIENTED_EDGE('',*,*,#394,.T.);
#397=ORIENTED_EDGE('',*,*,#396,.T.);
#399=ORIENTED_EDGE('',*,*,#398,.F.);
#401=ORIENTED_EDGE('',*,*,#400,.F.);
#402=EDGE_LOOP('',(#383,#384,#385,#387,#389,#391,#393,#395,#397,#399,#401));
#403=FACE_OUTER_BOUND('',#402,.F.);
#405=CARTESIAN_POINT('',(-4.768512127898E-2,-7.874015748031E-3,
1.181102362205E-2));
#406=DIRECTION('',(0.E0,1.E0,0.E0));
#407=DIRECTION('',(0.E0,0.E0,-1.E0));
#408=AXIS2_PLACEMENT_3D('',#405,#406,#407);
#409=CYLINDRICAL_SURFACE('',#408,3.937007874016E-3);
#410=ORIENTED_EDGE('',*,*,#312,.F.);
#411=ORIENTED_EDGE('',*,*,#342,.T.);
#413=ORIENTED_EDGE('',*,*,#412,.F.);
#414=ORIENTED_EDGE('',*,*,#386,.T.);
#415=EDGE_LOOP('',(#410,#411,#413,#414));
#416=FACE_OUTER_BOUND('',#415,.F.);
#418=CARTESIAN_POINT('',(-4.604001739035E-2,-7.874015748031E-3,
1.847563252787E-3));
#419=DIRECTION('',(9.720822085732E-1,0.E0,-2.346405331041E-1));
#420=DIRECTION('',(2.346405331041E-1,0.E0,9.720822085732E-1));
#421=AXIS2_PLACEMENT_3D('',#418,#419,#420);
#422=PLANE('',#421);
#423=ORIENTED_EDGE('',*,*,#388,.T.);
#424=ORIENTED_EDGE('',*,*,#412,.T.);
#425=ORIENTED_EDGE('',*,*,#340,.T.);
#427=ORIENTED_EDGE('',*,*,#426,.T.);
#428=EDGE_LOOP('',(#423,#424,#425,#427));
#429=FACE_OUTER_BOUND('',#428,.F.);
#431=CARTESIAN_POINT('',(-3.605048877504E-2,-7.874015748031E-3,
2.645386246539E-2));
#432=DIRECTION('',(0.E0,1.E0,0.E0));
#433=DIRECTION('',(-9.720822085732E-1,0.E0,2.346405331041E-1));
#434=AXIS2_PLACEMENT_3D('',#431,#432,#433);
#435=CYLINDRICAL_SURFACE('',#434,3.937007874016E-3);
#436=ORIENTED_EDGE('',*,*,#390,.T.);
#437=ORIENTED_EDGE('',*,*,#426,.F.);
#438=ORIENTED_EDGE('',*,*,#338,.T.);
#440=ORIENTED_EDGE('',*,*,#439,.F.);
#441=EDGE_LOOP('',(#436,#437,#438,#440));
#442=FACE_OUTER_BOUND('',#441,.F.);
#444=CARTESIAN_POINT('',(-3.915025361083E-2,-7.874015748031E-3,
3.039087033941E-2));
#445=DIRECTION('',(0.E0,0.E0,1.E0));
#446=DIRECTION('',(1.E0,0.E0,0.E0));
#447=AXIS2_PLACEMENT_3D('',#444,#445,#446);
#448=PLANE('',#447);
#449=ORIENTED_EDGE('',*,*,#392,.T.);
#450=ORIENTED_EDGE('',*,*,#439,.T.);
#451=ORIENTED_EDGE('',*,*,#336,.F.);
#453=ORIENTED_EDGE('',*,*,#452,.T.);
#454=EDGE_LOOP('',(#449,#450,#451,#453));
#455=FACE_OUTER_BOUND('',#454,.F.);
#457=CARTESIAN_POINT('',(-3.149606299213E-2,-7.874015748031E-3,
2.251685459138E-2));
#458=DIRECTION('',(1.E0,0.E0,0.E0));
#459=DIRECTION('',(0.E0,0.E0,1.E0));
#460=AXIS2_PLACEMENT_3D('',#457,#458,#459);
#461=PLANE('',#460);
#462=ORIENTED_EDGE('',*,*,#394,.F.);
#463=ORIENTED_EDGE('',*,*,#452,.F.);
#464=ORIENTED_EDGE('',*,*,#334,.T.);
#466=ORIENTED_EDGE('',*,*,#465,.T.);
#467=EDGE_LOOP('',(#462,#463,#464,#466));
#468=FACE_OUTER_BOUND('',#467,.F.);
#470=CARTESIAN_POINT('',(-3.915025361083E-2,-7.874015748031E-3,
2.251685459138E-2));
#471=DIRECTION('',(0.E0,0.E0,1.E0));
#472=DIRECTION('',(1.E0,0.E0,0.E0));
#473=AXIS2_PLACEMENT_3D('',#470,#471,#472);
#474=PLANE('',#473);
#475=ORIENTED_EDGE('',*,*,#332,.T.);
#477=ORIENTED_EDGE('',*,*,#476,.T.);
#478=ORIENTED_EDGE('',*,*,#396,.F.);
#479=ORIENTED_EDGE('',*,*,#465,.F.);
#480=EDGE_LOOP('',(#475,#477,#478,#479));
#481=FACE_OUTER_BOUND('',#480,.F.);
#483=CARTESIAN_POINT('',(-3.838582677165E-2,-7.874015748031E-3,0.E0));
#484=DIRECTION('',(9.720822085732E-1,0.E0,-2.346405331041E-1));
#485=DIRECTION('',(2.346405331041E-1,0.E0,9.720822085732E-1));
#486=AXIS2_PLACEMENT_3D('',#483,#484,#485);
#487=PLANE('',#486);
#488=ORIENTED_EDGE('',*,*,#398,.T.);
#489=ORIENTED_EDGE('',*,*,#476,.F.);
#490=ORIENTED_EDGE('',*,*,#330,.T.);
#492=ORIENTED_EDGE('',*,*,#491,.T.);
#493=EDGE_LOOP('',(#488,#489,#490,#492));
#494=FACE_OUTER_BOUND('',#493,.F.);
#496=CARTESIAN_POINT('',(-4.148559160744E-2,-7.874015748031E-3,
3.937007874016E-3));
#497=DIRECTION('',(0.E0,1.E0,0.E0));
#498=DIRECTION('',(0.E0,0.E0,-1.E0));
#499=AXIS2_PLACEMENT_3D('',#496,#497,#498);
#500=CYLINDRICAL_SURFACE('',#499,3.937007874016E-3);
#501=ORIENTED_EDGE('',*,*,#360,.F.);
#502=ORIENTED_EDGE('',*,*,#400,.T.);
#503=ORIENTED_EDGE('',*,*,#491,.F.);
#504=ORIENTED_EDGE('',*,*,#328,.T.);
#505=EDGE_LOOP('',(#501,#502,#503,#504));
#506=FACE_OUTER_BOUND('',#505,.F.);
#510=FILL_AREA_STYLE_COLOUR('',#1);
#511=FILL_AREA_STYLE('',(#510));
#512=SURFACE_STYLE_FILL_AREA(#511);
#513=SURFACE_SIDE_STYLE('',(#512));
#514=SURFACE_STYLE_USAGE(.BOTH.,#513);
#515=PRESENTATION_STYLE_ASSIGNMENT((#514));
#22=STYLED_ITEM('',(#515),#509);
#517=LENGTH_MEASURE_WITH_UNIT(LENGTH_MEASURE(2.54E1),#516);
#518=(CONVERSION_BASED_UNIT('INCH',#517)LENGTH_UNIT()NAMED_UNIT(*));
#520=PLANE_ANGLE_MEASURE_WITH_UNIT(PLANE_ANGLE_MEASURE(1.745329251994E-2),#519);
#521=(CONVERSION_BASED_UNIT('DEGREE',#520)NAMED_UNIT(*)PLANE_ANGLE_UNIT());
#523=UNCERTAINTY_MEASURE_WITH_UNIT(LENGTH_MEASURE(4.158687588926E-6),#518,
'closure',
'Maximum model space distance between geometric entities at asserted connectivities');
#525=CARTESIAN_POINT('',(0.E0,0.E0,0.E0));
#526=DIRECTION('',(0.E0,0.E0,1.E0));
#527=DIRECTION('',(1.E0,0.E0,0.E0));
#530=MECHANICAL_DESIGN_GEOMETRIC_PRESENTATION_REPRESENTATION('',(#30,#37,#44,
#52,#59,#66,#73,#81,#88,#96,#103,#110,#117,#124,#131,#139,#146,#154,#161,#168,
#176,#183,#190,#197,#204,#211,#218,#225,#232,#239,#246,#253,#260,#22),#524);
#531=APPLICATION_CONTEXT('automotive design');
#532=APPLICATION_PROTOCOL_DEFINITION('international standard',
'config_control_design',1994,#531);
#533=PRODUCT_DEFINITION_CONTEXT('',#531,'design');
#534=PRODUCT_CONTEXT('',#531,'mechanical');
#535=PRODUCT('BODY2-4126','BODY2-4126','NOT SPECIFIED',(#534));
#536=PRODUCT_DEFINITION_FORMATION_WITH_SPECIFIED_SOURCE('1','LAST_VERSION',#535,
.MADE.);
#544=LENGTH_MEASURE_WITH_UNIT(LENGTH_MEASURE(2.54E1),#543);
#545=(CONVERSION_BASED_UNIT('INCH',#544)LENGTH_UNIT()NAMED_UNIT(*));
#546=DERIVED_UNIT_ELEMENT(#545,2.E0);
#547=AREA_UNIT((#546));
#548=MEASURE_REPRESENTATION_ITEM('surface area measure',AREA_MEASURE(
1.389067148497E0),#547);
#553=LENGTH_MEASURE_WITH_UNIT(LENGTH_MEASURE(2.54E1),#552);
#554=(CONVERSION_BASED_UNIT('INCH',#553)LENGTH_UNIT()NAMED_UNIT(*));
#555=DERIVED_UNIT_ELEMENT(#554,3.E0);
#556=VOLUME_UNIT((#555));
#557=MEASURE_REPRESENTATION_ITEM('volume measure',VOLUME_MEASURE(
8.354269635670E-2),#556);
#561=CARTESIAN_POINT('centre point',(-1.051876562783E0,-1.099783776674E-13,
3.218453334615E-1));
#566=LENGTH_MEASURE_WITH_UNIT(LENGTH_MEASURE(2.54E1),#565);
#567=(CONVERSION_BASED_UNIT('INCH',#566)LENGTH_UNIT()NAMED_UNIT(*));
#568=DERIVED_UNIT_ELEMENT(#567,2.E0);
#569=AREA_UNIT((#568));
#570=MEASURE_REPRESENTATION_ITEM('surface area measure',AREA_MEASURE(
1.389067148497E0),#569);
#575=LENGTH_MEASURE_WITH_UNIT(LENGTH_MEASURE(2.54E1),#574);
#576=(CONVERSION_BASED_UNIT('INCH',#575)LENGTH_UNIT()NAMED_UNIT(*));
#577=DERIVED_UNIT_ELEMENT(#576,3.E0);
#578=VOLUME_UNIT((#577));
#579=MEASURE_REPRESENTATION_ITEM('volume measure',VOLUME_MEASURE(
8.354269635670E-2),#578);
#583=CARTESIAN_POINT('centre point',(-1.051876562783E0,-1.099783776674E-13,
3.218453334615E-1));
#1=COLOUR_RGB('',7.333333333333E-1,7.725490196078E-1,7.960784313725E-1);
#2=DRAUGHTING_PRE_DEFINED_COLOUR('green');
#3=COLOUR_RGB('',1.1E-2,1.2E-2,1.E0);
#4=COLOUR_RGB('',1.921568627451E-1,1.921568627451E-1,1.921568627451E-1);
#5=COLOUR_RGB('',2.352941176471E-1,2.352941176471E-1,2.352941176471E-1);
#6=COLOUR_RGB('',3.137254901961E-1,3.137254901961E-1,3.137254901961E-1);
#7=COLOUR_RGB('',4.1E-1,2.61589E-1,1.12848E-1);
#8=COLOUR_RGB('',5.04854E-1,1.5455E-2,1.5455E-2);
#9=COLOUR_RGB('',6.274509803922E-1,6.274509803922E-1,6.274509803922E-1);
#10=COLOUR_RGB('',6.35294E-1,6.86275E-1,7.4902E-1);
#11=COLOUR_RGB('',6.40777E-1,6.40777E-1,6.40777E-1);
#12=COLOUR_RGB('',6.69062E-1,6.69903E-1,6.55217E-1);
#13=COLOUR_RGB('',7.333333333333E-1,7.725490196078E-1,7.960784313725E-1);
#14=COLOUR_RGB('',8.313725490196E-1,0.E0,0.E0);
#15=COLOUR_RGB('',8.666666666667E-1,8.666666666667E-1,8.666666666667E-1);
#16=COLOUR_RGB('',9.21569E-1,7.05882E-1,4.70588E-1);
#17=DRAUGHTING_PRE_DEFINED_COLOUR('red');
#18=DRAUGHTING_PRE_DEFINED_COLOUR('yellow');
#19=COLOUR_RGB('',1.E0,1.E0,5.3E-1);
#20=COLOUR_RGB('',1.E0,1.E0,9.49E-1);
#21=DRAUGHTING_PRE_DEFINED_COLOUR('white');
#49=CIRCLE('',#48,3.937007874016E-3);
#78=CIRCLE('',#77,3.937007874016E-3);
#93=CIRCLE('',#92,3.937007874016E-3);
#136=CIRCLE('',#135,3.937007874016E-3);
#151=CIRCLE('',#150,3.937007874016E-3);
#173=CIRCLE('',#172,3.937007874016E-3);
#310=EDGE_CURVE('',#263,#264,#26,.T.);
#312=EDGE_CURVE('',#263,#268,#180,.T.);
#314=EDGE_CURVE('',#268,#266,#128,.T.);
#316=EDGE_CURVE('',#264,#266,#34,.T.);
#320=ADVANCED_FACE('',(#319),#309,.T.);
#326=EDGE_CURVE('',#271,#272,#41,.T.);
#328=EDGE_CURVE('',#286,#271,#49,.T.);
#330=EDGE_CURVE('',#284,#286,#56,.T.);
#332=EDGE_CURVE('',#282,#284,#63,.T.);
#334=EDGE_CURVE('',#280,#282,#70,.T.);
#336=EDGE_CURVE('',#280,#278,#208,.T.);
#338=EDGE_CURVE('',#276,#278,#78,.T.);
#340=EDGE_CURVE('',#274,#276,#85,.T.);
#342=EDGE_CURVE('',#263,#274,#93,.T.);
#345=EDGE_CURVE('',#264,#272,#114,.T.);
#349=ADVANCED_FACE('',(#348),#325,.T.);
#356=EDGE_CURVE('',#272,#290,#107,.T.);
#358=EDGE_CURVE('',#292,#290,#100,.T.);
#360=EDGE_CURVE('',#292,#271,#250,.T.);
#364=ADVANCED_FACE('',(#363),#354,.F.);
#370=EDGE_CURVE('',#266,#290,#121,.T.);
#377=ADVANCED_FACE('',(#376),#369,.F.);
#386=EDGE_CURVE('',#288,#268,#136,.T.);
#388=EDGE_CURVE('',#304,#288,#143,.T.);
#390=EDGE_CURVE('',#302,#304,#151,.T.);
#392=EDGE_CURVE('',#300,#302,#158,.T.);
#394=EDGE_CURVE('',#300,#298,#215,.T.);
#396=EDGE_CURVE('',#298,#296,#229,.T.);
#398=EDGE_CURVE('',#294,#296,#165,.T.);
#400=EDGE_CURVE('',#292,#294,#173,.T.);
#404=ADVANCED_FACE('',(#403),#382,.T.);
#412=EDGE_CURVE('',#288,#274,#187,.T.);
#417=ADVANCED_FACE('',(#416),#409,.F.);
#426=EDGE_CURVE('',#276,#304,#194,.T.);
#430=ADVANCED_FACE('',(#429),#422,.F.);
#439=EDGE_CURVE('',#302,#278,#201,.T.);
#443=ADVANCED_FACE('',(#442),#435,.T.);
#452=EDGE_CURVE('',#280,#300,#222,.T.);
#456=ADVANCED_FACE('',(#455),#448,.T.);
#465=EDGE_CURVE('',#282,#298,#236,.T.);
#469=ADVANCED_FACE('',(#468),#461,.T.);
#476=EDGE_CURVE('',#284,#296,#243,.T.);
#482=ADVANCED_FACE('',(#481),#474,.F.);
#491=EDGE_CURVE('',#286,#294,#257,.T.);
#495=ADVANCED_FACE('',(#494),#487,.T.);
#507=ADVANCED_FACE('',(#506),#500,.T.);
#508=CLOSED_SHELL('',(#320,#349,#364,#377,#404,#417,#430,#443,#456,#469,#482,
#495,#507));
#509=MANIFOLD_SOLID_BREP('',#508);
#516=(LENGTH_UNIT()NAMED_UNIT(*)SI_UNIT(.MILLI.,.METRE.));
#519=(NAMED_UNIT(*)PLANE_ANGLE_UNIT()SI_UNIT($,.RADIAN.));
#522=(NAMED_UNIT(*)SI_UNIT($,.STERADIAN.)SOLID_ANGLE_UNIT());
#524=(GEOMETRIC_REPRESENTATION_CONTEXT(3)GLOBAL_UNCERTAINTY_ASSIGNED_CONTEXT((
#523))GLOBAL_UNIT_ASSIGNED_CONTEXT((#518,#521,#522))REPRESENTATION_CONTEXT
('ID1','3'));
#528=AXIS2_PLACEMENT_3D('',#525,#526,#527);
#529=ADVANCED_BREP_SHAPE_REPRESENTATION('',(#528,#509),#524);
#537=PRODUCT_DEFINITION('design','',#536,#533);
#538=PRODUCT_DEFINITION_SHAPE('','SHAPE FOR BODY2-4126.',#537);
#539=SHAPE_ASPECT('','solid data associated with BODY2-4126',#538,.F.);
#540=PROPERTY_DEFINITION('',
'shape for solid data with which properties are associated',#539);
#541=SHAPE_REPRESENTATION('',(#509),#524);
#542=SHAPE_DEFINITION_REPRESENTATION(#540,#541);
#543=(LENGTH_UNIT()NAMED_UNIT(*)SI_UNIT(.MILLI.,.METRE.));
#549=PROPERTY_DEFINITION('geometric validation property','area of BODY2-4126',
#539);
#550=REPRESENTATION('surface area',(#548),#524);
#551=PROPERTY_DEFINITION_REPRESENTATION(#549,#550);
#552=(LENGTH_UNIT()NAMED_UNIT(*)SI_UNIT(.MILLI.,.METRE.));
#558=PROPERTY_DEFINITION('geometric validation property','volume of BODY2-4126',
#539);
#559=REPRESENTATION('volume',(#557),#524);
#560=PROPERTY_DEFINITION_REPRESENTATION(#558,#559);
#562=PROPERTY_DEFINITION('geometric validation property',
'centroid of BODY2-4126',#539);
#563=REPRESENTATION('centroid',(#561),#524);
#564=PROPERTY_DEFINITION_REPRESENTATION(#562,#563);
#565=(LENGTH_UNIT()NAMED_UNIT(*)SI_UNIT(.MILLI.,.METRE.));
#571=PROPERTY_DEFINITION('geometric validation property','area of BODY2-4126',
#538);
#572=REPRESENTATION('surface area',(#570),#524);
#573=PROPERTY_DEFINITION_REPRESENTATION(#571,#572);
#574=(LENGTH_UNIT()NAMED_UNIT(*)SI_UNIT(.MILLI.,.METRE.));
#580=PROPERTY_DEFINITION('geometric validation property','volume of BODY2-4126',
#538);
#581=REPRESENTATION('volume',(#579),#524);
#582=PROPERTY_DEFINITION_REPRESENTATION(#580,#581);
#584=PROPERTY_DEFINITION('geometric validation property',
'centroid of BODY2-4126',#538);
#585=REPRESENTATION('centroid',(#583),#524);
#586=PROPERTY_DEFINITION_REPRESENTATION(#584,#585);
#587=SHAPE_DEFINITION_REPRESENTATION(#538,#529);
ENDSEC;
END-ISO-10303-21;
