ISO-10303-21;
HEADER;
FILE_DESCRIPTION((''),'2;1');
FILE_NAME('BODY__1_','2026-06-15T13:45:25',('Esia'),(''),
'CREO PARAMETRIC BY PTC INC, 2025102','CREO PARAMETRIC BY PTC INC, 2025102','');
FILE_SCHEMA((
'AP242_MANAGED_MODEL_BASED_3D_ENGINEERING_MIM_LF { 1 0 10303 442 1 1 4 }'));
ENDSEC;
DATA;
#22=DIRECTION('',(0.E0,-1.E0,0.E0));
#23=VECTOR('',#22,1.574803149606E-1);
#24=CARTESIAN_POINT('',(-7.874015748031E-2,7.874015748031E-2,
1.968503937008E-3));
#25=LINE('',#24,#23);
#26=DRAUGHTING_PRE_DEFINED_CURVE_FONT('continuous');
#27=CURVE_STYLE('',#26,POSITIVE_LENGTH_MEASURE(2.E-2),#5);
#28=PRESENTATION_STYLE_ASSIGNMENT((#27));
#29=STYLED_ITEM('',(#28),#25);
#30=DIRECTION('',(0.E0,0.E0,-1.E0));
#31=VECTOR('',#30,3.346456692913E-2);
#32=CARTESIAN_POINT('',(-7.874015748031E-2,7.874015748031E-2,
3.543307086614E-2));
#33=LINE('',#32,#31);
#34=CURVE_STYLE('',#26,POSITIVE_LENGTH_MEASURE(2.E-2),#5);
#35=PRESENTATION_STYLE_ASSIGNMENT((#34));
#36=STYLED_ITEM('',(#35),#33);
#37=DIRECTION('',(0.E0,0.E0,-1.E0));
#38=VECTOR('',#37,3.346456692913E-2);
#39=CARTESIAN_POINT('',(-7.874015748031E-2,-7.874015748031E-2,
3.543307086614E-2));
#40=LINE('',#39,#38);
#41=CURVE_STYLE('',#26,POSITIVE_LENGTH_MEASURE(2.E-2),#5);
#42=PRESENTATION_STYLE_ASSIGNMENT((#41));
#43=STYLED_ITEM('',(#42),#40);
#44=DIRECTION('',(-1.E0,0.E0,0.E0));
#45=VECTOR('',#44,1.574803149606E-1);
#46=CARTESIAN_POINT('',(7.874015748031E-2,-7.874015748031E-2,
3.543307086614E-2));
#47=LINE('',#46,#45);
#48=CURVE_STYLE('',#26,POSITIVE_LENGTH_MEASURE(2.E-2),#5);
#49=PRESENTATION_STYLE_ASSIGNMENT((#48));
#50=STYLED_ITEM('',(#49),#47);
#51=DIRECTION('',(-1.E0,0.E0,0.E0));
#52=VECTOR('',#51,1.574803149606E-1);
#53=CARTESIAN_POINT('',(7.874015748031E-2,-7.874015748031E-2,
1.968503937008E-3));
#54=LINE('',#53,#52);
#55=CURVE_STYLE('',#26,POSITIVE_LENGTH_MEASURE(2.E-2),#5);
#56=PRESENTATION_STYLE_ASSIGNMENT((#55));
#57=STYLED_ITEM('',(#56),#54);
#58=DIRECTION('',(0.E0,-1.E0,0.E0));
#59=VECTOR('',#58,1.574803149606E-1);
#60=CARTESIAN_POINT('',(7.874015748031E-2,7.874015748031E-2,1.968503937008E-3));
#61=LINE('',#60,#59);
#62=CURVE_STYLE('',#26,POSITIVE_LENGTH_MEASURE(2.E-2),#5);
#63=PRESENTATION_STYLE_ASSIGNMENT((#62));
#64=STYLED_ITEM('',(#63),#61);
#65=DIRECTION('',(0.E0,0.E0,-1.E0));
#66=VECTOR('',#65,3.346456692913E-2);
#67=CARTESIAN_POINT('',(7.874015748031E-2,-7.874015748031E-2,
3.543307086614E-2));
#68=LINE('',#67,#66);
#69=CURVE_STYLE('',#26,POSITIVE_LENGTH_MEASURE(2.E-2),#5);
#70=PRESENTATION_STYLE_ASSIGNMENT((#69));
#71=STYLED_ITEM('',(#70),#68);
#72=DIRECTION('',(0.E0,-1.E0,0.E0));
#73=VECTOR('',#72,1.574803149606E-1);
#74=CARTESIAN_POINT('',(7.874015748031E-2,7.874015748031E-2,3.543307086614E-2));
#75=LINE('',#74,#73);
#76=CURVE_STYLE('',#26,POSITIVE_LENGTH_MEASURE(2.E-2),#5);
#77=PRESENTATION_STYLE_ASSIGNMENT((#76));
#78=STYLED_ITEM('',(#77),#75);
#79=DIRECTION('',(0.E0,-1.E0,0.E0));
#80=VECTOR('',#79,1.574803149606E-1);
#81=CARTESIAN_POINT('',(-7.874015748031E-2,7.874015748031E-2,
3.543307086614E-2));
#82=LINE('',#81,#80);
#83=CURVE_STYLE('',#26,POSITIVE_LENGTH_MEASURE(2.E-2),#5);
#84=PRESENTATION_STYLE_ASSIGNMENT((#83));
#85=STYLED_ITEM('',(#84),#82);
#86=DIRECTION('',(-1.E0,0.E0,0.E0));
#87=VECTOR('',#86,1.574803149606E-1);
#88=CARTESIAN_POINT('',(7.874015748031E-2,7.874015748031E-2,3.543307086614E-2));
#89=LINE('',#88,#87);
#90=CURVE_STYLE('',#26,POSITIVE_LENGTH_MEASURE(2.E-2),#5);
#91=PRESENTATION_STYLE_ASSIGNMENT((#90));
#92=STYLED_ITEM('',(#91),#89);
#93=CARTESIAN_POINT('',(-5.905511811024E-2,5.905511811024E-2,
3.543307086614E-2));
#94=DIRECTION('',(0.E0,0.E0,-1.E0));
#95=DIRECTION('',(1.E0,0.E0,0.E0));
#96=AXIS2_PLACEMENT_3D('',#93,#94,#95);
#98=CURVE_STYLE('',#26,POSITIVE_LENGTH_MEASURE(2.E-2),#5);
#99=PRESENTATION_STYLE_ASSIGNMENT((#98));
#100=STYLED_ITEM('',(#99),#97);
#101=CARTESIAN_POINT('',(-5.905511811024E-2,5.905511811024E-2,
3.543307086614E-2));
#102=DIRECTION('',(0.E0,0.E0,-1.E0));
#103=DIRECTION('',(-1.E0,0.E0,0.E0));
#104=AXIS2_PLACEMENT_3D('',#101,#102,#103);
#106=CURVE_STYLE('',#26,POSITIVE_LENGTH_MEASURE(2.E-2),#5);
#107=PRESENTATION_STYLE_ASSIGNMENT((#106));
#108=STYLED_ITEM('',(#107),#105);
#109=DIRECTION('',(-1.E0,0.E0,0.E0));
#110=VECTOR('',#109,1.574803149606E-1);
#111=CARTESIAN_POINT('',(7.874015748031E-2,7.874015748031E-2,
1.968503937008E-3));
#112=LINE('',#111,#110);
#113=CURVE_STYLE('',#26,POSITIVE_LENGTH_MEASURE(2.E-2),#5);
#114=PRESENTATION_STYLE_ASSIGNMENT((#113));
#115=STYLED_ITEM('',(#114),#112);
#116=DIRECTION('',(0.E0,0.E0,-1.E0));
#117=VECTOR('',#116,3.346456692913E-2);
#118=CARTESIAN_POINT('',(7.874015748031E-2,7.874015748031E-2,
3.543307086614E-2));
#119=LINE('',#118,#117);
#120=CURVE_STYLE('',#26,POSITIVE_LENGTH_MEASURE(2.E-2),#5);
#121=PRESENTATION_STYLE_ASSIGNMENT((#120));
#122=STYLED_ITEM('',(#121),#119);
#123=DIRECTION('',(0.E0,0.E0,1.E0));
#124=VECTOR('',#123,3.543307086614E-3);
#125=CARTESIAN_POINT('',(-4.921259842520E-2,5.905511811024E-2,
3.188976377953E-2));
#126=LINE('',#125,#124);
#127=CURVE_STYLE('',#26,POSITIVE_LENGTH_MEASURE(2.E-2),#5);
#128=PRESENTATION_STYLE_ASSIGNMENT((#127));
#129=STYLED_ITEM('',(#128),#126);
#130=DIRECTION('',(0.E0,0.E0,-1.E0));
#131=VECTOR('',#130,3.543307086614E-3);
#132=CARTESIAN_POINT('',(-6.889763779528E-2,5.905511811024E-2,
3.543307086614E-2));
#133=LINE('',#132,#131);
#134=CURVE_STYLE('',#26,POSITIVE_LENGTH_MEASURE(2.E-2),#5);
#135=PRESENTATION_STYLE_ASSIGNMENT((#134));
#136=STYLED_ITEM('',(#135),#133);
#137=CARTESIAN_POINT('',(-5.905511811024E-2,5.905511811024E-2,
3.188976377953E-2));
#138=DIRECTION('',(0.E0,0.E0,1.E0));
#139=DIRECTION('',(-1.E0,0.E0,0.E0));
#140=AXIS2_PLACEMENT_3D('',#137,#138,#139);
#142=CURVE_STYLE('',#26,POSITIVE_LENGTH_MEASURE(2.E-2),#5);
#143=PRESENTATION_STYLE_ASSIGNMENT((#142));
#144=STYLED_ITEM('',(#143),#141);
#145=CARTESIAN_POINT('',(-5.905511811024E-2,5.905511811024E-2,
3.188976377953E-2));
#146=DIRECTION('',(0.E0,0.E0,1.E0));
#147=DIRECTION('',(1.E0,0.E0,0.E0));
#148=AXIS2_PLACEMENT_3D('',#145,#146,#147);
#150=CURVE_STYLE('',#26,POSITIVE_LENGTH_MEASURE(2.E-2),#5);
#151=PRESENTATION_STYLE_ASSIGNMENT((#150));
#152=STYLED_ITEM('',(#151),#149);
#153=CARTESIAN_POINT('',(-7.874015748031E-2,-7.874015748031E-2,
3.543307086614E-2));
#154=CARTESIAN_POINT('',(-7.874015748031E-2,-7.874015748031E-2,
1.968503937008E-3));
#155=VERTEX_POINT('',#153);
#156=VERTEX_POINT('',#154);
#157=CARTESIAN_POINT('',(-7.874015748031E-2,7.874015748031E-2,
3.543307086614E-2));
#158=VERTEX_POINT('',#157);
#159=CARTESIAN_POINT('',(-7.874015748031E-2,7.874015748031E-2,
1.968503937008E-3));
#160=VERTEX_POINT('',#159);
#161=CARTESIAN_POINT('',(7.874015748031E-2,-7.874015748031E-2,
1.968503937008E-3));
#162=VERTEX_POINT('',#161);
#163=CARTESIAN_POINT('',(7.874015748031E-2,-7.874015748031E-2,
3.543307086614E-2));
#164=VERTEX_POINT('',#163);
#165=CARTESIAN_POINT('',(7.874015748031E-2,7.874015748031E-2,
3.543307086614E-2));
#166=VERTEX_POINT('',#165);
#167=CARTESIAN_POINT('',(7.874015748031E-2,7.874015748031E-2,
1.968503937008E-3));
#168=VERTEX_POINT('',#167);
#169=CARTESIAN_POINT('',(-4.921259842520E-2,5.905511811024E-2,
3.188976377953E-2));
#170=CARTESIAN_POINT('',(-4.921259842520E-2,5.905511811024E-2,
3.543307086614E-2));
#171=VERTEX_POINT('',#169);
#172=VERTEX_POINT('',#170);
#173=CARTESIAN_POINT('',(-6.889763779528E-2,5.905511811024E-2,
3.543307086614E-2));
#174=VERTEX_POINT('',#173);
#175=CARTESIAN_POINT('',(-6.889763779528E-2,5.905511811024E-2,
3.188976377953E-2));
#176=VERTEX_POINT('',#175);
#177=CARTESIAN_POINT('',(-7.874015748031E-2,-7.874015748031E-2,
1.968503937008E-3));
#178=DIRECTION('',(1.E0,0.E0,0.E0));
#179=DIRECTION('',(0.E0,0.E0,1.E0));
#180=AXIS2_PLACEMENT_3D('',#177,#178,#179);
#181=PLANE('',#180);
#183=ORIENTED_EDGE('',*,*,#182,.T.);
#185=ORIENTED_EDGE('',*,*,#184,.F.);
#187=ORIENTED_EDGE('',*,*,#186,.F.);
#189=ORIENTED_EDGE('',*,*,#188,.T.);
#190=EDGE_LOOP('',(#183,#185,#187,#189));
#191=FACE_OUTER_BOUND('',#190,.F.);
#193=CARTESIAN_POINT('',(-7.874015748031E-2,-7.874015748031E-2,
1.968503937008E-3));
#194=DIRECTION('',(0.E0,1.E0,0.E0));
#195=DIRECTION('',(0.E0,0.E0,1.E0));
#196=AXIS2_PLACEMENT_3D('',#193,#194,#195);
#197=PLANE('',#196);
#199=ORIENTED_EDGE('',*,*,#198,.T.);
#200=ORIENTED_EDGE('',*,*,#182,.F.);
#202=ORIENTED_EDGE('',*,*,#201,.F.);
#204=ORIENTED_EDGE('',*,*,#203,.T.);
#205=EDGE_LOOP('',(#199,#200,#202,#204));
#206=FACE_OUTER_BOUND('',#205,.F.);
#208=CARTESIAN_POINT('',(-7.874015748031E-2,-7.874015748031E-2,
1.968503937008E-3));
#209=DIRECTION('',(0.E0,0.E0,1.E0));
#210=DIRECTION('',(1.E0,0.E0,0.E0));
#211=AXIS2_PLACEMENT_3D('',#208,#209,#210);
#212=PLANE('',#211);
#213=ORIENTED_EDGE('',*,*,#184,.T.);
#214=ORIENTED_EDGE('',*,*,#198,.F.);
#216=ORIENTED_EDGE('',*,*,#215,.F.);
#218=ORIENTED_EDGE('',*,*,#217,.T.);
#219=EDGE_LOOP('',(#213,#214,#216,#218));
#220=FACE_OUTER_BOUND('',#219,.F.);
#222=CARTESIAN_POINT('',(7.874015748031E-2,-7.874015748031E-2,
1.968503937008E-3));
#223=DIRECTION('',(1.E0,0.E0,0.E0));
#224=DIRECTION('',(0.E0,0.E0,1.E0));
#225=AXIS2_PLACEMENT_3D('',#222,#223,#224);
#226=PLANE('',#225);
#227=ORIENTED_EDGE('',*,*,#203,.F.);
#229=ORIENTED_EDGE('',*,*,#228,.F.);
#231=ORIENTED_EDGE('',*,*,#230,.T.);
#232=ORIENTED_EDGE('',*,*,#215,.T.);
#233=EDGE_LOOP('',(#227,#229,#231,#232));
#234=FACE_OUTER_BOUND('',#233,.F.);
#236=CARTESIAN_POINT('',(-7.874015748031E-2,-7.874015748031E-2,
3.543307086614E-2));
#237=DIRECTION('',(0.E0,0.E0,1.E0));
#238=DIRECTION('',(1.E0,0.E0,0.E0));
#239=AXIS2_PLACEMENT_3D('',#236,#237,#238);
#240=PLANE('',#239);
#241=ORIENTED_EDGE('',*,*,#188,.F.);
#243=ORIENTED_EDGE('',*,*,#242,.F.);
#244=ORIENTED_EDGE('',*,*,#228,.T.);
#245=ORIENTED_EDGE('',*,*,#201,.T.);
#246=EDGE_LOOP('',(#241,#243,#244,#245));
#247=FACE_OUTER_BOUND('',#246,.F.);
#249=ORIENTED_EDGE('',*,*,#248,.F.);
#251=ORIENTED_EDGE('',*,*,#250,.F.);
#252=EDGE_LOOP('',(#249,#251));
#253=FACE_BOUND('',#252,.F.);
#255=CARTESIAN_POINT('',(-7.874015748031E-2,7.874015748031E-2,
1.968503937008E-3));
#256=DIRECTION('',(0.E0,1.E0,0.E0));
#257=DIRECTION('',(0.E0,0.E0,1.E0));
#258=AXIS2_PLACEMENT_3D('',#255,#256,#257);
#259=PLANE('',#258);
#260=ORIENTED_EDGE('',*,*,#217,.F.);
#261=ORIENTED_EDGE('',*,*,#230,.F.);
#262=ORIENTED_EDGE('',*,*,#242,.T.);
#263=ORIENTED_EDGE('',*,*,#186,.T.);
#264=EDGE_LOOP('',(#260,#261,#262,#263));
#265=FACE_OUTER_BOUND('',#264,.F.);
#267=CARTESIAN_POINT('',(-5.905511811024E-2,5.905511811024E-2,
3.188976377953E-2));
#268=DIRECTION('',(0.E0,0.E0,1.E0));
#269=DIRECTION('',(1.E0,0.E0,0.E0));
#270=AXIS2_PLACEMENT_3D('',#267,#268,#269);
#271=CYLINDRICAL_SURFACE('',#270,9.842519685039E-3);
#273=ORIENTED_EDGE('',*,*,#272,.T.);
#274=ORIENTED_EDGE('',*,*,#248,.T.);
#276=ORIENTED_EDGE('',*,*,#275,.T.);
#278=ORIENTED_EDGE('',*,*,#277,.T.);
#279=EDGE_LOOP('',(#273,#274,#276,#278));
#280=FACE_OUTER_BOUND('',#279,.F.);
#282=CARTESIAN_POINT('',(-5.905511811024E-2,5.905511811024E-2,
3.188976377953E-2));
#283=DIRECTION('',(0.E0,0.E0,1.E0));
#284=DIRECTION('',(1.E0,0.E0,0.E0));
#285=AXIS2_PLACEMENT_3D('',#282,#283,#284);
#286=CYLINDRICAL_SURFACE('',#285,9.842519685039E-3);
#287=ORIENTED_EDGE('',*,*,#272,.F.);
#289=ORIENTED_EDGE('',*,*,#288,.T.);
#290=ORIENTED_EDGE('',*,*,#275,.F.);
#291=ORIENTED_EDGE('',*,*,#250,.T.);
#292=EDGE_LOOP('',(#287,#289,#290,#291));
#293=FACE_OUTER_BOUND('',#292,.F.);
#295=CARTESIAN_POINT('',(-5.905511811024E-2,5.905511811024E-2,
3.188976377953E-2));
#296=DIRECTION('',(0.E0,0.E0,1.E0));
#297=DIRECTION('',(1.E0,0.E0,0.E0));
#298=AXIS2_PLACEMENT_3D('',#295,#296,#297);
#299=PLANE('',#298);
#300=ORIENTED_EDGE('',*,*,#277,.F.);
#301=ORIENTED_EDGE('',*,*,#288,.F.);
#302=EDGE_LOOP('',(#300,#301));
#303=FACE_OUTER_BOUND('',#302,.F.);
#307=FILL_AREA_STYLE_COLOUR('',#5);
#308=FILL_AREA_STYLE('',(#307));
#309=SURFACE_STYLE_FILL_AREA(#308);
#310=SURFACE_SIDE_STYLE('',(#309));
#311=SURFACE_STYLE_USAGE(.BOTH.,#310);
#312=PRESENTATION_STYLE_ASSIGNMENT((#311));
#21=STYLED_ITEM('',(#312),#306);
#314=LENGTH_MEASURE_WITH_UNIT(LENGTH_MEASURE(2.54E1),#313);
#315=(CONVERSION_BASED_UNIT('INCH',#314)LENGTH_UNIT()NAMED_UNIT(*));
#317=PLANE_ANGLE_MEASURE_WITH_UNIT(PLANE_ANGLE_MEASURE(1.745329251994E-2),#316);
#318=(CONVERSION_BASED_UNIT('DEGREE',#317)NAMED_UNIT(*)PLANE_ANGLE_UNIT());
#320=UNCERTAINTY_MEASURE_WITH_UNIT(LENGTH_MEASURE(2.252019514191E-5),#315,
'closure',
'Maximum model space distance between geometric entities at asserted connectivities');
#322=CARTESIAN_POINT('',(0.E0,0.E0,0.E0));
#323=DIRECTION('',(0.E0,0.E0,1.E0));
#324=DIRECTION('',(1.E0,0.E0,0.E0));
#327=MECHANICAL_DESIGN_GEOMETRIC_PRESENTATION_REPRESENTATION('',(#29,#36,#43,
#50,#57,#64,#71,#78,#85,#92,#100,#108,#115,#122,#129,#136,#144,#152,#21),#321);
#328=APPLICATION_CONTEXT('automotive design');
#329=APPLICATION_PROTOCOL_DEFINITION('international standard',
'config_control_design',1994,#328);
#330=PRODUCT_DEFINITION_CONTEXT('',#328,'design');
#331=PRODUCT_CONTEXT('',#328,'mechanical');
#332=PRODUCT('BODY__1_','BODY__1_','NOT SPECIFIED',(#331));
#333=PRODUCT_DEFINITION_FORMATION_WITH_SPECIFIED_SOURCE('1','LAST_VERSION',#332,
.MADE.);
#341=LENGTH_MEASURE_WITH_UNIT(LENGTH_MEASURE(2.54E1),#340);
#342=(CONVERSION_BASED_UNIT('INCH',#341)LENGTH_UNIT()NAMED_UNIT(*));
#343=DERIVED_UNIT_ELEMENT(#342,2.E0);
#344=AREA_UNIT((#343));
#345=MEASURE_REPRESENTATION_ITEM('surface area measure',AREA_MEASURE(
4.574137166941E1),#344);
#350=LENGTH_MEASURE_WITH_UNIT(LENGTH_MEASURE(2.54E1),#349);
#351=(CONVERSION_BASED_UNIT('INCH',#350)LENGTH_UNIT()NAMED_UNIT(*));
#352=DERIVED_UNIT_ELEMENT(#351,3.E0);
#353=VOLUME_UNIT((#352));
#354=MEASURE_REPRESENTATION_ITEM('volume measure',VOLUME_MEASURE(
1.358232854133E1),#353);
#358=CARTESIAN_POINT('centre point',(1.951591159839E-3,-1.951592448962E-3,
4.745055962404E-1));
#363=LENGTH_MEASURE_WITH_UNIT(LENGTH_MEASURE(2.54E1),#362);
#364=(CONVERSION_BASED_UNIT('INCH',#363)LENGTH_UNIT()NAMED_UNIT(*));
#365=DERIVED_UNIT_ELEMENT(#364,2.E0);
#366=AREA_UNIT((#365));
#367=MEASURE_REPRESENTATION_ITEM('surface area measure',AREA_MEASURE(
4.574137166941E1),#366);
#372=LENGTH_MEASURE_WITH_UNIT(LENGTH_MEASURE(2.54E1),#371);
#373=(CONVERSION_BASED_UNIT('INCH',#372)LENGTH_UNIT()NAMED_UNIT(*));
#374=DERIVED_UNIT_ELEMENT(#373,3.E0);
#375=VOLUME_UNIT((#374));
#376=MEASURE_REPRESENTATION_ITEM('volume measure',VOLUME_MEASURE(
1.358232854133E1),#375);
#380=CARTESIAN_POINT('centre point',(1.951591159839E-3,-1.951592448962E-3,
4.745055962404E-1));
#1=DRAUGHTING_PRE_DEFINED_COLOUR('green');
#2=COLOUR_RGB('',1.1E-2,1.2E-2,1.E0);
#3=COLOUR_RGB('',1.921568627451E-1,1.921568627451E-1,1.921568627451E-1);
#4=COLOUR_RGB('',2.352941176471E-1,2.352941176471E-1,2.352941176471E-1);
#5=COLOUR_RGB('',3.019607843137E-1,3.019607843137E-1,3.019607843137E-1);
#6=COLOUR_RGB('',3.137254901961E-1,3.137254901961E-1,3.137254901961E-1);
#7=COLOUR_RGB('',4.1E-1,2.61589E-1,1.12848E-1);
#8=COLOUR_RGB('',5.04854E-1,1.5455E-2,1.5455E-2);
#9=COLOUR_RGB('',6.274509803922E-1,6.274509803922E-1,6.274509803922E-1);
#10=COLOUR_RGB('',6.35294E-1,6.86275E-1,7.4902E-1);
#11=COLOUR_RGB('',6.40777E-1,6.40777E-1,6.40777E-1);
#12=COLOUR_RGB('',6.69062E-1,6.69903E-1,6.55217E-1);
#13=COLOUR_RGB('',8.313725490196E-1,0.E0,0.E0);
#14=COLOUR_RGB('',8.666666666667E-1,8.666666666667E-1,8.666666666667E-1);
#15=COLOUR_RGB('',9.21569E-1,7.05882E-1,4.70588E-1);
#16=DRAUGHTING_PRE_DEFINED_COLOUR('red');
#17=DRAUGHTING_PRE_DEFINED_COLOUR('yellow');
#18=COLOUR_RGB('',1.E0,1.E0,5.3E-1);
#19=COLOUR_RGB('',1.E0,1.E0,9.49E-1);
#20=DRAUGHTING_PRE_DEFINED_COLOUR('white');
#97=CIRCLE('',#96,9.842519685039E-3);
#105=CIRCLE('',#104,9.842519685039E-3);
#141=CIRCLE('',#140,9.842519685039E-3);
#149=CIRCLE('',#148,9.842519685039E-3);
#182=EDGE_CURVE('',#155,#156,#40,.T.);
#184=EDGE_CURVE('',#160,#156,#25,.T.);
#186=EDGE_CURVE('',#158,#160,#33,.T.);
#188=EDGE_CURVE('',#158,#155,#82,.T.);
#192=ADVANCED_FACE('',(#191),#181,.F.);
#198=EDGE_CURVE('',#162,#156,#54,.T.);
#201=EDGE_CURVE('',#164,#155,#47,.T.);
#203=EDGE_CURVE('',#164,#162,#68,.T.);
#207=ADVANCED_FACE('',(#206),#197,.F.);
#215=EDGE_CURVE('',#168,#162,#61,.T.);
#217=EDGE_CURVE('',#168,#160,#112,.T.);
#221=ADVANCED_FACE('',(#220),#212,.F.);
#228=EDGE_CURVE('',#166,#164,#75,.T.);
#230=EDGE_CURVE('',#166,#168,#119,.T.);
#235=ADVANCED_FACE('',(#234),#226,.T.);
#242=EDGE_CURVE('',#166,#158,#89,.T.);
#248=EDGE_CURVE('',#172,#174,#97,.T.);
#250=EDGE_CURVE('',#174,#172,#105,.T.);
#254=ADVANCED_FACE('',(#247,#253),#240,.T.);
#266=ADVANCED_FACE('',(#265),#259,.T.);
#272=EDGE_CURVE('',#171,#172,#126,.T.);
#275=EDGE_CURVE('',#174,#176,#133,.T.);
#277=EDGE_CURVE('',#176,#171,#141,.T.);
#281=ADVANCED_FACE('',(#280),#271,.F.);
#288=EDGE_CURVE('',#171,#176,#149,.T.);
#294=ADVANCED_FACE('',(#293),#286,.F.);
#304=ADVANCED_FACE('',(#303),#299,.T.);
#305=CLOSED_SHELL('',(#192,#207,#221,#235,#254,#266,#281,#294,#304));
#306=MANIFOLD_SOLID_BREP('',#305);
#313=(LENGTH_UNIT()NAMED_UNIT(*)SI_UNIT(.MILLI.,.METRE.));
#316=(NAMED_UNIT(*)PLANE_ANGLE_UNIT()SI_UNIT($,.RADIAN.));
#319=(NAMED_UNIT(*)SI_UNIT($,.STERADIAN.)SOLID_ANGLE_UNIT());
#321=(GEOMETRIC_REPRESENTATION_CONTEXT(3)GLOBAL_UNCERTAINTY_ASSIGNED_CONTEXT((
#320))GLOBAL_UNIT_ASSIGNED_CONTEXT((#315,#318,#319))REPRESENTATION_CONTEXT
('ID1','3'));
#325=AXIS2_PLACEMENT_3D('',#322,#323,#324);
#326=ADVANCED_BREP_SHAPE_REPRESENTATION('',(#325,#306),#321);
#334=PRODUCT_DEFINITION('design','',#333,#330);
#335=PRODUCT_DEFINITION_SHAPE('','SHAPE FOR BODY__1_.',#334);
#336=SHAPE_ASPECT('','solid data associated with BODY__1_',#335,.F.);
#337=PROPERTY_DEFINITION('',
'shape for solid data with which properties are associated',#336);
#338=SHAPE_REPRESENTATION('',(#306),#321);
#339=SHAPE_DEFINITION_REPRESENTATION(#337,#338);
#340=(LENGTH_UNIT()NAMED_UNIT(*)SI_UNIT(.MILLI.,.METRE.));
#346=PROPERTY_DEFINITION('geometric validation property','area of BODY__1_',
#336);
#347=REPRESENTATION('surface area',(#345),#321);
#348=PROPERTY_DEFINITION_REPRESENTATION(#346,#347);
#349=(LENGTH_UNIT()NAMED_UNIT(*)SI_UNIT(.MILLI.,.METRE.));
#355=PROPERTY_DEFINITION('geometric validation property','volume of BODY__1_',
#336);
#356=REPRESENTATION('volume',(#354),#321);
#357=PROPERTY_DEFINITION_REPRESENTATION(#355,#356);
#359=PROPERTY_DEFINITION('geometric validation property','centroid of BODY__1_',
#336);
#360=REPRESENTATION('centroid',(#358),#321);
#361=PROPERTY_DEFINITION_REPRESENTATION(#359,#360);
#362=(LENGTH_UNIT()NAMED_UNIT(*)SI_UNIT(.MILLI.,.METRE.));
#368=PROPERTY_DEFINITION('geometric validation property','area of BODY__1_',
#335);
#369=REPRESENTATION('surface area',(#367),#321);
#370=PROPERTY_DEFINITION_REPRESENTATION(#368,#369);
#371=(LENGTH_UNIT()NAMED_UNIT(*)SI_UNIT(.MILLI.,.METRE.));
#377=PROPERTY_DEFINITION('geometric validation property','volume of BODY__1_',
#335);
#378=REPRESENTATION('volume',(#376),#321);
#379=PROPERTY_DEFINITION_REPRESENTATION(#377,#378);
#381=PROPERTY_DEFINITION('geometric validation property','centroid of BODY__1_',
#335);
#382=REPRESENTATION('centroid',(#380),#321);
#383=PROPERTY_DEFINITION_REPRESENTATION(#381,#382);
#384=SHAPE_DEFINITION_REPRESENTATION(#335,#326);
ENDSEC;
END-ISO-10303-21;
