ISO-10303-21;
HEADER;
FILE_DESCRIPTION((''),'2;1');
FILE_NAME('BODY38_1_2','2026-06-15T13:45:32',('Esia'),(''),
'CREO PARAMETRIC BY PTC INC, 2025102','CREO PARAMETRIC BY PTC INC, 2025102','');
FILE_SCHEMA((
'AP242_MANAGED_MODEL_BASED_3D_ENGINEERING_MIM_LF { 1 0 10303 442 1 1 4 }'));
ENDSEC;
DATA;
#22=CARTESIAN_POINT('',(2.755905511811E-2,1.181102362205E-2,2.165354330709E-1));
#23=DIRECTION('',(-1.E0,0.E0,0.E0));
#24=DIRECTION('',(0.E0,1.E0,0.E0));
#25=AXIS2_PLACEMENT_3D('',#22,#23,#24);
#27=DRAUGHTING_PRE_DEFINED_CURVE_FONT('continuous');
#28=CURVE_STYLE('',#27,POSITIVE_LENGTH_MEASURE(2.E-2),#1);
#29=PRESENTATION_STYLE_ASSIGNMENT((#28));
#30=STYLED_ITEM('',(#29),#26);
#31=CARTESIAN_POINT('',(2.755905511811E-2,1.181102362205E-2,2.165354330709E-1));
#32=DIRECTION('',(1.E0,0.E0,0.E0));
#33=DIRECTION('',(0.E0,1.E0,0.E0));
#34=AXIS2_PLACEMENT_3D('',#31,#32,#33);
#36=CURVE_STYLE('',#27,POSITIVE_LENGTH_MEASURE(2.E-2),#1);
#37=PRESENTATION_STYLE_ASSIGNMENT((#36));
#38=STYLED_ITEM('',(#37),#35);
#39=CARTESIAN_POINT('',(2.755905511811E-2,4.133858267717E-2,2.165354330709E-1));
#40=CARTESIAN_POINT('',(2.755905511811E-2,-1.771653543307E-2,
2.165354330709E-1));
#41=VERTEX_POINT('',#39);
#42=VERTEX_POINT('',#40);
#43=CARTESIAN_POINT('',(2.755905511811E-2,1.181102362205E-2,2.165354330709E-1));
#44=DIRECTION('',(0.E0,-1.E0,0.E0));
#45=DIRECTION('',(0.E0,0.E0,1.E0));
#46=AXIS2_PLACEMENT_3D('',#43,#44,#45);
#47=SPHERICAL_SURFACE('',#46,2.952755905512E-2);
#49=ORIENTED_EDGE('',*,*,#48,.T.);
#51=ORIENTED_EDGE('',*,*,#50,.F.);
#52=EDGE_LOOP('',(#49,#51));
#53=FACE_OUTER_BOUND('',#52,.F.);
#55=CARTESIAN_POINT('',(2.755905511811E-2,1.181102362205E-2,2.165354330709E-1));
#56=DIRECTION('',(0.E0,-1.E0,0.E0));
#57=DIRECTION('',(0.E0,0.E0,1.E0));
#58=AXIS2_PLACEMENT_3D('',#55,#56,#57);
#59=SPHERICAL_SURFACE('',#58,2.952755905512E-2);
#60=ORIENTED_EDGE('',*,*,#50,.T.);
#61=ORIENTED_EDGE('',*,*,#48,.F.);
#62=EDGE_LOOP('',(#60,#61));
#63=FACE_OUTER_BOUND('',#62,.F.);
#67=FILL_AREA_STYLE_COLOUR('',#1);
#68=FILL_AREA_STYLE('',(#67));
#69=SURFACE_STYLE_FILL_AREA(#68);
#70=SURFACE_SIDE_STYLE('',(#69));
#71=SURFACE_STYLE_USAGE(.BOTH.,#70);
#72=PRESENTATION_STYLE_ASSIGNMENT((#71));
#21=STYLED_ITEM('',(#72),#66);
#74=LENGTH_MEASURE_WITH_UNIT(LENGTH_MEASURE(2.54E1),#73);
#75=(CONVERSION_BASED_UNIT('INCH',#74)LENGTH_UNIT()NAMED_UNIT(*));
#77=PLANE_ANGLE_MEASURE_WITH_UNIT(PLANE_ANGLE_MEASURE(1.745329251994E-2),#76);
#78=(CONVERSION_BASED_UNIT('DEGREE',#77)NAMED_UNIT(*)PLANE_ANGLE_UNIT());
#80=UNCERTAINTY_MEASURE_WITH_UNIT(LENGTH_MEASURE(1.022823735553E-5),#75,
'closure',
'Maximum model space distance between geometric entities at asserted connectivities');
#82=CARTESIAN_POINT('',(0.E0,0.E0,0.E0));
#83=DIRECTION('',(0.E0,0.E0,1.E0));
#84=DIRECTION('',(1.E0,0.E0,0.E0));
#87=MECHANICAL_DESIGN_GEOMETRIC_PRESENTATION_REPRESENTATION('',(#30,#38,#21),
#81);
#88=APPLICATION_CONTEXT('automotive design');
#89=APPLICATION_PROTOCOL_DEFINITION('international standard',
'config_control_design',1994,#88);
#90=PRODUCT_DEFINITION_CONTEXT('',#88,'design');
#91=PRODUCT_CONTEXT('',#88,'mechanical');
#92=PRODUCT('BODY38_1_2','BODY38_1_2','NOT SPECIFIED',(#91));
#93=PRODUCT_DEFINITION_FORMATION_WITH_SPECIFIED_SOURCE('1','LAST_VERSION',#92,
.MADE.);
#101=LENGTH_MEASURE_WITH_UNIT(LENGTH_MEASURE(2.54E1),#100);
#102=(CONVERSION_BASED_UNIT('INCH',#101)LENGTH_UNIT()NAMED_UNIT(*));
#103=DERIVED_UNIT_ELEMENT(#102,2.E0);
#104=AREA_UNIT((#103));
#105=MEASURE_REPRESENTATION_ITEM('surface area measure',AREA_MEASURE(
7.068583470563E0),#104);
#110=LENGTH_MEASURE_WITH_UNIT(LENGTH_MEASURE(2.54E1),#109);
#111=(CONVERSION_BASED_UNIT('INCH',#110)LENGTH_UNIT()NAMED_UNIT(*));
#112=DERIVED_UNIT_ELEMENT(#111,3.E0);
#113=VOLUME_UNIT((#112));
#114=MEASURE_REPRESENTATION_ITEM('volume measure',VOLUME_MEASURE(
1.767145867641E0),#113);
#118=CARTESIAN_POINT('centre point',(7.E-1,3.E-1,5.5E0));
#123=LENGTH_MEASURE_WITH_UNIT(LENGTH_MEASURE(2.54E1),#122);
#124=(CONVERSION_BASED_UNIT('INCH',#123)LENGTH_UNIT()NAMED_UNIT(*));
#125=DERIVED_UNIT_ELEMENT(#124,2.E0);
#126=AREA_UNIT((#125));
#127=MEASURE_REPRESENTATION_ITEM('surface area measure',AREA_MEASURE(
7.068583470563E0),#126);
#132=LENGTH_MEASURE_WITH_UNIT(LENGTH_MEASURE(2.54E1),#131);
#133=(CONVERSION_BASED_UNIT('INCH',#132)LENGTH_UNIT()NAMED_UNIT(*));
#134=DERIVED_UNIT_ELEMENT(#133,3.E0);
#135=VOLUME_UNIT((#134));
#136=MEASURE_REPRESENTATION_ITEM('volume measure',VOLUME_MEASURE(
1.767145867641E0),#135);
#140=CARTESIAN_POINT('centre point',(7.E-1,3.E-1,5.5E0));
#1=COLOUR_RGB('',6.274509803922E-1,6.274509803922E-1,6.274509803922E-1);
#2=DRAUGHTING_PRE_DEFINED_COLOUR('green');
#3=COLOUR_RGB('',1.1E-2,1.2E-2,1.E0);
#4=COLOUR_RGB('',1.921568627451E-1,1.921568627451E-1,1.921568627451E-1);
#5=COLOUR_RGB('',2.352941176471E-1,2.352941176471E-1,2.352941176471E-1);
#6=COLOUR_RGB('',3.137254901961E-1,3.137254901961E-1,3.137254901961E-1);
#7=COLOUR_RGB('',4.1E-1,2.61589E-1,1.12848E-1);
#8=COLOUR_RGB('',5.04854E-1,1.5455E-2,1.5455E-2);
#9=COLOUR_RGB('',6.274509803922E-1,6.274509803922E-1,6.274509803922E-1);
#10=COLOUR_RGB('',6.35294E-1,6.86275E-1,7.4902E-1);
#11=COLOUR_RGB('',6.40777E-1,6.40777E-1,6.40777E-1);
#12=COLOUR_RGB('',6.69062E-1,6.69903E-1,6.55217E-1);
#13=COLOUR_RGB('',8.313725490196E-1,0.E0,0.E0);
#14=COLOUR_RGB('',8.666666666667E-1,8.666666666667E-1,8.666666666667E-1);
#15=COLOUR_RGB('',9.21569E-1,7.05882E-1,4.70588E-1);
#16=DRAUGHTING_PRE_DEFINED_COLOUR('red');
#17=DRAUGHTING_PRE_DEFINED_COLOUR('yellow');
#18=COLOUR_RGB('',1.E0,1.E0,5.3E-1);
#19=COLOUR_RGB('',1.E0,1.E0,9.49E-1);
#20=DRAUGHTING_PRE_DEFINED_COLOUR('white');
#26=CIRCLE('',#25,2.952755905512E-2);
#35=CIRCLE('',#34,2.952755905512E-2);
#48=EDGE_CURVE('',#41,#42,#26,.T.);
#50=EDGE_CURVE('',#41,#42,#35,.T.);
#54=ADVANCED_FACE('',(#53),#47,.T.);
#64=ADVANCED_FACE('',(#63),#59,.T.);
#65=CLOSED_SHELL('',(#54,#64));
#66=MANIFOLD_SOLID_BREP('',#65);
#73=(LENGTH_UNIT()NAMED_UNIT(*)SI_UNIT(.MILLI.,.METRE.));
#76=(NAMED_UNIT(*)PLANE_ANGLE_UNIT()SI_UNIT($,.RADIAN.));
#79=(NAMED_UNIT(*)SI_UNIT($,.STERADIAN.)SOLID_ANGLE_UNIT());
#81=(GEOMETRIC_REPRESENTATION_CONTEXT(3)GLOBAL_UNCERTAINTY_ASSIGNED_CONTEXT(
(#80))GLOBAL_UNIT_ASSIGNED_CONTEXT((#75,#78,#79))REPRESENTATION_CONTEXT('ID1',
'3'));
#85=AXIS2_PLACEMENT_3D('',#82,#83,#84);
#86=ADVANCED_BREP_SHAPE_REPRESENTATION('',(#85,#66),#81);
#94=PRODUCT_DEFINITION('design','',#93,#90);
#95=PRODUCT_DEFINITION_SHAPE('','SHAPE FOR BODY38_1_2.',#94);
#96=SHAPE_ASPECT('','solid data associated with BODY38_1_2',#95,.F.);
#97=PROPERTY_DEFINITION('',
'shape for solid data with which properties are associated',#96);
#98=SHAPE_REPRESENTATION('',(#66),#81);
#99=SHAPE_DEFINITION_REPRESENTATION(#97,#98);
#100=(LENGTH_UNIT()NAMED_UNIT(*)SI_UNIT(.MILLI.,.METRE.));
#106=PROPERTY_DEFINITION('geometric validation property','area of BODY38_1_2',
#96);
#107=REPRESENTATION('surface area',(#105),#81);
#108=PROPERTY_DEFINITION_REPRESENTATION(#106,#107);
#109=(LENGTH_UNIT()NAMED_UNIT(*)SI_UNIT(.MILLI.,.METRE.));
#115=PROPERTY_DEFINITION('geometric validation property','volume of BODY38_1_2',
#96);
#116=REPRESENTATION('volume',(#114),#81);
#117=PROPERTY_DEFINITION_REPRESENTATION(#115,#116);
#119=PROPERTY_DEFINITION('geometric validation property',
'centroid of BODY38_1_2',#96);
#120=REPRESENTATION('centroid',(#118),#81);
#121=PROPERTY_DEFINITION_REPRESENTATION(#119,#120);
#122=(LENGTH_UNIT()NAMED_UNIT(*)SI_UNIT(.MILLI.,.METRE.));
#128=PROPERTY_DEFINITION('geometric validation property','area of BODY38_1_2',
#95);
#129=REPRESENTATION('surface area',(#127),#81);
#130=PROPERTY_DEFINITION_REPRESENTATION(#128,#129);
#131=(LENGTH_UNIT()NAMED_UNIT(*)SI_UNIT(.MILLI.,.METRE.));
#137=PROPERTY_DEFINITION('geometric validation property','volume of BODY38_1_2',
#95);
#138=REPRESENTATION('volume',(#136),#81);
#139=PROPERTY_DEFINITION_REPRESENTATION(#137,#138);
#141=PROPERTY_DEFINITION('geometric validation property',
'centroid of BODY38_1_2',#95);
#142=REPRESENTATION('centroid',(#140),#81);
#143=PROPERTY_DEFINITION_REPRESENTATION(#141,#142);
#144=SHAPE_DEFINITION_REPRESENTATION(#95,#86);
ENDSEC;
END-ISO-10303-21;
