ISO-10303-21;
HEADER;
FILE_DESCRIPTION((''),'2;1');
FILE_NAME('BODY2-4121','2026-06-15T13:45:24',('Esia'),(''),
'CREO PARAMETRIC BY PTC INC, 2025102','CREO PARAMETRIC BY PTC INC, 2025102','');
FILE_SCHEMA((
'AP242_MANAGED_MODEL_BASED_3D_ENGINEERING_MIM_LF { 1 0 10303 442 1 1 4 }'));
ENDSEC;
DATA;
#24=DIRECTION('',(0.E0,0.E0,1.E0));
#25=VECTOR('',#24,3.779527559055E-2);
#26=CARTESIAN_POINT('',(-9.842519685039E-3,1.377952755969E-2,
-1.889763779528E-2));
#27=LINE('',#26,#25);
#28=DRAUGHTING_PRE_DEFINED_CURVE_FONT('continuous');
#29=CURVE_STYLE('',#28,POSITIVE_LENGTH_MEASURE(2.E-2),#1);
#30=PRESENTATION_STYLE_ASSIGNMENT((#29));
#31=STYLED_ITEM('',(#30),#27);
#32=DIRECTION('',(-1.E0,0.E0,0.E0));
#33=VECTOR('',#32,1.968503937008E-2);
#34=CARTESIAN_POINT('',(9.842519685039E-3,1.377952755969E-2,
-1.889763779528E-2));
#35=LINE('',#34,#33);
#36=CURVE_STYLE('',#28,POSITIVE_LENGTH_MEASURE(2.E-2),#1);
#37=PRESENTATION_STYLE_ASSIGNMENT((#36));
#38=STYLED_ITEM('',(#37),#35);
#39=DIRECTION('',(0.E0,0.E0,-1.E0));
#40=VECTOR('',#39,3.779527559055E-2);
#41=CARTESIAN_POINT('',(9.842519685039E-3,1.377952755969E-2,1.889763779528E-2));
#42=LINE('',#41,#40);
#43=CURVE_STYLE('',#28,POSITIVE_LENGTH_MEASURE(2.E-2),#1);
#44=PRESENTATION_STYLE_ASSIGNMENT((#43));
#45=STYLED_ITEM('',(#44),#42);
#46=DIRECTION('',(0.E0,-1.E0,0.E0));
#47=VECTOR('',#46,1.220472440945E-2);
#48=CARTESIAN_POINT('',(-9.842519685039E-3,1.377952755969E-2,
1.889763779528E-2));
#49=LINE('',#48,#47);
#50=CURVE_STYLE('',#28,POSITIVE_LENGTH_MEASURE(2.E-2),#1);
#51=PRESENTATION_STYLE_ASSIGNMENT((#50));
#52=STYLED_ITEM('',(#51),#49);
#53=DIRECTION('',(-1.E0,0.E0,0.E0));
#54=VECTOR('',#53,1.968503937008E-2);
#55=CARTESIAN_POINT('',(9.842519685039E-3,1.377952755969E-2,1.889763779528E-2));
#56=LINE('',#55,#54);
#57=CURVE_STYLE('',#28,POSITIVE_LENGTH_MEASURE(2.E-2),#1);
#58=PRESENTATION_STYLE_ASSIGNMENT((#57));
#59=STYLED_ITEM('',(#58),#56);
#60=DIRECTION('',(0.E0,1.E0,0.E0));
#61=VECTOR('',#60,1.220472440945E-2);
#62=CARTESIAN_POINT('',(9.842519685039E-3,1.574803150233E-3,1.889763779528E-2));
#63=LINE('',#62,#61);
#64=CURVE_STYLE('',#28,POSITIVE_LENGTH_MEASURE(2.E-2),#1);
#65=PRESENTATION_STYLE_ASSIGNMENT((#64));
#66=STYLED_ITEM('',(#65),#63);
#67=DIRECTION('',(0.E0,1.E0,0.E0));
#68=VECTOR('',#67,1.220472440945E-2);
#69=CARTESIAN_POINT('',(-9.842519685039E-3,1.574803150233E-3,
-1.889763779528E-2));
#70=LINE('',#69,#68);
#71=CURVE_STYLE('',#28,POSITIVE_LENGTH_MEASURE(2.E-2),#1);
#72=PRESENTATION_STYLE_ASSIGNMENT((#71));
#73=STYLED_ITEM('',(#72),#70);
#74=DIRECTION('',(-1.E0,0.E0,0.E0));
#75=VECTOR('',#74,1.968503937008E-2);
#76=CARTESIAN_POINT('',(9.842519685039E-3,1.574803150233E-3,
-1.889763779528E-2));
#77=LINE('',#76,#75);
#78=CURVE_STYLE('',#28,POSITIVE_LENGTH_MEASURE(2.E-2),#1);
#79=PRESENTATION_STYLE_ASSIGNMENT((#78));
#80=STYLED_ITEM('',(#79),#77);
#81=DIRECTION('',(0.E0,-1.E0,0.E0));
#82=VECTOR('',#81,1.220472440945E-2);
#83=CARTESIAN_POINT('',(9.842519685039E-3,1.377952755969E-2,
-1.889763779528E-2));
#84=LINE('',#83,#82);
#85=CURVE_STYLE('',#28,POSITIVE_LENGTH_MEASURE(2.E-2),#1);
#86=PRESENTATION_STYLE_ASSIGNMENT((#85));
#87=STYLED_ITEM('',(#86),#84);
#88=DIRECTION('',(0.E0,0.E0,-1.E0));
#89=VECTOR('',#88,3.779527559055E-2);
#90=CARTESIAN_POINT('',(-9.842519685039E-3,1.574803150233E-3,
1.889763779528E-2));
#91=LINE('',#90,#89);
#92=CURVE_STYLE('',#28,POSITIVE_LENGTH_MEASURE(2.E-2),#1);
#93=PRESENTATION_STYLE_ASSIGNMENT((#92));
#94=STYLED_ITEM('',(#93),#91);
#95=DIRECTION('',(-1.E0,0.E0,0.E0));
#96=VECTOR('',#95,1.968503937008E-2);
#97=CARTESIAN_POINT('',(9.842519685039E-3,1.574803150233E-3,1.889763779528E-2));
#98=LINE('',#97,#96);
#99=CURVE_STYLE('',#28,POSITIVE_LENGTH_MEASURE(2.E-2),#1);
#100=PRESENTATION_STYLE_ASSIGNMENT((#99));
#101=STYLED_ITEM('',(#100),#98);
#102=DIRECTION('',(0.E0,0.E0,1.E0));
#103=VECTOR('',#102,3.779527559055E-2);
#104=CARTESIAN_POINT('',(9.842519685039E-3,1.574803150233E-3,
-1.889763779528E-2));
#105=LINE('',#104,#103);
#106=CURVE_STYLE('',#28,POSITIVE_LENGTH_MEASURE(2.E-2),#1);
#107=PRESENTATION_STYLE_ASSIGNMENT((#106));
#108=STYLED_ITEM('',(#107),#105);
#109=CARTESIAN_POINT('',(-9.842519685039E-3,1.377952755969E-2,
-1.889763779528E-2));
#110=CARTESIAN_POINT('',(-9.842519685039E-3,1.377952755969E-2,
1.889763779528E-2));
#111=VERTEX_POINT('',#109);
#112=VERTEX_POINT('',#110);
#113=CARTESIAN_POINT('',(9.842519685039E-3,1.377952755969E-2,
1.889763779528E-2));
#114=VERTEX_POINT('',#113);
#115=CARTESIAN_POINT('',(9.842519685039E-3,1.377952755969E-2,
-1.889763779528E-2));
#116=VERTEX_POINT('',#115);
#117=CARTESIAN_POINT('',(-9.842519685039E-3,1.574803150233E-3,
-1.889763779528E-2));
#118=VERTEX_POINT('',#117);
#119=CARTESIAN_POINT('',(9.842519685039E-3,1.574803150233E-3,
-1.889763779528E-2));
#120=VERTEX_POINT('',#119);
#121=CARTESIAN_POINT('',(-9.842519685039E-3,1.574803150233E-3,
1.889763779528E-2));
#122=VERTEX_POINT('',#121);
#123=CARTESIAN_POINT('',(9.842519685039E-3,1.574803150233E-3,
1.889763779528E-2));
#124=VERTEX_POINT('',#123);
#125=CARTESIAN_POINT('',(-4.955949533622E-2,1.377952755969E-2,
1.889763779528E-2));
#126=DIRECTION('',(0.E0,1.E0,0.E0));
#127=DIRECTION('',(0.E0,0.E0,1.E0));
#128=AXIS2_PLACEMENT_3D('',#125,#126,#127);
#129=PLANE('',#128);
#131=ORIENTED_EDGE('',*,*,#130,.F.);
#133=ORIENTED_EDGE('',*,*,#132,.F.);
#135=ORIENTED_EDGE('',*,*,#134,.F.);
#137=ORIENTED_EDGE('',*,*,#136,.T.);
#138=EDGE_LOOP('',(#131,#133,#135,#137));
#139=FACE_OUTER_BOUND('',#138,.F.);
#141=FILL_AREA_STYLE_COLOUR('',#18);
#142=FILL_AREA_STYLE('',(#141));
#143=SURFACE_STYLE_FILL_AREA(#142);
#144=SURFACE_SIDE_STYLE('',(#143));
#145=SURFACE_STYLE_USAGE(.BOTH.,#144);
#146=PRESENTATION_STYLE_ASSIGNMENT((#145));
#147=OVER_RIDING_STYLED_ITEM('',(#146),#140,#23);
#148=CARTESIAN_POINT('',(-9.842519685039E-3,0.E0,0.E0));
#149=DIRECTION('',(1.E0,0.E0,0.E0));
#150=DIRECTION('',(0.E0,0.E0,-1.E0));
#151=AXIS2_PLACEMENT_3D('',#148,#149,#150);
#152=PLANE('',#151);
#153=ORIENTED_EDGE('',*,*,#130,.T.);
#155=ORIENTED_EDGE('',*,*,#154,.T.);
#157=ORIENTED_EDGE('',*,*,#156,.T.);
#159=ORIENTED_EDGE('',*,*,#158,.T.);
#160=EDGE_LOOP('',(#153,#155,#157,#159));
#161=FACE_OUTER_BOUND('',#160,.F.);
#163=FILL_AREA_STYLE_COLOUR('',#18);
#164=FILL_AREA_STYLE('',(#163));
#165=SURFACE_STYLE_FILL_AREA(#164);
#166=SURFACE_SIDE_STYLE('',(#165));
#167=SURFACE_STYLE_USAGE(.BOTH.,#166);
#168=PRESENTATION_STYLE_ASSIGNMENT((#167));
#169=OVER_RIDING_STYLED_ITEM('',(#168),#162,#23);
#170=CARTESIAN_POINT('',(-4.955949533622E-2,1.377952755969E-2,
1.889763779528E-2));
#171=DIRECTION('',(0.E0,0.E0,1.E0));
#172=DIRECTION('',(1.E0,0.E0,0.E0));
#173=AXIS2_PLACEMENT_3D('',#170,#171,#172);
#174=PLANE('',#173);
#175=ORIENTED_EDGE('',*,*,#154,.F.);
#176=ORIENTED_EDGE('',*,*,#136,.F.);
#178=ORIENTED_EDGE('',*,*,#177,.F.);
#180=ORIENTED_EDGE('',*,*,#179,.T.);
#181=EDGE_LOOP('',(#175,#176,#178,#180));
#182=FACE_OUTER_BOUND('',#181,.F.);
#184=FILL_AREA_STYLE_COLOUR('',#18);
#185=FILL_AREA_STYLE('',(#184));
#186=SURFACE_STYLE_FILL_AREA(#185);
#187=SURFACE_SIDE_STYLE('',(#186));
#188=SURFACE_STYLE_USAGE(.BOTH.,#187);
#189=PRESENTATION_STYLE_ASSIGNMENT((#188));
#190=OVER_RIDING_STYLED_ITEM('',(#189),#183,#23);
#191=CARTESIAN_POINT('',(9.842519685039E-3,0.E0,0.E0));
#192=DIRECTION('',(1.E0,0.E0,0.E0));
#193=DIRECTION('',(0.E0,0.E0,-1.E0));
#194=AXIS2_PLACEMENT_3D('',#191,#192,#193);
#195=PLANE('',#194);
#197=ORIENTED_EDGE('',*,*,#196,.T.);
#199=ORIENTED_EDGE('',*,*,#198,.T.);
#200=ORIENTED_EDGE('',*,*,#177,.T.);
#201=ORIENTED_EDGE('',*,*,#134,.T.);
#202=EDGE_LOOP('',(#197,#199,#200,#201));
#203=FACE_OUTER_BOUND('',#202,.F.);
#205=FILL_AREA_STYLE_COLOUR('',#18);
#206=FILL_AREA_STYLE('',(#205));
#207=SURFACE_STYLE_FILL_AREA(#206);
#208=SURFACE_SIDE_STYLE('',(#207));
#209=SURFACE_STYLE_USAGE(.BOTH.,#208);
#210=PRESENTATION_STYLE_ASSIGNMENT((#209));
#211=OVER_RIDING_STYLED_ITEM('',(#210),#204,#23);
#212=CARTESIAN_POINT('',(-4.955949533622E-2,1.377952755969E-2,
-1.889763779528E-2));
#213=DIRECTION('',(0.E0,0.E0,-1.E0));
#214=DIRECTION('',(0.E0,1.E0,0.E0));
#215=AXIS2_PLACEMENT_3D('',#212,#213,#214);
#216=PLANE('',#215);
#217=ORIENTED_EDGE('',*,*,#158,.F.);
#219=ORIENTED_EDGE('',*,*,#218,.F.);
#220=ORIENTED_EDGE('',*,*,#196,.F.);
#221=ORIENTED_EDGE('',*,*,#132,.T.);
#222=EDGE_LOOP('',(#217,#219,#220,#221));
#223=FACE_OUTER_BOUND('',#222,.F.);
#225=FILL_AREA_STYLE_COLOUR('',#18);
#226=FILL_AREA_STYLE('',(#225));
#227=SURFACE_STYLE_FILL_AREA(#226);
#228=SURFACE_SIDE_STYLE('',(#227));
#229=SURFACE_STYLE_USAGE(.BOTH.,#228);
#230=PRESENTATION_STYLE_ASSIGNMENT((#229));
#231=OVER_RIDING_STYLED_ITEM('',(#230),#224,#23);
#232=CARTESIAN_POINT('',(-4.955949533622E-2,1.574803150233E-3,
1.889763779528E-2));
#233=DIRECTION('',(0.E0,-1.E0,0.E0));
#234=DIRECTION('',(0.E0,0.E0,-1.E0));
#235=AXIS2_PLACEMENT_3D('',#232,#233,#234);
#236=PLANE('',#235);
#237=ORIENTED_EDGE('',*,*,#156,.F.);
#238=ORIENTED_EDGE('',*,*,#179,.F.);
#239=ORIENTED_EDGE('',*,*,#198,.F.);
#240=ORIENTED_EDGE('',*,*,#218,.T.);
#241=EDGE_LOOP('',(#237,#238,#239,#240));
#242=FACE_OUTER_BOUND('',#241,.F.);
#244=FILL_AREA_STYLE_COLOUR('',#18);
#245=FILL_AREA_STYLE('',(#244));
#246=SURFACE_STYLE_FILL_AREA(#245);
#247=SURFACE_SIDE_STYLE('',(#246));
#248=SURFACE_STYLE_USAGE(.BOTH.,#247);
#249=PRESENTATION_STYLE_ASSIGNMENT((#248));
#250=OVER_RIDING_STYLED_ITEM('',(#249),#243,#23);
#253=FILL_AREA_STYLE_COLOUR('',#1);
#254=FILL_AREA_STYLE('',(#253));
#255=SURFACE_STYLE_FILL_AREA(#254);
#256=SURFACE_SIDE_STYLE('',(#255));
#257=SURFACE_STYLE_USAGE(.BOTH.,#256);
#258=PRESENTATION_STYLE_ASSIGNMENT((#257));
#23=STYLED_ITEM('',(#258),#252);
#260=LENGTH_MEASURE_WITH_UNIT(LENGTH_MEASURE(2.54E1),#259);
#261=(CONVERSION_BASED_UNIT('INCH',#260)LENGTH_UNIT()NAMED_UNIT(*));
#263=PLANE_ANGLE_MEASURE_WITH_UNIT(PLANE_ANGLE_MEASURE(1.745329251994E-2),#262);
#264=(CONVERSION_BASED_UNIT('DEGREE',#263)NAMED_UNIT(*)PLANE_ANGLE_UNIT());
#266=UNCERTAINTY_MEASURE_WITH_UNIT(LENGTH_MEASURE(4.432585856932E-6),#261,
'closure',
'Maximum model space distance between geometric entities at asserted connectivities');
#268=CARTESIAN_POINT('',(0.E0,0.E0,0.E0));
#269=DIRECTION('',(0.E0,0.E0,1.E0));
#270=DIRECTION('',(1.E0,0.E0,0.E0));
#273=MECHANICAL_DESIGN_GEOMETRIC_PRESENTATION_REPRESENTATION('',(#31,#38,#45,
#52,#59,#66,#73,#80,#87,#94,#101,#108,#147,#169,#190,#211,#231,#250,#23),#267);
#274=APPLICATION_CONTEXT('automotive design');
#275=APPLICATION_PROTOCOL_DEFINITION('international standard',
'config_control_design',1994,#274);
#276=PRODUCT_DEFINITION_CONTEXT('',#274,'design');
#277=PRODUCT_CONTEXT('',#274,'mechanical');
#278=PRODUCT('BODY2-4121','BODY2-4121','NOT SPECIFIED',(#277));
#279=PRODUCT_DEFINITION_FORMATION_WITH_SPECIFIED_SOURCE('1','LAST_VERSION',#278,
.MADE.);
#287=LENGTH_MEASURE_WITH_UNIT(LENGTH_MEASURE(2.54E1),#286);
#288=(CONVERSION_BASED_UNIT('INCH',#287)LENGTH_UNIT()NAMED_UNIT(*));
#289=DERIVED_UNIT_ELEMENT(#288,2.E0);
#290=AREA_UNIT((#289));
#291=MEASURE_REPRESENTATION_ITEM('surface area measure',AREA_MEASURE(1.8652E0),
#290);
#296=LENGTH_MEASURE_WITH_UNIT(LENGTH_MEASURE(2.54E1),#295);
#297=(CONVERSION_BASED_UNIT('INCH',#296)LENGTH_UNIT()NAMED_UNIT(*));
#298=DERIVED_UNIT_ELEMENT(#297,3.E0);
#299=VOLUME_UNIT((#298));
#300=MEASURE_REPRESENTATION_ITEM('volume measure',VOLUME_MEASURE(1.488E-1),
#299);
#304=CARTESIAN_POINT('centre point',(0.E0,1.950000000160E-1,0.E0));
#309=LENGTH_MEASURE_WITH_UNIT(LENGTH_MEASURE(2.54E1),#308);
#310=(CONVERSION_BASED_UNIT('INCH',#309)LENGTH_UNIT()NAMED_UNIT(*));
#311=DERIVED_UNIT_ELEMENT(#310,2.E0);
#312=AREA_UNIT((#311));
#313=MEASURE_REPRESENTATION_ITEM('surface area measure',AREA_MEASURE(1.8652E0),
#312);
#318=LENGTH_MEASURE_WITH_UNIT(LENGTH_MEASURE(2.54E1),#317);
#319=(CONVERSION_BASED_UNIT('INCH',#318)LENGTH_UNIT()NAMED_UNIT(*));
#320=DERIVED_UNIT_ELEMENT(#319,3.E0);
#321=VOLUME_UNIT((#320));
#322=MEASURE_REPRESENTATION_ITEM('volume measure',VOLUME_MEASURE(1.488E-1),
#321);
#326=CARTESIAN_POINT('centre point',(0.E0,1.950000000160E-1,0.E0));
#1=COLOUR_RGB('',7.921568627451E-1,8.196078431373E-1,9.333333333333E-1);
#2=DRAUGHTING_PRE_DEFINED_COLOUR('green');
#3=COLOUR_RGB('',1.1E-2,1.2E-2,1.E0);
#4=COLOUR_RGB('',1.921568627451E-1,1.921568627451E-1,1.921568627451E-1);
#5=COLOUR_RGB('',2.352941176471E-1,2.352941176471E-1,2.352941176471E-1);
#6=COLOUR_RGB('',3.137254901961E-1,3.137254901961E-1,3.137254901961E-1);
#7=COLOUR_RGB('',4.1E-1,2.61589E-1,1.12848E-1);
#8=COLOUR_RGB('',5.04854E-1,1.5455E-2,1.5455E-2);
#9=COLOUR_RGB('',6.274509803922E-1,6.274509803922E-1,6.274509803922E-1);
#10=COLOUR_RGB('',6.35294E-1,6.86275E-1,7.4902E-1);
#11=COLOUR_RGB('',6.40777E-1,6.40777E-1,6.40777E-1);
#12=COLOUR_RGB('',6.69062E-1,6.69903E-1,6.55217E-1);
#13=COLOUR_RGB('',7.921568627451E-1,8.196078431373E-1,9.333333333333E-1);
#14=COLOUR_RGB('',8.313725490196E-1,0.E0,0.E0);
#15=COLOUR_RGB('',8.666666666667E-1,8.666666666667E-1,8.666666666667E-1);
#16=COLOUR_RGB('',9.21569E-1,7.05882E-1,4.70588E-1);
#17=DRAUGHTING_PRE_DEFINED_COLOUR('red');
#18=COLOUR_RGB('',1.E0,9.803921568627E-1,9.411764705882E-1);
#19=DRAUGHTING_PRE_DEFINED_COLOUR('yellow');
#20=COLOUR_RGB('',1.E0,1.E0,5.3E-1);
#21=COLOUR_RGB('',1.E0,1.E0,9.49E-1);
#22=DRAUGHTING_PRE_DEFINED_COLOUR('white');
#130=EDGE_CURVE('',#111,#112,#27,.T.);
#132=EDGE_CURVE('',#116,#111,#35,.T.);
#134=EDGE_CURVE('',#114,#116,#42,.T.);
#136=EDGE_CURVE('',#114,#112,#56,.T.);
#140=ADVANCED_FACE('',(#139),#129,.T.);
#154=EDGE_CURVE('',#112,#122,#49,.T.);
#156=EDGE_CURVE('',#122,#118,#91,.T.);
#158=EDGE_CURVE('',#118,#111,#70,.T.);
#162=ADVANCED_FACE('',(#161),#152,.F.);
#177=EDGE_CURVE('',#124,#114,#63,.T.);
#179=EDGE_CURVE('',#124,#122,#98,.T.);
#183=ADVANCED_FACE('',(#182),#174,.T.);
#196=EDGE_CURVE('',#116,#120,#84,.T.);
#198=EDGE_CURVE('',#120,#124,#105,.T.);
#204=ADVANCED_FACE('',(#203),#195,.T.);
#218=EDGE_CURVE('',#120,#118,#77,.T.);
#224=ADVANCED_FACE('',(#223),#216,.T.);
#243=ADVANCED_FACE('',(#242),#236,.T.);
#251=CLOSED_SHELL('',(#140,#162,#183,#204,#224,#243));
#252=MANIFOLD_SOLID_BREP('',#251);
#259=(LENGTH_UNIT()NAMED_UNIT(*)SI_UNIT(.MILLI.,.METRE.));
#262=(NAMED_UNIT(*)PLANE_ANGLE_UNIT()SI_UNIT($,.RADIAN.));
#265=(NAMED_UNIT(*)SI_UNIT($,.STERADIAN.)SOLID_ANGLE_UNIT());
#267=(GEOMETRIC_REPRESENTATION_CONTEXT(3)GLOBAL_UNCERTAINTY_ASSIGNED_CONTEXT((
#266))GLOBAL_UNIT_ASSIGNED_CONTEXT((#261,#264,#265))REPRESENTATION_CONTEXT
('ID1','3'));
#271=AXIS2_PLACEMENT_3D('',#268,#269,#270);
#272=ADVANCED_BREP_SHAPE_REPRESENTATION('',(#271,#252),#267);
#280=PRODUCT_DEFINITION('design','',#279,#276);
#281=PRODUCT_DEFINITION_SHAPE('','SHAPE FOR BODY2-4121.',#280);
#282=SHAPE_ASPECT('','solid data associated with BODY2-4121',#281,.F.);
#283=PROPERTY_DEFINITION('',
'shape for solid data with which properties are associated',#282);
#284=SHAPE_REPRESENTATION('',(#252),#267);
#285=SHAPE_DEFINITION_REPRESENTATION(#283,#284);
#286=(LENGTH_UNIT()NAMED_UNIT(*)SI_UNIT(.MILLI.,.METRE.));
#292=PROPERTY_DEFINITION('geometric validation property','area of BODY2-4121',
#282);
#293=REPRESENTATION('surface area',(#291),#267);
#294=PROPERTY_DEFINITION_REPRESENTATION(#292,#293);
#295=(LENGTH_UNIT()NAMED_UNIT(*)SI_UNIT(.MILLI.,.METRE.));
#301=PROPERTY_DEFINITION('geometric validation property','volume of BODY2-4121',
#282);
#302=REPRESENTATION('volume',(#300),#267);
#303=PROPERTY_DEFINITION_REPRESENTATION(#301,#302);
#305=PROPERTY_DEFINITION('geometric validation property',
'centroid of BODY2-4121',#282);
#306=REPRESENTATION('centroid',(#304),#267);
#307=PROPERTY_DEFINITION_REPRESENTATION(#305,#306);
#308=(LENGTH_UNIT()NAMED_UNIT(*)SI_UNIT(.MILLI.,.METRE.));
#314=PROPERTY_DEFINITION('geometric validation property','area of BODY2-4121',
#281);
#315=REPRESENTATION('surface area',(#313),#267);
#316=PROPERTY_DEFINITION_REPRESENTATION(#314,#315);
#317=(LENGTH_UNIT()NAMED_UNIT(*)SI_UNIT(.MILLI.,.METRE.));
#323=PROPERTY_DEFINITION('geometric validation property','volume of BODY2-4121',
#281);
#324=REPRESENTATION('volume',(#322),#267);
#325=PROPERTY_DEFINITION_REPRESENTATION(#323,#324);
#327=PROPERTY_DEFINITION('geometric validation property',
'centroid of BODY2-4121',#281);
#328=REPRESENTATION('centroid',(#326),#267);
#329=PROPERTY_DEFINITION_REPRESENTATION(#327,#328);
#330=SHAPE_DEFINITION_REPRESENTATION(#281,#272);
ENDSEC;
END-ISO-10303-21;
