ISO-10303-21;
HEADER;
FILE_DESCRIPTION((''),'2;1');
FILE_NAME('BODY1-4191','2026-06-15T13:45:29',('Esia'),(''),
'CREO PARAMETRIC BY PTC INC, 2025102','CREO PARAMETRIC BY PTC INC, 2025102','');
FILE_SCHEMA((
'AP242_MANAGED_MODEL_BASED_3D_ENGINEERING_MIM_LF { 1 0 10303 442 1 1 4 }'));
ENDSEC;
DATA;
#24=DIRECTION('',(0.E0,1.E0,-1.052537339693E-14));
#25=VECTOR('',#24,2.900717345202E-2);
#26=CARTESIAN_POINT('',(5.837070366205E-2,-5.729001309705E-2,
7.905511811024E-2));
#27=LINE('',#26,#25);
#28=DRAUGHTING_PRE_DEFINED_CURVE_FONT('continuous');
#29=CURVE_STYLE('',#28,POSITIVE_LENGTH_MEASURE(2.E-2),#1);
#30=PRESENTATION_STYLE_ASSIGNMENT((#29));
#31=STYLED_ITEM('',(#30),#27);
#32=DIRECTION('',(1.E0,-5.095237576241E-14,3.157612019079E-14));
#33=VECTOR('',#32,2.900717345201E-2);
#34=CARTESIAN_POINT('',(2.936353021004E-2,-5.729001309705E-2,
7.905511811024E-2));
#35=LINE('',#34,#33);
#36=CURVE_STYLE('',#28,POSITIVE_LENGTH_MEASURE(2.E-2),#1);
#37=PRESENTATION_STYLE_ASSIGNMENT((#36));
#38=STYLED_ITEM('',(#37),#35);
#39=DIRECTION('',(-7.071067811865E-1,-7.071067811866E-1,-1.454682749318E-14));
#40=VECTOR('',#39,4.102233810195E-2);
#41=CARTESIAN_POINT('',(5.837070366205E-2,-2.828283964503E-2,
7.905511811024E-2));
#42=LINE('',#41,#40);
#43=CURVE_STYLE('',#28,POSITIVE_LENGTH_MEASURE(2.E-2),#1);
#44=PRESENTATION_STYLE_ASSIGNMENT((#43));
#45=STYLED_ITEM('',(#44),#42);
#46=DIRECTION('',(-3.263117593188E-1,-6.519815859974E-2,9.430110475734E-1));
#47=VECTOR('',#46,3.064400769178E-2);
#48=CARTESIAN_POINT('',(6.700787401575E-2,5.901574803150E-2,5.409448818898E-2));
#49=LINE('',#48,#47);
#50=CURVE_STYLE('',#28,POSITIVE_LENGTH_MEASURE(2.E-2),#1);
#51=PRESENTATION_STYLE_ASSIGNMENT((#50));
#52=STYLED_ITEM('',(#51),#49);
#53=DIRECTION('',(-5.773030115623E-14,1.E0,0.E0));
#54=VECTOR('',#53,1.180314960630E-1);
#55=CARTESIAN_POINT('',(6.700787401575E-2,-5.901574803149E-2,
5.409448818898E-2));
#56=LINE('',#55,#54);
#57=CURVE_STYLE('',#28,POSITIVE_LENGTH_MEASURE(2.E-2),#1);
#58=PRESENTATION_STYLE_ASSIGNMENT((#57));
#59=STYLED_ITEM('',(#58),#56);
#60=DIRECTION('',(-3.108113673635E-1,-3.108113673636E-1,8.982163368784E-1));
#61=VECTOR('',#60,4.383139910033E-3);
#62=CARTESIAN_POINT('',(5.837070366205E-2,-2.828283964503E-2,
7.905511811024E-2));
#63=LINE('',#62,#61);
#64=CURVE_STYLE('',#28,POSITIVE_LENGTH_MEASURE(2.E-2),#1);
#65=PRESENTATION_STYLE_ASSIGNMENT((#64));
#66=STYLED_ITEM('',(#65),#63);
#67=DIRECTION('',(-6.881013951438E-2,-6.881013951439E-2,-9.952539019768E-1));
#68=VECTOR('',#67,3.955782405068E-3);
#69=CARTESIAN_POINT('',(2.963572814922E-2,-5.701781515787E-2,
8.299212598425E-2));
#70=LINE('',#69,#68);
#71=CURVE_STYLE('',#28,POSITIVE_LENGTH_MEASURE(2.E-2),#1);
#72=PRESENTATION_STYLE_ASSIGNMENT((#71));
#73=STYLED_ITEM('',(#72),#70);
#74=DIRECTION('',(-3.263117593188E-1,6.519815859997E-2,9.430110475734E-1));
#75=VECTOR('',#74,2.646907476375E-2);
#76=CARTESIAN_POINT('',(6.700787401575E-2,-5.901574803149E-2,
5.409448818898E-2));
#77=LINE('',#76,#75);
#78=CURVE_STYLE('',#28,POSITIVE_LENGTH_MEASURE(2.E-2),#1);
#79=PRESENTATION_STYLE_ASSIGNMENT((#78));
#80=STYLED_ITEM('',(#79),#77);
#81=DIRECTION('',(1.E0,4.804878260510E-14,0.E0));
#82=VECTOR('',#81,1.340157480315E-1);
#83=CARTESIAN_POINT('',(-6.700787401575E-2,-5.901574803150E-2,
5.409448818898E-2));
#84=LINE('',#83,#82);
#85=CURVE_STYLE('',#28,POSITIVE_LENGTH_MEASURE(2.E-2),#1);
#86=PRESENTATION_STYLE_ASSIGNMENT((#85));
#87=STYLED_ITEM('',(#86),#84);
#88=DIRECTION('',(-3.263117593188E-1,-6.519815859974E-2,-9.430110475734E-1));
#89=VECTOR('',#88,3.064400769178E-2);
#90=CARTESIAN_POINT('',(-5.700837395326E-2,-5.701781515788E-2,
8.299212598425E-2));
#91=LINE('',#90,#89);
#92=CURVE_STYLE('',#28,POSITIVE_LENGTH_MEASURE(2.E-2),#1);
#93=PRESENTATION_STYLE_ASSIGNMENT((#92));
#94=STYLED_ITEM('',(#93),#91);
#95=DIRECTION('',(1.E0,1.087411016239E-14,0.E0));
#96=VECTOR('',#95,1.340033987204E-1);
#97=CARTESIAN_POINT('',(-6.700169936022E-2,-5.901082575625E-2,
4.740227334258E-2));
#98=LINE('',#97,#96);
#99=CURVE_STYLE('',#28,POSITIVE_LENGTH_MEASURE(2.E-2),#1);
#100=PRESENTATION_STYLE_ASSIGNMENT((#99));
#101=STYLED_ITEM('',(#100),#98);
#102=DIRECTION('',(9.226618352390E-4,7.355220860138E-4,-9.999993038510E-1));
#103=VECTOR('',#102,6.692219505183E-3);
#104=CARTESIAN_POINT('',(-6.700787401575E-2,-5.901574803150E-2,
5.409448818898E-2));
#105=LINE('',#104,#103);
#106=CURVE_STYLE('',#28,POSITIVE_LENGTH_MEASURE(2.E-2),#1);
#107=PRESENTATION_STYLE_ASSIGNMENT((#106));
#108=STYLED_ITEM('',(#107),#105);
#109=DIRECTION('',(9.226618361722E-4,-7.355220852683E-4,9.999993038510E-1));
#110=VECTOR('',#109,6.692219505183E-3);
#111=CARTESIAN_POINT('',(6.700169936022E-2,-5.901082575625E-2,
4.740227334258E-2));
#112=LINE('',#111,#110);
#113=CURVE_STYLE('',#28,POSITIVE_LENGTH_MEASURE(2.E-2),#1);
#114=PRESENTATION_STYLE_ASSIGNMENT((#113));
#115=STYLED_ITEM('',(#114),#112);
#116=DIRECTION('',(1.E0,1.566648045860E-14,0.E0));
#117=VECTOR('',#116,1.240157480315E-1);
#118=CARTESIAN_POINT('',(-6.200787401575E-2,-5.700787401575E-2,
1.850393700787E-2));
#119=LINE('',#118,#117);
#120=CURVE_STYLE('',#28,POSITIVE_LENGTH_MEASURE(2.E-2),#1);
#121=PRESENTATION_STYLE_ASSIGNMENT((#120));
#122=STYLED_ITEM('',(#121),#119);
#123=DIRECTION('',(1.698871012144E-1,6.813928032986E-2,-9.831049848908E-1));
#124=VECTOR('',#123,2.939496470757E-2);
#125=CARTESIAN_POINT('',(-6.700169936022E-2,-5.901082575625E-2,
4.740227334258E-2));
#126=LINE('',#125,#124);
#127=CURVE_STYLE('',#28,POSITIVE_LENGTH_MEASURE(2.E-2),#1);
#128=PRESENTATION_STYLE_ASSIGNMENT((#127));
#129=STYLED_ITEM('',(#128),#126);
#130=DIRECTION('',(1.698871012143E-1,-6.813928032987E-2,9.831049848908E-1));
#131=VECTOR('',#130,2.939496470757E-2);
#132=CARTESIAN_POINT('',(6.200787401575E-2,-5.700787401575E-2,
1.850393700787E-2));
#133=LINE('',#132,#131);
#134=CURVE_STYLE('',#28,POSITIVE_LENGTH_MEASURE(2.E-2),#1);
#135=PRESENTATION_STYLE_ASSIGNMENT((#134));
#136=STYLED_ITEM('',(#135),#133);
#137=DIRECTION('',(-1.E0,-1.566648045860E-14,0.E0));
#138=VECTOR('',#137,1.240157480315E-1);
#139=CARTESIAN_POINT('',(6.200787401575E-2,5.700787401575E-2,
1.850393700787E-2));
#140=LINE('',#139,#138);
#141=CURVE_STYLE('',#28,POSITIVE_LENGTH_MEASURE(2.E-2),#1);
#142=PRESENTATION_STYLE_ASSIGNMENT((#141));
#143=STYLED_ITEM('',(#142),#140);
#144=DIRECTION('',(-1.698871012143E-1,6.813928032987E-2,9.831049848908E-1));
#145=VECTOR('',#144,2.939496470757E-2);
#146=CARTESIAN_POINT('',(-6.200787401575E-2,5.700787401575E-2,
1.850393700787E-2));
#147=LINE('',#146,#145);
#148=CURVE_STYLE('',#28,POSITIVE_LENGTH_MEASURE(2.E-2),#1);
#149=PRESENTATION_STYLE_ASSIGNMENT((#148));
#150=STYLED_ITEM('',(#149),#147);
#151=DIRECTION('',(0.E0,1.E0,0.E0));
#152=VECTOR('',#151,1.140157480315E-1);
#153=CARTESIAN_POINT('',(6.200787401575E-2,-5.700787401575E-2,
1.850393700787E-2));
#154=LINE('',#153,#152);
#155=CURVE_STYLE('',#28,POSITIVE_LENGTH_MEASURE(2.E-2),#1);
#156=PRESENTATION_STYLE_ASSIGNMENT((#155));
#157=STYLED_ITEM('',(#156),#154);
#158=DIRECTION('',(1.698871012144E-1,6.813928032986E-2,9.831049848908E-1));
#159=VECTOR('',#158,2.939496470757E-2);
#160=CARTESIAN_POINT('',(6.200787401575E-2,5.700787401575E-2,
1.850393700787E-2));
#161=LINE('',#160,#159);
#162=CURVE_STYLE('',#28,POSITIVE_LENGTH_MEASURE(2.E-2),#1);
#163=PRESENTATION_STYLE_ASSIGNMENT((#162));
#164=STYLED_ITEM('',(#163),#161);
#165=DIRECTION('',(0.E0,1.E0,0.E0));
#166=VECTOR('',#165,1.180216515125E-1);
#167=CARTESIAN_POINT('',(6.700169936022E-2,-5.901082575625E-2,
4.740227334258E-2));
#168=LINE('',#167,#166);
#169=CURVE_STYLE('',#28,POSITIVE_LENGTH_MEASURE(2.E-2),#1);
#170=PRESENTATION_STYLE_ASSIGNMENT((#169));
#171=STYLED_ITEM('',(#170),#168);
#172=DIRECTION('',(9.226618352390E-4,7.355220860117E-4,9.999993038510E-1));
#173=VECTOR('',#172,6.692219505183E-3);
#174=CARTESIAN_POINT('',(6.700169936022E-2,5.901082575625E-2,
4.740227334258E-2));
#175=LINE('',#174,#173);
#176=CURVE_STYLE('',#28,POSITIVE_LENGTH_MEASURE(2.E-2),#1);
#177=PRESENTATION_STYLE_ASSIGNMENT((#176));
#178=STYLED_ITEM('',(#177),#175);
#179=DIRECTION('',(-1.E0,-1.087411016239E-14,0.E0));
#180=VECTOR('',#179,1.340033987204E-1);
#181=CARTESIAN_POINT('',(6.700169936022E-2,5.901082575625E-2,
4.740227334258E-2));
#182=LINE('',#181,#180);
#183=CURVE_STYLE('',#28,POSITIVE_LENGTH_MEASURE(2.E-2),#1);
#184=PRESENTATION_STYLE_ASSIGNMENT((#183));
#185=STYLED_ITEM('',(#184),#182);
#186=DIRECTION('',(-9.226618361722E-4,7.355220852683E-4,9.999993038510E-1));
#187=VECTOR('',#186,6.692219505183E-3);
#188=CARTESIAN_POINT('',(-6.700169936022E-2,5.901082575625E-2,
4.740227334258E-2));
#189=LINE('',#188,#187);
#190=CURVE_STYLE('',#28,POSITIVE_LENGTH_MEASURE(2.E-2),#1);
#191=PRESENTATION_STYLE_ASSIGNMENT((#190));
#192=STYLED_ITEM('',(#191),#189);
#193=DIRECTION('',(-1.E0,-4.804878260510E-14,0.E0));
#194=VECTOR('',#193,1.340157480315E-1);
#195=CARTESIAN_POINT('',(6.700787401575E-2,5.901574803150E-2,
5.409448818898E-2));
#196=LINE('',#195,#194);
#197=CURVE_STYLE('',#28,POSITIVE_LENGTH_MEASURE(2.E-2),#1);
#198=PRESENTATION_STYLE_ASSIGNMENT((#197));
#199=STYLED_ITEM('',(#198),#196);
#200=DIRECTION('',(3.263117593187E-1,-6.519815859981E-2,9.430110475734E-1));
#201=VECTOR('',#200,3.064400769178E-2);
#202=CARTESIAN_POINT('',(-6.700787401575E-2,5.901574803149E-2,
5.409448818898E-2));
#203=LINE('',#202,#201);
#204=CURVE_STYLE('',#28,POSITIVE_LENGTH_MEASURE(2.E-2),#1);
#205=PRESENTATION_STYLE_ASSIGNMENT((#204));
#206=STYLED_ITEM('',(#205),#203);
#207=DIRECTION('',(7.071067811865E-1,7.071067811866E-1,1.075498284348E-14));
#208=VECTOR('',#207,3.871076693412E-2);
#209=CARTESIAN_POINT('',(2.963572814922E-2,-5.701781515787E-2,
8.299212598425E-2));
#210=LINE('',#209,#208);
#211=CURVE_STYLE('',#28,POSITIVE_LENGTH_MEASURE(2.E-2),#1);
#212=PRESENTATION_STYLE_ASSIGNMENT((#211));
#213=STYLED_ITEM('',(#212),#210);
#214=DIRECTION('',(1.E0,1.159630964953E-13,0.E0));
#215=VECTOR('',#214,8.664410210249E-2);
#216=CARTESIAN_POINT('',(-5.700837395326E-2,-5.701781515788E-2,
8.299212598425E-2));
#217=LINE('',#216,#215);
#218=CURVE_STYLE('',#28,POSITIVE_LENGTH_MEASURE(2.E-2),#1);
#219=PRESENTATION_STYLE_ASSIGNMENT((#218));
#220=STYLED_ITEM('',(#219),#217);
#221=DIRECTION('',(7.971149884426E-14,-1.E0,0.E0));
#222=VECTOR('',#221,1.140356303157E-1);
#223=CARTESIAN_POINT('',(-5.700837395327E-2,5.701781515787E-2,
8.299212598425E-2));
#224=LINE('',#223,#222);
#225=CURVE_STYLE('',#28,POSITIVE_LENGTH_MEASURE(2.E-2),#1);
#226=PRESENTATION_STYLE_ASSIGNMENT((#225));
#227=STYLED_ITEM('',(#226),#224);
#228=DIRECTION('',(-1.E0,-7.528202581405E-14,0.E0));
#229=VECTOR('',#228,1.140167479065E-1);
#230=CARTESIAN_POINT('',(5.700837395326E-2,5.701781515788E-2,
8.299212598425E-2));
#231=LINE('',#230,#229);
#232=CURVE_STYLE('',#28,POSITIVE_LENGTH_MEASURE(2.E-2),#1);
#233=PRESENTATION_STYLE_ASSIGNMENT((#232));
#234=STYLED_ITEM('',(#233),#231);
#235=DIRECTION('',(-1.080111414246E-13,1.E0,0.E0));
#236=VECTOR('',#235,8.666298451169E-2);
#237=CARTESIAN_POINT('',(5.700837395327E-2,-2.964516935381E-2,
8.299212598425E-2));
#238=LINE('',#237,#236);
#239=CURVE_STYLE('',#28,POSITIVE_LENGTH_MEASURE(2.E-2),#1);
#240=PRESENTATION_STYLE_ASSIGNMENT((#239));
#241=STYLED_ITEM('',(#240),#238);
#242=CARTESIAN_POINT('',(0.E0,0.E0,8.299212598425E-2));
#243=DIRECTION('',(0.E0,0.E0,-1.E0));
#244=DIRECTION('',(1.E0,0.E0,0.E0));
#245=AXIS2_PLACEMENT_3D('',#242,#243,#244);
#247=CURVE_STYLE('',#28,POSITIVE_LENGTH_MEASURE(2.E-2),#1);
#248=PRESENTATION_STYLE_ASSIGNMENT((#247));
#249=STYLED_ITEM('',(#248),#246);
#250=CARTESIAN_POINT('',(0.E0,0.E0,8.299212598425E-2));
#251=DIRECTION('',(0.E0,0.E0,-1.E0));
#252=DIRECTION('',(-1.E0,0.E0,0.E0));
#253=AXIS2_PLACEMENT_3D('',#250,#251,#252);
#255=CURVE_STYLE('',#28,POSITIVE_LENGTH_MEASURE(2.E-2),#1);
#256=PRESENTATION_STYLE_ASSIGNMENT((#255));
#257=STYLED_ITEM('',(#256),#254);
#258=DIRECTION('',(5.784787814433E-14,-1.E0,0.E0));
#259=VECTOR('',#258,1.180314960630E-1);
#260=CARTESIAN_POINT('',(-6.700787401575E-2,5.901574803149E-2,
5.409448818898E-2));
#261=LINE('',#260,#259);
#262=CURVE_STYLE('',#28,POSITIVE_LENGTH_MEASURE(2.E-2),#1);
#263=PRESENTATION_STYLE_ASSIGNMENT((#262));
#264=STYLED_ITEM('',(#263),#261);
#265=DIRECTION('',(0.E0,-1.E0,0.E0));
#266=VECTOR('',#265,1.180216515125E-1);
#267=CARTESIAN_POINT('',(-6.700169936022E-2,5.901082575625E-2,
4.740227334258E-2));
#268=LINE('',#267,#266);
#269=CURVE_STYLE('',#28,POSITIVE_LENGTH_MEASURE(2.E-2),#1);
#270=PRESENTATION_STYLE_ASSIGNMENT((#269));
#271=STYLED_ITEM('',(#270),#268);
#272=DIRECTION('',(0.E0,-1.E0,0.E0));
#273=VECTOR('',#272,1.140157480315E-1);
#274=CARTESIAN_POINT('',(-6.200787401575E-2,5.700787401575E-2,
1.850393700787E-2));
#275=LINE('',#274,#273);
#276=CURVE_STYLE('',#28,POSITIVE_LENGTH_MEASURE(2.E-2),#1);
#277=PRESENTATION_STYLE_ASSIGNMENT((#276));
#278=STYLED_ITEM('',(#277),#275);
#279=DIRECTION('',(0.E0,0.E0,-1.E0));
#280=VECTOR('',#279,3.937007874016E-3);
#281=CARTESIAN_POINT('',(-3.937007874016E-2,0.E0,8.299212598425E-2));
#282=LINE('',#281,#280);
#283=CURVE_STYLE('',#28,POSITIVE_LENGTH_MEASURE(2.E-2),#1);
#284=PRESENTATION_STYLE_ASSIGNMENT((#283));
#285=STYLED_ITEM('',(#284),#282);
#286=DIRECTION('',(0.E0,0.E0,1.E0));
#287=VECTOR('',#286,3.937007874016E-3);
#288=CARTESIAN_POINT('',(3.937007874016E-2,0.E0,7.905511811024E-2));
#289=LINE('',#288,#287);
#290=CURVE_STYLE('',#28,POSITIVE_LENGTH_MEASURE(2.E-2),#1);
#291=PRESENTATION_STYLE_ASSIGNMENT((#290));
#292=STYLED_ITEM('',(#291),#289);
#293=CARTESIAN_POINT('',(0.E0,0.E0,7.905511811024E-2));
#294=DIRECTION('',(0.E0,0.E0,1.E0));
#295=DIRECTION('',(-1.E0,0.E0,0.E0));
#296=AXIS2_PLACEMENT_3D('',#293,#294,#295);
#298=CURVE_STYLE('',#28,POSITIVE_LENGTH_MEASURE(2.E-2),#1);
#299=PRESENTATION_STYLE_ASSIGNMENT((#298));
#300=STYLED_ITEM('',(#299),#297);
#301=CARTESIAN_POINT('',(0.E0,0.E0,7.905511811024E-2));
#302=DIRECTION('',(0.E0,0.E0,1.E0));
#303=DIRECTION('',(1.E0,0.E0,0.E0));
#304=AXIS2_PLACEMENT_3D('',#301,#302,#303);
#306=CURVE_STYLE('',#28,POSITIVE_LENGTH_MEASURE(2.E-2),#1);
#307=PRESENTATION_STYLE_ASSIGNMENT((#306));
#308=STYLED_ITEM('',(#307),#305);
#309=CARTESIAN_POINT('',(5.837070366205E-2,-5.729001309705E-2,
7.905511811024E-2));
#310=CARTESIAN_POINT('',(5.837070366205E-2,-2.828283964503E-2,
7.905511811024E-2));
#311=VERTEX_POINT('',#309);
#312=VERTEX_POINT('',#310);
#313=CARTESIAN_POINT('',(2.936353021004E-2,-5.729001309705E-2,
7.905511811024E-2));
#314=VERTEX_POINT('',#313);
#315=CARTESIAN_POINT('',(5.700837395327E-2,-2.964516935381E-2,
8.299212598425E-2));
#316=VERTEX_POINT('',#315);
#317=CARTESIAN_POINT('',(2.963572814922E-2,-5.701781515787E-2,
8.299212598425E-2));
#318=VERTEX_POINT('',#317);
#319=CARTESIAN_POINT('',(-5.700837395326E-2,-5.701781515788E-2,
8.299212598425E-2));
#320=VERTEX_POINT('',#319);
#321=CARTESIAN_POINT('',(-6.700787401575E-2,-5.901574803150E-2,
5.409448818898E-2));
#322=VERTEX_POINT('',#321);
#323=CARTESIAN_POINT('',(6.700787401575E-2,-5.901574803149E-2,
5.409448818898E-2));
#324=VERTEX_POINT('',#323);
#325=CARTESIAN_POINT('',(5.700837395326E-2,5.701781515788E-2,
8.299212598425E-2));
#326=VERTEX_POINT('',#325);
#327=CARTESIAN_POINT('',(-5.700837395327E-2,5.701781515787E-2,
8.299212598425E-2));
#328=VERTEX_POINT('',#327);
#329=CARTESIAN_POINT('',(6.700787401575E-2,5.901574803150E-2,
5.409448818898E-2));
#330=VERTEX_POINT('',#329);
#331=CARTESIAN_POINT('',(-6.700787401575E-2,5.901574803149E-2,
5.409448818898E-2));
#332=VERTEX_POINT('',#331);
#333=CARTESIAN_POINT('',(-6.700169936022E-2,-5.901082575625E-2,
4.740227334258E-2));
#334=CARTESIAN_POINT('',(6.700169936022E-2,-5.901082575625E-2,
4.740227334258E-2));
#335=VERTEX_POINT('',#333);
#336=VERTEX_POINT('',#334);
#337=CARTESIAN_POINT('',(6.700169936022E-2,5.901082575625E-2,
4.740227334258E-2));
#338=VERTEX_POINT('',#337);
#339=CARTESIAN_POINT('',(-6.700169936022E-2,5.901082575625E-2,
4.740227334258E-2));
#340=VERTEX_POINT('',#339);
#341=CARTESIAN_POINT('',(-6.200787401575E-2,-5.700787401575E-2,
1.850393700787E-2));
#342=CARTESIAN_POINT('',(6.200787401575E-2,-5.700787401575E-2,
1.850393700787E-2));
#343=VERTEX_POINT('',#341);
#344=VERTEX_POINT('',#342);
#345=CARTESIAN_POINT('',(6.200787401575E-2,5.700787401575E-2,
1.850393700787E-2));
#346=VERTEX_POINT('',#345);
#347=CARTESIAN_POINT('',(-6.200787401575E-2,5.700787401575E-2,
1.850393700787E-2));
#348=VERTEX_POINT('',#347);
#349=CARTESIAN_POINT('',(-3.937007874016E-2,0.E0,8.299212598425E-2));
#350=CARTESIAN_POINT('',(-3.937007874016E-2,0.E0,7.905511811024E-2));
#351=VERTEX_POINT('',#349);
#352=VERTEX_POINT('',#350);
#353=CARTESIAN_POINT('',(3.937007874016E-2,0.E0,8.299212598425E-2));
#354=VERTEX_POINT('',#353);
#355=CARTESIAN_POINT('',(3.937007874016E-2,0.E0,7.905511811024E-2));
#356=VERTEX_POINT('',#355);
#357=CARTESIAN_POINT('',(0.E0,0.E0,7.905511811024E-2));
#358=DIRECTION('',(0.E0,0.E0,-1.E0));
#359=DIRECTION('',(-1.E0,0.E0,0.E0));
#360=AXIS2_PLACEMENT_3D('',#357,#358,#359);
#361=PLANE('',#360);
#363=ORIENTED_EDGE('',*,*,#362,.F.);
#365=ORIENTED_EDGE('',*,*,#364,.F.);
#367=ORIENTED_EDGE('',*,*,#366,.F.);
#368=EDGE_LOOP('',(#363,#365,#367));
#369=FACE_OUTER_BOUND('',#368,.F.);
#371=CARTESIAN_POINT('',(6.700787401575E-2,-5.901574803150E-2,
5.409448818898E-2));
#372=DIRECTION('',(9.450217357500E-1,0.E0,3.270075212590E-1));
#373=DIRECTION('',(-3.270075212590E-1,0.E0,9.450217357500E-1));
#374=AXIS2_PLACEMENT_3D('',#371,#372,#373);
#375=PLANE('',#374);
#376=ORIENTED_EDGE('',*,*,#362,.T.);
#378=ORIENTED_EDGE('',*,*,#377,.T.);
#380=ORIENTED_EDGE('',*,*,#379,.T.);
#382=ORIENTED_EDGE('',*,*,#381,.F.);
#384=ORIENTED_EDGE('',*,*,#383,.F.);
#386=ORIENTED_EDGE('',*,*,#385,.T.);
#387=EDGE_LOOP('',(#376,#378,#380,#382,#384,#386));
#388=FACE_OUTER_BOUND('',#387,.F.);
#390=FILL_AREA_STYLE_COLOUR('',#17);
#391=FILL_AREA_STYLE('',(#390));
#392=SURFACE_STYLE_FILL_AREA(#391);
#393=SURFACE_SIDE_STYLE('',(#392));
#394=SURFACE_STYLE_USAGE(.BOTH.,#393);
#395=PRESENTATION_STYLE_ASSIGNMENT((#394));
#396=OVER_RIDING_STYLED_ITEM('',(#395),#389,#23);
#397=CARTESIAN_POINT('',(2.763779527559E-2,-5.901574803150E-2,
8.299212598425E-2));
#398=DIRECTION('',(-7.071067811865E-1,7.071067811865E-1,0.E0));
#399=DIRECTION('',(7.071067811865E-1,7.071067811865E-1,0.E0));
#400=AXIS2_PLACEMENT_3D('',#397,#398,#399);
#401=PLANE('',#400);
#402=ORIENTED_EDGE('',*,*,#377,.F.);
#403=ORIENTED_EDGE('',*,*,#366,.T.);
#405=ORIENTED_EDGE('',*,*,#404,.F.);
#407=ORIENTED_EDGE('',*,*,#406,.T.);
#408=EDGE_LOOP('',(#402,#403,#405,#407));
#409=FACE_OUTER_BOUND('',#408,.F.);
#411=CARTESIAN_POINT('',(-6.700787401575E-2,-5.901574803150E-2,
5.409448818898E-2));
#412=DIRECTION('',(0.E0,-9.976184838809E-1,6.897362263304E-2));
#413=DIRECTION('',(0.E0,6.897362263304E-2,9.976184838809E-1));
#414=AXIS2_PLACEMENT_3D('',#411,#412,#413);
#415=PLANE('',#414);
#416=ORIENTED_EDGE('',*,*,#364,.T.);
#417=ORIENTED_EDGE('',*,*,#385,.F.);
#419=ORIENTED_EDGE('',*,*,#418,.F.);
#421=ORIENTED_EDGE('',*,*,#420,.F.);
#423=ORIENTED_EDGE('',*,*,#422,.T.);
#424=ORIENTED_EDGE('',*,*,#404,.T.);
#425=EDGE_LOOP('',(#416,#417,#419,#421,#423,#424));
#426=FACE_OUTER_BOUND('',#425,.F.);
#428=FILL_AREA_STYLE_COLOUR('',#17);
#429=FILL_AREA_STYLE('',(#428));
#430=SURFACE_STYLE_FILL_AREA(#429);
#431=SURFACE_SIDE_STYLE('',(#430));
#432=SURFACE_STYLE_USAGE(.BOTH.,#431);
#433=PRESENTATION_STYLE_ASSIGNMENT((#432));
#434=OVER_RIDING_STYLED_ITEM('',(#433),#427,#23);
#435=CARTESIAN_POINT('',(-6.700787401575E-2,-5.901574803150E-2,
4.740157480315E-2));
#436=DIRECTION('',(0.E0,-1.E0,0.E0));
#437=DIRECTION('',(0.E0,0.E0,1.E0));
#438=AXIS2_PLACEMENT_3D('',#435,#436,#437);
#439=PLANE('',#438);
#441=ORIENTED_EDGE('',*,*,#440,.F.);
#443=ORIENTED_EDGE('',*,*,#442,.F.);
#444=ORIENTED_EDGE('',*,*,#418,.T.);
#446=ORIENTED_EDGE('',*,*,#445,.F.);
#447=EDGE_LOOP('',(#441,#443,#444,#446));
#448=FACE_OUTER_BOUND('',#447,.F.);
#450=FILL_AREA_STYLE_COLOUR('',#17);
#451=FILL_AREA_STYLE('',(#450));
#452=SURFACE_STYLE_FILL_AREA(#451);
#453=SURFACE_SIDE_STYLE('',(#452));
#454=SURFACE_STYLE_USAGE(.BOTH.,#453);
#455=PRESENTATION_STYLE_ASSIGNMENT((#454));
#456=OVER_RIDING_STYLED_ITEM('',(#455),#449,#23);
#457=CARTESIAN_POINT('',(-6.200787401575E-2,-5.700787401575E-2,
1.850393700787E-2));
#458=DIRECTION('',(0.E0,-9.976184838809E-1,-6.897362263304E-2));
#459=DIRECTION('',(0.E0,-6.897362263304E-2,9.976184838809E-1));
#460=AXIS2_PLACEMENT_3D('',#457,#458,#459);
#461=PLANE('',#460);
#463=ORIENTED_EDGE('',*,*,#462,.F.);
#465=ORIENTED_EDGE('',*,*,#464,.F.);
#466=ORIENTED_EDGE('',*,*,#440,.T.);
#468=ORIENTED_EDGE('',*,*,#467,.F.);
#469=EDGE_LOOP('',(#463,#465,#466,#468));
#470=FACE_OUTER_BOUND('',#469,.F.);
#472=FILL_AREA_STYLE_COLOUR('',#17);
#473=FILL_AREA_STYLE('',(#472));
#474=SURFACE_STYLE_FILL_AREA(#473);
#475=SURFACE_SIDE_STYLE('',(#474));
#476=SURFACE_STYLE_USAGE(.BOTH.,#475);
#477=PRESENTATION_STYLE_ASSIGNMENT((#476));
#478=OVER_RIDING_STYLED_ITEM('',(#477),#471,#23);
#479=CARTESIAN_POINT('',(-6.200787401575E-2,5.700787401575E-2,
1.850393700787E-2));
#480=DIRECTION('',(0.E0,0.E0,-1.E0));
#481=DIRECTION('',(0.E0,1.E0,0.E0));
#482=AXIS2_PLACEMENT_3D('',#479,#480,#481);
#483=PLANE('',#482);
#485=ORIENTED_EDGE('',*,*,#484,.T.);
#487=ORIENTED_EDGE('',*,*,#486,.T.);
#488=ORIENTED_EDGE('',*,*,#462,.T.);
#490=ORIENTED_EDGE('',*,*,#489,.T.);
#491=EDGE_LOOP('',(#485,#487,#488,#490));
#492=FACE_OUTER_BOUND('',#491,.F.);
#494=FILL_AREA_STYLE_COLOUR('',#17);
#495=FILL_AREA_STYLE('',(#494));
#496=SURFACE_STYLE_FILL_AREA(#495);
#497=SURFACE_SIDE_STYLE('',(#496));
#498=SURFACE_STYLE_USAGE(.BOTH.,#497);
#499=PRESENTATION_STYLE_ASSIGNMENT((#498));
#500=OVER_RIDING_STYLED_ITEM('',(#499),#493,#23);
#501=CARTESIAN_POINT('',(6.200787401575E-2,5.700787401575E-2,
1.850393700787E-2));
#502=DIRECTION('',(0.E0,9.976184838809E-1,-6.897362263304E-2));
#503=DIRECTION('',(0.E0,6.897362263304E-2,9.976184838809E-1));
#504=AXIS2_PLACEMENT_3D('',#501,#502,#503);
#505=PLANE('',#504);
#506=ORIENTED_EDGE('',*,*,#484,.F.);
#508=ORIENTED_EDGE('',*,*,#507,.T.);
#510=ORIENTED_EDGE('',*,*,#509,.T.);
#512=ORIENTED_EDGE('',*,*,#511,.F.);
#513=EDGE_LOOP('',(#506,#508,#510,#512));
#514=FACE_OUTER_BOUND('',#513,.F.);
#516=FILL_AREA_STYLE_COLOUR('',#17);
#517=FILL_AREA_STYLE('',(#516));
#518=SURFACE_STYLE_FILL_AREA(#517);
#519=SURFACE_SIDE_STYLE('',(#518));
#520=SURFACE_STYLE_USAGE(.BOTH.,#519);
#521=PRESENTATION_STYLE_ASSIGNMENT((#520));
#522=OVER_RIDING_STYLED_ITEM('',(#521),#515,#23);
#523=CARTESIAN_POINT('',(6.200787401575E-2,-5.700787401575E-2,
1.850393700787E-2));
#524=DIRECTION('',(9.854312205091E-1,0.E0,-1.700744238440E-1));
#525=DIRECTION('',(1.700744238440E-1,0.E0,9.854312205091E-1));
#526=AXIS2_PLACEMENT_3D('',#523,#524,#525);
#527=PLANE('',#526);
#528=ORIENTED_EDGE('',*,*,#489,.F.);
#529=ORIENTED_EDGE('',*,*,#467,.T.);
#531=ORIENTED_EDGE('',*,*,#530,.T.);
#532=ORIENTED_EDGE('',*,*,#507,.F.);
#533=EDGE_LOOP('',(#528,#529,#531,#532));
#534=FACE_OUTER_BOUND('',#533,.F.);
#536=FILL_AREA_STYLE_COLOUR('',#17);
#537=FILL_AREA_STYLE('',(#536));
#538=SURFACE_STYLE_FILL_AREA(#537);
#539=SURFACE_SIDE_STYLE('',(#538));
#540=SURFACE_STYLE_USAGE(.BOTH.,#539);
#541=PRESENTATION_STYLE_ASSIGNMENT((#540));
#542=OVER_RIDING_STYLED_ITEM('',(#541),#535,#23);
#543=CARTESIAN_POINT('',(6.700787401575E-2,-5.901574803150E-2,
4.740157480315E-2));
#544=DIRECTION('',(1.E0,0.E0,0.E0));
#545=DIRECTION('',(0.E0,0.E0,1.E0));
#546=AXIS2_PLACEMENT_3D('',#543,#544,#545);
#547=PLANE('',#546);
#548=ORIENTED_EDGE('',*,*,#530,.F.);
#549=ORIENTED_EDGE('',*,*,#445,.T.);
#550=ORIENTED_EDGE('',*,*,#383,.T.);
#552=ORIENTED_EDGE('',*,*,#551,.F.);
#553=EDGE_LOOP('',(#548,#549,#550,#552));
#554=FACE_OUTER_BOUND('',#553,.F.);
#556=FILL_AREA_STYLE_COLOUR('',#17);
#557=FILL_AREA_STYLE('',(#556));
#558=SURFACE_STYLE_FILL_AREA(#557);
#559=SURFACE_SIDE_STYLE('',(#558));
#560=SURFACE_STYLE_USAGE(.BOTH.,#559);
#561=PRESENTATION_STYLE_ASSIGNMENT((#560));
#562=OVER_RIDING_STYLED_ITEM('',(#561),#555,#23);
#563=CARTESIAN_POINT('',(6.700787401575E-2,5.901574803150E-2,
4.740157480315E-2));
#564=DIRECTION('',(0.E0,1.E0,0.E0));
#565=DIRECTION('',(0.E0,0.E0,1.E0));
#566=AXIS2_PLACEMENT_3D('',#563,#564,#565);
#567=PLANE('',#566);
#568=ORIENTED_EDGE('',*,*,#509,.F.);
#569=ORIENTED_EDGE('',*,*,#551,.T.);
#571=ORIENTED_EDGE('',*,*,#570,.T.);
#573=ORIENTED_EDGE('',*,*,#572,.F.);
#574=EDGE_LOOP('',(#568,#569,#571,#573));
#575=FACE_OUTER_BOUND('',#574,.F.);
#577=FILL_AREA_STYLE_COLOUR('',#17);
#578=FILL_AREA_STYLE('',(#577));
#579=SURFACE_STYLE_FILL_AREA(#578);
#580=SURFACE_SIDE_STYLE('',(#579));
#581=SURFACE_STYLE_USAGE(.BOTH.,#580);
#582=PRESENTATION_STYLE_ASSIGNMENT((#581));
#583=OVER_RIDING_STYLED_ITEM('',(#582),#576,#23);
#584=CARTESIAN_POINT('',(6.700787401575E-2,5.901574803150E-2,
5.409448818898E-2));
#585=DIRECTION('',(0.E0,9.976184838809E-1,6.897362263304E-2));
#586=DIRECTION('',(0.E0,-6.897362263304E-2,9.976184838809E-1));
#587=AXIS2_PLACEMENT_3D('',#584,#585,#586);
#588=PLANE('',#587);
#589=ORIENTED_EDGE('',*,*,#570,.F.);
#590=ORIENTED_EDGE('',*,*,#381,.T.);
#592=ORIENTED_EDGE('',*,*,#591,.T.);
#594=ORIENTED_EDGE('',*,*,#593,.F.);
#595=EDGE_LOOP('',(#589,#590,#592,#594));
#596=FACE_OUTER_BOUND('',#595,.F.);
#598=FILL_AREA_STYLE_COLOUR('',#17);
#599=FILL_AREA_STYLE('',(#598));
#600=SURFACE_STYLE_FILL_AREA(#599);
#601=SURFACE_SIDE_STYLE('',(#600));
#602=SURFACE_STYLE_USAGE(.BOTH.,#601);
#603=PRESENTATION_STYLE_ASSIGNMENT((#602));
#604=OVER_RIDING_STYLED_ITEM('',(#603),#597,#23);
#605=CARTESIAN_POINT('',(-5.700787401575E-2,-5.700787401575E-2,
8.299212598425E-2));
#606=DIRECTION('',(0.E0,0.E0,1.E0));
#607=DIRECTION('',(0.E0,1.E0,0.E0));
#608=AXIS2_PLACEMENT_3D('',#605,#606,#607);
#609=PLANE('',#608);
#610=ORIENTED_EDGE('',*,*,#406,.F.);
#611=ORIENTED_EDGE('',*,*,#422,.F.);
#613=ORIENTED_EDGE('',*,*,#612,.F.);
#614=ORIENTED_EDGE('',*,*,#591,.F.);
#615=ORIENTED_EDGE('',*,*,#379,.F.);
#616=EDGE_LOOP('',(#610,#611,#613,#614,#615));
#617=FACE_OUTER_BOUND('',#616,.F.);
#619=ORIENTED_EDGE('',*,*,#618,.F.);
#621=ORIENTED_EDGE('',*,*,#620,.F.);
#622=EDGE_LOOP('',(#619,#621));
#623=FACE_BOUND('',#622,.F.);
#625=FILL_AREA_STYLE_COLOUR('',#5);
#626=FILL_AREA_STYLE('',(#625));
#627=SURFACE_STYLE_FILL_AREA(#626);
#628=SURFACE_SIDE_STYLE('',(#627));
#629=SURFACE_STYLE_USAGE(.BOTH.,#628);
#630=PRESENTATION_STYLE_ASSIGNMENT((#629));
#631=OVER_RIDING_STYLED_ITEM('',(#630),#624,#23);
#632=CARTESIAN_POINT('',(-6.700787401575E-2,5.901574803150E-2,
5.409448818898E-2));
#633=DIRECTION('',(-9.450217357500E-1,0.E0,3.270075212590E-1));
#634=DIRECTION('',(3.270075212590E-1,0.E0,9.450217357500E-1));
#635=AXIS2_PLACEMENT_3D('',#632,#633,#634);
#636=PLANE('',#635);
#638=ORIENTED_EDGE('',*,*,#637,.F.);
#639=ORIENTED_EDGE('',*,*,#593,.T.);
#640=ORIENTED_EDGE('',*,*,#612,.T.);
#641=ORIENTED_EDGE('',*,*,#420,.T.);
#642=EDGE_LOOP('',(#638,#639,#640,#641));
#643=FACE_OUTER_BOUND('',#642,.F.);
#645=FILL_AREA_STYLE_COLOUR('',#17);
#646=FILL_AREA_STYLE('',(#645));
#647=SURFACE_STYLE_FILL_AREA(#646);
#648=SURFACE_SIDE_STYLE('',(#647));
#649=SURFACE_STYLE_USAGE(.BOTH.,#648);
#650=PRESENTATION_STYLE_ASSIGNMENT((#649));
#651=OVER_RIDING_STYLED_ITEM('',(#650),#644,#23);
#652=CARTESIAN_POINT('',(-6.700787401575E-2,5.901574803150E-2,
4.740157480315E-2));
#653=DIRECTION('',(-1.E0,0.E0,0.E0));
#654=DIRECTION('',(0.E0,0.E0,1.E0));
#655=AXIS2_PLACEMENT_3D('',#652,#653,#654);
#656=PLANE('',#655);
#658=ORIENTED_EDGE('',*,*,#657,.F.);
#659=ORIENTED_EDGE('',*,*,#572,.T.);
#660=ORIENTED_EDGE('',*,*,#637,.T.);
#661=ORIENTED_EDGE('',*,*,#442,.T.);
#662=EDGE_LOOP('',(#658,#659,#660,#661));
#663=FACE_OUTER_BOUND('',#662,.F.);
#665=FILL_AREA_STYLE_COLOUR('',#17);
#666=FILL_AREA_STYLE('',(#665));
#667=SURFACE_STYLE_FILL_AREA(#666);
#668=SURFACE_SIDE_STYLE('',(#667));
#669=SURFACE_STYLE_USAGE(.BOTH.,#668);
#670=PRESENTATION_STYLE_ASSIGNMENT((#669));
#671=OVER_RIDING_STYLED_ITEM('',(#670),#664,#23);
#672=CARTESIAN_POINT('',(-6.200787401575E-2,5.700787401575E-2,
1.850393700787E-2));
#673=DIRECTION('',(-9.854312205091E-1,0.E0,-1.700744238440E-1));
#674=DIRECTION('',(-1.700744238440E-1,0.E0,9.854312205091E-1));
#675=AXIS2_PLACEMENT_3D('',#672,#673,#674);
#676=PLANE('',#675);
#677=ORIENTED_EDGE('',*,*,#486,.F.);
#678=ORIENTED_EDGE('',*,*,#511,.T.);
#679=ORIENTED_EDGE('',*,*,#657,.T.);
#680=ORIENTED_EDGE('',*,*,#464,.T.);
#681=EDGE_LOOP('',(#677,#678,#679,#680));
#682=FACE_OUTER_BOUND('',#681,.F.);
#684=FILL_AREA_STYLE_COLOUR('',#17);
#685=FILL_AREA_STYLE('',(#684));
#686=SURFACE_STYLE_FILL_AREA(#685);
#687=SURFACE_SIDE_STYLE('',(#686));
#688=SURFACE_STYLE_USAGE(.BOTH.,#687);
#689=PRESENTATION_STYLE_ASSIGNMENT((#688));
#690=OVER_RIDING_STYLED_ITEM('',(#689),#683,#23);
#691=CARTESIAN_POINT('',(0.E0,0.E0,8.299212598425E-2));
#692=DIRECTION('',(0.E0,0.E0,-1.E0));
#693=DIRECTION('',(-1.E0,0.E0,0.E0));
#694=AXIS2_PLACEMENT_3D('',#691,#692,#693);
#695=CYLINDRICAL_SURFACE('',#694,3.937007874016E-2);
#697=ORIENTED_EDGE('',*,*,#696,.T.);
#699=ORIENTED_EDGE('',*,*,#698,.T.);
#701=ORIENTED_EDGE('',*,*,#700,.T.);
#702=ORIENTED_EDGE('',*,*,#618,.T.);
#703=EDGE_LOOP('',(#697,#699,#701,#702));
#704=FACE_OUTER_BOUND('',#703,.F.);
#706=CARTESIAN_POINT('',(0.E0,0.E0,8.299212598425E-2));
#707=DIRECTION('',(0.E0,0.E0,-1.E0));
#708=DIRECTION('',(-1.E0,0.E0,0.E0));
#709=AXIS2_PLACEMENT_3D('',#706,#707,#708);
#710=CYLINDRICAL_SURFACE('',#709,3.937007874016E-2);
#711=ORIENTED_EDGE('',*,*,#696,.F.);
#712=ORIENTED_EDGE('',*,*,#620,.T.);
#713=ORIENTED_EDGE('',*,*,#700,.F.);
#715=ORIENTED_EDGE('',*,*,#714,.T.);
#716=EDGE_LOOP('',(#711,#712,#713,#715));
#717=FACE_OUTER_BOUND('',#716,.F.);
#719=CARTESIAN_POINT('',(0.E0,0.E0,7.905511811024E-2));
#720=DIRECTION('',(0.E0,0.E0,1.E0));
#721=DIRECTION('',(-1.E0,0.E0,0.E0));
#722=AXIS2_PLACEMENT_3D('',#719,#720,#721);
#723=PLANE('',#722);
#724=ORIENTED_EDGE('',*,*,#698,.F.);
#725=ORIENTED_EDGE('',*,*,#714,.F.);
#726=EDGE_LOOP('',(#724,#725));
#727=FACE_OUTER_BOUND('',#726,.F.);
#729=FILL_AREA_STYLE_COLOUR('',#17);
#730=FILL_AREA_STYLE('',(#729));
#731=SURFACE_STYLE_FILL_AREA(#730);
#732=SURFACE_SIDE_STYLE('',(#731));
#733=SURFACE_STYLE_USAGE(.BOTH.,#732);
#734=PRESENTATION_STYLE_ASSIGNMENT((#733));
#735=OVER_RIDING_STYLED_ITEM('',(#734),#728,#23);
#738=FILL_AREA_STYLE_COLOUR('',#1);
#739=FILL_AREA_STYLE('',(#738));
#740=SURFACE_STYLE_FILL_AREA(#739);
#741=SURFACE_SIDE_STYLE('',(#740));
#742=SURFACE_STYLE_USAGE(.BOTH.,#741);
#743=PRESENTATION_STYLE_ASSIGNMENT((#742));
#23=STYLED_ITEM('',(#743),#737);
#745=LENGTH_MEASURE_WITH_UNIT(LENGTH_MEASURE(2.54E1),#744);
#746=(CONVERSION_BASED_UNIT('INCH',#745)LENGTH_UNIT()NAMED_UNIT(*));
#748=PLANE_ANGLE_MEASURE_WITH_UNIT(PLANE_ANGLE_MEASURE(1.745329251994E-2),#747);
#749=(CONVERSION_BASED_UNIT('DEGREE',#748)NAMED_UNIT(*)PLANE_ANGLE_UNIT());
#751=UNCERTAINTY_MEASURE_WITH_UNIT(LENGTH_MEASURE(1.898617848107E-5),#746,
'closure',
'Maximum model space distance between geometric entities at asserted connectivities');
#753=CARTESIAN_POINT('',(0.E0,0.E0,0.E0));
#754=DIRECTION('',(0.E0,0.E0,1.E0));
#755=DIRECTION('',(1.E0,0.E0,0.E0));
#758=MECHANICAL_DESIGN_GEOMETRIC_PRESENTATION_REPRESENTATION('',(#31,#38,#45,
#52,#59,#66,#73,#80,#87,#94,#101,#108,#115,#122,#129,#136,#143,#150,#157,#164,
#171,#178,#185,#192,#199,#206,#213,#220,#227,#234,#241,#249,#257,#264,#271,#278,
#285,#292,#300,#308,#396,#434,#456,#478,#500,#522,#542,#562,#583,#604,#631,#651,
#671,#690,#735,#23),#752);
#759=APPLICATION_CONTEXT('automotive design');
#760=APPLICATION_PROTOCOL_DEFINITION('international standard',
'config_control_design',1994,#759);
#761=PRODUCT_DEFINITION_CONTEXT('',#759,'design');
#762=PRODUCT_CONTEXT('',#759,'mechanical');
#763=PRODUCT('BODY1-4191','BODY1-4191','NOT SPECIFIED',(#762));
#764=PRODUCT_DEFINITION_FORMATION_WITH_SPECIFIED_SOURCE('1','LAST_VERSION',#763,
.MADE.);
#772=LENGTH_MEASURE_WITH_UNIT(LENGTH_MEASURE(2.54E1),#771);
#773=(CONVERSION_BASED_UNIT('INCH',#772)LENGTH_UNIT()NAMED_UNIT(*));
#774=DERIVED_UNIT_ELEMENT(#773,2.E0);
#775=AREA_UNIT((#774));
#776=MEASURE_REPRESENTATION_ITEM('surface area measure',AREA_MEASURE(
3.872460028270E1),#775);
#781=LENGTH_MEASURE_WITH_UNIT(LENGTH_MEASURE(2.54E1),#780);
#782=(CONVERSION_BASED_UNIT('INCH',#781)LENGTH_UNIT()NAMED_UNIT(*));
#783=DERIVED_UNIT_ELEMENT(#782,3.E0);
#784=VOLUME_UNIT((#783));
#785=MEASURE_REPRESENTATION_ITEM('volume measure',VOLUME_MEASURE(
1.530149134837E1),#784);
#789=CARTESIAN_POINT('centre point',(-2.055894110163E-3,2.032647290532E-3,
1.261747562362E0));
#794=LENGTH_MEASURE_WITH_UNIT(LENGTH_MEASURE(2.54E1),#793);
#795=(CONVERSION_BASED_UNIT('INCH',#794)LENGTH_UNIT()NAMED_UNIT(*));
#796=DERIVED_UNIT_ELEMENT(#795,2.E0);
#797=AREA_UNIT((#796));
#798=MEASURE_REPRESENTATION_ITEM('surface area measure',AREA_MEASURE(
3.872460028270E1),#797);
#803=LENGTH_MEASURE_WITH_UNIT(LENGTH_MEASURE(2.54E1),#802);
#804=(CONVERSION_BASED_UNIT('INCH',#803)LENGTH_UNIT()NAMED_UNIT(*));
#805=DERIVED_UNIT_ELEMENT(#804,3.E0);
#806=VOLUME_UNIT((#805));
#807=MEASURE_REPRESENTATION_ITEM('volume measure',VOLUME_MEASURE(
1.530149134837E1),#806);
#811=CARTESIAN_POINT('centre point',(-2.055894110163E-3,2.032647290532E-3,
1.261747562362E0));
#1=COLOUR_RGB('',6.274509803922E-1,6.274509803922E-1,6.274509803922E-1);
#2=DRAUGHTING_PRE_DEFINED_COLOUR('green');
#3=COLOUR_RGB('',1.1E-2,1.2E-2,1.E0);
#4=COLOUR_RGB('',1.921568627451E-1,1.921568627451E-1,1.921568627451E-1);
#5=COLOUR_RGB('',1.960784313725E-1,1.960784313725E-1,1.960784313725E-1);
#6=COLOUR_RGB('',2.352941176471E-1,2.352941176471E-1,2.352941176471E-1);
#7=COLOUR_RGB('',3.137254901961E-1,3.137254901961E-1,3.137254901961E-1);
#8=COLOUR_RGB('',4.1E-1,2.61589E-1,1.12848E-1);
#9=COLOUR_RGB('',5.04854E-1,1.5455E-2,1.5455E-2);
#10=COLOUR_RGB('',6.274509803922E-1,6.274509803922E-1,6.274509803922E-1);
#11=COLOUR_RGB('',6.35294E-1,6.86275E-1,7.4902E-1);
#12=COLOUR_RGB('',6.40777E-1,6.40777E-1,6.40777E-1);
#13=COLOUR_RGB('',6.69062E-1,6.69903E-1,6.55217E-1);
#14=COLOUR_RGB('',8.313725490196E-1,0.E0,0.E0);
#15=COLOUR_RGB('',8.666666666667E-1,8.666666666667E-1,8.666666666667E-1);
#16=COLOUR_RGB('',9.21569E-1,7.05882E-1,4.70588E-1);
#17=COLOUR_RGB('',9.803921568627E-1,9.803921568627E-1,9.803921568627E-1);
#18=DRAUGHTING_PRE_DEFINED_COLOUR('red');
#19=DRAUGHTING_PRE_DEFINED_COLOUR('yellow');
#20=COLOUR_RGB('',1.E0,1.E0,5.3E-1);
#21=COLOUR_RGB('',1.E0,1.E0,9.49E-1);
#22=DRAUGHTING_PRE_DEFINED_COLOUR('white');
#246=CIRCLE('',#245,3.937007874016E-2);
#254=CIRCLE('',#253,3.937007874016E-2);
#297=CIRCLE('',#296,3.937007874016E-2);
#305=CIRCLE('',#304,3.937007874016E-2);
#362=EDGE_CURVE('',#311,#312,#27,.T.);
#364=EDGE_CURVE('',#314,#311,#35,.T.);
#366=EDGE_CURVE('',#312,#314,#42,.T.);
#370=ADVANCED_FACE('',(#369),#361,.F.);
#377=EDGE_CURVE('',#312,#316,#63,.T.);
#379=EDGE_CURVE('',#316,#326,#238,.T.);
#381=EDGE_CURVE('',#330,#326,#49,.T.);
#383=EDGE_CURVE('',#324,#330,#56,.T.);
#385=EDGE_CURVE('',#324,#311,#77,.T.);
#389=ADVANCED_FACE('',(#388),#375,.T.);
#404=EDGE_CURVE('',#318,#314,#70,.T.);
#406=EDGE_CURVE('',#318,#316,#210,.T.);
#410=ADVANCED_FACE('',(#409),#401,.F.);
#418=EDGE_CURVE('',#322,#324,#84,.T.);
#420=EDGE_CURVE('',#320,#322,#91,.T.);
#422=EDGE_CURVE('',#320,#318,#217,.T.);
#427=ADVANCED_FACE('',(#426),#415,.T.);
#440=EDGE_CURVE('',#335,#336,#98,.T.);
#442=EDGE_CURVE('',#322,#335,#105,.T.);
#445=EDGE_CURVE('',#336,#324,#112,.T.);
#449=ADVANCED_FACE('',(#448),#439,.T.);
#462=EDGE_CURVE('',#343,#344,#119,.T.);
#464=EDGE_CURVE('',#335,#343,#126,.T.);
#467=EDGE_CURVE('',#344,#336,#133,.T.);
#471=ADVANCED_FACE('',(#470),#461,.T.);
#484=EDGE_CURVE('',#346,#348,#140,.T.);
#486=EDGE_CURVE('',#348,#343,#275,.T.);
#489=EDGE_CURVE('',#344,#346,#154,.T.);
#493=ADVANCED_FACE('',(#492),#483,.T.);
#507=EDGE_CURVE('',#346,#338,#161,.T.);
#509=EDGE_CURVE('',#338,#340,#182,.T.);
#511=EDGE_CURVE('',#348,#340,#147,.T.);
#515=ADVANCED_FACE('',(#514),#505,.T.);
#530=EDGE_CURVE('',#336,#338,#168,.T.);
#535=ADVANCED_FACE('',(#534),#527,.T.);
#551=EDGE_CURVE('',#338,#330,#175,.T.);
#555=ADVANCED_FACE('',(#554),#547,.T.);
#570=EDGE_CURVE('',#330,#332,#196,.T.);
#572=EDGE_CURVE('',#340,#332,#189,.T.);
#576=ADVANCED_FACE('',(#575),#567,.T.);
#591=EDGE_CURVE('',#326,#328,#231,.T.);
#593=EDGE_CURVE('',#332,#328,#203,.T.);
#597=ADVANCED_FACE('',(#596),#588,.T.);
#612=EDGE_CURVE('',#328,#320,#224,.T.);
#618=EDGE_CURVE('',#354,#351,#246,.T.);
#620=EDGE_CURVE('',#351,#354,#254,.T.);
#624=ADVANCED_FACE('',(#617,#623),#609,.T.);
#637=EDGE_CURVE('',#332,#322,#261,.T.);
#644=ADVANCED_FACE('',(#643),#636,.T.);
#657=EDGE_CURVE('',#340,#335,#268,.T.);
#664=ADVANCED_FACE('',(#663),#656,.T.);
#683=ADVANCED_FACE('',(#682),#676,.T.);
#696=EDGE_CURVE('',#351,#352,#282,.T.);
#698=EDGE_CURVE('',#352,#356,#297,.T.);
#700=EDGE_CURVE('',#356,#354,#289,.T.);
#705=ADVANCED_FACE('',(#704),#695,.F.);
#714=EDGE_CURVE('',#356,#352,#305,.T.);
#718=ADVANCED_FACE('',(#717),#710,.F.);
#728=ADVANCED_FACE('',(#727),#723,.T.);
#736=CLOSED_SHELL('',(#370,#389,#410,#427,#449,#471,#493,#515,#535,#555,#576,
#597,#624,#644,#664,#683,#705,#718,#728));
#737=MANIFOLD_SOLID_BREP('',#736);
#744=(LENGTH_UNIT()NAMED_UNIT(*)SI_UNIT(.MILLI.,.METRE.));
#747=(NAMED_UNIT(*)PLANE_ANGLE_UNIT()SI_UNIT($,.RADIAN.));
#750=(NAMED_UNIT(*)SI_UNIT($,.STERADIAN.)SOLID_ANGLE_UNIT());
#752=(GEOMETRIC_REPRESENTATION_CONTEXT(3)GLOBAL_UNCERTAINTY_ASSIGNED_CONTEXT((
#751))GLOBAL_UNIT_ASSIGNED_CONTEXT((#746,#749,#750))REPRESENTATION_CONTEXT
('ID1','3'));
#756=AXIS2_PLACEMENT_3D('',#753,#754,#755);
#757=ADVANCED_BREP_SHAPE_REPRESENTATION('',(#756,#737),#752);
#765=PRODUCT_DEFINITION('design','',#764,#761);
#766=PRODUCT_DEFINITION_SHAPE('','SHAPE FOR BODY1-4191.',#765);
#767=SHAPE_ASPECT('','solid data associated with BODY1-4191',#766,.F.);
#768=PROPERTY_DEFINITION('',
'shape for solid data with which properties are associated',#767);
#769=SHAPE_REPRESENTATION('',(#737),#752);
#770=SHAPE_DEFINITION_REPRESENTATION(#768,#769);
#771=(LENGTH_UNIT()NAMED_UNIT(*)SI_UNIT(.MILLI.,.METRE.));
#777=PROPERTY_DEFINITION('geometric validation property','area of BODY1-4191',
#767);
#778=REPRESENTATION('surface area',(#776),#752);
#779=PROPERTY_DEFINITION_REPRESENTATION(#777,#778);
#780=(LENGTH_UNIT()NAMED_UNIT(*)SI_UNIT(.MILLI.,.METRE.));
#786=PROPERTY_DEFINITION('geometric validation property','volume of BODY1-4191',
#767);
#787=REPRESENTATION('volume',(#785),#752);
#788=PROPERTY_DEFINITION_REPRESENTATION(#786,#787);
#790=PROPERTY_DEFINITION('geometric validation property',
'centroid of BODY1-4191',#767);
#791=REPRESENTATION('centroid',(#789),#752);
#792=PROPERTY_DEFINITION_REPRESENTATION(#790,#791);
#793=(LENGTH_UNIT()NAMED_UNIT(*)SI_UNIT(.MILLI.,.METRE.));
#799=PROPERTY_DEFINITION('geometric validation property','area of BODY1-4191',
#766);
#800=REPRESENTATION('surface area',(#798),#752);
#801=PROPERTY_DEFINITION_REPRESENTATION(#799,#800);
#802=(LENGTH_UNIT()NAMED_UNIT(*)SI_UNIT(.MILLI.,.METRE.));
#808=PROPERTY_DEFINITION('geometric validation property','volume of BODY1-4191',
#766);
#809=REPRESENTATION('volume',(#807),#752);
#810=PROPERTY_DEFINITION_REPRESENTATION(#808,#809);
#812=PROPERTY_DEFINITION('geometric validation property',
'centroid of BODY1-4191',#766);
#813=REPRESENTATION('centroid',(#811),#752);
#814=PROPERTY_DEFINITION_REPRESENTATION(#812,#813);
#815=SHAPE_DEFINITION_REPRESENTATION(#766,#757);
ENDSEC;
END-ISO-10303-21;
