ISO-10303-21;
HEADER;
FILE_DESCRIPTION((''),'2;1');
FILE_NAME('BODY1-4120','2026-06-15T13:45:24',('Esia'),(''),
'CREO PARAMETRIC BY PTC INC, 2025102','CREO PARAMETRIC BY PTC INC, 2025102','');
FILE_SCHEMA((
'AP242_MANAGED_MODEL_BASED_3D_ENGINEERING_MIM_LF { 1 0 10303 442 1 1 4 }'));
ENDSEC;
DATA;
#23=DIRECTION('',(1.E0,0.E0,0.E0));
#24=VECTOR('',#23,1.944881889764E-2);
#25=CARTESIAN_POINT('',(-9.724409448819E-3,1.417322834709E-2,
1.968503937008E-2));
#26=LINE('',#25,#24);
#27=DRAUGHTING_PRE_DEFINED_CURVE_FONT('continuous');
#28=CURVE_STYLE('',#27,POSITIVE_LENGTH_MEASURE(2.E-2),#1);
#29=PRESENTATION_STYLE_ASSIGNMENT((#28));
#30=STYLED_ITEM('',(#29),#26);
#31=DIRECTION('',(-1.E0,0.E0,0.E0));
#32=VECTOR('',#31,1.944881889764E-2);
#33=CARTESIAN_POINT('',(9.724409448819E-3,1.456692913449E-2,1.929133858268E-2));
#34=LINE('',#33,#32);
#35=CURVE_STYLE('',#27,POSITIVE_LENGTH_MEASURE(2.E-2),#1);
#36=PRESENTATION_STYLE_ASSIGNMENT((#35));
#37=STYLED_ITEM('',(#36),#34);
#38=DIRECTION('',(1.E0,0.E0,0.E0));
#39=VECTOR('',#38,1.944881889764E-2);
#40=CARTESIAN_POINT('',(-9.724409448819E-3,7.874015754295E-4,
1.929133858268E-2));
#41=LINE('',#40,#39);
#42=CURVE_STYLE('',#27,POSITIVE_LENGTH_MEASURE(2.E-2),#1);
#43=PRESENTATION_STYLE_ASSIGNMENT((#42));
#44=STYLED_ITEM('',(#43),#41);
#45=DIRECTION('',(-1.E0,0.E0,0.E0));
#46=VECTOR('',#45,1.944881889764E-2);
#47=CARTESIAN_POINT('',(9.724409448819E-3,1.181102362831E-3,1.968503937008E-2));
#48=LINE('',#47,#46);
#49=CURVE_STYLE('',#27,POSITIVE_LENGTH_MEASURE(2.E-2),#1);
#50=PRESENTATION_STYLE_ASSIGNMENT((#49));
#51=STYLED_ITEM('',(#50),#48);
#52=DIRECTION('',(-1.E0,0.E0,0.E0));
#53=VECTOR('',#52,1.944881889764E-2);
#54=CARTESIAN_POINT('',(9.724409448819E-3,7.874015754295E-4,9.842519685039E-3));
#55=LINE('',#54,#53);
#56=CURVE_STYLE('',#27,POSITIVE_LENGTH_MEASURE(2.E-2),#1);
#57=PRESENTATION_STYLE_ASSIGNMENT((#56));
#58=STYLED_ITEM('',(#57),#55);
#59=DIRECTION('',(-1.E0,0.E0,0.E0));
#60=VECTOR('',#59,1.944881889764E-2);
#61=CARTESIAN_POINT('',(9.724409448819E-3,1.574803150233E-3,9.842519685039E-3));
#62=LINE('',#61,#60);
#63=CURVE_STYLE('',#27,POSITIVE_LENGTH_MEASURE(2.E-2),#1);
#64=PRESENTATION_STYLE_ASSIGNMENT((#63));
#65=STYLED_ITEM('',(#64),#62);
#66=DIRECTION('',(-1.E0,0.E0,0.E0));
#67=VECTOR('',#66,1.944881889764E-2);
#68=CARTESIAN_POINT('',(9.724409448819E-3,1.574803150233E-3,1.889763779528E-2));
#69=LINE('',#68,#67);
#70=CURVE_STYLE('',#27,POSITIVE_LENGTH_MEASURE(2.E-2),#1);
#71=PRESENTATION_STYLE_ASSIGNMENT((#70));
#72=STYLED_ITEM('',(#71),#69);
#73=DIRECTION('',(-1.E0,0.E0,0.E0));
#74=VECTOR('',#73,1.944881889764E-2);
#75=CARTESIAN_POINT('',(9.724409448819E-3,1.377952755969E-2,1.889763779528E-2));
#76=LINE('',#75,#74);
#77=CURVE_STYLE('',#27,POSITIVE_LENGTH_MEASURE(2.E-2),#1);
#78=PRESENTATION_STYLE_ASSIGNMENT((#77));
#79=STYLED_ITEM('',(#78),#76);
#80=DIRECTION('',(-1.E0,0.E0,0.E0));
#81=VECTOR('',#80,1.944881889764E-2);
#82=CARTESIAN_POINT('',(9.724409448819E-3,1.377952755969E-2,1.181102362205E-2));
#83=LINE('',#82,#81);
#84=CURVE_STYLE('',#27,POSITIVE_LENGTH_MEASURE(2.E-2),#1);
#85=PRESENTATION_STYLE_ASSIGNMENT((#84));
#86=STYLED_ITEM('',(#85),#83);
#87=DIRECTION('',(-1.E0,0.E0,0.E0));
#88=VECTOR('',#87,1.944881889764E-2);
#89=CARTESIAN_POINT('',(9.724409448819E-3,1.456692913449E-2,1.181102362205E-2));
#90=LINE('',#89,#88);
#91=CURVE_STYLE('',#27,POSITIVE_LENGTH_MEASURE(2.E-2),#1);
#92=PRESENTATION_STYLE_ASSIGNMENT((#91));
#93=STYLED_ITEM('',(#92),#90);
#94=DIRECTION('',(0.E0,0.E0,-1.E0));
#95=VECTOR('',#94,7.480314960630E-3);
#96=CARTESIAN_POINT('',(-9.724409448819E-3,1.456692913449E-2,
1.929133858268E-2));
#97=LINE('',#96,#95);
#98=CURVE_STYLE('',#27,POSITIVE_LENGTH_MEASURE(2.E-2),#1);
#99=PRESENTATION_STYLE_ASSIGNMENT((#98));
#100=STYLED_ITEM('',(#99),#97);
#101=DIRECTION('',(0.E0,0.E0,1.E0));
#102=VECTOR('',#101,7.362204724409E-3);
#103=CARTESIAN_POINT('',(-9.842519685039E-3,1.444881889827E-2,
1.192913385827E-2));
#104=LINE('',#103,#102);
#105=CURVE_STYLE('',#27,POSITIVE_LENGTH_MEASURE(2.E-2),#1);
#106=PRESENTATION_STYLE_ASSIGNMENT((#105));
#107=STYLED_ITEM('',(#106),#104);
#108=DIRECTION('',(0.E0,-1.E0,0.E0));
#109=VECTOR('',#108,7.874015748031E-4);
#110=CARTESIAN_POINT('',(-9.724409448819E-3,1.456692913449E-2,
1.181102362205E-2));
#111=LINE('',#110,#109);
#112=CURVE_STYLE('',#27,POSITIVE_LENGTH_MEASURE(2.E-2),#1);
#113=PRESENTATION_STYLE_ASSIGNMENT((#112));
#114=STYLED_ITEM('',(#113),#111);
#115=CARTESIAN_POINT('',(-9.842519685039E-3,1.444881889827E-2,
1.192913385827E-2));
#116=CARTESIAN_POINT('',(-9.842519685039E-3,1.446204078948E-2,
1.191591196706E-2));
#117=CARTESIAN_POINT('',(-9.838351147273E-3,1.448751179376E-2,
1.189043785893E-2));
#118=CARTESIAN_POINT('',(-9.819033375187E-3,1.452271181453E-2,
1.185523799210E-2));
#119=CARTESIAN_POINT('',(-9.793159866348E-3,1.454724426224E-2,
1.183066716869E-2));
#120=CARTESIAN_POINT('',(-9.757238722662E-3,1.456435758204E-2,
1.181360317594E-2));
#121=CARTESIAN_POINT('',(-9.734999470150E-3,1.456692913449E-2,
1.181102362205E-2));
#122=CARTESIAN_POINT('',(-9.724409448819E-3,1.456692913449E-2,
1.181102362205E-2));
#124=CURVE_STYLE('',#27,POSITIVE_LENGTH_MEASURE(2.E-2),#1);
#125=PRESENTATION_STYLE_ASSIGNMENT((#124));
#126=STYLED_ITEM('',(#125),#123);
#127=DIRECTION('',(0.E0,1.E0,0.E0));
#128=VECTOR('',#127,5.511811023622E-4);
#129=CARTESIAN_POINT('',(-9.842519685039E-3,1.389763779591E-2,
1.192913385827E-2));
#130=LINE('',#129,#128);
#131=CURVE_STYLE('',#27,POSITIVE_LENGTH_MEASURE(2.E-2),#1);
#132=PRESENTATION_STYLE_ASSIGNMENT((#131));
#133=STYLED_ITEM('',(#132),#130);
#134=DIRECTION('',(0.E0,0.E0,1.E0));
#135=VECTOR('',#134,7.086614173228E-3);
#136=CARTESIAN_POINT('',(-9.724409448819E-3,1.377952755969E-2,
1.181102362205E-2));
#137=LINE('',#136,#135);
#138=CURVE_STYLE('',#27,POSITIVE_LENGTH_MEASURE(2.E-2),#1);
#139=PRESENTATION_STYLE_ASSIGNMENT((#138));
#140=STYLED_ITEM('',(#139),#137);
#141=CARTESIAN_POINT('',(-9.842519685039E-3,1.389763779591E-2,
1.192913385827E-2));
#142=CARTESIAN_POINT('',(-9.842519685039E-3,1.388441590470E-2,
1.191591196706E-2));
#143=CARTESIAN_POINT('',(-9.838351147273E-3,1.385894179657E-2,
1.189044096278E-2));
#144=CARTESIAN_POINT('',(-9.819033375187E-3,1.382374192973E-2,
1.185524094200E-2));
#145=CARTESIAN_POINT('',(-9.793159866348E-3,1.379917110633E-2,
1.183070849430E-2));
#146=CARTESIAN_POINT('',(-9.757238722662E-3,1.378210711358E-2,
1.181359517449E-2));
#147=CARTESIAN_POINT('',(-9.734999470150E-3,1.377952755969E-2,
1.181102362205E-2));
#148=CARTESIAN_POINT('',(-9.724409448819E-3,1.377952755969E-2,
1.181102362205E-2));
#150=CURVE_STYLE('',#27,POSITIVE_LENGTH_MEASURE(2.E-2),#1);
#151=PRESENTATION_STYLE_ASSIGNMENT((#150));
#152=STYLED_ITEM('',(#151),#149);
#153=DIRECTION('',(0.E0,0.E0,-1.E0));
#154=VECTOR('',#153,7.086614173228E-3);
#155=CARTESIAN_POINT('',(-9.842519685039E-3,1.389763779591E-2,
1.901574803150E-2));
#156=LINE('',#155,#154);
#157=CURVE_STYLE('',#27,POSITIVE_LENGTH_MEASURE(2.E-2),#1);
#158=PRESENTATION_STYLE_ASSIGNMENT((#157));
#159=STYLED_ITEM('',(#158),#156);
#160=CARTESIAN_POINT('',(-9.842519685039E-3,1.389763779591E-2,
1.901574803150E-2));
#161=CARTESIAN_POINT('',(-9.842519685039E-3,1.388441590470E-2,
1.900252614029E-2));
#162=CARTESIAN_POINT('',(-9.838351147273E-3,1.385894490042E-2,
1.897705203216E-2));
#163=CARTESIAN_POINT('',(-9.819033375187E-3,1.382374487964E-2,
1.894185216532E-2));
#164=CARTESIAN_POINT('',(-9.793159866348E-3,1.379921243193E-2,
1.891728134192E-2));
#165=CARTESIAN_POINT('',(-9.757238722662E-3,1.378209911213E-2,
1.890021734917E-2));
#166=CARTESIAN_POINT('',(-9.734999470150E-3,1.377952755969E-2,
1.889763779528E-2));
#167=CARTESIAN_POINT('',(-9.724409448819E-3,1.377952755969E-2,
1.889763779528E-2));
#169=CURVE_STYLE('',#27,POSITIVE_LENGTH_MEASURE(2.E-2),#1);
#170=PRESENTATION_STYLE_ASSIGNMENT((#169));
#171=STYLED_ITEM('',(#170),#168);
#172=DIRECTION('',(0.E0,1.E0,0.E0));
#173=VECTOR('',#172,1.244094488189E-2);
#174=CARTESIAN_POINT('',(-9.842519685039E-3,1.456692914012E-3,
1.901574803150E-2));
#175=LINE('',#174,#173);
#176=CURVE_STYLE('',#27,POSITIVE_LENGTH_MEASURE(2.E-2),#1);
#177=PRESENTATION_STYLE_ASSIGNMENT((#176));
#178=STYLED_ITEM('',(#177),#175);
#179=CARTESIAN_POINT('',(-9.724409448819E-3,1.574803150233E-3,
1.889763779528E-2));
#180=CARTESIAN_POINT('',(-9.736123844629E-3,1.574803150233E-3,
1.889763779528E-2));
#181=CARTESIAN_POINT('',(-9.759875472921E-3,1.571491697387E-3,
1.890095357547E-2));
#182=CARTESIAN_POINT('',(-9.794637815441E-3,1.553938797260E-3,
1.891846455583E-2));
#183=CARTESIAN_POINT('',(-9.819636379032E-3,1.529628429578E-3,
1.894280451639E-2));
#184=CARTESIAN_POINT('',(-9.838248608806E-3,1.495422976192E-3,
1.897701592984E-2));
#185=CARTESIAN_POINT('',(-9.842519685039E-3,1.469988405432E-3,
1.900245254008E-2));
#186=CARTESIAN_POINT('',(-9.842519685039E-3,1.456692914012E-3,
1.901574803150E-2));
#188=CURVE_STYLE('',#27,POSITIVE_LENGTH_MEASURE(2.E-2),#1);
#189=PRESENTATION_STYLE_ASSIGNMENT((#188));
#190=STYLED_ITEM('',(#189),#187);
#191=DIRECTION('',(0.E0,-1.E0,0.E0));
#192=VECTOR('',#191,1.220472440945E-2);
#193=CARTESIAN_POINT('',(-9.724409448819E-3,1.377952755969E-2,
1.889763779528E-2));
#194=LINE('',#193,#192);
#195=CURVE_STYLE('',#27,POSITIVE_LENGTH_MEASURE(2.E-2),#1);
#196=PRESENTATION_STYLE_ASSIGNMENT((#195));
#197=STYLED_ITEM('',(#196),#194);
#198=CARTESIAN_POINT('',(-9.842519685039E-3,1.181102362831E-3,
1.929133858268E-2));
#199=DIRECTION('',(-1.E0,0.E0,0.E0));
#200=DIRECTION('',(0.E0,-1.E0,0.E0));
#201=AXIS2_PLACEMENT_3D('',#198,#199,#200);
#203=CURVE_STYLE('',#27,POSITIVE_LENGTH_MEASURE(2.E-2),#1);
#204=PRESENTATION_STYLE_ASSIGNMENT((#203));
#205=STYLED_ITEM('',(#204),#202);
#206=CARTESIAN_POINT('',(-9.842519685039E-3,1.417322834709E-2,
1.929133858268E-2));
#207=DIRECTION('',(-1.E0,0.E0,0.E0));
#208=DIRECTION('',(0.E0,0.E0,1.E0));
#209=AXIS2_PLACEMENT_3D('',#206,#207,#208);
#211=CURVE_STYLE('',#27,POSITIVE_LENGTH_MEASURE(2.E-2),#1);
#212=PRESENTATION_STYLE_ASSIGNMENT((#211));
#213=STYLED_ITEM('',(#212),#210);
#214=CARTESIAN_POINT('',(-9.724409448819E-3,9.055118116500E-4,
1.929133858268E-2));
#215=DIRECTION('',(0.E0,0.E0,1.E0));
#216=DIRECTION('',(-1.E0,0.E0,0.E0));
#217=AXIS2_PLACEMENT_3D('',#214,#215,#216);
#219=CURVE_STYLE('',#27,POSITIVE_LENGTH_MEASURE(2.E-2),#1);
#220=PRESENTATION_STYLE_ASSIGNMENT((#219));
#221=STYLED_ITEM('',(#220),#218);
#222=CARTESIAN_POINT('',(-9.724409448819E-3,1.181102362831E-3,
1.956692913386E-2));
#223=DIRECTION('',(0.E0,-1.E0,0.E0));
#224=DIRECTION('',(0.E0,0.E0,1.E0));
#225=AXIS2_PLACEMENT_3D('',#222,#223,#224);
#227=CURVE_STYLE('',#27,POSITIVE_LENGTH_MEASURE(2.E-2),#1);
#228=PRESENTATION_STYLE_ASSIGNMENT((#227));
#229=STYLED_ITEM('',(#228),#226);
#230=CARTESIAN_POINT('',(-9.724409448819E-3,1.181102362831E-3,
1.929133858268E-2));
#231=DIRECTION('',(-1.E0,0.E0,0.E0));
#232=DIRECTION('',(0.E0,-1.E0,0.E0));
#233=AXIS2_PLACEMENT_3D('',#230,#231,#232);
#235=CURVE_STYLE('',#27,POSITIVE_LENGTH_MEASURE(2.E-2),#1);
#236=PRESENTATION_STYLE_ASSIGNMENT((#235));
#237=STYLED_ITEM('',(#236),#234);
#238=DIRECTION('',(0.E0,0.E0,-1.E0));
#239=VECTOR('',#238,9.330708661417E-3);
#240=CARTESIAN_POINT('',(-9.842519685039E-3,9.055118116500E-4,
1.929133858268E-2));
#241=LINE('',#240,#239);
#242=CURVE_STYLE('',#27,POSITIVE_LENGTH_MEASURE(2.E-2),#1);
#243=PRESENTATION_STYLE_ASSIGNMENT((#242));
#244=STYLED_ITEM('',(#243),#241);
#245=DIRECTION('',(0.E0,0.E0,1.E0));
#246=VECTOR('',#245,9.448818897638E-3);
#247=CARTESIAN_POINT('',(-9.724409448819E-3,7.874015754295E-4,
9.842519685039E-3));
#248=LINE('',#247,#246);
#249=CURVE_STYLE('',#27,POSITIVE_LENGTH_MEASURE(2.E-2),#1);
#250=PRESENTATION_STYLE_ASSIGNMENT((#249));
#251=STYLED_ITEM('',(#250),#248);
#252=DIRECTION('',(0.E0,1.E0,0.E0));
#253=VECTOR('',#252,5.511811023622E-4);
#254=CARTESIAN_POINT('',(-9.842519685039E-3,9.055118116500E-4,
9.960629921260E-3));
#255=LINE('',#254,#253);
#256=CURVE_STYLE('',#27,POSITIVE_LENGTH_MEASURE(2.E-2),#1);
#257=PRESENTATION_STYLE_ASSIGNMENT((#256));
#258=STYLED_ITEM('',(#257),#255);
#259=CARTESIAN_POINT('',(-9.724409448819E-3,7.874015754295E-4,
9.842519685039E-3));
#260=CARTESIAN_POINT('',(-9.736123844629E-3,7.874015754295E-4,
9.842519685039E-3));
#261=CARTESIAN_POINT('',(-9.759875472921E-3,7.907130282753E-4,
9.845835465235E-3));
#262=CARTESIAN_POINT('',(-9.794637815441E-3,8.082659284025E-4,
9.863346445598E-3));
#263=CARTESIAN_POINT('',(-9.819636379032E-3,8.325762960845E-4,
9.887686406155E-3));
#264=CARTESIAN_POINT('',(-9.838248608806E-3,8.667817494699E-4,
9.921897819603E-3));
#265=CARTESIAN_POINT('',(-9.842519685039E-3,8.922163202304E-4,
9.947334429840E-3));
#266=CARTESIAN_POINT('',(-9.842519685039E-3,9.055118116500E-4,
9.960629921260E-3));
#268=CURVE_STYLE('',#27,POSITIVE_LENGTH_MEASURE(2.E-2),#1);
#269=PRESENTATION_STYLE_ASSIGNMENT((#268));
#270=STYLED_ITEM('',(#269),#267);
#271=DIRECTION('',(0.E0,-1.E0,0.E0));
#272=VECTOR('',#271,7.874015748031E-4);
#273=CARTESIAN_POINT('',(-9.724409448819E-3,1.574803150233E-3,
9.842519685039E-3));
#274=LINE('',#273,#272);
#275=CURVE_STYLE('',#27,POSITIVE_LENGTH_MEASURE(2.E-2),#1);
#276=PRESENTATION_STYLE_ASSIGNMENT((#275));
#277=STYLED_ITEM('',(#276),#274);
#278=DIRECTION('',(0.E0,0.E0,1.E0));
#279=VECTOR('',#278,9.055118110236E-3);
#280=CARTESIAN_POINT('',(-9.842519685039E-3,1.456692914012E-3,
9.960629921260E-3));
#281=LINE('',#280,#279);
#282=CURVE_STYLE('',#27,POSITIVE_LENGTH_MEASURE(2.E-2),#1);
#283=PRESENTATION_STYLE_ASSIGNMENT((#282));
#284=STYLED_ITEM('',(#283),#281);
#285=CARTESIAN_POINT('',(-9.724409448819E-3,1.574803150233E-3,
9.842519685039E-3));
#286=CARTESIAN_POINT('',(-9.736123844629E-3,1.574803150233E-3,
9.842519685039E-3));
#287=CARTESIAN_POINT('',(-9.759875472922E-3,1.571487370037E-3,
9.845831137885E-3));
#288=CARTESIAN_POINT('',(-9.794637815442E-3,1.553976389673E-3,
9.863384038011E-3));
#289=CARTESIAN_POINT('',(-9.819636379034E-3,1.529636429116E-3,
9.887694405693E-3));
#290=CARTESIAN_POINT('',(-9.838248608806E-3,1.495425015667E-3,
9.921899859078E-3));
#291=CARTESIAN_POINT('',(-9.842519685039E-3,1.469988405432E-3,
9.947334429840E-3));
#292=CARTESIAN_POINT('',(-9.842519685039E-3,1.456692914012E-3,
9.960629921260E-3));
#294=CURVE_STYLE('',#27,POSITIVE_LENGTH_MEASURE(2.E-2),#1);
#295=PRESENTATION_STYLE_ASSIGNMENT((#294));
#296=STYLED_ITEM('',(#295),#293);
#297=DIRECTION('',(0.E0,0.E0,-1.E0));
#298=VECTOR('',#297,9.055118110236E-3);
#299=CARTESIAN_POINT('',(-9.724409448819E-3,1.574803150233E-3,
1.889763779528E-2));
#300=LINE('',#299,#298);
#301=CURVE_STYLE('',#27,POSITIVE_LENGTH_MEASURE(2.E-2),#1);
#302=PRESENTATION_STYLE_ASSIGNMENT((#301));
#303=STYLED_ITEM('',(#302),#300);
#304=DIRECTION('',(0.E0,-1.E0,0.E0));
#305=VECTOR('',#304,1.299212598426E-2);
#306=CARTESIAN_POINT('',(-9.842519685039E-3,1.417322834709E-2,
1.956692913386E-2));
#307=LINE('',#306,#305);
#308=CURVE_STYLE('',#27,POSITIVE_LENGTH_MEASURE(2.E-2),#1);
#309=PRESENTATION_STYLE_ASSIGNMENT((#308));
#310=STYLED_ITEM('',(#309),#307);
#311=DIRECTION('',(0.E0,1.E0,0.E0));
#312=VECTOR('',#311,1.299212598426E-2);
#313=CARTESIAN_POINT('',(-9.724409448819E-3,1.181102362831E-3,
1.968503937008E-2));
#314=LINE('',#313,#312);
#315=CURVE_STYLE('',#27,POSITIVE_LENGTH_MEASURE(2.E-2),#1);
#316=PRESENTATION_STYLE_ASSIGNMENT((#315));
#317=STYLED_ITEM('',(#316),#314);
#318=CARTESIAN_POINT('',(-9.724409448819E-3,1.444881889827E-2,
1.929133858268E-2));
#319=DIRECTION('',(0.E0,0.E0,1.E0));
#320=DIRECTION('',(0.E0,1.E0,0.E0));
#321=AXIS2_PLACEMENT_3D('',#318,#319,#320);
#323=CURVE_STYLE('',#27,POSITIVE_LENGTH_MEASURE(2.E-2),#1);
#324=PRESENTATION_STYLE_ASSIGNMENT((#323));
#325=STYLED_ITEM('',(#324),#322);
#326=CARTESIAN_POINT('',(-9.724409448819E-3,1.417322834709E-2,
1.929133858268E-2));
#327=DIRECTION('',(-1.E0,0.E0,0.E0));
#328=DIRECTION('',(0.E0,0.E0,1.E0));
#329=AXIS2_PLACEMENT_3D('',#326,#327,#328);
#331=CURVE_STYLE('',#27,POSITIVE_LENGTH_MEASURE(2.E-2),#1);
#332=PRESENTATION_STYLE_ASSIGNMENT((#331));
#333=STYLED_ITEM('',(#332),#330);
#334=CARTESIAN_POINT('',(-9.724409448819E-3,1.417322834709E-2,
1.956692913386E-2));
#335=DIRECTION('',(0.E0,1.E0,0.E0));
#336=DIRECTION('',(-1.E0,0.E0,0.E0));
#337=AXIS2_PLACEMENT_3D('',#334,#335,#336);
#339=CURVE_STYLE('',#27,POSITIVE_LENGTH_MEASURE(2.E-2),#1);
#340=PRESENTATION_STYLE_ASSIGNMENT((#339));
#341=STYLED_ITEM('',(#340),#338);
#342=DIRECTION('',(0.E0,0.E0,1.E0));
#343=VECTOR('',#342,7.480314960630E-3);
#344=CARTESIAN_POINT('',(9.724409448819E-3,1.456692913449E-2,
1.181102362205E-2));
#345=LINE('',#344,#343);
#346=CURVE_STYLE('',#27,POSITIVE_LENGTH_MEASURE(2.E-2),#1);
#347=PRESENTATION_STYLE_ASSIGNMENT((#346));
#348=STYLED_ITEM('',(#347),#345);
#349=CARTESIAN_POINT('',(9.842519685039E-3,1.444881889827E-2,
1.192913385827E-2));
#350=CARTESIAN_POINT('',(9.842519685039E-3,1.446204078948E-2,
1.191591196706E-2));
#351=CARTESIAN_POINT('',(9.838351147273E-3,1.448751489760E-2,
1.189044096278E-2));
#352=CARTESIAN_POINT('',(9.819033375187E-3,1.452271476444E-2,
1.185524094200E-2));
#353=CARTESIAN_POINT('',(9.793159866348E-3,1.454728558784E-2,
1.183070849430E-2));
#354=CARTESIAN_POINT('',(9.757238722662E-3,1.456434958059E-2,
1.181359517449E-2));
#355=CARTESIAN_POINT('',(9.734999470150E-3,1.456692913449E-2,
1.181102362205E-2));
#356=CARTESIAN_POINT('',(9.724409448819E-3,1.456692913449E-2,
1.181102362205E-2));
#358=CURVE_STYLE('',#27,POSITIVE_LENGTH_MEASURE(2.E-2),#1);
#359=PRESENTATION_STYLE_ASSIGNMENT((#358));
#360=STYLED_ITEM('',(#359),#357);
#361=DIRECTION('',(0.E0,0.E0,-1.E0));
#362=VECTOR('',#361,7.362204724409E-3);
#363=CARTESIAN_POINT('',(9.842519685039E-3,1.444881889827E-2,
1.929133858268E-2));
#364=LINE('',#363,#362);
#365=CURVE_STYLE('',#27,POSITIVE_LENGTH_MEASURE(2.E-2),#1);
#366=PRESENTATION_STYLE_ASSIGNMENT((#365));
#367=STYLED_ITEM('',(#366),#364);
#368=CARTESIAN_POINT('',(9.724409448819E-3,1.417322834709E-2,
1.956692913386E-2));
#369=DIRECTION('',(0.E0,1.E0,0.E0));
#370=DIRECTION('',(0.E0,0.E0,1.E0));
#371=AXIS2_PLACEMENT_3D('',#368,#369,#370);
#373=CURVE_STYLE('',#27,POSITIVE_LENGTH_MEASURE(2.E-2),#1);
#374=PRESENTATION_STYLE_ASSIGNMENT((#373));
#375=STYLED_ITEM('',(#374),#372);
#376=CARTESIAN_POINT('',(9.724409448819E-3,1.417322834709E-2,
1.929133858268E-2));
#377=DIRECTION('',(1.E0,0.E0,0.E0));
#378=DIRECTION('',(0.E0,1.E0,0.E0));
#379=AXIS2_PLACEMENT_3D('',#376,#377,#378);
#381=CURVE_STYLE('',#27,POSITIVE_LENGTH_MEASURE(2.E-2),#1);
#382=PRESENTATION_STYLE_ASSIGNMENT((#381));
#383=STYLED_ITEM('',(#382),#380);
#384=CARTESIAN_POINT('',(9.724409448819E-3,1.444881889827E-2,
1.929133858268E-2));
#385=DIRECTION('',(0.E0,0.E0,1.E0));
#386=DIRECTION('',(1.E0,1.468732542994E-14,0.E0));
#387=AXIS2_PLACEMENT_3D('',#384,#385,#386);
#389=CURVE_STYLE('',#27,POSITIVE_LENGTH_MEASURE(2.E-2),#1);
#390=PRESENTATION_STYLE_ASSIGNMENT((#389));
#391=STYLED_ITEM('',(#390),#388);
#392=DIRECTION('',(0.E0,-1.E0,0.E0));
#393=VECTOR('',#392,1.299212598426E-2);
#394=CARTESIAN_POINT('',(9.724409448819E-3,1.417322834709E-2,
1.968503937008E-2));
#395=LINE('',#394,#393);
#396=CURVE_STYLE('',#27,POSITIVE_LENGTH_MEASURE(2.E-2),#1);
#397=PRESENTATION_STYLE_ASSIGNMENT((#396));
#398=STYLED_ITEM('',(#397),#395);
#399=DIRECTION('',(0.E0,1.E0,0.E0));
#400=VECTOR('',#399,1.299212598426E-2);
#401=CARTESIAN_POINT('',(9.842519685039E-3,1.181102362831E-3,
1.956692913386E-2));
#402=LINE('',#401,#400);
#403=CURVE_STYLE('',#27,POSITIVE_LENGTH_MEASURE(2.E-2),#1);
#404=PRESENTATION_STYLE_ASSIGNMENT((#403));
#405=STYLED_ITEM('',(#404),#402);
#406=CARTESIAN_POINT('',(9.724409448819E-3,9.055118116500E-4,
1.929133858268E-2));
#407=DIRECTION('',(0.E0,0.E0,1.E0));
#408=DIRECTION('',(0.E0,-1.E0,0.E0));
#409=AXIS2_PLACEMENT_3D('',#406,#407,#408);
#411=CURVE_STYLE('',#27,POSITIVE_LENGTH_MEASURE(2.E-2),#1);
#412=PRESENTATION_STYLE_ASSIGNMENT((#411));
#413=STYLED_ITEM('',(#412),#410);
#414=CARTESIAN_POINT('',(9.724409448819E-3,1.181102362831E-3,
1.929133858268E-2));
#415=DIRECTION('',(1.E0,0.E0,0.E0));
#416=DIRECTION('',(0.E0,0.E0,1.E0));
#417=AXIS2_PLACEMENT_3D('',#414,#415,#416);
#419=CURVE_STYLE('',#27,POSITIVE_LENGTH_MEASURE(2.E-2),#1);
#420=PRESENTATION_STYLE_ASSIGNMENT((#419));
#421=STYLED_ITEM('',(#420),#418);
#422=CARTESIAN_POINT('',(9.724409448819E-3,1.181102362831E-3,
1.956692913386E-2));
#423=DIRECTION('',(0.E0,-1.E0,0.E0));
#424=DIRECTION('',(1.E0,0.E0,0.E0));
#425=AXIS2_PLACEMENT_3D('',#422,#423,#424);
#427=CURVE_STYLE('',#27,POSITIVE_LENGTH_MEASURE(2.E-2),#1);
#428=PRESENTATION_STYLE_ASSIGNMENT((#427));
#429=STYLED_ITEM('',(#428),#426);
#430=DIRECTION('',(0.E0,0.E0,1.E0));
#431=VECTOR('',#430,9.330708661417E-3);
#432=CARTESIAN_POINT('',(9.842519685039E-3,9.055118116500E-4,
9.960629921260E-3));
#433=LINE('',#432,#431);
#434=CURVE_STYLE('',#27,POSITIVE_LENGTH_MEASURE(2.E-2),#1);
#435=PRESENTATION_STYLE_ASSIGNMENT((#434));
#436=STYLED_ITEM('',(#435),#433);
#437=CARTESIAN_POINT('',(9.724409448819E-3,7.874015754295E-4,
9.842519685039E-3));
#438=CARTESIAN_POINT('',(9.736123844629E-3,7.874015754295E-4,
9.842519685039E-3));
#439=CARTESIAN_POINT('',(9.759875472922E-3,7.907173556251E-4,
9.845831137885E-3));
#440=CARTESIAN_POINT('',(9.794637815442E-3,8.082283359888E-4,
9.863384038011E-3));
#441=CARTESIAN_POINT('',(9.819636379034E-3,8.325682965467E-4,
9.887694405693E-3));
#442=CARTESIAN_POINT('',(9.838248608806E-3,8.667797099951E-4,
9.921899859078E-3));
#443=CARTESIAN_POINT('',(9.842519685039E-3,8.922163202304E-4,
9.947334429840E-3));
#444=CARTESIAN_POINT('',(9.842519685039E-3,9.055118116500E-4,
9.960629921260E-3));
#446=CURVE_STYLE('',#27,POSITIVE_LENGTH_MEASURE(2.E-2),#1);
#447=PRESENTATION_STYLE_ASSIGNMENT((#446));
#448=STYLED_ITEM('',(#447),#445);
#449=DIRECTION('',(0.E0,0.E0,-1.E0));
#450=VECTOR('',#449,9.448818897638E-3);
#451=CARTESIAN_POINT('',(9.724409448819E-3,7.874015754295E-4,
1.929133858268E-2));
#452=LINE('',#451,#450);
#453=CURVE_STYLE('',#27,POSITIVE_LENGTH_MEASURE(2.E-2),#1);
#454=PRESENTATION_STYLE_ASSIGNMENT((#453));
#455=STYLED_ITEM('',(#454),#452);
#456=CARTESIAN_POINT('',(9.842519685039E-3,1.181102362831E-3,
1.929133858268E-2));
#457=DIRECTION('',(1.E0,0.E0,0.E0));
#458=DIRECTION('',(0.E0,0.E0,1.E0));
#459=AXIS2_PLACEMENT_3D('',#456,#457,#458);
#461=CURVE_STYLE('',#27,POSITIVE_LENGTH_MEASURE(2.E-2),#1);
#462=PRESENTATION_STYLE_ASSIGNMENT((#461));
#463=STYLED_ITEM('',(#462),#460);
#464=CARTESIAN_POINT('',(9.842519685039E-3,1.417322834709E-2,
1.929133858268E-2));
#465=DIRECTION('',(1.E0,0.E0,0.E0));
#466=DIRECTION('',(0.E0,1.E0,0.E0));
#467=AXIS2_PLACEMENT_3D('',#464,#465,#466);
#469=CURVE_STYLE('',#27,POSITIVE_LENGTH_MEASURE(2.E-2),#1);
#470=PRESENTATION_STYLE_ASSIGNMENT((#469));
#471=STYLED_ITEM('',(#470),#468);
#472=DIRECTION('',(0.E0,0.E0,1.E0));
#473=VECTOR('',#472,7.086614173228E-3);
#474=CARTESIAN_POINT('',(9.842519685039E-3,1.389763779591E-2,
1.192913385827E-2));
#475=LINE('',#474,#473);
#476=CURVE_STYLE('',#27,POSITIVE_LENGTH_MEASURE(2.E-2),#1);
#477=PRESENTATION_STYLE_ASSIGNMENT((#476));
#478=STYLED_ITEM('',(#477),#475);
#479=CARTESIAN_POINT('',(9.724409448819E-3,1.377952755969E-2,
1.181102362205E-2));
#480=CARTESIAN_POINT('',(9.736123844629E-3,1.377952755969E-2,
1.181102362205E-2));
#481=CARTESIAN_POINT('',(9.759875472922E-3,1.378284333988E-2,
1.181433507489E-2));
#482=CARTESIAN_POINT('',(9.794637815441E-3,1.380035432024E-2,
1.183188797502E-2));
#483=CARTESIAN_POINT('',(9.819636379033E-3,1.382469428080E-2,
1.185619834270E-2));
#484=CARTESIAN_POINT('',(9.838248608806E-3,1.385890569425E-2,
1.189040379609E-2));
#485=CARTESIAN_POINT('',(9.842519685039E-3,1.388434230449E-2,
1.191583836685E-2));
#486=CARTESIAN_POINT('',(9.842519685039E-3,1.389763779591E-2,
1.192913385827E-2));
#488=CURVE_STYLE('',#27,POSITIVE_LENGTH_MEASURE(2.E-2),#1);
#489=PRESENTATION_STYLE_ASSIGNMENT((#488));
#490=STYLED_ITEM('',(#489),#487);
#491=DIRECTION('',(0.E0,0.E0,-1.E0));
#492=VECTOR('',#491,7.086614173228E-3);
#493=CARTESIAN_POINT('',(9.724409448819E-3,1.377952755969E-2,
1.889763779528E-2));
#494=LINE('',#493,#492);
#495=CURVE_STYLE('',#27,POSITIVE_LENGTH_MEASURE(2.E-2),#1);
#496=PRESENTATION_STYLE_ASSIGNMENT((#495));
#497=STYLED_ITEM('',(#496),#494);
#498=DIRECTION('',(0.E0,-1.E0,0.E0));
#499=VECTOR('',#498,1.244094488189E-2);
#500=CARTESIAN_POINT('',(9.842519685039E-3,1.389763779591E-2,
1.901574803150E-2));
#501=LINE('',#500,#499);
#502=CURVE_STYLE('',#27,POSITIVE_LENGTH_MEASURE(2.E-2),#1);
#503=PRESENTATION_STYLE_ASSIGNMENT((#502));
#504=STYLED_ITEM('',(#503),#501);
#505=CARTESIAN_POINT('',(9.724409448819E-3,1.377952755969E-2,
1.889763779528E-2));
#506=CARTESIAN_POINT('',(9.736123844629E-3,1.377952755969E-2,
1.889763779528E-2));
#507=CARTESIAN_POINT('',(9.759875472922E-3,1.378283901253E-2,
1.890095357547E-2));
#508=CARTESIAN_POINT('',(9.794637815441E-3,1.380039191266E-2,
1.891846455583E-2));
#509=CARTESIAN_POINT('',(9.819636379033E-3,1.382470228034E-2,
1.894280451639E-2));
#510=CARTESIAN_POINT('',(9.838248608806E-3,1.385890773372E-2,
1.897701592984E-2));
#511=CARTESIAN_POINT('',(9.842519685039E-3,1.388434230449E-2,
1.900245254008E-2));
#512=CARTESIAN_POINT('',(9.842519685039E-3,1.389763779591E-2,
1.901574803150E-2));
#514=CURVE_STYLE('',#27,POSITIVE_LENGTH_MEASURE(2.E-2),#1);
#515=PRESENTATION_STYLE_ASSIGNMENT((#514));
#516=STYLED_ITEM('',(#515),#513);
#517=DIRECTION('',(0.E0,1.E0,0.E0));
#518=VECTOR('',#517,1.220472440945E-2);
#519=CARTESIAN_POINT('',(9.724409448819E-3,1.574803150233E-3,
1.889763779528E-2));
#520=LINE('',#519,#518);
#521=CURVE_STYLE('',#27,POSITIVE_LENGTH_MEASURE(2.E-2),#1);
#522=PRESENTATION_STYLE_ASSIGNMENT((#521));
#523=STYLED_ITEM('',(#522),#520);
#524=DIRECTION('',(0.E0,0.E0,-1.E0));
#525=VECTOR('',#524,9.055118110236E-3);
#526=CARTESIAN_POINT('',(9.842519685039E-3,1.456692914012E-3,
1.901574803150E-2));
#527=LINE('',#526,#525);
#528=CURVE_STYLE('',#27,POSITIVE_LENGTH_MEASURE(2.E-2),#1);
#529=PRESENTATION_STYLE_ASSIGNMENT((#528));
#530=STYLED_ITEM('',(#529),#527);
#531=CARTESIAN_POINT('',(9.724409448819E-3,1.574803150233E-3,
1.889763779528E-2));
#532=CARTESIAN_POINT('',(9.736123844629E-3,1.574803150233E-3,
1.889763779528E-2));
#533=CARTESIAN_POINT('',(9.759875472922E-3,1.571487370037E-3,
1.890094924812E-2));
#534=CARTESIAN_POINT('',(9.794637815442E-3,1.553976389673E-3,
1.891850214825E-2));
#535=CARTESIAN_POINT('',(9.819636379034E-3,1.529636429116E-3,
1.894281251593E-2));
#536=CARTESIAN_POINT('',(9.838248608806E-3,1.495425015667E-3,
1.897701796931E-2));
#537=CARTESIAN_POINT('',(9.842519685039E-3,1.469988405432E-3,
1.900245254008E-2));
#538=CARTESIAN_POINT('',(9.842519685039E-3,1.456692914012E-3,
1.901574803150E-2));
#540=CURVE_STYLE('',#27,POSITIVE_LENGTH_MEASURE(2.E-2),#1);
#541=PRESENTATION_STYLE_ASSIGNMENT((#540));
#542=STYLED_ITEM('',(#541),#539);
#543=DIRECTION('',(0.E0,0.E0,1.E0));
#544=VECTOR('',#543,9.055118110236E-3);
#545=CARTESIAN_POINT('',(9.724409448819E-3,1.574803150233E-3,
9.842519685039E-3));
#546=LINE('',#545,#544);
#547=CURVE_STYLE('',#27,POSITIVE_LENGTH_MEASURE(2.E-2),#1);
#548=PRESENTATION_STYLE_ASSIGNMENT((#547));
#549=STYLED_ITEM('',(#548),#546);
#550=DIRECTION('',(0.E0,-1.E0,0.E0));
#551=VECTOR('',#550,5.511811023622E-4);
#552=CARTESIAN_POINT('',(9.842519685039E-3,1.456692914012E-3,
9.960629921260E-3));
#553=LINE('',#552,#551);
#554=CURVE_STYLE('',#27,POSITIVE_LENGTH_MEASURE(2.E-2),#1);
#555=PRESENTATION_STYLE_ASSIGNMENT((#554));
#556=STYLED_ITEM('',(#555),#553);
#557=CARTESIAN_POINT('',(9.724409448819E-3,1.574803150233E-3,
9.842519685039E-3));
#558=CARTESIAN_POINT('',(9.736123844629E-3,1.574803150233E-3,
9.842519685039E-3));
#559=CARTESIAN_POINT('',(9.759875472921E-3,1.571491697387E-3,
9.845835465235E-3));
#560=CARTESIAN_POINT('',(9.794637815441E-3,1.553938797260E-3,
9.863346445598E-3));
#561=CARTESIAN_POINT('',(9.819636379032E-3,1.529628429578E-3,
9.887686406155E-3));
#562=CARTESIAN_POINT('',(9.838248608806E-3,1.495422976192E-3,
9.921897819603E-3));
#563=CARTESIAN_POINT('',(9.842519685039E-3,1.469988405432E-3,
9.947334429840E-3));
#564=CARTESIAN_POINT('',(9.842519685039E-3,1.456692914012E-3,
9.960629921260E-3));
#566=CURVE_STYLE('',#27,POSITIVE_LENGTH_MEASURE(2.E-2),#1);
#567=PRESENTATION_STYLE_ASSIGNMENT((#566));
#568=STYLED_ITEM('',(#567),#565);
#569=DIRECTION('',(0.E0,1.E0,0.E0));
#570=VECTOR('',#569,7.874015748031E-4);
#571=CARTESIAN_POINT('',(9.724409448819E-3,7.874015754295E-4,
9.842519685039E-3));
#572=LINE('',#571,#570);
#573=CURVE_STYLE('',#27,POSITIVE_LENGTH_MEASURE(2.E-2),#1);
#574=PRESENTATION_STYLE_ASSIGNMENT((#573));
#575=STYLED_ITEM('',(#574),#572);
#576=DIRECTION('',(0.E0,-1.E0,0.E0));
#577=VECTOR('',#576,5.511811023622E-4);
#578=CARTESIAN_POINT('',(9.842519685039E-3,1.444881889827E-2,
1.192913385827E-2));
#579=LINE('',#578,#577);
#580=CURVE_STYLE('',#27,POSITIVE_LENGTH_MEASURE(2.E-2),#1);
#581=PRESENTATION_STYLE_ASSIGNMENT((#580));
#582=STYLED_ITEM('',(#581),#579);
#583=DIRECTION('',(0.E0,1.E0,0.E0));
#584=VECTOR('',#583,7.874015748031E-4);
#585=CARTESIAN_POINT('',(9.724409448819E-3,1.377952755969E-2,
1.181102362205E-2));
#586=LINE('',#585,#584);
#587=CURVE_STYLE('',#27,POSITIVE_LENGTH_MEASURE(2.E-2),#1);
#588=PRESENTATION_STYLE_ASSIGNMENT((#587));
#589=STYLED_ITEM('',(#588),#586);
#590=CARTESIAN_POINT('',(-9.724409448819E-3,1.417322834709E-2,
1.968503937008E-2));
#591=CARTESIAN_POINT('',(9.724409448819E-3,1.417322834709E-2,
1.968503937008E-2));
#592=VERTEX_POINT('',#590);
#593=VERTEX_POINT('',#591);
#594=CARTESIAN_POINT('',(9.724409448819E-3,1.456692913449E-2,
1.929133858268E-2));
#595=VERTEX_POINT('',#594);
#596=CARTESIAN_POINT('',(-9.724409448819E-3,1.456692913449E-2,
1.929133858268E-2));
#597=VERTEX_POINT('',#596);
#598=CARTESIAN_POINT('',(9.724409448819E-3,1.456692913449E-2,
1.181102362205E-2));
#599=VERTEX_POINT('',#598);
#600=CARTESIAN_POINT('',(-9.724409448819E-3,1.456692913449E-2,
1.181102362205E-2));
#601=VERTEX_POINT('',#600);
#602=CARTESIAN_POINT('',(9.724409448819E-3,1.377952755969E-2,
1.181102362205E-2));
#603=VERTEX_POINT('',#602);
#604=CARTESIAN_POINT('',(-9.724409448819E-3,1.377952755969E-2,
1.181102362205E-2));
#605=VERTEX_POINT('',#604);
#606=CARTESIAN_POINT('',(9.724409448819E-3,1.377952755969E-2,
1.889763779528E-2));
#607=VERTEX_POINT('',#606);
#608=CARTESIAN_POINT('',(-9.724409448819E-3,1.377952755969E-2,
1.889763779528E-2));
#609=VERTEX_POINT('',#608);
#610=CARTESIAN_POINT('',(9.724409448819E-3,1.574803150233E-3,
1.889763779528E-2));
#611=VERTEX_POINT('',#610);
#612=CARTESIAN_POINT('',(-9.724409448819E-3,1.574803150233E-3,
1.889763779528E-2));
#613=VERTEX_POINT('',#612);
#614=CARTESIAN_POINT('',(9.724409448819E-3,1.574803150233E-3,
9.842519685039E-3));
#615=VERTEX_POINT('',#614);
#616=CARTESIAN_POINT('',(-9.724409448819E-3,1.574803150233E-3,
9.842519685039E-3));
#617=VERTEX_POINT('',#616);
#618=CARTESIAN_POINT('',(9.724409448819E-3,7.874015754295E-4,
9.842519685039E-3));
#619=VERTEX_POINT('',#618);
#620=CARTESIAN_POINT('',(-9.724409448819E-3,7.874015754295E-4,
9.842519685039E-3));
#621=VERTEX_POINT('',#620);
#622=CARTESIAN_POINT('',(9.724409448819E-3,7.874015754295E-4,
1.929133858268E-2));
#623=VERTEX_POINT('',#622);
#624=CARTESIAN_POINT('',(-9.724409448819E-3,7.874015754295E-4,
1.929133858268E-2));
#625=VERTEX_POINT('',#624);
#626=CARTESIAN_POINT('',(9.724409448819E-3,1.181102362831E-3,
1.968503937008E-2));
#627=VERTEX_POINT('',#626);
#628=CARTESIAN_POINT('',(-9.724409448819E-3,1.181102362831E-3,
1.968503937008E-2));
#629=VERTEX_POINT('',#628);
#630=CARTESIAN_POINT('',(-9.842519685039E-3,9.055118116500E-4,
1.929133858268E-2));
#631=CARTESIAN_POINT('',(-9.842519685039E-3,1.181102362831E-3,
1.956692913386E-2));
#632=VERTEX_POINT('',#630);
#633=VERTEX_POINT('',#631);
#634=CARTESIAN_POINT('',(-9.842519685039E-3,1.417322834709E-2,
1.956692913386E-2));
#635=VERTEX_POINT('',#634);
#636=CARTESIAN_POINT('',(-9.842519685039E-3,1.444881889827E-2,
1.929133858268E-2));
#637=VERTEX_POINT('',#636);
#638=CARTESIAN_POINT('',(-9.842519685039E-3,1.444881889827E-2,
1.192913385827E-2));
#639=VERTEX_POINT('',#638);
#640=CARTESIAN_POINT('',(-9.842519685039E-3,1.389763779591E-2,
1.192913385827E-2));
#641=VERTEX_POINT('',#640);
#642=CARTESIAN_POINT('',(-9.842519685039E-3,1.389763779591E-2,
1.901574803150E-2));
#643=VERTEX_POINT('',#642);
#644=CARTESIAN_POINT('',(-9.842519685039E-3,1.456692914012E-3,
1.901574803150E-2));
#645=VERTEX_POINT('',#644);
#646=CARTESIAN_POINT('',(-9.842519685039E-3,1.456692914012E-3,
9.960629921260E-3));
#647=VERTEX_POINT('',#646);
#648=CARTESIAN_POINT('',(-9.842519685039E-3,9.055118116500E-4,
9.960629921260E-3));
#649=VERTEX_POINT('',#648);
#650=CARTESIAN_POINT('',(9.842519685039E-3,1.389763779591E-2,
1.192913385827E-2));
#651=CARTESIAN_POINT('',(9.842519685039E-3,1.389763779591E-2,
1.901574803150E-2));
#652=VERTEX_POINT('',#650);
#653=VERTEX_POINT('',#651);
#654=CARTESIAN_POINT('',(9.842519685039E-3,1.444881889827E-2,
1.192913385827E-2));
#655=VERTEX_POINT('',#654);
#656=CARTESIAN_POINT('',(9.842519685039E-3,1.444881889827E-2,
1.929133858268E-2));
#657=VERTEX_POINT('',#656);
#658=CARTESIAN_POINT('',(9.842519685039E-3,1.417322834709E-2,
1.956692913386E-2));
#659=VERTEX_POINT('',#658);
#660=CARTESIAN_POINT('',(9.842519685039E-3,1.181102362831E-3,
1.956692913386E-2));
#661=VERTEX_POINT('',#660);
#662=CARTESIAN_POINT('',(9.842519685039E-3,9.055118116500E-4,
1.929133858268E-2));
#663=VERTEX_POINT('',#662);
#664=CARTESIAN_POINT('',(9.842519685039E-3,9.055118116500E-4,
9.960629921260E-3));
#665=VERTEX_POINT('',#664);
#666=CARTESIAN_POINT('',(9.842519685039E-3,1.456692914012E-3,
9.960629921260E-3));
#667=VERTEX_POINT('',#666);
#668=CARTESIAN_POINT('',(9.842519685039E-3,1.456692914012E-3,
1.901574803150E-2));
#669=VERTEX_POINT('',#668);
#670=CARTESIAN_POINT('',(-2.677623084063E-2,1.417322834709E-2,
1.929133858268E-2));
#671=DIRECTION('',(1.E0,0.E0,0.E0));
#672=DIRECTION('',(0.E0,0.E0,-1.E0));
#673=AXIS2_PLACEMENT_3D('',#670,#671,#672);
#674=CYLINDRICAL_SURFACE('',#673,3.937007874016E-4);
#676=ORIENTED_EDGE('',*,*,#675,.F.);
#678=ORIENTED_EDGE('',*,*,#677,.T.);
#680=ORIENTED_EDGE('',*,*,#679,.F.);
#682=ORIENTED_EDGE('',*,*,#681,.T.);
#683=EDGE_LOOP('',(#676,#678,#680,#682));
#684=FACE_OUTER_BOUND('',#683,.F.);
#686=CARTESIAN_POINT('',(-2.677623084063E-2,1.181102362831E-3,
1.968503937008E-2));
#687=DIRECTION('',(0.E0,0.E0,1.E0));
#688=DIRECTION('',(1.E0,0.E0,0.E0));
#689=AXIS2_PLACEMENT_3D('',#686,#687,#688);
#690=PLANE('',#689);
#692=ORIENTED_EDGE('',*,*,#691,.T.);
#694=ORIENTED_EDGE('',*,*,#693,.T.);
#695=ORIENTED_EDGE('',*,*,#675,.T.);
#697=ORIENTED_EDGE('',*,*,#696,.T.);
#698=EDGE_LOOP('',(#692,#694,#695,#697));
#699=FACE_OUTER_BOUND('',#698,.F.);
#701=CARTESIAN_POINT('',(-2.677623084063E-2,1.181102362831E-3,
1.929133858268E-2));
#702=DIRECTION('',(1.E0,0.E0,0.E0));
#703=DIRECTION('',(0.E0,0.E0,-1.E0));
#704=AXIS2_PLACEMENT_3D('',#701,#702,#703);
#705=CYLINDRICAL_SURFACE('',#704,3.937007874016E-4);
#707=ORIENTED_EDGE('',*,*,#706,.F.);
#709=ORIENTED_EDGE('',*,*,#708,.T.);
#710=ORIENTED_EDGE('',*,*,#691,.F.);
#712=ORIENTED_EDGE('',*,*,#711,.T.);
#713=EDGE_LOOP('',(#707,#709,#710,#712));
#714=FACE_OUTER_BOUND('',#713,.F.);
#716=CARTESIAN_POINT('',(-2.677623084063E-2,7.874015754295E-4,
1.929133858268E-2));
#717=DIRECTION('',(0.E0,-1.E0,0.E0));
#718=DIRECTION('',(0.E0,0.E0,-1.E0));
#719=AXIS2_PLACEMENT_3D('',#716,#717,#718);
#720=PLANE('',#719);
#722=ORIENTED_EDGE('',*,*,#721,.T.);
#724=ORIENTED_EDGE('',*,*,#723,.T.);
#725=ORIENTED_EDGE('',*,*,#706,.T.);
#727=ORIENTED_EDGE('',*,*,#726,.T.);
#728=EDGE_LOOP('',(#722,#724,#725,#727));
#729=FACE_OUTER_BOUND('',#728,.F.);
#731=CARTESIAN_POINT('',(-2.677623084063E-2,1.574803150233E-3,
9.842519685039E-3));
#732=DIRECTION('',(0.E0,0.E0,-1.E0));
#733=DIRECTION('',(-1.E0,0.E0,0.E0));
#734=AXIS2_PLACEMENT_3D('',#731,#732,#733);
#735=PLANE('',#734);
#737=ORIENTED_EDGE('',*,*,#736,.T.);
#739=ORIENTED_EDGE('',*,*,#738,.T.);
#740=ORIENTED_EDGE('',*,*,#721,.F.);
#742=ORIENTED_EDGE('',*,*,#741,.T.);
#743=EDGE_LOOP('',(#737,#739,#740,#742));
#744=FACE_OUTER_BOUND('',#743,.F.);
#746=CARTESIAN_POINT('',(-2.677623084063E-2,1.574803150233E-3,
1.889763779528E-2));
#747=DIRECTION('',(0.E0,1.E0,0.E0));
#748=DIRECTION('',(0.E0,0.E0,1.E0));
#749=AXIS2_PLACEMENT_3D('',#746,#747,#748);
#750=PLANE('',#749);
#752=ORIENTED_EDGE('',*,*,#751,.T.);
#754=ORIENTED_EDGE('',*,*,#753,.T.);
#755=ORIENTED_EDGE('',*,*,#736,.F.);
#757=ORIENTED_EDGE('',*,*,#756,.T.);
#758=EDGE_LOOP('',(#752,#754,#755,#757));
#759=FACE_OUTER_BOUND('',#758,.F.);
#761=CARTESIAN_POINT('',(-2.677623084063E-2,1.574803150233E-3,
1.889763779528E-2));
#762=DIRECTION('',(0.E0,0.E0,-1.E0));
#763=DIRECTION('',(-1.E0,0.E0,0.E0));
#764=AXIS2_PLACEMENT_3D('',#761,#762,#763);
#765=PLANE('',#764);
#767=ORIENTED_EDGE('',*,*,#766,.T.);
#769=ORIENTED_EDGE('',*,*,#768,.T.);
#770=ORIENTED_EDGE('',*,*,#751,.F.);
#772=ORIENTED_EDGE('',*,*,#771,.T.);
#773=EDGE_LOOP('',(#767,#769,#770,#772));
#774=FACE_OUTER_BOUND('',#773,.F.);
#776=CARTESIAN_POINT('',(-2.677623084063E-2,1.377952755969E-2,
1.889763779528E-2));
#777=DIRECTION('',(0.E0,-1.E0,0.E0));
#778=DIRECTION('',(0.E0,0.E0,-1.E0));
#779=AXIS2_PLACEMENT_3D('',#776,#777,#778);
#780=PLANE('',#779);
#782=ORIENTED_EDGE('',*,*,#781,.T.);
#784=ORIENTED_EDGE('',*,*,#783,.T.);
#785=ORIENTED_EDGE('',*,*,#766,.F.);
#787=ORIENTED_EDGE('',*,*,#786,.T.);
#788=EDGE_LOOP('',(#782,#784,#785,#787));
#789=FACE_OUTER_BOUND('',#788,.F.);
#791=CARTESIAN_POINT('',(-2.677623084063E-2,1.456692913449E-2,
1.181102362205E-2));
#792=DIRECTION('',(0.E0,0.E0,-1.E0));
#793=DIRECTION('',(-1.E0,0.E0,0.E0));
#794=AXIS2_PLACEMENT_3D('',#791,#792,#793);
#795=PLANE('',#794);
#797=ORIENTED_EDGE('',*,*,#796,.T.);
#799=ORIENTED_EDGE('',*,*,#798,.T.);
#800=ORIENTED_EDGE('',*,*,#781,.F.);
#802=ORIENTED_EDGE('',*,*,#801,.T.);
#803=EDGE_LOOP('',(#797,#799,#800,#802));
#804=FACE_OUTER_BOUND('',#803,.F.);
#806=CARTESIAN_POINT('',(-2.677623084063E-2,1.456692913449E-2,
1.929133858268E-2));
#807=DIRECTION('',(0.E0,1.E0,0.E0));
#808=DIRECTION('',(0.E0,0.E0,1.E0));
#809=AXIS2_PLACEMENT_3D('',#806,#807,#808);
#810=PLANE('',#809);
#811=ORIENTED_EDGE('',*,*,#679,.T.);
#813=ORIENTED_EDGE('',*,*,#812,.T.);
#814=ORIENTED_EDGE('',*,*,#796,.F.);
#816=ORIENTED_EDGE('',*,*,#815,.T.);
#817=EDGE_LOOP('',(#811,#813,#814,#816));
#818=FACE_OUTER_BOUND('',#817,.F.);
#820=CARTESIAN_POINT('',(-9.724409448819E-3,1.444881889827E-2,0.E0));
#821=DIRECTION('',(0.E0,0.E0,1.E0));
#822=DIRECTION('',(1.E0,0.E0,0.E0));
#823=AXIS2_PLACEMENT_3D('',#820,#821,#822);
#824=CYLINDRICAL_SURFACE('',#823,1.181102362205E-4);
#826=ORIENTED_EDGE('',*,*,#825,.T.);
#827=ORIENTED_EDGE('',*,*,#812,.F.);
#829=ORIENTED_EDGE('',*,*,#828,.T.);
#831=ORIENTED_EDGE('',*,*,#830,.F.);
#832=EDGE_LOOP('',(#826,#827,#829,#831));
#833=FACE_OUTER_BOUND('',#832,.F.);
#835=CARTESIAN_POINT('',(-9.724409448819E-3,0.E0,1.192913385827E-2));
#836=DIRECTION('',(0.E0,1.E0,0.E0));
#837=DIRECTION('',(0.E0,0.E0,1.E0));
#838=AXIS2_PLACEMENT_3D('',#835,#836,#837);
#839=CYLINDRICAL_SURFACE('',#838,1.181102362205E-4);
#841=ORIENTED_EDGE('',*,*,#840,.T.);
#842=ORIENTED_EDGE('',*,*,#798,.F.);
#843=ORIENTED_EDGE('',*,*,#825,.F.);
#845=ORIENTED_EDGE('',*,*,#844,.F.);
#846=EDGE_LOOP('',(#841,#842,#843,#845));
#847=FACE_OUTER_BOUND('',#846,.F.);
#849=CARTESIAN_POINT('',(-9.724409448819E-3,1.389763779591E-2,0.E0));
#850=DIRECTION('',(0.E0,0.E0,-1.E0));
#851=DIRECTION('',(0.E0,1.E0,0.E0));
#852=AXIS2_PLACEMENT_3D('',#849,#850,#851);
#853=CYLINDRICAL_SURFACE('',#852,1.181102362205E-4);
#855=ORIENTED_EDGE('',*,*,#854,.T.);
#856=ORIENTED_EDGE('',*,*,#783,.F.);
#857=ORIENTED_EDGE('',*,*,#840,.F.);
#859=ORIENTED_EDGE('',*,*,#858,.F.);
#860=EDGE_LOOP('',(#855,#856,#857,#859));
#861=FACE_OUTER_BOUND('',#860,.F.);
#863=CARTESIAN_POINT('',(-9.724409448819E-3,0.E0,1.901574803150E-2));
#864=DIRECTION('',(0.E0,1.E0,0.E0));
#865=DIRECTION('',(0.E0,0.E0,1.E0));
#866=AXIS2_PLACEMENT_3D('',#863,#864,#865);
#867=CYLINDRICAL_SURFACE('',#866,1.181102362205E-4);
#868=ORIENTED_EDGE('',*,*,#854,.F.);
#870=ORIENTED_EDGE('',*,*,#869,.F.);
#872=ORIENTED_EDGE('',*,*,#871,.F.);
#873=ORIENTED_EDGE('',*,*,#768,.F.);
#874=EDGE_LOOP('',(#868,#870,#872,#873));
#875=FACE_OUTER_BOUND('',#874,.F.);
#877=CARTESIAN_POINT('',(-9.842519685039E-3,0.E0,0.E0));
#878=DIRECTION('',(1.E0,0.E0,0.E0));
#879=DIRECTION('',(0.E0,0.E0,-1.E0));
#880=AXIS2_PLACEMENT_3D('',#877,#878,#879);
#881=PLANE('',#880);
#883=ORIENTED_EDGE('',*,*,#882,.F.);
#885=ORIENTED_EDGE('',*,*,#884,.T.);
#887=ORIENTED_EDGE('',*,*,#886,.T.);
#889=ORIENTED_EDGE('',*,*,#888,.T.);
#890=ORIENTED_EDGE('',*,*,#869,.T.);
#891=ORIENTED_EDGE('',*,*,#858,.T.);
#892=ORIENTED_EDGE('',*,*,#844,.T.);
#893=ORIENTED_EDGE('',*,*,#830,.T.);
#895=ORIENTED_EDGE('',*,*,#894,.F.);
#897=ORIENTED_EDGE('',*,*,#896,.T.);
#898=EDGE_LOOP('',(#883,#885,#887,#889,#890,#891,#892,#893,#895,#897));
#899=FACE_OUTER_BOUND('',#898,.F.);
#901=CARTESIAN_POINT('',(-9.724409448819E-3,1.181102362831E-3,
1.929133858268E-2));
#902=DIRECTION('',(1.E0,0.E0,0.E0));
#903=DIRECTION('',(0.E0,0.E0,-1.E0));
#904=AXIS2_PLACEMENT_3D('',#901,#902,#903);
#905=TOROIDAL_SURFACE('',#904,2.755905511811E-4,1.181102362205E-4);
#907=ORIENTED_EDGE('',*,*,#906,.F.);
#908=ORIENTED_EDGE('',*,*,#882,.T.);
#910=ORIENTED_EDGE('',*,*,#909,.F.);
#911=ORIENTED_EDGE('',*,*,#708,.F.);
#912=EDGE_LOOP('',(#907,#908,#910,#911));
#913=FACE_OUTER_BOUND('',#912,.F.);
#915=CARTESIAN_POINT('',(-9.724409448819E-3,9.055118116500E-4,0.E0));
#916=DIRECTION('',(0.E0,0.E0,-1.E0));
#917=DIRECTION('',(0.E0,1.E0,0.E0));
#918=AXIS2_PLACEMENT_3D('',#915,#916,#917);
#919=CYLINDRICAL_SURFACE('',#918,1.181102362205E-4);
#921=ORIENTED_EDGE('',*,*,#920,.T.);
#922=ORIENTED_EDGE('',*,*,#884,.F.);
#923=ORIENTED_EDGE('',*,*,#906,.T.);
#924=ORIENTED_EDGE('',*,*,#723,.F.);
#925=EDGE_LOOP('',(#921,#922,#923,#924));
#926=FACE_OUTER_BOUND('',#925,.F.);
#928=CARTESIAN_POINT('',(-9.724409448819E-3,0.E0,9.960629921260E-3));
#929=DIRECTION('',(0.E0,1.E0,0.E0));
#930=DIRECTION('',(0.E0,0.E0,1.E0));
#931=AXIS2_PLACEMENT_3D('',#928,#929,#930);
#932=CYLINDRICAL_SURFACE('',#931,1.181102362205E-4);
#934=ORIENTED_EDGE('',*,*,#933,.T.);
#935=ORIENTED_EDGE('',*,*,#886,.F.);
#936=ORIENTED_EDGE('',*,*,#920,.F.);
#937=ORIENTED_EDGE('',*,*,#738,.F.);
#938=EDGE_LOOP('',(#934,#935,#936,#937));
#939=FACE_OUTER_BOUND('',#938,.F.);
#941=CARTESIAN_POINT('',(-9.724409448819E-3,1.456692914012E-3,0.E0));
#942=DIRECTION('',(0.E0,0.E0,1.E0));
#943=DIRECTION('',(1.E0,0.E0,0.E0));
#944=AXIS2_PLACEMENT_3D('',#941,#942,#943);
#945=CYLINDRICAL_SURFACE('',#944,1.181102362205E-4);
#946=ORIENTED_EDGE('',*,*,#871,.T.);
#947=ORIENTED_EDGE('',*,*,#888,.F.);
#948=ORIENTED_EDGE('',*,*,#933,.F.);
#949=ORIENTED_EDGE('',*,*,#753,.F.);
#950=EDGE_LOOP('',(#946,#947,#948,#949));
#951=FACE_OUTER_BOUND('',#950,.F.);
#953=CARTESIAN_POINT('',(-9.724409448819E-3,0.E0,1.956692913386E-2));
#954=DIRECTION('',(0.E0,-1.E0,0.E0));
#955=DIRECTION('',(0.E0,0.E0,-1.E0));
#956=AXIS2_PLACEMENT_3D('',#953,#954,#955);
#957=CYLINDRICAL_SURFACE('',#956,1.181102362205E-4);
#958=ORIENTED_EDGE('',*,*,#909,.T.);
#959=ORIENTED_EDGE('',*,*,#896,.F.);
#961=ORIENTED_EDGE('',*,*,#960,.T.);
#962=ORIENTED_EDGE('',*,*,#693,.F.);
#963=EDGE_LOOP('',(#958,#959,#961,#962));
#964=FACE_OUTER_BOUND('',#963,.F.);
#966=CARTESIAN_POINT('',(-9.724409448819E-3,1.417322834709E-2,
1.929133858268E-2));
#967=DIRECTION('',(1.E0,0.E0,0.E0));
#968=DIRECTION('',(0.E0,0.E0,-1.E0));
#969=AXIS2_PLACEMENT_3D('',#966,#967,#968);
#970=TOROIDAL_SURFACE('',#969,2.755905511811E-4,1.181102362205E-4);
#971=ORIENTED_EDGE('',*,*,#828,.F.);
#972=ORIENTED_EDGE('',*,*,#677,.F.);
#973=ORIENTED_EDGE('',*,*,#960,.F.);
#974=ORIENTED_EDGE('',*,*,#894,.T.);
#975=EDGE_LOOP('',(#971,#972,#973,#974));
#976=FACE_OUTER_BOUND('',#975,.F.);
#978=CARTESIAN_POINT('',(9.724409448819E-3,1.444881889827E-2,0.E0));
#979=DIRECTION('',(0.E0,0.E0,1.E0));
#980=DIRECTION('',(1.E0,0.E0,0.E0));
#981=AXIS2_PLACEMENT_3D('',#978,#979,#980);
#982=CYLINDRICAL_SURFACE('',#981,1.181102362205E-4);
#984=ORIENTED_EDGE('',*,*,#983,.T.);
#985=ORIENTED_EDGE('',*,*,#815,.F.);
#987=ORIENTED_EDGE('',*,*,#986,.F.);
#989=ORIENTED_EDGE('',*,*,#988,.F.);
#990=EDGE_LOOP('',(#984,#985,#987,#989));
#991=FACE_OUTER_BOUND('',#990,.F.);
#993=CARTESIAN_POINT('',(9.724409448819E-3,1.417322834709E-2,
1.929133858268E-2));
#994=DIRECTION('',(1.E0,0.E0,0.E0));
#995=DIRECTION('',(0.E0,0.E0,-1.E0));
#996=AXIS2_PLACEMENT_3D('',#993,#994,#995);
#997=TOROIDAL_SURFACE('',#996,2.755905511811E-4,1.181102362205E-4);
#999=ORIENTED_EDGE('',*,*,#998,.F.);
#1000=ORIENTED_EDGE('',*,*,#681,.F.);
#1001=ORIENTED_EDGE('',*,*,#983,.F.);
#1003=ORIENTED_EDGE('',*,*,#1002,.T.);
#1004=EDGE_LOOP('',(#999,#1000,#1001,#1003));
#1005=FACE_OUTER_BOUND('',#1004,.F.);
#1007=CARTESIAN_POINT('',(9.724409448819E-3,0.E0,1.956692913386E-2));
#1008=DIRECTION('',(0.E0,-1.E0,0.E0));
#1009=DIRECTION('',(0.E0,0.E0,-1.E0));
#1010=AXIS2_PLACEMENT_3D('',#1007,#1008,#1009);
#1011=CYLINDRICAL_SURFACE('',#1010,1.181102362205E-4);
#1013=ORIENTED_EDGE('',*,*,#1012,.T.);
#1014=ORIENTED_EDGE('',*,*,#696,.F.);
#1015=ORIENTED_EDGE('',*,*,#998,.T.);
#1017=ORIENTED_EDGE('',*,*,#1016,.F.);
#1018=EDGE_LOOP('',(#1013,#1014,#1015,#1017));
#1019=FACE_OUTER_BOUND('',#1018,.F.);
#1021=CARTESIAN_POINT('',(9.724409448819E-3,1.181102362831E-3,
1.929133858268E-2));
#1022=DIRECTION('',(1.E0,0.E0,0.E0));
#1023=DIRECTION('',(0.E0,0.E0,-1.E0));
#1024=AXIS2_PLACEMENT_3D('',#1021,#1022,#1023);
#1025=TOROIDAL_SURFACE('',#1024,2.755905511811E-4,1.181102362205E-4);
#1027=ORIENTED_EDGE('',*,*,#1026,.F.);
#1028=ORIENTED_EDGE('',*,*,#711,.F.);
#1029=ORIENTED_EDGE('',*,*,#1012,.F.);
#1031=ORIENTED_EDGE('',*,*,#1030,.T.);
#1032=EDGE_LOOP('',(#1027,#1028,#1029,#1031));
#1033=FACE_OUTER_BOUND('',#1032,.F.);
#1035=CARTESIAN_POINT('',(9.724409448819E-3,9.055118116500E-4,0.E0));
#1036=DIRECTION('',(0.E0,0.E0,-1.E0));
#1037=DIRECTION('',(0.E0,1.E0,0.E0));
#1038=AXIS2_PLACEMENT_3D('',#1035,#1036,#1037);
#1039=CYLINDRICAL_SURFACE('',#1038,1.181102362205E-4);
#1040=ORIENTED_EDGE('',*,*,#1026,.T.);
#1042=ORIENTED_EDGE('',*,*,#1041,.F.);
#1044=ORIENTED_EDGE('',*,*,#1043,.F.);
#1045=ORIENTED_EDGE('',*,*,#726,.F.);
#1046=EDGE_LOOP('',(#1040,#1042,#1044,#1045));
#1047=FACE_OUTER_BOUND('',#1046,.F.);
#1049=CARTESIAN_POINT('',(9.842519685039E-3,0.E0,0.E0));
#1050=DIRECTION('',(1.E0,0.E0,0.E0));
#1051=DIRECTION('',(0.E0,0.E0,-1.E0));
#1052=AXIS2_PLACEMENT_3D('',#1049,#1050,#1051);
#1053=PLANE('',#1052);
#1055=ORIENTED_EDGE('',*,*,#1054,.T.);
#1057=ORIENTED_EDGE('',*,*,#1056,.T.);
#1059=ORIENTED_EDGE('',*,*,#1058,.T.);
#1061=ORIENTED_EDGE('',*,*,#1060,.T.);
#1062=ORIENTED_EDGE('',*,*,#1041,.T.);
#1063=ORIENTED_EDGE('',*,*,#1030,.F.);
#1064=ORIENTED_EDGE('',*,*,#1016,.T.);
#1065=ORIENTED_EDGE('',*,*,#1002,.F.);
#1066=ORIENTED_EDGE('',*,*,#988,.T.);
#1068=ORIENTED_EDGE('',*,*,#1067,.T.);
#1069=EDGE_LOOP('',(#1055,#1057,#1059,#1061,#1062,#1063,#1064,#1065,#1066,
#1068));
#1070=FACE_OUTER_BOUND('',#1069,.F.);
#1072=CARTESIAN_POINT('',(9.724409448819E-3,1.389763779591E-2,0.E0));
#1073=DIRECTION('',(0.E0,0.E0,-1.E0));
#1074=DIRECTION('',(0.E0,1.E0,0.E0));
#1075=AXIS2_PLACEMENT_3D('',#1072,#1073,#1074);
#1076=CYLINDRICAL_SURFACE('',#1075,1.181102362205E-4);
#1078=ORIENTED_EDGE('',*,*,#1077,.T.);
#1079=ORIENTED_EDGE('',*,*,#1054,.F.);
#1081=ORIENTED_EDGE('',*,*,#1080,.F.);
#1082=ORIENTED_EDGE('',*,*,#786,.F.);
#1083=EDGE_LOOP('',(#1078,#1079,#1081,#1082));
#1084=FACE_OUTER_BOUND('',#1083,.F.);
#1086=CARTESIAN_POINT('',(9.724409448819E-3,0.E0,1.901574803150E-2));
#1087=DIRECTION('',(0.E0,1.E0,0.E0));
#1088=DIRECTION('',(0.E0,0.E0,1.E0));
#1089=AXIS2_PLACEMENT_3D('',#1086,#1087,#1088);
#1090=CYLINDRICAL_SURFACE('',#1089,1.181102362205E-4);
#1092=ORIENTED_EDGE('',*,*,#1091,.T.);
#1093=ORIENTED_EDGE('',*,*,#1056,.F.);
#1094=ORIENTED_EDGE('',*,*,#1077,.F.);
#1095=ORIENTED_EDGE('',*,*,#771,.F.);
#1096=EDGE_LOOP('',(#1092,#1093,#1094,#1095));
#1097=FACE_OUTER_BOUND('',#1096,.F.);
#1099=CARTESIAN_POINT('',(9.724409448819E-3,1.456692914012E-3,0.E0));
#1100=DIRECTION('',(0.E0,0.E0,1.E0));
#1101=DIRECTION('',(1.E0,0.E0,0.E0));
#1102=AXIS2_PLACEMENT_3D('',#1099,#1100,#1101);
#1103=CYLINDRICAL_SURFACE('',#1102,1.181102362205E-4);
#1105=ORIENTED_EDGE('',*,*,#1104,.T.);
#1106=ORIENTED_EDGE('',*,*,#1058,.F.);
#1107=ORIENTED_EDGE('',*,*,#1091,.F.);
#1108=ORIENTED_EDGE('',*,*,#756,.F.);
#1109=EDGE_LOOP('',(#1105,#1106,#1107,#1108));
#1110=FACE_OUTER_BOUND('',#1109,.F.);
#1112=CARTESIAN_POINT('',(9.724409448819E-3,0.E0,9.960629921260E-3));
#1113=DIRECTION('',(0.E0,1.E0,0.E0));
#1114=DIRECTION('',(0.E0,0.E0,1.E0));
#1115=AXIS2_PLACEMENT_3D('',#1112,#1113,#1114);
#1116=CYLINDRICAL_SURFACE('',#1115,1.181102362205E-4);
#1117=ORIENTED_EDGE('',*,*,#1043,.T.);
#1118=ORIENTED_EDGE('',*,*,#1060,.F.);
#1119=ORIENTED_EDGE('',*,*,#1104,.F.);
#1120=ORIENTED_EDGE('',*,*,#741,.F.);
#1121=EDGE_LOOP('',(#1117,#1118,#1119,#1120));
#1122=FACE_OUTER_BOUND('',#1121,.F.);
#1124=CARTESIAN_POINT('',(9.724409448819E-3,0.E0,1.192913385827E-2));
#1125=DIRECTION('',(0.E0,1.E0,0.E0));
#1126=DIRECTION('',(0.E0,0.E0,1.E0));
#1127=AXIS2_PLACEMENT_3D('',#1124,#1125,#1126);
#1128=CYLINDRICAL_SURFACE('',#1127,1.181102362205E-4);
#1129=ORIENTED_EDGE('',*,*,#1080,.T.);
#1130=ORIENTED_EDGE('',*,*,#1067,.F.);
#1131=ORIENTED_EDGE('',*,*,#986,.T.);
#1132=ORIENTED_EDGE('',*,*,#801,.F.);
#1133=EDGE_LOOP('',(#1129,#1130,#1131,#1132));
#1134=FACE_OUTER_BOUND('',#1133,.F.);
#1138=FILL_AREA_STYLE_COLOUR('',#1);
#1139=FILL_AREA_STYLE('',(#1138));
#1140=SURFACE_STYLE_FILL_AREA(#1139);
#1141=SURFACE_SIDE_STYLE('',(#1140));
#1142=SURFACE_STYLE_USAGE(.BOTH.,#1141);
#1143=PRESENTATION_STYLE_ASSIGNMENT((#1142));
#22=STYLED_ITEM('',(#1143),#1137);
#1145=LENGTH_MEASURE_WITH_UNIT(LENGTH_MEASURE(2.54E1),#1144);
#1146=(CONVERSION_BASED_UNIT('INCH',#1145)LENGTH_UNIT()NAMED_UNIT(*));
#1148=PLANE_ANGLE_MEASURE_WITH_UNIT(PLANE_ANGLE_MEASURE(1.745329251994E-2),
#1147);
#1149=(CONVERSION_BASED_UNIT('DEGREE',#1148)NAMED_UNIT(*)PLANE_ANGLE_UNIT());
#1151=UNCERTAINTY_MEASURE_WITH_UNIT(LENGTH_MEASURE(2.596531165755E-6),#1146,
'closure',
'Maximum model space distance between geometric entities at asserted connectivities');
#1153=CARTESIAN_POINT('',(0.E0,0.E0,0.E0));
#1154=DIRECTION('',(0.E0,0.E0,1.E0));
#1155=DIRECTION('',(1.E0,0.E0,0.E0));
#1158=MECHANICAL_DESIGN_GEOMETRIC_PRESENTATION_REPRESENTATION('',(#30,#37,#44,
#51,#58,#65,#72,#79,#86,#93,#100,#107,#114,#126,#133,#140,#152,#159,#171,#178,
#190,#197,#205,#213,#221,#229,#237,#244,#251,#258,#270,#277,#284,#296,#303,#310,
#317,#325,#333,#341,#348,#360,#367,#375,#383,#391,#398,#405,#413,#421,#429,#436,
#448,#455,#463,#471,#478,#490,#497,#504,#516,#523,#530,#542,#549,#556,#568,#575,
#582,#589,#22),#1152);
#1159=APPLICATION_CONTEXT('automotive design');
#1160=APPLICATION_PROTOCOL_DEFINITION('international standard',
'config_control_design',1994,#1159);
#1161=PRODUCT_DEFINITION_CONTEXT('',#1159,'design');
#1162=PRODUCT_CONTEXT('',#1159,'mechanical');
#1163=PRODUCT('BODY1-4120','BODY1-4120','NOT SPECIFIED',(#1162));
#1164=PRODUCT_DEFINITION_FORMATION_WITH_SPECIFIED_SOURCE('1','LAST_VERSION',
#1163,.MADE.);
#1172=LENGTH_MEASURE_WITH_UNIT(LENGTH_MEASURE(2.54E1),#1171);
#1173=(CONVERSION_BASED_UNIT('INCH',#1172)LENGTH_UNIT()NAMED_UNIT(*));
#1174=DERIVED_UNIT_ELEMENT(#1173,2.E0);
#1175=AREA_UNIT((#1174));
#1176=MEASURE_REPRESENTATION_ITEM('surface area measure',AREA_MEASURE(
8.020178043918E-1),#1175);
#1181=LENGTH_MEASURE_WITH_UNIT(LENGTH_MEASURE(2.54E1),#1180);
#1182=(CONVERSION_BASED_UNIT('INCH',#1181)LENGTH_UNIT()NAMED_UNIT(*));
#1183=DERIVED_UNIT_ELEMENT(#1182,3.E0);
#1184=VOLUME_UNIT((#1183));
#1185=MEASURE_REPRESENTATION_ITEM('volume measure',VOLUME_MEASURE(
7.572567310886E-3),#1184);
#1189=CARTESIAN_POINT('centre point',(-5.874815488559E-9,1.841138347877E-1,
4.282932713536E-1));
#1194=LENGTH_MEASURE_WITH_UNIT(LENGTH_MEASURE(2.54E1),#1193);
#1195=(CONVERSION_BASED_UNIT('INCH',#1194)LENGTH_UNIT()NAMED_UNIT(*));
#1196=DERIVED_UNIT_ELEMENT(#1195,2.E0);
#1197=AREA_UNIT((#1196));
#1198=MEASURE_REPRESENTATION_ITEM('surface area measure',AREA_MEASURE(
8.020178043918E-1),#1197);
#1203=LENGTH_MEASURE_WITH_UNIT(LENGTH_MEASURE(2.54E1),#1202);
#1204=(CONVERSION_BASED_UNIT('INCH',#1203)LENGTH_UNIT()NAMED_UNIT(*));
#1205=DERIVED_UNIT_ELEMENT(#1204,3.E0);
#1206=VOLUME_UNIT((#1205));
#1207=MEASURE_REPRESENTATION_ITEM('volume measure',VOLUME_MEASURE(
7.572567310886E-3),#1206);
#1211=CARTESIAN_POINT('centre point',(-5.874815488559E-9,1.841138347877E-1,
4.282932713536E-1));
#1=COLOUR_RGB('',7.921568627451E-1,8.196078431373E-1,9.333333333333E-1);
#2=DRAUGHTING_PRE_DEFINED_COLOUR('green');
#3=COLOUR_RGB('',1.1E-2,1.2E-2,1.E0);
#4=COLOUR_RGB('',1.921568627451E-1,1.921568627451E-1,1.921568627451E-1);
#5=COLOUR_RGB('',2.352941176471E-1,2.352941176471E-1,2.352941176471E-1);
#6=COLOUR_RGB('',3.137254901961E-1,3.137254901961E-1,3.137254901961E-1);
#7=COLOUR_RGB('',4.1E-1,2.61589E-1,1.12848E-1);
#8=COLOUR_RGB('',5.04854E-1,1.5455E-2,1.5455E-2);
#9=COLOUR_RGB('',6.274509803922E-1,6.274509803922E-1,6.274509803922E-1);
#10=COLOUR_RGB('',6.35294E-1,6.86275E-1,7.4902E-1);
#11=COLOUR_RGB('',6.40777E-1,6.40777E-1,6.40777E-1);
#12=COLOUR_RGB('',6.69062E-1,6.69903E-1,6.55217E-1);
#13=COLOUR_RGB('',7.921568627451E-1,8.196078431373E-1,9.333333333333E-1);
#14=COLOUR_RGB('',8.313725490196E-1,0.E0,0.E0);
#15=COLOUR_RGB('',8.666666666667E-1,8.666666666667E-1,8.666666666667E-1);
#16=COLOUR_RGB('',9.21569E-1,7.05882E-1,4.70588E-1);
#17=DRAUGHTING_PRE_DEFINED_COLOUR('red');
#18=DRAUGHTING_PRE_DEFINED_COLOUR('yellow');
#19=COLOUR_RGB('',1.E0,1.E0,5.3E-1);
#20=COLOUR_RGB('',1.E0,1.E0,9.49E-1);
#21=DRAUGHTING_PRE_DEFINED_COLOUR('white');
#123=B_SPLINE_CURVE_WITH_KNOTS('',3,(#115,#116,#117,#118,#119,#120,#121,#122),
.UNSPECIFIED.,.F.,.F.,(4,1,1,1,1,4),(0.E0,2.E-1,4.E-1,6.E-1,8.E-1,1.E0),
.UNSPECIFIED.);
#149=B_SPLINE_CURVE_WITH_KNOTS('',3,(#141,#142,#143,#144,#145,#146,#147,#148),
.UNSPECIFIED.,.F.,.F.,(4,1,1,1,1,4),(0.E0,2.E-1,4.E-1,6.E-1,8.E-1,1.E0),
.UNSPECIFIED.);
#168=B_SPLINE_CURVE_WITH_KNOTS('',3,(#160,#161,#162,#163,#164,#165,#166,#167),
.UNSPECIFIED.,.F.,.F.,(4,1,1,1,1,4),(0.E0,2.E-1,4.E-1,6.E-1,8.E-1,1.E0),
.UNSPECIFIED.);
#187=B_SPLINE_CURVE_WITH_KNOTS('',3,(#179,#180,#181,#182,#183,#184,#185,#186),
.UNSPECIFIED.,.F.,.F.,(4,1,1,1,1,4),(0.E0,2.E-1,4.E-1,6.E-1,8.E-1,1.E0),
.UNSPECIFIED.);
#202=CIRCLE('',#201,2.755905511811E-4);
#210=CIRCLE('',#209,2.755905511811E-4);
#218=CIRCLE('',#217,1.181102362205E-4);
#226=CIRCLE('',#225,1.181102362205E-4);
#234=CIRCLE('',#233,3.937007874016E-4);
#267=B_SPLINE_CURVE_WITH_KNOTS('',3,(#259,#260,#261,#262,#263,#264,#265,#266),
.UNSPECIFIED.,.F.,.F.,(4,1,1,1,1,4),(0.E0,2.E-1,4.E-1,6.E-1,8.E-1,1.E0),
.UNSPECIFIED.);
#293=B_SPLINE_CURVE_WITH_KNOTS('',3,(#285,#286,#287,#288,#289,#290,#291,#292),
.UNSPECIFIED.,.F.,.F.,(4,1,1,1,1,4),(0.E0,2.E-1,4.E-1,6.E-1,8.E-1,1.E0),
.UNSPECIFIED.);
#322=CIRCLE('',#321,1.181102362205E-4);
#330=CIRCLE('',#329,3.937007874016E-4);
#338=CIRCLE('',#337,1.181102362205E-4);
#357=B_SPLINE_CURVE_WITH_KNOTS('',3,(#349,#350,#351,#352,#353,#354,#355,#356),
.UNSPECIFIED.,.F.,.F.,(4,1,1,1,1,4),(0.E0,2.E-1,4.E-1,6.E-1,8.E-1,1.E0),
.UNSPECIFIED.);
#372=CIRCLE('',#371,1.181102362205E-4);
#380=CIRCLE('',#379,3.937007874016E-4);
#388=CIRCLE('',#387,1.181102362205E-4);
#410=CIRCLE('',#409,1.181102362205E-4);
#418=CIRCLE('',#417,3.937007874016E-4);
#426=CIRCLE('',#425,1.181102362205E-4);
#445=B_SPLINE_CURVE_WITH_KNOTS('',3,(#437,#438,#439,#440,#441,#442,#443,#444),
.UNSPECIFIED.,.F.,.F.,(4,1,1,1,1,4),(0.E0,2.E-1,4.E-1,6.E-1,8.E-1,1.E0),
.UNSPECIFIED.);
#460=CIRCLE('',#459,2.755905511811E-4);
#468=CIRCLE('',#467,2.755905511811E-4);
#487=B_SPLINE_CURVE_WITH_KNOTS('',3,(#479,#480,#481,#482,#483,#484,#485,#486),
.UNSPECIFIED.,.F.,.F.,(4,1,1,1,1,4),(0.E0,2.E-1,4.E-1,6.E-1,8.E-1,1.E0),
.UNSPECIFIED.);
#513=B_SPLINE_CURVE_WITH_KNOTS('',3,(#505,#506,#507,#508,#509,#510,#511,#512),
.UNSPECIFIED.,.F.,.F.,(4,1,1,1,1,4),(0.E0,2.E-1,4.E-1,6.E-1,8.E-1,1.E0),
.UNSPECIFIED.);
#539=B_SPLINE_CURVE_WITH_KNOTS('',3,(#531,#532,#533,#534,#535,#536,#537,#538),
.UNSPECIFIED.,.F.,.F.,(4,1,1,1,1,4),(0.E0,2.E-1,4.E-1,6.E-1,8.E-1,1.E0),
.UNSPECIFIED.);
#565=B_SPLINE_CURVE_WITH_KNOTS('',3,(#557,#558,#559,#560,#561,#562,#563,#564),
.UNSPECIFIED.,.F.,.F.,(4,1,1,1,1,4),(0.E0,2.E-1,4.E-1,6.E-1,8.E-1,1.E0),
.UNSPECIFIED.);
#675=EDGE_CURVE('',#592,#593,#26,.T.);
#677=EDGE_CURVE('',#592,#597,#330,.T.);
#679=EDGE_CURVE('',#595,#597,#34,.T.);
#681=EDGE_CURVE('',#595,#593,#380,.T.);
#685=ADVANCED_FACE('',(#684),#674,.T.);
#691=EDGE_CURVE('',#627,#629,#48,.T.);
#693=EDGE_CURVE('',#629,#592,#314,.T.);
#696=EDGE_CURVE('',#593,#627,#395,.T.);
#700=ADVANCED_FACE('',(#699),#690,.T.);
#706=EDGE_CURVE('',#625,#623,#41,.T.);
#708=EDGE_CURVE('',#625,#629,#234,.T.);
#711=EDGE_CURVE('',#627,#623,#418,.T.);
#715=ADVANCED_FACE('',(#714),#705,.T.);
#721=EDGE_CURVE('',#619,#621,#55,.T.);
#723=EDGE_CURVE('',#621,#625,#248,.T.);
#726=EDGE_CURVE('',#623,#619,#452,.T.);
#730=ADVANCED_FACE('',(#729),#720,.T.);
#736=EDGE_CURVE('',#615,#617,#62,.T.);
#738=EDGE_CURVE('',#617,#621,#274,.T.);
#741=EDGE_CURVE('',#619,#615,#572,.T.);
#745=ADVANCED_FACE('',(#744),#735,.T.);
#751=EDGE_CURVE('',#611,#613,#69,.T.);
#753=EDGE_CURVE('',#613,#617,#300,.T.);
#756=EDGE_CURVE('',#615,#611,#546,.T.);
#760=ADVANCED_FACE('',(#759),#750,.T.);
#766=EDGE_CURVE('',#607,#609,#76,.T.);
#768=EDGE_CURVE('',#609,#613,#194,.T.);
#771=EDGE_CURVE('',#611,#607,#520,.T.);
#775=ADVANCED_FACE('',(#774),#765,.T.);
#781=EDGE_CURVE('',#603,#605,#83,.T.);
#783=EDGE_CURVE('',#605,#609,#137,.T.);
#786=EDGE_CURVE('',#607,#603,#494,.T.);
#790=ADVANCED_FACE('',(#789),#780,.T.);
#796=EDGE_CURVE('',#599,#601,#90,.T.);
#798=EDGE_CURVE('',#601,#605,#111,.T.);
#801=EDGE_CURVE('',#603,#599,#586,.T.);
#805=ADVANCED_FACE('',(#804),#795,.T.);
#812=EDGE_CURVE('',#597,#601,#97,.T.);
#815=EDGE_CURVE('',#599,#595,#345,.T.);
#819=ADVANCED_FACE('',(#818),#810,.T.);
#825=EDGE_CURVE('',#639,#601,#123,.T.);
#828=EDGE_CURVE('',#597,#637,#322,.T.);
#830=EDGE_CURVE('',#639,#637,#104,.T.);
#834=ADVANCED_FACE('',(#833),#824,.T.);
#840=EDGE_CURVE('',#641,#605,#149,.T.);
#844=EDGE_CURVE('',#641,#639,#130,.T.);
#848=ADVANCED_FACE('',(#847),#839,.T.);
#854=EDGE_CURVE('',#643,#609,#168,.T.);
#858=EDGE_CURVE('',#643,#641,#156,.T.);
#862=ADVANCED_FACE('',(#861),#853,.T.);
#869=EDGE_CURVE('',#645,#643,#175,.T.);
#871=EDGE_CURVE('',#613,#645,#187,.T.);
#876=ADVANCED_FACE('',(#875),#867,.T.);
#882=EDGE_CURVE('',#632,#633,#202,.T.);
#884=EDGE_CURVE('',#632,#649,#241,.T.);
#886=EDGE_CURVE('',#649,#647,#255,.T.);
#888=EDGE_CURVE('',#647,#645,#281,.T.);
#894=EDGE_CURVE('',#635,#637,#210,.T.);
#896=EDGE_CURVE('',#635,#633,#307,.T.);
#900=ADVANCED_FACE('',(#899),#881,.F.);
#906=EDGE_CURVE('',#632,#625,#218,.T.);
#909=EDGE_CURVE('',#629,#633,#226,.T.);
#914=ADVANCED_FACE('',(#913),#905,.T.);
#920=EDGE_CURVE('',#621,#649,#267,.T.);
#927=ADVANCED_FACE('',(#926),#919,.T.);
#933=EDGE_CURVE('',#617,#647,#293,.T.);
#940=ADVANCED_FACE('',(#939),#932,.T.);
#952=ADVANCED_FACE('',(#951),#945,.T.);
#960=EDGE_CURVE('',#635,#592,#338,.T.);
#965=ADVANCED_FACE('',(#964),#957,.T.);
#977=ADVANCED_FACE('',(#976),#970,.T.);
#983=EDGE_CURVE('',#657,#595,#388,.T.);
#986=EDGE_CURVE('',#655,#599,#357,.T.);
#988=EDGE_CURVE('',#657,#655,#364,.T.);
#992=ADVANCED_FACE('',(#991),#982,.T.);
#998=EDGE_CURVE('',#593,#659,#372,.T.);
#1002=EDGE_CURVE('',#657,#659,#468,.T.);
#1006=ADVANCED_FACE('',(#1005),#997,.T.);
#1012=EDGE_CURVE('',#661,#627,#426,.T.);
#1016=EDGE_CURVE('',#661,#659,#402,.T.);
#1020=ADVANCED_FACE('',(#1019),#1011,.T.);
#1026=EDGE_CURVE('',#623,#663,#410,.T.);
#1030=EDGE_CURVE('',#661,#663,#460,.T.);
#1034=ADVANCED_FACE('',(#1033),#1025,.T.);
#1041=EDGE_CURVE('',#665,#663,#433,.T.);
#1043=EDGE_CURVE('',#619,#665,#445,.T.);
#1048=ADVANCED_FACE('',(#1047),#1039,.T.);
#1054=EDGE_CURVE('',#652,#653,#475,.T.);
#1056=EDGE_CURVE('',#653,#669,#501,.T.);
#1058=EDGE_CURVE('',#669,#667,#527,.T.);
#1060=EDGE_CURVE('',#667,#665,#553,.T.);
#1067=EDGE_CURVE('',#655,#652,#579,.T.);
#1071=ADVANCED_FACE('',(#1070),#1053,.T.);
#1077=EDGE_CURVE('',#607,#653,#513,.T.);
#1080=EDGE_CURVE('',#603,#652,#487,.T.);
#1085=ADVANCED_FACE('',(#1084),#1076,.T.);
#1091=EDGE_CURVE('',#611,#669,#539,.T.);
#1098=ADVANCED_FACE('',(#1097),#1090,.T.);
#1104=EDGE_CURVE('',#615,#667,#565,.T.);
#1111=ADVANCED_FACE('',(#1110),#1103,.T.);
#1123=ADVANCED_FACE('',(#1122),#1116,.T.);
#1135=ADVANCED_FACE('',(#1134),#1128,.T.);
#1136=CLOSED_SHELL('',(#685,#700,#715,#730,#745,#760,#775,#790,#805,#819,#834,
#848,#862,#876,#900,#914,#927,#940,#952,#965,#977,#992,#1006,#1020,#1034,#1048,
#1071,#1085,#1098,#1111,#1123,#1135));
#1137=MANIFOLD_SOLID_BREP('',#1136);
#1144=(LENGTH_UNIT()NAMED_UNIT(*)SI_UNIT(.MILLI.,.METRE.));
#1147=(NAMED_UNIT(*)PLANE_ANGLE_UNIT()SI_UNIT($,.RADIAN.));
#1150=(NAMED_UNIT(*)SI_UNIT($,.STERADIAN.)SOLID_ANGLE_UNIT());
#1152=(GEOMETRIC_REPRESENTATION_CONTEXT(3)GLOBAL_UNCERTAINTY_ASSIGNED_CONTEXT((
#1151))GLOBAL_UNIT_ASSIGNED_CONTEXT((#1146,#1149,#1150))REPRESENTATION_CONTEXT(
'ID1','3'));
#1156=AXIS2_PLACEMENT_3D('',#1153,#1154,#1155);
#1157=ADVANCED_BREP_SHAPE_REPRESENTATION('',(#1156,#1137),#1152);
#1165=PRODUCT_DEFINITION('design','',#1164,#1161);
#1166=PRODUCT_DEFINITION_SHAPE('','SHAPE FOR BODY1-4120.',#1165);
#1167=SHAPE_ASPECT('','solid data associated with BODY1-4120',#1166,.F.);
#1168=PROPERTY_DEFINITION('',
'shape for solid data with which properties are associated',#1167);
#1169=SHAPE_REPRESENTATION('',(#1137),#1152);
#1170=SHAPE_DEFINITION_REPRESENTATION(#1168,#1169);
#1171=(LENGTH_UNIT()NAMED_UNIT(*)SI_UNIT(.MILLI.,.METRE.));
#1177=PROPERTY_DEFINITION('geometric validation property','area of BODY1-4120',
#1167);
#1178=REPRESENTATION('surface area',(#1176),#1152);
#1179=PROPERTY_DEFINITION_REPRESENTATION(#1177,#1178);
#1180=(LENGTH_UNIT()NAMED_UNIT(*)SI_UNIT(.MILLI.,.METRE.));
#1186=PROPERTY_DEFINITION('geometric validation property',
'volume of BODY1-4120',#1167);
#1187=REPRESENTATION('volume',(#1185),#1152);
#1188=PROPERTY_DEFINITION_REPRESENTATION(#1186,#1187);
#1190=PROPERTY_DEFINITION('geometric validation property',
'centroid of BODY1-4120',#1167);
#1191=REPRESENTATION('centroid',(#1189),#1152);
#1192=PROPERTY_DEFINITION_REPRESENTATION(#1190,#1191);
#1193=(LENGTH_UNIT()NAMED_UNIT(*)SI_UNIT(.MILLI.,.METRE.));
#1199=PROPERTY_DEFINITION('geometric validation property','area of BODY1-4120',
#1166);
#1200=REPRESENTATION('surface area',(#1198),#1152);
#1201=PROPERTY_DEFINITION_REPRESENTATION(#1199,#1200);
#1202=(LENGTH_UNIT()NAMED_UNIT(*)SI_UNIT(.MILLI.,.METRE.));
#1208=PROPERTY_DEFINITION('geometric validation property',
'volume of BODY1-4120',#1166);
#1209=REPRESENTATION('volume',(#1207),#1152);
#1210=PROPERTY_DEFINITION_REPRESENTATION(#1208,#1209);
#1212=PROPERTY_DEFINITION('geometric validation property',
'centroid of BODY1-4120',#1166);
#1213=REPRESENTATION('centroid',(#1211),#1152);
#1214=PROPERTY_DEFINITION_REPRESENTATION(#1212,#1213);
#1215=SHAPE_DEFINITION_REPRESENTATION(#1166,#1157);
ENDSEC;
END-ISO-10303-21;
