ISO-10303-21;
HEADER;
FILE_DESCRIPTION((''),'2;1');
FILE_NAME('BODY5-236','2026-06-15T13:45:21',('Esia'),(''),
'CREO PARAMETRIC BY PTC INC, 2025102','CREO PARAMETRIC BY PTC INC, 2025102','');
FILE_SCHEMA((
'AP242_MANAGED_MODEL_BASED_3D_ENGINEERING_MIM_LF { 1 0 10303 442 1 1 4 }'));
ENDSEC;
DATA;
#20=CARTESIAN_POINT('',(0.E0,1.381937007874E0,0.E0));
#21=DIRECTION('',(0.E0,-1.E0,0.E0));
#22=DIRECTION('',(0.E0,0.E0,1.E0));
#23=AXIS2_PLACEMENT_3D('',#20,#21,#22);
#25=DRAUGHTING_PRE_DEFINED_CURVE_FONT('continuous');
#26=CURVE_STYLE('',#25,POSITIVE_LENGTH_MEASURE(2.E-2),#1);
#27=PRESENTATION_STYLE_ASSIGNMENT((#26));
#28=STYLED_ITEM('',(#27),#24);
#29=DIRECTION('',(0.E0,-1.E0,0.E0));
#30=VECTOR('',#29,1.384881889764E0);
#31=CARTESIAN_POINT('',(0.E0,1.381937007874E0,-6.25E-2));
#32=LINE('',#31,#30);
#33=CURVE_STYLE('',#25,POSITIVE_LENGTH_MEASURE(2.E-2),#1);
#34=PRESENTATION_STYLE_ASSIGNMENT((#33));
#35=STYLED_ITEM('',(#34),#32);
#36=DIRECTION('',(0.E0,-1.E0,0.E0));
#37=VECTOR('',#36,1.384881889764E0);
#38=CARTESIAN_POINT('',(0.E0,1.381937007874E0,6.25E-2));
#39=LINE('',#38,#37);
#40=CURVE_STYLE('',#25,POSITIVE_LENGTH_MEASURE(2.E-2),#1);
#41=PRESENTATION_STYLE_ASSIGNMENT((#40));
#42=STYLED_ITEM('',(#41),#39);
#43=CARTESIAN_POINT('',(0.E0,-2.944881889763E-3,0.E0));
#44=DIRECTION('',(0.E0,1.E0,0.E0));
#45=DIRECTION('',(0.E0,0.E0,-1.E0));
#46=AXIS2_PLACEMENT_3D('',#43,#44,#45);
#48=CURVE_STYLE('',#25,POSITIVE_LENGTH_MEASURE(2.E-2),#1);
#49=PRESENTATION_STYLE_ASSIGNMENT((#48));
#50=STYLED_ITEM('',(#49),#47);
#51=CARTESIAN_POINT('',(0.E0,-2.944881889763E-3,0.E0));
#52=DIRECTION('',(0.E0,1.E0,0.E0));
#53=DIRECTION('',(0.E0,0.E0,1.E0));
#54=AXIS2_PLACEMENT_3D('',#51,#52,#53);
#56=CURVE_STYLE('',#25,POSITIVE_LENGTH_MEASURE(2.E-2),#1);
#57=PRESENTATION_STYLE_ASSIGNMENT((#56));
#58=STYLED_ITEM('',(#57),#55);
#59=CARTESIAN_POINT('',(0.E0,-2.944881889763E-3,0.E0));
#60=DIRECTION('',(0.E0,-1.E0,0.E0));
#61=DIRECTION('',(0.E0,0.E0,1.E0));
#62=AXIS2_PLACEMENT_3D('',#59,#60,#61);
#64=CURVE_STYLE('',#25,POSITIVE_LENGTH_MEASURE(2.E-2),#1);
#65=PRESENTATION_STYLE_ASSIGNMENT((#64));
#66=STYLED_ITEM('',(#65),#63);
#67=CARTESIAN_POINT('',(0.E0,-2.944881889763E-3,0.E0));
#68=DIRECTION('',(0.E0,-1.E0,0.E0));
#69=DIRECTION('',(0.E0,0.E0,-1.E0));
#70=AXIS2_PLACEMENT_3D('',#67,#68,#69);
#72=CURVE_STYLE('',#25,POSITIVE_LENGTH_MEASURE(2.E-2),#1);
#73=PRESENTATION_STYLE_ASSIGNMENT((#72));
#74=STYLED_ITEM('',(#73),#71);
#75=DIRECTION('',(0.E0,-1.E0,0.E0));
#76=VECTOR('',#75,2.E-2);
#77=CARTESIAN_POINT('',(0.E0,-2.944881889763E-3,-7.086614173227E-2));
#78=LINE('',#77,#76);
#79=CURVE_STYLE('',#25,POSITIVE_LENGTH_MEASURE(2.E-2),#1);
#80=PRESENTATION_STYLE_ASSIGNMENT((#79));
#81=STYLED_ITEM('',(#80),#78);
#82=DIRECTION('',(0.E0,-1.E0,0.E0));
#83=VECTOR('',#82,2.E-2);
#84=CARTESIAN_POINT('',(0.E0,-2.944881889763E-3,7.086614173227E-2));
#85=LINE('',#84,#83);
#86=CURVE_STYLE('',#25,POSITIVE_LENGTH_MEASURE(2.E-2),#1);
#87=PRESENTATION_STYLE_ASSIGNMENT((#86));
#88=STYLED_ITEM('',(#87),#85);
#89=CARTESIAN_POINT('',(0.E0,-2.294488188976E-2,0.E0));
#90=DIRECTION('',(0.E0,1.E0,0.E0));
#91=DIRECTION('',(0.E0,0.E0,-1.E0));
#92=AXIS2_PLACEMENT_3D('',#89,#90,#91);
#94=CURVE_STYLE('',#25,POSITIVE_LENGTH_MEASURE(2.E-2),#1);
#95=PRESENTATION_STYLE_ASSIGNMENT((#94));
#96=STYLED_ITEM('',(#95),#93);
#97=CARTESIAN_POINT('',(0.E0,-2.294488188976E-2,0.E0));
#98=DIRECTION('',(0.E0,1.E0,0.E0));
#99=DIRECTION('',(0.E0,0.E0,1.E0));
#100=AXIS2_PLACEMENT_3D('',#97,#98,#99);
#102=CURVE_STYLE('',#25,POSITIVE_LENGTH_MEASURE(2.E-2),#1);
#103=PRESENTATION_STYLE_ASSIGNMENT((#102));
#104=STYLED_ITEM('',(#103),#101);
#105=CARTESIAN_POINT('',(0.E0,-2.294488188976E-2,0.E0));
#106=DIRECTION('',(0.E0,-1.E0,0.E0));
#107=DIRECTION('',(0.E0,0.E0,1.E0));
#108=AXIS2_PLACEMENT_3D('',#105,#106,#107);
#110=CURVE_STYLE('',#25,POSITIVE_LENGTH_MEASURE(2.E-2),#1);
#111=PRESENTATION_STYLE_ASSIGNMENT((#110));
#112=STYLED_ITEM('',(#111),#109);
#113=CARTESIAN_POINT('',(0.E0,-2.294488188976E-2,0.E0));
#114=DIRECTION('',(0.E0,-1.E0,0.E0));
#115=DIRECTION('',(0.E0,0.E0,-1.E0));
#116=AXIS2_PLACEMENT_3D('',#113,#114,#115);
#118=CURVE_STYLE('',#25,POSITIVE_LENGTH_MEASURE(2.E-2),#1);
#119=PRESENTATION_STYLE_ASSIGNMENT((#118));
#120=STYLED_ITEM('',(#119),#117);
#121=DIRECTION('',(0.E0,-1.E0,0.E0));
#122=VECTOR('',#121,2.818897637795E-2);
#123=CARTESIAN_POINT('',(0.E0,-2.294488188976E-2,-7.874015748030E-2));
#124=LINE('',#123,#122);
#125=CURVE_STYLE('',#25,POSITIVE_LENGTH_MEASURE(2.E-2),#1);
#126=PRESENTATION_STYLE_ASSIGNMENT((#125));
#127=STYLED_ITEM('',(#126),#124);
#128=DIRECTION('',(0.E0,-1.E0,0.E0));
#129=VECTOR('',#128,2.818897637795E-2);
#130=CARTESIAN_POINT('',(0.E0,-2.294488188976E-2,7.874015748030E-2));
#131=LINE('',#130,#129);
#132=CURVE_STYLE('',#25,POSITIVE_LENGTH_MEASURE(2.E-2),#1);
#133=PRESENTATION_STYLE_ASSIGNMENT((#132));
#134=STYLED_ITEM('',(#133),#131);
#135=CARTESIAN_POINT('',(0.E0,-5.113385826772E-2,0.E0));
#136=DIRECTION('',(0.E0,1.E0,0.E0));
#137=DIRECTION('',(0.E0,0.E0,1.E0));
#138=AXIS2_PLACEMENT_3D('',#135,#136,#137);
#140=CURVE_STYLE('',#25,POSITIVE_LENGTH_MEASURE(2.E-2),#1);
#141=PRESENTATION_STYLE_ASSIGNMENT((#140));
#142=STYLED_ITEM('',(#141),#139);
#143=CARTESIAN_POINT('',(0.E0,-5.113385826772E-2,-6.692913385826E-2));
#144=DIRECTION('',(-1.E0,0.E0,0.E0));
#145=DIRECTION('',(0.E0,0.E0,-1.E0));
#146=AXIS2_PLACEMENT_3D('',#143,#144,#145);
#148=CURVE_STYLE('',#25,POSITIVE_LENGTH_MEASURE(2.E-2),#1);
#149=PRESENTATION_STYLE_ASSIGNMENT((#148));
#150=STYLED_ITEM('',(#149),#147);
#151=CARTESIAN_POINT('',(0.E0,-5.113385826772E-2,6.692913385826E-2));
#152=DIRECTION('',(1.E0,0.E0,0.E0));
#153=DIRECTION('',(0.E0,0.E0,1.E0));
#154=AXIS2_PLACEMENT_3D('',#151,#152,#153);
#156=CURVE_STYLE('',#25,POSITIVE_LENGTH_MEASURE(2.E-2),#1);
#157=PRESENTATION_STYLE_ASSIGNMENT((#156));
#158=STYLED_ITEM('',(#157),#155);
#159=CARTESIAN_POINT('',(0.E0,-5.113385826772E-2,0.E0));
#160=DIRECTION('',(0.E0,1.E0,0.E0));
#161=DIRECTION('',(0.E0,0.E0,-1.E0));
#162=AXIS2_PLACEMENT_3D('',#159,#160,#161);
#164=CURVE_STYLE('',#25,POSITIVE_LENGTH_MEASURE(2.E-2),#1);
#165=PRESENTATION_STYLE_ASSIGNMENT((#164));
#166=STYLED_ITEM('',(#165),#163);
#167=CARTESIAN_POINT('',(0.E0,-6.294488188976E-2,0.E0));
#168=DIRECTION('',(0.E0,-1.E0,0.E0));
#169=DIRECTION('',(0.E0,0.E0,1.E0));
#170=AXIS2_PLACEMENT_3D('',#167,#168,#169);
#172=CURVE_STYLE('',#25,POSITIVE_LENGTH_MEASURE(2.E-2),#1);
#173=PRESENTATION_STYLE_ASSIGNMENT((#172));
#174=STYLED_ITEM('',(#173),#171);
#175=CARTESIAN_POINT('',(0.E0,-6.294488188976E-2,0.E0));
#176=DIRECTION('',(0.E0,-1.E0,0.E0));
#177=DIRECTION('',(0.E0,0.E0,-1.E0));
#178=AXIS2_PLACEMENT_3D('',#175,#176,#177);
#180=CURVE_STYLE('',#25,POSITIVE_LENGTH_MEASURE(2.E-2),#1);
#181=PRESENTATION_STYLE_ASSIGNMENT((#180));
#182=STYLED_ITEM('',(#181),#179);
#183=CARTESIAN_POINT('',(0.E0,1.381937007874E0,0.E0));
#184=DIRECTION('',(0.E0,-1.E0,0.E0));
#185=DIRECTION('',(0.E0,0.E0,-1.E0));
#186=AXIS2_PLACEMENT_3D('',#183,#184,#185);
#188=CURVE_STYLE('',#25,POSITIVE_LENGTH_MEASURE(2.E-2),#1);
#189=PRESENTATION_STYLE_ASSIGNMENT((#188));
#190=STYLED_ITEM('',(#189),#187);
#191=CARTESIAN_POINT('',(0.E0,1.381937007874E0,5.068897637795E-2));
#192=DIRECTION('',(-1.E0,0.E0,0.E0));
#193=DIRECTION('',(0.E0,0.E0,1.E0));
#194=AXIS2_PLACEMENT_3D('',#191,#192,#193);
#196=CURVE_STYLE('',#25,POSITIVE_LENGTH_MEASURE(2.E-2),#1);
#197=PRESENTATION_STYLE_ASSIGNMENT((#196));
#198=STYLED_ITEM('',(#197),#195);
#199=CARTESIAN_POINT('',(0.E0,1.381937007874E0,-5.068897637795E-2));
#200=DIRECTION('',(1.E0,0.E0,0.E0));
#201=DIRECTION('',(0.E0,0.E0,-1.E0));
#202=AXIS2_PLACEMENT_3D('',#199,#200,#201);
#204=CURVE_STYLE('',#25,POSITIVE_LENGTH_MEASURE(2.E-2),#1);
#205=PRESENTATION_STYLE_ASSIGNMENT((#204));
#206=STYLED_ITEM('',(#205),#203);
#207=CARTESIAN_POINT('',(0.E0,1.393748031496E0,0.E0));
#208=DIRECTION('',(0.E0,1.E0,0.E0));
#209=DIRECTION('',(0.E0,0.E0,-1.E0));
#210=AXIS2_PLACEMENT_3D('',#207,#208,#209);
#212=CURVE_STYLE('',#25,POSITIVE_LENGTH_MEASURE(2.E-2),#1);
#213=PRESENTATION_STYLE_ASSIGNMENT((#212));
#214=STYLED_ITEM('',(#213),#211);
#215=CARTESIAN_POINT('',(0.E0,1.393748031496E0,0.E0));
#216=DIRECTION('',(0.E0,1.E0,0.E0));
#217=DIRECTION('',(0.E0,0.E0,1.E0));
#218=AXIS2_PLACEMENT_3D('',#215,#216,#217);
#220=CURVE_STYLE('',#25,POSITIVE_LENGTH_MEASURE(2.E-2),#1);
#221=PRESENTATION_STYLE_ASSIGNMENT((#220));
#222=STYLED_ITEM('',(#221),#219);
#223=CARTESIAN_POINT('',(0.E0,1.381937007874E0,6.25E-2));
#224=CARTESIAN_POINT('',(0.E0,1.393748031496E0,5.068897637795E-2));
#225=VERTEX_POINT('',#223);
#226=VERTEX_POINT('',#224);
#227=CARTESIAN_POINT('',(0.E0,1.381937007874E0,-6.25E-2));
#228=CARTESIAN_POINT('',(0.E0,1.393748031496E0,-5.068897637795E-2));
#229=VERTEX_POINT('',#227);
#230=VERTEX_POINT('',#228);
#231=CARTESIAN_POINT('',(0.E0,-2.944881889763E-3,-6.25E-2));
#232=VERTEX_POINT('',#231);
#233=CARTESIAN_POINT('',(0.E0,-2.944881889763E-3,6.25E-2));
#234=VERTEX_POINT('',#233);
#235=CARTESIAN_POINT('',(0.E0,-2.944881889763E-3,-7.086614173227E-2));
#236=CARTESIAN_POINT('',(0.E0,-2.294488188976E-2,-7.086614173227E-2));
#237=VERTEX_POINT('',#235);
#238=VERTEX_POINT('',#236);
#239=CARTESIAN_POINT('',(0.E0,-2.294488188976E-2,7.086614173227E-2));
#240=VERTEX_POINT('',#239);
#241=CARTESIAN_POINT('',(0.E0,-2.944881889763E-3,7.086614173227E-2));
#242=VERTEX_POINT('',#241);
#243=CARTESIAN_POINT('',(0.E0,-2.294488188976E-2,-7.874015748030E-2));
#244=CARTESIAN_POINT('',(0.E0,-5.113385826772E-2,-7.874015748030E-2));
#245=VERTEX_POINT('',#243);
#246=VERTEX_POINT('',#244);
#247=CARTESIAN_POINT('',(0.E0,-2.294488188976E-2,7.874015748030E-2));
#248=VERTEX_POINT('',#247);
#249=CARTESIAN_POINT('',(0.E0,-5.113385826772E-2,7.874015748030E-2));
#250=VERTEX_POINT('',#249);
#251=CARTESIAN_POINT('',(0.E0,-6.294488188976E-2,6.692913385826E-2));
#252=VERTEX_POINT('',#251);
#253=CARTESIAN_POINT('',(0.E0,-6.294488188976E-2,-6.692913385826E-2));
#254=VERTEX_POINT('',#253);
#255=CARTESIAN_POINT('',(0.E0,1.381937007874E0,0.E0));
#256=DIRECTION('',(0.E0,1.E0,0.E0));
#257=DIRECTION('',(0.E0,0.E0,1.E0));
#258=AXIS2_PLACEMENT_3D('',#255,#256,#257);
#259=TOROIDAL_SURFACE('',#258,5.068897637795E-2,1.181102362205E-2);
#261=ORIENTED_EDGE('',*,*,#260,.T.);
#263=ORIENTED_EDGE('',*,*,#262,.T.);
#265=ORIENTED_EDGE('',*,*,#264,.T.);
#267=ORIENTED_EDGE('',*,*,#266,.F.);
#268=EDGE_LOOP('',(#261,#263,#265,#267));
#269=FACE_OUTER_BOUND('',#268,.F.);
#271=CARTESIAN_POINT('',(0.E0,1.000047244094E0,0.E0));
#272=DIRECTION('',(0.E0,-1.E0,0.E0));
#273=DIRECTION('',(0.E0,0.E0,-1.E0));
#274=AXIS2_PLACEMENT_3D('',#271,#272,#273);
#275=CYLINDRICAL_SURFACE('',#274,6.25E-2);
#277=ORIENTED_EDGE('',*,*,#276,.F.);
#278=ORIENTED_EDGE('',*,*,#260,.F.);
#280=ORIENTED_EDGE('',*,*,#279,.T.);
#282=ORIENTED_EDGE('',*,*,#281,.T.);
#283=EDGE_LOOP('',(#277,#278,#280,#282));
#284=FACE_OUTER_BOUND('',#283,.F.);
#286=CARTESIAN_POINT('',(0.E0,1.000047244094E0,0.E0));
#287=DIRECTION('',(0.E0,-1.E0,0.E0));
#288=DIRECTION('',(0.E0,0.E0,-1.E0));
#289=AXIS2_PLACEMENT_3D('',#286,#287,#288);
#290=CYLINDRICAL_SURFACE('',#289,6.25E-2);
#291=ORIENTED_EDGE('',*,*,#276,.T.);
#293=ORIENTED_EDGE('',*,*,#292,.T.);
#294=ORIENTED_EDGE('',*,*,#279,.F.);
#296=ORIENTED_EDGE('',*,*,#295,.F.);
#297=EDGE_LOOP('',(#291,#293,#294,#296));
#298=FACE_OUTER_BOUND('',#297,.F.);
#300=CARTESIAN_POINT('',(-7.874015748030E-2,-2.944881889764E-3,0.E0));
#301=DIRECTION('',(0.E0,1.E0,0.E0));
#302=DIRECTION('',(0.E0,0.E0,1.E0));
#303=AXIS2_PLACEMENT_3D('',#300,#301,#302);
#304=PLANE('',#303);
#306=ORIENTED_EDGE('',*,*,#305,.F.);
#308=ORIENTED_EDGE('',*,*,#307,.F.);
#309=EDGE_LOOP('',(#306,#308));
#310=FACE_OUTER_BOUND('',#309,.F.);
#311=ORIENTED_EDGE('',*,*,#281,.F.);
#312=ORIENTED_EDGE('',*,*,#292,.F.);
#313=EDGE_LOOP('',(#311,#312));
#314=FACE_BOUND('',#313,.F.);
#316=CARTESIAN_POINT('',(0.E0,1.000047244094E0,0.E0));
#317=DIRECTION('',(0.E0,-1.E0,0.E0));
#318=DIRECTION('',(0.E0,0.E0,-1.E0));
#319=AXIS2_PLACEMENT_3D('',#316,#317,#318);
#320=CYLINDRICAL_SURFACE('',#319,7.086614173227E-2);
#322=ORIENTED_EDGE('',*,*,#321,.F.);
#323=ORIENTED_EDGE('',*,*,#305,.T.);
#325=ORIENTED_EDGE('',*,*,#324,.T.);
#327=ORIENTED_EDGE('',*,*,#326,.T.);
#328=EDGE_LOOP('',(#322,#323,#325,#327));
#329=FACE_OUTER_BOUND('',#328,.F.);
#331=CARTESIAN_POINT('',(0.E0,1.000047244094E0,0.E0));
#332=DIRECTION('',(0.E0,-1.E0,0.E0));
#333=DIRECTION('',(0.E0,0.E0,-1.E0));
#334=AXIS2_PLACEMENT_3D('',#331,#332,#333);
#335=CYLINDRICAL_SURFACE('',#334,7.086614173227E-2);
#336=ORIENTED_EDGE('',*,*,#321,.T.);
#338=ORIENTED_EDGE('',*,*,#337,.T.);
#339=ORIENTED_EDGE('',*,*,#324,.F.);
#340=ORIENTED_EDGE('',*,*,#307,.T.);
#341=EDGE_LOOP('',(#336,#338,#339,#340));
#342=FACE_OUTER_BOUND('',#341,.F.);
#344=CARTESIAN_POINT('',(-7.086614173227E-2,-2.294488188976E-2,0.E0));
#345=DIRECTION('',(0.E0,-1.E0,0.E0));
#346=DIRECTION('',(0.E0,0.E0,-1.E0));
#347=AXIS2_PLACEMENT_3D('',#344,#345,#346);
#348=PLANE('',#347);
#350=ORIENTED_EDGE('',*,*,#349,.F.);
#352=ORIENTED_EDGE('',*,*,#351,.F.);
#353=EDGE_LOOP('',(#350,#352));
#354=FACE_OUTER_BOUND('',#353,.F.);
#355=ORIENTED_EDGE('',*,*,#326,.F.);
#356=ORIENTED_EDGE('',*,*,#337,.F.);
#357=EDGE_LOOP('',(#355,#356));
#358=FACE_BOUND('',#357,.F.);
#360=CARTESIAN_POINT('',(0.E0,1.000047244094E0,0.E0));
#361=DIRECTION('',(0.E0,-1.E0,0.E0));
#362=DIRECTION('',(0.E0,0.E0,-1.E0));
#363=AXIS2_PLACEMENT_3D('',#360,#361,#362);
#364=CYLINDRICAL_SURFACE('',#363,7.874015748030E-2);
#366=ORIENTED_EDGE('',*,*,#365,.F.);
#367=ORIENTED_EDGE('',*,*,#349,.T.);
#369=ORIENTED_EDGE('',*,*,#368,.T.);
#371=ORIENTED_EDGE('',*,*,#370,.F.);
#372=EDGE_LOOP('',(#366,#367,#369,#371));
#373=FACE_OUTER_BOUND('',#372,.F.);
#375=CARTESIAN_POINT('',(0.E0,1.000047244094E0,0.E0));
#376=DIRECTION('',(0.E0,-1.E0,0.E0));
#377=DIRECTION('',(0.E0,0.E0,-1.E0));
#378=AXIS2_PLACEMENT_3D('',#375,#376,#377);
#379=CYLINDRICAL_SURFACE('',#378,7.874015748030E-2);
#380=ORIENTED_EDGE('',*,*,#365,.T.);
#382=ORIENTED_EDGE('',*,*,#381,.F.);
#383=ORIENTED_EDGE('',*,*,#368,.F.);
#384=ORIENTED_EDGE('',*,*,#351,.T.);
#385=EDGE_LOOP('',(#380,#382,#383,#384));
#386=FACE_OUTER_BOUND('',#385,.F.);
#388=CARTESIAN_POINT('',(0.E0,-5.113385826772E-2,0.E0));
#389=DIRECTION('',(0.E0,-1.E0,0.E0));
#390=DIRECTION('',(0.E0,0.E0,-1.E0));
#391=AXIS2_PLACEMENT_3D('',#388,#389,#390);
#392=TOROIDAL_SURFACE('',#391,6.692913385826E-2,1.181102362205E-2);
#393=ORIENTED_EDGE('',*,*,#381,.T.);
#395=ORIENTED_EDGE('',*,*,#394,.T.);
#397=ORIENTED_EDGE('',*,*,#396,.T.);
#399=ORIENTED_EDGE('',*,*,#398,.F.);
#400=EDGE_LOOP('',(#393,#395,#397,#399));
#401=FACE_OUTER_BOUND('',#400,.F.);
#403=CARTESIAN_POINT('',(0.E0,-5.113385826772E-2,0.E0));
#404=DIRECTION('',(0.E0,-1.E0,0.E0));
#405=DIRECTION('',(0.E0,0.E0,-1.E0));
#406=AXIS2_PLACEMENT_3D('',#403,#404,#405);
#407=TOROIDAL_SURFACE('',#406,6.692913385826E-2,1.181102362205E-2);
#408=ORIENTED_EDGE('',*,*,#370,.T.);
#409=ORIENTED_EDGE('',*,*,#398,.T.);
#411=ORIENTED_EDGE('',*,*,#410,.T.);
#412=ORIENTED_EDGE('',*,*,#394,.F.);
#413=EDGE_LOOP('',(#408,#409,#411,#412));
#414=FACE_OUTER_BOUND('',#413,.F.);
#416=CARTESIAN_POINT('',(0.E0,-6.294488188976E-2,0.E0));
#417=DIRECTION('',(0.E0,1.E0,0.E0));
#418=DIRECTION('',(0.E0,0.E0,1.E0));
#419=AXIS2_PLACEMENT_3D('',#416,#417,#418);
#420=PLANE('',#419);
#421=ORIENTED_EDGE('',*,*,#410,.F.);
#422=ORIENTED_EDGE('',*,*,#396,.F.);
#423=EDGE_LOOP('',(#421,#422));
#424=FACE_OUTER_BOUND('',#423,.F.);
#426=CARTESIAN_POINT('',(0.E0,1.381937007874E0,0.E0));
#427=DIRECTION('',(0.E0,1.E0,0.E0));
#428=DIRECTION('',(0.E0,0.E0,1.E0));
#429=AXIS2_PLACEMENT_3D('',#426,#427,#428);
#430=TOROIDAL_SURFACE('',#429,5.068897637795E-2,1.181102362205E-2);
#431=ORIENTED_EDGE('',*,*,#295,.T.);
#432=ORIENTED_EDGE('',*,*,#266,.T.);
#434=ORIENTED_EDGE('',*,*,#433,.T.);
#435=ORIENTED_EDGE('',*,*,#262,.F.);
#436=EDGE_LOOP('',(#431,#432,#434,#435));
#437=FACE_OUTER_BOUND('',#436,.F.);
#439=CARTESIAN_POINT('',(0.E0,1.393748031496E0,0.E0));
#440=DIRECTION('',(0.E0,-1.E0,0.E0));
#441=DIRECTION('',(0.E0,0.E0,-1.E0));
#442=AXIS2_PLACEMENT_3D('',#439,#440,#441);
#443=PLANE('',#442);
#444=ORIENTED_EDGE('',*,*,#264,.F.);
#445=ORIENTED_EDGE('',*,*,#433,.F.);
#446=EDGE_LOOP('',(#444,#445));
#447=FACE_OUTER_BOUND('',#446,.F.);
#451=FILL_AREA_STYLE_COLOUR('',#1);
#452=FILL_AREA_STYLE('',(#451));
#453=SURFACE_STYLE_FILL_AREA(#452);
#454=SURFACE_SIDE_STYLE('',(#453));
#455=SURFACE_STYLE_USAGE(.BOTH.,#454);
#456=PRESENTATION_STYLE_ASSIGNMENT((#455));
#19=STYLED_ITEM('',(#456),#450);
#458=LENGTH_MEASURE_WITH_UNIT(LENGTH_MEASURE(2.54E1),#457);
#459=(CONVERSION_BASED_UNIT('INCH',#458)LENGTH_UNIT()NAMED_UNIT(*));
#461=PLANE_ANGLE_MEASURE_WITH_UNIT(PLANE_ANGLE_MEASURE(1.745329251994E-2),#460);
#462=(CONVERSION_BASED_UNIT('DEGREE',#461)NAMED_UNIT(*)PLANE_ANGLE_UNIT());
#464=UNCERTAINTY_MEASURE_WITH_UNIT(LENGTH_MEASURE(1.473586516063E-4),#459,
'closure',
'Maximum model space distance between geometric entities at asserted connectivities');
#466=CARTESIAN_POINT('',(0.E0,0.E0,0.E0));
#467=DIRECTION('',(0.E0,0.E0,1.E0));
#468=DIRECTION('',(1.E0,0.E0,0.E0));
#471=MECHANICAL_DESIGN_GEOMETRIC_PRESENTATION_REPRESENTATION('',(#28,#35,#42,
#50,#58,#66,#74,#81,#88,#96,#104,#112,#120,#127,#134,#142,#150,#158,#166,#174,
#182,#190,#198,#206,#214,#222,#19),#465);
#472=APPLICATION_CONTEXT('automotive design');
#473=APPLICATION_PROTOCOL_DEFINITION('international standard',
'config_control_design',1994,#472);
#474=PRODUCT_DEFINITION_CONTEXT('',#472,'design');
#475=PRODUCT_CONTEXT('',#472,'mechanical');
#476=PRODUCT('BODY5-236','BODY5-236','NOT SPECIFIED',(#475));
#477=PRODUCT_DEFINITION_FORMATION_WITH_SPECIFIED_SOURCE('1','LAST_VERSION',#476,
.MADE.);
#485=LENGTH_MEASURE_WITH_UNIT(LENGTH_MEASURE(2.54E1),#484);
#486=(CONVERSION_BASED_UNIT('INCH',#485)LENGTH_UNIT()NAMED_UNIT(*));
#487=DERIVED_UNIT_ELEMENT(#486,2.E0);
#488=AREA_UNIT((#487));
#489=MEASURE_REPRESENTATION_ITEM('surface area measure',AREA_MEASURE(
6.115078858073E-1),#488);
#494=LENGTH_MEASURE_WITH_UNIT(LENGTH_MEASURE(2.54E1),#493);
#495=(CONVERSION_BASED_UNIT('INCH',#494)LENGTH_UNIT()NAMED_UNIT(*));
#496=DERIVED_UNIT_ELEMENT(#495,3.E0);
#497=VOLUME_UNIT((#496));
#498=MEASURE_REPRESENTATION_ITEM('volume measure',VOLUME_MEASURE(
1.820908472843E-2),#497);
#502=CARTESIAN_POINT('centre point',(1.002375733666E-12,6.516988281368E-1,
0.E0));
#507=LENGTH_MEASURE_WITH_UNIT(LENGTH_MEASURE(2.54E1),#506);
#508=(CONVERSION_BASED_UNIT('INCH',#507)LENGTH_UNIT()NAMED_UNIT(*));
#509=DERIVED_UNIT_ELEMENT(#508,2.E0);
#510=AREA_UNIT((#509));
#511=MEASURE_REPRESENTATION_ITEM('surface area measure',AREA_MEASURE(
6.115078858073E-1),#510);
#516=LENGTH_MEASURE_WITH_UNIT(LENGTH_MEASURE(2.54E1),#515);
#517=(CONVERSION_BASED_UNIT('INCH',#516)LENGTH_UNIT()NAMED_UNIT(*));
#518=DERIVED_UNIT_ELEMENT(#517,3.E0);
#519=VOLUME_UNIT((#518));
#520=MEASURE_REPRESENTATION_ITEM('volume measure',VOLUME_MEASURE(
1.820908472843E-2),#519);
#524=CARTESIAN_POINT('centre point',(1.002375733666E-12,6.516988281368E-1,
0.E0));
#1=DRAUGHTING_PRE_DEFINED_COLOUR('white');
#2=DRAUGHTING_PRE_DEFINED_COLOUR('green');
#3=COLOUR_RGB('',1.1E-2,1.2E-2,1.E0);
#4=COLOUR_RGB('',2.352941176471E-1,2.352941176471E-1,2.352941176471E-1);
#5=COLOUR_RGB('',2.666666666667E-1,4.666666666667E-1,4.E-1);
#6=COLOUR_RGB('',4.1E-1,2.61589E-1,1.12848E-1);
#7=COLOUR_RGB('',5.04854E-1,1.5455E-2,1.5455E-2);
#8=COLOUR_RGB('',6.274509803922E-1,6.274509803922E-1,6.274509803922E-1);
#9=COLOUR_RGB('',6.35294E-1,6.86275E-1,7.4902E-1);
#10=COLOUR_RGB('',6.40777E-1,6.40777E-1,6.40777E-1);
#11=COLOUR_RGB('',6.69062E-1,6.69903E-1,6.55217E-1);
#12=COLOUR_RGB('',9.098039215686E-1,4.431372549020E-1,3.137254901961E-2);
#13=COLOUR_RGB('',9.21569E-1,7.05882E-1,4.70588E-1);
#14=DRAUGHTING_PRE_DEFINED_COLOUR('red');
#15=DRAUGHTING_PRE_DEFINED_COLOUR('yellow');
#16=COLOUR_RGB('',1.E0,1.E0,5.3E-1);
#17=COLOUR_RGB('',1.E0,1.E0,9.49E-1);
#18=DRAUGHTING_PRE_DEFINED_COLOUR('white');
#24=CIRCLE('',#23,6.25E-2);
#47=CIRCLE('',#46,7.086614173227E-2);
#55=CIRCLE('',#54,7.086614173227E-2);
#63=CIRCLE('',#62,6.25E-2);
#71=CIRCLE('',#70,6.25E-2);
#93=CIRCLE('',#92,7.874015748030E-2);
#101=CIRCLE('',#100,7.874015748030E-2);
#109=CIRCLE('',#108,7.086614173227E-2);
#117=CIRCLE('',#116,7.086614173227E-2);
#139=CIRCLE('',#138,7.874015748030E-2);
#147=CIRCLE('',#146,1.181102362205E-2);
#155=CIRCLE('',#154,1.181102362205E-2);
#163=CIRCLE('',#162,7.874015748030E-2);
#171=CIRCLE('',#170,6.692913385826E-2);
#179=CIRCLE('',#178,6.692913385826E-2);
#187=CIRCLE('',#186,6.25E-2);
#195=CIRCLE('',#194,1.181102362205E-2);
#203=CIRCLE('',#202,1.181102362205E-2);
#211=CIRCLE('',#210,5.068897637795E-2);
#219=CIRCLE('',#218,5.068897637795E-2);
#260=EDGE_CURVE('',#225,#229,#24,.T.);
#262=EDGE_CURVE('',#229,#230,#203,.T.);
#264=EDGE_CURVE('',#230,#226,#211,.T.);
#266=EDGE_CURVE('',#225,#226,#195,.T.);
#270=ADVANCED_FACE('',(#269),#259,.T.);
#276=EDGE_CURVE('',#229,#232,#32,.T.);
#279=EDGE_CURVE('',#225,#234,#39,.T.);
#281=EDGE_CURVE('',#234,#232,#63,.T.);
#285=ADVANCED_FACE('',(#284),#275,.T.);
#292=EDGE_CURVE('',#232,#234,#71,.T.);
#295=EDGE_CURVE('',#229,#225,#187,.T.);
#299=ADVANCED_FACE('',(#298),#290,.T.);
#305=EDGE_CURVE('',#237,#242,#47,.T.);
#307=EDGE_CURVE('',#242,#237,#55,.T.);
#315=ADVANCED_FACE('',(#310,#314),#304,.T.);
#321=EDGE_CURVE('',#237,#238,#78,.T.);
#324=EDGE_CURVE('',#242,#240,#85,.T.);
#326=EDGE_CURVE('',#240,#238,#109,.T.);
#330=ADVANCED_FACE('',(#329),#320,.T.);
#337=EDGE_CURVE('',#238,#240,#117,.T.);
#343=ADVANCED_FACE('',(#342),#335,.T.);
#349=EDGE_CURVE('',#245,#248,#93,.T.);
#351=EDGE_CURVE('',#248,#245,#101,.T.);
#359=ADVANCED_FACE('',(#354,#358),#348,.F.);
#365=EDGE_CURVE('',#245,#246,#124,.T.);
#368=EDGE_CURVE('',#248,#250,#131,.T.);
#370=EDGE_CURVE('',#246,#250,#163,.T.);
#374=ADVANCED_FACE('',(#373),#364,.T.);
#381=EDGE_CURVE('',#250,#246,#139,.T.);
#387=ADVANCED_FACE('',(#386),#379,.T.);
#394=EDGE_CURVE('',#246,#254,#147,.T.);
#396=EDGE_CURVE('',#254,#252,#179,.T.);
#398=EDGE_CURVE('',#250,#252,#155,.T.);
#402=ADVANCED_FACE('',(#401),#392,.T.);
#410=EDGE_CURVE('',#252,#254,#171,.T.);
#415=ADVANCED_FACE('',(#414),#407,.T.);
#425=ADVANCED_FACE('',(#424),#420,.F.);
#433=EDGE_CURVE('',#226,#230,#219,.T.);
#438=ADVANCED_FACE('',(#437),#430,.T.);
#448=ADVANCED_FACE('',(#447),#443,.F.);
#449=CLOSED_SHELL('',(#270,#285,#299,#315,#330,#343,#359,#374,#387,#402,#415,
#425,#438,#448));
#450=MANIFOLD_SOLID_BREP('',#449);
#457=(LENGTH_UNIT()NAMED_UNIT(*)SI_UNIT(.MILLI.,.METRE.));
#460=(NAMED_UNIT(*)PLANE_ANGLE_UNIT()SI_UNIT($,.RADIAN.));
#463=(NAMED_UNIT(*)SI_UNIT($,.STERADIAN.)SOLID_ANGLE_UNIT());
#465=(GEOMETRIC_REPRESENTATION_CONTEXT(3)GLOBAL_UNCERTAINTY_ASSIGNED_CONTEXT((
#464))GLOBAL_UNIT_ASSIGNED_CONTEXT((#459,#462,#463))REPRESENTATION_CONTEXT
('ID1','3'));
#469=AXIS2_PLACEMENT_3D('',#466,#467,#468);
#470=ADVANCED_BREP_SHAPE_REPRESENTATION('',(#469,#450),#465);
#478=PRODUCT_DEFINITION('design','',#477,#474);
#479=PRODUCT_DEFINITION_SHAPE('','SHAPE FOR BODY5-236.',#478);
#480=SHAPE_ASPECT('','solid data associated with BODY5-236',#479,.F.);
#481=PROPERTY_DEFINITION('',
'shape for solid data with which properties are associated',#480);
#482=SHAPE_REPRESENTATION('',(#450),#465);
#483=SHAPE_DEFINITION_REPRESENTATION(#481,#482);
#484=(LENGTH_UNIT()NAMED_UNIT(*)SI_UNIT(.MILLI.,.METRE.));
#490=PROPERTY_DEFINITION('geometric validation property','area of BODY5-236',
#480);
#491=REPRESENTATION('surface area',(#489),#465);
#492=PROPERTY_DEFINITION_REPRESENTATION(#490,#491);
#493=(LENGTH_UNIT()NAMED_UNIT(*)SI_UNIT(.MILLI.,.METRE.));
#499=PROPERTY_DEFINITION('geometric validation property','volume of BODY5-236',
#480);
#500=REPRESENTATION('volume',(#498),#465);
#501=PROPERTY_DEFINITION_REPRESENTATION(#499,#500);
#503=PROPERTY_DEFINITION('geometric validation property',
'centroid of BODY5-236',#480);
#504=REPRESENTATION('centroid',(#502),#465);
#505=PROPERTY_DEFINITION_REPRESENTATION(#503,#504);
#506=(LENGTH_UNIT()NAMED_UNIT(*)SI_UNIT(.MILLI.,.METRE.));
#512=PROPERTY_DEFINITION('geometric validation property','area of BODY5-236',
#479);
#513=REPRESENTATION('surface area',(#511),#465);
#514=PROPERTY_DEFINITION_REPRESENTATION(#512,#513);
#515=(LENGTH_UNIT()NAMED_UNIT(*)SI_UNIT(.MILLI.,.METRE.));
#521=PROPERTY_DEFINITION('geometric validation property','volume of BODY5-236',
#479);
#522=REPRESENTATION('volume',(#520),#465);
#523=PROPERTY_DEFINITION_REPRESENTATION(#521,#522);
#525=PROPERTY_DEFINITION('geometric validation property',
'centroid of BODY5-236',#479);
#526=REPRESENTATION('centroid',(#524),#465);
#527=PROPERTY_DEFINITION_REPRESENTATION(#525,#526);
#528=SHAPE_DEFINITION_REPRESENTATION(#479,#470);
ENDSEC;
END-ISO-10303-21;
