ISO-10303-21;
HEADER;
FILE_DESCRIPTION((''),'2;1');
FILE_NAME('BODY1-4116','2026-06-15T13:45:24',('Esia'),(''),
'CREO PARAMETRIC BY PTC INC, 2025102','CREO PARAMETRIC BY PTC INC, 2025102','');
FILE_SCHEMA((
'AP242_MANAGED_MODEL_BASED_3D_ENGINEERING_MIM_LF { 1 0 10303 442 1 1 4 }'));
ENDSEC;
DATA;
#24=DIRECTION('',(0.E0,0.E0,-1.E0));
#25=VECTOR('',#24,6.53669E-2);
#26=CARTESIAN_POINT('',(0.E0,5.118110236220E-1,6.53669E-2));
#27=LINE('',#26,#25);
#28=DRAUGHTING_PRE_DEFINED_CURVE_FONT('continuous');
#29=CURVE_STYLE('',#28,POSITIVE_LENGTH_MEASURE(2.E-2),#1);
#30=PRESENTATION_STYLE_ASSIGNMENT((#29));
#31=STYLED_ITEM('',(#30),#27);
#32=DIRECTION('',(0.E0,1.E0,0.E0));
#33=VECTOR('',#32,5.118110236220E-1);
#34=CARTESIAN_POINT('',(0.E0,0.E0,6.53669E-2));
#35=LINE('',#34,#33);
#36=CURVE_STYLE('',#28,POSITIVE_LENGTH_MEASURE(2.E-2),#1);
#37=PRESENTATION_STYLE_ASSIGNMENT((#36));
#38=STYLED_ITEM('',(#37),#35);
#39=DIRECTION('',(0.E0,0.E0,-1.E0));
#40=VECTOR('',#39,6.53669E-2);
#41=CARTESIAN_POINT('',(1.023622047244E0,5.118110236220E-1,6.53669E-2));
#42=LINE('',#41,#40);
#43=CURVE_STYLE('',#28,POSITIVE_LENGTH_MEASURE(2.E-2),#1);
#44=PRESENTATION_STYLE_ASSIGNMENT((#43));
#45=STYLED_ITEM('',(#44),#42);
#46=DIRECTION('',(1.E0,0.E0,0.E0));
#47=VECTOR('',#46,1.023622047244E0);
#48=CARTESIAN_POINT('',(0.E0,5.118110236220E-1,6.53669E-2));
#49=LINE('',#48,#47);
#50=CURVE_STYLE('',#28,POSITIVE_LENGTH_MEASURE(2.E-2),#1);
#51=PRESENTATION_STYLE_ASSIGNMENT((#50));
#52=STYLED_ITEM('',(#51),#49);
#53=DIRECTION('',(0.E0,1.E0,0.E0));
#54=VECTOR('',#53,5.118110236220E-1);
#55=CARTESIAN_POINT('',(1.023622047244E0,0.E0,0.E0));
#56=LINE('',#55,#54);
#57=CURVE_STYLE('',#28,POSITIVE_LENGTH_MEASURE(2.E-2),#1);
#58=PRESENTATION_STYLE_ASSIGNMENT((#57));
#59=STYLED_ITEM('',(#58),#56);
#60=DIRECTION('',(0.E0,0.E0,-1.E0));
#61=VECTOR('',#60,6.53669E-2);
#62=CARTESIAN_POINT('',(1.023622047244E0,0.E0,6.53669E-2));
#63=LINE('',#62,#61);
#64=CURVE_STYLE('',#28,POSITIVE_LENGTH_MEASURE(2.E-2),#1);
#65=PRESENTATION_STYLE_ASSIGNMENT((#64));
#66=STYLED_ITEM('',(#65),#63);
#67=DIRECTION('',(0.E0,-1.E0,0.E0));
#68=VECTOR('',#67,5.118110236220E-1);
#69=CARTESIAN_POINT('',(1.023622047244E0,5.118110236220E-1,6.53669E-2));
#70=LINE('',#69,#68);
#71=CURVE_STYLE('',#28,POSITIVE_LENGTH_MEASURE(2.E-2),#1);
#72=PRESENTATION_STYLE_ASSIGNMENT((#71));
#73=STYLED_ITEM('',(#72),#70);
#74=DIRECTION('',(1.E0,0.E0,0.E0));
#75=VECTOR('',#74,1.023622047244E0);
#76=CARTESIAN_POINT('',(0.E0,5.118110236220E-1,0.E0));
#77=LINE('',#76,#75);
#78=CURVE_STYLE('',#28,POSITIVE_LENGTH_MEASURE(2.E-2),#1);
#79=PRESENTATION_STYLE_ASSIGNMENT((#78));
#80=STYLED_ITEM('',(#79),#77);
#81=DIRECTION('',(0.E0,1.E0,0.E0));
#82=VECTOR('',#81,5.118110236220E-1);
#83=CARTESIAN_POINT('',(0.E0,0.E0,0.E0));
#84=LINE('',#83,#82);
#85=CURVE_STYLE('',#28,POSITIVE_LENGTH_MEASURE(2.E-2),#1);
#86=PRESENTATION_STYLE_ASSIGNMENT((#85));
#87=STYLED_ITEM('',(#86),#84);
#88=DIRECTION('',(-1.E0,0.E0,0.E0));
#89=VECTOR('',#88,1.023622047244E0);
#90=CARTESIAN_POINT('',(1.023622047244E0,0.E0,0.E0));
#91=LINE('',#90,#89);
#92=CURVE_STYLE('',#28,POSITIVE_LENGTH_MEASURE(2.E-2),#1);
#93=PRESENTATION_STYLE_ASSIGNMENT((#92));
#94=STYLED_ITEM('',(#93),#91);
#95=DIRECTION('',(0.E0,0.E0,-1.E0));
#96=VECTOR('',#95,6.53669E-2);
#97=CARTESIAN_POINT('',(0.E0,0.E0,6.53669E-2));
#98=LINE('',#97,#96);
#99=CURVE_STYLE('',#28,POSITIVE_LENGTH_MEASURE(2.E-2),#1);
#100=PRESENTATION_STYLE_ASSIGNMENT((#99));
#101=STYLED_ITEM('',(#100),#98);
#102=DIRECTION('',(-1.E0,0.E0,0.E0));
#103=VECTOR('',#102,1.023622047244E0);
#104=CARTESIAN_POINT('',(1.023622047244E0,0.E0,6.53669E-2));
#105=LINE('',#104,#103);
#106=CURVE_STYLE('',#28,POSITIVE_LENGTH_MEASURE(2.E-2),#1);
#107=PRESENTATION_STYLE_ASSIGNMENT((#106));
#108=STYLED_ITEM('',(#107),#105);
#109=CARTESIAN_POINT('',(0.E0,5.118110236220E-1,6.53669E-2));
#110=CARTESIAN_POINT('',(0.E0,5.118110236220E-1,0.E0));
#111=VERTEX_POINT('',#109);
#112=VERTEX_POINT('',#110);
#113=CARTESIAN_POINT('',(0.E0,0.E0,0.E0));
#114=VERTEX_POINT('',#113);
#115=CARTESIAN_POINT('',(0.E0,0.E0,6.53669E-2));
#116=VERTEX_POINT('',#115);
#117=CARTESIAN_POINT('',(1.023622047244E0,0.E0,0.E0));
#118=CARTESIAN_POINT('',(1.023622047244E0,5.118110236220E-1,0.E0));
#119=VERTEX_POINT('',#117);
#120=VERTEX_POINT('',#118);
#121=CARTESIAN_POINT('',(1.023622047244E0,5.118110236220E-1,6.53669E-2));
#122=VERTEX_POINT('',#121);
#123=CARTESIAN_POINT('',(1.023622047244E0,0.E0,6.53669E-2));
#124=VERTEX_POINT('',#123);
#125=CARTESIAN_POINT('',(0.E0,5.118110236220E-1,0.E0));
#126=DIRECTION('',(1.E0,0.E0,0.E0));
#127=DIRECTION('',(0.E0,-1.E0,0.E0));
#128=AXIS2_PLACEMENT_3D('',#125,#126,#127);
#129=PLANE('',#128);
#131=ORIENTED_EDGE('',*,*,#130,.F.);
#133=ORIENTED_EDGE('',*,*,#132,.F.);
#135=ORIENTED_EDGE('',*,*,#134,.T.);
#137=ORIENTED_EDGE('',*,*,#136,.T.);
#138=EDGE_LOOP('',(#131,#133,#135,#137));
#139=FACE_OUTER_BOUND('',#138,.F.);
#141=CARTESIAN_POINT('',(1.114173228346E0,5.118110236220E-1,0.E0));
#142=DIRECTION('',(0.E0,-1.E0,0.E0));
#143=DIRECTION('',(-1.E0,0.E0,0.E0));
#144=AXIS2_PLACEMENT_3D('',#141,#142,#143);
#145=PLANE('',#144);
#147=ORIENTED_EDGE('',*,*,#146,.F.);
#149=ORIENTED_EDGE('',*,*,#148,.F.);
#150=ORIENTED_EDGE('',*,*,#130,.T.);
#152=ORIENTED_EDGE('',*,*,#151,.T.);
#153=EDGE_LOOP('',(#147,#149,#150,#152));
#154=FACE_OUTER_BOUND('',#153,.F.);
#156=CARTESIAN_POINT('',(1.023622047244E0,1.181102362205E-1,0.E0));
#157=DIRECTION('',(-1.E0,0.E0,0.E0));
#158=DIRECTION('',(0.E0,1.E0,0.E0));
#159=AXIS2_PLACEMENT_3D('',#156,#157,#158);
#160=PLANE('',#159);
#162=ORIENTED_EDGE('',*,*,#161,.F.);
#164=ORIENTED_EDGE('',*,*,#163,.F.);
#166=ORIENTED_EDGE('',*,*,#165,.F.);
#167=ORIENTED_EDGE('',*,*,#146,.T.);
#168=EDGE_LOOP('',(#162,#164,#166,#167));
#169=FACE_OUTER_BOUND('',#168,.F.);
#171=CARTESIAN_POINT('',(6.079166073087E-1,2.559055118110E-1,0.E0));
#172=DIRECTION('',(0.E0,0.E0,1.E0));
#173=DIRECTION('',(1.E0,0.E0,0.E0));
#174=AXIS2_PLACEMENT_3D('',#171,#172,#173);
#175=PLANE('',#174);
#176=ORIENTED_EDGE('',*,*,#161,.T.);
#177=ORIENTED_EDGE('',*,*,#151,.F.);
#178=ORIENTED_EDGE('',*,*,#136,.F.);
#180=ORIENTED_EDGE('',*,*,#179,.F.);
#181=EDGE_LOOP('',(#176,#177,#178,#180));
#182=FACE_OUTER_BOUND('',#181,.F.);
#184=CARTESIAN_POINT('',(0.E0,0.E0,0.E0));
#185=DIRECTION('',(0.E0,1.E0,0.E0));
#186=DIRECTION('',(1.E0,0.E0,0.E0));
#187=AXIS2_PLACEMENT_3D('',#184,#185,#186);
#188=PLANE('',#187);
#189=ORIENTED_EDGE('',*,*,#163,.T.);
#190=ORIENTED_EDGE('',*,*,#179,.T.);
#191=ORIENTED_EDGE('',*,*,#134,.F.);
#193=ORIENTED_EDGE('',*,*,#192,.F.);
#194=EDGE_LOOP('',(#189,#190,#191,#193));
#195=FACE_OUTER_BOUND('',#194,.F.);
#197=CARTESIAN_POINT('',(6.079166073087E-1,2.559055118110E-1,6.53669E-2));
#198=DIRECTION('',(0.E0,0.E0,1.E0));
#199=DIRECTION('',(1.E0,0.E0,0.E0));
#200=AXIS2_PLACEMENT_3D('',#197,#198,#199);
#201=PLANE('',#200);
#202=ORIENTED_EDGE('',*,*,#165,.T.);
#203=ORIENTED_EDGE('',*,*,#192,.T.);
#204=ORIENTED_EDGE('',*,*,#132,.T.);
#205=ORIENTED_EDGE('',*,*,#148,.T.);
#206=EDGE_LOOP('',(#202,#203,#204,#205));
#207=FACE_OUTER_BOUND('',#206,.F.);
#211=FILL_AREA_STYLE_COLOUR('',#1);
#212=FILL_AREA_STYLE('',(#211));
#213=SURFACE_STYLE_FILL_AREA(#212);
#214=SURFACE_SIDE_STYLE('',(#213));
#215=SURFACE_STYLE_USAGE(.BOTH.,#214);
#216=PRESENTATION_STYLE_ASSIGNMENT((#215));
#23=STYLED_ITEM('',(#216),#210);
#218=LENGTH_MEASURE_WITH_UNIT(LENGTH_MEASURE(2.54E1),#217);
#219=(CONVERSION_BASED_UNIT('INCH',#218)LENGTH_UNIT()NAMED_UNIT(*));
#221=PLANE_ANGLE_MEASURE_WITH_UNIT(PLANE_ANGLE_MEASURE(1.745329251994E-2),#220);
#222=(CONVERSION_BASED_UNIT('DEGREE',#221)NAMED_UNIT(*)PLANE_ANGLE_UNIT());
#224=UNCERTAINTY_MEASURE_WITH_UNIT(LENGTH_MEASURE(1.146263642882E-4),#219,
'closure',
'Maximum model space distance between geometric entities at asserted connectivities');
#226=CARTESIAN_POINT('',(0.E0,0.E0,0.E0));
#227=DIRECTION('',(0.E0,0.E0,1.E0));
#228=DIRECTION('',(1.E0,0.E0,0.E0));
#231=MECHANICAL_DESIGN_GEOMETRIC_PRESENTATION_REPRESENTATION('',(#31,#38,#45,
#52,#59,#66,#73,#80,#87,#94,#101,#108,#23),#225);
#232=APPLICATION_CONTEXT('automotive design');
#233=APPLICATION_PROTOCOL_DEFINITION('international standard',
'config_control_design',1994,#232);
#234=PRODUCT_DEFINITION_CONTEXT('',#232,'design');
#235=PRODUCT_CONTEXT('',#232,'mechanical');
#236=PRODUCT('BODY1-4116','BODY1-4116','NOT SPECIFIED',(#235));
#237=PRODUCT_DEFINITION_FORMATION_WITH_SPECIFIED_SOURCE('1','LAST_VERSION',#236,
.MADE.);
#245=LENGTH_MEASURE_WITH_UNIT(LENGTH_MEASURE(2.54E1),#244);
#246=(CONVERSION_BASED_UNIT('INCH',#245)LENGTH_UNIT()NAMED_UNIT(*));
#247=DERIVED_UNIT_ELEMENT(#246,2.E0);
#248=AREA_UNIT((#247));
#249=MEASURE_REPRESENTATION_ITEM('surface area measure',AREA_MEASURE(
8.055049022800E2),#248);
#254=LENGTH_MEASURE_WITH_UNIT(LENGTH_MEASURE(2.54E1),#253);
#255=(CONVERSION_BASED_UNIT('INCH',#254)LENGTH_UNIT()NAMED_UNIT(*));
#256=DERIVED_UNIT_ELEMENT(#255,3.E0);
#257=VOLUME_UNIT((#256));
#258=MEASURE_REPRESENTATION_ITEM('volume measure',VOLUME_MEASURE(
5.611879098800E2),#257);
#262=CARTESIAN_POINT('centre point',(1.3E1,6.5E0,8.3015963E-1));
#267=LENGTH_MEASURE_WITH_UNIT(LENGTH_MEASURE(2.54E1),#266);
#268=(CONVERSION_BASED_UNIT('INCH',#267)LENGTH_UNIT()NAMED_UNIT(*));
#269=DERIVED_UNIT_ELEMENT(#268,2.E0);
#270=AREA_UNIT((#269));
#271=MEASURE_REPRESENTATION_ITEM('surface area measure',AREA_MEASURE(
8.055049022800E2),#270);
#276=LENGTH_MEASURE_WITH_UNIT(LENGTH_MEASURE(2.54E1),#275);
#277=(CONVERSION_BASED_UNIT('INCH',#276)LENGTH_UNIT()NAMED_UNIT(*));
#278=DERIVED_UNIT_ELEMENT(#277,3.E0);
#279=VOLUME_UNIT((#278));
#280=MEASURE_REPRESENTATION_ITEM('volume measure',VOLUME_MEASURE(
5.611879098800E2),#279);
#284=CARTESIAN_POINT('centre point',(1.3E1,6.5E0,8.3015963E-1));
#1=COLOUR_RGB('',2.509803921569E-1,2.509803921569E-1,2.509803921569E-1);
#2=DRAUGHTING_PRE_DEFINED_COLOUR('green');
#3=COLOUR_RGB('',1.1E-2,1.2E-2,1.E0);
#4=COLOUR_RGB('',1.921568627451E-1,1.921568627451E-1,1.921568627451E-1);
#5=COLOUR_RGB('',2.352941176471E-1,2.352941176471E-1,2.352941176471E-1);
#6=COLOUR_RGB('',2.509803921569E-1,2.509803921569E-1,2.509803921569E-1);
#7=COLOUR_RGB('',3.137254901961E-1,3.137254901961E-1,3.137254901961E-1);
#8=COLOUR_RGB('',4.1E-1,2.61589E-1,1.12848E-1);
#9=COLOUR_RGB('',5.04854E-1,1.5455E-2,1.5455E-2);
#10=COLOUR_RGB('',6.274509803922E-1,6.274509803922E-1,6.274509803922E-1);
#11=COLOUR_RGB('',6.35294E-1,6.86275E-1,7.4902E-1);
#12=COLOUR_RGB('',6.40777E-1,6.40777E-1,6.40777E-1);
#13=COLOUR_RGB('',6.69062E-1,6.69903E-1,6.55217E-1);
#14=COLOUR_RGB('',8.313725490196E-1,0.E0,0.E0);
#15=COLOUR_RGB('',8.666666666667E-1,8.666666666667E-1,8.666666666667E-1);
#16=COLOUR_RGB('',9.21569E-1,7.05882E-1,4.70588E-1);
#17=COLOUR_RGB('',9.568627450980E-1,8.980392156863E-1,6.549019607843E-1);
#18=DRAUGHTING_PRE_DEFINED_COLOUR('red');
#19=DRAUGHTING_PRE_DEFINED_COLOUR('yellow');
#20=COLOUR_RGB('',1.E0,1.E0,5.3E-1);
#21=COLOUR_RGB('',1.E0,1.E0,9.49E-1);
#22=DRAUGHTING_PRE_DEFINED_COLOUR('white');
#130=EDGE_CURVE('',#111,#112,#27,.T.);
#132=EDGE_CURVE('',#116,#111,#35,.T.);
#134=EDGE_CURVE('',#116,#114,#98,.T.);
#136=EDGE_CURVE('',#114,#112,#84,.T.);
#140=ADVANCED_FACE('',(#139),#129,.F.);
#146=EDGE_CURVE('',#122,#120,#42,.T.);
#148=EDGE_CURVE('',#111,#122,#49,.T.);
#151=EDGE_CURVE('',#112,#120,#77,.T.);
#155=ADVANCED_FACE('',(#154),#145,.F.);
#161=EDGE_CURVE('',#119,#120,#56,.T.);
#163=EDGE_CURVE('',#124,#119,#63,.T.);
#165=EDGE_CURVE('',#122,#124,#70,.T.);
#170=ADVANCED_FACE('',(#169),#160,.F.);
#179=EDGE_CURVE('',#119,#114,#91,.T.);
#183=ADVANCED_FACE('',(#182),#175,.F.);
#192=EDGE_CURVE('',#124,#116,#105,.T.);
#196=ADVANCED_FACE('',(#195),#188,.F.);
#208=ADVANCED_FACE('',(#207),#201,.T.);
#209=CLOSED_SHELL('',(#140,#155,#170,#183,#196,#208));
#210=MANIFOLD_SOLID_BREP('',#209);
#217=(LENGTH_UNIT()NAMED_UNIT(*)SI_UNIT(.MILLI.,.METRE.));
#220=(NAMED_UNIT(*)PLANE_ANGLE_UNIT()SI_UNIT($,.RADIAN.));
#223=(NAMED_UNIT(*)SI_UNIT($,.STERADIAN.)SOLID_ANGLE_UNIT());
#225=(GEOMETRIC_REPRESENTATION_CONTEXT(3)GLOBAL_UNCERTAINTY_ASSIGNED_CONTEXT((
#224))GLOBAL_UNIT_ASSIGNED_CONTEXT((#219,#222,#223))REPRESENTATION_CONTEXT
('ID1','3'));
#229=AXIS2_PLACEMENT_3D('',#226,#227,#228);
#230=ADVANCED_BREP_SHAPE_REPRESENTATION('',(#229,#210),#225);
#238=PRODUCT_DEFINITION('design','',#237,#234);
#239=PRODUCT_DEFINITION_SHAPE('','SHAPE FOR BODY1-4116.',#238);
#240=SHAPE_ASPECT('','solid data associated with BODY1-4116',#239,.F.);
#241=PROPERTY_DEFINITION('',
'shape for solid data with which properties are associated',#240);
#242=SHAPE_REPRESENTATION('',(#210),#225);
#243=SHAPE_DEFINITION_REPRESENTATION(#241,#242);
#244=(LENGTH_UNIT()NAMED_UNIT(*)SI_UNIT(.MILLI.,.METRE.));
#250=PROPERTY_DEFINITION('geometric validation property','area of BODY1-4116',
#240);
#251=REPRESENTATION('surface area',(#249),#225);
#252=PROPERTY_DEFINITION_REPRESENTATION(#250,#251);
#253=(LENGTH_UNIT()NAMED_UNIT(*)SI_UNIT(.MILLI.,.METRE.));
#259=PROPERTY_DEFINITION('geometric validation property','volume of BODY1-4116',
#240);
#260=REPRESENTATION('volume',(#258),#225);
#261=PROPERTY_DEFINITION_REPRESENTATION(#259,#260);
#263=PROPERTY_DEFINITION('geometric validation property',
'centroid of BODY1-4116',#240);
#264=REPRESENTATION('centroid',(#262),#225);
#265=PROPERTY_DEFINITION_REPRESENTATION(#263,#264);
#266=(LENGTH_UNIT()NAMED_UNIT(*)SI_UNIT(.MILLI.,.METRE.));
#272=PROPERTY_DEFINITION('geometric validation property','area of BODY1-4116',
#239);
#273=REPRESENTATION('surface area',(#271),#225);
#274=PROPERTY_DEFINITION_REPRESENTATION(#272,#273);
#275=(LENGTH_UNIT()NAMED_UNIT(*)SI_UNIT(.MILLI.,.METRE.));
#281=PROPERTY_DEFINITION('geometric validation property','volume of BODY1-4116',
#239);
#282=REPRESENTATION('volume',(#280),#225);
#283=PROPERTY_DEFINITION_REPRESENTATION(#281,#282);
#285=PROPERTY_DEFINITION('geometric validation property',
'centroid of BODY1-4116',#239);
#286=REPRESENTATION('centroid',(#284),#225);
#287=PROPERTY_DEFINITION_REPRESENTATION(#285,#286);
#288=SHAPE_DEFINITION_REPRESENTATION(#239,#230);
ENDSEC;
END-ISO-10303-21;
