ISO-10303-21;
HEADER;
FILE_DESCRIPTION((''),'2;1');
FILE_NAME('BODY10-213','2026-06-15T13:45:19',('Esia'),(''),
'CREO PARAMETRIC BY PTC INC, 2025102','CREO PARAMETRIC BY PTC INC, 2025102','');
FILE_SCHEMA((
'AP242_MANAGED_MODEL_BASED_3D_ENGINEERING_MIM_LF { 1 0 10303 442 1 1 4 }'));
ENDSEC;
DATA;
#20=CARTESIAN_POINT('',(-1.040218064698E-1,-3.379873375976E-2,0.E0));
#21=DIRECTION('',(3.090169943749E-1,-9.510565162952E-1,0.E0));
#22=DIRECTION('',(0.E0,0.E0,-1.E0));
#23=AXIS2_PLACEMENT_3D('',#20,#21,#22);
#25=DRAUGHTING_PRE_DEFINED_CURVE_FONT('continuous');
#26=CURVE_STYLE('',#25,POSITIVE_LENGTH_MEASURE(2.E-2),#1);
#27=PRESENTATION_STYLE_ASSIGNMENT((#26));
#28=STYLED_ITEM('',(#27),#24);
#29=CARTESIAN_POINT('',(-1.040218064698E-1,-3.379873375976E-2,0.E0));
#30=DIRECTION('',(-3.090169943749E-1,9.510565162952E-1,0.E0));
#31=DIRECTION('',(0.E0,0.E0,-1.E0));
#32=AXIS2_PLACEMENT_3D('',#29,#30,#31);
#34=CURVE_STYLE('',#25,POSITIVE_LENGTH_MEASURE(2.E-2),#1);
#35=PRESENTATION_STYLE_ASSIGNMENT((#34));
#36=STYLED_ITEM('',(#35),#33);
#37=CARTESIAN_POINT('',(-1.040218064698E-1,-3.379873375976E-2,
-3.215026741387E-2));
#38=CARTESIAN_POINT('',(-1.040218064698E-1,-3.379873375976E-2,
3.215026741387E-2));
#39=VERTEX_POINT('',#37);
#40=VERTEX_POINT('',#38);
#41=CARTESIAN_POINT('',(-1.040218064698E-1,-3.379873375976E-2,0.E0));
#42=DIRECTION('',(0.E0,0.E0,1.E0));
#43=DIRECTION('',(-9.510565162952E-1,-3.090169943749E-1,0.E0));
#44=AXIS2_PLACEMENT_3D('',#41,#42,#43);
#45=SPHERICAL_SURFACE('',#44,3.215026741387E-2);
#47=ORIENTED_EDGE('',*,*,#46,.T.);
#49=ORIENTED_EDGE('',*,*,#48,.F.);
#50=EDGE_LOOP('',(#47,#49));
#51=FACE_OUTER_BOUND('',#50,.F.);
#53=CARTESIAN_POINT('',(-1.040218064698E-1,-3.379873375976E-2,0.E0));
#54=DIRECTION('',(0.E0,0.E0,1.E0));
#55=DIRECTION('',(-9.510565162952E-1,-3.090169943749E-1,0.E0));
#56=AXIS2_PLACEMENT_3D('',#53,#54,#55);
#57=SPHERICAL_SURFACE('',#56,3.215026741387E-2);
#58=ORIENTED_EDGE('',*,*,#48,.T.);
#59=ORIENTED_EDGE('',*,*,#46,.F.);
#60=EDGE_LOOP('',(#58,#59));
#61=FACE_OUTER_BOUND('',#60,.F.);
#65=FILL_AREA_STYLE_COLOUR('',#1);
#66=FILL_AREA_STYLE('',(#65));
#67=SURFACE_STYLE_FILL_AREA(#66);
#68=SURFACE_SIDE_STYLE('',(#67));
#69=SURFACE_STYLE_USAGE(.BOTH.,#68);
#70=PRESENTATION_STYLE_ASSIGNMENT((#69));
#19=STYLED_ITEM('',(#70),#64);
#72=LENGTH_MEASURE_WITH_UNIT(LENGTH_MEASURE(2.54E1),#71);
#73=(CONVERSION_BASED_UNIT('INCH',#72)LENGTH_UNIT()NAMED_UNIT(*));
#75=PLANE_ANGLE_MEASURE_WITH_UNIT(PLANE_ANGLE_MEASURE(1.745329251994E-2),#74);
#76=(CONVERSION_BASED_UNIT('DEGREE',#75)NAMED_UNIT(*)PLANE_ANGLE_UNIT());
#78=UNCERTAINTY_MEASURE_WITH_UNIT(LENGTH_MEASURE(1.113673384038E-5),#73,
'closure',
'Maximum model space distance between geometric entities at asserted connectivities');
#80=CARTESIAN_POINT('',(0.E0,0.E0,0.E0));
#81=DIRECTION('',(0.E0,0.E0,1.E0));
#82=DIRECTION('',(1.E0,0.E0,0.E0));
#85=MECHANICAL_DESIGN_GEOMETRIC_PRESENTATION_REPRESENTATION('',(#28,#36,#19),
#79);
#86=APPLICATION_CONTEXT('automotive design');
#87=APPLICATION_PROTOCOL_DEFINITION('international standard',
'config_control_design',1994,#86);
#88=PRODUCT_DEFINITION_CONTEXT('',#86,'design');
#89=PRODUCT_CONTEXT('',#86,'mechanical');
#90=PRODUCT('BODY10-213','BODY10-213','NOT SPECIFIED',(#89));
#91=PRODUCT_DEFINITION_FORMATION_WITH_SPECIFIED_SOURCE('1','LAST_VERSION',#90,
.MADE.);
#99=LENGTH_MEASURE_WITH_UNIT(LENGTH_MEASURE(2.54E1),#98);
#100=(CONVERSION_BASED_UNIT('INCH',#99)LENGTH_UNIT()NAMED_UNIT(*));
#101=DERIVED_UNIT_ELEMENT(#100,2.E0);
#102=AREA_UNIT((#101));
#103=MEASURE_REPRESENTATION_ITEM('surface area measure',AREA_MEASURE(
1.298909948633E-2),#102);
#108=LENGTH_MEASURE_WITH_UNIT(LENGTH_MEASURE(2.54E1),#107);
#109=(CONVERSION_BASED_UNIT('INCH',#108)LENGTH_UNIT()NAMED_UNIT(*));
#110=DERIVED_UNIT_ELEMENT(#109,3.E0);
#111=VOLUME_UNIT((#110));
#112=MEASURE_REPRESENTATION_ITEM('volume measure',VOLUME_MEASURE(
1.392010073170E-4),#111);
#116=CARTESIAN_POINT('centre point',(-1.040218064698E-1,-3.379873375976E-2,
0.E0));
#121=LENGTH_MEASURE_WITH_UNIT(LENGTH_MEASURE(2.54E1),#120);
#122=(CONVERSION_BASED_UNIT('INCH',#121)LENGTH_UNIT()NAMED_UNIT(*));
#123=DERIVED_UNIT_ELEMENT(#122,2.E0);
#124=AREA_UNIT((#123));
#125=MEASURE_REPRESENTATION_ITEM('surface area measure',AREA_MEASURE(
1.298909948633E-2),#124);
#130=LENGTH_MEASURE_WITH_UNIT(LENGTH_MEASURE(2.54E1),#129);
#131=(CONVERSION_BASED_UNIT('INCH',#130)LENGTH_UNIT()NAMED_UNIT(*));
#132=DERIVED_UNIT_ELEMENT(#131,3.E0);
#133=VOLUME_UNIT((#132));
#134=MEASURE_REPRESENTATION_ITEM('volume measure',VOLUME_MEASURE(
1.392010073170E-4),#133);
#138=CARTESIAN_POINT('centre point',(-1.040218064698E-1,-3.379873375976E-2,
0.E0));
#1=COLOUR_RGB('',6.274509803922E-1,6.274509803922E-1,6.274509803922E-1);
#2=DRAUGHTING_PRE_DEFINED_COLOUR('green');
#3=COLOUR_RGB('',1.1E-2,1.2E-2,1.E0);
#4=COLOUR_RGB('',2.352941176471E-1,2.352941176471E-1,2.352941176471E-1);
#5=COLOUR_RGB('',2.666666666667E-1,4.666666666667E-1,4.E-1);
#6=COLOUR_RGB('',4.1E-1,2.61589E-1,1.12848E-1);
#7=COLOUR_RGB('',5.04854E-1,1.5455E-2,1.5455E-2);
#8=COLOUR_RGB('',6.274509803922E-1,6.274509803922E-1,6.274509803922E-1);
#9=COLOUR_RGB('',6.35294E-1,6.86275E-1,7.4902E-1);
#10=COLOUR_RGB('',6.40777E-1,6.40777E-1,6.40777E-1);
#11=COLOUR_RGB('',6.69062E-1,6.69903E-1,6.55217E-1);
#12=COLOUR_RGB('',9.098039215686E-1,4.431372549020E-1,3.137254901961E-2);
#13=COLOUR_RGB('',9.21569E-1,7.05882E-1,4.70588E-1);
#14=DRAUGHTING_PRE_DEFINED_COLOUR('red');
#15=DRAUGHTING_PRE_DEFINED_COLOUR('yellow');
#16=COLOUR_RGB('',1.E0,1.E0,5.3E-1);
#17=COLOUR_RGB('',1.E0,1.E0,9.49E-1);
#18=DRAUGHTING_PRE_DEFINED_COLOUR('white');
#24=CIRCLE('',#23,3.215026741387E-2);
#33=CIRCLE('',#32,3.215026741387E-2);
#46=EDGE_CURVE('',#39,#40,#24,.T.);
#48=EDGE_CURVE('',#39,#40,#33,.T.);
#52=ADVANCED_FACE('',(#51),#45,.T.);
#62=ADVANCED_FACE('',(#61),#57,.T.);
#63=CLOSED_SHELL('',(#52,#62));
#64=MANIFOLD_SOLID_BREP('',#63);
#71=(LENGTH_UNIT()NAMED_UNIT(*)SI_UNIT(.MILLI.,.METRE.));
#74=(NAMED_UNIT(*)PLANE_ANGLE_UNIT()SI_UNIT($,.RADIAN.));
#77=(NAMED_UNIT(*)SI_UNIT($,.STERADIAN.)SOLID_ANGLE_UNIT());
#79=(GEOMETRIC_REPRESENTATION_CONTEXT(3)GLOBAL_UNCERTAINTY_ASSIGNED_CONTEXT(
(#78))GLOBAL_UNIT_ASSIGNED_CONTEXT((#73,#76,#77))REPRESENTATION_CONTEXT('ID1',
'3'));
#83=AXIS2_PLACEMENT_3D('',#80,#81,#82);
#84=ADVANCED_BREP_SHAPE_REPRESENTATION('',(#83,#64),#79);
#92=PRODUCT_DEFINITION('design','',#91,#88);
#93=PRODUCT_DEFINITION_SHAPE('','SHAPE FOR BODY10-213.',#92);
#94=SHAPE_ASPECT('','solid data associated with BODY10-213',#93,.F.);
#95=PROPERTY_DEFINITION('',
'shape for solid data with which properties are associated',#94);
#96=SHAPE_REPRESENTATION('',(#64),#79);
#97=SHAPE_DEFINITION_REPRESENTATION(#95,#96);
#98=(LENGTH_UNIT()NAMED_UNIT(*)SI_UNIT(.MILLI.,.METRE.));
#104=PROPERTY_DEFINITION('geometric validation property','area of BODY10-213',
#94);
#105=REPRESENTATION('surface area',(#103),#79);
#106=PROPERTY_DEFINITION_REPRESENTATION(#104,#105);
#107=(LENGTH_UNIT()NAMED_UNIT(*)SI_UNIT(.MILLI.,.METRE.));
#113=PROPERTY_DEFINITION('geometric validation property','volume of BODY10-213',
#94);
#114=REPRESENTATION('volume',(#112),#79);
#115=PROPERTY_DEFINITION_REPRESENTATION(#113,#114);
#117=PROPERTY_DEFINITION('geometric validation property',
'centroid of BODY10-213',#94);
#118=REPRESENTATION('centroid',(#116),#79);
#119=PROPERTY_DEFINITION_REPRESENTATION(#117,#118);
#120=(LENGTH_UNIT()NAMED_UNIT(*)SI_UNIT(.MILLI.,.METRE.));
#126=PROPERTY_DEFINITION('geometric validation property','area of BODY10-213',
#93);
#127=REPRESENTATION('surface area',(#125),#79);
#128=PROPERTY_DEFINITION_REPRESENTATION(#126,#127);
#129=(LENGTH_UNIT()NAMED_UNIT(*)SI_UNIT(.MILLI.,.METRE.));
#135=PROPERTY_DEFINITION('geometric validation property','volume of BODY10-213',
#93);
#136=REPRESENTATION('volume',(#134),#79);
#137=PROPERTY_DEFINITION_REPRESENTATION(#135,#136);
#139=PROPERTY_DEFINITION('geometric validation property',
'centroid of BODY10-213',#93);
#140=REPRESENTATION('centroid',(#138),#79);
#141=PROPERTY_DEFINITION_REPRESENTATION(#139,#140);
#142=SHAPE_DEFINITION_REPRESENTATION(#93,#84);
ENDSEC;
END-ISO-10303-21;
