ISO-10303-21;
HEADER;
FILE_DESCRIPTION((''),'2;1');
FILE_NAME('BODY14-217','2026-06-15T13:45:19',('Esia'),(''),
'CREO PARAMETRIC BY PTC INC, 2025102','CREO PARAMETRIC BY PTC INC, 2025102','');
FILE_SCHEMA((
'AP242_MANAGED_MODEL_BASED_3D_ENGINEERING_MIM_LF { 1 0 10303 442 1 1 4 }'));
ENDSEC;
DATA;
#20=DIRECTION('',(0.E0,0.E0,1.E0));
#21=VECTOR('',#20,3.464660758613E-2);
#22=CARTESIAN_POINT('',(1.169299450549E-1,0.E0,-6.6796875E-2));
#23=LINE('',#22,#21);
#24=DRAUGHTING_PRE_DEFINED_CURVE_FONT('continuous');
#25=CURVE_STYLE('',#24,POSITIVE_LENGTH_MEASURE(2.E-2),#1);
#26=PRESENTATION_STYLE_ASSIGNMENT((#25));
#27=STYLED_ITEM('',(#26),#23);
#28=DIRECTION('',(0.E0,0.E0,1.E0));
#29=VECTOR('',#28,3.464660758613E-2);
#30=CARTESIAN_POINT('',(-1.169299450549E-1,0.E0,-6.6796875E-2));
#31=LINE('',#30,#29);
#32=CURVE_STYLE('',#24,POSITIVE_LENGTH_MEASURE(2.E-2),#1);
#33=PRESENTATION_STYLE_ASSIGNMENT((#32));
#34=STYLED_ITEM('',(#33),#31);
#35=CARTESIAN_POINT('',(0.E0,0.E0,-3.215026741387E-2));
#36=DIRECTION('',(0.E0,0.E0,1.E0));
#37=DIRECTION('',(-1.E0,0.E0,0.E0));
#38=AXIS2_PLACEMENT_3D('',#35,#36,#37);
#40=CURVE_STYLE('',#24,POSITIVE_LENGTH_MEASURE(2.E-2),#1);
#41=PRESENTATION_STYLE_ASSIGNMENT((#40));
#42=STYLED_ITEM('',(#41),#39);
#43=CARTESIAN_POINT('',(0.E0,0.E0,-3.215026741387E-2));
#44=DIRECTION('',(0.E0,0.E0,1.E0));
#45=DIRECTION('',(1.E0,0.E0,0.E0));
#46=AXIS2_PLACEMENT_3D('',#43,#44,#45);
#48=CURVE_STYLE('',#24,POSITIVE_LENGTH_MEASURE(2.E-2),#1);
#49=PRESENTATION_STYLE_ASSIGNMENT((#48));
#50=STYLED_ITEM('',(#49),#47);
#51=CARTESIAN_POINT('',(0.E0,0.E0,-3.215026741387E-2));
#52=DIRECTION('',(0.E0,0.E0,-1.E0));
#53=DIRECTION('',(1.E0,0.E0,0.E0));
#54=AXIS2_PLACEMENT_3D('',#51,#52,#53);
#56=CURVE_STYLE('',#24,POSITIVE_LENGTH_MEASURE(2.E-2),#1);
#57=PRESENTATION_STYLE_ASSIGNMENT((#56));
#58=STYLED_ITEM('',(#57),#55);
#59=CARTESIAN_POINT('',(0.E0,0.E0,-3.215026741387E-2));
#60=DIRECTION('',(0.E0,0.E0,-1.E0));
#61=DIRECTION('',(-1.E0,0.E0,0.E0));
#62=AXIS2_PLACEMENT_3D('',#59,#60,#61);
#64=CURVE_STYLE('',#24,POSITIVE_LENGTH_MEASURE(2.E-2),#1);
#65=PRESENTATION_STYLE_ASSIGNMENT((#64));
#66=STYLED_ITEM('',(#65),#63);
#67=DIRECTION('',(0.E0,0.E0,1.E0));
#68=VECTOR('',#67,3.464660758613E-2);
#69=CARTESIAN_POINT('',(1.018200549451E-1,0.E0,-6.6796875E-2));
#70=LINE('',#69,#68);
#71=CURVE_STYLE('',#24,POSITIVE_LENGTH_MEASURE(2.E-2),#1);
#72=PRESENTATION_STYLE_ASSIGNMENT((#71));
#73=STYLED_ITEM('',(#72),#70);
#74=DIRECTION('',(0.E0,0.E0,-1.E0));
#75=VECTOR('',#74,3.464660758613E-2);
#76=CARTESIAN_POINT('',(-1.018200549451E-1,0.E0,-3.215026741387E-2));
#77=LINE('',#76,#75);
#78=CURVE_STYLE('',#24,POSITIVE_LENGTH_MEASURE(2.E-2),#1);
#79=PRESENTATION_STYLE_ASSIGNMENT((#78));
#80=STYLED_ITEM('',(#79),#77);
#81=CARTESIAN_POINT('',(0.E0,0.E0,-6.6796875E-2));
#82=DIRECTION('',(0.E0,0.E0,-1.E0));
#83=DIRECTION('',(1.E0,0.E0,0.E0));
#84=AXIS2_PLACEMENT_3D('',#81,#82,#83);
#86=CURVE_STYLE('',#24,POSITIVE_LENGTH_MEASURE(2.E-2),#1);
#87=PRESENTATION_STYLE_ASSIGNMENT((#86));
#88=STYLED_ITEM('',(#87),#85);
#89=CARTESIAN_POINT('',(0.E0,0.E0,-6.6796875E-2));
#90=DIRECTION('',(0.E0,0.E0,-1.E0));
#91=DIRECTION('',(-1.E0,0.E0,0.E0));
#92=AXIS2_PLACEMENT_3D('',#89,#90,#91);
#94=CURVE_STYLE('',#24,POSITIVE_LENGTH_MEASURE(2.E-2),#1);
#95=PRESENTATION_STYLE_ASSIGNMENT((#94));
#96=STYLED_ITEM('',(#95),#93);
#97=CARTESIAN_POINT('',(0.E0,0.E0,-6.6796875E-2));
#98=DIRECTION('',(0.E0,0.E0,1.E0));
#99=DIRECTION('',(-1.E0,0.E0,0.E0));
#100=AXIS2_PLACEMENT_3D('',#97,#98,#99);
#102=CURVE_STYLE('',#24,POSITIVE_LENGTH_MEASURE(2.E-2),#1);
#103=PRESENTATION_STYLE_ASSIGNMENT((#102));
#104=STYLED_ITEM('',(#103),#101);
#105=CARTESIAN_POINT('',(0.E0,0.E0,-6.6796875E-2));
#106=DIRECTION('',(0.E0,0.E0,1.E0));
#107=DIRECTION('',(1.E0,0.E0,0.E0));
#108=AXIS2_PLACEMENT_3D('',#105,#106,#107);
#110=CURVE_STYLE('',#24,POSITIVE_LENGTH_MEASURE(2.E-2),#1);
#111=PRESENTATION_STYLE_ASSIGNMENT((#110));
#112=STYLED_ITEM('',(#111),#109);
#113=CARTESIAN_POINT('',(1.169299450549E-1,0.E0,-6.6796875E-2));
#114=CARTESIAN_POINT('',(1.169299450549E-1,0.E0,-3.215026741387E-2));
#115=VERTEX_POINT('',#113);
#116=VERTEX_POINT('',#114);
#117=CARTESIAN_POINT('',(-1.169299450549E-1,0.E0,-3.215026741387E-2));
#118=VERTEX_POINT('',#117);
#119=CARTESIAN_POINT('',(-1.169299450549E-1,0.E0,-6.6796875E-2));
#120=VERTEX_POINT('',#119);
#121=CARTESIAN_POINT('',(1.018200549451E-1,0.E0,-6.6796875E-2));
#122=CARTESIAN_POINT('',(1.018200549451E-1,0.E0,-3.215026741387E-2));
#123=VERTEX_POINT('',#121);
#124=VERTEX_POINT('',#122);
#125=CARTESIAN_POINT('',(-1.018200549451E-1,0.E0,-6.6796875E-2));
#126=VERTEX_POINT('',#125);
#127=CARTESIAN_POINT('',(-1.018200549451E-1,0.E0,-3.215026741387E-2));
#128=VERTEX_POINT('',#127);
#129=CARTESIAN_POINT('',(0.E0,0.E0,7.03125E-2));
#130=DIRECTION('',(0.E0,0.E0,1.E0));
#131=DIRECTION('',(1.E0,0.E0,0.E0));
#132=AXIS2_PLACEMENT_3D('',#129,#130,#131);
#133=CYLINDRICAL_SURFACE('',#132,1.169299450549E-1);
#135=ORIENTED_EDGE('',*,*,#134,.F.);
#137=ORIENTED_EDGE('',*,*,#136,.T.);
#139=ORIENTED_EDGE('',*,*,#138,.T.);
#141=ORIENTED_EDGE('',*,*,#140,.T.);
#142=EDGE_LOOP('',(#135,#137,#139,#141));
#143=FACE_OUTER_BOUND('',#142,.F.);
#145=CARTESIAN_POINT('',(0.E0,0.E0,7.03125E-2));
#146=DIRECTION('',(0.E0,0.E0,1.E0));
#147=DIRECTION('',(1.E0,0.E0,0.E0));
#148=AXIS2_PLACEMENT_3D('',#145,#146,#147);
#149=CYLINDRICAL_SURFACE('',#148,1.169299450549E-1);
#150=ORIENTED_EDGE('',*,*,#134,.T.);
#152=ORIENTED_EDGE('',*,*,#151,.T.);
#153=ORIENTED_EDGE('',*,*,#138,.F.);
#155=ORIENTED_EDGE('',*,*,#154,.T.);
#156=EDGE_LOOP('',(#150,#152,#153,#155));
#157=FACE_OUTER_BOUND('',#156,.F.);
#159=CARTESIAN_POINT('',(0.E0,1.169299450549E-1,-3.215026741387E-2));
#160=DIRECTION('',(0.E0,0.E0,-1.E0));
#161=DIRECTION('',(-1.E0,0.E0,0.E0));
#162=AXIS2_PLACEMENT_3D('',#159,#160,#161);
#163=PLANE('',#162);
#164=ORIENTED_EDGE('',*,*,#140,.F.);
#165=ORIENTED_EDGE('',*,*,#151,.F.);
#166=EDGE_LOOP('',(#164,#165));
#167=FACE_OUTER_BOUND('',#166,.F.);
#169=ORIENTED_EDGE('',*,*,#168,.F.);
#171=ORIENTED_EDGE('',*,*,#170,.F.);
#172=EDGE_LOOP('',(#169,#171));
#173=FACE_BOUND('',#172,.F.);
#175=CARTESIAN_POINT('',(0.E0,0.E0,7.03125E-2));
#176=DIRECTION('',(0.E0,0.E0,1.E0));
#177=DIRECTION('',(1.E0,0.E0,0.E0));
#178=AXIS2_PLACEMENT_3D('',#175,#176,#177);
#179=CYLINDRICAL_SURFACE('',#178,1.018200549451E-1);
#181=ORIENTED_EDGE('',*,*,#180,.T.);
#182=ORIENTED_EDGE('',*,*,#168,.T.);
#184=ORIENTED_EDGE('',*,*,#183,.T.);
#186=ORIENTED_EDGE('',*,*,#185,.T.);
#187=EDGE_LOOP('',(#181,#182,#184,#186));
#188=FACE_OUTER_BOUND('',#187,.F.);
#190=CARTESIAN_POINT('',(0.E0,0.E0,7.03125E-2));
#191=DIRECTION('',(0.E0,0.E0,1.E0));
#192=DIRECTION('',(1.E0,0.E0,0.E0));
#193=AXIS2_PLACEMENT_3D('',#190,#191,#192);
#194=CYLINDRICAL_SURFACE('',#193,1.018200549451E-1);
#195=ORIENTED_EDGE('',*,*,#180,.F.);
#197=ORIENTED_EDGE('',*,*,#196,.T.);
#198=ORIENTED_EDGE('',*,*,#183,.F.);
#199=ORIENTED_EDGE('',*,*,#170,.T.);
#200=EDGE_LOOP('',(#195,#197,#198,#199));
#201=FACE_OUTER_BOUND('',#200,.F.);
#203=CARTESIAN_POINT('',(0.E0,1.169299450549E-1,-6.6796875E-2));
#204=DIRECTION('',(0.E0,0.E0,1.E0));
#205=DIRECTION('',(1.E0,0.E0,0.E0));
#206=AXIS2_PLACEMENT_3D('',#203,#204,#205);
#207=PLANE('',#206);
#208=ORIENTED_EDGE('',*,*,#136,.F.);
#209=ORIENTED_EDGE('',*,*,#154,.F.);
#210=EDGE_LOOP('',(#208,#209));
#211=FACE_OUTER_BOUND('',#210,.F.);
#212=ORIENTED_EDGE('',*,*,#185,.F.);
#213=ORIENTED_EDGE('',*,*,#196,.F.);
#214=EDGE_LOOP('',(#212,#213));
#215=FACE_BOUND('',#214,.F.);
#219=FILL_AREA_STYLE_COLOUR('',#1);
#220=FILL_AREA_STYLE('',(#219));
#221=SURFACE_STYLE_FILL_AREA(#220);
#222=SURFACE_SIDE_STYLE('',(#221));
#223=SURFACE_STYLE_USAGE(.BOTH.,#222);
#224=PRESENTATION_STYLE_ASSIGNMENT((#223));
#19=STYLED_ITEM('',(#224),#218);
#226=LENGTH_MEASURE_WITH_UNIT(LENGTH_MEASURE(2.54E1),#225);
#227=(CONVERSION_BASED_UNIT('INCH',#226)LENGTH_UNIT()NAMED_UNIT(*));
#229=PLANE_ANGLE_MEASURE_WITH_UNIT(PLANE_ANGLE_MEASURE(1.745329251994E-2),#228);
#230=(CONVERSION_BASED_UNIT('DEGREE',#229)NAMED_UNIT(*)PLANE_ANGLE_UNIT());
#232=UNCERTAINTY_MEASURE_WITH_UNIT(LENGTH_MEASURE(3.326178897122E-5),#227,
'closure',
'Maximum model space distance between geometric entities at asserted connectivities');
#234=CARTESIAN_POINT('',(0.E0,0.E0,0.E0));
#235=DIRECTION('',(0.E0,0.E0,1.E0));
#236=DIRECTION('',(1.E0,0.E0,0.E0));
#239=MECHANICAL_DESIGN_GEOMETRIC_PRESENTATION_REPRESENTATION('',(#27,#34,#42,
#50,#58,#66,#73,#80,#88,#96,#104,#112,#19),#233);
#240=APPLICATION_CONTEXT('automotive design');
#241=APPLICATION_PROTOCOL_DEFINITION('international standard',
'config_control_design',1994,#240);
#242=PRODUCT_DEFINITION_CONTEXT('',#240,'design');
#243=PRODUCT_CONTEXT('',#240,'mechanical');
#244=PRODUCT('BODY14-217','BODY14-217','NOT SPECIFIED',(#243));
#245=PRODUCT_DEFINITION_FORMATION_WITH_SPECIFIED_SOURCE('1','LAST_VERSION',#244,
.MADE.);
#253=LENGTH_MEASURE_WITH_UNIT(LENGTH_MEASURE(2.54E1),#252);
#254=(CONVERSION_BASED_UNIT('INCH',#253)LENGTH_UNIT()NAMED_UNIT(*));
#255=DERIVED_UNIT_ELEMENT(#254,2.E0);
#256=AREA_UNIT((#255));
#257=MEASURE_REPRESENTATION_ITEM('surface area measure',AREA_MEASURE(
6.838765834003E-2),#256);
#262=LENGTH_MEASURE_WITH_UNIT(LENGTH_MEASURE(2.54E1),#261);
#263=(CONVERSION_BASED_UNIT('INCH',#262)LENGTH_UNIT()NAMED_UNIT(*));
#264=DERIVED_UNIT_ELEMENT(#263,3.E0);
#265=VOLUME_UNIT((#264));
#266=MEASURE_REPRESENTATION_ITEM('volume measure',VOLUME_MEASURE(
3.597658673508E-4),#265);
#270=CARTESIAN_POINT('centre point',(0.E0,-5.162930181323E-13,
-4.947357120693E-2));
#275=LENGTH_MEASURE_WITH_UNIT(LENGTH_MEASURE(2.54E1),#274);
#276=(CONVERSION_BASED_UNIT('INCH',#275)LENGTH_UNIT()NAMED_UNIT(*));
#277=DERIVED_UNIT_ELEMENT(#276,2.E0);
#278=AREA_UNIT((#277));
#279=MEASURE_REPRESENTATION_ITEM('surface area measure',AREA_MEASURE(
6.838765834003E-2),#278);
#284=LENGTH_MEASURE_WITH_UNIT(LENGTH_MEASURE(2.54E1),#283);
#285=(CONVERSION_BASED_UNIT('INCH',#284)LENGTH_UNIT()NAMED_UNIT(*));
#286=DERIVED_UNIT_ELEMENT(#285,3.E0);
#287=VOLUME_UNIT((#286));
#288=MEASURE_REPRESENTATION_ITEM('volume measure',VOLUME_MEASURE(
3.597658673508E-4),#287);
#292=CARTESIAN_POINT('centre point',(0.E0,-5.162930181323E-13,
-4.947357120693E-2));
#1=COLOUR_RGB('',6.274509803922E-1,6.274509803922E-1,6.274509803922E-1);
#2=DRAUGHTING_PRE_DEFINED_COLOUR('green');
#3=COLOUR_RGB('',1.1E-2,1.2E-2,1.E0);
#4=COLOUR_RGB('',2.352941176471E-1,2.352941176471E-1,2.352941176471E-1);
#5=COLOUR_RGB('',2.666666666667E-1,4.666666666667E-1,4.E-1);
#6=COLOUR_RGB('',4.1E-1,2.61589E-1,1.12848E-1);
#7=COLOUR_RGB('',5.04854E-1,1.5455E-2,1.5455E-2);
#8=COLOUR_RGB('',6.274509803922E-1,6.274509803922E-1,6.274509803922E-1);
#9=COLOUR_RGB('',6.35294E-1,6.86275E-1,7.4902E-1);
#10=COLOUR_RGB('',6.40777E-1,6.40777E-1,6.40777E-1);
#11=COLOUR_RGB('',6.69062E-1,6.69903E-1,6.55217E-1);
#12=COLOUR_RGB('',9.098039215686E-1,4.431372549020E-1,3.137254901961E-2);
#13=COLOUR_RGB('',9.21569E-1,7.05882E-1,4.70588E-1);
#14=DRAUGHTING_PRE_DEFINED_COLOUR('red');
#15=DRAUGHTING_PRE_DEFINED_COLOUR('yellow');
#16=COLOUR_RGB('',1.E0,1.E0,5.3E-1);
#17=COLOUR_RGB('',1.E0,1.E0,9.49E-1);
#18=DRAUGHTING_PRE_DEFINED_COLOUR('white');
#39=CIRCLE('',#38,1.169299450549E-1);
#47=CIRCLE('',#46,1.169299450549E-1);
#55=CIRCLE('',#54,1.018200549451E-1);
#63=CIRCLE('',#62,1.018200549451E-1);
#85=CIRCLE('',#84,1.169299450549E-1);
#93=CIRCLE('',#92,1.169299450549E-1);
#101=CIRCLE('',#100,1.018200549451E-1);
#109=CIRCLE('',#108,1.018200549451E-1);
#134=EDGE_CURVE('',#115,#116,#23,.T.);
#136=EDGE_CURVE('',#115,#120,#85,.T.);
#138=EDGE_CURVE('',#120,#118,#31,.T.);
#140=EDGE_CURVE('',#118,#116,#39,.T.);
#144=ADVANCED_FACE('',(#143),#133,.T.);
#151=EDGE_CURVE('',#116,#118,#47,.T.);
#154=EDGE_CURVE('',#120,#115,#93,.T.);
#158=ADVANCED_FACE('',(#157),#149,.T.);
#168=EDGE_CURVE('',#124,#128,#55,.T.);
#170=EDGE_CURVE('',#128,#124,#63,.T.);
#174=ADVANCED_FACE('',(#167,#173),#163,.F.);
#180=EDGE_CURVE('',#123,#124,#70,.T.);
#183=EDGE_CURVE('',#128,#126,#77,.T.);
#185=EDGE_CURVE('',#126,#123,#101,.T.);
#189=ADVANCED_FACE('',(#188),#179,.F.);
#196=EDGE_CURVE('',#123,#126,#109,.T.);
#202=ADVANCED_FACE('',(#201),#194,.F.);
#216=ADVANCED_FACE('',(#211,#215),#207,.F.);
#217=CLOSED_SHELL('',(#144,#158,#174,#189,#202,#216));
#218=MANIFOLD_SOLID_BREP('',#217);
#225=(LENGTH_UNIT()NAMED_UNIT(*)SI_UNIT(.MILLI.,.METRE.));
#228=(NAMED_UNIT(*)PLANE_ANGLE_UNIT()SI_UNIT($,.RADIAN.));
#231=(NAMED_UNIT(*)SI_UNIT($,.STERADIAN.)SOLID_ANGLE_UNIT());
#233=(GEOMETRIC_REPRESENTATION_CONTEXT(3)GLOBAL_UNCERTAINTY_ASSIGNED_CONTEXT((
#232))GLOBAL_UNIT_ASSIGNED_CONTEXT((#227,#230,#231))REPRESENTATION_CONTEXT
('ID1','3'));
#237=AXIS2_PLACEMENT_3D('',#234,#235,#236);
#238=ADVANCED_BREP_SHAPE_REPRESENTATION('',(#237,#218),#233);
#246=PRODUCT_DEFINITION('design','',#245,#242);
#247=PRODUCT_DEFINITION_SHAPE('','SHAPE FOR BODY14-217.',#246);
#248=SHAPE_ASPECT('','solid data associated with BODY14-217',#247,.F.);
#249=PROPERTY_DEFINITION('',
'shape for solid data with which properties are associated',#248);
#250=SHAPE_REPRESENTATION('',(#218),#233);
#251=SHAPE_DEFINITION_REPRESENTATION(#249,#250);
#252=(LENGTH_UNIT()NAMED_UNIT(*)SI_UNIT(.MILLI.,.METRE.));
#258=PROPERTY_DEFINITION('geometric validation property','area of BODY14-217',
#248);
#259=REPRESENTATION('surface area',(#257),#233);
#260=PROPERTY_DEFINITION_REPRESENTATION(#258,#259);
#261=(LENGTH_UNIT()NAMED_UNIT(*)SI_UNIT(.MILLI.,.METRE.));
#267=PROPERTY_DEFINITION('geometric validation property','volume of BODY14-217',
#248);
#268=REPRESENTATION('volume',(#266),#233);
#269=PROPERTY_DEFINITION_REPRESENTATION(#267,#268);
#271=PROPERTY_DEFINITION('geometric validation property',
'centroid of BODY14-217',#248);
#272=REPRESENTATION('centroid',(#270),#233);
#273=PROPERTY_DEFINITION_REPRESENTATION(#271,#272);
#274=(LENGTH_UNIT()NAMED_UNIT(*)SI_UNIT(.MILLI.,.METRE.));
#280=PROPERTY_DEFINITION('geometric validation property','area of BODY14-217',
#247);
#281=REPRESENTATION('surface area',(#279),#233);
#282=PROPERTY_DEFINITION_REPRESENTATION(#280,#281);
#283=(LENGTH_UNIT()NAMED_UNIT(*)SI_UNIT(.MILLI.,.METRE.));
#289=PROPERTY_DEFINITION('geometric validation property','volume of BODY14-217',
#247);
#290=REPRESENTATION('volume',(#288),#233);
#291=PROPERTY_DEFINITION_REPRESENTATION(#289,#290);
#293=PROPERTY_DEFINITION('geometric validation property',
'centroid of BODY14-217',#247);
#294=REPRESENTATION('centroid',(#292),#233);
#295=PROPERTY_DEFINITION_REPRESENTATION(#293,#294);
#296=SHAPE_DEFINITION_REPRESENTATION(#247,#238);
ENDSEC;
END-ISO-10303-21;
