ISO-10303-21;
HEADER;
FILE_DESCRIPTION((''),'2;1');
FILE_NAME('BODY1-4185','2026-06-15T13:45:28',('Esia'),(''),
'CREO PARAMETRIC BY PTC INC, 2025102','CREO PARAMETRIC BY PTC INC, 2025102','');
FILE_SCHEMA((
'AP242_MANAGED_MODEL_BASED_3D_ENGINEERING_MIM_LF { 1 0 10303 442 1 1 4 }'));
ENDSEC;
DATA;
#23=CARTESIAN_POINT('',(-1.012231421996E-2,1.062992125984E-2,0.E0));
#24=CARTESIAN_POINT('',(-1.012231421996E-2,8.013139920534E-3,
3.314586368697E-3));
#25=CARTESIAN_POINT('',(-1.047231118425E-2,5.397157521845E-3,
6.628165152848E-3));
#26=CARTESIAN_POINT('',(-1.115957576983E-2,2.872393091977E-3,
9.826197095268E-3));
#28=DRAUGHTING_PRE_DEFINED_CURVE_FONT('continuous');
#29=CURVE_STYLE('',#28,POSITIVE_LENGTH_MEASURE(2.E-2),#1);
#30=PRESENTATION_STYLE_ASSIGNMENT((#29));
#31=STYLED_ITEM('',(#30),#27);
#32=CARTESIAN_POINT('',(-1.115957517335E-2,1.838744723726E-2,
9.826197543599E-3));
#33=CARTESIAN_POINT('',(-1.047231174137E-2,1.586268475819E-2,
6.628165064731E-3));
#34=CARTESIAN_POINT('',(-1.012231421996E-2,1.324670028393E-2,
3.314586769694E-3));
#35=CARTESIAN_POINT('',(-1.012231421996E-2,1.062992125984E-2,0.E0));
#37=CURVE_STYLE('',#28,POSITIVE_LENGTH_MEASURE(2.E-2),#1);
#38=PRESENTATION_STYLE_ASSIGNMENT((#37));
#39=STYLED_ITEM('',(#38),#36);
#40=DIRECTION('',(1.E0,1.330125650471E-14,0.E0));
#41=VECTOR('',#40,2.217106262191E-2);
#42=CARTESIAN_POINT('',(-1.108553131095E-2,1.811023622047E-2,
9.842519685039E-3));
#43=LINE('',#42,#41);
#44=CURVE_STYLE('',#28,POSITIVE_LENGTH_MEASURE(2.E-2),#1);
#45=PRESENTATION_STYLE_ASSIGNMENT((#44));
#46=STYLED_ITEM('',(#45),#43);
#47=CARTESIAN_POINT('',(-1.115957517335E-2,1.838744723726E-2,
9.826197543599E-3));
#48=CARTESIAN_POINT('',(-1.115121988242E-2,1.835676158788E-2,
9.829823632433E-3));
#49=CARTESIAN_POINT('',(-1.113457185390E-2,1.829527079003E-2,
9.835869036475E-3));
#50=CARTESIAN_POINT('',(-1.110987852415E-2,1.820279266990E-2,
9.841311140124E-3));
#51=CARTESIAN_POINT('',(-1.109360960663E-2,1.814108401250E-2,
9.842519685039E-3));
#52=CARTESIAN_POINT('',(-1.108553131095E-2,1.811023622047E-2,
9.842519685039E-3));
#54=CURVE_STYLE('',#28,POSITIVE_LENGTH_MEASURE(2.E-2),#1);
#55=PRESENTATION_STYLE_ASSIGNMENT((#54));
#56=STYLED_ITEM('',(#55),#53);
#57=DIRECTION('',(-1.E0,0.E0,0.E0));
#58=VECTOR('',#57,2.217106262191E-2);
#59=CARTESIAN_POINT('',(1.108553131095E-2,2.047244094488E-2,7.480314960629E-3));
#60=LINE('',#59,#58);
#61=CURVE_STYLE('',#28,POSITIVE_LENGTH_MEASURE(2.E-2),#1);
#62=PRESENTATION_STYLE_ASSIGNMENT((#61));
#63=STYLED_ITEM('',(#62),#60);
#64=CARTESIAN_POINT('',(1.115957144580E-2,2.045611874818E-2,7.757526742548E-3));
#65=CARTESIAN_POINT('',(1.115121615487E-2,2.045974483701E-2,7.726841093163E-3));
#66=CARTESIAN_POINT('',(1.113457359343E-2,2.046579032211E-2,7.665349173124E-3));
#67=CARTESIAN_POINT('',(1.110987802714E-2,2.047123239260E-2,7.572871512072E-3));
#68=CARTESIAN_POINT('',(1.109360960663E-2,2.047244094488E-2,7.511162752658E-3));
#69=CARTESIAN_POINT('',(1.108553131095E-2,2.047244094488E-2,7.480314960629E-3));
#71=CURVE_STYLE('',#28,POSITIVE_LENGTH_MEASURE(2.E-2),#1);
#72=PRESENTATION_STYLE_ASSIGNMENT((#71));
#73=STYLED_ITEM('',(#72),#70);
#74=CARTESIAN_POINT('',(1.115957144580E-2,2.045611874818E-2,7.757526742548E-3));
#75=CARTESIAN_POINT('',(1.120246036553E-2,2.043794420099E-2,7.911328209695E-3));
#76=CARTESIAN_POINT('',(1.127708469856E-2,2.037146659758E-2,8.211851344556E-3));
#77=CARTESIAN_POINT('',(1.135815622985E-2,2.019389795392E-2,8.622323523987E-3));
#78=CARTESIAN_POINT('',(1.140051240473E-2,1.994411485255E-2,8.991145850286E-3));
#79=CARTESIAN_POINT('',(1.140118223046E-2,1.963080111102E-2,9.306223889797E-3));
#80=CARTESIAN_POINT('',(1.135967477296E-2,1.926142860587E-2,9.559145280404E-3));
#81=CARTESIAN_POINT('',(1.127856563623E-2,1.884783337557E-2,9.739914232270E-3));
#82=CARTESIAN_POINT('',(1.120307977701E-2,1.854351478717E-2,9.807755251064E-3));
#83=CARTESIAN_POINT('',(1.115957144526E-2,1.838744800039E-2,9.826197488536E-3));
#85=CURVE_STYLE('',#28,POSITIVE_LENGTH_MEASURE(2.E-2),#1);
#86=PRESENTATION_STYLE_ASSIGNMENT((#85));
#87=STYLED_ITEM('',(#86),#84);
#88=CARTESIAN_POINT('',(1.108553131095E-2,3.149606299214E-3,9.842519685039E-3));
#89=CARTESIAN_POINT('',(1.109361113571E-2,3.118752668248E-3,9.842519685039E-3));
#90=CARTESIAN_POINT('',(1.110986977306E-2,3.057079077921E-3,9.841312111353E-3));
#91=CARTESIAN_POINT('',(1.113456879018E-2,2.964582806760E-3,9.835869862791E-3));
#92=CARTESIAN_POINT('',(1.115121347226E-2,2.903104473764E-3,9.829826414362E-3));
#93=CARTESIAN_POINT('',(1.115957517335E-2,2.872395282441E-3,9.826197543604E-3));
#95=CURVE_STYLE('',#28,POSITIVE_LENGTH_MEASURE(2.E-2),#1);
#96=PRESENTATION_STYLE_ASSIGNMENT((#95));
#97=STYLED_ITEM('',(#96),#94);
#98=CARTESIAN_POINT('',(1.115957144526E-2,1.838744800039E-2,9.826197488536E-3));
#99=CARTESIAN_POINT('',(1.115120973577E-2,1.835673877822E-2,9.829826362940E-3));
#100=CARTESIAN_POINT('',(1.113457051011E-2,1.829525928311E-2,
9.835869894701E-3));
#101=CARTESIAN_POINT('',(1.110986925646E-2,1.820276346981E-2,
9.841312106482E-3));
#102=CARTESIAN_POINT('',(1.109361112742E-2,1.814108981979E-2,
9.842519685039E-3));
#103=CARTESIAN_POINT('',(1.108553131095E-2,1.811023622047E-2,
9.842519685039E-3));
#105=CURVE_STYLE('',#28,POSITIVE_LENGTH_MEASURE(2.E-2),#1);
#106=PRESENTATION_STYLE_ASSIGNMENT((#105));
#107=STYLED_ITEM('',(#106),#104);
#108=CARTESIAN_POINT('',(1.115957144526E-2,1.838744800039E-2,
9.826197488536E-3));
#109=CARTESIAN_POINT('',(1.106568026197E-2,1.804262315178E-2,
9.389198355990E-3));
#110=CARTESIAN_POINT('',(1.089029393285E-2,1.734910007804E-2,
8.510988393306E-3));
#111=CARTESIAN_POINT('',(1.066502042802E-2,1.629915430354E-2,
7.180884570901E-3));
#112=CARTESIAN_POINT('',(1.054008940666E-2,1.559240152122E-2,
6.285932279320E-3));
#113=CARTESIAN_POINT('',(1.048404565855E-2,1.523765857834E-2,
5.836376238623E-3));
#115=CURVE_STYLE('',#28,POSITIVE_LENGTH_MEASURE(2.E-2),#1);
#116=PRESENTATION_STYLE_ASSIGNMENT((#115));
#117=STYLED_ITEM('',(#116),#114);
#118=CARTESIAN_POINT('',(1.048404565855E-2,1.523765857834E-2,
5.836376238623E-3));
#119=CARTESIAN_POINT('',(1.040389309140E-2,1.473031282599E-2,
5.193163498685E-3));
#120=CARTESIAN_POINT('',(1.027004570634E-2,1.371116650328E-2,
3.903204426122E-3));
#121=CARTESIAN_POINT('',(1.014929879638E-2,1.217458267923E-2,
1.956213506479E-3));
#122=CARTESIAN_POINT('',(1.012231421996E-2,1.114504946134E-2,
6.530877516482E-4));
#123=CARTESIAN_POINT('',(1.012231421996E-2,1.062992125984E-2,0.E0));
#125=CURVE_STYLE('',#28,POSITIVE_LENGTH_MEASURE(2.E-2),#1);
#126=PRESENTATION_STYLE_ASSIGNMENT((#125));
#127=STYLED_ITEM('',(#126),#124);
#128=CARTESIAN_POINT('',(1.115957517335E-2,2.872395282441E-3,
9.826197543604E-3));
#129=CARTESIAN_POINT('',(1.047231174138E-2,5.397157761498E-3,
6.628165064732E-3));
#130=CARTESIAN_POINT('',(1.012231421996E-2,8.013142235772E-3,
3.314586769701E-3));
#131=CARTESIAN_POINT('',(1.012231421996E-2,1.062992125984E-2,0.E0));
#133=CURVE_STYLE('',#28,POSITIVE_LENGTH_MEASURE(2.E-2),#1);
#134=PRESENTATION_STYLE_ASSIGNMENT((#133));
#135=STYLED_ITEM('',(#134),#132);
#136=CARTESIAN_POINT('',(-1.108553131095E-2,3.149606299214E-3,
9.842519685039E-3));
#137=CARTESIAN_POINT('',(-1.109360961369E-2,3.118758480243E-3,
9.842519685039E-3));
#138=CARTESIAN_POINT('',(-1.110987862030E-2,3.057049494922E-3,
9.841311078236E-3));
#139=CARTESIAN_POINT('',(-1.113457159238E-2,2.964572689338E-3,
9.835869240431E-3));
#140=CARTESIAN_POINT('',(-1.115122048616E-2,2.903078714680E-3,
9.829823180949E-3));
#141=CARTESIAN_POINT('',(-1.115957576983E-2,2.872393091977E-3,
9.826197095268E-3));
#143=CURVE_STYLE('',#28,POSITIVE_LENGTH_MEASURE(2.E-2),#1);
#144=PRESENTATION_STYLE_ASSIGNMENT((#143));
#145=STYLED_ITEM('',(#144),#142);
#146=DIRECTION('',(-1.E0,1.351642388935E-14,0.E0));
#147=VECTOR('',#146,2.217106262191E-2);
#148=CARTESIAN_POINT('',(1.108553131095E-2,3.149606299214E-3,
9.842519685039E-3));
#149=LINE('',#148,#147);
#150=CURVE_STYLE('',#28,POSITIVE_LENGTH_MEASURE(2.E-2),#1);
#151=PRESENTATION_STYLE_ASSIGNMENT((#150));
#152=STYLED_ITEM('',(#151),#149);
#153=CARTESIAN_POINT('',(1.108553131095E-2,7.874015748031E-4,
7.480314960629E-3));
#154=CARTESIAN_POINT('',(1.109360961369E-2,7.874015748031E-4,
7.511162779599E-3));
#155=CARTESIAN_POINT('',(1.110987854079E-2,7.886101217390E-4,
7.572871472927E-3));
#156=CARTESIAN_POINT('',(1.113457187067E-2,7.940522289497E-4,
7.665349592470E-3));
#157=CARTESIAN_POINT('',(1.115121988982E-2,8.000976298830E-4,
7.726840355225E-3));
#158=CARTESIAN_POINT('',(1.115957517349E-2,8.037237155641E-4,
7.757525977927E-3));
#160=CURVE_STYLE('',#28,POSITIVE_LENGTH_MEASURE(2.E-2),#1);
#161=PRESENTATION_STYLE_ASSIGNMENT((#160));
#162=STYLED_ITEM('',(#161),#159);
#163=DIRECTION('',(1.E0,0.E0,0.E0));
#164=VECTOR('',#163,2.217106262191E-2);
#165=CARTESIAN_POINT('',(-1.108553131095E-2,7.874015748031E-4,
7.480314960629E-3));
#166=LINE('',#165,#164);
#167=CURVE_STYLE('',#28,POSITIVE_LENGTH_MEASURE(2.E-2),#1);
#168=PRESENTATION_STYLE_ASSIGNMENT((#167));
#169=STYLED_ITEM('',(#168),#166);
#170=CARTESIAN_POINT('',(3.964987327508E-2,1.062992125984E-2,
9.842519685039E-3));
#171=DIRECTION('',(0.E0,0.E0,-1.E0));
#172=DIRECTION('',(-9.673790478516E-1,-2.533333333333E-1,0.E0));
#173=AXIS2_PLACEMENT_3D('',#170,#171,#172);
#175=CURVE_STYLE('',#28,POSITIVE_LENGTH_MEASURE(2.E-2),#1);
#176=PRESENTATION_STYLE_ASSIGNMENT((#175));
#177=STYLED_ITEM('',(#176),#174);
#178=CARTESIAN_POINT('',(-3.964987327508E-2,1.062992125984E-2,
9.842519685039E-3));
#179=DIRECTION('',(0.E0,0.E0,-1.E0));
#180=DIRECTION('',(9.673790478516E-1,2.533333333333E-1,0.E0));
#181=AXIS2_PLACEMENT_3D('',#178,#179,#180);
#183=CURVE_STYLE('',#28,POSITIVE_LENGTH_MEASURE(2.E-2),#1);
#184=PRESENTATION_STYLE_ASSIGNMENT((#183));
#185=STYLED_ITEM('',(#184),#182);
#186=CARTESIAN_POINT('',(3.964987327508E-2,1.062992125984E-2,
9.842519685039E-3));
#187=DIRECTION('',(0.E0,0.E0,-1.E0));
#188=DIRECTION('',(-1.E0,0.E0,0.E0));
#189=AXIS2_PLACEMENT_3D('',#186,#187,#188);
#191=CURVE_STYLE('',#28,POSITIVE_LENGTH_MEASURE(2.E-2),#1);
#192=PRESENTATION_STYLE_ASSIGNMENT((#191));
#193=STYLED_ITEM('',(#192),#190);
#194=CARTESIAN_POINT('',(1.115957517335E-2,2.872395282441E-3,
9.826197543604E-3));
#195=CARTESIAN_POINT('',(1.120201989495E-2,2.716521199341E-3,
9.807778077710E-3));
#196=CARTESIAN_POINT('',(1.127888442713E-2,2.412864722824E-3,
9.740222906590E-3));
#197=CARTESIAN_POINT('',(1.135984396812E-2,1.997333257133E-3,
9.558747156572E-3));
#198=CARTESIAN_POINT('',(1.140155013106E-2,1.625953972362E-3,
9.303878030594E-3));
#199=CARTESIAN_POINT('',(1.140037363301E-2,1.311549260868E-3,
8.986246117362E-3));
#200=CARTESIAN_POINT('',(1.135704006578E-2,1.062391697452E-3,
8.615841298553E-3));
#201=CARTESIAN_POINT('',(1.127618739550E-2,8.867354211764E-4,
8.205993995531E-3));
#202=CARTESIAN_POINT('',(1.120089349308E-2,8.216543639371E-4,
7.909263459934E-3));
#203=CARTESIAN_POINT('',(1.115957517349E-2,8.037237155641E-4,
7.757525977927E-3));
#205=CURVE_STYLE('',#28,POSITIVE_LENGTH_MEASURE(2.E-2),#1);
#206=PRESENTATION_STYLE_ASSIGNMENT((#205));
#207=STYLED_ITEM('',(#206),#204);
#208=CARTESIAN_POINT('',(1.012231421996E-2,1.062992125984E-2,0.E0));
#209=CARTESIAN_POINT('',(1.012231421996E-2,7.315334489453E-3,
2.616779024621E-3));
#210=CARTESIAN_POINT('',(1.047231174123E-2,4.001756195061E-3,
5.232763498377E-3));
#211=CARTESIAN_POINT('',(1.115957517349E-2,8.037237155641E-4,
7.757525977927E-3));
#213=CURVE_STYLE('',#28,POSITIVE_LENGTH_MEASURE(2.E-2),#1);
#214=PRESENTATION_STYLE_ASSIGNMENT((#213));
#215=STYLED_ITEM('',(#214),#212);
#216=CARTESIAN_POINT('',(1.115957979372E-2,8.037272323847E-4,
-7.757542945057E-3));
#217=CARTESIAN_POINT('',(1.047230742622E-2,4.001755514039E-3,
-5.232765355805E-3));
#218=CARTESIAN_POINT('',(1.012231421996E-2,7.315337640364E-3,
-2.616796958903E-3));
#219=CARTESIAN_POINT('',(1.012231421996E-2,1.062992125984E-2,0.E0));
#221=CURVE_STYLE('',#28,POSITIVE_LENGTH_MEASURE(2.E-2),#1);
#222=PRESENTATION_STYLE_ASSIGNMENT((#221));
#223=STYLED_ITEM('',(#222),#220);
#224=CARTESIAN_POINT('',(-3.964987327508E-2,7.874015748031E-4,0.E0));
#225=DIRECTION('',(0.E0,1.E0,0.E0));
#226=DIRECTION('',(9.673790478516E-1,0.E0,2.533333333333E-1));
#227=AXIS2_PLACEMENT_3D('',#224,#225,#226);
#229=CURVE_STYLE('',#28,POSITIVE_LENGTH_MEASURE(2.E-2),#1);
#230=PRESENTATION_STYLE_ASSIGNMENT((#229));
#231=STYLED_ITEM('',(#230),#228);
#232=CARTESIAN_POINT('',(3.964987327508E-2,7.874015748031E-4,0.E0));
#233=DIRECTION('',(0.E0,1.E0,0.E0));
#234=DIRECTION('',(-9.673790478516E-1,0.E0,-2.533333333333E-1));
#235=AXIS2_PLACEMENT_3D('',#232,#233,#234);
#237=CURVE_STYLE('',#28,POSITIVE_LENGTH_MEASURE(2.E-2),#1);
#238=PRESENTATION_STYLE_ASSIGNMENT((#237));
#239=STYLED_ITEM('',(#238),#236);
#240=DIRECTION('',(1.E0,-1.322301381939E-14,0.E0));
#241=VECTOR('',#240,2.217106262191E-2);
#242=CARTESIAN_POINT('',(-1.108553131095E-2,3.149606299213E-3,
-9.842519685039E-3));
#243=LINE('',#242,#241);
#244=CURVE_STYLE('',#28,POSITIVE_LENGTH_MEASURE(2.E-2),#1);
#245=PRESENTATION_STYLE_ASSIGNMENT((#244));
#246=STYLED_ITEM('',(#245),#243);
#247=CARTESIAN_POINT('',(-1.115957519692E-2,2.872395195865E-3,
-9.826197525662E-3));
#248=CARTESIAN_POINT('',(-1.115121990599E-2,2.903080845251E-3,
-9.829823614496E-3));
#249=CARTESIAN_POINT('',(-1.113457184290E-2,2.964571770050E-3,
-9.835869044845E-3));
#250=CARTESIAN_POINT('',(-1.110987852729E-2,3.057049838246E-3,
-9.841311137732E-3));
#251=CARTESIAN_POINT('',(-1.109360960663E-2,3.118758507184E-3,
-9.842519685039E-3));
#252=CARTESIAN_POINT('',(-1.108553131095E-2,3.149606299213E-3,
-9.842519685039E-3));
#254=CURVE_STYLE('',#28,POSITIVE_LENGTH_MEASURE(2.E-2),#1);
#255=PRESENTATION_STYLE_ASSIGNMENT((#254));
#256=STYLED_ITEM('',(#255),#253);
#257=DIRECTION('',(-1.E0,0.E0,0.E0));
#258=VECTOR('',#257,2.217106262191E-2);
#259=CARTESIAN_POINT('',(1.108553131095E-2,7.874015748031E-4,
-7.480314960629E-3));
#260=LINE('',#259,#258);
#261=CURVE_STYLE('',#28,POSITIVE_LENGTH_MEASURE(2.E-2),#1);
#262=PRESENTATION_STYLE_ASSIGNMENT((#261));
#263=STYLED_ITEM('',(#262),#260);
#264=CARTESIAN_POINT('',(1.115957979372E-2,8.037272323847E-4,
-7.757542945057E-3));
#265=CARTESIAN_POINT('',(1.115122450279E-2,8.001011435506E-4,
-7.726857295672E-3));
#266=CARTESIAN_POINT('',(1.113456969773E-2,7.940505825015E-4,
-7.665341611949E-3));
#267=CARTESIAN_POINT('',(1.110987914020E-2,7.886105885373E-4,
-7.572873672406E-3));
#268=CARTESIAN_POINT('',(1.109360960663E-2,7.874015748031E-4,
-7.511162752658E-3));
#269=CARTESIAN_POINT('',(1.108553131095E-2,7.874015748031E-4,
-7.480314960629E-3));
#271=CURVE_STYLE('',#28,POSITIVE_LENGTH_MEASURE(2.E-2),#1);
#272=PRESENTATION_STYLE_ASSIGNMENT((#271));
#273=STYLED_ITEM('',(#272),#270);
#274=CARTESIAN_POINT('',(1.108553131095E-2,1.811023622047E-2,
-9.842519685039E-3));
#275=CARTESIAN_POINT('',(1.109361113571E-2,1.814108985144E-2,
-9.842519685039E-3));
#276=CARTESIAN_POINT('',(1.110986977620E-2,1.820276345332E-2,
-9.841312108959E-3));
#277=CARTESIAN_POINT('',(1.113456877917E-2,1.829525967249E-2,
-9.835869871171E-3));
#278=CARTESIAN_POINT('',(1.115121349586E-2,1.835673813258E-2,
-9.829826396405E-3));
#279=CARTESIAN_POINT('',(1.115957519695E-2,1.838744732390E-2,
-9.826197525646E-3));
#281=CURVE_STYLE('',#28,POSITIVE_LENGTH_MEASURE(2.E-2),#1);
#282=PRESENTATION_STYLE_ASSIGNMENT((#281));
#283=STYLED_ITEM('',(#282),#280);
#284=CARTESIAN_POINT('',(1.115957517349E-2,2.872395281907E-3,
-9.826197544279E-3));
#285=CARTESIAN_POINT('',(1.115121346387E-2,2.903104504577E-3,
-9.829826418742E-3));
#286=CARTESIAN_POINT('',(1.113456877034E-2,2.964582880462E-3,
-9.835869868661E-3));
#287=CARTESIAN_POINT('',(1.110986975354E-2,3.057079151630E-3,
-9.841312113922E-3));
#288=CARTESIAN_POINT('',(1.109361112742E-2,3.118752699899E-3,
-9.842519685039E-3));
#289=CARTESIAN_POINT('',(1.108553131095E-2,3.149606299213E-3,
-9.842519685039E-3));
#291=CURVE_STYLE('',#28,POSITIVE_LENGTH_MEASURE(2.E-2),#1);
#292=PRESENTATION_STYLE_ASSIGNMENT((#291));
#293=STYLED_ITEM('',(#292),#290);
#294=CARTESIAN_POINT('',(1.012231421996E-2,1.062992125984E-2,0.E0));
#295=CARTESIAN_POINT('',(1.012231421996E-2,8.013142235220E-3,
-3.314586770390E-3));
#296=CARTESIAN_POINT('',(1.047231174123E-2,5.397157761460E-3,
-6.628165064781E-3));
#297=CARTESIAN_POINT('',(1.115957517349E-2,2.872395281907E-3,
-9.826197544279E-3));
#299=CURVE_STYLE('',#28,POSITIVE_LENGTH_MEASURE(2.E-2),#1);
#300=PRESENTATION_STYLE_ASSIGNMENT((#299));
#301=STYLED_ITEM('',(#300),#298);
#302=CARTESIAN_POINT('',(1.115957519695E-2,1.838744732390E-2,
-9.826197525646E-3));
#303=CARTESIAN_POINT('',(1.047231171934E-2,1.586268476767E-2,
-6.628165068210E-3));
#304=CARTESIAN_POINT('',(1.012231421996E-2,1.324670037549E-2,
-3.314586753601E-3));
#305=CARTESIAN_POINT('',(1.012231421996E-2,1.062992125984E-2,0.E0));
#307=CURVE_STYLE('',#28,POSITIVE_LENGTH_MEASURE(2.E-2),#1);
#308=PRESENTATION_STYLE_ASSIGNMENT((#307));
#309=STYLED_ITEM('',(#308),#306);
#310=CARTESIAN_POINT('',(-1.108553131095E-2,1.811023622047E-2,
-9.842519685039E-3));
#311=CARTESIAN_POINT('',(-1.109360961369E-2,1.814108403944E-2,
-9.842519685039E-3));
#312=CARTESIAN_POINT('',(-1.110987854079E-2,1.820279273277E-2,
-9.841311138103E-3));
#313=CARTESIAN_POINT('',(-1.113457187067E-2,1.829527085231E-2,
-9.835869030893E-3));
#314=CARTESIAN_POINT('',(-1.115121988983E-2,1.835676161507E-2,
-9.829823629959E-3));
#315=CARTESIAN_POINT('',(-1.115957517349E-2,1.838744723778E-2,
-9.826197544277E-3));
#317=CURVE_STYLE('',#28,POSITIVE_LENGTH_MEASURE(2.E-2),#1);
#318=PRESENTATION_STYLE_ASSIGNMENT((#317));
#319=STYLED_ITEM('',(#318),#316);
#320=DIRECTION('',(-1.E0,0.E0,0.E0));
#321=VECTOR('',#320,2.217106262191E-2);
#322=CARTESIAN_POINT('',(1.108553131095E-2,1.811023622047E-2,
-9.842519685039E-3));
#323=LINE('',#322,#321);
#324=CURVE_STYLE('',#28,POSITIVE_LENGTH_MEASURE(2.E-2),#1);
#325=PRESENTATION_STYLE_ASSIGNMENT((#324));
#326=STYLED_ITEM('',(#325),#323);
#327=CARTESIAN_POINT('',(1.108553131095E-2,2.047244094488E-2,
-7.480314960629E-3));
#328=CARTESIAN_POINT('',(1.109360961369E-2,2.047244094488E-2,
-7.511162779600E-3));
#329=CARTESIAN_POINT('',(1.110987854079E-2,2.047123239795E-2,
-7.572871472929E-3));
#330=CARTESIAN_POINT('',(1.113457187067E-2,2.046579029074E-2,
-7.665349592471E-3));
#331=CARTESIAN_POINT('',(1.115121988983E-2,2.045974488980E-2,
-7.726840355231E-3));
#332=CARTESIAN_POINT('',(1.115957517349E-2,2.045611880412E-2,
-7.757525977934E-3));
#334=CURVE_STYLE('',#28,POSITIVE_LENGTH_MEASURE(2.E-2),#1);
#335=PRESENTATION_STYLE_ASSIGNMENT((#334));
#336=STYLED_ITEM('',(#335),#333);
#337=DIRECTION('',(1.E0,0.E0,0.E0));
#338=VECTOR('',#337,2.217106262191E-2);
#339=CARTESIAN_POINT('',(-1.108553131095E-2,2.047244094488E-2,
-7.480314960629E-3));
#340=LINE('',#339,#338);
#341=CURVE_STYLE('',#28,POSITIVE_LENGTH_MEASURE(2.E-2),#1);
#342=PRESENTATION_STYLE_ASSIGNMENT((#341));
#343=STYLED_ITEM('',(#342),#340);
#344=CARTESIAN_POINT('',(-1.012231421996E-2,1.062992125984E-2,0.E0));
#345=CARTESIAN_POINT('',(-1.012231421996E-2,1.324670028446E-2,
-3.314586770393E-3));
#346=CARTESIAN_POINT('',(-1.047231174123E-2,1.586268475822E-2,
-6.628165064780E-3));
#347=CARTESIAN_POINT('',(-1.115957517349E-2,1.838744723778E-2,
-9.826197544277E-3));
#349=CURVE_STYLE('',#28,POSITIVE_LENGTH_MEASURE(2.E-2),#1);
#350=PRESENTATION_STYLE_ASSIGNMENT((#349));
#351=STYLED_ITEM('',(#350),#348);
#352=CARTESIAN_POINT('',(-1.115957519692E-2,2.872395195865E-3,
-9.826197525662E-3));
#353=CARTESIAN_POINT('',(-1.047231171936E-2,5.397157752021E-3,
-6.628165068206E-3));
#354=CARTESIAN_POINT('',(-1.012231421996E-2,8.013142144270E-3,
-3.314586753619E-3));
#355=CARTESIAN_POINT('',(-1.012231421996E-2,1.062992125984E-2,0.E0));
#357=CURVE_STYLE('',#28,POSITIVE_LENGTH_MEASURE(2.E-2),#1);
#358=PRESENTATION_STYLE_ASSIGNMENT((#357));
#359=STYLED_ITEM('',(#358),#356);
#360=CARTESIAN_POINT('',(-1.115957517335E-2,2.045611880345E-2,
-7.757525977402E-3));
#361=CARTESIAN_POINT('',(-1.120201989494E-2,2.043769933755E-2,
-7.913400060494E-3));
#362=CARTESIAN_POINT('',(-1.127888442713E-2,2.037014416644E-2,
-8.217056537003E-3));
#363=CARTESIAN_POINT('',(-1.135984396813E-2,2.018866841642E-2,
-8.632588002705E-3));
#364=CARTESIAN_POINT('',(-1.140155013106E-2,1.993379929044E-2,
-9.003967287473E-3));
#365=CARTESIAN_POINT('',(-1.140037363301E-2,1.961616737722E-2,
-9.318371998965E-3));
#366=CARTESIAN_POINT('',(-1.135704006578E-2,1.924576255841E-2,
-9.567529562384E-3));
#367=CARTESIAN_POINT('',(-1.127618739550E-2,1.883591525538E-2,
-9.743185838666E-3));
#368=CARTESIAN_POINT('',(-1.120089349308E-2,1.853918471978E-2,
-9.808266895904E-3));
#369=CARTESIAN_POINT('',(-1.115957517349E-2,1.838744723778E-2,
-9.826197544277E-3));
#371=CURVE_STYLE('',#28,POSITIVE_LENGTH_MEASURE(2.E-2),#1);
#372=PRESENTATION_STYLE_ASSIGNMENT((#371));
#373=STYLED_ITEM('',(#372),#370);
#374=CARTESIAN_POINT('',(-1.115957517349E-2,2.045611880412E-2,
7.757525977935E-3));
#375=CARTESIAN_POINT('',(-1.115121346387E-2,2.045974767858E-2,
7.726816755266E-3));
#376=CARTESIAN_POINT('',(-1.113456877034E-2,2.046579112850E-2,
7.665338379386E-3));
#377=CARTESIAN_POINT('',(-1.110986975354E-2,2.047123337376E-2,
7.572842108218E-3));
#378=CARTESIAN_POINT('',(-1.109361112742E-2,2.047244094488E-2,
7.511168559947E-3));
#379=CARTESIAN_POINT('',(-1.108553131095E-2,2.047244094488E-2,
7.480314960629E-3));
#381=CURVE_STYLE('',#28,POSITIVE_LENGTH_MEASURE(2.E-2),#1);
#382=PRESENTATION_STYLE_ASSIGNMENT((#381));
#383=STYLED_ITEM('',(#382),#380);
#384=CARTESIAN_POINT('',(-1.012231421996E-2,1.062992125984E-2,0.E0));
#385=CARTESIAN_POINT('',(-1.012231421996E-2,1.394450803023E-2,
2.616779024620E-3));
#386=CARTESIAN_POINT('',(-1.047231174123E-2,1.725808632462E-2,
5.232763498382E-3));
#387=CARTESIAN_POINT('',(-1.115957517349E-2,2.045611880412E-2,
7.757525977935E-3));
#389=CURVE_STYLE('',#28,POSITIVE_LENGTH_MEASURE(2.E-2),#1);
#390=PRESENTATION_STYLE_ASSIGNMENT((#389));
#391=STYLED_ITEM('',(#390),#388);
#392=CARTESIAN_POINT('',(-1.115957517335E-2,2.045611880345E-2,
-7.757525977402E-3));
#393=CARTESIAN_POINT('',(-1.047231174138E-2,1.725808632457E-2,
-5.232763498344E-3));
#394=CARTESIAN_POINT('',(-1.012231421996E-2,1.394450802953E-2,
-2.616779024064E-3));
#395=CARTESIAN_POINT('',(-1.012231421996E-2,1.062992125984E-2,0.E0));
#397=CURVE_STYLE('',#28,POSITIVE_LENGTH_MEASURE(2.E-2),#1);
#398=PRESENTATION_STYLE_ASSIGNMENT((#397));
#399=STYLED_ITEM('',(#398),#396);
#400=CARTESIAN_POINT('',(-1.108553131095E-2,2.047244094488E-2,
-7.480314960629E-3));
#401=CARTESIAN_POINT('',(-1.109361113571E-2,2.047244094488E-2,
-7.511168591595E-3));
#402=CARTESIAN_POINT('',(-1.110986977306E-2,2.047123337120E-2,
-7.572842181922E-3));
#403=CARTESIAN_POINT('',(-1.113456879019E-2,2.046579112263E-2,
-7.665338453083E-3));
#404=CARTESIAN_POINT('',(-1.115121347226E-2,2.045974767421E-2,
-7.726816786078E-3));
#405=CARTESIAN_POINT('',(-1.115957517335E-2,2.045611880345E-2,
-7.757525977402E-3));
#407=CURVE_STYLE('',#28,POSITIVE_LENGTH_MEASURE(2.E-2),#1);
#408=PRESENTATION_STYLE_ASSIGNMENT((#407));
#409=STYLED_ITEM('',(#408),#406);
#410=CARTESIAN_POINT('',(3.964987327508E-2,2.047244094488E-2,0.E0));
#411=DIRECTION('',(0.E0,-1.E0,0.E0));
#412=DIRECTION('',(-9.673790478516E-1,0.E0,2.533333333333E-1));
#413=AXIS2_PLACEMENT_3D('',#410,#411,#412);
#415=CURVE_STYLE('',#28,POSITIVE_LENGTH_MEASURE(2.E-2),#1);
#416=PRESENTATION_STYLE_ASSIGNMENT((#415));
#417=STYLED_ITEM('',(#416),#414);
#418=CARTESIAN_POINT('',(-3.964987327508E-2,2.047244094488E-2,0.E0));
#419=DIRECTION('',(0.E0,-1.E0,0.E0));
#420=DIRECTION('',(9.673790478516E-1,0.E0,-2.533333333333E-1));
#421=AXIS2_PLACEMENT_3D('',#418,#419,#420);
#423=CURVE_STYLE('',#28,POSITIVE_LENGTH_MEASURE(2.E-2),#1);
#424=PRESENTATION_STYLE_ASSIGNMENT((#423));
#425=STYLED_ITEM('',(#424),#422);
#426=CARTESIAN_POINT('',(1.012231421996E-2,1.062992125984E-2,0.E0));
#427=CARTESIAN_POINT('',(1.012231421996E-2,1.394450803022E-2,
-2.616779024613E-3));
#428=CARTESIAN_POINT('',(1.047231174123E-2,1.725808632462E-2,
-5.232763498381E-3));
#429=CARTESIAN_POINT('',(1.115957517349E-2,2.045611880412E-2,
-7.757525977934E-3));
#431=CURVE_STYLE('',#28,POSITIVE_LENGTH_MEASURE(2.E-2),#1);
#432=PRESENTATION_STYLE_ASSIGNMENT((#431));
#433=STYLED_ITEM('',(#432),#430);
#434=CARTESIAN_POINT('',(1.012231421996E-2,1.062992125984E-2,0.E0));
#435=CARTESIAN_POINT('',(1.012231421996E-2,1.128300903427E-2,
5.151281965753E-4));
#436=CARTESIAN_POINT('',(1.014929880049E-2,1.258613487305E-2,
1.544661439095E-3));
#437=CARTESIAN_POINT('',(1.027004568579E-2,1.453312560320E-2,
3.081245064020E-3));
#438=CARTESIAN_POINT('',(1.040389311613E-2,1.582308520002E-2,
4.100391776452E-3));
#439=CARTESIAN_POINT('',(1.048404573377E-2,1.646629829299E-2,
4.607737794640E-3));
#441=CURVE_STYLE('',#28,POSITIVE_LENGTH_MEASURE(2.E-2),#1);
#442=PRESENTATION_STYLE_ASSIGNMENT((#441));
#443=STYLED_ITEM('',(#442),#440);
#444=CARTESIAN_POINT('',(1.048404573377E-2,1.646629829299E-2,
4.607737794640E-3));
#445=CARTESIAN_POINT('',(1.054008946170E-2,1.691585410965E-2,
4.962480572217E-3));
#446=CARTESIAN_POINT('',(1.066502043571E-2,1.781080605760E-2,
5.669233112921E-3));
#447=CARTESIAN_POINT('',(1.089029412898E-2,1.914091080743E-2,
6.719179672188E-3));
#448=CARTESIAN_POINT('',(1.106568035782E-2,2.001912009128E-2,
7.412702244130E-3));
#449=CARTESIAN_POINT('',(1.115957144580E-2,2.045611874818E-2,
7.757526742548E-3));
#451=CURVE_STYLE('',#28,POSITIVE_LENGTH_MEASURE(2.E-2),#1);
#452=PRESENTATION_STYLE_ASSIGNMENT((#451));
#453=STYLED_ITEM('',(#452),#450);
#454=CARTESIAN_POINT('',(1.115957519695E-2,1.838744732390E-2,
-9.826197525646E-3));
#455=CARTESIAN_POINT('',(1.120201991530E-2,1.854332140786E-2,
-9.807778059651E-3));
#456=CARTESIAN_POINT('',(1.127888441768E-2,1.884697775622E-2,
-9.740222914977E-3));
#457=CARTESIAN_POINT('',(1.135984397066E-2,1.926250927343E-2,
-9.558747154329E-3));
#458=CARTESIAN_POINT('',(1.140155013039E-2,1.963388854440E-2,
-9.303878031202E-3));
#459=CARTESIAN_POINT('',(1.140037363319E-2,1.994829325959E-2,
-8.986246117212E-3));
#460=CARTESIAN_POINT('',(1.135704006573E-2,2.019745082202E-2,
-8.615841298611E-3));
#461=CARTESIAN_POINT('',(1.127618739552E-2,2.037310709857E-2,
-8.205993995522E-3));
#462=CARTESIAN_POINT('',(1.120089349308E-2,2.043818815575E-2,
-7.909263459940E-3));
#463=CARTESIAN_POINT('',(1.115957517349E-2,2.045611880412E-2,
-7.757525977934E-3));
#465=CURVE_STYLE('',#28,POSITIVE_LENGTH_MEASURE(2.E-2),#1);
#466=PRESENTATION_STYLE_ASSIGNMENT((#465));
#467=STYLED_ITEM('',(#466),#464);
#468=CARTESIAN_POINT('',(-1.115957517335E-2,1.838744723726E-2,
9.826197543599E-3));
#469=CARTESIAN_POINT('',(-1.120201989495E-2,1.854332132035E-2,
9.807778077706E-3));
#470=CARTESIAN_POINT('',(-1.127888442712E-2,1.884697779684E-2,
9.740222906597E-3));
#471=CARTESIAN_POINT('',(-1.135984396813E-2,1.926250926255E-2,
9.558747156574E-3));
#472=CARTESIAN_POINT('',(-1.140155013106E-2,1.963388854731E-2,
9.303878030600E-3));
#473=CARTESIAN_POINT('',(-1.140037363301E-2,1.994829325881E-2,
8.986246117373E-3));
#474=CARTESIAN_POINT('',(-1.135704006578E-2,2.019745082223E-2,
8.615841298567E-3));
#475=CARTESIAN_POINT('',(-1.127618739550E-2,2.037310709851E-2,
8.205993995533E-3));
#476=CARTESIAN_POINT('',(-1.120089349308E-2,2.043818815575E-2,
7.909263459941E-3));
#477=CARTESIAN_POINT('',(-1.115957517349E-2,2.045611880412E-2,
7.757525977935E-3));
#479=CURVE_STYLE('',#28,POSITIVE_LENGTH_MEASURE(2.E-2),#1);
#480=PRESENTATION_STYLE_ASSIGNMENT((#479));
#481=STYLED_ITEM('',(#480),#478);
#482=CARTESIAN_POINT('',(-1.115957519692E-2,2.872395195865E-3,
-9.826197525662E-3));
#483=CARTESIAN_POINT('',(-1.120201991528E-2,2.716521111897E-3,
-9.807778059666E-3));
#484=CARTESIAN_POINT('',(-1.127888441769E-2,2.412864763407E-3,
-9.740222914964E-3));
#485=CARTESIAN_POINT('',(-1.135984397065E-2,1.997333246259E-3,
-9.558747154328E-3));
#486=CARTESIAN_POINT('',(-1.140155013039E-2,1.625953975276E-3,
-9.303878031195E-3));
#487=CARTESIAN_POINT('',(-1.140037363319E-2,1.311549260087E-3,
-8.986246117200E-3));
#488=CARTESIAN_POINT('',(-1.135704006573E-2,1.062391697662E-3,
-8.615841298598E-3));
#489=CARTESIAN_POINT('',(-1.127618739551E-2,8.867354211153E-4,
-8.205993995511E-3));
#490=CARTESIAN_POINT('',(-1.120089349308E-2,8.216543639391E-4,
-7.909263459950E-3));
#491=CARTESIAN_POINT('',(-1.115957517350E-2,8.037237155660E-4,
-7.757525977944E-3));
#493=CURVE_STYLE('',#28,POSITIVE_LENGTH_MEASURE(2.E-2),#1);
#494=PRESENTATION_STYLE_ASSIGNMENT((#493));
#495=STYLED_ITEM('',(#494),#492);
#496=CARTESIAN_POINT('',(-1.115957517350E-2,8.037237155660E-4,
-7.757525977944E-3));
#497=CARTESIAN_POINT('',(-1.115121346387E-2,8.000948411035E-4,
-7.726816755276E-3));
#498=CARTESIAN_POINT('',(-1.113456877033E-2,7.940513911804E-4,
-7.665338379376E-3));
#499=CARTESIAN_POINT('',(-1.110986975354E-2,7.886091459208E-4,
-7.572842108217E-3));
#500=CARTESIAN_POINT('',(-1.109361112742E-2,7.874015748031E-4,
-7.511168559946E-3));
#501=CARTESIAN_POINT('',(-1.108553131095E-2,7.874015748031E-4,
-7.480314960629E-3));
#503=CURVE_STYLE('',#28,POSITIVE_LENGTH_MEASURE(2.E-2),#1);
#504=PRESENTATION_STYLE_ASSIGNMENT((#503));
#505=STYLED_ITEM('',(#504),#502);
#506=CARTESIAN_POINT('',(-1.012231421996E-2,1.062992125984E-2,0.E0));
#507=CARTESIAN_POINT('',(-1.012231421996E-2,7.315334489465E-3,
-2.616779024629E-3));
#508=CARTESIAN_POINT('',(-1.047231174123E-2,4.001756195059E-3,
-5.232763498380E-3));
#509=CARTESIAN_POINT('',(-1.115957517350E-2,8.037237155660E-4,
-7.757525977944E-3));
#511=CURVE_STYLE('',#28,POSITIVE_LENGTH_MEASURE(2.E-2),#1);
#512=PRESENTATION_STYLE_ASSIGNMENT((#511));
#513=STYLED_ITEM('',(#512),#510);
#514=CARTESIAN_POINT('',(-1.115957517335E-2,8.037237162380E-4,
7.757525977396E-3));
#515=CARTESIAN_POINT('',(-1.047231174138E-2,4.001756195109E-3,
5.232763498340E-3));
#516=CARTESIAN_POINT('',(-1.012231421996E-2,7.315334490162E-3,
2.616779024065E-3));
#517=CARTESIAN_POINT('',(-1.012231421996E-2,1.062992125984E-2,0.E0));
#519=CURVE_STYLE('',#28,POSITIVE_LENGTH_MEASURE(2.E-2),#1);
#520=PRESENTATION_STYLE_ASSIGNMENT((#519));
#521=STYLED_ITEM('',(#520),#518);
#522=CARTESIAN_POINT('',(-1.108553131095E-2,7.874015748031E-4,
7.480314960629E-3));
#523=CARTESIAN_POINT('',(-1.109361113571E-2,7.874015748031E-4,
7.511168591594E-3));
#524=CARTESIAN_POINT('',(-1.110986977306E-2,7.886091484895E-4,
7.572842181921E-3));
#525=CARTESIAN_POINT('',(-1.113456879018E-2,7.940513970515E-4,
7.665338453081E-3));
#526=CARTESIAN_POINT('',(-1.115121347226E-2,8.000948454795E-4,
7.726816786073E-3));
#527=CARTESIAN_POINT('',(-1.115957517335E-2,8.037237162380E-4,
7.757525977396E-3));
#529=CURVE_STYLE('',#28,POSITIVE_LENGTH_MEASURE(2.E-2),#1);
#530=PRESENTATION_STYLE_ASSIGNMENT((#529));
#531=STYLED_ITEM('',(#530),#528);
#532=CARTESIAN_POINT('',(-1.115957517335E-2,8.037237162380E-4,
7.757525977396E-3));
#533=CARTESIAN_POINT('',(-1.120201989494E-2,8.221431821307E-4,
7.913400060492E-3));
#534=CARTESIAN_POINT('',(-1.127888442748E-2,8.896983517296E-4,
8.217056536697E-3));
#535=CARTESIAN_POINT('',(-1.135984396688E-2,1.071174108583E-3,
8.632588003787E-3));
#536=CARTESIAN_POINT('',(-1.140155013568E-2,1.326043209492E-3,
9.003967283440E-3));
#537=CARTESIAN_POINT('',(-1.140037361579E-2,1.643675216157E-3,
9.318372014014E-3));
#538=CARTESIAN_POINT('',(-1.135704013005E-2,2.014079686294E-3,
9.567529506235E-3));
#539=CARTESIAN_POINT('',(-1.127618715565E-2,2.423928290559E-3,
9.743186048219E-3));
#540=CARTESIAN_POINT('',(-1.120089400991E-2,2.720655588615E-3,
9.808266444371E-3));
#541=CARTESIAN_POINT('',(-1.115957576983E-2,2.872393091977E-3,
9.826197095268E-3));
#543=CURVE_STYLE('',#28,POSITIVE_LENGTH_MEASURE(2.E-2),#1);
#544=PRESENTATION_STYLE_ASSIGNMENT((#543));
#545=STYLED_ITEM('',(#544),#542);
#546=CARTESIAN_POINT('',(3.964987327508E-2,1.062992125984E-2,
-9.842519685039E-3));
#547=DIRECTION('',(0.E0,0.E0,1.E0));
#548=DIRECTION('',(-9.673790478516E-1,2.533333333333E-1,0.E0));
#549=AXIS2_PLACEMENT_3D('',#546,#547,#548);
#551=CURVE_STYLE('',#28,POSITIVE_LENGTH_MEASURE(2.E-2),#1);
#552=PRESENTATION_STYLE_ASSIGNMENT((#551));
#553=STYLED_ITEM('',(#552),#550);
#554=CARTESIAN_POINT('',(-3.964987327508E-2,1.062992125984E-2,
-9.842519685039E-3));
#555=DIRECTION('',(0.E0,0.E0,1.E0));
#556=DIRECTION('',(9.673790478516E-1,-2.533333333333E-1,0.E0));
#557=AXIS2_PLACEMENT_3D('',#554,#555,#556);
#559=CURVE_STYLE('',#28,POSITIVE_LENGTH_MEASURE(2.E-2),#1);
#560=PRESENTATION_STYLE_ASSIGNMENT((#559));
#561=STYLED_ITEM('',(#560),#558);
#562=CARTESIAN_POINT('',(3.964987327508E-2,1.062992125984E-2,
-9.842519685039E-3));
#563=DIRECTION('',(0.E0,0.E0,1.E0));
#564=DIRECTION('',(-1.E0,0.E0,0.E0));
#565=AXIS2_PLACEMENT_3D('',#562,#563,#564);
#567=CURVE_STYLE('',#28,POSITIVE_LENGTH_MEASURE(2.E-2),#1);
#568=PRESENTATION_STYLE_ASSIGNMENT((#567));
#569=STYLED_ITEM('',(#568),#566);
#570=CARTESIAN_POINT('',(1.115957979372E-2,8.037272323847E-4,
-7.757542945057E-3));
#571=CARTESIAN_POINT('',(1.120202388114E-2,8.221467184028E-4,
-7.913417198463E-3));
#572=CARTESIAN_POINT('',(1.127888257713E-2,8.896967120590E-4,
-8.217048583246E-3));
#573=CARTESIAN_POINT('',(1.135984446383E-2,1.071174543022E-3,
-8.632590133909E-3));
#574=CARTESIAN_POINT('',(1.140154999824E-2,1.326043111407E-3,
-9.003966716404E-3));
#575=CARTESIAN_POINT('',(1.140037366861E-2,1.643675174057E-3,
-9.318372152038E-3));
#576=CARTESIAN_POINT('',(1.135704005619E-2,2.014079952777E-3,
-9.567529521175E-3));
#577=CARTESIAN_POINT('',(1.127618739824E-2,2.423927266729E-3,
-9.743185850436E-3));
#578=CARTESIAN_POINT('',(1.120089349308E-2,2.720657799897E-3,
-9.808266895905E-3));
#579=CARTESIAN_POINT('',(1.115957517349E-2,2.872395281907E-3,
-9.826197544279E-3));
#581=CURVE_STYLE('',#28,POSITIVE_LENGTH_MEASURE(2.E-2),#1);
#582=PRESENTATION_STYLE_ASSIGNMENT((#581));
#583=STYLED_ITEM('',(#582),#580);
#584=VERTEX_POINT('',#83);
#585=VERTEX_POINT('',#74);
#586=VERTEX_POINT('',#444);
#587=VERTEX_POINT('',#434);
#588=VERTEX_POINT('',#118);
#589=VERTEX_POINT('',#47);
#590=VERTEX_POINT('',#52);
#591=VERTEX_POINT('',#35);
#592=VERTEX_POINT('',#26);
#593=VERTEX_POINT('',#136);
#594=VERTEX_POINT('',#103);
#595=VERTEX_POINT('',#69);
#596=CARTESIAN_POINT('',(-1.108553131095E-2,2.047244094488E-2,
7.480314960629E-3));
#597=VERTEX_POINT('',#596);
#598=VERTEX_POINT('',#374);
#599=CARTESIAN_POINT('',(1.108553131096E-2,2.047244094488E-2,
-7.480314960630E-3));
#600=VERTEX_POINT('',#599);
#601=VERTEX_POINT('',#429);
#602=VERTEX_POINT('',#310);
#603=VERTEX_POINT('',#315);
#604=VERTEX_POINT('',#360);
#605=VERTEX_POINT('',#400);
#606=VERTEX_POINT('',#454);
#607=VERTEX_POINT('',#274);
#608=CARTESIAN_POINT('',(-1.108553131096E-2,3.149606299213E-3,
-9.842519685039E-3));
#609=VERTEX_POINT('',#608);
#610=VERTEX_POINT('',#247);
#611=CARTESIAN_POINT('',(1.108553131096E-2,3.149606299213E-3,
9.842519685039E-3));
#612=CARTESIAN_POINT('',(1.012231421996E-2,1.062992125984E-2,
9.842519685039E-3));
#613=VERTEX_POINT('',#611);
#614=VERTEX_POINT('',#612);
#615=VERTEX_POINT('',#532);
#616=VERTEX_POINT('',#522);
#617=CARTESIAN_POINT('',(1.108553131095E-2,7.874015748031E-4,
7.480314960629E-3));
#618=VERTEX_POINT('',#617);
#619=VERTEX_POINT('',#158);
#620=VERTEX_POINT('',#194);
#621=CARTESIAN_POINT('',(1.108553131096E-2,7.874015748031E-4,
-7.480314960630E-3));
#622=VERTEX_POINT('',#621);
#623=VERTEX_POINT('',#264);
#624=VERTEX_POINT('',#284);
#625=VERTEX_POINT('',#289);
#626=CARTESIAN_POINT('',(-1.108553131095E-2,7.874015748031E-4,
-7.480314960629E-3));
#627=VERTEX_POINT('',#626);
#628=VERTEX_POINT('',#496);
#629=CARTESIAN_POINT('',(1.012231421996E-2,1.062992125984E-2,
-9.842519685039E-3));
#630=VERTEX_POINT('',#629);
#631=CARTESIAN_POINT('',(-3.964987327508E-2,1.062992125984E-2,
-9.335906864409E-2));
#632=DIRECTION('',(0.E0,0.E0,1.E0));
#633=DIRECTION('',(1.E0,2.676781727092E-14,0.E0));
#634=AXIS2_PLACEMENT_3D('',#631,#632,#633);
#635=CYLINDRICAL_SURFACE('',#634,2.952755905512E-2);
#637=ORIENTED_EDGE('',*,*,#636,.T.);
#639=ORIENTED_EDGE('',*,*,#638,.T.);
#641=ORIENTED_EDGE('',*,*,#640,.T.);
#643=ORIENTED_EDGE('',*,*,#642,.F.);
#645=ORIENTED_EDGE('',*,*,#644,.F.);
#646=EDGE_LOOP('',(#637,#639,#641,#643,#645));
#647=FACE_OUTER_BOUND('',#646,.F.);
#649=FILL_AREA_STYLE_COLOUR('',#16);
#650=FILL_AREA_STYLE('',(#649));
#651=SURFACE_STYLE_FILL_AREA(#650);
#652=SURFACE_SIDE_STYLE('',(#651));
#653=SURFACE_STYLE_USAGE(.BOTH.,#652);
#654=PRESENTATION_STYLE_ASSIGNMENT((#653));
#655=OVER_RIDING_STYLED_ITEM('',(#654),#648,#22);
#656=CARTESIAN_POINT('',(0.E0,1.811023622047E-2,7.480314960630E-3));
#657=DIRECTION('',(-1.E0,0.E0,0.E0));
#658=DIRECTION('',(0.E0,0.E0,-1.E0));
#659=AXIS2_PLACEMENT_3D('',#656,#657,#658);
#660=CYLINDRICAL_SURFACE('',#659,2.362204724409E-3);
#662=ORIENTED_EDGE('',*,*,#661,.T.);
#664=ORIENTED_EDGE('',*,*,#663,.F.);
#665=ORIENTED_EDGE('',*,*,#636,.F.);
#667=ORIENTED_EDGE('',*,*,#666,.T.);
#669=ORIENTED_EDGE('',*,*,#668,.T.);
#671=ORIENTED_EDGE('',*,*,#670,.F.);
#673=ORIENTED_EDGE('',*,*,#672,.F.);
#675=ORIENTED_EDGE('',*,*,#674,.T.);
#676=EDGE_LOOP('',(#662,#664,#665,#667,#669,#671,#673,#675));
#677=FACE_OUTER_BOUND('',#676,.F.);
#679=FILL_AREA_STYLE_COLOUR('',#16);
#680=FILL_AREA_STYLE('',(#679));
#681=SURFACE_STYLE_FILL_AREA(#680);
#682=SURFACE_SIDE_STYLE('',(#681));
#683=SURFACE_STYLE_USAGE(.BOTH.,#682);
#684=PRESENTATION_STYLE_ASSIGNMENT((#683));
#685=OVER_RIDING_STYLED_ITEM('',(#684),#678,#22);
#686=CARTESIAN_POINT('',(3.964987327508E-2,1.062992125984E-2,
-9.335906864409E-2));
#687=DIRECTION('',(0.E0,0.E0,1.E0));
#688=DIRECTION('',(-1.E0,0.E0,0.E0));
#689=AXIS2_PLACEMENT_3D('',#686,#687,#688);
#690=CYLINDRICAL_SURFACE('',#689,2.952755905512E-2);
#692=ORIENTED_EDGE('',*,*,#691,.F.);
#694=ORIENTED_EDGE('',*,*,#693,.T.);
#696=ORIENTED_EDGE('',*,*,#695,.T.);
#697=ORIENTED_EDGE('',*,*,#661,.F.);
#699=ORIENTED_EDGE('',*,*,#698,.T.);
#701=ORIENTED_EDGE('',*,*,#700,.T.);
#703=ORIENTED_EDGE('',*,*,#702,.F.);
#704=EDGE_LOOP('',(#692,#694,#696,#697,#699,#701,#703));
#705=FACE_OUTER_BOUND('',#704,.F.);
#707=FILL_AREA_STYLE_COLOUR('',#16);
#708=FILL_AREA_STYLE('',(#707));
#709=SURFACE_STYLE_FILL_AREA(#708);
#710=SURFACE_SIDE_STYLE('',(#709));
#711=SURFACE_STYLE_USAGE(.BOTH.,#710);
#712=PRESENTATION_STYLE_ASSIGNMENT((#711));
#713=OVER_RIDING_STYLED_ITEM('',(#712),#706,#22);
#714=CARTESIAN_POINT('',(-1.181102362205E-2,3.149606299213E-3,
7.480314960630E-3));
#715=DIRECTION('',(1.E0,0.E0,0.E0));
#716=DIRECTION('',(0.E0,0.E0,1.E0));
#717=AXIS2_PLACEMENT_3D('',#714,#715,#716);
#718=CYLINDRICAL_SURFACE('',#717,2.362204724409E-3);
#719=ORIENTED_EDGE('',*,*,#640,.F.);
#721=ORIENTED_EDGE('',*,*,#720,.F.);
#722=ORIENTED_EDGE('',*,*,#691,.T.);
#724=ORIENTED_EDGE('',*,*,#723,.T.);
#726=ORIENTED_EDGE('',*,*,#725,.F.);
#728=ORIENTED_EDGE('',*,*,#727,.F.);
#730=ORIENTED_EDGE('',*,*,#729,.T.);
#732=ORIENTED_EDGE('',*,*,#731,.T.);
#733=EDGE_LOOP('',(#719,#721,#722,#724,#726,#728,#730,#732));
#734=FACE_OUTER_BOUND('',#733,.F.);
#736=FILL_AREA_STYLE_COLOUR('',#16);
#737=FILL_AREA_STYLE('',(#736));
#738=SURFACE_STYLE_FILL_AREA(#737);
#739=SURFACE_SIDE_STYLE('',(#738));
#740=SURFACE_STYLE_USAGE(.BOTH.,#739);
#741=PRESENTATION_STYLE_ASSIGNMENT((#740));
#742=OVER_RIDING_STYLED_ITEM('',(#741),#735,#22);
#743=CARTESIAN_POINT('',(-1.181102362205E-2,2.047244094488E-2,
9.842519685039E-3));
#744=DIRECTION('',(0.E0,0.E0,-1.E0));
#745=DIRECTION('',(1.E0,0.E0,0.E0));
#746=AXIS2_PLACEMENT_3D('',#743,#744,#745);
#747=PLANE('',#746);
#748=ORIENTED_EDGE('',*,*,#693,.F.);
#749=ORIENTED_EDGE('',*,*,#720,.T.);
#750=ORIENTED_EDGE('',*,*,#638,.F.);
#751=ORIENTED_EDGE('',*,*,#663,.T.);
#752=ORIENTED_EDGE('',*,*,#695,.F.);
#753=EDGE_LOOP('',(#748,#749,#750,#751,#752));
#754=FACE_OUTER_BOUND('',#753,.F.);
#756=FILL_AREA_STYLE_COLOUR('',#16);
#757=FILL_AREA_STYLE('',(#756));
#758=SURFACE_STYLE_FILL_AREA(#757);
#759=SURFACE_SIDE_STYLE('',(#758));
#760=SURFACE_STYLE_USAGE(.BOTH.,#759);
#761=PRESENTATION_STYLE_ASSIGNMENT((#760));
#762=OVER_RIDING_STYLED_ITEM('',(#761),#755,#22);
#763=CARTESIAN_POINT('',(1.012231421996E-2,1.062992125984E-2,0.E0));
#764=CARTESIAN_POINT('',(1.012231421996E-2,1.062992125984E-2,0.E0));
#765=CARTESIAN_POINT('',(1.012231421996E-2,1.062992125984E-2,0.E0));
#766=CARTESIAN_POINT('',(1.012231421996E-2,1.062992125984E-2,0.E0));
#767=CARTESIAN_POINT('',(1.012231421996E-2,7.876266624104E-3,
3.504764312911E-3));
#768=CARTESIAN_POINT('',(1.012231421996E-2,7.625721543442E-3,
3.254567526529E-3));
#769=CARTESIAN_POINT('',(1.012231421996E-2,7.375356596020E-3,
3.004202580433E-3));
#770=CARTESIAN_POINT('',(1.012231421996E-2,7.125159808424E-3,
2.753657501207E-3));
#771=CARTESIAN_POINT('',(1.050959629540E-2,5.124141561276E-3,
7.007554428653E-3));
#772=CARTESIAN_POINT('',(1.059138434922E-2,4.598746464648E-3,
6.534087069692E-3));
#773=CARTESIAN_POINT('',(1.059138466246E-2,4.095839837883E-3,
6.031180641808E-3));
#774=CARTESIAN_POINT('',(1.050959722648E-2,3.622372221157E-3,
5.505785679691E-3));
#775=CARTESIAN_POINT('',(1.127033671820E-2,2.476227943603E-3,
1.037652709849E-2));
#776=CARTESIAN_POINT('',(1.147808367101E-2,1.770246741097E-3,
9.610701561823E-3));
#777=CARTESIAN_POINT('',(1.147808447376E-2,1.019228383365E-3,
8.859682972852E-3));
#778=CARTESIAN_POINT('',(1.127033906226E-2,2.534028023715E-4,
8.153701282036E-3));
#779=(BOUNDED_SURFACE()B_SPLINE_SURFACE(3,3,((#763,#764,#765,#766),(#767,#768,
#769,#770),(#771,#772,#773,#774),(#775,#776,#777,#778)),.UNSPECIFIED.,.F.,.F.,
.F.)B_SPLINE_SURFACE_WITH_KNOTS((4,4),(4,4),(0.E0,1.003974517009E0),(
-1.006643294928E-2,1.010062543966E0),.UNSPECIFIED.)GEOMETRIC_REPRESENTATION_ITEM()RATIONAL_B_SPLINE_SURFACE(((1.E0,1.E0,1.E0,1.E0),(9.999995327388E-1,
1.000015474074E0,1.000015474135E0,9.999995329212E-1),(1.000135053277E0,
9.955275022609E-1,9.955274846958E-1,1.000135000582E0),(1.000393434879E0,
9.869707967034E-1,9.869707455332E-1,1.000393281368E0)))REPRESENTATION_ITEM('')SURFACE());
#780=ORIENTED_EDGE('',*,*,#723,.F.);
#781=ORIENTED_EDGE('',*,*,#702,.T.);
#783=ORIENTED_EDGE('',*,*,#782,.T.);
#784=EDGE_LOOP('',(#780,#781,#783));
#785=FACE_OUTER_BOUND('',#784,.F.);
#787=FILL_AREA_STYLE_COLOUR('',#16);
#788=FILL_AREA_STYLE('',(#787));
#789=SURFACE_STYLE_FILL_AREA(#788);
#790=SURFACE_SIDE_STYLE('',(#789));
#791=SURFACE_STYLE_USAGE(.BOTH.,#790);
#792=PRESENTATION_STYLE_ASSIGNMENT((#791));
#793=OVER_RIDING_STYLED_ITEM('',(#792),#786,#22);
#794=CARTESIAN_POINT('',(3.964987327508E-2,2.047244094488E-2,0.E0));
#795=DIRECTION('',(0.E0,-1.E0,0.E0));
#796=DIRECTION('',(0.E0,0.E0,1.E0));
#797=AXIS2_PLACEMENT_3D('',#794,#795,#796);
#798=CYLINDRICAL_SURFACE('',#797,2.952755905512E-2);
#800=ORIENTED_EDGE('',*,*,#799,.T.);
#801=ORIENTED_EDGE('',*,*,#725,.T.);
#802=ORIENTED_EDGE('',*,*,#782,.F.);
#804=ORIENTED_EDGE('',*,*,#803,.F.);
#806=ORIENTED_EDGE('',*,*,#805,.T.);
#807=EDGE_LOOP('',(#800,#801,#802,#804,#806));
#808=FACE_OUTER_BOUND('',#807,.F.);
#810=FILL_AREA_STYLE_COLOUR('',#16);
#811=FILL_AREA_STYLE('',(#810));
#812=SURFACE_STYLE_FILL_AREA(#811);
#813=SURFACE_SIDE_STYLE('',(#812));
#814=SURFACE_STYLE_USAGE(.BOTH.,#813);
#815=PRESENTATION_STYLE_ASSIGNMENT((#814));
#816=OVER_RIDING_STYLED_ITEM('',(#815),#809,#22);
#817=CARTESIAN_POINT('',(0.E0,7.874015748031E-4,0.E0));
#818=DIRECTION('',(0.E0,1.E0,0.E0));
#819=DIRECTION('',(0.E0,0.E0,-1.E0));
#820=AXIS2_PLACEMENT_3D('',#817,#818,#819);
#821=PLANE('',#820);
#823=ORIENTED_EDGE('',*,*,#822,.T.);
#825=ORIENTED_EDGE('',*,*,#824,.F.);
#826=ORIENTED_EDGE('',*,*,#727,.T.);
#827=ORIENTED_EDGE('',*,*,#799,.F.);
#828=EDGE_LOOP('',(#823,#825,#826,#827));
#829=FACE_OUTER_BOUND('',#828,.F.);
#831=FILL_AREA_STYLE_COLOUR('',#16);
#832=FILL_AREA_STYLE('',(#831));
#833=SURFACE_STYLE_FILL_AREA(#832);
#834=SURFACE_SIDE_STYLE('',(#833));
#835=SURFACE_STYLE_USAGE(.BOTH.,#834);
#836=PRESENTATION_STYLE_ASSIGNMENT((#835));
#837=OVER_RIDING_STYLED_ITEM('',(#836),#830,#22);
#838=CARTESIAN_POINT('',(-1.181102362205E-2,3.149606299213E-3,
-7.480314960630E-3));
#839=DIRECTION('',(-1.E0,0.E0,0.E0));
#840=DIRECTION('',(0.E0,0.E0,-1.E0));
#841=AXIS2_PLACEMENT_3D('',#838,#839,#840);
#842=CYLINDRICAL_SURFACE('',#841,2.362204724409E-3);
#844=ORIENTED_EDGE('',*,*,#843,.T.);
#846=ORIENTED_EDGE('',*,*,#845,.F.);
#848=ORIENTED_EDGE('',*,*,#847,.F.);
#850=ORIENTED_EDGE('',*,*,#849,.T.);
#852=ORIENTED_EDGE('',*,*,#851,.T.);
#853=ORIENTED_EDGE('',*,*,#822,.F.);
#854=ORIENTED_EDGE('',*,*,#805,.F.);
#856=ORIENTED_EDGE('',*,*,#855,.T.);
#857=EDGE_LOOP('',(#844,#846,#848,#850,#852,#853,#854,#856));
#858=FACE_OUTER_BOUND('',#857,.F.);
#860=FILL_AREA_STYLE_COLOUR('',#16);
#861=FILL_AREA_STYLE('',(#860));
#862=SURFACE_STYLE_FILL_AREA(#861);
#863=SURFACE_SIDE_STYLE('',(#862));
#864=SURFACE_STYLE_USAGE(.BOTH.,#863);
#865=PRESENTATION_STYLE_ASSIGNMENT((#864));
#866=OVER_RIDING_STYLED_ITEM('',(#865),#859,#22);
#867=CARTESIAN_POINT('',(3.964987327508E-2,1.062992125984E-2,
-9.335906864409E-2));
#868=DIRECTION('',(0.E0,0.E0,1.E0));
#869=DIRECTION('',(-1.E0,0.E0,0.E0));
#870=AXIS2_PLACEMENT_3D('',#867,#868,#869);
#871=CYLINDRICAL_SURFACE('',#870,2.952755905512E-2);
#873=ORIENTED_EDGE('',*,*,#872,.F.);
#875=ORIENTED_EDGE('',*,*,#874,.T.);
#877=ORIENTED_EDGE('',*,*,#876,.T.);
#878=ORIENTED_EDGE('',*,*,#843,.F.);
#880=ORIENTED_EDGE('',*,*,#879,.F.);
#882=ORIENTED_EDGE('',*,*,#881,.F.);
#883=EDGE_LOOP('',(#873,#875,#877,#878,#880,#882));
#884=FACE_OUTER_BOUND('',#883,.F.);
#886=FILL_AREA_STYLE_COLOUR('',#16);
#887=FILL_AREA_STYLE('',(#886));
#888=SURFACE_STYLE_FILL_AREA(#887);
#889=SURFACE_SIDE_STYLE('',(#888));
#890=SURFACE_STYLE_USAGE(.BOTH.,#889);
#891=PRESENTATION_STYLE_ASSIGNMENT((#890));
#892=OVER_RIDING_STYLED_ITEM('',(#891),#885,#22);
#893=CARTESIAN_POINT('',(0.E0,1.811023622047E-2,-7.480314960630E-3));
#894=DIRECTION('',(1.E0,0.E0,0.E0));
#895=DIRECTION('',(0.E0,0.E0,1.E0));
#896=AXIS2_PLACEMENT_3D('',#893,#894,#895);
#897=CYLINDRICAL_SURFACE('',#896,2.362204724409E-3);
#899=ORIENTED_EDGE('',*,*,#898,.F.);
#901=ORIENTED_EDGE('',*,*,#900,.F.);
#902=ORIENTED_EDGE('',*,*,#872,.T.);
#904=ORIENTED_EDGE('',*,*,#903,.T.);
#906=ORIENTED_EDGE('',*,*,#905,.F.);
#908=ORIENTED_EDGE('',*,*,#907,.F.);
#910=ORIENTED_EDGE('',*,*,#909,.T.);
#912=ORIENTED_EDGE('',*,*,#911,.T.);
#913=EDGE_LOOP('',(#899,#901,#902,#904,#906,#908,#910,#912));
#914=FACE_OUTER_BOUND('',#913,.F.);
#916=FILL_AREA_STYLE_COLOUR('',#16);
#917=FILL_AREA_STYLE('',(#916));
#918=SURFACE_STYLE_FILL_AREA(#917);
#919=SURFACE_SIDE_STYLE('',(#918));
#920=SURFACE_STYLE_USAGE(.BOTH.,#919);
#921=PRESENTATION_STYLE_ASSIGNMENT((#920));
#922=OVER_RIDING_STYLED_ITEM('',(#921),#915,#22);
#923=CARTESIAN_POINT('',(-3.964987327508E-2,1.062992125984E-2,
-9.335906864409E-2));
#924=DIRECTION('',(0.E0,0.E0,1.E0));
#925=DIRECTION('',(1.E0,0.E0,0.E0));
#926=AXIS2_PLACEMENT_3D('',#923,#924,#925);
#927=CYLINDRICAL_SURFACE('',#926,2.952755905512E-2);
#928=ORIENTED_EDGE('',*,*,#898,.T.);
#930=ORIENTED_EDGE('',*,*,#929,.F.);
#932=ORIENTED_EDGE('',*,*,#931,.F.);
#933=ORIENTED_EDGE('',*,*,#847,.T.);
#935=ORIENTED_EDGE('',*,*,#934,.T.);
#936=EDGE_LOOP('',(#928,#930,#932,#933,#935));
#937=FACE_OUTER_BOUND('',#936,.F.);
#939=FILL_AREA_STYLE_COLOUR('',#16);
#940=FILL_AREA_STYLE('',(#939));
#941=SURFACE_STYLE_FILL_AREA(#940);
#942=SURFACE_SIDE_STYLE('',(#941));
#943=SURFACE_STYLE_USAGE(.BOTH.,#942);
#944=PRESENTATION_STYLE_ASSIGNMENT((#943));
#945=OVER_RIDING_STYLED_ITEM('',(#944),#938,#22);
#946=CARTESIAN_POINT('',(-1.012231421996E-2,1.062992125984E-2,0.E0));
#947=CARTESIAN_POINT('',(-1.012231421996E-2,1.062992125984E-2,0.E0));
#948=CARTESIAN_POINT('',(-1.012231421996E-2,1.062992125984E-2,0.E0));
#949=CARTESIAN_POINT('',(-1.012231421996E-2,1.062992125984E-2,0.E0));
#950=CARTESIAN_POINT('',(-1.012231421996E-2,1.413468557275E-2,
-2.753654635743E-3));
#951=CARTESIAN_POINT('',(-1.012231421996E-2,1.388448878637E-2,
-3.004199716403E-3));
#952=CARTESIAN_POINT('',(-1.012231421996E-2,1.363412384028E-2,
-3.254564663827E-3));
#953=CARTESIAN_POINT('',(-1.012231421996E-2,1.338357876105E-2,
-3.504761451431E-3));
#954=CARTESIAN_POINT('',(-1.050959629540E-2,1.763747568850E-2,
-5.505779698567E-3));
#955=CARTESIAN_POINT('',(-1.059138434922E-2,1.716400832954E-2,
-6.031174795195E-3));
#956=CARTESIAN_POINT('',(-1.059138466246E-2,1.666110190166E-2,
-6.534081421957E-3));
#957=CARTESIAN_POINT('',(-1.050959722648E-2,1.613570693954E-2,
-7.007549038676E-3));
#958=CARTESIAN_POINT('',(-1.127033671820E-2,2.100644835834E-2,
-8.153693316244E-3));
#959=CARTESIAN_POINT('',(-1.147808367101E-2,2.024062282167E-2,
-8.859674518740E-3));
#960=CARTESIAN_POINT('',(-1.147808447376E-2,1.948960423270E-2,
-9.610692876467E-3));
#961=CARTESIAN_POINT('',(-1.127033906226E-2,1.878362254189E-2,
-1.037651845746E-2));
#962=(BOUNDED_SURFACE()B_SPLINE_SURFACE(3,3,((#946,#947,#948,#949),(#950,#951,
#952,#953),(#954,#955,#956,#957),(#958,#959,#960,#961)),.UNSPECIFIED.,.F.,.F.,
.F.)B_SPLINE_SURFACE_WITH_KNOTS((4,4),(4,4),(0.E0,1.003974517010E0),(
-1.006643295056E-2,1.010062543964E0),.UNSPECIFIED.)GEOMETRIC_REPRESENTATION_ITEM()RATIONAL_B_SPLINE_SURFACE(((1.E0,1.E0,1.E0,1.E0),(9.999995327388E-1,
1.000015474074E0,1.000015474135E0,9.999995329212E-1),(1.000135053277E0,
9.955275022609E-1,9.955274846958E-1,1.000135000582E0),(1.000393434879E0,
9.869707967034E-1,9.869707455332E-1,1.000393281368E0)))REPRESENTATION_ITEM('')SURFACE());
#963=ORIENTED_EDGE('',*,*,#929,.T.);
#964=ORIENTED_EDGE('',*,*,#911,.F.);
#966=ORIENTED_EDGE('',*,*,#965,.T.);
#967=EDGE_LOOP('',(#963,#964,#966));
#968=FACE_OUTER_BOUND('',#967,.F.);
#970=FILL_AREA_STYLE_COLOUR('',#16);
#971=FILL_AREA_STYLE('',(#970));
#972=SURFACE_STYLE_FILL_AREA(#971);
#973=SURFACE_SIDE_STYLE('',(#972));
#974=SURFACE_STYLE_USAGE(.BOTH.,#973);
#975=PRESENTATION_STYLE_ASSIGNMENT((#974));
#976=OVER_RIDING_STYLED_ITEM('',(#975),#969,#22);
#977=CARTESIAN_POINT('',(-3.964987327508E-2,2.047244094488E-2,0.E0));
#978=DIRECTION('',(0.E0,-1.E0,0.E0));
#979=DIRECTION('',(0.E0,0.E0,1.E0));
#980=AXIS2_PLACEMENT_3D('',#977,#978,#979);
#981=CYLINDRICAL_SURFACE('',#980,2.952755905512E-2);
#983=ORIENTED_EDGE('',*,*,#982,.T.);
#984=ORIENTED_EDGE('',*,*,#668,.F.);
#986=ORIENTED_EDGE('',*,*,#985,.F.);
#987=ORIENTED_EDGE('',*,*,#965,.F.);
#988=ORIENTED_EDGE('',*,*,#909,.F.);
#989=EDGE_LOOP('',(#983,#984,#986,#987,#988));
#990=FACE_OUTER_BOUND('',#989,.F.);
#992=FILL_AREA_STYLE_COLOUR('',#16);
#993=FILL_AREA_STYLE('',(#992));
#994=SURFACE_STYLE_FILL_AREA(#993);
#995=SURFACE_SIDE_STYLE('',(#994));
#996=SURFACE_STYLE_USAGE(.BOTH.,#995);
#997=PRESENTATION_STYLE_ASSIGNMENT((#996));
#998=OVER_RIDING_STYLED_ITEM('',(#997),#991,#22);
#999=CARTESIAN_POINT('',(0.E0,2.047244094488E-2,0.E0));
#1000=DIRECTION('',(0.E0,1.E0,0.E0));
#1001=DIRECTION('',(0.E0,0.E0,-1.E0));
#1002=AXIS2_PLACEMENT_3D('',#999,#1000,#1001);
#1003=PLANE('',#1002);
#1005=ORIENTED_EDGE('',*,*,#1004,.F.);
#1006=ORIENTED_EDGE('',*,*,#670,.T.);
#1007=ORIENTED_EDGE('',*,*,#982,.F.);
#1008=ORIENTED_EDGE('',*,*,#907,.T.);
#1009=EDGE_LOOP('',(#1005,#1006,#1007,#1008));
#1010=FACE_OUTER_BOUND('',#1009,.F.);
#1012=FILL_AREA_STYLE_COLOUR('',#16);
#1013=FILL_AREA_STYLE('',(#1012));
#1014=SURFACE_STYLE_FILL_AREA(#1013);
#1015=SURFACE_SIDE_STYLE('',(#1014));
#1016=SURFACE_STYLE_USAGE(.BOTH.,#1015);
#1017=PRESENTATION_STYLE_ASSIGNMENT((#1016));
#1018=OVER_RIDING_STYLED_ITEM('',(#1017),#1011,#22);
#1019=CARTESIAN_POINT('',(3.964987327508E-2,2.047244094488E-2,0.E0));
#1020=DIRECTION('',(0.E0,-1.E0,0.E0));
#1021=DIRECTION('',(0.E0,0.E0,1.E0));
#1022=AXIS2_PLACEMENT_3D('',#1019,#1020,#1021);
#1023=CYLINDRICAL_SURFACE('',#1022,2.952755905512E-2);
#1024=ORIENTED_EDGE('',*,*,#1004,.T.);
#1025=ORIENTED_EDGE('',*,*,#905,.T.);
#1027=ORIENTED_EDGE('',*,*,#1026,.F.);
#1029=ORIENTED_EDGE('',*,*,#1028,.T.);
#1031=ORIENTED_EDGE('',*,*,#1030,.T.);
#1032=ORIENTED_EDGE('',*,*,#672,.T.);
#1033=EDGE_LOOP('',(#1024,#1025,#1027,#1029,#1031,#1032));
#1034=FACE_OUTER_BOUND('',#1033,.F.);
#1036=FILL_AREA_STYLE_COLOUR('',#16);
#1037=FILL_AREA_STYLE('',(#1036));
#1038=SURFACE_STYLE_FILL_AREA(#1037);
#1039=SURFACE_SIDE_STYLE('',(#1038));
#1040=SURFACE_STYLE_USAGE(.BOTH.,#1039);
#1041=PRESENTATION_STYLE_ASSIGNMENT((#1040));
#1042=OVER_RIDING_STYLED_ITEM('',(#1041),#1035,#22);
#1043=CARTESIAN_POINT('',(1.127034781680E-2,2.100649750476E-2,
-8.153731947078E-3));
#1044=CARTESIAN_POINT('',(1.147809670477E-2,2.024066816866E-2,
-8.859716092891E-3));
#1045=CARTESIAN_POINT('',(1.147809752477E-2,1.948964598844E-2,
-9.610738036895E-3));
#1046=CARTESIAN_POINT('',(1.127035021122E-2,1.878366134381E-2,
-1.037656741828E-2));
#1047=CARTESIAN_POINT('',(1.050960006266E-2,1.763750975852E-2,
-5.505806469420E-3));
#1048=CARTESIAN_POINT('',(1.059138892621E-2,1.716404041565E-2,
-6.031204332111E-3));
#1049=CARTESIAN_POINT('',(1.059138924618E-2,1.666113156415E-2,
-6.534113386760E-3));
#1050=CARTESIAN_POINT('',(1.050960101374E-2,1.613573383886E-2,
-7.007582992921E-3));
#1051=CARTESIAN_POINT('',(1.012231421996E-2,1.413470261964E-2,
-2.753668030402E-3));
#1052=CARTESIAN_POINT('',(1.012231421996E-2,1.388450463692E-2,
-3.004214308580E-3));
#1053=CARTESIAN_POINT('',(1.012231421996E-2,1.363413849397E-2,
-3.254580452889E-3));
#1054=CARTESIAN_POINT('',(1.012231421996E-2,1.338359221726E-2,
-3.504778436858E-3));
#1055=CARTESIAN_POINT('',(1.012231421996E-2,1.062992125984E-2,0.E0));
#1056=CARTESIAN_POINT('',(1.012231421996E-2,1.062992125984E-2,0.E0));
#1057=CARTESIAN_POINT('',(1.012231421996E-2,1.062992125984E-2,0.E0));
#1058=CARTESIAN_POINT('',(1.012231421996E-2,1.062992125984E-2,0.E0));
#1059=(BOUNDED_SURFACE()B_SPLINE_SURFACE(3,3,((#1043,#1044,#1045,#1046),(#1047,
#1048,#1049,#1050),(#1051,#1052,#1053,#1054),(#1055,#1056,#1057,#1058)),
.UNSPECIFIED.,.F.,.F.,.F.)B_SPLINE_SURFACE_WITH_KNOTS((4,4),(4,4),(
-3.979400435622E-3,1.E0),(-1.006643210965E-2,1.010062459610E0),.UNSPECIFIED.)GEOMETRIC_REPRESENTATION_ITEM()RATIONAL_B_SPLINE_SURFACE(((1.000393438616E0,
9.869706729512E-1,9.869706206816E-1,1.000393281807E0),(1.000135054584E0,
9.955274589819E-1,9.955274410395E-1,1.000135000757E0),(9.999995327366E-1,
1.000015474148E0,1.000015474210E0,9.999995329228E-1),(1.E0,1.E0,1.E0,1.E0)))REPRESENTATION_ITEM('')SURFACE());
#1060=ORIENTED_EDGE('',*,*,#903,.F.);
#1061=ORIENTED_EDGE('',*,*,#881,.T.);
#1062=ORIENTED_EDGE('',*,*,#1026,.T.);
#1063=EDGE_LOOP('',(#1060,#1061,#1062));
#1064=FACE_OUTER_BOUND('',#1063,.F.);
#1066=FILL_AREA_STYLE_COLOUR('',#16);
#1067=FILL_AREA_STYLE('',(#1066));
#1068=SURFACE_STYLE_FILL_AREA(#1067);
#1069=SURFACE_SIDE_STYLE('',(#1068));
#1070=SURFACE_STYLE_USAGE(.BOTH.,#1069);
#1071=PRESENTATION_STYLE_ASSIGNMENT((#1070));
#1072=OVER_RIDING_STYLED_ITEM('',(#1071),#1065,#22);
#1073=CARTESIAN_POINT('',(-1.012231421996E-2,1.062992125984E-2,0.E0));
#1074=CARTESIAN_POINT('',(-1.012231421996E-2,1.062992125984E-2,0.E0));
#1075=CARTESIAN_POINT('',(-1.012231421996E-2,1.062992125984E-2,0.E0));
#1076=CARTESIAN_POINT('',(-1.012231421996E-2,1.062992125984E-2,0.E0));
#1077=CARTESIAN_POINT('',(-1.012231421996E-2,1.338357589559E-2,
3.504764312900E-3));
#1078=CARTESIAN_POINT('',(-1.012231421996E-2,1.363412097625E-2,
3.254567526522E-3));
#1079=CARTESIAN_POINT('',(-1.012231421996E-2,1.388448592367E-2,
3.004202580430E-3));
#1080=CARTESIAN_POINT('',(-1.012231421996E-2,1.413468271126E-2,
2.753657501208E-3));
#1081=CARTESIAN_POINT('',(-1.050959629541E-2,1.613570095844E-2,
7.007554428634E-3));
#1082=CARTESIAN_POINT('',(-1.059138434922E-2,1.666109605506E-2,
6.534087069680E-3));
#1083=CARTESIAN_POINT('',(-1.059138466246E-2,1.716400268181E-2,
6.031180641803E-3));
#1084=CARTESIAN_POINT('',(-1.050959722648E-2,1.763747029852E-2,
5.505785679694E-3));
#1085=CARTESIAN_POINT('',(-1.127033671821E-2,1.878361457612E-2,
1.037652709846E-2));
#1086=CARTESIAN_POINT('',(-1.147808367101E-2,1.948959577861E-2,
9.610701561804E-3));
#1087=CARTESIAN_POINT('',(-1.147808447376E-2,2.024061413632E-2,
8.859682972845E-3));
#1088=CARTESIAN_POINT('',(-1.127033906226E-2,2.100643971731E-2,
8.153701282041E-3));
#1089=(BOUNDED_SURFACE()B_SPLINE_SURFACE(3,3,((#1073,#1074,#1075,#1076),(#1077,
#1078,#1079,#1080),(#1081,#1082,#1083,#1084),(#1085,#1086,#1087,#1088)),
.UNSPECIFIED.,.F.,.F.,.F.)B_SPLINE_SURFACE_WITH_KNOTS((4,4),(4,4),(0.E0,
1.003974517010E0),(-1.006643293319E-2,1.010062543965E0),.UNSPECIFIED.)GEOMETRIC_REPRESENTATION_ITEM()RATIONAL_B_SPLINE_SURFACE(((1.E0,1.E0,1.E0,1.E0),(
9.999995327388E-1,1.000015474074E0,1.000015474135E0,9.999995329212E-1),(
1.000135053277E0,9.955275022609E-1,9.955274846959E-1,1.000135000582E0),(
1.000393434878E0,9.869707967034E-1,9.869707455334E-1,1.000393281368E0)))REPRESENTATION_ITEM('')SURFACE());
#1090=ORIENTED_EDGE('',*,*,#666,.F.);
#1091=ORIENTED_EDGE('',*,*,#644,.T.);
#1092=ORIENTED_EDGE('',*,*,#985,.T.);
#1093=EDGE_LOOP('',(#1090,#1091,#1092));
#1094=FACE_OUTER_BOUND('',#1093,.F.);
#1096=FILL_AREA_STYLE_COLOUR('',#16);
#1097=FILL_AREA_STYLE('',(#1096));
#1098=SURFACE_STYLE_FILL_AREA(#1097);
#1099=SURFACE_SIDE_STYLE('',(#1098));
#1100=SURFACE_STYLE_USAGE(.BOTH.,#1099);
#1101=PRESENTATION_STYLE_ASSIGNMENT((#1100));
#1102=OVER_RIDING_STYLED_ITEM('',(#1101),#1095,#22);
#1103=CARTESIAN_POINT('',(-1.127034781681E-2,2.533450149479E-4,
-8.153731947102E-3));
#1104=CARTESIAN_POINT('',(-1.147809670479E-2,1.019174351100E-3,
-8.859716092961E-3));
#1105=CARTESIAN_POINT('',(-1.147809752477E-2,1.770196531364E-3,
-9.610738037013E-3));
#1106=CARTESIAN_POINT('',(-1.127035021117E-2,2.476181176034E-3,
-1.037656741844E-2));
#1107=CARTESIAN_POINT('',(-1.050960006266E-2,3.622332761181E-3,
-5.505806469438E-3));
#1108=CARTESIAN_POINT('',(-1.059138892622E-2,4.095802104082E-3,
-6.031204332161E-3));
#1109=CARTESIAN_POINT('',(-1.059138924618E-2,4.598710955616E-3,
-6.534113386838E-3));
#1110=CARTESIAN_POINT('',(-1.050960101372E-2,5.124108680940E-3,
-7.007582993023E-3));
#1111=CARTESIAN_POINT('',(-1.012231421996E-2,7.125139900061E-3,
-2.753668030411E-3));
#1112=CARTESIAN_POINT('',(-1.012231421996E-2,7.375337882790E-3,
-3.004214308605E-3));
#1113=CARTESIAN_POINT('',(-1.012231421996E-2,7.625704025756E-3,
-3.254580452929E-3));
#1114=CARTESIAN_POINT('',(-1.012231421996E-2,7.876250302487E-3,
-3.504778436912E-3));
#1115=CARTESIAN_POINT('',(-1.012231421996E-2,1.062992125984E-2,0.E0));
#1116=CARTESIAN_POINT('',(-1.012231421996E-2,1.062992125984E-2,0.E0));
#1117=CARTESIAN_POINT('',(-1.012231421996E-2,1.062992125984E-2,0.E0));
#1118=CARTESIAN_POINT('',(-1.012231421996E-2,1.062992125984E-2,0.E0));
#1119=(BOUNDED_SURFACE()B_SPLINE_SURFACE(3,3,((#1103,#1104,#1105,#1106),(#1107,
#1108,#1109,#1110),(#1111,#1112,#1113,#1114),(#1115,#1116,#1117,#1118)),
.UNSPECIFIED.,.F.,.F.,.F.)B_SPLINE_SURFACE_WITH_KNOTS((4,4),(4,4),(
-3.979400435163E-3,1.E0),(-1.006643209600E-2,1.010062459686E0),.UNSPECIFIED.)GEOMETRIC_REPRESENTATION_ITEM()RATIONAL_B_SPLINE_SURFACE(((1.000393438615E0,
9.869706729502E-1,9.869706206818E-1,1.000393281810E0),(1.000135054584E0,
9.955274589816E-1,9.955274410396E-1,1.000135000758E0),(9.999995327366E-1,
1.000015474148E0,1.000015474210E0,9.999995329228E-1),(1.E0,1.E0,1.E0,1.E0)))REPRESENTATION_ITEM('')SURFACE());
#1120=ORIENTED_EDGE('',*,*,#849,.F.);
#1121=ORIENTED_EDGE('',*,*,#931,.T.);
#1123=ORIENTED_EDGE('',*,*,#1122,.T.);
#1124=EDGE_LOOP('',(#1120,#1121,#1123));
#1125=FACE_OUTER_BOUND('',#1124,.F.);
#1127=FILL_AREA_STYLE_COLOUR('',#16);
#1128=FILL_AREA_STYLE('',(#1127));
#1129=SURFACE_STYLE_FILL_AREA(#1128);
#1130=SURFACE_SIDE_STYLE('',(#1129));
#1131=SURFACE_STYLE_USAGE(.BOTH.,#1130);
#1132=PRESENTATION_STYLE_ASSIGNMENT((#1131));
#1133=OVER_RIDING_STYLED_ITEM('',(#1132),#1126,#22);
#1134=CARTESIAN_POINT('',(-3.964987327508E-2,2.047244094488E-2,0.E0));
#1135=DIRECTION('',(0.E0,-1.E0,0.E0));
#1136=DIRECTION('',(0.E0,0.E0,1.E0));
#1137=AXIS2_PLACEMENT_3D('',#1134,#1135,#1136);
#1138=CYLINDRICAL_SURFACE('',#1137,2.952755905512E-2);
#1139=ORIENTED_EDGE('',*,*,#824,.T.);
#1140=ORIENTED_EDGE('',*,*,#851,.F.);
#1141=ORIENTED_EDGE('',*,*,#1122,.F.);
#1143=ORIENTED_EDGE('',*,*,#1142,.F.);
#1144=ORIENTED_EDGE('',*,*,#729,.F.);
#1145=EDGE_LOOP('',(#1139,#1140,#1141,#1143,#1144));
#1146=FACE_OUTER_BOUND('',#1145,.F.);
#1148=FILL_AREA_STYLE_COLOUR('',#16);
#1149=FILL_AREA_STYLE('',(#1148));
#1150=SURFACE_STYLE_FILL_AREA(#1149);
#1151=SURFACE_SIDE_STYLE('',(#1150));
#1152=SURFACE_STYLE_USAGE(.BOTH.,#1151);
#1153=PRESENTATION_STYLE_ASSIGNMENT((#1152));
#1154=OVER_RIDING_STYLED_ITEM('',(#1153),#1147,#22);
#1155=CARTESIAN_POINT('',(-1.127034909933E-2,2.476184954396E-3,
1.037657151709E-2));
#1156=CARTESIAN_POINT('',(-1.147809671781E-2,1.770201989672E-3,
9.610743727778E-3));
#1157=CARTESIAN_POINT('',(-1.147809708555E-2,1.019181510860E-3,
8.859723143035E-3));
#1158=CARTESIAN_POINT('',(-1.127035017316E-2,2.533537012441E-4,
8.153739954617E-3));
#1159=CARTESIAN_POINT('',(-1.050960057208E-2,5.124111517930E-3,
7.007585549617E-3));
#1160=CARTESIAN_POINT('',(-1.059138893130E-2,4.598714797113E-3,
6.534117028416E-3));
#1161=CARTESIAN_POINT('',(-1.059138907479E-2,4.095806818680E-3,
6.031209141092E-3));
#1162=CARTESIAN_POINT('',(-1.050960099862E-2,3.622338179390E-3,
5.505812481897E-3));
#1163=CARTESIAN_POINT('',(-1.012231421996E-2,7.876251661644E-3,
3.504779794181E-3));
#1164=CARTESIAN_POINT('',(-1.012231421996E-2,7.625705891323E-3,
3.254582317161E-3));
#1165=CARTESIAN_POINT('',(-1.012231421996E-2,7.375340254104E-3,
3.004216680548E-3));
#1166=CARTESIAN_POINT('',(-1.012231421996E-2,7.125142776531E-3,
2.753670910886E-3));
#1167=CARTESIAN_POINT('',(-1.012231421996E-2,1.062992125984E-2,0.E0));
#1168=CARTESIAN_POINT('',(-1.012231421996E-2,1.062992125984E-2,0.E0));
#1169=CARTESIAN_POINT('',(-1.012231421996E-2,1.062992125984E-2,0.E0));
#1170=CARTESIAN_POINT('',(-1.012231421996E-2,1.062992125984E-2,0.E0));
#1171=(BOUNDED_SURFACE()B_SPLINE_SURFACE(3,3,((#1155,#1156,#1157,#1158),(#1159,
#1160,#1161,#1162),(#1163,#1164,#1165,#1166),(#1167,#1168,#1169,#1170)),
.UNSPECIFIED.,.F.,.F.,.F.)B_SPLINE_SURFACE_WITH_KNOTS((4,4),(4,4),(
-3.979400435213E-3,1.E0),(-1.006430431406E-2,1.010062522760E0),.UNSPECIFIED.)GEOMETRIC_REPRESENTATION_ITEM()RATIONAL_B_SPLINE_SURFACE(((1.000393354624E0,
9.869706721202E-1,9.869706486788E-1,1.000393284300E0),(1.000135025753E0,
9.955274586967E-1,9.955274506500E-1,1.000135001613E0),(9.999995328364E-1,
1.000015474149E0,1.000015474177E0,9.999995329199E-1),(1.E0,1.E0,1.E0,1.E0)))REPRESENTATION_ITEM('')SURFACE());
#1172=ORIENTED_EDGE('',*,*,#642,.T.);
#1173=ORIENTED_EDGE('',*,*,#731,.F.);
#1174=ORIENTED_EDGE('',*,*,#1142,.T.);
#1175=EDGE_LOOP('',(#1172,#1173,#1174));
#1176=FACE_OUTER_BOUND('',#1175,.F.);
#1178=FILL_AREA_STYLE_COLOUR('',#16);
#1179=FILL_AREA_STYLE('',(#1178));
#1180=SURFACE_STYLE_FILL_AREA(#1179);
#1181=SURFACE_SIDE_STYLE('',(#1180));
#1182=SURFACE_STYLE_USAGE(.BOTH.,#1181);
#1183=PRESENTATION_STYLE_ASSIGNMENT((#1182));
#1184=OVER_RIDING_STYLED_ITEM('',(#1183),#1177,#22);
#1185=CARTESIAN_POINT('',(-1.181102362205E-2,2.047244094488E-2,
-9.842519685039E-3));
#1186=DIRECTION('',(0.E0,0.E0,1.E0));
#1187=DIRECTION('',(-1.E0,0.E0,0.E0));
#1188=AXIS2_PLACEMENT_3D('',#1185,#1186,#1187);
#1189=PLANE('',#1188);
#1190=ORIENTED_EDGE('',*,*,#874,.F.);
#1191=ORIENTED_EDGE('',*,*,#900,.T.);
#1192=ORIENTED_EDGE('',*,*,#934,.F.);
#1193=ORIENTED_EDGE('',*,*,#845,.T.);
#1194=ORIENTED_EDGE('',*,*,#876,.F.);
#1195=EDGE_LOOP('',(#1190,#1191,#1192,#1193,#1194));
#1196=FACE_OUTER_BOUND('',#1195,.F.);
#1198=FILL_AREA_STYLE_COLOUR('',#16);
#1199=FILL_AREA_STYLE('',(#1198));
#1200=SURFACE_STYLE_FILL_AREA(#1199);
#1201=SURFACE_SIDE_STYLE('',(#1200));
#1202=SURFACE_STYLE_USAGE(.BOTH.,#1201);
#1203=PRESENTATION_STYLE_ASSIGNMENT((#1202));
#1204=OVER_RIDING_STYLED_ITEM('',(#1203),#1197,#22);
#1205=CARTESIAN_POINT('',(1.012231421996E-2,1.062992125984E-2,0.E0));
#1206=CARTESIAN_POINT('',(1.012231421996E-2,1.062992125984E-2,0.E0));
#1207=CARTESIAN_POINT('',(1.012231421996E-2,1.062992125984E-2,0.E0));
#1208=CARTESIAN_POINT('',(1.012231421996E-2,1.062992125984E-2,0.E0));
#1209=CARTESIAN_POINT('',(1.012231421996E-2,7.125169100205E-3,
-2.753666805923E-3));
#1210=CARTESIAN_POINT('',(1.012231421996E-2,7.375361800452E-3,
-3.004207783481E-3));
#1211=CARTESIAN_POINT('',(1.012231421996E-2,7.625722655240E-3,
-3.254568634015E-3));
#1212=CARTESIAN_POINT('',(1.012231421996E-2,7.876263637396E-3,
-3.504761330355E-3));
#1213=CARTESIAN_POINT('',(1.050960024981E-2,3.622389723478E-3,
-5.505805101546E-3));
#1214=CARTESIAN_POINT('',(1.059138433596E-2,4.095850398893E-3,
-6.031190995519E-3));
#1215=CARTESIAN_POINT('',(1.059138333208E-2,4.598749002017E-3,
-6.534088961273E-3));
#1216=CARTESIAN_POINT('',(1.050959726587E-2,5.124135327079E-3,
-7.007548810614E-3));
#1217=CARTESIAN_POINT('',(1.127034667375E-2,2.534308614763E-4,
-8.153727148547E-3));
#1218=CARTESIAN_POINT('',(1.147808363702E-2,1.019243892795E-3,
-8.859698723318E-3));
#1219=CARTESIAN_POINT('',(1.147808106434E-2,1.770249630947E-3,
-9.610705202560E-3));
#1220=CARTESIAN_POINT('',(1.127033916144E-2,2.476219640759E-3,
-1.037651809184E-2));
#1221=(BOUNDED_SURFACE()B_SPLINE_SURFACE(3,3,((#1205,#1206,#1207,#1208),(#1209,
#1210,#1211,#1212),(#1213,#1214,#1215,#1216),(#1217,#1218,#1219,#1220)),
.UNSPECIFIED.,.F.,.F.,.F.)B_SPLINE_SURFACE_WITH_KNOTS((4,4),(4,4),(0.E0,
1.003974517009E0),(-1.004991568694E-2,1.010062379415E0),.UNSPECIFIED.)GEOMETRIC_REPRESENTATION_ITEM()RATIONAL_B_SPLINE_SURFACE(((1.E0,1.E0,1.E0,1.E0),(
9.999995335132E-1,1.000015474072E0,1.000015473877E0,9.999995329289E-1),(
1.000134829474E0,9.955275030047E-1,9.955275592977E-1,1.000134998353E0),(
1.000392782898E0,9.869707988703E-1,9.869709628621E-1,1.000393274873E0)))REPRESENTATION_ITEM('')SURFACE());
#1222=ORIENTED_EDGE('',*,*,#879,.T.);
#1223=ORIENTED_EDGE('',*,*,#855,.F.);
#1224=ORIENTED_EDGE('',*,*,#803,.T.);
#1225=EDGE_LOOP('',(#1222,#1223,#1224));
#1226=FACE_OUTER_BOUND('',#1225,.F.);
#1228=FILL_AREA_STYLE_COLOUR('',#16);
#1229=FILL_AREA_STYLE('',(#1228));
#1230=SURFACE_STYLE_FILL_AREA(#1229);
#1231=SURFACE_SIDE_STYLE('',(#1230));
#1232=SURFACE_STYLE_USAGE(.BOTH.,#1231);
#1233=PRESENTATION_STYLE_ASSIGNMENT((#1232));
#1234=OVER_RIDING_STYLED_ITEM('',(#1233),#1227,#22);
#1236=FILL_AREA_STYLE_COLOUR('',#1);
#1237=FILL_AREA_STYLE('',(#1236));
#1238=SURFACE_STYLE_FILL_AREA(#1237);
#1239=SURFACE_SIDE_STYLE('',(#1238));
#1240=SURFACE_STYLE_USAGE(.BOTH.,#1239);
#1241=PRESENTATION_STYLE_ASSIGNMENT((#1240));
#22=STYLED_ITEM('',(#1241),#1235);
#1243=CARTESIAN_POINT('',(1.012231421996E-2,1.062992125984E-2,0.E0));
#1244=CARTESIAN_POINT('',(1.012231421996E-2,1.338006246409E-2,
3.483512192057E-3));
#1245=CARTESIAN_POINT('',(1.050890376669E-2,1.612932438063E-2,
6.965910619528E-3));
#1246=CARTESIAN_POINT('',(1.126728647740E-2,1.877274082224E-2,
1.031423811236E-2));
#1248=CURVE_STYLE('',#28,POSITIVE_LENGTH_MEASURE(2.E-2),#16);
#1249=PRESENTATION_STYLE_ASSIGNMENT((#1248));
#1250=STYLED_ITEM('',(#1249),#1247);
#1251=CARTESIAN_POINT('',(1.126728647740E-2,1.877274082224E-2,
1.031423811236E-2));
#1252=CARTESIAN_POINT('',(1.136509619390E-2,1.911366606897E-2,
9.945251756237E-3));
#1253=CARTESIAN_POINT('',(1.146574961853E-2,1.982998106514E-2,
9.200059805296E-3));
#1254=CARTESIAN_POINT('',(1.136509619390E-2,2.057517301608E-2,
8.483744809130E-3));
#1255=CARTESIAN_POINT('',(1.126728647740E-2,2.094415937220E-2,
8.142819562402E-3));
#1257=CURVE_STYLE('',#28,POSITIVE_LENGTH_MEASURE(2.E-2),#16);
#1258=PRESENTATION_STYLE_ASSIGNMENT((#1257));
#1259=STYLED_ITEM('',(#1258),#1256);
#1260=CARTESIAN_POINT('',(1.126728647740E-2,2.094415937220E-2,
8.142819562402E-3));
#1261=CARTESIAN_POINT('',(1.050890376669E-2,1.759583187937E-2,
5.499403120787E-3));
#1262=CARTESIAN_POINT('',(1.012231421996E-2,1.411343345189E-2,
2.750141204256E-3));
#1263=CARTESIAN_POINT('',(1.012231421996E-2,1.062992125984E-2,0.E0));
#1265=CURVE_STYLE('',#28,POSITIVE_LENGTH_MEASURE(2.E-2),#16);
#1266=PRESENTATION_STYLE_ASSIGNMENT((#1265));
#1267=STYLED_ITEM('',(#1266),#1264);
#1268=VERTEX_POINT('',#1246);
#1269=VERTEX_POINT('',#1243);
#1270=VERTEX_POINT('',#1255);
#1271=CARTESIAN_POINT('',(1.128444386821E-2,1.883255740395E-2,
1.043879749447E-2));
#1272=CARTESIAN_POINT('',(1.149467341645E-2,1.954233890290E-2,
9.668072786761E-3));
#1273=CARTESIAN_POINT('',(1.149467422892E-2,2.029798530653E-2,
8.912426147595E-3));
#1274=CARTESIAN_POINT('',(1.128444623989E-2,2.106871005944E-2,
8.202644151458E-3));
#1275=CARTESIAN_POINT('',(1.051438499316E-2,1.616962604323E-2,
7.050732849375E-3));
#1276=CARTESIAN_POINT('',(1.059721161696E-2,1.669858555745E-2,
6.574704376647E-3));
#1277=CARTESIAN_POINT('',(1.059721193419E-2,1.720461995499E-2,
6.068670181839E-3));
#1278=CARTESIAN_POINT('',(1.051438593600E-2,1.768064869039E-2,
5.539710804749E-3));
#1279=CARTESIAN_POINT('',(1.012231421996E-2,1.340055023089E-2,
3.526368702322E-3));
#1280=CARTESIAN_POINT('',(1.012231421996E-2,1.365263944580E-2,
3.274629309864E-3));
#1281=CARTESIAN_POINT('',(1.012231421996E-2,1.390454768935E-2,
3.022721067644E-3));
#1282=CARTESIAN_POINT('',(1.012231421996E-2,1.415628708303E-2,
2.770631854178E-3));
#1283=CARTESIAN_POINT('',(1.012231421996E-2,1.062992125984E-2,0.E0));
#1284=CARTESIAN_POINT('',(1.012231421996E-2,1.062992125984E-2,0.E0));
#1285=CARTESIAN_POINT('',(1.012231421996E-2,1.062992125984E-2,0.E0));
#1286=CARTESIAN_POINT('',(1.012231421996E-2,1.062992125984E-2,0.E0));
#1287=(BOUNDED_SURFACE()B_SPLINE_SURFACE(3,3,((#1271,#1272,#1273,#1274),(#1275,
#1276,#1277,#1278),(#1279,#1280,#1281,#1282),(#1283,#1284,#1285,#1286)),
.UNSPECIFIED.,.F.,.F.,.F.)B_SPLINE_SURFACE_WITH_KNOTS((4,4),(4,4),(
-1.016330664172E-2,1.E0),(-1.006642915921E-2,1.010062540174E0),.UNSPECIFIED.)GEOMETRIC_REPRESENTATION_ITEM()RATIONAL_B_SPLINE_SURFACE(((1.000398226947E0,
9.868120950067E-1,9.868120432131E-1,1.000398071566E0),(1.000136729168E0,
9.954720008386E-1,9.954719830556E-1,1.000136675819E0),(9.999995298587E-1,
1.000015569461E0,1.000015569522E0,9.999995300421E-1),(1.E0,1.E0,1.E0,1.E0)))REPRESENTATION_ITEM('')SURFACE());
#1289=ORIENTED_EDGE('',*,*,#1288,.T.);
#1291=ORIENTED_EDGE('',*,*,#1290,.T.);
#1293=ORIENTED_EDGE('',*,*,#1292,.T.);
#1294=EDGE_LOOP('',(#1289,#1291,#1293));
#1295=FACE_OUTER_BOUND('',#1294,.F.);
#1298=FILL_AREA_STYLE_COLOUR('',#16);
#1299=FILL_AREA_STYLE('',(#1298));
#1300=SURFACE_STYLE_FILL_AREA(#1299);
#1301=SURFACE_SIDE_STYLE('',(#1300));
#1302=SURFACE_STYLE_USAGE(.BOTH.,#1301);
#1303=PRESENTATION_STYLE_ASSIGNMENT((#1302));
#1242=STYLED_ITEM('',(#1303),#1297);
#1305=CARTESIAN_POINT('',(1.012231421996E-2,1.062992125984E-2,0.E0));
#1306=CARTESIAN_POINT('',(1.012231421996E-2,1.338006246409E-2,
3.483512192057E-3));
#1307=CARTESIAN_POINT('',(1.050890376669E-2,1.612932438063E-2,
6.965910619528E-3));
#1308=CARTESIAN_POINT('',(1.126728647740E-2,1.877274082224E-2,
1.031423811236E-2));
#1310=CURVE_STYLE('',#28,POSITIVE_LENGTH_MEASURE(2.E-2),#16);
#1311=PRESENTATION_STYLE_ASSIGNMENT((#1310));
#1312=STYLED_ITEM('',(#1311),#1309);
#1313=CARTESIAN_POINT('',(1.126728647740E-2,1.877274082224E-2,
1.031423811236E-2));
#1314=CARTESIAN_POINT('',(1.136509619390E-2,1.911366606897E-2,
9.945251756237E-3));
#1315=CARTESIAN_POINT('',(1.146574961853E-2,1.982998106514E-2,
9.200059805296E-3));
#1316=CARTESIAN_POINT('',(1.136509619390E-2,2.057517301608E-2,
8.483744809130E-3));
#1317=CARTESIAN_POINT('',(1.126728647740E-2,2.094415937220E-2,
8.142819562402E-3));
#1319=CURVE_STYLE('',#28,POSITIVE_LENGTH_MEASURE(2.E-2),#16);
#1320=PRESENTATION_STYLE_ASSIGNMENT((#1319));
#1321=STYLED_ITEM('',(#1320),#1318);
#1322=CARTESIAN_POINT('',(1.126728647740E-2,2.094415937220E-2,
8.142819562402E-3));
#1323=CARTESIAN_POINT('',(1.050890376669E-2,1.759583187937E-2,
5.499403120787E-3));
#1324=CARTESIAN_POINT('',(1.012231421996E-2,1.411343345189E-2,
2.750141204256E-3));
#1325=CARTESIAN_POINT('',(1.012231421996E-2,1.062992125984E-2,0.E0));
#1327=CURVE_STYLE('',#28,POSITIVE_LENGTH_MEASURE(2.E-2),#16);
#1328=PRESENTATION_STYLE_ASSIGNMENT((#1327));
#1329=STYLED_ITEM('',(#1328),#1326);
#1330=VERTEX_POINT('',#1308);
#1331=VERTEX_POINT('',#1305);
#1332=VERTEX_POINT('',#1317);
#1333=CARTESIAN_POINT('',(1.128444386821E-2,1.883255740395E-2,
1.043879749447E-2));
#1334=CARTESIAN_POINT('',(1.149467341645E-2,1.954233890290E-2,
9.668072786761E-3));
#1335=CARTESIAN_POINT('',(1.149467422892E-2,2.029798530653E-2,
8.912426147595E-3));
#1336=CARTESIAN_POINT('',(1.128444623989E-2,2.106871005944E-2,
8.202644151458E-3));
#1337=CARTESIAN_POINT('',(1.051438499316E-2,1.616962604323E-2,
7.050732849375E-3));
#1338=CARTESIAN_POINT('',(1.059721161696E-2,1.669858555745E-2,
6.574704376647E-3));
#1339=CARTESIAN_POINT('',(1.059721193419E-2,1.720461995499E-2,
6.068670181839E-3));
#1340=CARTESIAN_POINT('',(1.051438593600E-2,1.768064869039E-2,
5.539710804749E-3));
#1341=CARTESIAN_POINT('',(1.012231421996E-2,1.340055023089E-2,
3.526368702322E-3));
#1342=CARTESIAN_POINT('',(1.012231421996E-2,1.365263944580E-2,
3.274629309864E-3));
#1343=CARTESIAN_POINT('',(1.012231421996E-2,1.390454768935E-2,
3.022721067644E-3));
#1344=CARTESIAN_POINT('',(1.012231421996E-2,1.415628708303E-2,
2.770631854178E-3));
#1345=CARTESIAN_POINT('',(1.012231421996E-2,1.062992125984E-2,0.E0));
#1346=CARTESIAN_POINT('',(1.012231421996E-2,1.062992125984E-2,0.E0));
#1347=CARTESIAN_POINT('',(1.012231421996E-2,1.062992125984E-2,0.E0));
#1348=CARTESIAN_POINT('',(1.012231421996E-2,1.062992125984E-2,0.E0));
#1349=(BOUNDED_SURFACE()B_SPLINE_SURFACE(3,3,((#1333,#1334,#1335,#1336),(#1337,
#1338,#1339,#1340),(#1341,#1342,#1343,#1344),(#1345,#1346,#1347,#1348)),
.UNSPECIFIED.,.F.,.F.,.F.)B_SPLINE_SURFACE_WITH_KNOTS((4,4),(4,4),(
-1.016330664172E-2,1.E0),(-1.006642915921E-2,1.010062540174E0),.UNSPECIFIED.)GEOMETRIC_REPRESENTATION_ITEM()RATIONAL_B_SPLINE_SURFACE(((1.000398226947E0,
9.868120950067E-1,9.868120432131E-1,1.000398071566E0),(1.000136729168E0,
9.954720008386E-1,9.954719830556E-1,1.000136675819E0),(9.999995298587E-1,
1.000015569461E0,1.000015569522E0,9.999995300421E-1),(1.E0,1.E0,1.E0,1.E0)))REPRESENTATION_ITEM('')SURFACE());
#1351=ORIENTED_EDGE('',*,*,#1350,.T.);
#1353=ORIENTED_EDGE('',*,*,#1352,.T.);
#1355=ORIENTED_EDGE('',*,*,#1354,.T.);
#1356=EDGE_LOOP('',(#1351,#1353,#1355));
#1357=FACE_OUTER_BOUND('',#1356,.F.);
#1360=FILL_AREA_STYLE_COLOUR('',#16);
#1361=FILL_AREA_STYLE('',(#1360));
#1362=SURFACE_STYLE_FILL_AREA(#1361);
#1363=SURFACE_SIDE_STYLE('',(#1362));
#1364=SURFACE_STYLE_USAGE(.BOTH.,#1363);
#1365=PRESENTATION_STYLE_ASSIGNMENT((#1364));
#1304=STYLED_ITEM('',(#1365),#1359);
#1367=PRESENTATION_LAYER_ASSIGNMENT('OPAQUE_240_204_134_','',(#1242,#1296,#1304,
#1358));
#1369=LENGTH_MEASURE_WITH_UNIT(LENGTH_MEASURE(2.54E1),#1368);
#1370=(CONVERSION_BASED_UNIT('INCH',#1369)LENGTH_UNIT()NAMED_UNIT(*));
#1372=PLANE_ANGLE_MEASURE_WITH_UNIT(PLANE_ANGLE_MEASURE(1.745329251994E-2),
#1371);
#1373=(CONVERSION_BASED_UNIT('DEGREE',#1372)NAMED_UNIT(*)PLANE_ANGLE_UNIT());
#1375=UNCERTAINTY_MEASURE_WITH_UNIT(LENGTH_MEASURE(3.711557871049E-6),#1370,
'closure',
'Maximum model space distance between geometric entities at asserted connectivities');
#1377=CARTESIAN_POINT('',(0.E0,0.E0,0.E0));
#1378=DIRECTION('',(0.E0,0.E0,1.E0));
#1379=DIRECTION('',(1.E0,0.E0,0.E0));
#1382=MECHANICAL_DESIGN_GEOMETRIC_PRESENTATION_REPRESENTATION('',(#31,#39,#46,
#56,#63,#73,#87,#97,#107,#117,#127,#135,#145,#152,#162,#169,#177,#185,#193,#207,
#215,#223,#231,#239,#246,#256,#263,#273,#283,#293,#301,#309,#319,#326,#336,#343,
#351,#359,#373,#383,#391,#399,#409,#417,#425,#433,#443,#453,#467,#481,#495,#505,
#513,#521,#531,#545,#553,#561,#569,#583,#655,#685,#713,#742,#762,#793,#816,#837,
#866,#892,#922,#945,#976,#998,#1018,#1042,#1072,#1102,#1133,#1154,#1184,#1204,
#1234,#22,#1250,#1259,#1267,#1242,#1312,#1321,#1329,#1304),#1376);
#1383=APPLICATION_CONTEXT('automotive design');
#1384=APPLICATION_PROTOCOL_DEFINITION('international standard',
'config_control_design',1994,#1383);
#1385=PRODUCT_DEFINITION_CONTEXT('',#1383,'design');
#1386=PRODUCT_CONTEXT('',#1383,'mechanical');
#1387=PRODUCT('BODY1-4185','BODY1-4185','NOT SPECIFIED',(#1386));
#1388=PRODUCT_DEFINITION_FORMATION_WITH_SPECIFIED_SOURCE('1','LAST_VERSION',
#1387,.MADE.);
#1396=LENGTH_MEASURE_WITH_UNIT(LENGTH_MEASURE(2.54E1),#1395);
#1397=(CONVERSION_BASED_UNIT('INCH',#1396)LENGTH_UNIT()NAMED_UNIT(*));
#1398=DERIVED_UNIT_ELEMENT(#1397,2.E0);
#1399=AREA_UNIT((#1398));
#1400=MEASURE_REPRESENTATION_ITEM('surface area measure',AREA_MEASURE(
1.533355021214E0),#1399);
#1405=LENGTH_MEASURE_WITH_UNIT(LENGTH_MEASURE(2.54E1),#1404);
#1406=(CONVERSION_BASED_UNIT('INCH',#1405)LENGTH_UNIT()NAMED_UNIT(*));
#1407=DERIVED_UNIT_ELEMENT(#1406,2.E0);
#1408=AREA_UNIT((#1407));
#1409=MEASURE_REPRESENTATION_ITEM('surface area measure',AREA_MEASURE(
1.533355021214E0),#1408);
#1=DRAUGHTING_PRE_DEFINED_COLOUR('white');
#2=DRAUGHTING_PRE_DEFINED_COLOUR('green');
#3=COLOUR_RGB('',1.1E-2,1.2E-2,1.E0);
#4=COLOUR_RGB('',1.921568627451E-1,1.921568627451E-1,1.921568627451E-1);
#5=COLOUR_RGB('',2.352941176471E-1,2.352941176471E-1,2.352941176471E-1);
#6=COLOUR_RGB('',3.137254901961E-1,3.137254901961E-1,3.137254901961E-1);
#7=COLOUR_RGB('',4.1E-1,2.61589E-1,1.12848E-1);
#8=COLOUR_RGB('',5.04854E-1,1.5455E-2,1.5455E-2);
#9=COLOUR_RGB('',6.274509803922E-1,6.274509803922E-1,6.274509803922E-1);
#10=COLOUR_RGB('',6.35294E-1,6.86275E-1,7.4902E-1);
#11=COLOUR_RGB('',6.40777E-1,6.40777E-1,6.40777E-1);
#12=COLOUR_RGB('',6.69062E-1,6.69903E-1,6.55217E-1);
#13=COLOUR_RGB('',8.313725490196E-1,0.E0,0.E0);
#14=COLOUR_RGB('',8.666666666667E-1,8.666666666667E-1,8.666666666667E-1);
#15=COLOUR_RGB('',9.21569E-1,7.05882E-1,4.70588E-1);
#16=COLOUR_RGB('',9.411764705882E-1,8.E-1,5.254901960784E-1);
#17=DRAUGHTING_PRE_DEFINED_COLOUR('red');
#18=DRAUGHTING_PRE_DEFINED_COLOUR('yellow');
#19=COLOUR_RGB('',1.E0,1.E0,5.3E-1);
#20=COLOUR_RGB('',1.E0,1.E0,9.49E-1);
#21=DRAUGHTING_PRE_DEFINED_COLOUR('white');
#27=B_SPLINE_CURVE_WITH_KNOTS('',3,(#23,#24,#25,#26),.UNSPECIFIED.,.F.,.F.,(4,
4),(0.E0,1.E0),.UNSPECIFIED.);
#36=B_SPLINE_CURVE_WITH_KNOTS('',3,(#32,#33,#34,#35),.UNSPECIFIED.,.F.,.F.,(4,
4),(0.E0,1.E0),.UNSPECIFIED.);
#53=B_SPLINE_CURVE_WITH_KNOTS('',3,(#47,#48,#49,#50,#51,#52),.UNSPECIFIED.,.F.,
.F.,(4,1,1,4),(0.E0,3.333333333333E-1,6.666666666667E-1,1.E0),.UNSPECIFIED.);
#70=B_SPLINE_CURVE_WITH_KNOTS('',3,(#64,#65,#66,#67,#68,#69),.UNSPECIFIED.,.F.,
.F.,(4,1,1,4),(0.E0,3.333333333333E-1,6.666666666667E-1,1.E0),.UNSPECIFIED.);
#84=B_SPLINE_CURVE_WITH_KNOTS('',3,(#74,#75,#76,#77,#78,#79,#80,#81,#82,#83),
.UNSPECIFIED.,.F.,.F.,(4,1,1,1,1,1,1,4),(0.E0,1.428571428571E-1,
2.857142857143E-1,4.285714285714E-1,5.714285714286E-1,7.142857142857E-1,
8.571428571429E-1,1.E0),.UNSPECIFIED.);
#94=B_SPLINE_CURVE_WITH_KNOTS('',3,(#88,#89,#90,#91,#92,#93),.UNSPECIFIED.,.F.,
.F.,(4,1,1,4),(0.E0,3.333333333333E-1,6.666666666667E-1,1.E0),.UNSPECIFIED.);
#104=B_SPLINE_CURVE_WITH_KNOTS('',3,(#98,#99,#100,#101,#102,#103),.UNSPECIFIED.,
.F.,.F.,(4,1,1,4),(0.E0,3.333333333333E-1,6.666666666667E-1,1.E0),
.UNSPECIFIED.);
#114=B_SPLINE_CURVE_WITH_KNOTS('',3,(#108,#109,#110,#111,#112,#113),
.UNSPECIFIED.,.F.,.F.,(4,1,1,4),(0.E0,3.333333333333E-1,6.666666666667E-1,1.E0),
.UNSPECIFIED.);
#124=B_SPLINE_CURVE_WITH_KNOTS('',3,(#118,#119,#120,#121,#122,#123),
.UNSPECIFIED.,.F.,.F.,(4,1,1,4),(0.E0,3.333333333333E-1,6.666666666667E-1,1.E0),
.UNSPECIFIED.);
#132=B_SPLINE_CURVE_WITH_KNOTS('',3,(#128,#129,#130,#131),.UNSPECIFIED.,.F.,.F.,
(4,4),(0.E0,1.E0),.UNSPECIFIED.);
#142=B_SPLINE_CURVE_WITH_KNOTS('',3,(#136,#137,#138,#139,#140,#141),
.UNSPECIFIED.,.F.,.F.,(4,1,1,4),(0.E0,3.333333333333E-1,6.666666666667E-1,1.E0),
.UNSPECIFIED.);
#159=B_SPLINE_CURVE_WITH_KNOTS('',3,(#153,#154,#155,#156,#157,#158),
.UNSPECIFIED.,.F.,.F.,(4,1,1,4),(0.E0,3.333333333333E-1,6.666666666667E-1,1.E0),
.UNSPECIFIED.);
#174=CIRCLE('',#173,2.952755905512E-2);
#182=CIRCLE('',#181,2.952755905512E-2);
#190=CIRCLE('',#189,2.952755905512E-2);
#204=B_SPLINE_CURVE_WITH_KNOTS('',3,(#194,#195,#196,#197,#198,#199,#200,#201,
#202,#203),.UNSPECIFIED.,.F.,.F.,(4,1,1,1,1,1,1,4),(0.E0,1.428571428571E-1,
2.857142857143E-1,4.285714285714E-1,5.714285714286E-1,7.142857142857E-1,
8.571428571429E-1,1.E0),.UNSPECIFIED.);
#212=B_SPLINE_CURVE_WITH_KNOTS('',3,(#208,#209,#210,#211),.UNSPECIFIED.,.F.,.F.,
(4,4),(0.E0,1.E0),.UNSPECIFIED.);
#220=B_SPLINE_CURVE_WITH_KNOTS('',3,(#216,#217,#218,#219),.UNSPECIFIED.,.F.,.F.,
(4,4),(0.E0,1.E0),.UNSPECIFIED.);
#228=CIRCLE('',#227,2.952755905512E-2);
#236=CIRCLE('',#235,2.952755905512E-2);
#253=B_SPLINE_CURVE_WITH_KNOTS('',3,(#247,#248,#249,#250,#251,#252),
.UNSPECIFIED.,.F.,.F.,(4,1,1,4),(0.E0,3.333333333333E-1,6.666666666667E-1,1.E0),
.UNSPECIFIED.);
#270=B_SPLINE_CURVE_WITH_KNOTS('',3,(#264,#265,#266,#267,#268,#269),
.UNSPECIFIED.,.F.,.F.,(4,1,1,4),(0.E0,3.333333333333E-1,6.666666666667E-1,1.E0),
.UNSPECIFIED.);
#280=B_SPLINE_CURVE_WITH_KNOTS('',3,(#274,#275,#276,#277,#278,#279),
.UNSPECIFIED.,.F.,.F.,(4,1,1,4),(0.E0,3.333333333333E-1,6.666666666667E-1,1.E0),
.UNSPECIFIED.);
#290=B_SPLINE_CURVE_WITH_KNOTS('',3,(#284,#285,#286,#287,#288,#289),
.UNSPECIFIED.,.F.,.F.,(4,1,1,4),(0.E0,3.333333333333E-1,6.666666666667E-1,1.E0),
.UNSPECIFIED.);
#298=B_SPLINE_CURVE_WITH_KNOTS('',3,(#294,#295,#296,#297),.UNSPECIFIED.,.F.,.F.,
(4,4),(0.E0,1.E0),.UNSPECIFIED.);
#306=B_SPLINE_CURVE_WITH_KNOTS('',3,(#302,#303,#304,#305),.UNSPECIFIED.,.F.,.F.,
(4,4),(0.E0,1.E0),.UNSPECIFIED.);
#316=B_SPLINE_CURVE_WITH_KNOTS('',3,(#310,#311,#312,#313,#314,#315),
.UNSPECIFIED.,.F.,.F.,(4,1,1,4),(0.E0,3.333333333333E-1,6.666666666667E-1,1.E0),
.UNSPECIFIED.);
#333=B_SPLINE_CURVE_WITH_KNOTS('',3,(#327,#328,#329,#330,#331,#332),
.UNSPECIFIED.,.F.,.F.,(4,1,1,4),(0.E0,3.333333333333E-1,6.666666666667E-1,1.E0),
.UNSPECIFIED.);
#348=B_SPLINE_CURVE_WITH_KNOTS('',3,(#344,#345,#346,#347),.UNSPECIFIED.,.F.,.F.,
(4,4),(0.E0,1.E0),.UNSPECIFIED.);
#356=B_SPLINE_CURVE_WITH_KNOTS('',3,(#352,#353,#354,#355),.UNSPECIFIED.,.F.,.F.,
(4,4),(0.E0,1.E0),.UNSPECIFIED.);
#370=B_SPLINE_CURVE_WITH_KNOTS('',3,(#360,#361,#362,#363,#364,#365,#366,#367,
#368,#369),.UNSPECIFIED.,.F.,.F.,(4,1,1,1,1,1,1,4),(0.E0,1.428571428571E-1,
2.857142857143E-1,4.285714285714E-1,5.714285714286E-1,7.142857142857E-1,
8.571428571429E-1,1.E0),.UNSPECIFIED.);
#380=B_SPLINE_CURVE_WITH_KNOTS('',3,(#374,#375,#376,#377,#378,#379),
.UNSPECIFIED.,.F.,.F.,(4,1,1,4),(0.E0,3.333333333333E-1,6.666666666667E-1,1.E0),
.UNSPECIFIED.);
#388=B_SPLINE_CURVE_WITH_KNOTS('',3,(#384,#385,#386,#387),.UNSPECIFIED.,.F.,.F.,
(4,4),(0.E0,1.E0),.UNSPECIFIED.);
#396=B_SPLINE_CURVE_WITH_KNOTS('',3,(#392,#393,#394,#395),.UNSPECIFIED.,.F.,.F.,
(4,4),(0.E0,1.E0),.UNSPECIFIED.);
#406=B_SPLINE_CURVE_WITH_KNOTS('',3,(#400,#401,#402,#403,#404,#405),
.UNSPECIFIED.,.F.,.F.,(4,1,1,4),(0.E0,3.333333333333E-1,6.666666666667E-1,1.E0),
.UNSPECIFIED.);
#414=CIRCLE('',#413,2.952755905512E-2);
#422=CIRCLE('',#421,2.952755905512E-2);
#430=B_SPLINE_CURVE_WITH_KNOTS('',3,(#426,#427,#428,#429),.UNSPECIFIED.,.F.,.F.,
(4,4),(0.E0,1.E0),.UNSPECIFIED.);
#440=B_SPLINE_CURVE_WITH_KNOTS('',3,(#434,#435,#436,#437,#438,#439),
.UNSPECIFIED.,.F.,.F.,(4,1,1,4),(0.E0,3.333333333333E-1,6.666666666667E-1,1.E0),
.UNSPECIFIED.);
#450=B_SPLINE_CURVE_WITH_KNOTS('',3,(#444,#445,#446,#447,#448,#449),
.UNSPECIFIED.,.F.,.F.,(4,1,1,4),(0.E0,3.333333333333E-1,6.666666666667E-1,1.E0),
.UNSPECIFIED.);
#464=B_SPLINE_CURVE_WITH_KNOTS('',3,(#454,#455,#456,#457,#458,#459,#460,#461,
#462,#463),.UNSPECIFIED.,.F.,.F.,(4,1,1,1,1,1,1,4),(0.E0,1.428571428571E-1,
2.857142857143E-1,4.285714285714E-1,5.714285714286E-1,7.142857142857E-1,
8.571428571429E-1,1.E0),.UNSPECIFIED.);
#478=B_SPLINE_CURVE_WITH_KNOTS('',3,(#468,#469,#470,#471,#472,#473,#474,#475,
#476,#477),.UNSPECIFIED.,.F.,.F.,(4,1,1,1,1,1,1,4),(0.E0,1.428571428571E-1,
2.857142857143E-1,4.285714285714E-1,5.714285714286E-1,7.142857142857E-1,
8.571428571429E-1,1.E0),.UNSPECIFIED.);
#492=B_SPLINE_CURVE_WITH_KNOTS('',3,(#482,#483,#484,#485,#486,#487,#488,#489,
#490,#491),.UNSPECIFIED.,.F.,.F.,(4,1,1,1,1,1,1,4),(0.E0,1.428571428571E-1,
2.857142857143E-1,4.285714285714E-1,5.714285714286E-1,7.142857142857E-1,
8.571428571429E-1,1.E0),.UNSPECIFIED.);
#502=B_SPLINE_CURVE_WITH_KNOTS('',3,(#496,#497,#498,#499,#500,#501),
.UNSPECIFIED.,.F.,.F.,(4,1,1,4),(0.E0,3.333333333333E-1,6.666666666667E-1,1.E0),
.UNSPECIFIED.);
#510=B_SPLINE_CURVE_WITH_KNOTS('',3,(#506,#507,#508,#509),.UNSPECIFIED.,.F.,.F.,
(4,4),(0.E0,1.E0),.UNSPECIFIED.);
#518=B_SPLINE_CURVE_WITH_KNOTS('',3,(#514,#515,#516,#517),.UNSPECIFIED.,.F.,.F.,
(4,4),(0.E0,1.E0),.UNSPECIFIED.);
#528=B_SPLINE_CURVE_WITH_KNOTS('',3,(#522,#523,#524,#525,#526,#527),
.UNSPECIFIED.,.F.,.F.,(4,1,1,4),(0.E0,3.333333333333E-1,6.666666666667E-1,1.E0),
.UNSPECIFIED.);
#542=B_SPLINE_CURVE_WITH_KNOTS('',3,(#532,#533,#534,#535,#536,#537,#538,#539,
#540,#541),.UNSPECIFIED.,.F.,.F.,(4,1,1,1,1,1,1,4),(0.E0,1.428571428571E-1,
2.857142857143E-1,4.285714285714E-1,5.714285714286E-1,7.142857142857E-1,
8.571428571429E-1,1.E0),.UNSPECIFIED.);
#550=CIRCLE('',#549,2.952755905512E-2);
#558=CIRCLE('',#557,2.952755905512E-2);
#566=CIRCLE('',#565,2.952755905512E-2);
#580=B_SPLINE_CURVE_WITH_KNOTS('',3,(#570,#571,#572,#573,#574,#575,#576,#577,
#578,#579),.UNSPECIFIED.,.F.,.F.,(4,1,1,1,1,1,1,4),(0.E0,1.428571428571E-1,
2.857142857143E-1,4.285714285714E-1,5.714285714286E-1,7.142857142857E-1,
8.571428571429E-1,1.E0),.UNSPECIFIED.);
#636=EDGE_CURVE('',#589,#590,#53,.T.);
#638=EDGE_CURVE('',#590,#593,#182,.T.);
#640=EDGE_CURVE('',#593,#592,#142,.T.);
#642=EDGE_CURVE('',#591,#592,#27,.T.);
#644=EDGE_CURVE('',#589,#591,#36,.T.);
#648=ADVANCED_FACE('',(#647),#635,.F.);
#661=EDGE_CURVE('',#584,#594,#104,.T.);
#663=EDGE_CURVE('',#590,#594,#43,.T.);
#666=EDGE_CURVE('',#589,#598,#478,.T.);
#668=EDGE_CURVE('',#598,#597,#380,.T.);
#670=EDGE_CURVE('',#595,#597,#60,.T.);
#672=EDGE_CURVE('',#585,#595,#70,.T.);
#674=EDGE_CURVE('',#585,#584,#84,.T.);
#678=ADVANCED_FACE('',(#677),#660,.T.);
#691=EDGE_CURVE('',#613,#620,#94,.T.);
#693=EDGE_CURVE('',#613,#614,#174,.T.);
#695=EDGE_CURVE('',#614,#594,#190,.T.);
#698=EDGE_CURVE('',#584,#588,#114,.T.);
#700=EDGE_CURVE('',#588,#587,#124,.T.);
#702=EDGE_CURVE('',#620,#587,#132,.T.);
#706=ADVANCED_FACE('',(#705),#690,.F.);
#720=EDGE_CURVE('',#613,#593,#149,.T.);
#723=EDGE_CURVE('',#620,#619,#204,.T.);
#725=EDGE_CURVE('',#618,#619,#159,.T.);
#727=EDGE_CURVE('',#616,#618,#166,.T.);
#729=EDGE_CURVE('',#616,#615,#528,.T.);
#731=EDGE_CURVE('',#615,#592,#542,.T.);
#735=ADVANCED_FACE('',(#734),#718,.T.);
#755=ADVANCED_FACE('',(#754),#747,.F.);
#782=EDGE_CURVE('',#587,#619,#212,.T.);
#786=ADVANCED_FACE('',(#785),#779,.T.);
#799=EDGE_CURVE('',#622,#618,#236,.T.);
#803=EDGE_CURVE('',#623,#587,#220,.T.);
#805=EDGE_CURVE('',#623,#622,#270,.T.);
#809=ADVANCED_FACE('',(#808),#798,.F.);
#822=EDGE_CURVE('',#622,#627,#260,.T.);
#824=EDGE_CURVE('',#616,#627,#228,.T.);
#830=ADVANCED_FACE('',(#829),#821,.F.);
#843=EDGE_CURVE('',#624,#625,#290,.T.);
#845=EDGE_CURVE('',#609,#625,#243,.T.);
#847=EDGE_CURVE('',#610,#609,#253,.T.);
#849=EDGE_CURVE('',#610,#628,#492,.T.);
#851=EDGE_CURVE('',#628,#627,#502,.T.);
#855=EDGE_CURVE('',#623,#624,#580,.T.);
#859=ADVANCED_FACE('',(#858),#842,.T.);
#872=EDGE_CURVE('',#607,#606,#280,.T.);
#874=EDGE_CURVE('',#607,#630,#550,.T.);
#876=EDGE_CURVE('',#630,#625,#566,.T.);
#879=EDGE_CURVE('',#587,#624,#298,.T.);
#881=EDGE_CURVE('',#606,#587,#306,.T.);
#885=ADVANCED_FACE('',(#884),#871,.F.);
#898=EDGE_CURVE('',#602,#603,#316,.T.);
#900=EDGE_CURVE('',#607,#602,#323,.T.);
#903=EDGE_CURVE('',#606,#601,#464,.T.);
#905=EDGE_CURVE('',#600,#601,#333,.T.);
#907=EDGE_CURVE('',#605,#600,#340,.T.);
#909=EDGE_CURVE('',#605,#604,#406,.T.);
#911=EDGE_CURVE('',#604,#603,#370,.T.);
#915=ADVANCED_FACE('',(#914),#897,.T.);
#929=EDGE_CURVE('',#591,#603,#348,.T.);
#931=EDGE_CURVE('',#610,#591,#356,.T.);
#934=EDGE_CURVE('',#609,#602,#558,.T.);
#938=ADVANCED_FACE('',(#937),#927,.F.);
#965=EDGE_CURVE('',#604,#591,#396,.T.);
#969=ADVANCED_FACE('',(#968),#962,.T.);
#982=EDGE_CURVE('',#605,#597,#422,.T.);
#985=EDGE_CURVE('',#591,#598,#388,.T.);
#991=ADVANCED_FACE('',(#990),#981,.F.);
#1004=EDGE_CURVE('',#595,#600,#414,.T.);
#1011=ADVANCED_FACE('',(#1010),#1003,.T.);
#1026=EDGE_CURVE('',#587,#601,#430,.T.);
#1028=EDGE_CURVE('',#587,#586,#440,.T.);
#1030=EDGE_CURVE('',#586,#585,#450,.T.);
#1035=ADVANCED_FACE('',(#1034),#1023,.F.);
#1065=ADVANCED_FACE('',(#1064),#1059,.T.);
#1095=ADVANCED_FACE('',(#1094),#1089,.T.);
#1122=EDGE_CURVE('',#591,#628,#510,.T.);
#1126=ADVANCED_FACE('',(#1125),#1119,.T.);
#1142=EDGE_CURVE('',#615,#591,#518,.T.);
#1147=ADVANCED_FACE('',(#1146),#1138,.F.);
#1177=ADVANCED_FACE('',(#1176),#1171,.T.);
#1197=ADVANCED_FACE('',(#1196),#1189,.F.);
#1227=ADVANCED_FACE('',(#1226),#1221,.T.);
#1235=OPEN_SHELL('',(#648,#678,#706,#735,#755,#786,#809,#830,#859,#885,#915,
#938,#969,#991,#1011,#1035,#1065,#1095,#1126,#1147,#1177,#1197,#1227));
#1247=B_SPLINE_CURVE_WITH_KNOTS('',3,(#1243,#1244,#1245,#1246),.UNSPECIFIED.,
.F.,.F.,(4,4),(0.E0,1.E0),.UNSPECIFIED.);
#1256=B_SPLINE_CURVE_WITH_KNOTS('',3,(#1251,#1252,#1253,#1254,#1255),
.UNSPECIFIED.,.F.,.F.,(4,1,4),(0.E0,5.E-1,1.E0),.UNSPECIFIED.);
#1264=B_SPLINE_CURVE_WITH_KNOTS('',3,(#1260,#1261,#1262,#1263),.UNSPECIFIED.,
.F.,.F.,(4,4),(0.E0,1.E0),.UNSPECIFIED.);
#1288=EDGE_CURVE('',#1269,#1268,#1247,.T.);
#1290=EDGE_CURVE('',#1268,#1270,#1256,.T.);
#1292=EDGE_CURVE('',#1270,#1269,#1264,.T.);
#1296=ADVANCED_FACE('',(#1295),#1287,.T.);
#1297=OPEN_SHELL('',(#1296));
#1309=B_SPLINE_CURVE_WITH_KNOTS('',3,(#1305,#1306,#1307,#1308),.UNSPECIFIED.,
.F.,.F.,(4,4),(0.E0,1.E0),.UNSPECIFIED.);
#1318=B_SPLINE_CURVE_WITH_KNOTS('',3,(#1313,#1314,#1315,#1316,#1317),
.UNSPECIFIED.,.F.,.F.,(4,1,4),(0.E0,5.E-1,1.E0),.UNSPECIFIED.);
#1326=B_SPLINE_CURVE_WITH_KNOTS('',3,(#1322,#1323,#1324,#1325),.UNSPECIFIED.,
.F.,.F.,(4,4),(0.E0,1.E0),.UNSPECIFIED.);
#1350=EDGE_CURVE('',#1331,#1330,#1309,.T.);
#1352=EDGE_CURVE('',#1330,#1332,#1318,.T.);
#1354=EDGE_CURVE('',#1332,#1331,#1326,.T.);
#1358=ADVANCED_FACE('',(#1357),#1349,.T.);
#1359=OPEN_SHELL('',(#1358));
#1366=SHELL_BASED_SURFACE_MODEL('',(#1235,#1297,#1359));
#1368=(LENGTH_UNIT()NAMED_UNIT(*)SI_UNIT(.MILLI.,.METRE.));
#1371=(NAMED_UNIT(*)PLANE_ANGLE_UNIT()SI_UNIT($,.RADIAN.));
#1374=(NAMED_UNIT(*)SI_UNIT($,.STERADIAN.)SOLID_ANGLE_UNIT());
#1376=(GEOMETRIC_REPRESENTATION_CONTEXT(3)GLOBAL_UNCERTAINTY_ASSIGNED_CONTEXT((
#1375))GLOBAL_UNIT_ASSIGNED_CONTEXT((#1370,#1373,#1374))REPRESENTATION_CONTEXT(
'ID1','3'));
#1380=AXIS2_PLACEMENT_3D('',#1377,#1378,#1379);
#1381=MANIFOLD_SURFACE_SHAPE_REPRESENTATION('',(#1380,#1366),#1376);
#1389=PRODUCT_DEFINITION('design','',#1388,#1385);
#1390=PRODUCT_DEFINITION_SHAPE('','SHAPE FOR BODY1-4185.',#1389);
#1391=SHAPE_ASPECT('','surface data associated with BODY1-4185',#1390,.F.);
#1392=PROPERTY_DEFINITION('',
'shape for surface data with which properties are associated',#1391);
#1393=SHAPE_REPRESENTATION('',(#1366),#1376);
#1394=SHAPE_DEFINITION_REPRESENTATION(#1392,#1393);
#1395=(LENGTH_UNIT()NAMED_UNIT(*)SI_UNIT(.MILLI.,.METRE.));
#1401=PROPERTY_DEFINITION('geometric validation property','area of BODY1-4185',
#1391);
#1402=REPRESENTATION('surface area',(#1400),#1376);
#1403=PROPERTY_DEFINITION_REPRESENTATION(#1401,#1402);
#1404=(LENGTH_UNIT()NAMED_UNIT(*)SI_UNIT(.MILLI.,.METRE.));
#1410=PROPERTY_DEFINITION('geometric validation property','area of BODY1-4185',
#1390);
#1411=REPRESENTATION('surface area',(#1409),#1376);
#1412=PROPERTY_DEFINITION_REPRESENTATION(#1410,#1411);
#1413=SHAPE_DEFINITION_REPRESENTATION(#1390,#1381);
ENDSEC;
END-ISO-10303-21;
