ISO-10303-21;
HEADER;
FILE_DESCRIPTION((''),'2;1');
FILE_NAME('BODY2-219','2026-06-15T13:45:20',('Esia'),(''),
'CREO PARAMETRIC BY PTC INC, 2025102','CREO PARAMETRIC BY PTC INC, 2025102','');
FILE_SCHEMA((
'AP242_MANAGED_MODEL_BASED_3D_ENGINEERING_MIM_LF { 1 0 10303 442 1 1 4 }'));
ENDSEC;
DATA;
#20=CARTESIAN_POINT('',(0.E0,0.E0,3.125E-2));
#21=DIRECTION('',(0.E0,0.E0,1.E0));
#22=DIRECTION('',(-1.E0,0.E0,0.E0));
#23=AXIS2_PLACEMENT_3D('',#20,#21,#22);
#25=DRAUGHTING_PRE_DEFINED_CURVE_FONT('continuous');
#26=CURVE_STYLE('',#25,POSITIVE_LENGTH_MEASURE(2.E-2),#1);
#27=PRESENTATION_STYLE_ASSIGNMENT((#26));
#28=STYLED_ITEM('',(#27),#24);
#29=CARTESIAN_POINT('',(0.E0,0.E0,-3.125E-2));
#30=DIRECTION('',(0.E0,0.E0,-1.E0));
#31=DIRECTION('',(1.E0,0.E0,0.E0));
#32=AXIS2_PLACEMENT_3D('',#29,#30,#31);
#34=CURVE_STYLE('',#25,POSITIVE_LENGTH_MEASURE(2.E-2),#1);
#35=PRESENTATION_STYLE_ASSIGNMENT((#34));
#36=STYLED_ITEM('',(#35),#33);
#37=DIRECTION('',(0.E0,0.E0,1.E0));
#38=VECTOR('',#37,3.90625E-2);
#39=CARTESIAN_POINT('',(1.018200549451E-1,0.E0,3.125E-2));
#40=LINE('',#39,#38);
#41=CURVE_STYLE('',#25,POSITIVE_LENGTH_MEASURE(2.E-2),#1);
#42=PRESENTATION_STYLE_ASSIGNMENT((#41));
#43=STYLED_ITEM('',(#42),#40);
#44=DIRECTION('',(0.E0,0.E0,1.E0));
#45=VECTOR('',#44,3.90625E-2);
#46=CARTESIAN_POINT('',(-1.018200549451E-1,0.E0,3.125E-2));
#47=LINE('',#46,#45);
#48=CURVE_STYLE('',#25,POSITIVE_LENGTH_MEASURE(2.E-2),#1);
#49=PRESENTATION_STYLE_ASSIGNMENT((#48));
#50=STYLED_ITEM('',(#49),#47);
#51=CARTESIAN_POINT('',(0.E0,0.E0,7.03125E-2));
#52=DIRECTION('',(0.E0,0.E0,1.E0));
#53=DIRECTION('',(-1.E0,0.E0,0.E0));
#54=AXIS2_PLACEMENT_3D('',#51,#52,#53);
#56=CURVE_STYLE('',#25,POSITIVE_LENGTH_MEASURE(2.E-2),#1);
#57=PRESENTATION_STYLE_ASSIGNMENT((#56));
#58=STYLED_ITEM('',(#57),#55);
#59=CARTESIAN_POINT('',(0.E0,0.E0,7.03125E-2));
#60=DIRECTION('',(0.E0,0.E0,1.E0));
#61=DIRECTION('',(1.E0,0.E0,0.E0));
#62=AXIS2_PLACEMENT_3D('',#59,#60,#61);
#64=CURVE_STYLE('',#25,POSITIVE_LENGTH_MEASURE(2.E-2),#1);
#65=PRESENTATION_STYLE_ASSIGNMENT((#64));
#66=STYLED_ITEM('',(#65),#63);
#67=CARTESIAN_POINT('',(0.E0,0.E0,7.03125E-2));
#68=DIRECTION('',(0.E0,0.E0,-1.E0));
#69=DIRECTION('',(1.E0,0.E0,0.E0));
#70=AXIS2_PLACEMENT_3D('',#67,#68,#69);
#72=CURVE_STYLE('',#25,POSITIVE_LENGTH_MEASURE(2.E-2),#1);
#73=PRESENTATION_STYLE_ASSIGNMENT((#72));
#74=STYLED_ITEM('',(#73),#71);
#75=CARTESIAN_POINT('',(0.E0,0.E0,7.03125E-2));
#76=DIRECTION('',(0.E0,0.E0,-1.E0));
#77=DIRECTION('',(-1.E0,0.E0,0.E0));
#78=AXIS2_PLACEMENT_3D('',#75,#76,#77);
#80=CURVE_STYLE('',#25,POSITIVE_LENGTH_MEASURE(2.E-2),#1);
#81=PRESENTATION_STYLE_ASSIGNMENT((#80));
#82=STYLED_ITEM('',(#81),#79);
#83=CARTESIAN_POINT('',(0.E0,0.E0,6.328125E-2));
#84=DIRECTION('',(0.E0,0.E0,1.E0));
#85=DIRECTION('',(-1.E0,0.E0,0.E0));
#86=AXIS2_PLACEMENT_3D('',#83,#84,#85);
#88=CURVE_STYLE('',#25,POSITIVE_LENGTH_MEASURE(2.E-2),#1);
#89=PRESENTATION_STYLE_ASSIGNMENT((#88));
#90=STYLED_ITEM('',(#89),#87);
#91=CARTESIAN_POINT('',(0.E0,0.E0,-6.328125E-2));
#92=DIRECTION('',(0.E0,0.E0,-1.E0));
#93=DIRECTION('',(1.E0,0.E0,0.E0));
#94=AXIS2_PLACEMENT_3D('',#91,#92,#93);
#96=CURVE_STYLE('',#25,POSITIVE_LENGTH_MEASURE(2.E-2),#1);
#97=PRESENTATION_STYLE_ASSIGNMENT((#96));
#98=STYLED_ITEM('',(#97),#95);
#99=DIRECTION('',(-7.071067811865E-1,0.E0,-7.071067811865E-1));
#100=VECTOR('',#99,9.943689110436E-3);
#101=CARTESIAN_POINT('',(-6.25E-2,0.E0,-6.328125E-2));
#102=LINE('',#101,#100);
#103=CURVE_STYLE('',#25,POSITIVE_LENGTH_MEASURE(2.E-2),#1);
#104=PRESENTATION_STYLE_ASSIGNMENT((#103));
#105=STYLED_ITEM('',(#104),#102);
#106=CARTESIAN_POINT('',(0.E0,0.E0,-6.328125E-2));
#107=DIRECTION('',(0.E0,0.E0,-1.E0));
#108=DIRECTION('',(-1.E0,0.E0,0.E0));
#109=AXIS2_PLACEMENT_3D('',#106,#107,#108);
#111=CURVE_STYLE('',#25,POSITIVE_LENGTH_MEASURE(2.E-2),#1);
#112=PRESENTATION_STYLE_ASSIGNMENT((#111));
#113=STYLED_ITEM('',(#112),#110);
#114=DIRECTION('',(-7.071067811865E-1,0.E0,7.071067811865E-1));
#115=VECTOR('',#114,9.943689110436E-3);
#116=CARTESIAN_POINT('',(6.953125E-2,0.E0,-7.03125E-2));
#117=LINE('',#116,#115);
#118=CURVE_STYLE('',#25,POSITIVE_LENGTH_MEASURE(2.E-2),#1);
#119=PRESENTATION_STYLE_ASSIGNMENT((#118));
#120=STYLED_ITEM('',(#119),#117);
#121=DIRECTION('',(0.E0,0.E0,-1.E0));
#122=VECTOR('',#121,1.265625E-1);
#123=CARTESIAN_POINT('',(-6.25E-2,0.E0,6.328125E-2));
#124=LINE('',#123,#122);
#125=CURVE_STYLE('',#25,POSITIVE_LENGTH_MEASURE(2.E-2),#1);
#126=PRESENTATION_STYLE_ASSIGNMENT((#125));
#127=STYLED_ITEM('',(#126),#124);
#128=DIRECTION('',(0.E0,0.E0,1.E0));
#129=VECTOR('',#128,1.265625E-1);
#130=CARTESIAN_POINT('',(6.25E-2,0.E0,-6.328125E-2));
#131=LINE('',#130,#129);
#132=CURVE_STYLE('',#25,POSITIVE_LENGTH_MEASURE(2.E-2),#1);
#133=PRESENTATION_STYLE_ASSIGNMENT((#132));
#134=STYLED_ITEM('',(#133),#131);
#135=CARTESIAN_POINT('',(0.E0,0.E0,6.328125E-2));
#136=DIRECTION('',(0.E0,0.E0,1.E0));
#137=DIRECTION('',(1.E0,0.E0,0.E0));
#138=AXIS2_PLACEMENT_3D('',#135,#136,#137);
#140=CURVE_STYLE('',#25,POSITIVE_LENGTH_MEASURE(2.E-2),#1);
#141=PRESENTATION_STYLE_ASSIGNMENT((#140));
#142=STYLED_ITEM('',(#141),#139);
#143=DIRECTION('',(7.071067811865E-1,0.E0,-7.071067811865E-1));
#144=VECTOR('',#143,9.943689110436E-3);
#145=CARTESIAN_POINT('',(-6.953125E-2,0.E0,7.03125E-2));
#146=LINE('',#145,#144);
#147=CURVE_STYLE('',#25,POSITIVE_LENGTH_MEASURE(2.E-2),#1);
#148=PRESENTATION_STYLE_ASSIGNMENT((#147));
#149=STYLED_ITEM('',(#148),#146);
#150=DIRECTION('',(7.071067811865E-1,0.E0,7.071067811865E-1));
#151=VECTOR('',#150,9.943689110436E-3);
#152=CARTESIAN_POINT('',(6.25E-2,0.E0,6.328125E-2));
#153=LINE('',#152,#151);
#154=CURVE_STYLE('',#25,POSITIVE_LENGTH_MEASURE(2.E-2),#1);
#155=PRESENTATION_STYLE_ASSIGNMENT((#154));
#156=STYLED_ITEM('',(#155),#153);
#157=CARTESIAN_POINT('',(0.E0,0.E0,-7.03125E-2));
#158=DIRECTION('',(0.E0,0.E0,-1.E0));
#159=DIRECTION('',(1.E0,0.E0,0.E0));
#160=AXIS2_PLACEMENT_3D('',#157,#158,#159);
#162=CURVE_STYLE('',#25,POSITIVE_LENGTH_MEASURE(2.E-2),#1);
#163=PRESENTATION_STYLE_ASSIGNMENT((#162));
#164=STYLED_ITEM('',(#163),#161);
#165=CARTESIAN_POINT('',(0.E0,0.E0,-7.03125E-2));
#166=DIRECTION('',(0.E0,0.E0,-1.E0));
#167=DIRECTION('',(-1.E0,0.E0,0.E0));
#168=AXIS2_PLACEMENT_3D('',#165,#166,#167);
#170=CURVE_STYLE('',#25,POSITIVE_LENGTH_MEASURE(2.E-2),#1);
#171=PRESENTATION_STYLE_ASSIGNMENT((#170));
#172=STYLED_ITEM('',(#171),#169);
#173=CARTESIAN_POINT('',(0.E0,0.E0,-7.03125E-2));
#174=DIRECTION('',(0.E0,0.E0,1.E0));
#175=DIRECTION('',(1.E0,0.E0,0.E0));
#176=AXIS2_PLACEMENT_3D('',#173,#174,#175);
#178=CURVE_STYLE('',#25,POSITIVE_LENGTH_MEASURE(2.E-2),#1);
#179=PRESENTATION_STYLE_ASSIGNMENT((#178));
#180=STYLED_ITEM('',(#179),#177);
#181=CARTESIAN_POINT('',(0.E0,0.E0,-7.03125E-2));
#182=DIRECTION('',(0.E0,0.E0,1.E0));
#183=DIRECTION('',(-1.E0,0.E0,0.E0));
#184=AXIS2_PLACEMENT_3D('',#181,#182,#183);
#186=CURVE_STYLE('',#25,POSITIVE_LENGTH_MEASURE(2.E-2),#1);
#187=PRESENTATION_STYLE_ASSIGNMENT((#186));
#188=STYLED_ITEM('',(#187),#185);
#189=DIRECTION('',(0.E0,0.E0,1.E0));
#190=VECTOR('',#189,3.90625E-2);
#191=CARTESIAN_POINT('',(1.018200549451E-1,0.E0,-7.03125E-2));
#192=LINE('',#191,#190);
#193=CURVE_STYLE('',#25,POSITIVE_LENGTH_MEASURE(2.E-2),#1);
#194=PRESENTATION_STYLE_ASSIGNMENT((#193));
#195=STYLED_ITEM('',(#194),#192);
#196=DIRECTION('',(0.E0,0.E0,1.E0));
#197=VECTOR('',#196,3.90625E-2);
#198=CARTESIAN_POINT('',(-1.018200549451E-1,0.E0,-7.03125E-2));
#199=LINE('',#198,#197);
#200=CURVE_STYLE('',#25,POSITIVE_LENGTH_MEASURE(2.E-2),#1);
#201=PRESENTATION_STYLE_ASSIGNMENT((#200));
#202=STYLED_ITEM('',(#201),#199);
#203=CARTESIAN_POINT('',(0.E0,0.E0,3.125E-2));
#204=DIRECTION('',(0.E0,0.E0,1.E0));
#205=DIRECTION('',(1.E0,0.E0,0.E0));
#206=AXIS2_PLACEMENT_3D('',#203,#204,#205);
#208=CURVE_STYLE('',#25,POSITIVE_LENGTH_MEASURE(2.E-2),#1);
#209=PRESENTATION_STYLE_ASSIGNMENT((#208));
#210=STYLED_ITEM('',(#209),#207);
#211=CARTESIAN_POINT('',(-1.09375E-1,0.E0,0.E0));
#212=DIRECTION('',(0.E0,1.E0,0.E0));
#213=DIRECTION('',(2.349885603653E-1,0.E0,9.719981360566E-1));
#214=AXIS2_PLACEMENT_3D('',#211,#212,#213);
#216=CURVE_STYLE('',#25,POSITIVE_LENGTH_MEASURE(2.E-2),#1);
#217=PRESENTATION_STYLE_ASSIGNMENT((#216));
#218=STYLED_ITEM('',(#217),#215);
#219=CARTESIAN_POINT('',(0.E0,0.E0,-3.125E-2));
#220=DIRECTION('',(0.E0,0.E0,-1.E0));
#221=DIRECTION('',(-1.E0,0.E0,0.E0));
#222=AXIS2_PLACEMENT_3D('',#219,#220,#221);
#224=CURVE_STYLE('',#25,POSITIVE_LENGTH_MEASURE(2.E-2),#1);
#225=PRESENTATION_STYLE_ASSIGNMENT((#224));
#226=STYLED_ITEM('',(#225),#223);
#227=CARTESIAN_POINT('',(1.09375E-1,0.E0,0.E0));
#228=DIRECTION('',(0.E0,-1.E0,0.E0));
#229=DIRECTION('',(-2.349885603653E-1,0.E0,9.719981360566E-1));
#230=AXIS2_PLACEMENT_3D('',#227,#228,#229);
#232=CURVE_STYLE('',#25,POSITIVE_LENGTH_MEASURE(2.E-2),#1);
#233=PRESENTATION_STYLE_ASSIGNMENT((#232));
#234=STYLED_ITEM('',(#233),#231);
#235=CARTESIAN_POINT('',(1.018200549451E-1,0.E0,3.125E-2));
#236=CARTESIAN_POINT('',(1.018200549451E-1,0.E0,-3.125E-2));
#237=VERTEX_POINT('',#235);
#238=VERTEX_POINT('',#236);
#239=CARTESIAN_POINT('',(-1.018200549451E-1,0.E0,3.125E-2));
#240=CARTESIAN_POINT('',(-1.018200549451E-1,0.E0,-3.125E-2));
#241=VERTEX_POINT('',#239);
#242=VERTEX_POINT('',#240);
#243=CARTESIAN_POINT('',(6.25E-2,0.E0,6.328125E-2));
#244=CARTESIAN_POINT('',(6.953125E-2,0.E0,7.03125E-2));
#245=VERTEX_POINT('',#243);
#246=VERTEX_POINT('',#244);
#247=CARTESIAN_POINT('',(-6.953125E-2,0.E0,7.03125E-2));
#248=VERTEX_POINT('',#247);
#249=CARTESIAN_POINT('',(-6.25E-2,0.E0,6.328125E-2));
#250=VERTEX_POINT('',#249);
#251=CARTESIAN_POINT('',(6.25E-2,0.E0,-6.328125E-2));
#252=VERTEX_POINT('',#251);
#253=CARTESIAN_POINT('',(-6.25E-2,0.E0,-6.328125E-2));
#254=VERTEX_POINT('',#253);
#255=CARTESIAN_POINT('',(-6.953125E-2,0.E0,-7.03125E-2));
#256=VERTEX_POINT('',#255);
#257=CARTESIAN_POINT('',(6.953125E-2,0.E0,-7.03125E-2));
#258=VERTEX_POINT('',#257);
#259=CARTESIAN_POINT('',(1.018200549451E-1,0.E0,-7.03125E-2));
#260=VERTEX_POINT('',#259);
#261=CARTESIAN_POINT('',(-1.018200549451E-1,0.E0,-7.03125E-2));
#262=VERTEX_POINT('',#261);
#263=CARTESIAN_POINT('',(1.018200549451E-1,0.E0,7.03125E-2));
#264=VERTEX_POINT('',#263);
#265=CARTESIAN_POINT('',(-1.018200549451E-1,0.E0,7.03125E-2));
#266=VERTEX_POINT('',#265);
#267=CARTESIAN_POINT('',(0.E0,0.E0,0.E0));
#268=DIRECTION('',(0.E0,0.E0,1.E0));
#269=DIRECTION('',(1.E0,0.E0,0.E0));
#270=AXIS2_PLACEMENT_3D('',#267,#268,#269);
#271=TOROIDAL_SURFACE('',#270,1.09375E-1,3.215026741387E-2);
#273=ORIENTED_EDGE('',*,*,#272,.T.);
#275=ORIENTED_EDGE('',*,*,#274,.T.);
#277=ORIENTED_EDGE('',*,*,#276,.T.);
#279=ORIENTED_EDGE('',*,*,#278,.F.);
#280=EDGE_LOOP('',(#273,#275,#277,#279));
#281=FACE_OUTER_BOUND('',#280,.F.);
#283=CARTESIAN_POINT('',(0.E0,0.E0,7.03125E-2));
#284=DIRECTION('',(0.E0,0.E0,1.E0));
#285=DIRECTION('',(1.E0,0.E0,0.E0));
#286=AXIS2_PLACEMENT_3D('',#283,#284,#285);
#287=CYLINDRICAL_SURFACE('',#286,1.018200549451E-1);
#289=ORIENTED_EDGE('',*,*,#288,.F.);
#290=ORIENTED_EDGE('',*,*,#272,.F.);
#292=ORIENTED_EDGE('',*,*,#291,.T.);
#294=ORIENTED_EDGE('',*,*,#293,.T.);
#295=EDGE_LOOP('',(#289,#290,#292,#294));
#296=FACE_OUTER_BOUND('',#295,.F.);
#298=CARTESIAN_POINT('',(0.E0,0.E0,7.03125E-2));
#299=DIRECTION('',(0.E0,0.E0,1.E0));
#300=DIRECTION('',(1.E0,0.E0,0.E0));
#301=AXIS2_PLACEMENT_3D('',#298,#299,#300);
#302=CYLINDRICAL_SURFACE('',#301,1.018200549451E-1);
#303=ORIENTED_EDGE('',*,*,#288,.T.);
#305=ORIENTED_EDGE('',*,*,#304,.T.);
#306=ORIENTED_EDGE('',*,*,#291,.F.);
#308=ORIENTED_EDGE('',*,*,#307,.F.);
#309=EDGE_LOOP('',(#303,#305,#306,#308));
#310=FACE_OUTER_BOUND('',#309,.F.);
#312=CARTESIAN_POINT('',(0.E0,1.018200549451E-1,7.03125E-2));
#313=DIRECTION('',(0.E0,0.E0,-1.E0));
#314=DIRECTION('',(-1.E0,0.E0,0.E0));
#315=AXIS2_PLACEMENT_3D('',#312,#313,#314);
#316=PLANE('',#315);
#317=ORIENTED_EDGE('',*,*,#293,.F.);
#318=ORIENTED_EDGE('',*,*,#304,.F.);
#319=EDGE_LOOP('',(#317,#318));
#320=FACE_OUTER_BOUND('',#319,.F.);
#322=ORIENTED_EDGE('',*,*,#321,.F.);
#324=ORIENTED_EDGE('',*,*,#323,.F.);
#325=EDGE_LOOP('',(#322,#324));
#326=FACE_BOUND('',#325,.F.);
#328=CARTESIAN_POINT('',(0.E0,0.E0,6.6796875E-2));
#329=DIRECTION('',(0.E0,0.E0,1.E0));
#330=DIRECTION('',(1.E0,0.E0,0.E0));
#331=AXIS2_PLACEMENT_3D('',#328,#329,#330);
#332=CONICAL_SURFACE('',#331,6.6015625E-2,4.5E1);
#334=ORIENTED_EDGE('',*,*,#333,.T.);
#336=ORIENTED_EDGE('',*,*,#335,.T.);
#337=ORIENTED_EDGE('',*,*,#321,.T.);
#339=ORIENTED_EDGE('',*,*,#338,.T.);
#340=EDGE_LOOP('',(#334,#336,#337,#339));
#341=FACE_OUTER_BOUND('',#340,.F.);
#343=CARTESIAN_POINT('',(0.E0,0.E0,7.03125E-2));
#344=DIRECTION('',(0.E0,0.E0,1.E0));
#345=DIRECTION('',(1.E0,0.E0,0.E0));
#346=AXIS2_PLACEMENT_3D('',#343,#344,#345);
#347=CYLINDRICAL_SURFACE('',#346,6.25E-2);
#349=ORIENTED_EDGE('',*,*,#348,.F.);
#351=ORIENTED_EDGE('',*,*,#350,.T.);
#352=ORIENTED_EDGE('',*,*,#333,.F.);
#354=ORIENTED_EDGE('',*,*,#353,.T.);
#355=EDGE_LOOP('',(#349,#351,#352,#354));
#356=FACE_OUTER_BOUND('',#355,.F.);
#358=CARTESIAN_POINT('',(0.E0,0.E0,-6.6796875E-2));
#359=DIRECTION('',(0.E0,0.E0,-1.E0));
#360=DIRECTION('',(-1.E0,0.E0,0.E0));
#361=AXIS2_PLACEMENT_3D('',#358,#359,#360);
#362=CONICAL_SURFACE('',#361,6.6015625E-2,4.5E1);
#364=ORIENTED_EDGE('',*,*,#363,.T.);
#366=ORIENTED_EDGE('',*,*,#365,.T.);
#368=ORIENTED_EDGE('',*,*,#367,.T.);
#369=ORIENTED_EDGE('',*,*,#348,.T.);
#370=EDGE_LOOP('',(#364,#366,#368,#369));
#371=FACE_OUTER_BOUND('',#370,.F.);
#373=CARTESIAN_POINT('',(0.E0,0.E0,-6.6796875E-2));
#374=DIRECTION('',(0.E0,0.E0,-1.E0));
#375=DIRECTION('',(-1.E0,0.E0,0.E0));
#376=AXIS2_PLACEMENT_3D('',#373,#374,#375);
#377=CONICAL_SURFACE('',#376,6.6015625E-2,4.5E1);
#378=ORIENTED_EDGE('',*,*,#363,.F.);
#380=ORIENTED_EDGE('',*,*,#379,.T.);
#381=ORIENTED_EDGE('',*,*,#367,.F.);
#383=ORIENTED_EDGE('',*,*,#382,.T.);
#384=EDGE_LOOP('',(#378,#380,#381,#383));
#385=FACE_OUTER_BOUND('',#384,.F.);
#387=CARTESIAN_POINT('',(0.E0,0.E0,7.03125E-2));
#388=DIRECTION('',(0.E0,0.E0,1.E0));
#389=DIRECTION('',(1.E0,0.E0,0.E0));
#390=AXIS2_PLACEMENT_3D('',#387,#388,#389);
#391=CYLINDRICAL_SURFACE('',#390,6.25E-2);
#392=ORIENTED_EDGE('',*,*,#379,.F.);
#393=ORIENTED_EDGE('',*,*,#353,.F.);
#395=ORIENTED_EDGE('',*,*,#394,.F.);
#396=ORIENTED_EDGE('',*,*,#350,.F.);
#397=EDGE_LOOP('',(#392,#393,#395,#396));
#398=FACE_OUTER_BOUND('',#397,.F.);
#400=CARTESIAN_POINT('',(0.E0,0.E0,6.6796875E-2));
#401=DIRECTION('',(0.E0,0.E0,1.E0));
#402=DIRECTION('',(1.E0,0.E0,0.E0));
#403=AXIS2_PLACEMENT_3D('',#400,#401,#402);
#404=CONICAL_SURFACE('',#403,6.6015625E-2,4.5E1);
#405=ORIENTED_EDGE('',*,*,#394,.T.);
#406=ORIENTED_EDGE('',*,*,#338,.F.);
#407=ORIENTED_EDGE('',*,*,#323,.T.);
#408=ORIENTED_EDGE('',*,*,#335,.F.);
#409=EDGE_LOOP('',(#405,#406,#407,#408));
#410=FACE_OUTER_BOUND('',#409,.F.);
#412=CARTESIAN_POINT('',(0.E0,6.953125E-2,-7.03125E-2));
#413=DIRECTION('',(0.E0,0.E0,1.E0));
#414=DIRECTION('',(1.E0,0.E0,0.E0));
#415=AXIS2_PLACEMENT_3D('',#412,#413,#414);
#416=PLANE('',#415);
#418=ORIENTED_EDGE('',*,*,#417,.F.);
#420=ORIENTED_EDGE('',*,*,#419,.F.);
#421=EDGE_LOOP('',(#418,#420));
#422=FACE_OUTER_BOUND('',#421,.F.);
#423=ORIENTED_EDGE('',*,*,#382,.F.);
#424=ORIENTED_EDGE('',*,*,#365,.F.);
#425=EDGE_LOOP('',(#423,#424));
#426=FACE_BOUND('',#425,.F.);
#428=CARTESIAN_POINT('',(0.E0,0.E0,7.03125E-2));
#429=DIRECTION('',(0.E0,0.E0,1.E0));
#430=DIRECTION('',(1.E0,0.E0,0.E0));
#431=AXIS2_PLACEMENT_3D('',#428,#429,#430);
#432=CYLINDRICAL_SURFACE('',#431,1.018200549451E-1);
#434=ORIENTED_EDGE('',*,*,#433,.F.);
#435=ORIENTED_EDGE('',*,*,#417,.T.);
#437=ORIENTED_EDGE('',*,*,#436,.T.);
#438=ORIENTED_EDGE('',*,*,#276,.F.);
#439=EDGE_LOOP('',(#434,#435,#437,#438));
#440=FACE_OUTER_BOUND('',#439,.F.);
#442=CARTESIAN_POINT('',(0.E0,0.E0,7.03125E-2));
#443=DIRECTION('',(0.E0,0.E0,1.E0));
#444=DIRECTION('',(1.E0,0.E0,0.E0));
#445=AXIS2_PLACEMENT_3D('',#442,#443,#444);
#446=CYLINDRICAL_SURFACE('',#445,1.018200549451E-1);
#447=ORIENTED_EDGE('',*,*,#433,.T.);
#449=ORIENTED_EDGE('',*,*,#448,.F.);
#450=ORIENTED_EDGE('',*,*,#436,.F.);
#451=ORIENTED_EDGE('',*,*,#419,.T.);
#452=EDGE_LOOP('',(#447,#449,#450,#451));
#453=FACE_OUTER_BOUND('',#452,.F.);
#455=CARTESIAN_POINT('',(0.E0,0.E0,0.E0));
#456=DIRECTION('',(0.E0,0.E0,1.E0));
#457=DIRECTION('',(1.E0,0.E0,0.E0));
#458=AXIS2_PLACEMENT_3D('',#455,#456,#457);
#459=TOROIDAL_SURFACE('',#458,1.09375E-1,3.215026741387E-2);
#460=ORIENTED_EDGE('',*,*,#307,.T.);
#461=ORIENTED_EDGE('',*,*,#278,.T.);
#462=ORIENTED_EDGE('',*,*,#448,.T.);
#463=ORIENTED_EDGE('',*,*,#274,.F.);
#464=EDGE_LOOP('',(#460,#461,#462,#463));
#465=FACE_OUTER_BOUND('',#464,.F.);
#469=FILL_AREA_STYLE_COLOUR('',#1);
#470=FILL_AREA_STYLE('',(#469));
#471=SURFACE_STYLE_FILL_AREA(#470);
#472=SURFACE_SIDE_STYLE('',(#471));
#473=SURFACE_STYLE_USAGE(.BOTH.,#472);
#474=PRESENTATION_STYLE_ASSIGNMENT((#473));
#19=STYLED_ITEM('',(#474),#468);
#476=LENGTH_MEASURE_WITH_UNIT(LENGTH_MEASURE(2.54E1),#475);
#477=(CONVERSION_BASED_UNIT('INCH',#476)LENGTH_UNIT()NAMED_UNIT(*));
#479=PLANE_ANGLE_MEASURE_WITH_UNIT(PLANE_ANGLE_MEASURE(1.745329251994E-2),#478);
#480=(CONVERSION_BASED_UNIT('DEGREE',#479)NAMED_UNIT(*)PLANE_ANGLE_UNIT());
#482=UNCERTAINTY_MEASURE_WITH_UNIT(LENGTH_MEASURE(3.205661129993E-5),#477,
'closure',
'Maximum model space distance between geometric entities at asserted connectivities');
#484=CARTESIAN_POINT('',(0.E0,0.E0,0.E0));
#485=DIRECTION('',(0.E0,0.E0,1.E0));
#486=DIRECTION('',(1.E0,0.E0,0.E0));
#489=MECHANICAL_DESIGN_GEOMETRIC_PRESENTATION_REPRESENTATION('',(#28,#36,#43,
#50,#58,#66,#74,#82,#90,#98,#105,#113,#120,#127,#134,#142,#149,#156,#164,#172,
#180,#188,#195,#202,#210,#218,#226,#234,#19),#483);
#490=APPLICATION_CONTEXT('automotive design');
#491=APPLICATION_PROTOCOL_DEFINITION('international standard',
'config_control_design',1994,#490);
#492=PRODUCT_DEFINITION_CONTEXT('',#490,'design');
#493=PRODUCT_CONTEXT('',#490,'mechanical');
#494=PRODUCT('BODY2-219','BODY2-219','NOT SPECIFIED',(#493));
#495=PRODUCT_DEFINITION_FORMATION_WITH_SPECIFIED_SOURCE('1','LAST_VERSION',#494,
.MADE.);
#503=LENGTH_MEASURE_WITH_UNIT(LENGTH_MEASURE(2.54E1),#502);
#504=(CONVERSION_BASED_UNIT('INCH',#503)LENGTH_UNIT()NAMED_UNIT(*));
#505=DERIVED_UNIT_ELEMENT(#504,2.E0);
#506=AREA_UNIT((#505));
#507=MEASURE_REPRESENTATION_ITEM('surface area measure',AREA_MEASURE(
1.889983774463E-1),#506);
#512=LENGTH_MEASURE_WITH_UNIT(LENGTH_MEASURE(2.54E1),#511);
#513=(CONVERSION_BASED_UNIT('INCH',#512)LENGTH_UNIT()NAMED_UNIT(*));
#514=DERIVED_UNIT_ELEMENT(#513,3.E0);
#515=VOLUME_UNIT((#514));
#516=MEASURE_REPRESENTATION_ITEM('volume measure',VOLUME_MEASURE(
2.177048264464E-3),#515);
#520=CARTESIAN_POINT('centre point',(0.E0,-2.341883935032E-13,0.E0));
#525=LENGTH_MEASURE_WITH_UNIT(LENGTH_MEASURE(2.54E1),#524);
#526=(CONVERSION_BASED_UNIT('INCH',#525)LENGTH_UNIT()NAMED_UNIT(*));
#527=DERIVED_UNIT_ELEMENT(#526,2.E0);
#528=AREA_UNIT((#527));
#529=MEASURE_REPRESENTATION_ITEM('surface area measure',AREA_MEASURE(
1.889983774463E-1),#528);
#534=LENGTH_MEASURE_WITH_UNIT(LENGTH_MEASURE(2.54E1),#533);
#535=(CONVERSION_BASED_UNIT('INCH',#534)LENGTH_UNIT()NAMED_UNIT(*));
#536=DERIVED_UNIT_ELEMENT(#535,3.E0);
#537=VOLUME_UNIT((#536));
#538=MEASURE_REPRESENTATION_ITEM('volume measure',VOLUME_MEASURE(
2.177048264464E-3),#537);
#542=CARTESIAN_POINT('centre point',(0.E0,-2.341883935032E-13,0.E0));
#1=COLOUR_RGB('',6.274509803922E-1,6.274509803922E-1,6.274509803922E-1);
#2=DRAUGHTING_PRE_DEFINED_COLOUR('green');
#3=COLOUR_RGB('',1.1E-2,1.2E-2,1.E0);
#4=COLOUR_RGB('',2.352941176471E-1,2.352941176471E-1,2.352941176471E-1);
#5=COLOUR_RGB('',2.666666666667E-1,4.666666666667E-1,4.E-1);
#6=COLOUR_RGB('',4.1E-1,2.61589E-1,1.12848E-1);
#7=COLOUR_RGB('',5.04854E-1,1.5455E-2,1.5455E-2);
#8=COLOUR_RGB('',6.274509803922E-1,6.274509803922E-1,6.274509803922E-1);
#9=COLOUR_RGB('',6.35294E-1,6.86275E-1,7.4902E-1);
#10=COLOUR_RGB('',6.40777E-1,6.40777E-1,6.40777E-1);
#11=COLOUR_RGB('',6.69062E-1,6.69903E-1,6.55217E-1);
#12=COLOUR_RGB('',9.098039215686E-1,4.431372549020E-1,3.137254901961E-2);
#13=COLOUR_RGB('',9.21569E-1,7.05882E-1,4.70588E-1);
#14=DRAUGHTING_PRE_DEFINED_COLOUR('red');
#15=DRAUGHTING_PRE_DEFINED_COLOUR('yellow');
#16=COLOUR_RGB('',1.E0,1.E0,5.3E-1);
#17=COLOUR_RGB('',1.E0,1.E0,9.49E-1);
#18=DRAUGHTING_PRE_DEFINED_COLOUR('white');
#24=CIRCLE('',#23,1.018200549451E-1);
#33=CIRCLE('',#32,1.018200549451E-1);
#55=CIRCLE('',#54,1.018200549451E-1);
#63=CIRCLE('',#62,1.018200549451E-1);
#71=CIRCLE('',#70,6.953125E-2);
#79=CIRCLE('',#78,6.953125E-2);
#87=CIRCLE('',#86,6.25E-2);
#95=CIRCLE('',#94,6.25E-2);
#110=CIRCLE('',#109,6.25E-2);
#139=CIRCLE('',#138,6.25E-2);
#161=CIRCLE('',#160,1.018200549451E-1);
#169=CIRCLE('',#168,1.018200549451E-1);
#177=CIRCLE('',#176,6.953125E-2);
#185=CIRCLE('',#184,6.953125E-2);
#207=CIRCLE('',#206,1.018200549451E-1);
#215=CIRCLE('',#214,3.215026741387E-2);
#223=CIRCLE('',#222,1.018200549451E-1);
#231=CIRCLE('',#230,3.215026741387E-2);
#272=EDGE_CURVE('',#241,#237,#24,.T.);
#274=EDGE_CURVE('',#237,#238,#231,.T.);
#276=EDGE_CURVE('',#238,#242,#33,.T.);
#278=EDGE_CURVE('',#241,#242,#215,.T.);
#282=ADVANCED_FACE('',(#281),#271,.F.);
#288=EDGE_CURVE('',#237,#264,#40,.T.);
#291=EDGE_CURVE('',#241,#266,#47,.T.);
#293=EDGE_CURVE('',#266,#264,#55,.T.);
#297=ADVANCED_FACE('',(#296),#287,.T.);
#304=EDGE_CURVE('',#264,#266,#63,.T.);
#307=EDGE_CURVE('',#237,#241,#207,.T.);
#311=ADVANCED_FACE('',(#310),#302,.T.);
#321=EDGE_CURVE('',#246,#248,#71,.T.);
#323=EDGE_CURVE('',#248,#246,#79,.T.);
#327=ADVANCED_FACE('',(#320,#326),#316,.F.);
#333=EDGE_CURVE('',#250,#245,#87,.T.);
#335=EDGE_CURVE('',#245,#246,#153,.T.);
#338=EDGE_CURVE('',#248,#250,#146,.T.);
#342=ADVANCED_FACE('',(#341),#332,.F.);
#348=EDGE_CURVE('',#252,#254,#95,.T.);
#350=EDGE_CURVE('',#252,#245,#131,.T.);
#353=EDGE_CURVE('',#250,#254,#124,.T.);
#357=ADVANCED_FACE('',(#356),#347,.F.);
#363=EDGE_CURVE('',#254,#256,#102,.T.);
#365=EDGE_CURVE('',#256,#258,#185,.T.);
#367=EDGE_CURVE('',#258,#252,#117,.T.);
#372=ADVANCED_FACE('',(#371),#362,.F.);
#379=EDGE_CURVE('',#254,#252,#110,.T.);
#382=EDGE_CURVE('',#258,#256,#177,.T.);
#386=ADVANCED_FACE('',(#385),#377,.F.);
#394=EDGE_CURVE('',#245,#250,#139,.T.);
#399=ADVANCED_FACE('',(#398),#391,.F.);
#411=ADVANCED_FACE('',(#410),#404,.F.);
#417=EDGE_CURVE('',#260,#262,#161,.T.);
#419=EDGE_CURVE('',#262,#260,#169,.T.);
#427=ADVANCED_FACE('',(#422,#426),#416,.F.);
#433=EDGE_CURVE('',#260,#238,#192,.T.);
#436=EDGE_CURVE('',#262,#242,#199,.T.);
#441=ADVANCED_FACE('',(#440),#432,.T.);
#448=EDGE_CURVE('',#242,#238,#223,.T.);
#454=ADVANCED_FACE('',(#453),#446,.T.);
#466=ADVANCED_FACE('',(#465),#459,.F.);
#467=CLOSED_SHELL('',(#282,#297,#311,#327,#342,#357,#372,#386,#399,#411,#427,
#441,#454,#466));
#468=MANIFOLD_SOLID_BREP('',#467);
#475=(LENGTH_UNIT()NAMED_UNIT(*)SI_UNIT(.MILLI.,.METRE.));
#478=(NAMED_UNIT(*)PLANE_ANGLE_UNIT()SI_UNIT($,.RADIAN.));
#481=(NAMED_UNIT(*)SI_UNIT($,.STERADIAN.)SOLID_ANGLE_UNIT());
#483=(GEOMETRIC_REPRESENTATION_CONTEXT(3)GLOBAL_UNCERTAINTY_ASSIGNED_CONTEXT((
#482))GLOBAL_UNIT_ASSIGNED_CONTEXT((#477,#480,#481))REPRESENTATION_CONTEXT
('ID1','3'));
#487=AXIS2_PLACEMENT_3D('',#484,#485,#486);
#488=ADVANCED_BREP_SHAPE_REPRESENTATION('',(#487,#468),#483);
#496=PRODUCT_DEFINITION('design','',#495,#492);
#497=PRODUCT_DEFINITION_SHAPE('','SHAPE FOR BODY2-219.',#496);
#498=SHAPE_ASPECT('','solid data associated with BODY2-219',#497,.F.);
#499=PROPERTY_DEFINITION('',
'shape for solid data with which properties are associated',#498);
#500=SHAPE_REPRESENTATION('',(#468),#483);
#501=SHAPE_DEFINITION_REPRESENTATION(#499,#500);
#502=(LENGTH_UNIT()NAMED_UNIT(*)SI_UNIT(.MILLI.,.METRE.));
#508=PROPERTY_DEFINITION('geometric validation property','area of BODY2-219',
#498);
#509=REPRESENTATION('surface area',(#507),#483);
#510=PROPERTY_DEFINITION_REPRESENTATION(#508,#509);
#511=(LENGTH_UNIT()NAMED_UNIT(*)SI_UNIT(.MILLI.,.METRE.));
#517=PROPERTY_DEFINITION('geometric validation property','volume of BODY2-219',
#498);
#518=REPRESENTATION('volume',(#516),#483);
#519=PROPERTY_DEFINITION_REPRESENTATION(#517,#518);
#521=PROPERTY_DEFINITION('geometric validation property',
'centroid of BODY2-219',#498);
#522=REPRESENTATION('centroid',(#520),#483);
#523=PROPERTY_DEFINITION_REPRESENTATION(#521,#522);
#524=(LENGTH_UNIT()NAMED_UNIT(*)SI_UNIT(.MILLI.,.METRE.));
#530=PROPERTY_DEFINITION('geometric validation property','area of BODY2-219',
#497);
#531=REPRESENTATION('surface area',(#529),#483);
#532=PROPERTY_DEFINITION_REPRESENTATION(#530,#531);
#533=(LENGTH_UNIT()NAMED_UNIT(*)SI_UNIT(.MILLI.,.METRE.));
#539=PROPERTY_DEFINITION('geometric validation property','volume of BODY2-219',
#497);
#540=REPRESENTATION('volume',(#538),#483);
#541=PROPERTY_DEFINITION_REPRESENTATION(#539,#540);
#543=PROPERTY_DEFINITION('geometric validation property',
'centroid of BODY2-219',#497);
#544=REPRESENTATION('centroid',(#542),#483);
#545=PROPERTY_DEFINITION_REPRESENTATION(#543,#544);
#546=SHAPE_DEFINITION_REPRESENTATION(#497,#488);
ENDSEC;
END-ISO-10303-21;
