ISO-10303-21;
HEADER;
FILE_DESCRIPTION((''),'2;1');
FILE_NAME('BODY6-4149','2026-06-15T13:45:26',('Esia'),(''),
'CREO PARAMETRIC BY PTC INC, 2025102','CREO PARAMETRIC BY PTC INC, 2025102','');
FILE_SCHEMA((
'AP242_MANAGED_MODEL_BASED_3D_ENGINEERING_MIM_LF { 1 0 10303 442 1 1 4 }'));
ENDSEC;
DATA;
#23=DIRECTION('',(0.E0,0.E0,-1.E0));
#24=VECTOR('',#23,3.937007874016E-3);
#25=CARTESIAN_POINT('',(-1.476377952756E-2,-8.070866141732E-2,
3.937007874016E-3));
#26=LINE('',#25,#24);
#27=DRAUGHTING_PRE_DEFINED_CURVE_FONT('continuous');
#28=CURVE_STYLE('',#27,POSITIVE_LENGTH_MEASURE(2.E-2),#1);
#29=PRESENTATION_STYLE_ASSIGNMENT((#28));
#30=STYLED_ITEM('',(#29),#26);
#31=DIRECTION('',(-1.E0,0.E0,0.E0));
#32=VECTOR('',#31,9.842519685039E-3);
#33=CARTESIAN_POINT('',(-4.921259842520E-3,-8.070866141732E-2,
3.937007874016E-3));
#34=LINE('',#33,#32);
#35=CURVE_STYLE('',#27,POSITIVE_LENGTH_MEASURE(2.E-2),#1);
#36=PRESENTATION_STYLE_ASSIGNMENT((#35));
#37=STYLED_ITEM('',(#36),#34);
#38=DIRECTION('',(0.E0,-1.E0,0.E0));
#39=VECTOR('',#38,1.279527559055E-2);
#40=CARTESIAN_POINT('',(-1.476377952756E-2,-6.791338582677E-2,0.E0));
#41=LINE('',#40,#39);
#42=CURVE_STYLE('',#27,POSITIVE_LENGTH_MEASURE(2.E-2),#1);
#43=PRESENTATION_STYLE_ASSIGNMENT((#42));
#44=STYLED_ITEM('',(#43),#41);
#45=DIRECTION('',(-1.E0,0.E0,0.E0));
#46=VECTOR('',#45,9.842519685039E-3);
#47=CARTESIAN_POINT('',(-4.921259842520E-3,-8.070866141732E-2,0.E0));
#48=LINE('',#47,#46);
#49=CURVE_STYLE('',#27,POSITIVE_LENGTH_MEASURE(2.E-2),#1);
#50=PRESENTATION_STYLE_ASSIGNMENT((#49));
#51=STYLED_ITEM('',(#50),#48);
#52=DIRECTION('',(0.E0,-1.E0,0.E0));
#53=VECTOR('',#52,1.279527559055E-2);
#54=CARTESIAN_POINT('',(-4.921259842520E-3,-6.791338582677E-2,0.E0));
#55=LINE('',#54,#53);
#56=CURVE_STYLE('',#27,POSITIVE_LENGTH_MEASURE(2.E-2),#1);
#57=PRESENTATION_STYLE_ASSIGNMENT((#56));
#58=STYLED_ITEM('',(#57),#55);
#59=CARTESIAN_POINT('',(-9.842519685039E-3,-6.791338582677E-2,0.E0));
#60=DIRECTION('',(0.E0,0.E0,-1.E0));
#61=DIRECTION('',(-1.E0,0.E0,0.E0));
#62=AXIS2_PLACEMENT_3D('',#59,#60,#61);
#64=CURVE_STYLE('',#27,POSITIVE_LENGTH_MEASURE(2.E-2),#1);
#65=PRESENTATION_STYLE_ASSIGNMENT((#64));
#66=STYLED_ITEM('',(#65),#63);
#67=DIRECTION('',(0.E0,0.E0,-1.E0));
#68=VECTOR('',#67,3.937007874016E-3);
#69=CARTESIAN_POINT('',(-4.921259842520E-3,-8.070866141732E-2,
3.937007874016E-3));
#70=LINE('',#69,#68);
#71=CURVE_STYLE('',#27,POSITIVE_LENGTH_MEASURE(2.E-2),#1);
#72=PRESENTATION_STYLE_ASSIGNMENT((#71));
#73=STYLED_ITEM('',(#72),#70);
#74=DIRECTION('',(0.E0,-1.E0,0.E0));
#75=VECTOR('',#74,1.279527559055E-2);
#76=CARTESIAN_POINT('',(-4.921259842520E-3,-6.791338582677E-2,
3.937007874016E-3));
#77=LINE('',#76,#75);
#78=CURVE_STYLE('',#27,POSITIVE_LENGTH_MEASURE(2.E-2),#1);
#79=PRESENTATION_STYLE_ASSIGNMENT((#78));
#80=STYLED_ITEM('',(#79),#77);
#81=DIRECTION('',(0.E0,-1.E0,0.E0));
#82=VECTOR('',#81,1.279527559055E-2);
#83=CARTESIAN_POINT('',(-1.476377952756E-2,-6.791338582677E-2,
3.937007874016E-3));
#84=LINE('',#83,#82);
#85=CURVE_STYLE('',#27,POSITIVE_LENGTH_MEASURE(2.E-2),#1);
#86=PRESENTATION_STYLE_ASSIGNMENT((#85));
#87=STYLED_ITEM('',(#86),#84);
#88=CARTESIAN_POINT('',(-9.842519685039E-3,-6.791338582677E-2,
3.937007874016E-3));
#89=DIRECTION('',(0.E0,0.E0,1.E0));
#90=DIRECTION('',(1.E0,0.E0,0.E0));
#91=AXIS2_PLACEMENT_3D('',#88,#89,#90);
#93=CURVE_STYLE('',#27,POSITIVE_LENGTH_MEASURE(2.E-2),#1);
#94=PRESENTATION_STYLE_ASSIGNMENT((#93));
#95=STYLED_ITEM('',(#94),#92);
#96=DIRECTION('',(0.E0,0.E0,-1.E0));
#97=VECTOR('',#96,3.937007874016E-3);
#98=CARTESIAN_POINT('',(-4.921259842520E-3,-6.791338582677E-2,
3.937007874016E-3));
#99=LINE('',#98,#97);
#100=CURVE_STYLE('',#27,POSITIVE_LENGTH_MEASURE(2.E-2),#1);
#101=PRESENTATION_STYLE_ASSIGNMENT((#100));
#102=STYLED_ITEM('',(#101),#99);
#103=DIRECTION('',(0.E0,0.E0,1.E0));
#104=VECTOR('',#103,3.937007874016E-3);
#105=CARTESIAN_POINT('',(-1.476377952756E-2,-6.791338582677E-2,0.E0));
#106=LINE('',#105,#104);
#107=CURVE_STYLE('',#27,POSITIVE_LENGTH_MEASURE(2.E-2),#1);
#108=PRESENTATION_STYLE_ASSIGNMENT((#107));
#109=STYLED_ITEM('',(#108),#106);
#110=CARTESIAN_POINT('',(-1.476377952756E-2,-8.070866141732E-2,
3.937007874016E-3));
#111=CARTESIAN_POINT('',(-1.476377952756E-2,-8.070866141732E-2,0.E0));
#112=VERTEX_POINT('',#110);
#113=VERTEX_POINT('',#111);
#114=CARTESIAN_POINT('',(-4.921259842520E-3,-8.070866141732E-2,0.E0));
#115=VERTEX_POINT('',#114);
#116=CARTESIAN_POINT('',(-4.921259842520E-3,-8.070866141732E-2,
3.937007874016E-3));
#117=VERTEX_POINT('',#116);
#118=CARTESIAN_POINT('',(-4.921259842520E-3,-6.791338582677E-2,0.E0));
#119=VERTEX_POINT('',#118);
#120=CARTESIAN_POINT('',(-4.921259842520E-3,-6.791338582677E-2,
3.937007874016E-3));
#121=VERTEX_POINT('',#120);
#122=CARTESIAN_POINT('',(-1.476377952756E-2,-6.791338582677E-2,0.E0));
#123=VERTEX_POINT('',#122);
#124=CARTESIAN_POINT('',(-1.476377952756E-2,-6.791338582677E-2,
3.937007874016E-3));
#125=VERTEX_POINT('',#124);
#126=CARTESIAN_POINT('',(-1.476377952756E-2,-8.070866141732E-2,0.E0));
#127=DIRECTION('',(0.E0,1.E0,0.E0));
#128=DIRECTION('',(1.E0,0.E0,0.E0));
#129=AXIS2_PLACEMENT_3D('',#126,#127,#128);
#130=PLANE('',#129);
#132=ORIENTED_EDGE('',*,*,#131,.F.);
#134=ORIENTED_EDGE('',*,*,#133,.F.);
#136=ORIENTED_EDGE('',*,*,#135,.T.);
#138=ORIENTED_EDGE('',*,*,#137,.T.);
#139=EDGE_LOOP('',(#132,#134,#136,#138));
#140=FACE_OUTER_BOUND('',#139,.F.);
#142=CARTESIAN_POINT('',(-1.476377952756E-2,-8.070866141732E-2,0.E0));
#143=DIRECTION('',(-1.E0,0.E0,0.E0));
#144=DIRECTION('',(0.E0,1.E0,0.E0));
#145=AXIS2_PLACEMENT_3D('',#142,#143,#144);
#146=PLANE('',#145);
#147=ORIENTED_EDGE('',*,*,#131,.T.);
#149=ORIENTED_EDGE('',*,*,#148,.F.);
#151=ORIENTED_EDGE('',*,*,#150,.T.);
#153=ORIENTED_EDGE('',*,*,#152,.T.);
#154=EDGE_LOOP('',(#147,#149,#151,#153));
#155=FACE_OUTER_BOUND('',#154,.F.);
#157=CARTESIAN_POINT('',(-9.842519685039E-3,-7.284813049657E-2,0.E0));
#158=DIRECTION('',(0.E0,0.E0,1.E0));
#159=DIRECTION('',(1.E0,0.E0,0.E0));
#160=AXIS2_PLACEMENT_3D('',#157,#158,#159);
#161=PLANE('',#160);
#162=ORIENTED_EDGE('',*,*,#137,.F.);
#164=ORIENTED_EDGE('',*,*,#163,.F.);
#166=ORIENTED_EDGE('',*,*,#165,.F.);
#167=ORIENTED_EDGE('',*,*,#148,.T.);
#168=EDGE_LOOP('',(#162,#164,#166,#167));
#169=FACE_OUTER_BOUND('',#168,.F.);
#171=CARTESIAN_POINT('',(-4.921259842520E-3,-8.070866141732E-2,0.E0));
#172=DIRECTION('',(-1.E0,0.E0,0.E0));
#173=DIRECTION('',(0.E0,1.E0,0.E0));
#174=AXIS2_PLACEMENT_3D('',#171,#172,#173);
#175=PLANE('',#174);
#176=ORIENTED_EDGE('',*,*,#135,.F.);
#178=ORIENTED_EDGE('',*,*,#177,.F.);
#180=ORIENTED_EDGE('',*,*,#179,.T.);
#181=ORIENTED_EDGE('',*,*,#163,.T.);
#182=EDGE_LOOP('',(#176,#178,#180,#181));
#183=FACE_OUTER_BOUND('',#182,.F.);
#185=CARTESIAN_POINT('',(-9.842519685039E-3,-7.284813049657E-2,
3.937007874016E-3));
#186=DIRECTION('',(0.E0,0.E0,1.E0));
#187=DIRECTION('',(1.E0,0.E0,0.E0));
#188=AXIS2_PLACEMENT_3D('',#185,#186,#187);
#189=PLANE('',#188);
#190=ORIENTED_EDGE('',*,*,#133,.T.);
#191=ORIENTED_EDGE('',*,*,#152,.F.);
#193=ORIENTED_EDGE('',*,*,#192,.F.);
#194=ORIENTED_EDGE('',*,*,#177,.T.);
#195=EDGE_LOOP('',(#190,#191,#193,#194));
#196=FACE_OUTER_BOUND('',#195,.F.);
#198=CARTESIAN_POINT('',(-9.842519685039E-3,-6.791338582677E-2,0.E0));
#199=DIRECTION('',(0.E0,0.E0,-1.E0));
#200=DIRECTION('',(1.E0,0.E0,0.E0));
#201=AXIS2_PLACEMENT_3D('',#198,#199,#200);
#202=CYLINDRICAL_SURFACE('',#201,4.921259842520E-3);
#203=ORIENTED_EDGE('',*,*,#165,.T.);
#204=ORIENTED_EDGE('',*,*,#179,.F.);
#205=ORIENTED_EDGE('',*,*,#192,.T.);
#206=ORIENTED_EDGE('',*,*,#150,.F.);
#207=EDGE_LOOP('',(#203,#204,#205,#206));
#208=FACE_OUTER_BOUND('',#207,.F.);
#212=FILL_AREA_STYLE_COLOUR('',#1);
#213=FILL_AREA_STYLE('',(#212));
#214=SURFACE_STYLE_FILL_AREA(#213);
#215=SURFACE_SIDE_STYLE('',(#214));
#216=SURFACE_STYLE_USAGE(.BOTH.,#215);
#217=PRESENTATION_STYLE_ASSIGNMENT((#216));
#22=STYLED_ITEM('',(#217),#211);
#219=LENGTH_MEASURE_WITH_UNIT(LENGTH_MEASURE(2.54E1),#218);
#220=(CONVERSION_BASED_UNIT('INCH',#219)LENGTH_UNIT()NAMED_UNIT(*));
#222=PLANE_ANGLE_MEASURE_WITH_UNIT(PLANE_ANGLE_MEASURE(1.745329251994E-2),#221);
#223=(CONVERSION_BASED_UNIT('DEGREE',#222)NAMED_UNIT(*)PLANE_ANGLE_UNIT());
#225=UNCERTAINTY_MEASURE_WITH_UNIT(LENGTH_MEASURE(2.064844216999E-6),#220,
'closure',
'Maximum model space distance between geometric entities at asserted connectivities');
#227=CARTESIAN_POINT('',(0.E0,0.E0,0.E0));
#228=DIRECTION('',(0.E0,0.E0,1.E0));
#229=DIRECTION('',(1.E0,0.E0,0.E0));
#232=MECHANICAL_DESIGN_GEOMETRIC_PRESENTATION_REPRESENTATION('',(#30,#37,#44,
#51,#58,#66,#73,#80,#87,#95,#102,#109,#22),#226);
#233=APPLICATION_CONTEXT('automotive design');
#234=APPLICATION_PROTOCOL_DEFINITION('international standard',
'config_control_design',1994,#233);
#235=PRODUCT_DEFINITION_CONTEXT('',#233,'design');
#236=PRODUCT_CONTEXT('',#233,'mechanical');
#237=PRODUCT('BODY6-4149','BODY6-4149','NOT SPECIFIED',(#236));
#238=PRODUCT_DEFINITION_FORMATION_WITH_SPECIFIED_SOURCE('1','LAST_VERSION',#237,
.MADE.);
#246=LENGTH_MEASURE_WITH_UNIT(LENGTH_MEASURE(2.54E1),#245);
#247=(CONVERSION_BASED_UNIT('INCH',#246)LENGTH_UNIT()NAMED_UNIT(*));
#248=DERIVED_UNIT_ELEMENT(#247,2.E0);
#249=AREA_UNIT((#248));
#250=MEASURE_REPRESENTATION_ITEM('surface area measure',AREA_MEASURE(
3.408572933763E-1),#249);
#255=LENGTH_MEASURE_WITH_UNIT(LENGTH_MEASURE(2.54E1),#254);
#256=(CONVERSION_BASED_UNIT('INCH',#255)LENGTH_UNIT()NAMED_UNIT(*));
#257=DERIVED_UNIT_ELEMENT(#256,3.E0);
#258=VOLUME_UNIT((#257));
#259=MEASURE_REPRESENTATION_ITEM('volume measure',VOLUME_MEASURE(
1.057936926051E-2),#258);
#263=CARTESIAN_POINT('centre point',(-2.499999999663E-1,-1.837492922548E0,
5.E-2));
#268=LENGTH_MEASURE_WITH_UNIT(LENGTH_MEASURE(2.54E1),#267);
#269=(CONVERSION_BASED_UNIT('INCH',#268)LENGTH_UNIT()NAMED_UNIT(*));
#270=DERIVED_UNIT_ELEMENT(#269,2.E0);
#271=AREA_UNIT((#270));
#272=MEASURE_REPRESENTATION_ITEM('surface area measure',AREA_MEASURE(
3.408572933763E-1),#271);
#277=LENGTH_MEASURE_WITH_UNIT(LENGTH_MEASURE(2.54E1),#276);
#278=(CONVERSION_BASED_UNIT('INCH',#277)LENGTH_UNIT()NAMED_UNIT(*));
#279=DERIVED_UNIT_ELEMENT(#278,3.E0);
#280=VOLUME_UNIT((#279));
#281=MEASURE_REPRESENTATION_ITEM('volume measure',VOLUME_MEASURE(
1.057936926051E-2),#280);
#285=CARTESIAN_POINT('centre point',(-2.499999999663E-1,-1.837492922548E0,
5.E-2));
#1=COLOUR_RGB('',7.333333333333E-1,7.725490196078E-1,7.960784313725E-1);
#2=DRAUGHTING_PRE_DEFINED_COLOUR('green');
#3=COLOUR_RGB('',1.1E-2,1.2E-2,1.E0);
#4=COLOUR_RGB('',1.921568627451E-1,1.921568627451E-1,1.921568627451E-1);
#5=COLOUR_RGB('',2.352941176471E-1,2.352941176471E-1,2.352941176471E-1);
#6=COLOUR_RGB('',3.137254901961E-1,3.137254901961E-1,3.137254901961E-1);
#7=COLOUR_RGB('',4.1E-1,2.61589E-1,1.12848E-1);
#8=COLOUR_RGB('',5.04854E-1,1.5455E-2,1.5455E-2);
#9=COLOUR_RGB('',6.274509803922E-1,6.274509803922E-1,6.274509803922E-1);
#10=COLOUR_RGB('',6.35294E-1,6.86275E-1,7.4902E-1);
#11=COLOUR_RGB('',6.40777E-1,6.40777E-1,6.40777E-1);
#12=COLOUR_RGB('',6.69062E-1,6.69903E-1,6.55217E-1);
#13=COLOUR_RGB('',7.333333333333E-1,7.725490196078E-1,7.960784313725E-1);
#14=COLOUR_RGB('',8.313725490196E-1,0.E0,0.E0);
#15=COLOUR_RGB('',8.666666666667E-1,8.666666666667E-1,8.666666666667E-1);
#16=COLOUR_RGB('',9.21569E-1,7.05882E-1,4.70588E-1);
#17=DRAUGHTING_PRE_DEFINED_COLOUR('red');
#18=DRAUGHTING_PRE_DEFINED_COLOUR('yellow');
#19=COLOUR_RGB('',1.E0,1.E0,5.3E-1);
#20=COLOUR_RGB('',1.E0,1.E0,9.49E-1);
#21=DRAUGHTING_PRE_DEFINED_COLOUR('white');
#63=CIRCLE('',#62,4.921259842520E-3);
#92=CIRCLE('',#91,4.921259842520E-3);
#131=EDGE_CURVE('',#112,#113,#26,.T.);
#133=EDGE_CURVE('',#117,#112,#34,.T.);
#135=EDGE_CURVE('',#117,#115,#70,.T.);
#137=EDGE_CURVE('',#115,#113,#48,.T.);
#141=ADVANCED_FACE('',(#140),#130,.F.);
#148=EDGE_CURVE('',#123,#113,#41,.T.);
#150=EDGE_CURVE('',#123,#125,#106,.T.);
#152=EDGE_CURVE('',#125,#112,#84,.T.);
#156=ADVANCED_FACE('',(#155),#146,.T.);
#163=EDGE_CURVE('',#119,#115,#55,.T.);
#165=EDGE_CURVE('',#123,#119,#63,.T.);
#170=ADVANCED_FACE('',(#169),#161,.F.);
#177=EDGE_CURVE('',#121,#117,#77,.T.);
#179=EDGE_CURVE('',#121,#119,#99,.T.);
#184=ADVANCED_FACE('',(#183),#175,.F.);
#192=EDGE_CURVE('',#121,#125,#92,.T.);
#197=ADVANCED_FACE('',(#196),#189,.T.);
#209=ADVANCED_FACE('',(#208),#202,.T.);
#210=CLOSED_SHELL('',(#141,#156,#170,#184,#197,#209));
#211=MANIFOLD_SOLID_BREP('',#210);
#218=(LENGTH_UNIT()NAMED_UNIT(*)SI_UNIT(.MILLI.,.METRE.));
#221=(NAMED_UNIT(*)PLANE_ANGLE_UNIT()SI_UNIT($,.RADIAN.));
#224=(NAMED_UNIT(*)SI_UNIT($,.STERADIAN.)SOLID_ANGLE_UNIT());
#226=(GEOMETRIC_REPRESENTATION_CONTEXT(3)GLOBAL_UNCERTAINTY_ASSIGNED_CONTEXT((
#225))GLOBAL_UNIT_ASSIGNED_CONTEXT((#220,#223,#224))REPRESENTATION_CONTEXT
('ID1','3'));
#230=AXIS2_PLACEMENT_3D('',#227,#228,#229);
#231=ADVANCED_BREP_SHAPE_REPRESENTATION('',(#230,#211),#226);
#239=PRODUCT_DEFINITION('design','',#238,#235);
#240=PRODUCT_DEFINITION_SHAPE('','SHAPE FOR BODY6-4149.',#239);
#241=SHAPE_ASPECT('','solid data associated with BODY6-4149',#240,.F.);
#242=PROPERTY_DEFINITION('',
'shape for solid data with which properties are associated',#241);
#243=SHAPE_REPRESENTATION('',(#211),#226);
#244=SHAPE_DEFINITION_REPRESENTATION(#242,#243);
#245=(LENGTH_UNIT()NAMED_UNIT(*)SI_UNIT(.MILLI.,.METRE.));
#251=PROPERTY_DEFINITION('geometric validation property','area of BODY6-4149',
#241);
#252=REPRESENTATION('surface area',(#250),#226);
#253=PROPERTY_DEFINITION_REPRESENTATION(#251,#252);
#254=(LENGTH_UNIT()NAMED_UNIT(*)SI_UNIT(.MILLI.,.METRE.));
#260=PROPERTY_DEFINITION('geometric validation property','volume of BODY6-4149',
#241);
#261=REPRESENTATION('volume',(#259),#226);
#262=PROPERTY_DEFINITION_REPRESENTATION(#260,#261);
#264=PROPERTY_DEFINITION('geometric validation property',
'centroid of BODY6-4149',#241);
#265=REPRESENTATION('centroid',(#263),#226);
#266=PROPERTY_DEFINITION_REPRESENTATION(#264,#265);
#267=(LENGTH_UNIT()NAMED_UNIT(*)SI_UNIT(.MILLI.,.METRE.));
#273=PROPERTY_DEFINITION('geometric validation property','area of BODY6-4149',
#240);
#274=REPRESENTATION('surface area',(#272),#226);
#275=PROPERTY_DEFINITION_REPRESENTATION(#273,#274);
#276=(LENGTH_UNIT()NAMED_UNIT(*)SI_UNIT(.MILLI.,.METRE.));
#282=PROPERTY_DEFINITION('geometric validation property','volume of BODY6-4149',
#240);
#283=REPRESENTATION('volume',(#281),#226);
#284=PROPERTY_DEFINITION_REPRESENTATION(#282,#283);
#286=PROPERTY_DEFINITION('geometric validation property',
'centroid of BODY6-4149',#240);
#287=REPRESENTATION('centroid',(#285),#226);
#288=PROPERTY_DEFINITION_REPRESENTATION(#286,#287);
#289=SHAPE_DEFINITION_REPRESENTATION(#240,#231);
ENDSEC;
END-ISO-10303-21;
