ISO-10303-21;
HEADER;
FILE_DESCRIPTION((''),'2;1');
FILE_NAME('BOSS-EXTRUDE3','2026-06-15T13:46:39',('Esia'),(''),
'CREO PARAMETRIC BY PTC INC, 2025102','CREO PARAMETRIC BY PTC INC, 2025102','');
FILE_SCHEMA((
'AP242_MANAGED_MODEL_BASED_3D_ENGINEERING_MIM_LF { 1 0 10303 442 1 1 4 }'));
ENDSEC;
DATA;
#17=CARTESIAN_POINT('',(0.E0,0.E0,-3.937007874016E-3));
#18=DIRECTION('',(0.E0,0.E0,-1.E0));
#19=DIRECTION('',(-1.E0,0.E0,0.E0));
#20=AXIS2_PLACEMENT_3D('',#17,#18,#19);
#22=DRAUGHTING_PRE_DEFINED_CURVE_FONT('continuous');
#23=CURVE_STYLE('',#22,POSITIVE_LENGTH_MEASURE(2.E-2),#9);
#24=PRESENTATION_STYLE_ASSIGNMENT((#23));
#25=STYLED_ITEM('',(#24),#21);
#26=CARTESIAN_POINT('',(0.E0,0.E0,-3.937007874016E-3));
#27=DIRECTION('',(0.E0,0.E0,-1.E0));
#28=DIRECTION('',(1.E0,0.E0,0.E0));
#29=AXIS2_PLACEMENT_3D('',#26,#27,#28);
#31=CURVE_STYLE('',#22,POSITIVE_LENGTH_MEASURE(2.E-2),#9);
#32=PRESENTATION_STYLE_ASSIGNMENT((#31));
#33=STYLED_ITEM('',(#32),#30);
#34=DIRECTION('',(0.E0,0.E0,1.E0));
#35=VECTOR('',#34,3.937007874016E-3);
#36=CARTESIAN_POINT('',(-2.145086665658E-2,0.E0,-3.937007874016E-3));
#37=LINE('',#36,#35);
#38=CURVE_STYLE('',#22,POSITIVE_LENGTH_MEASURE(2.E-2),#9);
#39=PRESENTATION_STYLE_ASSIGNMENT((#38));
#40=STYLED_ITEM('',(#39),#37);
#41=DIRECTION('',(0.E0,0.E0,1.E0));
#42=VECTOR('',#41,3.937007874016E-3);
#43=CARTESIAN_POINT('',(2.145086665658E-2,0.E0,-3.937007874016E-3));
#44=LINE('',#43,#42);
#45=CURVE_STYLE('',#22,POSITIVE_LENGTH_MEASURE(2.E-2),#9);
#46=PRESENTATION_STYLE_ASSIGNMENT((#45));
#47=STYLED_ITEM('',(#46),#44);
#48=CARTESIAN_POINT('',(0.E0,0.E0,0.E0));
#49=DIRECTION('',(0.E0,0.E0,1.E0));
#50=DIRECTION('',(-1.E0,0.E0,0.E0));
#51=AXIS2_PLACEMENT_3D('',#48,#49,#50);
#53=CURVE_STYLE('',#22,POSITIVE_LENGTH_MEASURE(2.E-2),#9);
#54=PRESENTATION_STYLE_ASSIGNMENT((#53));
#55=STYLED_ITEM('',(#54),#52);
#56=CARTESIAN_POINT('',(0.E0,0.E0,0.E0));
#57=DIRECTION('',(0.E0,0.E0,1.E0));
#58=DIRECTION('',(1.E0,0.E0,0.E0));
#59=AXIS2_PLACEMENT_3D('',#56,#57,#58);
#61=CURVE_STYLE('',#22,POSITIVE_LENGTH_MEASURE(2.E-2),#9);
#62=PRESENTATION_STYLE_ASSIGNMENT((#61));
#63=STYLED_ITEM('',(#62),#60);
#64=CARTESIAN_POINT('',(2.145086665658E-2,0.E0,-3.937007874016E-3));
#65=CARTESIAN_POINT('',(2.145086665658E-2,0.E0,0.E0));
#66=VERTEX_POINT('',#64);
#67=VERTEX_POINT('',#65);
#68=CARTESIAN_POINT('',(-2.145086665658E-2,0.E0,-3.937007874016E-3));
#69=CARTESIAN_POINT('',(-2.145086665658E-2,0.E0,0.E0));
#70=VERTEX_POINT('',#68);
#71=VERTEX_POINT('',#69);
#72=CARTESIAN_POINT('',(0.E0,0.E0,-3.937007874016E-3));
#73=DIRECTION('',(0.E0,0.E0,1.E0));
#74=DIRECTION('',(1.E0,0.E0,0.E0));
#75=AXIS2_PLACEMENT_3D('',#72,#73,#74);
#76=CYLINDRICAL_SURFACE('',#75,2.145086665658E-2);
#78=ORIENTED_EDGE('',*,*,#77,.T.);
#80=ORIENTED_EDGE('',*,*,#79,.T.);
#82=ORIENTED_EDGE('',*,*,#81,.T.);
#84=ORIENTED_EDGE('',*,*,#83,.F.);
#85=EDGE_LOOP('',(#78,#80,#82,#84));
#86=FACE_OUTER_BOUND('',#85,.F.);
#88=CARTESIAN_POINT('',(0.E0,0.E0,-3.937007874016E-3));
#89=DIRECTION('',(0.E0,0.E0,-1.E0));
#90=DIRECTION('',(-1.E0,0.E0,0.E0));
#91=AXIS2_PLACEMENT_3D('',#88,#89,#90);
#92=PLANE('',#91);
#93=ORIENTED_EDGE('',*,*,#77,.F.);
#95=ORIENTED_EDGE('',*,*,#94,.F.);
#96=EDGE_LOOP('',(#93,#95));
#97=FACE_OUTER_BOUND('',#96,.F.);
#99=CARTESIAN_POINT('',(0.E0,0.E0,-3.937007874016E-3));
#100=DIRECTION('',(0.E0,0.E0,1.E0));
#101=DIRECTION('',(1.E0,0.E0,0.E0));
#102=AXIS2_PLACEMENT_3D('',#99,#100,#101);
#103=CYLINDRICAL_SURFACE('',#102,2.145086665658E-2);
#104=ORIENTED_EDGE('',*,*,#94,.T.);
#105=ORIENTED_EDGE('',*,*,#83,.T.);
#107=ORIENTED_EDGE('',*,*,#106,.T.);
#108=ORIENTED_EDGE('',*,*,#79,.F.);
#109=EDGE_LOOP('',(#104,#105,#107,#108));
#110=FACE_OUTER_BOUND('',#109,.F.);
#112=CARTESIAN_POINT('',(0.E0,0.E0,0.E0));
#113=DIRECTION('',(0.E0,0.E0,-1.E0));
#114=DIRECTION('',(-1.E0,0.E0,0.E0));
#115=AXIS2_PLACEMENT_3D('',#112,#113,#114);
#116=PLANE('',#115);
#117=ORIENTED_EDGE('',*,*,#106,.F.);
#118=ORIENTED_EDGE('',*,*,#81,.F.);
#119=EDGE_LOOP('',(#117,#118));
#120=FACE_OUTER_BOUND('',#119,.F.);
#124=FILL_AREA_STYLE_COLOUR('',#9);
#125=FILL_AREA_STYLE('',(#124));
#126=SURFACE_STYLE_FILL_AREA(#125);
#127=SURFACE_SIDE_STYLE('',(#126));
#128=SURFACE_STYLE_USAGE(.BOTH.,#127);
#129=PRESENTATION_STYLE_ASSIGNMENT((#128));
#16=STYLED_ITEM('',(#129),#123);
#130=PRESENTATION_LAYER_ASSIGNMENT('SHELL_448','',(#16,#87,#98,#111,#121));
#132=LENGTH_MEASURE_WITH_UNIT(LENGTH_MEASURE(2.54E1),#131);
#133=(CONVERSION_BASED_UNIT('INCH',#132)LENGTH_UNIT()NAMED_UNIT(*));
#135=PLANE_ANGLE_MEASURE_WITH_UNIT(PLANE_ANGLE_MEASURE(1.745329251994E-2),#134);
#136=(CONVERSION_BASED_UNIT('DEGREE',#135)NAMED_UNIT(*)PLANE_ANGLE_UNIT());
#138=UNCERTAINTY_MEASURE_WITH_UNIT(LENGTH_MEASURE(6.081805476500E-6),#133,
'closure',
'Maximum model space distance between geometric entities at asserted connectivities');
#140=CARTESIAN_POINT('',(0.E0,0.E0,0.E0));
#141=DIRECTION('',(0.E0,0.E0,1.E0));
#142=DIRECTION('',(1.E0,0.E0,0.E0));
#145=MECHANICAL_DESIGN_GEOMETRIC_PRESENTATION_REPRESENTATION('',(#25,#33,#40,
#47,#55,#63,#16),#139);
#146=APPLICATION_CONTEXT('automotive design');
#147=APPLICATION_PROTOCOL_DEFINITION('international standard',
'config_control_design',1994,#146);
#148=PRODUCT_DEFINITION_CONTEXT('',#146,'design');
#149=PRODUCT_CONTEXT('',#146,'mechanical');
#150=PRODUCT('BOSS-EXTRUDE3','BOSS-EXTRUDE3','NOT SPECIFIED',(#149));
#151=PRODUCT_DEFINITION_FORMATION_WITH_SPECIFIED_SOURCE('1','LAST_VERSION',#150,
.MADE.);
#159=LENGTH_MEASURE_WITH_UNIT(LENGTH_MEASURE(2.54E1),#158);
#160=(CONVERSION_BASED_UNIT('INCH',#159)LENGTH_UNIT()NAMED_UNIT(*));
#161=DERIVED_UNIT_ELEMENT(#160,2.E0);
#162=AREA_UNIT((#161));
#163=MEASURE_REPRESENTATION_ITEM('surface area measure',AREA_MEASURE(
2.207590355790E0),#162);
#168=LENGTH_MEASURE_WITH_UNIT(LENGTH_MEASURE(2.54E1),#167);
#169=(CONVERSION_BASED_UNIT('INCH',#168)LENGTH_UNIT()NAMED_UNIT(*));
#170=DERIVED_UNIT_ELEMENT(#169,3.E0);
#171=VOLUME_UNIT((#170));
#172=MEASURE_REPRESENTATION_ITEM('volume measure',VOLUME_MEASURE(
9.326248697708E-2),#171);
#176=CARTESIAN_POINT('centre point',(0.E0,0.E0,-5.E-2));
#181=LENGTH_MEASURE_WITH_UNIT(LENGTH_MEASURE(2.54E1),#180);
#182=(CONVERSION_BASED_UNIT('INCH',#181)LENGTH_UNIT()NAMED_UNIT(*));
#183=DERIVED_UNIT_ELEMENT(#182,2.E0);
#184=AREA_UNIT((#183));
#185=MEASURE_REPRESENTATION_ITEM('surface area measure',AREA_MEASURE(
2.207590355790E0),#184);
#190=LENGTH_MEASURE_WITH_UNIT(LENGTH_MEASURE(2.54E1),#189);
#191=(CONVERSION_BASED_UNIT('INCH',#190)LENGTH_UNIT()NAMED_UNIT(*));
#192=DERIVED_UNIT_ELEMENT(#191,3.E0);
#193=VOLUME_UNIT((#192));
#194=MEASURE_REPRESENTATION_ITEM('volume measure',VOLUME_MEASURE(
9.326248697708E-2),#193);
#198=CARTESIAN_POINT('centre point',(0.E0,0.E0,-5.E-2));
#1=DRAUGHTING_PRE_DEFINED_COLOUR('green');
#2=COLOUR_RGB('',1.1E-2,1.2E-2,1.E0);
#3=COLOUR_RGB('',2.352941176471E-1,2.352941176471E-1,2.352941176471E-1);
#4=COLOUR_RGB('',4.1E-1,2.61589E-1,1.12848E-1);
#5=COLOUR_RGB('',5.04854E-1,1.5455E-2,1.5455E-2);
#6=COLOUR_RGB('',6.35294E-1,6.86275E-1,7.4902E-1);
#7=COLOUR_RGB('',6.40777E-1,6.40777E-1,6.40777E-1);
#8=COLOUR_RGB('',6.69062E-1,6.69903E-1,6.55217E-1);
#9=COLOUR_RGB('',7.921568627451E-1,8.196078431373E-1,9.333333333333E-1);
#10=COLOUR_RGB('',9.21569E-1,7.05882E-1,4.70588E-1);
#11=DRAUGHTING_PRE_DEFINED_COLOUR('red');
#12=DRAUGHTING_PRE_DEFINED_COLOUR('yellow');
#13=COLOUR_RGB('',1.E0,1.E0,5.3E-1);
#14=COLOUR_RGB('',1.E0,1.E0,9.49E-1);
#15=DRAUGHTING_PRE_DEFINED_COLOUR('white');
#21=CIRCLE('',#20,2.145086665658E-2);
#30=CIRCLE('',#29,2.145086665658E-2);
#52=CIRCLE('',#51,2.145086665658E-2);
#60=CIRCLE('',#59,2.145086665658E-2);
#77=EDGE_CURVE('',#70,#66,#21,.T.);
#79=EDGE_CURVE('',#66,#67,#44,.T.);
#81=EDGE_CURVE('',#67,#71,#60,.T.);
#83=EDGE_CURVE('',#70,#71,#37,.T.);
#87=ADVANCED_FACE('',(#86),#76,.T.);
#94=EDGE_CURVE('',#66,#70,#30,.T.);
#98=ADVANCED_FACE('',(#97),#92,.T.);
#106=EDGE_CURVE('',#71,#67,#52,.T.);
#111=ADVANCED_FACE('',(#110),#103,.T.);
#121=ADVANCED_FACE('',(#120),#116,.F.);
#122=CLOSED_SHELL('',(#87,#98,#111,#121));
#123=MANIFOLD_SOLID_BREP('',#122);
#131=(LENGTH_UNIT()NAMED_UNIT(*)SI_UNIT(.MILLI.,.METRE.));
#134=(NAMED_UNIT(*)PLANE_ANGLE_UNIT()SI_UNIT($,.RADIAN.));
#137=(NAMED_UNIT(*)SI_UNIT($,.STERADIAN.)SOLID_ANGLE_UNIT());
#139=(GEOMETRIC_REPRESENTATION_CONTEXT(3)GLOBAL_UNCERTAINTY_ASSIGNED_CONTEXT((
#138))GLOBAL_UNIT_ASSIGNED_CONTEXT((#133,#136,#137))REPRESENTATION_CONTEXT
('ID1','3'));
#143=AXIS2_PLACEMENT_3D('',#140,#141,#142);
#144=ADVANCED_BREP_SHAPE_REPRESENTATION('',(#143,#123),#139);
#152=PRODUCT_DEFINITION('design','',#151,#148);
#153=PRODUCT_DEFINITION_SHAPE('','SHAPE FOR BOSS-EXTRUDE3.',#152);
#154=SHAPE_ASPECT('','solid data associated with BOSS-EXTRUDE3',#153,.F.);
#155=PROPERTY_DEFINITION('',
'shape for solid data with which properties are associated',#154);
#156=SHAPE_REPRESENTATION('',(#123),#139);
#157=SHAPE_DEFINITION_REPRESENTATION(#155,#156);
#158=(LENGTH_UNIT()NAMED_UNIT(*)SI_UNIT(.MILLI.,.METRE.));
#164=PROPERTY_DEFINITION('geometric validation property',
'area of BOSS-EXTRUDE3',#154);
#165=REPRESENTATION('surface area',(#163),#139);
#166=PROPERTY_DEFINITION_REPRESENTATION(#164,#165);
#167=(LENGTH_UNIT()NAMED_UNIT(*)SI_UNIT(.MILLI.,.METRE.));
#173=PROPERTY_DEFINITION('geometric validation property',
'volume of BOSS-EXTRUDE3',#154);
#174=REPRESENTATION('volume',(#172),#139);
#175=PROPERTY_DEFINITION_REPRESENTATION(#173,#174);
#177=PROPERTY_DEFINITION('geometric validation property',
'centroid of BOSS-EXTRUDE3',#154);
#178=REPRESENTATION('centroid',(#176),#139);
#179=PROPERTY_DEFINITION_REPRESENTATION(#177,#178);
#180=(LENGTH_UNIT()NAMED_UNIT(*)SI_UNIT(.MILLI.,.METRE.));
#186=PROPERTY_DEFINITION('geometric validation property',
'area of BOSS-EXTRUDE3',#153);
#187=REPRESENTATION('surface area',(#185),#139);
#188=PROPERTY_DEFINITION_REPRESENTATION(#186,#187);
#189=(LENGTH_UNIT()NAMED_UNIT(*)SI_UNIT(.MILLI.,.METRE.));
#195=PROPERTY_DEFINITION('geometric validation property',
'volume of BOSS-EXTRUDE3',#153);
#196=REPRESENTATION('volume',(#194),#139);
#197=PROPERTY_DEFINITION_REPRESENTATION(#195,#196);
#199=PROPERTY_DEFINITION('geometric validation property',
'centroid of BOSS-EXTRUDE3',#153);
#200=REPRESENTATION('centroid',(#198),#139);
#201=PROPERTY_DEFINITION_REPRESENTATION(#199,#200);
#202=SHAPE_DEFINITION_REPRESENTATION(#153,#144);
ENDSEC;
END-ISO-10303-21;
