ISO-10303-21;
HEADER;
FILE_DESCRIPTION((''),'2;1');
FILE_NAME('BOSS-EXTRUDE2','2026-06-15T13:46:23',('Esia'),(''),
'CREO PARAMETRIC BY PTC INC, 2025102','CREO PARAMETRIC BY PTC INC, 2025102','');
FILE_SCHEMA((
'AP242_MANAGED_MODEL_BASED_3D_ENGINEERING_MIM_LF { 1 0 10303 442 1 1 4 }'));
ENDSEC;
DATA;
#17=DIRECTION('',(0.E0,-1.E0,0.E0));
#18=VECTOR('',#17,5.905511811024E-3);
#19=CARTESIAN_POINT('',(1.003567477850E0,-2.618110236220E-2,9.292507734824E-2));
#20=LINE('',#19,#18);
#21=DRAUGHTING_PRE_DEFINED_CURVE_FONT('continuous');
#22=CURVE_STYLE('',#21,POSITIVE_LENGTH_MEASURE(2.E-2),#8);
#23=PRESENTATION_STYLE_ASSIGNMENT((#22));
#24=STYLED_ITEM('',(#23),#20);
#25=DIRECTION('',(0.E0,1.E0,0.E0));
#26=VECTOR('',#25,5.905511811024E-3);
#27=CARTESIAN_POINT('',(1.012746705784E0,-3.208661417323E-2,7.324003797816E-2));
#28=LINE('',#27,#26);
#29=CURVE_STYLE('',#21,POSITIVE_LENGTH_MEASURE(2.E-2),#8);
#30=PRESENTATION_STYLE_ASSIGNMENT((#29));
#31=STYLED_ITEM('',(#30),#28);
#32=DIRECTION('',(-4.226161184309E-1,0.E0,9.063087864753E-1));
#33=VECTOR('',#32,2.172001382292E-2);
#34=CARTESIAN_POINT('',(1.012746705784E0,-3.208661417323E-2,7.324003797816E-2));
#35=LINE('',#34,#33);
#36=CURVE_STYLE('',#21,POSITIVE_LENGTH_MEASURE(2.E-2),#8);
#37=PRESENTATION_STYLE_ASSIGNMENT((#36));
#38=STYLED_ITEM('',(#37),#35);
#39=CARTESIAN_POINT('',(1.029158014012E0,-3.208661417323E-2,6.930303151213E-2));
#40=DIRECTION('',(0.E0,-1.E0,0.E0));
#41=DIRECTION('',(0.E0,0.E0,-1.E0));
#42=AXIS2_PLACEMENT_3D('',#39,#40,#41);
#44=CURVE_STYLE('',#21,POSITIVE_LENGTH_MEASURE(2.E-2),#8);
#45=PRESENTATION_STYLE_ASSIGNMENT((#44));
#46=STYLED_ITEM('',(#45),#43);
#47=DIRECTION('',(1.E0,0.E0,0.E0));
#48=VECTOR('',#47,1.641130822850E-2);
#49=CARTESIAN_POINT('',(1.012746705784E0,-3.208661417323E-2,7.324003797816E-2));
#50=LINE('',#49,#48);
#51=CURVE_STYLE('',#21,POSITIVE_LENGTH_MEASURE(2.E-2),#8);
#52=PRESENTATION_STYLE_ASSIGNMENT((#51));
#53=STYLED_ITEM('',(#52),#50);
#54=DIRECTION('',(-1.E0,0.E0,0.E0));
#55=VECTOR('',#54,1.641130822850E-2);
#56=CARTESIAN_POINT('',(1.029158014012E0,-2.618110236220E-2,7.324003797816E-2));
#57=LINE('',#56,#55);
#58=CURVE_STYLE('',#21,POSITIVE_LENGTH_MEASURE(2.E-2),#8);
#59=PRESENTATION_STYLE_ASSIGNMENT((#58));
#60=STYLED_ITEM('',(#59),#57);
#61=DIRECTION('',(4.226161184309E-1,0.E0,-9.063087864753E-1));
#62=VECTOR('',#61,2.172001382292E-2);
#63=CARTESIAN_POINT('',(1.003567477850E0,-2.618110236220E-2,9.292507734824E-2));
#64=LINE('',#63,#62);
#65=CURVE_STYLE('',#21,POSITIVE_LENGTH_MEASURE(2.E-2),#8);
#66=PRESENTATION_STYLE_ASSIGNMENT((#65));
#67=STYLED_ITEM('',(#66),#64);
#68=CARTESIAN_POINT('',(1.029158014012E0,-2.618110236220E-2,6.930303151213E-2));
#69=DIRECTION('',(0.E0,1.E0,0.E0));
#70=DIRECTION('',(0.E0,0.E0,1.E0));
#71=AXIS2_PLACEMENT_3D('',#68,#69,#70);
#73=CURVE_STYLE('',#21,POSITIVE_LENGTH_MEASURE(2.E-2),#8);
#74=PRESENTATION_STYLE_ASSIGNMENT((#73));
#75=STYLED_ITEM('',(#74),#72);
#76=DIRECTION('',(1.E0,0.E0,0.E0));
#77=VECTOR('',#76,1.125984492264E-1);
#78=CARTESIAN_POINT('',(8.909690286231E-1,-3.208661417323E-2,
9.292507734824E-2));
#79=LINE('',#78,#77);
#80=CURVE_STYLE('',#21,POSITIVE_LENGTH_MEASURE(2.E-2),#8);
#81=PRESENTATION_STYLE_ASSIGNMENT((#80));
#82=STYLED_ITEM('',(#81),#79);
#83=DIRECTION('',(-1.E0,0.E0,0.E0));
#84=VECTOR('',#83,1.125984492264E-1);
#85=CARTESIAN_POINT('',(1.003567477850E0,-2.618110236220E-2,9.292507734824E-2));
#86=LINE('',#85,#84);
#87=CURVE_STYLE('',#21,POSITIVE_LENGTH_MEASURE(2.E-2),#8);
#88=PRESENTATION_STYLE_ASSIGNMENT((#87));
#89=STYLED_ITEM('',(#88),#86);
#90=DIRECTION('',(0.E0,0.E0,1.E0));
#91=VECTOR('',#90,1.771653261710E-2);
#92=CARTESIAN_POINT('',(8.909690286231E-1,-3.208661417323E-2,
7.520854473114E-2));
#93=LINE('',#92,#91);
#94=CURVE_STYLE('',#21,POSITIVE_LENGTH_MEASURE(2.E-2),#8);
#95=PRESENTATION_STYLE_ASSIGNMENT((#94));
#96=STYLED_ITEM('',(#95),#93);
#97=DIRECTION('',(0.E0,0.E0,-1.E0));
#98=VECTOR('',#97,1.771653261710E-2);
#99=CARTESIAN_POINT('',(8.909690286231E-1,-2.618110236220E-2,
9.292507734824E-2));
#100=LINE('',#99,#98);
#101=CURVE_STYLE('',#21,POSITIVE_LENGTH_MEASURE(2.E-2),#8);
#102=PRESENTATION_STYLE_ASSIGNMENT((#101));
#103=STYLED_ITEM('',(#102),#100);
#104=DIRECTION('',(0.E0,1.E0,0.E0));
#105=VECTOR('',#104,5.905511811024E-3);
#106=CARTESIAN_POINT('',(8.909690286231E-1,-3.208661417323E-2,
9.292507734824E-2));
#107=LINE('',#106,#105);
#108=CURVE_STYLE('',#21,POSITIVE_LENGTH_MEASURE(2.E-2),#8);
#109=PRESENTATION_STYLE_ASSIGNMENT((#108));
#110=STYLED_ITEM('',(#109),#107);
#111=DIRECTION('',(-1.E0,0.E0,0.E0));
#112=VECTOR('',#111,1.094488459309E-1);
#113=CARTESIAN_POINT('',(1.000417874554E0,-3.208661417323E-2,
7.520854473114E-2));
#114=LINE('',#113,#112);
#115=CURVE_STYLE('',#21,POSITIVE_LENGTH_MEASURE(2.E-2),#8);
#116=PRESENTATION_STYLE_ASSIGNMENT((#115));
#117=STYLED_ITEM('',(#116),#114);
#118=DIRECTION('',(1.E0,0.E0,0.E0));
#119=VECTOR('',#118,1.094488459309E-1);
#120=CARTESIAN_POINT('',(8.909690286231E-1,-2.618110236220E-2,
7.520854473114E-2));
#121=LINE('',#120,#119);
#122=CURVE_STYLE('',#21,POSITIVE_LENGTH_MEASURE(2.E-2),#8);
#123=PRESENTATION_STYLE_ASSIGNMENT((#122));
#124=STYLED_ITEM('',(#123),#121);
#125=DIRECTION('',(0.E0,1.E0,0.E0));
#126=VECTOR('',#125,5.905511811024E-3);
#127=CARTESIAN_POINT('',(8.909690286231E-1,-3.208661417323E-2,
7.520854473114E-2));
#128=LINE('',#127,#126);
#129=CURVE_STYLE('',#21,POSITIVE_LENGTH_MEASURE(2.E-2),#8);
#130=PRESENTATION_STYLE_ASSIGNMENT((#129));
#131=STYLED_ITEM('',(#130),#128);
#132=DIRECTION('',(-2.255973186038E-14,0.E0,1.E0));
#133=VECTOR('',#132,9.842519685039E-3);
#134=CARTESIAN_POINT('',(1.000417874554E0,-3.208661417323E-2,
6.536602504610E-2));
#135=LINE('',#134,#133);
#136=CURVE_STYLE('',#21,POSITIVE_LENGTH_MEASURE(2.E-2),#8);
#137=PRESENTATION_STYLE_ASSIGNMENT((#136));
#138=STYLED_ITEM('',(#137),#135);
#139=DIRECTION('',(2.255973186038E-14,0.E0,-1.E0));
#140=VECTOR('',#139,9.842519685039E-3);
#141=CARTESIAN_POINT('',(1.000417874554E0,-2.618110236220E-2,
7.520854473114E-2));
#142=LINE('',#141,#140);
#143=CURVE_STYLE('',#21,POSITIVE_LENGTH_MEASURE(2.E-2),#8);
#144=PRESENTATION_STYLE_ASSIGNMENT((#143));
#145=STYLED_ITEM('',(#144),#142);
#146=DIRECTION('',(-3.759955310064E-14,1.E0,0.E0));
#147=VECTOR('',#146,5.905511811024E-3);
#148=CARTESIAN_POINT('',(1.000417874554E0,-3.208661417323E-2,
7.520854473114E-2));
#149=LINE('',#148,#147);
#150=CURVE_STYLE('',#21,POSITIVE_LENGTH_MEASURE(2.E-2),#8);
#151=PRESENTATION_STYLE_ASSIGNMENT((#150));
#152=STYLED_ITEM('',(#151),#149);
#153=DIRECTION('',(-1.E0,0.E0,0.E0));
#154=VECTOR('',#153,2.874013945812E-2);
#155=CARTESIAN_POINT('',(1.029158014012E0,-3.208661417323E-2,
6.536602504610E-2));
#156=LINE('',#155,#154);
#157=CURVE_STYLE('',#21,POSITIVE_LENGTH_MEASURE(2.E-2),#8);
#158=PRESENTATION_STYLE_ASSIGNMENT((#157));
#159=STYLED_ITEM('',(#158),#156);
#160=DIRECTION('',(1.E0,0.E0,0.E0));
#161=VECTOR('',#160,2.874013945812E-2);
#162=CARTESIAN_POINT('',(1.000417874554E0,-2.618110236220E-2,
6.536602504610E-2));
#163=LINE('',#162,#161);
#164=CURVE_STYLE('',#21,POSITIVE_LENGTH_MEASURE(2.E-2),#8);
#165=PRESENTATION_STYLE_ASSIGNMENT((#164));
#166=STYLED_ITEM('',(#165),#163);
#167=DIRECTION('',(0.E0,1.E0,0.E0));
#168=VECTOR('',#167,5.905511811024E-3);
#169=CARTESIAN_POINT('',(1.000417874554E0,-3.208661417323E-2,
6.536602504610E-2));
#170=LINE('',#169,#168);
#171=CURVE_STYLE('',#21,POSITIVE_LENGTH_MEASURE(2.E-2),#8);
#172=PRESENTATION_STYLE_ASSIGNMENT((#171));
#173=STYLED_ITEM('',(#172),#170);
#174=DIRECTION('',(0.E0,-1.E0,0.E0));
#175=VECTOR('',#174,5.905511811024E-3);
#176=CARTESIAN_POINT('',(1.029158014012E0,-2.618110236220E-2,
7.324003797816E-2));
#177=LINE('',#176,#175);
#178=CURVE_STYLE('',#21,POSITIVE_LENGTH_MEASURE(2.E-2),#8);
#179=PRESENTATION_STYLE_ASSIGNMENT((#178));
#180=STYLED_ITEM('',(#179),#177);
#181=DIRECTION('',(0.E0,1.E0,0.E0));
#182=VECTOR('',#181,5.905511811024E-3);
#183=CARTESIAN_POINT('',(1.029158014012E0,-3.208661417323E-2,
6.536602504610E-2));
#184=LINE('',#183,#182);
#185=CURVE_STYLE('',#21,POSITIVE_LENGTH_MEASURE(2.E-2),#8);
#186=PRESENTATION_STYLE_ASSIGNMENT((#185));
#187=STYLED_ITEM('',(#186),#184);
#188=CARTESIAN_POINT('',(1.012746705784E0,-3.208661417323E-2,
7.324003797816E-2));
#189=CARTESIAN_POINT('',(1.012746705784E0,-2.618110236220E-2,
7.324003797816E-2));
#190=VERTEX_POINT('',#188);
#191=VERTEX_POINT('',#189);
#192=CARTESIAN_POINT('',(1.003567477850E0,-2.618110236220E-2,
9.292507734824E-2));
#193=CARTESIAN_POINT('',(1.003567477850E0,-3.208661417323E-2,
9.292507734824E-2));
#194=VERTEX_POINT('',#192);
#195=VERTEX_POINT('',#193);
#196=CARTESIAN_POINT('',(1.029158014012E0,-2.618110236220E-2,
7.324003797816E-2));
#197=CARTESIAN_POINT('',(1.029158014012E0,-3.208661417323E-2,
7.324003797816E-2));
#198=VERTEX_POINT('',#196);
#199=VERTEX_POINT('',#197);
#200=CARTESIAN_POINT('',(1.029158014012E0,-2.618110236220E-2,
6.536602504610E-2));
#201=VERTEX_POINT('',#200);
#202=CARTESIAN_POINT('',(1.000417874554E0,-2.618110236220E-2,
6.536602504610E-2));
#203=VERTEX_POINT('',#202);
#204=CARTESIAN_POINT('',(1.029158014012E0,-3.208661417323E-2,
6.536602504610E-2));
#205=VERTEX_POINT('',#204);
#206=CARTESIAN_POINT('',(1.000417874554E0,-3.208661417323E-2,
6.536602504610E-2));
#207=VERTEX_POINT('',#206);
#208=CARTESIAN_POINT('',(1.000417874554E0,-2.618110236220E-2,
7.520854473114E-2));
#209=VERTEX_POINT('',#208);
#210=CARTESIAN_POINT('',(8.909690286231E-1,-2.618110236220E-2,
7.520854473114E-2));
#211=VERTEX_POINT('',#210);
#212=CARTESIAN_POINT('',(8.909690286231E-1,-3.208661417323E-2,
9.292507734824E-2));
#213=VERTEX_POINT('',#212);
#214=CARTESIAN_POINT('',(8.909690286231E-1,-3.208661417323E-2,
7.520854473114E-2));
#215=VERTEX_POINT('',#214);
#216=CARTESIAN_POINT('',(1.000417874554E0,-3.208661417323E-2,
7.520854473114E-2));
#217=VERTEX_POINT('',#216);
#218=CARTESIAN_POINT('',(8.909690286231E-1,-2.618110236220E-2,
9.292507734824E-2));
#219=VERTEX_POINT('',#218);
#220=CARTESIAN_POINT('',(1.012746705784E0,-2.618110236220E-2,
7.324003797816E-2));
#221=DIRECTION('',(9.063087864753E-1,0.E0,4.226161184309E-1));
#222=DIRECTION('',(4.226161184309E-1,0.E0,-9.063087864753E-1));
#223=AXIS2_PLACEMENT_3D('',#220,#221,#222);
#224=PLANE('',#223);
#226=ORIENTED_EDGE('',*,*,#225,.T.);
#228=ORIENTED_EDGE('',*,*,#227,.F.);
#230=ORIENTED_EDGE('',*,*,#229,.T.);
#232=ORIENTED_EDGE('',*,*,#231,.F.);
#233=EDGE_LOOP('',(#226,#228,#230,#232));
#234=FACE_OUTER_BOUND('',#233,.F.);
#236=CARTESIAN_POINT('',(1.029158014012E0,-3.208661417323E-2,
6.930303151213E-2));
#237=DIRECTION('',(0.E0,1.E0,0.E0));
#238=DIRECTION('',(0.E0,0.E0,1.E0));
#239=AXIS2_PLACEMENT_3D('',#236,#237,#238);
#240=PLANE('',#239);
#241=ORIENTED_EDGE('',*,*,#225,.F.);
#243=ORIENTED_EDGE('',*,*,#242,.T.);
#245=ORIENTED_EDGE('',*,*,#244,.F.);
#247=ORIENTED_EDGE('',*,*,#246,.T.);
#249=ORIENTED_EDGE('',*,*,#248,.T.);
#251=ORIENTED_EDGE('',*,*,#250,.T.);
#253=ORIENTED_EDGE('',*,*,#252,.T.);
#255=ORIENTED_EDGE('',*,*,#254,.T.);
#256=EDGE_LOOP('',(#241,#243,#245,#247,#249,#251,#253,#255));
#257=FACE_OUTER_BOUND('',#256,.F.);
#259=CARTESIAN_POINT('',(1.029158014012E0,-2.618110236220E-2,
7.324003797816E-2));
#260=DIRECTION('',(0.E0,0.E0,1.E0));
#261=DIRECTION('',(1.E0,0.E0,0.E0));
#262=AXIS2_PLACEMENT_3D('',#259,#260,#261);
#263=PLANE('',#262);
#264=ORIENTED_EDGE('',*,*,#242,.F.);
#265=ORIENTED_EDGE('',*,*,#231,.T.);
#267=ORIENTED_EDGE('',*,*,#266,.F.);
#269=ORIENTED_EDGE('',*,*,#268,.T.);
#270=EDGE_LOOP('',(#264,#265,#267,#269));
#271=FACE_OUTER_BOUND('',#270,.F.);
#273=CARTESIAN_POINT('',(1.029158014012E0,-2.618110236220E-2,
6.930303151213E-2));
#274=DIRECTION('',(0.E0,1.E0,0.E0));
#275=DIRECTION('',(0.E0,0.E0,1.E0));
#276=AXIS2_PLACEMENT_3D('',#273,#274,#275);
#277=PLANE('',#276);
#278=ORIENTED_EDGE('',*,*,#229,.F.);
#280=ORIENTED_EDGE('',*,*,#279,.T.);
#282=ORIENTED_EDGE('',*,*,#281,.T.);
#284=ORIENTED_EDGE('',*,*,#283,.T.);
#286=ORIENTED_EDGE('',*,*,#285,.T.);
#288=ORIENTED_EDGE('',*,*,#287,.T.);
#290=ORIENTED_EDGE('',*,*,#289,.F.);
#291=ORIENTED_EDGE('',*,*,#266,.T.);
#292=EDGE_LOOP('',(#278,#280,#282,#284,#286,#288,#290,#291));
#293=FACE_OUTER_BOUND('',#292,.F.);
#295=CARTESIAN_POINT('',(1.003567477850E0,-2.618110236220E-2,
9.292507734824E-2));
#296=DIRECTION('',(0.E0,0.E0,1.E0));
#297=DIRECTION('',(1.E0,0.E0,0.E0));
#298=AXIS2_PLACEMENT_3D('',#295,#296,#297);
#299=PLANE('',#298);
#300=ORIENTED_EDGE('',*,*,#254,.F.);
#302=ORIENTED_EDGE('',*,*,#301,.T.);
#303=ORIENTED_EDGE('',*,*,#279,.F.);
#304=ORIENTED_EDGE('',*,*,#227,.T.);
#305=EDGE_LOOP('',(#300,#302,#303,#304));
#306=FACE_OUTER_BOUND('',#305,.F.);
#308=CARTESIAN_POINT('',(8.909690286231E-1,-2.618110236220E-2,
9.292507734824E-2));
#309=DIRECTION('',(-1.E0,0.E0,0.E0));
#310=DIRECTION('',(0.E0,0.E0,1.E0));
#311=AXIS2_PLACEMENT_3D('',#308,#309,#310);
#312=PLANE('',#311);
#313=ORIENTED_EDGE('',*,*,#252,.F.);
#315=ORIENTED_EDGE('',*,*,#314,.T.);
#316=ORIENTED_EDGE('',*,*,#281,.F.);
#317=ORIENTED_EDGE('',*,*,#301,.F.);
#318=EDGE_LOOP('',(#313,#315,#316,#317));
#319=FACE_OUTER_BOUND('',#318,.F.);
#321=CARTESIAN_POINT('',(8.909690286231E-1,-2.618110236220E-2,
7.520854473114E-2));
#322=DIRECTION('',(0.E0,0.E0,-1.E0));
#323=DIRECTION('',(-1.E0,0.E0,0.E0));
#324=AXIS2_PLACEMENT_3D('',#321,#322,#323);
#325=PLANE('',#324);
#326=ORIENTED_EDGE('',*,*,#250,.F.);
#328=ORIENTED_EDGE('',*,*,#327,.T.);
#329=ORIENTED_EDGE('',*,*,#283,.F.);
#330=ORIENTED_EDGE('',*,*,#314,.F.);
#331=EDGE_LOOP('',(#326,#328,#329,#330));
#332=FACE_OUTER_BOUND('',#331,.F.);
#334=CARTESIAN_POINT('',(1.000417874554E0,-2.618110236220E-2,
7.520854473114E-2));
#335=DIRECTION('',(-1.E0,0.E0,0.E0));
#336=DIRECTION('',(0.E0,0.E0,1.E0));
#337=AXIS2_PLACEMENT_3D('',#334,#335,#336);
#338=PLANE('',#337);
#339=ORIENTED_EDGE('',*,*,#248,.F.);
#341=ORIENTED_EDGE('',*,*,#340,.T.);
#342=ORIENTED_EDGE('',*,*,#285,.F.);
#343=ORIENTED_EDGE('',*,*,#327,.F.);
#344=EDGE_LOOP('',(#339,#341,#342,#343));
#345=FACE_OUTER_BOUND('',#344,.F.);
#347=CARTESIAN_POINT('',(1.000417874554E0,-2.618110236220E-2,
6.536602504610E-2));
#348=DIRECTION('',(0.E0,0.E0,-1.E0));
#349=DIRECTION('',(-1.E0,0.E0,0.E0));
#350=AXIS2_PLACEMENT_3D('',#347,#348,#349);
#351=PLANE('',#350);
#352=ORIENTED_EDGE('',*,*,#246,.F.);
#354=ORIENTED_EDGE('',*,*,#353,.T.);
#355=ORIENTED_EDGE('',*,*,#287,.F.);
#356=ORIENTED_EDGE('',*,*,#340,.F.);
#357=EDGE_LOOP('',(#352,#354,#355,#356));
#358=FACE_OUTER_BOUND('',#357,.F.);
#360=CARTESIAN_POINT('',(1.029158014012E0,-2.618110236220E-2,
6.930303151213E-2));
#361=DIRECTION('',(0.E0,-1.E0,0.E0));
#362=DIRECTION('',(0.E0,0.E0,-1.E0));
#363=AXIS2_PLACEMENT_3D('',#360,#361,#362);
#364=CYLINDRICAL_SURFACE('',#363,3.937006466032E-3);
#365=ORIENTED_EDGE('',*,*,#244,.T.);
#366=ORIENTED_EDGE('',*,*,#268,.F.);
#367=ORIENTED_EDGE('',*,*,#289,.T.);
#368=ORIENTED_EDGE('',*,*,#353,.F.);
#369=EDGE_LOOP('',(#365,#366,#367,#368));
#370=FACE_OUTER_BOUND('',#369,.F.);
#374=FILL_AREA_STYLE_COLOUR('',#8);
#375=FILL_AREA_STYLE('',(#374));
#376=SURFACE_STYLE_FILL_AREA(#375);
#377=SURFACE_SIDE_STYLE('',(#376));
#378=SURFACE_STYLE_USAGE(.BOTH.,#377);
#379=PRESENTATION_STYLE_ASSIGNMENT((#378));
#16=STYLED_ITEM('',(#379),#373);
#380=PRESENTATION_LAYER_ASSIGNMENT('SHELL_74','',(#16,#235,#258,#272,#294,#307,
#320,#333,#346,#359,#371));
#382=LENGTH_MEASURE_WITH_UNIT(LENGTH_MEASURE(2.54E1),#381);
#383=(CONVERSION_BASED_UNIT('INCH',#382)LENGTH_UNIT()NAMED_UNIT(*));
#385=PLANE_ANGLE_MEASURE_WITH_UNIT(PLANE_ANGLE_MEASURE(1.745329251994E-2),#384);
#386=(CONVERSION_BASED_UNIT('DEGREE',#385)NAMED_UNIT(*)PLANE_ANGLE_UNIT());
#388=UNCERTAINTY_MEASURE_WITH_UNIT(LENGTH_MEASURE(1.448878686916E-5),#383,
'closure',
'Maximum model space distance between geometric entities at asserted connectivities');
#390=CARTESIAN_POINT('',(0.E0,0.E0,0.E0));
#391=DIRECTION('',(0.E0,0.E0,1.E0));
#392=DIRECTION('',(1.E0,0.E0,0.E0));
#395=MECHANICAL_DESIGN_GEOMETRIC_PRESENTATION_REPRESENTATION('',(#24,#31,#38,
#46,#53,#60,#67,#75,#82,#89,#96,#103,#110,#117,#124,#131,#138,#145,#152,#159,
#166,#173,#180,#187,#16),#389);
#396=APPLICATION_CONTEXT('automotive design');
#397=APPLICATION_PROTOCOL_DEFINITION('international standard',
'config_control_design',1994,#396);
#398=PRODUCT_DEFINITION_CONTEXT('',#396,'design');
#399=PRODUCT_CONTEXT('',#396,'mechanical');
#400=PRODUCT('BOSS-EXTRUDE2','BOSS-EXTRUDE2','NOT SPECIFIED',(#399));
#401=PRODUCT_DEFINITION_FORMATION_WITH_SPECIFIED_SOURCE('1','LAST_VERSION',#400,
.MADE.);
#409=LENGTH_MEASURE_WITH_UNIT(LENGTH_MEASURE(2.54E1),#408);
#410=(CONVERSION_BASED_UNIT('INCH',#409)LENGTH_UNIT()NAMED_UNIT(*));
#411=DERIVED_UNIT_ELEMENT(#410,2.E0);
#412=AREA_UNIT((#411));
#413=MEASURE_REPRESENTATION_ITEM('surface area measure',AREA_MEASURE(
4.274896280284E0),#412);
#418=LENGTH_MEASURE_WITH_UNIT(LENGTH_MEASURE(2.54E1),#417);
#419=(CONVERSION_BASED_UNIT('INCH',#418)LENGTH_UNIT()NAMED_UNIT(*));
#420=DERIVED_UNIT_ELEMENT(#419,3.E0);
#421=VOLUME_UNIT((#420));
#422=MEASURE_REPRESENTATION_ITEM('volume measure',VOLUME_MEASURE(
2.266493966501E-1),#421);
#426=CARTESIAN_POINT('centre point',(2.431023109647E1,-7.400000000003E-1,
2.090323370580E0));
#431=LENGTH_MEASURE_WITH_UNIT(LENGTH_MEASURE(2.54E1),#430);
#432=(CONVERSION_BASED_UNIT('INCH',#431)LENGTH_UNIT()NAMED_UNIT(*));
#433=DERIVED_UNIT_ELEMENT(#432,2.E0);
#434=AREA_UNIT((#433));
#435=MEASURE_REPRESENTATION_ITEM('surface area measure',AREA_MEASURE(
4.274896280284E0),#434);
#440=LENGTH_MEASURE_WITH_UNIT(LENGTH_MEASURE(2.54E1),#439);
#441=(CONVERSION_BASED_UNIT('INCH',#440)LENGTH_UNIT()NAMED_UNIT(*));
#442=DERIVED_UNIT_ELEMENT(#441,3.E0);
#443=VOLUME_UNIT((#442));
#444=MEASURE_REPRESENTATION_ITEM('volume measure',VOLUME_MEASURE(
2.266493966501E-1),#443);
#448=CARTESIAN_POINT('centre point',(2.431023109647E1,-7.400000000003E-1,
2.090323370580E0));
#1=DRAUGHTING_PRE_DEFINED_COLOUR('green');
#2=COLOUR_RGB('',1.1E-2,1.2E-2,1.E0);
#3=COLOUR_RGB('',2.352941176471E-1,2.352941176471E-1,2.352941176471E-1);
#4=COLOUR_RGB('',4.1E-1,2.61589E-1,1.12848E-1);
#5=COLOUR_RGB('',5.04854E-1,1.5455E-2,1.5455E-2);
#6=COLOUR_RGB('',6.35294E-1,6.86275E-1,7.4902E-1);
#7=COLOUR_RGB('',6.40777E-1,6.40777E-1,6.40777E-1);
#8=COLOUR_RGB('',6.392156862745E-1,6.666666666667E-1,6.784313725490E-1);
#9=COLOUR_RGB('',6.69062E-1,6.69903E-1,6.55217E-1);
#10=COLOUR_RGB('',9.21569E-1,7.05882E-1,4.70588E-1);
#11=DRAUGHTING_PRE_DEFINED_COLOUR('red');
#12=DRAUGHTING_PRE_DEFINED_COLOUR('yellow');
#13=COLOUR_RGB('',1.E0,1.E0,5.3E-1);
#14=COLOUR_RGB('',1.E0,1.E0,9.49E-1);
#15=DRAUGHTING_PRE_DEFINED_COLOUR('white');
#43=CIRCLE('',#42,3.937006466032E-3);
#72=CIRCLE('',#71,3.937006466032E-3);
#225=EDGE_CURVE('',#190,#195,#35,.T.);
#227=EDGE_CURVE('',#194,#195,#20,.T.);
#229=EDGE_CURVE('',#194,#191,#64,.T.);
#231=EDGE_CURVE('',#190,#191,#28,.T.);
#235=ADVANCED_FACE('',(#234),#224,.T.);
#242=EDGE_CURVE('',#190,#199,#50,.T.);
#244=EDGE_CURVE('',#205,#199,#43,.T.);
#246=EDGE_CURVE('',#205,#207,#156,.T.);
#248=EDGE_CURVE('',#207,#217,#135,.T.);
#250=EDGE_CURVE('',#217,#215,#114,.T.);
#252=EDGE_CURVE('',#215,#213,#93,.T.);
#254=EDGE_CURVE('',#213,#195,#79,.T.);
#258=ADVANCED_FACE('',(#257),#240,.F.);
#266=EDGE_CURVE('',#198,#191,#57,.T.);
#268=EDGE_CURVE('',#198,#199,#177,.T.);
#272=ADVANCED_FACE('',(#271),#263,.T.);
#279=EDGE_CURVE('',#194,#219,#86,.T.);
#281=EDGE_CURVE('',#219,#211,#100,.T.);
#283=EDGE_CURVE('',#211,#209,#121,.T.);
#285=EDGE_CURVE('',#209,#203,#142,.T.);
#287=EDGE_CURVE('',#203,#201,#163,.T.);
#289=EDGE_CURVE('',#198,#201,#72,.T.);
#294=ADVANCED_FACE('',(#293),#277,.T.);
#301=EDGE_CURVE('',#213,#219,#107,.T.);
#307=ADVANCED_FACE('',(#306),#299,.T.);
#314=EDGE_CURVE('',#215,#211,#128,.T.);
#320=ADVANCED_FACE('',(#319),#312,.T.);
#327=EDGE_CURVE('',#217,#209,#149,.T.);
#333=ADVANCED_FACE('',(#332),#325,.T.);
#340=EDGE_CURVE('',#207,#203,#170,.T.);
#346=ADVANCED_FACE('',(#345),#338,.T.);
#353=EDGE_CURVE('',#205,#201,#184,.T.);
#359=ADVANCED_FACE('',(#358),#351,.T.);
#371=ADVANCED_FACE('',(#370),#364,.T.);
#372=CLOSED_SHELL('',(#235,#258,#272,#294,#307,#320,#333,#346,#359,#371));
#373=MANIFOLD_SOLID_BREP('',#372);
#381=(LENGTH_UNIT()NAMED_UNIT(*)SI_UNIT(.MILLI.,.METRE.));
#384=(NAMED_UNIT(*)PLANE_ANGLE_UNIT()SI_UNIT($,.RADIAN.));
#387=(NAMED_UNIT(*)SI_UNIT($,.STERADIAN.)SOLID_ANGLE_UNIT());
#389=(GEOMETRIC_REPRESENTATION_CONTEXT(3)GLOBAL_UNCERTAINTY_ASSIGNED_CONTEXT((
#388))GLOBAL_UNIT_ASSIGNED_CONTEXT((#383,#386,#387))REPRESENTATION_CONTEXT
('ID1','3'));
#393=AXIS2_PLACEMENT_3D('',#390,#391,#392);
#394=ADVANCED_BREP_SHAPE_REPRESENTATION('',(#393,#373),#389);
#402=PRODUCT_DEFINITION('design','',#401,#398);
#403=PRODUCT_DEFINITION_SHAPE('','SHAPE FOR BOSS-EXTRUDE2.',#402);
#404=SHAPE_ASPECT('','solid data associated with BOSS-EXTRUDE2',#403,.F.);
#405=PROPERTY_DEFINITION('',
'shape for solid data with which properties are associated',#404);
#406=SHAPE_REPRESENTATION('',(#373),#389);
#407=SHAPE_DEFINITION_REPRESENTATION(#405,#406);
#408=(LENGTH_UNIT()NAMED_UNIT(*)SI_UNIT(.MILLI.,.METRE.));
#414=PROPERTY_DEFINITION('geometric validation property',
'area of BOSS-EXTRUDE2',#404);
#415=REPRESENTATION('surface area',(#413),#389);
#416=PROPERTY_DEFINITION_REPRESENTATION(#414,#415);
#417=(LENGTH_UNIT()NAMED_UNIT(*)SI_UNIT(.MILLI.,.METRE.));
#423=PROPERTY_DEFINITION('geometric validation property',
'volume of BOSS-EXTRUDE2',#404);
#424=REPRESENTATION('volume',(#422),#389);
#425=PROPERTY_DEFINITION_REPRESENTATION(#423,#424);
#427=PROPERTY_DEFINITION('geometric validation property',
'centroid of BOSS-EXTRUDE2',#404);
#428=REPRESENTATION('centroid',(#426),#389);
#429=PROPERTY_DEFINITION_REPRESENTATION(#427,#428);
#430=(LENGTH_UNIT()NAMED_UNIT(*)SI_UNIT(.MILLI.,.METRE.));
#436=PROPERTY_DEFINITION('geometric validation property',
'area of BOSS-EXTRUDE2',#403);
#437=REPRESENTATION('surface area',(#435),#389);
#438=PROPERTY_DEFINITION_REPRESENTATION(#436,#437);
#439=(LENGTH_UNIT()NAMED_UNIT(*)SI_UNIT(.MILLI.,.METRE.));
#445=PROPERTY_DEFINITION('geometric validation property',
'volume of BOSS-EXTRUDE2',#403);
#446=REPRESENTATION('volume',(#444),#389);
#447=PROPERTY_DEFINITION_REPRESENTATION(#445,#446);
#449=PROPERTY_DEFINITION('geometric validation property',
'centroid of BOSS-EXTRUDE2',#403);
#450=REPRESENTATION('centroid',(#448),#389);
#451=PROPERTY_DEFINITION_REPRESENTATION(#449,#450);
#452=SHAPE_DEFINITION_REPRESENTATION(#403,#394);
ENDSEC;
END-ISO-10303-21;
