ISO-10303-21;
HEADER;
FILE_DESCRIPTION((''),'2;1');
FILE_NAME('CAMERA_BODY','2026-06-15T13:45:17',('Esia'),(''),
'CREO PARAMETRIC BY PTC INC, 2025102','CREO PARAMETRIC BY PTC INC, 2025102','');
FILE_SCHEMA((
'AP242_MANAGED_MODEL_BASED_3D_ENGINEERING_MIM_LF { 1 0 10303 442 1 1 4 }'));
ENDSEC;
DATA;
#17=DIRECTION('',(0.E0,0.E0,-1.E0));
#18=VECTOR('',#17,2.185039370079E-1);
#19=CARTESIAN_POINT('',(9.763779527559E-1,6.318897637795E-1,2.185039370079E-1));
#20=LINE('',#19,#18);
#21=DRAUGHTING_PRE_DEFINED_CURVE_FONT('continuous');
#22=CURVE_STYLE('',#21,POSITIVE_LENGTH_MEASURE(2.E-2),#3);
#23=PRESENTATION_STYLE_ASSIGNMENT((#22));
#24=STYLED_ITEM('',(#23),#20);
#25=DIRECTION('',(0.E0,0.E0,1.E0));
#26=VECTOR('',#25,2.185039370079E-1);
#27=CARTESIAN_POINT('',(1.035433070866E0,6.318897637795E-1,0.E0));
#28=LINE('',#27,#26);
#29=CURVE_STYLE('',#21,POSITIVE_LENGTH_MEASURE(2.E-2),#3);
#30=PRESENTATION_STYLE_ASSIGNMENT((#29));
#31=STYLED_ITEM('',(#30),#28);
#32=CARTESIAN_POINT('',(1.005905511811E0,6.318897637795E-1,2.185039370079E-1));
#33=DIRECTION('',(0.E0,0.E0,-1.E0));
#34=DIRECTION('',(-1.E0,0.E0,0.E0));
#35=AXIS2_PLACEMENT_3D('',#32,#33,#34);
#37=CURVE_STYLE('',#21,POSITIVE_LENGTH_MEASURE(2.E-2),#3);
#38=PRESENTATION_STYLE_ASSIGNMENT((#37));
#39=STYLED_ITEM('',(#38),#36);
#40=CARTESIAN_POINT('',(1.005905511811E0,6.318897637795E-1,2.185039370079E-1));
#41=DIRECTION('',(0.E0,0.E0,-1.E0));
#42=DIRECTION('',(1.E0,0.E0,0.E0));
#43=AXIS2_PLACEMENT_3D('',#40,#41,#42);
#45=CURVE_STYLE('',#21,POSITIVE_LENGTH_MEASURE(2.E-2),#3);
#46=PRESENTATION_STYLE_ASSIGNMENT((#45));
#47=STYLED_ITEM('',(#46),#44);
#48=CARTESIAN_POINT('',(1.005905511811E0,6.318897637795E-1,0.E0));
#49=DIRECTION('',(0.E0,0.E0,-1.E0));
#50=DIRECTION('',(0.E0,1.E0,0.E0));
#51=AXIS2_PLACEMENT_3D('',#48,#49,#50);
#53=CURVE_STYLE('',#21,POSITIVE_LENGTH_MEASURE(2.E-2),#3);
#54=PRESENTATION_STYLE_ASSIGNMENT((#53));
#55=STYLED_ITEM('',(#54),#52);
#56=CARTESIAN_POINT('',(2.578740157480E-1,6.318897637795E-1,0.E0));
#57=DIRECTION('',(0.E0,0.E0,-1.E0));
#58=DIRECTION('',(0.E0,-1.E0,0.E0));
#59=AXIS2_PLACEMENT_3D('',#56,#57,#58);
#61=CURVE_STYLE('',#21,POSITIVE_LENGTH_MEASURE(2.E-2),#3);
#62=PRESENTATION_STYLE_ASSIGNMENT((#61));
#63=STYLED_ITEM('',(#62),#60);
#64=DIRECTION('',(-1.E0,0.E0,0.E0));
#65=VECTOR('',#64,3.740157480315E-2);
#66=CARTESIAN_POINT('',(2.952755905512E-1,5.334645669291E-1,0.E0));
#67=LINE('',#66,#65);
#68=CURVE_STYLE('',#21,POSITIVE_LENGTH_MEASURE(2.E-2),#3);
#69=PRESENTATION_STYLE_ASSIGNMENT((#68));
#70=STYLED_ITEM('',(#69),#67);
#71=DIRECTION('',(-1.E0,0.E0,0.E0));
#72=VECTOR('',#71,3.740157480315E-2);
#73=CARTESIAN_POINT('',(1.005905511811E0,5.334645669291E-1,0.E0));
#74=LINE('',#73,#72);
#75=CURVE_STYLE('',#21,POSITIVE_LENGTH_MEASURE(2.E-2),#3);
#76=PRESENTATION_STYLE_ASSIGNMENT((#75));
#77=STYLED_ITEM('',(#76),#74);
#78=CARTESIAN_POINT('',(1.005905511811E0,6.318897637795E-1,0.E0));
#79=DIRECTION('',(0.E0,0.E0,1.E0));
#80=DIRECTION('',(1.E0,0.E0,0.E0));
#81=AXIS2_PLACEMENT_3D('',#78,#79,#80);
#83=CURVE_STYLE('',#21,POSITIVE_LENGTH_MEASURE(2.E-2),#3);
#84=PRESENTATION_STYLE_ASSIGNMENT((#83));
#85=STYLED_ITEM('',(#84),#82);
#86=CARTESIAN_POINT('',(1.005905511811E0,6.318897637795E-1,0.E0));
#87=DIRECTION('',(0.E0,0.E0,1.E0));
#88=DIRECTION('',(-1.E0,0.E0,0.E0));
#89=AXIS2_PLACEMENT_3D('',#86,#87,#88);
#91=CURVE_STYLE('',#21,POSITIVE_LENGTH_MEASURE(2.E-2),#3);
#92=PRESENTATION_STYLE_ASSIGNMENT((#91));
#93=STYLED_ITEM('',(#92),#90);
#94=CARTESIAN_POINT('',(2.578740157480E-1,6.318897637795E-1,0.E0));
#95=DIRECTION('',(0.E0,0.E0,1.E0));
#96=DIRECTION('',(1.E0,0.E0,0.E0));
#97=AXIS2_PLACEMENT_3D('',#94,#95,#96);
#99=CURVE_STYLE('',#21,POSITIVE_LENGTH_MEASURE(2.E-2),#3);
#100=PRESENTATION_STYLE_ASSIGNMENT((#99));
#101=STYLED_ITEM('',(#100),#98);
#102=CARTESIAN_POINT('',(2.578740157480E-1,6.318897637795E-1,0.E0));
#103=DIRECTION('',(0.E0,0.E0,1.E0));
#104=DIRECTION('',(-1.E0,0.E0,0.E0));
#105=AXIS2_PLACEMENT_3D('',#102,#103,#104);
#107=CURVE_STYLE('',#21,POSITIVE_LENGTH_MEASURE(2.E-2),#3);
#108=PRESENTATION_STYLE_ASSIGNMENT((#107));
#109=STYLED_ITEM('',(#108),#106);
#110=DIRECTION('',(0.E0,0.E0,-1.E0));
#111=VECTOR('',#110,3.759842519685E-1);
#112=CARTESIAN_POINT('',(1.005905511811E0,5.334645669291E-1,3.759842519685E-1));
#113=LINE('',#112,#111);
#114=CURVE_STYLE('',#21,POSITIVE_LENGTH_MEASURE(2.E-2),#3);
#115=PRESENTATION_STYLE_ASSIGNMENT((#114));
#116=STYLED_ITEM('',(#115),#113);
#117=DIRECTION('',(0.E0,0.E0,1.E0));
#118=VECTOR('',#117,3.759842519685E-1);
#119=CARTESIAN_POINT('',(1.005905511811E0,7.303149606299E-1,0.E0));
#120=LINE('',#119,#118);
#121=CURVE_STYLE('',#21,POSITIVE_LENGTH_MEASURE(2.E-2),#3);
#122=PRESENTATION_STYLE_ASSIGNMENT((#121));
#123=STYLED_ITEM('',(#122),#120);
#124=DIRECTION('',(0.E0,0.E0,-1.E0));
#125=VECTOR('',#124,3.759842519685E-1);
#126=CARTESIAN_POINT('',(9.685039370079E-1,5.334645669291E-1,
3.759842519685E-1));
#127=LINE('',#126,#125);
#128=CURVE_STYLE('',#21,POSITIVE_LENGTH_MEASURE(2.E-2),#3);
#129=PRESENTATION_STYLE_ASSIGNMENT((#128));
#130=STYLED_ITEM('',(#129),#127);
#131=DIRECTION('',(-1.E0,0.E0,0.E0));
#132=VECTOR('',#131,3.740157480315E-2);
#133=CARTESIAN_POINT('',(1.005905511811E0,5.334645669291E-1,3.759842519685E-1));
#134=LINE('',#133,#132);
#135=CURVE_STYLE('',#21,POSITIVE_LENGTH_MEASURE(2.E-2),#3);
#136=PRESENTATION_STYLE_ASSIGNMENT((#135));
#137=STYLED_ITEM('',(#136),#134);
#138=DIRECTION('',(0.E0,1.E0,0.E0));
#139=VECTOR('',#138,2.381889763780E-1);
#140=CARTESIAN_POINT('',(9.685039370079E-1,2.952755905512E-1,0.E0));
#141=LINE('',#140,#139);
#142=CURVE_STYLE('',#21,POSITIVE_LENGTH_MEASURE(2.E-2),#3);
#143=PRESENTATION_STYLE_ASSIGNMENT((#142));
#144=STYLED_ITEM('',(#143),#141);
#145=DIRECTION('',(0.E0,0.E0,-1.E0));
#146=VECTOR('',#145,3.759842519685E-1);
#147=CARTESIAN_POINT('',(9.685039370079E-1,2.952755905512E-1,
3.759842519685E-1));
#148=LINE('',#147,#146);
#149=CURVE_STYLE('',#21,POSITIVE_LENGTH_MEASURE(2.E-2),#3);
#150=PRESENTATION_STYLE_ASSIGNMENT((#149));
#151=STYLED_ITEM('',(#150),#148);
#152=DIRECTION('',(0.E0,-1.E0,0.E0));
#153=VECTOR('',#152,2.381889763780E-1);
#154=CARTESIAN_POINT('',(9.685039370079E-1,5.334645669291E-1,
3.759842519685E-1));
#155=LINE('',#154,#153);
#156=CURVE_STYLE('',#21,POSITIVE_LENGTH_MEASURE(2.E-2),#3);
#157=PRESENTATION_STYLE_ASSIGNMENT((#156));
#158=STYLED_ITEM('',(#157),#155);
#159=DIRECTION('',(1.E0,0.E0,0.E0));
#160=VECTOR('',#159,6.732283464567E-1);
#161=CARTESIAN_POINT('',(2.952755905512E-1,2.952755905512E-1,0.E0));
#162=LINE('',#161,#160);
#163=CURVE_STYLE('',#21,POSITIVE_LENGTH_MEASURE(2.E-2),#3);
#164=PRESENTATION_STYLE_ASSIGNMENT((#163));
#165=STYLED_ITEM('',(#164),#162);
#166=DIRECTION('',(0.E0,0.E0,-1.E0));
#167=VECTOR('',#166,3.759842519685E-1);
#168=CARTESIAN_POINT('',(2.952755905512E-1,2.952755905512E-1,
3.759842519685E-1));
#169=LINE('',#168,#167);
#170=CURVE_STYLE('',#21,POSITIVE_LENGTH_MEASURE(2.E-2),#3);
#171=PRESENTATION_STYLE_ASSIGNMENT((#170));
#172=STYLED_ITEM('',(#171),#169);
#173=DIRECTION('',(-1.E0,0.E0,0.E0));
#174=VECTOR('',#173,6.732283464567E-1);
#175=CARTESIAN_POINT('',(9.685039370079E-1,2.952755905512E-1,
3.759842519685E-1));
#176=LINE('',#175,#174);
#177=CURVE_STYLE('',#21,POSITIVE_LENGTH_MEASURE(2.E-2),#3);
#178=PRESENTATION_STYLE_ASSIGNMENT((#177));
#179=STYLED_ITEM('',(#178),#176);
#180=DIRECTION('',(0.E0,-1.E0,0.E0));
#181=VECTOR('',#180,2.381889763780E-1);
#182=CARTESIAN_POINT('',(2.952755905512E-1,5.334645669291E-1,0.E0));
#183=LINE('',#182,#181);
#184=CURVE_STYLE('',#21,POSITIVE_LENGTH_MEASURE(2.E-2),#3);
#185=PRESENTATION_STYLE_ASSIGNMENT((#184));
#186=STYLED_ITEM('',(#185),#183);
#187=DIRECTION('',(0.E0,0.E0,-1.E0));
#188=VECTOR('',#187,3.759842519685E-1);
#189=CARTESIAN_POINT('',(2.952755905512E-1,5.334645669291E-1,
3.759842519685E-1));
#190=LINE('',#189,#188);
#191=CURVE_STYLE('',#21,POSITIVE_LENGTH_MEASURE(2.E-2),#3);
#192=PRESENTATION_STYLE_ASSIGNMENT((#191));
#193=STYLED_ITEM('',(#192),#190);
#194=DIRECTION('',(0.E0,1.E0,0.E0));
#195=VECTOR('',#194,2.381889763780E-1);
#196=CARTESIAN_POINT('',(2.952755905512E-1,2.952755905512E-1,
3.759842519685E-1));
#197=LINE('',#196,#195);
#198=CURVE_STYLE('',#21,POSITIVE_LENGTH_MEASURE(2.E-2),#3);
#199=PRESENTATION_STYLE_ASSIGNMENT((#198));
#200=STYLED_ITEM('',(#199),#197);
#201=DIRECTION('',(-1.E0,0.E0,0.E0));
#202=VECTOR('',#201,3.740157480315E-2);
#203=CARTESIAN_POINT('',(2.952755905512E-1,5.334645669291E-1,
3.759842519685E-1));
#204=LINE('',#203,#202);
#205=CURVE_STYLE('',#21,POSITIVE_LENGTH_MEASURE(2.E-2),#3);
#206=PRESENTATION_STYLE_ASSIGNMENT((#205));
#207=STYLED_ITEM('',(#206),#204);
#208=DIRECTION('',(0.E0,0.E0,-1.E0));
#209=VECTOR('',#208,3.759842519685E-1);
#210=CARTESIAN_POINT('',(2.578740157480E-1,7.303149606299E-1,
3.759842519685E-1));
#211=LINE('',#210,#209);
#212=CURVE_STYLE('',#21,POSITIVE_LENGTH_MEASURE(2.E-2),#3);
#213=PRESENTATION_STYLE_ASSIGNMENT((#212));
#214=STYLED_ITEM('',(#213),#211);
#215=DIRECTION('',(0.E0,0.E0,1.E0));
#216=VECTOR('',#215,3.759842519685E-1);
#217=CARTESIAN_POINT('',(2.578740157480E-1,5.334645669291E-1,0.E0));
#218=LINE('',#217,#216);
#219=CURVE_STYLE('',#21,POSITIVE_LENGTH_MEASURE(2.E-2),#3);
#220=PRESENTATION_STYLE_ASSIGNMENT((#219));
#221=STYLED_ITEM('',(#220),#218);
#222=DIRECTION('',(-1.E0,0.E0,0.E0));
#223=VECTOR('',#222,3.740157480315E-2);
#224=CARTESIAN_POINT('',(2.952755905512E-1,7.303149606299E-1,0.E0));
#225=LINE('',#224,#223);
#226=CURVE_STYLE('',#21,POSITIVE_LENGTH_MEASURE(2.E-2),#3);
#227=PRESENTATION_STYLE_ASSIGNMENT((#226));
#228=STYLED_ITEM('',(#227),#225);
#229=DIRECTION('',(0.E0,0.E0,-1.E0));
#230=VECTOR('',#229,3.759842519685E-1);
#231=CARTESIAN_POINT('',(2.952755905512E-1,7.303149606299E-1,
3.759842519685E-1));
#232=LINE('',#231,#230);
#233=CURVE_STYLE('',#21,POSITIVE_LENGTH_MEASURE(2.E-2),#3);
#234=PRESENTATION_STYLE_ASSIGNMENT((#233));
#235=STYLED_ITEM('',(#234),#232);
#236=DIRECTION('',(1.E0,0.E0,0.E0));
#237=VECTOR('',#236,3.740157480315E-2);
#238=CARTESIAN_POINT('',(2.578740157480E-1,7.303149606299E-1,
3.759842519685E-1));
#239=LINE('',#238,#237);
#240=CURVE_STYLE('',#21,POSITIVE_LENGTH_MEASURE(2.E-2),#3);
#241=PRESENTATION_STYLE_ASSIGNMENT((#240));
#242=STYLED_ITEM('',(#241),#239);
#243=DIRECTION('',(0.E0,-1.E0,0.E0));
#244=VECTOR('',#243,2.381889763780E-1);
#245=CARTESIAN_POINT('',(2.952755905512E-1,9.685039370079E-1,0.E0));
#246=LINE('',#245,#244);
#247=CURVE_STYLE('',#21,POSITIVE_LENGTH_MEASURE(2.E-2),#3);
#248=PRESENTATION_STYLE_ASSIGNMENT((#247));
#249=STYLED_ITEM('',(#248),#246);
#250=DIRECTION('',(0.E0,0.E0,-1.E0));
#251=VECTOR('',#250,3.759842519685E-1);
#252=CARTESIAN_POINT('',(2.952755905512E-1,9.685039370079E-1,
3.759842519685E-1));
#253=LINE('',#252,#251);
#254=CURVE_STYLE('',#21,POSITIVE_LENGTH_MEASURE(2.E-2),#3);
#255=PRESENTATION_STYLE_ASSIGNMENT((#254));
#256=STYLED_ITEM('',(#255),#253);
#257=DIRECTION('',(0.E0,1.E0,0.E0));
#258=VECTOR('',#257,2.381889763780E-1);
#259=CARTESIAN_POINT('',(2.952755905512E-1,7.303149606299E-1,
3.759842519685E-1));
#260=LINE('',#259,#258);
#261=CURVE_STYLE('',#21,POSITIVE_LENGTH_MEASURE(2.E-2),#3);
#262=PRESENTATION_STYLE_ASSIGNMENT((#261));
#263=STYLED_ITEM('',(#262),#260);
#264=DIRECTION('',(-1.E0,0.E0,0.E0));
#265=VECTOR('',#264,6.732283464567E-1);
#266=CARTESIAN_POINT('',(9.685039370079E-1,9.685039370079E-1,0.E0));
#267=LINE('',#266,#265);
#268=CURVE_STYLE('',#21,POSITIVE_LENGTH_MEASURE(2.E-2),#3);
#269=PRESENTATION_STYLE_ASSIGNMENT((#268));
#270=STYLED_ITEM('',(#269),#267);
#271=DIRECTION('',(0.E0,0.E0,-1.E0));
#272=VECTOR('',#271,3.759842519685E-1);
#273=CARTESIAN_POINT('',(9.685039370079E-1,9.685039370079E-1,
3.759842519685E-1));
#274=LINE('',#273,#272);
#275=CURVE_STYLE('',#21,POSITIVE_LENGTH_MEASURE(2.E-2),#3);
#276=PRESENTATION_STYLE_ASSIGNMENT((#275));
#277=STYLED_ITEM('',(#276),#274);
#278=DIRECTION('',(1.E0,0.E0,0.E0));
#279=VECTOR('',#278,6.732283464567E-1);
#280=CARTESIAN_POINT('',(2.952755905512E-1,9.685039370079E-1,
3.759842519685E-1));
#281=LINE('',#280,#279);
#282=CURVE_STYLE('',#21,POSITIVE_LENGTH_MEASURE(2.E-2),#3);
#283=PRESENTATION_STYLE_ASSIGNMENT((#282));
#284=STYLED_ITEM('',(#283),#281);
#285=DIRECTION('',(0.E0,1.E0,0.E0));
#286=VECTOR('',#285,2.381889763780E-1);
#287=CARTESIAN_POINT('',(9.685039370079E-1,7.303149606299E-1,0.E0));
#288=LINE('',#287,#286);
#289=CURVE_STYLE('',#21,POSITIVE_LENGTH_MEASURE(2.E-2),#3);
#290=PRESENTATION_STYLE_ASSIGNMENT((#289));
#291=STYLED_ITEM('',(#290),#288);
#292=DIRECTION('',(0.E0,0.E0,-1.E0));
#293=VECTOR('',#292,3.759842519685E-1);
#294=CARTESIAN_POINT('',(9.685039370079E-1,7.303149606299E-1,
3.759842519685E-1));
#295=LINE('',#294,#293);
#296=CURVE_STYLE('',#21,POSITIVE_LENGTH_MEASURE(2.E-2),#3);
#297=PRESENTATION_STYLE_ASSIGNMENT((#296));
#298=STYLED_ITEM('',(#297),#295);
#299=DIRECTION('',(0.E0,-1.E0,0.E0));
#300=VECTOR('',#299,2.381889763780E-1);
#301=CARTESIAN_POINT('',(9.685039370079E-1,9.685039370079E-1,
3.759842519685E-1));
#302=LINE('',#301,#300);
#303=CURVE_STYLE('',#21,POSITIVE_LENGTH_MEASURE(2.E-2),#3);
#304=PRESENTATION_STYLE_ASSIGNMENT((#303));
#305=STYLED_ITEM('',(#304),#302);
#306=DIRECTION('',(-1.E0,0.E0,0.E0));
#307=VECTOR('',#306,3.740157480315E-2);
#308=CARTESIAN_POINT('',(1.005905511811E0,7.303149606299E-1,0.E0));
#309=LINE('',#308,#307);
#310=CURVE_STYLE('',#21,POSITIVE_LENGTH_MEASURE(2.E-2),#3);
#311=PRESENTATION_STYLE_ASSIGNMENT((#310));
#312=STYLED_ITEM('',(#311),#309);
#313=DIRECTION('',(1.E0,0.E0,0.E0));
#314=VECTOR('',#313,3.740157480315E-2);
#315=CARTESIAN_POINT('',(9.685039370079E-1,7.303149606299E-1,
3.759842519685E-1));
#316=LINE('',#315,#314);
#317=CURVE_STYLE('',#21,POSITIVE_LENGTH_MEASURE(2.E-2),#3);
#318=PRESENTATION_STYLE_ASSIGNMENT((#317));
#319=STYLED_ITEM('',(#318),#316);
#320=CARTESIAN_POINT('',(1.005905511811E0,6.318897637795E-1,3.759842519685E-1));
#321=DIRECTION('',(0.E0,0.E0,1.E0));
#322=DIRECTION('',(0.E0,-1.E0,0.E0));
#323=AXIS2_PLACEMENT_3D('',#320,#321,#322);
#325=CURVE_STYLE('',#21,POSITIVE_LENGTH_MEASURE(2.E-2),#3);
#326=PRESENTATION_STYLE_ASSIGNMENT((#325));
#327=STYLED_ITEM('',(#326),#324);
#328=CARTESIAN_POINT('',(2.578740157480E-1,6.318897637795E-1,
3.759842519685E-1));
#329=DIRECTION('',(0.E0,0.E0,1.E0));
#330=DIRECTION('',(0.E0,1.E0,0.E0));
#331=AXIS2_PLACEMENT_3D('',#328,#329,#330);
#333=CURVE_STYLE('',#21,POSITIVE_LENGTH_MEASURE(2.E-2),#3);
#334=PRESENTATION_STYLE_ASSIGNMENT((#333));
#335=STYLED_ITEM('',(#334),#332);
#336=CARTESIAN_POINT('',(6.318897637795E-1,6.318897637795E-1,
3.759842519685E-1));
#337=DIRECTION('',(0.E0,0.E0,-1.E0));
#338=DIRECTION('',(1.E0,0.E0,0.E0));
#339=AXIS2_PLACEMENT_3D('',#336,#337,#338);
#341=CURVE_STYLE('',#21,POSITIVE_LENGTH_MEASURE(2.E-2),#3);
#342=PRESENTATION_STYLE_ASSIGNMENT((#341));
#343=STYLED_ITEM('',(#342),#340);
#344=CARTESIAN_POINT('',(6.318897637795E-1,6.318897637795E-1,
3.759842519685E-1));
#345=DIRECTION('',(0.E0,0.E0,-1.E0));
#346=DIRECTION('',(-1.E0,0.E0,0.E0));
#347=AXIS2_PLACEMENT_3D('',#344,#345,#346);
#349=CURVE_STYLE('',#21,POSITIVE_LENGTH_MEASURE(2.E-2),#3);
#350=PRESENTATION_STYLE_ASSIGNMENT((#349));
#351=STYLED_ITEM('',(#350),#348);
#352=DIRECTION('',(0.E0,0.E0,1.E0));
#353=VECTOR('',#352,2.559055118110E-1);
#354=CARTESIAN_POINT('',(9.340551181102E-1,6.318897637795E-1,
3.759842519685E-1));
#355=LINE('',#354,#353);
#356=CURVE_STYLE('',#21,POSITIVE_LENGTH_MEASURE(2.E-2),#3);
#357=PRESENTATION_STYLE_ASSIGNMENT((#356));
#358=STYLED_ITEM('',(#357),#355);
#359=DIRECTION('',(0.E0,0.E0,1.E0));
#360=VECTOR('',#359,2.559055118110E-1);
#361=CARTESIAN_POINT('',(3.297244094488E-1,6.318897637795E-1,
3.759842519685E-1));
#362=LINE('',#361,#360);
#363=CURVE_STYLE('',#21,POSITIVE_LENGTH_MEASURE(2.E-2),#3);
#364=PRESENTATION_STYLE_ASSIGNMENT((#363));
#365=STYLED_ITEM('',(#364),#362);
#366=CARTESIAN_POINT('',(6.318897637795E-1,6.318897637795E-1,
6.318897637795E-1));
#367=DIRECTION('',(0.E0,0.E0,1.E0));
#368=DIRECTION('',(1.E0,0.E0,0.E0));
#369=AXIS2_PLACEMENT_3D('',#366,#367,#368);
#371=CURVE_STYLE('',#21,POSITIVE_LENGTH_MEASURE(2.E-2),#3);
#372=PRESENTATION_STYLE_ASSIGNMENT((#371));
#373=STYLED_ITEM('',(#372),#370);
#374=CARTESIAN_POINT('',(6.318897637795E-1,6.318897637795E-1,
6.318897637795E-1));
#375=DIRECTION('',(0.E0,0.E0,1.E0));
#376=DIRECTION('',(-1.E0,0.E0,0.E0));
#377=AXIS2_PLACEMENT_3D('',#374,#375,#376);
#379=CURVE_STYLE('',#21,POSITIVE_LENGTH_MEASURE(2.E-2),#3);
#380=PRESENTATION_STYLE_ASSIGNMENT((#379));
#381=STYLED_ITEM('',(#380),#378);
#382=CARTESIAN_POINT('',(6.318897637795E-1,6.318897637795E-1,
6.318897637795E-1));
#383=DIRECTION('',(0.E0,0.E0,-1.E0));
#384=DIRECTION('',(1.E0,0.E0,0.E0));
#385=AXIS2_PLACEMENT_3D('',#382,#383,#384);
#387=CURVE_STYLE('',#21,POSITIVE_LENGTH_MEASURE(2.E-2),#3);
#388=PRESENTATION_STYLE_ASSIGNMENT((#387));
#389=STYLED_ITEM('',(#388),#386);
#390=CARTESIAN_POINT('',(6.318897637795E-1,6.318897637795E-1,
6.318897637795E-1));
#391=DIRECTION('',(0.E0,0.E0,-1.E0));
#392=DIRECTION('',(-1.E0,0.E0,0.E0));
#393=AXIS2_PLACEMENT_3D('',#390,#391,#392);
#395=CURVE_STYLE('',#21,POSITIVE_LENGTH_MEASURE(2.E-2),#3);
#396=PRESENTATION_STYLE_ASSIGNMENT((#395));
#397=STYLED_ITEM('',(#396),#394);
#398=DIRECTION('',(0.E0,0.E0,1.E0));
#399=VECTOR('',#398,1.181102362205E-1);
#400=CARTESIAN_POINT('',(8.651574803150E-1,6.318897637795E-1,
6.318897637795E-1));
#401=LINE('',#400,#399);
#402=CURVE_STYLE('',#21,POSITIVE_LENGTH_MEASURE(2.E-2),#3);
#403=PRESENTATION_STYLE_ASSIGNMENT((#402));
#404=STYLED_ITEM('',(#403),#401);
#405=DIRECTION('',(0.E0,0.E0,1.E0));
#406=VECTOR('',#405,1.181102362205E-1);
#407=CARTESIAN_POINT('',(3.986220472441E-1,6.318897637795E-1,
6.318897637795E-1));
#408=LINE('',#407,#406);
#409=CURVE_STYLE('',#21,POSITIVE_LENGTH_MEASURE(2.E-2),#3);
#410=PRESENTATION_STYLE_ASSIGNMENT((#409));
#411=STYLED_ITEM('',(#410),#408);
#412=CARTESIAN_POINT('',(6.318897637795E-1,6.318897637795E-1,7.5E-1));
#413=DIRECTION('',(0.E0,0.E0,1.E0));
#414=DIRECTION('',(1.E0,0.E0,0.E0));
#415=AXIS2_PLACEMENT_3D('',#412,#413,#414);
#417=CURVE_STYLE('',#21,POSITIVE_LENGTH_MEASURE(2.E-2),#3);
#418=PRESENTATION_STYLE_ASSIGNMENT((#417));
#419=STYLED_ITEM('',(#418),#416);
#420=CARTESIAN_POINT('',(6.318897637795E-1,6.318897637795E-1,7.5E-1));
#421=DIRECTION('',(0.E0,0.E0,1.E0));
#422=DIRECTION('',(-1.E0,0.E0,0.E0));
#423=AXIS2_PLACEMENT_3D('',#420,#421,#422);
#425=CURVE_STYLE('',#21,POSITIVE_LENGTH_MEASURE(2.E-2),#3);
#426=PRESENTATION_STYLE_ASSIGNMENT((#425));
#427=STYLED_ITEM('',(#426),#424);
#428=CARTESIAN_POINT('',(6.318897637795E-1,6.318897637795E-1,7.5E-1));
#429=DIRECTION('',(0.E0,0.E0,-1.E0));
#430=DIRECTION('',(1.E0,0.E0,0.E0));
#431=AXIS2_PLACEMENT_3D('',#428,#429,#430);
#433=CURVE_STYLE('',#21,POSITIVE_LENGTH_MEASURE(2.E-2),#3);
#434=PRESENTATION_STYLE_ASSIGNMENT((#433));
#435=STYLED_ITEM('',(#434),#432);
#436=CARTESIAN_POINT('',(6.318897637795E-1,6.318897637795E-1,7.5E-1));
#437=DIRECTION('',(0.E0,0.E0,-1.E0));
#438=DIRECTION('',(-1.E0,0.E0,0.E0));
#439=AXIS2_PLACEMENT_3D('',#436,#437,#438);
#441=CURVE_STYLE('',#21,POSITIVE_LENGTH_MEASURE(2.E-2),#3);
#442=PRESENTATION_STYLE_ASSIGNMENT((#441));
#443=STYLED_ITEM('',(#442),#440);
#444=DIRECTION('',(0.E0,0.E0,-1.E0));
#445=VECTOR('',#444,3.937007874016E-1);
#446=CARTESIAN_POINT('',(5.531496062992E-1,6.318897637795E-1,7.5E-1));
#447=LINE('',#446,#445);
#448=CURVE_STYLE('',#21,POSITIVE_LENGTH_MEASURE(2.E-2),#3);
#449=PRESENTATION_STYLE_ASSIGNMENT((#448));
#450=STYLED_ITEM('',(#449),#447);
#451=DIRECTION('',(0.E0,0.E0,1.E0));
#452=VECTOR('',#451,3.937007874016E-1);
#453=CARTESIAN_POINT('',(7.106299212598E-1,6.318897637795E-1,
3.562992125984E-1));
#454=LINE('',#453,#452);
#455=CURVE_STYLE('',#21,POSITIVE_LENGTH_MEASURE(2.E-2),#3);
#456=PRESENTATION_STYLE_ASSIGNMENT((#455));
#457=STYLED_ITEM('',(#456),#454);
#458=CARTESIAN_POINT('',(6.318897637795E-1,6.318897637795E-1,
3.562992125984E-1));
#459=DIRECTION('',(0.E0,0.E0,1.E0));
#460=DIRECTION('',(-1.E0,0.E0,0.E0));
#461=AXIS2_PLACEMENT_3D('',#458,#459,#460);
#463=CURVE_STYLE('',#21,POSITIVE_LENGTH_MEASURE(2.E-2),#3);
#464=PRESENTATION_STYLE_ASSIGNMENT((#463));
#465=STYLED_ITEM('',(#464),#462);
#466=CARTESIAN_POINT('',(6.318897637795E-1,6.318897637795E-1,
3.562992125984E-1));
#467=DIRECTION('',(0.E0,0.E0,1.E0));
#468=DIRECTION('',(1.E0,0.E0,0.E0));
#469=AXIS2_PLACEMENT_3D('',#466,#467,#468);
#471=CURVE_STYLE('',#21,POSITIVE_LENGTH_MEASURE(2.E-2),#3);
#472=PRESENTATION_STYLE_ASSIGNMENT((#471));
#473=STYLED_ITEM('',(#472),#470);
#474=DIRECTION('',(0.E0,0.E0,-1.E0));
#475=VECTOR('',#474,2.185039370079E-1);
#476=CARTESIAN_POINT('',(2.283464566929E-1,6.318897637795E-1,
2.185039370079E-1));
#477=LINE('',#476,#475);
#478=CURVE_STYLE('',#21,POSITIVE_LENGTH_MEASURE(2.E-2),#3);
#479=PRESENTATION_STYLE_ASSIGNMENT((#478));
#480=STYLED_ITEM('',(#479),#477);
#481=DIRECTION('',(0.E0,0.E0,1.E0));
#482=VECTOR('',#481,2.185039370079E-1);
#483=CARTESIAN_POINT('',(2.874015748031E-1,6.318897637795E-1,0.E0));
#484=LINE('',#483,#482);
#485=CURVE_STYLE('',#21,POSITIVE_LENGTH_MEASURE(2.E-2),#3);
#486=PRESENTATION_STYLE_ASSIGNMENT((#485));
#487=STYLED_ITEM('',(#486),#484);
#488=CARTESIAN_POINT('',(2.578740157480E-1,6.318897637795E-1,
2.185039370079E-1));
#489=DIRECTION('',(0.E0,0.E0,-1.E0));
#490=DIRECTION('',(-1.E0,0.E0,0.E0));
#491=AXIS2_PLACEMENT_3D('',#488,#489,#490);
#493=CURVE_STYLE('',#21,POSITIVE_LENGTH_MEASURE(2.E-2),#3);
#494=PRESENTATION_STYLE_ASSIGNMENT((#493));
#495=STYLED_ITEM('',(#494),#492);
#496=CARTESIAN_POINT('',(2.578740157480E-1,6.318897637795E-1,
2.185039370079E-1));
#497=DIRECTION('',(0.E0,0.E0,-1.E0));
#498=DIRECTION('',(1.E0,0.E0,0.E0));
#499=AXIS2_PLACEMENT_3D('',#496,#497,#498);
#501=CURVE_STYLE('',#21,POSITIVE_LENGTH_MEASURE(2.E-2),#3);
#502=PRESENTATION_STYLE_ASSIGNMENT((#501));
#503=STYLED_ITEM('',(#502),#500);
#504=CARTESIAN_POINT('',(1.005905511811E0,5.334645669291E-1,0.E0));
#505=CARTESIAN_POINT('',(9.685039370079E-1,5.334645669291E-1,0.E0));
#506=VERTEX_POINT('',#504);
#507=VERTEX_POINT('',#505);
#508=CARTESIAN_POINT('',(1.005905511811E0,5.334645669291E-1,3.759842519685E-1));
#509=VERTEX_POINT('',#508);
#510=CARTESIAN_POINT('',(9.685039370079E-1,5.334645669291E-1,
3.759842519685E-1));
#511=VERTEX_POINT('',#510);
#512=CARTESIAN_POINT('',(9.685039370079E-1,2.952755905512E-1,0.E0));
#513=VERTEX_POINT('',#512);
#514=CARTESIAN_POINT('',(9.685039370079E-1,2.952755905512E-1,
3.759842519685E-1));
#515=VERTEX_POINT('',#514);
#516=CARTESIAN_POINT('',(2.952755905512E-1,2.952755905512E-1,0.E0));
#517=VERTEX_POINT('',#516);
#518=CARTESIAN_POINT('',(2.952755905512E-1,2.952755905512E-1,
3.759842519685E-1));
#519=VERTEX_POINT('',#518);
#520=CARTESIAN_POINT('',(2.952755905512E-1,5.334645669291E-1,0.E0));
#521=VERTEX_POINT('',#520);
#522=CARTESIAN_POINT('',(2.952755905512E-1,5.334645669291E-1,
3.759842519685E-1));
#523=VERTEX_POINT('',#522);
#524=CARTESIAN_POINT('',(2.578740157480E-1,5.334645669291E-1,0.E0));
#525=VERTEX_POINT('',#524);
#526=CARTESIAN_POINT('',(2.578740157480E-1,5.334645669291E-1,
3.759842519685E-1));
#527=VERTEX_POINT('',#526);
#528=CARTESIAN_POINT('',(2.578740157480E-1,7.303149606299E-1,0.E0));
#529=VERTEX_POINT('',#528);
#530=CARTESIAN_POINT('',(2.578740157480E-1,7.303149606299E-1,
3.759842519685E-1));
#531=VERTEX_POINT('',#530);
#532=CARTESIAN_POINT('',(2.952755905512E-1,7.303149606299E-1,0.E0));
#533=VERTEX_POINT('',#532);
#534=CARTESIAN_POINT('',(2.952755905512E-1,7.303149606299E-1,
3.759842519685E-1));
#535=VERTEX_POINT('',#534);
#536=CARTESIAN_POINT('',(2.952755905512E-1,9.685039370079E-1,0.E0));
#537=VERTEX_POINT('',#536);
#538=CARTESIAN_POINT('',(2.952755905512E-1,9.685039370079E-1,
3.759842519685E-1));
#539=VERTEX_POINT('',#538);
#540=CARTESIAN_POINT('',(9.685039370079E-1,9.685039370079E-1,0.E0));
#541=VERTEX_POINT('',#540);
#542=CARTESIAN_POINT('',(9.685039370079E-1,9.685039370079E-1,
3.759842519685E-1));
#543=VERTEX_POINT('',#542);
#544=CARTESIAN_POINT('',(9.685039370079E-1,7.303149606299E-1,0.E0));
#545=VERTEX_POINT('',#544);
#546=CARTESIAN_POINT('',(9.685039370079E-1,7.303149606299E-1,
3.759842519685E-1));
#547=VERTEX_POINT('',#546);
#548=CARTESIAN_POINT('',(1.005905511811E0,7.303149606299E-1,0.E0));
#549=VERTEX_POINT('',#548);
#550=CARTESIAN_POINT('',(1.005905511811E0,7.303149606299E-1,3.759842519685E-1));
#551=VERTEX_POINT('',#550);
#552=CARTESIAN_POINT('',(9.763779527559E-1,6.318897637795E-1,
2.185039370079E-1));
#553=CARTESIAN_POINT('',(9.763779527559E-1,6.318897637795E-1,0.E0));
#554=VERTEX_POINT('',#552);
#555=VERTEX_POINT('',#553);
#556=CARTESIAN_POINT('',(1.035433070866E0,6.318897637795E-1,2.185039370079E-1));
#557=VERTEX_POINT('',#556);
#558=CARTESIAN_POINT('',(1.035433070866E0,6.318897637795E-1,0.E0));
#559=VERTEX_POINT('',#558);
#560=CARTESIAN_POINT('',(2.283464566929E-1,6.318897637795E-1,
2.185039370079E-1));
#561=CARTESIAN_POINT('',(2.283464566929E-1,6.318897637795E-1,0.E0));
#562=VERTEX_POINT('',#560);
#563=VERTEX_POINT('',#561);
#564=CARTESIAN_POINT('',(2.874015748031E-1,6.318897637795E-1,
2.185039370079E-1));
#565=VERTEX_POINT('',#564);
#566=CARTESIAN_POINT('',(2.874015748031E-1,6.318897637795E-1,0.E0));
#567=VERTEX_POINT('',#566);
#568=CARTESIAN_POINT('',(5.531496062992E-1,6.318897637795E-1,7.5E-1));
#569=CARTESIAN_POINT('',(5.531496062992E-1,6.318897637795E-1,
3.562992125984E-1));
#570=VERTEX_POINT('',#568);
#571=VERTEX_POINT('',#569);
#572=CARTESIAN_POINT('',(7.106299212598E-1,6.318897637795E-1,7.5E-1));
#573=VERTEX_POINT('',#572);
#574=CARTESIAN_POINT('',(7.106299212598E-1,6.318897637795E-1,
3.562992125984E-1));
#575=VERTEX_POINT('',#574);
#576=CARTESIAN_POINT('',(3.986220472441E-1,6.318897637795E-1,
6.318897637795E-1));
#577=CARTESIAN_POINT('',(3.986220472441E-1,6.318897637795E-1,7.5E-1));
#578=VERTEX_POINT('',#576);
#579=VERTEX_POINT('',#577);
#580=CARTESIAN_POINT('',(8.651574803150E-1,6.318897637795E-1,7.5E-1));
#581=VERTEX_POINT('',#580);
#582=CARTESIAN_POINT('',(8.651574803150E-1,6.318897637795E-1,
6.318897637795E-1));
#583=VERTEX_POINT('',#582);
#584=CARTESIAN_POINT('',(3.297244094488E-1,6.318897637795E-1,
3.759842519685E-1));
#585=CARTESIAN_POINT('',(3.297244094488E-1,6.318897637795E-1,
6.318897637795E-1));
#586=VERTEX_POINT('',#584);
#587=VERTEX_POINT('',#585);
#588=CARTESIAN_POINT('',(9.340551181102E-1,6.318897637795E-1,
6.318897637795E-1));
#589=VERTEX_POINT('',#588);
#590=CARTESIAN_POINT('',(9.340551181102E-1,6.318897637795E-1,
3.759842519685E-1));
#591=VERTEX_POINT('',#590);
#592=CARTESIAN_POINT('',(1.005905511811E0,6.318897637795E-1,2.185039370079E-1));
#593=DIRECTION('',(0.E0,0.E0,-1.E0));
#594=DIRECTION('',(-1.E0,0.E0,0.E0));
#595=AXIS2_PLACEMENT_3D('',#592,#593,#594);
#596=CYLINDRICAL_SURFACE('',#595,2.952755905512E-2);
#598=ORIENTED_EDGE('',*,*,#597,.T.);
#600=ORIENTED_EDGE('',*,*,#599,.T.);
#602=ORIENTED_EDGE('',*,*,#601,.T.);
#604=ORIENTED_EDGE('',*,*,#603,.T.);
#605=EDGE_LOOP('',(#598,#600,#602,#604));
#606=FACE_OUTER_BOUND('',#605,.F.);
#608=CARTESIAN_POINT('',(1.005905511811E0,6.318897637795E-1,2.185039370079E-1));
#609=DIRECTION('',(0.E0,0.E0,-1.E0));
#610=DIRECTION('',(-1.E0,0.E0,0.E0));
#611=AXIS2_PLACEMENT_3D('',#608,#609,#610);
#612=CYLINDRICAL_SURFACE('',#611,2.952755905512E-2);
#613=ORIENTED_EDGE('',*,*,#597,.F.);
#615=ORIENTED_EDGE('',*,*,#614,.T.);
#616=ORIENTED_EDGE('',*,*,#601,.F.);
#618=ORIENTED_EDGE('',*,*,#617,.T.);
#619=EDGE_LOOP('',(#613,#615,#616,#618));
#620=FACE_OUTER_BOUND('',#619,.F.);
#622=CARTESIAN_POINT('',(6.318897637795E-1,6.318897637795E-1,
2.185039370079E-1));
#623=DIRECTION('',(0.E0,0.E0,1.E0));
#624=DIRECTION('',(-1.E0,0.E0,0.E0));
#625=AXIS2_PLACEMENT_3D('',#622,#623,#624);
#626=PLANE('',#625);
#627=ORIENTED_EDGE('',*,*,#614,.F.);
#628=ORIENTED_EDGE('',*,*,#603,.F.);
#629=EDGE_LOOP('',(#627,#628));
#630=FACE_OUTER_BOUND('',#629,.F.);
#632=CARTESIAN_POINT('',(6.318897637795E-1,6.318897637795E-1,0.E0));
#633=DIRECTION('',(0.E0,0.E0,1.E0));
#634=DIRECTION('',(1.E0,0.E0,0.E0));
#635=AXIS2_PLACEMENT_3D('',#632,#633,#634);
#636=PLANE('',#635);
#638=ORIENTED_EDGE('',*,*,#637,.F.);
#640=ORIENTED_EDGE('',*,*,#639,.T.);
#642=ORIENTED_EDGE('',*,*,#641,.T.);
#644=ORIENTED_EDGE('',*,*,#643,.T.);
#646=ORIENTED_EDGE('',*,*,#645,.T.);
#648=ORIENTED_EDGE('',*,*,#647,.T.);
#650=ORIENTED_EDGE('',*,*,#649,.F.);
#652=ORIENTED_EDGE('',*,*,#651,.F.);
#654=ORIENTED_EDGE('',*,*,#653,.T.);
#656=ORIENTED_EDGE('',*,*,#655,.T.);
#658=ORIENTED_EDGE('',*,*,#657,.T.);
#660=ORIENTED_EDGE('',*,*,#659,.F.);
#661=EDGE_LOOP('',(#638,#640,#642,#644,#646,#648,#650,#652,#654,#656,#658,
#660));
#662=FACE_OUTER_BOUND('',#661,.F.);
#663=ORIENTED_EDGE('',*,*,#617,.F.);
#664=ORIENTED_EDGE('',*,*,#599,.F.);
#665=EDGE_LOOP('',(#663,#664));
#666=FACE_BOUND('',#665,.F.);
#668=ORIENTED_EDGE('',*,*,#667,.F.);
#670=ORIENTED_EDGE('',*,*,#669,.F.);
#671=EDGE_LOOP('',(#668,#670));
#672=FACE_BOUND('',#671,.F.);
#674=CARTESIAN_POINT('',(1.005905511811E0,6.318897637795E-1,0.E0));
#675=DIRECTION('',(0.E0,0.E0,1.E0));
#676=DIRECTION('',(0.E0,-1.E0,0.E0));
#677=AXIS2_PLACEMENT_3D('',#674,#675,#676);
#678=CYLINDRICAL_SURFACE('',#677,9.842519685039E-2);
#679=ORIENTED_EDGE('',*,*,#637,.T.);
#681=ORIENTED_EDGE('',*,*,#680,.F.);
#683=ORIENTED_EDGE('',*,*,#682,.T.);
#685=ORIENTED_EDGE('',*,*,#684,.F.);
#686=EDGE_LOOP('',(#679,#681,#683,#685));
#687=FACE_OUTER_BOUND('',#686,.F.);
#689=CARTESIAN_POINT('',(9.685039370079E-1,5.334645669291E-1,0.E0));
#690=DIRECTION('',(0.E0,-1.E0,0.E0));
#691=DIRECTION('',(1.E0,0.E0,0.E0));
#692=AXIS2_PLACEMENT_3D('',#689,#690,#691);
#693=PLANE('',#692);
#694=ORIENTED_EDGE('',*,*,#659,.T.);
#696=ORIENTED_EDGE('',*,*,#695,.F.);
#698=ORIENTED_EDGE('',*,*,#697,.F.);
#699=ORIENTED_EDGE('',*,*,#680,.T.);
#700=EDGE_LOOP('',(#694,#696,#698,#699));
#701=FACE_OUTER_BOUND('',#700,.F.);
#703=CARTESIAN_POINT('',(9.685039370079E-1,2.952755905512E-1,0.E0));
#704=DIRECTION('',(1.E0,0.E0,0.E0));
#705=DIRECTION('',(0.E0,1.E0,0.E0));
#706=AXIS2_PLACEMENT_3D('',#703,#704,#705);
#707=PLANE('',#706);
#708=ORIENTED_EDGE('',*,*,#657,.F.);
#710=ORIENTED_EDGE('',*,*,#709,.F.);
#712=ORIENTED_EDGE('',*,*,#711,.F.);
#713=ORIENTED_EDGE('',*,*,#695,.T.);
#714=EDGE_LOOP('',(#708,#710,#712,#713));
#715=FACE_OUTER_BOUND('',#714,.F.);
#717=CARTESIAN_POINT('',(2.952755905512E-1,2.952755905512E-1,0.E0));
#718=DIRECTION('',(0.E0,-1.E0,0.E0));
#719=DIRECTION('',(1.E0,0.E0,0.E0));
#720=AXIS2_PLACEMENT_3D('',#717,#718,#719);
#721=PLANE('',#720);
#722=ORIENTED_EDGE('',*,*,#655,.F.);
#724=ORIENTED_EDGE('',*,*,#723,.F.);
#726=ORIENTED_EDGE('',*,*,#725,.F.);
#727=ORIENTED_EDGE('',*,*,#709,.T.);
#728=EDGE_LOOP('',(#722,#724,#726,#727));
#729=FACE_OUTER_BOUND('',#728,.F.);
#731=CARTESIAN_POINT('',(2.952755905512E-1,5.334645669291E-1,0.E0));
#732=DIRECTION('',(-1.E0,0.E0,0.E0));
#733=DIRECTION('',(0.E0,-1.E0,0.E0));
#734=AXIS2_PLACEMENT_3D('',#731,#732,#733);
#735=PLANE('',#734);
#736=ORIENTED_EDGE('',*,*,#653,.F.);
#738=ORIENTED_EDGE('',*,*,#737,.F.);
#740=ORIENTED_EDGE('',*,*,#739,.F.);
#741=ORIENTED_EDGE('',*,*,#723,.T.);
#742=EDGE_LOOP('',(#736,#738,#740,#741));
#743=FACE_OUTER_BOUND('',#742,.F.);
#745=CARTESIAN_POINT('',(2.578740157480E-1,5.334645669291E-1,0.E0));
#746=DIRECTION('',(0.E0,-1.E0,0.E0));
#747=DIRECTION('',(1.E0,0.E0,0.E0));
#748=AXIS2_PLACEMENT_3D('',#745,#746,#747);
#749=PLANE('',#748);
#750=ORIENTED_EDGE('',*,*,#651,.T.);
#752=ORIENTED_EDGE('',*,*,#751,.T.);
#754=ORIENTED_EDGE('',*,*,#753,.F.);
#755=ORIENTED_EDGE('',*,*,#737,.T.);
#756=EDGE_LOOP('',(#750,#752,#754,#755));
#757=FACE_OUTER_BOUND('',#756,.F.);
#759=CARTESIAN_POINT('',(2.578740157480E-1,6.318897637795E-1,0.E0));
#760=DIRECTION('',(0.E0,0.E0,1.E0));
#761=DIRECTION('',(0.E0,1.E0,0.E0));
#762=AXIS2_PLACEMENT_3D('',#759,#760,#761);
#763=CYLINDRICAL_SURFACE('',#762,9.842519685039E-2);
#764=ORIENTED_EDGE('',*,*,#649,.T.);
#766=ORIENTED_EDGE('',*,*,#765,.F.);
#768=ORIENTED_EDGE('',*,*,#767,.T.);
#769=ORIENTED_EDGE('',*,*,#751,.F.);
#770=EDGE_LOOP('',(#764,#766,#768,#769));
#771=FACE_OUTER_BOUND('',#770,.F.);
#773=CARTESIAN_POINT('',(2.952755905512E-1,7.303149606299E-1,0.E0));
#774=DIRECTION('',(0.E0,1.E0,0.E0));
#775=DIRECTION('',(-1.E0,0.E0,0.E0));
#776=AXIS2_PLACEMENT_3D('',#773,#774,#775);
#777=PLANE('',#776);
#778=ORIENTED_EDGE('',*,*,#647,.F.);
#780=ORIENTED_EDGE('',*,*,#779,.F.);
#782=ORIENTED_EDGE('',*,*,#781,.F.);
#783=ORIENTED_EDGE('',*,*,#765,.T.);
#784=EDGE_LOOP('',(#778,#780,#782,#783));
#785=FACE_OUTER_BOUND('',#784,.F.);
#787=CARTESIAN_POINT('',(2.952755905512E-1,9.685039370079E-1,0.E0));
#788=DIRECTION('',(-1.E0,0.E0,0.E0));
#789=DIRECTION('',(0.E0,-1.E0,0.E0));
#790=AXIS2_PLACEMENT_3D('',#787,#788,#789);
#791=PLANE('',#790);
#792=ORIENTED_EDGE('',*,*,#645,.F.);
#794=ORIENTED_EDGE('',*,*,#793,.F.);
#796=ORIENTED_EDGE('',*,*,#795,.F.);
#797=ORIENTED_EDGE('',*,*,#779,.T.);
#798=EDGE_LOOP('',(#792,#794,#796,#797));
#799=FACE_OUTER_BOUND('',#798,.F.);
#801=CARTESIAN_POINT('',(9.685039370079E-1,9.685039370079E-1,0.E0));
#802=DIRECTION('',(0.E0,1.E0,0.E0));
#803=DIRECTION('',(-1.E0,0.E0,0.E0));
#804=AXIS2_PLACEMENT_3D('',#801,#802,#803);
#805=PLANE('',#804);
#806=ORIENTED_EDGE('',*,*,#643,.F.);
#808=ORIENTED_EDGE('',*,*,#807,.F.);
#810=ORIENTED_EDGE('',*,*,#809,.F.);
#811=ORIENTED_EDGE('',*,*,#793,.T.);
#812=EDGE_LOOP('',(#806,#808,#810,#811));
#813=FACE_OUTER_BOUND('',#812,.F.);
#815=CARTESIAN_POINT('',(9.685039370079E-1,7.303149606299E-1,0.E0));
#816=DIRECTION('',(1.E0,0.E0,0.E0));
#817=DIRECTION('',(0.E0,1.E0,0.E0));
#818=AXIS2_PLACEMENT_3D('',#815,#816,#817);
#819=PLANE('',#818);
#820=ORIENTED_EDGE('',*,*,#641,.F.);
#822=ORIENTED_EDGE('',*,*,#821,.F.);
#824=ORIENTED_EDGE('',*,*,#823,.F.);
#825=ORIENTED_EDGE('',*,*,#807,.T.);
#826=EDGE_LOOP('',(#820,#822,#824,#825));
#827=FACE_OUTER_BOUND('',#826,.F.);
#829=CARTESIAN_POINT('',(1.005905511811E0,7.303149606299E-1,0.E0));
#830=DIRECTION('',(0.E0,1.E0,0.E0));
#831=DIRECTION('',(-1.E0,0.E0,0.E0));
#832=AXIS2_PLACEMENT_3D('',#829,#830,#831);
#833=PLANE('',#832);
#834=ORIENTED_EDGE('',*,*,#639,.F.);
#835=ORIENTED_EDGE('',*,*,#684,.T.);
#837=ORIENTED_EDGE('',*,*,#836,.F.);
#838=ORIENTED_EDGE('',*,*,#821,.T.);
#839=EDGE_LOOP('',(#834,#835,#837,#838));
#840=FACE_OUTER_BOUND('',#839,.F.);
#842=CARTESIAN_POINT('',(6.318897637795E-1,6.318897637795E-1,
3.759842519685E-1));
#843=DIRECTION('',(0.E0,0.E0,1.E0));
#844=DIRECTION('',(1.E0,0.E0,0.E0));
#845=AXIS2_PLACEMENT_3D('',#842,#843,#844);
#846=PLANE('',#845);
#847=ORIENTED_EDGE('',*,*,#682,.F.);
#848=ORIENTED_EDGE('',*,*,#697,.T.);
#849=ORIENTED_EDGE('',*,*,#711,.T.);
#850=ORIENTED_EDGE('',*,*,#725,.T.);
#851=ORIENTED_EDGE('',*,*,#739,.T.);
#852=ORIENTED_EDGE('',*,*,#753,.T.);
#853=ORIENTED_EDGE('',*,*,#767,.F.);
#854=ORIENTED_EDGE('',*,*,#781,.T.);
#855=ORIENTED_EDGE('',*,*,#795,.T.);
#856=ORIENTED_EDGE('',*,*,#809,.T.);
#857=ORIENTED_EDGE('',*,*,#823,.T.);
#858=ORIENTED_EDGE('',*,*,#836,.T.);
#859=EDGE_LOOP('',(#847,#848,#849,#850,#851,#852,#853,#854,#855,#856,#857,
#858));
#860=FACE_OUTER_BOUND('',#859,.F.);
#862=ORIENTED_EDGE('',*,*,#861,.F.);
#864=ORIENTED_EDGE('',*,*,#863,.F.);
#865=EDGE_LOOP('',(#862,#864));
#866=FACE_BOUND('',#865,.F.);
#868=CARTESIAN_POINT('',(6.318897637795E-1,6.318897637795E-1,
3.759842519685E-1));
#869=DIRECTION('',(0.E0,0.E0,1.E0));
#870=DIRECTION('',(-1.E0,0.E0,0.E0));
#871=AXIS2_PLACEMENT_3D('',#868,#869,#870);
#872=CYLINDRICAL_SURFACE('',#871,3.021653543307E-1);
#874=ORIENTED_EDGE('',*,*,#873,.T.);
#876=ORIENTED_EDGE('',*,*,#875,.T.);
#878=ORIENTED_EDGE('',*,*,#877,.F.);
#879=ORIENTED_EDGE('',*,*,#861,.T.);
#880=EDGE_LOOP('',(#874,#876,#878,#879));
#881=FACE_OUTER_BOUND('',#880,.F.);
#883=CARTESIAN_POINT('',(6.318897637795E-1,6.318897637795E-1,
3.759842519685E-1));
#884=DIRECTION('',(0.E0,0.E0,1.E0));
#885=DIRECTION('',(-1.E0,0.E0,0.E0));
#886=AXIS2_PLACEMENT_3D('',#883,#884,#885);
#887=CYLINDRICAL_SURFACE('',#886,3.021653543307E-1);
#888=ORIENTED_EDGE('',*,*,#873,.F.);
#889=ORIENTED_EDGE('',*,*,#863,.T.);
#890=ORIENTED_EDGE('',*,*,#877,.T.);
#892=ORIENTED_EDGE('',*,*,#891,.T.);
#893=EDGE_LOOP('',(#888,#889,#890,#892));
#894=FACE_OUTER_BOUND('',#893,.F.);
#896=CARTESIAN_POINT('',(6.318897637795E-1,6.318897637795E-1,
6.318897637795E-1));
#897=DIRECTION('',(0.E0,0.E0,1.E0));
#898=DIRECTION('',(-1.E0,0.E0,0.E0));
#899=AXIS2_PLACEMENT_3D('',#896,#897,#898);
#900=PLANE('',#899);
#901=ORIENTED_EDGE('',*,*,#891,.F.);
#902=ORIENTED_EDGE('',*,*,#875,.F.);
#903=EDGE_LOOP('',(#901,#902));
#904=FACE_OUTER_BOUND('',#903,.F.);
#906=ORIENTED_EDGE('',*,*,#905,.F.);
#908=ORIENTED_EDGE('',*,*,#907,.F.);
#909=EDGE_LOOP('',(#906,#908));
#910=FACE_BOUND('',#909,.F.);
#912=CARTESIAN_POINT('',(6.318897637795E-1,6.318897637795E-1,
6.318897637795E-1));
#913=DIRECTION('',(0.E0,0.E0,1.E0));
#914=DIRECTION('',(-1.E0,0.E0,0.E0));
#915=AXIS2_PLACEMENT_3D('',#912,#913,#914);
#916=CYLINDRICAL_SURFACE('',#915,2.332677165354E-1);
#918=ORIENTED_EDGE('',*,*,#917,.T.);
#920=ORIENTED_EDGE('',*,*,#919,.T.);
#922=ORIENTED_EDGE('',*,*,#921,.F.);
#923=ORIENTED_EDGE('',*,*,#905,.T.);
#924=EDGE_LOOP('',(#918,#920,#922,#923));
#925=FACE_OUTER_BOUND('',#924,.F.);
#927=CARTESIAN_POINT('',(6.318897637795E-1,6.318897637795E-1,
6.318897637795E-1));
#928=DIRECTION('',(0.E0,0.E0,1.E0));
#929=DIRECTION('',(-1.E0,0.E0,0.E0));
#930=AXIS2_PLACEMENT_3D('',#927,#928,#929);
#931=CYLINDRICAL_SURFACE('',#930,2.332677165354E-1);
#932=ORIENTED_EDGE('',*,*,#917,.F.);
#933=ORIENTED_EDGE('',*,*,#907,.T.);
#934=ORIENTED_EDGE('',*,*,#921,.T.);
#936=ORIENTED_EDGE('',*,*,#935,.T.);
#937=EDGE_LOOP('',(#932,#933,#934,#936));
#938=FACE_OUTER_BOUND('',#937,.F.);
#940=CARTESIAN_POINT('',(6.318897637795E-1,6.318897637795E-1,7.5E-1));
#941=DIRECTION('',(0.E0,0.E0,1.E0));
#942=DIRECTION('',(-1.E0,0.E0,0.E0));
#943=AXIS2_PLACEMENT_3D('',#940,#941,#942);
#944=PLANE('',#943);
#945=ORIENTED_EDGE('',*,*,#935,.F.);
#946=ORIENTED_EDGE('',*,*,#919,.F.);
#947=EDGE_LOOP('',(#945,#946));
#948=FACE_OUTER_BOUND('',#947,.F.);
#950=ORIENTED_EDGE('',*,*,#949,.F.);
#952=ORIENTED_EDGE('',*,*,#951,.F.);
#953=EDGE_LOOP('',(#950,#952));
#954=FACE_BOUND('',#953,.F.);
#956=CARTESIAN_POINT('',(6.318897637795E-1,6.318897637795E-1,
9.468503937008E-1));
#957=DIRECTION('',(0.E0,0.E0,-1.E0));
#958=DIRECTION('',(-1.E0,0.E0,0.E0));
#959=AXIS2_PLACEMENT_3D('',#956,#957,#958);
#960=CYLINDRICAL_SURFACE('',#959,7.874015748031E-2);
#962=ORIENTED_EDGE('',*,*,#961,.T.);
#964=ORIENTED_EDGE('',*,*,#963,.T.);
#966=ORIENTED_EDGE('',*,*,#965,.T.);
#967=ORIENTED_EDGE('',*,*,#949,.T.);
#968=EDGE_LOOP('',(#962,#964,#966,#967));
#969=FACE_OUTER_BOUND('',#968,.F.);
#971=CARTESIAN_POINT('',(6.318897637795E-1,6.318897637795E-1,
9.468503937008E-1));
#972=DIRECTION('',(0.E0,0.E0,-1.E0));
#973=DIRECTION('',(-1.E0,0.E0,0.E0));
#974=AXIS2_PLACEMENT_3D('',#971,#972,#973);
#975=CYLINDRICAL_SURFACE('',#974,7.874015748031E-2);
#976=ORIENTED_EDGE('',*,*,#961,.F.);
#977=ORIENTED_EDGE('',*,*,#951,.T.);
#978=ORIENTED_EDGE('',*,*,#965,.F.);
#980=ORIENTED_EDGE('',*,*,#979,.T.);
#981=EDGE_LOOP('',(#976,#977,#978,#980));
#982=FACE_OUTER_BOUND('',#981,.F.);
#984=CARTESIAN_POINT('',(6.318897637795E-1,6.318897637795E-1,
3.562992125984E-1));
#985=DIRECTION('',(0.E0,0.E0,1.E0));
#986=DIRECTION('',(-1.E0,0.E0,0.E0));
#987=AXIS2_PLACEMENT_3D('',#984,#985,#986);
#988=PLANE('',#987);
#989=ORIENTED_EDGE('',*,*,#963,.F.);
#990=ORIENTED_EDGE('',*,*,#979,.F.);
#991=EDGE_LOOP('',(#989,#990));
#992=FACE_OUTER_BOUND('',#991,.F.);
#994=CARTESIAN_POINT('',(2.578740157480E-1,6.318897637795E-1,
2.185039370079E-1));
#995=DIRECTION('',(0.E0,0.E0,-1.E0));
#996=DIRECTION('',(-1.E0,0.E0,0.E0));
#997=AXIS2_PLACEMENT_3D('',#994,#995,#996);
#998=CYLINDRICAL_SURFACE('',#997,2.952755905512E-2);
#1000=ORIENTED_EDGE('',*,*,#999,.F.);
#1002=ORIENTED_EDGE('',*,*,#1001,.T.);
#1004=ORIENTED_EDGE('',*,*,#1003,.F.);
#1005=ORIENTED_EDGE('',*,*,#667,.T.);
#1006=EDGE_LOOP('',(#1000,#1002,#1004,#1005));
#1007=FACE_OUTER_BOUND('',#1006,.F.);
#1009=CARTESIAN_POINT('',(2.578740157480E-1,6.318897637795E-1,
2.185039370079E-1));
#1010=DIRECTION('',(0.E0,0.E0,-1.E0));
#1011=DIRECTION('',(-1.E0,0.E0,0.E0));
#1012=AXIS2_PLACEMENT_3D('',#1009,#1010,#1011);
#1013=CYLINDRICAL_SURFACE('',#1012,2.952755905512E-2);
#1014=ORIENTED_EDGE('',*,*,#999,.T.);
#1015=ORIENTED_EDGE('',*,*,#669,.T.);
#1016=ORIENTED_EDGE('',*,*,#1003,.T.);
#1018=ORIENTED_EDGE('',*,*,#1017,.T.);
#1019=EDGE_LOOP('',(#1014,#1015,#1016,#1018));
#1020=FACE_OUTER_BOUND('',#1019,.F.);
#1022=CARTESIAN_POINT('',(6.318897637795E-1,6.318897637795E-1,
2.185039370079E-1));
#1023=DIRECTION('',(0.E0,0.E0,1.E0));
#1024=DIRECTION('',(-1.E0,0.E0,0.E0));
#1025=AXIS2_PLACEMENT_3D('',#1022,#1023,#1024);
#1026=PLANE('',#1025);
#1027=ORIENTED_EDGE('',*,*,#1001,.F.);
#1028=ORIENTED_EDGE('',*,*,#1017,.F.);
#1029=EDGE_LOOP('',(#1027,#1028));
#1030=FACE_OUTER_BOUND('',#1029,.F.);
#1034=FILL_AREA_STYLE_COLOUR('',#3);
#1035=FILL_AREA_STYLE('',(#1034));
#1036=SURFACE_STYLE_FILL_AREA(#1035);
#1037=SURFACE_SIDE_STYLE('',(#1036));
#1038=SURFACE_STYLE_USAGE(.BOTH.,#1037);
#1039=PRESENTATION_STYLE_ASSIGNMENT((#1038));
#16=STYLED_ITEM('',(#1039),#1033);
#1041=LENGTH_MEASURE_WITH_UNIT(LENGTH_MEASURE(2.54E1),#1040);
#1042=(CONVERSION_BASED_UNIT('INCH',#1041)LENGTH_UNIT()NAMED_UNIT(*));
#1044=PLANE_ANGLE_MEASURE_WITH_UNIT(PLANE_ANGLE_MEASURE(1.745329251994E-2),
#1043);
#1045=(CONVERSION_BASED_UNIT('DEGREE',#1044)NAMED_UNIT(*)PLANE_ANGLE_UNIT());
#1047=UNCERTAINTY_MEASURE_WITH_UNIT(LENGTH_MEASURE(1.381443271392E-4),#1042,
'closure',
'Maximum model space distance between geometric entities at asserted connectivities');
#1049=CARTESIAN_POINT('',(0.E0,0.E0,0.E0));
#1050=DIRECTION('',(0.E0,0.E0,1.E0));
#1051=DIRECTION('',(1.E0,0.E0,0.E0));
#1054=MECHANICAL_DESIGN_GEOMETRIC_PRESENTATION_REPRESENTATION('',(#24,#31,#39,
#47,#55,#63,#70,#77,#85,#93,#101,#109,#116,#123,#130,#137,#144,#151,#158,#165,
#172,#179,#186,#193,#200,#207,#214,#221,#228,#235,#242,#249,#256,#263,#270,#277,
#284,#291,#298,#305,#312,#319,#327,#335,#343,#351,#358,#365,#373,#381,#389,#397,
#404,#411,#419,#427,#435,#443,#450,#457,#465,#473,#480,#487,#495,#503,#16),
#1048);
#1055=APPLICATION_CONTEXT('automotive design');
#1056=APPLICATION_PROTOCOL_DEFINITION('international standard',
'config_control_design',1994,#1055);
#1057=PRODUCT_DEFINITION_CONTEXT('',#1055,'design');
#1058=PRODUCT_CONTEXT('',#1055,'mechanical');
#1059=PRODUCT('CAMERA_BODY','CAMERA_BODY','NOT SPECIFIED',(#1058));
#1060=PRODUCT_DEFINITION_FORMATION_WITH_SPECIFIED_SOURCE('1','LAST_VERSION',
#1059,.MADE.);
#1068=LENGTH_MEASURE_WITH_UNIT(LENGTH_MEASURE(2.54E1),#1067);
#1069=(CONVERSION_BASED_UNIT('INCH',#1068)LENGTH_UNIT()NAMED_UNIT(*));
#1070=DERIVED_UNIT_ELEMENT(#1069,2.E0);
#1071=AREA_UNIT((#1070));
#1072=MEASURE_REPRESENTATION_ITEM('surface area measure',AREA_MEASURE(
1.990218207007E3),#1071);
#1077=LENGTH_MEASURE_WITH_UNIT(LENGTH_MEASURE(2.54E1),#1076);
#1078=(CONVERSION_BASED_UNIT('INCH',#1077)LENGTH_UNIT()NAMED_UNIT(*));
#1079=DERIVED_UNIT_ELEMENT(#1078,3.E0);
#1080=VOLUME_UNIT((#1079));
#1081=MEASURE_REPRESENTATION_ITEM('volume measure',VOLUME_MEASURE(
4.459211626163E3),#1080);
#1085=CARTESIAN_POINT('centre point',(1.605E1,1.604999999998E1,
7.635041826741E0));
#1090=LENGTH_MEASURE_WITH_UNIT(LENGTH_MEASURE(2.54E1),#1089);
#1091=(CONVERSION_BASED_UNIT('INCH',#1090)LENGTH_UNIT()NAMED_UNIT(*));
#1092=DERIVED_UNIT_ELEMENT(#1091,2.E0);
#1093=AREA_UNIT((#1092));
#1094=MEASURE_REPRESENTATION_ITEM('surface area measure',AREA_MEASURE(
1.990218207007E3),#1093);
#1099=LENGTH_MEASURE_WITH_UNIT(LENGTH_MEASURE(2.54E1),#1098);
#1100=(CONVERSION_BASED_UNIT('INCH',#1099)LENGTH_UNIT()NAMED_UNIT(*));
#1101=DERIVED_UNIT_ELEMENT(#1100,3.E0);
#1102=VOLUME_UNIT((#1101));
#1103=MEASURE_REPRESENTATION_ITEM('volume measure',VOLUME_MEASURE(
4.459211626163E3),#1102);
#1107=CARTESIAN_POINT('centre point',(1.605E1,1.604999999998E1,
7.635041826741E0));
#1=DRAUGHTING_PRE_DEFINED_COLOUR('green');
#2=COLOUR_RGB('',1.1E-2,1.2E-2,1.E0);
#3=COLOUR_RGB('',9.803921568627E-2,9.803921568627E-2,9.803921568627E-2);
#4=COLOUR_RGB('',2.352941176471E-1,2.352941176471E-1,2.352941176471E-1);
#5=COLOUR_RGB('',4.1E-1,2.61589E-1,1.12848E-1);
#6=COLOUR_RGB('',5.04854E-1,1.5455E-2,1.5455E-2);
#7=COLOUR_RGB('',6.35294E-1,6.86275E-1,7.4902E-1);
#8=COLOUR_RGB('',6.40777E-1,6.40777E-1,6.40777E-1);
#9=COLOUR_RGB('',6.69062E-1,6.69903E-1,6.55217E-1);
#10=COLOUR_RGB('',9.21569E-1,7.05882E-1,4.70588E-1);
#11=DRAUGHTING_PRE_DEFINED_COLOUR('red');
#12=DRAUGHTING_PRE_DEFINED_COLOUR('yellow');
#13=COLOUR_RGB('',1.E0,1.E0,5.3E-1);
#14=COLOUR_RGB('',1.E0,1.E0,9.49E-1);
#15=DRAUGHTING_PRE_DEFINED_COLOUR('white');
#36=CIRCLE('',#35,2.952755905512E-2);
#44=CIRCLE('',#43,2.952755905512E-2);
#52=CIRCLE('',#51,9.842519685039E-2);
#60=CIRCLE('',#59,9.842519685039E-2);
#82=CIRCLE('',#81,2.952755905512E-2);
#90=CIRCLE('',#89,2.952755905512E-2);
#98=CIRCLE('',#97,2.952755905512E-2);
#106=CIRCLE('',#105,2.952755905512E-2);
#324=CIRCLE('',#323,9.842519685039E-2);
#332=CIRCLE('',#331,9.842519685039E-2);
#340=CIRCLE('',#339,3.021653543307E-1);
#348=CIRCLE('',#347,3.021653543307E-1);
#370=CIRCLE('',#369,3.021653543307E-1);
#378=CIRCLE('',#377,3.021653543307E-1);
#386=CIRCLE('',#385,2.332677165354E-1);
#394=CIRCLE('',#393,2.332677165354E-1);
#416=CIRCLE('',#415,2.332677165354E-1);
#424=CIRCLE('',#423,2.332677165354E-1);
#432=CIRCLE('',#431,7.874015748031E-2);
#440=CIRCLE('',#439,7.874015748031E-2);
#462=CIRCLE('',#461,7.874015748031E-2);
#470=CIRCLE('',#469,7.874015748031E-2);
#492=CIRCLE('',#491,2.952755905512E-2);
#500=CIRCLE('',#499,2.952755905512E-2);
#597=EDGE_CURVE('',#554,#555,#20,.T.);
#599=EDGE_CURVE('',#555,#559,#90,.T.);
#601=EDGE_CURVE('',#559,#557,#28,.T.);
#603=EDGE_CURVE('',#557,#554,#44,.T.);
#607=ADVANCED_FACE('',(#606),#596,.F.);
#614=EDGE_CURVE('',#554,#557,#36,.T.);
#617=EDGE_CURVE('',#559,#555,#82,.T.);
#621=ADVANCED_FACE('',(#620),#612,.F.);
#631=ADVANCED_FACE('',(#630),#626,.F.);
#637=EDGE_CURVE('',#549,#506,#52,.T.);
#639=EDGE_CURVE('',#549,#545,#309,.T.);
#641=EDGE_CURVE('',#545,#541,#288,.T.);
#643=EDGE_CURVE('',#541,#537,#267,.T.);
#645=EDGE_CURVE('',#537,#533,#246,.T.);
#647=EDGE_CURVE('',#533,#529,#225,.T.);
#649=EDGE_CURVE('',#525,#529,#60,.T.);
#651=EDGE_CURVE('',#521,#525,#67,.T.);
#653=EDGE_CURVE('',#521,#517,#183,.T.);
#655=EDGE_CURVE('',#517,#513,#162,.T.);
#657=EDGE_CURVE('',#513,#507,#141,.T.);
#659=EDGE_CURVE('',#506,#507,#74,.T.);
#667=EDGE_CURVE('',#567,#563,#98,.T.);
#669=EDGE_CURVE('',#563,#567,#106,.T.);
#673=ADVANCED_FACE('',(#662,#666,#672),#636,.F.);
#680=EDGE_CURVE('',#509,#506,#113,.T.);
#682=EDGE_CURVE('',#509,#551,#324,.T.);
#684=EDGE_CURVE('',#549,#551,#120,.T.);
#688=ADVANCED_FACE('',(#687),#678,.T.);
#695=EDGE_CURVE('',#511,#507,#127,.T.);
#697=EDGE_CURVE('',#509,#511,#134,.T.);
#702=ADVANCED_FACE('',(#701),#693,.T.);
#709=EDGE_CURVE('',#515,#513,#148,.T.);
#711=EDGE_CURVE('',#511,#515,#155,.T.);
#716=ADVANCED_FACE('',(#715),#707,.T.);
#723=EDGE_CURVE('',#519,#517,#169,.T.);
#725=EDGE_CURVE('',#515,#519,#176,.T.);
#730=ADVANCED_FACE('',(#729),#721,.T.);
#737=EDGE_CURVE('',#523,#521,#190,.T.);
#739=EDGE_CURVE('',#519,#523,#197,.T.);
#744=ADVANCED_FACE('',(#743),#735,.T.);
#751=EDGE_CURVE('',#525,#527,#218,.T.);
#753=EDGE_CURVE('',#523,#527,#204,.T.);
#758=ADVANCED_FACE('',(#757),#749,.T.);
#765=EDGE_CURVE('',#531,#529,#211,.T.);
#767=EDGE_CURVE('',#531,#527,#332,.T.);
#772=ADVANCED_FACE('',(#771),#763,.T.);
#779=EDGE_CURVE('',#535,#533,#232,.T.);
#781=EDGE_CURVE('',#531,#535,#239,.T.);
#786=ADVANCED_FACE('',(#785),#777,.T.);
#793=EDGE_CURVE('',#539,#537,#253,.T.);
#795=EDGE_CURVE('',#535,#539,#260,.T.);
#800=ADVANCED_FACE('',(#799),#791,.T.);
#807=EDGE_CURVE('',#543,#541,#274,.T.);
#809=EDGE_CURVE('',#539,#543,#281,.T.);
#814=ADVANCED_FACE('',(#813),#805,.T.);
#821=EDGE_CURVE('',#547,#545,#295,.T.);
#823=EDGE_CURVE('',#543,#547,#302,.T.);
#828=ADVANCED_FACE('',(#827),#819,.T.);
#836=EDGE_CURVE('',#547,#551,#316,.T.);
#841=ADVANCED_FACE('',(#840),#833,.T.);
#861=EDGE_CURVE('',#591,#586,#340,.T.);
#863=EDGE_CURVE('',#586,#591,#348,.T.);
#867=ADVANCED_FACE('',(#860,#866),#846,.T.);
#873=EDGE_CURVE('',#586,#587,#362,.T.);
#875=EDGE_CURVE('',#587,#589,#378,.T.);
#877=EDGE_CURVE('',#591,#589,#355,.T.);
#882=ADVANCED_FACE('',(#881),#872,.T.);
#891=EDGE_CURVE('',#589,#587,#370,.T.);
#895=ADVANCED_FACE('',(#894),#887,.T.);
#905=EDGE_CURVE('',#583,#578,#386,.T.);
#907=EDGE_CURVE('',#578,#583,#394,.T.);
#911=ADVANCED_FACE('',(#904,#910),#900,.T.);
#917=EDGE_CURVE('',#578,#579,#408,.T.);
#919=EDGE_CURVE('',#579,#581,#424,.T.);
#921=EDGE_CURVE('',#583,#581,#401,.T.);
#926=ADVANCED_FACE('',(#925),#916,.T.);
#935=EDGE_CURVE('',#581,#579,#416,.T.);
#939=ADVANCED_FACE('',(#938),#931,.T.);
#949=EDGE_CURVE('',#573,#570,#432,.T.);
#951=EDGE_CURVE('',#570,#573,#440,.T.);
#955=ADVANCED_FACE('',(#948,#954),#944,.T.);
#961=EDGE_CURVE('',#570,#571,#447,.T.);
#963=EDGE_CURVE('',#571,#575,#462,.T.);
#965=EDGE_CURVE('',#575,#573,#454,.T.);
#970=ADVANCED_FACE('',(#969),#960,.F.);
#979=EDGE_CURVE('',#575,#571,#470,.T.);
#983=ADVANCED_FACE('',(#982),#975,.F.);
#993=ADVANCED_FACE('',(#992),#988,.T.);
#999=EDGE_CURVE('',#562,#563,#477,.T.);
#1001=EDGE_CURVE('',#562,#565,#492,.T.);
#1003=EDGE_CURVE('',#567,#565,#484,.T.);
#1008=ADVANCED_FACE('',(#1007),#998,.F.);
#1017=EDGE_CURVE('',#565,#562,#500,.T.);
#1021=ADVANCED_FACE('',(#1020),#1013,.F.);
#1031=ADVANCED_FACE('',(#1030),#1026,.F.);
#1032=CLOSED_SHELL('',(#607,#621,#631,#673,#688,#702,#716,#730,#744,#758,#772,
#786,#800,#814,#828,#841,#867,#882,#895,#911,#926,#939,#955,#970,#983,#993,
#1008,#1021,#1031));
#1033=MANIFOLD_SOLID_BREP('',#1032);
#1040=(LENGTH_UNIT()NAMED_UNIT(*)SI_UNIT(.MILLI.,.METRE.));
#1043=(NAMED_UNIT(*)PLANE_ANGLE_UNIT()SI_UNIT($,.RADIAN.));
#1046=(NAMED_UNIT(*)SI_UNIT($,.STERADIAN.)SOLID_ANGLE_UNIT());
#1048=(GEOMETRIC_REPRESENTATION_CONTEXT(3)GLOBAL_UNCERTAINTY_ASSIGNED_CONTEXT((
#1047))GLOBAL_UNIT_ASSIGNED_CONTEXT((#1042,#1045,#1046))REPRESENTATION_CONTEXT(
'ID1','3'));
#1052=AXIS2_PLACEMENT_3D('',#1049,#1050,#1051);
#1053=ADVANCED_BREP_SHAPE_REPRESENTATION('',(#1052,#1033),#1048);
#1061=PRODUCT_DEFINITION('design','',#1060,#1057);
#1062=PRODUCT_DEFINITION_SHAPE('','SHAPE FOR CAMERA_BODY.',#1061);
#1063=SHAPE_ASPECT('','solid data associated with CAMERA_BODY',#1062,.F.);
#1064=PROPERTY_DEFINITION('',
'shape for solid data with which properties are associated',#1063);
#1065=SHAPE_REPRESENTATION('',(#1033),#1048);
#1066=SHAPE_DEFINITION_REPRESENTATION(#1064,#1065);
#1067=(LENGTH_UNIT()NAMED_UNIT(*)SI_UNIT(.MILLI.,.METRE.));
#1073=PROPERTY_DEFINITION('geometric validation property','area of CAMERA_BODY',
#1063);
#1074=REPRESENTATION('surface area',(#1072),#1048);
#1075=PROPERTY_DEFINITION_REPRESENTATION(#1073,#1074);
#1076=(LENGTH_UNIT()NAMED_UNIT(*)SI_UNIT(.MILLI.,.METRE.));
#1082=PROPERTY_DEFINITION('geometric validation property',
'volume of CAMERA_BODY',#1063);
#1083=REPRESENTATION('volume',(#1081),#1048);
#1084=PROPERTY_DEFINITION_REPRESENTATION(#1082,#1083);
#1086=PROPERTY_DEFINITION('geometric validation property',
'centroid of CAMERA_BODY',#1063);
#1087=REPRESENTATION('centroid',(#1085),#1048);
#1088=PROPERTY_DEFINITION_REPRESENTATION(#1086,#1087);
#1089=(LENGTH_UNIT()NAMED_UNIT(*)SI_UNIT(.MILLI.,.METRE.));
#1095=PROPERTY_DEFINITION('geometric validation property','area of CAMERA_BODY',
#1062);
#1096=REPRESENTATION('surface area',(#1094),#1048);
#1097=PROPERTY_DEFINITION_REPRESENTATION(#1095,#1096);
#1098=(LENGTH_UNIT()NAMED_UNIT(*)SI_UNIT(.MILLI.,.METRE.));
#1104=PROPERTY_DEFINITION('geometric validation property',
'volume of CAMERA_BODY',#1062);
#1105=REPRESENTATION('volume',(#1103),#1048);
#1106=PROPERTY_DEFINITION_REPRESENTATION(#1104,#1105);
#1108=PROPERTY_DEFINITION('geometric validation property',
'centroid of CAMERA_BODY',#1062);
#1109=REPRESENTATION('centroid',(#1107),#1048);
#1110=PROPERTY_DEFINITION_REPRESENTATION(#1108,#1109);
#1111=SHAPE_DEFINITION_REPRESENTATION(#1062,#1053);
ENDSEC;
END-ISO-10303-21;
