ISO-10303-21;
HEADER;
FILE_DESCRIPTION((''),'2;1');
FILE_NAME('CHAMFER6','2026-06-15T13:46:19',('Esia'),(''),
'CREO PARAMETRIC BY PTC INC, 2025102','CREO PARAMETRIC BY PTC INC, 2025102','');
FILE_SCHEMA((
'AP242_MANAGED_MODEL_BASED_3D_ENGINEERING_MIM_LF { 1 0 10303 442 1 1 4 }'));
ENDSEC;
DATA;
#17=DIRECTION('',(-7.071067811865E-1,7.071067811865E-1,0.E0));
#18=VECTOR('',#17,1.106912101942E-2);
#19=CARTESIAN_POINT('',(-3.965847771039E-2,3.204152566003E-2,
3.188976377953E-2));
#20=LINE('',#19,#18);
#21=DRAUGHTING_PRE_DEFINED_CURVE_FONT('continuous');
#22=CURVE_STYLE('',#21,POSITIVE_LENGTH_MEASURE(2.E-2),#9);
#23=PRESENTATION_STYLE_ASSIGNMENT((#22));
#24=STYLED_ITEM('',(#23),#20);
#25=DIRECTION('',(7.071067811865E-1,7.071067811865E-1,0.E0));
#26=VECTOR('',#25,1.181102362200E-2);
#27=CARTESIAN_POINT('',(-4.801013260626E-2,2.368987076416E-2,
3.188976377953E-2));
#28=LINE('',#27,#26);
#29=CURVE_STYLE('',#21,POSITIVE_LENGTH_MEASURE(2.E-2),#9);
#30=PRESENTATION_STYLE_ASSIGNMENT((#29));
#31=STYLED_ITEM('',(#30),#28);
#32=DIRECTION('',(7.071067811865E-1,-7.071067811865E-1,0.E0));
#33=VECTOR('',#32,2.217516278412E-2);
#34=CARTESIAN_POINT('',(-6.369034058483E-2,3.937007874273E-2,
3.188976377953E-2));
#35=LINE('',#34,#33);
#36=CURVE_STYLE('',#21,POSITIVE_LENGTH_MEASURE(2.E-2),#9);
#37=PRESENTATION_STYLE_ASSIGNMENT((#36));
#38=STYLED_ITEM('',(#37),#35);
#39=DIRECTION('',(-1.E0,0.E0,0.E0));
#40=VECTOR('',#39,1.620481233983E-2);
#41=CARTESIAN_POINT('',(-4.748552824499E-2,3.937007874273E-2,
3.188976377953E-2));
#42=LINE('',#41,#40);
#43=CURVE_STYLE('',#21,POSITIVE_LENGTH_MEASURE(2.E-2),#9);
#44=PRESENTATION_STYLE_ASSIGNMENT((#43));
#45=STYLED_ITEM('',(#44),#42);
#46=DIRECTION('',(0.E0,-1.E0,1.391961759766E-14));
#47=VECTOR('',#46,4.984974519037E-4);
#48=CARTESIAN_POINT('',(-4.748552824499E-2,3.986857619464E-2,
3.188976377953E-2));
#49=LINE('',#48,#47);
#50=CURVE_STYLE('',#21,POSITIVE_LENGTH_MEASURE(2.E-2),#9);
#51=PRESENTATION_STYLE_ASSIGNMENT((#50));
#52=STYLED_ITEM('',(#51),#49);
#53=DIRECTION('',(5.735764363511E-1,8.191520442889E-1,0.E0));
#54=VECTOR('',#53,4.136883175765E-3);
#55=CARTESIAN_POINT('',(-9.449880296285E-2,-3.991232477229E-2,
3.188976377953E-2));
#56=LINE('',#55,#54);
#57=CURVE_STYLE('',#21,POSITIVE_LENGTH_MEASURE(2.E-2),#9);
#58=PRESENTATION_STYLE_ASSIGNMENT((#57));
#59=STYLED_ITEM('',(#58),#56);
#60=DIRECTION('',(8.191520442895E-1,-5.735764363503E-1,0.E0));
#61=VECTOR('',#60,3.059235276268E-2);
#62=CARTESIAN_POINT('',(-1.195585912680E-1,-2.236527209510E-2,
3.188976377953E-2));
#63=LINE('',#62,#61);
#64=CURVE_STYLE('',#21,POSITIVE_LENGTH_MEASURE(2.E-2),#9);
#65=PRESENTATION_STYLE_ASSIGNMENT((#64));
#66=STYLED_ITEM('',(#65),#63);
#67=CARTESIAN_POINT('',(-1.082677165367E-1,-6.240231853191E-3,
3.188976377953E-2));
#68=DIRECTION('',(0.E0,0.E0,1.E0));
#69=DIRECTION('',(-1.E0,0.E0,0.E0));
#70=AXIS2_PLACEMENT_3D('',#67,#68,#69);
#72=CURVE_STYLE('',#21,POSITIVE_LENGTH_MEASURE(2.E-2),#9);
#73=PRESENTATION_STYLE_ASSIGNMENT((#72));
#74=STYLED_ITEM('',(#73),#71);
#75=CARTESIAN_POINT('',(-1.102362204738E-1,3.937007874279E-2,
3.188976377953E-2));
#76=DIRECTION('',(0.E0,0.E0,1.E0));
#77=DIRECTION('',(-6.105227434737E-12,1.E0,0.E0));
#78=AXIS2_PLACEMENT_3D('',#75,#76,#77);
#80=CURVE_STYLE('',#21,POSITIVE_LENGTH_MEASURE(2.E-2),#9);
#81=PRESENTATION_STYLE_ASSIGNMENT((#80));
#82=STYLED_ITEM('',(#81),#79);
#83=CARTESIAN_POINT('',(-7.448813856567E-2,3.346456693176E-2,
3.188976377953E-2));
#84=DIRECTION('',(0.E0,0.E0,1.E0));
#85=DIRECTION('',(7.071067811863E-1,7.071067811868E-1,0.E0));
#86=AXIS2_PLACEMENT_3D('',#83,#84,#85);
#88=CURVE_STYLE('',#21,POSITIVE_LENGTH_MEASURE(2.E-2),#9);
#89=PRESENTATION_STYLE_ASSIGNMENT((#88));
#90=STYLED_ITEM('',(#89),#87);
#91=DIRECTION('',(-7.071067811865E-1,7.071067811865E-1,0.E0));
#92=VECTOR('',#91,9.702622417616E-3);
#93=CARTESIAN_POINT('',(-5.092403866711E-2,4.330708661675E-2,
3.188976377953E-2));
#94=LINE('',#93,#92);
#95=CURVE_STYLE('',#21,POSITIVE_LENGTH_MEASURE(2.E-2),#9);
#96=PRESENTATION_STYLE_ASSIGNMENT((#95));
#97=STYLED_ITEM('',(#96),#94);
#98=DIRECTION('',(1.E0,0.E0,0.E0));
#99=VECTOR('',#98,1.665133551126E-2);
#100=CARTESIAN_POINT('',(-6.757537417837E-2,4.330708661675E-2,
3.188976377953E-2));
#101=LINE('',#100,#99);
#102=CURVE_STYLE('',#21,POSITIVE_LENGTH_MEASURE(2.E-2),#9);
#103=PRESENTATION_STYLE_ASSIGNMENT((#102));
#104=STYLED_ITEM('',(#103),#101);
#105=DIRECTION('',(0.E0,1.E0,2.610778592618E-14));
#106=VECTOR('',#105,2.657787191731E-4);
#107=CARTESIAN_POINT('',(-6.757537417837E-2,4.304130789758E-2,
3.188976377953E-2));
#108=LINE('',#107,#106);
#109=CURVE_STYLE('',#21,POSITIVE_LENGTH_MEASURE(2.E-2),#9);
#110=PRESENTATION_STYLE_ASSIGNMENT((#109));
#111=STYLED_ITEM('',(#110),#108);
#112=CARTESIAN_POINT('',(-7.448813856567E-2,3.346456693176E-2,
3.188976377953E-2));
#113=DIRECTION('',(0.E0,0.E0,-1.E0));
#114=DIRECTION('',(0.E0,1.E0,0.E0));
#115=AXIS2_PLACEMENT_3D('',#112,#113,#114);
#117=CURVE_STYLE('',#21,POSITIVE_LENGTH_MEASURE(2.E-2),#9);
#118=PRESENTATION_STYLE_ASSIGNMENT((#117));
#119=STYLED_ITEM('',(#118),#116);
#120=CARTESIAN_POINT('',(-1.102362204738E-1,3.937007874279E-2,
3.188976377953E-2));
#121=DIRECTION('',(0.E0,0.E0,-1.E0));
#122=DIRECTION('',(-1.E0,0.E0,0.E0));
#123=AXIS2_PLACEMENT_3D('',#120,#121,#122);
#125=CURVE_STYLE('',#21,POSITIVE_LENGTH_MEASURE(2.E-2),#9);
#126=PRESENTATION_STYLE_ASSIGNMENT((#125));
#127=STYLED_ITEM('',(#126),#124);
#128=CARTESIAN_POINT('',(-1.082677165367E-1,-6.240231853191E-3,
3.188976377953E-2));
#129=DIRECTION('',(0.E0,0.E0,-1.E0));
#130=DIRECTION('',(-5.735764364070E-1,-8.191520442498E-1,0.E0));
#131=AXIS2_PLACEMENT_3D('',#128,#129,#130);
#133=CURVE_STYLE('',#21,POSITIVE_LENGTH_MEASURE(2.E-2),#9);
#134=PRESENTATION_STYLE_ASSIGNMENT((#133));
#135=STYLED_ITEM('',(#134),#132);
#136=DIRECTION('',(-8.191520442758E-1,5.735764363698E-1,0.E0));
#137=VECTOR('',#136,2.521886177312E-2);
#138=CARTESIAN_POINT('',(-9.212598425330E-2,-2.715519281389E-2,
3.188976377953E-2));
#139=LINE('',#138,#137);
#140=CURVE_STYLE('',#21,POSITIVE_LENGTH_MEASURE(2.E-2),#9);
#141=PRESENTATION_STYLE_ASSIGNMENT((#140));
#142=STYLED_ITEM('',(#141),#139);
#143=DIRECTION('',(-2.666413652099E-14,1.E0,0.E0));
#144=VECTOR('',#143,9.368395647989E-3);
#145=CARTESIAN_POINT('',(-9.212598425330E-2,-3.652358846187E-2,
3.188976377953E-2));
#146=LINE('',#145,#144);
#147=CURVE_STYLE('',#21,POSITIVE_LENGTH_MEASURE(2.E-2),#9);
#148=PRESENTATION_STYLE_ASSIGNMENT((#147));
#149=STYLED_ITEM('',(#148),#146);
#150=DIRECTION('',(-2.087184751936E-2,2.087184751936E-2,9.995642710513E-1));
#151=VECTOR('',#150,7.362915353001E-5);
#152=CARTESIAN_POINT('',(-4.748399146853E-2,3.986703941817E-2,
3.181616670835E-2));
#153=LINE('',#152,#151);
#154=CURVE_STYLE('',#21,POSITIVE_LENGTH_MEASURE(2.E-2),#9);
#155=PRESENTATION_STYLE_ASSIGNMENT((#154));
#156=STYLED_ITEM('',(#155),#153);
#157=DIRECTION('',(-3.412806968596E-13,0.E0,-1.E0));
#158=VECTOR('',#157,6.099577826485E-5);
#159=CARTESIAN_POINT('',(-5.092403866711E-2,4.330708661675E-2,
3.188976377953E-2));
#160=LINE('',#159,#158);
#161=CURVE_STYLE('',#21,POSITIVE_LENGTH_MEASURE(2.E-2),#9);
#162=PRESENTATION_STYLE_ASSIGNMENT((#161));
#163=STYLED_ITEM('',(#162),#160);
#164=DIRECTION('',(-2.087639524878E-2,0.E0,9.997820643127E-1));
#165=VECTOR('',#164,7.361311410094E-5);
#166=CARTESIAN_POINT('',(-4.748399146853E-2,3.937007874273E-2,
3.181616670835E-2));
#167=LINE('',#166,#165);
#168=CURVE_STYLE('',#21,POSITIVE_LENGTH_MEASURE(2.E-2),#9);
#169=PRESENTATION_STYLE_ASSIGNMENT((#168));
#170=STYLED_ITEM('',(#169),#167);
#171=DIRECTION('',(-9.999932908571E-1,0.E0,3.663091707821E-3));
#172=VECTOR('',#171,1.620645784774E-2);
#173=CARTESIAN_POINT('',(-4.748399146853E-2,3.937007874273E-2,
3.181616670835E-2));
#174=LINE('',#173,#172);
#175=CURVE_STYLE('',#21,POSITIVE_LENGTH_MEASURE(2.E-2),#9);
#176=PRESENTATION_STYLE_ASSIGNMENT((#175));
#177=STYLED_ITEM('',(#176),#174);
#178=DIRECTION('',(0.E0,0.E0,-1.E0));
#179=VECTOR('',#178,1.423132982115E-5);
#180=CARTESIAN_POINT('',(-6.369034058483E-2,3.937007874273E-2,
3.188976377953E-2));
#181=LINE('',#180,#179);
#182=CURVE_STYLE('',#21,POSITIVE_LENGTH_MEASURE(2.E-2),#9);
#183=PRESENTATION_STYLE_ASSIGNMENT((#182));
#184=STYLED_ITEM('',(#183),#181);
#185=DIRECTION('',(7.071067811865E-1,-7.071067811865E-1,1.888030797841E-14));
#186=VECTOR('',#185,2.563453151034E-2);
#187=CARTESIAN_POINT('',(-6.613648366976E-2,4.181622182766E-2,
7.874015748032E-3));
#188=LINE('',#187,#186);
#189=CURVE_STYLE('',#21,POSITIVE_LENGTH_MEASURE(2.E-2),#9);
#190=PRESENTATION_STYLE_ASSIGNMENT((#189));
#191=STYLED_ITEM('',(#190),#188);
#192=DIRECTION('',(0.E0,0.E0,-1.E0));
#193=VECTOR('',#192,2.401574803150E-2);
#194=CARTESIAN_POINT('',(-7.448813856567E-2,4.527559055381E-2,
3.188976377953E-2));
#195=LINE('',#194,#193);
#196=CURVE_STYLE('',#21,POSITIVE_LENGTH_MEASURE(2.E-2),#9);
#197=PRESENTATION_STYLE_ASSIGNMENT((#196));
#198=STYLED_ITEM('',(#197),#195);
#199=CARTESIAN_POINT('',(-6.613648366976E-2,4.181622182766E-2,
3.188449295627E-2));
#200=CARTESIAN_POINT('',(-6.658333990834E-2,4.226307806625E-2,
3.188612984264E-2));
#201=CARTESIAN_POINT('',(-6.706297011250E-2,4.267144004889E-2,
3.188788678385E-2));
#202=CARTESIAN_POINT('',(-6.757537417837E-2,4.304130789758E-2,
3.188976377953E-2));
#204=CURVE_STYLE('',#21,POSITIVE_LENGTH_MEASURE(2.E-2),#9);
#205=PRESENTATION_STYLE_ASSIGNMENT((#204));
#206=STYLED_ITEM('',(#205),#203);
#207=DIRECTION('',(0.E0,0.E0,1.E0));
#208=VECTOR('',#207,2.401047720824E-2);
#209=CARTESIAN_POINT('',(-6.613648366976E-2,4.181622182766E-2,
7.874015748032E-3));
#210=LINE('',#209,#208);
#211=CURVE_STYLE('',#21,POSITIVE_LENGTH_MEASURE(2.E-2),#9);
#212=PRESENTATION_STYLE_ASSIGNMENT((#211));
#213=STYLED_ITEM('',(#212),#210);
#214=DIRECTION('',(-1.E0,0.E0,0.E0));
#215=VECTOR('',#214,3.574808190811E-2);
#216=CARTESIAN_POINT('',(-7.448813856567E-2,4.527559055381E-2,
3.188976377953E-2));
#217=LINE('',#216,#215);
#218=CURVE_STYLE('',#21,POSITIVE_LENGTH_MEASURE(2.E-2),#9);
#219=PRESENTATION_STYLE_ASSIGNMENT((#218));
#220=STYLED_ITEM('',(#219),#217);
#221=DIRECTION('',(1.E0,0.E0,0.E0));
#222=VECTOR('',#221,3.574808190811E-2);
#223=CARTESIAN_POINT('',(-1.102362204738E-1,4.527559055381E-2,
7.874015748032E-3));
#224=LINE('',#223,#222);
#225=CURVE_STYLE('',#21,POSITIVE_LENGTH_MEASURE(2.E-2),#9);
#226=PRESENTATION_STYLE_ASSIGNMENT((#225));
#227=STYLED_ITEM('',(#226),#224);
#228=DIRECTION('',(0.E0,0.E0,-1.E0));
#229=VECTOR('',#228,2.401574803150E-2);
#230=CARTESIAN_POINT('',(-1.161417322848E-1,3.937007874279E-2,
3.188976377953E-2));
#231=LINE('',#230,#229);
#232=CURVE_STYLE('',#21,POSITIVE_LENGTH_MEASURE(2.E-2),#9);
#233=PRESENTATION_STYLE_ASSIGNMENT((#232));
#234=STYLED_ITEM('',(#233),#231);
#235=DIRECTION('',(0.E0,0.E0,1.E0));
#236=VECTOR('',#235,2.401574803150E-2);
#237=CARTESIAN_POINT('',(-1.102362204738E-1,4.527559055381E-2,
7.874015748032E-3));
#238=LINE('',#237,#236);
#239=CURVE_STYLE('',#21,POSITIVE_LENGTH_MEASURE(2.E-2),#9);
#240=PRESENTATION_STYLE_ASSIGNMENT((#239));
#241=STYLED_ITEM('',(#240),#238);
#242=DIRECTION('',(0.E0,-1.E0,0.E0));
#243=VECTOR('',#242,2.298952688279E-2);
#244=CARTESIAN_POINT('',(-1.161417322848E-1,3.937007874279E-2,
3.188976377953E-2));
#245=LINE('',#244,#243);
#246=CURVE_STYLE('',#21,POSITIVE_LENGTH_MEASURE(2.E-2),#9);
#247=PRESENTATION_STYLE_ASSIGNMENT((#246));
#248=STYLED_ITEM('',(#247),#245);
#249=DIRECTION('',(0.E0,1.E0,0.E0));
#250=VECTOR('',#249,2.298952688279E-2);
#251=CARTESIAN_POINT('',(-1.161417322848E-1,1.638055186E-2,7.874015748032E-3));
#252=LINE('',#251,#250);
#253=CURVE_STYLE('',#21,POSITIVE_LENGTH_MEASURE(2.E-2),#9);
#254=PRESENTATION_STYLE_ASSIGNMENT((#253));
#255=STYLED_ITEM('',(#254),#252);
#256=DIRECTION('',(-1.E0,0.E0,0.E0));
#257=VECTOR('',#256,1.377952754945E-3);
#258=CARTESIAN_POINT('',(-1.161417322848E-1,1.638055186E-2,3.188976377953E-2));
#259=LINE('',#258,#257);
#260=CURVE_STYLE('',#21,POSITIVE_LENGTH_MEASURE(2.E-2),#9);
#261=PRESENTATION_STYLE_ASSIGNMENT((#260));
#262=STYLED_ITEM('',(#261),#259);
#263=DIRECTION('',(0.E0,0.E0,1.E0));
#264=VECTOR('',#263,2.401574803150E-2);
#265=CARTESIAN_POINT('',(-1.161417322848E-1,1.638055186E-2,7.874015748032E-3));
#266=LINE('',#265,#264);
#267=CURVE_STYLE('',#21,POSITIVE_LENGTH_MEASURE(2.E-2),#9);
#268=PRESENTATION_STYLE_ASSIGNMENT((#267));
#269=STYLED_ITEM('',(#268),#266);
#270=DIRECTION('',(7.071067811865E-1,0.E0,7.071067811865E-1));
#271=VECTOR('',#270,1.948719474353E-3);
#272=CARTESIAN_POINT('',(-1.175196850397E-1,1.638055186E-2,6.496062993087E-3));
#273=LINE('',#272,#271);
#274=CURVE_STYLE('',#21,POSITIVE_LENGTH_MEASURE(2.E-2),#9);
#275=PRESENTATION_STYLE_ASSIGNMENT((#274));
#276=STYLED_ITEM('',(#275),#273);
#277=DIRECTION('',(0.E0,-1.E0,0.E0));
#278=VECTOR('',#277,1.574803149606E-2);
#279=CARTESIAN_POINT('',(-1.175196850397E-1,1.638055186E-2,3.188976377953E-2));
#280=LINE('',#279,#278);
#281=CURVE_STYLE('',#21,POSITIVE_LENGTH_MEASURE(2.E-2),#9);
#282=PRESENTATION_STYLE_ASSIGNMENT((#281));
#283=STYLED_ITEM('',(#282),#280);
#284=DIRECTION('',(0.E0,0.E0,1.E0));
#285=VECTOR('',#284,2.539370078644E-2);
#286=CARTESIAN_POINT('',(-1.175196850397E-1,1.638055186E-2,6.496062993087E-3));
#287=LINE('',#286,#285);
#288=CURVE_STYLE('',#21,POSITIVE_LENGTH_MEASURE(2.E-2),#9);
#289=PRESENTATION_STYLE_ASSIGNMENT((#288));
#290=STYLED_ITEM('',(#289),#287);
#291=DIRECTION('',(0.E0,1.E0,0.E0));
#292=VECTOR('',#291,1.574803149606E-2);
#293=CARTESIAN_POINT('',(-1.175196850397E-1,6.325203639366E-4,
6.496062993087E-3));
#294=LINE('',#293,#292);
#295=CURVE_STYLE('',#21,POSITIVE_LENGTH_MEASURE(2.E-2),#9);
#296=PRESENTATION_STYLE_ASSIGNMENT((#295));
#297=STYLED_ITEM('',(#296),#294);
#298=DIRECTION('',(1.E0,0.E0,0.E0));
#299=VECTOR('',#298,1.377952756080E-3);
#300=CARTESIAN_POINT('',(-1.175196850397E-1,6.325203639366E-4,
3.188976377953E-2));
#301=LINE('',#300,#299);
#302=CURVE_STYLE('',#21,POSITIVE_LENGTH_MEASURE(2.E-2),#9);
#303=PRESENTATION_STYLE_ASSIGNMENT((#302));
#304=STYLED_ITEM('',(#303),#301);
#305=DIRECTION('',(0.E0,0.E0,1.E0));
#306=VECTOR('',#305,2.539370078644E-2);
#307=CARTESIAN_POINT('',(-1.175196850397E-1,6.325203639366E-4,
6.496062993087E-3));
#308=LINE('',#307,#306);
#309=CURVE_STYLE('',#21,POSITIVE_LENGTH_MEASURE(2.E-2),#9);
#310=PRESENTATION_STYLE_ASSIGNMENT((#309));
#311=STYLED_ITEM('',(#310),#308);
#312=DIRECTION('',(-7.071067811865E-1,0.E0,-7.071067811866E-1));
#313=VECTOR('',#312,1.948719475958E-3);
#314=CARTESIAN_POINT('',(-1.161417322837E-1,6.325203639366E-4,
7.874015749167E-3));
#315=LINE('',#314,#313);
#316=CURVE_STYLE('',#21,POSITIVE_LENGTH_MEASURE(2.E-2),#9);
#317=PRESENTATION_STYLE_ASSIGNMENT((#316));
#318=STYLED_ITEM('',(#317),#315);
#319=DIRECTION('',(0.E0,-1.E0,0.E0));
#320=VECTOR('',#319,6.872752217127E-3);
#321=CARTESIAN_POINT('',(-1.161417322837E-1,6.325203639366E-4,
3.188976377953E-2));
#322=LINE('',#321,#320);
#323=CURVE_STYLE('',#21,POSITIVE_LENGTH_MEASURE(2.E-2),#9);
#324=PRESENTATION_STYLE_ASSIGNMENT((#323));
#325=STYLED_ITEM('',(#324),#322);
#326=DIRECTION('',(0.E0,0.E0,1.E0));
#327=VECTOR('',#326,2.401574803036E-2);
#328=CARTESIAN_POINT('',(-1.161417322837E-1,6.325203639366E-4,
7.874015749167E-3));
#329=LINE('',#328,#327);
#330=CURVE_STYLE('',#21,POSITIVE_LENGTH_MEASURE(2.E-2),#9);
#331=PRESENTATION_STYLE_ASSIGNMENT((#330));
#332=STYLED_ITEM('',(#331),#329);
#333=DIRECTION('',(0.E0,1.E0,3.230796017521E-14));
#334=VECTOR('',#333,6.872752217127E-3);
#335=CARTESIAN_POINT('',(-1.161417322837E-1,-6.240231853191E-3,
7.874015749167E-3));
#336=LINE('',#335,#334);
#337=CURVE_STYLE('',#21,POSITIVE_LENGTH_MEASURE(2.E-2),#9);
#338=PRESENTATION_STYLE_ASSIGNMENT((#337));
#339=STYLED_ITEM('',(#338),#336);
#340=DIRECTION('',(-1.115162945184E-13,8.590449494902E-14,-1.E0));
#341=VECTOR('',#340,2.065808217576E-2);
#342=CARTESIAN_POINT('',(-1.127840664291E-1,-1.269024794876E-2,
3.188976377953E-2));
#343=LINE('',#342,#341);
#344=CURVE_STYLE('',#21,POSITIVE_LENGTH_MEASURE(2.E-2),#9);
#345=PRESENTATION_STYLE_ASSIGNMENT((#344));
#346=STYLED_ITEM('',(#345),#343);
#347=DIRECTION('',(0.E0,0.E0,1.E0));
#348=VECTOR('',#347,2.401574803036E-2);
#349=CARTESIAN_POINT('',(-1.161417322837E-1,-6.240231853191E-3,
7.874015749167E-3));
#350=LINE('',#349,#348);
#351=CURVE_STYLE('',#21,POSITIVE_LENGTH_MEASURE(2.E-2),#9);
#352=PRESENTATION_STYLE_ASSIGNMENT((#351));
#353=STYLED_ITEM('',(#352),#350);
#354=DIRECTION('',(-6.336872742185E-1,4.437126062971E-1,-6.336872742186E-1));
#355=VECTOR('',#354,3.259980595514E-2);
#356=CARTESIAN_POINT('',(-9.212598425330E-2,-2.715519281389E-2,
3.188976377953E-2));
#357=LINE('',#356,#355);
#358=CURVE_STYLE('',#21,POSITIVE_LENGTH_MEASURE(2.E-2),#9);
#359=PRESENTATION_STYLE_ASSIGNMENT((#358));
#360=STYLED_ITEM('',(#359),#357);
#361=CARTESIAN_POINT('',(-1.161417322837E-1,-6.240231853191E-3,
7.874015749167E-3));
#362=CARTESIAN_POINT('',(-1.161417322837E-1,-7.023362658616E-3,
7.874015749167E-3));
#363=CARTESIAN_POINT('',(-1.159218296874E-1,-8.396581033265E-3,
8.093918345459E-3));
#364=CARTESIAN_POINT('',(-1.152014903306E-1,-1.011361783878E-2,
8.814257702190E-3));
#365=CARTESIAN_POINT('',(-1.141661455755E-1,-1.155412465987E-2,
9.849602457312E-3));
#366=CARTESIAN_POINT('',(-1.132803264545E-1,-1.234276293798E-2,
1.073542157832E-2));
#367=CARTESIAN_POINT('',(-1.127840664291E-1,-1.269024794875E-2,
1.123168160376E-2));
#369=CURVE_STYLE('',#21,POSITIVE_LENGTH_MEASURE(2.E-2),#9);
#370=PRESENTATION_STYLE_ASSIGNMENT((#369));
#371=STYLED_ITEM('',(#370),#368);
#372=DIRECTION('',(0.E0,-7.071067811865E-1,7.071067811865E-1));
#373=VECTOR('',#372,1.113553986121E-2);
#374=CARTESIAN_POINT('',(-1.102362204738E-1,5.314960630184E-2,0.E0));
#375=LINE('',#374,#373);
#376=CURVE_STYLE('',#21,POSITIVE_LENGTH_MEASURE(2.E-2),#9);
#377=PRESENTATION_STYLE_ASSIGNMENT((#376));
#378=STYLED_ITEM('',(#377),#375);
#379=DIRECTION('',(-7.071067811865E-1,0.E0,-7.071067811865E-1));
#380=VECTOR('',#379,1.113553986121E-2);
#381=CARTESIAN_POINT('',(-1.161417322848E-1,3.937007874279E-2,
7.874015748032E-3));
#382=LINE('',#381,#380);
#383=CURVE_STYLE('',#21,POSITIVE_LENGTH_MEASURE(2.E-2),#9);
#384=PRESENTATION_STYLE_ASSIGNMENT((#383));
#385=STYLED_ITEM('',(#384),#382);
#386=CARTESIAN_POINT('',(-1.102362204738E-1,3.937007874279E-2,
7.874015748032E-3));
#387=DIRECTION('',(0.E0,0.E0,1.E0));
#388=DIRECTION('',(0.E0,1.E0,0.E0));
#389=AXIS2_PLACEMENT_3D('',#386,#387,#388);
#391=CURVE_STYLE('',#21,POSITIVE_LENGTH_MEASURE(2.E-2),#9);
#392=PRESENTATION_STYLE_ASSIGNMENT((#391));
#393=STYLED_ITEM('',(#392),#390);
#394=DIRECTION('',(-5.E-1,-5.E-1,7.071067811866E-1));
#395=VECTOR('',#394,1.113553986121E-2);
#396=CARTESIAN_POINT('',(-6.056871373915E-2,4.738399175827E-2,0.E0));
#397=LINE('',#396,#395);
#398=CURVE_STYLE('',#21,POSITIVE_LENGTH_MEASURE(2.E-2),#9);
#399=PRESENTATION_STYLE_ASSIGNMENT((#398));
#400=STYLED_ITEM('',(#399),#397);
#401=DIRECTION('',(0.E0,7.071067811865E-1,-7.071067811865E-1));
#402=VECTOR('',#401,1.113553986121E-2);
#403=CARTESIAN_POINT('',(-7.448813856567E-2,4.527559055381E-2,
7.874015748032E-3));
#404=LINE('',#403,#402);
#405=CURVE_STYLE('',#21,POSITIVE_LENGTH_MEASURE(2.E-2),#9);
#406=PRESENTATION_STYLE_ASSIGNMENT((#405));
#407=STYLED_ITEM('',(#406),#404);
#408=CARTESIAN_POINT('',(-7.448813856567E-2,3.346456693176E-2,
7.874015748032E-3));
#409=DIRECTION('',(0.E0,0.E0,1.E0));
#410=DIRECTION('',(7.071067811865E-1,7.071067811865E-1,0.E0));
#411=AXIS2_PLACEMENT_3D('',#408,#409,#410);
#413=CURVE_STYLE('',#21,POSITIVE_LENGTH_MEASURE(2.E-2),#9);
#414=PRESENTATION_STYLE_ASSIGNMENT((#413));
#415=STYLED_ITEM('',(#414),#412);
#416=DIRECTION('',(1.964730746038E-14,-1.964730746038E-14,-1.E0));
#417=VECTOR('',#416,2.401574803150E-2);
#418=CARTESIAN_POINT('',(-4.801013260626E-2,2.368987076416E-2,
3.188976377953E-2));
#419=LINE('',#418,#417);
#420=CURVE_STYLE('',#21,POSITIVE_LENGTH_MEASURE(2.E-2),#9);
#421=PRESENTATION_STYLE_ASSIGNMENT((#420));
#422=STYLED_ITEM('',(#421),#419);
#423=DIRECTION('',(0.E0,0.E0,1.E0));
#424=VECTOR('',#423,3.188976377953E-2);
#425=CARTESIAN_POINT('',(-3.965847771039E-2,3.204152566003E-2,0.E0));
#426=LINE('',#425,#424);
#427=CURVE_STYLE('',#21,POSITIVE_LENGTH_MEASURE(2.E-2),#9);
#428=PRESENTATION_STYLE_ASSIGNMENT((#427));
#429=STYLED_ITEM('',(#428),#426);
#430=DIRECTION('',(5.E-1,5.E-1,-7.071067811866E-1));
#431=VECTOR('',#430,1.113553986121E-2);
#432=CARTESIAN_POINT('',(-4.801013260626E-2,2.368987076416E-2,
7.874015748032E-3));
#433=LINE('',#432,#431);
#434=CURVE_STYLE('',#21,POSITIVE_LENGTH_MEASURE(2.E-2),#9);
#435=PRESENTATION_STYLE_ASSIGNMENT((#434));
#436=STYLED_ITEM('',(#435),#433);
#437=CARTESIAN_POINT('',(-1.102362204738E-1,3.937007874279E-2,0.E0));
#438=DIRECTION('',(0.E0,0.E0,1.E0));
#439=DIRECTION('',(1.007130886625E-14,1.E0,0.E0));
#440=AXIS2_PLACEMENT_3D('',#437,#438,#439);
#442=CURVE_STYLE('',#21,POSITIVE_LENGTH_MEASURE(2.E-2),#9);
#443=PRESENTATION_STYLE_ASSIGNMENT((#442));
#444=STYLED_ITEM('',(#443),#441);
#445=DIRECTION('',(-1.E0,0.E0,0.E0));
#446=VECTOR('',#445,3.574808190811E-2);
#447=CARTESIAN_POINT('',(-7.448813856567E-2,5.314960630184E-2,0.E0));
#448=LINE('',#447,#446);
#449=CURVE_STYLE('',#21,POSITIVE_LENGTH_MEASURE(2.E-2),#9);
#450=PRESENTATION_STYLE_ASSIGNMENT((#449));
#451=STYLED_ITEM('',(#450),#448);
#452=CARTESIAN_POINT('',(-7.448813856567E-2,3.346456693176E-2,0.E0));
#453=DIRECTION('',(0.E0,0.E0,1.E0));
#454=DIRECTION('',(7.071067811865E-1,7.071067811866E-1,0.E0));
#455=AXIS2_PLACEMENT_3D('',#452,#453,#454);
#457=CURVE_STYLE('',#21,POSITIVE_LENGTH_MEASURE(2.E-2),#9);
#458=PRESENTATION_STYLE_ASSIGNMENT((#457));
#459=STYLED_ITEM('',(#458),#456);
#460=DIRECTION('',(-7.071067811866E-1,7.071067811865E-1,0.E0));
#461=VECTOR('',#460,2.563453151034E-2);
#462=CARTESIAN_POINT('',(-4.244236267565E-2,2.925764069477E-2,0.E0));
#463=LINE('',#462,#461);
#464=CURVE_STYLE('',#21,POSITIVE_LENGTH_MEASURE(2.E-2),#9);
#465=PRESENTATION_STYLE_ASSIGNMENT((#464));
#466=STYLED_ITEM('',(#465),#463);
#467=DIRECTION('',(-7.071067811864E-1,-7.071067811867E-1,0.E0));
#468=VECTOR('',#467,3.937007873964E-3);
#469=CARTESIAN_POINT('',(-3.965847771039E-2,3.204152566003E-2,0.E0));
#470=LINE('',#469,#468);
#471=CURVE_STYLE('',#21,POSITIVE_LENGTH_MEASURE(2.E-2),#9);
#472=PRESENTATION_STYLE_ASSIGNMENT((#471));
#473=STYLED_ITEM('',(#472),#470);
#474=DIRECTION('',(7.071067811865E-1,-7.071067811865E-1,0.E0));
#475=VECTOR('',#474,2.563453151035E-2);
#476=CARTESIAN_POINT('',(-5.778482877390E-2,5.016787672354E-2,0.E0));
#477=LINE('',#476,#475);
#478=CURVE_STYLE('',#21,POSITIVE_LENGTH_MEASURE(2.E-2),#9);
#479=PRESENTATION_STYLE_ASSIGNMENT((#478));
#480=STYLED_ITEM('',(#479),#477);
#481=CARTESIAN_POINT('',(-7.448813856567E-2,3.346456693176E-2,0.E0));
#482=DIRECTION('',(0.E0,0.E0,-1.E0));
#483=DIRECTION('',(0.E0,1.E0,0.E0));
#484=AXIS2_PLACEMENT_3D('',#481,#482,#483);
#486=CURVE_STYLE('',#21,POSITIVE_LENGTH_MEASURE(2.E-2),#9);
#487=PRESENTATION_STYLE_ASSIGNMENT((#486));
#488=STYLED_ITEM('',(#487),#485);
#489=CARTESIAN_POINT('',(-1.102362204738E-1,3.937007874279E-2,0.E0));
#490=DIRECTION('',(0.E0,0.E0,-1.E0));
#491=DIRECTION('',(-1.E0,0.E0,0.E0));
#492=AXIS2_PLACEMENT_3D('',#489,#490,#491);
#494=CURVE_STYLE('',#21,POSITIVE_LENGTH_MEASURE(2.E-2),#9);
#495=PRESENTATION_STYLE_ASSIGNMENT((#494));
#496=STYLED_ITEM('',(#495),#493);
#497=CARTESIAN_POINT('',(-1.082677165367E-1,-6.240231853191E-3,0.E0));
#498=DIRECTION('',(0.E0,0.E0,-1.E0));
#499=DIRECTION('',(-8.000000000026E-1,-5.999999999965E-1,0.E0));
#500=AXIS2_PLACEMENT_3D('',#497,#498,#499);
#502=CURVE_STYLE('',#21,POSITIVE_LENGTH_MEASURE(2.E-2),#9);
#503=PRESENTATION_STYLE_ASSIGNMENT((#502));
#504=STYLED_ITEM('',(#503),#501);
#505=DIRECTION('',(0.E0,-1.E0,0.E0));
#506=VECTOR('',#505,5.742133421796E-2);
#507=CARTESIAN_POINT('',(-1.240157480328E-1,3.937007874279E-2,0.E0));
#508=LINE('',#507,#506);
#509=CURVE_STYLE('',#21,POSITIVE_LENGTH_MEASURE(2.E-2),#9);
#510=PRESENTATION_STYLE_ASSIGNMENT((#509));
#511=STYLED_ITEM('',(#510),#508);
#512=DIRECTION('',(0.E0,0.E0,1.E0));
#513=VECTOR('',#512,3.188976377953E-2);
#514=CARTESIAN_POINT('',(-7.448813856567E-2,5.708661417581E-2,0.E0));
#515=LINE('',#514,#513);
#516=CURVE_STYLE('',#21,POSITIVE_LENGTH_MEASURE(2.E-2),#9);
#517=PRESENTATION_STYLE_ASSIGNMENT((#516));
#518=STYLED_ITEM('',(#517),#515);
#519=DIRECTION('',(0.E0,0.E0,-1.E0));
#520=VECTOR('',#519,3.188976377953E-2);
#521=CARTESIAN_POINT('',(-5.778482877390E-2,5.016787672354E-2,
3.188976377953E-2));
#522=LINE('',#521,#520);
#523=CURVE_STYLE('',#21,POSITIVE_LENGTH_MEASURE(2.E-2),#9);
#524=PRESENTATION_STYLE_ASSIGNMENT((#523));
#525=STYLED_ITEM('',(#524),#522);
#526=DIRECTION('',(1.E0,0.E0,0.E0));
#527=VECTOR('',#526,3.574808190822E-2);
#528=CARTESIAN_POINT('',(-1.102362204739E-1,5.708661417581E-2,
3.188976377953E-2));
#529=LINE('',#528,#527);
#530=CURVE_STYLE('',#21,POSITIVE_LENGTH_MEASURE(2.E-2),#9);
#531=PRESENTATION_STYLE_ASSIGNMENT((#530));
#532=STYLED_ITEM('',(#531),#529);
#533=DIRECTION('',(-1.E0,0.E0,0.E0));
#534=VECTOR('',#533,3.574808190822E-2);
#535=CARTESIAN_POINT('',(-7.448813856567E-2,5.708661417581E-2,0.E0));
#536=LINE('',#535,#534);
#537=CURVE_STYLE('',#21,POSITIVE_LENGTH_MEASURE(2.E-2),#9);
#538=PRESENTATION_STYLE_ASSIGNMENT((#537));
#539=STYLED_ITEM('',(#538),#536);
#540=DIRECTION('',(0.E0,0.E0,1.E0));
#541=VECTOR('',#540,3.188976377953E-2);
#542=CARTESIAN_POINT('',(-1.279527559068E-1,3.937007874279E-2,0.E0));
#543=LINE('',#542,#541);
#544=CURVE_STYLE('',#21,POSITIVE_LENGTH_MEASURE(2.E-2),#9);
#545=PRESENTATION_STYLE_ASSIGNMENT((#544));
#546=STYLED_ITEM('',(#545),#543);
#547=DIRECTION('',(0.E0,0.E0,-1.E0));
#548=VECTOR('',#547,3.188976377953E-2);
#549=CARTESIAN_POINT('',(-1.102362204739E-1,5.708661417581E-2,
3.188976377953E-2));
#550=LINE('',#549,#548);
#551=CURVE_STYLE('',#21,POSITIVE_LENGTH_MEASURE(2.E-2),#9);
#552=PRESENTATION_STYLE_ASSIGNMENT((#551));
#553=STYLED_ITEM('',(#552),#550);
#554=DIRECTION('',(0.E0,1.E0,0.E0));
#555=VECTOR('',#554,4.561031059598E-2);
#556=CARTESIAN_POINT('',(-1.279527559068E-1,-6.240231853191E-3,
3.188976377953E-2));
#557=LINE('',#556,#555);
#558=CURVE_STYLE('',#21,POSITIVE_LENGTH_MEASURE(2.E-2),#9);
#559=PRESENTATION_STYLE_ASSIGNMENT((#558));
#560=STYLED_ITEM('',(#559),#557);
#561=DIRECTION('',(0.E0,-1.E0,0.E0));
#562=VECTOR('',#561,4.561031059598E-2);
#563=CARTESIAN_POINT('',(-1.279527559068E-1,3.937007874279E-2,0.E0));
#564=LINE('',#563,#562);
#565=CURVE_STYLE('',#21,POSITIVE_LENGTH_MEASURE(2.E-2),#9);
#566=PRESENTATION_STYLE_ASSIGNMENT((#565));
#567=STYLED_ITEM('',(#566),#564);
#568=DIRECTION('',(0.E0,0.E0,-1.E0));
#569=VECTOR('',#568,3.188976377953E-2);
#570=CARTESIAN_POINT('',(-1.279527559068E-1,-6.240231853191E-3,
3.188976377953E-2));
#571=LINE('',#570,#569);
#572=CURVE_STYLE('',#21,POSITIVE_LENGTH_MEASURE(2.E-2),#9);
#573=PRESENTATION_STYLE_ASSIGNMENT((#572));
#574=STYLED_ITEM('',(#573),#571);
#575=DIRECTION('',(-3.182026603024E-13,2.495285567475E-13,1.E0));
#576=VECTOR('',#575,2.743260701472E-2);
#577=CARTESIAN_POINT('',(-1.195585912680E-1,-2.236527209511E-2,
4.457156764804E-3));
#578=LINE('',#577,#576);
#579=CURVE_STYLE('',#21,POSITIVE_LENGTH_MEASURE(2.E-2),#9);
#580=PRESENTATION_STYLE_ASSIGNMENT((#579));
#581=STYLED_ITEM('',(#580),#578);
#582=CARTESIAN_POINT('',(-1.240157480328E-1,-1.805125547517E-2,0.E0));
#583=CARTESIAN_POINT('',(-1.226913321744E-1,-1.981714328640E-2,
1.324415858413E-3));
#584=CARTESIAN_POINT('',(-1.211898301391E-1,-2.122306634097E-2,
2.825917893737E-3));
#585=CARTESIAN_POINT('',(-1.195585912680E-1,-2.236527209512E-2,
4.457156764822E-3));
#587=CURVE_STYLE('',#21,POSITIVE_LENGTH_MEASURE(2.E-2),#9);
#588=PRESENTATION_STYLE_ASSIGNMENT((#587));
#589=STYLED_ITEM('',(#588),#586);
#590=DIRECTION('',(1.637622196141E-13,9.942706190854E-14,1.E0));
#591=VECTOR('',#590,2.372818709557E-3);
#592=CARTESIAN_POINT('',(-9.449880296285E-2,-3.991232477229E-2,
2.951694506997E-2));
#593=LINE('',#592,#591);
#594=CURVE_STYLE('',#21,POSITIVE_LENGTH_MEASURE(2.E-2),#9);
#595=PRESENTATION_STYLE_ASSIGNMENT((#594));
#596=STYLED_ITEM('',(#595),#593);
#597=DIRECTION('',(6.336872742249E-1,-4.437126062789E-1,6.336872742249E-1));
#598=VECTOR('',#597,3.954598636341E-2);
#599=CARTESIAN_POINT('',(-1.195585912680E-1,-2.236527209511E-2,
4.457156764804E-3));
#600=LINE('',#599,#598);
#601=CURVE_STYLE('',#21,POSITIVE_LENGTH_MEASURE(2.E-2),#9);
#602=PRESENTATION_STYLE_ASSIGNMENT((#601));
#603=STYLED_ITEM('',(#602),#600);
#604=DIRECTION('',(4.975428121646E-1,7.105647754615E-1,4.975428121646E-1));
#605=VECTOR('',#604,4.769074442526E-3);
#606=CARTESIAN_POINT('',(-9.449880296285E-2,-3.991232477229E-2,
2.951694506997E-2));
#607=LINE('',#606,#605);
#608=CURVE_STYLE('',#21,POSITIVE_LENGTH_MEASURE(2.E-2),#9);
#609=PRESENTATION_STYLE_ASSIGNMENT((#608));
#610=STYLED_ITEM('',(#609),#607);
#611=DIRECTION('',(-7.071044091344E-1,7.071044091344E-1,2.590205675723E-3));
#612=VECTOR('',#611,4.864977723429E-3);
#613=CARTESIAN_POINT('',(-4.748399146853E-2,3.986703941817E-2,
3.181616670835E-2));
#614=LINE('',#613,#612);
#615=CURVE_STYLE('',#21,POSITIVE_LENGTH_MEASURE(2.E-2),#9);
#616=PRESENTATION_STYLE_ASSIGNMENT((#615));
#617=STYLED_ITEM('',(#616),#614);
#618=DIRECTION('',(0.E0,1.E0,-1.396266193052E-14));
#619=VECTOR('',#618,4.969606754383E-4);
#620=CARTESIAN_POINT('',(-4.748399146853E-2,3.937007874273E-2,
3.181616670835E-2));
#621=LINE('',#620,#619);
#622=CURVE_STYLE('',#21,POSITIVE_LENGTH_MEASURE(2.E-2),#9);
#623=PRESENTATION_STYLE_ASSIGNMENT((#622));
#624=STYLED_ITEM('',(#623),#621);
#625=DIRECTION('',(7.071044091344E-1,-7.071044091344E-1,-2.590205675722E-3));
#626=VECTOR('',#625,3.459380331011E-3);
#627=CARTESIAN_POINT('',(-6.613648366976E-2,4.181622182766E-2,
3.188449295627E-2));
#628=LINE('',#627,#626);
#629=CURVE_STYLE('',#21,POSITIVE_LENGTH_MEASURE(2.E-2),#9);
#630=PRESENTATION_STYLE_ASSIGNMENT((#629));
#631=STYLED_ITEM('',(#630),#628);
#632=DIRECTION('',(9.999932908571E-1,0.E0,-3.663091707821E-3));
#633=VECTOR('',#632,1.665144722820E-2);
#634=CARTESIAN_POINT('',(-6.757537417837E-2,4.330708661675E-2,
3.188976377953E-2));
#635=LINE('',#634,#633);
#636=CURVE_STYLE('',#21,POSITIVE_LENGTH_MEASURE(2.E-2),#9);
#637=PRESENTATION_STYLE_ASSIGNMENT((#636));
#638=STYLED_ITEM('',(#637),#635);
#639=CARTESIAN_POINT('',(-4.801013260626E-2,2.368987076416E-2,
7.874015748032E-3));
#640=CARTESIAN_POINT('',(-4.244236267565E-2,2.925764069477E-2,0.E0));
#641=VERTEX_POINT('',#639);
#642=VERTEX_POINT('',#640);
#643=CARTESIAN_POINT('',(-6.056871373915E-2,4.738399175827E-2,0.E0));
#644=CARTESIAN_POINT('',(-6.613648366976E-2,4.181622182766E-2,
7.874015748032E-3));
#645=VERTEX_POINT('',#643);
#646=VERTEX_POINT('',#644);
#647=CARTESIAN_POINT('',(-7.448813856567E-2,4.527559055381E-2,
7.874015748032E-3));
#648=VERTEX_POINT('',#647);
#649=CARTESIAN_POINT('',(-4.748399146853E-2,3.937007874273E-2,
3.181616670835E-2));
#650=CARTESIAN_POINT('',(-4.748552824499E-2,3.937007874273E-2,
3.188976377953E-2));
#651=VERTEX_POINT('',#649);
#652=VERTEX_POINT('',#650);
#653=CARTESIAN_POINT('',(-6.369034058483E-2,3.937007874273E-2,
3.187553244971E-2));
#654=VERTEX_POINT('',#653);
#655=CARTESIAN_POINT('',(-6.369034058483E-2,3.937007874273E-2,
3.188976377953E-2));
#656=VERTEX_POINT('',#655);
#657=CARTESIAN_POINT('',(-6.757537417837E-2,4.330708661675E-2,
3.188976377953E-2));
#658=CARTESIAN_POINT('',(-5.092403866711E-2,4.330708661675E-2,
3.182876800126E-2));
#659=VERTEX_POINT('',#657);
#660=VERTEX_POINT('',#658);
#661=CARTESIAN_POINT('',(-4.748399146853E-2,3.986703941817E-2,
3.181616670835E-2));
#662=VERTEX_POINT('',#661);
#663=CARTESIAN_POINT('',(-4.748552824499E-2,3.986857619464E-2,
3.188976377953E-2));
#664=VERTEX_POINT('',#663);
#665=CARTESIAN_POINT('',(-5.092403866711E-2,4.330708661675E-2,
3.188976377953E-2));
#666=VERTEX_POINT('',#665);
#667=CARTESIAN_POINT('',(-6.613648366976E-2,4.181622182766E-2,
3.188449295627E-2));
#668=VERTEX_POINT('',#667);
#669=VERTEX_POINT('',#202);
#670=CARTESIAN_POINT('',(-3.965847771039E-2,3.204152566003E-2,0.E0));
#671=VERTEX_POINT('',#670);
#672=CARTESIAN_POINT('',(-7.448813856567E-2,4.527559055381E-2,
3.188976377953E-2));
#673=VERTEX_POINT('',#672);
#674=CARTESIAN_POINT('',(-1.102362204738E-1,4.527559055381E-2,
3.188976377953E-2));
#675=VERTEX_POINT('',#674);
#676=CARTESIAN_POINT('',(-3.965847771039E-2,3.204152566003E-2,
3.188976377953E-2));
#677=VERTEX_POINT('',#676);
#678=CARTESIAN_POINT('',(-1.161417322848E-1,3.937007874279E-2,
3.188976377953E-2));
#679=VERTEX_POINT('',#678);
#680=CARTESIAN_POINT('',(-1.161417322848E-1,1.638055186E-2,3.188976377953E-2));
#681=VERTEX_POINT('',#680);
#682=CARTESIAN_POINT('',(-1.175196850397E-1,1.638055186E-2,3.188976377953E-2));
#683=VERTEX_POINT('',#682);
#684=CARTESIAN_POINT('',(-1.175196850397E-1,6.325203639366E-4,
3.188976377953E-2));
#685=VERTEX_POINT('',#684);
#686=CARTESIAN_POINT('',(-1.161417322837E-1,6.325203639366E-4,
3.188976377953E-2));
#687=VERTEX_POINT('',#686);
#688=CARTESIAN_POINT('',(-1.161417322837E-1,-6.240231853191E-3,
3.188976377953E-2));
#689=VERTEX_POINT('',#688);
#690=CARTESIAN_POINT('',(-1.127840664291E-1,-1.269024794876E-2,
3.188976377953E-2));
#691=VERTEX_POINT('',#690);
#692=CARTESIAN_POINT('',(-9.212598425330E-2,-2.715519281389E-2,
3.188976377953E-2));
#693=VERTEX_POINT('',#692);
#694=CARTESIAN_POINT('',(-9.449880296285E-2,-3.991232477229E-2,
3.188976377953E-2));
#695=CARTESIAN_POINT('',(-9.212598425330E-2,-3.652358846187E-2,
3.188976377953E-2));
#696=VERTEX_POINT('',#694);
#697=VERTEX_POINT('',#695);
#698=CARTESIAN_POINT('',(-1.195585912680E-1,-2.236527209510E-2,
3.188976377953E-2));
#699=VERTEX_POINT('',#698);
#700=CARTESIAN_POINT('',(-1.279527559068E-1,-6.240231853191E-3,
3.188976377953E-2));
#701=VERTEX_POINT('',#700);
#702=CARTESIAN_POINT('',(-1.279527559068E-1,3.937007874279E-2,
3.188976377953E-2));
#703=VERTEX_POINT('',#702);
#704=CARTESIAN_POINT('',(-1.102362204739E-1,5.708661417581E-2,
3.188976377953E-2));
#705=VERTEX_POINT('',#704);
#706=CARTESIAN_POINT('',(-7.448813856567E-2,5.708661417581E-2,
3.188976377953E-2));
#707=VERTEX_POINT('',#706);
#708=CARTESIAN_POINT('',(-5.778482877390E-2,5.016787672354E-2,
3.188976377953E-2));
#709=VERTEX_POINT('',#708);
#710=CARTESIAN_POINT('',(-4.801013260626E-2,2.368987076416E-2,
3.188976377953E-2));
#711=VERTEX_POINT('',#710);
#712=CARTESIAN_POINT('',(-1.240157480328E-1,-1.805125547517E-2,0.E0));
#713=CARTESIAN_POINT('',(-1.279527559068E-1,-6.240231853191E-3,0.E0));
#714=VERTEX_POINT('',#712);
#715=VERTEX_POINT('',#713);
#716=CARTESIAN_POINT('',(-1.279527559068E-1,3.937007874279E-2,0.E0));
#717=VERTEX_POINT('',#716);
#718=CARTESIAN_POINT('',(-1.102362204739E-1,5.708661417581E-2,0.E0));
#719=VERTEX_POINT('',#718);
#720=CARTESIAN_POINT('',(-7.448813856567E-2,5.708661417581E-2,0.E0));
#721=VERTEX_POINT('',#720);
#722=CARTESIAN_POINT('',(-5.778482877390E-2,5.016787672354E-2,0.E0));
#723=VERTEX_POINT('',#722);
#724=CARTESIAN_POINT('',(-1.195585912680E-1,-2.236527209511E-2,
4.457156764804E-3));
#725=VERTEX_POINT('',#724);
#726=CARTESIAN_POINT('',(-9.449880296285E-2,-3.991232477229E-2,
2.951694506997E-2));
#727=VERTEX_POINT('',#726);
#728=CARTESIAN_POINT('',(-1.127840664291E-1,-1.269024794875E-2,
1.123168160376E-2));
#729=VERTEX_POINT('',#728);
#730=CARTESIAN_POINT('',(-1.161417322837E-1,-6.240231853191E-3,
7.874015749167E-3));
#731=VERTEX_POINT('',#730);
#732=CARTESIAN_POINT('',(-1.161417322837E-1,6.325203639366E-4,
7.874015749167E-3));
#733=VERTEX_POINT('',#732);
#734=CARTESIAN_POINT('',(-1.175196850397E-1,6.325203639366E-4,
6.496062993087E-3));
#735=VERTEX_POINT('',#734);
#736=CARTESIAN_POINT('',(-1.175196850397E-1,1.638055186E-2,6.496062993087E-3));
#737=VERTEX_POINT('',#736);
#738=CARTESIAN_POINT('',(-1.161417322848E-1,1.638055186E-2,7.874015748032E-3));
#739=VERTEX_POINT('',#738);
#740=CARTESIAN_POINT('',(-1.161417322848E-1,3.937007874279E-2,
7.874015748032E-3));
#741=VERTEX_POINT('',#740);
#742=CARTESIAN_POINT('',(-1.102362204738E-1,4.527559055381E-2,
7.874015748032E-3));
#743=VERTEX_POINT('',#742);
#744=CARTESIAN_POINT('',(-7.448813856567E-2,5.314960630184E-2,0.E0));
#745=VERTEX_POINT('',#744);
#746=CARTESIAN_POINT('',(-1.102362204738E-1,5.314960630184E-2,0.E0));
#747=VERTEX_POINT('',#746);
#748=CARTESIAN_POINT('',(-1.240157480328E-1,3.937007874279E-2,0.E0));
#749=VERTEX_POINT('',#748);
#750=CARTESIAN_POINT('',(0.E0,0.E0,3.188976377953E-2));
#751=DIRECTION('',(0.E0,0.E0,-1.E0));
#752=DIRECTION('',(-1.E0,0.E0,0.E0));
#753=AXIS2_PLACEMENT_3D('',#750,#751,#752);
#754=PLANE('',#753);
#756=ORIENTED_EDGE('',*,*,#755,.F.);
#758=ORIENTED_EDGE('',*,*,#757,.F.);
#760=ORIENTED_EDGE('',*,*,#759,.F.);
#762=ORIENTED_EDGE('',*,*,#761,.F.);
#764=ORIENTED_EDGE('',*,*,#763,.F.);
#765=EDGE_LOOP('',(#756,#758,#760,#762,#764));
#766=FACE_OUTER_BOUND('',#765,.F.);
#768=CARTESIAN_POINT('',(0.E0,0.E0,3.188976377953E-2));
#769=DIRECTION('',(0.E0,0.E0,-1.E0));
#770=DIRECTION('',(-1.E0,0.E0,0.E0));
#771=AXIS2_PLACEMENT_3D('',#768,#769,#770);
#772=PLANE('',#771);
#774=ORIENTED_EDGE('',*,*,#773,.F.);
#776=ORIENTED_EDGE('',*,*,#775,.F.);
#778=ORIENTED_EDGE('',*,*,#777,.F.);
#780=ORIENTED_EDGE('',*,*,#779,.T.);
#782=ORIENTED_EDGE('',*,*,#781,.F.);
#784=ORIENTED_EDGE('',*,*,#783,.T.);
#786=ORIENTED_EDGE('',*,*,#785,.F.);
#788=ORIENTED_EDGE('',*,*,#787,.F.);
#790=ORIENTED_EDGE('',*,*,#789,.F.);
#792=ORIENTED_EDGE('',*,*,#791,.F.);
#794=ORIENTED_EDGE('',*,*,#793,.F.);
#796=ORIENTED_EDGE('',*,*,#795,.T.);
#798=ORIENTED_EDGE('',*,*,#797,.F.);
#800=ORIENTED_EDGE('',*,*,#799,.T.);
#802=ORIENTED_EDGE('',*,*,#801,.T.);
#804=ORIENTED_EDGE('',*,*,#803,.T.);
#806=ORIENTED_EDGE('',*,*,#805,.T.);
#808=ORIENTED_EDGE('',*,*,#807,.T.);
#810=ORIENTED_EDGE('',*,*,#809,.F.);
#812=ORIENTED_EDGE('',*,*,#811,.F.);
#814=ORIENTED_EDGE('',*,*,#813,.F.);
#815=EDGE_LOOP('',(#774,#776,#778,#780,#782,#784,#786,#788,#790,#792,#794,#796,
#798,#800,#802,#804,#806,#808,#810,#812,#814));
#816=FACE_OUTER_BOUND('',#815,.F.);
#818=CARTESIAN_POINT('',(-4.383430515835E-2,3.621735310799E-2,
1.630563514430E-1));
#819=DIRECTION('',(7.071067811865E-1,7.071067811865E-1,0.E0));
#820=DIRECTION('',(-7.071067811865E-1,7.071067811865E-1,0.E0));
#821=AXIS2_PLACEMENT_3D('',#818,#819,#820);
#822=PLANE('',#821);
#824=ORIENTED_EDGE('',*,*,#823,.F.);
#826=ORIENTED_EDGE('',*,*,#825,.T.);
#828=ORIENTED_EDGE('',*,*,#827,.F.);
#829=ORIENTED_EDGE('',*,*,#787,.T.);
#831=ORIENTED_EDGE('',*,*,#830,.T.);
#833=ORIENTED_EDGE('',*,*,#832,.T.);
#835=ORIENTED_EDGE('',*,*,#834,.T.);
#836=ORIENTED_EDGE('',*,*,#755,.T.);
#837=EDGE_LOOP('',(#824,#826,#828,#829,#831,#833,#835,#836));
#838=FACE_OUTER_BOUND('',#837,.F.);
#840=CARTESIAN_POINT('',(-4.748399146853E-2,3.937007874273E-2,
3.181616670835E-2));
#841=DIRECTION('',(9.997820643127E-1,0.E0,2.087639524869E-2));
#842=DIRECTION('',(2.087639524869E-2,0.E0,-9.997820643127E-1));
#843=AXIS2_PLACEMENT_3D('',#840,#841,#842);
#844=PLANE('',#843);
#845=ORIENTED_EDGE('',*,*,#823,.T.);
#846=ORIENTED_EDGE('',*,*,#763,.T.);
#848=ORIENTED_EDGE('',*,*,#847,.F.);
#850=ORIENTED_EDGE('',*,*,#849,.T.);
#851=EDGE_LOOP('',(#845,#846,#848,#850));
#852=FACE_OUTER_BOUND('',#851,.F.);
#854=CARTESIAN_POINT('',(0.E0,3.937007874273E-2,0.E0));
#855=DIRECTION('',(0.E0,-1.E0,0.E0));
#856=DIRECTION('',(0.E0,0.E0,-1.E0));
#857=AXIS2_PLACEMENT_3D('',#854,#855,#856);
#858=PLANE('',#857);
#860=ORIENTED_EDGE('',*,*,#859,.T.);
#862=ORIENTED_EDGE('',*,*,#861,.F.);
#863=ORIENTED_EDGE('',*,*,#847,.T.);
#864=ORIENTED_EDGE('',*,*,#761,.T.);
#865=EDGE_LOOP('',(#860,#862,#863,#864));
#866=FACE_OUTER_BOUND('',#865,.F.);
#868=CARTESIAN_POINT('',(-4.801013260626E-2,2.368987076416E-2,
1.630563514430E-1));
#869=DIRECTION('',(-7.071067811865E-1,-7.071067811865E-1,0.E0));
#870=DIRECTION('',(7.071067811865E-1,-7.071067811865E-1,0.E0));
#871=AXIS2_PLACEMENT_3D('',#868,#869,#870);
#872=PLANE('',#871);
#874=ORIENTED_EDGE('',*,*,#873,.T.);
#876=ORIENTED_EDGE('',*,*,#875,.T.);
#877=ORIENTED_EDGE('',*,*,#859,.F.);
#878=ORIENTED_EDGE('',*,*,#759,.T.);
#880=ORIENTED_EDGE('',*,*,#879,.T.);
#882=ORIENTED_EDGE('',*,*,#881,.F.);
#883=EDGE_LOOP('',(#874,#876,#877,#878,#880,#882));
#884=FACE_OUTER_BOUND('',#883,.F.);
#886=CARTESIAN_POINT('',(-7.448813856567E-2,3.346456693176E-2,
1.630563514430E-1));
#887=DIRECTION('',(0.E0,0.E0,-1.E0));
#888=DIRECTION('',(-1.E0,0.E0,0.E0));
#889=AXIS2_PLACEMENT_3D('',#886,#887,#888);
#890=CYLINDRICAL_SURFACE('',#889,1.181102362205E-2);
#892=ORIENTED_EDGE('',*,*,#891,.F.);
#893=ORIENTED_EDGE('',*,*,#793,.T.);
#895=ORIENTED_EDGE('',*,*,#894,.F.);
#896=ORIENTED_EDGE('',*,*,#873,.F.);
#898=ORIENTED_EDGE('',*,*,#897,.T.);
#899=EDGE_LOOP('',(#892,#893,#895,#896,#898));
#900=FACE_OUTER_BOUND('',#899,.F.);
#902=CARTESIAN_POINT('',(-7.448813856567E-2,4.527559055381E-2,
1.630563514430E-1));
#903=DIRECTION('',(0.E0,-1.E0,0.E0));
#904=DIRECTION('',(1.E0,0.E0,0.E0));
#905=AXIS2_PLACEMENT_3D('',#902,#903,#904);
#906=PLANE('',#905);
#908=ORIENTED_EDGE('',*,*,#907,.T.);
#909=ORIENTED_EDGE('',*,*,#795,.F.);
#910=ORIENTED_EDGE('',*,*,#891,.T.);
#912=ORIENTED_EDGE('',*,*,#911,.F.);
#913=EDGE_LOOP('',(#908,#909,#910,#912));
#914=FACE_OUTER_BOUND('',#913,.F.);
#916=CARTESIAN_POINT('',(-1.102362204738E-1,3.937007874279E-2,
1.630563514430E-1));
#917=DIRECTION('',(0.E0,0.E0,-1.E0));
#918=DIRECTION('',(-1.E0,0.E0,0.E0));
#919=AXIS2_PLACEMENT_3D('',#916,#917,#918);
#920=CYLINDRICAL_SURFACE('',#919,5.905511811016E-3);
#922=ORIENTED_EDGE('',*,*,#921,.F.);
#923=ORIENTED_EDGE('',*,*,#797,.T.);
#924=ORIENTED_EDGE('',*,*,#907,.F.);
#926=ORIENTED_EDGE('',*,*,#925,.T.);
#927=EDGE_LOOP('',(#922,#923,#924,#926));
#928=FACE_OUTER_BOUND('',#927,.F.);
#930=CARTESIAN_POINT('',(-1.161417322848E-1,3.937007874279E-2,
1.630563514430E-1));
#931=DIRECTION('',(1.E0,0.E0,0.E0));
#932=DIRECTION('',(0.E0,0.E0,-1.E0));
#933=AXIS2_PLACEMENT_3D('',#930,#931,#932);
#934=PLANE('',#933);
#936=ORIENTED_EDGE('',*,*,#935,.T.);
#937=ORIENTED_EDGE('',*,*,#799,.F.);
#938=ORIENTED_EDGE('',*,*,#921,.T.);
#940=ORIENTED_EDGE('',*,*,#939,.F.);
#941=EDGE_LOOP('',(#936,#937,#938,#940));
#942=FACE_OUTER_BOUND('',#941,.F.);
#944=CARTESIAN_POINT('',(-1.161417322848E-1,1.638055186E-2,1.630563514430E-1));
#945=DIRECTION('',(0.E0,-1.E0,0.E0));
#946=DIRECTION('',(0.E0,0.E0,-1.E0));
#947=AXIS2_PLACEMENT_3D('',#944,#945,#946);
#948=PLANE('',#947);
#950=ORIENTED_EDGE('',*,*,#949,.T.);
#951=ORIENTED_EDGE('',*,*,#801,.F.);
#952=ORIENTED_EDGE('',*,*,#935,.F.);
#954=ORIENTED_EDGE('',*,*,#953,.F.);
#955=EDGE_LOOP('',(#950,#951,#952,#954));
#956=FACE_OUTER_BOUND('',#955,.F.);
#958=CARTESIAN_POINT('',(-1.175196850397E-1,1.638055186E-2,1.630563514430E-1));
#959=DIRECTION('',(1.E0,0.E0,0.E0));
#960=DIRECTION('',(0.E0,0.E0,-1.E0));
#961=AXIS2_PLACEMENT_3D('',#958,#959,#960);
#962=PLANE('',#961);
#964=ORIENTED_EDGE('',*,*,#963,.T.);
#965=ORIENTED_EDGE('',*,*,#803,.F.);
#966=ORIENTED_EDGE('',*,*,#949,.F.);
#968=ORIENTED_EDGE('',*,*,#967,.F.);
#969=EDGE_LOOP('',(#964,#965,#966,#968));
#970=FACE_OUTER_BOUND('',#969,.F.);
#972=CARTESIAN_POINT('',(-1.175196850397E-1,6.325203639366E-4,
1.630563514430E-1));
#973=DIRECTION('',(0.E0,1.E0,0.E0));
#974=DIRECTION('',(0.E0,0.E0,1.E0));
#975=AXIS2_PLACEMENT_3D('',#972,#973,#974);
#976=PLANE('',#975);
#978=ORIENTED_EDGE('',*,*,#977,.T.);
#979=ORIENTED_EDGE('',*,*,#805,.F.);
#980=ORIENTED_EDGE('',*,*,#963,.F.);
#982=ORIENTED_EDGE('',*,*,#981,.F.);
#983=EDGE_LOOP('',(#978,#979,#980,#982));
#984=FACE_OUTER_BOUND('',#983,.F.);
#986=CARTESIAN_POINT('',(-1.161417322837E-1,6.325203639366E-4,
1.630563514430E-1));
#987=DIRECTION('',(1.E0,0.E0,0.E0));
#988=DIRECTION('',(0.E0,0.E0,-1.E0));
#989=AXIS2_PLACEMENT_3D('',#986,#987,#988);
#990=PLANE('',#989);
#992=ORIENTED_EDGE('',*,*,#991,.T.);
#993=ORIENTED_EDGE('',*,*,#807,.F.);
#994=ORIENTED_EDGE('',*,*,#977,.F.);
#996=ORIENTED_EDGE('',*,*,#995,.F.);
#997=EDGE_LOOP('',(#992,#993,#994,#996));
#998=FACE_OUTER_BOUND('',#997,.F.);
#1000=CARTESIAN_POINT('',(-1.082677165367E-1,-6.240231853191E-3,
1.630563514430E-1));
#1001=DIRECTION('',(0.E0,0.E0,-1.E0));
#1002=DIRECTION('',(-1.E0,0.E0,0.E0));
#1003=AXIS2_PLACEMENT_3D('',#1000,#1001,#1002);
#1004=CYLINDRICAL_SURFACE('',#1003,7.874015746945E-3);
#1006=ORIENTED_EDGE('',*,*,#1005,.F.);
#1007=ORIENTED_EDGE('',*,*,#809,.T.);
#1008=ORIENTED_EDGE('',*,*,#991,.F.);
#1010=ORIENTED_EDGE('',*,*,#1009,.T.);
#1011=EDGE_LOOP('',(#1006,#1007,#1008,#1010));
#1012=FACE_OUTER_BOUND('',#1011,.F.);
#1014=CARTESIAN_POINT('',(-1.127840664291E-1,-1.269024794876E-2,
1.630563514430E-1));
#1015=DIRECTION('',(5.735764363699E-1,8.191520442758E-1,0.E0));
#1016=DIRECTION('',(-8.191520442758E-1,5.735764363699E-1,0.E0));
#1017=AXIS2_PLACEMENT_3D('',#1014,#1015,#1016);
#1018=PLANE('',#1017);
#1019=ORIENTED_EDGE('',*,*,#811,.T.);
#1020=ORIENTED_EDGE('',*,*,#1005,.T.);
#1022=ORIENTED_EDGE('',*,*,#1021,.F.);
#1023=EDGE_LOOP('',(#1019,#1020,#1022));
#1024=FACE_OUTER_BOUND('',#1023,.F.);
#1026=CARTESIAN_POINT('',(-1.240157480328E-1,3.346456693176E-2,0.E0));
#1027=DIRECTION('',(-7.071067811865E-1,0.E0,7.071067811865E-1));
#1028=DIRECTION('',(0.E0,-1.E0,0.E0));
#1029=AXIS2_PLACEMENT_3D('',#1026,#1027,#1028);
#1030=PLANE('',#1029);
#1032=ORIENTED_EDGE('',*,*,#1031,.T.);
#1034=ORIENTED_EDGE('',*,*,#1033,.T.);
#1036=ORIENTED_EDGE('',*,*,#1035,.T.);
#1038=ORIENTED_EDGE('',*,*,#1037,.T.);
#1040=ORIENTED_EDGE('',*,*,#1039,.T.);
#1041=ORIENTED_EDGE('',*,*,#813,.T.);
#1042=ORIENTED_EDGE('',*,*,#1021,.T.);
#1043=ORIENTED_EDGE('',*,*,#1009,.F.);
#1044=ORIENTED_EDGE('',*,*,#995,.T.);
#1045=ORIENTED_EDGE('',*,*,#981,.T.);
#1046=ORIENTED_EDGE('',*,*,#967,.T.);
#1047=ORIENTED_EDGE('',*,*,#953,.T.);
#1048=ORIENTED_EDGE('',*,*,#939,.T.);
#1049=EDGE_LOOP('',(#1032,#1034,#1036,#1038,#1040,#1041,#1042,#1043,#1044,#1045,
#1046,#1047,#1048));
#1050=FACE_OUTER_BOUND('',#1049,.F.);
#1052=CARTESIAN_POINT('',(-1.102362204738E-1,3.937007874279E-2,
3.937007874016E-3));
#1053=DIRECTION('',(0.E0,0.E0,-1.E0));
#1054=DIRECTION('',(-1.E0,0.E0,0.E0));
#1055=AXIS2_PLACEMENT_3D('',#1052,#1053,#1054);
#1056=CONICAL_SURFACE('',#1055,9.842519685032E-3,4.5E1);
#1058=ORIENTED_EDGE('',*,*,#1057,.F.);
#1060=ORIENTED_EDGE('',*,*,#1059,.T.);
#1061=ORIENTED_EDGE('',*,*,#1031,.F.);
#1062=ORIENTED_EDGE('',*,*,#925,.F.);
#1063=EDGE_LOOP('',(#1058,#1060,#1061,#1062));
#1064=FACE_OUTER_BOUND('',#1063,.F.);
#1066=CARTESIAN_POINT('',(-7.448813856567E-2,5.314960630184E-2,0.E0));
#1067=DIRECTION('',(0.E0,7.071067811865E-1,7.071067811865E-1));
#1068=DIRECTION('',(-1.E0,0.E0,0.E0));
#1069=AXIS2_PLACEMENT_3D('',#1066,#1067,#1068);
#1070=PLANE('',#1069);
#1072=ORIENTED_EDGE('',*,*,#1071,.T.);
#1074=ORIENTED_EDGE('',*,*,#1073,.T.);
#1075=ORIENTED_EDGE('',*,*,#1057,.T.);
#1076=ORIENTED_EDGE('',*,*,#911,.T.);
#1077=EDGE_LOOP('',(#1072,#1074,#1075,#1076));
#1078=FACE_OUTER_BOUND('',#1077,.F.);
#1080=CARTESIAN_POINT('',(-7.448813856567E-2,3.346456693176E-2,
3.937007874016E-3));
#1081=DIRECTION('',(0.E0,0.E0,-1.E0));
#1082=DIRECTION('',(-1.E0,0.E0,0.E0));
#1083=AXIS2_PLACEMENT_3D('',#1080,#1081,#1082);
#1084=CONICAL_SURFACE('',#1083,1.574803149607E-2,4.5E1);
#1086=ORIENTED_EDGE('',*,*,#1085,.F.);
#1088=ORIENTED_EDGE('',*,*,#1087,.T.);
#1089=ORIENTED_EDGE('',*,*,#1071,.F.);
#1090=ORIENTED_EDGE('',*,*,#897,.F.);
#1091=EDGE_LOOP('',(#1086,#1088,#1089,#1090));
#1092=FACE_OUTER_BOUND('',#1091,.F.);
#1094=CARTESIAN_POINT('',(-6.056871373915E-2,4.738399175827E-2,0.E0));
#1095=DIRECTION('',(5.E-1,5.E-1,7.071067811865E-1));
#1096=DIRECTION('',(-7.071067811865E-1,7.071067811865E-1,0.E0));
#1097=AXIS2_PLACEMENT_3D('',#1094,#1095,#1096);
#1098=PLANE('',#1097);
#1100=ORIENTED_EDGE('',*,*,#1099,.T.);
#1102=ORIENTED_EDGE('',*,*,#1101,.T.);
#1103=ORIENTED_EDGE('',*,*,#1085,.T.);
#1104=ORIENTED_EDGE('',*,*,#881,.T.);
#1105=EDGE_LOOP('',(#1100,#1102,#1103,#1104));
#1106=FACE_OUTER_BOUND('',#1105,.F.);
#1108=CARTESIAN_POINT('',(-3.965847771039E-2,3.204152566003E-2,
1.630563514430E-1));
#1109=DIRECTION('',(7.071067811865E-1,-7.071067811865E-1,0.E0));
#1110=DIRECTION('',(7.071067811865E-1,7.071067811865E-1,0.E0));
#1111=AXIS2_PLACEMENT_3D('',#1108,#1109,#1110);
#1112=PLANE('',#1111);
#1113=ORIENTED_EDGE('',*,*,#879,.F.);
#1114=ORIENTED_EDGE('',*,*,#757,.T.);
#1115=ORIENTED_EDGE('',*,*,#834,.F.);
#1117=ORIENTED_EDGE('',*,*,#1116,.T.);
#1118=ORIENTED_EDGE('',*,*,#1099,.F.);
#1119=EDGE_LOOP('',(#1113,#1114,#1115,#1117,#1118));
#1120=FACE_OUTER_BOUND('',#1119,.F.);
#1122=CARTESIAN_POINT('',(-7.448813856567E-2,3.346456693176E-2,0.E0));
#1123=DIRECTION('',(0.E0,0.E0,-1.E0));
#1124=DIRECTION('',(-1.E0,0.E0,0.E0));
#1125=AXIS2_PLACEMENT_3D('',#1122,#1123,#1124);
#1126=PLANE('',#1125);
#1127=ORIENTED_EDGE('',*,*,#1059,.F.);
#1128=ORIENTED_EDGE('',*,*,#1073,.F.);
#1129=ORIENTED_EDGE('',*,*,#1087,.F.);
#1130=ORIENTED_EDGE('',*,*,#1101,.F.);
#1131=ORIENTED_EDGE('',*,*,#1116,.F.);
#1132=ORIENTED_EDGE('',*,*,#832,.F.);
#1134=ORIENTED_EDGE('',*,*,#1133,.F.);
#1136=ORIENTED_EDGE('',*,*,#1135,.T.);
#1138=ORIENTED_EDGE('',*,*,#1137,.F.);
#1140=ORIENTED_EDGE('',*,*,#1139,.T.);
#1142=ORIENTED_EDGE('',*,*,#1141,.F.);
#1143=ORIENTED_EDGE('',*,*,#1033,.F.);
#1144=EDGE_LOOP('',(#1127,#1128,#1129,#1130,#1131,#1132,#1134,#1136,#1138,#1140,
#1142,#1143));
#1145=FACE_OUTER_BOUND('',#1144,.F.);
#1147=CARTESIAN_POINT('',(-7.448813856567E-2,3.346456693176E-2,
1.630563514430E-1));
#1148=DIRECTION('',(0.E0,0.E0,-1.E0));
#1149=DIRECTION('',(-1.E0,0.E0,0.E0));
#1150=AXIS2_PLACEMENT_3D('',#1147,#1148,#1149);
#1151=CYLINDRICAL_SURFACE('',#1150,2.362204724405E-2);
#1152=ORIENTED_EDGE('',*,*,#785,.T.);
#1154=ORIENTED_EDGE('',*,*,#1153,.F.);
#1155=ORIENTED_EDGE('',*,*,#1133,.T.);
#1156=ORIENTED_EDGE('',*,*,#830,.F.);
#1157=EDGE_LOOP('',(#1152,#1154,#1155,#1156));
#1158=FACE_OUTER_BOUND('',#1157,.F.);
#1160=CARTESIAN_POINT('',(-1.102362204739E-1,5.708661417581E-2,
1.630563514430E-1));
#1161=DIRECTION('',(0.E0,1.E0,0.E0));
#1162=DIRECTION('',(0.E0,0.E0,1.E0));
#1163=AXIS2_PLACEMENT_3D('',#1160,#1161,#1162);
#1164=PLANE('',#1163);
#1165=ORIENTED_EDGE('',*,*,#783,.F.);
#1167=ORIENTED_EDGE('',*,*,#1166,.T.);
#1168=ORIENTED_EDGE('',*,*,#1135,.F.);
#1169=ORIENTED_EDGE('',*,*,#1153,.T.);
#1170=EDGE_LOOP('',(#1165,#1167,#1168,#1169));
#1171=FACE_OUTER_BOUND('',#1170,.F.);
#1173=CARTESIAN_POINT('',(-1.102362204738E-1,3.937007874279E-2,
1.630563514430E-1));
#1174=DIRECTION('',(0.E0,0.E0,-1.E0));
#1175=DIRECTION('',(-1.E0,0.E0,0.E0));
#1176=AXIS2_PLACEMENT_3D('',#1173,#1174,#1175);
#1177=CYLINDRICAL_SURFACE('',#1176,1.771653543301E-2);
#1178=ORIENTED_EDGE('',*,*,#781,.T.);
#1180=ORIENTED_EDGE('',*,*,#1179,.F.);
#1181=ORIENTED_EDGE('',*,*,#1137,.T.);
#1182=ORIENTED_EDGE('',*,*,#1166,.F.);
#1183=EDGE_LOOP('',(#1178,#1180,#1181,#1182));
#1184=FACE_OUTER_BOUND('',#1183,.F.);
#1186=CARTESIAN_POINT('',(-1.279527559068E-1,-6.240231853191E-3,
1.630563514430E-1));
#1187=DIRECTION('',(-1.E0,0.E0,0.E0));
#1188=DIRECTION('',(0.E0,0.E0,1.E0));
#1189=AXIS2_PLACEMENT_3D('',#1186,#1187,#1188);
#1190=PLANE('',#1189);
#1191=ORIENTED_EDGE('',*,*,#779,.F.);
#1193=ORIENTED_EDGE('',*,*,#1192,.T.);
#1194=ORIENTED_EDGE('',*,*,#1139,.F.);
#1195=ORIENTED_EDGE('',*,*,#1179,.T.);
#1196=EDGE_LOOP('',(#1191,#1193,#1194,#1195));
#1197=FACE_OUTER_BOUND('',#1196,.F.);
#1199=CARTESIAN_POINT('',(-1.082677165367E-1,-6.240231853191E-3,
1.630563514430E-1));
#1200=DIRECTION('',(0.E0,0.E0,-1.E0));
#1201=DIRECTION('',(-1.E0,0.E0,0.E0));
#1202=AXIS2_PLACEMENT_3D('',#1199,#1200,#1201);
#1203=CYLINDRICAL_SURFACE('',#1202,1.968503937008E-2);
#1204=ORIENTED_EDGE('',*,*,#1141,.T.);
#1205=ORIENTED_EDGE('',*,*,#1192,.F.);
#1206=ORIENTED_EDGE('',*,*,#777,.T.);
#1208=ORIENTED_EDGE('',*,*,#1207,.F.);
#1209=ORIENTED_EDGE('',*,*,#1035,.F.);
#1210=EDGE_LOOP('',(#1204,#1205,#1206,#1208,#1209));
#1211=FACE_OUTER_BOUND('',#1210,.F.);
#1213=CARTESIAN_POINT('',(-9.933631503542E-2,-3.652506235290E-2,
1.630563514430E-1));
#1214=DIRECTION('',(-5.735764363502E-1,-8.191520442896E-1,0.E0));
#1215=DIRECTION('',(8.191520442896E-1,-5.735764363502E-1,0.E0));
#1216=AXIS2_PLACEMENT_3D('',#1213,#1214,#1215);
#1217=PLANE('',#1216);
#1218=ORIENTED_EDGE('',*,*,#1207,.T.);
#1219=ORIENTED_EDGE('',*,*,#775,.T.);
#1221=ORIENTED_EDGE('',*,*,#1220,.F.);
#1222=ORIENTED_EDGE('',*,*,#1037,.F.);
#1223=EDGE_LOOP('',(#1218,#1219,#1221,#1222));
#1224=FACE_OUTER_BOUND('',#1223,.F.);
#1226=CARTESIAN_POINT('',(-8.772427812386E-2,-3.023730062685E-2,
1.630563514430E-1));
#1227=DIRECTION('',(8.191520442890E-1,-5.735764363511E-1,0.E0));
#1228=DIRECTION('',(5.735764363511E-1,8.191520442890E-1,0.E0));
#1229=AXIS2_PLACEMENT_3D('',#1226,#1227,#1228);
#1230=PLANE('',#1229);
#1231=ORIENTED_EDGE('',*,*,#1220,.T.);
#1232=ORIENTED_EDGE('',*,*,#773,.T.);
#1233=ORIENTED_EDGE('',*,*,#1039,.F.);
#1234=EDGE_LOOP('',(#1231,#1232,#1233));
#1235=FACE_OUTER_BOUND('',#1234,.F.);
#1237=CARTESIAN_POINT('',(-6.757537417837E-2,3.937007874273E-2,
3.188976377953E-2));
#1238=DIRECTION('',(-3.663091707821E-3,0.E0,-9.999932908571E-1));
#1239=DIRECTION('',(-9.999932908571E-1,0.E0,3.663091707821E-3));
#1240=AXIS2_PLACEMENT_3D('',#1237,#1238,#1239);
#1241=PLANE('',#1240);
#1242=ORIENTED_EDGE('',*,*,#825,.F.);
#1243=ORIENTED_EDGE('',*,*,#849,.F.);
#1244=ORIENTED_EDGE('',*,*,#861,.T.);
#1245=ORIENTED_EDGE('',*,*,#875,.F.);
#1246=ORIENTED_EDGE('',*,*,#894,.T.);
#1247=ORIENTED_EDGE('',*,*,#791,.T.);
#1249=ORIENTED_EDGE('',*,*,#1248,.T.);
#1250=EDGE_LOOP('',(#1242,#1243,#1244,#1245,#1246,#1247,#1249));
#1251=FACE_OUTER_BOUND('',#1250,.F.);
#1253=CARTESIAN_POINT('',(0.E0,4.330708661675E-2,0.E0));
#1254=DIRECTION('',(0.E0,-1.E0,0.E0));
#1255=DIRECTION('',(0.E0,0.E0,-1.E0));
#1256=AXIS2_PLACEMENT_3D('',#1253,#1254,#1255);
#1257=PLANE('',#1256);
#1258=ORIENTED_EDGE('',*,*,#789,.T.);
#1259=ORIENTED_EDGE('',*,*,#827,.T.);
#1260=ORIENTED_EDGE('',*,*,#1248,.F.);
#1261=EDGE_LOOP('',(#1258,#1259,#1260));
#1262=FACE_OUTER_BOUND('',#1261,.F.);
#1266=FILL_AREA_STYLE_COLOUR('',#9);
#1267=FILL_AREA_STYLE('',(#1266));
#1268=SURFACE_STYLE_FILL_AREA(#1267);
#1269=SURFACE_SIDE_STYLE('',(#1268));
#1270=SURFACE_STYLE_USAGE(.BOTH.,#1269);
#1271=PRESENTATION_STYLE_ASSIGNMENT((#1270));
#16=STYLED_ITEM('',(#1271),#1265);
#1272=PRESENTATION_LAYER_ASSIGNMENT('SHELL_291','',(#16,#767,#817,#839,#853,
#867,#885,#901,#915,#929,#943,#957,#971,#985,#999,#1013,#1025,#1051,#1065,#1079,
#1093,#1107,#1121,#1146,#1159,#1172,#1185,#1198,#1212,#1225,#1236,#1252,#1263));
#1274=LENGTH_MEASURE_WITH_UNIT(LENGTH_MEASURE(2.54E1),#1273);
#1275=(CONVERSION_BASED_UNIT('INCH',#1274)LENGTH_UNIT()NAMED_UNIT(*));
#1277=PLANE_ANGLE_MEASURE_WITH_UNIT(PLANE_ANGLE_MEASURE(1.745329251994E-2),
#1276);
#1278=(CONVERSION_BASED_UNIT('DEGREE',#1277)NAMED_UNIT(*)PLANE_ANGLE_UNIT());
#1280=UNCERTAINTY_MEASURE_WITH_UNIT(LENGTH_MEASURE(7.115664910568E-6),#1275,
'closure',
'Maximum model space distance between geometric entities at asserted connectivities');
#1282=CARTESIAN_POINT('',(0.E0,0.E0,0.E0));
#1283=DIRECTION('',(0.E0,0.E0,1.E0));
#1284=DIRECTION('',(1.E0,0.E0,0.E0));
#1287=MECHANICAL_DESIGN_GEOMETRIC_PRESENTATION_REPRESENTATION('',(#24,#31,#38,
#45,#52,#59,#66,#74,#82,#90,#97,#104,#111,#119,#127,#135,#142,#149,#156,#163,
#170,#177,#184,#191,#198,#206,#213,#220,#227,#234,#241,#248,#255,#262,#269,#276,
#283,#290,#297,#304,#311,#318,#325,#332,#339,#346,#353,#360,#371,#378,#385,#393,
#400,#407,#415,#422,#429,#436,#444,#451,#459,#466,#473,#480,#488,#496,#504,#511,
#518,#525,#532,#539,#546,#553,#560,#567,#574,#581,#589,#596,#603,#610,#617,#624,
#631,#638,#16),#1281);
#1288=APPLICATION_CONTEXT('automotive design');
#1289=APPLICATION_PROTOCOL_DEFINITION('international standard',
'config_control_design',1994,#1288);
#1290=PRODUCT_DEFINITION_CONTEXT('',#1288,'design');
#1291=PRODUCT_CONTEXT('',#1288,'mechanical');
#1292=PRODUCT('CHAMFER6','CHAMFER6','NOT SPECIFIED',(#1291));
#1293=PRODUCT_DEFINITION_FORMATION_WITH_SPECIFIED_SOURCE('1','LAST_VERSION',
#1292,.MADE.);
#1301=LENGTH_MEASURE_WITH_UNIT(LENGTH_MEASURE(2.54E1),#1300);
#1302=(CONVERSION_BASED_UNIT('INCH',#1301)LENGTH_UNIT()NAMED_UNIT(*));
#1303=DERIVED_UNIT_ELEMENT(#1302,2.E0);
#1304=AREA_UNIT((#1303));
#1305=MEASURE_REPRESENTATION_ITEM('surface area measure',AREA_MEASURE(
9.480155040528E0),#1304);
#1310=LENGTH_MEASURE_WITH_UNIT(LENGTH_MEASURE(2.54E1),#1309);
#1311=(CONVERSION_BASED_UNIT('INCH',#1310)LENGTH_UNIT()NAMED_UNIT(*));
#1312=DERIVED_UNIT_ELEMENT(#1311,3.E0);
#1313=VOLUME_UNIT((#1312));
#1314=MEASURE_REPRESENTATION_ITEM('volume measure',VOLUME_MEASURE(
9.261587987274E-1),#1313);
#1318=CARTESIAN_POINT('centre point',(-2.504604549476E0,7.304921613681E-1,
4.466035706089E-1));
#1323=LENGTH_MEASURE_WITH_UNIT(LENGTH_MEASURE(2.54E1),#1322);
#1324=(CONVERSION_BASED_UNIT('INCH',#1323)LENGTH_UNIT()NAMED_UNIT(*));
#1325=DERIVED_UNIT_ELEMENT(#1324,2.E0);
#1326=AREA_UNIT((#1325));
#1327=MEASURE_REPRESENTATION_ITEM('surface area measure',AREA_MEASURE(
9.480155040528E0),#1326);
#1332=LENGTH_MEASURE_WITH_UNIT(LENGTH_MEASURE(2.54E1),#1331);
#1333=(CONVERSION_BASED_UNIT('INCH',#1332)LENGTH_UNIT()NAMED_UNIT(*));
#1334=DERIVED_UNIT_ELEMENT(#1333,3.E0);
#1335=VOLUME_UNIT((#1334));
#1336=MEASURE_REPRESENTATION_ITEM('volume measure',VOLUME_MEASURE(
9.261587987274E-1),#1335);
#1340=CARTESIAN_POINT('centre point',(-2.504604549476E0,7.304921613681E-1,
4.466035706089E-1));
#1=DRAUGHTING_PRE_DEFINED_COLOUR('green');
#2=COLOUR_RGB('',1.1E-2,1.2E-2,1.E0);
#3=COLOUR_RGB('',2.352941176471E-1,2.352941176471E-1,2.352941176471E-1);
#4=COLOUR_RGB('',4.1E-1,2.61589E-1,1.12848E-1);
#5=COLOUR_RGB('',5.04854E-1,1.5455E-2,1.5455E-2);
#6=COLOUR_RGB('',6.35294E-1,6.86275E-1,7.4902E-1);
#7=COLOUR_RGB('',6.40777E-1,6.40777E-1,6.40777E-1);
#8=COLOUR_RGB('',6.69062E-1,6.69903E-1,6.55217E-1);
#9=COLOUR_RGB('',8.274509803922E-1,8.274509803922E-1,8.196078431373E-1);
#10=COLOUR_RGB('',9.21569E-1,7.05882E-1,4.70588E-1);
#11=DRAUGHTING_PRE_DEFINED_COLOUR('red');
#12=DRAUGHTING_PRE_DEFINED_COLOUR('yellow');
#13=COLOUR_RGB('',1.E0,1.E0,5.3E-1);
#14=COLOUR_RGB('',1.E0,1.E0,9.49E-1);
#15=DRAUGHTING_PRE_DEFINED_COLOUR('white');
#71=CIRCLE('',#70,1.968503937008E-2);
#79=CIRCLE('',#78,1.771653543301E-2);
#87=CIRCLE('',#86,2.362204724405E-2);
#116=CIRCLE('',#115,1.181102362205E-2);
#124=CIRCLE('',#123,5.905511811016E-3);
#132=CIRCLE('',#131,7.874015746945E-3);
#203=B_SPLINE_CURVE_WITH_KNOTS('',3,(#199,#200,#201,#202),.UNSPECIFIED.,.F.,.F.,
(4,4),(0.E0,1.E0),.UNSPECIFIED.);
#368=B_SPLINE_CURVE_WITH_KNOTS('',3,(#361,#362,#363,#364,#365,#366,#367),
.UNSPECIFIED.,.F.,.F.,(4,1,1,1,4),(0.E0,2.5E-1,5.E-1,7.5E-1,1.E0),
.UNSPECIFIED.);
#390=CIRCLE('',#389,5.905511811016E-3);
#412=CIRCLE('',#411,1.181102362205E-2);
#441=CIRCLE('',#440,1.377952755905E-2);
#456=CIRCLE('',#455,1.968503937008E-2);
#485=CIRCLE('',#484,2.362204724405E-2);
#493=CIRCLE('',#492,1.771653543301E-2);
#501=CIRCLE('',#500,1.968503937008E-2);
#586=B_SPLINE_CURVE_WITH_KNOTS('',3,(#582,#583,#584,#585),.UNSPECIFIED.,.F.,.F.,
(4,4),(0.E0,1.E0),.UNSPECIFIED.);
#755=EDGE_CURVE('',#677,#664,#20,.T.);
#757=EDGE_CURVE('',#711,#677,#28,.T.);
#759=EDGE_CURVE('',#656,#711,#35,.T.);
#761=EDGE_CURVE('',#652,#656,#42,.T.);
#763=EDGE_CURVE('',#664,#652,#49,.T.);
#767=ADVANCED_FACE('',(#766),#754,.F.);
#773=EDGE_CURVE('',#696,#697,#56,.T.);
#775=EDGE_CURVE('',#699,#696,#63,.T.);
#777=EDGE_CURVE('',#701,#699,#71,.T.);
#779=EDGE_CURVE('',#701,#703,#557,.T.);
#781=EDGE_CURVE('',#705,#703,#79,.T.);
#783=EDGE_CURVE('',#705,#707,#529,.T.);
#785=EDGE_CURVE('',#709,#707,#87,.T.);
#787=EDGE_CURVE('',#666,#709,#94,.T.);
#789=EDGE_CURVE('',#659,#666,#101,.T.);
#791=EDGE_CURVE('',#669,#659,#108,.T.);
#793=EDGE_CURVE('',#673,#669,#116,.T.);
#795=EDGE_CURVE('',#673,#675,#217,.T.);
#797=EDGE_CURVE('',#679,#675,#124,.T.);
#799=EDGE_CURVE('',#679,#681,#245,.T.);
#801=EDGE_CURVE('',#681,#683,#259,.T.);
#803=EDGE_CURVE('',#683,#685,#280,.T.);
#805=EDGE_CURVE('',#685,#687,#301,.T.);
#807=EDGE_CURVE('',#687,#689,#322,.T.);
#809=EDGE_CURVE('',#691,#689,#132,.T.);
#811=EDGE_CURVE('',#693,#691,#139,.T.);
#813=EDGE_CURVE('',#697,#693,#146,.T.);
#817=ADVANCED_FACE('',(#816),#772,.F.);
#823=EDGE_CURVE('',#662,#664,#153,.T.);
#825=EDGE_CURVE('',#662,#660,#614,.T.);
#827=EDGE_CURVE('',#666,#660,#160,.T.);
#830=EDGE_CURVE('',#709,#723,#522,.T.);
#832=EDGE_CURVE('',#723,#671,#477,.T.);
#834=EDGE_CURVE('',#671,#677,#426,.T.);
#839=ADVANCED_FACE('',(#838),#822,.T.);
#847=EDGE_CURVE('',#651,#652,#167,.T.);
#849=EDGE_CURVE('',#651,#662,#621,.T.);
#853=ADVANCED_FACE('',(#852),#844,.F.);
#859=EDGE_CURVE('',#656,#654,#181,.T.);
#861=EDGE_CURVE('',#651,#654,#174,.T.);
#867=ADVANCED_FACE('',(#866),#858,.F.);
#873=EDGE_CURVE('',#646,#668,#210,.T.);
#875=EDGE_CURVE('',#668,#654,#628,.T.);
#879=EDGE_CURVE('',#711,#641,#419,.T.);
#881=EDGE_CURVE('',#646,#641,#188,.T.);
#885=ADVANCED_FACE('',(#884),#872,.T.);
#891=EDGE_CURVE('',#673,#648,#195,.T.);
#894=EDGE_CURVE('',#668,#669,#203,.T.);
#897=EDGE_CURVE('',#646,#648,#412,.T.);
#901=ADVANCED_FACE('',(#900),#890,.F.);
#907=EDGE_CURVE('',#743,#675,#238,.T.);
#911=EDGE_CURVE('',#743,#648,#224,.T.);
#915=ADVANCED_FACE('',(#914),#906,.T.);
#921=EDGE_CURVE('',#679,#741,#231,.T.);
#925=EDGE_CURVE('',#743,#741,#390,.T.);
#929=ADVANCED_FACE('',(#928),#920,.F.);
#935=EDGE_CURVE('',#739,#681,#266,.T.);
#939=EDGE_CURVE('',#739,#741,#252,.T.);
#943=ADVANCED_FACE('',(#942),#934,.T.);
#949=EDGE_CURVE('',#737,#683,#287,.T.);
#953=EDGE_CURVE('',#737,#739,#273,.T.);
#957=ADVANCED_FACE('',(#956),#948,.T.);
#963=EDGE_CURVE('',#735,#685,#308,.T.);
#967=EDGE_CURVE('',#735,#737,#294,.T.);
#971=ADVANCED_FACE('',(#970),#962,.T.);
#977=EDGE_CURVE('',#733,#687,#329,.T.);
#981=EDGE_CURVE('',#733,#735,#315,.T.);
#985=ADVANCED_FACE('',(#984),#976,.T.);
#991=EDGE_CURVE('',#731,#689,#350,.T.);
#995=EDGE_CURVE('',#731,#733,#336,.T.);
#999=ADVANCED_FACE('',(#998),#990,.T.);
#1005=EDGE_CURVE('',#691,#729,#343,.T.);
#1009=EDGE_CURVE('',#731,#729,#368,.T.);
#1013=ADVANCED_FACE('',(#1012),#1004,.F.);
#1021=EDGE_CURVE('',#693,#729,#357,.T.);
#1025=ADVANCED_FACE('',(#1024),#1018,.T.);
#1031=EDGE_CURVE('',#741,#749,#382,.T.);
#1033=EDGE_CURVE('',#749,#714,#508,.T.);
#1035=EDGE_CURVE('',#714,#725,#586,.T.);
#1037=EDGE_CURVE('',#725,#727,#600,.T.);
#1039=EDGE_CURVE('',#727,#697,#607,.T.);
#1051=ADVANCED_FACE('',(#1050),#1030,.F.);
#1057=EDGE_CURVE('',#747,#743,#375,.T.);
#1059=EDGE_CURVE('',#747,#749,#441,.T.);
#1065=ADVANCED_FACE('',(#1064),#1056,.F.);
#1071=EDGE_CURVE('',#648,#745,#404,.T.);
#1073=EDGE_CURVE('',#745,#747,#448,.T.);
#1079=ADVANCED_FACE('',(#1078),#1070,.F.);
#1085=EDGE_CURVE('',#645,#646,#397,.T.);
#1087=EDGE_CURVE('',#645,#745,#456,.T.);
#1093=ADVANCED_FACE('',(#1092),#1084,.F.);
#1099=EDGE_CURVE('',#641,#642,#433,.T.);
#1101=EDGE_CURVE('',#642,#645,#463,.T.);
#1107=ADVANCED_FACE('',(#1106),#1098,.F.);
#1116=EDGE_CURVE('',#671,#642,#470,.T.);
#1121=ADVANCED_FACE('',(#1120),#1112,.T.);
#1133=EDGE_CURVE('',#721,#723,#485,.T.);
#1135=EDGE_CURVE('',#721,#719,#536,.T.);
#1137=EDGE_CURVE('',#717,#719,#493,.T.);
#1139=EDGE_CURVE('',#717,#715,#564,.T.);
#1141=EDGE_CURVE('',#714,#715,#501,.T.);
#1146=ADVANCED_FACE('',(#1145),#1126,.T.);
#1153=EDGE_CURVE('',#721,#707,#515,.T.);
#1159=ADVANCED_FACE('',(#1158),#1151,.T.);
#1166=EDGE_CURVE('',#705,#719,#550,.T.);
#1172=ADVANCED_FACE('',(#1171),#1164,.T.);
#1179=EDGE_CURVE('',#717,#703,#543,.T.);
#1185=ADVANCED_FACE('',(#1184),#1177,.T.);
#1192=EDGE_CURVE('',#701,#715,#571,.T.);
#1198=ADVANCED_FACE('',(#1197),#1190,.T.);
#1207=EDGE_CURVE('',#725,#699,#578,.T.);
#1212=ADVANCED_FACE('',(#1211),#1203,.T.);
#1220=EDGE_CURVE('',#727,#696,#593,.T.);
#1225=ADVANCED_FACE('',(#1224),#1217,.T.);
#1236=ADVANCED_FACE('',(#1235),#1230,.T.);
#1248=EDGE_CURVE('',#659,#660,#635,.T.);
#1252=ADVANCED_FACE('',(#1251),#1241,.F.);
#1263=ADVANCED_FACE('',(#1262),#1257,.T.);
#1264=CLOSED_SHELL('',(#767,#817,#839,#853,#867,#885,#901,#915,#929,#943,#957,
#971,#985,#999,#1013,#1025,#1051,#1065,#1079,#1093,#1107,#1121,#1146,#1159,
#1172,#1185,#1198,#1212,#1225,#1236,#1252,#1263));
#1265=MANIFOLD_SOLID_BREP('',#1264);
#1273=(LENGTH_UNIT()NAMED_UNIT(*)SI_UNIT(.MILLI.,.METRE.));
#1276=(NAMED_UNIT(*)PLANE_ANGLE_UNIT()SI_UNIT($,.RADIAN.));
#1279=(NAMED_UNIT(*)SI_UNIT($,.STERADIAN.)SOLID_ANGLE_UNIT());
#1281=(GEOMETRIC_REPRESENTATION_CONTEXT(3)GLOBAL_UNCERTAINTY_ASSIGNED_CONTEXT((
#1280))GLOBAL_UNIT_ASSIGNED_CONTEXT((#1275,#1278,#1279))REPRESENTATION_CONTEXT(
'ID1','3'));
#1285=AXIS2_PLACEMENT_3D('',#1282,#1283,#1284);
#1286=ADVANCED_BREP_SHAPE_REPRESENTATION('',(#1285,#1265),#1281);
#1294=PRODUCT_DEFINITION('design','',#1293,#1290);
#1295=PRODUCT_DEFINITION_SHAPE('','SHAPE FOR CHAMFER6.',#1294);
#1296=SHAPE_ASPECT('','solid data associated with CHAMFER6',#1295,.F.);
#1297=PROPERTY_DEFINITION('',
'shape for solid data with which properties are associated',#1296);
#1298=SHAPE_REPRESENTATION('',(#1265),#1281);
#1299=SHAPE_DEFINITION_REPRESENTATION(#1297,#1298);
#1300=(LENGTH_UNIT()NAMED_UNIT(*)SI_UNIT(.MILLI.,.METRE.));
#1306=PROPERTY_DEFINITION('geometric validation property','area of CHAMFER6',
#1296);
#1307=REPRESENTATION('surface area',(#1305),#1281);
#1308=PROPERTY_DEFINITION_REPRESENTATION(#1306,#1307);
#1309=(LENGTH_UNIT()NAMED_UNIT(*)SI_UNIT(.MILLI.,.METRE.));
#1315=PROPERTY_DEFINITION('geometric validation property','volume of CHAMFER6',
#1296);
#1316=REPRESENTATION('volume',(#1314),#1281);
#1317=PROPERTY_DEFINITION_REPRESENTATION(#1315,#1316);
#1319=PROPERTY_DEFINITION('geometric validation property',
'centroid of CHAMFER6',#1296);
#1320=REPRESENTATION('centroid',(#1318),#1281);
#1321=PROPERTY_DEFINITION_REPRESENTATION(#1319,#1320);
#1322=(LENGTH_UNIT()NAMED_UNIT(*)SI_UNIT(.MILLI.,.METRE.));
#1328=PROPERTY_DEFINITION('geometric validation property','area of CHAMFER6',
#1295);
#1329=REPRESENTATION('surface area',(#1327),#1281);
#1330=PROPERTY_DEFINITION_REPRESENTATION(#1328,#1329);
#1331=(LENGTH_UNIT()NAMED_UNIT(*)SI_UNIT(.MILLI.,.METRE.));
#1337=PROPERTY_DEFINITION('geometric validation property','volume of CHAMFER6',
#1295);
#1338=REPRESENTATION('volume',(#1336),#1281);
#1339=PROPERTY_DEFINITION_REPRESENTATION(#1337,#1338);
#1341=PROPERTY_DEFINITION('geometric validation property',
'centroid of CHAMFER6',#1295);
#1342=REPRESENTATION('centroid',(#1340),#1281);
#1343=PROPERTY_DEFINITION_REPRESENTATION(#1341,#1342);
#1344=SHAPE_DEFINITION_REPRESENTATION(#1295,#1286);
ENDSEC;
END-ISO-10303-21;
