ISO-10303-21;
HEADER;
FILE_DESCRIPTION((''),'2;1');
FILE_NAME('CHAMFER19','2026-06-15T13:46:12',('Esia'),(''),
'CREO PARAMETRIC BY PTC INC, 2025102','CREO PARAMETRIC BY PTC INC, 2025102','');
FILE_SCHEMA((
'AP242_MANAGED_MODEL_BASED_3D_ENGINEERING_MIM_LF { 1 0 10303 442 1 1 4 }'));
ENDSEC;
DATA;
#17=DIRECTION('',(-1.E0,0.E0,0.E0));
#18=VECTOR('',#17,1.141732283465E-1);
#19=CARTESIAN_POINT('',(-3.338582677165E-1,-1.712598425197E-1,
5.748031496063E-2));
#20=LINE('',#19,#18);
#21=DRAUGHTING_PRE_DEFINED_CURVE_FONT('continuous');
#22=CURVE_STYLE('',#21,POSITIVE_LENGTH_MEASURE(2.E-2),#9);
#23=PRESENTATION_STYLE_ASSIGNMENT((#22));
#24=STYLED_ITEM('',(#23),#20);
#25=DIRECTION('',(0.E0,-1.409983241274E-14,1.E0));
#26=VECTOR('',#25,9.842519685040E-3);
#27=CARTESIAN_POINT('',(-3.338582677165E-1,-1.712598425197E-1,
4.763779527559E-2));
#28=LINE('',#27,#26);
#29=CURVE_STYLE('',#21,POSITIVE_LENGTH_MEASURE(2.E-2),#9);
#30=PRESENTATION_STYLE_ASSIGNMENT((#29));
#31=STYLED_ITEM('',(#30),#28);
#32=DIRECTION('',(1.E0,0.E0,0.E0));
#33=VECTOR('',#32,1.141732283465E-1);
#34=CARTESIAN_POINT('',(-4.480314960630E-1,-1.712598425197E-1,
4.763779527559E-2));
#35=LINE('',#34,#33);
#36=CURVE_STYLE('',#21,POSITIVE_LENGTH_MEASURE(2.E-2),#9);
#37=PRESENTATION_STYLE_ASSIGNMENT((#36));
#38=STYLED_ITEM('',(#37),#35);
#39=DIRECTION('',(0.E0,2.255973186038E-14,-1.E0));
#40=VECTOR('',#39,9.842519685040E-3);
#41=CARTESIAN_POINT('',(-4.480314960630E-1,-1.712598425197E-1,
5.748031496063E-2));
#42=LINE('',#41,#40);
#43=CURVE_STYLE('',#21,POSITIVE_LENGTH_MEASURE(2.E-2),#9);
#44=PRESENTATION_STYLE_ASSIGNMENT((#43));
#45=STYLED_ITEM('',(#44),#42);
#46=DIRECTION('',(-1.E0,0.E0,0.E0));
#47=VECTOR('',#46,1.141732283465E-1);
#48=CARTESIAN_POINT('',(-3.338582677165E-1,-1.515748031496E-1,
5.748031496063E-2));
#49=LINE('',#48,#47);
#50=CURVE_STYLE('',#21,POSITIVE_LENGTH_MEASURE(2.E-2),#9);
#51=PRESENTATION_STYLE_ASSIGNMENT((#50));
#52=STYLED_ITEM('',(#51),#49);
#53=DIRECTION('',(0.E0,1.E0,0.E0));
#54=VECTOR('',#53,1.968503937008E-2);
#55=CARTESIAN_POINT('',(-3.338582677165E-1,-1.712598425197E-1,
5.748031496063E-2));
#56=LINE('',#55,#54);
#57=CURVE_STYLE('',#21,POSITIVE_LENGTH_MEASURE(2.E-2),#9);
#58=PRESENTATION_STYLE_ASSIGNMENT((#57));
#59=STYLED_ITEM('',(#58),#56);
#60=DIRECTION('',(8.944271909999E-1,-4.472135955E-1,0.E0));
#61=VECTOR('',#60,1.320512585138E-2);
#62=CARTESIAN_POINT('',(-4.598425196850E-1,-1.653543307087E-1,
5.748031496063E-2));
#63=LINE('',#62,#61);
#64=CURVE_STYLE('',#21,POSITIVE_LENGTH_MEASURE(2.E-2),#9);
#65=PRESENTATION_STYLE_ASSIGNMENT((#64));
#66=STYLED_ITEM('',(#65),#63);
#67=DIRECTION('',(0.E0,-1.E0,0.E0));
#68=VECTOR('',#67,7.874015748032E-3);
#69=CARTESIAN_POINT('',(-4.598425196850E-1,-1.574803149606E-1,
5.748031496063E-2));
#70=LINE('',#69,#68);
#71=CURVE_STYLE('',#21,POSITIVE_LENGTH_MEASURE(2.E-2),#9);
#72=PRESENTATION_STYLE_ASSIGNMENT((#71));
#73=STYLED_ITEM('',(#72),#70);
#74=DIRECTION('',(-8.944271909999E-1,-4.472135955E-1,0.E0));
#75=VECTOR('',#74,1.320512585138E-2);
#76=CARTESIAN_POINT('',(-4.480314960630E-1,-1.515748031496E-1,
5.748031496063E-2));
#77=LINE('',#76,#75);
#78=CURVE_STYLE('',#21,POSITIVE_LENGTH_MEASURE(2.E-2),#9);
#79=PRESENTATION_STYLE_ASSIGNMENT((#78));
#80=STYLED_ITEM('',(#79),#77);
#81=DIRECTION('',(-1.E0,0.E0,0.E0));
#82=VECTOR('',#81,1.141732283465E-1);
#83=CARTESIAN_POINT('',(-3.338582677165E-1,-1.515748031496E-1,
4.763779527559E-2));
#84=LINE('',#83,#82);
#85=CURVE_STYLE('',#21,POSITIVE_LENGTH_MEASURE(2.E-2),#9);
#86=PRESENTATION_STYLE_ASSIGNMENT((#85));
#87=STYLED_ITEM('',(#86),#84);
#88=DIRECTION('',(0.E0,-2.255973186038E-14,-1.E0));
#89=VECTOR('',#88,9.842519685040E-3);
#90=CARTESIAN_POINT('',(-3.338582677165E-1,-1.515748031496E-1,
5.748031496063E-2));
#91=LINE('',#90,#89);
#92=CURVE_STYLE('',#21,POSITIVE_LENGTH_MEASURE(2.E-2),#9);
#93=PRESENTATION_STYLE_ASSIGNMENT((#92));
#94=STYLED_ITEM('',(#93),#91);
#95=DIRECTION('',(0.E0,2.255973186038E-14,1.E0));
#96=VECTOR('',#95,9.842519685040E-3);
#97=CARTESIAN_POINT('',(-4.480314960630E-1,-1.515748031496E-1,
4.763779527559E-2));
#98=LINE('',#97,#96);
#99=CURVE_STYLE('',#21,POSITIVE_LENGTH_MEASURE(2.E-2),#9);
#100=PRESENTATION_STYLE_ASSIGNMENT((#99));
#101=STYLED_ITEM('',(#100),#98);
#102=DIRECTION('',(0.E0,1.E0,0.E0));
#103=VECTOR('',#102,7.874015748031E-3);
#104=CARTESIAN_POINT('',(-4.598425196850E-1,-1.653543307087E-1,
4.763779527559E-2));
#105=LINE('',#104,#103);
#106=CURVE_STYLE('',#21,POSITIVE_LENGTH_MEASURE(2.E-2),#9);
#107=PRESENTATION_STYLE_ASSIGNMENT((#106));
#108=STYLED_ITEM('',(#107),#105);
#109=DIRECTION('',(-8.944271909999E-1,4.472135955E-1,0.E0));
#110=VECTOR('',#109,1.320512585138E-2);
#111=CARTESIAN_POINT('',(-4.480314960630E-1,-1.712598425197E-1,
4.763779527559E-2));
#112=LINE('',#111,#110);
#113=CURVE_STYLE('',#21,POSITIVE_LENGTH_MEASURE(2.E-2),#9);
#114=PRESENTATION_STYLE_ASSIGNMENT((#113));
#115=STYLED_ITEM('',(#114),#112);
#116=DIRECTION('',(0.E0,-1.E0,0.E0));
#117=VECTOR('',#116,1.968503937008E-2);
#118=CARTESIAN_POINT('',(-3.338582677165E-1,-1.515748031496E-1,
4.763779527559E-2));
#119=LINE('',#118,#117);
#120=CURVE_STYLE('',#21,POSITIVE_LENGTH_MEASURE(2.E-2),#9);
#121=PRESENTATION_STYLE_ASSIGNMENT((#120));
#122=STYLED_ITEM('',(#121),#119);
#123=DIRECTION('',(8.944271909999E-1,4.472135955E-1,0.E0));
#124=VECTOR('',#123,1.320512585138E-2);
#125=CARTESIAN_POINT('',(-4.598425196850E-1,-1.574803149606E-1,
4.763779527559E-2));
#126=LINE('',#125,#124);
#127=CURVE_STYLE('',#21,POSITIVE_LENGTH_MEASURE(2.E-2),#9);
#128=PRESENTATION_STYLE_ASSIGNMENT((#127));
#129=STYLED_ITEM('',(#128),#126);
#130=DIRECTION('',(0.E0,-1.409983241274E-14,1.E0));
#131=VECTOR('',#130,9.842519685040E-3);
#132=CARTESIAN_POINT('',(-4.598425196850E-1,-1.653543307087E-1,
4.763779527559E-2));
#133=LINE('',#132,#131);
#134=CURVE_STYLE('',#21,POSITIVE_LENGTH_MEASURE(2.E-2),#9);
#135=PRESENTATION_STYLE_ASSIGNMENT((#134));
#136=STYLED_ITEM('',(#135),#133);
#137=DIRECTION('',(0.E0,-1.409983241274E-14,-1.E0));
#138=VECTOR('',#137,9.842519685040E-3);
#139=CARTESIAN_POINT('',(-4.598425196850E-1,-1.574803149606E-1,
5.748031496063E-2));
#140=LINE('',#139,#138);
#141=CURVE_STYLE('',#21,POSITIVE_LENGTH_MEASURE(2.E-2),#9);
#142=PRESENTATION_STYLE_ASSIGNMENT((#141));
#143=STYLED_ITEM('',(#142),#140);
#144=CARTESIAN_POINT('',(-4.480314960630E-1,-1.712598425197E-1,
5.748031496063E-2));
#145=CARTESIAN_POINT('',(-4.480314960630E-1,-1.712598425197E-1,
4.763779527559E-2));
#146=VERTEX_POINT('',#144);
#147=VERTEX_POINT('',#145);
#148=CARTESIAN_POINT('',(-4.480314960630E-1,-1.515748031496E-1,
5.748031496063E-2));
#149=CARTESIAN_POINT('',(-4.598425196850E-1,-1.574803149606E-1,
5.748031496063E-2));
#150=VERTEX_POINT('',#148);
#151=VERTEX_POINT('',#149);
#152=CARTESIAN_POINT('',(-4.598425196850E-1,-1.653543307087E-1,
5.748031496063E-2));
#153=VERTEX_POINT('',#152);
#154=CARTESIAN_POINT('',(-4.480314960630E-1,-1.515748031496E-1,
4.763779527559E-2));
#155=VERTEX_POINT('',#154);
#156=CARTESIAN_POINT('',(-3.338582677165E-1,-1.712598425197E-1,
4.763779527559E-2));
#157=VERTEX_POINT('',#156);
#158=CARTESIAN_POINT('',(-3.338582677165E-1,-1.712598425197E-1,
5.748031496063E-2));
#159=VERTEX_POINT('',#158);
#160=CARTESIAN_POINT('',(-4.598425196850E-1,-1.653543307087E-1,
4.763779527559E-2));
#161=VERTEX_POINT('',#160);
#162=CARTESIAN_POINT('',(-3.338582677165E-1,-1.515748031496E-1,
4.763779527559E-2));
#163=VERTEX_POINT('',#162);
#164=CARTESIAN_POINT('',(-4.598425196850E-1,-1.574803149606E-1,
4.763779527559E-2));
#165=VERTEX_POINT('',#164);
#166=CARTESIAN_POINT('',(-3.338582677165E-1,-1.515748031496E-1,
5.748031496063E-2));
#167=VERTEX_POINT('',#166);
#168=CARTESIAN_POINT('',(-4.598425196850E-1,-1.712598425197E-1,
4.763779527559E-2));
#169=DIRECTION('',(0.E0,1.E0,2.081668171172E-14));
#170=DIRECTION('',(0.E0,-2.081668171172E-14,1.E0));
#171=AXIS2_PLACEMENT_3D('',#168,#169,#170);
#172=PLANE('',#171);
#174=ORIENTED_EDGE('',*,*,#173,.F.);
#176=ORIENTED_EDGE('',*,*,#175,.F.);
#178=ORIENTED_EDGE('',*,*,#177,.F.);
#180=ORIENTED_EDGE('',*,*,#179,.F.);
#181=EDGE_LOOP('',(#174,#176,#178,#180));
#182=FACE_OUTER_BOUND('',#181,.F.);
#184=CARTESIAN_POINT('',(-4.598425196850E-1,-1.564960629921E-1,
5.748031496063E-2));
#185=DIRECTION('',(0.E0,0.E0,-1.E0));
#186=DIRECTION('',(-1.E0,0.E0,0.E0));
#187=AXIS2_PLACEMENT_3D('',#184,#185,#186);
#188=PLANE('',#187);
#190=ORIENTED_EDGE('',*,*,#189,.F.);
#192=ORIENTED_EDGE('',*,*,#191,.F.);
#193=ORIENTED_EDGE('',*,*,#173,.T.);
#195=ORIENTED_EDGE('',*,*,#194,.F.);
#197=ORIENTED_EDGE('',*,*,#196,.F.);
#199=ORIENTED_EDGE('',*,*,#198,.F.);
#200=EDGE_LOOP('',(#190,#192,#193,#195,#197,#199));
#201=FACE_OUTER_BOUND('',#200,.F.);
#203=CARTESIAN_POINT('',(-4.598425196850E-1,-1.515748031496E-1,
5.748031496063E-2));
#204=DIRECTION('',(0.E0,-1.E0,2.081668171172E-14));
#205=DIRECTION('',(0.E0,-2.081668171172E-14,-1.E0));
#206=AXIS2_PLACEMENT_3D('',#203,#204,#205);
#207=PLANE('',#206);
#209=ORIENTED_EDGE('',*,*,#208,.F.);
#211=ORIENTED_EDGE('',*,*,#210,.F.);
#212=ORIENTED_EDGE('',*,*,#189,.T.);
#214=ORIENTED_EDGE('',*,*,#213,.F.);
#215=EDGE_LOOP('',(#209,#211,#212,#214));
#216=FACE_OUTER_BOUND('',#215,.F.);
#218=CARTESIAN_POINT('',(-4.598425196850E-1,-1.515748031496E-1,
4.763779527559E-2));
#219=DIRECTION('',(0.E0,0.E0,1.E0));
#220=DIRECTION('',(1.E0,0.E0,0.E0));
#221=AXIS2_PLACEMENT_3D('',#218,#219,#220);
#222=PLANE('',#221);
#224=ORIENTED_EDGE('',*,*,#223,.F.);
#226=ORIENTED_EDGE('',*,*,#225,.F.);
#227=ORIENTED_EDGE('',*,*,#177,.T.);
#229=ORIENTED_EDGE('',*,*,#228,.F.);
#230=ORIENTED_EDGE('',*,*,#208,.T.);
#232=ORIENTED_EDGE('',*,*,#231,.F.);
#233=EDGE_LOOP('',(#224,#226,#227,#229,#230,#232));
#234=FACE_OUTER_BOUND('',#233,.F.);
#236=CARTESIAN_POINT('',(-4.598425196850E-1,0.E0,0.E0));
#237=DIRECTION('',(-1.E0,0.E0,0.E0));
#238=DIRECTION('',(0.E0,0.E0,1.E0));
#239=AXIS2_PLACEMENT_3D('',#236,#237,#238);
#240=PLANE('',#239);
#241=ORIENTED_EDGE('',*,*,#196,.T.);
#243=ORIENTED_EDGE('',*,*,#242,.F.);
#244=ORIENTED_EDGE('',*,*,#223,.T.);
#246=ORIENTED_EDGE('',*,*,#245,.F.);
#247=EDGE_LOOP('',(#241,#243,#244,#246));
#248=FACE_OUTER_BOUND('',#247,.F.);
#250=CARTESIAN_POINT('',(-4.598425196850E-1,-1.653543307087E-1,0.E0));
#251=DIRECTION('',(-4.472135955E-1,-8.944271909999E-1,-1.861900614935E-14));
#252=DIRECTION('',(0.E0,2.081668171172E-14,-1.E0));
#253=AXIS2_PLACEMENT_3D('',#250,#251,#252);
#254=PLANE('',#253);
#255=ORIENTED_EDGE('',*,*,#225,.T.);
#256=ORIENTED_EDGE('',*,*,#242,.T.);
#257=ORIENTED_EDGE('',*,*,#194,.T.);
#258=ORIENTED_EDGE('',*,*,#179,.T.);
#259=EDGE_LOOP('',(#255,#256,#257,#258));
#260=FACE_OUTER_BOUND('',#259,.F.);
#262=CARTESIAN_POINT('',(-4.598425196850E-1,-1.574803149606E-1,0.E0));
#263=DIRECTION('',(-4.472135955E-1,8.944271909999E-1,-1.861900614935E-14));
#264=DIRECTION('',(0.E0,2.081668171172E-14,1.E0));
#265=AXIS2_PLACEMENT_3D('',#262,#263,#264);
#266=PLANE('',#265);
#267=ORIENTED_EDGE('',*,*,#198,.T.);
#268=ORIENTED_EDGE('',*,*,#245,.T.);
#269=ORIENTED_EDGE('',*,*,#231,.T.);
#270=ORIENTED_EDGE('',*,*,#213,.T.);
#271=EDGE_LOOP('',(#267,#268,#269,#270));
#272=FACE_OUTER_BOUND('',#271,.F.);
#274=CARTESIAN_POINT('',(-3.338582677165E-1,0.E0,0.E0));
#275=DIRECTION('',(-1.E0,0.E0,0.E0));
#276=DIRECTION('',(0.E0,0.E0,1.E0));
#277=AXIS2_PLACEMENT_3D('',#274,#275,#276);
#278=PLANE('',#277);
#279=ORIENTED_EDGE('',*,*,#175,.T.);
#280=ORIENTED_EDGE('',*,*,#191,.T.);
#281=ORIENTED_EDGE('',*,*,#210,.T.);
#282=ORIENTED_EDGE('',*,*,#228,.T.);
#283=EDGE_LOOP('',(#279,#280,#281,#282));
#284=FACE_OUTER_BOUND('',#283,.F.);
#288=FILL_AREA_STYLE_COLOUR('',#9);
#289=FILL_AREA_STYLE('',(#288));
#290=SURFACE_STYLE_FILL_AREA(#289);
#291=SURFACE_SIDE_STYLE('',(#290));
#292=SURFACE_STYLE_USAGE(.BOTH.,#291);
#293=PRESENTATION_STYLE_ASSIGNMENT((#292));
#16=STYLED_ITEM('',(#293),#287);
#294=PRESENTATION_LAYER_ASSIGNMENT('SHELL_251','',(#16,#183,#202,#217,#235,#249,
#261,#273,#285));
#296=LENGTH_MEASURE_WITH_UNIT(LENGTH_MEASURE(2.54E1),#295);
#297=(CONVERSION_BASED_UNIT('INCH',#296)LENGTH_UNIT()NAMED_UNIT(*));
#299=PLANE_ANGLE_MEASURE_WITH_UNIT(PLANE_ANGLE_MEASURE(1.745329251994E-2),#298);
#300=(CONVERSION_BASED_UNIT('DEGREE',#299)NAMED_UNIT(*)PLANE_ANGLE_UNIT());
#302=UNCERTAINTY_MEASURE_WITH_UNIT(LENGTH_MEASURE(1.278870565240E-5),#297,
'closure',
'Maximum model space distance between geometric entities at asserted connectivities');
#304=CARTESIAN_POINT('',(0.E0,0.E0,0.E0));
#305=DIRECTION('',(0.E0,0.E0,1.E0));
#306=DIRECTION('',(1.E0,0.E0,0.E0));
#309=MECHANICAL_DESIGN_GEOMETRIC_PRESENTATION_REPRESENTATION('',(#24,#31,#38,
#45,#52,#59,#66,#73,#80,#87,#94,#101,#108,#115,#122,#129,#136,#143,#16),#303);
#310=APPLICATION_CONTEXT('automotive design');
#311=APPLICATION_PROTOCOL_DEFINITION('international standard',
'config_control_design',1994,#310);
#312=PRODUCT_DEFINITION_CONTEXT('',#310,'design');
#313=PRODUCT_CONTEXT('',#310,'mechanical');
#314=PRODUCT('CHAMFER19','CHAMFER19','NOT SPECIFIED',(#313));
#315=PRODUCT_DEFINITION_FORMATION_WITH_SPECIFIED_SOURCE('1','LAST_VERSION',#314,
.MADE.);
#323=LENGTH_MEASURE_WITH_UNIT(LENGTH_MEASURE(2.54E1),#322);
#324=(CONVERSION_BASED_UNIT('INCH',#323)LENGTH_UNIT()NAMED_UNIT(*));
#325=DERIVED_UNIT_ELEMENT(#324,2.E0);
#326=AREA_UNIT((#325));
#327=MEASURE_REPRESENTATION_ITEM('surface area measure',AREA_MEASURE(
4.902705098313E0),#326);
#332=LENGTH_MEASURE_WITH_UNIT(LENGTH_MEASURE(2.54E1),#331);
#333=(CONVERSION_BASED_UNIT('INCH',#332)LENGTH_UNIT()NAMED_UNIT(*));
#334=DERIVED_UNIT_ELEMENT(#333,3.E0);
#335=VOLUME_UNIT((#334));
#336=MEASURE_REPRESENTATION_ITEM('volume measure',VOLUME_MEASURE(3.8875E-1),
#335);
#340=CARTESIAN_POINT('centre point',(-1.003659163987E1,-4.1E0,1.335E0));
#345=LENGTH_MEASURE_WITH_UNIT(LENGTH_MEASURE(2.54E1),#344);
#346=(CONVERSION_BASED_UNIT('INCH',#345)LENGTH_UNIT()NAMED_UNIT(*));
#347=DERIVED_UNIT_ELEMENT(#346,2.E0);
#348=AREA_UNIT((#347));
#349=MEASURE_REPRESENTATION_ITEM('surface area measure',AREA_MEASURE(
4.902705098313E0),#348);
#354=LENGTH_MEASURE_WITH_UNIT(LENGTH_MEASURE(2.54E1),#353);
#355=(CONVERSION_BASED_UNIT('INCH',#354)LENGTH_UNIT()NAMED_UNIT(*));
#356=DERIVED_UNIT_ELEMENT(#355,3.E0);
#357=VOLUME_UNIT((#356));
#358=MEASURE_REPRESENTATION_ITEM('volume measure',VOLUME_MEASURE(3.8875E-1),
#357);
#362=CARTESIAN_POINT('centre point',(-1.003659163987E1,-4.1E0,1.335E0));
#1=DRAUGHTING_PRE_DEFINED_COLOUR('green');
#2=COLOUR_RGB('',1.1E-2,1.2E-2,1.E0);
#3=COLOUR_RGB('',2.352941176471E-1,2.352941176471E-1,2.352941176471E-1);
#4=COLOUR_RGB('',4.1E-1,2.61589E-1,1.12848E-1);
#5=COLOUR_RGB('',5.04854E-1,1.5455E-2,1.5455E-2);
#6=COLOUR_RGB('',6.35294E-1,6.86275E-1,7.4902E-1);
#7=COLOUR_RGB('',6.40777E-1,6.40777E-1,6.40777E-1);
#8=COLOUR_RGB('',6.69062E-1,6.69903E-1,6.55217E-1);
#9=COLOUR_RGB('',7.921568627451E-1,8.196078431373E-1,9.333333333333E-1);
#10=COLOUR_RGB('',9.21569E-1,7.05882E-1,4.70588E-1);
#11=DRAUGHTING_PRE_DEFINED_COLOUR('red');
#12=DRAUGHTING_PRE_DEFINED_COLOUR('yellow');
#13=COLOUR_RGB('',1.E0,1.E0,5.3E-1);
#14=COLOUR_RGB('',1.E0,1.E0,9.49E-1);
#15=DRAUGHTING_PRE_DEFINED_COLOUR('white');
#173=EDGE_CURVE('',#159,#146,#20,.T.);
#175=EDGE_CURVE('',#157,#159,#28,.T.);
#177=EDGE_CURVE('',#147,#157,#35,.T.);
#179=EDGE_CURVE('',#146,#147,#42,.T.);
#183=ADVANCED_FACE('',(#182),#172,.F.);
#189=EDGE_CURVE('',#167,#150,#49,.T.);
#191=EDGE_CURVE('',#159,#167,#56,.T.);
#194=EDGE_CURVE('',#153,#146,#63,.T.);
#196=EDGE_CURVE('',#151,#153,#70,.T.);
#198=EDGE_CURVE('',#150,#151,#77,.T.);
#202=ADVANCED_FACE('',(#201),#188,.F.);
#208=EDGE_CURVE('',#163,#155,#84,.T.);
#210=EDGE_CURVE('',#167,#163,#91,.T.);
#213=EDGE_CURVE('',#155,#150,#98,.T.);
#217=ADVANCED_FACE('',(#216),#207,.F.);
#223=EDGE_CURVE('',#161,#165,#105,.T.);
#225=EDGE_CURVE('',#147,#161,#112,.T.);
#228=EDGE_CURVE('',#163,#157,#119,.T.);
#231=EDGE_CURVE('',#165,#155,#126,.T.);
#235=ADVANCED_FACE('',(#234),#222,.F.);
#242=EDGE_CURVE('',#161,#153,#133,.T.);
#245=EDGE_CURVE('',#151,#165,#140,.T.);
#249=ADVANCED_FACE('',(#248),#240,.T.);
#261=ADVANCED_FACE('',(#260),#254,.T.);
#273=ADVANCED_FACE('',(#272),#266,.T.);
#285=ADVANCED_FACE('',(#284),#278,.F.);
#286=CLOSED_SHELL('',(#183,#202,#217,#235,#249,#261,#273,#285));
#287=MANIFOLD_SOLID_BREP('',#286);
#295=(LENGTH_UNIT()NAMED_UNIT(*)SI_UNIT(.MILLI.,.METRE.));
#298=(NAMED_UNIT(*)PLANE_ANGLE_UNIT()SI_UNIT($,.RADIAN.));
#301=(NAMED_UNIT(*)SI_UNIT($,.STERADIAN.)SOLID_ANGLE_UNIT());
#303=(GEOMETRIC_REPRESENTATION_CONTEXT(3)GLOBAL_UNCERTAINTY_ASSIGNED_CONTEXT((
#302))GLOBAL_UNIT_ASSIGNED_CONTEXT((#297,#300,#301))REPRESENTATION_CONTEXT
('ID1','3'));
#307=AXIS2_PLACEMENT_3D('',#304,#305,#306);
#308=ADVANCED_BREP_SHAPE_REPRESENTATION('',(#307,#287),#303);
#316=PRODUCT_DEFINITION('design','',#315,#312);
#317=PRODUCT_DEFINITION_SHAPE('','SHAPE FOR CHAMFER19.',#316);
#318=SHAPE_ASPECT('','solid data associated with CHAMFER19',#317,.F.);
#319=PROPERTY_DEFINITION('',
'shape for solid data with which properties are associated',#318);
#320=SHAPE_REPRESENTATION('',(#287),#303);
#321=SHAPE_DEFINITION_REPRESENTATION(#319,#320);
#322=(LENGTH_UNIT()NAMED_UNIT(*)SI_UNIT(.MILLI.,.METRE.));
#328=PROPERTY_DEFINITION('geometric validation property','area of CHAMFER19',
#318);
#329=REPRESENTATION('surface area',(#327),#303);
#330=PROPERTY_DEFINITION_REPRESENTATION(#328,#329);
#331=(LENGTH_UNIT()NAMED_UNIT(*)SI_UNIT(.MILLI.,.METRE.));
#337=PROPERTY_DEFINITION('geometric validation property','volume of CHAMFER19',
#318);
#338=REPRESENTATION('volume',(#336),#303);
#339=PROPERTY_DEFINITION_REPRESENTATION(#337,#338);
#341=PROPERTY_DEFINITION('geometric validation property',
'centroid of CHAMFER19',#318);
#342=REPRESENTATION('centroid',(#340),#303);
#343=PROPERTY_DEFINITION_REPRESENTATION(#341,#342);
#344=(LENGTH_UNIT()NAMED_UNIT(*)SI_UNIT(.MILLI.,.METRE.));
#350=PROPERTY_DEFINITION('geometric validation property','area of CHAMFER19',
#317);
#351=REPRESENTATION('surface area',(#349),#303);
#352=PROPERTY_DEFINITION_REPRESENTATION(#350,#351);
#353=(LENGTH_UNIT()NAMED_UNIT(*)SI_UNIT(.MILLI.,.METRE.));
#359=PROPERTY_DEFINITION('geometric validation property','volume of CHAMFER19',
#317);
#360=REPRESENTATION('volume',(#358),#303);
#361=PROPERTY_DEFINITION_REPRESENTATION(#359,#360);
#363=PROPERTY_DEFINITION('geometric validation property',
'centroid of CHAMFER19',#317);
#364=REPRESENTATION('centroid',(#362),#303);
#365=PROPERTY_DEFINITION_REPRESENTATION(#363,#364);
#366=SHAPE_DEFINITION_REPRESENTATION(#317,#308);
ENDSEC;
END-ISO-10303-21;
