ISO-10303-21;
HEADER;
FILE_DESCRIPTION((''),'2;1');
FILE_NAME('CHAMFER4','2026-06-15T13:46:14',('Esia'),(''),
'CREO PARAMETRIC BY PTC INC, 2025102','CREO PARAMETRIC BY PTC INC, 2025102','');
FILE_SCHEMA((
'AP242_MANAGED_MODEL_BASED_3D_ENGINEERING_MIM_LF { 1 0 10303 442 1 1 4 }'));
ENDSEC;
DATA;
#17=DIRECTION('',(0.E0,0.E0,1.E0));
#18=VECTOR('',#17,3.574803149606E-1);
#19=CARTESIAN_POINT('',(1.901329219330E-1,-2.185039370078E-1,
3.255905511811E-1));
#20=LINE('',#19,#18);
#21=DRAUGHTING_PRE_DEFINED_CURVE_FONT('continuous');
#22=CURVE_STYLE('',#21,POSITIVE_LENGTH_MEASURE(2.E-2),#3);
#23=PRESENTATION_STYLE_ASSIGNMENT((#22));
#24=STYLED_ITEM('',(#23),#20);
#25=DIRECTION('',(0.E0,-1.E0,0.E0));
#26=VECTOR('',#25,4.370078740157E-1);
#27=CARTESIAN_POINT('',(1.901329219330E-1,2.185039370079E-1,3.255905511811E-1));
#28=LINE('',#27,#26);
#29=CURVE_STYLE('',#21,POSITIVE_LENGTH_MEASURE(2.E-2),#3);
#30=PRESENTATION_STYLE_ASSIGNMENT((#29));
#31=STYLED_ITEM('',(#30),#28);
#32=DIRECTION('',(0.E0,0.E0,-1.E0));
#33=VECTOR('',#32,3.574803149606E-1);
#34=CARTESIAN_POINT('',(1.901329219330E-1,2.185039370079E-1,6.830708661417E-1));
#35=LINE('',#34,#33);
#36=CURVE_STYLE('',#21,POSITIVE_LENGTH_MEASURE(2.E-2),#3);
#37=PRESENTATION_STYLE_ASSIGNMENT((#36));
#38=STYLED_ITEM('',(#37),#35);
#39=DIRECTION('',(0.E0,1.E0,0.E0));
#40=VECTOR('',#39,4.370078740157E-1);
#41=CARTESIAN_POINT('',(1.901329219330E-1,-2.185039370078E-1,
6.830708661417E-1));
#42=LINE('',#41,#40);
#43=CURVE_STYLE('',#21,POSITIVE_LENGTH_MEASURE(2.E-2),#3);
#44=PRESENTATION_STYLE_ASSIGNMENT((#43));
#45=STYLED_ITEM('',(#44),#42);
#46=DIRECTION('',(1.E0,1.591916562729E-14,0.E0));
#47=VECTOR('',#46,4.881889763780E-2);
#48=CARTESIAN_POINT('',(1.901329219330E-1,-2.185039370078E-1,
3.255905511811E-1));
#49=LINE('',#48,#47);
#50=CURVE_STYLE('',#21,POSITIVE_LENGTH_MEASURE(2.E-2),#3);
#51=PRESENTATION_STYLE_ASSIGNMENT((#50));
#52=STYLED_ITEM('',(#51),#49);
#53=DIRECTION('',(-1.E0,-1.023374933183E-14,0.E0));
#54=VECTOR('',#53,4.881889763779E-2);
#55=CARTESIAN_POINT('',(2.389518195708E-1,-2.185039370078E-1,
6.830708661417E-1));
#56=LINE('',#55,#54);
#57=CURVE_STYLE('',#21,POSITIVE_LENGTH_MEASURE(2.E-2),#3);
#58=PRESENTATION_STYLE_ASSIGNMENT((#57));
#59=STYLED_ITEM('',(#58),#56);
#60=DIRECTION('',(0.E0,0.E0,1.E0));
#61=VECTOR('',#60,3.574803149606E-1);
#62=CARTESIAN_POINT('',(2.625738668149E-1,-1.948818897637E-1,
3.255905511811E-1));
#63=LINE('',#62,#61);
#64=CURVE_STYLE('',#21,POSITIVE_LENGTH_MEASURE(2.E-2),#3);
#65=PRESENTATION_STYLE_ASSIGNMENT((#64));
#66=STYLED_ITEM('',(#65),#63);
#67=DIRECTION('',(1.063698810873E-14,0.E0,-1.E0));
#68=VECTOR('',#67,3.574803149606E-1);
#69=CARTESIAN_POINT('',(2.389518195708E-1,-2.185039370078E-1,
6.830708661417E-1));
#70=LINE('',#69,#68);
#71=CURVE_STYLE('',#21,POSITIVE_LENGTH_MEASURE(2.E-2),#3);
#72=PRESENTATION_STYLE_ASSIGNMENT((#71));
#73=STYLED_ITEM('',(#72),#70);
#74=DIRECTION('',(0.E0,1.E0,0.E0));
#75=VECTOR('',#74,3.897637795276E-1);
#76=CARTESIAN_POINT('',(2.625738668149E-1,-1.948818897637E-1,
3.255905511811E-1));
#77=LINE('',#76,#75);
#78=CURVE_STYLE('',#21,POSITIVE_LENGTH_MEASURE(2.E-2),#3);
#79=PRESENTATION_STYLE_ASSIGNMENT((#78));
#80=STYLED_ITEM('',(#79),#77);
#81=DIRECTION('',(0.E0,-1.E0,0.E0));
#82=VECTOR('',#81,3.897637795276E-1);
#83=CARTESIAN_POINT('',(2.625738668149E-1,1.948818897638E-1,6.830708661417E-1));
#84=LINE('',#83,#82);
#85=CURVE_STYLE('',#21,POSITIVE_LENGTH_MEASURE(2.E-2),#3);
#86=PRESENTATION_STYLE_ASSIGNMENT((#85));
#87=STYLED_ITEM('',(#86),#84);
#88=DIRECTION('',(0.E0,0.E0,1.E0));
#89=VECTOR('',#88,3.574803149606E-1);
#90=CARTESIAN_POINT('',(2.389518195708E-1,2.185039370079E-1,3.255905511811E-1));
#91=LINE('',#90,#89);
#92=CURVE_STYLE('',#21,POSITIVE_LENGTH_MEASURE(2.E-2),#3);
#93=PRESENTATION_STYLE_ASSIGNMENT((#92));
#94=STYLED_ITEM('',(#93),#91);
#95=DIRECTION('',(0.E0,0.E0,-1.E0));
#96=VECTOR('',#95,3.574803149606E-1);
#97=CARTESIAN_POINT('',(2.625738668149E-1,1.948818897638E-1,6.830708661417E-1));
#98=LINE('',#97,#96);
#99=CURVE_STYLE('',#21,POSITIVE_LENGTH_MEASURE(2.E-2),#3);
#100=PRESENTATION_STYLE_ASSIGNMENT((#99));
#101=STYLED_ITEM('',(#100),#98);
#102=DIRECTION('',(-1.E0,0.E0,0.E0));
#103=VECTOR('',#102,4.881889763779E-2);
#104=CARTESIAN_POINT('',(2.389518195708E-1,2.185039370079E-1,
3.255905511811E-1));
#105=LINE('',#104,#103);
#106=CURVE_STYLE('',#21,POSITIVE_LENGTH_MEASURE(2.E-2),#3);
#107=PRESENTATION_STYLE_ASSIGNMENT((#106));
#108=STYLED_ITEM('',(#107),#105);
#109=DIRECTION('',(1.E0,1.137083259092E-14,0.E0));
#110=VECTOR('',#109,4.881889763779E-2);
#111=CARTESIAN_POINT('',(1.901329219330E-1,2.185039370079E-1,
6.830708661417E-1));
#112=LINE('',#111,#110);
#113=CURVE_STYLE('',#21,POSITIVE_LENGTH_MEASURE(2.E-2),#3);
#114=PRESENTATION_STYLE_ASSIGNMENT((#113));
#115=STYLED_ITEM('',(#114),#112);
#116=CARTESIAN_POINT('',(2.389518195708E-1,-1.948818897637E-1,
3.255905511811E-1));
#117=DIRECTION('',(0.E0,0.E0,-1.E0));
#118=DIRECTION('',(1.E0,-2.467470672229E-14,0.E0));
#119=AXIS2_PLACEMENT_3D('',#116,#117,#118);
#121=CURVE_STYLE('',#21,POSITIVE_LENGTH_MEASURE(2.E-2),#3);
#122=PRESENTATION_STYLE_ASSIGNMENT((#121));
#123=STYLED_ITEM('',(#122),#120);
#124=CARTESIAN_POINT('',(2.389518195708E-1,1.948818897638E-1,
3.255905511811E-1));
#125=DIRECTION('',(0.E0,0.E0,-1.E0));
#126=DIRECTION('',(0.E0,1.E0,0.E0));
#127=AXIS2_PLACEMENT_3D('',#124,#125,#126);
#129=CURVE_STYLE('',#21,POSITIVE_LENGTH_MEASURE(2.E-2),#3);
#130=PRESENTATION_STYLE_ASSIGNMENT((#129));
#131=STYLED_ITEM('',(#130),#128);
#132=DIRECTION('',(7.071067811866E-1,0.E0,-7.071067811865E-1));
#133=VECTOR('',#132,1.670330979181E-2);
#134=CARTESIAN_POINT('',(2.507628431928E-1,1.948818897638E-1,
6.948818897638E-1));
#135=LINE('',#134,#133);
#136=CURVE_STYLE('',#21,POSITIVE_LENGTH_MEASURE(2.E-2),#3);
#137=PRESENTATION_STYLE_ASSIGNMENT((#136));
#138=STYLED_ITEM('',(#137),#135);
#139=DIRECTION('',(0.E0,-7.071067811866E-1,7.071067811865E-1));
#140=VECTOR('',#139,1.670330979181E-2);
#141=CARTESIAN_POINT('',(2.389518195708E-1,2.185039370079E-1,
6.830708661417E-1));
#142=LINE('',#141,#140);
#143=CURVE_STYLE('',#21,POSITIVE_LENGTH_MEASURE(2.E-2),#3);
#144=PRESENTATION_STYLE_ASSIGNMENT((#143));
#145=STYLED_ITEM('',(#144),#142);
#146=CARTESIAN_POINT('',(2.389518195708E-1,1.948818897638E-1,
6.830708661417E-1));
#147=DIRECTION('',(0.E0,0.E0,1.E0));
#148=DIRECTION('',(1.E0,0.E0,0.E0));
#149=AXIS2_PLACEMENT_3D('',#146,#147,#148);
#151=CURVE_STYLE('',#21,POSITIVE_LENGTH_MEASURE(2.E-2),#3);
#152=PRESENTATION_STYLE_ASSIGNMENT((#151));
#153=STYLED_ITEM('',(#152),#150);
#154=DIRECTION('',(-1.894316551402E-13,-7.071067811866E-1,-7.071067811865E-1));
#155=VECTOR('',#154,1.670330979181E-2);
#156=CARTESIAN_POINT('',(2.389518195708E-1,-2.066929133858E-1,
6.948818897638E-1));
#157=LINE('',#156,#155);
#158=CURVE_STYLE('',#21,POSITIVE_LENGTH_MEASURE(2.E-2),#3);
#159=PRESENTATION_STYLE_ASSIGNMENT((#158));
#160=STYLED_ITEM('',(#159),#157);
#161=DIRECTION('',(-7.071067811866E-1,0.E0,7.071067811865E-1));
#162=VECTOR('',#161,1.670330979181E-2);
#163=CARTESIAN_POINT('',(2.625738668149E-1,-1.948818897637E-1,
6.830708661417E-1));
#164=LINE('',#163,#162);
#165=CURVE_STYLE('',#21,POSITIVE_LENGTH_MEASURE(2.E-2),#3);
#166=PRESENTATION_STYLE_ASSIGNMENT((#165));
#167=STYLED_ITEM('',(#166),#164);
#168=CARTESIAN_POINT('',(2.389518195708E-1,-1.948818897637E-1,
6.830708661417E-1));
#169=DIRECTION('',(0.E0,0.E0,1.E0));
#170=DIRECTION('',(0.E0,-1.E0,0.E0));
#171=AXIS2_PLACEMENT_3D('',#168,#169,#170);
#173=CURVE_STYLE('',#21,POSITIVE_LENGTH_MEASURE(2.E-2),#3);
#174=PRESENTATION_STYLE_ASSIGNMENT((#173));
#175=STYLED_ITEM('',(#174),#172);
#176=DIRECTION('',(-5.773502691896E-1,-5.773502691896E-1,-5.773502691896E-1));
#177=VECTOR('',#176,2.045729300278E-2);
#178=CARTESIAN_POINT('',(2.019439455551E-1,-2.066929133858E-1,
6.948818897638E-1));
#179=LINE('',#178,#177);
#180=CURVE_STYLE('',#21,POSITIVE_LENGTH_MEASURE(2.E-2),#3);
#181=PRESENTATION_STYLE_ASSIGNMENT((#180));
#182=STYLED_ITEM('',(#181),#179);
#183=DIRECTION('',(-5.773502691896E-1,5.773502691896E-1,-5.773502691896E-1));
#184=VECTOR('',#183,2.045729300278E-2);
#185=CARTESIAN_POINT('',(2.019439455551E-1,2.066929133859E-1,
6.948818897638E-1));
#186=LINE('',#185,#184);
#187=CURVE_STYLE('',#21,POSITIVE_LENGTH_MEASURE(2.E-2),#3);
#188=PRESENTATION_STYLE_ASSIGNMENT((#187));
#189=STYLED_ITEM('',(#188),#186);
#190=CARTESIAN_POINT('',(2.389518195708E-1,1.948818897638E-1,
6.948818897638E-1));
#191=DIRECTION('',(0.E0,0.E0,1.E0));
#192=DIRECTION('',(1.E0,0.E0,0.E0));
#193=AXIS2_PLACEMENT_3D('',#190,#191,#192);
#195=CURVE_STYLE('',#21,POSITIVE_LENGTH_MEASURE(2.E-2),#3);
#196=PRESENTATION_STYLE_ASSIGNMENT((#195));
#197=STYLED_ITEM('',(#196),#194);
#198=DIRECTION('',(0.E0,1.E0,0.E0));
#199=VECTOR('',#198,3.897637795276E-1);
#200=CARTESIAN_POINT('',(2.507628431928E-1,-1.948818897637E-1,
6.948818897638E-1));
#201=LINE('',#200,#199);
#202=CURVE_STYLE('',#21,POSITIVE_LENGTH_MEASURE(2.E-2),#3);
#203=PRESENTATION_STYLE_ASSIGNMENT((#202));
#204=STYLED_ITEM('',(#203),#201);
#205=CARTESIAN_POINT('',(2.389518195708E-1,-1.948818897637E-1,
6.948818897638E-1));
#206=DIRECTION('',(0.E0,0.E0,1.E0));
#207=DIRECTION('',(8.365900564892E-13,-1.E0,0.E0));
#208=AXIS2_PLACEMENT_3D('',#205,#206,#207);
#210=CURVE_STYLE('',#21,POSITIVE_LENGTH_MEASURE(2.E-2),#3);
#211=PRESENTATION_STYLE_ASSIGNMENT((#210));
#212=STYLED_ITEM('',(#211),#209);
#213=DIRECTION('',(1.E0,1.274984845833E-14,0.E0));
#214=VECTOR('',#213,3.700787401575E-2);
#215=CARTESIAN_POINT('',(2.019439455551E-1,-2.066929133858E-1,
6.948818897638E-1));
#216=LINE('',#215,#214);
#217=CURVE_STYLE('',#21,POSITIVE_LENGTH_MEASURE(2.E-2),#3);
#218=PRESENTATION_STYLE_ASSIGNMENT((#217));
#219=STYLED_ITEM('',(#218),#216);
#220=DIRECTION('',(0.E0,-1.E0,0.E0));
#221=VECTOR('',#220,4.133858267717E-1);
#222=CARTESIAN_POINT('',(2.019439455551E-1,2.066929133859E-1,
6.948818897638E-1));
#223=LINE('',#222,#221);
#224=CURVE_STYLE('',#21,POSITIVE_LENGTH_MEASURE(2.E-2),#3);
#225=PRESENTATION_STYLE_ASSIGNMENT((#224));
#226=STYLED_ITEM('',(#225),#223);
#227=DIRECTION('',(-1.E0,0.E0,0.E0));
#228=VECTOR('',#227,3.700787401575E-2);
#229=CARTESIAN_POINT('',(2.389518195708E-1,2.066929133859E-1,
6.948818897638E-1));
#230=LINE('',#229,#228);
#231=CURVE_STYLE('',#21,POSITIVE_LENGTH_MEASURE(2.E-2),#3);
#232=PRESENTATION_STYLE_ASSIGNMENT((#231));
#233=STYLED_ITEM('',(#232),#230);
#234=CARTESIAN_POINT('',(1.901329219330E-1,-2.185039370078E-1,
6.830708661417E-1));
#235=CARTESIAN_POINT('',(1.901329219330E-1,2.185039370079E-1,
6.830708661417E-1));
#236=VERTEX_POINT('',#234);
#237=VERTEX_POINT('',#235);
#238=CARTESIAN_POINT('',(2.625738668149E-1,-1.948818897637E-1,
6.830708661417E-1));
#239=CARTESIAN_POINT('',(2.507628431928E-1,-1.948818897637E-1,
6.948818897638E-1));
#240=VERTEX_POINT('',#238);
#241=VERTEX_POINT('',#239);
#242=CARTESIAN_POINT('',(2.389518195708E-1,-2.185039370078E-1,
6.830708661417E-1));
#243=VERTEX_POINT('',#242);
#244=CARTESIAN_POINT('',(1.901329219330E-1,-2.185039370078E-1,
3.255905511811E-1));
#245=VERTEX_POINT('',#244);
#246=CARTESIAN_POINT('',(2.389518195708E-1,-2.185039370078E-1,
3.255905511811E-1));
#247=VERTEX_POINT('',#246);
#248=CARTESIAN_POINT('',(2.019439455551E-1,2.066929133859E-1,
6.948818897638E-1));
#249=CARTESIAN_POINT('',(2.019439455551E-1,-2.066929133858E-1,
6.948818897638E-1));
#250=VERTEX_POINT('',#248);
#251=VERTEX_POINT('',#249);
#252=CARTESIAN_POINT('',(1.901329219330E-1,2.185039370079E-1,
3.255905511811E-1));
#253=VERTEX_POINT('',#252);
#254=CARTESIAN_POINT('',(2.625738668149E-1,-1.948818897637E-1,
3.255905511811E-1));
#255=VERTEX_POINT('',#254);
#256=CARTESIAN_POINT('',(2.389518195708E-1,-2.066929133858E-1,
6.948818897638E-1));
#257=VERTEX_POINT('',#256);
#258=CARTESIAN_POINT('',(2.625738668149E-1,1.948818897638E-1,
3.255905511811E-1));
#259=VERTEX_POINT('',#258);
#260=CARTESIAN_POINT('',(2.389518195708E-1,2.185039370079E-1,
3.255905511811E-1));
#261=VERTEX_POINT('',#260);
#262=CARTESIAN_POINT('',(2.389518195708E-1,2.185039370079E-1,
6.830708661417E-1));
#263=VERTEX_POINT('',#262);
#264=CARTESIAN_POINT('',(2.625738668149E-1,1.948818897638E-1,
6.830708661417E-1));
#265=VERTEX_POINT('',#264);
#266=CARTESIAN_POINT('',(2.507628431928E-1,1.948818897638E-1,
6.948818897638E-1));
#267=VERTEX_POINT('',#266);
#268=CARTESIAN_POINT('',(2.389518195708E-1,2.066929133859E-1,
6.948818897638E-1));
#269=VERTEX_POINT('',#268);
#270=CARTESIAN_POINT('',(1.901329219330E-1,2.185039370079E-1,
6.948818897638E-1));
#271=DIRECTION('',(1.E0,0.E0,0.E0));
#272=DIRECTION('',(0.E0,1.E0,0.E0));
#273=AXIS2_PLACEMENT_3D('',#270,#271,#272);
#274=PLANE('',#273);
#276=ORIENTED_EDGE('',*,*,#275,.F.);
#278=ORIENTED_EDGE('',*,*,#277,.F.);
#280=ORIENTED_EDGE('',*,*,#279,.F.);
#282=ORIENTED_EDGE('',*,*,#281,.F.);
#283=EDGE_LOOP('',(#276,#278,#280,#282));
#284=FACE_OUTER_BOUND('',#283,.F.);
#286=CARTESIAN_POINT('',(1.901329219330E-1,-2.185039370078E-1,
6.948818897638E-1));
#287=DIRECTION('',(-2.518146981257E-14,1.E0,0.E0));
#288=DIRECTION('',(-1.E0,-2.518146981257E-14,0.E0));
#289=AXIS2_PLACEMENT_3D('',#286,#287,#288);
#290=PLANE('',#289);
#292=ORIENTED_EDGE('',*,*,#291,.T.);
#294=ORIENTED_EDGE('',*,*,#293,.F.);
#295=ORIENTED_EDGE('',*,*,#275,.T.);
#297=ORIENTED_EDGE('',*,*,#296,.F.);
#298=EDGE_LOOP('',(#292,#294,#295,#297));
#299=FACE_OUTER_BOUND('',#298,.F.);
#301=CARTESIAN_POINT('',(2.389518195708E-1,-1.948818897637E-1,
6.948818897638E-1));
#302=DIRECTION('',(0.E0,0.E0,-1.E0));
#303=DIRECTION('',(-1.E0,0.E0,0.E0));
#304=AXIS2_PLACEMENT_3D('',#301,#302,#303);
#305=CYLINDRICAL_SURFACE('',#304,2.362204724409E-2);
#307=ORIENTED_EDGE('',*,*,#306,.F.);
#309=ORIENTED_EDGE('',*,*,#308,.T.);
#310=ORIENTED_EDGE('',*,*,#291,.F.);
#312=ORIENTED_EDGE('',*,*,#311,.T.);
#313=EDGE_LOOP('',(#307,#309,#310,#312));
#314=FACE_OUTER_BOUND('',#313,.F.);
#316=CARTESIAN_POINT('',(2.625738668149E-1,-1.948818897637E-1,
6.948818897638E-1));
#317=DIRECTION('',(-1.E0,0.E0,0.E0));
#318=DIRECTION('',(0.E0,-1.E0,0.E0));
#319=AXIS2_PLACEMENT_3D('',#316,#317,#318);
#320=PLANE('',#319);
#322=ORIENTED_EDGE('',*,*,#321,.T.);
#324=ORIENTED_EDGE('',*,*,#323,.F.);
#325=ORIENTED_EDGE('',*,*,#306,.T.);
#327=ORIENTED_EDGE('',*,*,#326,.F.);
#328=EDGE_LOOP('',(#322,#324,#325,#327));
#329=FACE_OUTER_BOUND('',#328,.F.);
#331=CARTESIAN_POINT('',(2.389518195708E-1,1.948818897638E-1,
6.948818897638E-1));
#332=DIRECTION('',(0.E0,0.E0,-1.E0));
#333=DIRECTION('',(-1.E0,0.E0,0.E0));
#334=AXIS2_PLACEMENT_3D('',#331,#332,#333);
#335=CYLINDRICAL_SURFACE('',#334,2.362204724409E-2);
#337=ORIENTED_EDGE('',*,*,#336,.F.);
#339=ORIENTED_EDGE('',*,*,#338,.T.);
#340=ORIENTED_EDGE('',*,*,#321,.F.);
#342=ORIENTED_EDGE('',*,*,#341,.T.);
#343=EDGE_LOOP('',(#337,#339,#340,#342));
#344=FACE_OUTER_BOUND('',#343,.F.);
#346=CARTESIAN_POINT('',(2.389518195708E-1,2.185039370079E-1,
6.948818897638E-1));
#347=DIRECTION('',(0.E0,-1.E0,0.E0));
#348=DIRECTION('',(0.E0,0.E0,-1.E0));
#349=AXIS2_PLACEMENT_3D('',#346,#347,#348);
#350=PLANE('',#349);
#351=ORIENTED_EDGE('',*,*,#279,.T.);
#353=ORIENTED_EDGE('',*,*,#352,.F.);
#354=ORIENTED_EDGE('',*,*,#336,.T.);
#356=ORIENTED_EDGE('',*,*,#355,.F.);
#357=EDGE_LOOP('',(#351,#353,#354,#356));
#358=FACE_OUTER_BOUND('',#357,.F.);
#360=CARTESIAN_POINT('',(2.389518195708E-1,-1.948818897637E-1,
3.255905511811E-1));
#361=DIRECTION('',(0.E0,0.E0,1.E0));
#362=DIRECTION('',(1.E0,0.E0,0.E0));
#363=AXIS2_PLACEMENT_3D('',#360,#361,#362);
#364=PLANE('',#363);
#365=ORIENTED_EDGE('',*,*,#277,.T.);
#366=ORIENTED_EDGE('',*,*,#293,.T.);
#367=ORIENTED_EDGE('',*,*,#308,.F.);
#368=ORIENTED_EDGE('',*,*,#323,.T.);
#369=ORIENTED_EDGE('',*,*,#338,.F.);
#370=ORIENTED_EDGE('',*,*,#352,.T.);
#371=EDGE_LOOP('',(#365,#366,#367,#368,#369,#370));
#372=FACE_OUTER_BOUND('',#371,.F.);
#374=CARTESIAN_POINT('',(2.389518195708E-1,2.066929133859E-1,
6.948818897638E-1));
#375=DIRECTION('',(0.E0,7.071067811865E-1,7.071067811865E-1));
#376=DIRECTION('',(1.E0,0.E0,0.E0));
#377=AXIS2_PLACEMENT_3D('',#374,#375,#376);
#378=PLANE('',#377);
#380=ORIENTED_EDGE('',*,*,#379,.T.);
#382=ORIENTED_EDGE('',*,*,#381,.T.);
#384=ORIENTED_EDGE('',*,*,#383,.T.);
#385=ORIENTED_EDGE('',*,*,#355,.T.);
#386=EDGE_LOOP('',(#380,#382,#384,#385));
#387=FACE_OUTER_BOUND('',#386,.F.);
#389=CARTESIAN_POINT('',(2.389518195708E-1,1.948818897638E-1,
6.889763779528E-1));
#390=DIRECTION('',(0.E0,0.E0,-1.E0));
#391=DIRECTION('',(-1.E0,0.E0,0.E0));
#392=AXIS2_PLACEMENT_3D('',#389,#390,#391);
#393=CONICAL_SURFACE('',#392,1.771653543307E-2,4.5E1);
#395=ORIENTED_EDGE('',*,*,#394,.F.);
#397=ORIENTED_EDGE('',*,*,#396,.T.);
#398=ORIENTED_EDGE('',*,*,#379,.F.);
#399=ORIENTED_EDGE('',*,*,#341,.F.);
#400=EDGE_LOOP('',(#395,#397,#398,#399));
#401=FACE_OUTER_BOUND('',#400,.F.);
#403=CARTESIAN_POINT('',(2.507628431928E-1,-1.948818897637E-1,
6.948818897638E-1));
#404=DIRECTION('',(7.071067811865E-1,0.E0,7.071067811865E-1));
#405=DIRECTION('',(0.E0,-1.E0,0.E0));
#406=AXIS2_PLACEMENT_3D('',#403,#404,#405);
#407=PLANE('',#406);
#409=ORIENTED_EDGE('',*,*,#408,.T.);
#411=ORIENTED_EDGE('',*,*,#410,.T.);
#412=ORIENTED_EDGE('',*,*,#394,.T.);
#413=ORIENTED_EDGE('',*,*,#326,.T.);
#414=EDGE_LOOP('',(#409,#411,#412,#413));
#415=FACE_OUTER_BOUND('',#414,.F.);
#417=CARTESIAN_POINT('',(2.389518195708E-1,-1.948818897637E-1,
6.889763779528E-1));
#418=DIRECTION('',(0.E0,0.E0,-1.E0));
#419=DIRECTION('',(-1.E0,0.E0,0.E0));
#420=AXIS2_PLACEMENT_3D('',#417,#418,#419);
#421=CONICAL_SURFACE('',#420,1.771653543307E-2,4.5E1);
#423=ORIENTED_EDGE('',*,*,#422,.F.);
#425=ORIENTED_EDGE('',*,*,#424,.T.);
#426=ORIENTED_EDGE('',*,*,#408,.F.);
#427=ORIENTED_EDGE('',*,*,#311,.F.);
#428=EDGE_LOOP('',(#423,#425,#426,#427));
#429=FACE_OUTER_BOUND('',#428,.F.);
#431=CARTESIAN_POINT('',(2.389518195708E-1,-2.066929133858E-1,
6.948818897638E-1));
#432=DIRECTION('',(1.780598806471E-14,-7.071067811865E-1,7.071067811865E-1));
#433=DIRECTION('',(-1.E0,-2.518146981257E-14,0.E0));
#434=AXIS2_PLACEMENT_3D('',#431,#432,#433);
#435=PLANE('',#434);
#436=ORIENTED_EDGE('',*,*,#422,.T.);
#437=ORIENTED_EDGE('',*,*,#296,.T.);
#439=ORIENTED_EDGE('',*,*,#438,.F.);
#441=ORIENTED_EDGE('',*,*,#440,.T.);
#442=EDGE_LOOP('',(#436,#437,#439,#441));
#443=FACE_OUTER_BOUND('',#442,.F.);
#445=CARTESIAN_POINT('',(2.019439455551E-1,-1.948818897637E-1,
6.948818897638E-1));
#446=DIRECTION('',(-7.071067811865E-1,0.E0,7.071067811865E-1));
#447=DIRECTION('',(0.E0,1.E0,0.E0));
#448=AXIS2_PLACEMENT_3D('',#445,#446,#447);
#449=PLANE('',#448);
#450=ORIENTED_EDGE('',*,*,#438,.T.);
#451=ORIENTED_EDGE('',*,*,#281,.T.);
#452=ORIENTED_EDGE('',*,*,#383,.F.);
#454=ORIENTED_EDGE('',*,*,#453,.T.);
#455=EDGE_LOOP('',(#450,#451,#452,#454));
#456=FACE_OUTER_BOUND('',#455,.F.);
#458=CARTESIAN_POINT('',(2.389518195708E-1,-1.948818897637E-1,
6.948818897638E-1));
#459=DIRECTION('',(0.E0,0.E0,1.E0));
#460=DIRECTION('',(1.E0,0.E0,0.E0));
#461=AXIS2_PLACEMENT_3D('',#458,#459,#460);
#462=PLANE('',#461);
#463=ORIENTED_EDGE('',*,*,#396,.F.);
#464=ORIENTED_EDGE('',*,*,#410,.F.);
#465=ORIENTED_EDGE('',*,*,#424,.F.);
#466=ORIENTED_EDGE('',*,*,#440,.F.);
#467=ORIENTED_EDGE('',*,*,#453,.F.);
#468=ORIENTED_EDGE('',*,*,#381,.F.);
#469=EDGE_LOOP('',(#463,#464,#465,#466,#467,#468));
#470=FACE_OUTER_BOUND('',#469,.F.);
#474=FILL_AREA_STYLE_COLOUR('',#3);
#475=FILL_AREA_STYLE('',(#474));
#476=SURFACE_STYLE_FILL_AREA(#475);
#477=SURFACE_SIDE_STYLE('',(#476));
#478=SURFACE_STYLE_USAGE(.BOTH.,#477);
#479=PRESENTATION_STYLE_ASSIGNMENT((#478));
#16=STYLED_ITEM('',(#479),#473);
#480=PRESENTATION_LAYER_ASSIGNMENT('SHELL_212','',(#16,#285,#300,#315,#330,#345,
#359,#373,#388,#402,#416,#430,#444,#457,#471));
#482=LENGTH_MEASURE_WITH_UNIT(LENGTH_MEASURE(2.54E1),#481);
#483=(CONVERSION_BASED_UNIT('INCH',#482)LENGTH_UNIT()NAMED_UNIT(*));
#485=PLANE_ANGLE_MEASURE_WITH_UNIT(PLANE_ANGLE_MEASURE(1.745329251994E-2),#484);
#486=(CONVERSION_BASED_UNIT('DEGREE',#485)NAMED_UNIT(*)PLANE_ANGLE_UNIT());
#488=UNCERTAINTY_MEASURE_WITH_UNIT(LENGTH_MEASURE(5.766914753647E-5),#483,
'closure',
'Maximum model space distance between geometric entities at asserted connectivities');
#490=CARTESIAN_POINT('',(0.E0,0.E0,0.E0));
#491=DIRECTION('',(0.E0,0.E0,1.E0));
#492=DIRECTION('',(1.E0,0.E0,0.E0));
#495=MECHANICAL_DESIGN_GEOMETRIC_PRESENTATION_REPRESENTATION('',(#24,#31,#38,
#45,#52,#59,#66,#73,#80,#87,#94,#101,#108,#115,#123,#131,#138,#145,#153,#160,
#167,#175,#182,#189,#197,#204,#212,#219,#226,#233,#16),#489);
#496=APPLICATION_CONTEXT('automotive design');
#497=APPLICATION_PROTOCOL_DEFINITION('international standard',
'config_control_design',1994,#496);
#498=PRODUCT_DEFINITION_CONTEXT('',#496,'design');
#499=PRODUCT_CONTEXT('',#496,'mechanical');
#500=PRODUCT('CHAMFER4','CHAMFER4','NOT SPECIFIED',(#499));
#501=PRODUCT_DEFINITION_FORMATION_WITH_SPECIFIED_SOURCE('1','LAST_VERSION',#500,
.MADE.);
#509=LENGTH_MEASURE_WITH_UNIT(LENGTH_MEASURE(2.54E1),#508);
#510=(CONVERSION_BASED_UNIT('INCH',#509)LENGTH_UNIT()NAMED_UNIT(*));
#511=DERIVED_UNIT_ELEMENT(#510,2.E0);
#512=AREA_UNIT((#511));
#513=MEASURE_REPRESENTATION_ITEM('surface area measure',AREA_MEASURE(
2.738716062126E2),#512);
#518=LENGTH_MEASURE_WITH_UNIT(LENGTH_MEASURE(2.54E1),#517);
#519=(CONVERSION_BASED_UNIT('INCH',#518)LENGTH_UNIT()NAMED_UNIT(*));
#520=DERIVED_UNIT_ELEMENT(#519,3.E0);
#521=VOLUME_UNIT((#520));
#522=MEASURE_REPRESENTATION_ITEM('volume measure',VOLUME_MEASURE(
1.890184988492E2),#521);
#526=CARTESIAN_POINT('centre point',(5.743442956122E0,1.903027932015E-8,
1.293306708633E1));
#531=LENGTH_MEASURE_WITH_UNIT(LENGTH_MEASURE(2.54E1),#530);
#532=(CONVERSION_BASED_UNIT('INCH',#531)LENGTH_UNIT()NAMED_UNIT(*));
#533=DERIVED_UNIT_ELEMENT(#532,2.E0);
#534=AREA_UNIT((#533));
#535=MEASURE_REPRESENTATION_ITEM('surface area measure',AREA_MEASURE(
2.738716062126E2),#534);
#540=LENGTH_MEASURE_WITH_UNIT(LENGTH_MEASURE(2.54E1),#539);
#541=(CONVERSION_BASED_UNIT('INCH',#540)LENGTH_UNIT()NAMED_UNIT(*));
#542=DERIVED_UNIT_ELEMENT(#541,3.E0);
#543=VOLUME_UNIT((#542));
#544=MEASURE_REPRESENTATION_ITEM('volume measure',VOLUME_MEASURE(
1.890184988492E2),#543);
#548=CARTESIAN_POINT('centre point',(5.743442956122E0,1.903027932015E-8,
1.293306708633E1));
#1=DRAUGHTING_PRE_DEFINED_COLOUR('green');
#2=COLOUR_RGB('',1.1E-2,1.2E-2,1.E0);
#3=COLOUR_RGB('',5.882352941176E-2,5.882352941176E-2,5.882352941176E-2);
#4=COLOUR_RGB('',2.352941176471E-1,2.352941176471E-1,2.352941176471E-1);
#5=COLOUR_RGB('',4.1E-1,2.61589E-1,1.12848E-1);
#6=COLOUR_RGB('',5.04854E-1,1.5455E-2,1.5455E-2);
#7=COLOUR_RGB('',6.35294E-1,6.86275E-1,7.4902E-1);
#8=COLOUR_RGB('',6.40777E-1,6.40777E-1,6.40777E-1);
#9=COLOUR_RGB('',6.69062E-1,6.69903E-1,6.55217E-1);
#10=COLOUR_RGB('',9.21569E-1,7.05882E-1,4.70588E-1);
#11=DRAUGHTING_PRE_DEFINED_COLOUR('red');
#12=DRAUGHTING_PRE_DEFINED_COLOUR('yellow');
#13=COLOUR_RGB('',1.E0,1.E0,5.3E-1);
#14=COLOUR_RGB('',1.E0,1.E0,9.49E-1);
#15=DRAUGHTING_PRE_DEFINED_COLOUR('white');
#120=CIRCLE('',#119,2.362204724409E-2);
#128=CIRCLE('',#127,2.362204724409E-2);
#150=CIRCLE('',#149,2.362204724409E-2);
#172=CIRCLE('',#171,2.362204724409E-2);
#194=CIRCLE('',#193,1.181102362205E-2);
#209=CIRCLE('',#208,1.181102362205E-2);
#275=EDGE_CURVE('',#245,#236,#20,.T.);
#277=EDGE_CURVE('',#253,#245,#28,.T.);
#279=EDGE_CURVE('',#237,#253,#35,.T.);
#281=EDGE_CURVE('',#236,#237,#42,.T.);
#285=ADVANCED_FACE('',(#284),#274,.F.);
#291=EDGE_CURVE('',#243,#247,#70,.T.);
#293=EDGE_CURVE('',#245,#247,#49,.T.);
#296=EDGE_CURVE('',#243,#236,#56,.T.);
#300=ADVANCED_FACE('',(#299),#290,.F.);
#306=EDGE_CURVE('',#255,#240,#63,.T.);
#308=EDGE_CURVE('',#255,#247,#120,.T.);
#311=EDGE_CURVE('',#243,#240,#172,.T.);
#315=ADVANCED_FACE('',(#314),#305,.T.);
#321=EDGE_CURVE('',#265,#259,#98,.T.);
#323=EDGE_CURVE('',#255,#259,#77,.T.);
#326=EDGE_CURVE('',#265,#240,#84,.T.);
#330=ADVANCED_FACE('',(#329),#320,.F.);
#336=EDGE_CURVE('',#261,#263,#91,.T.);
#338=EDGE_CURVE('',#261,#259,#128,.T.);
#341=EDGE_CURVE('',#265,#263,#150,.T.);
#345=ADVANCED_FACE('',(#344),#335,.T.);
#352=EDGE_CURVE('',#261,#253,#105,.T.);
#355=EDGE_CURVE('',#237,#263,#112,.T.);
#359=ADVANCED_FACE('',(#358),#350,.F.);
#373=ADVANCED_FACE('',(#372),#364,.F.);
#379=EDGE_CURVE('',#263,#269,#142,.T.);
#381=EDGE_CURVE('',#269,#250,#230,.T.);
#383=EDGE_CURVE('',#250,#237,#186,.T.);
#388=ADVANCED_FACE('',(#387),#378,.T.);
#394=EDGE_CURVE('',#267,#265,#135,.T.);
#396=EDGE_CURVE('',#267,#269,#194,.T.);
#402=ADVANCED_FACE('',(#401),#393,.T.);
#408=EDGE_CURVE('',#240,#241,#164,.T.);
#410=EDGE_CURVE('',#241,#267,#201,.T.);
#416=ADVANCED_FACE('',(#415),#407,.T.);
#422=EDGE_CURVE('',#257,#243,#157,.T.);
#424=EDGE_CURVE('',#257,#241,#209,.T.);
#430=ADVANCED_FACE('',(#429),#421,.T.);
#438=EDGE_CURVE('',#251,#236,#179,.T.);
#440=EDGE_CURVE('',#251,#257,#216,.T.);
#444=ADVANCED_FACE('',(#443),#435,.T.);
#453=EDGE_CURVE('',#250,#251,#223,.T.);
#457=ADVANCED_FACE('',(#456),#449,.T.);
#471=ADVANCED_FACE('',(#470),#462,.T.);
#472=CLOSED_SHELL('',(#285,#300,#315,#330,#345,#359,#373,#388,#402,#416,#430,
#444,#457,#471));
#473=MANIFOLD_SOLID_BREP('',#472);
#481=(LENGTH_UNIT()NAMED_UNIT(*)SI_UNIT(.MILLI.,.METRE.));
#484=(NAMED_UNIT(*)PLANE_ANGLE_UNIT()SI_UNIT($,.RADIAN.));
#487=(NAMED_UNIT(*)SI_UNIT($,.STERADIAN.)SOLID_ANGLE_UNIT());
#489=(GEOMETRIC_REPRESENTATION_CONTEXT(3)GLOBAL_UNCERTAINTY_ASSIGNED_CONTEXT((
#488))GLOBAL_UNIT_ASSIGNED_CONTEXT((#483,#486,#487))REPRESENTATION_CONTEXT
('ID1','3'));
#493=AXIS2_PLACEMENT_3D('',#490,#491,#492);
#494=ADVANCED_BREP_SHAPE_REPRESENTATION('',(#493,#473),#489);
#502=PRODUCT_DEFINITION('design','',#501,#498);
#503=PRODUCT_DEFINITION_SHAPE('','SHAPE FOR CHAMFER4.',#502);
#504=SHAPE_ASPECT('','solid data associated with CHAMFER4',#503,.F.);
#505=PROPERTY_DEFINITION('',
'shape for solid data with which properties are associated',#504);
#506=SHAPE_REPRESENTATION('',(#473),#489);
#507=SHAPE_DEFINITION_REPRESENTATION(#505,#506);
#508=(LENGTH_UNIT()NAMED_UNIT(*)SI_UNIT(.MILLI.,.METRE.));
#514=PROPERTY_DEFINITION('geometric validation property','area of CHAMFER4',
#504);
#515=REPRESENTATION('surface area',(#513),#489);
#516=PROPERTY_DEFINITION_REPRESENTATION(#514,#515);
#517=(LENGTH_UNIT()NAMED_UNIT(*)SI_UNIT(.MILLI.,.METRE.));
#523=PROPERTY_DEFINITION('geometric validation property','volume of CHAMFER4',
#504);
#524=REPRESENTATION('volume',(#522),#489);
#525=PROPERTY_DEFINITION_REPRESENTATION(#523,#524);
#527=PROPERTY_DEFINITION('geometric validation property','centroid of CHAMFER4',
#504);
#528=REPRESENTATION('centroid',(#526),#489);
#529=PROPERTY_DEFINITION_REPRESENTATION(#527,#528);
#530=(LENGTH_UNIT()NAMED_UNIT(*)SI_UNIT(.MILLI.,.METRE.));
#536=PROPERTY_DEFINITION('geometric validation property','area of CHAMFER4',
#503);
#537=REPRESENTATION('surface area',(#535),#489);
#538=PROPERTY_DEFINITION_REPRESENTATION(#536,#537);
#539=(LENGTH_UNIT()NAMED_UNIT(*)SI_UNIT(.MILLI.,.METRE.));
#545=PROPERTY_DEFINITION('geometric validation property','volume of CHAMFER4',
#503);
#546=REPRESENTATION('volume',(#544),#489);
#547=PROPERTY_DEFINITION_REPRESENTATION(#545,#546);
#549=PROPERTY_DEFINITION('geometric validation property','centroid of CHAMFER4',
#503);
#550=REPRESENTATION('centroid',(#548),#489);
#551=PROPERTY_DEFINITION_REPRESENTATION(#549,#550);
#552=SHAPE_DEFINITION_REPRESENTATION(#503,#494);
ENDSEC;
END-ISO-10303-21;
