ISO-10303-21;
HEADER;
FILE_DESCRIPTION((''),'2;1');
FILE_NAME('CHAMFER5','2026-06-15T13:46:19',('Esia'),(''),
'CREO PARAMETRIC BY PTC INC, 2025102','CREO PARAMETRIC BY PTC INC, 2025102','');
FILE_SCHEMA((
'AP242_MANAGED_MODEL_BASED_3D_ENGINEERING_MIM_LF { 1 0 10303 442 1 1 4 }'));
ENDSEC;
DATA;
#17=DIRECTION('',(0.E0,0.E0,-1.E0));
#18=VECTOR('',#17,2.539370078644E-2);
#19=CARTESIAN_POINT('',(1.175196850371E-1,1.638055186E-2,3.188976377953E-2));
#20=LINE('',#19,#18);
#21=DRAUGHTING_PRE_DEFINED_CURVE_FONT('continuous');
#22=CURVE_STYLE('',#21,POSITIVE_LENGTH_MEASURE(2.E-2),#9);
#23=PRESENTATION_STYLE_ASSIGNMENT((#22));
#24=STYLED_ITEM('',(#23),#20);
#25=DIRECTION('',(0.E0,1.E0,0.E0));
#26=VECTOR('',#25,1.574803149606E-2);
#27=CARTESIAN_POINT('',(1.175196850371E-1,6.325203639366E-4,3.188976377953E-2));
#28=LINE('',#27,#26);
#29=CURVE_STYLE('',#21,POSITIVE_LENGTH_MEASURE(2.E-2),#9);
#30=PRESENTATION_STYLE_ASSIGNMENT((#29));
#31=STYLED_ITEM('',(#30),#28);
#32=DIRECTION('',(0.E0,0.E0,1.E0));
#33=VECTOR('',#32,2.539370078644E-2);
#34=CARTESIAN_POINT('',(1.175196850371E-1,6.325203639366E-4,6.496062993086E-3));
#35=LINE('',#34,#33);
#36=CURVE_STYLE('',#21,POSITIVE_LENGTH_MEASURE(2.E-2),#9);
#37=PRESENTATION_STYLE_ASSIGNMENT((#36));
#38=STYLED_ITEM('',(#37),#35);
#39=DIRECTION('',(0.E0,-1.E0,0.E0));
#40=VECTOR('',#39,1.574803149606E-2);
#41=CARTESIAN_POINT('',(1.175196850371E-1,1.638055186E-2,6.496062993086E-3));
#42=LINE('',#41,#40);
#43=CURVE_STYLE('',#21,POSITIVE_LENGTH_MEASURE(2.E-2),#9);
#44=PRESENTATION_STYLE_ASSIGNMENT((#43));
#45=STYLED_ITEM('',(#44),#42);
#46=DIRECTION('',(-1.E0,0.E0,0.E0));
#47=VECTOR('',#46,1.377952754945E-3);
#48=CARTESIAN_POINT('',(1.175196850371E-1,1.638055186E-2,3.188976377953E-2));
#49=LINE('',#48,#47);
#50=CURVE_STYLE('',#21,POSITIVE_LENGTH_MEASURE(2.E-2),#9);
#51=PRESENTATION_STYLE_ASSIGNMENT((#50));
#52=STYLED_ITEM('',(#51),#49);
#53=DIRECTION('',(7.071067811865E-1,0.E0,-7.071067811865E-1));
#54=VECTOR('',#53,1.948719474353E-3);
#55=CARTESIAN_POINT('',(1.161417322821E-1,1.638055186E-2,7.874015748032E-3));
#56=LINE('',#55,#54);
#57=CURVE_STYLE('',#21,POSITIVE_LENGTH_MEASURE(2.E-2),#9);
#58=PRESENTATION_STYLE_ASSIGNMENT((#57));
#59=STYLED_ITEM('',(#58),#56);
#60=DIRECTION('',(0.E0,1.E0,0.E0));
#61=VECTOR('',#60,2.298952688279E-2);
#62=CARTESIAN_POINT('',(1.161417322821E-1,1.638055186E-2,3.188976377953E-2));
#63=LINE('',#62,#61);
#64=CURVE_STYLE('',#21,POSITIVE_LENGTH_MEASURE(2.E-2),#9);
#65=PRESENTATION_STYLE_ASSIGNMENT((#64));
#66=STYLED_ITEM('',(#65),#63);
#67=DIRECTION('',(0.E0,0.E0,1.E0));
#68=VECTOR('',#67,2.401574803150E-2);
#69=CARTESIAN_POINT('',(1.161417322821E-1,1.638055186E-2,7.874015748032E-3));
#70=LINE('',#69,#68);
#71=CURVE_STYLE('',#21,POSITIVE_LENGTH_MEASURE(2.E-2),#9);
#72=PRESENTATION_STYLE_ASSIGNMENT((#71));
#73=STYLED_ITEM('',(#72),#70);
#74=DIRECTION('',(0.E0,-1.E0,0.E0));
#75=VECTOR('',#74,2.298952688279E-2);
#76=CARTESIAN_POINT('',(1.161417322821E-1,3.937007874279E-2,7.874015748032E-3));
#77=LINE('',#76,#75);
#78=CURVE_STYLE('',#21,POSITIVE_LENGTH_MEASURE(2.E-2),#9);
#79=PRESENTATION_STYLE_ASSIGNMENT((#78));
#80=STYLED_ITEM('',(#79),#77);
#81=DIRECTION('',(0.E0,0.E0,-1.E0));
#82=VECTOR('',#81,2.401574803150E-2);
#83=CARTESIAN_POINT('',(1.102362204711E-1,4.527559055381E-2,3.188976377953E-2));
#84=LINE('',#83,#82);
#85=CURVE_STYLE('',#21,POSITIVE_LENGTH_MEASURE(2.E-2),#9);
#86=PRESENTATION_STYLE_ASSIGNMENT((#85));
#87=STYLED_ITEM('',(#86),#84);
#88=DIRECTION('',(0.E0,0.E0,1.E0));
#89=VECTOR('',#88,2.401574803150E-2);
#90=CARTESIAN_POINT('',(1.161417322821E-1,3.937007874279E-2,7.874015748032E-3));
#91=LINE('',#90,#89);
#92=CURVE_STYLE('',#21,POSITIVE_LENGTH_MEASURE(2.E-2),#9);
#93=PRESENTATION_STYLE_ASSIGNMENT((#92));
#94=STYLED_ITEM('',(#93),#91);
#95=DIRECTION('',(-1.E0,0.E0,0.E0));
#96=VECTOR('',#95,3.574808190811E-2);
#97=CARTESIAN_POINT('',(1.102362204711E-1,4.527559055381E-2,3.188976377953E-2));
#98=LINE('',#97,#96);
#99=CURVE_STYLE('',#21,POSITIVE_LENGTH_MEASURE(2.E-2),#9);
#100=PRESENTATION_STYLE_ASSIGNMENT((#99));
#101=STYLED_ITEM('',(#100),#98);
#102=DIRECTION('',(1.E0,0.E0,0.E0));
#103=VECTOR('',#102,3.574808190811E-2);
#104=CARTESIAN_POINT('',(7.448813856300E-2,4.527559055381E-2,
7.874015748032E-3));
#105=LINE('',#104,#103);
#106=CURVE_STYLE('',#21,POSITIVE_LENGTH_MEASURE(2.E-2),#9);
#107=PRESENTATION_STYLE_ASSIGNMENT((#106));
#108=STYLED_ITEM('',(#107),#105);
#109=DIRECTION('',(0.E0,0.E0,-1.E0));
#110=VECTOR('',#109,2.399541380663E-2);
#111=CARTESIAN_POINT('',(6.613648366709E-2,4.181622182766E-2,
3.186942955466E-2));
#112=LINE('',#111,#110);
#113=CURVE_STYLE('',#21,POSITIVE_LENGTH_MEASURE(2.E-2),#9);
#114=PRESENTATION_STYLE_ASSIGNMENT((#113));
#115=STYLED_ITEM('',(#114),#112);
#116=CARTESIAN_POINT('',(6.795934960552E-2,4.330708661675E-2,
3.187610692456E-2));
#117=CARTESIAN_POINT('',(6.730193837024E-2,4.287100933666E-2,
3.187369875076E-2));
#118=CARTESIAN_POINT('',(6.669431632581E-2,4.237405448639E-2,
3.187147296055E-2));
#119=CARTESIAN_POINT('',(6.613648366709E-2,4.181622182766E-2,
3.186942955466E-2));
#121=CURVE_STYLE('',#21,POSITIVE_LENGTH_MEASURE(2.E-2),#9);
#122=PRESENTATION_STYLE_ASSIGNMENT((#121));
#123=STYLED_ITEM('',(#122),#120);
#124=DIRECTION('',(0.E0,0.E0,-1.E0));
#125=VECTOR('',#124,1.365685496604E-5);
#126=CARTESIAN_POINT('',(6.795934960552E-2,4.330708661675E-2,
3.188976377953E-2));
#127=LINE('',#126,#125);
#128=CURVE_STYLE('',#21,POSITIVE_LENGTH_MEASURE(2.E-2),#9);
#129=PRESENTATION_STYLE_ASSIGNMENT((#128));
#130=STYLED_ITEM('',(#129),#127);
#131=DIRECTION('',(0.E0,0.E0,1.E0));
#132=VECTOR('',#131,2.401574803150E-2);
#133=CARTESIAN_POINT('',(7.448813856300E-2,4.527559055381E-2,
7.874015748032E-3));
#134=LINE('',#133,#132);
#135=CURVE_STYLE('',#21,POSITIVE_LENGTH_MEASURE(2.E-2),#9);
#136=PRESENTATION_STYLE_ASSIGNMENT((#135));
#137=STYLED_ITEM('',(#136),#134);
#138=DIRECTION('',(0.E0,0.E0,1.E0));
#139=VECTOR('',#138,2.929473143689E-5);
#140=CARTESIAN_POINT('',(6.369034058216E-2,3.937007874273E-2,
3.186046904809E-2));
#141=LINE('',#140,#139);
#142=CURVE_STYLE('',#21,POSITIVE_LENGTH_MEASURE(2.E-2),#9);
#143=PRESENTATION_STYLE_ASSIGNMENT((#142));
#144=STYLED_ITEM('',(#143),#141);
#145=DIRECTION('',(7.071067811865E-1,7.071067811865E-1,1.434632720940E-14));
#146=VECTOR('',#145,2.563453151034E-2);
#147=CARTESIAN_POINT('',(4.801013260359E-2,2.368987076416E-2,
7.874015748031E-3));
#148=LINE('',#147,#146);
#149=CURVE_STYLE('',#21,POSITIVE_LENGTH_MEASURE(2.E-2),#9);
#150=PRESENTATION_STYLE_ASSIGNMENT((#149));
#151=STYLED_ITEM('',(#150),#148);
#152=DIRECTION('',(0.E0,0.E0,1.E0));
#153=VECTOR('',#152,2.401574803150E-2);
#154=CARTESIAN_POINT('',(4.801013260359E-2,2.368987076416E-2,
7.874015748031E-3));
#155=LINE('',#154,#153);
#156=CURVE_STYLE('',#21,POSITIVE_LENGTH_MEASURE(2.E-2),#9);
#157=PRESENTATION_STYLE_ASSIGNMENT((#156));
#158=STYLED_ITEM('',(#157),#155);
#159=DIRECTION('',(5.E-1,-5.E-1,7.071067811865E-1));
#160=VECTOR('',#159,1.113553986120E-2);
#161=CARTESIAN_POINT('',(4.244236267298E-2,2.925764069477E-2,0.E0));
#162=LINE('',#161,#160);
#163=CURVE_STYLE('',#21,POSITIVE_LENGTH_MEASURE(2.E-2),#9);
#164=PRESENTATION_STYLE_ASSIGNMENT((#163));
#165=STYLED_ITEM('',(#164),#162);
#166=CARTESIAN_POINT('',(1.082677165340E-1,-6.240231853191E-3,0.E0));
#167=DIRECTION('',(0.E0,0.E0,-1.E0));
#168=DIRECTION('',(1.E0,0.E0,0.E0));
#169=AXIS2_PLACEMENT_3D('',#166,#167,#168);
#171=CURVE_STYLE('',#21,POSITIVE_LENGTH_MEASURE(2.E-2),#9);
#172=PRESENTATION_STYLE_ASSIGNMENT((#171));
#173=STYLED_ITEM('',(#172),#170);
#174=CARTESIAN_POINT('',(1.102362204711E-1,3.937007874279E-2,0.E0));
#175=DIRECTION('',(0.E0,0.E0,-1.E0));
#176=DIRECTION('',(6.106010758759E-12,1.E0,0.E0));
#177=AXIS2_PLACEMENT_3D('',#174,#175,#176);
#179=CURVE_STYLE('',#21,POSITIVE_LENGTH_MEASURE(2.E-2),#9);
#180=PRESENTATION_STYLE_ASSIGNMENT((#179));
#181=STYLED_ITEM('',(#180),#178);
#182=CARTESIAN_POINT('',(7.448813856300E-2,3.346456693176E-2,0.E0));
#183=DIRECTION('',(0.E0,0.E0,-1.E0));
#184=DIRECTION('',(-7.071067811863E-1,7.071067811868E-1,0.E0));
#185=AXIS2_PLACEMENT_3D('',#182,#183,#184);
#187=CURVE_STYLE('',#21,POSITIVE_LENGTH_MEASURE(2.E-2),#9);
#188=PRESENTATION_STYLE_ASSIGNMENT((#187));
#189=STYLED_ITEM('',(#188),#186);
#190=DIRECTION('',(7.071067811865E-1,7.071067811865E-1,0.E0));
#191=VECTOR('',#190,2.563453151035E-2);
#192=CARTESIAN_POINT('',(3.965847770772E-2,3.204152566003E-2,0.E0));
#193=LINE('',#192,#191);
#194=CURVE_STYLE('',#21,POSITIVE_LENGTH_MEASURE(2.E-2),#9);
#195=PRESENTATION_STYLE_ASSIGNMENT((#194));
#196=STYLED_ITEM('',(#195),#193);
#197=DIRECTION('',(-7.071067811866E-1,7.071067811865E-1,0.E0));
#198=VECTOR('',#197,3.937007873965E-3);
#199=CARTESIAN_POINT('',(4.244236267298E-2,2.925764069477E-2,0.E0));
#200=LINE('',#199,#198);
#201=CURVE_STYLE('',#21,POSITIVE_LENGTH_MEASURE(2.E-2),#9);
#202=PRESENTATION_STYLE_ASSIGNMENT((#201));
#203=STYLED_ITEM('',(#202),#200);
#204=DIRECTION('',(-7.071067811865E-1,-7.071067811866E-1,0.E0));
#205=VECTOR('',#204,2.563453151034E-2);
#206=CARTESIAN_POINT('',(6.056871373648E-2,4.738399175827E-2,0.E0));
#207=LINE('',#206,#205);
#208=CURVE_STYLE('',#21,POSITIVE_LENGTH_MEASURE(2.E-2),#9);
#209=PRESENTATION_STYLE_ASSIGNMENT((#208));
#210=STYLED_ITEM('',(#209),#207);
#211=CARTESIAN_POINT('',(7.448813856300E-2,3.346456693176E-2,0.E0));
#212=DIRECTION('',(0.E0,0.E0,1.E0));
#213=DIRECTION('',(0.E0,1.E0,0.E0));
#214=AXIS2_PLACEMENT_3D('',#211,#212,#213);
#216=CURVE_STYLE('',#21,POSITIVE_LENGTH_MEASURE(2.E-2),#9);
#217=PRESENTATION_STYLE_ASSIGNMENT((#216));
#218=STYLED_ITEM('',(#217),#215);
#219=DIRECTION('',(-1.E0,0.E0,0.E0));
#220=VECTOR('',#219,3.574808190811E-2);
#221=CARTESIAN_POINT('',(1.102362204711E-1,5.314960630184E-2,0.E0));
#222=LINE('',#221,#220);
#223=CURVE_STYLE('',#21,POSITIVE_LENGTH_MEASURE(2.E-2),#9);
#224=PRESENTATION_STYLE_ASSIGNMENT((#223));
#225=STYLED_ITEM('',(#224),#222);
#226=CARTESIAN_POINT('',(1.102362204711E-1,3.937007874279E-2,0.E0));
#227=DIRECTION('',(0.E0,0.E0,1.E0));
#228=DIRECTION('',(1.E0,0.E0,0.E0));
#229=AXIS2_PLACEMENT_3D('',#226,#227,#228);
#231=CURVE_STYLE('',#21,POSITIVE_LENGTH_MEASURE(2.E-2),#9);
#232=PRESENTATION_STYLE_ASSIGNMENT((#231));
#233=STYLED_ITEM('',(#232),#230);
#234=DIRECTION('',(0.E0,1.E0,0.E0));
#235=VECTOR('',#234,5.742133421796E-2);
#236=CARTESIAN_POINT('',(1.240157480302E-1,-1.805125547517E-2,0.E0));
#237=LINE('',#236,#235);
#238=CURVE_STYLE('',#21,POSITIVE_LENGTH_MEASURE(2.E-2),#9);
#239=PRESENTATION_STYLE_ASSIGNMENT((#238));
#240=STYLED_ITEM('',(#239),#237);
#241=DIRECTION('',(5.842990026188E-13,4.125505079096E-13,-1.E0));
#242=VECTOR('',#241,2.743260701488E-2);
#243=CARTESIAN_POINT('',(1.195585912655E-1,-2.236527209498E-2,
3.188976377953E-2));
#244=LINE('',#243,#242);
#245=CURVE_STYLE('',#21,POSITIVE_LENGTH_MEASURE(2.E-2),#9);
#246=PRESENTATION_STYLE_ASSIGNMENT((#245));
#247=STYLED_ITEM('',(#246),#244);
#248=DIRECTION('',(0.E0,0.E0,1.E0));
#249=VECTOR('',#248,3.188976377953E-2);
#250=CARTESIAN_POINT('',(1.279527559041E-1,-6.240231853191E-3,0.E0));
#251=LINE('',#250,#249);
#252=CURVE_STYLE('',#21,POSITIVE_LENGTH_MEASURE(2.E-2),#9);
#253=PRESENTATION_STYLE_ASSIGNMENT((#252));
#254=STYLED_ITEM('',(#253),#251);
#255=CARTESIAN_POINT('',(1.195585912658E-1,-2.236527209477E-2,
4.457156764327E-3));
#256=CARTESIAN_POINT('',(1.211898301367E-1,-2.122306634068E-2,
2.825917893431E-3));
#257=CARTESIAN_POINT('',(1.226913321719E-1,-1.981714328622E-2,
1.324415858276E-3));
#258=CARTESIAN_POINT('',(1.240157480302E-1,-1.805125547517E-2,0.E0));
#260=CURVE_STYLE('',#21,POSITIVE_LENGTH_MEASURE(2.E-2),#9);
#261=PRESENTATION_STYLE_ASSIGNMENT((#260));
#262=STYLED_ITEM('',(#261),#259);
#263=DIRECTION('',(6.336872742247E-1,4.437126062796E-1,-6.336872742247E-1));
#264=VECTOR('',#263,3.954598636367E-2);
#265=CARTESIAN_POINT('',(9.449880296018E-2,-3.991232477229E-2,
2.951694506997E-2));
#266=LINE('',#265,#264);
#267=CURVE_STYLE('',#21,POSITIVE_LENGTH_MEASURE(2.E-2),#9);
#268=PRESENTATION_STYLE_ASSIGNMENT((#267));
#269=STYLED_ITEM('',(#268),#266);
#270=DIRECTION('',(1.871568224159E-13,1.345189661115E-13,1.E0));
#271=VECTOR('',#270,2.372818709558E-3);
#272=CARTESIAN_POINT('',(9.449880296018E-2,-3.991232477229E-2,
2.951694506997E-2));
#273=LINE('',#272,#271);
#274=CURVE_STYLE('',#21,POSITIVE_LENGTH_MEASURE(2.E-2),#9);
#275=PRESENTATION_STYLE_ASSIGNMENT((#274));
#276=STYLED_ITEM('',(#275),#273);
#277=DIRECTION('',(4.975428121645E-1,-7.105647754618E-1,-4.975428121643E-1));
#278=VECTOR('',#277,4.769074442532E-3);
#279=CARTESIAN_POINT('',(9.212598425063E-2,-3.652358846187E-2,
3.188976377953E-2));
#280=LINE('',#279,#278);
#281=CURVE_STYLE('',#21,POSITIVE_LENGTH_MEASURE(2.E-2),#9);
#282=PRESENTATION_STYLE_ASSIGNMENT((#281));
#283=STYLED_ITEM('',(#282),#280);
#284=DIRECTION('',(-8.191520442758E-1,-5.735764363699E-1,0.E0));
#285=VECTOR('',#284,2.521886177312E-2);
#286=CARTESIAN_POINT('',(1.127840664264E-1,-1.269024794876E-2,
3.188976377953E-2));
#287=LINE('',#286,#285);
#288=CURVE_STYLE('',#21,POSITIVE_LENGTH_MEASURE(2.E-2),#9);
#289=PRESENTATION_STYLE_ASSIGNMENT((#288));
#290=STYLED_ITEM('',(#289),#287);
#291=CARTESIAN_POINT('',(1.082677165340E-1,-6.240231853191E-3,
3.188976377953E-2));
#292=DIRECTION('',(0.E0,0.E0,-1.E0));
#293=DIRECTION('',(1.E0,-3.216524269600E-14,0.E0));
#294=AXIS2_PLACEMENT_3D('',#291,#292,#293);
#296=CURVE_STYLE('',#21,POSITIVE_LENGTH_MEASURE(2.E-2),#9);
#297=PRESENTATION_STYLE_ASSIGNMENT((#296));
#298=STYLED_ITEM('',(#297),#295);
#299=CARTESIAN_POINT('',(1.102362204711E-1,3.937007874279E-2,
3.188976377953E-2));
#300=DIRECTION('',(0.E0,0.E0,-1.E0));
#301=DIRECTION('',(0.E0,1.E0,0.E0));
#302=AXIS2_PLACEMENT_3D('',#299,#300,#301);
#304=CURVE_STYLE('',#21,POSITIVE_LENGTH_MEASURE(2.E-2),#9);
#305=PRESENTATION_STYLE_ASSIGNMENT((#304));
#306=STYLED_ITEM('',(#305),#303);
#307=CARTESIAN_POINT('',(7.448813856300E-2,3.346456693176E-2,
3.188976377953E-2));
#308=DIRECTION('',(0.E0,0.E0,-1.E0));
#309=DIRECTION('',(-5.527707983991E-1,8.333333333290E-1,0.E0));
#310=AXIS2_PLACEMENT_3D('',#307,#308,#309);
#312=CURVE_STYLE('',#21,POSITIVE_LENGTH_MEASURE(2.E-2),#9);
#313=PRESENTATION_STYLE_ASSIGNMENT((#312));
#314=STYLED_ITEM('',(#313),#311);
#315=DIRECTION('',(1.E0,0.E0,0.E0));
#316=VECTOR('',#315,1.636163915355E-2);
#317=CARTESIAN_POINT('',(5.159771045198E-2,4.330708661675E-2,
3.188976377953E-2));
#318=LINE('',#317,#316);
#319=CURVE_STYLE('',#21,POSITIVE_LENGTH_MEASURE(2.E-2),#9);
#320=PRESENTATION_STYLE_ASSIGNMENT((#319));
#321=STYLED_ITEM('',(#320),#318);
#322=DIRECTION('',(0.E0,1.E0,0.E0));
#323=VECTOR('',#322,3.937007874016E-3);
#324=CARTESIAN_POINT('',(5.159771045198E-2,3.937007874273E-2,
3.188976377953E-2));
#325=LINE('',#324,#323);
#326=CURVE_STYLE('',#21,POSITIVE_LENGTH_MEASURE(2.E-2),#9);
#327=PRESENTATION_STYLE_ASSIGNMENT((#326));
#328=STYLED_ITEM('',(#327),#325);
#329=DIRECTION('',(-1.E0,0.E0,0.E0));
#330=VECTOR('',#329,1.209263013018E-2);
#331=CARTESIAN_POINT('',(6.369034058216E-2,3.937007874273E-2,
3.188976377953E-2));
#332=LINE('',#331,#330);
#333=CURVE_STYLE('',#21,POSITIVE_LENGTH_MEASURE(2.E-2),#9);
#334=PRESENTATION_STYLE_ASSIGNMENT((#333));
#335=STYLED_ITEM('',(#334),#332);
#336=DIRECTION('',(7.071067811865E-1,7.071067811865E-1,0.E0));
#337=VECTOR('',#336,2.217516278412E-2);
#338=CARTESIAN_POINT('',(4.801013260359E-2,2.368987076416E-2,
3.188976377953E-2));
#339=LINE('',#338,#337);
#340=CURVE_STYLE('',#21,POSITIVE_LENGTH_MEASURE(2.E-2),#9);
#341=PRESENTATION_STYLE_ASSIGNMENT((#340));
#342=STYLED_ITEM('',(#341),#339);
#343=DIRECTION('',(7.071067811865E-1,-7.071067811865E-1,0.E0));
#344=VECTOR('',#343,1.181102362200E-2);
#345=CARTESIAN_POINT('',(3.965847770772E-2,3.204152566003E-2,
3.188976377953E-2));
#346=LINE('',#345,#344);
#347=CURVE_STYLE('',#21,POSITIVE_LENGTH_MEASURE(2.E-2),#9);
#348=PRESENTATION_STYLE_ASSIGNMENT((#347));
#349=STYLED_ITEM('',(#348),#346);
#350=DIRECTION('',(-7.071067811865E-1,-7.071067811865E-1,0.E0));
#351=VECTOR('',#350,2.563453151035E-2);
#352=CARTESIAN_POINT('',(5.778482877123E-2,5.016787672354E-2,
3.188976377953E-2));
#353=LINE('',#352,#351);
#354=CURVE_STYLE('',#21,POSITIVE_LENGTH_MEASURE(2.E-2),#9);
#355=PRESENTATION_STYLE_ASSIGNMENT((#354));
#356=STYLED_ITEM('',(#355),#353);
#357=CARTESIAN_POINT('',(7.448813856300E-2,3.346456693176E-2,
3.188976377953E-2));
#358=DIRECTION('',(0.E0,0.E0,1.E0));
#359=DIRECTION('',(-1.938726956755E-14,1.E0,0.E0));
#360=AXIS2_PLACEMENT_3D('',#357,#358,#359);
#362=CURVE_STYLE('',#21,POSITIVE_LENGTH_MEASURE(2.E-2),#9);
#363=PRESENTATION_STYLE_ASSIGNMENT((#362));
#364=STYLED_ITEM('',(#363),#361);
#365=CARTESIAN_POINT('',(1.102362204711E-1,3.937007874279E-2,
3.188976377953E-2));
#366=DIRECTION('',(0.E0,0.E0,1.E0));
#367=DIRECTION('',(1.E0,0.E0,0.E0));
#368=AXIS2_PLACEMENT_3D('',#365,#366,#367);
#370=CURVE_STYLE('',#21,POSITIVE_LENGTH_MEASURE(2.E-2),#9);
#371=PRESENTATION_STYLE_ASSIGNMENT((#370));
#372=STYLED_ITEM('',(#371),#369);
#373=CARTESIAN_POINT('',(1.082677165340E-1,-6.240231853191E-3,
3.188976377953E-2));
#374=DIRECTION('',(0.E0,0.E0,1.E0));
#375=DIRECTION('',(5.735764363723E-1,-8.191520442741E-1,0.E0));
#376=AXIS2_PLACEMENT_3D('',#373,#374,#375);
#378=CURVE_STYLE('',#21,POSITIVE_LENGTH_MEASURE(2.E-2),#9);
#379=PRESENTATION_STYLE_ASSIGNMENT((#378));
#380=STYLED_ITEM('',(#379),#377);
#381=DIRECTION('',(8.191520442891E-1,5.735764363509E-1,0.E0));
#382=VECTOR('',#381,3.059235276285E-2);
#383=CARTESIAN_POINT('',(9.449880296019E-2,-3.991232477229E-2,
3.188976377953E-2));
#384=LINE('',#383,#382);
#385=CURVE_STYLE('',#21,POSITIVE_LENGTH_MEASURE(2.E-2),#9);
#386=PRESENTATION_STYLE_ASSIGNMENT((#385));
#387=STYLED_ITEM('',(#386),#384);
#388=DIRECTION('',(5.735764363510E-1,-8.191520442890E-1,0.E0));
#389=VECTOR('',#388,4.136883175772E-3);
#390=CARTESIAN_POINT('',(9.212598425063E-2,-3.652358846187E-2,
3.188976377953E-2));
#391=LINE('',#390,#389);
#392=CURVE_STYLE('',#21,POSITIVE_LENGTH_MEASURE(2.E-2),#9);
#393=PRESENTATION_STYLE_ASSIGNMENT((#392));
#394=STYLED_ITEM('',(#393),#391);
#395=DIRECTION('',(1.629475009617E-14,-1.E0,0.E0));
#396=VECTOR('',#395,9.368395647985E-3);
#397=CARTESIAN_POINT('',(9.212598425063E-2,-2.715519281389E-2,
3.188976377953E-2));
#398=LINE('',#397,#396);
#399=CURVE_STYLE('',#21,POSITIVE_LENGTH_MEASURE(2.E-2),#9);
#400=PRESENTATION_STYLE_ASSIGNMENT((#399));
#401=STYLED_ITEM('',(#400),#398);
#402=DIRECTION('',(-6.336872742185E-1,-4.437126062971E-1,6.336872742185E-1));
#403=VECTOR('',#402,3.259980595512E-2);
#404=CARTESIAN_POINT('',(1.127840664264E-1,-1.269024794876E-2,
1.123168160377E-2));
#405=LINE('',#404,#403);
#406=CURVE_STYLE('',#21,POSITIVE_LENGTH_MEASURE(2.E-2),#9);
#407=PRESENTATION_STYLE_ASSIGNMENT((#406));
#408=STYLED_ITEM('',(#407),#405);
#409=DIRECTION('',(0.E0,0.E0,-1.E0));
#410=VECTOR('',#409,2.401574803036E-2);
#411=CARTESIAN_POINT('',(1.161417322810E-1,-6.240231853191E-3,
3.188976377953E-2));
#412=LINE('',#411,#410);
#413=CURVE_STYLE('',#21,POSITIVE_LENGTH_MEASURE(2.E-2),#9);
#414=PRESENTATION_STYLE_ASSIGNMENT((#413));
#415=STYLED_ITEM('',(#414),#412);
#416=DIRECTION('',(3.882916760943E-13,2.950815202845E-13,1.E0));
#417=VECTOR('',#416,2.065808217575E-2);
#418=CARTESIAN_POINT('',(1.127840664264E-1,-1.269024794876E-2,
1.123168160377E-2));
#419=LINE('',#418,#417);
#420=CURVE_STYLE('',#21,POSITIVE_LENGTH_MEASURE(2.E-2),#9);
#421=PRESENTATION_STYLE_ASSIGNMENT((#420));
#422=STYLED_ITEM('',(#421),#419);
#423=CARTESIAN_POINT('',(1.161417322810E-1,-6.240231853191E-3,
7.874015749167E-3));
#424=CARTESIAN_POINT('',(1.161417322810E-1,-7.023362658621E-3,
7.874015749167E-3));
#425=CARTESIAN_POINT('',(1.159218296847E-1,-8.396581033277E-3,
8.093918345462E-3));
#426=CARTESIAN_POINT('',(1.152014903280E-1,-1.011361783880E-2,
8.814257702200E-3));
#427=CARTESIAN_POINT('',(1.141661455728E-1,-1.155412465990E-2,
9.849602457332E-3));
#428=CARTESIAN_POINT('',(1.132803264518E-1,-1.234276293800E-2,
1.073542157835E-2));
#429=CARTESIAN_POINT('',(1.127840664264E-1,-1.269024794877E-2,
1.123168160379E-2));
#431=CURVE_STYLE('',#21,POSITIVE_LENGTH_MEASURE(2.E-2),#9);
#432=PRESENTATION_STYLE_ASSIGNMENT((#431));
#433=STYLED_ITEM('',(#432),#430);
#434=DIRECTION('',(0.E0,1.E0,0.E0));
#435=VECTOR('',#434,6.872752217128E-3);
#436=CARTESIAN_POINT('',(1.161417322810E-1,-6.240231853191E-3,
3.188976377953E-2));
#437=LINE('',#436,#435);
#438=CURVE_STYLE('',#21,POSITIVE_LENGTH_MEASURE(2.E-2),#9);
#439=PRESENTATION_STYLE_ASSIGNMENT((#438));
#440=STYLED_ITEM('',(#439),#437);
#441=DIRECTION('',(0.E0,-1.E0,0.E0));
#442=VECTOR('',#441,6.872752217128E-3);
#443=CARTESIAN_POINT('',(1.161417322810E-1,6.325203639366E-4,
7.874015749167E-3));
#444=LINE('',#443,#442);
#445=CURVE_STYLE('',#21,POSITIVE_LENGTH_MEASURE(2.E-2),#9);
#446=PRESENTATION_STYLE_ASSIGNMENT((#445));
#447=STYLED_ITEM('',(#446),#444);
#448=DIRECTION('',(1.E0,0.E0,0.E0));
#449=VECTOR('',#448,1.377952756080E-3);
#450=CARTESIAN_POINT('',(1.161417322810E-1,6.325203639366E-4,
3.188976377953E-2));
#451=LINE('',#450,#449);
#452=CURVE_STYLE('',#21,POSITIVE_LENGTH_MEASURE(2.E-2),#9);
#453=PRESENTATION_STYLE_ASSIGNMENT((#452));
#454=STYLED_ITEM('',(#453),#451);
#455=DIRECTION('',(0.E0,0.E0,1.E0));
#456=VECTOR('',#455,2.401574803036E-2);
#457=CARTESIAN_POINT('',(1.161417322810E-1,6.325203639366E-4,
7.874015749167E-3));
#458=LINE('',#457,#456);
#459=CURVE_STYLE('',#21,POSITIVE_LENGTH_MEASURE(2.E-2),#9);
#460=PRESENTATION_STYLE_ASSIGNMENT((#459));
#461=STYLED_ITEM('',(#460),#458);
#462=DIRECTION('',(-7.071067811866E-1,0.E0,7.071067811865E-1));
#463=VECTOR('',#462,1.948719475958E-3);
#464=CARTESIAN_POINT('',(1.175196850371E-1,6.325203639366E-4,
6.496062993086E-3));
#465=LINE('',#464,#463);
#466=CURVE_STYLE('',#21,POSITIVE_LENGTH_MEASURE(2.E-2),#9);
#467=PRESENTATION_STYLE_ASSIGNMENT((#466));
#468=STYLED_ITEM('',(#467),#465);
#469=DIRECTION('',(0.E0,7.071067811865E-1,-7.071067811865E-1));
#470=VECTOR('',#469,1.113553986121E-2);
#471=CARTESIAN_POINT('',(1.102362204711E-1,4.527559055381E-2,
7.874015748032E-3));
#472=LINE('',#471,#470);
#473=CURVE_STYLE('',#21,POSITIVE_LENGTH_MEASURE(2.E-2),#9);
#474=PRESENTATION_STYLE_ASSIGNMENT((#473));
#475=STYLED_ITEM('',(#474),#472);
#476=CARTESIAN_POINT('',(1.102362204711E-1,3.937007874279E-2,
7.874015748032E-3));
#477=DIRECTION('',(0.E0,0.E0,1.E0));
#478=DIRECTION('',(1.E0,0.E0,0.E0));
#479=AXIS2_PLACEMENT_3D('',#476,#477,#478);
#481=CURVE_STYLE('',#21,POSITIVE_LENGTH_MEASURE(2.E-2),#9);
#482=PRESENTATION_STYLE_ASSIGNMENT((#481));
#483=STYLED_ITEM('',(#482),#480);
#484=DIRECTION('',(-7.071067811865E-1,0.E0,7.071067811865E-1));
#485=VECTOR('',#484,1.113553986121E-2);
#486=CARTESIAN_POINT('',(1.240157480302E-1,3.937007874279E-2,0.E0));
#487=LINE('',#486,#485);
#488=CURVE_STYLE('',#21,POSITIVE_LENGTH_MEASURE(2.E-2),#9);
#489=PRESENTATION_STYLE_ASSIGNMENT((#488));
#490=STYLED_ITEM('',(#489),#487);
#491=DIRECTION('',(-5.E-1,5.E-1,-7.071067811865E-1));
#492=VECTOR('',#491,1.113553986121E-2);
#493=CARTESIAN_POINT('',(6.613648366709E-2,4.181622182766E-2,
7.874015748032E-3));
#494=LINE('',#493,#492);
#495=CURVE_STYLE('',#21,POSITIVE_LENGTH_MEASURE(2.E-2),#9);
#496=PRESENTATION_STYLE_ASSIGNMENT((#495));
#497=STYLED_ITEM('',(#496),#494);
#498=CARTESIAN_POINT('',(7.448813856300E-2,3.346456693176E-2,
7.874015748032E-3));
#499=DIRECTION('',(0.E0,0.E0,1.E0));
#500=DIRECTION('',(0.E0,1.E0,0.E0));
#501=AXIS2_PLACEMENT_3D('',#498,#499,#500);
#503=CURVE_STYLE('',#21,POSITIVE_LENGTH_MEASURE(2.E-2),#9);
#504=PRESENTATION_STYLE_ASSIGNMENT((#503));
#505=STYLED_ITEM('',(#504),#502);
#506=DIRECTION('',(0.E0,-7.071067811865E-1,7.071067811865E-1));
#507=VECTOR('',#506,1.113553986121E-2);
#508=CARTESIAN_POINT('',(7.448813856300E-2,5.314960630184E-2,0.E0));
#509=LINE('',#508,#507);
#510=CURVE_STYLE('',#21,POSITIVE_LENGTH_MEASURE(2.E-2),#9);
#511=PRESENTATION_STYLE_ASSIGNMENT((#510));
#512=STYLED_ITEM('',(#511),#509);
#513=DIRECTION('',(9.999932908571E-1,0.E0,3.663091707820E-3));
#514=VECTOR('',#513,1.636328571363E-2);
#515=CARTESIAN_POINT('',(5.159617367551E-2,4.330708661675E-2,
3.181616670835E-2));
#516=LINE('',#515,#514);
#517=CURVE_STYLE('',#21,POSITIVE_LENGTH_MEASURE(2.E-2),#9);
#518=PRESENTATION_STYLE_ASSIGNMENT((#517));
#519=STYLED_ITEM('',(#518),#516);
#520=DIRECTION('',(7.071044091344E-1,7.071044091344E-1,2.590205675724E-3));
#521=VECTOR('',#520,3.459380331011E-3);
#522=CARTESIAN_POINT('',(6.369034058216E-2,3.937007874273E-2,
3.186046904809E-2));
#523=LINE('',#522,#521);
#524=CURVE_STYLE('',#21,POSITIVE_LENGTH_MEASURE(2.E-2),#9);
#525=PRESENTATION_STYLE_ASSIGNMENT((#524));
#526=STYLED_ITEM('',(#525),#523);
#527=DIRECTION('',(-9.999932908571E-1,0.E0,-3.663091707822E-3));
#528=VECTOR('',#527,1.209424804868E-2);
#529=CARTESIAN_POINT('',(6.369034058216E-2,3.937007874273E-2,
3.186046904809E-2));
#530=LINE('',#529,#528);
#531=CURVE_STYLE('',#21,POSITIVE_LENGTH_MEASURE(2.E-2),#9);
#532=PRESENTATION_STYLE_ASSIGNMENT((#531));
#533=STYLED_ITEM('',(#532),#530);
#534=DIRECTION('',(-2.087639524859E-2,0.E0,-9.997820643127E-1));
#535=VECTOR('',#534,7.361311410096E-5);
#536=CARTESIAN_POINT('',(5.159771045198E-2,3.937007874273E-2,
3.188976377953E-2));
#537=LINE('',#536,#535);
#538=CURVE_STYLE('',#21,POSITIVE_LENGTH_MEASURE(2.E-2),#9);
#539=PRESENTATION_STYLE_ASSIGNMENT((#538));
#540=STYLED_ITEM('',(#539),#537);
#541=DIRECTION('',(2.087639524859E-2,0.E0,9.997820643127E-1));
#542=VECTOR('',#541,7.361311410096E-5);
#543=CARTESIAN_POINT('',(5.159617367551E-2,4.330708661675E-2,
3.181616670835E-2));
#544=LINE('',#543,#542);
#545=CURVE_STYLE('',#21,POSITIVE_LENGTH_MEASURE(2.E-2),#9);
#546=PRESENTATION_STYLE_ASSIGNMENT((#545));
#547=STYLED_ITEM('',(#546),#544);
#548=DIRECTION('',(0.E0,1.E0,0.E0));
#549=VECTOR('',#548,3.937007874016E-3);
#550=CARTESIAN_POINT('',(5.159617367551E-2,3.937007874273E-2,
3.181616670835E-2));
#551=LINE('',#550,#549);
#552=CURVE_STYLE('',#21,POSITIVE_LENGTH_MEASURE(2.E-2),#9);
#553=PRESENTATION_STYLE_ASSIGNMENT((#552));
#554=STYLED_ITEM('',(#553),#551);
#555=DIRECTION('',(0.E0,0.E0,1.E0));
#556=VECTOR('',#555,3.188976377953E-2);
#557=CARTESIAN_POINT('',(3.965847770772E-2,3.204152566003E-2,0.E0));
#558=LINE('',#557,#556);
#559=CURVE_STYLE('',#21,POSITIVE_LENGTH_MEASURE(2.E-2),#9);
#560=PRESENTATION_STYLE_ASSIGNMENT((#559));
#561=STYLED_ITEM('',(#560),#558);
#562=DIRECTION('',(0.E0,0.E0,1.E0));
#563=VECTOR('',#562,3.188976377953E-2);
#564=CARTESIAN_POINT('',(5.778482877123E-2,5.016787672354E-2,0.E0));
#565=LINE('',#564,#563);
#566=CURVE_STYLE('',#21,POSITIVE_LENGTH_MEASURE(2.E-2),#9);
#567=PRESENTATION_STYLE_ASSIGNMENT((#566));
#568=STYLED_ITEM('',(#567),#565);
#569=DIRECTION('',(0.E0,0.E0,-1.E0));
#570=VECTOR('',#569,3.188976377953E-2);
#571=CARTESIAN_POINT('',(7.448813856300E-2,5.708661417581E-2,
3.188976377953E-2));
#572=LINE('',#571,#570);
#573=CURVE_STYLE('',#21,POSITIVE_LENGTH_MEASURE(2.E-2),#9);
#574=PRESENTATION_STYLE_ASSIGNMENT((#573));
#575=STYLED_ITEM('',(#574),#572);
#576=DIRECTION('',(1.E0,0.E0,0.E0));
#577=VECTOR('',#576,3.574808190822E-2);
#578=CARTESIAN_POINT('',(7.448813856300E-2,5.708661417581E-2,
3.188976377953E-2));
#579=LINE('',#578,#577);
#580=CURVE_STYLE('',#21,POSITIVE_LENGTH_MEASURE(2.E-2),#9);
#581=PRESENTATION_STYLE_ASSIGNMENT((#580));
#582=STYLED_ITEM('',(#581),#579);
#583=DIRECTION('',(-1.E0,0.E0,0.E0));
#584=VECTOR('',#583,3.574808190822E-2);
#585=CARTESIAN_POINT('',(1.102362204712E-1,5.708661417581E-2,0.E0));
#586=LINE('',#585,#584);
#587=CURVE_STYLE('',#21,POSITIVE_LENGTH_MEASURE(2.E-2),#9);
#588=PRESENTATION_STYLE_ASSIGNMENT((#587));
#589=STYLED_ITEM('',(#588),#586);
#590=DIRECTION('',(0.E0,0.E0,1.E0));
#591=VECTOR('',#590,3.188976377953E-2);
#592=CARTESIAN_POINT('',(1.102362204712E-1,5.708661417581E-2,0.E0));
#593=LINE('',#592,#591);
#594=CURVE_STYLE('',#21,POSITIVE_LENGTH_MEASURE(2.E-2),#9);
#595=PRESENTATION_STYLE_ASSIGNMENT((#594));
#596=STYLED_ITEM('',(#595),#593);
#597=DIRECTION('',(0.E0,0.E0,-1.E0));
#598=VECTOR('',#597,3.188976377953E-2);
#599=CARTESIAN_POINT('',(1.279527559041E-1,3.937007874279E-2,
3.188976377953E-2));
#600=LINE('',#599,#598);
#601=CURVE_STYLE('',#21,POSITIVE_LENGTH_MEASURE(2.E-2),#9);
#602=PRESENTATION_STYLE_ASSIGNMENT((#601));
#603=STYLED_ITEM('',(#602),#600);
#604=DIRECTION('',(0.E0,-1.E0,0.E0));
#605=VECTOR('',#604,4.561031059598E-2);
#606=CARTESIAN_POINT('',(1.279527559041E-1,3.937007874279E-2,
3.188976377953E-2));
#607=LINE('',#606,#605);
#608=CURVE_STYLE('',#21,POSITIVE_LENGTH_MEASURE(2.E-2),#9);
#609=PRESENTATION_STYLE_ASSIGNMENT((#608));
#610=STYLED_ITEM('',(#609),#607);
#611=DIRECTION('',(0.E0,1.E0,0.E0));
#612=VECTOR('',#611,4.561031059598E-2);
#613=CARTESIAN_POINT('',(1.279527559041E-1,-6.240231853191E-3,0.E0));
#614=LINE('',#613,#612);
#615=CURVE_STYLE('',#21,POSITIVE_LENGTH_MEASURE(2.E-2),#9);
#616=PRESENTATION_STYLE_ASSIGNMENT((#615));
#617=STYLED_ITEM('',(#616),#614);
#618=CARTESIAN_POINT('',(4.801013260359E-2,2.368987076416E-2,
7.874015748031E-3));
#619=CARTESIAN_POINT('',(6.613648366709E-2,4.181622182766E-2,
7.874015748032E-3));
#620=VERTEX_POINT('',#618);
#621=VERTEX_POINT('',#619);
#622=CARTESIAN_POINT('',(6.056871373648E-2,4.738399175827E-2,0.E0));
#623=VERTEX_POINT('',#622);
#624=CARTESIAN_POINT('',(4.244236267298E-2,2.925764069477E-2,0.E0));
#625=VERTEX_POINT('',#624);
#626=CARTESIAN_POINT('',(6.369034058216E-2,3.937007874273E-2,
3.186046904809E-2));
#627=CARTESIAN_POINT('',(5.159617367551E-2,3.937007874273E-2,
3.181616670835E-2));
#628=VERTEX_POINT('',#626);
#629=VERTEX_POINT('',#627);
#630=CARTESIAN_POINT('',(5.159771045198E-2,3.937007874273E-2,
3.188976377953E-2));
#631=VERTEX_POINT('',#630);
#632=CARTESIAN_POINT('',(6.369034058216E-2,3.937007874273E-2,
3.188976377953E-2));
#633=VERTEX_POINT('',#632);
#634=CARTESIAN_POINT('',(5.159617367551E-2,4.330708661675E-2,
3.181616670835E-2));
#635=CARTESIAN_POINT('',(5.159771045198E-2,4.330708661675E-2,
3.188976377953E-2));
#636=VERTEX_POINT('',#634);
#637=VERTEX_POINT('',#635);
#638=CARTESIAN_POINT('',(6.795934960552E-2,4.330708661675E-2,
3.187610692456E-2));
#639=VERTEX_POINT('',#638);
#640=CARTESIAN_POINT('',(6.795934960552E-2,4.330708661675E-2,
3.188976377953E-2));
#641=VERTEX_POINT('',#640);
#642=CARTESIAN_POINT('',(6.613648366709E-2,4.181622182766E-2,
3.186942955466E-2));
#643=VERTEX_POINT('',#642);
#644=CARTESIAN_POINT('',(3.965847770772E-2,3.204152566003E-2,0.E0));
#645=VERTEX_POINT('',#644);
#646=CARTESIAN_POINT('',(1.161417322821E-1,1.638055186E-2,3.188976377953E-2));
#647=CARTESIAN_POINT('',(1.161417322821E-1,3.937007874279E-2,
3.188976377953E-2));
#648=VERTEX_POINT('',#646);
#649=VERTEX_POINT('',#647);
#650=CARTESIAN_POINT('',(1.102362204711E-1,4.527559055381E-2,
3.188976377953E-2));
#651=VERTEX_POINT('',#650);
#652=CARTESIAN_POINT('',(1.175196850371E-1,6.325203639366E-4,
6.496062993086E-3));
#653=CARTESIAN_POINT('',(1.175196850371E-1,6.325203639366E-4,
3.188976377953E-2));
#654=VERTEX_POINT('',#652);
#655=VERTEX_POINT('',#653);
#656=CARTESIAN_POINT('',(7.448813856300E-2,4.527559055381E-2,
3.188976377953E-2));
#657=VERTEX_POINT('',#656);
#658=CARTESIAN_POINT('',(4.801013260359E-2,2.368987076416E-2,
3.188976377953E-2));
#659=VERTEX_POINT('',#658);
#660=CARTESIAN_POINT('',(3.965847770772E-2,3.204152566003E-2,
3.188976377953E-2));
#661=VERTEX_POINT('',#660);
#662=CARTESIAN_POINT('',(5.778482877123E-2,5.016787672354E-2,
3.188976377953E-2));
#663=VERTEX_POINT('',#662);
#664=CARTESIAN_POINT('',(7.448813856300E-2,5.708661417581E-2,
3.188976377953E-2));
#665=VERTEX_POINT('',#664);
#666=CARTESIAN_POINT('',(1.102362204712E-1,5.708661417581E-2,
3.188976377953E-2));
#667=VERTEX_POINT('',#666);
#668=CARTESIAN_POINT('',(1.279527559041E-1,3.937007874279E-2,
3.188976377953E-2));
#669=VERTEX_POINT('',#668);
#670=CARTESIAN_POINT('',(1.279527559041E-1,-6.240231853191E-3,
3.188976377953E-2));
#671=VERTEX_POINT('',#670);
#672=CARTESIAN_POINT('',(1.195585912658E-1,-2.236527209481E-2,
3.188976377953E-2));
#673=VERTEX_POINT('',#672);
#674=CARTESIAN_POINT('',(9.449880296019E-2,-3.991232477229E-2,
3.188976377953E-2));
#675=VERTEX_POINT('',#674);
#676=CARTESIAN_POINT('',(9.212598425063E-2,-3.652358846187E-2,
3.188976377953E-2));
#677=VERTEX_POINT('',#676);
#678=CARTESIAN_POINT('',(1.127840664264E-1,-1.269024794876E-2,
3.188976377953E-2));
#679=CARTESIAN_POINT('',(9.212598425063E-2,-2.715519281389E-2,
3.188976377953E-2));
#680=VERTEX_POINT('',#678);
#681=VERTEX_POINT('',#679);
#682=CARTESIAN_POINT('',(1.161417322810E-1,-6.240231853191E-3,
3.188976377953E-2));
#683=VERTEX_POINT('',#682);
#684=CARTESIAN_POINT('',(1.161417322810E-1,6.325203639366E-4,
3.188976377953E-2));
#685=VERTEX_POINT('',#684);
#686=CARTESIAN_POINT('',(1.175196850371E-1,1.638055186E-2,3.188976377953E-2));
#687=VERTEX_POINT('',#686);
#688=CARTESIAN_POINT('',(5.778482877123E-2,5.016787672354E-2,0.E0));
#689=VERTEX_POINT('',#688);
#690=CARTESIAN_POINT('',(7.448813856300E-2,5.708661417581E-2,0.E0));
#691=VERTEX_POINT('',#690);
#692=CARTESIAN_POINT('',(1.102362204712E-1,5.708661417581E-2,0.E0));
#693=VERTEX_POINT('',#692);
#694=CARTESIAN_POINT('',(1.279527559041E-1,3.937007874279E-2,0.E0));
#695=VERTEX_POINT('',#694);
#696=CARTESIAN_POINT('',(1.279527559041E-1,-6.240231853191E-3,0.E0));
#697=VERTEX_POINT('',#696);
#698=CARTESIAN_POINT('',(1.240157480302E-1,-1.805125547517E-2,0.E0));
#699=VERTEX_POINT('',#698);
#700=CARTESIAN_POINT('',(1.175196850371E-1,1.638055186E-2,6.496062993086E-3));
#701=VERTEX_POINT('',#700);
#702=CARTESIAN_POINT('',(1.161417322810E-1,6.325203639366E-4,
7.874015749167E-3));
#703=VERTEX_POINT('',#702);
#704=CARTESIAN_POINT('',(1.161417322810E-1,-6.240231853191E-3,
7.874015749167E-3));
#705=VERTEX_POINT('',#704);
#706=CARTESIAN_POINT('',(1.127840664264E-1,-1.269024794876E-2,
1.123168160377E-2));
#707=VERTEX_POINT('',#706);
#708=CARTESIAN_POINT('',(9.449880296018E-2,-3.991232477229E-2,
2.951694506997E-2));
#709=VERTEX_POINT('',#708);
#710=CARTESIAN_POINT('',(1.195585912655E-1,-2.236527209497E-2,
4.457156764651E-3));
#711=VERTEX_POINT('',#710);
#712=CARTESIAN_POINT('',(7.448813856300E-2,4.527559055381E-2,
7.874015748032E-3));
#713=VERTEX_POINT('',#712);
#714=CARTESIAN_POINT('',(1.102362204711E-1,4.527559055381E-2,
7.874015748032E-3));
#715=VERTEX_POINT('',#714);
#716=CARTESIAN_POINT('',(1.161417322821E-1,3.937007874279E-2,
7.874015748032E-3));
#717=VERTEX_POINT('',#716);
#718=CARTESIAN_POINT('',(1.161417322821E-1,1.638055186E-2,7.874015748032E-3));
#719=VERTEX_POINT('',#718);
#720=CARTESIAN_POINT('',(7.448813856300E-2,5.314960630184E-2,0.E0));
#721=VERTEX_POINT('',#720);
#722=CARTESIAN_POINT('',(1.102362204711E-1,5.314960630184E-2,0.E0));
#723=VERTEX_POINT('',#722);
#724=CARTESIAN_POINT('',(1.240157480302E-1,3.937007874279E-2,0.E0));
#725=VERTEX_POINT('',#724);
#726=CARTESIAN_POINT('',(1.175196850371E-1,6.325203639366E-4,
1.630563514430E-1));
#727=DIRECTION('',(-1.E0,0.E0,0.E0));
#728=DIRECTION('',(0.E0,0.E0,1.E0));
#729=AXIS2_PLACEMENT_3D('',#726,#727,#728);
#730=PLANE('',#729);
#732=ORIENTED_EDGE('',*,*,#731,.F.);
#734=ORIENTED_EDGE('',*,*,#733,.F.);
#736=ORIENTED_EDGE('',*,*,#735,.F.);
#738=ORIENTED_EDGE('',*,*,#737,.F.);
#739=EDGE_LOOP('',(#732,#734,#736,#738));
#740=FACE_OUTER_BOUND('',#739,.F.);
#742=CARTESIAN_POINT('',(1.175196850371E-1,1.638055186E-2,1.630563514430E-1));
#743=DIRECTION('',(0.E0,-1.E0,0.E0));
#744=DIRECTION('',(0.E0,0.E0,-1.E0));
#745=AXIS2_PLACEMENT_3D('',#742,#743,#744);
#746=PLANE('',#745);
#748=ORIENTED_EDGE('',*,*,#747,.T.);
#750=ORIENTED_EDGE('',*,*,#749,.F.);
#751=ORIENTED_EDGE('',*,*,#731,.T.);
#753=ORIENTED_EDGE('',*,*,#752,.F.);
#754=EDGE_LOOP('',(#748,#750,#751,#753));
#755=FACE_OUTER_BOUND('',#754,.F.);
#757=CARTESIAN_POINT('',(1.161417322821E-1,1.638055186E-2,1.630563514430E-1));
#758=DIRECTION('',(-1.E0,0.E0,0.E0));
#759=DIRECTION('',(0.E0,-1.E0,0.E0));
#760=AXIS2_PLACEMENT_3D('',#757,#758,#759);
#761=PLANE('',#760);
#763=ORIENTED_EDGE('',*,*,#762,.T.);
#765=ORIENTED_EDGE('',*,*,#764,.F.);
#766=ORIENTED_EDGE('',*,*,#747,.F.);
#768=ORIENTED_EDGE('',*,*,#767,.F.);
#769=EDGE_LOOP('',(#763,#765,#766,#768));
#770=FACE_OUTER_BOUND('',#769,.F.);
#772=CARTESIAN_POINT('',(1.102362204711E-1,3.937007874279E-2,
1.630563514430E-1));
#773=DIRECTION('',(0.E0,0.E0,-1.E0));
#774=DIRECTION('',(-1.E0,0.E0,0.E0));
#775=AXIS2_PLACEMENT_3D('',#772,#773,#774);
#776=CYLINDRICAL_SURFACE('',#775,5.905511811016E-3);
#778=ORIENTED_EDGE('',*,*,#777,.F.);
#780=ORIENTED_EDGE('',*,*,#779,.T.);
#781=ORIENTED_EDGE('',*,*,#762,.F.);
#783=ORIENTED_EDGE('',*,*,#782,.T.);
#784=EDGE_LOOP('',(#778,#780,#781,#783));
#785=FACE_OUTER_BOUND('',#784,.F.);
#787=CARTESIAN_POINT('',(1.102362204711E-1,4.527559055381E-2,
1.630563514430E-1));
#788=DIRECTION('',(0.E0,-1.E0,0.E0));
#789=DIRECTION('',(1.E0,0.E0,0.E0));
#790=AXIS2_PLACEMENT_3D('',#787,#788,#789);
#791=PLANE('',#790);
#793=ORIENTED_EDGE('',*,*,#792,.T.);
#795=ORIENTED_EDGE('',*,*,#794,.F.);
#796=ORIENTED_EDGE('',*,*,#777,.T.);
#798=ORIENTED_EDGE('',*,*,#797,.F.);
#799=EDGE_LOOP('',(#793,#795,#796,#798));
#800=FACE_OUTER_BOUND('',#799,.F.);
#802=CARTESIAN_POINT('',(7.448813856300E-2,3.346456693176E-2,
1.630563514430E-1));
#803=DIRECTION('',(0.E0,0.E0,-1.E0));
#804=DIRECTION('',(-1.E0,0.E0,0.E0));
#805=AXIS2_PLACEMENT_3D('',#802,#803,#804);
#806=CYLINDRICAL_SURFACE('',#805,1.181102362205E-2);
#808=ORIENTED_EDGE('',*,*,#807,.F.);
#810=ORIENTED_EDGE('',*,*,#809,.F.);
#812=ORIENTED_EDGE('',*,*,#811,.F.);
#814=ORIENTED_EDGE('',*,*,#813,.T.);
#815=ORIENTED_EDGE('',*,*,#792,.F.);
#817=ORIENTED_EDGE('',*,*,#816,.T.);
#818=EDGE_LOOP('',(#808,#810,#812,#814,#815,#817));
#819=FACE_OUTER_BOUND('',#818,.F.);
#821=CARTESIAN_POINT('',(6.613648366709E-2,4.181622182766E-2,
1.630563514430E-1));
#822=DIRECTION('',(7.071067811865E-1,-7.071067811865E-1,0.E0));
#823=DIRECTION('',(7.071067811865E-1,7.071067811865E-1,0.E0));
#824=AXIS2_PLACEMENT_3D('',#821,#822,#823);
#825=PLANE('',#824);
#827=ORIENTED_EDGE('',*,*,#826,.T.);
#829=ORIENTED_EDGE('',*,*,#828,.T.);
#831=ORIENTED_EDGE('',*,*,#830,.F.);
#833=ORIENTED_EDGE('',*,*,#832,.T.);
#834=ORIENTED_EDGE('',*,*,#807,.T.);
#836=ORIENTED_EDGE('',*,*,#835,.F.);
#837=EDGE_LOOP('',(#827,#829,#831,#833,#834,#836));
#838=FACE_OUTER_BOUND('',#837,.F.);
#840=CARTESIAN_POINT('',(4.801013260359E-2,2.368987076416E-2,
1.630563514430E-1));
#841=DIRECTION('',(-7.071067811865E-1,-7.071067811865E-1,0.E0));
#842=DIRECTION('',(7.071067811865E-1,-7.071067811865E-1,0.E0));
#843=AXIS2_PLACEMENT_3D('',#840,#841,#842);
#844=PLANE('',#843);
#846=ORIENTED_EDGE('',*,*,#845,.T.);
#848=ORIENTED_EDGE('',*,*,#847,.T.);
#850=ORIENTED_EDGE('',*,*,#849,.T.);
#851=ORIENTED_EDGE('',*,*,#826,.F.);
#853=ORIENTED_EDGE('',*,*,#852,.F.);
#854=EDGE_LOOP('',(#846,#848,#850,#851,#853));
#855=FACE_OUTER_BOUND('',#854,.F.);
#857=CARTESIAN_POINT('',(1.102362204711E-1,3.937007874279E-2,0.E0));
#858=DIRECTION('',(0.E0,0.E0,-1.E0));
#859=DIRECTION('',(-1.E0,0.E0,0.E0));
#860=AXIS2_PLACEMENT_3D('',#857,#858,#859);
#861=PLANE('',#860);
#863=ORIENTED_EDGE('',*,*,#862,.F.);
#865=ORIENTED_EDGE('',*,*,#864,.T.);
#867=ORIENTED_EDGE('',*,*,#866,.F.);
#869=ORIENTED_EDGE('',*,*,#868,.T.);
#871=ORIENTED_EDGE('',*,*,#870,.F.);
#873=ORIENTED_EDGE('',*,*,#872,.F.);
#874=ORIENTED_EDGE('',*,*,#845,.F.);
#876=ORIENTED_EDGE('',*,*,#875,.F.);
#878=ORIENTED_EDGE('',*,*,#877,.F.);
#880=ORIENTED_EDGE('',*,*,#879,.F.);
#882=ORIENTED_EDGE('',*,*,#881,.F.);
#884=ORIENTED_EDGE('',*,*,#883,.F.);
#885=EDGE_LOOP('',(#863,#865,#867,#869,#871,#873,#874,#876,#878,#880,#882,
#884));
#886=FACE_OUTER_BOUND('',#885,.F.);
#888=CARTESIAN_POINT('',(1.082677165340E-1,-6.240231853191E-3,
1.630563514430E-1));
#889=DIRECTION('',(0.E0,0.E0,-1.E0));
#890=DIRECTION('',(-1.E0,0.E0,0.E0));
#891=AXIS2_PLACEMENT_3D('',#888,#889,#890);
#892=CYLINDRICAL_SURFACE('',#891,1.968503937008E-2);
#894=ORIENTED_EDGE('',*,*,#893,.F.);
#896=ORIENTED_EDGE('',*,*,#895,.T.);
#898=ORIENTED_EDGE('',*,*,#897,.F.);
#899=ORIENTED_EDGE('',*,*,#862,.T.);
#901=ORIENTED_EDGE('',*,*,#900,.F.);
#902=EDGE_LOOP('',(#894,#896,#898,#899,#901));
#903=FACE_OUTER_BOUND('',#902,.F.);
#905=CARTESIAN_POINT('',(9.933631503275E-2,-3.652506235290E-2,
1.630563514430E-1));
#906=DIRECTION('',(5.735764363512E-1,-8.191520442889E-1,0.E0));
#907=DIRECTION('',(8.191520442889E-1,5.735764363512E-1,0.E0));
#908=AXIS2_PLACEMENT_3D('',#905,#906,#907);
#909=PLANE('',#908);
#911=ORIENTED_EDGE('',*,*,#910,.T.);
#913=ORIENTED_EDGE('',*,*,#912,.T.);
#914=ORIENTED_EDGE('',*,*,#893,.T.);
#916=ORIENTED_EDGE('',*,*,#915,.F.);
#917=EDGE_LOOP('',(#911,#913,#914,#916));
#918=FACE_OUTER_BOUND('',#917,.F.);
#920=CARTESIAN_POINT('',(9.449880296019E-2,-3.991232477229E-2,
1.630563514430E-1));
#921=DIRECTION('',(-8.191520442890E-1,-5.735764363511E-1,0.E0));
#922=DIRECTION('',(5.735764363511E-1,-8.191520442890E-1,0.E0));
#923=AXIS2_PLACEMENT_3D('',#920,#921,#922);
#924=PLANE('',#923);
#926=ORIENTED_EDGE('',*,*,#925,.T.);
#927=ORIENTED_EDGE('',*,*,#910,.F.);
#929=ORIENTED_EDGE('',*,*,#928,.F.);
#930=EDGE_LOOP('',(#926,#927,#929));
#931=FACE_OUTER_BOUND('',#930,.F.);
#933=CARTESIAN_POINT('',(0.E0,0.E0,3.188976377953E-2));
#934=DIRECTION('',(0.E0,0.E0,-1.E0));
#935=DIRECTION('',(-1.E0,0.E0,0.E0));
#936=AXIS2_PLACEMENT_3D('',#933,#934,#935);
#937=PLANE('',#936);
#939=ORIENTED_EDGE('',*,*,#938,.F.);
#941=ORIENTED_EDGE('',*,*,#940,.F.);
#943=ORIENTED_EDGE('',*,*,#942,.T.);
#945=ORIENTED_EDGE('',*,*,#944,.T.);
#946=ORIENTED_EDGE('',*,*,#733,.T.);
#947=ORIENTED_EDGE('',*,*,#749,.T.);
#948=ORIENTED_EDGE('',*,*,#764,.T.);
#949=ORIENTED_EDGE('',*,*,#779,.F.);
#950=ORIENTED_EDGE('',*,*,#794,.T.);
#951=ORIENTED_EDGE('',*,*,#813,.F.);
#953=ORIENTED_EDGE('',*,*,#952,.F.);
#955=ORIENTED_EDGE('',*,*,#954,.F.);
#957=ORIENTED_EDGE('',*,*,#956,.F.);
#958=ORIENTED_EDGE('',*,*,#828,.F.);
#959=ORIENTED_EDGE('',*,*,#849,.F.);
#961=ORIENTED_EDGE('',*,*,#960,.F.);
#963=ORIENTED_EDGE('',*,*,#962,.F.);
#965=ORIENTED_EDGE('',*,*,#964,.T.);
#967=ORIENTED_EDGE('',*,*,#966,.F.);
#969=ORIENTED_EDGE('',*,*,#968,.T.);
#970=ORIENTED_EDGE('',*,*,#895,.F.);
#971=ORIENTED_EDGE('',*,*,#912,.F.);
#972=ORIENTED_EDGE('',*,*,#925,.F.);
#974=ORIENTED_EDGE('',*,*,#973,.F.);
#975=EDGE_LOOP('',(#939,#941,#943,#945,#946,#947,#948,#949,#950,#951,#953,#955,
#957,#958,#959,#961,#963,#965,#967,#969,#970,#971,#972,#974));
#976=FACE_OUTER_BOUND('',#975,.F.);
#978=CARTESIAN_POINT('',(8.772427812119E-2,-3.023730062685E-2,
1.630563514430E-1));
#979=DIRECTION('',(-5.735764363699E-1,8.191520442758E-1,0.E0));
#980=DIRECTION('',(-8.191520442758E-1,-5.735764363699E-1,0.E0));
#981=AXIS2_PLACEMENT_3D('',#978,#979,#980);
#982=PLANE('',#981);
#984=ORIENTED_EDGE('',*,*,#983,.T.);
#985=ORIENTED_EDGE('',*,*,#938,.T.);
#987=ORIENTED_EDGE('',*,*,#986,.F.);
#988=EDGE_LOOP('',(#984,#985,#987));
#989=FACE_OUTER_BOUND('',#988,.F.);
#991=CARTESIAN_POINT('',(1.082677165340E-1,-6.240231853191E-3,
1.630563514430E-1));
#992=DIRECTION('',(0.E0,0.E0,-1.E0));
#993=DIRECTION('',(-1.E0,0.E0,0.E0));
#994=AXIS2_PLACEMENT_3D('',#991,#992,#993);
#995=CYLINDRICAL_SURFACE('',#994,7.874015746945E-3);
#997=ORIENTED_EDGE('',*,*,#996,.F.);
#998=ORIENTED_EDGE('',*,*,#940,.T.);
#999=ORIENTED_EDGE('',*,*,#983,.F.);
#1001=ORIENTED_EDGE('',*,*,#1000,.F.);
#1002=EDGE_LOOP('',(#997,#998,#999,#1001));
#1003=FACE_OUTER_BOUND('',#1002,.F.);
#1005=CARTESIAN_POINT('',(1.161417322810E-1,-6.240231853191E-3,
1.630563514430E-1));
#1006=DIRECTION('',(-1.E0,0.E0,0.E0));
#1007=DIRECTION('',(0.E0,-1.E0,0.E0));
#1008=AXIS2_PLACEMENT_3D('',#1005,#1006,#1007);
#1009=PLANE('',#1008);
#1011=ORIENTED_EDGE('',*,*,#1010,.T.);
#1012=ORIENTED_EDGE('',*,*,#942,.F.);
#1013=ORIENTED_EDGE('',*,*,#996,.T.);
#1015=ORIENTED_EDGE('',*,*,#1014,.F.);
#1016=EDGE_LOOP('',(#1011,#1012,#1013,#1015));
#1017=FACE_OUTER_BOUND('',#1016,.F.);
#1019=CARTESIAN_POINT('',(1.161417322810E-1,6.325203639366E-4,
1.630563514430E-1));
#1020=DIRECTION('',(0.E0,1.E0,0.E0));
#1021=DIRECTION('',(0.E0,0.E0,1.E0));
#1022=AXIS2_PLACEMENT_3D('',#1019,#1020,#1021);
#1023=PLANE('',#1022);
#1024=ORIENTED_EDGE('',*,*,#735,.T.);
#1025=ORIENTED_EDGE('',*,*,#944,.F.);
#1026=ORIENTED_EDGE('',*,*,#1010,.F.);
#1028=ORIENTED_EDGE('',*,*,#1027,.F.);
#1029=EDGE_LOOP('',(#1024,#1025,#1026,#1028));
#1030=FACE_OUTER_BOUND('',#1029,.F.);
#1032=CARTESIAN_POINT('',(1.240157480302E-1,3.937007874279E-2,0.E0));
#1033=DIRECTION('',(7.071067811865E-1,0.E0,7.071067811865E-1));
#1034=DIRECTION('',(0.E0,1.E0,0.E0));
#1035=AXIS2_PLACEMENT_3D('',#1032,#1033,#1034);
#1036=PLANE('',#1035);
#1037=ORIENTED_EDGE('',*,*,#752,.T.);
#1038=ORIENTED_EDGE('',*,*,#737,.T.);
#1039=ORIENTED_EDGE('',*,*,#1027,.T.);
#1040=ORIENTED_EDGE('',*,*,#1014,.T.);
#1041=ORIENTED_EDGE('',*,*,#1000,.T.);
#1042=ORIENTED_EDGE('',*,*,#986,.T.);
#1043=ORIENTED_EDGE('',*,*,#973,.T.);
#1044=ORIENTED_EDGE('',*,*,#928,.T.);
#1045=ORIENTED_EDGE('',*,*,#915,.T.);
#1046=ORIENTED_EDGE('',*,*,#900,.T.);
#1047=ORIENTED_EDGE('',*,*,#883,.T.);
#1049=ORIENTED_EDGE('',*,*,#1048,.T.);
#1050=ORIENTED_EDGE('',*,*,#767,.T.);
#1051=EDGE_LOOP('',(#1037,#1038,#1039,#1040,#1041,#1042,#1043,#1044,#1045,#1046,
#1047,#1049,#1050));
#1052=FACE_OUTER_BOUND('',#1051,.F.);
#1054=CARTESIAN_POINT('',(1.102362204711E-1,3.937007874279E-2,
3.937007874016E-3));
#1055=DIRECTION('',(0.E0,0.E0,-1.E0));
#1056=DIRECTION('',(-1.E0,0.E0,0.E0));
#1057=AXIS2_PLACEMENT_3D('',#1054,#1055,#1056);
#1058=CONICAL_SURFACE('',#1057,9.842519685032E-3,4.5E1);
#1060=ORIENTED_EDGE('',*,*,#1059,.F.);
#1061=ORIENTED_EDGE('',*,*,#782,.F.);
#1062=ORIENTED_EDGE('',*,*,#1048,.F.);
#1063=ORIENTED_EDGE('',*,*,#881,.T.);
#1064=EDGE_LOOP('',(#1060,#1061,#1062,#1063));
#1065=FACE_OUTER_BOUND('',#1064,.F.);
#1067=CARTESIAN_POINT('',(1.102362204711E-1,5.314960630184E-2,0.E0));
#1068=DIRECTION('',(0.E0,7.071067811865E-1,7.071067811865E-1));
#1069=DIRECTION('',(-1.E0,0.E0,0.E0));
#1070=AXIS2_PLACEMENT_3D('',#1067,#1068,#1069);
#1071=PLANE('',#1070);
#1073=ORIENTED_EDGE('',*,*,#1072,.T.);
#1074=ORIENTED_EDGE('',*,*,#797,.T.);
#1075=ORIENTED_EDGE('',*,*,#1059,.T.);
#1076=ORIENTED_EDGE('',*,*,#879,.T.);
#1077=EDGE_LOOP('',(#1073,#1074,#1075,#1076));
#1078=FACE_OUTER_BOUND('',#1077,.F.);
#1080=CARTESIAN_POINT('',(7.448813856300E-2,3.346456693176E-2,
3.937007874016E-3));
#1081=DIRECTION('',(0.E0,0.E0,-1.E0));
#1082=DIRECTION('',(-1.E0,0.E0,0.E0));
#1083=AXIS2_PLACEMENT_3D('',#1080,#1081,#1082);
#1084=CONICAL_SURFACE('',#1083,1.574803149607E-2,4.5E1);
#1086=ORIENTED_EDGE('',*,*,#1085,.F.);
#1087=ORIENTED_EDGE('',*,*,#816,.F.);
#1088=ORIENTED_EDGE('',*,*,#1072,.F.);
#1089=ORIENTED_EDGE('',*,*,#877,.T.);
#1090=EDGE_LOOP('',(#1086,#1087,#1088,#1089));
#1091=FACE_OUTER_BOUND('',#1090,.F.);
#1093=CARTESIAN_POINT('',(8.139551059606E-2,6.821078861784E-2,0.E0));
#1094=DIRECTION('',(-5.E-1,5.E-1,7.071067811865E-1));
#1095=DIRECTION('',(-7.071067811865E-1,-7.071067811865E-1,0.E0));
#1096=AXIS2_PLACEMENT_3D('',#1093,#1094,#1095);
#1097=PLANE('',#1096);
#1098=ORIENTED_EDGE('',*,*,#852,.T.);
#1099=ORIENTED_EDGE('',*,*,#835,.T.);
#1100=ORIENTED_EDGE('',*,*,#1085,.T.);
#1101=ORIENTED_EDGE('',*,*,#875,.T.);
#1102=EDGE_LOOP('',(#1098,#1099,#1100,#1101));
#1103=FACE_OUTER_BOUND('',#1102,.F.);
#1105=CARTESIAN_POINT('',(0.E0,4.330708661675E-2,0.E0));
#1106=DIRECTION('',(0.E0,-1.E0,0.E0));
#1107=DIRECTION('',(0.E0,0.E0,-1.E0));
#1108=AXIS2_PLACEMENT_3D('',#1105,#1106,#1107);
#1109=PLANE('',#1108);
#1110=ORIENTED_EDGE('',*,*,#952,.T.);
#1111=ORIENTED_EDGE('',*,*,#811,.T.);
#1113=ORIENTED_EDGE('',*,*,#1112,.F.);
#1115=ORIENTED_EDGE('',*,*,#1114,.T.);
#1116=EDGE_LOOP('',(#1110,#1111,#1113,#1115));
#1117=FACE_OUTER_BOUND('',#1116,.F.);
#1119=CARTESIAN_POINT('',(7.168755638535E-2,3.937007874273E-2,
3.188976377953E-2));
#1120=DIRECTION('',(3.663091707821E-3,0.E0,-9.999932908571E-1));
#1121=DIRECTION('',(-9.999932908571E-1,0.E0,-3.663091707821E-3));
#1122=AXIS2_PLACEMENT_3D('',#1119,#1120,#1121);
#1123=PLANE('',#1122);
#1124=ORIENTED_EDGE('',*,*,#832,.F.);
#1126=ORIENTED_EDGE('',*,*,#1125,.T.);
#1128=ORIENTED_EDGE('',*,*,#1127,.T.);
#1129=ORIENTED_EDGE('',*,*,#1112,.T.);
#1130=ORIENTED_EDGE('',*,*,#809,.T.);
#1131=EDGE_LOOP('',(#1124,#1126,#1128,#1129,#1130));
#1132=FACE_OUTER_BOUND('',#1131,.F.);
#1134=CARTESIAN_POINT('',(0.E0,3.937007874273E-2,0.E0));
#1135=DIRECTION('',(0.E0,-1.E0,0.E0));
#1136=DIRECTION('',(0.E0,0.E0,-1.E0));
#1137=AXIS2_PLACEMENT_3D('',#1134,#1135,#1136);
#1138=PLANE('',#1137);
#1139=ORIENTED_EDGE('',*,*,#830,.T.);
#1140=ORIENTED_EDGE('',*,*,#956,.T.);
#1142=ORIENTED_EDGE('',*,*,#1141,.T.);
#1143=ORIENTED_EDGE('',*,*,#1125,.F.);
#1144=EDGE_LOOP('',(#1139,#1140,#1142,#1143));
#1145=FACE_OUTER_BOUND('',#1144,.F.);
#1147=CARTESIAN_POINT('',(5.159617367551E-2,3.937007874273E-2,
3.181616670835E-2));
#1148=DIRECTION('',(-9.997820643127E-1,0.E0,2.087639524869E-2));
#1149=DIRECTION('',(2.087639524869E-2,0.E0,9.997820643127E-1));
#1150=AXIS2_PLACEMENT_3D('',#1147,#1148,#1149);
#1151=PLANE('',#1150);
#1152=ORIENTED_EDGE('',*,*,#1141,.F.);
#1153=ORIENTED_EDGE('',*,*,#954,.T.);
#1154=ORIENTED_EDGE('',*,*,#1114,.F.);
#1155=ORIENTED_EDGE('',*,*,#1127,.F.);
#1156=EDGE_LOOP('',(#1152,#1153,#1154,#1155));
#1157=FACE_OUTER_BOUND('',#1156,.F.);
#1159=CARTESIAN_POINT('',(4.383430515568E-2,3.621735310799E-2,
1.630563514430E-1));
#1160=DIRECTION('',(-7.071067811865E-1,7.071067811865E-1,0.E0));
#1161=DIRECTION('',(-7.071067811865E-1,-7.071067811865E-1,0.E0));
#1162=AXIS2_PLACEMENT_3D('',#1159,#1160,#1161);
#1163=PLANE('',#1162);
#1164=ORIENTED_EDGE('',*,*,#960,.T.);
#1165=ORIENTED_EDGE('',*,*,#847,.F.);
#1166=ORIENTED_EDGE('',*,*,#872,.T.);
#1168=ORIENTED_EDGE('',*,*,#1167,.T.);
#1169=EDGE_LOOP('',(#1164,#1165,#1166,#1168));
#1170=FACE_OUTER_BOUND('',#1169,.F.);
#1172=CARTESIAN_POINT('',(7.448813856300E-2,3.346456693176E-2,
1.630563514430E-1));
#1173=DIRECTION('',(0.E0,0.E0,-1.E0));
#1174=DIRECTION('',(-1.E0,0.E0,0.E0));
#1175=AXIS2_PLACEMENT_3D('',#1172,#1173,#1174);
#1176=CYLINDRICAL_SURFACE('',#1175,2.362204724405E-2);
#1177=ORIENTED_EDGE('',*,*,#962,.T.);
#1178=ORIENTED_EDGE('',*,*,#1167,.F.);
#1179=ORIENTED_EDGE('',*,*,#870,.T.);
#1181=ORIENTED_EDGE('',*,*,#1180,.F.);
#1182=EDGE_LOOP('',(#1177,#1178,#1179,#1181));
#1183=FACE_OUTER_BOUND('',#1182,.F.);
#1185=CARTESIAN_POINT('',(7.448813856300E-2,5.708661417581E-2,
1.630563514430E-1));
#1186=DIRECTION('',(0.E0,1.E0,0.E0));
#1187=DIRECTION('',(-1.E0,0.E0,0.E0));
#1188=AXIS2_PLACEMENT_3D('',#1185,#1186,#1187);
#1189=PLANE('',#1188);
#1190=ORIENTED_EDGE('',*,*,#964,.F.);
#1191=ORIENTED_EDGE('',*,*,#1180,.T.);
#1192=ORIENTED_EDGE('',*,*,#868,.F.);
#1194=ORIENTED_EDGE('',*,*,#1193,.T.);
#1195=EDGE_LOOP('',(#1190,#1191,#1192,#1194));
#1196=FACE_OUTER_BOUND('',#1195,.F.);
#1198=CARTESIAN_POINT('',(1.102362204711E-1,3.937007874279E-2,
1.630563514430E-1));
#1199=DIRECTION('',(0.E0,0.E0,-1.E0));
#1200=DIRECTION('',(-1.E0,0.E0,0.E0));
#1201=AXIS2_PLACEMENT_3D('',#1198,#1199,#1200);
#1202=CYLINDRICAL_SURFACE('',#1201,1.771653543301E-2);
#1203=ORIENTED_EDGE('',*,*,#966,.T.);
#1204=ORIENTED_EDGE('',*,*,#1193,.F.);
#1205=ORIENTED_EDGE('',*,*,#866,.T.);
#1207=ORIENTED_EDGE('',*,*,#1206,.F.);
#1208=EDGE_LOOP('',(#1203,#1204,#1205,#1207));
#1209=FACE_OUTER_BOUND('',#1208,.F.);
#1211=CARTESIAN_POINT('',(1.279527559041E-1,3.937007874279E-2,
1.630563514430E-1));
#1212=DIRECTION('',(1.E0,0.E0,0.E0));
#1213=DIRECTION('',(0.E0,0.E0,-1.E0));
#1214=AXIS2_PLACEMENT_3D('',#1211,#1212,#1213);
#1215=PLANE('',#1214);
#1216=ORIENTED_EDGE('',*,*,#968,.F.);
#1217=ORIENTED_EDGE('',*,*,#1206,.T.);
#1218=ORIENTED_EDGE('',*,*,#864,.F.);
#1219=ORIENTED_EDGE('',*,*,#897,.T.);
#1220=EDGE_LOOP('',(#1216,#1217,#1218,#1219));
#1221=FACE_OUTER_BOUND('',#1220,.F.);
#1225=FILL_AREA_STYLE_COLOUR('',#9);
#1226=FILL_AREA_STYLE('',(#1225));
#1227=SURFACE_STYLE_FILL_AREA(#1226);
#1228=SURFACE_SIDE_STYLE('',(#1227));
#1229=SURFACE_STYLE_USAGE(.BOTH.,#1228);
#1230=PRESENTATION_STYLE_ASSIGNMENT((#1229));
#16=STYLED_ITEM('',(#1230),#1224);
#1231=PRESENTATION_LAYER_ASSIGNMENT('SHELL_292','',(#16,#741,#756,#771,#786,
#801,#820,#839,#856,#887,#904,#919,#932,#977,#990,#1004,#1018,#1031,#1053,#1066,
#1079,#1092,#1104,#1118,#1133,#1146,#1158,#1171,#1184,#1197,#1210,#1222));
#1233=LENGTH_MEASURE_WITH_UNIT(LENGTH_MEASURE(2.54E1),#1232);
#1234=(CONVERSION_BASED_UNIT('INCH',#1233)LENGTH_UNIT()NAMED_UNIT(*));
#1236=PLANE_ANGLE_MEASURE_WITH_UNIT(PLANE_ANGLE_MEASURE(1.745329251994E-2),
#1235);
#1237=(CONVERSION_BASED_UNIT('DEGREE',#1236)NAMED_UNIT(*)PLANE_ANGLE_UNIT());
#1239=UNCERTAINTY_MEASURE_WITH_UNIT(LENGTH_MEASURE(6.828427483012E-6),#1234,
'closure',
'Maximum model space distance between geometric entities at asserted connectivities');
#1241=CARTESIAN_POINT('',(0.E0,0.E0,0.E0));
#1242=DIRECTION('',(0.E0,0.E0,1.E0));
#1243=DIRECTION('',(1.E0,0.E0,0.E0));
#1246=MECHANICAL_DESIGN_GEOMETRIC_PRESENTATION_REPRESENTATION('',(#24,#31,#38,
#45,#52,#59,#66,#73,#80,#87,#94,#101,#108,#115,#123,#130,#137,#144,#151,#158,
#165,#173,#181,#189,#196,#203,#210,#218,#225,#233,#240,#247,#254,#262,#269,#276,
#283,#290,#298,#306,#314,#321,#328,#335,#342,#349,#356,#364,#372,#380,#387,#394,
#401,#408,#415,#422,#433,#440,#447,#454,#461,#468,#475,#483,#490,#497,#505,#512,
#519,#526,#533,#540,#547,#554,#561,#568,#575,#582,#589,#596,#603,#610,#617,#16),
#1240);
#1247=APPLICATION_CONTEXT('automotive design');
#1248=APPLICATION_PROTOCOL_DEFINITION('international standard',
'config_control_design',1994,#1247);
#1249=PRODUCT_DEFINITION_CONTEXT('',#1247,'design');
#1250=PRODUCT_CONTEXT('',#1247,'mechanical');
#1251=PRODUCT('CHAMFER5','CHAMFER5','NOT SPECIFIED',(#1250));
#1252=PRODUCT_DEFINITION_FORMATION_WITH_SPECIFIED_SOURCE('1','LAST_VERSION',
#1251,.MADE.);
#1260=LENGTH_MEASURE_WITH_UNIT(LENGTH_MEASURE(2.54E1),#1259);
#1261=(CONVERSION_BASED_UNIT('INCH',#1260)LENGTH_UNIT()NAMED_UNIT(*));
#1262=DERIVED_UNIT_ELEMENT(#1261,2.E0);
#1263=AREA_UNIT((#1262));
#1264=MEASURE_REPRESENTATION_ITEM('surface area measure',AREA_MEASURE(
9.480551723710E0),#1263);
#1269=LENGTH_MEASURE_WITH_UNIT(LENGTH_MEASURE(2.54E1),#1268);
#1270=(CONVERSION_BASED_UNIT('INCH',#1269)LENGTH_UNIT()NAMED_UNIT(*));
#1271=DERIVED_UNIT_ELEMENT(#1270,3.E0);
#1272=VOLUME_UNIT((#1271));
#1273=MEASURE_REPRESENTATION_ITEM('volume measure',VOLUME_MEASURE(
9.261559041662E-1),#1272);
#1277=CARTESIAN_POINT('centre point',(2.504605155142E0,7.304909662403E-1,
4.466024351546E-1));
#1282=LENGTH_MEASURE_WITH_UNIT(LENGTH_MEASURE(2.54E1),#1281);
#1283=(CONVERSION_BASED_UNIT('INCH',#1282)LENGTH_UNIT()NAMED_UNIT(*));
#1284=DERIVED_UNIT_ELEMENT(#1283,2.E0);
#1285=AREA_UNIT((#1284));
#1286=MEASURE_REPRESENTATION_ITEM('surface area measure',AREA_MEASURE(
9.480551723710E0),#1285);
#1291=LENGTH_MEASURE_WITH_UNIT(LENGTH_MEASURE(2.54E1),#1290);
#1292=(CONVERSION_BASED_UNIT('INCH',#1291)LENGTH_UNIT()NAMED_UNIT(*));
#1293=DERIVED_UNIT_ELEMENT(#1292,3.E0);
#1294=VOLUME_UNIT((#1293));
#1295=MEASURE_REPRESENTATION_ITEM('volume measure',VOLUME_MEASURE(
9.261559041662E-1),#1294);
#1299=CARTESIAN_POINT('centre point',(2.504605155142E0,7.304909662403E-1,
4.466024351546E-1));
#1=DRAUGHTING_PRE_DEFINED_COLOUR('green');
#2=COLOUR_RGB('',1.1E-2,1.2E-2,1.E0);
#3=COLOUR_RGB('',2.352941176471E-1,2.352941176471E-1,2.352941176471E-1);
#4=COLOUR_RGB('',4.1E-1,2.61589E-1,1.12848E-1);
#5=COLOUR_RGB('',5.04854E-1,1.5455E-2,1.5455E-2);
#6=COLOUR_RGB('',6.35294E-1,6.86275E-1,7.4902E-1);
#7=COLOUR_RGB('',6.40777E-1,6.40777E-1,6.40777E-1);
#8=COLOUR_RGB('',6.69062E-1,6.69903E-1,6.55217E-1);
#9=COLOUR_RGB('',8.274509803922E-1,8.274509803922E-1,8.196078431373E-1);
#10=COLOUR_RGB('',9.21569E-1,7.05882E-1,4.70588E-1);
#11=DRAUGHTING_PRE_DEFINED_COLOUR('red');
#12=DRAUGHTING_PRE_DEFINED_COLOUR('yellow');
#13=COLOUR_RGB('',1.E0,1.E0,5.3E-1);
#14=COLOUR_RGB('',1.E0,1.E0,9.49E-1);
#15=DRAUGHTING_PRE_DEFINED_COLOUR('white');
#120=B_SPLINE_CURVE_WITH_KNOTS('',3,(#116,#117,#118,#119),.UNSPECIFIED.,.F.,.F.,
(4,4),(0.E0,1.E0),.UNSPECIFIED.);
#170=CIRCLE('',#169,1.968503937008E-2);
#178=CIRCLE('',#177,1.771653543301E-2);
#186=CIRCLE('',#185,2.362204724405E-2);
#215=CIRCLE('',#214,1.968503937008E-2);
#230=CIRCLE('',#229,1.377952755905E-2);
#259=B_SPLINE_CURVE_WITH_KNOTS('',3,(#255,#256,#257,#258),.UNSPECIFIED.,.F.,.F.,
(4,4),(0.E0,1.E0),.UNSPECIFIED.);
#295=CIRCLE('',#294,7.874015746945E-3);
#303=CIRCLE('',#302,5.905511811016E-3);
#311=CIRCLE('',#310,1.181102362205E-2);
#361=CIRCLE('',#360,2.362204724405E-2);
#369=CIRCLE('',#368,1.771653543301E-2);
#377=CIRCLE('',#376,1.968503937008E-2);
#430=B_SPLINE_CURVE_WITH_KNOTS('',3,(#423,#424,#425,#426,#427,#428,#429),
.UNSPECIFIED.,.F.,.F.,(4,1,1,1,4),(0.E0,2.5E-1,5.E-1,7.5E-1,1.E0),
.UNSPECIFIED.);
#480=CIRCLE('',#479,5.905511811016E-3);
#502=CIRCLE('',#501,1.181102362205E-2);
#731=EDGE_CURVE('',#687,#701,#20,.T.);
#733=EDGE_CURVE('',#655,#687,#28,.T.);
#735=EDGE_CURVE('',#654,#655,#35,.T.);
#737=EDGE_CURVE('',#701,#654,#42,.T.);
#741=ADVANCED_FACE('',(#740),#730,.T.);
#747=EDGE_CURVE('',#719,#648,#70,.T.);
#749=EDGE_CURVE('',#687,#648,#49,.T.);
#752=EDGE_CURVE('',#719,#701,#56,.T.);
#756=ADVANCED_FACE('',(#755),#746,.T.);
#762=EDGE_CURVE('',#717,#649,#91,.T.);
#764=EDGE_CURVE('',#648,#649,#63,.T.);
#767=EDGE_CURVE('',#717,#719,#77,.T.);
#771=ADVANCED_FACE('',(#770),#761,.T.);
#777=EDGE_CURVE('',#651,#715,#84,.T.);
#779=EDGE_CURVE('',#651,#649,#303,.T.);
#782=EDGE_CURVE('',#717,#715,#480,.T.);
#786=ADVANCED_FACE('',(#785),#776,.F.);
#792=EDGE_CURVE('',#713,#657,#134,.T.);
#794=EDGE_CURVE('',#651,#657,#98,.T.);
#797=EDGE_CURVE('',#713,#715,#105,.T.);
#801=ADVANCED_FACE('',(#800),#791,.T.);
#807=EDGE_CURVE('',#643,#621,#112,.T.);
#809=EDGE_CURVE('',#639,#643,#120,.T.);
#811=EDGE_CURVE('',#641,#639,#127,.T.);
#813=EDGE_CURVE('',#641,#657,#311,.T.);
#816=EDGE_CURVE('',#713,#621,#502,.T.);
#820=ADVANCED_FACE('',(#819),#806,.F.);
#826=EDGE_CURVE('',#620,#659,#155,.T.);
#828=EDGE_CURVE('',#659,#633,#339,.T.);
#830=EDGE_CURVE('',#628,#633,#141,.T.);
#832=EDGE_CURVE('',#628,#643,#523,.T.);
#835=EDGE_CURVE('',#620,#621,#148,.T.);
#839=ADVANCED_FACE('',(#838),#825,.T.);
#845=EDGE_CURVE('',#625,#645,#200,.T.);
#847=EDGE_CURVE('',#645,#661,#558,.T.);
#849=EDGE_CURVE('',#661,#659,#346,.T.);
#852=EDGE_CURVE('',#625,#620,#162,.T.);
#856=ADVANCED_FACE('',(#855),#844,.T.);
#862=EDGE_CURVE('',#697,#699,#170,.T.);
#864=EDGE_CURVE('',#697,#695,#614,.T.);
#866=EDGE_CURVE('',#693,#695,#178,.T.);
#868=EDGE_CURVE('',#693,#691,#586,.T.);
#870=EDGE_CURVE('',#689,#691,#186,.T.);
#872=EDGE_CURVE('',#645,#689,#193,.T.);
#875=EDGE_CURVE('',#623,#625,#207,.T.);
#877=EDGE_CURVE('',#721,#623,#215,.T.);
#879=EDGE_CURVE('',#723,#721,#222,.T.);
#881=EDGE_CURVE('',#725,#723,#230,.T.);
#883=EDGE_CURVE('',#699,#725,#237,.T.);
#887=ADVANCED_FACE('',(#886),#861,.T.);
#893=EDGE_CURVE('',#673,#711,#244,.T.);
#895=EDGE_CURVE('',#673,#671,#377,.T.);
#897=EDGE_CURVE('',#697,#671,#251,.T.);
#900=EDGE_CURVE('',#711,#699,#259,.T.);
#904=ADVANCED_FACE('',(#903),#892,.T.);
#910=EDGE_CURVE('',#709,#675,#273,.T.);
#912=EDGE_CURVE('',#675,#673,#384,.T.);
#915=EDGE_CURVE('',#709,#711,#266,.T.);
#919=ADVANCED_FACE('',(#918),#909,.T.);
#925=EDGE_CURVE('',#677,#675,#391,.T.);
#928=EDGE_CURVE('',#677,#709,#280,.T.);
#932=ADVANCED_FACE('',(#931),#924,.T.);
#938=EDGE_CURVE('',#680,#681,#287,.T.);
#940=EDGE_CURVE('',#683,#680,#295,.T.);
#942=EDGE_CURVE('',#683,#685,#437,.T.);
#944=EDGE_CURVE('',#685,#655,#451,.T.);
#952=EDGE_CURVE('',#637,#641,#318,.T.);
#954=EDGE_CURVE('',#631,#637,#325,.T.);
#956=EDGE_CURVE('',#633,#631,#332,.T.);
#960=EDGE_CURVE('',#663,#661,#353,.T.);
#962=EDGE_CURVE('',#665,#663,#361,.T.);
#964=EDGE_CURVE('',#665,#667,#579,.T.);
#966=EDGE_CURVE('',#669,#667,#369,.T.);
#968=EDGE_CURVE('',#669,#671,#607,.T.);
#973=EDGE_CURVE('',#681,#677,#398,.T.);
#977=ADVANCED_FACE('',(#976),#937,.F.);
#983=EDGE_CURVE('',#707,#680,#419,.T.);
#986=EDGE_CURVE('',#707,#681,#405,.T.);
#990=ADVANCED_FACE('',(#989),#982,.T.);
#996=EDGE_CURVE('',#683,#705,#412,.T.);
#1000=EDGE_CURVE('',#705,#707,#430,.T.);
#1004=ADVANCED_FACE('',(#1003),#995,.F.);
#1010=EDGE_CURVE('',#703,#685,#458,.T.);
#1014=EDGE_CURVE('',#703,#705,#444,.T.);
#1018=ADVANCED_FACE('',(#1017),#1009,.T.);
#1027=EDGE_CURVE('',#654,#703,#465,.T.);
#1031=ADVANCED_FACE('',(#1030),#1023,.T.);
#1048=EDGE_CURVE('',#725,#717,#487,.T.);
#1053=ADVANCED_FACE('',(#1052),#1036,.F.);
#1059=EDGE_CURVE('',#715,#723,#472,.T.);
#1066=ADVANCED_FACE('',(#1065),#1058,.F.);
#1072=EDGE_CURVE('',#721,#713,#509,.T.);
#1079=ADVANCED_FACE('',(#1078),#1071,.F.);
#1085=EDGE_CURVE('',#621,#623,#494,.T.);
#1092=ADVANCED_FACE('',(#1091),#1084,.F.);
#1104=ADVANCED_FACE('',(#1103),#1097,.F.);
#1112=EDGE_CURVE('',#636,#639,#516,.T.);
#1114=EDGE_CURVE('',#636,#637,#544,.T.);
#1118=ADVANCED_FACE('',(#1117),#1109,.T.);
#1125=EDGE_CURVE('',#628,#629,#530,.T.);
#1127=EDGE_CURVE('',#629,#636,#551,.T.);
#1133=ADVANCED_FACE('',(#1132),#1123,.F.);
#1141=EDGE_CURVE('',#631,#629,#537,.T.);
#1146=ADVANCED_FACE('',(#1145),#1138,.F.);
#1158=ADVANCED_FACE('',(#1157),#1151,.F.);
#1167=EDGE_CURVE('',#689,#663,#565,.T.);
#1171=ADVANCED_FACE('',(#1170),#1163,.T.);
#1180=EDGE_CURVE('',#665,#691,#572,.T.);
#1184=ADVANCED_FACE('',(#1183),#1176,.T.);
#1193=EDGE_CURVE('',#693,#667,#593,.T.);
#1197=ADVANCED_FACE('',(#1196),#1189,.T.);
#1206=EDGE_CURVE('',#669,#695,#600,.T.);
#1210=ADVANCED_FACE('',(#1209),#1202,.T.);
#1222=ADVANCED_FACE('',(#1221),#1215,.T.);
#1223=CLOSED_SHELL('',(#741,#756,#771,#786,#801,#820,#839,#856,#887,#904,#919,
#932,#977,#990,#1004,#1018,#1031,#1053,#1066,#1079,#1092,#1104,#1118,#1133,
#1146,#1158,#1171,#1184,#1197,#1210,#1222));
#1224=MANIFOLD_SOLID_BREP('',#1223);
#1232=(LENGTH_UNIT()NAMED_UNIT(*)SI_UNIT(.MILLI.,.METRE.));
#1235=(NAMED_UNIT(*)PLANE_ANGLE_UNIT()SI_UNIT($,.RADIAN.));
#1238=(NAMED_UNIT(*)SI_UNIT($,.STERADIAN.)SOLID_ANGLE_UNIT());
#1240=(GEOMETRIC_REPRESENTATION_CONTEXT(3)GLOBAL_UNCERTAINTY_ASSIGNED_CONTEXT((
#1239))GLOBAL_UNIT_ASSIGNED_CONTEXT((#1234,#1237,#1238))REPRESENTATION_CONTEXT(
'ID1','3'));
#1244=AXIS2_PLACEMENT_3D('',#1241,#1242,#1243);
#1245=ADVANCED_BREP_SHAPE_REPRESENTATION('',(#1244,#1224),#1240);
#1253=PRODUCT_DEFINITION('design','',#1252,#1249);
#1254=PRODUCT_DEFINITION_SHAPE('','SHAPE FOR CHAMFER5.',#1253);
#1255=SHAPE_ASPECT('','solid data associated with CHAMFER5',#1254,.F.);
#1256=PROPERTY_DEFINITION('',
'shape for solid data with which properties are associated',#1255);
#1257=SHAPE_REPRESENTATION('',(#1224),#1240);
#1258=SHAPE_DEFINITION_REPRESENTATION(#1256,#1257);
#1259=(LENGTH_UNIT()NAMED_UNIT(*)SI_UNIT(.MILLI.,.METRE.));
#1265=PROPERTY_DEFINITION('geometric validation property','area of CHAMFER5',
#1255);
#1266=REPRESENTATION('surface area',(#1264),#1240);
#1267=PROPERTY_DEFINITION_REPRESENTATION(#1265,#1266);
#1268=(LENGTH_UNIT()NAMED_UNIT(*)SI_UNIT(.MILLI.,.METRE.));
#1274=PROPERTY_DEFINITION('geometric validation property','volume of CHAMFER5',
#1255);
#1275=REPRESENTATION('volume',(#1273),#1240);
#1276=PROPERTY_DEFINITION_REPRESENTATION(#1274,#1275);
#1278=PROPERTY_DEFINITION('geometric validation property',
'centroid of CHAMFER5',#1255);
#1279=REPRESENTATION('centroid',(#1277),#1240);
#1280=PROPERTY_DEFINITION_REPRESENTATION(#1278,#1279);
#1281=(LENGTH_UNIT()NAMED_UNIT(*)SI_UNIT(.MILLI.,.METRE.));
#1287=PROPERTY_DEFINITION('geometric validation property','area of CHAMFER5',
#1254);
#1288=REPRESENTATION('surface area',(#1286),#1240);
#1289=PROPERTY_DEFINITION_REPRESENTATION(#1287,#1288);
#1290=(LENGTH_UNIT()NAMED_UNIT(*)SI_UNIT(.MILLI.,.METRE.));
#1296=PROPERTY_DEFINITION('geometric validation property','volume of CHAMFER5',
#1254);
#1297=REPRESENTATION('volume',(#1295),#1240);
#1298=PROPERTY_DEFINITION_REPRESENTATION(#1296,#1297);
#1300=PROPERTY_DEFINITION('geometric validation property',
'centroid of CHAMFER5',#1254);
#1301=REPRESENTATION('centroid',(#1299),#1240);
#1302=PROPERTY_DEFINITION_REPRESENTATION(#1300,#1301);
#1303=SHAPE_DEFINITION_REPRESENTATION(#1254,#1245);
ENDSEC;
END-ISO-10303-21;
