ISO-10303-21;
HEADER;
FILE_DESCRIPTION((''),'2;1');
FILE_NAME('CIRPATTERN12200','2026-06-15T13:46:41',('Esia'),(''),
'CREO PARAMETRIC BY PTC INC, 2025102','CREO PARAMETRIC BY PTC INC, 2025102','');
FILE_SCHEMA((
'AP242_MANAGED_MODEL_BASED_3D_ENGINEERING_MIM_LF { 1 0 10303 442 1 1 4 }'));
ENDSEC;
DATA;
#17=DIRECTION('',(1.644980448153E-14,-1.E0,0.E0));
#18=VECTOR('',#17,5.905511811024E-3);
#19=CARTESIAN_POINT('',(1.181102362205E-1,7.283464566929E-2,0.E0));
#20=LINE('',#19,#18);
#21=DRAUGHTING_PRE_DEFINED_CURVE_FONT('continuous');
#22=CURVE_STYLE('',#21,POSITIVE_LENGTH_MEASURE(2.E-2),#9);
#23=PRESENTATION_STYLE_ASSIGNMENT((#22));
#24=STYLED_ITEM('',(#23),#20);
#25=DIRECTION('',(0.E0,0.E0,-1.E0));
#26=VECTOR('',#25,3.937007874016E-3);
#27=CARTESIAN_POINT('',(1.181102362205E-1,7.283464566929E-2,3.937007874016E-3));
#28=LINE('',#27,#26);
#29=CURVE_STYLE('',#21,POSITIVE_LENGTH_MEASURE(2.E-2),#9);
#30=PRESENTATION_STYLE_ASSIGNMENT((#29));
#31=STYLED_ITEM('',(#30),#28);
#32=DIRECTION('',(-1.644980448153E-14,1.E0,0.E0));
#33=VECTOR('',#32,5.905511811024E-3);
#34=CARTESIAN_POINT('',(1.181102362205E-1,6.692913385827E-2,3.937007874016E-3));
#35=LINE('',#34,#33);
#36=CURVE_STYLE('',#21,POSITIVE_LENGTH_MEASURE(2.E-2),#9);
#37=PRESENTATION_STYLE_ASSIGNMENT((#36));
#38=STYLED_ITEM('',(#37),#35);
#39=DIRECTION('',(0.E0,0.E0,1.E0));
#40=VECTOR('',#39,3.937007874016E-3);
#41=CARTESIAN_POINT('',(1.181102362205E-1,6.692913385827E-2,0.E0));
#42=LINE('',#41,#40);
#43=CURVE_STYLE('',#21,POSITIVE_LENGTH_MEASURE(2.E-2),#9);
#44=PRESENTATION_STYLE_ASSIGNMENT((#43));
#45=STYLED_ITEM('',(#44),#42);
#46=DIRECTION('',(1.E0,0.E0,0.E0));
#47=VECTOR('',#46,9.448818897638E-3);
#48=CARTESIAN_POINT('',(1.181102362205E-1,6.692913385827E-2,0.E0));
#49=LINE('',#48,#47);
#50=CURVE_STYLE('',#21,POSITIVE_LENGTH_MEASURE(2.E-2),#9);
#51=PRESENTATION_STYLE_ASSIGNMENT((#50));
#52=STYLED_ITEM('',(#51),#49);
#53=DIRECTION('',(-1.E0,0.E0,0.E0));
#54=VECTOR('',#53,9.448818897638E-3);
#55=CARTESIAN_POINT('',(1.275590551181E-1,6.692913385827E-2,3.937007874016E-3));
#56=LINE('',#55,#54);
#57=CURVE_STYLE('',#21,POSITIVE_LENGTH_MEASURE(2.E-2),#9);
#58=PRESENTATION_STYLE_ASSIGNMENT((#57));
#59=STYLED_ITEM('',(#58),#56);
#60=DIRECTION('',(0.E0,0.E0,1.E0));
#61=VECTOR('',#60,3.937007874016E-3);
#62=CARTESIAN_POINT('',(1.275590551181E-1,6.692913385827E-2,0.E0));
#63=LINE('',#62,#61);
#64=CURVE_STYLE('',#21,POSITIVE_LENGTH_MEASURE(2.E-2),#9);
#65=PRESENTATION_STYLE_ASSIGNMENT((#64));
#66=STYLED_ITEM('',(#65),#63);
#67=DIRECTION('',(-1.E0,0.E0,0.E0));
#68=VECTOR('',#67,9.448818897638E-3);
#69=CARTESIAN_POINT('',(1.275590551181E-1,7.283464566929E-2,0.E0));
#70=LINE('',#69,#68);
#71=CURVE_STYLE('',#21,POSITIVE_LENGTH_MEASURE(2.E-2),#9);
#72=PRESENTATION_STYLE_ASSIGNMENT((#71));
#73=STYLED_ITEM('',(#72),#70);
#74=DIRECTION('',(1.E0,0.E0,0.E0));
#75=VECTOR('',#74,9.448818897638E-3);
#76=CARTESIAN_POINT('',(1.181102362205E-1,7.283464566929E-2,3.937007874016E-3));
#77=LINE('',#76,#75);
#78=CURVE_STYLE('',#21,POSITIVE_LENGTH_MEASURE(2.E-2),#9);
#79=PRESENTATION_STYLE_ASSIGNMENT((#78));
#80=STYLED_ITEM('',(#79),#77);
#81=DIRECTION('',(-1.409983241274E-14,1.E0,0.E0));
#82=VECTOR('',#81,5.905511811024E-3);
#83=CARTESIAN_POINT('',(1.275590551181E-1,6.692913385827E-2,0.E0));
#84=LINE('',#83,#82);
#85=CURVE_STYLE('',#21,POSITIVE_LENGTH_MEASURE(2.E-2),#9);
#86=PRESENTATION_STYLE_ASSIGNMENT((#85));
#87=STYLED_ITEM('',(#86),#84);
#88=DIRECTION('',(1.409983241274E-14,-1.E0,0.E0));
#89=VECTOR('',#88,5.905511811024E-3);
#90=CARTESIAN_POINT('',(1.275590551181E-1,7.283464566929E-2,3.937007874016E-3));
#91=LINE('',#90,#89);
#92=CURVE_STYLE('',#21,POSITIVE_LENGTH_MEASURE(2.E-2),#9);
#93=PRESENTATION_STYLE_ASSIGNMENT((#92));
#94=STYLED_ITEM('',(#93),#91);
#95=DIRECTION('',(0.E0,0.E0,1.E0));
#96=VECTOR('',#95,3.937007874016E-3);
#97=CARTESIAN_POINT('',(1.275590551181E-1,7.283464566929E-2,0.E0));
#98=LINE('',#97,#96);
#99=CURVE_STYLE('',#21,POSITIVE_LENGTH_MEASURE(2.E-2),#9);
#100=PRESENTATION_STYLE_ASSIGNMENT((#99));
#101=STYLED_ITEM('',(#100),#98);
#102=CARTESIAN_POINT('',(1.181102362205E-1,6.692913385827E-2,0.E0));
#103=CARTESIAN_POINT('',(1.181102362205E-1,6.692913385827E-2,
3.937007874016E-3));
#104=VERTEX_POINT('',#102);
#105=VERTEX_POINT('',#103);
#106=CARTESIAN_POINT('',(1.181102362205E-1,7.283464566929E-2,
3.937007874016E-3));
#107=CARTESIAN_POINT('',(1.181102362205E-1,7.283464566929E-2,0.E0));
#108=VERTEX_POINT('',#106);
#109=VERTEX_POINT('',#107);
#110=CARTESIAN_POINT('',(1.275590551181E-1,6.692913385827E-2,0.E0));
#111=CARTESIAN_POINT('',(1.275590551181E-1,6.692913385827E-2,
3.937007874016E-3));
#112=VERTEX_POINT('',#110);
#113=VERTEX_POINT('',#111);
#114=CARTESIAN_POINT('',(1.275590551181E-1,7.283464566929E-2,0.E0));
#115=CARTESIAN_POINT('',(1.275590551181E-1,7.283464566929E-2,
3.937007874016E-3));
#116=VERTEX_POINT('',#114);
#117=VERTEX_POINT('',#115);
#118=CARTESIAN_POINT('',(1.181102362205E-1,7.283464566929E-2,
3.937007874016E-3));
#119=DIRECTION('',(-1.E0,0.E0,0.E0));
#120=DIRECTION('',(0.E0,0.E0,1.E0));
#121=AXIS2_PLACEMENT_3D('',#118,#119,#120);
#122=PLANE('',#121);
#124=ORIENTED_EDGE('',*,*,#123,.F.);
#126=ORIENTED_EDGE('',*,*,#125,.F.);
#128=ORIENTED_EDGE('',*,*,#127,.F.);
#130=ORIENTED_EDGE('',*,*,#129,.F.);
#131=EDGE_LOOP('',(#124,#126,#128,#130));
#132=FACE_OUTER_BOUND('',#131,.F.);
#134=FILL_AREA_STYLE_COLOUR('',#15);
#135=FILL_AREA_STYLE('',(#134));
#136=SURFACE_STYLE_FILL_AREA(#135);
#137=SURFACE_SIDE_STYLE('',(#136));
#138=SURFACE_STYLE_USAGE(.BOTH.,#137);
#139=PRESENTATION_STYLE_ASSIGNMENT((#138));
#140=OVER_RIDING_STYLED_ITEM('',(#139),#133,#16);
#141=CARTESIAN_POINT('',(0.E0,1.377952755906E-1,0.E0));
#142=DIRECTION('',(0.E0,0.E0,1.E0));
#143=DIRECTION('',(0.E0,1.E0,0.E0));
#144=AXIS2_PLACEMENT_3D('',#141,#142,#143);
#145=PLANE('',#144);
#146=ORIENTED_EDGE('',*,*,#123,.T.);
#148=ORIENTED_EDGE('',*,*,#147,.T.);
#150=ORIENTED_EDGE('',*,*,#149,.T.);
#152=ORIENTED_EDGE('',*,*,#151,.T.);
#153=EDGE_LOOP('',(#146,#148,#150,#152));
#154=FACE_OUTER_BOUND('',#153,.F.);
#156=FILL_AREA_STYLE_COLOUR('',#15);
#157=FILL_AREA_STYLE('',(#156));
#158=SURFACE_STYLE_FILL_AREA(#157);
#159=SURFACE_SIDE_STYLE('',(#158));
#160=SURFACE_STYLE_USAGE(.BOTH.,#159);
#161=PRESENTATION_STYLE_ASSIGNMENT((#160));
#162=OVER_RIDING_STYLED_ITEM('',(#161),#155,#16);
#163=CARTESIAN_POINT('',(1.181102362205E-1,6.692913385827E-2,
3.937007874016E-3));
#164=DIRECTION('',(0.E0,-1.E0,0.E0));
#165=DIRECTION('',(0.E0,0.E0,1.E0));
#166=AXIS2_PLACEMENT_3D('',#163,#164,#165);
#167=PLANE('',#166);
#168=ORIENTED_EDGE('',*,*,#147,.F.);
#169=ORIENTED_EDGE('',*,*,#129,.T.);
#171=ORIENTED_EDGE('',*,*,#170,.F.);
#173=ORIENTED_EDGE('',*,*,#172,.F.);
#174=EDGE_LOOP('',(#168,#169,#171,#173));
#175=FACE_OUTER_BOUND('',#174,.F.);
#177=FILL_AREA_STYLE_COLOUR('',#15);
#178=FILL_AREA_STYLE('',(#177));
#179=SURFACE_STYLE_FILL_AREA(#178);
#180=SURFACE_SIDE_STYLE('',(#179));
#181=SURFACE_STYLE_USAGE(.BOTH.,#180);
#182=PRESENTATION_STYLE_ASSIGNMENT((#181));
#183=OVER_RIDING_STYLED_ITEM('',(#182),#176,#16);
#184=CARTESIAN_POINT('',(0.E0,1.377952755906E-1,3.937007874016E-3));
#185=DIRECTION('',(0.E0,0.E0,1.E0));
#186=DIRECTION('',(0.E0,1.E0,0.E0));
#187=AXIS2_PLACEMENT_3D('',#184,#185,#186);
#188=PLANE('',#187);
#189=ORIENTED_EDGE('',*,*,#127,.T.);
#191=ORIENTED_EDGE('',*,*,#190,.T.);
#193=ORIENTED_EDGE('',*,*,#192,.T.);
#194=ORIENTED_EDGE('',*,*,#170,.T.);
#195=EDGE_LOOP('',(#189,#191,#193,#194));
#196=FACE_OUTER_BOUND('',#195,.F.);
#198=FILL_AREA_STYLE_COLOUR('',#15);
#199=FILL_AREA_STYLE('',(#198));
#200=SURFACE_STYLE_FILL_AREA(#199);
#201=SURFACE_SIDE_STYLE('',(#200));
#202=SURFACE_STYLE_USAGE(.BOTH.,#201);
#203=PRESENTATION_STYLE_ASSIGNMENT((#202));
#204=OVER_RIDING_STYLED_ITEM('',(#203),#197,#16);
#205=CARTESIAN_POINT('',(1.275590551181E-1,7.283464566929E-2,
3.937007874016E-3));
#206=DIRECTION('',(0.E0,1.E0,0.E0));
#207=DIRECTION('',(0.E0,0.E0,-1.E0));
#208=AXIS2_PLACEMENT_3D('',#205,#206,#207);
#209=PLANE('',#208);
#210=ORIENTED_EDGE('',*,*,#151,.F.);
#212=ORIENTED_EDGE('',*,*,#211,.T.);
#213=ORIENTED_EDGE('',*,*,#190,.F.);
#214=ORIENTED_EDGE('',*,*,#125,.T.);
#215=EDGE_LOOP('',(#210,#212,#213,#214));
#216=FACE_OUTER_BOUND('',#215,.F.);
#218=FILL_AREA_STYLE_COLOUR('',#15);
#219=FILL_AREA_STYLE('',(#218));
#220=SURFACE_STYLE_FILL_AREA(#219);
#221=SURFACE_SIDE_STYLE('',(#220));
#222=SURFACE_STYLE_USAGE(.BOTH.,#221);
#223=PRESENTATION_STYLE_ASSIGNMENT((#222));
#224=OVER_RIDING_STYLED_ITEM('',(#223),#217,#16);
#225=CARTESIAN_POINT('',(1.275590551181E-1,6.692913385827E-2,
3.937007874016E-3));
#226=DIRECTION('',(1.E0,0.E0,0.E0));
#227=DIRECTION('',(0.E0,1.E0,0.E0));
#228=AXIS2_PLACEMENT_3D('',#225,#226,#227);
#229=PLANE('',#228);
#230=ORIENTED_EDGE('',*,*,#149,.F.);
#231=ORIENTED_EDGE('',*,*,#172,.T.);
#232=ORIENTED_EDGE('',*,*,#192,.F.);
#233=ORIENTED_EDGE('',*,*,#211,.F.);
#234=EDGE_LOOP('',(#230,#231,#232,#233));
#235=FACE_OUTER_BOUND('',#234,.F.);
#237=FILL_AREA_STYLE_COLOUR('',#15);
#238=FILL_AREA_STYLE('',(#237));
#239=SURFACE_STYLE_FILL_AREA(#238);
#240=SURFACE_SIDE_STYLE('',(#239));
#241=SURFACE_STYLE_USAGE(.BOTH.,#240);
#242=PRESENTATION_STYLE_ASSIGNMENT((#241));
#243=OVER_RIDING_STYLED_ITEM('',(#242),#236,#16);
#246=FILL_AREA_STYLE_COLOUR('',#9);
#247=FILL_AREA_STYLE('',(#246));
#248=SURFACE_STYLE_FILL_AREA(#247);
#249=SURFACE_SIDE_STYLE('',(#248));
#250=SURFACE_STYLE_USAGE(.BOTH.,#249);
#251=PRESENTATION_STYLE_ASSIGNMENT((#250));
#16=STYLED_ITEM('',(#251),#245);
#252=PRESENTATION_LAYER_ASSIGNMENT('SHELL_382','',(#16,#133,#155,#176,#197,#217,
#236));
#254=LENGTH_MEASURE_WITH_UNIT(LENGTH_MEASURE(2.54E1),#253);
#255=(CONVERSION_BASED_UNIT('INCH',#254)LENGTH_UNIT()NAMED_UNIT(*));
#257=PLANE_ANGLE_MEASURE_WITH_UNIT(PLANE_ANGLE_MEASURE(1.745329251994E-2),#256);
#258=(CONVERSION_BASED_UNIT('DEGREE',#257)NAMED_UNIT(*)PLANE_ANGLE_UNIT());
#260=UNCERTAINTY_MEASURE_WITH_UNIT(LENGTH_MEASURE(1.181711077682E-6),#255,
'closure',
'Maximum model space distance between geometric entities at asserted connectivities');
#262=CARTESIAN_POINT('',(0.E0,0.E0,0.E0));
#263=DIRECTION('',(0.E0,0.E0,1.E0));
#264=DIRECTION('',(1.E0,0.E0,0.E0));
#267=MECHANICAL_DESIGN_GEOMETRIC_PRESENTATION_REPRESENTATION('',(#24,#31,#38,
#45,#52,#59,#66,#73,#80,#87,#94,#101,#140,#162,#183,#204,#224,#243,#16),#261);
#268=APPLICATION_CONTEXT('automotive design');
#269=APPLICATION_PROTOCOL_DEFINITION('international standard',
'config_control_design',1994,#268);
#270=PRODUCT_DEFINITION_CONTEXT('',#268,'design');
#271=PRODUCT_CONTEXT('',#268,'mechanical');
#272=PRODUCT('CIRPATTERN12200','CIRPATTERN12200','NOT SPECIFIED',(#271));
#273=PRODUCT_DEFINITION_FORMATION_WITH_SPECIFIED_SOURCE('1','LAST_VERSION',#272,
.MADE.);
#281=LENGTH_MEASURE_WITH_UNIT(LENGTH_MEASURE(2.54E1),#280);
#282=(CONVERSION_BASED_UNIT('INCH',#281)LENGTH_UNIT()NAMED_UNIT(*));
#283=DERIVED_UNIT_ELEMENT(#282,2.E0);
#284=AREA_UNIT((#283));
#285=MEASURE_REPRESENTATION_ITEM('surface area measure',AREA_MEASURE(1.5E-1),
#284);
#290=LENGTH_MEASURE_WITH_UNIT(LENGTH_MEASURE(2.54E1),#289);
#291=(CONVERSION_BASED_UNIT('INCH',#290)LENGTH_UNIT()NAMED_UNIT(*));
#292=DERIVED_UNIT_ELEMENT(#291,3.E0);
#293=VOLUME_UNIT((#292));
#294=MEASURE_REPRESENTATION_ITEM('volume measure',VOLUME_MEASURE(3.6E-3),#293);
#298=CARTESIAN_POINT('centre point',(3.12E0,1.775E0,5.E-2));
#303=LENGTH_MEASURE_WITH_UNIT(LENGTH_MEASURE(2.54E1),#302);
#304=(CONVERSION_BASED_UNIT('INCH',#303)LENGTH_UNIT()NAMED_UNIT(*));
#305=DERIVED_UNIT_ELEMENT(#304,2.E0);
#306=AREA_UNIT((#305));
#307=MEASURE_REPRESENTATION_ITEM('surface area measure',AREA_MEASURE(1.5E-1),
#306);
#312=LENGTH_MEASURE_WITH_UNIT(LENGTH_MEASURE(2.54E1),#311);
#313=(CONVERSION_BASED_UNIT('INCH',#312)LENGTH_UNIT()NAMED_UNIT(*));
#314=DERIVED_UNIT_ELEMENT(#313,3.E0);
#315=VOLUME_UNIT((#314));
#316=MEASURE_REPRESENTATION_ITEM('volume measure',VOLUME_MEASURE(3.6E-3),#315);
#320=CARTESIAN_POINT('centre point',(3.12E0,1.775E0,5.E-2));
#1=DRAUGHTING_PRE_DEFINED_COLOUR('green');
#2=COLOUR_RGB('',1.1E-2,1.2E-2,1.E0);
#3=COLOUR_RGB('',2.352941176471E-1,2.352941176471E-1,2.352941176471E-1);
#4=COLOUR_RGB('',4.1E-1,2.61589E-1,1.12848E-1);
#5=COLOUR_RGB('',5.04854E-1,1.5455E-2,1.5455E-2);
#6=COLOUR_RGB('',6.35294E-1,6.86275E-1,7.4902E-1);
#7=COLOUR_RGB('',6.40777E-1,6.40777E-1,6.40777E-1);
#8=COLOUR_RGB('',6.69062E-1,6.69903E-1,6.55217E-1);
#9=COLOUR_RGB('',7.921568627451E-1,8.196078431373E-1,9.333333333333E-1);
#10=COLOUR_RGB('',9.21569E-1,7.05882E-1,4.70588E-1);
#11=DRAUGHTING_PRE_DEFINED_COLOUR('red');
#12=DRAUGHTING_PRE_DEFINED_COLOUR('yellow');
#13=COLOUR_RGB('',1.E0,1.E0,5.3E-1);
#14=COLOUR_RGB('',1.E0,1.E0,9.49E-1);
#15=DRAUGHTING_PRE_DEFINED_COLOUR('white');
#123=EDGE_CURVE('',#109,#104,#20,.T.);
#125=EDGE_CURVE('',#108,#109,#28,.T.);
#127=EDGE_CURVE('',#105,#108,#35,.T.);
#129=EDGE_CURVE('',#104,#105,#42,.T.);
#133=ADVANCED_FACE('',(#132),#122,.T.);
#147=EDGE_CURVE('',#104,#112,#49,.T.);
#149=EDGE_CURVE('',#112,#116,#84,.T.);
#151=EDGE_CURVE('',#116,#109,#70,.T.);
#155=ADVANCED_FACE('',(#154),#145,.F.);
#170=EDGE_CURVE('',#113,#105,#56,.T.);
#172=EDGE_CURVE('',#112,#113,#63,.T.);
#176=ADVANCED_FACE('',(#175),#167,.T.);
#190=EDGE_CURVE('',#108,#117,#77,.T.);
#192=EDGE_CURVE('',#117,#113,#91,.T.);
#197=ADVANCED_FACE('',(#196),#188,.T.);
#211=EDGE_CURVE('',#116,#117,#98,.T.);
#217=ADVANCED_FACE('',(#216),#209,.T.);
#236=ADVANCED_FACE('',(#235),#229,.T.);
#244=CLOSED_SHELL('',(#133,#155,#176,#197,#217,#236));
#245=MANIFOLD_SOLID_BREP('',#244);
#253=(LENGTH_UNIT()NAMED_UNIT(*)SI_UNIT(.MILLI.,.METRE.));
#256=(NAMED_UNIT(*)PLANE_ANGLE_UNIT()SI_UNIT($,.RADIAN.));
#259=(NAMED_UNIT(*)SI_UNIT($,.STERADIAN.)SOLID_ANGLE_UNIT());
#261=(GEOMETRIC_REPRESENTATION_CONTEXT(3)GLOBAL_UNCERTAINTY_ASSIGNED_CONTEXT((
#260))GLOBAL_UNIT_ASSIGNED_CONTEXT((#255,#258,#259))REPRESENTATION_CONTEXT
('ID1','3'));
#265=AXIS2_PLACEMENT_3D('',#262,#263,#264);
#266=ADVANCED_BREP_SHAPE_REPRESENTATION('',(#265,#245),#261);
#274=PRODUCT_DEFINITION('design','',#273,#270);
#275=PRODUCT_DEFINITION_SHAPE('','SHAPE FOR CIRPATTERN12200.',#274);
#276=SHAPE_ASPECT('','solid data associated with CIRPATTERN12200',#275,.F.);
#277=PROPERTY_DEFINITION('',
'shape for solid data with which properties are associated',#276);
#278=SHAPE_REPRESENTATION('',(#245),#261);
#279=SHAPE_DEFINITION_REPRESENTATION(#277,#278);
#280=(LENGTH_UNIT()NAMED_UNIT(*)SI_UNIT(.MILLI.,.METRE.));
#286=PROPERTY_DEFINITION('geometric validation property',
'area of CIRPATTERN12200',#276);
#287=REPRESENTATION('surface area',(#285),#261);
#288=PROPERTY_DEFINITION_REPRESENTATION(#286,#287);
#289=(LENGTH_UNIT()NAMED_UNIT(*)SI_UNIT(.MILLI.,.METRE.));
#295=PROPERTY_DEFINITION('geometric validation property',
'volume of CIRPATTERN12200',#276);
#296=REPRESENTATION('volume',(#294),#261);
#297=PROPERTY_DEFINITION_REPRESENTATION(#295,#296);
#299=PROPERTY_DEFINITION('geometric validation property',
'centroid of CIRPATTERN12200',#276);
#300=REPRESENTATION('centroid',(#298),#261);
#301=PROPERTY_DEFINITION_REPRESENTATION(#299,#300);
#302=(LENGTH_UNIT()NAMED_UNIT(*)SI_UNIT(.MILLI.,.METRE.));
#308=PROPERTY_DEFINITION('geometric validation property',
'area of CIRPATTERN12200',#275);
#309=REPRESENTATION('surface area',(#307),#261);
#310=PROPERTY_DEFINITION_REPRESENTATION(#308,#309);
#311=(LENGTH_UNIT()NAMED_UNIT(*)SI_UNIT(.MILLI.,.METRE.));
#317=PROPERTY_DEFINITION('geometric validation property',
'volume of CIRPATTERN12200',#275);
#318=REPRESENTATION('volume',(#316),#261);
#319=PROPERTY_DEFINITION_REPRESENTATION(#317,#318);
#321=PROPERTY_DEFINITION('geometric validation property',
'centroid of CIRPATTERN12200',#275);
#322=REPRESENTATION('centroid',(#320),#261);
#323=PROPERTY_DEFINITION_REPRESENTATION(#321,#322);
#324=SHAPE_DEFINITION_REPRESENTATION(#275,#266);
ENDSEC;
END-ISO-10303-21;
