ISO-10303-21;
HEADER;
FILE_DESCRIPTION((''),'2;1');
FILE_NAME('CONNECTOR','2026-06-15T13:45:17',('Esia'),(''),
'CREO PARAMETRIC BY PTC INC, 2025102','CREO PARAMETRIC BY PTC INC, 2025102','');
FILE_SCHEMA((
'AP242_MANAGED_MODEL_BASED_3D_ENGINEERING_MIM_LF { 1 0 10303 442 1 1 4 }'));
ENDSEC;
DATA;
#17=DIRECTION('',(-1.E0,0.E0,0.E0));
#18=VECTOR('',#17,8.661417322835E-1);
#19=CARTESIAN_POINT('',(1.064960629921E0,0.E0,0.E0));
#20=LINE('',#19,#18);
#21=DRAUGHTING_PRE_DEFINED_CURVE_FONT('continuous');
#22=CURVE_STYLE('',#21,POSITIVE_LENGTH_MEASURE(2.E-2),#10);
#23=PRESENTATION_STYLE_ASSIGNMENT((#22));
#24=STYLED_ITEM('',(#23),#20);
#25=DIRECTION('',(0.E0,-1.E0,0.E0));
#26=VECTOR('',#25,2.125984251969E-1);
#27=CARTESIAN_POINT('',(1.988188976378E-1,2.125984251969E-1,0.E0));
#28=LINE('',#27,#26);
#29=CURVE_STYLE('',#21,POSITIVE_LENGTH_MEASURE(2.E-2),#10);
#30=PRESENTATION_STYLE_ASSIGNMENT((#29));
#31=STYLED_ITEM('',(#30),#28);
#32=DIRECTION('',(0.E0,0.E0,-1.E0));
#33=VECTOR('',#32,9.645669291339E-2);
#34=CARTESIAN_POINT('',(1.988188976378E-1,2.125984251969E-1,9.645669291339E-2));
#35=LINE('',#34,#33);
#36=CURVE_STYLE('',#21,POSITIVE_LENGTH_MEASURE(2.E-2),#10);
#37=PRESENTATION_STYLE_ASSIGNMENT((#36));
#38=STYLED_ITEM('',(#37),#35);
#39=DIRECTION('',(0.E0,1.E0,0.E0));
#40=VECTOR('',#39,2.125984251969E-1);
#41=CARTESIAN_POINT('',(1.988188976378E-1,0.E0,9.645669291339E-2));
#42=LINE('',#41,#40);
#43=CURVE_STYLE('',#21,POSITIVE_LENGTH_MEASURE(2.E-2),#10);
#44=PRESENTATION_STYLE_ASSIGNMENT((#43));
#45=STYLED_ITEM('',(#44),#42);
#46=DIRECTION('',(-1.E0,0.E0,0.E0));
#47=VECTOR('',#46,8.661417322835E-1);
#48=CARTESIAN_POINT('',(1.064960629921E0,2.125984251969E-1,0.E0));
#49=LINE('',#48,#47);
#50=CURVE_STYLE('',#21,POSITIVE_LENGTH_MEASURE(2.E-2),#10);
#51=PRESENTATION_STYLE_ASSIGNMENT((#50));
#52=STYLED_ITEM('',(#51),#49);
#53=DIRECTION('',(0.E0,0.E0,-1.E0));
#54=VECTOR('',#53,9.645669291339E-2);
#55=CARTESIAN_POINT('',(1.064960629921E0,2.125984251969E-1,9.645669291339E-2));
#56=LINE('',#55,#54);
#57=CURVE_STYLE('',#21,POSITIVE_LENGTH_MEASURE(2.E-2),#10);
#58=PRESENTATION_STYLE_ASSIGNMENT((#57));
#59=STYLED_ITEM('',(#58),#56);
#60=DIRECTION('',(1.E0,0.E0,0.E0));
#61=VECTOR('',#60,8.661417322835E-1);
#62=CARTESIAN_POINT('',(1.988188976378E-1,2.125984251969E-1,9.645669291339E-2));
#63=LINE('',#62,#61);
#64=CURVE_STYLE('',#21,POSITIVE_LENGTH_MEASURE(2.E-2),#10);
#65=PRESENTATION_STYLE_ASSIGNMENT((#64));
#66=STYLED_ITEM('',(#65),#63);
#67=DIRECTION('',(0.E0,1.E0,0.E0));
#68=VECTOR('',#67,2.125984251969E-1);
#69=CARTESIAN_POINT('',(1.064960629921E0,0.E0,0.E0));
#70=LINE('',#69,#68);
#71=CURVE_STYLE('',#21,POSITIVE_LENGTH_MEASURE(2.E-2),#10);
#72=PRESENTATION_STYLE_ASSIGNMENT((#71));
#73=STYLED_ITEM('',(#72),#70);
#74=DIRECTION('',(0.E0,0.E0,-1.E0));
#75=VECTOR('',#74,9.645669291339E-2);
#76=CARTESIAN_POINT('',(1.064960629921E0,0.E0,9.645669291339E-2));
#77=LINE('',#76,#75);
#78=CURVE_STYLE('',#21,POSITIVE_LENGTH_MEASURE(2.E-2),#10);
#79=PRESENTATION_STYLE_ASSIGNMENT((#78));
#80=STYLED_ITEM('',(#79),#77);
#81=DIRECTION('',(0.E0,-1.E0,0.E0));
#82=VECTOR('',#81,2.125984251969E-1);
#83=CARTESIAN_POINT('',(1.064960629921E0,2.125984251969E-1,9.645669291339E-2));
#84=LINE('',#83,#82);
#85=CURVE_STYLE('',#21,POSITIVE_LENGTH_MEASURE(2.E-2),#10);
#86=PRESENTATION_STYLE_ASSIGNMENT((#85));
#87=STYLED_ITEM('',(#86),#84);
#88=DIRECTION('',(0.E0,0.E0,-1.E0));
#89=VECTOR('',#88,9.645669291339E-2);
#90=CARTESIAN_POINT('',(1.988188976378E-1,0.E0,9.645669291339E-2));
#91=LINE('',#90,#89);
#92=CURVE_STYLE('',#21,POSITIVE_LENGTH_MEASURE(2.E-2),#10);
#93=PRESENTATION_STYLE_ASSIGNMENT((#92));
#94=STYLED_ITEM('',(#93),#91);
#95=DIRECTION('',(-1.E0,0.E0,0.E0));
#96=VECTOR('',#95,8.661417322835E-1);
#97=CARTESIAN_POINT('',(1.064960629921E0,0.E0,9.645669291339E-2));
#98=LINE('',#97,#96);
#99=CURVE_STYLE('',#21,POSITIVE_LENGTH_MEASURE(2.E-2),#10);
#100=PRESENTATION_STYLE_ASSIGNMENT((#99));
#101=STYLED_ITEM('',(#100),#98);
#102=CARTESIAN_POINT('',(1.988188976378E-1,2.125984251969E-1,0.E0));
#103=CARTESIAN_POINT('',(1.988188976378E-1,0.E0,0.E0));
#104=VERTEX_POINT('',#102);
#105=VERTEX_POINT('',#103);
#106=CARTESIAN_POINT('',(1.064960629921E0,2.125984251969E-1,0.E0));
#107=VERTEX_POINT('',#106);
#108=CARTESIAN_POINT('',(1.064960629921E0,0.E0,0.E0));
#109=VERTEX_POINT('',#108);
#110=CARTESIAN_POINT('',(1.988188976378E-1,0.E0,9.645669291339E-2));
#111=VERTEX_POINT('',#110);
#112=CARTESIAN_POINT('',(1.988188976378E-1,2.125984251969E-1,
9.645669291339E-2));
#113=VERTEX_POINT('',#112);
#114=CARTESIAN_POINT('',(1.064960629921E0,2.125984251969E-1,9.645669291339E-2));
#115=VERTEX_POINT('',#114);
#116=CARTESIAN_POINT('',(1.064960629921E0,0.E0,9.645669291339E-2));
#117=VERTEX_POINT('',#116);
#118=CARTESIAN_POINT('',(6.318897637795E-1,6.318897637795E-1,0.E0));
#119=DIRECTION('',(0.E0,0.E0,1.E0));
#120=DIRECTION('',(1.E0,0.E0,0.E0));
#121=AXIS2_PLACEMENT_3D('',#118,#119,#120);
#122=PLANE('',#121);
#124=ORIENTED_EDGE('',*,*,#123,.T.);
#126=ORIENTED_EDGE('',*,*,#125,.F.);
#128=ORIENTED_EDGE('',*,*,#127,.T.);
#130=ORIENTED_EDGE('',*,*,#129,.T.);
#131=EDGE_LOOP('',(#124,#126,#128,#130));
#132=FACE_OUTER_BOUND('',#131,.F.);
#134=CARTESIAN_POINT('',(1.988188976378E-1,2.125984251969E-1,0.E0));
#135=DIRECTION('',(-1.E0,0.E0,0.E0));
#136=DIRECTION('',(0.E0,-1.E0,0.E0));
#137=AXIS2_PLACEMENT_3D('',#134,#135,#136);
#138=PLANE('',#137);
#139=ORIENTED_EDGE('',*,*,#123,.F.);
#141=ORIENTED_EDGE('',*,*,#140,.F.);
#143=ORIENTED_EDGE('',*,*,#142,.F.);
#145=ORIENTED_EDGE('',*,*,#144,.T.);
#146=EDGE_LOOP('',(#139,#141,#143,#145));
#147=FACE_OUTER_BOUND('',#146,.F.);
#149=CARTESIAN_POINT('',(1.064960629921E0,2.125984251969E-1,0.E0));
#150=DIRECTION('',(0.E0,1.E0,0.E0));
#151=DIRECTION('',(-1.E0,0.E0,0.E0));
#152=AXIS2_PLACEMENT_3D('',#149,#150,#151);
#153=PLANE('',#152);
#154=ORIENTED_EDGE('',*,*,#129,.F.);
#156=ORIENTED_EDGE('',*,*,#155,.F.);
#158=ORIENTED_EDGE('',*,*,#157,.F.);
#159=ORIENTED_EDGE('',*,*,#140,.T.);
#160=EDGE_LOOP('',(#154,#156,#158,#159));
#161=FACE_OUTER_BOUND('',#160,.F.);
#163=CARTESIAN_POINT('',(1.064960629921E0,0.E0,0.E0));
#164=DIRECTION('',(1.E0,0.E0,0.E0));
#165=DIRECTION('',(0.E0,1.E0,0.E0));
#166=AXIS2_PLACEMENT_3D('',#163,#164,#165);
#167=PLANE('',#166);
#168=ORIENTED_EDGE('',*,*,#127,.F.);
#170=ORIENTED_EDGE('',*,*,#169,.F.);
#172=ORIENTED_EDGE('',*,*,#171,.F.);
#173=ORIENTED_EDGE('',*,*,#155,.T.);
#174=EDGE_LOOP('',(#168,#170,#172,#173));
#175=FACE_OUTER_BOUND('',#174,.F.);
#177=CARTESIAN_POINT('',(1.263779527559E0,0.E0,0.E0));
#178=DIRECTION('',(0.E0,-1.E0,0.E0));
#179=DIRECTION('',(-1.E0,0.E0,0.E0));
#180=AXIS2_PLACEMENT_3D('',#177,#178,#179);
#181=PLANE('',#180);
#182=ORIENTED_EDGE('',*,*,#125,.T.);
#183=ORIENTED_EDGE('',*,*,#144,.F.);
#185=ORIENTED_EDGE('',*,*,#184,.F.);
#186=ORIENTED_EDGE('',*,*,#169,.T.);
#187=EDGE_LOOP('',(#182,#183,#185,#186));
#188=FACE_OUTER_BOUND('',#187,.F.);
#190=CARTESIAN_POINT('',(6.318897637795E-1,1.062992125984E-1,
9.645669291339E-2));
#191=DIRECTION('',(0.E0,0.E0,1.E0));
#192=DIRECTION('',(1.E0,0.E0,0.E0));
#193=AXIS2_PLACEMENT_3D('',#190,#191,#192);
#194=PLANE('',#193);
#195=ORIENTED_EDGE('',*,*,#171,.T.);
#196=ORIENTED_EDGE('',*,*,#184,.T.);
#197=ORIENTED_EDGE('',*,*,#142,.T.);
#198=ORIENTED_EDGE('',*,*,#157,.T.);
#199=EDGE_LOOP('',(#195,#196,#197,#198));
#200=FACE_OUTER_BOUND('',#199,.F.);
#204=FILL_AREA_STYLE_COLOUR('',#10);
#205=FILL_AREA_STYLE('',(#204));
#206=SURFACE_STYLE_FILL_AREA(#205);
#207=SURFACE_SIDE_STYLE('',(#206));
#208=SURFACE_STYLE_USAGE(.BOTH.,#207);
#209=PRESENTATION_STYLE_ASSIGNMENT((#208));
#16=STYLED_ITEM('',(#209),#203);
#211=LENGTH_MEASURE_WITH_UNIT(LENGTH_MEASURE(2.54E1),#210);
#212=(CONVERSION_BASED_UNIT('INCH',#211)LENGTH_UNIT()NAMED_UNIT(*));
#214=PLANE_ANGLE_MEASURE_WITH_UNIT(PLANE_ANGLE_MEASURE(1.745329251994E-2),#213);
#215=(CONVERSION_BASED_UNIT('DEGREE',#214)NAMED_UNIT(*)PLANE_ANGLE_UNIT());
#217=UNCERTAINTY_MEASURE_WITH_UNIT(LENGTH_MEASURE(8.970167832408E-5),#212,
'closure',
'Maximum model space distance between geometric entities at asserted connectivities');
#219=CARTESIAN_POINT('',(0.E0,0.E0,0.E0));
#220=DIRECTION('',(0.E0,0.E0,1.E0));
#221=DIRECTION('',(1.E0,0.E0,0.E0));
#224=MECHANICAL_DESIGN_GEOMETRIC_PRESENTATION_REPRESENTATION('',(#24,#31,#38,
#45,#52,#59,#66,#73,#80,#87,#94,#101,#16),#218);
#225=APPLICATION_CONTEXT('automotive design');
#226=APPLICATION_PROTOCOL_DEFINITION('international standard',
'config_control_design',1994,#225);
#227=PRODUCT_DEFINITION_CONTEXT('',#225,'design');
#228=PRODUCT_CONTEXT('',#225,'mechanical');
#229=PRODUCT('CONNECTOR','CONNECTOR','NOT SPECIFIED',(#228));
#230=PRODUCT_DEFINITION_FORMATION_WITH_SPECIFIED_SOURCE('1','LAST_VERSION',#229,
.MADE.);
#238=LENGTH_MEASURE_WITH_UNIT(LENGTH_MEASURE(2.54E1),#237);
#239=(CONVERSION_BASED_UNIT('INCH',#238)LENGTH_UNIT()NAMED_UNIT(*));
#240=DERIVED_UNIT_ELEMENT(#239,2.E0);
#241=AREA_UNIT((#240));
#242=MEASURE_REPRESENTATION_ITEM('surface area measure',AREA_MEASURE(3.7186E2),
#241);
#247=LENGTH_MEASURE_WITH_UNIT(LENGTH_MEASURE(2.54E1),#246);
#248=(CONVERSION_BASED_UNIT('INCH',#247)LENGTH_UNIT()NAMED_UNIT(*));
#249=DERIVED_UNIT_ELEMENT(#248,3.E0);
#250=VOLUME_UNIT((#249));
#251=MEASURE_REPRESENTATION_ITEM('volume measure',VOLUME_MEASURE(2.9106E2),
#250);
#255=CARTESIAN_POINT('centre point',(1.605E1,2.7E0,1.225E0));
#260=LENGTH_MEASURE_WITH_UNIT(LENGTH_MEASURE(2.54E1),#259);
#261=(CONVERSION_BASED_UNIT('INCH',#260)LENGTH_UNIT()NAMED_UNIT(*));
#262=DERIVED_UNIT_ELEMENT(#261,2.E0);
#263=AREA_UNIT((#262));
#264=MEASURE_REPRESENTATION_ITEM('surface area measure',AREA_MEASURE(3.7186E2),
#263);
#269=LENGTH_MEASURE_WITH_UNIT(LENGTH_MEASURE(2.54E1),#268);
#270=(CONVERSION_BASED_UNIT('INCH',#269)LENGTH_UNIT()NAMED_UNIT(*));
#271=DERIVED_UNIT_ELEMENT(#270,3.E0);
#272=VOLUME_UNIT((#271));
#273=MEASURE_REPRESENTATION_ITEM('volume measure',VOLUME_MEASURE(2.9106E2),
#272);
#277=CARTESIAN_POINT('centre point',(1.605E1,2.7E0,1.225E0));
#1=DRAUGHTING_PRE_DEFINED_COLOUR('green');
#2=COLOUR_RGB('',1.1E-2,1.2E-2,1.E0);
#3=COLOUR_RGB('',2.352941176471E-1,2.352941176471E-1,2.352941176471E-1);
#4=COLOUR_RGB('',4.1E-1,2.61589E-1,1.12848E-1);
#5=COLOUR_RGB('',5.04854E-1,1.5455E-2,1.5455E-2);
#6=COLOUR_RGB('',6.35294E-1,6.86275E-1,7.4902E-1);
#7=COLOUR_RGB('',6.40777E-1,6.40777E-1,6.40777E-1);
#8=COLOUR_RGB('',6.69062E-1,6.69903E-1,6.55217E-1);
#9=COLOUR_RGB('',9.21569E-1,7.05882E-1,4.70588E-1);
#10=COLOUR_RGB('',9.647058823529E-1,9.647058823529E-1,9.529411764706E-1);
#11=DRAUGHTING_PRE_DEFINED_COLOUR('red');
#12=DRAUGHTING_PRE_DEFINED_COLOUR('yellow');
#13=COLOUR_RGB('',1.E0,1.E0,5.3E-1);
#14=COLOUR_RGB('',1.E0,1.E0,9.49E-1);
#15=DRAUGHTING_PRE_DEFINED_COLOUR('white');
#123=EDGE_CURVE('',#104,#105,#28,.T.);
#125=EDGE_CURVE('',#109,#105,#20,.T.);
#127=EDGE_CURVE('',#109,#107,#70,.T.);
#129=EDGE_CURVE('',#107,#104,#49,.T.);
#133=ADVANCED_FACE('',(#132),#122,.F.);
#140=EDGE_CURVE('',#113,#104,#35,.T.);
#142=EDGE_CURVE('',#111,#113,#42,.T.);
#144=EDGE_CURVE('',#111,#105,#91,.T.);
#148=ADVANCED_FACE('',(#147),#138,.T.);
#155=EDGE_CURVE('',#115,#107,#56,.T.);
#157=EDGE_CURVE('',#113,#115,#63,.T.);
#162=ADVANCED_FACE('',(#161),#153,.T.);
#169=EDGE_CURVE('',#117,#109,#77,.T.);
#171=EDGE_CURVE('',#115,#117,#84,.T.);
#176=ADVANCED_FACE('',(#175),#167,.T.);
#184=EDGE_CURVE('',#117,#111,#98,.T.);
#189=ADVANCED_FACE('',(#188),#181,.T.);
#201=ADVANCED_FACE('',(#200),#194,.T.);
#202=CLOSED_SHELL('',(#133,#148,#162,#176,#189,#201));
#203=MANIFOLD_SOLID_BREP('',#202);
#210=(LENGTH_UNIT()NAMED_UNIT(*)SI_UNIT(.MILLI.,.METRE.));
#213=(NAMED_UNIT(*)PLANE_ANGLE_UNIT()SI_UNIT($,.RADIAN.));
#216=(NAMED_UNIT(*)SI_UNIT($,.STERADIAN.)SOLID_ANGLE_UNIT());
#218=(GEOMETRIC_REPRESENTATION_CONTEXT(3)GLOBAL_UNCERTAINTY_ASSIGNED_CONTEXT((
#217))GLOBAL_UNIT_ASSIGNED_CONTEXT((#212,#215,#216))REPRESENTATION_CONTEXT
('ID1','3'));
#222=AXIS2_PLACEMENT_3D('',#219,#220,#221);
#223=ADVANCED_BREP_SHAPE_REPRESENTATION('',(#222,#203),#218);
#231=PRODUCT_DEFINITION('design','',#230,#227);
#232=PRODUCT_DEFINITION_SHAPE('','SHAPE FOR CONNECTOR.',#231);
#233=SHAPE_ASPECT('','solid data associated with CONNECTOR',#232,.F.);
#234=PROPERTY_DEFINITION('',
'shape for solid data with which properties are associated',#233);
#235=SHAPE_REPRESENTATION('',(#203),#218);
#236=SHAPE_DEFINITION_REPRESENTATION(#234,#235);
#237=(LENGTH_UNIT()NAMED_UNIT(*)SI_UNIT(.MILLI.,.METRE.));
#243=PROPERTY_DEFINITION('geometric validation property','area of CONNECTOR',
#233);
#244=REPRESENTATION('surface area',(#242),#218);
#245=PROPERTY_DEFINITION_REPRESENTATION(#243,#244);
#246=(LENGTH_UNIT()NAMED_UNIT(*)SI_UNIT(.MILLI.,.METRE.));
#252=PROPERTY_DEFINITION('geometric validation property','volume of CONNECTOR',
#233);
#253=REPRESENTATION('volume',(#251),#218);
#254=PROPERTY_DEFINITION_REPRESENTATION(#252,#253);
#256=PROPERTY_DEFINITION('geometric validation property',
'centroid of CONNECTOR',#233);
#257=REPRESENTATION('centroid',(#255),#218);
#258=PROPERTY_DEFINITION_REPRESENTATION(#256,#257);
#259=(LENGTH_UNIT()NAMED_UNIT(*)SI_UNIT(.MILLI.,.METRE.));
#265=PROPERTY_DEFINITION('geometric validation property','area of CONNECTOR',
#232);
#266=REPRESENTATION('surface area',(#264),#218);
#267=PROPERTY_DEFINITION_REPRESENTATION(#265,#266);
#268=(LENGTH_UNIT()NAMED_UNIT(*)SI_UNIT(.MILLI.,.METRE.));
#274=PROPERTY_DEFINITION('geometric validation property','volume of CONNECTOR',
#232);
#275=REPRESENTATION('volume',(#273),#218);
#276=PROPERTY_DEFINITION_REPRESENTATION(#274,#275);
#278=PROPERTY_DEFINITION('geometric validation property',
'centroid of CONNECTOR',#232);
#279=REPRESENTATION('centroid',(#277),#218);
#280=PROPERTY_DEFINITION_REPRESENTATION(#278,#279);
#281=SHAPE_DEFINITION_REPRESENTATION(#232,#223);
ENDSEC;
END-ISO-10303-21;
