ISO-10303-21;
HEADER;
FILE_DESCRIPTION((''),'2;1');
FILE_NAME('CUT-EXTRUDE34200','2026-06-15T13:46:12',('Esia'),(''),
'CREO PARAMETRIC BY PTC INC, 2025102','CREO PARAMETRIC BY PTC INC, 2025102','');
FILE_SCHEMA((
'AP242_MANAGED_MODEL_BASED_3D_ENGINEERING_MIM_LF { 1 0 10303 442 1 1 4 }'));
ENDSEC;
DATA;
#17=DIRECTION('',(1.E0,0.E0,0.E0));
#18=VECTOR('',#17,2.674010637127E-2);
#19=CARTESIAN_POINT('',(1.811181357908E-1,-2.602286465013E-1,
5.632444945479E-1));
#20=LINE('',#19,#18);
#21=DRAUGHTING_PRE_DEFINED_CURVE_FONT('continuous');
#22=CURVE_STYLE('',#21,POSITIVE_LENGTH_MEASURE(2.E-2),#5);
#23=PRESENTATION_STYLE_ASSIGNMENT((#22));
#24=STYLED_ITEM('',(#23),#20);
#25=CARTESIAN_POINT('',(1.944881889764E-1,-2.528132877486E-1,
5.675257539199E-1));
#26=CARTESIAN_POINT('',(1.930027139419E-1,-2.528132877486E-1,
5.675257539199E-1));
#27=CARTESIAN_POINT('',(1.903193441929E-1,-2.532918963847E-1,
5.672494290950E-1));
#28=CARTESIAN_POINT('',(1.856829766189E-1,-2.554646429757E-1,
5.659949932658E-1));
#29=CARTESIAN_POINT('',(1.828229710452E-1,-2.581215013234E-1,
5.644610553836E-1));
#30=CARTESIAN_POINT('',(1.811181357908E-1,-2.602286465013E-1,
5.632444945479E-1));
#32=CURVE_STYLE('',#21,POSITIVE_LENGTH_MEASURE(2.E-2),#5);
#33=PRESENTATION_STYLE_ASSIGNMENT((#32));
#34=STYLED_ITEM('',(#33),#31);
#35=DIRECTION('',(0.E0,1.E0,-1.628108407829E-14));
#36=VECTOR('',#35,1.363819533498E-2);
#37=CARTESIAN_POINT('',(2.172824530390E-1,-2.512574921871E-1,
5.477059994731E-1));
#38=LINE('',#37,#36);
#39=CURVE_STYLE('',#21,POSITIVE_LENGTH_MEASURE(2.E-2),#5);
#40=PRESENTATION_STYLE_ASSIGNMENT((#39));
#41=STYLED_ITEM('',(#40),#38);
#42=CARTESIAN_POINT('',(2.078582421620E-1,-2.602286465013E-1,
5.632444945479E-1));
#43=CARTESIAN_POINT('',(2.092617612168E-1,-2.596504052117E-1,
5.622429512552E-1));
#44=CARTESIAN_POINT('',(2.116773116767E-1,-2.583866696897E-1,
5.600540971239E-1));
#45=CARTESIAN_POINT('',(2.144016031083E-1,-2.562447647165E-1,
5.563442088853E-1));
#46=CARTESIAN_POINT('',(2.163207925480E-1,-2.538822919734E-1,
5.522522860626E-1));
#47=CARTESIAN_POINT('',(2.170631215816E-1,-2.521601564942E-1,
5.492694599151E-1));
#48=CARTESIAN_POINT('',(2.172824530390E-1,-2.512574921871E-1,
5.477059994731E-1));
#50=CURVE_STYLE('',#21,POSITIVE_LENGTH_MEASURE(2.E-2),#5);
#51=PRESENTATION_STYLE_ASSIGNMENT((#50));
#52=STYLED_ITEM('',(#51),#49);
#53=CARTESIAN_POINT('',(1.944881889764E-1,-2.528132877486E-1,
5.675257539199E-1));
#54=CARTESIAN_POINT('',(1.959736640109E-1,-2.528132877486E-1,
5.675257539199E-1));
#55=CARTESIAN_POINT('',(1.986570337600E-1,-2.532918963847E-1,
5.672494290950E-1));
#56=CARTESIAN_POINT('',(2.032934013339E-1,-2.554646429757E-1,
5.659949932658E-1));
#57=CARTESIAN_POINT('',(2.061534069076E-1,-2.581215013234E-1,
5.644610553836E-1));
#58=CARTESIAN_POINT('',(2.078582421620E-1,-2.602286465013E-1,
5.632444945479E-1));
#60=CURVE_STYLE('',#21,POSITIVE_LENGTH_MEASURE(2.E-2),#5);
#61=PRESENTATION_STYLE_ASSIGNMENT((#60));
#62=STYLED_ITEM('',(#61),#59);
#63=DIRECTION('',(0.E0,-1.E0,-3.256216815658E-14));
#64=VECTOR('',#63,1.363819533498E-2);
#65=CARTESIAN_POINT('',(1.716939249138E-1,-2.376192968521E-1,
5.477059994731E-1));
#66=LINE('',#65,#64);
#67=CURVE_STYLE('',#21,POSITIVE_LENGTH_MEASURE(2.E-2),#5);
#68=PRESENTATION_STYLE_ASSIGNMENT((#67));
#69=STYLED_ITEM('',(#68),#66);
#70=DIRECTION('',(1.206043486028E-1,4.963503276664E-1,-8.597039858716E-1));
#71=VECTOR('',#70,3.057991729675E-2);
#72=CARTESIAN_POINT('',(2.172824530390E-1,-2.376192968521E-1,
5.477059994731E-1));
#73=LINE('',#72,#71);
#74=CURVE_STYLE('',#21,POSITIVE_LENGTH_MEASURE(2.E-2),#5);
#75=PRESENTATION_STYLE_ASSIGNMENT((#74));
#76=STYLED_ITEM('',(#75),#73);
#77=CARTESIAN_POINT('',(1.944881889764E-1,-2.490622374172E-1,
5.675257539199E-1));
#78=CARTESIAN_POINT('',(1.962826886991E-1,-2.490622374172E-1,
5.675257539199E-1));
#79=CARTESIAN_POINT('',(1.994642488750E-1,-2.488322696950E-1,
5.671274381408E-1));
#80=CARTESIAN_POINT('',(2.048509450118E-1,-2.478212188586E-1,
5.653762467231E-1));
#81=CARTESIAN_POINT('',(2.102178736785E-1,-2.457861555493E-1,
5.618514136749E-1));
#82=CARTESIAN_POINT('',(2.141650987365E-1,-2.429497801682E-1,
5.569386674055E-1));
#83=CARTESIAN_POINT('',(2.163599811350E-1,-2.401371991646E-1,
5.520671342068E-1));
#84=CARTESIAN_POINT('',(2.170660285689E-1,-2.385099973775E-1,
5.492487380374E-1));
#85=CARTESIAN_POINT('',(2.172824530390E-1,-2.376192968521E-1,
5.477059994731E-1));
#87=CURVE_STYLE('',#21,POSITIVE_LENGTH_MEASURE(2.E-2),#5);
#88=PRESENTATION_STYLE_ASSIGNMENT((#87));
#89=STYLED_ITEM('',(#88),#86);
#90=CARTESIAN_POINT('',(1.716939249138E-1,-2.376192968521E-1,
5.477059994731E-1));
#91=CARTESIAN_POINT('',(1.719103493839E-1,-2.385099973775E-1,
5.492487380374E-1));
#92=CARTESIAN_POINT('',(1.726163968178E-1,-2.401371991646E-1,
5.520671342068E-1));
#93=CARTESIAN_POINT('',(1.748112792163E-1,-2.429497801682E-1,
5.569386674055E-1));
#94=CARTESIAN_POINT('',(1.787585042743E-1,-2.457861555493E-1,
5.618514136749E-1));
#95=CARTESIAN_POINT('',(1.841254329410E-1,-2.478212188586E-1,
5.653762467231E-1));
#96=CARTESIAN_POINT('',(1.895121290778E-1,-2.488322696950E-1,
5.671274381408E-1));
#97=CARTESIAN_POINT('',(1.926936892537E-1,-2.490622374172E-1,
5.675257539199E-1));
#98=CARTESIAN_POINT('',(1.944881889764E-1,-2.490622374172E-1,
5.675257539199E-1));
#100=CURVE_STYLE('',#21,POSITIVE_LENGTH_MEASURE(2.E-2),#5);
#101=PRESENTATION_STYLE_ASSIGNMENT((#100));
#102=STYLED_ITEM('',(#101),#99);
#103=DIRECTION('',(1.206043486028E-1,-4.963503276664E-1,8.597039858716E-1));
#104=VECTOR('',#103,3.057991729675E-2);
#105=CARTESIAN_POINT('',(1.680058539079E-1,-2.224409448819E-1,
5.214163226855E-1));
#106=LINE('',#105,#104);
#107=CURVE_STYLE('',#21,POSITIVE_LENGTH_MEASURE(2.E-2),#5);
#108=PRESENTATION_STYLE_ASSIGNMENT((#107));
#109=STYLED_ITEM('',(#108),#106);
#110=DIRECTION('',(-1.E0,0.E0,0.E0));
#111=VECTOR('',#110,5.296467013698E-2);
#112=CARTESIAN_POINT('',(2.209705240449E-1,-2.224409448819E-1,
5.214163226855E-1));
#113=LINE('',#112,#111);
#114=CURVE_STYLE('',#21,POSITIVE_LENGTH_MEASURE(2.E-2),#5);
#115=PRESENTATION_STYLE_ASSIGNMENT((#114));
#116=STYLED_ITEM('',(#115),#113);
#117=DIRECTION('',(1.389255254069E-1,0.E0,-9.903028316583E-1));
#118=VECTOR('',#117,1.449666681006E-2);
#119=CARTESIAN_POINT('',(2.209705240449E-1,-2.224409448819E-1,
5.214163226855E-1));
#120=LINE('',#119,#118);
#121=CURVE_STYLE('',#21,POSITIVE_LENGTH_MEASURE(2.E-2),#5);
#122=PRESENTATION_STYLE_ASSIGNMENT((#121));
#123=STYLED_ITEM('',(#122),#120);
#124=DIRECTION('',(1.389255254069E-1,-1.148770651045E-14,9.903028316583E-1));
#125=VECTOR('',#124,1.449666681006E-2);
#126=CARTESIAN_POINT('',(1.659918968547E-1,-2.224409448819E-1,
5.070602324939E-1));
#127=LINE('',#126,#125);
#128=CURVE_STYLE('',#21,POSITIVE_LENGTH_MEASURE(2.E-2),#5);
#129=PRESENTATION_STYLE_ASSIGNMENT((#128));
#130=STYLED_ITEM('',(#129),#127);
#131=DIRECTION('',(-1.E0,0.E0,0.E0));
#132=VECTOR('',#131,5.699258424345E-2);
#133=CARTESIAN_POINT('',(2.229844810981E-1,-2.224409448819E-1,
5.070602324939E-1));
#134=LINE('',#133,#132);
#135=CURVE_STYLE('',#21,POSITIVE_LENGTH_MEASURE(2.E-2),#5);
#136=PRESENTATION_STYLE_ASSIGNMENT((#135));
#137=STYLED_ITEM('',(#136),#134);
#138=CARTESIAN_POINT('',(2.225474166762E-1,-2.371026960341E-1,
5.101757588404E-1));
#139=CARTESIAN_POINT('',(2.224367370801E-1,-2.361624532517E-1,
5.109647162124E-1));
#140=CARTESIAN_POINT('',(2.221803913780E-1,-2.348254357922E-1,
5.127920252976E-1));
#141=CARTESIAN_POINT('',(2.218724427457E-1,-2.342900000474E-1,
5.149871755527E-1));
#142=CARTESIAN_POINT('',(2.217012337217E-1,-2.342900000474E-1,
5.162076048492E-1));
#144=CURVE_STYLE('',#21,POSITIVE_LENGTH_MEASURE(2.E-2),#5);
#145=PRESENTATION_STYLE_ASSIGNMENT((#144));
#146=STYLED_ITEM('',(#145),#143);
#147=DIRECTION('',(1.E0,0.E0,0.E0));
#148=VECTOR('',#147,5.611845539967E-2);
#149=CARTESIAN_POINT('',(1.664289612766E-1,-2.371026960341E-1,
5.101757588404E-1));
#150=LINE('',#149,#148);
#151=CURVE_STYLE('',#21,POSITIVE_LENGTH_MEASURE(2.E-2),#5);
#152=PRESENTATION_STYLE_ASSIGNMENT((#151));
#153=STYLED_ITEM('',(#152),#150);
#154=CARTESIAN_POINT('',(1.672751375314E-1,-2.342901328148E-1,
5.162075690248E-1));
#155=CARTESIAN_POINT('',(1.672100187244E-1,-2.342901342217E-1,
5.157433826284E-1));
#156=CARTESIAN_POINT('',(1.670821336645E-1,-2.343706414041E-1,
5.148317620768E-1));
#157=CARTESIAN_POINT('',(1.668948436836E-1,-2.347286229166E-1,
5.134967099165E-1));
#158=CARTESIAN_POINT('',(1.667196494035E-1,-2.353115846860E-1,
5.122478706349E-1));
#159=CARTESIAN_POINT('',(1.665609023048E-1,-2.361055875305E-1,
5.111162741945E-1));
#160=CARTESIAN_POINT('',(1.664705489572E-1,-2.367494013176E-1,
5.104722083068E-1));
#161=CARTESIAN_POINT('',(1.664289612766E-1,-2.371026960341E-1,
5.101757588404E-1));
#163=CURVE_STYLE('',#21,POSITIVE_LENGTH_MEASURE(2.E-2),#5);
#164=PRESENTATION_STYLE_ASSIGNMENT((#163));
#165=STYLED_ITEM('',(#164),#162);
#166=CARTESIAN_POINT('',(1.678274509295E-1,-2.353449181278E-1,
5.201446127233E-1));
#167=CARTESIAN_POINT('',(1.677712935024E-1,-2.351138007783E-1,
5.197443057314E-1));
#168=CARTESIAN_POINT('',(1.676553566841E-1,-2.347286900863E-1,
5.189178748937E-1));
#169=CARTESIAN_POINT('',(1.674677064227E-1,-2.343699427773E-1,
5.175802403633E-1));
#170=CARTESIAN_POINT('',(1.673401132897E-1,-2.342901314110E-1,
5.166707357267E-1));
#171=CARTESIAN_POINT('',(1.672751375314E-1,-2.342901328148E-1,
5.162075690248E-1));
#173=CURVE_STYLE('',#21,POSITIVE_LENGTH_MEASURE(2.E-2),#5);
#174=PRESENTATION_STYLE_ASSIGNMENT((#173));
#175=STYLED_ITEM('',(#174),#172);
#176=DIRECTION('',(-1.E0,0.E0,0.E0));
#177=VECTOR('',#176,5.332147609374E-2);
#178=CARTESIAN_POINT('',(2.211489270233E-1,-2.353449181278E-1,
5.201446127233E-1));
#179=LINE('',#178,#177);
#180=CURVE_STYLE('',#21,POSITIVE_LENGTH_MEASURE(2.E-2),#5);
#181=PRESENTATION_STYLE_ASSIGNMENT((#180));
#182=STYLED_ITEM('',(#181),#179);
#183=CARTESIAN_POINT('',(2.217012337217E-1,-2.342900000474E-1,
5.162076048492E-1));
#184=CARTESIAN_POINT('',(2.215041518523E-1,-2.342900000474E-1,
5.176124635518E-1));
#185=CARTESIAN_POINT('',(2.213200181918E-1,-2.346407879819E-1,
5.189250235354E-1));
#186=CARTESIAN_POINT('',(2.211489270233E-1,-2.353449181278E-1,
5.201446127233E-1));
#188=CURVE_STYLE('',#21,POSITIVE_LENGTH_MEASURE(2.E-2),#5);
#189=PRESENTATION_STYLE_ASSIGNMENT((#188));
#190=STYLED_ITEM('',(#189),#187);
#191=DIRECTION('',(-8.980964135811E-2,7.629488185428E-1,6.401900722467E-1));
#192=VECTOR('',#191,2.409042542712E-2);
#193=CARTESIAN_POINT('',(2.247109691440E-1,-2.554824576519E-1,
4.947533076458E-1));
#194=LINE('',#193,#192);
#195=CURVE_STYLE('',#21,POSITIVE_LENGTH_MEASURE(2.E-2),#5);
#196=PRESENTATION_STYLE_ASSIGNMENT((#195));
#197=STYLED_ITEM('',(#196),#194);
#198=DIRECTION('',(-8.980964135811E-2,-7.629488185428E-1,-6.401900722467E-1));
#199=VECTOR('',#198,2.409042542712E-2);
#200=CARTESIAN_POINT('',(1.664289612766E-1,-2.371026960341E-1,
5.101757588404E-1));
#201=LINE('',#200,#199);
#202=CURVE_STYLE('',#21,POSITIVE_LENGTH_MEASURE(2.E-2),#5);
#203=PRESENTATION_STYLE_ASSIGNMENT((#202));
#204=STYLED_ITEM('',(#203),#201);
#205=CARTESIAN_POINT('',(2.266148807917E-1,-2.618110236220E-1,
4.811816541260E-1));
#206=CARTESIAN_POINT('',(2.264222706397E-1,-2.618110236220E-1,
4.825546370846E-1));
#207=CARTESIAN_POINT('',(2.260571831595E-1,-2.614982874401E-1,
4.851570901933E-1));
#208=CARTESIAN_POINT('',(2.255581640871E-1,-2.602740592068E-1,
4.887142478787E-1));
#209=CARTESIAN_POINT('',(2.251049767720E-1,-2.583378966229E-1,
4.919447030463E-1));
#210=CARTESIAN_POINT('',(2.248354836896E-1,-2.565402307822E-1,
4.938657306023E-1));
#211=CARTESIAN_POINT('',(2.247109691440E-1,-2.554824576519E-1,
4.947533076458E-1));
#213=CURVE_STYLE('',#21,POSITIVE_LENGTH_MEASURE(2.E-2),#5);
#214=PRESENTATION_STYLE_ASSIGNMENT((#213));
#215=STYLED_ITEM('',(#214),#212);
#216=DIRECTION('',(1.E0,0.E0,0.E0));
#217=VECTOR('',#216,6.425338363049E-2);
#218=CARTESIAN_POINT('',(1.623614971612E-1,-2.618110236220E-1,
4.811816541260E-1));
#219=LINE('',#218,#217);
#220=CURVE_STYLE('',#21,POSITIVE_LENGTH_MEASURE(2.E-2),#5);
#221=PRESENTATION_STYLE_ASSIGNMENT((#220));
#222=STYLED_ITEM('',(#221),#219);
#223=CARTESIAN_POINT('',(1.642654088088E-1,-2.554824576519E-1,
4.947533076458E-1));
#224=CARTESIAN_POINT('',(1.641408942632E-1,-2.565402307822E-1,
4.938657306023E-1));
#225=CARTESIAN_POINT('',(1.638714011809E-1,-2.583378966229E-1,
4.919447030463E-1));
#226=CARTESIAN_POINT('',(1.634182138657E-1,-2.602740592068E-1,
4.887142478787E-1));
#227=CARTESIAN_POINT('',(1.629191947934E-1,-2.614982874401E-1,
4.851570901933E-1));
#228=CARTESIAN_POINT('',(1.625541073131E-1,-2.618110236220E-1,
4.825546370846E-1));
#229=CARTESIAN_POINT('',(1.623614971612E-1,-2.618110236220E-1,
4.811816541260E-1));
#231=CURVE_STYLE('',#21,POSITIVE_LENGTH_MEASURE(2.E-2),#5);
#232=PRESENTATION_STYLE_ASSIGNMENT((#231));
#233=STYLED_ITEM('',(#232),#230);
#234=DIRECTION('',(-1.E0,0.E0,0.E0));
#235=VECTOR('',#234,6.044556033522E-2);
#236=CARTESIAN_POINT('',(2.247109691440E-1,-2.554824576519E-1,
4.947533076458E-1));
#237=LINE('',#236,#235);
#238=CURVE_STYLE('',#21,POSITIVE_LENGTH_MEASURE(2.E-2),#5);
#239=PRESENTATION_STYLE_ASSIGNMENT((#238));
#240=STYLED_ITEM('',(#239),#237);
#241=DIRECTION('',(0.E0,-1.E0,-6.579921792697E-14));
#242=VECTOR('',#241,1.181102362189E-2);
#243=CARTESIAN_POINT('',(2.266148807917E-1,-2.500000000002E-1,
4.811816541260E-1));
#244=LINE('',#243,#242);
#245=CURVE_STYLE('',#21,POSITIVE_LENGTH_MEASURE(2.E-2),#5);
#246=PRESENTATION_STYLE_ASSIGNMENT((#245));
#247=STYLED_ITEM('',(#246),#244);
#248=DIRECTION('',(0.E0,1.E0,7.519910620226E-14));
#249=VECTOR('',#248,1.181102362189E-2);
#250=CARTESIAN_POINT('',(1.623614971612E-1,-2.618110236220E-1,
4.811816541260E-1));
#251=LINE('',#250,#249);
#252=CURVE_STYLE('',#21,POSITIVE_LENGTH_MEASURE(2.E-2),#5);
#253=PRESENTATION_STYLE_ASSIGNMENT((#252));
#254=STYLED_ITEM('',(#253),#251);
#255=CARTESIAN_POINT('',(2.259802435758E-1,-2.478904780100E-1,
4.857055386328E-1));
#256=CARTESIAN_POINT('',(2.260632532728E-1,-2.485956600969E-1,
4.851138206038E-1));
#257=CARTESIAN_POINT('',(2.262555125495E-1,-2.495984231915E-1,
4.837433387898E-1));
#258=CARTESIAN_POINT('',(2.264864740237E-1,-2.500000000002E-1,
4.820969760984E-1));
#259=CARTESIAN_POINT('',(2.266148807917E-1,-2.500000000002E-1,
4.811816541260E-1));
#261=CURVE_STYLE('',#21,POSITIVE_LENGTH_MEASURE(2.E-2),#5);
#262=PRESENTATION_STYLE_ASSIGNMENT((#261));
#263=STYLED_ITEM('',(#262),#260);
#264=DIRECTION('',(1.E0,0.E0,0.E0));
#265=VECTOR('',#264,6.298410919869E-2);
#266=CARTESIAN_POINT('',(1.629961343771E-1,-2.478904780100E-1,
4.857055386328E-1));
#267=LINE('',#266,#265);
#268=CURVE_STYLE('',#21,POSITIVE_LENGTH_MEASURE(2.E-2),#5);
#269=PRESENTATION_STYLE_ASSIGNMENT((#268));
#270=STYLED_ITEM('',(#269),#267);
#271=CARTESIAN_POINT('',(1.623614971612E-1,-2.500000000002E-1,
4.811816541260E-1));
#272=CARTESIAN_POINT('',(1.624899039291E-1,-2.500000000002E-1,
4.820969760984E-1));
#273=CARTESIAN_POINT('',(1.627208654034E-1,-2.495984231915E-1,
4.837433387898E-1));
#274=CARTESIAN_POINT('',(1.629131246800E-1,-2.485956600969E-1,
4.851138206038E-1));
#275=CARTESIAN_POINT('',(1.629961343771E-1,-2.478904780100E-1,
4.857055386328E-1));
#277=CURVE_STYLE('',#21,POSITIVE_LENGTH_MEASURE(2.E-2),#5);
#278=PRESENTATION_STYLE_ASSIGNMENT((#277));
#279=STYLED_ITEM('',(#278),#276);
#280=DIRECTION('',(-1.E0,0.E0,0.E0));
#281=VECTOR('',#280,6.425338363049E-2);
#282=CARTESIAN_POINT('',(2.266148807917E-1,-2.500000000002E-1,
4.811816541260E-1));
#283=LINE('',#282,#281);
#284=CURVE_STYLE('',#21,POSITIVE_LENGTH_MEASURE(2.E-2),#5);
#285=PRESENTATION_STYLE_ASSIGNMENT((#284));
#286=STYLED_ITEM('',(#285),#283);
#287=DIRECTION('',(8.980964135727E-2,-7.629488185480E-1,-6.401900722407E-1));
#288=VECTOR('',#287,3.335680259204E-2);
#289=CARTESIAN_POINT('',(2.229844810981E-1,-2.224409448819E-1,
5.070602324939E-1));
#290=LINE('',#289,#288);
#291=CURVE_STYLE('',#21,POSITIVE_LENGTH_MEASURE(2.E-2),#5);
#292=PRESENTATION_STYLE_ASSIGNMENT((#291));
#293=STYLED_ITEM('',(#292),#290);
#294=DIRECTION('',(8.980964135727E-2,7.629488185480E-1,6.401900722407E-1));
#295=VECTOR('',#294,3.335680259204E-2);
#296=CARTESIAN_POINT('',(1.629961343771E-1,-2.478904780100E-1,
4.857055386328E-1));
#297=LINE('',#296,#295);
#298=CURVE_STYLE('',#21,POSITIVE_LENGTH_MEASURE(2.E-2),#5);
#299=PRESENTATION_STYLE_ASSIGNMENT((#298));
#300=STYLED_ITEM('',(#299),#297);
#301=DIRECTION('',(-1.206043486028E-1,-4.963503276664E-1,8.597039858716E-1));
#302=VECTOR('',#301,3.205915896960E-2);
#303=CARTESIAN_POINT('',(2.211489270233E-1,-2.353449181278E-1,
5.201446127233E-1));
#304=LINE('',#303,#302);
#305=CURVE_STYLE('',#21,POSITIVE_LENGTH_MEASURE(2.E-2),#5);
#306=PRESENTATION_STYLE_ASSIGNMENT((#305));
#307=STYLED_ITEM('',(#306),#304);
#308=DIRECTION('',(-1.206043486028E-1,4.963503276664E-1,-8.597039858716E-1));
#309=VECTOR('',#308,3.205915896960E-2);
#310=CARTESIAN_POINT('',(1.716939249138E-1,-2.512574921871E-1,
5.477059994731E-1));
#311=LINE('',#310,#309);
#312=CURVE_STYLE('',#21,POSITIVE_LENGTH_MEASURE(2.E-2),#5);
#313=PRESENTATION_STYLE_ASSIGNMENT((#312));
#314=STYLED_ITEM('',(#313),#311);
#315=CARTESIAN_POINT('',(1.811181357908E-1,-2.602286465013E-1,
5.632444945479E-1));
#316=CARTESIAN_POINT('',(1.797146167360E-1,-2.596504052117E-1,
5.622429512552E-1));
#317=CARTESIAN_POINT('',(1.772990662762E-1,-2.583866696897E-1,
5.600540971239E-1));
#318=CARTESIAN_POINT('',(1.745747748445E-1,-2.562447647165E-1,
5.563442088853E-1));
#319=CARTESIAN_POINT('',(1.726555854048E-1,-2.538822919734E-1,
5.522522860626E-1));
#320=CARTESIAN_POINT('',(1.719132563712E-1,-2.521601564942E-1,
5.492694599151E-1));
#321=CARTESIAN_POINT('',(1.716939249138E-1,-2.512574921871E-1,
5.477059994731E-1));
#323=CURVE_STYLE('',#21,POSITIVE_LENGTH_MEASURE(2.E-2),#5);
#324=PRESENTATION_STYLE_ASSIGNMENT((#323));
#325=STYLED_ITEM('',(#324),#322);
#326=CARTESIAN_POINT('',(1.716939249138E-1,-2.512574921871E-1,
5.477059994731E-1));
#327=CARTESIAN_POINT('',(1.678274509295E-1,-2.353449181278E-1,
5.201446127233E-1));
#328=VERTEX_POINT('',#326);
#329=VERTEX_POINT('',#327);
#330=CARTESIAN_POINT('',(1.811181357908E-1,-2.602286465013E-1,
5.632444945479E-1));
#331=CARTESIAN_POINT('',(2.078582421620E-1,-2.602286465013E-1,
5.632444945479E-1));
#332=VERTEX_POINT('',#330);
#333=VERTEX_POINT('',#331);
#334=VERTEX_POINT('',#154);
#335=VERTEX_POINT('',#161);
#336=VERTEX_POINT('',#205);
#337=VERTEX_POINT('',#211);
#338=CARTESIAN_POINT('',(2.225474166762E-1,-2.371026960341E-1,
5.101757588404E-1));
#339=VERTEX_POINT('',#338);
#340=VERTEX_POINT('',#223);
#341=VERTEX_POINT('',#229);
#342=CARTESIAN_POINT('',(1.623614971612E-1,-2.500000000002E-1,
4.811816541260E-1));
#343=VERTEX_POINT('',#342);
#344=VERTEX_POINT('',#275);
#345=CARTESIAN_POINT('',(2.266148807917E-1,-2.500000000002E-1,
4.811816541260E-1));
#346=VERTEX_POINT('',#345);
#347=CARTESIAN_POINT('',(2.211489270233E-1,-2.353449181278E-1,
5.201446127233E-1));
#348=VERTEX_POINT('',#347);
#349=CARTESIAN_POINT('',(2.172824530390E-1,-2.376192968521E-1,
5.477059994731E-1));
#350=CARTESIAN_POINT('',(2.209705240449E-1,-2.224409448819E-1,
5.214163226855E-1));
#351=VERTEX_POINT('',#349);
#352=VERTEX_POINT('',#350);
#353=CARTESIAN_POINT('',(2.172824530390E-1,-2.512574921871E-1,
5.477059994731E-1));
#354=VERTEX_POINT('',#353);
#355=CARTESIAN_POINT('',(2.229844810981E-1,-2.224409448819E-1,
5.070602324939E-1));
#356=VERTEX_POINT('',#355);
#357=VERTEX_POINT('',#77);
#358=VERTEX_POINT('',#90);
#359=CARTESIAN_POINT('',(2.259802435758E-1,-2.478904780100E-1,
4.857055386328E-1));
#360=VERTEX_POINT('',#359);
#361=VERTEX_POINT('',#183);
#362=VERTEX_POINT('',#25);
#363=CARTESIAN_POINT('',(1.680058539079E-1,-2.224409448819E-1,
5.214163226855E-1));
#364=VERTEX_POINT('',#363);
#365=CARTESIAN_POINT('',(1.659918968547E-1,-2.224409448819E-1,
5.070602324939E-1));
#366=VERTEX_POINT('',#365);
#367=CARTESIAN_POINT('',(-2.834645669291E-1,-2.500000000001E-1,
5.691500063588E-1));
#368=DIRECTION('',(0.E0,-5.E-1,8.660254037844E-1));
#369=DIRECTION('',(0.E0,-8.660254037844E-1,-5.E-1));
#370=AXIS2_PLACEMENT_3D('',#367,#368,#369);
#371=PLANE('',#370);
#373=ORIENTED_EDGE('',*,*,#372,.T.);
#375=ORIENTED_EDGE('',*,*,#374,.F.);
#377=ORIENTED_EDGE('',*,*,#376,.F.);
#378=EDGE_LOOP('',(#373,#375,#377));
#379=FACE_OUTER_BOUND('',#378,.F.);
#381=CARTESIAN_POINT('',(1.944881889764E-1,3.024049368004E-1,
5.445082855921E-1));
#382=DIRECTION('',(0.E0,-1.E0,0.E0));
#383=DIRECTION('',(0.E0,0.E0,-1.E0));
#384=AXIS2_PLACEMENT_3D('',#381,#382,#383);
#385=CYLINDRICAL_SURFACE('',#384,2.301746832776E-2);
#387=ORIENTED_EDGE('',*,*,#386,.T.);
#389=ORIENTED_EDGE('',*,*,#388,.F.);
#391=ORIENTED_EDGE('',*,*,#390,.F.);
#392=ORIENTED_EDGE('',*,*,#372,.F.);
#393=ORIENTED_EDGE('',*,*,#376,.T.);
#395=ORIENTED_EDGE('',*,*,#394,.T.);
#397=ORIENTED_EDGE('',*,*,#396,.F.);
#399=ORIENTED_EDGE('',*,*,#398,.T.);
#400=EDGE_LOOP('',(#387,#389,#391,#392,#393,#395,#397,#399));
#401=FACE_OUTER_BOUND('',#400,.F.);
#403=CARTESIAN_POINT('',(-2.834645669291E-1,-2.403657715492E-1,
5.524630331902E-1));
#404=DIRECTION('',(0.E0,8.660254037844E-1,5.E-1));
#405=DIRECTION('',(0.E0,-5.E-1,8.660254037844E-1));
#406=AXIS2_PLACEMENT_3D('',#403,#404,#405);
#407=PLANE('',#406);
#409=ORIENTED_EDGE('',*,*,#408,.F.);
#410=ORIENTED_EDGE('',*,*,#386,.F.);
#411=ORIENTED_EDGE('',*,*,#398,.F.);
#413=ORIENTED_EDGE('',*,*,#412,.F.);
#415=ORIENTED_EDGE('',*,*,#414,.F.);
#416=EDGE_LOOP('',(#409,#410,#411,#413,#415));
#417=FACE_OUTER_BOUND('',#416,.F.);
#419=CARTESIAN_POINT('',(2.266148807917E-1,3.024049368004E-1,
4.811816541260E-1));
#420=DIRECTION('',(-9.903028316583E-1,0.E0,-1.389255254069E-1));
#421=DIRECTION('',(-1.389255254069E-1,0.E0,9.903028316583E-1));
#422=AXIS2_PLACEMENT_3D('',#419,#420,#421);
#423=PLANE('',#422);
#424=ORIENTED_EDGE('',*,*,#408,.T.);
#426=ORIENTED_EDGE('',*,*,#425,.T.);
#428=ORIENTED_EDGE('',*,*,#427,.T.);
#430=ORIENTED_EDGE('',*,*,#429,.T.);
#432=ORIENTED_EDGE('',*,*,#431,.T.);
#434=ORIENTED_EDGE('',*,*,#433,.T.);
#436=ORIENTED_EDGE('',*,*,#435,.T.);
#438=ORIENTED_EDGE('',*,*,#437,.T.);
#440=ORIENTED_EDGE('',*,*,#439,.T.);
#442=ORIENTED_EDGE('',*,*,#441,.T.);
#443=ORIENTED_EDGE('',*,*,#388,.T.);
#444=EDGE_LOOP('',(#424,#426,#428,#430,#432,#434,#436,#438,#440,#442,#443));
#445=FACE_OUTER_BOUND('',#444,.F.);
#447=CARTESIAN_POINT('',(-2.834645669291E-1,-2.224409448819E-1,
5.070602324939E-1));
#448=DIRECTION('',(0.E0,1.E0,0.E0));
#449=DIRECTION('',(0.E0,0.E0,1.E0));
#450=AXIS2_PLACEMENT_3D('',#447,#448,#449);
#451=PLANE('',#450);
#452=ORIENTED_EDGE('',*,*,#425,.F.);
#453=ORIENTED_EDGE('',*,*,#414,.T.);
#455=ORIENTED_EDGE('',*,*,#454,.F.);
#457=ORIENTED_EDGE('',*,*,#456,.F.);
#458=EDGE_LOOP('',(#452,#453,#455,#457));
#459=FACE_OUTER_BOUND('',#458,.F.);
#461=CARTESIAN_POINT('',(1.623614971612E-1,3.024049368004E-1,
4.811816541260E-1));
#462=DIRECTION('',(9.903028316583E-1,0.E0,-1.389255254069E-1));
#463=DIRECTION('',(-1.389255254069E-1,0.E0,-9.903028316583E-1));
#464=AXIS2_PLACEMENT_3D('',#461,#462,#463);
#465=PLANE('',#464);
#467=ORIENTED_EDGE('',*,*,#466,.T.);
#469=ORIENTED_EDGE('',*,*,#468,.T.);
#471=ORIENTED_EDGE('',*,*,#470,.T.);
#473=ORIENTED_EDGE('',*,*,#472,.T.);
#475=ORIENTED_EDGE('',*,*,#474,.T.);
#477=ORIENTED_EDGE('',*,*,#476,.T.);
#479=ORIENTED_EDGE('',*,*,#478,.T.);
#480=ORIENTED_EDGE('',*,*,#454,.T.);
#481=ORIENTED_EDGE('',*,*,#412,.T.);
#482=ORIENTED_EDGE('',*,*,#396,.T.);
#484=ORIENTED_EDGE('',*,*,#483,.T.);
#485=EDGE_LOOP('',(#467,#469,#471,#473,#475,#477,#479,#480,#481,#482,#484));
#486=FACE_OUTER_BOUND('',#485,.F.);
#488=CARTESIAN_POINT('',(-2.834645669291E-1,-2.421640157954E-1,
5.162076048492E-1));
#489=DIRECTION('',(1.E0,0.E0,0.E0));
#490=DIRECTION('',(0.E0,1.E0,0.E0));
#491=AXIS2_PLACEMENT_3D('',#488,#489,#490);
#492=CYLINDRICAL_SURFACE('',#491,7.874015748031E-3);
#493=ORIENTED_EDGE('',*,*,#437,.F.);
#495=ORIENTED_EDGE('',*,*,#494,.F.);
#496=ORIENTED_EDGE('',*,*,#468,.F.);
#497=ORIENTED_EDGE('',*,*,#466,.F.);
#499=ORIENTED_EDGE('',*,*,#498,.F.);
#500=ORIENTED_EDGE('',*,*,#439,.F.);
#501=EDGE_LOOP('',(#493,#495,#496,#497,#499,#500));
#502=FACE_OUTER_BOUND('',#501,.F.);
#504=CARTESIAN_POINT('',(-2.834645669291E-1,-2.371026960341E-1,
5.101757588404E-1));
#505=DIRECTION('',(0.E0,-6.427876096867E-1,7.660444431189E-1));
#506=DIRECTION('',(0.E0,-7.660444431189E-1,-6.427876096867E-1));
#507=AXIS2_PLACEMENT_3D('',#504,#505,#506);
#508=PLANE('',#507);
#509=ORIENTED_EDGE('',*,*,#435,.F.);
#511=ORIENTED_EDGE('',*,*,#510,.T.);
#512=ORIENTED_EDGE('',*,*,#470,.F.);
#513=ORIENTED_EDGE('',*,*,#494,.T.);
#514=EDGE_LOOP('',(#509,#511,#512,#513));
#515=FACE_OUTER_BOUND('',#514,.F.);
#517=CARTESIAN_POINT('',(-2.834645669291E-1,-2.440944881890E-1,
4.811816541260E-1));
#518=DIRECTION('',(1.E0,0.E0,0.E0));
#519=DIRECTION('',(0.E0,1.E0,0.E0));
#520=AXIS2_PLACEMENT_3D('',#517,#518,#519);
#521=CYLINDRICAL_SURFACE('',#520,1.771653543307E-2);
#522=ORIENTED_EDGE('',*,*,#433,.F.);
#524=ORIENTED_EDGE('',*,*,#523,.F.);
#525=ORIENTED_EDGE('',*,*,#472,.F.);
#526=ORIENTED_EDGE('',*,*,#510,.F.);
#527=EDGE_LOOP('',(#522,#524,#525,#526));
#528=FACE_OUTER_BOUND('',#527,.F.);
#530=CARTESIAN_POINT('',(-2.834645669291E-1,-2.618110236220E-1,
4.811816541260E-1));
#531=DIRECTION('',(0.E0,1.040834085600E-13,-1.E0));
#532=DIRECTION('',(0.E0,1.E0,1.040834085600E-13));
#533=AXIS2_PLACEMENT_3D('',#530,#531,#532);
#534=PLANE('',#533);
#535=ORIENTED_EDGE('',*,*,#431,.F.);
#537=ORIENTED_EDGE('',*,*,#536,.T.);
#538=ORIENTED_EDGE('',*,*,#474,.F.);
#539=ORIENTED_EDGE('',*,*,#523,.T.);
#540=EDGE_LOOP('',(#535,#537,#538,#539));
#541=FACE_OUTER_BOUND('',#540,.F.);
#543=CARTESIAN_POINT('',(-2.834645669291E-1,-2.440944881890E-1,
4.811816541260E-1));
#544=DIRECTION('',(1.E0,0.E0,0.E0));
#545=DIRECTION('',(0.E0,1.E0,0.E0));
#546=AXIS2_PLACEMENT_3D('',#543,#544,#545);
#547=CYLINDRICAL_SURFACE('',#546,5.905511811180E-3);
#548=ORIENTED_EDGE('',*,*,#429,.F.);
#550=ORIENTED_EDGE('',*,*,#549,.F.);
#551=ORIENTED_EDGE('',*,*,#476,.F.);
#552=ORIENTED_EDGE('',*,*,#536,.F.);
#553=EDGE_LOOP('',(#548,#550,#551,#552));
#554=FACE_OUTER_BOUND('',#553,.F.);
#556=CARTESIAN_POINT('',(-2.834645669291E-1,-2.478904780100E-1,
4.857055386328E-1));
#557=DIRECTION('',(0.E0,6.427876096806E-1,-7.660444431239E-1));
#558=DIRECTION('',(0.E0,7.660444431239E-1,6.427876096806E-1));
#559=AXIS2_PLACEMENT_3D('',#556,#557,#558);
#560=PLANE('',#559);
#561=ORIENTED_EDGE('',*,*,#427,.F.);
#562=ORIENTED_EDGE('',*,*,#456,.T.);
#563=ORIENTED_EDGE('',*,*,#478,.F.);
#564=ORIENTED_EDGE('',*,*,#549,.T.);
#565=EDGE_LOOP('',(#561,#562,#563,#564));
#566=FACE_OUTER_BOUND('',#565,.F.);
#568=CARTESIAN_POINT('',(-2.834645669291E-1,-2.505944180505E-1,
5.465575213793E-1));
#569=DIRECTION('',(0.E0,-8.660254037844E-1,-5.E-1));
#570=DIRECTION('',(0.E0,5.E-1,-8.660254037844E-1));
#571=AXIS2_PLACEMENT_3D('',#568,#569,#570);
#572=PLANE('',#571);
#573=ORIENTED_EDGE('',*,*,#441,.F.);
#574=ORIENTED_EDGE('',*,*,#498,.T.);
#575=ORIENTED_EDGE('',*,*,#483,.F.);
#576=ORIENTED_EDGE('',*,*,#394,.F.);
#577=ORIENTED_EDGE('',*,*,#374,.T.);
#578=ORIENTED_EDGE('',*,*,#390,.T.);
#579=EDGE_LOOP('',(#573,#574,#575,#576,#577,#578));
#580=FACE_OUTER_BOUND('',#579,.F.);
#584=FILL_AREA_STYLE_COLOUR('',#5);
#585=FILL_AREA_STYLE('',(#584));
#586=SURFACE_STYLE_FILL_AREA(#585);
#587=SURFACE_SIDE_STYLE('',(#586));
#588=SURFACE_STYLE_USAGE(.BOTH.,#587);
#589=PRESENTATION_STYLE_ASSIGNMENT((#588));
#16=STYLED_ITEM('',(#589),#583);
#590=PRESENTATION_LAYER_ASSIGNMENT('SHELL_260','',(#16,#380,#402,#418,#446,#460,
#487,#503,#516,#529,#542,#555,#567,#581));
#592=LENGTH_MEASURE_WITH_UNIT(LENGTH_MEASURE(2.54E1),#591);
#593=(CONVERSION_BASED_UNIT('INCH',#592)LENGTH_UNIT()NAMED_UNIT(*));
#595=PLANE_ANGLE_MEASURE_WITH_UNIT(PLANE_ANGLE_MEASURE(1.745329251994E-2),#594);
#596=(CONVERSION_BASED_UNIT('DEGREE',#595)NAMED_UNIT(*)PLANE_ANGLE_UNIT());
#598=UNCERTAINTY_MEASURE_WITH_UNIT(LENGTH_MEASURE(1.145982255268E-5),#593,
'closure',
'Maximum model space distance between geometric entities at asserted connectivities');
#600=CARTESIAN_POINT('',(0.E0,0.E0,0.E0));
#601=DIRECTION('',(0.E0,0.E0,1.E0));
#602=DIRECTION('',(1.E0,0.E0,0.E0));
#605=MECHANICAL_DESIGN_GEOMETRIC_PRESENTATION_REPRESENTATION('',(#24,#34,#41,
#52,#62,#69,#76,#89,#102,#109,#116,#123,#130,#137,#146,#153,#165,#175,#182,#190,
#197,#204,#215,#222,#233,#240,#247,#254,#263,#270,#279,#286,#293,#300,#307,#314,
#325,#16),#599);
#606=APPLICATION_CONTEXT('automotive design');
#607=APPLICATION_PROTOCOL_DEFINITION('international standard',
'config_control_design',1994,#606);
#608=PRODUCT_DEFINITION_CONTEXT('',#606,'design');
#609=PRODUCT_CONTEXT('',#606,'mechanical');
#610=PRODUCT('CUT-EXTRUDE34200','CUT-EXTRUDE34200','NOT SPECIFIED',(#609));
#611=PRODUCT_DEFINITION_FORMATION_WITH_SPECIFIED_SOURCE('1','LAST_VERSION',#610,
.MADE.);
#619=LENGTH_MEASURE_WITH_UNIT(LENGTH_MEASURE(2.54E1),#618);
#620=(CONVERSION_BASED_UNIT('INCH',#619)LENGTH_UNIT()NAMED_UNIT(*));
#621=DERIVED_UNIT_ELEMENT(#620,2.E0);
#622=AREA_UNIT((#621));
#623=MEASURE_REPRESENTATION_ITEM('surface area measure',AREA_MEASURE(
9.190993888568E0),#622);
#628=LENGTH_MEASURE_WITH_UNIT(LENGTH_MEASURE(2.54E1),#627);
#629=(CONVERSION_BASED_UNIT('INCH',#628)LENGTH_UNIT()NAMED_UNIT(*));
#630=DERIVED_UNIT_ELEMENT(#629,3.E0);
#631=VOLUME_UNIT((#630));
#632=MEASURE_REPRESENTATION_ITEM('volume measure',VOLUME_MEASURE(
1.038196737488E0),#631);
#636=CARTESIAN_POINT('centre point',(4.939999886163E0,-6.114802928402E0,
1.314865342384E1));
#641=LENGTH_MEASURE_WITH_UNIT(LENGTH_MEASURE(2.54E1),#640);
#642=(CONVERSION_BASED_UNIT('INCH',#641)LENGTH_UNIT()NAMED_UNIT(*));
#643=DERIVED_UNIT_ELEMENT(#642,2.E0);
#644=AREA_UNIT((#643));
#645=MEASURE_REPRESENTATION_ITEM('surface area measure',AREA_MEASURE(
9.190993888568E0),#644);
#650=LENGTH_MEASURE_WITH_UNIT(LENGTH_MEASURE(2.54E1),#649);
#651=(CONVERSION_BASED_UNIT('INCH',#650)LENGTH_UNIT()NAMED_UNIT(*));
#652=DERIVED_UNIT_ELEMENT(#651,3.E0);
#653=VOLUME_UNIT((#652));
#654=MEASURE_REPRESENTATION_ITEM('volume measure',VOLUME_MEASURE(
1.038196737488E0),#653);
#658=CARTESIAN_POINT('centre point',(4.939999886163E0,-6.114802928402E0,
1.314865342384E1));
#1=DRAUGHTING_PRE_DEFINED_COLOUR('green');
#2=COLOUR_RGB('',1.1E-2,1.2E-2,1.E0);
#3=COLOUR_RGB('',2.352941176471E-1,2.352941176471E-1,2.352941176471E-1);
#4=COLOUR_RGB('',4.1E-1,2.61589E-1,1.12848E-1);
#5=COLOUR_RGB('',4.980392156863E-1,4.980392156863E-1,4.980392156863E-1);
#6=COLOUR_RGB('',5.04854E-1,1.5455E-2,1.5455E-2);
#7=COLOUR_RGB('',6.35294E-1,6.86275E-1,7.4902E-1);
#8=COLOUR_RGB('',6.40777E-1,6.40777E-1,6.40777E-1);
#9=COLOUR_RGB('',6.69062E-1,6.69903E-1,6.55217E-1);
#10=COLOUR_RGB('',9.21569E-1,7.05882E-1,4.70588E-1);
#11=DRAUGHTING_PRE_DEFINED_COLOUR('red');
#12=DRAUGHTING_PRE_DEFINED_COLOUR('yellow');
#13=COLOUR_RGB('',1.E0,1.E0,5.3E-1);
#14=COLOUR_RGB('',1.E0,1.E0,9.49E-1);
#15=DRAUGHTING_PRE_DEFINED_COLOUR('white');
#31=B_SPLINE_CURVE_WITH_KNOTS('',3,(#25,#26,#27,#28,#29,#30),.UNSPECIFIED.,.F.,
.F.,(4,1,1,4),(0.E0,2.5E-1,5.E-1,1.E0),.UNSPECIFIED.);
#49=B_SPLINE_CURVE_WITH_KNOTS('',3,(#42,#43,#44,#45,#46,#47,#48),.UNSPECIFIED.,
.F.,.F.,(4,1,1,1,4),(0.E0,2.5E-1,5.E-1,7.5E-1,1.E0),.UNSPECIFIED.);
#59=B_SPLINE_CURVE_WITH_KNOTS('',3,(#53,#54,#55,#56,#57,#58),.UNSPECIFIED.,.F.,
.F.,(4,1,1,4),(0.E0,2.5E-1,5.E-1,1.E0),.UNSPECIFIED.);
#86=B_SPLINE_CURVE_WITH_KNOTS('',3,(#77,#78,#79,#80,#81,#82,#83,#84,#85),
.UNSPECIFIED.,.F.,.F.,(4,1,1,1,1,1,4),(0.E0,1.25E-1,2.5E-1,5.E-1,7.5E-1,8.75E-1,
1.E0),.UNSPECIFIED.);
#99=B_SPLINE_CURVE_WITH_KNOTS('',3,(#90,#91,#92,#93,#94,#95,#96,#97,#98),
.UNSPECIFIED.,.F.,.F.,(4,1,1,1,1,1,4),(0.E0,1.25E-1,2.5E-1,5.E-1,7.5E-1,8.75E-1,
1.E0),.UNSPECIFIED.);
#143=B_SPLINE_CURVE_WITH_KNOTS('',3,(#138,#139,#140,#141,#142),.UNSPECIFIED.,
.F.,.F.,(4,1,4),(0.E0,5.E-1,1.E0),.UNSPECIFIED.);
#162=B_SPLINE_CURVE_WITH_KNOTS('',3,(#154,#155,#156,#157,#158,#159,#160,#161),
.UNSPECIFIED.,.F.,.F.,(4,1,1,1,1,4),(0.E0,2.E-1,4.E-1,6.E-1,8.E-1,1.E0),
.UNSPECIFIED.);
#172=B_SPLINE_CURVE_WITH_KNOTS('',3,(#166,#167,#168,#169,#170,#171),
.UNSPECIFIED.,.F.,.F.,(4,1,1,4),(0.E0,3.333333333333E-1,6.666666666667E-1,1.E0),
.UNSPECIFIED.);
#187=B_SPLINE_CURVE_WITH_KNOTS('',3,(#183,#184,#185,#186),.UNSPECIFIED.,.F.,.F.,
(4,4),(0.E0,1.E0),.UNSPECIFIED.);
#212=B_SPLINE_CURVE_WITH_KNOTS('',3,(#205,#206,#207,#208,#209,#210,#211),
.UNSPECIFIED.,.F.,.F.,(4,1,1,1,4),(0.E0,2.5E-1,5.E-1,7.5E-1,1.E0),
.UNSPECIFIED.);
#230=B_SPLINE_CURVE_WITH_KNOTS('',3,(#223,#224,#225,#226,#227,#228,#229),
.UNSPECIFIED.,.F.,.F.,(4,1,1,1,4),(0.E0,2.5E-1,5.E-1,7.5E-1,1.E0),
.UNSPECIFIED.);
#260=B_SPLINE_CURVE_WITH_KNOTS('',3,(#255,#256,#257,#258,#259),.UNSPECIFIED.,
.F.,.F.,(4,1,4),(0.E0,5.E-1,1.E0),.UNSPECIFIED.);
#276=B_SPLINE_CURVE_WITH_KNOTS('',3,(#271,#272,#273,#274,#275),.UNSPECIFIED.,
.F.,.F.,(4,1,4),(0.E0,5.E-1,1.E0),.UNSPECIFIED.);
#322=B_SPLINE_CURVE_WITH_KNOTS('',3,(#315,#316,#317,#318,#319,#320,#321),
.UNSPECIFIED.,.F.,.F.,(4,1,1,1,4),(0.E0,2.5E-1,5.E-1,7.5E-1,1.E0),
.UNSPECIFIED.);
#372=EDGE_CURVE('',#362,#333,#59,.T.);
#374=EDGE_CURVE('',#332,#333,#20,.T.);
#376=EDGE_CURVE('',#362,#332,#31,.T.);
#380=ADVANCED_FACE('',(#379),#371,.T.);
#386=EDGE_CURVE('',#357,#351,#86,.T.);
#388=EDGE_CURVE('',#354,#351,#38,.T.);
#390=EDGE_CURVE('',#333,#354,#49,.T.);
#394=EDGE_CURVE('',#332,#328,#322,.T.);
#396=EDGE_CURVE('',#358,#328,#66,.T.);
#398=EDGE_CURVE('',#358,#357,#99,.T.);
#402=ADVANCED_FACE('',(#401),#385,.T.);
#408=EDGE_CURVE('',#351,#352,#73,.T.);
#412=EDGE_CURVE('',#364,#358,#106,.T.);
#414=EDGE_CURVE('',#352,#364,#113,.T.);
#418=ADVANCED_FACE('',(#417),#407,.T.);
#425=EDGE_CURVE('',#352,#356,#120,.T.);
#427=EDGE_CURVE('',#356,#360,#290,.T.);
#429=EDGE_CURVE('',#360,#346,#260,.T.);
#431=EDGE_CURVE('',#346,#336,#244,.T.);
#433=EDGE_CURVE('',#336,#337,#212,.T.);
#435=EDGE_CURVE('',#337,#339,#194,.T.);
#437=EDGE_CURVE('',#339,#361,#143,.T.);
#439=EDGE_CURVE('',#361,#348,#187,.T.);
#441=EDGE_CURVE('',#348,#354,#304,.T.);
#446=ADVANCED_FACE('',(#445),#423,.F.);
#454=EDGE_CURVE('',#366,#364,#127,.T.);
#456=EDGE_CURVE('',#356,#366,#134,.T.);
#460=ADVANCED_FACE('',(#459),#451,.T.);
#466=EDGE_CURVE('',#329,#334,#172,.T.);
#468=EDGE_CURVE('',#334,#335,#162,.T.);
#470=EDGE_CURVE('',#335,#340,#201,.T.);
#472=EDGE_CURVE('',#340,#341,#230,.T.);
#474=EDGE_CURVE('',#341,#343,#251,.T.);
#476=EDGE_CURVE('',#343,#344,#276,.T.);
#478=EDGE_CURVE('',#344,#366,#297,.T.);
#483=EDGE_CURVE('',#328,#329,#311,.T.);
#487=ADVANCED_FACE('',(#486),#465,.F.);
#494=EDGE_CURVE('',#335,#339,#150,.T.);
#498=EDGE_CURVE('',#348,#329,#179,.T.);
#503=ADVANCED_FACE('',(#502),#492,.F.);
#510=EDGE_CURVE('',#337,#340,#237,.T.);
#516=ADVANCED_FACE('',(#515),#508,.T.);
#523=EDGE_CURVE('',#341,#336,#219,.T.);
#529=ADVANCED_FACE('',(#528),#521,.T.);
#536=EDGE_CURVE('',#346,#343,#283,.T.);
#542=ADVANCED_FACE('',(#541),#534,.T.);
#549=EDGE_CURVE('',#344,#360,#267,.T.);
#555=ADVANCED_FACE('',(#554),#547,.F.);
#567=ADVANCED_FACE('',(#566),#560,.T.);
#581=ADVANCED_FACE('',(#580),#572,.T.);
#582=CLOSED_SHELL('',(#380,#402,#418,#446,#460,#487,#503,#516,#529,#542,#555,
#567,#581));
#583=MANIFOLD_SOLID_BREP('',#582);
#591=(LENGTH_UNIT()NAMED_UNIT(*)SI_UNIT(.MILLI.,.METRE.));
#594=(NAMED_UNIT(*)PLANE_ANGLE_UNIT()SI_UNIT($,.RADIAN.));
#597=(NAMED_UNIT(*)SI_UNIT($,.STERADIAN.)SOLID_ANGLE_UNIT());
#599=(GEOMETRIC_REPRESENTATION_CONTEXT(3)GLOBAL_UNCERTAINTY_ASSIGNED_CONTEXT((
#598))GLOBAL_UNIT_ASSIGNED_CONTEXT((#593,#596,#597))REPRESENTATION_CONTEXT
('ID1','3'));
#603=AXIS2_PLACEMENT_3D('',#600,#601,#602);
#604=ADVANCED_BREP_SHAPE_REPRESENTATION('',(#603,#583),#599);
#612=PRODUCT_DEFINITION('design','',#611,#608);
#613=PRODUCT_DEFINITION_SHAPE('','SHAPE FOR CUT-EXTRUDE34200.',#612);
#614=SHAPE_ASPECT('','solid data associated with CUT-EXTRUDE34200',#613,.F.);
#615=PROPERTY_DEFINITION('',
'shape for solid data with which properties are associated',#614);
#616=SHAPE_REPRESENTATION('',(#583),#599);
#617=SHAPE_DEFINITION_REPRESENTATION(#615,#616);
#618=(LENGTH_UNIT()NAMED_UNIT(*)SI_UNIT(.MILLI.,.METRE.));
#624=PROPERTY_DEFINITION('geometric validation property',
'area of CUT-EXTRUDE34200',#614);
#625=REPRESENTATION('surface area',(#623),#599);
#626=PROPERTY_DEFINITION_REPRESENTATION(#624,#625);
#627=(LENGTH_UNIT()NAMED_UNIT(*)SI_UNIT(.MILLI.,.METRE.));
#633=PROPERTY_DEFINITION('geometric validation property',
'volume of CUT-EXTRUDE34200',#614);
#634=REPRESENTATION('volume',(#632),#599);
#635=PROPERTY_DEFINITION_REPRESENTATION(#633,#634);
#637=PROPERTY_DEFINITION('geometric validation property',
'centroid of CUT-EXTRUDE34200',#614);
#638=REPRESENTATION('centroid',(#636),#599);
#639=PROPERTY_DEFINITION_REPRESENTATION(#637,#638);
#640=(LENGTH_UNIT()NAMED_UNIT(*)SI_UNIT(.MILLI.,.METRE.));
#646=PROPERTY_DEFINITION('geometric validation property',
'area of CUT-EXTRUDE34200',#613);
#647=REPRESENTATION('surface area',(#645),#599);
#648=PROPERTY_DEFINITION_REPRESENTATION(#646,#647);
#649=(LENGTH_UNIT()NAMED_UNIT(*)SI_UNIT(.MILLI.,.METRE.));
#655=PROPERTY_DEFINITION('geometric validation property',
'volume of CUT-EXTRUDE34200',#613);
#656=REPRESENTATION('volume',(#654),#599);
#657=PROPERTY_DEFINITION_REPRESENTATION(#655,#656);
#659=PROPERTY_DEFINITION('geometric validation property',
'centroid of CUT-EXTRUDE34200',#613);
#660=REPRESENTATION('centroid',(#658),#599);
#661=PROPERTY_DEFINITION_REPRESENTATION(#659,#660);
#662=SHAPE_DEFINITION_REPRESENTATION(#613,#604);
ENDSEC;
END-ISO-10303-21;
