ISO-10303-21;
HEADER;
FILE_DESCRIPTION((''),'2;1');
FILE_NAME('CUT-EXTRUDE13200','2026-06-15T13:46:17',('Esia'),(''),
'CREO PARAMETRIC BY PTC INC, 2025102','CREO PARAMETRIC BY PTC INC, 2025102','');
FILE_SCHEMA((
'AP242_MANAGED_MODEL_BASED_3D_ENGINEERING_MIM_LF { 1 0 10303 442 1 1 4 }'));
ENDSEC;
DATA;
#17=DIRECTION('',(1.E0,0.E0,0.E0));
#18=VECTOR('',#17,6.215274237914E-3);
#19=CARTESIAN_POINT('',(6.732283464437E-2,-4.930311261958E-2,
1.598003850511E-2));
#20=LINE('',#19,#18);
#21=DRAUGHTING_PRE_DEFINED_CURVE_FONT('continuous');
#22=CURVE_STYLE('',#21,POSITIVE_LENGTH_MEASURE(2.E-2),#9);
#23=PRESENTATION_STYLE_ASSIGNMENT((#22));
#24=STYLED_ITEM('',(#23),#20);
#25=DIRECTION('',(-1.E0,0.E0,0.E0));
#26=VECTOR('',#25,6.215274237914E-3);
#27=CARTESIAN_POINT('',(7.353810888229E-2,-5.118110236090E-2,
1.166098350511E-2));
#28=LINE('',#27,#26);
#29=CURVE_STYLE('',#21,POSITIVE_LENGTH_MEASURE(2.E-2),#9);
#30=PRESENTATION_STYLE_ASSIGNMENT((#29));
#31=STYLED_ITEM('',(#30),#28);
#32=DIRECTION('',(0.E0,-7.313537016192E-1,-6.819983600625E-1));
#33=VECTOR('',#32,1.908872618128E-2);
#34=CARTESIAN_POINT('',(7.353810888229E-2,-3.937007873891E-2,
3.331749930232E-2));
#35=LINE('',#34,#33);
#36=CURVE_STYLE('',#21,POSITIVE_LENGTH_MEASURE(2.E-2),#9);
#37=PRESENTATION_STYLE_ASSIGNMENT((#36));
#38=STYLED_ITEM('',(#37),#35);
#39=DIRECTION('',(0.E0,7.313542882423E-1,6.819977309856E-1));
#40=VECTOR('',#39,1.358169910310E-2);
#41=CARTESIAN_POINT('',(7.353810888229E-2,-4.930311261958E-2,
1.598003850511E-2));
#42=LINE('',#41,#40);
#43=CURVE_STYLE('',#21,POSITIVE_LENGTH_MEASURE(2.E-2),#9);
#44=PRESENTATION_STYLE_ASSIGNMENT((#43));
#45=STYLED_ITEM('',(#44),#42);
#46=CARTESIAN_POINT('',(7.353810888229E-2,-4.527559054989E-2,
1.166098350511E-2));
#47=DIRECTION('',(-1.E0,0.E0,0.E0));
#48=DIRECTION('',(0.E0,-1.E0,2.332053531769E-12));
#49=AXIS2_PLACEMENT_3D('',#46,#47,#48);
#51=CURVE_STYLE('',#21,POSITIVE_LENGTH_MEASURE(2.E-2),#9);
#52=PRESENTATION_STYLE_ASSIGNMENT((#51));
#53=STYLED_ITEM('',(#52),#50);
#54=CARTESIAN_POINT('',(7.353810888229E-2,-4.527559054989E-2,
1.166098350511E-2));
#55=DIRECTION('',(1.E0,0.E0,0.E0));
#56=DIRECTION('',(0.E0,-6.819983600623E-1,7.313537016194E-1));
#57=AXIS2_PLACEMENT_3D('',#54,#55,#56);
#59=CURVE_STYLE('',#21,POSITIVE_LENGTH_MEASURE(2.E-2),#9);
#60=PRESENTATION_STYLE_ASSIGNMENT((#59));
#61=STYLED_ITEM('',(#60),#58);
#62=DIRECTION('',(1.E0,0.E0,0.E0));
#63=VECTOR('',#62,1.658741510100E-3);
#64=CARTESIAN_POINT('',(7.353810888229E-2,-3.937007873891E-2,
3.331749930232E-2));
#65=LINE('',#64,#63);
#66=CURVE_STYLE('',#21,POSITIVE_LENGTH_MEASURE(2.E-2),#9);
#67=PRESENTATION_STYLE_ASSIGNMENT((#66));
#68=STYLED_ITEM('',(#67),#65);
#69=DIRECTION('',(4.999999999992E-1,-6.333708847543E-1,-5.906279051537E-1));
#70=VECTOR('',#69,1.968503937012E-3);
#71=CARTESIAN_POINT('',(6.633858267587E-2,-5.001504288359E-2,
2.339090964602E-2));
#72=LINE('',#71,#70);
#73=CURVE_STYLE('',#21,POSITIVE_LENGTH_MEASURE(2.E-2),#9);
#74=PRESENTATION_STYLE_ASSIGNMENT((#73));
#75=STYLED_ITEM('',(#74),#72);
#76=DIRECTION('',(1.E0,0.E0,1.011662975519E-11));
#77=VECTOR('',#76,1.968503937193E-4);
#78=CARTESIAN_POINT('',(6.614173228215E-2,-3.937007873885E-2,
3.331749930238E-2));
#79=LINE('',#78,#77);
#80=CURVE_STYLE('',#21,POSITIVE_LENGTH_MEASURE(2.E-2),#9);
#81=PRESENTATION_STYLE_ASSIGNMENT((#80));
#82=STYLED_ITEM('',(#81),#79);
#83=DIRECTION('',(0.E0,0.E0,-1.E0));
#84=VECTOR('',#83,8.074772825970E-3);
#85=CARTESIAN_POINT('',(7.353810888229E-2,-3.937007873891E-2,
3.331749930232E-2));
#86=LINE('',#85,#84);
#87=CURVE_STYLE('',#21,POSITIVE_LENGTH_MEASURE(2.E-2),#9);
#88=PRESENTATION_STYLE_ASSIGNMENT((#87));
#89=STYLED_ITEM('',(#88),#86);
#90=DIRECTION('',(0.E0,0.E0,-1.E0));
#91=VECTOR('',#90,8.074772825970E-3);
#92=CARTESIAN_POINT('',(7.519685039239E-2,-3.937007873891E-2,
3.331749930232E-2));
#93=LINE('',#92,#91);
#94=CURVE_STYLE('',#21,POSITIVE_LENGTH_MEASURE(2.E-2),#9);
#95=PRESENTATION_STYLE_ASSIGNMENT((#94));
#96=STYLED_ITEM('',(#95),#93);
#97=DIRECTION('',(0.E0,-7.313537016192E-1,-6.819983600624E-1));
#98=VECTOR('',#97,7.108661666343E-3);
#99=CARTESIAN_POINT('',(7.519685039239E-2,-3.417113271567E-2,
3.816559490101E-2));
#100=LINE('',#99,#98);
#101=CURVE_STYLE('',#21,POSITIVE_LENGTH_MEASURE(2.E-2),#9);
#102=PRESENTATION_STYLE_ASSIGNMENT((#101));
#103=STYLED_ITEM('',(#102),#100);
#104=CARTESIAN_POINT('',(7.519685039239E-2,-2.611603397477E-2,
2.952755905512E-2));
#105=DIRECTION('',(1.E0,0.E0,0.E0));
#106=DIRECTION('',(0.E0,-2.408721370510E-13,1.E0));
#107=AXIS2_PLACEMENT_3D('',#104,#105,#106);
#109=CURVE_STYLE('',#21,POSITIVE_LENGTH_MEASURE(2.E-2),#9);
#110=PRESENTATION_STYLE_ASSIGNMENT((#109));
#111=STYLED_ITEM('',(#110),#108);
#112=CARTESIAN_POINT('',(7.519685039239E-2,2.615761527983E-12,
4.724409448819E-2));
#113=DIRECTION('',(-1.E0,0.E0,0.E0));
#114=DIRECTION('',(0.E0,1.E0,-2.702467879108E-14));
#115=AXIS2_PLACEMENT_3D('',#112,#113,#114);
#117=CURVE_STYLE('',#21,POSITIVE_LENGTH_MEASURE(2.E-2),#9);
#118=PRESENTATION_STYLE_ASSIGNMENT((#117));
#119=STYLED_ITEM('',(#118),#116);
#120=CARTESIAN_POINT('',(7.519685039239E-2,2.615761527983E-12,
4.724409448819E-2));
#121=DIRECTION('',(1.E0,0.E0,0.E0));
#122=DIRECTION('',(0.E0,0.E0,-1.E0));
#123=AXIS2_PLACEMENT_3D('',#120,#121,#122);
#125=CURVE_STYLE('',#21,POSITIVE_LENGTH_MEASURE(2.E-2),#9);
#126=PRESENTATION_STYLE_ASSIGNMENT((#125));
#127=STYLED_ITEM('',(#126),#124);
#128=CARTESIAN_POINT('',(7.519685039239E-2,-2.611603397477E-2,
2.952755905512E-2));
#129=DIRECTION('',(-1.E0,0.E0,0.E0));
#130=DIRECTION('',(0.E0,-6.801905651567E-1,7.330353300298E-1));
#131=AXIS2_PLACEMENT_3D('',#128,#129,#130);
#133=CURVE_STYLE('',#21,POSITIVE_LENGTH_MEASURE(2.E-2),#9);
#134=PRESENTATION_STYLE_ASSIGNMENT((#133));
#135=STYLED_ITEM('',(#134),#132);
#136=DIRECTION('',(0.E0,7.313545015893E-1,6.819975021985E-1));
#137=VECTOR('',#136,1.263022423161E-2);
#138=CARTESIAN_POINT('',(7.519685039239E-2,-3.937007873891E-2,
2.524272647635E-2));
#139=LINE('',#138,#137);
#140=CURVE_STYLE('',#21,POSITIVE_LENGTH_MEASURE(2.E-2),#9);
#141=PRESENTATION_STYLE_ASSIGNMENT((#140));
#142=STYLED_ITEM('',(#141),#139);
#143=DIRECTION('',(1.E0,-3.954083437486E-13,-3.164799340468E-13));
#144=VECTOR('',#143,9.055118110236E-3);
#145=CARTESIAN_POINT('',(6.614173228215E-2,-3.417113271567E-2,
3.816559490101E-2));
#146=LINE('',#145,#144);
#147=CURVE_STYLE('',#21,POSITIVE_LENGTH_MEASURE(2.E-2),#9);
#148=PRESENTATION_STYLE_ASSIGNMENT((#147));
#149=STYLED_ITEM('',(#148),#146);
#150=DIRECTION('',(-1.E0,0.E0,0.E0));
#151=VECTOR('',#150,9.055118110236E-3);
#152=CARTESIAN_POINT('',(7.519685039239E-2,-2.611603397477E-2,
4.133858267717E-2));
#153=LINE('',#152,#151);
#154=CURVE_STYLE('',#21,POSITIVE_LENGTH_MEASURE(2.E-2),#9);
#155=PRESENTATION_STYLE_ASSIGNMENT((#154));
#156=STYLED_ITEM('',(#155),#153);
#157=DIRECTION('',(0.E0,-7.313542349354E-1,-6.819977881504E-1));
#158=VECTOR('',#157,1.263016091457E-2);
#159=CARTESIAN_POINT('',(6.614173228215E-2,-3.013295706606E-2,
3.385646973576E-2));
#160=LINE('',#159,#158);
#161=CURVE_STYLE('',#21,POSITIVE_LENGTH_MEASURE(2.E-2),#9);
#162=PRESENTATION_STYLE_ASSIGNMENT((#161));
#163=STYLED_ITEM('',(#162),#160);
#164=CARTESIAN_POINT('',(6.614173228215E-2,-2.611603397477E-2,
2.952755905512E-2));
#165=DIRECTION('',(1.E0,0.E0,0.E0));
#166=DIRECTION('',(0.E0,-3.475608689739E-12,1.E0));
#167=AXIS2_PLACEMENT_3D('',#164,#165,#166);
#169=CURVE_STYLE('',#21,POSITIVE_LENGTH_MEASURE(2.E-2),#9);
#170=PRESENTATION_STYLE_ASSIGNMENT((#169));
#171=STYLED_ITEM('',(#170),#168);
#172=CARTESIAN_POINT('',(6.614173228215E-2,2.615761527983E-12,
4.724409448819E-2));
#173=DIRECTION('',(-1.E0,0.E0,0.E0));
#174=DIRECTION('',(0.E0,1.E0,0.E0));
#175=AXIS2_PLACEMENT_3D('',#172,#173,#174);
#177=CURVE_STYLE('',#21,POSITIVE_LENGTH_MEASURE(2.E-2),#9);
#178=PRESENTATION_STYLE_ASSIGNMENT((#177));
#179=STYLED_ITEM('',(#178),#176);
#180=CARTESIAN_POINT('',(6.614173228215E-2,2.615761527983E-12,
4.724409448819E-2));
#181=DIRECTION('',(1.E0,0.E0,0.E0));
#182=DIRECTION('',(0.E0,-2.933301749647E-14,-1.E0));
#183=AXIS2_PLACEMENT_3D('',#180,#181,#182);
#185=CURVE_STYLE('',#21,POSITIVE_LENGTH_MEASURE(2.E-2),#9);
#186=PRESENTATION_STYLE_ASSIGNMENT((#185));
#187=STYLED_ITEM('',(#186),#184);
#188=CARTESIAN_POINT('',(6.614173228215E-2,-2.611603397477E-2,
2.952755905512E-2));
#189=DIRECTION('',(-1.E0,0.E0,0.E0));
#190=DIRECTION('',(0.E0,-6.819983600628E-1,7.313537016189E-1));
#191=AXIS2_PLACEMENT_3D('',#188,#189,#190);
#193=CURVE_STYLE('',#21,POSITIVE_LENGTH_MEASURE(2.E-2),#9);
#194=PRESENTATION_STYLE_ASSIGNMENT((#193));
#195=STYLED_ITEM('',(#194),#192);
#196=DIRECTION('',(0.E0,7.313537016191E-1,6.819983600626E-1));
#197=VECTOR('',#196,7.108661666271E-3);
#198=CARTESIAN_POINT('',(6.614173228215E-2,-3.937007873885E-2,
3.331749930238E-2));
#199=LINE('',#198,#197);
#200=CURVE_STYLE('',#21,POSITIVE_LENGTH_MEASURE(2.E-2),#9);
#201=PRESENTATION_STYLE_ASSIGNMENT((#200));
#202=STYLED_ITEM('',(#201),#199);
#203=DIRECTION('',(0.E0,0.E0,1.E0));
#204=VECTOR('',#203,8.074771374336E-3);
#205=CARTESIAN_POINT('',(6.614173228215E-2,-3.937007873885E-2,
2.524272792804E-2));
#206=LINE('',#205,#204);
#207=CURVE_STYLE('',#21,POSITIVE_LENGTH_MEASURE(2.E-2),#9);
#208=PRESENTATION_STYLE_ASSIGNMENT((#207));
#209=STYLED_ITEM('',(#208),#206);
#210=DIRECTION('',(-1.E0,0.E0,0.E0));
#211=VECTOR('',#210,1.658741510100E-3);
#212=CARTESIAN_POINT('',(7.519685039239E-2,-3.937007873891E-2,
2.524272647635E-2));
#213=LINE('',#212,#211);
#214=CURVE_STYLE('',#21,POSITIVE_LENGTH_MEASURE(2.E-2),#9);
#215=PRESENTATION_STYLE_ASSIGNMENT((#214));
#216=STYLED_ITEM('',(#215),#213);
#217=DIRECTION('',(-9.999999999728E-1,0.E0,7.374294411995E-6));
#218=VECTOR('',#217,1.968503937246E-4);
#219=CARTESIAN_POINT('',(6.633858267587E-2,-3.937007873885E-2,
2.524272647641E-2));
#220=LINE('',#219,#218);
#221=CURVE_STYLE('',#21,POSITIVE_LENGTH_MEASURE(2.E-2),#9);
#222=PRESENTATION_STYLE_ASSIGNMENT((#221));
#223=STYLED_ITEM('',(#222),#220);
#224=DIRECTION('',(-4.999995282985E-1,6.333717767232E-1,5.906273479545E-1));
#225=VECTOR('',#224,1.968505794104E-3);
#226=CARTESIAN_POINT('',(6.732283464437E-2,-4.260270984682E-2,
2.222825628941E-2));
#227=LINE('',#226,#225);
#228=CURVE_STYLE('',#21,POSITIVE_LENGTH_MEASURE(2.E-2),#9);
#229=PRESENTATION_STYLE_ASSIGNMENT((#228));
#230=STYLED_ITEM('',(#229),#227);
#231=DIRECTION('',(1.E0,0.E0,0.E0));
#232=VECTOR('',#231,9.055118110236E-3);
#233=CARTESIAN_POINT('',(6.614173228215E-2,-2.611603397478E-2,
3.543307086614E-2));
#234=LINE('',#233,#232);
#235=CURVE_STYLE('',#21,POSITIVE_LENGTH_MEASURE(2.E-2),#9);
#236=PRESENTATION_STYLE_ASSIGNMENT((#235));
#237=STYLED_ITEM('',(#236),#234);
#238=DIRECTION('',(-9.999999999761E-1,-5.485850237358E-6,-4.209636310493E-6));
#239=VECTOR('',#238,9.055118110453E-3);
#240=CARTESIAN_POINT('',(7.519685039239E-2,-3.013290739104E-2,
3.385650785452E-2));
#241=LINE('',#240,#239);
#242=CURVE_STYLE('',#21,POSITIVE_LENGTH_MEASURE(2.E-2),#9);
#243=PRESENTATION_STYLE_ASSIGNMENT((#242));
#244=STYLED_ITEM('',(#243),#241);
#245=DIRECTION('',(0.E0,-1.E0,2.072419284541E-14));
#246=VECTOR('',#245,2.611603397739E-2);
#247=CARTESIAN_POINT('',(7.519685039239E-2,2.615762848377E-12,
3.543307086614E-2));
#248=LINE('',#247,#246);
#249=CURVE_STYLE('',#21,POSITIVE_LENGTH_MEASURE(2.E-2),#9);
#250=PRESENTATION_STYLE_ASSIGNMENT((#249));
#251=STYLED_ITEM('',(#250),#248);
#252=DIRECTION('',(0.E0,1.E0,-2.072419284541E-14));
#253=VECTOR('',#252,2.611603397739E-2);
#254=CARTESIAN_POINT('',(6.614173228215E-2,-2.611603397478E-2,
3.543307086614E-2));
#255=LINE('',#254,#253);
#256=CURVE_STYLE('',#21,POSITIVE_LENGTH_MEASURE(2.E-2),#9);
#257=PRESENTATION_STYLE_ASSIGNMENT((#256));
#258=STYLED_ITEM('',(#257),#255);
#259=DIRECTION('',(1.E0,0.E0,0.E0));
#260=VECTOR('',#259,9.055118110236E-3);
#261=CARTESIAN_POINT('',(6.614173228215E-2,1.181102362466E-2,
4.724409448819E-2));
#262=LINE('',#261,#260);
#263=CURVE_STYLE('',#21,POSITIVE_LENGTH_MEASURE(2.E-2),#9);
#264=PRESENTATION_STYLE_ASSIGNMENT((#263));
#265=STYLED_ITEM('',(#264),#262);
#266=DIRECTION('',(-1.E0,0.E0,0.E0));
#267=VECTOR('',#266,9.055118110236E-3);
#268=CARTESIAN_POINT('',(7.519685039239E-2,2.615762848377E-12,
3.543307086614E-2));
#269=LINE('',#268,#267);
#270=CURVE_STYLE('',#21,POSITIVE_LENGTH_MEASURE(2.E-2),#9);
#271=PRESENTATION_STYLE_ASSIGNMENT((#270));
#272=STYLED_ITEM('',(#271),#269);
#273=DIRECTION('',(0.E0,0.E0,-1.E0));
#274=VECTOR('',#273,3.148645669291E-2);
#275=CARTESIAN_POINT('',(7.519685039239E-2,1.181102362466E-2,
7.873055118110E-2));
#276=LINE('',#275,#274);
#277=CURVE_STYLE('',#21,POSITIVE_LENGTH_MEASURE(2.E-2),#9);
#278=PRESENTATION_STYLE_ASSIGNMENT((#277));
#279=STYLED_ITEM('',(#278),#276);
#280=DIRECTION('',(0.E0,0.E0,1.E0));
#281=VECTOR('',#280,3.148645669291E-2);
#282=CARTESIAN_POINT('',(6.614173228215E-2,1.181102362466E-2,
4.724409448819E-2));
#283=LINE('',#282,#281);
#284=CURVE_STYLE('',#21,POSITIVE_LENGTH_MEASURE(2.E-2),#9);
#285=PRESENTATION_STYLE_ASSIGNMENT((#284));
#286=STYLED_ITEM('',(#285),#283);
#287=DIRECTION('',(0.E0,1.E0,0.E0));
#288=VECTOR('',#287,5.905511811024E-3);
#289=CARTESIAN_POINT('',(7.519685039239E-2,5.905511813639E-3,
7.873055118110E-2));
#290=LINE('',#289,#288);
#291=CURVE_STYLE('',#21,POSITIVE_LENGTH_MEASURE(2.E-2),#9);
#292=PRESENTATION_STYLE_ASSIGNMENT((#291));
#293=STYLED_ITEM('',(#292),#290);
#294=DIRECTION('',(0.E0,-1.E0,0.E0));
#295=VECTOR('',#294,5.905511811024E-3);
#296=CARTESIAN_POINT('',(6.614173228215E-2,1.181102362466E-2,
7.873055118110E-2));
#297=LINE('',#296,#295);
#298=CURVE_STYLE('',#21,POSITIVE_LENGTH_MEASURE(2.E-2),#9);
#299=PRESENTATION_STYLE_ASSIGNMENT((#298));
#300=STYLED_ITEM('',(#299),#297);
#301=DIRECTION('',(-1.E0,0.E0,0.E0));
#302=VECTOR('',#301,9.055118110236E-3);
#303=CARTESIAN_POINT('',(7.519685039239E-2,1.181102362466E-2,
7.873055118110E-2));
#304=LINE('',#303,#302);
#305=CURVE_STYLE('',#21,POSITIVE_LENGTH_MEASURE(2.E-2),#9);
#306=PRESENTATION_STYLE_ASSIGNMENT((#305));
#307=STYLED_ITEM('',(#306),#304);
#308=DIRECTION('',(0.E0,0.E0,1.E0));
#309=VECTOR('',#308,3.148645669291E-2);
#310=CARTESIAN_POINT('',(7.519685039239E-2,5.905511813639E-3,
4.724409448819E-2));
#311=LINE('',#310,#309);
#312=CURVE_STYLE('',#21,POSITIVE_LENGTH_MEASURE(2.E-2),#9);
#313=PRESENTATION_STYLE_ASSIGNMENT((#312));
#314=STYLED_ITEM('',(#313),#311);
#315=DIRECTION('',(0.E0,0.E0,-1.E0));
#316=VECTOR('',#315,3.148645669291E-2);
#317=CARTESIAN_POINT('',(6.614173228215E-2,5.905511813639E-3,
7.873055118110E-2));
#318=LINE('',#317,#316);
#319=CURVE_STYLE('',#21,POSITIVE_LENGTH_MEASURE(2.E-2),#9);
#320=PRESENTATION_STYLE_ASSIGNMENT((#319));
#321=STYLED_ITEM('',(#320),#318);
#322=DIRECTION('',(-1.E0,0.E0,0.E0));
#323=VECTOR('',#322,9.055118110236E-3);
#324=CARTESIAN_POINT('',(7.519685039239E-2,5.905511813639E-3,
7.873055118110E-2));
#325=LINE('',#324,#323);
#326=CURVE_STYLE('',#21,POSITIVE_LENGTH_MEASURE(2.E-2),#9);
#327=PRESENTATION_STYLE_ASSIGNMENT((#326));
#328=STYLED_ITEM('',(#327),#325);
#329=DIRECTION('',(1.E0,0.E0,0.E0));
#330=VECTOR('',#329,9.055118110236E-3);
#331=CARTESIAN_POINT('',(6.614173228215E-2,2.615703785823E-12,
4.133858267717E-2));
#332=LINE('',#331,#330);
#333=CURVE_STYLE('',#21,POSITIVE_LENGTH_MEASURE(2.E-2),#9);
#334=PRESENTATION_STYLE_ASSIGNMENT((#333));
#335=STYLED_ITEM('',(#334),#332);
#336=DIRECTION('',(-1.E0,0.E0,0.E0));
#337=VECTOR('',#336,9.055118110236E-3);
#338=CARTESIAN_POINT('',(7.519685039239E-2,5.905511813639E-3,
4.724409448819E-2));
#339=LINE('',#338,#337);
#340=CURVE_STYLE('',#21,POSITIVE_LENGTH_MEASURE(2.E-2),#9);
#341=PRESENTATION_STYLE_ASSIGNMENT((#340));
#342=STYLED_ITEM('',(#341),#339);
#343=DIRECTION('',(0.E0,1.E0,0.E0));
#344=VECTOR('',#343,2.611603397739E-2);
#345=CARTESIAN_POINT('',(7.519685039239E-2,-2.611603397477E-2,
4.133858267717E-2));
#346=LINE('',#345,#344);
#347=CURVE_STYLE('',#21,POSITIVE_LENGTH_MEASURE(2.E-2),#9);
#348=PRESENTATION_STYLE_ASSIGNMENT((#347));
#349=STYLED_ITEM('',(#348),#346);
#350=DIRECTION('',(0.E0,-1.E0,0.E0));
#351=VECTOR('',#350,2.611603397739E-2);
#352=CARTESIAN_POINT('',(6.614173228215E-2,2.615703785823E-12,
4.133858267717E-2));
#353=LINE('',#352,#351);
#354=CURVE_STYLE('',#21,POSITIVE_LENGTH_MEASURE(2.E-2),#9);
#355=PRESENTATION_STYLE_ASSIGNMENT((#354));
#356=STYLED_ITEM('',(#355),#353);
#357=DIRECTION('',(0.E0,0.E0,1.E0));
#358=VECTOR('',#357,8.074772825970E-3);
#359=CARTESIAN_POINT('',(6.633858267587E-2,-3.937007873885E-2,
2.524272647641E-2));
#360=LINE('',#359,#358);
#361=CURVE_STYLE('',#21,POSITIVE_LENGTH_MEASURE(2.E-2),#9);
#362=PRESENTATION_STYLE_ASSIGNMENT((#361));
#363=STYLED_ITEM('',(#362),#360);
#364=DIRECTION('',(0.E0,7.313537016192E-1,6.819983600625E-1));
#365=VECTOR('',#364,1.455515179750E-2);
#366=CARTESIAN_POINT('',(6.633858267587E-2,-5.001504288359E-2,
2.339090964602E-2));
#367=LINE('',#366,#365);
#368=CURVE_STYLE('',#21,POSITIVE_LENGTH_MEASURE(2.E-2),#9);
#369=PRESENTATION_STYLE_ASSIGNMENT((#368));
#370=STYLED_ITEM('',(#369),#367);
#371=DIRECTION('',(0.E0,-7.313545015893E-1,-6.819975021985E-1));
#372=VECTOR('',#371,2.715283889484E-3);
#373=CARTESIAN_POINT('',(6.633858267587E-2,-3.937007873885E-2,
2.524272647641E-2));
#374=LINE('',#373,#372);
#375=CURVE_STYLE('',#21,POSITIVE_LENGTH_MEASURE(2.E-2),#9);
#376=PRESENTATION_STYLE_ASSIGNMENT((#375));
#377=STYLED_ITEM('',(#376),#374);
#378=DIRECTION('',(0.E0,-1.E0,0.E0));
#379=VECTOR('',#378,8.659126116993E-3);
#380=CARTESIAN_POINT('',(6.732283464437E-2,-4.260270984682E-2,
2.222825628941E-2));
#381=LINE('',#380,#379);
#382=CURVE_STYLE('',#21,POSITIVE_LENGTH_MEASURE(2.E-2),#9);
#383=PRESENTATION_STYLE_ASSIGNMENT((#382));
#384=STYLED_ITEM('',(#383),#381);
#385=DIRECTION('',(0.E0,1.E0,0.E0));
#386=VECTOR('',#385,8.659129049067E-3);
#387=CARTESIAN_POINT('',(6.633858267587E-2,-5.001504288359E-2,
2.339090964602E-2));
#388=LINE('',#387,#386);
#389=CURVE_STYLE('',#21,POSITIVE_LENGTH_MEASURE(2.E-2),#9);
#390=PRESENTATION_STYLE_ASSIGNMENT((#389));
#391=STYLED_ITEM('',(#390),#388);
#392=CARTESIAN_POINT('',(6.732283464437E-2,-4.527559054989E-2,
1.166098350511E-2));
#393=DIRECTION('',(1.E0,0.E0,0.E0));
#394=DIRECTION('',(0.E0,-6.819815471783E-1,7.313693795260E-1));
#395=AXIS2_PLACEMENT_3D('',#392,#393,#394);
#397=CURVE_STYLE('',#21,POSITIVE_LENGTH_MEASURE(2.E-2),#9);
#398=PRESENTATION_STYLE_ASSIGNMENT((#397));
#399=STYLED_ITEM('',(#398),#396);
#400=DIRECTION('',(-8.785673866782E-14,-7.313541853124E-1,-6.819978413646E-1));
#401=VECTOR('',#400,9.161638652404E-3);
#402=CARTESIAN_POINT('',(6.732283464437E-2,-4.260270984682E-2,
2.222825628941E-2));
#403=LINE('',#402,#401);
#404=CURVE_STYLE('',#21,POSITIVE_LENGTH_MEASURE(2.E-2),#9);
#405=PRESENTATION_STYLE_ASSIGNMENT((#404));
#406=STYLED_ITEM('',(#405),#403);
#407=DIRECTION('',(2.894476421901E-13,7.313537016192E-1,6.819983600625E-1));
#408=VECTOR('',#407,2.828799966949E-3);
#409=CARTESIAN_POINT('',(6.732283464437E-2,-5.333068929078E-2,
2.029901935101E-2));
#410=LINE('',#409,#408);
#411=CURVE_STYLE('',#21,POSITIVE_LENGTH_MEASURE(2.E-2),#9);
#412=PRESENTATION_STYLE_ASSIGNMENT((#411));
#413=STYLED_ITEM('',(#412),#410);
#414=CARTESIAN_POINT('',(6.732283464437E-2,-4.527559054989E-2,
1.166098350511E-2));
#415=DIRECTION('',(-1.E0,0.E0,0.E0));
#416=DIRECTION('',(0.E0,-9.166666666666E-1,3.996526269429E-1));
#417=AXIS2_PLACEMENT_3D('',#414,#415,#416);
#419=CURVE_STYLE('',#21,POSITIVE_LENGTH_MEASURE(2.E-2),#9);
#420=PRESENTATION_STYLE_ASSIGNMENT((#419));
#421=STYLED_ITEM('',(#420),#418);
#422=DIRECTION('',(0.E0,0.E0,1.E0));
#423=VECTOR('',#422,1.597003858322E-2);
#424=CARTESIAN_POINT('',(7.353810888229E-2,-5.610236220343E-2,
4.112515393235E-4));
#425=LINE('',#424,#423);
#426=CURVE_STYLE('',#21,POSITIVE_LENGTH_MEASURE(2.E-2),#9);
#427=PRESENTATION_STYLE_ASSIGNMENT((#426));
#428=STYLED_ITEM('',(#427),#425);
#429=DIRECTION('',(0.E0,0.E0,-1.E0));
#430=VECTOR('',#429,1.597003858322E-2);
#431=CARTESIAN_POINT('',(6.732283464437E-2,-5.610236220343E-2,
1.638129012255E-2));
#432=LINE('',#431,#430);
#433=CURVE_STYLE('',#21,POSITIVE_LENGTH_MEASURE(2.E-2),#9);
#434=PRESENTATION_STYLE_ASSIGNMENT((#433));
#435=STYLED_ITEM('',(#434),#432);
#436=DIRECTION('',(0.E0,-1.E0,0.E0));
#437=VECTOR('',#436,4.921259842534E-3);
#438=CARTESIAN_POINT('',(7.353810888229E-2,-5.118110236090E-2,
4.112515393235E-4));
#439=LINE('',#438,#437);
#440=CURVE_STYLE('',#21,POSITIVE_LENGTH_MEASURE(2.E-2),#9);
#441=PRESENTATION_STYLE_ASSIGNMENT((#440));
#442=STYLED_ITEM('',(#441),#439);
#443=DIRECTION('',(0.E0,1.E0,0.E0));
#444=VECTOR('',#443,4.921259842534E-3);
#445=CARTESIAN_POINT('',(6.732283464437E-2,-5.610236220343E-2,
4.112515393254E-4));
#446=LINE('',#445,#444);
#447=CURVE_STYLE('',#21,POSITIVE_LENGTH_MEASURE(2.E-2),#9);
#448=PRESENTATION_STYLE_ASSIGNMENT((#447));
#449=STYLED_ITEM('',(#448),#446);
#450=DIRECTION('',(-1.E0,0.E0,3.111950320401E-13));
#451=VECTOR('',#450,6.215274237914E-3);
#452=CARTESIAN_POINT('',(7.353810888229E-2,-5.610236220343E-2,
4.112515393235E-4));
#453=LINE('',#452,#451);
#454=CURVE_STYLE('',#21,POSITIVE_LENGTH_MEASURE(2.E-2),#9);
#455=PRESENTATION_STYLE_ASSIGNMENT((#454));
#456=STYLED_ITEM('',(#455),#453);
#457=DIRECTION('',(0.E0,4.194275800531E-14,-1.E0));
#458=VECTOR('',#457,1.124973196579E-2);
#459=CARTESIAN_POINT('',(7.353810888229E-2,-5.118110236090E-2,
1.166098350511E-2));
#460=LINE('',#459,#458);
#461=CURVE_STYLE('',#21,POSITIVE_LENGTH_MEASURE(2.E-2),#9);
#462=PRESENTATION_STYLE_ASSIGNMENT((#461));
#463=STYLED_ITEM('',(#462),#460);
#464=DIRECTION('',(0.E0,-4.132595274053E-14,1.E0));
#465=VECTOR('',#464,1.124973196579E-2);
#466=CARTESIAN_POINT('',(6.732283464437E-2,-5.118110236090E-2,
4.112515393254E-4));
#467=LINE('',#466,#465);
#468=CURVE_STYLE('',#21,POSITIVE_LENGTH_MEASURE(2.E-2),#9);
#469=PRESENTATION_STYLE_ASSIGNMENT((#468));
#470=STYLED_ITEM('',(#469),#467);
#471=DIRECTION('',(-1.E0,0.E0,3.111863099618E-13));
#472=VECTOR('',#471,6.215274237914E-3);
#473=CARTESIAN_POINT('',(7.353810888229E-2,-5.118110236090E-2,
4.112515393235E-4));
#474=LINE('',#473,#472);
#475=CURVE_STYLE('',#21,POSITIVE_LENGTH_MEASURE(2.E-2),#9);
#476=PRESENTATION_STYLE_ASSIGNMENT((#475));
#477=STYLED_ITEM('',(#476),#474);
#478=DIRECTION('',(1.E0,0.E0,0.E0));
#479=VECTOR('',#478,6.215274237914E-3);
#480=CARTESIAN_POINT('',(6.732283464437E-2,-5.610236220343E-2,
1.638129012255E-2));
#481=LINE('',#480,#479);
#482=CURVE_STYLE('',#21,POSITIVE_LENGTH_MEASURE(2.E-2),#9);
#483=PRESENTATION_STYLE_ASSIGNMENT((#482));
#484=STYLED_ITEM('',(#483),#481);
#485=DIRECTION('',(-1.E0,0.E0,0.E0));
#486=VECTOR('',#485,6.215274237914E-3);
#487=CARTESIAN_POINT('',(7.353810888229E-2,-5.333068929078E-2,
2.029901935101E-2));
#488=LINE('',#487,#486);
#489=CURVE_STYLE('',#21,POSITIVE_LENGTH_MEASURE(2.E-2),#9);
#490=PRESENTATION_STYLE_ASSIGNMENT((#489));
#491=STYLED_ITEM('',(#490),#488);
#492=CARTESIAN_POINT('',(7.353810888229E-2,-4.930311261958E-2,
1.598003850511E-2));
#493=CARTESIAN_POINT('',(7.353810888229E-2,-3.937007873891E-2,
2.524272647635E-2));
#494=VERTEX_POINT('',#492);
#495=VERTEX_POINT('',#493);
#496=CARTESIAN_POINT('',(7.519685039239E-2,-3.937007873891E-2,
3.331749930232E-2));
#497=CARTESIAN_POINT('',(7.519685039239E-2,-3.937007873891E-2,
2.524272647635E-2));
#498=VERTEX_POINT('',#496);
#499=VERTEX_POINT('',#497);
#500=CARTESIAN_POINT('',(6.614173228215E-2,-3.937007873885E-2,
3.331749930238E-2));
#501=CARTESIAN_POINT('',(6.633858267587E-2,-3.937007873885E-2,
3.331749930238E-2));
#502=VERTEX_POINT('',#500);
#503=VERTEX_POINT('',#501);
#504=CARTESIAN_POINT('',(7.353810888229E-2,-3.937007873891E-2,
3.331749930232E-2));
#505=VERTEX_POINT('',#504);
#506=CARTESIAN_POINT('',(7.353810888229E-2,-5.118110236090E-2,
1.166098350512E-2));
#507=VERTEX_POINT('',#506);
#508=CARTESIAN_POINT('',(7.353810888229E-2,-5.333068929078E-2,
2.029901935101E-2));
#509=VERTEX_POINT('',#508);
#510=CARTESIAN_POINT('',(6.732283464437E-2,-5.333068929078E-2,
2.029901935101E-2));
#511=VERTEX_POINT('',#510);
#512=CARTESIAN_POINT('',(6.633858267587E-2,-3.937007873885E-2,
2.524272647641E-2));
#513=VERTEX_POINT('',#512);
#514=CARTESIAN_POINT('',(7.353810888229E-2,-5.610236220343E-2,
1.638129012255E-2));
#515=VERTEX_POINT('',#514);
#516=CARTESIAN_POINT('',(6.732283464437E-2,-5.610236220343E-2,
4.112515393254E-4));
#517=CARTESIAN_POINT('',(6.732283464437E-2,-5.118110236090E-2,
4.112515393254E-4));
#518=VERTEX_POINT('',#516);
#519=VERTEX_POINT('',#517);
#520=CARTESIAN_POINT('',(7.353810888229E-2,-5.610236220343E-2,
4.112515393235E-4));
#521=VERTEX_POINT('',#520);
#522=CARTESIAN_POINT('',(6.633858267587E-2,-5.001504288359E-2,
2.339090964602E-2));
#523=CARTESIAN_POINT('',(6.633858267587E-2,-4.135591383452E-2,
2.339090964602E-2));
#524=VERTEX_POINT('',#522);
#525=VERTEX_POINT('',#523);
#526=CARTESIAN_POINT('',(6.732283464437E-2,-4.260270984682E-2,
2.222825628941E-2));
#527=CARTESIAN_POINT('',(6.732283464437E-2,-5.126183596382E-2,
2.222825628941E-2));
#528=VERTEX_POINT('',#526);
#529=VERTEX_POINT('',#527);
#530=CARTESIAN_POINT('',(6.614173228215E-2,-3.937007873885E-2,
2.524272792804E-2));
#531=VERTEX_POINT('',#530);
#532=CARTESIAN_POINT('',(6.732283464437E-2,-4.930304063164E-2,
1.598009401411E-2));
#533=CARTESIAN_POINT('',(6.732283464437E-2,-5.118110236090E-2,
1.166098350512E-2));
#534=VERTEX_POINT('',#532);
#535=VERTEX_POINT('',#533);
#536=CARTESIAN_POINT('',(6.732283464437E-2,-5.610236220343E-2,
1.638129012255E-2));
#537=VERTEX_POINT('',#536);
#538=CARTESIAN_POINT('',(7.519685039239E-2,-3.013290739104E-2,
3.385650785452E-2));
#539=VERTEX_POINT('',#538);
#540=CARTESIAN_POINT('',(6.614173228215E-2,-3.013295706606E-2,
3.385646973576E-2));
#541=VERTEX_POINT('',#540);
#542=CARTESIAN_POINT('',(6.614173228215E-2,-2.611603397479E-2,
3.543307086614E-2));
#543=VERTEX_POINT('',#542);
#544=CARTESIAN_POINT('',(7.519685039239E-2,-3.417113271567E-2,
3.816559490101E-2));
#545=VERTEX_POINT('',#544);
#546=CARTESIAN_POINT('',(6.614173228215E-2,2.615761773850E-12,
3.543307086614E-2));
#547=VERTEX_POINT('',#546);
#548=CARTESIAN_POINT('',(6.614173228215E-2,1.181102362466E-2,
4.724409448819E-2));
#549=VERTEX_POINT('',#548);
#550=CARTESIAN_POINT('',(6.614173228215E-2,1.181102362466E-2,
7.873055118110E-2));
#551=VERTEX_POINT('',#550);
#552=CARTESIAN_POINT('',(6.614173228215E-2,5.905511813639E-3,
7.873055118110E-2));
#553=VERTEX_POINT('',#552);
#554=CARTESIAN_POINT('',(6.614173228215E-2,5.905511813639E-3,
4.724409448819E-2));
#555=VERTEX_POINT('',#554);
#556=CARTESIAN_POINT('',(6.614173228215E-2,2.615588301502E-12,
4.133858267717E-2));
#557=VERTEX_POINT('',#556);
#558=CARTESIAN_POINT('',(6.614173228215E-2,-2.611603397477E-2,
4.133858267717E-2));
#559=VERTEX_POINT('',#558);
#560=CARTESIAN_POINT('',(6.614173228215E-2,-3.417113271567E-2,
3.816559490101E-2));
#561=VERTEX_POINT('',#560);
#562=CARTESIAN_POINT('',(7.519685039239E-2,-2.611603397479E-2,
3.543307086614E-2));
#563=VERTEX_POINT('',#562);
#564=CARTESIAN_POINT('',(7.519685039239E-2,2.615762848377E-12,
3.543307086614E-2));
#565=VERTEX_POINT('',#564);
#566=CARTESIAN_POINT('',(7.519685039239E-2,1.181102362466E-2,
4.724409448819E-2));
#567=VERTEX_POINT('',#566);
#568=CARTESIAN_POINT('',(7.519685039239E-2,1.181102362466E-2,
7.873055118110E-2));
#569=VERTEX_POINT('',#568);
#570=CARTESIAN_POINT('',(7.519685039239E-2,5.905511813639E-3,
7.873055118110E-2));
#571=VERTEX_POINT('',#570);
#572=CARTESIAN_POINT('',(7.519685039239E-2,5.905511813639E-3,
4.724409448819E-2));
#573=VERTEX_POINT('',#572);
#574=CARTESIAN_POINT('',(7.519685039239E-2,2.615587870875E-12,
4.133858267717E-2));
#575=VERTEX_POINT('',#574);
#576=CARTESIAN_POINT('',(7.519685039239E-2,-2.611603397477E-2,
4.133858267717E-2));
#577=VERTEX_POINT('',#576);
#578=CARTESIAN_POINT('',(7.353810888229E-2,-5.118110236090E-2,
4.112515393235E-4));
#579=VERTEX_POINT('',#578);
#580=CARTESIAN_POINT('',(6.614173228215E-2,-4.527559054989E-2,
1.166098350511E-2));
#581=DIRECTION('',(1.E0,0.E0,0.E0));
#582=DIRECTION('',(0.E0,0.E0,-1.E0));
#583=AXIS2_PLACEMENT_3D('',#580,#581,#582);
#584=CYLINDRICAL_SURFACE('',#583,5.905511811015E-3);
#586=ORIENTED_EDGE('',*,*,#585,.T.);
#588=ORIENTED_EDGE('',*,*,#587,.F.);
#590=ORIENTED_EDGE('',*,*,#589,.T.);
#592=ORIENTED_EDGE('',*,*,#591,.F.);
#593=EDGE_LOOP('',(#586,#588,#590,#592));
#594=FACE_OUTER_BOUND('',#593,.F.);
#596=FILL_AREA_STYLE_COLOUR('',#12);
#597=FILL_AREA_STYLE('',(#596));
#598=SURFACE_STYLE_FILL_AREA(#597);
#599=SURFACE_SIDE_STYLE('',(#598));
#600=SURFACE_STYLE_USAGE(.BOTH.,#599);
#601=PRESENTATION_STYLE_ASSIGNMENT((#600));
#602=OVER_RIDING_STYLED_ITEM('',(#601),#595,#16);
#603=CARTESIAN_POINT('',(7.353810888229E-2,0.E0,1.258490612627E-1));
#604=DIRECTION('',(-1.E0,0.E0,0.E0));
#605=DIRECTION('',(0.E0,0.E0,1.E0));
#606=AXIS2_PLACEMENT_3D('',#603,#604,#605);
#607=PLANE('',#606);
#609=ORIENTED_EDGE('',*,*,#608,.F.);
#611=ORIENTED_EDGE('',*,*,#610,.T.);
#613=ORIENTED_EDGE('',*,*,#612,.F.);
#614=ORIENTED_EDGE('',*,*,#585,.F.);
#616=ORIENTED_EDGE('',*,*,#615,.T.);
#618=ORIENTED_EDGE('',*,*,#617,.T.);
#620=ORIENTED_EDGE('',*,*,#619,.T.);
#622=ORIENTED_EDGE('',*,*,#621,.F.);
#623=EDGE_LOOP('',(#609,#611,#613,#614,#616,#618,#620,#622));
#624=FACE_OUTER_BOUND('',#623,.F.);
#626=FILL_AREA_STYLE_COLOUR('',#12);
#627=FILL_AREA_STYLE('',(#626));
#628=SURFACE_STYLE_FILL_AREA(#627);
#629=SURFACE_SIDE_STYLE('',(#628));
#630=SURFACE_STYLE_USAGE(.BOTH.,#629);
#631=PRESENTATION_STYLE_ASSIGNMENT((#630));
#632=OVER_RIDING_STYLED_ITEM('',(#631),#625,#16);
#633=CARTESIAN_POINT('',(6.614173228215E-2,-4.663025628520E-2,
2.654727421237E-2));
#634=DIRECTION('',(0.E0,-6.819983600625E-1,7.313537016192E-1));
#635=DIRECTION('',(0.E0,-7.313537016192E-1,-6.819983600625E-1));
#636=AXIS2_PLACEMENT_3D('',#633,#634,#635);
#637=PLANE('',#636);
#639=ORIENTED_EDGE('',*,*,#638,.F.);
#640=ORIENTED_EDGE('',*,*,#608,.T.);
#642=ORIENTED_EDGE('',*,*,#641,.T.);
#644=ORIENTED_EDGE('',*,*,#643,.T.);
#646=ORIENTED_EDGE('',*,*,#645,.F.);
#648=ORIENTED_EDGE('',*,*,#647,.T.);
#650=ORIENTED_EDGE('',*,*,#649,.F.);
#652=ORIENTED_EDGE('',*,*,#651,.T.);
#654=ORIENTED_EDGE('',*,*,#653,.T.);
#656=ORIENTED_EDGE('',*,*,#655,.T.);
#657=EDGE_LOOP('',(#639,#640,#642,#644,#646,#648,#650,#652,#654,#656));
#658=FACE_OUTER_BOUND('',#657,.F.);
#660=FILL_AREA_STYLE_COLOUR('',#12);
#661=FILL_AREA_STYLE('',(#660));
#662=SURFACE_STYLE_FILL_AREA(#661);
#663=SURFACE_SIDE_STYLE('',(#662));
#664=SURFACE_STYLE_USAGE(.BOTH.,#663);
#665=PRESENTATION_STYLE_ASSIGNMENT((#664));
#666=OVER_RIDING_STYLED_ITEM('',(#665),#659,#16);
#667=CARTESIAN_POINT('',(0.E0,-3.937007873891E-2,1.258490612627E-1));
#668=DIRECTION('',(0.E0,1.E0,0.E0));
#669=DIRECTION('',(0.E0,0.E0,1.E0));
#670=AXIS2_PLACEMENT_3D('',#667,#668,#669);
#671=PLANE('',#670);
#672=ORIENTED_EDGE('',*,*,#638,.T.);
#674=ORIENTED_EDGE('',*,*,#673,.T.);
#676=ORIENTED_EDGE('',*,*,#675,.T.);
#677=ORIENTED_EDGE('',*,*,#610,.F.);
#678=EDGE_LOOP('',(#672,#674,#676,#677));
#679=FACE_OUTER_BOUND('',#678,.F.);
#681=CARTESIAN_POINT('',(7.519685039239E-2,-4.527559054989E-2,
1.166098350511E-2));
#682=DIRECTION('',(1.E0,0.E0,0.E0));
#683=DIRECTION('',(0.E0,0.E0,-1.E0));
#684=AXIS2_PLACEMENT_3D('',#681,#682,#683);
#685=PLANE('',#684);
#686=ORIENTED_EDGE('',*,*,#673,.F.);
#687=ORIENTED_EDGE('',*,*,#655,.F.);
#689=ORIENTED_EDGE('',*,*,#688,.F.);
#691=ORIENTED_EDGE('',*,*,#690,.T.);
#693=ORIENTED_EDGE('',*,*,#692,.F.);
#695=ORIENTED_EDGE('',*,*,#694,.T.);
#697=ORIENTED_EDGE('',*,*,#696,.T.);
#699=ORIENTED_EDGE('',*,*,#698,.T.);
#701=ORIENTED_EDGE('',*,*,#700,.F.);
#703=ORIENTED_EDGE('',*,*,#702,.T.);
#705=ORIENTED_EDGE('',*,*,#704,.F.);
#707=ORIENTED_EDGE('',*,*,#706,.F.);
#708=EDGE_LOOP('',(#686,#687,#689,#691,#693,#695,#697,#699,#701,#703,#705,
#707));
#709=FACE_OUTER_BOUND('',#708,.F.);
#711=FILL_AREA_STYLE_COLOUR('',#12);
#712=FILL_AREA_STYLE('',(#711));
#713=SURFACE_STYLE_FILL_AREA(#712);
#714=SURFACE_SIDE_STYLE('',(#713));
#715=SURFACE_STYLE_USAGE(.BOTH.,#714);
#716=PRESENTATION_STYLE_ASSIGNMENT((#715));
#717=OVER_RIDING_STYLED_ITEM('',(#716),#710,#16);
#718=CARTESIAN_POINT('',(6.614173228215E-2,-2.611603397477E-2,
2.952755905512E-2));
#719=DIRECTION('',(1.E0,0.E0,0.E0));
#720=DIRECTION('',(0.E0,0.E0,-1.E0));
#721=AXIS2_PLACEMENT_3D('',#718,#719,#720);
#722=CYLINDRICAL_SURFACE('',#721,1.181102362205E-2);
#723=ORIENTED_EDGE('',*,*,#688,.T.);
#724=ORIENTED_EDGE('',*,*,#653,.F.);
#726=ORIENTED_EDGE('',*,*,#725,.T.);
#728=ORIENTED_EDGE('',*,*,#727,.F.);
#729=EDGE_LOOP('',(#723,#724,#726,#728));
#730=FACE_OUTER_BOUND('',#729,.F.);
#732=FILL_AREA_STYLE_COLOUR('',#12);
#733=FILL_AREA_STYLE('',(#732));
#734=SURFACE_STYLE_FILL_AREA(#733);
#735=SURFACE_SIDE_STYLE('',(#734));
#736=SURFACE_STYLE_USAGE(.BOTH.,#735);
#737=PRESENTATION_STYLE_ASSIGNMENT((#736));
#738=OVER_RIDING_STYLED_ITEM('',(#737),#731,#16);
#739=CARTESIAN_POINT('',(6.614173228215E-2,-4.527559054989E-2,
1.166098350511E-2));
#740=DIRECTION('',(1.E0,0.E0,0.E0));
#741=DIRECTION('',(0.E0,0.E0,-1.E0));
#742=AXIS2_PLACEMENT_3D('',#739,#740,#741);
#743=PLANE('',#742);
#745=ORIENTED_EDGE('',*,*,#744,.F.);
#747=ORIENTED_EDGE('',*,*,#746,.F.);
#749=ORIENTED_EDGE('',*,*,#748,.T.);
#751=ORIENTED_EDGE('',*,*,#750,.F.);
#753=ORIENTED_EDGE('',*,*,#752,.T.);
#755=ORIENTED_EDGE('',*,*,#754,.T.);
#757=ORIENTED_EDGE('',*,*,#756,.T.);
#759=ORIENTED_EDGE('',*,*,#758,.F.);
#761=ORIENTED_EDGE('',*,*,#760,.T.);
#762=ORIENTED_EDGE('',*,*,#725,.F.);
#763=ORIENTED_EDGE('',*,*,#651,.F.);
#765=ORIENTED_EDGE('',*,*,#764,.F.);
#766=EDGE_LOOP('',(#745,#747,#749,#751,#753,#755,#757,#759,#761,#762,#763,
#765));
#767=FACE_OUTER_BOUND('',#766,.F.);
#769=FILL_AREA_STYLE_COLOUR('',#12);
#770=FILL_AREA_STYLE('',(#769));
#771=SURFACE_STYLE_FILL_AREA(#770);
#772=SURFACE_SIDE_STYLE('',(#771));
#773=SURFACE_STYLE_USAGE(.BOTH.,#772);
#774=PRESENTATION_STYLE_ASSIGNMENT((#773));
#775=OVER_RIDING_STYLED_ITEM('',(#774),#768,#16);
#776=CARTESIAN_POINT('',(6.614173228215E-2,-4.135591383452E-2,
2.339090964602E-2));
#777=DIRECTION('',(0.E0,6.819975021985E-1,-7.313545015893E-1));
#778=DIRECTION('',(0.E0,7.313545015893E-1,6.819975021985E-1));
#779=AXIS2_PLACEMENT_3D('',#776,#777,#778);
#780=PLANE('',#779);
#781=ORIENTED_EDGE('',*,*,#675,.F.);
#782=ORIENTED_EDGE('',*,*,#706,.T.);
#784=ORIENTED_EDGE('',*,*,#783,.T.);
#785=ORIENTED_EDGE('',*,*,#744,.T.);
#787=ORIENTED_EDGE('',*,*,#786,.F.);
#789=ORIENTED_EDGE('',*,*,#788,.T.);
#791=ORIENTED_EDGE('',*,*,#790,.F.);
#793=ORIENTED_EDGE('',*,*,#792,.T.);
#794=ORIENTED_EDGE('',*,*,#587,.T.);
#795=ORIENTED_EDGE('',*,*,#612,.T.);
#796=EDGE_LOOP('',(#781,#782,#784,#785,#787,#789,#791,#793,#794,#795));
#797=FACE_OUTER_BOUND('',#796,.F.);
#799=FILL_AREA_STYLE_COLOUR('',#12);
#800=FILL_AREA_STYLE('',(#799));
#801=SURFACE_STYLE_FILL_AREA(#800);
#802=SURFACE_SIDE_STYLE('',(#801));
#803=SURFACE_STYLE_USAGE(.BOTH.,#802);
#804=PRESENTATION_STYLE_ASSIGNMENT((#803));
#805=OVER_RIDING_STYLED_ITEM('',(#804),#798,#16);
#806=CARTESIAN_POINT('',(6.614173228215E-2,-2.611603397477E-2,
2.952755905512E-2));
#807=DIRECTION('',(1.E0,0.E0,0.E0));
#808=DIRECTION('',(0.E0,0.E0,-1.E0));
#809=AXIS2_PLACEMENT_3D('',#806,#807,#808);
#810=CYLINDRICAL_SURFACE('',#809,5.905511811025E-3);
#811=ORIENTED_EDGE('',*,*,#704,.T.);
#813=ORIENTED_EDGE('',*,*,#812,.F.);
#814=ORIENTED_EDGE('',*,*,#746,.T.);
#815=ORIENTED_EDGE('',*,*,#783,.F.);
#816=EDGE_LOOP('',(#811,#813,#814,#815));
#817=FACE_OUTER_BOUND('',#816,.F.);
#819=FILL_AREA_STYLE_COLOUR('',#12);
#820=FILL_AREA_STYLE('',(#819));
#821=SURFACE_STYLE_FILL_AREA(#820);
#822=SURFACE_SIDE_STYLE('',(#821));
#823=SURFACE_STYLE_USAGE(.BOTH.,#822);
#824=PRESENTATION_STYLE_ASSIGNMENT((#823));
#825=OVER_RIDING_STYLED_ITEM('',(#824),#818,#16);
#826=CARTESIAN_POINT('',(6.614173228215E-2,-2.611603397477E-2,
3.543307086614E-2));
#827=DIRECTION('',(0.E0,0.E0,-1.E0));
#828=DIRECTION('',(0.E0,1.E0,0.E0));
#829=AXIS2_PLACEMENT_3D('',#826,#827,#828);
#830=PLANE('',#829);
#831=ORIENTED_EDGE('',*,*,#702,.F.);
#833=ORIENTED_EDGE('',*,*,#832,.T.);
#834=ORIENTED_EDGE('',*,*,#748,.F.);
#835=ORIENTED_EDGE('',*,*,#812,.T.);
#836=EDGE_LOOP('',(#831,#833,#834,#835));
#837=FACE_OUTER_BOUND('',#836,.F.);
#839=FILL_AREA_STYLE_COLOUR('',#12);
#840=FILL_AREA_STYLE('',(#839));
#841=SURFACE_STYLE_FILL_AREA(#840);
#842=SURFACE_SIDE_STYLE('',(#841));
#843=SURFACE_STYLE_USAGE(.BOTH.,#842);
#844=PRESENTATION_STYLE_ASSIGNMENT((#843));
#845=OVER_RIDING_STYLED_ITEM('',(#844),#838,#16);
#846=CARTESIAN_POINT('',(6.614173228215E-2,2.615761527983E-12,
4.724409448819E-2));
#847=DIRECTION('',(1.E0,0.E0,0.E0));
#848=DIRECTION('',(0.E0,0.E0,-1.E0));
#849=AXIS2_PLACEMENT_3D('',#846,#847,#848);
#850=CYLINDRICAL_SURFACE('',#849,1.181102362205E-2);
#851=ORIENTED_EDGE('',*,*,#700,.T.);
#853=ORIENTED_EDGE('',*,*,#852,.F.);
#854=ORIENTED_EDGE('',*,*,#750,.T.);
#855=ORIENTED_EDGE('',*,*,#832,.F.);
#856=EDGE_LOOP('',(#851,#853,#854,#855));
#857=FACE_OUTER_BOUND('',#856,.F.);
#859=FILL_AREA_STYLE_COLOUR('',#12);
#860=FILL_AREA_STYLE('',(#859));
#861=SURFACE_STYLE_FILL_AREA(#860);
#862=SURFACE_SIDE_STYLE('',(#861));
#863=SURFACE_STYLE_USAGE(.BOTH.,#862);
#864=PRESENTATION_STYLE_ASSIGNMENT((#863));
#865=OVER_RIDING_STYLED_ITEM('',(#864),#858,#16);
#866=CARTESIAN_POINT('',(6.614173228215E-2,1.181102362466E-2,
4.724409448819E-2));
#867=DIRECTION('',(0.E0,1.E0,0.E0));
#868=DIRECTION('',(0.E0,0.E0,1.E0));
#869=AXIS2_PLACEMENT_3D('',#866,#867,#868);
#870=PLANE('',#869);
#871=ORIENTED_EDGE('',*,*,#698,.F.);
#873=ORIENTED_EDGE('',*,*,#872,.T.);
#874=ORIENTED_EDGE('',*,*,#752,.F.);
#875=ORIENTED_EDGE('',*,*,#852,.T.);
#876=EDGE_LOOP('',(#871,#873,#874,#875));
#877=FACE_OUTER_BOUND('',#876,.F.);
#879=FILL_AREA_STYLE_COLOUR('',#12);
#880=FILL_AREA_STYLE('',(#879));
#881=SURFACE_STYLE_FILL_AREA(#880);
#882=SURFACE_SIDE_STYLE('',(#881));
#883=SURFACE_STYLE_USAGE(.BOTH.,#882);
#884=PRESENTATION_STYLE_ASSIGNMENT((#883));
#885=OVER_RIDING_STYLED_ITEM('',(#884),#878,#16);
#886=CARTESIAN_POINT('',(6.614173228215E-2,1.181102362466E-2,
7.873055118110E-2));
#887=DIRECTION('',(0.E0,0.E0,1.E0));
#888=DIRECTION('',(1.E0,0.E0,0.E0));
#889=AXIS2_PLACEMENT_3D('',#886,#887,#888);
#890=PLANE('',#889);
#891=ORIENTED_EDGE('',*,*,#696,.F.);
#893=ORIENTED_EDGE('',*,*,#892,.T.);
#894=ORIENTED_EDGE('',*,*,#754,.F.);
#895=ORIENTED_EDGE('',*,*,#872,.F.);
#896=EDGE_LOOP('',(#891,#893,#894,#895));
#897=FACE_OUTER_BOUND('',#896,.F.);
#899=FILL_AREA_STYLE_COLOUR('',#12);
#900=FILL_AREA_STYLE('',(#899));
#901=SURFACE_STYLE_FILL_AREA(#900);
#902=SURFACE_SIDE_STYLE('',(#901));
#903=SURFACE_STYLE_USAGE(.BOTH.,#902);
#904=PRESENTATION_STYLE_ASSIGNMENT((#903));
#905=OVER_RIDING_STYLED_ITEM('',(#904),#898,#16);
#906=CARTESIAN_POINT('',(6.614173228215E-2,5.905511813639E-3,
7.873055118110E-2));
#907=DIRECTION('',(0.E0,-1.E0,0.E0));
#908=DIRECTION('',(0.E0,0.E0,-1.E0));
#909=AXIS2_PLACEMENT_3D('',#906,#907,#908);
#910=PLANE('',#909);
#911=ORIENTED_EDGE('',*,*,#694,.F.);
#913=ORIENTED_EDGE('',*,*,#912,.T.);
#914=ORIENTED_EDGE('',*,*,#756,.F.);
#915=ORIENTED_EDGE('',*,*,#892,.F.);
#916=EDGE_LOOP('',(#911,#913,#914,#915));
#917=FACE_OUTER_BOUND('',#916,.F.);
#919=FILL_AREA_STYLE_COLOUR('',#12);
#920=FILL_AREA_STYLE('',(#919));
#921=SURFACE_STYLE_FILL_AREA(#920);
#922=SURFACE_SIDE_STYLE('',(#921));
#923=SURFACE_STYLE_USAGE(.BOTH.,#922);
#924=PRESENTATION_STYLE_ASSIGNMENT((#923));
#925=OVER_RIDING_STYLED_ITEM('',(#924),#918,#16);
#926=CARTESIAN_POINT('',(6.614173228215E-2,2.615761527983E-12,
4.724409448819E-2));
#927=DIRECTION('',(1.E0,0.E0,0.E0));
#928=DIRECTION('',(0.E0,0.E0,-1.E0));
#929=AXIS2_PLACEMENT_3D('',#926,#927,#928);
#930=CYLINDRICAL_SURFACE('',#929,5.905511811024E-3);
#931=ORIENTED_EDGE('',*,*,#692,.T.);
#933=ORIENTED_EDGE('',*,*,#932,.F.);
#934=ORIENTED_EDGE('',*,*,#758,.T.);
#935=ORIENTED_EDGE('',*,*,#912,.F.);
#936=EDGE_LOOP('',(#931,#933,#934,#935));
#937=FACE_OUTER_BOUND('',#936,.F.);
#939=FILL_AREA_STYLE_COLOUR('',#12);
#940=FILL_AREA_STYLE('',(#939));
#941=SURFACE_STYLE_FILL_AREA(#940);
#942=SURFACE_SIDE_STYLE('',(#941));
#943=SURFACE_STYLE_USAGE(.BOTH.,#942);
#944=PRESENTATION_STYLE_ASSIGNMENT((#943));
#945=OVER_RIDING_STYLED_ITEM('',(#944),#938,#16);
#946=CARTESIAN_POINT('',(6.614173228215E-2,2.615761527983E-12,
4.133858267717E-2));
#947=DIRECTION('',(0.E0,0.E0,1.E0));
#948=DIRECTION('',(1.E0,0.E0,0.E0));
#949=AXIS2_PLACEMENT_3D('',#946,#947,#948);
#950=PLANE('',#949);
#951=ORIENTED_EDGE('',*,*,#690,.F.);
#952=ORIENTED_EDGE('',*,*,#727,.T.);
#953=ORIENTED_EDGE('',*,*,#760,.F.);
#954=ORIENTED_EDGE('',*,*,#932,.T.);
#955=EDGE_LOOP('',(#951,#952,#953,#954));
#956=FACE_OUTER_BOUND('',#955,.F.);
#958=FILL_AREA_STYLE_COLOUR('',#12);
#959=FILL_AREA_STYLE('',(#958));
#960=SURFACE_STYLE_FILL_AREA(#959);
#961=SURFACE_SIDE_STYLE('',(#960));
#962=SURFACE_STYLE_USAGE(.BOTH.,#961);
#963=PRESENTATION_STYLE_ASSIGNMENT((#962));
#964=OVER_RIDING_STYLED_ITEM('',(#963),#957,#16);
#965=CARTESIAN_POINT('',(-6.571716459509E-13,-3.937007873885E-2,
1.476377952756E-1));
#966=DIRECTION('',(0.E0,1.E0,0.E0));
#967=DIRECTION('',(0.E0,0.E0,1.E0));
#968=AXIS2_PLACEMENT_3D('',#965,#966,#967);
#969=PLANE('',#968);
#970=ORIENTED_EDGE('',*,*,#649,.T.);
#972=ORIENTED_EDGE('',*,*,#971,.F.);
#973=ORIENTED_EDGE('',*,*,#786,.T.);
#974=ORIENTED_EDGE('',*,*,#764,.T.);
#975=EDGE_LOOP('',(#970,#972,#973,#974));
#976=FACE_OUTER_BOUND('',#975,.F.);
#978=FILL_AREA_STYLE_COLOUR('',#12);
#979=FILL_AREA_STYLE('',(#978));
#980=SURFACE_STYLE_FILL_AREA(#979);
#981=SURFACE_SIDE_STYLE('',(#980));
#982=SURFACE_STYLE_USAGE(.BOTH.,#981);
#983=PRESENTATION_STYLE_ASSIGNMENT((#982));
#984=OVER_RIDING_STYLED_ITEM('',(#983),#977,#16);
#985=CARTESIAN_POINT('',(6.633858267587E-2,-3.937007873885E-2,
2.339090964602E-2));
#986=DIRECTION('',(1.E0,0.E0,0.E0));
#987=DIRECTION('',(0.E0,0.E0,-1.E0));
#988=AXIS2_PLACEMENT_3D('',#985,#986,#987);
#989=PLANE('',#988);
#990=ORIENTED_EDGE('',*,*,#647,.F.);
#992=ORIENTED_EDGE('',*,*,#991,.T.);
#993=ORIENTED_EDGE('',*,*,#788,.F.);
#994=ORIENTED_EDGE('',*,*,#971,.T.);
#995=EDGE_LOOP('',(#990,#992,#993,#994));
#996=FACE_OUTER_BOUND('',#995,.F.);
#998=FILL_AREA_STYLE_COLOUR('',#12);
#999=FILL_AREA_STYLE('',(#998));
#1000=SURFACE_STYLE_FILL_AREA(#999);
#1001=SURFACE_SIDE_STYLE('',(#1000));
#1002=SURFACE_STYLE_USAGE(.BOTH.,#1001);
#1003=PRESENTATION_STYLE_ASSIGNMENT((#1002));
#1004=OVER_RIDING_STYLED_ITEM('',(#1003),#997,#16);
#1005=CARTESIAN_POINT('',(6.732283464438E-2,-3.937007873885E-2,
2.222825628941E-2));
#1006=DIRECTION('',(7.632346554035E-1,0.E0,6.461213978743E-1));
#1007=DIRECTION('',(6.461213978743E-1,0.E0,-7.632346554035E-1));
#1008=AXIS2_PLACEMENT_3D('',#1005,#1006,#1007);
#1009=PLANE('',#1008);
#1010=ORIENTED_EDGE('',*,*,#645,.T.);
#1012=ORIENTED_EDGE('',*,*,#1011,.F.);
#1013=ORIENTED_EDGE('',*,*,#790,.T.);
#1014=ORIENTED_EDGE('',*,*,#991,.F.);
#1015=EDGE_LOOP('',(#1010,#1012,#1013,#1014));
#1016=FACE_OUTER_BOUND('',#1015,.F.);
#1018=FILL_AREA_STYLE_COLOUR('',#12);
#1019=FILL_AREA_STYLE('',(#1018));
#1020=SURFACE_STYLE_FILL_AREA(#1019);
#1021=SURFACE_SIDE_STYLE('',(#1020));
#1022=SURFACE_STYLE_USAGE(.BOTH.,#1021);
#1023=PRESENTATION_STYLE_ASSIGNMENT((#1022));
#1024=OVER_RIDING_STYLED_ITEM('',(#1023),#1017,#16);
#1025=CARTESIAN_POINT('',(6.732283464437E-2,-3.937007873885E-2,
4.112515393293E-4));
#1026=DIRECTION('',(1.E0,0.E0,0.E0));
#1027=DIRECTION('',(0.E0,0.E0,-1.E0));
#1028=AXIS2_PLACEMENT_3D('',#1025,#1026,#1027);
#1029=PLANE('',#1028);
#1031=ORIENTED_EDGE('',*,*,#1030,.T.);
#1033=ORIENTED_EDGE('',*,*,#1032,.T.);
#1035=ORIENTED_EDGE('',*,*,#1034,.T.);
#1036=ORIENTED_EDGE('',*,*,#589,.F.);
#1037=ORIENTED_EDGE('',*,*,#792,.F.);
#1038=ORIENTED_EDGE('',*,*,#1011,.T.);
#1039=ORIENTED_EDGE('',*,*,#643,.F.);
#1041=ORIENTED_EDGE('',*,*,#1040,.F.);
#1042=EDGE_LOOP('',(#1031,#1033,#1035,#1036,#1037,#1038,#1039,#1041));
#1043=FACE_OUTER_BOUND('',#1042,.F.);
#1045=FILL_AREA_STYLE_COLOUR('',#12);
#1046=FILL_AREA_STYLE('',(#1045));
#1047=SURFACE_STYLE_FILL_AREA(#1046);
#1048=SURFACE_SIDE_STYLE('',(#1047));
#1049=SURFACE_STYLE_USAGE(.BOTH.,#1048);
#1050=PRESENTATION_STYLE_ASSIGNMENT((#1049));
#1051=OVER_RIDING_STYLED_ITEM('',(#1050),#1044,#16);
#1052=CARTESIAN_POINT('',(6.614173228215E-2,-5.610236220343E-2,
1.638129012255E-2));
#1053=DIRECTION('',(0.E0,-1.E0,0.E0));
#1054=DIRECTION('',(0.E0,0.E0,-1.E0));
#1055=AXIS2_PLACEMENT_3D('',#1052,#1053,#1054);
#1056=PLANE('',#1055);
#1057=ORIENTED_EDGE('',*,*,#619,.F.);
#1059=ORIENTED_EDGE('',*,*,#1058,.T.);
#1060=ORIENTED_EDGE('',*,*,#1030,.F.);
#1062=ORIENTED_EDGE('',*,*,#1061,.T.);
#1063=EDGE_LOOP('',(#1057,#1059,#1060,#1062));
#1064=FACE_OUTER_BOUND('',#1063,.F.);
#1066=FILL_AREA_STYLE_COLOUR('',#12);
#1067=FILL_AREA_STYLE('',(#1066));
#1068=SURFACE_STYLE_FILL_AREA(#1067);
#1069=SURFACE_SIDE_STYLE('',(#1068));
#1070=SURFACE_STYLE_USAGE(.BOTH.,#1069);
#1071=PRESENTATION_STYLE_ASSIGNMENT((#1070));
#1072=OVER_RIDING_STYLED_ITEM('',(#1071),#1065,#16);
#1073=CARTESIAN_POINT('',(6.614173228215E-2,-5.610236220343E-2,
4.112515393235E-4));
#1074=DIRECTION('',(0.E0,0.E0,-1.E0));
#1075=DIRECTION('',(-1.E0,0.E0,0.E0));
#1076=AXIS2_PLACEMENT_3D('',#1073,#1074,#1075);
#1077=PLANE('',#1076);
#1078=ORIENTED_EDGE('',*,*,#617,.F.);
#1080=ORIENTED_EDGE('',*,*,#1079,.T.);
#1081=ORIENTED_EDGE('',*,*,#1032,.F.);
#1082=ORIENTED_EDGE('',*,*,#1058,.F.);
#1083=EDGE_LOOP('',(#1078,#1080,#1081,#1082));
#1084=FACE_OUTER_BOUND('',#1083,.F.);
#1086=FILL_AREA_STYLE_COLOUR('',#12);
#1087=FILL_AREA_STYLE('',(#1086));
#1088=SURFACE_STYLE_FILL_AREA(#1087);
#1089=SURFACE_SIDE_STYLE('',(#1088));
#1090=SURFACE_STYLE_USAGE(.BOTH.,#1089);
#1091=PRESENTATION_STYLE_ASSIGNMENT((#1090));
#1092=OVER_RIDING_STYLED_ITEM('',(#1091),#1085,#16);
#1093=CARTESIAN_POINT('',(6.614173228215E-2,-5.118110236090E-2,
4.112515393235E-4));
#1094=DIRECTION('',(0.E0,1.E0,0.E0));
#1095=DIRECTION('',(0.E0,0.E0,1.E0));
#1096=AXIS2_PLACEMENT_3D('',#1093,#1094,#1095);
#1097=PLANE('',#1096);
#1098=ORIENTED_EDGE('',*,*,#615,.F.);
#1099=ORIENTED_EDGE('',*,*,#591,.T.);
#1100=ORIENTED_EDGE('',*,*,#1034,.F.);
#1101=ORIENTED_EDGE('',*,*,#1079,.F.);
#1102=EDGE_LOOP('',(#1098,#1099,#1100,#1101));
#1103=FACE_OUTER_BOUND('',#1102,.F.);
#1105=FILL_AREA_STYLE_COLOUR('',#12);
#1106=FILL_AREA_STYLE('',(#1105));
#1107=SURFACE_STYLE_FILL_AREA(#1106);
#1108=SURFACE_SIDE_STYLE('',(#1107));
#1109=SURFACE_STYLE_USAGE(.BOTH.,#1108);
#1110=PRESENTATION_STYLE_ASSIGNMENT((#1109));
#1111=OVER_RIDING_STYLED_ITEM('',(#1110),#1104,#16);
#1112=CARTESIAN_POINT('',(6.614173228215E-2,-4.527559054989E-2,
1.166098350511E-2));
#1113=DIRECTION('',(1.E0,0.E0,0.E0));
#1114=DIRECTION('',(0.E0,0.E0,-1.E0));
#1115=AXIS2_PLACEMENT_3D('',#1112,#1113,#1114);
#1116=CYLINDRICAL_SURFACE('',#1115,1.181102362205E-2);
#1117=ORIENTED_EDGE('',*,*,#621,.T.);
#1118=ORIENTED_EDGE('',*,*,#1061,.F.);
#1119=ORIENTED_EDGE('',*,*,#1040,.T.);
#1120=ORIENTED_EDGE('',*,*,#641,.F.);
#1121=EDGE_LOOP('',(#1117,#1118,#1119,#1120));
#1122=FACE_OUTER_BOUND('',#1121,.F.);
#1124=FILL_AREA_STYLE_COLOUR('',#12);
#1125=FILL_AREA_STYLE('',(#1124));
#1126=SURFACE_STYLE_FILL_AREA(#1125);
#1127=SURFACE_SIDE_STYLE('',(#1126));
#1128=SURFACE_STYLE_USAGE(.BOTH.,#1127);
#1129=PRESENTATION_STYLE_ASSIGNMENT((#1128));
#1130=OVER_RIDING_STYLED_ITEM('',(#1129),#1123,#16);
#1133=FILL_AREA_STYLE_COLOUR('',#9);
#1134=FILL_AREA_STYLE('',(#1133));
#1135=SURFACE_STYLE_FILL_AREA(#1134);
#1136=SURFACE_SIDE_STYLE('',(#1135));
#1137=SURFACE_STYLE_USAGE(.BOTH.,#1136);
#1138=PRESENTATION_STYLE_ASSIGNMENT((#1137));
#16=STYLED_ITEM('',(#1138),#1132);
#1139=PRESENTATION_LAYER_ASSIGNMENT('SHELL_273','',(#16,#595,#625,#659,#680,
#710,#731,#768,#798,#818,#838,#858,#878,#898,#918,#938,#957,#977,#997,#1017,
#1044,#1065,#1085,#1104,#1123));
#1141=LENGTH_MEASURE_WITH_UNIT(LENGTH_MEASURE(2.54E1),#1140);
#1142=(CONVERSION_BASED_UNIT('INCH',#1141)LENGTH_UNIT()NAMED_UNIT(*));
#1144=PLANE_ANGLE_MEASURE_WITH_UNIT(PLANE_ANGLE_MEASURE(1.745329251994E-2),
#1143);
#1145=(CONVERSION_BASED_UNIT('DEGREE',#1144)NAMED_UNIT(*)PLANE_ANGLE_UNIT());
#1147=UNCERTAINTY_MEASURE_WITH_UNIT(LENGTH_MEASURE(1.040541666704E-5),#1142,
'closure',
'Maximum model space distance between geometric entities at asserted connectivities');
#1149=CARTESIAN_POINT('',(0.E0,0.E0,0.E0));
#1150=DIRECTION('',(0.E0,0.E0,1.E0));
#1151=DIRECTION('',(1.E0,0.E0,0.E0));
#1154=MECHANICAL_DESIGN_GEOMETRIC_PRESENTATION_REPRESENTATION('',(#24,#31,#38,
#45,#53,#61,#68,#75,#82,#89,#96,#103,#111,#119,#127,#135,#142,#149,#156,#163,
#171,#179,#187,#195,#202,#209,#216,#223,#230,#237,#244,#251,#258,#265,#272,#279,
#286,#293,#300,#307,#314,#321,#328,#335,#342,#349,#356,#363,#370,#377,#384,#391,
#399,#406,#413,#421,#428,#435,#442,#449,#456,#463,#470,#477,#484,#491,#602,#632,
#666,#717,#738,#775,#805,#825,#845,#865,#885,#905,#925,#945,#964,#984,#1004,
#1024,#1051,#1072,#1092,#1111,#1130,#16),#1148);
#1155=APPLICATION_CONTEXT('automotive design');
#1156=APPLICATION_PROTOCOL_DEFINITION('international standard',
'config_control_design',1994,#1155);
#1157=PRODUCT_DEFINITION_CONTEXT('',#1155,'design');
#1158=PRODUCT_CONTEXT('',#1155,'mechanical');
#1159=PRODUCT('CUT-EXTRUDE13200','CUT-EXTRUDE13200','NOT SPECIFIED',(#1158));
#1160=PRODUCT_DEFINITION_FORMATION_WITH_SPECIFIED_SOURCE('1','LAST_VERSION',
#1159,.MADE.);
#1168=LENGTH_MEASURE_WITH_UNIT(LENGTH_MEASURE(2.54E1),#1167);
#1169=(CONVERSION_BASED_UNIT('INCH',#1168)LENGTH_UNIT()NAMED_UNIT(*));
#1170=DERIVED_UNIT_ELEMENT(#1169,2.E0);
#1171=AREA_UNIT((#1170));
#1172=MEASURE_REPRESENTATION_ITEM('surface area measure',AREA_MEASURE(
2.303444763690E0),#1171);
#1177=LENGTH_MEASURE_WITH_UNIT(LENGTH_MEASURE(2.54E1),#1176);
#1178=(CONVERSION_BASED_UNIT('INCH',#1177)LENGTH_UNIT()NAMED_UNIT(*));
#1179=DERIVED_UNIT_ELEMENT(#1178,3.E0);
#1180=VOLUME_UNIT((#1179));
#1181=MEASURE_REPRESENTATION_ITEM('volume measure',VOLUME_MEASURE(
9.755835329488E-2),#1180);
#1185=CARTESIAN_POINT('centre point',(1.792886848783E0,-3.816973232819E-1,
1.035252394105E0));
#1190=LENGTH_MEASURE_WITH_UNIT(LENGTH_MEASURE(2.54E1),#1189);
#1191=(CONVERSION_BASED_UNIT('INCH',#1190)LENGTH_UNIT()NAMED_UNIT(*));
#1192=DERIVED_UNIT_ELEMENT(#1191,2.E0);
#1193=AREA_UNIT((#1192));
#1194=MEASURE_REPRESENTATION_ITEM('surface area measure',AREA_MEASURE(
2.303444763690E0),#1193);
#1199=LENGTH_MEASURE_WITH_UNIT(LENGTH_MEASURE(2.54E1),#1198);
#1200=(CONVERSION_BASED_UNIT('INCH',#1199)LENGTH_UNIT()NAMED_UNIT(*));
#1201=DERIVED_UNIT_ELEMENT(#1200,3.E0);
#1202=VOLUME_UNIT((#1201));
#1203=MEASURE_REPRESENTATION_ITEM('volume measure',VOLUME_MEASURE(
9.755835329488E-2),#1202);
#1207=CARTESIAN_POINT('centre point',(1.792886848783E0,-3.816973232819E-1,
1.035252394105E0));
#1=DRAUGHTING_PRE_DEFINED_COLOUR('green');
#2=COLOUR_RGB('',1.1E-2,1.2E-2,1.E0);
#3=COLOUR_RGB('',2.352941176471E-1,2.352941176471E-1,2.352941176471E-1);
#4=COLOUR_RGB('',4.1E-1,2.61589E-1,1.12848E-1);
#5=COLOUR_RGB('',5.04854E-1,1.5455E-2,1.5455E-2);
#6=COLOUR_RGB('',6.35294E-1,6.86275E-1,7.4902E-1);
#7=COLOUR_RGB('',6.40777E-1,6.40777E-1,6.40777E-1);
#8=COLOUR_RGB('',6.69062E-1,6.69903E-1,6.55217E-1);
#9=COLOUR_RGB('',7.921568627451E-1,8.196078431373E-1,9.333333333333E-1);
#10=COLOUR_RGB('',9.21569E-1,7.05882E-1,4.70588E-1);
#11=DRAUGHTING_PRE_DEFINED_COLOUR('red');
#12=DRAUGHTING_PRE_DEFINED_COLOUR('yellow');
#13=COLOUR_RGB('',1.E0,1.E0,5.3E-1);
#14=COLOUR_RGB('',1.E0,1.E0,9.49E-1);
#15=DRAUGHTING_PRE_DEFINED_COLOUR('white');
#50=CIRCLE('',#49,5.905511811015E-3);
#58=CIRCLE('',#57,1.181102362205E-2);
#108=CIRCLE('',#107,1.181102362205E-2);
#116=CIRCLE('',#115,5.905511811024E-3);
#124=CIRCLE('',#123,1.181102362205E-2);
#132=CIRCLE('',#131,5.905511811025E-3);
#168=CIRCLE('',#167,5.905511811025E-3);
#176=CIRCLE('',#175,1.181102362205E-2);
#184=CIRCLE('',#183,5.905511811024E-3);
#192=CIRCLE('',#191,1.181102362205E-2);
#396=CIRCLE('',#395,5.905511811015E-3);
#418=CIRCLE('',#417,1.181102362205E-2);
#585=EDGE_CURVE('',#507,#494,#50,.T.);
#587=EDGE_CURVE('',#534,#494,#20,.T.);
#589=EDGE_CURVE('',#534,#535,#396,.T.);
#591=EDGE_CURVE('',#507,#535,#28,.T.);
#595=ADVANCED_FACE('',(#594),#584,.F.);
#608=EDGE_CURVE('',#505,#509,#35,.T.);
#610=EDGE_CURVE('',#505,#495,#86,.T.);
#612=EDGE_CURVE('',#494,#495,#42,.T.);
#615=EDGE_CURVE('',#507,#579,#460,.T.);
#617=EDGE_CURVE('',#579,#521,#439,.T.);
#619=EDGE_CURVE('',#521,#515,#425,.T.);
#621=EDGE_CURVE('',#509,#515,#58,.T.);
#625=ADVANCED_FACE('',(#624),#607,.F.);
#638=EDGE_CURVE('',#505,#498,#65,.T.);
#641=EDGE_CURVE('',#509,#511,#488,.T.);
#643=EDGE_CURVE('',#511,#529,#410,.T.);
#645=EDGE_CURVE('',#524,#529,#72,.T.);
#647=EDGE_CURVE('',#524,#503,#367,.T.);
#649=EDGE_CURVE('',#502,#503,#79,.T.);
#651=EDGE_CURVE('',#502,#561,#199,.T.);
#653=EDGE_CURVE('',#561,#545,#146,.T.);
#655=EDGE_CURVE('',#545,#498,#100,.T.);
#659=ADVANCED_FACE('',(#658),#637,.T.);
#673=EDGE_CURVE('',#498,#499,#93,.T.);
#675=EDGE_CURVE('',#499,#495,#213,.T.);
#680=ADVANCED_FACE('',(#679),#671,.F.);
#688=EDGE_CURVE('',#577,#545,#108,.T.);
#690=EDGE_CURVE('',#577,#575,#346,.T.);
#692=EDGE_CURVE('',#573,#575,#116,.T.);
#694=EDGE_CURVE('',#573,#571,#311,.T.);
#696=EDGE_CURVE('',#571,#569,#290,.T.);
#698=EDGE_CURVE('',#569,#567,#276,.T.);
#700=EDGE_CURVE('',#565,#567,#124,.T.);
#702=EDGE_CURVE('',#565,#563,#248,.T.);
#704=EDGE_CURVE('',#539,#563,#132,.T.);
#706=EDGE_CURVE('',#499,#539,#139,.T.);
#710=ADVANCED_FACE('',(#709),#685,.T.);
#725=EDGE_CURVE('',#561,#559,#192,.T.);
#727=EDGE_CURVE('',#577,#559,#153,.T.);
#731=ADVANCED_FACE('',(#730),#722,.T.);
#744=EDGE_CURVE('',#541,#531,#160,.T.);
#746=EDGE_CURVE('',#543,#541,#168,.T.);
#748=EDGE_CURVE('',#543,#547,#255,.T.);
#750=EDGE_CURVE('',#549,#547,#176,.T.);
#752=EDGE_CURVE('',#549,#551,#283,.T.);
#754=EDGE_CURVE('',#551,#553,#297,.T.);
#756=EDGE_CURVE('',#553,#555,#318,.T.);
#758=EDGE_CURVE('',#557,#555,#184,.T.);
#760=EDGE_CURVE('',#557,#559,#353,.T.);
#764=EDGE_CURVE('',#531,#502,#206,.T.);
#768=ADVANCED_FACE('',(#767),#743,.F.);
#783=EDGE_CURVE('',#539,#541,#241,.T.);
#786=EDGE_CURVE('',#513,#531,#220,.T.);
#788=EDGE_CURVE('',#513,#525,#374,.T.);
#790=EDGE_CURVE('',#528,#525,#227,.T.);
#792=EDGE_CURVE('',#528,#534,#403,.T.);
#798=ADVANCED_FACE('',(#797),#780,.T.);
#812=EDGE_CURVE('',#543,#563,#234,.T.);
#818=ADVANCED_FACE('',(#817),#810,.F.);
#832=EDGE_CURVE('',#565,#547,#269,.T.);
#838=ADVANCED_FACE('',(#837),#830,.T.);
#852=EDGE_CURVE('',#549,#567,#262,.T.);
#858=ADVANCED_FACE('',(#857),#850,.T.);
#872=EDGE_CURVE('',#569,#551,#304,.T.);
#878=ADVANCED_FACE('',(#877),#870,.T.);
#892=EDGE_CURVE('',#571,#553,#325,.T.);
#898=ADVANCED_FACE('',(#897),#890,.T.);
#912=EDGE_CURVE('',#573,#555,#339,.T.);
#918=ADVANCED_FACE('',(#917),#910,.T.);
#932=EDGE_CURVE('',#557,#575,#332,.T.);
#938=ADVANCED_FACE('',(#937),#930,.F.);
#957=ADVANCED_FACE('',(#956),#950,.T.);
#971=EDGE_CURVE('',#513,#503,#360,.T.);
#977=ADVANCED_FACE('',(#976),#969,.F.);
#991=EDGE_CURVE('',#524,#525,#388,.T.);
#997=ADVANCED_FACE('',(#996),#989,.F.);
#1011=EDGE_CURVE('',#528,#529,#381,.T.);
#1017=ADVANCED_FACE('',(#1016),#1009,.F.);
#1030=EDGE_CURVE('',#537,#518,#432,.T.);
#1032=EDGE_CURVE('',#518,#519,#446,.T.);
#1034=EDGE_CURVE('',#519,#535,#467,.T.);
#1040=EDGE_CURVE('',#537,#511,#418,.T.);
#1044=ADVANCED_FACE('',(#1043),#1029,.F.);
#1058=EDGE_CURVE('',#521,#518,#453,.T.);
#1061=EDGE_CURVE('',#537,#515,#481,.T.);
#1065=ADVANCED_FACE('',(#1064),#1056,.T.);
#1079=EDGE_CURVE('',#579,#519,#474,.T.);
#1085=ADVANCED_FACE('',(#1084),#1077,.T.);
#1104=ADVANCED_FACE('',(#1103),#1097,.T.);
#1123=ADVANCED_FACE('',(#1122),#1116,.T.);
#1131=CLOSED_SHELL('',(#595,#625,#659,#680,#710,#731,#768,#798,#818,#838,#858,
#878,#898,#918,#938,#957,#977,#997,#1017,#1044,#1065,#1085,#1104,#1123));
#1132=MANIFOLD_SOLID_BREP('',#1131);
#1140=(LENGTH_UNIT()NAMED_UNIT(*)SI_UNIT(.MILLI.,.METRE.));
#1143=(NAMED_UNIT(*)PLANE_ANGLE_UNIT()SI_UNIT($,.RADIAN.));
#1146=(NAMED_UNIT(*)SI_UNIT($,.STERADIAN.)SOLID_ANGLE_UNIT());
#1148=(GEOMETRIC_REPRESENTATION_CONTEXT(3)GLOBAL_UNCERTAINTY_ASSIGNED_CONTEXT((
#1147))GLOBAL_UNIT_ASSIGNED_CONTEXT((#1142,#1145,#1146))REPRESENTATION_CONTEXT(
'ID1','3'));
#1152=AXIS2_PLACEMENT_3D('',#1149,#1150,#1151);
#1153=ADVANCED_BREP_SHAPE_REPRESENTATION('',(#1152,#1132),#1148);
#1161=PRODUCT_DEFINITION('design','',#1160,#1157);
#1162=PRODUCT_DEFINITION_SHAPE('','SHAPE FOR CUT-EXTRUDE13200.',#1161);
#1163=SHAPE_ASPECT('','solid data associated with CUT-EXTRUDE13200',#1162,.F.);
#1164=PROPERTY_DEFINITION('',
'shape for solid data with which properties are associated',#1163);
#1165=SHAPE_REPRESENTATION('',(#1132),#1148);
#1166=SHAPE_DEFINITION_REPRESENTATION(#1164,#1165);
#1167=(LENGTH_UNIT()NAMED_UNIT(*)SI_UNIT(.MILLI.,.METRE.));
#1173=PROPERTY_DEFINITION('geometric validation property',
'area of CUT-EXTRUDE13200',#1163);
#1174=REPRESENTATION('surface area',(#1172),#1148);
#1175=PROPERTY_DEFINITION_REPRESENTATION(#1173,#1174);
#1176=(LENGTH_UNIT()NAMED_UNIT(*)SI_UNIT(.MILLI.,.METRE.));
#1182=PROPERTY_DEFINITION('geometric validation property',
'volume of CUT-EXTRUDE13200',#1163);
#1183=REPRESENTATION('volume',(#1181),#1148);
#1184=PROPERTY_DEFINITION_REPRESENTATION(#1182,#1183);
#1186=PROPERTY_DEFINITION('geometric validation property',
'centroid of CUT-EXTRUDE13200',#1163);
#1187=REPRESENTATION('centroid',(#1185),#1148);
#1188=PROPERTY_DEFINITION_REPRESENTATION(#1186,#1187);
#1189=(LENGTH_UNIT()NAMED_UNIT(*)SI_UNIT(.MILLI.,.METRE.));
#1195=PROPERTY_DEFINITION('geometric validation property',
'area of CUT-EXTRUDE13200',#1162);
#1196=REPRESENTATION('surface area',(#1194),#1148);
#1197=PROPERTY_DEFINITION_REPRESENTATION(#1195,#1196);
#1198=(LENGTH_UNIT()NAMED_UNIT(*)SI_UNIT(.MILLI.,.METRE.));
#1204=PROPERTY_DEFINITION('geometric validation property',
'volume of CUT-EXTRUDE13200',#1162);
#1205=REPRESENTATION('volume',(#1203),#1148);
#1206=PROPERTY_DEFINITION_REPRESENTATION(#1204,#1205);
#1208=PROPERTY_DEFINITION('geometric validation property',
'centroid of CUT-EXTRUDE13200',#1162);
#1209=REPRESENTATION('centroid',(#1207),#1148);
#1210=PROPERTY_DEFINITION_REPRESENTATION(#1208,#1209);
#1211=SHAPE_DEFINITION_REPRESENTATION(#1162,#1153);
ENDSEC;
END-ISO-10303-21;
