ISO-10303-21;
HEADER;
FILE_DESCRIPTION((''),'2;1');
FILE_NAME('CUT-EXTRUDE7100','2026-06-15T13:46:14',('Esia'),(''),
'CREO PARAMETRIC BY PTC INC, 2025102','CREO PARAMETRIC BY PTC INC, 2025102','');
FILE_SCHEMA((
'AP242_MANAGED_MODEL_BASED_3D_ENGINEERING_MIM_LF { 1 0 10303 442 1 1 4 }'));
ENDSEC;
DATA;
#18=DIRECTION('',(1.E0,-1.376936759056E-14,9.399888275156E-14));
#19=VECTOR('',#18,7.086614173231E-3);
#20=CARTESIAN_POINT('',(2.929133858268E-1,-1.968503937008E-3,
6.641732283465E-1));
#21=LINE('',#20,#19);
#22=DRAUGHTING_PRE_DEFINED_CURVE_FONT('continuous');
#23=CURVE_STYLE('',#22,POSITIVE_LENGTH_MEASURE(2.E-2),#9);
#24=PRESENTATION_STYLE_ASSIGNMENT((#23));
#25=STYLED_ITEM('',(#24),#21);
#26=DIRECTION('',(0.E0,1.E0,0.E0));
#27=VECTOR('',#26,1.181102362205E-1);
#28=CARTESIAN_POINT('',(2.929133858268E-1,-1.200787401575E-1,
6.641732283465E-1));
#29=LINE('',#28,#27);
#30=CURVE_STYLE('',#22,POSITIVE_LENGTH_MEASURE(2.E-2),#9);
#31=PRESENTATION_STYLE_ASSIGNMENT((#30));
#32=STYLED_ITEM('',(#31),#29);
#33=DIRECTION('',(-1.E0,0.E0,-9.399888275156E-14));
#34=VECTOR('',#33,7.086614173231E-3);
#35=CARTESIAN_POINT('',(3.E-1,-1.200787401575E-1,6.641732283465E-1));
#36=LINE('',#35,#34);
#37=CURVE_STYLE('',#22,POSITIVE_LENGTH_MEASURE(2.E-2),#9);
#38=PRESENTATION_STYLE_ASSIGNMENT((#37));
#39=STYLED_ITEM('',(#38),#36);
#40=DIRECTION('',(0.E0,-1.E0,0.E0));
#41=VECTOR('',#40,1.181102362205E-1);
#42=CARTESIAN_POINT('',(3.E-1,-1.968503937008E-3,6.641732283465E-1));
#43=LINE('',#42,#41);
#44=CURVE_STYLE('',#22,POSITIVE_LENGTH_MEASURE(2.E-2),#9);
#45=PRESENTATION_STYLE_ASSIGNMENT((#44));
#46=STYLED_ITEM('',(#45),#43);
#47=CARTESIAN_POINT('',(3.078740157480E-1,-1.968503937008E-3,
6.681102362205E-1));
#48=DIRECTION('',(0.E0,-1.E0,0.E0));
#49=DIRECTION('',(-6.062927937478E-13,0.E0,1.E0));
#50=AXIS2_PLACEMENT_3D('',#47,#48,#49);
#52=CURVE_STYLE('',#22,POSITIVE_LENGTH_MEASURE(2.E-2),#9);
#53=PRESENTATION_STYLE_ASSIGNMENT((#52));
#54=STYLED_ITEM('',(#53),#51);
#55=CARTESIAN_POINT('',(3.078740157480E-1,-1.968503937008E-3,
6.681102362205E-1));
#56=DIRECTION('',(0.E0,1.E0,0.E0));
#57=DIRECTION('',(-9.500000000002E-1,0.E0,3.122498999195E-1));
#58=AXIS2_PLACEMENT_3D('',#55,#56,#57);
#60=CURVE_STYLE('',#22,POSITIVE_LENGTH_MEASURE(2.E-2),#9);
#61=PRESENTATION_STYLE_ASSIGNMENT((#60));
#62=STYLED_ITEM('',(#61),#59);
#63=DIRECTION('',(-4.388565782908E-14,0.E0,1.E0));
#64=VECTOR('',#63,8.854329132588E-3);
#65=CARTESIAN_POINT('',(2.929133858268E-1,-1.968503937008E-3,
6.641732283465E-1));
#66=LINE('',#65,#64);
#67=CURVE_STYLE('',#22,POSITIVE_LENGTH_MEASURE(2.E-2),#9);
#68=PRESENTATION_STYLE_ASSIGNMENT((#67));
#69=STYLED_ITEM('',(#68),#66);
#70=DIRECTION('',(0.E0,0.E0,1.E0));
#71=VECTOR('',#70,3.937007874015E-3);
#72=CARTESIAN_POINT('',(3.E-1,-1.968503937008E-3,6.641732283465E-1));
#73=LINE('',#72,#71);
#74=CURVE_STYLE('',#22,POSITIVE_LENGTH_MEASURE(2.E-2),#9);
#75=PRESENTATION_STYLE_ASSIGNMENT((#74));
#76=STYLED_ITEM('',(#75),#73);
#77=DIRECTION('',(0.E0,0.E0,-1.E0));
#78=VECTOR('',#77,3.937007874015E-3);
#79=CARTESIAN_POINT('',(3.E-1,-1.200787401575E-1,6.681102362205E-1));
#80=LINE('',#79,#78);
#81=CURVE_STYLE('',#22,POSITIVE_LENGTH_MEASURE(2.E-2),#9);
#82=PRESENTATION_STYLE_ASSIGNMENT((#81));
#83=STYLED_ITEM('',(#82),#80);
#84=CARTESIAN_POINT('',(3.078740157480E-1,-1.200787401575E-1,
6.681102362205E-1));
#85=DIRECTION('',(0.E0,-1.E0,0.E0));
#86=DIRECTION('',(-2.000000000002E-1,0.E0,9.797958971132E-1));
#87=AXIS2_PLACEMENT_3D('',#84,#85,#86);
#89=CURVE_STYLE('',#22,POSITIVE_LENGTH_MEASURE(2.E-2),#9);
#90=PRESENTATION_STYLE_ASSIGNMENT((#89));
#91=STYLED_ITEM('',(#90),#88);
#92=CARTESIAN_POINT('',(3.078740157480E-1,-1.200787401575E-1,
6.681102362205E-1));
#93=DIRECTION('',(0.E0,1.E0,0.E0));
#94=DIRECTION('',(-1.E0,0.E0,2.537969834293E-13));
#95=AXIS2_PLACEMENT_3D('',#92,#93,#94);
#97=CURVE_STYLE('',#22,POSITIVE_LENGTH_MEASURE(2.E-2),#9);
#98=PRESENTATION_STYLE_ASSIGNMENT((#97));
#99=STYLED_ITEM('',(#98),#96);
#100=DIRECTION('',(-2.507751875948E-14,0.E0,1.E0));
#101=VECTOR('',#100,8.854329132588E-3);
#102=CARTESIAN_POINT('',(2.929133858268E-1,-1.200787401575E-1,
6.641732283465E-1));
#103=LINE('',#102,#101);
#104=CURVE_STYLE('',#22,POSITIVE_LENGTH_MEASURE(2.E-2),#9);
#105=PRESENTATION_STYLE_ASSIGNMENT((#104));
#106=STYLED_ITEM('',(#105),#103);
#107=DIRECTION('',(0.E0,-1.E0,0.E0));
#108=VECTOR('',#107,1.181102362205E-1);
#109=CARTESIAN_POINT('',(2.929133858268E-1,-1.968503937008E-3,
6.730275574790E-1));
#110=LINE('',#109,#108);
#111=CURVE_STYLE('',#22,POSITIVE_LENGTH_MEASURE(2.E-2),#9);
#112=PRESENTATION_STYLE_ASSIGNMENT((#111));
#113=STYLED_ITEM('',(#112),#110);
#114=DIRECTION('',(1.462277763029E-14,1.E0,0.E0));
#115=VECTOR('',#114,1.176825451140E-1);
#116=CARTESIAN_POINT('',(3.078740157480E-1,-1.196510490510E-1,
6.838582677165E-1));
#117=LINE('',#116,#115);
#118=CURVE_STYLE('',#22,POSITIVE_LENGTH_MEASURE(2.E-2),#9);
#119=PRESENTATION_STYLE_ASSIGNMENT((#118));
#120=STYLED_ITEM('',(#119),#117);
#121=DIRECTION('',(0.E0,0.E0,-1.E0));
#122=VECTOR('',#121,8.213202009728E-3);
#123=CARTESIAN_POINT('',(3.047244094488E-1,-1.200787401575E-1,
6.835400928679E-1));
#124=LINE('',#123,#122);
#125=CURVE_STYLE('',#22,POSITIVE_LENGTH_MEASURE(2.E-2),#9);
#126=PRESENTATION_STYLE_ASSIGNMENT((#125));
#127=STYLED_ITEM('',(#126),#124);
#128=CARTESIAN_POINT('',(3.047244094488E-1,-1.200787401575E-1,
6.835400928679E-1));
#129=CARTESIAN_POINT('',(3.049867372611E-1,-1.200787401575E-1,
6.835936403084E-1));
#130=CARTESIAN_POINT('',(3.055133189497E-1,-1.200612684544E-1,
6.836871905780E-1));
#131=CARTESIAN_POINT('',(3.063063251499E-1,-1.199814204889E-1,
6.837867864088E-1));
#132=CARTESIAN_POINT('',(3.070960260734E-1,-1.198474365941E-1,
6.838455906070E-1));
#133=CARTESIAN_POINT('',(3.076160680717E-1,-1.197224195065E-1,
6.838582677165E-1));
#134=CARTESIAN_POINT('',(3.078740157480E-1,-1.196510490510E-1,
6.838582677165E-1));
#136=CURVE_STYLE('',#22,POSITIVE_LENGTH_MEASURE(2.E-2),#9);
#137=PRESENTATION_STYLE_ASSIGNMENT((#136));
#138=STYLED_ITEM('',(#137),#135);
#139=DIRECTION('',(0.E0,0.E0,1.E0));
#140=VECTOR('',#139,7.874015748032E-3);
#141=CARTESIAN_POINT('',(3.157480314961E-1,-1.125080037851E-1,
6.759842519685E-1));
#142=LINE('',#141,#140);
#143=CURVE_STYLE('',#22,POSITIVE_LENGTH_MEASURE(2.E-2),#9);
#144=PRESENTATION_STYLE_ASSIGNMENT((#143));
#145=STYLED_ITEM('',(#144),#142);
#146=DIRECTION('',(0.E0,1.E0,0.E0));
#147=VECTOR('',#146,1.181102362205E-1);
#148=CARTESIAN_POINT('',(3.E-1,-1.200787401575E-1,6.681102362205E-1));
#149=LINE('',#148,#147);
#150=CURVE_STYLE('',#22,POSITIVE_LENGTH_MEASURE(2.E-2),#9);
#151=PRESENTATION_STYLE_ASSIGNMENT((#150));
#152=STYLED_ITEM('',(#151),#149);
#153=CARTESIAN_POINT('',(3.078740157480E-1,-1.196510490510E-1,
6.759842519685E-1));
#154=CARTESIAN_POINT('',(3.076635032680E-1,-1.197092948619E-1,
6.759842519685E-1));
#155=CARTESIAN_POINT('',(3.072398599010E-1,-1.198139088876E-1,
6.759673418935E-1));
#156=CARTESIAN_POINT('',(3.066014015099E-1,-1.199346370647E-1,
6.758897254673E-1));
#157=CARTESIAN_POINT('',(3.059621079007E-1,-1.200195285459E-1,
6.757580007634E-1));
#158=CARTESIAN_POINT('',(3.053314544240E-1,-1.200686026597E-1,
6.755720847767E-1));
#159=CARTESIAN_POINT('',(3.049243381975E-1,-1.200787401575E-1,
6.754141469177E-1));
#160=CARTESIAN_POINT('',(3.047244094488E-1,-1.200787401575E-1,
6.753268908582E-1));
#162=CURVE_STYLE('',#22,POSITIVE_LENGTH_MEASURE(2.E-2),#9);
#163=PRESENTATION_STYLE_ASSIGNMENT((#162));
#164=STYLED_ITEM('',(#163),#161);
#165=DIRECTION('',(0.E0,-1.E0,0.E0));
#166=VECTOR('',#165,1.176825451140E-1);
#167=CARTESIAN_POINT('',(3.078740157480E-1,-1.968503937008E-3,
6.759842519685E-1));
#168=LINE('',#167,#166);
#169=CURVE_STYLE('',#22,POSITIVE_LENGTH_MEASURE(2.E-2),#9);
#170=PRESENTATION_STYLE_ASSIGNMENT((#169));
#171=STYLED_ITEM('',(#170),#168);
#172=CARTESIAN_POINT('',(3.047244094488E-1,-1.082677165354E-1,
6.759842519685E-1));
#173=DIRECTION('',(0.E0,0.E0,-1.E0));
#174=DIRECTION('',(9.333333333336E-1,-3.590109871417E-1,0.E0));
#175=AXIS2_PLACEMENT_3D('',#172,#173,#174);
#177=CURVE_STYLE('',#22,POSITIVE_LENGTH_MEASURE(2.E-2),#9);
#178=PRESENTATION_STYLE_ASSIGNMENT((#177));
#179=STYLED_ITEM('',(#178),#176);
#180=DIRECTION('',(0.E0,-1.E0,0.E0));
#181=VECTOR('',#180,1.105394998481E-1);
#182=CARTESIAN_POINT('',(3.157480314961E-1,-1.968503937008E-3,
6.759842519685E-1));
#183=LINE('',#182,#181);
#184=CURVE_STYLE('',#22,POSITIVE_LENGTH_MEASURE(2.E-2),#9);
#185=PRESENTATION_STYLE_ASSIGNMENT((#184));
#186=STYLED_ITEM('',(#185),#183);
#187=DIRECTION('',(1.E0,-2.087436126729E-14,0.E0));
#188=VECTOR('',#187,7.874015748036E-3);
#189=CARTESIAN_POINT('',(3.078740157480E-1,-1.968503937008E-3,
6.759842519685E-1));
#190=LINE('',#189,#188);
#191=CURVE_STYLE('',#22,POSITIVE_LENGTH_MEASURE(2.E-2),#9);
#192=PRESENTATION_STYLE_ASSIGNMENT((#191));
#193=STYLED_ITEM('',(#192),#190);
#194=DIRECTION('',(0.E0,-1.E0,0.E0));
#195=VECTOR('',#194,1.105394998481E-1);
#196=CARTESIAN_POINT('',(3.157480314961E-1,-1.968503937008E-3,
6.838582677165E-1));
#197=LINE('',#196,#195);
#198=CURVE_STYLE('',#22,POSITIVE_LENGTH_MEASURE(2.E-2),#9);
#199=PRESENTATION_STYLE_ASSIGNMENT((#198));
#200=STYLED_ITEM('',(#199),#197);
#201=DIRECTION('',(0.E0,0.E0,1.E0));
#202=VECTOR('',#201,7.874015748031E-3);
#203=CARTESIAN_POINT('',(3.157480314961E-1,-1.968503937008E-3,
6.759842519685E-1));
#204=LINE('',#203,#202);
#205=CURVE_STYLE('',#22,POSITIVE_LENGTH_MEASURE(2.E-2),#9);
#206=PRESENTATION_STYLE_ASSIGNMENT((#205));
#207=STYLED_ITEM('',(#206),#204);
#208=CARTESIAN_POINT('',(3.047244094488E-1,-1.082677165354E-1,
6.838582677165E-1));
#209=DIRECTION('',(0.E0,0.E0,1.E0));
#210=DIRECTION('',(2.666666666667E-1,-9.637888196534E-1,0.E0));
#211=AXIS2_PLACEMENT_3D('',#208,#209,#210);
#213=CURVE_STYLE('',#22,POSITIVE_LENGTH_MEASURE(2.E-2),#9);
#214=PRESENTATION_STYLE_ASSIGNMENT((#213));
#215=STYLED_ITEM('',(#214),#212);
#216=DIRECTION('',(-1.E0,2.081928379693E-14,0.E0));
#217=VECTOR('',#216,7.874015748033E-3);
#218=CARTESIAN_POINT('',(3.157480314961E-1,-1.968503937008E-3,
6.838582677165E-1));
#219=LINE('',#218,#217);
#220=CURVE_STYLE('',#22,POSITIVE_LENGTH_MEASURE(2.E-2),#9);
#221=PRESENTATION_STYLE_ASSIGNMENT((#220));
#222=STYLED_ITEM('',(#221),#219);
#223=CARTESIAN_POINT('',(2.929133858268E-1,-1.200787401575E-1,
6.641732283465E-1));
#224=CARTESIAN_POINT('',(2.929133858268E-1,-1.200787401575E-1,
6.730275574790E-1));
#225=VERTEX_POINT('',#223);
#226=VERTEX_POINT('',#224);
#227=CARTESIAN_POINT('',(3.078740157480E-1,-1.196510490510E-1,
6.838582677165E-1));
#228=CARTESIAN_POINT('',(3.078740157480E-1,-1.968503937008E-3,
6.838582677165E-1));
#229=VERTEX_POINT('',#227);
#230=VERTEX_POINT('',#228);
#231=CARTESIAN_POINT('',(3.047244094488E-1,-1.200787401575E-1,
6.835400928679E-1));
#232=VERTEX_POINT('',#231);
#233=VERTEX_POINT('',#153);
#234=VERTEX_POINT('',#160);
#235=CARTESIAN_POINT('',(3.157480314961E-1,-1.125080037851E-1,
6.759842519685E-1));
#236=VERTEX_POINT('',#235);
#237=CARTESIAN_POINT('',(3.078740157480E-1,-1.968503937008E-3,
6.759842519685E-1));
#238=VERTEX_POINT('',#237);
#239=CARTESIAN_POINT('',(3.157480314961E-1,-1.968503937008E-3,
6.759842519685E-1));
#240=VERTEX_POINT('',#239);
#241=CARTESIAN_POINT('',(3.157480314961E-1,-1.125080037851E-1,
6.838582677165E-1));
#242=VERTEX_POINT('',#241);
#243=CARTESIAN_POINT('',(3.E-1,-1.968503937008E-3,6.681102362205E-1));
#244=VERTEX_POINT('',#243);
#245=CARTESIAN_POINT('',(3.E-1,-1.200787401575E-1,6.681102362205E-1));
#246=VERTEX_POINT('',#245);
#247=CARTESIAN_POINT('',(3.157480314961E-1,-1.968503937008E-3,
6.838582677165E-1));
#248=VERTEX_POINT('',#247);
#249=CARTESIAN_POINT('',(3.E-1,-1.968503937008E-3,6.641732283465E-1));
#250=CARTESIAN_POINT('',(3.E-1,-1.200787401575E-1,6.641732283465E-1));
#251=VERTEX_POINT('',#249);
#252=VERTEX_POINT('',#250);
#253=CARTESIAN_POINT('',(2.929133858268E-1,-1.968503937008E-3,
6.730275574790E-1));
#254=VERTEX_POINT('',#253);
#255=CARTESIAN_POINT('',(2.929133858268E-1,-1.968503937008E-3,
6.641732283465E-1));
#256=VERTEX_POINT('',#255);
#257=CARTESIAN_POINT('',(3.E-1,-2.925600380941E-1,6.641732283465E-1));
#258=DIRECTION('',(6.938893903907E-14,0.E0,-1.E0));
#259=DIRECTION('',(-1.E0,0.E0,-6.938893903907E-14));
#260=AXIS2_PLACEMENT_3D('',#257,#258,#259);
#261=PLANE('',#260);
#263=ORIENTED_EDGE('',*,*,#262,.F.);
#265=ORIENTED_EDGE('',*,*,#264,.F.);
#267=ORIENTED_EDGE('',*,*,#266,.F.);
#269=ORIENTED_EDGE('',*,*,#268,.F.);
#270=EDGE_LOOP('',(#263,#265,#267,#269));
#271=FACE_OUTER_BOUND('',#270,.F.);
#273=FILL_AREA_STYLE_COLOUR('',#5);
#274=FILL_AREA_STYLE('',(#273));
#275=SURFACE_STYLE_FILL_AREA(#274);
#276=SURFACE_SIDE_STYLE('',(#275));
#277=SURFACE_STYLE_USAGE(.BOTH.,#276);
#278=PRESENTATION_STYLE_ASSIGNMENT((#277));
#279=OVER_RIDING_STYLED_ITEM('',(#278),#272,#17);
#280=CARTESIAN_POINT('',(3.086614173228E-1,-1.968503937008E-3,
1.002755905512E0));
#281=DIRECTION('',(-1.301042606983E-14,-1.E0,0.E0));
#282=DIRECTION('',(1.E0,-1.301042606983E-14,0.E0));
#283=AXIS2_PLACEMENT_3D('',#280,#281,#282);
#284=PLANE('',#283);
#285=ORIENTED_EDGE('',*,*,#262,.T.);
#287=ORIENTED_EDGE('',*,*,#286,.T.);
#289=ORIENTED_EDGE('',*,*,#288,.F.);
#291=ORIENTED_EDGE('',*,*,#290,.T.);
#293=ORIENTED_EDGE('',*,*,#292,.T.);
#295=ORIENTED_EDGE('',*,*,#294,.T.);
#297=ORIENTED_EDGE('',*,*,#296,.F.);
#299=ORIENTED_EDGE('',*,*,#298,.F.);
#300=EDGE_LOOP('',(#285,#287,#289,#291,#293,#295,#297,#299));
#301=FACE_OUTER_BOUND('',#300,.F.);
#303=CARTESIAN_POINT('',(3.E-1,-2.925600380941E-1,6.681102362205E-1));
#304=DIRECTION('',(1.E0,0.E0,0.E0));
#305=DIRECTION('',(0.E0,1.E0,0.E0));
#306=AXIS2_PLACEMENT_3D('',#303,#304,#305);
#307=PLANE('',#306);
#308=ORIENTED_EDGE('',*,*,#286,.F.);
#309=ORIENTED_EDGE('',*,*,#268,.T.);
#311=ORIENTED_EDGE('',*,*,#310,.F.);
#313=ORIENTED_EDGE('',*,*,#312,.T.);
#314=EDGE_LOOP('',(#308,#309,#311,#313));
#315=FACE_OUTER_BOUND('',#314,.F.);
#317=FILL_AREA_STYLE_COLOUR('',#5);
#318=FILL_AREA_STYLE('',(#317));
#319=SURFACE_STYLE_FILL_AREA(#318);
#320=SURFACE_SIDE_STYLE('',(#319));
#321=SURFACE_STYLE_USAGE(.BOTH.,#320);
#322=PRESENTATION_STYLE_ASSIGNMENT((#321));
#323=OVER_RIDING_STYLED_ITEM('',(#322),#316,#17);
#324=CARTESIAN_POINT('',(2.929133858268E-1,-1.200787401575E-1,
1.002755905512E0));
#325=DIRECTION('',(0.E0,1.E0,0.E0));
#326=DIRECTION('',(-1.E0,0.E0,0.E0));
#327=AXIS2_PLACEMENT_3D('',#324,#325,#326);
#328=PLANE('',#327);
#329=ORIENTED_EDGE('',*,*,#266,.T.);
#331=ORIENTED_EDGE('',*,*,#330,.T.);
#333=ORIENTED_EDGE('',*,*,#332,.F.);
#335=ORIENTED_EDGE('',*,*,#334,.T.);
#337=ORIENTED_EDGE('',*,*,#336,.F.);
#338=ORIENTED_EDGE('',*,*,#310,.T.);
#339=EDGE_LOOP('',(#329,#331,#333,#335,#337,#338));
#340=FACE_OUTER_BOUND('',#339,.F.);
#342=CARTESIAN_POINT('',(2.929133858268E-1,-1.968503937008E-3,
1.002755905512E0));
#343=DIRECTION('',(1.E0,0.E0,0.E0));
#344=DIRECTION('',(0.E0,1.E0,0.E0));
#345=AXIS2_PLACEMENT_3D('',#342,#343,#344);
#346=PLANE('',#345);
#347=ORIENTED_EDGE('',*,*,#264,.T.);
#348=ORIENTED_EDGE('',*,*,#298,.T.);
#350=ORIENTED_EDGE('',*,*,#349,.T.);
#351=ORIENTED_EDGE('',*,*,#330,.F.);
#352=EDGE_LOOP('',(#347,#348,#350,#351));
#353=FACE_OUTER_BOUND('',#352,.F.);
#355=CARTESIAN_POINT('',(3.078740157480E-1,-2.925600380941E-1,
6.681102362205E-1));
#356=DIRECTION('',(0.E0,1.E0,0.E0));
#357=DIRECTION('',(-1.E0,0.E0,0.E0));
#358=AXIS2_PLACEMENT_3D('',#355,#356,#357);
#359=CYLINDRICAL_SURFACE('',#358,1.574803149606E-2);
#361=ORIENTED_EDGE('',*,*,#360,.F.);
#362=ORIENTED_EDGE('',*,*,#332,.T.);
#363=ORIENTED_EDGE('',*,*,#349,.F.);
#364=ORIENTED_EDGE('',*,*,#296,.T.);
#366=ORIENTED_EDGE('',*,*,#365,.F.);
#367=EDGE_LOOP('',(#361,#362,#363,#364,#366));
#368=FACE_OUTER_BOUND('',#367,.F.);
#370=FILL_AREA_STYLE_COLOUR('',#5);
#371=FILL_AREA_STYLE('',(#370));
#372=SURFACE_STYLE_FILL_AREA(#371);
#373=SURFACE_SIDE_STYLE('',(#372));
#374=SURFACE_STYLE_USAGE(.BOTH.,#373);
#375=PRESENTATION_STYLE_ASSIGNMENT((#374));
#376=OVER_RIDING_STYLED_ITEM('',(#375),#369,#17);
#377=CARTESIAN_POINT('',(3.047244094488E-1,-1.082677165354E-1,
1.002755905512E0));
#378=DIRECTION('',(0.E0,0.E0,-1.E0));
#379=DIRECTION('',(-1.E0,0.E0,0.E0));
#380=AXIS2_PLACEMENT_3D('',#377,#378,#379);
#381=CYLINDRICAL_SURFACE('',#380,1.181102362205E-2);
#383=ORIENTED_EDGE('',*,*,#382,.T.);
#384=ORIENTED_EDGE('',*,*,#334,.F.);
#385=ORIENTED_EDGE('',*,*,#360,.T.);
#387=ORIENTED_EDGE('',*,*,#386,.T.);
#389=ORIENTED_EDGE('',*,*,#388,.F.);
#391=ORIENTED_EDGE('',*,*,#390,.T.);
#392=EDGE_LOOP('',(#383,#384,#385,#387,#389,#391));
#393=FACE_OUTER_BOUND('',#392,.F.);
#395=CARTESIAN_POINT('',(3.078740157480E-1,-2.925600380941E-1,
6.681102362205E-1));
#396=DIRECTION('',(0.E0,1.E0,0.E0));
#397=DIRECTION('',(-1.E0,0.E0,0.E0));
#398=AXIS2_PLACEMENT_3D('',#395,#396,#397);
#399=CYLINDRICAL_SURFACE('',#398,7.874015748032E-3);
#400=ORIENTED_EDGE('',*,*,#288,.T.);
#401=ORIENTED_EDGE('',*,*,#312,.F.);
#402=ORIENTED_EDGE('',*,*,#336,.T.);
#403=ORIENTED_EDGE('',*,*,#382,.F.);
#405=ORIENTED_EDGE('',*,*,#404,.F.);
#406=EDGE_LOOP('',(#400,#401,#402,#403,#405));
#407=FACE_OUTER_BOUND('',#406,.F.);
#409=FILL_AREA_STYLE_COLOUR('',#5);
#410=FILL_AREA_STYLE('',(#409));
#411=SURFACE_STYLE_FILL_AREA(#410);
#412=SURFACE_SIDE_STYLE('',(#411));
#413=SURFACE_STYLE_USAGE(.BOTH.,#412);
#414=PRESENTATION_STYLE_ASSIGNMENT((#413));
#415=OVER_RIDING_STYLED_ITEM('',(#414),#408,#17);
#416=CARTESIAN_POINT('',(3.157480314961E-1,-2.925600380941E-1,
6.759842519685E-1));
#417=DIRECTION('',(0.E0,0.E0,-1.E0));
#418=DIRECTION('',(-1.E0,0.E0,0.E0));
#419=AXIS2_PLACEMENT_3D('',#416,#417,#418);
#420=PLANE('',#419);
#421=ORIENTED_EDGE('',*,*,#390,.F.);
#423=ORIENTED_EDGE('',*,*,#422,.F.);
#424=ORIENTED_EDGE('',*,*,#290,.F.);
#425=ORIENTED_EDGE('',*,*,#404,.T.);
#426=EDGE_LOOP('',(#421,#423,#424,#425));
#427=FACE_OUTER_BOUND('',#426,.F.);
#429=FILL_AREA_STYLE_COLOUR('',#5);
#430=FILL_AREA_STYLE('',(#429));
#431=SURFACE_STYLE_FILL_AREA(#430);
#432=SURFACE_SIDE_STYLE('',(#431));
#433=SURFACE_STYLE_USAGE(.BOTH.,#432);
#434=PRESENTATION_STYLE_ASSIGNMENT((#433));
#435=OVER_RIDING_STYLED_ITEM('',(#434),#428,#17);
#436=CARTESIAN_POINT('',(3.157480314961E-1,-2.925600380941E-1,
6.838582677165E-1));
#437=DIRECTION('',(1.E0,0.E0,0.E0));
#438=DIRECTION('',(0.E0,1.E0,0.E0));
#439=AXIS2_PLACEMENT_3D('',#436,#437,#438);
#440=PLANE('',#439);
#441=ORIENTED_EDGE('',*,*,#388,.T.);
#443=ORIENTED_EDGE('',*,*,#442,.F.);
#444=ORIENTED_EDGE('',*,*,#292,.F.);
#445=ORIENTED_EDGE('',*,*,#422,.T.);
#446=EDGE_LOOP('',(#441,#443,#444,#445));
#447=FACE_OUTER_BOUND('',#446,.F.);
#449=FILL_AREA_STYLE_COLOUR('',#5);
#450=FILL_AREA_STYLE('',(#449));
#451=SURFACE_STYLE_FILL_AREA(#450);
#452=SURFACE_SIDE_STYLE('',(#451));
#453=SURFACE_STYLE_USAGE(.BOTH.,#452);
#454=PRESENTATION_STYLE_ASSIGNMENT((#453));
#455=OVER_RIDING_STYLED_ITEM('',(#454),#448,#17);
#456=CARTESIAN_POINT('',(3.078740157480E-1,-2.925600380941E-1,
6.838582677165E-1));
#457=DIRECTION('',(0.E0,0.E0,1.E0));
#458=DIRECTION('',(1.E0,0.E0,0.E0));
#459=AXIS2_PLACEMENT_3D('',#456,#457,#458);
#460=PLANE('',#459);
#461=ORIENTED_EDGE('',*,*,#386,.F.);
#462=ORIENTED_EDGE('',*,*,#365,.T.);
#463=ORIENTED_EDGE('',*,*,#294,.F.);
#464=ORIENTED_EDGE('',*,*,#442,.T.);
#465=EDGE_LOOP('',(#461,#462,#463,#464));
#466=FACE_OUTER_BOUND('',#465,.F.);
#468=FILL_AREA_STYLE_COLOUR('',#5);
#469=FILL_AREA_STYLE('',(#468));
#470=SURFACE_STYLE_FILL_AREA(#469);
#471=SURFACE_SIDE_STYLE('',(#470));
#472=SURFACE_STYLE_USAGE(.BOTH.,#471);
#473=PRESENTATION_STYLE_ASSIGNMENT((#472));
#474=OVER_RIDING_STYLED_ITEM('',(#473),#467,#17);
#477=FILL_AREA_STYLE_COLOUR('',#9);
#478=FILL_AREA_STYLE('',(#477));
#479=SURFACE_STYLE_FILL_AREA(#478);
#480=SURFACE_SIDE_STYLE('',(#479));
#481=SURFACE_STYLE_USAGE(.BOTH.,#480);
#482=PRESENTATION_STYLE_ASSIGNMENT((#481));
#17=STYLED_ITEM('',(#482),#476);
#483=PRESENTATION_LAYER_ASSIGNMENT('SHELL_179','',(#17,#272,#302,#316,#341,#354,
#369,#394,#408,#428,#448,#467));
#485=LENGTH_MEASURE_WITH_UNIT(LENGTH_MEASURE(2.54E1),#484);
#486=(CONVERSION_BASED_UNIT('INCH',#485)LENGTH_UNIT()NAMED_UNIT(*));
#488=PLANE_ANGLE_MEASURE_WITH_UNIT(PLANE_ANGLE_MEASURE(1.745329251994E-2),#487);
#489=(CONVERSION_BASED_UNIT('DEGREE',#488)NAMED_UNIT(*)PLANE_ANGLE_UNIT());
#491=UNCERTAINTY_MEASURE_WITH_UNIT(LENGTH_MEASURE(1.218924157842E-5),#486,
'closure',
'Maximum model space distance between geometric entities at asserted connectivities');
#493=CARTESIAN_POINT('',(0.E0,0.E0,0.E0));
#494=DIRECTION('',(0.E0,0.E0,1.E0));
#495=DIRECTION('',(1.E0,0.E0,0.E0));
#498=MECHANICAL_DESIGN_GEOMETRIC_PRESENTATION_REPRESENTATION('',(#25,#32,#39,
#46,#54,#62,#69,#76,#83,#91,#99,#106,#113,#120,#127,#138,#145,#152,#164,#171,
#179,#186,#193,#200,#207,#215,#222,#279,#323,#376,#415,#435,#455,#474,#17),
#492);
#499=APPLICATION_CONTEXT('automotive design');
#500=APPLICATION_PROTOCOL_DEFINITION('international standard',
'config_control_design',1994,#499);
#501=PRODUCT_DEFINITION_CONTEXT('',#499,'design');
#502=PRODUCT_CONTEXT('',#499,'mechanical');
#503=PRODUCT('CUT-EXTRUDE7100','CUT-EXTRUDE7100','NOT SPECIFIED',(#502));
#504=PRODUCT_DEFINITION_FORMATION_WITH_SPECIFIED_SOURCE('1','LAST_VERSION',#503,
.MADE.);
#512=LENGTH_MEASURE_WITH_UNIT(LENGTH_MEASURE(2.54E1),#511);
#513=(CONVERSION_BASED_UNIT('INCH',#512)LENGTH_UNIT()NAMED_UNIT(*));
#514=DERIVED_UNIT_ELEMENT(#513,2.E0);
#515=AREA_UNIT((#514));
#516=MEASURE_REPRESENTATION_ITEM('surface area measure',AREA_MEASURE(
6.010442344071E0),#515);
#521=LENGTH_MEASURE_WITH_UNIT(LENGTH_MEASURE(2.54E1),#520);
#522=(CONVERSION_BASED_UNIT('INCH',#521)LENGTH_UNIT()NAMED_UNIT(*));
#523=DERIVED_UNIT_ELEMENT(#522,3.E0);
#524=VOLUME_UNIT((#523));
#525=MEASURE_REPRESENTATION_ITEM('volume measure',VOLUME_MEASURE(
4.487695678277E-1),#524);
#529=CARTESIAN_POINT('centre point',(7.690511093932E0,-1.540475074148E0,
1.716648925357E1));
#534=LENGTH_MEASURE_WITH_UNIT(LENGTH_MEASURE(2.54E1),#533);
#535=(CONVERSION_BASED_UNIT('INCH',#534)LENGTH_UNIT()NAMED_UNIT(*));
#536=DERIVED_UNIT_ELEMENT(#535,2.E0);
#537=AREA_UNIT((#536));
#538=MEASURE_REPRESENTATION_ITEM('surface area measure',AREA_MEASURE(
6.010442344071E0),#537);
#543=LENGTH_MEASURE_WITH_UNIT(LENGTH_MEASURE(2.54E1),#542);
#544=(CONVERSION_BASED_UNIT('INCH',#543)LENGTH_UNIT()NAMED_UNIT(*));
#545=DERIVED_UNIT_ELEMENT(#544,3.E0);
#546=VOLUME_UNIT((#545));
#547=MEASURE_REPRESENTATION_ITEM('volume measure',VOLUME_MEASURE(
4.487695678277E-1),#546);
#551=CARTESIAN_POINT('centre point',(7.690511093932E0,-1.540475074148E0,
1.716648925357E1));
#1=DRAUGHTING_PRE_DEFINED_COLOUR('green');
#2=COLOUR_RGB('',1.1E-2,1.2E-2,1.E0);
#3=COLOUR_RGB('',2.352941176471E-1,2.352941176471E-1,2.352941176471E-1);
#4=COLOUR_RGB('',4.1E-1,2.61589E-1,1.12848E-1);
#5=COLOUR_RGB('',4.980392156863E-1,4.980392156863E-1,4.980392156863E-1);
#6=COLOUR_RGB('',5.04854E-1,1.5455E-2,1.5455E-2);
#7=COLOUR_RGB('',6.35294E-1,6.86275E-1,7.4902E-1);
#8=COLOUR_RGB('',6.40777E-1,6.40777E-1,6.40777E-1);
#9=COLOUR_RGB('',6.392156862745E-1,6.666666666667E-1,6.784313725490E-1);
#10=COLOUR_RGB('',6.69062E-1,6.69903E-1,6.55217E-1);
#11=COLOUR_RGB('',9.21569E-1,7.05882E-1,4.70588E-1);
#12=DRAUGHTING_PRE_DEFINED_COLOUR('red');
#13=DRAUGHTING_PRE_DEFINED_COLOUR('yellow');
#14=COLOUR_RGB('',1.E0,1.E0,5.3E-1);
#15=COLOUR_RGB('',1.E0,1.E0,9.49E-1);
#16=DRAUGHTING_PRE_DEFINED_COLOUR('white');
#51=CIRCLE('',#50,7.874015748032E-3);
#59=CIRCLE('',#58,1.574803149606E-2);
#88=CIRCLE('',#87,1.574803149606E-2);
#96=CIRCLE('',#95,7.874015748032E-3);
#135=B_SPLINE_CURVE_WITH_KNOTS('',3,(#128,#129,#130,#131,#132,#133,#134),
.UNSPECIFIED.,.F.,.F.,(4,1,1,1,4),(0.E0,2.5E-1,5.E-1,7.5E-1,1.E0),
.UNSPECIFIED.);
#161=B_SPLINE_CURVE_WITH_KNOTS('',3,(#153,#154,#155,#156,#157,#158,#159,#160),
.UNSPECIFIED.,.F.,.F.,(4,1,1,1,1,4),(0.E0,2.E-1,4.E-1,6.E-1,8.E-1,1.E0),
.UNSPECIFIED.);
#176=CIRCLE('',#175,1.181102362205E-2);
#212=CIRCLE('',#211,1.181102362205E-2);
#262=EDGE_CURVE('',#256,#251,#21,.T.);
#264=EDGE_CURVE('',#225,#256,#29,.T.);
#266=EDGE_CURVE('',#252,#225,#36,.T.);
#268=EDGE_CURVE('',#251,#252,#43,.T.);
#272=ADVANCED_FACE('',(#271),#261,.T.);
#286=EDGE_CURVE('',#251,#244,#73,.T.);
#288=EDGE_CURVE('',#238,#244,#51,.T.);
#290=EDGE_CURVE('',#238,#240,#190,.T.);
#292=EDGE_CURVE('',#240,#248,#204,.T.);
#294=EDGE_CURVE('',#248,#230,#219,.T.);
#296=EDGE_CURVE('',#254,#230,#59,.T.);
#298=EDGE_CURVE('',#256,#254,#66,.T.);
#302=ADVANCED_FACE('',(#301),#284,.F.);
#310=EDGE_CURVE('',#246,#252,#80,.T.);
#312=EDGE_CURVE('',#246,#244,#149,.T.);
#316=ADVANCED_FACE('',(#315),#307,.T.);
#330=EDGE_CURVE('',#225,#226,#103,.T.);
#332=EDGE_CURVE('',#232,#226,#88,.T.);
#334=EDGE_CURVE('',#232,#234,#124,.T.);
#336=EDGE_CURVE('',#246,#234,#96,.T.);
#341=ADVANCED_FACE('',(#340),#328,.F.);
#349=EDGE_CURVE('',#254,#226,#110,.T.);
#354=ADVANCED_FACE('',(#353),#346,.F.);
#360=EDGE_CURVE('',#232,#229,#135,.T.);
#365=EDGE_CURVE('',#229,#230,#117,.T.);
#369=ADVANCED_FACE('',(#368),#359,.T.);
#382=EDGE_CURVE('',#233,#234,#161,.T.);
#386=EDGE_CURVE('',#229,#242,#212,.T.);
#388=EDGE_CURVE('',#236,#242,#142,.T.);
#390=EDGE_CURVE('',#236,#233,#176,.T.);
#394=ADVANCED_FACE('',(#393),#381,.T.);
#404=EDGE_CURVE('',#238,#233,#168,.T.);
#408=ADVANCED_FACE('',(#407),#399,.F.);
#422=EDGE_CURVE('',#240,#236,#183,.T.);
#428=ADVANCED_FACE('',(#427),#420,.T.);
#442=EDGE_CURVE('',#248,#242,#197,.T.);
#448=ADVANCED_FACE('',(#447),#440,.T.);
#467=ADVANCED_FACE('',(#466),#460,.T.);
#475=CLOSED_SHELL('',(#272,#302,#316,#341,#354,#369,#394,#408,#428,#448,#467));
#476=MANIFOLD_SOLID_BREP('',#475);
#484=(LENGTH_UNIT()NAMED_UNIT(*)SI_UNIT(.MILLI.,.METRE.));
#487=(NAMED_UNIT(*)PLANE_ANGLE_UNIT()SI_UNIT($,.RADIAN.));
#490=(NAMED_UNIT(*)SI_UNIT($,.STERADIAN.)SOLID_ANGLE_UNIT());
#492=(GEOMETRIC_REPRESENTATION_CONTEXT(3)GLOBAL_UNCERTAINTY_ASSIGNED_CONTEXT((
#491))GLOBAL_UNIT_ASSIGNED_CONTEXT((#486,#489,#490))REPRESENTATION_CONTEXT
('ID1','3'));
#496=AXIS2_PLACEMENT_3D('',#493,#494,#495);
#497=ADVANCED_BREP_SHAPE_REPRESENTATION('',(#496,#476),#492);
#505=PRODUCT_DEFINITION('design','',#504,#501);
#506=PRODUCT_DEFINITION_SHAPE('','SHAPE FOR CUT-EXTRUDE7100.',#505);
#507=SHAPE_ASPECT('','solid data associated with CUT-EXTRUDE7100',#506,.F.);
#508=PROPERTY_DEFINITION('',
'shape for solid data with which properties are associated',#507);
#509=SHAPE_REPRESENTATION('',(#476),#492);
#510=SHAPE_DEFINITION_REPRESENTATION(#508,#509);
#511=(LENGTH_UNIT()NAMED_UNIT(*)SI_UNIT(.MILLI.,.METRE.));
#517=PROPERTY_DEFINITION('geometric validation property',
'area of CUT-EXTRUDE7100',#507);
#518=REPRESENTATION('surface area',(#516),#492);
#519=PROPERTY_DEFINITION_REPRESENTATION(#517,#518);
#520=(LENGTH_UNIT()NAMED_UNIT(*)SI_UNIT(.MILLI.,.METRE.));
#526=PROPERTY_DEFINITION('geometric validation property',
'volume of CUT-EXTRUDE7100',#507);
#527=REPRESENTATION('volume',(#525),#492);
#528=PROPERTY_DEFINITION_REPRESENTATION(#526,#527);
#530=PROPERTY_DEFINITION('geometric validation property',
'centroid of CUT-EXTRUDE7100',#507);
#531=REPRESENTATION('centroid',(#529),#492);
#532=PROPERTY_DEFINITION_REPRESENTATION(#530,#531);
#533=(LENGTH_UNIT()NAMED_UNIT(*)SI_UNIT(.MILLI.,.METRE.));
#539=PROPERTY_DEFINITION('geometric validation property',
'area of CUT-EXTRUDE7100',#506);
#540=REPRESENTATION('surface area',(#538),#492);
#541=PROPERTY_DEFINITION_REPRESENTATION(#539,#540);
#542=(LENGTH_UNIT()NAMED_UNIT(*)SI_UNIT(.MILLI.,.METRE.));
#548=PROPERTY_DEFINITION('geometric validation property',
'volume of CUT-EXTRUDE7100',#506);
#549=REPRESENTATION('volume',(#547),#492);
#550=PROPERTY_DEFINITION_REPRESENTATION(#548,#549);
#552=PROPERTY_DEFINITION('geometric validation property',
'centroid of CUT-EXTRUDE7100',#506);
#553=REPRESENTATION('centroid',(#551),#492);
#554=PROPERTY_DEFINITION_REPRESENTATION(#552,#553);
#555=SHAPE_DEFINITION_REPRESENTATION(#506,#497);
ENDSEC;
END-ISO-10303-21;
