ISO-10303-21;
HEADER;
FILE_DESCRIPTION((''),'2;1');
FILE_NAME('CUT-EXTRUDE31200','2026-06-15T13:46:11',('Esia'),(''),
'CREO PARAMETRIC BY PTC INC, 2025102','CREO PARAMETRIC BY PTC INC, 2025102','');
FILE_SCHEMA((
'AP242_MANAGED_MODEL_BASED_3D_ENGINEERING_MIM_LF { 1 0 10303 442 1 1 4 }'));
ENDSEC;
DATA;
#17=DIRECTION('',(-6.427837174490E-1,3.480015522790E-3,7.660398044974E-1));
#18=VECTOR('',#17,2.244956966641E-3);
#19=CARTESIAN_POINT('',(1.166544181716E-1,-1.475395838678E-1,
5.839131419230E-1));
#20=LINE('',#19,#18);
#21=DRAUGHTING_PRE_DEFINED_CURVE_FONT('continuous');
#22=CURVE_STYLE('',#21,POSITIVE_LENGTH_MEASURE(2.E-2),#5);
#23=PRESENTATION_STYLE_ASSIGNMENT((#22));
#24=STYLED_ITEM('',(#23),#20);
#25=CARTESIAN_POINT('',(1.166544181716E-1,-1.475395838678E-1,
5.839131419230E-1));
#26=CARTESIAN_POINT('',(1.177088588439E-1,-1.475452925841E-1,
5.826565084636E-1));
#27=CARTESIAN_POINT('',(1.192714752964E-1,-1.475564929065E-1,
5.801910330372E-1));
#28=CARTESIAN_POINT('',(1.211046524782E-1,-1.475783800300E-1,
5.753731212462E-1));
#29=CARTESIAN_POINT('',(1.215754446781E-1,-1.476050153144E-1,
5.695100186606E-1));
#30=CARTESIAN_POINT('',(1.200936907477E-1,-1.476308745688E-1,
5.638177399636E-1));
#31=CARTESIAN_POINT('',(1.174517420798E-1,-1.476509830755E-1,
5.593913469123E-1));
#32=CARTESIAN_POINT('',(1.154847382640E-1,-1.476607805676E-1,
5.572346700594E-1));
#33=CARTESIAN_POINT('',(1.142281025530E-1,-1.476655707579E-1,
5.561802274978E-1));
#35=CURVE_STYLE('',#21,POSITIVE_LENGTH_MEASURE(2.E-2),#5);
#36=PRESENTATION_STYLE_ASSIGNMENT((#35));
#37=STYLED_ITEM('',(#36),#34);
#38=DIRECTION('',(0.E0,-1.E0,0.E0));
#39=VECTOR('',#38,6.693694634336E-2);
#40=CARTESIAN_POINT('',(1.166544181716E-1,-8.060263752445E-2,
5.839131419230E-1));
#41=LINE('',#40,#39);
#42=CURVE_STYLE('',#21,POSITIVE_LENGTH_MEASURE(2.E-2),#5);
#43=PRESENTATION_STYLE_ASSIGNMENT((#42));
#44=STYLED_ITEM('',(#43),#41);
#45=DIRECTION('',(0.E0,1.E0,0.E0));
#46=VECTOR('',#45,6.706293323350E-2);
#47=CARTESIAN_POINT('',(1.142281025530E-1,-1.476655707579E-1,
5.561802274978E-1));
#48=LINE('',#47,#46);
#49=CURVE_STYLE('',#21,POSITIVE_LENGTH_MEASURE(2.E-2),#5);
#50=PRESENTATION_STYLE_ASSIGNMENT((#49));
#51=STYLED_ITEM('',(#50),#48);
#52=DIRECTION('',(6.427876097060E-1,0.E0,-7.660444431026E-1));
#53=VECTOR('',#52,2.244943372872E-3);
#54=CARTESIAN_POINT('',(1.152113963871E-1,-8.060263752445E-2,
5.856328683188E-1));
#55=LINE('',#54,#53);
#56=CURVE_STYLE('',#21,POSITIVE_LENGTH_MEASURE(2.E-2),#5);
#57=PRESENTATION_STYLE_ASSIGNMENT((#56));
#58=STYLED_ITEM('',(#57),#55);
#59=DIRECTION('',(-6.427876097062E-1,0.E0,7.660444431025E-1));
#60=VECTOR('',#59,1.215556893797E-2);
#61=CARTESIAN_POINT('',(1.076066491582E-1,-8.060263752445E-2,
5.763211622812E-1));
#62=LINE('',#61,#60);
#63=CURVE_STYLE('',#21,POSITIVE_LENGTH_MEASURE(2.E-2),#5);
#64=PRESENTATION_STYLE_ASSIGNMENT((#63));
#65=STYLED_ITEM('',(#64),#62);
#66=CARTESIAN_POINT('',(1.015748031497E-1,-8.060263752445E-2,
5.712598425196E-1));
#67=DIRECTION('',(0.E0,-1.E0,0.E0));
#68=DIRECTION('',(6.427876096866E-1,0.E0,-7.660444431189E-1));
#69=AXIS2_PLACEMENT_3D('',#66,#67,#68);
#71=CURVE_STYLE('',#21,POSITIVE_LENGTH_MEASURE(2.E-2),#5);
#72=PRESENTATION_STYLE_ASSIGNMENT((#71));
#73=STYLED_ITEM('',(#72),#70);
#74=DIRECTION('',(7.660444431189E-1,0.E0,6.427876096866E-1));
#75=VECTOR('',#74,1.688588126386E-2);
#76=CARTESIAN_POINT('',(9.370078740157E-2,-8.060263752445E-2,
5.543739612558E-1));
#77=LINE('',#76,#75);
#78=CURVE_STYLE('',#21,POSITIVE_LENGTH_MEASURE(2.E-2),#5);
#79=PRESENTATION_STYLE_ASSIGNMENT((#78));
#80=STYLED_ITEM('',(#79),#77);
#81=DIRECTION('',(-7.660444431205E-1,0.E0,-6.427876096847E-1));
#82=VECTOR('',#81,2.679650682908E-2);
#83=CARTESIAN_POINT('',(1.142281025530E-1,-8.060263752445E-2,
5.561802274978E-1));
#84=LINE('',#83,#82);
#85=CURVE_STYLE('',#21,POSITIVE_LENGTH_MEASURE(2.E-2),#5);
#86=PRESENTATION_STYLE_ASSIGNMENT((#85));
#87=STYLED_ITEM('',(#86),#84);
#88=CARTESIAN_POINT('',(1.015748031496E-1,-8.060263752445E-2,
5.712598425197E-1));
#89=DIRECTION('',(0.E0,1.E0,0.E0));
#90=DIRECTION('',(7.660444431191E-1,0.E0,6.427876096864E-1));
#91=AXIS2_PLACEMENT_3D('',#88,#89,#90);
#93=CURVE_STYLE('',#21,POSITIVE_LENGTH_MEASURE(2.E-2),#5);
#94=PRESENTATION_STYLE_ASSIGNMENT((#93));
#95=STYLED_ITEM('',(#94),#92);
#96=CARTESIAN_POINT('',(1.152113963871E-1,-8.060263752445E-2,
5.856328683188E-1));
#97=CARTESIAN_POINT('',(1.147209499005E-1,-8.060263752445E-2,
5.862173596811E-1));
#98=CARTESIAN_POINT('',(1.137426903308E-1,-8.065468571025E-2,
5.873832040378E-1));
#99=CARTESIAN_POINT('',(1.122800327850E-1,-8.088853887168E-2,
5.891263314226E-1));
#100=CARTESIAN_POINT('',(1.108316121963E-1,-8.127708146871E-2,
5.908524918628E-1));
#101=CARTESIAN_POINT('',(1.094034588271E-1,-8.181850264536E-2,
5.925544987712E-1));
#102=CARTESIAN_POINT('',(1.080024255351E-1,-8.251027767009E-2,
5.942241852302E-1));
#103=CARTESIAN_POINT('',(1.066349937970E-1,-8.334918005932E-2,
5.958538269167E-1));
#104=CARTESIAN_POINT('',(1.053075499540E-1,-8.433130029501E-2,
5.974358128855E-1));
#105=CARTESIAN_POINT('',(1.040262821629E-1,-8.545205705769E-2,
5.989627683785E-1));
#106=CARTESIAN_POINT('',(1.027971624354E-1,-8.670622698699E-2,
6.004275762294E-1));
#107=CARTESIAN_POINT('',(1.016259225232E-1,-8.808796131042E-2,
6.018234056024E-1));
#108=CARTESIAN_POINT('',(1.005180227136E-1,-8.959081799702E-2,
6.031437491808E-1));
#109=CARTESIAN_POINT('',(9.947862762724E-2,-9.120779131579E-2,
6.043824520090E-1));
#110=CARTESIAN_POINT('',(9.851258438146E-2,-9.293134032478E-2,
6.055337375177E-1));
#111=CARTESIAN_POINT('',(9.762439548696E-2,-9.475343179409E-2,
6.065922398236E-1));
#112=CARTESIAN_POINT('',(9.681820300160E-2,-9.666556825351E-2,
6.075530226143E-1));
#113=CARTESIAN_POINT('',(9.609776484539E-2,-9.865883667603E-2,
6.084116073752E-1));
#114=CARTESIAN_POINT('',(9.546644009258E-2,-1.007239417516E-1,
6.091639909174E-1));
#115=CARTESIAN_POINT('',(9.492717218618E-2,-1.028512613190E-1,
6.098066653822E-1));
#116=CARTESIAN_POINT('',(9.448247524695E-2,-1.050308535791E-1,
6.103366345571E-1));
#117=CARTESIAN_POINT('',(9.413442182372E-2,-1.072526486845E-1,
6.107514284746E-1));
#118=CARTESIAN_POINT('',(9.388463819338E-2,-1.095059404510E-1,
6.110491090134E-1));
#119=CARTESIAN_POINT('',(9.373427484376E-2,-1.117815241853E-1,
6.112283050757E-1));
#120=CARTESIAN_POINT('',(9.370078171829E-2,-1.133038950755E-1,
6.112682206278E-1));
#121=CARTESIAN_POINT('',(9.370078843827E-2,-1.140672050762E-1,
6.112682126193E-1));
#123=CURVE_STYLE('',#21,POSITIVE_LENGTH_MEASURE(2.E-2),#5);
#124=PRESENTATION_STYLE_ASSIGNMENT((#123));
#125=STYLED_ITEM('',(#124),#122);
#126=CARTESIAN_POINT('',(9.370078740112E-2,-8.197292705737E-2,
5.928935229874E-1));
#127=CARTESIAN_POINT('',(9.568914441350E-2,-8.105940070209E-2,
5.905238913747E-1));
#128=CARTESIAN_POINT('',(9.771994863178E-2,-8.060263752445E-2,
5.881036731518E-1));
#129=CARTESIAN_POINT('',(9.979320005596E-2,-8.060263752445E-2,
5.856328683188E-1));
#131=CURVE_STYLE('',#21,POSITIVE_LENGTH_MEASURE(2.E-2),#5);
#132=PRESENTATION_STYLE_ASSIGNMENT((#131));
#133=STYLED_ITEM('',(#132),#130);
#134=DIRECTION('',(-1.E0,0.E0,0.E0));
#135=VECTOR('',#134,1.541819633110E-2);
#136=CARTESIAN_POINT('',(1.152113963871E-1,-8.060263752445E-2,
5.856328683188E-1));
#137=LINE('',#136,#135);
#138=CURVE_STYLE('',#21,POSITIVE_LENGTH_MEASURE(2.E-2),#5);
#139=PRESENTATION_STYLE_ASSIGNMENT((#138));
#140=STYLED_ITEM('',(#139),#137);
#141=CARTESIAN_POINT('',(9.370078843827E-2,-1.140672050762E-1,
6.112682126193E-1));
#142=CARTESIAN_POINT('',(9.370078174524E-2,-1.148301257429E-1,
6.112682205957E-1));
#143=CARTESIAN_POINT('',(9.373423790784E-2,-1.163519187787E-1,
6.112283490942E-1));
#144=CARTESIAN_POINT('',(9.388455031089E-2,-1.186274938063E-1,
6.110492137477E-1));
#145=CARTESIAN_POINT('',(9.413430081394E-2,-1.208808585475E-1,
6.107515726885E-1));
#146=CARTESIAN_POINT('',(9.448232221052E-2,-1.231027094790E-1,
6.103368169388E-1));
#147=CARTESIAN_POINT('',(9.492699245455E-2,-1.252823640573E-1,
6.098068795780E-1));
#148=CARTESIAN_POINT('',(9.546623840454E-2,-1.274097474543E-1,
6.091642312798E-1));
#149=CARTESIAN_POINT('',(9.609754572033E-2,-1.294749165979E-1,
6.084118685182E-1));
#150=CARTESIAN_POINT('',(9.681797096401E-2,-1.314682491132E-1,
6.075532991459E-1));
#151=CARTESIAN_POINT('',(9.762415565435E-2,-1.333804503457E-1,
6.065925256450E-1));
#152=CARTESIAN_POINT('',(9.851234018631E-2,-1.352026033061E-1,
6.055340285382E-1));
#153=CARTESIAN_POINT('',(9.947838469966E-2,-1.369262144966E-1,
6.043827415188E-1));
#154=CARTESIAN_POINT('',(1.005177838473E-1,-1.385432452659E-1,
6.031440338505E-1));
#155=CARTESIAN_POINT('',(1.016256924779E-1,-1.400461578430E-1,
6.018236797598E-1));
#156=CARTESIAN_POINT('',(1.027969449222E-1,-1.414279443120E-1,
6.004278354515E-1));
#157=CARTESIAN_POINT('',(1.040260792768E-1,-1.426821611727E-1,
5.989630101687E-1));
#158=CARTESIAN_POINT('',(1.053073670997E-1,-1.438029623965E-1,
5.974360308027E-1));
#159=CARTESIAN_POINT('',(1.066348307731E-1,-1.447851198241E-1,
5.958540212010E-1));
#160=CARTESIAN_POINT('',(1.080022874733E-1,-1.456240560415E-1,
5.942243497658E-1));
#161=CARTESIAN_POINT('',(1.094033452510E-1,-1.463158577963E-1,
5.925546341259E-1));
#162=CARTESIAN_POINT('',(1.108315256102E-1,-1.468573005461E-1,
5.908525950521E-1));
#163=CARTESIAN_POINT('',(1.122799751727E-1,-1.472458587612E-1,
5.891264000823E-1));
#164=CARTESIAN_POINT('',(1.137426607029E-1,-1.474797210598E-1,
5.873832393469E-1));
#165=CARTESIAN_POINT('',(1.147209399480E-1,-1.475317713827E-1,
5.862173715421E-1));
#166=CARTESIAN_POINT('',(1.152113963871E-1,-1.475317713827E-1,
5.856328683188E-1));
#168=CURVE_STYLE('',#21,POSITIVE_LENGTH_MEASURE(2.E-2),#5);
#169=PRESENTATION_STYLE_ASSIGNMENT((#168));
#170=STYLED_ITEM('',(#169),#167);
#171=DIRECTION('',(1.E0,-1.440146435787E-14,-7.920805396829E-14));
#172=VECTOR('',#171,1.541819633110E-2);
#173=CARTESIAN_POINT('',(9.979320005600E-2,-1.475317713827E-1,
5.856328683188E-1));
#174=LINE('',#173,#172);
#175=CURVE_STYLE('',#21,POSITIVE_LENGTH_MEASURE(2.E-2),#5);
#176=PRESENTATION_STYLE_ASSIGNMENT((#175));
#177=STYLED_ITEM('',(#176),#174);
#178=CARTESIAN_POINT('',(9.979320005600E-2,-1.475317713827E-1,
5.856328683188E-1));
#179=CARTESIAN_POINT('',(9.771994863181E-2,-1.475317713827E-1,
5.881036731518E-1));
#180=CARTESIAN_POINT('',(9.568914441351E-2,-1.470750082051E-1,
5.905238913746E-1));
#181=CARTESIAN_POINT('',(9.370078740112E-2,-1.461614818498E-1,
5.928935229874E-1));
#183=CURVE_STYLE('',#21,POSITIVE_LENGTH_MEASURE(2.E-2),#5);
#184=PRESENTATION_STYLE_ASSIGNMENT((#183));
#185=STYLED_ITEM('',(#184),#182);
#186=CARTESIAN_POINT('',(9.370078740156E-2,-1.140672044536E-1,
6.112682138563E-1));
#187=CARTESIAN_POINT('',(9.370078740156E-2,-1.103419195213E-1,
6.112682138563E-1));
#188=CARTESIAN_POINT('',(9.370078740156E-2,-1.035181514165E-1,
6.103548060479E-1));
#189=CARTESIAN_POINT('',(9.370078740156E-2,-9.466468540495E-2,
6.069705014923E-1));
#190=CARTESIAN_POINT('',(9.370078740156E-2,-8.841533561209E-2,
6.025056831939E-1));
#191=CARTESIAN_POINT('',(9.370078740156E-2,-8.430297357276E-2,
5.976410748122E-1));
#192=CARTESIAN_POINT('',(9.370078740156E-2,-8.264293715843E-2,
5.946314882985E-1));
#193=CARTESIAN_POINT('',(9.370078740156E-2,-8.197292705751E-2,
5.928935229878E-1));
#195=CURVE_STYLE('',#21,POSITIVE_LENGTH_MEASURE(2.E-2),#5);
#196=PRESENTATION_STYLE_ASSIGNMENT((#195));
#197=STYLED_ITEM('',(#196),#194);
#198=CARTESIAN_POINT('',(9.370078740156E-2,-1.461614818497E-1,
5.928935229878E-1));
#199=CARTESIAN_POINT('',(9.370078740156E-2,-1.454914717487E-1,
5.946314882985E-1));
#200=CARTESIAN_POINT('',(9.370078740156E-2,-1.438314353344E-1,
5.976410748122E-1));
#201=CARTESIAN_POINT('',(9.370078740156E-2,-1.397190732951E-1,
6.025056831939E-1));
#202=CARTESIAN_POINT('',(9.370078740156E-2,-1.334697235022E-1,
6.069705014923E-1));
#203=CARTESIAN_POINT('',(9.370078740156E-2,-1.246162574907E-1,
6.103548060479E-1));
#204=CARTESIAN_POINT('',(9.370078740156E-2,-1.177924893858E-1,
6.112682138563E-1));
#205=CARTESIAN_POINT('',(9.370078740156E-2,-1.140672044536E-1,
6.112682138563E-1));
#207=CURVE_STYLE('',#21,POSITIVE_LENGTH_MEASURE(2.E-2),#5);
#208=PRESENTATION_STYLE_ASSIGNMENT((#207));
#209=STYLED_ITEM('',(#208),#206);
#210=DIRECTION('',(-6.427837174516E-1,3.480015522782E-3,7.660398044952E-1));
#211=VECTOR('',#210,1.215564254364E-2);
#212=CARTESIAN_POINT('',(1.076066491582E-1,-1.475740732075E-1,
5.763211622812E-1));
#213=LINE('',#212,#211);
#214=CURVE_STYLE('',#21,POSITIVE_LENGTH_MEASURE(2.E-2),#5);
#215=PRESENTATION_STYLE_ASSIGNMENT((#214));
#216=STYLED_ITEM('',(#215),#213);
#217=DIRECTION('',(0.E0,1.E0,-2.594441551647E-14));
#218=VECTOR('',#217,6.418855479247E-2);
#219=CARTESIAN_POINT('',(9.370078740141E-2,-1.461614818498E-1,
5.928935229873E-1));
#220=LINE('',#219,#218);
#221=CURVE_STYLE('',#21,POSITIVE_LENGTH_MEASURE(2.E-2),#5);
#222=PRESENTATION_STYLE_ASSIGNMENT((#221));
#223=STYLED_ITEM('',(#222),#220);
#224=CARTESIAN_POINT('',(1.066361229109E-1,-1.476244679635E-1,
5.652279965109E-1));
#225=CARTESIAN_POINT('',(1.071387771954E-1,-1.476225518874E-1,
5.656497735356E-1));
#226=CARTESIAN_POINT('',(1.079255787218E-1,-1.476186328905E-1,
5.665124442769E-1));
#227=CARTESIAN_POINT('',(1.089823581890E-1,-1.476105894879E-1,
5.682830014976E-1));
#228=CARTESIAN_POINT('',(1.095750597610E-1,-1.476002457861E-1,
5.705599129766E-1));
#229=CARTESIAN_POINT('',(1.093867428808E-1,-1.475895916723E-1,
5.729051540111E-1));
#230=CARTESIAN_POINT('',(1.086534720078E-1,-1.475808368229E-1,
5.748323187276E-1));
#231=CARTESIAN_POINT('',(1.080284254265E-1,-1.475763566940E-1,
5.758185088982E-1));
#232=CARTESIAN_POINT('',(1.076066491574E-1,-1.475740732075E-1,
5.763211622819E-1));
#234=CURVE_STYLE('',#21,POSITIVE_LENGTH_MEASURE(2.E-2),#5);
#235=PRESENTATION_STYLE_ASSIGNMENT((#234));
#236=STYLED_ITEM('',(#235),#233);
#237=DIRECTION('',(0.E0,-1.E0,0.E0));
#238=VECTOR('',#237,6.702183043907E-2);
#239=CARTESIAN_POINT('',(1.066361229109E-1,-8.060263752445E-2,
5.652279965109E-1));
#240=LINE('',#239,#238);
#241=CURVE_STYLE('',#21,POSITIVE_LENGTH_MEASURE(2.E-2),#5);
#242=PRESENTATION_STYLE_ASSIGNMENT((#241));
#243=STYLED_ITEM('',(#242),#240);
#244=DIRECTION('',(1.450536540899E-14,1.E0,0.E0));
#245=VECTOR('',#244,6.697143568301E-2);
#246=CARTESIAN_POINT('',(1.076066491582E-1,-1.475740732075E-1,
5.763211622812E-1));
#247=LINE('',#246,#245);
#248=CURVE_STYLE('',#21,POSITIVE_LENGTH_MEASURE(2.E-2),#5);
#249=PRESENTATION_STYLE_ASSIGNMENT((#248));
#250=STYLED_ITEM('',(#249),#247);
#251=DIRECTION('',(7.660411771212E-1,2.920084973988E-3,6.427848691891E-1));
#252=VECTOR('',#251,1.688595325640E-2);
#253=CARTESIAN_POINT('',(9.370078740157E-2,-1.476737763819E-1,
5.543739612558E-1));
#254=LINE('',#253,#252);
#255=CURVE_STYLE('',#21,POSITIVE_LENGTH_MEASURE(2.E-2),#5);
#256=PRESENTATION_STYLE_ASSIGNMENT((#255));
#257=STYLED_ITEM('',(#256),#254);
#258=DIRECTION('',(0.E0,4.542818262562E-3,9.999896813479E-1));
#259=VECTOR('',#258,1.541835542726E-2);
#260=CARTESIAN_POINT('',(9.370078740157E-2,-1.477438191685E-1,
5.389557649252E-1));
#261=LINE('',#260,#259);
#262=CURVE_STYLE('',#21,POSITIVE_LENGTH_MEASURE(2.E-2),#5);
#263=PRESENTATION_STYLE_ASSIGNMENT((#262));
#264=STYLED_ITEM('',(#263),#261);
#265=DIRECTION('',(0.E0,0.E0,-1.E0));
#266=VECTOR('',#265,1.541819633061E-2);
#267=CARTESIAN_POINT('',(9.370078740157E-2,-8.060263752445E-2,
5.543739612558E-1));
#268=LINE('',#267,#266);
#269=CURVE_STYLE('',#21,POSITIVE_LENGTH_MEASURE(2.E-2),#5);
#270=PRESENTATION_STYLE_ASSIGNMENT((#269));
#271=STYLED_ITEM('',(#270),#268);
#272=DIRECTION('',(0.E0,1.E0,0.E0));
#273=VECTOR('',#272,6.707113885744E-2);
#274=CARTESIAN_POINT('',(9.370078740157E-2,-1.476737763819E-1,
5.543739612558E-1));
#275=LINE('',#274,#273);
#276=CURVE_STYLE('',#21,POSITIVE_LENGTH_MEASURE(2.E-2),#5);
#277=PRESENTATION_STYLE_ASSIGNMENT((#276));
#278=STYLED_ITEM('',(#277),#275);
#279=DIRECTION('',(-7.660411771228E-1,-2.920084973982E-3,-6.427848691873E-1));
#280=VECTOR('',#279,2.679662107533E-2);
#281=CARTESIAN_POINT('',(1.142281025530E-1,-1.476655707579E-1,
5.561802274978E-1));
#282=LINE('',#281,#280);
#283=CURVE_STYLE('',#21,POSITIVE_LENGTH_MEASURE(2.E-2),#5);
#284=PRESENTATION_STYLE_ASSIGNMENT((#283));
#285=STYLED_ITEM('',(#284),#282);
#286=DIRECTION('',(0.E0,1.E0,0.E0));
#287=VECTOR('',#286,6.714118164406E-2);
#288=CARTESIAN_POINT('',(9.370078740157E-2,-1.477438191685E-1,
5.389557649252E-1));
#289=LINE('',#288,#287);
#290=CURVE_STYLE('',#21,POSITIVE_LENGTH_MEASURE(2.E-2),#5);
#291=PRESENTATION_STYLE_ASSIGNMENT((#290));
#292=STYLED_ITEM('',(#291),#289);
#293=VERTEX_POINT('',#186);
#294=VERTEX_POINT('',#193);
#295=CARTESIAN_POINT('',(9.370078740141E-2,-1.461614818498E-1,
5.928935229873E-1));
#296=VERTEX_POINT('',#295);
#297=VERTEX_POINT('',#129);
#298=CARTESIAN_POINT('',(1.076066491582E-1,-8.060263752445E-2,
5.763211622812E-1));
#299=VERTEX_POINT('',#298);
#300=VERTEX_POINT('',#96);
#301=VERTEX_POINT('',#166);
#302=CARTESIAN_POINT('',(1.166544181716E-1,-8.060263752445E-2,
5.839131419230E-1));
#303=VERTEX_POINT('',#302);
#304=CARTESIAN_POINT('',(1.166544181716E-1,-1.475395838678E-1,
5.839131419230E-1));
#305=VERTEX_POINT('',#304);
#306=CARTESIAN_POINT('',(1.142281025530E-1,-8.060263752445E-2,
5.561802274978E-1));
#307=VERTEX_POINT('',#306);
#308=VERTEX_POINT('',#33);
#309=CARTESIAN_POINT('',(9.370078740157E-2,-8.060263752445E-2,
5.389557649252E-1));
#310=VERTEX_POINT('',#309);
#311=CARTESIAN_POINT('',(9.370078740157E-2,-1.477438191685E-1,
5.389557649252E-1));
#312=VERTEX_POINT('',#311);
#313=VERTEX_POINT('',#224);
#314=VERTEX_POINT('',#232);
#315=CARTESIAN_POINT('',(9.370078740157E-2,-8.060263752445E-2,
5.543739612558E-1));
#316=VERTEX_POINT('',#315);
#317=CARTESIAN_POINT('',(1.066361229109E-1,-8.060263752445E-2,
5.652279965109E-1));
#318=VERTEX_POINT('',#317);
#319=VERTEX_POINT('',#178);
#320=CARTESIAN_POINT('',(9.370078740157E-2,-1.476737763819E-1,
5.543739612558E-1));
#321=VERTEX_POINT('',#320);
#322=CARTESIAN_POINT('',(1.152113963871E-1,1.712598425197E-1,
5.856328683188E-1));
#323=DIRECTION('',(7.660444431052E-1,0.E0,6.427876097030E-1));
#324=DIRECTION('',(6.427876097030E-1,0.E0,-7.660444431052E-1));
#325=AXIS2_PLACEMENT_3D('',#322,#323,#324);
#326=PLANE('',#325);
#328=ORIENTED_EDGE('',*,*,#327,.T.);
#330=ORIENTED_EDGE('',*,*,#329,.F.);
#332=ORIENTED_EDGE('',*,*,#331,.F.);
#334=ORIENTED_EDGE('',*,*,#333,.T.);
#336=ORIENTED_EDGE('',*,*,#335,.T.);
#337=EDGE_LOOP('',(#328,#330,#332,#334,#336));
#338=FACE_OUTER_BOUND('',#337,.F.);
#340=CARTESIAN_POINT('',(3.213631751925E-1,-1.477438191685E-1,
5.389557649252E-1));
#341=DIRECTION('',(0.E0,9.999896813479E-1,-4.542818262561E-3));
#342=DIRECTION('',(0.E0,4.542818262561E-3,9.999896813479E-1));
#343=AXIS2_PLACEMENT_3D('',#340,#341,#342);
#344=PLANE('',#343);
#345=ORIENTED_EDGE('',*,*,#327,.F.);
#347=ORIENTED_EDGE('',*,*,#346,.T.);
#349=ORIENTED_EDGE('',*,*,#348,.T.);
#351=ORIENTED_EDGE('',*,*,#350,.T.);
#353=ORIENTED_EDGE('',*,*,#352,.T.);
#355=ORIENTED_EDGE('',*,*,#354,.T.);
#357=ORIENTED_EDGE('',*,*,#356,.T.);
#359=ORIENTED_EDGE('',*,*,#358,.T.);
#360=EDGE_LOOP('',(#345,#347,#349,#351,#353,#355,#357,#359));
#361=FACE_OUTER_BOUND('',#360,.F.);
#363=CARTESIAN_POINT('',(1.015748031496E-1,1.712598425197E-1,
5.712598425197E-1));
#364=DIRECTION('',(0.E0,-1.E0,0.E0));
#365=DIRECTION('',(0.E0,0.E0,-1.E0));
#366=AXIS2_PLACEMENT_3D('',#363,#364,#365);
#367=CYLINDRICAL_SURFACE('',#366,1.968503937008E-2);
#368=ORIENTED_EDGE('',*,*,#346,.F.);
#369=ORIENTED_EDGE('',*,*,#335,.F.);
#371=ORIENTED_EDGE('',*,*,#370,.T.);
#373=ORIENTED_EDGE('',*,*,#372,.F.);
#374=EDGE_LOOP('',(#368,#369,#371,#373));
#375=FACE_OUTER_BOUND('',#374,.F.);
#377=CARTESIAN_POINT('',(3.213631751925E-1,-8.060263752445E-2,
5.389557649252E-1));
#378=DIRECTION('',(0.E0,-1.E0,0.E0));
#379=DIRECTION('',(0.E0,0.E0,-1.E0));
#380=AXIS2_PLACEMENT_3D('',#377,#378,#379);
#381=PLANE('',#380);
#382=ORIENTED_EDGE('',*,*,#333,.F.);
#384=ORIENTED_EDGE('',*,*,#383,.T.);
#386=ORIENTED_EDGE('',*,*,#385,.F.);
#388=ORIENTED_EDGE('',*,*,#387,.F.);
#390=ORIENTED_EDGE('',*,*,#389,.F.);
#392=ORIENTED_EDGE('',*,*,#391,.T.);
#394=ORIENTED_EDGE('',*,*,#393,.F.);
#395=ORIENTED_EDGE('',*,*,#370,.F.);
#396=EDGE_LOOP('',(#382,#384,#386,#388,#390,#392,#394,#395));
#397=FACE_OUTER_BOUND('',#396,.F.);
#399=CARTESIAN_POINT('',(3.213631751925E-1,-1.140672044536E-1,
5.856328683188E-1));
#400=DIRECTION('',(1.E0,0.E0,0.E0));
#401=DIRECTION('',(0.E0,1.E0,0.E0));
#402=AXIS2_PLACEMENT_3D('',#399,#400,#401);
#405=DIRECTION('',(-1.E0,0.E0,0.E0));
#406=VECTOR('',#405,1.E0);
#407=SURFACE_OF_LINEAR_EXTRUSION('',#404,#406);
#408=ORIENTED_EDGE('',*,*,#331,.T.);
#410=ORIENTED_EDGE('',*,*,#409,.T.);
#412=ORIENTED_EDGE('',*,*,#411,.T.);
#413=ORIENTED_EDGE('',*,*,#383,.F.);
#414=EDGE_LOOP('',(#408,#410,#412,#413));
#415=FACE_OUTER_BOUND('',#414,.F.);
#417=CARTESIAN_POINT('',(3.213631751925E-1,-1.140672044536E-1,
5.856328683188E-1));
#418=DIRECTION('',(1.E0,0.E0,0.E0));
#419=DIRECTION('',(0.E0,1.E0,0.E0));
#420=AXIS2_PLACEMENT_3D('',#417,#418,#419);
#423=DIRECTION('',(-1.E0,0.E0,0.E0));
#424=VECTOR('',#423,1.E0);
#425=SURFACE_OF_LINEAR_EXTRUSION('',#422,#424);
#426=ORIENTED_EDGE('',*,*,#329,.T.);
#427=ORIENTED_EDGE('',*,*,#358,.F.);
#429=ORIENTED_EDGE('',*,*,#428,.T.);
#431=ORIENTED_EDGE('',*,*,#430,.T.);
#432=EDGE_LOOP('',(#426,#427,#429,#431));
#433=FACE_OUTER_BOUND('',#432,.F.);
#435=CARTESIAN_POINT('',(9.370078740156E-2,1.712598425197E-1,
5.928935229878E-1));
#436=DIRECTION('',(-1.E0,0.E0,2.230117513174E-14));
#437=DIRECTION('',(2.230117513174E-14,0.E0,1.E0));
#438=AXIS2_PLACEMENT_3D('',#435,#436,#437);
#439=PLANE('',#438);
#440=ORIENTED_EDGE('',*,*,#409,.F.);
#441=ORIENTED_EDGE('',*,*,#430,.F.);
#443=ORIENTED_EDGE('',*,*,#442,.T.);
#444=EDGE_LOOP('',(#440,#441,#443));
#445=FACE_OUTER_BOUND('',#444,.F.);
#447=CARTESIAN_POINT('',(1.076066491586E-1,1.712598425197E-1,
5.763211622808E-1));
#448=DIRECTION('',(-7.660444431E-1,0.E0,-6.427876097091E-1));
#449=DIRECTION('',(-6.427876097091E-1,0.E0,7.660444431E-1));
#450=AXIS2_PLACEMENT_3D('',#447,#448,#449);
#451=PLANE('',#450);
#452=ORIENTED_EDGE('',*,*,#356,.F.);
#454=ORIENTED_EDGE('',*,*,#453,.T.);
#455=ORIENTED_EDGE('',*,*,#385,.T.);
#456=ORIENTED_EDGE('',*,*,#411,.F.);
#457=ORIENTED_EDGE('',*,*,#442,.F.);
#458=ORIENTED_EDGE('',*,*,#428,.F.);
#459=EDGE_LOOP('',(#452,#454,#455,#456,#457,#458));
#460=FACE_OUTER_BOUND('',#459,.F.);
#462=CARTESIAN_POINT('',(1.015748031497E-1,1.712598425197E-1,
5.712598425196E-1));
#463=DIRECTION('',(0.E0,-1.E0,0.E0));
#464=DIRECTION('',(0.E0,0.E0,-1.E0));
#465=AXIS2_PLACEMENT_3D('',#462,#463,#464);
#466=CYLINDRICAL_SURFACE('',#465,7.874015747867E-3);
#467=ORIENTED_EDGE('',*,*,#354,.F.);
#469=ORIENTED_EDGE('',*,*,#468,.F.);
#470=ORIENTED_EDGE('',*,*,#387,.T.);
#471=ORIENTED_EDGE('',*,*,#453,.F.);
#472=EDGE_LOOP('',(#467,#469,#470,#471));
#473=FACE_OUTER_BOUND('',#472,.F.);
#475=CARTESIAN_POINT('',(9.370078740158E-2,1.712598425197E-1,
5.543739612558E-1));
#476=DIRECTION('',(-6.427876096866E-1,0.E0,7.660444431189E-1));
#477=DIRECTION('',(7.660444431189E-1,0.E0,6.427876096866E-1));
#478=AXIS2_PLACEMENT_3D('',#475,#476,#477);
#479=PLANE('',#478);
#480=ORIENTED_EDGE('',*,*,#352,.F.);
#482=ORIENTED_EDGE('',*,*,#481,.T.);
#483=ORIENTED_EDGE('',*,*,#389,.T.);
#484=ORIENTED_EDGE('',*,*,#468,.T.);
#485=EDGE_LOOP('',(#480,#482,#483,#484));
#486=FACE_OUTER_BOUND('',#485,.F.);
#488=CARTESIAN_POINT('',(9.370078740158E-2,1.712598425197E-1,
5.543739612558E-1));
#489=DIRECTION('',(-1.E0,0.E0,0.E0));
#490=DIRECTION('',(0.E0,-1.E0,0.E0));
#491=AXIS2_PLACEMENT_3D('',#488,#489,#490);
#492=PLANE('',#491);
#493=ORIENTED_EDGE('',*,*,#350,.F.);
#495=ORIENTED_EDGE('',*,*,#494,.T.);
#496=ORIENTED_EDGE('',*,*,#391,.F.);
#497=ORIENTED_EDGE('',*,*,#481,.F.);
#498=EDGE_LOOP('',(#493,#495,#496,#497));
#499=FACE_OUTER_BOUND('',#498,.F.);
#501=CARTESIAN_POINT('',(1.142281025530E-1,1.712598425197E-1,
5.561802274978E-1));
#502=DIRECTION('',(6.427876096847E-1,0.E0,-7.660444431205E-1));
#503=DIRECTION('',(-7.660444431205E-1,0.E0,-6.427876096847E-1));
#504=AXIS2_PLACEMENT_3D('',#501,#502,#503);
#505=PLANE('',#504);
#506=ORIENTED_EDGE('',*,*,#348,.F.);
#507=ORIENTED_EDGE('',*,*,#372,.T.);
#508=ORIENTED_EDGE('',*,*,#393,.T.);
#509=ORIENTED_EDGE('',*,*,#494,.F.);
#510=EDGE_LOOP('',(#506,#507,#508,#509));
#511=FACE_OUTER_BOUND('',#510,.F.);
#515=FILL_AREA_STYLE_COLOUR('',#5);
#516=FILL_AREA_STYLE('',(#515));
#517=SURFACE_STYLE_FILL_AREA(#516);
#518=SURFACE_SIDE_STYLE('',(#517));
#519=SURFACE_STYLE_USAGE(.BOTH.,#518);
#520=PRESENTATION_STYLE_ASSIGNMENT((#519));
#16=STYLED_ITEM('',(#520),#514);
#521=PRESENTATION_LAYER_ASSIGNMENT('SHELL_254','',(#16,#339,#362,#376,#398,#404,
#416,#422,#434,#446,#461,#474,#487,#500,#512));
#523=LENGTH_MEASURE_WITH_UNIT(LENGTH_MEASURE(2.54E1),#522);
#524=(CONVERSION_BASED_UNIT('INCH',#523)LENGTH_UNIT()NAMED_UNIT(*));
#526=PLANE_ANGLE_MEASURE_WITH_UNIT(PLANE_ANGLE_MEASURE(1.745329251994E-2),#525);
#527=(CONVERSION_BASED_UNIT('DEGREE',#526)NAMED_UNIT(*)PLANE_ANGLE_UNIT());
#529=UNCERTAINTY_MEASURE_WITH_UNIT(LENGTH_MEASURE(1.024522513607E-5),#524,
'closure',
'Maximum model space distance between geometric entities at asserted connectivities');
#531=CARTESIAN_POINT('',(0.E0,0.E0,0.E0));
#532=DIRECTION('',(0.E0,0.E0,1.E0));
#533=DIRECTION('',(1.E0,0.E0,0.E0));
#536=MECHANICAL_DESIGN_GEOMETRIC_PRESENTATION_REPRESENTATION('',(#24,#37,#44,
#51,#58,#65,#73,#80,#87,#95,#125,#133,#140,#170,#177,#185,#197,#209,#216,#223,
#236,#243,#250,#257,#264,#271,#278,#285,#292,#16),#530);
#537=APPLICATION_CONTEXT('automotive design');
#538=APPLICATION_PROTOCOL_DEFINITION('international standard',
'config_control_design',1994,#537);
#539=PRODUCT_DEFINITION_CONTEXT('',#537,'design');
#540=PRODUCT_CONTEXT('',#537,'mechanical');
#541=PRODUCT('CUT-EXTRUDE31200','CUT-EXTRUDE31200','NOT SPECIFIED',(#540));
#542=PRODUCT_DEFINITION_FORMATION_WITH_SPECIFIED_SOURCE('1','LAST_VERSION',#541,
.MADE.);
#550=LENGTH_MEASURE_WITH_UNIT(LENGTH_MEASURE(2.54E1),#549);
#551=(CONVERSION_BASED_UNIT('INCH',#550)LENGTH_UNIT()NAMED_UNIT(*));
#552=DERIVED_UNIT_ELEMENT(#551,2.E0);
#553=AREA_UNIT((#552));
#554=MEASURE_REPRESENTATION_ITEM('surface area measure',AREA_MEASURE(
8.327359269466E0),#553);
#559=LENGTH_MEASURE_WITH_UNIT(LENGTH_MEASURE(2.54E1),#558);
#560=(CONVERSION_BASED_UNIT('INCH',#559)LENGTH_UNIT()NAMED_UNIT(*));
#561=DERIVED_UNIT_ELEMENT(#560,3.E0);
#562=VOLUME_UNIT((#561));
#563=MEASURE_REPRESENTATION_ITEM('volume measure',VOLUME_MEASURE(
9.068391105515E-1),#562);
#567=CARTESIAN_POINT('centre point',(2.707059978461E0,-2.898187184206E0,
1.454512357282E1));
#572=LENGTH_MEASURE_WITH_UNIT(LENGTH_MEASURE(2.54E1),#571);
#573=(CONVERSION_BASED_UNIT('INCH',#572)LENGTH_UNIT()NAMED_UNIT(*));
#574=DERIVED_UNIT_ELEMENT(#573,2.E0);
#575=AREA_UNIT((#574));
#576=MEASURE_REPRESENTATION_ITEM('surface area measure',AREA_MEASURE(
8.327359269466E0),#575);
#581=LENGTH_MEASURE_WITH_UNIT(LENGTH_MEASURE(2.54E1),#580);
#582=(CONVERSION_BASED_UNIT('INCH',#581)LENGTH_UNIT()NAMED_UNIT(*));
#583=DERIVED_UNIT_ELEMENT(#582,3.E0);
#584=VOLUME_UNIT((#583));
#585=MEASURE_REPRESENTATION_ITEM('volume measure',VOLUME_MEASURE(
9.068391105515E-1),#584);
#589=CARTESIAN_POINT('centre point',(2.707059978461E0,-2.898187184206E0,
1.454512357282E1));
#1=DRAUGHTING_PRE_DEFINED_COLOUR('green');
#2=COLOUR_RGB('',1.1E-2,1.2E-2,1.E0);
#3=COLOUR_RGB('',2.352941176471E-1,2.352941176471E-1,2.352941176471E-1);
#4=COLOUR_RGB('',4.1E-1,2.61589E-1,1.12848E-1);
#5=COLOUR_RGB('',4.980392156863E-1,4.980392156863E-1,4.980392156863E-1);
#6=COLOUR_RGB('',5.04854E-1,1.5455E-2,1.5455E-2);
#7=COLOUR_RGB('',6.35294E-1,6.86275E-1,7.4902E-1);
#8=COLOUR_RGB('',6.40777E-1,6.40777E-1,6.40777E-1);
#9=COLOUR_RGB('',6.69062E-1,6.69903E-1,6.55217E-1);
#10=COLOUR_RGB('',9.21569E-1,7.05882E-1,4.70588E-1);
#11=DRAUGHTING_PRE_DEFINED_COLOUR('red');
#12=DRAUGHTING_PRE_DEFINED_COLOUR('yellow');
#13=COLOUR_RGB('',1.E0,1.E0,5.3E-1);
#14=COLOUR_RGB('',1.E0,1.E0,9.49E-1);
#15=DRAUGHTING_PRE_DEFINED_COLOUR('white');
#34=B_SPLINE_CURVE_WITH_KNOTS('',3,(#25,#26,#27,#28,#29,#30,#31,#32,#33),
.UNSPECIFIED.,.F.,.F.,(4,1,1,1,1,1,4),(0.E0,1.25E-1,2.5E-1,5.E-1,7.5E-1,8.75E-1,
1.E0),.UNSPECIFIED.);
#70=CIRCLE('',#69,7.874015747867E-3);
#92=CIRCLE('',#91,1.968503937008E-2);
#122=B_SPLINE_CURVE_WITH_KNOTS('',3,(#96,#97,#98,#99,#100,#101,#102,#103,#104,
#105,#106,#107,#108,#109,#110,#111,#112,#113,#114,#115,#116,#117,#118,#119,#120,
#121),.UNSPECIFIED.,.F.,.F.,(4,1,1,1,1,1,1,1,1,1,1,1,1,1,1,1,1,1,1,1,1,1,1,4),(
0.E0,4.347826086957E-2,8.695652173913E-2,1.304347826087E-1,1.739130434783E-1,
2.173913043478E-1,2.608695652174E-1,3.043478260870E-1,3.478260869565E-1,
3.913043478261E-1,4.347826086957E-1,4.782608695652E-1,5.217391304348E-1,
5.652173913043E-1,6.086956521739E-1,6.521739130435E-1,6.956521739130E-1,
7.391304347826E-1,7.826086956522E-1,8.260869565217E-1,8.695652173913E-1,
9.130434782609E-1,9.565217391304E-1,1.E0),.UNSPECIFIED.);
#130=B_SPLINE_CURVE_WITH_KNOTS('',3,(#126,#127,#128,#129),.UNSPECIFIED.,.F.,.F.,
(4,4),(0.E0,1.E0),.UNSPECIFIED.);
#167=B_SPLINE_CURVE_WITH_KNOTS('',3,(#141,#142,#143,#144,#145,#146,#147,#148,
#149,#150,#151,#152,#153,#154,#155,#156,#157,#158,#159,#160,#161,#162,#163,#164,
#165,#166),.UNSPECIFIED.,.F.,.F.,(4,1,1,1,1,1,1,1,1,1,1,1,1,1,1,1,1,1,1,1,1,1,1,
4),(0.E0,4.347826086957E-2,8.695652173913E-2,1.304347826087E-1,
1.739130434783E-1,2.173913043478E-1,2.608695652174E-1,3.043478260870E-1,
3.478260869565E-1,3.913043478261E-1,4.347826086957E-1,4.782608695652E-1,
5.217391304348E-1,5.652173913043E-1,6.086956521739E-1,6.521739130435E-1,
6.956521739130E-1,7.391304347826E-1,7.826086956522E-1,8.260869565217E-1,
8.695652173913E-1,9.130434782609E-1,9.565217391304E-1,1.E0),.UNSPECIFIED.);
#182=B_SPLINE_CURVE_WITH_KNOTS('',3,(#178,#179,#180,#181),.UNSPECIFIED.,.F.,.F.,
(4,4),(0.E0,1.E0),.UNSPECIFIED.);
#194=B_SPLINE_CURVE_WITH_KNOTS('',3,(#186,#187,#188,#189,#190,#191,#192,#193),
.UNSPECIFIED.,.F.,.F.,(4,1,1,1,1,4),(0.E0,2.5E-1,5.E-1,7.5E-1,8.75E-1,1.E0),
.UNSPECIFIED.);
#206=B_SPLINE_CURVE_WITH_KNOTS('',3,(#198,#199,#200,#201,#202,#203,#204,#205),
.UNSPECIFIED.,.F.,.F.,(4,1,1,1,1,4),(0.E0,1.25E-1,2.5E-1,5.E-1,7.5E-1,1.E0),
.UNSPECIFIED.);
#233=B_SPLINE_CURVE_WITH_KNOTS('',3,(#224,#225,#226,#227,#228,#229,#230,#231,
#232),.UNSPECIFIED.,.F.,.F.,(4,1,1,1,1,1,4),(0.E0,1.25E-1,2.5E-1,5.E-1,7.5E-1,
8.75E-1,1.E0),.UNSPECIFIED.);
#327=EDGE_CURVE('',#305,#301,#20,.T.);
#329=EDGE_CURVE('',#293,#301,#167,.T.);
#331=EDGE_CURVE('',#300,#293,#122,.T.);
#333=EDGE_CURVE('',#300,#303,#55,.T.);
#335=EDGE_CURVE('',#303,#305,#41,.T.);
#339=ADVANCED_FACE('',(#338),#326,.T.);
#346=EDGE_CURVE('',#305,#308,#34,.T.);
#348=EDGE_CURVE('',#308,#312,#282,.T.);
#350=EDGE_CURVE('',#312,#321,#261,.T.);
#352=EDGE_CURVE('',#321,#313,#254,.T.);
#354=EDGE_CURVE('',#313,#314,#233,.T.);
#356=EDGE_CURVE('',#314,#319,#213,.T.);
#358=EDGE_CURVE('',#319,#301,#174,.T.);
#362=ADVANCED_FACE('',(#361),#344,.F.);
#370=EDGE_CURVE('',#303,#307,#92,.T.);
#372=EDGE_CURVE('',#308,#307,#48,.T.);
#376=ADVANCED_FACE('',(#375),#367,.T.);
#383=EDGE_CURVE('',#300,#297,#137,.T.);
#385=EDGE_CURVE('',#299,#297,#62,.T.);
#387=EDGE_CURVE('',#318,#299,#70,.T.);
#389=EDGE_CURVE('',#316,#318,#77,.T.);
#391=EDGE_CURVE('',#316,#310,#268,.T.);
#393=EDGE_CURVE('',#307,#310,#84,.T.);
#398=ADVANCED_FACE('',(#397),#381,.F.);
#403=ELLIPSE('',#402,3.346456692913E-2,2.563534553745E-2);
#404=TRIMMED_CURVE('',#403,(PARAMETER_VALUE(0.E0)),(PARAMETER_VALUE(
9.000000151543E1)),.T.,.UNSPECIFIED.);
#409=EDGE_CURVE('',#293,#294,#194,.T.);
#411=EDGE_CURVE('',#294,#297,#130,.T.);
#416=ADVANCED_FACE('',(#415),#407,.F.);
#421=ELLIPSE('',#420,3.346456692913E-2,2.563534553745E-2);
#422=TRIMMED_CURVE('',#421,(PARAMETER_VALUE(0.E0)),(PARAMETER_VALUE(
9.000000151543E1)),.T.,.UNSPECIFIED.);
#428=EDGE_CURVE('',#319,#296,#182,.T.);
#430=EDGE_CURVE('',#296,#293,#206,.T.);
#434=ADVANCED_FACE('',(#433),#425,.F.);
#442=EDGE_CURVE('',#296,#294,#220,.T.);
#446=ADVANCED_FACE('',(#445),#439,.T.);
#453=EDGE_CURVE('',#314,#299,#247,.T.);
#461=ADVANCED_FACE('',(#460),#451,.T.);
#468=EDGE_CURVE('',#318,#313,#240,.T.);
#474=ADVANCED_FACE('',(#473),#466,.F.);
#481=EDGE_CURVE('',#321,#316,#275,.T.);
#487=ADVANCED_FACE('',(#486),#479,.T.);
#494=EDGE_CURVE('',#312,#310,#289,.T.);
#500=ADVANCED_FACE('',(#499),#492,.T.);
#512=ADVANCED_FACE('',(#511),#505,.T.);
#513=CLOSED_SHELL('',(#339,#362,#376,#398,#416,#434,#446,#461,#474,#487,#500,
#512));
#514=MANIFOLD_SOLID_BREP('',#513);
#522=(LENGTH_UNIT()NAMED_UNIT(*)SI_UNIT(.MILLI.,.METRE.));
#525=(NAMED_UNIT(*)PLANE_ANGLE_UNIT()SI_UNIT($,.RADIAN.));
#528=(NAMED_UNIT(*)SI_UNIT($,.STERADIAN.)SOLID_ANGLE_UNIT());
#530=(GEOMETRIC_REPRESENTATION_CONTEXT(3)GLOBAL_UNCERTAINTY_ASSIGNED_CONTEXT((
#529))GLOBAL_UNIT_ASSIGNED_CONTEXT((#524,#527,#528))REPRESENTATION_CONTEXT
('ID1','3'));
#534=AXIS2_PLACEMENT_3D('',#531,#532,#533);
#535=ADVANCED_BREP_SHAPE_REPRESENTATION('',(#534,#514),#530);
#543=PRODUCT_DEFINITION('design','',#542,#539);
#544=PRODUCT_DEFINITION_SHAPE('','SHAPE FOR CUT-EXTRUDE31200.',#543);
#545=SHAPE_ASPECT('','solid data associated with CUT-EXTRUDE31200',#544,.F.);
#546=PROPERTY_DEFINITION('',
'shape for solid data with which properties are associated',#545);
#547=SHAPE_REPRESENTATION('',(#514),#530);
#548=SHAPE_DEFINITION_REPRESENTATION(#546,#547);
#549=(LENGTH_UNIT()NAMED_UNIT(*)SI_UNIT(.MILLI.,.METRE.));
#555=PROPERTY_DEFINITION('geometric validation property',
'area of CUT-EXTRUDE31200',#545);
#556=REPRESENTATION('surface area',(#554),#530);
#557=PROPERTY_DEFINITION_REPRESENTATION(#555,#556);
#558=(LENGTH_UNIT()NAMED_UNIT(*)SI_UNIT(.MILLI.,.METRE.));
#564=PROPERTY_DEFINITION('geometric validation property',
'volume of CUT-EXTRUDE31200',#545);
#565=REPRESENTATION('volume',(#563),#530);
#566=PROPERTY_DEFINITION_REPRESENTATION(#564,#565);
#568=PROPERTY_DEFINITION('geometric validation property',
'centroid of CUT-EXTRUDE31200',#545);
#569=REPRESENTATION('centroid',(#567),#530);
#570=PROPERTY_DEFINITION_REPRESENTATION(#568,#569);
#571=(LENGTH_UNIT()NAMED_UNIT(*)SI_UNIT(.MILLI.,.METRE.));
#577=PROPERTY_DEFINITION('geometric validation property',
'area of CUT-EXTRUDE31200',#544);
#578=REPRESENTATION('surface area',(#576),#530);
#579=PROPERTY_DEFINITION_REPRESENTATION(#577,#578);
#580=(LENGTH_UNIT()NAMED_UNIT(*)SI_UNIT(.MILLI.,.METRE.));
#586=PROPERTY_DEFINITION('geometric validation property',
'volume of CUT-EXTRUDE31200',#544);
#587=REPRESENTATION('volume',(#585),#530);
#588=PROPERTY_DEFINITION_REPRESENTATION(#586,#587);
#590=PROPERTY_DEFINITION('geometric validation property',
'centroid of CUT-EXTRUDE31200',#544);
#591=REPRESENTATION('centroid',(#589),#530);
#592=PROPERTY_DEFINITION_REPRESENTATION(#590,#591);
#593=SHAPE_DEFINITION_REPRESENTATION(#544,#535);
ENDSEC;
END-ISO-10303-21;
