ISO-10303-21;
HEADER;
FILE_DESCRIPTION((''),'2;1');
FILE_NAME('CUT-EXTRUDE7200','2026-06-15T13:46:13',('Esia'),(''),
'CREO PARAMETRIC BY PTC INC, 2025102','CREO PARAMETRIC BY PTC INC, 2025102','');
FILE_SCHEMA((
'AP242_MANAGED_MODEL_BASED_3D_ENGINEERING_MIM_LF { 1 0 10303 442 1 1 4 }'));
ENDSEC;
DATA;
#18=CARTESIAN_POINT('',(3.078740157480E-1,1.196510490510E-1,6.838582677165E-1));
#19=CARTESIAN_POINT('',(3.076158812820E-1,1.197224711885E-1,6.838582677165E-1));
#20=CARTESIAN_POINT('',(3.070961070075E-1,1.198474125989E-1,6.838455894252E-1));
#21=CARTESIAN_POINT('',(3.063063220655E-1,1.199814269491E-1,6.837867905452E-1));
#22=CARTESIAN_POINT('',(3.055132503535E-1,1.200612666087E-1,6.836871752141E-1));
#23=CARTESIAN_POINT('',(3.049868993754E-1,1.200787401575E-1,6.835936733998E-1));
#24=CARTESIAN_POINT('',(3.047244094488E-1,1.200787401575E-1,6.835400928679E-1));
#26=DRAUGHTING_PRE_DEFINED_CURVE_FONT('continuous');
#27=CURVE_STYLE('',#26,POSITIVE_LENGTH_MEASURE(2.E-2),#9);
#28=PRESENTATION_STYLE_ASSIGNMENT((#27));
#29=STYLED_ITEM('',(#28),#25);
#30=DIRECTION('',(-1.509448013449E-14,1.E0,0.E0));
#31=VECTOR('',#30,1.176825451140E-1);
#32=CARTESIAN_POINT('',(3.078740157480E-1,1.968503937008E-3,6.838582677165E-1));
#33=LINE('',#32,#31);
#34=CURVE_STYLE('',#26,POSITIVE_LENGTH_MEASURE(2.E-2),#9);
#35=PRESENTATION_STYLE_ASSIGNMENT((#34));
#36=STYLED_ITEM('',(#35),#33);
#37=DIRECTION('',(0.E0,-1.E0,0.E0));
#38=VECTOR('',#37,1.181102362205E-1);
#39=CARTESIAN_POINT('',(2.929133858268E-1,1.200787401575E-1,6.730275574790E-1));
#40=LINE('',#39,#38);
#41=CURVE_STYLE('',#26,POSITIVE_LENGTH_MEASURE(2.E-2),#9);
#42=PRESENTATION_STYLE_ASSIGNMENT((#41));
#43=STYLED_ITEM('',(#42),#40);
#44=CARTESIAN_POINT('',(3.047244094488E-1,1.200787401575E-1,6.753268908582E-1));
#45=CARTESIAN_POINT('',(3.049244925059E-1,1.200787401575E-1,6.754142142634E-1));
#46=CARTESIAN_POINT('',(3.053305841066E-1,1.200685741841E-1,6.755716598164E-1));
#47=CARTESIAN_POINT('',(3.059561673505E-1,1.200200807275E-1,6.757564033999E-1));
#48=CARTESIAN_POINT('',(3.065952840695E-1,1.199356940263E-1,6.758888382708E-1));
#49=CARTESIAN_POINT('',(3.072391876965E-1,1.198141245701E-1,6.759673862856E-1));
#50=CARTESIAN_POINT('',(3.076631238833E-1,1.197093998323E-1,6.759842519685E-1));
#51=CARTESIAN_POINT('',(3.078740157480E-1,1.196510490510E-1,6.759842519685E-1));
#53=CURVE_STYLE('',#26,POSITIVE_LENGTH_MEASURE(2.E-2),#9);
#54=PRESENTATION_STYLE_ASSIGNMENT((#53));
#55=STYLED_ITEM('',(#54),#52);
#56=DIRECTION('',(0.E0,0.E0,-1.E0));
#57=VECTOR('',#56,7.874015748032E-3);
#58=CARTESIAN_POINT('',(3.157480314961E-1,1.125080037851E-1,6.838582677165E-1));
#59=LINE('',#58,#57);
#60=CURVE_STYLE('',#26,POSITIVE_LENGTH_MEASURE(2.E-2),#9);
#61=PRESENTATION_STYLE_ASSIGNMENT((#60));
#62=STYLED_ITEM('',(#61),#59);
#63=DIRECTION('',(2.027631287974E-14,0.E0,1.E0));
#64=VECTOR('',#63,8.213202009728E-3);
#65=CARTESIAN_POINT('',(3.047244094488E-1,1.200787401575E-1,6.753268908582E-1));
#66=LINE('',#65,#64);
#67=CURVE_STYLE('',#26,POSITIVE_LENGTH_MEASURE(2.E-2),#9);
#68=PRESENTATION_STYLE_ASSIGNMENT((#67));
#69=STYLED_ITEM('',(#68),#66);
#70=DIRECTION('',(0.E0,1.E0,0.E0));
#71=VECTOR('',#70,1.181102362205E-1);
#72=CARTESIAN_POINT('',(3.E-1,1.968503937008E-3,6.681102362205E-1));
#73=LINE('',#72,#71);
#74=CURVE_STYLE('',#26,POSITIVE_LENGTH_MEASURE(2.E-2),#9);
#75=PRESENTATION_STYLE_ASSIGNMENT((#74));
#76=STYLED_ITEM('',(#75),#73);
#77=DIRECTION('',(1.886810016812E-14,-1.E0,0.E0));
#78=VECTOR('',#77,1.176825451140E-1);
#79=CARTESIAN_POINT('',(3.078740157480E-1,1.196510490510E-1,6.759842519685E-1));
#80=LINE('',#79,#78);
#81=CURVE_STYLE('',#26,POSITIVE_LENGTH_MEASURE(2.E-2),#9);
#82=PRESENTATION_STYLE_ASSIGNMENT((#81));
#83=STYLED_ITEM('',(#82),#80);
#84=CARTESIAN_POINT('',(3.078740157480E-1,1.200787401575E-1,6.681102362205E-1));
#85=DIRECTION('',(0.E0,-1.E0,0.E0));
#86=DIRECTION('',(-4.000000000003E-1,0.E0,9.165151389910E-1));
#87=AXIS2_PLACEMENT_3D('',#84,#85,#86);
#89=CURVE_STYLE('',#26,POSITIVE_LENGTH_MEASURE(2.E-2),#9);
#90=PRESENTATION_STYLE_ASSIGNMENT((#89));
#91=STYLED_ITEM('',(#90),#88);
#92=CARTESIAN_POINT('',(3.078740157480E-1,1.200787401575E-1,6.681102362205E-1));
#93=DIRECTION('',(0.E0,1.E0,0.E0));
#94=DIRECTION('',(-9.500000000001E-1,0.E0,3.122498999195E-1));
#95=AXIS2_PLACEMENT_3D('',#92,#93,#94);
#97=CURVE_STYLE('',#26,POSITIVE_LENGTH_MEASURE(2.E-2),#9);
#98=PRESENTATION_STYLE_ASSIGNMENT((#97));
#99=STYLED_ITEM('',(#98),#96);
#100=DIRECTION('',(1.E0,0.E0,9.399888275157E-14));
#101=VECTOR('',#100,7.086614173230E-3);
#102=CARTESIAN_POINT('',(2.929133858268E-1,1.200787401575E-1,
6.641732283465E-1));
#103=LINE('',#102,#101);
#104=CURVE_STYLE('',#26,POSITIVE_LENGTH_MEASURE(2.E-2),#9);
#105=PRESENTATION_STYLE_ASSIGNMENT((#104));
#106=STYLED_ITEM('',(#105),#103);
#107=DIRECTION('',(0.E0,1.E0,0.E0));
#108=VECTOR('',#107,1.181102362205E-1);
#109=CARTESIAN_POINT('',(2.929133858268E-1,1.968503937008E-3,
6.641732283465E-1));
#110=LINE('',#109,#108);
#111=CURVE_STYLE('',#26,POSITIVE_LENGTH_MEASURE(2.E-2),#9);
#112=PRESENTATION_STYLE_ASSIGNMENT((#111));
#113=STYLED_ITEM('',(#112),#110);
#114=DIRECTION('',(-1.E0,0.E0,-9.399888275156E-14));
#115=VECTOR('',#114,7.086614173231E-3);
#116=CARTESIAN_POINT('',(3.E-1,1.968503937008E-3,6.641732283465E-1));
#117=LINE('',#116,#115);
#118=CURVE_STYLE('',#26,POSITIVE_LENGTH_MEASURE(2.E-2),#9);
#119=PRESENTATION_STYLE_ASSIGNMENT((#118));
#120=STYLED_ITEM('',(#119),#117);
#121=DIRECTION('',(5.015503751895E-14,0.E0,-1.E0));
#122=VECTOR('',#121,8.854329132588E-3);
#123=CARTESIAN_POINT('',(2.929133858268E-1,1.200787401575E-1,
6.730275574790E-1));
#124=LINE('',#123,#122);
#125=CURVE_STYLE('',#26,POSITIVE_LENGTH_MEASURE(2.E-2),#9);
#126=PRESENTATION_STYLE_ASSIGNMENT((#125));
#127=STYLED_ITEM('',(#126),#124);
#128=DIRECTION('',(3.134689844934E-14,0.E0,-1.E0));
#129=VECTOR('',#128,8.854329132588E-3);
#130=CARTESIAN_POINT('',(2.929133858268E-1,1.968503937008E-3,
6.730275574790E-1));
#131=LINE('',#130,#129);
#132=CURVE_STYLE('',#26,POSITIVE_LENGTH_MEASURE(2.E-2),#9);
#133=PRESENTATION_STYLE_ASSIGNMENT((#132));
#134=STYLED_ITEM('',(#133),#131);
#135=CARTESIAN_POINT('',(3.078740157480E-1,1.968503937008E-3,
6.681102362205E-1));
#136=DIRECTION('',(0.E0,-1.E0,0.E0));
#137=DIRECTION('',(0.E0,0.E0,1.E0));
#138=AXIS2_PLACEMENT_3D('',#135,#136,#137);
#140=CURVE_STYLE('',#26,POSITIVE_LENGTH_MEASURE(2.E-2),#9);
#141=PRESENTATION_STYLE_ASSIGNMENT((#140));
#142=STYLED_ITEM('',(#141),#139);
#143=CARTESIAN_POINT('',(3.078740157480E-1,1.968503937008E-3,
6.681102362205E-1));
#144=DIRECTION('',(0.E0,1.E0,0.E0));
#145=DIRECTION('',(-1.E0,0.E0,-1.127986593019E-13));
#146=AXIS2_PLACEMENT_3D('',#143,#144,#145);
#148=CURVE_STYLE('',#26,POSITIVE_LENGTH_MEASURE(2.E-2),#9);
#149=PRESENTATION_STYLE_ASSIGNMENT((#148));
#150=STYLED_ITEM('',(#149),#147);
#151=CARTESIAN_POINT('',(3.047244094488E-1,1.082677165354E-1,
6.838582677165E-1));
#152=DIRECTION('',(0.E0,0.E0,1.E0));
#153=DIRECTION('',(9.333333333335E-1,3.590109871418E-1,0.E0));
#154=AXIS2_PLACEMENT_3D('',#151,#152,#153);
#156=CURVE_STYLE('',#26,POSITIVE_LENGTH_MEASURE(2.E-2),#9);
#157=PRESENTATION_STYLE_ASSIGNMENT((#156));
#158=STYLED_ITEM('',(#157),#155);
#159=DIRECTION('',(0.E0,1.E0,0.E0));
#160=VECTOR('',#159,1.105394998481E-1);
#161=CARTESIAN_POINT('',(3.157480314961E-1,1.968503937008E-3,
6.838582677165E-1));
#162=LINE('',#161,#160);
#163=CURVE_STYLE('',#26,POSITIVE_LENGTH_MEASURE(2.E-2),#9);
#164=PRESENTATION_STYLE_ASSIGNMENT((#163));
#165=STYLED_ITEM('',(#164),#162);
#166=DIRECTION('',(1.E0,0.E0,0.E0));
#167=VECTOR('',#166,7.874015748033E-3);
#168=CARTESIAN_POINT('',(3.078740157480E-1,1.968503937008E-3,
6.838582677165E-1));
#169=LINE('',#168,#167);
#170=CURVE_STYLE('',#26,POSITIVE_LENGTH_MEASURE(2.E-2),#9);
#171=PRESENTATION_STYLE_ASSIGNMENT((#170));
#172=STYLED_ITEM('',(#171),#169);
#173=DIRECTION('',(0.E0,1.E0,0.E0));
#174=VECTOR('',#173,1.105394998481E-1);
#175=CARTESIAN_POINT('',(3.157480314961E-1,1.968503937008E-3,
6.759842519685E-1));
#176=LINE('',#175,#174);
#177=CURVE_STYLE('',#26,POSITIVE_LENGTH_MEASURE(2.E-2),#9);
#178=PRESENTATION_STYLE_ASSIGNMENT((#177));
#179=STYLED_ITEM('',(#178),#176);
#180=DIRECTION('',(0.E0,0.E0,-1.E0));
#181=VECTOR('',#180,7.874015748031E-3);
#182=CARTESIAN_POINT('',(3.157480314961E-1,1.968503937008E-3,
6.838582677165E-1));
#183=LINE('',#182,#181);
#184=CURVE_STYLE('',#26,POSITIVE_LENGTH_MEASURE(2.E-2),#9);
#185=PRESENTATION_STYLE_ASSIGNMENT((#184));
#186=STYLED_ITEM('',(#185),#183);
#187=CARTESIAN_POINT('',(3.047244094488E-1,1.082677165354E-1,
6.759842519685E-1));
#188=DIRECTION('',(0.E0,0.E0,-1.E0));
#189=DIRECTION('',(2.666666666664E-1,9.637888196535E-1,0.E0));
#190=AXIS2_PLACEMENT_3D('',#187,#188,#189);
#192=CURVE_STYLE('',#26,POSITIVE_LENGTH_MEASURE(2.E-2),#9);
#193=PRESENTATION_STYLE_ASSIGNMENT((#192));
#194=STYLED_ITEM('',(#193),#191);
#195=DIRECTION('',(-1.E0,0.E0,0.E0));
#196=VECTOR('',#195,7.874015748035E-3);
#197=CARTESIAN_POINT('',(3.157480314961E-1,1.968503937008E-3,
6.759842519685E-1));
#198=LINE('',#197,#196);
#199=CURVE_STYLE('',#26,POSITIVE_LENGTH_MEASURE(2.E-2),#9);
#200=PRESENTATION_STYLE_ASSIGNMENT((#199));
#201=STYLED_ITEM('',(#200),#198);
#202=DIRECTION('',(-2.819966482549E-14,1.762479051593E-14,1.E0));
#203=VECTOR('',#202,3.937007874015E-3);
#204=CARTESIAN_POINT('',(3.E-1,1.200787401575E-1,6.641732283465E-1));
#205=LINE('',#204,#203);
#206=CURVE_STYLE('',#26,POSITIVE_LENGTH_MEASURE(2.E-2),#9);
#207=PRESENTATION_STYLE_ASSIGNMENT((#206));
#208=STYLED_ITEM('',(#207),#205);
#209=DIRECTION('',(0.E0,1.E0,0.E0));
#210=VECTOR('',#209,1.181102362205E-1);
#211=CARTESIAN_POINT('',(3.E-1,1.968503937008E-3,6.641732283465E-1));
#212=LINE('',#211,#210);
#213=CURVE_STYLE('',#26,POSITIVE_LENGTH_MEASURE(2.E-2),#9);
#214=PRESENTATION_STYLE_ASSIGNMENT((#213));
#215=STYLED_ITEM('',(#214),#212);
#216=DIRECTION('',(0.E0,-1.398967747202E-14,-1.E0));
#217=VECTOR('',#216,3.937007874014E-3);
#218=CARTESIAN_POINT('',(3.E-1,1.968503937008E-3,6.681102362205E-1));
#219=LINE('',#218,#217);
#220=CURVE_STYLE('',#26,POSITIVE_LENGTH_MEASURE(2.E-2),#9);
#221=PRESENTATION_STYLE_ASSIGNMENT((#220));
#222=STYLED_ITEM('',(#221),#219);
#223=VERTEX_POINT('',#18);
#224=VERTEX_POINT('',#24);
#225=CARTESIAN_POINT('',(2.929133858268E-1,1.200787401575E-1,
6.730275574790E-1));
#226=VERTEX_POINT('',#225);
#227=CARTESIAN_POINT('',(3.078740157480E-1,1.968503937008E-3,
6.838582677165E-1));
#228=CARTESIAN_POINT('',(3.157480314961E-1,1.968503937008E-3,
6.838582677165E-1));
#229=VERTEX_POINT('',#227);
#230=VERTEX_POINT('',#228);
#231=CARTESIAN_POINT('',(3.078740157480E-1,1.196510490510E-1,
6.759842519685E-1));
#232=CARTESIAN_POINT('',(3.157480314961E-1,1.125080037851E-1,
6.759842519685E-1));
#233=VERTEX_POINT('',#231);
#234=VERTEX_POINT('',#232);
#235=CARTESIAN_POINT('',(2.929133858268E-1,1.968503937008E-3,
6.730275574790E-1));
#236=VERTEX_POINT('',#235);
#237=CARTESIAN_POINT('',(2.929133858268E-1,1.968503937008E-3,
6.641732283465E-1));
#238=VERTEX_POINT('',#237);
#239=CARTESIAN_POINT('',(3.E-1,1.968503937008E-3,6.641732283465E-1));
#240=CARTESIAN_POINT('',(3.E-1,1.200787401575E-1,6.641732283465E-1));
#241=VERTEX_POINT('',#239);
#242=VERTEX_POINT('',#240);
#243=CARTESIAN_POINT('',(2.929133858268E-1,1.200787401575E-1,
6.641732283465E-1));
#244=VERTEX_POINT('',#243);
#245=CARTESIAN_POINT('',(3.157480314961E-1,1.125080037851E-1,
6.838582677165E-1));
#246=VERTEX_POINT('',#245);
#247=VERTEX_POINT('',#44);
#248=CARTESIAN_POINT('',(3.157480314961E-1,1.968503937008E-3,
6.759842519685E-1));
#249=VERTEX_POINT('',#248);
#250=CARTESIAN_POINT('',(3.078740157480E-1,1.968503937008E-3,
6.759842519685E-1));
#251=VERTEX_POINT('',#250);
#252=CARTESIAN_POINT('',(3.E-1,1.968503937008E-3,6.681102362205E-1));
#253=CARTESIAN_POINT('',(3.E-1,1.200787401575E-1,6.681102362205E-1));
#254=VERTEX_POINT('',#252);
#255=VERTEX_POINT('',#253);
#256=CARTESIAN_POINT('',(3.078740157480E-1,-2.925600380941E-1,
6.681102362205E-1));
#257=DIRECTION('',(0.E0,1.E0,0.E0));
#258=DIRECTION('',(-1.E0,0.E0,0.E0));
#259=AXIS2_PLACEMENT_3D('',#256,#257,#258);
#260=CYLINDRICAL_SURFACE('',#259,1.574803149606E-2);
#262=ORIENTED_EDGE('',*,*,#261,.F.);
#264=ORIENTED_EDGE('',*,*,#263,.F.);
#266=ORIENTED_EDGE('',*,*,#265,.T.);
#268=ORIENTED_EDGE('',*,*,#267,.F.);
#270=ORIENTED_EDGE('',*,*,#269,.T.);
#271=EDGE_LOOP('',(#262,#264,#266,#268,#270));
#272=FACE_OUTER_BOUND('',#271,.F.);
#274=FILL_AREA_STYLE_COLOUR('',#5);
#275=FILL_AREA_STYLE('',(#274));
#276=SURFACE_STYLE_FILL_AREA(#275);
#277=SURFACE_SIDE_STYLE('',(#276));
#278=SURFACE_STYLE_USAGE(.BOTH.,#277);
#279=PRESENTATION_STYLE_ASSIGNMENT((#278));
#280=OVER_RIDING_STYLED_ITEM('',(#279),#273,#17);
#281=CARTESIAN_POINT('',(3.047244094488E-1,1.082677165354E-1,1.002755905512E0));
#282=DIRECTION('',(0.E0,0.E0,-1.E0));
#283=DIRECTION('',(-1.E0,0.E0,0.E0));
#284=AXIS2_PLACEMENT_3D('',#281,#282,#283);
#285=CYLINDRICAL_SURFACE('',#284,1.181102362205E-2);
#287=ORIENTED_EDGE('',*,*,#286,.T.);
#289=ORIENTED_EDGE('',*,*,#288,.T.);
#291=ORIENTED_EDGE('',*,*,#290,.F.);
#293=ORIENTED_EDGE('',*,*,#292,.T.);
#294=ORIENTED_EDGE('',*,*,#261,.T.);
#296=ORIENTED_EDGE('',*,*,#295,.F.);
#297=EDGE_LOOP('',(#287,#289,#291,#293,#294,#296));
#298=FACE_OUTER_BOUND('',#297,.F.);
#300=CARTESIAN_POINT('',(3.078740157480E-1,-2.925600380941E-1,
6.681102362205E-1));
#301=DIRECTION('',(0.E0,1.E0,0.E0));
#302=DIRECTION('',(-1.E0,0.E0,0.E0));
#303=AXIS2_PLACEMENT_3D('',#300,#301,#302);
#304=CYLINDRICAL_SURFACE('',#303,7.874015748032E-3);
#305=ORIENTED_EDGE('',*,*,#286,.F.);
#307=ORIENTED_EDGE('',*,*,#306,.T.);
#309=ORIENTED_EDGE('',*,*,#308,.F.);
#311=ORIENTED_EDGE('',*,*,#310,.T.);
#313=ORIENTED_EDGE('',*,*,#312,.F.);
#314=EDGE_LOOP('',(#305,#307,#309,#311,#313));
#315=FACE_OUTER_BOUND('',#314,.F.);
#317=FILL_AREA_STYLE_COLOUR('',#5);
#318=FILL_AREA_STYLE('',(#317));
#319=SURFACE_STYLE_FILL_AREA(#318);
#320=SURFACE_SIDE_STYLE('',(#319));
#321=SURFACE_STYLE_USAGE(.BOTH.,#320);
#322=PRESENTATION_STYLE_ASSIGNMENT((#321));
#323=OVER_RIDING_STYLED_ITEM('',(#322),#316,#17);
#324=CARTESIAN_POINT('',(3.047244094488E-1,1.200787401575E-1,1.002755905512E0));
#325=DIRECTION('',(0.E0,-1.E0,0.E0));
#326=DIRECTION('',(1.E0,0.E0,0.E0));
#327=AXIS2_PLACEMENT_3D('',#324,#325,#326);
#328=PLANE('',#327);
#330=ORIENTED_EDGE('',*,*,#329,.T.);
#332=ORIENTED_EDGE('',*,*,#331,.T.);
#333=ORIENTED_EDGE('',*,*,#306,.F.);
#334=ORIENTED_EDGE('',*,*,#295,.T.);
#335=ORIENTED_EDGE('',*,*,#269,.F.);
#337=ORIENTED_EDGE('',*,*,#336,.T.);
#338=EDGE_LOOP('',(#330,#332,#333,#334,#335,#337));
#339=FACE_OUTER_BOUND('',#338,.F.);
#341=CARTESIAN_POINT('',(3.E-1,-2.925600380941E-1,6.641732283465E-1));
#342=DIRECTION('',(6.938893903907E-14,0.E0,-1.E0));
#343=DIRECTION('',(-1.E0,0.E0,-6.938893903907E-14));
#344=AXIS2_PLACEMENT_3D('',#341,#342,#343);
#345=PLANE('',#344);
#346=ORIENTED_EDGE('',*,*,#329,.F.);
#348=ORIENTED_EDGE('',*,*,#347,.F.);
#350=ORIENTED_EDGE('',*,*,#349,.F.);
#352=ORIENTED_EDGE('',*,*,#351,.T.);
#353=EDGE_LOOP('',(#346,#348,#350,#352));
#354=FACE_OUTER_BOUND('',#353,.F.);
#356=FILL_AREA_STYLE_COLOUR('',#5);
#357=FILL_AREA_STYLE('',(#356));
#358=SURFACE_STYLE_FILL_AREA(#357);
#359=SURFACE_SIDE_STYLE('',(#358));
#360=SURFACE_STYLE_USAGE(.BOTH.,#359);
#361=PRESENTATION_STYLE_ASSIGNMENT((#360));
#362=OVER_RIDING_STYLED_ITEM('',(#361),#355,#17);
#363=CARTESIAN_POINT('',(2.929133858268E-1,1.200787401575E-1,1.002755905512E0));
#364=DIRECTION('',(1.E0,0.E0,0.E0));
#365=DIRECTION('',(0.E0,1.E0,0.E0));
#366=AXIS2_PLACEMENT_3D('',#363,#364,#365);
#367=PLANE('',#366);
#368=ORIENTED_EDGE('',*,*,#347,.T.);
#369=ORIENTED_EDGE('',*,*,#336,.F.);
#370=ORIENTED_EDGE('',*,*,#267,.T.);
#372=ORIENTED_EDGE('',*,*,#371,.T.);
#373=EDGE_LOOP('',(#368,#369,#370,#372));
#374=FACE_OUTER_BOUND('',#373,.F.);
#376=CARTESIAN_POINT('',(2.929133858268E-1,1.968503937008E-3,1.002755905512E0));
#377=DIRECTION('',(0.E0,1.E0,0.E0));
#378=DIRECTION('',(0.E0,0.E0,1.E0));
#379=AXIS2_PLACEMENT_3D('',#376,#377,#378);
#380=PLANE('',#379);
#381=ORIENTED_EDGE('',*,*,#349,.T.);
#382=ORIENTED_EDGE('',*,*,#371,.F.);
#383=ORIENTED_EDGE('',*,*,#265,.F.);
#385=ORIENTED_EDGE('',*,*,#384,.T.);
#387=ORIENTED_EDGE('',*,*,#386,.T.);
#389=ORIENTED_EDGE('',*,*,#388,.T.);
#390=ORIENTED_EDGE('',*,*,#310,.F.);
#392=ORIENTED_EDGE('',*,*,#391,.T.);
#393=EDGE_LOOP('',(#381,#382,#383,#385,#387,#389,#390,#392));
#394=FACE_OUTER_BOUND('',#393,.F.);
#396=CARTESIAN_POINT('',(3.078740157480E-1,-2.925600380941E-1,
6.838582677165E-1));
#397=DIRECTION('',(0.E0,0.E0,1.E0));
#398=DIRECTION('',(1.E0,0.E0,0.E0));
#399=AXIS2_PLACEMENT_3D('',#396,#397,#398);
#400=PLANE('',#399);
#401=ORIENTED_EDGE('',*,*,#292,.F.);
#403=ORIENTED_EDGE('',*,*,#402,.F.);
#404=ORIENTED_EDGE('',*,*,#384,.F.);
#405=ORIENTED_EDGE('',*,*,#263,.T.);
#406=EDGE_LOOP('',(#401,#403,#404,#405));
#407=FACE_OUTER_BOUND('',#406,.F.);
#409=FILL_AREA_STYLE_COLOUR('',#5);
#410=FILL_AREA_STYLE('',(#409));
#411=SURFACE_STYLE_FILL_AREA(#410);
#412=SURFACE_SIDE_STYLE('',(#411));
#413=SURFACE_STYLE_USAGE(.BOTH.,#412);
#414=PRESENTATION_STYLE_ASSIGNMENT((#413));
#415=OVER_RIDING_STYLED_ITEM('',(#414),#408,#17);
#416=CARTESIAN_POINT('',(3.157480314961E-1,-2.925600380941E-1,
6.838582677165E-1));
#417=DIRECTION('',(1.E0,0.E0,0.E0));
#418=DIRECTION('',(0.E0,1.E0,0.E0));
#419=AXIS2_PLACEMENT_3D('',#416,#417,#418);
#420=PLANE('',#419);
#421=ORIENTED_EDGE('',*,*,#290,.T.);
#423=ORIENTED_EDGE('',*,*,#422,.F.);
#424=ORIENTED_EDGE('',*,*,#386,.F.);
#425=ORIENTED_EDGE('',*,*,#402,.T.);
#426=EDGE_LOOP('',(#421,#423,#424,#425));
#427=FACE_OUTER_BOUND('',#426,.F.);
#429=FILL_AREA_STYLE_COLOUR('',#5);
#430=FILL_AREA_STYLE('',(#429));
#431=SURFACE_STYLE_FILL_AREA(#430);
#432=SURFACE_SIDE_STYLE('',(#431));
#433=SURFACE_STYLE_USAGE(.BOTH.,#432);
#434=PRESENTATION_STYLE_ASSIGNMENT((#433));
#435=OVER_RIDING_STYLED_ITEM('',(#434),#428,#17);
#436=CARTESIAN_POINT('',(3.157480314961E-1,-2.925600380941E-1,
6.759842519685E-1));
#437=DIRECTION('',(0.E0,0.E0,-1.E0));
#438=DIRECTION('',(-1.E0,0.E0,0.E0));
#439=AXIS2_PLACEMENT_3D('',#436,#437,#438);
#440=PLANE('',#439);
#441=ORIENTED_EDGE('',*,*,#288,.F.);
#442=ORIENTED_EDGE('',*,*,#312,.T.);
#443=ORIENTED_EDGE('',*,*,#388,.F.);
#444=ORIENTED_EDGE('',*,*,#422,.T.);
#445=EDGE_LOOP('',(#441,#442,#443,#444));
#446=FACE_OUTER_BOUND('',#445,.F.);
#448=FILL_AREA_STYLE_COLOUR('',#5);
#449=FILL_AREA_STYLE('',(#448));
#450=SURFACE_STYLE_FILL_AREA(#449);
#451=SURFACE_SIDE_STYLE('',(#450));
#452=SURFACE_STYLE_USAGE(.BOTH.,#451);
#453=PRESENTATION_STYLE_ASSIGNMENT((#452));
#454=OVER_RIDING_STYLED_ITEM('',(#453),#447,#17);
#455=CARTESIAN_POINT('',(3.E-1,-2.925600380941E-1,6.681102362205E-1));
#456=DIRECTION('',(1.E0,0.E0,0.E0));
#457=DIRECTION('',(0.E0,1.E0,0.E0));
#458=AXIS2_PLACEMENT_3D('',#455,#456,#457);
#459=PLANE('',#458);
#460=ORIENTED_EDGE('',*,*,#331,.F.);
#461=ORIENTED_EDGE('',*,*,#351,.F.);
#462=ORIENTED_EDGE('',*,*,#391,.F.);
#463=ORIENTED_EDGE('',*,*,#308,.T.);
#464=EDGE_LOOP('',(#460,#461,#462,#463));
#465=FACE_OUTER_BOUND('',#464,.F.);
#467=FILL_AREA_STYLE_COLOUR('',#5);
#468=FILL_AREA_STYLE('',(#467));
#469=SURFACE_STYLE_FILL_AREA(#468);
#470=SURFACE_SIDE_STYLE('',(#469));
#471=SURFACE_STYLE_USAGE(.BOTH.,#470);
#472=PRESENTATION_STYLE_ASSIGNMENT((#471));
#473=OVER_RIDING_STYLED_ITEM('',(#472),#466,#17);
#476=FILL_AREA_STYLE_COLOUR('',#9);
#477=FILL_AREA_STYLE('',(#476));
#478=SURFACE_STYLE_FILL_AREA(#477);
#479=SURFACE_SIDE_STYLE('',(#478));
#480=SURFACE_STYLE_USAGE(.BOTH.,#479);
#481=PRESENTATION_STYLE_ASSIGNMENT((#480));
#17=STYLED_ITEM('',(#481),#475);
#482=PRESENTATION_LAYER_ASSIGNMENT('SHELL_178','',(#17,#273,#299,#316,#340,#355,
#375,#395,#408,#428,#447,#466));
#484=LENGTH_MEASURE_WITH_UNIT(LENGTH_MEASURE(2.54E1),#483);
#485=(CONVERSION_BASED_UNIT('INCH',#484)LENGTH_UNIT()NAMED_UNIT(*));
#487=PLANE_ANGLE_MEASURE_WITH_UNIT(PLANE_ANGLE_MEASURE(1.745329251994E-2),#486);
#488=(CONVERSION_BASED_UNIT('DEGREE',#487)NAMED_UNIT(*)PLANE_ANGLE_UNIT());
#490=UNCERTAINTY_MEASURE_WITH_UNIT(LENGTH_MEASURE(1.218924157842E-5),#485,
'closure',
'Maximum model space distance between geometric entities at asserted connectivities');
#492=CARTESIAN_POINT('',(0.E0,0.E0,0.E0));
#493=DIRECTION('',(0.E0,0.E0,1.E0));
#494=DIRECTION('',(1.E0,0.E0,0.E0));
#497=MECHANICAL_DESIGN_GEOMETRIC_PRESENTATION_REPRESENTATION('',(#29,#36,#43,
#55,#62,#69,#76,#83,#91,#99,#106,#113,#120,#127,#134,#142,#150,#158,#165,#172,
#179,#186,#194,#201,#208,#215,#222,#280,#323,#362,#415,#435,#454,#473,#17),
#491);
#498=APPLICATION_CONTEXT('automotive design');
#499=APPLICATION_PROTOCOL_DEFINITION('international standard',
'config_control_design',1994,#498);
#500=PRODUCT_DEFINITION_CONTEXT('',#498,'design');
#501=PRODUCT_CONTEXT('',#498,'mechanical');
#502=PRODUCT('CUT-EXTRUDE7200','CUT-EXTRUDE7200','NOT SPECIFIED',(#501));
#503=PRODUCT_DEFINITION_FORMATION_WITH_SPECIFIED_SOURCE('1','LAST_VERSION',#502,
.MADE.);
#511=LENGTH_MEASURE_WITH_UNIT(LENGTH_MEASURE(2.54E1),#510);
#512=(CONVERSION_BASED_UNIT('INCH',#511)LENGTH_UNIT()NAMED_UNIT(*));
#513=DERIVED_UNIT_ELEMENT(#512,2.E0);
#514=AREA_UNIT((#513));
#515=MEASURE_REPRESENTATION_ITEM('surface area measure',AREA_MEASURE(
6.010442344037E0),#514);
#520=LENGTH_MEASURE_WITH_UNIT(LENGTH_MEASURE(2.54E1),#519);
#521=(CONVERSION_BASED_UNIT('INCH',#520)LENGTH_UNIT()NAMED_UNIT(*));
#522=DERIVED_UNIT_ELEMENT(#521,3.E0);
#523=VOLUME_UNIT((#522));
#524=MEASURE_REPRESENTATION_ITEM('volume measure',VOLUME_MEASURE(
4.487695677985E-1),#523);
#528=CARTESIAN_POINT('centre point',(7.690511092624E0,1.540475074576E0,
1.716648925352E1));
#533=LENGTH_MEASURE_WITH_UNIT(LENGTH_MEASURE(2.54E1),#532);
#534=(CONVERSION_BASED_UNIT('INCH',#533)LENGTH_UNIT()NAMED_UNIT(*));
#535=DERIVED_UNIT_ELEMENT(#534,2.E0);
#536=AREA_UNIT((#535));
#537=MEASURE_REPRESENTATION_ITEM('surface area measure',AREA_MEASURE(
6.010442344037E0),#536);
#542=LENGTH_MEASURE_WITH_UNIT(LENGTH_MEASURE(2.54E1),#541);
#543=(CONVERSION_BASED_UNIT('INCH',#542)LENGTH_UNIT()NAMED_UNIT(*));
#544=DERIVED_UNIT_ELEMENT(#543,3.E0);
#545=VOLUME_UNIT((#544));
#546=MEASURE_REPRESENTATION_ITEM('volume measure',VOLUME_MEASURE(
4.487695677985E-1),#545);
#550=CARTESIAN_POINT('centre point',(7.690511092624E0,1.540475074576E0,
1.716648925352E1));
#1=DRAUGHTING_PRE_DEFINED_COLOUR('green');
#2=COLOUR_RGB('',1.1E-2,1.2E-2,1.E0);
#3=COLOUR_RGB('',2.352941176471E-1,2.352941176471E-1,2.352941176471E-1);
#4=COLOUR_RGB('',4.1E-1,2.61589E-1,1.12848E-1);
#5=COLOUR_RGB('',4.980392156863E-1,4.980392156863E-1,4.980392156863E-1);
#6=COLOUR_RGB('',5.04854E-1,1.5455E-2,1.5455E-2);
#7=COLOUR_RGB('',6.35294E-1,6.86275E-1,7.4902E-1);
#8=COLOUR_RGB('',6.40777E-1,6.40777E-1,6.40777E-1);
#9=COLOUR_RGB('',6.392156862745E-1,6.666666666667E-1,6.784313725490E-1);
#10=COLOUR_RGB('',6.69062E-1,6.69903E-1,6.55217E-1);
#11=COLOUR_RGB('',9.21569E-1,7.05882E-1,4.70588E-1);
#12=DRAUGHTING_PRE_DEFINED_COLOUR('red');
#13=DRAUGHTING_PRE_DEFINED_COLOUR('yellow');
#14=COLOUR_RGB('',1.E0,1.E0,5.3E-1);
#15=COLOUR_RGB('',1.E0,1.E0,9.49E-1);
#16=DRAUGHTING_PRE_DEFINED_COLOUR('white');
#25=B_SPLINE_CURVE_WITH_KNOTS('',3,(#18,#19,#20,#21,#22,#23,#24),.UNSPECIFIED.,
.F.,.F.,(4,1,1,1,4),(0.E0,2.5E-1,5.E-1,7.5E-1,1.E0),.UNSPECIFIED.);
#52=B_SPLINE_CURVE_WITH_KNOTS('',3,(#44,#45,#46,#47,#48,#49,#50,#51),
.UNSPECIFIED.,.F.,.F.,(4,1,1,1,1,4),(0.E0,2.E-1,4.E-1,6.E-1,8.E-1,1.E0),
.UNSPECIFIED.);
#88=CIRCLE('',#87,7.874015748032E-3);
#96=CIRCLE('',#95,1.574803149606E-2);
#139=CIRCLE('',#138,1.574803149606E-2);
#147=CIRCLE('',#146,7.874015748032E-3);
#155=CIRCLE('',#154,1.181102362205E-2);
#191=CIRCLE('',#190,1.181102362205E-2);
#261=EDGE_CURVE('',#223,#224,#25,.T.);
#263=EDGE_CURVE('',#229,#223,#33,.T.);
#265=EDGE_CURVE('',#229,#236,#139,.T.);
#267=EDGE_CURVE('',#226,#236,#40,.T.);
#269=EDGE_CURVE('',#226,#224,#96,.T.);
#273=ADVANCED_FACE('',(#272),#260,.T.);
#286=EDGE_CURVE('',#247,#233,#52,.T.);
#288=EDGE_CURVE('',#233,#234,#191,.T.);
#290=EDGE_CURVE('',#246,#234,#59,.T.);
#292=EDGE_CURVE('',#246,#223,#155,.T.);
#295=EDGE_CURVE('',#247,#224,#66,.T.);
#299=ADVANCED_FACE('',(#298),#285,.T.);
#306=EDGE_CURVE('',#247,#255,#88,.T.);
#308=EDGE_CURVE('',#254,#255,#73,.T.);
#310=EDGE_CURVE('',#254,#251,#147,.T.);
#312=EDGE_CURVE('',#233,#251,#80,.T.);
#316=ADVANCED_FACE('',(#315),#304,.F.);
#329=EDGE_CURVE('',#244,#242,#103,.T.);
#331=EDGE_CURVE('',#242,#255,#205,.T.);
#336=EDGE_CURVE('',#226,#244,#124,.T.);
#340=ADVANCED_FACE('',(#339),#328,.F.);
#347=EDGE_CURVE('',#238,#244,#110,.T.);
#349=EDGE_CURVE('',#241,#238,#117,.T.);
#351=EDGE_CURVE('',#241,#242,#212,.T.);
#355=ADVANCED_FACE('',(#354),#345,.T.);
#371=EDGE_CURVE('',#236,#238,#131,.T.);
#375=ADVANCED_FACE('',(#374),#367,.F.);
#384=EDGE_CURVE('',#229,#230,#169,.T.);
#386=EDGE_CURVE('',#230,#249,#183,.T.);
#388=EDGE_CURVE('',#249,#251,#198,.T.);
#391=EDGE_CURVE('',#254,#241,#219,.T.);
#395=ADVANCED_FACE('',(#394),#380,.F.);
#402=EDGE_CURVE('',#230,#246,#162,.T.);
#408=ADVANCED_FACE('',(#407),#400,.T.);
#422=EDGE_CURVE('',#249,#234,#176,.T.);
#428=ADVANCED_FACE('',(#427),#420,.T.);
#447=ADVANCED_FACE('',(#446),#440,.T.);
#466=ADVANCED_FACE('',(#465),#459,.T.);
#474=CLOSED_SHELL('',(#273,#299,#316,#340,#355,#375,#395,#408,#428,#447,#466));
#475=MANIFOLD_SOLID_BREP('',#474);
#483=(LENGTH_UNIT()NAMED_UNIT(*)SI_UNIT(.MILLI.,.METRE.));
#486=(NAMED_UNIT(*)PLANE_ANGLE_UNIT()SI_UNIT($,.RADIAN.));
#489=(NAMED_UNIT(*)SI_UNIT($,.STERADIAN.)SOLID_ANGLE_UNIT());
#491=(GEOMETRIC_REPRESENTATION_CONTEXT(3)GLOBAL_UNCERTAINTY_ASSIGNED_CONTEXT((
#490))GLOBAL_UNIT_ASSIGNED_CONTEXT((#485,#488,#489))REPRESENTATION_CONTEXT
('ID1','3'));
#495=AXIS2_PLACEMENT_3D('',#492,#493,#494);
#496=ADVANCED_BREP_SHAPE_REPRESENTATION('',(#495,#475),#491);
#504=PRODUCT_DEFINITION('design','',#503,#500);
#505=PRODUCT_DEFINITION_SHAPE('','SHAPE FOR CUT-EXTRUDE7200.',#504);
#506=SHAPE_ASPECT('','solid data associated with CUT-EXTRUDE7200',#505,.F.);
#507=PROPERTY_DEFINITION('',
'shape for solid data with which properties are associated',#506);
#508=SHAPE_REPRESENTATION('',(#475),#491);
#509=SHAPE_DEFINITION_REPRESENTATION(#507,#508);
#510=(LENGTH_UNIT()NAMED_UNIT(*)SI_UNIT(.MILLI.,.METRE.));
#516=PROPERTY_DEFINITION('geometric validation property',
'area of CUT-EXTRUDE7200',#506);
#517=REPRESENTATION('surface area',(#515),#491);
#518=PROPERTY_DEFINITION_REPRESENTATION(#516,#517);
#519=(LENGTH_UNIT()NAMED_UNIT(*)SI_UNIT(.MILLI.,.METRE.));
#525=PROPERTY_DEFINITION('geometric validation property',
'volume of CUT-EXTRUDE7200',#506);
#526=REPRESENTATION('volume',(#524),#491);
#527=PROPERTY_DEFINITION_REPRESENTATION(#525,#526);
#529=PROPERTY_DEFINITION('geometric validation property',
'centroid of CUT-EXTRUDE7200',#506);
#530=REPRESENTATION('centroid',(#528),#491);
#531=PROPERTY_DEFINITION_REPRESENTATION(#529,#530);
#532=(LENGTH_UNIT()NAMED_UNIT(*)SI_UNIT(.MILLI.,.METRE.));
#538=PROPERTY_DEFINITION('geometric validation property',
'area of CUT-EXTRUDE7200',#505);
#539=REPRESENTATION('surface area',(#537),#491);
#540=PROPERTY_DEFINITION_REPRESENTATION(#538,#539);
#541=(LENGTH_UNIT()NAMED_UNIT(*)SI_UNIT(.MILLI.,.METRE.));
#547=PROPERTY_DEFINITION('geometric validation property',
'volume of CUT-EXTRUDE7200',#505);
#548=REPRESENTATION('volume',(#546),#491);
#549=PROPERTY_DEFINITION_REPRESENTATION(#547,#548);
#551=PROPERTY_DEFINITION('geometric validation property',
'centroid of CUT-EXTRUDE7200',#505);
#552=REPRESENTATION('centroid',(#550),#491);
#553=PROPERTY_DEFINITION_REPRESENTATION(#551,#552);
#554=SHAPE_DEFINITION_REPRESENTATION(#505,#496);
ENDSEC;
END-ISO-10303-21;
