ISO-10303-21;
HEADER;
FILE_DESCRIPTION((''),'2;1');
FILE_NAME('CUT-EXTRUDE11400','2026-06-15T13:46:14',('Esia'),(''),
'CREO PARAMETRIC BY PTC INC, 2025102','CREO PARAMETRIC BY PTC INC, 2025102','');
FILE_SCHEMA((
'AP242_MANAGED_MODEL_BASED_3D_ENGINEERING_MIM_LF { 1 0 10303 442 1 1 4 }'));
ENDSEC;
DATA;
#17=DIRECTION('',(1.E0,0.E0,0.E0));
#18=VECTOR('',#17,1.181102362205E-1);
#19=CARTESIAN_POINT('',(-3.937007874022E-2,-2.618110236220E-1,
6.523622047244E-1));
#20=LINE('',#19,#18);
#21=DRAUGHTING_PRE_DEFINED_CURVE_FONT('continuous');
#22=CURVE_STYLE('',#21,POSITIVE_LENGTH_MEASURE(2.E-2),#8);
#23=PRESENTATION_STYLE_ASSIGNMENT((#22));
#24=STYLED_ITEM('',(#23),#20);
#25=DIRECTION('',(1.293971961929E-14,0.E0,-1.E0));
#26=VECTOR('',#25,3.110236220472E-2);
#27=CARTESIAN_POINT('',(-3.937007874022E-2,-2.618110236220E-1,
6.834645669291E-1));
#28=LINE('',#27,#26);
#29=CURVE_STYLE('',#21,POSITIVE_LENGTH_MEASURE(2.E-2),#8);
#30=PRESENTATION_STYLE_ASSIGNMENT((#29));
#31=STYLED_ITEM('',(#30),#28);
#32=DIRECTION('',(0.E0,0.E0,1.E0));
#33=VECTOR('',#32,3.110236220472E-2);
#34=CARTESIAN_POINT('',(7.874015748031E-2,-2.618110236220E-1,
6.523622047244E-1));
#35=LINE('',#34,#33);
#36=CURVE_STYLE('',#21,POSITIVE_LENGTH_MEASURE(2.E-2),#8);
#37=PRESENTATION_STYLE_ASSIGNMENT((#36));
#38=STYLED_ITEM('',(#37),#35);
#39=DIRECTION('',(1.E0,0.E0,0.E0));
#40=VECTOR('',#39,1.181102362205E-1);
#41=CARTESIAN_POINT('',(-3.937007874022E-2,-2.539370078740E-1,
6.523622047244E-1));
#42=LINE('',#41,#40);
#43=CURVE_STYLE('',#21,POSITIVE_LENGTH_MEASURE(2.E-2),#8);
#44=PRESENTATION_STYLE_ASSIGNMENT((#43));
#45=STYLED_ITEM('',(#44),#42);
#46=DIRECTION('',(0.E0,1.E0,1.409983241274E-14));
#47=VECTOR('',#46,7.874015748032E-3);
#48=CARTESIAN_POINT('',(-3.937007874022E-2,-2.618110236220E-1,
6.523622047244E-1));
#49=LINE('',#48,#47);
#50=CURVE_STYLE('',#21,POSITIVE_LENGTH_MEASURE(2.E-2),#8);
#51=PRESENTATION_STYLE_ASSIGNMENT((#50));
#52=STYLED_ITEM('',(#51),#49);
#53=DIRECTION('',(0.E0,-1.E0,0.E0));
#54=VECTOR('',#53,7.874015748031E-3);
#55=CARTESIAN_POINT('',(7.874015748031E-2,-2.539370078740E-1,
6.523622047244E-1));
#56=LINE('',#55,#54);
#57=CURVE_STYLE('',#21,POSITIVE_LENGTH_MEASURE(2.E-2),#8);
#58=PRESENTATION_STYLE_ASSIGNMENT((#57));
#59=STYLED_ITEM('',(#58),#56);
#60=DIRECTION('',(-1.227042377691E-14,0.E0,1.E0));
#61=VECTOR('',#60,3.110236220472E-2);
#62=CARTESIAN_POINT('',(-3.937007874022E-2,-2.539370078740E-1,
6.523622047244E-1));
#63=LINE('',#62,#61);
#64=CURVE_STYLE('',#21,POSITIVE_LENGTH_MEASURE(2.E-2),#8);
#65=PRESENTATION_STYLE_ASSIGNMENT((#64));
#66=STYLED_ITEM('',(#65),#63);
#67=DIRECTION('',(0.E0,0.E0,-1.E0));
#68=VECTOR('',#67,3.110236220472E-2);
#69=CARTESIAN_POINT('',(7.874015748031E-2,-2.539370078740E-1,
6.834645669291E-1));
#70=LINE('',#69,#68);
#71=CURVE_STYLE('',#21,POSITIVE_LENGTH_MEASURE(2.E-2),#8);
#72=PRESENTATION_STYLE_ASSIGNMENT((#71));
#73=STYLED_ITEM('',(#72),#70);
#74=DIRECTION('',(1.E0,0.E0,0.E0));
#75=VECTOR('',#74,1.181102362205E-1);
#76=CARTESIAN_POINT('',(-3.937007874022E-2,-2.736220472441E-1,
7.031496062992E-1));
#77=LINE('',#76,#75);
#78=CURVE_STYLE('',#21,POSITIVE_LENGTH_MEASURE(2.E-2),#8);
#79=PRESENTATION_STYLE_ASSIGNMENT((#78));
#80=STYLED_ITEM('',(#79),#77);
#81=DIRECTION('',(-1.E0,0.E0,0.E0));
#82=VECTOR('',#81,1.181102362205E-1);
#83=CARTESIAN_POINT('',(7.874015748031E-2,-2.539370078740E-1,
6.834645669291E-1));
#84=LINE('',#83,#82);
#85=CURVE_STYLE('',#21,POSITIVE_LENGTH_MEASURE(2.E-2),#8);
#86=PRESENTATION_STYLE_ASSIGNMENT((#85));
#87=STYLED_ITEM('',(#86),#84);
#88=DIRECTION('',(0.E0,-1.E0,-3.383959779057E-14));
#89=VECTOR('',#88,1.968503937008E-2);
#90=CARTESIAN_POINT('',(-3.937007874022E-2,-2.736220472441E-1,
7.031496062992E-1));
#91=LINE('',#90,#89);
#92=CURVE_STYLE('',#21,POSITIVE_LENGTH_MEASURE(2.E-2),#8);
#93=PRESENTATION_STYLE_ASSIGNMENT((#92));
#94=STYLED_ITEM('',(#93),#91);
#95=DIRECTION('',(0.E0,1.E0,2.819966482548E-14));
#96=VECTOR('',#95,1.968503937008E-2);
#97=CARTESIAN_POINT('',(7.874015748031E-2,-2.933070866142E-1,
7.031496062992E-1));
#98=LINE('',#97,#96);
#99=CURVE_STYLE('',#21,POSITIVE_LENGTH_MEASURE(2.E-2),#8);
#100=PRESENTATION_STYLE_ASSIGNMENT((#99));
#101=STYLED_ITEM('',(#100),#98);
#102=DIRECTION('',(1.E0,0.E0,0.E0));
#103=VECTOR('',#102,1.181102362205E-1);
#104=CARTESIAN_POINT('',(-3.937007874022E-2,-2.933070866142E-1,
6.952755905512E-1));
#105=LINE('',#104,#103);
#106=CURVE_STYLE('',#21,POSITIVE_LENGTH_MEASURE(2.E-2),#8);
#107=PRESENTATION_STYLE_ASSIGNMENT((#106));
#108=STYLED_ITEM('',(#107),#105);
#109=DIRECTION('',(1.145611383535E-14,0.E0,-1.E0));
#110=VECTOR('',#109,7.874015748032E-3);
#111=CARTESIAN_POINT('',(-3.937007874022E-2,-2.933070866142E-1,
7.031496062992E-1));
#112=LINE('',#111,#110);
#113=CURVE_STYLE('',#21,POSITIVE_LENGTH_MEASURE(2.E-2),#8);
#114=PRESENTATION_STYLE_ASSIGNMENT((#113));
#115=STYLED_ITEM('',(#114),#112);
#116=DIRECTION('',(-1.E0,0.E0,0.E0));
#117=VECTOR('',#116,1.181102362205E-1);
#118=CARTESIAN_POINT('',(7.874015748031E-2,-2.933070866142E-1,
7.031496062992E-1));
#119=LINE('',#118,#117);
#120=CURVE_STYLE('',#21,POSITIVE_LENGTH_MEASURE(2.E-2),#8);
#121=PRESENTATION_STYLE_ASSIGNMENT((#120));
#122=STYLED_ITEM('',(#121),#119);
#123=DIRECTION('',(0.E0,0.E0,1.E0));
#124=VECTOR('',#123,7.874015748032E-3);
#125=CARTESIAN_POINT('',(7.874015748031E-2,-2.933070866142E-1,
6.952755905512E-1));
#126=LINE('',#125,#124);
#127=CURVE_STYLE('',#21,POSITIVE_LENGTH_MEASURE(2.E-2),#8);
#128=PRESENTATION_STYLE_ASSIGNMENT((#127));
#129=STYLED_ITEM('',(#128),#126);
#130=DIRECTION('',(0.E0,1.E0,3.383959779057E-14));
#131=VECTOR('',#130,1.968503937008E-2);
#132=CARTESIAN_POINT('',(-3.937007874022E-2,-2.933070866142E-1,
6.952755905512E-1));
#133=LINE('',#132,#131);
#134=CURVE_STYLE('',#21,POSITIVE_LENGTH_MEASURE(2.E-2),#8);
#135=PRESENTATION_STYLE_ASSIGNMENT((#134));
#136=STYLED_ITEM('',(#135),#133);
#137=DIRECTION('',(0.E0,-1.E0,-2.819966482548E-14));
#138=VECTOR('',#137,1.968503937008E-2);
#139=CARTESIAN_POINT('',(7.874015748031E-2,-2.736220472441E-1,
6.952755905512E-1));
#140=LINE('',#139,#138);
#141=CURVE_STYLE('',#21,POSITIVE_LENGTH_MEASURE(2.E-2),#8);
#142=PRESENTATION_STYLE_ASSIGNMENT((#141));
#143=STYLED_ITEM('',(#142),#140);
#144=DIRECTION('',(1.E0,0.E0,0.E0));
#145=VECTOR('',#144,1.181102362205E-1);
#146=CARTESIAN_POINT('',(-3.937007874022E-2,-2.618110236220E-1,
6.834645669291E-1));
#147=LINE('',#146,#145);
#148=CURVE_STYLE('',#21,POSITIVE_LENGTH_MEASURE(2.E-2),#8);
#149=PRESENTATION_STYLE_ASSIGNMENT((#148));
#150=STYLED_ITEM('',(#149),#147);
#151=DIRECTION('',(-1.E0,0.E0,0.E0));
#152=VECTOR('',#151,1.181102362205E-1);
#153=CARTESIAN_POINT('',(7.874015748031E-2,-2.736220472441E-1,
6.952755905512E-1));
#154=LINE('',#153,#152);
#155=CURVE_STYLE('',#21,POSITIVE_LENGTH_MEASURE(2.E-2),#8);
#156=PRESENTATION_STYLE_ASSIGNMENT((#155));
#157=STYLED_ITEM('',(#156),#154);
#158=CARTESIAN_POINT('',(-3.937007874022E-2,-2.736220472441E-1,
6.834645669291E-1));
#159=DIRECTION('',(1.E0,0.E0,0.E0));
#160=DIRECTION('',(0.E0,1.E0,0.E0));
#161=AXIS2_PLACEMENT_3D('',#158,#159,#160);
#163=CURVE_STYLE('',#21,POSITIVE_LENGTH_MEASURE(2.E-2),#8);
#164=PRESENTATION_STYLE_ASSIGNMENT((#163));
#165=STYLED_ITEM('',(#164),#162);
#166=CARTESIAN_POINT('',(-3.937007874022E-2,-2.736220472441E-1,
6.834645669291E-1));
#167=DIRECTION('',(-1.E0,0.E0,0.E0));
#168=DIRECTION('',(0.E0,0.E0,1.E0));
#169=AXIS2_PLACEMENT_3D('',#166,#167,#168);
#171=CURVE_STYLE('',#21,POSITIVE_LENGTH_MEASURE(2.E-2),#8);
#172=PRESENTATION_STYLE_ASSIGNMENT((#171));
#173=STYLED_ITEM('',(#172),#170);
#174=CARTESIAN_POINT('',(7.874015748031E-2,-2.736220472441E-1,
6.834645669291E-1));
#175=DIRECTION('',(-1.E0,0.E0,0.E0));
#176=DIRECTION('',(0.E0,1.409983241274E-14,1.E0));
#177=AXIS2_PLACEMENT_3D('',#174,#175,#176);
#179=CURVE_STYLE('',#21,POSITIVE_LENGTH_MEASURE(2.E-2),#8);
#180=PRESENTATION_STYLE_ASSIGNMENT((#179));
#181=STYLED_ITEM('',(#180),#178);
#182=CARTESIAN_POINT('',(7.874015748031E-2,-2.736220472441E-1,
6.834645669291E-1));
#183=DIRECTION('',(1.E0,0.E0,0.E0));
#184=DIRECTION('',(0.E0,1.E0,-1.917577208133E-13));
#185=AXIS2_PLACEMENT_3D('',#182,#183,#184);
#187=CURVE_STYLE('',#21,POSITIVE_LENGTH_MEASURE(2.E-2),#8);
#188=PRESENTATION_STYLE_ASSIGNMENT((#187));
#189=STYLED_ITEM('',(#188),#186);
#190=CARTESIAN_POINT('',(7.874015748031E-2,-2.539370078740E-1,
6.523622047244E-1));
#191=CARTESIAN_POINT('',(7.874015748031E-2,-2.618110236220E-1,
6.523622047244E-1));
#192=VERTEX_POINT('',#190);
#193=VERTEX_POINT('',#191);
#194=CARTESIAN_POINT('',(-3.937007874022E-2,-2.539370078740E-1,
6.523622047244E-1));
#195=VERTEX_POINT('',#194);
#196=CARTESIAN_POINT('',(-3.937007874022E-2,-2.736220472441E-1,
7.031496062992E-1));
#197=CARTESIAN_POINT('',(-3.937007874022E-2,-2.933070866142E-1,
7.031496062992E-1));
#198=VERTEX_POINT('',#196);
#199=VERTEX_POINT('',#197);
#200=CARTESIAN_POINT('',(7.874015748031E-2,-2.618110236220E-1,
6.834645669291E-1));
#201=VERTEX_POINT('',#200);
#202=CARTESIAN_POINT('',(-3.937007874022E-2,-2.539370078740E-1,
6.834645669291E-1));
#203=VERTEX_POINT('',#202);
#204=CARTESIAN_POINT('',(-3.937007874022E-2,-2.618110236220E-1,
6.523622047244E-1));
#205=VERTEX_POINT('',#204);
#206=CARTESIAN_POINT('',(-3.937007874022E-2,-2.618110236220E-1,
6.834645669291E-1));
#207=VERTEX_POINT('',#206);
#208=CARTESIAN_POINT('',(7.874015748031E-2,-2.539370078740E-1,
6.834645669291E-1));
#209=VERTEX_POINT('',#208);
#210=CARTESIAN_POINT('',(7.874015748031E-2,-2.933070866142E-1,
7.031496062992E-1));
#211=CARTESIAN_POINT('',(7.874015748031E-2,-2.736220472441E-1,
7.031496062992E-1));
#212=VERTEX_POINT('',#210);
#213=VERTEX_POINT('',#211);
#214=CARTESIAN_POINT('',(7.874015748031E-2,-2.933070866142E-1,
6.952755905512E-1));
#215=VERTEX_POINT('',#214);
#216=CARTESIAN_POINT('',(-3.937007874022E-2,-2.933070866142E-1,
6.952755905512E-1));
#217=VERTEX_POINT('',#216);
#218=CARTESIAN_POINT('',(7.874015748031E-2,-2.736220472441E-1,
6.952755905512E-1));
#219=VERTEX_POINT('',#218);
#220=CARTESIAN_POINT('',(-3.937007874022E-2,-2.736220472441E-1,
6.952755905512E-1));
#221=VERTEX_POINT('',#220);
#222=CARTESIAN_POINT('',(1.405662882399E-1,-2.618110236220E-1,
6.834645669291E-1));
#223=DIRECTION('',(0.E0,1.E0,0.E0));
#224=DIRECTION('',(0.E0,0.E0,1.E0));
#225=AXIS2_PLACEMENT_3D('',#222,#223,#224);
#226=PLANE('',#225);
#228=ORIENTED_EDGE('',*,*,#227,.F.);
#230=ORIENTED_EDGE('',*,*,#229,.F.);
#232=ORIENTED_EDGE('',*,*,#231,.T.);
#234=ORIENTED_EDGE('',*,*,#233,.F.);
#235=EDGE_LOOP('',(#228,#230,#232,#234));
#236=FACE_OUTER_BOUND('',#235,.F.);
#238=CARTESIAN_POINT('',(1.405662882399E-1,-2.618110236220E-1,
6.523622047244E-1));
#239=DIRECTION('',(0.E0,-3.469446951954E-14,1.E0));
#240=DIRECTION('',(0.E0,-1.E0,-3.469446951954E-14));
#241=AXIS2_PLACEMENT_3D('',#238,#239,#240);
#242=PLANE('',#241);
#244=ORIENTED_EDGE('',*,*,#243,.F.);
#246=ORIENTED_EDGE('',*,*,#245,.F.);
#247=ORIENTED_EDGE('',*,*,#227,.T.);
#249=ORIENTED_EDGE('',*,*,#248,.F.);
#250=EDGE_LOOP('',(#244,#246,#247,#249));
#251=FACE_OUTER_BOUND('',#250,.F.);
#253=CARTESIAN_POINT('',(1.405662882399E-1,-2.539370078740E-1,
6.523622047244E-1));
#254=DIRECTION('',(0.E0,-1.E0,0.E0));
#255=DIRECTION('',(0.E0,0.E0,-1.E0));
#256=AXIS2_PLACEMENT_3D('',#253,#254,#255);
#257=PLANE('',#256);
#259=ORIENTED_EDGE('',*,*,#258,.T.);
#261=ORIENTED_EDGE('',*,*,#260,.F.);
#262=ORIENTED_EDGE('',*,*,#243,.T.);
#264=ORIENTED_EDGE('',*,*,#263,.F.);
#265=EDGE_LOOP('',(#259,#261,#262,#264));
#266=FACE_OUTER_BOUND('',#265,.F.);
#268=CARTESIAN_POINT('',(1.405662882399E-1,-2.736220472441E-1,
6.834645669291E-1));
#269=DIRECTION('',(-1.E0,0.E0,0.E0));
#270=DIRECTION('',(0.E0,-1.E0,0.E0));
#271=AXIS2_PLACEMENT_3D('',#268,#269,#270);
#272=CYLINDRICAL_SURFACE('',#271,1.968503937008E-2);
#274=ORIENTED_EDGE('',*,*,#273,.F.);
#276=ORIENTED_EDGE('',*,*,#275,.T.);
#277=ORIENTED_EDGE('',*,*,#258,.F.);
#279=ORIENTED_EDGE('',*,*,#278,.T.);
#280=EDGE_LOOP('',(#274,#276,#277,#279));
#281=FACE_OUTER_BOUND('',#280,.F.);
#283=CARTESIAN_POINT('',(1.405662882399E-1,-2.736220472441E-1,
7.031496062992E-1));
#284=DIRECTION('',(0.E0,3.469446951954E-14,-1.E0));
#285=DIRECTION('',(0.E0,1.E0,3.469446951954E-14));
#286=AXIS2_PLACEMENT_3D('',#283,#284,#285);
#287=PLANE('',#286);
#289=ORIENTED_EDGE('',*,*,#288,.T.);
#291=ORIENTED_EDGE('',*,*,#290,.F.);
#292=ORIENTED_EDGE('',*,*,#273,.T.);
#294=ORIENTED_EDGE('',*,*,#293,.F.);
#295=EDGE_LOOP('',(#289,#291,#292,#294));
#296=FACE_OUTER_BOUND('',#295,.F.);
#298=CARTESIAN_POINT('',(1.405662882399E-1,-2.933070866142E-1,
7.031496062992E-1));
#299=DIRECTION('',(0.E0,1.E0,0.E0));
#300=DIRECTION('',(-1.E0,0.E0,0.E0));
#301=AXIS2_PLACEMENT_3D('',#298,#299,#300);
#302=PLANE('',#301);
#304=ORIENTED_EDGE('',*,*,#303,.F.);
#306=ORIENTED_EDGE('',*,*,#305,.F.);
#307=ORIENTED_EDGE('',*,*,#288,.F.);
#309=ORIENTED_EDGE('',*,*,#308,.F.);
#310=EDGE_LOOP('',(#304,#306,#307,#309));
#311=FACE_OUTER_BOUND('',#310,.F.);
#313=CARTESIAN_POINT('',(1.405662882399E-1,-2.814960629921E-1,
6.952755905512E-1));
#314=DIRECTION('',(0.E0,-3.469446951954E-14,1.E0));
#315=DIRECTION('',(0.E0,-1.E0,-3.469446951954E-14));
#316=AXIS2_PLACEMENT_3D('',#313,#314,#315);
#317=PLANE('',#316);
#319=ORIENTED_EDGE('',*,*,#318,.T.);
#321=ORIENTED_EDGE('',*,*,#320,.F.);
#322=ORIENTED_EDGE('',*,*,#303,.T.);
#324=ORIENTED_EDGE('',*,*,#323,.F.);
#325=EDGE_LOOP('',(#319,#321,#322,#324));
#326=FACE_OUTER_BOUND('',#325,.F.);
#328=CARTESIAN_POINT('',(1.405662882399E-1,-2.736220472441E-1,
6.834645669291E-1));
#329=DIRECTION('',(-1.E0,0.E0,0.E0));
#330=DIRECTION('',(0.E0,-1.E0,0.E0));
#331=AXIS2_PLACEMENT_3D('',#328,#329,#330);
#332=CYLINDRICAL_SURFACE('',#331,1.181102362205E-2);
#333=ORIENTED_EDGE('',*,*,#231,.F.);
#335=ORIENTED_EDGE('',*,*,#334,.T.);
#336=ORIENTED_EDGE('',*,*,#318,.F.);
#338=ORIENTED_EDGE('',*,*,#337,.T.);
#339=EDGE_LOOP('',(#333,#335,#336,#338));
#340=FACE_OUTER_BOUND('',#339,.F.);
#342=CARTESIAN_POINT('',(-3.937007874022E-2,-3.024024752377E-1,
6.523622047244E-1));
#343=DIRECTION('',(1.E0,0.E0,1.156482317318E-14));
#344=DIRECTION('',(1.156482317318E-14,0.E0,-1.E0));
#345=AXIS2_PLACEMENT_3D('',#342,#343,#344);
#346=PLANE('',#345);
#347=ORIENTED_EDGE('',*,*,#334,.F.);
#348=ORIENTED_EDGE('',*,*,#229,.T.);
#349=ORIENTED_EDGE('',*,*,#245,.T.);
#350=ORIENTED_EDGE('',*,*,#260,.T.);
#351=ORIENTED_EDGE('',*,*,#275,.F.);
#352=ORIENTED_EDGE('',*,*,#290,.T.);
#353=ORIENTED_EDGE('',*,*,#305,.T.);
#354=ORIENTED_EDGE('',*,*,#320,.T.);
#355=EDGE_LOOP('',(#347,#348,#349,#350,#351,#352,#353,#354));
#356=FACE_OUTER_BOUND('',#355,.F.);
#358=CARTESIAN_POINT('',(7.874015748031E-2,-3.024024752377E-1,
6.641732283465E-1));
#359=DIRECTION('',(-1.E0,0.E0,0.E0));
#360=DIRECTION('',(0.E0,0.E0,1.E0));
#361=AXIS2_PLACEMENT_3D('',#358,#359,#360);
#362=PLANE('',#361);
#363=ORIENTED_EDGE('',*,*,#248,.T.);
#364=ORIENTED_EDGE('',*,*,#233,.T.);
#365=ORIENTED_EDGE('',*,*,#337,.F.);
#366=ORIENTED_EDGE('',*,*,#323,.T.);
#367=ORIENTED_EDGE('',*,*,#308,.T.);
#368=ORIENTED_EDGE('',*,*,#293,.T.);
#369=ORIENTED_EDGE('',*,*,#278,.F.);
#370=ORIENTED_EDGE('',*,*,#263,.T.);
#371=EDGE_LOOP('',(#363,#364,#365,#366,#367,#368,#369,#370));
#372=FACE_OUTER_BOUND('',#371,.F.);
#376=FILL_AREA_STYLE_COLOUR('',#8);
#377=FILL_AREA_STYLE('',(#376));
#378=SURFACE_STYLE_FILL_AREA(#377);
#379=SURFACE_SIDE_STYLE('',(#378));
#380=SURFACE_STYLE_USAGE(.BOTH.,#379);
#381=PRESENTATION_STYLE_ASSIGNMENT((#380));
#16=STYLED_ITEM('',(#381),#375);
#382=PRESENTATION_LAYER_ASSIGNMENT('SHELL_181','',(#16,#237,#252,#267,#282,#297,
#312,#327,#341,#357,#373));
#384=LENGTH_MEASURE_WITH_UNIT(LENGTH_MEASURE(2.54E1),#383);
#385=(CONVERSION_BASED_UNIT('INCH',#384)LENGTH_UNIT()NAMED_UNIT(*));
#387=PLANE_ANGLE_MEASURE_WITH_UNIT(PLANE_ANGLE_MEASURE(1.745329251994E-2),#386);
#388=(CONVERSION_BASED_UNIT('DEGREE',#387)NAMED_UNIT(*)PLANE_ANGLE_UNIT());
#390=UNCERTAINTY_MEASURE_WITH_UNIT(LENGTH_MEASURE(1.344542481160E-5),#385,
'closure',
'Maximum model space distance between geometric entities at asserted connectivities');
#392=CARTESIAN_POINT('',(0.E0,0.E0,0.E0));
#393=DIRECTION('',(0.E0,0.E0,1.E0));
#394=DIRECTION('',(1.E0,0.E0,0.E0));
#397=MECHANICAL_DESIGN_GEOMETRIC_PRESENTATION_REPRESENTATION('',(#24,#31,#38,
#45,#52,#59,#66,#73,#80,#87,#94,#101,#108,#115,#122,#129,#136,#143,#150,#157,
#165,#173,#181,#189,#16),#391);
#398=APPLICATION_CONTEXT('automotive design');
#399=APPLICATION_PROTOCOL_DEFINITION('international standard',
'config_control_design',1994,#398);
#400=PRODUCT_DEFINITION_CONTEXT('',#398,'design');
#401=PRODUCT_CONTEXT('',#398,'mechanical');
#402=PRODUCT('CUT-EXTRUDE11400','CUT-EXTRUDE11400','NOT SPECIFIED',(#401));
#403=PRODUCT_DEFINITION_FORMATION_WITH_SPECIFIED_SOURCE('1','LAST_VERSION',#402,
.MADE.);
#411=LENGTH_MEASURE_WITH_UNIT(LENGTH_MEASURE(2.54E1),#410);
#412=(CONVERSION_BASED_UNIT('INCH',#411)LENGTH_UNIT()NAMED_UNIT(*));
#413=DERIVED_UNIT_ELEMENT(#412,2.E0);
#414=AREA_UNIT((#413));
#415=MEASURE_REPRESENTATION_ITEM('surface area measure',AREA_MEASURE(
1.347723859660E1),#414);
#420=LENGTH_MEASURE_WITH_UNIT(LENGTH_MEASURE(2.54E1),#419);
#421=(CONVERSION_BASED_UNIT('INCH',#420)LENGTH_UNIT()NAMED_UNIT(*));
#422=DERIVED_UNIT_ELEMENT(#421,3.E0);
#423=VOLUME_UNIT((#422));
#424=MEASURE_REPRESENTATION_ITEM('volume measure',VOLUME_MEASURE(
1.150991118702E0),#423);
#428=CARTESIAN_POINT('centre point',(4.999999999989E-1,-6.765289622350E0,
1.738673347759E1));
#433=LENGTH_MEASURE_WITH_UNIT(LENGTH_MEASURE(2.54E1),#432);
#434=(CONVERSION_BASED_UNIT('INCH',#433)LENGTH_UNIT()NAMED_UNIT(*));
#435=DERIVED_UNIT_ELEMENT(#434,2.E0);
#436=AREA_UNIT((#435));
#437=MEASURE_REPRESENTATION_ITEM('surface area measure',AREA_MEASURE(
1.347723859660E1),#436);
#442=LENGTH_MEASURE_WITH_UNIT(LENGTH_MEASURE(2.54E1),#441);
#443=(CONVERSION_BASED_UNIT('INCH',#442)LENGTH_UNIT()NAMED_UNIT(*));
#444=DERIVED_UNIT_ELEMENT(#443,3.E0);
#445=VOLUME_UNIT((#444));
#446=MEASURE_REPRESENTATION_ITEM('volume measure',VOLUME_MEASURE(
1.150991118702E0),#445);
#450=CARTESIAN_POINT('centre point',(4.999999999989E-1,-6.765289622350E0,
1.738673347759E1));
#1=DRAUGHTING_PRE_DEFINED_COLOUR('green');
#2=COLOUR_RGB('',1.1E-2,1.2E-2,1.E0);
#3=COLOUR_RGB('',2.352941176471E-1,2.352941176471E-1,2.352941176471E-1);
#4=COLOUR_RGB('',4.1E-1,2.61589E-1,1.12848E-1);
#5=COLOUR_RGB('',5.04854E-1,1.5455E-2,1.5455E-2);
#6=COLOUR_RGB('',6.35294E-1,6.86275E-1,7.4902E-1);
#7=COLOUR_RGB('',6.40777E-1,6.40777E-1,6.40777E-1);
#8=COLOUR_RGB('',6.392156862745E-1,6.666666666667E-1,6.784313725490E-1);
#9=COLOUR_RGB('',6.69062E-1,6.69903E-1,6.55217E-1);
#10=COLOUR_RGB('',9.21569E-1,7.05882E-1,4.70588E-1);
#11=DRAUGHTING_PRE_DEFINED_COLOUR('red');
#12=DRAUGHTING_PRE_DEFINED_COLOUR('yellow');
#13=COLOUR_RGB('',1.E0,1.E0,5.3E-1);
#14=COLOUR_RGB('',1.E0,1.E0,9.49E-1);
#15=DRAUGHTING_PRE_DEFINED_COLOUR('white');
#162=CIRCLE('',#161,1.181102362205E-2);
#170=CIRCLE('',#169,1.968503937008E-2);
#178=CIRCLE('',#177,1.181102362205E-2);
#186=CIRCLE('',#185,1.968503937008E-2);
#227=EDGE_CURVE('',#205,#193,#20,.T.);
#229=EDGE_CURVE('',#207,#205,#28,.T.);
#231=EDGE_CURVE('',#207,#201,#147,.T.);
#233=EDGE_CURVE('',#193,#201,#35,.T.);
#237=ADVANCED_FACE('',(#236),#226,.F.);
#243=EDGE_CURVE('',#195,#192,#42,.T.);
#245=EDGE_CURVE('',#205,#195,#49,.T.);
#248=EDGE_CURVE('',#192,#193,#56,.T.);
#252=ADVANCED_FACE('',(#251),#242,.F.);
#258=EDGE_CURVE('',#209,#203,#84,.T.);
#260=EDGE_CURVE('',#195,#203,#63,.T.);
#263=EDGE_CURVE('',#209,#192,#70,.T.);
#267=ADVANCED_FACE('',(#266),#257,.F.);
#273=EDGE_CURVE('',#198,#213,#77,.T.);
#275=EDGE_CURVE('',#198,#203,#170,.T.);
#278=EDGE_CURVE('',#209,#213,#186,.T.);
#282=ADVANCED_FACE('',(#281),#272,.T.);
#288=EDGE_CURVE('',#212,#199,#119,.T.);
#290=EDGE_CURVE('',#198,#199,#91,.T.);
#293=EDGE_CURVE('',#212,#213,#98,.T.);
#297=ADVANCED_FACE('',(#296),#287,.F.);
#303=EDGE_CURVE('',#217,#215,#105,.T.);
#305=EDGE_CURVE('',#199,#217,#112,.T.);
#308=EDGE_CURVE('',#215,#212,#126,.T.);
#312=ADVANCED_FACE('',(#311),#302,.F.);
#318=EDGE_CURVE('',#219,#221,#154,.T.);
#320=EDGE_CURVE('',#217,#221,#133,.T.);
#323=EDGE_CURVE('',#219,#215,#140,.T.);
#327=ADVANCED_FACE('',(#326),#317,.F.);
#334=EDGE_CURVE('',#207,#221,#162,.T.);
#337=EDGE_CURVE('',#219,#201,#178,.T.);
#341=ADVANCED_FACE('',(#340),#332,.F.);
#357=ADVANCED_FACE('',(#356),#346,.F.);
#373=ADVANCED_FACE('',(#372),#362,.F.);
#374=CLOSED_SHELL('',(#237,#252,#267,#282,#297,#312,#327,#341,#357,#373));
#375=MANIFOLD_SOLID_BREP('',#374);
#383=(LENGTH_UNIT()NAMED_UNIT(*)SI_UNIT(.MILLI.,.METRE.));
#386=(NAMED_UNIT(*)PLANE_ANGLE_UNIT()SI_UNIT($,.RADIAN.));
#389=(NAMED_UNIT(*)SI_UNIT($,.STERADIAN.)SOLID_ANGLE_UNIT());
#391=(GEOMETRIC_REPRESENTATION_CONTEXT(3)GLOBAL_UNCERTAINTY_ASSIGNED_CONTEXT((
#390))GLOBAL_UNIT_ASSIGNED_CONTEXT((#385,#388,#389))REPRESENTATION_CONTEXT
('ID1','3'));
#395=AXIS2_PLACEMENT_3D('',#392,#393,#394);
#396=ADVANCED_BREP_SHAPE_REPRESENTATION('',(#395,#375),#391);
#404=PRODUCT_DEFINITION('design','',#403,#400);
#405=PRODUCT_DEFINITION_SHAPE('','SHAPE FOR CUT-EXTRUDE11400.',#404);
#406=SHAPE_ASPECT('','solid data associated with CUT-EXTRUDE11400',#405,.F.);
#407=PROPERTY_DEFINITION('',
'shape for solid data with which properties are associated',#406);
#408=SHAPE_REPRESENTATION('',(#375),#391);
#409=SHAPE_DEFINITION_REPRESENTATION(#407,#408);
#410=(LENGTH_UNIT()NAMED_UNIT(*)SI_UNIT(.MILLI.,.METRE.));
#416=PROPERTY_DEFINITION('geometric validation property',
'area of CUT-EXTRUDE11400',#406);
#417=REPRESENTATION('surface area',(#415),#391);
#418=PROPERTY_DEFINITION_REPRESENTATION(#416,#417);
#419=(LENGTH_UNIT()NAMED_UNIT(*)SI_UNIT(.MILLI.,.METRE.));
#425=PROPERTY_DEFINITION('geometric validation property',
'volume of CUT-EXTRUDE11400',#406);
#426=REPRESENTATION('volume',(#424),#391);
#427=PROPERTY_DEFINITION_REPRESENTATION(#425,#426);
#429=PROPERTY_DEFINITION('geometric validation property',
'centroid of CUT-EXTRUDE11400',#406);
#430=REPRESENTATION('centroid',(#428),#391);
#431=PROPERTY_DEFINITION_REPRESENTATION(#429,#430);
#432=(LENGTH_UNIT()NAMED_UNIT(*)SI_UNIT(.MILLI.,.METRE.));
#438=PROPERTY_DEFINITION('geometric validation property',
'area of CUT-EXTRUDE11400',#405);
#439=REPRESENTATION('surface area',(#437),#391);
#440=PROPERTY_DEFINITION_REPRESENTATION(#438,#439);
#441=(LENGTH_UNIT()NAMED_UNIT(*)SI_UNIT(.MILLI.,.METRE.));
#447=PROPERTY_DEFINITION('geometric validation property',
'volume of CUT-EXTRUDE11400',#405);
#448=REPRESENTATION('volume',(#446),#391);
#449=PROPERTY_DEFINITION_REPRESENTATION(#447,#448);
#451=PROPERTY_DEFINITION('geometric validation property',
'centroid of CUT-EXTRUDE11400',#405);
#452=REPRESENTATION('centroid',(#450),#391);
#453=PROPERTY_DEFINITION_REPRESENTATION(#451,#452);
#454=SHAPE_DEFINITION_REPRESENTATION(#405,#396);
ENDSEC;
END-ISO-10303-21;
