ISO-10303-21;
HEADER;
FILE_DESCRIPTION((''),'2;1');
FILE_NAME('CUT-EXTRUDE15','2026-06-15T13:46:15',('Esia'),(''),
'CREO PARAMETRIC BY PTC INC, 2025102','CREO PARAMETRIC BY PTC INC, 2025102','');
FILE_SCHEMA((
'AP242_MANAGED_MODEL_BASED_3D_ENGINEERING_MIM_LF { 1 0 10303 442 1 1 4 }'));
ENDSEC;
DATA;
#17=DIRECTION('',(1.450644918581E-4,-1.548946120354E-1,9.879309885405E-1));
#18=VECTOR('',#17,1.271941548394E-2);
#19=CARTESIAN_POINT('',(2.921241343412E-1,-7.643693639285E-2,
4.807086614173E-1));
#20=LINE('',#19,#18);
#21=DRAUGHTING_PRE_DEFINED_CURVE_FONT('continuous');
#22=CURVE_STYLE('',#21,POSITIVE_LENGTH_MEASURE(2.E-2),#5);
#23=PRESENTATION_STYLE_ASSIGNMENT((#22));
#24=STYLED_ITEM('',(#23),#20);
#25=DIRECTION('',(0.E0,1.E0,0.E0));
#26=VECTOR('',#25,8.350377637893E-2);
#27=CARTESIAN_POINT('',(2.921241343412E-1,-1.599407127718E-1,
4.807086614173E-1));
#28=LINE('',#27,#26);
#29=CURVE_STYLE('',#21,POSITIVE_LENGTH_MEASURE(2.E-2),#5);
#30=PRESENTATION_STYLE_ASSIGNMENT((#29));
#31=STYLED_ITEM('',(#30),#28);
#32=DIRECTION('',(-1.448771042417E-4,-1.628257832306E-1,-9.866548248126E-1));
#33=VECTOR('',#32,1.276882743593E-2);
#34=CARTESIAN_POINT('',(2.921259842520E-1,-1.578616184436E-1,
4.933070866142E-1));
#35=LINE('',#34,#33);
#36=CURVE_STYLE('',#21,POSITIVE_LENGTH_MEASURE(2.E-2),#5);
#37=PRESENTATION_STYLE_ASSIGNMENT((#36));
#38=STYLED_ITEM('',(#37),#35);
#39=DIRECTION('',(0.E0,-1.E0,0.E0));
#40=VECTOR('',#39,7.944994065620E-2);
#41=CARTESIAN_POINT('',(2.921259842520E-1,-7.841167778739E-2,
4.933070866142E-1));
#42=LINE('',#41,#40);
#43=CURVE_STYLE('',#21,POSITIVE_LENGTH_MEASURE(2.E-2),#5);
#44=PRESENTATION_STYLE_ASSIGNMENT((#43));
#45=STYLED_ITEM('',(#44),#42);
#46=DIRECTION('',(1.454064197569E-4,-1.392331742260E-1,9.902596134610E-1));
#47=VECTOR('',#46,3.284036197340E-5);
#48=CARTESIAN_POINT('',(2.921259794768E-1,-7.840710531955E-2,
4.932745661300E-1));
#49=LINE('',#48,#47);
#50=CURVE_STYLE('',#21,POSITIVE_LENGTH_MEASURE(2.E-2),#5);
#51=PRESENTATION_STYLE_ASSIGNMENT((#50));
#52=STYLED_ITEM('',(#51),#49);
#53=DIRECTION('',(-1.E0,0.E0,0.E0));
#54=VECTOR('',#53,3.520671897484E-3);
#55=CARTESIAN_POINT('',(2.921241343412E-1,-7.643693639285E-2,
4.807086614173E-1));
#56=LINE('',#55,#54);
#57=CURVE_STYLE('',#21,POSITIVE_LENGTH_MEASURE(2.E-2),#5);
#58=PRESENTATION_STYLE_ASSIGNMENT((#57));
#59=STYLED_ITEM('',(#58),#56);
#60=DIRECTION('',(-3.461572908732E-2,-1.548017847140E-1,9.873389280025E-1));
#61=VECTOR('',#60,1.272704271686E-2);
#62=CARTESIAN_POINT('',(2.886034624437E-1,-7.643693639285E-2,
4.807086614173E-1));
#63=LINE('',#62,#61);
#64=CURVE_STYLE('',#21,POSITIVE_LENGTH_MEASURE(2.E-2),#5);
#65=PRESENTATION_STYLE_ASSIGNMENT((#64));
#66=STYLED_ITEM('',(#65),#63);
#67=DIRECTION('',(-1.E0,0.E0,0.E0));
#68=VECTOR('',#67,3.520671897484E-3);
#69=CARTESIAN_POINT('',(2.921241343412E-1,-1.599407127718E-1,
4.807086614173E-1));
#70=LINE('',#69,#68);
#71=CURVE_STYLE('',#21,POSITIVE_LENGTH_MEASURE(2.E-2),#5);
#72=PRESENTATION_STYLE_ASSIGNMENT((#71));
#73=STYLED_ITEM('',(#72),#70);
#74=DIRECTION('',(0.E0,1.E0,0.E0));
#75=VECTOR('',#74,8.350377637893E-2);
#76=CARTESIAN_POINT('',(2.886034624437E-1,-1.599407127718E-1,
4.807086614173E-1));
#77=LINE('',#76,#75);
#78=CURVE_STYLE('',#21,POSITIVE_LENGTH_MEASURE(2.E-2),#5);
#79=PRESENTATION_STYLE_ASSIGNMENT((#78));
#80=STYLED_ITEM('',(#79),#77);
#81=DIRECTION('',(-1.E0,0.E0,0.E0));
#82=VECTOR('',#81,7.875246094213E-3);
#83=CARTESIAN_POINT('',(2.960358634407E-1,-1.578562096495E-1,
4.933398616006E-1));
#84=LINE('',#83,#82);
#85=CURVE_STYLE('',#21,POSITIVE_LENGTH_MEASURE(2.E-2),#5);
#86=PRESENTATION_STYLE_ASSIGNMENT((#85));
#87=STYLED_ITEM('',(#86),#84);
#88=DIRECTION('',(3.457106755865E-2,-1.627284545216E-1,-9.860650543331E-1));
#89=VECTOR('',#88,1.280970269429E-2);
#90=CARTESIAN_POINT('',(2.881606173465E-1,-1.578562096495E-1,
4.933398616006E-1));
#91=LINE('',#90,#89);
#92=CURVE_STYLE('',#21,POSITIVE_LENGTH_MEASURE(2.E-2),#5);
#93=PRESENTATION_STYLE_ASSIGNMENT((#92));
#94=STYLED_ITEM('',(#93),#91);
#95=DIRECTION('',(3.465706382360E-2,-1.470755770994E-1,-9.885179121028E-1));
#96=VECTOR('',#95,2.596768604215E-2);
#97=CARTESIAN_POINT('',(2.872606535940E-1,-1.540369972389E-1,
5.190093843891E-1));
#98=LINE('',#97,#96);
#99=CURVE_STYLE('',#21,POSITIVE_LENGTH_MEASURE(2.E-2),#5);
#100=PRESENTATION_STYLE_ASSIGNMENT((#99));
#101=STYLED_ITEM('',(#100),#98);
#102=DIRECTION('',(-9.999999963605E-1,1.557062317203E-5,8.388359922190E-5));
#103=VECTOR('',#102,1.486091929879E-2);
#104=CARTESIAN_POINT('',(2.895829653505E-1,-1.533471207290E-1,
5.288895474796E-1));
#105=LINE('',#104,#103);
#106=CURVE_STYLE('',#21,POSITIVE_LENGTH_MEASURE(2.E-2),#5);
#107=PRESENTATION_STYLE_ASSIGNMENT((#106));
#108=STYLED_ITEM('',(#107),#105);
#109=CARTESIAN_POINT('',(2.895829653505E-1,-1.533471207290E-1,
5.288895474796E-1));
#110=CARTESIAN_POINT('',(2.899050936926E-1,-1.533684721185E-1,
5.286882593513E-1));
#111=CARTESIAN_POINT('',(2.905361600831E-1,-1.534110374476E-1,
5.282506968257E-1));
#112=CARTESIAN_POINT('',(2.914193164452E-1,-1.534759511447E-1,
5.275004341057E-1));
#113=CARTESIAN_POINT('',(2.922315227547E-1,-1.535413239344E-1,
5.266598154106E-1));
#114=CARTESIAN_POINT('',(2.929590422047E-1,-1.536070535997E-1,
5.257396261887E-1));
#115=CARTESIAN_POINT('',(2.935919511128E-1,-1.536729003810E-1,
5.247515292370E-1));
#116=CARTESIAN_POINT('',(2.941221048247E-1,-1.537386606433E-1,
5.237091618062E-1));
#117=CARTESIAN_POINT('',(2.945441975220E-1,-1.538041112825E-1,
5.226268401599E-1));
#118=CARTESIAN_POINT('',(2.948556305736E-1,-1.538689905726E-1,
5.215188022593E-1));
#119=CARTESIAN_POINT('',(2.950559274578E-1,-1.539330013979E-1,
5.203994776452E-1));
#120=CARTESIAN_POINT('',(2.951168836455E-1,-1.539750203090E-1,
5.196561396832E-1));
#121=CARTESIAN_POINT('',(2.951298292298E-1,-1.539958691127E-1,
5.192854266500E-1));
#123=CURVE_STYLE('',#21,POSITIVE_LENGTH_MEASURE(2.E-2),#5);
#124=PRESENTATION_STYLE_ASSIGNMENT((#123));
#125=STYLED_ITEM('',(#124),#122);
#126=DIRECTION('',(9.999999874542E-1,-1.615923243583E-5,-1.575770025806E-4));
#127=VECTOR('',#126,7.888677703985E-3);
#128=CARTESIAN_POINT('',(2.872411516248E-1,-1.539957416378E-1,
5.192866697242E-1));
#129=LINE('',#128,#127);
#130=CURVE_STYLE('',#21,POSITIVE_LENGTH_MEASURE(2.E-2),#5);
#131=PRESENTATION_STYLE_ASSIGNMENT((#130));
#132=STYLED_ITEM('',(#131),#129);
#133=CARTESIAN_POINT('',(2.747220461058E-1,-1.533468893352E-1,
5.288907940670E-1));
#134=CARTESIAN_POINT('',(2.750554173149E-1,-1.533689859272E-1,
5.286824806157E-1));
#135=CARTESIAN_POINT('',(2.757724043398E-1,-1.534128182202E-1,
5.282344573981E-1));
#136=CARTESIAN_POINT('',(2.770009015832E-1,-1.534787433532E-1,
5.274668071218E-1));
#137=CARTESIAN_POINT('',(2.783753718056E-1,-1.535451697513E-1,
5.266079428046E-1));
#138=CARTESIAN_POINT('',(2.798982596674E-1,-1.536127713655E-1,
5.256563368534E-1));
#139=CARTESIAN_POINT('',(2.815780243643E-1,-1.536823013218E-1,
5.246067033759E-1));
#140=CARTESIAN_POINT('',(2.834071193848E-1,-1.537538307214E-1,
5.234637579558E-1));
#141=CARTESIAN_POINT('',(2.847272156908E-1,-1.538031930516E-1,
5.226388702326E-1));
#142=CARTESIAN_POINT('',(2.854123403581E-1,-1.538283737871E-1,
5.222107568257E-1));
#144=CURVE_STYLE('',#21,POSITIVE_LENGTH_MEASURE(2.E-2),#5);
#145=PRESENTATION_STYLE_ASSIGNMENT((#144));
#146=STYLED_ITEM('',(#145),#143);
#147=DIRECTION('',(8.397953416396E-1,-1.391698181167E-1,-5.247623708745E-1));
#148=VECTOR('',#147,7.450246924445E-3);
#149=CARTESIAN_POINT('',(2.684653634446E-1,-1.523100398258E-1,
5.328004033067E-1));
#150=LINE('',#149,#148);
#151=CURVE_STYLE('',#21,POSITIVE_LENGTH_MEASURE(2.E-2),#5);
#152=PRESENTATION_STYLE_ASSIGNMENT((#151));
#153=STYLED_ITEM('',(#152),#150);
#154=CARTESIAN_POINT('',(2.633934679799E-1,-1.505377153900E-1,
5.394832400416E-1));
#155=CARTESIAN_POINT('',(2.638111029303E-1,-1.509142148877E-1,
5.380635876219E-1));
#156=CARTESIAN_POINT('',(2.651086078320E-1,-1.515795484239E-1,
5.355548396146E-1));
#157=CARTESIAN_POINT('',(2.671830358814E-1,-1.520975341296E-1,5.336016905E-1));
#158=CARTESIAN_POINT('',(2.684653634446E-1,-1.523100398258E-1,
5.328004033067E-1));
#160=CURVE_STYLE('',#21,POSITIVE_LENGTH_MEASURE(2.E-2),#5);
#161=PRESENTATION_STYLE_ASSIGNMENT((#160));
#162=STYLED_ITEM('',(#161),#159);
#163=DIRECTION('',(-1.E0,0.E0,4.228620340534E-14));
#164=VECTOR('',#163,7.876491161784E-3);
#165=CARTESIAN_POINT('',(2.707910766004E-1,-1.497193800428E-1,
5.426455798401E-1));
#166=LINE('',#165,#164);
#167=CURVE_STYLE('',#21,POSITIVE_LENGTH_MEASURE(2.E-2),#5);
#168=PRESENTATION_STYLE_ASSIGNMENT((#167));
#169=STYLED_ITEM('',(#168),#166);
#170=DIRECTION('',(9.999999547002E-1,-9.262404249580E-5,-2.863921638620E-4));
#171=VECTOR('',#170,9.240259438971E-3);
#172=CARTESIAN_POINT('',(2.633934679799E-1,-1.505377153900E-1,
5.394832400416E-1));
#173=LINE('',#172,#171);
#174=CURVE_STYLE('',#21,POSITIVE_LENGTH_MEASURE(2.E-2),#5);
#175=PRESENTATION_STYLE_ASSIGNMENT((#174));
#176=STYLED_ITEM('',(#175),#173);
#177=CARTESIAN_POINT('',(2.629145854386E-1,-1.497193800428E-1,
5.426455798401E-1));
#178=CARTESIAN_POINT('',(2.629186291461E-1,-1.497819366150E-1,
5.423661898326E-1));
#179=CARTESIAN_POINT('',(2.629461757018E-1,-1.499016408868E-1,
5.418350037840E-1));
#180=CARTESIAN_POINT('',(2.630282068337E-1,-1.500673409469E-1,
5.411281818176E-1));
#181=CARTESIAN_POINT('',(2.631372890310E-1,-1.502244070772E-1,
5.405017309760E-1));
#182=CARTESIAN_POINT('',(2.632612538830E-1,-1.503764741058E-1,
5.399545999014E-1));
#183=CARTESIAN_POINT('',(2.633496745464E-1,-1.504814405243E-1,
5.396321055851E-1));
#184=CARTESIAN_POINT('',(2.633934679799E-1,-1.505377153900E-1,
5.394832400416E-1));
#186=CURVE_STYLE('',#21,POSITIVE_LENGTH_MEASURE(2.E-2),#5);
#187=PRESENTATION_STYLE_ASSIGNMENT((#186));
#188=STYLED_ITEM('',(#187),#185);
#189=DIRECTION('',(-1.E0,-7.576568593667E-14,-4.821452741424E-13));
#190=VECTOR('',#189,8.059356369508E-3);
#191=CARTESIAN_POINT('',(2.710611071393E-1,-1.494470699958E-1,
5.442588556778E-1));
#192=LINE('',#191,#190);
#193=CURVE_STYLE('',#21,POSITIVE_LENGTH_MEASURE(2.E-2),#5);
#194=PRESENTATION_STYLE_ASSIGNMENT((#193));
#195=STYLED_ITEM('',(#194),#192);
#196=CARTESIAN_POINT('',(2.630017507697E-1,-1.494470699958E-1,
5.442588556778E-1));
#197=CARTESIAN_POINT('',(2.629800004454E-1,-1.494785874864E-1,
5.440820852370E-1));
#198=CARTESIAN_POINT('',(2.629443286583E-1,-1.495401081452E-1,
5.437263878480E-1));
#199=CARTESIAN_POINT('',(2.629149764878E-1,-1.496304264873E-1,
5.431855168981E-1));
#200=CARTESIAN_POINT('',(2.629119805801E-1,-1.496896788966E-1,
5.428255561231E-1));
#201=CARTESIAN_POINT('',(2.629145854386E-1,-1.497193800428E-1,
5.426455798401E-1));
#203=CURVE_STYLE('',#21,POSITIVE_LENGTH_MEASURE(2.E-2),#5);
#204=PRESENTATION_STYLE_ASSIGNMENT((#203));
#205=STYLED_ITEM('',(#204),#202);
#206=DIRECTION('',(-1.E0,0.E0,1.307313697516E-14));
#207=VECTOR('',#206,8.492399542167E-3);
#208=CARTESIAN_POINT('',(2.953595930172E-1,-1.403309654069E-1,
6.044001306981E-1));
#209=LINE('',#208,#207);
#210=CURVE_STYLE('',#21,POSITIVE_LENGTH_MEASURE(2.E-2),#5);
#211=PRESENTATION_STYLE_ASSIGNMENT((#210));
#212=STYLED_ITEM('',(#211),#209);
#213=CARTESIAN_POINT('',(2.637733632408E-1,-1.489950579099E-1,
5.472408950903E-1));
#214=CARTESIAN_POINT('',(2.633851495199E-1,-1.491407037189E-1,
5.462800324132E-1));
#215=CARTESIAN_POINT('',(2.631281300713E-1,-1.492913814988E-1,
5.452859725374E-1));
#216=CARTESIAN_POINT('',(2.630017507698E-1,-1.494470699958E-1,
5.442588556778E-1));
#218=CURVE_STYLE('',#21,POSITIVE_LENGTH_MEASURE(2.E-2),#5);
#219=PRESENTATION_STYLE_ASSIGNMENT((#218));
#220=STYLED_ITEM('',(#219),#217);
#221=DIRECTION('',(-3.709609477997E-1,-1.391731009600E-1,-9.181605650303E-1));
#222=VECTOR('',#221,6.225407383496E-2);
#223=CARTESIAN_POINT('',(2.868671934750E-1,-1.403309654069E-1,
6.044001306981E-1));
#224=LINE('',#223,#222);
#225=CURVE_STYLE('',#21,POSITIVE_LENGTH_MEASURE(2.E-2),#5);
#226=PRESENTATION_STYLE_ASSIGNMENT((#225));
#227=STYLED_ITEM('',(#226),#224);
#228=DIRECTION('',(3.746065934159E-1,0.E0,9.271838545668E-1));
#229=VECTOR('',#228,3.181308864850E-3);
#230=CARTESIAN_POINT('',(2.953595930172E-1,-1.403309654069E-1,
6.044001306981E-1));
#231=LINE('',#230,#229);
#232=CURVE_STYLE('',#21,POSITIVE_LENGTH_MEASURE(2.E-2),#5);
#233=PRESENTATION_STYLE_ASSIGNMENT((#232));
#234=STYLED_ITEM('',(#233),#231);
#235=DIRECTION('',(-3.746065934158E-1,0.E0,-9.271838545668E-1));
#236=VECTOR('',#235,3.181308864848E-3);
#237=CARTESIAN_POINT('',(2.880589327515E-1,-1.403309654069E-1,
6.073497889140E-1));
#238=LINE('',#237,#236);
#239=CURVE_STYLE('',#21,POSITIVE_LENGTH_MEASURE(2.E-2),#5);
#240=PRESENTATION_STYLE_ASSIGNMENT((#239));
#241=STYLED_ITEM('',(#240),#238);
#242=DIRECTION('',(1.E0,0.E0,1.568776437019E-13));
#243=VECTOR('',#242,8.492399542168E-3);
#244=CARTESIAN_POINT('',(2.880589327515E-1,-1.403309654069E-1,
6.073497889140E-1));
#245=LINE('',#244,#243);
#246=CURVE_STYLE('',#21,POSITIVE_LENGTH_MEASURE(2.E-2),#5);
#247=PRESENTATION_STYLE_ASSIGNMENT((#246));
#248=STYLED_ITEM('',(#247),#245);
#249=CARTESIAN_POINT('',(2.931372230219E-1,-1.247361926708E-1,
6.199189984001E-1));
#250=CARTESIAN_POINT('',(2.931372230219E-1,-1.258769889147E-1,
6.199189984001E-1));
#251=CARTESIAN_POINT('',(2.930478075975E-1,-1.279510900128E-1,
6.196976874585E-1));
#252=CARTESIAN_POINT('',(2.926327517613E-1,-1.315511244720E-1,
6.186703882150E-1));
#253=CARTESIAN_POINT('',(2.917671122822E-1,-1.352463612319E-1,
6.165278553204E-1));
#254=CARTESIAN_POINT('',(2.905167974820E-1,-1.380489464453E-1,
6.134332175958E-1));
#255=CARTESIAN_POINT('',(2.892390898947E-1,-1.396471695648E-1,
6.102707803439E-1));
#256=CARTESIAN_POINT('',(2.884821236074E-1,-1.401721972560E-1,
6.083972230378E-1));
#257=CARTESIAN_POINT('',(2.880589327515E-1,-1.403309654069E-1,
6.073497889140E-1));
#259=CURVE_STYLE('',#21,POSITIVE_LENGTH_MEASURE(2.E-2),#5);
#260=PRESENTATION_STYLE_ASSIGNMENT((#259));
#261=STYLED_ITEM('',(#260),#258);
#262=DIRECTION('',(-1.E0,-1.679104501646E-10,0.E0));
#263=VECTOR('',#262,9.322912678672E-5);
#264=CARTESIAN_POINT('',(2.932304521487E-1,-1.247361926708E-1,
6.199189984001E-1));
#265=LINE('',#264,#263);
#266=CURVE_STYLE('',#21,POSITIVE_LENGTH_MEASURE(2.E-2),#5);
#267=PRESENTATION_STYLE_ASSIGNMENT((#266));
#268=STYLED_ITEM('',(#267),#265);
#269=CARTESIAN_POINT('',(2.932304521487E-1,-1.247361926708E-1,
6.199189984001E-1));
#270=CARTESIAN_POINT('',(2.932304521487E-1,-1.259106463249E-1,
6.199189984001E-1));
#271=CARTESIAN_POINT('',(2.937872041285E-1,-1.279010893243E-1,
6.196940559989E-1));
#272=CARTESIAN_POINT('',(2.960132080167E-1,-1.311656931503E-1,
6.187946920493E-1));
#273=CARTESIAN_POINT('',(2.985339142727E-1,-1.330660994428E-1,
6.177762606142E-1));
#274=CARTESIAN_POINT('',(3.004509661423E-1,-1.341807144662E-1,
6.170017213826E-1));
#276=CURVE_STYLE('',#21,POSITIVE_LENGTH_MEASURE(2.E-2),#5);
#277=PRESENTATION_STYLE_ASSIGNMENT((#276));
#278=STYLED_ITEM('',(#277),#275);
#279=CARTESIAN_POINT('',(3.004509661412E-1,-1.341807144656E-1,
6.170017213831E-1));
#280=CARTESIAN_POINT('',(2.999606677581E-1,-1.359270688405E-1,
6.157881903009E-1));
#281=CARTESIAN_POINT('',(2.988013517573E-1,-1.386122609938E-1,
6.129187825084E-1));
#282=CARTESIAN_POINT('',(2.973609118598E-1,-1.400272361347E-1,
6.093535686548E-1));
#283=CARTESIAN_POINT('',(2.965513322937E-1,-1.403309654069E-1,
6.073497889140E-1));
#285=CURVE_STYLE('',#21,POSITIVE_LENGTH_MEASURE(2.E-2),#5);
#286=PRESENTATION_STYLE_ASSIGNMENT((#285));
#287=STYLED_ITEM('',(#286),#284);
#288=DIRECTION('',(-1.E0,0.E0,0.E0));
#289=VECTOR('',#288,8.492399542167E-3);
#290=CARTESIAN_POINT('',(2.953595930172E-1,-9.556017140508E-2,
6.044001306981E-1));
#291=LINE('',#290,#289);
#292=CURVE_STYLE('',#21,POSITIVE_LENGTH_MEASURE(2.E-2),#5);
#293=PRESENTATION_STYLE_ASSIGNMENT((#292));
#294=STYLED_ITEM('',(#293),#291);
#295=DIRECTION('',(-3.746065934159E-1,0.E0,-9.271838545668E-1));
#296=VECTOR('',#295,3.181308864846E-3);
#297=CARTESIAN_POINT('',(2.965513322937E-1,-9.556017140508E-2,
6.073497889140E-1));
#298=LINE('',#297,#296);
#299=CURVE_STYLE('',#21,POSITIVE_LENGTH_MEASURE(2.E-2),#5);
#300=PRESENTATION_STYLE_ASSIGNMENT((#299));
#301=STYLED_ITEM('',(#300),#298);
#302=DIRECTION('',(3.746065934157E-1,0.E0,9.271838545669E-1));
#303=VECTOR('',#302,3.181308864846E-3);
#304=CARTESIAN_POINT('',(2.868671934750E-1,-9.556017140508E-2,
6.044001306981E-1));
#305=LINE('',#304,#303);
#306=CURVE_STYLE('',#21,POSITIVE_LENGTH_MEASURE(2.E-2),#5);
#307=PRESENTATION_STYLE_ASSIGNMENT((#306));
#308=STYLED_ITEM('',(#307),#305);
#309=DIRECTION('',(3.709609477997E-1,-1.391731009601E-1,9.181605650303E-1));
#310=VECTOR('',#309,6.225407383497E-2);
#311=CARTESIAN_POINT('',(2.637733632408E-1,-8.689607890207E-2,
5.472408950903E-1));
#312=LINE('',#311,#310);
#313=CURVE_STYLE('',#21,POSITIVE_LENGTH_MEASURE(2.E-2),#5);
#314=PRESENTATION_STYLE_ASSIGNMENT((#313));
#315=STYLED_ITEM('',(#314),#312);
#316=CARTESIAN_POINT('',(2.630017507698E-1,-8.644406681614E-2,
5.442588556778E-1));
#317=CARTESIAN_POINT('',(2.631281300713E-1,-8.659975531315E-2,
5.452859725374E-1));
#318=CARTESIAN_POINT('',(2.633851495199E-1,-8.675043309298E-2,
5.462800324132E-1));
#319=CARTESIAN_POINT('',(2.637733632408E-1,-8.689607890207E-2,
5.472408950903E-1));
#321=CURVE_STYLE('',#21,POSITIVE_LENGTH_MEASURE(2.E-2),#5);
#322=PRESENTATION_STYLE_ASSIGNMENT((#321));
#323=STYLED_ITEM('',(#322),#320);
#324=CARTESIAN_POINT('',(2.707910314448E-1,-8.616607610725E-2,
5.426466220787E-1));
#325=CARTESIAN_POINT('',(2.707851387338E-1,-8.618908552176E-2,
5.427830500206E-1));
#326=CARTESIAN_POINT('',(2.707875519899E-1,-8.623518841031E-2,
5.430569165535E-1));
#327=CARTESIAN_POINT('',(2.708340360366E-1,-8.630457387383E-2,
5.434661404531E-1));
#328=CARTESIAN_POINT('',(2.709233734865E-1,-8.637428084072E-2,
5.438697261474E-1));
#329=CARTESIAN_POINT('',(2.710107140712E-1,-8.642078230217E-2,
5.441308770246E-1));
#330=CARTESIAN_POINT('',(2.710611071391E-1,-8.644406681611E-2,
5.442588556777E-1));
#332=CURVE_STYLE('',#21,POSITIVE_LENGTH_MEASURE(2.E-2),#5);
#333=PRESENTATION_STYLE_ASSIGNMENT((#332));
#334=STYLED_ITEM('',(#333),#331);
#335=CARTESIAN_POINT('',(2.726379560759E-1,-8.552726263133E-2,
5.394779473641E-1));
#336=CARTESIAN_POINT('',(2.725028182760E-1,-8.555347270448E-2,
5.395623908335E-1));
#337=CARTESIAN_POINT('',(2.722423516225E-1,-8.560607448547E-2,
5.397479623662E-1));
#338=CARTESIAN_POINT('',(2.718868192265E-1,-8.568581912951E-2,
5.400733288173E-1));
#339=CARTESIAN_POINT('',(2.715734714659E-1,-8.576606177413E-2,
5.404396421920E-1));
#340=CARTESIAN_POINT('',(2.713059895020E-1,-8.584716231728E-2,
5.408437484471E-1));
#341=CARTESIAN_POINT('',(2.710926407962E-1,-8.592752811935E-2,
5.412718126420E-1));
#342=CARTESIAN_POINT('',(2.709327799894E-1,-8.600788850790E-2,
5.417212640119E-1));
#343=CARTESIAN_POINT('',(2.708289404340E-1,-8.608794286008E-2,
5.421845689183E-1));
#344=CARTESIAN_POINT('',(2.707976608251E-1,-8.614018879571E-2,
5.424931387787E-1));
#345=CARTESIAN_POINT('',(2.707910314448E-1,-8.616607610725E-2,
5.426466220787E-1));
#347=CURVE_STYLE('',#21,POSITIVE_LENGTH_MEASURE(2.E-2),#5);
#348=PRESENTATION_STYLE_ASSIGNMENT((#347));
#349=STYLED_ITEM('',(#348),#346);
#350=DIRECTION('',(6.505138406259E-5,9.999999970557E-1,-4.070583500047E-5));
#351=VECTOR('',#350,6.501130882026E-2);
#352=CARTESIAN_POINT('',(2.726337270003E-1,-1.505385712602E-1,
5.394805937037E-1));
#353=LINE('',#352,#351);
#354=CURVE_STYLE('',#21,POSITIVE_LENGTH_MEASURE(2.E-2),#5);
#355=PRESENTATION_STYLE_ASSIGNMENT((#354));
#356=STYLED_ITEM('',(#355),#353);
#357=CARTESIAN_POINT('',(2.707910766004E-1,-1.497193800428E-1,
5.426455798401E-1));
#358=CARTESIAN_POINT('',(2.707974746520E-1,-1.497523438004E-1,
5.424983571877E-1));
#359=CARTESIAN_POINT('',(2.708269541976E-1,-1.498193332299E-1,
5.422000093725E-1));
#360=CARTESIAN_POINT('',(2.709262306347E-1,-1.499230333027E-1,
5.417451129283E-1));
#361=CARTESIAN_POINT('',(2.710822925382E-1,-1.500281528136E-1,
5.412958126619E-1));
#362=CARTESIAN_POINT('',(2.712969273184E-1,-1.501344079039E-1,
5.408590575601E-1));
#363=CARTESIAN_POINT('',(2.715638231117E-1,-1.502389086859E-1,
5.404523399722E-1));
#364=CARTESIAN_POINT('',(2.718795238962E-1,-1.503416755067E-1,
5.400803793368E-1));
#365=CARTESIAN_POINT('',(2.722387714039E-1,-1.504421539626E-1,
5.397510416786E-1));
#366=CARTESIAN_POINT('',(2.724964551896E-1,-1.505061454477E-1,
5.395663706511E-1));
#367=CARTESIAN_POINT('',(2.726337270003E-1,-1.505385712602E-1,
5.394805937037E-1));
#369=CURVE_STYLE('',#21,POSITIVE_LENGTH_MEASURE(2.E-2),#5);
#370=PRESENTATION_STYLE_ASSIGNMENT((#369));
#371=STYLED_ITEM('',(#370),#368);
#372=CARTESIAN_POINT('',(2.710611071393E-1,-1.494470699958E-1,
5.442588556778E-1));
#373=CARTESIAN_POINT('',(2.710107651026E-1,-1.494698649910E-1,
5.441310066242E-1));
#374=CARTESIAN_POINT('',(2.709234793889E-1,-1.495153894534E-1,
5.438700137930E-1));
#375=CARTESIAN_POINT('',(2.708341861432E-1,-1.495835230081E-1,
5.434670945129E-1));
#376=CARTESIAN_POINT('',(2.707874951338E-1,-1.496516209068E-1,
5.430566982534E-1));
#377=CARTESIAN_POINT('',(2.707851342518E-1,-1.496968146468E-1,
5.427823165186E-1));
#378=CARTESIAN_POINT('',(2.707910766004E-1,-1.497193800428E-1,
5.426455798401E-1));
#380=CURVE_STYLE('',#21,POSITIVE_LENGTH_MEASURE(2.E-2),#5);
#381=PRESENTATION_STYLE_ASSIGNMENT((#380));
#382=STYLED_ITEM('',(#381),#379);
#383=CARTESIAN_POINT('',(2.710740235074E-1,-1.494421617128E-1,
5.442912368767E-1));
#384=CARTESIAN_POINT('',(2.710696701091E-1,-1.494437949736E-1,
5.442804618377E-1));
#385=CARTESIAN_POINT('',(2.710653646563E-1,-1.494454310681E-1,
5.442696681035E-1));
#386=CARTESIAN_POINT('',(2.710611071393E-1,-1.494470699958E-1,
5.442588556778E-1));
#388=CURVE_STYLE('',#21,POSITIVE_LENGTH_MEASURE(2.E-2),#5);
#389=PRESENTATION_STYLE_ASSIGNMENT((#388));
#390=STYLED_ITEM('',(#389),#387);
#391=DIRECTION('',(0.E0,-1.E0,0.E0));
#392=VECTOR('',#391,6.299318661372E-2);
#393=CARTESIAN_POINT('',(2.710740235074E-1,-8.644897509911E-2,
5.442912368767E-1));
#394=LINE('',#393,#392);
#395=CURVE_STYLE('',#21,POSITIVE_LENGTH_MEASURE(2.E-2),#5);
#396=PRESENTATION_STYLE_ASSIGNMENT((#395));
#397=STYLED_ITEM('',(#396),#394);
#398=CARTESIAN_POINT('',(2.710611071393E-1,-8.644406681614E-2,
5.442588556778E-1));
#399=CARTESIAN_POINT('',(2.710653646563E-1,-8.644570574386E-2,
5.442696681035E-1));
#400=CARTESIAN_POINT('',(2.710696701091E-1,-8.644734183838E-2,
5.442804618377E-1));
#401=CARTESIAN_POINT('',(2.710740235074E-1,-8.644897509911E-2,
5.442912368767E-1));
#403=CURVE_STYLE('',#21,POSITIVE_LENGTH_MEASURE(2.E-2),#5);
#404=PRESENTATION_STYLE_ASSIGNMENT((#403));
#405=STYLED_ITEM('',(#404),#402);
#406=DIRECTION('',(-1.E0,1.186484927254E-11,-7.033632060584E-11));
#407=VECTOR('',#406,7.876461044822E-3);
#408=CARTESIAN_POINT('',(2.707910314448E-1,-8.616607610725E-2,
5.426466220787E-1));
#409=LINE('',#408,#407);
#410=CURVE_STYLE('',#21,POSITIVE_LENGTH_MEASURE(2.E-2),#5);
#411=PRESENTATION_STYLE_ASSIGNMENT((#410));
#412=STYLED_ITEM('',(#411),#409);
#413=DIRECTION('',(1.E0,2.161043996647E-12,-1.427150011491E-11));
#414=VECTOR('',#413,8.059356369344E-3);
#415=CARTESIAN_POINT('',(2.630017507698E-1,-8.644406681613E-2,
5.442588556778E-1));
#416=LINE('',#415,#414);
#417=CURVE_STYLE('',#21,POSITIVE_LENGTH_MEASURE(2.E-2),#5);
#418=PRESENTATION_STYLE_ASSIGNMENT((#417));
#419=STYLED_ITEM('',(#418),#416);
#420=CARTESIAN_POINT('',(2.726902755348E-1,-8.551698638816E-2,
5.394452545378E-1));
#421=CARTESIAN_POINT('',(2.726728418346E-1,-8.552045485223E-2,
5.394561483227E-1));
#422=CARTESIAN_POINT('',(2.726554017655E-1,-8.552387902733E-2,
5.394670460874E-1));
#423=CARTESIAN_POINT('',(2.726379560759E-1,-8.552726263133E-2,
5.394779473641E-1));
#425=CURVE_STYLE('',#21,POSITIVE_LENGTH_MEASURE(2.E-2),#5);
#426=PRESENTATION_STYLE_ASSIGNMENT((#425));
#427=STYLED_ITEM('',(#426),#424);
#428=DIRECTION('',(-1.E0,3.842501507007E-12,-1.498142166715E-11));
#429=VECTOR('',#428,9.285563685225E-3);
#430=CARTESIAN_POINT('',(2.726902755348E-1,-8.551698638816E-2,
5.394452545378E-1));
#431=LINE('',#430,#429);
#432=CURVE_STYLE('',#21,POSITIVE_LENGTH_MEASURE(2.E-2),#5);
#433=PRESENTATION_STYLE_ASSIGNMENT((#432));
#434=STYLED_ITEM('',(#433),#431);
#435=DIRECTION('',(-8.397949505365E-1,-1.391731009518E-1,5.247621261342E-1));
#436=VECTOR('',#435,2.011759827905E-2);
#437=CARTESIAN_POINT('',(2.895849329865E-1,-8.271715785196E-2,
5.288883008921E-1));
#438=LINE('',#437,#436);
#439=CURVE_STYLE('',#21,POSITIVE_LENGTH_MEASURE(2.E-2),#5);
#440=PRESENTATION_STYLE_ASSIGNMENT((#439));
#441=STYLED_ITEM('',(#440),#438);
#442=DIRECTION('',(8.397971203594E-1,-1.391573891143E-1,-5.247628204160E-1));
#443=VECTOR('',#442,2.018253925780E-2);
#444=CARTESIAN_POINT('',(2.726337270003E-1,-1.505385712602E-1,
5.394805937037E-1));
#445=LINE('',#444,#443);
#446=CURVE_STYLE('',#21,POSITIVE_LENGTH_MEASURE(2.E-2),#5);
#447=PRESENTATION_STYLE_ASSIGNMENT((#446));
#448=STYLED_ITEM('',(#447),#445);
#449=CARTESIAN_POINT('',(2.684653634446E-1,-8.375469352224E-2,
5.328004033067E-1));
#450=CARTESIAN_POINT('',(2.671895473456E-1,-8.396612523273E-2,
5.335976216856E-1));
#451=CARTESIAN_POINT('',(2.651225079646E-1,-8.448120998796E-2,
5.355397855768E-1));
#452=CARTESIAN_POINT('',(2.638249861944E-1,-8.514273921841E-2,
5.380341288306E-1));
#453=CARTESIAN_POINT('',(2.634047118495E-1,-8.551698638816E-2,
5.394452545378E-1));
#455=CURVE_STYLE('',#21,POSITIVE_LENGTH_MEASURE(2.E-2),#5);
#456=PRESENTATION_STYLE_ASSIGNMENT((#455));
#457=STYLED_ITEM('',(#456),#454);
#458=DIRECTION('',(-8.397949503708E-1,-1.391731010175E-1,5.247621263820E-1));
#459=VECTOR('',#458,7.517301733986E-3);
#460=CARTESIAN_POINT('',(2.747783554812E-1,-8.270848732863E-2,
5.288556080641E-1));
#461=LINE('',#460,#459);
#462=CURVE_STYLE('',#21,POSITIVE_LENGTH_MEASURE(2.E-2),#5);
#463=PRESENTATION_STYLE_ASSIGNMENT((#462));
#464=STYLED_ITEM('',(#463),#461);
#465=DIRECTION('',(6.043626410869E-7,9.999999998505E-1,-1.728064010954E-5));
#466=VECTOR('',#465,7.193449893025E-2);
#467=CARTESIAN_POINT('',(2.951298292298E-1,-1.539958691127E-1,
5.192854266500E-1));
#468=LINE('',#467,#466);
#469=CURVE_STYLE('',#21,POSITIVE_LENGTH_MEASURE(2.E-2),#5);
#470=PRESENTATION_STYLE_ASSIGNMENT((#469));
#471=STYLED_ITEM('',(#470),#468);
#472=DIRECTION('',(-2.785837421097E-5,-9.999999994562E-1,1.764955598954E-5));
#473=VECTOR('',#472,7.062996291544E-2);
#474=CARTESIAN_POINT('',(2.895849329865E-1,-8.271715785196E-2,
5.288883008921E-1));
#475=LINE('',#474,#473);
#476=CURVE_STYLE('',#21,POSITIVE_LENGTH_MEASURE(2.E-2),#5);
#477=PRESENTATION_STYLE_ASSIGNMENT((#476));
#478=STYLED_ITEM('',(#477),#475);
#479=CARTESIAN_POINT('',(2.896369509021E-1,-8.270848732863E-2,
5.288556080641E-1));
#480=CARTESIAN_POINT('',(2.896196413393E-1,-8.271138922905E-2,
5.288665498871E-1));
#481=CARTESIAN_POINT('',(2.896023020390E-1,-8.271427940539E-2,
5.288774475036E-1));
#482=CARTESIAN_POINT('',(2.895849329865E-1,-8.271715785195E-2,
5.288883008921E-1));
#484=CURVE_STYLE('',#21,POSITIVE_LENGTH_MEASURE(2.E-2),#5);
#485=PRESENTATION_STYLE_ASSIGNMENT((#484));
#486=STYLED_ITEM('',(#485),#483);
#487=CARTESIAN_POINT('',(2.951298727044E-1,-8.206137019323E-2,
5.192841835758E-1));
#488=CARTESIAN_POINT('',(2.951177932055E-1,-8.208083161223E-2,
5.196300951649E-1));
#489=CARTESIAN_POINT('',(2.950628173329E-1,-8.212062859039E-2,
5.203351770009E-1));
#490=CARTESIAN_POINT('',(2.948755944825E-1,-8.218309858239E-2,
5.214276672942E-1));
#491=CARTESIAN_POINT('',(2.945761978853E-1,-8.224751501718E-2,
5.225297251646E-1));
#492=CARTESIAN_POINT('',(2.941620094732E-1,-8.231329449141E-2,
5.236197739649E-1));
#493=CARTESIAN_POINT('',(2.936357761226E-1,-8.237977209093E-2,
5.246750399275E-1));
#494=CARTESIAN_POINT('',(2.930051953538E-1,-8.244630886128E-2,
5.256747131928E-1));
#495=CARTESIAN_POINT('',(2.922830024034E-1,-8.251221983367E-2,
5.266004689089E-1));
#496=CARTESIAN_POINT('',(2.914772631883E-1,-8.257770674394E-2,
5.274457854421E-1));
#497=CARTESIAN_POINT('',(2.905959023203E-1,-8.264303791097E-2,
5.282046587448E-1));
#498=CARTESIAN_POINT('',(2.899630221312E-1,-8.268662135203E-2,
5.286494899943E-1));
#499=CARTESIAN_POINT('',(2.896369509021E-1,-8.270848732863E-2,
5.288556080641E-1));
#501=CURVE_STYLE('',#21,POSITIVE_LENGTH_MEASURE(2.E-2),#5);
#502=PRESENTATION_STYLE_ASSIGNMENT((#501));
#503=STYLED_ITEM('',(#502),#500);
#504=DIRECTION('',(1.E0,0.E0,0.E0));
#505=VECTOR('',#504,1.485859542089E-2);
#506=CARTESIAN_POINT('',(2.747783554812E-1,-8.270848732863E-2,
5.288556080641E-1));
#507=LINE('',#506,#505);
#508=CURVE_STYLE('',#21,POSITIVE_LENGTH_MEASURE(2.E-2),#5);
#509=PRESENTATION_STYLE_ASSIGNMENT((#508));
#510=STYLED_ITEM('',(#509),#507);
#511=CARTESIAN_POINT('',(2.854123403544E-1,-8.222900113555E-2,
5.222107568281E-1));
#512=CARTESIAN_POINT('',(2.847314802698E-1,-8.225405277948E-2,
5.226362054279E-1));
#513=CARTESIAN_POINT('',(2.834194624621E-1,-8.230317106485E-2,
5.234560451451E-1));
#514=CARTESIAN_POINT('',(2.816011261826E-1,-8.237436879328E-2,
5.245922677577E-1));
#515=CARTESIAN_POINT('',(2.799307814108E-1,-8.244359482156E-2,
5.256360150127E-1));
#516=CARTESIAN_POINT('',(2.784158631481E-1,-8.251092079624E-2,
5.265826410057E-1));
#517=CARTESIAN_POINT('',(2.770480691873E-1,-8.257709090049E-2,
5.274373335315E-1));
#518=CARTESIAN_POINT('',(2.758249509563E-1,-8.264277626151E-2,
5.282016226279E-1));
#519=CARTESIAN_POINT('',(2.751106234411E-1,-8.268646158899E-2,
5.286479839994E-1));
#520=CARTESIAN_POINT('',(2.747783554812E-1,-8.270848732863E-2,
5.288556080641E-1));
#522=CURVE_STYLE('',#21,POSITIVE_LENGTH_MEASURE(2.E-2),#5);
#523=PRESENTATION_STYLE_ASSIGNMENT((#522));
#524=STYLED_ITEM('',(#523),#521);
#525=DIRECTION('',(-1.E0,0.E0,2.815575234552E-14));
#526=VECTOR('',#525,7.886296277938E-3);
#527=CARTESIAN_POINT('',(2.951310143568E-1,-8.205953102893E-2,
5.192514907477E-1));
#528=LINE('',#527,#526);
#529=CURVE_STYLE('',#21,POSITIVE_LENGTH_MEASURE(2.E-2),#5);
#530=PRESENTATION_STYLE_ASSIGNMENT((#529));
#531=STYLED_ITEM('',(#530),#528);
#532=DIRECTION('',(-3.455978185543E-2,-1.391500022985E-1,9.896680748304E-1));
#533=VECTOR('',#532,2.621509481809E-2);
#534=CARTESIAN_POINT('',(2.960370023151E-1,-7.841170052473E-2,
4.933072483276E-1));
#535=LINE('',#534,#533);
#536=CURVE_STYLE('',#21,POSITIVE_LENGTH_MEASURE(2.E-2),#5);
#537=PRESENTATION_STYLE_ASSIGNMENT((#536));
#538=STYLED_ITEM('',(#537),#535);
#539=DIRECTION('',(3.443412518680E-2,-1.627292243118E-1,-9.860697189233E-1));
#540=VECTOR('',#539,3.307400312829E-5);
#541=CARTESIAN_POINT('',(2.960358634407E-1,-1.578562096495E-1,
4.933398616006E-1));
#542=LINE('',#541,#540);
#543=CURVE_STYLE('',#21,POSITIVE_LENGTH_MEASURE(2.E-2),#5);
#544=PRESENTATION_STYLE_ASSIGNMENT((#543));
#545=STYLED_ITEM('',(#544),#542);
#546=DIRECTION('',(3.451977299702E-2,-1.470784186962E-1,-9.885222931356E-1));
#547=VECTOR('',#546,2.624681833645E-2);
#548=CARTESIAN_POINT('',(2.951298292298E-1,-1.539958691127E-1,
5.192854266500E-1));
#549=LINE('',#548,#547);
#550=CURVE_STYLE('',#21,POSITIVE_LENGTH_MEASURE(2.E-2),#5);
#551=PRESENTATION_STYLE_ASSIGNMENT((#550));
#552=STYLED_ITEM('',(#551),#549);
#553=CARTESIAN_POINT('',(2.951310143568E-1,-8.205953102893E-2,
5.192514907477E-1));
#554=CARTESIAN_POINT('',(2.951306338059E-1,-8.206014402618E-2,
5.192623883603E-1));
#555=CARTESIAN_POINT('',(2.951302532551E-1,-8.206075708027E-2,
5.192732859697E-1));
#556=CARTESIAN_POINT('',(2.951298727044E-1,-8.206137019323E-2,
5.192841835758E-1));
#558=CURVE_STYLE('',#21,POSITIVE_LENGTH_MEASURE(2.E-2),#5);
#559=PRESENTATION_STYLE_ASSIGNMENT((#558));
#560=STYLED_ITEM('',(#559),#557);
#561=DIRECTION('',(-3.469722275780E-2,-1.391493392383E-1,9.896633589875E-1));
#562=VECTOR('',#561,2.600360822228E-2);
#563=CARTESIAN_POINT('',(2.881629065810E-1,-7.840710531955E-2,
4.932745661300E-1));
#564=LINE('',#563,#562);
#565=CURVE_STYLE('',#21,POSITIVE_LENGTH_MEASURE(2.E-2),#5);
#566=PRESENTATION_STYLE_ASSIGNMENT((#565));
#567=STYLED_ITEM('',(#566),#564);
#568=DIRECTION('',(-1.E0,0.E0,0.E0));
#569=VECTOR('',#568,3.963072895797E-3);
#570=CARTESIAN_POINT('',(2.921259794768E-1,-7.840710531955E-2,
4.932745661300E-1));
#571=LINE('',#570,#569);
#572=CURVE_STYLE('',#21,POSITIVE_LENGTH_MEASURE(2.E-2),#5);
#573=PRESENTATION_STYLE_ASSIGNMENT((#572));
#574=STYLED_ITEM('',(#573),#571);
#575=DIRECTION('',(-9.999999991219E-1,-6.823609061858E-6,-4.134816166153E-5));
#576=VECTOR('',#575,3.911018066534E-3);
#577=CARTESIAN_POINT('',(2.960370023151E-1,-1.578615917563E-1,
4.933072483276E-1));
#578=LINE('',#577,#576);
#579=CURVE_STYLE('',#21,POSITIVE_LENGTH_MEASURE(2.E-2),#5);
#580=PRESENTATION_STYLE_ASSIGNMENT((#579));
#581=STYLED_ITEM('',(#580),#578);
#582=DIRECTION('',(0.E0,-1.E0,0.E0));
#583=VECTOR('',#582,7.944989123160E-2);
#584=CARTESIAN_POINT('',(2.960370023151E-1,-7.841170052473E-2,
4.933072483276E-1));
#585=LINE('',#584,#583);
#586=CURVE_STYLE('',#21,POSITIVE_LENGTH_MEASURE(2.E-2),#5);
#587=PRESENTATION_STYLE_ASSIGNMENT((#586));
#588=STYLED_ITEM('',(#587),#585);
#589=DIRECTION('',(9.999999991283E-1,-5.813663116656E-6,4.134816163341E-5));
#590=VECTOR('',#589,3.911018066509E-3);
#591=CARTESIAN_POINT('',(2.921259842520E-1,-7.841167778739E-2,
4.933070866142E-1));
#592=LINE('',#591,#590);
#593=CURVE_STYLE('',#21,POSITIVE_LENGTH_MEASURE(2.E-2),#5);
#594=PRESENTATION_STYLE_ASSIGNMENT((#593));
#595=STYLED_ITEM('',(#594),#592);
#596=DIRECTION('',(-5.219334419413E-11,1.E0,3.322945234938E-11));
#597=VECTOR('',#596,7.159937265159E-2);
#598=CARTESIAN_POINT('',(2.854123403581E-1,-1.538283737871E-1,
5.222107568257E-1));
#599=LINE('',#598,#597);
#600=CURVE_STYLE('',#21,POSITIVE_LENGTH_MEASURE(2.E-2),#5);
#601=PRESENTATION_STYLE_ASSIGNMENT((#600));
#602=STYLED_ITEM('',(#601),#599);
#603=CARTESIAN_POINT('',(2.854123403581E-1,-1.538283737871E-1,
5.222107568257E-1));
#604=CARTESIAN_POINT('',(2.855563743112E-1,-1.538336675403E-1,
5.221207544229E-1));
#605=CARTESIAN_POINT('',(2.858329892062E-1,-1.538453254639E-1,
5.219219142957E-1));
#606=CARTESIAN_POINT('',(2.862058721324E-1,-1.538656422288E-1,
5.215726981006E-1));
#607=CARTESIAN_POINT('',(2.865322258921E-1,-1.538885364870E-1,
5.211760628019E-1));
#608=CARTESIAN_POINT('',(2.868043329214E-1,-1.539135313332E-1,
5.207397190633E-1));
#609=CARTESIAN_POINT('',(2.870156738164E-1,-1.539398702573E-1,
5.202767730132E-1));
#610=CARTESIAN_POINT('',(2.871665428329E-1,-1.539675707021E-1,
5.197870998625E-1));
#611=CARTESIAN_POINT('',(2.872234327121E-1,-1.539863334537E-1,
5.194539568494E-1));
#612=CARTESIAN_POINT('',(2.872411516248E-1,-1.539957416378E-1,
5.192866697242E-1));
#614=CURVE_STYLE('',#21,POSITIVE_LENGTH_MEASURE(2.E-2),#5);
#615=PRESENTATION_STYLE_ASSIGNMENT((#614));
#616=STYLED_ITEM('',(#615),#613);
#617=CARTESIAN_POINT('',(2.872606535940E-1,-1.540369972389E-1,
5.190093843891E-1));
#618=CARTESIAN_POINT('',(2.872574180757E-1,-1.540232119437E-1,
5.191020375097E-1));
#619=CARTESIAN_POINT('',(2.872509177686E-1,-1.540094600731E-1,
5.191944659788E-1));
#620=CARTESIAN_POINT('',(2.872411516248E-1,-1.539957416378E-1,
5.192866697242E-1));
#622=CURVE_STYLE('',#21,POSITIVE_LENGTH_MEASURE(2.E-2),#5);
#623=PRESENTATION_STYLE_ASSIGNMENT((#622));
#624=STYLED_ITEM('',(#623),#621);
#625=DIRECTION('',(0.E0,-1.E0,-1.233384019426E-14));
#626=VECTOR('',#625,7.201150701738E-2);
#627=CARTESIAN_POINT('',(2.872606535940E-1,-8.202549022149E-2,
5.190093843891E-1));
#628=LINE('',#627,#626);
#629=CURVE_STYLE('',#21,POSITIVE_LENGTH_MEASURE(2.E-2),#5);
#630=PRESENTATION_STYLE_ASSIGNMENT((#629));
#631=STYLED_ITEM('',(#630),#628);
#632=CARTESIAN_POINT('',(2.872447180789E-1,-8.205953102893E-2,
5.192514907477E-1));
#633=CARTESIAN_POINT('',(2.872525181622E-1,-8.204820667462E-2,
5.191709492332E-1));
#634=CARTESIAN_POINT('',(2.872578298059E-1,-8.203685973704E-2,
5.190902471011E-1));
#635=CARTESIAN_POINT('',(2.872606535940E-1,-8.202549022149E-2,
5.190093843891E-1));
#637=CURVE_STYLE('',#21,POSITIVE_LENGTH_MEASURE(2.E-2),#5);
#638=PRESENTATION_STYLE_ASSIGNMENT((#637));
#639=STYLED_ITEM('',(#638),#636);
#640=CARTESIAN_POINT('',(2.872447180789E-1,-8.205953102893E-2,
5.192514907477E-1));
#641=CARTESIAN_POINT('',(2.872282069470E-1,-8.206912116028E-2,
5.194219801525E-1));
#642=CARTESIAN_POINT('',(2.871728588221E-1,-8.208821505853E-2,
5.197609216929E-1));
#643=CARTESIAN_POINT('',(2.870246016465E-1,-8.211609831546E-2,
5.202536821798E-1));
#644=CARTESIAN_POINT('',(2.868125022797E-1,-8.214293321218E-2,
5.207251583404E-1));
#645=CARTESIAN_POINT('',(2.865395105584E-1,-8.216819613247E-2,
5.211659165321E-1));
#646=CARTESIAN_POINT('',(2.862143707433E-1,-8.219118226168E-2,
5.215638749472E-1));
#647=CARTESIAN_POINT('',(2.858365198276E-1,-8.221188494925E-2,
5.219194271995E-1));
#648=CARTESIAN_POINT('',(2.855575978156E-1,-8.222365651589E-2,
5.221199898925E-1));
#649=CARTESIAN_POINT('',(2.854123403544E-1,-8.222900113555E-2,
5.222107568281E-1));
#651=CURVE_STYLE('',#21,POSITIVE_LENGTH_MEASURE(2.E-2),#5);
#652=PRESENTATION_STYLE_ASSIGNMENT((#651));
#653=STYLED_ITEM('',(#652),#650);
#654=DIRECTION('',(0.E0,1.E0,0.E0));
#655=VECTOR('',#654,6.209897900778E-2);
#656=CARTESIAN_POINT('',(2.637733632408E-1,-1.489950579099E-1,
5.472408950903E-1));
#657=LINE('',#656,#655);
#658=CURVE_STYLE('',#21,POSITIVE_LENGTH_MEASURE(2.E-2),#5);
#659=PRESENTATION_STYLE_ASSIGNMENT((#658));
#660=STYLED_ITEM('',(#659),#657);
#661=DIRECTION('',(0.E0,-1.E0,0.E0));
#662=VECTOR('',#661,6.855534630358E-2);
#663=CARTESIAN_POINT('',(2.684653634446E-1,-8.375469352224E-2,
5.328004033067E-1));
#664=LINE('',#663,#662);
#665=CURVE_STYLE('',#21,POSITIVE_LENGTH_MEASURE(2.E-2),#5);
#666=PRESENTATION_STYLE_ASSIGNMENT((#665));
#667=STYLED_ITEM('',(#666),#664);
#668=CARTESIAN_POINT('',(2.634047118496E-1,-8.551698638812E-2,
5.394452545376E-1));
#669=CARTESIAN_POINT('',(2.633592140793E-1,-8.556562501901E-2,
5.395980192115E-1));
#670=CARTESIAN_POINT('',(2.632681614125E-1,-8.565342720363E-2,
5.399266888786E-1));
#671=CARTESIAN_POINT('',(2.631422728309E-1,-8.577521498293E-2,
5.404767545571E-1));
#672=CARTESIAN_POINT('',(2.630313634150E-1,-8.589794769558E-2,
5.411058525466E-1));
#673=CARTESIAN_POINT('',(2.629471816919E-1,-8.602590257079E-2,
5.418201986257E-1));
#674=CARTESIAN_POINT('',(2.629186759390E-1,-8.611793855532E-2,
5.423612193125E-1));
#675=CARTESIAN_POINT('',(2.629145703999E-1,-8.616607610716E-2,
5.426466220782E-1));
#677=CURVE_STYLE('',#21,POSITIVE_LENGTH_MEASURE(2.E-2),#5);
#678=PRESENTATION_STYLE_ASSIGNMENT((#677));
#679=STYLED_ITEM('',(#678),#676);
#680=CARTESIAN_POINT('',(2.629145703999E-1,-8.616607610716E-2,
5.426466220782E-1));
#681=CARTESIAN_POINT('',(2.629119849681E-1,-8.619638871711E-2,
5.428263522920E-1));
#682=CARTESIAN_POINT('',(2.629149945946E-1,-8.625687902558E-2,
5.431859101068E-1));
#683=CARTESIAN_POINT('',(2.629443444534E-1,-8.634912156650E-2,
5.437265577489E-1));
#684=CARTESIAN_POINT('',(2.629800055326E-1,-8.641191261697E-2,
5.440821265819E-1));
#685=CARTESIAN_POINT('',(2.630017507698E-1,-8.644406681613E-2,
5.442588556778E-1));
#687=CURVE_STYLE('',#21,POSITIVE_LENGTH_MEASURE(2.E-2),#5);
#688=PRESENTATION_STYLE_ASSIGNMENT((#687));
#689=STYLED_ITEM('',(#688),#686);
#690=DIRECTION('',(3.709609477998E-1,-1.391731009601E-1,9.181605650302E-1));
#691=VECTOR('',#690,6.546664724092E-2);
#692=CARTESIAN_POINT('',(2.710740235074E-1,-8.644897509911E-2,
5.442912368767E-1));
#693=LINE('',#692,#691);
#694=CURVE_STYLE('',#21,POSITIVE_LENGTH_MEASURE(2.E-2),#5);
#695=PRESENTATION_STYLE_ASSIGNMENT((#694));
#696=STYLED_ITEM('',(#695),#693);
#697=DIRECTION('',(-3.709609477998E-1,-1.391731009600E-1,-9.181605650302E-1));
#698=VECTOR('',#697,6.546664724091E-2);
#699=CARTESIAN_POINT('',(2.953595930172E-1,-1.403309654069E-1,
6.044001306981E-1));
#700=LINE('',#699,#698);
#701=CURVE_STYLE('',#21,POSITIVE_LENGTH_MEASURE(2.E-2),#5);
#702=PRESENTATION_STYLE_ASSIGNMENT((#701));
#703=STYLED_ITEM('',(#702),#700);
#704=DIRECTION('',(-1.634935141944E-14,-1.E0,0.E0));
#705=VECTOR('',#704,1.358124852959E-2);
#706=CARTESIAN_POINT('',(2.932304521487E-1,-1.111549441412E-1,
6.199189984001E-1));
#707=LINE('',#706,#705);
#708=CURVE_STYLE('',#21,POSITIVE_LENGTH_MEASURE(2.E-2),#5);
#709=PRESENTATION_STYLE_ASSIGNMENT((#708));
#710=STYLED_ITEM('',(#709),#707);
#711=DIRECTION('',(1.699340557839E-12,1.E0,4.116712337300E-12));
#712=VECTOR('',#711,3.247029211969E-2);
#713=CARTESIAN_POINT('',(3.004509661411E-1,-1.341807144661E-1,
6.170017213829E-1));
#714=LINE('',#713,#712);
#715=CURVE_STYLE('',#21,POSITIVE_LENGTH_MEASURE(2.E-2),#5);
#716=PRESENTATION_STYLE_ASSIGNMENT((#715));
#717=STYLED_ITEM('',(#716),#714);
#718=DIRECTION('',(2.043668927427E-14,-1.E0,0.E0));
#719=VECTOR('',#718,1.358124852961E-2);
#720=CARTESIAN_POINT('',(2.931372230219E-1,-1.111549441412E-1,
6.199189984001E-1));
#721=LINE('',#720,#719);
#722=CURVE_STYLE('',#21,POSITIVE_LENGTH_MEASURE(2.E-2),#5);
#723=PRESENTATION_STYLE_ASSIGNMENT((#722));
#724=STYLED_ITEM('',(#723),#721);
#725=DIRECTION('',(1.E0,0.E0,0.E0));
#726=VECTOR('',#725,9.322912678728E-5);
#727=CARTESIAN_POINT('',(2.931372230219E-1,-1.111549441412E-1,
6.199189984001E-1));
#728=LINE('',#727,#726);
#729=CURVE_STYLE('',#21,POSITIVE_LENGTH_MEASURE(2.E-2),#5);
#730=PRESENTATION_STYLE_ASSIGNMENT((#729));
#731=STYLED_ITEM('',(#730),#728);
#732=CARTESIAN_POINT('',(2.880589327515E-1,-9.556017140508E-2,
6.073497889140E-1));
#733=CARTESIAN_POINT('',(2.884821236074E-1,-9.571893955591E-2,
6.083972230378E-1));
#734=CARTESIAN_POINT('',(2.892390898947E-1,-9.624396724716E-2,
6.102707803440E-1));
#735=CARTESIAN_POINT('',(2.905167974820E-1,-9.784219036663E-2,
6.134332175958E-1));
#736=CARTESIAN_POINT('',(2.917671122822E-1,-1.006447755800E-1,
6.165278553204E-1));
#737=CARTESIAN_POINT('',(2.926327517613E-1,-1.043400123400E-1,
6.186703882150E-1));
#738=CARTESIAN_POINT('',(2.930478075975E-1,-1.079400467992E-1,
6.196976874585E-1));
#739=CARTESIAN_POINT('',(2.931372230219E-1,-1.100141478973E-1,
6.199189984001E-1));
#740=CARTESIAN_POINT('',(2.931372230219E-1,-1.111549441412E-1,
6.199189984001E-1));
#742=CURVE_STYLE('',#21,POSITIVE_LENGTH_MEASURE(2.E-2),#5);
#743=PRESENTATION_STYLE_ASSIGNMENT((#742));
#744=STYLED_ITEM('',(#743),#741);
#745=DIRECTION('',(-1.E0,0.E0,5.229254790063E-14));
#746=VECTOR('',#745,8.492399542167E-3);
#747=CARTESIAN_POINT('',(2.965513322937E-1,-9.556017140508E-2,
6.073497889140E-1));
#748=LINE('',#747,#746);
#749=CURVE_STYLE('',#21,POSITIVE_LENGTH_MEASURE(2.E-2),#5);
#750=PRESENTATION_STYLE_ASSIGNMENT((#749));
#751=STYLED_ITEM('',(#750),#748);
#752=CARTESIAN_POINT('',(2.965513322937E-1,-9.556017140508E-2,
6.073497889140E-1));
#753=CARTESIAN_POINT('',(2.973609118598E-1,-9.586390067728E-2,
6.093535686548E-1));
#754=CARTESIAN_POINT('',(2.988013517574E-1,-9.727887581813E-2,
6.129187825084E-1));
#755=CARTESIAN_POINT('',(2.999606677581E-1,-9.996406797149E-2,
6.157881903009E-1));
#756=CARTESIAN_POINT('',(3.004509661412E-1,-1.017104223464E-1,
6.170017213831E-1));
#758=CURVE_STYLE('',#21,POSITIVE_LENGTH_MEASURE(2.E-2),#5);
#759=PRESENTATION_STYLE_ASSIGNMENT((#758));
#760=STYLED_ITEM('',(#759),#757);
#761=CARTESIAN_POINT('',(3.004509661412E-1,-1.017104223464E-1,
6.170017213831E-1));
#762=CARTESIAN_POINT('',(2.985339142718E-1,-1.028250373697E-1,
6.177762606146E-1));
#763=CARTESIAN_POINT('',(2.960132080162E-1,-1.047254436621E-1,
6.187946920495E-1));
#764=CARTESIAN_POINT('',(2.937872041284E-1,-1.079900474879E-1,
6.196940559990E-1));
#765=CARTESIAN_POINT('',(2.932304521487E-1,-1.099804904872E-1,
6.199189984001E-1));
#766=CARTESIAN_POINT('',(2.932304521487E-1,-1.111549441412E-1,
6.199189984001E-1));
#768=CURVE_STYLE('',#21,POSITIVE_LENGTH_MEASURE(2.E-2),#5);
#769=PRESENTATION_STYLE_ASSIGNMENT((#768));
#770=STYLED_ITEM('',(#769),#767);
#771=CARTESIAN_POINT('',(2.886034624437E-1,-7.643693639285E-2,
4.807086614173E-1));
#772=CARTESIAN_POINT('',(2.881629065810E-1,-7.840710531955E-2,
4.932745661300E-1));
#773=VERTEX_POINT('',#771);
#774=VERTEX_POINT('',#772);
#775=CARTESIAN_POINT('',(2.886034624437E-1,-1.599407127718E-1,
4.807086614173E-1));
#776=VERTEX_POINT('',#775);
#777=CARTESIAN_POINT('',(2.880589327515E-1,-1.403309654069E-1,
6.073497889140E-1));
#778=CARTESIAN_POINT('',(2.965513322937E-1,-1.403309654069E-1,
6.073497889140E-1));
#779=VERTEX_POINT('',#777);
#780=VERTEX_POINT('',#778);
#781=CARTESIAN_POINT('',(2.931372230219E-1,-1.111549441412E-1,
6.199189984001E-1));
#782=CARTESIAN_POINT('',(2.932304521487E-1,-1.111549441412E-1,
6.199189984001E-1));
#783=VERTEX_POINT('',#781);
#784=VERTEX_POINT('',#782);
#785=VERTEX_POINT('',#732);
#786=CARTESIAN_POINT('',(2.965513322937E-1,-9.556017140508E-2,
6.073497889140E-1));
#787=VERTEX_POINT('',#786);
#788=CARTESIAN_POINT('',(2.931372230219E-1,-1.247361926708E-1,
6.199189984001E-1));
#789=VERTEX_POINT('',#788);
#790=VERTEX_POINT('',#756);
#791=CARTESIAN_POINT('',(2.932304521487E-1,-1.247361926708E-1,
6.199189984001E-1));
#792=VERTEX_POINT('',#791);
#793=VERTEX_POINT('',#279);
#794=VERTEX_POINT('',#372);
#795=VERTEX_POINT('',#378);
#796=VERTEX_POINT('',#196);
#797=VERTEX_POINT('',#201);
#798=VERTEX_POINT('',#184);
#799=CARTESIAN_POINT('',(2.637733632408E-1,-8.689607890207E-2,
5.472408950903E-1));
#800=CARTESIAN_POINT('',(2.868671934750E-1,-9.556017140508E-2,
6.044001306981E-1));
#801=VERTEX_POINT('',#799);
#802=VERTEX_POINT('',#800);
#803=VERTEX_POINT('',#668);
#804=VERTEX_POINT('',#675);
#805=VERTEX_POINT('',#685);
#806=VERTEX_POINT('',#449);
#807=CARTESIAN_POINT('',(2.953595930172E-1,-1.403309654069E-1,
6.044001306981E-1));
#808=CARTESIAN_POINT('',(2.868671934750E-1,-1.403309654069E-1,
6.044001306981E-1));
#809=VERTEX_POINT('',#807);
#810=VERTEX_POINT('',#808);
#811=VERTEX_POINT('',#213);
#812=VERTEX_POINT('',#383);
#813=CARTESIAN_POINT('',(2.710611071391E-1,-8.644406681611E-2,
5.442588556777E-1));
#814=VERTEX_POINT('',#813);
#815=CARTESIAN_POINT('',(2.953595930172E-1,-9.556017140508E-2,
6.044001306981E-1));
#816=VERTEX_POINT('',#815);
#817=CARTESIAN_POINT('',(2.707910314448E-1,-8.616607610725E-2,
5.426466220787E-1));
#818=VERTEX_POINT('',#817);
#819=CARTESIAN_POINT('',(2.726902755348E-1,-8.551698638816E-2,
5.394452545378E-1));
#820=VERTEX_POINT('',#819);
#821=CARTESIAN_POINT('',(2.747783554812E-1,-8.270848732863E-2,
5.288556080641E-1));
#822=CARTESIAN_POINT('',(2.896369509021E-1,-8.270848732863E-2,
5.288556080641E-1));
#823=VERTEX_POINT('',#821);
#824=VERTEX_POINT('',#822);
#825=CARTESIAN_POINT('',(2.951310143568E-1,-8.205953102893E-2,
5.192514907477E-1));
#826=CARTESIAN_POINT('',(2.872447180789E-1,-8.205953102893E-2,
5.192514907477E-1));
#827=VERTEX_POINT('',#825);
#828=VERTEX_POINT('',#826);
#829=CARTESIAN_POINT('',(2.921259794768E-1,-7.840710531955E-2,
4.932745661300E-1));
#830=VERTEX_POINT('',#829);
#831=CARTESIAN_POINT('',(2.921241343412E-1,-7.643693639285E-2,
4.807086614173E-1));
#832=VERTEX_POINT('',#831);
#833=CARTESIAN_POINT('',(2.960358634407E-1,-1.578562096495E-1,
4.933398616006E-1));
#834=CARTESIAN_POINT('',(2.881606173465E-1,-1.578562096495E-1,
4.933398616006E-1));
#835=VERTEX_POINT('',#833);
#836=VERTEX_POINT('',#834);
#837=CARTESIAN_POINT('',(2.872411516248E-1,-1.539957416378E-1,
5.192866697242E-1));
#838=CARTESIAN_POINT('',(2.951298292298E-1,-1.539958691127E-1,
5.192854266500E-1));
#839=VERTEX_POINT('',#837);
#840=VERTEX_POINT('',#838);
#841=CARTESIAN_POINT('',(2.895829653505E-1,-1.533471207290E-1,
5.288895474796E-1));
#842=CARTESIAN_POINT('',(2.747220461058E-1,-1.533468893352E-1,
5.288907940670E-1));
#843=VERTEX_POINT('',#841);
#844=VERTEX_POINT('',#842);
#845=VERTEX_POINT('',#603);
#846=VERTEX_POINT('',#511);
#847=VERTEX_POINT('',#617);
#848=VERTEX_POINT('',#487);
#849=CARTESIAN_POINT('',(2.872606535940E-1,-8.202549022149E-2,
5.190093843891E-1));
#850=VERTEX_POINT('',#849);
#851=CARTESIAN_POINT('',(2.921259842520E-1,-7.841167778739E-2,
4.933070866142E-1));
#852=CARTESIAN_POINT('',(2.921259842520E-1,-1.578616184436E-1,
4.933070866142E-1));
#853=VERTEX_POINT('',#851);
#854=VERTEX_POINT('',#852);
#855=CARTESIAN_POINT('',(2.960370023151E-1,-7.841170052473E-2,
4.933072483276E-1));
#856=CARTESIAN_POINT('',(2.960370023151E-1,-1.578615917563E-1,
4.933072483276E-1));
#857=VERTEX_POINT('',#855);
#858=VERTEX_POINT('',#856);
#859=CARTESIAN_POINT('',(2.684653634446E-1,-1.523100398258E-1,
5.328004033067E-1));
#860=VERTEX_POINT('',#859);
#861=CARTESIAN_POINT('',(2.921241343412E-1,-1.599407127718E-1,
4.807086614173E-1));
#862=VERTEX_POINT('',#861);
#863=CARTESIAN_POINT('',(2.710740235074E-1,-8.644897509911E-2,
5.442912368767E-1));
#864=VERTEX_POINT('',#863);
#865=CARTESIAN_POINT('',(2.726337270003E-1,-1.505385712602E-1,
5.394805937037E-1));
#866=CARTESIAN_POINT('',(2.726379560759E-1,-8.552726263133E-2,
5.394779473641E-1));
#867=VERTEX_POINT('',#865);
#868=VERTEX_POINT('',#866);
#869=CARTESIAN_POINT('',(2.895849329865E-1,-8.271715785196E-2,
5.288883008921E-1));
#870=VERTEX_POINT('',#869);
#871=CARTESIAN_POINT('',(2.921094505659E-1,-6.889763779527E-2,
3.807079205575E-1));
#872=DIRECTION('',(9.999999892195E-1,0.E0,-1.468366636765E-4));
#873=DIRECTION('',(-1.468366636765E-4,0.E0,-9.999999892195E-1));
#874=AXIS2_PLACEMENT_3D('',#871,#872,#873);
#875=PLANE('',#874);
#877=ORIENTED_EDGE('',*,*,#876,.F.);
#879=ORIENTED_EDGE('',*,*,#878,.F.);
#881=ORIENTED_EDGE('',*,*,#880,.F.);
#883=ORIENTED_EDGE('',*,*,#882,.F.);
#885=ORIENTED_EDGE('',*,*,#884,.F.);
#886=EDGE_LOOP('',(#877,#879,#881,#883,#885));
#887=FACE_OUTER_BOUND('',#886,.F.);
#889=CARTESIAN_POINT('',(2.086614173228E-1,-7.840710531955E-2,
4.932745661300E-1));
#890=DIRECTION('',(0.E0,9.879309989354E-1,1.548946136651E-1));
#891=DIRECTION('',(0.E0,-1.548946136651E-1,9.879309989354E-1));
#892=AXIS2_PLACEMENT_3D('',#889,#890,#891);
#893=PLANE('',#892);
#895=ORIENTED_EDGE('',*,*,#894,.F.);
#896=ORIENTED_EDGE('',*,*,#876,.T.);
#898=ORIENTED_EDGE('',*,*,#897,.T.);
#900=ORIENTED_EDGE('',*,*,#899,.F.);
#901=EDGE_LOOP('',(#895,#896,#898,#900));
#902=FACE_OUTER_BOUND('',#901,.F.);
#904=CARTESIAN_POINT('',(2.086614173228E-1,-1.599407127718E-1,
4.807086614173E-1));
#905=DIRECTION('',(0.E0,0.E0,-1.E0));
#906=DIRECTION('',(0.E0,1.E0,0.E0));
#907=AXIS2_PLACEMENT_3D('',#904,#905,#906);
#908=PLANE('',#907);
#910=ORIENTED_EDGE('',*,*,#909,.F.);
#911=ORIENTED_EDGE('',*,*,#878,.T.);
#912=ORIENTED_EDGE('',*,*,#894,.T.);
#914=ORIENTED_EDGE('',*,*,#913,.F.);
#915=EDGE_LOOP('',(#910,#911,#912,#914));
#916=FACE_OUTER_BOUND('',#915,.F.);
#918=CARTESIAN_POINT('',(2.086614173228E-1,-1.578562096495E-1,
4.933398616005E-1));
#919=DIRECTION('',(0.E0,-9.866548351672E-1,1.628257849394E-1));
#920=DIRECTION('',(0.E0,-1.628257849394E-1,-9.866548351672E-1));
#921=AXIS2_PLACEMENT_3D('',#918,#919,#920);
#922=PLANE('',#921);
#924=ORIENTED_EDGE('',*,*,#923,.F.);
#926=ORIENTED_EDGE('',*,*,#925,.T.);
#928=ORIENTED_EDGE('',*,*,#927,.T.);
#929=ORIENTED_EDGE('',*,*,#880,.T.);
#930=ORIENTED_EDGE('',*,*,#909,.T.);
#932=ORIENTED_EDGE('',*,*,#931,.F.);
#933=EDGE_LOOP('',(#924,#926,#928,#929,#930,#932));
#934=FACE_OUTER_BOUND('',#933,.F.);
#936=CARTESIAN_POINT('',(2.086614173228E-1,-1.539957416378E-1,
5.192866697242E-1));
#937=DIRECTION('',(0.E0,-9.891121078274E-1,1.471639838728E-1));
#938=DIRECTION('',(0.E0,-1.471639838728E-1,-9.891121078274E-1));
#939=AXIS2_PLACEMENT_3D('',#936,#937,#938);
#940=PLANE('',#939);
#942=ORIENTED_EDGE('',*,*,#941,.T.);
#944=ORIENTED_EDGE('',*,*,#943,.T.);
#945=ORIENTED_EDGE('',*,*,#923,.T.);
#947=ORIENTED_EDGE('',*,*,#946,.F.);
#949=ORIENTED_EDGE('',*,*,#948,.T.);
#950=EDGE_LOOP('',(#942,#944,#945,#947,#949));
#951=FACE_OUTER_BOUND('',#950,.F.);
#953=CARTESIAN_POINT('',(2.086614173228E-1,-1.533300303703E-1,
5.290463000545E-1));
#954=CARTESIAN_POINT('',(2.086614173228E-1,-1.535548774176E-1,
5.270184379693E-1));
#955=CARTESIAN_POINT('',(2.086614173228E-1,-1.537797043311E-1,
5.231312276171E-1));
#956=CARTESIAN_POINT('',(2.086614173228E-1,-1.540045300136E-1,
5.191303377840E-1));
#958=DIRECTION('',(1.E0,0.E0,0.E0));
#959=VECTOR('',#958,1.E0);
#960=SURFACE_OF_LINEAR_EXTRUSION('',#957,#959);
#962=ORIENTED_EDGE('',*,*,#961,.F.);
#964=ORIENTED_EDGE('',*,*,#963,.T.);
#965=ORIENTED_EDGE('',*,*,#941,.F.);
#967=ORIENTED_EDGE('',*,*,#966,.F.);
#969=ORIENTED_EDGE('',*,*,#968,.F.);
#970=EDGE_LOOP('',(#962,#964,#965,#967,#969));
#971=FACE_OUTER_BOUND('',#970,.F.);
#973=CARTESIAN_POINT('',(2.086614173228E-1,-1.505377153900E-1,
5.394832400416E-1));
#974=DIRECTION('',(0.E0,-9.665856827872E-1,2.563437493500E-1));
#975=DIRECTION('',(0.E0,-2.563437493500E-1,-9.665856827872E-1));
#976=AXIS2_PLACEMENT_3D('',#973,#974,#975);
#977=PLANE('',#976);
#979=ORIENTED_EDGE('',*,*,#978,.T.);
#981=ORIENTED_EDGE('',*,*,#980,.T.);
#982=ORIENTED_EDGE('',*,*,#961,.T.);
#984=ORIENTED_EDGE('',*,*,#983,.F.);
#986=ORIENTED_EDGE('',*,*,#985,.F.);
#987=EDGE_LOOP('',(#979,#981,#982,#984,#986));
#988=FACE_OUTER_BOUND('',#987,.F.);
#990=CARTESIAN_POINT('',(2.086614173228E-1,-1.496861111243E-1,
5.427942898315E-1));
#991=CARTESIAN_POINT('',(2.086614173228E-1,-1.500007928330E-1,
5.413867278667E-1));
#992=CARTESIAN_POINT('',(2.086614173228E-1,-1.503134202870E-1,
5.400091266127E-1));
#993=CARTESIAN_POINT('',(2.086614173228E-1,-1.505886274063E-1,
5.393552987931E-1));
#995=DIRECTION('',(1.E0,0.E0,0.E0));
#996=VECTOR('',#995,1.E0);
#997=SURFACE_OF_LINEAR_EXTRUSION('',#994,#996);
#999=ORIENTED_EDGE('',*,*,#998,.F.);
#1001=ORIENTED_EDGE('',*,*,#1000,.T.);
#1002=ORIENTED_EDGE('',*,*,#978,.F.);
#1004=ORIENTED_EDGE('',*,*,#1003,.F.);
#1005=EDGE_LOOP('',(#999,#1001,#1002,#1004));
#1006=FACE_OUTER_BOUND('',#1005,.F.);
#1008=CARTESIAN_POINT('',(2.086614173228E-1,-1.494284998994E-1,
5.443623671320E-1));
#1009=CARTESIAN_POINT('',(2.086614173228E-1,-1.495314518281E-1,
5.437921450694E-1));
#1010=CARTESIAN_POINT('',(2.086614173228E-1,-1.496339923531E-1,
5.431622324970E-1));
#1011=CARTESIAN_POINT('',(2.086614173228E-1,-1.497364968022E-1,
5.425419221074E-1));
#1013=DIRECTION('',(1.E0,0.E0,0.E0));
#1014=VECTOR('',#1013,1.E0);
#1015=SURFACE_OF_LINEAR_EXTRUSION('',#1012,#1014);
#1017=ORIENTED_EDGE('',*,*,#1016,.F.);
#1019=ORIENTED_EDGE('',*,*,#1018,.T.);
#1020=ORIENTED_EDGE('',*,*,#998,.T.);
#1022=ORIENTED_EDGE('',*,*,#1021,.F.);
#1023=EDGE_LOOP('',(#1017,#1019,#1020,#1022));
#1024=FACE_OUTER_BOUND('',#1023,.F.);
#1026=CARTESIAN_POINT('',(2.086614173228E-1,-1.403309654069E-1,
6.044001306981E-1));
#1027=DIRECTION('',(0.E0,-9.887062733492E-1,1.498662905393E-1));
#1028=DIRECTION('',(0.E0,-1.498662905393E-1,-9.887062733492E-1));
#1029=AXIS2_PLACEMENT_3D('',#1026,#1027,#1028);
#1030=PLANE('',#1029);
#1032=ORIENTED_EDGE('',*,*,#1031,.F.);
#1034=ORIENTED_EDGE('',*,*,#1033,.T.);
#1036=ORIENTED_EDGE('',*,*,#1035,.T.);
#1037=ORIENTED_EDGE('',*,*,#1016,.T.);
#1039=ORIENTED_EDGE('',*,*,#1038,.F.);
#1041=ORIENTED_EDGE('',*,*,#1040,.F.);
#1042=EDGE_LOOP('',(#1032,#1034,#1036,#1037,#1039,#1041));
#1043=FACE_OUTER_BOUND('',#1042,.F.);
#1045=CARTESIAN_POINT('',(2.086614173228E-1,-1.403309654069E-1,
6.073497889140E-1));
#1046=DIRECTION('',(0.E0,-1.E0,0.E0));
#1047=DIRECTION('',(1.E0,0.E0,0.E0));
#1048=AXIS2_PLACEMENT_3D('',#1045,#1046,#1047);
#1049=PLANE('',#1048);
#1051=ORIENTED_EDGE('',*,*,#1050,.T.);
#1053=ORIENTED_EDGE('',*,*,#1052,.F.);
#1054=ORIENTED_EDGE('',*,*,#1031,.T.);
#1056=ORIENTED_EDGE('',*,*,#1055,.F.);
#1057=EDGE_LOOP('',(#1051,#1053,#1054,#1056));
#1058=FACE_OUTER_BOUND('',#1057,.F.);
#1060=CARTESIAN_POINT('',(2.086614173228E-1,-1.247361926708E-1,
6.053176778557E-1));
#1061=DIRECTION('',(1.E0,0.E0,0.E0));
#1062=DIRECTION('',(0.E0,1.E0,0.E0));
#1063=AXIS2_PLACEMENT_3D('',#1060,#1061,#1062);
#1066=DIRECTION('',(1.E0,0.E0,0.E0));
#1067=VECTOR('',#1066,1.E0);
#1068=SURFACE_OF_LINEAR_EXTRUSION('',#1065,#1067);
#1069=ORIENTED_EDGE('',*,*,#1050,.F.);
#1071=ORIENTED_EDGE('',*,*,#1070,.F.);
#1073=ORIENTED_EDGE('',*,*,#1072,.F.);
#1075=ORIENTED_EDGE('',*,*,#1074,.T.);
#1077=ORIENTED_EDGE('',*,*,#1076,.T.);
#1078=EDGE_LOOP('',(#1069,#1071,#1073,#1075,#1077));
#1079=FACE_OUTER_BOUND('',#1078,.F.);
#1081=CARTESIAN_POINT('',(2.880720156042E-1,-6.889763779528E-2,
6.073821701106E-1));
#1082=DIRECTION('',(-9.271838545668E-1,0.E0,3.746065934158E-1));
#1083=DIRECTION('',(3.746065934158E-1,0.E0,9.271838545668E-1));
#1084=AXIS2_PLACEMENT_3D('',#1081,#1082,#1083);
#1085=PLANE('',#1084);
#1087=ORIENTED_EDGE('',*,*,#1086,.T.);
#1089=ORIENTED_EDGE('',*,*,#1088,.T.);
#1091=ORIENTED_EDGE('',*,*,#1090,.T.);
#1092=ORIENTED_EDGE('',*,*,#1070,.T.);
#1093=ORIENTED_EDGE('',*,*,#1055,.T.);
#1094=ORIENTED_EDGE('',*,*,#1040,.T.);
#1096=ORIENTED_EDGE('',*,*,#1095,.T.);
#1098=ORIENTED_EDGE('',*,*,#1097,.T.);
#1099=EDGE_LOOP('',(#1087,#1089,#1091,#1092,#1093,#1094,#1096,#1098));
#1100=FACE_OUTER_BOUND('',#1099,.F.);
#1102=CARTESIAN_POINT('',(2.086614173228E-1,-9.556017140508E-2,
6.044001306981E-1));
#1103=DIRECTION('',(0.E0,1.E0,0.E0));
#1104=DIRECTION('',(-1.E0,0.E0,0.E0));
#1105=AXIS2_PLACEMENT_3D('',#1102,#1103,#1104);
#1106=PLANE('',#1105);
#1108=ORIENTED_EDGE('',*,*,#1107,.F.);
#1110=ORIENTED_EDGE('',*,*,#1109,.F.);
#1112=ORIENTED_EDGE('',*,*,#1111,.T.);
#1113=ORIENTED_EDGE('',*,*,#1086,.F.);
#1114=EDGE_LOOP('',(#1108,#1110,#1112,#1113));
#1115=FACE_OUTER_BOUND('',#1114,.F.);
#1117=CARTESIAN_POINT('',(2.086614173228E-1,-8.644406681614E-2,
5.442588556778E-1));
#1118=DIRECTION('',(0.E0,9.887062733491E-1,1.498662905394E-1));
#1119=DIRECTION('',(0.E0,-1.498662905394E-1,9.887062733491E-1));
#1120=AXIS2_PLACEMENT_3D('',#1117,#1118,#1119);
#1121=PLANE('',#1120);
#1123=ORIENTED_EDGE('',*,*,#1122,.T.);
#1125=ORIENTED_EDGE('',*,*,#1124,.T.);
#1126=ORIENTED_EDGE('',*,*,#1107,.T.);
#1127=ORIENTED_EDGE('',*,*,#1097,.F.);
#1129=ORIENTED_EDGE('',*,*,#1128,.F.);
#1131=ORIENTED_EDGE('',*,*,#1130,.T.);
#1132=EDGE_LOOP('',(#1123,#1125,#1126,#1127,#1129,#1131));
#1133=FACE_OUTER_BOUND('',#1132,.F.);
#1135=CARTESIAN_POINT('',(2.747241173237E-1,-6.889763779527E-2,
5.428165032482E-1));
#1136=DIRECTION('',(0.E0,-1.E0,0.E0));
#1137=DIRECTION('',(0.E0,0.E0,-1.E0));
#1138=AXIS2_PLACEMENT_3D('',#1135,#1136,#1137);
#1139=CYLINDRICAL_SURFACE('',#1138,3.936752994906E-3);
#1141=ORIENTED_EDGE('',*,*,#1140,.F.);
#1143=ORIENTED_EDGE('',*,*,#1142,.F.);
#1145=ORIENTED_EDGE('',*,*,#1144,.F.);
#1146=ORIENTED_EDGE('',*,*,#1000,.F.);
#1147=ORIENTED_EDGE('',*,*,#1018,.F.);
#1148=ORIENTED_EDGE('',*,*,#1035,.F.);
#1150=ORIENTED_EDGE('',*,*,#1149,.F.);
#1151=ORIENTED_EDGE('',*,*,#1122,.F.);
#1152=EDGE_LOOP('',(#1141,#1143,#1145,#1146,#1147,#1148,#1150,#1151));
#1153=FACE_OUTER_BOUND('',#1152,.F.);
#1155=CARTESIAN_POINT('',(2.086614173228E-1,-8.614857598271E-2,
5.425429213041E-1));
#1156=CARTESIAN_POINT('',(2.086614173228E-1,-8.625320143694E-2,
5.431624627322E-1));
#1157=CARTESIAN_POINT('',(2.086614173228E-1,-8.635789676380E-2,
5.437915981110E-1));
#1158=CARTESIAN_POINT('',(2.086614173228E-1,-8.646279241499E-2,
5.443611619774E-1));
#1160=DIRECTION('',(1.E0,0.E0,0.E0));
#1161=VECTOR('',#1160,1.E0);
#1162=SURFACE_OF_LINEAR_EXTRUSION('',#1159,#1161);
#1164=ORIENTED_EDGE('',*,*,#1163,.F.);
#1165=ORIENTED_EDGE('',*,*,#1140,.T.);
#1166=ORIENTED_EDGE('',*,*,#1130,.F.);
#1168=ORIENTED_EDGE('',*,*,#1167,.F.);
#1169=EDGE_LOOP('',(#1164,#1165,#1166,#1168));
#1170=FACE_OUTER_BOUND('',#1169,.F.);
#1172=CARTESIAN_POINT('',(2.086614173228E-1,-8.546799335565E-2,
5.393011174626E-1));
#1173=CARTESIAN_POINT('',(2.086614173228E-1,-8.570974724905E-2,
5.399632323760E-1));
#1174=CARTESIAN_POINT('',(2.086614173228E-1,-8.595037108968E-2,
5.413650680445E-1));
#1175=CARTESIAN_POINT('',(2.086614173228E-1,-8.619146045365E-2,
5.427972876025E-1));
#1177=DIRECTION('',(1.E0,0.E0,0.E0));
#1178=VECTOR('',#1177,1.E0);
#1179=SURFACE_OF_LINEAR_EXTRUSION('',#1176,#1178);
#1181=ORIENTED_EDGE('',*,*,#1180,.T.);
#1182=ORIENTED_EDGE('',*,*,#1142,.T.);
#1183=ORIENTED_EDGE('',*,*,#1163,.T.);
#1185=ORIENTED_EDGE('',*,*,#1184,.F.);
#1187=ORIENTED_EDGE('',*,*,#1186,.F.);
#1188=EDGE_LOOP('',(#1181,#1182,#1183,#1185,#1187));
#1189=FACE_OUTER_BOUND('',#1188,.F.);
#1191=CARTESIAN_POINT('',(2.895849329864E-1,-6.889763779527E-2,
5.288883008922E-1));
#1192=DIRECTION('',(5.299192639831E-1,0.E0,8.480480963127E-1));
#1193=DIRECTION('',(8.480480963127E-1,0.E0,-5.299192639831E-1));
#1194=AXIS2_PLACEMENT_3D('',#1191,#1192,#1193);
#1195=PLANE('',#1194);
#1197=ORIENTED_EDGE('',*,*,#1196,.F.);
#1199=ORIENTED_EDGE('',*,*,#1198,.T.);
#1200=ORIENTED_EDGE('',*,*,#980,.F.);
#1201=ORIENTED_EDGE('',*,*,#1144,.T.);
#1202=ORIENTED_EDGE('',*,*,#1180,.F.);
#1203=EDGE_LOOP('',(#1197,#1199,#1200,#1201,#1202));
#1204=FACE_OUTER_BOUND('',#1203,.F.);
#1206=CARTESIAN_POINT('',(2.086614173228E-1,-8.270848732863E-2,
5.288556080641E-1));
#1207=DIRECTION('',(0.E0,9.665841548797E-1,2.563495105039E-1));
#1208=DIRECTION('',(0.E0,-2.563495105039E-1,9.665841548797E-1));
#1209=AXIS2_PLACEMENT_3D('',#1206,#1207,#1208);
#1210=PLANE('',#1209);
#1212=ORIENTED_EDGE('',*,*,#1211,.T.);
#1213=ORIENTED_EDGE('',*,*,#1196,.T.);
#1214=ORIENTED_EDGE('',*,*,#1186,.T.);
#1216=ORIENTED_EDGE('',*,*,#1215,.F.);
#1218=ORIENTED_EDGE('',*,*,#1217,.F.);
#1220=ORIENTED_EDGE('',*,*,#1219,.T.);
#1221=EDGE_LOOP('',(#1212,#1213,#1214,#1216,#1218,#1220));
#1222=FACE_OUTER_BOUND('',#1221,.F.);
#1224=CARTESIAN_POINT('',(2.833260440388E-1,-6.889763779527E-2,
5.188719847959E-1));
#1225=DIRECTION('',(0.E0,-1.E0,0.E0));
#1226=DIRECTION('',(0.E0,0.E0,-1.E0));
#1227=AXIS2_PLACEMENT_3D('',#1224,#1225,#1226);
#1228=CYLINDRICAL_SURFACE('',#1227,1.181102362198E-2);
#1230=ORIENTED_EDGE('',*,*,#1229,.F.);
#1232=ORIENTED_EDGE('',*,*,#1231,.F.);
#1233=ORIENTED_EDGE('',*,*,#963,.F.);
#1234=ORIENTED_EDGE('',*,*,#1198,.F.);
#1235=ORIENTED_EDGE('',*,*,#1211,.F.);
#1236=EDGE_LOOP('',(#1230,#1232,#1233,#1234,#1235));
#1237=FACE_OUTER_BOUND('',#1236,.F.);
#1239=CARTESIAN_POINT('',(2.086614173228E-1,-8.205074874597E-2,
5.190952974271E-1));
#1240=CARTESIAN_POINT('',(2.086614173228E-1,-8.227538666671E-2,
5.230920707217E-1));
#1241=CARTESIAN_POINT('',(2.086614173228E-1,-8.250002458745E-2,
5.269753779535E-1));
#1242=CARTESIAN_POINT('',(2.086614173228E-1,-8.272466250819E-2,
5.290049265783E-1));
#1244=DIRECTION('',(1.E0,0.E0,0.E0));
#1245=VECTOR('',#1244,1.E0);
#1246=SURFACE_OF_LINEAR_EXTRUSION('',#1243,#1245);
#1248=ORIENTED_EDGE('',*,*,#1247,.T.);
#1249=ORIENTED_EDGE('',*,*,#1229,.T.);
#1250=ORIENTED_EDGE('',*,*,#1219,.F.);
#1252=ORIENTED_EDGE('',*,*,#1251,.F.);
#1254=ORIENTED_EDGE('',*,*,#1253,.F.);
#1256=ORIENTED_EDGE('',*,*,#1255,.F.);
#1257=EDGE_LOOP('',(#1248,#1249,#1250,#1252,#1254,#1256));
#1258=FACE_OUTER_BOUND('',#1257,.F.);
#1260=CARTESIAN_POINT('',(2.960370023151E-1,-6.889763779527E-2,
4.933072483276E-1));
#1261=DIRECTION('',(9.993908336709E-1,0.E0,3.489930622032E-2));
#1262=DIRECTION('',(3.489930622032E-2,0.E0,-9.993908336709E-1));
#1263=AXIS2_PLACEMENT_3D('',#1260,#1261,#1262);
#1264=PLANE('',#1263);
#1266=ORIENTED_EDGE('',*,*,#1265,.F.);
#1268=ORIENTED_EDGE('',*,*,#1267,.T.);
#1269=ORIENTED_EDGE('',*,*,#925,.F.);
#1270=ORIENTED_EDGE('',*,*,#943,.F.);
#1271=ORIENTED_EDGE('',*,*,#1231,.T.);
#1272=ORIENTED_EDGE('',*,*,#1247,.F.);
#1273=EDGE_LOOP('',(#1266,#1268,#1269,#1270,#1271,#1272));
#1274=FACE_OUTER_BOUND('',#1273,.F.);
#1276=CARTESIAN_POINT('',(2.086614173228E-1,-7.840710531955E-2,
4.932745661300E-1));
#1277=DIRECTION('',(0.E0,9.902596239295E-1,1.392331756984E-1));
#1278=DIRECTION('',(0.E0,-1.392331756984E-1,9.902596239295E-1));
#1279=AXIS2_PLACEMENT_3D('',#1276,#1277,#1278);
#1280=PLANE('',#1279);
#1282=ORIENTED_EDGE('',*,*,#1281,.T.);
#1283=ORIENTED_EDGE('',*,*,#1265,.T.);
#1284=ORIENTED_EDGE('',*,*,#1255,.T.);
#1286=ORIENTED_EDGE('',*,*,#1285,.T.);
#1288=ORIENTED_EDGE('',*,*,#1287,.F.);
#1289=ORIENTED_EDGE('',*,*,#897,.F.);
#1290=ORIENTED_EDGE('',*,*,#884,.T.);
#1291=EDGE_LOOP('',(#1282,#1283,#1284,#1286,#1288,#1289,#1290));
#1292=FACE_OUTER_BOUND('',#1291,.F.);
#1294=CARTESIAN_POINT('',(2.921259842520E-1,-6.889763779527E-2,
4.933070866142E-1));
#1295=DIRECTION('',(4.134816163863E-5,0.E0,-9.999999991452E-1));
#1296=DIRECTION('',(-9.999999991452E-1,0.E0,-4.134816163863E-5));
#1297=AXIS2_PLACEMENT_3D('',#1294,#1295,#1296);
#1298=PLANE('',#1297);
#1299=ORIENTED_EDGE('',*,*,#882,.T.);
#1300=ORIENTED_EDGE('',*,*,#927,.F.);
#1301=ORIENTED_EDGE('',*,*,#1267,.F.);
#1302=ORIENTED_EDGE('',*,*,#1281,.F.);
#1303=EDGE_LOOP('',(#1299,#1300,#1301,#1302));
#1304=FACE_OUTER_BOUND('',#1303,.F.);
#1306=CARTESIAN_POINT('',(2.833260440388E-1,-6.889763779527E-2,
5.188719847959E-1));
#1307=DIRECTION('',(0.E0,-1.E0,0.E0));
#1308=DIRECTION('',(0.E0,0.E0,-1.E0));
#1309=AXIS2_PLACEMENT_3D('',#1306,#1307,#1308);
#1310=CYLINDRICAL_SURFACE('',#1309,3.937007873949E-3);
#1312=ORIENTED_EDGE('',*,*,#1311,.F.);
#1313=ORIENTED_EDGE('',*,*,#966,.T.);
#1314=ORIENTED_EDGE('',*,*,#948,.F.);
#1316=ORIENTED_EDGE('',*,*,#1315,.F.);
#1317=ORIENTED_EDGE('',*,*,#1285,.F.);
#1318=ORIENTED_EDGE('',*,*,#1253,.T.);
#1319=EDGE_LOOP('',(#1312,#1313,#1314,#1316,#1317,#1318));
#1320=FACE_OUTER_BOUND('',#1319,.F.);
#1322=CARTESIAN_POINT('',(2.684653634446E-1,-6.889763779527E-2,
5.328004033067E-1));
#1323=DIRECTION('',(-5.299192642383E-1,0.E0,-8.480480961532E-1));
#1324=DIRECTION('',(-8.480480961532E-1,0.E0,5.299192642383E-1));
#1325=AXIS2_PLACEMENT_3D('',#1322,#1323,#1324);
#1326=PLANE('',#1325);
#1328=ORIENTED_EDGE('',*,*,#1327,.T.);
#1329=ORIENTED_EDGE('',*,*,#983,.T.);
#1330=ORIENTED_EDGE('',*,*,#968,.T.);
#1331=ORIENTED_EDGE('',*,*,#1311,.T.);
#1332=ORIENTED_EDGE('',*,*,#1251,.T.);
#1333=ORIENTED_EDGE('',*,*,#1217,.T.);
#1334=EDGE_LOOP('',(#1328,#1329,#1330,#1331,#1332,#1333));
#1335=FACE_OUTER_BOUND('',#1334,.F.);
#1337=CARTESIAN_POINT('',(2.747241173237E-1,-6.889763779527E-2,
5.428165032482E-1));
#1338=DIRECTION('',(0.E0,-1.E0,0.E0));
#1339=DIRECTION('',(0.E0,0.E0,-1.E0));
#1340=AXIS2_PLACEMENT_3D('',#1337,#1338,#1339);
#1341=CYLINDRICAL_SURFACE('',#1340,1.181076873692E-2);
#1342=ORIENTED_EDGE('',*,*,#1095,.F.);
#1343=ORIENTED_EDGE('',*,*,#1038,.T.);
#1344=ORIENTED_EDGE('',*,*,#1021,.T.);
#1345=ORIENTED_EDGE('',*,*,#1003,.T.);
#1346=ORIENTED_EDGE('',*,*,#985,.T.);
#1347=ORIENTED_EDGE('',*,*,#1327,.F.);
#1348=ORIENTED_EDGE('',*,*,#1215,.T.);
#1349=ORIENTED_EDGE('',*,*,#1184,.T.);
#1350=ORIENTED_EDGE('',*,*,#1167,.T.);
#1351=ORIENTED_EDGE('',*,*,#1128,.T.);
#1352=EDGE_LOOP('',(#1342,#1343,#1344,#1345,#1346,#1347,#1348,#1349,#1350,
#1351));
#1353=FACE_OUTER_BOUND('',#1352,.F.);
#1355=CARTESIAN_POINT('',(2.872606535940E-1,-6.889763779527E-2,
5.190093843891E-1));
#1356=DIRECTION('',(-9.993859774697E-1,0.E0,-3.503809408157E-2));
#1357=DIRECTION('',(-3.503809408157E-2,0.E0,9.993859774697E-1));
#1358=AXIS2_PLACEMENT_3D('',#1355,#1356,#1357);
#1359=PLANE('',#1358);
#1360=ORIENTED_EDGE('',*,*,#1315,.T.);
#1361=ORIENTED_EDGE('',*,*,#946,.T.);
#1362=ORIENTED_EDGE('',*,*,#931,.T.);
#1363=ORIENTED_EDGE('',*,*,#913,.T.);
#1364=ORIENTED_EDGE('',*,*,#899,.T.);
#1365=ORIENTED_EDGE('',*,*,#1287,.T.);
#1366=EDGE_LOOP('',(#1360,#1361,#1362,#1363,#1364,#1365));
#1367=FACE_OUTER_BOUND('',#1366,.F.);
#1369=CARTESIAN_POINT('',(2.710740235074E-1,-6.889763779527E-2,
5.442912368767E-1));
#1370=DIRECTION('',(9.271838545668E-1,0.E0,-3.746065934159E-1));
#1371=DIRECTION('',(-3.746065934159E-1,0.E0,-9.271838545668E-1));
#1372=AXIS2_PLACEMENT_3D('',#1369,#1370,#1371);
#1373=PLANE('',#1372);
#1374=ORIENTED_EDGE('',*,*,#1109,.T.);
#1375=ORIENTED_EDGE('',*,*,#1124,.F.);
#1376=ORIENTED_EDGE('',*,*,#1149,.T.);
#1377=ORIENTED_EDGE('',*,*,#1033,.F.);
#1378=ORIENTED_EDGE('',*,*,#1052,.T.);
#1379=ORIENTED_EDGE('',*,*,#1076,.F.);
#1381=ORIENTED_EDGE('',*,*,#1380,.T.);
#1383=ORIENTED_EDGE('',*,*,#1382,.F.);
#1384=EDGE_LOOP('',(#1374,#1375,#1376,#1377,#1378,#1379,#1381,#1383));
#1385=FACE_OUTER_BOUND('',#1384,.F.);
#1387=CARTESIAN_POINT('',(3.004509661412E-1,-6.889763779528E-2,
6.170017213831E-1));
#1388=DIRECTION('',(3.746065934156E-1,0.E0,9.271838545669E-1));
#1389=DIRECTION('',(9.271838545669E-1,0.E0,-3.746065934156E-1));
#1390=AXIS2_PLACEMENT_3D('',#1387,#1388,#1389);
#1391=PLANE('',#1390);
#1393=ORIENTED_EDGE('',*,*,#1392,.F.);
#1395=ORIENTED_EDGE('',*,*,#1394,.F.);
#1396=ORIENTED_EDGE('',*,*,#1380,.F.);
#1397=ORIENTED_EDGE('',*,*,#1074,.F.);
#1398=EDGE_LOOP('',(#1393,#1395,#1396,#1397));
#1399=FACE_OUTER_BOUND('',#1398,.F.);
#1401=CARTESIAN_POINT('',(2.086614173228E-1,-1.111549441412E-1,
6.199189984001E-1));
#1402=DIRECTION('',(0.E0,0.E0,1.E0));
#1403=DIRECTION('',(1.E0,0.E0,0.E0));
#1404=AXIS2_PLACEMENT_3D('',#1401,#1402,#1403);
#1405=PLANE('',#1404);
#1406=ORIENTED_EDGE('',*,*,#1072,.T.);
#1407=ORIENTED_EDGE('',*,*,#1090,.F.);
#1409=ORIENTED_EDGE('',*,*,#1408,.T.);
#1410=ORIENTED_EDGE('',*,*,#1392,.T.);
#1411=EDGE_LOOP('',(#1406,#1407,#1409,#1410));
#1412=FACE_OUTER_BOUND('',#1411,.F.);
#1414=CARTESIAN_POINT('',(2.086614173228E-1,-1.111549441412E-1,
6.053176778557E-1));
#1415=DIRECTION('',(1.E0,0.E0,0.E0));
#1416=DIRECTION('',(0.E0,1.E0,0.E0));
#1417=AXIS2_PLACEMENT_3D('',#1414,#1415,#1416);
#1420=DIRECTION('',(1.E0,0.E0,0.E0));
#1421=VECTOR('',#1420,1.E0);
#1422=SURFACE_OF_LINEAR_EXTRUSION('',#1419,#1421);
#1423=ORIENTED_EDGE('',*,*,#1408,.F.);
#1424=ORIENTED_EDGE('',*,*,#1088,.F.);
#1425=ORIENTED_EDGE('',*,*,#1111,.F.);
#1426=ORIENTED_EDGE('',*,*,#1382,.T.);
#1427=ORIENTED_EDGE('',*,*,#1394,.T.);
#1428=EDGE_LOOP('',(#1423,#1424,#1425,#1426,#1427));
#1429=FACE_OUTER_BOUND('',#1428,.F.);
#1433=FILL_AREA_STYLE_COLOUR('',#5);
#1434=FILL_AREA_STYLE('',(#1433));
#1435=SURFACE_STYLE_FILL_AREA(#1434);
#1436=SURFACE_SIDE_STYLE('',(#1435));
#1437=SURFACE_STYLE_USAGE(.BOTH.,#1436);
#1438=PRESENTATION_STYLE_ASSIGNMENT((#1437));
#16=STYLED_ITEM('',(#1438),#1432);
#1439=PRESENTATION_LAYER_ASSIGNMENT('SHELL_201','',(#16,#888,#903,#917,#935,
#952,#957,#972,#989,#994,#1007,#1012,#1025,#1044,#1059,#1065,#1080,#1101,#1116,
#1134,#1154,#1159,#1171,#1176,#1190,#1205,#1223,#1238,#1243,#1259,#1275,#1293,
#1305,#1321,#1336,#1354,#1368,#1386,#1400,#1413,#1419,#1430));
#1441=LENGTH_MEASURE_WITH_UNIT(LENGTH_MEASURE(2.54E1),#1440);
#1442=(CONVERSION_BASED_UNIT('INCH',#1441)LENGTH_UNIT()NAMED_UNIT(*));
#1444=PLANE_ANGLE_MEASURE_WITH_UNIT(PLANE_ANGLE_MEASURE(1.745329251994E-2),
#1443);
#1445=(CONVERSION_BASED_UNIT('DEGREE',#1444)NAMED_UNIT(*)PLANE_ANGLE_UNIT());
#1447=UNCERTAINTY_MEASURE_WITH_UNIT(LENGTH_MEASURE(1.666111589647E-5),#1442,
'closure',
'Maximum model space distance between geometric entities at asserted connectivities');
#1449=CARTESIAN_POINT('',(0.E0,0.E0,0.E0));
#1450=DIRECTION('',(0.E0,0.E0,1.E0));
#1451=DIRECTION('',(1.E0,0.E0,0.E0));
#1454=MECHANICAL_DESIGN_GEOMETRIC_PRESENTATION_REPRESENTATION('',(#24,#31,#38,
#45,#52,#59,#66,#73,#80,#87,#94,#101,#108,#125,#132,#146,#153,#162,#169,#176,
#188,#195,#205,#212,#220,#227,#234,#241,#248,#261,#268,#278,#287,#294,#301,#308,
#315,#323,#334,#349,#356,#371,#382,#390,#397,#405,#412,#419,#427,#434,#441,#448,
#457,#464,#471,#478,#486,#503,#510,#524,#531,#538,#545,#552,#560,#567,#574,#581,
#588,#595,#602,#616,#624,#631,#639,#653,#660,#667,#679,#689,#696,#703,#710,#717,
#724,#731,#744,#751,#760,#770,#16),#1448);
#1455=APPLICATION_CONTEXT('automotive design');
#1456=APPLICATION_PROTOCOL_DEFINITION('international standard',
'config_control_design',1994,#1455);
#1457=PRODUCT_DEFINITION_CONTEXT('',#1455,'design');
#1458=PRODUCT_CONTEXT('',#1455,'mechanical');
#1459=PRODUCT('CUT-EXTRUDE15','CUT-EXTRUDE15','NOT SPECIFIED',(#1458));
#1460=PRODUCT_DEFINITION_FORMATION_WITH_SPECIFIED_SOURCE('1','LAST_VERSION',
#1459,.MADE.);
#1468=LENGTH_MEASURE_WITH_UNIT(LENGTH_MEASURE(2.54E1),#1467);
#1469=(CONVERSION_BASED_UNIT('INCH',#1468)LENGTH_UNIT()NAMED_UNIT(*));
#1470=DERIVED_UNIT_ELEMENT(#1469,2.E0);
#1471=AREA_UNIT((#1470));
#1472=MEASURE_REPRESENTATION_ITEM('surface area measure',AREA_MEASURE(
1.452623257212E1),#1471);
#1477=LENGTH_MEASURE_WITH_UNIT(LENGTH_MEASURE(2.54E1),#1476);
#1478=(CONVERSION_BASED_UNIT('INCH',#1477)LENGTH_UNIT()NAMED_UNIT(*));
#1479=DERIVED_UNIT_ELEMENT(#1478,3.E0);
#1480=VOLUME_UNIT((#1479));
#1481=MEASURE_REPRESENTATION_ITEM('volume measure',VOLUME_MEASURE(
1.173592606168E0),#1480);
#1485=CARTESIAN_POINT('centre point',(7.187476228767E0,-2.997428230545E0,
1.383485000293E1));
#1490=LENGTH_MEASURE_WITH_UNIT(LENGTH_MEASURE(2.54E1),#1489);
#1491=(CONVERSION_BASED_UNIT('INCH',#1490)LENGTH_UNIT()NAMED_UNIT(*));
#1492=DERIVED_UNIT_ELEMENT(#1491,2.E0);
#1493=AREA_UNIT((#1492));
#1494=MEASURE_REPRESENTATION_ITEM('surface area measure',AREA_MEASURE(
1.452623257212E1),#1493);
#1499=LENGTH_MEASURE_WITH_UNIT(LENGTH_MEASURE(2.54E1),#1498);
#1500=(CONVERSION_BASED_UNIT('INCH',#1499)LENGTH_UNIT()NAMED_UNIT(*));
#1501=DERIVED_UNIT_ELEMENT(#1500,3.E0);
#1502=VOLUME_UNIT((#1501));
#1503=MEASURE_REPRESENTATION_ITEM('volume measure',VOLUME_MEASURE(
1.173592606168E0),#1502);
#1507=CARTESIAN_POINT('centre point',(7.187476228767E0,-2.997428230545E0,
1.383485000293E1));
#1=DRAUGHTING_PRE_DEFINED_COLOUR('green');
#2=COLOUR_RGB('',1.1E-2,1.2E-2,1.E0);
#3=COLOUR_RGB('',2.352941176471E-1,2.352941176471E-1,2.352941176471E-1);
#4=COLOUR_RGB('',4.1E-1,2.61589E-1,1.12848E-1);
#5=COLOUR_RGB('',4.980392156863E-1,4.980392156863E-1,4.980392156863E-1);
#6=COLOUR_RGB('',5.04854E-1,1.5455E-2,1.5455E-2);
#7=COLOUR_RGB('',6.35294E-1,6.86275E-1,7.4902E-1);
#8=COLOUR_RGB('',6.40777E-1,6.40777E-1,6.40777E-1);
#9=COLOUR_RGB('',6.69062E-1,6.69903E-1,6.55217E-1);
#10=COLOUR_RGB('',9.21569E-1,7.05882E-1,4.70588E-1);
#11=DRAUGHTING_PRE_DEFINED_COLOUR('red');
#12=DRAUGHTING_PRE_DEFINED_COLOUR('yellow');
#13=COLOUR_RGB('',1.E0,1.E0,5.3E-1);
#14=COLOUR_RGB('',1.E0,1.E0,9.49E-1);
#15=DRAUGHTING_PRE_DEFINED_COLOUR('white');
#122=B_SPLINE_CURVE_WITH_KNOTS('',3,(#109,#110,#111,#112,#113,#114,#115,#116,
#117,#118,#119,#120,#121),.UNSPECIFIED.,.F.,.F.,(4,1,1,1,1,1,1,1,1,1,4),(0.E0,
1.E-1,2.E-1,3.E-1,4.E-1,5.E-1,6.E-1,7.E-1,8.E-1,9.E-1,1.E0),.UNSPECIFIED.);
#143=B_SPLINE_CURVE_WITH_KNOTS('',3,(#133,#134,#135,#136,#137,#138,#139,#140,
#141,#142),.UNSPECIFIED.,.F.,.F.,(4,1,1,1,1,1,1,4),(0.E0,1.428571428571E-1,
2.857142857143E-1,4.285714285714E-1,5.714285714286E-1,7.142857142857E-1,
8.571428571429E-1,1.E0),.UNSPECIFIED.);
#159=B_SPLINE_CURVE_WITH_KNOTS('',3,(#154,#155,#156,#157,#158),.UNSPECIFIED.,
.F.,.F.,(4,1,4),(0.E0,5.E-1,1.E0),.UNSPECIFIED.);
#185=B_SPLINE_CURVE_WITH_KNOTS('',3,(#177,#178,#179,#180,#181,#182,#183,#184),
.UNSPECIFIED.,.F.,.F.,(4,1,1,1,1,4),(0.E0,2.E-1,4.E-1,6.E-1,8.E-1,1.E0),
.UNSPECIFIED.);
#202=B_SPLINE_CURVE_WITH_KNOTS('',3,(#196,#197,#198,#199,#200,#201),
.UNSPECIFIED.,.F.,.F.,(4,1,1,4),(0.E0,3.333333333333E-1,6.666666666667E-1,1.E0),
.UNSPECIFIED.);
#217=B_SPLINE_CURVE_WITH_KNOTS('',3,(#213,#214,#215,#216),.UNSPECIFIED.,.F.,.F.,
(4,4),(0.E0,1.E0),.UNSPECIFIED.);
#258=B_SPLINE_CURVE_WITH_KNOTS('',3,(#249,#250,#251,#252,#253,#254,#255,#256,
#257),.UNSPECIFIED.,.F.,.F.,(4,1,1,1,1,1,4),(0.E0,1.25E-1,2.5E-1,5.E-1,7.5E-1,
8.75E-1,1.E0),.UNSPECIFIED.);
#275=B_SPLINE_CURVE_WITH_KNOTS('',3,(#269,#270,#271,#272,#273,#274),
.UNSPECIFIED.,.F.,.F.,(4,1,1,4),(0.E0,2.5E-1,5.E-1,1.E0),.UNSPECIFIED.);
#284=B_SPLINE_CURVE_WITH_KNOTS('',3,(#279,#280,#281,#282,#283),.UNSPECIFIED.,
.F.,.F.,(4,1,4),(0.E0,5.E-1,1.E0),.UNSPECIFIED.);
#320=B_SPLINE_CURVE_WITH_KNOTS('',3,(#316,#317,#318,#319),.UNSPECIFIED.,.F.,.F.,
(4,4),(0.E0,1.E0),.UNSPECIFIED.);
#331=B_SPLINE_CURVE_WITH_KNOTS('',3,(#324,#325,#326,#327,#328,#329,#330),
.UNSPECIFIED.,.F.,.F.,(4,1,1,1,4),(0.E0,2.5E-1,5.E-1,7.5E-1,1.E0),
.UNSPECIFIED.);
#346=B_SPLINE_CURVE_WITH_KNOTS('',3,(#335,#336,#337,#338,#339,#340,#341,#342,
#343,#344,#345),.UNSPECIFIED.,.F.,.F.,(4,1,1,1,1,1,1,1,4),(0.E0,1.25E-1,2.5E-1,
3.75E-1,5.E-1,6.25E-1,7.5E-1,8.75E-1,1.E0),.UNSPECIFIED.);
#368=B_SPLINE_CURVE_WITH_KNOTS('',3,(#357,#358,#359,#360,#361,#362,#363,#364,
#365,#366,#367),.UNSPECIFIED.,.F.,.F.,(4,1,1,1,1,1,1,1,4),(0.E0,1.25E-1,2.5E-1,
3.75E-1,5.E-1,6.25E-1,7.5E-1,8.75E-1,1.E0),.UNSPECIFIED.);
#379=B_SPLINE_CURVE_WITH_KNOTS('',3,(#372,#373,#374,#375,#376,#377,#378),
.UNSPECIFIED.,.F.,.F.,(4,1,1,1,4),(0.E0,2.5E-1,5.E-1,7.5E-1,1.E0),
.UNSPECIFIED.);
#387=B_SPLINE_CURVE_WITH_KNOTS('',3,(#383,#384,#385,#386),.UNSPECIFIED.,.F.,.F.,
(4,4),(0.E0,1.E0),.UNSPECIFIED.);
#402=B_SPLINE_CURVE_WITH_KNOTS('',3,(#398,#399,#400,#401),.UNSPECIFIED.,.F.,.F.,
(4,4),(0.E0,1.E0),.UNSPECIFIED.);
#424=B_SPLINE_CURVE_WITH_KNOTS('',3,(#420,#421,#422,#423),.UNSPECIFIED.,.F.,.F.,
(4,4),(0.E0,1.E0),.UNSPECIFIED.);
#454=B_SPLINE_CURVE_WITH_KNOTS('',3,(#449,#450,#451,#452,#453),.UNSPECIFIED.,
.F.,.F.,(4,1,4),(0.E0,5.E-1,1.E0),.UNSPECIFIED.);
#483=B_SPLINE_CURVE_WITH_KNOTS('',3,(#479,#480,#481,#482),.UNSPECIFIED.,.F.,.F.,
(4,4),(0.E0,1.E0),.UNSPECIFIED.);
#500=B_SPLINE_CURVE_WITH_KNOTS('',3,(#487,#488,#489,#490,#491,#492,#493,#494,
#495,#496,#497,#498,#499),.UNSPECIFIED.,.F.,.F.,(4,1,1,1,1,1,1,1,1,1,4),(0.E0,
1.E-1,2.E-1,3.E-1,4.E-1,5.E-1,6.E-1,7.E-1,8.E-1,9.E-1,1.E0),.UNSPECIFIED.);
#521=B_SPLINE_CURVE_WITH_KNOTS('',3,(#511,#512,#513,#514,#515,#516,#517,#518,
#519,#520),.UNSPECIFIED.,.F.,.F.,(4,1,1,1,1,1,1,4),(0.E0,1.428571428571E-1,
2.857142857143E-1,4.285714285714E-1,5.714285714286E-1,7.142857142857E-1,
8.571428571429E-1,1.E0),.UNSPECIFIED.);
#557=B_SPLINE_CURVE_WITH_KNOTS('',3,(#553,#554,#555,#556),.UNSPECIFIED.,.F.,.F.,
(4,4),(0.E0,1.E0),.UNSPECIFIED.);
#613=B_SPLINE_CURVE_WITH_KNOTS('',3,(#603,#604,#605,#606,#607,#608,#609,#610,
#611,#612),.UNSPECIFIED.,.F.,.F.,(4,1,1,1,1,1,1,4),(0.E0,1.428571428571E-1,
2.857142857143E-1,4.285714285714E-1,5.714285714286E-1,7.142857142857E-1,
8.571428571429E-1,1.E0),.UNSPECIFIED.);
#621=B_SPLINE_CURVE_WITH_KNOTS('',3,(#617,#618,#619,#620),.UNSPECIFIED.,.F.,.F.,
(4,4),(0.E0,1.E0),.UNSPECIFIED.);
#636=B_SPLINE_CURVE_WITH_KNOTS('',3,(#632,#633,#634,#635),.UNSPECIFIED.,.F.,.F.,
(4,4),(0.E0,1.E0),.UNSPECIFIED.);
#650=B_SPLINE_CURVE_WITH_KNOTS('',3,(#640,#641,#642,#643,#644,#645,#646,#647,
#648,#649),.UNSPECIFIED.,.F.,.F.,(4,1,1,1,1,1,1,4),(0.E0,1.428571428571E-1,
2.857142857143E-1,4.285714285714E-1,5.714285714286E-1,7.142857142857E-1,
8.571428571429E-1,1.E0),.UNSPECIFIED.);
#676=B_SPLINE_CURVE_WITH_KNOTS('',3,(#668,#669,#670,#671,#672,#673,#674,#675),
.UNSPECIFIED.,.F.,.F.,(4,1,1,1,1,4),(0.E0,2.E-1,4.E-1,6.E-1,8.E-1,1.E0),
.UNSPECIFIED.);
#686=B_SPLINE_CURVE_WITH_KNOTS('',3,(#680,#681,#682,#683,#684,#685),
.UNSPECIFIED.,.F.,.F.,(4,1,1,4),(0.E0,3.333333333333E-1,6.666666666667E-1,1.E0),
.UNSPECIFIED.);
#741=B_SPLINE_CURVE_WITH_KNOTS('',3,(#732,#733,#734,#735,#736,#737,#738,#739,
#740),.UNSPECIFIED.,.F.,.F.,(4,1,1,1,1,1,4),(0.E0,1.25E-1,2.5E-1,5.E-1,7.5E-1,
8.75E-1,1.E0),.UNSPECIFIED.);
#757=B_SPLINE_CURVE_WITH_KNOTS('',3,(#752,#753,#754,#755,#756),.UNSPECIFIED.,
.F.,.F.,(4,1,4),(0.E0,5.E-1,1.E0),.UNSPECIFIED.);
#767=B_SPLINE_CURVE_WITH_KNOTS('',3,(#761,#762,#763,#764,#765,#766),
.UNSPECIFIED.,.F.,.F.,(4,1,1,4),(0.E0,5.E-1,7.5E-1,1.E0),.UNSPECIFIED.);
#876=EDGE_CURVE('',#832,#830,#20,.T.);
#878=EDGE_CURVE('',#862,#832,#28,.T.);
#880=EDGE_CURVE('',#854,#862,#35,.T.);
#882=EDGE_CURVE('',#853,#854,#42,.T.);
#884=EDGE_CURVE('',#830,#853,#49,.T.);
#888=ADVANCED_FACE('',(#887),#875,.T.);
#894=EDGE_CURVE('',#832,#773,#56,.T.);
#897=EDGE_CURVE('',#830,#774,#571,.T.);
#899=EDGE_CURVE('',#773,#774,#63,.T.);
#903=ADVANCED_FACE('',(#902),#893,.T.);
#909=EDGE_CURVE('',#862,#776,#70,.T.);
#913=EDGE_CURVE('',#776,#773,#77,.T.);
#917=ADVANCED_FACE('',(#916),#908,.T.);
#923=EDGE_CURVE('',#835,#836,#84,.T.);
#925=EDGE_CURVE('',#835,#858,#542,.T.);
#927=EDGE_CURVE('',#858,#854,#578,.T.);
#931=EDGE_CURVE('',#836,#776,#91,.T.);
#935=ADVANCED_FACE('',(#934),#922,.T.);
#941=EDGE_CURVE('',#839,#840,#129,.T.);
#943=EDGE_CURVE('',#840,#835,#549,.T.);
#946=EDGE_CURVE('',#847,#836,#98,.T.);
#948=EDGE_CURVE('',#847,#839,#621,.T.);
#952=ADVANCED_FACE('',(#951),#940,.T.);
#957=B_SPLINE_CURVE_WITH_KNOTS('',3,(#953,#954,#955,#956),.UNSPECIFIED.,.F.,.F.,
(4,4),(0.E0,1.E0),.UNSPECIFIED.);
#961=EDGE_CURVE('',#843,#844,#105,.T.);
#963=EDGE_CURVE('',#843,#840,#122,.T.);
#966=EDGE_CURVE('',#845,#839,#613,.T.);
#968=EDGE_CURVE('',#844,#845,#143,.T.);
#972=ADVANCED_FACE('',(#971),#960,.T.);
#978=EDGE_CURVE('',#798,#867,#173,.T.);
#980=EDGE_CURVE('',#867,#843,#445,.T.);
#983=EDGE_CURVE('',#860,#844,#150,.T.);
#985=EDGE_CURVE('',#798,#860,#159,.T.);
#989=ADVANCED_FACE('',(#988),#977,.T.);
#994=B_SPLINE_CURVE_WITH_KNOTS('',3,(#990,#991,#992,#993),.UNSPECIFIED.,.F.,.F.,
(4,4),(0.E0,1.E0),.UNSPECIFIED.);
#998=EDGE_CURVE('',#795,#797,#166,.T.);
#1000=EDGE_CURVE('',#795,#867,#368,.T.);
#1003=EDGE_CURVE('',#797,#798,#185,.T.);
#1007=ADVANCED_FACE('',(#1006),#997,.T.);
#1012=B_SPLINE_CURVE_WITH_KNOTS('',3,(#1008,#1009,#1010,#1011),.UNSPECIFIED.,
.F.,.F.,(4,4),(0.E0,1.E0),.UNSPECIFIED.);
#1016=EDGE_CURVE('',#794,#796,#192,.T.);
#1018=EDGE_CURVE('',#794,#795,#379,.T.);
#1021=EDGE_CURVE('',#796,#797,#202,.T.);
#1025=ADVANCED_FACE('',(#1024),#1015,.T.);
#1031=EDGE_CURVE('',#809,#810,#209,.T.);
#1033=EDGE_CURVE('',#809,#812,#700,.T.);
#1035=EDGE_CURVE('',#812,#794,#387,.T.);
#1038=EDGE_CURVE('',#811,#796,#217,.T.);
#1040=EDGE_CURVE('',#810,#811,#224,.T.);
#1044=ADVANCED_FACE('',(#1043),#1030,.T.);
#1050=EDGE_CURVE('',#779,#780,#245,.T.);
#1052=EDGE_CURVE('',#809,#780,#231,.T.);
#1055=EDGE_CURVE('',#779,#810,#238,.T.);
#1059=ADVANCED_FACE('',(#1058),#1049,.T.);
#1064=ELLIPSE('',#1063,1.574803149606E-2,1.460132054436E-2);
#1065=TRIMMED_CURVE('',#1064,(PARAMETER_VALUE(9.E1)),(PARAMETER_VALUE(1.72E2)),
.T.,.UNSPECIFIED.);
#1070=EDGE_CURVE('',#789,#779,#258,.T.);
#1072=EDGE_CURVE('',#792,#789,#265,.T.);
#1074=EDGE_CURVE('',#792,#793,#275,.T.);
#1076=EDGE_CURVE('',#793,#780,#284,.T.);
#1080=ADVANCED_FACE('',(#1079),#1068,.T.);
#1086=EDGE_CURVE('',#802,#785,#305,.T.);
#1088=EDGE_CURVE('',#785,#783,#741,.T.);
#1090=EDGE_CURVE('',#783,#789,#721,.T.);
#1095=EDGE_CURVE('',#811,#801,#657,.T.);
#1097=EDGE_CURVE('',#801,#802,#312,.T.);
#1101=ADVANCED_FACE('',(#1100),#1085,.T.);
#1107=EDGE_CURVE('',#816,#802,#291,.T.);
#1109=EDGE_CURVE('',#787,#816,#298,.T.);
#1111=EDGE_CURVE('',#787,#785,#748,.T.);
#1116=ADVANCED_FACE('',(#1115),#1106,.T.);
#1122=EDGE_CURVE('',#814,#864,#402,.T.);
#1124=EDGE_CURVE('',#864,#816,#693,.T.);
#1128=EDGE_CURVE('',#805,#801,#320,.T.);
#1130=EDGE_CURVE('',#805,#814,#416,.T.);
#1134=ADVANCED_FACE('',(#1133),#1121,.T.);
#1140=EDGE_CURVE('',#818,#814,#331,.T.);
#1142=EDGE_CURVE('',#868,#818,#346,.T.);
#1144=EDGE_CURVE('',#867,#868,#353,.T.);
#1149=EDGE_CURVE('',#864,#812,#394,.T.);
#1154=ADVANCED_FACE('',(#1153),#1139,.F.);
#1159=B_SPLINE_CURVE_WITH_KNOTS('',3,(#1155,#1156,#1157,#1158),.UNSPECIFIED.,
.F.,.F.,(4,4),(0.E0,1.E0),.UNSPECIFIED.);
#1163=EDGE_CURVE('',#818,#804,#409,.T.);
#1167=EDGE_CURVE('',#804,#805,#686,.T.);
#1171=ADVANCED_FACE('',(#1170),#1162,.T.);
#1176=B_SPLINE_CURVE_WITH_KNOTS('',3,(#1172,#1173,#1174,#1175),.UNSPECIFIED.,
.F.,.F.,(4,4),(0.E0,1.E0),.UNSPECIFIED.);
#1180=EDGE_CURVE('',#820,#868,#424,.T.);
#1184=EDGE_CURVE('',#803,#804,#676,.T.);
#1186=EDGE_CURVE('',#820,#803,#431,.T.);
#1190=ADVANCED_FACE('',(#1189),#1179,.T.);
#1196=EDGE_CURVE('',#870,#820,#438,.T.);
#1198=EDGE_CURVE('',#870,#843,#475,.T.);
#1205=ADVANCED_FACE('',(#1204),#1195,.T.);
#1211=EDGE_CURVE('',#824,#870,#483,.T.);
#1215=EDGE_CURVE('',#806,#803,#454,.T.);
#1217=EDGE_CURVE('',#823,#806,#461,.T.);
#1219=EDGE_CURVE('',#823,#824,#507,.T.);
#1223=ADVANCED_FACE('',(#1222),#1210,.T.);
#1229=EDGE_CURVE('',#848,#824,#500,.T.);
#1231=EDGE_CURVE('',#840,#848,#468,.T.);
#1238=ADVANCED_FACE('',(#1237),#1228,.T.);
#1243=B_SPLINE_CURVE_WITH_KNOTS('',3,(#1239,#1240,#1241,#1242),.UNSPECIFIED.,
.F.,.F.,(4,4),(0.E0,1.E0),.UNSPECIFIED.);
#1247=EDGE_CURVE('',#827,#848,#557,.T.);
#1251=EDGE_CURVE('',#846,#823,#521,.T.);
#1253=EDGE_CURVE('',#828,#846,#650,.T.);
#1255=EDGE_CURVE('',#827,#828,#528,.T.);
#1259=ADVANCED_FACE('',(#1258),#1246,.T.);
#1265=EDGE_CURVE('',#857,#827,#535,.T.);
#1267=EDGE_CURVE('',#857,#858,#585,.T.);
#1275=ADVANCED_FACE('',(#1274),#1264,.T.);
#1281=EDGE_CURVE('',#853,#857,#592,.T.);
#1285=EDGE_CURVE('',#828,#850,#636,.T.);
#1287=EDGE_CURVE('',#774,#850,#564,.T.);
#1293=ADVANCED_FACE('',(#1292),#1280,.T.);
#1305=ADVANCED_FACE('',(#1304),#1298,.T.);
#1311=EDGE_CURVE('',#845,#846,#599,.T.);
#1315=EDGE_CURVE('',#850,#847,#628,.T.);
#1321=ADVANCED_FACE('',(#1320),#1310,.F.);
#1327=EDGE_CURVE('',#806,#860,#664,.T.);
#1336=ADVANCED_FACE('',(#1335),#1326,.T.);
#1354=ADVANCED_FACE('',(#1353),#1341,.T.);
#1368=ADVANCED_FACE('',(#1367),#1359,.T.);
#1380=EDGE_CURVE('',#793,#790,#714,.T.);
#1382=EDGE_CURVE('',#787,#790,#757,.T.);
#1386=ADVANCED_FACE('',(#1385),#1373,.T.);
#1392=EDGE_CURVE('',#784,#792,#707,.T.);
#1394=EDGE_CURVE('',#790,#784,#767,.T.);
#1400=ADVANCED_FACE('',(#1399),#1391,.T.);
#1408=EDGE_CURVE('',#783,#784,#728,.T.);
#1413=ADVANCED_FACE('',(#1412),#1405,.T.);
#1418=ELLIPSE('',#1417,1.574803149606E-2,1.460132054436E-2);
#1419=TRIMMED_CURVE('',#1418,(PARAMETER_VALUE(8.000000000001E0)),(PARAMETER_VALUE(9.E1)),.T.,.UNSPECIFIED.);
#1430=ADVANCED_FACE('',(#1429),#1422,.T.);
#1431=CLOSED_SHELL('',(#888,#903,#917,#935,#952,#972,#989,#1007,#1025,#1044,
#1059,#1080,#1101,#1116,#1134,#1154,#1171,#1190,#1205,#1223,#1238,#1259,#1275,
#1293,#1305,#1321,#1336,#1354,#1368,#1386,#1400,#1413,#1430));
#1432=MANIFOLD_SOLID_BREP('',#1431);
#1440=(LENGTH_UNIT()NAMED_UNIT(*)SI_UNIT(.MILLI.,.METRE.));
#1443=(NAMED_UNIT(*)PLANE_ANGLE_UNIT()SI_UNIT($,.RADIAN.));
#1446=(NAMED_UNIT(*)SI_UNIT($,.STERADIAN.)SOLID_ANGLE_UNIT());
#1448=(GEOMETRIC_REPRESENTATION_CONTEXT(3)GLOBAL_UNCERTAINTY_ASSIGNED_CONTEXT((
#1447))GLOBAL_UNIT_ASSIGNED_CONTEXT((#1442,#1445,#1446))REPRESENTATION_CONTEXT(
'ID1','3'));
#1452=AXIS2_PLACEMENT_3D('',#1449,#1450,#1451);
#1453=ADVANCED_BREP_SHAPE_REPRESENTATION('',(#1452,#1432),#1448);
#1461=PRODUCT_DEFINITION('design','',#1460,#1457);
#1462=PRODUCT_DEFINITION_SHAPE('','SHAPE FOR CUT-EXTRUDE15.',#1461);
#1463=SHAPE_ASPECT('','solid data associated with CUT-EXTRUDE15',#1462,.F.);
#1464=PROPERTY_DEFINITION('',
'shape for solid data with which properties are associated',#1463);
#1465=SHAPE_REPRESENTATION('',(#1432),#1448);
#1466=SHAPE_DEFINITION_REPRESENTATION(#1464,#1465);
#1467=(LENGTH_UNIT()NAMED_UNIT(*)SI_UNIT(.MILLI.,.METRE.));
#1473=PROPERTY_DEFINITION('geometric validation property',
'area of CUT-EXTRUDE15',#1463);
#1474=REPRESENTATION('surface area',(#1472),#1448);
#1475=PROPERTY_DEFINITION_REPRESENTATION(#1473,#1474);
#1476=(LENGTH_UNIT()NAMED_UNIT(*)SI_UNIT(.MILLI.,.METRE.));
#1482=PROPERTY_DEFINITION('geometric validation property',
'volume of CUT-EXTRUDE15',#1463);
#1483=REPRESENTATION('volume',(#1481),#1448);
#1484=PROPERTY_DEFINITION_REPRESENTATION(#1482,#1483);
#1486=PROPERTY_DEFINITION('geometric validation property',
'centroid of CUT-EXTRUDE15',#1463);
#1487=REPRESENTATION('centroid',(#1485),#1448);
#1488=PROPERTY_DEFINITION_REPRESENTATION(#1486,#1487);
#1489=(LENGTH_UNIT()NAMED_UNIT(*)SI_UNIT(.MILLI.,.METRE.));
#1495=PROPERTY_DEFINITION('geometric validation property',
'area of CUT-EXTRUDE15',#1462);
#1496=REPRESENTATION('surface area',(#1494),#1448);
#1497=PROPERTY_DEFINITION_REPRESENTATION(#1495,#1496);
#1498=(LENGTH_UNIT()NAMED_UNIT(*)SI_UNIT(.MILLI.,.METRE.));
#1504=PROPERTY_DEFINITION('geometric validation property',
'volume of CUT-EXTRUDE15',#1462);
#1505=REPRESENTATION('volume',(#1503),#1448);
#1506=PROPERTY_DEFINITION_REPRESENTATION(#1504,#1505);
#1508=PROPERTY_DEFINITION('geometric validation property',
'centroid of CUT-EXTRUDE15',#1462);
#1509=REPRESENTATION('centroid',(#1507),#1448);
#1510=PROPERTY_DEFINITION_REPRESENTATION(#1508,#1509);
#1511=SHAPE_DEFINITION_REPRESENTATION(#1462,#1453);
ENDSEC;
END-ISO-10303-21;
