ISO-10303-21;
HEADER;
FILE_DESCRIPTION((''),'2;1');
FILE_NAME('CUT-EXTRUDE6400','2026-06-15T13:46:20',('Esia'),(''),
'CREO PARAMETRIC BY PTC INC, 2025102','CREO PARAMETRIC BY PTC INC, 2025102','');
FILE_SCHEMA((
'AP242_MANAGED_MODEL_BASED_3D_ENGINEERING_MIM_LF { 1 0 10303 442 1 1 4 }'));
ENDSEC;
DATA;
#17=DIRECTION('',(0.E0,-1.E0,0.E0));
#18=VECTOR('',#17,3.937007874016E-3);
#19=CARTESIAN_POINT('',(-7.480314960630E-2,-5.629921259843E-2,
7.874015748031E-3));
#20=LINE('',#19,#18);
#21=DRAUGHTING_PRE_DEFINED_CURVE_FONT('continuous');
#22=CURVE_STYLE('',#21,POSITIVE_LENGTH_MEASURE(2.E-2),#9);
#23=PRESENTATION_STYLE_ASSIGNMENT((#22));
#24=STYLED_ITEM('',(#23),#20);
#25=DIRECTION('',(0.E0,0.E0,1.E0));
#26=VECTOR('',#25,1.929133858268E-2);
#27=CARTESIAN_POINT('',(-7.480314960630E-2,-5.629921259843E-2,
-1.141732283465E-2));
#28=LINE('',#27,#26);
#29=CURVE_STYLE('',#21,POSITIVE_LENGTH_MEASURE(2.E-2),#9);
#30=PRESENTATION_STYLE_ASSIGNMENT((#29));
#31=STYLED_ITEM('',(#30),#28);
#32=DIRECTION('',(0.E0,1.E0,0.E0));
#33=VECTOR('',#32,7.874015748031E-3);
#34=CARTESIAN_POINT('',(-7.480314960630E-2,-6.417322834646E-2,
-1.141732283465E-2));
#35=LINE('',#34,#33);
#36=CURVE_STYLE('',#21,POSITIVE_LENGTH_MEASURE(2.E-2),#9);
#37=PRESENTATION_STYLE_ASSIGNMENT((#36));
#38=STYLED_ITEM('',(#37),#35);
#39=DIRECTION('',(0.E0,2.509781850259E-9,-1.E0));
#40=VECTOR('',#39,1.535433113121E-2);
#41=CARTESIAN_POINT('',(-7.480314960630E-2,-6.417322838499E-2,
3.937008296566E-3));
#42=LINE('',#41,#40);
#43=CURVE_STYLE('',#21,POSITIVE_LENGTH_MEASURE(2.E-2),#9);
#44=PRESENTATION_STYLE_ASSIGNMENT((#43));
#45=STYLED_ITEM('',(#44),#42);
#46=CARTESIAN_POINT('',(-7.480314960630E-2,-6.023622047244E-2,
3.937007758408E-3));
#47=DIRECTION('',(1.E0,0.E0,0.E0));
#48=DIRECTION('',(0.E0,-3.348710099693E-14,1.E0));
#49=AXIS2_PLACEMENT_3D('',#46,#47,#48);
#51=CURVE_STYLE('',#21,POSITIVE_LENGTH_MEASURE(2.E-2),#9);
#52=PRESENTATION_STYLE_ASSIGNMENT((#51));
#53=STYLED_ITEM('',(#52),#50);
#54=DIRECTION('',(0.E0,-1.E0,0.E0));
#55=VECTOR('',#54,3.937007874016E-3);
#56=CARTESIAN_POINT('',(-8.267716535433E-2,-5.629921259843E-2,
7.874015748031E-3));
#57=LINE('',#56,#55);
#58=CURVE_STYLE('',#21,POSITIVE_LENGTH_MEASURE(2.E-2),#9);
#59=PRESENTATION_STYLE_ASSIGNMENT((#58));
#60=STYLED_ITEM('',(#59),#57);
#61=DIRECTION('',(-1.E0,0.E0,0.E0));
#62=VECTOR('',#61,7.874015748032E-3);
#63=CARTESIAN_POINT('',(-7.480314960630E-2,-5.629921259843E-2,
7.874015748031E-3));
#64=LINE('',#63,#62);
#65=CURVE_STYLE('',#21,POSITIVE_LENGTH_MEASURE(2.E-2),#9);
#66=PRESENTATION_STYLE_ASSIGNMENT((#65));
#67=STYLED_ITEM('',(#66),#64);
#68=DIRECTION('',(0.E0,-2.509781850260E-9,1.E0));
#69=VECTOR('',#68,1.535433113120E-2);
#70=CARTESIAN_POINT('',(-8.267716535433E-2,-6.417322834646E-2,
-1.141732283465E-2));
#71=LINE('',#70,#69);
#72=CURVE_STYLE('',#21,POSITIVE_LENGTH_MEASURE(2.E-2),#9);
#73=PRESENTATION_STYLE_ASSIGNMENT((#72));
#74=STYLED_ITEM('',(#73),#71);
#75=DIRECTION('',(0.E0,-1.E0,0.E0));
#76=VECTOR('',#75,7.874015748031E-3);
#77=CARTESIAN_POINT('',(-8.267716535433E-2,-5.629921259843E-2,
-1.141732283465E-2));
#78=LINE('',#77,#76);
#79=CURVE_STYLE('',#21,POSITIVE_LENGTH_MEASURE(2.E-2),#9);
#80=PRESENTATION_STYLE_ASSIGNMENT((#79));
#81=STYLED_ITEM('',(#80),#78);
#82=DIRECTION('',(0.E0,0.E0,-1.E0));
#83=VECTOR('',#82,1.929133858268E-2);
#84=CARTESIAN_POINT('',(-8.267716535433E-2,-5.629921259843E-2,
7.874015748031E-3));
#85=LINE('',#84,#83);
#86=CURVE_STYLE('',#21,POSITIVE_LENGTH_MEASURE(2.E-2),#9);
#87=PRESENTATION_STYLE_ASSIGNMENT((#86));
#88=STYLED_ITEM('',(#87),#85);
#89=CARTESIAN_POINT('',(-8.267716535433E-2,-6.023622047244E-2,
3.937007758408E-3));
#90=DIRECTION('',(-1.E0,0.E0,0.E0));
#91=DIRECTION('',(0.E0,-9.999999999999E-1,4.100701980473E-7));
#92=AXIS2_PLACEMENT_3D('',#89,#90,#91);
#94=CURVE_STYLE('',#21,POSITIVE_LENGTH_MEASURE(2.E-2),#9);
#95=PRESENTATION_STYLE_ASSIGNMENT((#94));
#96=STYLED_ITEM('',(#95),#93);
#97=DIRECTION('',(-1.E0,0.E0,-1.043277443602E-12));
#98=VECTOR('',#97,7.874015748032E-3);
#99=CARTESIAN_POINT('',(-7.480314960630E-2,-6.417322838499E-2,
3.937008296566E-3));
#100=LINE('',#99,#98);
#101=CURVE_STYLE('',#21,POSITIVE_LENGTH_MEASURE(2.E-2),#9);
#102=PRESENTATION_STYLE_ASSIGNMENT((#101));
#103=STYLED_ITEM('',(#102),#100);
#104=DIRECTION('',(-1.E0,0.E0,0.E0));
#105=VECTOR('',#104,7.874015748032E-3);
#106=CARTESIAN_POINT('',(-7.480314960630E-2,-6.023622047244E-2,
7.874015748031E-3));
#107=LINE('',#106,#105);
#108=CURVE_STYLE('',#21,POSITIVE_LENGTH_MEASURE(2.E-2),#9);
#109=PRESENTATION_STYLE_ASSIGNMENT((#108));
#110=STYLED_ITEM('',(#109),#107);
#111=DIRECTION('',(1.E0,0.E0,0.E0));
#112=VECTOR('',#111,7.874015748032E-3);
#113=CARTESIAN_POINT('',(-8.267716535433E-2,-5.629921259843E-2,
-1.141732283465E-2));
#114=LINE('',#113,#112);
#115=CURVE_STYLE('',#21,POSITIVE_LENGTH_MEASURE(2.E-2),#9);
#116=PRESENTATION_STYLE_ASSIGNMENT((#115));
#117=STYLED_ITEM('',(#116),#114);
#118=DIRECTION('',(-1.E0,0.E0,0.E0));
#119=VECTOR('',#118,7.874015748032E-3);
#120=CARTESIAN_POINT('',(-7.480314960630E-2,-6.417322834646E-2,
-1.141732283465E-2));
#121=LINE('',#120,#119);
#122=CURVE_STYLE('',#21,POSITIVE_LENGTH_MEASURE(2.E-2),#9);
#123=PRESENTATION_STYLE_ASSIGNMENT((#122));
#124=STYLED_ITEM('',(#123),#121);
#125=CARTESIAN_POINT('',(-7.480314960630E-2,-6.417322838499E-2,
3.937008296566E-3));
#126=CARTESIAN_POINT('',(-8.267716535433E-2,-6.417322838499E-2,
3.937008296557E-3));
#127=VERTEX_POINT('',#125);
#128=VERTEX_POINT('',#126);
#129=CARTESIAN_POINT('',(-7.480314960630E-2,-5.629921259843E-2,
7.874015748031E-3));
#130=CARTESIAN_POINT('',(-7.480314960630E-2,-6.023622047244E-2,
7.874015748031E-3));
#131=VERTEX_POINT('',#129);
#132=VERTEX_POINT('',#130);
#133=CARTESIAN_POINT('',(-8.267716535433E-2,-6.023622047244E-2,
7.874015748031E-3));
#134=VERTEX_POINT('',#133);
#135=CARTESIAN_POINT('',(-7.480314960630E-2,-6.417322834646E-2,
-1.141732283465E-2));
#136=CARTESIAN_POINT('',(-8.267716535433E-2,-6.417322834646E-2,
-1.141732283465E-2));
#137=VERTEX_POINT('',#135);
#138=VERTEX_POINT('',#136);
#139=CARTESIAN_POINT('',(-7.480314960630E-2,-5.629921259843E-2,
-1.141732283465E-2));
#140=VERTEX_POINT('',#139);
#141=CARTESIAN_POINT('',(-8.267716535433E-2,-5.629921259843E-2,
-1.141732283465E-2));
#142=VERTEX_POINT('',#141);
#143=CARTESIAN_POINT('',(-8.267716535433E-2,-5.629921259843E-2,
7.874015748031E-3));
#144=VERTEX_POINT('',#143);
#145=CARTESIAN_POINT('',(-7.480314960630E-2,-6.417322834646E-2,
1.968503937008E-3));
#146=DIRECTION('',(-1.E0,0.E0,0.E0));
#147=DIRECTION('',(0.E0,-1.E0,0.E0));
#148=AXIS2_PLACEMENT_3D('',#145,#146,#147);
#149=PLANE('',#148);
#151=ORIENTED_EDGE('',*,*,#150,.F.);
#153=ORIENTED_EDGE('',*,*,#152,.F.);
#155=ORIENTED_EDGE('',*,*,#154,.F.);
#157=ORIENTED_EDGE('',*,*,#156,.F.);
#159=ORIENTED_EDGE('',*,*,#158,.F.);
#160=EDGE_LOOP('',(#151,#153,#155,#157,#159));
#161=FACE_OUTER_BOUND('',#160,.F.);
#163=FILL_AREA_STYLE_COLOUR('',#12);
#164=FILL_AREA_STYLE('',(#163));
#165=SURFACE_STYLE_FILL_AREA(#164);
#166=SURFACE_SIDE_STYLE('',(#165));
#167=SURFACE_STYLE_USAGE(.BOTH.,#166);
#168=PRESENTATION_STYLE_ASSIGNMENT((#167));
#169=OVER_RIDING_STYLED_ITEM('',(#168),#162,#16);
#170=CARTESIAN_POINT('',(-7.480314960630E-2,-6.417322834646E-2,
7.874015748031E-3));
#171=DIRECTION('',(0.E0,0.E0,-1.E0));
#172=DIRECTION('',(-1.E0,0.E0,0.E0));
#173=AXIS2_PLACEMENT_3D('',#170,#171,#172);
#174=PLANE('',#173);
#176=ORIENTED_EDGE('',*,*,#175,.F.);
#178=ORIENTED_EDGE('',*,*,#177,.F.);
#179=ORIENTED_EDGE('',*,*,#150,.T.);
#181=ORIENTED_EDGE('',*,*,#180,.T.);
#182=EDGE_LOOP('',(#176,#178,#179,#181));
#183=FACE_OUTER_BOUND('',#182,.F.);
#185=FILL_AREA_STYLE_COLOUR('',#12);
#186=FILL_AREA_STYLE('',(#185));
#187=SURFACE_STYLE_FILL_AREA(#186);
#188=SURFACE_SIDE_STYLE('',(#187));
#189=SURFACE_STYLE_USAGE(.BOTH.,#188);
#190=PRESENTATION_STYLE_ASSIGNMENT((#189));
#191=OVER_RIDING_STYLED_ITEM('',(#190),#184,#16);
#192=CARTESIAN_POINT('',(-8.267716535433E-2,-6.417322834646E-2,
1.968503937008E-3));
#193=DIRECTION('',(1.E0,0.E0,0.E0));
#194=DIRECTION('',(0.E0,1.E0,0.E0));
#195=AXIS2_PLACEMENT_3D('',#192,#193,#194);
#196=PLANE('',#195);
#198=ORIENTED_EDGE('',*,*,#197,.F.);
#200=ORIENTED_EDGE('',*,*,#199,.F.);
#202=ORIENTED_EDGE('',*,*,#201,.F.);
#203=ORIENTED_EDGE('',*,*,#175,.T.);
#205=ORIENTED_EDGE('',*,*,#204,.F.);
#206=EDGE_LOOP('',(#198,#200,#202,#203,#205));
#207=FACE_OUTER_BOUND('',#206,.F.);
#209=FILL_AREA_STYLE_COLOUR('',#12);
#210=FILL_AREA_STYLE('',(#209));
#211=SURFACE_STYLE_FILL_AREA(#210);
#212=SURFACE_SIDE_STYLE('',(#211));
#213=SURFACE_STYLE_USAGE(.BOTH.,#212);
#214=PRESENTATION_STYLE_ASSIGNMENT((#213));
#215=OVER_RIDING_STYLED_ITEM('',(#214),#208,#16);
#216=CARTESIAN_POINT('',(0.E0,-6.417322834646E-2,0.E0));
#217=DIRECTION('',(0.E0,-1.E0,0.E0));
#218=DIRECTION('',(0.E0,0.E0,-1.E0));
#219=AXIS2_PLACEMENT_3D('',#216,#217,#218);
#220=PLANE('',#219);
#222=ORIENTED_EDGE('',*,*,#221,.F.);
#223=ORIENTED_EDGE('',*,*,#156,.T.);
#225=ORIENTED_EDGE('',*,*,#224,.T.);
#226=ORIENTED_EDGE('',*,*,#197,.T.);
#227=EDGE_LOOP('',(#222,#223,#225,#226));
#228=FACE_OUTER_BOUND('',#227,.F.);
#230=FILL_AREA_STYLE_COLOUR('',#12);
#231=FILL_AREA_STYLE('',(#230));
#232=SURFACE_STYLE_FILL_AREA(#231);
#233=SURFACE_SIDE_STYLE('',(#232));
#234=SURFACE_STYLE_USAGE(.BOTH.,#233);
#235=PRESENTATION_STYLE_ASSIGNMENT((#234));
#236=OVER_RIDING_STYLED_ITEM('',(#235),#229,#16);
#237=CARTESIAN_POINT('',(1.546771344943E-1,-6.023622047244E-2,
3.937007758408E-3));
#238=DIRECTION('',(-1.E0,0.E0,0.E0));
#239=DIRECTION('',(0.E0,-1.E0,0.E0));
#240=AXIS2_PLACEMENT_3D('',#237,#238,#239);
#241=CYLINDRICAL_SURFACE('',#240,3.937007989624E-3);
#242=ORIENTED_EDGE('',*,*,#180,.F.);
#243=ORIENTED_EDGE('',*,*,#158,.T.);
#244=ORIENTED_EDGE('',*,*,#221,.T.);
#245=ORIENTED_EDGE('',*,*,#204,.T.);
#246=EDGE_LOOP('',(#242,#243,#244,#245));
#247=FACE_OUTER_BOUND('',#246,.F.);
#249=CARTESIAN_POINT('',(-8.267716535433E-2,-6.417322834646E-2,
-1.141732283465E-2));
#250=DIRECTION('',(0.E0,0.E0,1.E0));
#251=DIRECTION('',(1.E0,0.E0,0.E0));
#252=AXIS2_PLACEMENT_3D('',#249,#250,#251);
#253=PLANE('',#252);
#255=ORIENTED_EDGE('',*,*,#254,.F.);
#256=ORIENTED_EDGE('',*,*,#199,.T.);
#257=ORIENTED_EDGE('',*,*,#224,.F.);
#258=ORIENTED_EDGE('',*,*,#154,.T.);
#259=EDGE_LOOP('',(#255,#256,#257,#258));
#260=FACE_OUTER_BOUND('',#259,.F.);
#262=FILL_AREA_STYLE_COLOUR('',#12);
#263=FILL_AREA_STYLE('',(#262));
#264=SURFACE_STYLE_FILL_AREA(#263);
#265=SURFACE_SIDE_STYLE('',(#264));
#266=SURFACE_STYLE_USAGE(.BOTH.,#265);
#267=PRESENTATION_STYLE_ASSIGNMENT((#266));
#268=OVER_RIDING_STYLED_ITEM('',(#267),#261,#16);
#269=CARTESIAN_POINT('',(0.E0,-5.629921259843E-2,0.E0));
#270=DIRECTION('',(0.E0,-1.E0,0.E0));
#271=DIRECTION('',(0.E0,0.E0,-1.E0));
#272=AXIS2_PLACEMENT_3D('',#269,#270,#271);
#273=PLANE('',#272);
#274=ORIENTED_EDGE('',*,*,#152,.T.);
#275=ORIENTED_EDGE('',*,*,#177,.T.);
#276=ORIENTED_EDGE('',*,*,#201,.T.);
#277=ORIENTED_EDGE('',*,*,#254,.T.);
#278=EDGE_LOOP('',(#274,#275,#276,#277));
#279=FACE_OUTER_BOUND('',#278,.F.);
#281=FILL_AREA_STYLE_COLOUR('',#12);
#282=FILL_AREA_STYLE('',(#281));
#283=SURFACE_STYLE_FILL_AREA(#282);
#284=SURFACE_SIDE_STYLE('',(#283));
#285=SURFACE_STYLE_USAGE(.BOTH.,#284);
#286=PRESENTATION_STYLE_ASSIGNMENT((#285));
#287=OVER_RIDING_STYLED_ITEM('',(#286),#280,#16);
#290=FILL_AREA_STYLE_COLOUR('',#9);
#291=FILL_AREA_STYLE('',(#290));
#292=SURFACE_STYLE_FILL_AREA(#291);
#293=SURFACE_SIDE_STYLE('',(#292));
#294=SURFACE_STYLE_USAGE(.BOTH.,#293);
#295=PRESENTATION_STYLE_ASSIGNMENT((#294));
#16=STYLED_ITEM('',(#295),#289);
#296=PRESENTATION_LAYER_ASSIGNMENT('SHELL_59','',(#16,#162,#184,#208,#229,#248,
#261,#280));
#298=LENGTH_MEASURE_WITH_UNIT(LENGTH_MEASURE(2.54E1),#297);
#299=(CONVERSION_BASED_UNIT('INCH',#298)LENGTH_UNIT()NAMED_UNIT(*));
#301=PLANE_ANGLE_MEASURE_WITH_UNIT(PLANE_ANGLE_MEASURE(1.745329251994E-2),#300);
#302=(CONVERSION_BASED_UNIT('DEGREE',#301)NAMED_UNIT(*)PLANE_ANGLE_UNIT());
#304=UNCERTAINTY_MEASURE_WITH_UNIT(LENGTH_MEASURE(1.968503937008E-6),#299,
'closure',
'Maximum model space distance between geometric entities at asserted connectivities');
#306=CARTESIAN_POINT('',(0.E0,0.E0,0.E0));
#307=DIRECTION('',(0.E0,0.E0,1.E0));
#308=DIRECTION('',(1.E0,0.E0,0.E0));
#311=MECHANICAL_DESIGN_GEOMETRIC_PRESENTATION_REPRESENTATION('',(#24,#31,#38,
#45,#53,#60,#67,#74,#81,#88,#96,#103,#110,#117,#124,#169,#191,#215,#236,#268,
#287,#16),#305);
#312=APPLICATION_CONTEXT('automotive design');
#313=APPLICATION_PROTOCOL_DEFINITION('international standard',
'config_control_design',1994,#312);
#314=PRODUCT_DEFINITION_CONTEXT('',#312,'design');
#315=PRODUCT_CONTEXT('',#312,'mechanical');
#316=PRODUCT('CUT-EXTRUDE6400','CUT-EXTRUDE6400','NOT SPECIFIED',(#315));
#317=PRODUCT_DEFINITION_FORMATION_WITH_SPECIFIED_SOURCE('1','LAST_VERSION',#316,
.MADE.);
#325=LENGTH_MEASURE_WITH_UNIT(LENGTH_MEASURE(2.54E1),#324);
#326=(CONVERSION_BASED_UNIT('INCH',#325)LENGTH_UNIT()NAMED_UNIT(*));
#327=DERIVED_UNIT_ELEMENT(#326,2.E0);
#328=AREA_UNIT((#327));
#329=MEASURE_REPRESENTATION_ITEM('surface area measure',AREA_MEASURE(
4.591238986757E-1),#328);
#334=LENGTH_MEASURE_WITH_UNIT(LENGTH_MEASURE(2.54E1),#333);
#335=(CONVERSION_BASED_UNIT('INCH',#334)LENGTH_UNIT()NAMED_UNIT(*));
#336=DERIVED_UNIT_ELEMENT(#335,3.E0);
#337=VOLUME_UNIT((#336));
#338=MEASURE_REPRESENTATION_ITEM('volume measure',VOLUME_MEASURE(
1.917079666214E-2),#337);
#342=CARTESIAN_POINT('centre point',(-2.000000000214E0,-1.528261245053E0,
-4.998507335415E-2));
#347=LENGTH_MEASURE_WITH_UNIT(LENGTH_MEASURE(2.54E1),#346);
#348=(CONVERSION_BASED_UNIT('INCH',#347)LENGTH_UNIT()NAMED_UNIT(*));
#349=DERIVED_UNIT_ELEMENT(#348,2.E0);
#350=AREA_UNIT((#349));
#351=MEASURE_REPRESENTATION_ITEM('surface area measure',AREA_MEASURE(
4.591238986757E-1),#350);
#356=LENGTH_MEASURE_WITH_UNIT(LENGTH_MEASURE(2.54E1),#355);
#357=(CONVERSION_BASED_UNIT('INCH',#356)LENGTH_UNIT()NAMED_UNIT(*));
#358=DERIVED_UNIT_ELEMENT(#357,3.E0);
#359=VOLUME_UNIT((#358));
#360=MEASURE_REPRESENTATION_ITEM('volume measure',VOLUME_MEASURE(
1.917079666214E-2),#359);
#364=CARTESIAN_POINT('centre point',(-2.000000000214E0,-1.528261245053E0,
-4.998507335415E-2));
#1=DRAUGHTING_PRE_DEFINED_COLOUR('green');
#2=COLOUR_RGB('',1.1E-2,1.2E-2,1.E0);
#3=COLOUR_RGB('',2.352941176471E-1,2.352941176471E-1,2.352941176471E-1);
#4=COLOUR_RGB('',4.1E-1,2.61589E-1,1.12848E-1);
#5=COLOUR_RGB('',5.04854E-1,1.5455E-2,1.5455E-2);
#6=COLOUR_RGB('',6.35294E-1,6.86275E-1,7.4902E-1);
#7=COLOUR_RGB('',6.40777E-1,6.40777E-1,6.40777E-1);
#8=COLOUR_RGB('',6.69062E-1,6.69903E-1,6.55217E-1);
#9=COLOUR_RGB('',7.921568627451E-1,8.196078431373E-1,9.333333333333E-1);
#10=COLOUR_RGB('',9.21569E-1,7.05882E-1,4.70588E-1);
#11=DRAUGHTING_PRE_DEFINED_COLOUR('red');
#12=DRAUGHTING_PRE_DEFINED_COLOUR('yellow');
#13=COLOUR_RGB('',1.E0,1.E0,5.3E-1);
#14=COLOUR_RGB('',1.E0,1.E0,9.49E-1);
#15=DRAUGHTING_PRE_DEFINED_COLOUR('white');
#50=CIRCLE('',#49,3.937007989624E-3);
#93=CIRCLE('',#92,3.937007989624E-3);
#150=EDGE_CURVE('',#131,#132,#20,.T.);
#152=EDGE_CURVE('',#140,#131,#28,.T.);
#154=EDGE_CURVE('',#137,#140,#35,.T.);
#156=EDGE_CURVE('',#127,#137,#42,.T.);
#158=EDGE_CURVE('',#132,#127,#50,.T.);
#162=ADVANCED_FACE('',(#161),#149,.F.);
#175=EDGE_CURVE('',#144,#134,#57,.T.);
#177=EDGE_CURVE('',#131,#144,#64,.T.);
#180=EDGE_CURVE('',#132,#134,#107,.T.);
#184=ADVANCED_FACE('',(#183),#174,.F.);
#197=EDGE_CURVE('',#138,#128,#71,.T.);
#199=EDGE_CURVE('',#142,#138,#78,.T.);
#201=EDGE_CURVE('',#144,#142,#85,.T.);
#204=EDGE_CURVE('',#128,#134,#93,.T.);
#208=ADVANCED_FACE('',(#207),#196,.F.);
#221=EDGE_CURVE('',#127,#128,#100,.T.);
#224=EDGE_CURVE('',#137,#138,#121,.T.);
#229=ADVANCED_FACE('',(#228),#220,.T.);
#248=ADVANCED_FACE('',(#247),#241,.T.);
#254=EDGE_CURVE('',#142,#140,#114,.T.);
#261=ADVANCED_FACE('',(#260),#253,.F.);
#280=ADVANCED_FACE('',(#279),#273,.F.);
#288=CLOSED_SHELL('',(#162,#184,#208,#229,#248,#261,#280));
#289=MANIFOLD_SOLID_BREP('',#288);
#297=(LENGTH_UNIT()NAMED_UNIT(*)SI_UNIT(.MILLI.,.METRE.));
#300=(NAMED_UNIT(*)PLANE_ANGLE_UNIT()SI_UNIT($,.RADIAN.));
#303=(NAMED_UNIT(*)SI_UNIT($,.STERADIAN.)SOLID_ANGLE_UNIT());
#305=(GEOMETRIC_REPRESENTATION_CONTEXT(3)GLOBAL_UNCERTAINTY_ASSIGNED_CONTEXT((
#304))GLOBAL_UNIT_ASSIGNED_CONTEXT((#299,#302,#303))REPRESENTATION_CONTEXT
('ID1','3'));
#309=AXIS2_PLACEMENT_3D('',#306,#307,#308);
#310=ADVANCED_BREP_SHAPE_REPRESENTATION('',(#309,#289),#305);
#318=PRODUCT_DEFINITION('design','',#317,#314);
#319=PRODUCT_DEFINITION_SHAPE('','SHAPE FOR CUT-EXTRUDE6400.',#318);
#320=SHAPE_ASPECT('','solid data associated with CUT-EXTRUDE6400',#319,.F.);
#321=PROPERTY_DEFINITION('',
'shape for solid data with which properties are associated',#320);
#322=SHAPE_REPRESENTATION('',(#289),#305);
#323=SHAPE_DEFINITION_REPRESENTATION(#321,#322);
#324=(LENGTH_UNIT()NAMED_UNIT(*)SI_UNIT(.MILLI.,.METRE.));
#330=PROPERTY_DEFINITION('geometric validation property',
'area of CUT-EXTRUDE6400',#320);
#331=REPRESENTATION('surface area',(#329),#305);
#332=PROPERTY_DEFINITION_REPRESENTATION(#330,#331);
#333=(LENGTH_UNIT()NAMED_UNIT(*)SI_UNIT(.MILLI.,.METRE.));
#339=PROPERTY_DEFINITION('geometric validation property',
'volume of CUT-EXTRUDE6400',#320);
#340=REPRESENTATION('volume',(#338),#305);
#341=PROPERTY_DEFINITION_REPRESENTATION(#339,#340);
#343=PROPERTY_DEFINITION('geometric validation property',
'centroid of CUT-EXTRUDE6400',#320);
#344=REPRESENTATION('centroid',(#342),#305);
#345=PROPERTY_DEFINITION_REPRESENTATION(#343,#344);
#346=(LENGTH_UNIT()NAMED_UNIT(*)SI_UNIT(.MILLI.,.METRE.));
#352=PROPERTY_DEFINITION('geometric validation property',
'area of CUT-EXTRUDE6400',#319);
#353=REPRESENTATION('surface area',(#351),#305);
#354=PROPERTY_DEFINITION_REPRESENTATION(#352,#353);
#355=(LENGTH_UNIT()NAMED_UNIT(*)SI_UNIT(.MILLI.,.METRE.));
#361=PROPERTY_DEFINITION('geometric validation property',
'volume of CUT-EXTRUDE6400',#319);
#362=REPRESENTATION('volume',(#360),#305);
#363=PROPERTY_DEFINITION_REPRESENTATION(#361,#362);
#365=PROPERTY_DEFINITION('geometric validation property',
'centroid of CUT-EXTRUDE6400',#319);
#366=REPRESENTATION('centroid',(#364),#305);
#367=PROPERTY_DEFINITION_REPRESENTATION(#365,#366);
#368=SHAPE_DEFINITION_REPRESENTATION(#319,#310);
ENDSEC;
END-ISO-10303-21;
