ISO-10303-21;
HEADER;
FILE_DESCRIPTION((''),'2;1');
FILE_NAME('CUT-EXTRUDE23100','2026-06-15T13:46:10',('Esia'),(''),
'CREO PARAMETRIC BY PTC INC, 2025102','CREO PARAMETRIC BY PTC INC, 2025102','');
FILE_SCHEMA((
'AP242_MANAGED_MODEL_BASED_3D_ENGINEERING_MIM_LF { 1 0 10303 442 1 1 4 }'));
ENDSEC;
DATA;
#17=DIRECTION('',(-4.403293659992E-14,1.E0,0.E0));
#18=VECTOR('',#17,5.042693539668E-3);
#19=CARTESIAN_POINT('',(2.918660417175E-1,-1.206315829903E-1,
6.183626047840E-1));
#20=LINE('',#19,#18);
#21=DRAUGHTING_PRE_DEFINED_CURVE_FONT('continuous');
#22=CURVE_STYLE('',#21,POSITIVE_LENGTH_MEASURE(2.E-2),#5);
#23=PRESENTATION_STYLE_ASSIGNMENT((#22));
#24=STYLED_ITEM('',(#23),#20);
#25=DIRECTION('',(4.946693897382E-1,1.456323433317E-1,8.567925159756E-1));
#26=VECTOR('',#25,2.636004097853E-2);
#27=CARTESIAN_POINT('',(2.703538306342E-1,-1.439639234483E-1,
5.811023622047E-1));
#28=LINE('',#27,#26);
#29=CURVE_STYLE('',#21,POSITIVE_LENGTH_MEASURE(2.E-2),#5);
#30=PRESENTATION_STYLE_ASSIGNMENT((#29));
#31=STYLED_ITEM('',(#30),#28);
#32=DIRECTION('',(-4.946693897382E-1,1.456323433314E-1,-8.567925159756E-1));
#33=VECTOR('',#32,2.636004097830E-2);
#34=CARTESIAN_POINT('',(2.833933360184E-1,-9.609542353064E-2,
6.036874480357E-1));
#35=LINE('',#34,#33);
#36=CURVE_STYLE('',#21,POSITIVE_LENGTH_MEASURE(2.E-2),#5);
#37=PRESENTATION_STYLE_ASSIGNMENT((#36));
#38=STYLED_ITEM('',(#37),#35);
#39=DIRECTION('',(1.E0,1.118205205843E-11,-4.395892701102E-13));
#40=VECTOR('',#39,1.363819533510E-2);
#41=CARTESIAN_POINT('',(2.918660417175E-1,-1.155888894507E-1,
6.183626047840E-1));
#42=LINE('',#41,#40);
#43=CURVE_STYLE('',#21,POSITIVE_LENGTH_MEASURE(2.E-2),#5);
#44=PRESENTATION_STYLE_ASSIGNMENT((#43));
#45=STYLED_ITEM('',(#44),#42);
#46=CARTESIAN_POINT('',(2.918660417175E-1,-1.155888894507E-1,
6.183626047840E-1));
#47=CARTESIAN_POINT('',(2.918660417175E-1,-1.141628941459E-1,
6.183626047840E-1));
#48=CARTESIAN_POINT('',(2.917168595054E-1,-1.115702677733E-1,
6.181042136131E-1));
#49=CARTESIAN_POINT('',(2.910243733021E-1,-1.070702246993E-1,
6.169047923255E-1));
#50=CARTESIAN_POINT('',(2.895801256995E-1,-1.024511787494E-1,
6.144032820991E-1));
#51=CARTESIAN_POINT('',(2.874940792608E-1,-9.894794723264E-2,
6.107901436804E-1));
#52=CARTESIAN_POINT('',(2.853623302311E-1,-9.695016833327E-2,
6.070978460518E-1));
#53=CARTESIAN_POINT('',(2.840993948267E-1,-9.629388371919E-2,
6.049103777647E-1));
#54=CARTESIAN_POINT('',(2.833933360184E-1,-9.609542353064E-2,
6.036874480357E-1));
#56=CURVE_STYLE('',#21,POSITIVE_LENGTH_MEASURE(2.E-2),#5);
#57=PRESENTATION_STYLE_ASSIGNMENT((#56));
#58=STYLED_ITEM('',(#57),#55);
#59=DIRECTION('',(-1.E0,-1.322838081349E-14,6.512433631259E-14));
#60=VECTOR('',#59,1.363819533510E-2);
#61=CARTESIAN_POINT('',(2.970315313535E-1,-9.609542353064E-2,
6.036874480357E-1));
#62=LINE('',#61,#60);
#63=CURVE_STYLE('',#21,POSITIVE_LENGTH_MEASURE(2.E-2),#5);
#64=PRESENTATION_STYLE_ASSIGNMENT((#63));
#65=STYLED_ITEM('',(#64),#62);
#66=CARTESIAN_POINT('',(2.970315313535E-1,-9.609542353064E-2,
6.036874480357E-1));
#67=CARTESIAN_POINT('',(2.977375901617E-1,-9.629388371918E-2,
6.049103777647E-1));
#68=CARTESIAN_POINT('',(2.990005255661E-1,-9.695016833325E-2,
6.070978460517E-1));
#69=CARTESIAN_POINT('',(3.011322745959E-1,-9.894794723256E-2,
6.107901436802E-1));
#70=CARTESIAN_POINT('',(3.032183210346E-1,-1.024511787492E-1,
6.144032820990E-1));
#71=CARTESIAN_POINT('',(3.046625686371E-1,-1.070702246990E-1,
6.169047923254E-1));
#72=CARTESIAN_POINT('',(3.053550548404E-1,-1.115702677729E-1,
6.181042136130E-1));
#73=CARTESIAN_POINT('',(3.055042370526E-1,-1.141628941454E-1,
6.183626047840E-1));
#74=CARTESIAN_POINT('',(3.055042370526E-1,-1.155888894502E-1,
6.183626047840E-1));
#76=CURVE_STYLE('',#21,POSITIVE_LENGTH_MEASURE(2.E-2),#5);
#77=PRESENTATION_STYLE_ASSIGNMENT((#76));
#78=STYLED_ITEM('',(#77),#75);
#79=DIRECTION('',(1.E0,1.017567754884E-14,6.512433631258E-14));
#80=VECTOR('',#79,1.363819533511E-2);
#81=CARTESIAN_POINT('',(2.833933360185E-1,-1.401250489103E-1,
6.036874480359E-1));
#82=LINE('',#81,#80);
#83=CURVE_STYLE('',#21,POSITIVE_LENGTH_MEASURE(2.E-2),#5);
#84=PRESENTATION_STYLE_ASSIGNMENT((#83));
#85=STYLED_ITEM('',(#84),#82);
#86=CARTESIAN_POINT('',(2.833933360185E-1,-1.401250489103E-1,
6.036874480359E-1));
#87=CARTESIAN_POINT('',(2.840993948268E-1,-1.399265887217E-1,
6.049103777649E-1));
#88=CARTESIAN_POINT('',(2.853623302311E-1,-1.392703041076E-1,
6.070978460519E-1));
#89=CARTESIAN_POINT('',(2.874940792609E-1,-1.372725252082E-1,
6.107901436804E-1));
#90=CARTESIAN_POINT('',(2.895801256995E-1,-1.337692936915E-1,
6.144032820992E-1));
#91=CARTESIAN_POINT('',(2.910243733021E-1,-1.291502477416E-1,
6.169047923255E-1));
#92=CARTESIAN_POINT('',(2.917168595054E-1,-1.246502046677E-1,
6.181042136131E-1));
#93=CARTESIAN_POINT('',(2.918660417175E-1,-1.220575782951E-1,
6.183626047840E-1));
#94=CARTESIAN_POINT('',(2.918660417175E-1,-1.206315829903E-1,
6.183626047840E-1));
#96=CURVE_STYLE('',#21,POSITIVE_LENGTH_MEASURE(2.E-2),#5);
#97=PRESENTATION_STYLE_ASSIGNMENT((#96));
#98=STYLED_ITEM('',(#97),#95);
#99=DIRECTION('',(-1.E0,9.764580175873E-12,4.395892701102E-13));
#100=VECTOR('',#99,1.363819533510E-2);
#101=CARTESIAN_POINT('',(3.055042370526E-1,-1.206315829905E-1,
6.183626047840E-1));
#102=LINE('',#101,#100);
#103=CURVE_STYLE('',#21,POSITIVE_LENGTH_MEASURE(2.E-2),#5);
#104=PRESENTATION_STYLE_ASSIGNMENT((#103));
#105=STYLED_ITEM('',(#104),#102);
#106=CARTESIAN_POINT('',(3.055042370526E-1,-1.206315829907E-1,
6.183626047840E-1));
#107=CARTESIAN_POINT('',(3.055042370526E-1,-1.220575782955E-1,
6.183626047840E-1));
#108=CARTESIAN_POINT('',(3.053550548404E-1,-1.246502046680E-1,
6.181042136130E-1));
#109=CARTESIAN_POINT('',(3.046625686372E-1,-1.291502477418E-1,
6.169047923254E-1));
#110=CARTESIAN_POINT('',(3.032183210346E-1,-1.337692936916E-1,
6.144032820991E-1));
#111=CARTESIAN_POINT('',(3.011322745959E-1,-1.372725252083E-1,
6.107901436803E-1));
#112=CARTESIAN_POINT('',(2.990005255662E-1,-1.392703041076E-1,
6.070978460519E-1));
#113=CARTESIAN_POINT('',(2.977375901618E-1,-1.399265887217E-1,
6.049103777649E-1));
#114=CARTESIAN_POINT('',(2.970315313536E-1,-1.401250489103E-1,
6.036874480359E-1));
#116=CURVE_STYLE('',#21,POSITIVE_LENGTH_MEASURE(2.E-2),#5);
#117=PRESENTATION_STYLE_ASSIGNMENT((#116));
#118=STYLED_ITEM('',(#117),#115);
#119=DIRECTION('',(1.953885616984E-13,1.E0,3.435403282610E-13));
#120=VECTOR('',#119,5.170737445564E-2);
#121=CARTESIAN_POINT('',(2.703538306342E-1,-1.439639234483E-1,
5.811023622047E-1));
#122=LINE('',#121,#120);
#123=CURVE_STYLE('',#21,POSITIVE_LENGTH_MEASURE(2.E-2),#5);
#124=PRESENTATION_STYLE_ASSIGNMENT((#123));
#125=STYLED_ITEM('',(#124),#122);
#126=CARTESIAN_POINT('',(2.677165354332E-1,-1.456369009670E-1,
5.712598053616E-1));
#127=CARTESIAN_POINT('',(2.677165321202E-1,-1.453385777174E-1,
5.730149177340E-1));
#128=CARTESIAN_POINT('',(2.681774279611E-1,-1.447623717279E-1,
5.764048857050E-1));
#129=CARTESIAN_POINT('',(2.694731779285E-1,-1.442231905868E-1,
5.795770269746E-1));
#130=CARTESIAN_POINT('',(2.703538306342E-1,-1.439639234483E-1,
5.811023622047E-1));
#132=CURVE_STYLE('',#21,POSITIVE_LENGTH_MEASURE(2.E-2),#5);
#133=PRESENTATION_STYLE_ASSIGNMENT((#132));
#134=STYLED_ITEM('',(#133),#131);
#135=CARTESIAN_POINT('',(2.703538306342E-1,-9.225654899267E-2,
5.811023622047E-1));
#136=CARTESIAN_POINT('',(2.694731779285E-1,-9.199728185415E-2,
5.795770269747E-1));
#137=CARTESIAN_POINT('',(2.681774279611E-1,-9.145810071302E-2,
5.764048857050E-1));
#138=CARTESIAN_POINT('',(2.677165321202E-1,-9.088189472356E-2,
5.730149177341E-1));
#139=CARTESIAN_POINT('',(2.677165354332E-1,-9.058357147395E-2,
5.712598053616E-1));
#141=CURVE_STYLE('',#21,POSITIVE_LENGTH_MEASURE(2.E-2),#5);
#142=PRESENTATION_STYLE_ASSIGNMENT((#141));
#143=STYLED_ITEM('',(#142),#140);
#144=DIRECTION('',(0.E0,1.E0,0.E0));
#145=VECTOR('',#144,5.505332949306E-2);
#146=CARTESIAN_POINT('',(2.677165354332E-1,-1.456369009670E-1,
5.712598053616E-1));
#147=LINE('',#146,#145);
#148=CURVE_STYLE('',#21,POSITIVE_LENGTH_MEASURE(2.E-2),#5);
#149=PRESENTATION_STYLE_ASSIGNMENT((#148));
#150=STYLED_ITEM('',(#149),#147);
#151=CARTESIAN_POINT('',(2.747476127184E-1,-1.481999407230E-1,
5.561807835534E-1));
#152=CARTESIAN_POINT('',(2.742791367749E-1,-1.481331777639E-1,
5.565735672059E-1));
#153=CARTESIAN_POINT('',(2.733755232995E-1,-1.479911938689E-1,
5.574088949621E-1));
#154=CARTESIAN_POINT('',(2.721111830841E-1,-1.477495452868E-1,
5.588305756951E-1));
#155=CARTESIAN_POINT('',(2.709809561477E-1,-1.474859193005E-1,
5.603815551473E-1));
#156=CARTESIAN_POINT('',(2.699889242591E-1,-1.472005049658E-1,
5.620607210546E-1));
#157=CARTESIAN_POINT('',(2.691603840447E-1,-1.468988216441E-1,
5.638356015953E-1));
#158=CARTESIAN_POINT('',(2.685121762707E-1,-1.465875193823E-1,
5.656670728328E-1));
#159=CARTESIAN_POINT('',(2.680482562140E-1,-1.462703638007E-1,
5.675329806559E-1));
#160=CARTESIAN_POINT('',(2.677722522951E-1,-1.459499317102E-1,
5.694181650231E-1));
#161=CARTESIAN_POINT('',(2.677150036990E-1,-1.457408607723E-1,
5.706481831007E-1));
#162=CARTESIAN_POINT('',(2.677165354332E-1,-1.456369009670E-1,
5.712598053616E-1));
#164=CURVE_STYLE('',#21,POSITIVE_LENGTH_MEASURE(2.E-2),#5);
#165=PRESENTATION_STYLE_ASSIGNMENT((#164));
#166=STYLED_ITEM('',(#165),#163);
#167=DIRECTION('',(9.962218692566E-14,-1.E0,-9.408762098535E-14));
#168=VECTOR('',#167,6.017940900504E-2);
#169=CARTESIAN_POINT('',(2.747476127184E-1,-8.802053171796E-2,
5.561807835534E-1));
#170=LINE('',#169,#168);
#171=CURVE_STYLE('',#21,POSITIVE_LENGTH_MEASURE(2.E-2),#5);
#172=PRESENTATION_STYLE_ASSIGNMENT((#171));
#173=STYLED_ITEM('',(#172),#170);
#174=CARTESIAN_POINT('',(2.677165354332E-1,-9.058357147395E-2,
5.712598053616E-1));
#175=CARTESIAN_POINT('',(2.677150019295E-1,-9.047949157072E-2,
5.706474765333E-1));
#176=CARTESIAN_POINT('',(2.677723889110E-1,-9.027031451262E-2,
5.694168341239E-1));
#177=CARTESIAN_POINT('',(2.680482595567E-1,-8.995023991018E-2,
5.675337529507E-1));
#178=CARTESIAN_POINT('',(2.685109081490E-1,-8.963361700005E-2,
5.656709789709E-1));
#179=CARTESIAN_POINT('',(2.691615642087E-1,-8.932106221967E-2,
5.638321388442E-1));
#180=CARTESIAN_POINT('',(2.699908299596E-1,-8.901943390453E-2,
5.620575819216E-1));
#181=CARTESIAN_POINT('',(2.709787375748E-1,-8.873515284140E-2,
5.603850833422E-1));
#182=CARTESIAN_POINT('',(2.721107483389E-1,-8.847097688272E-2,
5.588308682612E-1));
#183=CARTESIAN_POINT('',(2.733765067483E-1,-8.822910780968E-2,
5.574078903231E-1));
#184=CARTESIAN_POINT('',(2.742797036924E-1,-8.808721388514E-2,
5.565730918860E-1));
#185=CARTESIAN_POINT('',(2.747476127184E-1,-8.802053171796E-2,
5.561807835534E-1));
#187=CURVE_STYLE('',#21,POSITIVE_LENGTH_MEASURE(2.E-2),#5);
#188=PRESENTATION_STYLE_ASSIGNMENT((#187));
#189=STYLED_ITEM('',(#188),#186);
#190=DIRECTION('',(-7.615127941959E-1,1.086107738141E-1,6.389851047461E-1));
#191=VECTOR('',#190,2.418666630826E-2);
#192=CARTESIAN_POINT('',(2.931660685611E-1,-1.508268732667E-1,
5.407258640489E-1));
#193=LINE('',#192,#191);
#194=CURVE_STYLE('',#21,POSITIVE_LENGTH_MEASURE(2.E-2),#5);
#195=PRESENTATION_STYLE_ASSIGNMENT((#194));
#196=STYLED_ITEM('',(#195),#193);
#197=DIRECTION('',(7.615127941959E-1,1.086107738138E-1,-6.389851047461E-1));
#198=VECTOR('',#197,2.418666630827E-2);
#199=CARTESIAN_POINT('',(2.747476127184E-1,-8.802053171796E-2,
5.561807835534E-1));
#200=LINE('',#199,#198);
#201=CURVE_STYLE('',#21,POSITIVE_LENGTH_MEASURE(2.E-2),#5);
#202=PRESENTATION_STYLE_ASSIGNMENT((#201));
#203=STYLED_ITEM('',(#202),#200);
#204=DIRECTION('',(0.E0,1.E0,0.E0));
#205=VECTOR('',#204,6.543327409248E-2);
#206=CARTESIAN_POINT('',(2.931660685611E-1,-1.508268732667E-1,
5.407258640489E-1));
#207=LINE('',#206,#205);
#208=CURVE_STYLE('',#21,POSITIVE_LENGTH_MEASURE(2.E-2),#5);
#209=PRESENTATION_STYLE_ASSIGNMENT((#208));
#210=STYLED_ITEM('',(#209),#207);
#211=CARTESIAN_POINT('',(2.952755905512E-1,-1.515958154428E-1,
5.362019795423E-1));
#212=CARTESIAN_POINT('',(2.952755905512E-1,-1.514404369937E-1,
5.371161109041E-1));
#213=CARTESIAN_POINT('',(2.948748592696E-1,-1.511607064829E-1,
5.387618374141E-1));
#214=CARTESIAN_POINT('',(2.938721755698E-1,-1.509275817895E-1,
5.401333699184E-1));
#215=CARTESIAN_POINT('',(2.931660685611E-1,-1.508268732667E-1,
5.407258640489E-1));
#217=CURVE_STYLE('',#21,POSITIVE_LENGTH_MEASURE(2.E-2),#5);
#218=PRESENTATION_STYLE_ASSIGNMENT((#217));
#219=STYLED_ITEM('',(#218),#216);
#220=DIRECTION('',(0.E0,-1.E0,-2.022470749350E-13));
#221=VECTOR('',#220,6.697115844460E-2);
#222=CARTESIAN_POINT('',(2.952755905512E-1,-8.462465699819E-2,
5.362019795423E-1));
#223=LINE('',#222,#221);
#224=CURVE_STYLE('',#21,POSITIVE_LENGTH_MEASURE(2.E-2),#5);
#225=PRESENTATION_STYLE_ASSIGNMENT((#224));
#226=STYLED_ITEM('',(#225),#223);
#227=CARTESIAN_POINT('',(2.931660685611E-1,-8.539359917425E-2,
5.407258640489E-1));
#228=CARTESIAN_POINT('',(2.938721755698E-1,-8.529289065143E-2,
5.401333699184E-1));
#229=CARTESIAN_POINT('',(2.948748592696E-1,-8.505976595807E-2,
5.387618374141E-1));
#230=CARTESIAN_POINT('',(2.952755905512E-1,-8.478003544730E-2,
5.371161109041E-1));
#231=CARTESIAN_POINT('',(2.952755905512E-1,-8.462465699819E-2,
5.362019795423E-1));
#233=CURVE_STYLE('',#21,POSITIVE_LENGTH_MEASURE(2.E-2),#5);
#234=PRESENTATION_STYLE_ASSIGNMENT((#233));
#235=STYLED_ITEM('',(#234),#232);
#236=DIRECTION('',(0.E0,1.391731009598E-1,9.902680687416E-1));
#237=VECTOR('',#236,5.642615850832E-2);
#238=CARTESIAN_POINT('',(2.952755905512E-1,-1.594488188976E-1,
4.803249565298E-1));
#239=LINE('',#238,#237);
#240=CURVE_STYLE('',#21,POSITIVE_LENGTH_MEASURE(2.E-2),#5);
#241=PRESENTATION_STYLE_ASSIGNMENT((#240));
#242=STYLED_ITEM('',(#241),#239);
#243=DIRECTION('',(0.E0,-1.E0,0.E0));
#244=VECTOR('',#243,8.267716535433E-2);
#245=CARTESIAN_POINT('',(2.952755905512E-1,-7.677165354331E-2,
4.144527292400E-1));
#246=LINE('',#245,#244);
#247=CURVE_STYLE('',#21,POSITIVE_LENGTH_MEASURE(2.E-2),#5);
#248=PRESENTATION_STYLE_ASSIGNMENT((#247));
#249=STYLED_ITEM('',(#248),#246);
#250=DIRECTION('',(0.E0,1.391731009601E-1,-9.902680687416E-1));
#251=VECTOR('',#250,5.642615850842E-2);
#252=CARTESIAN_POINT('',(2.952755905512E-1,-8.462465699819E-2,
5.362019795423E-1));
#253=LINE('',#252,#251);
#254=CURVE_STYLE('',#21,POSITIVE_LENGTH_MEASURE(2.E-2),#5);
#255=PRESENTATION_STYLE_ASSIGNMENT((#254));
#256=STYLED_ITEM('',(#255),#253);
#257=DIRECTION('',(-1.E0,3.289960896306E-14,2.067975420535E-13));
#258=VECTOR('',#257,1.181102362205E-2);
#259=CARTESIAN_POINT('',(3.070866141732E-1,-1.515958154428E-1,
5.362019795423E-1));
#260=LINE('',#259,#258);
#261=CURVE_STYLE('',#21,POSITIVE_LENGTH_MEASURE(2.E-2),#5);
#262=PRESENTATION_STYLE_ASSIGNMENT((#261));
#263=STYLED_ITEM('',(#262),#260);
#264=DIRECTION('',(-1.E0,0.E0,0.E0));
#265=VECTOR('',#264,1.181102362205E-2);
#266=CARTESIAN_POINT('',(3.070866141732E-1,-1.594488188976E-1,
4.803249565298E-1));
#267=LINE('',#266,#265);
#268=CURVE_STYLE('',#21,POSITIVE_LENGTH_MEASURE(2.E-2),#5);
#269=PRESENTATION_STYLE_ASSIGNMENT((#268));
#270=STYLED_ITEM('',(#269),#267);
#271=DIRECTION('',(0.E0,0.E0,1.E0));
#272=VECTOR('',#271,6.586235487229E-2);
#273=CARTESIAN_POINT('',(3.070866141732E-1,-1.594488188976E-1,
4.144626016575E-1));
#274=LINE('',#273,#272);
#275=CURVE_STYLE('',#21,POSITIVE_LENGTH_MEASURE(2.E-2),#5);
#276=PRESENTATION_STYLE_ASSIGNMENT((#275));
#277=STYLED_ITEM('',(#276),#274);
#278=DIRECTION('',(9.999996506653E-1,0.E0,8.358643860325E-4));
#279=VECTOR('',#278,1.181102774805E-2);
#280=CARTESIAN_POINT('',(2.952755905512E-1,-1.594488188976E-1,
4.144527292400E-1));
#281=LINE('',#280,#279);
#282=CURVE_STYLE('',#21,POSITIVE_LENGTH_MEASURE(2.E-2),#5);
#283=PRESENTATION_STYLE_ASSIGNMENT((#282));
#284=STYLED_ITEM('',(#283),#281);
#285=DIRECTION('',(0.E0,0.E0,-1.E0));
#286=VECTOR('',#285,6.587222728975E-2);
#287=CARTESIAN_POINT('',(2.952755905512E-1,-1.594488188976E-1,
4.803249565298E-1));
#288=LINE('',#287,#286);
#289=CURVE_STYLE('',#21,POSITIVE_LENGTH_MEASURE(2.E-2),#5);
#290=PRESENTATION_STYLE_ASSIGNMENT((#289));
#291=STYLED_ITEM('',(#290),#288);
#292=DIRECTION('',(0.E0,-1.391731009598E-1,-9.902680687416E-1));
#293=VECTOR('',#292,5.642615850832E-2);
#294=CARTESIAN_POINT('',(3.070866141732E-1,-1.515958154428E-1,
5.362019795423E-1));
#295=LINE('',#294,#293);
#296=CURVE_STYLE('',#21,POSITIVE_LENGTH_MEASURE(2.E-2),#5);
#297=PRESENTATION_STYLE_ASSIGNMENT((#296));
#298=STYLED_ITEM('',(#297),#295);
#299=DIRECTION('',(0.E0,-1.391731009601E-1,9.902680687416E-1));
#300=VECTOR('',#299,5.642615850841E-2);
#301=CARTESIAN_POINT('',(3.070866141732E-1,-7.677165354331E-2,
4.803249565297E-1));
#302=LINE('',#301,#300);
#303=CURVE_STYLE('',#21,POSITIVE_LENGTH_MEASURE(2.E-2),#5);
#304=PRESENTATION_STYLE_ASSIGNMENT((#303));
#305=STYLED_ITEM('',(#304),#302);
#306=DIRECTION('',(0.E0,0.E0,1.E0));
#307=VECTOR('',#306,6.587222728967E-2);
#308=CARTESIAN_POINT('',(2.952755905512E-1,-7.677165354331E-2,
4.144527292400E-1));
#309=LINE('',#308,#307);
#310=CURVE_STYLE('',#21,POSITIVE_LENGTH_MEASURE(2.E-2),#5);
#311=PRESENTATION_STYLE_ASSIGNMENT((#310));
#312=STYLED_ITEM('',(#311),#309);
#313=DIRECTION('',(-9.999996506653E-1,0.E0,-8.358643860278E-4));
#314=VECTOR('',#313,1.181102774805E-2);
#315=CARTESIAN_POINT('',(3.070866141732E-1,-7.677165354331E-2,
4.144626016575E-1));
#316=LINE('',#315,#314);
#317=CURVE_STYLE('',#21,POSITIVE_LENGTH_MEASURE(2.E-2),#5);
#318=PRESENTATION_STYLE_ASSIGNMENT((#317));
#319=STYLED_ITEM('',(#318),#316);
#320=DIRECTION('',(0.E0,0.E0,-1.E0));
#321=VECTOR('',#320,6.586235487221E-2);
#322=CARTESIAN_POINT('',(3.070866141732E-1,-7.677165354331E-2,
4.803249565297E-1));
#323=LINE('',#322,#321);
#324=CURVE_STYLE('',#21,POSITIVE_LENGTH_MEASURE(2.E-2),#5);
#325=PRESENTATION_STYLE_ASSIGNMENT((#324));
#326=STYLED_ITEM('',(#325),#323);
#327=DIRECTION('',(1.E0,0.E0,1.409983241274E-14));
#328=VECTOR('',#327,1.181102362205E-2);
#329=CARTESIAN_POINT('',(2.952755905512E-1,-7.677165354331E-2,
4.803249565297E-1));
#330=LINE('',#329,#328);
#331=CURVE_STYLE('',#21,POSITIVE_LENGTH_MEASURE(2.E-2),#5);
#332=PRESENTATION_STYLE_ASSIGNMENT((#331));
#333=STYLED_ITEM('',(#332),#330);
#334=DIRECTION('',(0.E0,-1.E0,0.E0));
#335=VECTOR('',#334,8.267716535433E-2);
#336=CARTESIAN_POINT('',(3.070866141732E-1,-7.677165354331E-2,
4.144626016575E-1));
#337=LINE('',#336,#335);
#338=CURVE_STYLE('',#21,POSITIVE_LENGTH_MEASURE(2.E-2),#5);
#339=PRESENTATION_STYLE_ASSIGNMENT((#338));
#340=STYLED_ITEM('',(#339),#337);
#341=DIRECTION('',(1.E0,3.172462292867E-14,-2.067975420535E-13));
#342=VECTOR('',#341,1.181102362205E-2);
#343=CARTESIAN_POINT('',(2.952755905512E-1,-8.462465699819E-2,
5.362019795423E-1));
#344=LINE('',#343,#342);
#345=CURVE_STYLE('',#21,POSITIVE_LENGTH_MEASURE(2.E-2),#5);
#346=PRESENTATION_STYLE_ASSIGNMENT((#345));
#347=STYLED_ITEM('',(#346),#344);
#348=DIRECTION('',(0.E0,1.E0,2.022470749350E-13));
#349=VECTOR('',#348,6.697115844460E-2);
#350=CARTESIAN_POINT('',(3.070866141732E-1,-1.515958154428E-1,
5.362019795423E-1));
#351=LINE('',#350,#349);
#352=CURVE_STYLE('',#21,POSITIVE_LENGTH_MEASURE(2.E-2),#5);
#353=PRESENTATION_STYLE_ASSIGNMENT((#352));
#354=STYLED_ITEM('',(#353),#351);
#355=CARTESIAN_POINT('',(3.007580482030E-1,-1.492889889146E-1,
5.497736330622E-1));
#356=CARTESIAN_POINT('',(3.028763692292E-1,-1.495911144831E-1,
5.479961506704E-1));
#357=CARTESIAN_POINT('',(3.058844203285E-1,-1.502904885631E-1,
5.438815531575E-1));
#358=CARTESIAN_POINT('',(3.070866141732E-1,-1.511296800955E-1,
5.389443736278E-1));
#359=CARTESIAN_POINT('',(3.070866141732E-1,-1.515958154428E-1,
5.362019795423E-1));
#361=CURVE_STYLE('',#21,POSITIVE_LENGTH_MEASURE(2.E-2),#5);
#362=PRESENTATION_STYLE_ASSIGNMENT((#361));
#363=STYLED_ITEM('',(#362),#360);
#364=DIRECTION('',(0.E0,-1.E0,0.E0));
#365=VECTOR('',#364,6.235750538827E-2);
#366=CARTESIAN_POINT('',(3.007580482030E-1,-8.693148352635E-2,
5.497736330622E-1));
#367=LINE('',#366,#365);
#368=CURVE_STYLE('',#21,POSITIVE_LENGTH_MEASURE(2.E-2),#5);
#369=PRESENTATION_STYLE_ASSIGNMENT((#368));
#370=STYLED_ITEM('',(#369),#367);
#371=CARTESIAN_POINT('',(3.070866141732E-1,-8.462465699819E-2,
5.362019795423E-1));
#372=CARTESIAN_POINT('',(3.070866141732E-1,-8.509079234550E-2,
5.389443736278E-1));
#373=CARTESIAN_POINT('',(3.058844203285E-1,-8.592998387783E-2,
5.438815531575E-1));
#374=CARTESIAN_POINT('',(3.028763692292E-1,-8.662935795789E-2,
5.479961506704E-1));
#375=CARTESIAN_POINT('',(3.007580482030E-1,-8.693148352635E-2,
5.497736330622E-1));
#377=CURVE_STYLE('',#21,POSITIVE_LENGTH_MEASURE(2.E-2),#5);
#378=PRESENTATION_STYLE_ASSIGNMENT((#377));
#379=STYLED_ITEM('',(#378),#376);
#380=DIRECTION('',(7.615127941942E-1,-1.086107738145E-1,-6.389851047482E-1));
#381=VECTOR('',#380,2.418579609118E-2);
#382=CARTESIAN_POINT('',(2.823402550418E-1,-1.466621508858E-1,
5.652279965109E-1));
#383=LINE('',#382,#381);
#384=CURVE_STYLE('',#21,POSITIVE_LENGTH_MEASURE(2.E-2),#5);
#385=PRESENTATION_STYLE_ASSIGNMENT((#384));
#386=STYLED_ITEM('',(#385),#383);
#387=DIRECTION('',(-7.615127941942E-1,-1.086107738142E-1,6.389851047482E-1));
#388=VECTOR('',#387,2.418579609117E-2);
#389=CARTESIAN_POINT('',(3.007580482030E-1,-8.693148352635E-2,
5.497736330622E-1));
#390=LINE('',#389,#388);
#391=CURVE_STYLE('',#21,POSITIVE_LENGTH_MEASURE(2.E-2),#5);
#392=PRESENTATION_STYLE_ASSIGNMENT((#391));
#393=STYLED_ITEM('',(#392),#390);
#394=DIRECTION('',(3.985647244952E-14,1.E0,-2.527483618750E-14));
#395=VECTOR('',#394,5.710382933071E-2);
#396=CARTESIAN_POINT('',(2.823402550418E-1,-1.466621508858E-1,
5.652279965109E-1));
#397=LINE('',#396,#395);
#398=CURVE_STYLE('',#21,POSITIVE_LENGTH_MEASURE(2.E-2),#5);
#399=PRESENTATION_STYLE_ASSIGNMENT((#398));
#400=STYLED_ITEM('',(#399),#397);
#401=CARTESIAN_POINT('',(2.795282977456E-1,-1.456369064879E-1,
5.712597728810E-1));
#402=CARTESIAN_POINT('',(2.795275870109E-1,-1.456838296545E-1,
5.709837118283E-1));
#403=CARTESIAN_POINT('',(2.795568478627E-1,-1.457780580532E-1,
5.704293419341E-1));
#404=CARTESIAN_POINT('',(2.796968490994E-1,-1.459221406809E-1,
5.695816667935E-1));
#405=CARTESIAN_POINT('',(2.799314312339E-1,-1.460641873160E-1,
5.687459699207E-1));
#406=CARTESIAN_POINT('',(2.802603134605E-1,-1.462031983686E-1,
5.679281321607E-1));
#407=CARTESIAN_POINT('',(2.806754075796E-1,-1.463349790680E-1,
5.671528324266E-1));
#408=CARTESIAN_POINT('',(2.811643828172E-1,-1.464566354156E-1,
5.664370968575E-1));
#409=CARTESIAN_POINT('',(2.817247123293E-1,-1.465677394667E-1,
5.657834431613E-1));
#410=CARTESIAN_POINT('',(2.821293180930E-1,-1.466320851591E-1,
5.654048809108E-1));
#411=CARTESIAN_POINT('',(2.823402550418E-1,-1.466621508858E-1,
5.652279965109E-1));
#413=CURVE_STYLE('',#21,POSITIVE_LENGTH_MEASURE(2.E-2),#5);
#414=PRESENTATION_STYLE_ASSIGNMENT((#413));
#415=STYLED_ITEM('',(#414),#412);
#416=DIRECTION('',(0.E0,-1.E0,0.E0));
#417=VECTOR('',#416,5.505334053476E-2);
#418=CARTESIAN_POINT('',(2.795282977456E-1,-9.058356595310E-2,
5.712597728810E-1));
#419=LINE('',#418,#417);
#420=CURVE_STYLE('',#21,POSITIVE_LENGTH_MEASURE(2.E-2),#5);
#421=PRESENTATION_STYLE_ASSIGNMENT((#420));
#422=STYLED_ITEM('',(#421),#419);
#423=CARTESIAN_POINT('',(2.823402550418E-1,-8.955832155512E-2,
5.652279965109E-1));
#424=CARTESIAN_POINT('',(2.821290583821E-1,-8.958842429955E-2,
5.654050986954E-1));
#425=CARTESIAN_POINT('',(2.817242034934E-1,-8.965283370637E-2,
5.657840357946E-1));
#426=CARTESIAN_POINT('',(2.811651258709E-1,-8.976368269318E-2,
5.664361888817E-1));
#427=CARTESIAN_POINT('',(2.806754154349E-1,-8.988546152129E-2,
5.671526450353E-1));
#428=CARTESIAN_POINT('',(2.802595328134E-1,-9.001755754068E-2,
5.679297998775E-1));
#429=CARTESIAN_POINT('',(2.799315640918E-1,-9.015626856124E-2,
5.687458724722E-1));
#430=CARTESIAN_POINT('',(2.796970930601E-1,-9.029811716917E-2,5.695804043E-1));
#431=CARTESIAN_POINT('',(2.795567212806E-1,-9.044254009083E-2,
5.704300814774E-1));
#432=CARTESIAN_POINT('',(2.795275878438E-1,-9.053669777273E-2,
5.709840353267E-1));
#433=CARTESIAN_POINT('',(2.795282977456E-1,-9.058356595310E-2,
5.712597728810E-1));
#435=CURVE_STYLE('',#21,POSITIVE_LENGTH_MEASURE(2.E-2),#5);
#436=PRESENTATION_STYLE_ASSIGNMENT((#435));
#437=STYLED_ITEM('',(#436),#434);
#438=CARTESIAN_POINT('',(2.805824771355E-1,-1.449677061700E-1,
5.751968503937E-1));
#439=CARTESIAN_POINT('',(2.804492415027E-1,-1.450068828026E-1,
5.749663641919E-1));
#440=CARTESIAN_POINT('',(2.802059185987E-1,-1.450878832668E-1,
5.744898176374E-1));
#441=CARTESIAN_POINT('',(2.799093006199E-1,-1.452188339147E-1,
5.737194013098E-1));
#442=CARTESIAN_POINT('',(2.796926267008E-1,-1.453555069575E-1,
5.729153186625E-1));
#443=CARTESIAN_POINT('',(2.795596267763E-1,-1.454965027508E-1,
5.720858041624E-1));
#444=CARTESIAN_POINT('',(2.795292429118E-1,-1.455900006589E-1,
5.715357319315E-1));
#445=CARTESIAN_POINT('',(2.795282977456E-1,-1.456369064879E-1,
5.712597728810E-1));
#447=CURVE_STYLE('',#21,POSITIVE_LENGTH_MEASURE(2.E-2),#5);
#448=PRESENTATION_STYLE_ASSIGNMENT((#447));
#449=STYLED_ITEM('',(#448),#446);
#450=DIRECTION('',(0.E0,-1.E0,0.E0));
#451=VECTOR('',#450,5.371493989900E-2);
#452=CARTESIAN_POINT('',(2.805824771355E-1,-9.125276627098E-2,
5.751968503937E-1));
#453=LINE('',#452,#451);
#454=CURVE_STYLE('',#21,POSITIVE_LENGTH_MEASURE(2.E-2),#5);
#455=PRESENTATION_STYLE_ASSIGNMENT((#454));
#456=STYLED_ITEM('',(#455),#453);
#457=CARTESIAN_POINT('',(2.795282977456E-1,-9.058356595310E-2,
5.712597728810E-1));
#458=CARTESIAN_POINT('',(2.795292470354E-1,-9.063067642190E-2,
5.715369358804E-1));
#459=CARTESIAN_POINT('',(2.795599282612E-1,-9.072447693829E-2,
5.720887884332E-1));
#460=CARTESIAN_POINT('',(2.796931189408E-1,-9.086533258803E-2,
5.729174784328E-1));
#461=CARTESIAN_POINT('',(2.799100989122E-1,-9.100209522235E-2,
5.737220881704E-1));
#462=CARTESIAN_POINT('',(2.802078030272E-1,-9.113329941077E-2,
5.744939961417E-1));
#463=CARTESIAN_POINT('',(2.804501962329E-1,-9.121387036739E-2,
5.749680157932E-1));
#464=CARTESIAN_POINT('',(2.805824771355E-1,-9.125276627098E-2,
5.751968503937E-1));
#466=CURVE_STYLE('',#21,POSITIVE_LENGTH_MEASURE(2.E-2),#5);
#467=PRESENTATION_STYLE_ASSIGNMENT((#466));
#468=STYLED_ITEM('',(#467),#465);
#469=DIRECTION('',(-4.946693897382E-1,-1.456323433317E-1,-8.567925159756E-1));
#470=VECTOR('',#469,3.325262197201E-2);
#471=CARTESIAN_POINT('',(2.970315313536E-1,-1.401250489103E-1,
6.036874480359E-1));
#472=LINE('',#471,#470);
#473=CURVE_STYLE('',#21,POSITIVE_LENGTH_MEASURE(2.E-2),#5);
#474=PRESENTATION_STYLE_ASSIGNMENT((#473));
#475=STYLED_ITEM('',(#474),#472);
#476=DIRECTION('',(-3.302470244807E-14,-1.E0,0.E0));
#477=VECTOR('',#476,5.042693539954E-3);
#478=CARTESIAN_POINT('',(3.055042370526E-1,-1.155888894505E-1,
6.183626047840E-1));
#479=LINE('',#478,#477);
#480=CURVE_STYLE('',#21,POSITIVE_LENGTH_MEASURE(2.E-2),#5);
#481=PRESENTATION_STYLE_ASSIGNMENT((#480));
#482=STYLED_ITEM('',(#481),#479);
#483=DIRECTION('',(4.946693897382E-1,-1.456323433314E-1,8.567925159756E-1));
#484=VECTOR('',#483,3.325262197179E-2);
#485=CARTESIAN_POINT('',(2.805824771355E-1,-9.125276627098E-2,
5.751968503937E-1));
#486=LINE('',#485,#484);
#487=CURVE_STYLE('',#21,POSITIVE_LENGTH_MEASURE(2.E-2),#5);
#488=PRESENTATION_STYLE_ASSIGNMENT((#487));
#489=STYLED_ITEM('',(#488),#486);
#490=CARTESIAN_POINT('',(2.970315313535E-1,-9.609542353064E-2,
6.036874480357E-1));
#491=CARTESIAN_POINT('',(2.833933360184E-1,-9.609542353064E-2,
6.036874480357E-1));
#492=VERTEX_POINT('',#490);
#493=VERTEX_POINT('',#491);
#494=CARTESIAN_POINT('',(2.918660417175E-1,-1.155888894507E-1,
6.183626047840E-1));
#495=CARTESIAN_POINT('',(3.055042370526E-1,-1.155888894505E-1,
6.183626047840E-1));
#496=VERTEX_POINT('',#494);
#497=VERTEX_POINT('',#495);
#498=CARTESIAN_POINT('',(2.703538306342E-1,-9.225654899266E-2,
5.811023622047E-1));
#499=VERTEX_POINT('',#498);
#500=VERTEX_POINT('',#371);
#501=VERTEX_POINT('',#375);
#502=CARTESIAN_POINT('',(2.823402550418E-1,-8.955832155512E-2,
5.652279965109E-1));
#503=VERTEX_POINT('',#502);
#504=CARTESIAN_POINT('',(2.805824771355E-1,-9.125276627098E-2,
5.751968503937E-1));
#505=VERTEX_POINT('',#504);
#506=VERTEX_POINT('',#457);
#507=CARTESIAN_POINT('',(2.805824771355E-1,-1.449677061700E-1,
5.751968503937E-1));
#508=VERTEX_POINT('',#507);
#509=CARTESIAN_POINT('',(2.795282977456E-1,-1.456369064879E-1,
5.712597728810E-1));
#510=VERTEX_POINT('',#509);
#511=CARTESIAN_POINT('',(2.970315313536E-1,-1.401250489103E-1,
6.036874480359E-1));
#512=VERTEX_POINT('',#511);
#513=CARTESIAN_POINT('',(3.070866141732E-1,-1.594488188976E-1,
4.803249565298E-1));
#514=CARTESIAN_POINT('',(2.952755905512E-1,-1.594488188976E-1,
4.803249565298E-1));
#515=VERTEX_POINT('',#513);
#516=VERTEX_POINT('',#514);
#517=CARTESIAN_POINT('',(3.055042370526E-1,-1.206315829905E-1,
6.183626047840E-1));
#518=VERTEX_POINT('',#517);
#519=VERTEX_POINT('',#411);
#520=CARTESIAN_POINT('',(3.070866141732E-1,-1.515958154428E-1,
5.362019795423E-1));
#521=VERTEX_POINT('',#520);
#522=CARTESIAN_POINT('',(2.952755905512E-1,-1.515958154428E-1,
5.362019795423E-1));
#523=VERTEX_POINT('',#522);
#524=CARTESIAN_POINT('',(3.070866141732E-1,-7.677165354331E-2,
4.803249565297E-1));
#525=VERTEX_POINT('',#524);
#526=CARTESIAN_POINT('',(2.952755905512E-1,-8.462465699819E-2,
5.362019795423E-1));
#527=VERTEX_POINT('',#526);
#528=CARTESIAN_POINT('',(2.918660417175E-1,-1.206315829903E-1,
6.183626047840E-1));
#529=VERTEX_POINT('',#528);
#530=CARTESIAN_POINT('',(2.833933360185E-1,-1.401250489103E-1,
6.036874480359E-1));
#531=VERTEX_POINT('',#530);
#532=CARTESIAN_POINT('',(2.952755905512E-1,-7.677165354331E-2,
4.803249565297E-1));
#533=VERTEX_POINT('',#532);
#534=CARTESIAN_POINT('',(2.952755905512E-1,-7.677165354331E-2,
4.144527292400E-1));
#535=VERTEX_POINT('',#534);
#536=CARTESIAN_POINT('',(3.070866141732E-1,-7.677165354331E-2,
4.144626016575E-1));
#537=VERTEX_POINT('',#536);
#538=VERTEX_POINT('',#151);
#539=VERTEX_POINT('',#162);
#540=CARTESIAN_POINT('',(2.747476127184E-1,-8.802053171796E-2,
5.561807835534E-1));
#541=VERTEX_POINT('',#540);
#542=VERTEX_POINT('',#174);
#543=VERTEX_POINT('',#130);
#544=CARTESIAN_POINT('',(2.931660685611E-1,-1.508268732667E-1,
5.407258640489E-1));
#545=VERTEX_POINT('',#544);
#546=CARTESIAN_POINT('',(2.952755905512E-1,-1.594488188976E-1,
4.144527292400E-1));
#547=VERTEX_POINT('',#546);
#548=CARTESIAN_POINT('',(2.931660685611E-1,-8.539359917425E-2,
5.407258640489E-1));
#549=VERTEX_POINT('',#548);
#550=VERTEX_POINT('',#355);
#551=CARTESIAN_POINT('',(3.070866141732E-1,-1.594488188976E-1,
4.144626016575E-1));
#552=VERTEX_POINT('',#551);
#553=CARTESIAN_POINT('',(2.868028848521E-1,-1.594488188976E-1,
6.095929598466E-1));
#554=DIRECTION('',(8.660254037844E-1,0.E0,-5.E-1));
#555=DIRECTION('',(-5.E-1,0.E0,-8.660254037844E-1));
#556=AXIS2_PLACEMENT_3D('',#553,#554,#555);
#557=PLANE('',#556);
#559=ORIENTED_EDGE('',*,*,#558,.F.);
#561=ORIENTED_EDGE('',*,*,#560,.F.);
#563=ORIENTED_EDGE('',*,*,#562,.F.);
#565=ORIENTED_EDGE('',*,*,#564,.F.);
#567=ORIENTED_EDGE('',*,*,#566,.T.);
#569=ORIENTED_EDGE('',*,*,#568,.F.);
#570=EDGE_LOOP('',(#559,#561,#563,#565,#567,#569));
#571=FACE_OUTER_BOUND('',#570,.F.);
#573=CARTESIAN_POINT('',(2.322834645669E-1,-1.155888894507E-1,
6.013148606151E-1));
#574=DIRECTION('',(-1.E0,0.E0,0.E0));
#575=DIRECTION('',(0.E0,-1.E0,0.E0));
#576=AXIS2_PLACEMENT_3D('',#573,#574,#575);
#579=DIRECTION('',(1.E0,0.E0,0.E0));
#580=VECTOR('',#579,1.E0);
#581=SURFACE_OF_LINEAR_EXTRUSION('',#578,#580);
#583=ORIENTED_EDGE('',*,*,#582,.F.);
#584=ORIENTED_EDGE('',*,*,#558,.T.);
#586=ORIENTED_EDGE('',*,*,#585,.F.);
#588=ORIENTED_EDGE('',*,*,#587,.T.);
#589=EDGE_LOOP('',(#583,#584,#586,#588));
#590=FACE_OUTER_BOUND('',#589,.F.);
#592=CARTESIAN_POINT('',(2.322834645669E-1,-1.155888894507E-1,
6.183626047840E-1));
#593=DIRECTION('',(0.E0,0.E0,-1.E0));
#594=DIRECTION('',(-1.E0,0.E0,0.E0));
#595=AXIS2_PLACEMENT_3D('',#592,#593,#594);
#596=PLANE('',#595);
#598=ORIENTED_EDGE('',*,*,#597,.T.);
#599=ORIENTED_EDGE('',*,*,#560,.T.);
#600=ORIENTED_EDGE('',*,*,#582,.T.);
#602=ORIENTED_EDGE('',*,*,#601,.T.);
#603=EDGE_LOOP('',(#598,#599,#600,#602));
#604=FACE_OUTER_BOUND('',#603,.F.);
#606=CARTESIAN_POINT('',(2.322834645669E-1,-1.206315829902E-1,
6.013148606151E-1));
#607=DIRECTION('',(-1.E0,0.E0,0.E0));
#608=DIRECTION('',(0.E0,-1.E0,0.E0));
#609=AXIS2_PLACEMENT_3D('',#606,#607,#608);
#612=DIRECTION('',(1.E0,0.E0,0.E0));
#613=VECTOR('',#612,1.E0);
#614=SURFACE_OF_LINEAR_EXTRUSION('',#611,#613);
#616=ORIENTED_EDGE('',*,*,#615,.F.);
#617=ORIENTED_EDGE('',*,*,#562,.T.);
#618=ORIENTED_EDGE('',*,*,#597,.F.);
#620=ORIENTED_EDGE('',*,*,#619,.T.);
#621=EDGE_LOOP('',(#616,#617,#618,#620));
#622=FACE_OUTER_BOUND('',#621,.F.);
#624=CARTESIAN_POINT('',(2.322834645669E-1,-1.515958154428E-1,
5.362019795423E-1));
#625=DIRECTION('',(0.E0,9.858601019494E-1,-1.675704609542E-1));
#626=DIRECTION('',(0.E0,1.675704609542E-1,9.858601019494E-1));
#627=AXIS2_PLACEMENT_3D('',#624,#625,#626);
#628=PLANE('',#627);
#630=ORIENTED_EDGE('',*,*,#629,.T.);
#631=ORIENTED_EDGE('',*,*,#564,.T.);
#632=ORIENTED_EDGE('',*,*,#615,.T.);
#634=ORIENTED_EDGE('',*,*,#633,.T.);
#636=ORIENTED_EDGE('',*,*,#635,.T.);
#638=ORIENTED_EDGE('',*,*,#637,.T.);
#640=ORIENTED_EDGE('',*,*,#639,.T.);
#642=ORIENTED_EDGE('',*,*,#641,.T.);
#644=ORIENTED_EDGE('',*,*,#643,.T.);
#646=ORIENTED_EDGE('',*,*,#645,.T.);
#648=ORIENTED_EDGE('',*,*,#647,.T.);
#650=ORIENTED_EDGE('',*,*,#649,.T.);
#651=EDGE_LOOP('',(#630,#631,#632,#634,#636,#638,#640,#642,#644,#646,#648,
#650));
#652=FACE_OUTER_BOUND('',#651,.F.);
#654=CARTESIAN_POINT('',(2.874015748032E-1,-1.594488188976E-1,
5.712598425197E-1));
#655=DIRECTION('',(0.E0,1.E0,0.E0));
#656=DIRECTION('',(0.E0,0.E0,1.E0));
#657=AXIS2_PLACEMENT_3D('',#654,#655,#656);
#658=CYLINDRICAL_SURFACE('',#657,1.968503937006E-2);
#659=ORIENTED_EDGE('',*,*,#566,.F.);
#660=ORIENTED_EDGE('',*,*,#629,.F.);
#662=ORIENTED_EDGE('',*,*,#661,.T.);
#664=ORIENTED_EDGE('',*,*,#663,.F.);
#665=EDGE_LOOP('',(#659,#660,#662,#664));
#666=FACE_OUTER_BOUND('',#665,.F.);
#668=CARTESIAN_POINT('',(2.677177666808E-1,-1.594488188976E-1,
5.714314762770E-1));
#669=CARTESIAN_POINT('',(2.676485964307E-1,-1.594488188976E-1,
5.655917486304E-1));
#670=CARTESIAN_POINT('',(2.703674273355E-1,-1.594488188976E-1,
5.597839058687E-1));
#671=CARTESIAN_POINT('',(2.748796960368E-1,-1.594488188976E-1,
5.560710747157E-1));
#673=DIRECTION('',(0.E0,1.E0,0.E0));
#674=VECTOR('',#673,1.E0);
#675=SURFACE_OF_LINEAR_EXTRUSION('',#672,#674);
#676=ORIENTED_EDGE('',*,*,#661,.F.);
#677=ORIENTED_EDGE('',*,*,#649,.F.);
#679=ORIENTED_EDGE('',*,*,#678,.F.);
#681=ORIENTED_EDGE('',*,*,#680,.F.);
#682=EDGE_LOOP('',(#676,#677,#679,#681));
#683=FACE_OUTER_BOUND('',#682,.F.);
#685=CARTESIAN_POINT('',(2.747476127184E-1,-1.594488188976E-1,
5.561807835534E-1));
#686=DIRECTION('',(6.427876096863E-1,0.E0,7.660444431192E-1));
#687=DIRECTION('',(7.660444431192E-1,0.E0,-6.427876096863E-1));
#688=AXIS2_PLACEMENT_3D('',#685,#686,#687);
#689=PLANE('',#688);
#690=ORIENTED_EDGE('',*,*,#678,.T.);
#691=ORIENTED_EDGE('',*,*,#647,.F.);
#693=ORIENTED_EDGE('',*,*,#692,.T.);
#695=ORIENTED_EDGE('',*,*,#694,.F.);
#696=EDGE_LOOP('',(#690,#691,#693,#695));
#697=FACE_OUTER_BOUND('',#696,.F.);
#699=CARTESIAN_POINT('',(2.893700787402E-1,-1.594488188976E-1,
5.362019795423E-1));
#700=DIRECTION('',(0.E0,1.E0,0.E0));
#701=DIRECTION('',(0.E0,0.E0,1.E0));
#702=AXIS2_PLACEMENT_3D('',#699,#700,#701);
#703=CYLINDRICAL_SURFACE('',#702,5.905511811009E-3);
#704=ORIENTED_EDGE('',*,*,#692,.F.);
#705=ORIENTED_EDGE('',*,*,#645,.F.);
#707=ORIENTED_EDGE('',*,*,#706,.F.);
#709=ORIENTED_EDGE('',*,*,#708,.F.);
#710=EDGE_LOOP('',(#704,#705,#707,#709));
#711=FACE_OUTER_BOUND('',#710,.F.);
#713=CARTESIAN_POINT('',(2.952755905512E-1,-1.594488188976E-1,
5.362019795423E-1));
#714=DIRECTION('',(1.E0,0.E0,0.E0));
#715=DIRECTION('',(0.E0,1.E0,0.E0));
#716=AXIS2_PLACEMENT_3D('',#713,#714,#715);
#717=PLANE('',#716);
#718=ORIENTED_EDGE('',*,*,#706,.T.);
#720=ORIENTED_EDGE('',*,*,#719,.F.);
#722=ORIENTED_EDGE('',*,*,#721,.T.);
#724=ORIENTED_EDGE('',*,*,#723,.F.);
#726=ORIENTED_EDGE('',*,*,#725,.T.);
#728=ORIENTED_EDGE('',*,*,#727,.F.);
#729=EDGE_LOOP('',(#718,#720,#722,#724,#726,#728));
#730=FACE_OUTER_BOUND('',#729,.F.);
#732=CARTESIAN_POINT('',(2.322834645669E-1,-1.675144080956E-1,
4.229353073570E-1));
#733=DIRECTION('',(0.E0,9.902680687416E-1,-1.391731009598E-1));
#734=DIRECTION('',(0.E0,1.391731009598E-1,9.902680687416E-1));
#735=AXIS2_PLACEMENT_3D('',#732,#733,#734);
#736=PLANE('',#735);
#738=ORIENTED_EDGE('',*,*,#737,.T.);
#739=ORIENTED_EDGE('',*,*,#719,.T.);
#740=ORIENTED_EDGE('',*,*,#643,.F.);
#742=ORIENTED_EDGE('',*,*,#741,.T.);
#743=EDGE_LOOP('',(#738,#739,#740,#742));
#744=FACE_OUTER_BOUND('',#743,.F.);
#746=CARTESIAN_POINT('',(2.874015748032E-1,-1.594488188976E-1,
5.712598425197E-1));
#747=DIRECTION('',(0.E0,-1.E0,0.E0));
#748=DIRECTION('',(0.E0,0.E0,-1.E0));
#749=AXIS2_PLACEMENT_3D('',#746,#747,#748);
#750=PLANE('',#749);
#751=ORIENTED_EDGE('',*,*,#737,.F.);
#753=ORIENTED_EDGE('',*,*,#752,.F.);
#755=ORIENTED_EDGE('',*,*,#754,.F.);
#756=ORIENTED_EDGE('',*,*,#721,.F.);
#757=EDGE_LOOP('',(#751,#753,#755,#756));
#758=FACE_OUTER_BOUND('',#757,.F.);
#760=CARTESIAN_POINT('',(3.070866141732E-1,-1.594488188976E-1,
4.144626016575E-1));
#761=DIRECTION('',(-1.E0,0.E0,0.E0));
#762=DIRECTION('',(0.E0,-1.E0,0.E0));
#763=AXIS2_PLACEMENT_3D('',#760,#761,#762);
#764=PLANE('',#763);
#766=ORIENTED_EDGE('',*,*,#765,.T.);
#768=ORIENTED_EDGE('',*,*,#767,.T.);
#769=ORIENTED_EDGE('',*,*,#752,.T.);
#770=ORIENTED_EDGE('',*,*,#741,.F.);
#772=ORIENTED_EDGE('',*,*,#771,.T.);
#774=ORIENTED_EDGE('',*,*,#773,.F.);
#775=EDGE_LOOP('',(#766,#768,#769,#770,#772,#774));
#776=FACE_OUTER_BOUND('',#775,.F.);
#778=CARTESIAN_POINT('',(2.874015748032E-1,-7.677165354331E-2,
5.712598425197E-1));
#779=DIRECTION('',(0.E0,-1.E0,0.E0));
#780=DIRECTION('',(0.E0,0.E0,-1.E0));
#781=AXIS2_PLACEMENT_3D('',#778,#779,#780);
#782=PLANE('',#781);
#783=ORIENTED_EDGE('',*,*,#725,.F.);
#785=ORIENTED_EDGE('',*,*,#784,.F.);
#786=ORIENTED_EDGE('',*,*,#765,.F.);
#788=ORIENTED_EDGE('',*,*,#787,.F.);
#789=EDGE_LOOP('',(#783,#785,#786,#788));
#790=FACE_OUTER_BOUND('',#789,.F.);
#792=CARTESIAN_POINT('',(3.070866141732E-1,-1.594488188976E-1,
4.144626016575E-1));
#793=DIRECTION('',(-8.358643860317E-4,0.E0,9.999996506653E-1));
#794=DIRECTION('',(9.999996506653E-1,0.E0,8.358643860317E-4));
#795=AXIS2_PLACEMENT_3D('',#792,#793,#794);
#796=PLANE('',#795);
#797=ORIENTED_EDGE('',*,*,#784,.T.);
#798=ORIENTED_EDGE('',*,*,#723,.T.);
#799=ORIENTED_EDGE('',*,*,#754,.T.);
#800=ORIENTED_EDGE('',*,*,#767,.F.);
#801=EDGE_LOOP('',(#797,#798,#799,#800));
#802=FACE_OUTER_BOUND('',#801,.F.);
#804=CARTESIAN_POINT('',(2.322834645669E-1,-8.462465699819E-2,
5.362019795423E-1));
#805=DIRECTION('',(0.E0,-9.902680687416E-1,-1.391731009601E-1));
#806=DIRECTION('',(0.E0,1.391731009601E-1,-9.902680687416E-1));
#807=AXIS2_PLACEMENT_3D('',#804,#805,#806);
#808=PLANE('',#807);
#810=ORIENTED_EDGE('',*,*,#809,.F.);
#811=ORIENTED_EDGE('',*,*,#727,.T.);
#812=ORIENTED_EDGE('',*,*,#787,.T.);
#813=ORIENTED_EDGE('',*,*,#773,.T.);
#814=EDGE_LOOP('',(#810,#811,#812,#813));
#815=FACE_OUTER_BOUND('',#814,.F.);
#817=CARTESIAN_POINT('',(2.322834645669E-1,-8.462465699819E-2,
5.362019795423E-1));
#818=DIRECTION('',(0.E0,-9.858601019494E-1,-1.675704609538E-1));
#819=DIRECTION('',(0.E0,1.675704609538E-1,-9.858601019494E-1));
#820=AXIS2_PLACEMENT_3D('',#817,#818,#819);
#821=PLANE('',#820);
#822=ORIENTED_EDGE('',*,*,#585,.T.);
#823=ORIENTED_EDGE('',*,*,#568,.T.);
#824=ORIENTED_EDGE('',*,*,#663,.T.);
#825=ORIENTED_EDGE('',*,*,#680,.T.);
#826=ORIENTED_EDGE('',*,*,#694,.T.);
#827=ORIENTED_EDGE('',*,*,#708,.T.);
#828=ORIENTED_EDGE('',*,*,#809,.T.);
#830=ORIENTED_EDGE('',*,*,#829,.T.);
#832=ORIENTED_EDGE('',*,*,#831,.T.);
#834=ORIENTED_EDGE('',*,*,#833,.T.);
#836=ORIENTED_EDGE('',*,*,#835,.T.);
#838=ORIENTED_EDGE('',*,*,#837,.T.);
#839=EDGE_LOOP('',(#822,#823,#824,#825,#826,#827,#828,#830,#832,#834,#836,
#838));
#840=FACE_OUTER_BOUND('',#839,.F.);
#842=CARTESIAN_POINT('',(2.893700787402E-1,-1.594488188976E-1,
5.362019795423E-1));
#843=DIRECTION('',(0.E0,1.E0,0.E0));
#844=DIRECTION('',(0.E0,0.E0,1.E0));
#845=AXIS2_PLACEMENT_3D('',#842,#843,#844);
#846=CYLINDRICAL_SURFACE('',#845,1.771653543306E-2);
#847=ORIENTED_EDGE('',*,*,#771,.F.);
#848=ORIENTED_EDGE('',*,*,#641,.F.);
#850=ORIENTED_EDGE('',*,*,#849,.F.);
#851=ORIENTED_EDGE('',*,*,#829,.F.);
#852=EDGE_LOOP('',(#847,#848,#850,#851));
#853=FACE_OUTER_BOUND('',#852,.F.);
#855=CARTESIAN_POINT('',(3.007580482030E-1,-1.594488188976E-1,
5.497736330622E-1));
#856=DIRECTION('',(-6.427876096883E-1,0.E0,-7.660444431175E-1));
#857=DIRECTION('',(-7.660444431175E-1,0.E0,6.427876096883E-1));
#858=AXIS2_PLACEMENT_3D('',#855,#856,#857);
#859=PLANE('',#858);
#860=ORIENTED_EDGE('',*,*,#849,.T.);
#861=ORIENTED_EDGE('',*,*,#639,.F.);
#863=ORIENTED_EDGE('',*,*,#862,.T.);
#864=ORIENTED_EDGE('',*,*,#831,.F.);
#865=EDGE_LOOP('',(#860,#861,#863,#864));
#866=FACE_OUTER_BOUND('',#865,.F.);
#868=CARTESIAN_POINT('',(2.824437939758E-1,-1.594488188976E-1,
5.651427504135E-1));
#869=CARTESIAN_POINT('',(2.805917093315E-1,-1.594488188976E-1,
5.666397526316E-1));
#870=CARTESIAN_POINT('',(2.794802482621E-1,-1.594488188976E-1,
5.690142679058E-1));
#871=CARTESIAN_POINT('',(2.795298678584E-1,-1.594488188976E-1,
5.713939322393E-1));
#873=DIRECTION('',(0.E0,1.E0,0.E0));
#874=VECTOR('',#873,1.E0);
#875=SURFACE_OF_LINEAR_EXTRUSION('',#872,#874);
#876=ORIENTED_EDGE('',*,*,#862,.F.);
#877=ORIENTED_EDGE('',*,*,#637,.F.);
#879=ORIENTED_EDGE('',*,*,#878,.F.);
#880=ORIENTED_EDGE('',*,*,#833,.F.);
#881=EDGE_LOOP('',(#876,#877,#879,#880));
#882=FACE_OUTER_BOUND('',#881,.F.);
#884=CARTESIAN_POINT('',(2.795289773634E-1,-1.594488188976E-1,
5.711255632535E-1));
#885=CARTESIAN_POINT('',(2.795091476913E-1,-1.594488188976E-1,
5.725875878290E-1));
#886=CARTESIAN_POINT('',(2.798958299280E-1,-1.594488188976E-1,
5.740587143917E-1));
#887=CARTESIAN_POINT('',(2.806506842532E-1,-1.594488188976E-1,
5.753124560295E-1));
#889=DIRECTION('',(0.E0,1.E0,0.E0));
#890=VECTOR('',#889,1.E0);
#891=SURFACE_OF_LINEAR_EXTRUSION('',#888,#890);
#892=ORIENTED_EDGE('',*,*,#878,.T.);
#893=ORIENTED_EDGE('',*,*,#635,.F.);
#895=ORIENTED_EDGE('',*,*,#894,.F.);
#896=ORIENTED_EDGE('',*,*,#835,.F.);
#897=EDGE_LOOP('',(#892,#893,#895,#896));
#898=FACE_OUTER_BOUND('',#897,.F.);
#900=CARTESIAN_POINT('',(2.805824771355E-1,-1.594488188976E-1,
5.751968503937E-1));
#901=DIRECTION('',(-8.660254037844E-1,0.E0,5.E-1));
#902=DIRECTION('',(5.E-1,0.E0,8.660254037844E-1));
#903=AXIS2_PLACEMENT_3D('',#900,#901,#902);
#904=PLANE('',#903);
#905=ORIENTED_EDGE('',*,*,#894,.T.);
#906=ORIENTED_EDGE('',*,*,#633,.F.);
#907=ORIENTED_EDGE('',*,*,#619,.F.);
#908=ORIENTED_EDGE('',*,*,#601,.F.);
#909=ORIENTED_EDGE('',*,*,#587,.F.);
#910=ORIENTED_EDGE('',*,*,#837,.F.);
#911=EDGE_LOOP('',(#905,#906,#907,#908,#909,#910));
#912=FACE_OUTER_BOUND('',#911,.F.);
#916=FILL_AREA_STYLE_COLOUR('',#5);
#917=FILL_AREA_STYLE('',(#916));
#918=SURFACE_STYLE_FILL_AREA(#917);
#919=SURFACE_SIDE_STYLE('',(#918));
#920=SURFACE_STYLE_USAGE(.BOTH.,#919);
#921=PRESENTATION_STYLE_ASSIGNMENT((#920));
#16=STYLED_ITEM('',(#921),#915);
#922=PRESENTATION_LAYER_ASSIGNMENT('SHELL_240','',(#16,#572,#578,#591,#605,#611,
#623,#653,#667,#672,#684,#698,#712,#731,#745,#759,#777,#791,#803,#816,#841,#854,
#867,#872,#883,#888,#899,#913));
#924=LENGTH_MEASURE_WITH_UNIT(LENGTH_MEASURE(2.54E1),#923);
#925=(CONVERSION_BASED_UNIT('INCH',#924)LENGTH_UNIT()NAMED_UNIT(*));
#927=PLANE_ANGLE_MEASURE_WITH_UNIT(PLANE_ANGLE_MEASURE(1.745329251994E-2),#926);
#928=(CONVERSION_BASED_UNIT('DEGREE',#927)NAMED_UNIT(*)PLANE_ANGLE_UNIT());
#930=UNCERTAINTY_MEASURE_WITH_UNIT(LENGTH_MEASURE(2.235190407130E-5),#925,
'closure',
'Maximum model space distance between geometric entities at asserted connectivities');
#932=CARTESIAN_POINT('',(0.E0,0.E0,0.E0));
#933=DIRECTION('',(0.E0,0.E0,1.E0));
#934=DIRECTION('',(1.E0,0.E0,0.E0));
#937=MECHANICAL_DESIGN_GEOMETRIC_PRESENTATION_REPRESENTATION('',(#24,#31,#38,
#45,#58,#65,#78,#85,#98,#105,#118,#125,#134,#143,#150,#166,#173,#189,#196,#203,
#210,#219,#226,#235,#242,#249,#256,#263,#270,#277,#284,#291,#298,#305,#312,#319,
#326,#333,#340,#347,#354,#363,#370,#379,#386,#393,#400,#415,#422,#437,#449,#456,
#468,#475,#482,#489,#16),#931);
#938=APPLICATION_CONTEXT('automotive design');
#939=APPLICATION_PROTOCOL_DEFINITION('international standard',
'config_control_design',1994,#938);
#940=PRODUCT_DEFINITION_CONTEXT('',#938,'design');
#941=PRODUCT_CONTEXT('',#938,'mechanical');
#942=PRODUCT('CUT-EXTRUDE23100','CUT-EXTRUDE23100','NOT SPECIFIED',(#941));
#943=PRODUCT_DEFINITION_FORMATION_WITH_SPECIFIED_SOURCE('1','LAST_VERSION',#942,
.MADE.);
#951=LENGTH_MEASURE_WITH_UNIT(LENGTH_MEASURE(2.54E1),#950);
#952=(CONVERSION_BASED_UNIT('INCH',#951)LENGTH_UNIT()NAMED_UNIT(*));
#953=DERIVED_UNIT_ELEMENT(#952,2.E0);
#954=AREA_UNIT((#953));
#955=MEASURE_REPRESENTATION_ITEM('surface area measure',AREA_MEASURE(
2.346191997916E1),#954);
#960=LENGTH_MEASURE_WITH_UNIT(LENGTH_MEASURE(2.54E1),#959);
#961=(CONVERSION_BASED_UNIT('INCH',#960)LENGTH_UNIT()NAMED_UNIT(*));
#962=DERIVED_UNIT_ELEMENT(#961,3.E0);
#963=VOLUME_UNIT((#962));
#964=MEASURE_REPRESENTATION_ITEM('volume measure',VOLUME_MEASURE(
2.875922221723E0),#963);
#968=CARTESIAN_POINT('centre point',(7.514193278025E0,-2.999999998597E0,
1.290005327208E1));
#973=LENGTH_MEASURE_WITH_UNIT(LENGTH_MEASURE(2.54E1),#972);
#974=(CONVERSION_BASED_UNIT('INCH',#973)LENGTH_UNIT()NAMED_UNIT(*));
#975=DERIVED_UNIT_ELEMENT(#974,2.E0);
#976=AREA_UNIT((#975));
#977=MEASURE_REPRESENTATION_ITEM('surface area measure',AREA_MEASURE(
2.346191997916E1),#976);
#982=LENGTH_MEASURE_WITH_UNIT(LENGTH_MEASURE(2.54E1),#981);
#983=(CONVERSION_BASED_UNIT('INCH',#982)LENGTH_UNIT()NAMED_UNIT(*));
#984=DERIVED_UNIT_ELEMENT(#983,3.E0);
#985=VOLUME_UNIT((#984));
#986=MEASURE_REPRESENTATION_ITEM('volume measure',VOLUME_MEASURE(
2.875922221723E0),#985);
#990=CARTESIAN_POINT('centre point',(7.514193278025E0,-2.999999998597E0,
1.290005327208E1));
#1=DRAUGHTING_PRE_DEFINED_COLOUR('green');
#2=COLOUR_RGB('',1.1E-2,1.2E-2,1.E0);
#3=COLOUR_RGB('',2.352941176471E-1,2.352941176471E-1,2.352941176471E-1);
#4=COLOUR_RGB('',4.1E-1,2.61589E-1,1.12848E-1);
#5=COLOUR_RGB('',4.980392156863E-1,4.980392156863E-1,4.980392156863E-1);
#6=COLOUR_RGB('',5.04854E-1,1.5455E-2,1.5455E-2);
#7=COLOUR_RGB('',6.35294E-1,6.86275E-1,7.4902E-1);
#8=COLOUR_RGB('',6.40777E-1,6.40777E-1,6.40777E-1);
#9=COLOUR_RGB('',6.69062E-1,6.69903E-1,6.55217E-1);
#10=COLOUR_RGB('',9.21569E-1,7.05882E-1,4.70588E-1);
#11=DRAUGHTING_PRE_DEFINED_COLOUR('red');
#12=DRAUGHTING_PRE_DEFINED_COLOUR('yellow');
#13=COLOUR_RGB('',1.E0,1.E0,5.3E-1);
#14=COLOUR_RGB('',1.E0,1.E0,9.49E-1);
#15=DRAUGHTING_PRE_DEFINED_COLOUR('white');
#55=B_SPLINE_CURVE_WITH_KNOTS('',3,(#46,#47,#48,#49,#50,#51,#52,#53,#54),
.UNSPECIFIED.,.F.,.F.,(4,1,1,1,1,1,4),(0.E0,1.25E-1,2.5E-1,5.E-1,7.5E-1,8.75E-1,
1.E0),.UNSPECIFIED.);
#75=B_SPLINE_CURVE_WITH_KNOTS('',3,(#66,#67,#68,#69,#70,#71,#72,#73,#74),
.UNSPECIFIED.,.F.,.F.,(4,1,1,1,1,1,4),(0.E0,1.25E-1,2.5E-1,5.E-1,7.5E-1,8.75E-1,
1.E0),.UNSPECIFIED.);
#95=B_SPLINE_CURVE_WITH_KNOTS('',3,(#86,#87,#88,#89,#90,#91,#92,#93,#94),
.UNSPECIFIED.,.F.,.F.,(4,1,1,1,1,1,4),(0.E0,1.25E-1,2.5E-1,5.E-1,7.5E-1,8.75E-1,
1.E0),.UNSPECIFIED.);
#115=B_SPLINE_CURVE_WITH_KNOTS('',3,(#106,#107,#108,#109,#110,#111,#112,#113,
#114),.UNSPECIFIED.,.F.,.F.,(4,1,1,1,1,1,4),(0.E0,1.25E-1,2.5E-1,5.E-1,7.5E-1,
8.75E-1,1.E0),.UNSPECIFIED.);
#131=B_SPLINE_CURVE_WITH_KNOTS('',3,(#126,#127,#128,#129,#130),.UNSPECIFIED.,
.F.,.F.,(4,1,4),(0.E0,5.E-1,1.E0),.UNSPECIFIED.);
#140=B_SPLINE_CURVE_WITH_KNOTS('',3,(#135,#136,#137,#138,#139),.UNSPECIFIED.,
.F.,.F.,(4,1,4),(0.E0,5.E-1,1.E0),.UNSPECIFIED.);
#163=B_SPLINE_CURVE_WITH_KNOTS('',3,(#151,#152,#153,#154,#155,#156,#157,#158,
#159,#160,#161,#162),.UNSPECIFIED.,.F.,.F.,(4,1,1,1,1,1,1,1,1,4),(0.E0,
1.111111111111E-1,2.222222222222E-1,3.333333333333E-1,4.444444444444E-1,
5.555555555556E-1,6.666666666667E-1,7.777777777778E-1,8.888888888889E-1,1.E0),
.UNSPECIFIED.);
#186=B_SPLINE_CURVE_WITH_KNOTS('',3,(#174,#175,#176,#177,#178,#179,#180,#181,
#182,#183,#184,#185),.UNSPECIFIED.,.F.,.F.,(4,1,1,1,1,1,1,1,1,4),(0.E0,
1.111111111111E-1,2.222222222222E-1,3.333333333333E-1,4.444444444444E-1,
5.555555555556E-1,6.666666666667E-1,7.777777777778E-1,8.888888888889E-1,1.E0),
.UNSPECIFIED.);
#216=B_SPLINE_CURVE_WITH_KNOTS('',3,(#211,#212,#213,#214,#215),.UNSPECIFIED.,
.F.,.F.,(4,1,4),(0.E0,5.E-1,1.E0),.UNSPECIFIED.);
#232=B_SPLINE_CURVE_WITH_KNOTS('',3,(#227,#228,#229,#230,#231),.UNSPECIFIED.,
.F.,.F.,(4,1,4),(0.E0,5.E-1,1.E0),.UNSPECIFIED.);
#360=B_SPLINE_CURVE_WITH_KNOTS('',3,(#355,#356,#357,#358,#359),.UNSPECIFIED.,
.F.,.F.,(4,1,4),(0.E0,5.E-1,1.E0),.UNSPECIFIED.);
#376=B_SPLINE_CURVE_WITH_KNOTS('',3,(#371,#372,#373,#374,#375),.UNSPECIFIED.,
.F.,.F.,(4,1,4),(0.E0,5.E-1,1.E0),.UNSPECIFIED.);
#412=B_SPLINE_CURVE_WITH_KNOTS('',3,(#401,#402,#403,#404,#405,#406,#407,#408,
#409,#410,#411),.UNSPECIFIED.,.F.,.F.,(4,1,1,1,1,1,1,1,4),(0.E0,1.25E-1,2.5E-1,
3.75E-1,5.E-1,6.25E-1,7.5E-1,8.75E-1,1.E0),.UNSPECIFIED.);
#434=B_SPLINE_CURVE_WITH_KNOTS('',3,(#423,#424,#425,#426,#427,#428,#429,#430,
#431,#432,#433),.UNSPECIFIED.,.F.,.F.,(4,1,1,1,1,1,1,1,4),(0.E0,1.25E-1,2.5E-1,
3.75E-1,5.E-1,6.25E-1,7.5E-1,8.75E-1,1.E0),.UNSPECIFIED.);
#446=B_SPLINE_CURVE_WITH_KNOTS('',3,(#438,#439,#440,#441,#442,#443,#444,#445),
.UNSPECIFIED.,.F.,.F.,(4,1,1,1,1,4),(0.E0,2.E-1,4.E-1,6.E-1,8.E-1,1.E0),
.UNSPECIFIED.);
#465=B_SPLINE_CURVE_WITH_KNOTS('',3,(#457,#458,#459,#460,#461,#462,#463,#464),
.UNSPECIFIED.,.F.,.F.,(4,1,1,1,1,4),(0.E0,2.E-1,4.E-1,6.E-1,8.E-1,1.E0),
.UNSPECIFIED.);
#558=EDGE_CURVE('',#496,#493,#55,.T.);
#560=EDGE_CURVE('',#529,#496,#20,.T.);
#562=EDGE_CURVE('',#531,#529,#95,.T.);
#564=EDGE_CURVE('',#543,#531,#28,.T.);
#566=EDGE_CURVE('',#543,#499,#122,.T.);
#568=EDGE_CURVE('',#493,#499,#35,.T.);
#572=ADVANCED_FACE('',(#571),#557,.F.);
#577=ELLIPSE('',#576,1.968503937008E-2,1.704774416898E-2);
#578=TRIMMED_CURVE('',#577,(PARAMETER_VALUE(9.000000000015E1)),(PARAMETER_VALUE(
1.719999999991E2)),.T.,.UNSPECIFIED.);
#582=EDGE_CURVE('',#496,#497,#42,.T.);
#585=EDGE_CURVE('',#492,#493,#62,.T.);
#587=EDGE_CURVE('',#492,#497,#75,.T.);
#591=ADVANCED_FACE('',(#590),#581,.F.);
#597=EDGE_CURVE('',#518,#529,#102,.T.);
#601=EDGE_CURVE('',#497,#518,#479,.T.);
#605=ADVANCED_FACE('',(#604),#596,.F.);
#610=ELLIPSE('',#609,1.968503937008E-2,1.704774416898E-2);
#611=TRIMMED_CURVE('',#610,(PARAMETER_VALUE(8.000000001503E0)),(PARAMETER_VALUE(
8.999999999977E1)),.T.,.UNSPECIFIED.);
#615=EDGE_CURVE('',#531,#512,#82,.T.);
#619=EDGE_CURVE('',#518,#512,#115,.T.);
#623=ADVANCED_FACE('',(#622),#614,.F.);
#629=EDGE_CURVE('',#539,#543,#131,.T.);
#633=EDGE_CURVE('',#512,#508,#472,.T.);
#635=EDGE_CURVE('',#508,#510,#446,.T.);
#637=EDGE_CURVE('',#510,#519,#412,.T.);
#639=EDGE_CURVE('',#519,#550,#383,.T.);
#641=EDGE_CURVE('',#550,#521,#360,.T.);
#643=EDGE_CURVE('',#521,#523,#260,.T.);
#645=EDGE_CURVE('',#523,#545,#216,.T.);
#647=EDGE_CURVE('',#545,#538,#193,.T.);
#649=EDGE_CURVE('',#538,#539,#163,.T.);
#653=ADVANCED_FACE('',(#652),#628,.F.);
#661=EDGE_CURVE('',#539,#542,#147,.T.);
#663=EDGE_CURVE('',#499,#542,#140,.T.);
#667=ADVANCED_FACE('',(#666),#658,.T.);
#672=B_SPLINE_CURVE_WITH_KNOTS('',3,(#668,#669,#670,#671),.UNSPECIFIED.,.F.,.F.,
(4,4),(0.E0,1.E0),.UNSPECIFIED.);
#678=EDGE_CURVE('',#541,#538,#170,.T.);
#680=EDGE_CURVE('',#542,#541,#186,.T.);
#684=ADVANCED_FACE('',(#683),#675,.F.);
#692=EDGE_CURVE('',#545,#549,#207,.T.);
#694=EDGE_CURVE('',#541,#549,#200,.T.);
#698=ADVANCED_FACE('',(#697),#689,.F.);
#706=EDGE_CURVE('',#527,#523,#223,.T.);
#708=EDGE_CURVE('',#549,#527,#232,.T.);
#712=ADVANCED_FACE('',(#711),#703,.F.);
#719=EDGE_CURVE('',#516,#523,#239,.T.);
#721=EDGE_CURVE('',#516,#547,#288,.T.);
#723=EDGE_CURVE('',#535,#547,#246,.T.);
#725=EDGE_CURVE('',#535,#533,#309,.T.);
#727=EDGE_CURVE('',#527,#533,#253,.T.);
#731=ADVANCED_FACE('',(#730),#717,.F.);
#737=EDGE_CURVE('',#515,#516,#267,.T.);
#741=EDGE_CURVE('',#521,#515,#295,.T.);
#745=ADVANCED_FACE('',(#744),#736,.F.);
#752=EDGE_CURVE('',#552,#515,#274,.T.);
#754=EDGE_CURVE('',#547,#552,#281,.T.);
#759=ADVANCED_FACE('',(#758),#750,.T.);
#765=EDGE_CURVE('',#525,#537,#323,.T.);
#767=EDGE_CURVE('',#537,#552,#337,.T.);
#771=EDGE_CURVE('',#521,#500,#351,.T.);
#773=EDGE_CURVE('',#525,#500,#302,.T.);
#777=ADVANCED_FACE('',(#776),#764,.F.);
#784=EDGE_CURVE('',#537,#535,#316,.T.);
#787=EDGE_CURVE('',#533,#525,#330,.T.);
#791=ADVANCED_FACE('',(#790),#782,.F.);
#803=ADVANCED_FACE('',(#802),#796,.F.);
#809=EDGE_CURVE('',#527,#500,#344,.T.);
#816=ADVANCED_FACE('',(#815),#808,.F.);
#829=EDGE_CURVE('',#500,#501,#376,.T.);
#831=EDGE_CURVE('',#501,#503,#390,.T.);
#833=EDGE_CURVE('',#503,#506,#434,.T.);
#835=EDGE_CURVE('',#506,#505,#465,.T.);
#837=EDGE_CURVE('',#505,#492,#486,.T.);
#841=ADVANCED_FACE('',(#840),#821,.F.);
#849=EDGE_CURVE('',#501,#550,#367,.T.);
#854=ADVANCED_FACE('',(#853),#846,.T.);
#862=EDGE_CURVE('',#519,#503,#397,.T.);
#867=ADVANCED_FACE('',(#866),#859,.F.);
#872=B_SPLINE_CURVE_WITH_KNOTS('',3,(#868,#869,#870,#871),.UNSPECIFIED.,.F.,.F.,
(4,4),(0.E0,1.E0),.UNSPECIFIED.);
#878=EDGE_CURVE('',#506,#510,#419,.T.);
#883=ADVANCED_FACE('',(#882),#875,.F.);
#888=B_SPLINE_CURVE_WITH_KNOTS('',3,(#884,#885,#886,#887),.UNSPECIFIED.,.F.,.F.,
(4,4),(0.E0,1.E0),.UNSPECIFIED.);
#894=EDGE_CURVE('',#505,#508,#453,.T.);
#899=ADVANCED_FACE('',(#898),#891,.F.);
#913=ADVANCED_FACE('',(#912),#904,.F.);
#914=CLOSED_SHELL('',(#572,#591,#605,#623,#653,#667,#684,#698,#712,#731,#745,
#759,#777,#791,#803,#816,#841,#854,#867,#883,#899,#913));
#915=MANIFOLD_SOLID_BREP('',#914);
#923=(LENGTH_UNIT()NAMED_UNIT(*)SI_UNIT(.MILLI.,.METRE.));
#926=(NAMED_UNIT(*)PLANE_ANGLE_UNIT()SI_UNIT($,.RADIAN.));
#929=(NAMED_UNIT(*)SI_UNIT($,.STERADIAN.)SOLID_ANGLE_UNIT());
#931=(GEOMETRIC_REPRESENTATION_CONTEXT(3)GLOBAL_UNCERTAINTY_ASSIGNED_CONTEXT((
#930))GLOBAL_UNIT_ASSIGNED_CONTEXT((#925,#928,#929))REPRESENTATION_CONTEXT
('ID1','3'));
#935=AXIS2_PLACEMENT_3D('',#932,#933,#934);
#936=ADVANCED_BREP_SHAPE_REPRESENTATION('',(#935,#915),#931);
#944=PRODUCT_DEFINITION('design','',#943,#940);
#945=PRODUCT_DEFINITION_SHAPE('','SHAPE FOR CUT-EXTRUDE23100.',#944);
#946=SHAPE_ASPECT('','solid data associated with CUT-EXTRUDE23100',#945,.F.);
#947=PROPERTY_DEFINITION('',
'shape for solid data with which properties are associated',#946);
#948=SHAPE_REPRESENTATION('',(#915),#931);
#949=SHAPE_DEFINITION_REPRESENTATION(#947,#948);
#950=(LENGTH_UNIT()NAMED_UNIT(*)SI_UNIT(.MILLI.,.METRE.));
#956=PROPERTY_DEFINITION('geometric validation property',
'area of CUT-EXTRUDE23100',#946);
#957=REPRESENTATION('surface area',(#955),#931);
#958=PROPERTY_DEFINITION_REPRESENTATION(#956,#957);
#959=(LENGTH_UNIT()NAMED_UNIT(*)SI_UNIT(.MILLI.,.METRE.));
#965=PROPERTY_DEFINITION('geometric validation property',
'volume of CUT-EXTRUDE23100',#946);
#966=REPRESENTATION('volume',(#964),#931);
#967=PROPERTY_DEFINITION_REPRESENTATION(#965,#966);
#969=PROPERTY_DEFINITION('geometric validation property',
'centroid of CUT-EXTRUDE23100',#946);
#970=REPRESENTATION('centroid',(#968),#931);
#971=PROPERTY_DEFINITION_REPRESENTATION(#969,#970);
#972=(LENGTH_UNIT()NAMED_UNIT(*)SI_UNIT(.MILLI.,.METRE.));
#978=PROPERTY_DEFINITION('geometric validation property',
'area of CUT-EXTRUDE23100',#945);
#979=REPRESENTATION('surface area',(#977),#931);
#980=PROPERTY_DEFINITION_REPRESENTATION(#978,#979);
#981=(LENGTH_UNIT()NAMED_UNIT(*)SI_UNIT(.MILLI.,.METRE.));
#987=PROPERTY_DEFINITION('geometric validation property',
'volume of CUT-EXTRUDE23100',#945);
#988=REPRESENTATION('volume',(#986),#931);
#989=PROPERTY_DEFINITION_REPRESENTATION(#987,#988);
#991=PROPERTY_DEFINITION('geometric validation property',
'centroid of CUT-EXTRUDE23100',#945);
#992=REPRESENTATION('centroid',(#990),#931);
#993=PROPERTY_DEFINITION_REPRESENTATION(#991,#992);
#994=SHAPE_DEFINITION_REPRESENTATION(#945,#936);
ENDSEC;
END-ISO-10303-21;
