ISO-10303-21;
HEADER;
FILE_DESCRIPTION((''),'2;1');
FILE_NAME('CUT-EXTRUDE28','2026-06-15T13:46:08',('Esia'),(''),
'CREO PARAMETRIC BY PTC INC, 2025102','CREO PARAMETRIC BY PTC INC, 2025102','');
FILE_SCHEMA((
'AP242_MANAGED_MODEL_BASED_3D_ENGINEERING_MIM_LF { 1 0 10303 442 1 1 4 }'));
ENDSEC;
DATA;
#18=DIRECTION('',(0.E0,1.E0,0.E0));
#19=VECTOR('',#18,5.236220472441E-1);
#20=CARTESIAN_POINT('',(3.E-1,-2.618110236220E-1,6.681102362205E-1));
#21=LINE('',#20,#19);
#22=DRAUGHTING_PRE_DEFINED_CURVE_FONT('continuous');
#23=CURVE_STYLE('',#22,POSITIVE_LENGTH_MEASURE(2.E-2),#9);
#24=PRESENTATION_STYLE_ASSIGNMENT((#23));
#25=STYLED_ITEM('',(#24),#21);
#26=DIRECTION('',(0.E0,-1.E0,0.E0));
#27=VECTOR('',#26,4.204262520645E-2);
#28=CARTESIAN_POINT('',(3.002500327831E-1,-2.197683984156E-1,
6.700787401575E-1));
#29=LINE('',#28,#27);
#30=CURVE_STYLE('',#22,POSITIVE_LENGTH_MEASURE(2.E-2),#9);
#31=PRESENTATION_STYLE_ASSIGNMENT((#30));
#32=STYLED_ITEM('',(#31),#29);
#33=DIRECTION('',(0.E0,-1.E0,0.E0));
#34=VECTOR('',#33,4.362230434806E-1);
#35=CARTESIAN_POINT('',(3.078740157480E-1,2.181115217403E-1,6.759842519685E-1));
#36=LINE('',#35,#34);
#37=CURVE_STYLE('',#22,POSITIVE_LENGTH_MEASURE(2.E-2),#9);
#38=PRESENTATION_STYLE_ASSIGNMENT((#37));
#39=STYLED_ITEM('',(#38),#36);
#40=DIRECTION('',(0.E0,-1.E0,0.E0));
#41=VECTOR('',#40,4.204262520645E-2);
#42=CARTESIAN_POINT('',(3.002500327831E-1,2.618110236220E-1,6.700787401575E-1));
#43=LINE('',#42,#41);
#44=CURVE_STYLE('',#22,POSITIVE_LENGTH_MEASURE(2.E-2),#9);
#45=PRESENTATION_STYLE_ASSIGNMENT((#44));
#46=STYLED_ITEM('',(#45),#43);
#47=CARTESIAN_POINT('',(3.078740157480E-1,2.618110236220E-1,6.681102362205E-1));
#48=DIRECTION('',(0.E0,1.E0,0.E0));
#49=DIRECTION('',(-1.E0,0.E0,4.159450561758E-13));
#50=AXIS2_PLACEMENT_3D('',#47,#48,#49);
#52=CURVE_STYLE('',#22,POSITIVE_LENGTH_MEASURE(2.E-2),#9);
#53=PRESENTATION_STYLE_ASSIGNMENT((#52));
#54=STYLED_ITEM('',(#53),#51);
#55=DIRECTION('',(-5.639932965095E-14,2.819966482547E-14,1.E0));
#56=VECTOR('',#55,3.937007874017E-3);
#57=CARTESIAN_POINT('',(2.921259842520E-1,2.618110236220E-1,6.641732283465E-1));
#58=LINE('',#57,#56);
#59=CURVE_STYLE('',#22,POSITIVE_LENGTH_MEASURE(2.E-2),#9);
#60=PRESENTATION_STYLE_ASSIGNMENT((#59));
#61=STYLED_ITEM('',(#60),#58);
#62=DIRECTION('',(-1.E0,0.E0,-8.459899447644E-14));
#63=VECTOR('',#62,7.874015748031E-3);
#64=CARTESIAN_POINT('',(3.E-1,2.618110236220E-1,6.641732283465E-1));
#65=LINE('',#64,#63);
#66=CURVE_STYLE('',#22,POSITIVE_LENGTH_MEASURE(2.E-2),#9);
#67=PRESENTATION_STYLE_ASSIGNMENT((#66));
#68=STYLED_ITEM('',(#67),#65);
#69=DIRECTION('',(1.409983241274E-14,-2.819966482548E-14,-1.E0));
#70=VECTOR('',#69,3.937007874015E-3);
#71=CARTESIAN_POINT('',(3.E-1,2.618110236220E-1,6.681102362205E-1));
#72=LINE('',#71,#70);
#73=CURVE_STYLE('',#22,POSITIVE_LENGTH_MEASURE(2.E-2),#9);
#74=PRESENTATION_STYLE_ASSIGNMENT((#73));
#75=STYLED_ITEM('',(#74),#72);
#76=CARTESIAN_POINT('',(3.078740157480E-1,2.618110236220E-1,6.681102362205E-1));
#77=DIRECTION('',(0.E0,-1.E0,0.E0));
#78=DIRECTION('',(-9.682458365518E-1,0.E0,2.5E-1));
#79=AXIS2_PLACEMENT_3D('',#76,#77,#78);
#81=CURVE_STYLE('',#22,POSITIVE_LENGTH_MEASURE(2.E-2),#9);
#82=PRESENTATION_STYLE_ASSIGNMENT((#81));
#83=STYLED_ITEM('',(#82),#80);
#84=DIRECTION('',(1.E0,0.E0,0.E0));
#85=VECTOR('',#84,8.000532651548E-3);
#86=CARTESIAN_POINT('',(2.922495001315E-1,2.618110236220E-1,6.700787401575E-1));
#87=LINE('',#86,#85);
#88=CURVE_STYLE('',#22,POSITIVE_LENGTH_MEASURE(2.E-2),#9);
#89=PRESENTATION_STYLE_ASSIGNMENT((#88));
#90=STYLED_ITEM('',(#89),#87);
#91=CARTESIAN_POINT('',(3.078740157480E-1,2.181115217403E-1,6.838582677165E-1));
#92=CARTESIAN_POINT('',(3.064660801090E-1,2.186957244468E-1,6.838582677165E-1));
#93=CARTESIAN_POINT('',(3.035920159965E-1,2.195466178537E-1,6.834943560812E-1));
#94=CARTESIAN_POINT('',(2.993625788940E-1,2.198902274149E-1,6.815950111796E-1));
#95=CARTESIAN_POINT('',(2.960107707735E-1,2.195817207693E-1,6.788425107996E-1));
#96=CARTESIAN_POINT('',(2.931333591075E-1,2.188750696735E-1,6.743765867204E-1));
#97=CARTESIAN_POINT('',(2.924275449663E-1,2.186101778407E-1,6.714919272223E-1));
#98=CARTESIAN_POINT('',(2.922495001315E-1,2.185476976799E-1,6.700787401575E-1));
#100=CURVE_STYLE('',#22,POSITIVE_LENGTH_MEASURE(2.E-2),#9);
#101=PRESENTATION_STYLE_ASSIGNMENT((#100));
#102=STYLED_ITEM('',(#101),#99);
#103=DIRECTION('',(1.437970823156E-14,1.E0,0.E0));
#104=VECTOR('',#103,4.362230434806E-1);
#105=CARTESIAN_POINT('',(3.078740157480E-1,-2.181115217403E-1,
6.838582677165E-1));
#106=LINE('',#105,#104);
#107=CURVE_STYLE('',#22,POSITIVE_LENGTH_MEASURE(2.E-2),#9);
#108=PRESENTATION_STYLE_ASSIGNMENT((#107));
#109=STYLED_ITEM('',(#108),#106);
#110=CARTESIAN_POINT('',(2.922495001315E-1,-2.185476976799E-1,
6.700787401575E-1));
#111=CARTESIAN_POINT('',(2.923241784916E-1,-2.185739040900E-1,
6.706714812652E-1));
#112=CARTESIAN_POINT('',(2.925420537802E-1,-2.186497022976E-1,
6.718608107142E-1));
#113=CARTESIAN_POINT('',(2.930919963880E-1,-2.188280032752E-1,
6.736476720899E-1));
#114=CARTESIAN_POINT('',(2.938507223548E-1,-2.190477777260E-1,
6.753568286996E-1));
#115=CARTESIAN_POINT('',(2.948091203875E-1,-2.192834847193E-1,
6.769693698614E-1));
#116=CARTESIAN_POINT('',(2.959479128710E-1,-2.195041102136E-1,
6.784494974794E-1));
#117=CARTESIAN_POINT('',(2.972156325192E-1,-2.196764081315E-1,
6.797495580540E-1));
#118=CARTESIAN_POINT('',(2.985977616245E-1,-2.197789351970E-1,
6.808771430017E-1));
#119=CARTESIAN_POINT('',(3.000658539816E-1,-2.197909639719E-1,
6.818219983849E-1));
#120=CARTESIAN_POINT('',(3.015740165959E-1,-2.197002182585E-1,
6.825751739565E-1));
#121=CARTESIAN_POINT('',(3.031247470458E-1,-2.194972795764E-1,
6.831550873655E-1));
#122=CARTESIAN_POINT('',(3.047050684199E-1,-2.191718780344E-1,
6.835641929338E-1));
#123=CARTESIAN_POINT('',(3.062849602977E-1,-2.187220841231E-1,
6.838048462677E-1));
#124=CARTESIAN_POINT('',(3.073461924983E-1,-2.183305344299E-1,
6.838582677165E-1));
#125=CARTESIAN_POINT('',(3.078740157480E-1,-2.181115217403E-1,
6.838582677165E-1));
#127=CURVE_STYLE('',#22,POSITIVE_LENGTH_MEASURE(2.E-2),#9);
#128=PRESENTATION_STYLE_ASSIGNMENT((#127));
#129=STYLED_ITEM('',(#128),#126);
#130=DIRECTION('',(0.E0,1.E0,0.E0));
#131=VECTOR('',#130,4.326332594214E-2);
#132=CARTESIAN_POINT('',(2.922495001315E-1,-2.618110236220E-1,
6.700787401575E-1));
#133=LINE('',#132,#131);
#134=CURVE_STYLE('',#22,POSITIVE_LENGTH_MEASURE(2.E-2),#9);
#135=PRESENTATION_STYLE_ASSIGNMENT((#134));
#136=STYLED_ITEM('',(#135),#133);
#137=DIRECTION('',(0.E0,-1.E0,0.E0));
#138=VECTOR('',#137,5.236220472441E-1);
#139=CARTESIAN_POINT('',(2.921259842520E-1,2.618110236220E-1,
6.681102362205E-1));
#140=LINE('',#139,#138);
#141=CURVE_STYLE('',#22,POSITIVE_LENGTH_MEASURE(2.E-2),#9);
#142=PRESENTATION_STYLE_ASSIGNMENT((#141));
#143=STYLED_ITEM('',(#142),#140);
#144=DIRECTION('',(0.E0,1.E0,0.E0));
#145=VECTOR('',#144,4.326332594214E-2);
#146=CARTESIAN_POINT('',(2.922495001315E-1,2.185476976799E-1,
6.700787401575E-1));
#147=LINE('',#146,#145);
#148=CURVE_STYLE('',#22,POSITIVE_LENGTH_MEASURE(2.E-2),#9);
#149=PRESENTATION_STYLE_ASSIGNMENT((#148));
#150=STYLED_ITEM('',(#149),#147);
#151=CARTESIAN_POINT('',(3.002500327831E-1,2.197683984156E-1,
6.700787401575E-1));
#152=CARTESIAN_POINT('',(3.004771491986E-1,2.197605192895E-1,
6.709583582527E-1));
#153=CARTESIAN_POINT('',(3.011854256459E-1,2.197325290364E-1,
6.725349042476E-1));
#154=CARTESIAN_POINT('',(3.030339943119E-1,2.195271515385E-1,
6.745040575329E-1));
#155=CARTESIAN_POINT('',(3.052869910402E-1,2.190485870813E-1,
6.756868862730E-1));
#156=CARTESIAN_POINT('',(3.069860726147E-1,2.184799610122E-1,
6.759842519685E-1));
#157=CARTESIAN_POINT('',(3.078740157480E-1,2.181115217403E-1,
6.759842519685E-1));
#159=CURVE_STYLE('',#22,POSITIVE_LENGTH_MEASURE(2.E-2),#9);
#160=PRESENTATION_STYLE_ASSIGNMENT((#159));
#161=STYLED_ITEM('',(#160),#158);
#162=DIRECTION('',(0.E0,0.E0,-1.E0));
#163=VECTOR('',#162,7.874015748032E-3);
#164=CARTESIAN_POINT('',(3.213631751925E-1,1.979100971567E-1,
6.838582677165E-1));
#165=LINE('',#164,#163);
#166=CURVE_STYLE('',#22,POSITIVE_LENGTH_MEASURE(2.E-2),#9);
#167=PRESENTATION_STYLE_ASSIGNMENT((#166));
#168=STYLED_ITEM('',(#167),#165);
#169=CARTESIAN_POINT('',(2.994917242636E-1,1.979100971567E-1,
6.700787401575E-1));
#170=DIRECTION('',(0.E0,0.E0,-1.E0));
#171=DIRECTION('',(-3.311268262760E-1,9.435862572761E-1,0.E0));
#172=AXIS2_PLACEMENT_3D('',#169,#170,#171);
#174=CURVE_STYLE('',#22,POSITIVE_LENGTH_MEASURE(2.E-2),#9);
#175=PRESENTATION_STYLE_ASSIGNMENT((#174));
#176=STYLED_ITEM('',(#175),#173);
#177=CARTESIAN_POINT('',(2.994917242636E-1,-1.979100971567E-1,
6.700787401575E-1));
#178=DIRECTION('',(0.E0,0.E0,-1.E0));
#179=DIRECTION('',(3.467115747747E-2,-9.993987746836E-1,0.E0));
#180=AXIS2_PLACEMENT_3D('',#177,#178,#179);
#182=CURVE_STYLE('',#22,POSITIVE_LENGTH_MEASURE(2.E-2),#9);
#183=PRESENTATION_STYLE_ASSIGNMENT((#182));
#184=STYLED_ITEM('',(#183),#181);
#185=CARTESIAN_POINT('',(3.078740157480E-1,-2.181115217403E-1,
6.759842519685E-1));
#186=CARTESIAN_POINT('',(3.070245998180E-1,-2.184639747016E-1,
6.759842519685E-1));
#187=CARTESIAN_POINT('',(3.053845349068E-1,-2.190253464725E-1,
6.757321422048E-1));
#188=CARTESIAN_POINT('',(3.029705339538E-1,-2.195388916210E-1,
6.744585637548E-1));
#189=CARTESIAN_POINT('',(3.012379567674E-1,-2.197261303368E-1,
6.725923200102E-1));
#190=CARTESIAN_POINT('',(3.004840776349E-1,-2.197602789280E-1,
6.709851919708E-1));
#191=CARTESIAN_POINT('',(3.002500327831E-1,-2.197683984156E-1,
6.700787401575E-1));
#193=CURVE_STYLE('',#22,POSITIVE_LENGTH_MEASURE(2.E-2),#9);
#194=PRESENTATION_STYLE_ASSIGNMENT((#193));
#195=STYLED_ITEM('',(#194),#192);
#196=DIRECTION('',(0.E0,0.E0,1.E0));
#197=VECTOR('',#196,7.874015748031E-3);
#198=CARTESIAN_POINT('',(3.213631751925E-1,-1.979100971567E-1,
6.759842519685E-1));
#199=LINE('',#198,#197);
#200=CURVE_STYLE('',#22,POSITIVE_LENGTH_MEASURE(2.E-2),#9);
#201=PRESENTATION_STYLE_ASSIGNMENT((#200));
#202=STYLED_ITEM('',(#201),#199);
#203=CARTESIAN_POINT('',(2.994917242636E-1,-1.979100971567E-1,
6.759842519685E-1));
#204=DIRECTION('',(0.E0,0.E0,-1.E0));
#205=DIRECTION('',(1.E0,0.E0,0.E0));
#206=AXIS2_PLACEMENT_3D('',#203,#204,#205);
#208=CURVE_STYLE('',#22,POSITIVE_LENGTH_MEASURE(2.E-2),#9);
#209=PRESENTATION_STYLE_ASSIGNMENT((#208));
#210=STYLED_ITEM('',(#209),#207);
#211=DIRECTION('',(0.E0,-1.E0,0.E0));
#212=VECTOR('',#211,3.958201943134E-1);
#213=CARTESIAN_POINT('',(3.213631751925E-1,1.979100971567E-1,
6.759842519685E-1));
#214=LINE('',#213,#212);
#215=CURVE_STYLE('',#22,POSITIVE_LENGTH_MEASURE(2.E-2),#9);
#216=PRESENTATION_STYLE_ASSIGNMENT((#215));
#217=STYLED_ITEM('',(#216),#214);
#218=CARTESIAN_POINT('',(2.994917242636E-1,1.979100971567E-1,
6.759842519685E-1));
#219=DIRECTION('',(0.E0,0.E0,-1.E0));
#220=DIRECTION('',(3.832526480133E-1,9.236435501809E-1,0.E0));
#221=AXIS2_PLACEMENT_3D('',#218,#219,#220);
#223=CURVE_STYLE('',#22,POSITIVE_LENGTH_MEASURE(2.E-2),#9);
#224=PRESENTATION_STYLE_ASSIGNMENT((#223));
#225=STYLED_ITEM('',(#224),#222);
#226=DIRECTION('',(0.E0,-1.E0,0.E0));
#227=VECTOR('',#226,3.958201943134E-1);
#228=CARTESIAN_POINT('',(3.213631751925E-1,1.979100971567E-1,
6.838582677165E-1));
#229=LINE('',#228,#227);
#230=CURVE_STYLE('',#22,POSITIVE_LENGTH_MEASURE(2.E-2),#9);
#231=PRESENTATION_STYLE_ASSIGNMENT((#230));
#232=STYLED_ITEM('',(#231),#229);
#233=CARTESIAN_POINT('',(2.994917242636E-1,-1.979100971567E-1,
6.838582677165E-1));
#234=DIRECTION('',(0.E0,0.E0,1.E0));
#235=DIRECTION('',(3.832526480134E-1,-9.236435501809E-1,0.E0));
#236=AXIS2_PLACEMENT_3D('',#233,#234,#235);
#238=CURVE_STYLE('',#22,POSITIVE_LENGTH_MEASURE(2.E-2),#9);
#239=PRESENTATION_STYLE_ASSIGNMENT((#238));
#240=STYLED_ITEM('',(#239),#237);
#241=CARTESIAN_POINT('',(2.994917242636E-1,1.979100971567E-1,
6.838582677165E-1));
#242=DIRECTION('',(0.E0,0.E0,1.E0));
#243=DIRECTION('',(1.E0,0.E0,0.E0));
#244=AXIS2_PLACEMENT_3D('',#241,#242,#243);
#246=CURVE_STYLE('',#22,POSITIVE_LENGTH_MEASURE(2.E-2),#9);
#247=PRESENTATION_STYLE_ASSIGNMENT((#246));
#248=STYLED_ITEM('',(#247),#245);
#249=DIRECTION('',(-1.E0,0.E0,0.E0));
#250=VECTOR('',#249,8.000532651548E-3);
#251=CARTESIAN_POINT('',(3.002500327831E-1,-2.618110236220E-1,
6.700787401575E-1));
#252=LINE('',#251,#250);
#253=CURVE_STYLE('',#22,POSITIVE_LENGTH_MEASURE(2.E-2),#9);
#254=PRESENTATION_STYLE_ASSIGNMENT((#253));
#255=STYLED_ITEM('',(#254),#252);
#256=CARTESIAN_POINT('',(3.078740157480E-1,-2.618110236220E-1,
6.681102362205E-1));
#257=DIRECTION('',(0.E0,1.E0,0.E0));
#258=DIRECTION('',(-1.E0,0.E0,3.242961454930E-13));
#259=AXIS2_PLACEMENT_3D('',#256,#257,#258);
#261=CURVE_STYLE('',#22,POSITIVE_LENGTH_MEASURE(2.E-2),#9);
#262=PRESENTATION_STYLE_ASSIGNMENT((#261));
#263=STYLED_ITEM('',(#262),#260);
#264=DIRECTION('',(0.E0,0.E0,1.E0));
#265=VECTOR('',#264,3.937007874015E-3);
#266=CARTESIAN_POINT('',(3.E-1,-2.618110236220E-1,6.641732283465E-1));
#267=LINE('',#266,#265);
#268=CURVE_STYLE('',#22,POSITIVE_LENGTH_MEASURE(2.E-2),#9);
#269=PRESENTATION_STYLE_ASSIGNMENT((#268));
#270=STYLED_ITEM('',(#269),#267);
#271=DIRECTION('',(1.E0,0.E0,7.049916206370E-14));
#272=VECTOR('',#271,7.874015748031E-3);
#273=CARTESIAN_POINT('',(2.921259842520E-1,-2.618110236220E-1,
6.641732283465E-1));
#274=LINE('',#273,#272);
#275=CURVE_STYLE('',#22,POSITIVE_LENGTH_MEASURE(2.E-2),#9);
#276=PRESENTATION_STYLE_ASSIGNMENT((#275));
#277=STYLED_ITEM('',(#276),#274);
#278=DIRECTION('',(2.819966482547E-14,0.E0,-1.E0));
#279=VECTOR('',#278,3.937007874017E-3);
#280=CARTESIAN_POINT('',(2.921259842520E-1,-2.618110236220E-1,
6.681102362205E-1));
#281=LINE('',#280,#279);
#282=CURVE_STYLE('',#22,POSITIVE_LENGTH_MEASURE(2.E-2),#9);
#283=PRESENTATION_STYLE_ASSIGNMENT((#282));
#284=STYLED_ITEM('',(#283),#281);
#285=CARTESIAN_POINT('',(3.078740157480E-1,-2.618110236220E-1,
6.681102362205E-1));
#286=DIRECTION('',(0.E0,-1.E0,0.E0));
#287=DIRECTION('',(-9.921567416492E-1,0.E0,1.25E-1));
#288=AXIS2_PLACEMENT_3D('',#285,#286,#287);
#290=CURVE_STYLE('',#22,POSITIVE_LENGTH_MEASURE(2.E-2),#9);
#291=PRESENTATION_STYLE_ASSIGNMENT((#290));
#292=STYLED_ITEM('',(#291),#289);
#293=DIRECTION('',(0.E0,-1.E0,0.E0));
#294=VECTOR('',#293,5.236220472441E-1);
#295=CARTESIAN_POINT('',(3.E-1,2.618110236220E-1,6.641732283465E-1));
#296=LINE('',#295,#294);
#297=CURVE_STYLE('',#22,POSITIVE_LENGTH_MEASURE(2.E-2),#9);
#298=PRESENTATION_STYLE_ASSIGNMENT((#297));
#299=STYLED_ITEM('',(#298),#296);
#300=DIRECTION('',(0.E0,1.E0,0.E0));
#301=VECTOR('',#300,5.236220472441E-1);
#302=CARTESIAN_POINT('',(2.921259842520E-1,-2.618110236220E-1,
6.641732283465E-1));
#303=LINE('',#302,#301);
#304=CURVE_STYLE('',#22,POSITIVE_LENGTH_MEASURE(2.E-2),#9);
#305=PRESENTATION_STYLE_ASSIGNMENT((#304));
#306=STYLED_ITEM('',(#305),#303);
#307=VERTEX_POINT('',#91);
#308=VERTEX_POINT('',#98);
#309=VERTEX_POINT('',#110);
#310=VERTEX_POINT('',#125);
#311=CARTESIAN_POINT('',(3.002500327831E-1,2.618110236220E-1,
6.700787401575E-1));
#312=CARTESIAN_POINT('',(3.002500327831E-1,2.197683984156E-1,
6.700787401575E-1));
#313=VERTEX_POINT('',#311);
#314=VERTEX_POINT('',#312);
#315=CARTESIAN_POINT('',(2.922495001315E-1,-2.618110236220E-1,
6.700787401575E-1));
#316=VERTEX_POINT('',#315);
#317=CARTESIAN_POINT('',(3.213631751925E-1,-1.979100971567E-1,
6.759842519685E-1));
#318=CARTESIAN_POINT('',(3.213631751925E-1,-1.979100971567E-1,
6.838582677165E-1));
#319=VERTEX_POINT('',#317);
#320=VERTEX_POINT('',#318);
#321=CARTESIAN_POINT('',(3.078740157480E-1,-2.181115217403E-1,
6.759842519685E-1));
#322=VERTEX_POINT('',#321);
#323=CARTESIAN_POINT('',(3.213631751925E-1,1.979100971567E-1,
6.838582677165E-1));
#324=CARTESIAN_POINT('',(3.213631751925E-1,1.979100971567E-1,
6.759842519685E-1));
#325=VERTEX_POINT('',#323);
#326=VERTEX_POINT('',#324);
#327=CARTESIAN_POINT('',(3.002500327831E-1,-2.197683984156E-1,
6.700787401575E-1));
#328=VERTEX_POINT('',#327);
#329=CARTESIAN_POINT('',(3.078740157480E-1,2.181115217403E-1,
6.759842519685E-1));
#330=VERTEX_POINT('',#329);
#331=CARTESIAN_POINT('',(2.921259842520E-1,2.618110236220E-1,
6.681102362205E-1));
#332=CARTESIAN_POINT('',(2.921259842520E-1,-2.618110236220E-1,
6.681102362205E-1));
#333=VERTEX_POINT('',#331);
#334=VERTEX_POINT('',#332);
#335=CARTESIAN_POINT('',(2.921259842520E-1,-2.618110236220E-1,
6.641732283465E-1));
#336=CARTESIAN_POINT('',(2.921259842520E-1,2.618110236220E-1,
6.641732283465E-1));
#337=VERTEX_POINT('',#335);
#338=VERTEX_POINT('',#336);
#339=CARTESIAN_POINT('',(3.E-1,2.618110236220E-1,6.681102362205E-1));
#340=CARTESIAN_POINT('',(3.E-1,2.618110236220E-1,6.641732283465E-1));
#341=VERTEX_POINT('',#339);
#342=VERTEX_POINT('',#340);
#343=CARTESIAN_POINT('',(3.002500327831E-1,-2.618110236220E-1,
6.700787401575E-1));
#344=VERTEX_POINT('',#343);
#345=CARTESIAN_POINT('',(3.E-1,-2.618110236220E-1,6.641732283465E-1));
#346=VERTEX_POINT('',#345);
#347=CARTESIAN_POINT('',(3.E-1,-2.618110236220E-1,6.681102362205E-1));
#348=VERTEX_POINT('',#347);
#349=CARTESIAN_POINT('',(2.922495001315E-1,2.618110236220E-1,
6.700787401575E-1));
#350=VERTEX_POINT('',#349);
#351=CARTESIAN_POINT('',(3.078740157480E-1,-2.970575001707E-1,
6.681102362205E-1));
#352=DIRECTION('',(0.E0,1.E0,0.E0));
#353=DIRECTION('',(-1.E0,0.E0,0.E0));
#354=AXIS2_PLACEMENT_3D('',#351,#352,#353);
#355=CYLINDRICAL_SURFACE('',#354,7.874015748032E-3);
#357=ORIENTED_EDGE('',*,*,#356,.T.);
#359=ORIENTED_EDGE('',*,*,#358,.F.);
#361=ORIENTED_EDGE('',*,*,#360,.T.);
#363=ORIENTED_EDGE('',*,*,#362,.F.);
#365=ORIENTED_EDGE('',*,*,#364,.F.);
#367=ORIENTED_EDGE('',*,*,#366,.F.);
#369=ORIENTED_EDGE('',*,*,#368,.F.);
#371=ORIENTED_EDGE('',*,*,#370,.F.);
#372=EDGE_LOOP('',(#357,#359,#361,#363,#365,#367,#369,#371));
#373=FACE_OUTER_BOUND('',#372,.F.);
#375=FILL_AREA_STYLE_COLOUR('',#5);
#376=FILL_AREA_STYLE('',(#375));
#377=SURFACE_STYLE_FILL_AREA(#376);
#378=SURFACE_SIDE_STYLE('',(#377));
#379=SURFACE_STYLE_USAGE(.BOTH.,#378);
#380=PRESENTATION_STYLE_ASSIGNMENT((#379));
#381=OVER_RIDING_STYLED_ITEM('',(#380),#374,#17);
#382=CARTESIAN_POINT('',(3.078740157480E-1,2.618110236220E-1,
6.681102362205E-1));
#383=DIRECTION('',(0.E0,1.E0,0.E0));
#384=DIRECTION('',(-1.E0,0.E0,0.E0));
#385=AXIS2_PLACEMENT_3D('',#382,#383,#384);
#386=PLANE('',#385);
#388=ORIENTED_EDGE('',*,*,#387,.F.);
#390=ORIENTED_EDGE('',*,*,#389,.F.);
#392=ORIENTED_EDGE('',*,*,#391,.F.);
#394=ORIENTED_EDGE('',*,*,#393,.F.);
#395=ORIENTED_EDGE('',*,*,#356,.F.);
#397=ORIENTED_EDGE('',*,*,#396,.F.);
#398=EDGE_LOOP('',(#388,#390,#392,#394,#395,#397));
#399=FACE_OUTER_BOUND('',#398,.F.);
#401=FILL_AREA_STYLE_COLOUR('',#5);
#402=FILL_AREA_STYLE('',(#401));
#403=SURFACE_STYLE_FILL_AREA(#402);
#404=SURFACE_SIDE_STYLE('',(#403));
#405=SURFACE_STYLE_USAGE(.BOTH.,#404);
#406=PRESENTATION_STYLE_ASSIGNMENT((#405));
#407=OVER_RIDING_STYLED_ITEM('',(#406),#400,#17);
#408=CARTESIAN_POINT('',(3.078740157480E-1,-2.970575001707E-1,
6.681102362205E-1));
#409=DIRECTION('',(0.E0,1.E0,0.E0));
#410=DIRECTION('',(-1.E0,0.E0,0.E0));
#411=AXIS2_PLACEMENT_3D('',#408,#409,#410);
#412=CYLINDRICAL_SURFACE('',#411,1.574803149606E-2);
#414=ORIENTED_EDGE('',*,*,#413,.F.);
#416=ORIENTED_EDGE('',*,*,#415,.F.);
#418=ORIENTED_EDGE('',*,*,#417,.F.);
#420=ORIENTED_EDGE('',*,*,#419,.F.);
#422=ORIENTED_EDGE('',*,*,#421,.T.);
#424=ORIENTED_EDGE('',*,*,#423,.F.);
#425=ORIENTED_EDGE('',*,*,#387,.T.);
#427=ORIENTED_EDGE('',*,*,#426,.F.);
#428=EDGE_LOOP('',(#414,#416,#418,#420,#422,#424,#425,#427));
#429=FACE_OUTER_BOUND('',#428,.F.);
#431=FILL_AREA_STYLE_COLOUR('',#5);
#432=FILL_AREA_STYLE('',(#431));
#433=SURFACE_STYLE_FILL_AREA(#432);
#434=SURFACE_SIDE_STYLE('',(#433));
#435=SURFACE_STYLE_USAGE(.BOTH.,#434);
#436=PRESENTATION_STYLE_ASSIGNMENT((#435));
#437=OVER_RIDING_STYLED_ITEM('',(#436),#430,#17);
#438=CARTESIAN_POINT('',(2.994917242636E-1,1.979100971567E-1,
6.700787401575E-1));
#439=DIRECTION('',(0.E0,0.E0,1.E0));
#440=DIRECTION('',(1.E0,0.E0,0.E0));
#441=AXIS2_PLACEMENT_3D('',#438,#439,#440);
#442=CYLINDRICAL_SURFACE('',#441,2.187145092888E-2);
#444=ORIENTED_EDGE('',*,*,#443,.T.);
#445=ORIENTED_EDGE('',*,*,#368,.T.);
#447=ORIENTED_EDGE('',*,*,#446,.T.);
#449=ORIENTED_EDGE('',*,*,#448,.F.);
#451=ORIENTED_EDGE('',*,*,#450,.T.);
#452=ORIENTED_EDGE('',*,*,#413,.T.);
#453=EDGE_LOOP('',(#444,#445,#447,#449,#451,#452));
#454=FACE_OUTER_BOUND('',#453,.F.);
#456=FILL_AREA_STYLE_COLOUR('',#5);
#457=FILL_AREA_STYLE('',(#456));
#458=SURFACE_STYLE_FILL_AREA(#457);
#459=SURFACE_SIDE_STYLE('',(#458));
#460=SURFACE_STYLE_USAGE(.BOTH.,#459);
#461=PRESENTATION_STYLE_ASSIGNMENT((#460));
#462=OVER_RIDING_STYLED_ITEM('',(#461),#455,#17);
#463=CARTESIAN_POINT('',(-8.538918412349E-2,-4.880075165465E-9,
6.700787401575E-1));
#464=DIRECTION('',(0.E0,0.E0,1.E0));
#465=DIRECTION('',(1.E0,0.E0,0.E0));
#466=AXIS2_PLACEMENT_3D('',#463,#464,#465);
#467=PLANE('',#466);
#468=ORIENTED_EDGE('',*,*,#396,.T.);
#469=ORIENTED_EDGE('',*,*,#370,.T.);
#470=ORIENTED_EDGE('',*,*,#443,.F.);
#471=ORIENTED_EDGE('',*,*,#426,.T.);
#472=EDGE_LOOP('',(#468,#469,#470,#471));
#473=FACE_OUTER_BOUND('',#472,.F.);
#475=FILL_AREA_STYLE_COLOUR('',#5);
#476=FILL_AREA_STYLE('',(#475));
#477=SURFACE_STYLE_FILL_AREA(#476);
#478=SURFACE_SIDE_STYLE('',(#477));
#479=SURFACE_STYLE_USAGE(.BOTH.,#478);
#480=PRESENTATION_STYLE_ASSIGNMENT((#479));
#481=OVER_RIDING_STYLED_ITEM('',(#480),#474,#17);
#482=CARTESIAN_POINT('',(-8.538918412349E-2,-4.880075165465E-9,
6.700787401575E-1));
#483=DIRECTION('',(0.E0,0.E0,1.E0));
#484=DIRECTION('',(1.E0,0.E0,0.E0));
#485=AXIS2_PLACEMENT_3D('',#482,#483,#484);
#486=PLANE('',#485);
#488=ORIENTED_EDGE('',*,*,#487,.F.);
#489=ORIENTED_EDGE('',*,*,#362,.T.);
#491=ORIENTED_EDGE('',*,*,#490,.T.);
#492=ORIENTED_EDGE('',*,*,#419,.T.);
#493=EDGE_LOOP('',(#488,#489,#491,#492));
#494=FACE_OUTER_BOUND('',#493,.F.);
#496=FILL_AREA_STYLE_COLOUR('',#5);
#497=FILL_AREA_STYLE('',(#496));
#498=SURFACE_STYLE_FILL_AREA(#497);
#499=SURFACE_SIDE_STYLE('',(#498));
#500=SURFACE_STYLE_USAGE(.POSITIVE.,#499);
#501=PRESENTATION_STYLE_ASSIGNMENT((#500));
#502=OVER_RIDING_STYLED_ITEM('',(#501),#495,#17);
#503=CARTESIAN_POINT('',(2.994917242636E-1,-1.979100971567E-1,
6.700787401575E-1));
#504=DIRECTION('',(0.E0,0.E0,1.E0));
#505=DIRECTION('',(1.E0,0.E0,0.E0));
#506=AXIS2_PLACEMENT_3D('',#503,#504,#505);
#507=CYLINDRICAL_SURFACE('',#506,2.187145092888E-2);
#509=ORIENTED_EDGE('',*,*,#508,.T.);
#510=ORIENTED_EDGE('',*,*,#364,.T.);
#511=ORIENTED_EDGE('',*,*,#487,.T.);
#512=ORIENTED_EDGE('',*,*,#417,.T.);
#514=ORIENTED_EDGE('',*,*,#513,.T.);
#516=ORIENTED_EDGE('',*,*,#515,.F.);
#517=EDGE_LOOP('',(#509,#510,#511,#512,#514,#516));
#518=FACE_OUTER_BOUND('',#517,.F.);
#520=FILL_AREA_STYLE_COLOUR('',#5);
#521=FILL_AREA_STYLE('',(#520));
#522=SURFACE_STYLE_FILL_AREA(#521);
#523=SURFACE_SIDE_STYLE('',(#522));
#524=SURFACE_STYLE_USAGE(.BOTH.,#523);
#525=PRESENTATION_STYLE_ASSIGNMENT((#524));
#526=OVER_RIDING_STYLED_ITEM('',(#525),#519,#17);
#527=CARTESIAN_POINT('',(3.213631751925E-1,-2.970575001707E-1,
6.759842519685E-1));
#528=DIRECTION('',(0.E0,0.E0,-1.E0));
#529=DIRECTION('',(-1.E0,0.E0,0.E0));
#530=AXIS2_PLACEMENT_3D('',#527,#528,#529);
#531=PLANE('',#530);
#532=ORIENTED_EDGE('',*,*,#366,.T.);
#533=ORIENTED_EDGE('',*,*,#508,.F.);
#535=ORIENTED_EDGE('',*,*,#534,.F.);
#536=ORIENTED_EDGE('',*,*,#446,.F.);
#537=EDGE_LOOP('',(#532,#533,#535,#536));
#538=FACE_OUTER_BOUND('',#537,.F.);
#540=CARTESIAN_POINT('',(3.213631751925E-1,-2.970575001707E-1,
6.838582677165E-1));
#541=DIRECTION('',(1.E0,0.E0,0.E0));
#542=DIRECTION('',(0.E0,1.E0,0.E0));
#543=AXIS2_PLACEMENT_3D('',#540,#541,#542);
#544=PLANE('',#543);
#545=ORIENTED_EDGE('',*,*,#534,.T.);
#546=ORIENTED_EDGE('',*,*,#515,.T.);
#548=ORIENTED_EDGE('',*,*,#547,.F.);
#549=ORIENTED_EDGE('',*,*,#448,.T.);
#550=EDGE_LOOP('',(#545,#546,#548,#549));
#551=FACE_OUTER_BOUND('',#550,.F.);
#553=FILL_AREA_STYLE_COLOUR('',#5);
#554=FILL_AREA_STYLE('',(#553));
#555=SURFACE_STYLE_FILL_AREA(#554);
#556=SURFACE_SIDE_STYLE('',(#555));
#557=SURFACE_STYLE_USAGE(.BOTH.,#556);
#558=PRESENTATION_STYLE_ASSIGNMENT((#557));
#559=OVER_RIDING_STYLED_ITEM('',(#558),#552,#17);
#560=CARTESIAN_POINT('',(3.078740157480E-1,-2.970575001707E-1,
6.838582677165E-1));
#561=DIRECTION('',(0.E0,0.E0,1.E0));
#562=DIRECTION('',(1.E0,0.E0,0.E0));
#563=AXIS2_PLACEMENT_3D('',#560,#561,#562);
#564=PLANE('',#563);
#565=ORIENTED_EDGE('',*,*,#547,.T.);
#566=ORIENTED_EDGE('',*,*,#513,.F.);
#567=ORIENTED_EDGE('',*,*,#415,.T.);
#568=ORIENTED_EDGE('',*,*,#450,.F.);
#569=EDGE_LOOP('',(#565,#566,#567,#568));
#570=FACE_OUTER_BOUND('',#569,.F.);
#572=FILL_AREA_STYLE_COLOUR('',#5);
#573=FILL_AREA_STYLE('',(#572));
#574=SURFACE_STYLE_FILL_AREA(#573);
#575=SURFACE_SIDE_STYLE('',(#574));
#576=SURFACE_STYLE_USAGE(.BOTH.,#575);
#577=PRESENTATION_STYLE_ASSIGNMENT((#576));
#578=OVER_RIDING_STYLED_ITEM('',(#577),#571,#17);
#579=CARTESIAN_POINT('',(3.070866141732E-1,-2.618110236220E-1,
6.641732283465E-1));
#580=DIRECTION('',(0.E0,1.E0,0.E0));
#581=DIRECTION('',(-1.E0,0.E0,0.E0));
#582=AXIS2_PLACEMENT_3D('',#579,#580,#581);
#583=PLANE('',#582);
#584=ORIENTED_EDGE('',*,*,#490,.F.);
#585=ORIENTED_EDGE('',*,*,#360,.F.);
#587=ORIENTED_EDGE('',*,*,#586,.F.);
#589=ORIENTED_EDGE('',*,*,#588,.F.);
#591=ORIENTED_EDGE('',*,*,#590,.F.);
#592=ORIENTED_EDGE('',*,*,#421,.F.);
#593=EDGE_LOOP('',(#584,#585,#587,#589,#591,#592));
#594=FACE_OUTER_BOUND('',#593,.F.);
#596=FILL_AREA_STYLE_COLOUR('',#5);
#597=FILL_AREA_STYLE('',(#596));
#598=SURFACE_STYLE_FILL_AREA(#597);
#599=SURFACE_SIDE_STYLE('',(#598));
#600=SURFACE_STYLE_USAGE(.BOTH.,#599);
#601=PRESENTATION_STYLE_ASSIGNMENT((#600));
#602=OVER_RIDING_STYLED_ITEM('',(#601),#595,#17);
#603=CARTESIAN_POINT('',(3.E-1,-2.970575001707E-1,6.681102362205E-1));
#604=DIRECTION('',(1.E0,0.E0,0.E0));
#605=DIRECTION('',(0.E0,1.E0,0.E0));
#606=AXIS2_PLACEMENT_3D('',#603,#604,#605);
#607=PLANE('',#606);
#608=ORIENTED_EDGE('',*,*,#586,.T.);
#609=ORIENTED_EDGE('',*,*,#358,.T.);
#610=ORIENTED_EDGE('',*,*,#393,.T.);
#612=ORIENTED_EDGE('',*,*,#611,.T.);
#613=EDGE_LOOP('',(#608,#609,#610,#612));
#614=FACE_OUTER_BOUND('',#613,.F.);
#616=FILL_AREA_STYLE_COLOUR('',#5);
#617=FILL_AREA_STYLE('',(#616));
#618=SURFACE_STYLE_FILL_AREA(#617);
#619=SURFACE_SIDE_STYLE('',(#618));
#620=SURFACE_STYLE_USAGE(.BOTH.,#619);
#621=PRESENTATION_STYLE_ASSIGNMENT((#620));
#622=OVER_RIDING_STYLED_ITEM('',(#621),#615,#17);
#623=CARTESIAN_POINT('',(3.E-1,-2.970575001707E-1,6.641732283465E-1));
#624=DIRECTION('',(6.938893903907E-14,0.E0,-1.E0));
#625=DIRECTION('',(-1.E0,0.E0,-6.938893903907E-14));
#626=AXIS2_PLACEMENT_3D('',#623,#624,#625);
#627=PLANE('',#626);
#628=ORIENTED_EDGE('',*,*,#588,.T.);
#629=ORIENTED_EDGE('',*,*,#611,.F.);
#630=ORIENTED_EDGE('',*,*,#391,.T.);
#632=ORIENTED_EDGE('',*,*,#631,.F.);
#633=EDGE_LOOP('',(#628,#629,#630,#632));
#634=FACE_OUTER_BOUND('',#633,.F.);
#636=FILL_AREA_STYLE_COLOUR('',#5);
#637=FILL_AREA_STYLE('',(#636));
#638=SURFACE_STYLE_FILL_AREA(#637);
#639=SURFACE_SIDE_STYLE('',(#638));
#640=SURFACE_STYLE_USAGE(.BOTH.,#639);
#641=PRESENTATION_STYLE_ASSIGNMENT((#640));
#642=OVER_RIDING_STYLED_ITEM('',(#641),#635,#17);
#643=CARTESIAN_POINT('',(2.921259842520E-1,-2.970575001707E-1,
6.641732283465E-1));
#644=DIRECTION('',(-1.E0,0.E0,-3.469446951957E-14));
#645=DIRECTION('',(-3.469446951957E-14,0.E0,1.E0));
#646=AXIS2_PLACEMENT_3D('',#643,#644,#645);
#647=PLANE('',#646);
#648=ORIENTED_EDGE('',*,*,#590,.T.);
#649=ORIENTED_EDGE('',*,*,#631,.T.);
#650=ORIENTED_EDGE('',*,*,#389,.T.);
#651=ORIENTED_EDGE('',*,*,#423,.T.);
#652=EDGE_LOOP('',(#648,#649,#650,#651));
#653=FACE_OUTER_BOUND('',#652,.F.);
#655=FILL_AREA_STYLE_COLOUR('',#5);
#656=FILL_AREA_STYLE('',(#655));
#657=SURFACE_STYLE_FILL_AREA(#656);
#658=SURFACE_SIDE_STYLE('',(#657));
#659=SURFACE_STYLE_USAGE(.BOTH.,#658);
#660=PRESENTATION_STYLE_ASSIGNMENT((#659));
#661=OVER_RIDING_STYLED_ITEM('',(#660),#654,#17);
#664=FILL_AREA_STYLE_COLOUR('',#9);
#665=FILL_AREA_STYLE('',(#664));
#666=SURFACE_STYLE_FILL_AREA(#665);
#667=SURFACE_SIDE_STYLE('',(#666));
#668=SURFACE_STYLE_USAGE(.BOTH.,#667);
#669=PRESENTATION_STYLE_ASSIGNMENT((#668));
#17=STYLED_ITEM('',(#669),#663);
#670=PRESENTATION_LAYER_ASSIGNMENT('SHELL_808','',(#17,#374,#400,#430,#455,#474,
#495,#519,#539,#552,#571,#595,#615,#635,#654));
#672=LENGTH_MEASURE_WITH_UNIT(LENGTH_MEASURE(2.54E1),#671);
#673=(CONVERSION_BASED_UNIT('INCH',#672)LENGTH_UNIT()NAMED_UNIT(*));
#675=PLANE_ANGLE_MEASURE_WITH_UNIT(PLANE_ANGLE_MEASURE(1.745329251994E-2),#674);
#676=(CONVERSION_BASED_UNIT('DEGREE',#675)NAMED_UNIT(*)PLANE_ANGLE_UNIT());
#678=UNCERTAINTY_MEASURE_WITH_UNIT(LENGTH_MEASURE(5.247859841125E-5),#673,
'closure',
'Maximum model space distance between geometric entities at asserted connectivities');
#680=CARTESIAN_POINT('',(0.E0,0.E0,0.E0));
#681=DIRECTION('',(0.E0,0.E0,1.E0));
#682=DIRECTION('',(1.E0,0.E0,0.E0));
#685=MECHANICAL_DESIGN_GEOMETRIC_PRESENTATION_REPRESENTATION('',(#25,#32,#39,
#46,#54,#61,#68,#75,#83,#90,#102,#109,#129,#136,#143,#150,#161,#168,#176,#184,
#195,#202,#210,#217,#225,#232,#240,#248,#255,#263,#270,#277,#284,#292,#299,#306,
#381,#407,#437,#462,#481,#502,#526,#559,#578,#602,#622,#642,#661,#17),#679);
#686=APPLICATION_CONTEXT('automotive design');
#687=APPLICATION_PROTOCOL_DEFINITION('international standard',
'config_control_design',1994,#686);
#688=PRODUCT_DEFINITION_CONTEXT('',#686,'design');
#689=PRODUCT_CONTEXT('',#686,'mechanical');
#690=PRODUCT('CUT-EXTRUDE28','CUT-EXTRUDE28','NOT SPECIFIED',(#689));
#691=PRODUCT_DEFINITION_FORMATION_WITH_SPECIFIED_SOURCE('1','LAST_VERSION',#690,
.MADE.);
#699=LENGTH_MEASURE_WITH_UNIT(LENGTH_MEASURE(2.54E1),#698);
#700=(CONVERSION_BASED_UNIT('INCH',#699)LENGTH_UNIT()NAMED_UNIT(*));
#701=DERIVED_UNIT_ELEMENT(#700,2.E0);
#702=AREA_UNIT((#701));
#703=MEASURE_REPRESENTATION_ITEM('surface area measure',AREA_MEASURE(
2.637438710273E1),#702);
#708=LENGTH_MEASURE_WITH_UNIT(LENGTH_MEASURE(2.54E1),#707);
#709=(CONVERSION_BASED_UNIT('INCH',#708)LENGTH_UNIT()NAMED_UNIT(*));
#710=DERIVED_UNIT_ELEMENT(#709,3.E0);
#711=VOLUME_UNIT((#710));
#712=MEASURE_REPRESENTATION_ITEM('volume measure',VOLUME_MEASURE(
2.077830262706E0),#711);
#716=CARTESIAN_POINT('centre point',(7.738578966609E0,7.155534368011E-6,
1.717076877011E1));
#721=LENGTH_MEASURE_WITH_UNIT(LENGTH_MEASURE(2.54E1),#720);
#722=(CONVERSION_BASED_UNIT('INCH',#721)LENGTH_UNIT()NAMED_UNIT(*));
#723=DERIVED_UNIT_ELEMENT(#722,2.E0);
#724=AREA_UNIT((#723));
#725=MEASURE_REPRESENTATION_ITEM('surface area measure',AREA_MEASURE(
2.637438710273E1),#724);
#730=LENGTH_MEASURE_WITH_UNIT(LENGTH_MEASURE(2.54E1),#729);
#731=(CONVERSION_BASED_UNIT('INCH',#730)LENGTH_UNIT()NAMED_UNIT(*));
#732=DERIVED_UNIT_ELEMENT(#731,3.E0);
#733=VOLUME_UNIT((#732));
#734=MEASURE_REPRESENTATION_ITEM('volume measure',VOLUME_MEASURE(
2.077830262706E0),#733);
#738=CARTESIAN_POINT('centre point',(7.738578966609E0,7.155534368011E-6,
1.717076877011E1));
#1=DRAUGHTING_PRE_DEFINED_COLOUR('green');
#2=COLOUR_RGB('',1.1E-2,1.2E-2,1.E0);
#3=COLOUR_RGB('',2.352941176471E-1,2.352941176471E-1,2.352941176471E-1);
#4=COLOUR_RGB('',4.1E-1,2.61589E-1,1.12848E-1);
#5=COLOUR_RGB('',4.980392156863E-1,4.980392156863E-1,4.980392156863E-1);
#6=COLOUR_RGB('',5.04854E-1,1.5455E-2,1.5455E-2);
#7=COLOUR_RGB('',6.35294E-1,6.86275E-1,7.4902E-1);
#8=COLOUR_RGB('',6.40777E-1,6.40777E-1,6.40777E-1);
#9=COLOUR_RGB('',6.392156862745E-1,6.666666666667E-1,6.784313725490E-1);
#10=COLOUR_RGB('',6.69062E-1,6.69903E-1,6.55217E-1);
#11=COLOUR_RGB('',9.21569E-1,7.05882E-1,4.70588E-1);
#12=DRAUGHTING_PRE_DEFINED_COLOUR('red');
#13=DRAUGHTING_PRE_DEFINED_COLOUR('yellow');
#14=COLOUR_RGB('',1.E0,1.E0,5.3E-1);
#15=COLOUR_RGB('',1.E0,1.E0,9.49E-1);
#16=DRAUGHTING_PRE_DEFINED_COLOUR('white');
#51=CIRCLE('',#50,1.574803149606E-2);
#80=CIRCLE('',#79,7.874015748032E-3);
#99=B_SPLINE_CURVE_WITH_KNOTS('',3,(#91,#92,#93,#94,#95,#96,#97,#98),
.UNSPECIFIED.,.F.,.F.,(4,1,1,1,1,4),(0.E0,2.E-1,4.E-1,6.E-1,8.E-1,1.E0),
.UNSPECIFIED.);
#126=B_SPLINE_CURVE_WITH_KNOTS('',3,(#110,#111,#112,#113,#114,#115,#116,#117,
#118,#119,#120,#121,#122,#123,#124,#125),.UNSPECIFIED.,.F.,.F.,(4,1,1,1,1,1,1,1,
1,1,1,1,1,4),(0.E0,7.692307692308E-2,1.538461538462E-1,2.307692307692E-1,
3.076923076923E-1,3.846153846154E-1,4.615384615385E-1,5.384615384615E-1,
6.153846153846E-1,6.923076923077E-1,7.692307692308E-1,8.461538461538E-1,
9.230769230769E-1,1.E0),.UNSPECIFIED.);
#158=B_SPLINE_CURVE_WITH_KNOTS('',3,(#151,#152,#153,#154,#155,#156,#157),
.UNSPECIFIED.,.F.,.F.,(4,1,1,1,4),(0.E0,2.5E-1,5.E-1,7.5E-1,1.E0),
.UNSPECIFIED.);
#173=CIRCLE('',#172,2.187145092888E-2);
#181=CIRCLE('',#180,2.187145092888E-2);
#192=B_SPLINE_CURVE_WITH_KNOTS('',3,(#185,#186,#187,#188,#189,#190,#191),
.UNSPECIFIED.,.F.,.F.,(4,1,1,1,4),(0.E0,2.5E-1,5.E-1,7.5E-1,1.E0),
.UNSPECIFIED.);
#207=CIRCLE('',#206,2.187145092888E-2);
#222=CIRCLE('',#221,2.187145092888E-2);
#237=CIRCLE('',#236,2.187145092888E-2);
#245=CIRCLE('',#244,2.187145092888E-2);
#260=CIRCLE('',#259,7.874015748032E-3);
#289=CIRCLE('',#288,1.574803149606E-2);
#356=EDGE_CURVE('',#313,#341,#80,.T.);
#358=EDGE_CURVE('',#348,#341,#21,.T.);
#360=EDGE_CURVE('',#348,#344,#260,.T.);
#362=EDGE_CURVE('',#328,#344,#29,.T.);
#364=EDGE_CURVE('',#322,#328,#192,.T.);
#366=EDGE_CURVE('',#330,#322,#36,.T.);
#368=EDGE_CURVE('',#314,#330,#158,.T.);
#370=EDGE_CURVE('',#313,#314,#43,.T.);
#374=ADVANCED_FACE('',(#373),#355,.F.);
#387=EDGE_CURVE('',#333,#350,#51,.T.);
#389=EDGE_CURVE('',#338,#333,#58,.T.);
#391=EDGE_CURVE('',#342,#338,#65,.T.);
#393=EDGE_CURVE('',#341,#342,#72,.T.);
#396=EDGE_CURVE('',#350,#313,#87,.T.);
#400=ADVANCED_FACE('',(#399),#386,.T.);
#413=EDGE_CURVE('',#307,#308,#99,.T.);
#415=EDGE_CURVE('',#310,#307,#106,.T.);
#417=EDGE_CURVE('',#309,#310,#126,.T.);
#419=EDGE_CURVE('',#316,#309,#133,.T.);
#421=EDGE_CURVE('',#316,#334,#289,.T.);
#423=EDGE_CURVE('',#333,#334,#140,.T.);
#426=EDGE_CURVE('',#308,#350,#147,.T.);
#430=ADVANCED_FACE('',(#429),#412,.T.);
#443=EDGE_CURVE('',#308,#314,#173,.T.);
#446=EDGE_CURVE('',#330,#326,#222,.T.);
#448=EDGE_CURVE('',#325,#326,#165,.T.);
#450=EDGE_CURVE('',#325,#307,#245,.T.);
#455=ADVANCED_FACE('',(#454),#442,.T.);
#474=ADVANCED_FACE('',(#473),#467,.T.);
#487=EDGE_CURVE('',#328,#309,#181,.T.);
#490=EDGE_CURVE('',#344,#316,#252,.T.);
#495=ADVANCED_FACE('',(#494),#486,.T.);
#508=EDGE_CURVE('',#319,#322,#207,.T.);
#513=EDGE_CURVE('',#310,#320,#237,.T.);
#515=EDGE_CURVE('',#319,#320,#199,.T.);
#519=ADVANCED_FACE('',(#518),#507,.T.);
#534=EDGE_CURVE('',#326,#319,#214,.T.);
#539=ADVANCED_FACE('',(#538),#531,.T.);
#547=EDGE_CURVE('',#325,#320,#229,.T.);
#552=ADVANCED_FACE('',(#551),#544,.T.);
#571=ADVANCED_FACE('',(#570),#564,.T.);
#586=EDGE_CURVE('',#346,#348,#267,.T.);
#588=EDGE_CURVE('',#337,#346,#274,.T.);
#590=EDGE_CURVE('',#334,#337,#281,.T.);
#595=ADVANCED_FACE('',(#594),#583,.F.);
#611=EDGE_CURVE('',#342,#346,#296,.T.);
#615=ADVANCED_FACE('',(#614),#607,.T.);
#631=EDGE_CURVE('',#337,#338,#303,.T.);
#635=ADVANCED_FACE('',(#634),#627,.T.);
#654=ADVANCED_FACE('',(#653),#647,.T.);
#662=CLOSED_SHELL('',(#374,#400,#430,#455,#474,#495,#519,#539,#552,#571,#595,
#615,#635,#654));
#663=MANIFOLD_SOLID_BREP('',#662);
#671=(LENGTH_UNIT()NAMED_UNIT(*)SI_UNIT(.MILLI.,.METRE.));
#674=(NAMED_UNIT(*)PLANE_ANGLE_UNIT()SI_UNIT($,.RADIAN.));
#677=(NAMED_UNIT(*)SI_UNIT($,.STERADIAN.)SOLID_ANGLE_UNIT());
#679=(GEOMETRIC_REPRESENTATION_CONTEXT(3)GLOBAL_UNCERTAINTY_ASSIGNED_CONTEXT((
#678))GLOBAL_UNIT_ASSIGNED_CONTEXT((#673,#676,#677))REPRESENTATION_CONTEXT
('ID1','3'));
#683=AXIS2_PLACEMENT_3D('',#680,#681,#682);
#684=ADVANCED_BREP_SHAPE_REPRESENTATION('',(#683,#663),#679);
#692=PRODUCT_DEFINITION('design','',#691,#688);
#693=PRODUCT_DEFINITION_SHAPE('','SHAPE FOR CUT-EXTRUDE28.',#692);
#694=SHAPE_ASPECT('','solid data associated with CUT-EXTRUDE28',#693,.F.);
#695=PROPERTY_DEFINITION('',
'shape for solid data with which properties are associated',#694);
#696=SHAPE_REPRESENTATION('',(#663),#679);
#697=SHAPE_DEFINITION_REPRESENTATION(#695,#696);
#698=(LENGTH_UNIT()NAMED_UNIT(*)SI_UNIT(.MILLI.,.METRE.));
#704=PROPERTY_DEFINITION('geometric validation property',
'area of CUT-EXTRUDE28',#694);
#705=REPRESENTATION('surface area',(#703),#679);
#706=PROPERTY_DEFINITION_REPRESENTATION(#704,#705);
#707=(LENGTH_UNIT()NAMED_UNIT(*)SI_UNIT(.MILLI.,.METRE.));
#713=PROPERTY_DEFINITION('geometric validation property',
'volume of CUT-EXTRUDE28',#694);
#714=REPRESENTATION('volume',(#712),#679);
#715=PROPERTY_DEFINITION_REPRESENTATION(#713,#714);
#717=PROPERTY_DEFINITION('geometric validation property',
'centroid of CUT-EXTRUDE28',#694);
#718=REPRESENTATION('centroid',(#716),#679);
#719=PROPERTY_DEFINITION_REPRESENTATION(#717,#718);
#720=(LENGTH_UNIT()NAMED_UNIT(*)SI_UNIT(.MILLI.,.METRE.));
#726=PROPERTY_DEFINITION('geometric validation property',
'area of CUT-EXTRUDE28',#693);
#727=REPRESENTATION('surface area',(#725),#679);
#728=PROPERTY_DEFINITION_REPRESENTATION(#726,#727);
#729=(LENGTH_UNIT()NAMED_UNIT(*)SI_UNIT(.MILLI.,.METRE.));
#735=PROPERTY_DEFINITION('geometric validation property',
'volume of CUT-EXTRUDE28',#693);
#736=REPRESENTATION('volume',(#734),#679);
#737=PROPERTY_DEFINITION_REPRESENTATION(#735,#736);
#739=PROPERTY_DEFINITION('geometric validation property',
'centroid of CUT-EXTRUDE28',#693);
#740=REPRESENTATION('centroid',(#738),#679);
#741=PROPERTY_DEFINITION_REPRESENTATION(#739,#740);
#742=SHAPE_DEFINITION_REPRESENTATION(#693,#684);
ENDSEC;
END-ISO-10303-21;
