ISO-10303-21;
HEADER;
FILE_DESCRIPTION((''),'2;1');
FILE_NAME('CUT-EXTRUDE5400','2026-06-15T13:46:21',('Esia'),(''),
'CREO PARAMETRIC BY PTC INC, 2025102','CREO PARAMETRIC BY PTC INC, 2025102','');
FILE_SCHEMA((
'AP242_MANAGED_MODEL_BASED_3D_ENGINEERING_MIM_LF { 1 0 10303 442 1 1 4 }'));
ENDSEC;
DATA;
#17=DIRECTION('',(0.E0,-1.E0,0.E0));
#18=VECTOR('',#17,2.248639781386E-3);
#19=CARTESIAN_POINT('',(7.283464566929E-2,-5.629921259843E-2,
5.748031496063E-2));
#20=LINE('',#19,#18);
#21=DRAUGHTING_PRE_DEFINED_CURVE_FONT('continuous');
#22=CURVE_STYLE('',#21,POSITIVE_LENGTH_MEASURE(2.E-2),#9);
#23=PRESENTATION_STYLE_ASSIGNMENT((#22));
#24=STYLED_ITEM('',(#23),#20);
#25=DIRECTION('',(0.E0,0.E0,1.E0));
#26=VECTOR('',#25,1.771653543307E-2);
#27=CARTESIAN_POINT('',(7.283464566929E-2,-5.629921259843E-2,
3.976377952756E-2));
#28=LINE('',#27,#26);
#29=CURVE_STYLE('',#21,POSITIVE_LENGTH_MEASURE(2.E-2),#9);
#30=PRESENTATION_STYLE_ASSIGNMENT((#29));
#31=STYLED_ITEM('',(#30),#28);
#32=DIRECTION('',(0.E0,1.E0,0.E0));
#33=VECTOR('',#32,7.874015748032E-3);
#34=CARTESIAN_POINT('',(7.283464566929E-2,-6.417322834646E-2,
3.976377952756E-2));
#35=LINE('',#34,#33);
#36=CURVE_STYLE('',#21,POSITIVE_LENGTH_MEASURE(2.E-2),#9);
#37=PRESENTATION_STYLE_ASSIGNMENT((#36));
#38=STYLED_ITEM('',(#37),#35);
#39=DIRECTION('',(0.E0,0.E0,-1.E0));
#40=VECTOR('',#39,1.209115946643E-2);
#41=CARTESIAN_POINT('',(7.283464566929E-2,-6.417322834646E-2,
5.185493899398E-2));
#42=LINE('',#41,#40);
#43=CURVE_STYLE('',#21,POSITIVE_LENGTH_MEASURE(2.E-2),#9);
#44=PRESENTATION_STYLE_ASSIGNMENT((#43));
#45=STYLED_ITEM('',(#44),#42);
#46=CARTESIAN_POINT('',(7.283464566929E-2,-5.854785237981E-2,
5.185493899398E-2));
#47=DIRECTION('',(1.E0,0.E0,0.E0));
#48=DIRECTION('',(0.E0,0.E0,1.E0));
#49=AXIS2_PLACEMENT_3D('',#46,#47,#48);
#51=CURVE_STYLE('',#21,POSITIVE_LENGTH_MEASURE(2.E-2),#9);
#52=PRESENTATION_STYLE_ASSIGNMENT((#51));
#53=STYLED_ITEM('',(#52),#50);
#54=DIRECTION('',(0.E0,-1.E0,0.E0));
#55=VECTOR('',#54,2.248639781386E-3);
#56=CARTESIAN_POINT('',(6.496062992126E-2,-5.629921259843E-2,
5.748031496063E-2));
#57=LINE('',#56,#55);
#58=CURVE_STYLE('',#21,POSITIVE_LENGTH_MEASURE(2.E-2),#9);
#59=PRESENTATION_STYLE_ASSIGNMENT((#58));
#60=STYLED_ITEM('',(#59),#57);
#61=DIRECTION('',(-1.E0,0.E0,0.E0));
#62=VECTOR('',#61,7.874015748032E-3);
#63=CARTESIAN_POINT('',(7.283464566929E-2,-5.629921259843E-2,
5.748031496063E-2));
#64=LINE('',#63,#62);
#65=CURVE_STYLE('',#21,POSITIVE_LENGTH_MEASURE(2.E-2),#9);
#66=PRESENTATION_STYLE_ASSIGNMENT((#65));
#67=STYLED_ITEM('',(#66),#64);
#68=DIRECTION('',(0.E0,0.E0,1.E0));
#69=VECTOR('',#68,1.209115946643E-2);
#70=CARTESIAN_POINT('',(6.496062992126E-2,-6.417322834646E-2,
3.976377952756E-2));
#71=LINE('',#70,#69);
#72=CURVE_STYLE('',#21,POSITIVE_LENGTH_MEASURE(2.E-2),#9);
#73=PRESENTATION_STYLE_ASSIGNMENT((#72));
#74=STYLED_ITEM('',(#73),#71);
#75=DIRECTION('',(0.E0,-1.E0,0.E0));
#76=VECTOR('',#75,7.874015748031E-3);
#77=CARTESIAN_POINT('',(6.496062992126E-2,-5.629921259843E-2,
3.976377952756E-2));
#78=LINE('',#77,#76);
#79=CURVE_STYLE('',#21,POSITIVE_LENGTH_MEASURE(2.E-2),#9);
#80=PRESENTATION_STYLE_ASSIGNMENT((#79));
#81=STYLED_ITEM('',(#80),#78);
#82=DIRECTION('',(0.E0,0.E0,-1.E0));
#83=VECTOR('',#82,1.771653543307E-2);
#84=CARTESIAN_POINT('',(6.496062992126E-2,-5.629921259843E-2,
5.748031496063E-2));
#85=LINE('',#84,#83);
#86=CURVE_STYLE('',#21,POSITIVE_LENGTH_MEASURE(2.E-2),#9);
#87=PRESENTATION_STYLE_ASSIGNMENT((#86));
#88=STYLED_ITEM('',(#87),#85);
#89=CARTESIAN_POINT('',(6.496062992126E-2,-5.854785237981E-2,
5.185493899398E-2));
#90=DIRECTION('',(-1.E0,0.E0,0.E0));
#91=DIRECTION('',(0.E0,-1.E0,0.E0));
#92=AXIS2_PLACEMENT_3D('',#89,#90,#91);
#94=CURVE_STYLE('',#21,POSITIVE_LENGTH_MEASURE(2.E-2),#9);
#95=PRESENTATION_STYLE_ASSIGNMENT((#94));
#96=STYLED_ITEM('',(#95),#93);
#97=DIRECTION('',(-1.E0,0.E0,0.E0));
#98=VECTOR('',#97,7.874015748032E-3);
#99=CARTESIAN_POINT('',(7.283464566929E-2,-5.854785237981E-2,
5.748031496063E-2));
#100=LINE('',#99,#98);
#101=CURVE_STYLE('',#21,POSITIVE_LENGTH_MEASURE(2.E-2),#9);
#102=PRESENTATION_STYLE_ASSIGNMENT((#101));
#103=STYLED_ITEM('',(#102),#100);
#104=DIRECTION('',(1.E0,0.E0,0.E0));
#105=VECTOR('',#104,7.874015748032E-3);
#106=CARTESIAN_POINT('',(6.496062992126E-2,-6.417322834646E-2,
5.185493899398E-2));
#107=LINE('',#106,#105);
#108=CURVE_STYLE('',#21,POSITIVE_LENGTH_MEASURE(2.E-2),#9);
#109=PRESENTATION_STYLE_ASSIGNMENT((#108));
#110=STYLED_ITEM('',(#109),#107);
#111=DIRECTION('',(1.E0,0.E0,0.E0));
#112=VECTOR('',#111,7.874015748032E-3);
#113=CARTESIAN_POINT('',(6.496062992126E-2,-5.629921259843E-2,
3.976377952756E-2));
#114=LINE('',#113,#112);
#115=CURVE_STYLE('',#21,POSITIVE_LENGTH_MEASURE(2.E-2),#9);
#116=PRESENTATION_STYLE_ASSIGNMENT((#115));
#117=STYLED_ITEM('',(#116),#114);
#118=DIRECTION('',(-1.E0,0.E0,0.E0));
#119=VECTOR('',#118,7.874015748032E-3);
#120=CARTESIAN_POINT('',(7.283464566929E-2,-6.417322834646E-2,
3.976377952756E-2));
#121=LINE('',#120,#119);
#122=CURVE_STYLE('',#21,POSITIVE_LENGTH_MEASURE(2.E-2),#9);
#123=PRESENTATION_STYLE_ASSIGNMENT((#122));
#124=STYLED_ITEM('',(#123),#121);
#125=CARTESIAN_POINT('',(6.496062992126E-2,-6.417322834646E-2,
5.185493899398E-2));
#126=CARTESIAN_POINT('',(7.283464566929E-2,-6.417322834646E-2,
5.185493899398E-2));
#127=VERTEX_POINT('',#125);
#128=VERTEX_POINT('',#126);
#129=CARTESIAN_POINT('',(7.283464566929E-2,-5.629921259843E-2,
5.748031496063E-2));
#130=CARTESIAN_POINT('',(7.283464566929E-2,-5.854785237981E-2,
5.748031496063E-2));
#131=VERTEX_POINT('',#129);
#132=VERTEX_POINT('',#130);
#133=CARTESIAN_POINT('',(6.496062992126E-2,-5.854785237981E-2,
5.748031496063E-2));
#134=VERTEX_POINT('',#133);
#135=CARTESIAN_POINT('',(7.283464566929E-2,-6.417322834646E-2,
3.976377952756E-2));
#136=CARTESIAN_POINT('',(6.496062992126E-2,-6.417322834646E-2,
3.976377952756E-2));
#137=VERTEX_POINT('',#135);
#138=VERTEX_POINT('',#136);
#139=CARTESIAN_POINT('',(7.283464566929E-2,-5.629921259843E-2,
3.976377952756E-2));
#140=VERTEX_POINT('',#139);
#141=CARTESIAN_POINT('',(6.496062992126E-2,-5.629921259843E-2,
3.976377952756E-2));
#142=VERTEX_POINT('',#141);
#143=CARTESIAN_POINT('',(6.496062992126E-2,-5.629921259843E-2,
5.748031496063E-2));
#144=VERTEX_POINT('',#143);
#145=CARTESIAN_POINT('',(7.283464566929E-2,-6.417322834646E-2,
5.157480314961E-2));
#146=DIRECTION('',(-1.E0,0.E0,0.E0));
#147=DIRECTION('',(0.E0,0.E0,1.E0));
#148=AXIS2_PLACEMENT_3D('',#145,#146,#147);
#149=PLANE('',#148);
#151=ORIENTED_EDGE('',*,*,#150,.F.);
#153=ORIENTED_EDGE('',*,*,#152,.F.);
#155=ORIENTED_EDGE('',*,*,#154,.F.);
#157=ORIENTED_EDGE('',*,*,#156,.F.);
#159=ORIENTED_EDGE('',*,*,#158,.F.);
#160=EDGE_LOOP('',(#151,#153,#155,#157,#159));
#161=FACE_OUTER_BOUND('',#160,.F.);
#163=FILL_AREA_STYLE_COLOUR('',#12);
#164=FILL_AREA_STYLE('',(#163));
#165=SURFACE_STYLE_FILL_AREA(#164);
#166=SURFACE_SIDE_STYLE('',(#165));
#167=SURFACE_STYLE_USAGE(.BOTH.,#166);
#168=PRESENTATION_STYLE_ASSIGNMENT((#167));
#169=OVER_RIDING_STYLED_ITEM('',(#168),#162,#16);
#170=CARTESIAN_POINT('',(7.283464566929E-2,-6.417322834646E-2,
5.748031496063E-2));
#171=DIRECTION('',(0.E0,0.E0,-1.E0));
#172=DIRECTION('',(-1.E0,0.E0,0.E0));
#173=AXIS2_PLACEMENT_3D('',#170,#171,#172);
#174=PLANE('',#173);
#176=ORIENTED_EDGE('',*,*,#175,.F.);
#178=ORIENTED_EDGE('',*,*,#177,.F.);
#179=ORIENTED_EDGE('',*,*,#150,.T.);
#181=ORIENTED_EDGE('',*,*,#180,.T.);
#182=EDGE_LOOP('',(#176,#178,#179,#181));
#183=FACE_OUTER_BOUND('',#182,.F.);
#185=FILL_AREA_STYLE_COLOUR('',#12);
#186=FILL_AREA_STYLE('',(#185));
#187=SURFACE_STYLE_FILL_AREA(#186);
#188=SURFACE_SIDE_STYLE('',(#187));
#189=SURFACE_STYLE_USAGE(.BOTH.,#188);
#190=PRESENTATION_STYLE_ASSIGNMENT((#189));
#191=OVER_RIDING_STYLED_ITEM('',(#190),#184,#16);
#192=CARTESIAN_POINT('',(6.496062992126E-2,-6.417322834646E-2,
5.157480314961E-2));
#193=DIRECTION('',(1.E0,0.E0,0.E0));
#194=DIRECTION('',(0.E0,0.E0,-1.E0));
#195=AXIS2_PLACEMENT_3D('',#192,#193,#194);
#196=PLANE('',#195);
#198=ORIENTED_EDGE('',*,*,#197,.F.);
#200=ORIENTED_EDGE('',*,*,#199,.F.);
#202=ORIENTED_EDGE('',*,*,#201,.F.);
#203=ORIENTED_EDGE('',*,*,#175,.T.);
#205=ORIENTED_EDGE('',*,*,#204,.F.);
#206=EDGE_LOOP('',(#198,#200,#202,#203,#205));
#207=FACE_OUTER_BOUND('',#206,.F.);
#209=FILL_AREA_STYLE_COLOUR('',#12);
#210=FILL_AREA_STYLE('',(#209));
#211=SURFACE_STYLE_FILL_AREA(#210);
#212=SURFACE_SIDE_STYLE('',(#211));
#213=SURFACE_STYLE_USAGE(.BOTH.,#212);
#214=PRESENTATION_STYLE_ASSIGNMENT((#213));
#215=OVER_RIDING_STYLED_ITEM('',(#214),#208,#16);
#216=CARTESIAN_POINT('',(0.E0,-6.417322834646E-2,0.E0));
#217=DIRECTION('',(0.E0,-1.E0,0.E0));
#218=DIRECTION('',(1.E0,0.E0,0.E0));
#219=AXIS2_PLACEMENT_3D('',#216,#217,#218);
#220=PLANE('',#219);
#222=ORIENTED_EDGE('',*,*,#221,.T.);
#223=ORIENTED_EDGE('',*,*,#156,.T.);
#225=ORIENTED_EDGE('',*,*,#224,.T.);
#226=ORIENTED_EDGE('',*,*,#197,.T.);
#227=EDGE_LOOP('',(#222,#223,#225,#226));
#228=FACE_OUTER_BOUND('',#227,.F.);
#230=FILL_AREA_STYLE_COLOUR('',#12);
#231=FILL_AREA_STYLE('',(#230));
#232=SURFACE_STYLE_FILL_AREA(#231);
#233=SURFACE_SIDE_STYLE('',(#232));
#234=SURFACE_STYLE_USAGE(.BOTH.,#233);
#235=PRESENTATION_STYLE_ASSIGNMENT((#234));
#236=OVER_RIDING_STYLED_ITEM('',(#235),#229,#16);
#237=CARTESIAN_POINT('',(1.684566620534E-1,-5.854785237981E-2,
5.185493899398E-2));
#238=DIRECTION('',(-1.E0,0.E0,0.E0));
#239=DIRECTION('',(0.E0,-1.E0,0.E0));
#240=AXIS2_PLACEMENT_3D('',#237,#238,#239);
#241=CYLINDRICAL_SURFACE('',#240,5.625375966646E-3);
#242=ORIENTED_EDGE('',*,*,#180,.F.);
#243=ORIENTED_EDGE('',*,*,#158,.T.);
#244=ORIENTED_EDGE('',*,*,#221,.F.);
#245=ORIENTED_EDGE('',*,*,#204,.T.);
#246=EDGE_LOOP('',(#242,#243,#244,#245));
#247=FACE_OUTER_BOUND('',#246,.F.);
#249=FILL_AREA_STYLE_COLOUR('',#12);
#250=FILL_AREA_STYLE('',(#249));
#251=SURFACE_STYLE_FILL_AREA(#250);
#252=SURFACE_SIDE_STYLE('',(#251));
#253=SURFACE_STYLE_USAGE(.BOTH.,#252);
#254=PRESENTATION_STYLE_ASSIGNMENT((#253));
#255=OVER_RIDING_STYLED_ITEM('',(#254),#248,#16);
#256=CARTESIAN_POINT('',(6.496062992126E-2,-6.417322834646E-2,
3.976377952756E-2));
#257=DIRECTION('',(0.E0,0.E0,1.E0));
#258=DIRECTION('',(1.E0,0.E0,0.E0));
#259=AXIS2_PLACEMENT_3D('',#256,#257,#258);
#260=PLANE('',#259);
#262=ORIENTED_EDGE('',*,*,#261,.F.);
#263=ORIENTED_EDGE('',*,*,#199,.T.);
#264=ORIENTED_EDGE('',*,*,#224,.F.);
#265=ORIENTED_EDGE('',*,*,#154,.T.);
#266=EDGE_LOOP('',(#262,#263,#264,#265));
#267=FACE_OUTER_BOUND('',#266,.F.);
#269=FILL_AREA_STYLE_COLOUR('',#12);
#270=FILL_AREA_STYLE('',(#269));
#271=SURFACE_STYLE_FILL_AREA(#270);
#272=SURFACE_SIDE_STYLE('',(#271));
#273=SURFACE_STYLE_USAGE(.BOTH.,#272);
#274=PRESENTATION_STYLE_ASSIGNMENT((#273));
#275=OVER_RIDING_STYLED_ITEM('',(#274),#268,#16);
#276=CARTESIAN_POINT('',(0.E0,-5.629921259843E-2,0.E0));
#277=DIRECTION('',(0.E0,-1.E0,0.E0));
#278=DIRECTION('',(1.E0,0.E0,0.E0));
#279=AXIS2_PLACEMENT_3D('',#276,#277,#278);
#280=PLANE('',#279);
#281=ORIENTED_EDGE('',*,*,#152,.T.);
#282=ORIENTED_EDGE('',*,*,#177,.T.);
#283=ORIENTED_EDGE('',*,*,#201,.T.);
#284=ORIENTED_EDGE('',*,*,#261,.T.);
#285=EDGE_LOOP('',(#281,#282,#283,#284));
#286=FACE_OUTER_BOUND('',#285,.F.);
#288=FILL_AREA_STYLE_COLOUR('',#12);
#289=FILL_AREA_STYLE('',(#288));
#290=SURFACE_STYLE_FILL_AREA(#289);
#291=SURFACE_SIDE_STYLE('',(#290));
#292=SURFACE_STYLE_USAGE(.BOTH.,#291);
#293=PRESENTATION_STYLE_ASSIGNMENT((#292));
#294=OVER_RIDING_STYLED_ITEM('',(#293),#287,#16);
#297=FILL_AREA_STYLE_COLOUR('',#9);
#298=FILL_AREA_STYLE('',(#297));
#299=SURFACE_STYLE_FILL_AREA(#298);
#300=SURFACE_SIDE_STYLE('',(#299));
#301=SURFACE_STYLE_USAGE(.BOTH.,#300);
#302=PRESENTATION_STYLE_ASSIGNMENT((#301));
#16=STYLED_ITEM('',(#302),#296);
#303=PRESENTATION_LAYER_ASSIGNMENT('SHELL_49','',(#16,#162,#184,#208,#229,#248,
#268,#287));
#305=LENGTH_MEASURE_WITH_UNIT(LENGTH_MEASURE(2.54E1),#304);
#306=(CONVERSION_BASED_UNIT('INCH',#305)LENGTH_UNIT()NAMED_UNIT(*));
#308=PLANE_ANGLE_MEASURE_WITH_UNIT(PLANE_ANGLE_MEASURE(1.745329251994E-2),#307);
#309=(CONVERSION_BASED_UNIT('DEGREE',#308)NAMED_UNIT(*)PLANE_ANGLE_UNIT());
#311=UNCERTAINTY_MEASURE_WITH_UNIT(LENGTH_MEASURE(2.092464686398E-6),#306,
'closure',
'Maximum model space distance between geometric entities at asserted connectivities');
#313=CARTESIAN_POINT('',(0.E0,0.E0,0.E0));
#314=DIRECTION('',(0.E0,0.E0,1.E0));
#315=DIRECTION('',(1.E0,0.E0,0.E0));
#318=MECHANICAL_DESIGN_GEOMETRIC_PRESENTATION_REPRESENTATION('',(#24,#31,#38,
#45,#53,#60,#67,#74,#81,#88,#96,#103,#110,#117,#124,#169,#191,#215,#236,#255,
#275,#294,#16),#312);
#319=APPLICATION_CONTEXT('automotive design');
#320=APPLICATION_PROTOCOL_DEFINITION('international standard',
'config_control_design',1994,#319);
#321=PRODUCT_DEFINITION_CONTEXT('',#319,'design');
#322=PRODUCT_CONTEXT('',#319,'mechanical');
#323=PRODUCT('CUT-EXTRUDE5400','CUT-EXTRUDE5400','NOT SPECIFIED',(#322));
#324=PRODUCT_DEFINITION_FORMATION_WITH_SPECIFIED_SOURCE('1','LAST_VERSION',#323,
.MADE.);
#332=LENGTH_MEASURE_WITH_UNIT(LENGTH_MEASURE(2.54E1),#331);
#333=(CONVERSION_BASED_UNIT('INCH',#332)LENGTH_UNIT()NAMED_UNIT(*));
#334=DERIVED_UNIT_ELEMENT(#333,2.E0);
#335=AREA_UNIT((#334));
#336=MEASURE_REPRESENTATION_ITEM('surface area measure',AREA_MEASURE(
4.189720654656E-1),#335);
#341=LENGTH_MEASURE_WITH_UNIT(LENGTH_MEASURE(2.54E1),#340);
#342=(CONVERSION_BASED_UNIT('INCH',#341)LENGTH_UNIT()NAMED_UNIT(*));
#343=DERIVED_UNIT_ELEMENT(#342,3.E0);
#344=VOLUME_UNIT((#343));
#345=MEASURE_REPRESENTATION_ITEM('volume measure',VOLUME_MEASURE(
1.712373801681E-2),#344);
#349=CARTESIAN_POINT('centre point',(1.75E0,-1.526515972653E0,
1.225119428299E0));
#354=LENGTH_MEASURE_WITH_UNIT(LENGTH_MEASURE(2.54E1),#353);
#355=(CONVERSION_BASED_UNIT('INCH',#354)LENGTH_UNIT()NAMED_UNIT(*));
#356=DERIVED_UNIT_ELEMENT(#355,2.E0);
#357=AREA_UNIT((#356));
#358=MEASURE_REPRESENTATION_ITEM('surface area measure',AREA_MEASURE(
4.189720654656E-1),#357);
#363=LENGTH_MEASURE_WITH_UNIT(LENGTH_MEASURE(2.54E1),#362);
#364=(CONVERSION_BASED_UNIT('INCH',#363)LENGTH_UNIT()NAMED_UNIT(*));
#365=DERIVED_UNIT_ELEMENT(#364,3.E0);
#366=VOLUME_UNIT((#365));
#367=MEASURE_REPRESENTATION_ITEM('volume measure',VOLUME_MEASURE(
1.712373801681E-2),#366);
#371=CARTESIAN_POINT('centre point',(1.75E0,-1.526515972653E0,
1.225119428299E0));
#1=DRAUGHTING_PRE_DEFINED_COLOUR('green');
#2=COLOUR_RGB('',1.1E-2,1.2E-2,1.E0);
#3=COLOUR_RGB('',2.352941176471E-1,2.352941176471E-1,2.352941176471E-1);
#4=COLOUR_RGB('',4.1E-1,2.61589E-1,1.12848E-1);
#5=COLOUR_RGB('',5.04854E-1,1.5455E-2,1.5455E-2);
#6=COLOUR_RGB('',6.35294E-1,6.86275E-1,7.4902E-1);
#7=COLOUR_RGB('',6.40777E-1,6.40777E-1,6.40777E-1);
#8=COLOUR_RGB('',6.69062E-1,6.69903E-1,6.55217E-1);
#9=COLOUR_RGB('',7.921568627451E-1,8.196078431373E-1,9.333333333333E-1);
#10=COLOUR_RGB('',9.21569E-1,7.05882E-1,4.70588E-1);
#11=DRAUGHTING_PRE_DEFINED_COLOUR('red');
#12=DRAUGHTING_PRE_DEFINED_COLOUR('yellow');
#13=COLOUR_RGB('',1.E0,1.E0,5.3E-1);
#14=COLOUR_RGB('',1.E0,1.E0,9.49E-1);
#15=DRAUGHTING_PRE_DEFINED_COLOUR('white');
#50=CIRCLE('',#49,5.625375966646E-3);
#93=CIRCLE('',#92,5.625375966646E-3);
#150=EDGE_CURVE('',#131,#132,#20,.T.);
#152=EDGE_CURVE('',#140,#131,#28,.T.);
#154=EDGE_CURVE('',#137,#140,#35,.T.);
#156=EDGE_CURVE('',#128,#137,#42,.T.);
#158=EDGE_CURVE('',#132,#128,#50,.T.);
#162=ADVANCED_FACE('',(#161),#149,.F.);
#175=EDGE_CURVE('',#144,#134,#57,.T.);
#177=EDGE_CURVE('',#131,#144,#64,.T.);
#180=EDGE_CURVE('',#132,#134,#100,.T.);
#184=ADVANCED_FACE('',(#183),#174,.F.);
#197=EDGE_CURVE('',#138,#127,#71,.T.);
#199=EDGE_CURVE('',#142,#138,#78,.T.);
#201=EDGE_CURVE('',#144,#142,#85,.T.);
#204=EDGE_CURVE('',#127,#134,#93,.T.);
#208=ADVANCED_FACE('',(#207),#196,.F.);
#221=EDGE_CURVE('',#127,#128,#107,.T.);
#224=EDGE_CURVE('',#137,#138,#121,.T.);
#229=ADVANCED_FACE('',(#228),#220,.T.);
#248=ADVANCED_FACE('',(#247),#241,.T.);
#261=EDGE_CURVE('',#142,#140,#114,.T.);
#268=ADVANCED_FACE('',(#267),#260,.F.);
#287=ADVANCED_FACE('',(#286),#280,.F.);
#295=CLOSED_SHELL('',(#162,#184,#208,#229,#248,#268,#287));
#296=MANIFOLD_SOLID_BREP('',#295);
#304=(LENGTH_UNIT()NAMED_UNIT(*)SI_UNIT(.MILLI.,.METRE.));
#307=(NAMED_UNIT(*)PLANE_ANGLE_UNIT()SI_UNIT($,.RADIAN.));
#310=(NAMED_UNIT(*)SI_UNIT($,.STERADIAN.)SOLID_ANGLE_UNIT());
#312=(GEOMETRIC_REPRESENTATION_CONTEXT(3)GLOBAL_UNCERTAINTY_ASSIGNED_CONTEXT((
#311))GLOBAL_UNIT_ASSIGNED_CONTEXT((#306,#309,#310))REPRESENTATION_CONTEXT
('ID1','3'));
#316=AXIS2_PLACEMENT_3D('',#313,#314,#315);
#317=ADVANCED_BREP_SHAPE_REPRESENTATION('',(#316,#296),#312);
#325=PRODUCT_DEFINITION('design','',#324,#321);
#326=PRODUCT_DEFINITION_SHAPE('','SHAPE FOR CUT-EXTRUDE5400.',#325);
#327=SHAPE_ASPECT('','solid data associated with CUT-EXTRUDE5400',#326,.F.);
#328=PROPERTY_DEFINITION('',
'shape for solid data with which properties are associated',#327);
#329=SHAPE_REPRESENTATION('',(#296),#312);
#330=SHAPE_DEFINITION_REPRESENTATION(#328,#329);
#331=(LENGTH_UNIT()NAMED_UNIT(*)SI_UNIT(.MILLI.,.METRE.));
#337=PROPERTY_DEFINITION('geometric validation property',
'area of CUT-EXTRUDE5400',#327);
#338=REPRESENTATION('surface area',(#336),#312);
#339=PROPERTY_DEFINITION_REPRESENTATION(#337,#338);
#340=(LENGTH_UNIT()NAMED_UNIT(*)SI_UNIT(.MILLI.,.METRE.));
#346=PROPERTY_DEFINITION('geometric validation property',
'volume of CUT-EXTRUDE5400',#327);
#347=REPRESENTATION('volume',(#345),#312);
#348=PROPERTY_DEFINITION_REPRESENTATION(#346,#347);
#350=PROPERTY_DEFINITION('geometric validation property',
'centroid of CUT-EXTRUDE5400',#327);
#351=REPRESENTATION('centroid',(#349),#312);
#352=PROPERTY_DEFINITION_REPRESENTATION(#350,#351);
#353=(LENGTH_UNIT()NAMED_UNIT(*)SI_UNIT(.MILLI.,.METRE.));
#359=PROPERTY_DEFINITION('geometric validation property',
'area of CUT-EXTRUDE5400',#326);
#360=REPRESENTATION('surface area',(#358),#312);
#361=PROPERTY_DEFINITION_REPRESENTATION(#359,#360);
#362=(LENGTH_UNIT()NAMED_UNIT(*)SI_UNIT(.MILLI.,.METRE.));
#368=PROPERTY_DEFINITION('geometric validation property',
'volume of CUT-EXTRUDE5400',#326);
#369=REPRESENTATION('volume',(#367),#312);
#370=PROPERTY_DEFINITION_REPRESENTATION(#368,#369);
#372=PROPERTY_DEFINITION('geometric validation property',
'centroid of CUT-EXTRUDE5400',#326);
#373=REPRESENTATION('centroid',(#371),#312);
#374=PROPERTY_DEFINITION_REPRESENTATION(#372,#373);
#375=SHAPE_DEFINITION_REPRESENTATION(#326,#317);
ENDSEC;
END-ISO-10303-21;
