ISO-10303-21;
HEADER;
FILE_DESCRIPTION((''),'2;1');
FILE_NAME('CUT-EXTRUDE22','2026-06-15T13:46:10',('Esia'),(''),
'CREO PARAMETRIC BY PTC INC, 2025102','CREO PARAMETRIC BY PTC INC, 2025102','');
FILE_SCHEMA((
'AP242_MANAGED_MODEL_BASED_3D_ENGINEERING_MIM_LF { 1 0 10303 442 1 1 4 }'));
ENDSEC;
DATA;
#17=DIRECTION('',(0.E0,-1.E0,0.E0));
#18=VECTOR('',#17,1.121934734954E-2);
#19=CARTESIAN_POINT('',(3.055042370526E-1,5.609673674770E-3,4.625984251968E-1));
#20=LINE('',#19,#18);
#21=DRAUGHTING_PRE_DEFINED_CURVE_FONT('continuous');
#22=CURVE_STYLE('',#21,POSITIVE_LENGTH_MEASURE(2.E-2),#5);
#23=PRESENTATION_STYLE_ASSIGNMENT((#22));
#24=STYLED_ITEM('',(#23),#20);
#25=CARTESIAN_POINT('',(3.027269952222E-1,0.E0,4.609949838784E-1));
#26=CARTESIAN_POINT('',(3.027269952222E-1,1.191195273885E-3,4.609949838784E-1));
#27=CARTESIAN_POINT('',(3.033681085032E-1,3.218661610046E-3,4.613651308038E-1));
#28=CARTESIAN_POINT('',(3.046999344431E-1,4.863745217287E-3,4.621340608687E-1));
#29=CARTESIAN_POINT('',(3.055042370526E-1,5.609673674770E-3,4.625984251968E-1));
#31=CURVE_STYLE('',#21,POSITIVE_LENGTH_MEASURE(2.E-2),#5);
#32=PRESENTATION_STYLE_ASSIGNMENT((#31));
#33=STYLED_ITEM('',(#32),#30);
#34=DIRECTION('',(-4.994858113845E-1,4.533979380327E-2,8.651348029778E-1));
#35=VECTOR('',#34,2.435691897353E-2);
#36=CARTESIAN_POINT('',(3.006224283199E-1,1.059995539245E-2,4.710539659547E-1));
#37=LINE('',#36,#35);
#38=CURVE_STYLE('',#21,POSITIVE_LENGTH_MEASURE(2.E-2),#5);
#39=PRESENTATION_STYLE_ASSIGNMENT((#38));
#40=STYLED_ITEM('',(#39),#37);
#41=CARTESIAN_POINT('',(3.055042370526E-1,5.609673674770E-3,4.625984251968E-1));
#42=CARTESIAN_POINT('',(3.052080125394E-1,6.433849643727E-3,4.631115011040E-1));
#43=CARTESIAN_POINT('',(3.045407901231E-1,7.806131301286E-3,4.642671642290E-1));
#44=CARTESIAN_POINT('',(3.029955256501E-1,9.772328980644E-3,4.669436408075E-1));
#45=CARTESIAN_POINT('',(3.016364026640E-1,1.050791396378E-2,4.692977108731E-1));
#46=CARTESIAN_POINT('',(3.006224283199E-1,1.059995539245E-2,4.710539659547E-1));
#48=CURVE_STYLE('',#21,POSITIVE_LENGTH_MEASURE(2.E-2),#5);
#49=PRESENTATION_STYLE_ASSIGNMENT((#48));
#50=STYLED_ITEM('',(#49),#47);
#51=CARTESIAN_POINT('',(3.006224283203E-1,-1.059995539241E-2,
4.710539659539E-1));
#52=CARTESIAN_POINT('',(3.016364026643E-1,-1.050791396363E-2,
4.692977108726E-1));
#53=CARTESIAN_POINT('',(3.029955256503E-1,-9.772328980438E-3,
4.669436408071E-1));
#54=CARTESIAN_POINT('',(3.045407901232E-1,-7.806131301133E-3,
4.642671642289E-1));
#55=CARTESIAN_POINT('',(3.052080125394E-1,-6.433849643659E-3,
4.631115011040E-1));
#56=CARTESIAN_POINT('',(3.055042370526E-1,-5.609673674770E-3,
4.625984251968E-1));
#58=CURVE_STYLE('',#21,POSITIVE_LENGTH_MEASURE(2.E-2),#5);
#59=PRESENTATION_STYLE_ASSIGNMENT((#58));
#60=STYLED_ITEM('',(#59),#57);
#61=DIRECTION('',(4.994858113845E-1,4.533979380345E-2,-8.651348029778E-1));
#62=VECTOR('',#61,2.435691897380E-2);
#63=CARTESIAN_POINT('',(2.884564928836E-1,-1.170429307635E-2,
4.921259842520E-1));
#64=LINE('',#63,#62);
#65=CURVE_STYLE('',#21,POSITIVE_LENGTH_MEASURE(2.E-2),#5);
#66=PRESENTATION_STYLE_ASSIGNMENT((#65));
#67=STYLED_ITEM('',(#66),#64);
#68=DIRECTION('',(0.E0,-1.E0,-1.816057517279E-14));
#69=VECTOR('',#68,2.445347714072E-2);
#70=CARTESIAN_POINT('',(2.902142707898E-1,1.222673857037E-2,5.020948381348E-1));
#71=LINE('',#70,#69);
#72=CURVE_STYLE('',#21,POSITIVE_LENGTH_MEASURE(2.E-2),#5);
#73=PRESENTATION_STYLE_ASSIGNMENT((#72));
#74=STYLED_ITEM('',(#73),#71);
#75=CARTESIAN_POINT('',(2.884564928836E-1,1.170429307639E-2,4.921259842520E-1));
#76=CARTESIAN_POINT('',(2.879060296815E-1,1.175426023764E-2,4.930794144856E-1));
#77=CARTESIAN_POINT('',(2.873460878974E-1,1.184920341663E-2,4.948910382615E-1));
#78=CARTESIAN_POINT('',(2.873889777988E-1,1.198347341686E-2,4.974530624890E-1));
#79=CARTESIAN_POINT('',(2.882246655983E-1,1.211042903524E-2,4.998755199967E-1));
#80=CARTESIAN_POINT('',(2.893705226670E-1,1.218963445282E-2,5.013868493961E-1));
#81=CARTESIAN_POINT('',(2.902142707898E-1,1.222673857037E-2,5.020948381348E-1));
#83=CURVE_STYLE('',#21,POSITIVE_LENGTH_MEASURE(2.E-2),#5);
#84=PRESENTATION_STYLE_ASSIGNMENT((#83));
#85=STYLED_ITEM('',(#84),#82);
#86=DIRECTION('',(0.E0,1.E0,0.E0));
#87=VECTOR('',#86,2.340858615275E-2);
#88=CARTESIAN_POINT('',(2.884564928836E-1,-1.170429307635E-2,
4.921259842520E-1));
#89=LINE('',#88,#87);
#90=CURVE_STYLE('',#21,POSITIVE_LENGTH_MEASURE(2.E-2),#5);
#91=PRESENTATION_STYLE_ASSIGNMENT((#90));
#92=STYLED_ITEM('',(#91),#89);
#93=CARTESIAN_POINT('',(2.902142707898E-1,-1.222673857034E-2,
5.020948381348E-1));
#94=CARTESIAN_POINT('',(2.893705226670E-1,-1.218963445279E-2,
5.013868493961E-1));
#95=CARTESIAN_POINT('',(2.882246655983E-1,-1.211042903521E-2,
4.998755199967E-1));
#96=CARTESIAN_POINT('',(2.873889777988E-1,-1.198347341682E-2,
4.974530624890E-1));
#97=CARTESIAN_POINT('',(2.873460878974E-1,-1.184920341659E-2,
4.948910382615E-1));
#98=CARTESIAN_POINT('',(2.879060296815E-1,-1.175426023760E-2,
4.930794144856E-1));
#99=CARTESIAN_POINT('',(2.884564928836E-1,-1.170429307635E-2,
4.921259842520E-1));
#101=CURVE_STYLE('',#21,POSITIVE_LENGTH_MEASURE(2.E-2),#5);
#102=PRESENTATION_STYLE_ASSIGNMENT((#101));
#103=STYLED_ITEM('',(#102),#100);
#104=DIRECTION('',(7.656101519119E-1,3.366797306624E-2,6.424231960936E-1));
#105=VECTOR('',#104,1.377173145747E-2);
#106=CARTESIAN_POINT('',(2.902142707898E-1,1.222673857037E-2,
5.020948381348E-1));
#107=LINE('',#106,#105);
#108=CURVE_STYLE('',#21,POSITIVE_LENGTH_MEASURE(2.E-2),#5);
#109=PRESENTATION_STYLE_ASSIGNMENT((#108));
#110=STYLED_ITEM('',(#109),#107);
#111=DIRECTION('',(-7.656101519119E-1,3.366797306710E-2,-6.424231960936E-1));
#112=VECTOR('',#111,1.377173145747E-2);
#113=CARTESIAN_POINT('',(3.007580482031E-1,-1.269040485414E-2,
5.109421178734E-1));
#114=LINE('',#113,#112);
#115=CURVE_STYLE('',#21,POSITIVE_LENGTH_MEASURE(2.E-2),#5);
#116=PRESENTATION_STYLE_ASSIGNMENT((#115));
#117=STYLED_ITEM('',(#116),#114);
#118=DIRECTION('',(0.E0,-1.E0,0.E0));
#119=VECTOR('',#118,2.680333015263E-2);
#120=CARTESIAN_POINT('',(3.070866141732E-1,1.340166507632E-2,
5.245137713933E-1));
#121=LINE('',#120,#119);
#122=CURVE_STYLE('',#21,POSITIVE_LENGTH_MEASURE(2.E-2),#5);
#123=PRESENTATION_STYLE_ASSIGNMENT((#122));
#124=STYLED_ITEM('',(#123),#121);
#125=CARTESIAN_POINT('',(3.007580482031E-1,1.269040485416E-2,
5.109421178734E-1));
#126=CARTESIAN_POINT('',(3.028684188971E-1,1.278320914040E-2,
5.127129291445E-1));
#127=CARTESIAN_POINT('',(3.058771188852E-1,1.299837109382E-2,
5.168184637877E-1));
#128=CARTESIAN_POINT('',(3.070866141732E-1,1.325740331591E-2,
5.217610930242E-1));
#129=CARTESIAN_POINT('',(3.070866141732E-1,1.340166507632E-2,
5.245137713933E-1));
#131=CURVE_STYLE('',#21,POSITIVE_LENGTH_MEASURE(2.E-2),#5);
#132=PRESENTATION_STYLE_ASSIGNMENT((#131));
#133=STYLED_ITEM('',(#132),#130);
#134=DIRECTION('',(0.E0,1.E0,0.E0));
#135=VECTOR('',#134,2.538080970830E-2);
#136=CARTESIAN_POINT('',(3.007580482031E-1,-1.269040485414E-2,
5.109421178734E-1));
#137=LINE('',#136,#135);
#138=CURVE_STYLE('',#21,POSITIVE_LENGTH_MEASURE(2.E-2),#5);
#139=PRESENTATION_STYLE_ASSIGNMENT((#138));
#140=STYLED_ITEM('',(#139),#137);
#141=CARTESIAN_POINT('',(3.070866141732E-1,-1.340166507632E-2,
5.245137713933E-1));
#142=CARTESIAN_POINT('',(3.070866141732E-1,-1.325740331591E-2,
5.217610930242E-1));
#143=CARTESIAN_POINT('',(3.058771188852E-1,-1.299837109381E-2,
5.168184637877E-1));
#144=CARTESIAN_POINT('',(3.028684188971E-1,-1.278320914039E-2,
5.127129291445E-1));
#145=CARTESIAN_POINT('',(3.007580482031E-1,-1.269040485414E-2,
5.109421178734E-1));
#147=CURVE_STYLE('',#21,POSITIVE_LENGTH_MEASURE(2.E-2),#5);
#148=PRESENTATION_STYLE_ASSIGNMENT((#147));
#149=STYLED_ITEM('',(#148),#146);
#150=DIRECTION('',(-2.805522454302E-14,3.331557914483E-14,-1.E0));
#151=VECTOR('',#150,1.978638636313E-3);
#152=CARTESIAN_POINT('',(3.070866141732E-1,-2.165354330709E-2,
6.166885689278E-1));
#153=LINE('',#152,#151);
#154=CURVE_STYLE('',#21,POSITIVE_LENGTH_MEASURE(2.E-2),#5);
#155=PRESENTATION_STYLE_ASSIGNMENT((#154));
#156=STYLED_ITEM('',(#155),#153);
#157=DIRECTION('',(0.E0,-1.E0,0.E0));
#158=VECTOR('',#157,4.724409448819E-2);
#159=CARTESIAN_POINT('',(3.070866141732E-1,2.559055118110E-2,
6.166885689278E-1));
#160=LINE('',#159,#158);
#161=CURVE_STYLE('',#21,POSITIVE_LENGTH_MEASURE(2.E-2),#5);
#162=PRESENTATION_STYLE_ASSIGNMENT((#161));
#163=STYLED_ITEM('',(#162),#160);
#164=DIRECTION('',(2.753221943244E-13,-2.409069200338E-13,1.E0));
#165=VECTOR('',#164,2.016225076495E-4);
#166=CARTESIAN_POINT('',(3.070866141732E-1,2.559055118110E-2,
6.164869464202E-1));
#167=LINE('',#166,#165);
#168=CURVE_STYLE('',#21,POSITIVE_LENGTH_MEASURE(2.E-2),#5);
#169=PRESENTATION_STYLE_ASSIGNMENT((#168));
#170=STYLED_ITEM('',(#169),#167);
#171=CARTESIAN_POINT('',(3.070866141732E-1,2.757254394698E-2,
6.068460492429E-1));
#172=DIRECTION('',(-1.E0,0.E0,0.E0));
#173=DIRECTION('',(0.E0,-9.986295347582E-1,5.233595617336E-2));
#174=AXIS2_PLACEMENT_3D('',#171,#172,#173);
#176=CURVE_STYLE('',#21,POSITIVE_LENGTH_MEASURE(2.E-2),#5);
#177=PRESENTATION_STYLE_ASSIGNMENT((#176));
#178=STYLED_ITEM('',(#177),#175);
#179=DIRECTION('',(4.616946808527E-14,5.233595624174E-2,9.986295347546E-1));
#180=VECTOR('',#179,8.296109082051E-2);
#181=CARTESIAN_POINT('',(3.070866141732E-1,1.340166507632E-2,
5.245137713933E-1));
#182=LINE('',#181,#180);
#183=CURVE_STYLE('',#21,POSITIVE_LENGTH_MEASURE(2.E-2),#5);
#184=PRESENTATION_STYLE_ASSIGNMENT((#183));
#185=STYLED_ITEM('',(#184),#182);
#186=DIRECTION('',(-4.683859081100E-14,5.233595624283E-2,-9.986295347546E-1));
#187=VECTOR('',#186,8.296109082077E-2);
#188=CARTESIAN_POINT('',(3.070866141732E-1,-1.774351309537E-2,
6.073611669224E-1));
#189=LINE('',#188,#187);
#190=CURVE_STYLE('',#21,POSITIVE_LENGTH_MEASURE(2.E-2),#5);
#191=PRESENTATION_STYLE_ASSIGNMENT((#190));
#192=STYLED_ITEM('',(#191),#189);
#193=CARTESIAN_POINT('',(3.070866141732E-1,-2.757254394925E-2,
6.068460492428E-1));
#194=DIRECTION('',(-1.E0,0.E0,0.E0));
#195=DIRECTION('',(0.E0,6.013704652441E-1,7.989703145500E-1));
#196=AXIS2_PLACEMENT_3D('',#193,#194,#195);
#198=CURVE_STYLE('',#21,POSITIVE_LENGTH_MEASURE(2.E-2),#5);
#199=PRESENTATION_STYLE_ASSIGNMENT((#198));
#200=STYLED_ITEM('',(#199),#197);
#201=DIRECTION('',(1.E0,0.E0,0.E0));
#202=VECTOR('',#201,1.181102362206E-2);
#203=CARTESIAN_POINT('',(2.952755905512E-1,-1.774351309537E-2,
6.073611669224E-1));
#204=LINE('',#203,#202);
#205=CURVE_STYLE('',#21,POSITIVE_LENGTH_MEASURE(2.E-2),#5);
#206=PRESENTATION_STYLE_ASSIGNMENT((#205));
#207=STYLED_ITEM('',(#206),#204);
#208=DIRECTION('',(-1.E0,0.E0,0.E0));
#209=VECTOR('',#208,1.181102362206E-2);
#210=CARTESIAN_POINT('',(3.070866141732E-1,-2.165354330709E-2,
6.147099302915E-1));
#211=LINE('',#210,#209);
#212=CURVE_STYLE('',#21,POSITIVE_LENGTH_MEASURE(2.E-2),#5);
#213=PRESENTATION_STYLE_ASSIGNMENT((#212));
#214=STYLED_ITEM('',(#213),#211);
#215=DIRECTION('',(1.E0,0.E0,0.E0));
#216=VECTOR('',#215,1.363819533518E-2);
#217=CARTESIAN_POINT('',(2.869842329847E-1,1.059995539245E-2,
4.710539659547E-1));
#218=LINE('',#217,#216);
#219=CURVE_STYLE('',#21,POSITIVE_LENGTH_MEASURE(2.E-2),#5);
#220=PRESENTATION_STYLE_ASSIGNMENT((#219));
#221=STYLED_ITEM('',(#220),#218);
#222=DIRECTION('',(-1.E0,-7.708075743201E-14,1.469367838044E-12));
#223=VECTOR('',#222,1.363819533519E-2);
#224=CARTESIAN_POINT('',(3.006224283200E-1,-1.059995539239E-2,
4.710539659544E-1));
#225=LINE('',#224,#223);
#226=CURVE_STYLE('',#21,POSITIVE_LENGTH_MEASURE(2.E-2),#5);
#227=PRESENTATION_STYLE_ASSIGNMENT((#226));
#228=STYLED_ITEM('',(#227),#225);
#229=CARTESIAN_POINT('',(3.027269952222E-1,0.E0,4.609949838784E-1));
#230=CARTESIAN_POINT('',(3.027269952222E-1,-1.191195273885E-3,
4.609949838784E-1));
#231=CARTESIAN_POINT('',(3.033681085032E-1,-3.218661610046E-3,
4.613651308038E-1));
#232=CARTESIAN_POINT('',(3.046999344431E-1,-4.863745217287E-3,
4.621340608687E-1));
#233=CARTESIAN_POINT('',(3.055042370526E-1,-5.609673674770E-3,
4.625984251968E-1));
#235=CURVE_STYLE('',#21,POSITIVE_LENGTH_MEASURE(2.E-2),#5);
#236=PRESENTATION_STYLE_ASSIGNMENT((#235));
#237=STYLED_ITEM('',(#236),#234);
#238=DIRECTION('',(1.E0,0.E0,0.E0));
#239=VECTOR('',#238,1.181102362206E-2);
#240=CARTESIAN_POINT('',(2.952755905512E-1,2.559055118110E-2,
6.164869464202E-1));
#241=LINE('',#240,#239);
#242=CURVE_STYLE('',#21,POSITIVE_LENGTH_MEASURE(2.E-2),#5);
#243=PRESENTATION_STYLE_ASSIGNMENT((#242));
#244=STYLED_ITEM('',(#243),#241);
#245=DIRECTION('',(-1.E0,0.E0,0.E0));
#246=VECTOR('',#245,1.181102362206E-2);
#247=CARTESIAN_POINT('',(3.070866141732E-1,1.774351309526E-2,
6.073611669221E-1));
#248=LINE('',#247,#246);
#249=CURVE_STYLE('',#21,POSITIVE_LENGTH_MEASURE(2.E-2),#5);
#250=PRESENTATION_STYLE_ASSIGNMENT((#249));
#251=STYLED_ITEM('',(#250),#248);
#252=DIRECTION('',(-1.E0,0.E0,0.E0));
#253=VECTOR('',#252,1.181102362206E-2);
#254=CARTESIAN_POINT('',(3.070866141732E-1,2.559055118110E-2,
6.166885689278E-1));
#255=LINE('',#254,#253);
#256=CURVE_STYLE('',#21,POSITIVE_LENGTH_MEASURE(2.E-2),#5);
#257=PRESENTATION_STYLE_ASSIGNMENT((#256));
#258=STYLED_ITEM('',(#257),#255);
#259=DIRECTION('',(1.E0,0.E0,0.E0));
#260=VECTOR('',#259,1.181102362206E-2);
#261=CARTESIAN_POINT('',(2.952755905512E-1,-2.165354330709E-2,
6.166885689278E-1));
#262=LINE('',#261,#260);
#263=CURVE_STYLE('',#21,POSITIVE_LENGTH_MEASURE(2.E-2),#5);
#264=PRESENTATION_STYLE_ASSIGNMENT((#263));
#265=STYLED_ITEM('',(#264),#262);
#266=DIRECTION('',(0.E0,-1.E0,0.E0));
#267=VECTOR('',#266,4.724409448819E-2);
#268=CARTESIAN_POINT('',(2.952755905512E-1,2.559055118110E-2,
6.166885689278E-1));
#269=LINE('',#268,#267);
#270=CURVE_STYLE('',#21,POSITIVE_LENGTH_MEASURE(2.E-2),#5);
#271=PRESENTATION_STYLE_ASSIGNMENT((#270));
#272=STYLED_ITEM('',(#271),#269);
#273=DIRECTION('',(0.E0,-5.233595624283E-2,9.986295347546E-1));
#274=VECTOR('',#273,8.296109082080E-2);
#275=CARTESIAN_POINT('',(2.952755905512E-1,-1.340166507631E-2,
5.245137713933E-1));
#276=LINE('',#275,#274);
#277=CURVE_STYLE('',#21,POSITIVE_LENGTH_MEASURE(2.E-2),#5);
#278=PRESENTATION_STYLE_ASSIGNMENT((#277));
#279=STYLED_ITEM('',(#278),#276);
#280=DIRECTION('',(0.E0,-5.233595624174E-2,-9.986295347546E-1));
#281=VECTOR('',#280,8.296109082053E-2);
#282=CARTESIAN_POINT('',(2.952755905512E-1,1.774351309526E-2,
6.073611669221E-1));
#283=LINE('',#282,#281);
#284=CURVE_STYLE('',#21,POSITIVE_LENGTH_MEASURE(2.E-2),#5);
#285=PRESENTATION_STYLE_ASSIGNMENT((#284));
#286=STYLED_ITEM('',(#285),#283);
#287=CARTESIAN_POINT('',(2.952755905512E-1,2.757254394698E-2,
6.068460492429E-1));
#288=DIRECTION('',(1.E0,0.E0,0.E0));
#289=DIRECTION('',(0.E0,-2.013704650587E-1,9.795151534316E-1));
#290=AXIS2_PLACEMENT_3D('',#287,#288,#289);
#292=CURVE_STYLE('',#21,POSITIVE_LENGTH_MEASURE(2.E-2),#5);
#293=PRESENTATION_STYLE_ASSIGNMENT((#292));
#294=STYLED_ITEM('',(#293),#291);
#295=DIRECTION('',(8.259665829732E-13,2.236992828886E-13,-1.E0));
#296=VECTOR('',#295,2.016225076495E-4);
#297=CARTESIAN_POINT('',(2.952755905512E-1,2.559055118110E-2,
6.166885689278E-1));
#298=LINE('',#297,#296);
#299=CURVE_STYLE('',#21,POSITIVE_LENGTH_MEASURE(2.E-2),#5);
#300=PRESENTATION_STYLE_ASSIGNMENT((#299));
#301=STYLED_ITEM('',(#300),#298);
#302=DIRECTION('',(-5.611044908603E-14,-2.630177300908E-14,1.E0));
#303=VECTOR('',#302,1.978638636313E-3);
#304=CARTESIAN_POINT('',(2.952755905512E-1,-2.165354330709E-2,
6.147099302915E-1));
#305=LINE('',#304,#303);
#306=CURVE_STYLE('',#21,POSITIVE_LENGTH_MEASURE(2.E-2),#5);
#307=PRESENTATION_STYLE_ASSIGNMENT((#306));
#308=STYLED_ITEM('',(#307),#305);
#309=CARTESIAN_POINT('',(2.952755905512E-1,-2.757254394925E-2,
6.068460492428E-1));
#310=DIRECTION('',(1.E0,0.E0,0.E0));
#311=DIRECTION('',(0.E0,9.986295347545E-1,5.233595624362E-2));
#312=AXIS2_PLACEMENT_3D('',#309,#310,#311);
#314=CURVE_STYLE('',#21,POSITIVE_LENGTH_MEASURE(2.E-2),#5);
#315=PRESENTATION_STYLE_ASSIGNMENT((#314));
#316=STYLED_ITEM('',(#315),#313);
#317=DIRECTION('',(0.E0,-1.E0,0.E0));
#318=VECTOR('',#317,2.632915667119E-2);
#319=CARTESIAN_POINT('',(2.931660685611E-1,1.316457833560E-2,
5.199898868866E-1));
#320=LINE('',#319,#318);
#321=CURVE_STYLE('',#21,POSITIVE_LENGTH_MEASURE(2.E-2),#5);
#322=PRESENTATION_STYLE_ASSIGNMENT((#321));
#323=STYLED_ITEM('',(#322),#320);
#324=CARTESIAN_POINT('',(2.952755905512E-1,1.340166507631E-2,
5.245137713933E-1));
#325=CARTESIAN_POINT('',(2.952755905512E-1,1.335357782285E-2,
5.235962119369E-1));
#326=CARTESIAN_POINT('',(2.948724254552E-1,1.326723374881E-2,
5.219486688581E-1));
#327=CARTESIAN_POINT('',(2.938695254591E-1,1.319551309768E-2,
5.205801573103E-1));
#328=CARTESIAN_POINT('',(2.931660685611E-1,1.316457833560E-2,
5.199898868866E-1));
#330=CURVE_STYLE('',#21,POSITIVE_LENGTH_MEASURE(2.E-2),#5);
#331=PRESENTATION_STYLE_ASSIGNMENT((#330));
#332=STYLED_ITEM('',(#331),#329);
#333=DIRECTION('',(0.E0,1.E0,0.E0));
#334=VECTOR('',#333,2.680333015263E-2);
#335=CARTESIAN_POINT('',(2.952755905512E-1,-1.340166507631E-2,
5.245137713933E-1));
#336=LINE('',#335,#334);
#337=CURVE_STYLE('',#21,POSITIVE_LENGTH_MEASURE(2.E-2),#5);
#338=PRESENTATION_STYLE_ASSIGNMENT((#337));
#339=STYLED_ITEM('',(#338),#336);
#340=CARTESIAN_POINT('',(2.931660685611E-1,-1.316457833559E-2,
5.199898868866E-1));
#341=CARTESIAN_POINT('',(2.938695254591E-1,-1.319551309767E-2,
5.205801573103E-1));
#342=CARTESIAN_POINT('',(2.948724254552E-1,-1.326723374881E-2,
5.219486688581E-1));
#343=CARTESIAN_POINT('',(2.952755905512E-1,-1.335357782285E-2,
5.235962119369E-1));
#344=CARTESIAN_POINT('',(2.952755905512E-1,-1.340166507631E-2,
5.245137713933E-1));
#346=CURVE_STYLE('',#21,POSITIVE_LENGTH_MEASURE(2.E-2),#5);
#347=PRESENTATION_STYLE_ASSIGNMENT((#346));
#348=STYLED_ITEM('',(#347),#345);
#349=DIRECTION('',(-7.656101519110E-1,-3.366797306629E-2,-6.424231960946E-1));
#350=VECTOR('',#349,1.377173145740E-2);
#351=CARTESIAN_POINT('',(2.931660685611E-1,1.316457833560E-2,
5.199898868866E-1));
#352=LINE('',#351,#350);
#353=CURVE_STYLE('',#21,POSITIVE_LENGTH_MEASURE(2.E-2),#5);
#354=PRESENTATION_STYLE_ASSIGNMENT((#353));
#355=STYLED_ITEM('',(#354),#352);
#356=DIRECTION('',(7.656101519110E-1,-3.366797306715E-2,6.424231960946E-1));
#357=VECTOR('',#356,1.377173145740E-2);
#358=CARTESIAN_POINT('',(2.826222911479E-1,-1.270091205179E-2,
5.111426071480E-1));
#359=LINE('',#358,#357);
#360=CURVE_STYLE('',#21,POSITIVE_LENGTH_MEASURE(2.E-2),#5);
#361=PRESENTATION_STYLE_ASSIGNMENT((#360));
#362=STYLED_ITEM('',(#361),#359);
#363=DIRECTION('',(0.E0,-1.E0,-1.461486628050E-14));
#364=VECTOR('',#363,2.278959663366E-2);
#365=CARTESIAN_POINT('',(2.782278463822E-1,1.139479831686E-2,
4.862204724409E-1));
#366=LINE('',#365,#364);
#367=CURVE_STYLE('',#21,POSITIVE_LENGTH_MEASURE(2.E-2),#5);
#368=PRESENTATION_STYLE_ASSIGNMENT((#367));
#369=STYLED_ITEM('',(#368),#366);
#370=CARTESIAN_POINT('',(2.826222911479E-1,1.270091205181E-2,
5.111426071480E-1));
#371=CARTESIAN_POINT('',(2.815676059943E-1,1.265453190487E-2,
5.102576212246E-1));
#372=CARTESIAN_POINT('',(2.798171689173E-1,1.255846008013E-2,
5.084244616049E-1));
#373=CARTESIAN_POINT('',(2.772878310416E-1,1.235735300210E-2,
5.045871099601E-1));
#374=CARTESIAN_POINT('',(2.755672098479E-1,1.209267396496E-2,
4.995367330738E-1));
#375=CARTESIAN_POINT('',(2.754574950538E-1,1.181313264758E-2,
4.942027669869E-1));
#376=CARTESIAN_POINT('',(2.765220719057E-1,1.157886798336E-2,
4.897327309077E-1));
#377=CARTESIAN_POINT('',(2.775397673796E-1,1.145725726842E-2,
4.874122602330E-1));
#378=CARTESIAN_POINT('',(2.782278463822E-1,1.139479831686E-2,
4.862204724409E-1));
#380=CURVE_STYLE('',#21,POSITIVE_LENGTH_MEASURE(2.E-2),#5);
#381=PRESENTATION_STYLE_ASSIGNMENT((#380));
#382=STYLED_ITEM('',(#381),#379);
#383=DIRECTION('',(0.E0,1.E0,0.E0));
#384=VECTOR('',#383,2.540182410361E-2);
#385=CARTESIAN_POINT('',(2.826222911479E-1,-1.270091205179E-2,
5.111426071480E-1));
#386=LINE('',#385,#384);
#387=CURVE_STYLE('',#21,POSITIVE_LENGTH_MEASURE(2.E-2),#5);
#388=PRESENTATION_STYLE_ASSIGNMENT((#387));
#389=STYLED_ITEM('',(#388),#386);
#390=CARTESIAN_POINT('',(2.782278463822E-1,-1.139479831681E-2,
4.862204724409E-1));
#391=CARTESIAN_POINT('',(2.775397673796E-1,-1.145725726837E-2,
4.874122602330E-1));
#392=CARTESIAN_POINT('',(2.765220719057E-1,-1.157886798332E-2,
4.897327309077E-1));
#393=CARTESIAN_POINT('',(2.754574950538E-1,-1.181313264754E-2,
4.942027669869E-1));
#394=CARTESIAN_POINT('',(2.755672098479E-1,-1.209267396492E-2,
4.995367330738E-1));
#395=CARTESIAN_POINT('',(2.772878310416E-1,-1.235735300208E-2,
5.045871099601E-1));
#396=CARTESIAN_POINT('',(2.798171689173E-1,-1.255846008011E-2,
5.084244616049E-1));
#397=CARTESIAN_POINT('',(2.815676059943E-1,-1.265453190485E-2,
5.102576212246E-1));
#398=CARTESIAN_POINT('',(2.826222911479E-1,-1.270091205179E-2,
5.111426071480E-1));
#400=CURVE_STYLE('',#21,POSITIVE_LENGTH_MEASURE(2.E-2),#5);
#401=PRESENTATION_STYLE_ASSIGNMENT((#400));
#402=STYLED_ITEM('',(#401),#399);
#403=CARTESIAN_POINT('',(2.869842329847E-1,1.059995539245E-2,
4.710539659547E-1));
#404=CARTESIAN_POINT('',(2.870602579861E-1,1.059305437983E-2,
4.709222867895E-1));
#405=CARTESIAN_POINT('',(2.871683984186E-1,1.057925235459E-2,
4.707349820662E-1));
#406=CARTESIAN_POINT('',(2.873377147862E-1,1.055164830409E-2,
4.704417175149E-1));
#407=CARTESIAN_POINT('',(2.874972577894E-1,1.051714324098E-2,
4.701653809274E-1));
#408=CARTESIAN_POINT('',(2.876549105914E-1,1.047573716523E-2,
4.698923182643E-1));
#409=CARTESIAN_POINT('',(2.878353667086E-1,1.042052906424E-2,
4.695797591009E-1));
#410=CARTESIAN_POINT('',(2.880247300944E-1,1.035151893800E-2,
4.692517720955E-1));
#411=CARTESIAN_POINT('',(2.882187648751E-1,1.026870678650E-2,
4.689156939969E-1));
#412=CARTESIAN_POINT('',(2.883901406401E-1,1.018589463501E-2,
4.686188624648E-1));
#413=CARTESIAN_POINT('',(2.885965215051E-1,1.007547843302E-2,
4.682614003209E-1));
#414=CARTESIAN_POINT('',(2.888227534614E-1,9.937458180523E-3,
4.678695550783E-1));
#415=CARTESIAN_POINT('',(2.890606107692E-1,9.771833877528E-3,
4.674575741363E-1));
#416=CARTESIAN_POINT('',(2.892736446103E-1,9.606209574533E-3,
4.670885886997E-1));
#417=CARTESIAN_POINT('',(2.894674651921E-1,9.440585271537E-3,
4.667528816046E-1));
#418=CARTESIAN_POINT('',(2.897051503114E-1,9.219752867540E-3,
4.663411989016E-1));
#419=CARTESIAN_POINT('',(2.899701759400E-1,8.943712362543E-3,
4.658821610476E-1));
#420=CARTESIAN_POINT('',(2.902504937343E-1,8.612463756544E-3,
4.653966363855E-1));
#421=CARTESIAN_POINT('',(2.905011349196E-1,8.281215150544E-3,
4.649625131181E-1));
#422=CARTESIAN_POINT('',(2.908029538710E-1,7.839550342542E-3,
4.644397473597E-1));
#423=CARTESIAN_POINT('',(2.911294572817E-1,7.287469332537E-3,
4.638742268634E-1));
#424=CARTESIAN_POINT('',(2.914598856047E-1,6.624972120527E-3,
4.633019082198E-1));
#425=CARTESIAN_POINT('',(2.917405566675E-1,5.962474908515E-3,
4.628157716788E-1));
#426=CARTESIAN_POINT('',(2.919792723480E-1,5.299977696501E-3,
4.624023039916E-1));
#427=CARTESIAN_POINT('',(2.921814138125E-1,4.637480484484E-3,
4.620521847048E-1));
#428=CARTESIAN_POINT('',(2.924072798258E-1,3.754150868460E-3,
4.616609732940E-1));
#429=CARTESIAN_POINT('',(2.926151504484E-1,2.649988848426E-3,
4.613009308143E-1));
#430=CARTESIAN_POINT('',(2.927600853423E-1,1.324994424379E-3,
4.610498962142E-1));
#431=CARTESIAN_POINT('',(2.928076408201E-1,3.275682676496E-13,
4.609675277106E-1));
#432=CARTESIAN_POINT('',(2.927600853424E-1,-1.324994423729E-3,
4.610498962142E-1));
#433=CARTESIAN_POINT('',(2.926151504485E-1,-2.649988847791E-3,
4.613009308141E-1));
#434=CARTESIAN_POINT('',(2.924072798260E-1,-3.754150867848E-3,
4.616609732938E-1));
#435=CARTESIAN_POINT('',(2.921814138126E-1,-4.637480483896E-3,
4.620521847046E-1));
#436=CARTESIAN_POINT('',(2.919792723482E-1,-5.299977695934E-3,
4.624023039913E-1));
#437=CARTESIAN_POINT('',(2.917405566677E-1,-5.962474907974E-3,
4.628157716785E-1));
#438=CARTESIAN_POINT('',(2.914598856050E-1,-6.624972120016E-3,
4.633019082194E-1));
#439=CARTESIAN_POINT('',(2.911294572820E-1,-7.287469332061E-3,
4.638742268630E-1));
#440=CARTESIAN_POINT('',(2.908029538713E-1,-7.839550342101E-3,
4.644397473592E-1));
#441=CARTESIAN_POINT('',(2.905011349199E-1,-8.281215150135E-3,
4.649625131176E-1));
#442=CARTESIAN_POINT('',(2.902504937346E-1,-8.612463756162E-3,
4.653966363850E-1));
#443=CARTESIAN_POINT('',(2.899701759403E-1,-8.943712362190E-3,
4.658821610470E-1));
#444=CARTESIAN_POINT('',(2.897051503117E-1,-9.219752867216E-3,
4.663411989011E-1));
#445=CARTESIAN_POINT('',(2.894674651924E-1,-9.440585271238E-3,
4.667528816040E-1));
#446=CARTESIAN_POINT('',(2.892736446106E-1,-9.606209574255E-3,
4.670885886991E-1));
#447=CARTESIAN_POINT('',(2.890606107695E-1,-9.771833877273E-3,
4.674575741357E-1));
#448=CARTESIAN_POINT('',(2.888227534617E-1,-9.937458180292E-3,
4.678695550777E-1));
#449=CARTESIAN_POINT('',(2.885965215055E-1,-1.007547843281E-2,
4.682614003203E-1));
#450=CARTESIAN_POINT('',(2.883901406404E-1,-1.018589463483E-2,
4.686188624642E-1));
#451=CARTESIAN_POINT('',(2.882187648755E-1,-1.026870678634E-2,
4.689156939963E-1));
#452=CARTESIAN_POINT('',(2.880247300948E-1,-1.035151893785E-2,
4.692517720948E-1));
#453=CARTESIAN_POINT('',(2.878353667089E-1,-1.042052906411E-2,
4.695797591003E-1));
#454=CARTESIAN_POINT('',(2.876549105918E-1,-1.047573716513E-2,
4.698923182637E-1));
#455=CARTESIAN_POINT('',(2.874972577897E-1,-1.051714324089E-2,
4.701653809268E-1));
#456=CARTESIAN_POINT('',(2.873377147866E-1,-1.055164830402E-2,
4.704417175142E-1));
#457=CARTESIAN_POINT('',(2.871683984190E-1,-1.057925235453E-2,
4.707349820655E-1));
#458=CARTESIAN_POINT('',(2.870602579865E-1,-1.059305437979E-2,
4.709222867889E-1));
#459=CARTESIAN_POINT('',(2.869842329851E-1,-1.059995539242E-2,
4.710539659540E-1));
#461=CURVE_STYLE('',#21,POSITIVE_LENGTH_MEASURE(2.E-2),#5);
#462=PRESENTATION_STYLE_ASSIGNMENT((#461));
#463=STYLED_ITEM('',(#462),#460);
#464=DIRECTION('',(4.994858113845E-1,-4.533979380327E-2,-8.651348029778E-1));
#465=VECTOR('',#464,1.753080148213E-2);
#466=CARTESIAN_POINT('',(2.782278463822E-1,1.139479831686E-2,
4.862204724409E-1));
#467=LINE('',#466,#465);
#468=CURVE_STYLE('',#21,POSITIVE_LENGTH_MEASURE(2.E-2),#5);
#469=PRESENTATION_STYLE_ASSIGNMENT((#468));
#470=STYLED_ITEM('',(#469),#467);
#471=DIRECTION('',(-4.994858113845E-1,-4.533979380306E-2,8.651348029778E-1));
#472=VECTOR('',#471,1.753080148238E-2);
#473=CARTESIAN_POINT('',(2.869842329848E-1,-1.059995539239E-2,
4.710539659544E-1));
#474=LINE('',#473,#472);
#475=CURVE_STYLE('',#21,POSITIVE_LENGTH_MEASURE(2.E-2),#5);
#476=PRESENTATION_STYLE_ASSIGNMENT((#475));
#477=STYLED_ITEM('',(#476),#474);
#478=CARTESIAN_POINT('',(2.869842329848E-1,-1.059995539239E-2,
4.710539659544E-1));
#479=CARTESIAN_POINT('',(2.782278463822E-1,-1.139479831681E-2,
4.862204724409E-1));
#480=VERTEX_POINT('',#478);
#481=VERTEX_POINT('',#479);
#482=CARTESIAN_POINT('',(2.782278463822E-1,1.139479831686E-2,
4.862204724409E-1));
#483=CARTESIAN_POINT('',(2.869842329847E-1,1.059995539245E-2,
4.710539659547E-1));
#484=VERTEX_POINT('',#482);
#485=VERTEX_POINT('',#483);
#486=CARTESIAN_POINT('',(2.952755905512E-1,2.559055118110E-2,
6.164869464202E-1));
#487=CARTESIAN_POINT('',(2.952755905512E-1,1.774351309528E-2,
6.073611669217E-1));
#488=VERTEX_POINT('',#486);
#489=VERTEX_POINT('',#487);
#490=CARTESIAN_POINT('',(2.952755905512E-1,-2.165354330709E-2,
6.166885689278E-1));
#491=CARTESIAN_POINT('',(3.070866141732E-1,-2.165354330709E-2,
6.166885689278E-1));
#492=VERTEX_POINT('',#490);
#493=VERTEX_POINT('',#491);
#494=CARTESIAN_POINT('',(3.070866141732E-1,2.559055118110E-2,
6.166885689278E-1));
#495=CARTESIAN_POINT('',(2.952755905512E-1,2.559055118110E-2,
6.166885689278E-1));
#496=VERTEX_POINT('',#494);
#497=VERTEX_POINT('',#495);
#498=CARTESIAN_POINT('',(3.070866141732E-1,2.559055118110E-2,
6.164869464202E-1));
#499=VERTEX_POINT('',#498);
#500=CARTESIAN_POINT('',(2.952755905512E-1,-2.165354330709E-2,
6.147099302915E-1));
#501=VERTEX_POINT('',#500);
#502=CARTESIAN_POINT('',(2.952755905512E-1,-1.340166507631E-2,
5.245137713933E-1));
#503=CARTESIAN_POINT('',(2.952755905512E-1,1.340166507631E-2,
5.245137713933E-1));
#504=VERTEX_POINT('',#502);
#505=VERTEX_POINT('',#503);
#506=CARTESIAN_POINT('',(3.070866141732E-1,-2.165354330709E-2,
6.147099302915E-1));
#507=VERTEX_POINT('',#506);
#508=CARTESIAN_POINT('',(3.055042370526E-1,5.609673674770E-3,
4.625984251968E-1));
#509=CARTESIAN_POINT('',(3.055042370526E-1,-5.609673674770E-3,
4.625984251968E-1));
#510=VERTEX_POINT('',#508);
#511=VERTEX_POINT('',#509);
#512=CARTESIAN_POINT('',(2.826222911479E-1,-1.270091205179E-2,
5.111426071480E-1));
#513=CARTESIAN_POINT('',(2.826222911479E-1,1.270091205181E-2,
5.111426071480E-1));
#514=VERTEX_POINT('',#512);
#515=VERTEX_POINT('',#513);
#516=CARTESIAN_POINT('',(2.931660685611E-1,1.316457833560E-2,
5.199898868866E-1));
#517=CARTESIAN_POINT('',(2.931660685611E-1,-1.316457833559E-2,
5.199898868866E-1));
#518=VERTEX_POINT('',#516);
#519=VERTEX_POINT('',#517);
#520=CARTESIAN_POINT('',(3.070866141732E-1,1.340166507632E-2,
5.245137713933E-1));
#521=CARTESIAN_POINT('',(3.070866141732E-1,-1.340166507632E-2,
5.245137713933E-1));
#522=VERTEX_POINT('',#520);
#523=VERTEX_POINT('',#521);
#524=CARTESIAN_POINT('',(3.007580482031E-1,-1.269040485414E-2,
5.109421178734E-1));
#525=CARTESIAN_POINT('',(3.007580482031E-1,1.269040485416E-2,
5.109421178734E-1));
#526=VERTEX_POINT('',#524);
#527=VERTEX_POINT('',#525);
#528=CARTESIAN_POINT('',(2.902142707898E-1,1.222673857037E-2,
5.020948381348E-1));
#529=CARTESIAN_POINT('',(2.902142707898E-1,-1.222673857034E-2,
5.020948381348E-1));
#530=VERTEX_POINT('',#528);
#531=VERTEX_POINT('',#529);
#532=CARTESIAN_POINT('',(2.884564928836E-1,-1.170429307635E-2,
4.921259842520E-1));
#533=CARTESIAN_POINT('',(2.884564928836E-1,1.170429307639E-2,
4.921259842520E-1));
#534=VERTEX_POINT('',#532);
#535=VERTEX_POINT('',#533);
#536=VERTEX_POINT('',#25);
#537=CARTESIAN_POINT('',(3.006224283199E-1,1.059995539245E-2,
4.710539659547E-1));
#538=VERTEX_POINT('',#537);
#539=VERTEX_POINT('',#51);
#540=CARTESIAN_POINT('',(2.952755905512E-1,-1.774351309537E-2,
6.073611669224E-1));
#541=VERTEX_POINT('',#540);
#542=CARTESIAN_POINT('',(3.070866141732E-1,1.774351309528E-2,
6.073611669217E-1));
#543=VERTEX_POINT('',#542);
#544=CARTESIAN_POINT('',(3.070866141732E-1,-1.774351309537E-2,
6.073611669224E-1));
#545=VERTEX_POINT('',#544);
#546=CARTESIAN_POINT('',(2.952755905512E-1,-2.165354330709E-2,
4.566929133858E-1));
#547=DIRECTION('',(-5.E-1,0.E0,8.660254037844E-1));
#548=DIRECTION('',(8.660254037844E-1,0.E0,5.E-1));
#549=AXIS2_PLACEMENT_3D('',#546,#547,#548);
#550=PLANE('',#549);
#552=ORIENTED_EDGE('',*,*,#551,.F.);
#554=ORIENTED_EDGE('',*,*,#553,.F.);
#556=ORIENTED_EDGE('',*,*,#555,.T.);
#557=EDGE_LOOP('',(#552,#554,#556));
#558=FACE_OUTER_BOUND('',#557,.F.);
#560=CARTESIAN_POINT('',(3.008405360498E-1,-2.165354330709E-2,
4.706761922848E-1));
#561=DIRECTION('',(-8.660254037844E-1,0.E0,-5.E-1));
#562=DIRECTION('',(-5.E-1,0.E0,8.660254037844E-1));
#563=AXIS2_PLACEMENT_3D('',#560,#561,#562);
#564=PLANE('',#563);
#566=ORIENTED_EDGE('',*,*,#565,.T.);
#568=ORIENTED_EDGE('',*,*,#567,.F.);
#570=ORIENTED_EDGE('',*,*,#569,.F.);
#571=ORIENTED_EDGE('',*,*,#551,.T.);
#573=ORIENTED_EDGE('',*,*,#572,.F.);
#575=ORIENTED_EDGE('',*,*,#574,.F.);
#576=EDGE_LOOP('',(#566,#568,#570,#571,#573,#575));
#577=FACE_OUTER_BOUND('',#576,.F.);
#579=CARTESIAN_POINT('',(2.952755905512E-1,-2.165354330709E-2,
4.960629921260E-1));
#580=DIRECTION('',(0.E0,1.E0,0.E0));
#581=DIRECTION('',(0.E0,0.E0,1.E0));
#582=AXIS2_PLACEMENT_3D('',#579,#580,#581);
#583=CYLINDRICAL_SURFACE('',#582,7.874015748043E-3);
#585=ORIENTED_EDGE('',*,*,#584,.F.);
#587=ORIENTED_EDGE('',*,*,#586,.F.);
#588=ORIENTED_EDGE('',*,*,#565,.F.);
#590=ORIENTED_EDGE('',*,*,#589,.F.);
#591=EDGE_LOOP('',(#585,#587,#588,#590));
#592=FACE_OUTER_BOUND('',#591,.F.);
#594=CARTESIAN_POINT('',(2.902142707898E-1,-2.165354330709E-2,
5.020948381348E-1));
#595=DIRECTION('',(-6.427876096858E-1,0.E0,7.660444431196E-1));
#596=DIRECTION('',(7.660444431196E-1,0.E0,6.427876096858E-1));
#597=AXIS2_PLACEMENT_3D('',#594,#595,#596);
#598=PLANE('',#597);
#600=ORIENTED_EDGE('',*,*,#599,.T.);
#602=ORIENTED_EDGE('',*,*,#601,.F.);
#603=ORIENTED_EDGE('',*,*,#584,.T.);
#605=ORIENTED_EDGE('',*,*,#604,.F.);
#606=EDGE_LOOP('',(#600,#602,#603,#605));
#607=FACE_OUTER_BOUND('',#606,.F.);
#609=CARTESIAN_POINT('',(2.893700787402E-1,-2.165354330709E-2,
5.245137713933E-1));
#610=DIRECTION('',(0.E0,1.E0,0.E0));
#611=DIRECTION('',(0.E0,0.E0,1.E0));
#612=AXIS2_PLACEMENT_3D('',#609,#610,#611);
#613=CYLINDRICAL_SURFACE('',#612,1.771653543307E-2);
#615=ORIENTED_EDGE('',*,*,#614,.F.);
#617=ORIENTED_EDGE('',*,*,#616,.F.);
#618=ORIENTED_EDGE('',*,*,#599,.F.);
#620=ORIENTED_EDGE('',*,*,#619,.F.);
#621=EDGE_LOOP('',(#615,#617,#618,#620));
#622=FACE_OUTER_BOUND('',#621,.F.);
#624=CARTESIAN_POINT('',(3.070866141732E-1,-2.165354330709E-2,
5.245137713933E-1));
#625=DIRECTION('',(-1.E0,0.E0,6.816668496692E-14));
#626=DIRECTION('',(6.816668496692E-14,0.E0,1.E0));
#627=AXIS2_PLACEMENT_3D('',#624,#625,#626);
#628=PLANE('',#627);
#630=ORIENTED_EDGE('',*,*,#629,.F.);
#632=ORIENTED_EDGE('',*,*,#631,.F.);
#634=ORIENTED_EDGE('',*,*,#633,.F.);
#636=ORIENTED_EDGE('',*,*,#635,.F.);
#638=ORIENTED_EDGE('',*,*,#637,.F.);
#639=ORIENTED_EDGE('',*,*,#614,.T.);
#641=ORIENTED_EDGE('',*,*,#640,.F.);
#643=ORIENTED_EDGE('',*,*,#642,.F.);
#644=EDGE_LOOP('',(#630,#632,#634,#636,#638,#639,#641,#643));
#645=FACE_OUTER_BOUND('',#644,.F.);
#647=CARTESIAN_POINT('',(2.952755905512E-1,-2.165354330709E-2,
4.960629921260E-1));
#648=DIRECTION('',(0.E0,-1.E0,0.E0));
#649=DIRECTION('',(0.E0,0.E0,-1.E0));
#650=AXIS2_PLACEMENT_3D('',#647,#648,#649);
#651=PLANE('',#650);
#653=ORIENTED_EDGE('',*,*,#652,.T.);
#655=ORIENTED_EDGE('',*,*,#654,.T.);
#657=ORIENTED_EDGE('',*,*,#656,.T.);
#658=ORIENTED_EDGE('',*,*,#629,.T.);
#659=EDGE_LOOP('',(#653,#655,#657,#658));
#660=FACE_OUTER_BOUND('',#659,.F.);
#662=CARTESIAN_POINT('',(2.362204724409E-1,-2.757254394925E-2,
6.068460492428E-1));
#663=DIRECTION('',(1.E0,0.E0,0.E0));
#664=DIRECTION('',(0.E0,1.E0,0.E0));
#665=AXIS2_PLACEMENT_3D('',#662,#663,#664);
#666=CYLINDRICAL_SURFACE('',#665,9.842519685038E-3);
#668=ORIENTED_EDGE('',*,*,#667,.F.);
#670=ORIENTED_EDGE('',*,*,#669,.T.);
#671=ORIENTED_EDGE('',*,*,#652,.F.);
#672=ORIENTED_EDGE('',*,*,#642,.T.);
#673=EDGE_LOOP('',(#668,#670,#671,#672));
#674=FACE_OUTER_BOUND('',#673,.F.);
#676=CARTESIAN_POINT('',(2.362204724409E-1,-1.340166507631E-2,
5.245137713933E-1));
#677=DIRECTION('',(0.E0,9.986295347546E-1,5.233595624282E-2));
#678=DIRECTION('',(0.E0,-5.233595624282E-2,9.986295347546E-1));
#679=AXIS2_PLACEMENT_3D('',#676,#677,#678);
#680=PLANE('',#679);
#681=ORIENTED_EDGE('',*,*,#589,.T.);
#682=ORIENTED_EDGE('',*,*,#574,.T.);
#684=ORIENTED_EDGE('',*,*,#683,.T.);
#686=ORIENTED_EDGE('',*,*,#685,.T.);
#688=ORIENTED_EDGE('',*,*,#687,.T.);
#690=ORIENTED_EDGE('',*,*,#689,.T.);
#692=ORIENTED_EDGE('',*,*,#691,.T.);
#694=ORIENTED_EDGE('',*,*,#693,.T.);
#695=ORIENTED_EDGE('',*,*,#667,.T.);
#696=ORIENTED_EDGE('',*,*,#640,.T.);
#697=ORIENTED_EDGE('',*,*,#619,.T.);
#698=ORIENTED_EDGE('',*,*,#604,.T.);
#699=EDGE_LOOP('',(#681,#682,#684,#686,#688,#690,#692,#694,#695,#696,#697,
#698));
#700=FACE_OUTER_BOUND('',#699,.F.);
#702=CARTESIAN_POINT('',(2.362204724409E-1,0.E0,4.716094860773E-1));
#703=DIRECTION('',(1.E0,0.E0,0.E0));
#704=DIRECTION('',(0.E0,1.E0,0.E0));
#705=AXIS2_PLACEMENT_3D('',#702,#703,#704);
#706=CYLINDRICAL_SURFACE('',#705,1.061450219881E-2);
#708=ORIENTED_EDGE('',*,*,#707,.F.);
#710=ORIENTED_EDGE('',*,*,#709,.T.);
#711=ORIENTED_EDGE('',*,*,#683,.F.);
#712=ORIENTED_EDGE('',*,*,#572,.T.);
#713=ORIENTED_EDGE('',*,*,#555,.F.);
#714=ORIENTED_EDGE('',*,*,#553,.T.);
#715=ORIENTED_EDGE('',*,*,#569,.T.);
#716=EDGE_LOOP('',(#708,#710,#711,#712,#713,#714,#715));
#717=FACE_OUTER_BOUND('',#716,.F.);
#719=CARTESIAN_POINT('',(2.362204724409E-1,1.340166507631E-2,
5.245137713933E-1));
#720=DIRECTION('',(0.E0,-9.986295347547E-1,5.233595624148E-2));
#721=DIRECTION('',(0.E0,-5.233595624148E-2,-9.986295347547E-1));
#722=AXIS2_PLACEMENT_3D('',#719,#720,#721);
#723=PLANE('',#722);
#724=ORIENTED_EDGE('',*,*,#707,.T.);
#725=ORIENTED_EDGE('',*,*,#567,.T.);
#726=ORIENTED_EDGE('',*,*,#586,.T.);
#727=ORIENTED_EDGE('',*,*,#601,.T.);
#728=ORIENTED_EDGE('',*,*,#616,.T.);
#729=ORIENTED_EDGE('',*,*,#637,.T.);
#731=ORIENTED_EDGE('',*,*,#730,.T.);
#733=ORIENTED_EDGE('',*,*,#732,.T.);
#735=ORIENTED_EDGE('',*,*,#734,.T.);
#737=ORIENTED_EDGE('',*,*,#736,.T.);
#739=ORIENTED_EDGE('',*,*,#738,.T.);
#741=ORIENTED_EDGE('',*,*,#740,.T.);
#742=EDGE_LOOP('',(#724,#725,#726,#727,#728,#729,#731,#733,#735,#737,#739,
#741));
#743=FACE_OUTER_BOUND('',#742,.F.);
#745=CARTESIAN_POINT('',(2.362204724409E-1,2.757254394698E-2,
6.068460492429E-1));
#746=DIRECTION('',(1.E0,0.E0,0.E0));
#747=DIRECTION('',(0.E0,1.E0,0.E0));
#748=AXIS2_PLACEMENT_3D('',#745,#746,#747);
#749=CYLINDRICAL_SURFACE('',#748,9.842519682813E-3);
#751=ORIENTED_EDGE('',*,*,#750,.F.);
#753=ORIENTED_EDGE('',*,*,#752,.T.);
#754=ORIENTED_EDGE('',*,*,#730,.F.);
#755=ORIENTED_EDGE('',*,*,#635,.T.);
#756=EDGE_LOOP('',(#751,#753,#754,#755));
#757=FACE_OUTER_BOUND('',#756,.F.);
#759=CARTESIAN_POINT('',(2.952755905512E-1,2.559055118110E-2,
4.960629921260E-1));
#760=DIRECTION('',(0.E0,-1.E0,0.E0));
#761=DIRECTION('',(0.E0,0.E0,-1.E0));
#762=AXIS2_PLACEMENT_3D('',#759,#760,#761);
#763=PLANE('',#762);
#764=ORIENTED_EDGE('',*,*,#633,.T.);
#766=ORIENTED_EDGE('',*,*,#765,.T.);
#768=ORIENTED_EDGE('',*,*,#767,.T.);
#769=ORIENTED_EDGE('',*,*,#750,.T.);
#770=EDGE_LOOP('',(#764,#766,#768,#769));
#771=FACE_OUTER_BOUND('',#770,.F.);
#773=CARTESIAN_POINT('',(3.070866141732E-1,-2.165354330709E-2,
6.166885689278E-1));
#774=DIRECTION('',(0.E0,0.E0,-1.E0));
#775=DIRECTION('',(0.E0,1.E0,0.E0));
#776=AXIS2_PLACEMENT_3D('',#773,#774,#775);
#777=PLANE('',#776);
#778=ORIENTED_EDGE('',*,*,#765,.F.);
#779=ORIENTED_EDGE('',*,*,#631,.T.);
#780=ORIENTED_EDGE('',*,*,#656,.F.);
#782=ORIENTED_EDGE('',*,*,#781,.F.);
#783=EDGE_LOOP('',(#778,#779,#780,#782));
#784=FACE_OUTER_BOUND('',#783,.F.);
#786=CARTESIAN_POINT('',(2.952755905512E-1,-2.165354330709E-2,
6.166885689278E-1));
#787=DIRECTION('',(1.E0,0.E0,0.E0));
#788=DIRECTION('',(0.E0,1.E0,0.E0));
#789=AXIS2_PLACEMENT_3D('',#786,#787,#788);
#790=PLANE('',#789);
#791=ORIENTED_EDGE('',*,*,#693,.F.);
#793=ORIENTED_EDGE('',*,*,#792,.T.);
#794=ORIENTED_EDGE('',*,*,#732,.F.);
#795=ORIENTED_EDGE('',*,*,#752,.F.);
#796=ORIENTED_EDGE('',*,*,#767,.F.);
#797=ORIENTED_EDGE('',*,*,#781,.T.);
#798=ORIENTED_EDGE('',*,*,#654,.F.);
#799=ORIENTED_EDGE('',*,*,#669,.F.);
#800=EDGE_LOOP('',(#791,#793,#794,#795,#796,#797,#798,#799));
#801=FACE_OUTER_BOUND('',#800,.F.);
#803=CARTESIAN_POINT('',(2.893700787402E-1,-2.165354330709E-2,
5.245137713933E-1));
#804=DIRECTION('',(0.E0,1.E0,0.E0));
#805=DIRECTION('',(0.E0,0.E0,1.E0));
#806=AXIS2_PLACEMENT_3D('',#803,#804,#805);
#807=CYLINDRICAL_SURFACE('',#806,5.905511811015E-3);
#809=ORIENTED_EDGE('',*,*,#808,.F.);
#810=ORIENTED_EDGE('',*,*,#734,.F.);
#811=ORIENTED_EDGE('',*,*,#792,.F.);
#812=ORIENTED_EDGE('',*,*,#691,.F.);
#813=EDGE_LOOP('',(#809,#810,#811,#812));
#814=FACE_OUTER_BOUND('',#813,.F.);
#816=CARTESIAN_POINT('',(2.931660685611E-1,-2.165354330709E-2,
5.199898868866E-1));
#817=DIRECTION('',(6.427876096869E-1,0.E0,-7.660444431187E-1));
#818=DIRECTION('',(-7.660444431187E-1,0.E0,-6.427876096869E-1));
#819=AXIS2_PLACEMENT_3D('',#816,#817,#818);
#820=PLANE('',#819);
#822=ORIENTED_EDGE('',*,*,#821,.T.);
#823=ORIENTED_EDGE('',*,*,#736,.F.);
#824=ORIENTED_EDGE('',*,*,#808,.T.);
#825=ORIENTED_EDGE('',*,*,#689,.F.);
#826=EDGE_LOOP('',(#822,#823,#824,#825));
#827=FACE_OUTER_BOUND('',#826,.F.);
#829=CARTESIAN_POINT('',(2.952755905512E-1,-2.165354330709E-2,
4.960629921260E-1));
#830=DIRECTION('',(0.E0,1.E0,0.E0));
#831=DIRECTION('',(0.E0,0.E0,1.E0));
#832=AXIS2_PLACEMENT_3D('',#829,#830,#831);
#833=CYLINDRICAL_SURFACE('',#832,1.968503937008E-2);
#835=ORIENTED_EDGE('',*,*,#834,.F.);
#836=ORIENTED_EDGE('',*,*,#738,.F.);
#837=ORIENTED_EDGE('',*,*,#821,.F.);
#838=ORIENTED_EDGE('',*,*,#687,.F.);
#839=EDGE_LOOP('',(#835,#836,#837,#838));
#840=FACE_OUTER_BOUND('',#839,.F.);
#842=CARTESIAN_POINT('',(2.906118895485E-1,-2.165354330709E-2,
4.647706804739E-1));
#843=DIRECTION('',(8.660254037844E-1,0.E0,5.E-1));
#844=DIRECTION('',(5.E-1,0.E0,-8.660254037844E-1));
#845=AXIS2_PLACEMENT_3D('',#842,#843,#844);
#846=PLANE('',#845);
#847=ORIENTED_EDGE('',*,*,#709,.F.);
#848=ORIENTED_EDGE('',*,*,#740,.F.);
#849=ORIENTED_EDGE('',*,*,#834,.T.);
#850=ORIENTED_EDGE('',*,*,#685,.F.);
#851=EDGE_LOOP('',(#847,#848,#849,#850));
#852=FACE_OUTER_BOUND('',#851,.F.);
#856=FILL_AREA_STYLE_COLOUR('',#5);
#857=FILL_AREA_STYLE('',(#856));
#858=SURFACE_STYLE_FILL_AREA(#857);
#859=SURFACE_SIDE_STYLE('',(#858));
#860=SURFACE_STYLE_USAGE(.BOTH.,#859);
#861=PRESENTATION_STYLE_ASSIGNMENT((#860));
#16=STYLED_ITEM('',(#861),#855);
#862=PRESENTATION_LAYER_ASSIGNMENT('SHELL_237','',(#16,#559,#578,#593,#608,#623,
#646,#661,#675,#701,#718,#744,#758,#772,#785,#802,#815,#828,#841,#853));
#864=LENGTH_MEASURE_WITH_UNIT(LENGTH_MEASURE(2.54E1),#863);
#865=(CONVERSION_BASED_UNIT('INCH',#864)LENGTH_UNIT()NAMED_UNIT(*));
#867=PLANE_ANGLE_MEASURE_WITH_UNIT(PLANE_ANGLE_MEASURE(1.745329251994E-2),#866);
#868=(CONVERSION_BASED_UNIT('DEGREE',#867)NAMED_UNIT(*)PLANE_ANGLE_UNIT());
#870=UNCERTAINTY_MEASURE_WITH_UNIT(LENGTH_MEASURE(1.657253386870E-5),#865,
'closure',
'Maximum model space distance between geometric entities at asserted connectivities');
#872=CARTESIAN_POINT('',(0.E0,0.E0,0.E0));
#873=DIRECTION('',(0.E0,0.E0,1.E0));
#874=DIRECTION('',(1.E0,0.E0,0.E0));
#877=MECHANICAL_DESIGN_GEOMETRIC_PRESENTATION_REPRESENTATION('',(#24,#33,#40,
#50,#60,#67,#74,#85,#92,#103,#110,#117,#124,#133,#140,#149,#156,#163,#170,#178,
#185,#192,#200,#207,#214,#221,#228,#237,#244,#251,#258,#265,#272,#279,#286,#294,
#301,#308,#316,#323,#332,#339,#348,#355,#362,#369,#382,#389,#402,#463,#470,#477,
#16),#871);
#878=APPLICATION_CONTEXT('automotive design');
#879=APPLICATION_PROTOCOL_DEFINITION('international standard',
'config_control_design',1994,#878);
#880=PRODUCT_DEFINITION_CONTEXT('',#878,'design');
#881=PRODUCT_CONTEXT('',#878,'mechanical');
#882=PRODUCT('CUT-EXTRUDE22','CUT-EXTRUDE22','NOT SPECIFIED',(#881));
#883=PRODUCT_DEFINITION_FORMATION_WITH_SPECIFIED_SOURCE('1','LAST_VERSION',#882,
.MADE.);
#891=LENGTH_MEASURE_WITH_UNIT(LENGTH_MEASURE(2.54E1),#890);
#892=(CONVERSION_BASED_UNIT('INCH',#891)LENGTH_UNIT()NAMED_UNIT(*));
#893=DERIVED_UNIT_ELEMENT(#892,2.E0);
#894=AREA_UNIT((#893));
#895=MEASURE_REPRESENTATION_ITEM('surface area measure',AREA_MEASURE(
9.103639754453E0),#894);
#900=LENGTH_MEASURE_WITH_UNIT(LENGTH_MEASURE(2.54E1),#899);
#901=(CONVERSION_BASED_UNIT('INCH',#900)LENGTH_UNIT()NAMED_UNIT(*));
#902=DERIVED_UNIT_ELEMENT(#901,3.E0);
#903=VOLUME_UNIT((#902));
#904=MEASURE_REPRESENTATION_ITEM('volume measure',VOLUME_MEASURE(
9.067063871240E-1),#903);
#908=CARTESIAN_POINT('centre point',(7.546953896806E0,4.487668812588E-4,
1.383594004858E1));
#913=LENGTH_MEASURE_WITH_UNIT(LENGTH_MEASURE(2.54E1),#912);
#914=(CONVERSION_BASED_UNIT('INCH',#913)LENGTH_UNIT()NAMED_UNIT(*));
#915=DERIVED_UNIT_ELEMENT(#914,2.E0);
#916=AREA_UNIT((#915));
#917=MEASURE_REPRESENTATION_ITEM('surface area measure',AREA_MEASURE(
9.103639754453E0),#916);
#922=LENGTH_MEASURE_WITH_UNIT(LENGTH_MEASURE(2.54E1),#921);
#923=(CONVERSION_BASED_UNIT('INCH',#922)LENGTH_UNIT()NAMED_UNIT(*));
#924=DERIVED_UNIT_ELEMENT(#923,3.E0);
#925=VOLUME_UNIT((#924));
#926=MEASURE_REPRESENTATION_ITEM('volume measure',VOLUME_MEASURE(
9.067063871240E-1),#925);
#930=CARTESIAN_POINT('centre point',(7.546953896806E0,4.487668812588E-4,
1.383594004858E1));
#1=DRAUGHTING_PRE_DEFINED_COLOUR('green');
#2=COLOUR_RGB('',1.1E-2,1.2E-2,1.E0);
#3=COLOUR_RGB('',2.352941176471E-1,2.352941176471E-1,2.352941176471E-1);
#4=COLOUR_RGB('',4.1E-1,2.61589E-1,1.12848E-1);
#5=COLOUR_RGB('',4.980392156863E-1,4.980392156863E-1,4.980392156863E-1);
#6=COLOUR_RGB('',5.04854E-1,1.5455E-2,1.5455E-2);
#7=COLOUR_RGB('',6.35294E-1,6.86275E-1,7.4902E-1);
#8=COLOUR_RGB('',6.40777E-1,6.40777E-1,6.40777E-1);
#9=COLOUR_RGB('',6.69062E-1,6.69903E-1,6.55217E-1);
#10=COLOUR_RGB('',9.21569E-1,7.05882E-1,4.70588E-1);
#11=DRAUGHTING_PRE_DEFINED_COLOUR('red');
#12=DRAUGHTING_PRE_DEFINED_COLOUR('yellow');
#13=COLOUR_RGB('',1.E0,1.E0,5.3E-1);
#14=COLOUR_RGB('',1.E0,1.E0,9.49E-1);
#15=DRAUGHTING_PRE_DEFINED_COLOUR('white');
#30=B_SPLINE_CURVE_WITH_KNOTS('',3,(#25,#26,#27,#28,#29),.UNSPECIFIED.,.F.,.F.,(
4,1,4),(0.E0,5.E-1,1.E0),.UNSPECIFIED.);
#47=B_SPLINE_CURVE_WITH_KNOTS('',3,(#41,#42,#43,#44,#45,#46),.UNSPECIFIED.,.F.,
.F.,(4,1,1,4),(0.E0,2.5E-1,5.E-1,1.E0),.UNSPECIFIED.);
#57=B_SPLINE_CURVE_WITH_KNOTS('',3,(#51,#52,#53,#54,#55,#56),.UNSPECIFIED.,.F.,
.F.,(4,1,1,4),(0.E0,5.E-1,7.5E-1,1.E0),.UNSPECIFIED.);
#82=B_SPLINE_CURVE_WITH_KNOTS('',3,(#75,#76,#77,#78,#79,#80,#81),.UNSPECIFIED.,
.F.,.F.,(4,1,1,1,4),(0.E0,2.5E-1,5.E-1,7.5E-1,1.E0),.UNSPECIFIED.);
#100=B_SPLINE_CURVE_WITH_KNOTS('',3,(#93,#94,#95,#96,#97,#98,#99),.UNSPECIFIED.,
.F.,.F.,(4,1,1,1,4),(0.E0,2.5E-1,5.E-1,7.5E-1,1.E0),.UNSPECIFIED.);
#130=B_SPLINE_CURVE_WITH_KNOTS('',3,(#125,#126,#127,#128,#129),.UNSPECIFIED.,
.F.,.F.,(4,1,4),(0.E0,5.E-1,1.E0),.UNSPECIFIED.);
#146=B_SPLINE_CURVE_WITH_KNOTS('',3,(#141,#142,#143,#144,#145),.UNSPECIFIED.,
.F.,.F.,(4,1,4),(0.E0,5.E-1,1.E0),.UNSPECIFIED.);
#175=CIRCLE('',#174,9.842519682813E-3);
#197=CIRCLE('',#196,9.842519685038E-3);
#234=B_SPLINE_CURVE_WITH_KNOTS('',3,(#229,#230,#231,#232,#233),.UNSPECIFIED.,
.F.,.F.,(4,1,4),(0.E0,5.E-1,1.E0),.UNSPECIFIED.);
#291=CIRCLE('',#290,9.842519682813E-3);
#313=CIRCLE('',#312,9.842519685038E-3);
#329=B_SPLINE_CURVE_WITH_KNOTS('',3,(#324,#325,#326,#327,#328),.UNSPECIFIED.,
.F.,.F.,(4,1,4),(0.E0,5.E-1,1.E0),.UNSPECIFIED.);
#345=B_SPLINE_CURVE_WITH_KNOTS('',3,(#340,#341,#342,#343,#344),.UNSPECIFIED.,
.F.,.F.,(4,1,4),(0.E0,5.E-1,1.E0),.UNSPECIFIED.);
#379=B_SPLINE_CURVE_WITH_KNOTS('',3,(#370,#371,#372,#373,#374,#375,#376,#377,
#378),.UNSPECIFIED.,.F.,.F.,(4,1,1,1,1,1,4),(0.E0,1.25E-1,2.5E-1,5.E-1,7.5E-1,
8.75E-1,1.E0),.UNSPECIFIED.);
#399=B_SPLINE_CURVE_WITH_KNOTS('',3,(#390,#391,#392,#393,#394,#395,#396,#397,
#398),.UNSPECIFIED.,.F.,.F.,(4,1,1,1,1,1,4),(0.E0,1.25E-1,2.5E-1,5.E-1,7.5E-1,
8.75E-1,1.E0),.UNSPECIFIED.);
#460=B_SPLINE_CURVE_WITH_KNOTS('',3,(#403,#404,#405,#406,#407,#408,#409,#410,
#411,#412,#413,#414,#415,#416,#417,#418,#419,#420,#421,#422,#423,#424,#425,#426,
#427,#428,#429,#430,#431,#432,#433,#434,#435,#436,#437,#438,#439,#440,#441,#442,
#443,#444,#445,#446,#447,#448,#449,#450,#451,#452,#453,#454,#455,#456,#457,#458,
#459),.UNSPECIFIED.,.F.,.F.,(4,1,1,1,1,1,1,1,1,1,1,1,1,1,1,1,1,1,1,1,1,1,1,1,1,
1,1,1,1,1,1,1,1,1,1,1,1,1,1,1,1,1,1,1,1,1,1,1,1,1,1,1,1,1,4),(0.E0,9.765625E-4,
1.953125E-3,3.90625E-3,5.859375E-3,7.8125E-3,1.171875E-2,1.5625E-2,1.953125E-2,
2.34375E-2,3.125E-2,3.90625E-2,4.6875E-2,5.46875E-2,6.25E-2,7.8125E-2,9.375E-2,
1.09375E-1,1.25E-1,1.5625E-1,1.875E-1,2.1875E-1,2.5E-1,2.8125E-1,3.125E-1,
3.75E-1,4.375E-1,5.E-1,5.625E-1,6.25E-1,6.875E-1,7.1875E-1,7.5E-1,7.8125E-1,
8.125E-1,8.4375E-1,8.75E-1,8.90625E-1,9.0625E-1,9.21875E-1,9.375E-1,9.453125E-1,
9.53125E-1,9.609375E-1,9.6875E-1,9.765625E-1,9.8046875E-1,9.84375E-1,
9.8828125E-1,9.921875E-1,9.94140625E-1,9.9609375E-1,9.98046875E-1,
9.990234375E-1,1.E0),.UNSPECIFIED.);
#551=EDGE_CURVE('',#510,#511,#20,.T.);
#553=EDGE_CURVE('',#536,#510,#30,.T.);
#555=EDGE_CURVE('',#536,#511,#234,.T.);
#559=ADVANCED_FACE('',(#558),#550,.F.);
#565=EDGE_CURVE('',#534,#535,#89,.T.);
#567=EDGE_CURVE('',#538,#535,#37,.T.);
#569=EDGE_CURVE('',#510,#538,#47,.T.);
#572=EDGE_CURVE('',#539,#511,#57,.T.);
#574=EDGE_CURVE('',#534,#539,#64,.T.);
#578=ADVANCED_FACE('',(#577),#564,.F.);
#584=EDGE_CURVE('',#530,#531,#71,.T.);
#586=EDGE_CURVE('',#535,#530,#82,.T.);
#589=EDGE_CURVE('',#531,#534,#100,.T.);
#593=ADVANCED_FACE('',(#592),#583,.F.);
#599=EDGE_CURVE('',#526,#527,#137,.T.);
#601=EDGE_CURVE('',#530,#527,#107,.T.);
#604=EDGE_CURVE('',#526,#531,#114,.T.);
#608=ADVANCED_FACE('',(#607),#598,.F.);
#614=EDGE_CURVE('',#522,#523,#121,.T.);
#616=EDGE_CURVE('',#527,#522,#130,.T.);
#619=EDGE_CURVE('',#523,#526,#146,.T.);
#623=ADVANCED_FACE('',(#622),#613,.T.);
#629=EDGE_CURVE('',#493,#507,#153,.T.);
#631=EDGE_CURVE('',#496,#493,#160,.T.);
#633=EDGE_CURVE('',#499,#496,#167,.T.);
#635=EDGE_CURVE('',#543,#499,#175,.T.);
#637=EDGE_CURVE('',#522,#543,#182,.T.);
#640=EDGE_CURVE('',#545,#523,#189,.T.);
#642=EDGE_CURVE('',#507,#545,#197,.T.);
#646=ADVANCED_FACE('',(#645),#628,.F.);
#652=EDGE_CURVE('',#507,#501,#211,.T.);
#654=EDGE_CURVE('',#501,#492,#305,.T.);
#656=EDGE_CURVE('',#492,#493,#262,.T.);
#661=ADVANCED_FACE('',(#660),#651,.T.);
#667=EDGE_CURVE('',#541,#545,#204,.T.);
#669=EDGE_CURVE('',#541,#501,#313,.T.);
#675=ADVANCED_FACE('',(#674),#666,.F.);
#683=EDGE_CURVE('',#539,#480,#225,.T.);
#685=EDGE_CURVE('',#480,#481,#474,.T.);
#687=EDGE_CURVE('',#481,#514,#399,.T.);
#689=EDGE_CURVE('',#514,#519,#359,.T.);
#691=EDGE_CURVE('',#519,#504,#345,.T.);
#693=EDGE_CURVE('',#504,#541,#276,.T.);
#701=ADVANCED_FACE('',(#700),#680,.F.);
#707=EDGE_CURVE('',#485,#538,#218,.T.);
#709=EDGE_CURVE('',#485,#480,#460,.T.);
#718=ADVANCED_FACE('',(#717),#706,.T.);
#730=EDGE_CURVE('',#543,#489,#248,.T.);
#732=EDGE_CURVE('',#489,#505,#283,.T.);
#734=EDGE_CURVE('',#505,#518,#329,.T.);
#736=EDGE_CURVE('',#518,#515,#352,.T.);
#738=EDGE_CURVE('',#515,#484,#379,.T.);
#740=EDGE_CURVE('',#484,#485,#467,.T.);
#744=ADVANCED_FACE('',(#743),#723,.F.);
#750=EDGE_CURVE('',#488,#499,#241,.T.);
#752=EDGE_CURVE('',#488,#489,#291,.T.);
#758=ADVANCED_FACE('',(#757),#749,.F.);
#765=EDGE_CURVE('',#496,#497,#255,.T.);
#767=EDGE_CURVE('',#497,#488,#298,.T.);
#772=ADVANCED_FACE('',(#771),#763,.F.);
#781=EDGE_CURVE('',#497,#492,#269,.T.);
#785=ADVANCED_FACE('',(#784),#777,.F.);
#792=EDGE_CURVE('',#504,#505,#336,.T.);
#802=ADVANCED_FACE('',(#801),#790,.F.);
#808=EDGE_CURVE('',#518,#519,#320,.T.);
#815=ADVANCED_FACE('',(#814),#807,.F.);
#821=EDGE_CURVE('',#514,#515,#386,.T.);
#828=ADVANCED_FACE('',(#827),#820,.F.);
#834=EDGE_CURVE('',#484,#481,#366,.T.);
#841=ADVANCED_FACE('',(#840),#833,.T.);
#853=ADVANCED_FACE('',(#852),#846,.F.);
#854=CLOSED_SHELL('',(#559,#578,#593,#608,#623,#646,#661,#675,#701,#718,#744,
#758,#772,#785,#802,#815,#828,#841,#853));
#855=MANIFOLD_SOLID_BREP('',#854);
#863=(LENGTH_UNIT()NAMED_UNIT(*)SI_UNIT(.MILLI.,.METRE.));
#866=(NAMED_UNIT(*)PLANE_ANGLE_UNIT()SI_UNIT($,.RADIAN.));
#869=(NAMED_UNIT(*)SI_UNIT($,.STERADIAN.)SOLID_ANGLE_UNIT());
#871=(GEOMETRIC_REPRESENTATION_CONTEXT(3)GLOBAL_UNCERTAINTY_ASSIGNED_CONTEXT((
#870))GLOBAL_UNIT_ASSIGNED_CONTEXT((#865,#868,#869))REPRESENTATION_CONTEXT
('ID1','3'));
#875=AXIS2_PLACEMENT_3D('',#872,#873,#874);
#876=ADVANCED_BREP_SHAPE_REPRESENTATION('',(#875,#855),#871);
#884=PRODUCT_DEFINITION('design','',#883,#880);
#885=PRODUCT_DEFINITION_SHAPE('','SHAPE FOR CUT-EXTRUDE22.',#884);
#886=SHAPE_ASPECT('','solid data associated with CUT-EXTRUDE22',#885,.F.);
#887=PROPERTY_DEFINITION('',
'shape for solid data with which properties are associated',#886);
#888=SHAPE_REPRESENTATION('',(#855),#871);
#889=SHAPE_DEFINITION_REPRESENTATION(#887,#888);
#890=(LENGTH_UNIT()NAMED_UNIT(*)SI_UNIT(.MILLI.,.METRE.));
#896=PROPERTY_DEFINITION('geometric validation property',
'area of CUT-EXTRUDE22',#886);
#897=REPRESENTATION('surface area',(#895),#871);
#898=PROPERTY_DEFINITION_REPRESENTATION(#896,#897);
#899=(LENGTH_UNIT()NAMED_UNIT(*)SI_UNIT(.MILLI.,.METRE.));
#905=PROPERTY_DEFINITION('geometric validation property',
'volume of CUT-EXTRUDE22',#886);
#906=REPRESENTATION('volume',(#904),#871);
#907=PROPERTY_DEFINITION_REPRESENTATION(#905,#906);
#909=PROPERTY_DEFINITION('geometric validation property',
'centroid of CUT-EXTRUDE22',#886);
#910=REPRESENTATION('centroid',(#908),#871);
#911=PROPERTY_DEFINITION_REPRESENTATION(#909,#910);
#912=(LENGTH_UNIT()NAMED_UNIT(*)SI_UNIT(.MILLI.,.METRE.));
#918=PROPERTY_DEFINITION('geometric validation property',
'area of CUT-EXTRUDE22',#885);
#919=REPRESENTATION('surface area',(#917),#871);
#920=PROPERTY_DEFINITION_REPRESENTATION(#918,#919);
#921=(LENGTH_UNIT()NAMED_UNIT(*)SI_UNIT(.MILLI.,.METRE.));
#927=PROPERTY_DEFINITION('geometric validation property',
'volume of CUT-EXTRUDE22',#885);
#928=REPRESENTATION('volume',(#926),#871);
#929=PROPERTY_DEFINITION_REPRESENTATION(#927,#928);
#931=PROPERTY_DEFINITION('geometric validation property',
'centroid of CUT-EXTRUDE22',#885);
#932=REPRESENTATION('centroid',(#930),#871);
#933=PROPERTY_DEFINITION_REPRESENTATION(#931,#932);
#934=SHAPE_DEFINITION_REPRESENTATION(#885,#876);
ENDSEC;
END-ISO-10303-21;
