ISO-10303-21;
HEADER;
FILE_DESCRIPTION((''),'2;1');
FILE_NAME('DODANIE-WYCIGNICIE0107','2026-06-15T13:46:07',('Esia'),(''),
'CREO PARAMETRIC BY PTC INC, 2025102','CREO PARAMETRIC BY PTC INC, 2025102','');
FILE_SCHEMA((
'AP242_MANAGED_MODEL_BASED_3D_ENGINEERING_MIM_LF { 1 0 10303 442 1 1 4 }'));
ENDSEC;
DATA;
#17=DIRECTION('',(0.E0,-1.E0,0.E0));
#18=VECTOR('',#17,7.874015748031E-2);
#19=CARTESIAN_POINT('',(-1.852773477273E-1,2.440944881890E-2,
-9.960731028599E-2));
#20=LINE('',#19,#18);
#21=DRAUGHTING_PRE_DEFINED_CURVE_FONT('continuous');
#22=CURVE_STYLE('',#21,POSITIVE_LENGTH_MEASURE(2.E-2),#8);
#23=PRESENTATION_STYLE_ASSIGNMENT((#22));
#24=STYLED_ITEM('',(#23),#20);
#25=DIRECTION('',(0.E0,1.E0,0.E0));
#26=VECTOR('',#25,7.874015748031E-2);
#27=CARTESIAN_POINT('',(-1.831773222751E-1,-5.433070866142E-2,
-1.087961455503E-1));
#28=LINE('',#27,#26);
#29=CURVE_STYLE('',#21,POSITIVE_LENGTH_MEASURE(2.E-2),#8);
#30=PRESENTATION_STYLE_ASSIGNMENT((#29));
#31=STYLED_ITEM('',(#30),#28);
#32=CARTESIAN_POINT('',(-1.968503937012E-1,-5.433070866142E-2,
-1.070866141732E-1));
#33=DIRECTION('',(0.E0,-1.E0,0.E0));
#34=DIRECTION('',(9.922743263468E-1,0.E0,-1.240631342223E-1));
#35=AXIS2_PLACEMENT_3D('',#32,#33,#34);
#37=CURVE_STYLE('',#21,POSITIVE_LENGTH_MEASURE(2.E-2),#8);
#38=PRESENTATION_STYLE_ASSIGNMENT((#37));
#39=STYLED_ITEM('',(#38),#36);
#40=DIRECTION('',(1.240631342217E-1,0.E0,9.922743263468E-1));
#41=VECTOR('',#40,4.012854483949E-2);
#42=CARTESIAN_POINT('',(-1.881557953197E-1,-5.433070866142E-2,
-1.486146703482E-1));
#43=LINE('',#42,#41);
#44=CURVE_STYLE('',#21,POSITIVE_LENGTH_MEASURE(2.E-2),#8);
#45=PRESENTATION_STYLE_ASSIGNMENT((#44));
#46=STYLED_ITEM('',(#45),#43);
#47=DIRECTION('',(9.922743263470E-1,0.E0,-1.240631342204E-1));
#48=VECTOR('',#47,7.874015748044E-3);
#49=CARTESIAN_POINT('',(-1.959689789917E-1,-5.433070866142E-2,
-1.476377952756E-1));
#50=LINE('',#49,#48);
#51=CURVE_STYLE('',#21,POSITIVE_LENGTH_MEASURE(2.E-2),#8);
#52=PRESENTATION_STYLE_ASSIGNMENT((#51));
#53=STYLED_ITEM('',(#52),#50);
#54=DIRECTION('',(-1.240631342220E-1,0.E0,-9.922743263468E-1));
#55=VECTOR('',#54,4.012854483951E-2);
#56=CARTESIAN_POINT('',(-1.909905059472E-1,-5.433070866142E-2,
-1.078192704777E-1));
#57=LINE('',#56,#55);
#58=CURVE_STYLE('',#21,POSITIVE_LENGTH_MEASURE(2.E-2),#8);
#59=PRESENTATION_STYLE_ASSIGNMENT((#58));
#60=STYLED_ITEM('',(#59),#57);
#61=CARTESIAN_POINT('',(-1.968503937012E-1,-5.433070866142E-2,
-1.070866141732E-1));
#62=DIRECTION('',(0.E0,1.E0,0.E0));
#63=DIRECTION('',(8.398724792459E-1,0.E0,5.427837678167E-1));
#64=AXIS2_PLACEMENT_3D('',#61,#62,#63);
#66=CURVE_STYLE('',#21,POSITIVE_LENGTH_MEASURE(2.E-2),#8);
#67=PRESENTATION_STYLE_ASSIGNMENT((#66));
#68=STYLED_ITEM('',(#67),#65);
#69=DIRECTION('',(5.427837678167E-1,0.E0,-8.398724792459E-1));
#70=VECTOR('',#69,1.143116185444E-1);
#71=CARTESIAN_POINT('',(-2.539370078740E-1,-5.433070866142E-2,
-7.874015748031E-3));
#72=LINE('',#71,#70);
#73=CURVE_STYLE('',#21,POSITIVE_LENGTH_MEASURE(2.E-2),#8);
#74=PRESENTATION_STYLE_ASSIGNMENT((#73));
#75=STYLED_ITEM('',(#74),#72);
#76=CARTESIAN_POINT('',(-2.539370078740E-1,-5.433070866142E-2,
-7.874015748032E-3));
#77=DIRECTION('',(0.E0,-1.E0,0.E0));
#78=DIRECTION('',(8.398724792464E-1,0.E0,5.427837678160E-1));
#79=AXIS2_PLACEMENT_3D('',#76,#77,#78);
#81=CURVE_STYLE('',#21,POSITIVE_LENGTH_MEASURE(2.E-2),#8);
#82=PRESENTATION_STYLE_ASSIGNMENT((#81));
#83=STYLED_ITEM('',(#82),#80);
#84=DIRECTION('',(-5.427837678167E-1,0.E0,8.398724792459E-1));
#85=VECTOR('',#84,1.143116185444E-1);
#86=CARTESIAN_POINT('',(-1.852773477273E-1,-5.433070866142E-2,
-9.960731028599E-2));
#87=LINE('',#86,#85);
#88=CURVE_STYLE('',#21,POSITIVE_LENGTH_MEASURE(2.E-2),#8);
#89=PRESENTATION_STYLE_ASSIGNMENT((#88));
#90=STYLED_ITEM('',(#89),#87);
#91=DIRECTION('',(0.E0,1.E0,0.E0));
#92=VECTOR('',#91,7.874015748031E-2);
#93=CARTESIAN_POINT('',(-1.881557953197E-1,-5.433070866142E-2,
-1.486146703482E-1));
#94=LINE('',#93,#92);
#95=CURVE_STYLE('',#21,POSITIVE_LENGTH_MEASURE(2.E-2),#8);
#96=PRESENTATION_STYLE_ASSIGNMENT((#95));
#97=STYLED_ITEM('',(#96),#94);
#98=CARTESIAN_POINT('',(-1.968503937012E-1,2.440944881890E-2,
-1.070866141732E-1));
#99=DIRECTION('',(0.E0,1.E0,0.E0));
#100=DIRECTION('',(8.398724792456E-1,0.E0,5.427837678172E-1));
#101=AXIS2_PLACEMENT_3D('',#98,#99,#100);
#103=CURVE_STYLE('',#21,POSITIVE_LENGTH_MEASURE(2.E-2),#8);
#104=PRESENTATION_STYLE_ASSIGNMENT((#103));
#105=STYLED_ITEM('',(#104),#102);
#106=DIRECTION('',(5.427837678167E-1,0.E0,-8.398724792459E-1));
#107=VECTOR('',#106,1.143116185444E-1);
#108=CARTESIAN_POINT('',(-2.473238387461E-1,2.440944881890E-2,
-3.600127812467E-3));
#109=LINE('',#108,#107);
#110=CURVE_STYLE('',#21,POSITIVE_LENGTH_MEASURE(2.E-2),#8);
#111=PRESENTATION_STYLE_ASSIGNMENT((#110));
#112=STYLED_ITEM('',(#111),#109);
#113=CARTESIAN_POINT('',(-2.539370078740E-1,2.440944881890E-2,
-7.874015748032E-3));
#114=DIRECTION('',(0.E0,1.E0,0.E0));
#115=DIRECTION('',(0.E0,0.E0,1.E0));
#116=AXIS2_PLACEMENT_3D('',#113,#114,#115);
#118=CURVE_STYLE('',#21,POSITIVE_LENGTH_MEASURE(2.E-2),#8);
#119=PRESENTATION_STYLE_ASSIGNMENT((#118));
#120=STYLED_ITEM('',(#119),#117);
#121=DIRECTION('',(-5.427837678167E-1,0.E0,8.398724792459E-1));
#122=VECTOR('',#121,1.143116185444E-1);
#123=CARTESIAN_POINT('',(-1.918905168552E-1,2.440944881890E-2,
-1.038811982216E-1));
#124=LINE('',#123,#122);
#125=CURVE_STYLE('',#21,POSITIVE_LENGTH_MEASURE(2.E-2),#8);
#126=PRESENTATION_STYLE_ASSIGNMENT((#125));
#127=STYLED_ITEM('',(#126),#124);
#128=CARTESIAN_POINT('',(-1.968503937012E-1,2.440944881890E-2,
-1.070866141732E-1));
#129=DIRECTION('',(0.E0,-1.E0,0.E0));
#130=DIRECTION('',(9.922743263468E-1,0.E0,-1.240631342221E-1));
#131=AXIS2_PLACEMENT_3D('',#128,#129,#130);
#133=CURVE_STYLE('',#21,POSITIVE_LENGTH_MEASURE(2.E-2),#8);
#134=PRESENTATION_STYLE_ASSIGNMENT((#133));
#135=STYLED_ITEM('',(#134),#132);
#136=DIRECTION('',(1.240631342220E-1,0.E0,9.922743263468E-1));
#137=VECTOR('',#136,4.012854483951E-2);
#138=CARTESIAN_POINT('',(-1.959689789917E-1,2.440944881890E-2,
-1.476377952756E-1));
#139=LINE('',#138,#137);
#140=CURVE_STYLE('',#21,POSITIVE_LENGTH_MEASURE(2.E-2),#8);
#141=PRESENTATION_STYLE_ASSIGNMENT((#140));
#142=STYLED_ITEM('',(#141),#139);
#143=DIRECTION('',(-9.922743263470E-1,0.E0,1.240631342204E-1));
#144=VECTOR('',#143,7.874015748044E-3);
#145=CARTESIAN_POINT('',(-1.881557953197E-1,2.440944881890E-2,
-1.486146703482E-1));
#146=LINE('',#145,#144);
#147=CURVE_STYLE('',#21,POSITIVE_LENGTH_MEASURE(2.E-2),#8);
#148=PRESENTATION_STYLE_ASSIGNMENT((#147));
#149=STYLED_ITEM('',(#148),#146);
#150=DIRECTION('',(-1.240631342217E-1,0.E0,-9.922743263468E-1));
#151=VECTOR('',#150,4.012854483949E-2);
#152=CARTESIAN_POINT('',(-1.831773222751E-1,2.440944881890E-2,
-1.087961455503E-1));
#153=LINE('',#152,#151);
#154=CURVE_STYLE('',#21,POSITIVE_LENGTH_MEASURE(2.E-2),#8);
#155=PRESENTATION_STYLE_ASSIGNMENT((#154));
#156=STYLED_ITEM('',(#155),#153);
#157=DIRECTION('',(0.E0,-1.E0,0.E0));
#158=VECTOR('',#157,7.874015748031E-2);
#159=CARTESIAN_POINT('',(-2.539370078740E-1,2.440944881890E-2,0.E0));
#160=LINE('',#159,#158);
#161=CURVE_STYLE('',#21,POSITIVE_LENGTH_MEASURE(2.E-2),#8);
#162=PRESENTATION_STYLE_ASSIGNMENT((#161));
#163=STYLED_ITEM('',(#162),#160);
#164=DIRECTION('',(0.E0,1.E0,0.E0));
#165=VECTOR('',#164,7.874015748031E-2);
#166=CARTESIAN_POINT('',(-2.473238387461E-1,-5.433070866142E-2,
-3.600127812467E-3));
#167=LINE('',#166,#165);
#168=CURVE_STYLE('',#21,POSITIVE_LENGTH_MEASURE(2.E-2),#8);
#169=PRESENTATION_STYLE_ASSIGNMENT((#168));
#170=STYLED_ITEM('',(#169),#167);
#171=DIRECTION('',(0.E0,0.E0,1.E0));
#172=VECTOR('',#171,7.874015748032E-3);
#173=CARTESIAN_POINT('',(-2.539370078740E-1,-5.433070866142E-2,
-7.874015748031E-3));
#174=LINE('',#173,#172);
#175=CURVE_STYLE('',#21,POSITIVE_LENGTH_MEASURE(2.E-2),#8);
#176=PRESENTATION_STYLE_ASSIGNMENT((#175));
#177=STYLED_ITEM('',(#176),#174);
#178=DIRECTION('',(0.E0,0.E0,-1.E0));
#179=VECTOR('',#178,7.874015748032E-3);
#180=CARTESIAN_POINT('',(-2.539370078740E-1,2.440944881890E-2,0.E0));
#181=LINE('',#180,#179);
#182=CURVE_STYLE('',#21,POSITIVE_LENGTH_MEASURE(2.E-2),#8);
#183=PRESENTATION_STYLE_ASSIGNMENT((#182));
#184=STYLED_ITEM('',(#183),#181);
#185=DIRECTION('',(0.E0,1.E0,0.E0));
#186=VECTOR('',#185,7.874015748031E-2);
#187=CARTESIAN_POINT('',(-2.539370078740E-1,-5.433070866142E-2,
-7.874015748031E-3));
#188=LINE('',#187,#186);
#189=CURVE_STYLE('',#21,POSITIVE_LENGTH_MEASURE(2.E-2),#8);
#190=PRESENTATION_STYLE_ASSIGNMENT((#189));
#191=STYLED_ITEM('',(#190),#188);
#192=DIRECTION('',(0.E0,-1.E0,0.E0));
#193=VECTOR('',#192,7.874015748031E-2);
#194=CARTESIAN_POINT('',(-1.909905059472E-1,2.440944881890E-2,
-1.078192704777E-1));
#195=LINE('',#194,#193);
#196=CURVE_STYLE('',#21,POSITIVE_LENGTH_MEASURE(2.E-2),#8);
#197=PRESENTATION_STYLE_ASSIGNMENT((#196));
#198=STYLED_ITEM('',(#197),#195);
#199=DIRECTION('',(0.E0,1.E0,0.E0));
#200=VECTOR('',#199,7.874015748031E-2);
#201=CARTESIAN_POINT('',(-1.918905168552E-1,-5.433070866142E-2,
-1.038811982216E-1));
#202=LINE('',#201,#200);
#203=CURVE_STYLE('',#21,POSITIVE_LENGTH_MEASURE(2.E-2),#8);
#204=PRESENTATION_STYLE_ASSIGNMENT((#203));
#205=STYLED_ITEM('',(#204),#202);
#206=DIRECTION('',(0.E0,1.E0,0.E0));
#207=VECTOR('',#206,7.874015748031E-2);
#208=CARTESIAN_POINT('',(-1.959689789917E-1,-5.433070866142E-2,
-1.476377952756E-1));
#209=LINE('',#208,#207);
#210=CURVE_STYLE('',#21,POSITIVE_LENGTH_MEASURE(2.E-2),#8);
#211=PRESENTATION_STYLE_ASSIGNMENT((#210));
#212=STYLED_ITEM('',(#211),#209);
#213=CARTESIAN_POINT('',(-1.831773222751E-1,-5.433070866142E-2,
-1.087961455503E-1));
#214=CARTESIAN_POINT('',(-1.831773222751E-1,2.440944881890E-2,
-1.087961455503E-1));
#215=VERTEX_POINT('',#213);
#216=VERTEX_POINT('',#214);
#217=CARTESIAN_POINT('',(-1.881557953197E-1,-5.433070866142E-2,
-1.486146703482E-1));
#218=CARTESIAN_POINT('',(-1.881557953197E-1,2.440944881890E-2,
-1.486146703482E-1));
#219=VERTEX_POINT('',#217);
#220=VERTEX_POINT('',#218);
#221=CARTESIAN_POINT('',(-2.473238387461E-1,2.440944881890E-2,
-3.600127812467E-3));
#222=CARTESIAN_POINT('',(-1.852773477273E-1,2.440944881890E-2,
-9.960731028599E-2));
#223=VERTEX_POINT('',#221);
#224=VERTEX_POINT('',#222);
#225=CARTESIAN_POINT('',(-2.473238387461E-1,-5.433070866142E-2,
-3.600127812472E-3));
#226=CARTESIAN_POINT('',(-2.539370078740E-1,-5.433070866142E-2,0.E0));
#227=VERTEX_POINT('',#225);
#228=VERTEX_POINT('',#226);
#229=CARTESIAN_POINT('',(-1.852773477273E-1,-5.433070866142E-2,
-9.960731028599E-2));
#230=VERTEX_POINT('',#229);
#231=CARTESIAN_POINT('',(-2.539370078740E-1,2.440944881890E-2,0.E0));
#232=CARTESIAN_POINT('',(-2.539370078740E-1,2.440944881890E-2,
-7.874015748031E-3));
#233=VERTEX_POINT('',#231);
#234=VERTEX_POINT('',#232);
#235=CARTESIAN_POINT('',(-1.918905168552E-1,2.440944881890E-2,
-1.038811982216E-1));
#236=VERTEX_POINT('',#235);
#237=CARTESIAN_POINT('',(-2.539370078740E-1,-5.433070866142E-2,
-7.874015748031E-3));
#238=VERTEX_POINT('',#237);
#239=CARTESIAN_POINT('',(-1.959689789917E-1,-5.433070866142E-2,
-1.476377952756E-1));
#240=VERTEX_POINT('',#239);
#241=CARTESIAN_POINT('',(-1.909905059472E-1,-5.433070866142E-2,
-1.078192704777E-1));
#242=VERTEX_POINT('',#241);
#243=CARTESIAN_POINT('',(-1.918905168552E-1,-5.433070866142E-2,
-1.038811982216E-1));
#244=VERTEX_POINT('',#243);
#245=CARTESIAN_POINT('',(-1.909905059472E-1,2.440944881890E-2,
-1.078192704777E-1));
#246=VERTEX_POINT('',#245);
#247=CARTESIAN_POINT('',(-1.959689789917E-1,2.440944881890E-2,
-1.476377952756E-1));
#248=VERTEX_POINT('',#247);
#249=CARTESIAN_POINT('',(-1.968503937012E-1,2.440944881890E-2,
-1.070866141732E-1));
#250=DIRECTION('',(0.E0,-1.E0,0.E0));
#251=DIRECTION('',(0.E0,0.E0,-1.E0));
#252=AXIS2_PLACEMENT_3D('',#249,#250,#251);
#253=CYLINDRICAL_SURFACE('',#252,1.377952755906E-2);
#255=ORIENTED_EDGE('',*,*,#254,.T.);
#257=ORIENTED_EDGE('',*,*,#256,.F.);
#259=ORIENTED_EDGE('',*,*,#258,.T.);
#261=ORIENTED_EDGE('',*,*,#260,.F.);
#262=EDGE_LOOP('',(#255,#257,#259,#261));
#263=FACE_OUTER_BOUND('',#262,.F.);
#265=CARTESIAN_POINT('',(-1.968503937012E-1,-5.433070866142E-2,
-1.070866141732E-1));
#266=DIRECTION('',(0.E0,1.E0,0.E0));
#267=DIRECTION('',(0.E0,0.E0,1.E0));
#268=AXIS2_PLACEMENT_3D('',#265,#266,#267);
#269=PLANE('',#268);
#270=ORIENTED_EDGE('',*,*,#254,.F.);
#272=ORIENTED_EDGE('',*,*,#271,.F.);
#274=ORIENTED_EDGE('',*,*,#273,.F.);
#276=ORIENTED_EDGE('',*,*,#275,.F.);
#278=ORIENTED_EDGE('',*,*,#277,.F.);
#280=ORIENTED_EDGE('',*,*,#279,.F.);
#282=ORIENTED_EDGE('',*,*,#281,.T.);
#284=ORIENTED_EDGE('',*,*,#283,.F.);
#286=ORIENTED_EDGE('',*,*,#285,.F.);
#287=EDGE_LOOP('',(#270,#272,#274,#276,#278,#280,#282,#284,#286));
#288=FACE_OUTER_BOUND('',#287,.F.);
#290=CARTESIAN_POINT('',(-1.831773222751E-1,2.440944881890E-2,
-1.087961455503E-1));
#291=DIRECTION('',(-9.922743263468E-1,0.E0,1.240631342217E-1));
#292=DIRECTION('',(1.240631342217E-1,0.E0,9.922743263468E-1));
#293=AXIS2_PLACEMENT_3D('',#290,#291,#292);
#294=PLANE('',#293);
#295=ORIENTED_EDGE('',*,*,#271,.T.);
#296=ORIENTED_EDGE('',*,*,#260,.T.);
#298=ORIENTED_EDGE('',*,*,#297,.T.);
#300=ORIENTED_EDGE('',*,*,#299,.F.);
#301=EDGE_LOOP('',(#295,#296,#298,#300));
#302=FACE_OUTER_BOUND('',#301,.F.);
#304=CARTESIAN_POINT('',(-1.968503937012E-1,2.440944881890E-2,
-1.070866141732E-1));
#305=DIRECTION('',(0.E0,1.E0,0.E0));
#306=DIRECTION('',(0.E0,0.E0,1.E0));
#307=AXIS2_PLACEMENT_3D('',#304,#305,#306);
#308=PLANE('',#307);
#309=ORIENTED_EDGE('',*,*,#258,.F.);
#311=ORIENTED_EDGE('',*,*,#310,.F.);
#313=ORIENTED_EDGE('',*,*,#312,.F.);
#315=ORIENTED_EDGE('',*,*,#314,.T.);
#317=ORIENTED_EDGE('',*,*,#316,.F.);
#319=ORIENTED_EDGE('',*,*,#318,.F.);
#321=ORIENTED_EDGE('',*,*,#320,.F.);
#323=ORIENTED_EDGE('',*,*,#322,.F.);
#324=ORIENTED_EDGE('',*,*,#297,.F.);
#325=EDGE_LOOP('',(#309,#311,#313,#315,#317,#319,#321,#323,#324));
#326=FACE_OUTER_BOUND('',#325,.F.);
#328=CARTESIAN_POINT('',(-2.473238387461E-1,2.440944881890E-2,
-3.600127812464E-3));
#329=DIRECTION('',(-8.398724792459E-1,0.E0,-5.427837678167E-1));
#330=DIRECTION('',(-5.427837678167E-1,0.E0,8.398724792459E-1));
#331=AXIS2_PLACEMENT_3D('',#328,#329,#330);
#332=PLANE('',#331);
#333=ORIENTED_EDGE('',*,*,#285,.T.);
#335=ORIENTED_EDGE('',*,*,#334,.T.);
#336=ORIENTED_EDGE('',*,*,#310,.T.);
#337=ORIENTED_EDGE('',*,*,#256,.T.);
#338=EDGE_LOOP('',(#333,#335,#336,#337));
#339=FACE_OUTER_BOUND('',#338,.F.);
#341=CARTESIAN_POINT('',(-2.539370078740E-1,2.440944881890E-2,
-7.874015748032E-3));
#342=DIRECTION('',(0.E0,-1.E0,0.E0));
#343=DIRECTION('',(0.E0,0.E0,-1.E0));
#344=AXIS2_PLACEMENT_3D('',#341,#342,#343);
#345=CYLINDRICAL_SURFACE('',#344,7.874015748032E-3);
#346=ORIENTED_EDGE('',*,*,#283,.T.);
#348=ORIENTED_EDGE('',*,*,#347,.F.);
#349=ORIENTED_EDGE('',*,*,#312,.T.);
#350=ORIENTED_EDGE('',*,*,#334,.F.);
#351=EDGE_LOOP('',(#346,#348,#349,#350));
#352=FACE_OUTER_BOUND('',#351,.F.);
#354=CARTESIAN_POINT('',(-2.539370078740E-1,2.440944881890E-2,
-7.874015748031E-3));
#355=DIRECTION('',(1.E0,0.E0,0.E0));
#356=DIRECTION('',(0.E0,0.E0,-1.E0));
#357=AXIS2_PLACEMENT_3D('',#354,#355,#356);
#358=PLANE('',#357);
#359=ORIENTED_EDGE('',*,*,#281,.F.);
#361=ORIENTED_EDGE('',*,*,#360,.T.);
#362=ORIENTED_EDGE('',*,*,#314,.F.);
#363=ORIENTED_EDGE('',*,*,#347,.T.);
#364=EDGE_LOOP('',(#359,#361,#362,#363));
#365=FACE_OUTER_BOUND('',#364,.F.);
#367=CARTESIAN_POINT('',(-1.918905168552E-1,2.440944881890E-2,
-1.038811982216E-1));
#368=DIRECTION('',(8.398724792459E-1,0.E0,5.427837678167E-1));
#369=DIRECTION('',(5.427837678167E-1,0.E0,-8.398724792459E-1));
#370=AXIS2_PLACEMENT_3D('',#367,#368,#369);
#371=PLANE('',#370);
#372=ORIENTED_EDGE('',*,*,#279,.T.);
#374=ORIENTED_EDGE('',*,*,#373,.T.);
#375=ORIENTED_EDGE('',*,*,#316,.T.);
#376=ORIENTED_EDGE('',*,*,#360,.F.);
#377=EDGE_LOOP('',(#372,#374,#375,#376));
#378=FACE_OUTER_BOUND('',#377,.F.);
#380=CARTESIAN_POINT('',(-1.968503937012E-1,2.440944881890E-2,
-1.070866141732E-1));
#381=DIRECTION('',(0.E0,-1.E0,0.E0));
#382=DIRECTION('',(0.E0,0.E0,-1.E0));
#383=AXIS2_PLACEMENT_3D('',#380,#381,#382);
#384=CYLINDRICAL_SURFACE('',#383,5.905511811022E-3);
#385=ORIENTED_EDGE('',*,*,#277,.T.);
#387=ORIENTED_EDGE('',*,*,#386,.F.);
#388=ORIENTED_EDGE('',*,*,#318,.T.);
#389=ORIENTED_EDGE('',*,*,#373,.F.);
#390=EDGE_LOOP('',(#385,#387,#388,#389));
#391=FACE_OUTER_BOUND('',#390,.F.);
#393=CARTESIAN_POINT('',(-1.959689789917E-1,2.440944881890E-2,
-1.476377952756E-1));
#394=DIRECTION('',(9.922743263468E-1,0.E0,-1.240631342220E-1));
#395=DIRECTION('',(-1.240631342220E-1,0.E0,-9.922743263468E-1));
#396=AXIS2_PLACEMENT_3D('',#393,#394,#395);
#397=PLANE('',#396);
#398=ORIENTED_EDGE('',*,*,#275,.T.);
#400=ORIENTED_EDGE('',*,*,#399,.T.);
#401=ORIENTED_EDGE('',*,*,#320,.T.);
#402=ORIENTED_EDGE('',*,*,#386,.T.);
#403=EDGE_LOOP('',(#398,#400,#401,#402));
#404=FACE_OUTER_BOUND('',#403,.F.);
#406=CARTESIAN_POINT('',(-1.881557953197E-1,2.440944881890E-2,
-1.486146703482E-1));
#407=DIRECTION('',(1.240631342204E-1,0.E0,9.922743263470E-1));
#408=DIRECTION('',(9.922743263470E-1,0.E0,-1.240631342204E-1));
#409=AXIS2_PLACEMENT_3D('',#406,#407,#408);
#410=PLANE('',#409);
#411=ORIENTED_EDGE('',*,*,#273,.T.);
#412=ORIENTED_EDGE('',*,*,#299,.T.);
#413=ORIENTED_EDGE('',*,*,#322,.T.);
#414=ORIENTED_EDGE('',*,*,#399,.F.);
#415=EDGE_LOOP('',(#411,#412,#413,#414));
#416=FACE_OUTER_BOUND('',#415,.F.);
#420=FILL_AREA_STYLE_COLOUR('',#8);
#421=FILL_AREA_STYLE('',(#420));
#422=SURFACE_STYLE_FILL_AREA(#421);
#423=SURFACE_SIDE_STYLE('',(#422));
#424=SURFACE_STYLE_USAGE(.BOTH.,#423);
#425=PRESENTATION_STYLE_ASSIGNMENT((#424));
#16=STYLED_ITEM('',(#425),#419);
#426=PRESENTATION_LAYER_ASSIGNMENT('SHELL_841','',(#16,#264,#289,#303,#327,#340,
#353,#366,#379,#392,#405,#417));
#428=LENGTH_MEASURE_WITH_UNIT(LENGTH_MEASURE(2.54E1),#427);
#429=(CONVERSION_BASED_UNIT('INCH',#428)LENGTH_UNIT()NAMED_UNIT(*));
#431=PLANE_ANGLE_MEASURE_WITH_UNIT(PLANE_ANGLE_MEASURE(1.745329251994E-2),#430);
#432=(CONVERSION_BASED_UNIT('DEGREE',#431)NAMED_UNIT(*)PLANE_ANGLE_UNIT());
#434=UNCERTAINTY_MEASURE_WITH_UNIT(LENGTH_MEASURE(1.825003901705E-5),#429,
'closure',
'Maximum model space distance between geometric entities at asserted connectivities');
#436=CARTESIAN_POINT('',(0.E0,0.E0,0.E0));
#437=DIRECTION('',(0.E0,0.E0,1.E0));
#438=DIRECTION('',(1.E0,0.E0,0.E0));
#441=MECHANICAL_DESIGN_GEOMETRIC_PRESENTATION_REPRESENTATION('',(#24,#31,#39,
#46,#53,#60,#68,#75,#83,#90,#97,#105,#112,#120,#127,#135,#142,#149,#156,#163,
#170,#177,#184,#191,#198,#205,#212,#16),#435);
#442=APPLICATION_CONTEXT('automotive design');
#443=APPLICATION_PROTOCOL_DEFINITION('international standard',
'config_control_design',1994,#442);
#444=PRODUCT_DEFINITION_CONTEXT('',#442,'design');
#445=PRODUCT_CONTEXT('',#442,'mechanical');
#446=PRODUCT('DODANIE-WYCIGNICIE0107','DODANIE-WYCIGNICIE0107','NOT SPECIFIED',(
#445));
#447=PRODUCT_DEFINITION_FORMATION_WITH_SPECIFIED_SOURCE('1','LAST_VERSION',#446,
.MADE.);
#455=LENGTH_MEASURE_WITH_UNIT(LENGTH_MEASURE(2.54E1),#454);
#456=(CONVERSION_BASED_UNIT('INCH',#455)LENGTH_UNIT()NAMED_UNIT(*));
#457=DERIVED_UNIT_ELEMENT(#456,2.E0);
#458=AREA_UNIT((#457));
#459=MEASURE_REPRESENTATION_ITEM('surface area measure',AREA_MEASURE(
1.926687875675E1),#458);
#464=LENGTH_MEASURE_WITH_UNIT(LENGTH_MEASURE(2.54E1),#463);
#465=(CONVERSION_BASED_UNIT('INCH',#464)LENGTH_UNIT()NAMED_UNIT(*));
#466=DERIVED_UNIT_ELEMENT(#465,3.E0);
#467=VOLUME_UNIT((#466));
#468=MEASURE_REPRESENTATION_ITEM('volume measure',VOLUME_MEASURE(
1.678807158106E0),#467);
#472=CARTESIAN_POINT('centre point',(-5.377522486523E0,-3.8E-1,
-1.848032676247E0));
#477=LENGTH_MEASURE_WITH_UNIT(LENGTH_MEASURE(2.54E1),#476);
#478=(CONVERSION_BASED_UNIT('INCH',#477)LENGTH_UNIT()NAMED_UNIT(*));
#479=DERIVED_UNIT_ELEMENT(#478,2.E0);
#480=AREA_UNIT((#479));
#481=MEASURE_REPRESENTATION_ITEM('surface area measure',AREA_MEASURE(
1.926687875675E1),#480);
#486=LENGTH_MEASURE_WITH_UNIT(LENGTH_MEASURE(2.54E1),#485);
#487=(CONVERSION_BASED_UNIT('INCH',#486)LENGTH_UNIT()NAMED_UNIT(*));
#488=DERIVED_UNIT_ELEMENT(#487,3.E0);
#489=VOLUME_UNIT((#488));
#490=MEASURE_REPRESENTATION_ITEM('volume measure',VOLUME_MEASURE(
1.678807158106E0),#489);
#494=CARTESIAN_POINT('centre point',(-5.377522486523E0,-3.8E-1,
-1.848032676247E0));
#1=DRAUGHTING_PRE_DEFINED_COLOUR('green');
#2=COLOUR_RGB('',1.1E-2,1.2E-2,1.E0);
#3=COLOUR_RGB('',2.352941176471E-1,2.352941176471E-1,2.352941176471E-1);
#4=COLOUR_RGB('',4.1E-1,2.61589E-1,1.12848E-1);
#5=COLOUR_RGB('',5.04854E-1,1.5455E-2,1.5455E-2);
#6=COLOUR_RGB('',6.35294E-1,6.86275E-1,7.4902E-1);
#7=COLOUR_RGB('',6.40777E-1,6.40777E-1,6.40777E-1);
#8=COLOUR_RGB('',6.392156862745E-1,6.666666666667E-1,6.784313725490E-1);
#9=COLOUR_RGB('',6.69062E-1,6.69903E-1,6.55217E-1);
#10=COLOUR_RGB('',9.21569E-1,7.05882E-1,4.70588E-1);
#11=DRAUGHTING_PRE_DEFINED_COLOUR('red');
#12=DRAUGHTING_PRE_DEFINED_COLOUR('yellow');
#13=COLOUR_RGB('',1.E0,1.E0,5.3E-1);
#14=COLOUR_RGB('',1.E0,1.E0,9.49E-1);
#15=DRAUGHTING_PRE_DEFINED_COLOUR('white');
#36=CIRCLE('',#35,1.377952755906E-2);
#65=CIRCLE('',#64,5.905511811022E-3);
#80=CIRCLE('',#79,7.874015748032E-3);
#102=CIRCLE('',#101,1.377952755906E-2);
#117=CIRCLE('',#116,7.874015748032E-3);
#132=CIRCLE('',#131,5.905511811022E-3);
#254=EDGE_CURVE('',#215,#230,#36,.T.);
#256=EDGE_CURVE('',#224,#230,#20,.T.);
#258=EDGE_CURVE('',#224,#216,#102,.T.);
#260=EDGE_CURVE('',#215,#216,#28,.T.);
#264=ADVANCED_FACE('',(#263),#253,.T.);
#271=EDGE_CURVE('',#219,#215,#43,.T.);
#273=EDGE_CURVE('',#240,#219,#50,.T.);
#275=EDGE_CURVE('',#242,#240,#57,.T.);
#277=EDGE_CURVE('',#244,#242,#65,.T.);
#279=EDGE_CURVE('',#238,#244,#72,.T.);
#281=EDGE_CURVE('',#238,#228,#174,.T.);
#283=EDGE_CURVE('',#227,#228,#80,.T.);
#285=EDGE_CURVE('',#230,#227,#87,.T.);
#289=ADVANCED_FACE('',(#288),#269,.F.);
#297=EDGE_CURVE('',#216,#220,#153,.T.);
#299=EDGE_CURVE('',#219,#220,#94,.T.);
#303=ADVANCED_FACE('',(#302),#294,.F.);
#310=EDGE_CURVE('',#223,#224,#109,.T.);
#312=EDGE_CURVE('',#233,#223,#117,.T.);
#314=EDGE_CURVE('',#233,#234,#181,.T.);
#316=EDGE_CURVE('',#236,#234,#124,.T.);
#318=EDGE_CURVE('',#246,#236,#132,.T.);
#320=EDGE_CURVE('',#248,#246,#139,.T.);
#322=EDGE_CURVE('',#220,#248,#146,.T.);
#327=ADVANCED_FACE('',(#326),#308,.T.);
#334=EDGE_CURVE('',#227,#223,#167,.T.);
#340=ADVANCED_FACE('',(#339),#332,.F.);
#347=EDGE_CURVE('',#233,#228,#160,.T.);
#353=ADVANCED_FACE('',(#352),#345,.T.);
#360=EDGE_CURVE('',#238,#234,#188,.T.);
#366=ADVANCED_FACE('',(#365),#358,.F.);
#373=EDGE_CURVE('',#244,#236,#202,.T.);
#379=ADVANCED_FACE('',(#378),#371,.F.);
#386=EDGE_CURVE('',#246,#242,#195,.T.);
#392=ADVANCED_FACE('',(#391),#384,.F.);
#399=EDGE_CURVE('',#240,#248,#209,.T.);
#405=ADVANCED_FACE('',(#404),#397,.F.);
#417=ADVANCED_FACE('',(#416),#410,.F.);
#418=CLOSED_SHELL('',(#264,#289,#303,#327,#340,#353,#366,#379,#392,#405,#417));
#419=MANIFOLD_SOLID_BREP('',#418);
#427=(LENGTH_UNIT()NAMED_UNIT(*)SI_UNIT(.MILLI.,.METRE.));
#430=(NAMED_UNIT(*)PLANE_ANGLE_UNIT()SI_UNIT($,.RADIAN.));
#433=(NAMED_UNIT(*)SI_UNIT($,.STERADIAN.)SOLID_ANGLE_UNIT());
#435=(GEOMETRIC_REPRESENTATION_CONTEXT(3)GLOBAL_UNCERTAINTY_ASSIGNED_CONTEXT((
#434))GLOBAL_UNIT_ASSIGNED_CONTEXT((#429,#432,#433))REPRESENTATION_CONTEXT
('ID1','3'));
#439=AXIS2_PLACEMENT_3D('',#436,#437,#438);
#440=ADVANCED_BREP_SHAPE_REPRESENTATION('',(#439,#419),#435);
#448=PRODUCT_DEFINITION('design','',#447,#444);
#449=PRODUCT_DEFINITION_SHAPE('','SHAPE FOR DODANIE-WYCIGNICIE0107.',#448);
#450=SHAPE_ASPECT('','solid data associated with DODANIE-WYCIGNICIE0107',#449,
.F.);
#451=PROPERTY_DEFINITION('',
'shape for solid data with which properties are associated',#450);
#452=SHAPE_REPRESENTATION('',(#419),#435);
#453=SHAPE_DEFINITION_REPRESENTATION(#451,#452);
#454=(LENGTH_UNIT()NAMED_UNIT(*)SI_UNIT(.MILLI.,.METRE.));
#460=PROPERTY_DEFINITION('geometric validation property',
'area of DODANIE-WYCIGNICIE0107',#450);
#461=REPRESENTATION('surface area',(#459),#435);
#462=PROPERTY_DEFINITION_REPRESENTATION(#460,#461);
#463=(LENGTH_UNIT()NAMED_UNIT(*)SI_UNIT(.MILLI.,.METRE.));
#469=PROPERTY_DEFINITION('geometric validation property',
'volume of DODANIE-WYCIGNICIE0107',#450);
#470=REPRESENTATION('volume',(#468),#435);
#471=PROPERTY_DEFINITION_REPRESENTATION(#469,#470);
#473=PROPERTY_DEFINITION('geometric validation property',
'centroid of DODANIE-WYCIGNICIE0107',#450);
#474=REPRESENTATION('centroid',(#472),#435);
#475=PROPERTY_DEFINITION_REPRESENTATION(#473,#474);
#476=(LENGTH_UNIT()NAMED_UNIT(*)SI_UNIT(.MILLI.,.METRE.));
#482=PROPERTY_DEFINITION('geometric validation property',
'area of DODANIE-WYCIGNICIE0107',#449);
#483=REPRESENTATION('surface area',(#481),#435);
#484=PROPERTY_DEFINITION_REPRESENTATION(#482,#483);
#485=(LENGTH_UNIT()NAMED_UNIT(*)SI_UNIT(.MILLI.,.METRE.));
#491=PROPERTY_DEFINITION('geometric validation property',
'volume of DODANIE-WYCIGNICIE0107',#449);
#492=REPRESENTATION('volume',(#490),#435);
#493=PROPERTY_DEFINITION_REPRESENTATION(#491,#492);
#495=PROPERTY_DEFINITION('geometric validation property',
'centroid of DODANIE-WYCIGNICIE0107',#449);
#496=REPRESENTATION('centroid',(#494),#435);
#497=PROPERTY_DEFINITION_REPRESENTATION(#495,#496);
#498=SHAPE_DEFINITION_REPRESENTATION(#449,#440);
ENDSEC;
END-ISO-10303-21;
