ISO-10303-21;
HEADER;
FILE_DESCRIPTION((''),'2;1');
FILE_NAME('DODANIE-WYCIGNICIE0104','2026-06-15T13:46:07',('Esia'),(''),
'CREO PARAMETRIC BY PTC INC, 2025102','CREO PARAMETRIC BY PTC INC, 2025102','');
FILE_SCHEMA((
'AP242_MANAGED_MODEL_BASED_3D_ENGINEERING_MIM_LF { 1 0 10303 442 1 1 4 }'));
ENDSEC;
DATA;
#17=DIRECTION('',(-1.E0,0.E0,0.E0));
#18=VECTOR('',#17,1.811023622047E-2);
#19=CARTESIAN_POINT('',(-1.658847015109E-1,-2.588582677165E-1,
-6.667322834646E-1));
#20=LINE('',#19,#18);
#21=DRAUGHTING_PRE_DEFINED_CURVE_FONT('continuous');
#22=CURVE_STYLE('',#21,POSITIVE_LENGTH_MEASURE(2.E-2),#9);
#23=PRESENTATION_STYLE_ASSIGNMENT((#22));
#24=STYLED_ITEM('',(#23),#20);
#25=DIRECTION('',(0.E0,1.E0,0.E0));
#26=VECTOR('',#25,9.448818897638E-2);
#27=CARTESIAN_POINT('',(-1.658847015109E-1,-3.533464566929E-1,
-6.667322834646E-1));
#28=LINE('',#27,#26);
#29=CURVE_STYLE('',#21,POSITIVE_LENGTH_MEASURE(2.E-2),#9);
#30=PRESENTATION_STYLE_ASSIGNMENT((#29));
#31=STYLED_ITEM('',(#30),#28);
#32=DIRECTION('',(1.E0,0.E0,0.E0));
#33=VECTOR('',#32,1.811023622047E-2);
#34=CARTESIAN_POINT('',(-1.839949377314E-1,-3.533464566929E-1,
-6.667322834646E-1));
#35=LINE('',#34,#33);
#36=CURVE_STYLE('',#21,POSITIVE_LENGTH_MEASURE(2.E-2),#9);
#37=PRESENTATION_STYLE_ASSIGNMENT((#36));
#38=STYLED_ITEM('',(#37),#35);
#39=DIRECTION('',(0.E0,-1.E0,0.E0));
#40=VECTOR('',#39,9.448818897638E-2);
#41=CARTESIAN_POINT('',(-1.839949377314E-1,-2.588582677165E-1,
-6.667322834646E-1));
#42=LINE('',#41,#40);
#43=CURVE_STYLE('',#21,POSITIVE_LENGTH_MEASURE(2.E-2),#9);
#44=PRESENTATION_STYLE_ASSIGNMENT((#43));
#45=STYLED_ITEM('',(#44),#42);
#46=DIRECTION('',(0.E0,0.E0,-1.E0));
#47=VECTOR('',#46,1.377952755906E-2);
#48=CARTESIAN_POINT('',(-1.839949377314E-1,-2.588582677165E-1,
-6.667322834646E-1));
#49=LINE('',#48,#47);
#50=CURVE_STYLE('',#21,POSITIVE_LENGTH_MEASURE(2.E-2),#9);
#51=PRESENTATION_STYLE_ASSIGNMENT((#50));
#52=STYLED_ITEM('',(#51),#49);
#53=DIRECTION('',(0.E0,0.E0,1.E0));
#54=VECTOR('',#53,1.377952755906E-2);
#55=CARTESIAN_POINT('',(-1.839949377314E-1,-3.533464566929E-1,
-6.805118110236E-1));
#56=LINE('',#55,#54);
#57=CURVE_STYLE('',#21,POSITIVE_LENGTH_MEASURE(2.E-2),#9);
#58=PRESENTATION_STYLE_ASSIGNMENT((#57));
#59=STYLED_ITEM('',(#58),#56);
#60=DIRECTION('',(0.E0,-1.E0,0.E0));
#61=VECTOR('',#60,9.448818897638E-2);
#62=CARTESIAN_POINT('',(-1.839949377314E-1,-2.588582677165E-1,
-6.805118110236E-1));
#63=LINE('',#62,#61);
#64=CURVE_STYLE('',#21,POSITIVE_LENGTH_MEASURE(2.E-2),#9);
#65=PRESENTATION_STYLE_ASSIGNMENT((#64));
#66=STYLED_ITEM('',(#65),#63);
#67=DIRECTION('',(0.E0,0.E0,1.E0));
#68=VECTOR('',#67,1.377952755906E-2);
#69=CARTESIAN_POINT('',(-1.658847015109E-1,-2.588582677165E-1,
-6.805118110236E-1));
#70=LINE('',#69,#68);
#71=CURVE_STYLE('',#21,POSITIVE_LENGTH_MEASURE(2.E-2),#9);
#72=PRESENTATION_STYLE_ASSIGNMENT((#71));
#73=STYLED_ITEM('',(#72),#70);
#74=DIRECTION('',(0.E0,0.E0,-1.E0));
#75=VECTOR('',#74,1.377952755906E-2);
#76=CARTESIAN_POINT('',(-1.658847015109E-1,-3.533464566929E-1,
-6.667322834646E-1));
#77=LINE('',#76,#75);
#78=CURVE_STYLE('',#21,POSITIVE_LENGTH_MEASURE(2.E-2),#9);
#79=PRESENTATION_STYLE_ASSIGNMENT((#78));
#80=STYLED_ITEM('',(#79),#77);
#81=DIRECTION('',(1.E0,0.E0,0.E0));
#82=VECTOR('',#81,1.811023622047E-2);
#83=CARTESIAN_POINT('',(-1.839949377314E-1,-2.588582677165E-1,
-6.805118110236E-1));
#84=LINE('',#83,#82);
#85=CURVE_STYLE('',#21,POSITIVE_LENGTH_MEASURE(2.E-2),#9);
#86=PRESENTATION_STYLE_ASSIGNMENT((#85));
#87=STYLED_ITEM('',(#86),#84);
#88=DIRECTION('',(-1.E0,0.E0,0.E0));
#89=VECTOR('',#88,1.811023622047E-2);
#90=CARTESIAN_POINT('',(-1.658847015109E-1,-3.533464566929E-1,
-6.805118110236E-1));
#91=LINE('',#90,#89);
#92=CURVE_STYLE('',#21,POSITIVE_LENGTH_MEASURE(2.E-2),#9);
#93=PRESENTATION_STYLE_ASSIGNMENT((#92));
#94=STYLED_ITEM('',(#93),#91);
#95=DIRECTION('',(0.E0,-1.E0,0.E0));
#96=VECTOR('',#95,9.448818897638E-2);
#97=CARTESIAN_POINT('',(-1.658847015109E-1,-2.588582677165E-1,
-6.805118110236E-1));
#98=LINE('',#97,#96);
#99=CURVE_STYLE('',#21,POSITIVE_LENGTH_MEASURE(2.E-2),#9);
#100=PRESENTATION_STYLE_ASSIGNMENT((#99));
#101=STYLED_ITEM('',(#100),#98);
#102=CARTESIAN_POINT('',(-1.839949377314E-1,-2.588582677165E-1,
-6.667322834646E-1));
#103=CARTESIAN_POINT('',(-1.839949377314E-1,-3.533464566929E-1,
-6.667322834646E-1));
#104=VERTEX_POINT('',#102);
#105=VERTEX_POINT('',#103);
#106=CARTESIAN_POINT('',(-1.839949377314E-1,-2.588582677165E-1,
-6.805118110236E-1));
#107=CARTESIAN_POINT('',(-1.839949377314E-1,-3.533464566929E-1,
-6.805118110236E-1));
#108=VERTEX_POINT('',#106);
#109=VERTEX_POINT('',#107);
#110=CARTESIAN_POINT('',(-1.658847015109E-1,-3.533464566929E-1,
-6.667322834646E-1));
#111=CARTESIAN_POINT('',(-1.658847015109E-1,-3.533464566929E-1,
-6.805118110236E-1));
#112=VERTEX_POINT('',#110);
#113=VERTEX_POINT('',#111);
#114=CARTESIAN_POINT('',(-1.658847015109E-1,-2.588582677165E-1,
-6.805118110236E-1));
#115=VERTEX_POINT('',#114);
#116=CARTESIAN_POINT('',(-1.658847015109E-1,-2.588582677165E-1,
-6.667322834646E-1));
#117=VERTEX_POINT('',#116);
#118=CARTESIAN_POINT('',(-1.658847015109E-1,-3.533464566929E-1,
-6.667322834646E-1));
#119=DIRECTION('',(0.E0,0.E0,-1.E0));
#120=DIRECTION('',(-1.E0,0.E0,0.E0));
#121=AXIS2_PLACEMENT_3D('',#118,#119,#120);
#122=PLANE('',#121);
#124=ORIENTED_EDGE('',*,*,#123,.F.);
#126=ORIENTED_EDGE('',*,*,#125,.F.);
#128=ORIENTED_EDGE('',*,*,#127,.F.);
#130=ORIENTED_EDGE('',*,*,#129,.F.);
#131=EDGE_LOOP('',(#124,#126,#128,#130));
#132=FACE_OUTER_BOUND('',#131,.F.);
#134=CARTESIAN_POINT('',(0.E0,-2.588582677165E-1,0.E0));
#135=DIRECTION('',(0.E0,-1.E0,0.E0));
#136=DIRECTION('',(0.E0,0.E0,-1.E0));
#137=AXIS2_PLACEMENT_3D('',#134,#135,#136);
#138=PLANE('',#137);
#139=ORIENTED_EDGE('',*,*,#123,.T.);
#141=ORIENTED_EDGE('',*,*,#140,.T.);
#143=ORIENTED_EDGE('',*,*,#142,.T.);
#145=ORIENTED_EDGE('',*,*,#144,.T.);
#146=EDGE_LOOP('',(#139,#141,#143,#145));
#147=FACE_OUTER_BOUND('',#146,.F.);
#149=CARTESIAN_POINT('',(-1.839949377314E-1,-3.533464566929E-1,
-6.667322834646E-1));
#150=DIRECTION('',(1.E0,0.E0,0.E0));
#151=DIRECTION('',(0.E0,0.E0,-1.E0));
#152=AXIS2_PLACEMENT_3D('',#149,#150,#151);
#153=PLANE('',#152);
#154=ORIENTED_EDGE('',*,*,#140,.F.);
#155=ORIENTED_EDGE('',*,*,#129,.T.);
#157=ORIENTED_EDGE('',*,*,#156,.F.);
#159=ORIENTED_EDGE('',*,*,#158,.F.);
#160=EDGE_LOOP('',(#154,#155,#157,#159));
#161=FACE_OUTER_BOUND('',#160,.F.);
#163=CARTESIAN_POINT('',(0.E0,-3.533464566929E-1,0.E0));
#164=DIRECTION('',(0.E0,-1.E0,0.E0));
#165=DIRECTION('',(0.E0,0.E0,-1.E0));
#166=AXIS2_PLACEMENT_3D('',#163,#164,#165);
#167=PLANE('',#166);
#168=ORIENTED_EDGE('',*,*,#127,.T.);
#170=ORIENTED_EDGE('',*,*,#169,.T.);
#172=ORIENTED_EDGE('',*,*,#171,.T.);
#173=ORIENTED_EDGE('',*,*,#156,.T.);
#174=EDGE_LOOP('',(#168,#170,#172,#173));
#175=FACE_OUTER_BOUND('',#174,.F.);
#177=CARTESIAN_POINT('',(-1.658847015109E-1,-3.533464566929E-1,
-6.805118110236E-1));
#178=DIRECTION('',(-1.E0,0.E0,0.E0));
#179=DIRECTION('',(0.E0,0.E0,1.E0));
#180=AXIS2_PLACEMENT_3D('',#177,#178,#179);
#181=PLANE('',#180);
#182=ORIENTED_EDGE('',*,*,#144,.F.);
#184=ORIENTED_EDGE('',*,*,#183,.T.);
#185=ORIENTED_EDGE('',*,*,#169,.F.);
#186=ORIENTED_EDGE('',*,*,#125,.T.);
#187=EDGE_LOOP('',(#182,#184,#185,#186));
#188=FACE_OUTER_BOUND('',#187,.F.);
#190=CARTESIAN_POINT('',(-1.839949377314E-1,-3.533464566929E-1,
-6.805118110236E-1));
#191=DIRECTION('',(0.E0,0.E0,1.E0));
#192=DIRECTION('',(1.E0,0.E0,0.E0));
#193=AXIS2_PLACEMENT_3D('',#190,#191,#192);
#194=PLANE('',#193);
#195=ORIENTED_EDGE('',*,*,#142,.F.);
#196=ORIENTED_EDGE('',*,*,#158,.T.);
#197=ORIENTED_EDGE('',*,*,#171,.F.);
#198=ORIENTED_EDGE('',*,*,#183,.F.);
#199=EDGE_LOOP('',(#195,#196,#197,#198));
#200=FACE_OUTER_BOUND('',#199,.F.);
#204=FILL_AREA_STYLE_COLOUR('',#9);
#205=FILL_AREA_STYLE('',(#204));
#206=SURFACE_STYLE_FILL_AREA(#205);
#207=SURFACE_SIDE_STYLE('',(#206));
#208=SURFACE_STYLE_USAGE(.BOTH.,#207);
#209=PRESENTATION_STYLE_ASSIGNMENT((#208));
#16=STYLED_ITEM('',(#209),#203);
#210=PRESENTATION_LAYER_ASSIGNMENT('SHELL_828','',(#16,#133,#148,#162,#176,#189,
#201));
#212=LENGTH_MEASURE_WITH_UNIT(LENGTH_MEASURE(2.54E1),#211);
#213=(CONVERSION_BASED_UNIT('INCH',#212)LENGTH_UNIT()NAMED_UNIT(*));
#215=PLANE_ANGLE_MEASURE_WITH_UNIT(PLANE_ANGLE_MEASURE(1.745329251994E-2),#214);
#216=(CONVERSION_BASED_UNIT('DEGREE',#215)NAMED_UNIT(*)PLANE_ANGLE_UNIT());
#218=UNCERTAINTY_MEASURE_WITH_UNIT(LENGTH_MEASURE(9.718599815277E-6),#213,
'closure',
'Maximum model space distance between geometric entities at asserted connectivities');
#220=CARTESIAN_POINT('',(0.E0,0.E0,0.E0));
#221=DIRECTION('',(0.E0,0.E0,1.E0));
#222=DIRECTION('',(1.E0,0.E0,0.E0));
#225=MECHANICAL_DESIGN_GEOMETRIC_PRESENTATION_REPRESENTATION('',(#24,#31,#38,
#45,#52,#59,#66,#73,#80,#87,#94,#101,#16),#219);
#226=APPLICATION_CONTEXT('automotive design');
#227=APPLICATION_PROTOCOL_DEFINITION('international standard',
'config_control_design',1994,#226);
#228=PRODUCT_DEFINITION_CONTEXT('',#226,'design');
#229=PRODUCT_CONTEXT('',#226,'mechanical');
#230=PRODUCT('DODANIE-WYCIGNICIE0104','DODANIE-WYCIGNICIE0104','NOT SPECIFIED',(
#229));
#231=PRODUCT_DEFINITION_FORMATION_WITH_SPECIFIED_SOURCE('1','LAST_VERSION',#230,
.MADE.);
#239=LENGTH_MEASURE_WITH_UNIT(LENGTH_MEASURE(2.54E1),#238);
#240=(CONVERSION_BASED_UNIT('INCH',#239)LENGTH_UNIT()NAMED_UNIT(*));
#241=DERIVED_UNIT_ELEMENT(#240,2.E0);
#242=AREA_UNIT((#241));
#243=MEASURE_REPRESENTATION_ITEM('surface area measure',AREA_MEASURE(4.21E0),
#242);
#248=LENGTH_MEASURE_WITH_UNIT(LENGTH_MEASURE(2.54E1),#247);
#249=(CONVERSION_BASED_UNIT('INCH',#248)LENGTH_UNIT()NAMED_UNIT(*));
#250=DERIVED_UNIT_ELEMENT(#249,3.E0);
#251=VOLUME_UNIT((#250));
#252=MEASURE_REPRESENTATION_ITEM('volume measure',VOLUME_MEASURE(3.864E-1),
#251);
#256=CARTESIAN_POINT('centre point',(-4.443471418378E0,-7.775E0,-1.711E1));
#261=LENGTH_MEASURE_WITH_UNIT(LENGTH_MEASURE(2.54E1),#260);
#262=(CONVERSION_BASED_UNIT('INCH',#261)LENGTH_UNIT()NAMED_UNIT(*));
#263=DERIVED_UNIT_ELEMENT(#262,2.E0);
#264=AREA_UNIT((#263));
#265=MEASURE_REPRESENTATION_ITEM('surface area measure',AREA_MEASURE(4.21E0),
#264);
#270=LENGTH_MEASURE_WITH_UNIT(LENGTH_MEASURE(2.54E1),#269);
#271=(CONVERSION_BASED_UNIT('INCH',#270)LENGTH_UNIT()NAMED_UNIT(*));
#272=DERIVED_UNIT_ELEMENT(#271,3.E0);
#273=VOLUME_UNIT((#272));
#274=MEASURE_REPRESENTATION_ITEM('volume measure',VOLUME_MEASURE(3.864E-1),
#273);
#278=CARTESIAN_POINT('centre point',(-4.443471418378E0,-7.775E0,-1.711E1));
#1=DRAUGHTING_PRE_DEFINED_COLOUR('green');
#2=COLOUR_RGB('',1.1E-2,1.2E-2,1.E0);
#3=COLOUR_RGB('',2.352941176471E-1,2.352941176471E-1,2.352941176471E-1);
#4=COLOUR_RGB('',4.1E-1,2.61589E-1,1.12848E-1);
#5=COLOUR_RGB('',5.04854E-1,1.5455E-2,1.5455E-2);
#6=COLOUR_RGB('',6.35294E-1,6.86275E-1,7.4902E-1);
#7=COLOUR_RGB('',6.40777E-1,6.40777E-1,6.40777E-1);
#8=COLOUR_RGB('',6.69062E-1,6.69903E-1,6.55217E-1);
#9=COLOUR_RGB('',7.921568627451E-1,8.196078431373E-1,9.333333333333E-1);
#10=COLOUR_RGB('',9.21569E-1,7.05882E-1,4.70588E-1);
#11=DRAUGHTING_PRE_DEFINED_COLOUR('red');
#12=DRAUGHTING_PRE_DEFINED_COLOUR('yellow');
#13=COLOUR_RGB('',1.E0,1.E0,5.3E-1);
#14=COLOUR_RGB('',1.E0,1.E0,9.49E-1);
#15=DRAUGHTING_PRE_DEFINED_COLOUR('white');
#123=EDGE_CURVE('',#117,#104,#20,.T.);
#125=EDGE_CURVE('',#112,#117,#28,.T.);
#127=EDGE_CURVE('',#105,#112,#35,.T.);
#129=EDGE_CURVE('',#104,#105,#42,.T.);
#133=ADVANCED_FACE('',(#132),#122,.F.);
#140=EDGE_CURVE('',#104,#108,#49,.T.);
#142=EDGE_CURVE('',#108,#115,#84,.T.);
#144=EDGE_CURVE('',#115,#117,#70,.T.);
#148=ADVANCED_FACE('',(#147),#138,.F.);
#156=EDGE_CURVE('',#109,#105,#56,.T.);
#158=EDGE_CURVE('',#108,#109,#63,.T.);
#162=ADVANCED_FACE('',(#161),#153,.F.);
#169=EDGE_CURVE('',#112,#113,#77,.T.);
#171=EDGE_CURVE('',#113,#109,#91,.T.);
#176=ADVANCED_FACE('',(#175),#167,.T.);
#183=EDGE_CURVE('',#115,#113,#98,.T.);
#189=ADVANCED_FACE('',(#188),#181,.F.);
#201=ADVANCED_FACE('',(#200),#194,.F.);
#202=CLOSED_SHELL('',(#133,#148,#162,#176,#189,#201));
#203=MANIFOLD_SOLID_BREP('',#202);
#211=(LENGTH_UNIT()NAMED_UNIT(*)SI_UNIT(.MILLI.,.METRE.));
#214=(NAMED_UNIT(*)PLANE_ANGLE_UNIT()SI_UNIT($,.RADIAN.));
#217=(NAMED_UNIT(*)SI_UNIT($,.STERADIAN.)SOLID_ANGLE_UNIT());
#219=(GEOMETRIC_REPRESENTATION_CONTEXT(3)GLOBAL_UNCERTAINTY_ASSIGNED_CONTEXT((
#218))GLOBAL_UNIT_ASSIGNED_CONTEXT((#213,#216,#217))REPRESENTATION_CONTEXT
('ID1','3'));
#223=AXIS2_PLACEMENT_3D('',#220,#221,#222);
#224=ADVANCED_BREP_SHAPE_REPRESENTATION('',(#223,#203),#219);
#232=PRODUCT_DEFINITION('design','',#231,#228);
#233=PRODUCT_DEFINITION_SHAPE('','SHAPE FOR DODANIE-WYCIGNICIE0104.',#232);
#234=SHAPE_ASPECT('','solid data associated with DODANIE-WYCIGNICIE0104',#233,
.F.);
#235=PROPERTY_DEFINITION('',
'shape for solid data with which properties are associated',#234);
#236=SHAPE_REPRESENTATION('',(#203),#219);
#237=SHAPE_DEFINITION_REPRESENTATION(#235,#236);
#238=(LENGTH_UNIT()NAMED_UNIT(*)SI_UNIT(.MILLI.,.METRE.));
#244=PROPERTY_DEFINITION('geometric validation property',
'area of DODANIE-WYCIGNICIE0104',#234);
#245=REPRESENTATION('surface area',(#243),#219);
#246=PROPERTY_DEFINITION_REPRESENTATION(#244,#245);
#247=(LENGTH_UNIT()NAMED_UNIT(*)SI_UNIT(.MILLI.,.METRE.));
#253=PROPERTY_DEFINITION('geometric validation property',
'volume of DODANIE-WYCIGNICIE0104',#234);
#254=REPRESENTATION('volume',(#252),#219);
#255=PROPERTY_DEFINITION_REPRESENTATION(#253,#254);
#257=PROPERTY_DEFINITION('geometric validation property',
'centroid of DODANIE-WYCIGNICIE0104',#234);
#258=REPRESENTATION('centroid',(#256),#219);
#259=PROPERTY_DEFINITION_REPRESENTATION(#257,#258);
#260=(LENGTH_UNIT()NAMED_UNIT(*)SI_UNIT(.MILLI.,.METRE.));
#266=PROPERTY_DEFINITION('geometric validation property',
'area of DODANIE-WYCIGNICIE0104',#233);
#267=REPRESENTATION('surface area',(#265),#219);
#268=PROPERTY_DEFINITION_REPRESENTATION(#266,#267);
#269=(LENGTH_UNIT()NAMED_UNIT(*)SI_UNIT(.MILLI.,.METRE.));
#275=PROPERTY_DEFINITION('geometric validation property',
'volume of DODANIE-WYCIGNICIE0104',#233);
#276=REPRESENTATION('volume',(#274),#219);
#277=PROPERTY_DEFINITION_REPRESENTATION(#275,#276);
#279=PROPERTY_DEFINITION('geometric validation property',
'centroid of DODANIE-WYCIGNICIE0104',#233);
#280=REPRESENTATION('centroid',(#278),#219);
#281=PROPERTY_DEFINITION_REPRESENTATION(#279,#280);
#282=SHAPE_DEFINITION_REPRESENTATION(#233,#224);
ENDSEC;
END-ISO-10303-21;
