ISO-10303-21;
HEADER;
FILE_DESCRIPTION((''),'2;1');
FILE_NAME('DODANIE-WYCIGNICIE0125','2026-06-15T13:46:49',('Esia'),(''),
'CREO PARAMETRIC BY PTC INC, 2025102','CREO PARAMETRIC BY PTC INC, 2025102','');
FILE_SCHEMA((
'AP242_MANAGED_MODEL_BASED_3D_ENGINEERING_MIM_LF { 1 0 10303 442 1 1 4 }'));
ENDSEC;
DATA;
#18=DIRECTION('',(0.E0,1.E0,0.E0));
#19=VECTOR('',#18,7.940612618015E-2);
#20=CARTESIAN_POINT('',(-9.708575297006E-1,-8.091595144267E-1,0.E0));
#21=LINE('',#20,#19);
#22=DRAUGHTING_PRE_DEFINED_CURVE_FONT('continuous');
#23=CURVE_STYLE('',#22,POSITIVE_LENGTH_MEASURE(2.E-2),#10);
#24=PRESENTATION_STYLE_ASSIGNMENT((#23));
#25=STYLED_ITEM('',(#24),#21);
#26=DIRECTION('',(0.E0,0.E0,-1.E0));
#27=VECTOR('',#26,1.574803149606E-2);
#28=CARTESIAN_POINT('',(-9.708575297006E-1,-8.091595144267E-1,
1.574803149606E-2));
#29=LINE('',#28,#27);
#30=CURVE_STYLE('',#22,POSITIVE_LENGTH_MEASURE(2.E-2),#10);
#31=PRESENTATION_STYLE_ASSIGNMENT((#30));
#32=STYLED_ITEM('',(#31),#29);
#33=DIRECTION('',(0.E0,-1.E0,0.E0));
#34=VECTOR('',#33,7.940612618015E-2);
#35=CARTESIAN_POINT('',(-9.708575297006E-1,-7.297533882466E-1,
1.574803149606E-2));
#36=LINE('',#35,#34);
#37=CURVE_STYLE('',#22,POSITIVE_LENGTH_MEASURE(2.E-2),#10);
#38=PRESENTATION_STYLE_ASSIGNMENT((#37));
#39=STYLED_ITEM('',(#38),#36);
#40=DIRECTION('',(0.E0,0.E0,1.E0));
#41=VECTOR('',#40,1.574803149606E-2);
#42=CARTESIAN_POINT('',(-9.708575297006E-1,-7.297533882466E-1,0.E0));
#43=LINE('',#42,#41);
#44=CURVE_STYLE('',#22,POSITIVE_LENGTH_MEASURE(2.E-2),#10);
#45=PRESENTATION_STYLE_ASSIGNMENT((#44));
#46=STYLED_ITEM('',(#45),#43);
#47=DIRECTION('',(-1.E0,0.E0,0.E0));
#48=VECTOR('',#47,4.367336939908E-2);
#49=CARTESIAN_POINT('',(-9.708575297006E-1,-7.297533882466E-1,0.E0));
#50=LINE('',#49,#48);
#51=CURVE_STYLE('',#22,POSITIVE_LENGTH_MEASURE(2.E-2),#10);
#52=PRESENTATION_STYLE_ASSIGNMENT((#51));
#53=STYLED_ITEM('',(#52),#50);
#54=DIRECTION('',(1.E0,0.E0,0.E0));
#55=VECTOR('',#54,4.367336939908E-2);
#56=CARTESIAN_POINT('',(-1.014530899100E0,-7.297533882466E-1,
1.574803149606E-2));
#57=LINE('',#56,#55);
#58=CURVE_STYLE('',#22,POSITIVE_LENGTH_MEASURE(2.E-2),#10);
#59=PRESENTATION_STYLE_ASSIGNMENT((#58));
#60=STYLED_ITEM('',(#59),#57);
#61=DIRECTION('',(0.E0,0.E0,1.E0));
#62=VECTOR('',#61,1.574803149606E-2);
#63=CARTESIAN_POINT('',(-1.014530899100E0,-7.297533882466E-1,0.E0));
#64=LINE('',#63,#62);
#65=CURVE_STYLE('',#22,POSITIVE_LENGTH_MEASURE(2.E-2),#10);
#66=PRESENTATION_STYLE_ASSIGNMENT((#65));
#67=STYLED_ITEM('',(#66),#64);
#68=DIRECTION('',(1.E0,0.E0,0.E0));
#69=VECTOR('',#68,4.367336939908E-2);
#70=CARTESIAN_POINT('',(-1.014530899100E0,-8.091595144267E-1,0.E0));
#71=LINE('',#70,#69);
#72=CURVE_STYLE('',#22,POSITIVE_LENGTH_MEASURE(2.E-2),#10);
#73=PRESENTATION_STYLE_ASSIGNMENT((#72));
#74=STYLED_ITEM('',(#73),#71);
#75=DIRECTION('',(-1.E0,0.E0,0.E0));
#76=VECTOR('',#75,4.367336939908E-2);
#77=CARTESIAN_POINT('',(-9.708575297006E-1,-8.091595144267E-1,
1.574803149606E-2));
#78=LINE('',#77,#76);
#79=CURVE_STYLE('',#22,POSITIVE_LENGTH_MEASURE(2.E-2),#10);
#80=PRESENTATION_STYLE_ASSIGNMENT((#79));
#81=STYLED_ITEM('',(#80),#78);
#82=DIRECTION('',(0.E0,-1.E0,0.E0));
#83=VECTOR('',#82,7.940612618015E-2);
#84=CARTESIAN_POINT('',(-1.014530899100E0,-7.297533882466E-1,0.E0));
#85=LINE('',#84,#83);
#86=CURVE_STYLE('',#22,POSITIVE_LENGTH_MEASURE(2.E-2),#10);
#87=PRESENTATION_STYLE_ASSIGNMENT((#86));
#88=STYLED_ITEM('',(#87),#85);
#89=DIRECTION('',(0.E0,1.E0,0.E0));
#90=VECTOR('',#89,7.940612618015E-2);
#91=CARTESIAN_POINT('',(-1.014530899100E0,-8.091595144267E-1,
1.574803149606E-2));
#92=LINE('',#91,#90);
#93=CURVE_STYLE('',#22,POSITIVE_LENGTH_MEASURE(2.E-2),#10);
#94=PRESENTATION_STYLE_ASSIGNMENT((#93));
#95=STYLED_ITEM('',(#94),#92);
#96=DIRECTION('',(0.E0,0.E0,1.E0));
#97=VECTOR('',#96,1.574803149606E-2);
#98=CARTESIAN_POINT('',(-1.014530899100E0,-8.091595144267E-1,0.E0));
#99=LINE('',#98,#97);
#100=CURVE_STYLE('',#22,POSITIVE_LENGTH_MEASURE(2.E-2),#10);
#101=PRESENTATION_STYLE_ASSIGNMENT((#100));
#102=STYLED_ITEM('',(#101),#99);
#103=CARTESIAN_POINT('',(-9.708575297006E-1,-8.091595144267E-1,0.E0));
#104=CARTESIAN_POINT('',(-9.708575297006E-1,-7.297533882466E-1,0.E0));
#105=VERTEX_POINT('',#103);
#106=VERTEX_POINT('',#104);
#107=CARTESIAN_POINT('',(-9.708575297006E-1,-7.297533882466E-1,
1.574803149606E-2));
#108=CARTESIAN_POINT('',(-9.708575297006E-1,-8.091595144267E-1,
1.574803149606E-2));
#109=VERTEX_POINT('',#107);
#110=VERTEX_POINT('',#108);
#111=CARTESIAN_POINT('',(-1.014530899100E0,-7.297533882466E-1,0.E0));
#112=VERTEX_POINT('',#111);
#113=CARTESIAN_POINT('',(-1.014530899100E0,-7.297533882466E-1,
1.574803149606E-2));
#114=VERTEX_POINT('',#113);
#115=CARTESIAN_POINT('',(-1.014530899100E0,-8.091595144267E-1,0.E0));
#116=VERTEX_POINT('',#115);
#117=CARTESIAN_POINT('',(-1.014530899100E0,-8.091595144267E-1,
1.574803149606E-2));
#118=VERTEX_POINT('',#117);
#119=CARTESIAN_POINT('',(-9.708575297006E-1,-8.091595144267E-1,
1.574803149606E-2));
#120=DIRECTION('',(-1.E0,0.E0,0.E0));
#121=DIRECTION('',(0.E0,0.E0,1.E0));
#122=AXIS2_PLACEMENT_3D('',#119,#120,#121);
#123=PLANE('',#122);
#125=ORIENTED_EDGE('',*,*,#124,.F.);
#127=ORIENTED_EDGE('',*,*,#126,.F.);
#129=ORIENTED_EDGE('',*,*,#128,.F.);
#131=ORIENTED_EDGE('',*,*,#130,.F.);
#132=EDGE_LOOP('',(#125,#127,#129,#131));
#133=FACE_OUTER_BOUND('',#132,.F.);
#135=FILL_AREA_STYLE_COLOUR('',#5);
#136=FILL_AREA_STYLE('',(#135));
#137=SURFACE_STYLE_FILL_AREA(#136);
#138=SURFACE_SIDE_STYLE('',(#137));
#139=SURFACE_STYLE_USAGE(.BOTH.,#138);
#140=PRESENTATION_STYLE_ASSIGNMENT((#139));
#141=OVER_RIDING_STYLED_ITEM('',(#140),#134,#17);
#142=CARTESIAN_POINT('',(0.E0,0.E0,0.E0));
#143=DIRECTION('',(0.E0,0.E0,1.E0));
#144=DIRECTION('',(1.E0,0.E0,0.E0));
#145=AXIS2_PLACEMENT_3D('',#142,#143,#144);
#146=PLANE('',#145);
#147=ORIENTED_EDGE('',*,*,#124,.T.);
#149=ORIENTED_EDGE('',*,*,#148,.T.);
#151=ORIENTED_EDGE('',*,*,#150,.T.);
#153=ORIENTED_EDGE('',*,*,#152,.T.);
#154=EDGE_LOOP('',(#147,#149,#151,#153));
#155=FACE_OUTER_BOUND('',#154,.F.);
#157=FILL_AREA_STYLE_COLOUR('',#5);
#158=FILL_AREA_STYLE('',(#157));
#159=SURFACE_STYLE_FILL_AREA(#158);
#160=SURFACE_SIDE_STYLE('',(#159));
#161=SURFACE_STYLE_USAGE(.BOTH.,#160);
#162=PRESENTATION_STYLE_ASSIGNMENT((#161));
#163=OVER_RIDING_STYLED_ITEM('',(#162),#156,#17);
#164=CARTESIAN_POINT('',(-9.708575297006E-1,-7.297533882466E-1,
1.574803149606E-2));
#165=DIRECTION('',(0.E0,-1.E0,0.E0));
#166=DIRECTION('',(0.E0,0.E0,-1.E0));
#167=AXIS2_PLACEMENT_3D('',#164,#165,#166);
#168=PLANE('',#167);
#169=ORIENTED_EDGE('',*,*,#148,.F.);
#170=ORIENTED_EDGE('',*,*,#130,.T.);
#172=ORIENTED_EDGE('',*,*,#171,.F.);
#174=ORIENTED_EDGE('',*,*,#173,.F.);
#175=EDGE_LOOP('',(#169,#170,#172,#174));
#176=FACE_OUTER_BOUND('',#175,.F.);
#178=FILL_AREA_STYLE_COLOUR('',#5);
#179=FILL_AREA_STYLE('',(#178));
#180=SURFACE_STYLE_FILL_AREA(#179);
#181=SURFACE_SIDE_STYLE('',(#180));
#182=SURFACE_STYLE_USAGE(.BOTH.,#181);
#183=PRESENTATION_STYLE_ASSIGNMENT((#182));
#184=OVER_RIDING_STYLED_ITEM('',(#183),#177,#17);
#185=CARTESIAN_POINT('',(0.E0,0.E0,1.574803149606E-2));
#186=DIRECTION('',(0.E0,0.E0,1.E0));
#187=DIRECTION('',(1.E0,0.E0,0.E0));
#188=AXIS2_PLACEMENT_3D('',#185,#186,#187);
#189=PLANE('',#188);
#190=ORIENTED_EDGE('',*,*,#128,.T.);
#192=ORIENTED_EDGE('',*,*,#191,.T.);
#194=ORIENTED_EDGE('',*,*,#193,.T.);
#195=ORIENTED_EDGE('',*,*,#171,.T.);
#196=EDGE_LOOP('',(#190,#192,#194,#195));
#197=FACE_OUTER_BOUND('',#196,.F.);
#199=FILL_AREA_STYLE_COLOUR('',#5);
#200=FILL_AREA_STYLE('',(#199));
#201=SURFACE_STYLE_FILL_AREA(#200);
#202=SURFACE_SIDE_STYLE('',(#201));
#203=SURFACE_STYLE_USAGE(.BOTH.,#202);
#204=PRESENTATION_STYLE_ASSIGNMENT((#203));
#205=OVER_RIDING_STYLED_ITEM('',(#204),#198,#17);
#206=CARTESIAN_POINT('',(-1.014530899100E0,-8.091595144267E-1,
1.574803149606E-2));
#207=DIRECTION('',(0.E0,1.E0,0.E0));
#208=DIRECTION('',(0.E0,0.E0,1.E0));
#209=AXIS2_PLACEMENT_3D('',#206,#207,#208);
#210=PLANE('',#209);
#211=ORIENTED_EDGE('',*,*,#152,.F.);
#213=ORIENTED_EDGE('',*,*,#212,.T.);
#214=ORIENTED_EDGE('',*,*,#191,.F.);
#215=ORIENTED_EDGE('',*,*,#126,.T.);
#216=EDGE_LOOP('',(#211,#213,#214,#215));
#217=FACE_OUTER_BOUND('',#216,.F.);
#219=FILL_AREA_STYLE_COLOUR('',#5);
#220=FILL_AREA_STYLE('',(#219));
#221=SURFACE_STYLE_FILL_AREA(#220);
#222=SURFACE_SIDE_STYLE('',(#221));
#223=SURFACE_STYLE_USAGE(.BOTH.,#222);
#224=PRESENTATION_STYLE_ASSIGNMENT((#223));
#225=OVER_RIDING_STYLED_ITEM('',(#224),#218,#17);
#226=CARTESIAN_POINT('',(-1.014530899100E0,-7.297533882466E-1,
1.574803149606E-2));
#227=DIRECTION('',(1.E0,0.E0,0.E0));
#228=DIRECTION('',(0.E0,0.E0,-1.E0));
#229=AXIS2_PLACEMENT_3D('',#226,#227,#228);
#230=PLANE('',#229);
#231=ORIENTED_EDGE('',*,*,#150,.F.);
#232=ORIENTED_EDGE('',*,*,#173,.T.);
#233=ORIENTED_EDGE('',*,*,#193,.F.);
#234=ORIENTED_EDGE('',*,*,#212,.F.);
#235=EDGE_LOOP('',(#231,#232,#233,#234));
#236=FACE_OUTER_BOUND('',#235,.F.);
#238=FILL_AREA_STYLE_COLOUR('',#5);
#239=FILL_AREA_STYLE('',(#238));
#240=SURFACE_STYLE_FILL_AREA(#239);
#241=SURFACE_SIDE_STYLE('',(#240));
#242=SURFACE_STYLE_USAGE(.BOTH.,#241);
#243=PRESENTATION_STYLE_ASSIGNMENT((#242));
#244=OVER_RIDING_STYLED_ITEM('',(#243),#237,#17);
#247=FILL_AREA_STYLE_COLOUR('',#10);
#248=FILL_AREA_STYLE('',(#247));
#249=SURFACE_STYLE_FILL_AREA(#248);
#250=SURFACE_SIDE_STYLE('',(#249));
#251=SURFACE_STYLE_USAGE(.BOTH.,#250);
#252=PRESENTATION_STYLE_ASSIGNMENT((#251));
#17=STYLED_ITEM('',(#252),#246);
#253=PRESENTATION_LAYER_ASSIGNMENT('SHELL_521','',(#17,#134,#156,#177,#198,#218,
#237));
#255=LENGTH_MEASURE_WITH_UNIT(LENGTH_MEASURE(2.54E1),#254);
#256=(CONVERSION_BASED_UNIT('INCH',#255)LENGTH_UNIT()NAMED_UNIT(*));
#258=PLANE_ANGLE_MEASURE_WITH_UNIT(PLANE_ANGLE_MEASURE(1.745329251994E-2),#257);
#259=(CONVERSION_BASED_UNIT('DEGREE',#258)NAMED_UNIT(*)PLANE_ANGLE_UNIT());
#261=UNCERTAINTY_MEASURE_WITH_UNIT(LENGTH_MEASURE(9.197836551831E-6),#256,
'closure',
'Maximum model space distance between geometric entities at asserted connectivities');
#263=CARTESIAN_POINT('',(0.E0,0.E0,0.E0));
#264=DIRECTION('',(0.E0,0.E0,1.E0));
#265=DIRECTION('',(1.E0,0.E0,0.E0));
#268=MECHANICAL_DESIGN_GEOMETRIC_PRESENTATION_REPRESENTATION('',(#25,#32,#39,
#46,#53,#60,#67,#74,#81,#88,#95,#102,#141,#163,#184,#205,#225,#244,#17),#262);
#269=APPLICATION_CONTEXT('automotive design');
#270=APPLICATION_PROTOCOL_DEFINITION('international standard',
'config_control_design',1994,#269);
#271=PRODUCT_DEFINITION_CONTEXT('',#269,'design');
#272=PRODUCT_CONTEXT('',#269,'mechanical');
#273=PRODUCT('DODANIE-WYCIGNICIE0125','DODANIE-WYCIGNICIE0125','NOT SPECIFIED',(
#272));
#274=PRODUCT_DEFINITION_FORMATION_WITH_SPECIFIED_SOURCE('1','LAST_VERSION',#273,
.MADE.);
#282=LENGTH_MEASURE_WITH_UNIT(LENGTH_MEASURE(2.54E1),#281);
#283=(CONVERSION_BASED_UNIT('INCH',#282)LENGTH_UNIT()NAMED_UNIT(*));
#284=DERIVED_UNIT_ELEMENT(#283,2.E0);
#285=AREA_UNIT((#284));
#286=MEASURE_REPRESENTATION_ITEM('surface area measure',AREA_MEASURE(
6.975718763524E0),#285);
#291=LENGTH_MEASURE_WITH_UNIT(LENGTH_MEASURE(2.54E1),#290);
#292=(CONVERSION_BASED_UNIT('INCH',#291)LENGTH_UNIT()NAMED_UNIT(*));
#293=DERIVED_UNIT_ELEMENT(#292,3.E0);
#294=VOLUME_UNIT((#293));
#295=MEASURE_REPRESENTATION_ITEM('volume measure',VOLUME_MEASURE(
8.949486826708E-1),#294);
#299=CARTESIAN_POINT('centre point',(-2.521443304576E1,-1.954419386395E1,
2.E-1));
#304=LENGTH_MEASURE_WITH_UNIT(LENGTH_MEASURE(2.54E1),#303);
#305=(CONVERSION_BASED_UNIT('INCH',#304)LENGTH_UNIT()NAMED_UNIT(*));
#306=DERIVED_UNIT_ELEMENT(#305,2.E0);
#307=AREA_UNIT((#306));
#308=MEASURE_REPRESENTATION_ITEM('surface area measure',AREA_MEASURE(
6.975718763524E0),#307);
#313=LENGTH_MEASURE_WITH_UNIT(LENGTH_MEASURE(2.54E1),#312);
#314=(CONVERSION_BASED_UNIT('INCH',#313)LENGTH_UNIT()NAMED_UNIT(*));
#315=DERIVED_UNIT_ELEMENT(#314,3.E0);
#316=VOLUME_UNIT((#315));
#317=MEASURE_REPRESENTATION_ITEM('volume measure',VOLUME_MEASURE(
8.949486826708E-1),#316);
#321=CARTESIAN_POINT('centre point',(-2.521443304576E1,-1.954419386395E1,
2.E-1));
#1=DRAUGHTING_PRE_DEFINED_COLOUR('green');
#2=COLOUR_RGB('',1.1E-2,1.2E-2,1.E0);
#3=COLOUR_RGB('',2.352941176471E-1,2.352941176471E-1,2.352941176471E-1);
#4=COLOUR_RGB('',4.1E-1,2.61589E-1,1.12848E-1);
#5=COLOUR_RGB('',4.980392156863E-1,4.980392156863E-1,4.980392156863E-1);
#6=COLOUR_RGB('',5.04854E-1,1.5455E-2,1.5455E-2);
#7=COLOUR_RGB('',6.35294E-1,6.86275E-1,7.4902E-1);
#8=COLOUR_RGB('',6.40777E-1,6.40777E-1,6.40777E-1);
#9=COLOUR_RGB('',6.69062E-1,6.69903E-1,6.55217E-1);
#10=COLOUR_RGB('',7.921568627451E-1,8.196078431373E-1,9.333333333333E-1);
#11=COLOUR_RGB('',9.21569E-1,7.05882E-1,4.70588E-1);
#12=DRAUGHTING_PRE_DEFINED_COLOUR('red');
#13=DRAUGHTING_PRE_DEFINED_COLOUR('yellow');
#14=COLOUR_RGB('',1.E0,1.E0,5.3E-1);
#15=COLOUR_RGB('',1.E0,1.E0,9.49E-1);
#16=DRAUGHTING_PRE_DEFINED_COLOUR('white');
#124=EDGE_CURVE('',#105,#106,#21,.T.);
#126=EDGE_CURVE('',#110,#105,#29,.T.);
#128=EDGE_CURVE('',#109,#110,#36,.T.);
#130=EDGE_CURVE('',#106,#109,#43,.T.);
#134=ADVANCED_FACE('',(#133),#123,.F.);
#148=EDGE_CURVE('',#106,#112,#50,.T.);
#150=EDGE_CURVE('',#112,#116,#85,.T.);
#152=EDGE_CURVE('',#116,#105,#71,.T.);
#156=ADVANCED_FACE('',(#155),#146,.F.);
#171=EDGE_CURVE('',#114,#109,#57,.T.);
#173=EDGE_CURVE('',#112,#114,#64,.T.);
#177=ADVANCED_FACE('',(#176),#168,.F.);
#191=EDGE_CURVE('',#110,#118,#78,.T.);
#193=EDGE_CURVE('',#118,#114,#92,.T.);
#198=ADVANCED_FACE('',(#197),#189,.T.);
#212=EDGE_CURVE('',#116,#118,#99,.T.);
#218=ADVANCED_FACE('',(#217),#210,.F.);
#237=ADVANCED_FACE('',(#236),#230,.F.);
#245=CLOSED_SHELL('',(#134,#156,#177,#198,#218,#237));
#246=MANIFOLD_SOLID_BREP('',#245);
#254=(LENGTH_UNIT()NAMED_UNIT(*)SI_UNIT(.MILLI.,.METRE.));
#257=(NAMED_UNIT(*)PLANE_ANGLE_UNIT()SI_UNIT($,.RADIAN.));
#260=(NAMED_UNIT(*)SI_UNIT($,.STERADIAN.)SOLID_ANGLE_UNIT());
#262=(GEOMETRIC_REPRESENTATION_CONTEXT(3)GLOBAL_UNCERTAINTY_ASSIGNED_CONTEXT((
#261))GLOBAL_UNIT_ASSIGNED_CONTEXT((#256,#259,#260))REPRESENTATION_CONTEXT
('ID1','3'));
#266=AXIS2_PLACEMENT_3D('',#263,#264,#265);
#267=ADVANCED_BREP_SHAPE_REPRESENTATION('',(#266,#246),#262);
#275=PRODUCT_DEFINITION('design','',#274,#271);
#276=PRODUCT_DEFINITION_SHAPE('','SHAPE FOR DODANIE-WYCIGNICIE0125.',#275);
#277=SHAPE_ASPECT('','solid data associated with DODANIE-WYCIGNICIE0125',#276,
.F.);
#278=PROPERTY_DEFINITION('',
'shape for solid data with which properties are associated',#277);
#279=SHAPE_REPRESENTATION('',(#246),#262);
#280=SHAPE_DEFINITION_REPRESENTATION(#278,#279);
#281=(LENGTH_UNIT()NAMED_UNIT(*)SI_UNIT(.MILLI.,.METRE.));
#287=PROPERTY_DEFINITION('geometric validation property',
'area of DODANIE-WYCIGNICIE0125',#277);
#288=REPRESENTATION('surface area',(#286),#262);
#289=PROPERTY_DEFINITION_REPRESENTATION(#287,#288);
#290=(LENGTH_UNIT()NAMED_UNIT(*)SI_UNIT(.MILLI.,.METRE.));
#296=PROPERTY_DEFINITION('geometric validation property',
'volume of DODANIE-WYCIGNICIE0125',#277);
#297=REPRESENTATION('volume',(#295),#262);
#298=PROPERTY_DEFINITION_REPRESENTATION(#296,#297);
#300=PROPERTY_DEFINITION('geometric validation property',
'centroid of DODANIE-WYCIGNICIE0125',#277);
#301=REPRESENTATION('centroid',(#299),#262);
#302=PROPERTY_DEFINITION_REPRESENTATION(#300,#301);
#303=(LENGTH_UNIT()NAMED_UNIT(*)SI_UNIT(.MILLI.,.METRE.));
#309=PROPERTY_DEFINITION('geometric validation property',
'area of DODANIE-WYCIGNICIE0125',#276);
#310=REPRESENTATION('surface area',(#308),#262);
#311=PROPERTY_DEFINITION_REPRESENTATION(#309,#310);
#312=(LENGTH_UNIT()NAMED_UNIT(*)SI_UNIT(.MILLI.,.METRE.));
#318=PROPERTY_DEFINITION('geometric validation property',
'volume of DODANIE-WYCIGNICIE0125',#276);
#319=REPRESENTATION('volume',(#317),#262);
#320=PROPERTY_DEFINITION_REPRESENTATION(#318,#319);
#322=PROPERTY_DEFINITION('geometric validation property',
'centroid of DODANIE-WYCIGNICIE0125',#276);
#323=REPRESENTATION('centroid',(#321),#262);
#324=PROPERTY_DEFINITION_REPRESENTATION(#322,#323);
#325=SHAPE_DEFINITION_REPRESENTATION(#276,#267);
ENDSEC;
END-ISO-10303-21;
