ISO-10303-21;
HEADER;
FILE_DESCRIPTION((''),'2;1');
FILE_NAME('DODANIE-WYCIGNICIE0090','2026-06-15T13:46:47',('Esia'),(''),
'CREO PARAMETRIC BY PTC INC, 2025102','CREO PARAMETRIC BY PTC INC, 2025102','');
FILE_SCHEMA((
'AP242_MANAGED_MODEL_BASED_3D_ENGINEERING_MIM_LF { 1 0 10303 442 1 1 4 }'));
ENDSEC;
DATA;
#18=DIRECTION('',(-1.E0,0.E0,0.E0));
#19=VECTOR('',#18,6.898845295226E-2);
#20=CARTESIAN_POINT('',(-1.059670192828E0,-2.183593493676E-1,
3.937007874016E-2));
#21=LINE('',#20,#19);
#22=DRAUGHTING_PRE_DEFINED_CURVE_FONT('continuous');
#23=CURVE_STYLE('',#22,POSITIVE_LENGTH_MEASURE(2.E-2),#9);
#24=PRESENTATION_STYLE_ASSIGNMENT((#23));
#25=STYLED_ITEM('',(#24),#21);
#26=DIRECTION('',(0.E0,0.E0,-1.E0));
#27=VECTOR('',#26,3.937007874016E-4);
#28=CARTESIAN_POINT('',(-1.059670192828E0,-2.183593493676E-1,
3.976377952756E-2));
#29=LINE('',#28,#27);
#30=CURVE_STYLE('',#22,POSITIVE_LENGTH_MEASURE(2.E-2),#9);
#31=PRESENTATION_STYLE_ASSIGNMENT((#30));
#32=STYLED_ITEM('',(#31),#29);
#33=DIRECTION('',(1.E0,0.E0,0.E0));
#34=VECTOR('',#33,6.898845295226E-2);
#35=CARTESIAN_POINT('',(-1.128658645780E0,-2.183593493676E-1,
3.976377952756E-2));
#36=LINE('',#35,#34);
#37=CURVE_STYLE('',#22,POSITIVE_LENGTH_MEASURE(2.E-2),#9);
#38=PRESENTATION_STYLE_ASSIGNMENT((#37));
#39=STYLED_ITEM('',(#38),#36);
#40=DIRECTION('',(0.E0,0.E0,1.E0));
#41=VECTOR('',#40,3.937007874016E-4);
#42=CARTESIAN_POINT('',(-1.128658645780E0,-2.183593493676E-1,
3.937007874016E-2));
#43=LINE('',#42,#41);
#44=CURVE_STYLE('',#22,POSITIVE_LENGTH_MEASURE(2.E-2),#9);
#45=PRESENTATION_STYLE_ASSIGNMENT((#44));
#46=STYLED_ITEM('',(#45),#43);
#47=CARTESIAN_POINT('',(-1.094164419304E0,-1.892647480950E-1,
3.937007874016E-2));
#48=DIRECTION('',(0.E0,0.E0,-1.E0));
#49=DIRECTION('',(7.154451074932E-1,-6.986689474737E-1,0.E0));
#50=AXIS2_PLACEMENT_3D('',#47,#48,#49);
#52=CURVE_STYLE('',#22,POSITIVE_LENGTH_MEASURE(2.E-2),#9);
#53=PRESENTATION_STYLE_ASSIGNMENT((#52));
#54=STYLED_ITEM('',(#53),#51);
#55=DIRECTION('',(0.E0,-1.E0,0.E0));
#56=VECTOR('',#55,4.590785144223E-3);
#57=CARTESIAN_POINT('',(-1.128658645780E0,-2.183593493676E-1,
3.937007874016E-2));
#58=LINE('',#57,#56);
#59=CURVE_STYLE('',#22,POSITIVE_LENGTH_MEASURE(2.E-2),#9);
#60=PRESENTATION_STYLE_ASSIGNMENT((#59));
#61=STYLED_ITEM('',(#60),#58);
#62=DIRECTION('',(0.E0,1.E0,0.E0));
#63=VECTOR('',#62,4.590785144223E-3);
#64=CARTESIAN_POINT('',(-1.128658645780E0,-2.229501345119E-1,
3.976377952756E-2));
#65=LINE('',#64,#63);
#66=CURVE_STYLE('',#22,POSITIVE_LENGTH_MEASURE(2.E-2),#9);
#67=PRESENTATION_STYLE_ASSIGNMENT((#66));
#68=STYLED_ITEM('',(#67),#65);
#69=CARTESIAN_POINT('',(-1.094164419304E0,-1.892647480950E-1,
3.976377952756E-2));
#70=DIRECTION('',(0.E0,0.E0,1.E0));
#71=DIRECTION('',(-7.154451074932E-1,-6.986689474737E-1,0.E0));
#72=AXIS2_PLACEMENT_3D('',#69,#70,#71);
#74=CURVE_STYLE('',#22,POSITIVE_LENGTH_MEASURE(2.E-2),#9);
#75=PRESENTATION_STYLE_ASSIGNMENT((#74));
#76=STYLED_ITEM('',(#75),#73);
#77=DIRECTION('',(0.E0,1.E0,0.E0));
#78=VECTOR('',#77,4.590785144223E-3);
#79=CARTESIAN_POINT('',(-1.059670192828E0,-2.229501345119E-1,
3.937007874016E-2));
#80=LINE('',#79,#78);
#81=CURVE_STYLE('',#22,POSITIVE_LENGTH_MEASURE(2.E-2),#9);
#82=PRESENTATION_STYLE_ASSIGNMENT((#81));
#83=STYLED_ITEM('',(#82),#80);
#84=DIRECTION('',(0.E0,-1.E0,0.E0));
#85=VECTOR('',#84,4.590785144223E-3);
#86=CARTESIAN_POINT('',(-1.059670192828E0,-2.183593493676E-1,
3.976377952756E-2));
#87=LINE('',#86,#85);
#88=CURVE_STYLE('',#22,POSITIVE_LENGTH_MEASURE(2.E-2),#9);
#89=PRESENTATION_STYLE_ASSIGNMENT((#88));
#90=STYLED_ITEM('',(#89),#87);
#91=DIRECTION('',(0.E0,0.E0,-1.E0));
#92=VECTOR('',#91,3.937007874016E-4);
#93=CARTESIAN_POINT('',(-1.128658645780E0,-2.229501345119E-1,
3.976377952756E-2));
#94=LINE('',#93,#92);
#95=CURVE_STYLE('',#22,POSITIVE_LENGTH_MEASURE(2.E-2),#9);
#96=PRESENTATION_STYLE_ASSIGNMENT((#95));
#97=STYLED_ITEM('',(#96),#94);
#98=DIRECTION('',(0.E0,0.E0,1.E0));
#99=VECTOR('',#98,3.937007874016E-4);
#100=CARTESIAN_POINT('',(-1.059670192828E0,-2.229501345119E-1,
3.937007874016E-2));
#101=LINE('',#100,#99);
#102=CURVE_STYLE('',#22,POSITIVE_LENGTH_MEASURE(2.E-2),#9);
#103=PRESENTATION_STYLE_ASSIGNMENT((#102));
#104=STYLED_ITEM('',(#103),#101);
#105=CARTESIAN_POINT('',(-1.059670192828E0,-2.183593493676E-1,
3.937007874016E-2));
#106=CARTESIAN_POINT('',(-1.128658645780E0,-2.183593493676E-1,
3.937007874016E-2));
#107=VERTEX_POINT('',#105);
#108=VERTEX_POINT('',#106);
#109=CARTESIAN_POINT('',(-1.128658645780E0,-2.183593493676E-1,
3.976377952756E-2));
#110=CARTESIAN_POINT('',(-1.059670192828E0,-2.183593493676E-1,
3.976377952756E-2));
#111=VERTEX_POINT('',#109);
#112=VERTEX_POINT('',#110);
#113=CARTESIAN_POINT('',(-1.128658645780E0,-2.229501345119E-1,
3.937007874016E-2));
#114=VERTEX_POINT('',#113);
#115=CARTESIAN_POINT('',(-1.128658645780E0,-2.229501345119E-1,
3.976377952756E-2));
#116=VERTEX_POINT('',#115);
#117=CARTESIAN_POINT('',(-1.059670192828E0,-2.229501345119E-1,
3.937007874016E-2));
#118=VERTEX_POINT('',#117);
#119=CARTESIAN_POINT('',(-1.059670192828E0,-2.229501345119E-1,
3.976377952756E-2));
#120=VERTEX_POINT('',#119);
#121=CARTESIAN_POINT('',(-1.059670192828E0,-2.183593493676E-1,
3.976377952756E-2));
#122=DIRECTION('',(0.E0,-1.E0,0.E0));
#123=DIRECTION('',(0.E0,0.E0,-1.E0));
#124=AXIS2_PLACEMENT_3D('',#121,#122,#123);
#125=PLANE('',#124);
#127=ORIENTED_EDGE('',*,*,#126,.F.);
#129=ORIENTED_EDGE('',*,*,#128,.F.);
#131=ORIENTED_EDGE('',*,*,#130,.F.);
#133=ORIENTED_EDGE('',*,*,#132,.F.);
#134=EDGE_LOOP('',(#127,#129,#131,#133));
#135=FACE_OUTER_BOUND('',#134,.F.);
#137=FILL_AREA_STYLE_COLOUR('',#10);
#138=FILL_AREA_STYLE('',(#137));
#139=SURFACE_STYLE_FILL_AREA(#138);
#140=SURFACE_SIDE_STYLE('',(#139));
#141=SURFACE_STYLE_USAGE(.BOTH.,#140);
#142=PRESENTATION_STYLE_ASSIGNMENT((#141));
#143=OVER_RIDING_STYLED_ITEM('',(#142),#136,#17);
#144=CARTESIAN_POINT('',(-1.094164419304E0,-1.892647480950E-1,
3.937007874016E-2));
#145=DIRECTION('',(0.E0,0.E0,-1.E0));
#146=DIRECTION('',(-1.E0,0.E0,0.E0));
#147=AXIS2_PLACEMENT_3D('',#144,#145,#146);
#148=PLANE('',#147);
#149=ORIENTED_EDGE('',*,*,#126,.T.);
#151=ORIENTED_EDGE('',*,*,#150,.T.);
#153=ORIENTED_EDGE('',*,*,#152,.F.);
#155=ORIENTED_EDGE('',*,*,#154,.T.);
#156=EDGE_LOOP('',(#149,#151,#153,#155));
#157=FACE_OUTER_BOUND('',#156,.F.);
#159=FILL_AREA_STYLE_COLOUR('',#10);
#160=FILL_AREA_STYLE('',(#159));
#161=SURFACE_STYLE_FILL_AREA(#160);
#162=SURFACE_SIDE_STYLE('',(#161));
#163=SURFACE_STYLE_USAGE(.BOTH.,#162);
#164=PRESENTATION_STYLE_ASSIGNMENT((#163));
#165=OVER_RIDING_STYLED_ITEM('',(#164),#158,#17);
#166=CARTESIAN_POINT('',(-1.128658645780E0,-2.183593493676E-1,
3.976377952756E-2));
#167=DIRECTION('',(1.E0,0.E0,0.E0));
#168=DIRECTION('',(0.E0,0.E0,-1.E0));
#169=AXIS2_PLACEMENT_3D('',#166,#167,#168);
#170=PLANE('',#169);
#171=ORIENTED_EDGE('',*,*,#150,.F.);
#172=ORIENTED_EDGE('',*,*,#132,.T.);
#174=ORIENTED_EDGE('',*,*,#173,.F.);
#176=ORIENTED_EDGE('',*,*,#175,.T.);
#177=EDGE_LOOP('',(#171,#172,#174,#176));
#178=FACE_OUTER_BOUND('',#177,.F.);
#180=FILL_AREA_STYLE_COLOUR('',#10);
#181=FILL_AREA_STYLE('',(#180));
#182=SURFACE_STYLE_FILL_AREA(#181);
#183=SURFACE_SIDE_STYLE('',(#182));
#184=SURFACE_STYLE_USAGE(.BOTH.,#183);
#185=PRESENTATION_STYLE_ASSIGNMENT((#184));
#186=OVER_RIDING_STYLED_ITEM('',(#185),#179,#17);
#187=CARTESIAN_POINT('',(-1.094164419304E0,-1.892647480950E-1,
3.976377952756E-2));
#188=DIRECTION('',(0.E0,0.E0,-1.E0));
#189=DIRECTION('',(-1.E0,0.E0,0.E0));
#190=AXIS2_PLACEMENT_3D('',#187,#188,#189);
#191=PLANE('',#190);
#192=ORIENTED_EDGE('',*,*,#130,.T.);
#194=ORIENTED_EDGE('',*,*,#193,.T.);
#196=ORIENTED_EDGE('',*,*,#195,.F.);
#197=ORIENTED_EDGE('',*,*,#173,.T.);
#198=EDGE_LOOP('',(#192,#194,#196,#197));
#199=FACE_OUTER_BOUND('',#198,.F.);
#201=FILL_AREA_STYLE_COLOUR('',#10);
#202=FILL_AREA_STYLE('',(#201));
#203=SURFACE_STYLE_FILL_AREA(#202);
#204=SURFACE_SIDE_STYLE('',(#203));
#205=SURFACE_STYLE_USAGE(.BOTH.,#204);
#206=PRESENTATION_STYLE_ASSIGNMENT((#205));
#207=OVER_RIDING_STYLED_ITEM('',(#206),#200,#17);
#208=CARTESIAN_POINT('',(-1.059670192828E0,-2.229501345119E-1,
3.976377952756E-2));
#209=DIRECTION('',(-1.E0,0.E0,0.E0));
#210=DIRECTION('',(0.E0,0.E0,1.E0));
#211=AXIS2_PLACEMENT_3D('',#208,#209,#210);
#212=PLANE('',#211);
#213=ORIENTED_EDGE('',*,*,#154,.F.);
#215=ORIENTED_EDGE('',*,*,#214,.T.);
#216=ORIENTED_EDGE('',*,*,#193,.F.);
#217=ORIENTED_EDGE('',*,*,#128,.T.);
#218=EDGE_LOOP('',(#213,#215,#216,#217));
#219=FACE_OUTER_BOUND('',#218,.F.);
#221=FILL_AREA_STYLE_COLOUR('',#10);
#222=FILL_AREA_STYLE('',(#221));
#223=SURFACE_STYLE_FILL_AREA(#222);
#224=SURFACE_SIDE_STYLE('',(#223));
#225=SURFACE_STYLE_USAGE(.BOTH.,#224);
#226=PRESENTATION_STYLE_ASSIGNMENT((#225));
#227=OVER_RIDING_STYLED_ITEM('',(#226),#220,#17);
#228=CARTESIAN_POINT('',(-1.094164419304E0,-1.892647480950E-1,
3.976377952756E-2));
#229=DIRECTION('',(0.E0,0.E0,-1.E0));
#230=DIRECTION('',(-1.E0,0.E0,0.E0));
#231=AXIS2_PLACEMENT_3D('',#228,#229,#230);
#232=CYLINDRICAL_SURFACE('',#231,4.821365904226E-2);
#233=ORIENTED_EDGE('',*,*,#152,.T.);
#234=ORIENTED_EDGE('',*,*,#175,.F.);
#235=ORIENTED_EDGE('',*,*,#195,.T.);
#236=ORIENTED_EDGE('',*,*,#214,.F.);
#237=EDGE_LOOP('',(#233,#234,#235,#236));
#238=FACE_OUTER_BOUND('',#237,.F.);
#240=FILL_AREA_STYLE_COLOUR('',#10);
#241=FILL_AREA_STYLE('',(#240));
#242=SURFACE_STYLE_FILL_AREA(#241);
#243=SURFACE_SIDE_STYLE('',(#242));
#244=SURFACE_STYLE_USAGE(.BOTH.,#243);
#245=PRESENTATION_STYLE_ASSIGNMENT((#244));
#246=OVER_RIDING_STYLED_ITEM('',(#245),#239,#17);
#249=FILL_AREA_STYLE_COLOUR('',#9);
#250=FILL_AREA_STYLE('',(#249));
#251=SURFACE_STYLE_FILL_AREA(#250);
#252=SURFACE_SIDE_STYLE('',(#251));
#253=SURFACE_STYLE_USAGE(.BOTH.,#252);
#254=PRESENTATION_STYLE_ASSIGNMENT((#253));
#17=STYLED_ITEM('',(#254),#248);
#255=PRESENTATION_LAYER_ASSIGNMENT('SHELL_498','',(#17,#136,#158,#179,#200,#220,
#239));
#257=LENGTH_MEASURE_WITH_UNIT(LENGTH_MEASURE(2.54E1),#256);
#258=(CONVERSION_BASED_UNIT('INCH',#257)LENGTH_UNIT()NAMED_UNIT(*));
#260=PLANE_ANGLE_MEASURE_WITH_UNIT(PLANE_ANGLE_MEASURE(1.745329251994E-2),#259);
#261=(CONVERSION_BASED_UNIT('DEGREE',#260)NAMED_UNIT(*)PLANE_ANGLE_UNIT());
#263=UNCERTAINTY_MEASURE_WITH_UNIT(LENGTH_MEASURE(7.159225282807E-6),#258,
'closure',
'Maximum model space distance between geometric entities at asserted connectivities');
#265=CARTESIAN_POINT('',(0.E0,0.E0,0.E0));
#266=DIRECTION('',(0.E0,0.E0,1.E0));
#267=DIRECTION('',(1.E0,0.E0,0.E0));
#270=MECHANICAL_DESIGN_GEOMETRIC_PRESENTATION_REPRESENTATION('',(#25,#32,#39,
#46,#54,#61,#68,#76,#83,#90,#97,#104,#143,#165,#186,#207,#227,#246,#17),#264);
#271=APPLICATION_CONTEXT('automotive design');
#272=APPLICATION_PROTOCOL_DEFINITION('international standard',
'config_control_design',1994,#271);
#273=PRODUCT_DEFINITION_CONTEXT('',#271,'design');
#274=PRODUCT_CONTEXT('',#271,'mechanical');
#275=PRODUCT('DODANIE-WYCIGNICIE0090','DODANIE-WYCIGNICIE0090','NOT SPECIFIED',(
#274));
#276=PRODUCT_DEFINITION_FORMATION_WITH_SPECIFIED_SOURCE('1','LAST_VERSION',#275,
.MADE.);
#284=LENGTH_MEASURE_WITH_UNIT(LENGTH_MEASURE(2.54E1),#283);
#285=(CONVERSION_BASED_UNIT('INCH',#284)LENGTH_UNIT()NAMED_UNIT(*));
#286=DERIVED_UNIT_ELEMENT(#285,2.E0);
#287=AREA_UNIT((#286));
#288=MEASURE_REPRESENTATION_ITEM('surface area measure',AREA_MEASURE(
1.340074161459E0),#287);
#293=LENGTH_MEASURE_WITH_UNIT(LENGTH_MEASURE(2.54E1),#292);
#294=(CONVERSION_BASED_UNIT('INCH',#293)LENGTH_UNIT()NAMED_UNIT(*));
#295=DERIVED_UNIT_ELEMENT(#294,3.E0);
#296=VOLUME_UNIT((#295));
#297=MEASURE_REPRESENTATION_ITEM('volume measure',VOLUME_MEASURE(
6.503460150182E-3),#296);
#301=CARTESIAN_POINT('centre point',(-2.779177625032E1,-5.747279601001E0,
1.005E0));
#306=LENGTH_MEASURE_WITH_UNIT(LENGTH_MEASURE(2.54E1),#305);
#307=(CONVERSION_BASED_UNIT('INCH',#306)LENGTH_UNIT()NAMED_UNIT(*));
#308=DERIVED_UNIT_ELEMENT(#307,2.E0);
#309=AREA_UNIT((#308));
#310=MEASURE_REPRESENTATION_ITEM('surface area measure',AREA_MEASURE(
1.340074161459E0),#309);
#315=LENGTH_MEASURE_WITH_UNIT(LENGTH_MEASURE(2.54E1),#314);
#316=(CONVERSION_BASED_UNIT('INCH',#315)LENGTH_UNIT()NAMED_UNIT(*));
#317=DERIVED_UNIT_ELEMENT(#316,3.E0);
#318=VOLUME_UNIT((#317));
#319=MEASURE_REPRESENTATION_ITEM('volume measure',VOLUME_MEASURE(
6.503460150182E-3),#318);
#323=CARTESIAN_POINT('centre point',(-2.779177625032E1,-5.747279601001E0,
1.005E0));
#1=DRAUGHTING_PRE_DEFINED_COLOUR('green');
#2=COLOUR_RGB('',1.1E-2,1.2E-2,1.E0);
#3=COLOUR_RGB('',2.352941176471E-1,2.352941176471E-1,2.352941176471E-1);
#4=COLOUR_RGB('',4.1E-1,2.61589E-1,1.12848E-1);
#5=COLOUR_RGB('',5.04854E-1,1.5455E-2,1.5455E-2);
#6=COLOUR_RGB('',6.35294E-1,6.86275E-1,7.4902E-1);
#7=COLOUR_RGB('',6.40777E-1,6.40777E-1,6.40777E-1);
#8=COLOUR_RGB('',6.69062E-1,6.69903E-1,6.55217E-1);
#9=COLOUR_RGB('',7.921568627451E-1,8.196078431373E-1,9.333333333333E-1);
#10=COLOUR_RGB('',8.980392156863E-1,9.176470588235E-1,9.294117647059E-1);
#11=COLOUR_RGB('',9.21569E-1,7.05882E-1,4.70588E-1);
#12=DRAUGHTING_PRE_DEFINED_COLOUR('red');
#13=DRAUGHTING_PRE_DEFINED_COLOUR('yellow');
#14=COLOUR_RGB('',1.E0,1.E0,5.3E-1);
#15=COLOUR_RGB('',1.E0,1.E0,9.49E-1);
#16=DRAUGHTING_PRE_DEFINED_COLOUR('white');
#51=CIRCLE('',#50,4.821365904226E-2);
#73=CIRCLE('',#72,4.821365904226E-2);
#126=EDGE_CURVE('',#107,#108,#21,.T.);
#128=EDGE_CURVE('',#112,#107,#29,.T.);
#130=EDGE_CURVE('',#111,#112,#36,.T.);
#132=EDGE_CURVE('',#108,#111,#43,.T.);
#136=ADVANCED_FACE('',(#135),#125,.F.);
#150=EDGE_CURVE('',#108,#114,#58,.T.);
#152=EDGE_CURVE('',#118,#114,#51,.T.);
#154=EDGE_CURVE('',#118,#107,#80,.T.);
#158=ADVANCED_FACE('',(#157),#148,.T.);
#173=EDGE_CURVE('',#116,#111,#65,.T.);
#175=EDGE_CURVE('',#116,#114,#94,.T.);
#179=ADVANCED_FACE('',(#178),#170,.F.);
#193=EDGE_CURVE('',#112,#120,#87,.T.);
#195=EDGE_CURVE('',#116,#120,#73,.T.);
#200=ADVANCED_FACE('',(#199),#191,.F.);
#214=EDGE_CURVE('',#118,#120,#101,.T.);
#220=ADVANCED_FACE('',(#219),#212,.F.);
#239=ADVANCED_FACE('',(#238),#232,.T.);
#247=CLOSED_SHELL('',(#136,#158,#179,#200,#220,#239));
#248=MANIFOLD_SOLID_BREP('',#247);
#256=(LENGTH_UNIT()NAMED_UNIT(*)SI_UNIT(.MILLI.,.METRE.));
#259=(NAMED_UNIT(*)PLANE_ANGLE_UNIT()SI_UNIT($,.RADIAN.));
#262=(NAMED_UNIT(*)SI_UNIT($,.STERADIAN.)SOLID_ANGLE_UNIT());
#264=(GEOMETRIC_REPRESENTATION_CONTEXT(3)GLOBAL_UNCERTAINTY_ASSIGNED_CONTEXT((
#263))GLOBAL_UNIT_ASSIGNED_CONTEXT((#258,#261,#262))REPRESENTATION_CONTEXT
('ID1','3'));
#268=AXIS2_PLACEMENT_3D('',#265,#266,#267);
#269=ADVANCED_BREP_SHAPE_REPRESENTATION('',(#268,#248),#264);
#277=PRODUCT_DEFINITION('design','',#276,#273);
#278=PRODUCT_DEFINITION_SHAPE('','SHAPE FOR DODANIE-WYCIGNICIE0090.',#277);
#279=SHAPE_ASPECT('','solid data associated with DODANIE-WYCIGNICIE0090',#278,
.F.);
#280=PROPERTY_DEFINITION('',
'shape for solid data with which properties are associated',#279);
#281=SHAPE_REPRESENTATION('',(#248),#264);
#282=SHAPE_DEFINITION_REPRESENTATION(#280,#281);
#283=(LENGTH_UNIT()NAMED_UNIT(*)SI_UNIT(.MILLI.,.METRE.));
#289=PROPERTY_DEFINITION('geometric validation property',
'area of DODANIE-WYCIGNICIE0090',#279);
#290=REPRESENTATION('surface area',(#288),#264);
#291=PROPERTY_DEFINITION_REPRESENTATION(#289,#290);
#292=(LENGTH_UNIT()NAMED_UNIT(*)SI_UNIT(.MILLI.,.METRE.));
#298=PROPERTY_DEFINITION('geometric validation property',
'volume of DODANIE-WYCIGNICIE0090',#279);
#299=REPRESENTATION('volume',(#297),#264);
#300=PROPERTY_DEFINITION_REPRESENTATION(#298,#299);
#302=PROPERTY_DEFINITION('geometric validation property',
'centroid of DODANIE-WYCIGNICIE0090',#279);
#303=REPRESENTATION('centroid',(#301),#264);
#304=PROPERTY_DEFINITION_REPRESENTATION(#302,#303);
#305=(LENGTH_UNIT()NAMED_UNIT(*)SI_UNIT(.MILLI.,.METRE.));
#311=PROPERTY_DEFINITION('geometric validation property',
'area of DODANIE-WYCIGNICIE0090',#278);
#312=REPRESENTATION('surface area',(#310),#264);
#313=PROPERTY_DEFINITION_REPRESENTATION(#311,#312);
#314=(LENGTH_UNIT()NAMED_UNIT(*)SI_UNIT(.MILLI.,.METRE.));
#320=PROPERTY_DEFINITION('geometric validation property',
'volume of DODANIE-WYCIGNICIE0090',#278);
#321=REPRESENTATION('volume',(#319),#264);
#322=PROPERTY_DEFINITION_REPRESENTATION(#320,#321);
#324=PROPERTY_DEFINITION('geometric validation property',
'centroid of DODANIE-WYCIGNICIE0090',#278);
#325=REPRESENTATION('centroid',(#323),#264);
#326=PROPERTY_DEFINITION_REPRESENTATION(#324,#325);
#327=SHAPE_DEFINITION_REPRESENTATION(#278,#269);
ENDSEC;
END-ISO-10303-21;
