ISO-10303-21;
HEADER;
FILE_DESCRIPTION((''),'2;1');
FILE_NAME('FC__1__1','2026-06-15T13:46:54',('Esia'),(''),
'CREO PARAMETRIC BY PTC INC, 2025102','CREO PARAMETRIC BY PTC INC, 2025102','');
FILE_SCHEMA((
'AP242_MANAGED_MODEL_BASED_3D_ENGINEERING_MIM_LF { 1 0 10303 442 1 1 4 }'));
ENDSEC;
DATA;
#16=CARTESIAN_POINT('',(9.842519685039E-2,3.917322834646E-1,0.E0));
#17=DIRECTION('',(0.E0,-1.E0,0.E0));
#18=DIRECTION('',(0.E0,0.E0,1.E0));
#19=AXIS2_PLACEMENT_3D('',#16,#17,#18);
#21=DRAUGHTING_PRE_DEFINED_CURVE_FONT('continuous');
#22=CURVE_STYLE('',#21,POSITIVE_LENGTH_MEASURE(2.E-2),#9);
#23=PRESENTATION_STYLE_ASSIGNMENT((#22));
#24=STYLED_ITEM('',(#23),#20);
#25=CARTESIAN_POINT('',(9.842519685039E-2,3.917322834646E-1,0.E0));
#26=DIRECTION('',(0.E0,-1.E0,0.E0));
#27=DIRECTION('',(-1.E0,0.E0,0.E0));
#28=AXIS2_PLACEMENT_3D('',#25,#26,#27);
#30=CURVE_STYLE('',#21,POSITIVE_LENGTH_MEASURE(2.E-2),#9);
#31=PRESENTATION_STYLE_ASSIGNMENT((#30));
#32=STYLED_ITEM('',(#31),#29);
#33=DIRECTION('',(0.E0,1.E0,0.E0));
#34=VECTOR('',#33,1.141732283465E-1);
#35=CARTESIAN_POINT('',(1.299212598425E-1,2.775590551181E-1,0.E0));
#36=LINE('',#35,#34);
#37=CURVE_STYLE('',#21,POSITIVE_LENGTH_MEASURE(2.E-2),#9);
#38=PRESENTATION_STYLE_ASSIGNMENT((#37));
#39=STYLED_ITEM('',(#38),#36);
#40=DIRECTION('',(0.E0,1.E0,0.E0));
#41=VECTOR('',#40,1.141732283465E-1);
#42=CARTESIAN_POINT('',(6.692913385827E-2,2.775590551181E-1,0.E0));
#43=LINE('',#42,#41);
#44=CURVE_STYLE('',#21,POSITIVE_LENGTH_MEASURE(2.E-2),#9);
#45=PRESENTATION_STYLE_ASSIGNMENT((#44));
#46=STYLED_ITEM('',(#45),#43);
#47=CARTESIAN_POINT('',(9.842519685039E-2,2.775590551181E-1,0.E0));
#48=DIRECTION('',(0.E0,1.E0,0.E0));
#49=DIRECTION('',(-1.E0,0.E0,0.E0));
#50=AXIS2_PLACEMENT_3D('',#47,#48,#49);
#52=CURVE_STYLE('',#21,POSITIVE_LENGTH_MEASURE(2.E-2),#9);
#53=PRESENTATION_STYLE_ASSIGNMENT((#52));
#54=STYLED_ITEM('',(#53),#51);
#55=CARTESIAN_POINT('',(9.842519685039E-2,2.775590551181E-1,0.E0));
#56=DIRECTION('',(0.E0,1.E0,0.E0));
#57=DIRECTION('',(1.E0,0.E0,0.E0));
#58=AXIS2_PLACEMENT_3D('',#55,#56,#57);
#60=CURVE_STYLE('',#21,POSITIVE_LENGTH_MEASURE(2.E-2),#9);
#61=PRESENTATION_STYLE_ASSIGNMENT((#60));
#62=STYLED_ITEM('',(#61),#59);
#63=CARTESIAN_POINT('',(9.842519685039E-2,2.775590551181E-1,0.E0));
#64=DIRECTION('',(0.E0,-1.E0,0.E0));
#65=DIRECTION('',(-1.E0,0.E0,0.E0));
#66=AXIS2_PLACEMENT_3D('',#63,#64,#65);
#68=CURVE_STYLE('',#21,POSITIVE_LENGTH_MEASURE(2.E-2),#9);
#69=PRESENTATION_STYLE_ASSIGNMENT((#68));
#70=STYLED_ITEM('',(#69),#67);
#71=CARTESIAN_POINT('',(9.842519685039E-2,2.775590551181E-1,0.E0));
#72=DIRECTION('',(0.E0,-1.E0,0.E0));
#73=DIRECTION('',(1.E0,0.E0,0.E0));
#74=AXIS2_PLACEMENT_3D('',#71,#72,#73);
#76=CURVE_STYLE('',#21,POSITIVE_LENGTH_MEASURE(2.E-2),#9);
#77=PRESENTATION_STYLE_ASSIGNMENT((#76));
#78=STYLED_ITEM('',(#77),#75);
#79=DIRECTION('',(0.E0,1.E0,0.E0));
#80=VECTOR('',#79,3.484251968504E-1);
#81=CARTESIAN_POINT('',(1.476377952756E-1,-7.086614173228E-2,0.E0));
#82=LINE('',#81,#80);
#83=CURVE_STYLE('',#21,POSITIVE_LENGTH_MEASURE(2.E-2),#9);
#84=PRESENTATION_STYLE_ASSIGNMENT((#83));
#85=STYLED_ITEM('',(#84),#82);
#86=DIRECTION('',(0.E0,1.E0,0.E0));
#87=VECTOR('',#86,3.484251968504E-1);
#88=CARTESIAN_POINT('',(4.921259842520E-2,-7.086614173228E-2,0.E0));
#89=LINE('',#88,#87);
#90=CURVE_STYLE('',#21,POSITIVE_LENGTH_MEASURE(2.E-2),#9);
#91=PRESENTATION_STYLE_ASSIGNMENT((#90));
#92=STYLED_ITEM('',(#91),#89);
#93=CARTESIAN_POINT('',(9.842519685039E-2,-7.086614173228E-2,0.E0));
#94=DIRECTION('',(0.E0,-1.E0,0.E0));
#95=DIRECTION('',(-1.E0,0.E0,0.E0));
#96=AXIS2_PLACEMENT_3D('',#93,#94,#95);
#98=CURVE_STYLE('',#21,POSITIVE_LENGTH_MEASURE(2.E-2),#9);
#99=PRESENTATION_STYLE_ASSIGNMENT((#98));
#100=STYLED_ITEM('',(#99),#97);
#101=CARTESIAN_POINT('',(9.842519685039E-2,-7.086614173228E-2,0.E0));
#102=DIRECTION('',(0.E0,-1.E0,0.E0));
#103=DIRECTION('',(1.E0,0.E0,0.E0));
#104=AXIS2_PLACEMENT_3D('',#101,#102,#103);
#106=CURVE_STYLE('',#21,POSITIVE_LENGTH_MEASURE(2.E-2),#9);
#107=PRESENTATION_STYLE_ASSIGNMENT((#106));
#108=STYLED_ITEM('',(#107),#105);
#109=CARTESIAN_POINT('',(9.842519685039E-2,-7.086614173228E-2,0.E0));
#110=DIRECTION('',(0.E0,1.E0,0.E0));
#111=DIRECTION('',(1.E0,0.E0,0.E0));
#112=AXIS2_PLACEMENT_3D('',#109,#110,#111);
#114=CURVE_STYLE('',#21,POSITIVE_LENGTH_MEASURE(2.E-2),#9);
#115=PRESENTATION_STYLE_ASSIGNMENT((#114));
#116=STYLED_ITEM('',(#115),#113);
#117=CARTESIAN_POINT('',(9.842519685039E-2,-7.086614173228E-2,0.E0));
#118=DIRECTION('',(0.E0,1.E0,0.E0));
#119=DIRECTION('',(-1.E0,0.E0,0.E0));
#120=AXIS2_PLACEMENT_3D('',#117,#118,#119);
#122=CURVE_STYLE('',#21,POSITIVE_LENGTH_MEASURE(2.E-2),#9);
#123=PRESENTATION_STYLE_ASSIGNMENT((#122));
#124=STYLED_ITEM('',(#123),#121);
#125=DIRECTION('',(0.E0,1.E0,0.E0));
#126=VECTOR('',#125,2.263779527559E-1);
#127=CARTESIAN_POINT('',(5.905511811024E-2,-7.086614173228E-2,0.E0));
#128=LINE('',#127,#126);
#129=CURVE_STYLE('',#21,POSITIVE_LENGTH_MEASURE(2.E-2),#9);
#130=PRESENTATION_STYLE_ASSIGNMENT((#129));
#131=STYLED_ITEM('',(#130),#128);
#132=DIRECTION('',(0.E0,-1.E0,0.E0));
#133=VECTOR('',#132,2.263779527559E-1);
#134=CARTESIAN_POINT('',(1.377952755906E-1,1.555118110236E-1,0.E0));
#135=LINE('',#134,#133);
#136=CURVE_STYLE('',#21,POSITIVE_LENGTH_MEASURE(2.E-2),#9);
#137=PRESENTATION_STYLE_ASSIGNMENT((#136));
#138=STYLED_ITEM('',(#137),#135);
#139=CARTESIAN_POINT('',(9.842519685039E-2,1.555118110236E-1,0.E0));
#140=DIRECTION('',(0.E0,1.E0,0.E0));
#141=DIRECTION('',(-1.E0,0.E0,0.E0));
#142=AXIS2_PLACEMENT_3D('',#139,#140,#141);
#144=CURVE_STYLE('',#21,POSITIVE_LENGTH_MEASURE(2.E-2),#9);
#145=PRESENTATION_STYLE_ASSIGNMENT((#144));
#146=STYLED_ITEM('',(#145),#143);
#147=DIRECTION('',(8.660254037844E-1,-5.E-1,0.E0));
#148=VECTOR('',#147,4.546065111729E-2);
#149=CARTESIAN_POINT('',(9.842519685039E-2,1.782421365823E-1,0.E0));
#150=LINE('',#149,#148);
#151=CURVE_STYLE('',#21,POSITIVE_LENGTH_MEASURE(2.E-2),#9);
#152=PRESENTATION_STYLE_ASSIGNMENT((#151));
#153=STYLED_ITEM('',(#152),#150);
#154=DIRECTION('',(-8.660254037844E-1,-5.E-1,0.E0));
#155=VECTOR('',#154,4.546065111729E-2);
#156=CARTESIAN_POINT('',(9.842519685039E-2,1.782421365823E-1,0.E0));
#157=LINE('',#156,#155);
#158=CURVE_STYLE('',#21,POSITIVE_LENGTH_MEASURE(2.E-2),#9);
#159=PRESENTATION_STYLE_ASSIGNMENT((#158));
#160=STYLED_ITEM('',(#159),#157);
#161=CARTESIAN_POINT('',(9.842519685039E-2,1.555118110236E-1,0.E0));
#162=DIRECTION('',(0.E0,1.E0,0.E0));
#163=DIRECTION('',(1.E0,0.E0,0.E0));
#164=AXIS2_PLACEMENT_3D('',#161,#162,#163);
#166=CURVE_STYLE('',#21,POSITIVE_LENGTH_MEASURE(2.E-2),#9);
#167=PRESENTATION_STYLE_ASSIGNMENT((#166));
#168=STYLED_ITEM('',(#167),#165);
#169=CARTESIAN_POINT('',(9.842519685039E-2,3.917322834646E-1,
-2.755905511811E-2));
#170=DIRECTION('',(1.E0,0.E0,0.E0));
#171=DIRECTION('',(0.E0,0.E0,-1.E0));
#172=AXIS2_PLACEMENT_3D('',#169,#170,#171);
#174=CURVE_STYLE('',#21,POSITIVE_LENGTH_MEASURE(2.E-2),#9);
#175=PRESENTATION_STYLE_ASSIGNMENT((#174));
#176=STYLED_ITEM('',(#175),#173);
#177=CARTESIAN_POINT('',(9.842519685039E-2,3.917322834646E-1,0.E0));
#178=DIRECTION('',(0.E0,-1.E0,0.E0));
#179=DIRECTION('',(0.E0,0.E0,-1.E0));
#180=AXIS2_PLACEMENT_3D('',#177,#178,#179);
#182=CURVE_STYLE('',#21,POSITIVE_LENGTH_MEASURE(2.E-2),#9);
#183=PRESENTATION_STYLE_ASSIGNMENT((#182));
#184=STYLED_ITEM('',(#183),#181);
#185=CARTESIAN_POINT('',(9.842519685039E-2,3.917322834646E-1,0.E0));
#186=DIRECTION('',(0.E0,-1.E0,0.E0));
#187=DIRECTION('',(1.E0,0.E0,0.E0));
#188=AXIS2_PLACEMENT_3D('',#185,#186,#187);
#190=CURVE_STYLE('',#21,POSITIVE_LENGTH_MEASURE(2.E-2),#9);
#191=PRESENTATION_STYLE_ASSIGNMENT((#190));
#192=STYLED_ITEM('',(#191),#189);
#193=CARTESIAN_POINT('',(9.842519685039E-2,3.917322834646E-1,
2.755905511811E-2));
#194=DIRECTION('',(-1.E0,0.E0,0.E0));
#195=DIRECTION('',(0.E0,0.E0,1.E0));
#196=AXIS2_PLACEMENT_3D('',#193,#194,#195);
#198=CURVE_STYLE('',#21,POSITIVE_LENGTH_MEASURE(2.E-2),#9);
#199=PRESENTATION_STYLE_ASSIGNMENT((#198));
#200=STYLED_ITEM('',(#199),#197);
#201=CARTESIAN_POINT('',(9.842519685039E-2,3.956692913386E-1,0.E0));
#202=DIRECTION('',(0.E0,1.E0,0.E0));
#203=DIRECTION('',(0.E0,0.E0,-1.E0));
#204=AXIS2_PLACEMENT_3D('',#201,#202,#203);
#206=CURVE_STYLE('',#21,POSITIVE_LENGTH_MEASURE(2.E-2),#9);
#207=PRESENTATION_STYLE_ASSIGNMENT((#206));
#208=STYLED_ITEM('',(#207),#205);
#209=CARTESIAN_POINT('',(9.842519685039E-2,3.956692913386E-1,0.E0));
#210=DIRECTION('',(0.E0,1.E0,0.E0));
#211=DIRECTION('',(0.E0,0.E0,1.E0));
#212=AXIS2_PLACEMENT_3D('',#209,#210,#211);
#214=CURVE_STYLE('',#21,POSITIVE_LENGTH_MEASURE(2.E-2),#9);
#215=PRESENTATION_STYLE_ASSIGNMENT((#214));
#216=STYLED_ITEM('',(#215),#213);
#217=CARTESIAN_POINT('',(9.842519685039E-2,3.917322834646E-1,
3.149606299213E-2));
#218=CARTESIAN_POINT('',(9.842519685039E-2,3.956692913386E-1,
2.755905511811E-2));
#219=VERTEX_POINT('',#217);
#220=VERTEX_POINT('',#218);
#221=CARTESIAN_POINT('',(9.842519685039E-2,3.917322834646E-1,
-3.149606299213E-2));
#222=CARTESIAN_POINT('',(9.842519685039E-2,3.956692913386E-1,
-2.755905511811E-2));
#223=VERTEX_POINT('',#221);
#224=VERTEX_POINT('',#222);
#225=CARTESIAN_POINT('',(1.299212598425E-1,3.917322834646E-1,0.E0));
#226=VERTEX_POINT('',#225);
#227=CARTESIAN_POINT('',(6.692913385827E-2,2.775590551181E-1,0.E0));
#228=CARTESIAN_POINT('',(6.692913385827E-2,3.917322834646E-1,0.E0));
#229=VERTEX_POINT('',#227);
#230=VERTEX_POINT('',#228);
#231=CARTESIAN_POINT('',(1.299212598425E-1,2.775590551181E-1,0.E0));
#232=VERTEX_POINT('',#231);
#233=CARTESIAN_POINT('',(9.842519685039E-2,1.782421365823E-1,0.E0));
#234=CARTESIAN_POINT('',(5.905511811024E-2,1.555118110236E-1,0.E0));
#235=VERTEX_POINT('',#233);
#236=VERTEX_POINT('',#234);
#237=CARTESIAN_POINT('',(1.377952755906E-1,1.555118110236E-1,0.E0));
#238=VERTEX_POINT('',#237);
#239=CARTESIAN_POINT('',(5.905511811024E-2,-7.086614173228E-2,0.E0));
#240=VERTEX_POINT('',#239);
#241=CARTESIAN_POINT('',(1.377952755906E-1,-7.086614173228E-2,0.E0));
#242=VERTEX_POINT('',#241);
#243=CARTESIAN_POINT('',(4.921259842520E-2,-7.086614173228E-2,0.E0));
#244=CARTESIAN_POINT('',(4.921259842520E-2,2.775590551181E-1,0.E0));
#245=VERTEX_POINT('',#243);
#246=VERTEX_POINT('',#244);
#247=CARTESIAN_POINT('',(1.476377952756E-1,2.775590551181E-1,0.E0));
#248=VERTEX_POINT('',#247);
#249=CARTESIAN_POINT('',(1.476377952756E-1,-7.086614173228E-2,0.E0));
#250=VERTEX_POINT('',#249);
#251=CARTESIAN_POINT('',(9.842519685039E-2,3.917322834646E-1,0.E0));
#252=DIRECTION('',(0.E0,1.E0,0.E0));
#253=DIRECTION('',(0.E0,0.E0,1.E0));
#254=AXIS2_PLACEMENT_3D('',#251,#252,#253);
#255=TOROIDAL_SURFACE('',#254,2.755905511811E-2,3.937007874016E-3);
#257=ORIENTED_EDGE('',*,*,#256,.T.);
#259=ORIENTED_EDGE('',*,*,#258,.T.);
#261=ORIENTED_EDGE('',*,*,#260,.T.);
#263=ORIENTED_EDGE('',*,*,#262,.T.);
#265=ORIENTED_EDGE('',*,*,#264,.F.);
#266=EDGE_LOOP('',(#257,#259,#261,#263,#265));
#267=FACE_OUTER_BOUND('',#266,.F.);
#269=CARTESIAN_POINT('',(9.842519685039E-2,3.366141732283E-1,0.E0));
#270=DIRECTION('',(0.E0,1.E0,0.E0));
#271=DIRECTION('',(-1.E0,0.E0,0.E0));
#272=AXIS2_PLACEMENT_3D('',#269,#270,#271);
#273=CYLINDRICAL_SURFACE('',#272,3.149606299213E-2);
#275=ORIENTED_EDGE('',*,*,#274,.T.);
#276=ORIENTED_EDGE('',*,*,#256,.F.);
#278=ORIENTED_EDGE('',*,*,#277,.F.);
#280=ORIENTED_EDGE('',*,*,#279,.F.);
#282=ORIENTED_EDGE('',*,*,#281,.T.);
#283=EDGE_LOOP('',(#275,#276,#278,#280,#282));
#284=FACE_OUTER_BOUND('',#283,.F.);
#286=CARTESIAN_POINT('',(9.842519685039E-2,3.366141732283E-1,0.E0));
#287=DIRECTION('',(0.E0,1.E0,0.E0));
#288=DIRECTION('',(-1.E0,0.E0,0.E0));
#289=AXIS2_PLACEMENT_3D('',#286,#287,#288);
#290=CYLINDRICAL_SURFACE('',#289,3.149606299213E-2);
#291=ORIENTED_EDGE('',*,*,#274,.F.);
#293=ORIENTED_EDGE('',*,*,#292,.T.);
#294=ORIENTED_EDGE('',*,*,#279,.T.);
#296=ORIENTED_EDGE('',*,*,#295,.F.);
#297=ORIENTED_EDGE('',*,*,#258,.F.);
#298=EDGE_LOOP('',(#291,#293,#294,#296,#297));
#299=FACE_OUTER_BOUND('',#298,.F.);
#301=CARTESIAN_POINT('',(4.921259842520E-2,2.775590551181E-1,0.E0));
#302=DIRECTION('',(0.E0,-1.E0,0.E0));
#303=DIRECTION('',(0.E0,0.E0,-1.E0));
#304=AXIS2_PLACEMENT_3D('',#301,#302,#303);
#305=PLANE('',#304);
#307=ORIENTED_EDGE('',*,*,#306,.F.);
#309=ORIENTED_EDGE('',*,*,#308,.F.);
#310=EDGE_LOOP('',(#307,#309));
#311=FACE_OUTER_BOUND('',#310,.F.);
#312=ORIENTED_EDGE('',*,*,#292,.F.);
#313=ORIENTED_EDGE('',*,*,#281,.F.);
#314=EDGE_LOOP('',(#312,#313));
#315=FACE_BOUND('',#314,.F.);
#317=CARTESIAN_POINT('',(9.842519685039E-2,1.633858267717E-1,0.E0));
#318=DIRECTION('',(0.E0,1.E0,0.E0));
#319=DIRECTION('',(-1.E0,0.E0,0.E0));
#320=AXIS2_PLACEMENT_3D('',#317,#318,#319);
#321=CYLINDRICAL_SURFACE('',#320,4.921259842520E-2);
#323=ORIENTED_EDGE('',*,*,#322,.T.);
#324=ORIENTED_EDGE('',*,*,#306,.T.);
#326=ORIENTED_EDGE('',*,*,#325,.F.);
#328=ORIENTED_EDGE('',*,*,#327,.T.);
#329=EDGE_LOOP('',(#323,#324,#326,#328));
#330=FACE_OUTER_BOUND('',#329,.F.);
#332=CARTESIAN_POINT('',(9.842519685039E-2,1.633858267717E-1,0.E0));
#333=DIRECTION('',(0.E0,1.E0,0.E0));
#334=DIRECTION('',(-1.E0,0.E0,0.E0));
#335=AXIS2_PLACEMENT_3D('',#332,#333,#334);
#336=CYLINDRICAL_SURFACE('',#335,4.921259842520E-2);
#337=ORIENTED_EDGE('',*,*,#322,.F.);
#339=ORIENTED_EDGE('',*,*,#338,.T.);
#340=ORIENTED_EDGE('',*,*,#325,.T.);
#341=ORIENTED_EDGE('',*,*,#308,.T.);
#342=EDGE_LOOP('',(#337,#339,#340,#341));
#343=FACE_OUTER_BOUND('',#342,.F.);
#345=CARTESIAN_POINT('',(4.921259842520E-2,-7.086614173228E-2,0.E0));
#346=DIRECTION('',(0.E0,-1.E0,0.E0));
#347=DIRECTION('',(0.E0,0.E0,-1.E0));
#348=AXIS2_PLACEMENT_3D('',#345,#346,#347);
#349=PLANE('',#348);
#350=ORIENTED_EDGE('',*,*,#338,.F.);
#351=ORIENTED_EDGE('',*,*,#327,.F.);
#352=EDGE_LOOP('',(#350,#351));
#353=FACE_OUTER_BOUND('',#352,.F.);
#355=ORIENTED_EDGE('',*,*,#354,.F.);
#357=ORIENTED_EDGE('',*,*,#356,.F.);
#358=EDGE_LOOP('',(#355,#357));
#359=FACE_BOUND('',#358,.F.);
#361=CARTESIAN_POINT('',(9.842519685039E-2,4.232283464567E-2,0.E0));
#362=DIRECTION('',(0.E0,1.E0,0.E0));
#363=DIRECTION('',(-1.E0,0.E0,0.E0));
#364=AXIS2_PLACEMENT_3D('',#361,#362,#363);
#365=CYLINDRICAL_SURFACE('',#364,3.937007874016E-2);
#367=ORIENTED_EDGE('',*,*,#366,.T.);
#369=ORIENTED_EDGE('',*,*,#368,.F.);
#371=ORIENTED_EDGE('',*,*,#370,.T.);
#372=ORIENTED_EDGE('',*,*,#354,.T.);
#373=EDGE_LOOP('',(#367,#369,#371,#372));
#374=FACE_OUTER_BOUND('',#373,.F.);
#376=CARTESIAN_POINT('',(9.842519685039E-2,4.232283464567E-2,0.E0));
#377=DIRECTION('',(0.E0,1.E0,0.E0));
#378=DIRECTION('',(-1.E0,0.E0,0.E0));
#379=AXIS2_PLACEMENT_3D('',#376,#377,#378);
#380=CYLINDRICAL_SURFACE('',#379,3.937007874016E-2);
#381=ORIENTED_EDGE('',*,*,#366,.F.);
#382=ORIENTED_EDGE('',*,*,#356,.T.);
#383=ORIENTED_EDGE('',*,*,#370,.F.);
#385=ORIENTED_EDGE('',*,*,#384,.F.);
#386=EDGE_LOOP('',(#381,#382,#383,#385));
#387=FACE_OUTER_BOUND('',#386,.F.);
#389=CARTESIAN_POINT('',(9.842519685039E-2,1.666496705474E-1,0.E0));
#390=DIRECTION('',(0.E0,-1.E0,0.E0));
#391=DIRECTION('',(-1.E0,0.E0,0.E0));
#392=AXIS2_PLACEMENT_3D('',#389,#390,#391);
#393=CONICAL_SURFACE('',#392,2.007874015748E-2,6.E1);
#394=ORIENTED_EDGE('',*,*,#384,.T.);
#396=ORIENTED_EDGE('',*,*,#395,.F.);
#398=ORIENTED_EDGE('',*,*,#397,.T.);
#399=EDGE_LOOP('',(#394,#396,#398));
#400=FACE_OUTER_BOUND('',#399,.F.);
#402=CARTESIAN_POINT('',(9.842519685039E-2,1.666496705474E-1,0.E0));
#403=DIRECTION('',(0.E0,-1.E0,0.E0));
#404=DIRECTION('',(-1.E0,0.E0,0.E0));
#405=AXIS2_PLACEMENT_3D('',#402,#403,#404);
#406=CONICAL_SURFACE('',#405,2.007874015748E-2,6.E1);
#407=ORIENTED_EDGE('',*,*,#368,.T.);
#408=ORIENTED_EDGE('',*,*,#397,.F.);
#409=ORIENTED_EDGE('',*,*,#395,.T.);
#410=EDGE_LOOP('',(#407,#408,#409));
#411=FACE_OUTER_BOUND('',#410,.F.);
#413=CARTESIAN_POINT('',(9.842519685039E-2,3.917322834646E-1,0.E0));
#414=DIRECTION('',(0.E0,1.E0,0.E0));
#415=DIRECTION('',(0.E0,0.E0,1.E0));
#416=AXIS2_PLACEMENT_3D('',#413,#414,#415);
#417=TOROIDAL_SURFACE('',#416,2.755905511811E-2,3.937007874016E-3);
#419=ORIENTED_EDGE('',*,*,#418,.T.);
#420=ORIENTED_EDGE('',*,*,#260,.F.);
#421=ORIENTED_EDGE('',*,*,#295,.T.);
#422=ORIENTED_EDGE('',*,*,#277,.T.);
#423=ORIENTED_EDGE('',*,*,#264,.T.);
#424=EDGE_LOOP('',(#419,#420,#421,#422,#423));
#425=FACE_OUTER_BOUND('',#424,.F.);
#427=CARTESIAN_POINT('',(6.692913385827E-2,3.956692913386E-1,0.E0));
#428=DIRECTION('',(0.E0,-1.E0,0.E0));
#429=DIRECTION('',(0.E0,0.E0,-1.E0));
#430=AXIS2_PLACEMENT_3D('',#427,#428,#429);
#431=PLANE('',#430);
#432=ORIENTED_EDGE('',*,*,#262,.F.);
#433=ORIENTED_EDGE('',*,*,#418,.F.);
#434=EDGE_LOOP('',(#432,#433));
#435=FACE_OUTER_BOUND('',#434,.F.);
#439=FILL_AREA_STYLE_COLOUR('',#9);
#440=FILL_AREA_STYLE('',(#439));
#441=SURFACE_STYLE_FILL_AREA(#440);
#442=SURFACE_SIDE_STYLE('',(#441));
#443=SURFACE_STYLE_USAGE(.BOTH.,#442);
#444=PRESENTATION_STYLE_ASSIGNMENT((#443));
#15=STYLED_ITEM('',(#444),#438);
#446=LENGTH_MEASURE_WITH_UNIT(LENGTH_MEASURE(2.54E1),#445);
#447=(CONVERSION_BASED_UNIT('INCH',#446)LENGTH_UNIT()NAMED_UNIT(*));
#449=PLANE_ANGLE_MEASURE_WITH_UNIT(PLANE_ANGLE_MEASURE(1.745329251994E-2),#448);
#450=(CONVERSION_BASED_UNIT('DEGREE',#449)NAMED_UNIT(*)PLANE_ANGLE_UNIT());
#452=UNCERTAINTY_MEASURE_WITH_UNIT(LENGTH_MEASURE(4.868625844997E-5),#447,
'closure',
'Maximum model space distance between geometric entities at asserted connectivities');
#454=CARTESIAN_POINT('',(0.E0,0.E0,0.E0));
#455=DIRECTION('',(0.E0,0.E0,1.E0));
#456=DIRECTION('',(1.E0,0.E0,0.E0));
#459=MECHANICAL_DESIGN_GEOMETRIC_PRESENTATION_REPRESENTATION('',(#24,#32,#39,
#46,#54,#62,#70,#78,#85,#92,#100,#108,#116,#124,#131,#138,#146,#153,#160,#168,
#176,#184,#192,#200,#208,#216,#15),#453);
#460=APPLICATION_CONTEXT('automotive design');
#461=APPLICATION_PROTOCOL_DEFINITION('international standard',
'config_control_design',1994,#460);
#462=PRODUCT_DEFINITION_CONTEXT('',#460,'design');
#463=PRODUCT_CONTEXT('',#460,'mechanical');
#464=PRODUCT('FC__1__1','FC__1__1','NOT SPECIFIED',(#463));
#465=PRODUCT_DEFINITION_FORMATION_WITH_SPECIFIED_SOURCE('1','LAST_VERSION',#464,
.MADE.);
#473=LENGTH_MEASURE_WITH_UNIT(LENGTH_MEASURE(2.54E1),#472);
#474=(CONVERSION_BASED_UNIT('INCH',#473)LENGTH_UNIT()NAMED_UNIT(*));
#475=DERIVED_UNIT_ELEMENT(#474,2.E0);
#476=AREA_UNIT((#475));
#477=MEASURE_REPRESENTATION_ITEM('surface area measure',AREA_MEASURE(
1.307989912695E2),#476);
#482=LENGTH_MEASURE_WITH_UNIT(LENGTH_MEASURE(2.54E1),#481);
#483=(CONVERSION_BASED_UNIT('INCH',#482)LENGTH_UNIT()NAMED_UNIT(*));
#484=DERIVED_UNIT_ELEMENT(#483,3.E0);
#485=VOLUME_UNIT((#484));
#486=MEASURE_REPRESENTATION_ITEM('volume measure',VOLUME_MEASURE(
3.079495037840E1),#485);
#490=CARTESIAN_POINT('centre point',(2.499999999985E0,4.663393305606E0,0.E0));
#495=LENGTH_MEASURE_WITH_UNIT(LENGTH_MEASURE(2.54E1),#494);
#496=(CONVERSION_BASED_UNIT('INCH',#495)LENGTH_UNIT()NAMED_UNIT(*));
#497=DERIVED_UNIT_ELEMENT(#496,2.E0);
#498=AREA_UNIT((#497));
#499=MEASURE_REPRESENTATION_ITEM('surface area measure',AREA_MEASURE(
1.307989912695E2),#498);
#504=LENGTH_MEASURE_WITH_UNIT(LENGTH_MEASURE(2.54E1),#503);
#505=(CONVERSION_BASED_UNIT('INCH',#504)LENGTH_UNIT()NAMED_UNIT(*));
#506=DERIVED_UNIT_ELEMENT(#505,3.E0);
#507=VOLUME_UNIT((#506));
#508=MEASURE_REPRESENTATION_ITEM('volume measure',VOLUME_MEASURE(
3.079495037840E1),#507);
#512=CARTESIAN_POINT('centre point',(2.499999999985E0,4.663393305606E0,0.E0));
#1=DRAUGHTING_PRE_DEFINED_COLOUR('green');
#2=COLOUR_RGB('',1.1E-2,1.2E-2,1.E0);
#3=COLOUR_RGB('',4.1E-1,2.61589E-1,1.12848E-1);
#4=COLOUR_RGB('',5.04854E-1,1.5455E-2,1.5455E-2);
#5=COLOUR_RGB('',6.35294E-1,6.86275E-1,7.4902E-1);
#6=COLOUR_RGB('',6.40777E-1,6.40777E-1,6.40777E-1);
#7=COLOUR_RGB('',6.69062E-1,6.69903E-1,6.55217E-1);
#8=COLOUR_RGB('',9.21569E-1,7.05882E-1,4.70588E-1);
#9=COLOUR_RGB('',9.529411764706E-1,7.960784313725E-1,4.862745098039E-1);
#10=DRAUGHTING_PRE_DEFINED_COLOUR('red');
#11=DRAUGHTING_PRE_DEFINED_COLOUR('yellow');
#12=COLOUR_RGB('',1.E0,1.E0,5.3E-1);
#13=COLOUR_RGB('',1.E0,1.E0,9.49E-1);
#14=DRAUGHTING_PRE_DEFINED_COLOUR('white');
#20=CIRCLE('',#19,3.149606299213E-2);
#29=CIRCLE('',#28,3.149606299213E-2);
#51=CIRCLE('',#50,4.921259842520E-2);
#59=CIRCLE('',#58,4.921259842520E-2);
#67=CIRCLE('',#66,3.149606299213E-2);
#75=CIRCLE('',#74,3.149606299213E-2);
#97=CIRCLE('',#96,4.921259842520E-2);
#105=CIRCLE('',#104,4.921259842520E-2);
#113=CIRCLE('',#112,3.937007874016E-2);
#121=CIRCLE('',#120,3.937007874016E-2);
#143=CIRCLE('',#142,3.937007874016E-2);
#165=CIRCLE('',#164,3.937007874016E-2);
#173=CIRCLE('',#172,3.937007874016E-3);
#181=CIRCLE('',#180,3.149606299213E-2);
#189=CIRCLE('',#188,3.149606299213E-2);
#197=CIRCLE('',#196,3.937007874016E-3);
#205=CIRCLE('',#204,2.755905511811E-2);
#213=CIRCLE('',#212,2.755905511811E-2);
#256=EDGE_CURVE('',#219,#230,#20,.T.);
#258=EDGE_CURVE('',#230,#223,#29,.T.);
#260=EDGE_CURVE('',#223,#224,#173,.T.);
#262=EDGE_CURVE('',#224,#220,#205,.T.);
#264=EDGE_CURVE('',#219,#220,#197,.T.);
#268=ADVANCED_FACE('',(#267),#255,.T.);
#274=EDGE_CURVE('',#229,#230,#43,.T.);
#277=EDGE_CURVE('',#226,#219,#189,.T.);
#279=EDGE_CURVE('',#232,#226,#36,.T.);
#281=EDGE_CURVE('',#232,#229,#75,.T.);
#285=ADVANCED_FACE('',(#284),#273,.T.);
#292=EDGE_CURVE('',#229,#232,#67,.T.);
#295=EDGE_CURVE('',#223,#226,#181,.T.);
#300=ADVANCED_FACE('',(#299),#290,.T.);
#306=EDGE_CURVE('',#246,#248,#51,.T.);
#308=EDGE_CURVE('',#248,#246,#59,.T.);
#316=ADVANCED_FACE('',(#311,#315),#305,.F.);
#322=EDGE_CURVE('',#245,#246,#89,.T.);
#325=EDGE_CURVE('',#250,#248,#82,.T.);
#327=EDGE_CURVE('',#250,#245,#105,.T.);
#331=ADVANCED_FACE('',(#330),#321,.T.);
#338=EDGE_CURVE('',#245,#250,#97,.T.);
#344=ADVANCED_FACE('',(#343),#336,.T.);
#354=EDGE_CURVE('',#242,#240,#113,.T.);
#356=EDGE_CURVE('',#240,#242,#121,.T.);
#360=ADVANCED_FACE('',(#353,#359),#349,.T.);
#366=EDGE_CURVE('',#240,#236,#128,.T.);
#368=EDGE_CURVE('',#238,#236,#165,.T.);
#370=EDGE_CURVE('',#238,#242,#135,.T.);
#375=ADVANCED_FACE('',(#374),#365,.F.);
#384=EDGE_CURVE('',#236,#238,#143,.T.);
#388=ADVANCED_FACE('',(#387),#380,.F.);
#395=EDGE_CURVE('',#235,#238,#150,.T.);
#397=EDGE_CURVE('',#235,#236,#157,.T.);
#401=ADVANCED_FACE('',(#400),#393,.F.);
#412=ADVANCED_FACE('',(#411),#406,.F.);
#418=EDGE_CURVE('',#220,#224,#213,.T.);
#426=ADVANCED_FACE('',(#425),#417,.T.);
#436=ADVANCED_FACE('',(#435),#431,.F.);
#437=CLOSED_SHELL('',(#268,#285,#300,#316,#331,#344,#360,#375,#388,#401,#412,
#426,#436));
#438=MANIFOLD_SOLID_BREP('',#437);
#445=(LENGTH_UNIT()NAMED_UNIT(*)SI_UNIT(.MILLI.,.METRE.));
#448=(NAMED_UNIT(*)PLANE_ANGLE_UNIT()SI_UNIT($,.RADIAN.));
#451=(NAMED_UNIT(*)SI_UNIT($,.STERADIAN.)SOLID_ANGLE_UNIT());
#453=(GEOMETRIC_REPRESENTATION_CONTEXT(3)GLOBAL_UNCERTAINTY_ASSIGNED_CONTEXT((
#452))GLOBAL_UNIT_ASSIGNED_CONTEXT((#447,#450,#451))REPRESENTATION_CONTEXT
('ID1','3'));
#457=AXIS2_PLACEMENT_3D('',#454,#455,#456);
#458=ADVANCED_BREP_SHAPE_REPRESENTATION('',(#457,#438),#453);
#466=PRODUCT_DEFINITION('design','',#465,#462);
#467=PRODUCT_DEFINITION_SHAPE('','SHAPE FOR FC__1__1.',#466);
#468=SHAPE_ASPECT('','solid data associated with FC__1__1',#467,.F.);
#469=PROPERTY_DEFINITION('',
'shape for solid data with which properties are associated',#468);
#470=SHAPE_REPRESENTATION('',(#438),#453);
#471=SHAPE_DEFINITION_REPRESENTATION(#469,#470);
#472=(LENGTH_UNIT()NAMED_UNIT(*)SI_UNIT(.MILLI.,.METRE.));
#478=PROPERTY_DEFINITION('geometric validation property','area of FC__1__1',
#468);
#479=REPRESENTATION('surface area',(#477),#453);
#480=PROPERTY_DEFINITION_REPRESENTATION(#478,#479);
#481=(LENGTH_UNIT()NAMED_UNIT(*)SI_UNIT(.MILLI.,.METRE.));
#487=PROPERTY_DEFINITION('geometric validation property','volume of FC__1__1',
#468);
#488=REPRESENTATION('volume',(#486),#453);
#489=PROPERTY_DEFINITION_REPRESENTATION(#487,#488);
#491=PROPERTY_DEFINITION('geometric validation property','centroid of FC__1__1',
#468);
#492=REPRESENTATION('centroid',(#490),#453);
#493=PROPERTY_DEFINITION_REPRESENTATION(#491,#492);
#494=(LENGTH_UNIT()NAMED_UNIT(*)SI_UNIT(.MILLI.,.METRE.));
#500=PROPERTY_DEFINITION('geometric validation property','area of FC__1__1',
#467);
#501=REPRESENTATION('surface area',(#499),#453);
#502=PROPERTY_DEFINITION_REPRESENTATION(#500,#501);
#503=(LENGTH_UNIT()NAMED_UNIT(*)SI_UNIT(.MILLI.,.METRE.));
#509=PROPERTY_DEFINITION('geometric validation property','volume of FC__1__1',
#467);
#510=REPRESENTATION('volume',(#508),#453);
#511=PROPERTY_DEFINITION_REPRESENTATION(#509,#510);
#513=PROPERTY_DEFINITION('geometric validation property','centroid of FC__1__1',
#467);
#514=REPRESENTATION('centroid',(#512),#453);
#515=PROPERTY_DEFINITION_REPRESENTATION(#513,#514);
#516=SHAPE_DEFINITION_REPRESENTATION(#467,#458);
ENDSEC;
END-ISO-10303-21;
