ISO-10303-21;
HEADER;
FILE_DESCRIPTION((''),'2;1');
FILE_NAME('FILLET5','2026-06-15T13:46:16',('Esia'),(''),
'CREO PARAMETRIC BY PTC INC, 2025102','CREO PARAMETRIC BY PTC INC, 2025102','');
FILE_SCHEMA((
'AP242_MANAGED_MODEL_BASED_3D_ENGINEERING_MIM_LF { 1 0 10303 442 1 1 4 }'));
ENDSEC;
DATA;
#17=DIRECTION('',(0.E0,1.E0,0.E0));
#18=VECTOR('',#17,3.937007874016E-3);
#19=CARTESIAN_POINT('',(-1.602362204724E-1,2.480314960630E-1,
6.132540118525E-1));
#20=LINE('',#19,#18);
#21=DRAUGHTING_PRE_DEFINED_CURVE_FONT('continuous');
#22=CURVE_STYLE('',#21,POSITIVE_LENGTH_MEASURE(2.E-2),#9);
#23=PRESENTATION_STYLE_ASSIGNMENT((#22));
#24=STYLED_ITEM('',(#23),#20);
#25=DIRECTION('',(0.E0,0.E0,1.E0));
#26=VECTOR('',#25,2.054502502127E-2);
#27=CARTESIAN_POINT('',(-1.602362204724E-1,2.480314960630E-1,
5.927089868312E-1));
#28=LINE('',#27,#26);
#29=CURVE_STYLE('',#21,POSITIVE_LENGTH_MEASURE(2.E-2),#9);
#30=PRESENTATION_STYLE_ASSIGNMENT((#29));
#31=STYLED_ITEM('',(#30),#28);
#32=CARTESIAN_POINT('',(-1.602362204724E-1,2.440944881890E-1,
5.927089868312E-1));
#33=DIRECTION('',(1.E0,0.E0,0.E0));
#34=DIRECTION('',(0.E0,9.848077530120E-1,-1.736481776680E-1));
#35=AXIS2_PLACEMENT_3D('',#32,#33,#34);
#37=CURVE_STYLE('',#21,POSITIVE_LENGTH_MEASURE(2.E-2),#9);
#38=PRESENTATION_STYLE_ASSIGNMENT((#37));
#39=STYLED_ITEM('',(#38),#36);
#40=DIRECTION('',(0.E0,1.736481776669E-1,9.848077530122E-1));
#41=VECTOR('',#40,1.470256672319E-1);
#42=CARTESIAN_POINT('',(-1.602362204724E-1,2.224409448819E-1,
4.472333156066E-1));
#43=LINE('',#42,#41);
#44=CURVE_STYLE('',#21,POSITIVE_LENGTH_MEASURE(2.E-2),#9);
#45=PRESENTATION_STYLE_ASSIGNMENT((#44));
#46=STYLED_ITEM('',(#45),#43);
#47=DIRECTION('',(0.E0,0.E0,1.E0));
#48=VECTOR('',#47,2.267232473677E-2);
#49=CARTESIAN_POINT('',(-1.602362204724E-1,2.224409448819E-1,
4.245609908698E-1));
#50=LINE('',#49,#48);
#51=CURVE_STYLE('',#21,POSITIVE_LENGTH_MEASURE(2.E-2),#9);
#52=PRESENTATION_STYLE_ASSIGNMENT((#51));
#53=STYLED_ITEM('',(#52),#50);
#54=DIRECTION('',(0.E0,-1.736481776670E-1,-9.848077530122E-1));
#55=VECTOR('',#54,1.693535484115E-1);
#56=CARTESIAN_POINT('',(-1.602362204724E-1,2.518488799450E-1,
5.913416783456E-1));
#57=LINE('',#56,#55);
#58=CURVE_STYLE('',#21,POSITIVE_LENGTH_MEASURE(2.E-2),#9);
#59=PRESENTATION_STYLE_ASSIGNMENT((#58));
#60=STYLED_ITEM('',(#59),#57);
#61=CARTESIAN_POINT('',(-1.602362204724E-1,2.440944881890E-1,
5.927089868312E-1));
#62=DIRECTION('',(-1.E0,0.E0,0.E0));
#63=DIRECTION('',(0.E0,1.E0,4.511946372077E-13));
#64=AXIS2_PLACEMENT_3D('',#61,#62,#63);
#66=CURVE_STYLE('',#21,POSITIVE_LENGTH_MEASURE(2.E-2),#9);
#67=PRESENTATION_STYLE_ASSIGNMENT((#66));
#68=STYLED_ITEM('',(#67),#65);
#69=DIRECTION('',(0.E0,-3.180631650336E-1,9.480695243751E-1));
#70=VECTOR('',#69,2.065932457893E-3);
#71=CARTESIAN_POINT('',(-1.602362204724E-1,2.230980418982E-1,
4.081620962311E-1));
#72=LINE('',#71,#70);
#73=CURVE_STYLE('',#21,POSITIVE_LENGTH_MEASURE(2.E-2),#9);
#74=PRESENTATION_STYLE_ASSIGNMENT((#73));
#75=STYLED_ITEM('',(#74),#72);
#76=DIRECTION('',(0.E0,-7.660444431190E-1,6.427876096865E-1));
#77=VECTOR('',#76,1.837561002897E-2);
#78=CARTESIAN_POINT('',(-1.602362204724E-1,2.371745758498E-1,
3.963504817840E-1));
#79=LINE('',#78,#77);
#80=CURVE_STYLE('',#21,POSITIVE_LENGTH_MEASURE(2.E-2),#9);
#81=PRESENTATION_STYLE_ASSIGNMENT((#80));
#82=STYLED_ITEM('',(#81),#79);
#83=DIRECTION('',(-1.409983241277E-14,-6.427876096862E-1,-7.660444431193E-1));
#84=VECTOR('',#83,3.937007874008E-3);
#85=CARTESIAN_POINT('',(-1.602362204724E-1,2.397052357305E-1,
3.993664047884E-1));
#86=LINE('',#85,#84);
#87=CURVE_STYLE('',#21,POSITIVE_LENGTH_MEASURE(2.E-2),#9);
#88=PRESENTATION_STYLE_ASSIGNMENT((#87));
#89=STYLED_ITEM('',(#88),#86);
#90=DIRECTION('',(0.E0,7.660444431190E-1,-6.427876096865E-1));
#91=VECTOR('',#90,2.013796995768E-2);
#92=CARTESIAN_POINT('',(-1.602362204724E-1,2.242786557487E-1,
4.123108423615E-1));
#93=LINE('',#92,#91);
#94=CURVE_STYLE('',#21,POSITIVE_LENGTH_MEASURE(2.E-2),#9);
#95=PRESENTATION_STYLE_ASSIGNMENT((#94));
#96=STYLED_ITEM('',(#95),#93);
#97=CARTESIAN_POINT('',(-1.602362204724E-1,2.293399755100E-1,
4.183426883703E-1));
#98=DIRECTION('',(1.E0,0.E0,0.E0));
#99=DIRECTION('',(0.E0,-8.761768897655E-1,-4.819896864466E-1));
#100=AXIS2_PLACEMENT_3D('',#97,#98,#99);
#102=CURVE_STYLE('',#21,POSITIVE_LENGTH_MEASURE(2.E-2),#9);
#103=PRESENTATION_STYLE_ASSIGNMENT((#102));
#104=STYLED_ITEM('',(#103),#101);
#105=CARTESIAN_POINT('',(-1.562992125984E-1,2.519685039370E-1,
6.132540118525E-1));
#106=DIRECTION('',(0.E0,0.E0,1.E0));
#107=DIRECTION('',(0.E0,1.E0,0.E0));
#108=AXIS2_PLACEMENT_3D('',#105,#106,#107);
#110=CURVE_STYLE('',#21,POSITIVE_LENGTH_MEASURE(2.E-2),#9);
#111=PRESENTATION_STYLE_ASSIGNMENT((#110));
#112=STYLED_ITEM('',(#111),#109);
#113=DIRECTION('',(-1.E0,0.E0,0.E0));
#114=VECTOR('',#113,4.330708661417E-2);
#115=CARTESIAN_POINT('',(-1.129921259843E-1,2.559055118110E-1,
6.132540118525E-1));
#116=LINE('',#115,#114);
#117=CURVE_STYLE('',#21,POSITIVE_LENGTH_MEASURE(2.E-2),#9);
#118=PRESENTATION_STYLE_ASSIGNMENT((#117));
#119=STYLED_ITEM('',(#118),#116);
#120=CARTESIAN_POINT('',(-1.129921259843E-1,2.519685039370E-1,
6.132540118525E-1));
#121=DIRECTION('',(0.E0,0.E0,1.E0));
#122=DIRECTION('',(1.E0,-7.049916206370E-14,0.E0));
#123=AXIS2_PLACEMENT_3D('',#120,#121,#122);
#125=CURVE_STYLE('',#21,POSITIVE_LENGTH_MEASURE(2.E-2),#9);
#126=PRESENTATION_STYLE_ASSIGNMENT((#125));
#127=STYLED_ITEM('',(#126),#124);
#128=DIRECTION('',(0.E0,-7.660444431190E-1,6.427876096865E-1));
#129=VECTOR('',#128,2.013796995767E-2);
#130=CARTESIAN_POINT('',(-1.090551181102E-1,2.397052357305E-1,
3.993664047884E-1));
#131=LINE('',#130,#129);
#132=CURVE_STYLE('',#21,POSITIVE_LENGTH_MEASURE(2.E-2),#9);
#133=PRESENTATION_STYLE_ASSIGNMENT((#132));
#134=STYLED_ITEM('',(#133),#131);
#135=DIRECTION('',(-1.409983241277E-14,6.427876096862E-1,7.660444431193E-1));
#136=VECTOR('',#135,3.937007874006E-3);
#137=CARTESIAN_POINT('',(-1.090551181102E-1,2.371745758498E-1,
3.963504817840E-1));
#138=LINE('',#137,#136);
#139=CURVE_STYLE('',#21,POSITIVE_LENGTH_MEASURE(2.E-2),#9);
#140=PRESENTATION_STYLE_ASSIGNMENT((#139));
#141=STYLED_ITEM('',(#140),#138);
#142=DIRECTION('',(0.E0,7.660444431190E-1,-6.427876096865E-1));
#143=VECTOR('',#142,1.837561002897E-2);
#144=CARTESIAN_POINT('',(-1.090551181102E-1,2.230980418982E-1,
4.081620962311E-1));
#145=LINE('',#144,#143);
#146=CURVE_STYLE('',#21,POSITIVE_LENGTH_MEASURE(2.E-2),#9);
#147=PRESENTATION_STYLE_ASSIGNMENT((#146));
#148=STYLED_ITEM('',(#147),#145);
#149=DIRECTION('',(0.E0,3.180631650336E-1,-9.480695243751E-1));
#150=VECTOR('',#149,2.065932457895E-3);
#151=CARTESIAN_POINT('',(-1.090551181102E-1,2.224409448819E-1,
4.101207438338E-1));
#152=LINE('',#151,#150);
#153=CURVE_STYLE('',#21,POSITIVE_LENGTH_MEASURE(2.E-2),#9);
#154=PRESENTATION_STYLE_ASSIGNMENT((#153));
#155=STYLED_ITEM('',(#154),#152);
#156=CARTESIAN_POINT('',(-1.090551181102E-1,2.293399755100E-1,
4.183426883703E-1));
#157=DIRECTION('',(-1.E0,0.E0,0.E0));
#158=DIRECTION('',(0.E0,-6.427876096811E-1,-7.660444431235E-1));
#159=AXIS2_PLACEMENT_3D('',#156,#157,#158);
#161=CURVE_STYLE('',#21,POSITIVE_LENGTH_MEASURE(2.E-2),#9);
#162=PRESENTATION_STYLE_ASSIGNMENT((#161));
#163=STYLED_ITEM('',(#162),#160);
#164=CARTESIAN_POINT('',(-1.090551181102E-1,2.440944881890E-1,
5.927089868312E-1));
#165=DIRECTION('',(1.E0,0.E0,0.E0));
#166=DIRECTION('',(0.E0,9.848077530119E-1,-1.736481776688E-1));
#167=AXIS2_PLACEMENT_3D('',#164,#165,#166);
#169=CURVE_STYLE('',#21,POSITIVE_LENGTH_MEASURE(2.E-2),#9);
#170=PRESENTATION_STYLE_ASSIGNMENT((#169));
#171=STYLED_ITEM('',(#170),#168);
#172=DIRECTION('',(0.E0,1.736481776670E-1,9.848077530122E-1));
#173=VECTOR('',#172,1.693535484115E-1);
#174=CARTESIAN_POINT('',(-1.090551181102E-1,2.224409448819E-1,
4.245609908698E-1));
#175=LINE('',#174,#173);
#176=CURVE_STYLE('',#21,POSITIVE_LENGTH_MEASURE(2.E-2),#9);
#177=PRESENTATION_STYLE_ASSIGNMENT((#176));
#178=STYLED_ITEM('',(#177),#175);
#179=DIRECTION('',(0.E0,-4.651979387376E-14,-1.E0));
#180=VECTOR('',#179,2.267232473678E-2);
#181=CARTESIAN_POINT('',(-1.090551181102E-1,2.224409448819E-1,
4.472333156066E-1));
#182=LINE('',#181,#180);
#183=CURVE_STYLE('',#21,POSITIVE_LENGTH_MEASURE(2.E-2),#9);
#184=PRESENTATION_STYLE_ASSIGNMENT((#183));
#185=STYLED_ITEM('',(#184),#182);
#186=DIRECTION('',(0.E0,-1.736481776669E-1,-9.848077530122E-1));
#187=VECTOR('',#186,1.470256672319E-1);
#188=CARTESIAN_POINT('',(-1.090551181102E-1,2.479716840670E-1,
5.920253325884E-1));
#189=LINE('',#188,#187);
#190=CURVE_STYLE('',#21,POSITIVE_LENGTH_MEASURE(2.E-2),#9);
#191=PRESENTATION_STYLE_ASSIGNMENT((#190));
#192=STYLED_ITEM('',(#191),#189);
#193=CARTESIAN_POINT('',(-1.090551181102E-1,2.440944881890E-1,
5.927089868312E-1));
#194=DIRECTION('',(-1.E0,0.E0,0.E0));
#195=DIRECTION('',(0.E0,1.E0,2.819966482548E-13));
#196=AXIS2_PLACEMENT_3D('',#193,#194,#195);
#198=CURVE_STYLE('',#21,POSITIVE_LENGTH_MEASURE(2.E-2),#9);
#199=PRESENTATION_STYLE_ASSIGNMENT((#198));
#200=STYLED_ITEM('',(#199),#197);
#201=DIRECTION('',(0.E0,0.E0,-1.E0));
#202=VECTOR('',#201,2.054502502127E-2);
#203=CARTESIAN_POINT('',(-1.090551181102E-1,2.480314960630E-1,
6.132540118525E-1));
#204=LINE('',#203,#202);
#205=CURVE_STYLE('',#21,POSITIVE_LENGTH_MEASURE(2.E-2),#9);
#206=PRESENTATION_STYLE_ASSIGNMENT((#205));
#207=STYLED_ITEM('',(#206),#204);
#208=DIRECTION('',(0.E0,-1.E0,0.E0));
#209=VECTOR('',#208,3.937007874016E-3);
#210=CARTESIAN_POINT('',(-1.090551181102E-1,2.519685039370E-1,
6.132540118525E-1));
#211=LINE('',#210,#209);
#212=CURVE_STYLE('',#21,POSITIVE_LENGTH_MEASURE(2.E-2),#9);
#213=PRESENTATION_STYLE_ASSIGNMENT((#212));
#214=STYLED_ITEM('',(#213),#211);
#215=DIRECTION('',(0.E0,-7.660444431190E-1,6.427876096865E-1));
#216=VECTOR('',#215,1.620096208367E-2);
#217=CARTESIAN_POINT('',(-1.129921259843E-1,2.392199726067E-1,
4.049129876735E-1));
#218=LINE('',#217,#216);
#219=CURVE_STYLE('',#21,POSITIVE_LENGTH_MEASURE(2.E-2),#9);
#220=PRESENTATION_STYLE_ASSIGNMENT((#219));
#221=STYLED_ITEM('',(#220),#218);
#222=DIRECTION('',(-1.E0,1.952284487918E-14,2.277665235904E-14));
#223=VECTOR('',#222,5.118110236220E-2);
#224=CARTESIAN_POINT('',(-1.090551181102E-1,2.397052357305E-1,
3.993664047884E-1));
#225=LINE('',#224,#223);
#226=CURVE_STYLE('',#21,POSITIVE_LENGTH_MEASURE(2.E-2),#9);
#227=PRESENTATION_STYLE_ASSIGNMENT((#226));
#228=STYLED_ITEM('',(#227),#225);
#229=CARTESIAN_POINT('',(-1.099762029798E-1,2.406263206001E-1,
4.018970646691E-1));
#230=CARTESIAN_POINT('',(-1.097657559953E-1,2.406263206001E-1,
4.015696672809E-1));
#231=CARTESIAN_POINT('',(-1.094170286719E-1,2.405448359319E-1,
4.009300032418E-1));
#232=CARTESIAN_POINT('',(-1.091144280484E-1,2.402104952817E-1,
4.000608093928E-1));
#233=CARTESIAN_POINT('',(-1.090551181102E-1,2.398849992828E-1,
3.995806386477E-1));
#234=CARTESIAN_POINT('',(-1.090551181102E-1,2.397052357305E-1,
3.993664047884E-1));
#236=CURVE_STYLE('',#21,POSITIVE_LENGTH_MEASURE(2.E-2),#9);
#237=PRESENTATION_STYLE_ASSIGNMENT((#236));
#238=STYLED_ITEM('',(#237),#235);
#239=CARTESIAN_POINT('',(-1.129921259843E-1,2.392199726067E-1,
4.049129876735E-1));
#240=CARTESIAN_POINT('',(-1.125771932352E-1,2.395378295334E-1,
4.046462740435E-1));
#241=CARTESIAN_POINT('',(-1.117850096170E-1,2.400625418634E-1,
4.040390718396E-1));
#242=CARTESIAN_POINT('',(-1.107343492198E-1,2.405340549439E-1,
4.029664790986E-1));
#243=CARTESIAN_POINT('',(-1.102017779928E-1,2.406263206001E-1,
4.022479970915E-1));
#244=CARTESIAN_POINT('',(-1.099762029798E-1,2.406263206001E-1,
4.018970646691E-1));
#246=CURVE_STYLE('',#21,POSITIVE_LENGTH_MEASURE(2.E-2),#9);
#247=PRESENTATION_STYLE_ASSIGNMENT((#246));
#248=STYLED_ITEM('',(#247),#245);
#249=DIRECTION('',(1.E0,0.E0,0.E0));
#250=VECTOR('',#249,4.330708661417E-2);
#251=CARTESIAN_POINT('',(-1.562992125984E-1,2.392199726067E-1,
4.049129876735E-1));
#252=LINE('',#251,#250);
#253=CURVE_STYLE('',#21,POSITIVE_LENGTH_MEASURE(2.E-2),#9);
#254=PRESENTATION_STYLE_ASSIGNMENT((#253));
#255=STYLED_ITEM('',(#254),#252);
#256=CARTESIAN_POINT('',(-1.593151356028E-1,2.406263206001E-1,
4.018970646691E-1));
#257=CARTESIAN_POINT('',(-1.595255825874E-1,2.406263206001E-1,
4.015696672809E-1));
#258=CARTESIAN_POINT('',(-1.598743298289E-1,2.405448206737E-1,
4.009300160449E-1));
#259=CARTESIAN_POINT('',(-1.601769170682E-1,2.402104902765E-1,
4.000608135927E-1));
#260=CARTESIAN_POINT('',(-1.602362204724E-1,2.398849992828E-1,
3.995806386477E-1));
#261=CARTESIAN_POINT('',(-1.602362204724E-1,2.397052357305E-1,
3.993664047884E-1));
#263=CURVE_STYLE('',#21,POSITIVE_LENGTH_MEASURE(2.E-2),#9);
#264=PRESENTATION_STYLE_ASSIGNMENT((#263));
#265=STYLED_ITEM('',(#264),#262);
#266=CARTESIAN_POINT('',(-1.562992125984E-1,2.392199726067E-1,
4.049129876735E-1));
#267=CARTESIAN_POINT('',(-1.567141453475E-1,2.395378295334E-1,
4.046462740435E-1));
#268=CARTESIAN_POINT('',(-1.575064003654E-1,2.400624871680E-1,
4.040391177345E-1));
#269=CARTESIAN_POINT('',(-1.585570496647E-1,2.405340087500E-1,
4.029665178599E-1));
#270=CARTESIAN_POINT('',(-1.590895605899E-1,2.406263206001E-1,
4.022479970915E-1));
#271=CARTESIAN_POINT('',(-1.593151356028E-1,2.406263206001E-1,
4.018970646691E-1));
#273=CURVE_STYLE('',#21,POSITIVE_LENGTH_MEASURE(2.E-2),#9);
#274=PRESENTATION_STYLE_ASSIGNMENT((#273));
#275=STYLED_ITEM('',(#274),#272);
#276=DIRECTION('',(0.E0,7.660444431190E-1,-6.427876096865E-1));
#277=VECTOR('',#276,1.620096208367E-2);
#278=CARTESIAN_POINT('',(-1.562992125984E-1,2.268093156293E-1,
4.153267653659E-1));
#279=LINE('',#278,#277);
#280=CURVE_STYLE('',#21,POSITIVE_LENGTH_MEASURE(2.E-2),#9);
#281=PRESENTATION_STYLE_ASSIGNMENT((#280));
#282=STYLED_ITEM('',(#281),#279);
#283=CARTESIAN_POINT('',(-1.562992125984E-1,2.215855837541E-1,
4.197099968567E-1));
#284=DIRECTION('',(0.E0,-1.736481777793E-1,-9.848077529924E-1));
#285=DIRECTION('',(-9.753613457295E-1,2.172617264645E-1,-3.830910427655E-2));
#286=AXIS2_PLACEMENT_3D('',#283,#284,#285);
#288=CURVE_STYLE('',#21,POSITIVE_LENGTH_MEASURE(2.E-2),#9);
#289=PRESENTATION_STYLE_ASSIGNMENT((#288));
#290=STYLED_ITEM('',(#289),#287);
#291=CARTESIAN_POINT('',(-1.601392178966E-1,2.224409448819E-1,
4.195591736113E-1));
#292=CARTESIAN_POINT('',(-1.601283601135E-1,2.224409448819E-1,
4.192827311808E-1));
#293=CARTESIAN_POINT('',(-1.601121923736E-1,2.224409449430E-1,
4.187305415807E-1));
#294=CARTESIAN_POINT('',(-1.601129664885E-1,2.224409446680E-1,
4.179067448992E-1));
#295=CARTESIAN_POINT('',(-1.601384535226E-1,2.224409456764E-1,
4.170792236968E-1));
#296=CARTESIAN_POINT('',(-1.601800638687E-1,2.224409419177E-1,
4.162438847518E-1));
#297=CARTESIAN_POINT('',(-1.602219118789E-1,2.224409559442E-1,
4.153993728385E-1));
#298=CARTESIAN_POINT('',(-1.602362204724E-1,2.224409210459E-1,
4.148322914116E-1));
#299=CARTESIAN_POINT('',(-1.602362204724E-1,2.224409210459E-1,
4.145475768999E-1));
#301=CURVE_STYLE('',#21,POSITIVE_LENGTH_MEASURE(2.E-2),#9);
#302=PRESENTATION_STYLE_ASSIGNMENT((#301));
#303=STYLED_ITEM('',(#302),#300);
#304=CARTESIAN_POINT('',(-1.562992125984E-1,2.242786557487E-1,
4.123108423614E-1));
#305=DIRECTION('',(0.E0,-7.660444431226E-1,6.427876096823E-1));
#306=DIRECTION('',(0.E0,6.427876096823E-1,7.660444431226E-1));
#307=AXIS2_PLACEMENT_3D('',#304,#305,#306);
#309=CURVE_STYLE('',#21,POSITIVE_LENGTH_MEASURE(2.E-2),#9);
#310=PRESENTATION_STYLE_ASSIGNMENT((#309));
#311=STYLED_ITEM('',(#310),#308);
#312=CARTESIAN_POINT('',(-1.562992125984E-1,2.293399755100E-1,
4.183426883703E-1));
#313=DIRECTION('',(1.E0,0.E0,0.E0));
#314=DIRECTION('',(0.E0,-1.E0,0.E0));
#315=AXIS2_PLACEMENT_3D('',#312,#313,#314);
#317=CURVE_STYLE('',#21,POSITIVE_LENGTH_MEASURE(2.E-2),#9);
#318=PRESENTATION_STYLE_ASSIGNMENT((#317));
#319=STYLED_ITEM('',(#318),#316);
#320=CARTESIAN_POINT('',(-1.562992125984E-1,2.293399755100E-1,
4.183426883703E-1));
#321=DIRECTION('',(1.E0,0.E0,0.E0));
#322=DIRECTION('',(0.E0,-9.848077529878E-1,1.736481778053E-1));
#323=AXIS2_PLACEMENT_3D('',#320,#321,#322);
#325=CURVE_STYLE('',#21,POSITIVE_LENGTH_MEASURE(2.E-2),#9);
#326=PRESENTATION_STYLE_ASSIGNMENT((#325));
#327=STYLED_ITEM('',(#326),#324);
#328=DIRECTION('',(0.E0,-1.736481776670E-1,-9.848077530122E-1));
#329=VECTOR('',#328,1.742793768269E-1);
#330=CARTESIAN_POINT('',(-1.562992125984E-1,2.557260758230E-1,
5.906580241028E-1));
#331=LINE('',#330,#329);
#332=CURVE_STYLE('',#21,POSITIVE_LENGTH_MEASURE(2.E-2),#9);
#333=PRESENTATION_STYLE_ASSIGNMENT((#332));
#334=STYLED_ITEM('',(#333),#331);
#335=CARTESIAN_POINT('',(-1.562992125984E-1,2.519685039370E-1,
5.927089868312E-1));
#336=DIRECTION('',(0.E0,0.E0,-1.E0));
#337=DIRECTION('',(-1.E0,-1.409983241274E-14,0.E0));
#338=AXIS2_PLACEMENT_3D('',#335,#336,#337);
#340=CURVE_STYLE('',#21,POSITIVE_LENGTH_MEASURE(2.E-2),#9);
#341=PRESENTATION_STYLE_ASSIGNMENT((#340));
#342=STYLED_ITEM('',(#341),#339);
#343=CARTESIAN_POINT('',(-1.562992125984E-1,2.518488799450E-1,
5.913416783456E-1));
#344=DIRECTION('',(0.E0,1.736481776671E-1,9.848077530122E-1));
#345=DIRECTION('',(0.E0,9.848077530122E-1,-1.736481776671E-1));
#346=AXIS2_PLACEMENT_3D('',#343,#344,#345);
#348=CURVE_STYLE('',#21,POSITIVE_LENGTH_MEASURE(2.E-2),#9);
#349=PRESENTATION_STYLE_ASSIGNMENT((#348));
#350=STYLED_ITEM('',(#349),#347);
#351=CARTESIAN_POINT('',(-1.562992125984E-1,2.440944881890E-1,
5.927089868312E-1));
#352=DIRECTION('',(-1.E0,0.E0,0.E0));
#353=DIRECTION('',(0.E0,1.E0,0.E0));
#354=AXIS2_PLACEMENT_3D('',#351,#352,#353);
#356=CURVE_STYLE('',#21,POSITIVE_LENGTH_MEASURE(2.E-2),#9);
#357=PRESENTATION_STYLE_ASSIGNMENT((#356));
#358=STYLED_ITEM('',(#357),#355);
#359=DIRECTION('',(0.E0,0.E0,1.E0));
#360=VECTOR('',#359,2.054502502127E-2);
#361=CARTESIAN_POINT('',(-1.602362204724E-1,2.519685039370E-1,
5.927089868312E-1));
#362=LINE('',#361,#360);
#363=CURVE_STYLE('',#21,POSITIVE_LENGTH_MEASURE(2.E-2),#9);
#364=PRESENTATION_STYLE_ASSIGNMENT((#363));
#365=STYLED_ITEM('',(#364),#362);
#366=DIRECTION('',(0.E0,0.E0,-1.E0));
#367=VECTOR('',#366,2.054502502127E-2);
#368=CARTESIAN_POINT('',(-1.562992125984E-1,2.559055118110E-1,
6.132540118525E-1));
#369=LINE('',#368,#367);
#370=CURVE_STYLE('',#21,POSITIVE_LENGTH_MEASURE(2.E-2),#9);
#371=PRESENTATION_STYLE_ASSIGNMENT((#370));
#372=STYLED_ITEM('',(#371),#369);
#373=DIRECTION('',(1.E0,0.E0,0.E0));
#374=VECTOR('',#373,4.330708661417E-2);
#375=CARTESIAN_POINT('',(-1.562992125984E-1,2.559055118110E-1,
5.927089868312E-1));
#376=LINE('',#375,#374);
#377=CURVE_STYLE('',#21,POSITIVE_LENGTH_MEASURE(2.E-2),#9);
#378=PRESENTATION_STYLE_ASSIGNMENT((#377));
#379=STYLED_ITEM('',(#378),#376);
#380=DIRECTION('',(-1.E0,0.E0,0.E0));
#381=VECTOR('',#380,4.330708661417E-2);
#382=CARTESIAN_POINT('',(-1.129921259843E-1,2.557260758230E-1,
5.906580241028E-1));
#383=LINE('',#382,#381);
#384=CURVE_STYLE('',#21,POSITIVE_LENGTH_MEASURE(2.E-2),#9);
#385=PRESENTATION_STYLE_ASSIGNMENT((#384));
#386=STYLED_ITEM('',(#385),#383);
#387=DIRECTION('',(1.E0,2.512333775361E-13,1.429210285473E-12));
#388=VECTOR('',#387,4.330708661417E-2);
#389=CARTESIAN_POINT('',(-1.562992125984E-1,2.254627796321E-1,
4.190263426136E-1));
#390=LINE('',#389,#388);
#391=CURVE_STYLE('',#21,POSITIVE_LENGTH_MEASURE(2.E-2),#9);
#392=PRESENTATION_STYLE_ASSIGNMENT((#391));
#393=STYLED_ITEM('',(#392),#390);
#394=DIRECTION('',(-1.E0,0.E0,0.E0));
#395=VECTOR('',#394,4.330708661417E-2);
#396=CARTESIAN_POINT('',(-1.129921259843E-1,2.268093156293E-1,
4.153267653659E-1));
#397=LINE('',#396,#395);
#398=CURVE_STYLE('',#21,POSITIVE_LENGTH_MEASURE(2.E-2),#9);
#399=PRESENTATION_STYLE_ASSIGNMENT((#398));
#400=STYLED_ITEM('',(#399),#397);
#401=CARTESIAN_POINT('',(-1.129921259843E-1,2.242786557487E-1,
4.123108423614E-1));
#402=DIRECTION('',(0.E0,-7.660444431226E-1,6.427876096823E-1));
#403=DIRECTION('',(1.E0,-2.467470672229E-13,-2.960964806675E-13));
#404=AXIS2_PLACEMENT_3D('',#401,#402,#403);
#406=CURVE_STYLE('',#21,POSITIVE_LENGTH_MEASURE(2.E-2),#9);
#407=PRESENTATION_STYLE_ASSIGNMENT((#406));
#408=STYLED_ITEM('',(#407),#405);
#409=CARTESIAN_POINT('',(-1.090551181102E-1,2.224409448819E-1,
4.145474939888E-1));
#410=CARTESIAN_POINT('',(-1.090551181102E-1,2.224409448819E-1,
4.148338548150E-1));
#411=CARTESIAN_POINT('',(-1.090695782314E-1,2.224409448743E-1,
4.154023051200E-1));
#412=CARTESIAN_POINT('',(-1.091110764705E-1,2.224409449084E-1,
4.162401624677E-1));
#413=CARTESIAN_POINT('',(-1.091524544632E-1,2.224409447835E-1,
4.170696124314E-1));
#414=CARTESIAN_POINT('',(-1.091781566379E-1,2.224409452491E-1,
4.178961184390E-1));
#415=CARTESIAN_POINT('',(-1.091793812168E-1,2.224409435115E-1,
4.187169468647E-1));
#416=CARTESIAN_POINT('',(-1.091631942195E-1,2.224409478347E-1,
4.192772373545E-1));
#417=CARTESIAN_POINT('',(-1.091521253508E-1,2.224409478347E-1,
4.195590510212E-1));
#419=CURVE_STYLE('',#21,POSITIVE_LENGTH_MEASURE(2.E-2),#9);
#420=PRESENTATION_STYLE_ASSIGNMENT((#419));
#421=STYLED_ITEM('',(#420),#418);
#422=CARTESIAN_POINT('',(-1.129921259843E-1,2.215855837542E-1,
4.197099968569E-1));
#423=DIRECTION('',(0.E0,-1.736481778053E-1,-9.848077529878E-1));
#424=DIRECTION('',(0.E0,9.848077529878E-1,-1.736481778053E-1));
#425=AXIS2_PLACEMENT_3D('',#422,#423,#424);
#427=CURVE_STYLE('',#21,POSITIVE_LENGTH_MEASURE(2.E-2),#9);
#428=PRESENTATION_STYLE_ASSIGNMENT((#427));
#429=STYLED_ITEM('',(#428),#426);
#430=CARTESIAN_POINT('',(-1.129921259843E-1,2.293399755100E-1,
4.183426883703E-1));
#431=DIRECTION('',(-1.E0,0.E0,0.E0));
#432=DIRECTION('',(0.E0,-1.E0,0.E0));
#433=AXIS2_PLACEMENT_3D('',#430,#431,#432);
#435=CURVE_STYLE('',#21,POSITIVE_LENGTH_MEASURE(2.E-2),#9);
#436=PRESENTATION_STYLE_ASSIGNMENT((#435));
#437=STYLED_ITEM('',(#436),#434);
#438=CARTESIAN_POINT('',(-1.129921259843E-1,2.293399755100E-1,
4.183426883703E-1));
#439=DIRECTION('',(-1.E0,0.E0,0.E0));
#440=DIRECTION('',(0.E0,-6.427876096823E-1,-7.660444431226E-1));
#441=AXIS2_PLACEMENT_3D('',#438,#439,#440);
#443=CURVE_STYLE('',#21,POSITIVE_LENGTH_MEASURE(2.E-2),#9);
#444=PRESENTATION_STYLE_ASSIGNMENT((#443));
#445=STYLED_ITEM('',(#444),#442);
#446=DIRECTION('',(0.E0,1.442092317858E-13,1.E0));
#447=VECTOR('',#446,4.426750154995E-3);
#448=CARTESIAN_POINT('',(-1.090551181102E-1,2.224409448819E-1,
4.101207438338E-1));
#449=LINE('',#448,#447);
#450=CURVE_STYLE('',#21,POSITIVE_LENGTH_MEASURE(2.E-2),#9);
#451=PRESENTATION_STYLE_ASSIGNMENT((#450));
#452=STYLED_ITEM('',(#451),#449);
#453=DIRECTION('',(0.E0,5.384440454622E-6,-9.999999999855E-1));
#454=VECTOR('',#453,4.426833066186E-3);
#455=CARTESIAN_POINT('',(-1.602362204724E-1,2.224409210459E-1,
4.145475768999E-1));
#456=LINE('',#455,#454);
#457=CURVE_STYLE('',#21,POSITIVE_LENGTH_MEASURE(2.E-2),#9);
#458=PRESENTATION_STYLE_ASSIGNMENT((#457));
#459=STYLED_ITEM('',(#458),#456);
#460=CARTESIAN_POINT('',(-1.602362204724E-1,2.224409448819E-1,
4.245609908698E-1));
#461=CARTESIAN_POINT('',(-1.602362204724E-1,2.224409448819E-1,
4.228930837027E-1));
#462=CARTESIAN_POINT('',(-1.602046775352E-1,2.224409448819E-1,
4.212257957501E-1));
#463=CARTESIAN_POINT('',(-1.601392178966E-1,2.224409448819E-1,
4.195591736112E-1));
#465=CURVE_STYLE('',#21,POSITIVE_LENGTH_MEASURE(2.E-2),#9);
#466=PRESENTATION_STYLE_ASSIGNMENT((#465));
#467=STYLED_ITEM('',(#466),#464);
#468=DIRECTION('',(-1.E0,-2.006514612582E-14,-1.193062742616E-13));
#469=VECTOR('',#468,5.118110236220E-2);
#470=CARTESIAN_POINT('',(-1.090551181102E-1,2.224409448819E-1,
4.472333156066E-1));
#471=LINE('',#470,#469);
#472=CURVE_STYLE('',#21,POSITIVE_LENGTH_MEASURE(2.E-2),#9);
#473=PRESENTATION_STYLE_ASSIGNMENT((#472));
#474=STYLED_ITEM('',(#473),#471);
#475=CARTESIAN_POINT('',(-1.091521253508E-1,2.224409478347E-1,
4.195590510212E-1));
#476=CARTESIAN_POINT('',(-1.091310772076E-1,2.224409478347E-1,
4.200949430941E-1));
#477=CARTESIAN_POINT('',(-1.090955504305E-1,2.224409435039E-1,
4.211796978941E-1));
#478=CARTESIAN_POINT('',(-1.090626361444E-1,2.224409452756E-1,
4.228530231708E-1));
#479=CARTESIAN_POINT('',(-1.090551181102E-1,2.224409448819E-1,
4.239878190264E-1));
#480=CARTESIAN_POINT('',(-1.090551181102E-1,2.224409448819E-1,
4.245609908698E-1));
#482=CURVE_STYLE('',#21,POSITIVE_LENGTH_MEASURE(2.E-2),#9);
#483=PRESENTATION_STYLE_ASSIGNMENT((#482));
#484=STYLED_ITEM('',(#483),#481);
#485=DIRECTION('',(-1.E0,0.E0,-2.169204986575E-14));
#486=VECTOR('',#485,5.118110236220E-2);
#487=CARTESIAN_POINT('',(-1.090551181102E-1,2.224409448819E-1,
4.101207438338E-1));
#488=LINE('',#487,#486);
#489=CURVE_STYLE('',#21,POSITIVE_LENGTH_MEASURE(2.E-2),#9);
#490=PRESENTATION_STYLE_ASSIGNMENT((#489));
#491=STYLED_ITEM('',(#490),#488);
#492=DIRECTION('',(1.E0,0.E0,0.E0));
#493=VECTOR('',#492,5.118110236220E-2);
#494=CARTESIAN_POINT('',(-1.602362204724E-1,2.230980418982E-1,
4.081620962311E-1));
#495=LINE('',#494,#493);
#496=CURVE_STYLE('',#21,POSITIVE_LENGTH_MEASURE(2.E-2),#9);
#497=PRESENTATION_STYLE_ASSIGNMENT((#496));
#498=STYLED_ITEM('',(#497),#495);
#499=DIRECTION('',(-1.E0,0.E0,0.E0));
#500=VECTOR('',#499,5.118110236220E-2);
#501=CARTESIAN_POINT('',(-1.090551181102E-1,2.371745758498E-1,
3.963504817840E-1));
#502=LINE('',#501,#500);
#503=CURVE_STYLE('',#21,POSITIVE_LENGTH_MEASURE(2.E-2),#9);
#504=PRESENTATION_STYLE_ASSIGNMENT((#503));
#505=STYLED_ITEM('',(#504),#502);
#506=DIRECTION('',(-1.E0,0.E0,0.E0));
#507=VECTOR('',#506,5.118110236220E-2);
#508=CARTESIAN_POINT('',(-1.090551181102E-1,2.480314960630E-1,
5.927089868312E-1));
#509=LINE('',#508,#507);
#510=CURVE_STYLE('',#21,POSITIVE_LENGTH_MEASURE(2.E-2),#9);
#511=PRESENTATION_STYLE_ASSIGNMENT((#510));
#512=STYLED_ITEM('',(#511),#509);
#513=DIRECTION('',(1.E0,0.E0,0.E0));
#514=VECTOR('',#513,5.118110236220E-2);
#515=CARTESIAN_POINT('',(-1.602362204724E-1,2.479716840670E-1,
5.920253325884E-1));
#516=LINE('',#515,#514);
#517=CURVE_STYLE('',#21,POSITIVE_LENGTH_MEASURE(2.E-2),#9);
#518=PRESENTATION_STYLE_ASSIGNMENT((#517));
#519=STYLED_ITEM('',(#518),#516);
#520=DIRECTION('',(-1.E0,0.E0,0.E0));
#521=VECTOR('',#520,5.118110236220E-2);
#522=CARTESIAN_POINT('',(-1.090551181102E-1,2.480314960630E-1,
6.132540118525E-1));
#523=LINE('',#522,#521);
#524=CURVE_STYLE('',#21,POSITIVE_LENGTH_MEASURE(2.E-2),#9);
#525=PRESENTATION_STYLE_ASSIGNMENT((#524));
#526=STYLED_ITEM('',(#525),#523);
#527=DIRECTION('',(0.E0,1.736481776670E-1,9.848077530122E-1));
#528=VECTOR('',#527,1.742793768268E-1);
#529=CARTESIAN_POINT('',(-1.129921259843E-1,2.254627796321E-1,
4.190263426136E-1));
#530=LINE('',#529,#528);
#531=CURVE_STYLE('',#21,POSITIVE_LENGTH_MEASURE(2.E-2),#9);
#532=PRESENTATION_STYLE_ASSIGNMENT((#531));
#533=STYLED_ITEM('',(#532),#530);
#534=CARTESIAN_POINT('',(-1.129921259843E-1,2.518488799450E-1,
5.913416783456E-1));
#535=DIRECTION('',(0.E0,1.736481776671E-1,9.848077530122E-1));
#536=DIRECTION('',(1.E0,2.819966482548E-14,0.E0));
#537=AXIS2_PLACEMENT_3D('',#534,#535,#536);
#539=CURVE_STYLE('',#21,POSITIVE_LENGTH_MEASURE(2.E-2),#9);
#540=PRESENTATION_STYLE_ASSIGNMENT((#539));
#541=STYLED_ITEM('',(#540),#538);
#542=CARTESIAN_POINT('',(-1.129921259843E-1,2.519685039370E-1,
5.927089868312E-1));
#543=DIRECTION('',(0.E0,0.E0,-1.E0));
#544=DIRECTION('',(0.E0,1.E0,0.E0));
#545=AXIS2_PLACEMENT_3D('',#542,#543,#544);
#547=CURVE_STYLE('',#21,POSITIVE_LENGTH_MEASURE(2.E-2),#9);
#548=PRESENTATION_STYLE_ASSIGNMENT((#547));
#549=STYLED_ITEM('',(#548),#546);
#550=CARTESIAN_POINT('',(-1.129921259843E-1,2.440944881890E-1,
5.927089868312E-1));
#551=DIRECTION('',(1.E0,0.E0,0.E0));
#552=DIRECTION('',(0.E0,9.848077530122E-1,-1.736481776671E-1));
#553=AXIS2_PLACEMENT_3D('',#550,#551,#552);
#555=CURVE_STYLE('',#21,POSITIVE_LENGTH_MEASURE(2.E-2),#9);
#556=PRESENTATION_STYLE_ASSIGNMENT((#555));
#557=STYLED_ITEM('',(#556),#554);
#558=DIRECTION('',(0.E0,0.E0,1.E0));
#559=VECTOR('',#558,2.054502502127E-2);
#560=CARTESIAN_POINT('',(-1.129921259843E-1,2.559055118110E-1,
5.927089868312E-1));
#561=LINE('',#560,#559);
#562=CURVE_STYLE('',#21,POSITIVE_LENGTH_MEASURE(2.E-2),#9);
#563=PRESENTATION_STYLE_ASSIGNMENT((#562));
#564=STYLED_ITEM('',(#563),#561);
#565=DIRECTION('',(0.E0,0.E0,-1.E0));
#566=VECTOR('',#565,2.054502502127E-2);
#567=CARTESIAN_POINT('',(-1.090551181102E-1,2.519685039370E-1,
6.132540118525E-1));
#568=LINE('',#567,#566);
#569=CURVE_STYLE('',#21,POSITIVE_LENGTH_MEASURE(2.E-2),#9);
#570=PRESENTATION_STYLE_ASSIGNMENT((#569));
#571=STYLED_ITEM('',(#570),#568);
#572=CARTESIAN_POINT('',(-1.090551181102E-1,2.397052357305E-1,
3.993664047884E-1));
#573=CARTESIAN_POINT('',(-1.602362204724E-1,2.397052357305E-1,
3.993664047884E-1));
#574=VERTEX_POINT('',#572);
#575=VERTEX_POINT('',#573);
#576=CARTESIAN_POINT('',(-1.602362204724E-1,2.519685039370E-1,
5.927089868312E-1));
#577=CARTESIAN_POINT('',(-1.562992125984E-1,2.559055118110E-1,
5.927089868312E-1));
#578=VERTEX_POINT('',#576);
#579=VERTEX_POINT('',#577);
#580=CARTESIAN_POINT('',(-1.129921259843E-1,2.392199726067E-1,
4.049129876735E-1));
#581=CARTESIAN_POINT('',(-1.129921259843E-1,2.268093156293E-1,
4.153267653659E-1));
#582=VERTEX_POINT('',#580);
#583=VERTEX_POINT('',#581);
#584=CARTESIAN_POINT('',(-1.562992125984E-1,2.392199726067E-1,
4.049129876735E-1));
#585=VERTEX_POINT('',#584);
#586=CARTESIAN_POINT('',(-1.090551181102E-1,2.224409448819E-1,
4.101207438338E-1));
#587=CARTESIAN_POINT('',(-1.090551181102E-1,2.224409448819E-1,
4.145474939888E-1));
#588=VERTEX_POINT('',#586);
#589=VERTEX_POINT('',#587);
#590=CARTESIAN_POINT('',(-1.090551181102E-1,2.230980418982E-1,
4.081620962311E-1));
#591=VERTEX_POINT('',#590);
#592=CARTESIAN_POINT('',(-1.090551181102E-1,2.242786557487E-1,
4.123108423614E-1));
#593=VERTEX_POINT('',#592);
#594=CARTESIAN_POINT('',(-1.090551181102E-1,2.479716840670E-1,
5.920253325884E-1));
#595=CARTESIAN_POINT('',(-1.090551181102E-1,2.224409448819E-1,
4.472333156066E-1));
#596=VERTEX_POINT('',#594);
#597=VERTEX_POINT('',#595);
#598=CARTESIAN_POINT('',(-1.090551181102E-1,2.224409448819E-1,
4.245609908698E-1));
#599=VERTEX_POINT('',#598);
#600=CARTESIAN_POINT('',(-1.602362204724E-1,2.224409448819E-1,
4.101207438338E-1));
#601=VERTEX_POINT('',#600);
#602=CARTESIAN_POINT('',(-1.602362204724E-1,2.224409210459E-1,
4.145475768999E-1));
#603=VERTEX_POINT('',#602);
#604=CARTESIAN_POINT('',(-1.562992125984E-1,2.559055118110E-1,
6.132540118525E-1));
#605=VERTEX_POINT('',#604);
#606=CARTESIAN_POINT('',(-1.602362204724E-1,2.224409448819E-1,
4.472333156066E-1));
#607=VERTEX_POINT('',#606);
#608=CARTESIAN_POINT('',(-1.602362204724E-1,2.230980418982E-1,
4.081620962311E-1));
#609=VERTEX_POINT('',#608);
#610=CARTESIAN_POINT('',(-1.602362204724E-1,2.371745758498E-1,
3.963504817840E-1));
#611=VERTEX_POINT('',#610);
#612=CARTESIAN_POINT('',(-1.090551181102E-1,2.480314960630E-1,
5.927089868312E-1));
#613=VERTEX_POINT('',#612);
#614=CARTESIAN_POINT('',(-1.090551181102E-1,2.480314960630E-1,
6.132540118525E-1));
#615=VERTEX_POINT('',#614);
#616=CARTESIAN_POINT('',(-1.090551181102E-1,2.519685039370E-1,
6.132540118525E-1));
#617=VERTEX_POINT('',#616);
#618=CARTESIAN_POINT('',(-1.090551181102E-1,2.371745758498E-1,
3.963504817840E-1));
#619=VERTEX_POINT('',#618);
#620=CARTESIAN_POINT('',(-1.602362204724E-1,2.224409448819E-1,
4.245609908698E-1));
#621=VERTEX_POINT('',#620);
#622=CARTESIAN_POINT('',(-1.602362204724E-1,2.479716840670E-1,
5.920253325884E-1));
#623=VERTEX_POINT('',#622);
#624=CARTESIAN_POINT('',(-1.602362204724E-1,2.480314960630E-1,
5.927089868312E-1));
#625=VERTEX_POINT('',#624);
#626=CARTESIAN_POINT('',(-1.602362204724E-1,2.480314960630E-1,
6.132540118525E-1));
#627=VERTEX_POINT('',#626);
#628=CARTESIAN_POINT('',(-1.602362204724E-1,2.519685039370E-1,
6.132540118525E-1));
#629=VERTEX_POINT('',#628);
#630=CARTESIAN_POINT('',(-1.562992125984E-1,2.268093156293E-1,
4.153267653659E-1));
#631=VERTEX_POINT('',#630);
#632=CARTESIAN_POINT('',(-1.562992125984E-1,2.254627796321E-1,
4.190263426136E-1));
#633=CARTESIAN_POINT('',(-1.129921259843E-1,2.254627796321E-1,
4.190263426136E-1));
#634=VERTEX_POINT('',#632);
#635=VERTEX_POINT('',#633);
#636=CARTESIAN_POINT('',(-1.129921259843E-1,2.557260758230E-1,
5.906580241028E-1));
#637=CARTESIAN_POINT('',(-1.562992125984E-1,2.557260758230E-1,
5.906580241028E-1));
#638=VERTEX_POINT('',#636);
#639=VERTEX_POINT('',#637);
#640=CARTESIAN_POINT('',(-1.129921259843E-1,2.559055118110E-1,
5.927089868312E-1));
#641=VERTEX_POINT('',#640);
#642=CARTESIAN_POINT('',(-1.129921259843E-1,2.559055118110E-1,
6.132540118525E-1));
#643=VERTEX_POINT('',#642);
#644=CARTESIAN_POINT('',(-1.090551181102E-1,2.518488799450E-1,
5.913416783456E-1));
#645=VERTEX_POINT('',#644);
#646=CARTESIAN_POINT('',(-1.090551181102E-1,2.519685039370E-1,
5.927089868312E-1));
#647=VERTEX_POINT('',#646);
#648=VERTEX_POINT('',#291);
#649=VERTEX_POINT('',#417);
#650=CARTESIAN_POINT('',(-1.602362204724E-1,2.242786557487E-1,
4.123108423615E-1));
#651=VERTEX_POINT('',#650);
#652=CARTESIAN_POINT('',(-1.602362204724E-1,2.518488799450E-1,
5.913416783456E-1));
#653=VERTEX_POINT('',#652);
#654=CARTESIAN_POINT('',(-1.129921259843E-1,2.254029676359E-1,
4.183426883703E-1));
#655=VERTEX_POINT('',#654);
#656=VERTEX_POINT('',#229);
#657=VERTEX_POINT('',#256);
#658=CARTESIAN_POINT('',(-1.562992125984E-1,2.254029676359E-1,
4.183426883703E-1));
#659=VERTEX_POINT('',#658);
#660=CARTESIAN_POINT('',(-1.602362204724E-1,2.440944881890E-1,
5.927089868312E-1));
#661=DIRECTION('',(1.E0,0.E0,0.E0));
#662=DIRECTION('',(0.E0,-1.E0,0.E0));
#663=AXIS2_PLACEMENT_3D('',#660,#661,#662);
#664=PLANE('',#663);
#666=ORIENTED_EDGE('',*,*,#665,.F.);
#668=ORIENTED_EDGE('',*,*,#667,.F.);
#670=ORIENTED_EDGE('',*,*,#669,.F.);
#672=ORIENTED_EDGE('',*,*,#671,.F.);
#674=ORIENTED_EDGE('',*,*,#673,.F.);
#676=ORIENTED_EDGE('',*,*,#675,.F.);
#678=ORIENTED_EDGE('',*,*,#677,.F.);
#680=ORIENTED_EDGE('',*,*,#679,.T.);
#681=EDGE_LOOP('',(#666,#668,#670,#672,#674,#676,#678,#680));
#682=FACE_OUTER_BOUND('',#681,.F.);
#684=CARTESIAN_POINT('',(-1.602362204724E-1,2.440944881890E-1,
5.927089868312E-1));
#685=DIRECTION('',(1.E0,0.E0,0.E0));
#686=DIRECTION('',(0.E0,-1.E0,0.E0));
#687=AXIS2_PLACEMENT_3D('',#684,#685,#686);
#688=PLANE('',#687);
#690=ORIENTED_EDGE('',*,*,#689,.T.);
#692=ORIENTED_EDGE('',*,*,#691,.F.);
#694=ORIENTED_EDGE('',*,*,#693,.F.);
#696=ORIENTED_EDGE('',*,*,#695,.F.);
#698=ORIENTED_EDGE('',*,*,#697,.F.);
#700=ORIENTED_EDGE('',*,*,#699,.F.);
#701=EDGE_LOOP('',(#690,#692,#694,#696,#698,#700));
#702=FACE_OUTER_BOUND('',#701,.F.);
#704=CARTESIAN_POINT('',(-1.090551181102E-1,2.480314960630E-1,
6.132540118525E-1));
#705=DIRECTION('',(0.E0,0.E0,-1.E0));
#706=DIRECTION('',(-1.E0,0.E0,0.E0));
#707=AXIS2_PLACEMENT_3D('',#704,#705,#706);
#708=PLANE('',#707);
#710=ORIENTED_EDGE('',*,*,#709,.T.);
#712=ORIENTED_EDGE('',*,*,#711,.T.);
#713=ORIENTED_EDGE('',*,*,#665,.T.);
#715=ORIENTED_EDGE('',*,*,#714,.F.);
#717=ORIENTED_EDGE('',*,*,#716,.F.);
#719=ORIENTED_EDGE('',*,*,#718,.F.);
#720=EDGE_LOOP('',(#710,#712,#713,#715,#717,#719));
#721=FACE_OUTER_BOUND('',#720,.F.);
#723=CARTESIAN_POINT('',(-1.090551181102E-1,2.440944881890E-1,
5.927089868312E-1));
#724=DIRECTION('',(1.E0,0.E0,0.E0));
#725=DIRECTION('',(0.E0,-1.E0,0.E0));
#726=AXIS2_PLACEMENT_3D('',#723,#724,#725);
#727=PLANE('',#726);
#729=ORIENTED_EDGE('',*,*,#728,.F.);
#731=ORIENTED_EDGE('',*,*,#730,.F.);
#733=ORIENTED_EDGE('',*,*,#732,.F.);
#735=ORIENTED_EDGE('',*,*,#734,.F.);
#737=ORIENTED_EDGE('',*,*,#736,.T.);
#739=ORIENTED_EDGE('',*,*,#738,.F.);
#740=EDGE_LOOP('',(#729,#731,#733,#735,#737,#739));
#741=FACE_OUTER_BOUND('',#740,.F.);
#743=CARTESIAN_POINT('',(-1.090551181102E-1,2.440944881890E-1,
5.927089868312E-1));
#744=DIRECTION('',(1.E0,0.E0,0.E0));
#745=DIRECTION('',(0.E0,-1.E0,0.E0));
#746=AXIS2_PLACEMENT_3D('',#743,#744,#745);
#747=PLANE('',#746);
#749=ORIENTED_EDGE('',*,*,#748,.F.);
#751=ORIENTED_EDGE('',*,*,#750,.F.);
#753=ORIENTED_EDGE('',*,*,#752,.F.);
#755=ORIENTED_EDGE('',*,*,#754,.F.);
#757=ORIENTED_EDGE('',*,*,#756,.F.);
#759=ORIENTED_EDGE('',*,*,#758,.F.);
#760=ORIENTED_EDGE('',*,*,#709,.F.);
#762=ORIENTED_EDGE('',*,*,#761,.T.);
#763=EDGE_LOOP('',(#749,#751,#753,#755,#757,#759,#760,#762));
#764=FACE_OUTER_BOUND('',#763,.F.);
#766=CARTESIAN_POINT('',(-1.129921259843E-1,2.256287017788E-1,
4.111780192355E-1));
#767=DIRECTION('',(0.E0,-7.660444431190E-1,6.427876096865E-1));
#768=DIRECTION('',(0.E0,-6.427876096865E-1,-7.660444431190E-1));
#769=AXIS2_PLACEMENT_3D('',#766,#767,#768);
#770=CYLINDRICAL_SURFACE('',#769,3.937007874016E-3);
#772=ORIENTED_EDGE('',*,*,#771,.T.);
#773=ORIENTED_EDGE('',*,*,#728,.T.);
#775=ORIENTED_EDGE('',*,*,#774,.T.);
#777=ORIENTED_EDGE('',*,*,#776,.F.);
#779=ORIENTED_EDGE('',*,*,#778,.T.);
#780=EDGE_LOOP('',(#772,#773,#775,#777,#779));
#781=FACE_OUTER_BOUND('',#780,.F.);
#783=CARTESIAN_POINT('',(-1.090551181102E-1,2.366893127260E-1,
4.018970646691E-1));
#784=DIRECTION('',(-1.E0,0.E0,0.E0));
#785=DIRECTION('',(0.E0,-1.E0,0.E0));
#786=AXIS2_PLACEMENT_3D('',#783,#784,#785);
#787=CYLINDRICAL_SURFACE('',#786,3.937007874016E-3);
#789=ORIENTED_EDGE('',*,*,#788,.T.);
#791=ORIENTED_EDGE('',*,*,#790,.F.);
#792=ORIENTED_EDGE('',*,*,#771,.F.);
#793=ORIENTED_EDGE('',*,*,#778,.F.);
#795=ORIENTED_EDGE('',*,*,#794,.F.);
#797=ORIENTED_EDGE('',*,*,#796,.T.);
#798=EDGE_LOOP('',(#789,#791,#792,#793,#795,#797));
#799=FACE_OUTER_BOUND('',#798,.F.);
#801=CARTESIAN_POINT('',(-1.562992125984E-1,1.470783179135E-1,
4.770896173657E-1));
#802=DIRECTION('',(0.E0,7.660444431190E-1,-6.427876096865E-1));
#803=DIRECTION('',(0.E0,6.427876096865E-1,7.660444431190E-1));
#804=AXIS2_PLACEMENT_3D('',#801,#802,#803);
#805=CYLINDRICAL_SURFACE('',#804,3.937007874016E-3);
#807=ORIENTED_EDGE('',*,*,#806,.T.);
#808=ORIENTED_EDGE('',*,*,#697,.T.);
#809=ORIENTED_EDGE('',*,*,#788,.F.);
#810=ORIENTED_EDGE('',*,*,#796,.F.);
#812=ORIENTED_EDGE('',*,*,#811,.F.);
#813=EDGE_LOOP('',(#807,#808,#809,#810,#812));
#814=FACE_OUTER_BOUND('',#813,.F.);
#816=CARTESIAN_POINT('',(-1.562992125984E-1,2.293399755100E-1,
4.183426883703E-1));
#817=DIRECTION('',(1.E0,0.E0,0.E0));
#818=DIRECTION('',(0.E0,1.E0,0.E0));
#819=AXIS2_PLACEMENT_3D('',#816,#817,#818);
#820=TOROIDAL_SURFACE('',#819,7.874015748027E-3,3.937007874016E-3);
#822=ORIENTED_EDGE('',*,*,#821,.F.);
#824=ORIENTED_EDGE('',*,*,#823,.T.);
#825=ORIENTED_EDGE('',*,*,#699,.T.);
#826=ORIENTED_EDGE('',*,*,#806,.F.);
#828=ORIENTED_EDGE('',*,*,#827,.F.);
#830=ORIENTED_EDGE('',*,*,#829,.F.);
#831=EDGE_LOOP('',(#822,#824,#825,#826,#828,#830));
#832=FACE_OUTER_BOUND('',#831,.F.);
#834=CARTESIAN_POINT('',(-1.562992125984E-1,2.518488799450E-1,
5.913416783456E-1));
#835=DIRECTION('',(0.E0,-1.736481776670E-1,-9.848077530122E-1));
#836=DIRECTION('',(0.E0,9.848077530122E-1,-1.736481776670E-1));
#837=AXIS2_PLACEMENT_3D('',#834,#835,#836);
#838=CYLINDRICAL_SURFACE('',#837,3.937007874016E-3);
#840=ORIENTED_EDGE('',*,*,#839,.T.);
#841=ORIENTED_EDGE('',*,*,#675,.T.);
#843=ORIENTED_EDGE('',*,*,#842,.T.);
#844=ORIENTED_EDGE('',*,*,#821,.T.);
#846=ORIENTED_EDGE('',*,*,#845,.F.);
#847=EDGE_LOOP('',(#840,#841,#843,#844,#846));
#848=FACE_OUTER_BOUND('',#847,.F.);
#850=CARTESIAN_POINT('',(-1.562992125984E-1,2.440944881890E-1,
5.927089868312E-1));
#851=DIRECTION('',(1.E0,0.E0,0.E0));
#852=DIRECTION('',(0.E0,1.E0,0.E0));
#853=AXIS2_PLACEMENT_3D('',#850,#851,#852);
#854=TOROIDAL_SURFACE('',#853,7.874015748032E-3,3.937007874016E-3);
#856=ORIENTED_EDGE('',*,*,#855,.F.);
#857=ORIENTED_EDGE('',*,*,#677,.T.);
#858=ORIENTED_EDGE('',*,*,#839,.F.);
#860=ORIENTED_EDGE('',*,*,#859,.F.);
#861=EDGE_LOOP('',(#856,#857,#858,#860));
#862=FACE_OUTER_BOUND('',#861,.F.);
#864=CARTESIAN_POINT('',(-1.562992125984E-1,2.519685039370E-1,
5.927089868312E-1));
#865=DIRECTION('',(0.E0,0.E0,-1.E0));
#866=DIRECTION('',(0.E0,1.E0,0.E0));
#867=AXIS2_PLACEMENT_3D('',#864,#865,#866);
#868=CYLINDRICAL_SURFACE('',#867,3.937007874016E-3);
#869=ORIENTED_EDGE('',*,*,#714,.T.);
#870=ORIENTED_EDGE('',*,*,#679,.F.);
#871=ORIENTED_EDGE('',*,*,#855,.T.);
#873=ORIENTED_EDGE('',*,*,#872,.F.);
#874=EDGE_LOOP('',(#869,#870,#871,#873));
#875=FACE_OUTER_BOUND('',#874,.F.);
#877=CARTESIAN_POINT('',(-1.090551181102E-1,2.559055118110E-1,
6.132540118525E-1));
#878=DIRECTION('',(0.E0,-1.E0,0.E0));
#879=DIRECTION('',(0.E0,0.E0,1.E0));
#880=AXIS2_PLACEMENT_3D('',#877,#878,#879);
#881=PLANE('',#880);
#882=ORIENTED_EDGE('',*,*,#716,.T.);
#883=ORIENTED_EDGE('',*,*,#872,.T.);
#885=ORIENTED_EDGE('',*,*,#884,.T.);
#887=ORIENTED_EDGE('',*,*,#886,.T.);
#888=EDGE_LOOP('',(#882,#883,#885,#887));
#889=FACE_OUTER_BOUND('',#888,.F.);
#891=CARTESIAN_POINT('',(-1.090551181102E-1,2.440944881890E-1,
5.927089868312E-1));
#892=DIRECTION('',(-1.E0,0.E0,0.E0));
#893=DIRECTION('',(0.E0,1.E0,0.E0));
#894=AXIS2_PLACEMENT_3D('',#891,#892,#893);
#895=CYLINDRICAL_SURFACE('',#894,1.181102362205E-2);
#896=ORIENTED_EDGE('',*,*,#884,.F.);
#897=ORIENTED_EDGE('',*,*,#859,.T.);
#899=ORIENTED_EDGE('',*,*,#898,.F.);
#901=ORIENTED_EDGE('',*,*,#900,.T.);
#902=EDGE_LOOP('',(#896,#897,#899,#901));
#903=FACE_OUTER_BOUND('',#902,.F.);
#905=CARTESIAN_POINT('',(-1.090551181102E-1,2.557260758230E-1,
5.906580241028E-1));
#906=DIRECTION('',(0.E0,-9.848077530122E-1,1.736481776670E-1));
#907=DIRECTION('',(0.E0,1.736481776670E-1,9.848077530122E-1));
#908=AXIS2_PLACEMENT_3D('',#905,#906,#907);
#909=PLANE('',#908);
#910=ORIENTED_EDGE('',*,*,#898,.T.);
#911=ORIENTED_EDGE('',*,*,#845,.T.);
#913=ORIENTED_EDGE('',*,*,#912,.T.);
#915=ORIENTED_EDGE('',*,*,#914,.T.);
#916=EDGE_LOOP('',(#910,#911,#913,#915));
#917=FACE_OUTER_BOUND('',#916,.F.);
#919=CARTESIAN_POINT('',(-1.090551181102E-1,2.293399755100E-1,
4.183426883703E-1));
#920=DIRECTION('',(-1.E0,0.E0,0.E0));
#921=DIRECTION('',(0.E0,1.E0,0.E0));
#922=AXIS2_PLACEMENT_3D('',#919,#920,#921);
#923=CYLINDRICAL_SURFACE('',#922,3.937007874011E-3);
#924=ORIENTED_EDGE('',*,*,#912,.F.);
#925=ORIENTED_EDGE('',*,*,#829,.T.);
#926=ORIENTED_EDGE('',*,*,#827,.T.);
#928=ORIENTED_EDGE('',*,*,#927,.F.);
#930=ORIENTED_EDGE('',*,*,#929,.T.);
#932=ORIENTED_EDGE('',*,*,#931,.T.);
#933=EDGE_LOOP('',(#924,#925,#926,#928,#930,#932));
#934=FACE_OUTER_BOUND('',#933,.F.);
#936=CARTESIAN_POINT('',(-1.090551181102E-1,2.281593616595E-1,
4.141939422399E-1));
#937=DIRECTION('',(0.E0,-6.427876096865E-1,-7.660444431190E-1));
#938=DIRECTION('',(0.E0,-7.660444431190E-1,6.427876096865E-1));
#939=AXIS2_PLACEMENT_3D('',#936,#937,#938);
#940=PLANE('',#939);
#941=ORIENTED_EDGE('',*,*,#927,.T.);
#942=ORIENTED_EDGE('',*,*,#811,.T.);
#943=ORIENTED_EDGE('',*,*,#794,.T.);
#944=ORIENTED_EDGE('',*,*,#776,.T.);
#945=EDGE_LOOP('',(#941,#942,#943,#944));
#946=FACE_OUTER_BOUND('',#945,.F.);
#948=CARTESIAN_POINT('',(-1.129921259843E-1,2.293399755100E-1,
4.183426883703E-1));
#949=DIRECTION('',(1.E0,0.E0,0.E0));
#950=DIRECTION('',(0.E0,1.E0,0.E0));
#951=AXIS2_PLACEMENT_3D('',#948,#949,#950);
#952=TOROIDAL_SURFACE('',#951,7.874015748027E-3,3.937007874016E-3);
#953=ORIENTED_EDGE('',*,*,#774,.F.);
#954=ORIENTED_EDGE('',*,*,#738,.T.);
#956=ORIENTED_EDGE('',*,*,#955,.T.);
#958=ORIENTED_EDGE('',*,*,#957,.F.);
#959=ORIENTED_EDGE('',*,*,#931,.F.);
#960=ORIENTED_EDGE('',*,*,#929,.F.);
#961=EDGE_LOOP('',(#953,#954,#956,#958,#959,#960));
#962=FACE_OUTER_BOUND('',#961,.F.);
#964=CARTESIAN_POINT('',(-1.090551181102E-1,2.224409448819E-1,
4.195591736108E-1));
#965=DIRECTION('',(0.E0,1.E0,0.E0));
#966=DIRECTION('',(0.E0,0.E0,-1.E0));
#967=AXIS2_PLACEMENT_3D('',#964,#965,#966);
#968=PLANE('',#967);
#969=ORIENTED_EDGE('',*,*,#955,.F.);
#970=ORIENTED_EDGE('',*,*,#736,.F.);
#972=ORIENTED_EDGE('',*,*,#971,.T.);
#973=ORIENTED_EDGE('',*,*,#689,.F.);
#974=ORIENTED_EDGE('',*,*,#823,.F.);
#975=ORIENTED_EDGE('',*,*,#842,.F.);
#976=ORIENTED_EDGE('',*,*,#673,.T.);
#978=ORIENTED_EDGE('',*,*,#977,.F.);
#979=ORIENTED_EDGE('',*,*,#752,.T.);
#981=ORIENTED_EDGE('',*,*,#980,.F.);
#982=EDGE_LOOP('',(#969,#970,#972,#973,#974,#975,#976,#978,#979,#981));
#983=FACE_OUTER_BOUND('',#982,.F.);
#985=CARTESIAN_POINT('',(-1.090551181102E-1,2.230980418982E-1,
4.081620962311E-1));
#986=DIRECTION('',(0.E0,9.480695243750E-1,3.180631650338E-1));
#987=DIRECTION('',(0.E0,3.180631650338E-1,-9.480695243750E-1));
#988=AXIS2_PLACEMENT_3D('',#985,#986,#987);
#989=PLANE('',#988);
#990=ORIENTED_EDGE('',*,*,#691,.T.);
#991=ORIENTED_EDGE('',*,*,#971,.F.);
#992=ORIENTED_EDGE('',*,*,#734,.T.);
#994=ORIENTED_EDGE('',*,*,#993,.F.);
#995=EDGE_LOOP('',(#990,#991,#992,#994));
#996=FACE_OUTER_BOUND('',#995,.F.);
#998=CARTESIAN_POINT('',(-1.090551181102E-1,2.371745758498E-1,
3.963504817840E-1));
#999=DIRECTION('',(0.E0,6.427876096865E-1,7.660444431190E-1));
#1000=DIRECTION('',(0.E0,7.660444431190E-1,-6.427876096865E-1));
#1001=AXIS2_PLACEMENT_3D('',#998,#999,#1000);
#1002=PLANE('',#1001);
#1003=ORIENTED_EDGE('',*,*,#693,.T.);
#1004=ORIENTED_EDGE('',*,*,#993,.T.);
#1005=ORIENTED_EDGE('',*,*,#732,.T.);
#1007=ORIENTED_EDGE('',*,*,#1006,.T.);
#1008=EDGE_LOOP('',(#1003,#1004,#1005,#1007));
#1009=FACE_OUTER_BOUND('',#1008,.F.);
#1011=CARTESIAN_POINT('',(-1.090551181102E-1,2.422358956111E-1,
4.023823277928E-1));
#1012=DIRECTION('',(0.E0,-7.660444431193E-1,6.427876096862E-1));
#1013=DIRECTION('',(0.E0,6.427876096862E-1,7.660444431193E-1));
#1014=AXIS2_PLACEMENT_3D('',#1011,#1012,#1013);
#1015=PLANE('',#1014);
#1016=ORIENTED_EDGE('',*,*,#695,.T.);
#1017=ORIENTED_EDGE('',*,*,#1006,.F.);
#1018=ORIENTED_EDGE('',*,*,#730,.T.);
#1019=ORIENTED_EDGE('',*,*,#790,.T.);
#1020=EDGE_LOOP('',(#1016,#1017,#1018,#1019));
#1021=FACE_OUTER_BOUND('',#1020,.F.);
#1023=CARTESIAN_POINT('',(-1.090551181102E-1,2.224409448819E-1,
4.472333156066E-1));
#1024=DIRECTION('',(0.E0,9.848077530122E-1,-1.736481776669E-1));
#1025=DIRECTION('',(0.E0,-1.736481776669E-1,-9.848077530122E-1));
#1026=AXIS2_PLACEMENT_3D('',#1023,#1024,#1025);
#1027=PLANE('',#1026);
#1028=ORIENTED_EDGE('',*,*,#671,.T.);
#1030=ORIENTED_EDGE('',*,*,#1029,.T.);
#1031=ORIENTED_EDGE('',*,*,#754,.T.);
#1032=ORIENTED_EDGE('',*,*,#977,.T.);
#1033=EDGE_LOOP('',(#1028,#1030,#1031,#1032));
#1034=FACE_OUTER_BOUND('',#1033,.F.);
#1036=CARTESIAN_POINT('',(-1.090551181102E-1,2.440944881890E-1,
5.927089868312E-1));
#1037=DIRECTION('',(-1.E0,0.E0,0.E0));
#1038=DIRECTION('',(0.E0,1.E0,0.E0));
#1039=AXIS2_PLACEMENT_3D('',#1036,#1037,#1038);
#1040=CYLINDRICAL_SURFACE('',#1039,3.937007874016E-3);
#1041=ORIENTED_EDGE('',*,*,#669,.T.);
#1043=ORIENTED_EDGE('',*,*,#1042,.F.);
#1044=ORIENTED_EDGE('',*,*,#756,.T.);
#1045=ORIENTED_EDGE('',*,*,#1029,.F.);
#1046=EDGE_LOOP('',(#1041,#1043,#1044,#1045));
#1047=FACE_OUTER_BOUND('',#1046,.F.);
#1049=CARTESIAN_POINT('',(-1.090551181102E-1,2.480314960630E-1,
5.927089868312E-1));
#1050=DIRECTION('',(0.E0,1.E0,0.E0));
#1051=DIRECTION('',(0.E0,0.E0,-1.E0));
#1052=AXIS2_PLACEMENT_3D('',#1049,#1050,#1051);
#1053=PLANE('',#1052);
#1054=ORIENTED_EDGE('',*,*,#667,.T.);
#1055=ORIENTED_EDGE('',*,*,#711,.F.);
#1056=ORIENTED_EDGE('',*,*,#758,.T.);
#1057=ORIENTED_EDGE('',*,*,#1042,.T.);
#1058=EDGE_LOOP('',(#1054,#1055,#1056,#1057));
#1059=FACE_OUTER_BOUND('',#1058,.F.);
#1061=CARTESIAN_POINT('',(-1.129921259843E-1,2.518488799450E-1,
5.913416783456E-1));
#1062=DIRECTION('',(0.E0,1.736481776670E-1,9.848077530122E-1));
#1063=DIRECTION('',(0.E0,-9.848077530122E-1,1.736481776670E-1));
#1064=AXIS2_PLACEMENT_3D('',#1061,#1062,#1063);
#1065=CYLINDRICAL_SURFACE('',#1064,3.937007874016E-3);
#1066=ORIENTED_EDGE('',*,*,#957,.T.);
#1067=ORIENTED_EDGE('',*,*,#980,.T.);
#1068=ORIENTED_EDGE('',*,*,#750,.T.);
#1070=ORIENTED_EDGE('',*,*,#1069,.T.);
#1071=ORIENTED_EDGE('',*,*,#914,.F.);
#1072=EDGE_LOOP('',(#1066,#1067,#1068,#1070,#1071));
#1073=FACE_OUTER_BOUND('',#1072,.F.);
#1075=CARTESIAN_POINT('',(-1.129921259843E-1,2.440944881890E-1,
5.927089868312E-1));
#1076=DIRECTION('',(1.E0,0.E0,0.E0));
#1077=DIRECTION('',(0.E0,1.E0,0.E0));
#1078=AXIS2_PLACEMENT_3D('',#1075,#1076,#1077);
#1079=TOROIDAL_SURFACE('',#1078,7.874015748032E-3,3.937007874016E-3);
#1080=ORIENTED_EDGE('',*,*,#1069,.F.);
#1081=ORIENTED_EDGE('',*,*,#748,.T.);
#1083=ORIENTED_EDGE('',*,*,#1082,.F.);
#1084=ORIENTED_EDGE('',*,*,#900,.F.);
#1085=EDGE_LOOP('',(#1080,#1081,#1083,#1084));
#1086=FACE_OUTER_BOUND('',#1085,.F.);
#1088=CARTESIAN_POINT('',(-1.129921259843E-1,2.519685039370E-1,
6.132540118525E-1));
#1089=DIRECTION('',(0.E0,0.E0,1.E0));
#1090=DIRECTION('',(0.E0,-1.E0,0.E0));
#1091=AXIS2_PLACEMENT_3D('',#1088,#1089,#1090);
#1092=CYLINDRICAL_SURFACE('',#1091,3.937007874016E-3);
#1093=ORIENTED_EDGE('',*,*,#718,.T.);
#1094=ORIENTED_EDGE('',*,*,#886,.F.);
#1095=ORIENTED_EDGE('',*,*,#1082,.T.);
#1096=ORIENTED_EDGE('',*,*,#761,.F.);
#1097=EDGE_LOOP('',(#1093,#1094,#1095,#1096));
#1098=FACE_OUTER_BOUND('',#1097,.F.);
#1102=FILL_AREA_STYLE_COLOUR('',#9);
#1103=FILL_AREA_STYLE('',(#1102));
#1104=SURFACE_STYLE_FILL_AREA(#1103);
#1105=SURFACE_SIDE_STYLE('',(#1104));
#1106=SURFACE_STYLE_USAGE(.BOTH.,#1105);
#1107=PRESENTATION_STYLE_ASSIGNMENT((#1106));
#16=STYLED_ITEM('',(#1107),#1101);
#1108=PRESENTATION_LAYER_ASSIGNMENT('SHELL_205','',(#16,#683,#703,#722,#742,
#765,#782,#800,#815,#833,#849,#863,#876,#890,#904,#918,#935,#947,#963,#984,#997,
#1010,#1022,#1035,#1048,#1060,#1074,#1087,#1099));
#1110=LENGTH_MEASURE_WITH_UNIT(LENGTH_MEASURE(2.54E1),#1109);
#1111=(CONVERSION_BASED_UNIT('INCH',#1110)LENGTH_UNIT()NAMED_UNIT(*));
#1113=PLANE_ANGLE_MEASURE_WITH_UNIT(PLANE_ANGLE_MEASURE(1.745329251994E-2),
#1112);
#1114=(CONVERSION_BASED_UNIT('DEGREE',#1113)NAMED_UNIT(*)PLANE_ANGLE_UNIT());
#1116=UNCERTAINTY_MEASURE_WITH_UNIT(LENGTH_MEASURE(2.254964778827E-5),#1111,
'closure',
'Maximum model space distance between geometric entities at asserted connectivities');
#1118=CARTESIAN_POINT('',(0.E0,0.E0,0.E0));
#1119=DIRECTION('',(0.E0,0.E0,1.E0));
#1120=DIRECTION('',(1.E0,0.E0,0.E0));
#1123=MECHANICAL_DESIGN_GEOMETRIC_PRESENTATION_REPRESENTATION('',(#24,#31,#39,
#46,#53,#60,#68,#75,#82,#89,#96,#104,#112,#119,#127,#134,#141,#148,#155,#163,
#171,#178,#185,#192,#200,#207,#214,#221,#228,#238,#248,#255,#265,#275,#282,#290,
#303,#311,#319,#327,#334,#342,#350,#358,#365,#372,#379,#386,#393,#400,#408,#421,
#429,#437,#445,#452,#459,#467,#474,#484,#491,#498,#505,#512,#519,#526,#533,#541,
#549,#557,#564,#571,#16),#1117);
#1124=APPLICATION_CONTEXT('automotive design');
#1125=APPLICATION_PROTOCOL_DEFINITION('international standard',
'config_control_design',1994,#1124);
#1126=PRODUCT_DEFINITION_CONTEXT('',#1124,'design');
#1127=PRODUCT_CONTEXT('',#1124,'mechanical');
#1128=PRODUCT('FILLET5','FILLET5','NOT SPECIFIED',(#1127));
#1129=PRODUCT_DEFINITION_FORMATION_WITH_SPECIFIED_SOURCE('1','LAST_VERSION',
#1128,.MADE.);
#1137=LENGTH_MEASURE_WITH_UNIT(LENGTH_MEASURE(2.54E1),#1136);
#1138=(CONVERSION_BASED_UNIT('INCH',#1137)LENGTH_UNIT()NAMED_UNIT(*));
#1139=DERIVED_UNIT_ELEMENT(#1138,2.E0);
#1140=AREA_UNIT((#1139));
#1141=MEASURE_REPRESENTATION_ITEM('surface area measure',AREA_MEASURE(
1.687776274600E1),#1140);
#1146=LENGTH_MEASURE_WITH_UNIT(LENGTH_MEASURE(2.54E1),#1145);
#1147=(CONVERSION_BASED_UNIT('INCH',#1146)LENGTH_UNIT()NAMED_UNIT(*));
#1148=DERIVED_UNIT_ELEMENT(#1147,3.E0);
#1149=VOLUME_UNIT((#1148));
#1150=MEASURE_REPRESENTATION_ITEM('volume measure',VOLUME_MEASURE(
1.366677464429E0),#1149);
#1154=CARTESIAN_POINT('centre point',(-3.419999959024E0,6.051748777392E0,
1.290513587621E1));
#1159=LENGTH_MEASURE_WITH_UNIT(LENGTH_MEASURE(2.54E1),#1158);
#1160=(CONVERSION_BASED_UNIT('INCH',#1159)LENGTH_UNIT()NAMED_UNIT(*));
#1161=DERIVED_UNIT_ELEMENT(#1160,2.E0);
#1162=AREA_UNIT((#1161));
#1163=MEASURE_REPRESENTATION_ITEM('surface area measure',AREA_MEASURE(
1.687776274600E1),#1162);
#1168=LENGTH_MEASURE_WITH_UNIT(LENGTH_MEASURE(2.54E1),#1167);
#1169=(CONVERSION_BASED_UNIT('INCH',#1168)LENGTH_UNIT()NAMED_UNIT(*));
#1170=DERIVED_UNIT_ELEMENT(#1169,3.E0);
#1171=VOLUME_UNIT((#1170));
#1172=MEASURE_REPRESENTATION_ITEM('volume measure',VOLUME_MEASURE(
1.366677464429E0),#1171);
#1176=CARTESIAN_POINT('centre point',(-3.419999959024E0,6.051748777392E0,
1.290513587621E1));
#1=DRAUGHTING_PRE_DEFINED_COLOUR('green');
#2=COLOUR_RGB('',1.1E-2,1.2E-2,1.E0);
#3=COLOUR_RGB('',2.352941176471E-1,2.352941176471E-1,2.352941176471E-1);
#4=COLOUR_RGB('',4.1E-1,2.61589E-1,1.12848E-1);
#5=COLOUR_RGB('',5.04854E-1,1.5455E-2,1.5455E-2);
#6=COLOUR_RGB('',6.35294E-1,6.86275E-1,7.4902E-1);
#7=COLOUR_RGB('',6.40777E-1,6.40777E-1,6.40777E-1);
#8=COLOUR_RGB('',6.69062E-1,6.69903E-1,6.55217E-1);
#9=COLOUR_RGB('',7.921568627451E-1,8.196078431373E-1,9.333333333333E-1);
#10=COLOUR_RGB('',9.21569E-1,7.05882E-1,4.70588E-1);
#11=DRAUGHTING_PRE_DEFINED_COLOUR('red');
#12=DRAUGHTING_PRE_DEFINED_COLOUR('yellow');
#13=COLOUR_RGB('',1.E0,1.E0,5.3E-1);
#14=COLOUR_RGB('',1.E0,1.E0,9.49E-1);
#15=DRAUGHTING_PRE_DEFINED_COLOUR('white');
#36=CIRCLE('',#35,3.937007874016E-3);
#65=CIRCLE('',#64,7.874015748032E-3);
#101=CIRCLE('',#100,7.874015748027E-3);
#109=CIRCLE('',#108,3.937007874016E-3);
#124=CIRCLE('',#123,3.937007874016E-3);
#160=CIRCLE('',#159,7.874015748027E-3);
#168=CIRCLE('',#167,7.874015748032E-3);
#197=CIRCLE('',#196,3.937007874016E-3);
#235=B_SPLINE_CURVE_WITH_KNOTS('',3,(#229,#230,#231,#232,#233,#234),
.UNSPECIFIED.,.F.,.F.,(4,1,1,4),(0.E0,3.333333333333E-1,6.666666666667E-1,1.E0),
.UNSPECIFIED.);
#245=B_SPLINE_CURVE_WITH_KNOTS('',3,(#239,#240,#241,#242,#243,#244),
.UNSPECIFIED.,.F.,.F.,(4,1,1,4),(0.E0,3.333333333333E-1,6.666666666667E-1,1.E0),
.UNSPECIFIED.);
#262=B_SPLINE_CURVE_WITH_KNOTS('',3,(#256,#257,#258,#259,#260,#261),
.UNSPECIFIED.,.F.,.F.,(4,1,1,4),(0.E0,3.333333333333E-1,6.666666666667E-1,1.E0),
.UNSPECIFIED.);
#272=B_SPLINE_CURVE_WITH_KNOTS('',3,(#266,#267,#268,#269,#270,#271),
.UNSPECIFIED.,.F.,.F.,(4,1,1,4),(0.E0,3.333333333333E-1,6.666666666667E-1,1.E0),
.UNSPECIFIED.);
#287=CIRCLE('',#286,3.937007874016E-3);
#300=B_SPLINE_CURVE_WITH_KNOTS('',3,(#291,#292,#293,#294,#295,#296,#297,#298,
#299),.UNSPECIFIED.,.F.,.F.,(4,1,1,1,1,1,4),(0.E0,1.666666666667E-1,
3.333333333333E-1,5.E-1,6.666666666667E-1,8.333333333333E-1,1.E0),
.UNSPECIFIED.);
#308=CIRCLE('',#307,3.937007874016E-3);
#316=CIRCLE('',#315,3.937007874011E-3);
#324=CIRCLE('',#323,3.937007874011E-3);
#339=CIRCLE('',#338,3.937007874016E-3);
#347=CIRCLE('',#346,3.937007874016E-3);
#355=CIRCLE('',#354,1.181102362205E-2);
#405=CIRCLE('',#404,3.937007874016E-3);
#418=B_SPLINE_CURVE_WITH_KNOTS('',3,(#409,#410,#411,#412,#413,#414,#415,#416,
#417),.UNSPECIFIED.,.F.,.F.,(4,1,1,1,1,1,4),(0.E0,1.666666666667E-1,
3.333333333333E-1,5.E-1,6.666666666667E-1,8.333333333333E-1,1.E0),
.UNSPECIFIED.);
#426=CIRCLE('',#425,3.937007874016E-3);
#434=CIRCLE('',#433,3.937007874011E-3);
#442=CIRCLE('',#441,3.937007874011E-3);
#464=B_SPLINE_CURVE_WITH_KNOTS('',3,(#460,#461,#462,#463),.UNSPECIFIED.,.F.,.F.,
(4,4),(0.E0,1.E0),.UNSPECIFIED.);
#481=B_SPLINE_CURVE_WITH_KNOTS('',3,(#475,#476,#477,#478,#479,#480),
.UNSPECIFIED.,.F.,.F.,(4,1,1,4),(0.E0,3.333333333333E-1,6.666666666667E-1,1.E0),
.UNSPECIFIED.);
#538=CIRCLE('',#537,3.937007874016E-3);
#546=CIRCLE('',#545,3.937007874016E-3);
#554=CIRCLE('',#553,1.181102362205E-2);
#665=EDGE_CURVE('',#627,#629,#20,.T.);
#667=EDGE_CURVE('',#625,#627,#28,.T.);
#669=EDGE_CURVE('',#623,#625,#36,.T.);
#671=EDGE_CURVE('',#607,#623,#43,.T.);
#673=EDGE_CURVE('',#621,#607,#50,.T.);
#675=EDGE_CURVE('',#653,#621,#57,.T.);
#677=EDGE_CURVE('',#578,#653,#65,.T.);
#679=EDGE_CURVE('',#578,#629,#362,.T.);
#683=ADVANCED_FACE('',(#682),#664,.F.);
#689=EDGE_CURVE('',#603,#601,#456,.T.);
#691=EDGE_CURVE('',#609,#601,#72,.T.);
#693=EDGE_CURVE('',#611,#609,#79,.T.);
#695=EDGE_CURVE('',#575,#611,#86,.T.);
#697=EDGE_CURVE('',#651,#575,#93,.T.);
#699=EDGE_CURVE('',#603,#651,#101,.T.);
#703=ADVANCED_FACE('',(#702),#688,.F.);
#709=EDGE_CURVE('',#617,#615,#211,.T.);
#711=EDGE_CURVE('',#615,#627,#523,.T.);
#714=EDGE_CURVE('',#605,#629,#109,.T.);
#716=EDGE_CURVE('',#643,#605,#116,.T.);
#718=EDGE_CURVE('',#617,#643,#124,.T.);
#722=ADVANCED_FACE('',(#721),#708,.F.);
#728=EDGE_CURVE('',#574,#593,#131,.T.);
#730=EDGE_CURVE('',#619,#574,#138,.T.);
#732=EDGE_CURVE('',#591,#619,#145,.T.);
#734=EDGE_CURVE('',#588,#591,#152,.T.);
#736=EDGE_CURVE('',#588,#589,#449,.T.);
#738=EDGE_CURVE('',#593,#589,#160,.T.);
#742=ADVANCED_FACE('',(#741),#727,.T.);
#748=EDGE_CURVE('',#645,#647,#168,.T.);
#750=EDGE_CURVE('',#599,#645,#175,.T.);
#752=EDGE_CURVE('',#597,#599,#182,.T.);
#754=EDGE_CURVE('',#596,#597,#189,.T.);
#756=EDGE_CURVE('',#613,#596,#197,.T.);
#758=EDGE_CURVE('',#615,#613,#204,.T.);
#761=EDGE_CURVE('',#617,#647,#568,.T.);
#765=ADVANCED_FACE('',(#764),#747,.T.);
#771=EDGE_CURVE('',#656,#574,#235,.T.);
#774=EDGE_CURVE('',#593,#583,#405,.T.);
#776=EDGE_CURVE('',#582,#583,#218,.T.);
#778=EDGE_CURVE('',#582,#656,#245,.T.);
#782=ADVANCED_FACE('',(#781),#770,.T.);
#788=EDGE_CURVE('',#657,#575,#262,.T.);
#790=EDGE_CURVE('',#574,#575,#225,.T.);
#794=EDGE_CURVE('',#585,#582,#252,.T.);
#796=EDGE_CURVE('',#585,#657,#272,.T.);
#800=ADVANCED_FACE('',(#799),#787,.T.);
#806=EDGE_CURVE('',#631,#651,#308,.T.);
#811=EDGE_CURVE('',#631,#585,#279,.T.);
#815=ADVANCED_FACE('',(#814),#805,.T.);
#821=EDGE_CURVE('',#648,#634,#287,.T.);
#823=EDGE_CURVE('',#648,#603,#300,.T.);
#827=EDGE_CURVE('',#659,#631,#316,.T.);
#829=EDGE_CURVE('',#634,#659,#324,.T.);
#833=ADVANCED_FACE('',(#832),#820,.T.);
#839=EDGE_CURVE('',#639,#653,#347,.T.);
#842=EDGE_CURVE('',#621,#648,#464,.T.);
#845=EDGE_CURVE('',#639,#634,#331,.T.);
#849=ADVANCED_FACE('',(#848),#838,.T.);
#855=EDGE_CURVE('',#578,#579,#339,.T.);
#859=EDGE_CURVE('',#579,#639,#355,.T.);
#863=ADVANCED_FACE('',(#862),#854,.T.);
#872=EDGE_CURVE('',#605,#579,#369,.T.);
#876=ADVANCED_FACE('',(#875),#868,.T.);
#884=EDGE_CURVE('',#579,#641,#376,.T.);
#886=EDGE_CURVE('',#641,#643,#561,.T.);
#890=ADVANCED_FACE('',(#889),#881,.F.);
#898=EDGE_CURVE('',#638,#639,#383,.T.);
#900=EDGE_CURVE('',#638,#641,#554,.T.);
#904=ADVANCED_FACE('',(#903),#895,.T.);
#912=EDGE_CURVE('',#634,#635,#390,.T.);
#914=EDGE_CURVE('',#635,#638,#530,.T.);
#918=ADVANCED_FACE('',(#917),#909,.F.);
#927=EDGE_CURVE('',#583,#631,#397,.T.);
#929=EDGE_CURVE('',#583,#655,#442,.T.);
#931=EDGE_CURVE('',#655,#635,#434,.T.);
#935=ADVANCED_FACE('',(#934),#923,.F.);
#947=ADVANCED_FACE('',(#946),#940,.F.);
#955=EDGE_CURVE('',#589,#649,#418,.T.);
#957=EDGE_CURVE('',#635,#649,#426,.T.);
#963=ADVANCED_FACE('',(#962),#952,.T.);
#971=EDGE_CURVE('',#588,#601,#488,.T.);
#977=EDGE_CURVE('',#597,#607,#471,.T.);
#980=EDGE_CURVE('',#649,#599,#481,.T.);
#984=ADVANCED_FACE('',(#983),#968,.F.);
#993=EDGE_CURVE('',#609,#591,#495,.T.);
#997=ADVANCED_FACE('',(#996),#989,.F.);
#1006=EDGE_CURVE('',#619,#611,#502,.T.);
#1010=ADVANCED_FACE('',(#1009),#1002,.F.);
#1022=ADVANCED_FACE('',(#1021),#1015,.F.);
#1029=EDGE_CURVE('',#623,#596,#516,.T.);
#1035=ADVANCED_FACE('',(#1034),#1027,.F.);
#1042=EDGE_CURVE('',#613,#625,#509,.T.);
#1048=ADVANCED_FACE('',(#1047),#1040,.F.);
#1060=ADVANCED_FACE('',(#1059),#1053,.F.);
#1069=EDGE_CURVE('',#645,#638,#538,.T.);
#1074=ADVANCED_FACE('',(#1073),#1065,.T.);
#1082=EDGE_CURVE('',#641,#647,#546,.T.);
#1087=ADVANCED_FACE('',(#1086),#1079,.T.);
#1099=ADVANCED_FACE('',(#1098),#1092,.T.);
#1100=CLOSED_SHELL('',(#683,#703,#722,#742,#765,#782,#800,#815,#833,#849,#863,
#876,#890,#904,#918,#935,#947,#963,#984,#997,#1010,#1022,#1035,#1048,#1060,
#1074,#1087,#1099));
#1101=MANIFOLD_SOLID_BREP('',#1100);
#1109=(LENGTH_UNIT()NAMED_UNIT(*)SI_UNIT(.MILLI.,.METRE.));
#1112=(NAMED_UNIT(*)PLANE_ANGLE_UNIT()SI_UNIT($,.RADIAN.));
#1115=(NAMED_UNIT(*)SI_UNIT($,.STERADIAN.)SOLID_ANGLE_UNIT());
#1117=(GEOMETRIC_REPRESENTATION_CONTEXT(3)GLOBAL_UNCERTAINTY_ASSIGNED_CONTEXT((
#1116))GLOBAL_UNIT_ASSIGNED_CONTEXT((#1111,#1114,#1115))REPRESENTATION_CONTEXT(
'ID1','3'));
#1121=AXIS2_PLACEMENT_3D('',#1118,#1119,#1120);
#1122=ADVANCED_BREP_SHAPE_REPRESENTATION('',(#1121,#1101),#1117);
#1130=PRODUCT_DEFINITION('design','',#1129,#1126);
#1131=PRODUCT_DEFINITION_SHAPE('','SHAPE FOR FILLET5.',#1130);
#1132=SHAPE_ASPECT('','solid data associated with FILLET5',#1131,.F.);
#1133=PROPERTY_DEFINITION('',
'shape for solid data with which properties are associated',#1132);
#1134=SHAPE_REPRESENTATION('',(#1101),#1117);
#1135=SHAPE_DEFINITION_REPRESENTATION(#1133,#1134);
#1136=(LENGTH_UNIT()NAMED_UNIT(*)SI_UNIT(.MILLI.,.METRE.));
#1142=PROPERTY_DEFINITION('geometric validation property','area of FILLET5',
#1132);
#1143=REPRESENTATION('surface area',(#1141),#1117);
#1144=PROPERTY_DEFINITION_REPRESENTATION(#1142,#1143);
#1145=(LENGTH_UNIT()NAMED_UNIT(*)SI_UNIT(.MILLI.,.METRE.));
#1151=PROPERTY_DEFINITION('geometric validation property','volume of FILLET5',
#1132);
#1152=REPRESENTATION('volume',(#1150),#1117);
#1153=PROPERTY_DEFINITION_REPRESENTATION(#1151,#1152);
#1155=PROPERTY_DEFINITION('geometric validation property','centroid of FILLET5',
#1132);
#1156=REPRESENTATION('centroid',(#1154),#1117);
#1157=PROPERTY_DEFINITION_REPRESENTATION(#1155,#1156);
#1158=(LENGTH_UNIT()NAMED_UNIT(*)SI_UNIT(.MILLI.,.METRE.));
#1164=PROPERTY_DEFINITION('geometric validation property','area of FILLET5',
#1131);
#1165=REPRESENTATION('surface area',(#1163),#1117);
#1166=PROPERTY_DEFINITION_REPRESENTATION(#1164,#1165);
#1167=(LENGTH_UNIT()NAMED_UNIT(*)SI_UNIT(.MILLI.,.METRE.));
#1173=PROPERTY_DEFINITION('geometric validation property','volume of FILLET5',
#1131);
#1174=REPRESENTATION('volume',(#1172),#1117);
#1175=PROPERTY_DEFINITION_REPRESENTATION(#1173,#1174);
#1177=PROPERTY_DEFINITION('geometric validation property','centroid of FILLET5',
#1131);
#1178=REPRESENTATION('centroid',(#1176),#1117);
#1179=PROPERTY_DEFINITION_REPRESENTATION(#1177,#1178);
#1180=SHAPE_DEFINITION_REPRESENTATION(#1131,#1122);
ENDSEC;
END-ISO-10303-21;
