ISO-10303-21;
HEADER;
FILE_DESCRIPTION((''),'2;1');
FILE_NAME('FILLET6','2026-06-15T13:46:16',('Esia'),(''),
'CREO PARAMETRIC BY PTC INC, 2025102','CREO PARAMETRIC BY PTC INC, 2025102','');
FILE_SCHEMA((
'AP242_MANAGED_MODEL_BASED_3D_ENGINEERING_MIM_LF { 1 0 10303 442 1 1 4 }'));
ENDSEC;
DATA;
#18=DIRECTION('',(2.114974861915E-14,-6.427876096862E-1,7.660444431193E-1));
#19=VECTOR('',#18,3.937007874008E-3);
#20=CARTESIAN_POINT('',(1.732283464567E-1,-2.371745758498E-1,
3.963504817840E-1));
#21=LINE('',#20,#19);
#22=DRAUGHTING_PRE_DEFINED_CURVE_FONT('continuous');
#23=CURVE_STYLE('',#22,POSITIVE_LENGTH_MEASURE(2.E-2),#10);
#24=PRESENTATION_STYLE_ASSIGNMENT((#23));
#25=STYLED_ITEM('',(#24),#21);
#26=DIRECTION('',(0.E0,-7.660444431190E-1,-6.427876096865E-1));
#27=VECTOR('',#26,1.837561002897E-2);
#28=CARTESIAN_POINT('',(1.732283464567E-1,-2.230980418982E-1,
4.081620962311E-1));
#29=LINE('',#28,#27);
#30=CURVE_STYLE('',#22,POSITIVE_LENGTH_MEASURE(2.E-2),#10);
#31=PRESENTATION_STYLE_ASSIGNMENT((#30));
#32=STYLED_ITEM('',(#31),#29);
#33=DIRECTION('',(-1.343489014347E-14,-3.180631650336E-1,-9.480695243751E-1));
#34=VECTOR('',#33,2.065932457893E-3);
#35=CARTESIAN_POINT('',(1.732283464567E-1,-2.224409448819E-1,
4.101207438338E-1));
#36=LINE('',#35,#34);
#37=CURVE_STYLE('',#22,POSITIVE_LENGTH_MEASURE(2.E-2),#10);
#38=PRESENTATION_STYLE_ASSIGNMENT((#37));
#39=STYLED_ITEM('',(#38),#36);
#40=DIRECTION('',(0.E0,8.777953239133E-14,-1.E0));
#41=VECTOR('',#40,4.426750154996E-3);
#42=CARTESIAN_POINT('',(1.732283464567E-1,-2.224409448819E-1,
4.145474939888E-1));
#43=LINE('',#42,#41);
#44=CURVE_STYLE('',#22,POSITIVE_LENGTH_MEASURE(2.E-2),#10);
#45=PRESENTATION_STYLE_ASSIGNMENT((#44));
#46=STYLED_ITEM('',(#45),#43);
#47=CARTESIAN_POINT('',(1.732283464567E-1,-2.293399755100E-1,
4.183426883703E-1));
#48=DIRECTION('',(1.E0,0.E0,0.E0));
#49=DIRECTION('',(0.E0,6.427876096858E-1,-7.660444431196E-1));
#50=AXIS2_PLACEMENT_3D('',#47,#48,#49);
#52=CURVE_STYLE('',#22,POSITIVE_LENGTH_MEASURE(2.E-2),#10);
#53=PRESENTATION_STYLE_ASSIGNMENT((#52));
#54=STYLED_ITEM('',(#53),#51);
#55=DIRECTION('',(0.E0,7.660444431191E-1,6.427876096865E-1));
#56=VECTOR('',#55,2.013796995770E-2);
#57=CARTESIAN_POINT('',(1.732283464567E-1,-2.397052357305E-1,
3.993664047884E-1));
#58=LINE('',#57,#56);
#59=CURVE_STYLE('',#22,POSITIVE_LENGTH_MEASURE(2.E-2),#10);
#60=PRESENTATION_STYLE_ASSIGNMENT((#59));
#61=STYLED_ITEM('',(#60),#58);
#62=CARTESIAN_POINT('',(1.732283464567E-1,-2.440944881890E-1,
5.927089868312E-1));
#63=DIRECTION('',(-1.E0,0.E0,0.E0));
#64=DIRECTION('',(0.E0,-9.848077530121E-1,-1.736481776677E-1));
#65=AXIS2_PLACEMENT_3D('',#62,#63,#64);
#67=CURVE_STYLE('',#22,POSITIVE_LENGTH_MEASURE(2.E-2),#10);
#68=PRESENTATION_STYLE_ASSIGNMENT((#67));
#69=STYLED_ITEM('',(#68),#66);
#70=DIRECTION('',(0.E0,-1.736481776670E-1,9.848077530122E-1));
#71=VECTOR('',#70,1.693535484115E-1);
#72=CARTESIAN_POINT('',(1.732283464567E-1,-2.224409448819E-1,
4.245609908698E-1));
#73=LINE('',#72,#71);
#74=CURVE_STYLE('',#22,POSITIVE_LENGTH_MEASURE(2.E-2),#10);
#75=PRESENTATION_STYLE_ASSIGNMENT((#74));
#76=STYLED_ITEM('',(#75),#73);
#77=DIRECTION('',(0.E0,1.736481776669E-1,-9.848077530122E-1));
#78=VECTOR('',#77,1.470256672319E-1);
#79=CARTESIAN_POINT('',(1.732283464567E-1,-2.479716840670E-1,
5.920253325884E-1));
#80=LINE('',#79,#78);
#81=CURVE_STYLE('',#22,POSITIVE_LENGTH_MEASURE(2.E-2),#10);
#82=PRESENTATION_STYLE_ASSIGNMENT((#81));
#83=STYLED_ITEM('',(#82),#80);
#84=CARTESIAN_POINT('',(1.732283464567E-1,-2.440944881890E-1,
5.927089868312E-1));
#85=DIRECTION('',(1.E0,0.E0,0.E0));
#86=DIRECTION('',(0.E0,-1.E0,2.819966482548E-13));
#87=AXIS2_PLACEMENT_3D('',#84,#85,#86);
#89=CURVE_STYLE('',#22,POSITIVE_LENGTH_MEASURE(2.E-2),#10);
#90=PRESENTATION_STYLE_ASSIGNMENT((#89));
#91=STYLED_ITEM('',(#90),#88);
#92=DIRECTION('',(1.E0,0.E0,0.E0));
#93=VECTOR('',#92,5.118110236220E-2);
#94=CARTESIAN_POINT('',(1.732283464567E-1,-2.371745758498E-1,
3.963504817840E-1));
#95=LINE('',#94,#93);
#96=CURVE_STYLE('',#22,POSITIVE_LENGTH_MEASURE(2.E-2),#10);
#97=PRESENTATION_STYLE_ASSIGNMENT((#96));
#98=STYLED_ITEM('',(#97),#95);
#99=CARTESIAN_POINT('',(2.244094488189E-1,-2.293399755100E-1,
4.183426883703E-1));
#100=DIRECTION('',(-1.E0,0.E0,0.E0));
#101=DIRECTION('',(0.E0,8.761768897656E-1,-4.819896864464E-1));
#102=AXIS2_PLACEMENT_3D('',#99,#100,#101);
#104=CURVE_STYLE('',#22,POSITIVE_LENGTH_MEASURE(2.E-2),#10);
#105=PRESENTATION_STYLE_ASSIGNMENT((#104));
#106=STYLED_ITEM('',(#105),#103);
#107=DIRECTION('',(0.E0,5.379245289601E-6,9.999999999855E-1));
#108=VECTOR('',#107,4.426833024373E-3);
#109=CARTESIAN_POINT('',(2.244094488189E-1,-2.224409448819E-1,
4.101207438338E-1));
#110=LINE('',#109,#108);
#111=CURVE_STYLE('',#22,POSITIVE_LENGTH_MEASURE(2.E-2),#10);
#112=PRESENTATION_STYLE_ASSIGNMENT((#111));
#113=STYLED_ITEM('',(#112),#110);
#114=DIRECTION('',(0.E0,3.180631650336E-1,9.480695243751E-1));
#115=VECTOR('',#114,2.065932457894E-3);
#116=CARTESIAN_POINT('',(2.244094488189E-1,-2.230980418982E-1,
4.081620962311E-1));
#117=LINE('',#116,#115);
#118=CURVE_STYLE('',#22,POSITIVE_LENGTH_MEASURE(2.E-2),#10);
#119=PRESENTATION_STYLE_ASSIGNMENT((#118));
#120=STYLED_ITEM('',(#119),#117);
#121=DIRECTION('',(0.E0,7.660444431190E-1,6.427876096865E-1));
#122=VECTOR('',#121,1.837561002897E-2);
#123=CARTESIAN_POINT('',(2.244094488189E-1,-2.371745758498E-1,
3.963504817840E-1));
#124=LINE('',#123,#122);
#125=CURVE_STYLE('',#22,POSITIVE_LENGTH_MEASURE(2.E-2),#10);
#126=PRESENTATION_STYLE_ASSIGNMENT((#125));
#127=STYLED_ITEM('',(#126),#124);
#128=DIRECTION('',(0.E0,6.427876096862E-1,-7.660444431193E-1));
#129=VECTOR('',#128,3.937007874008E-3);
#130=CARTESIAN_POINT('',(2.244094488189E-1,-2.397052357305E-1,
3.993664047884E-1));
#131=LINE('',#130,#129);
#132=CURVE_STYLE('',#22,POSITIVE_LENGTH_MEASURE(2.E-2),#10);
#133=PRESENTATION_STYLE_ASSIGNMENT((#132));
#134=STYLED_ITEM('',(#133),#131);
#135=DIRECTION('',(0.E0,-7.660444431190E-1,-6.427876096865E-1));
#136=VECTOR('',#135,2.013796995769E-2);
#137=CARTESIAN_POINT('',(2.244094488189E-1,-2.242786557487E-1,
4.123108423615E-1));
#138=LINE('',#137,#136);
#139=CURVE_STYLE('',#22,POSITIVE_LENGTH_MEASURE(2.E-2),#10);
#140=PRESENTATION_STYLE_ASSIGNMENT((#139));
#141=STYLED_ITEM('',(#140),#138);
#142=CARTESIAN_POINT('',(2.244094488189E-1,-2.440944881890E-1,
5.927089868312E-1));
#143=DIRECTION('',(-1.E0,0.E0,0.E0));
#144=DIRECTION('',(0.E0,-9.848077530120E-1,-1.736481776680E-1));
#145=AXIS2_PLACEMENT_3D('',#142,#143,#144);
#147=CURVE_STYLE('',#22,POSITIVE_LENGTH_MEASURE(2.E-2),#10);
#148=PRESENTATION_STYLE_ASSIGNMENT((#147));
#149=STYLED_ITEM('',(#148),#146);
#150=DIRECTION('',(0.E0,-1.736481776669E-1,9.848077530122E-1));
#151=VECTOR('',#150,1.470256672319E-1);
#152=CARTESIAN_POINT('',(2.244094488189E-1,-2.224409448819E-1,
4.472333156066E-1));
#153=LINE('',#152,#151);
#154=CURVE_STYLE('',#22,POSITIVE_LENGTH_MEASURE(2.E-2),#10);
#155=PRESENTATION_STYLE_ASSIGNMENT((#154));
#156=STYLED_ITEM('',(#155),#153);
#157=DIRECTION('',(0.E0,1.736481776670E-1,-9.848077530122E-1));
#158=VECTOR('',#157,1.693535484115E-1);
#159=CARTESIAN_POINT('',(2.244094488189E-1,-2.518488799450E-1,
5.913416783456E-1));
#160=LINE('',#159,#158);
#161=CURVE_STYLE('',#22,POSITIVE_LENGTH_MEASURE(2.E-2),#10);
#162=PRESENTATION_STYLE_ASSIGNMENT((#161));
#163=STYLED_ITEM('',(#162),#160);
#164=CARTESIAN_POINT('',(2.244094488189E-1,-2.440944881890E-1,
5.927089868312E-1));
#165=DIRECTION('',(1.E0,0.E0,0.E0));
#166=DIRECTION('',(0.E0,-1.E0,4.511946372077E-13));
#167=AXIS2_PLACEMENT_3D('',#164,#165,#166);
#169=CURVE_STYLE('',#22,POSITIVE_LENGTH_MEASURE(2.E-2),#10);
#170=PRESENTATION_STYLE_ASSIGNMENT((#169));
#171=STYLED_ITEM('',(#170),#168);
#172=CARTESIAN_POINT('',(2.204724409449E-1,-2.242786557487E-1,
4.123108423614E-1));
#173=DIRECTION('',(0.E0,7.660444431218E-1,6.427876096832E-1));
#174=DIRECTION('',(0.E0,-6.427876096832E-1,7.660444431218E-1));
#175=AXIS2_PLACEMENT_3D('',#172,#173,#174);
#177=CURVE_STYLE('',#22,POSITIVE_LENGTH_MEASURE(2.E-2),#10);
#178=PRESENTATION_STYLE_ASSIGNMENT((#177));
#179=STYLED_ITEM('',(#178),#176);
#180=CARTESIAN_POINT('',(2.204724409449E-1,-2.293399755100E-1,
4.183426883703E-1));
#181=DIRECTION('',(-1.E0,0.E0,0.E0));
#182=DIRECTION('',(0.E0,1.E0,0.E0));
#183=AXIS2_PLACEMENT_3D('',#180,#181,#182);
#185=CURVE_STYLE('',#22,POSITIVE_LENGTH_MEASURE(2.E-2),#10);
#186=PRESENTATION_STYLE_ASSIGNMENT((#185));
#187=STYLED_ITEM('',(#186),#184);
#188=CARTESIAN_POINT('',(2.204724409449E-1,-2.293399755100E-1,
4.183426883703E-1));
#189=DIRECTION('',(-1.E0,0.E0,0.E0));
#190=DIRECTION('',(0.E0,9.848077529878E-1,1.736481778053E-1));
#191=AXIS2_PLACEMENT_3D('',#188,#189,#190);
#193=CURVE_STYLE('',#22,POSITIVE_LENGTH_MEASURE(2.E-2),#10);
#194=PRESENTATION_STYLE_ASSIGNMENT((#193));
#195=STYLED_ITEM('',(#194),#192);
#196=CARTESIAN_POINT('',(2.204724409449E-1,-2.215855837542E-1,
4.197099968569E-1));
#197=DIRECTION('',(0.E0,1.736481778053E-1,-9.848077529878E-1));
#198=DIRECTION('',(9.753613457309E-1,-2.172617264571E-1,-3.830910428115E-2));
#199=AXIS2_PLACEMENT_3D('',#196,#197,#198);
#201=CURVE_STYLE('',#22,POSITIVE_LENGTH_MEASURE(2.E-2),#10);
#202=PRESENTATION_STYLE_ASSIGNMENT((#201));
#203=STYLED_ITEM('',(#202),#200);
#204=CARTESIAN_POINT('',(2.242869609258E-1,-2.224407494064E-1,
4.183427534771E-1));
#205=CARTESIAN_POINT('',(2.242869615754E-1,-2.224407494064E-1,
4.184774864459E-1));
#206=CARTESIAN_POINT('',(2.242887770985E-1,-2.224410361038E-1,
4.187471417806E-1));
#207=CARTESIAN_POINT('',(2.242977779662E-1,-2.224409188185E-1,
4.191524668052E-1));
#208=CARTESIAN_POINT('',(2.243071165750E-1,-2.224409448819E-1,
4.194234786563E-1));
#209=CARTESIAN_POINT('',(2.243124462430E-1,-2.224409448819E-1,
4.195591736117E-1));
#211=CURVE_STYLE('',#22,POSITIVE_LENGTH_MEASURE(2.E-2),#10);
#212=PRESENTATION_STYLE_ASSIGNMENT((#211));
#213=STYLED_ITEM('',(#212),#210);
#214=CARTESIAN_POINT('',(2.242869609258E-1,-2.224407494064E-1,
4.183427534771E-1));
#215=CARTESIAN_POINT('',(2.242869597268E-1,-2.224407494064E-1,
4.180940888127E-1));
#216=CARTESIAN_POINT('',(2.242938001756E-1,-2.224410353771E-1,
4.175950890952E-1));
#217=CARTESIAN_POINT('',(2.243228050545E-1,-2.224409213619E-1,
4.168432126651E-1));
#218=CARTESIAN_POINT('',(2.243616898288E-1,-2.224409484665E-1,
4.160842183258E-1));
#219=CARTESIAN_POINT('',(2.243977423396E-1,-2.224409540633E-1,
4.153183148892E-1));
#220=CARTESIAN_POINT('',(2.244094488189E-1,-2.224409210689E-1,
4.148050283464E-1));
#221=CARTESIAN_POINT('',(2.244094488189E-1,-2.224409210689E-1,
4.145475768581E-1));
#223=CURVE_STYLE('',#22,POSITIVE_LENGTH_MEASURE(2.E-2),#10);
#224=PRESENTATION_STYLE_ASSIGNMENT((#223));
#225=STYLED_ITEM('',(#224),#222);
#226=DIRECTION('',(0.E0,-7.660444431190E-1,-6.427876096865E-1));
#227=VECTOR('',#226,1.620096208367E-2);
#228=CARTESIAN_POINT('',(2.204724409449E-1,-2.268093156293E-1,
4.153267653659E-1));
#229=LINE('',#228,#227);
#230=CURVE_STYLE('',#22,POSITIVE_LENGTH_MEASURE(2.E-2),#10);
#231=PRESENTATION_STYLE_ASSIGNMENT((#230));
#232=STYLED_ITEM('',(#231),#229);
#233=DIRECTION('',(-1.E0,0.E0,0.E0));
#234=VECTOR('',#233,4.330708661417E-2);
#235=CARTESIAN_POINT('',(2.204724409449E-1,-2.392199726067E-1,
4.049129876735E-1));
#236=LINE('',#235,#234);
#237=CURVE_STYLE('',#22,POSITIVE_LENGTH_MEASURE(2.E-2),#10);
#238=PRESENTATION_STYLE_ASSIGNMENT((#237));
#239=STYLED_ITEM('',(#238),#236);
#240=CARTESIAN_POINT('',(2.234883639493E-1,-2.406263206001E-1,
4.018970646691E-1));
#241=CARTESIAN_POINT('',(2.232618241779E-1,-2.406263206001E-1,
4.022494979891E-1));
#242=CARTESIAN_POINT('',(2.227275586302E-1,-2.405332604233E-1,
4.029696703751E-1));
#243=CARTESIAN_POINT('',(2.216767544384E-1,-2.400608652918E-1,
4.040414364266E-1));
#244=CARTESIAN_POINT('',(2.208861640317E-1,-2.395369028783E-1,
4.046470515995E-1));
#245=CARTESIAN_POINT('',(2.204724409449E-1,-2.392199726067E-1,
4.049129876735E-1));
#247=CURVE_STYLE('',#22,POSITIVE_LENGTH_MEASURE(2.E-2),#10);
#248=PRESENTATION_STYLE_ASSIGNMENT((#247));
#249=STYLED_ITEM('',(#248),#246);
#250=CARTESIAN_POINT('',(2.244094488189E-1,-2.397052357305E-1,
3.993664047884E-1));
#251=CARTESIAN_POINT('',(2.244094488189E-1,-2.398899663171E-1,
3.995865581287E-1));
#252=CARTESIAN_POINT('',(2.243466359317E-1,-2.402192804508E-1,
4.000767305746E-1));
#253=CARTESIAN_POINT('',(2.240399757289E-1,-2.405479372984E-1,
4.009454701778E-1));
#254=CARTESIAN_POINT('',(2.236948084792E-1,-2.406263206001E-1,
4.015758939949E-1));
#255=CARTESIAN_POINT('',(2.234883639493E-1,-2.406263206001E-1,
4.018970646691E-1));
#257=CURVE_STYLE('',#22,POSITIVE_LENGTH_MEASURE(2.E-2),#10);
#258=PRESENTATION_STYLE_ASSIGNMENT((#257));
#259=STYLED_ITEM('',(#258),#256);
#260=DIRECTION('',(1.E0,0.E0,0.E0));
#261=VECTOR('',#260,5.118110236220E-2);
#262=CARTESIAN_POINT('',(1.732283464567E-1,-2.397052357305E-1,
3.993664047884E-1));
#263=LINE('',#262,#261);
#264=CURVE_STYLE('',#22,POSITIVE_LENGTH_MEASURE(2.E-2),#10);
#265=PRESENTATION_STYLE_ASSIGNMENT((#264));
#266=STYLED_ITEM('',(#265),#263);
#267=DIRECTION('',(0.E0,7.660444431190E-1,6.427876096865E-1));
#268=VECTOR('',#267,1.620096208368E-2);
#269=CARTESIAN_POINT('',(1.771653543307E-1,-2.392199726067E-1,
4.049129876735E-1));
#270=LINE('',#269,#268);
#271=CURVE_STYLE('',#22,POSITIVE_LENGTH_MEASURE(2.E-2),#10);
#272=PRESENTATION_STYLE_ASSIGNMENT((#271));
#273=STYLED_ITEM('',(#272),#270);
#274=CARTESIAN_POINT('',(1.741494313263E-1,-2.406263206001E-1,
4.018970646691E-1));
#275=CARTESIAN_POINT('',(1.743759710976E-1,-2.406263206001E-1,
4.022494979891E-1));
#276=CARTESIAN_POINT('',(1.749101772155E-1,-2.405332148974E-1,
4.029697085759E-1));
#277=CARTESIAN_POINT('',(1.759609708194E-1,-2.400608116550E-1,
4.040414814332E-1));
#278=CARTESIAN_POINT('',(1.767516312439E-1,-2.395369028783E-1,
4.046470515995E-1));
#279=CARTESIAN_POINT('',(1.771653543307E-1,-2.392199726067E-1,
4.049129876735E-1));
#281=CURVE_STYLE('',#22,POSITIVE_LENGTH_MEASURE(2.E-2),#10);
#282=PRESENTATION_STYLE_ASSIGNMENT((#281));
#283=STYLED_ITEM('',(#282),#280);
#284=CARTESIAN_POINT('',(1.732283464567E-1,-2.397052357305E-1,
3.993664047884E-1));
#285=CARTESIAN_POINT('',(1.732283464567E-1,-2.398899663171E-1,
3.995865581287E-1));
#286=CARTESIAN_POINT('',(1.732911539693E-1,-2.402192763336E-1,
4.000767340293E-1));
#287=CARTESIAN_POINT('',(1.735978032705E-1,-2.405479248302E-1,
4.009454806399E-1));
#288=CARTESIAN_POINT('',(1.739429867963E-1,-2.406263206001E-1,
4.015758939949E-1));
#289=CARTESIAN_POINT('',(1.741494313263E-1,-2.406263206001E-1,
4.018970646691E-1));
#291=CURVE_STYLE('',#22,POSITIVE_LENGTH_MEASURE(2.E-2),#10);
#292=PRESENTATION_STYLE_ASSIGNMENT((#291));
#293=STYLED_ITEM('',(#292),#290);
#294=CARTESIAN_POINT('',(1.733253369097E-1,-2.224409473450E-1,
4.195595617094E-1));
#295=CARTESIAN_POINT('',(1.733306916215E-1,-2.224409473450E-1,
4.194232303702E-1));
#296=CARTESIAN_POINT('',(1.733400233920E-1,-2.224409366781E-1,
4.191524234585E-1));
#297=CARTESIAN_POINT('',(1.733490005179E-1,-2.224409699004E-1,
4.187468518514E-1));
#298=CARTESIAN_POINT('',(1.733508838589E-1,-2.224408919745E-1,
4.184773108980E-1));
#299=CARTESIAN_POINT('',(1.733508839962E-1,-2.224408919745E-1,
4.183427415539E-1));
#301=CURVE_STYLE('',#22,POSITIVE_LENGTH_MEASURE(2.E-2),#10);
#302=PRESENTATION_STYLE_ASSIGNMENT((#301));
#303=STYLED_ITEM('',(#302),#300);
#304=CARTESIAN_POINT('',(1.771653543307E-1,-2.215855837541E-1,
4.197099968567E-1));
#305=DIRECTION('',(0.E0,1.736481777793E-1,-9.848077529924E-1));
#306=DIRECTION('',(0.E0,-9.848077529924E-1,-1.736481777793E-1));
#307=AXIS2_PLACEMENT_3D('',#304,#305,#306);
#309=CURVE_STYLE('',#22,POSITIVE_LENGTH_MEASURE(2.E-2),#10);
#310=PRESENTATION_STYLE_ASSIGNMENT((#309));
#311=STYLED_ITEM('',(#310),#308);
#312=CARTESIAN_POINT('',(1.771653543307E-1,-2.293399755100E-1,
4.183426883703E-1));
#313=DIRECTION('',(1.E0,0.E0,0.E0));
#314=DIRECTION('',(0.E0,1.E0,1.409983241276E-14));
#315=AXIS2_PLACEMENT_3D('',#312,#313,#314);
#317=CURVE_STYLE('',#22,POSITIVE_LENGTH_MEASURE(2.E-2),#10);
#318=PRESENTATION_STYLE_ASSIGNMENT((#317));
#319=STYLED_ITEM('',(#318),#316);
#320=CARTESIAN_POINT('',(1.771653543307E-1,-2.293399755100E-1,
4.183426883703E-1));
#321=DIRECTION('',(1.E0,0.E0,0.E0));
#322=DIRECTION('',(0.E0,6.427876096823E-1,-7.660444431226E-1));
#323=AXIS2_PLACEMENT_3D('',#320,#321,#322);
#325=CURVE_STYLE('',#22,POSITIVE_LENGTH_MEASURE(2.E-2),#10);
#326=PRESENTATION_STYLE_ASSIGNMENT((#325));
#327=STYLED_ITEM('',(#326),#324);
#328=CARTESIAN_POINT('',(1.771653543307E-1,-2.242786557487E-1,
4.123108423615E-1));
#329=DIRECTION('',(0.E0,7.660444431209E-1,6.427876096842E-1));
#330=DIRECTION('',(-1.E0,-2.467470672229E-13,2.960964806675E-13));
#331=AXIS2_PLACEMENT_3D('',#328,#329,#330);
#333=CURVE_STYLE('',#22,POSITIVE_LENGTH_MEASURE(2.E-2),#10);
#334=PRESENTATION_STYLE_ASSIGNMENT((#333));
#335=STYLED_ITEM('',(#334),#332);
#336=CARTESIAN_POINT('',(1.732283464567E-1,-2.224409448819E-1,
4.145474939888E-1));
#337=CARTESIAN_POINT('',(1.732283464567E-1,-2.224409448819E-1,
4.148049560088E-1));
#338=CARTESIAN_POINT('',(1.732400489679E-1,-2.224409443756E-1,
4.153182121092E-1));
#339=CARTESIAN_POINT('',(1.732761017512E-1,-2.224409466539E-1,
4.160841827745E-1));
#340=CARTESIAN_POINT('',(1.733149963151E-1,-2.224409383001E-1,
4.168432002737E-1));
#341=CARTESIAN_POINT('',(1.733439742568E-1,-2.224409694370E-1,
4.175951705862E-1));
#342=CARTESIAN_POINT('',(1.733508842499E-1,-2.224408919745E-1,
4.180940636895E-1));
#343=CARTESIAN_POINT('',(1.733508839962E-1,-2.224408919745E-1,
4.183427415539E-1));
#345=CURVE_STYLE('',#22,POSITIVE_LENGTH_MEASURE(2.E-2),#10);
#346=PRESENTATION_STYLE_ASSIGNMENT((#345));
#347=STYLED_ITEM('',(#346),#344);
#348=CARTESIAN_POINT('',(2.244094488189E-1,-2.224409448819E-1,
4.245609908698E-1));
#349=CARTESIAN_POINT('',(2.244094488189E-1,-2.224409448819E-1,
4.228930837029E-1));
#350=CARTESIAN_POINT('',(2.243779058817E-1,-2.224409448819E-1,
4.212257957505E-1));
#351=CARTESIAN_POINT('',(2.243124462430E-1,-2.224409448819E-1,
4.195591736118E-1));
#353=CURVE_STYLE('',#22,POSITIVE_LENGTH_MEASURE(2.E-2),#10);
#354=PRESENTATION_STYLE_ASSIGNMENT((#353));
#355=STYLED_ITEM('',(#354),#352);
#356=DIRECTION('',(0.E0,4.651979387376E-14,-1.E0));
#357=VECTOR('',#356,2.267232473678E-2);
#358=CARTESIAN_POINT('',(2.244094488189E-1,-2.224409448819E-1,
4.472333156066E-1));
#359=LINE('',#358,#357);
#360=CURVE_STYLE('',#22,POSITIVE_LENGTH_MEASURE(2.E-2),#10);
#361=PRESENTATION_STYLE_ASSIGNMENT((#360));
#362=STYLED_ITEM('',(#361),#359);
#363=DIRECTION('',(1.E0,-2.169204986575E-14,1.182216717684E-13));
#364=VECTOR('',#363,5.118110236220E-2);
#365=CARTESIAN_POINT('',(1.732283464567E-1,-2.224409448819E-1,
4.472333156066E-1));
#366=LINE('',#365,#364);
#367=CURVE_STYLE('',#22,POSITIVE_LENGTH_MEASURE(2.E-2),#10);
#368=PRESENTATION_STYLE_ASSIGNMENT((#367));
#369=STYLED_ITEM('',(#368),#366);
#370=DIRECTION('',(0.E0,0.E0,1.E0));
#371=VECTOR('',#370,2.267232473677E-2);
#372=CARTESIAN_POINT('',(1.732283464567E-1,-2.224409448819E-1,
4.245609908698E-1));
#373=LINE('',#372,#371);
#374=CURVE_STYLE('',#22,POSITIVE_LENGTH_MEASURE(2.E-2),#10);
#375=PRESENTATION_STYLE_ASSIGNMENT((#374));
#376=STYLED_ITEM('',(#375),#373);
#377=CARTESIAN_POINT('',(1.733253369097E-1,-2.224409473450E-1,
4.195595617094E-1));
#378=CARTESIAN_POINT('',(1.733043188408E-1,-2.224409473450E-1,
4.200946880790E-1));
#379=CARTESIAN_POINT('',(1.732687725765E-1,-2.224409437324E-1,
4.211798169011E-1));
#380=CARTESIAN_POINT('',(1.732358662624E-1,-2.224409452103E-1,
4.228529891688E-1));
#381=CARTESIAN_POINT('',(1.732283464567E-1,-2.224409448819E-1,
4.239878190264E-1));
#382=CARTESIAN_POINT('',(1.732283464567E-1,-2.224409448819E-1,
4.245609908698E-1));
#384=CURVE_STYLE('',#22,POSITIVE_LENGTH_MEASURE(2.E-2),#10);
#385=PRESENTATION_STYLE_ASSIGNMENT((#384));
#386=STYLED_ITEM('',(#385),#383);
#387=DIRECTION('',(-1.E0,0.E0,0.E0));
#388=VECTOR('',#387,5.118110236220E-2);
#389=CARTESIAN_POINT('',(2.244094488189E-1,-2.230980418982E-1,
4.081620962311E-1));
#390=LINE('',#389,#388);
#391=CURVE_STYLE('',#22,POSITIVE_LENGTH_MEASURE(2.E-2),#10);
#392=PRESENTATION_STYLE_ASSIGNMENT((#391));
#393=STYLED_ITEM('',(#392),#390);
#394=DIRECTION('',(1.E0,0.E0,2.060744737247E-14));
#395=VECTOR('',#394,5.118110236220E-2);
#396=CARTESIAN_POINT('',(1.732283464567E-1,-2.224409448819E-1,
4.101207438338E-1));
#397=LINE('',#396,#395);
#398=CURVE_STYLE('',#22,POSITIVE_LENGTH_MEASURE(2.E-2),#10);
#399=PRESENTATION_STYLE_ASSIGNMENT((#398));
#400=STYLED_ITEM('',(#399),#397);
#401=DIRECTION('',(0.E0,1.736481776670E-1,-9.848077530122E-1));
#402=VECTOR('',#401,1.742793768268E-1);
#403=CARTESIAN_POINT('',(2.204724409449E-1,-2.557260758230E-1,
5.906580241028E-1));
#404=LINE('',#403,#402);
#405=CURVE_STYLE('',#22,POSITIVE_LENGTH_MEASURE(2.E-2),#10);
#406=PRESENTATION_STYLE_ASSIGNMENT((#405));
#407=STYLED_ITEM('',(#406),#404);
#408=DIRECTION('',(1.E0,-4.999031491789E-14,-4.229949723822E-14));
#409=VECTOR('',#408,4.330708661417E-2);
#410=CARTESIAN_POINT('',(1.771653543307E-1,-2.268093156293E-1,
4.153267653659E-1));
#411=LINE('',#410,#409);
#412=CURVE_STYLE('',#22,POSITIVE_LENGTH_MEASURE(2.E-2),#10);
#413=PRESENTATION_STYLE_ASSIGNMENT((#412));
#414=STYLED_ITEM('',(#413),#411);
#415=DIRECTION('',(-1.E0,2.531560819560E-13,-1.426646679580E-12));
#416=VECTOR('',#415,4.330708661417E-2);
#417=CARTESIAN_POINT('',(2.204724409449E-1,-2.254627796321E-1,
4.190263426136E-1));
#418=LINE('',#417,#416);
#419=CURVE_STYLE('',#22,POSITIVE_LENGTH_MEASURE(2.E-2),#10);
#420=PRESENTATION_STYLE_ASSIGNMENT((#419));
#421=STYLED_ITEM('',(#420),#418);
#422=DIRECTION('',(0.E0,-1.736481776670E-1,9.848077530122E-1));
#423=VECTOR('',#422,1.742793768269E-1);
#424=CARTESIAN_POINT('',(1.771653543307E-1,-2.254627796321E-1,
4.190263426136E-1));
#425=LINE('',#424,#423);
#426=CURVE_STYLE('',#22,POSITIVE_LENGTH_MEASURE(2.E-2),#10);
#427=PRESENTATION_STYLE_ASSIGNMENT((#426));
#428=STYLED_ITEM('',(#427),#425);
#429=CARTESIAN_POINT('',(1.771653543307E-1,-2.519685039370E-1,
5.927089868312E-1));
#430=DIRECTION('',(0.E0,3.895738578689E-14,-1.E0));
#431=DIRECTION('',(0.E0,-1.E0,-2.819966482548E-14));
#432=AXIS2_PLACEMENT_3D('',#429,#430,#431);
#434=CURVE_STYLE('',#22,POSITIVE_LENGTH_MEASURE(2.E-2),#10);
#435=PRESENTATION_STYLE_ASSIGNMENT((#434));
#436=STYLED_ITEM('',(#435),#433);
#437=CARTESIAN_POINT('',(1.771653543307E-1,-2.440944881890E-1,
5.927089868312E-1));
#438=DIRECTION('',(-1.E0,0.E0,0.E0));
#439=DIRECTION('',(0.E0,-9.848077530122E-1,-1.736481776671E-1));
#440=AXIS2_PLACEMENT_3D('',#437,#438,#439);
#442=CURVE_STYLE('',#22,POSITIVE_LENGTH_MEASURE(2.E-2),#10);
#443=PRESENTATION_STYLE_ASSIGNMENT((#442));
#444=STYLED_ITEM('',(#443),#441);
#445=CARTESIAN_POINT('',(1.771653543307E-1,-2.518488799450E-1,
5.913416783456E-1));
#446=DIRECTION('',(0.E0,-1.736481776671E-1,9.848077530122E-1));
#447=DIRECTION('',(-1.E0,4.229949723822E-14,0.E0));
#448=AXIS2_PLACEMENT_3D('',#445,#446,#447);
#450=CURVE_STYLE('',#22,POSITIVE_LENGTH_MEASURE(2.E-2),#10);
#451=PRESENTATION_STYLE_ASSIGNMENT((#450));
#452=STYLED_ITEM('',(#451),#449);
#453=DIRECTION('',(0.E0,0.E0,1.E0));
#454=VECTOR('',#453,2.054502502127E-2);
#455=CARTESIAN_POINT('',(1.771653543307E-1,-2.559055118110E-1,
5.927089868312E-1));
#456=LINE('',#455,#454);
#457=CURVE_STYLE('',#22,POSITIVE_LENGTH_MEASURE(2.E-2),#10);
#458=PRESENTATION_STYLE_ASSIGNMENT((#457));
#459=STYLED_ITEM('',(#458),#456);
#460=DIRECTION('',(0.E0,0.E0,-1.E0));
#461=VECTOR('',#460,2.054502502127E-2);
#462=CARTESIAN_POINT('',(1.732283464567E-1,-2.519685039370E-1,
6.132540118525E-1));
#463=LINE('',#462,#461);
#464=CURVE_STYLE('',#22,POSITIVE_LENGTH_MEASURE(2.E-2),#10);
#465=PRESENTATION_STYLE_ASSIGNMENT((#464));
#466=STYLED_ITEM('',(#465),#463);
#467=DIRECTION('',(1.E0,0.E0,0.E0));
#468=VECTOR('',#467,4.330708661417E-2);
#469=CARTESIAN_POINT('',(1.771653543307E-1,-2.559055118110E-1,
6.132540118525E-1));
#470=LINE('',#469,#468);
#471=CURVE_STYLE('',#22,POSITIVE_LENGTH_MEASURE(2.E-2),#10);
#472=PRESENTATION_STYLE_ASSIGNMENT((#471));
#473=STYLED_ITEM('',(#472),#470);
#474=CARTESIAN_POINT('',(1.771653543307E-1,-2.519685039370E-1,
6.132540118525E-1));
#475=DIRECTION('',(0.E0,0.E0,1.E0));
#476=DIRECTION('',(-1.E0,0.E0,0.E0));
#477=AXIS2_PLACEMENT_3D('',#474,#475,#476);
#479=CURVE_STYLE('',#22,POSITIVE_LENGTH_MEASURE(2.E-2),#10);
#480=PRESENTATION_STYLE_ASSIGNMENT((#479));
#481=STYLED_ITEM('',(#480),#478);
#482=DIRECTION('',(0.E0,-1.E0,-2.819966482548E-14));
#483=VECTOR('',#482,3.937007874016E-3);
#484=CARTESIAN_POINT('',(1.732283464567E-1,-2.480314960630E-1,
6.132540118525E-1));
#485=LINE('',#484,#483);
#486=CURVE_STYLE('',#22,POSITIVE_LENGTH_MEASURE(2.E-2),#10);
#487=PRESENTATION_STYLE_ASSIGNMENT((#486));
#488=STYLED_ITEM('',(#487),#485);
#489=DIRECTION('',(0.E0,1.E0,2.819966482548E-14));
#490=VECTOR('',#489,3.937007874016E-3);
#491=CARTESIAN_POINT('',(2.244094488189E-1,-2.519685039370E-1,
6.132540118525E-1));
#492=LINE('',#491,#490);
#493=CURVE_STYLE('',#22,POSITIVE_LENGTH_MEASURE(2.E-2),#10);
#494=PRESENTATION_STYLE_ASSIGNMENT((#493));
#495=STYLED_ITEM('',(#494),#492);
#496=CARTESIAN_POINT('',(2.204724409449E-1,-2.519685039370E-1,
6.132540118525E-1));
#497=DIRECTION('',(0.E0,0.E0,1.E0));
#498=DIRECTION('',(0.E0,-1.E0,0.E0));
#499=AXIS2_PLACEMENT_3D('',#496,#497,#498);
#501=CURVE_STYLE('',#22,POSITIVE_LENGTH_MEASURE(2.E-2),#10);
#502=PRESENTATION_STYLE_ASSIGNMENT((#501));
#503=STYLED_ITEM('',(#502),#500);
#504=DIRECTION('',(1.E0,0.E0,0.E0));
#505=VECTOR('',#504,4.330708661417E-2);
#506=CARTESIAN_POINT('',(1.771653543307E-1,-2.557260758230E-1,
5.906580241028E-1));
#507=LINE('',#506,#505);
#508=CURVE_STYLE('',#22,POSITIVE_LENGTH_MEASURE(2.E-2),#10);
#509=PRESENTATION_STYLE_ASSIGNMENT((#508));
#510=STYLED_ITEM('',(#509),#507);
#511=DIRECTION('',(-1.E0,0.E0,0.E0));
#512=VECTOR('',#511,4.330708661417E-2);
#513=CARTESIAN_POINT('',(2.204724409449E-1,-2.559055118110E-1,
5.927089868312E-1));
#514=LINE('',#513,#512);
#515=CURVE_STYLE('',#22,POSITIVE_LENGTH_MEASURE(2.E-2),#10);
#516=PRESENTATION_STYLE_ASSIGNMENT((#515));
#517=STYLED_ITEM('',(#516),#514);
#518=CARTESIAN_POINT('',(2.204724409449E-1,-2.518488799450E-1,
5.913416783456E-1));
#519=DIRECTION('',(0.E0,-1.736481776671E-1,9.848077530122E-1));
#520=DIRECTION('',(0.E0,-9.848077530122E-1,-1.736481776671E-1));
#521=AXIS2_PLACEMENT_3D('',#518,#519,#520);
#523=CURVE_STYLE('',#22,POSITIVE_LENGTH_MEASURE(2.E-2),#10);
#524=PRESENTATION_STYLE_ASSIGNMENT((#523));
#525=STYLED_ITEM('',(#524),#522);
#526=CARTESIAN_POINT('',(2.204724409449E-1,-2.440944881890E-1,
5.927089868312E-1));
#527=DIRECTION('',(1.E0,0.E0,0.E0));
#528=DIRECTION('',(0.E0,-1.E0,0.E0));
#529=AXIS2_PLACEMENT_3D('',#526,#527,#528);
#531=CURVE_STYLE('',#22,POSITIVE_LENGTH_MEASURE(2.E-2),#10);
#532=PRESENTATION_STYLE_ASSIGNMENT((#531));
#533=STYLED_ITEM('',(#532),#530);
#534=CARTESIAN_POINT('',(2.204724409449E-1,-2.519685039370E-1,
5.927089868312E-1));
#535=DIRECTION('',(0.E0,4.384236709524E-14,-1.E0));
#536=DIRECTION('',(1.E0,-9.869882688918E-14,0.E0));
#537=AXIS2_PLACEMENT_3D('',#534,#535,#536);
#539=CURVE_STYLE('',#22,POSITIVE_LENGTH_MEASURE(2.E-2),#10);
#540=PRESENTATION_STYLE_ASSIGNMENT((#539));
#541=STYLED_ITEM('',(#540),#538);
#542=DIRECTION('',(0.E0,0.E0,1.E0));
#543=VECTOR('',#542,2.054502502127E-2);
#544=CARTESIAN_POINT('',(2.244094488189E-1,-2.519685039370E-1,
5.927089868312E-1));
#545=LINE('',#544,#543);
#546=CURVE_STYLE('',#22,POSITIVE_LENGTH_MEASURE(2.E-2),#10);
#547=PRESENTATION_STYLE_ASSIGNMENT((#546));
#548=STYLED_ITEM('',(#547),#545);
#549=DIRECTION('',(0.E0,0.E0,-1.E0));
#550=VECTOR('',#549,2.054502502127E-2);
#551=CARTESIAN_POINT('',(2.204724409449E-1,-2.559055118110E-1,
6.132540118525E-1));
#552=LINE('',#551,#550);
#553=CURVE_STYLE('',#22,POSITIVE_LENGTH_MEASURE(2.E-2),#10);
#554=PRESENTATION_STYLE_ASSIGNMENT((#553));
#555=STYLED_ITEM('',(#554),#552);
#556=DIRECTION('',(0.E0,0.E0,1.E0));
#557=VECTOR('',#556,2.054502502127E-2);
#558=CARTESIAN_POINT('',(1.732283464567E-1,-2.480314960630E-1,
5.927089868312E-1));
#559=LINE('',#558,#557);
#560=CURVE_STYLE('',#22,POSITIVE_LENGTH_MEASURE(2.E-2),#10);
#561=PRESENTATION_STYLE_ASSIGNMENT((#560));
#562=STYLED_ITEM('',(#561),#559);
#563=DIRECTION('',(0.E0,0.E0,-1.E0));
#564=VECTOR('',#563,2.054502502127E-2);
#565=CARTESIAN_POINT('',(2.244094488189E-1,-2.480314960630E-1,
6.132540118525E-1));
#566=LINE('',#565,#564);
#567=CURVE_STYLE('',#22,POSITIVE_LENGTH_MEASURE(2.E-2),#10);
#568=PRESENTATION_STYLE_ASSIGNMENT((#567));
#569=STYLED_ITEM('',(#568),#566);
#570=DIRECTION('',(1.E0,0.E0,0.E0));
#571=VECTOR('',#570,5.118110236220E-2);
#572=CARTESIAN_POINT('',(1.732283464567E-1,-2.480314960630E-1,
6.132540118525E-1));
#573=LINE('',#572,#571);
#574=CURVE_STYLE('',#22,POSITIVE_LENGTH_MEASURE(2.E-2),#10);
#575=PRESENTATION_STYLE_ASSIGNMENT((#574));
#576=STYLED_ITEM('',(#575),#573);
#577=DIRECTION('',(-1.E0,0.E0,0.E0));
#578=VECTOR('',#577,5.118110236220E-2);
#579=CARTESIAN_POINT('',(2.244094488189E-1,-2.479716840670E-1,
5.920253325884E-1));
#580=LINE('',#579,#578);
#581=CURVE_STYLE('',#22,POSITIVE_LENGTH_MEASURE(2.E-2),#10);
#582=PRESENTATION_STYLE_ASSIGNMENT((#581));
#583=STYLED_ITEM('',(#582),#580);
#584=DIRECTION('',(1.E0,0.E0,0.E0));
#585=VECTOR('',#584,5.118110236220E-2);
#586=CARTESIAN_POINT('',(1.732283464567E-1,-2.480314960630E-1,
5.927089868312E-1));
#587=LINE('',#586,#585);
#588=CURVE_STYLE('',#22,POSITIVE_LENGTH_MEASURE(2.E-2),#10);
#589=PRESENTATION_STYLE_ASSIGNMENT((#588));
#590=STYLED_ITEM('',(#589),#587);
#591=CARTESIAN_POINT('',(1.732283464567E-1,-2.397052357305E-1,
3.993664047884E-1));
#592=CARTESIAN_POINT('',(2.244094488189E-1,-2.397052357305E-1,
3.993664047884E-1));
#593=VERTEX_POINT('',#591);
#594=VERTEX_POINT('',#592);
#595=CARTESIAN_POINT('',(1.771653543307E-1,-2.559055118110E-1,
5.927089868312E-1));
#596=CARTESIAN_POINT('',(1.732283464567E-1,-2.519685039370E-1,
5.927089868312E-1));
#597=VERTEX_POINT('',#595);
#598=VERTEX_POINT('',#596);
#599=CARTESIAN_POINT('',(2.204724409449E-1,-2.557260758230E-1,
5.906580241028E-1));
#600=CARTESIAN_POINT('',(2.204724409449E-1,-2.254627796321E-1,
4.190263426136E-1));
#601=VERTEX_POINT('',#599);
#602=VERTEX_POINT('',#600);
#603=CARTESIAN_POINT('',(1.732283464567E-1,-2.242786557487E-1,
4.123108423615E-1));
#604=VERTEX_POINT('',#603);
#605=CARTESIAN_POINT('',(1.732283464567E-1,-2.518488799450E-1,
5.913416783456E-1));
#606=VERTEX_POINT('',#605);
#607=CARTESIAN_POINT('',(2.244094488189E-1,-2.224409448819E-1,
4.101207438338E-1));
#608=CARTESIAN_POINT('',(2.244094488189E-1,-2.224409210689E-1,
4.145475768581E-1));
#609=VERTEX_POINT('',#607);
#610=VERTEX_POINT('',#608);
#611=CARTESIAN_POINT('',(1.732283464567E-1,-2.224409448819E-1,
4.101207438338E-1));
#612=VERTEX_POINT('',#611);
#613=VERTEX_POINT('',#214);
#614=VERTEX_POINT('',#209);
#615=CARTESIAN_POINT('',(2.244094488189E-1,-2.224409448819E-1,
4.472333156066E-1));
#616=CARTESIAN_POINT('',(2.244094488189E-1,-2.479716840670E-1,
5.920253325884E-1));
#617=VERTEX_POINT('',#615);
#618=VERTEX_POINT('',#616);
#619=CARTESIAN_POINT('',(2.244094488189E-1,-2.224409448819E-1,
4.245609908698E-1));
#620=VERTEX_POINT('',#619);
#621=CARTESIAN_POINT('',(2.244094488189E-1,-2.230980418982E-1,
4.081620962311E-1));
#622=VERTEX_POINT('',#621);
#623=CARTESIAN_POINT('',(2.244094488189E-1,-2.371745758498E-1,
3.963504817840E-1));
#624=VERTEX_POINT('',#623);
#625=CARTESIAN_POINT('',(1.732283464567E-1,-2.230980418982E-1,
4.081620962311E-1));
#626=CARTESIAN_POINT('',(1.732283464567E-1,-2.371745758498E-1,
3.963504817840E-1));
#627=VERTEX_POINT('',#625);
#628=VERTEX_POINT('',#626);
#629=CARTESIAN_POINT('',(2.244094488189E-1,-2.518488799450E-1,
5.913416783456E-1));
#630=VERTEX_POINT('',#629);
#631=CARTESIAN_POINT('',(1.732283464567E-1,-2.224409448819E-1,
4.472333156066E-1));
#632=VERTEX_POINT('',#631);
#633=CARTESIAN_POINT('',(2.244094488189E-1,-2.519685039370E-1,
5.927089868312E-1));
#634=VERTEX_POINT('',#633);
#635=CARTESIAN_POINT('',(1.732283464567E-1,-2.479716840670E-1,
5.920253325884E-1));
#636=VERTEX_POINT('',#635);
#637=CARTESIAN_POINT('',(2.244094488189E-1,-2.519685039370E-1,
6.132540118525E-1));
#638=VERTEX_POINT('',#637);
#639=CARTESIAN_POINT('',(2.244094488189E-1,-2.242786557487E-1,
4.123108423615E-1));
#640=VERTEX_POINT('',#639);
#641=CARTESIAN_POINT('',(1.771653543307E-1,-2.559055118110E-1,
6.132540118525E-1));
#642=VERTEX_POINT('',#641);
#643=CARTESIAN_POINT('',(2.204724409449E-1,-2.559055118110E-1,
6.132540118525E-1));
#644=CARTESIAN_POINT('',(2.204724409449E-1,-2.559055118110E-1,
5.927089868312E-1));
#645=VERTEX_POINT('',#643);
#646=VERTEX_POINT('',#644);
#647=CARTESIAN_POINT('',(1.732283464567E-1,-2.519685039370E-1,
6.132540118525E-1));
#648=VERTEX_POINT('',#647);
#649=CARTESIAN_POINT('',(1.771653543307E-1,-2.557260758230E-1,
5.906580241028E-1));
#650=VERTEX_POINT('',#649);
#651=CARTESIAN_POINT('',(2.204724409449E-1,-2.392199726067E-1,
4.049129876735E-1));
#652=CARTESIAN_POINT('',(1.771653543307E-1,-2.392199726067E-1,
4.049129876735E-1));
#653=VERTEX_POINT('',#651);
#654=VERTEX_POINT('',#652);
#655=CARTESIAN_POINT('',(1.771653543307E-1,-2.268093156293E-1,
4.153267653659E-1));
#656=VERTEX_POINT('',#655);
#657=CARTESIAN_POINT('',(2.204724409449E-1,-2.268093156293E-1,
4.153267653659E-1));
#658=VERTEX_POINT('',#657);
#659=VERTEX_POINT('',#377);
#660=VERTEX_POINT('',#382);
#661=VERTEX_POINT('',#299);
#662=VERTEX_POINT('',#336);
#663=CARTESIAN_POINT('',(1.771653543307E-1,-2.254029676359E-1,
4.183426883703E-1));
#664=VERTEX_POINT('',#663);
#665=CARTESIAN_POINT('',(1.771653543307E-1,-2.254627796321E-1,
4.190263426136E-1));
#666=VERTEX_POINT('',#665);
#667=CARTESIAN_POINT('',(2.244094488189E-1,-2.480314960630E-1,
6.132540118525E-1));
#668=VERTEX_POINT('',#667);
#669=CARTESIAN_POINT('',(2.244094488189E-1,-2.480314960630E-1,
5.927089868312E-1));
#670=VERTEX_POINT('',#669);
#671=VERTEX_POINT('',#240);
#672=VERTEX_POINT('',#274);
#673=CARTESIAN_POINT('',(1.732283464567E-1,-2.480314960630E-1,
5.927089868312E-1));
#674=VERTEX_POINT('',#673);
#675=CARTESIAN_POINT('',(1.732283464567E-1,-2.480314960630E-1,
6.132540118525E-1));
#676=VERTEX_POINT('',#675);
#677=CARTESIAN_POINT('',(2.204724409449E-1,-2.254029676359E-1,
4.183426883703E-1));
#678=VERTEX_POINT('',#677);
#679=CARTESIAN_POINT('',(1.732283464567E-1,-2.440944881890E-1,
5.927089868312E-1));
#680=DIRECTION('',(1.E0,0.E0,0.E0));
#681=DIRECTION('',(0.E0,1.E0,0.E0));
#682=AXIS2_PLACEMENT_3D('',#679,#680,#681);
#683=PLANE('',#682);
#685=ORIENTED_EDGE('',*,*,#684,.F.);
#687=ORIENTED_EDGE('',*,*,#686,.F.);
#689=ORIENTED_EDGE('',*,*,#688,.F.);
#691=ORIENTED_EDGE('',*,*,#690,.F.);
#693=ORIENTED_EDGE('',*,*,#692,.F.);
#695=ORIENTED_EDGE('',*,*,#694,.F.);
#696=EDGE_LOOP('',(#685,#687,#689,#691,#693,#695));
#697=FACE_OUTER_BOUND('',#696,.F.);
#699=FILL_AREA_STYLE_COLOUR('',#5);
#700=FILL_AREA_STYLE('',(#699));
#701=SURFACE_STYLE_FILL_AREA(#700);
#702=SURFACE_SIDE_STYLE('',(#701));
#703=SURFACE_STYLE_USAGE(.BOTH.,#702);
#704=PRESENTATION_STYLE_ASSIGNMENT((#703));
#705=OVER_RIDING_STYLED_ITEM('',(#704),#698,#17);
#706=CARTESIAN_POINT('',(1.732283464567E-1,-2.440944881890E-1,
5.927089868312E-1));
#707=DIRECTION('',(1.E0,0.E0,0.E0));
#708=DIRECTION('',(0.E0,1.E0,0.E0));
#709=AXIS2_PLACEMENT_3D('',#706,#707,#708);
#710=PLANE('',#709);
#712=ORIENTED_EDGE('',*,*,#711,.F.);
#714=ORIENTED_EDGE('',*,*,#713,.F.);
#716=ORIENTED_EDGE('',*,*,#715,.T.);
#718=ORIENTED_EDGE('',*,*,#717,.F.);
#720=ORIENTED_EDGE('',*,*,#719,.F.);
#722=ORIENTED_EDGE('',*,*,#721,.T.);
#724=ORIENTED_EDGE('',*,*,#723,.T.);
#726=ORIENTED_EDGE('',*,*,#725,.T.);
#727=EDGE_LOOP('',(#712,#714,#716,#718,#720,#722,#724,#726));
#728=FACE_OUTER_BOUND('',#727,.F.);
#730=FILL_AREA_STYLE_COLOUR('',#5);
#731=FILL_AREA_STYLE('',(#730));
#732=SURFACE_STYLE_FILL_AREA(#731);
#733=SURFACE_SIDE_STYLE('',(#732));
#734=SURFACE_STYLE_USAGE(.POSITIVE.,#733);
#735=PRESENTATION_STYLE_ASSIGNMENT((#734));
#736=OVER_RIDING_STYLED_ITEM('',(#735),#729,#17);
#737=CARTESIAN_POINT('',(2.244094488189E-1,-2.422358956111E-1,
4.023823277928E-1));
#738=DIRECTION('',(0.E0,7.660444431193E-1,6.427876096862E-1));
#739=DIRECTION('',(0.E0,-6.427876096862E-1,7.660444431193E-1));
#740=AXIS2_PLACEMENT_3D('',#737,#738,#739);
#741=PLANE('',#740);
#743=ORIENTED_EDGE('',*,*,#742,.T.);
#745=ORIENTED_EDGE('',*,*,#744,.F.);
#746=ORIENTED_EDGE('',*,*,#684,.T.);
#748=ORIENTED_EDGE('',*,*,#747,.T.);
#749=EDGE_LOOP('',(#743,#745,#746,#748));
#750=FACE_OUTER_BOUND('',#749,.F.);
#752=FILL_AREA_STYLE_COLOUR('',#5);
#753=FILL_AREA_STYLE('',(#752));
#754=SURFACE_STYLE_FILL_AREA(#753);
#755=SURFACE_SIDE_STYLE('',(#754));
#756=SURFACE_STYLE_USAGE(.BOTH.,#755);
#757=PRESENTATION_STYLE_ASSIGNMENT((#756));
#758=OVER_RIDING_STYLED_ITEM('',(#757),#751,#17);
#759=CARTESIAN_POINT('',(2.244094488189E-1,-2.440944881890E-1,
5.927089868312E-1));
#760=DIRECTION('',(1.E0,0.E0,0.E0));
#761=DIRECTION('',(0.E0,1.E0,0.E0));
#762=AXIS2_PLACEMENT_3D('',#759,#760,#761);
#763=PLANE('',#762);
#765=ORIENTED_EDGE('',*,*,#764,.F.);
#767=ORIENTED_EDGE('',*,*,#766,.F.);
#769=ORIENTED_EDGE('',*,*,#768,.F.);
#771=ORIENTED_EDGE('',*,*,#770,.F.);
#772=ORIENTED_EDGE('',*,*,#742,.F.);
#774=ORIENTED_EDGE('',*,*,#773,.F.);
#775=EDGE_LOOP('',(#765,#767,#769,#771,#772,#774));
#776=FACE_OUTER_BOUND('',#775,.F.);
#778=FILL_AREA_STYLE_COLOUR('',#5);
#779=FILL_AREA_STYLE('',(#778));
#780=SURFACE_STYLE_FILL_AREA(#779);
#781=SURFACE_SIDE_STYLE('',(#780));
#782=SURFACE_STYLE_USAGE(.BOTH.,#781);
#783=PRESENTATION_STYLE_ASSIGNMENT((#782));
#784=OVER_RIDING_STYLED_ITEM('',(#783),#777,#17);
#785=CARTESIAN_POINT('',(2.244094488189E-1,-2.440944881890E-1,
5.927089868312E-1));
#786=DIRECTION('',(1.E0,0.E0,0.E0));
#787=DIRECTION('',(0.E0,1.E0,0.E0));
#788=AXIS2_PLACEMENT_3D('',#785,#786,#787);
#789=PLANE('',#788);
#791=ORIENTED_EDGE('',*,*,#790,.T.);
#793=ORIENTED_EDGE('',*,*,#792,.T.);
#795=ORIENTED_EDGE('',*,*,#794,.F.);
#797=ORIENTED_EDGE('',*,*,#796,.F.);
#799=ORIENTED_EDGE('',*,*,#798,.T.);
#801=ORIENTED_EDGE('',*,*,#800,.F.);
#803=ORIENTED_EDGE('',*,*,#802,.F.);
#805=ORIENTED_EDGE('',*,*,#804,.T.);
#806=EDGE_LOOP('',(#791,#793,#795,#797,#799,#801,#803,#805));
#807=FACE_OUTER_BOUND('',#806,.F.);
#809=FILL_AREA_STYLE_COLOUR('',#5);
#810=FILL_AREA_STYLE('',(#809));
#811=SURFACE_STYLE_FILL_AREA(#810);
#812=SURFACE_SIDE_STYLE('',(#811));
#813=SURFACE_STYLE_USAGE(.POSITIVE.,#812);
#814=PRESENTATION_STYLE_ASSIGNMENT((#813));
#815=OVER_RIDING_STYLED_ITEM('',(#814),#808,#17);
#816=CARTESIAN_POINT('',(2.204724409449E-1,-2.293399755100E-1,
4.183426883703E-1));
#817=DIRECTION('',(1.E0,0.E0,0.E0));
#818=DIRECTION('',(0.E0,1.E0,0.E0));
#819=AXIS2_PLACEMENT_3D('',#816,#817,#818);
#820=TOROIDAL_SURFACE('',#819,7.874015748027E-3,3.937007874016E-3);
#821=ORIENTED_EDGE('',*,*,#764,.T.);
#823=ORIENTED_EDGE('',*,*,#822,.F.);
#825=ORIENTED_EDGE('',*,*,#824,.F.);
#827=ORIENTED_EDGE('',*,*,#826,.F.);
#829=ORIENTED_EDGE('',*,*,#828,.F.);
#831=ORIENTED_EDGE('',*,*,#830,.F.);
#833=ORIENTED_EDGE('',*,*,#832,.T.);
#834=EDGE_LOOP('',(#821,#823,#825,#827,#829,#831,#833));
#835=FACE_OUTER_BOUND('',#834,.F.);
#837=CARTESIAN_POINT('',(2.204724409449E-1,-1.470783179135E-1,
4.770896173657E-1));
#838=DIRECTION('',(0.E0,7.660444431190E-1,6.427876096865E-1));
#839=DIRECTION('',(0.E0,-6.427876096865E-1,7.660444431190E-1));
#840=AXIS2_PLACEMENT_3D('',#837,#838,#839);
#841=CYLINDRICAL_SURFACE('',#840,3.937007874016E-3);
#843=ORIENTED_EDGE('',*,*,#842,.T.);
#845=ORIENTED_EDGE('',*,*,#844,.F.);
#846=ORIENTED_EDGE('',*,*,#822,.T.);
#847=ORIENTED_EDGE('',*,*,#773,.T.);
#849=ORIENTED_EDGE('',*,*,#848,.T.);
#850=EDGE_LOOP('',(#843,#845,#846,#847,#849));
#851=FACE_OUTER_BOUND('',#850,.F.);
#853=CARTESIAN_POINT('',(2.244094488189E-1,-2.366893127260E-1,
4.018970646691E-1));
#854=DIRECTION('',(-1.E0,0.E0,0.E0));
#855=DIRECTION('',(0.E0,-1.E0,0.E0));
#856=AXIS2_PLACEMENT_3D('',#853,#854,#855);
#857=CYLINDRICAL_SURFACE('',#856,3.937007874016E-3);
#859=ORIENTED_EDGE('',*,*,#858,.T.);
#861=ORIENTED_EDGE('',*,*,#860,.F.);
#862=ORIENTED_EDGE('',*,*,#842,.F.);
#863=ORIENTED_EDGE('',*,*,#848,.F.);
#864=ORIENTED_EDGE('',*,*,#747,.F.);
#866=ORIENTED_EDGE('',*,*,#865,.T.);
#867=EDGE_LOOP('',(#859,#861,#862,#863,#864,#866));
#868=FACE_OUTER_BOUND('',#867,.F.);
#870=CARTESIAN_POINT('',(1.771653543307E-1,-2.256287017788E-1,
4.111780192355E-1));
#871=DIRECTION('',(0.E0,-7.660444431190E-1,-6.427876096865E-1));
#872=DIRECTION('',(0.E0,6.427876096865E-1,-7.660444431190E-1));
#873=AXIS2_PLACEMENT_3D('',#870,#871,#872);
#874=CYLINDRICAL_SURFACE('',#873,3.937007874016E-3);
#876=ORIENTED_EDGE('',*,*,#875,.T.);
#878=ORIENTED_EDGE('',*,*,#877,.F.);
#879=ORIENTED_EDGE('',*,*,#858,.F.);
#880=ORIENTED_EDGE('',*,*,#865,.F.);
#881=ORIENTED_EDGE('',*,*,#694,.T.);
#882=EDGE_LOOP('',(#876,#878,#879,#880,#881));
#883=FACE_OUTER_BOUND('',#882,.F.);
#885=CARTESIAN_POINT('',(1.771653543307E-1,-2.293399755100E-1,
4.183426883703E-1));
#886=DIRECTION('',(1.E0,0.E0,0.E0));
#887=DIRECTION('',(0.E0,1.E0,0.E0));
#888=AXIS2_PLACEMENT_3D('',#885,#886,#887);
#889=TOROIDAL_SURFACE('',#888,7.874015748027E-3,3.937007874016E-3);
#891=ORIENTED_EDGE('',*,*,#890,.F.);
#893=ORIENTED_EDGE('',*,*,#892,.F.);
#895=ORIENTED_EDGE('',*,*,#894,.F.);
#897=ORIENTED_EDGE('',*,*,#896,.F.);
#898=ORIENTED_EDGE('',*,*,#875,.F.);
#899=ORIENTED_EDGE('',*,*,#692,.T.);
#901=ORIENTED_EDGE('',*,*,#900,.T.);
#902=EDGE_LOOP('',(#891,#893,#895,#897,#898,#899,#901));
#903=FACE_OUTER_BOUND('',#902,.F.);
#905=CARTESIAN_POINT('',(2.244094488189E-1,-2.224409448819E-1,
4.195591736108E-1));
#906=DIRECTION('',(0.E0,-1.E0,0.E0));
#907=DIRECTION('',(0.E0,0.E0,-1.E0));
#908=AXIS2_PLACEMENT_3D('',#905,#906,#907);
#909=PLANE('',#908);
#910=ORIENTED_EDGE('',*,*,#890,.T.);
#911=ORIENTED_EDGE('',*,*,#900,.F.);
#912=ORIENTED_EDGE('',*,*,#690,.T.);
#914=ORIENTED_EDGE('',*,*,#913,.T.);
#915=ORIENTED_EDGE('',*,*,#766,.T.);
#916=ORIENTED_EDGE('',*,*,#832,.F.);
#917=ORIENTED_EDGE('',*,*,#830,.T.);
#919=ORIENTED_EDGE('',*,*,#918,.F.);
#920=ORIENTED_EDGE('',*,*,#798,.F.);
#922=ORIENTED_EDGE('',*,*,#921,.F.);
#923=ORIENTED_EDGE('',*,*,#715,.F.);
#925=ORIENTED_EDGE('',*,*,#924,.F.);
#926=EDGE_LOOP('',(#910,#911,#912,#914,#915,#916,#917,#919,#920,#922,#923,
#925));
#927=FACE_OUTER_BOUND('',#926,.F.);
#929=FILL_AREA_STYLE_COLOUR('',#5);
#930=FILL_AREA_STYLE('',(#929));
#931=SURFACE_STYLE_FILL_AREA(#930);
#932=SURFACE_SIDE_STYLE('',(#931));
#933=SURFACE_STYLE_USAGE(.BOTH.,#932);
#934=PRESENTATION_STYLE_ASSIGNMENT((#933));
#935=OVER_RIDING_STYLED_ITEM('',(#934),#928,#17);
#936=CARTESIAN_POINT('',(2.244094488189E-1,-2.230980418982E-1,
4.081620962311E-1));
#937=DIRECTION('',(0.E0,-9.480695243750E-1,3.180631650338E-1));
#938=DIRECTION('',(0.E0,-3.180631650338E-1,-9.480695243750E-1));
#939=AXIS2_PLACEMENT_3D('',#936,#937,#938);
#940=PLANE('',#939);
#941=ORIENTED_EDGE('',*,*,#688,.T.);
#943=ORIENTED_EDGE('',*,*,#942,.F.);
#944=ORIENTED_EDGE('',*,*,#768,.T.);
#945=ORIENTED_EDGE('',*,*,#913,.F.);
#946=EDGE_LOOP('',(#941,#943,#944,#945));
#947=FACE_OUTER_BOUND('',#946,.F.);
#949=FILL_AREA_STYLE_COLOUR('',#5);
#950=FILL_AREA_STYLE('',(#949));
#951=SURFACE_STYLE_FILL_AREA(#950);
#952=SURFACE_SIDE_STYLE('',(#951));
#953=SURFACE_STYLE_USAGE(.BOTH.,#952);
#954=PRESENTATION_STYLE_ASSIGNMENT((#953));
#955=OVER_RIDING_STYLED_ITEM('',(#954),#948,#17);
#956=CARTESIAN_POINT('',(2.244094488189E-1,-2.371745758498E-1,
3.963504817840E-1));
#957=DIRECTION('',(0.E0,-6.427876096865E-1,7.660444431190E-1));
#958=DIRECTION('',(0.E0,-7.660444431190E-1,-6.427876096865E-1));
#959=AXIS2_PLACEMENT_3D('',#956,#957,#958);
#960=PLANE('',#959);
#961=ORIENTED_EDGE('',*,*,#686,.T.);
#962=ORIENTED_EDGE('',*,*,#744,.T.);
#963=ORIENTED_EDGE('',*,*,#770,.T.);
#964=ORIENTED_EDGE('',*,*,#942,.T.);
#965=EDGE_LOOP('',(#961,#962,#963,#964));
#966=FACE_OUTER_BOUND('',#965,.F.);
#968=FILL_AREA_STYLE_COLOUR('',#5);
#969=FILL_AREA_STYLE('',(#968));
#970=SURFACE_STYLE_FILL_AREA(#969);
#971=SURFACE_SIDE_STYLE('',(#970));
#972=SURFACE_STYLE_USAGE(.BOTH.,#971);
#973=PRESENTATION_STYLE_ASSIGNMENT((#972));
#974=OVER_RIDING_STYLED_ITEM('',(#973),#967,#17);
#975=CARTESIAN_POINT('',(2.204724409449E-1,-2.518488799450E-1,
5.913416783456E-1));
#976=DIRECTION('',(0.E0,-1.736481776670E-1,9.848077530122E-1));
#977=DIRECTION('',(0.E0,-9.848077530122E-1,-1.736481776670E-1));
#978=AXIS2_PLACEMENT_3D('',#975,#976,#977);
#979=CYLINDRICAL_SURFACE('',#978,3.937007874016E-3);
#980=ORIENTED_EDGE('',*,*,#918,.T.);
#981=ORIENTED_EDGE('',*,*,#828,.T.);
#983=ORIENTED_EDGE('',*,*,#982,.F.);
#985=ORIENTED_EDGE('',*,*,#984,.T.);
#986=ORIENTED_EDGE('',*,*,#800,.T.);
#987=EDGE_LOOP('',(#980,#981,#983,#985,#986));
#988=FACE_OUTER_BOUND('',#987,.F.);
#990=CARTESIAN_POINT('',(2.244094488189E-1,-2.557260758230E-1,
5.906580241028E-1));
#991=DIRECTION('',(0.E0,9.848077530122E-1,1.736481776670E-1));
#992=DIRECTION('',(0.E0,-1.736481776670E-1,9.848077530122E-1));
#993=AXIS2_PLACEMENT_3D('',#990,#991,#992);
#994=PLANE('',#993);
#996=ORIENTED_EDGE('',*,*,#995,.T.);
#998=ORIENTED_EDGE('',*,*,#997,.T.);
#1000=ORIENTED_EDGE('',*,*,#999,.T.);
#1001=ORIENTED_EDGE('',*,*,#982,.T.);
#1002=EDGE_LOOP('',(#996,#998,#1000,#1001));
#1003=FACE_OUTER_BOUND('',#1002,.F.);
#1005=FILL_AREA_STYLE_COLOUR('',#5);
#1006=FILL_AREA_STYLE('',(#1005));
#1007=SURFACE_STYLE_FILL_AREA(#1006);
#1008=SURFACE_SIDE_STYLE('',(#1007));
#1009=SURFACE_STYLE_USAGE(.BOTH.,#1008);
#1010=PRESENTATION_STYLE_ASSIGNMENT((#1009));
#1011=OVER_RIDING_STYLED_ITEM('',(#1010),#1004,#17);
#1012=CARTESIAN_POINT('',(2.244094488189E-1,-2.293399755100E-1,
4.183426883703E-1));
#1013=DIRECTION('',(-1.E0,0.E0,0.E0));
#1014=DIRECTION('',(0.E0,-1.E0,0.E0));
#1015=AXIS2_PLACEMENT_3D('',#1012,#1013,#1014);
#1016=CYLINDRICAL_SURFACE('',#1015,3.937007874011E-3);
#1018=ORIENTED_EDGE('',*,*,#1017,.F.);
#1019=ORIENTED_EDGE('',*,*,#896,.T.);
#1020=ORIENTED_EDGE('',*,*,#894,.T.);
#1021=ORIENTED_EDGE('',*,*,#995,.F.);
#1022=ORIENTED_EDGE('',*,*,#826,.T.);
#1023=ORIENTED_EDGE('',*,*,#824,.T.);
#1024=EDGE_LOOP('',(#1018,#1019,#1020,#1021,#1022,#1023));
#1025=FACE_OUTER_BOUND('',#1024,.F.);
#1027=FILL_AREA_STYLE_COLOUR('',#5);
#1028=FILL_AREA_STYLE('',(#1027));
#1029=SURFACE_STYLE_FILL_AREA(#1028);
#1030=SURFACE_SIDE_STYLE('',(#1029));
#1031=SURFACE_STYLE_USAGE(.BOTH.,#1030);
#1032=PRESENTATION_STYLE_ASSIGNMENT((#1031));
#1033=OVER_RIDING_STYLED_ITEM('',(#1032),#1026,#17);
#1034=CARTESIAN_POINT('',(2.244094488189E-1,-2.281593616595E-1,
4.141939422399E-1));
#1035=DIRECTION('',(0.E0,6.427876096865E-1,-7.660444431190E-1));
#1036=DIRECTION('',(0.E0,7.660444431190E-1,6.427876096865E-1));
#1037=AXIS2_PLACEMENT_3D('',#1034,#1035,#1036);
#1038=PLANE('',#1037);
#1039=ORIENTED_EDGE('',*,*,#860,.T.);
#1040=ORIENTED_EDGE('',*,*,#877,.T.);
#1041=ORIENTED_EDGE('',*,*,#1017,.T.);
#1042=ORIENTED_EDGE('',*,*,#844,.T.);
#1043=EDGE_LOOP('',(#1039,#1040,#1041,#1042));
#1044=FACE_OUTER_BOUND('',#1043,.F.);
#1046=FILL_AREA_STYLE_COLOUR('',#5);
#1047=FILL_AREA_STYLE('',(#1046));
#1048=SURFACE_STYLE_FILL_AREA(#1047);
#1049=SURFACE_SIDE_STYLE('',(#1048));
#1050=SURFACE_STYLE_USAGE(.BOTH.,#1049);
#1051=PRESENTATION_STYLE_ASSIGNMENT((#1050));
#1052=OVER_RIDING_STYLED_ITEM('',(#1051),#1045,#17);
#1053=CARTESIAN_POINT('',(1.771653543307E-1,-2.518488799450E-1,
5.913416783456E-1));
#1054=DIRECTION('',(0.E0,1.736481776670E-1,-9.848077530122E-1));
#1055=DIRECTION('',(0.E0,9.848077530122E-1,1.736481776670E-1));
#1056=AXIS2_PLACEMENT_3D('',#1053,#1054,#1055);
#1057=CYLINDRICAL_SURFACE('',#1056,3.937007874016E-3);
#1058=ORIENTED_EDGE('',*,*,#713,.T.);
#1060=ORIENTED_EDGE('',*,*,#1059,.T.);
#1061=ORIENTED_EDGE('',*,*,#997,.F.);
#1062=ORIENTED_EDGE('',*,*,#892,.T.);
#1063=ORIENTED_EDGE('',*,*,#924,.T.);
#1064=EDGE_LOOP('',(#1058,#1060,#1061,#1062,#1063));
#1065=FACE_OUTER_BOUND('',#1064,.F.);
#1067=CARTESIAN_POINT('',(1.771653543307E-1,-2.440944881890E-1,
5.927089868312E-1));
#1068=DIRECTION('',(1.E0,0.E0,0.E0));
#1069=DIRECTION('',(0.E0,1.E0,0.E0));
#1070=AXIS2_PLACEMENT_3D('',#1067,#1068,#1069);
#1071=TOROIDAL_SURFACE('',#1070,7.874015748032E-3,3.937007874016E-3);
#1073=ORIENTED_EDGE('',*,*,#1072,.F.);
#1075=ORIENTED_EDGE('',*,*,#1074,.F.);
#1076=ORIENTED_EDGE('',*,*,#1059,.F.);
#1077=ORIENTED_EDGE('',*,*,#711,.T.);
#1078=EDGE_LOOP('',(#1073,#1075,#1076,#1077));
#1079=FACE_OUTER_BOUND('',#1078,.F.);
#1081=CARTESIAN_POINT('',(1.771653543307E-1,-2.519685039370E-1,
6.132540118525E-1));
#1082=DIRECTION('',(0.E0,0.E0,-1.E0));
#1083=DIRECTION('',(0.E0,1.E0,0.E0));
#1084=AXIS2_PLACEMENT_3D('',#1081,#1082,#1083);
#1085=CYLINDRICAL_SURFACE('',#1084,3.937007874016E-3);
#1087=ORIENTED_EDGE('',*,*,#1086,.T.);
#1089=ORIENTED_EDGE('',*,*,#1088,.F.);
#1090=ORIENTED_EDGE('',*,*,#1072,.T.);
#1091=ORIENTED_EDGE('',*,*,#725,.F.);
#1092=EDGE_LOOP('',(#1087,#1089,#1090,#1091));
#1093=FACE_OUTER_BOUND('',#1092,.F.);
#1095=CARTESIAN_POINT('',(2.244094488189E-1,-2.480314960630E-1,
6.132540118525E-1));
#1096=DIRECTION('',(0.E0,0.E0,-1.E0));
#1097=DIRECTION('',(-1.E0,0.E0,0.E0));
#1098=AXIS2_PLACEMENT_3D('',#1095,#1096,#1097);
#1099=PLANE('',#1098);
#1101=ORIENTED_EDGE('',*,*,#1100,.F.);
#1102=ORIENTED_EDGE('',*,*,#1086,.F.);
#1103=ORIENTED_EDGE('',*,*,#723,.F.);
#1105=ORIENTED_EDGE('',*,*,#1104,.T.);
#1106=ORIENTED_EDGE('',*,*,#790,.F.);
#1108=ORIENTED_EDGE('',*,*,#1107,.F.);
#1109=EDGE_LOOP('',(#1101,#1102,#1103,#1105,#1106,#1108));
#1110=FACE_OUTER_BOUND('',#1109,.F.);
#1112=FILL_AREA_STYLE_COLOUR('',#5);
#1113=FILL_AREA_STYLE('',(#1112));
#1114=SURFACE_STYLE_FILL_AREA(#1113);
#1115=SURFACE_SIDE_STYLE('',(#1114));
#1116=SURFACE_STYLE_USAGE(.BOTH.,#1115);
#1117=PRESENTATION_STYLE_ASSIGNMENT((#1116));
#1118=OVER_RIDING_STYLED_ITEM('',(#1117),#1111,#17);
#1119=CARTESIAN_POINT('',(2.244094488189E-1,-2.559055118110E-1,
6.132540118525E-1));
#1120=DIRECTION('',(0.E0,1.E0,0.E0));
#1121=DIRECTION('',(0.E0,0.E0,1.E0));
#1122=AXIS2_PLACEMENT_3D('',#1119,#1120,#1121);
#1123=PLANE('',#1122);
#1125=ORIENTED_EDGE('',*,*,#1124,.T.);
#1126=ORIENTED_EDGE('',*,*,#1088,.T.);
#1127=ORIENTED_EDGE('',*,*,#1100,.T.);
#1129=ORIENTED_EDGE('',*,*,#1128,.T.);
#1130=EDGE_LOOP('',(#1125,#1126,#1127,#1129));
#1131=FACE_OUTER_BOUND('',#1130,.F.);
#1133=FILL_AREA_STYLE_COLOUR('',#5);
#1134=FILL_AREA_STYLE('',(#1133));
#1135=SURFACE_STYLE_FILL_AREA(#1134);
#1136=SURFACE_SIDE_STYLE('',(#1135));
#1137=SURFACE_STYLE_USAGE(.BOTH.,#1136);
#1138=PRESENTATION_STYLE_ASSIGNMENT((#1137));
#1139=OVER_RIDING_STYLED_ITEM('',(#1138),#1132,#17);
#1140=CARTESIAN_POINT('',(2.244094488189E-1,-2.440944881890E-1,
5.927089868312E-1));
#1141=DIRECTION('',(-1.E0,0.E0,0.E0));
#1142=DIRECTION('',(0.E0,-1.E0,0.E0));
#1143=AXIS2_PLACEMENT_3D('',#1140,#1141,#1142);
#1144=CYLINDRICAL_SURFACE('',#1143,1.181102362205E-2);
#1145=ORIENTED_EDGE('',*,*,#999,.F.);
#1146=ORIENTED_EDGE('',*,*,#1074,.T.);
#1147=ORIENTED_EDGE('',*,*,#1124,.F.);
#1149=ORIENTED_EDGE('',*,*,#1148,.T.);
#1150=EDGE_LOOP('',(#1145,#1146,#1147,#1149));
#1151=FACE_OUTER_BOUND('',#1150,.F.);
#1153=FILL_AREA_STYLE_COLOUR('',#5);
#1154=FILL_AREA_STYLE('',(#1153));
#1155=SURFACE_STYLE_FILL_AREA(#1154);
#1156=SURFACE_SIDE_STYLE('',(#1155));
#1157=SURFACE_STYLE_USAGE(.BOTH.,#1156);
#1158=PRESENTATION_STYLE_ASSIGNMENT((#1157));
#1159=OVER_RIDING_STYLED_ITEM('',(#1158),#1152,#17);
#1160=CARTESIAN_POINT('',(2.204724409449E-1,-2.440944881890E-1,
5.927089868312E-1));
#1161=DIRECTION('',(1.E0,0.E0,0.E0));
#1162=DIRECTION('',(0.E0,1.E0,0.E0));
#1163=AXIS2_PLACEMENT_3D('',#1160,#1161,#1162);
#1164=TOROIDAL_SURFACE('',#1163,7.874015748032E-3,3.937007874016E-3);
#1165=ORIENTED_EDGE('',*,*,#984,.F.);
#1166=ORIENTED_EDGE('',*,*,#1148,.F.);
#1168=ORIENTED_EDGE('',*,*,#1167,.F.);
#1169=ORIENTED_EDGE('',*,*,#802,.T.);
#1170=EDGE_LOOP('',(#1165,#1166,#1168,#1169));
#1171=FACE_OUTER_BOUND('',#1170,.F.);
#1173=CARTESIAN_POINT('',(2.204724409449E-1,-2.519685039370E-1,
5.927089868312E-1));
#1174=DIRECTION('',(0.E0,0.E0,1.E0));
#1175=DIRECTION('',(0.E0,-1.E0,0.E0));
#1176=AXIS2_PLACEMENT_3D('',#1173,#1174,#1175);
#1177=CYLINDRICAL_SURFACE('',#1176,3.937007874016E-3);
#1178=ORIENTED_EDGE('',*,*,#1107,.T.);
#1179=ORIENTED_EDGE('',*,*,#804,.F.);
#1180=ORIENTED_EDGE('',*,*,#1167,.T.);
#1181=ORIENTED_EDGE('',*,*,#1128,.F.);
#1182=EDGE_LOOP('',(#1178,#1179,#1180,#1181));
#1183=FACE_OUTER_BOUND('',#1182,.F.);
#1185=CARTESIAN_POINT('',(2.244094488189E-1,-2.480314960630E-1,
5.927089868312E-1));
#1186=DIRECTION('',(0.E0,-1.E0,0.E0));
#1187=DIRECTION('',(0.E0,0.E0,-1.E0));
#1188=AXIS2_PLACEMENT_3D('',#1185,#1186,#1187);
#1189=PLANE('',#1188);
#1190=ORIENTED_EDGE('',*,*,#721,.F.);
#1192=ORIENTED_EDGE('',*,*,#1191,.T.);
#1193=ORIENTED_EDGE('',*,*,#792,.F.);
#1194=ORIENTED_EDGE('',*,*,#1104,.F.);
#1195=EDGE_LOOP('',(#1190,#1192,#1193,#1194));
#1196=FACE_OUTER_BOUND('',#1195,.F.);
#1198=FILL_AREA_STYLE_COLOUR('',#5);
#1199=FILL_AREA_STYLE('',(#1198));
#1200=SURFACE_STYLE_FILL_AREA(#1199);
#1201=SURFACE_SIDE_STYLE('',(#1200));
#1202=SURFACE_STYLE_USAGE(.BOTH.,#1201);
#1203=PRESENTATION_STYLE_ASSIGNMENT((#1202));
#1204=OVER_RIDING_STYLED_ITEM('',(#1203),#1197,#17);
#1205=CARTESIAN_POINT('',(2.244094488189E-1,-2.440944881890E-1,
5.927089868312E-1));
#1206=DIRECTION('',(-1.E0,0.E0,0.E0));
#1207=DIRECTION('',(0.E0,-1.E0,0.E0));
#1208=AXIS2_PLACEMENT_3D('',#1205,#1206,#1207);
#1209=CYLINDRICAL_SURFACE('',#1208,3.937007874016E-3);
#1210=ORIENTED_EDGE('',*,*,#719,.T.);
#1212=ORIENTED_EDGE('',*,*,#1211,.F.);
#1213=ORIENTED_EDGE('',*,*,#794,.T.);
#1214=ORIENTED_EDGE('',*,*,#1191,.F.);
#1215=EDGE_LOOP('',(#1210,#1212,#1213,#1214));
#1216=FACE_OUTER_BOUND('',#1215,.F.);
#1218=FILL_AREA_STYLE_COLOUR('',#5);
#1219=FILL_AREA_STYLE('',(#1218));
#1220=SURFACE_STYLE_FILL_AREA(#1219);
#1221=SURFACE_SIDE_STYLE('',(#1220));
#1222=SURFACE_STYLE_USAGE(.BOTH.,#1221);
#1223=PRESENTATION_STYLE_ASSIGNMENT((#1222));
#1224=OVER_RIDING_STYLED_ITEM('',(#1223),#1217,#17);
#1225=CARTESIAN_POINT('',(2.244094488189E-1,-2.224409448819E-1,
4.472333156066E-1));
#1226=DIRECTION('',(0.E0,-9.848077530122E-1,-1.736481776669E-1));
#1227=DIRECTION('',(0.E0,1.736481776669E-1,-9.848077530122E-1));
#1228=AXIS2_PLACEMENT_3D('',#1225,#1226,#1227);
#1229=PLANE('',#1228);
#1230=ORIENTED_EDGE('',*,*,#717,.T.);
#1231=ORIENTED_EDGE('',*,*,#921,.T.);
#1232=ORIENTED_EDGE('',*,*,#796,.T.);
#1233=ORIENTED_EDGE('',*,*,#1211,.T.);
#1234=EDGE_LOOP('',(#1230,#1231,#1232,#1233));
#1235=FACE_OUTER_BOUND('',#1234,.F.);
#1237=FILL_AREA_STYLE_COLOUR('',#5);
#1238=FILL_AREA_STYLE('',(#1237));
#1239=SURFACE_STYLE_FILL_AREA(#1238);
#1240=SURFACE_SIDE_STYLE('',(#1239));
#1241=SURFACE_STYLE_USAGE(.BOTH.,#1240);
#1242=PRESENTATION_STYLE_ASSIGNMENT((#1241));
#1243=OVER_RIDING_STYLED_ITEM('',(#1242),#1236,#17);
#1246=FILL_AREA_STYLE_COLOUR('',#10);
#1247=FILL_AREA_STYLE('',(#1246));
#1248=SURFACE_STYLE_FILL_AREA(#1247);
#1249=SURFACE_SIDE_STYLE('',(#1248));
#1250=SURFACE_STYLE_USAGE(.BOTH.,#1249);
#1251=PRESENTATION_STYLE_ASSIGNMENT((#1250));
#17=STYLED_ITEM('',(#1251),#1245);
#1252=PRESENTATION_LAYER_ASSIGNMENT('SHELL_203','',(#17,#698,#729,#751,#777,
#808,#836,#852,#869,#884,#904,#928,#948,#967,#989,#1004,#1026,#1045,#1066,#1080,
#1094,#1111,#1132,#1152,#1172,#1184,#1197,#1217,#1236));
#1254=LENGTH_MEASURE_WITH_UNIT(LENGTH_MEASURE(2.54E1),#1253);
#1255=(CONVERSION_BASED_UNIT('INCH',#1254)LENGTH_UNIT()NAMED_UNIT(*));
#1257=PLANE_ANGLE_MEASURE_WITH_UNIT(PLANE_ANGLE_MEASURE(1.745329251994E-2),
#1256);
#1258=(CONVERSION_BASED_UNIT('DEGREE',#1257)NAMED_UNIT(*)PLANE_ANGLE_UNIT());
#1260=UNCERTAINTY_MEASURE_WITH_UNIT(LENGTH_MEASURE(2.254964778827E-5),#1255,
'closure',
'Maximum model space distance between geometric entities at asserted connectivities');
#1262=CARTESIAN_POINT('',(0.E0,0.E0,0.E0));
#1263=DIRECTION('',(0.E0,0.E0,1.E0));
#1264=DIRECTION('',(1.E0,0.E0,0.E0));
#1267=MECHANICAL_DESIGN_GEOMETRIC_PRESENTATION_REPRESENTATION('',(#25,#32,#39,
#46,#54,#61,#69,#76,#83,#91,#98,#106,#113,#120,#127,#134,#141,#149,#156,#163,
#171,#179,#187,#195,#203,#213,#225,#232,#239,#249,#259,#266,#273,#283,#293,#303,
#311,#319,#327,#335,#347,#355,#362,#369,#376,#386,#393,#400,#407,#414,#421,#428,
#436,#444,#452,#459,#466,#473,#481,#488,#495,#503,#510,#517,#525,#533,#541,#548,
#555,#562,#569,#576,#583,#590,#705,#736,#758,#784,#815,#935,#955,#974,#1011,
#1033,#1052,#1118,#1139,#1159,#1204,#1224,#1243,#17),#1261);
#1268=APPLICATION_CONTEXT('automotive design');
#1269=APPLICATION_PROTOCOL_DEFINITION('international standard',
'config_control_design',1994,#1268);
#1270=PRODUCT_DEFINITION_CONTEXT('',#1268,'design');
#1271=PRODUCT_CONTEXT('',#1268,'mechanical');
#1272=PRODUCT('FILLET6','FILLET6','NOT SPECIFIED',(#1271));
#1273=PRODUCT_DEFINITION_FORMATION_WITH_SPECIFIED_SOURCE('1','LAST_VERSION',
#1272,.MADE.);
#1281=LENGTH_MEASURE_WITH_UNIT(LENGTH_MEASURE(2.54E1),#1280);
#1282=(CONVERSION_BASED_UNIT('INCH',#1281)LENGTH_UNIT()NAMED_UNIT(*));
#1283=DERIVED_UNIT_ELEMENT(#1282,2.E0);
#1284=AREA_UNIT((#1283));
#1285=MEASURE_REPRESENTATION_ITEM('surface area measure',AREA_MEASURE(
1.687776312971E1),#1284);
#1290=LENGTH_MEASURE_WITH_UNIT(LENGTH_MEASURE(2.54E1),#1289);
#1291=(CONVERSION_BASED_UNIT('INCH',#1290)LENGTH_UNIT()NAMED_UNIT(*));
#1292=DERIVED_UNIT_ELEMENT(#1291,3.E0);
#1293=VOLUME_UNIT((#1292));
#1294=MEASURE_REPRESENTATION_ITEM('volume measure',VOLUME_MEASURE(
1.366677240395E0),#1293);
#1298=CARTESIAN_POINT('centre point',(5.049999953492E0,-6.051748696878E0,
1.290513621895E1));
#1303=LENGTH_MEASURE_WITH_UNIT(LENGTH_MEASURE(2.54E1),#1302);
#1304=(CONVERSION_BASED_UNIT('INCH',#1303)LENGTH_UNIT()NAMED_UNIT(*));
#1305=DERIVED_UNIT_ELEMENT(#1304,2.E0);
#1306=AREA_UNIT((#1305));
#1307=MEASURE_REPRESENTATION_ITEM('surface area measure',AREA_MEASURE(
1.687776312971E1),#1306);
#1312=LENGTH_MEASURE_WITH_UNIT(LENGTH_MEASURE(2.54E1),#1311);
#1313=(CONVERSION_BASED_UNIT('INCH',#1312)LENGTH_UNIT()NAMED_UNIT(*));
#1314=DERIVED_UNIT_ELEMENT(#1313,3.E0);
#1315=VOLUME_UNIT((#1314));
#1316=MEASURE_REPRESENTATION_ITEM('volume measure',VOLUME_MEASURE(
1.366677240395E0),#1315);
#1320=CARTESIAN_POINT('centre point',(5.049999953492E0,-6.051748696878E0,
1.290513621895E1));
#1=DRAUGHTING_PRE_DEFINED_COLOUR('green');
#2=COLOUR_RGB('',1.1E-2,1.2E-2,1.E0);
#3=COLOUR_RGB('',2.352941176471E-1,2.352941176471E-1,2.352941176471E-1);
#4=COLOUR_RGB('',4.1E-1,2.61589E-1,1.12848E-1);
#5=COLOUR_RGB('',4.980392156863E-1,4.980392156863E-1,4.980392156863E-1);
#6=COLOUR_RGB('',5.04854E-1,1.5455E-2,1.5455E-2);
#7=COLOUR_RGB('',6.35294E-1,6.86275E-1,7.4902E-1);
#8=COLOUR_RGB('',6.40777E-1,6.40777E-1,6.40777E-1);
#9=COLOUR_RGB('',6.69062E-1,6.69903E-1,6.55217E-1);
#10=COLOUR_RGB('',7.921568627451E-1,8.196078431373E-1,9.333333333333E-1);
#11=COLOUR_RGB('',9.21569E-1,7.05882E-1,4.70588E-1);
#12=DRAUGHTING_PRE_DEFINED_COLOUR('red');
#13=DRAUGHTING_PRE_DEFINED_COLOUR('yellow');
#14=COLOUR_RGB('',1.E0,1.E0,5.3E-1);
#15=COLOUR_RGB('',1.E0,1.E0,9.49E-1);
#16=DRAUGHTING_PRE_DEFINED_COLOUR('white');
#51=CIRCLE('',#50,7.874015748027E-3);
#66=CIRCLE('',#65,7.874015748032E-3);
#88=CIRCLE('',#87,3.937007874016E-3);
#103=CIRCLE('',#102,7.874015748027E-3);
#146=CIRCLE('',#145,3.937007874016E-3);
#168=CIRCLE('',#167,7.874015748032E-3);
#176=CIRCLE('',#175,3.937007874016E-3);
#184=CIRCLE('',#183,3.937007874011E-3);
#192=CIRCLE('',#191,3.937007874011E-3);
#200=CIRCLE('',#199,3.937007874016E-3);
#210=B_SPLINE_CURVE_WITH_KNOTS('',3,(#204,#205,#206,#207,#208,#209),
.UNSPECIFIED.,.F.,.F.,(4,1,1,4),(0.E0,3.333333333333E-1,6.666666666667E-1,1.E0),
.UNSPECIFIED.);
#222=B_SPLINE_CURVE_WITH_KNOTS('',3,(#214,#215,#216,#217,#218,#219,#220,#221),
.UNSPECIFIED.,.F.,.F.,(4,1,1,1,1,4),(0.E0,2.E-1,4.E-1,6.E-1,8.E-1,1.E0),
.UNSPECIFIED.);
#246=B_SPLINE_CURVE_WITH_KNOTS('',3,(#240,#241,#242,#243,#244,#245),
.UNSPECIFIED.,.F.,.F.,(4,1,1,4),(0.E0,3.333333333333E-1,6.666666666667E-1,1.E0),
.UNSPECIFIED.);
#256=B_SPLINE_CURVE_WITH_KNOTS('',3,(#250,#251,#252,#253,#254,#255),
.UNSPECIFIED.,.F.,.F.,(4,1,1,4),(0.E0,3.333333333333E-1,6.666666666667E-1,1.E0),
.UNSPECIFIED.);
#280=B_SPLINE_CURVE_WITH_KNOTS('',3,(#274,#275,#276,#277,#278,#279),
.UNSPECIFIED.,.F.,.F.,(4,1,1,4),(0.E0,3.333333333333E-1,6.666666666667E-1,1.E0),
.UNSPECIFIED.);
#290=B_SPLINE_CURVE_WITH_KNOTS('',3,(#284,#285,#286,#287,#288,#289),
.UNSPECIFIED.,.F.,.F.,(4,1,1,4),(0.E0,3.333333333333E-1,6.666666666667E-1,1.E0),
.UNSPECIFIED.);
#300=B_SPLINE_CURVE_WITH_KNOTS('',3,(#294,#295,#296,#297,#298,#299),
.UNSPECIFIED.,.F.,.F.,(4,1,1,4),(0.E0,3.333333333333E-1,6.666666666667E-1,1.E0),
.UNSPECIFIED.);
#308=CIRCLE('',#307,3.937007874016E-3);
#316=CIRCLE('',#315,3.937007874011E-3);
#324=CIRCLE('',#323,3.937007874011E-3);
#332=CIRCLE('',#331,3.937007874016E-3);
#344=B_SPLINE_CURVE_WITH_KNOTS('',3,(#336,#337,#338,#339,#340,#341,#342,#343),
.UNSPECIFIED.,.F.,.F.,(4,1,1,1,1,4),(0.E0,2.E-1,4.E-1,6.E-1,8.E-1,1.E0),
.UNSPECIFIED.);
#352=B_SPLINE_CURVE_WITH_KNOTS('',3,(#348,#349,#350,#351),.UNSPECIFIED.,.F.,.F.,
(4,4),(0.E0,1.E0),.UNSPECIFIED.);
#383=B_SPLINE_CURVE_WITH_KNOTS('',3,(#377,#378,#379,#380,#381,#382),
.UNSPECIFIED.,.F.,.F.,(4,1,1,4),(0.E0,3.333333333333E-1,6.666666666667E-1,1.E0),
.UNSPECIFIED.);
#433=CIRCLE('',#432,3.937007874016E-3);
#441=CIRCLE('',#440,1.181102362205E-2);
#449=CIRCLE('',#448,3.937007874016E-3);
#478=CIRCLE('',#477,3.937007874016E-3);
#500=CIRCLE('',#499,3.937007874016E-3);
#522=CIRCLE('',#521,3.937007874016E-3);
#530=CIRCLE('',#529,1.181102362205E-2);
#538=CIRCLE('',#537,3.937007874016E-3);
#684=EDGE_CURVE('',#628,#593,#21,.T.);
#686=EDGE_CURVE('',#627,#628,#29,.T.);
#688=EDGE_CURVE('',#612,#627,#36,.T.);
#690=EDGE_CURVE('',#662,#612,#43,.T.);
#692=EDGE_CURVE('',#604,#662,#51,.T.);
#694=EDGE_CURVE('',#593,#604,#58,.T.);
#698=ADVANCED_FACE('',(#697),#683,.F.);
#711=EDGE_CURVE('',#606,#598,#66,.T.);
#713=EDGE_CURVE('',#660,#606,#73,.T.);
#715=EDGE_CURVE('',#660,#632,#373,.T.);
#717=EDGE_CURVE('',#636,#632,#80,.T.);
#719=EDGE_CURVE('',#674,#636,#88,.T.);
#721=EDGE_CURVE('',#674,#676,#559,.T.);
#723=EDGE_CURVE('',#676,#648,#485,.T.);
#725=EDGE_CURVE('',#648,#598,#463,.T.);
#729=ADVANCED_FACE('',(#728),#710,.F.);
#742=EDGE_CURVE('',#594,#624,#131,.T.);
#744=EDGE_CURVE('',#628,#624,#95,.T.);
#747=EDGE_CURVE('',#593,#594,#263,.T.);
#751=ADVANCED_FACE('',(#750),#741,.F.);
#764=EDGE_CURVE('',#610,#640,#103,.T.);
#766=EDGE_CURVE('',#609,#610,#110,.T.);
#768=EDGE_CURVE('',#622,#609,#117,.T.);
#770=EDGE_CURVE('',#624,#622,#124,.T.);
#773=EDGE_CURVE('',#640,#594,#138,.T.);
#777=ADVANCED_FACE('',(#776),#763,.T.);
#790=EDGE_CURVE('',#638,#668,#492,.T.);
#792=EDGE_CURVE('',#668,#670,#566,.T.);
#794=EDGE_CURVE('',#618,#670,#146,.T.);
#796=EDGE_CURVE('',#617,#618,#153,.T.);
#798=EDGE_CURVE('',#617,#620,#359,.T.);
#800=EDGE_CURVE('',#630,#620,#160,.T.);
#802=EDGE_CURVE('',#634,#630,#168,.T.);
#804=EDGE_CURVE('',#634,#638,#545,.T.);
#808=ADVANCED_FACE('',(#807),#789,.T.);
#822=EDGE_CURVE('',#658,#640,#176,.T.);
#824=EDGE_CURVE('',#678,#658,#184,.T.);
#826=EDGE_CURVE('',#602,#678,#192,.T.);
#828=EDGE_CURVE('',#614,#602,#200,.T.);
#830=EDGE_CURVE('',#613,#614,#210,.T.);
#832=EDGE_CURVE('',#613,#610,#222,.T.);
#836=ADVANCED_FACE('',(#835),#820,.T.);
#842=EDGE_CURVE('',#671,#653,#246,.T.);
#844=EDGE_CURVE('',#658,#653,#229,.T.);
#848=EDGE_CURVE('',#594,#671,#256,.T.);
#852=ADVANCED_FACE('',(#851),#841,.T.);
#858=EDGE_CURVE('',#672,#654,#280,.T.);
#860=EDGE_CURVE('',#653,#654,#236,.T.);
#865=EDGE_CURVE('',#593,#672,#290,.T.);
#869=ADVANCED_FACE('',(#868),#857,.T.);
#875=EDGE_CURVE('',#604,#656,#332,.T.);
#877=EDGE_CURVE('',#654,#656,#270,.T.);
#884=ADVANCED_FACE('',(#883),#874,.T.);
#890=EDGE_CURVE('',#659,#661,#300,.T.);
#892=EDGE_CURVE('',#666,#659,#308,.T.);
#894=EDGE_CURVE('',#664,#666,#316,.T.);
#896=EDGE_CURVE('',#656,#664,#324,.T.);
#900=EDGE_CURVE('',#662,#661,#344,.T.);
#904=ADVANCED_FACE('',(#903),#889,.T.);
#913=EDGE_CURVE('',#612,#609,#397,.T.);
#918=EDGE_CURVE('',#620,#614,#352,.T.);
#921=EDGE_CURVE('',#632,#617,#366,.T.);
#924=EDGE_CURVE('',#659,#660,#383,.T.);
#928=ADVANCED_FACE('',(#927),#909,.F.);
#942=EDGE_CURVE('',#622,#627,#390,.T.);
#948=ADVANCED_FACE('',(#947),#940,.F.);
#967=ADVANCED_FACE('',(#966),#960,.F.);
#982=EDGE_CURVE('',#601,#602,#404,.T.);
#984=EDGE_CURVE('',#601,#630,#522,.T.);
#989=ADVANCED_FACE('',(#988),#979,.T.);
#995=EDGE_CURVE('',#602,#666,#418,.T.);
#997=EDGE_CURVE('',#666,#650,#425,.T.);
#999=EDGE_CURVE('',#650,#601,#507,.T.);
#1004=ADVANCED_FACE('',(#1003),#994,.F.);
#1017=EDGE_CURVE('',#656,#658,#411,.T.);
#1026=ADVANCED_FACE('',(#1025),#1016,.F.);
#1045=ADVANCED_FACE('',(#1044),#1038,.F.);
#1059=EDGE_CURVE('',#606,#650,#449,.T.);
#1066=ADVANCED_FACE('',(#1065),#1057,.T.);
#1072=EDGE_CURVE('',#597,#598,#433,.T.);
#1074=EDGE_CURVE('',#650,#597,#441,.T.);
#1080=ADVANCED_FACE('',(#1079),#1071,.T.);
#1086=EDGE_CURVE('',#648,#642,#478,.T.);
#1088=EDGE_CURVE('',#597,#642,#456,.T.);
#1094=ADVANCED_FACE('',(#1093),#1085,.T.);
#1100=EDGE_CURVE('',#642,#645,#470,.T.);
#1104=EDGE_CURVE('',#676,#668,#573,.T.);
#1107=EDGE_CURVE('',#645,#638,#500,.T.);
#1111=ADVANCED_FACE('',(#1110),#1099,.F.);
#1124=EDGE_CURVE('',#646,#597,#514,.T.);
#1128=EDGE_CURVE('',#645,#646,#552,.T.);
#1132=ADVANCED_FACE('',(#1131),#1123,.F.);
#1148=EDGE_CURVE('',#646,#601,#530,.T.);
#1152=ADVANCED_FACE('',(#1151),#1144,.T.);
#1167=EDGE_CURVE('',#634,#646,#538,.T.);
#1172=ADVANCED_FACE('',(#1171),#1164,.T.);
#1184=ADVANCED_FACE('',(#1183),#1177,.T.);
#1191=EDGE_CURVE('',#674,#670,#587,.T.);
#1197=ADVANCED_FACE('',(#1196),#1189,.F.);
#1211=EDGE_CURVE('',#618,#636,#580,.T.);
#1217=ADVANCED_FACE('',(#1216),#1209,.F.);
#1236=ADVANCED_FACE('',(#1235),#1229,.F.);
#1244=CLOSED_SHELL('',(#698,#729,#751,#777,#808,#836,#852,#869,#884,#904,#928,
#948,#967,#989,#1004,#1026,#1045,#1066,#1080,#1094,#1111,#1132,#1152,#1172,
#1184,#1197,#1217,#1236));
#1245=MANIFOLD_SOLID_BREP('',#1244);
#1253=(LENGTH_UNIT()NAMED_UNIT(*)SI_UNIT(.MILLI.,.METRE.));
#1256=(NAMED_UNIT(*)PLANE_ANGLE_UNIT()SI_UNIT($,.RADIAN.));
#1259=(NAMED_UNIT(*)SI_UNIT($,.STERADIAN.)SOLID_ANGLE_UNIT());
#1261=(GEOMETRIC_REPRESENTATION_CONTEXT(3)GLOBAL_UNCERTAINTY_ASSIGNED_CONTEXT((
#1260))GLOBAL_UNIT_ASSIGNED_CONTEXT((#1255,#1258,#1259))REPRESENTATION_CONTEXT(
'ID1','3'));
#1265=AXIS2_PLACEMENT_3D('',#1262,#1263,#1264);
#1266=ADVANCED_BREP_SHAPE_REPRESENTATION('',(#1265,#1245),#1261);
#1274=PRODUCT_DEFINITION('design','',#1273,#1270);
#1275=PRODUCT_DEFINITION_SHAPE('','SHAPE FOR FILLET6.',#1274);
#1276=SHAPE_ASPECT('','solid data associated with FILLET6',#1275,.F.);
#1277=PROPERTY_DEFINITION('',
'shape for solid data with which properties are associated',#1276);
#1278=SHAPE_REPRESENTATION('',(#1245),#1261);
#1279=SHAPE_DEFINITION_REPRESENTATION(#1277,#1278);
#1280=(LENGTH_UNIT()NAMED_UNIT(*)SI_UNIT(.MILLI.,.METRE.));
#1286=PROPERTY_DEFINITION('geometric validation property','area of FILLET6',
#1276);
#1287=REPRESENTATION('surface area',(#1285),#1261);
#1288=PROPERTY_DEFINITION_REPRESENTATION(#1286,#1287);
#1289=(LENGTH_UNIT()NAMED_UNIT(*)SI_UNIT(.MILLI.,.METRE.));
#1295=PROPERTY_DEFINITION('geometric validation property','volume of FILLET6',
#1276);
#1296=REPRESENTATION('volume',(#1294),#1261);
#1297=PROPERTY_DEFINITION_REPRESENTATION(#1295,#1296);
#1299=PROPERTY_DEFINITION('geometric validation property','centroid of FILLET6',
#1276);
#1300=REPRESENTATION('centroid',(#1298),#1261);
#1301=PROPERTY_DEFINITION_REPRESENTATION(#1299,#1300);
#1302=(LENGTH_UNIT()NAMED_UNIT(*)SI_UNIT(.MILLI.,.METRE.));
#1308=PROPERTY_DEFINITION('geometric validation property','area of FILLET6',
#1275);
#1309=REPRESENTATION('surface area',(#1307),#1261);
#1310=PROPERTY_DEFINITION_REPRESENTATION(#1308,#1309);
#1311=(LENGTH_UNIT()NAMED_UNIT(*)SI_UNIT(.MILLI.,.METRE.));
#1317=PROPERTY_DEFINITION('geometric validation property','volume of FILLET6',
#1275);
#1318=REPRESENTATION('volume',(#1316),#1261);
#1319=PROPERTY_DEFINITION_REPRESENTATION(#1317,#1318);
#1321=PROPERTY_DEFINITION('geometric validation property','centroid of FILLET6',
#1275);
#1322=REPRESENTATION('centroid',(#1320),#1261);
#1323=PROPERTY_DEFINITION_REPRESENTATION(#1321,#1322);
#1324=SHAPE_DEFINITION_REPRESENTATION(#1275,#1266);
ENDSEC;
END-ISO-10303-21;
