ISO-10303-21;
HEADER;
FILE_DESCRIPTION((''),'2;1');
FILE_NAME('FILLET2','2026-06-15T13:46:16',('Esia'),(''),
'CREO PARAMETRIC BY PTC INC, 2025102','CREO PARAMETRIC BY PTC INC, 2025102','');
FILE_SCHEMA((
'AP242_MANAGED_MODEL_BASED_3D_ENGINEERING_MIM_LF { 1 0 10303 442 1 1 4 }'));
ENDSEC;
DATA;
#17=DIRECTION('',(-6.623153322844E-13,1.E0,-9.840113508226E-13));
#18=VECTOR('',#17,7.333705707796E-4);
#19=CARTESIAN_POINT('',(-6.852180542101E-2,1.102362204857E-2,
2.171233028603E-1));
#20=LINE('',#19,#18);
#21=DRAUGHTING_PRE_DEFINED_CURVE_FONT('continuous');
#22=CURVE_STYLE('',#21,POSITIVE_LENGTH_MEASURE(2.E-2),#9);
#23=PRESENTATION_STYLE_ASSIGNMENT((#22));
#24=STYLED_ITEM('',(#23),#20);
#25=CARTESIAN_POINT('',(-6.824341692448E-2,1.102362204857E-2,
2.174016913568E-1));
#26=DIRECTION('',(0.E0,-1.E0,0.E0));
#27=DIRECTION('',(-1.E0,0.E0,-5.287437154773E-12));
#28=AXIS2_PLACEMENT_3D('',#25,#26,#27);
#30=CURVE_STYLE('',#21,POSITIVE_LENGTH_MEASURE(2.E-2),#9);
#31=PRESENTATION_STYLE_ASSIGNMENT((#30));
#32=STYLED_ITEM('',(#31),#29);
#33=DIRECTION('',(1.327043363625E-13,-1.E0,-9.858036415498E-13));
#34=VECTOR('',#33,7.320372289068E-4);
#35=CARTESIAN_POINT('',(-6.863711771188E-2,1.175565927748E-2,
2.174016913568E-1));
#36=LINE('',#35,#34);
#37=CURVE_STYLE('',#21,POSITIVE_LENGTH_MEASURE(2.E-2),#9);
#38=PRESENTATION_STYLE_ASSIGNMENT((#37));
#39=STYLED_ITEM('',(#38),#36);
#40=CARTESIAN_POINT('',(-6.852180542101E-2,1.175699261935E-2,
2.171233028603E-1));
#41=CARTESIAN_POINT('',(-6.854609948957E-2,1.175687739797E-2,
2.171475969289E-1));
#42=CARTESIAN_POINT('',(-6.858828854359E-2,1.175653520888E-2,
2.172025789890E-1));
#43=CARTESIAN_POINT('',(-6.862807171021E-2,1.175609970433E-2,
2.172986239242E-1));
#44=CARTESIAN_POINT('',(-6.863711771188E-2,1.175582544972E-2,
2.173673345643E-1));
#45=CARTESIAN_POINT('',(-6.863711771188E-2,1.175565927748E-2,
2.174016913568E-1));
#47=CURVE_STYLE('',#21,POSITIVE_LENGTH_MEASURE(2.E-2),#9);
#48=PRESENTATION_STYLE_ASSIGNMENT((#47));
#49=STYLED_ITEM('',(#48),#46);
#50=DIRECTION('',(1.875492243627E-14,1.E0,1.500393794901E-13));
#51=VECTOR('',#50,7.399544228975E-4);
#52=CARTESIAN_POINT('',(-6.706231456227E-2,1.102362204857E-2,
2.156638120016E-1));
#53=LINE('',#52,#51);
#54=CURVE_STYLE('',#21,POSITIVE_LENGTH_MEASURE(2.E-2),#9);
#55=PRESENTATION_STYLE_ASSIGNMENT((#54));
#56=STYLED_ITEM('',(#55),#53);
#57=DIRECTION('',(0.E0,0.E0,1.E0));
#58=VECTOR('',#57,5.026509628040E-2);
#59=CARTESIAN_POINT('',(-6.706231456227E-2,1.181102362337E-2,
1.397637795276E-1));
#60=LINE('',#59,#58);
#61=CURVE_STYLE('',#21,POSITIVE_LENGTH_MEASURE(2.E-2),#9);
#62=PRESENTATION_STYLE_ASSIGNMENT((#61));
#63=STYLED_ITEM('',(#62),#60);
#64=DIRECTION('',(0.E0,1.E0,0.E0));
#65=VECTOR('',#64,7.874015748031E-4);
#66=CARTESIAN_POINT('',(-6.706231456227E-2,1.102362204857E-2,
1.397637795276E-1));
#67=LINE('',#66,#65);
#68=CURVE_STYLE('',#21,POSITIVE_LENGTH_MEASURE(2.E-2),#9);
#69=PRESENTATION_STYLE_ASSIGNMENT((#68));
#70=STYLED_ITEM('',(#69),#67);
#71=DIRECTION('',(0.E0,0.E0,-1.E0));
#72=VECTOR('',#71,7.590003247402E-2);
#73=CARTESIAN_POINT('',(-6.706231456227E-2,1.102362204857E-2,
2.156638120016E-1));
#74=LINE('',#73,#72);
#75=CURVE_STYLE('',#21,POSITIVE_LENGTH_MEASURE(2.E-2),#9);
#76=PRESENTATION_STYLE_ASSIGNMENT((#75));
#77=STYLED_ITEM('',(#76),#74);
#78=CARTESIAN_POINT('',(-6.706231456227E-2,1.181102362337E-2,
1.900288758080E-1));
#79=CARTESIAN_POINT('',(-6.706231456227E-2,1.181102362337E-2,
1.921349257789E-1));
#80=CARTESIAN_POINT('',(-6.706231456227E-2,1.180932704004E-2,
1.964896022283E-1));
#81=CARTESIAN_POINT('',(-6.706231456227E-2,1.180080011586E-2,
2.032011627467E-1));
#82=CARTESIAN_POINT('',(-6.706231456227E-2,1.178580904538E-2,
2.097642852949E-1));
#83=CARTESIAN_POINT('',(-6.706231456227E-2,1.177159770612E-2,
2.137938663143E-1));
#84=CARTESIAN_POINT('',(-6.706231456227E-2,1.176357647147E-2,
2.156638120016E-1));
#86=CURVE_STYLE('',#21,POSITIVE_LENGTH_MEASURE(2.E-2),#9);
#87=PRESENTATION_STYLE_ASSIGNMENT((#86));
#88=STYLED_ITEM('',(#87),#85);
#89=DIRECTION('',(1.E0,0.E0,-8.896994252426E-12));
#90=VECTOR('',#89,7.874015748043E-3);
#91=CARTESIAN_POINT('',(-7.493633031031E-2,1.181102362337E-2,
1.900288758080E-1));
#92=LINE('',#91,#90);
#93=CURVE_STYLE('',#21,POSITIVE_LENGTH_MEASURE(2.E-2),#9);
#94=PRESENTATION_STYLE_ASSIGNMENT((#93));
#95=STYLED_ITEM('',(#94),#92);
#96=DIRECTION('',(5.626476730880E-14,1.E0,-1.425374105156E-12));
#97=VECTOR('',#96,7.399544228975E-4);
#98=CARTESIAN_POINT('',(-7.493633031031E-2,1.102362204857E-2,
2.156638120016E-1));
#99=LINE('',#98,#97);
#100=CURVE_STYLE('',#21,POSITIVE_LENGTH_MEASURE(2.E-2),#9);
#101=PRESENTATION_STYLE_ASSIGNMENT((#100));
#102=STYLED_ITEM('',(#101),#99);
#103=DIRECTION('',(0.E0,0.E0,1.E0));
#104=VECTOR('',#103,7.590003247402E-2);
#105=CARTESIAN_POINT('',(-7.493633031031E-2,1.102362204857E-2,
1.397637795276E-1));
#106=LINE('',#105,#104);
#107=CURVE_STYLE('',#21,POSITIVE_LENGTH_MEASURE(2.E-2),#9);
#108=PRESENTATION_STYLE_ASSIGNMENT((#107));
#109=STYLED_ITEM('',(#108),#106);
#110=DIRECTION('',(0.E0,0.E0,-1.E0));
#111=VECTOR('',#110,5.026509628047E-2);
#112=CARTESIAN_POINT('',(-7.493633031031E-2,1.181102362337E-2,
1.900288758080E-1));
#113=LINE('',#112,#111);
#114=CURVE_STYLE('',#21,POSITIVE_LENGTH_MEASURE(2.E-2),#9);
#115=PRESENTATION_STYLE_ASSIGNMENT((#114));
#116=STYLED_ITEM('',(#115),#113);
#117=CARTESIAN_POINT('',(-7.493633031031E-2,1.176357647147E-2,
2.156638120016E-1));
#118=CARTESIAN_POINT('',(-7.493633031031E-2,1.177159770612E-2,
2.137938663143E-1));
#119=CARTESIAN_POINT('',(-7.493633031031E-2,1.178580904538E-2,
2.097642852949E-1));
#120=CARTESIAN_POINT('',(-7.493633031031E-2,1.180080011586E-2,
2.032011627467E-1));
#121=CARTESIAN_POINT('',(-7.493633031031E-2,1.180932704004E-2,
1.964896022282E-1));
#122=CARTESIAN_POINT('',(-7.493633031031E-2,1.181102362337E-2,
1.921349257790E-1));
#123=CARTESIAN_POINT('',(-7.493633031031E-2,1.181102362337E-2,
1.900288758080E-1));
#125=CURVE_STYLE('',#21,POSITIVE_LENGTH_MEASURE(2.E-2),#9);
#126=PRESENTATION_STYLE_ASSIGNMENT((#125));
#127=STYLED_ITEM('',(#126),#124);
#128=DIRECTION('',(0.E0,1.E0,-3.639890368799E-11));
#129=VECTOR('',#128,7.320372289069E-4);
#130=CARTESIAN_POINT('',(-7.336152716070E-2,1.102362204857E-2,
2.174016913568E-1));
#131=LINE('',#130,#129);
#132=CURVE_STYLE('',#21,POSITIVE_LENGTH_MEASURE(2.E-2),#9);
#133=PRESENTATION_STYLE_ASSIGNMENT((#132));
#134=STYLED_ITEM('',(#133),#131);
#135=CARTESIAN_POINT('',(-7.375522794810E-2,1.102362204857E-2,
2.174016913568E-1));
#136=DIRECTION('',(0.E0,-1.E0,0.E0));
#137=DIRECTION('',(7.071067811870E-1,0.E0,-7.071067811861E-1));
#138=AXIS2_PLACEMENT_3D('',#135,#136,#137);
#140=CURVE_STYLE('',#21,POSITIVE_LENGTH_MEASURE(2.E-2),#9);
#141=PRESENTATION_STYLE_ASSIGNMENT((#140));
#142=STYLED_ITEM('',(#141),#139);
#143=DIRECTION('',(5.676988562438E-14,-1.E0,1.135397712488E-13));
#144=VECTOR('',#143,7.333705707796E-4);
#145=CARTESIAN_POINT('',(-7.347683945157E-2,1.175699261935E-2,
2.171233028603E-1));
#146=LINE('',#145,#144);
#147=CURVE_STYLE('',#21,POSITIVE_LENGTH_MEASURE(2.E-2),#9);
#148=PRESENTATION_STYLE_ASSIGNMENT((#147));
#149=STYLED_ITEM('',(#148),#146);
#150=CARTESIAN_POINT('',(-7.336152716070E-2,1.175565927748E-2,
2.174016913568E-1));
#151=CARTESIAN_POINT('',(-7.336152716070E-2,1.175582544972E-2,
2.173673345642E-1));
#152=CARTESIAN_POINT('',(-7.337057316236E-2,1.175609970433E-2,
2.172986239242E-1));
#153=CARTESIAN_POINT('',(-7.341035632898E-2,1.175653520888E-2,
2.172025789890E-1));
#154=CARTESIAN_POINT('',(-7.345254538301E-2,1.175687739797E-2,
2.171475969289E-1));
#155=CARTESIAN_POINT('',(-7.347683945157E-2,1.175699261935E-2,
2.171233028603E-1));
#157=CURVE_STYLE('',#21,POSITIVE_LENGTH_MEASURE(2.E-2),#9);
#158=PRESENTATION_STYLE_ASSIGNMENT((#157));
#159=STYLED_ITEM('',(#158),#156);
#160=DIRECTION('',(0.E0,1.E0,0.E0));
#161=VECTOR('',#160,5.905511811024E-4);
#162=CARTESIAN_POINT('',(-7.336152716070E-2,1.102362204857E-2,
2.293989545481E-1));
#163=LINE('',#162,#161);
#164=CURVE_STYLE('',#21,POSITIVE_LENGTH_MEASURE(2.E-2),#9);
#165=PRESENTATION_STYLE_ASSIGNMENT((#164));
#166=STYLED_ITEM('',(#165),#163);
#167=DIRECTION('',(0.E0,0.E0,1.E0));
#168=VECTOR('',#167,1.199726319127E-2);
#169=CARTESIAN_POINT('',(-7.336152716070E-2,1.102362204857E-2,
2.174016913568E-1));
#170=LINE('',#169,#168);
#171=CURVE_STYLE('',#21,POSITIVE_LENGTH_MEASURE(2.E-2),#9);
#172=PRESENTATION_STYLE_ASSIGNMENT((#171));
#173=STYLED_ITEM('',(#172),#170);
#174=DIRECTION('',(2.349621471642E-14,9.999999999869E-1,-5.118796663405E-6));
#175=VECTOR('',#174,5.906392997897E-4);
#176=CARTESIAN_POINT('',(-6.863711771188E-2,1.102362204857E-2,
2.293989545481E-1));
#177=LINE('',#176,#175);
#178=CURVE_STYLE('',#21,POSITIVE_LENGTH_MEASURE(2.E-2),#9);
#179=PRESENTATION_STYLE_ASSIGNMENT((#178));
#180=STYLED_ITEM('',(#179),#177);
#181=DIRECTION('',(1.E0,0.E0,0.E0));
#182=VECTOR('',#181,4.724409448819E-3);
#183=CARTESIAN_POINT('',(-7.336152716070E-2,1.102362204857E-2,
2.293989545481E-1));
#184=LINE('',#183,#182);
#185=CURVE_STYLE('',#21,POSITIVE_LENGTH_MEASURE(2.E-2),#9);
#186=PRESENTATION_STYLE_ASSIGNMENT((#185));
#187=STYLED_ITEM('',(#186),#184);
#188=DIRECTION('',(-9.999999998259E-1,-1.865178717501E-5,6.399450575285E-7));
#189=VECTOR('',#188,4.724409449642E-3);
#190=CARTESIAN_POINT('',(-6.863711771188E-2,1.161426134835E-2,
2.293989515248E-1));
#191=LINE('',#190,#189);
#192=CURVE_STYLE('',#21,POSITIVE_LENGTH_MEASURE(2.E-2),#9);
#193=PRESENTATION_STYLE_ASSIGNMENT((#192));
#194=STYLED_ITEM('',(#193),#191);
#195=DIRECTION('',(0.E0,0.E0,-1.E0));
#196=VECTOR('',#195,1.199726319127E-2);
#197=CARTESIAN_POINT('',(-6.863711771188E-2,1.102362204857E-2,
2.293989545481E-1));
#198=LINE('',#197,#196);
#199=CURVE_STYLE('',#21,POSITIVE_LENGTH_MEASURE(2.E-2),#9);
#200=PRESENTATION_STYLE_ASSIGNMENT((#199));
#201=STYLED_ITEM('',(#200),#198);
#202=DIRECTION('',(-7.071067811865E-1,0.E0,7.071067811866E-1));
#203=VECTOR('',#202,2.064031766589E-3);
#204=CARTESIAN_POINT('',(-6.706231456227E-2,1.102362204857E-2,
2.156638120016E-1));
#205=LINE('',#204,#203);
#206=CURVE_STYLE('',#21,POSITIVE_LENGTH_MEASURE(2.E-2),#9);
#207=PRESENTATION_STYLE_ASSIGNMENT((#206));
#208=STYLED_ITEM('',(#207),#205);
#209=DIRECTION('',(-7.071067811865E-1,0.E0,-7.071067811866E-1));
#210=VECTOR('',#209,2.064031766590E-3);
#211=CARTESIAN_POINT('',(-7.347683945157E-2,1.102362204857E-2,
2.171233028603E-1));
#212=LINE('',#211,#210);
#213=CURVE_STYLE('',#21,POSITIVE_LENGTH_MEASURE(2.E-2),#9);
#214=PRESENTATION_STYLE_ASSIGNMENT((#213));
#215=STYLED_ITEM('',(#214),#212);
#216=DIRECTION('',(-1.E0,0.E0,0.E0));
#217=VECTOR('',#216,7.874015748043E-3);
#218=CARTESIAN_POINT('',(-6.706231456227E-2,1.102362204857E-2,
1.397637795276E-1));
#219=LINE('',#218,#217);
#220=CURVE_STYLE('',#21,POSITIVE_LENGTH_MEASURE(2.E-2),#9);
#221=PRESENTATION_STYLE_ASSIGNMENT((#220));
#222=STYLED_ITEM('',(#221),#219);
#223=DIRECTION('',(1.E0,0.E0,0.E0));
#224=VECTOR('',#223,7.874015748043E-3);
#225=CARTESIAN_POINT('',(-7.493633031031E-2,1.181102362337E-2,
1.397637795276E-1));
#226=LINE('',#225,#224);
#227=CURVE_STYLE('',#21,POSITIVE_LENGTH_MEASURE(2.E-2),#9);
#228=PRESENTATION_STYLE_ASSIGNMENT((#227));
#229=STYLED_ITEM('',(#228),#226);
#230=DIRECTION('',(0.E0,1.E0,0.E0));
#231=VECTOR('',#230,7.874015748032E-4);
#232=CARTESIAN_POINT('',(-7.493633031031E-2,1.102362204857E-2,
1.397637795276E-1));
#233=LINE('',#232,#231);
#234=CURVE_STYLE('',#21,POSITIVE_LENGTH_MEASURE(2.E-2),#9);
#235=PRESENTATION_STYLE_ASSIGNMENT((#234));
#236=STYLED_ITEM('',(#235),#233);
#237=CARTESIAN_POINT('',(-7.336152716070E-2,1.175565927748E-2,
2.174016913568E-1));
#238=CARTESIAN_POINT('',(-7.336152716070E-2,1.174602207759E-2,
2.193942219715E-1));
#239=CARTESIAN_POINT('',(-7.336152716070E-2,1.172460477251E-2,
2.229705187208E-1));
#240=CARTESIAN_POINT('',(-7.336152716070E-2,1.168833843419E-2,
2.267920024524E-1));
#241=CARTESIAN_POINT('',(-7.336152716070E-2,1.165057361019E-2,
2.289700572549E-1));
#242=CARTESIAN_POINT('',(-7.336152716070E-2,1.162600523353E-2,
2.293989545481E-1));
#243=CARTESIAN_POINT('',(-7.336152716070E-2,1.161417322967E-2,
2.293989545481E-1));
#245=CURVE_STYLE('',#21,POSITIVE_LENGTH_MEASURE(2.E-2),#9);
#246=PRESENTATION_STYLE_ASSIGNMENT((#245));
#247=STYLED_ITEM('',(#246),#244);
#248=CARTESIAN_POINT('',(-7.493633031031E-2,1.176357647147E-2,
2.156638120016E-1));
#249=CARTESIAN_POINT('',(-7.477202731098E-2,1.176287168474E-2,
2.158281150009E-1));
#250=CARTESIAN_POINT('',(-7.444484613929E-2,1.176134731638E-2,
2.161552961726E-1));
#251=CARTESIAN_POINT('',(-7.395832484742E-2,1.175915217837E-2,
2.166418174645E-1));
#252=CARTESIAN_POINT('',(-7.363685707199E-2,1.175775154742E-2,
2.169632852399E-1));
#253=CARTESIAN_POINT('',(-7.347683945157E-2,1.175699261935E-2,
2.171233028603E-1));
#255=CURVE_STYLE('',#21,POSITIVE_LENGTH_MEASURE(2.E-2),#9);
#256=PRESENTATION_STYLE_ASSIGNMENT((#255));
#257=STYLED_ITEM('',(#256),#254);
#258=CARTESIAN_POINT('',(-6.852180542101E-2,1.175699261935E-2,
2.171233028603E-1));
#259=CARTESIAN_POINT('',(-6.836179206649E-2,1.175775152719E-2,
2.169632895058E-1));
#260=CARTESIAN_POINT('',(-6.804032996482E-2,1.175915213411E-2,
2.166418274041E-1));
#261=CARTESIAN_POINT('',(-6.755380746494E-2,1.176134727648E-2,
2.161553049042E-1));
#262=CARTESIAN_POINT('',(-6.722662129768E-2,1.176287166871E-2,
2.158281187370E-1));
#263=CARTESIAN_POINT('',(-6.706231456227E-2,1.176357647147E-2,
2.156638120016E-1));
#265=CURVE_STYLE('',#21,POSITIVE_LENGTH_MEASURE(2.E-2),#9);
#266=PRESENTATION_STYLE_ASSIGNMENT((#265));
#267=STYLED_ITEM('',(#266),#264);
#268=CARTESIAN_POINT('',(-6.863711771188E-2,1.161426134835E-2,
2.293989515248E-1));
#269=CARTESIAN_POINT('',(-6.863711771188E-2,1.162608553848E-2,
2.293973462881E-1));
#270=CARTESIAN_POINT('',(-6.863711771188E-2,1.165070137258E-2,
2.289656733824E-1));
#271=CARTESIAN_POINT('',(-6.863711771188E-2,1.168840276373E-2,
2.267858382874E-1));
#272=CARTESIAN_POINT('',(-6.863711771188E-2,1.172463767099E-2,
2.229656730131E-1));
#273=CARTESIAN_POINT('',(-6.863711771188E-2,1.174603114585E-2,
2.193923470706E-1));
#274=CARTESIAN_POINT('',(-6.863711771188E-2,1.175565927748E-2,
2.174016913568E-1));
#276=CURVE_STYLE('',#21,POSITIVE_LENGTH_MEASURE(2.E-2),#9);
#277=PRESENTATION_STYLE_ASSIGNMENT((#276));
#278=STYLED_ITEM('',(#277),#275);
#279=VERTEX_POINT('',#117);
#280=VERTEX_POINT('',#123);
#281=VERTEX_POINT('',#253);
#282=VERTEX_POINT('',#150);
#283=CARTESIAN_POINT('',(-6.706231456227E-2,1.102362204857E-2,
1.397637795276E-1));
#284=CARTESIAN_POINT('',(-6.706231456227E-2,1.181102362337E-2,
1.397637795276E-1));
#285=VERTEX_POINT('',#283);
#286=VERTEX_POINT('',#284);
#287=CARTESIAN_POINT('',(-6.706231456227E-2,1.181102362337E-2,
1.900288758080E-1));
#288=VERTEX_POINT('',#287);
#289=CARTESIAN_POINT('',(-6.706231456227E-2,1.102362204857E-2,
2.156638120016E-1));
#290=VERTEX_POINT('',#289);
#291=CARTESIAN_POINT('',(-6.706231456227E-2,1.176357647147E-2,
2.156638120016E-1));
#292=VERTEX_POINT('',#291);
#293=CARTESIAN_POINT('',(-7.493633031031E-2,1.102362204857E-2,
1.397637795276E-1));
#294=CARTESIAN_POINT('',(-7.493633031031E-2,1.181102362337E-2,
1.397637795276E-1));
#295=VERTEX_POINT('',#293);
#296=VERTEX_POINT('',#294);
#297=CARTESIAN_POINT('',(-6.863711771188E-2,1.102362204857E-2,
2.293989545481E-1));
#298=CARTESIAN_POINT('',(-6.863711771188E-2,1.102362204857E-2,
2.174016913568E-1));
#299=VERTEX_POINT('',#297);
#300=VERTEX_POINT('',#298);
#301=CARTESIAN_POINT('',(-7.336152716070E-2,1.102362204857E-2,
2.293989545481E-1));
#302=VERTEX_POINT('',#301);
#303=CARTESIAN_POINT('',(-6.852180542100E-2,1.102362204857E-2,
2.171233028603E-1));
#304=VERTEX_POINT('',#303);
#305=CARTESIAN_POINT('',(-7.493633031031E-2,1.102362204857E-2,
2.156638120016E-1));
#306=VERTEX_POINT('',#305);
#307=CARTESIAN_POINT('',(-7.347683945157E-2,1.102362204857E-2,
2.171233028603E-1));
#308=VERTEX_POINT('',#307);
#309=CARTESIAN_POINT('',(-7.336152716070E-2,1.102362204857E-2,
2.174016913568E-1));
#310=VERTEX_POINT('',#309);
#311=CARTESIAN_POINT('',(-6.863711771188E-2,1.175565927748E-2,
2.174016913568E-1));
#312=VERTEX_POINT('',#311);
#313=CARTESIAN_POINT('',(-6.863711771188E-2,1.161426134835E-2,
2.293989515248E-1));
#314=VERTEX_POINT('',#313);
#315=VERTEX_POINT('',#40);
#316=CARTESIAN_POINT('',(-7.336152716070E-2,1.161417322967E-2,
2.293989545481E-1));
#317=VERTEX_POINT('',#316);
#318=CARTESIAN_POINT('',(-6.824341692448E-2,1.181102362337E-2,
2.174016913568E-1));
#319=DIRECTION('',(0.E0,-1.E0,0.E0));
#320=DIRECTION('',(1.E0,0.E0,0.E0));
#321=AXIS2_PLACEMENT_3D('',#318,#319,#320);
#322=CYLINDRICAL_SURFACE('',#321,3.937007874019E-4);
#324=ORIENTED_EDGE('',*,*,#323,.F.);
#326=ORIENTED_EDGE('',*,*,#325,.F.);
#328=ORIENTED_EDGE('',*,*,#327,.F.);
#330=ORIENTED_EDGE('',*,*,#329,.F.);
#331=EDGE_LOOP('',(#324,#326,#328,#330));
#332=FACE_OUTER_BOUND('',#331,.F.);
#334=FILL_AREA_STYLE_COLOUR('',#12);
#335=FILL_AREA_STYLE('',(#334));
#336=SURFACE_STYLE_FILL_AREA(#335);
#337=SURFACE_SIDE_STYLE('',(#336));
#338=SURFACE_STYLE_USAGE(.BOTH.,#337);
#339=PRESENTATION_STYLE_ASSIGNMENT((#338));
#340=OVER_RIDING_STYLED_ITEM('',(#339),#333,#16);
#341=CARTESIAN_POINT('',(7.430074871966E-2,1.181102362337E-2,
7.430074871966E-2));
#342=DIRECTION('',(-7.071067811865E-1,0.E0,-7.071067811866E-1));
#343=DIRECTION('',(-7.071067811866E-1,0.E0,7.071067811865E-1));
#344=AXIS2_PLACEMENT_3D('',#341,#342,#343);
#345=PLANE('',#344);
#347=ORIENTED_EDGE('',*,*,#346,.F.);
#349=ORIENTED_EDGE('',*,*,#348,.T.);
#350=ORIENTED_EDGE('',*,*,#323,.T.);
#352=ORIENTED_EDGE('',*,*,#351,.T.);
#353=EDGE_LOOP('',(#347,#349,#350,#352));
#354=FACE_OUTER_BOUND('',#353,.F.);
#356=FILL_AREA_STYLE_COLOUR('',#12);
#357=FILL_AREA_STYLE('',(#356));
#358=SURFACE_STYLE_FILL_AREA(#357);
#359=SURFACE_SIDE_STYLE('',(#358));
#360=SURFACE_STYLE_USAGE(.BOTH.,#359);
#361=PRESENTATION_STYLE_ASSIGNMENT((#360));
#362=OVER_RIDING_STYLED_ITEM('',(#361),#355,#16);
#363=CARTESIAN_POINT('',(-6.706231456227E-2,1.181102362337E-2,0.E0));
#364=DIRECTION('',(1.E0,0.E0,0.E0));
#365=DIRECTION('',(0.E0,1.E0,0.E0));
#366=AXIS2_PLACEMENT_3D('',#363,#364,#365);
#367=PLANE('',#366);
#369=ORIENTED_EDGE('',*,*,#368,.F.);
#371=ORIENTED_EDGE('',*,*,#370,.F.);
#373=ORIENTED_EDGE('',*,*,#372,.F.);
#374=ORIENTED_EDGE('',*,*,#346,.T.);
#376=ORIENTED_EDGE('',*,*,#375,.F.);
#377=EDGE_LOOP('',(#369,#371,#373,#374,#376));
#378=FACE_OUTER_BOUND('',#377,.F.);
#380=FILL_AREA_STYLE_COLOUR('',#12);
#381=FILL_AREA_STYLE('',(#380));
#382=SURFACE_STYLE_FILL_AREA(#381);
#383=SURFACE_SIDE_STYLE('',(#382));
#384=SURFACE_STYLE_USAGE(.BOTH.,#383);
#385=PRESENTATION_STYLE_ASSIGNMENT((#384));
#386=OVER_RIDING_STYLED_ITEM('',(#385),#379,#16);
#387=CARTESIAN_POINT('',(0.E0,1.181102362337E-2,0.E0));
#388=DIRECTION('',(0.E0,1.E0,0.E0));
#389=DIRECTION('',(-1.E0,0.E0,0.E0));
#390=AXIS2_PLACEMENT_3D('',#387,#388,#389);
#391=PLANE('',#390);
#393=ORIENTED_EDGE('',*,*,#392,.T.);
#395=ORIENTED_EDGE('',*,*,#394,.T.);
#396=ORIENTED_EDGE('',*,*,#368,.T.);
#398=ORIENTED_EDGE('',*,*,#397,.F.);
#399=EDGE_LOOP('',(#393,#395,#396,#398));
#400=FACE_OUTER_BOUND('',#399,.F.);
#402=FILL_AREA_STYLE_COLOUR('',#12);
#403=FILL_AREA_STYLE('',(#402));
#404=SURFACE_STYLE_FILL_AREA(#403);
#405=SURFACE_SIDE_STYLE('',(#404));
#406=SURFACE_STYLE_USAGE(.BOTH.,#405);
#407=PRESENTATION_STYLE_ASSIGNMENT((#406));
#408=OVER_RIDING_STYLED_ITEM('',(#407),#401,#16);
#409=CARTESIAN_POINT('',(-7.493633031031E-2,1.181102362337E-2,0.E0));
#410=DIRECTION('',(1.E0,0.E0,0.E0));
#411=DIRECTION('',(0.E0,1.E0,0.E0));
#412=AXIS2_PLACEMENT_3D('',#409,#410,#411);
#413=PLANE('',#412);
#415=ORIENTED_EDGE('',*,*,#414,.F.);
#417=ORIENTED_EDGE('',*,*,#416,.F.);
#419=ORIENTED_EDGE('',*,*,#418,.T.);
#420=ORIENTED_EDGE('',*,*,#392,.F.);
#422=ORIENTED_EDGE('',*,*,#421,.F.);
#423=EDGE_LOOP('',(#415,#417,#419,#420,#422));
#424=FACE_OUTER_BOUND('',#423,.F.);
#426=FILL_AREA_STYLE_COLOUR('',#12);
#427=FILL_AREA_STYLE('',(#426));
#428=SURFACE_STYLE_FILL_AREA(#427);
#429=SURFACE_SIDE_STYLE('',(#428));
#430=SURFACE_STYLE_USAGE(.BOTH.,#429);
#431=PRESENTATION_STYLE_ASSIGNMENT((#430));
#432=OVER_RIDING_STYLED_ITEM('',(#431),#425,#16);
#433=CARTESIAN_POINT('',(-1.453000711559E-1,1.181102362337E-2,
1.453000711559E-1));
#434=DIRECTION('',(7.071067811865E-1,0.E0,-7.071067811865E-1));
#435=DIRECTION('',(-7.071067811865E-1,0.E0,-7.071067811865E-1));
#436=AXIS2_PLACEMENT_3D('',#433,#434,#435);
#437=PLANE('',#436);
#439=ORIENTED_EDGE('',*,*,#438,.T.);
#441=ORIENTED_EDGE('',*,*,#440,.T.);
#442=ORIENTED_EDGE('',*,*,#414,.T.);
#444=ORIENTED_EDGE('',*,*,#443,.T.);
#445=EDGE_LOOP('',(#439,#441,#442,#444));
#446=FACE_OUTER_BOUND('',#445,.F.);
#448=FILL_AREA_STYLE_COLOUR('',#12);
#449=FILL_AREA_STYLE('',(#448));
#450=SURFACE_STYLE_FILL_AREA(#449);
#451=SURFACE_SIDE_STYLE('',(#450));
#452=SURFACE_STYLE_USAGE(.BOTH.,#451);
#453=PRESENTATION_STYLE_ASSIGNMENT((#452));
#454=OVER_RIDING_STYLED_ITEM('',(#453),#447,#16);
#455=CARTESIAN_POINT('',(-7.375522794810E-2,1.181102362337E-2,
2.174016913568E-1));
#456=DIRECTION('',(0.E0,-1.E0,0.E0));
#457=DIRECTION('',(1.E0,0.E0,0.E0));
#458=AXIS2_PLACEMENT_3D('',#455,#456,#457);
#459=CYLINDRICAL_SURFACE('',#458,3.937007874053E-4);
#461=ORIENTED_EDGE('',*,*,#460,.F.);
#463=ORIENTED_EDGE('',*,*,#462,.F.);
#464=ORIENTED_EDGE('',*,*,#438,.F.);
#466=ORIENTED_EDGE('',*,*,#465,.F.);
#467=EDGE_LOOP('',(#461,#463,#464,#466));
#468=FACE_OUTER_BOUND('',#467,.F.);
#470=FILL_AREA_STYLE_COLOUR('',#12);
#471=FILL_AREA_STYLE('',(#470));
#472=SURFACE_STYLE_FILL_AREA(#471);
#473=SURFACE_SIDE_STYLE('',(#472));
#474=SURFACE_STYLE_USAGE(.BOTH.,#473);
#475=PRESENTATION_STYLE_ASSIGNMENT((#474));
#476=OVER_RIDING_STYLED_ITEM('',(#475),#469,#16);
#477=CARTESIAN_POINT('',(-7.336152716070E-2,1.181102362337E-2,0.E0));
#478=DIRECTION('',(1.E0,0.E0,0.E0));
#479=DIRECTION('',(0.E0,1.E0,0.E0));
#480=AXIS2_PLACEMENT_3D('',#477,#478,#479);
#481=PLANE('',#480);
#483=ORIENTED_EDGE('',*,*,#482,.F.);
#485=ORIENTED_EDGE('',*,*,#484,.F.);
#486=ORIENTED_EDGE('',*,*,#460,.T.);
#488=ORIENTED_EDGE('',*,*,#487,.T.);
#489=EDGE_LOOP('',(#483,#485,#486,#488));
#490=FACE_OUTER_BOUND('',#489,.F.);
#492=FILL_AREA_STYLE_COLOUR('',#12);
#493=FILL_AREA_STYLE('',(#492));
#494=SURFACE_STYLE_FILL_AREA(#493);
#495=SURFACE_SIDE_STYLE('',(#494));
#496=SURFACE_STYLE_USAGE(.BOTH.,#495);
#497=PRESENTATION_STYLE_ASSIGNMENT((#496));
#498=OVER_RIDING_STYLED_ITEM('',(#497),#491,#16);
#499=CARTESIAN_POINT('',(0.E0,1.181102362337E-2,2.293989545481E-1));
#500=DIRECTION('',(0.E0,0.E0,-1.E0));
#501=DIRECTION('',(-1.E0,0.E0,0.E0));
#502=AXIS2_PLACEMENT_3D('',#499,#500,#501);
#503=PLANE('',#502);
#505=ORIENTED_EDGE('',*,*,#504,.F.);
#507=ORIENTED_EDGE('',*,*,#506,.F.);
#508=ORIENTED_EDGE('',*,*,#482,.T.);
#510=ORIENTED_EDGE('',*,*,#509,.F.);
#511=EDGE_LOOP('',(#505,#507,#508,#510));
#512=FACE_OUTER_BOUND('',#511,.F.);
#514=FILL_AREA_STYLE_COLOUR('',#12);
#515=FILL_AREA_STYLE('',(#514));
#516=SURFACE_STYLE_FILL_AREA(#515);
#517=SURFACE_SIDE_STYLE('',(#516));
#518=SURFACE_STYLE_USAGE(.BOTH.,#517);
#519=PRESENTATION_STYLE_ASSIGNMENT((#518));
#520=OVER_RIDING_STYLED_ITEM('',(#519),#513,#16);
#521=CARTESIAN_POINT('',(-6.863711771188E-2,1.181102362337E-2,0.E0));
#522=DIRECTION('',(-1.E0,0.E0,0.E0));
#523=DIRECTION('',(0.E0,-1.E0,0.E0));
#524=AXIS2_PLACEMENT_3D('',#521,#522,#523);
#525=PLANE('',#524);
#526=ORIENTED_EDGE('',*,*,#327,.T.);
#528=ORIENTED_EDGE('',*,*,#527,.F.);
#529=ORIENTED_EDGE('',*,*,#504,.T.);
#531=ORIENTED_EDGE('',*,*,#530,.T.);
#532=EDGE_LOOP('',(#526,#528,#529,#531));
#533=FACE_OUTER_BOUND('',#532,.F.);
#535=FILL_AREA_STYLE_COLOUR('',#12);
#536=FILL_AREA_STYLE('',(#535));
#537=SURFACE_STYLE_FILL_AREA(#536);
#538=SURFACE_SIDE_STYLE('',(#537));
#539=SURFACE_STYLE_USAGE(.BOTH.,#538);
#540=PRESENTATION_STYLE_ASSIGNMENT((#539));
#541=OVER_RIDING_STYLED_ITEM('',(#540),#534,#16);
#542=CARTESIAN_POINT('',(0.E0,1.102362204857E-2,0.E0));
#543=DIRECTION('',(0.E0,1.E0,0.E0));
#544=DIRECTION('',(-1.E0,0.E0,0.E0));
#545=AXIS2_PLACEMENT_3D('',#542,#543,#544);
#546=PLANE('',#545);
#547=ORIENTED_EDGE('',*,*,#325,.T.);
#548=ORIENTED_EDGE('',*,*,#348,.F.);
#549=ORIENTED_EDGE('',*,*,#372,.T.);
#551=ORIENTED_EDGE('',*,*,#550,.T.);
#552=ORIENTED_EDGE('',*,*,#416,.T.);
#553=ORIENTED_EDGE('',*,*,#440,.F.);
#554=ORIENTED_EDGE('',*,*,#462,.T.);
#555=ORIENTED_EDGE('',*,*,#484,.T.);
#556=ORIENTED_EDGE('',*,*,#506,.T.);
#557=ORIENTED_EDGE('',*,*,#527,.T.);
#558=EDGE_LOOP('',(#547,#548,#549,#551,#552,#553,#554,#555,#556,#557));
#559=FACE_OUTER_BOUND('',#558,.F.);
#561=FILL_AREA_STYLE_COLOUR('',#12);
#562=FILL_AREA_STYLE('',(#561));
#563=SURFACE_STYLE_FILL_AREA(#562);
#564=SURFACE_SIDE_STYLE('',(#563));
#565=SURFACE_STYLE_USAGE(.BOTH.,#564);
#566=PRESENTATION_STYLE_ASSIGNMENT((#565));
#567=OVER_RIDING_STYLED_ITEM('',(#566),#560,#16);
#568=CARTESIAN_POINT('',(0.E0,1.181102362337E-2,1.397637795276E-1));
#569=DIRECTION('',(0.E0,0.E0,1.E0));
#570=DIRECTION('',(1.E0,0.E0,0.E0));
#571=AXIS2_PLACEMENT_3D('',#568,#569,#570);
#572=PLANE('',#571);
#573=ORIENTED_EDGE('',*,*,#550,.F.);
#574=ORIENTED_EDGE('',*,*,#370,.T.);
#575=ORIENTED_EDGE('',*,*,#394,.F.);
#576=ORIENTED_EDGE('',*,*,#418,.F.);
#577=EDGE_LOOP('',(#573,#574,#575,#576));
#578=FACE_OUTER_BOUND('',#577,.F.);
#580=FILL_AREA_STYLE_COLOUR('',#12);
#581=FILL_AREA_STYLE('',(#580));
#582=SURFACE_STYLE_FILL_AREA(#581);
#583=SURFACE_SIDE_STYLE('',(#582));
#584=SURFACE_STYLE_USAGE(.BOTH.,#583);
#585=PRESENTATION_STYLE_ASSIGNMENT((#584));
#586=OVER_RIDING_STYLED_ITEM('',(#585),#579,#16);
#587=CARTESIAN_POINT('',(-6.666861377486E-2,1.161148543890E-2,
2.293952844737E-1));
#588=CARTESIAN_POINT('',(-6.666861377486E-2,1.162632965161E-2,
2.294358247610E-1));
#589=CARTESIAN_POINT('',(-6.666861377486E-2,1.165753500604E-2,
2.288436461469E-1));
#590=CARTESIAN_POINT('',(-6.666861377486E-2,1.170518806347E-2,
2.254467555596E-1));
#591=CARTESIAN_POINT('',(-6.666861377486E-2,1.174856596723E-2,
2.194416615370E-1));
#592=CARTESIAN_POINT('',(-6.666861377486E-2,1.178258680705E-2,
2.112922721503E-1));
#593=CARTESIAN_POINT('',(-6.666861377486E-2,1.180402540789E-2,
2.019270450182E-1));
#594=CARTESIAN_POINT('',(-6.666861377486E-2,1.181246838679E-2,
1.924082670467E-1));
#595=CARTESIAN_POINT('',(-6.666861377486E-2,1.180986580208E-2,
1.835921545797E-1));
#596=CARTESIAN_POINT('',(-6.666861377486E-2,1.180281616843E-2,
1.785105949679E-1));
#597=CARTESIAN_POINT('',(-6.666861377486E-2,1.179847214201E-2,
1.761955993901E-1));
#599=CURVE_STYLE('',#21,POSITIVE_LENGTH_MEASURE(2.E-2),#12);
#600=PRESENTATION_STYLE_ASSIGNMENT((#599));
#601=STYLED_ITEM('',(#600),#598);
#602=DIRECTION('',(-1.E0,0.E0,0.E0));
#603=VECTOR('',#602,1.E0);
#604=SURFACE_OF_LINEAR_EXTRUSION('',#598,#603);
#605=ORIENTED_EDGE('',*,*,#487,.F.);
#606=ORIENTED_EDGE('',*,*,#465,.T.);
#607=ORIENTED_EDGE('',*,*,#443,.F.);
#608=ORIENTED_EDGE('',*,*,#421,.T.);
#609=ORIENTED_EDGE('',*,*,#397,.T.);
#610=ORIENTED_EDGE('',*,*,#375,.T.);
#611=ORIENTED_EDGE('',*,*,#351,.F.);
#612=ORIENTED_EDGE('',*,*,#329,.T.);
#613=ORIENTED_EDGE('',*,*,#530,.F.);
#614=ORIENTED_EDGE('',*,*,#509,.T.);
#615=EDGE_LOOP('',(#605,#606,#607,#608,#609,#610,#611,#612,#613,#614));
#616=FACE_OUTER_BOUND('',#615,.F.);
#618=FILL_AREA_STYLE_COLOUR('',#12);
#619=FILL_AREA_STYLE('',(#618));
#620=SURFACE_STYLE_FILL_AREA(#619);
#621=SURFACE_SIDE_STYLE('',(#620));
#622=SURFACE_STYLE_USAGE(.BOTH.,#621);
#623=PRESENTATION_STYLE_ASSIGNMENT((#622));
#624=OVER_RIDING_STYLED_ITEM('',(#623),#617,#16);
#627=FILL_AREA_STYLE_COLOUR('',#9);
#628=FILL_AREA_STYLE('',(#627));
#629=SURFACE_STYLE_FILL_AREA(#628);
#630=SURFACE_SIDE_STYLE('',(#629));
#631=SURFACE_STYLE_USAGE(.BOTH.,#630);
#632=PRESENTATION_STYLE_ASSIGNMENT((#631));
#16=STYLED_ITEM('',(#632),#626);
#633=PRESENTATION_LAYER_ASSIGNMENT('SHELL_208','',(#16,#333,#355,#379,#401,#425,
#447,#469,#491,#513,#534,#560,#579,#598,#617));
#635=LENGTH_MEASURE_WITH_UNIT(LENGTH_MEASURE(2.54E1),#634);
#636=(CONVERSION_BASED_UNIT('INCH',#635)LENGTH_UNIT()NAMED_UNIT(*));
#638=PLANE_ANGLE_MEASURE_WITH_UNIT(PLANE_ANGLE_MEASURE(1.745329251994E-2),#637);
#639=(CONVERSION_BASED_UNIT('DEGREE',#638)NAMED_UNIT(*)PLANE_ANGLE_UNIT());
#641=UNCERTAINTY_MEASURE_WITH_UNIT(LENGTH_MEASURE(1.968503937008E-5),#636,
'closure',
'Maximum model space distance between geometric entities at asserted connectivities');
#643=CARTESIAN_POINT('',(0.E0,0.E0,0.E0));
#644=DIRECTION('',(0.E0,0.E0,1.E0));
#645=DIRECTION('',(1.E0,0.E0,0.E0));
#648=MECHANICAL_DESIGN_GEOMETRIC_PRESENTATION_REPRESENTATION('',(#24,#32,#39,
#49,#56,#63,#70,#77,#88,#95,#102,#109,#116,#127,#134,#142,#149,#159,#166,#173,
#180,#187,#194,#201,#208,#215,#222,#229,#236,#247,#257,#267,#278,#340,#362,#386,
#408,#432,#454,#476,#498,#520,#541,#567,#586,#601,#624,#16),#642);
#649=APPLICATION_CONTEXT('automotive design');
#650=APPLICATION_PROTOCOL_DEFINITION('international standard',
'config_control_design',1994,#649);
#651=PRODUCT_DEFINITION_CONTEXT('',#649,'design');
#652=PRODUCT_CONTEXT('',#649,'mechanical');
#653=PRODUCT('FILLET2','FILLET2','NOT SPECIFIED',(#652));
#654=PRODUCT_DEFINITION_FORMATION_WITH_SPECIFIED_SOURCE('1','LAST_VERSION',#653,
.MADE.);
#662=LENGTH_MEASURE_WITH_UNIT(LENGTH_MEASURE(2.54E1),#661);
#663=(CONVERSION_BASED_UNIT('INCH',#662)LENGTH_UNIT()NAMED_UNIT(*));
#664=DERIVED_UNIT_ELEMENT(#663,2.E0);
#665=AREA_UNIT((#664));
#666=MEASURE_REPRESENTATION_ITEM('surface area measure',AREA_MEASURE(
9.534285304853E-1),#665);
#671=LENGTH_MEASURE_WITH_UNIT(LENGTH_MEASURE(2.54E1),#670);
#672=(CONVERSION_BASED_UNIT('INCH',#671)LENGTH_UNIT()NAMED_UNIT(*));
#673=DERIVED_UNIT_ELEMENT(#672,3.E0);
#674=VOLUME_UNIT((#673));
#675=MEASURE_REPRESENTATION_ITEM('volume measure',VOLUME_MEASURE(
8.430157485762E-3),#674);
#679=CARTESIAN_POINT('centre point',(-1.803382920758E0,2.898393675960E-1,
4.611938292770E0));
#684=LENGTH_MEASURE_WITH_UNIT(LENGTH_MEASURE(2.54E1),#683);
#685=(CONVERSION_BASED_UNIT('INCH',#684)LENGTH_UNIT()NAMED_UNIT(*));
#686=DERIVED_UNIT_ELEMENT(#685,2.E0);
#687=AREA_UNIT((#686));
#688=MEASURE_REPRESENTATION_ITEM('surface area measure',AREA_MEASURE(
9.534285304853E-1),#687);
#693=LENGTH_MEASURE_WITH_UNIT(LENGTH_MEASURE(2.54E1),#692);
#694=(CONVERSION_BASED_UNIT('INCH',#693)LENGTH_UNIT()NAMED_UNIT(*));
#695=DERIVED_UNIT_ELEMENT(#694,3.E0);
#696=VOLUME_UNIT((#695));
#697=MEASURE_REPRESENTATION_ITEM('volume measure',VOLUME_MEASURE(
8.430157485762E-3),#696);
#701=CARTESIAN_POINT('centre point',(-1.803382920758E0,2.898393675960E-1,
4.611938292770E0));
#1=DRAUGHTING_PRE_DEFINED_COLOUR('green');
#2=COLOUR_RGB('',1.1E-2,1.2E-2,1.E0);
#3=COLOUR_RGB('',2.352941176471E-1,2.352941176471E-1,2.352941176471E-1);
#4=COLOUR_RGB('',4.1E-1,2.61589E-1,1.12848E-1);
#5=COLOUR_RGB('',5.04854E-1,1.5455E-2,1.5455E-2);
#6=COLOUR_RGB('',6.35294E-1,6.86275E-1,7.4902E-1);
#7=COLOUR_RGB('',6.40777E-1,6.40777E-1,6.40777E-1);
#8=COLOUR_RGB('',6.69062E-1,6.69903E-1,6.55217E-1);
#9=COLOUR_RGB('',7.921568627451E-1,8.196078431373E-1,9.333333333333E-1);
#10=COLOUR_RGB('',9.21569E-1,7.05882E-1,4.70588E-1);
#11=DRAUGHTING_PRE_DEFINED_COLOUR('red');
#12=DRAUGHTING_PRE_DEFINED_COLOUR('yellow');
#13=COLOUR_RGB('',1.E0,1.E0,5.3E-1);
#14=COLOUR_RGB('',1.E0,1.E0,9.49E-1);
#15=DRAUGHTING_PRE_DEFINED_COLOUR('white');
#29=CIRCLE('',#28,3.937007874019E-4);
#46=B_SPLINE_CURVE_WITH_KNOTS('',3,(#40,#41,#42,#43,#44,#45),.UNSPECIFIED.,.F.,
.F.,(4,1,1,4),(0.E0,3.333333333333E-1,6.666666666667E-1,1.E0),.UNSPECIFIED.);
#85=B_SPLINE_CURVE_WITH_KNOTS('',3,(#78,#79,#80,#81,#82,#83,#84),.UNSPECIFIED.,
.F.,.F.,(4,1,1,1,4),(0.E0,2.5E-1,5.E-1,7.5E-1,1.E0),.UNSPECIFIED.);
#124=B_SPLINE_CURVE_WITH_KNOTS('',3,(#117,#118,#119,#120,#121,#122,#123),
.UNSPECIFIED.,.F.,.F.,(4,1,1,1,4),(0.E0,2.5E-1,5.E-1,7.5E-1,1.E0),
.UNSPECIFIED.);
#139=CIRCLE('',#138,3.937007874053E-4);
#156=B_SPLINE_CURVE_WITH_KNOTS('',3,(#150,#151,#152,#153,#154,#155),
.UNSPECIFIED.,.F.,.F.,(4,1,1,4),(0.E0,3.333333333333E-1,6.666666666667E-1,1.E0),
.UNSPECIFIED.);
#244=B_SPLINE_CURVE_WITH_KNOTS('',3,(#237,#238,#239,#240,#241,#242,#243),
.UNSPECIFIED.,.F.,.F.,(4,1,1,1,4),(0.E0,2.5E-1,5.E-1,7.5E-1,1.E0),
.UNSPECIFIED.);
#254=B_SPLINE_CURVE_WITH_KNOTS('',3,(#248,#249,#250,#251,#252,#253),
.UNSPECIFIED.,.F.,.F.,(4,1,1,4),(0.E0,3.333333333333E-1,6.666666666667E-1,1.E0),
.UNSPECIFIED.);
#264=B_SPLINE_CURVE_WITH_KNOTS('',3,(#258,#259,#260,#261,#262,#263),
.UNSPECIFIED.,.F.,.F.,(4,1,1,4),(0.E0,3.333333333333E-1,6.666666666667E-1,1.E0),
.UNSPECIFIED.);
#275=B_SPLINE_CURVE_WITH_KNOTS('',3,(#268,#269,#270,#271,#272,#273,#274),
.UNSPECIFIED.,.F.,.F.,(4,1,1,1,4),(0.E0,2.5E-1,5.E-1,7.5E-1,1.E0),
.UNSPECIFIED.);
#323=EDGE_CURVE('',#304,#315,#20,.T.);
#325=EDGE_CURVE('',#300,#304,#29,.T.);
#327=EDGE_CURVE('',#312,#300,#36,.T.);
#329=EDGE_CURVE('',#315,#312,#46,.T.);
#333=ADVANCED_FACE('',(#332),#322,.F.);
#346=EDGE_CURVE('',#290,#292,#53,.T.);
#348=EDGE_CURVE('',#290,#304,#205,.T.);
#351=EDGE_CURVE('',#315,#292,#264,.T.);
#355=ADVANCED_FACE('',(#354),#345,.F.);
#368=EDGE_CURVE('',#286,#288,#60,.T.);
#370=EDGE_CURVE('',#285,#286,#67,.T.);
#372=EDGE_CURVE('',#290,#285,#74,.T.);
#375=EDGE_CURVE('',#288,#292,#85,.T.);
#379=ADVANCED_FACE('',(#378),#367,.T.);
#392=EDGE_CURVE('',#280,#296,#113,.T.);
#394=EDGE_CURVE('',#296,#286,#226,.T.);
#397=EDGE_CURVE('',#280,#288,#92,.T.);
#401=ADVANCED_FACE('',(#400),#391,.T.);
#414=EDGE_CURVE('',#306,#279,#99,.T.);
#416=EDGE_CURVE('',#295,#306,#106,.T.);
#418=EDGE_CURVE('',#295,#296,#233,.T.);
#421=EDGE_CURVE('',#279,#280,#124,.T.);
#425=ADVANCED_FACE('',(#424),#413,.F.);
#438=EDGE_CURVE('',#281,#308,#146,.T.);
#440=EDGE_CURVE('',#308,#306,#212,.T.);
#443=EDGE_CURVE('',#279,#281,#254,.T.);
#447=ADVANCED_FACE('',(#446),#437,.F.);
#460=EDGE_CURVE('',#310,#282,#131,.T.);
#462=EDGE_CURVE('',#308,#310,#139,.T.);
#465=EDGE_CURVE('',#282,#281,#156,.T.);
#469=ADVANCED_FACE('',(#468),#459,.F.);
#482=EDGE_CURVE('',#302,#317,#163,.T.);
#484=EDGE_CURVE('',#310,#302,#170,.T.);
#487=EDGE_CURVE('',#282,#317,#244,.T.);
#491=ADVANCED_FACE('',(#490),#481,.F.);
#504=EDGE_CURVE('',#299,#314,#177,.T.);
#506=EDGE_CURVE('',#302,#299,#184,.T.);
#509=EDGE_CURVE('',#314,#317,#191,.T.);
#513=ADVANCED_FACE('',(#512),#503,.F.);
#527=EDGE_CURVE('',#299,#300,#198,.T.);
#530=EDGE_CURVE('',#314,#312,#275,.T.);
#534=ADVANCED_FACE('',(#533),#525,.F.);
#550=EDGE_CURVE('',#285,#295,#219,.T.);
#560=ADVANCED_FACE('',(#559),#546,.F.);
#579=ADVANCED_FACE('',(#578),#572,.F.);
#598=B_SPLINE_CURVE_WITH_KNOTS('',3,(#587,#588,#589,#590,#591,#592,#593,#594,
#595,#596,#597),.UNSPECIFIED.,.F.,.F.,(4,1,1,1,1,1,1,1,4),(0.E0,1.25E-1,2.5E-1,
3.75E-1,5.E-1,6.25E-1,7.5E-1,8.75E-1,1.E0),.UNSPECIFIED.);
#617=ADVANCED_FACE('',(#616),#604,.T.);
#625=CLOSED_SHELL('',(#333,#355,#379,#401,#425,#447,#469,#491,#513,#534,#560,
#579,#617));
#626=MANIFOLD_SOLID_BREP('',#625);
#634=(LENGTH_UNIT()NAMED_UNIT(*)SI_UNIT(.MILLI.,.METRE.));
#637=(NAMED_UNIT(*)PLANE_ANGLE_UNIT()SI_UNIT($,.RADIAN.));
#640=(NAMED_UNIT(*)SI_UNIT($,.STERADIAN.)SOLID_ANGLE_UNIT());
#642=(GEOMETRIC_REPRESENTATION_CONTEXT(3)GLOBAL_UNCERTAINTY_ASSIGNED_CONTEXT((
#641))GLOBAL_UNIT_ASSIGNED_CONTEXT((#636,#639,#640))REPRESENTATION_CONTEXT
('ID1','3'));
#646=AXIS2_PLACEMENT_3D('',#643,#644,#645);
#647=ADVANCED_BREP_SHAPE_REPRESENTATION('',(#646,#626),#642);
#655=PRODUCT_DEFINITION('design','',#654,#651);
#656=PRODUCT_DEFINITION_SHAPE('','SHAPE FOR FILLET2.',#655);
#657=SHAPE_ASPECT('','solid data associated with FILLET2',#656,.F.);
#658=PROPERTY_DEFINITION('',
'shape for solid data with which properties are associated',#657);
#659=SHAPE_REPRESENTATION('',(#626),#642);
#660=SHAPE_DEFINITION_REPRESENTATION(#658,#659);
#661=(LENGTH_UNIT()NAMED_UNIT(*)SI_UNIT(.MILLI.,.METRE.));
#667=PROPERTY_DEFINITION('geometric validation property','area of FILLET2',
#657);
#668=REPRESENTATION('surface area',(#666),#642);
#669=PROPERTY_DEFINITION_REPRESENTATION(#667,#668);
#670=(LENGTH_UNIT()NAMED_UNIT(*)SI_UNIT(.MILLI.,.METRE.));
#676=PROPERTY_DEFINITION('geometric validation property','volume of FILLET2',
#657);
#677=REPRESENTATION('volume',(#675),#642);
#678=PROPERTY_DEFINITION_REPRESENTATION(#676,#677);
#680=PROPERTY_DEFINITION('geometric validation property','centroid of FILLET2',
#657);
#681=REPRESENTATION('centroid',(#679),#642);
#682=PROPERTY_DEFINITION_REPRESENTATION(#680,#681);
#683=(LENGTH_UNIT()NAMED_UNIT(*)SI_UNIT(.MILLI.,.METRE.));
#689=PROPERTY_DEFINITION('geometric validation property','area of FILLET2',
#656);
#690=REPRESENTATION('surface area',(#688),#642);
#691=PROPERTY_DEFINITION_REPRESENTATION(#689,#690);
#692=(LENGTH_UNIT()NAMED_UNIT(*)SI_UNIT(.MILLI.,.METRE.));
#698=PROPERTY_DEFINITION('geometric validation property','volume of FILLET2',
#656);
#699=REPRESENTATION('volume',(#697),#642);
#700=PROPERTY_DEFINITION_REPRESENTATION(#698,#699);
#702=PROPERTY_DEFINITION('geometric validation property','centroid of FILLET2',
#656);
#703=REPRESENTATION('centroid',(#701),#642);
#704=PROPERTY_DEFINITION_REPRESENTATION(#702,#703);
#705=SHAPE_DEFINITION_REPRESENTATION(#656,#647);
ENDSEC;
END-ISO-10303-21;
