ISO-10303-21;
HEADER;
FILE_DESCRIPTION((''),'2;1');
FILE_NAME('FPC-40-3696','2026-06-15T13:46:02',('Esia'),(''),
'CREO PARAMETRIC BY PTC INC, 2025102','CREO PARAMETRIC BY PTC INC, 2025102','');
FILE_SCHEMA((
'AP242_MANAGED_MODEL_BASED_3D_ENGINEERING_MIM_LF { 1 0 10303 442 1 1 4 }'));
ENDSEC;
DATA;
#16=DIRECTION('',(1.E0,1.507223464810E-14,0.E0));
#17=VECTOR('',#16,5.708661417323E-2);
#18=CARTESIAN_POINT('',(7.775590551181E-1,-1.850393700787E-1,
8.267716535433E-2));
#19=LINE('',#18,#17);
#20=DIRECTION('',(-1.E0,-1.507223464810E-14,0.E0));
#21=VECTOR('',#20,5.708661417323E-2);
#22=CARTESIAN_POINT('',(8.346456692913E-1,-1.732283464567E-1,
7.086614173228E-2));
#23=LINE('',#22,#21);
#24=DIRECTION('',(0.E0,1.E0,0.E0));
#25=VECTOR('',#24,7.874015748031E-2);
#26=CARTESIAN_POINT('',(8.346456692913E-1,-2.125984251969E-1,
3.543307086614E-2));
#27=LINE('',#26,#25);
#28=DIRECTION('',(0.E0,0.E0,1.E0));
#29=VECTOR('',#28,1.574803149606E-2);
#30=CARTESIAN_POINT('',(8.346456692913E-1,-2.125984251969E-1,
1.968503937008E-2));
#31=LINE('',#30,#29);
#32=DIRECTION('',(0.E0,-7.071067811865E-1,7.071067811865E-1));
#33=VECTOR('',#32,1.670330979181E-2);
#34=CARTESIAN_POINT('',(8.346456692913E-1,-1.732283464567E-1,
7.086614173228E-2));
#35=LINE('',#34,#33);
#36=DIRECTION('',(0.E0,1.E0,0.E0));
#37=VECTOR('',#36,3.937007874016E-2);
#38=CARTESIAN_POINT('',(8.346456692913E-1,-1.732283464567E-1,
7.086614173228E-2));
#39=LINE('',#38,#37);
#40=DIRECTION('',(0.E0,-1.E0,0.E0));
#41=VECTOR('',#40,3.937007874016E-2);
#42=CARTESIAN_POINT('',(7.775590551181E-1,-1.338582677165E-1,
7.086614173228E-2));
#43=LINE('',#42,#41);
#44=DIRECTION('',(-1.E0,0.E0,0.E0));
#45=VECTOR('',#44,5.708661417323E-2);
#46=CARTESIAN_POINT('',(8.346456692913E-1,-1.338582677165E-1,
7.086614173228E-2));
#47=LINE('',#46,#45);
#48=DIRECTION('',(0.E0,7.071067811865E-1,-7.071067811865E-1));
#49=VECTOR('',#48,1.670330979181E-2);
#50=CARTESIAN_POINT('',(7.775590551181E-1,-1.850393700787E-1,
8.267716535433E-2));
#51=LINE('',#50,#49);
#52=DIRECTION('',(0.E0,0.E0,-1.E0));
#53=VECTOR('',#52,1.574803149606E-2);
#54=CARTESIAN_POINT('',(7.775590551181E-1,-2.125984251969E-1,
3.543307086614E-2));
#55=LINE('',#54,#53);
#56=DIRECTION('',(0.E0,-1.E0,0.E0));
#57=VECTOR('',#56,7.874015748031E-2);
#58=CARTESIAN_POINT('',(7.775590551181E-1,-1.338582677165E-1,
3.543307086614E-2));
#59=LINE('',#58,#57);
#60=DIRECTION('',(0.E0,0.E0,-1.E0));
#61=VECTOR('',#60,3.543307086614E-2);
#62=CARTESIAN_POINT('',(7.775590551181E-1,-1.338582677165E-1,
7.086614173228E-2));
#63=LINE('',#62,#61);
#64=DIRECTION('',(0.E0,1.E0,0.E0));
#65=VECTOR('',#64,4.330708661417E-2);
#66=CARTESIAN_POINT('',(8.346456692913E-1,-2.283464566929E-1,
8.267716535433E-2));
#67=LINE('',#66,#65);
#68=DIRECTION('',(1.E0,0.E0,0.E0));
#69=VECTOR('',#68,5.708661417323E-2);
#70=CARTESIAN_POINT('',(7.775590551181E-1,-2.283464566929E-1,
8.267716535433E-2));
#71=LINE('',#70,#69);
#72=DIRECTION('',(0.E0,-1.E0,0.E0));
#73=VECTOR('',#72,4.330708661417E-2);
#74=CARTESIAN_POINT('',(7.775590551181E-1,-1.850393700787E-1,
8.267716535433E-2));
#75=LINE('',#74,#73);
#76=DIRECTION('',(0.E0,0.E0,1.E0));
#77=VECTOR('',#76,6.299212598425E-2);
#78=CARTESIAN_POINT('',(8.346456692913E-1,-2.283464566929E-1,
1.968503937008E-2));
#79=LINE('',#78,#77);
#80=DIRECTION('',(1.E0,0.E0,0.E0));
#81=VECTOR('',#80,5.708661417323E-2);
#82=CARTESIAN_POINT('',(7.775590551181E-1,-2.283464566929E-1,
1.968503937008E-2));
#83=LINE('',#82,#81);
#84=DIRECTION('',(0.E0,0.E0,-1.E0));
#85=VECTOR('',#84,6.299212598425E-2);
#86=CARTESIAN_POINT('',(7.775590551181E-1,-2.283464566929E-1,
8.267716535433E-2));
#87=LINE('',#86,#85);
#88=DIRECTION('',(0.E0,-1.E0,0.E0));
#89=VECTOR('',#88,1.574803149606E-2);
#90=CARTESIAN_POINT('',(8.346456692913E-1,-2.125984251969E-1,
1.968503937008E-2));
#91=LINE('',#90,#89);
#92=DIRECTION('',(1.E0,0.E0,0.E0));
#93=VECTOR('',#92,5.708661417323E-2);
#94=CARTESIAN_POINT('',(7.775590551181E-1,-2.125984251969E-1,
1.968503937008E-2));
#95=LINE('',#94,#93);
#96=DIRECTION('',(0.E0,1.E0,0.E0));
#97=VECTOR('',#96,1.574803149606E-2);
#98=CARTESIAN_POINT('',(7.775590551181E-1,-2.283464566929E-1,
1.968503937008E-2));
#99=LINE('',#98,#97);
#100=DIRECTION('',(1.E0,0.E0,0.E0));
#101=VECTOR('',#100,5.708661417323E-2);
#102=CARTESIAN_POINT('',(7.775590551181E-1,-2.125984251969E-1,
3.543307086614E-2));
#103=LINE('',#102,#101);
#104=DIRECTION('',(0.E0,0.E0,-1.E0));
#105=VECTOR('',#104,3.543307086614E-2);
#106=CARTESIAN_POINT('',(8.346456692913E-1,-1.338582677165E-1,
7.086614173228E-2));
#107=LINE('',#106,#105);
#108=DIRECTION('',(-1.E0,0.E0,0.E0));
#109=VECTOR('',#108,5.708661417323E-2);
#110=CARTESIAN_POINT('',(8.346456692913E-1,-1.338582677165E-1,
3.543307086614E-2));
#111=LINE('',#110,#109);
#112=CARTESIAN_POINT('',(7.775590551181E-1,-2.125984251969E-1,
3.543307086614E-2));
#113=CARTESIAN_POINT('',(8.346456692913E-1,-2.125984251969E-1,
3.543307086614E-2));
#114=VERTEX_POINT('',#112);
#115=VERTEX_POINT('',#113);
#116=CARTESIAN_POINT('',(7.775590551181E-1,-1.850393700787E-1,
8.267716535433E-2));
#117=CARTESIAN_POINT('',(7.775590551181E-1,-1.732283464567E-1,
7.086614173228E-2));
#118=VERTEX_POINT('',#116);
#119=VERTEX_POINT('',#117);
#120=CARTESIAN_POINT('',(8.346456692913E-1,-1.338582677165E-1,
3.543307086614E-2));
#121=VERTEX_POINT('',#120);
#122=CARTESIAN_POINT('',(8.346456692913E-1,-2.125984251969E-1,
1.968503937008E-2));
#123=VERTEX_POINT('',#122);
#124=CARTESIAN_POINT('',(7.775590551181E-1,-2.283464566929E-1,
8.267716535433E-2));
#125=VERTEX_POINT('',#124);
#126=CARTESIAN_POINT('',(8.346456692913E-1,-2.283464566929E-1,
8.267716535433E-2));
#127=VERTEX_POINT('',#126);
#128=CARTESIAN_POINT('',(8.346456692913E-1,-1.850393700787E-1,
8.267716535433E-2));
#129=VERTEX_POINT('',#128);
#130=CARTESIAN_POINT('',(7.775590551181E-1,-2.283464566929E-1,
1.968503937008E-2));
#131=VERTEX_POINT('',#130);
#132=CARTESIAN_POINT('',(8.346456692913E-1,-2.283464566929E-1,
1.968503937008E-2));
#133=VERTEX_POINT('',#132);
#134=CARTESIAN_POINT('',(8.346456692913E-1,-1.732283464567E-1,
7.086614173228E-2));
#135=VERTEX_POINT('',#134);
#136=CARTESIAN_POINT('',(7.775590551181E-1,-2.125984251969E-1,
1.968503937008E-2));
#137=VERTEX_POINT('',#136);
#138=CARTESIAN_POINT('',(7.775590551181E-1,-1.338582677165E-1,
7.086614173228E-2));
#139=VERTEX_POINT('',#138);
#140=CARTESIAN_POINT('',(8.346456692913E-1,-1.338582677165E-1,
7.086614173228E-2));
#141=VERTEX_POINT('',#140);
#142=CARTESIAN_POINT('',(7.775590551181E-1,-1.338582677165E-1,
3.543307086614E-2));
#143=VERTEX_POINT('',#142);
#144=CARTESIAN_POINT('',(7.775590551181E-1,-1.732283464567E-1,
7.086614173228E-2));
#145=DIRECTION('',(0.E0,7.071067811865E-1,7.071067811865E-1));
#146=DIRECTION('',(0.E0,-7.071067811865E-1,7.071067811865E-1));
#147=AXIS2_PLACEMENT_3D('',#144,#145,#146);
#148=PLANE('',#147);
#150=ORIENTED_EDGE('',*,*,#149,.T.);
#152=ORIENTED_EDGE('',*,*,#151,.F.);
#154=ORIENTED_EDGE('',*,*,#153,.T.);
#156=ORIENTED_EDGE('',*,*,#155,.F.);
#157=EDGE_LOOP('',(#150,#152,#154,#156));
#158=FACE_OUTER_BOUND('',#157,.F.);
#160=FILL_AREA_STYLE_COLOUR('',#3);
#161=FILL_AREA_STYLE('',(#160));
#162=SURFACE_STYLE_FILL_AREA(#161);
#163=SURFACE_SIDE_STYLE('',(#162));
#164=SURFACE_STYLE_USAGE(.BOTH.,#163);
#165=PRESENTATION_STYLE_ASSIGNMENT((#164));
#166=STYLED_ITEM('',(#165),#159);
#167=CARTESIAN_POINT('',(8.346456692913E-1,0.E0,0.E0));
#168=DIRECTION('',(1.E0,0.E0,0.E0));
#169=DIRECTION('',(0.E0,0.E0,-1.E0));
#170=AXIS2_PLACEMENT_3D('',#167,#168,#169);
#171=PLANE('',#170);
#173=ORIENTED_EDGE('',*,*,#172,.T.);
#175=ORIENTED_EDGE('',*,*,#174,.T.);
#177=ORIENTED_EDGE('',*,*,#176,.F.);
#179=ORIENTED_EDGE('',*,*,#178,.F.);
#181=ORIENTED_EDGE('',*,*,#180,.T.);
#183=ORIENTED_EDGE('',*,*,#182,.T.);
#185=ORIENTED_EDGE('',*,*,#184,.T.);
#186=ORIENTED_EDGE('',*,*,#149,.F.);
#187=EDGE_LOOP('',(#173,#175,#177,#179,#181,#183,#185,#186));
#188=FACE_OUTER_BOUND('',#187,.F.);
#190=FILL_AREA_STYLE_COLOUR('',#3);
#191=FILL_AREA_STYLE('',(#190));
#192=SURFACE_STYLE_FILL_AREA(#191);
#193=SURFACE_SIDE_STYLE('',(#192));
#194=SURFACE_STYLE_USAGE(.BOTH.,#193);
#195=PRESENTATION_STYLE_ASSIGNMENT((#194));
#196=STYLED_ITEM('',(#195),#189);
#197=CARTESIAN_POINT('',(7.775590551181E-1,-1.338582677165E-1,
7.086614173228E-2));
#198=DIRECTION('',(0.E0,0.E0,1.E0));
#199=DIRECTION('',(1.E0,0.E0,0.E0));
#200=AXIS2_PLACEMENT_3D('',#197,#198,#199);
#201=PLANE('',#200);
#202=ORIENTED_EDGE('',*,*,#172,.F.);
#203=ORIENTED_EDGE('',*,*,#155,.T.);
#205=ORIENTED_EDGE('',*,*,#204,.F.);
#207=ORIENTED_EDGE('',*,*,#206,.F.);
#208=EDGE_LOOP('',(#202,#203,#205,#207));
#209=FACE_OUTER_BOUND('',#208,.F.);
#211=FILL_AREA_STYLE_COLOUR('',#3);
#212=FILL_AREA_STYLE('',(#211));
#213=SURFACE_STYLE_FILL_AREA(#212);
#214=SURFACE_SIDE_STYLE('',(#213));
#215=SURFACE_STYLE_USAGE(.BOTH.,#214);
#216=PRESENTATION_STYLE_ASSIGNMENT((#215));
#217=STYLED_ITEM('',(#216),#210);
#218=CARTESIAN_POINT('',(7.775590551181E-1,0.E0,0.E0));
#219=DIRECTION('',(1.E0,0.E0,0.E0));
#220=DIRECTION('',(0.E0,0.E0,-1.E0));
#221=AXIS2_PLACEMENT_3D('',#218,#219,#220);
#222=PLANE('',#221);
#223=ORIENTED_EDGE('',*,*,#204,.T.);
#224=ORIENTED_EDGE('',*,*,#153,.F.);
#226=ORIENTED_EDGE('',*,*,#225,.T.);
#228=ORIENTED_EDGE('',*,*,#227,.T.);
#230=ORIENTED_EDGE('',*,*,#229,.T.);
#232=ORIENTED_EDGE('',*,*,#231,.F.);
#234=ORIENTED_EDGE('',*,*,#233,.F.);
#236=ORIENTED_EDGE('',*,*,#235,.F.);
#237=EDGE_LOOP('',(#223,#224,#226,#228,#230,#232,#234,#236));
#238=FACE_OUTER_BOUND('',#237,.F.);
#240=FILL_AREA_STYLE_COLOUR('',#3);
#241=FILL_AREA_STYLE('',(#240));
#242=SURFACE_STYLE_FILL_AREA(#241);
#243=SURFACE_SIDE_STYLE('',(#242));
#244=SURFACE_STYLE_USAGE(.BOTH.,#243);
#245=PRESENTATION_STYLE_ASSIGNMENT((#244));
#246=STYLED_ITEM('',(#245),#239);
#247=CARTESIAN_POINT('',(7.775590551181E-1,-1.850393700787E-1,
8.267716535433E-2));
#248=DIRECTION('',(0.E0,0.E0,1.E0));
#249=DIRECTION('',(1.E0,0.E0,0.E0));
#250=AXIS2_PLACEMENT_3D('',#247,#248,#249);
#251=PLANE('',#250);
#252=ORIENTED_EDGE('',*,*,#184,.F.);
#254=ORIENTED_EDGE('',*,*,#253,.F.);
#255=ORIENTED_EDGE('',*,*,#225,.F.);
#256=ORIENTED_EDGE('',*,*,#151,.T.);
#257=EDGE_LOOP('',(#252,#254,#255,#256));
#258=FACE_OUTER_BOUND('',#257,.F.);
#260=FILL_AREA_STYLE_COLOUR('',#3);
#261=FILL_AREA_STYLE('',(#260));
#262=SURFACE_STYLE_FILL_AREA(#261);
#263=SURFACE_SIDE_STYLE('',(#262));
#264=SURFACE_STYLE_USAGE(.BOTH.,#263);
#265=PRESENTATION_STYLE_ASSIGNMENT((#264));
#266=STYLED_ITEM('',(#265),#259);
#267=CARTESIAN_POINT('',(7.775590551181E-1,-2.283464566929E-1,
8.267716535433E-2));
#268=DIRECTION('',(0.E0,-1.E0,0.E0));
#269=DIRECTION('',(0.E0,0.E0,-1.E0));
#270=AXIS2_PLACEMENT_3D('',#267,#268,#269);
#271=PLANE('',#270);
#272=ORIENTED_EDGE('',*,*,#182,.F.);
#274=ORIENTED_EDGE('',*,*,#273,.F.);
#275=ORIENTED_EDGE('',*,*,#227,.F.);
#276=ORIENTED_EDGE('',*,*,#253,.T.);
#277=EDGE_LOOP('',(#272,#274,#275,#276));
#278=FACE_OUTER_BOUND('',#277,.F.);
#280=FILL_AREA_STYLE_COLOUR('',#3);
#281=FILL_AREA_STYLE('',(#280));
#282=SURFACE_STYLE_FILL_AREA(#281);
#283=SURFACE_SIDE_STYLE('',(#282));
#284=SURFACE_STYLE_USAGE(.BOTH.,#283);
#285=PRESENTATION_STYLE_ASSIGNMENT((#284));
#286=STYLED_ITEM('',(#285),#279);
#287=CARTESIAN_POINT('',(7.775590551181E-1,-2.283464566929E-1,
1.968503937008E-2));
#288=DIRECTION('',(0.E0,0.E0,-1.E0));
#289=DIRECTION('',(-1.E0,0.E0,0.E0));
#290=AXIS2_PLACEMENT_3D('',#287,#288,#289);
#291=PLANE('',#290);
#292=ORIENTED_EDGE('',*,*,#180,.F.);
#294=ORIENTED_EDGE('',*,*,#293,.F.);
#295=ORIENTED_EDGE('',*,*,#229,.F.);
#296=ORIENTED_EDGE('',*,*,#273,.T.);
#297=EDGE_LOOP('',(#292,#294,#295,#296));
#298=FACE_OUTER_BOUND('',#297,.F.);
#300=FILL_AREA_STYLE_COLOUR('',#3);
#301=FILL_AREA_STYLE('',(#300));
#302=SURFACE_STYLE_FILL_AREA(#301);
#303=SURFACE_SIDE_STYLE('',(#302));
#304=SURFACE_STYLE_USAGE(.BOTH.,#303);
#305=PRESENTATION_STYLE_ASSIGNMENT((#304));
#306=STYLED_ITEM('',(#305),#299);
#307=CARTESIAN_POINT('',(7.775590551181E-1,-2.125984251969E-1,
1.968503937008E-2));
#308=DIRECTION('',(0.E0,1.E0,0.E0));
#309=DIRECTION('',(0.E0,0.E0,1.E0));
#310=AXIS2_PLACEMENT_3D('',#307,#308,#309);
#311=PLANE('',#310);
#312=ORIENTED_EDGE('',*,*,#178,.T.);
#314=ORIENTED_EDGE('',*,*,#313,.F.);
#315=ORIENTED_EDGE('',*,*,#231,.T.);
#316=ORIENTED_EDGE('',*,*,#293,.T.);
#317=EDGE_LOOP('',(#312,#314,#315,#316));
#318=FACE_OUTER_BOUND('',#317,.F.);
#320=FILL_AREA_STYLE_COLOUR('',#3);
#321=FILL_AREA_STYLE('',(#320));
#322=SURFACE_STYLE_FILL_AREA(#321);
#323=SURFACE_SIDE_STYLE('',(#322));
#324=SURFACE_STYLE_USAGE(.BOTH.,#323);
#325=PRESENTATION_STYLE_ASSIGNMENT((#324));
#326=STYLED_ITEM('',(#325),#319);
#327=CARTESIAN_POINT('',(7.775590551181E-1,-2.125984251969E-1,
3.543307086614E-2));
#328=DIRECTION('',(0.E0,0.E0,-1.E0));
#329=DIRECTION('',(-1.E0,0.E0,0.E0));
#330=AXIS2_PLACEMENT_3D('',#327,#328,#329);
#331=PLANE('',#330);
#332=ORIENTED_EDGE('',*,*,#176,.T.);
#334=ORIENTED_EDGE('',*,*,#333,.T.);
#335=ORIENTED_EDGE('',*,*,#233,.T.);
#336=ORIENTED_EDGE('',*,*,#313,.T.);
#337=EDGE_LOOP('',(#332,#334,#335,#336));
#338=FACE_OUTER_BOUND('',#337,.F.);
#340=FILL_AREA_STYLE_COLOUR('',#3);
#341=FILL_AREA_STYLE('',(#340));
#342=SURFACE_STYLE_FILL_AREA(#341);
#343=SURFACE_SIDE_STYLE('',(#342));
#344=SURFACE_STYLE_USAGE(.BOTH.,#343);
#345=PRESENTATION_STYLE_ASSIGNMENT((#344));
#346=STYLED_ITEM('',(#345),#339);
#347=CARTESIAN_POINT('',(7.775590551181E-1,-1.338582677165E-1,
3.543307086614E-2));
#348=DIRECTION('',(0.E0,1.E0,0.E0));
#349=DIRECTION('',(0.E0,0.E0,1.E0));
#350=AXIS2_PLACEMENT_3D('',#347,#348,#349);
#351=PLANE('',#350);
#352=ORIENTED_EDGE('',*,*,#174,.F.);
#353=ORIENTED_EDGE('',*,*,#206,.T.);
#354=ORIENTED_EDGE('',*,*,#235,.T.);
#355=ORIENTED_EDGE('',*,*,#333,.F.);
#356=EDGE_LOOP('',(#352,#353,#354,#355));
#357=FACE_OUTER_BOUND('',#356,.F.);
#359=FILL_AREA_STYLE_COLOUR('',#3);
#360=FILL_AREA_STYLE('',(#359));
#361=SURFACE_STYLE_FILL_AREA(#360);
#362=SURFACE_SIDE_STYLE('',(#361));
#363=SURFACE_STYLE_USAGE(.BOTH.,#362);
#364=PRESENTATION_STYLE_ASSIGNMENT((#363));
#365=STYLED_ITEM('',(#364),#358);
#368=PRESENTATION_LAYER_ASSIGNMENT('SHELL_856','',(#159,#189,#210,#239,#259,
#279,#299,#319,#339,#358,#367));
#370=LENGTH_MEASURE_WITH_UNIT(LENGTH_MEASURE(2.54E1),#369);
#371=(CONVERSION_BASED_UNIT('INCH',#370)LENGTH_UNIT()NAMED_UNIT(*));
#373=PLANE_ANGLE_MEASURE_WITH_UNIT(PLANE_ANGLE_MEASURE(1.745329251994E-2),#372);
#374=(CONVERSION_BASED_UNIT('DEGREE',#373)NAMED_UNIT(*)PLANE_ANGLE_UNIT());
#376=UNCERTAINTY_MEASURE_WITH_UNIT(LENGTH_MEASURE(1.059246516384E-4),#371,
'closure',
'Maximum model space distance between geometric entities at asserted connectivities');
#378=CARTESIAN_POINT('',(0.E0,0.E0,0.E0));
#379=DIRECTION('',(0.E0,0.E0,1.E0));
#380=DIRECTION('',(1.E0,0.E0,0.E0));
#383=MECHANICAL_DESIGN_GEOMETRIC_PRESENTATION_REPRESENTATION('',(#166,#196,#217,
#246,#266,#286,#306,#326,#346,#365),#377);
#384=APPLICATION_CONTEXT('automotive design');
#385=APPLICATION_PROTOCOL_DEFINITION('international standard',
'config_control_design',1994,#384);
#386=PRODUCT_DEFINITION_CONTEXT('',#384,'design');
#387=PRODUCT_CONTEXT('',#384,'mechanical');
#388=PRODUCT('FPC-40-3696','FPC-40-3696','NOT SPECIFIED',(#387));
#389=PRODUCT_DEFINITION_FORMATION_WITH_SPECIFIED_SOURCE('1','LAST_VERSION',#388,
.MADE.);
#397=LENGTH_MEASURE_WITH_UNIT(LENGTH_MEASURE(2.54E1),#396);
#398=(CONVERSION_BASED_UNIT('INCH',#397)LENGTH_UNIT()NAMED_UNIT(*));
#399=DERIVED_UNIT_ELEMENT(#398,2.E0);
#400=AREA_UNIT((#399));
#401=MEASURE_REPRESENTATION_ITEM('surface area measure',AREA_MEASURE(
1.673518289963E-5),#400);
#406=LENGTH_MEASURE_WITH_UNIT(LENGTH_MEASURE(2.54E1),#405);
#407=(CONVERSION_BASED_UNIT('INCH',#406)LENGTH_UNIT()NAMED_UNIT(*));
#408=DERIVED_UNIT_ELEMENT(#407,3.E0);
#409=VOLUME_UNIT((#408));
#410=MEASURE_REPRESENTATION_ITEM('volume measure',VOLUME_MEASURE(3.90775E-9),
#409);
#414=CARTESIAN_POINT('centre point',(2.0475E-2,-4.738961038961E-3,
1.394063079777E-3));
#419=LENGTH_MEASURE_WITH_UNIT(LENGTH_MEASURE(2.54E1),#418);
#420=(CONVERSION_BASED_UNIT('INCH',#419)LENGTH_UNIT()NAMED_UNIT(*));
#421=DERIVED_UNIT_ELEMENT(#420,2.E0);
#422=AREA_UNIT((#421));
#423=MEASURE_REPRESENTATION_ITEM('surface area measure',AREA_MEASURE(
1.673518289963E-5),#422);
#428=LENGTH_MEASURE_WITH_UNIT(LENGTH_MEASURE(2.54E1),#427);
#429=(CONVERSION_BASED_UNIT('INCH',#428)LENGTH_UNIT()NAMED_UNIT(*));
#430=DERIVED_UNIT_ELEMENT(#429,3.E0);
#431=VOLUME_UNIT((#430));
#432=MEASURE_REPRESENTATION_ITEM('volume measure',VOLUME_MEASURE(3.90775E-9),
#431);
#436=CARTESIAN_POINT('centre point',(2.0475E-2,-4.738961038961E-3,
1.394063079777E-3));
#1=DRAUGHTING_PRE_DEFINED_COLOUR('green');
#2=COLOUR_RGB('',1.1E-2,1.2E-2,1.E0);
#3=COLOUR_RGB('',1.372549019608E-1,1.372549019608E-1,1.372549019608E-1);
#4=COLOUR_RGB('',2.352941176471E-1,2.352941176471E-1,2.352941176471E-1);
#5=COLOUR_RGB('',4.1E-1,2.61589E-1,1.12848E-1);
#6=COLOUR_RGB('',5.04854E-1,1.5455E-2,1.5455E-2);
#7=COLOUR_RGB('',6.35294E-1,6.86275E-1,7.4902E-1);
#8=COLOUR_RGB('',6.40777E-1,6.40777E-1,6.40777E-1);
#9=COLOUR_RGB('',6.69062E-1,6.69903E-1,6.55217E-1);
#10=COLOUR_RGB('',9.21569E-1,7.05882E-1,4.70588E-1);
#11=DRAUGHTING_PRE_DEFINED_COLOUR('red');
#12=DRAUGHTING_PRE_DEFINED_COLOUR('yellow');
#13=COLOUR_RGB('',1.E0,1.E0,5.3E-1);
#14=COLOUR_RGB('',1.E0,1.E0,9.49E-1);
#15=DRAUGHTING_PRE_DEFINED_COLOUR('white');
#149=EDGE_CURVE('',#135,#129,#35,.T.);
#151=EDGE_CURVE('',#118,#129,#19,.T.);
#153=EDGE_CURVE('',#118,#119,#51,.T.);
#155=EDGE_CURVE('',#135,#119,#23,.T.);
#159=ADVANCED_FACE('',(#158),#148,.T.);
#172=EDGE_CURVE('',#135,#141,#39,.T.);
#174=EDGE_CURVE('',#141,#121,#107,.T.);
#176=EDGE_CURVE('',#115,#121,#27,.T.);
#178=EDGE_CURVE('',#123,#115,#31,.T.);
#180=EDGE_CURVE('',#123,#133,#91,.T.);
#182=EDGE_CURVE('',#133,#127,#79,.T.);
#184=EDGE_CURVE('',#127,#129,#67,.T.);
#189=ADVANCED_FACE('',(#188),#171,.T.);
#204=EDGE_CURVE('',#139,#119,#43,.T.);
#206=EDGE_CURVE('',#141,#139,#47,.T.);
#210=ADVANCED_FACE('',(#209),#201,.T.);
#225=EDGE_CURVE('',#118,#125,#75,.T.);
#227=EDGE_CURVE('',#125,#131,#87,.T.);
#229=EDGE_CURVE('',#131,#137,#99,.T.);
#231=EDGE_CURVE('',#114,#137,#55,.T.);
#233=EDGE_CURVE('',#143,#114,#59,.T.);
#235=EDGE_CURVE('',#139,#143,#63,.T.);
#239=ADVANCED_FACE('',(#238),#222,.F.);
#253=EDGE_CURVE('',#125,#127,#71,.T.);
#259=ADVANCED_FACE('',(#258),#251,.T.);
#273=EDGE_CURVE('',#131,#133,#83,.T.);
#279=ADVANCED_FACE('',(#278),#271,.T.);
#293=EDGE_CURVE('',#137,#123,#95,.T.);
#299=ADVANCED_FACE('',(#298),#291,.T.);
#313=EDGE_CURVE('',#114,#115,#103,.T.);
#319=ADVANCED_FACE('',(#318),#311,.T.);
#333=EDGE_CURVE('',#121,#143,#111,.T.);
#339=ADVANCED_FACE('',(#338),#331,.T.);
#358=ADVANCED_FACE('',(#357),#351,.T.);
#366=CLOSED_SHELL('',(#159,#189,#210,#239,#259,#279,#299,#319,#339,#358));
#367=MANIFOLD_SOLID_BREP('',#366);
#369=(LENGTH_UNIT()NAMED_UNIT(*)SI_UNIT(.MILLI.,.METRE.));
#372=(NAMED_UNIT(*)PLANE_ANGLE_UNIT()SI_UNIT($,.RADIAN.));
#375=(NAMED_UNIT(*)SI_UNIT($,.STERADIAN.)SOLID_ANGLE_UNIT());
#377=(GEOMETRIC_REPRESENTATION_CONTEXT(3)GLOBAL_UNCERTAINTY_ASSIGNED_CONTEXT((
#376))GLOBAL_UNIT_ASSIGNED_CONTEXT((#371,#374,#375))REPRESENTATION_CONTEXT
('ID1','3'));
#381=AXIS2_PLACEMENT_3D('',#378,#379,#380);
#382=ADVANCED_BREP_SHAPE_REPRESENTATION('',(#381,#367),#377);
#390=PRODUCT_DEFINITION('design','',#389,#386);
#391=PRODUCT_DEFINITION_SHAPE('','SHAPE FOR FPC-40-3696.',#390);
#392=SHAPE_ASPECT('','solid data associated with FPC-40-3696',#391,.F.);
#393=PROPERTY_DEFINITION('',
'shape for solid data with which properties are associated',#392);
#394=SHAPE_REPRESENTATION('',(#367),#377);
#395=SHAPE_DEFINITION_REPRESENTATION(#393,#394);
#396=(LENGTH_UNIT()NAMED_UNIT(*)SI_UNIT(.MILLI.,.METRE.));
#402=PROPERTY_DEFINITION('geometric validation property','area of FPC-40-3696',
#392);
#403=REPRESENTATION('surface area',(#401),#377);
#404=PROPERTY_DEFINITION_REPRESENTATION(#402,#403);
#405=(LENGTH_UNIT()NAMED_UNIT(*)SI_UNIT(.MILLI.,.METRE.));
#411=PROPERTY_DEFINITION('geometric validation property',
'volume of FPC-40-3696',#392);
#412=REPRESENTATION('volume',(#410),#377);
#413=PROPERTY_DEFINITION_REPRESENTATION(#411,#412);
#415=PROPERTY_DEFINITION('geometric validation property',
'centroid of FPC-40-3696',#392);
#416=REPRESENTATION('centroid',(#414),#377);
#417=PROPERTY_DEFINITION_REPRESENTATION(#415,#416);
#418=(LENGTH_UNIT()NAMED_UNIT(*)SI_UNIT(.MILLI.,.METRE.));
#424=PROPERTY_DEFINITION('geometric validation property','area of FPC-40-3696',
#391);
#425=REPRESENTATION('surface area',(#423),#377);
#426=PROPERTY_DEFINITION_REPRESENTATION(#424,#425);
#427=(LENGTH_UNIT()NAMED_UNIT(*)SI_UNIT(.MILLI.,.METRE.));
#433=PROPERTY_DEFINITION('geometric validation property',
'volume of FPC-40-3696',#391);
#434=REPRESENTATION('volume',(#432),#377);
#435=PROPERTY_DEFINITION_REPRESENTATION(#433,#434);
#437=PROPERTY_DEFINITION('geometric validation property',
'centroid of FPC-40-3696',#391);
#438=REPRESENTATION('centroid',(#436),#377);
#439=PROPERTY_DEFINITION_REPRESENTATION(#437,#438);
#440=SHAPE_DEFINITION_REPRESENTATION(#391,#382);
ENDSEC;
END-ISO-10303-21;
