ISO-10303-21;
HEADER;
FILE_DESCRIPTION((''),'2;1');
FILE_NAME('FPC-6-4004','2026-06-15T13:46:04',('Esia'),(''),
'CREO PARAMETRIC BY PTC INC, 2025102','CREO PARAMETRIC BY PTC INC, 2025102','');
FILE_SCHEMA((
'AP242_MANAGED_MODEL_BASED_3D_ENGINEERING_MIM_LF { 1 0 10303 442 1 1 4 }'));
ENDSEC;
DATA;
#16=CARTESIAN_POINT('',(1.771653543307E-1,-1.574803149606E-1,
5.511811023622E-2));
#17=DIRECTION('',(-1.E0,0.E0,0.E0));
#18=DIRECTION('',(0.E0,0.E0,-1.E0));
#19=AXIS2_PLACEMENT_3D('',#16,#17,#18);
#21=CARTESIAN_POINT('',(1.771653543307E-1,-1.574803149606E-1,
5.511811023622E-2));
#22=DIRECTION('',(-1.E0,0.E0,0.E0));
#23=DIRECTION('',(0.E0,0.E0,1.E0));
#24=AXIS2_PLACEMENT_3D('',#21,#22,#23);
#26=DIRECTION('',(1.E0,0.E0,0.E0));
#27=VECTOR('',#26,7.874015748031E-3);
#28=CARTESIAN_POINT('',(1.692913385827E-1,-1.574803149606E-1,
3.937007874016E-2));
#29=LINE('',#28,#27);
#30=DIRECTION('',(1.E0,0.E0,0.E0));
#31=VECTOR('',#30,7.874015748031E-3);
#32=CARTESIAN_POINT('',(1.692913385827E-1,-1.574803149606E-1,
7.086614173228E-2));
#33=LINE('',#32,#31);
#34=CARTESIAN_POINT('',(1.692913385827E-1,-1.574803149606E-1,
5.511811023622E-2));
#35=DIRECTION('',(1.E0,0.E0,0.E0));
#36=DIRECTION('',(0.E0,0.E0,-1.E0));
#37=AXIS2_PLACEMENT_3D('',#34,#35,#36);
#39=CARTESIAN_POINT('',(1.692913385827E-1,-1.574803149606E-1,
5.511811023622E-2));
#40=DIRECTION('',(1.E0,0.E0,0.E0));
#41=DIRECTION('',(0.E0,0.E0,1.E0));
#42=AXIS2_PLACEMENT_3D('',#39,#40,#41);
#44=DIRECTION('',(0.E0,0.E0,1.E0));
#45=VECTOR('',#44,6.299212598425E-2);
#46=CARTESIAN_POINT('',(1.692913385827E-1,-2.066929133858E-1,
1.968503937008E-2));
#47=LINE('',#46,#45);
#48=DIRECTION('',(0.E0,-1.E0,0.E0));
#49=VECTOR('',#48,1.279527559055E-1);
#50=CARTESIAN_POINT('',(1.692913385827E-1,-7.874015748031E-2,
1.968503937008E-2));
#51=LINE('',#50,#49);
#52=DIRECTION('',(0.E0,0.E0,1.E0));
#53=VECTOR('',#52,5.905511811024E-3);
#54=CARTESIAN_POINT('',(1.692913385827E-1,-7.874015748031E-2,
1.377952755906E-2));
#55=LINE('',#54,#53);
#56=DIRECTION('',(0.E0,1.E0,0.E0));
#57=VECTOR('',#56,1.279527559055E-1);
#58=CARTESIAN_POINT('',(1.692913385827E-1,-2.066929133858E-1,
1.377952755906E-2));
#59=LINE('',#58,#57);
#60=DIRECTION('',(0.E0,0.E0,1.E0));
#61=VECTOR('',#60,5.905511811024E-3);
#62=CARTESIAN_POINT('',(1.692913385827E-1,-2.066929133858E-1,
7.874015748031E-3));
#63=LINE('',#62,#61);
#64=DIRECTION('',(0.E0,-1.E0,0.E0));
#65=VECTOR('',#64,1.771653543307E-1);
#66=CARTESIAN_POINT('',(1.692913385827E-1,-2.952755905512E-2,
7.874015748031E-3));
#67=LINE('',#66,#65);
#68=DIRECTION('',(0.E0,0.E0,-1.E0));
#69=VECTOR('',#68,7.480314960630E-2);
#70=CARTESIAN_POINT('',(1.692913385827E-1,-2.952755905512E-2,
8.267716535433E-2));
#71=LINE('',#70,#69);
#72=DIRECTION('',(0.E0,1.E0,0.E0));
#73=VECTOR('',#72,1.771653543307E-1);
#74=CARTESIAN_POINT('',(1.692913385827E-1,-2.066929133858E-1,
8.267716535433E-2));
#75=LINE('',#74,#73);
#76=DIRECTION('',(0.E0,0.E0,1.E0));
#77=VECTOR('',#76,6.299212598425E-2);
#78=CARTESIAN_POINT('',(1.850393700787E-1,-2.066929133858E-1,
1.968503937008E-2));
#79=LINE('',#78,#77);
#80=DIRECTION('',(1.E0,0.E0,0.E0));
#81=VECTOR('',#80,1.574803149606E-2);
#82=CARTESIAN_POINT('',(1.692913385827E-1,-2.066929133858E-1,
1.968503937008E-2));
#83=LINE('',#82,#81);
#84=DIRECTION('',(0.E0,1.E0,0.E0));
#85=VECTOR('',#84,1.771653543307E-1);
#86=CARTESIAN_POINT('',(1.850393700787E-1,-2.066929133858E-1,
8.267716535433E-2));
#87=LINE('',#86,#85);
#88=DIRECTION('',(1.E0,0.E0,0.E0));
#89=VECTOR('',#88,1.574803149606E-2);
#90=CARTESIAN_POINT('',(1.692913385827E-1,-2.066929133858E-1,
8.267716535433E-2));
#91=LINE('',#90,#89);
#92=DIRECTION('',(0.E0,0.E0,-1.E0));
#93=VECTOR('',#92,7.480314960630E-2);
#94=CARTESIAN_POINT('',(1.850393700787E-1,-2.952755905512E-2,
8.267716535433E-2));
#95=LINE('',#94,#93);
#96=DIRECTION('',(1.E0,0.E0,0.E0));
#97=VECTOR('',#96,1.574803149606E-2);
#98=CARTESIAN_POINT('',(1.692913385827E-1,-2.952755905512E-2,
8.267716535433E-2));
#99=LINE('',#98,#97);
#100=DIRECTION('',(0.E0,-1.E0,0.E0));
#101=VECTOR('',#100,1.771653543307E-1);
#102=CARTESIAN_POINT('',(1.850393700787E-1,-2.952755905512E-2,
7.874015748031E-3));
#103=LINE('',#102,#101);
#104=DIRECTION('',(1.E0,0.E0,0.E0));
#105=VECTOR('',#104,1.574803149606E-2);
#106=CARTESIAN_POINT('',(1.692913385827E-1,-2.952755905512E-2,
7.874015748031E-3));
#107=LINE('',#106,#105);
#108=DIRECTION('',(0.E0,0.E0,1.E0));
#109=VECTOR('',#108,5.905511811024E-3);
#110=CARTESIAN_POINT('',(1.850393700787E-1,-2.066929133858E-1,
7.874015748031E-3));
#111=LINE('',#110,#109);
#112=DIRECTION('',(1.E0,0.E0,0.E0));
#113=VECTOR('',#112,1.574803149606E-2);
#114=CARTESIAN_POINT('',(1.692913385827E-1,-2.066929133858E-1,
7.874015748031E-3));
#115=LINE('',#114,#113);
#116=DIRECTION('',(0.E0,1.E0,0.E0));
#117=VECTOR('',#116,1.279527559055E-1);
#118=CARTESIAN_POINT('',(1.850393700787E-1,-2.066929133858E-1,
1.377952755906E-2));
#119=LINE('',#118,#117);
#120=DIRECTION('',(1.E0,0.E0,0.E0));
#121=VECTOR('',#120,1.574803149606E-2);
#122=CARTESIAN_POINT('',(1.692913385827E-1,-2.066929133858E-1,
1.377952755906E-2));
#123=LINE('',#122,#121);
#124=DIRECTION('',(0.E0,0.E0,1.E0));
#125=VECTOR('',#124,5.905511811024E-3);
#126=CARTESIAN_POINT('',(1.850393700787E-1,-7.874015748031E-2,
1.377952755906E-2));
#127=LINE('',#126,#125);
#128=DIRECTION('',(1.E0,0.E0,0.E0));
#129=VECTOR('',#128,1.574803149606E-2);
#130=CARTESIAN_POINT('',(1.692913385827E-1,-7.874015748031E-2,
1.377952755906E-2));
#131=LINE('',#130,#129);
#132=DIRECTION('',(-1.E0,0.E0,0.E0));
#133=VECTOR('',#132,1.574803149606E-2);
#134=CARTESIAN_POINT('',(1.850393700787E-1,-7.874015748031E-2,
1.968503937008E-2));
#135=LINE('',#134,#133);
#136=DIRECTION('',(0.E0,-1.E0,0.E0));
#137=VECTOR('',#136,1.279527559055E-1);
#138=CARTESIAN_POINT('',(1.850393700787E-1,-7.874015748031E-2,
1.968503937008E-2));
#139=LINE('',#138,#137);
#140=CARTESIAN_POINT('',(1.850393700787E-1,-7.874015748031E-2,
1.968503937008E-2));
#141=CARTESIAN_POINT('',(1.850393700787E-1,-2.066929133858E-1,
1.968503937008E-2));
#142=VERTEX_POINT('',#140);
#143=VERTEX_POINT('',#141);
#144=CARTESIAN_POINT('',(1.850393700787E-1,-2.066929133858E-1,
8.267716535433E-2));
#145=VERTEX_POINT('',#144);
#146=CARTESIAN_POINT('',(1.692913385827E-1,-2.066929133858E-1,
1.968503937008E-2));
#147=VERTEX_POINT('',#146);
#148=CARTESIAN_POINT('',(1.692913385827E-1,-2.066929133858E-1,
7.874015748031E-3));
#149=CARTESIAN_POINT('',(1.692913385827E-1,-2.066929133858E-1,
1.377952755906E-2));
#150=VERTEX_POINT('',#148);
#151=VERTEX_POINT('',#149);
#152=CARTESIAN_POINT('',(1.692913385827E-1,-7.874015748031E-2,
1.377952755906E-2));
#153=VERTEX_POINT('',#152);
#154=CARTESIAN_POINT('',(1.692913385827E-1,-7.874015748031E-2,
1.968503937008E-2));
#155=VERTEX_POINT('',#154);
#156=CARTESIAN_POINT('',(1.850393700787E-1,-7.874015748031E-2,
1.377952755906E-2));
#157=VERTEX_POINT('',#156);
#158=CARTESIAN_POINT('',(1.850393700787E-1,-2.066929133858E-1,
1.377952755906E-2));
#159=VERTEX_POINT('',#158);
#160=CARTESIAN_POINT('',(1.850393700787E-1,-2.066929133858E-1,
7.874015748031E-3));
#161=VERTEX_POINT('',#160);
#162=CARTESIAN_POINT('',(1.850393700787E-1,-2.952755905512E-2,
7.874015748031E-3));
#163=VERTEX_POINT('',#162);
#164=CARTESIAN_POINT('',(1.692913385827E-1,-2.066929133858E-1,
8.267716535433E-2));
#165=VERTEX_POINT('',#164);
#166=CARTESIAN_POINT('',(1.692913385827E-1,-2.952755905512E-2,
8.267716535433E-2));
#167=CARTESIAN_POINT('',(1.850393700787E-1,-2.952755905512E-2,
8.267716535433E-2));
#168=VERTEX_POINT('',#166);
#169=VERTEX_POINT('',#167);
#170=CARTESIAN_POINT('',(1.692913385827E-1,-2.952755905512E-2,
7.874015748031E-3));
#171=VERTEX_POINT('',#170);
#172=CARTESIAN_POINT('',(1.692913385827E-1,-1.574803149606E-1,
7.086614173228E-2));
#173=CARTESIAN_POINT('',(1.771653543307E-1,-1.574803149606E-1,
7.086614173228E-2));
#174=VERTEX_POINT('',#172);
#175=VERTEX_POINT('',#173);
#176=CARTESIAN_POINT('',(1.692913385827E-1,-1.574803149606E-1,
3.937007874016E-2));
#177=CARTESIAN_POINT('',(1.771653543307E-1,-1.574803149606E-1,
3.937007874016E-2));
#178=VERTEX_POINT('',#176);
#179=VERTEX_POINT('',#177);
#180=CARTESIAN_POINT('',(1.771653543307E-1,0.E0,0.E0));
#181=DIRECTION('',(1.E0,0.E0,0.E0));
#182=DIRECTION('',(0.E0,0.E0,-1.E0));
#183=AXIS2_PLACEMENT_3D('',#180,#181,#182);
#184=PLANE('',#183);
#186=ORIENTED_EDGE('',*,*,#185,.F.);
#188=ORIENTED_EDGE('',*,*,#187,.F.);
#189=EDGE_LOOP('',(#186,#188));
#190=FACE_OUTER_BOUND('',#189,.F.);
#192=FILL_AREA_STYLE_COLOUR('',#10);
#193=FILL_AREA_STYLE('',(#192));
#194=SURFACE_STYLE_FILL_AREA(#193);
#195=SURFACE_SIDE_STYLE('',(#194));
#196=SURFACE_STYLE_USAGE(.BOTH.,#195);
#197=PRESENTATION_STYLE_ASSIGNMENT((#196));
#198=STYLED_ITEM('',(#197),#191);
#199=CARTESIAN_POINT('',(1.692913385827E-1,-1.574803149606E-1,
5.511811023622E-2));
#200=DIRECTION('',(1.E0,0.E0,0.E0));
#201=DIRECTION('',(0.E0,0.E0,-1.E0));
#202=AXIS2_PLACEMENT_3D('',#199,#200,#201);
#203=CYLINDRICAL_SURFACE('',#202,1.574803149606E-2);
#205=ORIENTED_EDGE('',*,*,#204,.T.);
#207=ORIENTED_EDGE('',*,*,#206,.T.);
#208=ORIENTED_EDGE('',*,*,#185,.T.);
#210=ORIENTED_EDGE('',*,*,#209,.F.);
#211=EDGE_LOOP('',(#205,#207,#208,#210));
#212=FACE_OUTER_BOUND('',#211,.F.);
#214=FILL_AREA_STYLE_COLOUR('',#10);
#215=FILL_AREA_STYLE('',(#214));
#216=SURFACE_STYLE_FILL_AREA(#215);
#217=SURFACE_SIDE_STYLE('',(#216));
#218=SURFACE_STYLE_USAGE(.BOTH.,#217);
#219=PRESENTATION_STYLE_ASSIGNMENT((#218));
#220=STYLED_ITEM('',(#219),#213);
#221=CARTESIAN_POINT('',(1.692913385827E-1,0.E0,0.E0));
#222=DIRECTION('',(1.E0,0.E0,0.E0));
#223=DIRECTION('',(0.E0,0.E0,-1.E0));
#224=AXIS2_PLACEMENT_3D('',#221,#222,#223);
#225=PLANE('',#224);
#227=ORIENTED_EDGE('',*,*,#226,.F.);
#229=ORIENTED_EDGE('',*,*,#228,.F.);
#231=ORIENTED_EDGE('',*,*,#230,.F.);
#233=ORIENTED_EDGE('',*,*,#232,.F.);
#235=ORIENTED_EDGE('',*,*,#234,.F.);
#237=ORIENTED_EDGE('',*,*,#236,.F.);
#239=ORIENTED_EDGE('',*,*,#238,.F.);
#241=ORIENTED_EDGE('',*,*,#240,.F.);
#242=EDGE_LOOP('',(#227,#229,#231,#233,#235,#237,#239,#241));
#243=FACE_OUTER_BOUND('',#242,.F.);
#245=ORIENTED_EDGE('',*,*,#244,.F.);
#246=ORIENTED_EDGE('',*,*,#204,.F.);
#247=EDGE_LOOP('',(#245,#246));
#248=FACE_BOUND('',#247,.F.);
#250=FILL_AREA_STYLE_COLOUR('',#10);
#251=FILL_AREA_STYLE('',(#250));
#252=SURFACE_STYLE_FILL_AREA(#251);
#253=SURFACE_SIDE_STYLE('',(#252));
#254=SURFACE_STYLE_USAGE(.BOTH.,#253);
#255=PRESENTATION_STYLE_ASSIGNMENT((#254));
#256=STYLED_ITEM('',(#255),#249);
#257=CARTESIAN_POINT('',(1.692913385827E-1,-1.574803149606E-1,
5.511811023622E-2));
#258=DIRECTION('',(1.E0,0.E0,0.E0));
#259=DIRECTION('',(0.E0,0.E0,-1.E0));
#260=AXIS2_PLACEMENT_3D('',#257,#258,#259);
#261=CYLINDRICAL_SURFACE('',#260,1.574803149606E-2);
#262=ORIENTED_EDGE('',*,*,#244,.T.);
#263=ORIENTED_EDGE('',*,*,#209,.T.);
#264=ORIENTED_EDGE('',*,*,#187,.T.);
#265=ORIENTED_EDGE('',*,*,#206,.F.);
#266=EDGE_LOOP('',(#262,#263,#264,#265));
#267=FACE_OUTER_BOUND('',#266,.F.);
#269=FILL_AREA_STYLE_COLOUR('',#10);
#270=FILL_AREA_STYLE('',(#269));
#271=SURFACE_STYLE_FILL_AREA(#270);
#272=SURFACE_SIDE_STYLE('',(#271));
#273=SURFACE_STYLE_USAGE(.BOTH.,#272);
#274=PRESENTATION_STYLE_ASSIGNMENT((#273));
#275=STYLED_ITEM('',(#274),#268);
#276=CARTESIAN_POINT('',(1.692913385827E-1,-2.066929133858E-1,
8.267716535433E-2));
#277=DIRECTION('',(0.E0,-1.E0,0.E0));
#278=DIRECTION('',(0.E0,0.E0,-1.E0));
#279=AXIS2_PLACEMENT_3D('',#276,#277,#278);
#280=PLANE('',#279);
#282=ORIENTED_EDGE('',*,*,#281,.F.);
#284=ORIENTED_EDGE('',*,*,#283,.F.);
#285=ORIENTED_EDGE('',*,*,#226,.T.);
#287=ORIENTED_EDGE('',*,*,#286,.T.);
#288=EDGE_LOOP('',(#282,#284,#285,#287));
#289=FACE_OUTER_BOUND('',#288,.F.);
#291=FILL_AREA_STYLE_COLOUR('',#10);
#292=FILL_AREA_STYLE('',(#291));
#293=SURFACE_STYLE_FILL_AREA(#292);
#294=SURFACE_SIDE_STYLE('',(#293));
#295=SURFACE_STYLE_USAGE(.BOTH.,#294);
#296=PRESENTATION_STYLE_ASSIGNMENT((#295));
#297=STYLED_ITEM('',(#296),#290);
#298=CARTESIAN_POINT('',(1.850393700787E-1,0.E0,0.E0));
#299=DIRECTION('',(1.E0,0.E0,0.E0));
#300=DIRECTION('',(0.E0,0.E0,-1.E0));
#301=AXIS2_PLACEMENT_3D('',#298,#299,#300);
#302=PLANE('',#301);
#303=ORIENTED_EDGE('',*,*,#281,.T.);
#305=ORIENTED_EDGE('',*,*,#304,.T.);
#307=ORIENTED_EDGE('',*,*,#306,.T.);
#309=ORIENTED_EDGE('',*,*,#308,.T.);
#311=ORIENTED_EDGE('',*,*,#310,.T.);
#313=ORIENTED_EDGE('',*,*,#312,.T.);
#315=ORIENTED_EDGE('',*,*,#314,.T.);
#317=ORIENTED_EDGE('',*,*,#316,.T.);
#318=EDGE_LOOP('',(#303,#305,#307,#309,#311,#313,#315,#317));
#319=FACE_OUTER_BOUND('',#318,.F.);
#321=FILL_AREA_STYLE_COLOUR('',#10);
#322=FILL_AREA_STYLE('',(#321));
#323=SURFACE_STYLE_FILL_AREA(#322);
#324=SURFACE_SIDE_STYLE('',(#323));
#325=SURFACE_STYLE_USAGE(.BOTH.,#324);
#326=PRESENTATION_STYLE_ASSIGNMENT((#325));
#327=STYLED_ITEM('',(#326),#320);
#328=CARTESIAN_POINT('',(1.692913385827E-1,-2.952755905512E-2,
8.267716535433E-2));
#329=DIRECTION('',(0.E0,0.E0,1.E0));
#330=DIRECTION('',(1.E0,0.E0,0.E0));
#331=AXIS2_PLACEMENT_3D('',#328,#329,#330);
#332=PLANE('',#331);
#333=ORIENTED_EDGE('',*,*,#304,.F.);
#334=ORIENTED_EDGE('',*,*,#286,.F.);
#335=ORIENTED_EDGE('',*,*,#240,.T.);
#337=ORIENTED_EDGE('',*,*,#336,.T.);
#338=EDGE_LOOP('',(#333,#334,#335,#337));
#339=FACE_OUTER_BOUND('',#338,.F.);
#341=FILL_AREA_STYLE_COLOUR('',#10);
#342=FILL_AREA_STYLE('',(#341));
#343=SURFACE_STYLE_FILL_AREA(#342);
#344=SURFACE_SIDE_STYLE('',(#343));
#345=SURFACE_STYLE_USAGE(.BOTH.,#344);
#346=PRESENTATION_STYLE_ASSIGNMENT((#345));
#347=STYLED_ITEM('',(#346),#340);
#348=CARTESIAN_POINT('',(1.692913385827E-1,-2.952755905512E-2,
7.874015748031E-3));
#349=DIRECTION('',(0.E0,1.E0,0.E0));
#350=DIRECTION('',(0.E0,0.E0,1.E0));
#351=AXIS2_PLACEMENT_3D('',#348,#349,#350);
#352=PLANE('',#351);
#353=ORIENTED_EDGE('',*,*,#306,.F.);
#354=ORIENTED_EDGE('',*,*,#336,.F.);
#355=ORIENTED_EDGE('',*,*,#238,.T.);
#357=ORIENTED_EDGE('',*,*,#356,.T.);
#358=EDGE_LOOP('',(#353,#354,#355,#357));
#359=FACE_OUTER_BOUND('',#358,.F.);
#361=FILL_AREA_STYLE_COLOUR('',#10);
#362=FILL_AREA_STYLE('',(#361));
#363=SURFACE_STYLE_FILL_AREA(#362);
#364=SURFACE_SIDE_STYLE('',(#363));
#365=SURFACE_STYLE_USAGE(.BOTH.,#364);
#366=PRESENTATION_STYLE_ASSIGNMENT((#365));
#367=STYLED_ITEM('',(#366),#360);
#368=CARTESIAN_POINT('',(1.692913385827E-1,-2.066929133858E-1,
7.874015748031E-3));
#369=DIRECTION('',(0.E0,0.E0,-1.E0));
#370=DIRECTION('',(-1.E0,0.E0,0.E0));
#371=AXIS2_PLACEMENT_3D('',#368,#369,#370);
#372=PLANE('',#371);
#373=ORIENTED_EDGE('',*,*,#308,.F.);
#374=ORIENTED_EDGE('',*,*,#356,.F.);
#375=ORIENTED_EDGE('',*,*,#236,.T.);
#377=ORIENTED_EDGE('',*,*,#376,.T.);
#378=EDGE_LOOP('',(#373,#374,#375,#377));
#379=FACE_OUTER_BOUND('',#378,.F.);
#381=FILL_AREA_STYLE_COLOUR('',#10);
#382=FILL_AREA_STYLE('',(#381));
#383=SURFACE_STYLE_FILL_AREA(#382);
#384=SURFACE_SIDE_STYLE('',(#383));
#385=SURFACE_STYLE_USAGE(.BOTH.,#384);
#386=PRESENTATION_STYLE_ASSIGNMENT((#385));
#387=STYLED_ITEM('',(#386),#380);
#388=CARTESIAN_POINT('',(1.692913385827E-1,-2.066929133858E-1,
1.377952755906E-2));
#389=DIRECTION('',(0.E0,-1.E0,0.E0));
#390=DIRECTION('',(0.E0,0.E0,-1.E0));
#391=AXIS2_PLACEMENT_3D('',#388,#389,#390);
#392=PLANE('',#391);
#393=ORIENTED_EDGE('',*,*,#310,.F.);
#394=ORIENTED_EDGE('',*,*,#376,.F.);
#395=ORIENTED_EDGE('',*,*,#234,.T.);
#397=ORIENTED_EDGE('',*,*,#396,.T.);
#398=EDGE_LOOP('',(#393,#394,#395,#397));
#399=FACE_OUTER_BOUND('',#398,.F.);
#401=FILL_AREA_STYLE_COLOUR('',#10);
#402=FILL_AREA_STYLE('',(#401));
#403=SURFACE_STYLE_FILL_AREA(#402);
#404=SURFACE_SIDE_STYLE('',(#403));
#405=SURFACE_STYLE_USAGE(.BOTH.,#404);
#406=PRESENTATION_STYLE_ASSIGNMENT((#405));
#407=STYLED_ITEM('',(#406),#400);
#408=CARTESIAN_POINT('',(1.692913385827E-1,-7.874015748031E-2,
1.377952755906E-2));
#409=DIRECTION('',(0.E0,0.E0,1.E0));
#410=DIRECTION('',(1.E0,0.E0,0.E0));
#411=AXIS2_PLACEMENT_3D('',#408,#409,#410);
#412=PLANE('',#411);
#413=ORIENTED_EDGE('',*,*,#312,.F.);
#414=ORIENTED_EDGE('',*,*,#396,.F.);
#415=ORIENTED_EDGE('',*,*,#232,.T.);
#417=ORIENTED_EDGE('',*,*,#416,.T.);
#418=EDGE_LOOP('',(#413,#414,#415,#417));
#419=FACE_OUTER_BOUND('',#418,.F.);
#421=FILL_AREA_STYLE_COLOUR('',#10);
#422=FILL_AREA_STYLE('',(#421));
#423=SURFACE_STYLE_FILL_AREA(#422);
#424=SURFACE_SIDE_STYLE('',(#423));
#425=SURFACE_STYLE_USAGE(.BOTH.,#424);
#426=PRESENTATION_STYLE_ASSIGNMENT((#425));
#427=STYLED_ITEM('',(#426),#420);
#428=CARTESIAN_POINT('',(1.692913385827E-1,-7.874015748031E-2,
1.968503937008E-2));
#429=DIRECTION('',(0.E0,-1.E0,0.E0));
#430=DIRECTION('',(0.E0,0.E0,-1.E0));
#431=AXIS2_PLACEMENT_3D('',#428,#429,#430);
#432=PLANE('',#431);
#433=ORIENTED_EDGE('',*,*,#314,.F.);
#434=ORIENTED_EDGE('',*,*,#416,.F.);
#435=ORIENTED_EDGE('',*,*,#230,.T.);
#437=ORIENTED_EDGE('',*,*,#436,.F.);
#438=EDGE_LOOP('',(#433,#434,#435,#437));
#439=FACE_OUTER_BOUND('',#438,.F.);
#441=FILL_AREA_STYLE_COLOUR('',#10);
#442=FILL_AREA_STYLE('',(#441));
#443=SURFACE_STYLE_FILL_AREA(#442);
#444=SURFACE_SIDE_STYLE('',(#443));
#445=SURFACE_STYLE_USAGE(.BOTH.,#444);
#446=PRESENTATION_STYLE_ASSIGNMENT((#445));
#447=STYLED_ITEM('',(#446),#440);
#448=CARTESIAN_POINT('',(1.692913385827E-1,-2.066929133858E-1,
1.968503937008E-2));
#449=DIRECTION('',(0.E0,0.E0,-1.E0));
#450=DIRECTION('',(-1.E0,0.E0,0.E0));
#451=AXIS2_PLACEMENT_3D('',#448,#449,#450);
#452=PLANE('',#451);
#453=ORIENTED_EDGE('',*,*,#316,.F.);
#454=ORIENTED_EDGE('',*,*,#436,.T.);
#455=ORIENTED_EDGE('',*,*,#228,.T.);
#456=ORIENTED_EDGE('',*,*,#283,.T.);
#457=EDGE_LOOP('',(#453,#454,#455,#456));
#458=FACE_OUTER_BOUND('',#457,.F.);
#460=FILL_AREA_STYLE_COLOUR('',#10);
#461=FILL_AREA_STYLE('',(#460));
#462=SURFACE_STYLE_FILL_AREA(#461);
#463=SURFACE_SIDE_STYLE('',(#462));
#464=SURFACE_STYLE_USAGE(.BOTH.,#463);
#465=PRESENTATION_STYLE_ASSIGNMENT((#464));
#466=STYLED_ITEM('',(#465),#459);
#469=PRESENTATION_LAYER_ASSIGNMENT('SHELL_875','',(#191,#213,#249,#268,#290,
#320,#340,#360,#380,#400,#420,#440,#459,#468));
#471=LENGTH_MEASURE_WITH_UNIT(LENGTH_MEASURE(2.54E1),#470);
#472=(CONVERSION_BASED_UNIT('INCH',#471)LENGTH_UNIT()NAMED_UNIT(*));
#474=PLANE_ANGLE_MEASURE_WITH_UNIT(PLANE_ANGLE_MEASURE(1.745329251994E-2),#473);
#475=(CONVERSION_BASED_UNIT('DEGREE',#474)NAMED_UNIT(*)PLANE_ANGLE_UNIT());
#477=UNCERTAINTY_MEASURE_WITH_UNIT(LENGTH_MEASURE(1.102474662876E-4),#472,
'closure',
'Maximum model space distance between geometric entities at asserted connectivities');
#479=CARTESIAN_POINT('',(0.E0,0.E0,0.E0));
#480=DIRECTION('',(0.E0,0.E0,1.E0));
#481=DIRECTION('',(1.E0,0.E0,0.E0));
#484=MECHANICAL_DESIGN_GEOMETRIC_PRESENTATION_REPRESENTATION('',(#198,#220,#256,
#275,#297,#327,#347,#367,#387,#407,#427,#447,#466),#478);
#485=APPLICATION_CONTEXT('automotive design');
#486=APPLICATION_PROTOCOL_DEFINITION('international standard',
'config_control_design',1994,#485);
#487=PRODUCT_DEFINITION_CONTEXT('',#485,'design');
#488=PRODUCT_CONTEXT('',#485,'mechanical');
#489=PRODUCT('FPC-6-4004','FPC-6-4004','NOT SPECIFIED',(#488));
#490=PRODUCT_DEFINITION_FORMATION_WITH_SPECIFIED_SOURCE('1','LAST_VERSION',#489,
.MADE.);
#498=LENGTH_MEASURE_WITH_UNIT(LENGTH_MEASURE(2.54E1),#497);
#499=(CONVERSION_BASED_UNIT('INCH',#498)LENGTH_UNIT()NAMED_UNIT(*));
#500=DERIVED_UNIT_ELEMENT(#499,2.E0);
#501=AREA_UNIT((#500));
#502=MEASURE_REPRESENTATION_ITEM('surface area measure',AREA_MEASURE(
2.434765482457E-5),#501);
#507=LENGTH_MEASURE_WITH_UNIT(LENGTH_MEASURE(2.54E1),#506);
#508=(CONVERSION_BASED_UNIT('INCH',#507)LENGTH_UNIT()NAMED_UNIT(*));
#509=DERIVED_UNIT_ELEMENT(#508,3.E0);
#510=VOLUME_UNIT((#509));
#511=MEASURE_REPRESENTATION_ITEM('volume measure',VOLUME_MEASURE(
3.124469031913E-9),#510);
#515=CARTESIAN_POINT('centre point',(4.503217537721E-3,-2.928817996493E-3,
1.187203844815E-3));
#520=LENGTH_MEASURE_WITH_UNIT(LENGTH_MEASURE(2.54E1),#519);
#521=(CONVERSION_BASED_UNIT('INCH',#520)LENGTH_UNIT()NAMED_UNIT(*));
#522=DERIVED_UNIT_ELEMENT(#521,2.E0);
#523=AREA_UNIT((#522));
#524=MEASURE_REPRESENTATION_ITEM('surface area measure',AREA_MEASURE(
2.434765482457E-5),#523);
#529=LENGTH_MEASURE_WITH_UNIT(LENGTH_MEASURE(2.54E1),#528);
#530=(CONVERSION_BASED_UNIT('INCH',#529)LENGTH_UNIT()NAMED_UNIT(*));
#531=DERIVED_UNIT_ELEMENT(#530,3.E0);
#532=VOLUME_UNIT((#531));
#533=MEASURE_REPRESENTATION_ITEM('volume measure',VOLUME_MEASURE(
3.124469031913E-9),#532);
#537=CARTESIAN_POINT('centre point',(4.503217537721E-3,-2.928817996493E-3,
1.187203844815E-3));
#1=DRAUGHTING_PRE_DEFINED_COLOUR('green');
#2=COLOUR_RGB('',1.1E-2,1.2E-2,1.E0);
#3=COLOUR_RGB('',2.352941176471E-1,2.352941176471E-1,2.352941176471E-1);
#4=COLOUR_RGB('',4.1E-1,2.61589E-1,1.12848E-1);
#5=COLOUR_RGB('',5.04854E-1,1.5455E-2,1.5455E-2);
#6=COLOUR_RGB('',6.35294E-1,6.86275E-1,7.4902E-1);
#7=COLOUR_RGB('',6.40777E-1,6.40777E-1,6.40777E-1);
#8=COLOUR_RGB('',6.69062E-1,6.69903E-1,6.55217E-1);
#9=COLOUR_RGB('',9.21569E-1,7.05882E-1,4.70588E-1);
#10=COLOUR_RGB('',9.843137254902E-1,9.843137254902E-1,8.980392156863E-1);
#11=DRAUGHTING_PRE_DEFINED_COLOUR('red');
#12=DRAUGHTING_PRE_DEFINED_COLOUR('yellow');
#13=COLOUR_RGB('',1.E0,1.E0,5.3E-1);
#14=COLOUR_RGB('',1.E0,1.E0,9.49E-1);
#15=DRAUGHTING_PRE_DEFINED_COLOUR('white');
#20=CIRCLE('',#19,1.574803149606E-2);
#25=CIRCLE('',#24,1.574803149606E-2);
#38=CIRCLE('',#37,1.574803149606E-2);
#43=CIRCLE('',#42,1.574803149606E-2);
#185=EDGE_CURVE('',#179,#175,#20,.T.);
#187=EDGE_CURVE('',#175,#179,#25,.T.);
#191=ADVANCED_FACE('',(#190),#184,.F.);
#204=EDGE_CURVE('',#174,#178,#43,.T.);
#206=EDGE_CURVE('',#178,#179,#29,.T.);
#209=EDGE_CURVE('',#174,#175,#33,.T.);
#213=ADVANCED_FACE('',(#212),#203,.F.);
#226=EDGE_CURVE('',#147,#165,#47,.T.);
#228=EDGE_CURVE('',#155,#147,#51,.T.);
#230=EDGE_CURVE('',#153,#155,#55,.T.);
#232=EDGE_CURVE('',#151,#153,#59,.T.);
#234=EDGE_CURVE('',#150,#151,#63,.T.);
#236=EDGE_CURVE('',#171,#150,#67,.T.);
#238=EDGE_CURVE('',#168,#171,#71,.T.);
#240=EDGE_CURVE('',#165,#168,#75,.T.);
#244=EDGE_CURVE('',#178,#174,#38,.T.);
#249=ADVANCED_FACE('',(#243,#248),#225,.F.);
#268=ADVANCED_FACE('',(#267),#261,.F.);
#281=EDGE_CURVE('',#143,#145,#79,.T.);
#283=EDGE_CURVE('',#147,#143,#83,.T.);
#286=EDGE_CURVE('',#165,#145,#91,.T.);
#290=ADVANCED_FACE('',(#289),#280,.T.);
#304=EDGE_CURVE('',#145,#169,#87,.T.);
#306=EDGE_CURVE('',#169,#163,#95,.T.);
#308=EDGE_CURVE('',#163,#161,#103,.T.);
#310=EDGE_CURVE('',#161,#159,#111,.T.);
#312=EDGE_CURVE('',#159,#157,#119,.T.);
#314=EDGE_CURVE('',#157,#142,#127,.T.);
#316=EDGE_CURVE('',#142,#143,#139,.T.);
#320=ADVANCED_FACE('',(#319),#302,.T.);
#336=EDGE_CURVE('',#168,#169,#99,.T.);
#340=ADVANCED_FACE('',(#339),#332,.T.);
#356=EDGE_CURVE('',#171,#163,#107,.T.);
#360=ADVANCED_FACE('',(#359),#352,.T.);
#376=EDGE_CURVE('',#150,#161,#115,.T.);
#380=ADVANCED_FACE('',(#379),#372,.T.);
#396=EDGE_CURVE('',#151,#159,#123,.T.);
#400=ADVANCED_FACE('',(#399),#392,.T.);
#416=EDGE_CURVE('',#153,#157,#131,.T.);
#420=ADVANCED_FACE('',(#419),#412,.T.);
#436=EDGE_CURVE('',#142,#155,#135,.T.);
#440=ADVANCED_FACE('',(#439),#432,.T.);
#459=ADVANCED_FACE('',(#458),#452,.T.);
#467=CLOSED_SHELL('',(#191,#213,#249,#268,#290,#320,#340,#360,#380,#400,#420,
#440,#459));
#468=MANIFOLD_SOLID_BREP('',#467);
#470=(LENGTH_UNIT()NAMED_UNIT(*)SI_UNIT(.MILLI.,.METRE.));
#473=(NAMED_UNIT(*)PLANE_ANGLE_UNIT()SI_UNIT($,.RADIAN.));
#476=(NAMED_UNIT(*)SI_UNIT($,.STERADIAN.)SOLID_ANGLE_UNIT());
#478=(GEOMETRIC_REPRESENTATION_CONTEXT(3)GLOBAL_UNCERTAINTY_ASSIGNED_CONTEXT((
#477))GLOBAL_UNIT_ASSIGNED_CONTEXT((#472,#475,#476))REPRESENTATION_CONTEXT
('ID1','3'));
#482=AXIS2_PLACEMENT_3D('',#479,#480,#481);
#483=ADVANCED_BREP_SHAPE_REPRESENTATION('',(#482,#468),#478);
#491=PRODUCT_DEFINITION('design','',#490,#487);
#492=PRODUCT_DEFINITION_SHAPE('','SHAPE FOR FPC-6-4004.',#491);
#493=SHAPE_ASPECT('','solid data associated with FPC-6-4004',#492,.F.);
#494=PROPERTY_DEFINITION('',
'shape for solid data with which properties are associated',#493);
#495=SHAPE_REPRESENTATION('',(#468),#478);
#496=SHAPE_DEFINITION_REPRESENTATION(#494,#495);
#497=(LENGTH_UNIT()NAMED_UNIT(*)SI_UNIT(.MILLI.,.METRE.));
#503=PROPERTY_DEFINITION('geometric validation property','area of FPC-6-4004',
#493);
#504=REPRESENTATION('surface area',(#502),#478);
#505=PROPERTY_DEFINITION_REPRESENTATION(#503,#504);
#506=(LENGTH_UNIT()NAMED_UNIT(*)SI_UNIT(.MILLI.,.METRE.));
#512=PROPERTY_DEFINITION('geometric validation property','volume of FPC-6-4004',
#493);
#513=REPRESENTATION('volume',(#511),#478);
#514=PROPERTY_DEFINITION_REPRESENTATION(#512,#513);
#516=PROPERTY_DEFINITION('geometric validation property',
'centroid of FPC-6-4004',#493);
#517=REPRESENTATION('centroid',(#515),#478);
#518=PROPERTY_DEFINITION_REPRESENTATION(#516,#517);
#519=(LENGTH_UNIT()NAMED_UNIT(*)SI_UNIT(.MILLI.,.METRE.));
#525=PROPERTY_DEFINITION('geometric validation property','area of FPC-6-4004',
#492);
#526=REPRESENTATION('surface area',(#524),#478);
#527=PROPERTY_DEFINITION_REPRESENTATION(#525,#526);
#528=(LENGTH_UNIT()NAMED_UNIT(*)SI_UNIT(.MILLI.,.METRE.));
#534=PROPERTY_DEFINITION('geometric validation property','volume of FPC-6-4004',
#492);
#535=REPRESENTATION('volume',(#533),#478);
#536=PROPERTY_DEFINITION_REPRESENTATION(#534,#535);
#538=PROPERTY_DEFINITION('geometric validation property',
'centroid of FPC-6-4004',#492);
#539=REPRESENTATION('centroid',(#537),#478);
#540=PROPERTY_DEFINITION_REPRESENTATION(#538,#539);
#541=SHAPE_DEFINITION_REPRESENTATION(#492,#483);
ENDSEC;
END-ISO-10303-21;
