ISO-10303-21;
HEADER;
FILE_DESCRIPTION((''),'2;1');
FILE_NAME('FPC-40-3648','2026-06-15T13:46:01',('Esia'),(''),
'CREO PARAMETRIC BY PTC INC, 2025102','CREO PARAMETRIC BY PTC INC, 2025102','');
FILE_SCHEMA((
'AP242_MANAGED_MODEL_BASED_3D_ENGINEERING_MIM_LF { 1 0 10303 442 1 1 4 }'));
ENDSEC;
DATA;
#16=CARTESIAN_POINT('',(-7.874015748031E-2,-1.574803149606E-1,
5.511811023622E-2));
#17=DIRECTION('',(1.E0,0.E0,0.E0));
#18=DIRECTION('',(0.E0,0.E0,-1.E0));
#19=AXIS2_PLACEMENT_3D('',#16,#17,#18);
#21=CARTESIAN_POINT('',(-7.874015748031E-2,-1.574803149606E-1,
5.511811023622E-2));
#22=DIRECTION('',(1.E0,0.E0,0.E0));
#23=DIRECTION('',(0.E0,0.E0,1.E0));
#24=AXIS2_PLACEMENT_3D('',#21,#22,#23);
#26=DIRECTION('',(1.E0,0.E0,0.E0));
#27=VECTOR('',#26,7.874015748031E-3);
#28=CARTESIAN_POINT('',(-7.874015748031E-2,-1.574803149606E-1,
3.937007874016E-2));
#29=LINE('',#28,#27);
#30=DIRECTION('',(1.E0,0.E0,0.E0));
#31=VECTOR('',#30,7.874015748031E-3);
#32=CARTESIAN_POINT('',(-7.874015748031E-2,-1.574803149606E-1,
7.086614173228E-2));
#33=LINE('',#32,#31);
#34=CARTESIAN_POINT('',(-7.086614173228E-2,-1.574803149606E-1,
5.511811023622E-2));
#35=DIRECTION('',(-1.E0,0.E0,0.E0));
#36=DIRECTION('',(0.E0,0.E0,-1.E0));
#37=AXIS2_PLACEMENT_3D('',#34,#35,#36);
#39=CARTESIAN_POINT('',(-7.086614173228E-2,-1.574803149606E-1,
5.511811023622E-2));
#40=DIRECTION('',(-1.E0,0.E0,0.E0));
#41=DIRECTION('',(0.E0,0.E0,1.E0));
#42=AXIS2_PLACEMENT_3D('',#39,#40,#41);
#44=DIRECTION('',(0.E0,0.E0,-1.E0));
#45=VECTOR('',#44,6.299212598425E-2);
#46=CARTESIAN_POINT('',(-7.086614173228E-2,-2.066929133858E-1,
8.267716535433E-2));
#47=LINE('',#46,#45);
#48=DIRECTION('',(0.E0,-1.E0,0.E0));
#49=VECTOR('',#48,1.771653543307E-1);
#50=CARTESIAN_POINT('',(-7.086614173228E-2,-2.952755905512E-2,
8.267716535433E-2));
#51=LINE('',#50,#49);
#52=DIRECTION('',(0.E0,0.E0,1.E0));
#53=VECTOR('',#52,7.480314960630E-2);
#54=CARTESIAN_POINT('',(-7.086614173228E-2,-2.952755905512E-2,
7.874015748031E-3));
#55=LINE('',#54,#53);
#56=DIRECTION('',(0.E0,1.E0,0.E0));
#57=VECTOR('',#56,1.771653543307E-1);
#58=CARTESIAN_POINT('',(-7.086614173228E-2,-2.066929133858E-1,
7.874015748031E-3));
#59=LINE('',#58,#57);
#60=DIRECTION('',(0.E0,0.E0,-1.E0));
#61=VECTOR('',#60,5.905511811024E-3);
#62=CARTESIAN_POINT('',(-7.086614173228E-2,-2.066929133858E-1,
1.377952755906E-2));
#63=LINE('',#62,#61);
#64=DIRECTION('',(0.E0,-1.E0,0.E0));
#65=VECTOR('',#64,1.279527559055E-1);
#66=CARTESIAN_POINT('',(-7.086614173228E-2,-7.874015748031E-2,
1.377952755906E-2));
#67=LINE('',#66,#65);
#68=DIRECTION('',(0.E0,0.E0,-1.E0));
#69=VECTOR('',#68,5.905511811024E-3);
#70=CARTESIAN_POINT('',(-7.086614173228E-2,-7.874015748031E-2,
1.968503937008E-2));
#71=LINE('',#70,#69);
#72=DIRECTION('',(0.E0,1.E0,0.E0));
#73=VECTOR('',#72,1.279527559055E-1);
#74=CARTESIAN_POINT('',(-7.086614173228E-2,-2.066929133858E-1,
1.968503937008E-2));
#75=LINE('',#74,#73);
#76=DIRECTION('',(1.E0,0.E0,0.E0));
#77=VECTOR('',#76,1.574803149606E-2);
#78=CARTESIAN_POINT('',(-8.661417322835E-2,-2.066929133858E-1,
1.968503937008E-2));
#79=LINE('',#78,#77);
#80=DIRECTION('',(0.E0,0.E0,-1.E0));
#81=VECTOR('',#80,6.299212598425E-2);
#82=CARTESIAN_POINT('',(-8.661417322835E-2,-2.066929133858E-1,
8.267716535433E-2));
#83=LINE('',#82,#81);
#84=DIRECTION('',(0.E0,1.E0,0.E0));
#85=VECTOR('',#84,1.279527559055E-1);
#86=CARTESIAN_POINT('',(-8.661417322835E-2,-2.066929133858E-1,
1.968503937008E-2));
#87=LINE('',#86,#85);
#88=DIRECTION('',(1.E0,0.E0,0.E0));
#89=VECTOR('',#88,1.574803149606E-2);
#90=CARTESIAN_POINT('',(-8.661417322835E-2,-7.874015748031E-2,
1.377952755906E-2));
#91=LINE('',#90,#89);
#92=DIRECTION('',(0.E0,0.E0,-1.E0));
#93=VECTOR('',#92,5.905511811024E-3);
#94=CARTESIAN_POINT('',(-8.661417322835E-2,-7.874015748031E-2,
1.968503937008E-2));
#95=LINE('',#94,#93);
#96=DIRECTION('',(-1.E0,0.E0,0.E0));
#97=VECTOR('',#96,1.574803149606E-2);
#98=CARTESIAN_POINT('',(-7.086614173228E-2,-7.874015748031E-2,
1.968503937008E-2));
#99=LINE('',#98,#97);
#100=DIRECTION('',(1.E0,0.E0,0.E0));
#101=VECTOR('',#100,1.574803149606E-2);
#102=CARTESIAN_POINT('',(-8.661417322835E-2,-2.066929133858E-1,
1.377952755906E-2));
#103=LINE('',#102,#101);
#104=DIRECTION('',(0.E0,-1.E0,0.E0));
#105=VECTOR('',#104,1.279527559055E-1);
#106=CARTESIAN_POINT('',(-8.661417322835E-2,-7.874015748031E-2,
1.377952755906E-2));
#107=LINE('',#106,#105);
#108=DIRECTION('',(1.E0,0.E0,0.E0));
#109=VECTOR('',#108,1.574803149606E-2);
#110=CARTESIAN_POINT('',(-8.661417322835E-2,-2.066929133858E-1,
7.874015748031E-3));
#111=LINE('',#110,#109);
#112=DIRECTION('',(0.E0,0.E0,-1.E0));
#113=VECTOR('',#112,5.905511811024E-3);
#114=CARTESIAN_POINT('',(-8.661417322835E-2,-2.066929133858E-1,
1.377952755906E-2));
#115=LINE('',#114,#113);
#116=DIRECTION('',(1.E0,0.E0,0.E0));
#117=VECTOR('',#116,1.574803149606E-2);
#118=CARTESIAN_POINT('',(-8.661417322835E-2,-2.952755905512E-2,
7.874015748031E-3));
#119=LINE('',#118,#117);
#120=DIRECTION('',(0.E0,1.E0,0.E0));
#121=VECTOR('',#120,1.771653543307E-1);
#122=CARTESIAN_POINT('',(-8.661417322835E-2,-2.066929133858E-1,
7.874015748031E-3));
#123=LINE('',#122,#121);
#124=DIRECTION('',(1.E0,0.E0,0.E0));
#125=VECTOR('',#124,1.574803149606E-2);
#126=CARTESIAN_POINT('',(-8.661417322835E-2,-2.952755905512E-2,
8.267716535433E-2));
#127=LINE('',#126,#125);
#128=DIRECTION('',(0.E0,0.E0,1.E0));
#129=VECTOR('',#128,7.480314960630E-2);
#130=CARTESIAN_POINT('',(-8.661417322835E-2,-2.952755905512E-2,
7.874015748031E-3));
#131=LINE('',#130,#129);
#132=DIRECTION('',(1.E0,0.E0,0.E0));
#133=VECTOR('',#132,1.574803149606E-2);
#134=CARTESIAN_POINT('',(-8.661417322835E-2,-2.066929133858E-1,
8.267716535433E-2));
#135=LINE('',#134,#133);
#136=DIRECTION('',(0.E0,-1.E0,0.E0));
#137=VECTOR('',#136,1.771653543307E-1);
#138=CARTESIAN_POINT('',(-8.661417322835E-2,-2.952755905512E-2,
8.267716535433E-2));
#139=LINE('',#138,#137);
#140=CARTESIAN_POINT('',(-8.661417322835E-2,-2.066929133858E-1,
1.968503937008E-2));
#141=CARTESIAN_POINT('',(-8.661417322835E-2,-7.874015748031E-2,
1.968503937008E-2));
#142=VERTEX_POINT('',#140);
#143=VERTEX_POINT('',#141);
#144=CARTESIAN_POINT('',(-8.661417322835E-2,-2.066929133858E-1,
8.267716535433E-2));
#145=VERTEX_POINT('',#144);
#146=CARTESIAN_POINT('',(-7.086614173228E-2,-2.066929133858E-1,
1.968503937008E-2));
#147=VERTEX_POINT('',#146);
#148=CARTESIAN_POINT('',(-7.086614173228E-2,-2.066929133858E-1,
1.377952755906E-2));
#149=CARTESIAN_POINT('',(-7.086614173228E-2,-2.066929133858E-1,
7.874015748031E-3));
#150=VERTEX_POINT('',#148);
#151=VERTEX_POINT('',#149);
#152=CARTESIAN_POINT('',(-7.086614173228E-2,-7.874015748031E-2,
1.377952755906E-2));
#153=VERTEX_POINT('',#152);
#154=CARTESIAN_POINT('',(-8.661417322835E-2,-7.874015748031E-2,
1.377952755906E-2));
#155=VERTEX_POINT('',#154);
#156=CARTESIAN_POINT('',(-8.661417322835E-2,-2.066929133858E-1,
1.377952755906E-2));
#157=VERTEX_POINT('',#156);
#158=CARTESIAN_POINT('',(-7.086614173228E-2,-7.874015748031E-2,
1.968503937008E-2));
#159=VERTEX_POINT('',#158);
#160=CARTESIAN_POINT('',(-7.086614173228E-2,-2.952755905512E-2,
7.874015748031E-3));
#161=VERTEX_POINT('',#160);
#162=CARTESIAN_POINT('',(-8.661417322835E-2,-2.066929133858E-1,
7.874015748031E-3));
#163=VERTEX_POINT('',#162);
#164=CARTESIAN_POINT('',(-8.661417322835E-2,-2.952755905512E-2,
7.874015748031E-3));
#165=VERTEX_POINT('',#164);
#166=CARTESIAN_POINT('',(-7.086614173228E-2,-2.952755905512E-2,
8.267716535433E-2));
#167=VERTEX_POINT('',#166);
#168=CARTESIAN_POINT('',(-7.086614173228E-2,-2.066929133858E-1,
8.267716535433E-2));
#169=VERTEX_POINT('',#168);
#170=CARTESIAN_POINT('',(-8.661417322835E-2,-2.952755905512E-2,
8.267716535433E-2));
#171=VERTEX_POINT('',#170);
#172=CARTESIAN_POINT('',(-7.874015748031E-2,-1.574803149606E-1,
7.086614173228E-2));
#173=CARTESIAN_POINT('',(-7.086614173228E-2,-1.574803149606E-1,
7.086614173228E-2));
#174=VERTEX_POINT('',#172);
#175=VERTEX_POINT('',#173);
#176=CARTESIAN_POINT('',(-7.874015748031E-2,-1.574803149606E-1,
3.937007874016E-2));
#177=CARTESIAN_POINT('',(-7.086614173228E-2,-1.574803149606E-1,
3.937007874016E-2));
#178=VERTEX_POINT('',#176);
#179=VERTEX_POINT('',#177);
#180=CARTESIAN_POINT('',(-7.874015748031E-2,0.E0,0.E0));
#181=DIRECTION('',(1.E0,0.E0,0.E0));
#182=DIRECTION('',(0.E0,0.E0,-1.E0));
#183=AXIS2_PLACEMENT_3D('',#180,#181,#182);
#184=PLANE('',#183);
#186=ORIENTED_EDGE('',*,*,#185,.F.);
#188=ORIENTED_EDGE('',*,*,#187,.F.);
#189=EDGE_LOOP('',(#186,#188));
#190=FACE_OUTER_BOUND('',#189,.F.);
#192=FILL_AREA_STYLE_COLOUR('',#10);
#193=FILL_AREA_STYLE('',(#192));
#194=SURFACE_STYLE_FILL_AREA(#193);
#195=SURFACE_SIDE_STYLE('',(#194));
#196=SURFACE_STYLE_USAGE(.BOTH.,#195);
#197=PRESENTATION_STYLE_ASSIGNMENT((#196));
#198=STYLED_ITEM('',(#197),#191);
#199=CARTESIAN_POINT('',(-7.874015748031E-2,-1.574803149606E-1,
5.511811023622E-2));
#200=DIRECTION('',(1.E0,0.E0,0.E0));
#201=DIRECTION('',(0.E0,0.E0,-1.E0));
#202=AXIS2_PLACEMENT_3D('',#199,#200,#201);
#203=CYLINDRICAL_SURFACE('',#202,1.574803149606E-2);
#204=ORIENTED_EDGE('',*,*,#185,.T.);
#206=ORIENTED_EDGE('',*,*,#205,.T.);
#208=ORIENTED_EDGE('',*,*,#207,.T.);
#210=ORIENTED_EDGE('',*,*,#209,.F.);
#211=EDGE_LOOP('',(#204,#206,#208,#210));
#212=FACE_OUTER_BOUND('',#211,.F.);
#214=FILL_AREA_STYLE_COLOUR('',#10);
#215=FILL_AREA_STYLE('',(#214));
#216=SURFACE_STYLE_FILL_AREA(#215);
#217=SURFACE_SIDE_STYLE('',(#216));
#218=SURFACE_STYLE_USAGE(.BOTH.,#217);
#219=PRESENTATION_STYLE_ASSIGNMENT((#218));
#220=STYLED_ITEM('',(#219),#213);
#221=CARTESIAN_POINT('',(-7.874015748031E-2,-1.574803149606E-1,
5.511811023622E-2));
#222=DIRECTION('',(1.E0,0.E0,0.E0));
#223=DIRECTION('',(0.E0,0.E0,-1.E0));
#224=AXIS2_PLACEMENT_3D('',#221,#222,#223);
#225=CYLINDRICAL_SURFACE('',#224,1.574803149606E-2);
#226=ORIENTED_EDGE('',*,*,#187,.T.);
#227=ORIENTED_EDGE('',*,*,#209,.T.);
#229=ORIENTED_EDGE('',*,*,#228,.T.);
#230=ORIENTED_EDGE('',*,*,#205,.F.);
#231=EDGE_LOOP('',(#226,#227,#229,#230));
#232=FACE_OUTER_BOUND('',#231,.F.);
#234=FILL_AREA_STYLE_COLOUR('',#10);
#235=FILL_AREA_STYLE('',(#234));
#236=SURFACE_STYLE_FILL_AREA(#235);
#237=SURFACE_SIDE_STYLE('',(#236));
#238=SURFACE_STYLE_USAGE(.BOTH.,#237);
#239=PRESENTATION_STYLE_ASSIGNMENT((#238));
#240=STYLED_ITEM('',(#239),#233);
#241=CARTESIAN_POINT('',(-7.086614173228E-2,0.E0,0.E0));
#242=DIRECTION('',(1.E0,0.E0,0.E0));
#243=DIRECTION('',(0.E0,0.E0,-1.E0));
#244=AXIS2_PLACEMENT_3D('',#241,#242,#243);
#245=PLANE('',#244);
#247=ORIENTED_EDGE('',*,*,#246,.F.);
#249=ORIENTED_EDGE('',*,*,#248,.F.);
#251=ORIENTED_EDGE('',*,*,#250,.F.);
#253=ORIENTED_EDGE('',*,*,#252,.F.);
#255=ORIENTED_EDGE('',*,*,#254,.F.);
#257=ORIENTED_EDGE('',*,*,#256,.F.);
#259=ORIENTED_EDGE('',*,*,#258,.F.);
#261=ORIENTED_EDGE('',*,*,#260,.F.);
#262=EDGE_LOOP('',(#247,#249,#251,#253,#255,#257,#259,#261));
#263=FACE_OUTER_BOUND('',#262,.F.);
#264=ORIENTED_EDGE('',*,*,#228,.F.);
#265=ORIENTED_EDGE('',*,*,#207,.F.);
#266=EDGE_LOOP('',(#264,#265));
#267=FACE_BOUND('',#266,.F.);
#269=FILL_AREA_STYLE_COLOUR('',#10);
#270=FILL_AREA_STYLE('',(#269));
#271=SURFACE_STYLE_FILL_AREA(#270);
#272=SURFACE_SIDE_STYLE('',(#271));
#273=SURFACE_STYLE_USAGE(.BOTH.,#272);
#274=PRESENTATION_STYLE_ASSIGNMENT((#273));
#275=STYLED_ITEM('',(#274),#268);
#276=CARTESIAN_POINT('',(-8.661417322835E-2,-2.066929133858E-1,
8.267716535433E-2));
#277=DIRECTION('',(0.E0,-1.E0,0.E0));
#278=DIRECTION('',(0.E0,0.E0,-1.E0));
#279=AXIS2_PLACEMENT_3D('',#276,#277,#278);
#280=PLANE('',#279);
#281=ORIENTED_EDGE('',*,*,#246,.T.);
#283=ORIENTED_EDGE('',*,*,#282,.F.);
#285=ORIENTED_EDGE('',*,*,#284,.F.);
#287=ORIENTED_EDGE('',*,*,#286,.T.);
#288=EDGE_LOOP('',(#281,#283,#285,#287));
#289=FACE_OUTER_BOUND('',#288,.F.);
#291=FILL_AREA_STYLE_COLOUR('',#10);
#292=FILL_AREA_STYLE('',(#291));
#293=SURFACE_STYLE_FILL_AREA(#292);
#294=SURFACE_SIDE_STYLE('',(#293));
#295=SURFACE_STYLE_USAGE(.BOTH.,#294);
#296=PRESENTATION_STYLE_ASSIGNMENT((#295));
#297=STYLED_ITEM('',(#296),#290);
#298=CARTESIAN_POINT('',(-8.661417322835E-2,-2.066929133858E-1,
1.968503937008E-2));
#299=DIRECTION('',(0.E0,0.E0,-1.E0));
#300=DIRECTION('',(-1.E0,0.E0,0.E0));
#301=AXIS2_PLACEMENT_3D('',#298,#299,#300);
#302=PLANE('',#301);
#303=ORIENTED_EDGE('',*,*,#260,.T.);
#305=ORIENTED_EDGE('',*,*,#304,.T.);
#307=ORIENTED_EDGE('',*,*,#306,.F.);
#308=ORIENTED_EDGE('',*,*,#282,.T.);
#309=EDGE_LOOP('',(#303,#305,#307,#308));
#310=FACE_OUTER_BOUND('',#309,.F.);
#312=FILL_AREA_STYLE_COLOUR('',#10);
#313=FILL_AREA_STYLE('',(#312));
#314=SURFACE_STYLE_FILL_AREA(#313);
#315=SURFACE_SIDE_STYLE('',(#314));
#316=SURFACE_STYLE_USAGE(.BOTH.,#315);
#317=PRESENTATION_STYLE_ASSIGNMENT((#316));
#318=STYLED_ITEM('',(#317),#311);
#319=CARTESIAN_POINT('',(-8.661417322835E-2,-7.874015748031E-2,
1.968503937008E-2));
#320=DIRECTION('',(0.E0,-1.E0,0.E0));
#321=DIRECTION('',(0.E0,0.E0,-1.E0));
#322=AXIS2_PLACEMENT_3D('',#319,#320,#321);
#323=PLANE('',#322);
#324=ORIENTED_EDGE('',*,*,#258,.T.);
#326=ORIENTED_EDGE('',*,*,#325,.F.);
#328=ORIENTED_EDGE('',*,*,#327,.F.);
#329=ORIENTED_EDGE('',*,*,#304,.F.);
#330=EDGE_LOOP('',(#324,#326,#328,#329));
#331=FACE_OUTER_BOUND('',#330,.F.);
#333=FILL_AREA_STYLE_COLOUR('',#10);
#334=FILL_AREA_STYLE('',(#333));
#335=SURFACE_STYLE_FILL_AREA(#334);
#336=SURFACE_SIDE_STYLE('',(#335));
#337=SURFACE_STYLE_USAGE(.BOTH.,#336);
#338=PRESENTATION_STYLE_ASSIGNMENT((#337));
#339=STYLED_ITEM('',(#338),#332);
#340=CARTESIAN_POINT('',(-8.661417322835E-2,-7.874015748031E-2,
1.377952755906E-2));
#341=DIRECTION('',(0.E0,0.E0,1.E0));
#342=DIRECTION('',(1.E0,0.E0,0.E0));
#343=AXIS2_PLACEMENT_3D('',#340,#341,#342);
#344=PLANE('',#343);
#345=ORIENTED_EDGE('',*,*,#256,.T.);
#347=ORIENTED_EDGE('',*,*,#346,.F.);
#349=ORIENTED_EDGE('',*,*,#348,.F.);
#350=ORIENTED_EDGE('',*,*,#325,.T.);
#351=EDGE_LOOP('',(#345,#347,#349,#350));
#352=FACE_OUTER_BOUND('',#351,.F.);
#354=FILL_AREA_STYLE_COLOUR('',#10);
#355=FILL_AREA_STYLE('',(#354));
#356=SURFACE_STYLE_FILL_AREA(#355);
#357=SURFACE_SIDE_STYLE('',(#356));
#358=SURFACE_STYLE_USAGE(.BOTH.,#357);
#359=PRESENTATION_STYLE_ASSIGNMENT((#358));
#360=STYLED_ITEM('',(#359),#353);
#361=CARTESIAN_POINT('',(-8.661417322835E-2,-2.066929133858E-1,
1.377952755906E-2));
#362=DIRECTION('',(0.E0,-1.E0,0.E0));
#363=DIRECTION('',(0.E0,0.E0,-1.E0));
#364=AXIS2_PLACEMENT_3D('',#361,#362,#363);
#365=PLANE('',#364);
#366=ORIENTED_EDGE('',*,*,#254,.T.);
#368=ORIENTED_EDGE('',*,*,#367,.F.);
#370=ORIENTED_EDGE('',*,*,#369,.F.);
#371=ORIENTED_EDGE('',*,*,#346,.T.);
#372=EDGE_LOOP('',(#366,#368,#370,#371));
#373=FACE_OUTER_BOUND('',#372,.F.);
#375=FILL_AREA_STYLE_COLOUR('',#10);
#376=FILL_AREA_STYLE('',(#375));
#377=SURFACE_STYLE_FILL_AREA(#376);
#378=SURFACE_SIDE_STYLE('',(#377));
#379=SURFACE_STYLE_USAGE(.BOTH.,#378);
#380=PRESENTATION_STYLE_ASSIGNMENT((#379));
#381=STYLED_ITEM('',(#380),#374);
#382=CARTESIAN_POINT('',(-8.661417322835E-2,-2.066929133858E-1,
7.874015748031E-3));
#383=DIRECTION('',(0.E0,0.E0,-1.E0));
#384=DIRECTION('',(-1.E0,0.E0,0.E0));
#385=AXIS2_PLACEMENT_3D('',#382,#383,#384);
#386=PLANE('',#385);
#387=ORIENTED_EDGE('',*,*,#252,.T.);
#389=ORIENTED_EDGE('',*,*,#388,.F.);
#391=ORIENTED_EDGE('',*,*,#390,.F.);
#392=ORIENTED_EDGE('',*,*,#367,.T.);
#393=EDGE_LOOP('',(#387,#389,#391,#392));
#394=FACE_OUTER_BOUND('',#393,.F.);
#396=FILL_AREA_STYLE_COLOUR('',#10);
#397=FILL_AREA_STYLE('',(#396));
#398=SURFACE_STYLE_FILL_AREA(#397);
#399=SURFACE_SIDE_STYLE('',(#398));
#400=SURFACE_STYLE_USAGE(.BOTH.,#399);
#401=PRESENTATION_STYLE_ASSIGNMENT((#400));
#402=STYLED_ITEM('',(#401),#395);
#403=CARTESIAN_POINT('',(-8.661417322835E-2,-2.952755905512E-2,
7.874015748031E-3));
#404=DIRECTION('',(0.E0,1.E0,0.E0));
#405=DIRECTION('',(0.E0,0.E0,1.E0));
#406=AXIS2_PLACEMENT_3D('',#403,#404,#405);
#407=PLANE('',#406);
#408=ORIENTED_EDGE('',*,*,#250,.T.);
#410=ORIENTED_EDGE('',*,*,#409,.F.);
#412=ORIENTED_EDGE('',*,*,#411,.F.);
#413=ORIENTED_EDGE('',*,*,#388,.T.);
#414=EDGE_LOOP('',(#408,#410,#412,#413));
#415=FACE_OUTER_BOUND('',#414,.F.);
#417=FILL_AREA_STYLE_COLOUR('',#10);
#418=FILL_AREA_STYLE('',(#417));
#419=SURFACE_STYLE_FILL_AREA(#418);
#420=SURFACE_SIDE_STYLE('',(#419));
#421=SURFACE_STYLE_USAGE(.BOTH.,#420);
#422=PRESENTATION_STYLE_ASSIGNMENT((#421));
#423=STYLED_ITEM('',(#422),#416);
#424=CARTESIAN_POINT('',(-8.661417322835E-2,-2.952755905512E-2,
8.267716535433E-2));
#425=DIRECTION('',(0.E0,0.E0,1.E0));
#426=DIRECTION('',(0.E0,-1.E0,0.E0));
#427=AXIS2_PLACEMENT_3D('',#424,#425,#426);
#428=PLANE('',#427);
#429=ORIENTED_EDGE('',*,*,#248,.T.);
#430=ORIENTED_EDGE('',*,*,#286,.F.);
#432=ORIENTED_EDGE('',*,*,#431,.F.);
#433=ORIENTED_EDGE('',*,*,#409,.T.);
#434=EDGE_LOOP('',(#429,#430,#432,#433));
#435=FACE_OUTER_BOUND('',#434,.F.);
#437=FILL_AREA_STYLE_COLOUR('',#10);
#438=FILL_AREA_STYLE('',(#437));
#439=SURFACE_STYLE_FILL_AREA(#438);
#440=SURFACE_SIDE_STYLE('',(#439));
#441=SURFACE_STYLE_USAGE(.BOTH.,#440);
#442=PRESENTATION_STYLE_ASSIGNMENT((#441));
#443=STYLED_ITEM('',(#442),#436);
#444=CARTESIAN_POINT('',(-8.661417322835E-2,0.E0,0.E0));
#445=DIRECTION('',(1.E0,0.E0,0.E0));
#446=DIRECTION('',(0.E0,0.E0,-1.E0));
#447=AXIS2_PLACEMENT_3D('',#444,#445,#446);
#448=PLANE('',#447);
#449=ORIENTED_EDGE('',*,*,#284,.T.);
#450=ORIENTED_EDGE('',*,*,#306,.T.);
#451=ORIENTED_EDGE('',*,*,#327,.T.);
#452=ORIENTED_EDGE('',*,*,#348,.T.);
#453=ORIENTED_EDGE('',*,*,#369,.T.);
#454=ORIENTED_EDGE('',*,*,#390,.T.);
#455=ORIENTED_EDGE('',*,*,#411,.T.);
#456=ORIENTED_EDGE('',*,*,#431,.T.);
#457=EDGE_LOOP('',(#449,#450,#451,#452,#453,#454,#455,#456));
#458=FACE_OUTER_BOUND('',#457,.F.);
#460=FILL_AREA_STYLE_COLOUR('',#10);
#461=FILL_AREA_STYLE('',(#460));
#462=SURFACE_STYLE_FILL_AREA(#461);
#463=SURFACE_SIDE_STYLE('',(#462));
#464=SURFACE_STYLE_USAGE(.BOTH.,#463);
#465=PRESENTATION_STYLE_ASSIGNMENT((#464));
#466=STYLED_ITEM('',(#465),#459);
#469=PRESENTATION_LAYER_ASSIGNMENT('SHELL_892','',(#191,#213,#233,#268,#290,
#311,#332,#353,#374,#395,#416,#436,#459,#468));
#471=LENGTH_MEASURE_WITH_UNIT(LENGTH_MEASURE(2.54E1),#470);
#472=(CONVERSION_BASED_UNIT('INCH',#471)LENGTH_UNIT()NAMED_UNIT(*));
#474=PLANE_ANGLE_MEASURE_WITH_UNIT(PLANE_ANGLE_MEASURE(1.745329251994E-2),#473);
#475=(CONVERSION_BASED_UNIT('DEGREE',#474)NAMED_UNIT(*)PLANE_ANGLE_UNIT());
#477=UNCERTAINTY_MEASURE_WITH_UNIT(LENGTH_MEASURE(1.102474662876E-4),#472,
'closure',
'Maximum model space distance between geometric entities at asserted connectivities');
#479=CARTESIAN_POINT('',(0.E0,0.E0,0.E0));
#480=DIRECTION('',(0.E0,0.E0,1.E0));
#481=DIRECTION('',(1.E0,0.E0,0.E0));
#484=MECHANICAL_DESIGN_GEOMETRIC_PRESENTATION_REPRESENTATION('',(#198,#220,#240,
#275,#297,#318,#339,#360,#381,#402,#423,#443,#466),#478);
#485=APPLICATION_CONTEXT('automotive design');
#486=APPLICATION_PROTOCOL_DEFINITION('international standard',
'config_control_design',1994,#485);
#487=PRODUCT_DEFINITION_CONTEXT('',#485,'design');
#488=PRODUCT_CONTEXT('',#485,'mechanical');
#489=PRODUCT('FPC-40-3648','FPC-40-3648','NOT SPECIFIED',(#488));
#490=PRODUCT_DEFINITION_FORMATION_WITH_SPECIFIED_SOURCE('1','LAST_VERSION',#489,
.MADE.);
#498=LENGTH_MEASURE_WITH_UNIT(LENGTH_MEASURE(2.54E1),#497);
#499=(CONVERSION_BASED_UNIT('INCH',#498)LENGTH_UNIT()NAMED_UNIT(*));
#500=DERIVED_UNIT_ELEMENT(#499,2.E0);
#501=AREA_UNIT((#500));
#502=MEASURE_REPRESENTATION_ITEM('surface area measure',AREA_MEASURE(
2.434765482457E-5),#501);
#507=LENGTH_MEASURE_WITH_UNIT(LENGTH_MEASURE(2.54E1),#506);
#508=(CONVERSION_BASED_UNIT('INCH',#507)LENGTH_UNIT()NAMED_UNIT(*));
#509=DERIVED_UNIT_ELEMENT(#508,3.E0);
#510=VOLUME_UNIT((#509));
#511=MEASURE_REPRESENTATION_ITEM('volume measure',VOLUME_MEASURE(
3.124469031913E-9),#510);
#515=CARTESIAN_POINT('centre point',(-2.003217537721E-3,-2.928817996529E-3,
1.187203844815E-3));
#520=LENGTH_MEASURE_WITH_UNIT(LENGTH_MEASURE(2.54E1),#519);
#521=(CONVERSION_BASED_UNIT('INCH',#520)LENGTH_UNIT()NAMED_UNIT(*));
#522=DERIVED_UNIT_ELEMENT(#521,2.E0);
#523=AREA_UNIT((#522));
#524=MEASURE_REPRESENTATION_ITEM('surface area measure',AREA_MEASURE(
2.434765482457E-5),#523);
#529=LENGTH_MEASURE_WITH_UNIT(LENGTH_MEASURE(2.54E1),#528);
#530=(CONVERSION_BASED_UNIT('INCH',#529)LENGTH_UNIT()NAMED_UNIT(*));
#531=DERIVED_UNIT_ELEMENT(#530,3.E0);
#532=VOLUME_UNIT((#531));
#533=MEASURE_REPRESENTATION_ITEM('volume measure',VOLUME_MEASURE(
3.124469031913E-9),#532);
#537=CARTESIAN_POINT('centre point',(-2.003217537721E-3,-2.928817996529E-3,
1.187203844815E-3));
#1=DRAUGHTING_PRE_DEFINED_COLOUR('green');
#2=COLOUR_RGB('',1.1E-2,1.2E-2,1.E0);
#3=COLOUR_RGB('',2.352941176471E-1,2.352941176471E-1,2.352941176471E-1);
#4=COLOUR_RGB('',4.1E-1,2.61589E-1,1.12848E-1);
#5=COLOUR_RGB('',5.04854E-1,1.5455E-2,1.5455E-2);
#6=COLOUR_RGB('',6.35294E-1,6.86275E-1,7.4902E-1);
#7=COLOUR_RGB('',6.40777E-1,6.40777E-1,6.40777E-1);
#8=COLOUR_RGB('',6.69062E-1,6.69903E-1,6.55217E-1);
#9=COLOUR_RGB('',9.21569E-1,7.05882E-1,4.70588E-1);
#10=COLOUR_RGB('',9.843137254902E-1,9.843137254902E-1,8.980392156863E-1);
#11=DRAUGHTING_PRE_DEFINED_COLOUR('red');
#12=DRAUGHTING_PRE_DEFINED_COLOUR('yellow');
#13=COLOUR_RGB('',1.E0,1.E0,5.3E-1);
#14=COLOUR_RGB('',1.E0,1.E0,9.49E-1);
#15=DRAUGHTING_PRE_DEFINED_COLOUR('white');
#20=CIRCLE('',#19,1.574803149606E-2);
#25=CIRCLE('',#24,1.574803149606E-2);
#38=CIRCLE('',#37,1.574803149606E-2);
#43=CIRCLE('',#42,1.574803149606E-2);
#185=EDGE_CURVE('',#178,#174,#20,.T.);
#187=EDGE_CURVE('',#174,#178,#25,.T.);
#191=ADVANCED_FACE('',(#190),#184,.T.);
#205=EDGE_CURVE('',#174,#175,#33,.T.);
#207=EDGE_CURVE('',#175,#179,#43,.T.);
#209=EDGE_CURVE('',#178,#179,#29,.T.);
#213=ADVANCED_FACE('',(#212),#203,.F.);
#228=EDGE_CURVE('',#179,#175,#38,.T.);
#233=ADVANCED_FACE('',(#232),#225,.F.);
#246=EDGE_CURVE('',#169,#147,#47,.T.);
#248=EDGE_CURVE('',#167,#169,#51,.T.);
#250=EDGE_CURVE('',#161,#167,#55,.T.);
#252=EDGE_CURVE('',#151,#161,#59,.T.);
#254=EDGE_CURVE('',#150,#151,#63,.T.);
#256=EDGE_CURVE('',#153,#150,#67,.T.);
#258=EDGE_CURVE('',#159,#153,#71,.T.);
#260=EDGE_CURVE('',#147,#159,#75,.T.);
#268=ADVANCED_FACE('',(#263,#267),#245,.T.);
#282=EDGE_CURVE('',#142,#147,#79,.T.);
#284=EDGE_CURVE('',#145,#142,#83,.T.);
#286=EDGE_CURVE('',#145,#169,#135,.T.);
#290=ADVANCED_FACE('',(#289),#280,.T.);
#304=EDGE_CURVE('',#159,#143,#99,.T.);
#306=EDGE_CURVE('',#142,#143,#87,.T.);
#311=ADVANCED_FACE('',(#310),#302,.T.);
#325=EDGE_CURVE('',#155,#153,#91,.T.);
#327=EDGE_CURVE('',#143,#155,#95,.T.);
#332=ADVANCED_FACE('',(#331),#323,.T.);
#346=EDGE_CURVE('',#157,#150,#103,.T.);
#348=EDGE_CURVE('',#155,#157,#107,.T.);
#353=ADVANCED_FACE('',(#352),#344,.T.);
#367=EDGE_CURVE('',#163,#151,#111,.T.);
#369=EDGE_CURVE('',#157,#163,#115,.T.);
#374=ADVANCED_FACE('',(#373),#365,.T.);
#388=EDGE_CURVE('',#165,#161,#119,.T.);
#390=EDGE_CURVE('',#163,#165,#123,.T.);
#395=ADVANCED_FACE('',(#394),#386,.T.);
#409=EDGE_CURVE('',#171,#167,#127,.T.);
#411=EDGE_CURVE('',#165,#171,#131,.T.);
#416=ADVANCED_FACE('',(#415),#407,.T.);
#431=EDGE_CURVE('',#171,#145,#139,.T.);
#436=ADVANCED_FACE('',(#435),#428,.T.);
#459=ADVANCED_FACE('',(#458),#448,.F.);
#467=CLOSED_SHELL('',(#191,#213,#233,#268,#290,#311,#332,#353,#374,#395,#416,
#436,#459));
#468=MANIFOLD_SOLID_BREP('',#467);
#470=(LENGTH_UNIT()NAMED_UNIT(*)SI_UNIT(.MILLI.,.METRE.));
#473=(NAMED_UNIT(*)PLANE_ANGLE_UNIT()SI_UNIT($,.RADIAN.));
#476=(NAMED_UNIT(*)SI_UNIT($,.STERADIAN.)SOLID_ANGLE_UNIT());
#478=(GEOMETRIC_REPRESENTATION_CONTEXT(3)GLOBAL_UNCERTAINTY_ASSIGNED_CONTEXT((
#477))GLOBAL_UNIT_ASSIGNED_CONTEXT((#472,#475,#476))REPRESENTATION_CONTEXT
('ID1','3'));
#482=AXIS2_PLACEMENT_3D('',#479,#480,#481);
#483=ADVANCED_BREP_SHAPE_REPRESENTATION('',(#482,#468),#478);
#491=PRODUCT_DEFINITION('design','',#490,#487);
#492=PRODUCT_DEFINITION_SHAPE('','SHAPE FOR FPC-40-3648.',#491);
#493=SHAPE_ASPECT('','solid data associated with FPC-40-3648',#492,.F.);
#494=PROPERTY_DEFINITION('',
'shape for solid data with which properties are associated',#493);
#495=SHAPE_REPRESENTATION('',(#468),#478);
#496=SHAPE_DEFINITION_REPRESENTATION(#494,#495);
#497=(LENGTH_UNIT()NAMED_UNIT(*)SI_UNIT(.MILLI.,.METRE.));
#503=PROPERTY_DEFINITION('geometric validation property','area of FPC-40-3648',
#493);
#504=REPRESENTATION('surface area',(#502),#478);
#505=PROPERTY_DEFINITION_REPRESENTATION(#503,#504);
#506=(LENGTH_UNIT()NAMED_UNIT(*)SI_UNIT(.MILLI.,.METRE.));
#512=PROPERTY_DEFINITION('geometric validation property',
'volume of FPC-40-3648',#493);
#513=REPRESENTATION('volume',(#511),#478);
#514=PROPERTY_DEFINITION_REPRESENTATION(#512,#513);
#516=PROPERTY_DEFINITION('geometric validation property',
'centroid of FPC-40-3648',#493);
#517=REPRESENTATION('centroid',(#515),#478);
#518=PROPERTY_DEFINITION_REPRESENTATION(#516,#517);
#519=(LENGTH_UNIT()NAMED_UNIT(*)SI_UNIT(.MILLI.,.METRE.));
#525=PROPERTY_DEFINITION('geometric validation property','area of FPC-40-3648',
#492);
#526=REPRESENTATION('surface area',(#524),#478);
#527=PROPERTY_DEFINITION_REPRESENTATION(#525,#526);
#528=(LENGTH_UNIT()NAMED_UNIT(*)SI_UNIT(.MILLI.,.METRE.));
#534=PROPERTY_DEFINITION('geometric validation property',
'volume of FPC-40-3648',#492);
#535=REPRESENTATION('volume',(#533),#478);
#536=PROPERTY_DEFINITION_REPRESENTATION(#534,#535);
#538=PROPERTY_DEFINITION('geometric validation property',
'centroid of FPC-40-3648',#492);
#539=REPRESENTATION('centroid',(#537),#478);
#540=PROPERTY_DEFINITION_REPRESENTATION(#538,#539);
#541=SHAPE_DEFINITION_REPRESENTATION(#492,#483);
ENDSEC;
END-ISO-10303-21;
