ISO-10303-21;
HEADER;
FILE_DESCRIPTION((''),'2;1');
FILE_NAME('FPC-40-3742','2026-06-15T13:46:02',('Esia'),(''),
'CREO PARAMETRIC BY PTC INC, 2025102','CREO PARAMETRIC BY PTC INC, 2025102','');
FILE_SCHEMA((
'AP242_MANAGED_MODEL_BASED_3D_ENGINEERING_MIM_LF { 1 0 10303 442 1 1 4 }'));
ENDSEC;
DATA;
#16=DIRECTION('',(0.E0,-1.E0,0.E0));
#17=VECTOR('',#16,7.086614173228E-2);
#18=CARTESIAN_POINT('',(-6.496062992126E-2,-1.358267716535E-1,
7.874015748031E-3));
#19=LINE('',#18,#17);
#20=DIRECTION('',(0.E0,-1.E0,0.E0));
#21=VECTOR('',#20,3.543307086614E-2);
#22=CARTESIAN_POINT('',(-6.496062992126E-2,-1.003937007874E-1,
7.874015748031E-3));
#23=LINE('',#22,#21);
#24=DIRECTION('',(0.E0,-1.E0,0.E0));
#25=VECTOR('',#24,7.086614173228E-2);
#26=CARTESIAN_POINT('',(-6.496062992126E-2,-2.952755905512E-2,
7.874015748031E-3));
#27=LINE('',#26,#25);
#28=DIRECTION('',(0.E0,0.E0,-1.E0));
#29=VECTOR('',#28,2.362204724409E-2);
#30=CARTESIAN_POINT('',(-6.496062992126E-2,-2.952755905512E-2,
3.149606299213E-2));
#31=LINE('',#30,#29);
#32=DIRECTION('',(0.E0,1.E0,0.E0));
#33=VECTOR('',#32,1.771653543307E-1);
#34=CARTESIAN_POINT('',(-6.496062992126E-2,-2.066929133858E-1,
3.149606299213E-2));
#35=LINE('',#34,#33);
#36=DIRECTION('',(0.E0,0.E0,1.E0));
#37=VECTOR('',#36,2.362204724409E-2);
#38=CARTESIAN_POINT('',(-6.496062992126E-2,-2.066929133858E-1,
7.874015748031E-3));
#39=LINE('',#38,#37);
#40=DIRECTION('',(0.E0,-1.E0,0.E0));
#41=VECTOR('',#40,7.086614173228E-2);
#42=CARTESIAN_POINT('',(-3.779527559055E-2,-1.358267716535E-1,
7.874015748031E-3));
#43=LINE('',#42,#41);
#44=DIRECTION('',(1.E0,0.E0,0.E0));
#45=VECTOR('',#44,2.716535433071E-2);
#46=CARTESIAN_POINT('',(-6.496062992126E-2,-1.358267716535E-1,
7.874015748031E-3));
#47=LINE('',#46,#45);
#48=DIRECTION('',(0.E0,0.E0,1.E0));
#49=VECTOR('',#48,2.362204724409E-2);
#50=CARTESIAN_POINT('',(-3.779527559055E-2,-2.066929133858E-1,
7.874015748031E-3));
#51=LINE('',#50,#49);
#52=DIRECTION('',(1.E0,0.E0,0.E0));
#53=VECTOR('',#52,2.716535433071E-2);
#54=CARTESIAN_POINT('',(-6.496062992126E-2,-2.066929133858E-1,
7.874015748031E-3));
#55=LINE('',#54,#53);
#56=DIRECTION('',(0.E0,0.E0,-1.E0));
#57=VECTOR('',#56,7.874015748032E-4);
#58=CARTESIAN_POINT('',(-3.779527559055E-2,-1.003937007874E-1,
8.661417322835E-3));
#59=LINE('',#58,#57);
#60=DIRECTION('',(0.E0,0.E0,1.E0));
#61=VECTOR('',#60,7.874015748031E-4);
#62=CARTESIAN_POINT('',(-3.779527559055E-2,-1.358267716535E-1,
7.874015748031E-3));
#63=LINE('',#62,#61);
#64=DIRECTION('',(0.E0,1.E0,0.E0));
#65=VECTOR('',#64,1.771653543307E-1);
#66=CARTESIAN_POINT('',(-3.779527559055E-2,-2.066929133858E-1,
3.149606299213E-2));
#67=LINE('',#66,#65);
#68=DIRECTION('',(1.E0,0.E0,0.E0));
#69=VECTOR('',#68,2.716535433071E-2);
#70=CARTESIAN_POINT('',(-6.496062992126E-2,-2.066929133858E-1,
3.149606299213E-2));
#71=LINE('',#70,#69);
#72=DIRECTION('',(0.E0,0.E0,-1.E0));
#73=VECTOR('',#72,2.362204724409E-2);
#74=CARTESIAN_POINT('',(-3.779527559055E-2,-2.952755905512E-2,
3.149606299213E-2));
#75=LINE('',#74,#73);
#76=DIRECTION('',(1.E0,0.E0,0.E0));
#77=VECTOR('',#76,2.716535433071E-2);
#78=CARTESIAN_POINT('',(-6.496062992126E-2,-2.952755905512E-2,
3.149606299213E-2));
#79=LINE('',#78,#77);
#80=DIRECTION('',(0.E0,-1.E0,0.E0));
#81=VECTOR('',#80,7.086614173228E-2);
#82=CARTESIAN_POINT('',(-3.779527559055E-2,-2.952755905512E-2,
7.874015748031E-3));
#83=LINE('',#82,#81);
#84=DIRECTION('',(1.E0,0.E0,0.E0));
#85=VECTOR('',#84,2.716535433071E-2);
#86=CARTESIAN_POINT('',(-6.496062992126E-2,-2.952755905512E-2,
7.874015748031E-3));
#87=LINE('',#86,#85);
#88=DIRECTION('',(-1.E0,0.E0,0.E0));
#89=VECTOR('',#88,2.716535433071E-2);
#90=CARTESIAN_POINT('',(-3.779527559055E-2,-1.003937007874E-1,
7.874015748031E-3));
#91=LINE('',#90,#89);
#92=CARTESIAN_POINT('',(-3.937007874016E-2,-1.003937007874E-1,
9.842519685039E-3));
#93=DIRECTION('',(0.E0,1.E0,0.E0));
#94=DIRECTION('',(8.400127910508E-1,0.E0,-5.425665957936E-1));
#95=AXIS2_PLACEMENT_3D('',#92,#93,#94);
#97=DIRECTION('',(8.400127910508E-1,0.E0,-5.425665957936E-1));
#98=VECTOR('',#97,7.874015748031E-3);
#99=CARTESIAN_POINT('',(-3.771651025384E-2,-1.003937007874E-1,
8.774475205131E-3));
#100=LINE('',#99,#98);
#101=DIRECTION('',(0.E0,-1.E0,0.E0));
#102=VECTOR('',#101,1.043307086614E-1);
#103=CARTESIAN_POINT('',(-2.952755905512E-2,-3.149606299213E-2,
9.842519685039E-3));
#104=LINE('',#103,#102);
#105=DIRECTION('',(0.E0,1.E0,0.E0));
#106=VECTOR('',#105,6.889763779528E-2);
#107=CARTESIAN_POINT('',(-3.110223630856E-2,-1.003937007874E-1,
4.502297285496E-3));
#108=LINE('',#107,#106);
#109=DIRECTION('',(0.E0,1.E0,0.E0));
#110=VECTOR('',#109,3.543307086614E-2);
#111=CARTESIAN_POINT('',(-3.937007874016E-2,-1.358267716535E-1,0.E0));
#112=LINE('',#111,#110);
#113=DIRECTION('',(0.E0,7.071067811865E-1,-7.071067811865E-1));
#114=VECTOR('',#113,2.997691566057E-3);
#115=CARTESIAN_POINT('',(-2.952755905512E-2,-1.281039400028E-1,
7.298582976655E-2));
#116=LINE('',#115,#114);
#117=DIRECTION('',(1.E0,0.E0,0.E0));
#118=VECTOR('',#117,7.874015748031E-3);
#119=CARTESIAN_POINT('',(-3.740157480315E-2,-3.149606299213E-2,
7.298582976655E-2));
#120=LINE('',#119,#118);
#121=CARTESIAN_POINT('',(-3.937007874016E-2,-3.149606299213E-2,
9.842519685039E-3));
#122=DIRECTION('',(0.E0,-1.E0,0.E0));
#123=DIRECTION('',(8.400127910508E-1,0.E0,-5.425665957936E-1));
#124=AXIS2_PLACEMENT_3D('',#121,#122,#123);
#126=DIRECTION('',(-8.400127910508E-1,0.E0,5.425665957936E-1));
#127=VECTOR('',#126,7.874015748032E-3);
#128=CARTESIAN_POINT('',(-3.110223630856E-2,-3.149606299213E-2,
4.502297285496E-3));
#129=LINE('',#128,#127);
#130=CARTESIAN_POINT('',(-3.937007874016E-2,-3.149606299213E-2,
9.842519685039E-3));
#131=DIRECTION('',(0.E0,1.E0,0.E0));
#132=DIRECTION('',(1.E0,0.E0,0.E0));
#133=AXIS2_PLACEMENT_3D('',#130,#131,#132);
#135=DIRECTION('',(0.E0,0.E0,-1.E0));
#136=VECTOR('',#135,6.314331008151E-2);
#137=CARTESIAN_POINT('',(-2.952755905512E-2,-3.149606299213E-2,
7.298582976655E-2));
#138=LINE('',#137,#136);
#139=DIRECTION('',(0.E0,1.E0,0.E0));
#140=VECTOR('',#139,9.660787701064E-2);
#141=CARTESIAN_POINT('',(-2.952755905512E-2,-1.281039400028E-1,
7.298582976655E-2));
#142=LINE('',#141,#140);
#143=DIRECTION('',(1.E0,0.E0,0.E0));
#144=VECTOR('',#143,7.874015748031E-3);
#145=CARTESIAN_POINT('',(-3.740157480315E-2,-1.259842519685E-1,
7.086614173228E-2));
#146=LINE('',#145,#144);
#147=DIRECTION('',(-1.E0,0.E0,0.E0));
#148=VECTOR('',#147,7.874015748031E-3);
#149=CARTESIAN_POINT('',(-2.952755905512E-2,-1.281039400028E-1,
7.298582976655E-2));
#150=LINE('',#149,#148);
#151=DIRECTION('',(1.E0,0.E0,0.E0));
#152=VECTOR('',#151,7.874015748031E-3);
#153=CARTESIAN_POINT('',(-3.740157480315E-2,-1.259842519685E-1,
3.149606299213E-2));
#154=LINE('',#153,#152);
#155=DIRECTION('',(0.E0,0.E0,1.E0));
#156=VECTOR('',#155,3.937007874016E-2);
#157=CARTESIAN_POINT('',(-2.952755905512E-2,-1.259842519685E-1,
3.149606299213E-2));
#158=LINE('',#157,#156);
#159=DIRECTION('',(0.E0,1.E0,0.E0));
#160=VECTOR('',#159,9.842519685039E-3);
#161=CARTESIAN_POINT('',(-2.952755905512E-2,-1.358267716535E-1,
3.149606299213E-2));
#162=LINE('',#161,#160);
#163=DIRECTION('',(1.E0,0.E0,0.E0));
#164=VECTOR('',#163,7.874015748031E-3);
#165=CARTESIAN_POINT('',(-3.740157480315E-2,-1.358267716535E-1,
3.149606299213E-2));
#166=LINE('',#165,#164);
#167=DIRECTION('',(0.E0,0.E0,1.E0));
#168=VECTOR('',#167,2.165354330709E-2);
#169=CARTESIAN_POINT('',(-2.952755905512E-2,-1.358267716535E-1,
9.842519685039E-3));
#170=LINE('',#169,#168);
#171=CARTESIAN_POINT('',(-3.937007874016E-2,-1.358267716535E-1,
9.842519685039E-3));
#172=DIRECTION('',(0.E0,-1.E0,0.E0));
#173=DIRECTION('',(0.E0,0.E0,-1.E0));
#174=AXIS2_PLACEMENT_3D('',#171,#172,#173);
#176=CARTESIAN_POINT('',(-3.937007874016E-2,-1.358267716535E-1,
9.842519685039E-3));
#177=DIRECTION('',(0.E0,1.E0,0.E0));
#178=DIRECTION('',(1.E0,0.E0,0.E0));
#179=AXIS2_PLACEMENT_3D('',#176,#177,#178);
#181=DIRECTION('',(0.E0,1.E0,0.E0));
#182=VECTOR('',#181,9.660787701064E-2);
#183=CARTESIAN_POINT('',(-3.740157480315E-2,-1.281039400028E-1,
7.298582976655E-2));
#184=LINE('',#183,#182);
#185=DIRECTION('',(0.E0,-7.071067811865E-1,7.071067811865E-1));
#186=VECTOR('',#185,2.997691566057E-3);
#187=CARTESIAN_POINT('',(-3.740157480315E-2,-1.259842519685E-1,
7.086614173228E-2));
#188=LINE('',#187,#186);
#189=DIRECTION('',(0.E0,0.E0,1.E0));
#190=VECTOR('',#189,3.937007874016E-2);
#191=CARTESIAN_POINT('',(-3.740157480315E-2,-1.259842519685E-1,
3.149606299213E-2));
#192=LINE('',#191,#190);
#193=DIRECTION('',(0.E0,1.E0,0.E0));
#194=VECTOR('',#193,9.842519685039E-3);
#195=CARTESIAN_POINT('',(-3.740157480315E-2,-1.358267716535E-1,
3.149606299213E-2));
#196=LINE('',#195,#194);
#197=DIRECTION('',(0.E0,0.E0,1.E0));
#198=VECTOR('',#197,2.165354330709E-2);
#199=CARTESIAN_POINT('',(-3.740157480315E-2,-1.358267716535E-1,
9.842519685039E-3));
#200=LINE('',#199,#198);
#201=DIRECTION('',(0.E0,0.E0,-1.E0));
#202=VECTOR('',#201,6.314331008151E-2);
#203=CARTESIAN_POINT('',(-3.740157480315E-2,-3.149606299213E-2,
7.298582976655E-2));
#204=LINE('',#203,#202);
#205=DIRECTION('',(0.E0,-1.E0,0.E0));
#206=VECTOR('',#205,3.543307086614E-2);
#207=CARTESIAN_POINT('',(-3.779527559055E-2,-1.003937007874E-1,
8.661417322835E-3));
#208=LINE('',#207,#206);
#209=CARTESIAN_POINT('',(-3.937007874016E-2,-1.003937007874E-1,
9.842519685039E-3));
#210=DIRECTION('',(0.E0,1.E0,0.E0));
#211=DIRECTION('',(8.400127910508E-1,0.E0,-5.425665957936E-1));
#212=AXIS2_PLACEMENT_3D('',#209,#210,#211);
#214=DIRECTION('',(0.E0,-1.E0,0.E0));
#215=VECTOR('',#214,6.889763779528E-2);
#216=CARTESIAN_POINT('',(-3.771651025384E-2,-3.149606299213E-2,
8.774475205131E-3));
#217=LINE('',#216,#215);
#218=DIRECTION('',(0.E0,1.E0,0.E0));
#219=VECTOR('',#218,1.043307086614E-1);
#220=CARTESIAN_POINT('',(-3.740157480315E-2,-1.358267716535E-1,
9.842519685039E-3));
#221=LINE('',#220,#219);
#222=CARTESIAN_POINT('',(-8.448017628018E-2,-1.062992125984E-1,0.E0));
#223=DIRECTION('',(0.E0,0.E0,-1.E0));
#224=DIRECTION('',(0.E0,-1.E0,0.E0));
#225=AXIS2_PLACEMENT_3D('',#222,#223,#224);
#227=CARTESIAN_POINT('',(-8.448017628018E-2,-1.181102362205E-1,0.E0));
#228=DIRECTION('',(0.E0,0.E0,1.E0));
#229=DIRECTION('',(1.E0,0.E0,0.E0));
#230=AXIS2_PLACEMENT_3D('',#227,#228,#229);
#232=CARTESIAN_POINT('',(-8.448017628018E-2,-1.181102362205E-1,0.E0));
#233=DIRECTION('',(0.E0,0.E0,1.E0));
#234=DIRECTION('',(0.E0,-1.E0,0.E0));
#235=AXIS2_PLACEMENT_3D('',#232,#233,#234);
#237=CARTESIAN_POINT('',(-8.448017628018E-2,-1.299212598425E-1,0.E0));
#238=DIRECTION('',(0.E0,0.E0,-1.E0));
#239=DIRECTION('',(-1.E0,0.E0,0.E0));
#240=AXIS2_PLACEMENT_3D('',#237,#238,#239);
#242=CARTESIAN_POINT('',(-8.448017628018E-2,-1.299212598425E-1,0.E0));
#243=DIRECTION('',(0.E0,0.E0,-1.E0));
#244=DIRECTION('',(0.E0,-1.E0,0.E0));
#245=AXIS2_PLACEMENT_3D('',#242,#243,#244);
#247=DIRECTION('',(-1.E0,0.E0,0.E0));
#248=VECTOR('',#247,4.511009754003E-2);
#249=CARTESIAN_POINT('',(-3.937007874016E-2,-1.358267716535E-1,0.E0));
#250=LINE('',#249,#248);
#251=DIRECTION('',(1.E0,0.E0,0.E0));
#252=VECTOR('',#251,4.511009754003E-2);
#253=CARTESIAN_POINT('',(-8.448017628018E-2,-1.003937007874E-1,0.E0));
#254=LINE('',#253,#252);
#255=CARTESIAN_POINT('',(-8.448017628018E-2,-1.062992125984E-1,0.E0));
#256=DIRECTION('',(0.E0,0.E0,-1.E0));
#257=DIRECTION('',(-1.E0,0.E0,0.E0));
#258=AXIS2_PLACEMENT_3D('',#255,#256,#257);
#260=DIRECTION('',(0.E0,0.E0,-1.E0));
#261=VECTOR('',#260,7.874015748032E-3);
#262=CARTESIAN_POINT('',(-8.448017628018E-2,-1.003937007874E-1,
7.874015748031E-3));
#263=LINE('',#262,#261);
#264=DIRECTION('',(-1.E0,0.E0,0.E0));
#265=VECTOR('',#264,1.951954635892E-2);
#266=CARTESIAN_POINT('',(-6.496062992126E-2,-1.003937007874E-1,
7.874015748031E-3));
#267=LINE('',#266,#265);
#268=DIRECTION('',(1.E0,0.E0,0.E0));
#269=VECTOR('',#268,1.951954635892E-2);
#270=CARTESIAN_POINT('',(-8.448017628018E-2,-1.358267716535E-1,
7.874015748031E-3));
#271=LINE('',#270,#269);
#272=CARTESIAN_POINT('',(-8.448017628018E-2,-1.299212598425E-1,
7.874015748031E-3));
#273=DIRECTION('',(0.E0,0.E0,1.E0));
#274=DIRECTION('',(-1.E0,0.E0,0.E0));
#275=AXIS2_PLACEMENT_3D('',#272,#273,#274);
#277=CARTESIAN_POINT('',(-8.448017628018E-2,-1.299212598425E-1,
7.874015748031E-3));
#278=DIRECTION('',(0.E0,0.E0,1.E0));
#279=DIRECTION('',(0.E0,1.E0,0.E0));
#280=AXIS2_PLACEMENT_3D('',#277,#278,#279);
#282=CARTESIAN_POINT('',(-8.448017628018E-2,-1.181102362205E-1,
7.874015748031E-3));
#283=DIRECTION('',(0.E0,0.E0,-1.E0));
#284=DIRECTION('',(1.E0,0.E0,0.E0));
#285=AXIS2_PLACEMENT_3D('',#282,#283,#284);
#287=CARTESIAN_POINT('',(-8.448017628018E-2,-1.181102362205E-1,
7.874015748031E-3));
#288=DIRECTION('',(0.E0,0.E0,-1.E0));
#289=DIRECTION('',(0.E0,1.E0,0.E0));
#290=AXIS2_PLACEMENT_3D('',#287,#288,#289);
#292=CARTESIAN_POINT('',(-8.448017628018E-2,-1.062992125984E-1,
7.874015748031E-3));
#293=DIRECTION('',(0.E0,0.E0,1.E0));
#294=DIRECTION('',(-1.E0,0.E0,0.E0));
#295=AXIS2_PLACEMENT_3D('',#292,#293,#294);
#297=CARTESIAN_POINT('',(-8.448017628018E-2,-1.062992125984E-1,
7.874015748031E-3));
#298=DIRECTION('',(0.E0,0.E0,1.E0));
#299=DIRECTION('',(3.994952516943E-14,1.E0,0.E0));
#300=AXIS2_PLACEMENT_3D('',#297,#298,#299);
#302=DIRECTION('',(0.E0,0.E0,-1.E0));
#303=VECTOR('',#302,7.874015748032E-3);
#304=CARTESIAN_POINT('',(-8.448017628018E-2,-1.240157480315E-1,
7.874015748031E-3));
#305=LINE('',#304,#303);
#306=DIRECTION('',(0.E0,0.E0,1.E0));
#307=VECTOR('',#306,7.874015748032E-3);
#308=CARTESIAN_POINT('',(-8.448017628018E-2,-1.358267716535E-1,0.E0));
#309=LINE('',#308,#307);
#310=DIRECTION('',(0.E0,0.E0,-1.E0));
#311=VECTOR('',#310,7.874015748032E-3);
#312=CARTESIAN_POINT('',(-8.448017628018E-2,-1.122047244094E-1,
7.874015748031E-3));
#313=LINE('',#312,#311);
#314=CARTESIAN_POINT('',(-2.952755905512E-2,-1.281039400028E-1,
7.298582976655E-2));
#315=CARTESIAN_POINT('',(-2.952755905512E-2,-3.149606299213E-2,
7.298582976655E-2));
#316=VERTEX_POINT('',#314);
#317=VERTEX_POINT('',#315);
#318=CARTESIAN_POINT('',(-9.038568809121E-2,-1.299212598425E-1,
7.874015748031E-3));
#319=CARTESIAN_POINT('',(-8.448017628018E-2,-1.358267716535E-1,
7.874015748031E-3));
#320=VERTEX_POINT('',#318);
#321=VERTEX_POINT('',#319);
#322=CARTESIAN_POINT('',(-8.448017628018E-2,-1.240157480315E-1,
7.874015748031E-3));
#323=VERTEX_POINT('',#322);
#324=CARTESIAN_POINT('',(-2.952755905512E-2,-3.149606299213E-2,
9.842519685039E-3));
#325=VERTEX_POINT('',#324);
#326=CARTESIAN_POINT('',(-3.740157480315E-2,-3.149606299213E-2,
7.298582976655E-2));
#327=VERTEX_POINT('',#326);
#328=CARTESIAN_POINT('',(-6.496062992126E-2,-1.358267716535E-1,
7.874015748031E-3));
#329=VERTEX_POINT('',#328);
#330=CARTESIAN_POINT('',(-7.857466446916E-2,-1.181102362205E-1,
7.874015748031E-3));
#331=VERTEX_POINT('',#330);
#332=CARTESIAN_POINT('',(-8.448017628018E-2,-1.122047244094E-1,
7.874015748031E-3));
#333=VERTEX_POINT('',#332);
#334=CARTESIAN_POINT('',(-8.448017628018E-2,-1.240157480315E-1,0.E0));
#335=VERTEX_POINT('',#334);
#336=CARTESIAN_POINT('',(-6.496062992126E-2,-2.066929133858E-1,
7.874015748031E-3));
#337=VERTEX_POINT('',#336);
#338=CARTESIAN_POINT('',(-8.448017628018E-2,-1.358267716535E-1,0.E0));
#339=VERTEX_POINT('',#338);
#340=CARTESIAN_POINT('',(-9.038568809121E-2,-1.299212598425E-1,0.E0));
#341=VERTEX_POINT('',#340);
#342=CARTESIAN_POINT('',(-3.779527559055E-2,-1.003937007874E-1,
8.661417322835E-3));
#343=CARTESIAN_POINT('',(-3.779527559055E-2,-1.358267716535E-1,
8.661417322835E-3));
#344=VERTEX_POINT('',#342);
#345=VERTEX_POINT('',#343);
#346=CARTESIAN_POINT('',(-3.779527559055E-2,-1.358267716535E-1,
7.874015748031E-3));
#347=VERTEX_POINT('',#346);
#348=CARTESIAN_POINT('',(-6.496062992126E-2,-1.003937007874E-1,
7.874015748031E-3));
#349=CARTESIAN_POINT('',(-8.448017628018E-2,-1.003937007874E-1,
7.874015748031E-3));
#350=VERTEX_POINT('',#348);
#351=VERTEX_POINT('',#349);
#352=CARTESIAN_POINT('',(-8.448017628018E-2,-1.003937007874E-1,0.E0));
#353=VERTEX_POINT('',#352);
#354=CARTESIAN_POINT('',(-3.779527559055E-2,-2.066929133858E-1,
7.874015748031E-3));
#355=VERTEX_POINT('',#354);
#356=CARTESIAN_POINT('',(-3.779527559055E-2,-2.066929133858E-1,
3.149606299213E-2));
#357=VERTEX_POINT('',#356);
#358=CARTESIAN_POINT('',(-6.496062992126E-2,-2.066929133858E-1,
3.149606299213E-2));
#359=VERTEX_POINT('',#358);
#360=CARTESIAN_POINT('',(-3.779527559055E-2,-2.952755905512E-2,
3.149606299213E-2));
#361=VERTEX_POINT('',#360);
#362=CARTESIAN_POINT('',(-3.779527559055E-2,-2.952755905512E-2,
7.874015748031E-3));
#363=VERTEX_POINT('',#362);
#364=CARTESIAN_POINT('',(-6.496062992126E-2,-2.952755905512E-2,
3.149606299213E-2));
#365=VERTEX_POINT('',#364);
#366=CARTESIAN_POINT('',(-3.779527559055E-2,-1.003937007874E-1,
7.874015748031E-3));
#367=VERTEX_POINT('',#366);
#368=CARTESIAN_POINT('',(-6.496062992126E-2,-2.952755905512E-2,
7.874015748031E-3));
#369=VERTEX_POINT('',#368);
#370=CARTESIAN_POINT('',(-3.937007874016E-2,-1.358267716535E-1,0.E0));
#371=CARTESIAN_POINT('',(-2.952755905512E-2,-1.358267716535E-1,
9.842519685039E-3));
#372=VERTEX_POINT('',#370);
#373=VERTEX_POINT('',#371);
#374=CARTESIAN_POINT('',(-3.740157480315E-2,-3.149606299213E-2,
9.842519685039E-3));
#375=VERTEX_POINT('',#374);
#376=CARTESIAN_POINT('',(-3.110223630856E-2,-3.149606299213E-2,
4.502297285496E-3));
#377=VERTEX_POINT('',#376);
#378=CARTESIAN_POINT('',(-3.110223630856E-2,-1.003937007874E-1,
4.502297285496E-3));
#379=VERTEX_POINT('',#378);
#380=CARTESIAN_POINT('',(-3.937007874016E-2,-1.003937007874E-1,0.E0));
#381=VERTEX_POINT('',#380);
#382=CARTESIAN_POINT('',(-3.771651025384E-2,-3.149606299213E-2,
8.774475205131E-3));
#383=VERTEX_POINT('',#382);
#384=CARTESIAN_POINT('',(-3.740157480315E-2,-1.358267716535E-1,
9.842519685039E-3));
#385=VERTEX_POINT('',#384);
#386=CARTESIAN_POINT('',(-3.771651025384E-2,-1.003937007874E-1,
8.774475205131E-3));
#387=VERTEX_POINT('',#386);
#388=CARTESIAN_POINT('',(-8.448017628018E-2,-1.122047244094E-1,0.E0));
#389=CARTESIAN_POINT('',(-9.038568809121E-2,-1.062992125984E-1,0.E0));
#390=VERTEX_POINT('',#388);
#391=VERTEX_POINT('',#389);
#392=CARTESIAN_POINT('',(-7.857466446916E-2,-1.181102362205E-1,0.E0));
#393=VERTEX_POINT('',#392);
#394=CARTESIAN_POINT('',(-9.038568809121E-2,-1.062992125984E-1,
7.874015748031E-3));
#395=VERTEX_POINT('',#394);
#396=CARTESIAN_POINT('',(-3.740157480315E-2,-1.281039400028E-1,
7.298582976655E-2));
#397=VERTEX_POINT('',#396);
#398=CARTESIAN_POINT('',(-2.952755905512E-2,-1.259842519685E-1,
7.086614173228E-2));
#399=VERTEX_POINT('',#398);
#400=CARTESIAN_POINT('',(-2.952755905512E-2,-1.259842519685E-1,
3.149606299213E-2));
#401=VERTEX_POINT('',#400);
#402=CARTESIAN_POINT('',(-3.740157480315E-2,-1.259842519685E-1,
7.086614173228E-2));
#403=VERTEX_POINT('',#402);
#404=CARTESIAN_POINT('',(-3.740157480315E-2,-1.259842519685E-1,
3.149606299213E-2));
#405=VERTEX_POINT('',#404);
#406=CARTESIAN_POINT('',(-2.952755905512E-2,-1.358267716535E-1,
3.149606299213E-2));
#407=VERTEX_POINT('',#406);
#408=CARTESIAN_POINT('',(-3.740157480315E-2,-1.358267716535E-1,
3.149606299213E-2));
#409=VERTEX_POINT('',#408);
#410=CARTESIAN_POINT('',(-6.496062992126E-2,0.E0,0.E0));
#411=DIRECTION('',(1.E0,0.E0,0.E0));
#412=DIRECTION('',(0.E0,0.E0,-1.E0));
#413=AXIS2_PLACEMENT_3D('',#410,#411,#412);
#414=PLANE('',#413);
#416=ORIENTED_EDGE('',*,*,#415,.F.);
#418=ORIENTED_EDGE('',*,*,#417,.F.);
#420=ORIENTED_EDGE('',*,*,#419,.F.);
#422=ORIENTED_EDGE('',*,*,#421,.F.);
#424=ORIENTED_EDGE('',*,*,#423,.F.);
#426=ORIENTED_EDGE('',*,*,#425,.F.);
#427=EDGE_LOOP('',(#416,#418,#420,#422,#424,#426));
#428=FACE_OUTER_BOUND('',#427,.F.);
#430=FILL_AREA_STYLE_COLOUR('',#10);
#431=FILL_AREA_STYLE('',(#430));
#432=SURFACE_STYLE_FILL_AREA(#431);
#433=SURFACE_SIDE_STYLE('',(#432));
#434=SURFACE_STYLE_USAGE(.BOTH.,#433);
#435=PRESENTATION_STYLE_ASSIGNMENT((#434));
#436=STYLED_ITEM('',(#435),#429);
#437=CARTESIAN_POINT('',(-6.496062992126E-2,-2.066929133858E-1,
7.874015748031E-3));
#438=DIRECTION('',(0.E0,0.E0,-1.E0));
#439=DIRECTION('',(-1.E0,0.E0,0.E0));
#440=AXIS2_PLACEMENT_3D('',#437,#438,#439);
#441=PLANE('',#440);
#443=ORIENTED_EDGE('',*,*,#442,.T.);
#445=ORIENTED_EDGE('',*,*,#444,.F.);
#447=ORIENTED_EDGE('',*,*,#446,.F.);
#448=ORIENTED_EDGE('',*,*,#415,.T.);
#449=EDGE_LOOP('',(#443,#445,#447,#448));
#450=FACE_OUTER_BOUND('',#449,.F.);
#452=FILL_AREA_STYLE_COLOUR('',#10);
#453=FILL_AREA_STYLE('',(#452));
#454=SURFACE_STYLE_FILL_AREA(#453);
#455=SURFACE_SIDE_STYLE('',(#454));
#456=SURFACE_STYLE_USAGE(.BOTH.,#455);
#457=PRESENTATION_STYLE_ASSIGNMENT((#456));
#458=STYLED_ITEM('',(#457),#451);
#459=CARTESIAN_POINT('',(-6.496062992126E-2,-2.066929133858E-1,
3.149606299213E-2));
#460=DIRECTION('',(0.E0,-1.E0,0.E0));
#461=DIRECTION('',(0.E0,0.E0,-1.E0));
#462=AXIS2_PLACEMENT_3D('',#459,#460,#461);
#463=PLANE('',#462);
#465=ORIENTED_EDGE('',*,*,#464,.F.);
#466=ORIENTED_EDGE('',*,*,#442,.F.);
#467=ORIENTED_EDGE('',*,*,#425,.T.);
#469=ORIENTED_EDGE('',*,*,#468,.T.);
#470=EDGE_LOOP('',(#465,#466,#467,#469));
#471=FACE_OUTER_BOUND('',#470,.F.);
#473=FILL_AREA_STYLE_COLOUR('',#10);
#474=FILL_AREA_STYLE('',(#473));
#475=SURFACE_STYLE_FILL_AREA(#474);
#476=SURFACE_SIDE_STYLE('',(#475));
#477=SURFACE_STYLE_USAGE(.BOTH.,#476);
#478=PRESENTATION_STYLE_ASSIGNMENT((#477));
#479=STYLED_ITEM('',(#478),#472);
#480=CARTESIAN_POINT('',(-3.779527559055E-2,0.E0,0.E0));
#481=DIRECTION('',(1.E0,0.E0,0.E0));
#482=DIRECTION('',(0.E0,0.E0,-1.E0));
#483=AXIS2_PLACEMENT_3D('',#480,#481,#482);
#484=PLANE('',#483);
#485=ORIENTED_EDGE('',*,*,#444,.T.);
#486=ORIENTED_EDGE('',*,*,#464,.T.);
#488=ORIENTED_EDGE('',*,*,#487,.T.);
#490=ORIENTED_EDGE('',*,*,#489,.T.);
#492=ORIENTED_EDGE('',*,*,#491,.T.);
#494=ORIENTED_EDGE('',*,*,#493,.F.);
#496=ORIENTED_EDGE('',*,*,#495,.T.);
#498=ORIENTED_EDGE('',*,*,#497,.F.);
#499=EDGE_LOOP('',(#485,#486,#488,#490,#492,#494,#496,#498));
#500=FACE_OUTER_BOUND('',#499,.F.);
#502=FILL_AREA_STYLE_COLOUR('',#10);
#503=FILL_AREA_STYLE('',(#502));
#504=SURFACE_STYLE_FILL_AREA(#503);
#505=SURFACE_SIDE_STYLE('',(#504));
#506=SURFACE_STYLE_USAGE(.BOTH.,#505);
#507=PRESENTATION_STYLE_ASSIGNMENT((#506));
#508=STYLED_ITEM('',(#507),#501);
#509=CARTESIAN_POINT('',(-6.496062992126E-2,-2.952755905512E-2,
3.149606299213E-2));
#510=DIRECTION('',(0.E0,0.E0,1.E0));
#511=DIRECTION('',(0.E0,-1.E0,0.E0));
#512=AXIS2_PLACEMENT_3D('',#509,#510,#511);
#513=PLANE('',#512);
#514=ORIENTED_EDGE('',*,*,#487,.F.);
#515=ORIENTED_EDGE('',*,*,#468,.F.);
#516=ORIENTED_EDGE('',*,*,#423,.T.);
#518=ORIENTED_EDGE('',*,*,#517,.T.);
#519=EDGE_LOOP('',(#514,#515,#516,#518));
#520=FACE_OUTER_BOUND('',#519,.F.);
#522=FILL_AREA_STYLE_COLOUR('',#10);
#523=FILL_AREA_STYLE('',(#522));
#524=SURFACE_STYLE_FILL_AREA(#523);
#525=SURFACE_SIDE_STYLE('',(#524));
#526=SURFACE_STYLE_USAGE(.BOTH.,#525);
#527=PRESENTATION_STYLE_ASSIGNMENT((#526));
#528=STYLED_ITEM('',(#527),#521);
#529=CARTESIAN_POINT('',(-6.496062992126E-2,-2.952755905512E-2,
7.874015748031E-3));
#530=DIRECTION('',(0.E0,1.E0,0.E0));
#531=DIRECTION('',(0.E0,0.E0,1.E0));
#532=AXIS2_PLACEMENT_3D('',#529,#530,#531);
#533=PLANE('',#532);
#534=ORIENTED_EDGE('',*,*,#489,.F.);
#535=ORIENTED_EDGE('',*,*,#517,.F.);
#536=ORIENTED_EDGE('',*,*,#421,.T.);
#538=ORIENTED_EDGE('',*,*,#537,.T.);
#539=EDGE_LOOP('',(#534,#535,#536,#538));
#540=FACE_OUTER_BOUND('',#539,.F.);
#542=FILL_AREA_STYLE_COLOUR('',#10);
#543=FILL_AREA_STYLE('',(#542));
#544=SURFACE_STYLE_FILL_AREA(#543);
#545=SURFACE_SIDE_STYLE('',(#544));
#546=SURFACE_STYLE_USAGE(.BOTH.,#545);
#547=PRESENTATION_STYLE_ASSIGNMENT((#546));
#548=STYLED_ITEM('',(#547),#541);
#549=CARTESIAN_POINT('',(-6.496062992126E-2,-2.066929133858E-1,
7.874015748031E-3));
#550=DIRECTION('',(0.E0,0.E0,-1.E0));
#551=DIRECTION('',(-1.E0,0.E0,0.E0));
#552=AXIS2_PLACEMENT_3D('',#549,#550,#551);
#553=PLANE('',#552);
#554=ORIENTED_EDGE('',*,*,#491,.F.);
#555=ORIENTED_EDGE('',*,*,#537,.F.);
#556=ORIENTED_EDGE('',*,*,#419,.T.);
#558=ORIENTED_EDGE('',*,*,#557,.F.);
#559=EDGE_LOOP('',(#554,#555,#556,#558));
#560=FACE_OUTER_BOUND('',#559,.F.);
#562=FILL_AREA_STYLE_COLOUR('',#10);
#563=FILL_AREA_STYLE('',(#562));
#564=SURFACE_STYLE_FILL_AREA(#563);
#565=SURFACE_SIDE_STYLE('',(#564));
#566=SURFACE_STYLE_USAGE(.BOTH.,#565);
#567=PRESENTATION_STYLE_ASSIGNMENT((#566));
#568=STYLED_ITEM('',(#567),#561);
#569=CARTESIAN_POINT('',(-3.110223630856E-2,-1.003937007874E-1,
4.502297285496E-3));
#570=DIRECTION('',(0.E0,1.E0,0.E0));
#571=DIRECTION('',(0.E0,0.E0,1.E0));
#572=AXIS2_PLACEMENT_3D('',#569,#570,#571);
#573=PLANE('',#572);
#575=ORIENTED_EDGE('',*,*,#574,.F.);
#577=ORIENTED_EDGE('',*,*,#576,.F.);
#579=ORIENTED_EDGE('',*,*,#578,.T.);
#580=ORIENTED_EDGE('',*,*,#493,.T.);
#581=ORIENTED_EDGE('',*,*,#557,.T.);
#583=ORIENTED_EDGE('',*,*,#582,.T.);
#585=ORIENTED_EDGE('',*,*,#584,.T.);
#587=ORIENTED_EDGE('',*,*,#586,.T.);
#588=EDGE_LOOP('',(#575,#577,#579,#580,#581,#583,#585,#587));
#589=FACE_OUTER_BOUND('',#588,.F.);
#591=FILL_AREA_STYLE_COLOUR('',#15);
#592=FILL_AREA_STYLE('',(#591));
#593=SURFACE_STYLE_FILL_AREA(#592);
#594=SURFACE_SIDE_STYLE('',(#593));
#595=SURFACE_STYLE_USAGE(.BOTH.,#594);
#596=PRESENTATION_STYLE_ASSIGNMENT((#595));
#597=STYLED_ITEM('',(#596),#590);
#598=CARTESIAN_POINT('',(-3.937007874016E-2,-3.149606299213E-2,
9.842519685039E-3));
#599=DIRECTION('',(0.E0,-1.E0,0.E0));
#600=DIRECTION('',(0.E0,0.E0,-1.E0));
#601=AXIS2_PLACEMENT_3D('',#598,#599,#600);
#602=CYLINDRICAL_SURFACE('',#601,9.842519685039E-3);
#604=ORIENTED_EDGE('',*,*,#603,.F.);
#606=ORIENTED_EDGE('',*,*,#605,.T.);
#608=ORIENTED_EDGE('',*,*,#607,.F.);
#609=ORIENTED_EDGE('',*,*,#574,.T.);
#611=ORIENTED_EDGE('',*,*,#610,.F.);
#613=ORIENTED_EDGE('',*,*,#612,.T.);
#614=EDGE_LOOP('',(#604,#606,#608,#609,#611,#613));
#615=FACE_OUTER_BOUND('',#614,.F.);
#617=FILL_AREA_STYLE_COLOUR('',#15);
#618=FILL_AREA_STYLE('',(#617));
#619=SURFACE_STYLE_FILL_AREA(#618);
#620=SURFACE_SIDE_STYLE('',(#619));
#621=SURFACE_STYLE_USAGE(.BOTH.,#620);
#622=PRESENTATION_STYLE_ASSIGNMENT((#621));
#623=STYLED_ITEM('',(#622),#616);
#624=CARTESIAN_POINT('',(-2.952755905512E-2,0.E0,0.E0));
#625=DIRECTION('',(1.E0,0.E0,0.E0));
#626=DIRECTION('',(0.E0,0.E0,-1.E0));
#627=AXIS2_PLACEMENT_3D('',#624,#625,#626);
#628=PLANE('',#627);
#630=ORIENTED_EDGE('',*,*,#629,.T.);
#631=ORIENTED_EDGE('',*,*,#603,.T.);
#633=ORIENTED_EDGE('',*,*,#632,.T.);
#635=ORIENTED_EDGE('',*,*,#634,.T.);
#637=ORIENTED_EDGE('',*,*,#636,.T.);
#639=ORIENTED_EDGE('',*,*,#638,.F.);
#641=ORIENTED_EDGE('',*,*,#640,.T.);
#642=EDGE_LOOP('',(#630,#631,#633,#635,#637,#639,#641));
#643=FACE_OUTER_BOUND('',#642,.F.);
#645=FILL_AREA_STYLE_COLOUR('',#15);
#646=FILL_AREA_STYLE('',(#645));
#647=SURFACE_STYLE_FILL_AREA(#646);
#648=SURFACE_SIDE_STYLE('',(#647));
#649=SURFACE_STYLE_USAGE(.BOTH.,#648);
#650=PRESENTATION_STYLE_ASSIGNMENT((#649));
#651=STYLED_ITEM('',(#650),#644);
#652=CARTESIAN_POINT('',(-3.740157480315E-2,-3.149606299213E-2,
6.907337052340E-3));
#653=DIRECTION('',(0.E0,1.E0,0.E0));
#654=DIRECTION('',(0.E0,0.E0,1.E0));
#655=AXIS2_PLACEMENT_3D('',#652,#653,#654);
#656=PLANE('',#655);
#658=ORIENTED_EDGE('',*,*,#657,.F.);
#660=ORIENTED_EDGE('',*,*,#659,.T.);
#662=ORIENTED_EDGE('',*,*,#661,.F.);
#664=ORIENTED_EDGE('',*,*,#663,.F.);
#665=ORIENTED_EDGE('',*,*,#605,.F.);
#666=ORIENTED_EDGE('',*,*,#629,.F.);
#667=EDGE_LOOP('',(#658,#660,#662,#664,#665,#666));
#668=FACE_OUTER_BOUND('',#667,.F.);
#670=FILL_AREA_STYLE_COLOUR('',#15);
#671=FILL_AREA_STYLE('',(#670));
#672=SURFACE_STYLE_FILL_AREA(#671);
#673=SURFACE_SIDE_STYLE('',(#672));
#674=SURFACE_STYLE_USAGE(.BOTH.,#673);
#675=PRESENTATION_STYLE_ASSIGNMENT((#674));
#676=STYLED_ITEM('',(#675),#669);
#677=CARTESIAN_POINT('',(-3.740157480315E-2,-3.149606299213E-2,
7.298582976655E-2));
#678=DIRECTION('',(0.E0,0.E0,1.E0));
#679=DIRECTION('',(0.E0,-1.E0,0.E0));
#680=AXIS2_PLACEMENT_3D('',#677,#678,#679);
#681=PLANE('',#680);
#682=ORIENTED_EDGE('',*,*,#657,.T.);
#683=ORIENTED_EDGE('',*,*,#640,.F.);
#685=ORIENTED_EDGE('',*,*,#684,.T.);
#687=ORIENTED_EDGE('',*,*,#686,.T.);
#688=EDGE_LOOP('',(#682,#683,#685,#687));
#689=FACE_OUTER_BOUND('',#688,.F.);
#691=FILL_AREA_STYLE_COLOUR('',#15);
#692=FILL_AREA_STYLE('',(#691));
#693=SURFACE_STYLE_FILL_AREA(#692);
#694=SURFACE_SIDE_STYLE('',(#693));
#695=SURFACE_STYLE_USAGE(.BOTH.,#694);
#696=PRESENTATION_STYLE_ASSIGNMENT((#695));
#697=STYLED_ITEM('',(#696),#690);
#698=CARTESIAN_POINT('',(-6.889763779528E-2,-1.259842519685E-1,
7.086614173228E-2));
#699=DIRECTION('',(0.E0,7.071067811865E-1,7.071067811865E-1));
#700=DIRECTION('',(0.E0,-7.071067811865E-1,7.071067811865E-1));
#701=AXIS2_PLACEMENT_3D('',#698,#699,#700);
#702=PLANE('',#701);
#704=ORIENTED_EDGE('',*,*,#703,.F.);
#706=ORIENTED_EDGE('',*,*,#705,.T.);
#707=ORIENTED_EDGE('',*,*,#684,.F.);
#708=ORIENTED_EDGE('',*,*,#638,.T.);
#709=EDGE_LOOP('',(#704,#706,#707,#708));
#710=FACE_OUTER_BOUND('',#709,.F.);
#712=FILL_AREA_STYLE_COLOUR('',#10);
#713=FILL_AREA_STYLE('',(#712));
#714=SURFACE_STYLE_FILL_AREA(#713);
#715=SURFACE_SIDE_STYLE('',(#714));
#716=SURFACE_STYLE_USAGE(.BOTH.,#715);
#717=PRESENTATION_STYLE_ASSIGNMENT((#716));
#718=STYLED_ITEM('',(#717),#711);
#719=CARTESIAN_POINT('',(-6.889763779528E-2,-1.259842519685E-1,
3.149606299213E-2));
#720=DIRECTION('',(0.E0,1.E0,0.E0));
#721=DIRECTION('',(0.E0,0.E0,1.E0));
#722=AXIS2_PLACEMENT_3D('',#719,#720,#721);
#723=PLANE('',#722);
#725=ORIENTED_EDGE('',*,*,#724,.F.);
#727=ORIENTED_EDGE('',*,*,#726,.T.);
#728=ORIENTED_EDGE('',*,*,#703,.T.);
#729=ORIENTED_EDGE('',*,*,#636,.F.);
#730=EDGE_LOOP('',(#725,#727,#728,#729));
#731=FACE_OUTER_BOUND('',#730,.F.);
#733=FILL_AREA_STYLE_COLOUR('',#10);
#734=FILL_AREA_STYLE('',(#733));
#735=SURFACE_STYLE_FILL_AREA(#734);
#736=SURFACE_SIDE_STYLE('',(#735));
#737=SURFACE_STYLE_USAGE(.BOTH.,#736);
#738=PRESENTATION_STYLE_ASSIGNMENT((#737));
#739=STYLED_ITEM('',(#738),#732);
#740=CARTESIAN_POINT('',(-6.496062992126E-2,-2.952755905512E-2,
3.149606299213E-2));
#741=DIRECTION('',(0.E0,0.E0,1.E0));
#742=DIRECTION('',(0.E0,-1.E0,0.E0));
#743=AXIS2_PLACEMENT_3D('',#740,#741,#742);
#744=PLANE('',#743);
#745=ORIENTED_EDGE('',*,*,#724,.T.);
#746=ORIENTED_EDGE('',*,*,#634,.F.);
#748=ORIENTED_EDGE('',*,*,#747,.F.);
#750=ORIENTED_EDGE('',*,*,#749,.T.);
#751=EDGE_LOOP('',(#745,#746,#748,#750));
#752=FACE_OUTER_BOUND('',#751,.F.);
#754=FILL_AREA_STYLE_COLOUR('',#10);
#755=FILL_AREA_STYLE('',(#754));
#756=SURFACE_STYLE_FILL_AREA(#755);
#757=SURFACE_SIDE_STYLE('',(#756));
#758=SURFACE_STYLE_USAGE(.BOTH.,#757);
#759=PRESENTATION_STYLE_ASSIGNMENT((#758));
#760=STYLED_ITEM('',(#759),#753);
#761=CARTESIAN_POINT('',(-3.740157480315E-2,-1.358267716535E-1,
7.298582976655E-2));
#762=DIRECTION('',(0.E0,-1.E0,0.E0));
#763=DIRECTION('',(0.E0,0.E0,-1.E0));
#764=AXIS2_PLACEMENT_3D('',#761,#762,#763);
#765=PLANE('',#764);
#767=ORIENTED_EDGE('',*,*,#766,.T.);
#768=ORIENTED_EDGE('',*,*,#747,.T.);
#769=ORIENTED_EDGE('',*,*,#632,.F.);
#770=ORIENTED_EDGE('',*,*,#612,.F.);
#772=ORIENTED_EDGE('',*,*,#771,.T.);
#774=ORIENTED_EDGE('',*,*,#773,.T.);
#776=ORIENTED_EDGE('',*,*,#775,.T.);
#777=ORIENTED_EDGE('',*,*,#446,.T.);
#778=ORIENTED_EDGE('',*,*,#497,.T.);
#780=ORIENTED_EDGE('',*,*,#779,.F.);
#781=EDGE_LOOP('',(#767,#768,#769,#770,#772,#774,#776,#777,#778,#780));
#782=FACE_OUTER_BOUND('',#781,.F.);
#784=FILL_AREA_STYLE_COLOUR('',#15);
#785=FILL_AREA_STYLE('',(#784));
#786=SURFACE_STYLE_FILL_AREA(#785);
#787=SURFACE_SIDE_STYLE('',(#786));
#788=SURFACE_STYLE_USAGE(.BOTH.,#787);
#789=PRESENTATION_STYLE_ASSIGNMENT((#788));
#790=STYLED_ITEM('',(#789),#783);
#791=CARTESIAN_POINT('',(-3.740157480315E-2,0.E0,0.E0));
#792=DIRECTION('',(1.E0,0.E0,0.E0));
#793=DIRECTION('',(0.E0,0.E0,-1.E0));
#794=AXIS2_PLACEMENT_3D('',#791,#792,#793);
#795=PLANE('',#794);
#796=ORIENTED_EDGE('',*,*,#686,.F.);
#797=ORIENTED_EDGE('',*,*,#705,.F.);
#798=ORIENTED_EDGE('',*,*,#726,.F.);
#799=ORIENTED_EDGE('',*,*,#749,.F.);
#800=ORIENTED_EDGE('',*,*,#766,.F.);
#802=ORIENTED_EDGE('',*,*,#801,.T.);
#803=ORIENTED_EDGE('',*,*,#659,.F.);
#804=EDGE_LOOP('',(#796,#797,#798,#799,#800,#802,#803));
#805=FACE_OUTER_BOUND('',#804,.F.);
#807=FILL_AREA_STYLE_COLOUR('',#15);
#808=FILL_AREA_STYLE('',(#807));
#809=SURFACE_STYLE_FILL_AREA(#808);
#810=SURFACE_SIDE_STYLE('',(#809));
#811=SURFACE_STYLE_USAGE(.BOTH.,#810);
#812=PRESENTATION_STYLE_ASSIGNMENT((#811));
#813=STYLED_ITEM('',(#812),#806);
#814=CARTESIAN_POINT('',(-3.937007874016E-2,-1.358267716535E-1,
9.842519685039E-3));
#815=DIRECTION('',(0.E0,1.E0,0.E0));
#816=DIRECTION('',(0.E0,0.E0,1.E0));
#817=AXIS2_PLACEMENT_3D('',#814,#815,#816);
#818=CYLINDRICAL_SURFACE('',#817,1.968503937008E-3);
#819=ORIENTED_EDGE('',*,*,#779,.T.);
#820=ORIENTED_EDGE('',*,*,#495,.F.);
#821=ORIENTED_EDGE('',*,*,#578,.F.);
#823=ORIENTED_EDGE('',*,*,#822,.F.);
#824=ORIENTED_EDGE('',*,*,#661,.T.);
#825=ORIENTED_EDGE('',*,*,#801,.F.);
#826=EDGE_LOOP('',(#819,#820,#821,#823,#824,#825));
#827=FACE_OUTER_BOUND('',#826,.F.);
#829=FILL_AREA_STYLE_COLOUR('',#15);
#830=FILL_AREA_STYLE('',(#829));
#831=SURFACE_STYLE_FILL_AREA(#830);
#832=SURFACE_SIDE_STYLE('',(#831));
#833=SURFACE_STYLE_USAGE(.BOTH.,#832);
#834=PRESENTATION_STYLE_ASSIGNMENT((#833));
#835=STYLED_ITEM('',(#834),#828);
#836=CARTESIAN_POINT('',(-3.771651025384E-2,-1.003937007874E-1,
8.774475205131E-3));
#837=DIRECTION('',(-5.425665957936E-1,0.E0,-8.400127910508E-1));
#838=DIRECTION('',(-8.400127910508E-1,0.E0,5.425665957936E-1));
#839=AXIS2_PLACEMENT_3D('',#836,#837,#838);
#840=PLANE('',#839);
#841=ORIENTED_EDGE('',*,*,#607,.T.);
#842=ORIENTED_EDGE('',*,*,#663,.T.);
#843=ORIENTED_EDGE('',*,*,#822,.T.);
#844=ORIENTED_EDGE('',*,*,#576,.T.);
#845=EDGE_LOOP('',(#841,#842,#843,#844));
#846=FACE_OUTER_BOUND('',#845,.F.);
#848=FILL_AREA_STYLE_COLOUR('',#15);
#849=FILL_AREA_STYLE('',(#848));
#850=SURFACE_STYLE_FILL_AREA(#849);
#851=SURFACE_SIDE_STYLE('',(#850));
#852=SURFACE_STYLE_USAGE(.BOTH.,#851);
#853=PRESENTATION_STYLE_ASSIGNMENT((#852));
#854=STYLED_ITEM('',(#853),#847);
#855=CARTESIAN_POINT('',(-4.117308966601E-2,0.E0,0.E0));
#856=DIRECTION('',(0.E0,0.E0,-1.E0));
#857=DIRECTION('',(-1.E0,0.E0,0.E0));
#858=AXIS2_PLACEMENT_3D('',#855,#856,#857);
#859=PLANE('',#858);
#861=ORIENTED_EDGE('',*,*,#860,.F.);
#863=ORIENTED_EDGE('',*,*,#862,.F.);
#865=ORIENTED_EDGE('',*,*,#864,.F.);
#867=ORIENTED_EDGE('',*,*,#866,.F.);
#869=ORIENTED_EDGE('',*,*,#868,.F.);
#870=ORIENTED_EDGE('',*,*,#771,.F.);
#871=ORIENTED_EDGE('',*,*,#610,.T.);
#872=ORIENTED_EDGE('',*,*,#586,.F.);
#874=ORIENTED_EDGE('',*,*,#873,.F.);
#875=EDGE_LOOP('',(#861,#863,#865,#867,#869,#870,#871,#872,#874));
#876=FACE_OUTER_BOUND('',#875,.F.);
#878=FILL_AREA_STYLE_COLOUR('',#15);
#879=FILL_AREA_STYLE('',(#878));
#880=SURFACE_STYLE_FILL_AREA(#879);
#881=SURFACE_SIDE_STYLE('',(#880));
#882=SURFACE_STYLE_USAGE(.BOTH.,#881);
#883=PRESENTATION_STYLE_ASSIGNMENT((#882));
#884=STYLED_ITEM('',(#883),#877);
#885=CARTESIAN_POINT('',(-8.448017628018E-2,-1.062992125984E-1,
7.874015748031E-3));
#886=DIRECTION('',(0.E0,0.E0,-1.E0));
#887=DIRECTION('',(-1.E0,0.E0,0.E0));
#888=AXIS2_PLACEMENT_3D('',#885,#886,#887);
#889=CYLINDRICAL_SURFACE('',#888,5.905511811024E-3);
#890=ORIENTED_EDGE('',*,*,#873,.T.);
#891=ORIENTED_EDGE('',*,*,#584,.F.);
#893=ORIENTED_EDGE('',*,*,#892,.T.);
#895=ORIENTED_EDGE('',*,*,#894,.T.);
#897=ORIENTED_EDGE('',*,*,#896,.T.);
#898=ORIENTED_EDGE('',*,*,#860,.T.);
#899=EDGE_LOOP('',(#890,#891,#893,#895,#897,#898));
#900=FACE_OUTER_BOUND('',#899,.F.);
#902=FILL_AREA_STYLE_COLOUR('',#15);
#903=FILL_AREA_STYLE('',(#902));
#904=SURFACE_STYLE_FILL_AREA(#903);
#905=SURFACE_SIDE_STYLE('',(#904));
#906=SURFACE_STYLE_USAGE(.BOTH.,#905);
#907=PRESENTATION_STYLE_ASSIGNMENT((#906));
#908=STYLED_ITEM('',(#907),#901);
#909=CARTESIAN_POINT('',(-4.117308966601E-2,0.E0,7.874015748031E-3));
#910=DIRECTION('',(0.E0,0.E0,-1.E0));
#911=DIRECTION('',(-1.E0,0.E0,0.E0));
#912=AXIS2_PLACEMENT_3D('',#909,#910,#911);
#913=PLANE('',#912);
#914=ORIENTED_EDGE('',*,*,#582,.F.);
#915=ORIENTED_EDGE('',*,*,#417,.T.);
#916=ORIENTED_EDGE('',*,*,#775,.F.);
#918=ORIENTED_EDGE('',*,*,#917,.F.);
#920=ORIENTED_EDGE('',*,*,#919,.F.);
#922=ORIENTED_EDGE('',*,*,#921,.F.);
#924=ORIENTED_EDGE('',*,*,#923,.F.);
#925=ORIENTED_EDGE('',*,*,#894,.F.);
#926=ORIENTED_EDGE('',*,*,#892,.F.);
#927=EDGE_LOOP('',(#914,#915,#916,#918,#920,#922,#924,#925,#926));
#928=FACE_OUTER_BOUND('',#927,.F.);
#930=FILL_AREA_STYLE_COLOUR('',#15);
#931=FILL_AREA_STYLE('',(#930));
#932=SURFACE_STYLE_FILL_AREA(#931);
#933=SURFACE_SIDE_STYLE('',(#932));
#934=SURFACE_STYLE_USAGE(.BOTH.,#933);
#935=PRESENTATION_STYLE_ASSIGNMENT((#934));
#936=STYLED_ITEM('',(#935),#929);
#937=CARTESIAN_POINT('',(-8.448017628018E-2,-1.299212598425E-1,
7.874015748031E-3));
#938=DIRECTION('',(0.E0,0.E0,-1.E0));
#939=DIRECTION('',(-1.E0,0.E0,0.E0));
#940=AXIS2_PLACEMENT_3D('',#937,#938,#939);
#941=CYLINDRICAL_SURFACE('',#940,5.905511811024E-3);
#942=ORIENTED_EDGE('',*,*,#866,.T.);
#944=ORIENTED_EDGE('',*,*,#943,.F.);
#945=ORIENTED_EDGE('',*,*,#919,.T.);
#946=ORIENTED_EDGE('',*,*,#917,.T.);
#947=ORIENTED_EDGE('',*,*,#773,.F.);
#948=ORIENTED_EDGE('',*,*,#868,.T.);
#949=EDGE_LOOP('',(#942,#944,#945,#946,#947,#948));
#950=FACE_OUTER_BOUND('',#949,.F.);
#952=FILL_AREA_STYLE_COLOUR('',#15);
#953=FILL_AREA_STYLE('',(#952));
#954=SURFACE_STYLE_FILL_AREA(#953);
#955=SURFACE_SIDE_STYLE('',(#954));
#956=SURFACE_STYLE_USAGE(.BOTH.,#955);
#957=PRESENTATION_STYLE_ASSIGNMENT((#956));
#958=STYLED_ITEM('',(#957),#951);
#959=CARTESIAN_POINT('',(-8.448017628018E-2,-1.181102362205E-1,
7.874015748031E-3));
#960=DIRECTION('',(0.E0,0.E0,1.E0));
#961=DIRECTION('',(1.E0,0.E0,0.E0));
#962=AXIS2_PLACEMENT_3D('',#959,#960,#961);
#963=CYLINDRICAL_SURFACE('',#962,5.905511811024E-3);
#964=ORIENTED_EDGE('',*,*,#896,.F.);
#965=ORIENTED_EDGE('',*,*,#923,.T.);
#966=ORIENTED_EDGE('',*,*,#921,.T.);
#967=ORIENTED_EDGE('',*,*,#943,.T.);
#968=ORIENTED_EDGE('',*,*,#864,.T.);
#969=ORIENTED_EDGE('',*,*,#862,.T.);
#970=EDGE_LOOP('',(#964,#965,#966,#967,#968,#969));
#971=FACE_OUTER_BOUND('',#970,.F.);
#973=FILL_AREA_STYLE_COLOUR('',#15);
#974=FILL_AREA_STYLE('',(#973));
#975=SURFACE_STYLE_FILL_AREA(#974);
#976=SURFACE_SIDE_STYLE('',(#975));
#977=SURFACE_STYLE_USAGE(.BOTH.,#976);
#978=PRESENTATION_STYLE_ASSIGNMENT((#977));
#979=STYLED_ITEM('',(#978),#972);
#982=PRESENTATION_LAYER_ASSIGNMENT('SHELL_860','',(#429,#451,#472,#501,#521,
#541,#561,#590,#616,#644,#669,#690,#711,#732,#753,#783,#806,#828,#847,#877,#901,
#929,#951,#972,#981));
#984=LENGTH_MEASURE_WITH_UNIT(LENGTH_MEASURE(2.54E1),#983);
#985=(CONVERSION_BASED_UNIT('INCH',#984)LENGTH_UNIT()NAMED_UNIT(*));
#987=PLANE_ANGLE_MEASURE_WITH_UNIT(PLANE_ANGLE_MEASURE(1.745329251994E-2),#986);
#988=(CONVERSION_BASED_UNIT('DEGREE',#987)NAMED_UNIT(*)PLANE_ANGLE_UNIT());
#990=UNCERTAINTY_MEASURE_WITH_UNIT(LENGTH_MEASURE(1.102474662876E-4),#985,
'closure',
'Maximum model space distance between geometric entities at asserted connectivities');
#992=CARTESIAN_POINT('',(0.E0,0.E0,0.E0));
#993=DIRECTION('',(0.E0,0.E0,1.E0));
#994=DIRECTION('',(1.E0,0.E0,0.E0));
#997=MECHANICAL_DESIGN_GEOMETRIC_PRESENTATION_REPRESENTATION('',(#436,#458,#479,
#508,#528,#548,#568,#597,#623,#651,#676,#697,#718,#739,#760,#790,#813,#835,#854,
#884,#908,#936,#958,#979),#991);
#998=APPLICATION_CONTEXT('automotive design');
#999=APPLICATION_PROTOCOL_DEFINITION('international standard',
'config_control_design',1994,#998);
#1000=PRODUCT_DEFINITION_CONTEXT('',#998,'design');
#1001=PRODUCT_CONTEXT('',#998,'mechanical');
#1002=PRODUCT('FPC-40-3742','FPC-40-3742','NOT SPECIFIED',(#1001));
#1003=PRODUCT_DEFINITION_FORMATION_WITH_SPECIFIED_SOURCE('1','LAST_VERSION',
#1002,.MADE.);
#1011=LENGTH_MEASURE_WITH_UNIT(LENGTH_MEASURE(2.54E1),#1010);
#1012=(CONVERSION_BASED_UNIT('INCH',#1011)LENGTH_UNIT()NAMED_UNIT(*));
#1013=DERIVED_UNIT_ELEMENT(#1012,2.E0);
#1014=AREA_UNIT((#1013));
#1015=MEASURE_REPRESENTATION_ITEM('surface area measure',AREA_MEASURE(
2.437851159196E-5),#1014);
#1020=LENGTH_MEASURE_WITH_UNIT(LENGTH_MEASURE(2.54E1),#1019);
#1021=(CONVERSION_BASED_UNIT('INCH',#1020)LENGTH_UNIT()NAMED_UNIT(*));
#1022=DERIVED_UNIT_ELEMENT(#1021,3.E0);
#1023=VOLUME_UNIT((#1022));
#1024=MEASURE_REPRESENTATION_ITEM('volume measure',VOLUME_MEASURE(
2.946247969847E-9),#1023);
#1028=CARTESIAN_POINT('centre point',(-1.192321404320E-3,-2.728218421144E-3,
6.074177040966E-4));
#1033=LENGTH_MEASURE_WITH_UNIT(LENGTH_MEASURE(2.54E1),#1032);
#1034=(CONVERSION_BASED_UNIT('INCH',#1033)LENGTH_UNIT()NAMED_UNIT(*));
#1035=DERIVED_UNIT_ELEMENT(#1034,2.E0);
#1036=AREA_UNIT((#1035));
#1037=MEASURE_REPRESENTATION_ITEM('surface area measure',AREA_MEASURE(
2.437851159196E-5),#1036);
#1042=LENGTH_MEASURE_WITH_UNIT(LENGTH_MEASURE(2.54E1),#1041);
#1043=(CONVERSION_BASED_UNIT('INCH',#1042)LENGTH_UNIT()NAMED_UNIT(*));
#1044=DERIVED_UNIT_ELEMENT(#1043,3.E0);
#1045=VOLUME_UNIT((#1044));
#1046=MEASURE_REPRESENTATION_ITEM('volume measure',VOLUME_MEASURE(
2.946247969847E-9),#1045);
#1050=CARTESIAN_POINT('centre point',(-1.192321404320E-3,-2.728218421144E-3,
6.074177040966E-4));
#1=DRAUGHTING_PRE_DEFINED_COLOUR('green');
#2=COLOUR_RGB('',1.1E-2,1.2E-2,1.E0);
#3=COLOUR_RGB('',2.352941176471E-1,2.352941176471E-1,2.352941176471E-1);
#4=COLOUR_RGB('',4.1E-1,2.61589E-1,1.12848E-1);
#5=COLOUR_RGB('',5.04854E-1,1.5455E-2,1.5455E-2);
#6=COLOUR_RGB('',6.35294E-1,6.86275E-1,7.4902E-1);
#7=COLOUR_RGB('',6.40777E-1,6.40777E-1,6.40777E-1);
#8=COLOUR_RGB('',6.69062E-1,6.69903E-1,6.55217E-1);
#9=COLOUR_RGB('',9.21569E-1,7.05882E-1,4.70588E-1);
#10=COLOUR_RGB('',9.843137254902E-1,9.843137254902E-1,8.980392156863E-1);
#11=DRAUGHTING_PRE_DEFINED_COLOUR('red');
#12=DRAUGHTING_PRE_DEFINED_COLOUR('yellow');
#13=COLOUR_RGB('',1.E0,1.E0,5.3E-1);
#14=COLOUR_RGB('',1.E0,1.E0,9.49E-1);
#15=DRAUGHTING_PRE_DEFINED_COLOUR('white');
#96=CIRCLE('',#95,9.842519685039E-3);
#125=CIRCLE('',#124,1.968503937008E-3);
#134=CIRCLE('',#133,9.842519685039E-3);
#175=CIRCLE('',#174,9.842519685039E-3);
#180=CIRCLE('',#179,1.968503937008E-3);
#213=CIRCLE('',#212,1.968503937008E-3);
#226=CIRCLE('',#225,5.905511811024E-3);
#231=CIRCLE('',#230,5.905511811024E-3);
#236=CIRCLE('',#235,5.905511811024E-3);
#241=CIRCLE('',#240,5.905511811024E-3);
#246=CIRCLE('',#245,5.905511811024E-3);
#259=CIRCLE('',#258,5.905511811024E-3);
#276=CIRCLE('',#275,5.905511811024E-3);
#281=CIRCLE('',#280,5.905511811024E-3);
#286=CIRCLE('',#285,5.905511811024E-3);
#291=CIRCLE('',#290,5.905511811024E-3);
#296=CIRCLE('',#295,5.905511811024E-3);
#301=CIRCLE('',#300,5.905511811024E-3);
#415=EDGE_CURVE('',#329,#337,#19,.T.);
#417=EDGE_CURVE('',#350,#329,#23,.T.);
#419=EDGE_CURVE('',#369,#350,#27,.T.);
#421=EDGE_CURVE('',#365,#369,#31,.T.);
#423=EDGE_CURVE('',#359,#365,#35,.T.);
#425=EDGE_CURVE('',#337,#359,#39,.T.);
#429=ADVANCED_FACE('',(#428),#414,.F.);
#442=EDGE_CURVE('',#337,#355,#55,.T.);
#444=EDGE_CURVE('',#347,#355,#43,.T.);
#446=EDGE_CURVE('',#329,#347,#47,.T.);
#451=ADVANCED_FACE('',(#450),#441,.T.);
#464=EDGE_CURVE('',#355,#357,#51,.T.);
#468=EDGE_CURVE('',#359,#357,#71,.T.);
#472=ADVANCED_FACE('',(#471),#463,.T.);
#487=EDGE_CURVE('',#357,#361,#67,.T.);
#489=EDGE_CURVE('',#361,#363,#75,.T.);
#491=EDGE_CURVE('',#363,#367,#83,.T.);
#493=EDGE_CURVE('',#344,#367,#59,.T.);
#495=EDGE_CURVE('',#344,#345,#208,.T.);
#497=EDGE_CURVE('',#347,#345,#63,.T.);
#501=ADVANCED_FACE('',(#500),#484,.T.);
#517=EDGE_CURVE('',#365,#361,#79,.T.);
#521=ADVANCED_FACE('',(#520),#513,.T.);
#537=EDGE_CURVE('',#369,#363,#87,.T.);
#541=ADVANCED_FACE('',(#540),#533,.T.);
#557=EDGE_CURVE('',#367,#350,#91,.T.);
#561=ADVANCED_FACE('',(#560),#553,.T.);
#574=EDGE_CURVE('',#379,#381,#96,.T.);
#576=EDGE_CURVE('',#387,#379,#100,.T.);
#578=EDGE_CURVE('',#387,#344,#213,.T.);
#582=EDGE_CURVE('',#350,#351,#267,.T.);
#584=EDGE_CURVE('',#351,#353,#263,.T.);
#586=EDGE_CURVE('',#353,#381,#254,.T.);
#590=ADVANCED_FACE('',(#589),#573,.T.);
#603=EDGE_CURVE('',#325,#373,#104,.T.);
#605=EDGE_CURVE('',#325,#377,#134,.T.);
#607=EDGE_CURVE('',#379,#377,#108,.T.);
#610=EDGE_CURVE('',#372,#381,#112,.T.);
#612=EDGE_CURVE('',#372,#373,#175,.T.);
#616=ADVANCED_FACE('',(#615),#602,.T.);
#629=EDGE_CURVE('',#317,#325,#138,.T.);
#632=EDGE_CURVE('',#373,#407,#170,.T.);
#634=EDGE_CURVE('',#407,#401,#162,.T.);
#636=EDGE_CURVE('',#401,#399,#158,.T.);
#638=EDGE_CURVE('',#316,#399,#116,.T.);
#640=EDGE_CURVE('',#316,#317,#142,.T.);
#644=ADVANCED_FACE('',(#643),#628,.T.);
#657=EDGE_CURVE('',#327,#317,#120,.T.);
#659=EDGE_CURVE('',#327,#375,#204,.T.);
#661=EDGE_CURVE('',#383,#375,#125,.T.);
#663=EDGE_CURVE('',#377,#383,#129,.T.);
#669=ADVANCED_FACE('',(#668),#656,.T.);
#684=EDGE_CURVE('',#316,#397,#150,.T.);
#686=EDGE_CURVE('',#397,#327,#184,.T.);
#690=ADVANCED_FACE('',(#689),#681,.T.);
#703=EDGE_CURVE('',#403,#399,#146,.T.);
#705=EDGE_CURVE('',#403,#397,#188,.T.);
#711=ADVANCED_FACE('',(#710),#702,.F.);
#724=EDGE_CURVE('',#405,#401,#154,.T.);
#726=EDGE_CURVE('',#405,#403,#192,.T.);
#732=ADVANCED_FACE('',(#731),#723,.F.);
#747=EDGE_CURVE('',#409,#407,#166,.T.);
#749=EDGE_CURVE('',#409,#405,#196,.T.);
#753=ADVANCED_FACE('',(#752),#744,.T.);
#766=EDGE_CURVE('',#385,#409,#200,.T.);
#771=EDGE_CURVE('',#372,#339,#250,.T.);
#773=EDGE_CURVE('',#339,#321,#309,.T.);
#775=EDGE_CURVE('',#321,#329,#271,.T.);
#779=EDGE_CURVE('',#385,#345,#180,.T.);
#783=ADVANCED_FACE('',(#782),#765,.T.);
#801=EDGE_CURVE('',#385,#375,#221,.T.);
#806=ADVANCED_FACE('',(#805),#795,.F.);
#822=EDGE_CURVE('',#383,#387,#217,.T.);
#828=ADVANCED_FACE('',(#827),#818,.F.);
#847=ADVANCED_FACE('',(#846),#840,.T.);
#860=EDGE_CURVE('',#390,#391,#226,.T.);
#862=EDGE_CURVE('',#393,#390,#231,.T.);
#864=EDGE_CURVE('',#335,#393,#236,.T.);
#866=EDGE_CURVE('',#341,#335,#241,.T.);
#868=EDGE_CURVE('',#339,#341,#246,.T.);
#873=EDGE_CURVE('',#391,#353,#259,.T.);
#877=ADVANCED_FACE('',(#876),#859,.T.);
#892=EDGE_CURVE('',#351,#395,#301,.T.);
#894=EDGE_CURVE('',#395,#333,#296,.T.);
#896=EDGE_CURVE('',#333,#390,#313,.T.);
#901=ADVANCED_FACE('',(#900),#889,.T.);
#917=EDGE_CURVE('',#320,#321,#276,.T.);
#919=EDGE_CURVE('',#323,#320,#281,.T.);
#921=EDGE_CURVE('',#331,#323,#286,.T.);
#923=EDGE_CURVE('',#333,#331,#291,.T.);
#929=ADVANCED_FACE('',(#928),#913,.F.);
#943=EDGE_CURVE('',#323,#335,#305,.T.);
#951=ADVANCED_FACE('',(#950),#941,.T.);
#972=ADVANCED_FACE('',(#971),#963,.F.);
#980=CLOSED_SHELL('',(#429,#451,#472,#501,#521,#541,#561,#590,#616,#644,#669,
#690,#711,#732,#753,#783,#806,#828,#847,#877,#901,#929,#951,#972));
#981=MANIFOLD_SOLID_BREP('',#980);
#983=(LENGTH_UNIT()NAMED_UNIT(*)SI_UNIT(.MILLI.,.METRE.));
#986=(NAMED_UNIT(*)PLANE_ANGLE_UNIT()SI_UNIT($,.RADIAN.));
#989=(NAMED_UNIT(*)SI_UNIT($,.STERADIAN.)SOLID_ANGLE_UNIT());
#991=(GEOMETRIC_REPRESENTATION_CONTEXT(3)GLOBAL_UNCERTAINTY_ASSIGNED_CONTEXT((
#990))GLOBAL_UNIT_ASSIGNED_CONTEXT((#985,#988,#989))REPRESENTATION_CONTEXT
('ID1','3'));
#995=AXIS2_PLACEMENT_3D('',#992,#993,#994);
#996=ADVANCED_BREP_SHAPE_REPRESENTATION('',(#995,#981),#991);
#1004=PRODUCT_DEFINITION('design','',#1003,#1000);
#1005=PRODUCT_DEFINITION_SHAPE('','SHAPE FOR FPC-40-3742.',#1004);
#1006=SHAPE_ASPECT('','solid data associated with FPC-40-3742',#1005,.F.);
#1007=PROPERTY_DEFINITION('',
'shape for solid data with which properties are associated',#1006);
#1008=SHAPE_REPRESENTATION('',(#981),#991);
#1009=SHAPE_DEFINITION_REPRESENTATION(#1007,#1008);
#1010=(LENGTH_UNIT()NAMED_UNIT(*)SI_UNIT(.MILLI.,.METRE.));
#1016=PROPERTY_DEFINITION('geometric validation property','area of FPC-40-3742',
#1006);
#1017=REPRESENTATION('surface area',(#1015),#991);
#1018=PROPERTY_DEFINITION_REPRESENTATION(#1016,#1017);
#1019=(LENGTH_UNIT()NAMED_UNIT(*)SI_UNIT(.MILLI.,.METRE.));
#1025=PROPERTY_DEFINITION('geometric validation property',
'volume of FPC-40-3742',#1006);
#1026=REPRESENTATION('volume',(#1024),#991);
#1027=PROPERTY_DEFINITION_REPRESENTATION(#1025,#1026);
#1029=PROPERTY_DEFINITION('geometric validation property',
'centroid of FPC-40-3742',#1006);
#1030=REPRESENTATION('centroid',(#1028),#991);
#1031=PROPERTY_DEFINITION_REPRESENTATION(#1029,#1030);
#1032=(LENGTH_UNIT()NAMED_UNIT(*)SI_UNIT(.MILLI.,.METRE.));
#1038=PROPERTY_DEFINITION('geometric validation property','area of FPC-40-3742',
#1005);
#1039=REPRESENTATION('surface area',(#1037),#991);
#1040=PROPERTY_DEFINITION_REPRESENTATION(#1038,#1039);
#1041=(LENGTH_UNIT()NAMED_UNIT(*)SI_UNIT(.MILLI.,.METRE.));
#1047=PROPERTY_DEFINITION('geometric validation property',
'volume of FPC-40-3742',#1005);
#1048=REPRESENTATION('volume',(#1046),#991);
#1049=PROPERTY_DEFINITION_REPRESENTATION(#1047,#1048);
#1051=PROPERTY_DEFINITION('geometric validation property',
'centroid of FPC-40-3742',#1005);
#1052=REPRESENTATION('centroid',(#1050),#991);
#1053=PROPERTY_DEFINITION_REPRESENTATION(#1051,#1052);
#1054=SHAPE_DEFINITION_REPRESENTATION(#1005,#996);
ENDSEC;
END-ISO-10303-21;
