ISO-10303-21;
HEADER;
FILE_DESCRIPTION((''),'2;1');
FILE_NAME('FPC-15-590','2026-06-15T13:45:43',('Esia'),(''),
'CREO PARAMETRIC BY PTC INC, 2025102','CREO PARAMETRIC BY PTC INC, 2025102','');
FILE_SCHEMA((
'AP242_MANAGED_MODEL_BASED_3D_ENGINEERING_MIM_LF { 1 0 10303 442 1 1 4 }'));
ENDSEC;
DATA;
#16=DIRECTION('',(0.E0,1.E0,0.E0));
#17=VECTOR('',#16,1.771653543307E-1);
#18=CARTESIAN_POINT('',(-9.448818897638E-2,-2.066929133858E-1,
8.267716535433E-2));
#19=LINE('',#18,#17);
#20=DIRECTION('',(0.E0,0.E0,1.E0));
#21=VECTOR('',#20,6.299212598425E-2);
#22=CARTESIAN_POINT('',(-9.448818897638E-2,-2.066929133858E-1,
1.968503937008E-2));
#23=LINE('',#22,#21);
#24=DIRECTION('',(0.E0,-1.E0,0.E0));
#25=VECTOR('',#24,1.771653543307E-1);
#26=CARTESIAN_POINT('',(-9.448818897638E-2,-2.952755905512E-2,
1.968503937008E-2));
#27=LINE('',#26,#25);
#28=DIRECTION('',(0.E0,0.E0,-1.E0));
#29=VECTOR('',#28,6.299212598425E-2);
#30=CARTESIAN_POINT('',(-9.448818897638E-2,-2.952755905512E-2,
8.267716535433E-2));
#31=LINE('',#30,#29);
#32=DIRECTION('',(0.E0,1.E0,0.E0));
#33=VECTOR('',#32,1.771653543307E-1);
#34=CARTESIAN_POINT('',(-8.661417322835E-2,-2.066929133858E-1,
8.267716535433E-2));
#35=LINE('',#34,#33);
#36=DIRECTION('',(1.E0,0.E0,0.E0));
#37=VECTOR('',#36,7.874015748031E-3);
#38=CARTESIAN_POINT('',(-9.448818897638E-2,-2.066929133858E-1,
8.267716535433E-2));
#39=LINE('',#38,#37);
#40=DIRECTION('',(0.E0,0.E0,-1.E0));
#41=VECTOR('',#40,6.299212598425E-2);
#42=CARTESIAN_POINT('',(-8.661417322835E-2,-2.952755905512E-2,
8.267716535433E-2));
#43=LINE('',#42,#41);
#44=DIRECTION('',(1.E0,0.E0,0.E0));
#45=VECTOR('',#44,7.874015748031E-3);
#46=CARTESIAN_POINT('',(-9.448818897638E-2,-2.952755905512E-2,
8.267716535433E-2));
#47=LINE('',#46,#45);
#48=DIRECTION('',(0.E0,-1.E0,0.E0));
#49=VECTOR('',#48,1.771653543307E-1);
#50=CARTESIAN_POINT('',(-8.661417322835E-2,-2.952755905512E-2,
1.968503937008E-2));
#51=LINE('',#50,#49);
#52=DIRECTION('',(1.E0,0.E0,0.E0));
#53=VECTOR('',#52,7.874015748031E-3);
#54=CARTESIAN_POINT('',(-9.448818897638E-2,-2.952755905512E-2,
1.968503937008E-2));
#55=LINE('',#54,#53);
#56=DIRECTION('',(-1.E0,0.E0,0.E0));
#57=VECTOR('',#56,7.874015748031E-3);
#58=CARTESIAN_POINT('',(-8.661417322835E-2,-2.066929133858E-1,
1.968503937008E-2));
#59=LINE('',#58,#57);
#60=DIRECTION('',(0.E0,0.E0,1.E0));
#61=VECTOR('',#60,6.299212598425E-2);
#62=CARTESIAN_POINT('',(-8.661417322835E-2,-2.066929133858E-1,
1.968503937008E-2));
#63=LINE('',#62,#61);
#64=CARTESIAN_POINT('',(-8.661417322835E-2,-2.066929133858E-1,
1.968503937008E-2));
#65=CARTESIAN_POINT('',(-8.661417322835E-2,-2.066929133858E-1,
8.267716535433E-2));
#66=VERTEX_POINT('',#64);
#67=VERTEX_POINT('',#65);
#68=CARTESIAN_POINT('',(-9.448818897638E-2,-2.066929133858E-1,
1.968503937008E-2));
#69=CARTESIAN_POINT('',(-9.448818897638E-2,-2.066929133858E-1,
8.267716535433E-2));
#70=VERTEX_POINT('',#68);
#71=VERTEX_POINT('',#69);
#72=CARTESIAN_POINT('',(-8.661417322835E-2,-2.952755905512E-2,
8.267716535433E-2));
#73=VERTEX_POINT('',#72);
#74=CARTESIAN_POINT('',(-9.448818897638E-2,-2.952755905512E-2,
8.267716535433E-2));
#75=VERTEX_POINT('',#74);
#76=CARTESIAN_POINT('',(-9.448818897638E-2,-2.952755905512E-2,
1.968503937008E-2));
#77=VERTEX_POINT('',#76);
#78=CARTESIAN_POINT('',(-8.661417322835E-2,-2.952755905512E-2,
1.968503937008E-2));
#79=VERTEX_POINT('',#78);
#80=CARTESIAN_POINT('',(-9.448818897638E-2,0.E0,0.E0));
#81=DIRECTION('',(1.E0,0.E0,0.E0));
#82=DIRECTION('',(0.E0,0.E0,-1.E0));
#83=AXIS2_PLACEMENT_3D('',#80,#81,#82);
#84=PLANE('',#83);
#86=ORIENTED_EDGE('',*,*,#85,.F.);
#88=ORIENTED_EDGE('',*,*,#87,.F.);
#90=ORIENTED_EDGE('',*,*,#89,.F.);
#92=ORIENTED_EDGE('',*,*,#91,.F.);
#93=EDGE_LOOP('',(#86,#88,#90,#92));
#94=FACE_OUTER_BOUND('',#93,.F.);
#96=FILL_AREA_STYLE_COLOUR('',#10);
#97=FILL_AREA_STYLE('',(#96));
#98=SURFACE_STYLE_FILL_AREA(#97);
#99=SURFACE_SIDE_STYLE('',(#98));
#100=SURFACE_STYLE_USAGE(.BOTH.,#99);
#101=PRESENTATION_STYLE_ASSIGNMENT((#100));
#102=STYLED_ITEM('',(#101),#95);
#103=CARTESIAN_POINT('',(-9.448818897638E-2,-2.952755905512E-2,
8.267716535433E-2));
#104=DIRECTION('',(0.E0,0.E0,1.E0));
#105=DIRECTION('',(0.E0,-1.E0,0.E0));
#106=AXIS2_PLACEMENT_3D('',#103,#104,#105);
#107=PLANE('',#106);
#109=ORIENTED_EDGE('',*,*,#108,.F.);
#111=ORIENTED_EDGE('',*,*,#110,.F.);
#112=ORIENTED_EDGE('',*,*,#85,.T.);
#114=ORIENTED_EDGE('',*,*,#113,.T.);
#115=EDGE_LOOP('',(#109,#111,#112,#114));
#116=FACE_OUTER_BOUND('',#115,.F.);
#118=FILL_AREA_STYLE_COLOUR('',#10);
#119=FILL_AREA_STYLE('',(#118));
#120=SURFACE_STYLE_FILL_AREA(#119);
#121=SURFACE_SIDE_STYLE('',(#120));
#122=SURFACE_STYLE_USAGE(.BOTH.,#121);
#123=PRESENTATION_STYLE_ASSIGNMENT((#122));
#124=STYLED_ITEM('',(#123),#117);
#125=CARTESIAN_POINT('',(-8.661417322835E-2,0.E0,0.E0));
#126=DIRECTION('',(1.E0,0.E0,0.E0));
#127=DIRECTION('',(0.E0,0.E0,-1.E0));
#128=AXIS2_PLACEMENT_3D('',#125,#126,#127);
#129=PLANE('',#128);
#130=ORIENTED_EDGE('',*,*,#108,.T.);
#132=ORIENTED_EDGE('',*,*,#131,.T.);
#134=ORIENTED_EDGE('',*,*,#133,.T.);
#136=ORIENTED_EDGE('',*,*,#135,.T.);
#137=EDGE_LOOP('',(#130,#132,#134,#136));
#138=FACE_OUTER_BOUND('',#137,.F.);
#140=FILL_AREA_STYLE_COLOUR('',#10);
#141=FILL_AREA_STYLE('',(#140));
#142=SURFACE_STYLE_FILL_AREA(#141);
#143=SURFACE_SIDE_STYLE('',(#142));
#144=SURFACE_STYLE_USAGE(.BOTH.,#143);
#145=PRESENTATION_STYLE_ASSIGNMENT((#144));
#146=STYLED_ITEM('',(#145),#139);
#147=CARTESIAN_POINT('',(-9.448818897638E-2,-2.952755905512E-2,
1.968503937008E-2));
#148=DIRECTION('',(0.E0,1.E0,0.E0));
#149=DIRECTION('',(0.E0,0.E0,1.E0));
#150=AXIS2_PLACEMENT_3D('',#147,#148,#149);
#151=PLANE('',#150);
#152=ORIENTED_EDGE('',*,*,#131,.F.);
#153=ORIENTED_EDGE('',*,*,#113,.F.);
#154=ORIENTED_EDGE('',*,*,#91,.T.);
#156=ORIENTED_EDGE('',*,*,#155,.T.);
#157=EDGE_LOOP('',(#152,#153,#154,#156));
#158=FACE_OUTER_BOUND('',#157,.F.);
#160=FILL_AREA_STYLE_COLOUR('',#10);
#161=FILL_AREA_STYLE('',(#160));
#162=SURFACE_STYLE_FILL_AREA(#161);
#163=SURFACE_SIDE_STYLE('',(#162));
#164=SURFACE_STYLE_USAGE(.BOTH.,#163);
#165=PRESENTATION_STYLE_ASSIGNMENT((#164));
#166=STYLED_ITEM('',(#165),#159);
#167=CARTESIAN_POINT('',(-9.448818897638E-2,-2.066929133858E-1,
1.968503937008E-2));
#168=DIRECTION('',(0.E0,0.E0,-1.E0));
#169=DIRECTION('',(-1.E0,0.E0,0.E0));
#170=AXIS2_PLACEMENT_3D('',#167,#168,#169);
#171=PLANE('',#170);
#172=ORIENTED_EDGE('',*,*,#133,.F.);
#173=ORIENTED_EDGE('',*,*,#155,.F.);
#174=ORIENTED_EDGE('',*,*,#89,.T.);
#176=ORIENTED_EDGE('',*,*,#175,.F.);
#177=EDGE_LOOP('',(#172,#173,#174,#176));
#178=FACE_OUTER_BOUND('',#177,.F.);
#180=FILL_AREA_STYLE_COLOUR('',#10);
#181=FILL_AREA_STYLE('',(#180));
#182=SURFACE_STYLE_FILL_AREA(#181);
#183=SURFACE_SIDE_STYLE('',(#182));
#184=SURFACE_STYLE_USAGE(.BOTH.,#183);
#185=PRESENTATION_STYLE_ASSIGNMENT((#184));
#186=STYLED_ITEM('',(#185),#179);
#187=CARTESIAN_POINT('',(-9.448818897638E-2,-2.066929133858E-1,
8.267716535433E-2));
#188=DIRECTION('',(0.E0,-1.E0,0.E0));
#189=DIRECTION('',(0.E0,0.E0,-1.E0));
#190=AXIS2_PLACEMENT_3D('',#187,#188,#189);
#191=PLANE('',#190);
#192=ORIENTED_EDGE('',*,*,#135,.F.);
#193=ORIENTED_EDGE('',*,*,#175,.T.);
#194=ORIENTED_EDGE('',*,*,#87,.T.);
#195=ORIENTED_EDGE('',*,*,#110,.T.);
#196=EDGE_LOOP('',(#192,#193,#194,#195));
#197=FACE_OUTER_BOUND('',#196,.F.);
#199=FILL_AREA_STYLE_COLOUR('',#10);
#200=FILL_AREA_STYLE('',(#199));
#201=SURFACE_STYLE_FILL_AREA(#200);
#202=SURFACE_SIDE_STYLE('',(#201));
#203=SURFACE_STYLE_USAGE(.BOTH.,#202);
#204=PRESENTATION_STYLE_ASSIGNMENT((#203));
#205=STYLED_ITEM('',(#204),#198);
#208=PRESENTATION_LAYER_ASSIGNMENT('SHELL_708','',(#95,#117,#139,#159,#179,#198,
#207));
#210=LENGTH_MEASURE_WITH_UNIT(LENGTH_MEASURE(2.54E1),#209);
#211=(CONVERSION_BASED_UNIT('INCH',#210)LENGTH_UNIT()NAMED_UNIT(*));
#213=PLANE_ANGLE_MEASURE_WITH_UNIT(PLANE_ANGLE_MEASURE(1.745329251994E-2),#212);
#214=(CONVERSION_BASED_UNIT('DEGREE',#213)NAMED_UNIT(*)PLANE_ANGLE_UNIT());
#216=UNCERTAINTY_MEASURE_WITH_UNIT(LENGTH_MEASURE(1.102474662876E-4),#211,
'closure',
'Maximum model space distance between geometric entities at asserted connectivities');
#218=CARTESIAN_POINT('',(0.E0,0.E0,0.E0));
#219=DIRECTION('',(0.E0,0.E0,1.E0));
#220=DIRECTION('',(1.E0,0.E0,0.E0));
#223=MECHANICAL_DESIGN_GEOMETRIC_PRESENTATION_REPRESENTATION('',(#102,#124,#146,
#166,#186,#205),#217);
#224=APPLICATION_CONTEXT('automotive design');
#225=APPLICATION_PROTOCOL_DEFINITION('international standard',
'config_control_design',1994,#224);
#226=PRODUCT_DEFINITION_CONTEXT('',#224,'design');
#227=PRODUCT_CONTEXT('',#224,'mechanical');
#228=PRODUCT('FPC-15-590','FPC-15-590','NOT SPECIFIED',(#227));
#229=PRODUCT_DEFINITION_FORMATION_WITH_SPECIFIED_SOURCE('1','LAST_VERSION',#228,
.MADE.);
#237=LENGTH_MEASURE_WITH_UNIT(LENGTH_MEASURE(2.54E1),#236);
#238=(CONVERSION_BASED_UNIT('INCH',#237)LENGTH_UNIT()NAMED_UNIT(*));
#239=DERIVED_UNIT_ELEMENT(#238,2.E0);
#240=AREA_UNIT((#239));
#241=MEASURE_REPRESENTATION_ITEM('surface area measure',AREA_MEASURE(1.684E-5),
#240);
#246=LENGTH_MEASURE_WITH_UNIT(LENGTH_MEASURE(2.54E1),#245);
#247=(CONVERSION_BASED_UNIT('INCH',#246)LENGTH_UNIT()NAMED_UNIT(*));
#248=DERIVED_UNIT_ELEMENT(#247,3.E0);
#249=VOLUME_UNIT((#248));
#250=MEASURE_REPRESENTATION_ITEM('volume measure',VOLUME_MEASURE(1.44E-9),#249);
#254=CARTESIAN_POINT('centre point',(-2.3E-3,-3.E-3,1.3E-3));
#259=LENGTH_MEASURE_WITH_UNIT(LENGTH_MEASURE(2.54E1),#258);
#260=(CONVERSION_BASED_UNIT('INCH',#259)LENGTH_UNIT()NAMED_UNIT(*));
#261=DERIVED_UNIT_ELEMENT(#260,2.E0);
#262=AREA_UNIT((#261));
#263=MEASURE_REPRESENTATION_ITEM('surface area measure',AREA_MEASURE(1.684E-5),
#262);
#268=LENGTH_MEASURE_WITH_UNIT(LENGTH_MEASURE(2.54E1),#267);
#269=(CONVERSION_BASED_UNIT('INCH',#268)LENGTH_UNIT()NAMED_UNIT(*));
#270=DERIVED_UNIT_ELEMENT(#269,3.E0);
#271=VOLUME_UNIT((#270));
#272=MEASURE_REPRESENTATION_ITEM('volume measure',VOLUME_MEASURE(1.44E-9),#271);
#276=CARTESIAN_POINT('centre point',(-2.3E-3,-3.E-3,1.3E-3));
#1=DRAUGHTING_PRE_DEFINED_COLOUR('green');
#2=COLOUR_RGB('',1.1E-2,1.2E-2,1.E0);
#3=COLOUR_RGB('',2.352941176471E-1,2.352941176471E-1,2.352941176471E-1);
#4=COLOUR_RGB('',4.1E-1,2.61589E-1,1.12848E-1);
#5=COLOUR_RGB('',5.04854E-1,1.5455E-2,1.5455E-2);
#6=COLOUR_RGB('',6.35294E-1,6.86275E-1,7.4902E-1);
#7=COLOUR_RGB('',6.40777E-1,6.40777E-1,6.40777E-1);
#8=COLOUR_RGB('',6.69062E-1,6.69903E-1,6.55217E-1);
#9=COLOUR_RGB('',9.21569E-1,7.05882E-1,4.70588E-1);
#10=COLOUR_RGB('',9.843137254902E-1,9.843137254902E-1,8.980392156863E-1);
#11=DRAUGHTING_PRE_DEFINED_COLOUR('red');
#12=DRAUGHTING_PRE_DEFINED_COLOUR('yellow');
#13=COLOUR_RGB('',1.E0,1.E0,5.3E-1);
#14=COLOUR_RGB('',1.E0,1.E0,9.49E-1);
#15=DRAUGHTING_PRE_DEFINED_COLOUR('white');
#85=EDGE_CURVE('',#71,#75,#19,.T.);
#87=EDGE_CURVE('',#70,#71,#23,.T.);
#89=EDGE_CURVE('',#77,#70,#27,.T.);
#91=EDGE_CURVE('',#75,#77,#31,.T.);
#95=ADVANCED_FACE('',(#94),#84,.F.);
#108=EDGE_CURVE('',#67,#73,#35,.T.);
#110=EDGE_CURVE('',#71,#67,#39,.T.);
#113=EDGE_CURVE('',#75,#73,#47,.T.);
#117=ADVANCED_FACE('',(#116),#107,.T.);
#131=EDGE_CURVE('',#73,#79,#43,.T.);
#133=EDGE_CURVE('',#79,#66,#51,.T.);
#135=EDGE_CURVE('',#66,#67,#63,.T.);
#139=ADVANCED_FACE('',(#138),#129,.T.);
#155=EDGE_CURVE('',#77,#79,#55,.T.);
#159=ADVANCED_FACE('',(#158),#151,.T.);
#175=EDGE_CURVE('',#66,#70,#59,.T.);
#179=ADVANCED_FACE('',(#178),#171,.T.);
#198=ADVANCED_FACE('',(#197),#191,.T.);
#206=CLOSED_SHELL('',(#95,#117,#139,#159,#179,#198));
#207=MANIFOLD_SOLID_BREP('',#206);
#209=(LENGTH_UNIT()NAMED_UNIT(*)SI_UNIT(.MILLI.,.METRE.));
#212=(NAMED_UNIT(*)PLANE_ANGLE_UNIT()SI_UNIT($,.RADIAN.));
#215=(NAMED_UNIT(*)SI_UNIT($,.STERADIAN.)SOLID_ANGLE_UNIT());
#217=(GEOMETRIC_REPRESENTATION_CONTEXT(3)GLOBAL_UNCERTAINTY_ASSIGNED_CONTEXT((
#216))GLOBAL_UNIT_ASSIGNED_CONTEXT((#211,#214,#215))REPRESENTATION_CONTEXT
('ID1','3'));
#221=AXIS2_PLACEMENT_3D('',#218,#219,#220);
#222=ADVANCED_BREP_SHAPE_REPRESENTATION('',(#221,#207),#217);
#230=PRODUCT_DEFINITION('design','',#229,#226);
#231=PRODUCT_DEFINITION_SHAPE('','SHAPE FOR FPC-15-590.',#230);
#232=SHAPE_ASPECT('','solid data associated with FPC-15-590',#231,.F.);
#233=PROPERTY_DEFINITION('',
'shape for solid data with which properties are associated',#232);
#234=SHAPE_REPRESENTATION('',(#207),#217);
#235=SHAPE_DEFINITION_REPRESENTATION(#233,#234);
#236=(LENGTH_UNIT()NAMED_UNIT(*)SI_UNIT(.MILLI.,.METRE.));
#242=PROPERTY_DEFINITION('geometric validation property','area of FPC-15-590',
#232);
#243=REPRESENTATION('surface area',(#241),#217);
#244=PROPERTY_DEFINITION_REPRESENTATION(#242,#243);
#245=(LENGTH_UNIT()NAMED_UNIT(*)SI_UNIT(.MILLI.,.METRE.));
#251=PROPERTY_DEFINITION('geometric validation property','volume of FPC-15-590',
#232);
#252=REPRESENTATION('volume',(#250),#217);
#253=PROPERTY_DEFINITION_REPRESENTATION(#251,#252);
#255=PROPERTY_DEFINITION('geometric validation property',
'centroid of FPC-15-590',#232);
#256=REPRESENTATION('centroid',(#254),#217);
#257=PROPERTY_DEFINITION_REPRESENTATION(#255,#256);
#258=(LENGTH_UNIT()NAMED_UNIT(*)SI_UNIT(.MILLI.,.METRE.));
#264=PROPERTY_DEFINITION('geometric validation property','area of FPC-15-590',
#231);
#265=REPRESENTATION('surface area',(#263),#217);
#266=PROPERTY_DEFINITION_REPRESENTATION(#264,#265);
#267=(LENGTH_UNIT()NAMED_UNIT(*)SI_UNIT(.MILLI.,.METRE.));
#273=PROPERTY_DEFINITION('geometric validation property','volume of FPC-15-590',
#231);
#274=REPRESENTATION('volume',(#272),#217);
#275=PROPERTY_DEFINITION_REPRESENTATION(#273,#274);
#277=PROPERTY_DEFINITION('geometric validation property',
'centroid of FPC-15-590',#231);
#278=REPRESENTATION('centroid',(#276),#217);
#279=PROPERTY_DEFINITION_REPRESENTATION(#277,#278);
#280=SHAPE_DEFINITION_REPRESENTATION(#231,#222);
ENDSEC;
END-ISO-10303-21;
