ISO-10303-21;
HEADER;
FILE_DESCRIPTION((''),'2;1');
FILE_NAME('FPC-40-3814','2026-06-15T13:46:03',('Esia'),(''),
'CREO PARAMETRIC BY PTC INC, 2025102','CREO PARAMETRIC BY PTC INC, 2025102','');
FILE_SCHEMA((
'AP242_MANAGED_MODEL_BASED_3D_ENGINEERING_MIM_LF { 1 0 10303 442 1 1 4 }'));
ENDSEC;
DATA;
#16=DIRECTION('',(0.E0,-1.E0,0.E0));
#17=VECTOR('',#16,1.279527559055E-1);
#18=CARTESIAN_POINT('',(-6.496062992126E-2,-7.874015748031E-2,
1.377952755906E-2));
#19=LINE('',#18,#17);
#20=DIRECTION('',(0.E0,0.E0,-1.E0));
#21=VECTOR('',#20,1.771653543307E-2);
#22=CARTESIAN_POINT('',(-6.496062992126E-2,-7.874015748031E-2,
3.149606299213E-2));
#23=LINE('',#22,#21);
#24=DIRECTION('',(0.E0,-1.E0,0.E0));
#25=VECTOR('',#24,4.921259842520E-2);
#26=CARTESIAN_POINT('',(-6.496062992126E-2,-2.952755905512E-2,
3.149606299213E-2));
#27=LINE('',#26,#25);
#28=DIRECTION('',(0.E0,0.E0,1.E0));
#29=VECTOR('',#28,2.362204724409E-2);
#30=CARTESIAN_POINT('',(-6.496062992126E-2,-2.952755905512E-2,
7.874015748031E-3));
#31=LINE('',#30,#29);
#32=DIRECTION('',(0.E0,1.E0,0.E0));
#33=VECTOR('',#32,1.771653543307E-1);
#34=CARTESIAN_POINT('',(-6.496062992126E-2,-2.066929133858E-1,
7.874015748031E-3));
#35=LINE('',#34,#33);
#36=DIRECTION('',(0.E0,0.E0,-1.E0));
#37=VECTOR('',#36,5.905511811024E-3);
#38=CARTESIAN_POINT('',(-6.496062992126E-2,-2.066929133858E-1,
1.377952755906E-2));
#39=LINE('',#38,#37);
#40=DIRECTION('',(1.E0,0.E0,0.E0));
#41=VECTOR('',#40,5.905511811024E-3);
#42=CARTESIAN_POINT('',(-7.086614173228E-2,-2.066929133858E-1,
1.377952755906E-2));
#43=LINE('',#42,#41);
#44=DIRECTION('',(0.E0,-1.E0,0.E0));
#45=VECTOR('',#44,1.279527559055E-1);
#46=CARTESIAN_POINT('',(-7.086614173228E-2,-7.874015748031E-2,
1.377952755906E-2));
#47=LINE('',#46,#45);
#48=DIRECTION('',(0.E0,0.E0,-1.E0));
#49=VECTOR('',#48,5.905511811024E-3);
#50=CARTESIAN_POINT('',(-7.086614173228E-2,-2.066929133858E-1,
1.377952755906E-2));
#51=LINE('',#50,#49);
#52=DIRECTION('',(1.E0,0.E0,0.E0));
#53=VECTOR('',#52,5.905511811024E-3);
#54=CARTESIAN_POINT('',(-7.086614173228E-2,-2.952755905512E-2,
7.874015748031E-3));
#55=LINE('',#54,#53);
#56=DIRECTION('',(0.E0,1.E0,0.E0));
#57=VECTOR('',#56,1.771653543307E-1);
#58=CARTESIAN_POINT('',(-7.086614173228E-2,-2.066929133858E-1,
7.874015748031E-3));
#59=LINE('',#58,#57);
#60=DIRECTION('',(-1.E0,0.E0,0.E0));
#61=VECTOR('',#60,5.905511811024E-3);
#62=CARTESIAN_POINT('',(-6.496062992126E-2,-2.066929133858E-1,
7.874015748031E-3));
#63=LINE('',#62,#61);
#64=DIRECTION('',(1.E0,0.E0,0.E0));
#65=VECTOR('',#64,5.905511811024E-3);
#66=CARTESIAN_POINT('',(-7.086614173228E-2,-2.952755905512E-2,
3.149606299213E-2));
#67=LINE('',#66,#65);
#68=DIRECTION('',(0.E0,0.E0,1.E0));
#69=VECTOR('',#68,2.362204724409E-2);
#70=CARTESIAN_POINT('',(-7.086614173228E-2,-2.952755905512E-2,
7.874015748031E-3));
#71=LINE('',#70,#69);
#72=DIRECTION('',(1.E0,0.E0,0.E0));
#73=VECTOR('',#72,5.905511811024E-3);
#74=CARTESIAN_POINT('',(-7.086614173228E-2,-7.874015748031E-2,
3.149606299213E-2));
#75=LINE('',#74,#73);
#76=DIRECTION('',(0.E0,-1.E0,0.E0));
#77=VECTOR('',#76,4.921259842520E-2);
#78=CARTESIAN_POINT('',(-7.086614173228E-2,-2.952755905512E-2,
3.149606299213E-2));
#79=LINE('',#78,#77);
#80=DIRECTION('',(1.E0,0.E0,0.E0));
#81=VECTOR('',#80,5.905511811024E-3);
#82=CARTESIAN_POINT('',(-7.086614173228E-2,-7.874015748031E-2,
1.377952755906E-2));
#83=LINE('',#82,#81);
#84=DIRECTION('',(0.E0,0.E0,-1.E0));
#85=VECTOR('',#84,1.771653543307E-2);
#86=CARTESIAN_POINT('',(-7.086614173228E-2,-7.874015748031E-2,
3.149606299213E-2));
#87=LINE('',#86,#85);
#88=CARTESIAN_POINT('',(-7.086614173228E-2,-2.066929133858E-1,
1.377952755906E-2));
#89=CARTESIAN_POINT('',(-7.086614173228E-2,-2.066929133858E-1,
7.874015748031E-3));
#90=VERTEX_POINT('',#88);
#91=VERTEX_POINT('',#89);
#92=CARTESIAN_POINT('',(-6.496062992126E-2,-2.066929133858E-1,
1.377952755906E-2));
#93=CARTESIAN_POINT('',(-6.496062992126E-2,-2.066929133858E-1,
7.874015748031E-3));
#94=VERTEX_POINT('',#92);
#95=VERTEX_POINT('',#93);
#96=CARTESIAN_POINT('',(-7.086614173228E-2,-7.874015748031E-2,
1.377952755906E-2));
#97=VERTEX_POINT('',#96);
#98=CARTESIAN_POINT('',(-6.496062992126E-2,-2.952755905512E-2,
3.149606299213E-2));
#99=CARTESIAN_POINT('',(-6.496062992126E-2,-7.874015748031E-2,
3.149606299213E-2));
#100=VERTEX_POINT('',#98);
#101=VERTEX_POINT('',#99);
#102=CARTESIAN_POINT('',(-6.496062992126E-2,-2.952755905512E-2,
7.874015748031E-3));
#103=VERTEX_POINT('',#102);
#104=CARTESIAN_POINT('',(-7.086614173228E-2,-2.952755905512E-2,
7.874015748031E-3));
#105=VERTEX_POINT('',#104);
#106=CARTESIAN_POINT('',(-7.086614173228E-2,-2.952755905512E-2,
3.149606299213E-2));
#107=VERTEX_POINT('',#106);
#108=CARTESIAN_POINT('',(-6.496062992126E-2,-7.874015748031E-2,
1.377952755906E-2));
#109=VERTEX_POINT('',#108);
#110=CARTESIAN_POINT('',(-7.086614173228E-2,-7.874015748031E-2,
3.149606299213E-2));
#111=VERTEX_POINT('',#110);
#112=CARTESIAN_POINT('',(-6.496062992126E-2,0.E0,0.E0));
#113=DIRECTION('',(1.E0,0.E0,0.E0));
#114=DIRECTION('',(0.E0,0.E0,-1.E0));
#115=AXIS2_PLACEMENT_3D('',#112,#113,#114);
#116=PLANE('',#115);
#118=ORIENTED_EDGE('',*,*,#117,.F.);
#120=ORIENTED_EDGE('',*,*,#119,.F.);
#122=ORIENTED_EDGE('',*,*,#121,.F.);
#124=ORIENTED_EDGE('',*,*,#123,.F.);
#126=ORIENTED_EDGE('',*,*,#125,.F.);
#128=ORIENTED_EDGE('',*,*,#127,.F.);
#129=EDGE_LOOP('',(#118,#120,#122,#124,#126,#128));
#130=FACE_OUTER_BOUND('',#129,.F.);
#132=FILL_AREA_STYLE_COLOUR('',#10);
#133=FILL_AREA_STYLE('',(#132));
#134=SURFACE_STYLE_FILL_AREA(#133);
#135=SURFACE_SIDE_STYLE('',(#134));
#136=SURFACE_STYLE_USAGE(.BOTH.,#135);
#137=PRESENTATION_STYLE_ASSIGNMENT((#136));
#138=STYLED_ITEM('',(#137),#131);
#139=CARTESIAN_POINT('',(-7.086614173228E-2,-7.874015748031E-2,
1.377952755906E-2));
#140=DIRECTION('',(0.E0,0.E0,1.E0));
#141=DIRECTION('',(1.E0,0.E0,0.E0));
#142=AXIS2_PLACEMENT_3D('',#139,#140,#141);
#143=PLANE('',#142);
#144=ORIENTED_EDGE('',*,*,#117,.T.);
#146=ORIENTED_EDGE('',*,*,#145,.F.);
#148=ORIENTED_EDGE('',*,*,#147,.F.);
#150=ORIENTED_EDGE('',*,*,#149,.T.);
#151=EDGE_LOOP('',(#144,#146,#148,#150));
#152=FACE_OUTER_BOUND('',#151,.F.);
#154=FILL_AREA_STYLE_COLOUR('',#10);
#155=FILL_AREA_STYLE('',(#154));
#156=SURFACE_STYLE_FILL_AREA(#155);
#157=SURFACE_SIDE_STYLE('',(#156));
#158=SURFACE_STYLE_USAGE(.BOTH.,#157);
#159=PRESENTATION_STYLE_ASSIGNMENT((#158));
#160=STYLED_ITEM('',(#159),#153);
#161=CARTESIAN_POINT('',(-7.086614173228E-2,-2.066929133858E-1,
1.377952755906E-2));
#162=DIRECTION('',(0.E0,-1.E0,0.E0));
#163=DIRECTION('',(0.E0,0.E0,-1.E0));
#164=AXIS2_PLACEMENT_3D('',#161,#162,#163);
#165=PLANE('',#164);
#166=ORIENTED_EDGE('',*,*,#127,.T.);
#168=ORIENTED_EDGE('',*,*,#167,.T.);
#170=ORIENTED_EDGE('',*,*,#169,.F.);
#171=ORIENTED_EDGE('',*,*,#145,.T.);
#172=EDGE_LOOP('',(#166,#168,#170,#171));
#173=FACE_OUTER_BOUND('',#172,.F.);
#175=FILL_AREA_STYLE_COLOUR('',#10);
#176=FILL_AREA_STYLE('',(#175));
#177=SURFACE_STYLE_FILL_AREA(#176);
#178=SURFACE_SIDE_STYLE('',(#177));
#179=SURFACE_STYLE_USAGE(.BOTH.,#178);
#180=PRESENTATION_STYLE_ASSIGNMENT((#179));
#181=STYLED_ITEM('',(#180),#174);
#182=CARTESIAN_POINT('',(-7.086614173228E-2,-2.066929133858E-1,
7.874015748031E-3));
#183=DIRECTION('',(0.E0,0.E0,-1.E0));
#184=DIRECTION('',(-1.E0,0.E0,0.E0));
#185=AXIS2_PLACEMENT_3D('',#182,#183,#184);
#186=PLANE('',#185);
#187=ORIENTED_EDGE('',*,*,#125,.T.);
#189=ORIENTED_EDGE('',*,*,#188,.F.);
#191=ORIENTED_EDGE('',*,*,#190,.F.);
#192=ORIENTED_EDGE('',*,*,#167,.F.);
#193=EDGE_LOOP('',(#187,#189,#191,#192));
#194=FACE_OUTER_BOUND('',#193,.F.);
#196=FILL_AREA_STYLE_COLOUR('',#10);
#197=FILL_AREA_STYLE('',(#196));
#198=SURFACE_STYLE_FILL_AREA(#197);
#199=SURFACE_SIDE_STYLE('',(#198));
#200=SURFACE_STYLE_USAGE(.BOTH.,#199);
#201=PRESENTATION_STYLE_ASSIGNMENT((#200));
#202=STYLED_ITEM('',(#201),#195);
#203=CARTESIAN_POINT('',(-7.086614173228E-2,-2.952755905512E-2,
7.874015748031E-3));
#204=DIRECTION('',(0.E0,1.E0,0.E0));
#205=DIRECTION('',(0.E0,0.E0,1.E0));
#206=AXIS2_PLACEMENT_3D('',#203,#204,#205);
#207=PLANE('',#206);
#208=ORIENTED_EDGE('',*,*,#123,.T.);
#210=ORIENTED_EDGE('',*,*,#209,.F.);
#212=ORIENTED_EDGE('',*,*,#211,.F.);
#213=ORIENTED_EDGE('',*,*,#188,.T.);
#214=EDGE_LOOP('',(#208,#210,#212,#213));
#215=FACE_OUTER_BOUND('',#214,.F.);
#217=FILL_AREA_STYLE_COLOUR('',#10);
#218=FILL_AREA_STYLE('',(#217));
#219=SURFACE_STYLE_FILL_AREA(#218);
#220=SURFACE_SIDE_STYLE('',(#219));
#221=SURFACE_STYLE_USAGE(.BOTH.,#220);
#222=PRESENTATION_STYLE_ASSIGNMENT((#221));
#223=STYLED_ITEM('',(#222),#216);
#224=CARTESIAN_POINT('',(-7.086614173228E-2,-2.952755905512E-2,
3.149606299213E-2));
#225=DIRECTION('',(0.E0,0.E0,1.E0));
#226=DIRECTION('',(1.E0,0.E0,0.E0));
#227=AXIS2_PLACEMENT_3D('',#224,#225,#226);
#228=PLANE('',#227);
#229=ORIENTED_EDGE('',*,*,#121,.T.);
#231=ORIENTED_EDGE('',*,*,#230,.F.);
#233=ORIENTED_EDGE('',*,*,#232,.F.);
#234=ORIENTED_EDGE('',*,*,#209,.T.);
#235=EDGE_LOOP('',(#229,#231,#233,#234));
#236=FACE_OUTER_BOUND('',#235,.F.);
#238=FILL_AREA_STYLE_COLOUR('',#10);
#239=FILL_AREA_STYLE('',(#238));
#240=SURFACE_STYLE_FILL_AREA(#239);
#241=SURFACE_SIDE_STYLE('',(#240));
#242=SURFACE_STYLE_USAGE(.BOTH.,#241);
#243=PRESENTATION_STYLE_ASSIGNMENT((#242));
#244=STYLED_ITEM('',(#243),#237);
#245=CARTESIAN_POINT('',(-7.086614173228E-2,-7.874015748031E-2,
3.149606299213E-2));
#246=DIRECTION('',(0.E0,-1.E0,0.E0));
#247=DIRECTION('',(0.E0,0.E0,-1.E0));
#248=AXIS2_PLACEMENT_3D('',#245,#246,#247);
#249=PLANE('',#248);
#250=ORIENTED_EDGE('',*,*,#119,.T.);
#251=ORIENTED_EDGE('',*,*,#149,.F.);
#253=ORIENTED_EDGE('',*,*,#252,.F.);
#254=ORIENTED_EDGE('',*,*,#230,.T.);
#255=EDGE_LOOP('',(#250,#251,#253,#254));
#256=FACE_OUTER_BOUND('',#255,.F.);
#258=FILL_AREA_STYLE_COLOUR('',#10);
#259=FILL_AREA_STYLE('',(#258));
#260=SURFACE_STYLE_FILL_AREA(#259);
#261=SURFACE_SIDE_STYLE('',(#260));
#262=SURFACE_STYLE_USAGE(.BOTH.,#261);
#263=PRESENTATION_STYLE_ASSIGNMENT((#262));
#264=STYLED_ITEM('',(#263),#257);
#265=CARTESIAN_POINT('',(-7.086614173228E-2,0.E0,0.E0));
#266=DIRECTION('',(1.E0,0.E0,0.E0));
#267=DIRECTION('',(0.E0,0.E0,-1.E0));
#268=AXIS2_PLACEMENT_3D('',#265,#266,#267);
#269=PLANE('',#268);
#270=ORIENTED_EDGE('',*,*,#147,.T.);
#271=ORIENTED_EDGE('',*,*,#169,.T.);
#272=ORIENTED_EDGE('',*,*,#190,.T.);
#273=ORIENTED_EDGE('',*,*,#211,.T.);
#274=ORIENTED_EDGE('',*,*,#232,.T.);
#275=ORIENTED_EDGE('',*,*,#252,.T.);
#276=EDGE_LOOP('',(#270,#271,#272,#273,#274,#275));
#277=FACE_OUTER_BOUND('',#276,.F.);
#279=FILL_AREA_STYLE_COLOUR('',#10);
#280=FILL_AREA_STYLE('',(#279));
#281=SURFACE_STYLE_FILL_AREA(#280);
#282=SURFACE_SIDE_STYLE('',(#281));
#283=SURFACE_STYLE_USAGE(.BOTH.,#282);
#284=PRESENTATION_STYLE_ASSIGNMENT((#283));
#285=STYLED_ITEM('',(#284),#278);
#288=PRESENTATION_LAYER_ASSIGNMENT('SHELL_855','',(#131,#153,#174,#195,#216,
#237,#257,#278,#287));
#290=LENGTH_MEASURE_WITH_UNIT(LENGTH_MEASURE(2.54E1),#289);
#291=(CONVERSION_BASED_UNIT('INCH',#290)LENGTH_UNIT()NAMED_UNIT(*));
#293=PLANE_ANGLE_MEASURE_WITH_UNIT(PLANE_ANGLE_MEASURE(1.745329251994E-2),#292);
#294=(CONVERSION_BASED_UNIT('DEGREE',#293)NAMED_UNIT(*)PLANE_ANGLE_UNIT());
#296=UNCERTAINTY_MEASURE_WITH_UNIT(LENGTH_MEASURE(1.102474662876E-4),#291,
'closure',
'Maximum model space distance between geometric entities at asserted connectivities');
#298=CARTESIAN_POINT('',(0.E0,0.E0,0.E0));
#299=DIRECTION('',(0.E0,0.E0,1.E0));
#300=DIRECTION('',(1.E0,0.E0,0.E0));
#303=MECHANICAL_DESIGN_GEOMETRIC_PRESENTATION_REPRESENTATION('',(#138,#160,#181,
#202,#223,#244,#264,#285),#297);
#304=APPLICATION_CONTEXT('automotive design');
#305=APPLICATION_PROTOCOL_DEFINITION('international standard',
'config_control_design',1994,#304);
#306=PRODUCT_DEFINITION_CONTEXT('',#304,'design');
#307=PRODUCT_CONTEXT('',#304,'mechanical');
#308=PRODUCT('FPC-40-3814','FPC-40-3814','NOT SPECIFIED',(#307));
#309=PRODUCT_DEFINITION_FORMATION_WITH_SPECIFIED_SOURCE('1','LAST_VERSION',#308,
.MADE.);
#317=LENGTH_MEASURE_WITH_UNIT(LENGTH_MEASURE(2.54E1),#316);
#318=(CONVERSION_BASED_UNIT('INCH',#317)LENGTH_UNIT()NAMED_UNIT(*));
#319=DERIVED_UNIT_ELEMENT(#318,2.E0);
#320=AREA_UNIT((#319));
#321=MEASURE_REPRESENTATION_ITEM('surface area measure',AREA_MEASURE(4.005E-6),
#320);
#326=LENGTH_MEASURE_WITH_UNIT(LENGTH_MEASURE(2.54E1),#325);
#327=(CONVERSION_BASED_UNIT('INCH',#326)LENGTH_UNIT()NAMED_UNIT(*));
#328=DERIVED_UNIT_ELEMENT(#327,2.E0);
#329=AREA_UNIT((#328));
#330=MEASURE_REPRESENTATION_ITEM('surface area measure',AREA_MEASURE(4.005E-6),
#329);
#1=DRAUGHTING_PRE_DEFINED_COLOUR('green');
#2=COLOUR_RGB('',1.1E-2,1.2E-2,1.E0);
#3=COLOUR_RGB('',2.352941176471E-1,2.352941176471E-1,2.352941176471E-1);
#4=COLOUR_RGB('',4.1E-1,2.61589E-1,1.12848E-1);
#5=COLOUR_RGB('',5.04854E-1,1.5455E-2,1.5455E-2);
#6=COLOUR_RGB('',6.35294E-1,6.86275E-1,7.4902E-1);
#7=COLOUR_RGB('',6.40777E-1,6.40777E-1,6.40777E-1);
#8=COLOUR_RGB('',6.69062E-1,6.69903E-1,6.55217E-1);
#9=COLOUR_RGB('',9.21569E-1,7.05882E-1,4.70588E-1);
#10=COLOUR_RGB('',9.843137254902E-1,9.843137254902E-1,8.980392156863E-1);
#11=DRAUGHTING_PRE_DEFINED_COLOUR('red');
#12=DRAUGHTING_PRE_DEFINED_COLOUR('yellow');
#13=COLOUR_RGB('',1.E0,1.E0,5.3E-1);
#14=COLOUR_RGB('',1.E0,1.E0,9.49E-1);
#15=DRAUGHTING_PRE_DEFINED_COLOUR('white');
#117=EDGE_CURVE('',#109,#94,#19,.T.);
#119=EDGE_CURVE('',#101,#109,#23,.T.);
#121=EDGE_CURVE('',#100,#101,#27,.T.);
#123=EDGE_CURVE('',#103,#100,#31,.T.);
#125=EDGE_CURVE('',#95,#103,#35,.T.);
#127=EDGE_CURVE('',#94,#95,#39,.T.);
#131=ADVANCED_FACE('',(#130),#116,.T.);
#145=EDGE_CURVE('',#90,#94,#43,.T.);
#147=EDGE_CURVE('',#97,#90,#47,.T.);
#149=EDGE_CURVE('',#97,#109,#83,.T.);
#153=ADVANCED_FACE('',(#152),#143,.T.);
#167=EDGE_CURVE('',#95,#91,#63,.T.);
#169=EDGE_CURVE('',#90,#91,#51,.T.);
#174=ADVANCED_FACE('',(#173),#165,.T.);
#188=EDGE_CURVE('',#105,#103,#55,.T.);
#190=EDGE_CURVE('',#91,#105,#59,.T.);
#195=ADVANCED_FACE('',(#194),#186,.T.);
#209=EDGE_CURVE('',#107,#100,#67,.T.);
#211=EDGE_CURVE('',#105,#107,#71,.T.);
#216=ADVANCED_FACE('',(#215),#207,.T.);
#230=EDGE_CURVE('',#111,#101,#75,.T.);
#232=EDGE_CURVE('',#107,#111,#79,.T.);
#237=ADVANCED_FACE('',(#236),#228,.T.);
#252=EDGE_CURVE('',#111,#97,#87,.T.);
#257=ADVANCED_FACE('',(#256),#249,.T.);
#278=ADVANCED_FACE('',(#277),#269,.F.);
#286=CLOSED_SHELL('',(#131,#153,#174,#195,#216,#237,#257,#278));
#287=MANIFOLD_SOLID_BREP('',#286);
#289=(LENGTH_UNIT()NAMED_UNIT(*)SI_UNIT(.MILLI.,.METRE.));
#292=(NAMED_UNIT(*)PLANE_ANGLE_UNIT()SI_UNIT($,.RADIAN.));
#295=(NAMED_UNIT(*)SI_UNIT($,.STERADIAN.)SOLID_ANGLE_UNIT());
#297=(GEOMETRIC_REPRESENTATION_CONTEXT(3)GLOBAL_UNCERTAINTY_ASSIGNED_CONTEXT((
#296))GLOBAL_UNIT_ASSIGNED_CONTEXT((#291,#294,#295))REPRESENTATION_CONTEXT
('ID1','3'));
#301=AXIS2_PLACEMENT_3D('',#298,#299,#300);
#302=ADVANCED_BREP_SHAPE_REPRESENTATION('',(#301,#287),#297);
#310=PRODUCT_DEFINITION('design','',#309,#306);
#311=PRODUCT_DEFINITION_SHAPE('','SHAPE FOR FPC-40-3814.',#310);
#312=SHAPE_ASPECT('','solid data associated with FPC-40-3814',#311,.F.);
#313=PROPERTY_DEFINITION('',
'shape for solid data with which properties are associated',#312);
#314=SHAPE_REPRESENTATION('',(#287),#297);
#315=SHAPE_DEFINITION_REPRESENTATION(#313,#314);
#316=(LENGTH_UNIT()NAMED_UNIT(*)SI_UNIT(.MILLI.,.METRE.));
#322=PROPERTY_DEFINITION('geometric validation property','area of FPC-40-3814',
#312);
#323=REPRESENTATION('surface area',(#321),#297);
#324=PROPERTY_DEFINITION_REPRESENTATION(#322,#323);
#325=(LENGTH_UNIT()NAMED_UNIT(*)SI_UNIT(.MILLI.,.METRE.));
#331=PROPERTY_DEFINITION('geometric validation property','area of FPC-40-3814',
#311);
#332=REPRESENTATION('surface area',(#330),#297);
#333=PROPERTY_DEFINITION_REPRESENTATION(#331,#332);
#334=SHAPE_DEFINITION_REPRESENTATION(#311,#302);
ENDSEC;
END-ISO-10303-21;
