ISO-10303-21;
HEADER;
FILE_DESCRIPTION((''),'2;1');
FILE_NAME('FPC-40-3684','2026-06-15T13:46:02',('Esia'),(''),
'CREO PARAMETRIC BY PTC INC, 2025102','CREO PARAMETRIC BY PTC INC, 2025102','');
FILE_SCHEMA((
'AP242_MANAGED_MODEL_BASED_3D_ENGINEERING_MIM_LF { 1 0 10303 442 1 1 4 }'));
ENDSEC;
DATA;
#16=CARTESIAN_POINT('',(8.464566929134E-1,-1.574803149606E-1,
5.511811023622E-2));
#17=DIRECTION('',(1.E0,0.E0,0.E0));
#18=DIRECTION('',(0.E0,0.E0,-1.E0));
#19=AXIS2_PLACEMENT_3D('',#16,#17,#18);
#21=CARTESIAN_POINT('',(8.464566929134E-1,-1.574803149606E-1,
5.511811023622E-2));
#22=DIRECTION('',(1.E0,0.E0,0.E0));
#23=DIRECTION('',(0.E0,0.E0,1.E0));
#24=AXIS2_PLACEMENT_3D('',#21,#22,#23);
#26=CARTESIAN_POINT('',(8.346456692913E-1,-1.574803149606E-1,
5.511811023622E-2));
#27=DIRECTION('',(-1.E0,0.E0,0.E0));
#28=DIRECTION('',(0.E0,0.E0,-1.E0));
#29=AXIS2_PLACEMENT_3D('',#26,#27,#28);
#31=CARTESIAN_POINT('',(8.346456692913E-1,-1.574803149606E-1,
5.511811023622E-2));
#32=DIRECTION('',(-1.E0,0.E0,0.E0));
#33=DIRECTION('',(0.E0,0.E0,1.E0));
#34=AXIS2_PLACEMENT_3D('',#31,#32,#33);
#36=DIRECTION('',(1.E0,0.E0,0.E0));
#37=VECTOR('',#36,1.181102362205E-2);
#38=CARTESIAN_POINT('',(8.346456692913E-1,-1.574803149606E-1,
6.889763779528E-2));
#39=LINE('',#38,#37);
#40=DIRECTION('',(1.E0,0.E0,0.E0));
#41=VECTOR('',#40,1.181102362205E-2);
#42=CARTESIAN_POINT('',(8.346456692913E-1,-1.574803149606E-1,
4.133858267717E-2));
#43=LINE('',#42,#41);
#44=CARTESIAN_POINT('',(8.346456692913E-1,-1.574803149606E-1,
4.133858267717E-2));
#45=CARTESIAN_POINT('',(8.464566929134E-1,-1.574803149606E-1,
4.133858267717E-2));
#46=VERTEX_POINT('',#44);
#47=VERTEX_POINT('',#45);
#48=CARTESIAN_POINT('',(8.346456692913E-1,-1.574803149606E-1,
6.889763779528E-2));
#49=CARTESIAN_POINT('',(8.464566929134E-1,-1.574803149606E-1,
6.889763779528E-2));
#50=VERTEX_POINT('',#48);
#51=VERTEX_POINT('',#49);
#52=CARTESIAN_POINT('',(8.464566929134E-1,0.E0,0.E0));
#53=DIRECTION('',(1.E0,0.E0,0.E0));
#54=DIRECTION('',(0.E0,0.E0,-1.E0));
#55=AXIS2_PLACEMENT_3D('',#52,#53,#54);
#56=PLANE('',#55);
#58=ORIENTED_EDGE('',*,*,#57,.F.);
#60=ORIENTED_EDGE('',*,*,#59,.F.);
#61=EDGE_LOOP('',(#58,#60));
#62=FACE_OUTER_BOUND('',#61,.F.);
#64=FILL_AREA_STYLE_COLOUR('',#3);
#65=FILL_AREA_STYLE('',(#64));
#66=SURFACE_STYLE_FILL_AREA(#65);
#67=SURFACE_SIDE_STYLE('',(#66));
#68=SURFACE_STYLE_USAGE(.BOTH.,#67);
#69=PRESENTATION_STYLE_ASSIGNMENT((#68));
#70=STYLED_ITEM('',(#69),#63);
#71=CARTESIAN_POINT('',(8.346456692913E-1,-1.574803149606E-1,
5.511811023622E-2));
#72=DIRECTION('',(1.E0,0.E0,0.E0));
#73=DIRECTION('',(0.E0,0.E0,-1.E0));
#74=AXIS2_PLACEMENT_3D('',#71,#72,#73);
#75=CYLINDRICAL_SURFACE('',#74,1.377952755906E-2);
#77=ORIENTED_EDGE('',*,*,#76,.T.);
#79=ORIENTED_EDGE('',*,*,#78,.T.);
#80=ORIENTED_EDGE('',*,*,#57,.T.);
#82=ORIENTED_EDGE('',*,*,#81,.F.);
#83=EDGE_LOOP('',(#77,#79,#80,#82));
#84=FACE_OUTER_BOUND('',#83,.F.);
#86=FILL_AREA_STYLE_COLOUR('',#3);
#87=FILL_AREA_STYLE('',(#86));
#88=SURFACE_STYLE_FILL_AREA(#87);
#89=SURFACE_SIDE_STYLE('',(#88));
#90=SURFACE_STYLE_USAGE(.BOTH.,#89);
#91=PRESENTATION_STYLE_ASSIGNMENT((#90));
#92=STYLED_ITEM('',(#91),#85);
#93=CARTESIAN_POINT('',(8.346456692913E-1,0.E0,0.E0));
#94=DIRECTION('',(1.E0,0.E0,0.E0));
#95=DIRECTION('',(0.E0,0.E0,-1.E0));
#96=AXIS2_PLACEMENT_3D('',#93,#94,#95);
#97=PLANE('',#96);
#99=ORIENTED_EDGE('',*,*,#98,.F.);
#100=ORIENTED_EDGE('',*,*,#76,.F.);
#101=EDGE_LOOP('',(#99,#100));
#102=FACE_OUTER_BOUND('',#101,.F.);
#104=FILL_AREA_STYLE_COLOUR('',#3);
#105=FILL_AREA_STYLE('',(#104));
#106=SURFACE_STYLE_FILL_AREA(#105);
#107=SURFACE_SIDE_STYLE('',(#106));
#108=SURFACE_STYLE_USAGE(.BOTH.,#107);
#109=PRESENTATION_STYLE_ASSIGNMENT((#108));
#110=STYLED_ITEM('',(#109),#103);
#111=CARTESIAN_POINT('',(8.346456692913E-1,-1.574803149606E-1,
5.511811023622E-2));
#112=DIRECTION('',(1.E0,0.E0,0.E0));
#113=DIRECTION('',(0.E0,0.E0,-1.E0));
#114=AXIS2_PLACEMENT_3D('',#111,#112,#113);
#115=CYLINDRICAL_SURFACE('',#114,1.377952755906E-2);
#116=ORIENTED_EDGE('',*,*,#98,.T.);
#117=ORIENTED_EDGE('',*,*,#81,.T.);
#118=ORIENTED_EDGE('',*,*,#59,.T.);
#119=ORIENTED_EDGE('',*,*,#78,.F.);
#120=EDGE_LOOP('',(#116,#117,#118,#119));
#121=FACE_OUTER_BOUND('',#120,.F.);
#123=FILL_AREA_STYLE_COLOUR('',#3);
#124=FILL_AREA_STYLE('',(#123));
#125=SURFACE_STYLE_FILL_AREA(#124);
#126=SURFACE_SIDE_STYLE('',(#125));
#127=SURFACE_STYLE_USAGE(.BOTH.,#126);
#128=PRESENTATION_STYLE_ASSIGNMENT((#127));
#129=STYLED_ITEM('',(#128),#122);
#132=PRESENTATION_LAYER_ASSIGNMENT('SHELL_880','',(#63,#85,#103,#122,#131));
#134=LENGTH_MEASURE_WITH_UNIT(LENGTH_MEASURE(2.54E1),#133);
#135=(CONVERSION_BASED_UNIT('INCH',#134)LENGTH_UNIT()NAMED_UNIT(*));
#137=PLANE_ANGLE_MEASURE_WITH_UNIT(PLANE_ANGLE_MEASURE(1.745329251994E-2),#136);
#138=(CONVERSION_BASED_UNIT('DEGREE',#137)NAMED_UNIT(*)PLANE_ANGLE_UNIT());
#140=UNCERTAINTY_MEASURE_WITH_UNIT(LENGTH_MEASURE(3.393930786167E-5),#135,
'closure',
'Maximum model space distance between geometric entities at asserted connectivities');
#142=CARTESIAN_POINT('',(0.E0,0.E0,0.E0));
#143=DIRECTION('',(0.E0,0.E0,1.E0));
#144=DIRECTION('',(1.E0,0.E0,0.E0));
#147=MECHANICAL_DESIGN_GEOMETRIC_PRESENTATION_REPRESENTATION('',(#70,#92,#110,
#129),#141);
#148=APPLICATION_CONTEXT('automotive design');
#149=APPLICATION_PROTOCOL_DEFINITION('international standard',
'config_control_design',1994,#148);
#150=PRODUCT_DEFINITION_CONTEXT('',#148,'design');
#151=PRODUCT_CONTEXT('',#148,'mechanical');
#152=PRODUCT('FPC-40-3684','FPC-40-3684','NOT SPECIFIED',(#151));
#153=PRODUCT_DEFINITION_FORMATION_WITH_SPECIFIED_SOURCE('1','LAST_VERSION',#152,
.MADE.);
#161=LENGTH_MEASURE_WITH_UNIT(LENGTH_MEASURE(2.54E1),#160);
#162=(CONVERSION_BASED_UNIT('INCH',#161)LENGTH_UNIT()NAMED_UNIT(*));
#163=DERIVED_UNIT_ELEMENT(#162,2.E0);
#164=AREA_UNIT((#163));
#165=MEASURE_REPRESENTATION_ITEM('surface area measure',AREA_MEASURE(
1.429424656774E-6),#164);
#170=LENGTH_MEASURE_WITH_UNIT(LENGTH_MEASURE(2.54E1),#169);
#171=(CONVERSION_BASED_UNIT('INCH',#170)LENGTH_UNIT()NAMED_UNIT(*));
#172=DERIVED_UNIT_ELEMENT(#171,2.E0);
#173=AREA_UNIT((#172));
#174=MEASURE_REPRESENTATION_ITEM('surface area measure',AREA_MEASURE(
1.429424656774E-6),#173);
#1=DRAUGHTING_PRE_DEFINED_COLOUR('green');
#2=COLOUR_RGB('',1.1E-2,1.2E-2,1.E0);
#3=COLOUR_RGB('',1.372549019608E-1,1.372549019608E-1,1.372549019608E-1);
#4=COLOUR_RGB('',2.352941176471E-1,2.352941176471E-1,2.352941176471E-1);
#5=COLOUR_RGB('',4.1E-1,2.61589E-1,1.12848E-1);
#6=COLOUR_RGB('',5.04854E-1,1.5455E-2,1.5455E-2);
#7=COLOUR_RGB('',6.35294E-1,6.86275E-1,7.4902E-1);
#8=COLOUR_RGB('',6.40777E-1,6.40777E-1,6.40777E-1);
#9=COLOUR_RGB('',6.69062E-1,6.69903E-1,6.55217E-1);
#10=COLOUR_RGB('',9.21569E-1,7.05882E-1,4.70588E-1);
#11=DRAUGHTING_PRE_DEFINED_COLOUR('red');
#12=DRAUGHTING_PRE_DEFINED_COLOUR('yellow');
#13=COLOUR_RGB('',1.E0,1.E0,5.3E-1);
#14=COLOUR_RGB('',1.E0,1.E0,9.49E-1);
#15=DRAUGHTING_PRE_DEFINED_COLOUR('white');
#20=CIRCLE('',#19,1.377952755906E-2);
#25=CIRCLE('',#24,1.377952755906E-2);
#30=CIRCLE('',#29,1.377952755906E-2);
#35=CIRCLE('',#34,1.377952755906E-2);
#57=EDGE_CURVE('',#47,#51,#20,.T.);
#59=EDGE_CURVE('',#51,#47,#25,.T.);
#63=ADVANCED_FACE('',(#62),#56,.T.);
#76=EDGE_CURVE('',#50,#46,#35,.T.);
#78=EDGE_CURVE('',#46,#47,#43,.T.);
#81=EDGE_CURVE('',#50,#51,#39,.T.);
#85=ADVANCED_FACE('',(#84),#75,.T.);
#98=EDGE_CURVE('',#46,#50,#30,.T.);
#103=ADVANCED_FACE('',(#102),#97,.F.);
#122=ADVANCED_FACE('',(#121),#115,.T.);
#130=CLOSED_SHELL('',(#63,#85,#103,#122));
#131=MANIFOLD_SOLID_BREP('',#130);
#133=(LENGTH_UNIT()NAMED_UNIT(*)SI_UNIT(.MILLI.,.METRE.));
#136=(NAMED_UNIT(*)PLANE_ANGLE_UNIT()SI_UNIT($,.RADIAN.));
#139=(NAMED_UNIT(*)SI_UNIT($,.STERADIAN.)SOLID_ANGLE_UNIT());
#141=(GEOMETRIC_REPRESENTATION_CONTEXT(3)GLOBAL_UNCERTAINTY_ASSIGNED_CONTEXT((
#140))GLOBAL_UNIT_ASSIGNED_CONTEXT((#135,#138,#139))REPRESENTATION_CONTEXT
('ID1','3'));
#145=AXIS2_PLACEMENT_3D('',#142,#143,#144);
#146=ADVANCED_BREP_SHAPE_REPRESENTATION('',(#145,#131),#141);
#154=PRODUCT_DEFINITION('design','',#153,#150);
#155=PRODUCT_DEFINITION_SHAPE('','SHAPE FOR FPC-40-3684.',#154);
#156=SHAPE_ASPECT('','solid data associated with FPC-40-3684',#155,.F.);
#157=PROPERTY_DEFINITION('',
'shape for solid data with which properties are associated',#156);
#158=SHAPE_REPRESENTATION('',(#131),#141);
#159=SHAPE_DEFINITION_REPRESENTATION(#157,#158);
#160=(LENGTH_UNIT()NAMED_UNIT(*)SI_UNIT(.MILLI.,.METRE.));
#166=PROPERTY_DEFINITION('geometric validation property','area of FPC-40-3684',
#156);
#167=REPRESENTATION('surface area',(#165),#141);
#168=PROPERTY_DEFINITION_REPRESENTATION(#166,#167);
#169=(LENGTH_UNIT()NAMED_UNIT(*)SI_UNIT(.MILLI.,.METRE.));
#175=PROPERTY_DEFINITION('geometric validation property','area of FPC-40-3684',
#155);
#176=REPRESENTATION('surface area',(#174),#141);
#177=PROPERTY_DEFINITION_REPRESENTATION(#175,#176);
#178=SHAPE_DEFINITION_REPRESENTATION(#155,#146);
ENDSEC;
END-ISO-10303-21;
