ISO-10303-21;
HEADER;
FILE_DESCRIPTION((''),'2;1');
FILE_NAME('FPC-40-3778','2026-06-15T13:46:02',('Esia'),(''),
'CREO PARAMETRIC BY PTC INC, 2025102','CREO PARAMETRIC BY PTC INC, 2025102','');
FILE_SCHEMA((
'AP242_MANAGED_MODEL_BASED_3D_ENGINEERING_MIM_LF { 1 0 10303 442 1 1 4 }'));
ENDSEC;
DATA;
#16=DIRECTION('',(0.E0,0.E0,-1.E0));
#17=VECTOR('',#16,3.149606299213E-2);
#18=CARTESIAN_POINT('',(7.972440944882E-1,-1.377952755906E-1,
3.149606299213E-2));
#19=LINE('',#18,#17);
#20=DIRECTION('',(0.E0,1.E0,0.E0));
#21=VECTOR('',#20,6.889763779528E-2);
#22=CARTESIAN_POINT('',(7.972440944882E-1,-2.066929133858E-1,
3.149606299213E-2));
#23=LINE('',#22,#21);
#24=DIRECTION('',(0.E0,0.E0,1.E0));
#25=VECTOR('',#24,3.149606299213E-2);
#26=CARTESIAN_POINT('',(7.972440944882E-1,-2.066929133858E-1,0.E0));
#27=LINE('',#26,#25);
#28=DIRECTION('',(0.E0,-1.E0,0.E0));
#29=VECTOR('',#28,6.889763779528E-2);
#30=CARTESIAN_POINT('',(7.972440944882E-1,-1.377952755906E-1,0.E0));
#31=LINE('',#30,#29);
#32=DIRECTION('',(0.E0,0.E0,-1.E0));
#33=VECTOR('',#32,7.874015748031E-3);
#34=CARTESIAN_POINT('',(8.055118110236E-1,-1.377952755906E-1,
7.874015748031E-3));
#35=LINE('',#34,#33);
#36=DIRECTION('',(0.E0,0.E0,-1.E0));
#37=VECTOR('',#36,2.362204724409E-2);
#38=CARTESIAN_POINT('',(8.055118110236E-1,-1.377952755906E-1,
3.149606299213E-2));
#39=LINE('',#38,#37);
#40=DIRECTION('',(0.E0,-1.E0,0.E0));
#41=VECTOR('',#40,6.889763779528E-2);
#42=CARTESIAN_POINT('',(8.055118110236E-1,-1.377952755906E-1,0.E0));
#43=LINE('',#42,#41);
#44=DIRECTION('',(1.E0,0.E0,0.E0));
#45=VECTOR('',#44,8.267716535433E-3);
#46=CARTESIAN_POINT('',(7.972440944882E-1,-1.377952755906E-1,0.E0));
#47=LINE('',#46,#45);
#48=DIRECTION('',(-1.E0,0.E0,0.E0));
#49=VECTOR('',#48,8.267716535433E-3);
#50=CARTESIAN_POINT('',(8.055118110236E-1,-2.066929133858E-1,0.E0));
#51=LINE('',#50,#49);
#52=DIRECTION('',(0.E0,0.E0,-1.E0));
#53=VECTOR('',#52,7.874015748031E-3);
#54=CARTESIAN_POINT('',(8.055118110236E-1,-2.066929133858E-1,
7.874015748031E-3));
#55=LINE('',#54,#53);
#56=DIRECTION('',(0.E0,-1.E0,0.E0));
#57=VECTOR('',#56,6.889763779528E-2);
#58=CARTESIAN_POINT('',(8.055118110236E-1,-1.377952755906E-1,
7.874015748031E-3));
#59=LINE('',#58,#57);
#60=DIRECTION('',(1.E0,0.E0,0.E0));
#61=VECTOR('',#60,3.307086614173E-2);
#62=CARTESIAN_POINT('',(8.055118110236E-1,-2.066929133858E-1,
7.874015748031E-3));
#63=LINE('',#62,#61);
#64=DIRECTION('',(0.E0,0.E0,-1.E0));
#65=VECTOR('',#64,1.771653543307E-2);
#66=CARTESIAN_POINT('',(8.326771653543E-1,-2.066929133858E-1,
3.149606299213E-2));
#67=LINE('',#66,#65);
#68=DIRECTION('',(0.E0,-1.E0,0.E0));
#69=VECTOR('',#68,1.279527559055E-1);
#70=CARTESIAN_POINT('',(8.326771653543E-1,-7.874015748031E-2,
3.149606299213E-2));
#71=LINE('',#70,#69);
#72=DIRECTION('',(0.E0,0.E0,1.E0));
#73=VECTOR('',#72,1.771653543307E-2);
#74=CARTESIAN_POINT('',(8.326771653543E-1,-7.874015748031E-2,
1.377952755906E-2));
#75=LINE('',#74,#73);
#76=DIRECTION('',(0.E0,1.E0,0.E0));
#77=VECTOR('',#76,1.279527559055E-1);
#78=CARTESIAN_POINT('',(8.326771653543E-1,-2.066929133858E-1,
1.377952755906E-2));
#79=LINE('',#78,#77);
#80=DIRECTION('',(-1.E0,0.E0,0.E0));
#81=VECTOR('',#80,8.267716535433E-3);
#82=CARTESIAN_POINT('',(8.055118110236E-1,-1.377952755906E-1,
3.149606299213E-2));
#83=LINE('',#82,#81);
#84=DIRECTION('',(0.E0,-1.E0,0.E0));
#85=VECTOR('',#84,1.082677165354E-1);
#86=CARTESIAN_POINT('',(8.055118110236E-1,-2.952755905512E-2,
3.149606299213E-2));
#87=LINE('',#86,#85);
#88=DIRECTION('',(-1.E0,0.E0,0.E0));
#89=VECTOR('',#88,3.307086614173E-2);
#90=CARTESIAN_POINT('',(8.385826771654E-1,-2.952755905512E-2,
3.149606299213E-2));
#91=LINE('',#90,#89);
#92=DIRECTION('',(0.E0,1.E0,0.E0));
#93=VECTOR('',#92,4.921259842520E-2);
#94=CARTESIAN_POINT('',(8.385826771654E-1,-7.874015748031E-2,
3.149606299213E-2));
#95=LINE('',#94,#93);
#96=DIRECTION('',(1.E0,0.E0,0.E0));
#97=VECTOR('',#96,5.905511811024E-3);
#98=CARTESIAN_POINT('',(8.326771653543E-1,-7.874015748031E-2,
3.149606299213E-2));
#99=LINE('',#98,#97);
#100=DIRECTION('',(1.E0,0.E0,0.E0));
#101=VECTOR('',#100,3.543307086614E-2);
#102=CARTESIAN_POINT('',(7.972440944882E-1,-2.066929133858E-1,
3.149606299213E-2));
#103=LINE('',#102,#101);
#104=DIRECTION('',(0.E0,-1.E0,0.E0));
#105=VECTOR('',#104,1.082677165354E-1);
#106=CARTESIAN_POINT('',(8.055118110236E-1,-2.952755905512E-2,
7.874015748031E-3));
#107=LINE('',#106,#105);
#108=DIRECTION('',(0.E0,0.E0,-1.E0));
#109=VECTOR('',#108,2.362204724409E-2);
#110=CARTESIAN_POINT('',(8.055118110236E-1,-2.952755905512E-2,
3.149606299213E-2));
#111=LINE('',#110,#109);
#112=DIRECTION('',(0.E0,1.E0,0.E0));
#113=VECTOR('',#112,1.771653543307E-1);
#114=CARTESIAN_POINT('',(8.385826771654E-1,-2.066929133858E-1,
7.874015748031E-3));
#115=LINE('',#114,#113);
#116=DIRECTION('',(0.E0,0.E0,-1.E0));
#117=VECTOR('',#116,5.905511811024E-3);
#118=CARTESIAN_POINT('',(8.385826771654E-1,-2.066929133858E-1,
1.377952755906E-2));
#119=LINE('',#118,#117);
#120=DIRECTION('',(0.E0,1.E0,0.E0));
#121=VECTOR('',#120,1.279527559055E-1);
#122=CARTESIAN_POINT('',(8.385826771654E-1,-2.066929133858E-1,
1.377952755906E-2));
#123=LINE('',#122,#121);
#124=DIRECTION('',(1.E0,0.E0,0.E0));
#125=VECTOR('',#124,5.905511811024E-3);
#126=CARTESIAN_POINT('',(8.326771653543E-1,-2.066929133858E-1,
1.377952755906E-2));
#127=LINE('',#126,#125);
#128=DIRECTION('',(0.E0,0.E0,1.E0));
#129=VECTOR('',#128,1.771653543307E-2);
#130=CARTESIAN_POINT('',(8.385826771654E-1,-7.874015748031E-2,
1.377952755906E-2));
#131=LINE('',#130,#129);
#132=DIRECTION('',(1.E0,0.E0,0.E0));
#133=VECTOR('',#132,5.905511811024E-3);
#134=CARTESIAN_POINT('',(8.326771653543E-1,-7.874015748031E-2,
1.377952755906E-2));
#135=LINE('',#134,#133);
#136=DIRECTION('',(0.E0,0.E0,-1.E0));
#137=VECTOR('',#136,2.362204724409E-2);
#138=CARTESIAN_POINT('',(8.385826771654E-1,-2.952755905512E-2,
3.149606299213E-2));
#139=LINE('',#138,#137);
#140=DIRECTION('',(-1.E0,0.E0,0.E0));
#141=VECTOR('',#140,3.307086614173E-2);
#142=CARTESIAN_POINT('',(8.385826771654E-1,-2.952755905512E-2,
7.874015748031E-3));
#143=LINE('',#142,#141);
#144=CARTESIAN_POINT('',(8.055118110236E-1,-2.066929133858E-1,
7.874015748031E-3));
#145=CARTESIAN_POINT('',(8.385826771654E-1,-2.066929133858E-1,
7.874015748031E-3));
#146=VERTEX_POINT('',#144);
#147=VERTEX_POINT('',#145);
#148=CARTESIAN_POINT('',(7.972440944882E-1,-2.066929133858E-1,0.E0));
#149=CARTESIAN_POINT('',(7.972440944882E-1,-2.066929133858E-1,
3.149606299213E-2));
#150=VERTEX_POINT('',#148);
#151=VERTEX_POINT('',#149);
#152=CARTESIAN_POINT('',(8.385826771654E-1,-2.952755905512E-2,
7.874015748031E-3));
#153=VERTEX_POINT('',#152);
#154=CARTESIAN_POINT('',(8.385826771654E-1,-2.066929133858E-1,
1.377952755906E-2));
#155=VERTEX_POINT('',#154);
#156=CARTESIAN_POINT('',(8.326771653543E-1,-2.066929133858E-1,
3.149606299213E-2));
#157=CARTESIAN_POINT('',(8.326771653543E-1,-2.066929133858E-1,
1.377952755906E-2));
#158=VERTEX_POINT('',#156);
#159=VERTEX_POINT('',#157);
#160=CARTESIAN_POINT('',(7.972440944882E-1,-1.377952755906E-1,0.E0));
#161=VERTEX_POINT('',#160);
#162=CARTESIAN_POINT('',(7.972440944882E-1,-1.377952755906E-1,
3.149606299213E-2));
#163=VERTEX_POINT('',#162);
#164=CARTESIAN_POINT('',(8.326771653543E-1,-7.874015748031E-2,
3.149606299213E-2));
#165=VERTEX_POINT('',#164);
#166=CARTESIAN_POINT('',(8.326771653543E-1,-7.874015748031E-2,
1.377952755906E-2));
#167=VERTEX_POINT('',#166);
#168=CARTESIAN_POINT('',(8.385826771654E-1,-7.874015748031E-2,
3.149606299213E-2));
#169=CARTESIAN_POINT('',(8.385826771654E-1,-2.952755905512E-2,
3.149606299213E-2));
#170=VERTEX_POINT('',#168);
#171=VERTEX_POINT('',#169);
#172=CARTESIAN_POINT('',(8.055118110236E-1,-2.066929133858E-1,0.E0));
#173=VERTEX_POINT('',#172);
#174=CARTESIAN_POINT('',(8.055118110236E-1,-1.377952755906E-1,0.E0));
#175=VERTEX_POINT('',#174);
#176=CARTESIAN_POINT('',(8.055118110236E-1,-1.377952755906E-1,
7.874015748031E-3));
#177=VERTEX_POINT('',#176);
#178=CARTESIAN_POINT('',(8.385826771654E-1,-7.874015748031E-2,
1.377952755906E-2));
#179=VERTEX_POINT('',#178);
#180=CARTESIAN_POINT('',(8.055118110236E-1,-2.952755905512E-2,
3.149606299213E-2));
#181=CARTESIAN_POINT('',(8.055118110236E-1,-2.952755905512E-2,
7.874015748031E-3));
#182=VERTEX_POINT('',#180);
#183=VERTEX_POINT('',#181);
#184=CARTESIAN_POINT('',(8.055118110236E-1,-1.377952755906E-1,
3.149606299213E-2));
#185=VERTEX_POINT('',#184);
#186=CARTESIAN_POINT('',(7.972440944882E-1,0.E0,0.E0));
#187=DIRECTION('',(1.E0,0.E0,0.E0));
#188=DIRECTION('',(0.E0,0.E0,-1.E0));
#189=AXIS2_PLACEMENT_3D('',#186,#187,#188);
#190=PLANE('',#189);
#192=ORIENTED_EDGE('',*,*,#191,.F.);
#194=ORIENTED_EDGE('',*,*,#193,.F.);
#196=ORIENTED_EDGE('',*,*,#195,.F.);
#198=ORIENTED_EDGE('',*,*,#197,.F.);
#199=EDGE_LOOP('',(#192,#194,#196,#198));
#200=FACE_OUTER_BOUND('',#199,.F.);
#202=FILL_AREA_STYLE_COLOUR('',#10);
#203=FILL_AREA_STYLE('',(#202));
#204=SURFACE_STYLE_FILL_AREA(#203);
#205=SURFACE_SIDE_STYLE('',(#204));
#206=SURFACE_STYLE_USAGE(.BOTH.,#205);
#207=PRESENTATION_STYLE_ASSIGNMENT((#206));
#208=STYLED_ITEM('',(#207),#201);
#209=CARTESIAN_POINT('',(7.972440944882E-1,-1.377952755906E-1,0.E0));
#210=DIRECTION('',(0.E0,1.E0,0.E0));
#211=DIRECTION('',(0.E0,0.E0,1.E0));
#212=AXIS2_PLACEMENT_3D('',#209,#210,#211);
#213=PLANE('',#212);
#215=ORIENTED_EDGE('',*,*,#214,.T.);
#217=ORIENTED_EDGE('',*,*,#216,.F.);
#219=ORIENTED_EDGE('',*,*,#218,.F.);
#221=ORIENTED_EDGE('',*,*,#220,.T.);
#222=ORIENTED_EDGE('',*,*,#191,.T.);
#223=EDGE_LOOP('',(#215,#217,#219,#221,#222));
#224=FACE_OUTER_BOUND('',#223,.F.);
#226=FILL_AREA_STYLE_COLOUR('',#10);
#227=FILL_AREA_STYLE('',(#226));
#228=SURFACE_STYLE_FILL_AREA(#227);
#229=SURFACE_SIDE_STYLE('',(#228));
#230=SURFACE_STYLE_USAGE(.BOTH.,#229);
#231=PRESENTATION_STYLE_ASSIGNMENT((#230));
#232=STYLED_ITEM('',(#231),#225);
#233=CARTESIAN_POINT('',(7.972440944882E-1,-2.066929133858E-1,0.E0));
#234=DIRECTION('',(0.E0,0.E0,-1.E0));
#235=DIRECTION('',(0.E0,1.E0,0.E0));
#236=AXIS2_PLACEMENT_3D('',#233,#234,#235);
#237=PLANE('',#236);
#239=ORIENTED_EDGE('',*,*,#238,.F.);
#240=ORIENTED_EDGE('',*,*,#214,.F.);
#241=ORIENTED_EDGE('',*,*,#197,.T.);
#243=ORIENTED_EDGE('',*,*,#242,.F.);
#244=EDGE_LOOP('',(#239,#240,#241,#243));
#245=FACE_OUTER_BOUND('',#244,.F.);
#247=FILL_AREA_STYLE_COLOUR('',#10);
#248=FILL_AREA_STYLE('',(#247));
#249=SURFACE_STYLE_FILL_AREA(#248);
#250=SURFACE_SIDE_STYLE('',(#249));
#251=SURFACE_STYLE_USAGE(.BOTH.,#250);
#252=PRESENTATION_STYLE_ASSIGNMENT((#251));
#253=STYLED_ITEM('',(#252),#246);
#254=CARTESIAN_POINT('',(8.055118110236E-1,0.E0,0.E0));
#255=DIRECTION('',(1.E0,0.E0,0.E0));
#256=DIRECTION('',(0.E0,0.E0,-1.E0));
#257=AXIS2_PLACEMENT_3D('',#254,#255,#256);
#258=PLANE('',#257);
#259=ORIENTED_EDGE('',*,*,#238,.T.);
#261=ORIENTED_EDGE('',*,*,#260,.F.);
#263=ORIENTED_EDGE('',*,*,#262,.F.);
#264=ORIENTED_EDGE('',*,*,#216,.T.);
#265=EDGE_LOOP('',(#259,#261,#263,#264));
#266=FACE_OUTER_BOUND('',#265,.F.);
#268=FILL_AREA_STYLE_COLOUR('',#10);
#269=FILL_AREA_STYLE('',(#268));
#270=SURFACE_STYLE_FILL_AREA(#269);
#271=SURFACE_SIDE_STYLE('',(#270));
#272=SURFACE_STYLE_USAGE(.BOTH.,#271);
#273=PRESENTATION_STYLE_ASSIGNMENT((#272));
#274=STYLED_ITEM('',(#273),#267);
#275=CARTESIAN_POINT('',(7.972440944882E-1,-2.066929133858E-1,
8.267716535433E-2));
#276=DIRECTION('',(0.E0,-1.E0,0.E0));
#277=DIRECTION('',(0.E0,0.E0,-1.E0));
#278=AXIS2_PLACEMENT_3D('',#275,#276,#277);
#279=PLANE('',#278);
#281=ORIENTED_EDGE('',*,*,#280,.T.);
#283=ORIENTED_EDGE('',*,*,#282,.T.);
#285=ORIENTED_EDGE('',*,*,#284,.T.);
#287=ORIENTED_EDGE('',*,*,#286,.F.);
#288=ORIENTED_EDGE('',*,*,#260,.T.);
#289=ORIENTED_EDGE('',*,*,#242,.T.);
#290=ORIENTED_EDGE('',*,*,#195,.T.);
#292=ORIENTED_EDGE('',*,*,#291,.T.);
#293=EDGE_LOOP('',(#281,#283,#285,#287,#288,#289,#290,#292));
#294=FACE_OUTER_BOUND('',#293,.F.);
#296=FILL_AREA_STYLE_COLOUR('',#10);
#297=FILL_AREA_STYLE('',(#296));
#298=SURFACE_STYLE_FILL_AREA(#297);
#299=SURFACE_SIDE_STYLE('',(#298));
#300=SURFACE_STYLE_USAGE(.BOTH.,#299);
#301=PRESENTATION_STYLE_ASSIGNMENT((#300));
#302=STYLED_ITEM('',(#301),#295);
#303=CARTESIAN_POINT('',(8.326771653543E-1,0.E0,0.E0));
#304=DIRECTION('',(1.E0,0.E0,0.E0));
#305=DIRECTION('',(0.E0,0.E0,-1.E0));
#306=AXIS2_PLACEMENT_3D('',#303,#304,#305);
#307=PLANE('',#306);
#308=ORIENTED_EDGE('',*,*,#280,.F.);
#310=ORIENTED_EDGE('',*,*,#309,.F.);
#312=ORIENTED_EDGE('',*,*,#311,.F.);
#314=ORIENTED_EDGE('',*,*,#313,.F.);
#315=EDGE_LOOP('',(#308,#310,#312,#314));
#316=FACE_OUTER_BOUND('',#315,.F.);
#318=FILL_AREA_STYLE_COLOUR('',#10);
#319=FILL_AREA_STYLE('',(#318));
#320=SURFACE_STYLE_FILL_AREA(#319);
#321=SURFACE_SIDE_STYLE('',(#320));
#322=SURFACE_STYLE_USAGE(.BOTH.,#321);
#323=PRESENTATION_STYLE_ASSIGNMENT((#322));
#324=STYLED_ITEM('',(#323),#317);
#325=CARTESIAN_POINT('',(8.055118110236E-1,-2.952755905512E-2,
3.149606299213E-2));
#326=DIRECTION('',(0.E0,0.E0,1.E0));
#327=DIRECTION('',(1.E0,0.E0,0.E0));
#328=AXIS2_PLACEMENT_3D('',#325,#326,#327);
#329=PLANE('',#328);
#330=ORIENTED_EDGE('',*,*,#220,.F.);
#332=ORIENTED_EDGE('',*,*,#331,.F.);
#334=ORIENTED_EDGE('',*,*,#333,.F.);
#336=ORIENTED_EDGE('',*,*,#335,.F.);
#338=ORIENTED_EDGE('',*,*,#337,.F.);
#339=ORIENTED_EDGE('',*,*,#309,.T.);
#340=ORIENTED_EDGE('',*,*,#291,.F.);
#341=ORIENTED_EDGE('',*,*,#193,.T.);
#342=EDGE_LOOP('',(#330,#332,#334,#336,#338,#339,#340,#341));
#343=FACE_OUTER_BOUND('',#342,.F.);
#345=FILL_AREA_STYLE_COLOUR('',#10);
#346=FILL_AREA_STYLE('',(#345));
#347=SURFACE_STYLE_FILL_AREA(#346);
#348=SURFACE_SIDE_STYLE('',(#347));
#349=SURFACE_STYLE_USAGE(.BOTH.,#348);
#350=PRESENTATION_STYLE_ASSIGNMENT((#349));
#351=STYLED_ITEM('',(#350),#344);
#352=CARTESIAN_POINT('',(8.055118110236E-1,0.E0,0.E0));
#353=DIRECTION('',(1.E0,0.E0,0.E0));
#354=DIRECTION('',(0.E0,0.E0,-1.E0));
#355=AXIS2_PLACEMENT_3D('',#352,#353,#354);
#356=PLANE('',#355);
#357=ORIENTED_EDGE('',*,*,#331,.T.);
#358=ORIENTED_EDGE('',*,*,#218,.T.);
#360=ORIENTED_EDGE('',*,*,#359,.F.);
#362=ORIENTED_EDGE('',*,*,#361,.F.);
#363=EDGE_LOOP('',(#357,#358,#360,#362));
#364=FACE_OUTER_BOUND('',#363,.F.);
#366=FILL_AREA_STYLE_COLOUR('',#10);
#367=FILL_AREA_STYLE('',(#366));
#368=SURFACE_STYLE_FILL_AREA(#367);
#369=SURFACE_SIDE_STYLE('',(#368));
#370=SURFACE_STYLE_USAGE(.BOTH.,#369);
#371=PRESENTATION_STYLE_ASSIGNMENT((#370));
#372=STYLED_ITEM('',(#371),#365);
#373=CARTESIAN_POINT('',(8.055118110236E-1,-2.066929133858E-1,
7.874015748031E-3));
#374=DIRECTION('',(0.E0,0.E0,-1.E0));
#375=DIRECTION('',(-1.E0,0.E0,0.E0));
#376=AXIS2_PLACEMENT_3D('',#373,#374,#375);
#377=PLANE('',#376);
#379=ORIENTED_EDGE('',*,*,#378,.T.);
#381=ORIENTED_EDGE('',*,*,#380,.T.);
#382=ORIENTED_EDGE('',*,*,#359,.T.);
#383=ORIENTED_EDGE('',*,*,#262,.T.);
#384=ORIENTED_EDGE('',*,*,#286,.T.);
#385=EDGE_LOOP('',(#379,#381,#382,#383,#384));
#386=FACE_OUTER_BOUND('',#385,.F.);
#388=FILL_AREA_STYLE_COLOUR('',#10);
#389=FILL_AREA_STYLE('',(#388));
#390=SURFACE_STYLE_FILL_AREA(#389);
#391=SURFACE_SIDE_STYLE('',(#390));
#392=SURFACE_STYLE_USAGE(.BOTH.,#391);
#393=PRESENTATION_STYLE_ASSIGNMENT((#392));
#394=STYLED_ITEM('',(#393),#387);
#395=CARTESIAN_POINT('',(8.385826771654E-1,0.E0,0.E0));
#396=DIRECTION('',(1.E0,0.E0,0.E0));
#397=DIRECTION('',(0.E0,0.E0,-1.E0));
#398=AXIS2_PLACEMENT_3D('',#395,#396,#397);
#399=PLANE('',#398);
#401=ORIENTED_EDGE('',*,*,#400,.T.);
#403=ORIENTED_EDGE('',*,*,#402,.T.);
#404=ORIENTED_EDGE('',*,*,#335,.T.);
#406=ORIENTED_EDGE('',*,*,#405,.T.);
#407=ORIENTED_EDGE('',*,*,#378,.F.);
#408=ORIENTED_EDGE('',*,*,#284,.F.);
#409=EDGE_LOOP('',(#401,#403,#404,#406,#407,#408));
#410=FACE_OUTER_BOUND('',#409,.F.);
#412=FILL_AREA_STYLE_COLOUR('',#10);
#413=FILL_AREA_STYLE('',(#412));
#414=SURFACE_STYLE_FILL_AREA(#413);
#415=SURFACE_SIDE_STYLE('',(#414));
#416=SURFACE_STYLE_USAGE(.BOTH.,#415);
#417=PRESENTATION_STYLE_ASSIGNMENT((#416));
#418=STYLED_ITEM('',(#417),#411);
#419=CARTESIAN_POINT('',(8.326771653543E-1,-7.874015748031E-2,
1.377952755906E-2));
#420=DIRECTION('',(0.E0,0.E0,1.E0));
#421=DIRECTION('',(1.E0,0.E0,0.E0));
#422=AXIS2_PLACEMENT_3D('',#419,#420,#421);
#423=PLANE('',#422);
#424=ORIENTED_EDGE('',*,*,#400,.F.);
#425=ORIENTED_EDGE('',*,*,#282,.F.);
#426=ORIENTED_EDGE('',*,*,#313,.T.);
#428=ORIENTED_EDGE('',*,*,#427,.T.);
#429=EDGE_LOOP('',(#424,#425,#426,#428));
#430=FACE_OUTER_BOUND('',#429,.F.);
#432=FILL_AREA_STYLE_COLOUR('',#10);
#433=FILL_AREA_STYLE('',(#432));
#434=SURFACE_STYLE_FILL_AREA(#433);
#435=SURFACE_SIDE_STYLE('',(#434));
#436=SURFACE_STYLE_USAGE(.BOTH.,#435);
#437=PRESENTATION_STYLE_ASSIGNMENT((#436));
#438=STYLED_ITEM('',(#437),#431);
#439=CARTESIAN_POINT('',(8.326771653543E-1,-7.874015748031E-2,
3.149606299213E-2));
#440=DIRECTION('',(0.E0,-1.E0,0.E0));
#441=DIRECTION('',(0.E0,0.E0,-1.E0));
#442=AXIS2_PLACEMENT_3D('',#439,#440,#441);
#443=PLANE('',#442);
#444=ORIENTED_EDGE('',*,*,#402,.F.);
#445=ORIENTED_EDGE('',*,*,#427,.F.);
#446=ORIENTED_EDGE('',*,*,#311,.T.);
#447=ORIENTED_EDGE('',*,*,#337,.T.);
#448=EDGE_LOOP('',(#444,#445,#446,#447));
#449=FACE_OUTER_BOUND('',#448,.F.);
#451=FILL_AREA_STYLE_COLOUR('',#10);
#452=FILL_AREA_STYLE('',(#451));
#453=SURFACE_STYLE_FILL_AREA(#452);
#454=SURFACE_SIDE_STYLE('',(#453));
#455=SURFACE_STYLE_USAGE(.BOTH.,#454);
#456=PRESENTATION_STYLE_ASSIGNMENT((#455));
#457=STYLED_ITEM('',(#456),#450);
#458=CARTESIAN_POINT('',(8.055118110236E-1,-2.952755905512E-2,
7.874015748031E-3));
#459=DIRECTION('',(0.E0,1.E0,0.E0));
#460=DIRECTION('',(0.E0,0.E0,1.E0));
#461=AXIS2_PLACEMENT_3D('',#458,#459,#460);
#462=PLANE('',#461);
#463=ORIENTED_EDGE('',*,*,#405,.F.);
#464=ORIENTED_EDGE('',*,*,#333,.T.);
#465=ORIENTED_EDGE('',*,*,#361,.T.);
#466=ORIENTED_EDGE('',*,*,#380,.F.);
#467=EDGE_LOOP('',(#463,#464,#465,#466));
#468=FACE_OUTER_BOUND('',#467,.F.);
#470=FILL_AREA_STYLE_COLOUR('',#10);
#471=FILL_AREA_STYLE('',(#470));
#472=SURFACE_STYLE_FILL_AREA(#471);
#473=SURFACE_SIDE_STYLE('',(#472));
#474=SURFACE_STYLE_USAGE(.BOTH.,#473);
#475=PRESENTATION_STYLE_ASSIGNMENT((#474));
#476=STYLED_ITEM('',(#475),#469);
#479=PRESENTATION_LAYER_ASSIGNMENT('SHELL_863','',(#201,#225,#246,#267,#295,
#317,#344,#365,#387,#411,#431,#450,#469,#478));
#481=LENGTH_MEASURE_WITH_UNIT(LENGTH_MEASURE(2.54E1),#480);
#482=(CONVERSION_BASED_UNIT('INCH',#481)LENGTH_UNIT()NAMED_UNIT(*));
#484=PLANE_ANGLE_MEASURE_WITH_UNIT(PLANE_ANGLE_MEASURE(1.745329251994E-2),#483);
#485=(CONVERSION_BASED_UNIT('DEGREE',#484)NAMED_UNIT(*)PLANE_ANGLE_UNIT());
#487=UNCERTAINTY_MEASURE_WITH_UNIT(LENGTH_MEASURE(1.102474662876E-4),#482,
'closure',
'Maximum model space distance between geometric entities at asserted connectivities');
#489=CARTESIAN_POINT('',(0.E0,0.E0,0.E0));
#490=DIRECTION('',(0.E0,0.E0,1.E0));
#491=DIRECTION('',(1.E0,0.E0,0.E0));
#494=MECHANICAL_DESIGN_GEOMETRIC_PRESENTATION_REPRESENTATION('',(#208,#232,#253,
#274,#302,#324,#351,#372,#394,#418,#438,#457,#476),#488);
#495=APPLICATION_CONTEXT('automotive design');
#496=APPLICATION_PROTOCOL_DEFINITION('international standard',
'config_control_design',1994,#495);
#497=PRODUCT_DEFINITION_CONTEXT('',#495,'design');
#498=PRODUCT_CONTEXT('',#495,'mechanical');
#499=PRODUCT('FPC-40-3778','FPC-40-3778','NOT SPECIFIED',(#498));
#500=PRODUCT_DEFINITION_FORMATION_WITH_SPECIFIED_SOURCE('1','LAST_VERSION',#499,
.MADE.);
#508=LENGTH_MEASURE_WITH_UNIT(LENGTH_MEASURE(2.54E1),#507);
#509=(CONVERSION_BASED_UNIT('INCH',#508)LENGTH_UNIT()NAMED_UNIT(*));
#510=DERIVED_UNIT_ELEMENT(#509,2.E0);
#511=AREA_UNIT((#510));
#512=MEASURE_REPRESENTATION_ITEM('surface area measure',AREA_MEASURE(1.5739E-5),
#511);
#517=LENGTH_MEASURE_WITH_UNIT(LENGTH_MEASURE(2.54E1),#516);
#518=(CONVERSION_BASED_UNIT('INCH',#517)LENGTH_UNIT()NAMED_UNIT(*));
#519=DERIVED_UNIT_ELEMENT(#518,3.E0);
#520=VOLUME_UNIT((#519));
#521=MEASURE_REPRESENTATION_ITEM('volume measure',VOLUME_MEASURE(2.342625E-9),
#520);
#525=CARTESIAN_POINT('centre point',(2.078180486634E-2,-3.114034736674E-3,
4.804266047703E-4));
#530=LENGTH_MEASURE_WITH_UNIT(LENGTH_MEASURE(2.54E1),#529);
#531=(CONVERSION_BASED_UNIT('INCH',#530)LENGTH_UNIT()NAMED_UNIT(*));
#532=DERIVED_UNIT_ELEMENT(#531,2.E0);
#533=AREA_UNIT((#532));
#534=MEASURE_REPRESENTATION_ITEM('surface area measure',AREA_MEASURE(1.5739E-5),
#533);
#539=LENGTH_MEASURE_WITH_UNIT(LENGTH_MEASURE(2.54E1),#538);
#540=(CONVERSION_BASED_UNIT('INCH',#539)LENGTH_UNIT()NAMED_UNIT(*));
#541=DERIVED_UNIT_ELEMENT(#540,3.E0);
#542=VOLUME_UNIT((#541));
#543=MEASURE_REPRESENTATION_ITEM('volume measure',VOLUME_MEASURE(2.342625E-9),
#542);
#547=CARTESIAN_POINT('centre point',(2.078180486634E-2,-3.114034736674E-3,
4.804266047703E-4));
#1=DRAUGHTING_PRE_DEFINED_COLOUR('green');
#2=COLOUR_RGB('',1.1E-2,1.2E-2,1.E0);
#3=COLOUR_RGB('',2.352941176471E-1,2.352941176471E-1,2.352941176471E-1);
#4=COLOUR_RGB('',4.1E-1,2.61589E-1,1.12848E-1);
#5=COLOUR_RGB('',5.04854E-1,1.5455E-2,1.5455E-2);
#6=COLOUR_RGB('',6.35294E-1,6.86275E-1,7.4902E-1);
#7=COLOUR_RGB('',6.40777E-1,6.40777E-1,6.40777E-1);
#8=COLOUR_RGB('',6.69062E-1,6.69903E-1,6.55217E-1);
#9=COLOUR_RGB('',9.21569E-1,7.05882E-1,4.70588E-1);
#10=COLOUR_RGB('',9.843137254902E-1,9.843137254902E-1,8.980392156863E-1);
#11=DRAUGHTING_PRE_DEFINED_COLOUR('red');
#12=DRAUGHTING_PRE_DEFINED_COLOUR('yellow');
#13=COLOUR_RGB('',1.E0,1.E0,5.3E-1);
#14=COLOUR_RGB('',1.E0,1.E0,9.49E-1);
#15=DRAUGHTING_PRE_DEFINED_COLOUR('white');
#191=EDGE_CURVE('',#163,#161,#19,.T.);
#193=EDGE_CURVE('',#151,#163,#23,.T.);
#195=EDGE_CURVE('',#150,#151,#27,.T.);
#197=EDGE_CURVE('',#161,#150,#31,.T.);
#201=ADVANCED_FACE('',(#200),#190,.F.);
#214=EDGE_CURVE('',#161,#175,#47,.T.);
#216=EDGE_CURVE('',#177,#175,#35,.T.);
#218=EDGE_CURVE('',#185,#177,#39,.T.);
#220=EDGE_CURVE('',#185,#163,#83,.T.);
#225=ADVANCED_FACE('',(#224),#213,.T.);
#238=EDGE_CURVE('',#175,#173,#43,.T.);
#242=EDGE_CURVE('',#173,#150,#51,.T.);
#246=ADVANCED_FACE('',(#245),#237,.T.);
#260=EDGE_CURVE('',#146,#173,#55,.T.);
#262=EDGE_CURVE('',#177,#146,#59,.T.);
#267=ADVANCED_FACE('',(#266),#258,.T.);
#280=EDGE_CURVE('',#158,#159,#67,.T.);
#282=EDGE_CURVE('',#159,#155,#127,.T.);
#284=EDGE_CURVE('',#155,#147,#119,.T.);
#286=EDGE_CURVE('',#146,#147,#63,.T.);
#291=EDGE_CURVE('',#151,#158,#103,.T.);
#295=ADVANCED_FACE('',(#294),#279,.T.);
#309=EDGE_CURVE('',#165,#158,#71,.T.);
#311=EDGE_CURVE('',#167,#165,#75,.T.);
#313=EDGE_CURVE('',#159,#167,#79,.T.);
#317=ADVANCED_FACE('',(#316),#307,.T.);
#331=EDGE_CURVE('',#182,#185,#87,.T.);
#333=EDGE_CURVE('',#171,#182,#91,.T.);
#335=EDGE_CURVE('',#170,#171,#95,.T.);
#337=EDGE_CURVE('',#165,#170,#99,.T.);
#344=ADVANCED_FACE('',(#343),#329,.T.);
#359=EDGE_CURVE('',#183,#177,#107,.T.);
#361=EDGE_CURVE('',#182,#183,#111,.T.);
#365=ADVANCED_FACE('',(#364),#356,.F.);
#378=EDGE_CURVE('',#147,#153,#115,.T.);
#380=EDGE_CURVE('',#153,#183,#143,.T.);
#387=ADVANCED_FACE('',(#386),#377,.T.);
#400=EDGE_CURVE('',#155,#179,#123,.T.);
#402=EDGE_CURVE('',#179,#170,#131,.T.);
#405=EDGE_CURVE('',#171,#153,#139,.T.);
#411=ADVANCED_FACE('',(#410),#399,.T.);
#427=EDGE_CURVE('',#167,#179,#135,.T.);
#431=ADVANCED_FACE('',(#430),#423,.T.);
#450=ADVANCED_FACE('',(#449),#443,.T.);
#469=ADVANCED_FACE('',(#468),#462,.T.);
#477=CLOSED_SHELL('',(#201,#225,#246,#267,#295,#317,#344,#365,#387,#411,#431,
#450,#469));
#478=MANIFOLD_SOLID_BREP('',#477);
#480=(LENGTH_UNIT()NAMED_UNIT(*)SI_UNIT(.MILLI.,.METRE.));
#483=(NAMED_UNIT(*)PLANE_ANGLE_UNIT()SI_UNIT($,.RADIAN.));
#486=(NAMED_UNIT(*)SI_UNIT($,.STERADIAN.)SOLID_ANGLE_UNIT());
#488=(GEOMETRIC_REPRESENTATION_CONTEXT(3)GLOBAL_UNCERTAINTY_ASSIGNED_CONTEXT((
#487))GLOBAL_UNIT_ASSIGNED_CONTEXT((#482,#485,#486))REPRESENTATION_CONTEXT
('ID1','3'));
#492=AXIS2_PLACEMENT_3D('',#489,#490,#491);
#493=ADVANCED_BREP_SHAPE_REPRESENTATION('',(#492,#478),#488);
#501=PRODUCT_DEFINITION('design','',#500,#497);
#502=PRODUCT_DEFINITION_SHAPE('','SHAPE FOR FPC-40-3778.',#501);
#503=SHAPE_ASPECT('','solid data associated with FPC-40-3778',#502,.F.);
#504=PROPERTY_DEFINITION('',
'shape for solid data with which properties are associated',#503);
#505=SHAPE_REPRESENTATION('',(#478),#488);
#506=SHAPE_DEFINITION_REPRESENTATION(#504,#505);
#507=(LENGTH_UNIT()NAMED_UNIT(*)SI_UNIT(.MILLI.,.METRE.));
#513=PROPERTY_DEFINITION('geometric validation property','area of FPC-40-3778',
#503);
#514=REPRESENTATION('surface area',(#512),#488);
#515=PROPERTY_DEFINITION_REPRESENTATION(#513,#514);
#516=(LENGTH_UNIT()NAMED_UNIT(*)SI_UNIT(.MILLI.,.METRE.));
#522=PROPERTY_DEFINITION('geometric validation property',
'volume of FPC-40-3778',#503);
#523=REPRESENTATION('volume',(#521),#488);
#524=PROPERTY_DEFINITION_REPRESENTATION(#522,#523);
#526=PROPERTY_DEFINITION('geometric validation property',
'centroid of FPC-40-3778',#503);
#527=REPRESENTATION('centroid',(#525),#488);
#528=PROPERTY_DEFINITION_REPRESENTATION(#526,#527);
#529=(LENGTH_UNIT()NAMED_UNIT(*)SI_UNIT(.MILLI.,.METRE.));
#535=PROPERTY_DEFINITION('geometric validation property','area of FPC-40-3778',
#502);
#536=REPRESENTATION('surface area',(#534),#488);
#537=PROPERTY_DEFINITION_REPRESENTATION(#535,#536);
#538=(LENGTH_UNIT()NAMED_UNIT(*)SI_UNIT(.MILLI.,.METRE.));
#544=PROPERTY_DEFINITION('geometric validation property',
'volume of FPC-40-3778',#502);
#545=REPRESENTATION('volume',(#543),#488);
#546=PROPERTY_DEFINITION_REPRESENTATION(#544,#545);
#548=PROPERTY_DEFINITION('geometric validation property',
'centroid of FPC-40-3778',#502);
#549=REPRESENTATION('centroid',(#547),#488);
#550=PROPERTY_DEFINITION_REPRESENTATION(#548,#549);
#551=SHAPE_DEFINITION_REPRESENTATION(#502,#493);
ENDSEC;
END-ISO-10303-21;
