ISO-10303-21;
HEADER;
FILE_DESCRIPTION((''),'2;1');
FILE_NAME('GEARBOX_HOUSING-199','2026-06-15T13:45:39',('Esia'),(''),
'CREO PARAMETRIC BY PTC INC, 2025102','CREO PARAMETRIC BY PTC INC, 2025102','');
FILE_SCHEMA((
'AP242_MANAGED_MODEL_BASED_3D_ENGINEERING_MIM_LF { 1 0 10303 442 1 1 4 }'));
ENDSEC;
DATA;
#19=DIRECTION('',(0.E0,0.E0,1.E0));
#20=VECTOR('',#19,1.181102362205E-2);
#21=CARTESIAN_POINT('',(3.937007874016E-2,0.E0,-1.437007874016E-1));
#22=LINE('',#21,#20);
#23=DRAUGHTING_PRE_DEFINED_CURVE_FONT('continuous');
#24=CURVE_STYLE('',#23,POSITIVE_LENGTH_MEASURE(2.E-2),#1);
#25=PRESENTATION_STYLE_ASSIGNMENT((#24));
#26=STYLED_ITEM('',(#25),#22);
#27=DIRECTION('',(0.E0,0.E0,-1.E0));
#28=VECTOR('',#27,1.181102362205E-2);
#29=CARTESIAN_POINT('',(-3.937007874016E-2,0.E0,-1.318897637795E-1));
#30=LINE('',#29,#28);
#31=CURVE_STYLE('',#23,POSITIVE_LENGTH_MEASURE(2.E-2),#1);
#32=PRESENTATION_STYLE_ASSIGNMENT((#31));
#33=STYLED_ITEM('',(#32),#30);
#34=CARTESIAN_POINT('',(0.E0,0.E0,-1.437007874016E-1));
#35=DIRECTION('',(0.E0,0.E0,1.E0));
#36=DIRECTION('',(-1.E0,0.E0,0.E0));
#37=AXIS2_PLACEMENT_3D('',#34,#35,#36);
#39=CURVE_STYLE('',#23,POSITIVE_LENGTH_MEASURE(2.E-2),#1);
#40=PRESENTATION_STYLE_ASSIGNMENT((#39));
#41=STYLED_ITEM('',(#40),#38);
#42=CARTESIAN_POINT('',(0.E0,0.E0,-1.437007874016E-1));
#43=DIRECTION('',(0.E0,0.E0,1.E0));
#44=DIRECTION('',(1.E0,0.E0,0.E0));
#45=AXIS2_PLACEMENT_3D('',#42,#43,#44);
#47=CURVE_STYLE('',#23,POSITIVE_LENGTH_MEASURE(2.E-2),#1);
#48=PRESENTATION_STYLE_ASSIGNMENT((#47));
#49=STYLED_ITEM('',(#48),#46);
#50=CARTESIAN_POINT('',(0.E0,0.E0,-1.318897637795E-1));
#51=DIRECTION('',(0.E0,0.E0,1.E0));
#52=DIRECTION('',(-1.E0,0.E0,0.E0));
#53=AXIS2_PLACEMENT_3D('',#50,#51,#52);
#55=CURVE_STYLE('',#23,POSITIVE_LENGTH_MEASURE(2.E-2),#1);
#56=PRESENTATION_STYLE_ASSIGNMENT((#55));
#57=STYLED_ITEM('',(#56),#54);
#58=CARTESIAN_POINT('',(0.E0,0.E0,-1.318897637795E-1));
#59=DIRECTION('',(0.E0,0.E0,1.E0));
#60=DIRECTION('',(1.E0,0.E0,0.E0));
#61=AXIS2_PLACEMENT_3D('',#58,#59,#60);
#63=CURVE_STYLE('',#23,POSITIVE_LENGTH_MEASURE(2.E-2),#1);
#64=PRESENTATION_STYLE_ASSIGNMENT((#63));
#65=STYLED_ITEM('',(#64),#62);
#66=CARTESIAN_POINT('',(0.E0,0.E0,-1.318897637795E-1));
#67=DIRECTION('',(0.E0,0.E0,-1.E0));
#68=DIRECTION('',(-1.E0,0.E0,0.E0));
#69=AXIS2_PLACEMENT_3D('',#66,#67,#68);
#71=CURVE_STYLE('',#23,POSITIVE_LENGTH_MEASURE(2.E-2),#1);
#72=PRESENTATION_STYLE_ASSIGNMENT((#71));
#73=STYLED_ITEM('',(#72),#70);
#74=CARTESIAN_POINT('',(0.E0,0.E0,-1.318897637795E-1));
#75=DIRECTION('',(0.E0,0.E0,-1.E0));
#76=DIRECTION('',(1.E0,0.E0,0.E0));
#77=AXIS2_PLACEMENT_3D('',#74,#75,#76);
#79=CURVE_STYLE('',#23,POSITIVE_LENGTH_MEASURE(2.E-2),#1);
#80=PRESENTATION_STYLE_ASSIGNMENT((#79));
#81=STYLED_ITEM('',(#80),#78);
#82=DIRECTION('',(0.E0,0.E0,1.E0));
#83=VECTOR('',#82,1.181102362205E-2);
#84=CARTESIAN_POINT('',(6.889763779528E-2,0.E0,-1.437007874016E-1));
#85=LINE('',#84,#83);
#86=CURVE_STYLE('',#23,POSITIVE_LENGTH_MEASURE(2.E-2),#1);
#87=PRESENTATION_STYLE_ASSIGNMENT((#86));
#88=STYLED_ITEM('',(#87),#85);
#89=DIRECTION('',(0.E0,0.E0,1.E0));
#90=VECTOR('',#89,1.181102362205E-2);
#91=CARTESIAN_POINT('',(-6.889763779528E-2,0.E0,-1.437007874016E-1));
#92=LINE('',#91,#90);
#93=CURVE_STYLE('',#23,POSITIVE_LENGTH_MEASURE(2.E-2),#1);
#94=PRESENTATION_STYLE_ASSIGNMENT((#93));
#95=STYLED_ITEM('',(#94),#92);
#96=CARTESIAN_POINT('',(0.E0,0.E0,-1.437007874016E-1));
#97=DIRECTION('',(0.E0,0.E0,1.E0));
#98=DIRECTION('',(-1.E0,0.E0,0.E0));
#99=AXIS2_PLACEMENT_3D('',#96,#97,#98);
#101=CURVE_STYLE('',#23,POSITIVE_LENGTH_MEASURE(2.E-2),#1);
#102=PRESENTATION_STYLE_ASSIGNMENT((#101));
#103=STYLED_ITEM('',(#102),#100);
#104=CARTESIAN_POINT('',(0.E0,0.E0,-1.437007874016E-1));
#105=DIRECTION('',(0.E0,0.E0,1.E0));
#106=DIRECTION('',(1.E0,0.E0,0.E0));
#107=AXIS2_PLACEMENT_3D('',#104,#105,#106);
#109=CURVE_STYLE('',#23,POSITIVE_LENGTH_MEASURE(2.E-2),#1);
#110=PRESENTATION_STYLE_ASSIGNMENT((#109));
#111=STYLED_ITEM('',(#110),#108);
#112=CARTESIAN_POINT('',(0.E0,0.E0,-1.437007874016E-1));
#113=DIRECTION('',(0.E0,0.E0,-1.E0));
#114=DIRECTION('',(1.E0,0.E0,0.E0));
#115=AXIS2_PLACEMENT_3D('',#112,#113,#114);
#117=CURVE_STYLE('',#23,POSITIVE_LENGTH_MEASURE(2.E-2),#1);
#118=PRESENTATION_STYLE_ASSIGNMENT((#117));
#119=STYLED_ITEM('',(#118),#116);
#120=CARTESIAN_POINT('',(0.E0,0.E0,-1.437007874016E-1));
#121=DIRECTION('',(0.E0,0.E0,-1.E0));
#122=DIRECTION('',(-1.E0,0.E0,0.E0));
#123=AXIS2_PLACEMENT_3D('',#120,#121,#122);
#125=CURVE_STYLE('',#23,POSITIVE_LENGTH_MEASURE(2.E-2),#1);
#126=PRESENTATION_STYLE_ASSIGNMENT((#125));
#127=STYLED_ITEM('',(#126),#124);
#128=DIRECTION('',(0.E0,0.E0,1.E0));
#129=VECTOR('',#128,6.299212598425E-2);
#130=CARTESIAN_POINT('',(-5.905511811024E-2,-1.022864650139E-1,
-4.212598425197E-1));
#131=LINE('',#130,#129);
#132=CURVE_STYLE('',#23,POSITIVE_LENGTH_MEASURE(2.E-2),#1);
#133=PRESENTATION_STYLE_ASSIGNMENT((#132));
#134=STYLED_ITEM('',(#133),#131);
#135=DIRECTION('',(0.E0,0.E0,-1.E0));
#136=VECTOR('',#135,6.299212598425E-2);
#137=CARTESIAN_POINT('',(-1.022864650139E-1,-5.905511811024E-2,
-3.582677165354E-1));
#138=LINE('',#137,#136);
#139=CURVE_STYLE('',#23,POSITIVE_LENGTH_MEASURE(2.E-2),#1);
#140=PRESENTATION_STYLE_ASSIGNMENT((#139));
#141=STYLED_ITEM('',(#140),#138);
#142=DIRECTION('',(0.E0,0.E0,1.E0));
#143=VECTOR('',#142,3.937007874016E-2);
#144=CARTESIAN_POINT('',(-1.138333251559E-1,-3.149606299213E-2,
-3.976377952756E-1));
#145=LINE('',#144,#143);
#146=CURVE_STYLE('',#23,POSITIVE_LENGTH_MEASURE(2.E-2),#1);
#147=PRESENTATION_STYLE_ASSIGNMENT((#146));
#148=STYLED_ITEM('',(#147),#145);
#149=DIRECTION('',(0.E0,0.E0,1.E0));
#150=VECTOR('',#149,3.937007874016E-2);
#151=CARTESIAN_POINT('',(1.138333251559E-1,-3.149606299213E-2,
-3.976377952756E-1));
#152=LINE('',#151,#150);
#153=CURVE_STYLE('',#23,POSITIVE_LENGTH_MEASURE(2.E-2),#1);
#154=PRESENTATION_STYLE_ASSIGNMENT((#153));
#155=STYLED_ITEM('',(#154),#152);
#156=DIRECTION('',(0.E0,0.E0,1.E0));
#157=VECTOR('',#156,6.299212598425E-2);
#158=CARTESIAN_POINT('',(1.022864650139E-1,-5.905511811024E-2,
-4.212598425197E-1));
#159=LINE('',#158,#157);
#160=CURVE_STYLE('',#23,POSITIVE_LENGTH_MEASURE(2.E-2),#1);
#161=PRESENTATION_STYLE_ASSIGNMENT((#160));
#162=STYLED_ITEM('',(#161),#159);
#163=DIRECTION('',(0.E0,0.E0,-1.E0));
#164=VECTOR('',#163,6.299212598425E-2);
#165=CARTESIAN_POINT('',(5.905511811024E-2,-1.022864650139E-1,
-3.582677165354E-1));
#166=LINE('',#165,#164);
#167=CURVE_STYLE('',#23,POSITIVE_LENGTH_MEASURE(2.E-2),#1);
#168=PRESENTATION_STYLE_ASSIGNMENT((#167));
#169=STYLED_ITEM('',(#168),#166);
#170=DIRECTION('',(0.E0,0.E0,1.E0));
#171=VECTOR('',#170,3.937007874016E-2);
#172=CARTESIAN_POINT('',(-3.149606299213E-2,-1.138333251559E-1,
-3.976377952756E-1));
#173=LINE('',#172,#171);
#174=CURVE_STYLE('',#23,POSITIVE_LENGTH_MEASURE(2.E-2),#1);
#175=PRESENTATION_STYLE_ASSIGNMENT((#174));
#176=STYLED_ITEM('',(#175),#173);
#177=DIRECTION('',(0.E0,0.E0,-1.E0));
#178=VECTOR('',#177,3.937007874016E-2);
#179=CARTESIAN_POINT('',(3.149606299213E-2,-1.138333251559E-1,
-3.582677165354E-1));
#180=LINE('',#179,#178);
#181=CURVE_STYLE('',#23,POSITIVE_LENGTH_MEASURE(2.E-2),#1);
#182=PRESENTATION_STYLE_ASSIGNMENT((#181));
#183=STYLED_ITEM('',(#182),#180);
#184=DIRECTION('',(5.E-1,8.660254037844E-1,0.E0));
#185=VECTOR('',#184,1.968503937008E-2);
#186=CARTESIAN_POINT('',(-5.905511811024E-2,-1.022864650139E-1,
-4.212598425197E-1));
#187=LINE('',#186,#185);
#188=CURVE_STYLE('',#23,POSITIVE_LENGTH_MEASURE(2.E-2),#1);
#189=PRESENTATION_STYLE_ASSIGNMENT((#188));
#190=STYLED_ITEM('',(#189),#187);
#191=CARTESIAN_POINT('',(0.E0,0.E0,-4.212598425197E-1));
#192=DIRECTION('',(0.E0,0.E0,-1.E0));
#193=DIRECTION('',(5.E-1,-8.660254037844E-1,0.E0));
#194=AXIS2_PLACEMENT_3D('',#191,#192,#193);
#196=CURVE_STYLE('',#23,POSITIVE_LENGTH_MEASURE(2.E-2),#1);
#197=PRESENTATION_STYLE_ASSIGNMENT((#196));
#198=STYLED_ITEM('',(#197),#195);
#199=DIRECTION('',(5.E-1,-8.660254037844E-1,0.E0));
#200=VECTOR('',#199,1.968503937008E-2);
#201=CARTESIAN_POINT('',(4.921259842520E-2,-8.523872084493E-2,
-4.212598425197E-1));
#202=LINE('',#201,#200);
#203=CURVE_STYLE('',#23,POSITIVE_LENGTH_MEASURE(2.E-2),#1);
#204=PRESENTATION_STYLE_ASSIGNMENT((#203));
#205=STYLED_ITEM('',(#204),#202);
#206=CARTESIAN_POINT('',(0.E0,0.E0,-4.212598425197E-1));
#207=DIRECTION('',(0.E0,0.E0,1.E0));
#208=DIRECTION('',(-5.E-1,-8.660254037844E-1,0.E0));
#209=AXIS2_PLACEMENT_3D('',#206,#207,#208);
#211=CURVE_STYLE('',#23,POSITIVE_LENGTH_MEASURE(2.E-2),#1);
#212=PRESENTATION_STYLE_ASSIGNMENT((#211));
#213=STYLED_ITEM('',(#212),#210);
#214=CARTESIAN_POINT('',(0.E0,0.E0,-3.582677165354E-1));
#215=DIRECTION('',(0.E0,0.E0,-1.E0));
#216=DIRECTION('',(1.E0,0.E0,0.E0));
#217=AXIS2_PLACEMENT_3D('',#214,#215,#216);
#219=CURVE_STYLE('',#23,POSITIVE_LENGTH_MEASURE(2.E-2),#1);
#220=PRESENTATION_STYLE_ASSIGNMENT((#219));
#221=STYLED_ITEM('',(#220),#218);
#222=CARTESIAN_POINT('',(0.E0,0.E0,-3.582677165354E-1));
#223=DIRECTION('',(0.E0,0.E0,-1.E0));
#224=DIRECTION('',(9.637888196534E-1,2.666666666667E-1,0.E0));
#225=AXIS2_PLACEMENT_3D('',#222,#223,#224);
#227=CURVE_STYLE('',#23,POSITIVE_LENGTH_MEASURE(2.E-2),#1);
#228=PRESENTATION_STYLE_ASSIGNMENT((#227));
#229=STYLED_ITEM('',(#228),#226);
#230=DIRECTION('',(9.637888196534E-1,2.666666666667E-1,0.E0));
#231=VECTOR('',#230,1.968503937008E-2);
#232=CARTESIAN_POINT('',(9.486110429659E-2,2.624671916010E-2,
-3.582677165354E-1));
#233=LINE('',#232,#231);
#234=CURVE_STYLE('',#23,POSITIVE_LENGTH_MEASURE(2.E-2),#1);
#235=PRESENTATION_STYLE_ASSIGNMENT((#234));
#236=STYLED_ITEM('',(#235),#233);
#237=CARTESIAN_POINT('',(0.E0,0.E0,-3.582677165354E-1));
#238=DIRECTION('',(0.E0,0.E0,-1.E0));
#239=DIRECTION('',(8.660254037844E-1,5.E-1,0.E0));
#240=AXIS2_PLACEMENT_3D('',#237,#238,#239);
#242=CURVE_STYLE('',#23,POSITIVE_LENGTH_MEASURE(2.E-2),#1);
#243=PRESENTATION_STYLE_ASSIGNMENT((#242));
#244=STYLED_ITEM('',(#243),#241);
#245=DIRECTION('',(-8.660254037844E-1,-5.E-1,0.E0));
#246=VECTOR('',#245,1.968503937008E-2);
#247=CARTESIAN_POINT('',(1.022864650139E-1,5.905511811024E-2,
-3.582677165354E-1));
#248=LINE('',#247,#246);
#249=CURVE_STYLE('',#23,POSITIVE_LENGTH_MEASURE(2.E-2),#1);
#250=PRESENTATION_STYLE_ASSIGNMENT((#249));
#251=STYLED_ITEM('',(#250),#248);
#252=CARTESIAN_POINT('',(0.E0,0.E0,-3.582677165354E-1));
#253=DIRECTION('',(0.E0,0.E0,-1.E0));
#254=DIRECTION('',(5.E-1,8.660254037844E-1,0.E0));
#255=AXIS2_PLACEMENT_3D('',#252,#253,#254);
#257=CURVE_STYLE('',#23,POSITIVE_LENGTH_MEASURE(2.E-2),#1);
#258=PRESENTATION_STYLE_ASSIGNMENT((#257));
#259=STYLED_ITEM('',(#258),#256);
#260=DIRECTION('',(5.E-1,8.660254037844E-1,0.E0));
#261=VECTOR('',#260,1.968503937008E-2);
#262=CARTESIAN_POINT('',(4.921259842520E-2,8.523872084493E-2,
-3.582677165354E-1));
#263=LINE('',#262,#261);
#264=CURVE_STYLE('',#23,POSITIVE_LENGTH_MEASURE(2.E-2),#1);
#265=PRESENTATION_STYLE_ASSIGNMENT((#264));
#266=STYLED_ITEM('',(#265),#263);
#267=CARTESIAN_POINT('',(0.E0,0.E0,-3.582677165354E-1));
#268=DIRECTION('',(0.E0,0.E0,-1.E0));
#269=DIRECTION('',(2.666666666667E-1,9.637888196534E-1,0.E0));
#270=AXIS2_PLACEMENT_3D('',#267,#268,#269);
#272=CURVE_STYLE('',#23,POSITIVE_LENGTH_MEASURE(2.E-2),#1);
#273=PRESENTATION_STYLE_ASSIGNMENT((#272));
#274=STYLED_ITEM('',(#273),#271);
#275=DIRECTION('',(-2.666666666667E-1,-9.637888196534E-1,0.E0));
#276=VECTOR('',#275,1.968503937008E-2);
#277=CARTESIAN_POINT('',(3.149606299213E-2,1.138333251559E-1,
-3.582677165354E-1));
#278=LINE('',#277,#276);
#279=CURVE_STYLE('',#23,POSITIVE_LENGTH_MEASURE(2.E-2),#1);
#280=PRESENTATION_STYLE_ASSIGNMENT((#279));
#281=STYLED_ITEM('',(#280),#278);
#282=CARTESIAN_POINT('',(0.E0,0.E0,-3.582677165354E-1));
#283=DIRECTION('',(0.E0,0.E0,-1.E0));
#284=DIRECTION('',(-2.666666666667E-1,9.637888196534E-1,0.E0));
#285=AXIS2_PLACEMENT_3D('',#282,#283,#284);
#287=CURVE_STYLE('',#23,POSITIVE_LENGTH_MEASURE(2.E-2),#1);
#288=PRESENTATION_STYLE_ASSIGNMENT((#287));
#289=STYLED_ITEM('',(#288),#286);
#290=DIRECTION('',(-2.666666666667E-1,9.637888196534E-1,0.E0));
#291=VECTOR('',#290,1.968503937008E-2);
#292=CARTESIAN_POINT('',(-2.624671916011E-2,9.486110429659E-2,
-3.582677165354E-1));
#293=LINE('',#292,#291);
#294=CURVE_STYLE('',#23,POSITIVE_LENGTH_MEASURE(2.E-2),#1);
#295=PRESENTATION_STYLE_ASSIGNMENT((#294));
#296=STYLED_ITEM('',(#295),#293);
#297=CARTESIAN_POINT('',(0.E0,0.E0,-3.582677165354E-1));
#298=DIRECTION('',(0.E0,0.E0,-1.E0));
#299=DIRECTION('',(-5.E-1,8.660254037844E-1,0.E0));
#300=AXIS2_PLACEMENT_3D('',#297,#298,#299);
#302=CURVE_STYLE('',#23,POSITIVE_LENGTH_MEASURE(2.E-2),#1);
#303=PRESENTATION_STYLE_ASSIGNMENT((#302));
#304=STYLED_ITEM('',(#303),#301);
#305=DIRECTION('',(5.E-1,-8.660254037844E-1,0.E0));
#306=VECTOR('',#305,1.968503937008E-2);
#307=CARTESIAN_POINT('',(-5.905511811024E-2,1.022864650139E-1,
-3.582677165354E-1));
#308=LINE('',#307,#306);
#309=CURVE_STYLE('',#23,POSITIVE_LENGTH_MEASURE(2.E-2),#1);
#310=PRESENTATION_STYLE_ASSIGNMENT((#309));
#311=STYLED_ITEM('',(#310),#308);
#312=CARTESIAN_POINT('',(0.E0,0.E0,-3.582677165354E-1));
#313=DIRECTION('',(0.E0,0.E0,-1.E0));
#314=DIRECTION('',(-8.660254037844E-1,5.E-1,0.E0));
#315=AXIS2_PLACEMENT_3D('',#312,#313,#314);
#317=CURVE_STYLE('',#23,POSITIVE_LENGTH_MEASURE(2.E-2),#1);
#318=PRESENTATION_STYLE_ASSIGNMENT((#317));
#319=STYLED_ITEM('',(#318),#316);
#320=DIRECTION('',(-8.660254037844E-1,5.E-1,0.E0));
#321=VECTOR('',#320,1.968503937008E-2);
#322=CARTESIAN_POINT('',(-8.523872084493E-2,4.921259842520E-2,
-3.582677165354E-1));
#323=LINE('',#322,#321);
#324=CURVE_STYLE('',#23,POSITIVE_LENGTH_MEASURE(2.E-2),#1);
#325=PRESENTATION_STYLE_ASSIGNMENT((#324));
#326=STYLED_ITEM('',(#325),#323);
#327=CARTESIAN_POINT('',(0.E0,0.E0,-3.582677165354E-1));
#328=DIRECTION('',(0.E0,0.E0,-1.E0));
#329=DIRECTION('',(-9.637888196534E-1,2.666666666667E-1,0.E0));
#330=AXIS2_PLACEMENT_3D('',#327,#328,#329);
#332=CURVE_STYLE('',#23,POSITIVE_LENGTH_MEASURE(2.E-2),#1);
#333=PRESENTATION_STYLE_ASSIGNMENT((#332));
#334=STYLED_ITEM('',(#333),#331);
#335=DIRECTION('',(9.637888196534E-1,-2.666666666667E-1,0.E0));
#336=VECTOR('',#335,1.968503937008E-2);
#337=CARTESIAN_POINT('',(-1.138333251559E-1,3.149606299213E-2,
-3.582677165354E-1));
#338=LINE('',#337,#336);
#339=CURVE_STYLE('',#23,POSITIVE_LENGTH_MEASURE(2.E-2),#1);
#340=PRESENTATION_STYLE_ASSIGNMENT((#339));
#341=STYLED_ITEM('',(#340),#338);
#342=CARTESIAN_POINT('',(0.E0,0.E0,-3.582677165354E-1));
#343=DIRECTION('',(0.E0,0.E0,-1.E0));
#344=DIRECTION('',(-1.E0,0.E0,0.E0));
#345=AXIS2_PLACEMENT_3D('',#342,#343,#344);
#347=CURVE_STYLE('',#23,POSITIVE_LENGTH_MEASURE(2.E-2),#1);
#348=PRESENTATION_STYLE_ASSIGNMENT((#347));
#349=STYLED_ITEM('',(#348),#346);
#350=CARTESIAN_POINT('',(0.E0,0.E0,-3.582677165354E-1));
#351=DIRECTION('',(0.E0,0.E0,-1.E0));
#352=DIRECTION('',(-9.637888196534E-1,-2.666666666667E-1,0.E0));
#353=AXIS2_PLACEMENT_3D('',#350,#351,#352);
#355=CURVE_STYLE('',#23,POSITIVE_LENGTH_MEASURE(2.E-2),#1);
#356=PRESENTATION_STYLE_ASSIGNMENT((#355));
#357=STYLED_ITEM('',(#356),#354);
#358=DIRECTION('',(-9.637888196534E-1,-2.666666666667E-1,0.E0));
#359=VECTOR('',#358,1.968503937008E-2);
#360=CARTESIAN_POINT('',(-9.486110429659E-2,-2.624671916010E-2,
-3.582677165354E-1));
#361=LINE('',#360,#359);
#362=CURVE_STYLE('',#23,POSITIVE_LENGTH_MEASURE(2.E-2),#1);
#363=PRESENTATION_STYLE_ASSIGNMENT((#362));
#364=STYLED_ITEM('',(#363),#361);
#365=CARTESIAN_POINT('',(0.E0,0.E0,-3.582677165354E-1));
#366=DIRECTION('',(0.E0,0.E0,-1.E0));
#367=DIRECTION('',(-8.660254037844E-1,-5.E-1,0.E0));
#368=AXIS2_PLACEMENT_3D('',#365,#366,#367);
#370=CURVE_STYLE('',#23,POSITIVE_LENGTH_MEASURE(2.E-2),#1);
#371=PRESENTATION_STYLE_ASSIGNMENT((#370));
#372=STYLED_ITEM('',(#371),#369);
#373=DIRECTION('',(8.660254037844E-1,5.E-1,0.E0));
#374=VECTOR('',#373,1.968503937008E-2);
#375=CARTESIAN_POINT('',(-1.022864650139E-1,-5.905511811024E-2,
-3.582677165354E-1));
#376=LINE('',#375,#374);
#377=CURVE_STYLE('',#23,POSITIVE_LENGTH_MEASURE(2.E-2),#1);
#378=PRESENTATION_STYLE_ASSIGNMENT((#377));
#379=STYLED_ITEM('',(#378),#376);
#380=CARTESIAN_POINT('',(0.E0,0.E0,-3.582677165354E-1));
#381=DIRECTION('',(0.E0,0.E0,-1.E0));
#382=DIRECTION('',(-5.E-1,-8.660254037844E-1,0.E0));
#383=AXIS2_PLACEMENT_3D('',#380,#381,#382);
#385=CURVE_STYLE('',#23,POSITIVE_LENGTH_MEASURE(2.E-2),#1);
#386=PRESENTATION_STYLE_ASSIGNMENT((#385));
#387=STYLED_ITEM('',(#386),#384);
#388=DIRECTION('',(-5.E-1,-8.660254037844E-1,0.E0));
#389=VECTOR('',#388,1.968503937008E-2);
#390=CARTESIAN_POINT('',(-4.921259842520E-2,-8.523872084493E-2,
-3.582677165354E-1));
#391=LINE('',#390,#389);
#392=CURVE_STYLE('',#23,POSITIVE_LENGTH_MEASURE(2.E-2),#1);
#393=PRESENTATION_STYLE_ASSIGNMENT((#392));
#394=STYLED_ITEM('',(#393),#391);
#395=CARTESIAN_POINT('',(0.E0,0.E0,-3.582677165354E-1));
#396=DIRECTION('',(0.E0,0.E0,-1.E0));
#397=DIRECTION('',(-2.666666666667E-1,-9.637888196534E-1,0.E0));
#398=AXIS2_PLACEMENT_3D('',#395,#396,#397);
#400=CURVE_STYLE('',#23,POSITIVE_LENGTH_MEASURE(2.E-2),#1);
#401=PRESENTATION_STYLE_ASSIGNMENT((#400));
#402=STYLED_ITEM('',(#401),#399);
#403=DIRECTION('',(2.666666666667E-1,9.637888196534E-1,0.E0));
#404=VECTOR('',#403,1.968503937008E-2);
#405=CARTESIAN_POINT('',(-3.149606299213E-2,-1.138333251559E-1,
-3.582677165354E-1));
#406=LINE('',#405,#404);
#407=CURVE_STYLE('',#23,POSITIVE_LENGTH_MEASURE(2.E-2),#1);
#408=PRESENTATION_STYLE_ASSIGNMENT((#407));
#409=STYLED_ITEM('',(#408),#406);
#410=CARTESIAN_POINT('',(0.E0,0.E0,-3.582677165354E-1));
#411=DIRECTION('',(0.E0,0.E0,-1.E0));
#412=DIRECTION('',(2.666666666667E-1,-9.637888196534E-1,0.E0));
#413=AXIS2_PLACEMENT_3D('',#410,#411,#412);
#415=CURVE_STYLE('',#23,POSITIVE_LENGTH_MEASURE(2.E-2),#1);
#416=PRESENTATION_STYLE_ASSIGNMENT((#415));
#417=STYLED_ITEM('',(#416),#414);
#418=DIRECTION('',(2.666666666667E-1,-9.637888196534E-1,0.E0));
#419=VECTOR('',#418,1.968503937008E-2);
#420=CARTESIAN_POINT('',(2.624671916010E-2,-9.486110429659E-2,
-3.582677165354E-1));
#421=LINE('',#420,#419);
#422=CURVE_STYLE('',#23,POSITIVE_LENGTH_MEASURE(2.E-2),#1);
#423=PRESENTATION_STYLE_ASSIGNMENT((#422));
#424=STYLED_ITEM('',(#423),#421);
#425=CARTESIAN_POINT('',(0.E0,0.E0,-3.582677165354E-1));
#426=DIRECTION('',(0.E0,0.E0,-1.E0));
#427=DIRECTION('',(5.E-1,-8.660254037844E-1,0.E0));
#428=AXIS2_PLACEMENT_3D('',#425,#426,#427);
#430=CURVE_STYLE('',#23,POSITIVE_LENGTH_MEASURE(2.E-2),#1);
#431=PRESENTATION_STYLE_ASSIGNMENT((#430));
#432=STYLED_ITEM('',(#431),#429);
#433=DIRECTION('',(-5.E-1,8.660254037844E-1,0.E0));
#434=VECTOR('',#433,1.968503937008E-2);
#435=CARTESIAN_POINT('',(5.905511811024E-2,-1.022864650139E-1,
-3.582677165354E-1));
#436=LINE('',#435,#434);
#437=CURVE_STYLE('',#23,POSITIVE_LENGTH_MEASURE(2.E-2),#1);
#438=PRESENTATION_STYLE_ASSIGNMENT((#437));
#439=STYLED_ITEM('',(#438),#436);
#440=CARTESIAN_POINT('',(0.E0,0.E0,-3.582677165354E-1));
#441=DIRECTION('',(0.E0,0.E0,-1.E0));
#442=DIRECTION('',(8.660254037844E-1,-5.E-1,0.E0));
#443=AXIS2_PLACEMENT_3D('',#440,#441,#442);
#445=CURVE_STYLE('',#23,POSITIVE_LENGTH_MEASURE(2.E-2),#1);
#446=PRESENTATION_STYLE_ASSIGNMENT((#445));
#447=STYLED_ITEM('',(#446),#444);
#448=DIRECTION('',(8.660254037844E-1,-5.E-1,0.E0));
#449=VECTOR('',#448,1.968503937008E-2);
#450=CARTESIAN_POINT('',(8.523872084493E-2,-4.921259842520E-2,
-3.582677165354E-1));
#451=LINE('',#450,#449);
#452=CURVE_STYLE('',#23,POSITIVE_LENGTH_MEASURE(2.E-2),#1);
#453=PRESENTATION_STYLE_ASSIGNMENT((#452));
#454=STYLED_ITEM('',(#453),#451);
#455=CARTESIAN_POINT('',(0.E0,0.E0,-3.582677165354E-1));
#456=DIRECTION('',(0.E0,0.E0,-1.E0));
#457=DIRECTION('',(9.637888196534E-1,-2.666666666667E-1,0.E0));
#458=AXIS2_PLACEMENT_3D('',#455,#456,#457);
#460=CURVE_STYLE('',#23,POSITIVE_LENGTH_MEASURE(2.E-2),#1);
#461=PRESENTATION_STYLE_ASSIGNMENT((#460));
#462=STYLED_ITEM('',(#461),#459);
#463=DIRECTION('',(-9.637888196534E-1,2.666666666667E-1,0.E0));
#464=VECTOR('',#463,1.968503937008E-2);
#465=CARTESIAN_POINT('',(1.138333251559E-1,-3.149606299213E-2,
-3.582677165354E-1));
#466=LINE('',#465,#464);
#467=CURVE_STYLE('',#23,POSITIVE_LENGTH_MEASURE(2.E-2),#1);
#468=PRESENTATION_STYLE_ASSIGNMENT((#467));
#469=STYLED_ITEM('',(#468),#466);
#470=DIRECTION('',(-5.667104047147E-8,0.E0,-1.E0));
#471=VECTOR('',#470,2.362204724409E-2);
#472=CARTESIAN_POINT('',(1.181102242773E-1,0.E0,-3.976377952756E-1));
#473=LINE('',#472,#471);
#474=CURVE_STYLE('',#23,POSITIVE_LENGTH_MEASURE(2.E-2),#1);
#475=PRESENTATION_STYLE_ASSIGNMENT((#474));
#476=STYLED_ITEM('',(#475),#473);
#477=DIRECTION('',(0.E0,0.E0,-1.E0));
#478=VECTOR('',#477,3.937007874016E-2);
#479=CARTESIAN_POINT('',(1.138333251559E-1,3.149606299213E-2,
-3.582677165354E-1));
#480=LINE('',#479,#478);
#481=CURVE_STYLE('',#23,POSITIVE_LENGTH_MEASURE(2.E-2),#1);
#482=PRESENTATION_STYLE_ASSIGNMENT((#481));
#483=STYLED_ITEM('',(#482),#480);
#484=DIRECTION('',(-5.566178319891E-8,0.E0,-1.E0));
#485=VECTOR('',#484,2.145669291339E-1);
#486=CARTESIAN_POINT('',(1.181102362205E-1,0.E0,-1.437007874016E-1));
#487=LINE('',#486,#485);
#488=CURVE_STYLE('',#23,POSITIVE_LENGTH_MEASURE(2.E-2),#1);
#489=PRESENTATION_STYLE_ASSIGNMENT((#488));
#490=STYLED_ITEM('',(#489),#487);
#491=DIRECTION('',(0.E0,0.E0,-1.E0));
#492=VECTOR('',#491,2.145669291339E-1);
#493=CARTESIAN_POINT('',(-1.181102362205E-1,0.E0,-1.437007874016E-1));
#494=LINE('',#493,#492);
#495=CURVE_STYLE('',#23,POSITIVE_LENGTH_MEASURE(2.E-2),#1);
#496=PRESENTATION_STYLE_ASSIGNMENT((#495));
#497=STYLED_ITEM('',(#496),#494);
#498=DIRECTION('',(0.E0,0.E0,-1.E0));
#499=VECTOR('',#498,3.937007874016E-2);
#500=CARTESIAN_POINT('',(-1.138333251559E-1,3.149606299213E-2,
-3.582677165354E-1));
#501=LINE('',#500,#499);
#502=CURVE_STYLE('',#23,POSITIVE_LENGTH_MEASURE(2.E-2),#1);
#503=PRESENTATION_STYLE_ASSIGNMENT((#502));
#504=STYLED_ITEM('',(#503),#501);
#505=DIRECTION('',(0.E0,0.E0,-1.E0));
#506=VECTOR('',#505,2.362204724409E-2);
#507=CARTESIAN_POINT('',(-1.181102362205E-1,0.E0,-3.976377952756E-1));
#508=LINE('',#507,#506);
#509=CURVE_STYLE('',#23,POSITIVE_LENGTH_MEASURE(2.E-2),#1);
#510=PRESENTATION_STYLE_ASSIGNMENT((#509));
#511=STYLED_ITEM('',(#510),#508);
#512=DIRECTION('',(0.E0,0.E0,1.E0));
#513=VECTOR('',#512,6.299212598425E-2);
#514=CARTESIAN_POINT('',(-1.022864650139E-1,5.905511811024E-2,
-4.212598425197E-1));
#515=LINE('',#514,#513);
#516=CURVE_STYLE('',#23,POSITIVE_LENGTH_MEASURE(2.E-2),#1);
#517=PRESENTATION_STYLE_ASSIGNMENT((#516));
#518=STYLED_ITEM('',(#517),#515);
#519=DIRECTION('',(0.E0,0.E0,-1.E0));
#520=VECTOR('',#519,6.299212598425E-2);
#521=CARTESIAN_POINT('',(-5.905511811024E-2,1.022864650139E-1,
-3.582677165354E-1));
#522=LINE('',#521,#520);
#523=CURVE_STYLE('',#23,POSITIVE_LENGTH_MEASURE(2.E-2),#1);
#524=PRESENTATION_STYLE_ASSIGNMENT((#523));
#525=STYLED_ITEM('',(#524),#522);
#526=DIRECTION('',(0.E0,0.E0,1.E0));
#527=VECTOR('',#526,6.299212598425E-2);
#528=CARTESIAN_POINT('',(5.905511811024E-2,1.022864650139E-1,
-4.212598425197E-1));
#529=LINE('',#528,#527);
#530=CURVE_STYLE('',#23,POSITIVE_LENGTH_MEASURE(2.E-2),#1);
#531=PRESENTATION_STYLE_ASSIGNMENT((#530));
#532=STYLED_ITEM('',(#531),#529);
#533=DIRECTION('',(0.E0,0.E0,-1.E0));
#534=VECTOR('',#533,6.299212598425E-2);
#535=CARTESIAN_POINT('',(1.022864650139E-1,5.905511811024E-2,
-3.582677165354E-1));
#536=LINE('',#535,#534);
#537=CURVE_STYLE('',#23,POSITIVE_LENGTH_MEASURE(2.E-2),#1);
#538=PRESENTATION_STYLE_ASSIGNMENT((#537));
#539=STYLED_ITEM('',(#538),#536);
#540=DIRECTION('',(0.E0,0.E0,-1.E0));
#541=VECTOR('',#540,3.937007874016E-2);
#542=CARTESIAN_POINT('',(-3.149606299213E-2,1.138333251559E-1,
-3.582677165354E-1));
#543=LINE('',#542,#541);
#544=CURVE_STYLE('',#23,POSITIVE_LENGTH_MEASURE(2.E-2),#1);
#545=PRESENTATION_STYLE_ASSIGNMENT((#544));
#546=STYLED_ITEM('',(#545),#543);
#547=DIRECTION('',(0.E0,0.E0,1.E0));
#548=VECTOR('',#547,3.937007874016E-2);
#549=CARTESIAN_POINT('',(3.149606299213E-2,1.138333251559E-1,
-3.976377952756E-1));
#550=LINE('',#549,#548);
#551=CURVE_STYLE('',#23,POSITIVE_LENGTH_MEASURE(2.E-2),#1);
#552=PRESENTATION_STYLE_ASSIGNMENT((#551));
#553=STYLED_ITEM('',(#552),#550);
#554=CARTESIAN_POINT('',(0.E0,0.E0,-4.212598425197E-1));
#555=DIRECTION('',(0.E0,0.E0,-1.E0));
#556=DIRECTION('',(1.E0,0.E0,0.E0));
#557=AXIS2_PLACEMENT_3D('',#554,#555,#556);
#559=CURVE_STYLE('',#23,POSITIVE_LENGTH_MEASURE(2.E-2),#1);
#560=PRESENTATION_STYLE_ASSIGNMENT((#559));
#561=STYLED_ITEM('',(#560),#558);
#562=CARTESIAN_POINT('',(0.E0,0.E0,-4.212598425197E-1));
#563=DIRECTION('',(0.E0,0.E0,-1.E0));
#564=DIRECTION('',(8.660254037844E-1,5.E-1,0.E0));
#565=AXIS2_PLACEMENT_3D('',#562,#563,#564);
#567=CURVE_STYLE('',#23,POSITIVE_LENGTH_MEASURE(2.E-2),#1);
#568=PRESENTATION_STYLE_ASSIGNMENT((#567));
#569=STYLED_ITEM('',(#568),#566);
#570=DIRECTION('',(8.660254037844E-1,5.E-1,0.E0));
#571=VECTOR('',#570,1.968503937008E-2);
#572=CARTESIAN_POINT('',(8.523872084493E-2,4.921259842520E-2,
-4.212598425197E-1));
#573=LINE('',#572,#571);
#574=CURVE_STYLE('',#23,POSITIVE_LENGTH_MEASURE(2.E-2),#1);
#575=PRESENTATION_STYLE_ASSIGNMENT((#574));
#576=STYLED_ITEM('',(#575),#573);
#577=CARTESIAN_POINT('',(0.E0,0.E0,-4.212598425197E-1));
#578=DIRECTION('',(0.E0,0.E0,1.E0));
#579=DIRECTION('',(8.660254037844E-1,-5.E-1,0.E0));
#580=AXIS2_PLACEMENT_3D('',#577,#578,#579);
#582=CURVE_STYLE('',#23,POSITIVE_LENGTH_MEASURE(2.E-2),#1);
#583=PRESENTATION_STYLE_ASSIGNMENT((#582));
#584=STYLED_ITEM('',(#583),#581);
#585=DIRECTION('',(-8.660254037844E-1,5.E-1,0.E0));
#586=VECTOR('',#585,1.968503937008E-2);
#587=CARTESIAN_POINT('',(1.022864650139E-1,-5.905511811024E-2,
-4.212598425197E-1));
#588=LINE('',#587,#586);
#589=CURVE_STYLE('',#23,POSITIVE_LENGTH_MEASURE(2.E-2),#1);
#590=PRESENTATION_STYLE_ASSIGNMENT((#589));
#591=STYLED_ITEM('',(#590),#588);
#592=DIRECTION('',(0.E0,0.E0,-1.E0));
#593=VECTOR('',#592,3.937007874016E-2);
#594=CARTESIAN_POINT('',(9.486110429659E-2,-2.624671916011E-2,
-3.582677165354E-1));
#595=LINE('',#594,#593);
#596=CURVE_STYLE('',#23,POSITIVE_LENGTH_MEASURE(2.E-2),#1);
#597=PRESENTATION_STYLE_ASSIGNMENT((#596));
#598=STYLED_ITEM('',(#597),#595);
#599=DIRECTION('',(0.E0,0.E0,1.E0));
#600=VECTOR('',#599,6.299212598425E-2);
#601=CARTESIAN_POINT('',(8.523872084493E-2,-4.921259842520E-2,
-4.212598425197E-1));
#602=LINE('',#601,#600);
#603=CURVE_STYLE('',#23,POSITIVE_LENGTH_MEASURE(2.E-2),#1);
#604=PRESENTATION_STYLE_ASSIGNMENT((#603));
#605=STYLED_ITEM('',(#604),#602);
#606=DIRECTION('',(0.E0,0.E0,-1.E0));
#607=VECTOR('',#606,6.299212598425E-2);
#608=CARTESIAN_POINT('',(8.523872084493E-2,4.921259842520E-2,
-3.582677165354E-1));
#609=LINE('',#608,#607);
#610=CURVE_STYLE('',#23,POSITIVE_LENGTH_MEASURE(2.E-2),#1);
#611=PRESENTATION_STYLE_ASSIGNMENT((#610));
#612=STYLED_ITEM('',(#611),#609);
#613=DIRECTION('',(0.E0,0.E0,1.E0));
#614=VECTOR('',#613,3.937007874016E-2);
#615=CARTESIAN_POINT('',(9.486110429659E-2,2.624671916010E-2,
-3.976377952756E-1));
#616=LINE('',#615,#614);
#617=CURVE_STYLE('',#23,POSITIVE_LENGTH_MEASURE(2.E-2),#1);
#618=PRESENTATION_STYLE_ASSIGNMENT((#617));
#619=STYLED_ITEM('',(#618),#616);
#620=CARTESIAN_POINT('',(0.E0,0.E0,-3.976377952756E-1));
#621=DIRECTION('',(0.E0,0.E0,1.E0));
#622=DIRECTION('',(1.E0,0.E0,0.E0));
#623=AXIS2_PLACEMENT_3D('',#620,#621,#622);
#625=CURVE_STYLE('',#23,POSITIVE_LENGTH_MEASURE(2.E-2),#1);
#626=PRESENTATION_STYLE_ASSIGNMENT((#625));
#627=STYLED_ITEM('',(#626),#624);
#628=CARTESIAN_POINT('',(0.E0,0.E0,-3.976377952756E-1));
#629=DIRECTION('',(0.E0,0.E0,1.E0));
#630=DIRECTION('',(9.637888196534E-1,-2.666666666667E-1,0.E0));
#631=AXIS2_PLACEMENT_3D('',#628,#629,#630);
#633=CURVE_STYLE('',#23,POSITIVE_LENGTH_MEASURE(2.E-2),#1);
#634=PRESENTATION_STYLE_ASSIGNMENT((#633));
#635=STYLED_ITEM('',(#634),#632);
#636=DIRECTION('',(9.637888196534E-1,-2.666666666667E-1,0.E0));
#637=VECTOR('',#636,1.968503937008E-2);
#638=CARTESIAN_POINT('',(9.486110429659E-2,-2.624671916011E-2,
-3.976377952756E-1));
#639=LINE('',#638,#637);
#640=CURVE_STYLE('',#23,POSITIVE_LENGTH_MEASURE(2.E-2),#1);
#641=PRESENTATION_STYLE_ASSIGNMENT((#640));
#642=STYLED_ITEM('',(#641),#639);
#643=CARTESIAN_POINT('',(0.E0,0.E0,-3.976377952756E-1));
#644=DIRECTION('',(0.E0,0.E0,-1.E0));
#645=DIRECTION('',(9.637888196534E-1,2.666666666667E-1,0.E0));
#646=AXIS2_PLACEMENT_3D('',#643,#644,#645);
#648=CURVE_STYLE('',#23,POSITIVE_LENGTH_MEASURE(2.E-2),#1);
#649=PRESENTATION_STYLE_ASSIGNMENT((#648));
#650=STYLED_ITEM('',(#649),#647);
#651=DIRECTION('',(-9.637888196534E-1,-2.666666666667E-1,0.E0));
#652=VECTOR('',#651,1.968503937008E-2);
#653=CARTESIAN_POINT('',(1.138333251559E-1,3.149606299213E-2,
-3.976377952756E-1));
#654=LINE('',#653,#652);
#655=CURVE_STYLE('',#23,POSITIVE_LENGTH_MEASURE(2.E-2),#1);
#656=PRESENTATION_STYLE_ASSIGNMENT((#655));
#657=STYLED_ITEM('',(#656),#654);
#658=DIRECTION('',(0.E0,0.E0,-1.E0));
#659=VECTOR('',#658,3.937007874016E-2);
#660=CARTESIAN_POINT('',(-9.486110429659E-2,2.624671916010E-2,
-3.582677165354E-1));
#661=LINE('',#660,#659);
#662=CURVE_STYLE('',#23,POSITIVE_LENGTH_MEASURE(2.E-2),#1);
#663=PRESENTATION_STYLE_ASSIGNMENT((#662));
#664=STYLED_ITEM('',(#663),#661);
#665=DIRECTION('',(0.E0,0.E0,1.E0));
#666=VECTOR('',#665,6.299212598425E-2);
#667=CARTESIAN_POINT('',(-8.523872084493E-2,4.921259842520E-2,
-4.212598425197E-1));
#668=LINE('',#667,#666);
#669=CURVE_STYLE('',#23,POSITIVE_LENGTH_MEASURE(2.E-2),#1);
#670=PRESENTATION_STYLE_ASSIGNMENT((#669));
#671=STYLED_ITEM('',(#670),#668);
#672=DIRECTION('',(0.E0,0.E0,-1.E0));
#673=VECTOR('',#672,6.299212598425E-2);
#674=CARTESIAN_POINT('',(-8.523872084493E-2,-4.921259842520E-2,
-3.582677165354E-1));
#675=LINE('',#674,#673);
#676=CURVE_STYLE('',#23,POSITIVE_LENGTH_MEASURE(2.E-2),#1);
#677=PRESENTATION_STYLE_ASSIGNMENT((#676));
#678=STYLED_ITEM('',(#677),#675);
#679=DIRECTION('',(0.E0,0.E0,1.E0));
#680=VECTOR('',#679,3.937007874016E-2);
#681=CARTESIAN_POINT('',(-9.486110429659E-2,-2.624671916010E-2,
-3.976377952756E-1));
#682=LINE('',#681,#680);
#683=CURVE_STYLE('',#23,POSITIVE_LENGTH_MEASURE(2.E-2),#1);
#684=PRESENTATION_STYLE_ASSIGNMENT((#683));
#685=STYLED_ITEM('',(#684),#682);
#686=DIRECTION('',(-8.660254037844E-1,-5.E-1,0.E0));
#687=VECTOR('',#686,1.968503937008E-2);
#688=CARTESIAN_POINT('',(-8.523872084493E-2,-4.921259842520E-2,
-4.212598425197E-1));
#689=LINE('',#688,#687);
#690=CURVE_STYLE('',#23,POSITIVE_LENGTH_MEASURE(2.E-2),#1);
#691=PRESENTATION_STYLE_ASSIGNMENT((#690));
#692=STYLED_ITEM('',(#691),#689);
#693=CARTESIAN_POINT('',(0.E0,0.E0,-4.212598425197E-1));
#694=DIRECTION('',(0.E0,0.E0,1.E0));
#695=DIRECTION('',(-1.E0,0.E0,0.E0));
#696=AXIS2_PLACEMENT_3D('',#693,#694,#695);
#698=CURVE_STYLE('',#23,POSITIVE_LENGTH_MEASURE(2.E-2),#1);
#699=PRESENTATION_STYLE_ASSIGNMENT((#698));
#700=STYLED_ITEM('',(#699),#697);
#701=CARTESIAN_POINT('',(0.E0,0.E0,-4.212598425197E-1));
#702=DIRECTION('',(0.E0,0.E0,1.E0));
#703=DIRECTION('',(-8.660254037844E-1,5.E-1,0.E0));
#704=AXIS2_PLACEMENT_3D('',#701,#702,#703);
#706=CURVE_STYLE('',#23,POSITIVE_LENGTH_MEASURE(2.E-2),#1);
#707=PRESENTATION_STYLE_ASSIGNMENT((#706));
#708=STYLED_ITEM('',(#707),#705);
#709=DIRECTION('',(8.660254037844E-1,-5.E-1,0.E0));
#710=VECTOR('',#709,1.968503937008E-2);
#711=CARTESIAN_POINT('',(-1.022864650139E-1,5.905511811024E-2,
-4.212598425197E-1));
#712=LINE('',#711,#710);
#713=CURVE_STYLE('',#23,POSITIVE_LENGTH_MEASURE(2.E-2),#1);
#714=PRESENTATION_STYLE_ASSIGNMENT((#713));
#715=STYLED_ITEM('',(#714),#712);
#716=CARTESIAN_POINT('',(0.E0,0.E0,-4.212598425197E-1));
#717=DIRECTION('',(0.E0,0.E0,-1.E0));
#718=DIRECTION('',(-1.E0,0.E0,0.E0));
#719=AXIS2_PLACEMENT_3D('',#716,#717,#718);
#721=CURVE_STYLE('',#23,POSITIVE_LENGTH_MEASURE(2.E-2),#1);
#722=PRESENTATION_STYLE_ASSIGNMENT((#721));
#723=STYLED_ITEM('',(#722),#720);
#724=CARTESIAN_POINT('',(0.E0,0.E0,-4.212598425197E-1));
#725=DIRECTION('',(0.E0,0.E0,-1.E0));
#726=DIRECTION('',(-8.660254037844E-1,-5.E-1,0.E0));
#727=AXIS2_PLACEMENT_3D('',#724,#725,#726);
#729=CURVE_STYLE('',#23,POSITIVE_LENGTH_MEASURE(2.E-2),#1);
#730=PRESENTATION_STYLE_ASSIGNMENT((#729));
#731=STYLED_ITEM('',(#730),#728);
#732=DIRECTION('',(9.637888196534E-1,2.666666666667E-1,0.E0));
#733=VECTOR('',#732,1.968503937008E-2);
#734=CARTESIAN_POINT('',(-1.138333251559E-1,-3.149606299213E-2,
-3.976377952756E-1));
#735=LINE('',#734,#733);
#736=CURVE_STYLE('',#23,POSITIVE_LENGTH_MEASURE(2.E-2),#1);
#737=PRESENTATION_STYLE_ASSIGNMENT((#736));
#738=STYLED_ITEM('',(#737),#735);
#739=CARTESIAN_POINT('',(0.E0,0.E0,-3.976377952756E-1));
#740=DIRECTION('',(0.E0,0.E0,1.E0));
#741=DIRECTION('',(-1.E0,0.E0,0.E0));
#742=AXIS2_PLACEMENT_3D('',#739,#740,#741);
#744=CURVE_STYLE('',#23,POSITIVE_LENGTH_MEASURE(2.E-2),#1);
#745=PRESENTATION_STYLE_ASSIGNMENT((#744));
#746=STYLED_ITEM('',(#745),#743);
#747=CARTESIAN_POINT('',(0.E0,0.E0,-3.976377952756E-1));
#748=DIRECTION('',(0.E0,0.E0,1.E0));
#749=DIRECTION('',(-9.637888196534E-1,2.666666666667E-1,0.E0));
#750=AXIS2_PLACEMENT_3D('',#747,#748,#749);
#752=CURVE_STYLE('',#23,POSITIVE_LENGTH_MEASURE(2.E-2),#1);
#753=PRESENTATION_STYLE_ASSIGNMENT((#752));
#754=STYLED_ITEM('',(#753),#751);
#755=DIRECTION('',(-9.637888196534E-1,2.666666666667E-1,0.E0));
#756=VECTOR('',#755,1.968503937008E-2);
#757=CARTESIAN_POINT('',(-9.486110429659E-2,2.624671916010E-2,
-3.976377952756E-1));
#758=LINE('',#757,#756);
#759=CURVE_STYLE('',#23,POSITIVE_LENGTH_MEASURE(2.E-2),#1);
#760=PRESENTATION_STYLE_ASSIGNMENT((#759));
#761=STYLED_ITEM('',(#760),#758);
#762=CARTESIAN_POINT('',(0.E0,0.E0,-3.976377952756E-1));
#763=DIRECTION('',(0.E0,0.E0,-1.E0));
#764=DIRECTION('',(-1.E0,0.E0,0.E0));
#765=AXIS2_PLACEMENT_3D('',#762,#763,#764);
#767=CURVE_STYLE('',#23,POSITIVE_LENGTH_MEASURE(2.E-2),#1);
#768=PRESENTATION_STYLE_ASSIGNMENT((#767));
#769=STYLED_ITEM('',(#768),#766);
#770=CARTESIAN_POINT('',(0.E0,0.E0,-3.976377952756E-1));
#771=DIRECTION('',(0.E0,0.E0,-1.E0));
#772=DIRECTION('',(-9.637888196534E-1,-2.666666666667E-1,0.E0));
#773=AXIS2_PLACEMENT_3D('',#770,#771,#772);
#775=CURVE_STYLE('',#23,POSITIVE_LENGTH_MEASURE(2.E-2),#1);
#776=PRESENTATION_STYLE_ASSIGNMENT((#775));
#777=STYLED_ITEM('',(#776),#774);
#778=DIRECTION('',(-5.E-1,8.660254037844E-1,0.E0));
#779=VECTOR('',#778,1.968503937008E-2);
#780=CARTESIAN_POINT('',(-4.921259842520E-2,8.523872084493E-2,
-4.212598425197E-1));
#781=LINE('',#780,#779);
#782=CURVE_STYLE('',#23,POSITIVE_LENGTH_MEASURE(2.E-2),#1);
#783=PRESENTATION_STYLE_ASSIGNMENT((#782));
#784=STYLED_ITEM('',(#783),#781);
#785=CARTESIAN_POINT('',(0.E0,0.E0,-4.212598425197E-1));
#786=DIRECTION('',(0.E0,0.E0,1.E0));
#787=DIRECTION('',(5.E-1,8.660254037844E-1,0.E0));
#788=AXIS2_PLACEMENT_3D('',#785,#786,#787);
#790=CURVE_STYLE('',#23,POSITIVE_LENGTH_MEASURE(2.E-2),#1);
#791=PRESENTATION_STYLE_ASSIGNMENT((#790));
#792=STYLED_ITEM('',(#791),#789);
#793=DIRECTION('',(-5.E-1,-8.660254037844E-1,0.E0));
#794=VECTOR('',#793,1.968503937008E-2);
#795=CARTESIAN_POINT('',(5.905511811024E-2,1.022864650139E-1,
-4.212598425197E-1));
#796=LINE('',#795,#794);
#797=CURVE_STYLE('',#23,POSITIVE_LENGTH_MEASURE(2.E-2),#1);
#798=PRESENTATION_STYLE_ASSIGNMENT((#797));
#799=STYLED_ITEM('',(#798),#796);
#800=CARTESIAN_POINT('',(0.E0,0.E0,-4.212598425197E-1));
#801=DIRECTION('',(0.E0,0.E0,-1.E0));
#802=DIRECTION('',(-5.E-1,8.660254037844E-1,0.E0));
#803=AXIS2_PLACEMENT_3D('',#800,#801,#802);
#805=CURVE_STYLE('',#23,POSITIVE_LENGTH_MEASURE(2.E-2),#1);
#806=PRESENTATION_STYLE_ASSIGNMENT((#805));
#807=STYLED_ITEM('',(#806),#804);
#808=DIRECTION('',(0.E0,0.E0,-1.E0));
#809=VECTOR('',#808,3.937007874016E-2);
#810=CARTESIAN_POINT('',(2.624671916010E-2,9.486110429659E-2,
-3.582677165354E-1));
#811=LINE('',#810,#809);
#812=CURVE_STYLE('',#23,POSITIVE_LENGTH_MEASURE(2.E-2),#1);
#813=PRESENTATION_STYLE_ASSIGNMENT((#812));
#814=STYLED_ITEM('',(#813),#811);
#815=DIRECTION('',(0.E0,0.E0,1.E0));
#816=VECTOR('',#815,6.299212598425E-2);
#817=CARTESIAN_POINT('',(4.921259842520E-2,8.523872084493E-2,
-4.212598425197E-1));
#818=LINE('',#817,#816);
#819=CURVE_STYLE('',#23,POSITIVE_LENGTH_MEASURE(2.E-2),#1);
#820=PRESENTATION_STYLE_ASSIGNMENT((#819));
#821=STYLED_ITEM('',(#820),#818);
#822=DIRECTION('',(0.E0,0.E0,-1.E0));
#823=VECTOR('',#822,6.299212598425E-2);
#824=CARTESIAN_POINT('',(-4.921259842520E-2,8.523872084493E-2,
-3.582677165354E-1));
#825=LINE('',#824,#823);
#826=CURVE_STYLE('',#23,POSITIVE_LENGTH_MEASURE(2.E-2),#1);
#827=PRESENTATION_STYLE_ASSIGNMENT((#826));
#828=STYLED_ITEM('',(#827),#825);
#829=DIRECTION('',(0.E0,0.E0,1.E0));
#830=VECTOR('',#829,3.937007874016E-2);
#831=CARTESIAN_POINT('',(-2.624671916010E-2,9.486110429659E-2,
-3.976377952756E-1));
#832=LINE('',#831,#830);
#833=CURVE_STYLE('',#23,POSITIVE_LENGTH_MEASURE(2.E-2),#1);
#834=PRESENTATION_STYLE_ASSIGNMENT((#833));
#835=STYLED_ITEM('',(#834),#832);
#836=CARTESIAN_POINT('',(0.E0,0.E0,-3.976377952756E-1));
#837=DIRECTION('',(0.E0,0.E0,-1.E0));
#838=DIRECTION('',(-2.666666666667E-1,9.637888196534E-1,0.E0));
#839=AXIS2_PLACEMENT_3D('',#836,#837,#838);
#841=CURVE_STYLE('',#23,POSITIVE_LENGTH_MEASURE(2.E-2),#1);
#842=PRESENTATION_STYLE_ASSIGNMENT((#841));
#843=STYLED_ITEM('',(#842),#840);
#844=DIRECTION('',(2.666666666667E-1,-9.637888196534E-1,0.E0));
#845=VECTOR('',#844,1.968503937008E-2);
#846=CARTESIAN_POINT('',(-3.149606299213E-2,1.138333251559E-1,
-3.976377952756E-1));
#847=LINE('',#846,#845);
#848=CURVE_STYLE('',#23,POSITIVE_LENGTH_MEASURE(2.E-2),#1);
#849=PRESENTATION_STYLE_ASSIGNMENT((#848));
#850=STYLED_ITEM('',(#849),#847);
#851=CARTESIAN_POINT('',(0.E0,0.E0,-3.976377952756E-1));
#852=DIRECTION('',(0.E0,0.E0,1.E0));
#853=DIRECTION('',(2.666666666667E-1,9.637888196534E-1,0.E0));
#854=AXIS2_PLACEMENT_3D('',#851,#852,#853);
#856=CURVE_STYLE('',#23,POSITIVE_LENGTH_MEASURE(2.E-2),#1);
#857=PRESENTATION_STYLE_ASSIGNMENT((#856));
#858=STYLED_ITEM('',(#857),#855);
#859=DIRECTION('',(2.666666666667E-1,9.637888196534E-1,0.E0));
#860=VECTOR('',#859,1.968503937008E-2);
#861=CARTESIAN_POINT('',(2.624671916010E-2,9.486110429659E-2,
-3.976377952756E-1));
#862=LINE('',#861,#860);
#863=CURVE_STYLE('',#23,POSITIVE_LENGTH_MEASURE(2.E-2),#1);
#864=PRESENTATION_STYLE_ASSIGNMENT((#863));
#865=STYLED_ITEM('',(#864),#862);
#866=DIRECTION('',(0.E0,0.E0,-1.E0));
#867=VECTOR('',#866,3.937007874016E-2);
#868=CARTESIAN_POINT('',(-2.624671916011E-2,-9.486110429659E-2,
-3.582677165354E-1));
#869=LINE('',#868,#867);
#870=CURVE_STYLE('',#23,POSITIVE_LENGTH_MEASURE(2.E-2),#1);
#871=PRESENTATION_STYLE_ASSIGNMENT((#870));
#872=STYLED_ITEM('',(#871),#869);
#873=DIRECTION('',(0.E0,0.E0,1.E0));
#874=VECTOR('',#873,6.299212598425E-2);
#875=CARTESIAN_POINT('',(-4.921259842520E-2,-8.523872084493E-2,
-4.212598425197E-1));
#876=LINE('',#875,#874);
#877=CURVE_STYLE('',#23,POSITIVE_LENGTH_MEASURE(2.E-2),#1);
#878=PRESENTATION_STYLE_ASSIGNMENT((#877));
#879=STYLED_ITEM('',(#878),#876);
#880=DIRECTION('',(0.E0,0.E0,-1.E0));
#881=VECTOR('',#880,6.299212598425E-2);
#882=CARTESIAN_POINT('',(4.921259842520E-2,-8.523872084493E-2,
-3.582677165354E-1));
#883=LINE('',#882,#881);
#884=CURVE_STYLE('',#23,POSITIVE_LENGTH_MEASURE(2.E-2),#1);
#885=PRESENTATION_STYLE_ASSIGNMENT((#884));
#886=STYLED_ITEM('',(#885),#883);
#887=DIRECTION('',(0.E0,0.E0,1.E0));
#888=VECTOR('',#887,3.937007874016E-2);
#889=CARTESIAN_POINT('',(2.624671916010E-2,-9.486110429659E-2,
-3.976377952756E-1));
#890=LINE('',#889,#888);
#891=CURVE_STYLE('',#23,POSITIVE_LENGTH_MEASURE(2.E-2),#1);
#892=PRESENTATION_STYLE_ASSIGNMENT((#891));
#893=STYLED_ITEM('',(#892),#890);
#894=DIRECTION('',(-2.666666666667E-1,-9.637888196534E-1,0.E0));
#895=VECTOR('',#894,1.968503937008E-2);
#896=CARTESIAN_POINT('',(-2.624671916011E-2,-9.486110429659E-2,
-3.976377952756E-1));
#897=LINE('',#896,#895);
#898=CURVE_STYLE('',#23,POSITIVE_LENGTH_MEASURE(2.E-2),#1);
#899=PRESENTATION_STYLE_ASSIGNMENT((#898));
#900=STYLED_ITEM('',(#899),#897);
#901=CARTESIAN_POINT('',(0.E0,0.E0,-3.976377952756E-1));
#902=DIRECTION('',(0.E0,0.E0,-1.E0));
#903=DIRECTION('',(2.666666666667E-1,-9.637888196534E-1,0.E0));
#904=AXIS2_PLACEMENT_3D('',#901,#902,#903);
#906=CURVE_STYLE('',#23,POSITIVE_LENGTH_MEASURE(2.E-2),#1);
#907=PRESENTATION_STYLE_ASSIGNMENT((#906));
#908=STYLED_ITEM('',(#907),#905);
#909=DIRECTION('',(-2.666666666667E-1,9.637888196534E-1,0.E0));
#910=VECTOR('',#909,1.968503937008E-2);
#911=CARTESIAN_POINT('',(3.149606299213E-2,-1.138333251559E-1,
-3.976377952756E-1));
#912=LINE('',#911,#910);
#913=CURVE_STYLE('',#23,POSITIVE_LENGTH_MEASURE(2.E-2),#1);
#914=PRESENTATION_STYLE_ASSIGNMENT((#913));
#915=STYLED_ITEM('',(#914),#912);
#916=CARTESIAN_POINT('',(0.E0,0.E0,-3.976377952756E-1));
#917=DIRECTION('',(0.E0,0.E0,1.E0));
#918=DIRECTION('',(-2.666666666667E-1,-9.637888196534E-1,0.E0));
#919=AXIS2_PLACEMENT_3D('',#916,#917,#918);
#921=CURVE_STYLE('',#23,POSITIVE_LENGTH_MEASURE(2.E-2),#1);
#922=PRESENTATION_STYLE_ASSIGNMENT((#921));
#923=STYLED_ITEM('',(#922),#920);
#924=CARTESIAN_POINT('',(9.486110429659E-2,2.624671916010E-2,
-3.582677165354E-1));
#925=CARTESIAN_POINT('',(1.138333251559E-1,3.149606299213E-2,
-3.582677165354E-1));
#926=VERTEX_POINT('',#924);
#927=VERTEX_POINT('',#925);
#928=CARTESIAN_POINT('',(9.486110429659E-2,2.624671916010E-2,
-3.976377952756E-1));
#929=VERTEX_POINT('',#928);
#930=CARTESIAN_POINT('',(1.138333251559E-1,3.149606299213E-2,
-3.976377952756E-1));
#931=VERTEX_POINT('',#930);
#932=CARTESIAN_POINT('',(1.138333251559E-1,-3.149606299213E-2,
-3.582677165354E-1));
#933=CARTESIAN_POINT('',(9.486110429659E-2,-2.624671916011E-2,
-3.582677165354E-1));
#934=VERTEX_POINT('',#932);
#935=VERTEX_POINT('',#933);
#936=CARTESIAN_POINT('',(9.486110429659E-2,-2.624671916011E-2,
-3.976377952756E-1));
#937=CARTESIAN_POINT('',(1.138333251559E-1,-3.149606299213E-2,
-3.976377952756E-1));
#938=VERTEX_POINT('',#936);
#939=VERTEX_POINT('',#937);
#940=CARTESIAN_POINT('',(-1.138333251559E-1,3.149606299213E-2,
-3.582677165354E-1));
#941=CARTESIAN_POINT('',(-9.486110429659E-2,2.624671916010E-2,
-3.582677165354E-1));
#942=VERTEX_POINT('',#940);
#943=VERTEX_POINT('',#941);
#944=CARTESIAN_POINT('',(-9.486110429659E-2,2.624671916010E-2,
-3.976377952756E-1));
#945=CARTESIAN_POINT('',(-1.138333251559E-1,3.149606299213E-2,
-3.976377952756E-1));
#946=VERTEX_POINT('',#944);
#947=VERTEX_POINT('',#945);
#948=CARTESIAN_POINT('',(-9.486110429659E-2,-2.624671916010E-2,
-3.582677165354E-1));
#949=CARTESIAN_POINT('',(-1.138333251559E-1,-3.149606299213E-2,
-3.582677165354E-1));
#950=VERTEX_POINT('',#948);
#951=VERTEX_POINT('',#949);
#952=CARTESIAN_POINT('',(-9.486110429659E-2,-2.624671916010E-2,
-3.976377952756E-1));
#953=VERTEX_POINT('',#952);
#954=CARTESIAN_POINT('',(-1.138333251559E-1,-3.149606299213E-2,
-3.976377952756E-1));
#955=VERTEX_POINT('',#954);
#956=CARTESIAN_POINT('',(-9.842519685039E-2,0.E0,-3.976377952756E-1));
#957=VERTEX_POINT('',#956);
#958=CARTESIAN_POINT('',(2.624671916010E-2,-9.486110429659E-2,
-3.582677165354E-1));
#959=CARTESIAN_POINT('',(3.149606299213E-2,-1.138333251559E-1,
-3.582677165354E-1));
#960=VERTEX_POINT('',#958);
#961=VERTEX_POINT('',#959);
#962=CARTESIAN_POINT('',(2.624671916010E-2,-9.486110429659E-2,
-3.976377952756E-1));
#963=VERTEX_POINT('',#962);
#964=CARTESIAN_POINT('',(3.149606299213E-2,-1.138333251559E-1,
-3.976377952756E-1));
#965=VERTEX_POINT('',#964);
#966=CARTESIAN_POINT('',(-3.149606299213E-2,-1.138333251559E-1,
-3.582677165354E-1));
#967=CARTESIAN_POINT('',(-2.624671916011E-2,-9.486110429659E-2,
-3.582677165354E-1));
#968=VERTEX_POINT('',#966);
#969=VERTEX_POINT('',#967);
#970=CARTESIAN_POINT('',(-2.624671916011E-2,-9.486110429659E-2,
-3.976377952756E-1));
#971=CARTESIAN_POINT('',(-3.149606299213E-2,-1.138333251559E-1,
-3.976377952756E-1));
#972=VERTEX_POINT('',#970);
#973=VERTEX_POINT('',#971);
#974=CARTESIAN_POINT('',(3.149606299213E-2,1.138333251559E-1,
-3.582677165354E-1));
#975=CARTESIAN_POINT('',(2.624671916010E-2,9.486110429659E-2,
-3.582677165354E-1));
#976=VERTEX_POINT('',#974);
#977=VERTEX_POINT('',#975);
#978=CARTESIAN_POINT('',(2.624671916010E-2,9.486110429659E-2,
-3.976377952756E-1));
#979=CARTESIAN_POINT('',(3.149606299213E-2,1.138333251559E-1,
-3.976377952756E-1));
#980=VERTEX_POINT('',#978);
#981=VERTEX_POINT('',#979);
#982=CARTESIAN_POINT('',(-2.624671916011E-2,9.486110429659E-2,
-3.582677165354E-1));
#983=CARTESIAN_POINT('',(-3.149606299213E-2,1.138333251559E-1,
-3.582677165354E-1));
#984=VERTEX_POINT('',#982);
#985=VERTEX_POINT('',#983);
#986=CARTESIAN_POINT('',(-2.624671916010E-2,9.486110429659E-2,
-3.976377952756E-1));
#987=VERTEX_POINT('',#986);
#988=CARTESIAN_POINT('',(-3.149606299213E-2,1.138333251559E-1,
-3.976377952756E-1));
#989=VERTEX_POINT('',#988);
#990=CARTESIAN_POINT('',(8.523872084493E-2,4.921259842520E-2,
-3.582677165354E-1));
#991=VERTEX_POINT('',#990);
#992=CARTESIAN_POINT('',(8.523872084493E-2,4.921259842520E-2,
-4.212598425197E-1));
#993=VERTEX_POINT('',#992);
#994=CARTESIAN_POINT('',(8.523872084493E-2,-4.921259842520E-2,
-4.212598425197E-1));
#995=VERTEX_POINT('',#994);
#996=CARTESIAN_POINT('',(8.523872084493E-2,-4.921259842520E-2,
-3.582677165354E-1));
#997=VERTEX_POINT('',#996);
#998=CARTESIAN_POINT('',(-8.523872084493E-2,-4.921259842520E-2,
-3.582677165354E-1));
#999=VERTEX_POINT('',#998);
#1000=CARTESIAN_POINT('',(-8.523872084493E-2,-4.921259842520E-2,
-4.212598425197E-1));
#1001=VERTEX_POINT('',#1000);
#1002=CARTESIAN_POINT('',(-8.523872084493E-2,4.921259842520E-2,
-4.212598425197E-1));
#1003=CARTESIAN_POINT('',(-9.842519685039E-2,0.E0,-4.212598425197E-1));
#1004=VERTEX_POINT('',#1002);
#1005=VERTEX_POINT('',#1003);
#1006=CARTESIAN_POINT('',(-8.523872084493E-2,4.921259842520E-2,
-3.582677165354E-1));
#1007=VERTEX_POINT('',#1006);
#1008=CARTESIAN_POINT('',(4.921259842520E-2,-8.523872084493E-2,
-3.582677165354E-1));
#1009=VERTEX_POINT('',#1008);
#1010=CARTESIAN_POINT('',(4.921259842520E-2,-8.523872084493E-2,
-4.212598425197E-1));
#1011=VERTEX_POINT('',#1010);
#1012=CARTESIAN_POINT('',(-4.921259842520E-2,-8.523872084493E-2,
-4.212598425197E-1));
#1013=VERTEX_POINT('',#1012);
#1014=CARTESIAN_POINT('',(-4.921259842520E-2,-8.523872084493E-2,
-3.582677165354E-1));
#1015=VERTEX_POINT('',#1014);
#1016=CARTESIAN_POINT('',(-4.921259842520E-2,8.523872084493E-2,
-3.582677165354E-1));
#1017=VERTEX_POINT('',#1016);
#1018=CARTESIAN_POINT('',(-4.921259842520E-2,8.523872084493E-2,
-4.212598425197E-1));
#1019=VERTEX_POINT('',#1018);
#1020=CARTESIAN_POINT('',(4.921259842520E-2,8.523872084493E-2,
-4.212598425197E-1));
#1021=VERTEX_POINT('',#1020);
#1022=CARTESIAN_POINT('',(4.921259842520E-2,8.523872084493E-2,
-3.582677165354E-1));
#1023=VERTEX_POINT('',#1022);
#1024=CARTESIAN_POINT('',(1.022864650139E-1,-5.905511811024E-2,
-4.212598425197E-1));
#1025=VERTEX_POINT('',#1024);
#1026=CARTESIAN_POINT('',(1.022864650139E-1,-5.905511811024E-2,
-3.582677165354E-1));
#1027=VERTEX_POINT('',#1026);
#1028=CARTESIAN_POINT('',(5.905511811024E-2,-1.022864650139E-1,
-4.212598425197E-1));
#1029=VERTEX_POINT('',#1028);
#1030=CARTESIAN_POINT('',(5.905511811024E-2,-1.022864650139E-1,
-3.582677165354E-1));
#1031=VERTEX_POINT('',#1030);
#1032=CARTESIAN_POINT('',(-5.905511811024E-2,-1.022864650139E-1,
-4.212598425197E-1));
#1033=VERTEX_POINT('',#1032);
#1034=CARTESIAN_POINT('',(-5.905511811024E-2,-1.022864650139E-1,
-3.582677165354E-1));
#1035=VERTEX_POINT('',#1034);
#1036=CARTESIAN_POINT('',(-1.022864650139E-1,-5.905511811024E-2,
-4.212598425197E-1));
#1037=VERTEX_POINT('',#1036);
#1038=CARTESIAN_POINT('',(-1.022864650139E-1,-5.905511811024E-2,
-3.582677165354E-1));
#1039=VERTEX_POINT('',#1038);
#1040=CARTESIAN_POINT('',(-1.022864650139E-1,5.905511811024E-2,
-4.212598425197E-1));
#1041=VERTEX_POINT('',#1040);
#1042=CARTESIAN_POINT('',(-1.022864650139E-1,5.905511811024E-2,
-3.582677165354E-1));
#1043=VERTEX_POINT('',#1042);
#1044=CARTESIAN_POINT('',(-5.905511811024E-2,1.022864650139E-1,
-4.212598425197E-1));
#1045=VERTEX_POINT('',#1044);
#1046=CARTESIAN_POINT('',(-5.905511811024E-2,1.022864650139E-1,
-3.582677165354E-1));
#1047=VERTEX_POINT('',#1046);
#1048=CARTESIAN_POINT('',(5.905511811024E-2,1.022864650139E-1,
-4.212598425197E-1));
#1049=VERTEX_POINT('',#1048);
#1050=CARTESIAN_POINT('',(5.905511811024E-2,1.022864650139E-1,
-3.582677165354E-1));
#1051=VERTEX_POINT('',#1050);
#1052=CARTESIAN_POINT('',(1.022864650139E-1,5.905511811024E-2,
-4.212598425197E-1));
#1053=VERTEX_POINT('',#1052);
#1054=CARTESIAN_POINT('',(1.022864650139E-1,5.905511811024E-2,
-3.582677165354E-1));
#1055=VERTEX_POINT('',#1054);
#1056=CARTESIAN_POINT('',(3.937007874016E-2,0.E0,-1.437007874016E-1));
#1057=CARTESIAN_POINT('',(3.937007874016E-2,0.E0,-1.318897637795E-1));
#1058=VERTEX_POINT('',#1056);
#1059=VERTEX_POINT('',#1057);
#1060=CARTESIAN_POINT('',(-3.937007874016E-2,0.E0,-1.437007874016E-1));
#1061=VERTEX_POINT('',#1060);
#1062=CARTESIAN_POINT('',(-3.937007874016E-2,0.E0,-1.318897637795E-1));
#1063=VERTEX_POINT('',#1062);
#1064=CARTESIAN_POINT('',(-1.181102362205E-1,0.E0,-3.976377952756E-1));
#1065=CARTESIAN_POINT('',(-1.181102362205E-1,0.E0,-4.212598425197E-1));
#1066=VERTEX_POINT('',#1064);
#1067=VERTEX_POINT('',#1065);
#1068=CARTESIAN_POINT('',(-1.181102362205E-1,0.E0,-1.437007874016E-1));
#1069=CARTESIAN_POINT('',(-1.181102362205E-1,0.E0,-3.582677165354E-1));
#1070=VERTEX_POINT('',#1068);
#1071=VERTEX_POINT('',#1069);
#1072=CARTESIAN_POINT('',(1.181102362205E-1,0.E0,-1.437007874016E-1));
#1073=CARTESIAN_POINT('',(1.181102242773E-1,0.E0,-3.582677165354E-1));
#1074=VERTEX_POINT('',#1072);
#1075=VERTEX_POINT('',#1073);
#1076=CARTESIAN_POINT('',(1.181102242773E-1,0.E0,-3.976377952756E-1));
#1077=CARTESIAN_POINT('',(1.181102229386E-1,0.E0,-4.212598425197E-1));
#1078=VERTEX_POINT('',#1076);
#1079=VERTEX_POINT('',#1077);
#1080=CARTESIAN_POINT('',(6.889763779528E-2,0.E0,-1.437007874016E-1));
#1081=CARTESIAN_POINT('',(6.889763779528E-2,0.E0,-1.318897637795E-1));
#1082=VERTEX_POINT('',#1080);
#1083=VERTEX_POINT('',#1081);
#1084=CARTESIAN_POINT('',(-6.889763779528E-2,0.E0,-1.437007874016E-1));
#1085=VERTEX_POINT('',#1084);
#1086=CARTESIAN_POINT('',(-6.889763779528E-2,0.E0,-1.318897637795E-1));
#1087=VERTEX_POINT('',#1086);
#1088=CARTESIAN_POINT('',(0.E0,0.E0,-1.437007874016E-1));
#1089=DIRECTION('',(0.E0,0.E0,1.E0));
#1090=DIRECTION('',(1.E0,0.E0,0.E0));
#1091=AXIS2_PLACEMENT_3D('',#1088,#1089,#1090);
#1092=CYLINDRICAL_SURFACE('',#1091,3.937007874016E-2);
#1094=ORIENTED_EDGE('',*,*,#1093,.T.);
#1096=ORIENTED_EDGE('',*,*,#1095,.T.);
#1098=ORIENTED_EDGE('',*,*,#1097,.T.);
#1100=ORIENTED_EDGE('',*,*,#1099,.T.);
#1101=EDGE_LOOP('',(#1094,#1096,#1098,#1100));
#1102=FACE_OUTER_BOUND('',#1101,.F.);
#1104=CARTESIAN_POINT('',(0.E0,0.E0,-1.437007874016E-1));
#1105=DIRECTION('',(0.E0,0.E0,1.E0));
#1106=DIRECTION('',(1.E0,0.E0,0.E0));
#1107=AXIS2_PLACEMENT_3D('',#1104,#1105,#1106);
#1108=CYLINDRICAL_SURFACE('',#1107,3.937007874016E-2);
#1109=ORIENTED_EDGE('',*,*,#1093,.F.);
#1111=ORIENTED_EDGE('',*,*,#1110,.T.);
#1112=ORIENTED_EDGE('',*,*,#1097,.F.);
#1114=ORIENTED_EDGE('',*,*,#1113,.T.);
#1115=EDGE_LOOP('',(#1109,#1111,#1112,#1114));
#1116=FACE_OUTER_BOUND('',#1115,.F.);
#1118=CARTESIAN_POINT('',(0.E0,0.E0,-1.437007874016E-1));
#1119=DIRECTION('',(0.E0,0.E0,1.E0));
#1120=DIRECTION('',(1.E0,0.E0,0.E0));
#1121=AXIS2_PLACEMENT_3D('',#1118,#1119,#1120);
#1122=PLANE('',#1121);
#1123=ORIENTED_EDGE('',*,*,#1099,.F.);
#1124=ORIENTED_EDGE('',*,*,#1110,.F.);
#1125=EDGE_LOOP('',(#1123,#1124));
#1126=FACE_OUTER_BOUND('',#1125,.F.);
#1128=CARTESIAN_POINT('',(0.E0,0.E0,-1.318897637795E-1));
#1129=DIRECTION('',(0.E0,0.E0,-1.E0));
#1130=DIRECTION('',(-1.E0,0.E0,0.E0));
#1131=AXIS2_PLACEMENT_3D('',#1128,#1129,#1130);
#1132=PLANE('',#1131);
#1134=ORIENTED_EDGE('',*,*,#1133,.F.);
#1136=ORIENTED_EDGE('',*,*,#1135,.F.);
#1137=EDGE_LOOP('',(#1134,#1136));
#1138=FACE_OUTER_BOUND('',#1137,.F.);
#1139=ORIENTED_EDGE('',*,*,#1113,.F.);
#1140=ORIENTED_EDGE('',*,*,#1095,.F.);
#1141=EDGE_LOOP('',(#1139,#1140));
#1142=FACE_BOUND('',#1141,.F.);
#1144=CARTESIAN_POINT('',(0.E0,0.E0,-1.437007874016E-1));
#1145=DIRECTION('',(0.E0,0.E0,1.E0));
#1146=DIRECTION('',(1.E0,0.E0,0.E0));
#1147=AXIS2_PLACEMENT_3D('',#1144,#1145,#1146);
#1148=CYLINDRICAL_SURFACE('',#1147,6.889763779528E-2);
#1150=ORIENTED_EDGE('',*,*,#1149,.F.);
#1152=ORIENTED_EDGE('',*,*,#1151,.T.);
#1154=ORIENTED_EDGE('',*,*,#1153,.T.);
#1155=ORIENTED_EDGE('',*,*,#1133,.T.);
#1156=EDGE_LOOP('',(#1150,#1152,#1154,#1155));
#1157=FACE_OUTER_BOUND('',#1156,.F.);
#1159=CARTESIAN_POINT('',(0.E0,0.E0,-1.437007874016E-1));
#1160=DIRECTION('',(0.E0,0.E0,1.E0));
#1161=DIRECTION('',(1.E0,0.E0,0.E0));
#1162=AXIS2_PLACEMENT_3D('',#1159,#1160,#1161);
#1163=CYLINDRICAL_SURFACE('',#1162,6.889763779528E-2);
#1164=ORIENTED_EDGE('',*,*,#1149,.T.);
#1165=ORIENTED_EDGE('',*,*,#1135,.T.);
#1166=ORIENTED_EDGE('',*,*,#1153,.F.);
#1168=ORIENTED_EDGE('',*,*,#1167,.T.);
#1169=EDGE_LOOP('',(#1164,#1165,#1166,#1168));
#1170=FACE_OUTER_BOUND('',#1169,.F.);
#1172=CARTESIAN_POINT('',(0.E0,0.E0,-1.437007874016E-1));
#1173=DIRECTION('',(0.E0,0.E0,1.E0));
#1174=DIRECTION('',(1.E0,0.E0,0.E0));
#1175=AXIS2_PLACEMENT_3D('',#1172,#1173,#1174);
#1176=PLANE('',#1175);
#1178=ORIENTED_EDGE('',*,*,#1177,.F.);
#1180=ORIENTED_EDGE('',*,*,#1179,.F.);
#1181=EDGE_LOOP('',(#1178,#1180));
#1182=FACE_OUTER_BOUND('',#1181,.F.);
#1183=ORIENTED_EDGE('',*,*,#1151,.F.);
#1184=ORIENTED_EDGE('',*,*,#1167,.F.);
#1185=EDGE_LOOP('',(#1183,#1184));
#1186=FACE_BOUND('',#1185,.F.);
#1188=CARTESIAN_POINT('',(0.E0,0.E0,-1.437007874016E-1));
#1189=DIRECTION('',(0.E0,0.E0,-1.E0));
#1190=DIRECTION('',(1.E0,0.E0,0.E0));
#1191=AXIS2_PLACEMENT_3D('',#1188,#1189,#1190);
#1192=CYLINDRICAL_SURFACE('',#1191,1.181102362205E-1);
#1194=ORIENTED_EDGE('',*,*,#1193,.T.);
#1196=ORIENTED_EDGE('',*,*,#1195,.T.);
#1198=ORIENTED_EDGE('',*,*,#1197,.T.);
#1200=ORIENTED_EDGE('',*,*,#1199,.T.);
#1202=ORIENTED_EDGE('',*,*,#1201,.F.);
#1204=ORIENTED_EDGE('',*,*,#1203,.T.);
#1206=ORIENTED_EDGE('',*,*,#1205,.T.);
#1208=ORIENTED_EDGE('',*,*,#1207,.T.);
#1210=ORIENTED_EDGE('',*,*,#1209,.F.);
#1211=ORIENTED_EDGE('',*,*,#1177,.T.);
#1213=ORIENTED_EDGE('',*,*,#1212,.T.);
#1215=ORIENTED_EDGE('',*,*,#1214,.T.);
#1217=ORIENTED_EDGE('',*,*,#1216,.F.);
#1219=ORIENTED_EDGE('',*,*,#1218,.T.);
#1221=ORIENTED_EDGE('',*,*,#1220,.T.);
#1223=ORIENTED_EDGE('',*,*,#1222,.T.);
#1225=ORIENTED_EDGE('',*,*,#1224,.T.);
#1227=ORIENTED_EDGE('',*,*,#1226,.T.);
#1229=ORIENTED_EDGE('',*,*,#1228,.T.);
#1231=ORIENTED_EDGE('',*,*,#1230,.T.);
#1232=EDGE_LOOP('',(#1194,#1196,#1198,#1200,#1202,#1204,#1206,#1208,#1210,#1211,
#1213,#1215,#1217,#1219,#1221,#1223,#1225,#1227,#1229,#1231));
#1233=FACE_OUTER_BOUND('',#1232,.F.);
#1235=ORIENTED_EDGE('',*,*,#1234,.F.);
#1237=ORIENTED_EDGE('',*,*,#1236,.T.);
#1239=ORIENTED_EDGE('',*,*,#1238,.F.);
#1241=ORIENTED_EDGE('',*,*,#1240,.T.);
#1242=EDGE_LOOP('',(#1235,#1237,#1239,#1241));
#1243=FACE_BOUND('',#1242,.F.);
#1245=CARTESIAN_POINT('',(-5.905511811024E-2,-1.022864650139E-1,
-4.212598425197E-1));
#1246=DIRECTION('',(8.660254037844E-1,-5.E-1,0.E0));
#1247=DIRECTION('',(5.E-1,8.660254037844E-1,0.E0));
#1248=AXIS2_PLACEMENT_3D('',#1245,#1246,#1247);
#1249=PLANE('',#1248);
#1251=ORIENTED_EDGE('',*,*,#1250,.T.);
#1253=ORIENTED_EDGE('',*,*,#1252,.T.);
#1255=ORIENTED_EDGE('',*,*,#1254,.T.);
#1256=ORIENTED_EDGE('',*,*,#1193,.F.);
#1257=EDGE_LOOP('',(#1251,#1253,#1255,#1256));
#1258=FACE_OUTER_BOUND('',#1257,.F.);
#1260=CARTESIAN_POINT('',(0.E0,0.E0,-4.212598425197E-1));
#1261=DIRECTION('',(0.E0,0.E0,1.E0));
#1262=DIRECTION('',(1.E0,0.E0,0.E0));
#1263=AXIS2_PLACEMENT_3D('',#1260,#1261,#1262);
#1264=PLANE('',#1263);
#1265=ORIENTED_EDGE('',*,*,#1250,.F.);
#1266=ORIENTED_EDGE('',*,*,#1230,.F.);
#1268=ORIENTED_EDGE('',*,*,#1267,.F.);
#1270=ORIENTED_EDGE('',*,*,#1269,.F.);
#1271=EDGE_LOOP('',(#1265,#1266,#1268,#1270));
#1272=FACE_OUTER_BOUND('',#1271,.F.);
#1274=CARTESIAN_POINT('',(4.921259842520E-2,-8.523872084493E-2,
-4.212598425197E-1));
#1275=DIRECTION('',(-8.660254037844E-1,-5.E-1,0.E0));
#1276=DIRECTION('',(5.E-1,-8.660254037844E-1,0.E0));
#1277=AXIS2_PLACEMENT_3D('',#1274,#1275,#1276);
#1278=PLANE('',#1277);
#1279=ORIENTED_EDGE('',*,*,#1267,.T.);
#1280=ORIENTED_EDGE('',*,*,#1228,.F.);
#1282=ORIENTED_EDGE('',*,*,#1281,.T.);
#1284=ORIENTED_EDGE('',*,*,#1283,.T.);
#1285=EDGE_LOOP('',(#1279,#1280,#1282,#1284));
#1286=FACE_OUTER_BOUND('',#1285,.F.);
#1288=CARTESIAN_POINT('',(0.E0,0.E0,-3.582677165354E-1));
#1289=DIRECTION('',(0.E0,0.E0,-1.E0));
#1290=DIRECTION('',(-1.E0,0.E0,0.E0));
#1291=AXIS2_PLACEMENT_3D('',#1288,#1289,#1290);
#1292=PLANE('',#1291);
#1293=ORIENTED_EDGE('',*,*,#1214,.F.);
#1295=ORIENTED_EDGE('',*,*,#1294,.F.);
#1297=ORIENTED_EDGE('',*,*,#1296,.F.);
#1299=ORIENTED_EDGE('',*,*,#1298,.F.);
#1301=ORIENTED_EDGE('',*,*,#1300,.F.);
#1303=ORIENTED_EDGE('',*,*,#1302,.F.);
#1305=ORIENTED_EDGE('',*,*,#1304,.F.);
#1307=ORIENTED_EDGE('',*,*,#1306,.F.);
#1309=ORIENTED_EDGE('',*,*,#1308,.F.);
#1311=ORIENTED_EDGE('',*,*,#1310,.F.);
#1313=ORIENTED_EDGE('',*,*,#1312,.F.);
#1315=ORIENTED_EDGE('',*,*,#1314,.F.);
#1317=ORIENTED_EDGE('',*,*,#1316,.F.);
#1319=ORIENTED_EDGE('',*,*,#1318,.F.);
#1321=ORIENTED_EDGE('',*,*,#1320,.F.);
#1323=ORIENTED_EDGE('',*,*,#1322,.F.);
#1325=ORIENTED_EDGE('',*,*,#1324,.F.);
#1327=ORIENTED_EDGE('',*,*,#1326,.F.);
#1328=ORIENTED_EDGE('',*,*,#1207,.F.);
#1330=ORIENTED_EDGE('',*,*,#1329,.F.);
#1332=ORIENTED_EDGE('',*,*,#1331,.F.);
#1334=ORIENTED_EDGE('',*,*,#1333,.F.);
#1335=ORIENTED_EDGE('',*,*,#1195,.F.);
#1336=ORIENTED_EDGE('',*,*,#1254,.F.);
#1338=ORIENTED_EDGE('',*,*,#1337,.F.);
#1340=ORIENTED_EDGE('',*,*,#1339,.F.);
#1341=ORIENTED_EDGE('',*,*,#1240,.F.);
#1343=ORIENTED_EDGE('',*,*,#1342,.F.);
#1345=ORIENTED_EDGE('',*,*,#1344,.F.);
#1346=ORIENTED_EDGE('',*,*,#1281,.F.);
#1347=ORIENTED_EDGE('',*,*,#1226,.F.);
#1349=ORIENTED_EDGE('',*,*,#1348,.F.);
#1351=ORIENTED_EDGE('',*,*,#1350,.F.);
#1353=ORIENTED_EDGE('',*,*,#1352,.F.);
#1354=EDGE_LOOP('',(#1293,#1295,#1297,#1299,#1301,#1303,#1305,#1307,#1309,#1311,
#1313,#1315,#1317,#1319,#1321,#1323,#1325,#1327,#1328,#1330,#1332,#1334,#1335,
#1336,#1338,#1340,#1341,#1343,#1345,#1346,#1347,#1349,#1351,#1353));
#1355=FACE_OUTER_BOUND('',#1354,.F.);
#1357=CARTESIAN_POINT('',(0.E0,0.E0,-1.437007874016E-1));
#1358=DIRECTION('',(0.E0,0.E0,-1.E0));
#1359=DIRECTION('',(1.E0,0.E0,0.E0));
#1360=AXIS2_PLACEMENT_3D('',#1357,#1358,#1359);
#1361=CYLINDRICAL_SURFACE('',#1360,1.181102362205E-1);
#1363=ORIENTED_EDGE('',*,*,#1362,.T.);
#1364=ORIENTED_EDGE('',*,*,#1220,.F.);
#1366=ORIENTED_EDGE('',*,*,#1365,.T.);
#1368=ORIENTED_EDGE('',*,*,#1367,.F.);
#1369=ORIENTED_EDGE('',*,*,#1294,.T.);
#1370=ORIENTED_EDGE('',*,*,#1212,.F.);
#1371=ORIENTED_EDGE('',*,*,#1179,.T.);
#1372=ORIENTED_EDGE('',*,*,#1209,.T.);
#1373=ORIENTED_EDGE('',*,*,#1326,.T.);
#1375=ORIENTED_EDGE('',*,*,#1374,.T.);
#1377=ORIENTED_EDGE('',*,*,#1376,.T.);
#1378=ORIENTED_EDGE('',*,*,#1201,.T.);
#1380=ORIENTED_EDGE('',*,*,#1379,.T.);
#1382=ORIENTED_EDGE('',*,*,#1381,.T.);
#1383=ORIENTED_EDGE('',*,*,#1318,.T.);
#1385=ORIENTED_EDGE('',*,*,#1384,.T.);
#1387=ORIENTED_EDGE('',*,*,#1386,.T.);
#1389=ORIENTED_EDGE('',*,*,#1388,.T.);
#1390=ORIENTED_EDGE('',*,*,#1302,.T.);
#1392=ORIENTED_EDGE('',*,*,#1391,.T.);
#1393=EDGE_LOOP('',(#1363,#1364,#1366,#1368,#1369,#1370,#1371,#1372,#1373,#1375,
#1377,#1378,#1380,#1382,#1383,#1385,#1387,#1389,#1390,#1392));
#1394=FACE_OUTER_BOUND('',#1393,.F.);
#1396=ORIENTED_EDGE('',*,*,#1395,.F.);
#1397=ORIENTED_EDGE('',*,*,#1310,.T.);
#1399=ORIENTED_EDGE('',*,*,#1398,.F.);
#1401=ORIENTED_EDGE('',*,*,#1400,.T.);
#1402=EDGE_LOOP('',(#1396,#1397,#1399,#1401));
#1403=FACE_BOUND('',#1402,.F.);
#1405=CARTESIAN_POINT('',(0.E0,0.E0,-4.212598425197E-1));
#1406=DIRECTION('',(0.E0,0.E0,1.E0));
#1407=DIRECTION('',(1.E0,0.E0,0.E0));
#1408=AXIS2_PLACEMENT_3D('',#1405,#1406,#1407);
#1409=PLANE('',#1408);
#1410=ORIENTED_EDGE('',*,*,#1222,.F.);
#1411=ORIENTED_EDGE('',*,*,#1362,.F.);
#1413=ORIENTED_EDGE('',*,*,#1412,.F.);
#1415=ORIENTED_EDGE('',*,*,#1414,.F.);
#1417=ORIENTED_EDGE('',*,*,#1416,.F.);
#1418=EDGE_LOOP('',(#1410,#1411,#1413,#1415,#1417));
#1419=FACE_OUTER_BOUND('',#1418,.F.);
#1421=CARTESIAN_POINT('',(8.523872084493E-2,4.921259842520E-2,
-4.212598425197E-1));
#1422=DIRECTION('',(5.E-1,-8.660254037844E-1,0.E0));
#1423=DIRECTION('',(8.660254037844E-1,5.E-1,0.E0));
#1424=AXIS2_PLACEMENT_3D('',#1421,#1422,#1423);
#1425=PLANE('',#1424);
#1426=ORIENTED_EDGE('',*,*,#1412,.T.);
#1427=ORIENTED_EDGE('',*,*,#1391,.F.);
#1428=ORIENTED_EDGE('',*,*,#1300,.T.);
#1430=ORIENTED_EDGE('',*,*,#1429,.T.);
#1431=EDGE_LOOP('',(#1426,#1427,#1428,#1430));
#1432=FACE_OUTER_BOUND('',#1431,.F.);
#1434=CARTESIAN_POINT('',(0.E0,0.E0,-4.212598425197E-1));
#1435=DIRECTION('',(0.E0,0.E0,1.E0));
#1436=DIRECTION('',(1.E0,0.E0,0.E0));
#1437=AXIS2_PLACEMENT_3D('',#1434,#1435,#1436);
#1438=CYLINDRICAL_SURFACE('',#1437,9.842519685039E-2);
#1440=ORIENTED_EDGE('',*,*,#1439,.F.);
#1441=ORIENTED_EDGE('',*,*,#1350,.T.);
#1443=ORIENTED_EDGE('',*,*,#1442,.F.);
#1444=ORIENTED_EDGE('',*,*,#1414,.T.);
#1445=ORIENTED_EDGE('',*,*,#1429,.F.);
#1446=ORIENTED_EDGE('',*,*,#1298,.T.);
#1448=ORIENTED_EDGE('',*,*,#1447,.F.);
#1450=ORIENTED_EDGE('',*,*,#1449,.T.);
#1451=EDGE_LOOP('',(#1440,#1441,#1443,#1444,#1445,#1446,#1448,#1450));
#1452=FACE_OUTER_BOUND('',#1451,.F.);
#1454=CARTESIAN_POINT('',(1.138333251559E-1,-3.149606299213E-2,
-3.582677165354E-1));
#1455=DIRECTION('',(-2.666666666667E-1,-9.637888196534E-1,0.E0));
#1456=DIRECTION('',(-9.637888196534E-1,2.666666666667E-1,0.E0));
#1457=AXIS2_PLACEMENT_3D('',#1454,#1455,#1456);
#1458=PLANE('',#1457);
#1459=ORIENTED_EDGE('',*,*,#1352,.T.);
#1460=ORIENTED_EDGE('',*,*,#1439,.T.);
#1462=ORIENTED_EDGE('',*,*,#1461,.T.);
#1463=ORIENTED_EDGE('',*,*,#1216,.T.);
#1464=EDGE_LOOP('',(#1459,#1460,#1462,#1463));
#1465=FACE_OUTER_BOUND('',#1464,.F.);
#1467=CARTESIAN_POINT('',(0.E0,0.E0,-3.976377952756E-1));
#1468=DIRECTION('',(0.E0,0.E0,-1.E0));
#1469=DIRECTION('',(-1.E0,0.E0,0.E0));
#1470=AXIS2_PLACEMENT_3D('',#1467,#1468,#1469);
#1471=PLANE('',#1470);
#1472=ORIENTED_EDGE('',*,*,#1365,.F.);
#1473=ORIENTED_EDGE('',*,*,#1218,.F.);
#1474=ORIENTED_EDGE('',*,*,#1461,.F.);
#1475=ORIENTED_EDGE('',*,*,#1449,.F.);
#1477=ORIENTED_EDGE('',*,*,#1476,.F.);
#1478=EDGE_LOOP('',(#1472,#1473,#1474,#1475,#1477));
#1479=FACE_OUTER_BOUND('',#1478,.F.);
#1481=CARTESIAN_POINT('',(9.486110429659E-2,2.624671916010E-2,
-3.582677165354E-1));
#1482=DIRECTION('',(-2.666666666667E-1,9.637888196534E-1,0.E0));
#1483=DIRECTION('',(9.637888196534E-1,2.666666666667E-1,0.E0));
#1484=AXIS2_PLACEMENT_3D('',#1481,#1482,#1483);
#1485=PLANE('',#1484);
#1486=ORIENTED_EDGE('',*,*,#1296,.T.);
#1487=ORIENTED_EDGE('',*,*,#1367,.T.);
#1488=ORIENTED_EDGE('',*,*,#1476,.T.);
#1489=ORIENTED_EDGE('',*,*,#1447,.T.);
#1490=EDGE_LOOP('',(#1486,#1487,#1488,#1489));
#1491=FACE_OUTER_BOUND('',#1490,.F.);
#1493=CARTESIAN_POINT('',(1.022864650139E-1,-5.905511811024E-2,
-4.212598425197E-1));
#1494=DIRECTION('',(5.E-1,8.660254037844E-1,0.E0));
#1495=DIRECTION('',(-8.660254037844E-1,5.E-1,0.E0));
#1496=AXIS2_PLACEMENT_3D('',#1493,#1494,#1495);
#1497=PLANE('',#1496);
#1498=ORIENTED_EDGE('',*,*,#1416,.T.);
#1499=ORIENTED_EDGE('',*,*,#1442,.T.);
#1500=ORIENTED_EDGE('',*,*,#1348,.T.);
#1501=ORIENTED_EDGE('',*,*,#1224,.F.);
#1502=EDGE_LOOP('',(#1498,#1499,#1500,#1501));
#1503=FACE_OUTER_BOUND('',#1502,.F.);
#1505=CARTESIAN_POINT('',(-1.138333251559E-1,3.149606299213E-2,
-3.582677165354E-1));
#1506=DIRECTION('',(2.666666666667E-1,9.637888196534E-1,0.E0));
#1507=DIRECTION('',(9.637888196534E-1,-2.666666666667E-1,0.E0));
#1508=AXIS2_PLACEMENT_3D('',#1505,#1506,#1507);
#1509=PLANE('',#1508);
#1510=ORIENTED_EDGE('',*,*,#1324,.T.);
#1512=ORIENTED_EDGE('',*,*,#1511,.T.);
#1514=ORIENTED_EDGE('',*,*,#1513,.T.);
#1515=ORIENTED_EDGE('',*,*,#1374,.F.);
#1516=EDGE_LOOP('',(#1510,#1512,#1514,#1515));
#1517=FACE_OUTER_BOUND('',#1516,.F.);
#1519=CARTESIAN_POINT('',(0.E0,0.E0,-4.212598425197E-1));
#1520=DIRECTION('',(0.E0,0.E0,1.E0));
#1521=DIRECTION('',(-1.E0,0.E0,0.E0));
#1522=AXIS2_PLACEMENT_3D('',#1519,#1520,#1521);
#1523=CYLINDRICAL_SURFACE('',#1522,9.842519685039E-2);
#1524=ORIENTED_EDGE('',*,*,#1511,.F.);
#1525=ORIENTED_EDGE('',*,*,#1322,.T.);
#1527=ORIENTED_EDGE('',*,*,#1526,.F.);
#1529=ORIENTED_EDGE('',*,*,#1528,.T.);
#1531=ORIENTED_EDGE('',*,*,#1530,.T.);
#1533=ORIENTED_EDGE('',*,*,#1532,.F.);
#1534=ORIENTED_EDGE('',*,*,#1331,.T.);
#1536=ORIENTED_EDGE('',*,*,#1535,.F.);
#1538=ORIENTED_EDGE('',*,*,#1537,.T.);
#1540=ORIENTED_EDGE('',*,*,#1539,.T.);
#1541=EDGE_LOOP('',(#1524,#1525,#1527,#1529,#1531,#1533,#1534,#1536,#1538,
#1540));
#1542=FACE_OUTER_BOUND('',#1541,.F.);
#1544=CARTESIAN_POINT('',(-1.022864650139E-1,5.905511811024E-2,
-4.212598425197E-1));
#1545=DIRECTION('',(-5.E-1,-8.660254037844E-1,0.E0));
#1546=DIRECTION('',(8.660254037844E-1,-5.E-1,0.E0));
#1547=AXIS2_PLACEMENT_3D('',#1544,#1545,#1546);
#1548=PLANE('',#1547);
#1550=ORIENTED_EDGE('',*,*,#1549,.T.);
#1551=ORIENTED_EDGE('',*,*,#1526,.T.);
#1552=ORIENTED_EDGE('',*,*,#1320,.T.);
#1553=ORIENTED_EDGE('',*,*,#1381,.F.);
#1554=EDGE_LOOP('',(#1550,#1551,#1552,#1553));
#1555=FACE_OUTER_BOUND('',#1554,.F.);
#1557=CARTESIAN_POINT('',(0.E0,0.E0,-4.212598425197E-1));
#1558=DIRECTION('',(0.E0,0.E0,1.E0));
#1559=DIRECTION('',(1.E0,0.E0,0.E0));
#1560=AXIS2_PLACEMENT_3D('',#1557,#1558,#1559);
#1561=PLANE('',#1560);
#1563=ORIENTED_EDGE('',*,*,#1562,.F.);
#1564=ORIENTED_EDGE('',*,*,#1530,.F.);
#1565=ORIENTED_EDGE('',*,*,#1528,.F.);
#1566=ORIENTED_EDGE('',*,*,#1549,.F.);
#1567=ORIENTED_EDGE('',*,*,#1379,.F.);
#1568=ORIENTED_EDGE('',*,*,#1199,.F.);
#1569=EDGE_LOOP('',(#1563,#1564,#1565,#1566,#1567,#1568));
#1570=FACE_OUTER_BOUND('',#1569,.F.);
#1572=CARTESIAN_POINT('',(-8.523872084493E-2,-4.921259842520E-2,
-4.212598425197E-1));
#1573=DIRECTION('',(-5.E-1,8.660254037844E-1,0.E0));
#1574=DIRECTION('',(-8.660254037844E-1,-5.E-1,0.E0));
#1575=AXIS2_PLACEMENT_3D('',#1572,#1573,#1574);
#1576=PLANE('',#1575);
#1577=ORIENTED_EDGE('',*,*,#1562,.T.);
#1578=ORIENTED_EDGE('',*,*,#1197,.F.);
#1579=ORIENTED_EDGE('',*,*,#1333,.T.);
#1580=ORIENTED_EDGE('',*,*,#1532,.T.);
#1581=EDGE_LOOP('',(#1577,#1578,#1579,#1580));
#1582=FACE_OUTER_BOUND('',#1581,.F.);
#1584=CARTESIAN_POINT('',(-9.486110429659E-2,-2.624671916010E-2,
-3.582677165354E-1));
#1585=DIRECTION('',(2.666666666667E-1,-9.637888196534E-1,0.E0));
#1586=DIRECTION('',(-9.637888196534E-1,-2.666666666667E-1,0.E0));
#1587=AXIS2_PLACEMENT_3D('',#1584,#1585,#1586);
#1588=PLANE('',#1587);
#1589=ORIENTED_EDGE('',*,*,#1329,.T.);
#1590=ORIENTED_EDGE('',*,*,#1205,.F.);
#1592=ORIENTED_EDGE('',*,*,#1591,.T.);
#1593=ORIENTED_EDGE('',*,*,#1535,.T.);
#1594=EDGE_LOOP('',(#1589,#1590,#1592,#1593));
#1595=FACE_OUTER_BOUND('',#1594,.F.);
#1597=CARTESIAN_POINT('',(0.E0,0.E0,-3.976377952756E-1));
#1598=DIRECTION('',(0.E0,0.E0,-1.E0));
#1599=DIRECTION('',(-1.E0,0.E0,0.E0));
#1600=AXIS2_PLACEMENT_3D('',#1597,#1598,#1599);
#1601=PLANE('',#1600);
#1602=ORIENTED_EDGE('',*,*,#1591,.F.);
#1603=ORIENTED_EDGE('',*,*,#1203,.F.);
#1604=ORIENTED_EDGE('',*,*,#1376,.F.);
#1605=ORIENTED_EDGE('',*,*,#1513,.F.);
#1606=ORIENTED_EDGE('',*,*,#1539,.F.);
#1607=ORIENTED_EDGE('',*,*,#1537,.F.);
#1608=EDGE_LOOP('',(#1602,#1603,#1604,#1605,#1606,#1607));
#1609=FACE_OUTER_BOUND('',#1608,.F.);
#1611=CARTESIAN_POINT('',(-4.921259842520E-2,8.523872084493E-2,
-4.212598425197E-1));
#1612=DIRECTION('',(8.660254037844E-1,5.E-1,0.E0));
#1613=DIRECTION('',(-5.E-1,8.660254037844E-1,0.E0));
#1614=AXIS2_PLACEMENT_3D('',#1611,#1612,#1613);
#1615=PLANE('',#1614);
#1617=ORIENTED_EDGE('',*,*,#1616,.T.);
#1618=ORIENTED_EDGE('',*,*,#1384,.F.);
#1619=ORIENTED_EDGE('',*,*,#1316,.T.);
#1621=ORIENTED_EDGE('',*,*,#1620,.T.);
#1622=EDGE_LOOP('',(#1617,#1618,#1619,#1621));
#1623=FACE_OUTER_BOUND('',#1622,.F.);
#1625=CARTESIAN_POINT('',(0.E0,0.E0,-4.212598425197E-1));
#1626=DIRECTION('',(0.E0,0.E0,1.E0));
#1627=DIRECTION('',(1.E0,0.E0,0.E0));
#1628=AXIS2_PLACEMENT_3D('',#1625,#1626,#1627);
#1629=PLANE('',#1628);
#1630=ORIENTED_EDGE('',*,*,#1616,.F.);
#1632=ORIENTED_EDGE('',*,*,#1631,.F.);
#1634=ORIENTED_EDGE('',*,*,#1633,.F.);
#1635=ORIENTED_EDGE('',*,*,#1386,.F.);
#1636=EDGE_LOOP('',(#1630,#1632,#1634,#1635));
#1637=FACE_OUTER_BOUND('',#1636,.F.);
#1639=CARTESIAN_POINT('',(0.E0,0.E0,-4.212598425197E-1));
#1640=DIRECTION('',(0.E0,0.E0,1.E0));
#1641=DIRECTION('',(1.E0,0.E0,0.E0));
#1642=AXIS2_PLACEMENT_3D('',#1639,#1640,#1641);
#1643=CYLINDRICAL_SURFACE('',#1642,9.842519685039E-2);
#1645=ORIENTED_EDGE('',*,*,#1644,.F.);
#1646=ORIENTED_EDGE('',*,*,#1306,.T.);
#1648=ORIENTED_EDGE('',*,*,#1647,.F.);
#1649=ORIENTED_EDGE('',*,*,#1631,.T.);
#1650=ORIENTED_EDGE('',*,*,#1620,.F.);
#1651=ORIENTED_EDGE('',*,*,#1314,.T.);
#1653=ORIENTED_EDGE('',*,*,#1652,.F.);
#1655=ORIENTED_EDGE('',*,*,#1654,.T.);
#1656=EDGE_LOOP('',(#1645,#1646,#1648,#1649,#1650,#1651,#1653,#1655));
#1657=FACE_OUTER_BOUND('',#1656,.F.);
#1659=CARTESIAN_POINT('',(3.149606299213E-2,1.138333251559E-1,
-3.582677165354E-1));
#1660=DIRECTION('',(9.637888196534E-1,-2.666666666667E-1,0.E0));
#1661=DIRECTION('',(-2.666666666667E-1,-9.637888196534E-1,0.E0));
#1662=AXIS2_PLACEMENT_3D('',#1659,#1660,#1661);
#1663=PLANE('',#1662);
#1664=ORIENTED_EDGE('',*,*,#1308,.T.);
#1665=ORIENTED_EDGE('',*,*,#1644,.T.);
#1667=ORIENTED_EDGE('',*,*,#1666,.T.);
#1668=ORIENTED_EDGE('',*,*,#1398,.T.);
#1669=EDGE_LOOP('',(#1664,#1665,#1667,#1668));
#1670=FACE_OUTER_BOUND('',#1669,.F.);
#1672=CARTESIAN_POINT('',(0.E0,0.E0,-3.976377952756E-1));
#1673=DIRECTION('',(0.E0,0.E0,-1.E0));
#1674=DIRECTION('',(-1.E0,0.E0,0.E0));
#1675=AXIS2_PLACEMENT_3D('',#1672,#1673,#1674);
#1676=PLANE('',#1675);
#1677=ORIENTED_EDGE('',*,*,#1654,.F.);
#1679=ORIENTED_EDGE('',*,*,#1678,.F.);
#1680=ORIENTED_EDGE('',*,*,#1400,.F.);
#1681=ORIENTED_EDGE('',*,*,#1666,.F.);
#1682=EDGE_LOOP('',(#1677,#1679,#1680,#1681));
#1683=FACE_OUTER_BOUND('',#1682,.F.);
#1685=CARTESIAN_POINT('',(-2.624671916010E-2,9.486110429659E-2,
-3.582677165354E-1));
#1686=DIRECTION('',(-9.637888196534E-1,-2.666666666667E-1,0.E0));
#1687=DIRECTION('',(-2.666666666667E-1,9.637888196534E-1,0.E0));
#1688=AXIS2_PLACEMENT_3D('',#1685,#1686,#1687);
#1689=PLANE('',#1688);
#1690=ORIENTED_EDGE('',*,*,#1312,.T.);
#1691=ORIENTED_EDGE('',*,*,#1395,.T.);
#1692=ORIENTED_EDGE('',*,*,#1678,.T.);
#1693=ORIENTED_EDGE('',*,*,#1652,.T.);
#1694=EDGE_LOOP('',(#1690,#1691,#1692,#1693));
#1695=FACE_OUTER_BOUND('',#1694,.F.);
#1697=CARTESIAN_POINT('',(5.905511811024E-2,1.022864650139E-1,
-4.212598425197E-1));
#1698=DIRECTION('',(-8.660254037844E-1,5.E-1,0.E0));
#1699=DIRECTION('',(-5.E-1,-8.660254037844E-1,0.E0));
#1700=AXIS2_PLACEMENT_3D('',#1697,#1698,#1699);
#1701=PLANE('',#1700);
#1702=ORIENTED_EDGE('',*,*,#1633,.T.);
#1703=ORIENTED_EDGE('',*,*,#1647,.T.);
#1704=ORIENTED_EDGE('',*,*,#1304,.T.);
#1705=ORIENTED_EDGE('',*,*,#1388,.F.);
#1706=EDGE_LOOP('',(#1702,#1703,#1704,#1705));
#1707=FACE_OUTER_BOUND('',#1706,.F.);
#1709=CARTESIAN_POINT('',(0.E0,0.E0,-4.212598425197E-1));
#1710=DIRECTION('',(0.E0,0.E0,1.E0));
#1711=DIRECTION('',(1.E0,0.E0,0.E0));
#1712=AXIS2_PLACEMENT_3D('',#1709,#1710,#1711);
#1713=CYLINDRICAL_SURFACE('',#1712,9.842519685039E-2);
#1715=ORIENTED_EDGE('',*,*,#1714,.F.);
#1716=ORIENTED_EDGE('',*,*,#1337,.T.);
#1717=ORIENTED_EDGE('',*,*,#1252,.F.);
#1718=ORIENTED_EDGE('',*,*,#1269,.T.);
#1719=ORIENTED_EDGE('',*,*,#1283,.F.);
#1720=ORIENTED_EDGE('',*,*,#1344,.T.);
#1722=ORIENTED_EDGE('',*,*,#1721,.F.);
#1724=ORIENTED_EDGE('',*,*,#1723,.T.);
#1725=EDGE_LOOP('',(#1715,#1716,#1717,#1718,#1719,#1720,#1722,#1724));
#1726=FACE_OUTER_BOUND('',#1725,.F.);
#1728=CARTESIAN_POINT('',(-3.149606299213E-2,-1.138333251559E-1,
-3.582677165354E-1));
#1729=DIRECTION('',(-9.637888196534E-1,2.666666666667E-1,0.E0));
#1730=DIRECTION('',(2.666666666667E-1,9.637888196534E-1,0.E0));
#1731=AXIS2_PLACEMENT_3D('',#1728,#1729,#1730);
#1732=PLANE('',#1731);
#1733=ORIENTED_EDGE('',*,*,#1339,.T.);
#1734=ORIENTED_EDGE('',*,*,#1714,.T.);
#1736=ORIENTED_EDGE('',*,*,#1735,.T.);
#1737=ORIENTED_EDGE('',*,*,#1234,.T.);
#1738=EDGE_LOOP('',(#1733,#1734,#1736,#1737));
#1739=FACE_OUTER_BOUND('',#1738,.F.);
#1741=CARTESIAN_POINT('',(0.E0,0.E0,-3.976377952756E-1));
#1742=DIRECTION('',(0.E0,0.E0,-1.E0));
#1743=DIRECTION('',(-1.E0,0.E0,0.E0));
#1744=AXIS2_PLACEMENT_3D('',#1741,#1742,#1743);
#1745=PLANE('',#1744);
#1746=ORIENTED_EDGE('',*,*,#1735,.F.);
#1747=ORIENTED_EDGE('',*,*,#1723,.F.);
#1749=ORIENTED_EDGE('',*,*,#1748,.F.);
#1750=ORIENTED_EDGE('',*,*,#1236,.F.);
#1751=EDGE_LOOP('',(#1746,#1747,#1749,#1750));
#1752=FACE_OUTER_BOUND('',#1751,.F.);
#1754=CARTESIAN_POINT('',(2.624671916010E-2,-9.486110429659E-2,
-3.582677165354E-1));
#1755=DIRECTION('',(9.637888196534E-1,2.666666666667E-1,0.E0));
#1756=DIRECTION('',(2.666666666667E-1,-9.637888196534E-1,0.E0));
#1757=AXIS2_PLACEMENT_3D('',#1754,#1755,#1756);
#1758=PLANE('',#1757);
#1759=ORIENTED_EDGE('',*,*,#1342,.T.);
#1760=ORIENTED_EDGE('',*,*,#1238,.T.);
#1761=ORIENTED_EDGE('',*,*,#1748,.T.);
#1762=ORIENTED_EDGE('',*,*,#1721,.T.);
#1763=EDGE_LOOP('',(#1759,#1760,#1761,#1762));
#1764=FACE_OUTER_BOUND('',#1763,.F.);
#1768=FILL_AREA_STYLE_COLOUR('',#1);
#1769=FILL_AREA_STYLE('',(#1768));
#1770=SURFACE_STYLE_FILL_AREA(#1769);
#1771=SURFACE_SIDE_STYLE('',(#1770));
#1772=SURFACE_STYLE_USAGE(.BOTH.,#1771);
#1773=PRESENTATION_STYLE_ASSIGNMENT((#1772));
#18=STYLED_ITEM('',(#1773),#1767);
#1775=LENGTH_MEASURE_WITH_UNIT(LENGTH_MEASURE(2.54E1),#1774);
#1776=(CONVERSION_BASED_UNIT('INCH',#1775)LENGTH_UNIT()NAMED_UNIT(*));
#1778=PLANE_ANGLE_MEASURE_WITH_UNIT(PLANE_ANGLE_MEASURE(1.745329251994E-2),
#1777);
#1779=(CONVERSION_BASED_UNIT('DEGREE',#1778)NAMED_UNIT(*)PLANE_ANGLE_UNIT());
#1781=UNCERTAINTY_MEASURE_WITH_UNIT(LENGTH_MEASURE(4.419498152074E-5),#1776,
'closure',
'Maximum model space distance between geometric entities at asserted connectivities');
#1783=CARTESIAN_POINT('',(0.E0,0.E0,0.E0));
#1784=DIRECTION('',(0.E0,0.E0,1.E0));
#1785=DIRECTION('',(1.E0,0.E0,0.E0));
#1788=MECHANICAL_DESIGN_GEOMETRIC_PRESENTATION_REPRESENTATION('',(#26,#33,#41,
#49,#57,#65,#73,#81,#88,#95,#103,#111,#119,#127,#134,#141,#148,#155,#162,#169,
#176,#183,#190,#198,#205,#213,#221,#229,#236,#244,#251,#259,#266,#274,#281,#289,
#296,#304,#311,#319,#326,#334,#341,#349,#357,#364,#372,#379,#387,#394,#402,#409,
#417,#424,#432,#439,#447,#454,#462,#469,#476,#483,#490,#497,#504,#511,#518,#525,
#532,#539,#546,#553,#561,#569,#576,#584,#591,#598,#605,#612,#619,#627,#635,#642,
#650,#657,#664,#671,#678,#685,#692,#700,#708,#715,#723,#731,#738,#746,#754,#761,
#769,#777,#784,#792,#799,#807,#814,#821,#828,#835,#843,#850,#858,#865,#872,#879,
#886,#893,#900,#908,#915,#923,#18),#1782);
#1789=APPLICATION_CONTEXT('automotive design');
#1790=APPLICATION_PROTOCOL_DEFINITION('international standard',
'config_control_design',1994,#1789);
#1791=PRODUCT_DEFINITION_CONTEXT('',#1789,'design');
#1792=PRODUCT_CONTEXT('',#1789,'mechanical');
#1793=PRODUCT('GEARBOX_HOUSING-199','GEARBOX_HOUSING-199','NOT SPECIFIED',
(#1792));
#1794=PRODUCT_DEFINITION_FORMATION_WITH_SPECIFIED_SOURCE('1','LAST_VERSION',
#1793,.MADE.);
#1802=LENGTH_MEASURE_WITH_UNIT(LENGTH_MEASURE(2.54E1),#1801);
#1803=(CONVERSION_BASED_UNIT('INCH',#1802)LENGTH_UNIT()NAMED_UNIT(*));
#1804=DERIVED_UNIT_ELEMENT(#1803,2.E0);
#1805=AREA_UNIT((#1804));
#1806=MEASURE_REPRESENTATION_ITEM('surface area measure',AREA_MEASURE(
2.057852077060E2),#1805);
#1811=LENGTH_MEASURE_WITH_UNIT(LENGTH_MEASURE(2.54E1),#1810);
#1812=(CONVERSION_BASED_UNIT('INCH',#1811)LENGTH_UNIT()NAMED_UNIT(*));
#1813=DERIVED_UNIT_ELEMENT(#1812,3.E0);
#1814=VOLUME_UNIT((#1813));
#1815=MEASURE_REPRESENTATION_ITEM('volume measure',VOLUME_MEASURE(
1.622850578048E2),#1814);
#1819=CARTESIAN_POINT('centre point',(1.324980358737E-11,1.017367625143E-12,
-6.481723339413E0));
#1824=LENGTH_MEASURE_WITH_UNIT(LENGTH_MEASURE(2.54E1),#1823);
#1825=(CONVERSION_BASED_UNIT('INCH',#1824)LENGTH_UNIT()NAMED_UNIT(*));
#1826=DERIVED_UNIT_ELEMENT(#1825,2.E0);
#1827=AREA_UNIT((#1826));
#1828=MEASURE_REPRESENTATION_ITEM('surface area measure',AREA_MEASURE(
2.057852077060E2),#1827);
#1833=LENGTH_MEASURE_WITH_UNIT(LENGTH_MEASURE(2.54E1),#1832);
#1834=(CONVERSION_BASED_UNIT('INCH',#1833)LENGTH_UNIT()NAMED_UNIT(*));
#1835=DERIVED_UNIT_ELEMENT(#1834,3.E0);
#1836=VOLUME_UNIT((#1835));
#1837=MEASURE_REPRESENTATION_ITEM('volume measure',VOLUME_MEASURE(
1.622850578048E2),#1836);
#1841=CARTESIAN_POINT('centre point',(1.324980358737E-11,1.017367625143E-12,
-6.481723339413E0));
#1=COLOUR_RGB('',9.803921568627E-2,9.803921568627E-2,9.803921568627E-2);
#2=DRAUGHTING_PRE_DEFINED_COLOUR('green');
#3=COLOUR_RGB('',1.1E-2,1.2E-2,1.E0);
#4=COLOUR_RGB('',9.803921568627E-2,9.803921568627E-2,9.803921568627E-2);
#5=COLOUR_RGB('',2.352941176471E-1,2.352941176471E-1,2.352941176471E-1);
#6=COLOUR_RGB('',4.1E-1,2.61589E-1,1.12848E-1);
#7=COLOUR_RGB('',5.04854E-1,1.5455E-2,1.5455E-2);
#8=COLOUR_RGB('',5.921568627451E-1,5.921568627451E-1,5.921568627451E-1);
#9=COLOUR_RGB('',6.35294E-1,6.86275E-1,7.4902E-1);
#10=COLOUR_RGB('',6.40777E-1,6.40777E-1,6.40777E-1);
#11=COLOUR_RGB('',6.69062E-1,6.69903E-1,6.55217E-1);
#12=COLOUR_RGB('',9.21569E-1,7.05882E-1,4.70588E-1);
#13=DRAUGHTING_PRE_DEFINED_COLOUR('red');
#14=DRAUGHTING_PRE_DEFINED_COLOUR('yellow');
#15=COLOUR_RGB('',1.E0,1.E0,5.3E-1);
#16=COLOUR_RGB('',1.E0,1.E0,9.49E-1);
#17=DRAUGHTING_PRE_DEFINED_COLOUR('white');
#38=CIRCLE('',#37,3.937007874016E-2);
#46=CIRCLE('',#45,3.937007874016E-2);
#54=CIRCLE('',#53,6.889763779528E-2);
#62=CIRCLE('',#61,6.889763779528E-2);
#70=CIRCLE('',#69,3.937007874016E-2);
#78=CIRCLE('',#77,3.937007874016E-2);
#100=CIRCLE('',#99,1.181102362205E-1);
#108=CIRCLE('',#107,1.181102362205E-1);
#116=CIRCLE('',#115,6.889763779528E-2);
#124=CIRCLE('',#123,6.889763779528E-2);
#195=CIRCLE('',#194,1.181102362205E-1);
#210=CIRCLE('',#209,9.842519685039E-2);
#218=CIRCLE('',#217,1.181102362205E-1);
#226=CIRCLE('',#225,1.181102362205E-1);
#241=CIRCLE('',#240,9.842519685039E-2);
#256=CIRCLE('',#255,1.181102362205E-1);
#271=CIRCLE('',#270,9.842519685039E-2);
#286=CIRCLE('',#285,1.181102362205E-1);
#301=CIRCLE('',#300,9.842519685039E-2);
#316=CIRCLE('',#315,1.181102362205E-1);
#331=CIRCLE('',#330,9.842519685039E-2);
#346=CIRCLE('',#345,1.181102362205E-1);
#354=CIRCLE('',#353,1.181102362205E-1);
#369=CIRCLE('',#368,9.842519685039E-2);
#384=CIRCLE('',#383,1.181102362205E-1);
#399=CIRCLE('',#398,9.842519685039E-2);
#414=CIRCLE('',#413,1.181102362205E-1);
#429=CIRCLE('',#428,9.842519685039E-2);
#444=CIRCLE('',#443,1.181102362205E-1);
#459=CIRCLE('',#458,9.842519685039E-2);
#558=CIRCLE('',#557,1.181102362205E-1);
#566=CIRCLE('',#565,1.181102362205E-1);
#581=CIRCLE('',#580,9.842519685039E-2);
#624=CIRCLE('',#623,1.181102362205E-1);
#632=CIRCLE('',#631,1.181102362205E-1);
#647=CIRCLE('',#646,9.842519685039E-2);
#697=CIRCLE('',#696,9.842519685039E-2);
#705=CIRCLE('',#704,9.842519685039E-2);
#720=CIRCLE('',#719,1.181102362205E-1);
#728=CIRCLE('',#727,1.181102362205E-1);
#743=CIRCLE('',#742,1.181102362205E-1);
#751=CIRCLE('',#750,1.181102362205E-1);
#766=CIRCLE('',#765,9.842519685039E-2);
#774=CIRCLE('',#773,9.842519685039E-2);
#789=CIRCLE('',#788,9.842519685039E-2);
#804=CIRCLE('',#803,1.181102362205E-1);
#840=CIRCLE('',#839,9.842519685039E-2);
#855=CIRCLE('',#854,1.181102362205E-1);
#905=CIRCLE('',#904,9.842519685039E-2);
#920=CIRCLE('',#919,1.181102362205E-1);
#1093=EDGE_CURVE('',#1058,#1059,#22,.T.);
#1095=EDGE_CURVE('',#1059,#1063,#78,.T.);
#1097=EDGE_CURVE('',#1063,#1061,#30,.T.);
#1099=EDGE_CURVE('',#1061,#1058,#38,.T.);
#1103=ADVANCED_FACE('',(#1102),#1092,.F.);
#1110=EDGE_CURVE('',#1058,#1061,#46,.T.);
#1113=EDGE_CURVE('',#1063,#1059,#70,.T.);
#1117=ADVANCED_FACE('',(#1116),#1108,.F.);
#1127=ADVANCED_FACE('',(#1126),#1122,.T.);
#1133=EDGE_CURVE('',#1087,#1083,#54,.T.);
#1135=EDGE_CURVE('',#1083,#1087,#62,.T.);
#1143=ADVANCED_FACE('',(#1138,#1142),#1132,.F.);
#1149=EDGE_CURVE('',#1082,#1083,#85,.T.);
#1151=EDGE_CURVE('',#1082,#1085,#116,.T.);
#1153=EDGE_CURVE('',#1085,#1087,#92,.T.);
#1158=ADVANCED_FACE('',(#1157),#1148,.T.);
#1167=EDGE_CURVE('',#1085,#1082,#124,.T.);
#1171=ADVANCED_FACE('',(#1170),#1163,.T.);
#1177=EDGE_CURVE('',#1070,#1074,#100,.T.);
#1179=EDGE_CURVE('',#1074,#1070,#108,.T.);
#1187=ADVANCED_FACE('',(#1182,#1186),#1176,.T.);
#1193=EDGE_CURVE('',#1033,#1035,#131,.T.);
#1195=EDGE_CURVE('',#1035,#1039,#384,.T.);
#1197=EDGE_CURVE('',#1039,#1037,#138,.T.);
#1199=EDGE_CURVE('',#1037,#1067,#728,.T.);
#1201=EDGE_CURVE('',#1066,#1067,#508,.T.);
#1203=EDGE_CURVE('',#1066,#955,#743,.T.);
#1205=EDGE_CURVE('',#955,#951,#145,.T.);
#1207=EDGE_CURVE('',#951,#1071,#354,.T.);
#1209=EDGE_CURVE('',#1070,#1071,#494,.T.);
#1212=EDGE_CURVE('',#1074,#1075,#487,.T.);
#1214=EDGE_CURVE('',#1075,#934,#218,.T.);
#1216=EDGE_CURVE('',#939,#934,#152,.T.);
#1218=EDGE_CURVE('',#939,#1078,#632,.T.);
#1220=EDGE_CURVE('',#1078,#1079,#473,.T.);
#1222=EDGE_CURVE('',#1079,#1025,#558,.T.);
#1224=EDGE_CURVE('',#1025,#1027,#159,.T.);
#1226=EDGE_CURVE('',#1027,#1031,#444,.T.);
#1228=EDGE_CURVE('',#1031,#1029,#166,.T.);
#1230=EDGE_CURVE('',#1029,#1033,#195,.T.);
#1234=EDGE_CURVE('',#973,#968,#173,.T.);
#1236=EDGE_CURVE('',#973,#965,#920,.T.);
#1238=EDGE_CURVE('',#961,#965,#180,.T.);
#1240=EDGE_CURVE('',#961,#968,#414,.T.);
#1244=ADVANCED_FACE('',(#1233,#1243),#1192,.T.);
#1250=EDGE_CURVE('',#1033,#1013,#187,.T.);
#1252=EDGE_CURVE('',#1013,#1015,#876,.T.);
#1254=EDGE_CURVE('',#1015,#1035,#391,.T.);
#1259=ADVANCED_FACE('',(#1258),#1249,.F.);
#1267=EDGE_CURVE('',#1011,#1029,#202,.T.);
#1269=EDGE_CURVE('',#1013,#1011,#210,.T.);
#1273=ADVANCED_FACE('',(#1272),#1264,.F.);
#1281=EDGE_CURVE('',#1031,#1009,#436,.T.);
#1283=EDGE_CURVE('',#1009,#1011,#883,.T.);
#1287=ADVANCED_FACE('',(#1286),#1278,.F.);
#1294=EDGE_CURVE('',#927,#1075,#226,.T.);
#1296=EDGE_CURVE('',#926,#927,#233,.T.);
#1298=EDGE_CURVE('',#991,#926,#241,.T.);
#1300=EDGE_CURVE('',#1055,#991,#248,.T.);
#1302=EDGE_CURVE('',#1051,#1055,#256,.T.);
#1304=EDGE_CURVE('',#1023,#1051,#263,.T.);
#1306=EDGE_CURVE('',#977,#1023,#271,.T.);
#1308=EDGE_CURVE('',#976,#977,#278,.T.);
#1310=EDGE_CURVE('',#985,#976,#286,.T.);
#1312=EDGE_CURVE('',#984,#985,#293,.T.);
#1314=EDGE_CURVE('',#1017,#984,#301,.T.);
#1316=EDGE_CURVE('',#1047,#1017,#308,.T.);
#1318=EDGE_CURVE('',#1043,#1047,#316,.T.);
#1320=EDGE_CURVE('',#1007,#1043,#323,.T.);
#1322=EDGE_CURVE('',#943,#1007,#331,.T.);
#1324=EDGE_CURVE('',#942,#943,#338,.T.);
#1326=EDGE_CURVE('',#1071,#942,#346,.T.);
#1329=EDGE_CURVE('',#950,#951,#361,.T.);
#1331=EDGE_CURVE('',#999,#950,#369,.T.);
#1333=EDGE_CURVE('',#1039,#999,#376,.T.);
#1337=EDGE_CURVE('',#969,#1015,#399,.T.);
#1339=EDGE_CURVE('',#968,#969,#406,.T.);
#1342=EDGE_CURVE('',#960,#961,#421,.T.);
#1344=EDGE_CURVE('',#1009,#960,#429,.T.);
#1348=EDGE_CURVE('',#997,#1027,#451,.T.);
#1350=EDGE_CURVE('',#935,#997,#459,.T.);
#1352=EDGE_CURVE('',#934,#935,#466,.T.);
#1356=ADVANCED_FACE('',(#1355),#1292,.T.);
#1362=EDGE_CURVE('',#1053,#1079,#566,.T.);
#1365=EDGE_CURVE('',#1078,#931,#624,.T.);
#1367=EDGE_CURVE('',#927,#931,#480,.T.);
#1374=EDGE_CURVE('',#942,#947,#501,.T.);
#1376=EDGE_CURVE('',#947,#1066,#751,.T.);
#1379=EDGE_CURVE('',#1067,#1041,#720,.T.);
#1381=EDGE_CURVE('',#1041,#1043,#515,.T.);
#1384=EDGE_CURVE('',#1047,#1045,#522,.T.);
#1386=EDGE_CURVE('',#1045,#1049,#804,.T.);
#1388=EDGE_CURVE('',#1049,#1051,#529,.T.);
#1391=EDGE_CURVE('',#1055,#1053,#536,.T.);
#1395=EDGE_CURVE('',#985,#989,#543,.T.);
#1398=EDGE_CURVE('',#981,#976,#550,.T.);
#1400=EDGE_CURVE('',#981,#989,#855,.T.);
#1404=ADVANCED_FACE('',(#1394,#1403),#1361,.T.);
#1412=EDGE_CURVE('',#993,#1053,#573,.T.);
#1414=EDGE_CURVE('',#995,#993,#581,.T.);
#1416=EDGE_CURVE('',#1025,#995,#588,.T.);
#1420=ADVANCED_FACE('',(#1419),#1409,.F.);
#1429=EDGE_CURVE('',#991,#993,#609,.T.);
#1433=ADVANCED_FACE('',(#1432),#1425,.F.);
#1439=EDGE_CURVE('',#935,#938,#595,.T.);
#1442=EDGE_CURVE('',#995,#997,#602,.T.);
#1447=EDGE_CURVE('',#929,#926,#616,.T.);
#1449=EDGE_CURVE('',#929,#938,#647,.T.);
#1453=ADVANCED_FACE('',(#1452),#1438,.F.);
#1461=EDGE_CURVE('',#938,#939,#639,.T.);
#1466=ADVANCED_FACE('',(#1465),#1458,.F.);
#1476=EDGE_CURVE('',#931,#929,#654,.T.);
#1480=ADVANCED_FACE('',(#1479),#1471,.F.);
#1492=ADVANCED_FACE('',(#1491),#1485,.F.);
#1504=ADVANCED_FACE('',(#1503),#1497,.F.);
#1511=EDGE_CURVE('',#943,#946,#661,.T.);
#1513=EDGE_CURVE('',#946,#947,#758,.T.);
#1518=ADVANCED_FACE('',(#1517),#1509,.F.);
#1526=EDGE_CURVE('',#1004,#1007,#668,.T.);
#1528=EDGE_CURVE('',#1004,#1005,#705,.T.);
#1530=EDGE_CURVE('',#1005,#1001,#697,.T.);
#1532=EDGE_CURVE('',#999,#1001,#675,.T.);
#1535=EDGE_CURVE('',#953,#950,#682,.T.);
#1537=EDGE_CURVE('',#953,#957,#774,.T.);
#1539=EDGE_CURVE('',#957,#946,#766,.T.);
#1543=ADVANCED_FACE('',(#1542),#1523,.F.);
#1549=EDGE_CURVE('',#1041,#1004,#712,.T.);
#1556=ADVANCED_FACE('',(#1555),#1548,.F.);
#1562=EDGE_CURVE('',#1001,#1037,#689,.T.);
#1571=ADVANCED_FACE('',(#1570),#1561,.F.);
#1583=ADVANCED_FACE('',(#1582),#1576,.F.);
#1591=EDGE_CURVE('',#955,#953,#735,.T.);
#1596=ADVANCED_FACE('',(#1595),#1588,.F.);
#1610=ADVANCED_FACE('',(#1609),#1601,.F.);
#1616=EDGE_CURVE('',#1019,#1045,#781,.T.);
#1620=EDGE_CURVE('',#1017,#1019,#825,.T.);
#1624=ADVANCED_FACE('',(#1623),#1615,.F.);
#1631=EDGE_CURVE('',#1021,#1019,#789,.T.);
#1633=EDGE_CURVE('',#1049,#1021,#796,.T.);
#1638=ADVANCED_FACE('',(#1637),#1629,.F.);
#1644=EDGE_CURVE('',#977,#980,#811,.T.);
#1647=EDGE_CURVE('',#1021,#1023,#818,.T.);
#1652=EDGE_CURVE('',#987,#984,#832,.T.);
#1654=EDGE_CURVE('',#987,#980,#840,.T.);
#1658=ADVANCED_FACE('',(#1657),#1643,.F.);
#1666=EDGE_CURVE('',#980,#981,#862,.T.);
#1671=ADVANCED_FACE('',(#1670),#1663,.F.);
#1678=EDGE_CURVE('',#989,#987,#847,.T.);
#1684=ADVANCED_FACE('',(#1683),#1676,.F.);
#1696=ADVANCED_FACE('',(#1695),#1689,.F.);
#1708=ADVANCED_FACE('',(#1707),#1701,.F.);
#1714=EDGE_CURVE('',#969,#972,#869,.T.);
#1721=EDGE_CURVE('',#963,#960,#890,.T.);
#1723=EDGE_CURVE('',#963,#972,#905,.T.);
#1727=ADVANCED_FACE('',(#1726),#1713,.F.);
#1735=EDGE_CURVE('',#972,#973,#897,.T.);
#1740=ADVANCED_FACE('',(#1739),#1732,.F.);
#1748=EDGE_CURVE('',#965,#963,#912,.T.);
#1753=ADVANCED_FACE('',(#1752),#1745,.F.);
#1765=ADVANCED_FACE('',(#1764),#1758,.F.);
#1766=CLOSED_SHELL('',(#1103,#1117,#1127,#1143,#1158,#1171,#1187,#1244,#1259,
#1273,#1287,#1356,#1404,#1420,#1433,#1453,#1466,#1480,#1492,#1504,#1518,#1543,
#1556,#1571,#1583,#1596,#1610,#1624,#1638,#1658,#1671,#1684,#1696,#1708,#1727,
#1740,#1753,#1765));
#1767=MANIFOLD_SOLID_BREP('',#1766);
#1774=(LENGTH_UNIT()NAMED_UNIT(*)SI_UNIT(.MILLI.,.METRE.));
#1777=(NAMED_UNIT(*)PLANE_ANGLE_UNIT()SI_UNIT($,.RADIAN.));
#1780=(NAMED_UNIT(*)SI_UNIT($,.STERADIAN.)SOLID_ANGLE_UNIT());
#1782=(GEOMETRIC_REPRESENTATION_CONTEXT(3)GLOBAL_UNCERTAINTY_ASSIGNED_CONTEXT((
#1781))GLOBAL_UNIT_ASSIGNED_CONTEXT((#1776,#1779,#1780))REPRESENTATION_CONTEXT(
'ID1','3'));
#1786=AXIS2_PLACEMENT_3D('',#1783,#1784,#1785);
#1787=ADVANCED_BREP_SHAPE_REPRESENTATION('',(#1786,#1767),#1782);
#1795=PRODUCT_DEFINITION('design','',#1794,#1791);
#1796=PRODUCT_DEFINITION_SHAPE('','SHAPE FOR GEARBOX_HOUSING-199.',#1795);
#1797=SHAPE_ASPECT('','solid data associated with GEARBOX_HOUSING-199',#1796,
.F.);
#1798=PROPERTY_DEFINITION('',
'shape for solid data with which properties are associated',#1797);
#1799=SHAPE_REPRESENTATION('',(#1767),#1782);
#1800=SHAPE_DEFINITION_REPRESENTATION(#1798,#1799);
#1801=(LENGTH_UNIT()NAMED_UNIT(*)SI_UNIT(.MILLI.,.METRE.));
#1807=PROPERTY_DEFINITION('geometric validation property',
'area of GEARBOX_HOUSING-199',#1797);
#1808=REPRESENTATION('surface area',(#1806),#1782);
#1809=PROPERTY_DEFINITION_REPRESENTATION(#1807,#1808);
#1810=(LENGTH_UNIT()NAMED_UNIT(*)SI_UNIT(.MILLI.,.METRE.));
#1816=PROPERTY_DEFINITION('geometric validation property',
'volume of GEARBOX_HOUSING-199',#1797);
#1817=REPRESENTATION('volume',(#1815),#1782);
#1818=PROPERTY_DEFINITION_REPRESENTATION(#1816,#1817);
#1820=PROPERTY_DEFINITION('geometric validation property',
'centroid of GEARBOX_HOUSING-199',#1797);
#1821=REPRESENTATION('centroid',(#1819),#1782);
#1822=PROPERTY_DEFINITION_REPRESENTATION(#1820,#1821);
#1823=(LENGTH_UNIT()NAMED_UNIT(*)SI_UNIT(.MILLI.,.METRE.));
#1829=PROPERTY_DEFINITION('geometric validation property',
'area of GEARBOX_HOUSING-199',#1796);
#1830=REPRESENTATION('surface area',(#1828),#1782);
#1831=PROPERTY_DEFINITION_REPRESENTATION(#1829,#1830);
#1832=(LENGTH_UNIT()NAMED_UNIT(*)SI_UNIT(.MILLI.,.METRE.));
#1838=PROPERTY_DEFINITION('geometric validation property',
'volume of GEARBOX_HOUSING-199',#1796);
#1839=REPRESENTATION('volume',(#1837),#1782);
#1840=PROPERTY_DEFINITION_REPRESENTATION(#1838,#1839);
#1842=PROPERTY_DEFINITION('geometric validation property',
'centroid of GEARBOX_HOUSING-199',#1796);
#1843=REPRESENTATION('centroid',(#1841),#1782);
#1844=PROPERTY_DEFINITION_REPRESENTATION(#1842,#1843);
#1845=SHAPE_DEFINITION_REPRESENTATION(#1796,#1787);
ENDSEC;
END-ISO-10303-21;
