ISO-10303-21;
HEADER;
FILE_DESCRIPTION((''),'2;1');
FILE_NAME('IC_-24720001','2026-06-15T13:45:54',('Esia'),(''),
'CREO PARAMETRIC BY PTC INC, 2025102','CREO PARAMETRIC BY PTC INC, 2025102','');
FILE_SCHEMA((
'AP242_MANAGED_MODEL_BASED_3D_ENGINEERING_MIM_LF { 1 0 10303 442 1 1 4 }'));
ENDSEC;
DATA;
#16=CARTESIAN_POINT('',(2.677165354331E-1,-8.858267716535E-2,0.E0));
#17=DIRECTION('',(0.E0,0.E0,-1.E0));
#18=DIRECTION('',(1.E0,0.E0,0.E0));
#19=AXIS2_PLACEMENT_3D('',#16,#17,#18);
#21=DIRECTION('',(0.E0,0.E0,1.E0));
#22=VECTOR('',#21,1.968503937008E-3);
#23=CARTESIAN_POINT('',(2.677165354331E-1,-9.448818897638E-2,0.E0));
#24=LINE('',#23,#22);
#25=CARTESIAN_POINT('',(2.677165354331E-1,-8.858267716535E-2,
1.968503937008E-3));
#26=DIRECTION('',(0.E0,0.E0,1.E0));
#27=DIRECTION('',(0.E0,-1.E0,0.E0));
#28=AXIS2_PLACEMENT_3D('',#25,#26,#27);
#30=CARTESIAN_POINT('',(2.677165354331E-1,-8.858267716535E-2,
1.968503937008E-3));
#31=DIRECTION('',(0.E0,0.E0,1.E0));
#32=DIRECTION('',(1.E0,0.E0,0.E0));
#33=AXIS2_PLACEMENT_3D('',#30,#31,#32);
#35=DIRECTION('',(0.E0,0.E0,-1.E0));
#36=VECTOR('',#35,1.968503937008E-3);
#37=CARTESIAN_POINT('',(2.677165354331E-1,-8.267716535433E-2,
1.968503937008E-3));
#38=LINE('',#37,#36);
#39=CARTESIAN_POINT('',(2.677165354331E-1,-8.858267716535E-2,0.E0));
#40=DIRECTION('',(0.E0,0.E0,-1.E0));
#41=DIRECTION('',(0.E0,1.E0,0.E0));
#42=AXIS2_PLACEMENT_3D('',#39,#40,#41);
#44=CARTESIAN_POINT('',(2.677165354331E-1,-9.448818897638E-2,0.E0));
#45=CARTESIAN_POINT('',(2.736220472441E-1,-8.858267716535E-2,0.E0));
#46=VERTEX_POINT('',#44);
#47=VERTEX_POINT('',#45);
#48=CARTESIAN_POINT('',(2.677165354331E-1,-8.267716535433E-2,0.E0));
#49=VERTEX_POINT('',#48);
#50=CARTESIAN_POINT('',(2.677165354331E-1,-8.267716535433E-2,
1.968503937008E-3));
#51=VERTEX_POINT('',#50);
#52=CARTESIAN_POINT('',(2.736220472441E-1,-8.858267716535E-2,
1.968503937008E-3));
#53=VERTEX_POINT('',#52);
#54=CARTESIAN_POINT('',(2.677165354331E-1,-9.448818897638E-2,
1.968503937008E-3));
#55=VERTEX_POINT('',#54);
#56=CARTESIAN_POINT('',(2.677165354331E-1,-8.858267716535E-2,
3.937007874016E-3));
#57=DIRECTION('',(0.E0,0.E0,1.E0));
#58=DIRECTION('',(1.E0,0.E0,0.E0));
#59=AXIS2_PLACEMENT_3D('',#56,#57,#58);
#60=CYLINDRICAL_SURFACE('',#59,5.905511811024E-3);
#62=ORIENTED_EDGE('',*,*,#61,.T.);
#64=ORIENTED_EDGE('',*,*,#63,.T.);
#66=ORIENTED_EDGE('',*,*,#65,.T.);
#68=ORIENTED_EDGE('',*,*,#67,.T.);
#70=ORIENTED_EDGE('',*,*,#69,.T.);
#72=ORIENTED_EDGE('',*,*,#71,.T.);
#73=EDGE_LOOP('',(#62,#64,#66,#68,#70,#72));
#74=FACE_OUTER_BOUND('',#73,.F.);
#76=FILL_AREA_STYLE_COLOUR('',#9);
#77=FILL_AREA_STYLE('',(#76));
#78=SURFACE_STYLE_FILL_AREA(#77);
#79=SURFACE_SIDE_STYLE('',(#78));
#80=SURFACE_STYLE_USAGE(.BOTH.,#79);
#81=PRESENTATION_STYLE_ASSIGNMENT((#80));
#82=STYLED_ITEM('',(#81),#75);
#85=PRESENTATION_LAYER_ASSIGNMENT('SHELL_525','',(#75,#83));
#87=LENGTH_MEASURE_WITH_UNIT(LENGTH_MEASURE(2.54E1),#86);
#88=(CONVERSION_BASED_UNIT('INCH',#87)LENGTH_UNIT()NAMED_UNIT(*));
#90=PLANE_ANGLE_MEASURE_WITH_UNIT(PLANE_ANGLE_MEASURE(1.745329251994E-2),#89);
#91=(CONVERSION_BASED_UNIT('DEGREE',#90)NAMED_UNIT(*)PLANE_ANGLE_UNIT());
#93=UNCERTAINTY_MEASURE_WITH_UNIT(LENGTH_MEASURE(1.112653690255E-5),#88,
'closure',
'Maximum model space distance between geometric entities at asserted connectivities');
#95=CARTESIAN_POINT('',(0.E0,0.E0,0.E0));
#96=DIRECTION('',(0.E0,0.E0,1.E0));
#97=DIRECTION('',(1.E0,0.E0,0.E0));
#100=MECHANICAL_DESIGN_GEOMETRIC_PRESENTATION_REPRESENTATION('',(#82),#94);
#101=APPLICATION_CONTEXT('automotive design');
#102=APPLICATION_PROTOCOL_DEFINITION('international standard',
'config_control_design',1994,#101);
#103=PRODUCT_DEFINITION_CONTEXT('',#101,'design');
#104=PRODUCT_CONTEXT('',#101,'mechanical');
#105=PRODUCT('IC_-24720001','IC_-24720001','NOT SPECIFIED',(#104));
#106=PRODUCT_DEFINITION_FORMATION_WITH_SPECIFIED_SOURCE('1','LAST_VERSION',#105,
.MADE.);
#114=LENGTH_MEASURE_WITH_UNIT(LENGTH_MEASURE(2.54E1),#113);
#115=(CONVERSION_BASED_UNIT('INCH',#114)LENGTH_UNIT()NAMED_UNIT(*));
#116=DERIVED_UNIT_ELEMENT(#115,2.E0);
#117=AREA_UNIT((#116));
#118=MEASURE_REPRESENTATION_ITEM('surface area measure',AREA_MEASURE(
2.356194490192E-8),#117);
#123=LENGTH_MEASURE_WITH_UNIT(LENGTH_MEASURE(2.54E1),#122);
#124=(CONVERSION_BASED_UNIT('INCH',#123)LENGTH_UNIT()NAMED_UNIT(*));
#125=DERIVED_UNIT_ELEMENT(#124,2.E0);
#126=AREA_UNIT((#125));
#127=MEASURE_REPRESENTATION_ITEM('surface area measure',AREA_MEASURE(
2.356194490192E-8),#126);
#1=DRAUGHTING_PRE_DEFINED_COLOUR('green');
#2=COLOUR_RGB('',1.1E-2,1.2E-2,1.E0);
#3=COLOUR_RGB('',2.352941176471E-1,2.352941176471E-1,2.352941176471E-1);
#4=COLOUR_RGB('',4.1E-1,2.61589E-1,1.12848E-1);
#5=COLOUR_RGB('',5.04854E-1,1.5455E-2,1.5455E-2);
#6=COLOUR_RGB('',6.35294E-1,6.86275E-1,7.4902E-1);
#7=COLOUR_RGB('',6.40777E-1,6.40777E-1,6.40777E-1);
#8=COLOUR_RGB('',6.69062E-1,6.69903E-1,6.55217E-1);
#9=COLOUR_RGB('',9.019607843137E-1,9.019607843137E-1,9.019607843137E-1);
#10=COLOUR_RGB('',9.21569E-1,7.05882E-1,4.70588E-1);
#11=DRAUGHTING_PRE_DEFINED_COLOUR('red');
#12=DRAUGHTING_PRE_DEFINED_COLOUR('yellow');
#13=COLOUR_RGB('',1.E0,1.E0,5.3E-1);
#14=COLOUR_RGB('',1.E0,1.E0,9.49E-1);
#15=DRAUGHTING_PRE_DEFINED_COLOUR('white');
#20=CIRCLE('',#19,5.905511811024E-3);
#29=CIRCLE('',#28,5.905511811024E-3);
#34=CIRCLE('',#33,5.905511811024E-3);
#43=CIRCLE('',#42,5.905511811024E-3);
#61=EDGE_CURVE('',#47,#46,#20,.T.);
#63=EDGE_CURVE('',#46,#55,#24,.T.);
#65=EDGE_CURVE('',#55,#53,#29,.T.);
#67=EDGE_CURVE('',#53,#51,#34,.T.);
#69=EDGE_CURVE('',#51,#49,#38,.T.);
#71=EDGE_CURVE('',#49,#47,#43,.T.);
#75=ADVANCED_FACE('',(#74),#60,.T.);
#83=OPEN_SHELL('',(#75));
#84=SHELL_BASED_SURFACE_MODEL('',(#83));
#86=(LENGTH_UNIT()NAMED_UNIT(*)SI_UNIT(.MILLI.,.METRE.));
#89=(NAMED_UNIT(*)PLANE_ANGLE_UNIT()SI_UNIT($,.RADIAN.));
#92=(NAMED_UNIT(*)SI_UNIT($,.STERADIAN.)SOLID_ANGLE_UNIT());
#94=(GEOMETRIC_REPRESENTATION_CONTEXT(3)GLOBAL_UNCERTAINTY_ASSIGNED_CONTEXT(
(#93))GLOBAL_UNIT_ASSIGNED_CONTEXT((#88,#91,#92))REPRESENTATION_CONTEXT('ID1',
'3'));
#98=AXIS2_PLACEMENT_3D('',#95,#96,#97);
#99=MANIFOLD_SURFACE_SHAPE_REPRESENTATION('',(#98,#84),#94);
#107=PRODUCT_DEFINITION('design','',#106,#103);
#108=PRODUCT_DEFINITION_SHAPE('','SHAPE FOR IC_-24720001.',#107);
#109=SHAPE_ASPECT('','surface data associated with IC_-24720001',#108,.F.);
#110=PROPERTY_DEFINITION('',
'shape for surface data with which properties are associated',#109);
#111=SHAPE_REPRESENTATION('',(#84),#94);
#112=SHAPE_DEFINITION_REPRESENTATION(#110,#111);
#113=(LENGTH_UNIT()NAMED_UNIT(*)SI_UNIT(.MILLI.,.METRE.));
#119=PROPERTY_DEFINITION('geometric validation property','area of IC_-24720001',
#109);
#120=REPRESENTATION('surface area',(#118),#94);
#121=PROPERTY_DEFINITION_REPRESENTATION(#119,#120);
#122=(LENGTH_UNIT()NAMED_UNIT(*)SI_UNIT(.MILLI.,.METRE.));
#128=PROPERTY_DEFINITION('geometric validation property','area of IC_-24720001',
#108);
#129=REPRESENTATION('surface area',(#127),#94);
#130=PROPERTY_DEFINITION_REPRESENTATION(#128,#129);
#131=SHAPE_DEFINITION_REPRESENTATION(#108,#99);
ENDSEC;
END-ISO-10303-21;
