ISO-10303-21;
HEADER;
FILE_DESCRIPTION((''),'2;1');
FILE_NAME('IC_-13460001','2026-06-15T13:45:48',('Esia'),(''),
'CREO PARAMETRIC BY PTC INC, 2025102','CREO PARAMETRIC BY PTC INC, 2025102','');
FILE_SCHEMA((
'AP242_MANAGED_MODEL_BASED_3D_ENGINEERING_MIM_LF { 1 0 10303 442 1 1 4 }'));
ENDSEC;
DATA;
#16=DIRECTION('',(1.E0,0.E0,0.E0));
#17=VECTOR('',#16,1.181102362205E-2);
#18=CARTESIAN_POINT('',(2.559055118110E-1,1.574803149606E-2,0.E0));
#19=LINE('',#18,#17);
#20=DIRECTION('',(0.E0,0.E0,1.E0));
#21=VECTOR('',#20,1.968503937008E-3);
#22=CARTESIAN_POINT('',(2.677165354331E-1,1.574803149606E-2,0.E0));
#23=LINE('',#22,#21);
#24=DIRECTION('',(-1.E0,0.E0,0.E0));
#25=VECTOR('',#24,1.181102362205E-2);
#26=CARTESIAN_POINT('',(2.677165354331E-1,1.574803149606E-2,1.968503937008E-3));
#27=LINE('',#26,#25);
#28=DIRECTION('',(0.E0,0.E0,-1.E0));
#29=VECTOR('',#28,1.968503937008E-3);
#30=CARTESIAN_POINT('',(2.559055118110E-1,1.574803149606E-2,1.968503937008E-3));
#31=LINE('',#30,#29);
#32=CARTESIAN_POINT('',(2.677165354331E-1,1.574803149606E-2,0.E0));
#33=CARTESIAN_POINT('',(2.559055118110E-1,1.574803149606E-2,0.E0));
#34=VERTEX_POINT('',#32);
#35=VERTEX_POINT('',#33);
#36=CARTESIAN_POINT('',(2.559055118110E-1,1.574803149606E-2,1.968503937008E-3));
#37=VERTEX_POINT('',#36);
#38=CARTESIAN_POINT('',(2.677165354331E-1,1.574803149606E-2,1.968503937008E-3));
#39=VERTEX_POINT('',#38);
#40=CARTESIAN_POINT('',(2.677165354331E-1,1.574803149606E-2,0.E0));
#41=DIRECTION('',(0.E0,1.E0,0.E0));
#42=DIRECTION('',(0.E0,0.E0,1.E0));
#43=AXIS2_PLACEMENT_3D('',#40,#41,#42);
#44=PLANE('',#43);
#46=ORIENTED_EDGE('',*,*,#45,.T.);
#48=ORIENTED_EDGE('',*,*,#47,.T.);
#50=ORIENTED_EDGE('',*,*,#49,.T.);
#52=ORIENTED_EDGE('',*,*,#51,.T.);
#53=EDGE_LOOP('',(#46,#48,#50,#52));
#54=FACE_OUTER_BOUND('',#53,.F.);
#56=FILL_AREA_STYLE_COLOUR('',#9);
#57=FILL_AREA_STYLE('',(#56));
#58=SURFACE_STYLE_FILL_AREA(#57);
#59=SURFACE_SIDE_STYLE('',(#58));
#60=SURFACE_STYLE_USAGE(.BOTH.,#59);
#61=PRESENTATION_STYLE_ASSIGNMENT((#60));
#62=STYLED_ITEM('',(#61),#55);
#65=PRESENTATION_LAYER_ASSIGNMENT('SHELL_779','',(#55,#63));
#67=LENGTH_MEASURE_WITH_UNIT(LENGTH_MEASURE(2.54E1),#66);
#68=(CONVERSION_BASED_UNIT('INCH',#67)LENGTH_UNIT()NAMED_UNIT(*));
#70=PLANE_ANGLE_MEASURE_WITH_UNIT(PLANE_ANGLE_MEASURE(1.745329251994E-2),#69);
#71=(CONVERSION_BASED_UNIT('DEGREE',#70)NAMED_UNIT(*)PLANE_ANGLE_UNIT());
#73=UNCERTAINTY_MEASURE_WITH_UNIT(LENGTH_MEASURE(9.978883647833E-6),#68,
'closure',
'Maximum model space distance between geometric entities at asserted connectivities');
#75=CARTESIAN_POINT('',(0.E0,0.E0,0.E0));
#76=DIRECTION('',(0.E0,0.E0,1.E0));
#77=DIRECTION('',(1.E0,0.E0,0.E0));
#80=MECHANICAL_DESIGN_GEOMETRIC_PRESENTATION_REPRESENTATION('',(#62),#74);
#81=APPLICATION_CONTEXT('automotive design');
#82=APPLICATION_PROTOCOL_DEFINITION('international standard',
'config_control_design',1994,#81);
#83=PRODUCT_DEFINITION_CONTEXT('',#81,'design');
#84=PRODUCT_CONTEXT('',#81,'mechanical');
#85=PRODUCT('IC_-13460001','IC_-13460001','NOT SPECIFIED',(#84));
#86=PRODUCT_DEFINITION_FORMATION_WITH_SPECIFIED_SOURCE('1','LAST_VERSION',#85,
.MADE.);
#94=LENGTH_MEASURE_WITH_UNIT(LENGTH_MEASURE(2.54E1),#93);
#95=(CONVERSION_BASED_UNIT('INCH',#94)LENGTH_UNIT()NAMED_UNIT(*));
#96=DERIVED_UNIT_ELEMENT(#95,2.E0);
#97=AREA_UNIT((#96));
#98=MEASURE_REPRESENTATION_ITEM('surface area measure',AREA_MEASURE(1.5E-8),
#97);
#103=LENGTH_MEASURE_WITH_UNIT(LENGTH_MEASURE(2.54E1),#102);
#104=(CONVERSION_BASED_UNIT('INCH',#103)LENGTH_UNIT()NAMED_UNIT(*));
#105=DERIVED_UNIT_ELEMENT(#104,2.E0);
#106=AREA_UNIT((#105));
#107=MEASURE_REPRESENTATION_ITEM('surface area measure',AREA_MEASURE(1.5E-8),
#106);
#1=DRAUGHTING_PRE_DEFINED_COLOUR('green');
#2=COLOUR_RGB('',1.1E-2,1.2E-2,1.E0);
#3=COLOUR_RGB('',2.352941176471E-1,2.352941176471E-1,2.352941176471E-1);
#4=COLOUR_RGB('',4.1E-1,2.61589E-1,1.12848E-1);
#5=COLOUR_RGB('',5.04854E-1,1.5455E-2,1.5455E-2);
#6=COLOUR_RGB('',6.35294E-1,6.86275E-1,7.4902E-1);
#7=COLOUR_RGB('',6.40777E-1,6.40777E-1,6.40777E-1);
#8=COLOUR_RGB('',6.69062E-1,6.69903E-1,6.55217E-1);
#9=COLOUR_RGB('',9.019607843137E-1,9.019607843137E-1,9.019607843137E-1);
#10=COLOUR_RGB('',9.21569E-1,7.05882E-1,4.70588E-1);
#11=DRAUGHTING_PRE_DEFINED_COLOUR('red');
#12=DRAUGHTING_PRE_DEFINED_COLOUR('yellow');
#13=COLOUR_RGB('',1.E0,1.E0,5.3E-1);
#14=COLOUR_RGB('',1.E0,1.E0,9.49E-1);
#15=DRAUGHTING_PRE_DEFINED_COLOUR('white');
#45=EDGE_CURVE('',#35,#34,#19,.T.);
#47=EDGE_CURVE('',#34,#39,#23,.T.);
#49=EDGE_CURVE('',#39,#37,#27,.T.);
#51=EDGE_CURVE('',#37,#35,#31,.T.);
#55=ADVANCED_FACE('',(#54),#44,.T.);
#63=OPEN_SHELL('',(#55));
#64=SHELL_BASED_SURFACE_MODEL('',(#63));
#66=(LENGTH_UNIT()NAMED_UNIT(*)SI_UNIT(.MILLI.,.METRE.));
#69=(NAMED_UNIT(*)PLANE_ANGLE_UNIT()SI_UNIT($,.RADIAN.));
#72=(NAMED_UNIT(*)SI_UNIT($,.STERADIAN.)SOLID_ANGLE_UNIT());
#74=(GEOMETRIC_REPRESENTATION_CONTEXT(3)GLOBAL_UNCERTAINTY_ASSIGNED_CONTEXT(
(#73))GLOBAL_UNIT_ASSIGNED_CONTEXT((#68,#71,#72))REPRESENTATION_CONTEXT('ID1',
'3'));
#78=AXIS2_PLACEMENT_3D('',#75,#76,#77);
#79=MANIFOLD_SURFACE_SHAPE_REPRESENTATION('',(#78,#64),#74);
#87=PRODUCT_DEFINITION('design','',#86,#83);
#88=PRODUCT_DEFINITION_SHAPE('','SHAPE FOR IC_-13460001.',#87);
#89=SHAPE_ASPECT('','surface data associated with IC_-13460001',#88,.F.);
#90=PROPERTY_DEFINITION('',
'shape for surface data with which properties are associated',#89);
#91=SHAPE_REPRESENTATION('',(#64),#74);
#92=SHAPE_DEFINITION_REPRESENTATION(#90,#91);
#93=(LENGTH_UNIT()NAMED_UNIT(*)SI_UNIT(.MILLI.,.METRE.));
#99=PROPERTY_DEFINITION('geometric validation property','area of IC_-13460001',
#89);
#100=REPRESENTATION('surface area',(#98),#74);
#101=PROPERTY_DEFINITION_REPRESENTATION(#99,#100);
#102=(LENGTH_UNIT()NAMED_UNIT(*)SI_UNIT(.MILLI.,.METRE.));
#108=PROPERTY_DEFINITION('geometric validation property','area of IC_-13460001',
#88);
#109=REPRESENTATION('surface area',(#107),#74);
#110=PROPERTY_DEFINITION_REPRESENTATION(#108,#109);
#111=SHAPE_DEFINITION_REPRESENTATION(#88,#79);
ENDSEC;
END-ISO-10303-21;
