ISO-10303-21;
HEADER;
FILE_DESCRIPTION((''),'2;1');
FILE_NAME('JOINT_PLATE','2026-06-15T13:45:23',('Esia'),(''),
'CREO PARAMETRIC BY PTC INC, 2025102','CREO PARAMETRIC BY PTC INC, 2025102','');
FILE_SCHEMA((
'AP242_MANAGED_MODEL_BASED_3D_ENGINEERING_MIM_LF { 1 0 10303 442 1 1 4 }'));
ENDSEC;
DATA;
#17=CARTESIAN_POINT('',(0.E0,3.617693010178E0,3.794469974439E0));
#18=DIRECTION('',(-1.E0,0.E0,0.E0));
#19=DIRECTION('',(0.E0,0.E0,1.E0));
#20=AXIS2_PLACEMENT_3D('',#17,#18,#19);
#22=DRAUGHTING_PRE_DEFINED_CURVE_FONT('continuous');
#23=CURVE_STYLE('',#22,POSITIVE_LENGTH_MEASURE(2.E-2),#3);
#24=PRESENTATION_STYLE_ASSIGNMENT((#23));
#25=STYLED_ITEM('',(#24),#21);
#26=CARTESIAN_POINT('',(0.E0,3.617693010178E0,3.794469974439E0));
#27=DIRECTION('',(-1.E0,0.E0,0.E0));
#28=DIRECTION('',(0.E0,0.E0,-1.E0));
#29=AXIS2_PLACEMENT_3D('',#26,#27,#28);
#31=CURVE_STYLE('',#22,POSITIVE_LENGTH_MEASURE(2.E-2),#3);
#32=PRESENTATION_STYLE_ASSIGNMENT((#31));
#33=STYLED_ITEM('',(#32),#30);
#34=CARTESIAN_POINT('',(0.E0,3.617693010178E0,3.509469974439E0));
#35=DIRECTION('',(-1.E0,0.E0,0.E0));
#36=DIRECTION('',(0.E0,0.E0,1.E0));
#37=AXIS2_PLACEMENT_3D('',#34,#35,#36);
#39=CURVE_STYLE('',#22,POSITIVE_LENGTH_MEASURE(2.E-2),#3);
#40=PRESENTATION_STYLE_ASSIGNMENT((#39));
#41=STYLED_ITEM('',(#40),#38);
#42=CARTESIAN_POINT('',(0.E0,3.617693010178E0,3.509469974439E0));
#43=DIRECTION('',(-1.E0,0.E0,0.E0));
#44=DIRECTION('',(0.E0,0.E0,-1.E0));
#45=AXIS2_PLACEMENT_3D('',#42,#43,#44);
#47=CURVE_STYLE('',#22,POSITIVE_LENGTH_MEASURE(2.E-2),#3);
#48=PRESENTATION_STYLE_ASSIGNMENT((#47));
#49=STYLED_ITEM('',(#48),#46);
#50=CARTESIAN_POINT('',(0.E0,3.617693010178E0,4.079469974439E0));
#51=DIRECTION('',(-1.E0,0.E0,0.E0));
#52=DIRECTION('',(0.E0,0.E0,1.E0));
#53=AXIS2_PLACEMENT_3D('',#50,#51,#52);
#55=CURVE_STYLE('',#22,POSITIVE_LENGTH_MEASURE(2.E-2),#3);
#56=PRESENTATION_STYLE_ASSIGNMENT((#55));
#57=STYLED_ITEM('',(#56),#54);
#58=CARTESIAN_POINT('',(0.E0,3.617693010178E0,4.079469974439E0));
#59=DIRECTION('',(-1.E0,0.E0,0.E0));
#60=DIRECTION('',(0.E0,0.E0,-1.E0));
#61=AXIS2_PLACEMENT_3D('',#58,#59,#60);
#63=CURVE_STYLE('',#22,POSITIVE_LENGTH_MEASURE(2.E-2),#3);
#64=PRESENTATION_STYLE_ASSIGNMENT((#63));
#65=STYLED_ITEM('',(#64),#62);
#66=CARTESIAN_POINT('',(0.E0,3.902693010178E0,3.794469974439E0));
#67=DIRECTION('',(-1.E0,0.E0,0.E0));
#68=DIRECTION('',(0.E0,0.E0,1.E0));
#69=AXIS2_PLACEMENT_3D('',#66,#67,#68);
#71=CURVE_STYLE('',#22,POSITIVE_LENGTH_MEASURE(2.E-2),#3);
#72=PRESENTATION_STYLE_ASSIGNMENT((#71));
#73=STYLED_ITEM('',(#72),#70);
#74=CARTESIAN_POINT('',(0.E0,3.902693010178E0,3.794469974439E0));
#75=DIRECTION('',(-1.E0,0.E0,0.E0));
#76=DIRECTION('',(0.E0,0.E0,-1.E0));
#77=AXIS2_PLACEMENT_3D('',#74,#75,#76);
#79=CURVE_STYLE('',#22,POSITIVE_LENGTH_MEASURE(2.E-2),#3);
#80=PRESENTATION_STYLE_ASSIGNMENT((#79));
#81=STYLED_ITEM('',(#80),#78);
#82=CARTESIAN_POINT('',(0.E0,3.332693010178E0,3.794469974439E0));
#83=DIRECTION('',(-1.E0,0.E0,0.E0));
#84=DIRECTION('',(0.E0,0.E0,1.E0));
#85=AXIS2_PLACEMENT_3D('',#82,#83,#84);
#87=CURVE_STYLE('',#22,POSITIVE_LENGTH_MEASURE(2.E-2),#3);
#88=PRESENTATION_STYLE_ASSIGNMENT((#87));
#89=STYLED_ITEM('',(#88),#86);
#90=CARTESIAN_POINT('',(0.E0,3.332693010178E0,3.794469974439E0));
#91=DIRECTION('',(-1.E0,0.E0,0.E0));
#92=DIRECTION('',(0.E0,0.E0,-1.E0));
#93=AXIS2_PLACEMENT_3D('',#90,#91,#92);
#95=CURVE_STYLE('',#22,POSITIVE_LENGTH_MEASURE(2.E-2),#3);
#96=PRESENTATION_STYLE_ASSIGNMENT((#95));
#97=STYLED_ITEM('',(#96),#94);
#98=DIRECTION('',(1.E0,0.E0,0.E0));
#99=VECTOR('',#98,9.375E-2);
#100=CARTESIAN_POINT('',(0.E0,3.617693010178E0,4.621219974439E0));
#101=LINE('',#100,#99);
#102=CURVE_STYLE('',#22,POSITIVE_LENGTH_MEASURE(2.E-2),#3);
#103=PRESENTATION_STYLE_ASSIGNMENT((#102));
#104=STYLED_ITEM('',(#103),#101);
#105=DIRECTION('',(1.E0,0.E0,0.E0));
#106=VECTOR('',#105,9.375E-2);
#107=CARTESIAN_POINT('',(0.E0,3.617693010178E0,2.967719974439E0));
#108=LINE('',#107,#106);
#109=CURVE_STYLE('',#22,POSITIVE_LENGTH_MEASURE(2.E-2),#3);
#110=PRESENTATION_STYLE_ASSIGNMENT((#109));
#111=STYLED_ITEM('',(#110),#108);
#112=CARTESIAN_POINT('',(9.375E-2,3.617693010178E0,3.794469974439E0));
#113=DIRECTION('',(-1.E0,0.E0,0.E0));
#114=DIRECTION('',(0.E0,0.E0,1.E0));
#115=AXIS2_PLACEMENT_3D('',#112,#113,#114);
#117=CURVE_STYLE('',#22,POSITIVE_LENGTH_MEASURE(2.E-2),#3);
#118=PRESENTATION_STYLE_ASSIGNMENT((#117));
#119=STYLED_ITEM('',(#118),#116);
#120=CARTESIAN_POINT('',(9.375E-2,3.617693010178E0,3.794469974439E0));
#121=DIRECTION('',(-1.E0,0.E0,0.E0));
#122=DIRECTION('',(0.E0,0.E0,-1.E0));
#123=AXIS2_PLACEMENT_3D('',#120,#121,#122);
#125=CURVE_STYLE('',#22,POSITIVE_LENGTH_MEASURE(2.E-2),#3);
#126=PRESENTATION_STYLE_ASSIGNMENT((#125));
#127=STYLED_ITEM('',(#126),#124);
#128=CARTESIAN_POINT('',(9.375E-2,3.617693010178E0,3.509469974439E0));
#129=DIRECTION('',(-1.E0,0.E0,0.E0));
#130=DIRECTION('',(0.E0,0.E0,1.E0));
#131=AXIS2_PLACEMENT_3D('',#128,#129,#130);
#133=CURVE_STYLE('',#22,POSITIVE_LENGTH_MEASURE(2.E-2),#3);
#134=PRESENTATION_STYLE_ASSIGNMENT((#133));
#135=STYLED_ITEM('',(#134),#132);
#136=CARTESIAN_POINT('',(9.375E-2,3.617693010178E0,3.509469974439E0));
#137=DIRECTION('',(-1.E0,0.E0,0.E0));
#138=DIRECTION('',(0.E0,0.E0,-1.E0));
#139=AXIS2_PLACEMENT_3D('',#136,#137,#138);
#141=CURVE_STYLE('',#22,POSITIVE_LENGTH_MEASURE(2.E-2),#3);
#142=PRESENTATION_STYLE_ASSIGNMENT((#141));
#143=STYLED_ITEM('',(#142),#140);
#144=CARTESIAN_POINT('',(9.375E-2,3.617693010178E0,4.079469974439E0));
#145=DIRECTION('',(-1.E0,0.E0,0.E0));
#146=DIRECTION('',(0.E0,0.E0,1.E0));
#147=AXIS2_PLACEMENT_3D('',#144,#145,#146);
#149=CURVE_STYLE('',#22,POSITIVE_LENGTH_MEASURE(2.E-2),#3);
#150=PRESENTATION_STYLE_ASSIGNMENT((#149));
#151=STYLED_ITEM('',(#150),#148);
#152=CARTESIAN_POINT('',(9.375E-2,3.617693010178E0,4.079469974439E0));
#153=DIRECTION('',(-1.E0,0.E0,0.E0));
#154=DIRECTION('',(0.E0,0.E0,-1.E0));
#155=AXIS2_PLACEMENT_3D('',#152,#153,#154);
#157=CURVE_STYLE('',#22,POSITIVE_LENGTH_MEASURE(2.E-2),#3);
#158=PRESENTATION_STYLE_ASSIGNMENT((#157));
#159=STYLED_ITEM('',(#158),#156);
#160=CARTESIAN_POINT('',(9.375E-2,3.902693010178E0,3.794469974439E0));
#161=DIRECTION('',(-1.E0,0.E0,0.E0));
#162=DIRECTION('',(0.E0,0.E0,1.E0));
#163=AXIS2_PLACEMENT_3D('',#160,#161,#162);
#165=CURVE_STYLE('',#22,POSITIVE_LENGTH_MEASURE(2.E-2),#3);
#166=PRESENTATION_STYLE_ASSIGNMENT((#165));
#167=STYLED_ITEM('',(#166),#164);
#168=CARTESIAN_POINT('',(9.375E-2,3.902693010178E0,3.794469974439E0));
#169=DIRECTION('',(-1.E0,0.E0,0.E0));
#170=DIRECTION('',(0.E0,0.E0,-1.E0));
#171=AXIS2_PLACEMENT_3D('',#168,#169,#170);
#173=CURVE_STYLE('',#22,POSITIVE_LENGTH_MEASURE(2.E-2),#3);
#174=PRESENTATION_STYLE_ASSIGNMENT((#173));
#175=STYLED_ITEM('',(#174),#172);
#176=CARTESIAN_POINT('',(9.375E-2,3.332693010178E0,3.794469974439E0));
#177=DIRECTION('',(-1.E0,0.E0,0.E0));
#178=DIRECTION('',(0.E0,0.E0,1.E0));
#179=AXIS2_PLACEMENT_3D('',#176,#177,#178);
#181=CURVE_STYLE('',#22,POSITIVE_LENGTH_MEASURE(2.E-2),#3);
#182=PRESENTATION_STYLE_ASSIGNMENT((#181));
#183=STYLED_ITEM('',(#182),#180);
#184=CARTESIAN_POINT('',(9.375E-2,3.332693010178E0,3.794469974439E0));
#185=DIRECTION('',(-1.E0,0.E0,0.E0));
#186=DIRECTION('',(0.E0,0.E0,-1.E0));
#187=AXIS2_PLACEMENT_3D('',#184,#185,#186);
#189=CURVE_STYLE('',#22,POSITIVE_LENGTH_MEASURE(2.E-2),#3);
#190=PRESENTATION_STYLE_ASSIGNMENT((#189));
#191=STYLED_ITEM('',(#190),#188);
#192=DIRECTION('',(1.E0,0.E0,0.E0));
#193=VECTOR('',#192,9.375E-2);
#194=CARTESIAN_POINT('',(0.E0,3.617693010178E0,3.556469974439E0));
#195=LINE('',#194,#193);
#196=CURVE_STYLE('',#22,POSITIVE_LENGTH_MEASURE(2.E-2),#3);
#197=PRESENTATION_STYLE_ASSIGNMENT((#196));
#198=STYLED_ITEM('',(#197),#195);
#199=DIRECTION('',(1.E0,0.E0,0.E0));
#200=VECTOR('',#199,9.375E-2);
#201=CARTESIAN_POINT('',(0.E0,3.617693010178E0,3.462469974439E0));
#202=LINE('',#201,#200);
#203=CURVE_STYLE('',#22,POSITIVE_LENGTH_MEASURE(2.E-2),#3);
#204=PRESENTATION_STYLE_ASSIGNMENT((#203));
#205=STYLED_ITEM('',(#204),#202);
#206=DIRECTION('',(1.E0,0.E0,0.E0));
#207=VECTOR('',#206,9.375E-2);
#208=CARTESIAN_POINT('',(0.E0,3.617693010178E0,4.126469974439E0));
#209=LINE('',#208,#207);
#210=CURVE_STYLE('',#22,POSITIVE_LENGTH_MEASURE(2.E-2),#3);
#211=PRESENTATION_STYLE_ASSIGNMENT((#210));
#212=STYLED_ITEM('',(#211),#209);
#213=DIRECTION('',(1.E0,0.E0,0.E0));
#214=VECTOR('',#213,9.375E-2);
#215=CARTESIAN_POINT('',(0.E0,3.617693010178E0,4.032469974439E0));
#216=LINE('',#215,#214);
#217=CURVE_STYLE('',#22,POSITIVE_LENGTH_MEASURE(2.E-2),#3);
#218=PRESENTATION_STYLE_ASSIGNMENT((#217));
#219=STYLED_ITEM('',(#218),#216);
#220=DIRECTION('',(1.E0,0.E0,0.E0));
#221=VECTOR('',#220,9.375E-2);
#222=CARTESIAN_POINT('',(0.E0,3.902693010178E0,3.841469974439E0));
#223=LINE('',#222,#221);
#224=CURVE_STYLE('',#22,POSITIVE_LENGTH_MEASURE(2.E-2),#3);
#225=PRESENTATION_STYLE_ASSIGNMENT((#224));
#226=STYLED_ITEM('',(#225),#223);
#227=DIRECTION('',(1.E0,0.E0,0.E0));
#228=VECTOR('',#227,9.375E-2);
#229=CARTESIAN_POINT('',(0.E0,3.902693010178E0,3.747469974439E0));
#230=LINE('',#229,#228);
#231=CURVE_STYLE('',#22,POSITIVE_LENGTH_MEASURE(2.E-2),#3);
#232=PRESENTATION_STYLE_ASSIGNMENT((#231));
#233=STYLED_ITEM('',(#232),#230);
#234=DIRECTION('',(1.E0,0.E0,0.E0));
#235=VECTOR('',#234,9.375E-2);
#236=CARTESIAN_POINT('',(0.E0,3.332693010178E0,3.841469974439E0));
#237=LINE('',#236,#235);
#238=CURVE_STYLE('',#22,POSITIVE_LENGTH_MEASURE(2.E-2),#3);
#239=PRESENTATION_STYLE_ASSIGNMENT((#238));
#240=STYLED_ITEM('',(#239),#237);
#241=DIRECTION('',(1.E0,0.E0,0.E0));
#242=VECTOR('',#241,9.375E-2);
#243=CARTESIAN_POINT('',(0.E0,3.332693010178E0,3.747469974439E0));
#244=LINE('',#243,#242);
#245=CURVE_STYLE('',#22,POSITIVE_LENGTH_MEASURE(2.E-2),#3);
#246=PRESENTATION_STYLE_ASSIGNMENT((#245));
#247=STYLED_ITEM('',(#246),#244);
#248=CARTESIAN_POINT('',(0.E0,3.617693010178E0,4.621219974439E0));
#249=CARTESIAN_POINT('',(0.E0,3.617693010178E0,2.967719974439E0));
#250=VERTEX_POINT('',#248);
#251=VERTEX_POINT('',#249);
#252=CARTESIAN_POINT('',(9.375E-2,3.617693010178E0,4.621219974439E0));
#253=CARTESIAN_POINT('',(9.375E-2,3.617693010178E0,2.967719974439E0));
#254=VERTEX_POINT('',#252);
#255=VERTEX_POINT('',#253);
#256=CARTESIAN_POINT('',(0.E0,3.617693010178E0,3.556469974439E0));
#257=CARTESIAN_POINT('',(0.E0,3.617693010178E0,3.462469974439E0));
#258=VERTEX_POINT('',#256);
#259=VERTEX_POINT('',#257);
#260=CARTESIAN_POINT('',(0.E0,3.617693010178E0,4.126469974439E0));
#261=CARTESIAN_POINT('',(0.E0,3.617693010178E0,4.032469974439E0));
#262=VERTEX_POINT('',#260);
#263=VERTEX_POINT('',#261);
#264=CARTESIAN_POINT('',(0.E0,3.902693010178E0,3.841469974439E0));
#265=CARTESIAN_POINT('',(0.E0,3.902693010178E0,3.747469974439E0));
#266=VERTEX_POINT('',#264);
#267=VERTEX_POINT('',#265);
#268=CARTESIAN_POINT('',(0.E0,3.332693010178E0,3.841469974439E0));
#269=CARTESIAN_POINT('',(0.E0,3.332693010178E0,3.747469974439E0));
#270=VERTEX_POINT('',#268);
#271=VERTEX_POINT('',#269);
#272=CARTESIAN_POINT('',(9.375E-2,3.617693010178E0,3.556469974439E0));
#273=VERTEX_POINT('',#272);
#274=CARTESIAN_POINT('',(9.375E-2,3.617693010178E0,3.462469974439E0));
#275=VERTEX_POINT('',#274);
#276=CARTESIAN_POINT('',(9.375E-2,3.617693010178E0,4.126469974439E0));
#277=VERTEX_POINT('',#276);
#278=CARTESIAN_POINT('',(9.375E-2,3.617693010178E0,4.032469974439E0));
#279=VERTEX_POINT('',#278);
#280=CARTESIAN_POINT('',(9.375E-2,3.902693010178E0,3.841469974439E0));
#281=VERTEX_POINT('',#280);
#282=CARTESIAN_POINT('',(9.375E-2,3.902693010178E0,3.747469974439E0));
#283=VERTEX_POINT('',#282);
#284=CARTESIAN_POINT('',(9.375E-2,3.332693010178E0,3.841469974439E0));
#285=VERTEX_POINT('',#284);
#286=CARTESIAN_POINT('',(9.375E-2,3.332693010178E0,3.747469974439E0));
#287=VERTEX_POINT('',#286);
#288=CARTESIAN_POINT('',(0.E0,0.E0,0.E0));
#289=DIRECTION('',(-1.E0,0.E0,0.E0));
#290=DIRECTION('',(0.E0,0.E0,1.E0));
#291=AXIS2_PLACEMENT_3D('',#288,#289,#290);
#292=PLANE('',#291);
#294=ORIENTED_EDGE('',*,*,#293,.F.);
#296=ORIENTED_EDGE('',*,*,#295,.F.);
#297=EDGE_LOOP('',(#294,#296));
#298=FACE_OUTER_BOUND('',#297,.F.);
#300=ORIENTED_EDGE('',*,*,#299,.T.);
#302=ORIENTED_EDGE('',*,*,#301,.T.);
#303=EDGE_LOOP('',(#300,#302));
#304=FACE_BOUND('',#303,.F.);
#306=ORIENTED_EDGE('',*,*,#305,.T.);
#308=ORIENTED_EDGE('',*,*,#307,.T.);
#309=EDGE_LOOP('',(#306,#308));
#310=FACE_BOUND('',#309,.F.);
#312=ORIENTED_EDGE('',*,*,#311,.T.);
#314=ORIENTED_EDGE('',*,*,#313,.T.);
#315=EDGE_LOOP('',(#312,#314));
#316=FACE_BOUND('',#315,.F.);
#318=ORIENTED_EDGE('',*,*,#317,.T.);
#320=ORIENTED_EDGE('',*,*,#319,.T.);
#321=EDGE_LOOP('',(#318,#320));
#322=FACE_BOUND('',#321,.F.);
#324=CARTESIAN_POINT('',(0.E0,3.617693010178E0,3.794469974439E0));
#325=DIRECTION('',(-1.E0,0.E0,0.E0));
#326=DIRECTION('',(0.E0,0.E0,1.E0));
#327=AXIS2_PLACEMENT_3D('',#324,#325,#326);
#328=CYLINDRICAL_SURFACE('',#327,8.2675E-1);
#329=ORIENTED_EDGE('',*,*,#293,.T.);
#331=ORIENTED_EDGE('',*,*,#330,.T.);
#333=ORIENTED_EDGE('',*,*,#332,.F.);
#335=ORIENTED_EDGE('',*,*,#334,.F.);
#336=EDGE_LOOP('',(#329,#331,#333,#335));
#337=FACE_OUTER_BOUND('',#336,.F.);
#339=CARTESIAN_POINT('',(0.E0,3.617693010178E0,3.794469974439E0));
#340=DIRECTION('',(-1.E0,0.E0,0.E0));
#341=DIRECTION('',(0.E0,0.E0,1.E0));
#342=AXIS2_PLACEMENT_3D('',#339,#340,#341);
#343=CYLINDRICAL_SURFACE('',#342,8.2675E-1);
#344=ORIENTED_EDGE('',*,*,#295,.T.);
#345=ORIENTED_EDGE('',*,*,#334,.T.);
#347=ORIENTED_EDGE('',*,*,#346,.F.);
#348=ORIENTED_EDGE('',*,*,#330,.F.);
#349=EDGE_LOOP('',(#344,#345,#347,#348));
#350=FACE_OUTER_BOUND('',#349,.F.);
#352=CARTESIAN_POINT('',(9.375E-2,0.E0,0.E0));
#353=DIRECTION('',(-1.E0,0.E0,0.E0));
#354=DIRECTION('',(0.E0,0.E0,1.E0));
#355=AXIS2_PLACEMENT_3D('',#352,#353,#354);
#356=PLANE('',#355);
#357=ORIENTED_EDGE('',*,*,#332,.T.);
#358=ORIENTED_EDGE('',*,*,#346,.T.);
#359=EDGE_LOOP('',(#357,#358));
#360=FACE_OUTER_BOUND('',#359,.F.);
#362=ORIENTED_EDGE('',*,*,#361,.F.);
#364=ORIENTED_EDGE('',*,*,#363,.F.);
#365=EDGE_LOOP('',(#362,#364));
#366=FACE_BOUND('',#365,.F.);
#368=ORIENTED_EDGE('',*,*,#367,.F.);
#370=ORIENTED_EDGE('',*,*,#369,.F.);
#371=EDGE_LOOP('',(#368,#370));
#372=FACE_BOUND('',#371,.F.);
#374=ORIENTED_EDGE('',*,*,#373,.F.);
#376=ORIENTED_EDGE('',*,*,#375,.F.);
#377=EDGE_LOOP('',(#374,#376));
#378=FACE_BOUND('',#377,.F.);
#380=ORIENTED_EDGE('',*,*,#379,.F.);
#382=ORIENTED_EDGE('',*,*,#381,.F.);
#383=EDGE_LOOP('',(#380,#382));
#384=FACE_BOUND('',#383,.F.);
#386=CARTESIAN_POINT('',(0.E0,3.617693010178E0,3.509469974439E0));
#387=DIRECTION('',(-1.E0,0.E0,0.E0));
#388=DIRECTION('',(0.E0,0.E0,1.E0));
#389=AXIS2_PLACEMENT_3D('',#386,#387,#388);
#390=CYLINDRICAL_SURFACE('',#389,4.7E-2);
#391=ORIENTED_EDGE('',*,*,#299,.F.);
#393=ORIENTED_EDGE('',*,*,#392,.T.);
#394=ORIENTED_EDGE('',*,*,#361,.T.);
#396=ORIENTED_EDGE('',*,*,#395,.F.);
#397=EDGE_LOOP('',(#391,#393,#394,#396));
#398=FACE_OUTER_BOUND('',#397,.F.);
#400=CARTESIAN_POINT('',(0.E0,3.617693010178E0,3.509469974439E0));
#401=DIRECTION('',(-1.E0,0.E0,0.E0));
#402=DIRECTION('',(0.E0,0.E0,1.E0));
#403=AXIS2_PLACEMENT_3D('',#400,#401,#402);
#404=CYLINDRICAL_SURFACE('',#403,4.7E-2);
#405=ORIENTED_EDGE('',*,*,#301,.F.);
#406=ORIENTED_EDGE('',*,*,#395,.T.);
#407=ORIENTED_EDGE('',*,*,#363,.T.);
#408=ORIENTED_EDGE('',*,*,#392,.F.);
#409=EDGE_LOOP('',(#405,#406,#407,#408));
#410=FACE_OUTER_BOUND('',#409,.F.);
#412=CARTESIAN_POINT('',(0.E0,3.617693010178E0,4.079469974439E0));
#413=DIRECTION('',(-1.E0,0.E0,0.E0));
#414=DIRECTION('',(0.E0,0.E0,1.E0));
#415=AXIS2_PLACEMENT_3D('',#412,#413,#414);
#416=CYLINDRICAL_SURFACE('',#415,4.7E-2);
#417=ORIENTED_EDGE('',*,*,#305,.F.);
#419=ORIENTED_EDGE('',*,*,#418,.T.);
#420=ORIENTED_EDGE('',*,*,#367,.T.);
#422=ORIENTED_EDGE('',*,*,#421,.F.);
#423=EDGE_LOOP('',(#417,#419,#420,#422));
#424=FACE_OUTER_BOUND('',#423,.F.);
#426=CARTESIAN_POINT('',(0.E0,3.617693010178E0,4.079469974439E0));
#427=DIRECTION('',(-1.E0,0.E0,0.E0));
#428=DIRECTION('',(0.E0,0.E0,1.E0));
#429=AXIS2_PLACEMENT_3D('',#426,#427,#428);
#430=CYLINDRICAL_SURFACE('',#429,4.7E-2);
#431=ORIENTED_EDGE('',*,*,#307,.F.);
#432=ORIENTED_EDGE('',*,*,#421,.T.);
#433=ORIENTED_EDGE('',*,*,#369,.T.);
#434=ORIENTED_EDGE('',*,*,#418,.F.);
#435=EDGE_LOOP('',(#431,#432,#433,#434));
#436=FACE_OUTER_BOUND('',#435,.F.);
#438=CARTESIAN_POINT('',(0.E0,3.902693010178E0,3.794469974439E0));
#439=DIRECTION('',(-1.E0,0.E0,0.E0));
#440=DIRECTION('',(0.E0,0.E0,1.E0));
#441=AXIS2_PLACEMENT_3D('',#438,#439,#440);
#442=CYLINDRICAL_SURFACE('',#441,4.7E-2);
#443=ORIENTED_EDGE('',*,*,#311,.F.);
#445=ORIENTED_EDGE('',*,*,#444,.T.);
#446=ORIENTED_EDGE('',*,*,#373,.T.);
#448=ORIENTED_EDGE('',*,*,#447,.F.);
#449=EDGE_LOOP('',(#443,#445,#446,#448));
#450=FACE_OUTER_BOUND('',#449,.F.);
#452=CARTESIAN_POINT('',(0.E0,3.902693010178E0,3.794469974439E0));
#453=DIRECTION('',(-1.E0,0.E0,0.E0));
#454=DIRECTION('',(0.E0,0.E0,1.E0));
#455=AXIS2_PLACEMENT_3D('',#452,#453,#454);
#456=CYLINDRICAL_SURFACE('',#455,4.7E-2);
#457=ORIENTED_EDGE('',*,*,#313,.F.);
#458=ORIENTED_EDGE('',*,*,#447,.T.);
#459=ORIENTED_EDGE('',*,*,#375,.T.);
#460=ORIENTED_EDGE('',*,*,#444,.F.);
#461=EDGE_LOOP('',(#457,#458,#459,#460));
#462=FACE_OUTER_BOUND('',#461,.F.);
#464=CARTESIAN_POINT('',(0.E0,3.332693010178E0,3.794469974439E0));
#465=DIRECTION('',(-1.E0,0.E0,0.E0));
#466=DIRECTION('',(0.E0,0.E0,1.E0));
#467=AXIS2_PLACEMENT_3D('',#464,#465,#466);
#468=CYLINDRICAL_SURFACE('',#467,4.7E-2);
#469=ORIENTED_EDGE('',*,*,#317,.F.);
#471=ORIENTED_EDGE('',*,*,#470,.T.);
#472=ORIENTED_EDGE('',*,*,#379,.T.);
#474=ORIENTED_EDGE('',*,*,#473,.F.);
#475=EDGE_LOOP('',(#469,#471,#472,#474));
#476=FACE_OUTER_BOUND('',#475,.F.);
#478=CARTESIAN_POINT('',(0.E0,3.332693010178E0,3.794469974439E0));
#479=DIRECTION('',(-1.E0,0.E0,0.E0));
#480=DIRECTION('',(0.E0,0.E0,1.E0));
#481=AXIS2_PLACEMENT_3D('',#478,#479,#480);
#482=CYLINDRICAL_SURFACE('',#481,4.7E-2);
#483=ORIENTED_EDGE('',*,*,#319,.F.);
#484=ORIENTED_EDGE('',*,*,#473,.T.);
#485=ORIENTED_EDGE('',*,*,#381,.T.);
#486=ORIENTED_EDGE('',*,*,#470,.F.);
#487=EDGE_LOOP('',(#483,#484,#485,#486));
#488=FACE_OUTER_BOUND('',#487,.F.);
#492=FILL_AREA_STYLE_COLOUR('',#3);
#493=FILL_AREA_STYLE('',(#492));
#494=SURFACE_STYLE_FILL_AREA(#493);
#495=SURFACE_SIDE_STYLE('',(#494));
#496=SURFACE_STYLE_USAGE(.BOTH.,#495);
#497=PRESENTATION_STYLE_ASSIGNMENT((#496));
#16=STYLED_ITEM('',(#497),#491);
#499=LENGTH_MEASURE_WITH_UNIT(LENGTH_MEASURE(2.54E1),#498);
#500=(CONVERSION_BASED_UNIT('INCH',#499)LENGTH_UNIT()NAMED_UNIT(*));
#502=PLANE_ANGLE_MEASURE_WITH_UNIT(PLANE_ANGLE_MEASURE(1.745329251994E-2),#501);
#503=(CONVERSION_BASED_UNIT('DEGREE',#502)NAMED_UNIT(*)PLANE_ANGLE_UNIT());
#505=UNCERTAINTY_MEASURE_WITH_UNIT(LENGTH_MEASURE(2.341149421881E-4),#500,
'closure',
'Maximum model space distance between geometric entities at asserted connectivities');
#507=CARTESIAN_POINT('',(0.E0,0.E0,0.E0));
#508=DIRECTION('',(0.E0,0.E0,1.E0));
#509=DIRECTION('',(1.E0,0.E0,0.E0));
#512=MECHANICAL_DESIGN_GEOMETRIC_PRESENTATION_REPRESENTATION('',(#25,#33,#41,
#49,#57,#65,#73,#81,#89,#97,#104,#111,#119,#127,#135,#143,#151,#159,#167,#175,
#183,#191,#198,#205,#212,#219,#226,#233,#240,#247,#16),#506);
#513=APPLICATION_CONTEXT('automotive design');
#514=APPLICATION_PROTOCOL_DEFINITION('international standard',
'config_control_design',1994,#513);
#515=PRODUCT_DEFINITION_CONTEXT('',#513,'design');
#516=PRODUCT_CONTEXT('',#513,'mechanical');
#517=PRODUCT('JOINT_PLATE','JOINT_PLATE','NOT SPECIFIED',(#516));
#518=PRODUCT_DEFINITION_FORMATION_WITH_SPECIFIED_SOURCE('1','LAST_VERSION',#517,
.MADE.);
#526=LENGTH_MEASURE_WITH_UNIT(LENGTH_MEASURE(2.54E1),#525);
#527=(CONVERSION_BASED_UNIT('INCH',#526)LENGTH_UNIT()NAMED_UNIT(*));
#528=DERIVED_UNIT_ELEMENT(#527,2.E0);
#529=AREA_UNIT((#528));
#530=MEASURE_REPRESENTATION_ITEM('surface area measure',AREA_MEASURE(
4.836873803885E0),#529);
#535=LENGTH_MEASURE_WITH_UNIT(LENGTH_MEASURE(2.54E1),#534);
#536=(CONVERSION_BASED_UNIT('INCH',#535)LENGTH_UNIT()NAMED_UNIT(*));
#537=DERIVED_UNIT_ELEMENT(#536,3.E0);
#538=VOLUME_UNIT((#537));
#539=MEASURE_REPRESENTATION_ITEM('volume measure',VOLUME_MEASURE(
1.987095334760E-1),#538);
#543=CARTESIAN_POINT('centre point',(4.6875E-2,3.617693010178E0,
3.794469974439E0));
#548=LENGTH_MEASURE_WITH_UNIT(LENGTH_MEASURE(2.54E1),#547);
#549=(CONVERSION_BASED_UNIT('INCH',#548)LENGTH_UNIT()NAMED_UNIT(*));
#550=DERIVED_UNIT_ELEMENT(#549,2.E0);
#551=AREA_UNIT((#550));
#552=MEASURE_REPRESENTATION_ITEM('surface area measure',AREA_MEASURE(
4.836873803885E0),#551);
#557=LENGTH_MEASURE_WITH_UNIT(LENGTH_MEASURE(2.54E1),#556);
#558=(CONVERSION_BASED_UNIT('INCH',#557)LENGTH_UNIT()NAMED_UNIT(*));
#559=DERIVED_UNIT_ELEMENT(#558,3.E0);
#560=VOLUME_UNIT((#559));
#561=MEASURE_REPRESENTATION_ITEM('volume measure',VOLUME_MEASURE(
1.987095334760E-1),#560);
#565=CARTESIAN_POINT('centre point',(4.6875E-2,3.617693010178E0,
3.794469974439E0));
#1=DRAUGHTING_PRE_DEFINED_COLOUR('green');
#2=COLOUR_RGB('',1.1E-2,1.2E-2,1.E0);
#3=COLOUR_RGB('',2.352941176471E-1,2.352941176471E-1,2.352941176471E-1);
#4=COLOUR_RGB('',4.1E-1,2.61589E-1,1.12848E-1);
#5=COLOUR_RGB('',5.04854E-1,1.5455E-2,1.5455E-2);
#6=COLOUR_RGB('',6.35294E-1,6.86275E-1,7.4902E-1);
#7=COLOUR_RGB('',6.40777E-1,6.40777E-1,6.40777E-1);
#8=COLOUR_RGB('',6.69062E-1,6.69903E-1,6.55217E-1);
#9=COLOUR_RGB('',9.21569E-1,7.05882E-1,4.70588E-1);
#10=DRAUGHTING_PRE_DEFINED_COLOUR('red');
#11=COLOUR_RGB('',1.E0,0.E0,2.E-1);
#12=DRAUGHTING_PRE_DEFINED_COLOUR('yellow');
#13=COLOUR_RGB('',1.E0,1.E0,5.3E-1);
#14=COLOUR_RGB('',1.E0,1.E0,9.49E-1);
#15=DRAUGHTING_PRE_DEFINED_COLOUR('white');
#21=CIRCLE('',#20,8.2675E-1);
#30=CIRCLE('',#29,8.2675E-1);
#38=CIRCLE('',#37,4.7E-2);
#46=CIRCLE('',#45,4.7E-2);
#54=CIRCLE('',#53,4.7E-2);
#62=CIRCLE('',#61,4.7E-2);
#70=CIRCLE('',#69,4.7E-2);
#78=CIRCLE('',#77,4.7E-2);
#86=CIRCLE('',#85,4.7E-2);
#94=CIRCLE('',#93,4.7E-2);
#116=CIRCLE('',#115,8.2675E-1);
#124=CIRCLE('',#123,8.2675E-1);
#132=CIRCLE('',#131,4.7E-2);
#140=CIRCLE('',#139,4.7E-2);
#148=CIRCLE('',#147,4.7E-2);
#156=CIRCLE('',#155,4.7E-2);
#164=CIRCLE('',#163,4.7E-2);
#172=CIRCLE('',#171,4.7E-2);
#180=CIRCLE('',#179,4.7E-2);
#188=CIRCLE('',#187,4.7E-2);
#293=EDGE_CURVE('',#250,#251,#21,.T.);
#295=EDGE_CURVE('',#251,#250,#30,.T.);
#299=EDGE_CURVE('',#258,#259,#38,.T.);
#301=EDGE_CURVE('',#259,#258,#46,.T.);
#305=EDGE_CURVE('',#262,#263,#54,.T.);
#307=EDGE_CURVE('',#263,#262,#62,.T.);
#311=EDGE_CURVE('',#266,#267,#70,.T.);
#313=EDGE_CURVE('',#267,#266,#78,.T.);
#317=EDGE_CURVE('',#270,#271,#86,.T.);
#319=EDGE_CURVE('',#271,#270,#94,.T.);
#323=ADVANCED_FACE('',(#298,#304,#310,#316,#322),#292,.T.);
#330=EDGE_CURVE('',#251,#255,#108,.T.);
#332=EDGE_CURVE('',#254,#255,#116,.T.);
#334=EDGE_CURVE('',#250,#254,#101,.T.);
#338=ADVANCED_FACE('',(#337),#328,.T.);
#346=EDGE_CURVE('',#255,#254,#124,.T.);
#351=ADVANCED_FACE('',(#350),#343,.T.);
#361=EDGE_CURVE('',#273,#275,#132,.T.);
#363=EDGE_CURVE('',#275,#273,#140,.T.);
#367=EDGE_CURVE('',#277,#279,#148,.T.);
#369=EDGE_CURVE('',#279,#277,#156,.T.);
#373=EDGE_CURVE('',#281,#283,#164,.T.);
#375=EDGE_CURVE('',#283,#281,#172,.T.);
#379=EDGE_CURVE('',#285,#287,#180,.T.);
#381=EDGE_CURVE('',#287,#285,#188,.T.);
#385=ADVANCED_FACE('',(#360,#366,#372,#378,#384),#356,.F.);
#392=EDGE_CURVE('',#258,#273,#195,.T.);
#395=EDGE_CURVE('',#259,#275,#202,.T.);
#399=ADVANCED_FACE('',(#398),#390,.F.);
#411=ADVANCED_FACE('',(#410),#404,.F.);
#418=EDGE_CURVE('',#262,#277,#209,.T.);
#421=EDGE_CURVE('',#263,#279,#216,.T.);
#425=ADVANCED_FACE('',(#424),#416,.F.);
#437=ADVANCED_FACE('',(#436),#430,.F.);
#444=EDGE_CURVE('',#266,#281,#223,.T.);
#447=EDGE_CURVE('',#267,#283,#230,.T.);
#451=ADVANCED_FACE('',(#450),#442,.F.);
#463=ADVANCED_FACE('',(#462),#456,.F.);
#470=EDGE_CURVE('',#270,#285,#237,.T.);
#473=EDGE_CURVE('',#271,#287,#244,.T.);
#477=ADVANCED_FACE('',(#476),#468,.F.);
#489=ADVANCED_FACE('',(#488),#482,.F.);
#490=CLOSED_SHELL('',(#323,#338,#351,#385,#399,#411,#425,#437,#451,#463,#477,
#489));
#491=MANIFOLD_SOLID_BREP('',#490);
#498=(LENGTH_UNIT()NAMED_UNIT(*)SI_UNIT(.MILLI.,.METRE.));
#501=(NAMED_UNIT(*)PLANE_ANGLE_UNIT()SI_UNIT($,.RADIAN.));
#504=(NAMED_UNIT(*)SI_UNIT($,.STERADIAN.)SOLID_ANGLE_UNIT());
#506=(GEOMETRIC_REPRESENTATION_CONTEXT(3)GLOBAL_UNCERTAINTY_ASSIGNED_CONTEXT((
#505))GLOBAL_UNIT_ASSIGNED_CONTEXT((#500,#503,#504))REPRESENTATION_CONTEXT
('ID1','3'));
#510=AXIS2_PLACEMENT_3D('',#507,#508,#509);
#511=ADVANCED_BREP_SHAPE_REPRESENTATION('',(#510,#491),#506);
#519=PRODUCT_DEFINITION('design','',#518,#515);
#520=PRODUCT_DEFINITION_SHAPE('','SHAPE FOR JOINT_PLATE.',#519);
#521=SHAPE_ASPECT('','solid data associated with JOINT_PLATE',#520,.F.);
#522=PROPERTY_DEFINITION('',
'shape for solid data with which properties are associated',#521);
#523=SHAPE_REPRESENTATION('',(#491),#506);
#524=SHAPE_DEFINITION_REPRESENTATION(#522,#523);
#525=(LENGTH_UNIT()NAMED_UNIT(*)SI_UNIT(.MILLI.,.METRE.));
#531=PROPERTY_DEFINITION('geometric validation property','area of JOINT_PLATE',
#521);
#532=REPRESENTATION('surface area',(#530),#506);
#533=PROPERTY_DEFINITION_REPRESENTATION(#531,#532);
#534=(LENGTH_UNIT()NAMED_UNIT(*)SI_UNIT(.MILLI.,.METRE.));
#540=PROPERTY_DEFINITION('geometric validation property',
'volume of JOINT_PLATE',#521);
#541=REPRESENTATION('volume',(#539),#506);
#542=PROPERTY_DEFINITION_REPRESENTATION(#540,#541);
#544=PROPERTY_DEFINITION('geometric validation property',
'centroid of JOINT_PLATE',#521);
#545=REPRESENTATION('centroid',(#543),#506);
#546=PROPERTY_DEFINITION_REPRESENTATION(#544,#545);
#547=(LENGTH_UNIT()NAMED_UNIT(*)SI_UNIT(.MILLI.,.METRE.));
#553=PROPERTY_DEFINITION('geometric validation property','area of JOINT_PLATE',
#520);
#554=REPRESENTATION('surface area',(#552),#506);
#555=PROPERTY_DEFINITION_REPRESENTATION(#553,#554);
#556=(LENGTH_UNIT()NAMED_UNIT(*)SI_UNIT(.MILLI.,.METRE.));
#562=PROPERTY_DEFINITION('geometric validation property',
'volume of JOINT_PLATE',#520);
#563=REPRESENTATION('volume',(#561),#506);
#564=PROPERTY_DEFINITION_REPRESENTATION(#562,#563);
#566=PROPERTY_DEFINITION('geometric validation property',
'centroid of JOINT_PLATE',#520);
#567=REPRESENTATION('centroid',(#565),#506);
#568=PROPERTY_DEFINITION_REPRESENTATION(#566,#567);
#569=SHAPE_DEFINITION_REPRESENTATION(#520,#511);
ENDSEC;
END-ISO-10303-21;
