ISO-10303-21;
HEADER;
FILE_DESCRIPTION((''),'2;1');
FILE_NAME('LENSE_FRAME','2026-06-15T13:45:17',('Esia'),(''),
'CREO PARAMETRIC BY PTC INC, 2025102','CREO PARAMETRIC BY PTC INC, 2025102','');
FILE_SCHEMA((
'AP242_MANAGED_MODEL_BASED_3D_ENGINEERING_MIM_LF { 1 0 10303 442 1 1 4 }'));
ENDSEC;
DATA;
#17=DIRECTION('',(0.E0,0.E0,-1.E0));
#18=VECTOR('',#17,1.968503937008E-1);
#19=CARTESIAN_POINT('',(4.744094488189E-1,6.318897637795E-1,9.468503937008E-1));
#20=LINE('',#19,#18);
#21=DRAUGHTING_PRE_DEFINED_CURVE_FONT('continuous');
#22=CURVE_STYLE('',#21,POSITIVE_LENGTH_MEASURE(2.E-2),#3);
#23=PRESENTATION_STYLE_ASSIGNMENT((#22));
#24=STYLED_ITEM('',(#23),#20);
#25=DIRECTION('',(0.E0,0.E0,1.E0));
#26=VECTOR('',#25,1.968503937008E-1);
#27=CARTESIAN_POINT('',(7.893700787402E-1,6.318897637795E-1,7.5E-1));
#28=LINE('',#27,#26);
#29=CURVE_STYLE('',#21,POSITIVE_LENGTH_MEASURE(2.E-2),#3);
#30=PRESENTATION_STYLE_ASSIGNMENT((#29));
#31=STYLED_ITEM('',(#30),#28);
#32=CARTESIAN_POINT('',(6.318897637795E-1,6.318897637795E-1,9.468503937008E-1));
#33=DIRECTION('',(0.E0,0.E0,1.E0));
#34=DIRECTION('',(1.E0,0.E0,0.E0));
#35=AXIS2_PLACEMENT_3D('',#32,#33,#34);
#37=CURVE_STYLE('',#21,POSITIVE_LENGTH_MEASURE(2.E-2),#3);
#38=PRESENTATION_STYLE_ASSIGNMENT((#37));
#39=STYLED_ITEM('',(#38),#36);
#40=CARTESIAN_POINT('',(6.318897637795E-1,6.318897637795E-1,9.468503937008E-1));
#41=DIRECTION('',(0.E0,0.E0,1.E0));
#42=DIRECTION('',(-1.E0,0.E0,0.E0));
#43=AXIS2_PLACEMENT_3D('',#40,#41,#42);
#45=CURVE_STYLE('',#21,POSITIVE_LENGTH_MEASURE(2.E-2),#3);
#46=PRESENTATION_STYLE_ASSIGNMENT((#45));
#47=STYLED_ITEM('',(#46),#44);
#48=CARTESIAN_POINT('',(6.318897637795E-1,6.318897637795E-1,9.468503937008E-1));
#49=DIRECTION('',(0.E0,0.E0,-1.E0));
#50=DIRECTION('',(1.E0,0.E0,0.E0));
#51=AXIS2_PLACEMENT_3D('',#48,#49,#50);
#53=CURVE_STYLE('',#21,POSITIVE_LENGTH_MEASURE(2.E-2),#3);
#54=PRESENTATION_STYLE_ASSIGNMENT((#53));
#55=STYLED_ITEM('',(#54),#52);
#56=CARTESIAN_POINT('',(6.318897637795E-1,6.318897637795E-1,9.468503937008E-1));
#57=DIRECTION('',(0.E0,0.E0,-1.E0));
#58=DIRECTION('',(-1.E0,0.E0,0.E0));
#59=AXIS2_PLACEMENT_3D('',#56,#57,#58);
#61=CURVE_STYLE('',#21,POSITIVE_LENGTH_MEASURE(2.E-2),#3);
#62=PRESENTATION_STYLE_ASSIGNMENT((#61));
#63=STYLED_ITEM('',(#62),#60);
#64=DIRECTION('',(0.E0,0.E0,1.E0));
#65=VECTOR('',#64,9.842519685039E-2);
#66=CARTESIAN_POINT('',(2.667322834646E-1,6.318897637795E-1,8.484251968504E-1));
#67=LINE('',#66,#65);
#68=CURVE_STYLE('',#21,POSITIVE_LENGTH_MEASURE(2.E-2),#3);
#69=PRESENTATION_STYLE_ASSIGNMENT((#68));
#70=STYLED_ITEM('',(#69),#67);
#71=DIRECTION('',(0.E0,0.E0,1.E0));
#72=VECTOR('',#71,9.842519685039E-2);
#73=CARTESIAN_POINT('',(9.970472440945E-1,6.318897637795E-1,8.484251968504E-1));
#74=LINE('',#73,#72);
#75=CURVE_STYLE('',#21,POSITIVE_LENGTH_MEASURE(2.E-2),#3);
#76=PRESENTATION_STYLE_ASSIGNMENT((#75));
#77=STYLED_ITEM('',(#76),#74);
#78=CARTESIAN_POINT('',(6.318897637795E-1,6.318897637795E-1,8.484251968504E-1));
#79=DIRECTION('',(0.E0,0.E0,1.E0));
#80=DIRECTION('',(1.E0,0.E0,0.E0));
#81=AXIS2_PLACEMENT_3D('',#78,#79,#80);
#83=CURVE_STYLE('',#21,POSITIVE_LENGTH_MEASURE(2.E-2),#3);
#84=PRESENTATION_STYLE_ASSIGNMENT((#83));
#85=STYLED_ITEM('',(#84),#82);
#86=CARTESIAN_POINT('',(6.318897637795E-1,6.318897637795E-1,8.484251968504E-1));
#87=DIRECTION('',(0.E0,0.E0,1.E0));
#88=DIRECTION('',(-1.E0,0.E0,0.E0));
#89=AXIS2_PLACEMENT_3D('',#86,#87,#88);
#91=CURVE_STYLE('',#21,POSITIVE_LENGTH_MEASURE(2.E-2),#3);
#92=PRESENTATION_STYLE_ASSIGNMENT((#91));
#93=STYLED_ITEM('',(#92),#90);
#94=CARTESIAN_POINT('',(6.318897637795E-1,6.318897637795E-1,8.484251968504E-1));
#95=DIRECTION('',(0.E0,0.E0,-1.E0));
#96=DIRECTION('',(1.E0,0.E0,0.E0));
#97=AXIS2_PLACEMENT_3D('',#94,#95,#96);
#99=CURVE_STYLE('',#21,POSITIVE_LENGTH_MEASURE(2.E-2),#3);
#100=PRESENTATION_STYLE_ASSIGNMENT((#99));
#101=STYLED_ITEM('',(#100),#98);
#102=CARTESIAN_POINT('',(6.318897637795E-1,6.318897637795E-1,
8.484251968504E-1));
#103=DIRECTION('',(0.E0,0.E0,-1.E0));
#104=DIRECTION('',(-1.E0,0.E0,0.E0));
#105=AXIS2_PLACEMENT_3D('',#102,#103,#104);
#107=CURVE_STYLE('',#21,POSITIVE_LENGTH_MEASURE(2.E-2),#3);
#108=PRESENTATION_STYLE_ASSIGNMENT((#107));
#109=STYLED_ITEM('',(#108),#106);
#110=DIRECTION('',(0.E0,0.E0,1.E0));
#111=VECTOR('',#110,9.842519685039E-2);
#112=CARTESIAN_POINT('',(2.086614173228E-1,6.318897637795E-1,7.5E-1));
#113=LINE('',#112,#111);
#114=CURVE_STYLE('',#21,POSITIVE_LENGTH_MEASURE(2.E-2),#3);
#115=PRESENTATION_STYLE_ASSIGNMENT((#114));
#116=STYLED_ITEM('',(#115),#113);
#117=DIRECTION('',(0.E0,0.E0,1.E0));
#118=VECTOR('',#117,9.842519685039E-2);
#119=CARTESIAN_POINT('',(1.055118110236E0,6.318897637795E-1,7.5E-1));
#120=LINE('',#119,#118);
#121=CURVE_STYLE('',#21,POSITIVE_LENGTH_MEASURE(2.E-2),#3);
#122=PRESENTATION_STYLE_ASSIGNMENT((#121));
#123=STYLED_ITEM('',(#122),#120);
#124=CARTESIAN_POINT('',(6.318897637795E-1,6.318897637795E-1,7.5E-1));
#125=DIRECTION('',(0.E0,0.E0,-1.E0));
#126=DIRECTION('',(-1.E0,0.E0,0.E0));
#127=AXIS2_PLACEMENT_3D('',#124,#125,#126);
#129=CURVE_STYLE('',#21,POSITIVE_LENGTH_MEASURE(2.E-2),#3);
#130=PRESENTATION_STYLE_ASSIGNMENT((#129));
#131=STYLED_ITEM('',(#130),#128);
#132=CARTESIAN_POINT('',(6.318897637795E-1,6.318897637795E-1,7.5E-1));
#133=DIRECTION('',(0.E0,0.E0,-1.E0));
#134=DIRECTION('',(1.E0,0.E0,0.E0));
#135=AXIS2_PLACEMENT_3D('',#132,#133,#134);
#137=CURVE_STYLE('',#21,POSITIVE_LENGTH_MEASURE(2.E-2),#3);
#138=PRESENTATION_STYLE_ASSIGNMENT((#137));
#139=STYLED_ITEM('',(#138),#136);
#140=CARTESIAN_POINT('',(6.318897637795E-1,6.318897637795E-1,7.5E-1));
#141=DIRECTION('',(0.E0,0.E0,1.E0));
#142=DIRECTION('',(1.E0,0.E0,0.E0));
#143=AXIS2_PLACEMENT_3D('',#140,#141,#142);
#145=CURVE_STYLE('',#21,POSITIVE_LENGTH_MEASURE(2.E-2),#3);
#146=PRESENTATION_STYLE_ASSIGNMENT((#145));
#147=STYLED_ITEM('',(#146),#144);
#148=CARTESIAN_POINT('',(6.318897637795E-1,6.318897637795E-1,7.5E-1));
#149=DIRECTION('',(0.E0,0.E0,1.E0));
#150=DIRECTION('',(-1.E0,0.E0,0.E0));
#151=AXIS2_PLACEMENT_3D('',#148,#149,#150);
#153=CURVE_STYLE('',#21,POSITIVE_LENGTH_MEASURE(2.E-2),#3);
#154=PRESENTATION_STYLE_ASSIGNMENT((#153));
#155=STYLED_ITEM('',(#154),#152);
#156=CARTESIAN_POINT('',(4.744094488189E-1,6.318897637795E-1,
9.468503937008E-1));
#157=CARTESIAN_POINT('',(4.744094488189E-1,6.318897637795E-1,7.5E-1));
#158=VERTEX_POINT('',#156);
#159=VERTEX_POINT('',#157);
#160=CARTESIAN_POINT('',(7.893700787402E-1,6.318897637795E-1,
9.468503937008E-1));
#161=VERTEX_POINT('',#160);
#162=CARTESIAN_POINT('',(7.893700787402E-1,6.318897637795E-1,7.5E-1));
#163=VERTEX_POINT('',#162);
#164=CARTESIAN_POINT('',(2.667322834646E-1,6.318897637795E-1,
8.484251968504E-1));
#165=CARTESIAN_POINT('',(2.667322834646E-1,6.318897637795E-1,
9.468503937008E-1));
#166=VERTEX_POINT('',#164);
#167=VERTEX_POINT('',#165);
#168=CARTESIAN_POINT('',(9.970472440945E-1,6.318897637795E-1,
9.468503937008E-1));
#169=VERTEX_POINT('',#168);
#170=CARTESIAN_POINT('',(9.970472440945E-1,6.318897637795E-1,
8.484251968504E-1));
#171=VERTEX_POINT('',#170);
#172=CARTESIAN_POINT('',(2.086614173228E-1,6.318897637795E-1,7.5E-1));
#173=CARTESIAN_POINT('',(2.086614173228E-1,6.318897637795E-1,
8.484251968504E-1));
#174=VERTEX_POINT('',#172);
#175=VERTEX_POINT('',#173);
#176=CARTESIAN_POINT('',(1.055118110236E0,6.318897637795E-1,8.484251968504E-1));
#177=VERTEX_POINT('',#176);
#178=CARTESIAN_POINT('',(1.055118110236E0,6.318897637795E-1,7.5E-1));
#179=VERTEX_POINT('',#178);
#180=CARTESIAN_POINT('',(6.318897637795E-1,6.318897637795E-1,
9.468503937008E-1));
#181=DIRECTION('',(0.E0,0.E0,-1.E0));
#182=DIRECTION('',(-1.E0,0.E0,0.E0));
#183=AXIS2_PLACEMENT_3D('',#180,#181,#182);
#184=CYLINDRICAL_SURFACE('',#183,1.574803149606E-1);
#186=ORIENTED_EDGE('',*,*,#185,.T.);
#188=ORIENTED_EDGE('',*,*,#187,.T.);
#190=ORIENTED_EDGE('',*,*,#189,.T.);
#192=ORIENTED_EDGE('',*,*,#191,.T.);
#193=EDGE_LOOP('',(#186,#188,#190,#192));
#194=FACE_OUTER_BOUND('',#193,.F.);
#196=CARTESIAN_POINT('',(6.318897637795E-1,6.318897637795E-1,
9.468503937008E-1));
#197=DIRECTION('',(0.E0,0.E0,-1.E0));
#198=DIRECTION('',(-1.E0,0.E0,0.E0));
#199=AXIS2_PLACEMENT_3D('',#196,#197,#198);
#200=CYLINDRICAL_SURFACE('',#199,1.574803149606E-1);
#201=ORIENTED_EDGE('',*,*,#185,.F.);
#203=ORIENTED_EDGE('',*,*,#202,.T.);
#204=ORIENTED_EDGE('',*,*,#189,.F.);
#206=ORIENTED_EDGE('',*,*,#205,.T.);
#207=EDGE_LOOP('',(#201,#203,#204,#206));
#208=FACE_OUTER_BOUND('',#207,.F.);
#210=CARTESIAN_POINT('',(6.318897637795E-1,6.318897637795E-1,
9.468503937008E-1));
#211=DIRECTION('',(0.E0,0.E0,1.E0));
#212=DIRECTION('',(-1.E0,0.E0,0.E0));
#213=AXIS2_PLACEMENT_3D('',#210,#211,#212);
#214=PLANE('',#213);
#216=ORIENTED_EDGE('',*,*,#215,.F.);
#218=ORIENTED_EDGE('',*,*,#217,.F.);
#219=EDGE_LOOP('',(#216,#218));
#220=FACE_OUTER_BOUND('',#219,.F.);
#221=ORIENTED_EDGE('',*,*,#191,.F.);
#222=ORIENTED_EDGE('',*,*,#202,.F.);
#223=EDGE_LOOP('',(#221,#222));
#224=FACE_BOUND('',#223,.F.);
#226=CARTESIAN_POINT('',(6.318897637795E-1,6.318897637795E-1,
8.484251968504E-1));
#227=DIRECTION('',(0.E0,0.E0,1.E0));
#228=DIRECTION('',(-1.E0,0.E0,0.E0));
#229=AXIS2_PLACEMENT_3D('',#226,#227,#228);
#230=CYLINDRICAL_SURFACE('',#229,3.651574803150E-1);
#232=ORIENTED_EDGE('',*,*,#231,.F.);
#234=ORIENTED_EDGE('',*,*,#233,.T.);
#236=ORIENTED_EDGE('',*,*,#235,.T.);
#237=ORIENTED_EDGE('',*,*,#215,.T.);
#238=EDGE_LOOP('',(#232,#234,#236,#237));
#239=FACE_OUTER_BOUND('',#238,.F.);
#241=CARTESIAN_POINT('',(6.318897637795E-1,6.318897637795E-1,
8.484251968504E-1));
#242=DIRECTION('',(0.E0,0.E0,1.E0));
#243=DIRECTION('',(-1.E0,0.E0,0.E0));
#244=AXIS2_PLACEMENT_3D('',#241,#242,#243);
#245=CYLINDRICAL_SURFACE('',#244,3.651574803150E-1);
#246=ORIENTED_EDGE('',*,*,#231,.T.);
#247=ORIENTED_EDGE('',*,*,#217,.T.);
#248=ORIENTED_EDGE('',*,*,#235,.F.);
#250=ORIENTED_EDGE('',*,*,#249,.T.);
#251=EDGE_LOOP('',(#246,#247,#248,#250));
#252=FACE_OUTER_BOUND('',#251,.F.);
#254=CARTESIAN_POINT('',(6.318897637795E-1,6.318897637795E-1,
8.484251968504E-1));
#255=DIRECTION('',(0.E0,0.E0,1.E0));
#256=DIRECTION('',(-1.E0,0.E0,0.E0));
#257=AXIS2_PLACEMENT_3D('',#254,#255,#256);
#258=PLANE('',#257);
#260=ORIENTED_EDGE('',*,*,#259,.F.);
#262=ORIENTED_EDGE('',*,*,#261,.F.);
#263=EDGE_LOOP('',(#260,#262));
#264=FACE_OUTER_BOUND('',#263,.F.);
#265=ORIENTED_EDGE('',*,*,#249,.F.);
#266=ORIENTED_EDGE('',*,*,#233,.F.);
#267=EDGE_LOOP('',(#265,#266));
#268=FACE_BOUND('',#267,.F.);
#270=CARTESIAN_POINT('',(6.318897637795E-1,6.318897637795E-1,7.5E-1));
#271=DIRECTION('',(0.E0,0.E0,1.E0));
#272=DIRECTION('',(-1.E0,0.E0,0.E0));
#273=AXIS2_PLACEMENT_3D('',#270,#271,#272);
#274=CYLINDRICAL_SURFACE('',#273,4.232283464567E-1);
#276=ORIENTED_EDGE('',*,*,#275,.F.);
#278=ORIENTED_EDGE('',*,*,#277,.T.);
#280=ORIENTED_EDGE('',*,*,#279,.T.);
#281=ORIENTED_EDGE('',*,*,#259,.T.);
#282=EDGE_LOOP('',(#276,#278,#280,#281));
#283=FACE_OUTER_BOUND('',#282,.F.);
#285=CARTESIAN_POINT('',(6.318897637795E-1,6.318897637795E-1,7.5E-1));
#286=DIRECTION('',(0.E0,0.E0,1.E0));
#287=DIRECTION('',(-1.E0,0.E0,0.E0));
#288=AXIS2_PLACEMENT_3D('',#285,#286,#287);
#289=CYLINDRICAL_SURFACE('',#288,4.232283464567E-1);
#290=ORIENTED_EDGE('',*,*,#275,.T.);
#291=ORIENTED_EDGE('',*,*,#261,.T.);
#292=ORIENTED_EDGE('',*,*,#279,.F.);
#294=ORIENTED_EDGE('',*,*,#293,.T.);
#295=EDGE_LOOP('',(#290,#291,#292,#294));
#296=FACE_OUTER_BOUND('',#295,.F.);
#298=CARTESIAN_POINT('',(6.318897637795E-1,6.318897637795E-1,7.5E-1));
#299=DIRECTION('',(0.E0,0.E0,1.E0));
#300=DIRECTION('',(-1.E0,0.E0,0.E0));
#301=AXIS2_PLACEMENT_3D('',#298,#299,#300);
#302=PLANE('',#301);
#303=ORIENTED_EDGE('',*,*,#277,.F.);
#304=ORIENTED_EDGE('',*,*,#293,.F.);
#305=EDGE_LOOP('',(#303,#304));
#306=FACE_OUTER_BOUND('',#305,.F.);
#307=ORIENTED_EDGE('',*,*,#205,.F.);
#308=ORIENTED_EDGE('',*,*,#187,.F.);
#309=EDGE_LOOP('',(#307,#308));
#310=FACE_BOUND('',#309,.F.);
#314=FILL_AREA_STYLE_COLOUR('',#3);
#315=FILL_AREA_STYLE('',(#314));
#316=SURFACE_STYLE_FILL_AREA(#315);
#317=SURFACE_SIDE_STYLE('',(#316));
#318=SURFACE_STYLE_USAGE(.BOTH.,#317);
#319=PRESENTATION_STYLE_ASSIGNMENT((#318));
#16=STYLED_ITEM('',(#319),#313);
#321=LENGTH_MEASURE_WITH_UNIT(LENGTH_MEASURE(2.54E1),#320);
#322=(CONVERSION_BASED_UNIT('INCH',#321)LENGTH_UNIT()NAMED_UNIT(*));
#324=PLANE_ANGLE_MEASURE_WITH_UNIT(PLANE_ANGLE_MEASURE(1.745329251994E-2),#323);
#325=(CONVERSION_BASED_UNIT('DEGREE',#324)NAMED_UNIT(*)PLANE_ANGLE_UNIT());
#327=UNCERTAINTY_MEASURE_WITH_UNIT(LENGTH_MEASURE(1.213435645428E-4),#322,
'closure',
'Maximum model space distance between geometric entities at asserted connectivities');
#329=CARTESIAN_POINT('',(0.E0,0.E0,0.E0));
#330=DIRECTION('',(0.E0,0.E0,1.E0));
#331=DIRECTION('',(1.E0,0.E0,0.E0));
#334=MECHANICAL_DESIGN_GEOMETRIC_PRESENTATION_REPRESENTATION('',(#24,#31,#39,
#47,#55,#63,#70,#77,#85,#93,#101,#109,#116,#123,#131,#139,#147,#155,#16),#328);
#335=APPLICATION_CONTEXT('automotive design');
#336=APPLICATION_PROTOCOL_DEFINITION('international standard',
'config_control_design',1994,#335);
#337=PRODUCT_DEFINITION_CONTEXT('',#335,'design');
#338=PRODUCT_CONTEXT('',#335,'mechanical');
#339=PRODUCT('LENSE_FRAME','LENSE_FRAME','NOT SPECIFIED',(#338));
#340=PRODUCT_DEFINITION_FORMATION_WITH_SPECIFIED_SOURCE('1','LAST_VERSION',#339,
.MADE.);
#348=LENGTH_MEASURE_WITH_UNIT(LENGTH_MEASURE(2.54E1),#347);
#349=(CONVERSION_BASED_UNIT('INCH',#348)LENGTH_UNIT()NAMED_UNIT(*));
#350=DERIVED_UNIT_ELEMENT(#349,2.E0);
#351=AREA_UNIT((#350));
#352=MEASURE_REPRESENTATION_ITEM('surface area measure',AREA_MEASURE(
1.065785307776E3),#351);
#357=LENGTH_MEASURE_WITH_UNIT(LENGTH_MEASURE(2.54E1),#356);
#358=(CONVERSION_BASED_UNIT('INCH',#357)LENGTH_UNIT()NAMED_UNIT(*));
#359=DERIVED_UNIT_ELEMENT(#358,3.E0);
#360=VOLUME_UNIT((#359));
#361=MEASURE_REPRESENTATION_ITEM('volume measure',VOLUME_MEASURE(
1.331942019122E3),#360);
#365=CARTESIAN_POINT('centre point',(1.605E1,1.605E1,2.133228962818E1));
#370=LENGTH_MEASURE_WITH_UNIT(LENGTH_MEASURE(2.54E1),#369);
#371=(CONVERSION_BASED_UNIT('INCH',#370)LENGTH_UNIT()NAMED_UNIT(*));
#372=DERIVED_UNIT_ELEMENT(#371,2.E0);
#373=AREA_UNIT((#372));
#374=MEASURE_REPRESENTATION_ITEM('surface area measure',AREA_MEASURE(
1.065785307776E3),#373);
#379=LENGTH_MEASURE_WITH_UNIT(LENGTH_MEASURE(2.54E1),#378);
#380=(CONVERSION_BASED_UNIT('INCH',#379)LENGTH_UNIT()NAMED_UNIT(*));
#381=DERIVED_UNIT_ELEMENT(#380,3.E0);
#382=VOLUME_UNIT((#381));
#383=MEASURE_REPRESENTATION_ITEM('volume measure',VOLUME_MEASURE(
1.331942019122E3),#382);
#387=CARTESIAN_POINT('centre point',(1.605E1,1.605E1,2.133228962818E1));
#1=DRAUGHTING_PRE_DEFINED_COLOUR('green');
#2=COLOUR_RGB('',1.1E-2,1.2E-2,1.E0);
#3=COLOUR_RGB('',9.803921568627E-2,9.803921568627E-2,9.803921568627E-2);
#4=COLOUR_RGB('',2.352941176471E-1,2.352941176471E-1,2.352941176471E-1);
#5=COLOUR_RGB('',4.1E-1,2.61589E-1,1.12848E-1);
#6=COLOUR_RGB('',5.04854E-1,1.5455E-2,1.5455E-2);
#7=COLOUR_RGB('',6.35294E-1,6.86275E-1,7.4902E-1);
#8=COLOUR_RGB('',6.40777E-1,6.40777E-1,6.40777E-1);
#9=COLOUR_RGB('',6.69062E-1,6.69903E-1,6.55217E-1);
#10=COLOUR_RGB('',9.21569E-1,7.05882E-1,4.70588E-1);
#11=DRAUGHTING_PRE_DEFINED_COLOUR('red');
#12=DRAUGHTING_PRE_DEFINED_COLOUR('yellow');
#13=COLOUR_RGB('',1.E0,1.E0,5.3E-1);
#14=COLOUR_RGB('',1.E0,1.E0,9.49E-1);
#15=DRAUGHTING_PRE_DEFINED_COLOUR('white');
#36=CIRCLE('',#35,3.651574803150E-1);
#44=CIRCLE('',#43,3.651574803150E-1);
#52=CIRCLE('',#51,1.574803149606E-1);
#60=CIRCLE('',#59,1.574803149606E-1);
#82=CIRCLE('',#81,4.232283464567E-1);
#90=CIRCLE('',#89,4.232283464567E-1);
#98=CIRCLE('',#97,3.651574803150E-1);
#106=CIRCLE('',#105,3.651574803150E-1);
#128=CIRCLE('',#127,4.232283464567E-1);
#136=CIRCLE('',#135,4.232283464567E-1);
#144=CIRCLE('',#143,1.574803149606E-1);
#152=CIRCLE('',#151,1.574803149606E-1);
#185=EDGE_CURVE('',#158,#159,#20,.T.);
#187=EDGE_CURVE('',#159,#163,#152,.T.);
#189=EDGE_CURVE('',#163,#161,#28,.T.);
#191=EDGE_CURVE('',#161,#158,#52,.T.);
#195=ADVANCED_FACE('',(#194),#184,.F.);
#202=EDGE_CURVE('',#158,#161,#60,.T.);
#205=EDGE_CURVE('',#163,#159,#144,.T.);
#209=ADVANCED_FACE('',(#208),#200,.F.);
#215=EDGE_CURVE('',#169,#167,#36,.T.);
#217=EDGE_CURVE('',#167,#169,#44,.T.);
#225=ADVANCED_FACE('',(#220,#224),#214,.T.);
#231=EDGE_CURVE('',#166,#167,#67,.T.);
#233=EDGE_CURVE('',#166,#171,#106,.T.);
#235=EDGE_CURVE('',#171,#169,#74,.T.);
#240=ADVANCED_FACE('',(#239),#230,.T.);
#249=EDGE_CURVE('',#171,#166,#98,.T.);
#253=ADVANCED_FACE('',(#252),#245,.T.);
#259=EDGE_CURVE('',#177,#175,#82,.T.);
#261=EDGE_CURVE('',#175,#177,#90,.T.);
#269=ADVANCED_FACE('',(#264,#268),#258,.T.);
#275=EDGE_CURVE('',#174,#175,#113,.T.);
#277=EDGE_CURVE('',#174,#179,#128,.T.);
#279=EDGE_CURVE('',#179,#177,#120,.T.);
#284=ADVANCED_FACE('',(#283),#274,.T.);
#293=EDGE_CURVE('',#179,#174,#136,.T.);
#297=ADVANCED_FACE('',(#296),#289,.T.);
#311=ADVANCED_FACE('',(#306,#310),#302,.F.);
#312=CLOSED_SHELL('',(#195,#209,#225,#240,#253,#269,#284,#297,#311));
#313=MANIFOLD_SOLID_BREP('',#312);
#320=(LENGTH_UNIT()NAMED_UNIT(*)SI_UNIT(.MILLI.,.METRE.));
#323=(NAMED_UNIT(*)PLANE_ANGLE_UNIT()SI_UNIT($,.RADIAN.));
#326=(NAMED_UNIT(*)SI_UNIT($,.STERADIAN.)SOLID_ANGLE_UNIT());
#328=(GEOMETRIC_REPRESENTATION_CONTEXT(3)GLOBAL_UNCERTAINTY_ASSIGNED_CONTEXT((
#327))GLOBAL_UNIT_ASSIGNED_CONTEXT((#322,#325,#326))REPRESENTATION_CONTEXT
('ID1','3'));
#332=AXIS2_PLACEMENT_3D('',#329,#330,#331);
#333=ADVANCED_BREP_SHAPE_REPRESENTATION('',(#332,#313),#328);
#341=PRODUCT_DEFINITION('design','',#340,#337);
#342=PRODUCT_DEFINITION_SHAPE('','SHAPE FOR LENSE_FRAME.',#341);
#343=SHAPE_ASPECT('','solid data associated with LENSE_FRAME',#342,.F.);
#344=PROPERTY_DEFINITION('',
'shape for solid data with which properties are associated',#343);
#345=SHAPE_REPRESENTATION('',(#313),#328);
#346=SHAPE_DEFINITION_REPRESENTATION(#344,#345);
#347=(LENGTH_UNIT()NAMED_UNIT(*)SI_UNIT(.MILLI.,.METRE.));
#353=PROPERTY_DEFINITION('geometric validation property','area of LENSE_FRAME',
#343);
#354=REPRESENTATION('surface area',(#352),#328);
#355=PROPERTY_DEFINITION_REPRESENTATION(#353,#354);
#356=(LENGTH_UNIT()NAMED_UNIT(*)SI_UNIT(.MILLI.,.METRE.));
#362=PROPERTY_DEFINITION('geometric validation property',
'volume of LENSE_FRAME',#343);
#363=REPRESENTATION('volume',(#361),#328);
#364=PROPERTY_DEFINITION_REPRESENTATION(#362,#363);
#366=PROPERTY_DEFINITION('geometric validation property',
'centroid of LENSE_FRAME',#343);
#367=REPRESENTATION('centroid',(#365),#328);
#368=PROPERTY_DEFINITION_REPRESENTATION(#366,#367);
#369=(LENGTH_UNIT()NAMED_UNIT(*)SI_UNIT(.MILLI.,.METRE.));
#375=PROPERTY_DEFINITION('geometric validation property','area of LENSE_FRAME',
#342);
#376=REPRESENTATION('surface area',(#374),#328);
#377=PROPERTY_DEFINITION_REPRESENTATION(#375,#376);
#378=(LENGTH_UNIT()NAMED_UNIT(*)SI_UNIT(.MILLI.,.METRE.));
#384=PROPERTY_DEFINITION('geometric validation property',
'volume of LENSE_FRAME',#342);
#385=REPRESENTATION('volume',(#383),#328);
#386=PROPERTY_DEFINITION_REPRESENTATION(#384,#385);
#388=PROPERTY_DEFINITION('geometric validation property',
'centroid of LENSE_FRAME',#342);
#389=REPRESENTATION('centroid',(#387),#328);
#390=PROPERTY_DEFINITION_REPRESENTATION(#388,#389);
#391=SHAPE_DEFINITION_REPRESENTATION(#342,#333);
ENDSEC;
END-ISO-10303-21;
