ISO-10303-21;
HEADER;
FILE_DESCRIPTION((''),'2;1');
FILE_NAME('LENS','2026-06-15T13:45:17',('Esia'),(''),
'CREO PARAMETRIC BY PTC INC, 2025102','CREO PARAMETRIC BY PTC INC, 2025102','');
FILE_SCHEMA((
'AP242_MANAGED_MODEL_BASED_3D_ENGINEERING_MIM_LF { 1 0 10303 442 1 1 4 }'));
ENDSEC;
DATA;
#17=CARTESIAN_POINT('',(6.318897637795E-1,6.318897637795E-1,9.468503937008E-1));
#18=DIRECTION('',(0.E0,0.E0,-1.E0));
#19=DIRECTION('',(-1.E0,0.E0,0.E0));
#20=AXIS2_PLACEMENT_3D('',#17,#18,#19);
#22=DRAUGHTING_PRE_DEFINED_CURVE_FONT('continuous');
#23=CURVE_STYLE('',#22,POSITIVE_LENGTH_MEASURE(2.E-2),#9);
#24=PRESENTATION_STYLE_ASSIGNMENT((#23));
#25=STYLED_ITEM('',(#24),#21);
#26=CARTESIAN_POINT('',(6.318897637795E-1,6.318897637795E-1,9.468503937008E-1));
#27=DIRECTION('',(0.E0,0.E0,-1.E0));
#28=DIRECTION('',(0.E0,-1.E0,0.E0));
#29=AXIS2_PLACEMENT_3D('',#26,#27,#28);
#31=CURVE_STYLE('',#22,POSITIVE_LENGTH_MEASURE(2.E-2),#9);
#32=PRESENTATION_STYLE_ASSIGNMENT((#31));
#33=STYLED_ITEM('',(#32),#30);
#34=CARTESIAN_POINT('',(6.318897637795E-1,6.318897637795E-1,9.468503937008E-1));
#35=DIRECTION('',(0.E0,0.E0,-1.E0));
#36=DIRECTION('',(1.E0,0.E0,0.E0));
#37=AXIS2_PLACEMENT_3D('',#34,#35,#36);
#39=CURVE_STYLE('',#22,POSITIVE_LENGTH_MEASURE(2.E-2),#9);
#40=PRESENTATION_STYLE_ASSIGNMENT((#39));
#41=STYLED_ITEM('',(#40),#38);
#42=CARTESIAN_POINT('',(6.318897637795E-1,6.318897637795E-1,5.531496062992E-1));
#43=DIRECTION('',(0.E0,1.E0,0.E0));
#44=DIRECTION('',(-6.E-1,0.E0,8.E-1));
#45=AXIS2_PLACEMENT_3D('',#42,#43,#44);
#47=CURVE_STYLE('',#22,POSITIVE_LENGTH_MEASURE(2.E-2),#9);
#48=PRESENTATION_STYLE_ASSIGNMENT((#47));
#49=STYLED_ITEM('',(#48),#46);
#50=CARTESIAN_POINT('',(6.318897637795E-1,6.318897637795E-1,5.531496062992E-1));
#51=DIRECTION('',(0.E0,-1.E0,0.E0));
#52=DIRECTION('',(6.E-1,0.E0,8.E-1));
#53=AXIS2_PLACEMENT_3D('',#50,#51,#52);
#55=CURVE_STYLE('',#22,POSITIVE_LENGTH_MEASURE(2.E-2),#9);
#56=PRESENTATION_STYLE_ASSIGNMENT((#55));
#57=STYLED_ITEM('',(#56),#54);
#58=CARTESIAN_POINT('',(9.271653543307E-1,6.318897637795E-1,9.468503937008E-1));
#59=CARTESIAN_POINT('',(6.318897637795E-1,6.318897637795E-1,1.045275590551E0));
#60=VERTEX_POINT('',#58);
#61=VERTEX_POINT('',#59);
#62=CARTESIAN_POINT('',(3.366141732283E-1,6.318897637795E-1,9.468503937008E-1));
#63=VERTEX_POINT('',#62);
#64=CARTESIAN_POINT('',(6.318897637795E-1,3.366141732283E-1,9.468503937008E-1));
#65=VERTEX_POINT('',#64);
#66=CARTESIAN_POINT('',(6.318897637795E-1,6.318897637795E-1,9.468503937008E-1));
#67=DIRECTION('',(0.E0,0.E0,1.E0));
#68=DIRECTION('',(1.E0,0.E0,0.E0));
#69=AXIS2_PLACEMENT_3D('',#66,#67,#68);
#70=PLANE('',#69);
#72=ORIENTED_EDGE('',*,*,#71,.F.);
#74=ORIENTED_EDGE('',*,*,#73,.F.);
#76=ORIENTED_EDGE('',*,*,#75,.F.);
#77=EDGE_LOOP('',(#72,#74,#76));
#78=FACE_OUTER_BOUND('',#77,.F.);
#80=CARTESIAN_POINT('',(6.318897637795E-1,6.318897637795E-1,5.531496062992E-1));
#81=DIRECTION('',(0.E0,0.E0,1.E0));
#82=DIRECTION('',(1.E0,0.E0,0.E0));
#83=AXIS2_PLACEMENT_3D('',#80,#81,#82);
#84=SPHERICAL_SURFACE('',#83,4.921259842520E-1);
#85=ORIENTED_EDGE('',*,*,#71,.T.);
#87=ORIENTED_EDGE('',*,*,#86,.T.);
#89=ORIENTED_EDGE('',*,*,#88,.F.);
#90=EDGE_LOOP('',(#85,#87,#89));
#91=FACE_OUTER_BOUND('',#90,.F.);
#93=FILL_AREA_STYLE_COLOUR('',#3);
#94=FILL_AREA_STYLE('',(#93));
#95=SURFACE_STYLE_FILL_AREA(#94);
#96=SURFACE_SIDE_STYLE('',(#95));
#97=SURFACE_STYLE_USAGE(.BOTH.,#96);
#98=PRESENTATION_STYLE_ASSIGNMENT((#97));
#99=OVER_RIDING_STYLED_ITEM('',(#98),#92,#16);
#100=CARTESIAN_POINT('',(6.318897637795E-1,6.318897637795E-1,
5.531496062992E-1));
#101=DIRECTION('',(0.E0,0.E0,1.E0));
#102=DIRECTION('',(1.E0,0.E0,0.E0));
#103=AXIS2_PLACEMENT_3D('',#100,#101,#102);
#104=SPHERICAL_SURFACE('',#103,4.921259842520E-1);
#105=ORIENTED_EDGE('',*,*,#75,.T.);
#106=ORIENTED_EDGE('',*,*,#73,.T.);
#107=ORIENTED_EDGE('',*,*,#88,.T.);
#108=ORIENTED_EDGE('',*,*,#86,.F.);
#109=EDGE_LOOP('',(#105,#106,#107,#108));
#110=FACE_OUTER_BOUND('',#109,.F.);
#112=FILL_AREA_STYLE_COLOUR('',#3);
#113=FILL_AREA_STYLE('',(#112));
#114=SURFACE_STYLE_FILL_AREA(#113);
#115=SURFACE_SIDE_STYLE('',(#114));
#116=SURFACE_STYLE_USAGE(.BOTH.,#115);
#117=PRESENTATION_STYLE_ASSIGNMENT((#116));
#118=OVER_RIDING_STYLED_ITEM('',(#117),#111,#16);
#121=FILL_AREA_STYLE_COLOUR('',#9);
#122=FILL_AREA_STYLE('',(#121));
#123=SURFACE_STYLE_FILL_AREA(#122);
#124=SURFACE_SIDE_STYLE('',(#123));
#125=SURFACE_STYLE_USAGE(.BOTH.,#124);
#126=PRESENTATION_STYLE_ASSIGNMENT((#125));
#16=STYLED_ITEM('',(#126),#120);
#128=LENGTH_MEASURE_WITH_UNIT(LENGTH_MEASURE(2.54E1),#127);
#129=(CONVERSION_BASED_UNIT('INCH',#128)LENGTH_UNIT()NAMED_UNIT(*));
#131=PLANE_ANGLE_MEASURE_WITH_UNIT(PLANE_ANGLE_MEASURE(1.745329251994E-2),#130);
#132=(CONVERSION_BASED_UNIT('DEGREE',#131)NAMED_UNIT(*)PLANE_ANGLE_UNIT());
#134=UNCERTAINTY_MEASURE_WITH_UNIT(LENGTH_MEASURE(8.409116127134E-5),#129,
'closure',
'Maximum model space distance between geometric entities at asserted connectivities');
#136=CARTESIAN_POINT('',(0.E0,0.E0,0.E0));
#137=DIRECTION('',(0.E0,0.E0,1.E0));
#138=DIRECTION('',(1.E0,0.E0,0.E0));
#141=MECHANICAL_DESIGN_GEOMETRIC_PRESENTATION_REPRESENTATION('',(#25,#33,#41,
#49,#57,#99,#118,#16),#135);
#142=APPLICATION_CONTEXT('automotive design');
#143=APPLICATION_PROTOCOL_DEFINITION('international standard',
'config_control_design',1994,#142);
#144=PRODUCT_DEFINITION_CONTEXT('',#142,'design');
#145=PRODUCT_CONTEXT('',#142,'mechanical');
#146=PRODUCT('LENS','LENS','NOT SPECIFIED',(#145));
#147=PRODUCT_DEFINITION_FORMATION_WITH_SPECIFIED_SOURCE('1','LAST_VERSION',#146,
.MADE.);
#155=LENGTH_MEASURE_WITH_UNIT(LENGTH_MEASURE(2.54E1),#154);
#156=(CONVERSION_BASED_UNIT('INCH',#155)LENGTH_UNIT()NAMED_UNIT(*));
#157=DERIVED_UNIT_ELEMENT(#156,2.E0);
#158=AREA_UNIT((#157));
#159=MEASURE_REPRESENTATION_ITEM('surface area measure',AREA_MEASURE(
3.730641276107E2),#158);
#164=LENGTH_MEASURE_WITH_UNIT(LENGTH_MEASURE(2.54E1),#163);
#165=(CONVERSION_BASED_UNIT('INCH',#164)LENGTH_UNIT()NAMED_UNIT(*));
#166=DERIVED_UNIT_ELEMENT(#165,3.E0);
#167=VOLUME_UNIT((#166));
#168=MEASURE_REPRESENTATION_ITEM('volume measure',VOLUME_MEASURE(
2.290744643282E2),#167);
#172=CARTESIAN_POINT('centre point',(1.604999999997E1,1.604999999996E1,
2.489821428684E1));
#177=LENGTH_MEASURE_WITH_UNIT(LENGTH_MEASURE(2.54E1),#176);
#178=(CONVERSION_BASED_UNIT('INCH',#177)LENGTH_UNIT()NAMED_UNIT(*));
#179=DERIVED_UNIT_ELEMENT(#178,2.E0);
#180=AREA_UNIT((#179));
#181=MEASURE_REPRESENTATION_ITEM('surface area measure',AREA_MEASURE(
3.730641276107E2),#180);
#186=LENGTH_MEASURE_WITH_UNIT(LENGTH_MEASURE(2.54E1),#185);
#187=(CONVERSION_BASED_UNIT('INCH',#186)LENGTH_UNIT()NAMED_UNIT(*));
#188=DERIVED_UNIT_ELEMENT(#187,3.E0);
#189=VOLUME_UNIT((#188));
#190=MEASURE_REPRESENTATION_ITEM('volume measure',VOLUME_MEASURE(
2.290744643282E2),#189);
#194=CARTESIAN_POINT('centre point',(1.604999999997E1,1.604999999996E1,
2.489821428684E1));
#1=DRAUGHTING_PRE_DEFINED_COLOUR('green');
#2=COLOUR_RGB('',1.1E-2,1.2E-2,1.E0);
#3=COLOUR_RGB('',2.352941176471E-1,2.352941176471E-1,2.352941176471E-1);
#4=COLOUR_RGB('',4.1E-1,2.61589E-1,1.12848E-1);
#5=COLOUR_RGB('',5.04854E-1,1.5455E-2,1.5455E-2);
#6=COLOUR_RGB('',6.35294E-1,6.86275E-1,7.4902E-1);
#7=COLOUR_RGB('',6.40777E-1,6.40777E-1,6.40777E-1);
#8=COLOUR_RGB('',6.69062E-1,6.69903E-1,6.55217E-1);
#9=COLOUR_RGB('',7.019607843137E-1,7.019607843137E-1,7.019607843137E-1);
#10=COLOUR_RGB('',9.21569E-1,7.05882E-1,4.70588E-1);
#11=DRAUGHTING_PRE_DEFINED_COLOUR('red');
#12=DRAUGHTING_PRE_DEFINED_COLOUR('yellow');
#13=COLOUR_RGB('',1.E0,1.E0,5.3E-1);
#14=COLOUR_RGB('',1.E0,1.E0,9.49E-1);
#15=DRAUGHTING_PRE_DEFINED_COLOUR('white');
#21=CIRCLE('',#20,2.952755905512E-1);
#30=CIRCLE('',#29,2.952755905512E-1);
#38=CIRCLE('',#37,2.952755905512E-1);
#46=CIRCLE('',#45,4.921259842520E-1);
#54=CIRCLE('',#53,4.921259842520E-1);
#71=EDGE_CURVE('',#63,#60,#21,.T.);
#73=EDGE_CURVE('',#65,#63,#30,.T.);
#75=EDGE_CURVE('',#60,#65,#38,.T.);
#79=ADVANCED_FACE('',(#78),#70,.F.);
#86=EDGE_CURVE('',#60,#61,#54,.T.);
#88=EDGE_CURVE('',#63,#61,#46,.T.);
#92=ADVANCED_FACE('',(#91),#84,.T.);
#111=ADVANCED_FACE('',(#110),#104,.T.);
#119=CLOSED_SHELL('',(#79,#92,#111));
#120=MANIFOLD_SOLID_BREP('',#119);
#127=(LENGTH_UNIT()NAMED_UNIT(*)SI_UNIT(.MILLI.,.METRE.));
#130=(NAMED_UNIT(*)PLANE_ANGLE_UNIT()SI_UNIT($,.RADIAN.));
#133=(NAMED_UNIT(*)SI_UNIT($,.STERADIAN.)SOLID_ANGLE_UNIT());
#135=(GEOMETRIC_REPRESENTATION_CONTEXT(3)GLOBAL_UNCERTAINTY_ASSIGNED_CONTEXT((
#134))GLOBAL_UNIT_ASSIGNED_CONTEXT((#129,#132,#133))REPRESENTATION_CONTEXT
('ID1','3'));
#139=AXIS2_PLACEMENT_3D('',#136,#137,#138);
#140=ADVANCED_BREP_SHAPE_REPRESENTATION('',(#139,#120),#135);
#148=PRODUCT_DEFINITION('design','',#147,#144);
#149=PRODUCT_DEFINITION_SHAPE('','SHAPE FOR LENS.',#148);
#150=SHAPE_ASPECT('','solid data associated with LENS',#149,.F.);
#151=PROPERTY_DEFINITION('',
'shape for solid data with which properties are associated',#150);
#152=SHAPE_REPRESENTATION('',(#120),#135);
#153=SHAPE_DEFINITION_REPRESENTATION(#151,#152);
#154=(LENGTH_UNIT()NAMED_UNIT(*)SI_UNIT(.MILLI.,.METRE.));
#160=PROPERTY_DEFINITION('geometric validation property','area of LENS',#150);
#161=REPRESENTATION('surface area',(#159),#135);
#162=PROPERTY_DEFINITION_REPRESENTATION(#160,#161);
#163=(LENGTH_UNIT()NAMED_UNIT(*)SI_UNIT(.MILLI.,.METRE.));
#169=PROPERTY_DEFINITION('geometric validation property','volume of LENS',#150);
#170=REPRESENTATION('volume',(#168),#135);
#171=PROPERTY_DEFINITION_REPRESENTATION(#169,#170);
#173=PROPERTY_DEFINITION('geometric validation property','centroid of LENS',
#150);
#174=REPRESENTATION('centroid',(#172),#135);
#175=PROPERTY_DEFINITION_REPRESENTATION(#173,#174);
#176=(LENGTH_UNIT()NAMED_UNIT(*)SI_UNIT(.MILLI.,.METRE.));
#182=PROPERTY_DEFINITION('geometric validation property','area of LENS',#149);
#183=REPRESENTATION('surface area',(#181),#135);
#184=PROPERTY_DEFINITION_REPRESENTATION(#182,#183);
#185=(LENGTH_UNIT()NAMED_UNIT(*)SI_UNIT(.MILLI.,.METRE.));
#191=PROPERTY_DEFINITION('geometric validation property','volume of LENS',#149);
#192=REPRESENTATION('volume',(#190),#135);
#193=PROPERTY_DEFINITION_REPRESENTATION(#191,#192);
#195=PROPERTY_DEFINITION('geometric validation property','centroid of LENS',
#149);
#196=REPRESENTATION('centroid',(#194),#135);
#197=PROPERTY_DEFINITION_REPRESENTATION(#195,#196);
#198=SHAPE_DEFINITION_REPRESENTATION(#149,#140);
ENDSEC;
END-ISO-10303-21;
