ISO-10303-21;
HEADER;
FILE_DESCRIPTION((''),'2;1');
FILE_NAME('LIPO_BATTERY_3S','2026-06-15T13:46:53',('Esia'),(''),
'CREO PARAMETRIC BY PTC INC, 2025102','CREO PARAMETRIC BY PTC INC, 2025102','');
FILE_SCHEMA((
'AP242_MANAGED_MODEL_BASED_3D_ENGINEERING_MIM_LF { 1 0 10303 442 1 1 4 }'));
ENDSEC;
DATA;
#24=CARTESIAN_POINT('',(-5.905511811024E-1,3.937007874016E-2,4.576771653543E0));
#25=DIRECTION('',(0.E0,0.E0,1.E0));
#26=DIRECTION('',(1.E0,0.E0,0.E0));
#27=AXIS2_PLACEMENT_3D('',#24,#25,#26);
#29=DRAUGHTING_PRE_DEFINED_CURVE_FONT('continuous');
#30=CURVE_STYLE('',#29,POSITIVE_LENGTH_MEASURE(2.E-2),#15);
#31=PRESENTATION_STYLE_ASSIGNMENT((#30));
#32=STYLED_ITEM('',(#31),#28);
#33=DIRECTION('',(0.E0,0.E0,-1.E0));
#34=VECTOR('',#33,2.854330708661E-1);
#35=CARTESIAN_POINT('',(-5.561023622047E-1,3.937007874016E-2,4.576771653543E0));
#36=LINE('',#35,#34);
#37=CURVE_STYLE('',#29,POSITIVE_LENGTH_MEASURE(2.E-2),#15);
#38=PRESENTATION_STYLE_ASSIGNMENT((#37));
#39=STYLED_ITEM('',(#38),#36);
#40=CARTESIAN_POINT('',(-5.905511811024E-1,3.937007874016E-2,4.576771653543E0));
#41=DIRECTION('',(0.E0,0.E0,1.E0));
#42=DIRECTION('',(-1.E0,0.E0,0.E0));
#43=AXIS2_PLACEMENT_3D('',#40,#41,#42);
#45=CURVE_STYLE('',#29,POSITIVE_LENGTH_MEASURE(2.E-2),#15);
#46=PRESENTATION_STYLE_ASSIGNMENT((#45));
#47=STYLED_ITEM('',(#46),#44);
#48=DIRECTION('',(0.E0,0.E0,-1.E0));
#49=VECTOR('',#48,2.854330708661E-1);
#50=CARTESIAN_POINT('',(-6.25E-1,3.937007874016E-2,4.576771653543E0));
#51=LINE('',#50,#49);
#52=CURVE_STYLE('',#29,POSITIVE_LENGTH_MEASURE(2.E-2),#15);
#53=PRESENTATION_STYLE_ASSIGNMENT((#52));
#54=STYLED_ITEM('',(#53),#51);
#55=CARTESIAN_POINT('',(5.511811023622E-1,9.842519685039E-2,4.291338582677E0));
#56=DIRECTION('',(0.E0,0.E0,-1.E0));
#57=DIRECTION('',(9.682458365519E-1,-2.5E-1,0.E0));
#58=AXIS2_PLACEMENT_3D('',#55,#56,#57);
#60=CURVE_STYLE('',#29,POSITIVE_LENGTH_MEASURE(2.E-2),#15);
#61=PRESENTATION_STYLE_ASSIGNMENT((#60));
#62=STYLED_ITEM('',(#61),#59);
#63=CARTESIAN_POINT('',(5.511811023622E-1,-9.842519685039E-2,4.291338582677E0));
#64=DIRECTION('',(0.E0,0.E0,-1.E0));
#65=DIRECTION('',(-9.682458365519E-1,2.5E-1,0.E0));
#66=AXIS2_PLACEMENT_3D('',#63,#64,#65);
#68=CURVE_STYLE('',#29,POSITIVE_LENGTH_MEASURE(2.E-2),#15);
#69=PRESENTATION_STYLE_ASSIGNMENT((#68));
#70=STYLED_ITEM('',(#69),#67);
#71=CARTESIAN_POINT('',(-5.905511811024E-1,-3.937007874016E-2,
4.291338582677E0));
#72=DIRECTION('',(0.E0,0.E0,-1.E0));
#73=DIRECTION('',(-1.E0,0.E0,0.E0));
#74=AXIS2_PLACEMENT_3D('',#71,#72,#73);
#76=CURVE_STYLE('',#29,POSITIVE_LENGTH_MEASURE(2.E-2),#15);
#77=PRESENTATION_STYLE_ASSIGNMENT((#76));
#78=STYLED_ITEM('',(#77),#75);
#79=CARTESIAN_POINT('',(-5.905511811024E-1,-3.937007874016E-2,
4.291338582677E0));
#80=DIRECTION('',(0.E0,0.E0,-1.E0));
#81=DIRECTION('',(1.E0,0.E0,0.E0));
#82=AXIS2_PLACEMENT_3D('',#79,#80,#81);
#84=CURVE_STYLE('',#29,POSITIVE_LENGTH_MEASURE(2.E-2),#15);
#85=PRESENTATION_STYLE_ASSIGNMENT((#84));
#86=STYLED_ITEM('',(#85),#83);
#87=CARTESIAN_POINT('',(-5.905511811024E-1,3.937007874016E-2,4.291338582677E0));
#88=DIRECTION('',(0.E0,0.E0,-1.E0));
#89=DIRECTION('',(-1.E0,0.E0,0.E0));
#90=AXIS2_PLACEMENT_3D('',#87,#88,#89);
#92=CURVE_STYLE('',#29,POSITIVE_LENGTH_MEASURE(2.E-2),#15);
#93=PRESENTATION_STYLE_ASSIGNMENT((#92));
#94=STYLED_ITEM('',(#93),#91);
#95=CARTESIAN_POINT('',(-5.905511811024E-1,3.937007874016E-2,4.291338582677E0));
#96=DIRECTION('',(0.E0,0.E0,-1.E0));
#97=DIRECTION('',(1.E0,0.E0,0.E0));
#98=AXIS2_PLACEMENT_3D('',#95,#96,#97);
#100=CURVE_STYLE('',#29,POSITIVE_LENGTH_MEASURE(2.E-2),#15);
#101=PRESENTATION_STYLE_ASSIGNMENT((#100));
#102=STYLED_ITEM('',(#101),#99);
#103=CARTESIAN_POINT('',(5.511811023622E-1,9.842519685039E-2,4.576771653543E0));
#104=DIRECTION('',(0.E0,0.E0,1.E0));
#105=DIRECTION('',(-1.E0,0.E0,0.E0));
#106=AXIS2_PLACEMENT_3D('',#103,#104,#105);
#108=CURVE_STYLE('',#29,POSITIVE_LENGTH_MEASURE(2.E-2),#15);
#109=PRESENTATION_STYLE_ASSIGNMENT((#108));
#110=STYLED_ITEM('',(#109),#107);
#111=DIRECTION('',(0.E0,0.E0,-1.E0));
#112=VECTOR('',#111,2.859255048142E-1);
#113=CARTESIAN_POINT('',(4.724409448819E-1,9.842519685039E-2,4.576771653543E0));
#114=LINE('',#113,#112);
#115=CURVE_STYLE('',#29,POSITIVE_LENGTH_MEASURE(2.E-2),#15);
#116=PRESENTATION_STYLE_ASSIGNMENT((#115));
#117=STYLED_ITEM('',(#116),#114);
#118=CARTESIAN_POINT('',(5.511811023622E-1,9.842519685039E-2,4.576771653543E0));
#119=DIRECTION('',(0.E0,0.E0,1.E0));
#120=DIRECTION('',(1.E0,0.E0,0.E0));
#121=AXIS2_PLACEMENT_3D('',#118,#119,#120);
#123=CURVE_STYLE('',#29,POSITIVE_LENGTH_MEASURE(2.E-2),#15);
#124=PRESENTATION_STYLE_ASSIGNMENT((#123));
#125=STYLED_ITEM('',(#124),#122);
#126=DIRECTION('',(4.426517490614E-14,0.E0,-1.E0));
#127=VECTOR('',#126,2.859255048142E-1);
#128=CARTESIAN_POINT('',(6.299212598425E-1,9.842519685039E-2,4.576771653543E0));
#129=LINE('',#128,#127);
#130=CURVE_STYLE('',#29,POSITIVE_LENGTH_MEASURE(2.E-2),#15);
#131=PRESENTATION_STYLE_ASSIGNMENT((#130));
#132=STYLED_ITEM('',(#131),#129);
#133=CARTESIAN_POINT('',(6.299212598425E-1,9.842519685039E-2,4.290846148729E0));
#134=CARTESIAN_POINT('',(6.299212598425E-1,9.621375031262E-2,4.290956859531E0));
#135=CARTESIAN_POINT('',(6.297391635709E-1,9.180602653181E-2,4.291140240262E0));
#136=CARTESIAN_POINT('',(6.289022483646E-1,8.521325807663E-2,4.291303519509E0));
#137=CARTESIAN_POINT('',(6.279758061080E-1,8.088917561345E-2,4.291338582677E0));
#138=CARTESIAN_POINT('',(6.274209320120E-1,7.874015748030E-2,4.291338582677E0));
#140=CURVE_STYLE('',#29,POSITIVE_LENGTH_MEASURE(2.E-2),#15);
#141=PRESENTATION_STYLE_ASSIGNMENT((#140));
#142=STYLED_ITEM('',(#141),#139);
#143=CARTESIAN_POINT('',(4.724409448819E-1,9.842519685039E-2,4.290846148729E0));
#144=CARTESIAN_POINT('',(4.724409448819E-1,1.069311430990E-1,4.290420318796E0));
#145=CARTESIAN_POINT('',(4.750538645021E-1,1.230743823916E-1,4.289075080425E0));
#146=CARTESIAN_POINT('',(4.865190621100E-1,1.456815330794E-1,4.285794806562E0));
#147=CARTESIAN_POINT('',(5.045201219337E-1,1.634906345504E-1,4.282203194683E0));
#148=CARTESIAN_POINT('',(5.269461583932E-1,1.746860869724E-1,4.279490915928E0));
#149=CARTESIAN_POINT('',(5.511789151008E-1,1.784067852075E-1,4.278509447143E0));
#150=CARTESIAN_POINT('',(5.755305480925E-1,1.746714684405E-1,4.279494874983E0));
#151=CARTESIAN_POINT('',(5.980683596400E-1,1.633519525678E-1,4.282236207562E0));
#152=CARTESIAN_POINT('',(6.159762778483E-1,1.454283780913E-1,4.285837479629E0));
#153=CARTESIAN_POINT('',(6.273322632011E-1,1.229955573468E-1,4.289080681813E0));
#154=CARTESIAN_POINT('',(6.299212598425E-1,1.069017432510E-1,4.290421790630E0));
#155=CARTESIAN_POINT('',(6.299212598425E-1,9.842519685039E-2,4.290846148729E0));
#157=CURVE_STYLE('',#29,POSITIVE_LENGTH_MEASURE(2.E-2),#15);
#158=PRESENTATION_STYLE_ASSIGNMENT((#157));
#159=STYLED_ITEM('',(#158),#156);
#160=CARTESIAN_POINT('',(4.749412727125E-1,7.874015748032E-2,4.291338582677E0));
#161=CARTESIAN_POINT('',(4.743863987200E-1,8.088917521244E-2,4.291338582677E0));
#162=CARTESIAN_POINT('',(4.734599726330E-1,8.521326148211E-2,4.291303519465E0));
#163=CARTESIAN_POINT('',(4.726230577058E-1,9.180602765875E-2,4.291140240209E0));
#164=CARTESIAN_POINT('',(4.724409448819E-1,9.621375088131E-2,4.290956859503E0));
#165=CARTESIAN_POINT('',(4.724409448819E-1,9.842519685039E-2,4.290846148729E0));
#167=CURVE_STYLE('',#29,POSITIVE_LENGTH_MEASURE(2.E-2),#15);
#168=PRESENTATION_STYLE_ASSIGNMENT((#167));
#169=STYLED_ITEM('',(#168),#166);
#170=DIRECTION('',(1.E0,0.E0,0.E0));
#171=VECTOR('',#170,1.144232611295E0);
#172=CARTESIAN_POINT('',(-6.692913385827E-1,7.874015748031E-2,
4.291338582677E0));
#173=LINE('',#172,#171);
#174=CURVE_STYLE('',#29,POSITIVE_LENGTH_MEASURE(2.E-2),#15);
#175=PRESENTATION_STYLE_ASSIGNMENT((#174));
#176=STYLED_ITEM('',(#175),#173);
#177=DIRECTION('',(-1.E0,0.E0,0.E0));
#178=VECTOR('',#177,1.259842519685E0);
#179=CARTESIAN_POINT('',(6.299212598425E-1,4.724409448819E-1,3.897637795276E0));
#180=LINE('',#179,#178);
#181=CURVE_STYLE('',#29,POSITIVE_LENGTH_MEASURE(2.E-2),#15);
#182=PRESENTATION_STYLE_ASSIGNMENT((#181));
#183=STYLED_ITEM('',(#182),#180);
#184=DIRECTION('',(1.E0,3.009531638584E-13,0.E0));
#185=VECTOR('',#184,4.187040657072E-2);
#186=CARTESIAN_POINT('',(6.274209320120E-1,7.874015748030E-2,4.291338582677E0));
#187=LINE('',#186,#185);
#188=CURVE_STYLE('',#29,POSITIVE_LENGTH_MEASURE(2.E-2),#15);
#189=PRESENTATION_STYLE_ASSIGNMENT((#188));
#190=STYLED_ITEM('',(#189),#187);
#191=CARTESIAN_POINT('',(-6.250000000001E-1,1.181102362205E-1,
4.289365132719E0));
#192=CARTESIAN_POINT('',(-6.250000000001E-1,1.229154863222E-1,
4.288882186913E0));
#193=CARTESIAN_POINT('',(-6.231441373885E-1,1.317005318185E-1,
4.287827888709E0));
#194=CARTESIAN_POINT('',(-6.154385043791E-1,1.432038672874E-1,
4.286067120958E0));
#195=CARTESIAN_POINT('',(-6.041430641333E-1,1.507078768641E-1,
4.284714823400E0));
#196=CARTESIAN_POINT('',(-5.906856019397E-1,1.534513907734E-1,
4.284183169647E0));
#197=CARTESIAN_POINT('',(-5.772526380632E-1,1.508249783221E-1,
4.284692392517E0));
#198=CARTESIAN_POINT('',(-5.658426304801E-1,1.434017586208E-1,
4.286034272713E0));
#199=CARTESIAN_POINT('',(-5.579870976208E-1,1.318145489243E-1,
4.287813541981E0));
#200=CARTESIAN_POINT('',(-5.561023622047E-1,1.229611054699E-1,
4.288877602016E0));
#201=CARTESIAN_POINT('',(-5.561023622047E-1,1.181102362205E-1,
4.289365132719E0));
#203=CURVE_STYLE('',#29,POSITIVE_LENGTH_MEASURE(2.E-2),#15);
#204=PRESENTATION_STYLE_ASSIGNMENT((#203));
#205=STYLED_ITEM('',(#204),#202);
#206=CARTESIAN_POINT('',(-6.692913385827E-1,-3.543307086614E-1,
1.181102362205E-1));
#207=DIRECTION('',(-1.E0,0.E0,0.E0));
#208=DIRECTION('',(0.E0,0.E0,-1.E0));
#209=AXIS2_PLACEMENT_3D('',#206,#207,#208);
#211=CURVE_STYLE('',#29,POSITIVE_LENGTH_MEASURE(2.E-2),#15);
#212=PRESENTATION_STYLE_ASSIGNMENT((#211));
#213=STYLED_ITEM('',(#212),#210);
#214=CARTESIAN_POINT('',(-6.692913385827E-1,3.543307086614E-1,
1.181102362205E-1));
#215=DIRECTION('',(-1.E0,0.E0,0.E0));
#216=DIRECTION('',(0.E0,6.666666666667E-1,-7.453559924999E-1));
#217=AXIS2_PLACEMENT_3D('',#214,#215,#216);
#219=CURVE_STYLE('',#29,POSITIVE_LENGTH_MEASURE(2.E-2),#15);
#220=PRESENTATION_STYLE_ASSIGNMENT((#219));
#221=STYLED_ITEM('',(#220),#218);
#222=CARTESIAN_POINT('',(-6.692913385827E-1,7.874015748031E-2,
3.897637795276E0));
#223=DIRECTION('',(-1.E0,0.E0,0.E0));
#224=DIRECTION('',(0.E0,0.E0,1.E0));
#225=AXIS2_PLACEMENT_3D('',#222,#223,#224);
#227=CURVE_STYLE('',#29,POSITIVE_LENGTH_MEASURE(2.E-2),#15);
#228=PRESENTATION_STYLE_ASSIGNMENT((#227));
#229=STYLED_ITEM('',(#228),#226);
#230=DIRECTION('',(0.E0,1.E0,0.E0));
#231=VECTOR('',#230,1.574803149606E-1);
#232=CARTESIAN_POINT('',(-6.692913385827E-1,-7.874015748031E-2,
4.291338582677E0));
#233=LINE('',#232,#231);
#234=CURVE_STYLE('',#29,POSITIVE_LENGTH_MEASURE(2.E-2),#15);
#235=PRESENTATION_STYLE_ASSIGNMENT((#234));
#236=STYLED_ITEM('',(#235),#233);
#237=CARTESIAN_POINT('',(-6.692913385827E-1,-7.874015748031E-2,
3.897637795276E0));
#238=DIRECTION('',(-1.E0,0.E0,0.E0));
#239=DIRECTION('',(0.E0,-9.E-1,4.358898943541E-1));
#240=AXIS2_PLACEMENT_3D('',#237,#238,#239);
#242=CURVE_STYLE('',#29,POSITIVE_LENGTH_MEASURE(2.E-2),#15);
#243=PRESENTATION_STYLE_ASSIGNMENT((#242));
#244=STYLED_ITEM('',(#243),#241);
#245=DIRECTION('',(0.E0,0.E0,-1.E0));
#246=VECTOR('',#245,4.039171926025E0);
#247=CARTESIAN_POINT('',(-6.692913385827E-1,-4.330708661417E-1,
4.069247989903E0));
#248=LINE('',#247,#246);
#249=CURVE_STYLE('',#29,POSITIVE_LENGTH_MEASURE(2.E-2),#15);
#250=PRESENTATION_STYLE_ASSIGNMENT((#249));
#251=STYLED_ITEM('',(#250),#248);
#252=CARTESIAN_POINT('',(-6.299212598425E-1,-4.724409448819E-1,
3.897637795276E0));
#253=CARTESIAN_POINT('',(-6.371111536675E-1,-4.724409448819E-1,
3.920374235897E0));
#254=CARTESIAN_POINT('',(-6.507223697566E-1,-4.685296874628E-1,
3.963559903731E0));
#255=CARTESIAN_POINT('',(-6.653156385761E-1,-4.539763638521E-1,
4.021192738066E0));
#256=CARTESIAN_POINT('',(-6.692913385827E-1,-4.403502775066E-1,
4.054217886399E0));
#257=CARTESIAN_POINT('',(-6.692913385827E-1,-4.330708661417E-1,
4.069247989903E0));
#259=CURVE_STYLE('',#29,POSITIVE_LENGTH_MEASURE(2.E-2),#15);
#260=PRESENTATION_STYLE_ASSIGNMENT((#259));
#261=STYLED_ITEM('',(#260),#258);
#262=DIRECTION('',(0.E0,0.E0,1.E0));
#263=VECTOR('',#262,3.779527559055E0);
#264=CARTESIAN_POINT('',(-6.299212598425E-1,-4.724409448819E-1,
1.181102362205E-1));
#265=LINE('',#264,#263);
#266=CURVE_STYLE('',#29,POSITIVE_LENGTH_MEASURE(2.E-2),#15);
#267=PRESENTATION_STYLE_ASSIGNMENT((#266));
#268=STYLED_ITEM('',(#267),#265);
#269=CARTESIAN_POINT('',(6.692913385827E-1,-4.330708661417E-1,
3.007606387796E-2));
#270=CARTESIAN_POINT('',(6.692913385827E-1,-4.384823273772E-1,
3.491622194999E-2));
#271=CARTESIAN_POINT('',(6.671135519431E-1,-4.487961075078E-1,
4.592835289876E-2));
#272=CARTESIAN_POINT('',(6.584458004841E-1,-4.615924942832E-1,
6.661855292932E-2));
#273=CARTESIAN_POINT('',(6.457629995209E-1,-4.701930533079E-1,
9.064347419933E-2));
#274=CARTESIAN_POINT('',(6.353737350699E-1,-4.724409448819E-1,
1.086662720996E-1));
#275=CARTESIAN_POINT('',(6.299212598425E-1,-4.724409448819E-1,
1.181102362205E-1));
#277=CURVE_STYLE('',#29,POSITIVE_LENGTH_MEASURE(2.E-2),#15);
#278=PRESENTATION_STYLE_ASSIGNMENT((#277));
#279=STYLED_ITEM('',(#278),#276);
#280=DIRECTION('',(1.E0,0.E0,0.E0));
#281=VECTOR('',#280,1.338582677165E0);
#282=CARTESIAN_POINT('',(-6.692913385827E-1,-3.543307086614E-1,0.E0));
#283=LINE('',#282,#281);
#284=CURVE_STYLE('',#29,POSITIVE_LENGTH_MEASURE(2.E-2),#15);
#285=PRESENTATION_STYLE_ASSIGNMENT((#284));
#286=STYLED_ITEM('',(#285),#283);
#287=CARTESIAN_POINT('',(-6.299212598425E-1,-4.724409448819E-1,
1.181102362205E-1));
#288=CARTESIAN_POINT('',(-6.353751493718E-1,-4.724409448819E-1,
1.086638224570E-1));
#289=CARTESIAN_POINT('',(-6.457665136051E-1,-4.701916541766E-1,
9.063767259769E-2));
#290=CARTESIAN_POINT('',(-6.584467775122E-1,-4.615911439425E-1,
6.661589422763E-2));
#291=CARTESIAN_POINT('',(-6.671149633393E-1,-4.487932704456E-1,
4.592462748926E-2));
#292=CARTESIAN_POINT('',(-6.692913385827E-1,-4.384809607488E-1,
3.491499960042E-2));
#293=CARTESIAN_POINT('',(-6.692913385827E-1,-4.330708661417E-1,
3.007606387796E-2));
#295=CURVE_STYLE('',#29,POSITIVE_LENGTH_MEASURE(2.E-2),#15);
#296=PRESENTATION_STYLE_ASSIGNMENT((#295));
#297=STYLED_ITEM('',(#296),#294);
#298=DIRECTION('',(-1.E0,0.E0,0.E0));
#299=VECTOR('',#298,1.259842519685E0);
#300=CARTESIAN_POINT('',(6.299212598425E-1,-4.724409448819E-1,
1.181102362205E-1));
#301=LINE('',#300,#299);
#302=CURVE_STYLE('',#29,POSITIVE_LENGTH_MEASURE(2.E-2),#15);
#303=PRESENTATION_STYLE_ASSIGNMENT((#302));
#304=STYLED_ITEM('',(#303),#301);
#305=DIRECTION('',(0.E0,0.E0,-1.E0));
#306=VECTOR('',#305,3.779527559055E0);
#307=CARTESIAN_POINT('',(6.299212598425E-1,-4.724409448819E-1,
3.897637795276E0));
#308=LINE('',#307,#306);
#309=CURVE_STYLE('',#29,POSITIVE_LENGTH_MEASURE(2.E-2),#15);
#310=PRESENTATION_STYLE_ASSIGNMENT((#309));
#311=STYLED_ITEM('',(#310),#308);
#312=CARTESIAN_POINT('',(6.692913385827E-1,-4.330708661417E-1,
4.069247989903E0));
#313=CARTESIAN_POINT('',(6.692913385827E-1,-4.403502476084E-1,
4.054217948131E0));
#314=CARTESIAN_POINT('',(6.653156825666E-1,-4.539763828703E-1,
4.021192893430E0));
#315=CARTESIAN_POINT('',(6.507220934138E-1,-4.685298743038E-1,
3.963558770611E0));
#316=CARTESIAN_POINT('',(6.371109996764E-1,-4.724409448819E-1,
3.920373748935E0));
#317=CARTESIAN_POINT('',(6.299212598425E-1,-4.724409448819E-1,
3.897637795276E0));
#319=CURVE_STYLE('',#29,POSITIVE_LENGTH_MEASURE(2.E-2),#15);
#320=PRESENTATION_STYLE_ASSIGNMENT((#319));
#321=STYLED_ITEM('',(#320),#318);
#322=DIRECTION('',(0.E0,0.E0,1.E0));
#323=VECTOR('',#322,4.039171926025E0);
#324=CARTESIAN_POINT('',(6.692913385827E-1,-4.330708661417E-1,
3.007606387796E-2));
#325=LINE('',#324,#323);
#326=CURVE_STYLE('',#29,POSITIVE_LENGTH_MEASURE(2.E-2),#15);
#327=PRESENTATION_STYLE_ASSIGNMENT((#326));
#328=STYLED_ITEM('',(#327),#325);
#329=CARTESIAN_POINT('',(4.724409448819E-1,-9.842519685039E-2,
4.290846148729E0));
#330=CARTESIAN_POINT('',(4.724409448819E-1,-9.621375031262E-2,
4.290956859531E0));
#331=CARTESIAN_POINT('',(4.726230411535E-1,-9.180602653181E-2,
4.291140240262E0));
#332=CARTESIAN_POINT('',(4.734599563598E-1,-8.521325807661E-2,
4.291303519509E0));
#333=CARTESIAN_POINT('',(4.743863986164E-1,-8.088917561349E-2,
4.291338582677E0));
#334=CARTESIAN_POINT('',(4.749412727124E-1,-7.874015748034E-2,
4.291338582677E0));
#336=CURVE_STYLE('',#29,POSITIVE_LENGTH_MEASURE(2.E-2),#15);
#337=PRESENTATION_STYLE_ASSIGNMENT((#336));
#338=STYLED_ITEM('',(#337),#335);
#339=CARTESIAN_POINT('',(6.299212598425E-1,-9.842519685039E-2,
4.290846148729E0));
#340=CARTESIAN_POINT('',(6.299212598425E-1,-1.069311430990E-1,
4.290420318796E0));
#341=CARTESIAN_POINT('',(6.273083402224E-1,-1.230743823916E-1,
4.289075080425E0));
#342=CARTESIAN_POINT('',(6.158431426144E-1,-1.456815330794E-1,
4.285794806562E0));
#343=CARTESIAN_POINT('',(5.978420827907E-1,-1.634906345504E-1,
4.282203194683E0));
#344=CARTESIAN_POINT('',(5.754160463312E-1,-1.746860869724E-1,
4.279490915928E0));
#345=CARTESIAN_POINT('',(5.511832896236E-1,-1.784067852075E-1,
4.278509447143E0));
#346=CARTESIAN_POINT('',(5.268316566319E-1,-1.746714684405E-1,
4.279494874983E0));
#347=CARTESIAN_POINT('',(5.042938450844E-1,-1.633519525678E-1,
4.282236207562E0));
#348=CARTESIAN_POINT('',(4.863859268761E-1,-1.454283780913E-1,
4.285837479629E0));
#349=CARTESIAN_POINT('',(4.750299415233E-1,-1.229955573468E-1,
4.289080681813E0));
#350=CARTESIAN_POINT('',(4.724409448819E-1,-1.069017432510E-1,
4.290421790630E0));
#351=CARTESIAN_POINT('',(4.724409448819E-1,-9.842519685039E-2,
4.290846148729E0));
#353=CURVE_STYLE('',#29,POSITIVE_LENGTH_MEASURE(2.E-2),#15);
#354=PRESENTATION_STYLE_ASSIGNMENT((#353));
#355=STYLED_ITEM('',(#354),#352);
#356=CARTESIAN_POINT('',(6.274209320120E-1,-7.874015748030E-2,
4.291338582677E0));
#357=CARTESIAN_POINT('',(6.279758060044E-1,-8.088917521243E-2,
4.291338582677E0));
#358=CARTESIAN_POINT('',(6.289022320915E-1,-8.521326148213E-2,
4.291303519465E0));
#359=CARTESIAN_POINT('',(6.297391470186E-1,-9.180602765875E-2,
4.291140240209E0));
#360=CARTESIAN_POINT('',(6.299212598425E-1,-9.621375088132E-2,
4.290956859503E0));
#361=CARTESIAN_POINT('',(6.299212598425E-1,-9.842519685039E-2,
4.290846148729E0));
#363=CURVE_STYLE('',#29,POSITIVE_LENGTH_MEASURE(2.E-2),#15);
#364=PRESENTATION_STYLE_ASSIGNMENT((#363));
#365=STYLED_ITEM('',(#364),#362);
#366=DIRECTION('',(-1.E0,3.009531638584E-13,2.121255780500E-14));
#367=VECTOR('',#366,4.187040657072E-2);
#368=CARTESIAN_POINT('',(6.692913385827E-1,-7.874015748031E-2,
4.291338582677E0));
#369=LINE('',#368,#367);
#370=CURVE_STYLE('',#29,POSITIVE_LENGTH_MEASURE(2.E-2),#15);
#371=PRESENTATION_STYLE_ASSIGNMENT((#370));
#372=STYLED_ITEM('',(#371),#369);
#373=DIRECTION('',(1.E0,0.E0,0.E0));
#374=VECTOR('',#373,1.259842519685E0);
#375=CARTESIAN_POINT('',(-6.299212598425E-1,-4.724409448819E-1,
3.897637795276E0));
#376=LINE('',#375,#374);
#377=CURVE_STYLE('',#29,POSITIVE_LENGTH_MEASURE(2.E-2),#15);
#378=PRESENTATION_STYLE_ASSIGNMENT((#377));
#379=STYLED_ITEM('',(#378),#376);
#380=DIRECTION('',(-1.E0,1.770756225561E-14,0.E0));
#381=VECTOR('',#380,1.144232611295E0);
#382=CARTESIAN_POINT('',(4.749412727124E-1,-7.874015748034E-2,
4.291338582677E0));
#383=LINE('',#382,#381);
#384=CURVE_STYLE('',#29,POSITIVE_LENGTH_MEASURE(2.E-2),#15);
#385=PRESENTATION_STYLE_ASSIGNMENT((#384));
#386=STYLED_ITEM('',(#385),#383);
#387=CARTESIAN_POINT('',(-5.561023622047E-1,-1.181102362205E-1,
4.289365132719E0));
#388=CARTESIAN_POINT('',(-5.561023622047E-1,-1.229524815154E-1,
4.288878468756E0));
#389=CARTESIAN_POINT('',(-5.580519899166E-1,-1.317847910349E-1,
4.287816072815E0));
#390=CARTESIAN_POINT('',(-5.656579688336E-1,-1.432017279253E-1,
4.286067003587E0));
#391=CARTESIAN_POINT('',(-5.769835106978E-1,-1.507242429715E-1,
4.284711987972E0));
#392=CARTESIAN_POINT('',(-5.9050349E-1,-1.534627165826E-1,4.284180905809E0));
#393=CARTESIAN_POINT('',(-6.040157932418E-1,-1.507634617680E-1,
4.284704254133E0));
#394=CARTESIAN_POINT('',(-6.154087427022E-1,-1.432703188573E-1,
4.286056476904E0));
#395=CARTESIAN_POINT('',(-6.230715069488E-1,-1.316939020243E-1,
4.287829323779E0));
#396=CARTESIAN_POINT('',(-6.250000000001E-1,-1.229112676785E-1,
4.288882610902E0));
#397=CARTESIAN_POINT('',(-6.250000000001E-1,-1.181102362205E-1,
4.289365132719E0));
#399=CURVE_STYLE('',#29,POSITIVE_LENGTH_MEASURE(2.E-2),#15);
#400=PRESENTATION_STYLE_ASSIGNMENT((#399));
#401=STYLED_ITEM('',(#400),#398);
#402=CARTESIAN_POINT('',(5.511811023622E-1,-9.842519685039E-2,
4.576771653543E0));
#403=DIRECTION('',(0.E0,0.E0,1.E0));
#404=DIRECTION('',(1.E0,0.E0,0.E0));
#405=AXIS2_PLACEMENT_3D('',#402,#403,#404);
#407=CURVE_STYLE('',#29,POSITIVE_LENGTH_MEASURE(2.E-2),#15);
#408=PRESENTATION_STYLE_ASSIGNMENT((#407));
#409=STYLED_ITEM('',(#408),#406);
#410=DIRECTION('',(0.E0,0.E0,-1.E0));
#411=VECTOR('',#410,2.859255048142E-1);
#412=CARTESIAN_POINT('',(6.299212598425E-1,-9.842519685039E-2,
4.576771653543E0));
#413=LINE('',#412,#411);
#414=CURVE_STYLE('',#29,POSITIVE_LENGTH_MEASURE(2.E-2),#15);
#415=PRESENTATION_STYLE_ASSIGNMENT((#414));
#416=STYLED_ITEM('',(#415),#413);
#417=CARTESIAN_POINT('',(5.511811023622E-1,-9.842519685039E-2,
4.576771653543E0));
#418=DIRECTION('',(0.E0,0.E0,1.E0));
#419=DIRECTION('',(-1.E0,0.E0,0.E0));
#420=AXIS2_PLACEMENT_3D('',#417,#418,#419);
#422=CURVE_STYLE('',#29,POSITIVE_LENGTH_MEASURE(2.E-2),#15);
#423=PRESENTATION_STYLE_ASSIGNMENT((#422));
#424=STYLED_ITEM('',(#423),#421);
#425=DIRECTION('',(-3.844080978691E-14,0.E0,-1.E0));
#426=VECTOR('',#425,2.859255048142E-1);
#427=CARTESIAN_POINT('',(4.724409448819E-1,-9.842519685039E-2,
4.576771653543E0));
#428=LINE('',#427,#426);
#429=CURVE_STYLE('',#29,POSITIVE_LENGTH_MEASURE(2.E-2),#15);
#430=PRESENTATION_STYLE_ASSIGNMENT((#429));
#431=STYLED_ITEM('',(#430),#428);
#432=DIRECTION('',(0.E0,-1.E0,0.E0));
#433=VECTOR('',#432,1.574803149606E-1);
#434=CARTESIAN_POINT('',(6.692913385827E-1,7.874015748032E-2,4.291338582677E0));
#435=LINE('',#434,#433);
#436=CURVE_STYLE('',#29,POSITIVE_LENGTH_MEASURE(2.E-2),#15);
#437=PRESENTATION_STYLE_ASSIGNMENT((#436));
#438=STYLED_ITEM('',(#437),#435);
#439=CARTESIAN_POINT('',(6.692913385827E-1,7.874015748031E-2,3.897637795276E0));
#440=DIRECTION('',(1.E0,0.E0,0.E0));
#441=DIRECTION('',(0.E0,9.E-1,4.358898943541E-1));
#442=AXIS2_PLACEMENT_3D('',#439,#440,#441);
#444=CURVE_STYLE('',#29,POSITIVE_LENGTH_MEASURE(2.E-2),#15);
#445=PRESENTATION_STYLE_ASSIGNMENT((#444));
#446=STYLED_ITEM('',(#445),#443);
#447=CARTESIAN_POINT('',(6.692913385827E-1,3.543307086614E-1,
1.181102362205E-1));
#448=DIRECTION('',(1.E0,0.E0,0.E0));
#449=DIRECTION('',(0.E0,0.E0,-1.E0));
#450=AXIS2_PLACEMENT_3D('',#447,#448,#449);
#452=CURVE_STYLE('',#29,POSITIVE_LENGTH_MEASURE(2.E-2),#15);
#453=PRESENTATION_STYLE_ASSIGNMENT((#452));
#454=STYLED_ITEM('',(#453),#451);
#455=CARTESIAN_POINT('',(6.692913385827E-1,-3.543307086614E-1,
1.181102362205E-1));
#456=DIRECTION('',(1.E0,0.E0,0.E0));
#457=DIRECTION('',(0.E0,-6.666666666667E-1,-7.453559924999E-1));
#458=AXIS2_PLACEMENT_3D('',#455,#456,#457);
#460=CURVE_STYLE('',#29,POSITIVE_LENGTH_MEASURE(2.E-2),#15);
#461=PRESENTATION_STYLE_ASSIGNMENT((#460));
#462=STYLED_ITEM('',(#461),#459);
#463=CARTESIAN_POINT('',(6.692913385827E-1,-7.874015748031E-2,
3.897637795276E0));
#464=DIRECTION('',(1.E0,0.E0,0.E0));
#465=DIRECTION('',(0.E0,0.E0,1.E0));
#466=AXIS2_PLACEMENT_3D('',#463,#464,#465);
#468=CURVE_STYLE('',#29,POSITIVE_LENGTH_MEASURE(2.E-2),#15);
#469=PRESENTATION_STYLE_ASSIGNMENT((#468));
#470=STYLED_ITEM('',(#469),#467);
#471=DIRECTION('',(0.E0,0.E0,-1.E0));
#472=VECTOR('',#471,4.039171926025E0);
#473=CARTESIAN_POINT('',(6.692913385827E-1,4.330708661417E-1,4.069247989903E0));
#474=LINE('',#473,#472);
#475=CURVE_STYLE('',#29,POSITIVE_LENGTH_MEASURE(2.E-2),#15);
#476=PRESENTATION_STYLE_ASSIGNMENT((#475));
#477=STYLED_ITEM('',(#476),#474);
#478=CARTESIAN_POINT('',(6.299212598425E-1,4.724409448819E-1,3.897637795276E0));
#479=CARTESIAN_POINT('',(6.371111536675E-1,4.724409448819E-1,3.920374235897E0));
#480=CARTESIAN_POINT('',(6.507223697566E-1,4.685296874628E-1,3.963559903731E0));
#481=CARTESIAN_POINT('',(6.653156385761E-1,4.539763638521E-1,4.021192738066E0));
#482=CARTESIAN_POINT('',(6.692913385827E-1,4.403502775066E-1,4.054217886399E0));
#483=CARTESIAN_POINT('',(6.692913385827E-1,4.330708661417E-1,4.069247989903E0));
#485=CURVE_STYLE('',#29,POSITIVE_LENGTH_MEASURE(2.E-2),#15);
#486=PRESENTATION_STYLE_ASSIGNMENT((#485));
#487=STYLED_ITEM('',(#486),#484);
#488=DIRECTION('',(0.E0,0.E0,1.E0));
#489=VECTOR('',#488,3.779527559055E0);
#490=CARTESIAN_POINT('',(6.299212598425E-1,4.724409448819E-1,
1.181102362205E-1));
#491=LINE('',#490,#489);
#492=CURVE_STYLE('',#29,POSITIVE_LENGTH_MEASURE(2.E-2),#15);
#493=PRESENTATION_STYLE_ASSIGNMENT((#492));
#494=STYLED_ITEM('',(#493),#491);
#495=CARTESIAN_POINT('',(-6.692913385827E-1,4.330708661417E-1,
3.007606387796E-2));
#496=CARTESIAN_POINT('',(-6.692913385827E-1,4.384823273772E-1,
3.491622194999E-2));
#497=CARTESIAN_POINT('',(-6.671135519431E-1,4.487961075078E-1,
4.592835289876E-2));
#498=CARTESIAN_POINT('',(-6.584458004841E-1,4.615924942832E-1,
6.661855292932E-2));
#499=CARTESIAN_POINT('',(-6.457629995208E-1,4.701930533079E-1,
9.064347419930E-2));
#500=CARTESIAN_POINT('',(-6.353737350699E-1,4.724409448819E-1,
1.086662720996E-1));
#501=CARTESIAN_POINT('',(-6.299212598425E-1,4.724409448819E-1,
1.181102362205E-1));
#503=CURVE_STYLE('',#29,POSITIVE_LENGTH_MEASURE(2.E-2),#15);
#504=PRESENTATION_STYLE_ASSIGNMENT((#503));
#505=STYLED_ITEM('',(#504),#502);
#506=DIRECTION('',(-1.E0,0.E0,0.E0));
#507=VECTOR('',#506,1.338582677165E0);
#508=CARTESIAN_POINT('',(6.692913385827E-1,3.543307086614E-1,0.E0));
#509=LINE('',#508,#507);
#510=CURVE_STYLE('',#29,POSITIVE_LENGTH_MEASURE(2.E-2),#15);
#511=PRESENTATION_STYLE_ASSIGNMENT((#510));
#512=STYLED_ITEM('',(#511),#509);
#513=CARTESIAN_POINT('',(6.299212598425E-1,4.724409448819E-1,
1.181102362205E-1));
#514=CARTESIAN_POINT('',(6.353751493718E-1,4.724409448819E-1,
1.086638224570E-1));
#515=CARTESIAN_POINT('',(6.457665136051E-1,4.701916541766E-1,
9.063767259769E-2));
#516=CARTESIAN_POINT('',(6.584467775122E-1,4.615911439425E-1,
6.661589422763E-2));
#517=CARTESIAN_POINT('',(6.671149633393E-1,4.487932704456E-1,
4.592462748926E-2));
#518=CARTESIAN_POINT('',(6.692913385827E-1,4.384809607488E-1,
3.491499960042E-2));
#519=CARTESIAN_POINT('',(6.692913385827E-1,4.330708661417E-1,
3.007606387796E-2));
#521=CURVE_STYLE('',#29,POSITIVE_LENGTH_MEASURE(2.E-2),#15);
#522=PRESENTATION_STYLE_ASSIGNMENT((#521));
#523=STYLED_ITEM('',(#522),#520);
#524=DIRECTION('',(1.E0,0.E0,0.E0));
#525=VECTOR('',#524,1.259842519685E0);
#526=CARTESIAN_POINT('',(-6.299212598425E-1,4.724409448819E-1,
1.181102362205E-1));
#527=LINE('',#526,#525);
#528=CURVE_STYLE('',#29,POSITIVE_LENGTH_MEASURE(2.E-2),#15);
#529=PRESENTATION_STYLE_ASSIGNMENT((#528));
#530=STYLED_ITEM('',(#529),#527);
#531=DIRECTION('',(0.E0,0.E0,-1.E0));
#532=VECTOR('',#531,3.779527559055E0);
#533=CARTESIAN_POINT('',(-6.299212598425E-1,4.724409448819E-1,
3.897637795276E0));
#534=LINE('',#533,#532);
#535=CURVE_STYLE('',#29,POSITIVE_LENGTH_MEASURE(2.E-2),#15);
#536=PRESENTATION_STYLE_ASSIGNMENT((#535));
#537=STYLED_ITEM('',(#536),#534);
#538=CARTESIAN_POINT('',(-6.692913385827E-1,4.330708661417E-1,
4.069247989903E0));
#539=CARTESIAN_POINT('',(-6.692913385827E-1,4.403502476084E-1,
4.054217948132E0));
#540=CARTESIAN_POINT('',(-6.653156825666E-1,4.539763828703E-1,
4.021192893430E0));
#541=CARTESIAN_POINT('',(-6.507220934138E-1,4.685298743037E-1,
3.963558770611E0));
#542=CARTESIAN_POINT('',(-6.371109996764E-1,4.724409448819E-1,
3.920373748935E0));
#543=CARTESIAN_POINT('',(-6.299212598425E-1,4.724409448819E-1,
3.897637795276E0));
#545=CURVE_STYLE('',#29,POSITIVE_LENGTH_MEASURE(2.E-2),#15);
#546=PRESENTATION_STYLE_ASSIGNMENT((#545));
#547=STYLED_ITEM('',(#546),#544);
#548=DIRECTION('',(0.E0,0.E0,1.E0));
#549=VECTOR('',#548,4.039171926025E0);
#550=CARTESIAN_POINT('',(-6.692913385827E-1,4.330708661417E-1,
3.007606387796E-2));
#551=LINE('',#550,#549);
#552=CURVE_STYLE('',#29,POSITIVE_LENGTH_MEASURE(2.E-2),#15);
#553=PRESENTATION_STYLE_ASSIGNMENT((#552));
#554=STYLED_ITEM('',(#553),#551);
#555=DIRECTION('',(0.E0,-1.E0,0.E0));
#556=VECTOR('',#555,7.086614173228E-1);
#557=CARTESIAN_POINT('',(6.692913385827E-1,3.543307086614E-1,0.E0));
#558=LINE('',#557,#556);
#559=CURVE_STYLE('',#29,POSITIVE_LENGTH_MEASURE(2.E-2),#15);
#560=PRESENTATION_STYLE_ASSIGNMENT((#559));
#561=STYLED_ITEM('',(#560),#558);
#562=DIRECTION('',(0.E0,1.E0,0.E0));
#563=VECTOR('',#562,7.086614173228E-1);
#564=CARTESIAN_POINT('',(-6.692913385827E-1,-3.543307086614E-1,0.E0));
#565=LINE('',#564,#563);
#566=CURVE_STYLE('',#29,POSITIVE_LENGTH_MEASURE(2.E-2),#15);
#567=PRESENTATION_STYLE_ASSIGNMENT((#566));
#568=STYLED_ITEM('',(#567),#565);
#569=CARTESIAN_POINT('',(-5.905511811024E-1,-1.181102362205E-1,
4.576771653543E0));
#570=DIRECTION('',(0.E0,0.E0,1.E0));
#571=DIRECTION('',(1.E0,0.E0,0.E0));
#572=AXIS2_PLACEMENT_3D('',#569,#570,#571);
#574=CURVE_STYLE('',#29,POSITIVE_LENGTH_MEASURE(2.E-2),#15);
#575=PRESENTATION_STYLE_ASSIGNMENT((#574));
#576=STYLED_ITEM('',(#575),#573);
#577=CARTESIAN_POINT('',(-6.250000000001E-1,-1.181102362205E-1,
4.289365132719E0));
#578=CARTESIAN_POINT('',(-6.250000000001E-1,-1.135999930833E-1,
4.289818429210E0));
#579=CARTESIAN_POINT('',(-6.232042085205E-1,-1.045845158981E-1,
4.290558948087E0));
#580=CARTESIAN_POINT('',(-6.155583509738E-1,-9.313370559990E-2,
4.291115154354E0));
#581=CARTESIAN_POINT('',(-6.040959095766E-1,-8.546062900329E-2,
4.291291503208E0));
#582=CARTESIAN_POINT('',(-5.905503763934E-1,-8.276203832910E-2,
4.291315981380E0));
#583=CARTESIAN_POINT('',(-5.770096285644E-1,-8.545972161732E-2,
4.291291512880E0));
#584=CARTESIAN_POINT('',(-5.655445471247E-1,-9.313251193087E-2,
4.291115208170E0));
#585=CARTESIAN_POINT('',(-5.578977436657E-1,-1.045852837597E-1,
4.290558910804E0));
#586=CARTESIAN_POINT('',(-5.561023622047E-1,-1.136004447463E-1,
4.289818383816E0));
#587=CARTESIAN_POINT('',(-5.561023622047E-1,-1.181102362205E-1,
4.289365132719E0));
#589=CURVE_STYLE('',#29,POSITIVE_LENGTH_MEASURE(2.E-2),#15);
#590=PRESENTATION_STYLE_ASSIGNMENT((#589));
#591=STYLED_ITEM('',(#590),#588);
#592=DIRECTION('',(0.E0,0.E0,-1.E0));
#593=VECTOR('',#592,2.874065208242E-1);
#594=CARTESIAN_POINT('',(-5.561023622047E-1,-1.181102362205E-1,
4.576771653543E0));
#595=LINE('',#594,#593);
#596=CURVE_STYLE('',#29,POSITIVE_LENGTH_MEASURE(2.E-2),#15);
#597=PRESENTATION_STYLE_ASSIGNMENT((#596));
#598=STYLED_ITEM('',(#597),#595);
#599=CARTESIAN_POINT('',(-5.905511811024E-1,-1.181102362205E-1,
4.576771653543E0));
#600=DIRECTION('',(0.E0,0.E0,1.E0));
#601=DIRECTION('',(-1.E0,0.E0,0.E0));
#602=AXIS2_PLACEMENT_3D('',#599,#600,#601);
#604=CURVE_STYLE('',#29,POSITIVE_LENGTH_MEASURE(2.E-2),#15);
#605=PRESENTATION_STYLE_ASSIGNMENT((#604));
#606=STYLED_ITEM('',(#605),#603);
#607=DIRECTION('',(-2.642224493258E-13,2.655744647829E-14,-1.E0));
#608=VECTOR('',#607,2.874065208242E-1);
#609=CARTESIAN_POINT('',(-6.25E-1,-1.181102362205E-1,4.576771653543E0));
#610=LINE('',#609,#608);
#611=CURVE_STYLE('',#29,POSITIVE_LENGTH_MEASURE(2.E-2),#15);
#612=PRESENTATION_STYLE_ASSIGNMENT((#611));
#613=STYLED_ITEM('',(#612),#610);
#614=CARTESIAN_POINT('',(-5.905511811024E-1,1.181102362205E-1,
4.576771653543E0));
#615=DIRECTION('',(0.E0,0.E0,1.E0));
#616=DIRECTION('',(1.E0,0.E0,0.E0));
#617=AXIS2_PLACEMENT_3D('',#614,#615,#616);
#619=CURVE_STYLE('',#29,POSITIVE_LENGTH_MEASURE(2.E-2),#15);
#620=PRESENTATION_STYLE_ASSIGNMENT((#619));
#621=STYLED_ITEM('',(#620),#618);
#622=DIRECTION('',(0.E0,0.E0,-1.E0));
#623=VECTOR('',#622,2.874065208242E-1);
#624=CARTESIAN_POINT('',(-5.561023622047E-1,1.181102362205E-1,
4.576771653543E0));
#625=LINE('',#624,#623);
#626=CURVE_STYLE('',#29,POSITIVE_LENGTH_MEASURE(2.E-2),#15);
#627=PRESENTATION_STYLE_ASSIGNMENT((#626));
#628=STYLED_ITEM('',(#627),#625);
#629=CARTESIAN_POINT('',(-5.905511811024E-1,1.181102362205E-1,
4.576771653543E0));
#630=DIRECTION('',(0.E0,0.E0,1.E0));
#631=DIRECTION('',(-1.E0,0.E0,0.E0));
#632=AXIS2_PLACEMENT_3D('',#629,#630,#631);
#634=CURVE_STYLE('',#29,POSITIVE_LENGTH_MEASURE(2.E-2),#15);
#635=PRESENTATION_STYLE_ASSIGNMENT((#634));
#636=STYLED_ITEM('',(#635),#633);
#637=CARTESIAN_POINT('',(-5.561023622047E-1,1.181102362205E-1,
4.289365132719E0));
#638=CARTESIAN_POINT('',(-5.561023622047E-1,1.135996040415E-1,
4.289818468310E0));
#639=CARTESIAN_POINT('',(-5.578984843474E-1,1.045833158234E-1,
4.290559042490E0));
#640=CARTESIAN_POINT('',(-5.655458100535E-1,9.313135134303E-2,
4.291115241174E0));
#641=CARTESIAN_POINT('',(-5.770108730538E-1,8.545928884722E-2,
4.291291518102E0));
#642=CARTESIAN_POINT('',(-5.905505457020E-1,8.276227195617E-2,
4.291315978459E0));
#643=CARTESIAN_POINT('',(-6.040948104237E-1,8.546012726656E-2,
4.291291509673E0));
#644=CARTESIAN_POINT('',(-6.155592547303E-1,9.313410051453E-2,
4.291115157854E0));
#645=CARTESIAN_POINT('',(-6.232052115411E-1,1.045869604472E-1,
4.290558793107E0));
#646=CARTESIAN_POINT('',(-6.250000000001E-1,1.136011328624E-1,
4.289818314658E0));
#647=CARTESIAN_POINT('',(-6.250000000001E-1,1.181102362205E-1,
4.289365132719E0));
#649=CURVE_STYLE('',#29,POSITIVE_LENGTH_MEASURE(2.E-2),#15);
#650=PRESENTATION_STYLE_ASSIGNMENT((#649));
#651=STYLED_ITEM('',(#650),#648);
#652=DIRECTION('',(-3.480474076645E-13,4.142961650613E-14,-1.E0));
#653=VECTOR('',#652,2.874065208242E-1);
#654=CARTESIAN_POINT('',(-6.25E-1,1.181102362205E-1,4.576771653543E0));
#655=LINE('',#654,#653);
#656=CURVE_STYLE('',#29,POSITIVE_LENGTH_MEASURE(2.E-2),#15);
#657=PRESENTATION_STYLE_ASSIGNMENT((#656));
#658=STYLED_ITEM('',(#657),#655);
#659=CARTESIAN_POINT('',(-5.905511811024E-1,-3.937007874016E-2,
4.576771653543E0));
#660=DIRECTION('',(0.E0,0.E0,1.E0));
#661=DIRECTION('',(1.E0,0.E0,0.E0));
#662=AXIS2_PLACEMENT_3D('',#659,#660,#661);
#664=CURVE_STYLE('',#29,POSITIVE_LENGTH_MEASURE(2.E-2),#15);
#665=PRESENTATION_STYLE_ASSIGNMENT((#664));
#666=STYLED_ITEM('',(#665),#663);
#667=DIRECTION('',(0.E0,0.E0,-1.E0));
#668=VECTOR('',#667,2.854330708661E-1);
#669=CARTESIAN_POINT('',(-5.561023622047E-1,-3.937007874016E-2,
4.576771653543E0));
#670=LINE('',#669,#668);
#671=CURVE_STYLE('',#29,POSITIVE_LENGTH_MEASURE(2.E-2),#15);
#672=PRESENTATION_STYLE_ASSIGNMENT((#671));
#673=STYLED_ITEM('',(#672),#670);
#674=CARTESIAN_POINT('',(-5.905511811024E-1,-3.937007874016E-2,
4.576771653543E0));
#675=DIRECTION('',(0.E0,0.E0,1.E0));
#676=DIRECTION('',(-1.E0,0.E0,0.E0));
#677=AXIS2_PLACEMENT_3D('',#674,#675,#676);
#679=CURVE_STYLE('',#29,POSITIVE_LENGTH_MEASURE(2.E-2),#15);
#680=PRESENTATION_STYLE_ASSIGNMENT((#679));
#681=STYLED_ITEM('',(#680),#678);
#682=DIRECTION('',(0.E0,0.E0,-1.E0));
#683=VECTOR('',#682,2.854330708661E-1);
#684=CARTESIAN_POINT('',(-6.25E-1,-3.937007874016E-2,4.576771653543E0));
#685=LINE('',#684,#683);
#686=CURVE_STYLE('',#29,POSITIVE_LENGTH_MEASURE(2.E-2),#15);
#687=PRESENTATION_STYLE_ASSIGNMENT((#686));
#688=STYLED_ITEM('',(#687),#685);
#689=CARTESIAN_POINT('',(-6.692913385827E-1,-3.543307086614E-1,0.E0));
#690=CARTESIAN_POINT('',(-6.692913385827E-1,-4.330708661417E-1,
3.007606387796E-2));
#691=VERTEX_POINT('',#689);
#692=VERTEX_POINT('',#690);
#693=CARTESIAN_POINT('',(6.274209320120E-1,7.874015748032E-2,4.291338582677E0));
#694=CARTESIAN_POINT('',(4.749412727125E-1,7.874015748031E-2,4.291338582677E0));
#695=VERTEX_POINT('',#693);
#696=VERTEX_POINT('',#694);
#697=CARTESIAN_POINT('',(-6.692913385827E-1,7.874015748031E-2,
4.291338582677E0));
#698=CARTESIAN_POINT('',(-6.692913385827E-1,4.330708661417E-1,
4.069247989903E0));
#699=VERTEX_POINT('',#697);
#700=VERTEX_POINT('',#698);
#701=VERTEX_POINT('',#252);
#702=VERTEX_POINT('',#257);
#703=VERTEX_POINT('',#312);
#704=VERTEX_POINT('',#317);
#705=CARTESIAN_POINT('',(6.299212598425E-1,-4.724409448819E-1,
1.181102362205E-1));
#706=CARTESIAN_POINT('',(-6.299212598425E-1,-4.724409448819E-1,
1.181102362205E-1));
#707=VERTEX_POINT('',#705);
#708=VERTEX_POINT('',#706);
#709=VERTEX_POINT('',#329);
#710=VERTEX_POINT('',#334);
#711=CARTESIAN_POINT('',(-6.25E-1,-3.937007874016E-2,4.291338582677E0));
#712=CARTESIAN_POINT('',(-5.561023622047E-1,-3.937007874016E-2,
4.291338582677E0));
#713=VERTEX_POINT('',#711);
#714=VERTEX_POINT('',#712);
#715=VERTEX_POINT('',#191);
#716=VERTEX_POINT('',#201);
#717=CARTESIAN_POINT('',(-6.299212598425E-1,4.724409448819E-1,
1.181102362205E-1));
#718=CARTESIAN_POINT('',(6.299212598425E-1,4.724409448819E-1,
1.181102362205E-1));
#719=VERTEX_POINT('',#717);
#720=VERTEX_POINT('',#718);
#721=CARTESIAN_POINT('',(6.692913385827E-1,4.330708661417E-1,4.069247989903E0));
#722=CARTESIAN_POINT('',(6.692913385827E-1,7.874015748031E-2,4.291338582677E0));
#723=VERTEX_POINT('',#721);
#724=VERTEX_POINT('',#722);
#725=CARTESIAN_POINT('',(6.299212598425E-1,4.724409448819E-1,3.897637795276E0));
#726=CARTESIAN_POINT('',(-6.299212598425E-1,4.724409448819E-1,
3.897637795276E0));
#727=VERTEX_POINT('',#725);
#728=VERTEX_POINT('',#726);
#729=CARTESIAN_POINT('',(-6.692913385827E-1,-7.874015748031E-2,
4.291338582677E0));
#730=VERTEX_POINT('',#729);
#731=CARTESIAN_POINT('',(-6.25E-1,3.937007874016E-2,4.291338582677E0));
#732=CARTESIAN_POINT('',(-5.561023622047E-1,3.937007874016E-2,
4.291338582677E0));
#733=VERTEX_POINT('',#731);
#734=VERTEX_POINT('',#732);
#735=CARTESIAN_POINT('',(6.692913385827E-1,-4.330708661417E-1,
3.007606387796E-2));
#736=VERTEX_POINT('',#735);
#737=CARTESIAN_POINT('',(-6.692913385827E-1,3.543307086614E-1,0.E0));
#738=VERTEX_POINT('',#737);
#739=VERTEX_POINT('',#356);
#740=VERTEX_POINT('',#361);
#741=CARTESIAN_POINT('',(-6.692913385827E-1,4.330708661417E-1,
3.007606387796E-2));
#742=VERTEX_POINT('',#741);
#743=CARTESIAN_POINT('',(6.692913385827E-1,3.543307086614E-1,0.E0));
#744=CARTESIAN_POINT('',(6.692913385827E-1,-3.543307086614E-1,0.E0));
#745=VERTEX_POINT('',#743);
#746=VERTEX_POINT('',#744);
#747=CARTESIAN_POINT('',(6.692913385827E-1,-7.874015748031E-2,
4.291338582677E0));
#748=VERTEX_POINT('',#747);
#749=VERTEX_POINT('',#165);
#750=CARTESIAN_POINT('',(6.692913385827E-1,4.330708661417E-1,
3.007606387796E-2));
#751=VERTEX_POINT('',#750);
#752=VERTEX_POINT('',#155);
#753=VERTEX_POINT('',#387);
#754=VERTEX_POINT('',#397);
#755=CARTESIAN_POINT('',(-5.561023622047E-1,3.937007874016E-2,
4.576771653543E0));
#756=CARTESIAN_POINT('',(-6.25E-1,3.937007874016E-2,4.576771653543E0));
#757=VERTEX_POINT('',#755);
#758=VERTEX_POINT('',#756);
#759=CARTESIAN_POINT('',(-5.561023622047E-1,-3.937007874016E-2,
4.576771653543E0));
#760=CARTESIAN_POINT('',(-6.25E-1,-3.937007874016E-2,4.576771653543E0));
#761=VERTEX_POINT('',#759);
#762=VERTEX_POINT('',#760);
#763=CARTESIAN_POINT('',(6.299212598425E-1,9.842519685039E-2,4.576771653543E0));
#764=CARTESIAN_POINT('',(4.724409448819E-1,9.842519685039E-2,4.576771653543E0));
#765=VERTEX_POINT('',#763);
#766=VERTEX_POINT('',#764);
#767=CARTESIAN_POINT('',(-5.561023622047E-1,-1.181102362205E-1,
4.576771653543E0));
#768=CARTESIAN_POINT('',(-6.25E-1,-1.181102362205E-1,4.576771653543E0));
#769=VERTEX_POINT('',#767);
#770=VERTEX_POINT('',#768);
#771=CARTESIAN_POINT('',(4.724409448819E-1,-9.842519685039E-2,
4.576771653543E0));
#772=CARTESIAN_POINT('',(6.299212598425E-1,-9.842519685039E-2,
4.576771653543E0));
#773=VERTEX_POINT('',#771);
#774=VERTEX_POINT('',#772);
#775=CARTESIAN_POINT('',(-6.25E-1,1.181102362205E-1,4.576771653543E0));
#776=CARTESIAN_POINT('',(-5.561023622047E-1,1.181102362205E-1,
4.576771653543E0));
#777=VERTEX_POINT('',#775);
#778=VERTEX_POINT('',#776);
#779=CARTESIAN_POINT('',(-5.905511811024E-1,3.937007874016E-2,
4.251968503937E0));
#780=DIRECTION('',(0.E0,0.E0,1.E0));
#781=DIRECTION('',(1.E0,0.E0,0.E0));
#782=AXIS2_PLACEMENT_3D('',#779,#780,#781);
#783=CYLINDRICAL_SURFACE('',#782,3.444881889764E-2);
#785=ORIENTED_EDGE('',*,*,#784,.T.);
#787=ORIENTED_EDGE('',*,*,#786,.T.);
#789=ORIENTED_EDGE('',*,*,#788,.T.);
#791=ORIENTED_EDGE('',*,*,#790,.F.);
#792=EDGE_LOOP('',(#785,#787,#789,#791));
#793=FACE_OUTER_BOUND('',#792,.F.);
#795=FILL_AREA_STYLE_COLOUR('',#22);
#796=FILL_AREA_STYLE('',(#795));
#797=SURFACE_STYLE_FILL_AREA(#796);
#798=SURFACE_SIDE_STYLE('',(#797));
#799=SURFACE_STYLE_USAGE(.BOTH.,#798);
#800=PRESENTATION_STYLE_ASSIGNMENT((#799));
#801=OVER_RIDING_STYLED_ITEM('',(#800),#794,#23);
#802=CARTESIAN_POINT('',(0.E0,0.E0,4.576771653543E0));
#803=DIRECTION('',(0.E0,0.E0,1.E0));
#804=DIRECTION('',(1.E0,0.E0,0.E0));
#805=AXIS2_PLACEMENT_3D('',#802,#803,#804);
#806=PLANE('',#805);
#807=ORIENTED_EDGE('',*,*,#784,.F.);
#809=ORIENTED_EDGE('',*,*,#808,.F.);
#810=EDGE_LOOP('',(#807,#809));
#811=FACE_OUTER_BOUND('',#810,.F.);
#813=FILL_AREA_STYLE_COLOUR('',#8);
#814=FILL_AREA_STYLE('',(#813));
#815=SURFACE_STYLE_FILL_AREA(#814);
#816=SURFACE_SIDE_STYLE('',(#815));
#817=SURFACE_STYLE_USAGE(.POSITIVE.,#816);
#818=FILL_AREA_STYLE_COLOUR('',#15);
#819=FILL_AREA_STYLE('',(#818));
#820=SURFACE_STYLE_FILL_AREA(#819);
#821=SURFACE_SIDE_STYLE('',(#820));
#822=SURFACE_STYLE_USAGE(.NEGATIVE.,#821);
#823=PRESENTATION_STYLE_ASSIGNMENT((#817,#822));
#824=OVER_RIDING_STYLED_ITEM('',(#823),#812,#23);
#825=CARTESIAN_POINT('',(0.E0,0.E0,4.576771653543E0));
#826=DIRECTION('',(0.E0,0.E0,1.E0));
#827=DIRECTION('',(1.E0,0.E0,0.E0));
#828=AXIS2_PLACEMENT_3D('',#825,#826,#827);
#829=PLANE('',#828);
#831=ORIENTED_EDGE('',*,*,#830,.F.);
#833=ORIENTED_EDGE('',*,*,#832,.F.);
#834=EDGE_LOOP('',(#831,#833));
#835=FACE_OUTER_BOUND('',#834,.F.);
#837=FILL_AREA_STYLE_COLOUR('',#8);
#838=FILL_AREA_STYLE('',(#837));
#839=SURFACE_STYLE_FILL_AREA(#838);
#840=SURFACE_SIDE_STYLE('',(#839));
#841=SURFACE_STYLE_USAGE(.POSITIVE.,#840);
#842=FILL_AREA_STYLE_COLOUR('',#15);
#843=FILL_AREA_STYLE('',(#842));
#844=SURFACE_STYLE_FILL_AREA(#843);
#845=SURFACE_SIDE_STYLE('',(#844));
#846=SURFACE_STYLE_USAGE(.NEGATIVE.,#845);
#847=PRESENTATION_STYLE_ASSIGNMENT((#841,#846));
#848=OVER_RIDING_STYLED_ITEM('',(#847),#836,#23);
#849=CARTESIAN_POINT('',(0.E0,0.E0,4.576771653543E0));
#850=DIRECTION('',(0.E0,0.E0,1.E0));
#851=DIRECTION('',(1.E0,0.E0,0.E0));
#852=AXIS2_PLACEMENT_3D('',#849,#850,#851);
#853=PLANE('',#852);
#855=ORIENTED_EDGE('',*,*,#854,.F.);
#857=ORIENTED_EDGE('',*,*,#856,.F.);
#858=EDGE_LOOP('',(#855,#857));
#859=FACE_OUTER_BOUND('',#858,.F.);
#861=FILL_AREA_STYLE_COLOUR('',#8);
#862=FILL_AREA_STYLE('',(#861));
#863=SURFACE_STYLE_FILL_AREA(#862);
#864=SURFACE_SIDE_STYLE('',(#863));
#865=SURFACE_STYLE_USAGE(.POSITIVE.,#864);
#866=FILL_AREA_STYLE_COLOUR('',#15);
#867=FILL_AREA_STYLE('',(#866));
#868=SURFACE_STYLE_FILL_AREA(#867);
#869=SURFACE_SIDE_STYLE('',(#868));
#870=SURFACE_STYLE_USAGE(.NEGATIVE.,#869);
#871=PRESENTATION_STYLE_ASSIGNMENT((#865,#870));
#872=OVER_RIDING_STYLED_ITEM('',(#871),#860,#23);
#873=CARTESIAN_POINT('',(0.E0,0.E0,4.576771653543E0));
#874=DIRECTION('',(0.E0,0.E0,1.E0));
#875=DIRECTION('',(1.E0,0.E0,0.E0));
#876=AXIS2_PLACEMENT_3D('',#873,#874,#875);
#877=PLANE('',#876);
#879=ORIENTED_EDGE('',*,*,#878,.F.);
#881=ORIENTED_EDGE('',*,*,#880,.F.);
#882=EDGE_LOOP('',(#879,#881));
#883=FACE_OUTER_BOUND('',#882,.F.);
#885=FILL_AREA_STYLE_COLOUR('',#8);
#886=FILL_AREA_STYLE('',(#885));
#887=SURFACE_STYLE_FILL_AREA(#886);
#888=SURFACE_SIDE_STYLE('',(#887));
#889=SURFACE_STYLE_USAGE(.POSITIVE.,#888);
#890=FILL_AREA_STYLE_COLOUR('',#15);
#891=FILL_AREA_STYLE('',(#890));
#892=SURFACE_STYLE_FILL_AREA(#891);
#893=SURFACE_SIDE_STYLE('',(#892));
#894=SURFACE_STYLE_USAGE(.NEGATIVE.,#893);
#895=PRESENTATION_STYLE_ASSIGNMENT((#889,#894));
#896=OVER_RIDING_STYLED_ITEM('',(#895),#884,#23);
#897=CARTESIAN_POINT('',(0.E0,0.E0,4.576771653543E0));
#898=DIRECTION('',(0.E0,0.E0,1.E0));
#899=DIRECTION('',(1.E0,0.E0,0.E0));
#900=AXIS2_PLACEMENT_3D('',#897,#898,#899);
#901=PLANE('',#900);
#903=ORIENTED_EDGE('',*,*,#902,.F.);
#905=ORIENTED_EDGE('',*,*,#904,.F.);
#906=EDGE_LOOP('',(#903,#905));
#907=FACE_OUTER_BOUND('',#906,.F.);
#909=FILL_AREA_STYLE_COLOUR('',#8);
#910=FILL_AREA_STYLE('',(#909));
#911=SURFACE_STYLE_FILL_AREA(#910);
#912=SURFACE_SIDE_STYLE('',(#911));
#913=SURFACE_STYLE_USAGE(.POSITIVE.,#912);
#914=FILL_AREA_STYLE_COLOUR('',#15);
#915=FILL_AREA_STYLE('',(#914));
#916=SURFACE_STYLE_FILL_AREA(#915);
#917=SURFACE_SIDE_STYLE('',(#916));
#918=SURFACE_STYLE_USAGE(.NEGATIVE.,#917);
#919=PRESENTATION_STYLE_ASSIGNMENT((#913,#918));
#920=OVER_RIDING_STYLED_ITEM('',(#919),#908,#23);
#921=CARTESIAN_POINT('',(0.E0,0.E0,4.576771653543E0));
#922=DIRECTION('',(0.E0,0.E0,1.E0));
#923=DIRECTION('',(1.E0,0.E0,0.E0));
#924=AXIS2_PLACEMENT_3D('',#921,#922,#923);
#925=PLANE('',#924);
#927=ORIENTED_EDGE('',*,*,#926,.F.);
#929=ORIENTED_EDGE('',*,*,#928,.F.);
#930=EDGE_LOOP('',(#927,#929));
#931=FACE_OUTER_BOUND('',#930,.F.);
#933=FILL_AREA_STYLE_COLOUR('',#8);
#934=FILL_AREA_STYLE('',(#933));
#935=SURFACE_STYLE_FILL_AREA(#934);
#936=SURFACE_SIDE_STYLE('',(#935));
#937=SURFACE_STYLE_USAGE(.POSITIVE.,#936);
#938=FILL_AREA_STYLE_COLOUR('',#15);
#939=FILL_AREA_STYLE('',(#938));
#940=SURFACE_STYLE_FILL_AREA(#939);
#941=SURFACE_SIDE_STYLE('',(#940));
#942=SURFACE_STYLE_USAGE(.NEGATIVE.,#941);
#943=PRESENTATION_STYLE_ASSIGNMENT((#937,#942));
#944=OVER_RIDING_STYLED_ITEM('',(#943),#932,#23);
#945=CARTESIAN_POINT('',(-5.905511811024E-1,3.937007874016E-2,
4.251968503937E0));
#946=DIRECTION('',(0.E0,0.E0,1.E0));
#947=DIRECTION('',(1.E0,0.E0,0.E0));
#948=AXIS2_PLACEMENT_3D('',#945,#946,#947);
#949=CYLINDRICAL_SURFACE('',#948,3.444881889764E-2);
#950=ORIENTED_EDGE('',*,*,#808,.T.);
#951=ORIENTED_EDGE('',*,*,#790,.T.);
#953=ORIENTED_EDGE('',*,*,#952,.T.);
#954=ORIENTED_EDGE('',*,*,#786,.F.);
#955=EDGE_LOOP('',(#950,#951,#953,#954));
#956=FACE_OUTER_BOUND('',#955,.F.);
#958=FILL_AREA_STYLE_COLOUR('',#22);
#959=FILL_AREA_STYLE('',(#958));
#960=SURFACE_STYLE_FILL_AREA(#959);
#961=SURFACE_SIDE_STYLE('',(#960));
#962=SURFACE_STYLE_USAGE(.BOTH.,#961);
#963=PRESENTATION_STYLE_ASSIGNMENT((#962));
#964=OVER_RIDING_STYLED_ITEM('',(#963),#957,#23);
#965=CARTESIAN_POINT('',(0.E0,0.E0,4.291338582677E0));
#966=DIRECTION('',(0.E0,0.E0,1.E0));
#967=DIRECTION('',(1.E0,0.E0,0.E0));
#968=AXIS2_PLACEMENT_3D('',#965,#966,#967);
#969=PLANE('',#968);
#971=ORIENTED_EDGE('',*,*,#970,.F.);
#973=ORIENTED_EDGE('',*,*,#972,.T.);
#975=ORIENTED_EDGE('',*,*,#974,.T.);
#977=ORIENTED_EDGE('',*,*,#976,.T.);
#979=ORIENTED_EDGE('',*,*,#978,.F.);
#981=ORIENTED_EDGE('',*,*,#980,.T.);
#983=ORIENTED_EDGE('',*,*,#982,.T.);
#985=ORIENTED_EDGE('',*,*,#984,.T.);
#986=EDGE_LOOP('',(#971,#973,#975,#977,#979,#981,#983,#985));
#987=FACE_OUTER_BOUND('',#986,.F.);
#989=ORIENTED_EDGE('',*,*,#988,.F.);
#991=ORIENTED_EDGE('',*,*,#990,.F.);
#992=EDGE_LOOP('',(#989,#991));
#993=FACE_BOUND('',#992,.F.);
#994=ORIENTED_EDGE('',*,*,#788,.F.);
#995=ORIENTED_EDGE('',*,*,#952,.F.);
#996=EDGE_LOOP('',(#994,#995));
#997=FACE_BOUND('',#996,.F.);
#999=FILL_AREA_STYLE_COLOUR('',#6);
#1000=FILL_AREA_STYLE('',(#999));
#1001=SURFACE_STYLE_FILL_AREA(#1000);
#1002=SURFACE_SIDE_STYLE('',(#1001));
#1003=SURFACE_STYLE_USAGE(.BOTH.,#1002);
#1004=PRESENTATION_STYLE_ASSIGNMENT((#1003));
#1005=OVER_RIDING_STYLED_ITEM('',(#1004),#998,#23);
#1006=CARTESIAN_POINT('',(5.511811023622E-1,9.842519685039E-2,
4.251968503937E0));
#1007=DIRECTION('',(0.E0,0.E0,1.E0));
#1008=DIRECTION('',(1.E0,0.E0,0.E0));
#1009=AXIS2_PLACEMENT_3D('',#1006,#1007,#1008);
#1010=CYLINDRICAL_SURFACE('',#1009,7.874015748031E-2);
#1011=ORIENTED_EDGE('',*,*,#856,.T.);
#1013=ORIENTED_EDGE('',*,*,#1012,.T.);
#1015=ORIENTED_EDGE('',*,*,#1014,.T.);
#1016=ORIENTED_EDGE('',*,*,#970,.T.);
#1018=ORIENTED_EDGE('',*,*,#1017,.T.);
#1020=ORIENTED_EDGE('',*,*,#1019,.F.);
#1021=EDGE_LOOP('',(#1011,#1013,#1015,#1016,#1018,#1020));
#1022=FACE_OUTER_BOUND('',#1021,.F.);
#1024=FILL_AREA_STYLE_COLOUR('',#14);
#1025=FILL_AREA_STYLE('',(#1024));
#1026=SURFACE_STYLE_FILL_AREA(#1025);
#1027=SURFACE_SIDE_STYLE('',(#1026));
#1028=SURFACE_STYLE_USAGE(.BOTH.,#1027);
#1029=PRESENTATION_STYLE_ASSIGNMENT((#1028));
#1030=OVER_RIDING_STYLED_ITEM('',(#1029),#1023,#23);
#1031=CARTESIAN_POINT('',(5.511811023622E-1,9.842519685039E-2,
4.251968503937E0));
#1032=DIRECTION('',(0.E0,0.E0,1.E0));
#1033=DIRECTION('',(1.E0,0.E0,0.E0));
#1034=AXIS2_PLACEMENT_3D('',#1031,#1032,#1033);
#1035=CYLINDRICAL_SURFACE('',#1034,7.874015748031E-2);
#1036=ORIENTED_EDGE('',*,*,#854,.T.);
#1037=ORIENTED_EDGE('',*,*,#1019,.T.);
#1039=ORIENTED_EDGE('',*,*,#1038,.T.);
#1040=ORIENTED_EDGE('',*,*,#1012,.F.);
#1041=EDGE_LOOP('',(#1036,#1037,#1039,#1040));
#1042=FACE_OUTER_BOUND('',#1041,.F.);
#1044=FILL_AREA_STYLE_COLOUR('',#14);
#1045=FILL_AREA_STYLE('',(#1044));
#1046=SURFACE_STYLE_FILL_AREA(#1045);
#1047=SURFACE_SIDE_STYLE('',(#1046));
#1048=SURFACE_STYLE_USAGE(.BOTH.,#1047);
#1049=PRESENTATION_STYLE_ASSIGNMENT((#1048));
#1050=OVER_RIDING_STYLED_ITEM('',(#1049),#1043,#23);
#1051=CARTESIAN_POINT('',(0.E0,7.874015748031E-2,3.897637795276E0));
#1052=DIRECTION('',(1.E0,0.E0,0.E0));
#1053=DIRECTION('',(0.E0,0.E0,-1.E0));
#1054=AXIS2_PLACEMENT_3D('',#1051,#1052,#1053);
#1055=CYLINDRICAL_SURFACE('',#1054,3.937007874016E-1);
#1056=ORIENTED_EDGE('',*,*,#1014,.F.);
#1057=ORIENTED_EDGE('',*,*,#1038,.F.);
#1058=ORIENTED_EDGE('',*,*,#1017,.F.);
#1059=ORIENTED_EDGE('',*,*,#984,.F.);
#1061=ORIENTED_EDGE('',*,*,#1060,.T.);
#1063=ORIENTED_EDGE('',*,*,#1062,.T.);
#1065=ORIENTED_EDGE('',*,*,#1064,.F.);
#1067=ORIENTED_EDGE('',*,*,#1066,.T.);
#1069=ORIENTED_EDGE('',*,*,#1068,.T.);
#1070=ORIENTED_EDGE('',*,*,#972,.F.);
#1071=EDGE_LOOP('',(#1056,#1057,#1058,#1059,#1061,#1063,#1065,#1067,#1069,
#1070));
#1072=FACE_OUTER_BOUND('',#1071,.F.);
#1074=ORIENTED_EDGE('',*,*,#1073,.F.);
#1076=ORIENTED_EDGE('',*,*,#1075,.F.);
#1077=EDGE_LOOP('',(#1074,#1076));
#1078=FACE_BOUND('',#1077,.F.);
#1080=FILL_AREA_STYLE_COLOUR('',#6);
#1081=FILL_AREA_STYLE('',(#1080));
#1082=SURFACE_STYLE_FILL_AREA(#1081);
#1083=SURFACE_SIDE_STYLE('',(#1082));
#1084=SURFACE_STYLE_USAGE(.BOTH.,#1083);
#1085=PRESENTATION_STYLE_ASSIGNMENT((#1084));
#1086=OVER_RIDING_STYLED_ITEM('',(#1085),#1079,#23);
#1087=CARTESIAN_POINT('',(-6.692913385827E-1,4.724409448819E-1,
4.291338582677E0));
#1088=DIRECTION('',(1.E0,0.E0,0.E0));
#1089=DIRECTION('',(0.E0,1.E0,0.E0));
#1090=AXIS2_PLACEMENT_3D('',#1087,#1088,#1089);
#1091=PLANE('',#1090);
#1093=ORIENTED_EDGE('',*,*,#1092,.T.);
#1095=ORIENTED_EDGE('',*,*,#1094,.F.);
#1097=ORIENTED_EDGE('',*,*,#1096,.T.);
#1099=ORIENTED_EDGE('',*,*,#1098,.F.);
#1101=ORIENTED_EDGE('',*,*,#1100,.T.);
#1102=ORIENTED_EDGE('',*,*,#1060,.F.);
#1103=ORIENTED_EDGE('',*,*,#982,.F.);
#1105=ORIENTED_EDGE('',*,*,#1104,.F.);
#1106=EDGE_LOOP('',(#1093,#1095,#1097,#1099,#1101,#1102,#1103,#1105));
#1107=FACE_OUTER_BOUND('',#1106,.F.);
#1109=FILL_AREA_STYLE_COLOUR('',#6);
#1110=FILL_AREA_STYLE('',(#1109));
#1111=SURFACE_STYLE_FILL_AREA(#1110);
#1112=SURFACE_SIDE_STYLE('',(#1111));
#1113=SURFACE_STYLE_USAGE(.BOTH.,#1112);
#1114=PRESENTATION_STYLE_ASSIGNMENT((#1113));
#1115=OVER_RIDING_STYLED_ITEM('',(#1114),#1108,#23);
#1116=CARTESIAN_POINT('',(-6.299212598425E-1,-4.330708661417E-1,
4.291338582677E0));
#1117=DIRECTION('',(0.E0,0.E0,-1.E0));
#1118=DIRECTION('',(-1.E0,0.E0,0.E0));
#1119=AXIS2_PLACEMENT_3D('',#1116,#1117,#1118);
#1120=CYLINDRICAL_SURFACE('',#1119,3.937007874016E-2);
#1122=ORIENTED_EDGE('',*,*,#1121,.T.);
#1123=ORIENTED_EDGE('',*,*,#1092,.F.);
#1125=ORIENTED_EDGE('',*,*,#1124,.F.);
#1127=ORIENTED_EDGE('',*,*,#1126,.F.);
#1128=EDGE_LOOP('',(#1122,#1123,#1125,#1127));
#1129=FACE_OUTER_BOUND('',#1128,.F.);
#1131=FILL_AREA_STYLE_COLOUR('',#6);
#1132=FILL_AREA_STYLE('',(#1131));
#1133=SURFACE_STYLE_FILL_AREA(#1132);
#1134=SURFACE_SIDE_STYLE('',(#1133));
#1135=SURFACE_STYLE_USAGE(.BOTH.,#1134);
#1136=PRESENTATION_STYLE_ASSIGNMENT((#1135));
#1137=OVER_RIDING_STYLED_ITEM('',(#1136),#1130,#23);
#1138=CARTESIAN_POINT('',(-6.692913385827E-1,-3.543307086614E-1,
1.181102362205E-1));
#1139=DIRECTION('',(1.E0,0.E0,0.E0));
#1140=DIRECTION('',(0.E0,0.E0,-1.E0));
#1141=AXIS2_PLACEMENT_3D('',#1138,#1139,#1140);
#1142=CYLINDRICAL_SURFACE('',#1141,1.181102362205E-1);
#1144=ORIENTED_EDGE('',*,*,#1143,.F.);
#1146=ORIENTED_EDGE('',*,*,#1145,.T.);
#1148=ORIENTED_EDGE('',*,*,#1147,.F.);
#1149=ORIENTED_EDGE('',*,*,#1094,.T.);
#1150=ORIENTED_EDGE('',*,*,#1121,.F.);
#1152=ORIENTED_EDGE('',*,*,#1151,.F.);
#1153=EDGE_LOOP('',(#1144,#1146,#1148,#1149,#1150,#1152));
#1154=FACE_OUTER_BOUND('',#1153,.F.);
#1156=FILL_AREA_STYLE_COLOUR('',#6);
#1157=FILL_AREA_STYLE('',(#1156));
#1158=SURFACE_STYLE_FILL_AREA(#1157);
#1159=SURFACE_SIDE_STYLE('',(#1158));
#1160=SURFACE_STYLE_USAGE(.BOTH.,#1159);
#1161=PRESENTATION_STYLE_ASSIGNMENT((#1160));
#1162=OVER_RIDING_STYLED_ITEM('',(#1161),#1155,#23);
#1163=CARTESIAN_POINT('',(6.299212598425E-1,-4.330708661417E-1,
4.291338582677E0));
#1164=DIRECTION('',(0.E0,0.E0,-1.E0));
#1165=DIRECTION('',(-1.E0,0.E0,0.E0));
#1166=AXIS2_PLACEMENT_3D('',#1163,#1164,#1165);
#1167=CYLINDRICAL_SURFACE('',#1166,3.937007874016E-2);
#1168=ORIENTED_EDGE('',*,*,#1143,.T.);
#1170=ORIENTED_EDGE('',*,*,#1169,.F.);
#1172=ORIENTED_EDGE('',*,*,#1171,.F.);
#1174=ORIENTED_EDGE('',*,*,#1173,.F.);
#1175=EDGE_LOOP('',(#1168,#1170,#1172,#1174));
#1176=FACE_OUTER_BOUND('',#1175,.F.);
#1178=FILL_AREA_STYLE_COLOUR('',#6);
#1179=FILL_AREA_STYLE('',(#1178));
#1180=SURFACE_STYLE_FILL_AREA(#1179);
#1181=SURFACE_SIDE_STYLE('',(#1180));
#1182=SURFACE_STYLE_USAGE(.BOTH.,#1181);
#1183=PRESENTATION_STYLE_ASSIGNMENT((#1182));
#1184=OVER_RIDING_STYLED_ITEM('',(#1183),#1177,#23);
#1185=CARTESIAN_POINT('',(-6.692913385827E-1,-4.724409448819E-1,
4.291338582677E0));
#1186=DIRECTION('',(0.E0,1.E0,0.E0));
#1187=DIRECTION('',(0.E0,0.E0,1.E0));
#1188=AXIS2_PLACEMENT_3D('',#1185,#1186,#1187);
#1189=PLANE('',#1188);
#1190=ORIENTED_EDGE('',*,*,#1169,.T.);
#1191=ORIENTED_EDGE('',*,*,#1151,.T.);
#1192=ORIENTED_EDGE('',*,*,#1126,.T.);
#1194=ORIENTED_EDGE('',*,*,#1193,.T.);
#1195=EDGE_LOOP('',(#1190,#1191,#1192,#1194));
#1196=FACE_OUTER_BOUND('',#1195,.F.);
#1198=FILL_AREA_STYLE_COLOUR('',#6);
#1199=FILL_AREA_STYLE('',(#1198));
#1200=SURFACE_STYLE_FILL_AREA(#1199);
#1201=SURFACE_SIDE_STYLE('',(#1200));
#1202=SURFACE_STYLE_USAGE(.POSITIVE.,#1201);
#1203=FILL_AREA_STYLE_COLOUR('',#5);
#1204=FILL_AREA_STYLE('',(#1203));
#1205=SURFACE_STYLE_FILL_AREA(#1204);
#1206=SURFACE_SIDE_STYLE('',(#1205));
#1207=SURFACE_STYLE_USAGE(.NEGATIVE.,#1206);
#1208=PRESENTATION_STYLE_ASSIGNMENT((#1202,#1207));
#1209=OVER_RIDING_STYLED_ITEM('',(#1208),#1197,#23);
#1210=CARTESIAN_POINT('',(0.E0,-7.874015748031E-2,3.897637795276E0));
#1211=DIRECTION('',(-1.E0,0.E0,0.E0));
#1212=DIRECTION('',(0.E0,0.E0,1.E0));
#1213=AXIS2_PLACEMENT_3D('',#1210,#1211,#1212);
#1214=CYLINDRICAL_SURFACE('',#1213,3.937007874016E-1);
#1216=ORIENTED_EDGE('',*,*,#1215,.F.);
#1218=ORIENTED_EDGE('',*,*,#1217,.F.);
#1220=ORIENTED_EDGE('',*,*,#1219,.F.);
#1221=ORIENTED_EDGE('',*,*,#976,.F.);
#1223=ORIENTED_EDGE('',*,*,#1222,.T.);
#1224=ORIENTED_EDGE('',*,*,#1171,.T.);
#1225=ORIENTED_EDGE('',*,*,#1193,.F.);
#1226=ORIENTED_EDGE('',*,*,#1124,.T.);
#1227=ORIENTED_EDGE('',*,*,#1104,.T.);
#1228=ORIENTED_EDGE('',*,*,#980,.F.);
#1229=EDGE_LOOP('',(#1216,#1218,#1220,#1221,#1223,#1224,#1225,#1226,#1227,
#1228));
#1230=FACE_OUTER_BOUND('',#1229,.F.);
#1232=ORIENTED_EDGE('',*,*,#1231,.F.);
#1234=ORIENTED_EDGE('',*,*,#1233,.F.);
#1235=EDGE_LOOP('',(#1232,#1234));
#1236=FACE_BOUND('',#1235,.F.);
#1238=FILL_AREA_STYLE_COLOUR('',#6);
#1239=FILL_AREA_STYLE('',(#1238));
#1240=SURFACE_STYLE_FILL_AREA(#1239);
#1241=SURFACE_SIDE_STYLE('',(#1240));
#1242=SURFACE_STYLE_USAGE(.BOTH.,#1241);
#1243=PRESENTATION_STYLE_ASSIGNMENT((#1242));
#1244=OVER_RIDING_STYLED_ITEM('',(#1243),#1237,#23);
#1245=CARTESIAN_POINT('',(5.511811023622E-1,-9.842519685039E-2,
4.251968503937E0));
#1246=DIRECTION('',(0.E0,0.E0,1.E0));
#1247=DIRECTION('',(1.E0,0.E0,0.E0));
#1248=AXIS2_PLACEMENT_3D('',#1245,#1246,#1247);
#1249=CYLINDRICAL_SURFACE('',#1248,7.874015748031E-2);
#1250=ORIENTED_EDGE('',*,*,#904,.T.);
#1252=ORIENTED_EDGE('',*,*,#1251,.T.);
#1253=ORIENTED_EDGE('',*,*,#1215,.T.);
#1254=ORIENTED_EDGE('',*,*,#978,.T.);
#1255=ORIENTED_EDGE('',*,*,#1219,.T.);
#1257=ORIENTED_EDGE('',*,*,#1256,.F.);
#1258=EDGE_LOOP('',(#1250,#1252,#1253,#1254,#1255,#1257));
#1259=FACE_OUTER_BOUND('',#1258,.F.);
#1261=FILL_AREA_STYLE_COLOUR('',#7);
#1262=FILL_AREA_STYLE('',(#1261));
#1263=SURFACE_STYLE_FILL_AREA(#1262);
#1264=SURFACE_SIDE_STYLE('',(#1263));
#1265=SURFACE_STYLE_USAGE(.BOTH.,#1264);
#1266=PRESENTATION_STYLE_ASSIGNMENT((#1265));
#1267=OVER_RIDING_STYLED_ITEM('',(#1266),#1260,#23);
#1268=CARTESIAN_POINT('',(5.511811023622E-1,-9.842519685039E-2,
4.251968503937E0));
#1269=DIRECTION('',(0.E0,0.E0,1.E0));
#1270=DIRECTION('',(1.E0,0.E0,0.E0));
#1271=AXIS2_PLACEMENT_3D('',#1268,#1269,#1270);
#1272=CYLINDRICAL_SURFACE('',#1271,7.874015748031E-2);
#1273=ORIENTED_EDGE('',*,*,#902,.T.);
#1274=ORIENTED_EDGE('',*,*,#1256,.T.);
#1275=ORIENTED_EDGE('',*,*,#1217,.T.);
#1276=ORIENTED_EDGE('',*,*,#1251,.F.);
#1277=EDGE_LOOP('',(#1273,#1274,#1275,#1276));
#1278=FACE_OUTER_BOUND('',#1277,.F.);
#1280=FILL_AREA_STYLE_COLOUR('',#7);
#1281=FILL_AREA_STYLE('',(#1280));
#1282=SURFACE_STYLE_FILL_AREA(#1281);
#1283=SURFACE_SIDE_STYLE('',(#1282));
#1284=SURFACE_STYLE_USAGE(.BOTH.,#1283);
#1285=PRESENTATION_STYLE_ASSIGNMENT((#1284));
#1286=OVER_RIDING_STYLED_ITEM('',(#1285),#1279,#23);
#1287=CARTESIAN_POINT('',(6.692913385827E-1,4.724409448819E-1,
4.291338582677E0));
#1288=DIRECTION('',(-1.E0,0.E0,0.E0));
#1289=DIRECTION('',(0.E0,-1.E0,0.E0));
#1290=AXIS2_PLACEMENT_3D('',#1287,#1288,#1289);
#1291=PLANE('',#1290);
#1292=ORIENTED_EDGE('',*,*,#974,.F.);
#1293=ORIENTED_EDGE('',*,*,#1068,.F.);
#1295=ORIENTED_EDGE('',*,*,#1294,.T.);
#1297=ORIENTED_EDGE('',*,*,#1296,.F.);
#1299=ORIENTED_EDGE('',*,*,#1298,.T.);
#1300=ORIENTED_EDGE('',*,*,#1145,.F.);
#1301=ORIENTED_EDGE('',*,*,#1173,.T.);
#1302=ORIENTED_EDGE('',*,*,#1222,.F.);
#1303=EDGE_LOOP('',(#1292,#1293,#1295,#1297,#1299,#1300,#1301,#1302));
#1304=FACE_OUTER_BOUND('',#1303,.F.);
#1306=FILL_AREA_STYLE_COLOUR('',#6);
#1307=FILL_AREA_STYLE('',(#1306));
#1308=SURFACE_STYLE_FILL_AREA(#1307);
#1309=SURFACE_SIDE_STYLE('',(#1308));
#1310=SURFACE_STYLE_USAGE(.BOTH.,#1309);
#1311=PRESENTATION_STYLE_ASSIGNMENT((#1310));
#1312=OVER_RIDING_STYLED_ITEM('',(#1311),#1305,#23);
#1313=CARTESIAN_POINT('',(6.299212598425E-1,4.330708661417E-1,
4.291338582677E0));
#1314=DIRECTION('',(0.E0,0.E0,-1.E0));
#1315=DIRECTION('',(-1.E0,0.E0,0.E0));
#1316=AXIS2_PLACEMENT_3D('',#1313,#1314,#1315);
#1317=CYLINDRICAL_SURFACE('',#1316,3.937007874016E-2);
#1319=ORIENTED_EDGE('',*,*,#1318,.T.);
#1320=ORIENTED_EDGE('',*,*,#1294,.F.);
#1321=ORIENTED_EDGE('',*,*,#1066,.F.);
#1323=ORIENTED_EDGE('',*,*,#1322,.F.);
#1324=EDGE_LOOP('',(#1319,#1320,#1321,#1323));
#1325=FACE_OUTER_BOUND('',#1324,.F.);
#1327=FILL_AREA_STYLE_COLOUR('',#6);
#1328=FILL_AREA_STYLE('',(#1327));
#1329=SURFACE_STYLE_FILL_AREA(#1328);
#1330=SURFACE_SIDE_STYLE('',(#1329));
#1331=SURFACE_STYLE_USAGE(.BOTH.,#1330);
#1332=PRESENTATION_STYLE_ASSIGNMENT((#1331));
#1333=OVER_RIDING_STYLED_ITEM('',(#1332),#1326,#23);
#1334=CARTESIAN_POINT('',(-6.692913385827E-1,3.543307086614E-1,
1.181102362205E-1));
#1335=DIRECTION('',(-1.E0,0.E0,0.E0));
#1336=DIRECTION('',(0.E0,0.E0,1.E0));
#1337=AXIS2_PLACEMENT_3D('',#1334,#1335,#1336);
#1338=CYLINDRICAL_SURFACE('',#1337,1.181102362205E-1);
#1340=ORIENTED_EDGE('',*,*,#1339,.F.);
#1341=ORIENTED_EDGE('',*,*,#1098,.T.);
#1343=ORIENTED_EDGE('',*,*,#1342,.F.);
#1344=ORIENTED_EDGE('',*,*,#1296,.T.);
#1345=ORIENTED_EDGE('',*,*,#1318,.F.);
#1347=ORIENTED_EDGE('',*,*,#1346,.F.);
#1348=EDGE_LOOP('',(#1340,#1341,#1343,#1344,#1345,#1347));
#1349=FACE_OUTER_BOUND('',#1348,.F.);
#1351=FILL_AREA_STYLE_COLOUR('',#6);
#1352=FILL_AREA_STYLE('',(#1351));
#1353=SURFACE_STYLE_FILL_AREA(#1352);
#1354=SURFACE_SIDE_STYLE('',(#1353));
#1355=SURFACE_STYLE_USAGE(.BOTH.,#1354);
#1356=PRESENTATION_STYLE_ASSIGNMENT((#1355));
#1357=OVER_RIDING_STYLED_ITEM('',(#1356),#1350,#23);
#1358=CARTESIAN_POINT('',(-6.299212598425E-1,4.330708661417E-1,
4.291338582677E0));
#1359=DIRECTION('',(0.E0,0.E0,-1.E0));
#1360=DIRECTION('',(-1.E0,0.E0,0.E0));
#1361=AXIS2_PLACEMENT_3D('',#1358,#1359,#1360);
#1362=CYLINDRICAL_SURFACE('',#1361,3.937007874016E-2);
#1363=ORIENTED_EDGE('',*,*,#1339,.T.);
#1365=ORIENTED_EDGE('',*,*,#1364,.F.);
#1366=ORIENTED_EDGE('',*,*,#1062,.F.);
#1367=ORIENTED_EDGE('',*,*,#1100,.F.);
#1368=EDGE_LOOP('',(#1363,#1365,#1366,#1367));
#1369=FACE_OUTER_BOUND('',#1368,.F.);
#1371=FILL_AREA_STYLE_COLOUR('',#6);
#1372=FILL_AREA_STYLE('',(#1371));
#1373=SURFACE_STYLE_FILL_AREA(#1372);
#1374=SURFACE_SIDE_STYLE('',(#1373));
#1375=SURFACE_STYLE_USAGE(.BOTH.,#1374);
#1376=PRESENTATION_STYLE_ASSIGNMENT((#1375));
#1377=OVER_RIDING_STYLED_ITEM('',(#1376),#1370,#23);
#1378=CARTESIAN_POINT('',(-6.692913385827E-1,4.724409448819E-1,
4.291338582677E0));
#1379=DIRECTION('',(0.E0,-1.E0,0.E0));
#1380=DIRECTION('',(0.E0,0.E0,-1.E0));
#1381=AXIS2_PLACEMENT_3D('',#1378,#1379,#1380);
#1382=PLANE('',#1381);
#1383=ORIENTED_EDGE('',*,*,#1364,.T.);
#1384=ORIENTED_EDGE('',*,*,#1346,.T.);
#1385=ORIENTED_EDGE('',*,*,#1322,.T.);
#1386=ORIENTED_EDGE('',*,*,#1064,.T.);
#1387=EDGE_LOOP('',(#1383,#1384,#1385,#1386));
#1388=FACE_OUTER_BOUND('',#1387,.F.);
#1390=FILL_AREA_STYLE_COLOUR('',#6);
#1391=FILL_AREA_STYLE('',(#1390));
#1392=SURFACE_STYLE_FILL_AREA(#1391);
#1393=SURFACE_SIDE_STYLE('',(#1392));
#1394=SURFACE_STYLE_USAGE(.POSITIVE.,#1393);
#1395=FILL_AREA_STYLE_COLOUR('',#22);
#1396=FILL_AREA_STYLE('',(#1395));
#1397=SURFACE_STYLE_FILL_AREA(#1396);
#1398=SURFACE_SIDE_STYLE('',(#1397));
#1399=SURFACE_STYLE_USAGE(.NEGATIVE.,#1398);
#1400=PRESENTATION_STYLE_ASSIGNMENT((#1394,#1399));
#1401=OVER_RIDING_STYLED_ITEM('',(#1400),#1389,#23);
#1402=CARTESIAN_POINT('',(0.E0,0.E0,0.E0));
#1403=DIRECTION('',(0.E0,0.E0,1.E0));
#1404=DIRECTION('',(1.E0,0.E0,0.E0));
#1405=AXIS2_PLACEMENT_3D('',#1402,#1403,#1404);
#1406=PLANE('',#1405);
#1407=ORIENTED_EDGE('',*,*,#1298,.F.);
#1408=ORIENTED_EDGE('',*,*,#1342,.T.);
#1409=ORIENTED_EDGE('',*,*,#1096,.F.);
#1410=ORIENTED_EDGE('',*,*,#1147,.T.);
#1411=EDGE_LOOP('',(#1407,#1408,#1409,#1410));
#1412=FACE_OUTER_BOUND('',#1411,.F.);
#1414=FILL_AREA_STYLE_COLOUR('',#6);
#1415=FILL_AREA_STYLE('',(#1414));
#1416=SURFACE_STYLE_FILL_AREA(#1415);
#1417=SURFACE_SIDE_STYLE('',(#1416));
#1418=SURFACE_STYLE_USAGE(.BOTH.,#1417);
#1419=PRESENTATION_STYLE_ASSIGNMENT((#1418));
#1420=OVER_RIDING_STYLED_ITEM('',(#1419),#1413,#23);
#1421=CARTESIAN_POINT('',(-5.905511811024E-1,-1.181102362205E-1,
4.251968503937E0));
#1422=DIRECTION('',(0.E0,0.E0,1.E0));
#1423=DIRECTION('',(1.E0,0.E0,0.E0));
#1424=AXIS2_PLACEMENT_3D('',#1421,#1422,#1423);
#1425=CYLINDRICAL_SURFACE('',#1424,3.444881889764E-2);
#1426=ORIENTED_EDGE('',*,*,#878,.T.);
#1428=ORIENTED_EDGE('',*,*,#1427,.T.);
#1429=ORIENTED_EDGE('',*,*,#1231,.T.);
#1431=ORIENTED_EDGE('',*,*,#1430,.F.);
#1432=EDGE_LOOP('',(#1426,#1428,#1429,#1431));
#1433=FACE_OUTER_BOUND('',#1432,.F.);
#1435=FILL_AREA_STYLE_COLOUR('',#1);
#1436=FILL_AREA_STYLE('',(#1435));
#1437=SURFACE_STYLE_FILL_AREA(#1436);
#1438=SURFACE_SIDE_STYLE('',(#1437));
#1439=SURFACE_STYLE_USAGE(.BOTH.,#1438);
#1440=PRESENTATION_STYLE_ASSIGNMENT((#1439));
#1441=OVER_RIDING_STYLED_ITEM('',(#1440),#1434,#23);
#1442=CARTESIAN_POINT('',(-5.905511811024E-1,-1.181102362205E-1,
4.251968503937E0));
#1443=DIRECTION('',(0.E0,0.E0,1.E0));
#1444=DIRECTION('',(1.E0,0.E0,0.E0));
#1445=AXIS2_PLACEMENT_3D('',#1442,#1443,#1444);
#1446=CYLINDRICAL_SURFACE('',#1445,3.444881889764E-2);
#1447=ORIENTED_EDGE('',*,*,#880,.T.);
#1448=ORIENTED_EDGE('',*,*,#1430,.T.);
#1449=ORIENTED_EDGE('',*,*,#1233,.T.);
#1450=ORIENTED_EDGE('',*,*,#1427,.F.);
#1451=EDGE_LOOP('',(#1447,#1448,#1449,#1450));
#1452=FACE_OUTER_BOUND('',#1451,.F.);
#1454=FILL_AREA_STYLE_COLOUR('',#1);
#1455=FILL_AREA_STYLE('',(#1454));
#1456=SURFACE_STYLE_FILL_AREA(#1455);
#1457=SURFACE_SIDE_STYLE('',(#1456));
#1458=SURFACE_STYLE_USAGE(.BOTH.,#1457);
#1459=PRESENTATION_STYLE_ASSIGNMENT((#1458));
#1460=OVER_RIDING_STYLED_ITEM('',(#1459),#1453,#23);
#1461=CARTESIAN_POINT('',(-5.905511811024E-1,1.181102362205E-1,
4.251968503937E0));
#1462=DIRECTION('',(0.E0,0.E0,1.E0));
#1463=DIRECTION('',(1.E0,0.E0,0.E0));
#1464=AXIS2_PLACEMENT_3D('',#1461,#1462,#1463);
#1465=CYLINDRICAL_SURFACE('',#1464,3.444881889764E-2);
#1466=ORIENTED_EDGE('',*,*,#928,.T.);
#1468=ORIENTED_EDGE('',*,*,#1467,.T.);
#1469=ORIENTED_EDGE('',*,*,#1073,.T.);
#1471=ORIENTED_EDGE('',*,*,#1470,.F.);
#1472=EDGE_LOOP('',(#1466,#1468,#1469,#1471));
#1473=FACE_OUTER_BOUND('',#1472,.F.);
#1475=FILL_AREA_STYLE_COLOUR('',#17);
#1476=FILL_AREA_STYLE('',(#1475));
#1477=SURFACE_STYLE_FILL_AREA(#1476);
#1478=SURFACE_SIDE_STYLE('',(#1477));
#1479=SURFACE_STYLE_USAGE(.BOTH.,#1478);
#1480=PRESENTATION_STYLE_ASSIGNMENT((#1479));
#1481=OVER_RIDING_STYLED_ITEM('',(#1480),#1474,#23);
#1482=CARTESIAN_POINT('',(-5.905511811024E-1,1.181102362205E-1,
4.251968503937E0));
#1483=DIRECTION('',(0.E0,0.E0,1.E0));
#1484=DIRECTION('',(1.E0,0.E0,0.E0));
#1485=AXIS2_PLACEMENT_3D('',#1482,#1483,#1484);
#1486=CYLINDRICAL_SURFACE('',#1485,3.444881889764E-2);
#1487=ORIENTED_EDGE('',*,*,#926,.T.);
#1488=ORIENTED_EDGE('',*,*,#1470,.T.);
#1489=ORIENTED_EDGE('',*,*,#1075,.T.);
#1490=ORIENTED_EDGE('',*,*,#1467,.F.);
#1491=EDGE_LOOP('',(#1487,#1488,#1489,#1490));
#1492=FACE_OUTER_BOUND('',#1491,.F.);
#1494=FILL_AREA_STYLE_COLOUR('',#17);
#1495=FILL_AREA_STYLE('',(#1494));
#1496=SURFACE_STYLE_FILL_AREA(#1495);
#1497=SURFACE_SIDE_STYLE('',(#1496));
#1498=SURFACE_STYLE_USAGE(.BOTH.,#1497);
#1499=PRESENTATION_STYLE_ASSIGNMENT((#1498));
#1500=OVER_RIDING_STYLED_ITEM('',(#1499),#1493,#23);
#1501=CARTESIAN_POINT('',(-5.905511811024E-1,-3.937007874016E-2,
4.251968503937E0));
#1502=DIRECTION('',(0.E0,0.E0,1.E0));
#1503=DIRECTION('',(1.E0,0.E0,0.E0));
#1504=AXIS2_PLACEMENT_3D('',#1501,#1502,#1503);
#1505=CYLINDRICAL_SURFACE('',#1504,3.444881889764E-2);
#1506=ORIENTED_EDGE('',*,*,#830,.T.);
#1508=ORIENTED_EDGE('',*,*,#1507,.T.);
#1509=ORIENTED_EDGE('',*,*,#988,.T.);
#1511=ORIENTED_EDGE('',*,*,#1510,.F.);
#1512=EDGE_LOOP('',(#1506,#1508,#1509,#1511));
#1513=FACE_OUTER_BOUND('',#1512,.F.);
#1515=FILL_AREA_STYLE_COLOUR('',#2);
#1516=FILL_AREA_STYLE('',(#1515));
#1517=SURFACE_STYLE_FILL_AREA(#1516);
#1518=SURFACE_SIDE_STYLE('',(#1517));
#1519=SURFACE_STYLE_USAGE(.BOTH.,#1518);
#1520=PRESENTATION_STYLE_ASSIGNMENT((#1519));
#1521=OVER_RIDING_STYLED_ITEM('',(#1520),#1514,#23);
#1522=CARTESIAN_POINT('',(-5.905511811024E-1,-3.937007874016E-2,
4.251968503937E0));
#1523=DIRECTION('',(0.E0,0.E0,1.E0));
#1524=DIRECTION('',(1.E0,0.E0,0.E0));
#1525=AXIS2_PLACEMENT_3D('',#1522,#1523,#1524);
#1526=CYLINDRICAL_SURFACE('',#1525,3.444881889764E-2);
#1527=ORIENTED_EDGE('',*,*,#832,.T.);
#1528=ORIENTED_EDGE('',*,*,#1510,.T.);
#1529=ORIENTED_EDGE('',*,*,#990,.T.);
#1530=ORIENTED_EDGE('',*,*,#1507,.F.);
#1531=EDGE_LOOP('',(#1527,#1528,#1529,#1530));
#1532=FACE_OUTER_BOUND('',#1531,.F.);
#1534=FILL_AREA_STYLE_COLOUR('',#2);
#1535=FILL_AREA_STYLE('',(#1534));
#1536=SURFACE_STYLE_FILL_AREA(#1535);
#1537=SURFACE_SIDE_STYLE('',(#1536));
#1538=SURFACE_STYLE_USAGE(.BOTH.,#1537);
#1539=PRESENTATION_STYLE_ASSIGNMENT((#1538));
#1540=OVER_RIDING_STYLED_ITEM('',(#1539),#1533,#23);
#1543=FILL_AREA_STYLE_COLOUR('',#15);
#1544=FILL_AREA_STYLE('',(#1543));
#1545=SURFACE_STYLE_FILL_AREA(#1544);
#1546=SURFACE_SIDE_STYLE('',(#1545));
#1547=SURFACE_STYLE_USAGE(.BOTH.,#1546);
#1548=PRESENTATION_STYLE_ASSIGNMENT((#1547));
#23=STYLED_ITEM('',(#1548),#1542);
#1549=PRESENTATION_LAYER_ASSIGNMENT('NONE_18','',(#23,#794,#812,#836,#860,#884,
#908,#932,#957,#998,#1023,#1043,#1079,#1108,#1130,#1155,#1177,#1197,#1237,#1260,
#1279,#1305,#1326,#1350,#1370,#1389,#1413,#1434,#1453,#1474,#1493,#1514,#1533));
#1551=LENGTH_MEASURE_WITH_UNIT(LENGTH_MEASURE(2.54E1),#1550);
#1552=(CONVERSION_BASED_UNIT('INCH',#1551)LENGTH_UNIT()NAMED_UNIT(*));
#1554=PLANE_ANGLE_MEASURE_WITH_UNIT(PLANE_ANGLE_MEASURE(1.745329251994E-2),
#1553);
#1555=(CONVERSION_BASED_UNIT('DEGREE',#1554)NAMED_UNIT(*)PLANE_ANGLE_UNIT());
#1557=UNCERTAINTY_MEASURE_WITH_UNIT(LENGTH_MEASURE(8.707151749373E-4),#1552,
'closure',
'Maximum model space distance between geometric entities at asserted connectivities');
#1559=CARTESIAN_POINT('',(0.E0,0.E0,0.E0));
#1560=DIRECTION('',(0.E0,0.E0,1.E0));
#1561=DIRECTION('',(1.E0,0.E0,0.E0));
#1564=MECHANICAL_DESIGN_GEOMETRIC_PRESENTATION_REPRESENTATION('',(#32,#39,#47,
#54,#62,#70,#78,#86,#94,#102,#110,#117,#125,#132,#142,#159,#169,#176,#183,#190,
#205,#213,#221,#229,#236,#244,#251,#261,#268,#279,#286,#297,#304,#311,#321,#328,
#338,#355,#365,#372,#379,#386,#401,#409,#416,#424,#431,#438,#446,#454,#462,#470,
#477,#487,#494,#505,#512,#523,#530,#537,#547,#554,#561,#568,#576,#591,#598,#606,
#613,#621,#628,#636,#651,#658,#666,#673,#681,#688,#801,#824,#848,#872,#896,#920,
#944,#964,#1005,#1030,#1050,#1086,#1115,#1137,#1162,#1184,#1209,#1244,#1267,
#1286,#1312,#1333,#1357,#1377,#1401,#1420,#1441,#1460,#1481,#1500,#1521,#1540,
#23),#1558);
#1565=APPLICATION_CONTEXT('automotive design');
#1566=APPLICATION_PROTOCOL_DEFINITION('international standard',
'config_control_design',1994,#1565);
#1567=PRODUCT_DEFINITION_CONTEXT('',#1565,'design');
#1568=PRODUCT_CONTEXT('',#1565,'mechanical');
#1569=PRODUCT('LIPO_BATTERY_3S','LIPO_BATTERY_3S','NOT SPECIFIED',(#1568));
#1570=PRODUCT_DEFINITION_FORMATION_WITH_SPECIFIED_SOURCE('1','LAST_VERSION',
#1569,.MADE.);
#1578=LENGTH_MEASURE_WITH_UNIT(LENGTH_MEASURE(2.54E1),#1577);
#1579=(CONVERSION_BASED_UNIT('INCH',#1578)LENGTH_UNIT()NAMED_UNIT(*));
#1580=DERIVED_UNIT_ELEMENT(#1579,2.E0);
#1581=AREA_UNIT((#1580));
#1582=MEASURE_REPRESENTATION_ITEM('surface area measure',AREA_MEASURE(
1.397627638880E4),#1581);
#1587=LENGTH_MEASURE_WITH_UNIT(LENGTH_MEASURE(2.54E1),#1586);
#1588=(CONVERSION_BASED_UNIT('INCH',#1587)LENGTH_UNIT()NAMED_UNIT(*));
#1589=DERIVED_UNIT_ELEMENT(#1588,3.E0);
#1590=VOLUME_UNIT((#1589));
#1591=MEASURE_REPRESENTATION_ITEM('volume measure',VOLUME_MEASURE(
8.752213612601E4),#1590);
#1595=CARTESIAN_POINT('centre point',(1.735510729700E-2,1.863397216960E-6,
5.388068030324E1));
#1600=LENGTH_MEASURE_WITH_UNIT(LENGTH_MEASURE(2.54E1),#1599);
#1601=(CONVERSION_BASED_UNIT('INCH',#1600)LENGTH_UNIT()NAMED_UNIT(*));
#1602=DERIVED_UNIT_ELEMENT(#1601,2.E0);
#1603=AREA_UNIT((#1602));
#1604=MEASURE_REPRESENTATION_ITEM('surface area measure',AREA_MEASURE(
1.397627638880E4),#1603);
#1609=LENGTH_MEASURE_WITH_UNIT(LENGTH_MEASURE(2.54E1),#1608);
#1610=(CONVERSION_BASED_UNIT('INCH',#1609)LENGTH_UNIT()NAMED_UNIT(*));
#1611=DERIVED_UNIT_ELEMENT(#1610,3.E0);
#1612=VOLUME_UNIT((#1611));
#1613=MEASURE_REPRESENTATION_ITEM('volume measure',VOLUME_MEASURE(
8.752213612601E4),#1612);
#1617=CARTESIAN_POINT('centre point',(1.735510729700E-2,1.863397216960E-6,
5.388068030324E1));
#1=DRAUGHTING_PRE_DEFINED_COLOUR('black');
#2=DRAUGHTING_PRE_DEFINED_COLOUR('blue');
#3=DRAUGHTING_PRE_DEFINED_COLOUR('green');
#4=COLOUR_RGB('',1.1E-2,1.2E-2,1.E0);
#5=COLOUR_RGB('',2.352941176471E-2,1.882352941176E-1,6.039215686275E-1);
#6=COLOUR_RGB('',3.921568627451E-2,3.019607843137E-1,9.725490196078E-1);
#7=COLOUR_RGB('',1.019607843137E-1,1.019607843137E-1,1.019607843137E-1);
#8=COLOUR_RGB('',1.176470588235E-1,1.176470588235E-1,1.176470588235E-1);
#9=COLOUR_RGB('',4.1E-1,2.61589E-1,1.12848E-1);
#10=COLOUR_RGB('',5.04854E-1,1.5455E-2,1.5455E-2);
#11=COLOUR_RGB('',6.35294E-1,6.86275E-1,7.4902E-1);
#12=COLOUR_RGB('',6.40777E-1,6.40777E-1,6.40777E-1);
#13=COLOUR_RGB('',6.69062E-1,6.69903E-1,6.55217E-1);
#14=COLOUR_RGB('',6.941176470588E-1,9.803921568627E-2,9.803921568627E-2);
#15=COLOUR_RGB('',7.921568627451E-1,8.196078431373E-1,9.333333333333E-1);
#16=COLOUR_RGB('',9.21569E-1,7.05882E-1,4.70588E-1);
#17=DRAUGHTING_PRE_DEFINED_COLOUR('red');
#18=COLOUR_RGB('',1.E0,7.490196078431E-1,0.E0);
#19=DRAUGHTING_PRE_DEFINED_COLOUR('yellow');
#20=COLOUR_RGB('',1.E0,1.E0,5.3E-1);
#21=COLOUR_RGB('',1.E0,1.E0,9.49E-1);
#22=DRAUGHTING_PRE_DEFINED_COLOUR('white');
#28=CIRCLE('',#27,3.444881889764E-2);
#44=CIRCLE('',#43,3.444881889764E-2);
#59=CIRCLE('',#58,7.874015748031E-2);
#67=CIRCLE('',#66,7.874015748031E-2);
#75=CIRCLE('',#74,3.444881889764E-2);
#83=CIRCLE('',#82,3.444881889764E-2);
#91=CIRCLE('',#90,3.444881889764E-2);
#99=CIRCLE('',#98,3.444881889764E-2);
#107=CIRCLE('',#106,7.874015748031E-2);
#122=CIRCLE('',#121,7.874015748031E-2);
#139=B_SPLINE_CURVE_WITH_KNOTS('',3,(#133,#134,#135,#136,#137,#138),
.UNSPECIFIED.,.F.,.F.,(4,1,1,4),(0.E0,3.333333333333E-1,6.666666666667E-1,1.E0),
.UNSPECIFIED.);
#156=B_SPLINE_CURVE_WITH_KNOTS('',3,(#143,#144,#145,#146,#147,#148,#149,#150,
#151,#152,#153,#154,#155),.UNSPECIFIED.,.F.,.F.,(4,1,1,1,1,1,1,1,1,1,4),(0.E0,
1.E-1,2.E-1,3.E-1,4.E-1,5.E-1,6.E-1,7.E-1,8.E-1,9.E-1,1.E0),.UNSPECIFIED.);
#166=B_SPLINE_CURVE_WITH_KNOTS('',3,(#160,#161,#162,#163,#164,#165),
.UNSPECIFIED.,.F.,.F.,(4,1,1,4),(0.E0,3.333333333333E-1,6.666666666667E-1,1.E0),
.UNSPECIFIED.);
#202=B_SPLINE_CURVE_WITH_KNOTS('',3,(#191,#192,#193,#194,#195,#196,#197,#198,
#199,#200,#201),.UNSPECIFIED.,.F.,.F.,(4,1,1,1,1,1,1,1,4),(0.E0,1.25E-1,2.5E-1,
3.75E-1,5.E-1,6.25E-1,7.5E-1,8.75E-1,1.E0),.UNSPECIFIED.);
#210=CIRCLE('',#209,1.181102362205E-1);
#218=CIRCLE('',#217,1.181102362205E-1);
#226=CIRCLE('',#225,3.937007874016E-1);
#241=CIRCLE('',#240,3.937007874016E-1);
#258=B_SPLINE_CURVE_WITH_KNOTS('',3,(#252,#253,#254,#255,#256,#257),
.UNSPECIFIED.,.F.,.F.,(4,1,1,4),(0.E0,3.333333333333E-1,6.666666666667E-1,1.E0),
.UNSPECIFIED.);
#276=B_SPLINE_CURVE_WITH_KNOTS('',3,(#269,#270,#271,#272,#273,#274,#275),
.UNSPECIFIED.,.F.,.F.,(4,1,1,1,4),(0.E0,2.5E-1,5.E-1,7.5E-1,1.E0),
.UNSPECIFIED.);
#294=B_SPLINE_CURVE_WITH_KNOTS('',3,(#287,#288,#289,#290,#291,#292,#293),
.UNSPECIFIED.,.F.,.F.,(4,1,1,1,4),(0.E0,2.5E-1,5.E-1,7.5E-1,1.E0),
.UNSPECIFIED.);
#318=B_SPLINE_CURVE_WITH_KNOTS('',3,(#312,#313,#314,#315,#316,#317),
.UNSPECIFIED.,.F.,.F.,(4,1,1,4),(0.E0,3.333333333333E-1,6.666666666667E-1,1.E0),
.UNSPECIFIED.);
#335=B_SPLINE_CURVE_WITH_KNOTS('',3,(#329,#330,#331,#332,#333,#334),
.UNSPECIFIED.,.F.,.F.,(4,1,1,4),(0.E0,3.333333333333E-1,6.666666666667E-1,1.E0),
.UNSPECIFIED.);
#352=B_SPLINE_CURVE_WITH_KNOTS('',3,(#339,#340,#341,#342,#343,#344,#345,#346,
#347,#348,#349,#350,#351),.UNSPECIFIED.,.F.,.F.,(4,1,1,1,1,1,1,1,1,1,4),(0.E0,
1.E-1,2.E-1,3.E-1,4.E-1,5.E-1,6.E-1,7.E-1,8.E-1,9.E-1,1.E0),.UNSPECIFIED.);
#362=B_SPLINE_CURVE_WITH_KNOTS('',3,(#356,#357,#358,#359,#360,#361),
.UNSPECIFIED.,.F.,.F.,(4,1,1,4),(0.E0,3.333333333333E-1,6.666666666667E-1,1.E0),
.UNSPECIFIED.);
#398=B_SPLINE_CURVE_WITH_KNOTS('',3,(#387,#388,#389,#390,#391,#392,#393,#394,
#395,#396,#397),.UNSPECIFIED.,.F.,.F.,(4,1,1,1,1,1,1,1,4),(0.E0,1.25E-1,2.5E-1,
3.75E-1,5.E-1,6.25E-1,7.5E-1,8.75E-1,1.E0),.UNSPECIFIED.);
#406=CIRCLE('',#405,7.874015748031E-2);
#421=CIRCLE('',#420,7.874015748031E-2);
#443=CIRCLE('',#442,3.937007874016E-1);
#451=CIRCLE('',#450,1.181102362205E-1);
#459=CIRCLE('',#458,1.181102362205E-1);
#467=CIRCLE('',#466,3.937007874016E-1);
#484=B_SPLINE_CURVE_WITH_KNOTS('',3,(#478,#479,#480,#481,#482,#483),
.UNSPECIFIED.,.F.,.F.,(4,1,1,4),(0.E0,3.333333333333E-1,6.666666666667E-1,1.E0),
.UNSPECIFIED.);
#502=B_SPLINE_CURVE_WITH_KNOTS('',3,(#495,#496,#497,#498,#499,#500,#501),
.UNSPECIFIED.,.F.,.F.,(4,1,1,1,4),(0.E0,2.5E-1,5.E-1,7.5E-1,1.E0),
.UNSPECIFIED.);
#520=B_SPLINE_CURVE_WITH_KNOTS('',3,(#513,#514,#515,#516,#517,#518,#519),
.UNSPECIFIED.,.F.,.F.,(4,1,1,1,4),(0.E0,2.5E-1,5.E-1,7.5E-1,1.E0),
.UNSPECIFIED.);
#544=B_SPLINE_CURVE_WITH_KNOTS('',3,(#538,#539,#540,#541,#542,#543),
.UNSPECIFIED.,.F.,.F.,(4,1,1,4),(0.E0,3.333333333333E-1,6.666666666667E-1,1.E0),
.UNSPECIFIED.);
#573=CIRCLE('',#572,3.444881889764E-2);
#588=B_SPLINE_CURVE_WITH_KNOTS('',3,(#577,#578,#579,#580,#581,#582,#583,#584,
#585,#586,#587),.UNSPECIFIED.,.F.,.F.,(4,1,1,1,1,1,1,1,4),(0.E0,1.25E-1,2.5E-1,
3.75E-1,5.E-1,6.25E-1,7.5E-1,8.75E-1,1.E0),.UNSPECIFIED.);
#603=CIRCLE('',#602,3.444881889764E-2);
#618=CIRCLE('',#617,3.444881889764E-2);
#633=CIRCLE('',#632,3.444881889764E-2);
#648=B_SPLINE_CURVE_WITH_KNOTS('',3,(#637,#638,#639,#640,#641,#642,#643,#644,
#645,#646,#647),.UNSPECIFIED.,.F.,.F.,(4,1,1,1,1,1,1,1,4),(0.E0,1.25E-1,2.5E-1,
3.75E-1,5.E-1,6.25E-1,7.5E-1,8.75E-1,1.E0),.UNSPECIFIED.);
#663=CIRCLE('',#662,3.444881889764E-2);
#678=CIRCLE('',#677,3.444881889764E-2);
#784=EDGE_CURVE('',#757,#758,#28,.T.);
#786=EDGE_CURVE('',#758,#733,#51,.T.);
#788=EDGE_CURVE('',#733,#734,#91,.T.);
#790=EDGE_CURVE('',#757,#734,#36,.T.);
#794=ADVANCED_FACE('',(#793),#783,.T.);
#808=EDGE_CURVE('',#758,#757,#44,.T.);
#812=ADVANCED_FACE('',(#811),#806,.T.);
#830=EDGE_CURVE('',#761,#762,#663,.T.);
#832=EDGE_CURVE('',#762,#761,#678,.T.);
#836=ADVANCED_FACE('',(#835),#829,.T.);
#854=EDGE_CURVE('',#765,#766,#122,.T.);
#856=EDGE_CURVE('',#766,#765,#107,.T.);
#860=ADVANCED_FACE('',(#859),#853,.T.);
#878=EDGE_CURVE('',#769,#770,#573,.T.);
#880=EDGE_CURVE('',#770,#769,#603,.T.);
#884=ADVANCED_FACE('',(#883),#877,.T.);
#902=EDGE_CURVE('',#773,#774,#421,.T.);
#904=EDGE_CURVE('',#774,#773,#406,.T.);
#908=ADVANCED_FACE('',(#907),#901,.T.);
#926=EDGE_CURVE('',#777,#778,#633,.T.);
#928=EDGE_CURVE('',#778,#777,#618,.T.);
#932=ADVANCED_FACE('',(#931),#925,.T.);
#952=EDGE_CURVE('',#734,#733,#99,.T.);
#957=ADVANCED_FACE('',(#956),#949,.T.);
#970=EDGE_CURVE('',#695,#696,#59,.T.);
#972=EDGE_CURVE('',#695,#724,#187,.T.);
#974=EDGE_CURVE('',#724,#748,#435,.T.);
#976=EDGE_CURVE('',#748,#739,#369,.T.);
#978=EDGE_CURVE('',#710,#739,#67,.T.);
#980=EDGE_CURVE('',#710,#730,#383,.T.);
#982=EDGE_CURVE('',#730,#699,#233,.T.);
#984=EDGE_CURVE('',#699,#696,#173,.T.);
#988=EDGE_CURVE('',#713,#714,#75,.T.);
#990=EDGE_CURVE('',#714,#713,#83,.T.);
#998=ADVANCED_FACE('',(#987,#993,#997),#969,.T.);
#1012=EDGE_CURVE('',#765,#752,#129,.T.);
#1014=EDGE_CURVE('',#752,#695,#139,.T.);
#1017=EDGE_CURVE('',#696,#749,#166,.T.);
#1019=EDGE_CURVE('',#766,#749,#114,.T.);
#1023=ADVANCED_FACE('',(#1022),#1010,.T.);
#1038=EDGE_CURVE('',#749,#752,#156,.T.);
#1043=ADVANCED_FACE('',(#1042),#1035,.T.);
#1060=EDGE_CURVE('',#699,#700,#226,.T.);
#1062=EDGE_CURVE('',#700,#728,#544,.T.);
#1064=EDGE_CURVE('',#727,#728,#180,.T.);
#1066=EDGE_CURVE('',#727,#723,#484,.T.);
#1068=EDGE_CURVE('',#723,#724,#443,.T.);
#1073=EDGE_CURVE('',#715,#716,#202,.T.);
#1075=EDGE_CURVE('',#716,#715,#648,.T.);
#1079=ADVANCED_FACE('',(#1072,#1078),#1055,.T.);
#1092=EDGE_CURVE('',#702,#692,#248,.T.);
#1094=EDGE_CURVE('',#691,#692,#210,.T.);
#1096=EDGE_CURVE('',#691,#738,#565,.T.);
#1098=EDGE_CURVE('',#742,#738,#218,.T.);
#1100=EDGE_CURVE('',#742,#700,#551,.T.);
#1104=EDGE_CURVE('',#702,#730,#241,.T.);
#1108=ADVANCED_FACE('',(#1107),#1091,.F.);
#1121=EDGE_CURVE('',#708,#692,#294,.T.);
#1124=EDGE_CURVE('',#701,#702,#258,.T.);
#1126=EDGE_CURVE('',#708,#701,#265,.T.);
#1130=ADVANCED_FACE('',(#1129),#1120,.T.);
#1143=EDGE_CURVE('',#736,#707,#276,.T.);
#1145=EDGE_CURVE('',#736,#746,#459,.T.);
#1147=EDGE_CURVE('',#691,#746,#283,.T.);
#1151=EDGE_CURVE('',#707,#708,#301,.T.);
#1155=ADVANCED_FACE('',(#1154),#1142,.T.);
#1169=EDGE_CURVE('',#704,#707,#308,.T.);
#1171=EDGE_CURVE('',#703,#704,#318,.T.);
#1173=EDGE_CURVE('',#736,#703,#325,.T.);
#1177=ADVANCED_FACE('',(#1176),#1167,.T.);
#1193=EDGE_CURVE('',#701,#704,#376,.T.);
#1197=ADVANCED_FACE('',(#1196),#1189,.F.);
#1215=EDGE_CURVE('',#709,#710,#335,.T.);
#1217=EDGE_CURVE('',#740,#709,#352,.T.);
#1219=EDGE_CURVE('',#739,#740,#362,.T.);
#1222=EDGE_CURVE('',#748,#703,#467,.T.);
#1231=EDGE_CURVE('',#754,#753,#588,.T.);
#1233=EDGE_CURVE('',#753,#754,#398,.T.);
#1237=ADVANCED_FACE('',(#1230,#1236),#1214,.T.);
#1251=EDGE_CURVE('',#773,#709,#428,.T.);
#1256=EDGE_CURVE('',#774,#740,#413,.T.);
#1260=ADVANCED_FACE('',(#1259),#1249,.T.);
#1279=ADVANCED_FACE('',(#1278),#1272,.T.);
#1294=EDGE_CURVE('',#723,#751,#474,.T.);
#1296=EDGE_CURVE('',#745,#751,#451,.T.);
#1298=EDGE_CURVE('',#745,#746,#558,.T.);
#1305=ADVANCED_FACE('',(#1304),#1291,.F.);
#1318=EDGE_CURVE('',#720,#751,#520,.T.);
#1322=EDGE_CURVE('',#720,#727,#491,.T.);
#1326=ADVANCED_FACE('',(#1325),#1317,.T.);
#1339=EDGE_CURVE('',#742,#719,#502,.T.);
#1342=EDGE_CURVE('',#745,#738,#509,.T.);
#1346=EDGE_CURVE('',#719,#720,#527,.T.);
#1350=ADVANCED_FACE('',(#1349),#1338,.T.);
#1364=EDGE_CURVE('',#728,#719,#534,.T.);
#1370=ADVANCED_FACE('',(#1369),#1362,.T.);
#1389=ADVANCED_FACE('',(#1388),#1382,.F.);
#1413=ADVANCED_FACE('',(#1412),#1406,.F.);
#1427=EDGE_CURVE('',#770,#754,#610,.T.);
#1430=EDGE_CURVE('',#769,#753,#595,.T.);
#1434=ADVANCED_FACE('',(#1433),#1425,.T.);
#1453=ADVANCED_FACE('',(#1452),#1446,.T.);
#1467=EDGE_CURVE('',#777,#715,#655,.T.);
#1470=EDGE_CURVE('',#778,#716,#625,.T.);
#1474=ADVANCED_FACE('',(#1473),#1465,.T.);
#1493=ADVANCED_FACE('',(#1492),#1486,.T.);
#1507=EDGE_CURVE('',#762,#713,#685,.T.);
#1510=EDGE_CURVE('',#761,#714,#670,.T.);
#1514=ADVANCED_FACE('',(#1513),#1505,.T.);
#1533=ADVANCED_FACE('',(#1532),#1526,.T.);
#1541=CLOSED_SHELL('',(#794,#812,#836,#860,#884,#908,#932,#957,#998,#1023,#1043,
#1079,#1108,#1130,#1155,#1177,#1197,#1237,#1260,#1279,#1305,#1326,#1350,#1370,
#1389,#1413,#1434,#1453,#1474,#1493,#1514,#1533));
#1542=MANIFOLD_SOLID_BREP('',#1541);
#1550=(LENGTH_UNIT()NAMED_UNIT(*)SI_UNIT(.MILLI.,.METRE.));
#1553=(NAMED_UNIT(*)PLANE_ANGLE_UNIT()SI_UNIT($,.RADIAN.));
#1556=(NAMED_UNIT(*)SI_UNIT($,.STERADIAN.)SOLID_ANGLE_UNIT());
#1558=(GEOMETRIC_REPRESENTATION_CONTEXT(3)GLOBAL_UNCERTAINTY_ASSIGNED_CONTEXT((
#1557))GLOBAL_UNIT_ASSIGNED_CONTEXT((#1552,#1555,#1556))REPRESENTATION_CONTEXT(
'ID1','3'));
#1562=AXIS2_PLACEMENT_3D('',#1559,#1560,#1561);
#1563=ADVANCED_BREP_SHAPE_REPRESENTATION('',(#1562,#1542),#1558);
#1571=PRODUCT_DEFINITION('design','',#1570,#1567);
#1572=PRODUCT_DEFINITION_SHAPE('','SHAPE FOR LIPO_BATTERY_3S.',#1571);
#1573=SHAPE_ASPECT('','solid data associated with LIPO_BATTERY_3S',#1572,.F.);
#1574=PROPERTY_DEFINITION('',
'shape for solid data with which properties are associated',#1573);
#1575=SHAPE_REPRESENTATION('',(#1542),#1558);
#1576=SHAPE_DEFINITION_REPRESENTATION(#1574,#1575);
#1577=(LENGTH_UNIT()NAMED_UNIT(*)SI_UNIT(.MILLI.,.METRE.));
#1583=PROPERTY_DEFINITION('geometric validation property',
'area of LIPO_BATTERY_3S',#1573);
#1584=REPRESENTATION('surface area',(#1582),#1558);
#1585=PROPERTY_DEFINITION_REPRESENTATION(#1583,#1584);
#1586=(LENGTH_UNIT()NAMED_UNIT(*)SI_UNIT(.MILLI.,.METRE.));
#1592=PROPERTY_DEFINITION('geometric validation property',
'volume of LIPO_BATTERY_3S',#1573);
#1593=REPRESENTATION('volume',(#1591),#1558);
#1594=PROPERTY_DEFINITION_REPRESENTATION(#1592,#1593);
#1596=PROPERTY_DEFINITION('geometric validation property',
'centroid of LIPO_BATTERY_3S',#1573);
#1597=REPRESENTATION('centroid',(#1595),#1558);
#1598=PROPERTY_DEFINITION_REPRESENTATION(#1596,#1597);
#1599=(LENGTH_UNIT()NAMED_UNIT(*)SI_UNIT(.MILLI.,.METRE.));
#1605=PROPERTY_DEFINITION('geometric validation property',
'area of LIPO_BATTERY_3S',#1572);
#1606=REPRESENTATION('surface area',(#1604),#1558);
#1607=PROPERTY_DEFINITION_REPRESENTATION(#1605,#1606);
#1608=(LENGTH_UNIT()NAMED_UNIT(*)SI_UNIT(.MILLI.,.METRE.));
#1614=PROPERTY_DEFINITION('geometric validation property',
'volume of LIPO_BATTERY_3S',#1572);
#1615=REPRESENTATION('volume',(#1613),#1558);
#1616=PROPERTY_DEFINITION_REPRESENTATION(#1614,#1615);
#1618=PROPERTY_DEFINITION('geometric validation property',
'centroid of LIPO_BATTERY_3S',#1572);
#1619=REPRESENTATION('centroid',(#1617),#1558);
#1620=PROPERTY_DEFINITION_REPRESENTATION(#1618,#1619);
#1621=SHAPE_DEFINITION_REPRESENTATION(#1572,#1563);
ENDSEC;
END-ISO-10303-21;
