ISO-10303-21;
HEADER;
FILE_DESCRIPTION((''),'2;1');
FILE_NAME('LPATTERN3400','2026-06-15T13:46:18',('Esia'),(''),
'CREO PARAMETRIC BY PTC INC, 2025102','CREO PARAMETRIC BY PTC INC, 2025102','');
FILE_SCHEMA((
'AP242_MANAGED_MODEL_BASED_3D_ENGINEERING_MIM_LF { 1 0 10303 442 1 1 4 }'));
ENDSEC;
DATA;
#17=DIRECTION('',(1.E0,0.E0,0.E0));
#18=VECTOR('',#17,7.086614173233E-3);
#19=CARTESIAN_POINT('',(4.330708660122E-3,-4.930311261958E-2,
1.598003850511E-2));
#20=LINE('',#19,#18);
#21=DRAUGHTING_PRE_DEFINED_CURVE_FONT('continuous');
#22=CURVE_STYLE('',#21,POSITIVE_LENGTH_MEASURE(2.E-2),#9);
#23=PRESENTATION_STYLE_ASSIGNMENT((#22));
#24=STYLED_ITEM('',(#23),#20);
#25=DIRECTION('',(-1.E0,0.E0,0.E0));
#26=VECTOR('',#25,7.086614173233E-3);
#27=CARTESIAN_POINT('',(1.141732283335E-2,-5.118110236090E-2,
1.166098350511E-2));
#28=LINE('',#27,#26);
#29=CURVE_STYLE('',#21,POSITIVE_LENGTH_MEASURE(2.E-2),#9);
#30=PRESENTATION_STYLE_ASSIGNMENT((#29));
#31=STYLED_ITEM('',(#30),#28);
#32=CARTESIAN_POINT('',(1.141732283335E-2,-4.527559054989E-2,
1.166098350511E-2));
#33=DIRECTION('',(1.E0,0.E0,0.E0));
#34=DIRECTION('',(0.E0,-6.819983600623E-1,7.313537016194E-1));
#35=AXIS2_PLACEMENT_3D('',#32,#33,#34);
#37=CURVE_STYLE('',#21,POSITIVE_LENGTH_MEASURE(2.E-2),#9);
#38=PRESENTATION_STYLE_ASSIGNMENT((#37));
#39=STYLED_ITEM('',(#38),#36);
#40=DIRECTION('',(0.E0,-7.313537016192E-1,-6.819983600625E-1));
#41=VECTOR('',#40,2.828799966944E-3);
#42=CARTESIAN_POINT('',(1.141732283335E-2,-5.126183596382E-2,
2.222825628941E-2));
#43=LINE('',#42,#41);
#44=CURVE_STYLE('',#21,POSITIVE_LENGTH_MEASURE(2.E-2),#9);
#45=PRESENTATION_STYLE_ASSIGNMENT((#44));
#46=STYLED_ITEM('',(#45),#43);
#47=DIRECTION('',(0.E0,7.313541853124E-1,6.819978413646E-1));
#48=VECTOR('',#47,9.161638652399E-3);
#49=CARTESIAN_POINT('',(1.141732283335E-2,-4.930311261958E-2,
1.598003850511E-2));
#50=LINE('',#49,#48);
#51=CURVE_STYLE('',#21,POSITIVE_LENGTH_MEASURE(2.E-2),#9);
#52=PRESENTATION_STYLE_ASSIGNMENT((#51));
#53=STYLED_ITEM('',(#52),#50);
#54=CARTESIAN_POINT('',(1.141732283335E-2,-4.527559054989E-2,
1.166098350511E-2));
#55=DIRECTION('',(-1.E0,0.E0,0.E0));
#56=DIRECTION('',(0.E0,-1.E0,2.329409813191E-12));
#57=AXIS2_PLACEMENT_3D('',#54,#55,#56);
#59=CURVE_STYLE('',#21,POSITIVE_LENGTH_MEASURE(2.E-2),#9);
#60=PRESENTATION_STYLE_ASSIGNMENT((#59));
#61=STYLED_ITEM('',(#60),#58);
#62=DIRECTION('',(0.E0,0.E0,1.E0));
#63=VECTOR('',#62,1.597003858322E-2);
#64=CARTESIAN_POINT('',(1.141732283335E-2,-5.610236220343E-2,
4.112515393254E-4));
#65=LINE('',#64,#63);
#66=CURVE_STYLE('',#21,POSITIVE_LENGTH_MEASURE(2.E-2),#9);
#67=PRESENTATION_STYLE_ASSIGNMENT((#66));
#68=STYLED_ITEM('',(#67),#65);
#69=DIRECTION('',(0.E0,0.E0,-1.E0));
#70=VECTOR('',#69,1.597003858322E-2);
#71=CARTESIAN_POINT('',(4.330708660122E-3,-5.610236220343E-2,
1.638129012255E-2));
#72=LINE('',#71,#70);
#73=CURVE_STYLE('',#21,POSITIVE_LENGTH_MEASURE(2.E-2),#9);
#74=PRESENTATION_STYLE_ASSIGNMENT((#73));
#75=STYLED_ITEM('',(#74),#72);
#76=DIRECTION('',(0.E0,-1.E0,0.E0));
#77=VECTOR('',#76,4.921259842534E-3);
#78=CARTESIAN_POINT('',(1.141732283335E-2,-5.118110236090E-2,
4.112515393254E-4));
#79=LINE('',#78,#77);
#80=CURVE_STYLE('',#21,POSITIVE_LENGTH_MEASURE(2.E-2),#9);
#81=PRESENTATION_STYLE_ASSIGNMENT((#80));
#82=STYLED_ITEM('',(#81),#79);
#83=DIRECTION('',(0.E0,1.E0,0.E0));
#84=VECTOR('',#83,4.921259842534E-3);
#85=CARTESIAN_POINT('',(4.330708660122E-3,-5.610236220343E-2,
4.112515393254E-4));
#86=LINE('',#85,#84);
#87=CURVE_STYLE('',#21,POSITIVE_LENGTH_MEASURE(2.E-2),#9);
#88=PRESENTATION_STYLE_ASSIGNMENT((#87));
#89=STYLED_ITEM('',(#88),#86);
#90=DIRECTION('',(-1.E0,0.E0,0.E0));
#91=VECTOR('',#90,7.086614173233E-3);
#92=CARTESIAN_POINT('',(1.141732283335E-2,-5.610236220343E-2,
4.112515393254E-4));
#93=LINE('',#92,#91);
#94=CURVE_STYLE('',#21,POSITIVE_LENGTH_MEASURE(2.E-2),#9);
#95=PRESENTATION_STYLE_ASSIGNMENT((#94));
#96=STYLED_ITEM('',(#95),#93);
#97=DIRECTION('',(0.E0,4.132595274053E-14,-1.E0));
#98=VECTOR('',#97,1.124973196579E-2);
#99=CARTESIAN_POINT('',(1.141732283335E-2,-5.118110236090E-2,
1.166098350511E-2));
#100=LINE('',#99,#98);
#101=CURVE_STYLE('',#21,POSITIVE_LENGTH_MEASURE(2.E-2),#9);
#102=PRESENTATION_STYLE_ASSIGNMENT((#101));
#103=STYLED_ITEM('',(#102),#100);
#104=DIRECTION('',(0.E0,-4.132595274053E-14,1.E0));
#105=VECTOR('',#104,1.124973196579E-2);
#106=CARTESIAN_POINT('',(4.330708660122E-3,-5.118110236090E-2,
4.112515393254E-4));
#107=LINE('',#106,#105);
#108=CURVE_STYLE('',#21,POSITIVE_LENGTH_MEASURE(2.E-2),#9);
#109=PRESENTATION_STYLE_ASSIGNMENT((#108));
#110=STYLED_ITEM('',(#109),#107);
#111=DIRECTION('',(-1.E0,0.E0,0.E0));
#112=VECTOR('',#111,7.086614173233E-3);
#113=CARTESIAN_POINT('',(1.141732283335E-2,-5.118110236090E-2,
4.112515393254E-4));
#114=LINE('',#113,#112);
#115=CURVE_STYLE('',#21,POSITIVE_LENGTH_MEASURE(2.E-2),#9);
#116=PRESENTATION_STYLE_ASSIGNMENT((#115));
#117=STYLED_ITEM('',(#116),#114);
#118=CARTESIAN_POINT('',(4.330708660122E-3,-4.527559054989E-2,
1.166098350511E-2));
#119=DIRECTION('',(1.E0,0.E0,0.E0));
#120=DIRECTION('',(0.E0,-6.819815471783E-1,7.313693795260E-1));
#121=AXIS2_PLACEMENT_3D('',#118,#119,#120);
#123=CURVE_STYLE('',#21,POSITIVE_LENGTH_MEASURE(2.E-2),#9);
#124=PRESENTATION_STYLE_ASSIGNMENT((#123));
#125=STYLED_ITEM('',(#124),#122);
#126=DIRECTION('',(-8.823543150690E-14,-7.313541853124E-1,-6.819978413646E-1));
#127=VECTOR('',#126,9.161638652404E-3);
#128=CARTESIAN_POINT('',(4.330708660122E-3,-4.260270984682E-2,
2.222825628941E-2));
#129=LINE('',#128,#127);
#130=CURVE_STYLE('',#21,POSITIVE_LENGTH_MEASURE(2.E-2),#9);
#131=PRESENTATION_STYLE_ASSIGNMENT((#130));
#132=STYLED_ITEM('',(#131),#129);
#133=DIRECTION('',(2.857682230098E-13,7.313537016192E-1,6.819983600625E-1));
#134=VECTOR('',#133,2.828799966949E-3);
#135=CARTESIAN_POINT('',(4.330708660122E-3,-5.333068929078E-2,
2.029901935101E-2));
#136=LINE('',#135,#134);
#137=CURVE_STYLE('',#21,POSITIVE_LENGTH_MEASURE(2.E-2),#9);
#138=PRESENTATION_STYLE_ASSIGNMENT((#137));
#139=STYLED_ITEM('',(#138),#136);
#140=CARTESIAN_POINT('',(4.330708660122E-3,-4.527559054989E-2,
1.166098350511E-2));
#141=DIRECTION('',(-1.E0,0.E0,0.E0));
#142=DIRECTION('',(0.E0,-9.166666666666E-1,3.996526269429E-1));
#143=AXIS2_PLACEMENT_3D('',#140,#141,#142);
#145=CURVE_STYLE('',#21,POSITIVE_LENGTH_MEASURE(2.E-2),#9);
#146=PRESENTATION_STYLE_ASSIGNMENT((#145));
#147=STYLED_ITEM('',(#146),#144);
#148=DIRECTION('',(-4.999995282987E-1,-6.333717767231E-1,-5.906273479544E-1));
#149=VECTOR('',#148,1.574804635235E-3);
#150=CARTESIAN_POINT('',(1.220472440813E-2,-4.160527303702E-2,
2.315837897467E-2));
#151=LINE('',#150,#149);
#152=CURVE_STYLE('',#21,POSITIVE_LENGTH_MEASURE(2.E-2),#9);
#153=PRESENTATION_STYLE_ASSIGNMENT((#152));
#154=STYLED_ITEM('',(#153),#151);
#155=DIRECTION('',(-9.999999999728E-1,0.E0,7.374294411994E-6));
#156=VECTOR('',#155,1.968503937246E-4);
#157=CARTESIAN_POINT('',(3.346456691618E-3,-3.937007873885E-2,
2.524272647641E-2));
#158=LINE('',#157,#156);
#159=CURVE_STYLE('',#21,POSITIVE_LENGTH_MEASURE(2.E-2),#9);
#160=PRESENTATION_STYLE_ASSIGNMENT((#159));
#161=STYLED_ITEM('',(#160),#158);
#162=DIRECTION('',(-4.999995282985E-1,6.333717767232E-1,5.906273479545E-1));
#163=VECTOR('',#162,1.968505794104E-3);
#164=CARTESIAN_POINT('',(4.330708660122E-3,-4.260270984682E-2,
2.222825628941E-2));
#165=LINE('',#164,#163);
#166=CURVE_STYLE('',#21,POSITIVE_LENGTH_MEASURE(2.E-2),#9);
#167=PRESENTATION_STYLE_ASSIGNMENT((#166));
#168=STYLED_ITEM('',(#167),#165);
#169=DIRECTION('',(0.E0,1.E0,0.E0));
#170=VECTOR('',#169,8.659126116993E-3);
#171=CARTESIAN_POINT('',(1.141732283335E-2,-5.126183596382E-2,
2.222825628941E-2));
#172=LINE('',#171,#170);
#173=CURVE_STYLE('',#21,POSITIVE_LENGTH_MEASURE(2.E-2),#9);
#174=PRESENTATION_STYLE_ASSIGNMENT((#173));
#175=STYLED_ITEM('',(#174),#172);
#176=DIRECTION('',(4.999999999994E-1,6.333708847543E-1,5.906279051537E-1));
#177=VECTOR('',#176,1.574803149562E-3);
#178=CARTESIAN_POINT('',(1.141732283335E-2,-5.126183596382E-2,
2.222825628941E-2));
#179=LINE('',#178,#177);
#180=CURVE_STYLE('',#21,POSITIVE_LENGTH_MEASURE(2.E-2),#9);
#181=PRESENTATION_STYLE_ASSIGNMENT((#180));
#182=STYLED_ITEM('',(#181),#179);
#183=DIRECTION('',(4.999999999992E-1,-6.333708847543E-1,-5.906279051537E-1));
#184=VECTOR('',#183,1.968503937012E-3);
#185=CARTESIAN_POINT('',(3.346456691618E-3,-5.001504288359E-2,
2.339090964602E-2));
#186=LINE('',#185,#184);
#187=CURVE_STYLE('',#21,POSITIVE_LENGTH_MEASURE(2.E-2),#9);
#188=PRESENTATION_STYLE_ASSIGNMENT((#187));
#189=STYLED_ITEM('',(#188),#186);
#190=DIRECTION('',(1.E0,0.E0,1.015187933622E-11));
#191=VECTOR('',#190,1.968503937193E-4);
#192=CARTESIAN_POINT('',(3.149606297898E-3,-3.937007873885E-2,
3.331749930238E-2));
#193=LINE('',#192,#191);
#194=CURVE_STYLE('',#21,POSITIVE_LENGTH_MEASURE(2.E-2),#9);
#195=PRESENTATION_STYLE_ASSIGNMENT((#194));
#196=STYLED_ITEM('',(#195),#193);
#197=DIRECTION('',(1.E0,0.E0,0.E0));
#198=VECTOR('',#197,7.086614173233E-3);
#199=CARTESIAN_POINT('',(4.330708660122E-3,-5.610236220343E-2,
1.638129012255E-2));
#200=LINE('',#199,#198);
#201=CURVE_STYLE('',#21,POSITIVE_LENGTH_MEASURE(2.E-2),#9);
#202=PRESENTATION_STYLE_ASSIGNMENT((#201));
#203=STYLED_ITEM('',(#202),#200);
#204=DIRECTION('',(-1.E0,0.E0,0.E0));
#205=VECTOR('',#204,7.086614173233E-3);
#206=CARTESIAN_POINT('',(1.141732283335E-2,-5.333068929078E-2,
2.029901935101E-2));
#207=LINE('',#206,#205);
#208=CURVE_STYLE('',#21,POSITIVE_LENGTH_MEASURE(2.E-2),#9);
#209=PRESENTATION_STYLE_ASSIGNMENT((#208));
#210=STYLED_ITEM('',(#209),#207);
#211=DIRECTION('',(0.E0,-1.E0,0.E0));
#212=VECTOR('',#211,8.659126116993E-3);
#213=CARTESIAN_POINT('',(4.330708660122E-3,-4.260270984682E-2,
2.222825628941E-2));
#214=LINE('',#213,#212);
#215=CURVE_STYLE('',#21,POSITIVE_LENGTH_MEASURE(2.E-2),#9);
#216=PRESENTATION_STYLE_ASSIGNMENT((#215));
#217=STYLED_ITEM('',(#216),#214);
#218=DIRECTION('',(0.E0,1.E0,0.E0));
#219=VECTOR('',#218,8.659129049067E-3);
#220=CARTESIAN_POINT('',(3.346456691618E-3,-5.001504288359E-2,
2.339090964602E-2));
#221=LINE('',#220,#219);
#222=CURVE_STYLE('',#21,POSITIVE_LENGTH_MEASURE(2.E-2),#9);
#223=PRESENTATION_STYLE_ASSIGNMENT((#222));
#224=STYLED_ITEM('',(#223),#221);
#225=DIRECTION('',(0.E0,7.313537016192E-1,6.819983600625E-1));
#226=VECTOR('',#225,1.455515179750E-2);
#227=CARTESIAN_POINT('',(3.346456691618E-3,-5.001504288359E-2,
2.339090964602E-2));
#228=LINE('',#227,#226);
#229=CURVE_STYLE('',#21,POSITIVE_LENGTH_MEASURE(2.E-2),#9);
#230=PRESENTATION_STYLE_ASSIGNMENT((#229));
#231=STYLED_ITEM('',(#230),#228);
#232=DIRECTION('',(0.E0,-7.313545015893E-1,-6.819975021985E-1));
#233=VECTOR('',#232,2.715283889484E-3);
#234=CARTESIAN_POINT('',(3.346456691618E-3,-3.937007873885E-2,
2.524272647641E-2));
#235=LINE('',#234,#233);
#236=CURVE_STYLE('',#21,POSITIVE_LENGTH_MEASURE(2.E-2),#9);
#237=PRESENTATION_STYLE_ASSIGNMENT((#236));
#238=STYLED_ITEM('',(#237),#235);
#239=DIRECTION('',(0.E0,0.E0,1.E0));
#240=VECTOR('',#239,8.074772825970E-3);
#241=CARTESIAN_POINT('',(3.346456691618E-3,-3.937007873885E-2,
2.524272647641E-2));
#242=LINE('',#241,#240);
#243=CURVE_STYLE('',#21,POSITIVE_LENGTH_MEASURE(2.E-2),#9);
#244=PRESENTATION_STYLE_ASSIGNMENT((#243));
#245=STYLED_ITEM('',(#244),#242);
#246=DIRECTION('',(0.E0,-7.313542349354E-1,-6.819977881504E-1));
#247=VECTOR('',#246,1.263016091457E-2);
#248=CARTESIAN_POINT('',(3.149606297898E-3,-3.013295706606E-2,
3.385646973576E-2));
#249=LINE('',#248,#247);
#250=CURVE_STYLE('',#21,POSITIVE_LENGTH_MEASURE(2.E-2),#9);
#251=PRESENTATION_STYLE_ASSIGNMENT((#250));
#252=STYLED_ITEM('',(#251),#249);
#253=CARTESIAN_POINT('',(3.149606297898E-3,-2.611603397477E-2,
2.952755905512E-2));
#254=DIRECTION('',(1.E0,0.E0,0.E0));
#255=DIRECTION('',(0.E0,-3.476196182757E-12,1.E0));
#256=AXIS2_PLACEMENT_3D('',#253,#254,#255);
#258=CURVE_STYLE('',#21,POSITIVE_LENGTH_MEASURE(2.E-2),#9);
#259=PRESENTATION_STYLE_ASSIGNMENT((#258));
#260=STYLED_ITEM('',(#259),#257);
#261=CARTESIAN_POINT('',(3.149606297898E-3,2.615763967133E-12,
4.724409448819E-2));
#262=DIRECTION('',(-1.E0,0.E0,0.E0));
#263=DIRECTION('',(0.E0,1.E0,0.E0));
#264=AXIS2_PLACEMENT_3D('',#261,#262,#263);
#266=CURVE_STYLE('',#21,POSITIVE_LENGTH_MEASURE(2.E-2),#9);
#267=PRESENTATION_STYLE_ASSIGNMENT((#266));
#268=STYLED_ITEM('',(#267),#265);
#269=CARTESIAN_POINT('',(3.149606297898E-3,2.615763967133E-12,
4.724409448819E-2));
#270=DIRECTION('',(1.E0,0.E0,0.E0));
#271=DIRECTION('',(0.E0,-2.974604689554E-14,-1.E0));
#272=AXIS2_PLACEMENT_3D('',#269,#270,#271);
#274=CURVE_STYLE('',#21,POSITIVE_LENGTH_MEASURE(2.E-2),#9);
#275=PRESENTATION_STYLE_ASSIGNMENT((#274));
#276=STYLED_ITEM('',(#275),#273);
#277=CARTESIAN_POINT('',(3.149606297898E-3,-2.611603397477E-2,
2.952755905512E-2));
#278=DIRECTION('',(-1.E0,0.E0,0.E0));
#279=DIRECTION('',(0.E0,-6.819983600628E-1,7.313537016189E-1));
#280=AXIS2_PLACEMENT_3D('',#277,#278,#279);
#282=CURVE_STYLE('',#21,POSITIVE_LENGTH_MEASURE(2.E-2),#9);
#283=PRESENTATION_STYLE_ASSIGNMENT((#282));
#284=STYLED_ITEM('',(#283),#281);
#285=DIRECTION('',(0.E0,7.313537016191E-1,6.819983600626E-1));
#286=VECTOR('',#285,7.108661666271E-3);
#287=CARTESIAN_POINT('',(3.149606297898E-3,-3.937007873885E-2,
3.331749930238E-2));
#288=LINE('',#287,#286);
#289=CURVE_STYLE('',#21,POSITIVE_LENGTH_MEASURE(2.E-2),#9);
#290=PRESENTATION_STYLE_ASSIGNMENT((#289));
#291=STYLED_ITEM('',(#290),#288);
#292=DIRECTION('',(0.E0,0.E0,1.E0));
#293=VECTOR('',#292,8.074771374336E-3);
#294=CARTESIAN_POINT('',(3.149606297898E-3,-3.937007873885E-2,
2.524272792804E-2));
#295=LINE('',#294,#293);
#296=CURVE_STYLE('',#21,POSITIVE_LENGTH_MEASURE(2.E-2),#9);
#297=PRESENTATION_STYLE_ASSIGNMENT((#296));
#298=STYLED_ITEM('',(#297),#295);
#299=DIRECTION('',(1.E0,0.E0,0.E0));
#300=VECTOR('',#299,9.055118110236E-3);
#301=CARTESIAN_POINT('',(3.149606297898E-3,-2.611603397478E-2,
3.543307086614E-2));
#302=LINE('',#301,#300);
#303=CURVE_STYLE('',#21,POSITIVE_LENGTH_MEASURE(2.E-2),#9);
#304=PRESENTATION_STYLE_ASSIGNMENT((#303));
#305=STYLED_ITEM('',(#304),#302);
#306=DIRECTION('',(-9.999999999761E-1,-5.485850236975E-6,-4.209636309727E-6));
#307=VECTOR('',#306,9.055118110453E-3);
#308=CARTESIAN_POINT('',(1.220472440813E-2,-3.013290739104E-2,
3.385650785452E-2));
#309=LINE('',#308,#307);
#310=CURVE_STYLE('',#21,POSITIVE_LENGTH_MEASURE(2.E-2),#9);
#311=PRESENTATION_STYLE_ASSIGNMENT((#310));
#312=STYLED_ITEM('',(#311),#309);
#313=DIRECTION('',(0.E0,1.E0,0.E0));
#314=VECTOR('',#313,8.659128462652E-3);
#315=CARTESIAN_POINT('',(1.220472440813E-2,-5.026440149967E-2,
2.315837897467E-2));
#316=LINE('',#315,#314);
#317=CURVE_STYLE('',#21,POSITIVE_LENGTH_MEASURE(2.E-2),#9);
#318=PRESENTATION_STYLE_ASSIGNMENT((#317));
#319=STYLED_ITEM('',(#318),#316);
#320=DIRECTION('',(0.E0,-7.313537016192E-1,-6.819983600625E-1));
#321=VECTOR('',#320,2.200476834720E-2);
#322=CARTESIAN_POINT('',(1.220472440813E-2,-3.417113271567E-2,
3.816559490101E-2));
#323=LINE('',#322,#321);
#324=CURVE_STYLE('',#21,POSITIVE_LENGTH_MEASURE(2.E-2),#9);
#325=PRESENTATION_STYLE_ASSIGNMENT((#324));
#326=STYLED_ITEM('',(#325),#323);
#327=CARTESIAN_POINT('',(1.220472440813E-2,-2.611603397477E-2,
2.952755905512E-2));
#328=DIRECTION('',(1.E0,0.E0,0.E0));
#329=DIRECTION('',(0.E0,-2.411658835596E-13,1.E0));
#330=AXIS2_PLACEMENT_3D('',#327,#328,#329);
#332=CURVE_STYLE('',#21,POSITIVE_LENGTH_MEASURE(2.E-2),#9);
#333=PRESENTATION_STYLE_ASSIGNMENT((#332));
#334=STYLED_ITEM('',(#333),#331);
#335=CARTESIAN_POINT('',(1.220472440813E-2,2.615763967133E-12,
4.724409448819E-2));
#336=DIRECTION('',(-1.E0,0.E0,0.E0));
#337=DIRECTION('',(0.E0,1.E0,-2.702467879108E-14));
#338=AXIS2_PLACEMENT_3D('',#335,#336,#337);
#340=CURVE_STYLE('',#21,POSITIVE_LENGTH_MEASURE(2.E-2),#9);
#341=PRESENTATION_STYLE_ASSIGNMENT((#340));
#342=STYLED_ITEM('',(#341),#339);
#343=CARTESIAN_POINT('',(1.220472440813E-2,2.615763967133E-12,
4.724409448819E-2));
#344=DIRECTION('',(1.E0,0.E0,0.E0));
#345=DIRECTION('',(0.E0,0.E0,-1.E0));
#346=AXIS2_PLACEMENT_3D('',#343,#344,#345);
#348=CURVE_STYLE('',#21,POSITIVE_LENGTH_MEASURE(2.E-2),#9);
#349=PRESENTATION_STYLE_ASSIGNMENT((#348));
#350=STYLED_ITEM('',(#349),#347);
#351=CARTESIAN_POINT('',(1.220472440813E-2,-2.611603397477E-2,
2.952755905512E-2));
#352=DIRECTION('',(-1.E0,0.E0,0.E0));
#353=DIRECTION('',(0.E0,-6.801905651567E-1,7.330353300298E-1));
#354=AXIS2_PLACEMENT_3D('',#351,#352,#353);
#356=CURVE_STYLE('',#21,POSITIVE_LENGTH_MEASURE(2.E-2),#9);
#357=PRESENTATION_STYLE_ASSIGNMENT((#356));
#358=STYLED_ITEM('',(#357),#355);
#359=DIRECTION('',(0.E0,7.313545015893E-1,6.819975021985E-1));
#360=VECTOR('',#359,1.568646343332E-2);
#361=CARTESIAN_POINT('',(1.220472440813E-2,-4.160527303702E-2,
2.315837897467E-2));
#362=LINE('',#361,#360);
#363=CURVE_STYLE('',#21,POSITIVE_LENGTH_MEASURE(2.E-2),#9);
#364=PRESENTATION_STYLE_ASSIGNMENT((#363));
#365=STYLED_ITEM('',(#364),#362);
#366=DIRECTION('',(1.E0,-3.954083437486E-13,-3.164799340468E-13));
#367=VECTOR('',#366,9.055118110236E-3);
#368=CARTESIAN_POINT('',(3.149606297898E-3,-3.417113271567E-2,
3.816559490101E-2));
#369=LINE('',#368,#367);
#370=CURVE_STYLE('',#21,POSITIVE_LENGTH_MEASURE(2.E-2),#9);
#371=PRESENTATION_STYLE_ASSIGNMENT((#370));
#372=STYLED_ITEM('',(#371),#369);
#373=DIRECTION('',(-1.E0,0.E0,0.E0));
#374=VECTOR('',#373,9.055118110236E-3);
#375=CARTESIAN_POINT('',(1.220472440813E-2,-2.611603397477E-2,
4.133858267717E-2));
#376=LINE('',#375,#374);
#377=CURVE_STYLE('',#21,POSITIVE_LENGTH_MEASURE(2.E-2),#9);
#378=PRESENTATION_STYLE_ASSIGNMENT((#377));
#379=STYLED_ITEM('',(#378),#376);
#380=DIRECTION('',(0.E0,1.E0,0.E0));
#381=VECTOR('',#380,2.611603397739E-2);
#382=CARTESIAN_POINT('',(1.220472440813E-2,-2.611603397477E-2,
4.133858267717E-2));
#383=LINE('',#382,#381);
#384=CURVE_STYLE('',#21,POSITIVE_LENGTH_MEASURE(2.E-2),#9);
#385=PRESENTATION_STYLE_ASSIGNMENT((#384));
#386=STYLED_ITEM('',(#385),#383);
#387=DIRECTION('',(0.E0,-1.E0,0.E0));
#388=VECTOR('',#387,2.611603397739E-2);
#389=CARTESIAN_POINT('',(3.149606297898E-3,2.615705411923E-12,
4.133858267717E-2));
#390=LINE('',#389,#388);
#391=CURVE_STYLE('',#21,POSITIVE_LENGTH_MEASURE(2.E-2),#9);
#392=PRESENTATION_STYLE_ASSIGNMENT((#391));
#393=STYLED_ITEM('',(#392),#390);
#394=DIRECTION('',(1.E0,0.E0,0.E0));
#395=VECTOR('',#394,9.055118110236E-3);
#396=CARTESIAN_POINT('',(3.149606297898E-3,2.615705411923E-12,
4.133858267717E-2));
#397=LINE('',#396,#395);
#398=CURVE_STYLE('',#21,POSITIVE_LENGTH_MEASURE(2.E-2),#9);
#399=PRESENTATION_STYLE_ASSIGNMENT((#398));
#400=STYLED_ITEM('',(#399),#397);
#401=DIRECTION('',(-1.E0,0.E0,0.E0));
#402=VECTOR('',#401,9.055118110236E-3);
#403=CARTESIAN_POINT('',(1.220472440813E-2,5.905511813639E-3,
4.724409448819E-2));
#404=LINE('',#403,#402);
#405=CURVE_STYLE('',#21,POSITIVE_LENGTH_MEASURE(2.E-2),#9);
#406=PRESENTATION_STYLE_ASSIGNMENT((#405));
#407=STYLED_ITEM('',(#406),#404);
#408=DIRECTION('',(0.E0,0.E0,1.E0));
#409=VECTOR('',#408,3.148645669291E-2);
#410=CARTESIAN_POINT('',(1.220472440813E-2,5.905511813639E-3,
4.724409448819E-2));
#411=LINE('',#410,#409);
#412=CURVE_STYLE('',#21,POSITIVE_LENGTH_MEASURE(2.E-2),#9);
#413=PRESENTATION_STYLE_ASSIGNMENT((#412));
#414=STYLED_ITEM('',(#413),#411);
#415=DIRECTION('',(0.E0,0.E0,-1.E0));
#416=VECTOR('',#415,3.148645669291E-2);
#417=CARTESIAN_POINT('',(3.149606297898E-3,5.905511813639E-3,
7.873055118110E-2));
#418=LINE('',#417,#416);
#419=CURVE_STYLE('',#21,POSITIVE_LENGTH_MEASURE(2.E-2),#9);
#420=PRESENTATION_STYLE_ASSIGNMENT((#419));
#421=STYLED_ITEM('',(#420),#418);
#422=DIRECTION('',(-1.E0,0.E0,0.E0));
#423=VECTOR('',#422,9.055118110236E-3);
#424=CARTESIAN_POINT('',(1.220472440813E-2,5.905511813639E-3,
7.873055118110E-2));
#425=LINE('',#424,#423);
#426=CURVE_STYLE('',#21,POSITIVE_LENGTH_MEASURE(2.E-2),#9);
#427=PRESENTATION_STYLE_ASSIGNMENT((#426));
#428=STYLED_ITEM('',(#427),#425);
#429=DIRECTION('',(0.E0,1.E0,0.E0));
#430=VECTOR('',#429,5.905511811024E-3);
#431=CARTESIAN_POINT('',(1.220472440813E-2,5.905511813639E-3,
7.873055118110E-2));
#432=LINE('',#431,#430);
#433=CURVE_STYLE('',#21,POSITIVE_LENGTH_MEASURE(2.E-2),#9);
#434=PRESENTATION_STYLE_ASSIGNMENT((#433));
#435=STYLED_ITEM('',(#434),#432);
#436=DIRECTION('',(0.E0,-1.E0,0.E0));
#437=VECTOR('',#436,5.905511811024E-3);
#438=CARTESIAN_POINT('',(3.149606297898E-3,1.181102362466E-2,
7.873055118110E-2));
#439=LINE('',#438,#437);
#440=CURVE_STYLE('',#21,POSITIVE_LENGTH_MEASURE(2.E-2),#9);
#441=PRESENTATION_STYLE_ASSIGNMENT((#440));
#442=STYLED_ITEM('',(#441),#439);
#443=DIRECTION('',(-1.E0,0.E0,0.E0));
#444=VECTOR('',#443,9.055118110236E-3);
#445=CARTESIAN_POINT('',(1.220472440813E-2,1.181102362466E-2,
7.873055118110E-2));
#446=LINE('',#445,#444);
#447=CURVE_STYLE('',#21,POSITIVE_LENGTH_MEASURE(2.E-2),#9);
#448=PRESENTATION_STYLE_ASSIGNMENT((#447));
#449=STYLED_ITEM('',(#448),#446);
#450=DIRECTION('',(0.E0,0.E0,-1.E0));
#451=VECTOR('',#450,3.148645669291E-2);
#452=CARTESIAN_POINT('',(1.220472440813E-2,1.181102362466E-2,
7.873055118110E-2));
#453=LINE('',#452,#451);
#454=CURVE_STYLE('',#21,POSITIVE_LENGTH_MEASURE(2.E-2),#9);
#455=PRESENTATION_STYLE_ASSIGNMENT((#454));
#456=STYLED_ITEM('',(#455),#453);
#457=DIRECTION('',(0.E0,0.E0,1.E0));
#458=VECTOR('',#457,3.148645669291E-2);
#459=CARTESIAN_POINT('',(3.149606297898E-3,1.181102362466E-2,
4.724409448819E-2));
#460=LINE('',#459,#458);
#461=CURVE_STYLE('',#21,POSITIVE_LENGTH_MEASURE(2.E-2),#9);
#462=PRESENTATION_STYLE_ASSIGNMENT((#461));
#463=STYLED_ITEM('',(#462),#460);
#464=DIRECTION('',(1.E0,0.E0,0.E0));
#465=VECTOR('',#464,9.055118110236E-3);
#466=CARTESIAN_POINT('',(3.149606297898E-3,1.181102362466E-2,
4.724409448819E-2));
#467=LINE('',#466,#465);
#468=CURVE_STYLE('',#21,POSITIVE_LENGTH_MEASURE(2.E-2),#9);
#469=PRESENTATION_STYLE_ASSIGNMENT((#468));
#470=STYLED_ITEM('',(#469),#467);
#471=DIRECTION('',(-1.E0,0.E0,0.E0));
#472=VECTOR('',#471,9.055118110236E-3);
#473=CARTESIAN_POINT('',(1.220472440813E-2,2.615764817909E-12,
3.543307086614E-2));
#474=LINE('',#473,#472);
#475=CURVE_STYLE('',#21,POSITIVE_LENGTH_MEASURE(2.E-2),#9);
#476=PRESENTATION_STYLE_ASSIGNMENT((#475));
#477=STYLED_ITEM('',(#476),#474);
#478=DIRECTION('',(0.E0,-1.E0,2.072419284541E-14));
#479=VECTOR('',#478,2.611603397739E-2);
#480=CARTESIAN_POINT('',(1.220472440813E-2,2.615764817909E-12,
3.543307086614E-2));
#481=LINE('',#480,#479);
#482=CURVE_STYLE('',#21,POSITIVE_LENGTH_MEASURE(2.E-2),#9);
#483=PRESENTATION_STYLE_ASSIGNMENT((#482));
#484=STYLED_ITEM('',(#483),#481);
#485=DIRECTION('',(0.E0,1.E0,-2.072419284541E-14));
#486=VECTOR('',#485,2.611603397739E-2);
#487=CARTESIAN_POINT('',(3.149606297898E-3,-2.611603397478E-2,
3.543307086614E-2));
#488=LINE('',#487,#486);
#489=CURVE_STYLE('',#21,POSITIVE_LENGTH_MEASURE(2.E-2),#9);
#490=PRESENTATION_STYLE_ASSIGNMENT((#489));
#491=STYLED_ITEM('',(#490),#488);
#492=CARTESIAN_POINT('',(1.141732283335E-2,-4.930311261958E-2,
1.598003850511E-2));
#493=CARTESIAN_POINT('',(1.141732283335E-2,-4.260270984683E-2,
2.222825628941E-2));
#494=VERTEX_POINT('',#492);
#495=VERTEX_POINT('',#493);
#496=CARTESIAN_POINT('',(3.346456691618E-3,-3.937007873885E-2,
2.524272647641E-2));
#497=CARTESIAN_POINT('',(3.346456691618E-3,-4.135591383452E-2,
2.339090964602E-2));
#498=VERTEX_POINT('',#496);
#499=VERTEX_POINT('',#497);
#500=CARTESIAN_POINT('',(3.149606297898E-3,-3.937007873885E-2,
3.331749930238E-2));
#501=CARTESIAN_POINT('',(3.346456691618E-3,-3.937007873885E-2,
3.331749930238E-2));
#502=VERTEX_POINT('',#500);
#503=VERTEX_POINT('',#501);
#504=CARTESIAN_POINT('',(1.220472440813E-2,-4.160527303702E-2,
2.315837897467E-2));
#505=VERTEX_POINT('',#504);
#506=CARTESIAN_POINT('',(1.141732283335E-2,-5.126183596382E-2,
2.222825628941E-2));
#507=VERTEX_POINT('',#506);
#508=CARTESIAN_POINT('',(1.141732283335E-2,-5.118110236090E-2,
1.166098350512E-2));
#509=VERTEX_POINT('',#508);
#510=CARTESIAN_POINT('',(1.220472440813E-2,-5.026440149967E-2,
2.315837897467E-2));
#511=VERTEX_POINT('',#510);
#512=CARTESIAN_POINT('',(3.346456691618E-3,-5.001504288359E-2,
2.339090964602E-2));
#513=VERTEX_POINT('',#512);
#514=CARTESIAN_POINT('',(1.141732283335E-2,-5.118110236090E-2,
4.112515393254E-4));
#515=CARTESIAN_POINT('',(1.141732283335E-2,-5.610236220343E-2,
4.112515393254E-4));
#516=VERTEX_POINT('',#514);
#517=VERTEX_POINT('',#515);
#518=CARTESIAN_POINT('',(1.220472440813E-2,-3.013290739104E-2,
3.385650785452E-2));
#519=VERTEX_POINT('',#518);
#520=CARTESIAN_POINT('',(4.330708660122E-3,-4.260270984682E-2,
2.222825628941E-2));
#521=CARTESIAN_POINT('',(4.330708660122E-3,-5.126183596382E-2,
2.222825628941E-2));
#522=VERTEX_POINT('',#520);
#523=VERTEX_POINT('',#521);
#524=CARTESIAN_POINT('',(3.149606297898E-3,-3.937007873885E-2,
2.524272792804E-2));
#525=VERTEX_POINT('',#524);
#526=CARTESIAN_POINT('',(4.330708660122E-3,-4.930304063164E-2,
1.598009401411E-2));
#527=CARTESIAN_POINT('',(4.330708660122E-3,-5.118110236090E-2,
1.166098350512E-2));
#528=VERTEX_POINT('',#526);
#529=VERTEX_POINT('',#527);
#530=CARTESIAN_POINT('',(4.330708660122E-3,-5.118110236090E-2,
4.112515393254E-4));
#531=VERTEX_POINT('',#530);
#532=CARTESIAN_POINT('',(4.330708660122E-3,-5.333068929078E-2,
2.029901935101E-2));
#533=VERTEX_POINT('',#532);
#534=CARTESIAN_POINT('',(4.330708660122E-3,-5.610236220343E-2,
1.638129012255E-2));
#535=VERTEX_POINT('',#534);
#536=CARTESIAN_POINT('',(4.330708660122E-3,-5.610236220343E-2,
4.112515393254E-4));
#537=VERTEX_POINT('',#536);
#538=CARTESIAN_POINT('',(1.141732283335E-2,-5.333068929078E-2,
2.029901935101E-2));
#539=VERTEX_POINT('',#538);
#540=CARTESIAN_POINT('',(1.141732283335E-2,-5.610236220343E-2,
1.638129012255E-2));
#541=VERTEX_POINT('',#540);
#542=CARTESIAN_POINT('',(3.149606297898E-3,-3.013295706606E-2,
3.385646973576E-2));
#543=VERTEX_POINT('',#542);
#544=CARTESIAN_POINT('',(3.149606297898E-3,-2.611603397479E-2,
3.543307086614E-2));
#545=VERTEX_POINT('',#544);
#546=CARTESIAN_POINT('',(1.220472440813E-2,-3.417113271567E-2,
3.816559490101E-2));
#547=VERTEX_POINT('',#546);
#548=CARTESIAN_POINT('',(3.149606297898E-3,2.615765243297E-12,
3.543307086614E-2));
#549=VERTEX_POINT('',#548);
#550=CARTESIAN_POINT('',(3.149606297898E-3,1.181102362466E-2,
4.724409448819E-2));
#551=VERTEX_POINT('',#550);
#552=CARTESIAN_POINT('',(3.149606297898E-3,1.181102362466E-2,
7.873055118110E-2));
#553=VERTEX_POINT('',#552);
#554=CARTESIAN_POINT('',(3.149606297898E-3,5.905511813639E-3,
7.873055118110E-2));
#555=VERTEX_POINT('',#554);
#556=CARTESIAN_POINT('',(3.149606297898E-3,5.905511813639E-3,
4.724409448819E-2));
#557=VERTEX_POINT('',#556);
#558=CARTESIAN_POINT('',(3.149606297898E-3,2.615588301502E-12,
4.133858267717E-2));
#559=VERTEX_POINT('',#558);
#560=CARTESIAN_POINT('',(3.149606297898E-3,-2.611603397477E-2,
4.133858267717E-2));
#561=VERTEX_POINT('',#560);
#562=CARTESIAN_POINT('',(3.149606297898E-3,-3.417113271567E-2,
3.816559490101E-2));
#563=VERTEX_POINT('',#562);
#564=CARTESIAN_POINT('',(1.220472440813E-2,-2.611603397479E-2,
3.543307086614E-2));
#565=VERTEX_POINT('',#564);
#566=CARTESIAN_POINT('',(1.220472440813E-2,2.615764817909E-12,
3.543307086614E-2));
#567=VERTEX_POINT('',#566);
#568=CARTESIAN_POINT('',(1.220472440813E-2,1.181102362466E-2,
4.724409448819E-2));
#569=VERTEX_POINT('',#568);
#570=CARTESIAN_POINT('',(1.220472440813E-2,1.181102362466E-2,
7.873055118110E-2));
#571=VERTEX_POINT('',#570);
#572=CARTESIAN_POINT('',(1.220472440813E-2,5.905511813639E-3,
7.873055118110E-2));
#573=VERTEX_POINT('',#572);
#574=CARTESIAN_POINT('',(1.220472440813E-2,5.905511813639E-3,
4.724409448819E-2));
#575=VERTEX_POINT('',#574);
#576=CARTESIAN_POINT('',(1.220472440813E-2,2.615587687451E-12,
4.133858267717E-2));
#577=VERTEX_POINT('',#576);
#578=CARTESIAN_POINT('',(1.220472440813E-2,-2.611603397477E-2,
4.133858267717E-2));
#579=VERTEX_POINT('',#578);
#580=CARTESIAN_POINT('',(3.149606297898E-3,-4.527559054989E-2,
1.166098350511E-2));
#581=DIRECTION('',(1.E0,0.E0,0.E0));
#582=DIRECTION('',(0.E0,0.E0,-1.E0));
#583=AXIS2_PLACEMENT_3D('',#580,#581,#582);
#584=CYLINDRICAL_SURFACE('',#583,5.905511811015E-3);
#586=ORIENTED_EDGE('',*,*,#585,.T.);
#588=ORIENTED_EDGE('',*,*,#587,.F.);
#590=ORIENTED_EDGE('',*,*,#589,.T.);
#592=ORIENTED_EDGE('',*,*,#591,.F.);
#593=EDGE_LOOP('',(#586,#588,#590,#592));
#594=FACE_OUTER_BOUND('',#593,.F.);
#596=FILL_AREA_STYLE_COLOUR('',#12);
#597=FILL_AREA_STYLE('',(#596));
#598=SURFACE_STYLE_FILL_AREA(#597);
#599=SURFACE_SIDE_STYLE('',(#598));
#600=SURFACE_STYLE_USAGE(.BOTH.,#599);
#601=PRESENTATION_STYLE_ASSIGNMENT((#600));
#602=OVER_RIDING_STYLED_ITEM('',(#601),#595,#16);
#603=CARTESIAN_POINT('',(1.141732283335E-2,-3.937007873885E-2,
1.166098350512E-2));
#604=DIRECTION('',(-1.E0,0.E0,0.E0));
#605=DIRECTION('',(0.E0,0.E0,1.E0));
#606=AXIS2_PLACEMENT_3D('',#603,#604,#605);
#607=PLANE('',#606);
#609=ORIENTED_EDGE('',*,*,#608,.T.);
#611=ORIENTED_EDGE('',*,*,#610,.F.);
#613=ORIENTED_EDGE('',*,*,#612,.F.);
#615=ORIENTED_EDGE('',*,*,#614,.T.);
#617=ORIENTED_EDGE('',*,*,#616,.F.);
#618=ORIENTED_EDGE('',*,*,#585,.F.);
#620=ORIENTED_EDGE('',*,*,#619,.T.);
#622=ORIENTED_EDGE('',*,*,#621,.T.);
#623=EDGE_LOOP('',(#609,#611,#613,#615,#617,#618,#620,#622));
#624=FACE_OUTER_BOUND('',#623,.F.);
#626=FILL_AREA_STYLE_COLOUR('',#12);
#627=FILL_AREA_STYLE('',(#626));
#628=SURFACE_STYLE_FILL_AREA(#627);
#629=SURFACE_SIDE_STYLE('',(#628));
#630=SURFACE_STYLE_USAGE(.BOTH.,#629);
#631=PRESENTATION_STYLE_ASSIGNMENT((#630));
#632=OVER_RIDING_STYLED_ITEM('',(#631),#625,#16);
#633=CARTESIAN_POINT('',(3.149606297898E-3,-5.610236220343E-2,
1.638129012255E-2));
#634=DIRECTION('',(0.E0,-1.E0,0.E0));
#635=DIRECTION('',(0.E0,0.E0,-1.E0));
#636=AXIS2_PLACEMENT_3D('',#633,#634,#635);
#637=PLANE('',#636);
#638=ORIENTED_EDGE('',*,*,#608,.F.);
#640=ORIENTED_EDGE('',*,*,#639,.T.);
#642=ORIENTED_EDGE('',*,*,#641,.F.);
#644=ORIENTED_EDGE('',*,*,#643,.T.);
#645=EDGE_LOOP('',(#638,#640,#642,#644));
#646=FACE_OUTER_BOUND('',#645,.F.);
#648=FILL_AREA_STYLE_COLOUR('',#12);
#649=FILL_AREA_STYLE('',(#648));
#650=SURFACE_STYLE_FILL_AREA(#649);
#651=SURFACE_SIDE_STYLE('',(#650));
#652=SURFACE_STYLE_USAGE(.BOTH.,#651);
#653=PRESENTATION_STYLE_ASSIGNMENT((#652));
#654=OVER_RIDING_STYLED_ITEM('',(#653),#647,#16);
#655=CARTESIAN_POINT('',(3.149606297898E-3,-5.610236220343E-2,
4.112515393235E-4));
#656=DIRECTION('',(0.E0,0.E0,-1.E0));
#657=DIRECTION('',(-1.E0,0.E0,0.E0));
#658=AXIS2_PLACEMENT_3D('',#655,#656,#657);
#659=PLANE('',#658);
#660=ORIENTED_EDGE('',*,*,#621,.F.);
#662=ORIENTED_EDGE('',*,*,#661,.T.);
#664=ORIENTED_EDGE('',*,*,#663,.F.);
#665=ORIENTED_EDGE('',*,*,#639,.F.);
#666=EDGE_LOOP('',(#660,#662,#664,#665));
#667=FACE_OUTER_BOUND('',#666,.F.);
#669=FILL_AREA_STYLE_COLOUR('',#12);
#670=FILL_AREA_STYLE('',(#669));
#671=SURFACE_STYLE_FILL_AREA(#670);
#672=SURFACE_SIDE_STYLE('',(#671));
#673=SURFACE_STYLE_USAGE(.BOTH.,#672);
#674=PRESENTATION_STYLE_ASSIGNMENT((#673));
#675=OVER_RIDING_STYLED_ITEM('',(#674),#668,#16);
#676=CARTESIAN_POINT('',(3.149606297898E-3,-5.118110236090E-2,
4.112515393235E-4));
#677=DIRECTION('',(0.E0,1.E0,0.E0));
#678=DIRECTION('',(0.E0,0.E0,1.E0));
#679=AXIS2_PLACEMENT_3D('',#676,#677,#678);
#680=PLANE('',#679);
#681=ORIENTED_EDGE('',*,*,#619,.F.);
#682=ORIENTED_EDGE('',*,*,#591,.T.);
#684=ORIENTED_EDGE('',*,*,#683,.F.);
#685=ORIENTED_EDGE('',*,*,#661,.F.);
#686=EDGE_LOOP('',(#681,#682,#684,#685));
#687=FACE_OUTER_BOUND('',#686,.F.);
#689=FILL_AREA_STYLE_COLOUR('',#12);
#690=FILL_AREA_STYLE('',(#689));
#691=SURFACE_STYLE_FILL_AREA(#690);
#692=SURFACE_SIDE_STYLE('',(#691));
#693=SURFACE_STYLE_USAGE(.BOTH.,#692);
#694=PRESENTATION_STYLE_ASSIGNMENT((#693));
#695=OVER_RIDING_STYLED_ITEM('',(#694),#688,#16);
#696=CARTESIAN_POINT('',(4.330708660122E-3,-3.937007873885E-2,
4.112515393293E-4));
#697=DIRECTION('',(1.E0,0.E0,0.E0));
#698=DIRECTION('',(0.E0,0.E0,-1.E0));
#699=AXIS2_PLACEMENT_3D('',#696,#697,#698);
#700=PLANE('',#699);
#701=ORIENTED_EDGE('',*,*,#641,.T.);
#702=ORIENTED_EDGE('',*,*,#663,.T.);
#703=ORIENTED_EDGE('',*,*,#683,.T.);
#704=ORIENTED_EDGE('',*,*,#589,.F.);
#706=ORIENTED_EDGE('',*,*,#705,.F.);
#708=ORIENTED_EDGE('',*,*,#707,.T.);
#710=ORIENTED_EDGE('',*,*,#709,.F.);
#712=ORIENTED_EDGE('',*,*,#711,.F.);
#713=EDGE_LOOP('',(#701,#702,#703,#704,#706,#708,#710,#712));
#714=FACE_OUTER_BOUND('',#713,.F.);
#716=FILL_AREA_STYLE_COLOUR('',#12);
#717=FILL_AREA_STYLE('',(#716));
#718=SURFACE_STYLE_FILL_AREA(#717);
#719=SURFACE_SIDE_STYLE('',(#718));
#720=SURFACE_STYLE_USAGE(.BOTH.,#719);
#721=PRESENTATION_STYLE_ASSIGNMENT((#720));
#722=OVER_RIDING_STYLED_ITEM('',(#721),#715,#16);
#723=CARTESIAN_POINT('',(3.149606297898E-3,-4.135591383452E-2,
2.339090964602E-2));
#724=DIRECTION('',(0.E0,6.819975021985E-1,-7.313545015893E-1));
#725=DIRECTION('',(0.E0,7.313545015893E-1,6.819975021985E-1));
#726=AXIS2_PLACEMENT_3D('',#723,#724,#725);
#727=PLANE('',#726);
#729=ORIENTED_EDGE('',*,*,#728,.F.);
#731=ORIENTED_EDGE('',*,*,#730,.T.);
#733=ORIENTED_EDGE('',*,*,#732,.T.);
#735=ORIENTED_EDGE('',*,*,#734,.T.);
#737=ORIENTED_EDGE('',*,*,#736,.F.);
#739=ORIENTED_EDGE('',*,*,#738,.T.);
#741=ORIENTED_EDGE('',*,*,#740,.F.);
#742=ORIENTED_EDGE('',*,*,#705,.T.);
#743=ORIENTED_EDGE('',*,*,#587,.T.);
#744=ORIENTED_EDGE('',*,*,#616,.T.);
#745=EDGE_LOOP('',(#729,#731,#733,#735,#737,#739,#741,#742,#743,#744));
#746=FACE_OUTER_BOUND('',#745,.F.);
#748=FILL_AREA_STYLE_COLOUR('',#12);
#749=FILL_AREA_STYLE('',(#748));
#750=SURFACE_STYLE_FILL_AREA(#749);
#751=SURFACE_SIDE_STYLE('',(#750));
#752=SURFACE_STYLE_USAGE(.BOTH.,#751);
#753=PRESENTATION_STYLE_ASSIGNMENT((#752));
#754=OVER_RIDING_STYLED_ITEM('',(#753),#747,#16);
#755=CARTESIAN_POINT('',(1.240157480186E-2,-3.937007873885E-2,
2.339090964602E-2));
#756=DIRECTION('',(-7.632346554037E-1,0.E0,6.461213978742E-1));
#757=DIRECTION('',(6.461213978742E-1,0.E0,7.632346554037E-1));
#758=AXIS2_PLACEMENT_3D('',#755,#756,#757);
#759=PLANE('',#758);
#761=ORIENTED_EDGE('',*,*,#760,.T.);
#763=ORIENTED_EDGE('',*,*,#762,.T.);
#764=ORIENTED_EDGE('',*,*,#728,.T.);
#765=ORIENTED_EDGE('',*,*,#614,.F.);
#766=EDGE_LOOP('',(#761,#763,#764,#765));
#767=FACE_OUTER_BOUND('',#766,.F.);
#769=FILL_AREA_STYLE_COLOUR('',#12);
#770=FILL_AREA_STYLE('',(#769));
#771=SURFACE_STYLE_FILL_AREA(#770);
#772=SURFACE_SIDE_STYLE('',(#771));
#773=SURFACE_STYLE_USAGE(.BOTH.,#772);
#774=PRESENTATION_STYLE_ASSIGNMENT((#773));
#775=OVER_RIDING_STYLED_ITEM('',(#774),#768,#16);
#776=CARTESIAN_POINT('',(3.149606297898E-3,-4.663025628520E-2,
2.654727421237E-2));
#777=DIRECTION('',(0.E0,-6.819983600625E-1,7.313537016192E-1));
#778=DIRECTION('',(0.E0,-7.313537016192E-1,-6.819983600625E-1));
#779=AXIS2_PLACEMENT_3D('',#776,#777,#778);
#780=PLANE('',#779);
#781=ORIENTED_EDGE('',*,*,#760,.F.);
#782=ORIENTED_EDGE('',*,*,#612,.T.);
#784=ORIENTED_EDGE('',*,*,#783,.T.);
#785=ORIENTED_EDGE('',*,*,#709,.T.);
#787=ORIENTED_EDGE('',*,*,#786,.F.);
#789=ORIENTED_EDGE('',*,*,#788,.T.);
#791=ORIENTED_EDGE('',*,*,#790,.F.);
#793=ORIENTED_EDGE('',*,*,#792,.T.);
#795=ORIENTED_EDGE('',*,*,#794,.T.);
#797=ORIENTED_EDGE('',*,*,#796,.T.);
#798=EDGE_LOOP('',(#781,#782,#784,#785,#787,#789,#791,#793,#795,#797));
#799=FACE_OUTER_BOUND('',#798,.F.);
#801=FILL_AREA_STYLE_COLOUR('',#12);
#802=FILL_AREA_STYLE('',(#801));
#803=SURFACE_STYLE_FILL_AREA(#802);
#804=SURFACE_SIDE_STYLE('',(#803));
#805=SURFACE_STYLE_USAGE(.BOTH.,#804);
#806=PRESENTATION_STYLE_ASSIGNMENT((#805));
#807=OVER_RIDING_STYLED_ITEM('',(#806),#800,#16);
#808=CARTESIAN_POINT('',(3.149606297898E-3,-4.527559054989E-2,
1.166098350511E-2));
#809=DIRECTION('',(1.E0,0.E0,0.E0));
#810=DIRECTION('',(0.E0,0.E0,-1.E0));
#811=AXIS2_PLACEMENT_3D('',#808,#809,#810);
#812=CYLINDRICAL_SURFACE('',#811,1.181102362205E-2);
#813=ORIENTED_EDGE('',*,*,#610,.T.);
#814=ORIENTED_EDGE('',*,*,#643,.F.);
#815=ORIENTED_EDGE('',*,*,#711,.T.);
#816=ORIENTED_EDGE('',*,*,#783,.F.);
#817=EDGE_LOOP('',(#813,#814,#815,#816));
#818=FACE_OUTER_BOUND('',#817,.F.);
#820=FILL_AREA_STYLE_COLOUR('',#12);
#821=FILL_AREA_STYLE('',(#820));
#822=SURFACE_STYLE_FILL_AREA(#821);
#823=SURFACE_SIDE_STYLE('',(#822));
#824=SURFACE_STYLE_USAGE(.BOTH.,#823);
#825=PRESENTATION_STYLE_ASSIGNMENT((#824));
#826=OVER_RIDING_STYLED_ITEM('',(#825),#819,#16);
#827=CARTESIAN_POINT('',(4.330708660124E-3,-3.937007873885E-2,
2.222825628941E-2));
#828=DIRECTION('',(7.632346554035E-1,0.E0,6.461213978743E-1));
#829=DIRECTION('',(6.461213978743E-1,0.E0,-7.632346554035E-1));
#830=AXIS2_PLACEMENT_3D('',#827,#828,#829);
#831=PLANE('',#830);
#832=ORIENTED_EDGE('',*,*,#786,.T.);
#833=ORIENTED_EDGE('',*,*,#707,.F.);
#834=ORIENTED_EDGE('',*,*,#740,.T.);
#836=ORIENTED_EDGE('',*,*,#835,.F.);
#837=EDGE_LOOP('',(#832,#833,#834,#836));
#838=FACE_OUTER_BOUND('',#837,.F.);
#840=FILL_AREA_STYLE_COLOUR('',#12);
#841=FILL_AREA_STYLE('',(#840));
#842=SURFACE_STYLE_FILL_AREA(#841);
#843=SURFACE_SIDE_STYLE('',(#842));
#844=SURFACE_STYLE_USAGE(.BOTH.,#843);
#845=PRESENTATION_STYLE_ASSIGNMENT((#844));
#846=OVER_RIDING_STYLED_ITEM('',(#845),#839,#16);
#847=CARTESIAN_POINT('',(3.346456691618E-3,-3.937007873885E-2,
2.339090964602E-2));
#848=DIRECTION('',(1.E0,0.E0,0.E0));
#849=DIRECTION('',(0.E0,0.E0,-1.E0));
#850=AXIS2_PLACEMENT_3D('',#847,#848,#849);
#851=PLANE('',#850);
#852=ORIENTED_EDGE('',*,*,#788,.F.);
#853=ORIENTED_EDGE('',*,*,#835,.T.);
#854=ORIENTED_EDGE('',*,*,#738,.F.);
#856=ORIENTED_EDGE('',*,*,#855,.T.);
#857=EDGE_LOOP('',(#852,#853,#854,#856));
#858=FACE_OUTER_BOUND('',#857,.F.);
#860=FILL_AREA_STYLE_COLOUR('',#12);
#861=FILL_AREA_STYLE('',(#860));
#862=SURFACE_STYLE_FILL_AREA(#861);
#863=SURFACE_SIDE_STYLE('',(#862));
#864=SURFACE_STYLE_USAGE(.BOTH.,#863);
#865=PRESENTATION_STYLE_ASSIGNMENT((#864));
#866=OVER_RIDING_STYLED_ITEM('',(#865),#859,#16);
#867=CARTESIAN_POINT('',(-6.299212598491E-2,-3.937007873885E-2,
1.476377952756E-1));
#868=DIRECTION('',(0.E0,1.E0,0.E0));
#869=DIRECTION('',(0.E0,0.E0,1.E0));
#870=AXIS2_PLACEMENT_3D('',#867,#868,#869);
#871=PLANE('',#870);
#872=ORIENTED_EDGE('',*,*,#790,.T.);
#873=ORIENTED_EDGE('',*,*,#855,.F.);
#874=ORIENTED_EDGE('',*,*,#736,.T.);
#876=ORIENTED_EDGE('',*,*,#875,.T.);
#877=EDGE_LOOP('',(#872,#873,#874,#876));
#878=FACE_OUTER_BOUND('',#877,.F.);
#880=FILL_AREA_STYLE_COLOUR('',#12);
#881=FILL_AREA_STYLE('',(#880));
#882=SURFACE_STYLE_FILL_AREA(#881);
#883=SURFACE_SIDE_STYLE('',(#882));
#884=SURFACE_STYLE_USAGE(.BOTH.,#883);
#885=PRESENTATION_STYLE_ASSIGNMENT((#884));
#886=OVER_RIDING_STYLED_ITEM('',(#885),#879,#16);
#887=CARTESIAN_POINT('',(3.149606297898E-3,-4.527559054989E-2,
1.166098350511E-2));
#888=DIRECTION('',(1.E0,0.E0,0.E0));
#889=DIRECTION('',(0.E0,0.E0,-1.E0));
#890=AXIS2_PLACEMENT_3D('',#887,#888,#889);
#891=PLANE('',#890);
#892=ORIENTED_EDGE('',*,*,#734,.F.);
#894=ORIENTED_EDGE('',*,*,#893,.F.);
#896=ORIENTED_EDGE('',*,*,#895,.T.);
#898=ORIENTED_EDGE('',*,*,#897,.F.);
#900=ORIENTED_EDGE('',*,*,#899,.T.);
#902=ORIENTED_EDGE('',*,*,#901,.T.);
#904=ORIENTED_EDGE('',*,*,#903,.T.);
#906=ORIENTED_EDGE('',*,*,#905,.F.);
#908=ORIENTED_EDGE('',*,*,#907,.T.);
#910=ORIENTED_EDGE('',*,*,#909,.F.);
#911=ORIENTED_EDGE('',*,*,#792,.F.);
#912=ORIENTED_EDGE('',*,*,#875,.F.);
#913=EDGE_LOOP('',(#892,#894,#896,#898,#900,#902,#904,#906,#908,#910,#911,
#912));
#914=FACE_OUTER_BOUND('',#913,.F.);
#916=FILL_AREA_STYLE_COLOUR('',#12);
#917=FILL_AREA_STYLE('',(#916));
#918=SURFACE_STYLE_FILL_AREA(#917);
#919=SURFACE_SIDE_STYLE('',(#918));
#920=SURFACE_STYLE_USAGE(.BOTH.,#919);
#921=PRESENTATION_STYLE_ASSIGNMENT((#920));
#922=OVER_RIDING_STYLED_ITEM('',(#921),#915,#16);
#923=CARTESIAN_POINT('',(3.149606297898E-3,-2.611603397477E-2,
2.952755905512E-2));
#924=DIRECTION('',(1.E0,0.E0,0.E0));
#925=DIRECTION('',(0.E0,0.E0,-1.E0));
#926=AXIS2_PLACEMENT_3D('',#923,#924,#925);
#927=CYLINDRICAL_SURFACE('',#926,5.905511811025E-3);
#929=ORIENTED_EDGE('',*,*,#928,.T.);
#931=ORIENTED_EDGE('',*,*,#930,.F.);
#932=ORIENTED_EDGE('',*,*,#893,.T.);
#933=ORIENTED_EDGE('',*,*,#732,.F.);
#934=EDGE_LOOP('',(#929,#931,#932,#933));
#935=FACE_OUTER_BOUND('',#934,.F.);
#937=FILL_AREA_STYLE_COLOUR('',#12);
#938=FILL_AREA_STYLE('',(#937));
#939=SURFACE_STYLE_FILL_AREA(#938);
#940=SURFACE_SIDE_STYLE('',(#939));
#941=SURFACE_STYLE_USAGE(.BOTH.,#940);
#942=PRESENTATION_STYLE_ASSIGNMENT((#941));
#943=OVER_RIDING_STYLED_ITEM('',(#942),#936,#16);
#944=CARTESIAN_POINT('',(1.220472440813E-2,-4.527559054989E-2,
1.166098350511E-2));
#945=DIRECTION('',(1.E0,0.E0,0.E0));
#946=DIRECTION('',(0.E0,0.E0,-1.E0));
#947=AXIS2_PLACEMENT_3D('',#944,#945,#946);
#948=PLANE('',#947);
#949=ORIENTED_EDGE('',*,*,#762,.F.);
#950=ORIENTED_EDGE('',*,*,#796,.F.);
#952=ORIENTED_EDGE('',*,*,#951,.F.);
#954=ORIENTED_EDGE('',*,*,#953,.T.);
#956=ORIENTED_EDGE('',*,*,#955,.F.);
#958=ORIENTED_EDGE('',*,*,#957,.T.);
#960=ORIENTED_EDGE('',*,*,#959,.T.);
#962=ORIENTED_EDGE('',*,*,#961,.T.);
#964=ORIENTED_EDGE('',*,*,#963,.F.);
#966=ORIENTED_EDGE('',*,*,#965,.T.);
#967=ORIENTED_EDGE('',*,*,#928,.F.);
#968=ORIENTED_EDGE('',*,*,#730,.F.);
#969=EDGE_LOOP('',(#949,#950,#952,#954,#956,#958,#960,#962,#964,#966,#967,
#968));
#970=FACE_OUTER_BOUND('',#969,.F.);
#972=FILL_AREA_STYLE_COLOUR('',#12);
#973=FILL_AREA_STYLE('',(#972));
#974=SURFACE_STYLE_FILL_AREA(#973);
#975=SURFACE_SIDE_STYLE('',(#974));
#976=SURFACE_STYLE_USAGE(.BOTH.,#975);
#977=PRESENTATION_STYLE_ASSIGNMENT((#976));
#978=OVER_RIDING_STYLED_ITEM('',(#977),#971,#16);
#979=CARTESIAN_POINT('',(3.149606297898E-3,-2.611603397477E-2,
2.952755905512E-2));
#980=DIRECTION('',(1.E0,0.E0,0.E0));
#981=DIRECTION('',(0.E0,0.E0,-1.E0));
#982=AXIS2_PLACEMENT_3D('',#979,#980,#981);
#983=CYLINDRICAL_SURFACE('',#982,1.181102362205E-2);
#984=ORIENTED_EDGE('',*,*,#951,.T.);
#985=ORIENTED_EDGE('',*,*,#794,.F.);
#986=ORIENTED_EDGE('',*,*,#909,.T.);
#988=ORIENTED_EDGE('',*,*,#987,.F.);
#989=EDGE_LOOP('',(#984,#985,#986,#988));
#990=FACE_OUTER_BOUND('',#989,.F.);
#992=FILL_AREA_STYLE_COLOUR('',#12);
#993=FILL_AREA_STYLE('',(#992));
#994=SURFACE_STYLE_FILL_AREA(#993);
#995=SURFACE_SIDE_STYLE('',(#994));
#996=SURFACE_STYLE_USAGE(.BOTH.,#995);
#997=PRESENTATION_STYLE_ASSIGNMENT((#996));
#998=OVER_RIDING_STYLED_ITEM('',(#997),#991,#16);
#999=CARTESIAN_POINT('',(3.149606297898E-3,2.615763967133E-12,
4.133858267717E-2));
#1000=DIRECTION('',(0.E0,0.E0,1.E0));
#1001=DIRECTION('',(1.E0,0.E0,0.E0));
#1002=AXIS2_PLACEMENT_3D('',#999,#1000,#1001);
#1003=PLANE('',#1002);
#1004=ORIENTED_EDGE('',*,*,#953,.F.);
#1005=ORIENTED_EDGE('',*,*,#987,.T.);
#1006=ORIENTED_EDGE('',*,*,#907,.F.);
#1008=ORIENTED_EDGE('',*,*,#1007,.T.);
#1009=EDGE_LOOP('',(#1004,#1005,#1006,#1008));
#1010=FACE_OUTER_BOUND('',#1009,.F.);
#1012=FILL_AREA_STYLE_COLOUR('',#12);
#1013=FILL_AREA_STYLE('',(#1012));
#1014=SURFACE_STYLE_FILL_AREA(#1013);
#1015=SURFACE_SIDE_STYLE('',(#1014));
#1016=SURFACE_STYLE_USAGE(.BOTH.,#1015);
#1017=PRESENTATION_STYLE_ASSIGNMENT((#1016));
#1018=OVER_RIDING_STYLED_ITEM('',(#1017),#1011,#16);
#1019=CARTESIAN_POINT('',(3.149606297898E-3,2.615763967133E-12,
4.724409448819E-2));
#1020=DIRECTION('',(1.E0,0.E0,0.E0));
#1021=DIRECTION('',(0.E0,0.E0,-1.E0));
#1022=AXIS2_PLACEMENT_3D('',#1019,#1020,#1021);
#1023=CYLINDRICAL_SURFACE('',#1022,5.905511811024E-3);
#1024=ORIENTED_EDGE('',*,*,#955,.T.);
#1025=ORIENTED_EDGE('',*,*,#1007,.F.);
#1026=ORIENTED_EDGE('',*,*,#905,.T.);
#1028=ORIENTED_EDGE('',*,*,#1027,.F.);
#1029=EDGE_LOOP('',(#1024,#1025,#1026,#1028));
#1030=FACE_OUTER_BOUND('',#1029,.F.);
#1032=FILL_AREA_STYLE_COLOUR('',#12);
#1033=FILL_AREA_STYLE('',(#1032));
#1034=SURFACE_STYLE_FILL_AREA(#1033);
#1035=SURFACE_SIDE_STYLE('',(#1034));
#1036=SURFACE_STYLE_USAGE(.BOTH.,#1035);
#1037=PRESENTATION_STYLE_ASSIGNMENT((#1036));
#1038=OVER_RIDING_STYLED_ITEM('',(#1037),#1031,#16);
#1039=CARTESIAN_POINT('',(3.149606297898E-3,5.905511813639E-3,
7.873055118110E-2));
#1040=DIRECTION('',(0.E0,-1.E0,0.E0));
#1041=DIRECTION('',(0.E0,0.E0,-1.E0));
#1042=AXIS2_PLACEMENT_3D('',#1039,#1040,#1041);
#1043=PLANE('',#1042);
#1044=ORIENTED_EDGE('',*,*,#957,.F.);
#1045=ORIENTED_EDGE('',*,*,#1027,.T.);
#1046=ORIENTED_EDGE('',*,*,#903,.F.);
#1048=ORIENTED_EDGE('',*,*,#1047,.F.);
#1049=EDGE_LOOP('',(#1044,#1045,#1046,#1048));
#1050=FACE_OUTER_BOUND('',#1049,.F.);
#1052=FILL_AREA_STYLE_COLOUR('',#12);
#1053=FILL_AREA_STYLE('',(#1052));
#1054=SURFACE_STYLE_FILL_AREA(#1053);
#1055=SURFACE_SIDE_STYLE('',(#1054));
#1056=SURFACE_STYLE_USAGE(.BOTH.,#1055);
#1057=PRESENTATION_STYLE_ASSIGNMENT((#1056));
#1058=OVER_RIDING_STYLED_ITEM('',(#1057),#1051,#16);
#1059=CARTESIAN_POINT('',(3.149606297898E-3,1.181102362466E-2,
7.873055118110E-2));
#1060=DIRECTION('',(0.E0,0.E0,1.E0));
#1061=DIRECTION('',(1.E0,0.E0,0.E0));
#1062=AXIS2_PLACEMENT_3D('',#1059,#1060,#1061);
#1063=PLANE('',#1062);
#1064=ORIENTED_EDGE('',*,*,#959,.F.);
#1065=ORIENTED_EDGE('',*,*,#1047,.T.);
#1066=ORIENTED_EDGE('',*,*,#901,.F.);
#1068=ORIENTED_EDGE('',*,*,#1067,.F.);
#1069=EDGE_LOOP('',(#1064,#1065,#1066,#1068));
#1070=FACE_OUTER_BOUND('',#1069,.F.);
#1072=FILL_AREA_STYLE_COLOUR('',#12);
#1073=FILL_AREA_STYLE('',(#1072));
#1074=SURFACE_STYLE_FILL_AREA(#1073);
#1075=SURFACE_SIDE_STYLE('',(#1074));
#1076=SURFACE_STYLE_USAGE(.BOTH.,#1075);
#1077=PRESENTATION_STYLE_ASSIGNMENT((#1076));
#1078=OVER_RIDING_STYLED_ITEM('',(#1077),#1071,#16);
#1079=CARTESIAN_POINT('',(3.149606297898E-3,1.181102362466E-2,
4.724409448819E-2));
#1080=DIRECTION('',(0.E0,1.E0,0.E0));
#1081=DIRECTION('',(0.E0,0.E0,1.E0));
#1082=AXIS2_PLACEMENT_3D('',#1079,#1080,#1081);
#1083=PLANE('',#1082);
#1084=ORIENTED_EDGE('',*,*,#961,.F.);
#1085=ORIENTED_EDGE('',*,*,#1067,.T.);
#1086=ORIENTED_EDGE('',*,*,#899,.F.);
#1088=ORIENTED_EDGE('',*,*,#1087,.T.);
#1089=EDGE_LOOP('',(#1084,#1085,#1086,#1088));
#1090=FACE_OUTER_BOUND('',#1089,.F.);
#1092=FILL_AREA_STYLE_COLOUR('',#12);
#1093=FILL_AREA_STYLE('',(#1092));
#1094=SURFACE_STYLE_FILL_AREA(#1093);
#1095=SURFACE_SIDE_STYLE('',(#1094));
#1096=SURFACE_STYLE_USAGE(.BOTH.,#1095);
#1097=PRESENTATION_STYLE_ASSIGNMENT((#1096));
#1098=OVER_RIDING_STYLED_ITEM('',(#1097),#1091,#16);
#1099=CARTESIAN_POINT('',(3.149606297898E-3,2.615763967133E-12,
4.724409448819E-2));
#1100=DIRECTION('',(1.E0,0.E0,0.E0));
#1101=DIRECTION('',(0.E0,0.E0,-1.E0));
#1102=AXIS2_PLACEMENT_3D('',#1099,#1100,#1101);
#1103=CYLINDRICAL_SURFACE('',#1102,1.181102362205E-2);
#1104=ORIENTED_EDGE('',*,*,#963,.T.);
#1105=ORIENTED_EDGE('',*,*,#1087,.F.);
#1106=ORIENTED_EDGE('',*,*,#897,.T.);
#1108=ORIENTED_EDGE('',*,*,#1107,.F.);
#1109=EDGE_LOOP('',(#1104,#1105,#1106,#1108));
#1110=FACE_OUTER_BOUND('',#1109,.F.);
#1112=FILL_AREA_STYLE_COLOUR('',#12);
#1113=FILL_AREA_STYLE('',(#1112));
#1114=SURFACE_STYLE_FILL_AREA(#1113);
#1115=SURFACE_SIDE_STYLE('',(#1114));
#1116=SURFACE_STYLE_USAGE(.BOTH.,#1115);
#1117=PRESENTATION_STYLE_ASSIGNMENT((#1116));
#1118=OVER_RIDING_STYLED_ITEM('',(#1117),#1111,#16);
#1119=CARTESIAN_POINT('',(3.149606297898E-3,-2.611603397477E-2,
3.543307086614E-2));
#1120=DIRECTION('',(0.E0,0.E0,-1.E0));
#1121=DIRECTION('',(0.E0,1.E0,0.E0));
#1122=AXIS2_PLACEMENT_3D('',#1119,#1120,#1121);
#1123=PLANE('',#1122);
#1124=ORIENTED_EDGE('',*,*,#965,.F.);
#1125=ORIENTED_EDGE('',*,*,#1107,.T.);
#1126=ORIENTED_EDGE('',*,*,#895,.F.);
#1127=ORIENTED_EDGE('',*,*,#930,.T.);
#1128=EDGE_LOOP('',(#1124,#1125,#1126,#1127));
#1129=FACE_OUTER_BOUND('',#1128,.F.);
#1131=FILL_AREA_STYLE_COLOUR('',#12);
#1132=FILL_AREA_STYLE('',(#1131));
#1133=SURFACE_STYLE_FILL_AREA(#1132);
#1134=SURFACE_SIDE_STYLE('',(#1133));
#1135=SURFACE_STYLE_USAGE(.BOTH.,#1134);
#1136=PRESENTATION_STYLE_ASSIGNMENT((#1135));
#1137=OVER_RIDING_STYLED_ITEM('',(#1136),#1130,#16);
#1140=FILL_AREA_STYLE_COLOUR('',#9);
#1141=FILL_AREA_STYLE('',(#1140));
#1142=SURFACE_STYLE_FILL_AREA(#1141);
#1143=SURFACE_SIDE_STYLE('',(#1142));
#1144=SURFACE_STYLE_USAGE(.BOTH.,#1143);
#1145=PRESENTATION_STYLE_ASSIGNMENT((#1144));
#16=STYLED_ITEM('',(#1145),#1139);
#1146=PRESENTATION_LAYER_ASSIGNMENT('SHELL_298','',(#16,#595,#625,#647,#668,
#688,#715,#747,#768,#800,#819,#839,#859,#879,#915,#936,#971,#991,#1011,#1031,
#1051,#1071,#1091,#1111,#1130));
#1148=LENGTH_MEASURE_WITH_UNIT(LENGTH_MEASURE(2.54E1),#1147);
#1149=(CONVERSION_BASED_UNIT('INCH',#1148)LENGTH_UNIT()NAMED_UNIT(*));
#1151=PLANE_ANGLE_MEASURE_WITH_UNIT(PLANE_ANGLE_MEASURE(1.745329251994E-2),
#1150);
#1152=(CONVERSION_BASED_UNIT('DEGREE',#1151)NAMED_UNIT(*)PLANE_ANGLE_UNIT());
#1154=UNCERTAINTY_MEASURE_WITH_UNIT(LENGTH_MEASURE(1.040541666704E-5),#1149,
'closure',
'Maximum model space distance between geometric entities at asserted connectivities');
#1156=CARTESIAN_POINT('',(0.E0,0.E0,0.E0));
#1157=DIRECTION('',(0.E0,0.E0,1.E0));
#1158=DIRECTION('',(1.E0,0.E0,0.E0));
#1161=MECHANICAL_DESIGN_GEOMETRIC_PRESENTATION_REPRESENTATION('',(#24,#31,#39,
#46,#53,#61,#68,#75,#82,#89,#96,#103,#110,#117,#125,#132,#139,#147,#154,#161,
#168,#175,#182,#189,#196,#203,#210,#217,#224,#231,#238,#245,#252,#260,#268,#276,
#284,#291,#298,#305,#312,#319,#326,#334,#342,#350,#358,#365,#372,#379,#386,#393,
#400,#407,#414,#421,#428,#435,#442,#449,#456,#463,#470,#477,#484,#491,#602,#632,
#654,#675,#695,#722,#754,#775,#807,#826,#846,#866,#886,#922,#943,#978,#998,
#1018,#1038,#1058,#1078,#1098,#1118,#1137,#16),#1155);
#1162=APPLICATION_CONTEXT('automotive design');
#1163=APPLICATION_PROTOCOL_DEFINITION('international standard',
'config_control_design',1994,#1162);
#1164=PRODUCT_DEFINITION_CONTEXT('',#1162,'design');
#1165=PRODUCT_CONTEXT('',#1162,'mechanical');
#1166=PRODUCT('LPATTERN3400','LPATTERN3400','NOT SPECIFIED',(#1165));
#1167=PRODUCT_DEFINITION_FORMATION_WITH_SPECIFIED_SOURCE('1','LAST_VERSION',
#1166,.MADE.);
#1175=LENGTH_MEASURE_WITH_UNIT(LENGTH_MEASURE(2.54E1),#1174);
#1176=(CONVERSION_BASED_UNIT('INCH',#1175)LENGTH_UNIT()NAMED_UNIT(*));
#1177=DERIVED_UNIT_ELEMENT(#1176,2.E0);
#1178=AREA_UNIT((#1177));
#1179=MEASURE_REPRESENTATION_ITEM('surface area measure',AREA_MEASURE(
2.348102415059E0),#1178);
#1184=LENGTH_MEASURE_WITH_UNIT(LENGTH_MEASURE(2.54E1),#1183);
#1185=(CONVERSION_BASED_UNIT('INCH',#1184)LENGTH_UNIT()NAMED_UNIT(*));
#1186=DERIVED_UNIT_ELEMENT(#1185,3.E0);
#1187=VOLUME_UNIT((#1186));
#1188=MEASURE_REPRESENTATION_ITEM('volume measure',VOLUME_MEASURE(
1.010303817174E-1),#1187);
#1192=CARTESIAN_POINT('centre point',(1.959956964294E-1,-4.105862919477E-1,
1.016223079543E0));
#1197=LENGTH_MEASURE_WITH_UNIT(LENGTH_MEASURE(2.54E1),#1196);
#1198=(CONVERSION_BASED_UNIT('INCH',#1197)LENGTH_UNIT()NAMED_UNIT(*));
#1199=DERIVED_UNIT_ELEMENT(#1198,2.E0);
#1200=AREA_UNIT((#1199));
#1201=MEASURE_REPRESENTATION_ITEM('surface area measure',AREA_MEASURE(
2.348102415059E0),#1200);
#1206=LENGTH_MEASURE_WITH_UNIT(LENGTH_MEASURE(2.54E1),#1205);
#1207=(CONVERSION_BASED_UNIT('INCH',#1206)LENGTH_UNIT()NAMED_UNIT(*));
#1208=DERIVED_UNIT_ELEMENT(#1207,3.E0);
#1209=VOLUME_UNIT((#1208));
#1210=MEASURE_REPRESENTATION_ITEM('volume measure',VOLUME_MEASURE(
1.010303817174E-1),#1209);
#1214=CARTESIAN_POINT('centre point',(1.959956964294E-1,-4.105862919477E-1,
1.016223079543E0));
#1=DRAUGHTING_PRE_DEFINED_COLOUR('green');
#2=COLOUR_RGB('',1.1E-2,1.2E-2,1.E0);
#3=COLOUR_RGB('',2.352941176471E-1,2.352941176471E-1,2.352941176471E-1);
#4=COLOUR_RGB('',4.1E-1,2.61589E-1,1.12848E-1);
#5=COLOUR_RGB('',5.04854E-1,1.5455E-2,1.5455E-2);
#6=COLOUR_RGB('',6.35294E-1,6.86275E-1,7.4902E-1);
#7=COLOUR_RGB('',6.40777E-1,6.40777E-1,6.40777E-1);
#8=COLOUR_RGB('',6.69062E-1,6.69903E-1,6.55217E-1);
#9=COLOUR_RGB('',7.921568627451E-1,8.196078431373E-1,9.333333333333E-1);
#10=COLOUR_RGB('',9.21569E-1,7.05882E-1,4.70588E-1);
#11=DRAUGHTING_PRE_DEFINED_COLOUR('red');
#12=DRAUGHTING_PRE_DEFINED_COLOUR('yellow');
#13=COLOUR_RGB('',1.E0,1.E0,5.3E-1);
#14=COLOUR_RGB('',1.E0,1.E0,9.49E-1);
#15=DRAUGHTING_PRE_DEFINED_COLOUR('white');
#36=CIRCLE('',#35,1.181102362205E-2);
#58=CIRCLE('',#57,5.905511811015E-3);
#122=CIRCLE('',#121,5.905511811015E-3);
#144=CIRCLE('',#143,1.181102362205E-2);
#257=CIRCLE('',#256,5.905511811025E-3);
#265=CIRCLE('',#264,1.181102362205E-2);
#273=CIRCLE('',#272,5.905511811024E-3);
#281=CIRCLE('',#280,1.181102362205E-2);
#331=CIRCLE('',#330,1.181102362205E-2);
#339=CIRCLE('',#338,5.905511811024E-3);
#347=CIRCLE('',#346,1.181102362205E-2);
#355=CIRCLE('',#354,5.905511811025E-3);
#585=EDGE_CURVE('',#509,#494,#58,.T.);
#587=EDGE_CURVE('',#528,#494,#20,.T.);
#589=EDGE_CURVE('',#528,#529,#122,.T.);
#591=EDGE_CURVE('',#509,#529,#28,.T.);
#595=ADVANCED_FACE('',(#594),#584,.F.);
#608=EDGE_CURVE('',#517,#541,#65,.T.);
#610=EDGE_CURVE('',#539,#541,#36,.T.);
#612=EDGE_CURVE('',#507,#539,#43,.T.);
#614=EDGE_CURVE('',#507,#495,#172,.T.);
#616=EDGE_CURVE('',#494,#495,#50,.T.);
#619=EDGE_CURVE('',#509,#516,#100,.T.);
#621=EDGE_CURVE('',#516,#517,#79,.T.);
#625=ADVANCED_FACE('',(#624),#607,.F.);
#639=EDGE_CURVE('',#517,#537,#93,.T.);
#641=EDGE_CURVE('',#535,#537,#72,.T.);
#643=EDGE_CURVE('',#535,#541,#200,.T.);
#647=ADVANCED_FACE('',(#646),#637,.T.);
#661=EDGE_CURVE('',#516,#531,#114,.T.);
#663=EDGE_CURVE('',#537,#531,#86,.T.);
#668=ADVANCED_FACE('',(#667),#659,.T.);
#683=EDGE_CURVE('',#531,#529,#107,.T.);
#688=ADVANCED_FACE('',(#687),#680,.T.);
#705=EDGE_CURVE('',#522,#528,#129,.T.);
#707=EDGE_CURVE('',#522,#523,#214,.T.);
#709=EDGE_CURVE('',#533,#523,#136,.T.);
#711=EDGE_CURVE('',#535,#533,#144,.T.);
#715=ADVANCED_FACE('',(#714),#700,.F.);
#728=EDGE_CURVE('',#505,#495,#151,.T.);
#730=EDGE_CURVE('',#505,#519,#362,.T.);
#732=EDGE_CURVE('',#519,#543,#309,.T.);
#734=EDGE_CURVE('',#543,#525,#249,.T.);
#736=EDGE_CURVE('',#498,#525,#158,.T.);
#738=EDGE_CURVE('',#498,#499,#235,.T.);
#740=EDGE_CURVE('',#522,#499,#165,.T.);
#747=ADVANCED_FACE('',(#746),#727,.T.);
#760=EDGE_CURVE('',#507,#511,#179,.T.);
#762=EDGE_CURVE('',#511,#505,#316,.T.);
#768=ADVANCED_FACE('',(#767),#759,.F.);
#783=EDGE_CURVE('',#539,#533,#207,.T.);
#786=EDGE_CURVE('',#513,#523,#186,.T.);
#788=EDGE_CURVE('',#513,#503,#228,.T.);
#790=EDGE_CURVE('',#502,#503,#193,.T.);
#792=EDGE_CURVE('',#502,#563,#288,.T.);
#794=EDGE_CURVE('',#563,#547,#369,.T.);
#796=EDGE_CURVE('',#547,#511,#323,.T.);
#800=ADVANCED_FACE('',(#799),#780,.T.);
#819=ADVANCED_FACE('',(#818),#812,.T.);
#835=EDGE_CURVE('',#513,#499,#221,.T.);
#839=ADVANCED_FACE('',(#838),#831,.F.);
#855=EDGE_CURVE('',#498,#503,#242,.T.);
#859=ADVANCED_FACE('',(#858),#851,.F.);
#875=EDGE_CURVE('',#525,#502,#295,.T.);
#879=ADVANCED_FACE('',(#878),#871,.F.);
#893=EDGE_CURVE('',#545,#543,#257,.T.);
#895=EDGE_CURVE('',#545,#549,#488,.T.);
#897=EDGE_CURVE('',#551,#549,#265,.T.);
#899=EDGE_CURVE('',#551,#553,#460,.T.);
#901=EDGE_CURVE('',#553,#555,#439,.T.);
#903=EDGE_CURVE('',#555,#557,#418,.T.);
#905=EDGE_CURVE('',#559,#557,#273,.T.);
#907=EDGE_CURVE('',#559,#561,#390,.T.);
#909=EDGE_CURVE('',#563,#561,#281,.T.);
#915=ADVANCED_FACE('',(#914),#891,.F.);
#928=EDGE_CURVE('',#519,#565,#355,.T.);
#930=EDGE_CURVE('',#545,#565,#302,.T.);
#936=ADVANCED_FACE('',(#935),#927,.F.);
#951=EDGE_CURVE('',#579,#547,#331,.T.);
#953=EDGE_CURVE('',#579,#577,#383,.T.);
#955=EDGE_CURVE('',#575,#577,#339,.T.);
#957=EDGE_CURVE('',#575,#573,#411,.T.);
#959=EDGE_CURVE('',#573,#571,#432,.T.);
#961=EDGE_CURVE('',#571,#569,#453,.T.);
#963=EDGE_CURVE('',#567,#569,#347,.T.);
#965=EDGE_CURVE('',#567,#565,#481,.T.);
#971=ADVANCED_FACE('',(#970),#948,.T.);
#987=EDGE_CURVE('',#579,#561,#376,.T.);
#991=ADVANCED_FACE('',(#990),#983,.T.);
#1007=EDGE_CURVE('',#559,#577,#397,.T.);
#1011=ADVANCED_FACE('',(#1010),#1003,.T.);
#1027=EDGE_CURVE('',#575,#557,#404,.T.);
#1031=ADVANCED_FACE('',(#1030),#1023,.F.);
#1047=EDGE_CURVE('',#573,#555,#425,.T.);
#1051=ADVANCED_FACE('',(#1050),#1043,.T.);
#1067=EDGE_CURVE('',#571,#553,#446,.T.);
#1071=ADVANCED_FACE('',(#1070),#1063,.T.);
#1087=EDGE_CURVE('',#551,#569,#467,.T.);
#1091=ADVANCED_FACE('',(#1090),#1083,.T.);
#1107=EDGE_CURVE('',#567,#549,#474,.T.);
#1111=ADVANCED_FACE('',(#1110),#1103,.T.);
#1130=ADVANCED_FACE('',(#1129),#1123,.T.);
#1138=CLOSED_SHELL('',(#595,#625,#647,#668,#688,#715,#747,#768,#800,#819,#839,
#859,#879,#915,#936,#971,#991,#1011,#1031,#1051,#1071,#1091,#1111,#1130));
#1139=MANIFOLD_SOLID_BREP('',#1138);
#1147=(LENGTH_UNIT()NAMED_UNIT(*)SI_UNIT(.MILLI.,.METRE.));
#1150=(NAMED_UNIT(*)PLANE_ANGLE_UNIT()SI_UNIT($,.RADIAN.));
#1153=(NAMED_UNIT(*)SI_UNIT($,.STERADIAN.)SOLID_ANGLE_UNIT());
#1155=(GEOMETRIC_REPRESENTATION_CONTEXT(3)GLOBAL_UNCERTAINTY_ASSIGNED_CONTEXT((
#1154))GLOBAL_UNIT_ASSIGNED_CONTEXT((#1149,#1152,#1153))REPRESENTATION_CONTEXT(
'ID1','3'));
#1159=AXIS2_PLACEMENT_3D('',#1156,#1157,#1158);
#1160=ADVANCED_BREP_SHAPE_REPRESENTATION('',(#1159,#1139),#1155);
#1168=PRODUCT_DEFINITION('design','',#1167,#1164);
#1169=PRODUCT_DEFINITION_SHAPE('','SHAPE FOR LPATTERN3400.',#1168);
#1170=SHAPE_ASPECT('','solid data associated with LPATTERN3400',#1169,.F.);
#1171=PROPERTY_DEFINITION('',
'shape for solid data with which properties are associated',#1170);
#1172=SHAPE_REPRESENTATION('',(#1139),#1155);
#1173=SHAPE_DEFINITION_REPRESENTATION(#1171,#1172);
#1174=(LENGTH_UNIT()NAMED_UNIT(*)SI_UNIT(.MILLI.,.METRE.));
#1180=PROPERTY_DEFINITION('geometric validation property',
'area of LPATTERN3400',#1170);
#1181=REPRESENTATION('surface area',(#1179),#1155);
#1182=PROPERTY_DEFINITION_REPRESENTATION(#1180,#1181);
#1183=(LENGTH_UNIT()NAMED_UNIT(*)SI_UNIT(.MILLI.,.METRE.));
#1189=PROPERTY_DEFINITION('geometric validation property',
'volume of LPATTERN3400',#1170);
#1190=REPRESENTATION('volume',(#1188),#1155);
#1191=PROPERTY_DEFINITION_REPRESENTATION(#1189,#1190);
#1193=PROPERTY_DEFINITION('geometric validation property',
'centroid of LPATTERN3400',#1170);
#1194=REPRESENTATION('centroid',(#1192),#1155);
#1195=PROPERTY_DEFINITION_REPRESENTATION(#1193,#1194);
#1196=(LENGTH_UNIT()NAMED_UNIT(*)SI_UNIT(.MILLI.,.METRE.));
#1202=PROPERTY_DEFINITION('geometric validation property',
'area of LPATTERN3400',#1169);
#1203=REPRESENTATION('surface area',(#1201),#1155);
#1204=PROPERTY_DEFINITION_REPRESENTATION(#1202,#1203);
#1205=(LENGTH_UNIT()NAMED_UNIT(*)SI_UNIT(.MILLI.,.METRE.));
#1211=PROPERTY_DEFINITION('geometric validation property',
'volume of LPATTERN3400',#1169);
#1212=REPRESENTATION('volume',(#1210),#1155);
#1213=PROPERTY_DEFINITION_REPRESENTATION(#1211,#1212);
#1215=PROPERTY_DEFINITION('geometric validation property',
'centroid of LPATTERN3400',#1169);
#1216=REPRESENTATION('centroid',(#1214),#1155);
#1217=PROPERTY_DEFINITION_REPRESENTATION(#1215,#1216);
#1218=SHAPE_DEFINITION_REPRESENTATION(#1169,#1160);
ENDSEC;
END-ISO-10303-21;
