ISO-10303-21;
HEADER;
FILE_DESCRIPTION((''),'2;1');
FILE_NAME('LPATTERN2100','2026-06-15T13:46:22',('Esia'),(''),
'CREO PARAMETRIC BY PTC INC, 2025102','CREO PARAMETRIC BY PTC INC, 2025102','');
FILE_SCHEMA((
'AP242_MANAGED_MODEL_BASED_3D_ENGINEERING_MIM_LF { 1 0 10303 442 1 1 4 }'));
ENDSEC;
DATA;
#17=DIRECTION('',(-4.132357679561E-9,5.676633285222E-9,1.E0));
#18=VECTOR('',#17,8.267715972240E-2);
#19=CARTESIAN_POINT('',(9.197091680812E-1,-3.228346456693E-2,
1.106416146586E-1));
#20=LINE('',#19,#18);
#21=DRAUGHTING_PRE_DEFINED_CURVE_FONT('continuous');
#22=CURVE_STYLE('',#21,POSITIVE_LENGTH_MEASURE(2.E-2),#9);
#23=PRESENTATION_STYLE_ASSIGNMENT((#22));
#24=STYLED_ITEM('',(#23),#20);
#25=DIRECTION('',(0.E0,-1.E0,0.E0));
#26=VECTOR('',#25,5.905511811024E-3);
#27=CARTESIAN_POINT('',(9.197091680812E-1,-2.637795275591E-2,
1.106416146586E-1));
#28=LINE('',#27,#26);
#29=CURVE_STYLE('',#21,POSITIVE_LENGTH_MEASURE(2.E-2),#9);
#30=PRESENTATION_STYLE_ASSIGNMENT((#29));
#31=STYLED_ITEM('',(#30),#28);
#32=DIRECTION('',(4.132356336720E-9,5.676638194985E-9,-1.E0));
#33=VECTOR('',#32,8.267715972240E-2);
#34=CARTESIAN_POINT('',(9.197091677396E-1,-2.637795322523E-2,
1.933187743810E-1));
#35=LINE('',#34,#33);
#36=CURVE_STYLE('',#21,POSITIVE_LENGTH_MEASURE(2.E-2),#9);
#37=PRESENTATION_STYLE_ASSIGNMENT((#36));
#38=STYLED_ITEM('',(#37),#35);
#39=DIRECTION('',(0.E0,1.E0,0.E0));
#40=VECTOR('',#39,5.905510872367E-3);
#41=CARTESIAN_POINT('',(9.197091677396E-1,-3.228346409760E-2,
1.933187743810E-1));
#42=LINE('',#41,#40);
#43=CURVE_STYLE('',#21,POSITIVE_LENGTH_MEASURE(2.E-2),#9);
#44=PRESENTATION_STYLE_ASSIGNMENT((#43));
#45=STYLED_ITEM('',(#44),#42);
#46=DIRECTION('',(-1.E0,0.E0,0.E0));
#47=VECTOR('',#46,1.181106936083E-2);
#48=CARTESIAN_POINT('',(9.315202371004E-1,-3.228346409760E-2,
1.933187743810E-1));
#49=LINE('',#48,#47);
#50=CURVE_STYLE('',#21,POSITIVE_LENGTH_MEASURE(2.E-2),#9);
#51=PRESENTATION_STYLE_ASSIGNMENT((#50));
#52=STYLED_ITEM('',(#51),#49);
#53=DIRECTION('',(-4.132357679561E-9,-5.676633285222E-9,-1.E0));
#54=VECTOR('',#53,8.267715972240E-2);
#55=CARTESIAN_POINT('',(9.315202371004E-1,-3.228346409760E-2,
1.933187743810E-1));
#56=LINE('',#55,#54);
#57=CURVE_STYLE('',#21,POSITIVE_LENGTH_MEASURE(2.E-2),#9);
#58=PRESENTATION_STYLE_ASSIGNMENT((#57));
#59=STYLED_ITEM('',(#58),#56);
#60=DIRECTION('',(4.132352308196E-9,-5.676630767395E-9,1.E0));
#61=VECTOR('',#60,8.267715972240E-2);
#62=CARTESIAN_POINT('',(9.315202367587E-1,-2.637795275591E-2,
1.106416146586E-1));
#63=LINE('',#62,#61);
#64=CURVE_STYLE('',#21,POSITIVE_LENGTH_MEASURE(2.E-2),#9);
#65=PRESENTATION_STYLE_ASSIGNMENT((#64));
#66=STYLED_ITEM('',(#65),#63);
#67=DIRECTION('',(0.E0,1.E0,0.E0));
#68=VECTOR('',#67,5.905511811024E-3);
#69=CARTESIAN_POINT('',(9.315202367587E-1,-3.228346456693E-2,
1.106416146586E-1));
#70=LINE('',#69,#68);
#71=CURVE_STYLE('',#21,POSITIVE_LENGTH_MEASURE(2.E-2),#9);
#72=PRESENTATION_STYLE_ASSIGNMENT((#71));
#73=STYLED_ITEM('',(#72),#70);
#74=DIRECTION('',(-9.399889769232E-14,1.E0,0.E0));
#75=VECTOR('',#74,5.905510872368E-3);
#76=CARTESIAN_POINT('',(9.315202371004E-1,-3.228346409760E-2,
1.933187743810E-1));
#77=LINE('',#76,#75);
#78=CURVE_STYLE('',#21,POSITIVE_LENGTH_MEASURE(2.E-2),#9);
#79=PRESENTATION_STYLE_ASSIGNMENT((#78));
#80=STYLED_ITEM('',(#79),#77);
#81=DIRECTION('',(3.095618372201E-1,-4.252462378084E-1,-8.504922728436E-1));
#82=VECTOR('',#81,4.629090848222E-3);
#83=CARTESIAN_POINT('',(9.300872472328E-1,-3.031496062992E-2,
1.972557803777E-1));
#84=LINE('',#83,#82);
#85=CURVE_STYLE('',#21,POSITIVE_LENGTH_MEASURE(2.E-2),#9);
#86=PRESENTATION_STYLE_ASSIGNMENT((#85));
#87=STYLED_ITEM('',(#86),#84);
#88=DIRECTION('',(-3.095618372201E-1,-4.252462378084E-1,8.504922728436E-1));
#89=VECTOR('',#88,4.629090848222E-3);
#90=CARTESIAN_POINT('',(9.315202371004E-1,-2.637795322523E-2,
1.933187743810E-1));
#91=LINE('',#90,#89);
#92=CURVE_STYLE('',#21,POSITIVE_LENGTH_MEASURE(2.E-2),#9);
#93=PRESENTATION_STYLE_ASSIGNMENT((#92));
#94=STYLED_ITEM('',(#93),#91);
#95=DIRECTION('',(1.691979889529E-13,1.E0,0.E0));
#96=VECTOR('',#95,1.968503937007E-3);
#97=CARTESIAN_POINT('',(9.211421576072E-1,-3.031496062992E-2,
1.972557803777E-1));
#98=LINE('',#97,#96);
#99=CURVE_STYLE('',#21,POSITIVE_LENGTH_MEASURE(2.E-2),#9);
#100=PRESENTATION_STYLE_ASSIGNMENT((#99));
#101=STYLED_ITEM('',(#100),#98);
#102=DIRECTION('',(3.095618372201E-1,4.252462378084E-1,8.504922728436E-1));
#103=VECTOR('',#102,4.629090848222E-3);
#104=CARTESIAN_POINT('',(9.197091677396E-1,-3.228346409760E-2,
1.933187743810E-1));
#105=LINE('',#104,#103);
#106=CURVE_STYLE('',#21,POSITIVE_LENGTH_MEASURE(2.E-2),#9);
#107=PRESENTATION_STYLE_ASSIGNMENT((#106));
#108=STYLED_ITEM('',(#107),#105);
#109=DIRECTION('',(-3.095618372201E-1,4.252462378084E-1,-8.504922728436E-1));
#110=VECTOR('',#109,4.629090848222E-3);
#111=CARTESIAN_POINT('',(9.211421576072E-1,-2.834645669291E-2,
1.972557803777E-1));
#112=LINE('',#111,#110);
#113=CURVE_STYLE('',#21,POSITIVE_LENGTH_MEASURE(2.E-2),#9);
#114=PRESENTATION_STYLE_ASSIGNMENT((#113));
#115=STYLED_ITEM('',(#114),#112);
#116=DIRECTION('',(-1.691979889529E-13,1.E0,0.E0));
#117=VECTOR('',#116,1.968503937008E-3);
#118=CARTESIAN_POINT('',(9.300872472328E-1,-3.031496062992E-2,
1.972557803777E-1));
#119=LINE('',#118,#117);
#120=CURVE_STYLE('',#21,POSITIVE_LENGTH_MEASURE(2.E-2),#9);
#121=PRESENTATION_STYLE_ASSIGNMENT((#120));
#122=STYLED_ITEM('',(#121),#119);
#123=DIRECTION('',(1.E0,0.E0,0.E0));
#124=VECTOR('',#123,8.945089625561E-3);
#125=CARTESIAN_POINT('',(9.211421576072E-1,-3.031496062992E-2,
1.972557803777E-1));
#126=LINE('',#125,#124);
#127=CURVE_STYLE('',#21,POSITIVE_LENGTH_MEASURE(2.E-2),#9);
#128=PRESENTATION_STYLE_ASSIGNMENT((#127));
#129=STYLED_ITEM('',(#128),#126);
#130=DIRECTION('',(-1.E0,-8.145070540471E-14,0.E0));
#131=VECTOR('',#130,8.945089625561E-3);
#132=CARTESIAN_POINT('',(9.300872472328E-1,-2.834645669291E-2,
1.972557803777E-1));
#133=LINE('',#132,#131);
#134=CURVE_STYLE('',#21,POSITIVE_LENGTH_MEASURE(2.E-2),#9);
#135=PRESENTATION_STYLE_ASSIGNMENT((#134));
#136=STYLED_ITEM('',(#135),#133);
#137=DIRECTION('',(1.E0,5.199293067674E-14,0.E0));
#138=VECTOR('',#137,1.181106936083E-2);
#139=CARTESIAN_POINT('',(9.197091677396E-1,-2.637795322523E-2,
1.933187743810E-1));
#140=LINE('',#139,#138);
#141=CURVE_STYLE('',#21,POSITIVE_LENGTH_MEASURE(2.E-2),#9);
#142=PRESENTATION_STYLE_ASSIGNMENT((#141));
#143=STYLED_ITEM('',(#142),#140);
#144=DIRECTION('',(-1.E0,0.E0,0.E0));
#145=VECTOR('',#144,1.181106867753E-2);
#146=CARTESIAN_POINT('',(9.315202367587E-1,-3.228346456693E-2,
1.106416146586E-1));
#147=LINE('',#146,#145);
#148=CURVE_STYLE('',#21,POSITIVE_LENGTH_MEASURE(2.E-2),#9);
#149=PRESENTATION_STYLE_ASSIGNMENT((#148));
#150=STYLED_ITEM('',(#149),#147);
#151=DIRECTION('',(1.E0,0.E0,0.E0));
#152=VECTOR('',#151,1.181106867753E-2);
#153=CARTESIAN_POINT('',(9.197091680812E-1,-2.637795275591E-2,
1.106416146586E-1));
#154=LINE('',#153,#152);
#155=CURVE_STYLE('',#21,POSITIVE_LENGTH_MEASURE(2.E-2),#9);
#156=PRESENTATION_STYLE_ASSIGNMENT((#155));
#157=STYLED_ITEM('',(#156),#154);
#158=CARTESIAN_POINT('',(9.211421576072E-1,-2.834645669291E-2,
1.972557803777E-1));
#159=CARTESIAN_POINT('',(9.197091677396E-1,-2.637795322523E-2,
1.933187743810E-1));
#160=VERTEX_POINT('',#158);
#161=VERTEX_POINT('',#159);
#162=CARTESIAN_POINT('',(9.300872472328E-1,-2.834645669291E-2,
1.972557803777E-1));
#163=VERTEX_POINT('',#162);
#164=CARTESIAN_POINT('',(9.315202371004E-1,-2.637795322523E-2,
1.933187743810E-1));
#165=VERTEX_POINT('',#164);
#166=CARTESIAN_POINT('',(9.197091677396E-1,-3.228346409760E-2,
1.933187743810E-1));
#167=VERTEX_POINT('',#166);
#168=CARTESIAN_POINT('',(9.211421576072E-1,-3.031496062992E-2,
1.972557803777E-1));
#169=VERTEX_POINT('',#168);
#170=CARTESIAN_POINT('',(9.197091680812E-1,-2.637795275591E-2,
1.106416146586E-1));
#171=VERTEX_POINT('',#170);
#172=CARTESIAN_POINT('',(9.315202367587E-1,-2.637795275591E-2,
1.106416146586E-1));
#173=VERTEX_POINT('',#172);
#174=CARTESIAN_POINT('',(9.315202367587E-1,-3.228346456693E-2,
1.106416146586E-1));
#175=CARTESIAN_POINT('',(9.197091680812E-1,-3.228346456693E-2,
1.106416146586E-1));
#176=VERTEX_POINT('',#174);
#177=VERTEX_POINT('',#175);
#178=CARTESIAN_POINT('',(9.300872472328E-1,-3.031496062992E-2,
1.972557803777E-1));
#179=VERTEX_POINT('',#178);
#180=CARTESIAN_POINT('',(9.315202371004E-1,-3.228346409760E-2,
1.933187743810E-1));
#181=VERTEX_POINT('',#180);
#182=CARTESIAN_POINT('',(9.197091680812E-1,-2.637795275591E-2,
1.933187762583E-1));
#183=DIRECTION('',(1.E0,0.E0,0.E0));
#184=DIRECTION('',(0.E0,0.E0,-1.E0));
#185=AXIS2_PLACEMENT_3D('',#182,#183,#184);
#186=PLANE('',#185);
#188=ORIENTED_EDGE('',*,*,#187,.F.);
#190=ORIENTED_EDGE('',*,*,#189,.F.);
#192=ORIENTED_EDGE('',*,*,#191,.F.);
#194=ORIENTED_EDGE('',*,*,#193,.F.);
#195=EDGE_LOOP('',(#188,#190,#192,#194));
#196=FACE_OUTER_BOUND('',#195,.F.);
#198=CARTESIAN_POINT('',(0.E0,-3.228346456693E-2,0.E0));
#199=DIRECTION('',(0.E0,-1.E0,0.E0));
#200=DIRECTION('',(0.E0,0.E0,-1.E0));
#201=AXIS2_PLACEMENT_3D('',#198,#199,#200);
#202=PLANE('',#201);
#204=ORIENTED_EDGE('',*,*,#203,.T.);
#206=ORIENTED_EDGE('',*,*,#205,.T.);
#207=ORIENTED_EDGE('',*,*,#187,.T.);
#209=ORIENTED_EDGE('',*,*,#208,.F.);
#210=EDGE_LOOP('',(#204,#206,#207,#209));
#211=FACE_OUTER_BOUND('',#210,.F.);
#213=CARTESIAN_POINT('',(9.315202367587E-1,-2.637795275591E-2,
1.106416146586E-1));
#214=DIRECTION('',(-1.E0,0.E0,0.E0));
#215=DIRECTION('',(0.E0,0.E0,1.E0));
#216=AXIS2_PLACEMENT_3D('',#213,#214,#215);
#217=PLANE('',#216);
#218=ORIENTED_EDGE('',*,*,#203,.F.);
#220=ORIENTED_EDGE('',*,*,#219,.T.);
#222=ORIENTED_EDGE('',*,*,#221,.F.);
#224=ORIENTED_EDGE('',*,*,#223,.F.);
#225=EDGE_LOOP('',(#218,#220,#222,#224));
#226=FACE_OUTER_BOUND('',#225,.F.);
#228=CARTESIAN_POINT('',(9.315202367587E-1,-2.637795275591E-2,
1.933187762583E-1));
#229=DIRECTION('',(-9.396897660139E-1,0.E0,-3.420279866456E-1));
#230=DIRECTION('',(-3.420279866456E-1,0.E0,9.396897660139E-1));
#231=AXIS2_PLACEMENT_3D('',#228,#229,#230);
#232=PLANE('',#231);
#233=ORIENTED_EDGE('',*,*,#219,.F.);
#235=ORIENTED_EDGE('',*,*,#234,.F.);
#237=ORIENTED_EDGE('',*,*,#236,.T.);
#239=ORIENTED_EDGE('',*,*,#238,.F.);
#240=EDGE_LOOP('',(#233,#235,#237,#239));
#241=FACE_OUTER_BOUND('',#240,.F.);
#243=CARTESIAN_POINT('',(9.300872472328E-1,-3.031496062992E-2,
1.972557803777E-1));
#244=DIRECTION('',(0.E0,-8.944271909999E-1,4.472135955E-1));
#245=DIRECTION('',(-1.E0,0.E0,0.E0));
#246=AXIS2_PLACEMENT_3D('',#243,#244,#245);
#247=PLANE('',#246);
#249=ORIENTED_EDGE('',*,*,#248,.T.);
#251=ORIENTED_EDGE('',*,*,#250,.T.);
#252=ORIENTED_EDGE('',*,*,#234,.T.);
#253=ORIENTED_EDGE('',*,*,#208,.T.);
#254=EDGE_LOOP('',(#249,#251,#252,#253));
#255=FACE_OUTER_BOUND('',#254,.F.);
#257=CARTESIAN_POINT('',(9.211421576072E-1,-2.637795275591E-2,
1.972557803777E-1));
#258=DIRECTION('',(9.396897660139E-1,0.E0,-3.420279866456E-1));
#259=DIRECTION('',(-3.420279866456E-1,0.E0,-9.396897660139E-1));
#260=AXIS2_PLACEMENT_3D('',#257,#258,#259);
#261=PLANE('',#260);
#263=ORIENTED_EDGE('',*,*,#262,.F.);
#264=ORIENTED_EDGE('',*,*,#248,.F.);
#265=ORIENTED_EDGE('',*,*,#193,.T.);
#267=ORIENTED_EDGE('',*,*,#266,.F.);
#268=EDGE_LOOP('',(#263,#264,#265,#267));
#269=FACE_OUTER_BOUND('',#268,.F.);
#271=CARTESIAN_POINT('',(9.300872472328E-1,-2.637795275591E-2,
1.972557803777E-1));
#272=DIRECTION('',(0.E0,0.E0,-1.E0));
#273=DIRECTION('',(-1.E0,0.E0,0.E0));
#274=AXIS2_PLACEMENT_3D('',#271,#272,#273);
#275=PLANE('',#274);
#276=ORIENTED_EDGE('',*,*,#236,.F.);
#277=ORIENTED_EDGE('',*,*,#250,.F.);
#278=ORIENTED_EDGE('',*,*,#262,.T.);
#280=ORIENTED_EDGE('',*,*,#279,.F.);
#281=EDGE_LOOP('',(#276,#277,#278,#280));
#282=FACE_OUTER_BOUND('',#281,.F.);
#284=CARTESIAN_POINT('',(0.E0,-2.637795275591E-2,1.933187725037E-1));
#285=DIRECTION('',(0.E0,-8.944271909999E-1,-4.472135955E-1));
#286=DIRECTION('',(1.E0,0.E0,0.E0));
#287=AXIS2_PLACEMENT_3D('',#284,#285,#286);
#288=PLANE('',#287);
#289=ORIENTED_EDGE('',*,*,#266,.T.);
#291=ORIENTED_EDGE('',*,*,#290,.T.);
#292=ORIENTED_EDGE('',*,*,#238,.T.);
#293=ORIENTED_EDGE('',*,*,#279,.T.);
#294=EDGE_LOOP('',(#289,#291,#292,#293));
#295=FACE_OUTER_BOUND('',#294,.F.);
#297=CARTESIAN_POINT('',(0.E0,-2.637795275591E-2,0.E0));
#298=DIRECTION('',(0.E0,-1.E0,0.E0));
#299=DIRECTION('',(0.E0,0.E0,-1.E0));
#300=AXIS2_PLACEMENT_3D('',#297,#298,#299);
#301=PLANE('',#300);
#302=ORIENTED_EDGE('',*,*,#191,.T.);
#304=ORIENTED_EDGE('',*,*,#303,.T.);
#305=ORIENTED_EDGE('',*,*,#221,.T.);
#306=ORIENTED_EDGE('',*,*,#290,.F.);
#307=EDGE_LOOP('',(#302,#304,#305,#306));
#308=FACE_OUTER_BOUND('',#307,.F.);
#310=CARTESIAN_POINT('',(9.197091680812E-1,-2.637795275591E-2,
1.106416146586E-1));
#311=DIRECTION('',(0.E0,0.E0,1.E0));
#312=DIRECTION('',(1.E0,0.E0,0.E0));
#313=AXIS2_PLACEMENT_3D('',#310,#311,#312);
#314=PLANE('',#313);
#315=ORIENTED_EDGE('',*,*,#205,.F.);
#316=ORIENTED_EDGE('',*,*,#223,.T.);
#317=ORIENTED_EDGE('',*,*,#303,.F.);
#318=ORIENTED_EDGE('',*,*,#189,.T.);
#319=EDGE_LOOP('',(#315,#316,#317,#318));
#320=FACE_OUTER_BOUND('',#319,.F.);
#324=FILL_AREA_STYLE_COLOUR('',#9);
#325=FILL_AREA_STYLE('',(#324));
#326=SURFACE_STYLE_FILL_AREA(#325);
#327=SURFACE_SIDE_STYLE('',(#326));
#328=SURFACE_STYLE_USAGE(.BOTH.,#327);
#329=PRESENTATION_STYLE_ASSIGNMENT((#328));
#16=STYLED_ITEM('',(#329),#323);
#330=PRESENTATION_LAYER_ASSIGNMENT('SHELL_70','',(#16,#197,#212,#227,#242,#256,
#270,#283,#296,#309,#321));
#332=LENGTH_MEASURE_WITH_UNIT(LENGTH_MEASURE(2.54E1),#331);
#333=(CONVERSION_BASED_UNIT('INCH',#332)LENGTH_UNIT()NAMED_UNIT(*));
#335=PLANE_ANGLE_MEASURE_WITH_UNIT(PLANE_ANGLE_MEASURE(1.745329251994E-2),#334);
#336=(CONVERSION_BASED_UNIT('DEGREE',#335)NAMED_UNIT(*)PLANE_ANGLE_UNIT());
#338=UNCERTAINTY_MEASURE_WITH_UNIT(LENGTH_MEASURE(8.761150625927E-6),#333,
'closure',
'Maximum model space distance between geometric entities at asserted connectivities');
#340=CARTESIAN_POINT('',(0.E0,0.E0,0.E0));
#341=DIRECTION('',(0.E0,0.E0,1.E0));
#342=DIRECTION('',(1.E0,0.E0,0.E0));
#345=MECHANICAL_DESIGN_GEOMETRIC_PRESENTATION_REPRESENTATION('',(#24,#31,#38,
#45,#52,#59,#66,#73,#80,#87,#94,#101,#108,#115,#122,#129,#136,#143,#150,#157,
#16),#339);
#346=APPLICATION_CONTEXT('automotive design');
#347=APPLICATION_PROTOCOL_DEFINITION('international standard',
'config_control_design',1994,#346);
#348=PRODUCT_DEFINITION_CONTEXT('',#346,'design');
#349=PRODUCT_CONTEXT('',#346,'mechanical');
#350=PRODUCT('LPATTERN2100','LPATTERN2100','NOT SPECIFIED',(#349));
#351=PRODUCT_DEFINITION_FORMATION_WITH_SPECIFIED_SOURCE('1','LAST_VERSION',#350,
.MADE.);
#359=LENGTH_MEASURE_WITH_UNIT(LENGTH_MEASURE(2.54E1),#358);
#360=(CONVERSION_BASED_UNIT('INCH',#359)LENGTH_UNIT()NAMED_UNIT(*));
#361=DERIVED_UNIT_ELEMENT(#360,2.E0);
#362=AREA_UNIT((#361));
#363=MEASURE_REPRESENTATION_ITEM('surface area measure',AREA_MEASURE(
2.026592166142E0),#362);
#368=LENGTH_MEASURE_WITH_UNIT(LENGTH_MEASURE(2.54E1),#367);
#369=(CONVERSION_BASED_UNIT('INCH',#368)LENGTH_UNIT()NAMED_UNIT(*));
#370=DERIVED_UNIT_ELEMENT(#369,3.E0);
#371=VOLUME_UNIT((#370));
#372=MEASURE_REPRESENTATION_ITEM('volume measure',VOLUME_MEASURE(
9.719704763852E-2),#371);
#376=CARTESIAN_POINT('centre point',(2.351061344147E1,-7.45E-1,
3.890527586051E0));
#381=LENGTH_MEASURE_WITH_UNIT(LENGTH_MEASURE(2.54E1),#380);
#382=(CONVERSION_BASED_UNIT('INCH',#381)LENGTH_UNIT()NAMED_UNIT(*));
#383=DERIVED_UNIT_ELEMENT(#382,2.E0);
#384=AREA_UNIT((#383));
#385=MEASURE_REPRESENTATION_ITEM('surface area measure',AREA_MEASURE(
2.026592166142E0),#384);
#390=LENGTH_MEASURE_WITH_UNIT(LENGTH_MEASURE(2.54E1),#389);
#391=(CONVERSION_BASED_UNIT('INCH',#390)LENGTH_UNIT()NAMED_UNIT(*));
#392=DERIVED_UNIT_ELEMENT(#391,3.E0);
#393=VOLUME_UNIT((#392));
#394=MEASURE_REPRESENTATION_ITEM('volume measure',VOLUME_MEASURE(
9.719704763852E-2),#393);
#398=CARTESIAN_POINT('centre point',(2.351061344147E1,-7.45E-1,
3.890527586051E0));
#1=DRAUGHTING_PRE_DEFINED_COLOUR('green');
#2=COLOUR_RGB('',1.1E-2,1.2E-2,1.E0);
#3=COLOUR_RGB('',2.352941176471E-1,2.352941176471E-1,2.352941176471E-1);
#4=COLOUR_RGB('',4.1E-1,2.61589E-1,1.12848E-1);
#5=COLOUR_RGB('',5.04854E-1,1.5455E-2,1.5455E-2);
#6=COLOUR_RGB('',6.35294E-1,6.86275E-1,7.4902E-1);
#7=COLOUR_RGB('',6.40777E-1,6.40777E-1,6.40777E-1);
#8=COLOUR_RGB('',6.69062E-1,6.69903E-1,6.55217E-1);
#9=COLOUR_RGB('',7.764705882353E-1,7.568627450980E-1,7.372549019608E-1);
#10=COLOUR_RGB('',9.21569E-1,7.05882E-1,4.70588E-1);
#11=DRAUGHTING_PRE_DEFINED_COLOUR('red');
#12=DRAUGHTING_PRE_DEFINED_COLOUR('yellow');
#13=COLOUR_RGB('',1.E0,1.E0,5.3E-1);
#14=COLOUR_RGB('',1.E0,1.E0,9.49E-1);
#15=DRAUGHTING_PRE_DEFINED_COLOUR('white');
#187=EDGE_CURVE('',#177,#167,#20,.T.);
#189=EDGE_CURVE('',#171,#177,#28,.T.);
#191=EDGE_CURVE('',#161,#171,#35,.T.);
#193=EDGE_CURVE('',#167,#161,#42,.T.);
#197=ADVANCED_FACE('',(#196),#186,.F.);
#203=EDGE_CURVE('',#181,#176,#56,.T.);
#205=EDGE_CURVE('',#176,#177,#147,.T.);
#208=EDGE_CURVE('',#181,#167,#49,.T.);
#212=ADVANCED_FACE('',(#211),#202,.T.);
#219=EDGE_CURVE('',#181,#165,#77,.T.);
#221=EDGE_CURVE('',#173,#165,#63,.T.);
#223=EDGE_CURVE('',#176,#173,#70,.T.);
#227=ADVANCED_FACE('',(#226),#217,.F.);
#234=EDGE_CURVE('',#179,#181,#84,.T.);
#236=EDGE_CURVE('',#179,#163,#119,.T.);
#238=EDGE_CURVE('',#165,#163,#91,.T.);
#242=ADVANCED_FACE('',(#241),#232,.F.);
#248=EDGE_CURVE('',#167,#169,#105,.T.);
#250=EDGE_CURVE('',#169,#179,#126,.T.);
#256=ADVANCED_FACE('',(#255),#247,.T.);
#262=EDGE_CURVE('',#169,#160,#98,.T.);
#266=EDGE_CURVE('',#160,#161,#112,.T.);
#270=ADVANCED_FACE('',(#269),#261,.F.);
#279=EDGE_CURVE('',#163,#160,#133,.T.);
#283=ADVANCED_FACE('',(#282),#275,.F.);
#290=EDGE_CURVE('',#161,#165,#140,.T.);
#296=ADVANCED_FACE('',(#295),#288,.F.);
#303=EDGE_CURVE('',#171,#173,#154,.T.);
#309=ADVANCED_FACE('',(#308),#301,.F.);
#321=ADVANCED_FACE('',(#320),#314,.F.);
#322=CLOSED_SHELL('',(#197,#212,#227,#242,#256,#270,#283,#296,#309,#321));
#323=MANIFOLD_SOLID_BREP('',#322);
#331=(LENGTH_UNIT()NAMED_UNIT(*)SI_UNIT(.MILLI.,.METRE.));
#334=(NAMED_UNIT(*)PLANE_ANGLE_UNIT()SI_UNIT($,.RADIAN.));
#337=(NAMED_UNIT(*)SI_UNIT($,.STERADIAN.)SOLID_ANGLE_UNIT());
#339=(GEOMETRIC_REPRESENTATION_CONTEXT(3)GLOBAL_UNCERTAINTY_ASSIGNED_CONTEXT((
#338))GLOBAL_UNIT_ASSIGNED_CONTEXT((#333,#336,#337))REPRESENTATION_CONTEXT
('ID1','3'));
#343=AXIS2_PLACEMENT_3D('',#340,#341,#342);
#344=ADVANCED_BREP_SHAPE_REPRESENTATION('',(#343,#323),#339);
#352=PRODUCT_DEFINITION('design','',#351,#348);
#353=PRODUCT_DEFINITION_SHAPE('','SHAPE FOR LPATTERN2100.',#352);
#354=SHAPE_ASPECT('','solid data associated with LPATTERN2100',#353,.F.);
#355=PROPERTY_DEFINITION('',
'shape for solid data with which properties are associated',#354);
#356=SHAPE_REPRESENTATION('',(#323),#339);
#357=SHAPE_DEFINITION_REPRESENTATION(#355,#356);
#358=(LENGTH_UNIT()NAMED_UNIT(*)SI_UNIT(.MILLI.,.METRE.));
#364=PROPERTY_DEFINITION('geometric validation property','area of LPATTERN2100',
#354);
#365=REPRESENTATION('surface area',(#363),#339);
#366=PROPERTY_DEFINITION_REPRESENTATION(#364,#365);
#367=(LENGTH_UNIT()NAMED_UNIT(*)SI_UNIT(.MILLI.,.METRE.));
#373=PROPERTY_DEFINITION('geometric validation property',
'volume of LPATTERN2100',#354);
#374=REPRESENTATION('volume',(#372),#339);
#375=PROPERTY_DEFINITION_REPRESENTATION(#373,#374);
#377=PROPERTY_DEFINITION('geometric validation property',
'centroid of LPATTERN2100',#354);
#378=REPRESENTATION('centroid',(#376),#339);
#379=PROPERTY_DEFINITION_REPRESENTATION(#377,#378);
#380=(LENGTH_UNIT()NAMED_UNIT(*)SI_UNIT(.MILLI.,.METRE.));
#386=PROPERTY_DEFINITION('geometric validation property','area of LPATTERN2100',
#353);
#387=REPRESENTATION('surface area',(#385),#339);
#388=PROPERTY_DEFINITION_REPRESENTATION(#386,#387);
#389=(LENGTH_UNIT()NAMED_UNIT(*)SI_UNIT(.MILLI.,.METRE.));
#395=PROPERTY_DEFINITION('geometric validation property',
'volume of LPATTERN2100',#353);
#396=REPRESENTATION('volume',(#394),#339);
#397=PROPERTY_DEFINITION_REPRESENTATION(#395,#396);
#399=PROPERTY_DEFINITION('geometric validation property',
'centroid of LPATTERN2100',#353);
#400=REPRESENTATION('centroid',(#398),#339);
#401=PROPERTY_DEFINITION_REPRESENTATION(#399,#400);
#402=SHAPE_DEFINITION_REPRESENTATION(#353,#344);
ENDSEC;
END-ISO-10303-21;
