ISO-10303-21;
HEADER;
FILE_DESCRIPTION((''),'2;1');
FILE_NAME('LPATTERN1','2026-06-15T13:46:15',('Esia'),(''),
'CREO PARAMETRIC BY PTC INC, 2025102','CREO PARAMETRIC BY PTC INC, 2025102','');
FILE_SCHEMA((
'AP242_MANAGED_MODEL_BASED_3D_ENGINEERING_MIM_LF { 1 0 10303 442 1 1 4 }'));
ENDSEC;
DATA;
#17=DIRECTION('',(0.E0,0.E0,1.E0));
#18=VECTOR('',#17,1.311416205449E-2);
#19=CARTESIAN_POINT('',(1.881889763780E-1,5.826771653543E-2,5.423356994182E-1));
#20=LINE('',#19,#18);
#21=DRAUGHTING_PRE_DEFINED_CURVE_FONT('continuous');
#22=CURVE_STYLE('',#21,POSITIVE_LENGTH_MEASURE(2.E-2),#9);
#23=PRESENTATION_STYLE_ASSIGNMENT((#22));
#24=STYLED_ITEM('',(#23),#20);
#25=DIRECTION('',(0.E0,0.E0,-1.E0));
#26=VECTOR('',#25,1.311416205449E-2);
#27=CARTESIAN_POINT('',(1.881889763780E-1,2.047244094488E-2,5.554498614727E-1));
#28=LINE('',#27,#26);
#29=CURVE_STYLE('',#21,POSITIVE_LENGTH_MEASURE(2.E-2),#9);
#30=PRESENTATION_STYLE_ASSIGNMENT((#29));
#31=STYLED_ITEM('',(#30),#28);
#32=DIRECTION('',(0.E0,-1.E0,0.E0));
#33=VECTOR('',#32,3.779527559055E-2);
#34=CARTESIAN_POINT('',(1.881889763780E-1,5.826771653543E-2,5.554498614727E-1));
#35=LINE('',#34,#33);
#36=CURVE_STYLE('',#21,POSITIVE_LENGTH_MEASURE(2.E-2),#9);
#37=PRESENTATION_STYLE_ASSIGNMENT((#36));
#38=STYLED_ITEM('',(#37),#35);
#39=DIRECTION('',(9.028126916810E-1,0.E0,4.300340030040E-1));
#40=VECTOR('',#39,5.511982623014E-3);
#41=CARTESIAN_POINT('',(1.832126885096E-1,5.826771653543E-2,5.530795215208E-1));
#42=LINE('',#41,#40);
#43=CURVE_STYLE('',#21,POSITIVE_LENGTH_MEASURE(2.E-2),#9);
#44=PRESENTATION_STYLE_ASSIGNMENT((#43));
#45=STYLED_ITEM('',(#44),#42);
#46=CARTESIAN_POINT('',(1.916897830300E-1,5.826771653543E-2,5.352827229695E-1));
#47=DIRECTION('',(0.E0,1.E0,0.E0));
#48=DIRECTION('',(-6.947043226844E-1,0.E0,7.192954219538E-1));
#49=AXIS2_PLACEMENT_3D('',#46,#47,#48);
#51=CURVE_STYLE('',#21,POSITIVE_LENGTH_MEASURE(2.E-2),#9);
#52=PRESENTATION_STYLE_ASSIGNMENT((#51));
#53=STYLED_ITEM('',(#52),#50);
#54=DIRECTION('',(6.551556178358E-1,0.E0,7.554939552493E-1));
#55=VECTOR('',#54,1.112443105042E-2);
#56=CARTESIAN_POINT('',(1.707071110318E-1,5.826771653543E-2,5.410574759155E-1));
#57=LINE('',#56,#55);
#58=CURVE_STYLE('',#21,POSITIVE_LENGTH_MEASURE(2.E-2),#9);
#59=PRESENTATION_STYLE_ASSIGNMENT((#58));
#60=STYLED_ITEM('',(#59),#57);
#61=CARTESIAN_POINT('',(2.100218618966E-1,5.826771653543E-2,5.148084273433E-1));
#62=DIRECTION('',(0.E0,1.E0,0.E0));
#63=DIRECTION('',(-1.E0,0.E0,0.E0));
#64=AXIS2_PLACEMENT_3D('',#61,#62,#63);
#66=CURVE_STYLE('',#21,POSITIVE_LENGTH_MEASURE(2.E-2),#9);
#67=PRESENTATION_STYLE_ASSIGNMENT((#66));
#68=STYLED_ITEM('',(#67),#65);
#69=CARTESIAN_POINT('',(2.100218618966E-1,5.826771653543E-2,5.148084273433E-1));
#70=DIRECTION('',(0.E0,1.E0,0.E0));
#71=DIRECTION('',(-9.933497698159E-1,0.E0,-1.151357234165E-1));
#72=AXIS2_PLACEMENT_3D('',#69,#70,#71);
#74=CURVE_STYLE('',#21,POSITIVE_LENGTH_MEASURE(2.E-2),#9);
#75=PRESENTATION_STYLE_ASSIGNMENT((#74));
#76=STYLED_ITEM('',(#75),#73);
#77=DIRECTION('',(-2.167803923408E-1,0.E0,9.762203959642E-1));
#78=VECTOR('',#77,1.159005055370E-1);
#79=CARTESIAN_POINT('',(1.881889763785E-1,5.826771653543E-2,3.962212694155E-1));
#80=LINE('',#79,#78);
#81=CURVE_STYLE('',#21,POSITIVE_LENGTH_MEASURE(2.E-2),#9);
#82=PRESENTATION_STYLE_ASSIGNMENT((#81));
#83=STYLED_ITEM('',(#82),#80);
#84=DIRECTION('',(2.167803924996E-1,0.E0,-9.762203959290E-1));
#85=VECTOR('',#84,6.209616136933E-2);
#86=CARTESIAN_POINT('',(1.747277461442E-1,5.826771653543E-2,5.116734784397E-1));
#87=LINE('',#86,#85);
#88=CURVE_STYLE('',#21,POSITIVE_LENGTH_MEASURE(2.E-2),#9);
#89=PRESENTATION_STYLE_ASSIGNMENT((#88));
#90=STYLED_ITEM('',(#89),#87);
#91=CARTESIAN_POINT('',(2.100218618966E-1,5.826771653543E-2,5.148084273433E-1));
#92=DIRECTION('',(0.E0,-1.E0,0.E0));
#93=DIRECTION('',(-1.E0,0.E0,0.E0));
#94=AXIS2_PLACEMENT_3D('',#91,#92,#93);
#96=CURVE_STYLE('',#21,POSITIVE_LENGTH_MEASURE(2.E-2),#9);
#97=PRESENTATION_STYLE_ASSIGNMENT((#96));
#98=STYLED_ITEM('',(#97),#95);
#99=CARTESIAN_POINT('',(2.100218618966E-1,5.826771653543E-2,5.148084273433E-1));
#100=DIRECTION('',(0.E0,-1.E0,0.E0));
#101=DIRECTION('',(-8.774704532417E-1,0.E0,4.796306951060E-1));
#102=AXIS2_PLACEMENT_3D('',#99,#100,#101);
#104=CURVE_STYLE('',#21,POSITIVE_LENGTH_MEASURE(2.E-2),#9);
#105=PRESENTATION_STYLE_ASSIGNMENT((#104));
#106=STYLED_ITEM('',(#105),#103);
#107=DIRECTION('',(-5.096456726576E-1,0.E0,-8.603843840641E-1));
#108=VECTOR('',#107,2.447167672598E-3);
#109=CARTESIAN_POINT('',(1.801775775540E-1,5.826771653543E-2,
5.339087206057E-1));
#110=LINE('',#109,#108);
#111=CURVE_STYLE('',#21,POSITIVE_LENGTH_MEASURE(2.E-2),#9);
#112=PRESENTATION_STYLE_ASSIGNMENT((#111));
#113=STYLED_ITEM('',(#112),#110);
#114=DIRECTION('',(-6.552283850160E-1,0.E0,-7.554308462522E-1));
#115=VECTOR('',#114,9.684006640269E-3);
#116=CARTESIAN_POINT('',(1.865228135854E-1,5.826771653543E-2,
5.412243179371E-1));
#117=LINE('',#116,#115);
#118=CURVE_STYLE('',#21,POSITIVE_LENGTH_MEASURE(2.E-2),#9);
#119=PRESENTATION_STYLE_ASSIGNMENT((#118));
#120=STYLED_ITEM('',(#119),#117);
#121=CARTESIAN_POINT('',(1.916897830300E-1,5.826771653543E-2,
5.352827229695E-1));
#122=DIRECTION('',(0.E0,-1.E0,0.E0));
#123=DIRECTION('',(-4.446024448095E-1,0.E0,8.957280089790E-1));
#124=AXIS2_PLACEMENT_3D('',#121,#122,#123);
#126=CURVE_STYLE('',#21,POSITIVE_LENGTH_MEASURE(2.E-2),#9);
#127=PRESENTATION_STYLE_ASSIGNMENT((#126));
#128=STYLED_ITEM('',(#127),#125);
#129=CARTESIAN_POINT('',(1.916897830300E-1,2.047244094488E-2,
5.352827229695E-1));
#130=DIRECTION('',(0.E0,1.E0,0.E0));
#131=DIRECTION('',(-6.562051194690E-1,0.E0,7.545825608789E-1));
#132=AXIS2_PLACEMENT_3D('',#129,#130,#131);
#134=CURVE_STYLE('',#21,POSITIVE_LENGTH_MEASURE(2.E-2),#9);
#135=PRESENTATION_STYLE_ASSIGNMENT((#134));
#136=STYLED_ITEM('',(#135),#133);
#137=DIRECTION('',(6.552283850160E-1,0.E0,7.554308462522E-1));
#138=VECTOR('',#137,9.684006640269E-3);
#139=CARTESIAN_POINT('',(1.801775775540E-1,2.047244094488E-2,
5.339087206057E-1));
#140=LINE('',#139,#138);
#141=CURVE_STYLE('',#21,POSITIVE_LENGTH_MEASURE(2.E-2),#9);
#142=PRESENTATION_STYLE_ASSIGNMENT((#141));
#143=STYLED_ITEM('',(#142),#140);
#144=DIRECTION('',(5.096456726576E-1,0.E0,8.603843840641E-1));
#145=VECTOR('',#144,2.447167672598E-3);
#146=CARTESIAN_POINT('',(1.789303891394E-1,2.047244094488E-2,
5.318032157550E-1));
#147=LINE('',#146,#145);
#148=CURVE_STYLE('',#21,POSITIVE_LENGTH_MEASURE(2.E-2),#9);
#149=PRESENTATION_STYLE_ASSIGNMENT((#148));
#150=STYLED_ITEM('',(#149),#147);
#151=CARTESIAN_POINT('',(2.100218618966E-1,2.047244094488E-2,
5.148084273433E-1));
#152=DIRECTION('',(0.E0,1.E0,0.E0));
#153=DIRECTION('',(-1.E0,0.E0,0.E0));
#154=AXIS2_PLACEMENT_3D('',#151,#152,#153);
#156=CURVE_STYLE('',#21,POSITIVE_LENGTH_MEASURE(2.E-2),#9);
#157=PRESENTATION_STYLE_ASSIGNMENT((#156));
#158=STYLED_ITEM('',(#157),#155);
#159=CARTESIAN_POINT('',(2.100218618966E-1,2.047244094488E-2,
5.148084273433E-1));
#160=DIRECTION('',(0.E0,1.E0,0.E0));
#161=DIRECTION('',(-9.960783777557E-1,0.E0,-8.847522459782E-2));
#162=AXIS2_PLACEMENT_3D('',#159,#160,#161);
#164=CURVE_STYLE('',#21,POSITIVE_LENGTH_MEASURE(2.E-2),#9);
#165=PRESENTATION_STYLE_ASSIGNMENT((#164));
#166=STYLED_ITEM('',(#165),#163);
#167=DIRECTION('',(-2.167803924996E-1,0.E0,9.762203959290E-1));
#168=VECTOR('',#167,6.209616136933E-2);
#169=CARTESIAN_POINT('',(1.881889763785E-1,2.047244094488E-2,
4.510539392021E-1));
#170=LINE('',#169,#168);
#171=CURVE_STYLE('',#21,POSITIVE_LENGTH_MEASURE(2.E-2),#9);
#172=PRESENTATION_STYLE_ASSIGNMENT((#171));
#173=STYLED_ITEM('',(#172),#170);
#174=DIRECTION('',(2.167803923408E-1,0.E0,-9.762203959642E-1));
#175=VECTOR('',#174,1.159005055370E-1);
#176=CARTESIAN_POINT('',(1.630640193157E-1,2.047244094488E-2,
5.093657068233E-1));
#177=LINE('',#176,#175);
#178=CURVE_STYLE('',#21,POSITIVE_LENGTH_MEASURE(2.E-2),#9);
#179=PRESENTATION_STYLE_ASSIGNMENT((#178));
#180=STYLED_ITEM('',(#179),#177);
#181=CARTESIAN_POINT('',(2.100218618966E-1,2.047244094488E-2,
5.148084273433E-1));
#182=DIRECTION('',(0.E0,-1.E0,0.E0));
#183=DIRECTION('',(-1.E0,0.E0,0.E0));
#184=AXIS2_PLACEMENT_3D('',#181,#182,#183);
#186=CURVE_STYLE('',#21,POSITIVE_LENGTH_MEASURE(2.E-2),#9);
#187=PRESENTATION_STYLE_ASSIGNMENT((#186));
#188=STYLED_ITEM('',(#187),#185);
#189=CARTESIAN_POINT('',(2.100218618966E-1,2.047244094488E-2,
5.148084273433E-1));
#190=DIRECTION('',(0.E0,-1.E0,0.E0));
#191=DIRECTION('',(-8.316672269310E-1,0.E0,5.552743679019E-1));
#192=AXIS2_PLACEMENT_3D('',#189,#190,#191);
#194=CURVE_STYLE('',#21,POSITIVE_LENGTH_MEASURE(2.E-2),#9);
#195=PRESENTATION_STYLE_ASSIGNMENT((#194));
#196=STYLED_ITEM('',(#195),#193);
#197=DIRECTION('',(-6.551556178358E-1,0.E0,-7.554939552493E-1));
#198=VECTOR('',#197,1.112443105042E-2);
#199=CARTESIAN_POINT('',(1.779953445297E-1,2.047244094488E-2,
5.494619163297E-1));
#200=LINE('',#199,#198);
#201=CURVE_STYLE('',#21,POSITIVE_LENGTH_MEASURE(2.E-2),#9);
#202=PRESENTATION_STYLE_ASSIGNMENT((#201));
#203=STYLED_ITEM('',(#202),#200);
#204=CARTESIAN_POINT('',(1.916897830300E-1,2.047244094488E-2,
5.352827229695E-1));
#205=DIRECTION('',(0.E0,-1.E0,0.E0));
#206=DIRECTION('',(-4.300340030021E-1,0.E0,9.028126916820E-1));
#207=AXIS2_PLACEMENT_3D('',#204,#205,#206);
#209=CURVE_STYLE('',#21,POSITIVE_LENGTH_MEASURE(2.E-2),#9);
#210=PRESENTATION_STYLE_ASSIGNMENT((#209));
#211=STYLED_ITEM('',(#210),#208);
#212=DIRECTION('',(-9.028126916810E-1,0.E0,-4.300340030040E-1));
#213=VECTOR('',#212,5.511982623014E-3);
#214=CARTESIAN_POINT('',(1.881889763780E-1,2.047244094488E-2,
5.554498614727E-1));
#215=LINE('',#214,#213);
#216=CURVE_STYLE('',#21,POSITIVE_LENGTH_MEASURE(2.E-2),#9);
#217=PRESENTATION_STYLE_ASSIGNMENT((#216));
#218=STYLED_ITEM('',(#217),#215);
#219=DIRECTION('',(0.E0,1.E0,0.E0));
#220=VECTOR('',#219,3.779527559055E-2);
#221=CARTESIAN_POINT('',(1.865228135854E-1,2.047244094488E-2,
5.412243179371E-1));
#222=LINE('',#221,#220);
#223=CURVE_STYLE('',#21,POSITIVE_LENGTH_MEASURE(2.E-2),#9);
#224=PRESENTATION_STYLE_ASSIGNMENT((#223));
#225=STYLED_ITEM('',(#224),#222);
#226=DIRECTION('',(0.E0,-1.E0,0.E0));
#227=VECTOR('',#226,3.779527559055E-2);
#228=CARTESIAN_POINT('',(1.881889763780E-1,5.826771653543E-2,
5.423356994182E-1));
#229=LINE('',#228,#227);
#230=CURVE_STYLE('',#21,POSITIVE_LENGTH_MEASURE(2.E-2),#9);
#231=PRESENTATION_STYLE_ASSIGNMENT((#230));
#232=STYLED_ITEM('',(#231),#229);
#233=DIRECTION('',(0.E0,-1.E0,0.E0));
#234=VECTOR('',#233,3.779527559055E-2);
#235=CARTESIAN_POINT('',(1.801775775540E-1,5.826771653543E-2,
5.339087206057E-1));
#236=LINE('',#235,#234);
#237=CURVE_STYLE('',#21,POSITIVE_LENGTH_MEASURE(2.E-2),#9);
#238=PRESENTATION_STYLE_ASSIGNMENT((#237));
#239=STYLED_ITEM('',(#238),#236);
#240=DIRECTION('',(0.E0,1.E0,0.E0));
#241=VECTOR('',#240,3.779527559055E-2);
#242=CARTESIAN_POINT('',(1.747277461442E-1,2.047244094488E-2,
5.116734784397E-1));
#243=LINE('',#242,#241);
#244=CURVE_STYLE('',#21,POSITIVE_LENGTH_MEASURE(2.E-2),#9);
#245=PRESENTATION_STYLE_ASSIGNMENT((#244));
#246=STYLED_ITEM('',(#245),#243);
#247=DIRECTION('',(0.E0,-1.E0,0.E0));
#248=VECTOR('',#247,3.779527559055E-2);
#249=CARTESIAN_POINT('',(1.789303891394E-1,5.826771653543E-2,
5.318032157550E-1));
#250=LINE('',#249,#248);
#251=CURVE_STYLE('',#21,POSITIVE_LENGTH_MEASURE(2.E-2),#9);
#252=PRESENTATION_STYLE_ASSIGNMENT((#251));
#253=STYLED_ITEM('',(#252),#250);
#254=DIRECTION('',(0.E0,0.E0,1.E0));
#255=VECTOR('',#254,5.483266978654E-2);
#256=CARTESIAN_POINT('',(1.881889763785E-1,5.826771653543E-2,
3.962212694155E-1));
#257=LINE('',#256,#255);
#258=CURVE_STYLE('',#21,POSITIVE_LENGTH_MEASURE(2.E-2),#9);
#259=PRESENTATION_STYLE_ASSIGNMENT((#258));
#260=STYLED_ITEM('',(#259),#257);
#261=DIRECTION('',(0.E0,0.E0,-1.E0));
#262=VECTOR('',#261,5.483266978654E-2);
#263=CARTESIAN_POINT('',(1.881889763785E-1,2.047244094488E-2,
4.510539392021E-1));
#264=LINE('',#263,#262);
#265=CURVE_STYLE('',#21,POSITIVE_LENGTH_MEASURE(2.E-2),#9);
#266=PRESENTATION_STYLE_ASSIGNMENT((#265));
#267=STYLED_ITEM('',(#266),#264);
#268=DIRECTION('',(0.E0,-1.E0,0.E0));
#269=VECTOR('',#268,3.779527559055E-2);
#270=CARTESIAN_POINT('',(1.881889763785E-1,5.826771653543E-2,
4.510539392021E-1));
#271=LINE('',#270,#269);
#272=CURVE_STYLE('',#21,POSITIVE_LENGTH_MEASURE(2.E-2),#9);
#273=PRESENTATION_STYLE_ASSIGNMENT((#272));
#274=STYLED_ITEM('',(#273),#271);
#275=DIRECTION('',(0.E0,-1.E0,0.E0));
#276=VECTOR('',#275,3.779527559055E-2);
#277=CARTESIAN_POINT('',(1.881889763785E-1,5.826771653543E-2,
3.962212694155E-1));
#278=LINE('',#277,#276);
#279=CURVE_STYLE('',#21,POSITIVE_LENGTH_MEASURE(2.E-2),#9);
#280=PRESENTATION_STYLE_ASSIGNMENT((#279));
#281=STYLED_ITEM('',(#280),#278);
#282=DIRECTION('',(0.E0,1.E0,0.E0));
#283=VECTOR('',#282,3.779527559055E-2);
#284=CARTESIAN_POINT('',(1.707071110318E-1,2.047244094488E-2,
5.410574759155E-1));
#285=LINE('',#284,#283);
#286=CURVE_STYLE('',#21,POSITIVE_LENGTH_MEASURE(2.E-2),#9);
#287=PRESENTATION_STYLE_ASSIGNMENT((#286));
#288=STYLED_ITEM('',(#287),#285);
#289=DIRECTION('',(0.E0,-1.E0,0.E0));
#290=VECTOR('',#289,3.779527559055E-2);
#291=CARTESIAN_POINT('',(1.630640193157E-1,5.826771653543E-2,
5.093657068233E-1));
#292=LINE('',#291,#290);
#293=CURVE_STYLE('',#21,POSITIVE_LENGTH_MEASURE(2.E-2),#9);
#294=PRESENTATION_STYLE_ASSIGNMENT((#293));
#295=STYLED_ITEM('',(#294),#292);
#296=DIRECTION('',(0.E0,1.E0,0.E0));
#297=VECTOR('',#296,3.779527559055E-2);
#298=CARTESIAN_POINT('',(1.832126885096E-1,2.047244094488E-2,
5.530795215208E-1));
#299=LINE('',#298,#297);
#300=CURVE_STYLE('',#21,POSITIVE_LENGTH_MEASURE(2.E-2),#9);
#301=PRESENTATION_STYLE_ASSIGNMENT((#300));
#302=STYLED_ITEM('',(#301),#299);
#303=DIRECTION('',(0.E0,-1.E0,0.E0));
#304=VECTOR('',#303,3.779527559055E-2);
#305=CARTESIAN_POINT('',(1.779953445297E-1,5.826771653543E-2,
5.494619163297E-1));
#306=LINE('',#305,#304);
#307=CURVE_STYLE('',#21,POSITIVE_LENGTH_MEASURE(2.E-2),#9);
#308=PRESENTATION_STYLE_ASSIGNMENT((#307));
#309=STYLED_ITEM('',(#308),#306);
#310=CARTESIAN_POINT('',(1.881889763780E-1,5.826771653543E-2,
5.554498614727E-1));
#311=CARTESIAN_POINT('',(1.881889763780E-1,2.047244094488E-2,
5.554498614727E-1));
#312=VERTEX_POINT('',#310);
#313=VERTEX_POINT('',#311);
#314=CARTESIAN_POINT('',(1.881889763780E-1,5.826771653543E-2,
5.423356994182E-1));
#315=CARTESIAN_POINT('',(1.881889763780E-1,2.047244094488E-2,
5.423356994182E-1));
#316=VERTEX_POINT('',#314);
#317=VERTEX_POINT('',#315);
#318=CARTESIAN_POINT('',(1.832126885096E-1,2.047244094488E-2,
5.530795215208E-1));
#319=CARTESIAN_POINT('',(1.832126885096E-1,5.826771653543E-2,
5.530795215208E-1));
#320=VERTEX_POINT('',#318);
#321=VERTEX_POINT('',#319);
#322=CARTESIAN_POINT('',(1.779953445297E-1,5.826771653543E-2,
5.494619163297E-1));
#323=CARTESIAN_POINT('',(1.779953445297E-1,2.047244094488E-2,
5.494619163297E-1));
#324=VERTEX_POINT('',#322);
#325=VERTEX_POINT('',#323);
#326=CARTESIAN_POINT('',(1.707071110318E-1,2.047244094488E-2,
5.410574759155E-1));
#327=CARTESIAN_POINT('',(1.707071110318E-1,5.826771653543E-2,
5.410574759155E-1));
#328=VERTEX_POINT('',#326);
#329=VERTEX_POINT('',#327);
#330=CARTESIAN_POINT('',(1.627496482134E-1,2.047244094488E-2,
5.148084273433E-1));
#331=VERTEX_POINT('',#330);
#332=CARTESIAN_POINT('',(1.630640193157E-1,2.047244094488E-2,
5.093657068233E-1));
#333=VERTEX_POINT('',#332);
#334=CARTESIAN_POINT('',(1.881889763785E-1,2.047244094488E-2,
3.962212694155E-1));
#335=VERTEX_POINT('',#334);
#336=CARTESIAN_POINT('',(1.865228135854E-1,5.826771653543E-2,
5.412243179371E-1));
#337=VERTEX_POINT('',#336);
#338=CARTESIAN_POINT('',(1.801775775540E-1,5.826771653543E-2,
5.339087206057E-1));
#339=VERTEX_POINT('',#338);
#340=CARTESIAN_POINT('',(1.789303891394E-1,5.826771653543E-2,
5.318032157550E-1));
#341=VERTEX_POINT('',#340);
#342=CARTESIAN_POINT('',(1.745887910252E-1,5.826771653543E-2,
5.148084273433E-1));
#343=VERTEX_POINT('',#342);
#344=CARTESIAN_POINT('',(1.747277461442E-1,5.826771653543E-2,
5.116734784397E-1));
#345=VERTEX_POINT('',#344);
#346=CARTESIAN_POINT('',(1.881889763785E-1,5.826771653543E-2,
4.510539392021E-1));
#347=VERTEX_POINT('',#346);
#348=CARTESIAN_POINT('',(1.881889763785E-1,5.826771653543E-2,
3.962212694155E-1));
#349=VERTEX_POINT('',#348);
#350=CARTESIAN_POINT('',(1.630640193157E-1,5.826771653543E-2,
5.093657068233E-1));
#351=VERTEX_POINT('',#350);
#352=CARTESIAN_POINT('',(1.627496482134E-1,5.826771653543E-2,
5.148084273433E-1));
#353=VERTEX_POINT('',#352);
#354=CARTESIAN_POINT('',(1.881889763785E-1,2.047244094488E-2,
4.510539392021E-1));
#355=VERTEX_POINT('',#354);
#356=CARTESIAN_POINT('',(1.747277461442E-1,2.047244094488E-2,
5.116734784397E-1));
#357=VERTEX_POINT('',#356);
#358=CARTESIAN_POINT('',(1.789303891394E-1,2.047244094488E-2,
5.318032157550E-1));
#359=VERTEX_POINT('',#358);
#360=CARTESIAN_POINT('',(1.801775775540E-1,2.047244094488E-2,
5.339087206057E-1));
#361=VERTEX_POINT('',#360);
#362=CARTESIAN_POINT('',(1.865228135854E-1,2.047244094488E-2,
5.412243179371E-1));
#363=VERTEX_POINT('',#362);
#364=CARTESIAN_POINT('',(1.745887910252E-1,2.047244094488E-2,
5.148084273433E-1));
#365=VERTEX_POINT('',#364);
#366=CARTESIAN_POINT('',(1.881889763780E-1,2.047244094488E-2,
5.423356994182E-1));
#367=DIRECTION('',(1.E0,0.E0,0.E0));
#368=DIRECTION('',(0.E0,1.E0,0.E0));
#369=AXIS2_PLACEMENT_3D('',#366,#367,#368);
#370=PLANE('',#369);
#372=ORIENTED_EDGE('',*,*,#371,.F.);
#374=ORIENTED_EDGE('',*,*,#373,.T.);
#376=ORIENTED_EDGE('',*,*,#375,.F.);
#378=ORIENTED_EDGE('',*,*,#377,.F.);
#379=EDGE_LOOP('',(#372,#374,#376,#378));
#380=FACE_OUTER_BOUND('',#379,.F.);
#382=FILL_AREA_STYLE_COLOUR('',#11);
#383=FILL_AREA_STYLE('',(#382));
#384=SURFACE_STYLE_FILL_AREA(#383);
#385=SURFACE_SIDE_STYLE('',(#384));
#386=SURFACE_STYLE_USAGE(.BOTH.,#385);
#387=PRESENTATION_STYLE_ASSIGNMENT((#386));
#388=OVER_RIDING_STYLED_ITEM('',(#387),#381,#16);
#389=CARTESIAN_POINT('',(1.916897830300E-1,5.826771653543E-2,
5.352827229695E-1));
#390=DIRECTION('',(0.E0,-1.E0,0.E0));
#391=DIRECTION('',(1.E0,0.E0,0.E0));
#392=AXIS2_PLACEMENT_3D('',#389,#390,#391);
#393=PLANE('',#392);
#394=ORIENTED_EDGE('',*,*,#371,.T.);
#396=ORIENTED_EDGE('',*,*,#395,.F.);
#398=ORIENTED_EDGE('',*,*,#397,.F.);
#400=ORIENTED_EDGE('',*,*,#399,.F.);
#402=ORIENTED_EDGE('',*,*,#401,.F.);
#404=ORIENTED_EDGE('',*,*,#403,.F.);
#406=ORIENTED_EDGE('',*,*,#405,.F.);
#408=ORIENTED_EDGE('',*,*,#407,.T.);
#410=ORIENTED_EDGE('',*,*,#409,.F.);
#412=ORIENTED_EDGE('',*,*,#411,.F.);
#414=ORIENTED_EDGE('',*,*,#413,.F.);
#416=ORIENTED_EDGE('',*,*,#415,.F.);
#418=ORIENTED_EDGE('',*,*,#417,.F.);
#420=ORIENTED_EDGE('',*,*,#419,.F.);
#421=EDGE_LOOP('',(#394,#396,#398,#400,#402,#404,#406,#408,#410,#412,#414,#416,
#418,#420));
#422=FACE_OUTER_BOUND('',#421,.F.);
#424=FILL_AREA_STYLE_COLOUR('',#11);
#425=FILL_AREA_STYLE('',(#424));
#426=SURFACE_STYLE_FILL_AREA(#425);
#427=SURFACE_SIDE_STYLE('',(#426));
#428=SURFACE_STYLE_USAGE(.BOTH.,#427);
#429=PRESENTATION_STYLE_ASSIGNMENT((#428));
#430=OVER_RIDING_STYLED_ITEM('',(#429),#423,#16);
#431=CARTESIAN_POINT('',(1.881889763780E-1,2.047244094488E-2,
5.554498614727E-1));
#432=DIRECTION('',(-4.300340030040E-1,0.E0,9.028126916810E-1));
#433=DIRECTION('',(9.028126916810E-1,0.E0,4.300340030040E-1));
#434=AXIS2_PLACEMENT_3D('',#431,#432,#433);
#435=PLANE('',#434);
#436=ORIENTED_EDGE('',*,*,#395,.T.);
#437=ORIENTED_EDGE('',*,*,#377,.T.);
#439=ORIENTED_EDGE('',*,*,#438,.T.);
#441=ORIENTED_EDGE('',*,*,#440,.T.);
#442=EDGE_LOOP('',(#436,#437,#439,#441));
#443=FACE_OUTER_BOUND('',#442,.F.);
#445=FILL_AREA_STYLE_COLOUR('',#11);
#446=FILL_AREA_STYLE('',(#445));
#447=SURFACE_STYLE_FILL_AREA(#446);
#448=SURFACE_SIDE_STYLE('',(#447));
#449=SURFACE_STYLE_USAGE(.BOTH.,#448);
#450=PRESENTATION_STYLE_ASSIGNMENT((#449));
#451=OVER_RIDING_STYLED_ITEM('',(#450),#444,#16);
#452=CARTESIAN_POINT('',(1.916897830300E-1,2.047244094488E-2,
5.352827229695E-1));
#453=DIRECTION('',(0.E0,-1.E0,0.E0));
#454=DIRECTION('',(1.E0,0.E0,0.E0));
#455=AXIS2_PLACEMENT_3D('',#452,#453,#454);
#456=PLANE('',#455);
#457=ORIENTED_EDGE('',*,*,#375,.T.);
#459=ORIENTED_EDGE('',*,*,#458,.F.);
#461=ORIENTED_EDGE('',*,*,#460,.F.);
#463=ORIENTED_EDGE('',*,*,#462,.F.);
#465=ORIENTED_EDGE('',*,*,#464,.F.);
#467=ORIENTED_EDGE('',*,*,#466,.F.);
#469=ORIENTED_EDGE('',*,*,#468,.F.);
#471=ORIENTED_EDGE('',*,*,#470,.T.);
#473=ORIENTED_EDGE('',*,*,#472,.F.);
#475=ORIENTED_EDGE('',*,*,#474,.F.);
#477=ORIENTED_EDGE('',*,*,#476,.F.);
#479=ORIENTED_EDGE('',*,*,#478,.F.);
#481=ORIENTED_EDGE('',*,*,#480,.F.);
#482=ORIENTED_EDGE('',*,*,#438,.F.);
#483=EDGE_LOOP('',(#457,#459,#461,#463,#465,#467,#469,#471,#473,#475,#477,#479,
#481,#482));
#484=FACE_OUTER_BOUND('',#483,.F.);
#486=FILL_AREA_STYLE_COLOUR('',#11);
#487=FILL_AREA_STYLE('',(#486));
#488=SURFACE_STYLE_FILL_AREA(#487);
#489=SURFACE_SIDE_STYLE('',(#488));
#490=SURFACE_STYLE_USAGE(.BOTH.,#489);
#491=PRESENTATION_STYLE_ASSIGNMENT((#490));
#492=OVER_RIDING_STYLED_ITEM('',(#491),#485,#16);
#493=CARTESIAN_POINT('',(1.916897830300E-1,2.047244094488E-2,
5.352827229695E-1));
#494=DIRECTION('',(0.E0,1.E0,0.E0));
#495=DIRECTION('',(-1.E0,0.E0,0.E0));
#496=AXIS2_PLACEMENT_3D('',#493,#494,#495);
#497=CYLINDRICAL_SURFACE('',#496,7.874015748038E-3);
#498=ORIENTED_EDGE('',*,*,#419,.T.);
#500=ORIENTED_EDGE('',*,*,#499,.F.);
#501=ORIENTED_EDGE('',*,*,#458,.T.);
#502=ORIENTED_EDGE('',*,*,#373,.F.);
#503=EDGE_LOOP('',(#498,#500,#501,#502));
#504=FACE_OUTER_BOUND('',#503,.F.);
#506=FILL_AREA_STYLE_COLOUR('',#11);
#507=FILL_AREA_STYLE('',(#506));
#508=SURFACE_STYLE_FILL_AREA(#507);
#509=SURFACE_SIDE_STYLE('',(#508));
#510=SURFACE_STYLE_USAGE(.BOTH.,#509);
#511=PRESENTATION_STYLE_ASSIGNMENT((#510));
#512=OVER_RIDING_STYLED_ITEM('',(#511),#505,#16);
#513=CARTESIAN_POINT('',(1.801775775540E-1,2.047244094488E-2,
5.339087206057E-1));
#514=DIRECTION('',(7.554308462522E-1,0.E0,-6.552283850160E-1));
#515=DIRECTION('',(-6.552283850160E-1,0.E0,-7.554308462522E-1));
#516=AXIS2_PLACEMENT_3D('',#513,#514,#515);
#517=PLANE('',#516);
#518=ORIENTED_EDGE('',*,*,#417,.T.);
#520=ORIENTED_EDGE('',*,*,#519,.T.);
#521=ORIENTED_EDGE('',*,*,#460,.T.);
#522=ORIENTED_EDGE('',*,*,#499,.T.);
#523=EDGE_LOOP('',(#518,#520,#521,#522));
#524=FACE_OUTER_BOUND('',#523,.F.);
#526=FILL_AREA_STYLE_COLOUR('',#11);
#527=FILL_AREA_STYLE('',(#526));
#528=SURFACE_STYLE_FILL_AREA(#527);
#529=SURFACE_SIDE_STYLE('',(#528));
#530=SURFACE_STYLE_USAGE(.BOTH.,#529);
#531=PRESENTATION_STYLE_ASSIGNMENT((#530));
#532=OVER_RIDING_STYLED_ITEM('',(#531),#525,#16);
#533=CARTESIAN_POINT('',(1.789303891394E-1,2.047244094488E-2,
5.318032157550E-1));
#534=DIRECTION('',(8.603843840641E-1,0.E0,-5.096456726576E-1));
#535=DIRECTION('',(-5.096456726576E-1,0.E0,-8.603843840641E-1));
#536=AXIS2_PLACEMENT_3D('',#533,#534,#535);
#537=PLANE('',#536);
#538=ORIENTED_EDGE('',*,*,#415,.T.);
#540=ORIENTED_EDGE('',*,*,#539,.T.);
#541=ORIENTED_EDGE('',*,*,#462,.T.);
#542=ORIENTED_EDGE('',*,*,#519,.F.);
#543=EDGE_LOOP('',(#538,#540,#541,#542));
#544=FACE_OUTER_BOUND('',#543,.F.);
#546=FILL_AREA_STYLE_COLOUR('',#11);
#547=FILL_AREA_STYLE('',(#546));
#548=SURFACE_STYLE_FILL_AREA(#547);
#549=SURFACE_SIDE_STYLE('',(#548));
#550=SURFACE_STYLE_USAGE(.BOTH.,#549);
#551=PRESENTATION_STYLE_ASSIGNMENT((#550));
#552=OVER_RIDING_STYLED_ITEM('',(#551),#545,#16);
#553=CARTESIAN_POINT('',(2.100218618966E-1,2.047244094488E-2,
5.148084273433E-1));
#554=DIRECTION('',(0.E0,1.E0,0.E0));
#555=DIRECTION('',(-1.E0,0.E0,0.E0));
#556=AXIS2_PLACEMENT_3D('',#553,#554,#555);
#557=CYLINDRICAL_SURFACE('',#556,3.543307087136E-2);
#558=ORIENTED_EDGE('',*,*,#411,.T.);
#560=ORIENTED_EDGE('',*,*,#559,.F.);
#561=ORIENTED_EDGE('',*,*,#466,.T.);
#562=ORIENTED_EDGE('',*,*,#464,.T.);
#563=ORIENTED_EDGE('',*,*,#539,.F.);
#564=ORIENTED_EDGE('',*,*,#413,.T.);
#565=EDGE_LOOP('',(#558,#560,#561,#562,#563,#564));
#566=FACE_OUTER_BOUND('',#565,.F.);
#568=FILL_AREA_STYLE_COLOUR('',#11);
#569=FILL_AREA_STYLE('',(#568));
#570=SURFACE_STYLE_FILL_AREA(#569);
#571=SURFACE_SIDE_STYLE('',(#570));
#572=SURFACE_STYLE_USAGE(.BOTH.,#571);
#573=PRESENTATION_STYLE_ASSIGNMENT((#572));
#574=OVER_RIDING_STYLED_ITEM('',(#573),#567,#16);
#575=CARTESIAN_POINT('',(1.881889763785E-1,2.047244094488E-2,
4.510539392021E-1));
#576=DIRECTION('',(9.762203959290E-1,0.E0,2.167803924996E-1));
#577=DIRECTION('',(2.167803924996E-1,0.E0,-9.762203959290E-1));
#578=AXIS2_PLACEMENT_3D('',#575,#576,#577);
#579=PLANE('',#578);
#580=ORIENTED_EDGE('',*,*,#409,.T.);
#582=ORIENTED_EDGE('',*,*,#581,.T.);
#583=ORIENTED_EDGE('',*,*,#468,.T.);
#584=ORIENTED_EDGE('',*,*,#559,.T.);
#585=EDGE_LOOP('',(#580,#582,#583,#584));
#586=FACE_OUTER_BOUND('',#585,.F.);
#588=FILL_AREA_STYLE_COLOUR('',#11);
#589=FILL_AREA_STYLE('',(#588));
#590=SURFACE_STYLE_FILL_AREA(#589);
#591=SURFACE_SIDE_STYLE('',(#590));
#592=SURFACE_STYLE_USAGE(.BOTH.,#591);
#593=PRESENTATION_STYLE_ASSIGNMENT((#592));
#594=OVER_RIDING_STYLED_ITEM('',(#593),#587,#16);
#595=CARTESIAN_POINT('',(1.881889763785E-1,2.047244094488E-2,
3.962212694155E-1));
#596=DIRECTION('',(1.E0,0.E0,0.E0));
#597=DIRECTION('',(0.E0,1.E0,0.E0));
#598=AXIS2_PLACEMENT_3D('',#595,#596,#597);
#599=PLANE('',#598);
#600=ORIENTED_EDGE('',*,*,#407,.F.);
#602=ORIENTED_EDGE('',*,*,#601,.T.);
#603=ORIENTED_EDGE('',*,*,#470,.F.);
#604=ORIENTED_EDGE('',*,*,#581,.F.);
#605=EDGE_LOOP('',(#600,#602,#603,#604));
#606=FACE_OUTER_BOUND('',#605,.F.);
#608=FILL_AREA_STYLE_COLOUR('',#11);
#609=FILL_AREA_STYLE('',(#608));
#610=SURFACE_STYLE_FILL_AREA(#609);
#611=SURFACE_SIDE_STYLE('',(#610));
#612=SURFACE_STYLE_USAGE(.BOTH.,#611);
#613=PRESENTATION_STYLE_ASSIGNMENT((#612));
#614=OVER_RIDING_STYLED_ITEM('',(#613),#607,#16);
#615=CARTESIAN_POINT('',(1.630640193157E-1,2.047244094488E-2,
5.093657068233E-1));
#616=DIRECTION('',(-9.762203959642E-1,0.E0,-2.167803923408E-1));
#617=DIRECTION('',(-2.167803923408E-1,0.E0,9.762203959642E-1));
#618=AXIS2_PLACEMENT_3D('',#615,#616,#617);
#619=PLANE('',#618);
#620=ORIENTED_EDGE('',*,*,#405,.T.);
#622=ORIENTED_EDGE('',*,*,#621,.T.);
#623=ORIENTED_EDGE('',*,*,#472,.T.);
#624=ORIENTED_EDGE('',*,*,#601,.F.);
#625=EDGE_LOOP('',(#620,#622,#623,#624));
#626=FACE_OUTER_BOUND('',#625,.F.);
#628=FILL_AREA_STYLE_COLOUR('',#11);
#629=FILL_AREA_STYLE('',(#628));
#630=SURFACE_STYLE_FILL_AREA(#629);
#631=SURFACE_SIDE_STYLE('',(#630));
#632=SURFACE_STYLE_USAGE(.BOTH.,#631);
#633=PRESENTATION_STYLE_ASSIGNMENT((#632));
#634=OVER_RIDING_STYLED_ITEM('',(#633),#627,#16);
#635=CARTESIAN_POINT('',(2.100218618966E-1,2.047244094488E-2,
5.148084273433E-1));
#636=DIRECTION('',(0.E0,1.E0,0.E0));
#637=DIRECTION('',(-1.E0,0.E0,0.E0));
#638=AXIS2_PLACEMENT_3D('',#635,#636,#637);
#639=CYLINDRICAL_SURFACE('',#638,4.727221368320E-2);
#640=ORIENTED_EDGE('',*,*,#401,.T.);
#642=ORIENTED_EDGE('',*,*,#641,.F.);
#643=ORIENTED_EDGE('',*,*,#476,.T.);
#644=ORIENTED_EDGE('',*,*,#474,.T.);
#645=ORIENTED_EDGE('',*,*,#621,.F.);
#646=ORIENTED_EDGE('',*,*,#403,.T.);
#647=EDGE_LOOP('',(#640,#642,#643,#644,#645,#646));
#648=FACE_OUTER_BOUND('',#647,.F.);
#650=FILL_AREA_STYLE_COLOUR('',#11);
#651=FILL_AREA_STYLE('',(#650));
#652=SURFACE_STYLE_FILL_AREA(#651);
#653=SURFACE_SIDE_STYLE('',(#652));
#654=SURFACE_STYLE_USAGE(.BOTH.,#653);
#655=PRESENTATION_STYLE_ASSIGNMENT((#654));
#656=OVER_RIDING_STYLED_ITEM('',(#655),#649,#16);
#657=CARTESIAN_POINT('',(1.779953445297E-1,2.047244094488E-2,
5.494619163297E-1));
#658=DIRECTION('',(-7.554939552493E-1,0.E0,6.551556178358E-1));
#659=DIRECTION('',(6.551556178358E-1,0.E0,7.554939552493E-1));
#660=AXIS2_PLACEMENT_3D('',#657,#658,#659);
#661=PLANE('',#660);
#662=ORIENTED_EDGE('',*,*,#399,.T.);
#664=ORIENTED_EDGE('',*,*,#663,.T.);
#665=ORIENTED_EDGE('',*,*,#478,.T.);
#666=ORIENTED_EDGE('',*,*,#641,.T.);
#667=EDGE_LOOP('',(#662,#664,#665,#666));
#668=FACE_OUTER_BOUND('',#667,.F.);
#670=FILL_AREA_STYLE_COLOUR('',#11);
#671=FILL_AREA_STYLE('',(#670));
#672=SURFACE_STYLE_FILL_AREA(#671);
#673=SURFACE_SIDE_STYLE('',(#672));
#674=SURFACE_STYLE_USAGE(.BOTH.,#673);
#675=PRESENTATION_STYLE_ASSIGNMENT((#674));
#676=OVER_RIDING_STYLED_ITEM('',(#675),#669,#16);
#677=CARTESIAN_POINT('',(1.916897830300E-1,2.047244094488E-2,
5.352827229695E-1));
#678=DIRECTION('',(0.E0,1.E0,0.E0));
#679=DIRECTION('',(-1.E0,0.E0,0.E0));
#680=AXIS2_PLACEMENT_3D('',#677,#678,#679);
#681=CYLINDRICAL_SURFACE('',#680,1.971261449386E-2);
#682=ORIENTED_EDGE('',*,*,#397,.T.);
#683=ORIENTED_EDGE('',*,*,#440,.F.);
#684=ORIENTED_EDGE('',*,*,#480,.T.);
#685=ORIENTED_EDGE('',*,*,#663,.F.);
#686=EDGE_LOOP('',(#682,#683,#684,#685));
#687=FACE_OUTER_BOUND('',#686,.F.);
#689=FILL_AREA_STYLE_COLOUR('',#11);
#690=FILL_AREA_STYLE('',(#689));
#691=SURFACE_STYLE_FILL_AREA(#690);
#692=SURFACE_SIDE_STYLE('',(#691));
#693=SURFACE_STYLE_USAGE(.BOTH.,#692);
#694=PRESENTATION_STYLE_ASSIGNMENT((#693));
#695=OVER_RIDING_STYLED_ITEM('',(#694),#688,#16);
#698=FILL_AREA_STYLE_COLOUR('',#9);
#699=FILL_AREA_STYLE('',(#698));
#700=SURFACE_STYLE_FILL_AREA(#699);
#701=SURFACE_SIDE_STYLE('',(#700));
#702=SURFACE_STYLE_USAGE(.BOTH.,#701);
#703=PRESENTATION_STYLE_ASSIGNMENT((#702));
#16=STYLED_ITEM('',(#703),#697);
#704=PRESENTATION_LAYER_ASSIGNMENT('SHELL_214','',(#16,#381,#423,#444,#485,#505,
#525,#545,#567,#587,#607,#627,#649,#669,#688));
#706=LENGTH_MEASURE_WITH_UNIT(LENGTH_MEASURE(2.54E1),#705);
#707=(CONVERSION_BASED_UNIT('INCH',#706)LENGTH_UNIT()NAMED_UNIT(*));
#709=PLANE_ANGLE_MEASURE_WITH_UNIT(PLANE_ANGLE_MEASURE(1.745329251994E-2),#708);
#710=(CONVERSION_BASED_UNIT('DEGREE',#709)NAMED_UNIT(*)PLANE_ANGLE_UNIT());
#712=UNCERTAINTY_MEASURE_WITH_UNIT(LENGTH_MEASURE(1.656115711413E-5),#707,
'closure',
'Maximum model space distance between geometric entities at asserted connectivities');
#714=CARTESIAN_POINT('',(0.E0,0.E0,0.E0));
#715=DIRECTION('',(0.E0,0.E0,1.E0));
#716=DIRECTION('',(1.E0,0.E0,0.E0));
#719=MECHANICAL_DESIGN_GEOMETRIC_PRESENTATION_REPRESENTATION('',(#24,#31,#38,
#45,#53,#60,#68,#76,#83,#90,#98,#106,#113,#120,#128,#136,#143,#150,#158,#166,
#173,#180,#188,#196,#203,#211,#218,#225,#232,#239,#246,#253,#260,#267,#274,#281,
#288,#295,#302,#309,#388,#430,#451,#492,#512,#532,#552,#574,#594,#614,#634,#656,
#676,#695,#16),#713);
#720=APPLICATION_CONTEXT('automotive design');
#721=APPLICATION_PROTOCOL_DEFINITION('international standard',
'config_control_design',1994,#720);
#722=PRODUCT_DEFINITION_CONTEXT('',#720,'design');
#723=PRODUCT_CONTEXT('',#720,'mechanical');
#724=PRODUCT('LPATTERN1','LPATTERN1','NOT SPECIFIED',(#723));
#725=PRODUCT_DEFINITION_FORMATION_WITH_SPECIFIED_SOURCE('1','LAST_VERSION',#724,
.MADE.);
#733=LENGTH_MEASURE_WITH_UNIT(LENGTH_MEASURE(2.54E1),#732);
#734=(CONVERSION_BASED_UNIT('INCH',#733)LENGTH_UNIT()NAMED_UNIT(*));
#735=DERIVED_UNIT_ELEMENT(#734,2.E0);
#736=AREA_UNIT((#735));
#737=MEASURE_REPRESENTATION_ITEM('surface area measure',AREA_MEASURE(
1.028577596226E1),#736);
#742=LENGTH_MEASURE_WITH_UNIT(LENGTH_MEASURE(2.54E1),#741);
#743=(CONVERSION_BASED_UNIT('INCH',#742)LENGTH_UNIT()NAMED_UNIT(*));
#744=DERIVED_UNIT_ELEMENT(#743,3.E0);
#745=VOLUME_UNIT((#744));
#746=MEASURE_REPRESENTATION_ITEM('volume measure',VOLUME_MEASURE(
9.899672353735E-1),#745);
#750=CARTESIAN_POINT('centre point',(4.494407366668E0,1.E0,1.239730049485E1));
#755=LENGTH_MEASURE_WITH_UNIT(LENGTH_MEASURE(2.54E1),#754);
#756=(CONVERSION_BASED_UNIT('INCH',#755)LENGTH_UNIT()NAMED_UNIT(*));
#757=DERIVED_UNIT_ELEMENT(#756,2.E0);
#758=AREA_UNIT((#757));
#759=MEASURE_REPRESENTATION_ITEM('surface area measure',AREA_MEASURE(
1.028577596226E1),#758);
#764=LENGTH_MEASURE_WITH_UNIT(LENGTH_MEASURE(2.54E1),#763);
#765=(CONVERSION_BASED_UNIT('INCH',#764)LENGTH_UNIT()NAMED_UNIT(*));
#766=DERIVED_UNIT_ELEMENT(#765,3.E0);
#767=VOLUME_UNIT((#766));
#768=MEASURE_REPRESENTATION_ITEM('volume measure',VOLUME_MEASURE(
9.899672353735E-1),#767);
#772=CARTESIAN_POINT('centre point',(4.494407366668E0,1.E0,1.239730049485E1));
#1=DRAUGHTING_PRE_DEFINED_COLOUR('green');
#2=COLOUR_RGB('',1.1E-2,1.2E-2,1.E0);
#3=COLOUR_RGB('',2.352941176471E-1,2.352941176471E-1,2.352941176471E-1);
#4=COLOUR_RGB('',4.1E-1,2.61589E-1,1.12848E-1);
#5=COLOUR_RGB('',5.04854E-1,1.5455E-2,1.5455E-2);
#6=COLOUR_RGB('',6.35294E-1,6.86275E-1,7.4902E-1);
#7=COLOUR_RGB('',6.40777E-1,6.40777E-1,6.40777E-1);
#8=COLOUR_RGB('',6.69062E-1,6.69903E-1,6.55217E-1);
#9=COLOUR_RGB('',7.921568627451E-1,8.196078431373E-1,9.333333333333E-1);
#10=COLOUR_RGB('',9.21569E-1,7.05882E-1,4.70588E-1);
#11=DRAUGHTING_PRE_DEFINED_COLOUR('red');
#12=DRAUGHTING_PRE_DEFINED_COLOUR('yellow');
#13=COLOUR_RGB('',1.E0,1.E0,5.3E-1);
#14=COLOUR_RGB('',1.E0,1.E0,9.49E-1);
#15=DRAUGHTING_PRE_DEFINED_COLOUR('white');
#50=CIRCLE('',#49,1.971261449386E-2);
#65=CIRCLE('',#64,4.727221368320E-2);
#73=CIRCLE('',#72,4.727221368320E-2);
#95=CIRCLE('',#94,3.543307087136E-2);
#103=CIRCLE('',#102,3.543307087136E-2);
#125=CIRCLE('',#124,7.874015748038E-3);
#133=CIRCLE('',#132,7.874015748038E-3);
#155=CIRCLE('',#154,3.543307087136E-2);
#163=CIRCLE('',#162,3.543307087136E-2);
#185=CIRCLE('',#184,4.727221368320E-2);
#193=CIRCLE('',#192,4.727221368320E-2);
#208=CIRCLE('',#207,1.971261449386E-2);
#371=EDGE_CURVE('',#316,#312,#20,.T.);
#373=EDGE_CURVE('',#316,#317,#229,.T.);
#375=EDGE_CURVE('',#313,#317,#28,.T.);
#377=EDGE_CURVE('',#312,#313,#35,.T.);
#381=ADVANCED_FACE('',(#380),#370,.T.);
#395=EDGE_CURVE('',#321,#312,#42,.T.);
#397=EDGE_CURVE('',#324,#321,#50,.T.);
#399=EDGE_CURVE('',#329,#324,#57,.T.);
#401=EDGE_CURVE('',#353,#329,#65,.T.);
#403=EDGE_CURVE('',#351,#353,#73,.T.);
#405=EDGE_CURVE('',#349,#351,#80,.T.);
#407=EDGE_CURVE('',#349,#347,#257,.T.);
#409=EDGE_CURVE('',#345,#347,#87,.T.);
#411=EDGE_CURVE('',#343,#345,#95,.T.);
#413=EDGE_CURVE('',#341,#343,#103,.T.);
#415=EDGE_CURVE('',#339,#341,#110,.T.);
#417=EDGE_CURVE('',#337,#339,#117,.T.);
#419=EDGE_CURVE('',#316,#337,#125,.T.);
#423=ADVANCED_FACE('',(#422),#393,.F.);
#438=EDGE_CURVE('',#313,#320,#215,.T.);
#440=EDGE_CURVE('',#320,#321,#299,.T.);
#444=ADVANCED_FACE('',(#443),#435,.T.);
#458=EDGE_CURVE('',#363,#317,#133,.T.);
#460=EDGE_CURVE('',#361,#363,#140,.T.);
#462=EDGE_CURVE('',#359,#361,#147,.T.);
#464=EDGE_CURVE('',#365,#359,#155,.T.);
#466=EDGE_CURVE('',#357,#365,#163,.T.);
#468=EDGE_CURVE('',#355,#357,#170,.T.);
#470=EDGE_CURVE('',#355,#335,#264,.T.);
#472=EDGE_CURVE('',#333,#335,#177,.T.);
#474=EDGE_CURVE('',#331,#333,#185,.T.);
#476=EDGE_CURVE('',#328,#331,#193,.T.);
#478=EDGE_CURVE('',#325,#328,#200,.T.);
#480=EDGE_CURVE('',#320,#325,#208,.T.);
#485=ADVANCED_FACE('',(#484),#456,.T.);
#499=EDGE_CURVE('',#363,#337,#222,.T.);
#505=ADVANCED_FACE('',(#504),#497,.F.);
#519=EDGE_CURVE('',#339,#361,#236,.T.);
#525=ADVANCED_FACE('',(#524),#517,.T.);
#539=EDGE_CURVE('',#341,#359,#250,.T.);
#545=ADVANCED_FACE('',(#544),#537,.T.);
#559=EDGE_CURVE('',#357,#345,#243,.T.);
#567=ADVANCED_FACE('',(#566),#557,.F.);
#581=EDGE_CURVE('',#347,#355,#271,.T.);
#587=ADVANCED_FACE('',(#586),#579,.T.);
#601=EDGE_CURVE('',#349,#335,#278,.T.);
#607=ADVANCED_FACE('',(#606),#599,.T.);
#621=EDGE_CURVE('',#351,#333,#292,.T.);
#627=ADVANCED_FACE('',(#626),#619,.T.);
#641=EDGE_CURVE('',#328,#329,#285,.T.);
#649=ADVANCED_FACE('',(#648),#639,.T.);
#663=EDGE_CURVE('',#324,#325,#306,.T.);
#669=ADVANCED_FACE('',(#668),#661,.T.);
#688=ADVANCED_FACE('',(#687),#681,.T.);
#696=CLOSED_SHELL('',(#381,#423,#444,#485,#505,#525,#545,#567,#587,#607,#627,
#649,#669,#688));
#697=MANIFOLD_SOLID_BREP('',#696);
#705=(LENGTH_UNIT()NAMED_UNIT(*)SI_UNIT(.MILLI.,.METRE.));
#708=(NAMED_UNIT(*)PLANE_ANGLE_UNIT()SI_UNIT($,.RADIAN.));
#711=(NAMED_UNIT(*)SI_UNIT($,.STERADIAN.)SOLID_ANGLE_UNIT());
#713=(GEOMETRIC_REPRESENTATION_CONTEXT(3)GLOBAL_UNCERTAINTY_ASSIGNED_CONTEXT((
#712))GLOBAL_UNIT_ASSIGNED_CONTEXT((#707,#710,#711))REPRESENTATION_CONTEXT
('ID1','3'));
#717=AXIS2_PLACEMENT_3D('',#714,#715,#716);
#718=ADVANCED_BREP_SHAPE_REPRESENTATION('',(#717,#697),#713);
#726=PRODUCT_DEFINITION('design','',#725,#722);
#727=PRODUCT_DEFINITION_SHAPE('','SHAPE FOR LPATTERN1.',#726);
#728=SHAPE_ASPECT('','solid data associated with LPATTERN1',#727,.F.);
#729=PROPERTY_DEFINITION('',
'shape for solid data with which properties are associated',#728);
#730=SHAPE_REPRESENTATION('',(#697),#713);
#731=SHAPE_DEFINITION_REPRESENTATION(#729,#730);
#732=(LENGTH_UNIT()NAMED_UNIT(*)SI_UNIT(.MILLI.,.METRE.));
#738=PROPERTY_DEFINITION('geometric validation property','area of LPATTERN1',
#728);
#739=REPRESENTATION('surface area',(#737),#713);
#740=PROPERTY_DEFINITION_REPRESENTATION(#738,#739);
#741=(LENGTH_UNIT()NAMED_UNIT(*)SI_UNIT(.MILLI.,.METRE.));
#747=PROPERTY_DEFINITION('geometric validation property','volume of LPATTERN1',
#728);
#748=REPRESENTATION('volume',(#746),#713);
#749=PROPERTY_DEFINITION_REPRESENTATION(#747,#748);
#751=PROPERTY_DEFINITION('geometric validation property',
'centroid of LPATTERN1',#728);
#752=REPRESENTATION('centroid',(#750),#713);
#753=PROPERTY_DEFINITION_REPRESENTATION(#751,#752);
#754=(LENGTH_UNIT()NAMED_UNIT(*)SI_UNIT(.MILLI.,.METRE.));
#760=PROPERTY_DEFINITION('geometric validation property','area of LPATTERN1',
#727);
#761=REPRESENTATION('surface area',(#759),#713);
#762=PROPERTY_DEFINITION_REPRESENTATION(#760,#761);
#763=(LENGTH_UNIT()NAMED_UNIT(*)SI_UNIT(.MILLI.,.METRE.));
#769=PROPERTY_DEFINITION('geometric validation property','volume of LPATTERN1',
#727);
#770=REPRESENTATION('volume',(#768),#713);
#771=PROPERTY_DEFINITION_REPRESENTATION(#769,#770);
#773=PROPERTY_DEFINITION('geometric validation property',
'centroid of LPATTERN1',#727);
#774=REPRESENTATION('centroid',(#772),#713);
#775=PROPERTY_DEFINITION_REPRESENTATION(#773,#774);
#776=SHAPE_DEFINITION_REPRESENTATION(#727,#718);
ENDSEC;
END-ISO-10303-21;
