ISO-10303-21;
HEADER;
FILE_DESCRIPTION((''),'2;1');
FILE_NAME('MIRROR10','2026-06-15T13:46:15',('Esia'),(''),
'CREO PARAMETRIC BY PTC INC, 2025102','CREO PARAMETRIC BY PTC INC, 2025102','');
FILE_SCHEMA((
'AP242_MANAGED_MODEL_BASED_3D_ENGINEERING_MIM_LF { 1 0 10303 442 1 1 4 }'));
ENDSEC;
DATA;
#17=DIRECTION('',(-1.450644918581E-4,-1.548946120354E-1,-9.879309885405E-1));
#18=VECTOR('',#17,1.271941548394E-2);
#19=CARTESIAN_POINT('',(2.921259794768E-1,7.840710531955E-2,4.932745661300E-1));
#20=LINE('',#19,#18);
#21=DRAUGHTING_PRE_DEFINED_CURVE_FONT('continuous');
#22=CURVE_STYLE('',#21,POSITIVE_LENGTH_MEASURE(2.E-2),#5);
#23=PRESENTATION_STYLE_ASSIGNMENT((#22));
#24=STYLED_ITEM('',(#23),#20);
#25=DIRECTION('',(-1.454064197569E-4,-1.392331742256E-1,-9.902596134611E-1));
#26=VECTOR('',#25,3.284036197340E-5);
#27=CARTESIAN_POINT('',(2.921259842520E-1,7.841167778739E-2,4.933070866142E-1));
#28=LINE('',#27,#26);
#29=CURVE_STYLE('',#21,POSITIVE_LENGTH_MEASURE(2.E-2),#5);
#30=PRESENTATION_STYLE_ASSIGNMENT((#29));
#31=STYLED_ITEM('',(#30),#28);
#32=DIRECTION('',(0.E0,-1.E0,0.E0));
#33=VECTOR('',#32,7.944994065620E-2);
#34=CARTESIAN_POINT('',(2.921259842520E-1,1.578616184436E-1,4.933070866142E-1));
#35=LINE('',#34,#33);
#36=CURVE_STYLE('',#21,POSITIVE_LENGTH_MEASURE(2.E-2),#5);
#37=PRESENTATION_STYLE_ASSIGNMENT((#36));
#38=STYLED_ITEM('',(#37),#35);
#39=DIRECTION('',(1.448771042373E-4,-1.628257832306E-1,9.866548248126E-1));
#40=VECTOR('',#39,1.276882743593E-2);
#41=CARTESIAN_POINT('',(2.921241343412E-1,1.599407127718E-1,4.807086614173E-1));
#42=LINE('',#41,#40);
#43=CURVE_STYLE('',#21,POSITIVE_LENGTH_MEASURE(2.E-2),#5);
#44=PRESENTATION_STYLE_ASSIGNMENT((#43));
#45=STYLED_ITEM('',(#44),#42);
#46=DIRECTION('',(0.E0,1.E0,0.E0));
#47=VECTOR('',#46,8.350377637893E-2);
#48=CARTESIAN_POINT('',(2.921241343412E-1,7.643693639285E-2,4.807086614173E-1));
#49=LINE('',#48,#47);
#50=CURVE_STYLE('',#21,POSITIVE_LENGTH_MEASURE(2.E-2),#5);
#51=PRESENTATION_STYLE_ASSIGNMENT((#50));
#52=STYLED_ITEM('',(#51),#49);
#53=DIRECTION('',(1.E0,0.E0,0.E0));
#54=VECTOR('',#53,3.520671897484E-3);
#55=CARTESIAN_POINT('',(2.886034624437E-1,7.643693639285E-2,4.807086614173E-1));
#56=LINE('',#55,#54);
#57=CURVE_STYLE('',#21,POSITIVE_LENGTH_MEASURE(2.E-2),#5);
#58=PRESENTATION_STYLE_ASSIGNMENT((#57));
#59=STYLED_ITEM('',(#58),#56);
#60=DIRECTION('',(3.461572908732E-2,-1.548017847140E-1,-9.873389280025E-1));
#61=VECTOR('',#60,1.272704271686E-2);
#62=CARTESIAN_POINT('',(2.881629065810E-1,7.840710531955E-2,4.932745661300E-1));
#63=LINE('',#62,#61);
#64=CURVE_STYLE('',#21,POSITIVE_LENGTH_MEASURE(2.E-2),#5);
#65=PRESENTATION_STYLE_ASSIGNMENT((#64));
#66=STYLED_ITEM('',(#65),#63);
#67=DIRECTION('',(1.E0,0.E0,4.730161132390E-14));
#68=VECTOR('',#67,3.520671897484E-3);
#69=CARTESIAN_POINT('',(2.886034624437E-1,1.599407127718E-1,4.807086614173E-1));
#70=LINE('',#69,#68);
#71=CURVE_STYLE('',#21,POSITIVE_LENGTH_MEASURE(2.E-2),#5);
#72=PRESENTATION_STYLE_ASSIGNMENT((#71));
#73=STYLED_ITEM('',(#72),#70);
#74=DIRECTION('',(0.E0,1.E0,0.E0));
#75=VECTOR('',#74,8.350377637893E-2);
#76=CARTESIAN_POINT('',(2.886034624437E-1,7.643693639285E-2,4.807086614173E-1));
#77=LINE('',#76,#75);
#78=CURVE_STYLE('',#21,POSITIVE_LENGTH_MEASURE(2.E-2),#5);
#79=PRESENTATION_STYLE_ASSIGNMENT((#78));
#80=STYLED_ITEM('',(#79),#77);
#81=DIRECTION('',(1.E0,0.E0,0.E0));
#82=VECTOR('',#81,7.875246094213E-3);
#83=CARTESIAN_POINT('',(2.881606173465E-1,1.578562096495E-1,4.933398616006E-1));
#84=LINE('',#83,#82);
#85=CURVE_STYLE('',#21,POSITIVE_LENGTH_MEASURE(2.E-2),#5);
#86=PRESENTATION_STYLE_ASSIGNMENT((#85));
#87=STYLED_ITEM('',(#86),#84);
#88=DIRECTION('',(-3.457106755865E-2,-1.627284545216E-1,9.860650543331E-1));
#89=VECTOR('',#88,1.280970269429E-2);
#90=CARTESIAN_POINT('',(2.886034624437E-1,1.599407127718E-1,4.807086614173E-1));
#91=LINE('',#90,#89);
#92=CURVE_STYLE('',#21,POSITIVE_LENGTH_MEASURE(2.E-2),#5);
#93=PRESENTATION_STYLE_ASSIGNMENT((#92));
#94=STYLED_ITEM('',(#93),#91);
#95=DIRECTION('',(-3.465706382360E-2,-1.470755770994E-1,9.885179121028E-1));
#96=VECTOR('',#95,2.596768604215E-2);
#97=CARTESIAN_POINT('',(2.881606173465E-1,1.578562096495E-1,4.933398616006E-1));
#98=LINE('',#97,#96);
#99=CURVE_STYLE('',#21,POSITIVE_LENGTH_MEASURE(2.E-2),#5);
#100=PRESENTATION_STYLE_ASSIGNMENT((#99));
#101=STYLED_ITEM('',(#100),#98);
#102=DIRECTION('',(9.999999963605E-1,1.557062317016E-5,-8.388359922937E-5));
#103=VECTOR('',#102,1.486091929879E-2);
#104=CARTESIAN_POINT('',(2.747220461058E-1,1.533468893352E-1,
5.288907940670E-1));
#105=LINE('',#104,#103);
#106=CURVE_STYLE('',#21,POSITIVE_LENGTH_MEASURE(2.E-2),#5);
#107=PRESENTATION_STYLE_ASSIGNMENT((#106));
#108=STYLED_ITEM('',(#107),#105);
#109=CARTESIAN_POINT('',(2.854123403581E-1,1.538283737871E-1,
5.222107568257E-1));
#110=CARTESIAN_POINT('',(2.847272156908E-1,1.538031930516E-1,
5.226388702326E-1));
#111=CARTESIAN_POINT('',(2.834071193848E-1,1.537538307214E-1,
5.234637579558E-1));
#112=CARTESIAN_POINT('',(2.815780243643E-1,1.536823013218E-1,
5.246067033759E-1));
#113=CARTESIAN_POINT('',(2.798982596674E-1,1.536127713655E-1,
5.256563368534E-1));
#114=CARTESIAN_POINT('',(2.783753718056E-1,1.535451697513E-1,
5.266079428046E-1));
#115=CARTESIAN_POINT('',(2.770009015832E-1,1.534787433532E-1,
5.274668071218E-1));
#116=CARTESIAN_POINT('',(2.757724043398E-1,1.534128182202E-1,
5.282344573981E-1));
#117=CARTESIAN_POINT('',(2.750554173149E-1,1.533689859272E-1,
5.286824806157E-1));
#118=CARTESIAN_POINT('',(2.747220461058E-1,1.533468893352E-1,
5.288907940670E-1));
#120=CURVE_STYLE('',#21,POSITIVE_LENGTH_MEASURE(2.E-2),#5);
#121=PRESENTATION_STYLE_ASSIGNMENT((#120));
#122=STYLED_ITEM('',(#121),#119);
#123=CARTESIAN_POINT('',(2.872411516248E-1,1.539957416378E-1,
5.192866697242E-1));
#124=CARTESIAN_POINT('',(2.872234327121E-1,1.539863334537E-1,
5.194539568494E-1));
#125=CARTESIAN_POINT('',(2.871665428329E-1,1.539675707021E-1,
5.197870998625E-1));
#126=CARTESIAN_POINT('',(2.870156738164E-1,1.539398702573E-1,
5.202767730132E-1));
#127=CARTESIAN_POINT('',(2.868043329214E-1,1.539135313332E-1,
5.207397190633E-1));
#128=CARTESIAN_POINT('',(2.865322258921E-1,1.538885364870E-1,
5.211760628019E-1));
#129=CARTESIAN_POINT('',(2.862058721324E-1,1.538656422288E-1,
5.215726981006E-1));
#130=CARTESIAN_POINT('',(2.858329892062E-1,1.538453254639E-1,
5.219219142957E-1));
#131=CARTESIAN_POINT('',(2.855563743112E-1,1.538336675403E-1,
5.221207544229E-1));
#132=CARTESIAN_POINT('',(2.854123403581E-1,1.538283737871E-1,
5.222107568257E-1));
#134=CURVE_STYLE('',#21,POSITIVE_LENGTH_MEASURE(2.E-2),#5);
#135=PRESENTATION_STYLE_ASSIGNMENT((#134));
#136=STYLED_ITEM('',(#135),#133);
#137=DIRECTION('',(-9.999999874542E-1,-1.615923243583E-5,1.575770025806E-4));
#138=VECTOR('',#137,7.888677703985E-3);
#139=CARTESIAN_POINT('',(2.951298292298E-1,1.539958691127E-1,
5.192854266500E-1));
#140=LINE('',#139,#138);
#141=CURVE_STYLE('',#21,POSITIVE_LENGTH_MEASURE(2.E-2),#5);
#142=PRESENTATION_STYLE_ASSIGNMENT((#141));
#143=STYLED_ITEM('',(#142),#140);
#144=CARTESIAN_POINT('',(2.684653634446E-1,1.523100398258E-1,
5.328004033067E-1));
#145=CARTESIAN_POINT('',(2.671830358814E-1,1.520975341296E-1,5.336016905E-1));
#146=CARTESIAN_POINT('',(2.651086078320E-1,1.515795484239E-1,
5.355548396146E-1));
#147=CARTESIAN_POINT('',(2.638111029303E-1,1.509142148877E-1,
5.380635876219E-1));
#148=CARTESIAN_POINT('',(2.633934679799E-1,1.505377153900E-1,
5.394832400416E-1));
#150=CURVE_STYLE('',#21,POSITIVE_LENGTH_MEASURE(2.E-2),#5);
#151=PRESENTATION_STYLE_ASSIGNMENT((#150));
#152=STYLED_ITEM('',(#151),#149);
#153=DIRECTION('',(-8.397953416396E-1,-1.391698181167E-1,5.247623708745E-1));
#154=VECTOR('',#153,7.450246924445E-3);
#155=CARTESIAN_POINT('',(2.747220461058E-1,1.533468893352E-1,
5.288907940670E-1));
#156=LINE('',#155,#154);
#157=CURVE_STYLE('',#21,POSITIVE_LENGTH_MEASURE(2.E-2),#5);
#158=PRESENTATION_STYLE_ASSIGNMENT((#157));
#159=STYLED_ITEM('',(#158),#156);
#160=DIRECTION('',(1.E0,0.E0,-4.228620340534E-14));
#161=VECTOR('',#160,7.876491161784E-3);
#162=CARTESIAN_POINT('',(2.629145854386E-1,1.497193800428E-1,
5.426455798401E-1));
#163=LINE('',#162,#161);
#164=CURVE_STYLE('',#21,POSITIVE_LENGTH_MEASURE(2.E-2),#5);
#165=PRESENTATION_STYLE_ASSIGNMENT((#164));
#166=STYLED_ITEM('',(#165),#163);
#167=CARTESIAN_POINT('',(2.633934679799E-1,1.505377153900E-1,
5.394832400416E-1));
#168=CARTESIAN_POINT('',(2.633496745464E-1,1.504814405243E-1,
5.396321055851E-1));
#169=CARTESIAN_POINT('',(2.632612538830E-1,1.503764741058E-1,
5.399545999014E-1));
#170=CARTESIAN_POINT('',(2.631372890310E-1,1.502244070772E-1,
5.405017309760E-1));
#171=CARTESIAN_POINT('',(2.630282068337E-1,1.500673409469E-1,
5.411281818176E-1));
#172=CARTESIAN_POINT('',(2.629461757018E-1,1.499016408868E-1,
5.418350037840E-1));
#173=CARTESIAN_POINT('',(2.629186291461E-1,1.497819366150E-1,
5.423661898326E-1));
#174=CARTESIAN_POINT('',(2.629145854386E-1,1.497193800428E-1,
5.426455798401E-1));
#176=CURVE_STYLE('',#21,POSITIVE_LENGTH_MEASURE(2.E-2),#5);
#177=PRESENTATION_STYLE_ASSIGNMENT((#176));
#178=STYLED_ITEM('',(#177),#175);
#179=DIRECTION('',(-9.999999547002E-1,-9.262404249581E-5,2.863921638620E-4));
#180=VECTOR('',#179,9.240259438971E-3);
#181=CARTESIAN_POINT('',(2.726337270003E-1,1.505385712602E-1,
5.394805937037E-1));
#182=LINE('',#181,#180);
#183=CURVE_STYLE('',#21,POSITIVE_LENGTH_MEASURE(2.E-2),#5);
#184=PRESENTATION_STYLE_ASSIGNMENT((#183));
#185=STYLED_ITEM('',(#184),#182);
#186=DIRECTION('',(1.E0,-7.576568593667E-14,4.683696948812E-13));
#187=VECTOR('',#186,8.059356369508E-3);
#188=CARTESIAN_POINT('',(2.630017507697E-1,1.494470699958E-1,
5.442588556778E-1));
#189=LINE('',#188,#187);
#190=CURVE_STYLE('',#21,POSITIVE_LENGTH_MEASURE(2.E-2),#5);
#191=PRESENTATION_STYLE_ASSIGNMENT((#190));
#192=STYLED_ITEM('',(#191),#189);
#193=DIRECTION('',(1.E0,0.E0,-1.307313697516E-14));
#194=VECTOR('',#193,8.492399542167E-3);
#195=CARTESIAN_POINT('',(2.868671934750E-1,1.403309654069E-1,
6.044001306981E-1));
#196=LINE('',#195,#194);
#197=CURVE_STYLE('',#21,POSITIVE_LENGTH_MEASURE(2.E-2),#5);
#198=PRESENTATION_STYLE_ASSIGNMENT((#197));
#199=STYLED_ITEM('',(#198),#196);
#200=DIRECTION('',(3.709609477997E-1,-1.391731009600E-1,9.181605650303E-1));
#201=VECTOR('',#200,6.225407383496E-2);
#202=CARTESIAN_POINT('',(2.637733632408E-1,1.489950579099E-1,
5.472408950903E-1));
#203=LINE('',#202,#201);
#204=CURVE_STYLE('',#21,POSITIVE_LENGTH_MEASURE(2.E-2),#5);
#205=PRESENTATION_STYLE_ASSIGNMENT((#204));
#206=STYLED_ITEM('',(#205),#203);
#207=CARTESIAN_POINT('',(2.630017507698E-1,1.494470699958E-1,
5.442588556778E-1));
#208=CARTESIAN_POINT('',(2.631281300713E-1,1.492913814988E-1,
5.452859725374E-1));
#209=CARTESIAN_POINT('',(2.633851495199E-1,1.491407037189E-1,
5.462800324132E-1));
#210=CARTESIAN_POINT('',(2.637733632408E-1,1.489950579099E-1,
5.472408950903E-1));
#212=CURVE_STYLE('',#21,POSITIVE_LENGTH_MEASURE(2.E-2),#5);
#213=PRESENTATION_STYLE_ASSIGNMENT((#212));
#214=STYLED_ITEM('',(#213),#211);
#215=DIRECTION('',(3.746065934158E-1,0.E0,9.271838545668E-1));
#216=VECTOR('',#215,3.181308864848E-3);
#217=CARTESIAN_POINT('',(2.868671934750E-1,1.403309654069E-1,
6.044001306981E-1));
#218=LINE('',#217,#216);
#219=CURVE_STYLE('',#21,POSITIVE_LENGTH_MEASURE(2.E-2),#5);
#220=PRESENTATION_STYLE_ASSIGNMENT((#219));
#221=STYLED_ITEM('',(#220),#218);
#222=DIRECTION('',(-3.746065934159E-1,0.E0,-9.271838545668E-1));
#223=VECTOR('',#222,3.181308864850E-3);
#224=CARTESIAN_POINT('',(2.965513322937E-1,1.403309654069E-1,
6.073497889140E-1));
#225=LINE('',#224,#223);
#226=CURVE_STYLE('',#21,POSITIVE_LENGTH_MEASURE(2.E-2),#5);
#227=PRESENTATION_STYLE_ASSIGNMENT((#226));
#228=STYLED_ITEM('',(#227),#225);
#229=DIRECTION('',(-1.E0,0.E0,-1.568776437019E-13));
#230=VECTOR('',#229,8.492399542168E-3);
#231=CARTESIAN_POINT('',(2.965513322937E-1,1.403309654069E-1,
6.073497889140E-1));
#232=LINE('',#231,#230);
#233=CURVE_STYLE('',#21,POSITIVE_LENGTH_MEASURE(2.E-2),#5);
#234=PRESENTATION_STYLE_ASSIGNMENT((#233));
#235=STYLED_ITEM('',(#234),#232);
#236=CARTESIAN_POINT('',(2.965513322937E-1,1.403309654069E-1,
6.073497889140E-1));
#237=CARTESIAN_POINT('',(2.973609118598E-1,1.400272361347E-1,
6.093535686548E-1));
#238=CARTESIAN_POINT('',(2.988013517573E-1,1.386122609938E-1,
6.129187825084E-1));
#239=CARTESIAN_POINT('',(2.999606677581E-1,1.359270688405E-1,
6.157881903009E-1));
#240=CARTESIAN_POINT('',(3.004509661412E-1,1.341807144656E-1,
6.170017213831E-1));
#242=CURVE_STYLE('',#21,POSITIVE_LENGTH_MEASURE(2.E-2),#5);
#243=PRESENTATION_STYLE_ASSIGNMENT((#242));
#244=STYLED_ITEM('',(#243),#241);
#245=CARTESIAN_POINT('',(3.004509661423E-1,1.341807144662E-1,
6.170017213826E-1));
#246=CARTESIAN_POINT('',(2.985339142727E-1,1.330660994428E-1,
6.177762606142E-1));
#247=CARTESIAN_POINT('',(2.960132080167E-1,1.311656931503E-1,
6.187946920493E-1));
#248=CARTESIAN_POINT('',(2.937872041285E-1,1.279010893243E-1,
6.196940559989E-1));
#249=CARTESIAN_POINT('',(2.932304521487E-1,1.259106463249E-1,
6.199189984001E-1));
#250=CARTESIAN_POINT('',(2.932304521487E-1,1.247361926708E-1,
6.199189984001E-1));
#252=CURVE_STYLE('',#21,POSITIVE_LENGTH_MEASURE(2.E-2),#5);
#253=PRESENTATION_STYLE_ASSIGNMENT((#252));
#254=STYLED_ITEM('',(#253),#251);
#255=DIRECTION('',(1.E0,-1.679104501645E-10,0.E0));
#256=VECTOR('',#255,9.322912678678E-5);
#257=CARTESIAN_POINT('',(2.931372230219E-1,1.247361926708E-1,
6.199189984001E-1));
#258=LINE('',#257,#256);
#259=CURVE_STYLE('',#21,POSITIVE_LENGTH_MEASURE(2.E-2),#5);
#260=PRESENTATION_STYLE_ASSIGNMENT((#259));
#261=STYLED_ITEM('',(#260),#258);
#262=CARTESIAN_POINT('',(2.880589327515E-1,1.403309654069E-1,
6.073497889140E-1));
#263=CARTESIAN_POINT('',(2.884821236074E-1,1.401721972560E-1,
6.083972230378E-1));
#264=CARTESIAN_POINT('',(2.892390898947E-1,1.396471695648E-1,
6.102707803439E-1));
#265=CARTESIAN_POINT('',(2.905167974820E-1,1.380489464453E-1,
6.134332175958E-1));
#266=CARTESIAN_POINT('',(2.917671122822E-1,1.352463612319E-1,
6.165278553204E-1));
#267=CARTESIAN_POINT('',(2.926327517613E-1,1.315511244720E-1,
6.186703882150E-1));
#268=CARTESIAN_POINT('',(2.930478075975E-1,1.279510900128E-1,
6.196976874585E-1));
#269=CARTESIAN_POINT('',(2.931372230219E-1,1.258769889147E-1,
6.199189984001E-1));
#270=CARTESIAN_POINT('',(2.931372230219E-1,1.247361926708E-1,
6.199189984001E-1));
#272=CURVE_STYLE('',#21,POSITIVE_LENGTH_MEASURE(2.E-2),#5);
#273=PRESENTATION_STYLE_ASSIGNMENT((#272));
#274=STYLED_ITEM('',(#273),#271);
#275=DIRECTION('',(3.709609477998E-1,-1.391731009600E-1,9.181605650302E-1));
#276=VECTOR('',#275,6.546664724091E-2);
#277=CARTESIAN_POINT('',(2.710740235074E-1,1.494421617128E-1,
5.442912368767E-1));
#278=LINE('',#277,#276);
#279=CURVE_STYLE('',#21,POSITIVE_LENGTH_MEASURE(2.E-2),#5);
#280=PRESENTATION_STYLE_ASSIGNMENT((#279));
#281=STYLED_ITEM('',(#280),#278);
#282=DIRECTION('',(-3.709609477998E-1,-1.391731009601E-1,-9.181605650302E-1));
#283=VECTOR('',#282,6.546664724092E-2);
#284=CARTESIAN_POINT('',(2.953595930172E-1,9.556017140508E-2,
6.044001306981E-1));
#285=LINE('',#284,#283);
#286=CURVE_STYLE('',#21,POSITIVE_LENGTH_MEASURE(2.E-2),#5);
#287=PRESENTATION_STYLE_ASSIGNMENT((#286));
#288=STYLED_ITEM('',(#287),#285);
#289=DIRECTION('',(1.E0,0.E0,0.E0));
#290=VECTOR('',#289,8.492399542167E-3);
#291=CARTESIAN_POINT('',(2.868671934750E-1,9.556017140508E-2,
6.044001306981E-1));
#292=LINE('',#291,#290);
#293=CURVE_STYLE('',#21,POSITIVE_LENGTH_MEASURE(2.E-2),#5);
#294=PRESENTATION_STYLE_ASSIGNMENT((#293));
#295=STYLED_ITEM('',(#294),#292);
#296=DIRECTION('',(-3.746065934157E-1,0.E0,-9.271838545669E-1));
#297=VECTOR('',#296,3.181308864846E-3);
#298=CARTESIAN_POINT('',(2.880589327515E-1,9.556017140508E-2,
6.073497889140E-1));
#299=LINE('',#298,#297);
#300=CURVE_STYLE('',#21,POSITIVE_LENGTH_MEASURE(2.E-2),#5);
#301=PRESENTATION_STYLE_ASSIGNMENT((#300));
#302=STYLED_ITEM('',(#301),#299);
#303=DIRECTION('',(3.746065934159E-1,0.E0,9.271838545668E-1));
#304=VECTOR('',#303,3.181308864846E-3);
#305=CARTESIAN_POINT('',(2.953595930172E-1,9.556017140508E-2,
6.044001306981E-1));
#306=LINE('',#305,#304);
#307=CURVE_STYLE('',#21,POSITIVE_LENGTH_MEASURE(2.E-2),#5);
#308=PRESENTATION_STYLE_ASSIGNMENT((#307));
#309=STYLED_ITEM('',(#308),#306);
#310=CARTESIAN_POINT('',(2.637733632408E-1,8.689607890207E-2,
5.472408950903E-1));
#311=CARTESIAN_POINT('',(2.633851495199E-1,8.675043309298E-2,
5.462800324132E-1));
#312=CARTESIAN_POINT('',(2.631281300713E-1,8.659975531315E-2,
5.452859725374E-1));
#313=CARTESIAN_POINT('',(2.630017507698E-1,8.644406681614E-2,
5.442588556778E-1));
#315=CURVE_STYLE('',#21,POSITIVE_LENGTH_MEASURE(2.E-2),#5);
#316=PRESENTATION_STYLE_ASSIGNMENT((#315));
#317=STYLED_ITEM('',(#316),#314);
#318=DIRECTION('',(-3.709609477997E-1,-1.391731009601E-1,-9.181605650303E-1));
#319=VECTOR('',#318,6.225407383497E-2);
#320=CARTESIAN_POINT('',(2.868671934750E-1,9.556017140508E-2,
6.044001306981E-1));
#321=LINE('',#320,#319);
#322=CURVE_STYLE('',#21,POSITIVE_LENGTH_MEASURE(2.E-2),#5);
#323=PRESENTATION_STYLE_ASSIGNMENT((#322));
#324=STYLED_ITEM('',(#323),#321);
#325=CARTESIAN_POINT('',(2.710611071391E-1,8.644406681611E-2,
5.442588556777E-1));
#326=CARTESIAN_POINT('',(2.710107140712E-1,8.642078230217E-2,
5.441308770246E-1));
#327=CARTESIAN_POINT('',(2.709233734865E-1,8.637428084072E-2,
5.438697261474E-1));
#328=CARTESIAN_POINT('',(2.708340360366E-1,8.630457387383E-2,
5.434661404531E-1));
#329=CARTESIAN_POINT('',(2.707875519899E-1,8.623518841031E-2,
5.430569165535E-1));
#330=CARTESIAN_POINT('',(2.707851387338E-1,8.618908552176E-2,
5.427830500206E-1));
#331=CARTESIAN_POINT('',(2.707910314448E-1,8.616607610725E-2,
5.426466220787E-1));
#333=CURVE_STYLE('',#21,POSITIVE_LENGTH_MEASURE(2.E-2),#5);
#334=PRESENTATION_STYLE_ASSIGNMENT((#333));
#335=STYLED_ITEM('',(#334),#332);
#336=CARTESIAN_POINT('',(2.710740235074E-1,8.644897509911E-2,
5.442912368767E-1));
#337=CARTESIAN_POINT('',(2.710696701091E-1,8.644734183838E-2,
5.442804618377E-1));
#338=CARTESIAN_POINT('',(2.710653646563E-1,8.644570574386E-2,
5.442696681035E-1));
#339=CARTESIAN_POINT('',(2.710611071393E-1,8.644406681614E-2,
5.442588556778E-1));
#341=CURVE_STYLE('',#21,POSITIVE_LENGTH_MEASURE(2.E-2),#5);
#342=PRESENTATION_STYLE_ASSIGNMENT((#341));
#343=STYLED_ITEM('',(#342),#340);
#344=DIRECTION('',(0.E0,-1.E0,0.E0));
#345=VECTOR('',#344,6.299318661372E-2);
#346=CARTESIAN_POINT('',(2.710740235074E-1,1.494421617128E-1,
5.442912368767E-1));
#347=LINE('',#346,#345);
#348=CURVE_STYLE('',#21,POSITIVE_LENGTH_MEASURE(2.E-2),#5);
#349=PRESENTATION_STYLE_ASSIGNMENT((#348));
#350=STYLED_ITEM('',(#349),#347);
#351=CARTESIAN_POINT('',(2.710611071393E-1,1.494470699958E-1,
5.442588556778E-1));
#352=CARTESIAN_POINT('',(2.710653646563E-1,1.494454310681E-1,
5.442696681035E-1));
#353=CARTESIAN_POINT('',(2.710696701091E-1,1.494437949736E-1,
5.442804618377E-1));
#354=CARTESIAN_POINT('',(2.710740235074E-1,1.494421617128E-1,
5.442912368767E-1));
#356=CURVE_STYLE('',#21,POSITIVE_LENGTH_MEASURE(2.E-2),#5);
#357=PRESENTATION_STYLE_ASSIGNMENT((#356));
#358=STYLED_ITEM('',(#357),#355);
#359=CARTESIAN_POINT('',(2.707910766004E-1,1.497193800428E-1,
5.426455798401E-1));
#360=CARTESIAN_POINT('',(2.707851342518E-1,1.496968146468E-1,
5.427823165186E-1));
#361=CARTESIAN_POINT('',(2.707874951338E-1,1.496516209068E-1,
5.430566982534E-1));
#362=CARTESIAN_POINT('',(2.708341861432E-1,1.495835230081E-1,
5.434670945129E-1));
#363=CARTESIAN_POINT('',(2.709234793889E-1,1.495153894534E-1,
5.438700137930E-1));
#364=CARTESIAN_POINT('',(2.710107651026E-1,1.494698649910E-1,
5.441310066242E-1));
#365=CARTESIAN_POINT('',(2.710611071393E-1,1.494470699958E-1,
5.442588556778E-1));
#367=CURVE_STYLE('',#21,POSITIVE_LENGTH_MEASURE(2.E-2),#5);
#368=PRESENTATION_STYLE_ASSIGNMENT((#367));
#369=STYLED_ITEM('',(#368),#366);
#370=CARTESIAN_POINT('',(2.726337270003E-1,1.505385712602E-1,
5.394805937037E-1));
#371=CARTESIAN_POINT('',(2.724964551896E-1,1.505061454477E-1,
5.395663706511E-1));
#372=CARTESIAN_POINT('',(2.722387714039E-1,1.504421539626E-1,
5.397510416786E-1));
#373=CARTESIAN_POINT('',(2.718795238962E-1,1.503416755067E-1,
5.400803793368E-1));
#374=CARTESIAN_POINT('',(2.715638231117E-1,1.502389086859E-1,
5.404523399722E-1));
#375=CARTESIAN_POINT('',(2.712969273184E-1,1.501344079039E-1,
5.408590575601E-1));
#376=CARTESIAN_POINT('',(2.710822925382E-1,1.500281528136E-1,
5.412958126619E-1));
#377=CARTESIAN_POINT('',(2.709262306347E-1,1.499230333027E-1,
5.417451129283E-1));
#378=CARTESIAN_POINT('',(2.708269541976E-1,1.498193332299E-1,
5.422000093725E-1));
#379=CARTESIAN_POINT('',(2.707974746520E-1,1.497523438004E-1,
5.424983571877E-1));
#380=CARTESIAN_POINT('',(2.707910766004E-1,1.497193800428E-1,
5.426455798401E-1));
#382=CURVE_STYLE('',#21,POSITIVE_LENGTH_MEASURE(2.E-2),#5);
#383=PRESENTATION_STYLE_ASSIGNMENT((#382));
#384=STYLED_ITEM('',(#383),#381);
#385=DIRECTION('',(-6.505138406259E-5,9.999999970557E-1,4.070583500047E-5));
#386=VECTOR('',#385,6.501130882026E-2);
#387=CARTESIAN_POINT('',(2.726379560759E-1,8.552726263133E-2,
5.394779473641E-1));
#388=LINE('',#387,#386);
#389=CURVE_STYLE('',#21,POSITIVE_LENGTH_MEASURE(2.E-2),#5);
#390=PRESENTATION_STYLE_ASSIGNMENT((#389));
#391=STYLED_ITEM('',(#390),#388);
#392=CARTESIAN_POINT('',(2.707910314448E-1,8.616607610725E-2,
5.426466220787E-1));
#393=CARTESIAN_POINT('',(2.707976608251E-1,8.614018879571E-2,
5.424931387787E-1));
#394=CARTESIAN_POINT('',(2.708289404340E-1,8.608794286008E-2,
5.421845689183E-1));
#395=CARTESIAN_POINT('',(2.709327799894E-1,8.600788850790E-2,
5.417212640119E-1));
#396=CARTESIAN_POINT('',(2.710926407962E-1,8.592752811935E-2,
5.412718126420E-1));
#397=CARTESIAN_POINT('',(2.713059895020E-1,8.584716231728E-2,
5.408437484471E-1));
#398=CARTESIAN_POINT('',(2.715734714659E-1,8.576606177413E-2,
5.404396421920E-1));
#399=CARTESIAN_POINT('',(2.718868192265E-1,8.568581912951E-2,
5.400733288173E-1));
#400=CARTESIAN_POINT('',(2.722423516225E-1,8.560607448547E-2,
5.397479623662E-1));
#401=CARTESIAN_POINT('',(2.725028182760E-1,8.555347270448E-2,
5.395623908335E-1));
#402=CARTESIAN_POINT('',(2.726379560759E-1,8.552726263133E-2,
5.394779473641E-1));
#404=CURVE_STYLE('',#21,POSITIVE_LENGTH_MEASURE(2.E-2),#5);
#405=PRESENTATION_STYLE_ASSIGNMENT((#404));
#406=STYLED_ITEM('',(#405),#403);
#407=DIRECTION('',(1.E0,1.185603961314E-11,7.029403424074E-11));
#408=VECTOR('',#407,7.876461044822E-3);
#409=CARTESIAN_POINT('',(2.629145703999E-1,8.616607610716E-2,
5.426466220782E-1));
#410=LINE('',#409,#408);
#411=CURVE_STYLE('',#21,POSITIVE_LENGTH_MEASURE(2.E-2),#5);
#412=PRESENTATION_STYLE_ASSIGNMENT((#411));
#413=STYLED_ITEM('',(#412),#410);
#414=CARTESIAN_POINT('',(2.630017507698E-1,8.644406681613E-2,
5.442588556778E-1));
#415=CARTESIAN_POINT('',(2.629800055326E-1,8.641191261697E-2,
5.440821265819E-1));
#416=CARTESIAN_POINT('',(2.629443444534E-1,8.634912156650E-2,
5.437265577489E-1));
#417=CARTESIAN_POINT('',(2.629149945946E-1,8.625687902558E-2,
5.431859101068E-1));
#418=CARTESIAN_POINT('',(2.629119849681E-1,8.619638871711E-2,
5.428263522920E-1));
#419=CARTESIAN_POINT('',(2.629145703999E-1,8.616607610716E-2,
5.426466220782E-1));
#421=CURVE_STYLE('',#21,POSITIVE_LENGTH_MEASURE(2.E-2),#5);
#422=PRESENTATION_STYLE_ASSIGNMENT((#421));
#423=STYLED_ITEM('',(#422),#420);
#424=DIRECTION('',(-1.E0,2.161043996647E-12,1.425772453564E-11));
#425=VECTOR('',#424,8.059356369344E-3);
#426=CARTESIAN_POINT('',(2.710611071391E-1,8.644406681611E-2,
5.442588556777E-1));
#427=LINE('',#426,#425);
#428=CURVE_STYLE('',#21,POSITIVE_LENGTH_MEASURE(2.E-2),#5);
#429=PRESENTATION_STYLE_ASSIGNMENT((#428));
#430=STYLED_ITEM('',(#429),#427);
#431=CARTESIAN_POINT('',(2.726379560759E-1,8.552726263133E-2,
5.394779473641E-1));
#432=CARTESIAN_POINT('',(2.726554017655E-1,8.552387902733E-2,
5.394670460874E-1));
#433=CARTESIAN_POINT('',(2.726728418346E-1,8.552045485223E-2,
5.394561483227E-1));
#434=CARTESIAN_POINT('',(2.726902755348E-1,8.551698638816E-2,
5.394452545378E-1));
#436=CURVE_STYLE('',#21,POSITIVE_LENGTH_MEASURE(2.E-2),#5);
#437=PRESENTATION_STYLE_ASSIGNMENT((#436));
#438=STYLED_ITEM('',(#437),#435);
#439=DIRECTION('',(1.E0,3.839512396539E-12,1.498142166715E-11));
#440=VECTOR('',#439,9.285563685225E-3);
#441=CARTESIAN_POINT('',(2.634047118496E-1,8.551698638812E-2,
5.394452545376E-1));
#442=LINE('',#441,#440);
#443=CURVE_STYLE('',#21,POSITIVE_LENGTH_MEASURE(2.E-2),#5);
#444=PRESENTATION_STYLE_ASSIGNMENT((#443));
#445=STYLED_ITEM('',(#444),#442);
#446=CARTESIAN_POINT('',(2.629145703999E-1,8.616607610716E-2,
5.426466220782E-1));
#447=CARTESIAN_POINT('',(2.629186759390E-1,8.611793855532E-2,
5.423612193125E-1));
#448=CARTESIAN_POINT('',(2.629471816919E-1,8.602590257080E-2,
5.418201986257E-1));
#449=CARTESIAN_POINT('',(2.630313634150E-1,8.589794769557E-2,
5.411058525466E-1));
#450=CARTESIAN_POINT('',(2.631422728309E-1,8.577521498293E-2,
5.404767545571E-1));
#451=CARTESIAN_POINT('',(2.632681614125E-1,8.565342720363E-2,
5.399266888786E-1));
#452=CARTESIAN_POINT('',(2.633592140793E-1,8.556562501901E-2,
5.395980192115E-1));
#453=CARTESIAN_POINT('',(2.634047118496E-1,8.551698638812E-2,
5.394452545376E-1));
#455=CURVE_STYLE('',#21,POSITIVE_LENGTH_MEASURE(2.E-2),#5);
#456=PRESENTATION_STYLE_ASSIGNMENT((#455));
#457=STYLED_ITEM('',(#456),#454);
#458=DIRECTION('',(8.397949505365E-1,-1.391731009518E-1,-5.247621261342E-1));
#459=VECTOR('',#458,2.011759827905E-2);
#460=CARTESIAN_POINT('',(2.726902755348E-1,8.551698638816E-2,
5.394452545378E-1));
#461=LINE('',#460,#459);
#462=CURVE_STYLE('',#21,POSITIVE_LENGTH_MEASURE(2.E-2),#5);
#463=PRESENTATION_STYLE_ASSIGNMENT((#462));
#464=STYLED_ITEM('',(#463),#461);
#465=DIRECTION('',(-8.397971203594E-1,-1.391573891143E-1,5.247628204160E-1));
#466=VECTOR('',#465,2.018253925780E-2);
#467=CARTESIAN_POINT('',(2.895829653505E-1,1.533471207290E-1,
5.288895474796E-1));
#468=LINE('',#467,#466);
#469=CURVE_STYLE('',#21,POSITIVE_LENGTH_MEASURE(2.E-2),#5);
#470=PRESENTATION_STYLE_ASSIGNMENT((#469));
#471=STYLED_ITEM('',(#470),#468);
#472=DIRECTION('',(8.397949503708E-1,-1.391731010175E-1,-5.247621263820E-1));
#473=VECTOR('',#472,7.517301733986E-3);
#474=CARTESIAN_POINT('',(2.684653634446E-1,8.375469352224E-2,
5.328004033067E-1));
#475=LINE('',#474,#473);
#476=CURVE_STYLE('',#21,POSITIVE_LENGTH_MEASURE(2.E-2),#5);
#477=PRESENTATION_STYLE_ASSIGNMENT((#476));
#478=STYLED_ITEM('',(#477),#475);
#479=CARTESIAN_POINT('',(2.634047118495E-1,8.551698638816E-2,
5.394452545378E-1));
#480=CARTESIAN_POINT('',(2.638249861944E-1,8.514273921841E-2,
5.380341288306E-1));
#481=CARTESIAN_POINT('',(2.651225079646E-1,8.448120998796E-2,
5.355397855768E-1));
#482=CARTESIAN_POINT('',(2.671895473456E-1,8.396612523273E-2,
5.335976216856E-1));
#483=CARTESIAN_POINT('',(2.684653634446E-1,8.375469352224E-2,
5.328004033067E-1));
#485=CURVE_STYLE('',#21,POSITIVE_LENGTH_MEASURE(2.E-2),#5);
#486=PRESENTATION_STYLE_ASSIGNMENT((#485));
#487=STYLED_ITEM('',(#486),#484);
#488=CARTESIAN_POINT('',(2.896369509021E-1,8.270848732863E-2,
5.288556080641E-1));
#489=CARTESIAN_POINT('',(2.899630221312E-1,8.268662135203E-2,
5.286494899944E-1));
#490=CARTESIAN_POINT('',(2.905959023203E-1,8.264303791097E-2,
5.282046587448E-1));
#491=CARTESIAN_POINT('',(2.914772631883E-1,8.257770674394E-2,
5.274457854422E-1));
#492=CARTESIAN_POINT('',(2.922830024034E-1,8.251221983367E-2,
5.266004689089E-1));
#493=CARTESIAN_POINT('',(2.930051953538E-1,8.244630886128E-2,
5.256747131928E-1));
#494=CARTESIAN_POINT('',(2.936357761226E-1,8.237977209093E-2,
5.246750399275E-1));
#495=CARTESIAN_POINT('',(2.941620094732E-1,8.231329449141E-2,
5.236197739649E-1));
#496=CARTESIAN_POINT('',(2.945761978853E-1,8.224751501718E-2,
5.225297251647E-1));
#497=CARTESIAN_POINT('',(2.948755944825E-1,8.218309858239E-2,
5.214276672942E-1));
#498=CARTESIAN_POINT('',(2.950628173329E-1,8.212062859039E-2,
5.203351770009E-1));
#499=CARTESIAN_POINT('',(2.951177932055E-1,8.208083161223E-2,
5.196300951649E-1));
#500=CARTESIAN_POINT('',(2.951298727044E-1,8.206137019323E-2,
5.192841835758E-1));
#502=CURVE_STYLE('',#21,POSITIVE_LENGTH_MEASURE(2.E-2),#5);
#503=PRESENTATION_STYLE_ASSIGNMENT((#502));
#504=STYLED_ITEM('',(#503),#501);
#505=CARTESIAN_POINT('',(2.895849329865E-1,8.271715785195E-2,
5.288883008921E-1));
#506=CARTESIAN_POINT('',(2.896023020390E-1,8.271427940539E-2,
5.288774475036E-1));
#507=CARTESIAN_POINT('',(2.896196413393E-1,8.271138922905E-2,
5.288665498871E-1));
#508=CARTESIAN_POINT('',(2.896369509021E-1,8.270848732863E-2,
5.288556080641E-1));
#510=CURVE_STYLE('',#21,POSITIVE_LENGTH_MEASURE(2.E-2),#5);
#511=PRESENTATION_STYLE_ASSIGNMENT((#510));
#512=STYLED_ITEM('',(#511),#509);
#513=DIRECTION('',(2.785837421019E-5,-9.999999994562E-1,-1.764955598954E-5));
#514=VECTOR('',#513,7.062996291544E-2);
#515=CARTESIAN_POINT('',(2.895829653505E-1,1.533471207290E-1,
5.288895474796E-1));
#516=LINE('',#515,#514);
#517=CURVE_STYLE('',#21,POSITIVE_LENGTH_MEASURE(2.E-2),#5);
#518=PRESENTATION_STYLE_ASSIGNMENT((#517));
#519=STYLED_ITEM('',(#518),#516);
#520=CARTESIAN_POINT('',(2.951298292298E-1,1.539958691127E-1,
5.192854266500E-1));
#521=CARTESIAN_POINT('',(2.951168836455E-1,1.539750203090E-1,
5.196561396834E-1));
#522=CARTESIAN_POINT('',(2.950559274578E-1,1.539330013978E-1,
5.203994776457E-1));
#523=CARTESIAN_POINT('',(2.948556305734E-1,1.538689905725E-1,
5.215188022600E-1));
#524=CARTESIAN_POINT('',(2.945441975217E-1,1.538041112824E-1,
5.226268401607E-1));
#525=CARTESIAN_POINT('',(2.941221048244E-1,1.537386606433E-1,
5.237091618069E-1));
#526=CARTESIAN_POINT('',(2.935919511125E-1,1.536729003809E-1,
5.247515292375E-1));
#527=CARTESIAN_POINT('',(2.929590422044E-1,1.536070535997E-1,
5.257396261890E-1));
#528=CARTESIAN_POINT('',(2.922315227546E-1,1.535413239344E-1,
5.266598154108E-1));
#529=CARTESIAN_POINT('',(2.914193164452E-1,1.534759511447E-1,
5.275004341057E-1));
#530=CARTESIAN_POINT('',(2.905361600832E-1,1.534110374476E-1,
5.282506968257E-1));
#531=CARTESIAN_POINT('',(2.899050936926E-1,1.533684721185E-1,
5.286882593513E-1));
#532=CARTESIAN_POINT('',(2.895829653505E-1,1.533471207290E-1,
5.288895474796E-1));
#534=CURVE_STYLE('',#21,POSITIVE_LENGTH_MEASURE(2.E-2),#5);
#535=PRESENTATION_STYLE_ASSIGNMENT((#534));
#536=STYLED_ITEM('',(#535),#533);
#537=DIRECTION('',(-6.043626410869E-7,9.999999998505E-1,1.728064010645E-5));
#538=VECTOR('',#537,7.193449893025E-2);
#539=CARTESIAN_POINT('',(2.951298727044E-1,8.206137019323E-2,
5.192841835758E-1));
#540=LINE('',#539,#538);
#541=CURVE_STYLE('',#21,POSITIVE_LENGTH_MEASURE(2.E-2),#5);
#542=PRESENTATION_STYLE_ASSIGNMENT((#541));
#543=STYLED_ITEM('',(#542),#540);
#544=DIRECTION('',(1.E0,0.E0,-2.815575234552E-14));
#545=VECTOR('',#544,7.886296277938E-3);
#546=CARTESIAN_POINT('',(2.872447180789E-1,8.205953102893E-2,
5.192514907477E-1));
#547=LINE('',#546,#545);
#548=CURVE_STYLE('',#21,POSITIVE_LENGTH_MEASURE(2.E-2),#5);
#549=PRESENTATION_STYLE_ASSIGNMENT((#548));
#550=STYLED_ITEM('',(#549),#547);
#551=CARTESIAN_POINT('',(2.854123403544E-1,8.222900113555E-2,
5.222107568281E-1));
#552=CARTESIAN_POINT('',(2.855575978156E-1,8.222365651589E-2,
5.221199898925E-1));
#553=CARTESIAN_POINT('',(2.858365198276E-1,8.221188494925E-2,
5.219194271995E-1));
#554=CARTESIAN_POINT('',(2.862143707433E-1,8.219118226168E-2,
5.215638749472E-1));
#555=CARTESIAN_POINT('',(2.865395105584E-1,8.216819613247E-2,
5.211659165321E-1));
#556=CARTESIAN_POINT('',(2.868125022797E-1,8.214293321218E-2,
5.207251583404E-1));
#557=CARTESIAN_POINT('',(2.870246016465E-1,8.211609831546E-2,
5.202536821798E-1));
#558=CARTESIAN_POINT('',(2.871728588221E-1,8.208821505853E-2,
5.197609216929E-1));
#559=CARTESIAN_POINT('',(2.872282069470E-1,8.206912116028E-2,
5.194219801525E-1));
#560=CARTESIAN_POINT('',(2.872447180789E-1,8.205953102893E-2,
5.192514907477E-1));
#562=CURVE_STYLE('',#21,POSITIVE_LENGTH_MEASURE(2.E-2),#5);
#563=PRESENTATION_STYLE_ASSIGNMENT((#562));
#564=STYLED_ITEM('',(#563),#561);
#565=CARTESIAN_POINT('',(2.747783554812E-1,8.270848732863E-2,
5.288556080641E-1));
#566=CARTESIAN_POINT('',(2.751106234411E-1,8.268646158899E-2,
5.286479839994E-1));
#567=CARTESIAN_POINT('',(2.758249509563E-1,8.264277626151E-2,
5.282016226279E-1));
#568=CARTESIAN_POINT('',(2.770480691873E-1,8.257709090049E-2,
5.274373335315E-1));
#569=CARTESIAN_POINT('',(2.784158631481E-1,8.251092079624E-2,
5.265826410057E-1));
#570=CARTESIAN_POINT('',(2.799307814108E-1,8.244359482156E-2,
5.256360150127E-1));
#571=CARTESIAN_POINT('',(2.816011261826E-1,8.237436879328E-2,
5.245922677577E-1));
#572=CARTESIAN_POINT('',(2.834194624621E-1,8.230317106485E-2,
5.234560451451E-1));
#573=CARTESIAN_POINT('',(2.847314802698E-1,8.225405277948E-2,
5.226362054279E-1));
#574=CARTESIAN_POINT('',(2.854123403544E-1,8.222900113555E-2,
5.222107568281E-1));
#576=CURVE_STYLE('',#21,POSITIVE_LENGTH_MEASURE(2.E-2),#5);
#577=PRESENTATION_STYLE_ASSIGNMENT((#576));
#578=STYLED_ITEM('',(#577),#575);
#579=DIRECTION('',(-1.E0,0.E0,0.E0));
#580=VECTOR('',#579,1.485859542089E-2);
#581=CARTESIAN_POINT('',(2.896369509021E-1,8.270848732863E-2,
5.288556080641E-1));
#582=LINE('',#581,#580);
#583=CURVE_STYLE('',#21,POSITIVE_LENGTH_MEASURE(2.E-2),#5);
#584=PRESENTATION_STYLE_ASSIGNMENT((#583));
#585=STYLED_ITEM('',(#584),#582);
#586=DIRECTION('',(3.455978185543E-2,-1.391500022985E-1,-9.896680748304E-1));
#587=VECTOR('',#586,2.621509481809E-2);
#588=CARTESIAN_POINT('',(2.951310143568E-1,8.205953102893E-2,
5.192514907477E-1));
#589=LINE('',#588,#587);
#590=CURVE_STYLE('',#21,POSITIVE_LENGTH_MEASURE(2.E-2),#5);
#591=PRESENTATION_STYLE_ASSIGNMENT((#590));
#592=STYLED_ITEM('',(#591),#589);
#593=CARTESIAN_POINT('',(2.951298727044E-1,8.206137019323E-2,
5.192841835758E-1));
#594=CARTESIAN_POINT('',(2.951302532551E-1,8.206075708027E-2,
5.192732859697E-1));
#595=CARTESIAN_POINT('',(2.951306338059E-1,8.206014402618E-2,
5.192623883603E-1));
#596=CARTESIAN_POINT('',(2.951310143568E-1,8.205953102893E-2,
5.192514907477E-1));
#598=CURVE_STYLE('',#21,POSITIVE_LENGTH_MEASURE(2.E-2),#5);
#599=PRESENTATION_STYLE_ASSIGNMENT((#598));
#600=STYLED_ITEM('',(#599),#597);
#601=DIRECTION('',(-3.451977299703E-2,-1.470784186962E-1,9.885222931356E-1));
#602=VECTOR('',#601,2.624681833645E-2);
#603=CARTESIAN_POINT('',(2.960358634407E-1,1.578562096495E-1,
4.933398616006E-1));
#604=LINE('',#603,#602);
#605=CURVE_STYLE('',#21,POSITIVE_LENGTH_MEASURE(2.E-2),#5);
#606=PRESENTATION_STYLE_ASSIGNMENT((#605));
#607=STYLED_ITEM('',(#606),#604);
#608=DIRECTION('',(-3.443412518524E-2,-1.627292243123E-1,9.860697189233E-1));
#609=VECTOR('',#608,3.307400312818E-5);
#610=CARTESIAN_POINT('',(2.960370023151E-1,1.578615917563E-1,
4.933072483276E-1));
#611=LINE('',#610,#609);
#612=CURVE_STYLE('',#21,POSITIVE_LENGTH_MEASURE(2.E-2),#5);
#613=PRESENTATION_STYLE_ASSIGNMENT((#612));
#614=STYLED_ITEM('',(#613),#611);
#615=DIRECTION('',(1.E0,0.E0,0.E0));
#616=VECTOR('',#615,3.963072895797E-3);
#617=CARTESIAN_POINT('',(2.881629065810E-1,7.840710531955E-2,
4.932745661300E-1));
#618=LINE('',#617,#616);
#619=CURVE_STYLE('',#21,POSITIVE_LENGTH_MEASURE(2.E-2),#5);
#620=PRESENTATION_STYLE_ASSIGNMENT((#619));
#621=STYLED_ITEM('',(#620),#618);
#622=DIRECTION('',(3.469722275780E-2,-1.391493392383E-1,-9.896633589875E-1));
#623=VECTOR('',#622,2.600360822228E-2);
#624=CARTESIAN_POINT('',(2.872606535940E-1,8.202549022149E-2,
5.190093843891E-1));
#625=LINE('',#624,#623);
#626=CURVE_STYLE('',#21,POSITIVE_LENGTH_MEASURE(2.E-2),#5);
#627=PRESENTATION_STYLE_ASSIGNMENT((#626));
#628=STYLED_ITEM('',(#627),#625);
#629=DIRECTION('',(-9.999999991283E-1,-5.813663116656E-6,-4.134816163341E-5));
#630=VECTOR('',#629,3.911018066509E-3);
#631=CARTESIAN_POINT('',(2.960370023151E-1,7.841170052473E-2,
4.933072483276E-1));
#632=LINE('',#631,#630);
#633=CURVE_STYLE('',#21,POSITIVE_LENGTH_MEASURE(2.E-2),#5);
#634=PRESENTATION_STYLE_ASSIGNMENT((#633));
#635=STYLED_ITEM('',(#634),#632);
#636=DIRECTION('',(0.E0,-1.E0,0.E0));
#637=VECTOR('',#636,7.944989123160E-2);
#638=CARTESIAN_POINT('',(2.960370023151E-1,1.578615917563E-1,
4.933072483276E-1));
#639=LINE('',#638,#637);
#640=CURVE_STYLE('',#21,POSITIVE_LENGTH_MEASURE(2.E-2),#5);
#641=PRESENTATION_STYLE_ASSIGNMENT((#640));
#642=STYLED_ITEM('',(#641),#639);
#643=DIRECTION('',(9.999999991219E-1,-6.823609054761E-6,4.134816161895E-5));
#644=VECTOR('',#643,3.911018066534E-3);
#645=CARTESIAN_POINT('',(2.921259842520E-1,1.578616184436E-1,
4.933070866142E-1));
#646=LINE('',#645,#644);
#647=CURVE_STYLE('',#21,POSITIVE_LENGTH_MEASURE(2.E-2),#5);
#648=PRESENTATION_STYLE_ASSIGNMENT((#647));
#649=STYLED_ITEM('',(#648),#646);
#650=DIRECTION('',(5.219489479853E-11,1.E0,-3.322945234938E-11));
#651=VECTOR('',#650,7.159937265159E-2);
#652=CARTESIAN_POINT('',(2.854123403544E-1,8.222900113555E-2,
5.222107568281E-1));
#653=LINE('',#652,#651);
#654=CURVE_STYLE('',#21,POSITIVE_LENGTH_MEASURE(2.E-2),#5);
#655=PRESENTATION_STYLE_ASSIGNMENT((#654));
#656=STYLED_ITEM('',(#655),#653);
#657=CARTESIAN_POINT('',(2.872606535940E-1,8.202549022149E-2,
5.190093843891E-1));
#658=CARTESIAN_POINT('',(2.872578298059E-1,8.203685973704E-2,
5.190902471011E-1));
#659=CARTESIAN_POINT('',(2.872525181622E-1,8.204820667462E-2,
5.191709492332E-1));
#660=CARTESIAN_POINT('',(2.872447180789E-1,8.205953102893E-2,
5.192514907477E-1));
#662=CURVE_STYLE('',#21,POSITIVE_LENGTH_MEASURE(2.E-2),#5);
#663=PRESENTATION_STYLE_ASSIGNMENT((#662));
#664=STYLED_ITEM('',(#663),#661);
#665=DIRECTION('',(0.E0,-1.E0,1.079211016998E-14));
#666=VECTOR('',#665,7.201150701738E-2);
#667=CARTESIAN_POINT('',(2.872606535940E-1,1.540369972389E-1,
5.190093843891E-1));
#668=LINE('',#667,#666);
#669=CURVE_STYLE('',#21,POSITIVE_LENGTH_MEASURE(2.E-2),#5);
#670=PRESENTATION_STYLE_ASSIGNMENT((#669));
#671=STYLED_ITEM('',(#670),#668);
#672=CARTESIAN_POINT('',(2.872411516248E-1,1.539957416378E-1,
5.192866697242E-1));
#673=CARTESIAN_POINT('',(2.872509177686E-1,1.540094600731E-1,
5.191944659788E-1));
#674=CARTESIAN_POINT('',(2.872574180757E-1,1.540232119437E-1,
5.191020375097E-1));
#675=CARTESIAN_POINT('',(2.872606535940E-1,1.540369972389E-1,
5.190093843891E-1));
#677=CURVE_STYLE('',#21,POSITIVE_LENGTH_MEASURE(2.E-2),#5);
#678=PRESENTATION_STYLE_ASSIGNMENT((#677));
#679=STYLED_ITEM('',(#678),#676);
#680=DIRECTION('',(0.E0,1.E0,0.E0));
#681=VECTOR('',#680,6.209897900778E-2);
#682=CARTESIAN_POINT('',(2.637733632408E-1,8.689607890207E-2,
5.472408950903E-1));
#683=LINE('',#682,#681);
#684=CURVE_STYLE('',#21,POSITIVE_LENGTH_MEASURE(2.E-2),#5);
#685=PRESENTATION_STYLE_ASSIGNMENT((#684));
#686=STYLED_ITEM('',(#685),#683);
#687=DIRECTION('',(0.E0,-1.E0,0.E0));
#688=VECTOR('',#687,6.855534630358E-2);
#689=CARTESIAN_POINT('',(2.684653634446E-1,1.523100398258E-1,
5.328004033067E-1));
#690=LINE('',#689,#688);
#691=CURVE_STYLE('',#21,POSITIVE_LENGTH_MEASURE(2.E-2),#5);
#692=PRESENTATION_STYLE_ASSIGNMENT((#691));
#693=STYLED_ITEM('',(#692),#690);
#694=CARTESIAN_POINT('',(2.629145854386E-1,1.497193800428E-1,
5.426455798401E-1));
#695=CARTESIAN_POINT('',(2.629119805801E-1,1.496896788966E-1,
5.428255561231E-1));
#696=CARTESIAN_POINT('',(2.629149764878E-1,1.496304264873E-1,
5.431855168981E-1));
#697=CARTESIAN_POINT('',(2.629443286583E-1,1.495401081452E-1,
5.437263878480E-1));
#698=CARTESIAN_POINT('',(2.629800004454E-1,1.494785874864E-1,
5.440820852370E-1));
#699=CARTESIAN_POINT('',(2.630017507697E-1,1.494470699958E-1,
5.442588556778E-1));
#701=CURVE_STYLE('',#21,POSITIVE_LENGTH_MEASURE(2.E-2),#5);
#702=PRESENTATION_STYLE_ASSIGNMENT((#701));
#703=STYLED_ITEM('',(#702),#700);
#704=DIRECTION('',(-2.043668927427E-14,-1.E0,0.E0));
#705=VECTOR('',#704,1.358124852961E-2);
#706=CARTESIAN_POINT('',(2.931372230219E-1,1.247361926708E-1,
6.199189984001E-1));
#707=LINE('',#706,#705);
#708=CURVE_STYLE('',#21,POSITIVE_LENGTH_MEASURE(2.E-2),#5);
#709=PRESENTATION_STYLE_ASSIGNMENT((#708));
#710=STYLED_ITEM('',(#709),#707);
#711=DIRECTION('',(1.634935141944E-14,-1.E0,0.E0));
#712=VECTOR('',#711,1.358124852959E-2);
#713=CARTESIAN_POINT('',(2.932304521487E-1,1.247361926708E-1,
6.199189984001E-1));
#714=LINE('',#713,#712);
#715=CURVE_STYLE('',#21,POSITIVE_LENGTH_MEASURE(2.E-2),#5);
#716=PRESENTATION_STYLE_ASSIGNMENT((#715));
#717=STYLED_ITEM('',(#716),#714);
#718=DIRECTION('',(-1.699340557839E-12,1.E0,-4.116712337300E-12));
#719=VECTOR('',#718,3.247029211969E-2);
#720=CARTESIAN_POINT('',(3.004509661412E-1,1.017104223464E-1,
6.170017213831E-1));
#721=LINE('',#720,#719);
#722=CURVE_STYLE('',#21,POSITIVE_LENGTH_MEASURE(2.E-2),#5);
#723=PRESENTATION_STYLE_ASSIGNMENT((#722));
#724=STYLED_ITEM('',(#723),#721);
#725=DIRECTION('',(-1.E0,0.E0,0.E0));
#726=VECTOR('',#725,9.322912678728E-5);
#727=CARTESIAN_POINT('',(2.932304521487E-1,1.111549441412E-1,
6.199189984001E-1));
#728=LINE('',#727,#726);
#729=CURVE_STYLE('',#21,POSITIVE_LENGTH_MEASURE(2.E-2),#5);
#730=PRESENTATION_STYLE_ASSIGNMENT((#729));
#731=STYLED_ITEM('',(#730),#728);
#732=CARTESIAN_POINT('',(2.932304521487E-1,1.111549441412E-1,
6.199189984001E-1));
#733=CARTESIAN_POINT('',(2.932304521487E-1,1.099804904872E-1,
6.199189984001E-1));
#734=CARTESIAN_POINT('',(2.937872041284E-1,1.079900474879E-1,
6.196940559990E-1));
#735=CARTESIAN_POINT('',(2.960132080162E-1,1.047254436621E-1,
6.187946920495E-1));
#736=CARTESIAN_POINT('',(2.985339142718E-1,1.028250373697E-1,
6.177762606146E-1));
#737=CARTESIAN_POINT('',(3.004509661412E-1,1.017104223464E-1,
6.170017213831E-1));
#739=CURVE_STYLE('',#21,POSITIVE_LENGTH_MEASURE(2.E-2),#5);
#740=PRESENTATION_STYLE_ASSIGNMENT((#739));
#741=STYLED_ITEM('',(#740),#738);
#742=CARTESIAN_POINT('',(3.004509661412E-1,1.017104223464E-1,
6.170017213831E-1));
#743=CARTESIAN_POINT('',(2.999606677581E-1,9.996406797149E-2,
6.157881903009E-1));
#744=CARTESIAN_POINT('',(2.988013517574E-1,9.727887581813E-2,
6.129187825084E-1));
#745=CARTESIAN_POINT('',(2.973609118598E-1,9.586390067728E-2,
6.093535686548E-1));
#746=CARTESIAN_POINT('',(2.965513322937E-1,9.556017140508E-2,
6.073497889140E-1));
#748=CURVE_STYLE('',#21,POSITIVE_LENGTH_MEASURE(2.E-2),#5);
#749=PRESENTATION_STYLE_ASSIGNMENT((#748));
#750=STYLED_ITEM('',(#749),#747);
#751=DIRECTION('',(1.E0,0.E0,-5.229254790063E-14));
#752=VECTOR('',#751,8.492399542167E-3);
#753=CARTESIAN_POINT('',(2.880589327515E-1,9.556017140508E-2,
6.073497889140E-1));
#754=LINE('',#753,#752);
#755=CURVE_STYLE('',#21,POSITIVE_LENGTH_MEASURE(2.E-2),#5);
#756=PRESENTATION_STYLE_ASSIGNMENT((#755));
#757=STYLED_ITEM('',(#756),#754);
#758=CARTESIAN_POINT('',(2.931372230219E-1,1.111549441412E-1,
6.199189984001E-1));
#759=CARTESIAN_POINT('',(2.931372230219E-1,1.100141478973E-1,
6.199189984001E-1));
#760=CARTESIAN_POINT('',(2.930478075975E-1,1.079400467992E-1,
6.196976874585E-1));
#761=CARTESIAN_POINT('',(2.926327517613E-1,1.043400123400E-1,
6.186703882150E-1));
#762=CARTESIAN_POINT('',(2.917671122822E-1,1.006447755800E-1,
6.165278553204E-1));
#763=CARTESIAN_POINT('',(2.905167974820E-1,9.784219036663E-2,
6.134332175958E-1));
#764=CARTESIAN_POINT('',(2.892390898947E-1,9.624396724716E-2,
6.102707803440E-1));
#765=CARTESIAN_POINT('',(2.884821236074E-1,9.571893955591E-2,
6.083972230378E-1));
#766=CARTESIAN_POINT('',(2.880589327515E-1,9.556017140508E-2,
6.073497889140E-1));
#768=CURVE_STYLE('',#21,POSITIVE_LENGTH_MEASURE(2.E-2),#5);
#769=PRESENTATION_STYLE_ASSIGNMENT((#768));
#770=STYLED_ITEM('',(#769),#767);
#771=CARTESIAN_POINT('',(2.881629065810E-1,7.840710531955E-2,
4.932745661300E-1));
#772=CARTESIAN_POINT('',(2.886034624437E-1,7.643693639285E-2,
4.807086614173E-1));
#773=VERTEX_POINT('',#771);
#774=VERTEX_POINT('',#772);
#775=CARTESIAN_POINT('',(2.886034624437E-1,1.599407127718E-1,
4.807086614173E-1));
#776=VERTEX_POINT('',#775);
#777=CARTESIAN_POINT('',(2.868671934750E-1,1.403309654069E-1,
6.044001306981E-1));
#778=CARTESIAN_POINT('',(2.880589327515E-1,1.403309654069E-1,
6.073497889140E-1));
#779=VERTEX_POINT('',#777);
#780=VERTEX_POINT('',#778);
#781=CARTESIAN_POINT('',(2.932304521487E-1,1.111549441412E-1,
6.199189984001E-1));
#782=CARTESIAN_POINT('',(2.931372230219E-1,1.111549441412E-1,
6.199189984001E-1));
#783=VERTEX_POINT('',#781);
#784=VERTEX_POINT('',#782);
#785=VERTEX_POINT('',#766);
#786=CARTESIAN_POINT('',(2.931372230219E-1,1.247361926708E-1,
6.199189984001E-1));
#787=VERTEX_POINT('',#786);
#788=CARTESIAN_POINT('',(2.868671934750E-1,9.556017140508E-2,
6.044001306981E-1));
#789=VERTEX_POINT('',#788);
#790=VERTEX_POINT('',#742);
#791=VERTEX_POINT('',#746);
#792=CARTESIAN_POINT('',(2.932304521487E-1,1.247361926708E-1,
6.199189984001E-1));
#793=VERTEX_POINT('',#792);
#794=VERTEX_POINT('',#236);
#795=VERTEX_POINT('',#240);
#796=CARTESIAN_POINT('',(2.953595930172E-1,9.556017140508E-2,
6.044001306981E-1));
#797=VERTEX_POINT('',#796);
#798=CARTESIAN_POINT('',(2.710611071391E-1,8.644406681611E-2,
5.442588556777E-1));
#799=CARTESIAN_POINT('',(2.630017507698E-1,8.644406681613E-2,
5.442588556778E-1));
#800=VERTEX_POINT('',#798);
#801=VERTEX_POINT('',#799);
#802=CARTESIAN_POINT('',(2.921241343412E-1,7.643693639285E-2,
4.807086614173E-1));
#803=VERTEX_POINT('',#802);
#804=CARTESIAN_POINT('',(2.921259794768E-1,7.840710531955E-2,
4.932745661300E-1));
#805=VERTEX_POINT('',#804);
#806=CARTESIAN_POINT('',(2.921241343412E-1,1.599407127718E-1,
4.807086614173E-1));
#807=VERTEX_POINT('',#806);
#808=CARTESIAN_POINT('',(2.881606173465E-1,1.578562096495E-1,
4.933398616006E-1));
#809=CARTESIAN_POINT('',(2.960358634407E-1,1.578562096495E-1,
4.933398616006E-1));
#810=VERTEX_POINT('',#808);
#811=VERTEX_POINT('',#809);
#812=CARTESIAN_POINT('',(2.953595930172E-1,1.403309654069E-1,
6.044001306981E-1));
#813=VERTEX_POINT('',#812);
#814=CARTESIAN_POINT('',(2.630017507697E-1,1.494470699958E-1,
5.442588556778E-1));
#815=CARTESIAN_POINT('',(2.710611071393E-1,1.494470699958E-1,
5.442588556778E-1));
#816=VERTEX_POINT('',#814);
#817=VERTEX_POINT('',#815);
#818=CARTESIAN_POINT('',(2.629145703999E-1,8.616607610716E-2,
5.426466220782E-1));
#819=CARTESIAN_POINT('',(2.707910314448E-1,8.616607610725E-2,
5.426466220787E-1));
#820=VERTEX_POINT('',#818);
#821=VERTEX_POINT('',#819);
#822=CARTESIAN_POINT('',(2.634047118496E-1,8.551698638812E-2,
5.394452545376E-1));
#823=CARTESIAN_POINT('',(2.726902755348E-1,8.551698638816E-2,
5.394452545378E-1));
#824=VERTEX_POINT('',#822);
#825=VERTEX_POINT('',#823);
#826=CARTESIAN_POINT('',(2.895849329865E-1,8.271715785196E-2,
5.288883008921E-1));
#827=VERTEX_POINT('',#826);
#828=VERTEX_POINT('',#431);
#829=VERTEX_POINT('',#551);
#830=VERTEX_POINT('',#560);
#831=VERTEX_POINT('',#520);
#832=VERTEX_POINT('',#532);
#833=CARTESIAN_POINT('',(2.951310143568E-1,8.205953102893E-2,
5.192514907477E-1));
#834=VERTEX_POINT('',#833);
#835=VERTEX_POINT('',#488);
#836=VERTEX_POINT('',#500);
#837=VERTEX_POINT('',#565);
#838=VERTEX_POINT('',#123);
#839=VERTEX_POINT('',#132);
#840=CARTESIAN_POINT('',(2.747220461058E-1,1.533468893352E-1,
5.288907940670E-1));
#841=VERTEX_POINT('',#840);
#842=CARTESIAN_POINT('',(2.726337270003E-1,1.505385712602E-1,
5.394805937037E-1));
#843=CARTESIAN_POINT('',(2.633934679799E-1,1.505377153900E-1,
5.394832400416E-1));
#844=VERTEX_POINT('',#842);
#845=VERTEX_POINT('',#843);
#846=VERTEX_POINT('',#380);
#847=CARTESIAN_POINT('',(2.684653634446E-1,1.523100398258E-1,
5.328004033067E-1));
#848=VERTEX_POINT('',#847);
#849=CARTESIAN_POINT('',(2.684653634446E-1,8.375469352224E-2,
5.328004033067E-1));
#850=VERTEX_POINT('',#849);
#851=VERTEX_POINT('',#694);
#852=VERTEX_POINT('',#210);
#853=VERTEX_POINT('',#354);
#854=VERTEX_POINT('',#310);
#855=VERTEX_POINT('',#336);
#856=VERTEX_POINT('',#675);
#857=VERTEX_POINT('',#657);
#858=CARTESIAN_POINT('',(2.921259842520E-1,1.578616184436E-1,
4.933070866142E-1));
#859=VERTEX_POINT('',#858);
#860=CARTESIAN_POINT('',(2.960370023151E-1,1.578615917563E-1,
4.933072483276E-1));
#861=VERTEX_POINT('',#860);
#862=CARTESIAN_POINT('',(2.960370023151E-1,7.841170052473E-2,
4.933072483276E-1));
#863=VERTEX_POINT('',#862);
#864=CARTESIAN_POINT('',(2.921259842520E-1,7.841167778739E-2,
4.933070866142E-1));
#865=VERTEX_POINT('',#864);
#866=CARTESIAN_POINT('',(2.921094505659E-1,6.889763779527E-2,
3.807079205575E-1));
#867=DIRECTION('',(9.999999892195E-1,0.E0,-1.468366636765E-4));
#868=DIRECTION('',(-1.468366636765E-4,0.E0,-9.999999892195E-1));
#869=AXIS2_PLACEMENT_3D('',#866,#867,#868);
#870=PLANE('',#869);
#872=ORIENTED_EDGE('',*,*,#871,.F.);
#874=ORIENTED_EDGE('',*,*,#873,.F.);
#876=ORIENTED_EDGE('',*,*,#875,.F.);
#878=ORIENTED_EDGE('',*,*,#877,.F.);
#880=ORIENTED_EDGE('',*,*,#879,.F.);
#881=EDGE_LOOP('',(#872,#874,#876,#878,#880));
#882=FACE_OUTER_BOUND('',#881,.F.);
#884=CARTESIAN_POINT('',(2.086614173228E-1,7.840710531955E-2,
4.932745661300E-1));
#885=DIRECTION('',(0.E0,-9.879309989354E-1,1.548946136651E-1));
#886=DIRECTION('',(0.E0,1.548946136651E-1,9.879309989354E-1));
#887=AXIS2_PLACEMENT_3D('',#884,#885,#886);
#888=PLANE('',#887);
#890=ORIENTED_EDGE('',*,*,#889,.F.);
#892=ORIENTED_EDGE('',*,*,#891,.F.);
#894=ORIENTED_EDGE('',*,*,#893,.T.);
#895=ORIENTED_EDGE('',*,*,#871,.T.);
#896=EDGE_LOOP('',(#890,#892,#894,#895));
#897=FACE_OUTER_BOUND('',#896,.F.);
#899=CARTESIAN_POINT('',(2.086614173228E-1,1.599407127718E-1,
4.807086614173E-1));
#900=DIRECTION('',(0.E0,0.E0,-1.E0));
#901=DIRECTION('',(0.E0,-1.E0,0.E0));
#902=AXIS2_PLACEMENT_3D('',#899,#900,#901);
#903=PLANE('',#902);
#905=ORIENTED_EDGE('',*,*,#904,.F.);
#907=ORIENTED_EDGE('',*,*,#906,.F.);
#908=ORIENTED_EDGE('',*,*,#889,.T.);
#909=ORIENTED_EDGE('',*,*,#879,.T.);
#910=EDGE_LOOP('',(#905,#907,#908,#909));
#911=FACE_OUTER_BOUND('',#910,.F.);
#913=CARTESIAN_POINT('',(2.086614173228E-1,1.578562096495E-1,
4.933398616005E-1));
#914=DIRECTION('',(0.E0,9.866548351672E-1,1.628257849394E-1));
#915=DIRECTION('',(0.E0,1.628257849394E-1,-9.866548351672E-1));
#916=AXIS2_PLACEMENT_3D('',#913,#914,#915);
#917=PLANE('',#916);
#919=ORIENTED_EDGE('',*,*,#918,.F.);
#921=ORIENTED_EDGE('',*,*,#920,.F.);
#922=ORIENTED_EDGE('',*,*,#904,.T.);
#923=ORIENTED_EDGE('',*,*,#877,.T.);
#925=ORIENTED_EDGE('',*,*,#924,.T.);
#927=ORIENTED_EDGE('',*,*,#926,.T.);
#928=EDGE_LOOP('',(#919,#921,#922,#923,#925,#927));
#929=FACE_OUTER_BOUND('',#928,.F.);
#931=CARTESIAN_POINT('',(2.086614173228E-1,1.539957416378E-1,
5.192866697242E-1));
#932=DIRECTION('',(0.E0,9.891121078274E-1,1.471639838728E-1));
#933=DIRECTION('',(0.E0,1.471639838728E-1,-9.891121078274E-1));
#934=AXIS2_PLACEMENT_3D('',#931,#932,#933);
#935=PLANE('',#934);
#937=ORIENTED_EDGE('',*,*,#936,.T.);
#939=ORIENTED_EDGE('',*,*,#938,.T.);
#941=ORIENTED_EDGE('',*,*,#940,.F.);
#942=ORIENTED_EDGE('',*,*,#918,.T.);
#944=ORIENTED_EDGE('',*,*,#943,.T.);
#945=EDGE_LOOP('',(#937,#939,#941,#942,#944));
#946=FACE_OUTER_BOUND('',#945,.F.);
#948=CARTESIAN_POINT('',(2.086614173228E-1,1.533300303703E-1,
5.290463000545E-1));
#949=CARTESIAN_POINT('',(2.086614173228E-1,1.535548774176E-1,
5.270184379693E-1));
#950=CARTESIAN_POINT('',(2.086614173228E-1,1.537797043311E-1,
5.231312276171E-1));
#951=CARTESIAN_POINT('',(2.086614173228E-1,1.540045300136E-1,
5.191303377840E-1));
#953=DIRECTION('',(1.E0,0.E0,0.E0));
#954=VECTOR('',#953,1.E0);
#955=SURFACE_OF_LINEAR_EXTRUSION('',#952,#954);
#957=ORIENTED_EDGE('',*,*,#956,.F.);
#959=ORIENTED_EDGE('',*,*,#958,.F.);
#961=ORIENTED_EDGE('',*,*,#960,.F.);
#962=ORIENTED_EDGE('',*,*,#936,.F.);
#964=ORIENTED_EDGE('',*,*,#963,.T.);
#965=EDGE_LOOP('',(#957,#959,#961,#962,#964));
#966=FACE_OUTER_BOUND('',#965,.F.);
#968=CARTESIAN_POINT('',(2.086614173228E-1,1.505377153900E-1,
5.394832400416E-1));
#969=DIRECTION('',(0.E0,9.665856827872E-1,2.563437493500E-1));
#970=DIRECTION('',(0.E0,2.563437493500E-1,-9.665856827872E-1));
#971=AXIS2_PLACEMENT_3D('',#968,#969,#970);
#972=PLANE('',#971);
#974=ORIENTED_EDGE('',*,*,#973,.T.);
#976=ORIENTED_EDGE('',*,*,#975,.F.);
#978=ORIENTED_EDGE('',*,*,#977,.F.);
#979=ORIENTED_EDGE('',*,*,#956,.T.);
#981=ORIENTED_EDGE('',*,*,#980,.T.);
#982=EDGE_LOOP('',(#974,#976,#978,#979,#981));
#983=FACE_OUTER_BOUND('',#982,.F.);
#985=CARTESIAN_POINT('',(2.086614173228E-1,1.496861111243E-1,
5.427942898315E-1));
#986=CARTESIAN_POINT('',(2.086614173228E-1,1.500007928330E-1,
5.413867278667E-1));
#987=CARTESIAN_POINT('',(2.086614173228E-1,1.503134202870E-1,
5.400091266127E-1));
#988=CARTESIAN_POINT('',(2.086614173228E-1,1.505886274063E-1,
5.393552987931E-1));
#990=DIRECTION('',(1.E0,0.E0,0.E0));
#991=VECTOR('',#990,1.E0);
#992=SURFACE_OF_LINEAR_EXTRUSION('',#989,#991);
#994=ORIENTED_EDGE('',*,*,#993,.F.);
#996=ORIENTED_EDGE('',*,*,#995,.F.);
#997=ORIENTED_EDGE('',*,*,#973,.F.);
#999=ORIENTED_EDGE('',*,*,#998,.T.);
#1000=EDGE_LOOP('',(#994,#996,#997,#999));
#1001=FACE_OUTER_BOUND('',#1000,.F.);
#1003=CARTESIAN_POINT('',(2.086614173228E-1,1.494284998994E-1,
5.443623671320E-1));
#1004=CARTESIAN_POINT('',(2.086614173228E-1,1.495314518281E-1,
5.437921450694E-1));
#1005=CARTESIAN_POINT('',(2.086614173228E-1,1.496339923531E-1,
5.431622324970E-1));
#1006=CARTESIAN_POINT('',(2.086614173228E-1,1.497364968022E-1,
5.425419221074E-1));
#1008=DIRECTION('',(1.E0,0.E0,0.E0));
#1009=VECTOR('',#1008,1.E0);
#1010=SURFACE_OF_LINEAR_EXTRUSION('',#1007,#1009);
#1012=ORIENTED_EDGE('',*,*,#1011,.F.);
#1014=ORIENTED_EDGE('',*,*,#1013,.F.);
#1015=ORIENTED_EDGE('',*,*,#993,.T.);
#1017=ORIENTED_EDGE('',*,*,#1016,.T.);
#1018=EDGE_LOOP('',(#1012,#1014,#1015,#1017));
#1019=FACE_OUTER_BOUND('',#1018,.F.);
#1021=CARTESIAN_POINT('',(2.086614173228E-1,1.403309654069E-1,
6.044001306981E-1));
#1022=DIRECTION('',(0.E0,9.887062733492E-1,1.498662905393E-1));
#1023=DIRECTION('',(0.E0,1.498662905393E-1,-9.887062733492E-1));
#1024=AXIS2_PLACEMENT_3D('',#1021,#1022,#1023);
#1025=PLANE('',#1024);
#1027=ORIENTED_EDGE('',*,*,#1026,.F.);
#1029=ORIENTED_EDGE('',*,*,#1028,.F.);
#1031=ORIENTED_EDGE('',*,*,#1030,.F.);
#1032=ORIENTED_EDGE('',*,*,#1011,.T.);
#1034=ORIENTED_EDGE('',*,*,#1033,.T.);
#1036=ORIENTED_EDGE('',*,*,#1035,.T.);
#1037=EDGE_LOOP('',(#1027,#1029,#1031,#1032,#1034,#1036));
#1038=FACE_OUTER_BOUND('',#1037,.F.);
#1040=CARTESIAN_POINT('',(2.086614173228E-1,1.403309654069E-1,
6.073497889140E-1));
#1041=DIRECTION('',(0.E0,1.E0,0.E0));
#1042=DIRECTION('',(1.E0,0.E0,0.E0));
#1043=AXIS2_PLACEMENT_3D('',#1040,#1041,#1042);
#1044=PLANE('',#1043);
#1046=ORIENTED_EDGE('',*,*,#1045,.T.);
#1048=ORIENTED_EDGE('',*,*,#1047,.F.);
#1049=ORIENTED_EDGE('',*,*,#1026,.T.);
#1051=ORIENTED_EDGE('',*,*,#1050,.F.);
#1052=EDGE_LOOP('',(#1046,#1048,#1049,#1051));
#1053=FACE_OUTER_BOUND('',#1052,.F.);
#1055=CARTESIAN_POINT('',(2.086614173228E-1,1.247361926708E-1,
6.053176778557E-1));
#1056=DIRECTION('',(-1.E0,0.E0,0.E0));
#1057=DIRECTION('',(0.E0,-1.E0,0.E0));
#1058=AXIS2_PLACEMENT_3D('',#1055,#1056,#1057);
#1061=DIRECTION('',(1.E0,0.E0,0.E0));
#1062=VECTOR('',#1061,1.E0);
#1063=SURFACE_OF_LINEAR_EXTRUSION('',#1060,#1062);
#1064=ORIENTED_EDGE('',*,*,#1045,.F.);
#1066=ORIENTED_EDGE('',*,*,#1065,.T.);
#1068=ORIENTED_EDGE('',*,*,#1067,.T.);
#1070=ORIENTED_EDGE('',*,*,#1069,.F.);
#1072=ORIENTED_EDGE('',*,*,#1071,.F.);
#1073=EDGE_LOOP('',(#1064,#1066,#1068,#1070,#1072));
#1074=FACE_OUTER_BOUND('',#1073,.F.);
#1076=CARTESIAN_POINT('',(2.710740235074E-1,6.889763779527E-2,
5.442912368767E-1));
#1077=DIRECTION('',(9.271838545668E-1,0.E0,-3.746065934159E-1));
#1078=DIRECTION('',(-3.746065934159E-1,0.E0,-9.271838545668E-1));
#1079=AXIS2_PLACEMENT_3D('',#1076,#1077,#1078);
#1080=PLANE('',#1079);
#1082=ORIENTED_EDGE('',*,*,#1081,.T.);
#1084=ORIENTED_EDGE('',*,*,#1083,.F.);
#1086=ORIENTED_EDGE('',*,*,#1085,.T.);
#1087=ORIENTED_EDGE('',*,*,#1065,.F.);
#1088=ORIENTED_EDGE('',*,*,#1050,.T.);
#1089=ORIENTED_EDGE('',*,*,#1035,.F.);
#1091=ORIENTED_EDGE('',*,*,#1090,.T.);
#1093=ORIENTED_EDGE('',*,*,#1092,.F.);
#1094=EDGE_LOOP('',(#1082,#1084,#1086,#1087,#1088,#1089,#1091,#1093));
#1095=FACE_OUTER_BOUND('',#1094,.F.);
#1097=CARTESIAN_POINT('',(2.086614173228E-1,9.556017140508E-2,
6.044001306981E-1));
#1098=DIRECTION('',(0.E0,-1.E0,0.E0));
#1099=DIRECTION('',(-1.E0,0.E0,0.E0));
#1100=AXIS2_PLACEMENT_3D('',#1097,#1098,#1099);
#1101=PLANE('',#1100);
#1103=ORIENTED_EDGE('',*,*,#1102,.F.);
#1105=ORIENTED_EDGE('',*,*,#1104,.F.);
#1107=ORIENTED_EDGE('',*,*,#1106,.T.);
#1108=ORIENTED_EDGE('',*,*,#1081,.F.);
#1109=EDGE_LOOP('',(#1103,#1105,#1107,#1108));
#1110=FACE_OUTER_BOUND('',#1109,.F.);
#1112=CARTESIAN_POINT('',(2.086614173228E-1,8.644406681614E-2,
5.442588556778E-1));
#1113=DIRECTION('',(0.E0,-9.887062733491E-1,1.498662905394E-1));
#1114=DIRECTION('',(0.E0,1.498662905394E-1,9.887062733491E-1));
#1115=AXIS2_PLACEMENT_3D('',#1112,#1113,#1114);
#1116=PLANE('',#1115);
#1118=ORIENTED_EDGE('',*,*,#1117,.T.);
#1120=ORIENTED_EDGE('',*,*,#1119,.T.);
#1122=ORIENTED_EDGE('',*,*,#1121,.F.);
#1124=ORIENTED_EDGE('',*,*,#1123,.F.);
#1125=ORIENTED_EDGE('',*,*,#1102,.T.);
#1126=ORIENTED_EDGE('',*,*,#1092,.T.);
#1127=EDGE_LOOP('',(#1118,#1120,#1122,#1124,#1125,#1126));
#1128=FACE_OUTER_BOUND('',#1127,.F.);
#1130=CARTESIAN_POINT('',(2.747241173237E-1,6.889763779527E-2,
5.428165032482E-1));
#1131=DIRECTION('',(0.E0,1.E0,0.E0));
#1132=DIRECTION('',(0.E0,0.E0,-1.E0));
#1133=AXIS2_PLACEMENT_3D('',#1130,#1131,#1132);
#1134=CYLINDRICAL_SURFACE('',#1133,3.936752994906E-3);
#1136=ORIENTED_EDGE('',*,*,#1135,.F.);
#1137=ORIENTED_EDGE('',*,*,#1117,.F.);
#1138=ORIENTED_EDGE('',*,*,#1090,.F.);
#1139=ORIENTED_EDGE('',*,*,#1033,.F.);
#1140=ORIENTED_EDGE('',*,*,#1016,.F.);
#1141=ORIENTED_EDGE('',*,*,#998,.F.);
#1143=ORIENTED_EDGE('',*,*,#1142,.F.);
#1145=ORIENTED_EDGE('',*,*,#1144,.F.);
#1146=EDGE_LOOP('',(#1136,#1137,#1138,#1139,#1140,#1141,#1143,#1145));
#1147=FACE_OUTER_BOUND('',#1146,.F.);
#1149=CARTESIAN_POINT('',(2.086614173228E-1,8.614857598271E-2,
5.425429213041E-1));
#1150=CARTESIAN_POINT('',(2.086614173228E-1,8.625320143694E-2,
5.431624627322E-1));
#1151=CARTESIAN_POINT('',(2.086614173228E-1,8.635789676380E-2,
5.437915981110E-1));
#1152=CARTESIAN_POINT('',(2.086614173228E-1,8.646279241499E-2,
5.443611619774E-1));
#1154=DIRECTION('',(1.E0,0.E0,0.E0));
#1155=VECTOR('',#1154,1.E0);
#1156=SURFACE_OF_LINEAR_EXTRUSION('',#1153,#1155);
#1158=ORIENTED_EDGE('',*,*,#1157,.F.);
#1160=ORIENTED_EDGE('',*,*,#1159,.F.);
#1161=ORIENTED_EDGE('',*,*,#1119,.F.);
#1162=ORIENTED_EDGE('',*,*,#1135,.T.);
#1163=EDGE_LOOP('',(#1158,#1160,#1161,#1162));
#1164=FACE_OUTER_BOUND('',#1163,.F.);
#1166=CARTESIAN_POINT('',(2.086614173228E-1,8.546799335565E-2,
5.393011174626E-1));
#1167=CARTESIAN_POINT('',(2.086614173228E-1,8.570974724905E-2,
5.399632323760E-1));
#1168=CARTESIAN_POINT('',(2.086614173228E-1,8.595037108968E-2,
5.413650680445E-1));
#1169=CARTESIAN_POINT('',(2.086614173228E-1,8.619146045365E-2,
5.427972876025E-1));
#1171=DIRECTION('',(1.E0,0.E0,0.E0));
#1172=VECTOR('',#1171,1.E0);
#1173=SURFACE_OF_LINEAR_EXTRUSION('',#1170,#1172);
#1175=ORIENTED_EDGE('',*,*,#1174,.T.);
#1177=ORIENTED_EDGE('',*,*,#1176,.F.);
#1179=ORIENTED_EDGE('',*,*,#1178,.F.);
#1180=ORIENTED_EDGE('',*,*,#1157,.T.);
#1181=ORIENTED_EDGE('',*,*,#1144,.T.);
#1182=EDGE_LOOP('',(#1175,#1177,#1179,#1180,#1181));
#1183=FACE_OUTER_BOUND('',#1182,.F.);
#1185=CARTESIAN_POINT('',(2.895849329864E-1,6.889763779527E-2,
5.288883008922E-1));
#1186=DIRECTION('',(5.299192639831E-1,0.E0,8.480480963127E-1));
#1187=DIRECTION('',(8.480480963127E-1,0.E0,-5.299192639831E-1));
#1188=AXIS2_PLACEMENT_3D('',#1185,#1186,#1187);
#1189=PLANE('',#1188);
#1191=ORIENTED_EDGE('',*,*,#1190,.F.);
#1192=ORIENTED_EDGE('',*,*,#1174,.F.);
#1193=ORIENTED_EDGE('',*,*,#1142,.T.);
#1194=ORIENTED_EDGE('',*,*,#980,.F.);
#1196=ORIENTED_EDGE('',*,*,#1195,.T.);
#1197=EDGE_LOOP('',(#1191,#1192,#1193,#1194,#1196));
#1198=FACE_OUTER_BOUND('',#1197,.F.);
#1200=CARTESIAN_POINT('',(2.086614173228E-1,8.270848732863E-2,
5.288556080641E-1));
#1201=DIRECTION('',(0.E0,-9.665841548797E-1,2.563495105039E-1));
#1202=DIRECTION('',(0.E0,2.563495105039E-1,9.665841548797E-1));
#1203=AXIS2_PLACEMENT_3D('',#1200,#1201,#1202);
#1204=PLANE('',#1203);
#1206=ORIENTED_EDGE('',*,*,#1205,.T.);
#1208=ORIENTED_EDGE('',*,*,#1207,.T.);
#1210=ORIENTED_EDGE('',*,*,#1209,.F.);
#1212=ORIENTED_EDGE('',*,*,#1211,.F.);
#1213=ORIENTED_EDGE('',*,*,#1176,.T.);
#1214=ORIENTED_EDGE('',*,*,#1190,.T.);
#1215=EDGE_LOOP('',(#1206,#1208,#1210,#1212,#1213,#1214));
#1216=FACE_OUTER_BOUND('',#1215,.F.);
#1218=CARTESIAN_POINT('',(2.833260440388E-1,6.889763779527E-2,
5.188719847959E-1));
#1219=DIRECTION('',(0.E0,1.E0,0.E0));
#1220=DIRECTION('',(0.E0,0.E0,-1.E0));
#1221=AXIS2_PLACEMENT_3D('',#1218,#1219,#1220);
#1222=CYLINDRICAL_SURFACE('',#1221,1.181102362198E-2);
#1224=ORIENTED_EDGE('',*,*,#1223,.F.);
#1225=ORIENTED_EDGE('',*,*,#1205,.F.);
#1226=ORIENTED_EDGE('',*,*,#1195,.F.);
#1227=ORIENTED_EDGE('',*,*,#963,.F.);
#1229=ORIENTED_EDGE('',*,*,#1228,.F.);
#1230=EDGE_LOOP('',(#1224,#1225,#1226,#1227,#1229));
#1231=FACE_OUTER_BOUND('',#1230,.F.);
#1233=CARTESIAN_POINT('',(2.086614173228E-1,8.205074874597E-2,
5.190952974271E-1));
#1234=CARTESIAN_POINT('',(2.086614173228E-1,8.227538666671E-2,
5.230920707217E-1));
#1235=CARTESIAN_POINT('',(2.086614173228E-1,8.250002458745E-2,
5.269753779535E-1));
#1236=CARTESIAN_POINT('',(2.086614173228E-1,8.272466250819E-2,
5.290049265783E-1));
#1238=DIRECTION('',(1.E0,0.E0,0.E0));
#1239=VECTOR('',#1238,1.E0);
#1240=SURFACE_OF_LINEAR_EXTRUSION('',#1237,#1239);
#1242=ORIENTED_EDGE('',*,*,#1241,.T.);
#1244=ORIENTED_EDGE('',*,*,#1243,.F.);
#1246=ORIENTED_EDGE('',*,*,#1245,.F.);
#1248=ORIENTED_EDGE('',*,*,#1247,.F.);
#1249=ORIENTED_EDGE('',*,*,#1207,.F.);
#1250=ORIENTED_EDGE('',*,*,#1223,.T.);
#1251=EDGE_LOOP('',(#1242,#1244,#1246,#1248,#1249,#1250));
#1252=FACE_OUTER_BOUND('',#1251,.F.);
#1254=CARTESIAN_POINT('',(2.960370023151E-1,6.889763779527E-2,
4.933072483276E-1));
#1255=DIRECTION('',(9.993908336709E-1,0.E0,3.489930622032E-2));
#1256=DIRECTION('',(3.489930622032E-2,0.E0,-9.993908336709E-1));
#1257=AXIS2_PLACEMENT_3D('',#1254,#1255,#1256);
#1258=PLANE('',#1257);
#1260=ORIENTED_EDGE('',*,*,#1259,.F.);
#1261=ORIENTED_EDGE('',*,*,#1241,.F.);
#1262=ORIENTED_EDGE('',*,*,#1228,.T.);
#1263=ORIENTED_EDGE('',*,*,#943,.F.);
#1264=ORIENTED_EDGE('',*,*,#926,.F.);
#1266=ORIENTED_EDGE('',*,*,#1265,.T.);
#1267=EDGE_LOOP('',(#1260,#1261,#1262,#1263,#1264,#1266));
#1268=FACE_OUTER_BOUND('',#1267,.F.);
#1270=CARTESIAN_POINT('',(2.086614173228E-1,7.840710531955E-2,
4.932745661300E-1));
#1271=DIRECTION('',(0.E0,-9.902596239295E-1,1.392331756984E-1));
#1272=DIRECTION('',(0.E0,1.392331756984E-1,9.902596239295E-1));
#1273=AXIS2_PLACEMENT_3D('',#1270,#1271,#1272);
#1274=PLANE('',#1273);
#1276=ORIENTED_EDGE('',*,*,#1275,.T.);
#1277=ORIENTED_EDGE('',*,*,#873,.T.);
#1278=ORIENTED_EDGE('',*,*,#893,.F.);
#1280=ORIENTED_EDGE('',*,*,#1279,.F.);
#1282=ORIENTED_EDGE('',*,*,#1281,.T.);
#1283=ORIENTED_EDGE('',*,*,#1243,.T.);
#1284=ORIENTED_EDGE('',*,*,#1259,.T.);
#1285=EDGE_LOOP('',(#1276,#1277,#1278,#1280,#1282,#1283,#1284));
#1286=FACE_OUTER_BOUND('',#1285,.F.);
#1288=CARTESIAN_POINT('',(2.921259842520E-1,6.889763779527E-2,
4.933070866142E-1));
#1289=DIRECTION('',(4.134816163863E-5,0.E0,-9.999999991452E-1));
#1290=DIRECTION('',(-9.999999991452E-1,0.E0,-4.134816163863E-5));
#1291=AXIS2_PLACEMENT_3D('',#1288,#1289,#1290);
#1292=PLANE('',#1291);
#1293=ORIENTED_EDGE('',*,*,#875,.T.);
#1294=ORIENTED_EDGE('',*,*,#1275,.F.);
#1295=ORIENTED_EDGE('',*,*,#1265,.F.);
#1296=ORIENTED_EDGE('',*,*,#924,.F.);
#1297=EDGE_LOOP('',(#1293,#1294,#1295,#1296));
#1298=FACE_OUTER_BOUND('',#1297,.F.);
#1300=CARTESIAN_POINT('',(2.872606535940E-1,6.889763779527E-2,
5.190093843891E-1));
#1301=DIRECTION('',(-9.993859774697E-1,0.E0,-3.503809408157E-2));
#1302=DIRECTION('',(-3.503809408157E-2,0.E0,9.993859774697E-1));
#1303=AXIS2_PLACEMENT_3D('',#1300,#1301,#1302);
#1304=PLANE('',#1303);
#1306=ORIENTED_EDGE('',*,*,#1305,.T.);
#1307=ORIENTED_EDGE('',*,*,#1279,.T.);
#1308=ORIENTED_EDGE('',*,*,#891,.T.);
#1309=ORIENTED_EDGE('',*,*,#906,.T.);
#1310=ORIENTED_EDGE('',*,*,#920,.T.);
#1311=ORIENTED_EDGE('',*,*,#940,.T.);
#1312=EDGE_LOOP('',(#1306,#1307,#1308,#1309,#1310,#1311));
#1313=FACE_OUTER_BOUND('',#1312,.F.);
#1315=CARTESIAN_POINT('',(2.833260440388E-1,6.889763779527E-2,
5.188719847959E-1));
#1316=DIRECTION('',(0.E0,1.E0,0.E0));
#1317=DIRECTION('',(0.E0,0.E0,-1.E0));
#1318=AXIS2_PLACEMENT_3D('',#1315,#1316,#1317);
#1319=CYLINDRICAL_SURFACE('',#1318,3.937007873949E-3);
#1321=ORIENTED_EDGE('',*,*,#1320,.F.);
#1322=ORIENTED_EDGE('',*,*,#1245,.T.);
#1323=ORIENTED_EDGE('',*,*,#1281,.F.);
#1324=ORIENTED_EDGE('',*,*,#1305,.F.);
#1325=ORIENTED_EDGE('',*,*,#938,.F.);
#1326=ORIENTED_EDGE('',*,*,#960,.T.);
#1327=EDGE_LOOP('',(#1321,#1322,#1323,#1324,#1325,#1326));
#1328=FACE_OUTER_BOUND('',#1327,.F.);
#1330=CARTESIAN_POINT('',(2.684653634446E-1,6.889763779527E-2,
5.328004033067E-1));
#1331=DIRECTION('',(-5.299192642383E-1,0.E0,-8.480480961532E-1));
#1332=DIRECTION('',(-8.480480961532E-1,0.E0,5.299192642383E-1));
#1333=AXIS2_PLACEMENT_3D('',#1330,#1331,#1332);
#1334=PLANE('',#1333);
#1336=ORIENTED_EDGE('',*,*,#1335,.T.);
#1337=ORIENTED_EDGE('',*,*,#1209,.T.);
#1338=ORIENTED_EDGE('',*,*,#1247,.T.);
#1339=ORIENTED_EDGE('',*,*,#1320,.T.);
#1340=ORIENTED_EDGE('',*,*,#958,.T.);
#1341=ORIENTED_EDGE('',*,*,#977,.T.);
#1342=EDGE_LOOP('',(#1336,#1337,#1338,#1339,#1340,#1341));
#1343=FACE_OUTER_BOUND('',#1342,.F.);
#1345=CARTESIAN_POINT('',(2.747241173237E-1,6.889763779527E-2,
5.428165032482E-1));
#1346=DIRECTION('',(0.E0,1.E0,0.E0));
#1347=DIRECTION('',(0.E0,0.E0,-1.E0));
#1348=AXIS2_PLACEMENT_3D('',#1345,#1346,#1347);
#1349=CYLINDRICAL_SURFACE('',#1348,1.181076873692E-2);
#1351=ORIENTED_EDGE('',*,*,#1350,.F.);
#1352=ORIENTED_EDGE('',*,*,#1121,.T.);
#1353=ORIENTED_EDGE('',*,*,#1159,.T.);
#1354=ORIENTED_EDGE('',*,*,#1178,.T.);
#1355=ORIENTED_EDGE('',*,*,#1211,.T.);
#1356=ORIENTED_EDGE('',*,*,#1335,.F.);
#1357=ORIENTED_EDGE('',*,*,#975,.T.);
#1358=ORIENTED_EDGE('',*,*,#995,.T.);
#1359=ORIENTED_EDGE('',*,*,#1013,.T.);
#1360=ORIENTED_EDGE('',*,*,#1030,.T.);
#1361=EDGE_LOOP('',(#1351,#1352,#1353,#1354,#1355,#1356,#1357,#1358,#1359,
#1360));
#1362=FACE_OUTER_BOUND('',#1361,.F.);
#1364=CARTESIAN_POINT('',(2.880720156042E-1,6.889763779528E-2,
6.073821701106E-1));
#1365=DIRECTION('',(-9.271838545668E-1,0.E0,3.746065934158E-1));
#1366=DIRECTION('',(3.746065934158E-1,0.E0,9.271838545668E-1));
#1367=AXIS2_PLACEMENT_3D('',#1364,#1365,#1366);
#1368=PLANE('',#1367);
#1369=ORIENTED_EDGE('',*,*,#1104,.T.);
#1370=ORIENTED_EDGE('',*,*,#1123,.T.);
#1371=ORIENTED_EDGE('',*,*,#1350,.T.);
#1372=ORIENTED_EDGE('',*,*,#1028,.T.);
#1373=ORIENTED_EDGE('',*,*,#1047,.T.);
#1374=ORIENTED_EDGE('',*,*,#1071,.T.);
#1376=ORIENTED_EDGE('',*,*,#1375,.T.);
#1378=ORIENTED_EDGE('',*,*,#1377,.T.);
#1379=EDGE_LOOP('',(#1369,#1370,#1371,#1372,#1373,#1374,#1376,#1378));
#1380=FACE_OUTER_BOUND('',#1379,.F.);
#1382=CARTESIAN_POINT('',(2.086614173228E-1,1.111549441412E-1,
6.199189984001E-1));
#1383=DIRECTION('',(0.E0,0.E0,1.E0));
#1384=DIRECTION('',(1.E0,0.E0,0.E0));
#1385=AXIS2_PLACEMENT_3D('',#1382,#1383,#1384);
#1386=PLANE('',#1385);
#1387=ORIENTED_EDGE('',*,*,#1069,.T.);
#1389=ORIENTED_EDGE('',*,*,#1388,.T.);
#1391=ORIENTED_EDGE('',*,*,#1390,.T.);
#1392=ORIENTED_EDGE('',*,*,#1375,.F.);
#1393=EDGE_LOOP('',(#1387,#1389,#1391,#1392));
#1394=FACE_OUTER_BOUND('',#1393,.F.);
#1396=CARTESIAN_POINT('',(3.004509661412E-1,6.889763779528E-2,
6.170017213831E-1));
#1397=DIRECTION('',(3.746065934156E-1,0.E0,9.271838545669E-1));
#1398=DIRECTION('',(9.271838545669E-1,0.E0,-3.746065934156E-1));
#1399=AXIS2_PLACEMENT_3D('',#1396,#1397,#1398);
#1400=PLANE('',#1399);
#1401=ORIENTED_EDGE('',*,*,#1388,.F.);
#1402=ORIENTED_EDGE('',*,*,#1067,.F.);
#1403=ORIENTED_EDGE('',*,*,#1085,.F.);
#1405=ORIENTED_EDGE('',*,*,#1404,.F.);
#1406=EDGE_LOOP('',(#1401,#1402,#1403,#1405));
#1407=FACE_OUTER_BOUND('',#1406,.F.);
#1409=CARTESIAN_POINT('',(2.086614173228E-1,1.111549441412E-1,
6.053176778557E-1));
#1410=DIRECTION('',(-1.E0,0.E0,0.E0));
#1411=DIRECTION('',(0.E0,-1.E0,0.E0));
#1412=AXIS2_PLACEMENT_3D('',#1409,#1410,#1411);
#1415=DIRECTION('',(1.E0,0.E0,0.E0));
#1416=VECTOR('',#1415,1.E0);
#1417=SURFACE_OF_LINEAR_EXTRUSION('',#1414,#1416);
#1418=ORIENTED_EDGE('',*,*,#1390,.F.);
#1419=ORIENTED_EDGE('',*,*,#1404,.T.);
#1420=ORIENTED_EDGE('',*,*,#1083,.T.);
#1421=ORIENTED_EDGE('',*,*,#1106,.F.);
#1422=ORIENTED_EDGE('',*,*,#1377,.F.);
#1423=EDGE_LOOP('',(#1418,#1419,#1420,#1421,#1422));
#1424=FACE_OUTER_BOUND('',#1423,.F.);
#1428=FILL_AREA_STYLE_COLOUR('',#5);
#1429=FILL_AREA_STYLE('',(#1428));
#1430=SURFACE_STYLE_FILL_AREA(#1429);
#1431=SURFACE_SIDE_STYLE('',(#1430));
#1432=SURFACE_STYLE_USAGE(.BOTH.,#1431);
#1433=PRESENTATION_STYLE_ASSIGNMENT((#1432));
#16=STYLED_ITEM('',(#1433),#1427);
#1434=PRESENTATION_LAYER_ASSIGNMENT('SHELL_202','',(#16,#883,#898,#912,#930,
#947,#952,#967,#984,#989,#1002,#1007,#1020,#1039,#1054,#1060,#1075,#1096,#1111,
#1129,#1148,#1153,#1165,#1170,#1184,#1199,#1217,#1232,#1237,#1253,#1269,#1287,
#1299,#1314,#1329,#1344,#1363,#1381,#1395,#1408,#1414,#1425));
#1436=LENGTH_MEASURE_WITH_UNIT(LENGTH_MEASURE(2.54E1),#1435);
#1437=(CONVERSION_BASED_UNIT('INCH',#1436)LENGTH_UNIT()NAMED_UNIT(*));
#1439=PLANE_ANGLE_MEASURE_WITH_UNIT(PLANE_ANGLE_MEASURE(1.745329251994E-2),
#1438);
#1440=(CONVERSION_BASED_UNIT('DEGREE',#1439)NAMED_UNIT(*)PLANE_ANGLE_UNIT());
#1442=UNCERTAINTY_MEASURE_WITH_UNIT(LENGTH_MEASURE(1.666111589647E-5),#1437,
'closure',
'Maximum model space distance between geometric entities at asserted connectivities');
#1444=CARTESIAN_POINT('',(0.E0,0.E0,0.E0));
#1445=DIRECTION('',(0.E0,0.E0,1.E0));
#1446=DIRECTION('',(1.E0,0.E0,0.E0));
#1449=MECHANICAL_DESIGN_GEOMETRIC_PRESENTATION_REPRESENTATION('',(#24,#31,#38,
#45,#52,#59,#66,#73,#80,#87,#94,#101,#108,#122,#136,#143,#152,#159,#166,#178,
#185,#192,#199,#206,#214,#221,#228,#235,#244,#254,#261,#274,#281,#288,#295,#302,
#309,#317,#324,#335,#343,#350,#358,#369,#384,#391,#406,#413,#423,#430,#438,#445,
#457,#464,#471,#478,#487,#504,#512,#519,#536,#543,#550,#564,#578,#585,#592,#600,
#607,#614,#621,#628,#635,#642,#649,#656,#664,#671,#679,#686,#693,#703,#710,#717,
#724,#731,#741,#750,#757,#770,#16),#1443);
#1450=APPLICATION_CONTEXT('automotive design');
#1451=APPLICATION_PROTOCOL_DEFINITION('international standard',
'config_control_design',1994,#1450);
#1452=PRODUCT_DEFINITION_CONTEXT('',#1450,'design');
#1453=PRODUCT_CONTEXT('',#1450,'mechanical');
#1454=PRODUCT('MIRROR10','MIRROR10','NOT SPECIFIED',(#1453));
#1455=PRODUCT_DEFINITION_FORMATION_WITH_SPECIFIED_SOURCE('1','LAST_VERSION',
#1454,.MADE.);
#1463=LENGTH_MEASURE_WITH_UNIT(LENGTH_MEASURE(2.54E1),#1462);
#1464=(CONVERSION_BASED_UNIT('INCH',#1463)LENGTH_UNIT()NAMED_UNIT(*));
#1465=DERIVED_UNIT_ELEMENT(#1464,2.E0);
#1466=AREA_UNIT((#1465));
#1467=MEASURE_REPRESENTATION_ITEM('surface area measure',AREA_MEASURE(
1.452623257211E1),#1466);
#1472=LENGTH_MEASURE_WITH_UNIT(LENGTH_MEASURE(2.54E1),#1471);
#1473=(CONVERSION_BASED_UNIT('INCH',#1472)LENGTH_UNIT()NAMED_UNIT(*));
#1474=DERIVED_UNIT_ELEMENT(#1473,3.E0);
#1475=VOLUME_UNIT((#1474));
#1476=MEASURE_REPRESENTATION_ITEM('volume measure',VOLUME_MEASURE(
1.173592607314E0),#1475);
#1480=CARTESIAN_POINT('centre point',(7.187476230221E0,2.997428230438E0,
1.383485000103E1));
#1485=LENGTH_MEASURE_WITH_UNIT(LENGTH_MEASURE(2.54E1),#1484);
#1486=(CONVERSION_BASED_UNIT('INCH',#1485)LENGTH_UNIT()NAMED_UNIT(*));
#1487=DERIVED_UNIT_ELEMENT(#1486,2.E0);
#1488=AREA_UNIT((#1487));
#1489=MEASURE_REPRESENTATION_ITEM('surface area measure',AREA_MEASURE(
1.452623257211E1),#1488);
#1494=LENGTH_MEASURE_WITH_UNIT(LENGTH_MEASURE(2.54E1),#1493);
#1495=(CONVERSION_BASED_UNIT('INCH',#1494)LENGTH_UNIT()NAMED_UNIT(*));
#1496=DERIVED_UNIT_ELEMENT(#1495,3.E0);
#1497=VOLUME_UNIT((#1496));
#1498=MEASURE_REPRESENTATION_ITEM('volume measure',VOLUME_MEASURE(
1.173592607314E0),#1497);
#1502=CARTESIAN_POINT('centre point',(7.187476230221E0,2.997428230438E0,
1.383485000103E1));
#1=DRAUGHTING_PRE_DEFINED_COLOUR('green');
#2=COLOUR_RGB('',1.1E-2,1.2E-2,1.E0);
#3=COLOUR_RGB('',2.352941176471E-1,2.352941176471E-1,2.352941176471E-1);
#4=COLOUR_RGB('',4.1E-1,2.61589E-1,1.12848E-1);
#5=COLOUR_RGB('',4.980392156863E-1,4.980392156863E-1,4.980392156863E-1);
#6=COLOUR_RGB('',5.04854E-1,1.5455E-2,1.5455E-2);
#7=COLOUR_RGB('',6.35294E-1,6.86275E-1,7.4902E-1);
#8=COLOUR_RGB('',6.40777E-1,6.40777E-1,6.40777E-1);
#9=COLOUR_RGB('',6.69062E-1,6.69903E-1,6.55217E-1);
#10=COLOUR_RGB('',9.21569E-1,7.05882E-1,4.70588E-1);
#11=DRAUGHTING_PRE_DEFINED_COLOUR('red');
#12=DRAUGHTING_PRE_DEFINED_COLOUR('yellow');
#13=COLOUR_RGB('',1.E0,1.E0,5.3E-1);
#14=COLOUR_RGB('',1.E0,1.E0,9.49E-1);
#15=DRAUGHTING_PRE_DEFINED_COLOUR('white');
#119=B_SPLINE_CURVE_WITH_KNOTS('',3,(#109,#110,#111,#112,#113,#114,#115,#116,
#117,#118),.UNSPECIFIED.,.F.,.F.,(4,1,1,1,1,1,1,4),(0.E0,1.428571428571E-1,
2.857142857143E-1,4.285714285714E-1,5.714285714286E-1,7.142857142857E-1,
8.571428571429E-1,1.E0),.UNSPECIFIED.);
#133=B_SPLINE_CURVE_WITH_KNOTS('',3,(#123,#124,#125,#126,#127,#128,#129,#130,
#131,#132),.UNSPECIFIED.,.F.,.F.,(4,1,1,1,1,1,1,4),(0.E0,1.428571428571E-1,
2.857142857143E-1,4.285714285714E-1,5.714285714286E-1,7.142857142857E-1,
8.571428571429E-1,1.E0),.UNSPECIFIED.);
#149=B_SPLINE_CURVE_WITH_KNOTS('',3,(#144,#145,#146,#147,#148),.UNSPECIFIED.,
.F.,.F.,(4,1,4),(0.E0,5.E-1,1.E0),.UNSPECIFIED.);
#175=B_SPLINE_CURVE_WITH_KNOTS('',3,(#167,#168,#169,#170,#171,#172,#173,#174),
.UNSPECIFIED.,.F.,.F.,(4,1,1,1,1,4),(0.E0,2.E-1,4.E-1,6.E-1,8.E-1,1.E0),
.UNSPECIFIED.);
#211=B_SPLINE_CURVE_WITH_KNOTS('',3,(#207,#208,#209,#210),.UNSPECIFIED.,.F.,.F.,
(4,4),(0.E0,1.E0),.UNSPECIFIED.);
#241=B_SPLINE_CURVE_WITH_KNOTS('',3,(#236,#237,#238,#239,#240),.UNSPECIFIED.,
.F.,.F.,(4,1,4),(0.E0,5.E-1,1.E0),.UNSPECIFIED.);
#251=B_SPLINE_CURVE_WITH_KNOTS('',3,(#245,#246,#247,#248,#249,#250),
.UNSPECIFIED.,.F.,.F.,(4,1,1,4),(0.E0,5.E-1,7.5E-1,1.E0),.UNSPECIFIED.);
#271=B_SPLINE_CURVE_WITH_KNOTS('',3,(#262,#263,#264,#265,#266,#267,#268,#269,
#270),.UNSPECIFIED.,.F.,.F.,(4,1,1,1,1,1,4),(0.E0,1.25E-1,2.5E-1,5.E-1,7.5E-1,
8.75E-1,1.E0),.UNSPECIFIED.);
#314=B_SPLINE_CURVE_WITH_KNOTS('',3,(#310,#311,#312,#313),.UNSPECIFIED.,.F.,.F.,
(4,4),(0.E0,1.E0),.UNSPECIFIED.);
#332=B_SPLINE_CURVE_WITH_KNOTS('',3,(#325,#326,#327,#328,#329,#330,#331),
.UNSPECIFIED.,.F.,.F.,(4,1,1,1,4),(0.E0,2.5E-1,5.E-1,7.5E-1,1.E0),
.UNSPECIFIED.);
#340=B_SPLINE_CURVE_WITH_KNOTS('',3,(#336,#337,#338,#339),.UNSPECIFIED.,.F.,.F.,
(4,4),(0.E0,1.E0),.UNSPECIFIED.);
#355=B_SPLINE_CURVE_WITH_KNOTS('',3,(#351,#352,#353,#354),.UNSPECIFIED.,.F.,.F.,
(4,4),(0.E0,1.E0),.UNSPECIFIED.);
#366=B_SPLINE_CURVE_WITH_KNOTS('',3,(#359,#360,#361,#362,#363,#364,#365),
.UNSPECIFIED.,.F.,.F.,(4,1,1,1,4),(0.E0,2.5E-1,5.E-1,7.5E-1,1.E0),
.UNSPECIFIED.);
#381=B_SPLINE_CURVE_WITH_KNOTS('',3,(#370,#371,#372,#373,#374,#375,#376,#377,
#378,#379,#380),.UNSPECIFIED.,.F.,.F.,(4,1,1,1,1,1,1,1,4),(0.E0,1.25E-1,2.5E-1,
3.75E-1,5.E-1,6.25E-1,7.5E-1,8.75E-1,1.E0),.UNSPECIFIED.);
#403=B_SPLINE_CURVE_WITH_KNOTS('',3,(#392,#393,#394,#395,#396,#397,#398,#399,
#400,#401,#402),.UNSPECIFIED.,.F.,.F.,(4,1,1,1,1,1,1,1,4),(0.E0,1.25E-1,2.5E-1,
3.75E-1,5.E-1,6.25E-1,7.5E-1,8.75E-1,1.E0),.UNSPECIFIED.);
#420=B_SPLINE_CURVE_WITH_KNOTS('',3,(#414,#415,#416,#417,#418,#419),
.UNSPECIFIED.,.F.,.F.,(4,1,1,4),(0.E0,3.333333333333E-1,6.666666666667E-1,1.E0),
.UNSPECIFIED.);
#435=B_SPLINE_CURVE_WITH_KNOTS('',3,(#431,#432,#433,#434),.UNSPECIFIED.,.F.,.F.,
(4,4),(0.E0,1.E0),.UNSPECIFIED.);
#454=B_SPLINE_CURVE_WITH_KNOTS('',3,(#446,#447,#448,#449,#450,#451,#452,#453),
.UNSPECIFIED.,.F.,.F.,(4,1,1,1,1,4),(0.E0,2.E-1,4.E-1,6.E-1,8.E-1,1.E0),
.UNSPECIFIED.);
#484=B_SPLINE_CURVE_WITH_KNOTS('',3,(#479,#480,#481,#482,#483),.UNSPECIFIED.,
.F.,.F.,(4,1,4),(0.E0,5.E-1,1.E0),.UNSPECIFIED.);
#501=B_SPLINE_CURVE_WITH_KNOTS('',3,(#488,#489,#490,#491,#492,#493,#494,#495,
#496,#497,#498,#499,#500),.UNSPECIFIED.,.F.,.F.,(4,1,1,1,1,1,1,1,1,1,4),(0.E0,
1.E-1,2.E-1,3.E-1,4.E-1,5.E-1,6.E-1,7.E-1,8.E-1,9.E-1,1.E0),.UNSPECIFIED.);
#509=B_SPLINE_CURVE_WITH_KNOTS('',3,(#505,#506,#507,#508),.UNSPECIFIED.,.F.,.F.,
(4,4),(0.E0,1.E0),.UNSPECIFIED.);
#533=B_SPLINE_CURVE_WITH_KNOTS('',3,(#520,#521,#522,#523,#524,#525,#526,#527,
#528,#529,#530,#531,#532),.UNSPECIFIED.,.F.,.F.,(4,1,1,1,1,1,1,1,1,1,4),(0.E0,
1.E-1,2.E-1,3.E-1,4.E-1,5.E-1,6.E-1,7.E-1,8.E-1,9.E-1,1.E0),.UNSPECIFIED.);
#561=B_SPLINE_CURVE_WITH_KNOTS('',3,(#551,#552,#553,#554,#555,#556,#557,#558,
#559,#560),.UNSPECIFIED.,.F.,.F.,(4,1,1,1,1,1,1,4),(0.E0,1.428571428571E-1,
2.857142857143E-1,4.285714285714E-1,5.714285714286E-1,7.142857142857E-1,
8.571428571429E-1,1.E0),.UNSPECIFIED.);
#575=B_SPLINE_CURVE_WITH_KNOTS('',3,(#565,#566,#567,#568,#569,#570,#571,#572,
#573,#574),.UNSPECIFIED.,.F.,.F.,(4,1,1,1,1,1,1,4),(0.E0,1.428571428571E-1,
2.857142857143E-1,4.285714285714E-1,5.714285714286E-1,7.142857142857E-1,
8.571428571429E-1,1.E0),.UNSPECIFIED.);
#597=B_SPLINE_CURVE_WITH_KNOTS('',3,(#593,#594,#595,#596),.UNSPECIFIED.,.F.,.F.,
(4,4),(0.E0,1.E0),.UNSPECIFIED.);
#661=B_SPLINE_CURVE_WITH_KNOTS('',3,(#657,#658,#659,#660),.UNSPECIFIED.,.F.,.F.,
(4,4),(0.E0,1.E0),.UNSPECIFIED.);
#676=B_SPLINE_CURVE_WITH_KNOTS('',3,(#672,#673,#674,#675),.UNSPECIFIED.,.F.,.F.,
(4,4),(0.E0,1.E0),.UNSPECIFIED.);
#700=B_SPLINE_CURVE_WITH_KNOTS('',3,(#694,#695,#696,#697,#698,#699),
.UNSPECIFIED.,.F.,.F.,(4,1,1,4),(0.E0,3.333333333333E-1,6.666666666667E-1,1.E0),
.UNSPECIFIED.);
#738=B_SPLINE_CURVE_WITH_KNOTS('',3,(#732,#733,#734,#735,#736,#737),
.UNSPECIFIED.,.F.,.F.,(4,1,1,4),(0.E0,2.5E-1,5.E-1,1.E0),.UNSPECIFIED.);
#747=B_SPLINE_CURVE_WITH_KNOTS('',3,(#742,#743,#744,#745,#746),.UNSPECIFIED.,
.F.,.F.,(4,1,4),(0.E0,5.E-1,1.E0),.UNSPECIFIED.);
#767=B_SPLINE_CURVE_WITH_KNOTS('',3,(#758,#759,#760,#761,#762,#763,#764,#765,
#766),.UNSPECIFIED.,.F.,.F.,(4,1,1,1,1,1,4),(0.E0,1.25E-1,2.5E-1,5.E-1,7.5E-1,
8.75E-1,1.E0),.UNSPECIFIED.);
#871=EDGE_CURVE('',#805,#803,#20,.T.);
#873=EDGE_CURVE('',#865,#805,#28,.T.);
#875=EDGE_CURVE('',#859,#865,#35,.T.);
#877=EDGE_CURVE('',#807,#859,#42,.T.);
#879=EDGE_CURVE('',#803,#807,#49,.T.);
#883=ADVANCED_FACE('',(#882),#870,.T.);
#889=EDGE_CURVE('',#774,#803,#56,.T.);
#891=EDGE_CURVE('',#773,#774,#63,.T.);
#893=EDGE_CURVE('',#773,#805,#618,.T.);
#898=ADVANCED_FACE('',(#897),#888,.T.);
#904=EDGE_CURVE('',#776,#807,#70,.T.);
#906=EDGE_CURVE('',#774,#776,#77,.T.);
#912=ADVANCED_FACE('',(#911),#903,.T.);
#918=EDGE_CURVE('',#810,#811,#84,.T.);
#920=EDGE_CURVE('',#776,#810,#91,.T.);
#924=EDGE_CURVE('',#859,#861,#646,.T.);
#926=EDGE_CURVE('',#861,#811,#611,.T.);
#930=ADVANCED_FACE('',(#929),#917,.T.);
#936=EDGE_CURVE('',#831,#838,#140,.T.);
#938=EDGE_CURVE('',#838,#856,#676,.T.);
#940=EDGE_CURVE('',#810,#856,#98,.T.);
#943=EDGE_CURVE('',#811,#831,#604,.T.);
#947=ADVANCED_FACE('',(#946),#935,.T.);
#952=B_SPLINE_CURVE_WITH_KNOTS('',3,(#948,#949,#950,#951),.UNSPECIFIED.,.F.,.F.,
(4,4),(0.E0,1.E0),.UNSPECIFIED.);
#956=EDGE_CURVE('',#841,#832,#105,.T.);
#958=EDGE_CURVE('',#839,#841,#119,.T.);
#960=EDGE_CURVE('',#838,#839,#133,.T.);
#963=EDGE_CURVE('',#831,#832,#533,.T.);
#967=ADVANCED_FACE('',(#966),#955,.F.);
#973=EDGE_CURVE('',#844,#845,#182,.T.);
#975=EDGE_CURVE('',#848,#845,#149,.T.);
#977=EDGE_CURVE('',#841,#848,#156,.T.);
#980=EDGE_CURVE('',#832,#844,#468,.T.);
#984=ADVANCED_FACE('',(#983),#972,.T.);
#989=B_SPLINE_CURVE_WITH_KNOTS('',3,(#985,#986,#987,#988),.UNSPECIFIED.,.F.,.F.,
(4,4),(0.E0,1.E0),.UNSPECIFIED.);
#993=EDGE_CURVE('',#851,#846,#163,.T.);
#995=EDGE_CURVE('',#845,#851,#175,.T.);
#998=EDGE_CURVE('',#844,#846,#381,.T.);
#1002=ADVANCED_FACE('',(#1001),#992,.F.);
#1007=B_SPLINE_CURVE_WITH_KNOTS('',3,(#1003,#1004,#1005,#1006),.UNSPECIFIED.,
.F.,.F.,(4,4),(0.E0,1.E0),.UNSPECIFIED.);
#1011=EDGE_CURVE('',#816,#817,#189,.T.);
#1013=EDGE_CURVE('',#851,#816,#700,.T.);
#1016=EDGE_CURVE('',#846,#817,#366,.T.);
#1020=ADVANCED_FACE('',(#1019),#1010,.F.);
#1026=EDGE_CURVE('',#779,#813,#196,.T.);
#1028=EDGE_CURVE('',#852,#779,#203,.T.);
#1030=EDGE_CURVE('',#816,#852,#211,.T.);
#1033=EDGE_CURVE('',#817,#853,#355,.T.);
#1035=EDGE_CURVE('',#853,#813,#278,.T.);
#1039=ADVANCED_FACE('',(#1038),#1025,.T.);
#1045=EDGE_CURVE('',#794,#780,#232,.T.);
#1047=EDGE_CURVE('',#779,#780,#218,.T.);
#1050=EDGE_CURVE('',#794,#813,#225,.T.);
#1054=ADVANCED_FACE('',(#1053),#1044,.T.);
#1059=ELLIPSE('',#1058,1.574803149606E-2,1.460132054436E-2);
#1060=TRIMMED_CURVE('',#1059,(PARAMETER_VALUE(9.E1)),(PARAMETER_VALUE(1.72E2)),
.T.,.UNSPECIFIED.);
#1065=EDGE_CURVE('',#794,#795,#241,.T.);
#1067=EDGE_CURVE('',#795,#793,#251,.T.);
#1069=EDGE_CURVE('',#787,#793,#258,.T.);
#1071=EDGE_CURVE('',#780,#787,#271,.T.);
#1075=ADVANCED_FACE('',(#1074),#1063,.F.);
#1081=EDGE_CURVE('',#797,#791,#306,.T.);
#1083=EDGE_CURVE('',#790,#791,#747,.T.);
#1085=EDGE_CURVE('',#790,#795,#721,.T.);
#1090=EDGE_CURVE('',#853,#855,#347,.T.);
#1092=EDGE_CURVE('',#797,#855,#285,.T.);
#1096=ADVANCED_FACE('',(#1095),#1080,.T.);
#1102=EDGE_CURVE('',#789,#797,#292,.T.);
#1104=EDGE_CURVE('',#785,#789,#299,.T.);
#1106=EDGE_CURVE('',#785,#791,#754,.T.);
#1111=ADVANCED_FACE('',(#1110),#1101,.T.);
#1117=EDGE_CURVE('',#855,#800,#340,.T.);
#1119=EDGE_CURVE('',#800,#801,#427,.T.);
#1121=EDGE_CURVE('',#854,#801,#314,.T.);
#1123=EDGE_CURVE('',#789,#854,#321,.T.);
#1129=ADVANCED_FACE('',(#1128),#1116,.T.);
#1135=EDGE_CURVE('',#800,#821,#332,.T.);
#1142=EDGE_CURVE('',#828,#844,#388,.T.);
#1144=EDGE_CURVE('',#821,#828,#403,.T.);
#1148=ADVANCED_FACE('',(#1147),#1134,.F.);
#1153=B_SPLINE_CURVE_WITH_KNOTS('',3,(#1149,#1150,#1151,#1152),.UNSPECIFIED.,
.F.,.F.,(4,4),(0.E0,1.E0),.UNSPECIFIED.);
#1157=EDGE_CURVE('',#820,#821,#410,.T.);
#1159=EDGE_CURVE('',#801,#820,#420,.T.);
#1165=ADVANCED_FACE('',(#1164),#1156,.F.);
#1170=B_SPLINE_CURVE_WITH_KNOTS('',3,(#1166,#1167,#1168,#1169),.UNSPECIFIED.,
.F.,.F.,(4,4),(0.E0,1.E0),.UNSPECIFIED.);
#1174=EDGE_CURVE('',#828,#825,#435,.T.);
#1176=EDGE_CURVE('',#824,#825,#442,.T.);
#1178=EDGE_CURVE('',#820,#824,#454,.T.);
#1184=ADVANCED_FACE('',(#1183),#1173,.F.);
#1190=EDGE_CURVE('',#825,#827,#461,.T.);
#1195=EDGE_CURVE('',#832,#827,#516,.T.);
#1199=ADVANCED_FACE('',(#1198),#1189,.T.);
#1205=EDGE_CURVE('',#827,#835,#509,.T.);
#1207=EDGE_CURVE('',#835,#837,#582,.T.);
#1209=EDGE_CURVE('',#850,#837,#475,.T.);
#1211=EDGE_CURVE('',#824,#850,#484,.T.);
#1217=ADVANCED_FACE('',(#1216),#1204,.T.);
#1223=EDGE_CURVE('',#835,#836,#501,.T.);
#1228=EDGE_CURVE('',#836,#831,#540,.T.);
#1232=ADVANCED_FACE('',(#1231),#1222,.T.);
#1237=B_SPLINE_CURVE_WITH_KNOTS('',3,(#1233,#1234,#1235,#1236),.UNSPECIFIED.,
.F.,.F.,(4,4),(0.E0,1.E0),.UNSPECIFIED.);
#1241=EDGE_CURVE('',#836,#834,#597,.T.);
#1243=EDGE_CURVE('',#830,#834,#547,.T.);
#1245=EDGE_CURVE('',#829,#830,#561,.T.);
#1247=EDGE_CURVE('',#837,#829,#575,.T.);
#1253=ADVANCED_FACE('',(#1252),#1240,.F.);
#1259=EDGE_CURVE('',#834,#863,#589,.T.);
#1265=EDGE_CURVE('',#861,#863,#639,.T.);
#1269=ADVANCED_FACE('',(#1268),#1258,.T.);
#1275=EDGE_CURVE('',#863,#865,#632,.T.);
#1279=EDGE_CURVE('',#857,#773,#625,.T.);
#1281=EDGE_CURVE('',#857,#830,#661,.T.);
#1287=ADVANCED_FACE('',(#1286),#1274,.T.);
#1299=ADVANCED_FACE('',(#1298),#1292,.T.);
#1305=EDGE_CURVE('',#856,#857,#668,.T.);
#1314=ADVANCED_FACE('',(#1313),#1304,.T.);
#1320=EDGE_CURVE('',#829,#839,#653,.T.);
#1329=ADVANCED_FACE('',(#1328),#1319,.F.);
#1335=EDGE_CURVE('',#848,#850,#690,.T.);
#1344=ADVANCED_FACE('',(#1343),#1334,.T.);
#1350=EDGE_CURVE('',#854,#852,#683,.T.);
#1363=ADVANCED_FACE('',(#1362),#1349,.T.);
#1375=EDGE_CURVE('',#787,#784,#707,.T.);
#1377=EDGE_CURVE('',#784,#785,#767,.T.);
#1381=ADVANCED_FACE('',(#1380),#1368,.T.);
#1388=EDGE_CURVE('',#793,#783,#714,.T.);
#1390=EDGE_CURVE('',#783,#784,#728,.T.);
#1395=ADVANCED_FACE('',(#1394),#1386,.T.);
#1404=EDGE_CURVE('',#783,#790,#738,.T.);
#1408=ADVANCED_FACE('',(#1407),#1400,.T.);
#1413=ELLIPSE('',#1412,1.574803149606E-2,1.460132054436E-2);
#1414=TRIMMED_CURVE('',#1413,(PARAMETER_VALUE(8.000000000001E0)),(PARAMETER_VALUE(9.E1)),.T.,.UNSPECIFIED.);
#1425=ADVANCED_FACE('',(#1424),#1417,.F.);
#1426=CLOSED_SHELL('',(#883,#898,#912,#930,#947,#967,#984,#1002,#1020,#1039,
#1054,#1075,#1096,#1111,#1129,#1148,#1165,#1184,#1199,#1217,#1232,#1253,#1269,
#1287,#1299,#1314,#1329,#1344,#1363,#1381,#1395,#1408,#1425));
#1427=MANIFOLD_SOLID_BREP('',#1426);
#1435=(LENGTH_UNIT()NAMED_UNIT(*)SI_UNIT(.MILLI.,.METRE.));
#1438=(NAMED_UNIT(*)PLANE_ANGLE_UNIT()SI_UNIT($,.RADIAN.));
#1441=(NAMED_UNIT(*)SI_UNIT($,.STERADIAN.)SOLID_ANGLE_UNIT());
#1443=(GEOMETRIC_REPRESENTATION_CONTEXT(3)GLOBAL_UNCERTAINTY_ASSIGNED_CONTEXT((
#1442))GLOBAL_UNIT_ASSIGNED_CONTEXT((#1437,#1440,#1441))REPRESENTATION_CONTEXT(
'ID1','3'));
#1447=AXIS2_PLACEMENT_3D('',#1444,#1445,#1446);
#1448=ADVANCED_BREP_SHAPE_REPRESENTATION('',(#1447,#1427),#1443);
#1456=PRODUCT_DEFINITION('design','',#1455,#1452);
#1457=PRODUCT_DEFINITION_SHAPE('','SHAPE FOR MIRROR10.',#1456);
#1458=SHAPE_ASPECT('','solid data associated with MIRROR10',#1457,.F.);
#1459=PROPERTY_DEFINITION('',
'shape for solid data with which properties are associated',#1458);
#1460=SHAPE_REPRESENTATION('',(#1427),#1443);
#1461=SHAPE_DEFINITION_REPRESENTATION(#1459,#1460);
#1462=(LENGTH_UNIT()NAMED_UNIT(*)SI_UNIT(.MILLI.,.METRE.));
#1468=PROPERTY_DEFINITION('geometric validation property','area of MIRROR10',
#1458);
#1469=REPRESENTATION('surface area',(#1467),#1443);
#1470=PROPERTY_DEFINITION_REPRESENTATION(#1468,#1469);
#1471=(LENGTH_UNIT()NAMED_UNIT(*)SI_UNIT(.MILLI.,.METRE.));
#1477=PROPERTY_DEFINITION('geometric validation property','volume of MIRROR10',
#1458);
#1478=REPRESENTATION('volume',(#1476),#1443);
#1479=PROPERTY_DEFINITION_REPRESENTATION(#1477,#1478);
#1481=PROPERTY_DEFINITION('geometric validation property',
'centroid of MIRROR10',#1458);
#1482=REPRESENTATION('centroid',(#1480),#1443);
#1483=PROPERTY_DEFINITION_REPRESENTATION(#1481,#1482);
#1484=(LENGTH_UNIT()NAMED_UNIT(*)SI_UNIT(.MILLI.,.METRE.));
#1490=PROPERTY_DEFINITION('geometric validation property','area of MIRROR10',
#1457);
#1491=REPRESENTATION('surface area',(#1489),#1443);
#1492=PROPERTY_DEFINITION_REPRESENTATION(#1490,#1491);
#1493=(LENGTH_UNIT()NAMED_UNIT(*)SI_UNIT(.MILLI.,.METRE.));
#1499=PROPERTY_DEFINITION('geometric validation property','volume of MIRROR10',
#1457);
#1500=REPRESENTATION('volume',(#1498),#1443);
#1501=PROPERTY_DEFINITION_REPRESENTATION(#1499,#1500);
#1503=PROPERTY_DEFINITION('geometric validation property',
'centroid of MIRROR10',#1457);
#1504=REPRESENTATION('centroid',(#1502),#1443);
#1505=PROPERTY_DEFINITION_REPRESENTATION(#1503,#1504);
#1506=SHAPE_DEFINITION_REPRESENTATION(#1457,#1448);
ENDSEC;
END-ISO-10303-21;
