ISO-10303-21;
HEADER;
FILE_DESCRIPTION((''),'2;1');
FILE_NAME('MIRROR29100','2026-06-15T13:46:12',('Esia'),(''),
'CREO PARAMETRIC BY PTC INC, 2025102','CREO PARAMETRIC BY PTC INC, 2025102','');
FILE_SCHEMA((
'AP242_MANAGED_MODEL_BASED_3D_ENGINEERING_MIM_LF { 1 0 10303 442 1 1 4 }'));
ENDSEC;
DATA;
#17=DIRECTION('',(0.E0,0.E0,1.E0));
#18=VECTOR('',#17,3.157737505644E-2);
#19=CARTESIAN_POINT('',(-2.503647073641E-2,2.598425196850E-1,
5.063893340315E-1));
#20=LINE('',#19,#18);
#21=DRAUGHTING_PRE_DEFINED_CURVE_FONT('continuous');
#22=CURVE_STYLE('',#21,POSITIVE_LENGTH_MEASURE(2.E-2),#9);
#23=PRESENTATION_STYLE_ASSIGNMENT((#22));
#24=STYLED_ITEM('',(#23),#20);
#25=DIRECTION('',(0.E0,3.713906763541E-1,9.284766908853E-1));
#26=VECTOR('',#25,2.120143624856E-2);
#27=CARTESIAN_POINT('',(-2.503647073641E-2,2.519685039370E-1,
4.867042946614E-1));
#28=LINE('',#27,#26);
#29=CURVE_STYLE('',#21,POSITIVE_LENGTH_MEASURE(2.E-2),#9);
#30=PRESENTATION_STYLE_ASSIGNMENT((#29));
#31=STYLED_ITEM('',(#30),#28);
#32=DIRECTION('',(0.E0,1.E0,0.E0));
#33=VECTOR('',#32,1.968503937008E-3);
#34=CARTESIAN_POINT('',(-2.503647073641E-2,2.5E-1,4.867042946614E-1));
#35=LINE('',#34,#33);
#36=CURVE_STYLE('',#21,POSITIVE_LENGTH_MEASURE(2.E-2),#9);
#37=PRESENTATION_STYLE_ASSIGNMENT((#36));
#38=STYLED_ITEM('',(#37),#35);
#39=DIRECTION('',(0.E0,0.E0,-1.E0));
#40=VECTOR('',#39,5.126241442652E-2);
#41=CARTESIAN_POINT('',(-2.503647073641E-2,2.5E-1,5.379667090880E-1));
#42=LINE('',#41,#40);
#43=CURVE_STYLE('',#21,POSITIVE_LENGTH_MEASURE(2.E-2),#9);
#44=PRESENTATION_STYLE_ASSIGNMENT((#43));
#45=STYLED_ITEM('',(#44),#42);
#46=DIRECTION('',(0.E0,-1.E0,1.127986593019E-14));
#47=VECTOR('',#46,9.842519685039E-3);
#48=CARTESIAN_POINT('',(-2.503647073641E-2,2.598425196850E-1,
5.379667090880E-1));
#49=LINE('',#48,#47);
#50=CURVE_STYLE('',#21,POSITIVE_LENGTH_MEASURE(2.E-2),#9);
#51=PRESENTATION_STYLE_ASSIGNMENT((#50));
#52=STYLED_ITEM('',(#51),#49);
#53=DIRECTION('',(-1.E0,0.E0,0.E0));
#54=VECTOR('',#53,1.592618700630E-2);
#55=CARTESIAN_POINT('',(-2.503647073641E-2,2.598425196850E-1,
5.063893340315E-1));
#56=LINE('',#55,#54);
#57=CURVE_STYLE('',#21,POSITIVE_LENGTH_MEASURE(2.E-2),#9);
#58=PRESENTATION_STYLE_ASSIGNMENT((#57));
#59=STYLED_ITEM('',(#58),#56);
#60=DIRECTION('',(0.E0,-1.E0,0.E0));
#61=VECTOR('',#60,1.968503937008E-3);
#62=CARTESIAN_POINT('',(-4.096265774271E-2,2.519685039370E-1,
4.867042946614E-1));
#63=LINE('',#62,#61);
#64=CURVE_STYLE('',#21,POSITIVE_LENGTH_MEASURE(2.E-2),#9);
#65=PRESENTATION_STYLE_ASSIGNMENT((#64));
#66=STYLED_ITEM('',(#65),#63);
#67=DIRECTION('',(0.E0,-3.713906763541E-1,-9.284766908853E-1));
#68=VECTOR('',#67,2.120143624856E-2);
#69=CARTESIAN_POINT('',(-4.096265774271E-2,2.598425196850E-1,
5.063893340315E-1));
#70=LINE('',#69,#68);
#71=CURVE_STYLE('',#21,POSITIVE_LENGTH_MEASURE(2.E-2),#9);
#72=PRESENTATION_STYLE_ASSIGNMENT((#71));
#73=STYLED_ITEM('',(#72),#70);
#74=DIRECTION('',(0.E0,0.E0,-1.E0));
#75=VECTOR('',#74,3.157737505644E-2);
#76=CARTESIAN_POINT('',(-4.096265774271E-2,2.598425196850E-1,
5.379667090880E-1));
#77=LINE('',#76,#75);
#78=CURVE_STYLE('',#21,POSITIVE_LENGTH_MEASURE(2.E-2),#9);
#79=PRESENTATION_STYLE_ASSIGNMENT((#78));
#80=STYLED_ITEM('',(#79),#77);
#81=DIRECTION('',(0.E0,0.E0,1.E0));
#82=VECTOR('',#81,5.126241442652E-2);
#83=CARTESIAN_POINT('',(-4.096265774271E-2,2.5E-1,4.867042946614E-1));
#84=LINE('',#83,#82);
#85=CURVE_STYLE('',#21,POSITIVE_LENGTH_MEASURE(2.E-2),#9);
#86=PRESENTATION_STYLE_ASSIGNMENT((#85));
#87=STYLED_ITEM('',(#86),#84);
#88=DIRECTION('',(1.E0,0.E0,0.E0));
#89=VECTOR('',#88,1.592618700630E-2);
#90=CARTESIAN_POINT('',(-4.096265774271E-2,2.519685039370E-1,
4.867042946614E-1));
#91=LINE('',#90,#89);
#92=CURVE_STYLE('',#21,POSITIVE_LENGTH_MEASURE(2.E-2),#9);
#93=PRESENTATION_STYLE_ASSIGNMENT((#92));
#94=STYLED_ITEM('',(#93),#91);
#95=DIRECTION('',(-1.E0,0.E0,0.E0));
#96=VECTOR('',#95,1.592618700630E-2);
#97=CARTESIAN_POINT('',(-2.503647073641E-2,2.5E-1,4.867042946614E-1));
#98=LINE('',#97,#96);
#99=CURVE_STYLE('',#21,POSITIVE_LENGTH_MEASURE(2.E-2),#9);
#100=PRESENTATION_STYLE_ASSIGNMENT((#99));
#101=STYLED_ITEM('',(#100),#98);
#102=DIRECTION('',(1.E0,0.E0,0.E0));
#103=VECTOR('',#102,1.592618700630E-2);
#104=CARTESIAN_POINT('',(-4.096265774271E-2,2.5E-1,5.379667090880E-1));
#105=LINE('',#104,#103);
#106=CURVE_STYLE('',#21,POSITIVE_LENGTH_MEASURE(2.E-2),#9);
#107=PRESENTATION_STYLE_ASSIGNMENT((#106));
#108=STYLED_ITEM('',(#107),#105);
#109=DIRECTION('',(0.E0,-1.E0,1.127986593019E-14));
#110=VECTOR('',#109,9.842519685039E-3);
#111=CARTESIAN_POINT('',(-4.096265774271E-2,2.598425196850E-1,
5.379667090880E-1));
#112=LINE('',#111,#110);
#113=CURVE_STYLE('',#21,POSITIVE_LENGTH_MEASURE(2.E-2),#9);
#114=PRESENTATION_STYLE_ASSIGNMENT((#113));
#115=STYLED_ITEM('',(#114),#112);
#116=DIRECTION('',(-1.E0,0.E0,0.E0));
#117=VECTOR('',#116,1.592618700630E-2);
#118=CARTESIAN_POINT('',(-2.503647073641E-2,2.598425196850E-1,
5.379667090880E-1));
#119=LINE('',#118,#117);
#120=CURVE_STYLE('',#21,POSITIVE_LENGTH_MEASURE(2.E-2),#9);
#121=PRESENTATION_STYLE_ASSIGNMENT((#120));
#122=STYLED_ITEM('',(#121),#119);
#123=CARTESIAN_POINT('',(-4.096265774271E-2,2.598425196850E-1,
5.063893340315E-1));
#124=CARTESIAN_POINT('',(-4.096265774271E-2,2.519685039370E-1,
4.867042946614E-1));
#125=VERTEX_POINT('',#123);
#126=VERTEX_POINT('',#124);
#127=CARTESIAN_POINT('',(-2.503647073641E-2,2.519685039370E-1,
4.867042946614E-1));
#128=VERTEX_POINT('',#127);
#129=CARTESIAN_POINT('',(-2.503647073641E-2,2.598425196850E-1,
5.379667090880E-1));
#130=CARTESIAN_POINT('',(-4.096265774271E-2,2.598425196850E-1,
5.379667090880E-1));
#131=VERTEX_POINT('',#129);
#132=VERTEX_POINT('',#130);
#133=CARTESIAN_POINT('',(-2.503647073641E-2,2.598425196850E-1,
5.063893340315E-1));
#134=VERTEX_POINT('',#133);
#135=CARTESIAN_POINT('',(-2.503647073641E-2,2.5E-1,5.379667090880E-1));
#136=VERTEX_POINT('',#135);
#137=CARTESIAN_POINT('',(-4.096265774271E-2,2.5E-1,5.379667090880E-1));
#138=VERTEX_POINT('',#137);
#139=CARTESIAN_POINT('',(-2.503647073641E-2,2.5E-1,4.867042946614E-1));
#140=CARTESIAN_POINT('',(-4.096265774271E-2,2.5E-1,4.867042946614E-1));
#141=VERTEX_POINT('',#139);
#142=VERTEX_POINT('',#140);
#143=CARTESIAN_POINT('',(-2.503647073641E-2,2.598425196850E-1,
5.379667090880E-1));
#144=DIRECTION('',(-1.E0,0.E0,0.E0));
#145=DIRECTION('',(0.E0,1.E0,0.E0));
#146=AXIS2_PLACEMENT_3D('',#143,#144,#145);
#147=PLANE('',#146);
#149=ORIENTED_EDGE('',*,*,#148,.F.);
#151=ORIENTED_EDGE('',*,*,#150,.F.);
#153=ORIENTED_EDGE('',*,*,#152,.F.);
#155=ORIENTED_EDGE('',*,*,#154,.F.);
#157=ORIENTED_EDGE('',*,*,#156,.F.);
#158=EDGE_LOOP('',(#149,#151,#153,#155,#157));
#159=FACE_OUTER_BOUND('',#158,.F.);
#161=CARTESIAN_POINT('',(0.E0,2.598425196850E-1,0.E0));
#162=DIRECTION('',(0.E0,-1.E0,0.E0));
#163=DIRECTION('',(0.E0,0.E0,1.E0));
#164=AXIS2_PLACEMENT_3D('',#161,#162,#163);
#165=PLANE('',#164);
#167=ORIENTED_EDGE('',*,*,#166,.T.);
#169=ORIENTED_EDGE('',*,*,#168,.F.);
#170=ORIENTED_EDGE('',*,*,#148,.T.);
#172=ORIENTED_EDGE('',*,*,#171,.T.);
#173=EDGE_LOOP('',(#167,#169,#170,#172));
#174=FACE_OUTER_BOUND('',#173,.F.);
#176=CARTESIAN_POINT('',(-4.096265774271E-2,2.598425196850E-1,
5.379667090880E-1));
#177=DIRECTION('',(1.E0,0.E0,0.E0));
#178=DIRECTION('',(0.E0,-1.E0,0.E0));
#179=AXIS2_PLACEMENT_3D('',#176,#177,#178);
#180=PLANE('',#179);
#182=ORIENTED_EDGE('',*,*,#181,.F.);
#184=ORIENTED_EDGE('',*,*,#183,.F.);
#185=ORIENTED_EDGE('',*,*,#166,.F.);
#187=ORIENTED_EDGE('',*,*,#186,.T.);
#189=ORIENTED_EDGE('',*,*,#188,.F.);
#190=EDGE_LOOP('',(#182,#184,#185,#187,#189));
#191=FACE_OUTER_BOUND('',#190,.F.);
#193=CARTESIAN_POINT('',(-2.503647073641E-2,2.598425196850E-1,
4.867042946614E-1));
#194=DIRECTION('',(0.E0,0.E0,1.E0));
#195=DIRECTION('',(0.E0,1.E0,0.E0));
#196=AXIS2_PLACEMENT_3D('',#193,#194,#195);
#197=PLANE('',#196);
#198=ORIENTED_EDGE('',*,*,#152,.T.);
#200=ORIENTED_EDGE('',*,*,#199,.F.);
#201=ORIENTED_EDGE('',*,*,#181,.T.);
#203=ORIENTED_EDGE('',*,*,#202,.F.);
#204=EDGE_LOOP('',(#198,#200,#201,#203));
#205=FACE_OUTER_BOUND('',#204,.F.);
#207=CARTESIAN_POINT('',(0.E0,2.598425196850E-1,5.063893340315E-1));
#208=DIRECTION('',(0.E0,-9.284766908853E-1,3.713906763541E-1));
#209=DIRECTION('',(1.E0,0.E0,0.E0));
#210=AXIS2_PLACEMENT_3D('',#207,#208,#209);
#211=PLANE('',#210);
#212=ORIENTED_EDGE('',*,*,#183,.T.);
#213=ORIENTED_EDGE('',*,*,#199,.T.);
#214=ORIENTED_EDGE('',*,*,#150,.T.);
#215=ORIENTED_EDGE('',*,*,#168,.T.);
#216=EDGE_LOOP('',(#212,#213,#214,#215));
#217=FACE_OUTER_BOUND('',#216,.F.);
#219=CARTESIAN_POINT('',(0.E0,2.5E-1,0.E0));
#220=DIRECTION('',(0.E0,-1.E0,0.E0));
#221=DIRECTION('',(0.E0,0.E0,1.E0));
#222=AXIS2_PLACEMENT_3D('',#219,#220,#221);
#223=PLANE('',#222);
#224=ORIENTED_EDGE('',*,*,#154,.T.);
#225=ORIENTED_EDGE('',*,*,#202,.T.);
#226=ORIENTED_EDGE('',*,*,#188,.T.);
#228=ORIENTED_EDGE('',*,*,#227,.T.);
#229=EDGE_LOOP('',(#224,#225,#226,#228));
#230=FACE_OUTER_BOUND('',#229,.F.);
#232=CARTESIAN_POINT('',(-2.503647073641E-2,2.598425196850E-1,
5.379667090880E-1));
#233=DIRECTION('',(0.E0,0.E0,-1.E0));
#234=DIRECTION('',(0.E0,-1.E0,0.E0));
#235=AXIS2_PLACEMENT_3D('',#232,#233,#234);
#236=PLANE('',#235);
#237=ORIENTED_EDGE('',*,*,#227,.F.);
#238=ORIENTED_EDGE('',*,*,#186,.F.);
#239=ORIENTED_EDGE('',*,*,#171,.F.);
#240=ORIENTED_EDGE('',*,*,#156,.T.);
#241=EDGE_LOOP('',(#237,#238,#239,#240));
#242=FACE_OUTER_BOUND('',#241,.F.);
#246=FILL_AREA_STYLE_COLOUR('',#9);
#247=FILL_AREA_STYLE('',(#246));
#248=SURFACE_STYLE_FILL_AREA(#247);
#249=SURFACE_SIDE_STYLE('',(#248));
#250=SURFACE_STYLE_USAGE(.BOTH.,#249);
#251=PRESENTATION_STYLE_ASSIGNMENT((#250));
#16=STYLED_ITEM('',(#251),#245);
#252=PRESENTATION_LAYER_ASSIGNMENT('SHELL_263','',(#16,#160,#175,#192,#206,#218,
#231,#243));
#254=LENGTH_MEASURE_WITH_UNIT(LENGTH_MEASURE(2.54E1),#253);
#255=(CONVERSION_BASED_UNIT('INCH',#254)LENGTH_UNIT()NAMED_UNIT(*));
#257=PLANE_ANGLE_MEASURE_WITH_UNIT(PLANE_ANGLE_MEASURE(1.745329251994E-2),#256);
#258=(CONVERSION_BASED_UNIT('DEGREE',#257)NAMED_UNIT(*)PLANE_ANGLE_UNIT());
#260=UNCERTAINTY_MEASURE_WITH_UNIT(LENGTH_MEASURE(5.457211280142E-6),#255,
'closure',
'Maximum model space distance between geometric entities at asserted connectivities');
#262=CARTESIAN_POINT('',(0.E0,0.E0,0.E0));
#263=DIRECTION('',(0.E0,0.E0,1.E0));
#264=DIRECTION('',(1.E0,0.E0,0.E0));
#267=MECHANICAL_DESIGN_GEOMETRIC_PRESENTATION_REPRESENTATION('',(#24,#31,#38,
#45,#52,#59,#66,#73,#80,#87,#94,#101,#108,#115,#122,#16),#261);
#268=APPLICATION_CONTEXT('automotive design');
#269=APPLICATION_PROTOCOL_DEFINITION('international standard',
'config_control_design',1994,#268);
#270=PRODUCT_DEFINITION_CONTEXT('',#268,'design');
#271=PRODUCT_CONTEXT('',#268,'mechanical');
#272=PRODUCT('MIRROR29100','MIRROR29100','NOT SPECIFIED',(#271));
#273=PRODUCT_DEFINITION_FORMATION_WITH_SPECIFIED_SOURCE('1','LAST_VERSION',#272,
.MADE.);
#281=LENGTH_MEASURE_WITH_UNIT(LENGTH_MEASURE(2.54E1),#280);
#282=(CONVERSION_BASED_UNIT('INCH',#281)LENGTH_UNIT()NAMED_UNIT(*));
#283=DERIVED_UNIT_ELEMENT(#282,2.E0);
#284=AREA_UNIT((#283));
#285=MEASURE_REPRESENTATION_ITEM('surface area measure',AREA_MEASURE(
1.741407436208E0),#284);
#290=LENGTH_MEASURE_WITH_UNIT(LENGTH_MEASURE(2.54E1),#289);
#291=(CONVERSION_BASED_UNIT('INCH',#290)LENGTH_UNIT()NAMED_UNIT(*));
#292=DERIVED_UNIT_ELEMENT(#291,3.E0);
#293=VOLUME_UNIT((#292));
#294=MEASURE_REPRESENTATION_ITEM('volume measure',VOLUME_MEASURE(
1.114532853603E-1),#293);
#298=CARTESIAN_POINT('centre point',(-8.381889316849E-1,6.464413815691E0,
1.310122325126E1));
#303=LENGTH_MEASURE_WITH_UNIT(LENGTH_MEASURE(2.54E1),#302);
#304=(CONVERSION_BASED_UNIT('INCH',#303)LENGTH_UNIT()NAMED_UNIT(*));
#305=DERIVED_UNIT_ELEMENT(#304,2.E0);
#306=AREA_UNIT((#305));
#307=MEASURE_REPRESENTATION_ITEM('surface area measure',AREA_MEASURE(
1.741407436208E0),#306);
#312=LENGTH_MEASURE_WITH_UNIT(LENGTH_MEASURE(2.54E1),#311);
#313=(CONVERSION_BASED_UNIT('INCH',#312)LENGTH_UNIT()NAMED_UNIT(*));
#314=DERIVED_UNIT_ELEMENT(#313,3.E0);
#315=VOLUME_UNIT((#314));
#316=MEASURE_REPRESENTATION_ITEM('volume measure',VOLUME_MEASURE(
1.114532853603E-1),#315);
#320=CARTESIAN_POINT('centre point',(-8.381889316849E-1,6.464413815691E0,
1.310122325126E1));
#1=DRAUGHTING_PRE_DEFINED_COLOUR('green');
#2=COLOUR_RGB('',1.1E-2,1.2E-2,1.E0);
#3=COLOUR_RGB('',2.352941176471E-1,2.352941176471E-1,2.352941176471E-1);
#4=COLOUR_RGB('',4.1E-1,2.61589E-1,1.12848E-1);
#5=COLOUR_RGB('',5.04854E-1,1.5455E-2,1.5455E-2);
#6=COLOUR_RGB('',6.35294E-1,6.86275E-1,7.4902E-1);
#7=COLOUR_RGB('',6.40777E-1,6.40777E-1,6.40777E-1);
#8=COLOUR_RGB('',6.69062E-1,6.69903E-1,6.55217E-1);
#9=COLOUR_RGB('',7.921568627451E-1,8.196078431373E-1,9.333333333333E-1);
#10=COLOUR_RGB('',9.21569E-1,7.05882E-1,4.70588E-1);
#11=DRAUGHTING_PRE_DEFINED_COLOUR('red');
#12=DRAUGHTING_PRE_DEFINED_COLOUR('yellow');
#13=COLOUR_RGB('',1.E0,1.E0,5.3E-1);
#14=COLOUR_RGB('',1.E0,1.E0,9.49E-1);
#15=DRAUGHTING_PRE_DEFINED_COLOUR('white');
#148=EDGE_CURVE('',#134,#131,#20,.T.);
#150=EDGE_CURVE('',#128,#134,#28,.T.);
#152=EDGE_CURVE('',#141,#128,#35,.T.);
#154=EDGE_CURVE('',#136,#141,#42,.T.);
#156=EDGE_CURVE('',#131,#136,#49,.T.);
#160=ADVANCED_FACE('',(#159),#147,.F.);
#166=EDGE_CURVE('',#132,#125,#77,.T.);
#168=EDGE_CURVE('',#134,#125,#56,.T.);
#171=EDGE_CURVE('',#131,#132,#119,.T.);
#175=ADVANCED_FACE('',(#174),#165,.F.);
#181=EDGE_CURVE('',#126,#142,#63,.T.);
#183=EDGE_CURVE('',#125,#126,#70,.T.);
#186=EDGE_CURVE('',#132,#138,#112,.T.);
#188=EDGE_CURVE('',#142,#138,#84,.T.);
#192=ADVANCED_FACE('',(#191),#180,.F.);
#199=EDGE_CURVE('',#126,#128,#91,.T.);
#202=EDGE_CURVE('',#141,#142,#98,.T.);
#206=ADVANCED_FACE('',(#205),#197,.F.);
#218=ADVANCED_FACE('',(#217),#211,.F.);
#227=EDGE_CURVE('',#138,#136,#105,.T.);
#231=ADVANCED_FACE('',(#230),#223,.T.);
#243=ADVANCED_FACE('',(#242),#236,.F.);
#244=CLOSED_SHELL('',(#160,#175,#192,#206,#218,#231,#243));
#245=MANIFOLD_SOLID_BREP('',#244);
#253=(LENGTH_UNIT()NAMED_UNIT(*)SI_UNIT(.MILLI.,.METRE.));
#256=(NAMED_UNIT(*)PLANE_ANGLE_UNIT()SI_UNIT($,.RADIAN.));
#259=(NAMED_UNIT(*)SI_UNIT($,.STERADIAN.)SOLID_ANGLE_UNIT());
#261=(GEOMETRIC_REPRESENTATION_CONTEXT(3)GLOBAL_UNCERTAINTY_ASSIGNED_CONTEXT((
#260))GLOBAL_UNIT_ASSIGNED_CONTEXT((#255,#258,#259))REPRESENTATION_CONTEXT
('ID1','3'));
#265=AXIS2_PLACEMENT_3D('',#262,#263,#264);
#266=ADVANCED_BREP_SHAPE_REPRESENTATION('',(#265,#245),#261);
#274=PRODUCT_DEFINITION('design','',#273,#270);
#275=PRODUCT_DEFINITION_SHAPE('','SHAPE FOR MIRROR29100.',#274);
#276=SHAPE_ASPECT('','solid data associated with MIRROR29100',#275,.F.);
#277=PROPERTY_DEFINITION('',
'shape for solid data with which properties are associated',#276);
#278=SHAPE_REPRESENTATION('',(#245),#261);
#279=SHAPE_DEFINITION_REPRESENTATION(#277,#278);
#280=(LENGTH_UNIT()NAMED_UNIT(*)SI_UNIT(.MILLI.,.METRE.));
#286=PROPERTY_DEFINITION('geometric validation property','area of MIRROR29100',
#276);
#287=REPRESENTATION('surface area',(#285),#261);
#288=PROPERTY_DEFINITION_REPRESENTATION(#286,#287);
#289=(LENGTH_UNIT()NAMED_UNIT(*)SI_UNIT(.MILLI.,.METRE.));
#295=PROPERTY_DEFINITION('geometric validation property',
'volume of MIRROR29100',#276);
#296=REPRESENTATION('volume',(#294),#261);
#297=PROPERTY_DEFINITION_REPRESENTATION(#295,#296);
#299=PROPERTY_DEFINITION('geometric validation property',
'centroid of MIRROR29100',#276);
#300=REPRESENTATION('centroid',(#298),#261);
#301=PROPERTY_DEFINITION_REPRESENTATION(#299,#300);
#302=(LENGTH_UNIT()NAMED_UNIT(*)SI_UNIT(.MILLI.,.METRE.));
#308=PROPERTY_DEFINITION('geometric validation property','area of MIRROR29100',
#275);
#309=REPRESENTATION('surface area',(#307),#261);
#310=PROPERTY_DEFINITION_REPRESENTATION(#308,#309);
#311=(LENGTH_UNIT()NAMED_UNIT(*)SI_UNIT(.MILLI.,.METRE.));
#317=PROPERTY_DEFINITION('geometric validation property',
'volume of MIRROR29100',#275);
#318=REPRESENTATION('volume',(#316),#261);
#319=PROPERTY_DEFINITION_REPRESENTATION(#317,#318);
#321=PROPERTY_DEFINITION('geometric validation property',
'centroid of MIRROR29100',#275);
#322=REPRESENTATION('centroid',(#320),#261);
#323=PROPERTY_DEFINITION_REPRESENTATION(#321,#322);
#324=SHAPE_DEFINITION_REPRESENTATION(#275,#266);
ENDSEC;
END-ISO-10303-21;
