ISO-10303-21;
HEADER;
FILE_DESCRIPTION((''),'2;1');
FILE_NAME('MIRROR8100','2026-06-15T13:46:14',('Esia'),(''),
'CREO PARAMETRIC BY PTC INC, 2025102','CREO PARAMETRIC BY PTC INC, 2025102','');
FILE_SCHEMA((
'AP242_MANAGED_MODEL_BASED_3D_ENGINEERING_MIM_LF { 1 0 10303 442 1 1 4 }'));
ENDSEC;
DATA;
#17=DIRECTION('',(8.294475794377E-4,-1.393074065274E-1,-9.902488366584E-1));
#18=VECTOR('',#17,1.202333651639E-1);
#19=CARTESIAN_POINT('',(-4.400413738317E-2,8.173721290376E-2,
5.098511827579E-1));
#20=LINE('',#19,#18);
#21=DRAUGHTING_PRE_DEFINED_CURVE_FONT('continuous');
#22=CURVE_STYLE('',#21,POSITIVE_LENGTH_MEASURE(2.E-2),#9);
#23=PRESENTATION_STYLE_ASSIGNMENT((#22));
#24=STYLED_ITEM('',(#23),#20);
#25=DIRECTION('',(-8.294480883917E-4,-1.393030872515E-1,9.902494442806E-1));
#26=VECTOR('',#25,1.202476080757E-1);
#27=CARTESIAN_POINT('',(-4.390439823452E-2,1.712341170279E-1,
3.907760556849E-1));
#28=LINE('',#27,#26);
#29=CURVE_STYLE('',#21,POSITIVE_LENGTH_MEASURE(2.E-2),#9);
#30=PRESENTATION_STYLE_ASSIGNMENT((#29));
#31=STYLED_ITEM('',(#30),#28);
#32=DIRECTION('',(-1.028889184012E-6,9.999992455708E-1,1.228355283816E-3));
#33=VECTOR('',#32,5.224359616617E-2);
#34=CARTESIAN_POINT('',(-4.390434448165E-2,1.189905602759E-1,
3.907118819875E-1));
#35=LINE('',#34,#33);
#36=CURVE_STYLE('',#21,POSITIVE_LENGTH_MEASURE(2.E-2),#9);
#37=PRESENTATION_STYLE_ASSIGNMENT((#36));
#38=STYLED_ITEM('',(#37),#35);
#39=DIRECTION('',(1.215266932408E-6,9.999989474937E-1,-1.450865247007E-3));
#40=VECTOR('',#39,5.400280248944E-2);
#41=CARTESIAN_POINT('',(-4.390441010947E-2,6.498781462472E-2,
3.907902327769E-1));
#42=LINE('',#41,#40);
#43=CURVE_STYLE('',#21,POSITIVE_LENGTH_MEASURE(2.E-2),#9);
#44=PRESENTATION_STYLE_ASSIGNMENT((#43));
#45=STYLED_ITEM('',(#44),#42);
#46=DIRECTION('',(4.363428195104E-2,-1.391747740106E-1,-9.893060354196E-1));
#47=VECTOR('',#46,1.201136859142E-1);
#48=CARTESIAN_POINT('',(-4.926055414591E-2,8.170460971741E-2,
5.096194271883E-1));
#49=LINE('',#48,#47);
#50=CURVE_STYLE('',#21,POSITIVE_LENGTH_MEASURE(2.E-2),#9);
#51=PRESENTATION_STYLE_ASSIGNMENT((#50));
#52=STYLED_ITEM('',(#51),#49);
#53=CARTESIAN_POINT('',(-5.114067686984E-2,8.222535144390E-2,
5.128622406935E-1));
#54=CARTESIAN_POINT('',(-5.097760998997E-2,8.220536099417E-2,
5.127590524392E-1));
#55=CARTESIAN_POINT('',(-5.066559463410E-2,8.216163544839E-2,
5.125281071889E-1));
#56=CARTESIAN_POINT('',(-5.024580144757E-2,8.208609222277E-2,
5.121097395521E-1));
#57=CARTESIAN_POINT('',(-4.989030005329E-2,8.200344187081E-2,
5.116344114288E-1));
#58=CARTESIAN_POINT('',(-4.969864974470E-2,8.194367637955E-2,
5.112821276471E-1));
#59=CARTESIAN_POINT('',(-4.961581177461E-2,8.191271793678E-2,
5.110987377811E-1));
#61=CURVE_STYLE('',#21,POSITIVE_LENGTH_MEASURE(2.E-2),#9);
#62=PRESENTATION_STYLE_ASSIGNMENT((#61));
#63=STYLED_ITEM('',(#62),#60);
#64=CARTESIAN_POINT('',(-4.961581177461E-2,8.191271793678E-2,
5.110987377811E-1));
#65=CARTESIAN_POINT('',(-4.954428865843E-2,8.189044270769E-2,
5.109403971714E-1));
#66=CARTESIAN_POINT('',(-4.942319381730E-2,8.184528242281E-2,
5.106193810769E-1));
#67=CARTESIAN_POINT('',(-4.930414968699E-2,8.177524780495E-2,
5.101215489760E-1));
#68=CARTESIAN_POINT('',(-4.926797684566E-2,8.172827240611E-2,
5.097876303768E-1));
#69=CARTESIAN_POINT('',(-4.926055414591E-2,8.170460971741E-2,
5.096194271883E-1));
#71=CURVE_STYLE('',#21,POSITIVE_LENGTH_MEASURE(2.E-2),#9);
#72=PRESENTATION_STYLE_ASSIGNMENT((#71));
#73=STYLED_ITEM('',(#72),#70);
#74=DIRECTION('',(0.E0,-1.E0,-1.082605210282E-13));
#75=VECTOR('',#74,7.281124642645E-2);
#76=CARTESIAN_POINT('',(-4.926055414591E-2,1.545158561439E-1,
5.096194271883E-1));
#77=LINE('',#76,#75);
#78=CURVE_STYLE('',#21,POSITIVE_LENGTH_MEASURE(2.E-2),#9);
#79=PRESENTATION_STYLE_ASSIGNMENT((#78));
#80=STYLED_ITEM('',(#79),#77);
#81=CARTESIAN_POINT('',(-4.926055414591E-2,1.545158561439E-1,
5.096194271883E-1));
#82=CARTESIAN_POINT('',(-4.926797684515E-2,1.544921942050E-1,
5.097876303652E-1));
#83=CARTESIAN_POINT('',(-4.930414968265E-2,1.544452202936E-1,
5.101215489493E-1));
#84=CARTESIAN_POINT('',(-4.942319381054E-2,1.543751878892E-1,
5.106193810569E-1));
#85=CARTESIAN_POINT('',(-4.954428865476E-2,1.543300290306E-1,
5.109403971631E-1));
#86=CARTESIAN_POINT('',(-4.961581177462E-2,1.543077545047E-1,
5.110987377810E-1));
#88=CURVE_STYLE('',#21,POSITIVE_LENGTH_MEASURE(2.E-2),#9);
#89=PRESENTATION_STYLE_ASSIGNMENT((#88));
#90=STYLED_ITEM('',(#89),#87);
#91=CARTESIAN_POINT('',(-4.961581177462E-2,1.543077545047E-1,
5.110987377810E-1));
#92=CARTESIAN_POINT('',(-4.969872846427E-2,1.542767666426E-1,
5.112823019195E-1));
#93=CARTESIAN_POINT('',(-4.989037735481E-2,1.542169545178E-1,
5.116348862045E-1));
#94=CARTESIAN_POINT('',(-5.024896294025E-2,1.541337397364E-1,
5.121133551852E-1));
#95=CARTESIAN_POINT('',(-5.066564096916E-2,1.540588700415E-1,
5.125278858117E-1));
#96=CARTESIAN_POINT('',(-5.097755024626E-2,1.540151187713E-1,
5.127590146336E-1));
#97=CARTESIAN_POINT('',(-5.114067687002E-2,1.539951209975E-1,
5.128622406936E-1));
#99=CURVE_STYLE('',#21,POSITIVE_LENGTH_MEASURE(2.E-2),#9);
#100=PRESENTATION_STYLE_ASSIGNMENT((#99));
#101=STYLED_ITEM('',(#100),#98);
#102=DIRECTION('',(-2.446071888773E-12,1.E0,1.653660616031E-12));
#103=VECTOR('',#102,7.176976955362E-2);
#104=CARTESIAN_POINT('',(-5.114067686984E-2,8.222535144390E-2,
5.128622406935E-1));
#105=LINE('',#104,#103);
#106=CURVE_STYLE('',#21,POSITIVE_LENGTH_MEASURE(2.E-2),#9);
#107=PRESENTATION_STYLE_ASSIGNMENT((#106));
#108=STYLED_ITEM('',(#107),#105);
#109=DIRECTION('',(1.E0,-1.495189911396E-12,-8.891924108834E-12));
#110=VECTOR('',#109,5.606099781727E-3);
#111=CARTESIAN_POINT('',(-4.961581177461E-2,8.191271793678E-2,
5.110987377811E-1));
#112=LINE('',#111,#110);
#113=CURVE_STYLE('',#21,POSITIVE_LENGTH_MEASURE(2.E-2),#9);
#114=PRESENTATION_STYLE_ASSIGNMENT((#113));
#115=STYLED_ITEM('',(#114),#112);
#116=CARTESIAN_POINT('',(-5.340335271676E-2,8.256167423627E-2,
5.142838589499E-1));
#117=CARTESIAN_POINT('',(-5.302833339044E-2,8.248562576973E-2,
5.140482377842E-1));
#118=CARTESIAN_POINT('',(-5.227398784260E-2,8.236885207564E-2,
5.135742894703E-1));
#119=CARTESIAN_POINT('',(-5.151867579592E-2,8.227136052043E-2,
5.130997339142E-1));
#120=CARTESIAN_POINT('',(-5.114067686984E-2,8.222535144390E-2,
5.128622406935E-1));
#122=CURVE_STYLE('',#21,POSITIVE_LENGTH_MEASURE(2.E-2),#9);
#123=PRESENTATION_STYLE_ASSIGNMENT((#122));
#124=STYLED_ITEM('',(#123),#121);
#125=DIRECTION('',(-1.E0,-1.208167422355E-11,-4.489759434973E-11));
#126=VECTOR('',#125,9.389181949628E-3);
#127=CARTESIAN_POINT('',(-4.401417076713E-2,8.256167423639E-2,
5.142838589503E-1));
#128=LINE('',#127,#126);
#129=CURVE_STYLE('',#21,POSITIVE_LENGTH_MEASURE(2.E-2),#9);
#130=PRESENTATION_STYLE_ASSIGNMENT((#129));
#131=STYLED_ITEM('',(#130),#128);
#132=CARTESIAN_POINT('',(-4.400530896930E-2,8.325347621486E-2,
5.168558199153E-1));
#133=CARTESIAN_POINT('',(-4.400892170190E-2,8.302287618823E-2,
5.159985019465E-1));
#134=CARTESIAN_POINT('',(-4.401253381860E-2,8.279227578035E-2,
5.151411825603E-1));
#135=CARTESIAN_POINT('',(-4.401417076713E-2,8.256167423639E-2,
5.142838589503E-1));
#137=CURVE_STYLE('',#21,POSITIVE_LENGTH_MEASURE(2.E-2),#9);
#138=PRESENTATION_STYLE_ASSIGNMENT((#137));
#139=STYLED_ITEM('',(#138),#136);
#140=CARTESIAN_POINT('',(-4.401417076713E-2,1.536587982044E-1,
5.142838589529E-1));
#141=CARTESIAN_POINT('',(-4.401253381859E-2,1.534281966604E-1,
5.151411825627E-1));
#142=CARTESIAN_POINT('',(-4.400892170190E-2,1.531975962531E-1,
5.159985019465E-1));
#143=CARTESIAN_POINT('',(-4.400530896930E-2,1.529669962265E-1,
5.168558199153E-1));
#145=CURVE_STYLE('',#21,POSITIVE_LENGTH_MEASURE(2.E-2),#9);
#146=PRESENTATION_STYLE_ASSIGNMENT((#145));
#147=STYLED_ITEM('',(#146),#144);
#148=CARTESIAN_POINT('',(-4.400971199288E-2,1.543077545046E-1,
5.110987377811E-1));
#149=CARTESIAN_POINT('',(-4.401079375215E-2,1.542629739938E-1,
5.113640060292E-1));
#150=CARTESIAN_POINT('',(-4.401266773367E-2,1.541763842685E-1,
5.118733325864E-1));
#151=CARTESIAN_POINT('',(-4.401445302524E-2,1.540517818921E-1,
5.125723997123E-1));
#152=CARTESIAN_POINT('',(-4.401519854765E-2,1.539287369824E-1,
5.132078677551E-1));
#153=CARTESIAN_POINT('',(-4.401499410669E-2,1.538024172245E-1,
5.137810041570E-1));
#154=CARTESIAN_POINT('',(-4.401447639265E-2,1.537104607186E-1,
5.141237928478E-1));
#155=CARTESIAN_POINT('',(-4.401417076713E-2,1.536587982044E-1,
5.142838589529E-1));
#157=CURVE_STYLE('',#21,POSITIVE_LENGTH_MEASURE(2.E-2),#9);
#158=PRESENTATION_STYLE_ASSIGNMENT((#157));
#159=STYLED_ITEM('',(#158),#156);
#160=CARTESIAN_POINT('',(-4.400413738317E-2,1.544832539884E-1,
5.098511827579E-1));
#161=CARTESIAN_POINT('',(-4.400478483916E-2,1.544637239729E-1,
5.099900137584E-1));
#162=CARTESIAN_POINT('',(-4.400607907688E-2,1.544246840020E-1,
5.102675331604E-1));
#163=CARTESIAN_POINT('',(-4.400796421782E-2,1.543661841868E-1,
5.106833847446E-1));
#164=CARTESIAN_POINT('',(-4.400914758561E-2,1.543272243892E-1,
5.109603342274E-1));
#165=CARTESIAN_POINT('',(-4.400971199288E-2,1.543077545046E-1,
5.110987377811E-1));
#167=CURVE_STYLE('',#21,POSITIVE_LENGTH_MEASURE(2.E-2),#9);
#168=PRESENTATION_STYLE_ASSIGNMENT((#167));
#169=STYLED_ITEM('',(#168),#166);
#170=DIRECTION('',(0.E0,1.E0,1.068313966850E-14));
#171=VECTOR('',#170,7.274604108463E-2);
#172=CARTESIAN_POINT('',(-4.400413738317E-2,8.173721290376E-2,
5.098511827579E-1));
#173=LINE('',#172,#171);
#174=CURVE_STYLE('',#21,POSITIVE_LENGTH_MEASURE(2.E-2),#9);
#175=PRESENTATION_STYLE_ASSIGNMENT((#174));
#176=STYLED_ITEM('',(#175),#173);
#177=CARTESIAN_POINT('',(-4.400971199288E-2,8.191271793677E-2,
5.110987377810E-1));
#178=CARTESIAN_POINT('',(-4.400914758561E-2,8.189324743661E-2,
5.109603342272E-1));
#179=CARTESIAN_POINT('',(-4.400796421782E-2,8.185428640707E-2,
5.106833847445E-1));
#180=CARTESIAN_POINT('',(-4.400607907688E-2,8.179578474208E-2,
5.102675331603E-1));
#181=CARTESIAN_POINT('',(-4.400478483916E-2,8.175674353677E-2,
5.099900137584E-1));
#182=CARTESIAN_POINT('',(-4.400413738317E-2,8.173721290376E-2,
5.098511827579E-1));
#184=CURVE_STYLE('',#21,POSITIVE_LENGTH_MEASURE(2.E-2),#9);
#185=PRESENTATION_STYLE_ASSIGNMENT((#184));
#186=STYLED_ITEM('',(#185),#183);
#187=CARTESIAN_POINT('',(-4.401417076713E-2,8.256167423639E-2,
5.142838589503E-1));
#188=CARTESIAN_POINT('',(-4.401447977984E-2,8.250943915674E-2,
5.141220188644E-1));
#189=CARTESIAN_POINT('',(-4.401499979344E-2,8.241686751068E-2,
5.137761496422E-1));
#190=CARTESIAN_POINT('',(-4.401519689682E-2,8.229041394823E-2,
5.132014633521E-1));
#191=CARTESIAN_POINT('',(-4.401443612862E-2,8.216705907306E-2,
5.125635571753E-1));
#192=CARTESIAN_POINT('',(-4.401264464004E-2,8.204294529893E-2,
5.118666411333E-1));
#193=CARTESIAN_POINT('',(-4.401078279877E-2,8.195704502135E-2,
5.113613200485E-1));
#194=CARTESIAN_POINT('',(-4.400971199288E-2,8.191271793677E-2,
5.110987377810E-1));
#196=CURVE_STYLE('',#21,POSITIVE_LENGTH_MEASURE(2.E-2),#9);
#197=PRESENTATION_STYLE_ASSIGNMENT((#196));
#198=STYLED_ITEM('',(#197),#195);
#199=DIRECTION('',(8.382052684419E-1,-1.416538765431E-1,-5.266365988199E-1));
#200=VECTOR('',#199,1.785827690192E-2);
#201=CARTESIAN_POINT('',(-6.837225450124E-2,8.509136838781E-2,
5.236886811583E-1));
#202=LINE('',#201,#200);
#203=CURVE_STYLE('',#21,POSITIVE_LENGTH_MEASURE(2.E-2),#9);
#204=PRESENTATION_STYLE_ASSIGNMENT((#203));
#205=STYLED_ITEM('',(#204),#202);
#206=DIRECTION('',(1.E0,-6.644181791500E-11,2.470963995319E-10));
#207=VECTOR('',#206,9.389181950664E-3);
#208=CARTESIAN_POINT('',(-5.340335271779E-2,1.536587982050E-1,
5.142838589506E-1));
#209=LINE('',#208,#207);
#210=CURVE_STYLE('',#21,POSITIVE_LENGTH_MEASURE(2.E-2),#9);
#211=PRESENTATION_STYLE_ASSIGNMENT((#210));
#212=STYLED_ITEM('',(#211),#209);
#213=CARTESIAN_POINT('',(-5.114067687002E-2,1.539951209975E-1,
5.128622406936E-1));
#214=CARTESIAN_POINT('',(-5.151943020207E-2,1.539490200966E-1,
5.131002079006E-1));
#215=CARTESIAN_POINT('',(-5.227549643611E-2,1.538514191049E-1,
5.135752373056E-1));
#216=CARTESIAN_POINT('',(-5.302908064267E-2,1.537346951399E-1,
5.140487072758E-1));
#217=CARTESIAN_POINT('',(-5.340335271779E-2,1.536587982050E-1,
5.142838589506E-1));
#219=CURVE_STYLE('',#21,POSITIVE_LENGTH_MEASURE(2.E-2),#9);
#220=PRESENTATION_STYLE_ASSIGNMENT((#219));
#221=STYLED_ITEM('',(#220),#218);
#222=DIRECTION('',(-1.E0,2.861654863529E-12,-1.998207444499E-11));
#223=VECTOR('',#222,5.606099781737E-3);
#224=CARTESIAN_POINT('',(-4.400971199288E-2,1.543077545046E-1,
5.110987377811E-1));
#225=LINE('',#224,#223);
#226=CURVE_STYLE('',#21,POSITIVE_LENGTH_MEASURE(2.E-2),#9);
#227=PRESENTATION_STYLE_ASSIGNMENT((#226));
#228=STYLED_ITEM('',(#227),#225);
#229=DIRECTION('',(-8.382052684398E-1,-1.416538765611E-1,5.266365988183E-1));
#230=VECTOR('',#229,1.785827690073E-2);
#231=CARTESIAN_POINT('',(-5.340335271779E-2,1.536587982050E-1,
5.142838589506E-1));
#232=LINE('',#231,#230);
#233=CURVE_STYLE('',#21,POSITIVE_LENGTH_MEASURE(2.E-2),#9);
#234=PRESENTATION_STYLE_ASSIGNMENT((#233));
#235=STYLED_ITEM('',(#234),#232);
#236=CARTESIAN_POINT('',(-4.400530896930E-2,1.529669962265E-1,
5.168558199153E-1));
#237=CARTESIAN_POINT('',(-4.485564999419E-2,1.526838689954E-1,
5.179084219732E-1));
#238=CARTESIAN_POINT('',(-4.586091918388E-2,1.524449953475E-1,
5.187964993670E-1));
#239=CARTESIAN_POINT('',(-4.702659233176E-2,1.522519393847E-1,
5.195142371237E-1));
#241=CURVE_STYLE('',#21,POSITIVE_LENGTH_MEASURE(2.E-2),#9);
#242=PRESENTATION_STYLE_ASSIGNMENT((#241));
#243=STYLED_ITEM('',(#242),#240);
#244=DIRECTION('',(0.E0,1.E0,0.E0));
#245=VECTOR('',#244,6.971352001161E-2);
#246=CARTESIAN_POINT('',(-4.400530896930E-2,8.325347621486E-2,
5.168558199153E-1));
#247=LINE('',#246,#245);
#248=CURVE_STYLE('',#21,POSITIVE_LENGTH_MEASURE(2.E-2),#9);
#249=PRESENTATION_STYLE_ASSIGNMENT((#248));
#250=STYLED_ITEM('',(#249),#247);
#251=CARTESIAN_POINT('',(-4.702659233176E-2,8.396853305650E-2,
5.195142371237E-1));
#252=CARTESIAN_POINT('',(-4.586091918388E-2,8.377547709379E-2,
5.187964993670E-1));
#253=CARTESIAN_POINT('',(-4.485564999419E-2,8.353660344585E-2,
5.179084219732E-1));
#254=CARTESIAN_POINT('',(-4.400530896930E-2,8.325347621486E-2,
5.168558199153E-1));
#256=CURVE_STYLE('',#21,POSITIVE_LENGTH_MEASURE(2.E-2),#9);
#257=PRESENTATION_STYLE_ASSIGNMENT((#256));
#258=STYLED_ITEM('',(#257),#255);
#259=DIRECTION('',(0.E0,-1.E0,0.E0));
#260=VECTOR('',#259,6.828340632824E-2);
#261=CARTESIAN_POINT('',(-4.702659233176E-2,1.522519393847E-1,
5.195142371237E-1));
#262=LINE('',#261,#260);
#263=CURVE_STYLE('',#21,POSITIVE_LENGTH_MEASURE(2.E-2),#9);
#264=PRESENTATION_STYLE_ASSIGNMENT((#263));
#265=STYLED_ITEM('',(#264),#262);
#266=DIRECTION('',(-8.382052684393E-1,-1.416538765614E-1,5.266365988191E-1));
#267=VECTOR('',#266,1.009934593887E-2);
#268=CARTESIAN_POINT('',(-4.702659233176E-2,1.522519393847E-1,
5.195142371237E-1));
#269=LINE('',#268,#267);
#270=CURVE_STYLE('',#21,POSITIVE_LENGTH_MEASURE(2.E-2),#9);
#271=PRESENTATION_STYLE_ASSIGNMENT((#270));
#272=STYLED_ITEM('',(#271),#269);
#273=DIRECTION('',(8.382052684415E-1,-1.416538765433E-1,-5.266365988205E-1));
#274=VECTOR('',#273,1.009934593905E-2);
#275=CARTESIAN_POINT('',(-5.549191730569E-2,8.539914455932E-2,
5.248329223194E-1));
#276=LINE('',#275,#274);
#277=CURVE_STYLE('',#21,POSITIVE_LENGTH_MEASURE(2.E-2),#9);
#278=PRESENTATION_STYLE_ASSIGNMENT((#277));
#279=STYLED_ITEM('',(#278),#276);
#280=CARTESIAN_POINT('',(-6.425816996344E-2,8.581371109411E-2,
5.303408285636E-1));
#281=CARTESIAN_POINT('',(-6.363646247597E-2,8.578985997450E-2,
5.299502155133E-1));
#282=CARTESIAN_POINT('',(-6.243787272038E-2,8.574285960131E-2,
5.291969316399E-1));
#283=CARTESIAN_POINT('',(-6.077430228609E-2,8.567364161073E-2,
5.281518146025E-1));
#284=CARTESIAN_POINT('',(-5.924560730219E-2,8.560537586933E-2,
5.271913259097E-1));
#285=CARTESIAN_POINT('',(-5.785537363671E-2,8.553769712483E-2,
5.263178613745E-1));
#286=CARTESIAN_POINT('',(-5.659469884915E-2,8.546944121560E-2,
5.255257893517E-1));
#287=CARTESIAN_POINT('',(-5.584465390755E-2,8.542298907996E-2,
5.250545434560E-1));
#288=CARTESIAN_POINT('',(-5.549191730569E-2,8.539914455932E-2,
5.248329223194E-1));
#290=CURVE_STYLE('',#21,POSITIVE_LENGTH_MEASURE(2.E-2),#9);
#291=PRESENTATION_STYLE_ASSIGNMENT((#290));
#292=STYLED_ITEM('',(#291),#289);
#293=DIRECTION('',(9.999999999329E-1,6.214864734071E-12,-1.158056246630E-5));
#294=VECTOR('',#293,1.443633964962E-2);
#295=CARTESIAN_POINT('',(-6.992825695434E-2,8.539914455923E-2,
5.248330895003E-1));
#296=LINE('',#295,#294);
#297=CURVE_STYLE('',#21,POSITIVE_LENGTH_MEASURE(2.E-2),#9);
#298=PRESENTATION_STYLE_ASSIGNMENT((#297));
#299=STYLED_ITEM('',(#298),#296);
#300=CARTESIAN_POINT('',(-7.319255441169E-2,8.626828246054E-2,
5.382579873870E-1));
#301=CARTESIAN_POINT('',(-7.322968347242E-2,8.626083036194E-2,
5.381308851960E-1));
#302=CARTESIAN_POINT('',(-7.330423836777E-2,8.624594117764E-2,
5.378756649935E-1));
#303=CARTESIAN_POINT('',(-7.341707067345E-2,8.622361316460E-2,
5.374894108926E-1));
#304=CARTESIAN_POINT('',(-7.349273842924E-2,8.620873788845E-2,
5.372303822058E-1));
#305=CARTESIAN_POINT('',(-7.353079381443E-2,8.620128667501E-2,
5.371001089712E-1));
#307=CURVE_STYLE('',#21,POSITIVE_LENGTH_MEASURE(2.E-2),#9);
#308=PRESENTATION_STYLE_ASSIGNMENT((#307));
#309=STYLED_ITEM('',(#308),#306);
#310=DIRECTION('',(-1.E0,0.E0,4.064431505808E-14));
#311=VECTOR('',#310,8.194673890102E-3);
#312=CARTESIAN_POINT('',(-6.499788052159E-2,8.626828246054E-2,
5.382579873870E-1));
#313=LINE('',#312,#311);
#314=CURVE_STYLE('',#21,POSITIVE_LENGTH_MEASURE(2.E-2),#9);
#315=PRESENTATION_STYLE_ASSIGNMENT((#314));
#316=STYLED_ITEM('',(#315),#313);
#317=CARTESIAN_POINT('',(-6.499788052159E-2,8.626828246054E-2,
5.382579873870E-1));
#318=CARTESIAN_POINT('',(-6.532564716190E-2,8.620249708095E-2,
5.371359590392E-1));
#319=CARTESIAN_POINT('',(-6.565345687461E-2,8.613946076454E-2,
5.360133908138E-1));
#320=CARTESIAN_POINT('',(-6.598126554923E-2,8.607639546262E-2,
5.348912185720E-1));
#322=CURVE_STYLE('',#21,POSITIVE_LENGTH_MEASURE(2.E-2),#9);
#323=PRESENTATION_STYLE_ASSIGNMENT((#322));
#324=STYLED_ITEM('',(#323),#321);
#325=CARTESIAN_POINT('',(-6.598126554923E-2,8.607639546262E-2,
5.348912185720E-1));
#326=CARTESIAN_POINT('',(-6.603448025943E-2,8.606610659904E-2,
5.347081404488E-1));
#327=CARTESIAN_POINT('',(-6.611540708263E-2,8.604502676857E-2,
5.343340909068E-1));
#328=CARTESIAN_POINT('',(-6.615588271498E-2,8.601238287900E-2,
5.337543508007E-1));
#329=CARTESIAN_POINT('',(-6.611390130323E-2,8.597977197223E-2,
5.331781285743E-1));
#330=CARTESIAN_POINT('',(-6.598823903957E-2,8.594712602595E-2,
5.326059505093E-1));
#331=CARTESIAN_POINT('',(-6.578344204787E-2,8.591580750811E-2,
5.320621657695E-1));
#332=CARTESIAN_POINT('',(-6.550041778307E-2,8.588594712772E-2,
5.315484960602E-1));
#333=CARTESIAN_POINT('',(-6.514700717502E-2,8.585846815915E-2,
5.310822301181E-1));
#334=CARTESIAN_POINT('',(-6.473229119143E-2,8.583395799057E-2,
5.306731007470E-1));
#335=CARTESIAN_POINT('',(-6.442089866299E-2,8.581999666470E-2,
5.304437682134E-1));
#336=CARTESIAN_POINT('',(-6.425816996344E-2,8.581371109411E-2,
5.303408285636E-1));
#338=CURVE_STYLE('',#21,POSITIVE_LENGTH_MEASURE(2.E-2),#9);
#339=PRESENTATION_STYLE_ASSIGNMENT((#338));
#340=STYLED_ITEM('',(#339),#337);
#341=CARTESIAN_POINT('',(-6.837225450124E-2,1.511291040533E-1,
5.236886811583E-1));
#342=CARTESIAN_POINT('',(-6.855242953157E-2,1.510993027662E-1,
5.237994755035E-1));
#343=CARTESIAN_POINT('',(-6.890806059018E-2,1.510368157972E-1,
5.240318100021E-1));
#344=CARTESIAN_POINT('',(-6.942782628300E-2,1.509341107893E-1,
5.244135433384E-1));
#345=CARTESIAN_POINT('',(-6.976335050857E-2,1.508599277651E-1,
5.246895839943E-1));
#346=CARTESIAN_POINT('',(-6.992825695509E-2,1.508213278817E-1,
5.248330895009E-1));
#348=CURVE_STYLE('',#21,POSITIVE_LENGTH_MEASURE(2.E-2),#9);
#349=PRESENTATION_STYLE_ASSIGNMENT((#348));
#350=STYLED_ITEM('',(#349),#347);
#351=CARTESIAN_POINT('',(-6.992825695509E-2,1.508213278817E-1,
5.248330895009E-1));
#352=CARTESIAN_POINT('',(-7.024663616610E-2,1.507915184942E-1,
5.251101506525E-1));
#353=CARTESIAN_POINT('',(-7.085354458710E-2,1.507349670286E-1,
5.256980362764E-1));
#354=CARTESIAN_POINT('',(-7.166368181750E-2,1.506548220549E-1,
5.266651615773E-1));
#355=CARTESIAN_POINT('',(-7.236834617240E-2,1.505773694056E-1,
5.277114724550E-1));
#356=CARTESIAN_POINT('',(-7.295166657879E-2,1.505025361903E-1,
5.288128857287E-1));
#357=CARTESIAN_POINT('',(-7.340622143292E-2,1.504301905800E-1,
5.299489061563E-1));
#358=CARTESIAN_POINT('',(-7.373699626655E-2,1.503591239210E-1,
5.311245865832E-1));
#359=CARTESIAN_POINT('',(-7.394340333234E-2,1.502894072997E-1,
5.323211130568E-1));
#360=CARTESIAN_POINT('',(-7.402768056890E-2,1.502212641487E-1,
5.335181932345E-1));
#361=CARTESIAN_POINT('',(-7.399213406789E-2,1.501534255874E-1,
5.347242965392E-1));
#362=CARTESIAN_POINT('',(-7.383378746390E-2,1.500859650309E-1,
5.359255956981E-1));
#363=CARTESIAN_POINT('',(-7.364561691010E-2,1.500413556240E-1,
5.367125031526E-1));
#364=CARTESIAN_POINT('',(-7.353078273225E-2,1.500191835887E-1,
5.371001470383E-1));
#366=CURVE_STYLE('',#21,POSITIVE_LENGTH_MEASURE(2.E-2),#9);
#367=PRESENTATION_STYLE_ASSIGNMENT((#366));
#368=STYLED_ITEM('',(#367),#365);
#369=DIRECTION('',(1.736531095831E-7,9.999999999998E-1,5.964954884787E-7));
#370=VECTOR('',#369,6.381789691373E-2);
#371=CARTESIAN_POINT('',(-7.353079381443E-2,8.620128667501E-2,
5.371001089712E-1));
#372=LINE('',#371,#370);
#373=CURVE_STYLE('',#21,POSITIVE_LENGTH_MEASURE(2.E-2),#9);
#374=PRESENTATION_STYLE_ASSIGNMENT((#373));
#375=STYLED_ITEM('',(#374),#372);
#376=CARTESIAN_POINT('',(-7.353079381443E-2,8.620128667501E-2,
5.371001089712E-1));
#377=CARTESIAN_POINT('',(-7.365519421547E-2,8.617726765076E-2,
5.366801725398E-1));
#378=CARTESIAN_POINT('',(-7.385684612835E-2,8.612860275572E-2,
5.358210521438E-1));
#379=CARTESIAN_POINT('',(-7.401325982130E-2,8.605411742157E-2,
5.344937437999E-1));
#380=CARTESIAN_POINT('',(-7.401944064554E-2,8.597779355997E-2,
5.331389630029E-1));
#381=CARTESIAN_POINT('',(-7.387277328919E-2,8.590060489027E-2,5.317927268E-1));
#382=CARTESIAN_POINT('',(-7.357515616846E-2,8.582242977148E-2,
5.304718623759E-1));
#383=CARTESIAN_POINT('',(-7.312173894641E-2,8.574224353984E-2,
5.291846302595E-1));
#384=CARTESIAN_POINT('',(-7.252051170775E-2,8.566103361250E-2,
5.279653505075E-1));
#385=CARTESIAN_POINT('',(-7.178613360831E-2,8.557819692950E-2,
5.268245308947E-1));
#386=CARTESIAN_POINT('',(-7.092004757181E-2,8.549170486085E-2,
5.257645502571E-1));
#387=CARTESIAN_POINT('',(-7.026984768496E-2,8.543112720794E-2,
5.251303498674E-1));
#388=CARTESIAN_POINT('',(-6.992825695434E-2,8.539914455923E-2,
5.248330895003E-1));
#390=CURVE_STYLE('',#21,POSITIVE_LENGTH_MEASURE(2.E-2),#9);
#391=PRESENTATION_STYLE_ASSIGNMENT((#390));
#392=STYLED_ITEM('',(#391),#389);
#393=CARTESIAN_POINT('',(-6.992825695434E-2,8.539914455923E-2,
5.248330895003E-1));
#394=CARTESIAN_POINT('',(-6.976335050818E-2,8.536054467592E-2,
5.246895839941E-1));
#395=CARTESIAN_POINT('',(-6.942782628342E-2,8.528636165181E-2,
5.244135433387E-1));
#396=CARTESIAN_POINT('',(-6.890806059018E-2,8.518365664388E-2,
5.240318100021E-1));
#397=CARTESIAN_POINT('',(-6.855242953159E-2,8.512116967494E-2,
5.237994755035E-1));
#398=CARTESIAN_POINT('',(-6.837225450124E-2,8.509136838781E-2,
5.236886811583E-1));
#400=CURVE_STYLE('',#21,POSITIVE_LENGTH_MEASURE(2.E-2),#9);
#401=PRESENTATION_STYLE_ASSIGNMENT((#400));
#402=STYLED_ITEM('',(#401),#399);
#403=DIRECTION('',(0.E0,-1.E0,0.E0));
#404=VECTOR('',#403,6.603773566547E-2);
#405=CARTESIAN_POINT('',(-6.837225450124E-2,1.511291040533E-1,
5.236886811583E-1));
#406=LINE('',#405,#404);
#407=CURVE_STYLE('',#21,POSITIVE_LENGTH_MEASURE(2.E-2),#9);
#408=PRESENTATION_STYLE_ASSIGNMENT((#407));
#409=STYLED_ITEM('',(#408),#406);
#410=CARTESIAN_POINT('',(-5.549191730551E-2,1.508213278818E-1,
5.248329223193E-1));
#411=CARTESIAN_POINT('',(-5.584465390738E-2,1.507974833611E-1,
5.250545434559E-1));
#412=CARTESIAN_POINT('',(-5.659469884899E-2,1.507510312255E-1,
5.255257893516E-1));
#413=CARTESIAN_POINT('',(-5.785537363659E-2,1.506827753162E-1,
5.263178613744E-1));
#414=CARTESIAN_POINT('',(-5.924560730212E-2,1.506150965717E-1,
5.271913259097E-1));
#415=CARTESIAN_POINT('',(-6.077430228607E-2,1.505468308303E-1,
5.281518146025E-1));
#416=CARTESIAN_POINT('',(-6.243787272052E-2,1.504776128398E-1,
5.291969316399E-1));
#417=CARTESIAN_POINT('',(-6.363646247598E-2,1.504306124666E-1,
5.299502155133E-1));
#418=CARTESIAN_POINT('',(-6.425816996339E-2,1.504067613470E-1,
5.303408285636E-1));
#420=CURVE_STYLE('',#21,POSITIVE_LENGTH_MEASURE(2.E-2),#9);
#421=PRESENTATION_STYLE_ASSIGNMENT((#420));
#422=STYLED_ITEM('',(#421),#419);
#423=CARTESIAN_POINT('',(-6.425816996339E-2,1.504067613470E-1,
5.303408285636E-1));
#424=CARTESIAN_POINT('',(-6.442066006344E-2,1.504004849925E-1,
5.304436172791E-1));
#425=CARTESIAN_POINT('',(-6.473185468242E-2,1.503865466579E-1,
5.306725569488E-1));
#426=CARTESIAN_POINT('',(-6.514878194284E-2,1.503618834496E-1,
5.310842650554E-1));
#427=CARTESIAN_POINT('',(-6.550007013455E-2,1.503345488697E-1,
5.315480994891E-1));
#428=CARTESIAN_POINT('',(-6.578411024250E-2,1.503045967460E-1,
5.320633371445E-1));
#429=CARTESIAN_POINT('',(-6.598856845679E-2,1.502732623484E-1,
5.326074226329E-1));
#430=CARTESIAN_POINT('',(-6.611394204739E-2,1.502407129953E-1,
5.331779054908E-1));
#431=CARTESIAN_POINT('',(-6.615588726201E-2,1.502079293969E-1,
5.337571876970E-1));
#432=CARTESIAN_POINT('',(-6.611536350239E-2,1.501754810176E-1,
5.343334655820E-1));
#433=CARTESIAN_POINT('',(-6.603455314813E-2,1.501543799348E-1,
5.347078896850E-1));
#434=CARTESIAN_POINT('',(-6.598126554923E-2,1.501440769784E-1,
5.348912185720E-1));
#436=CURVE_STYLE('',#21,POSITIVE_LENGTH_MEASURE(2.E-2),#9);
#437=PRESENTATION_STYLE_ASSIGNMENT((#436));
#438=STYLED_ITEM('',(#437),#435);
#439=CARTESIAN_POINT('',(-6.598126554923E-2,1.501440769784E-1,
5.348912185720E-1));
#440=CARTESIAN_POINT('',(-6.565345687461E-2,1.500810116765E-1,
5.360133908138E-1));
#441=CARTESIAN_POINT('',(-6.532564716192E-2,1.500179753601E-1,
5.371359590392E-1));
#442=CARTESIAN_POINT('',(-6.499788052161E-2,1.499521899805E-1,
5.382579873869E-1));
#444=CURVE_STYLE('',#21,POSITIVE_LENGTH_MEASURE(2.E-2),#9);
#445=PRESENTATION_STYLE_ASSIGNMENT((#444));
#446=STYLED_ITEM('',(#445),#443);
#447=DIRECTION('',(1.E0,0.E0,0.E0));
#448=VECTOR('',#447,8.194673890102E-3);
#449=CARTESIAN_POINT('',(-7.319255441171E-2,1.499521899805E-1,
5.382579873869E-1));
#450=LINE('',#449,#448);
#451=CURVE_STYLE('',#21,POSITIVE_LENGTH_MEASURE(2.E-2),#9);
#452=PRESENTATION_STYLE_ASSIGNMENT((#451));
#453=STYLED_ITEM('',(#452),#450);
#454=CARTESIAN_POINT('',(-7.353078273225E-2,1.500191835887E-1,
5.371001470383E-1));
#455=CARTESIAN_POINT('',(-7.349272734694E-2,1.500117323613E-1,
5.372304202733E-1));
#456=CARTESIAN_POINT('',(-7.341707584423E-2,1.499968602989E-1,
5.374893931311E-1));
#457=CARTESIAN_POINT('',(-7.330423688938E-2,1.499745309711E-1,
5.378756700717E-1));
#458=CARTESIAN_POINT('',(-7.322968347209E-2,1.499596420791E-1,
5.381308851971E-1));
#459=CARTESIAN_POINT('',(-7.319255441171E-2,1.499521899805E-1,
5.382579873869E-1));
#461=CURVE_STYLE('',#21,POSITIVE_LENGTH_MEASURE(2.E-2),#9);
#462=PRESENTATION_STYLE_ASSIGNMENT((#461));
#463=STYLED_ITEM('',(#462),#460);
#464=DIRECTION('',(-9.999999999329E-1,-2.757035120832E-12,1.158061281510E-5));
#465=VECTOR('',#464,1.443633965054E-2);
#466=CARTESIAN_POINT('',(-5.549191730551E-2,1.508213278818E-1,
5.248329223193E-1));
#467=LINE('',#466,#465);
#468=CURVE_STYLE('',#21,POSITIVE_LENGTH_MEASURE(2.E-2),#9);
#469=PRESENTATION_STYLE_ASSIGNMENT((#468));
#470=STYLED_ITEM('',(#469),#467);
#471=DIRECTION('',(6.956828442968E-13,1.E0,-4.537622505111E-13));
#472=VECTOR('',#471,6.459305025284E-2);
#473=CARTESIAN_POINT('',(-6.425816996344E-2,8.581371109411E-2,
5.303408285636E-1));
#474=LINE('',#473,#472);
#475=CURVE_STYLE('',#21,POSITIVE_LENGTH_MEASURE(2.E-2),#9);
#476=PRESENTATION_STYLE_ASSIGNMENT((#475));
#477=STYLED_ITEM('',(#476),#474);
#478=DIRECTION('',(0.E0,-1.E0,0.E0));
#479=VECTOR('',#478,6.406768151581E-2);
#480=CARTESIAN_POINT('',(-6.598126554923E-2,1.501440769784E-1,
5.348912185720E-1));
#481=LINE('',#480,#479);
#482=CURVE_STYLE('',#21,POSITIVE_LENGTH_MEASURE(2.E-2),#9);
#483=PRESENTATION_STYLE_ASSIGNMENT((#482));
#484=STYLED_ITEM('',(#483),#481);
#485=DIRECTION('',(-2.776659772939E-1,-1.393244420721E-1,-9.505210702003E-1));
#486=VECTOR('',#485,7.428557380796E-2);
#487=CARTESIAN_POINT('',(-4.437130407136E-2,9.661807858535E-2,
6.088679905034E-1));
#488=LINE('',#487,#486);
#489=CURVE_STYLE('',#21,POSITIVE_LENGTH_MEASURE(2.E-2),#9);
#490=PRESENTATION_STYLE_ASSIGNMENT((#489));
#491=STYLED_ITEM('',(#490),#488);
#492=DIRECTION('',(2.776659772939E-1,-1.393244420720E-1,9.505210702003E-1));
#493=VECTOR('',#492,7.428557380803E-2);
#494=CARTESIAN_POINT('',(-6.499788052161E-2,1.499521899805E-1,
5.382579873869E-1));
#495=LINE('',#494,#493);
#496=CURVE_STYLE('',#21,POSITIVE_LENGTH_MEASURE(2.E-2),#9);
#497=PRESENTATION_STYLE_ASSIGNMENT((#496));
#498=STYLED_ITEM('',(#497),#495);
#499=DIRECTION('',(-2.776659805696E-1,-1.393244419348E-1,-9.505210692635E-1));
#500=VECTOR('',#499,7.662241287808E-2);
#501=CARTESIAN_POINT('',(-5.191711700629E-2,9.694365737448E-2,
6.110892052054E-1));
#502=LINE('',#501,#500);
#503=CURVE_STYLE('',#21,POSITIVE_LENGTH_MEASURE(2.E-2),#9);
#504=PRESENTATION_STYLE_ASSIGNMENT((#503));
#505=STYLED_ITEM('',(#504),#502);
#506=DIRECTION('',(2.776659805696E-1,-1.393244419347E-1,9.505210692635E-1));
#507=VECTOR('',#506,7.662241287823E-2);
#508=CARTESIAN_POINT('',(-7.319255441171E-2,1.499521899805E-1,
5.382579873869E-1));
#509=LINE('',#508,#507);
#510=CURVE_STYLE('',#21,POSITIVE_LENGTH_MEASURE(2.E-2),#9);
#511=PRESENTATION_STYLE_ASSIGNMENT((#510));
#512=STYLED_ITEM('',(#511),#509);
#513=CARTESIAN_POINT('',(-4.437130407136E-2,1.396023938557E-1,
6.088679905034E-1));
#514=CARTESIAN_POINT('',(-4.427949834521E-2,1.395563374145E-1,
6.091822039830E-1));
#515=CARTESIAN_POINT('',(-4.418828480491E-2,1.395102563201E-1,
6.094965856564E-1));
#516=CARTESIAN_POINT('',(-4.409767055021E-2,1.394641502767E-1,
6.098111375401E-1));
#518=CURVE_STYLE('',#21,POSITIVE_LENGTH_MEASURE(2.E-2),#9);
#519=PRESENTATION_STYLE_ASSIGNMENT((#518));
#520=STYLED_ITEM('',(#519),#517);
#521=DIRECTION('',(1.420570874988E-14,1.E0,6.715425954488E-14));
#522=VECTOR('',#521,4.298431527037E-2);
#523=CARTESIAN_POINT('',(-4.437130407136E-2,9.661807858535E-2,
6.088679905034E-1));
#524=LINE('',#523,#522);
#525=CURVE_STYLE('',#21,POSITIVE_LENGTH_MEASURE(2.E-2),#9);
#526=PRESENTATION_STYLE_ASSIGNMENT((#525));
#527=STYLED_ITEM('',(#526),#524);
#528=CARTESIAN_POINT('',(-4.409767055021E-2,9.675632216437E-2,
6.098111375401E-1));
#529=CARTESIAN_POINT('',(-4.418828480491E-2,9.671021612099E-2,
6.094965856564E-1));
#530=CARTESIAN_POINT('',(-4.427949834521E-2,9.666413502651E-2,
6.091822039830E-1));
#531=CARTESIAN_POINT('',(-4.437130407136E-2,9.661807858535E-2,
6.088679905034E-1));
#533=CURVE_STYLE('',#21,POSITIVE_LENGTH_MEASURE(2.E-2),#9);
#534=PRESENTATION_STYLE_ASSIGNMENT((#533));
#535=STYLED_ITEM('',(#534),#532);
#536=CARTESIAN_POINT('',(-4.409767055021E-2,1.394641502767E-1,
6.098111375401E-1));
#537=CARTESIAN_POINT('',(-4.409763381998E-2,1.394372168672E-1,
6.099948868723E-1));
#538=CARTESIAN_POINT('',(-4.409756067180E-2,1.393835307417E-1,
6.103611527817E-1));
#539=CARTESIAN_POINT('',(-4.409752024731E-2,1.393035436078E-1,
6.109068535578E-1));
#540=CARTESIAN_POINT('',(-4.409758429619E-2,1.392505802673E-1,
6.112681883693E-1));
#541=CARTESIAN_POINT('',(-4.409765037618E-2,1.392241889479E-1,
6.114482393697E-1));
#543=CURVE_STYLE('',#21,POSITIVE_LENGTH_MEASURE(2.E-2),#9);
#544=PRESENTATION_STYLE_ASSIGNMENT((#543));
#545=STYLED_ITEM('',(#544),#542);
#546=DIRECTION('',(0.E0,1.E0,0.E0));
#547=VECTOR('',#546,4.270782811232E-2);
#548=CARTESIAN_POINT('',(-4.409767055021E-2,9.675632216437E-2,
6.098111375401E-1));
#549=LINE('',#548,#547);
#550=CURVE_STYLE('',#21,POSITIVE_LENGTH_MEASURE(2.E-2),#9);
#551=PRESENTATION_STYLE_ASSIGNMENT((#550));
#552=STYLED_ITEM('',(#551),#549);
#553=CARTESIAN_POINT('',(-4.409765037618E-2,9.699628349313E-2,
6.114482393697E-1));
#554=CARTESIAN_POINT('',(-4.409758429619E-2,9.696989217354E-2,
6.112681883681E-1));
#555=CARTESIAN_POINT('',(-4.409752024731E-2,9.691692883287E-2,
6.109068535549E-1));
#556=CARTESIAN_POINT('',(-4.409756067180E-2,9.683694169892E-2,
6.103611527788E-1));
#557=CARTESIAN_POINT('',(-4.409763381998E-2,9.678325557365E-2,
6.099948868710E-1));
#558=CARTESIAN_POINT('',(-4.409767055021E-2,9.675632216437E-2,
6.098111375401E-1));
#560=CURVE_STYLE('',#21,POSITIVE_LENGTH_MEASURE(2.E-2),#9);
#561=PRESENTATION_STYLE_ASSIGNMENT((#560));
#562=STYLED_ITEM('',(#561),#559);
#563=CARTESIAN_POINT('',(-4.416830160889E-2,1.061385779129E-1,
6.209289069241E-1));
#564=CARTESIAN_POINT('',(-4.416673742220E-2,1.059283440226E-1,
6.208842659775E-1));
#565=CARTESIAN_POINT('',(-4.416304157056E-2,1.054917556150E-1,
6.207800442365E-1));
#566=CARTESIAN_POINT('',(-4.415685740758E-2,1.047846803411E-1,
6.205677535510E-1));
#567=CARTESIAN_POINT('',(-4.415098638546E-2,1.040117347498E-1,
6.202809352584E-1));
#568=CARTESIAN_POINT('',(-4.414504238193E-2,1.031668364953E-1,
6.198961619049E-1));
#569=CARTESIAN_POINT('',(-4.413907611537E-2,1.022487419197E-1,
6.193837825299E-1));
#570=CARTESIAN_POINT('',(-4.413319190611E-2,1.012723212090E-1,
6.187103688617E-1));
#571=CARTESIAN_POINT('',(-4.412761156142E-2,1.003109110881E-1,
6.178845832374E-1));
#572=CARTESIAN_POINT('',(-4.412111272883E-2,9.942908118612E-2,
6.169353042358E-1));
#573=CARTESIAN_POINT('',(-4.411335077337E-2,9.868117150138E-2,
6.159233093971E-1));
#574=CARTESIAN_POINT('',(-4.410601824929E-2,9.805193141722E-2,
6.148395197437E-1));
#575=CARTESIAN_POINT('',(-4.410076512297E-2,9.755249113290E-2,
6.137010767766E-1));
#576=CARTESIAN_POINT('',(-4.409833144399E-2,9.719461949818E-2,
6.125494114835E-1));
#577=CARTESIAN_POINT('',(-4.409778305739E-2,9.704927430876E-2,
6.118097616269E-1));
#578=CARTESIAN_POINT('',(-4.409765037618E-2,9.699628349313E-2,
6.114482393697E-1));
#580=CURVE_STYLE('',#21,POSITIVE_LENGTH_MEASURE(2.E-2),#9);
#581=PRESENTATION_STYLE_ASSIGNMENT((#580));
#582=STYLED_ITEM('',(#581),#579);
#583=DIRECTION('',(0.E0,-1.E0,0.E0));
#584=VECTOR('',#583,2.394331661526E-2);
#585=CARTESIAN_POINT('',(-4.416830160889E-2,1.300818945282E-1,
6.209289069241E-1));
#586=LINE('',#585,#584);
#587=CURVE_STYLE('',#21,POSITIVE_LENGTH_MEASURE(2.E-2),#9);
#588=PRESENTATION_STYLE_ASSIGNMENT((#587));
#589=STYLED_ITEM('',(#588),#586);
#590=CARTESIAN_POINT('',(-4.409765037618E-2,1.392241889479E-1,
6.114482393697E-1));
#591=CARTESIAN_POINT('',(-4.409777454885E-2,1.391745963126E-1,
6.117865780279E-1));
#592=CARTESIAN_POINT('',(-4.409827293337E-2,1.390397011836E-1,
6.124862953060E-1));
#593=CARTESIAN_POINT('',(-4.410047411911E-2,1.387049336112E-1,
6.135967782570E-1));
#594=CARTESIAN_POINT('',(-4.410530640724E-2,1.382295792572E-1,
6.147161735362E-1));
#595=CARTESIAN_POINT('',(-4.411249421016E-2,1.376153565715E-1,
6.158072512701E-1));
#596=CARTESIAN_POINT('',(-4.412039958072E-2,1.368680953737E-1,
6.168417861949E-1));
#597=CARTESIAN_POINT('',(-4.412701125191E-2,1.360062740539E-1,
6.177904835597E-1));
#598=CARTESIAN_POINT('',(-4.413266581089E-2,1.350387698892E-1,
6.186408446473E-1));
#599=CARTESIAN_POINT('',(-4.413854665546E-2,1.340572346806E-1,
6.193302129843E-1));
#600=CARTESIAN_POINT('',(-4.414446386302E-2,1.331388658386E-1,
6.198529310749E-1));
#601=CARTESIAN_POINT('',(-4.415048315913E-2,1.322783055109E-1,
6.202525613355E-1));
#602=CARTESIAN_POINT('',(-4.415644367739E-2,1.314856786544E-1,
6.205513754965E-1));
#603=CARTESIAN_POINT('',(-4.416278242477E-2,1.307575285235E-1,
6.207727479906E-1));
#604=CARTESIAN_POINT('',(-4.416666089217E-2,1.303024144065E-1,
6.208820818566E-1));
#605=CARTESIAN_POINT('',(-4.416830160889E-2,1.300818945282E-1,
6.209289069241E-1));
#607=CURVE_STYLE('',#21,POSITIVE_LENGTH_MEASURE(2.E-2),#9);
#608=PRESENTATION_STYLE_ASSIGNMENT((#607));
#609=STYLED_ITEM('',(#608),#606);
#610=DIRECTION('',(1.E0,2.770209519118E-13,1.827618747678E-12));
#611=VECTOR('',#610,7.714865275185E-3);
#612=CARTESIAN_POINT('',(-5.181251565136E-2,9.699628349313E-2,
6.114482393697E-1));
#613=LINE('',#612,#611);
#614=CURVE_STYLE('',#21,POSITIVE_LENGTH_MEASURE(2.E-2),#9);
#615=PRESENTATION_STYLE_ASSIGNMENT((#614));
#616=STYLED_ITEM('',(#615),#613);
#617=DIRECTION('',(-1.E0,-2.960095678877E-12,-2.654794330831E-14));
#618=VECTOR('',#617,4.181954932372E-3);
#619=CARTESIAN_POINT('',(-4.508419578761E-2,1.086923630452E-1,
6.211967962882E-1));
#620=LINE('',#619,#618);
#621=CURVE_STYLE('',#21,POSITIVE_LENGTH_MEASURE(2.E-2),#9);
#622=PRESENTATION_STYLE_ASSIGNMENT((#621));
#623=STYLED_ITEM('',(#622),#620);
#624=CARTESIAN_POINT('',(-4.508419578761E-2,1.086923630452E-1,
6.211967962882E-1));
#625=CARTESIAN_POINT('',(-4.508419578761E-2,1.077343506828E-1,
6.211967962882E-1));
#626=CARTESIAN_POINT('',(-4.472298873443E-2,1.069026381349E-1,
6.210911470440E-1));
#627=CARTESIAN_POINT('',(-4.416830160889E-2,1.061385779129E-1,
6.209289069241E-1));
#629=CURVE_STYLE('',#21,POSITIVE_LENGTH_MEASURE(2.E-2),#9);
#630=PRESENTATION_STYLE_ASSIGNMENT((#629));
#631=STYLED_ITEM('',(#630),#628);
#632=CARTESIAN_POINT('',(-5.181251565136E-2,1.392241889479E-1,
6.114482393697E-1));
#633=CARTESIAN_POINT('',(-5.184729666957E-2,1.392417345869E-1,
6.113285367581E-1));
#634=CARTESIAN_POINT('',(-5.188216385072E-2,1.392592766239E-1,
6.112088587212E-1));
#635=CARTESIAN_POINT('',(-5.191711700628E-2,1.392768150666E-1,
6.110892052054E-1));
#637=CURVE_STYLE('',#21,POSITIVE_LENGTH_MEASURE(2.E-2),#9);
#638=PRESENTATION_STYLE_ASSIGNMENT((#637));
#639=STYLED_ITEM('',(#638),#636);
#640=CARTESIAN_POINT('',(-5.181251565136E-2,1.392241889479E-1,
6.114482393697E-1));
#641=CARTESIAN_POINT('',(-5.170894938194E-2,1.391719438881E-1,
6.118046738147E-1));
#642=CARTESIAN_POINT('',(-5.149893236877E-2,1.390294035539E-1,
6.125331143113E-1));
#643=CARTESIAN_POINT('',(-5.117613667554E-2,1.386781073596E-1,
6.136724355928E-1));
#644=CARTESIAN_POINT('',(-5.086247592985E-2,1.381876823012E-1,
6.148009055711E-1));
#645=CARTESIAN_POINT('',(-5.056781996860E-2,1.375654752702E-1,
6.158831536207E-1));
#646=CARTESIAN_POINT('',(-5.030017446333E-2,1.368285301555E-1,
6.168885348837E-1));
#647=CARTESIAN_POINT('',(-5.005993265273E-2,1.359809500884E-1,
6.178136381268E-1));
#648=CARTESIAN_POINT('',(-4.985001353081E-2,1.350332616127E-1,
6.186451274783E-1));
#649=CARTESIAN_POINT('',(-4.967220376151E-2,1.339999035799E-1,
6.193724290633E-1));
#650=CARTESIAN_POINT('',(-4.952451699594E-2,1.328670672068E-1,
6.199997888539E-1));
#651=CARTESIAN_POINT('',(-4.941287274681E-2,1.316834280442E-1,
6.204956101713E-1));
#652=CARTESIAN_POINT('',(-4.933792630569E-2,1.305282210893E-1,
6.208443080926E-1));
#653=CARTESIAN_POINT('',(-4.929252656573E-2,1.294316424347E-1,
6.210645746261E-1));
#654=CARTESIAN_POINT('',(-4.926995604537E-2,1.284141266204E-1,
6.211774889870E-1));
#655=CARTESIAN_POINT('',(-4.926615071999E-2,1.278120581681E-1,
6.211967962882E-1));
#656=CARTESIAN_POINT('',(-4.926615071999E-2,1.275281093951E-1,
6.211967962882E-1));
#658=CURVE_STYLE('',#21,POSITIVE_LENGTH_MEASURE(2.E-2),#9);
#659=PRESENTATION_STYLE_ASSIGNMENT((#658));
#660=STYLED_ITEM('',(#659),#657);
#661=DIRECTION('',(-4.428043528277E-13,1.E0,0.E0));
#662=VECTOR('',#661,1.883574634990E-2);
#663=CARTESIAN_POINT('',(-4.926615071999E-2,1.086923630452E-1,
6.211967962882E-1));
#664=LINE('',#663,#662);
#665=CURVE_STYLE('',#21,POSITIVE_LENGTH_MEASURE(2.E-2),#9);
#666=PRESENTATION_STYLE_ASSIGNMENT((#665));
#667=STYLED_ITEM('',(#666),#664);
#668=CARTESIAN_POINT('',(-4.926615071999E-2,1.086923630452E-1,
6.211967962882E-1));
#669=CARTESIAN_POINT('',(-4.926615071999E-2,1.083942799347E-1,
6.211967962882E-1));
#670=CARTESIAN_POINT('',(-4.927049389861E-2,1.077764491667E-1,
6.211747705731E-1));
#671=CARTESIAN_POINT('',(-4.929221095110E-2,1.068090737828E-1,
6.210662314195E-1));
#672=CARTESIAN_POINT('',(-4.933587247418E-2,1.057279019461E-1,
6.208540225882E-1));
#673=CARTESIAN_POINT('',(-4.941338514565E-2,1.045249656037E-1,
6.204930220984E-1));
#674=CARTESIAN_POINT('',(-4.952784084466E-2,1.033244693319E-1,
6.199854013757E-1));
#675=CARTESIAN_POINT('',(-4.967413918427E-2,1.022082221712E-1,
6.193644083558E-1));
#676=CARTESIAN_POINT('',(-4.985369554273E-2,1.011676659978E-1,
6.186302453886E-1));
#677=CARTESIAN_POINT('',(-5.006491838336E-2,1.002196455457E-1,
6.177941723960E-1));
#678=CARTESIAN_POINT('',(-5.030635617627E-2,9.937245301305E-2,
6.168650065367E-1));
#679=CARTESIAN_POINT('',(-5.057561107100E-2,9.863620105841E-2,
6.158542270098E-1));
#680=CARTESIAN_POINT('',(-5.087087457201E-2,9.801724950868E-2,
6.147703523026E-1));
#681=CARTESIAN_POINT('',(-5.118594951983E-2,9.753008785966E-2,
6.136375677419E-1));
#682=CARTESIAN_POINT('',(-5.150114952886E-2,9.719004208243E-2,
6.125254936536E-1));
#683=CARTESIAN_POINT('',(-5.170957337587E-2,9.704821377287E-2,
6.118025262725E-1));
#684=CARTESIAN_POINT('',(-5.181251565136E-2,9.699628349313E-2,
6.114482393697E-1));
#686=CURVE_STYLE('',#21,POSITIVE_LENGTH_MEASURE(2.E-2),#9);
#687=PRESENTATION_STYLE_ASSIGNMENT((#686));
#688=STYLED_ITEM('',(#687),#685);
#689=CARTESIAN_POINT('',(-5.191711700634E-2,9.694365737446E-2,
6.110892052052E-1));
#690=CARTESIAN_POINT('',(-5.188216385076E-2,9.696119581717E-2,
6.112088587211E-1));
#691=CARTESIAN_POINT('',(-5.184729666959E-2,9.697873785410E-2,
6.113285367580E-1));
#692=CARTESIAN_POINT('',(-5.181251565136E-2,9.699628349313E-2,
6.114482393697E-1));
#694=CURVE_STYLE('',#21,POSITIVE_LENGTH_MEASURE(2.E-2),#9);
#695=PRESENTATION_STYLE_ASSIGNMENT((#694));
#696=STYLED_ITEM('',(#695),#693);
#697=DIRECTION('',(-4.607553942882E-13,-1.E0,-1.591909067708E-12));
#698=VECTOR('',#697,4.233315769209E-2);
#699=CARTESIAN_POINT('',(-5.191711700627E-2,1.392768150666E-1,
6.110892052055E-1));
#700=LINE('',#699,#698);
#701=CURVE_STYLE('',#21,POSITIVE_LENGTH_MEASURE(2.E-2),#9);
#702=PRESENTATION_STYLE_ASSIGNMENT((#701));
#703=STYLED_ITEM('',(#702),#700);
#704=CARTESIAN_POINT('',(-4.416830160889E-2,1.300818945282E-1,
6.209289069241E-1));
#705=CARTESIAN_POINT('',(-4.472298873443E-2,1.293178343062E-1,
6.210911470440E-1));
#706=CARTESIAN_POINT('',(-4.508419578761E-2,1.284861217583E-1,
6.211967962882E-1));
#707=CARTESIAN_POINT('',(-4.508419578761E-2,1.275281093959E-1,
6.211967962882E-1));
#709=CURVE_STYLE('',#21,POSITIVE_LENGTH_MEASURE(2.E-2),#9);
#710=PRESENTATION_STYLE_ASSIGNMENT((#709));
#711=STYLED_ITEM('',(#710),#708);
#712=DIRECTION('',(1.E0,1.867780551452E-10,2.654794330826E-14));
#713=VECTOR('',#712,4.181954932380E-3);
#714=CARTESIAN_POINT('',(-4.926615071999E-2,1.275281093951E-1,
6.211967962882E-1));
#715=LINE('',#714,#713);
#716=CURVE_STYLE('',#21,POSITIVE_LENGTH_MEASURE(2.E-2),#9);
#717=PRESENTATION_STYLE_ASSIGNMENT((#716));
#718=STYLED_ITEM('',(#717),#715);
#719=DIRECTION('',(-1.E0,-4.317209640186E-14,2.158604820093E-13));
#720=VECTOR('',#719,7.714865275183E-3);
#721=CARTESIAN_POINT('',(-4.409765037618E-2,1.392241889479E-1,
6.114482393697E-1));
#722=LINE('',#721,#720);
#723=CURVE_STYLE('',#21,POSITIVE_LENGTH_MEASURE(2.E-2),#9);
#724=PRESENTATION_STYLE_ASSIGNMENT((#723));
#725=STYLED_ITEM('',(#724),#722);
#726=DIRECTION('',(-1.989304080842E-14,-1.E0,0.E0));
#727=VECTOR('',#726,1.883574635067E-2);
#728=CARTESIAN_POINT('',(-4.508419578761E-2,1.275281093959E-1,
6.211967962882E-1));
#729=LINE('',#728,#727);
#730=CURVE_STYLE('',#21,POSITIVE_LENGTH_MEASURE(2.E-2),#9);
#731=PRESENTATION_STYLE_ASSIGNMENT((#730));
#732=STYLED_ITEM('',(#731),#729);
#733=DIRECTION('',(-4.363430867432E-2,-1.391704586845E-1,9.893066413080E-1));
#734=VECTOR('',#733,1.201279426835E-1);
#735=CARTESIAN_POINT('',(-4.401885441445E-2,1.712341170279E-1,
3.907760556849E-1));
#736=LINE('',#735,#734);
#737=CURVE_STYLE('',#21,POSITIVE_LENGTH_MEASURE(2.E-2),#9);
#738=PRESENTATION_STYLE_ASSIGNMENT((#737));
#739=STYLED_ITEM('',(#738),#736);
#740=DIRECTION('',(-1.E0,2.424995804747E-13,0.E0));
#741=VECTOR('',#740,1.144561799295E-4);
#742=CARTESIAN_POINT('',(-4.390439823452E-2,1.712341170279E-1,
3.907760556849E-1));
#743=LINE('',#742,#741);
#744=CURVE_STYLE('',#21,POSITIVE_LENGTH_MEASURE(2.E-2),#9);
#745=PRESENTATION_STYLE_ASSIGNMENT((#744));
#746=STYLED_ITEM('',(#745),#743);
#747=DIRECTION('',(-6.399178905715E-5,-9.999989454470E-1,1.450865244037E-3));
#748=VECTOR('',#747,5.400280259997E-2);
#749=CARTESIAN_POINT('',(-4.401602397260E-2,1.189905602759E-1,
3.907118819875E-1));
#750=LINE('',#749,#748);
#751=CURVE_STYLE('',#21,POSITIVE_LENGTH_MEASURE(2.E-2),#9);
#752=PRESENTATION_STYLE_ASSIGNMENT((#751));
#753=STYLED_ITEM('',(#752),#750);
#754=DIRECTION('',(5.417777592979E-5,-9.999992441037E-1,-1.228355282015E-3));
#755=VECTOR('',#754,5.224359624281E-2);
#756=CARTESIAN_POINT('',(-4.401885441445E-2,1.712341170279E-1,
3.907760556849E-1));
#757=LINE('',#756,#755);
#758=CURVE_STYLE('',#21,POSITIVE_LENGTH_MEASURE(2.E-2),#9);
#759=PRESENTATION_STYLE_ASSIGNMENT((#758));
#760=STYLED_ITEM('',(#759),#757);
#761=DIRECTION('',(-1.E0,-1.206034253925E-13,0.E0));
#762=VECTOR('',#761,1.150695990818E-4);
#763=CARTESIAN_POINT('',(-4.390441010947E-2,6.498781462472E-2,
3.907902327769E-1));
#764=LINE('',#763,#762);
#765=CURVE_STYLE('',#21,POSITIVE_LENGTH_MEASURE(2.E-2),#9);
#766=PRESENTATION_STYLE_ASSIGNMENT((#765));
#767=STYLED_ITEM('',(#766),#764);
#768=DIRECTION('',(-1.E0,1.503599551242E-11,0.E0));
#769=VECTOR('',#768,1.116794909495E-4);
#770=CARTESIAN_POINT('',(-4.390434448165E-2,1.189905602759E-1,
3.907118819875E-1));
#771=LINE('',#770,#769);
#772=CURVE_STYLE('',#21,POSITIVE_LENGTH_MEASURE(2.E-2),#9);
#773=PRESENTATION_STYLE_ASSIGNMENT((#772));
#774=STYLED_ITEM('',(#773),#771);
#775=CARTESIAN_POINT('',(-5.191711700627E-2,1.392768150666E-1,
6.110892052055E-1));
#776=CARTESIAN_POINT('',(-5.191711700629E-2,9.694365737448E-2,
6.110892052054E-1));
#777=VERTEX_POINT('',#775);
#778=VERTEX_POINT('',#776);
#779=CARTESIAN_POINT('',(-7.353079381443E-2,8.620128667501E-2,
5.371001089712E-1));
#780=CARTESIAN_POINT('',(-7.353078273225E-2,1.500191835887E-1,
5.371001470383E-1));
#781=VERTEX_POINT('',#779);
#782=VERTEX_POINT('',#780);
#783=VERTEX_POINT('',#640);
#784=VERTEX_POINT('',#656);
#785=CARTESIAN_POINT('',(-4.400971199288E-2,1.543077545046E-1,
5.110987377811E-1));
#786=CARTESIAN_POINT('',(-4.961581177462E-2,1.543077545047E-1,
5.110987377810E-1));
#787=VERTEX_POINT('',#785);
#788=VERTEX_POINT('',#786);
#789=VERTEX_POINT('',#160);
#790=VERTEX_POINT('',#81);
#791=VERTEX_POINT('',#132);
#792=VERTEX_POINT('',#135);
#793=VERTEX_POINT('',#97);
#794=VERTEX_POINT('',#155);
#795=CARTESIAN_POINT('',(-5.340335271779E-2,1.536587982050E-1,
5.142838589506E-1));
#796=VERTEX_POINT('',#795);
#797=CARTESIAN_POINT('',(-5.340335271676E-2,8.256167423627E-2,
5.142838589499E-1));
#798=VERTEX_POINT('',#797);
#799=CARTESIAN_POINT('',(-4.400413738317E-2,8.173721290376E-2,
5.098511827579E-1));
#800=VERTEX_POINT('',#799);
#801=CARTESIAN_POINT('',(-4.401885441445E-2,1.712341170279E-1,
3.907760556849E-1));
#802=CARTESIAN_POINT('',(-4.401602397260E-2,1.189905602759E-1,
3.907118819875E-1));
#803=VERTEX_POINT('',#801);
#804=VERTEX_POINT('',#802);
#805=CARTESIAN_POINT('',(-4.390439823452E-2,1.712341170279E-1,
3.907760556849E-1));
#806=VERTEX_POINT('',#805);
#807=CARTESIAN_POINT('',(-4.390434448165E-2,1.189905602759E-1,
3.907118819875E-1));
#808=VERTEX_POINT('',#807);
#809=VERTEX_POINT('',#351);
#810=VERTEX_POINT('',#388);
#811=VERTEX_POINT('',#341);
#812=CARTESIAN_POINT('',(-4.702659233176E-2,1.522519393847E-1,
5.195142371237E-1));
#813=CARTESIAN_POINT('',(-5.549191730551E-2,1.508213278818E-1,
5.248329223193E-1));
#814=VERTEX_POINT('',#812);
#815=VERTEX_POINT('',#813);
#816=VERTEX_POINT('',#236);
#817=VERTEX_POINT('',#251);
#818=CARTESIAN_POINT('',(-5.549191730569E-2,8.539914455932E-2,
5.248329223194E-1));
#819=VERTEX_POINT('',#818);
#820=VERTEX_POINT('',#398);
#821=CARTESIAN_POINT('',(-6.499788052159E-2,8.626828246054E-2,
5.382579873870E-1));
#822=CARTESIAN_POINT('',(-7.319255441169E-2,8.626828246054E-2,
5.382579873870E-1));
#823=VERTEX_POINT('',#821);
#824=VERTEX_POINT('',#822);
#825=VERTEX_POINT('',#320);
#826=VERTEX_POINT('',#336);
#827=VERTEX_POINT('',#439);
#828=VERTEX_POINT('',#442);
#829=VERTEX_POINT('',#459);
#830=VERTEX_POINT('',#423);
#831=VERTEX_POINT('',#563);
#832=VERTEX_POINT('',#578);
#833=VERTEX_POINT('',#194);
#834=VERTEX_POINT('',#53);
#835=VERTEX_POINT('',#59);
#836=CARTESIAN_POINT('',(-4.926055414591E-2,8.170460971741E-2,
5.096194271883E-1));
#837=CARTESIAN_POINT('',(-4.401947970855E-2,6.498781462472E-2,
3.907902327769E-1));
#838=VERTEX_POINT('',#836);
#839=VERTEX_POINT('',#837);
#840=CARTESIAN_POINT('',(-4.409765037618E-2,1.392241889479E-1,
6.114482393697E-1));
#841=VERTEX_POINT('',#840);
#842=CARTESIAN_POINT('',(-4.508419578761E-2,1.275281093959E-1,
6.211967962882E-1));
#843=VERTEX_POINT('',#842);
#844=VERTEX_POINT('',#605);
#845=CARTESIAN_POINT('',(-4.926615071999E-2,1.086923630452E-1,
6.211967962882E-1));
#846=VERTEX_POINT('',#845);
#847=CARTESIAN_POINT('',(-4.508419578761E-2,1.086923630452E-1,
6.211967962882E-1));
#848=VERTEX_POINT('',#847);
#849=VERTEX_POINT('',#684);
#850=VERTEX_POINT('',#558);
#851=CARTESIAN_POINT('',(-4.390441010947E-2,6.498781462472E-2,
3.907902327769E-1));
#852=VERTEX_POINT('',#851);
#853=CARTESIAN_POINT('',(-4.437130407136E-2,1.396023938557E-1,
6.088679905034E-1));
#854=VERTEX_POINT('',#853);
#855=CARTESIAN_POINT('',(-4.409767055021E-2,1.394641502767E-1,
6.098111375401E-1));
#856=VERTEX_POINT('',#855);
#857=CARTESIAN_POINT('',(-4.437130407136E-2,9.661807858535E-2,
6.088679905034E-1));
#858=VERTEX_POINT('',#857);
#859=CARTESIAN_POINT('',(-4.400413738317E-2,1.712598425197E-1,
5.098511827579E-1));
#860=DIRECTION('',(9.999996492005E-1,0.E0,8.376150092407E-4));
#861=DIRECTION('',(-8.376150092407E-4,0.E0,9.999996492005E-1));
#862=AXIS2_PLACEMENT_3D('',#859,#860,#861);
#863=PLANE('',#862);
#865=ORIENTED_EDGE('',*,*,#864,.F.);
#867=ORIENTED_EDGE('',*,*,#866,.T.);
#869=ORIENTED_EDGE('',*,*,#868,.F.);
#871=ORIENTED_EDGE('',*,*,#870,.F.);
#873=ORIENTED_EDGE('',*,*,#872,.F.);
#874=EDGE_LOOP('',(#865,#867,#869,#871,#873));
#875=FACE_OUTER_BOUND('',#874,.F.);
#877=CARTESIAN_POINT('',(-3.984403039880E-1,8.191271793677E-2,
5.110987377810E-1));
#878=DIRECTION('',(0.E0,9.902491772959E-1,-1.393074544480E-1));
#879=DIRECTION('',(0.E0,1.393074544480E-1,9.902491772959E-1));
#880=AXIS2_PLACEMENT_3D('',#877,#878,#879);
#881=PLANE('',#880);
#883=ORIENTED_EDGE('',*,*,#882,.F.);
#885=ORIENTED_EDGE('',*,*,#884,.T.);
#887=ORIENTED_EDGE('',*,*,#886,.T.);
#888=ORIENTED_EDGE('',*,*,#864,.T.);
#890=ORIENTED_EDGE('',*,*,#889,.T.);
#892=ORIENTED_EDGE('',*,*,#891,.F.);
#893=EDGE_LOOP('',(#883,#885,#887,#888,#890,#892));
#894=FACE_OUTER_BOUND('',#893,.F.);
#896=CARTESIAN_POINT('',(-4.925678886074E-2,1.712598425197E-1,
5.094661260709E-1));
#897=CARTESIAN_POINT('',(-4.926387885032E-2,1.712598425197E-1,
5.108884379823E-1));
#898=CARTESIAN_POINT('',(-5.004616791981E-2,1.712598425197E-1,
5.122318885395E-1));
#899=CARTESIAN_POINT('',(-5.127222766779E-2,1.712598425197E-1,
5.129419153913E-1));
#901=DIRECTION('',(0.E0,-1.E0,0.E0));
#902=VECTOR('',#901,1.E0);
#903=SURFACE_OF_LINEAR_EXTRUSION('',#900,#902);
#905=ORIENTED_EDGE('',*,*,#904,.T.);
#906=ORIENTED_EDGE('',*,*,#882,.T.);
#908=ORIENTED_EDGE('',*,*,#907,.F.);
#910=ORIENTED_EDGE('',*,*,#909,.T.);
#912=ORIENTED_EDGE('',*,*,#911,.T.);
#914=ORIENTED_EDGE('',*,*,#913,.F.);
#915=EDGE_LOOP('',(#905,#906,#908,#910,#912,#914));
#916=FACE_OUTER_BOUND('',#915,.F.);
#918=CARTESIAN_POINT('',(-3.984403039880E-1,8.264035848521E-2,
5.145030147189E-1));
#919=CARTESIAN_POINT('',(-3.984403039880E-1,8.238018711537E-2,
5.138618415118E-1));
#920=CARTESIAN_POINT('',(-3.984403039880E-1,8.213258423532E-2,
5.124043681354E-1));
#921=CARTESIAN_POINT('',(-3.984403039880E-1,8.187362925144E-2,
5.108668638187E-1));
#923=DIRECTION('',(1.E0,0.E0,0.E0));
#924=VECTOR('',#923,1.E0);
#925=SURFACE_OF_LINEAR_EXTRUSION('',#922,#924);
#927=ORIENTED_EDGE('',*,*,#926,.T.);
#928=ORIENTED_EDGE('',*,*,#884,.F.);
#929=ORIENTED_EDGE('',*,*,#904,.F.);
#931=ORIENTED_EDGE('',*,*,#930,.F.);
#933=ORIENTED_EDGE('',*,*,#932,.F.);
#934=EDGE_LOOP('',(#927,#928,#929,#931,#933));
#935=FACE_OUTER_BOUND('',#934,.F.);
#937=CARTESIAN_POINT('',(-4.400401994400E-2,1.712598425197E-1,
5.171625070999E-1));
#938=CARTESIAN_POINT('',(-4.400952747053E-2,1.712598425197E-1,
5.158452948862E-1));
#939=CARTESIAN_POINT('',(-4.402120689054E-2,1.712598425197E-1,
5.133083795314E-1));
#940=CARTESIAN_POINT('',(-4.400836581078E-2,1.712598425197E-1,
5.107663770324E-1));
#941=CARTESIAN_POINT('',(-4.400270945028E-2,1.712598425197E-1,
5.095442199433E-1));
#943=DIRECTION('',(0.E0,-1.E0,0.E0));
#944=VECTOR('',#943,1.E0);
#945=SURFACE_OF_LINEAR_EXTRUSION('',#942,#944);
#947=ORIENTED_EDGE('',*,*,#946,.F.);
#949=ORIENTED_EDGE('',*,*,#948,.T.);
#951=ORIENTED_EDGE('',*,*,#950,.F.);
#953=ORIENTED_EDGE('',*,*,#952,.F.);
#955=ORIENTED_EDGE('',*,*,#954,.F.);
#956=ORIENTED_EDGE('',*,*,#866,.F.);
#957=ORIENTED_EDGE('',*,*,#886,.F.);
#958=ORIENTED_EDGE('',*,*,#926,.F.);
#959=EDGE_LOOP('',(#947,#949,#951,#953,#955,#956,#957,#958));
#960=FACE_OUTER_BOUND('',#959,.F.);
#962=CARTESIAN_POINT('',(-3.984403039880E-1,8.539914455932E-2,
5.248329223194E-1));
#963=DIRECTION('',(0.E0,9.656769075462E-1,-2.597462419980E-1));
#964=DIRECTION('',(0.E0,2.597462419980E-1,9.656769075462E-1));
#965=AXIS2_PLACEMENT_3D('',#962,#963,#964);
#966=PLANE('',#965);
#967=ORIENTED_EDGE('',*,*,#946,.T.);
#968=ORIENTED_EDGE('',*,*,#932,.T.);
#970=ORIENTED_EDGE('',*,*,#969,.F.);
#972=ORIENTED_EDGE('',*,*,#971,.F.);
#974=ORIENTED_EDGE('',*,*,#973,.T.);
#976=ORIENTED_EDGE('',*,*,#975,.T.);
#978=ORIENTED_EDGE('',*,*,#977,.T.);
#979=EDGE_LOOP('',(#967,#968,#970,#972,#974,#976,#978));
#980=FACE_OUTER_BOUND('',#979,.F.);
#982=CARTESIAN_POINT('',(-5.114067686985E-2,1.712598425197E-1,
5.128622406935E-1));
#983=DIRECTION('',(-5.320011663205E-1,0.E0,-8.467436206040E-1));
#984=DIRECTION('',(8.467436206040E-1,0.E0,-5.320011663205E-1));
#985=AXIS2_PLACEMENT_3D('',#982,#983,#984);
#986=PLANE('',#985);
#988=ORIENTED_EDGE('',*,*,#987,.T.);
#990=ORIENTED_EDGE('',*,*,#989,.T.);
#992=ORIENTED_EDGE('',*,*,#991,.T.);
#993=ORIENTED_EDGE('',*,*,#969,.T.);
#994=ORIENTED_EDGE('',*,*,#930,.T.);
#995=ORIENTED_EDGE('',*,*,#913,.T.);
#996=EDGE_LOOP('',(#988,#990,#992,#993,#994,#995));
#997=FACE_OUTER_BOUND('',#996,.F.);
#999=CARTESIAN_POINT('',(-3.984403039880E-1,1.543465465627E-1,
5.108686249906E-1));
#1000=CARTESIAN_POINT('',(-3.984403039880E-1,1.540915416941E-1,
5.123826664978E-1));
#1001=CARTESIAN_POINT('',(-3.984403039880E-1,1.538475371185E-1,
5.138188222036E-1));
#1002=CARTESIAN_POINT('',(-3.984403039880E-1,1.535916879944E-1,
5.144739342317E-1));
#1004=DIRECTION('',(1.E0,0.E0,0.E0));
#1005=VECTOR('',#1004,1.E0);
#1006=SURFACE_OF_LINEAR_EXTRUSION('',#1003,#1005);
#1007=ORIENTED_EDGE('',*,*,#952,.T.);
#1009=ORIENTED_EDGE('',*,*,#1008,.F.);
#1010=ORIENTED_EDGE('',*,*,#987,.F.);
#1011=ORIENTED_EDGE('',*,*,#911,.F.);
#1013=ORIENTED_EDGE('',*,*,#1012,.F.);
#1014=EDGE_LOOP('',(#1007,#1009,#1010,#1011,#1013));
#1015=FACE_OUTER_BOUND('',#1014,.F.);
#1017=CARTESIAN_POINT('',(-3.984403039880E-1,1.536587982050E-1,
5.142838589506E-1));
#1018=DIRECTION('',(0.E0,-9.656769075377E-1,-2.597462420295E-1));
#1019=DIRECTION('',(0.E0,2.597462420295E-1,-9.656769075377E-1));
#1020=AXIS2_PLACEMENT_3D('',#1017,#1018,#1019);
#1021=PLANE('',#1020);
#1022=ORIENTED_EDGE('',*,*,#950,.T.);
#1024=ORIENTED_EDGE('',*,*,#1023,.T.);
#1026=ORIENTED_EDGE('',*,*,#1025,.T.);
#1028=ORIENTED_EDGE('',*,*,#1027,.T.);
#1030=ORIENTED_EDGE('',*,*,#1029,.F.);
#1031=ORIENTED_EDGE('',*,*,#989,.F.);
#1032=ORIENTED_EDGE('',*,*,#1008,.T.);
#1033=EDGE_LOOP('',(#1022,#1024,#1026,#1028,#1030,#1031,#1032));
#1034=FACE_OUTER_BOUND('',#1033,.F.);
#1036=CARTESIAN_POINT('',(-5.327366248985E-2,1.712598425197E-1,
5.093684117611E-1));
#1037=DIRECTION('',(0.E0,1.E0,0.E0));
#1038=DIRECTION('',(5.243095798E-1,0.E0,8.515277238763E-1));
#1039=AXIS2_PLACEMENT_3D('',#1036,#1037,#1038);
#1040=CYLINDRICAL_SURFACE('',#1039,1.191485030746E-2);
#1041=ORIENTED_EDGE('',*,*,#1023,.F.);
#1042=ORIENTED_EDGE('',*,*,#948,.F.);
#1043=ORIENTED_EDGE('',*,*,#977,.F.);
#1045=ORIENTED_EDGE('',*,*,#1044,.F.);
#1046=EDGE_LOOP('',(#1041,#1042,#1043,#1045));
#1047=FACE_OUTER_BOUND('',#1046,.F.);
#1049=CARTESIAN_POINT('',(-6.425816996345E-2,1.712598425197E-1,
5.303406775888E-1));
#1050=DIRECTION('',(5.320011663214E-1,0.E0,8.467436206035E-1));
#1051=DIRECTION('',(-8.467436206035E-1,0.E0,5.320011663214E-1));
#1052=AXIS2_PLACEMENT_3D('',#1049,#1050,#1051);
#1053=PLANE('',#1052);
#1054=ORIENTED_EDGE('',*,*,#1025,.F.);
#1055=ORIENTED_EDGE('',*,*,#1044,.T.);
#1056=ORIENTED_EDGE('',*,*,#975,.F.);
#1058=ORIENTED_EDGE('',*,*,#1057,.F.);
#1060=ORIENTED_EDGE('',*,*,#1059,.T.);
#1062=ORIENTED_EDGE('',*,*,#1061,.F.);
#1063=EDGE_LOOP('',(#1054,#1055,#1056,#1058,#1060,#1062));
#1064=FACE_OUTER_BOUND('',#1063,.F.);
#1066=CARTESIAN_POINT('',(-3.984403039880E-1,8.628319533727E-2,
5.385114557154E-1));
#1067=CARTESIAN_POINT('',(-3.984403039880E-1,8.613336806149E-2,
5.359740083789E-1));
#1068=CARTESIAN_POINT('',(-3.984403039880E-1,8.582991926439E-2,
5.302650594520E-1));
#1069=CARTESIAN_POINT('',(-3.984403039880E-1,8.552647046730E-2,
5.259275542520E-1));
#1070=CARTESIAN_POINT('',(-3.984403039880E-1,8.537284894598E-2,
5.245967778601E-1));
#1072=DIRECTION('',(1.E0,0.E0,0.E0));
#1073=VECTOR('',#1072,1.E0);
#1074=SURFACE_OF_LINEAR_EXTRUSION('',#1071,#1073);
#1075=ORIENTED_EDGE('',*,*,#1057,.T.);
#1076=ORIENTED_EDGE('',*,*,#973,.F.);
#1078=ORIENTED_EDGE('',*,*,#1077,.F.);
#1080=ORIENTED_EDGE('',*,*,#1079,.F.);
#1082=ORIENTED_EDGE('',*,*,#1081,.F.);
#1084=ORIENTED_EDGE('',*,*,#1083,.T.);
#1086=ORIENTED_EDGE('',*,*,#1085,.T.);
#1087=EDGE_LOOP('',(#1075,#1076,#1078,#1080,#1082,#1084,#1086));
#1088=FACE_OUTER_BOUND('',#1087,.F.);
#1090=CARTESIAN_POINT('',(-6.824016089383E-2,1.712598425197E-1,
5.236086725565E-1));
#1091=CARTESIAN_POINT('',(-7.050052171313E-2,1.712598425197E-1,
5.249570446794E-1));
#1092=CARTESIAN_POINT('',(-7.407716463294E-2,1.712598425197E-1,
5.292035532790E-1));
#1093=CARTESIAN_POINT('',(-7.426585112727E-2,1.712598425197E-1,
5.347408561459E-1));
#1094=CARTESIAN_POINT('',(-7.348600916803E-2,1.712598425197E-1,
5.372475850518E-1));
#1096=DIRECTION('',(0.E0,-1.E0,0.E0));
#1097=VECTOR('',#1096,1.E0);
#1098=SURFACE_OF_LINEAR_EXTRUSION('',#1095,#1097);
#1099=ORIENTED_EDGE('',*,*,#1029,.T.);
#1101=ORIENTED_EDGE('',*,*,#1100,.T.);
#1103=ORIENTED_EDGE('',*,*,#1102,.F.);
#1104=ORIENTED_EDGE('',*,*,#1077,.T.);
#1105=ORIENTED_EDGE('',*,*,#971,.T.);
#1106=ORIENTED_EDGE('',*,*,#991,.F.);
#1107=EDGE_LOOP('',(#1099,#1101,#1103,#1104,#1105,#1106));
#1108=FACE_OUTER_BOUND('',#1107,.F.);
#1110=CARTESIAN_POINT('',(-3.984403039880E-1,1.508494873194E-1,
5.245806745994E-1));
#1111=CARTESIAN_POINT('',(-3.984403039880E-1,1.506952445233E-1,
5.259097989644E-1));
#1112=CARTESIAN_POINT('',(-3.984403039880E-1,1.503912077895E-1,
5.302528948424E-1));
#1113=CARTESIAN_POINT('',(-3.984403039880E-1,1.500871710556E-1,
5.359727539828E-1));
#1114=CARTESIAN_POINT('',(-3.984403039880E-1,1.499373771178E-1,
5.385097618543E-1));
#1116=DIRECTION('',(1.E0,0.E0,0.E0));
#1117=VECTOR('',#1116,1.E0);
#1118=SURFACE_OF_LINEAR_EXTRUSION('',#1115,#1117);
#1119=ORIENTED_EDGE('',*,*,#1061,.T.);
#1121=ORIENTED_EDGE('',*,*,#1120,.T.);
#1123=ORIENTED_EDGE('',*,*,#1122,.T.);
#1125=ORIENTED_EDGE('',*,*,#1124,.F.);
#1127=ORIENTED_EDGE('',*,*,#1126,.F.);
#1128=ORIENTED_EDGE('',*,*,#1100,.F.);
#1129=ORIENTED_EDGE('',*,*,#1027,.F.);
#1130=EDGE_LOOP('',(#1119,#1121,#1123,#1125,#1127,#1128,#1129));
#1131=FACE_OUTER_BOUND('',#1130,.F.);
#1133=CARTESIAN_POINT('',(-6.209406454703E-2,1.712598425197E-1,
5.337617311928E-1));
#1134=DIRECTION('',(0.E0,-1.E0,0.E0));
#1135=DIRECTION('',(-9.602577059746E-1,0.E0,2.791149191934E-1));
#1136=AXIS2_PLACEMENT_3D('',#1133,#1134,#1135);
#1137=CYLINDRICAL_SURFACE('',#1136,4.048081028675E-3);
#1138=ORIENTED_EDGE('',*,*,#1120,.F.);
#1139=ORIENTED_EDGE('',*,*,#1059,.F.);
#1140=ORIENTED_EDGE('',*,*,#1085,.F.);
#1142=ORIENTED_EDGE('',*,*,#1141,.F.);
#1143=EDGE_LOOP('',(#1138,#1139,#1140,#1142));
#1144=FACE_OUTER_BOUND('',#1143,.F.);
#1146=CARTESIAN_POINT('',(-4.437130407137E-2,1.712598425197E-1,
6.088679905034E-1));
#1147=DIRECTION('',(9.598830133563E-1,0.E0,-2.804007857872E-1));
#1148=DIRECTION('',(2.804007857872E-1,0.E0,9.598830133563E-1));
#1149=AXIS2_PLACEMENT_3D('',#1146,#1147,#1148);
#1150=PLANE('',#1149);
#1151=ORIENTED_EDGE('',*,*,#1122,.F.);
#1152=ORIENTED_EDGE('',*,*,#1141,.T.);
#1153=ORIENTED_EDGE('',*,*,#1083,.F.);
#1155=ORIENTED_EDGE('',*,*,#1154,.F.);
#1157=ORIENTED_EDGE('',*,*,#1156,.T.);
#1159=ORIENTED_EDGE('',*,*,#1158,.F.);
#1160=EDGE_LOOP('',(#1151,#1152,#1153,#1155,#1157,#1159));
#1161=FACE_OUTER_BOUND('',#1160,.F.);
#1163=CARTESIAN_POINT('',(-3.984403039880E-1,9.699628349313E-2,
6.114482393697E-1));
#1164=DIRECTION('',(0.E0,9.894276612064E-1,-1.450272499896E-1));
#1165=DIRECTION('',(0.E0,1.450272499896E-1,9.894276612064E-1));
#1166=AXIS2_PLACEMENT_3D('',#1163,#1164,#1165);
#1167=PLANE('',#1166);
#1168=ORIENTED_EDGE('',*,*,#1154,.T.);
#1169=ORIENTED_EDGE('',*,*,#1081,.T.);
#1171=ORIENTED_EDGE('',*,*,#1170,.F.);
#1173=ORIENTED_EDGE('',*,*,#1172,.T.);
#1175=ORIENTED_EDGE('',*,*,#1174,.T.);
#1177=ORIENTED_EDGE('',*,*,#1176,.T.);
#1179=ORIENTED_EDGE('',*,*,#1178,.T.);
#1180=EDGE_LOOP('',(#1168,#1169,#1171,#1173,#1175,#1177,#1179));
#1181=FACE_OUTER_BOUND('',#1180,.F.);
#1183=CARTESIAN_POINT('',(-7.353088529786E-2,1.712598425197E-1,
5.370997949609E-1));
#1184=DIRECTION('',(-9.598830123916E-1,0.E0,2.804007890897E-1));
#1185=DIRECTION('',(-2.804007890897E-1,0.E0,-9.598830123916E-1));
#1186=AXIS2_PLACEMENT_3D('',#1183,#1184,#1185);
#1187=PLANE('',#1186);
#1188=ORIENTED_EDGE('',*,*,#1126,.T.);
#1190=ORIENTED_EDGE('',*,*,#1189,.T.);
#1192=ORIENTED_EDGE('',*,*,#1191,.T.);
#1193=ORIENTED_EDGE('',*,*,#1170,.T.);
#1194=ORIENTED_EDGE('',*,*,#1079,.T.);
#1195=ORIENTED_EDGE('',*,*,#1102,.T.);
#1196=EDGE_LOOP('',(#1188,#1190,#1192,#1193,#1194,#1195));
#1197=FACE_OUTER_BOUND('',#1196,.F.);
#1199=CARTESIAN_POINT('',(-3.984403039880E-1,1.499521899805E-1,
5.382579873869E-1));
#1200=DIRECTION('',(0.E0,-9.894276612065E-1,-1.450272499895E-1));
#1201=DIRECTION('',(0.E0,1.450272499895E-1,-9.894276612065E-1));
#1202=AXIS2_PLACEMENT_3D('',#1199,#1200,#1201);
#1203=PLANE('',#1202);
#1204=ORIENTED_EDGE('',*,*,#1158,.T.);
#1206=ORIENTED_EDGE('',*,*,#1205,.T.);
#1208=ORIENTED_EDGE('',*,*,#1207,.T.);
#1210=ORIENTED_EDGE('',*,*,#1209,.T.);
#1212=ORIENTED_EDGE('',*,*,#1211,.T.);
#1213=ORIENTED_EDGE('',*,*,#1189,.F.);
#1214=ORIENTED_EDGE('',*,*,#1124,.T.);
#1215=EDGE_LOOP('',(#1204,#1206,#1208,#1210,#1212,#1213,#1214));
#1216=FACE_OUTER_BOUND('',#1215,.F.);
#1218=CARTESIAN_POINT('',(-4.490604541932E-2,1.712598425197E-1,
6.089460465268E-1));
#1219=DIRECTION('',(0.E0,1.E0,0.E0));
#1220=DIRECTION('',(-2.807276846075E-1,0.E0,-9.597874593340E-1));
#1221=AXIS2_PLACEMENT_3D('',#1218,#1219,#1220);
#1224=DIRECTION('',(0.E0,-1.E0,0.E0));
#1225=VECTOR('',#1224,1.E0);
#1226=SURFACE_OF_LINEAR_EXTRUSION('',#1223,#1225);
#1227=ORIENTED_EDGE('',*,*,#1205,.F.);
#1228=ORIENTED_EDGE('',*,*,#1156,.F.);
#1229=ORIENTED_EDGE('',*,*,#1178,.F.);
#1231=ORIENTED_EDGE('',*,*,#1230,.T.);
#1232=EDGE_LOOP('',(#1227,#1228,#1229,#1231));
#1233=FACE_OUTER_BOUND('',#1232,.F.);
#1235=CARTESIAN_POINT('',(-4.417900806963E-2,1.712598425197E-1,
6.212746350324E-1));
#1236=CARTESIAN_POINT('',(-4.417119795589E-2,1.712598425197E-1,
6.209632778436E-1));
#1237=CARTESIAN_POINT('',(-4.415878226113E-2,1.712598425197E-1,
6.207745759861E-1));
#1238=CARTESIAN_POINT('',(-4.414245765807E-2,1.712598425197E-1,
6.197587093948E-1));
#1239=CARTESIAN_POINT('',(-4.413235923800E-2,1.712598425197E-1,
6.186485282010E-1));
#1240=CARTESIAN_POINT('',(-4.412125251865E-2,1.712598425197E-1,
6.168608139111E-1));
#1241=CARTESIAN_POINT('',(-4.409415659522E-2,1.712598425197E-1,
6.136528680057E-1));
#1242=CARTESIAN_POINT('',(-4.409790633059E-2,1.712598425197E-1,
6.105302089677E-1));
#1243=CARTESIAN_POINT('',(-4.409779710189E-2,1.712598425197E-1,
6.086979541336E-1));
#1245=DIRECTION('',(0.E0,-1.E0,0.E0));
#1246=VECTOR('',#1245,1.E0);
#1247=SURFACE_OF_LINEAR_EXTRUSION('',#1244,#1246);
#1248=ORIENTED_EDGE('',*,*,#1207,.F.);
#1249=ORIENTED_EDGE('',*,*,#1230,.F.);
#1250=ORIENTED_EDGE('',*,*,#1176,.F.);
#1252=ORIENTED_EDGE('',*,*,#1251,.F.);
#1254=ORIENTED_EDGE('',*,*,#1253,.F.);
#1256=ORIENTED_EDGE('',*,*,#1255,.F.);
#1257=EDGE_LOOP('',(#1248,#1249,#1250,#1252,#1254,#1256));
#1258=FACE_OUTER_BOUND('',#1257,.F.);
#1260=CARTESIAN_POINT('',(-3.984403039880E-1,1.086923630452E-1,
6.098721537504E-1));
#1261=DIRECTION('',(1.E0,0.E0,0.E0));
#1262=DIRECTION('',(0.E0,1.E0,1.156482317318E-14));
#1263=AXIS2_PLACEMENT_3D('',#1260,#1261,#1262);
#1266=DIRECTION('',(1.E0,0.E0,0.E0));
#1267=VECTOR('',#1266,1.E0);
#1268=SURFACE_OF_LINEAR_EXTRUSION('',#1265,#1267);
#1269=ORIENTED_EDGE('',*,*,#1251,.T.);
#1270=ORIENTED_EDGE('',*,*,#1174,.F.);
#1272=ORIENTED_EDGE('',*,*,#1271,.F.);
#1274=ORIENTED_EDGE('',*,*,#1273,.F.);
#1276=ORIENTED_EDGE('',*,*,#1275,.T.);
#1277=EDGE_LOOP('',(#1269,#1270,#1272,#1274,#1276));
#1278=FACE_OUTER_BOUND('',#1277,.F.);
#1280=CARTESIAN_POINT('',(-5.245566525275E-2,1.712598425197E-1,
6.111542305105E-1));
#1281=DIRECTION('',(0.E0,-1.E0,0.E0));
#1282=DIRECTION('',(2.807276846076E-1,0.E0,9.597874593340E-1));
#1283=AXIS2_PLACEMENT_3D('',#1280,#1281,#1282);
#1286=DIRECTION('',(0.E0,-1.E0,0.E0));
#1287=VECTOR('',#1286,1.E0);
#1288=SURFACE_OF_LINEAR_EXTRUSION('',#1285,#1287);
#1289=ORIENTED_EDGE('',*,*,#1211,.F.);
#1291=ORIENTED_EDGE('',*,*,#1290,.T.);
#1293=ORIENTED_EDGE('',*,*,#1292,.F.);
#1294=ORIENTED_EDGE('',*,*,#1271,.T.);
#1295=ORIENTED_EDGE('',*,*,#1172,.F.);
#1296=ORIENTED_EDGE('',*,*,#1191,.F.);
#1297=EDGE_LOOP('',(#1289,#1291,#1293,#1294,#1295,#1296));
#1298=FACE_OUTER_BOUND('',#1297,.F.);
#1300=CARTESIAN_POINT('',(-3.984403039880E-1,1.275281093959E-1,
6.098721537504E-1));
#1301=DIRECTION('',(1.E0,0.E0,0.E0));
#1302=DIRECTION('',(0.E0,1.E0,1.156482317318E-14));
#1303=AXIS2_PLACEMENT_3D('',#1300,#1301,#1302);
#1306=DIRECTION('',(1.E0,0.E0,0.E0));
#1307=VECTOR('',#1306,1.E0);
#1308=SURFACE_OF_LINEAR_EXTRUSION('',#1305,#1307);
#1309=ORIENTED_EDGE('',*,*,#1255,.T.);
#1311=ORIENTED_EDGE('',*,*,#1310,.T.);
#1313=ORIENTED_EDGE('',*,*,#1312,.F.);
#1314=ORIENTED_EDGE('',*,*,#1290,.F.);
#1315=ORIENTED_EDGE('',*,*,#1209,.F.);
#1316=EDGE_LOOP('',(#1309,#1311,#1313,#1314,#1315));
#1317=FACE_OUTER_BOUND('',#1316,.F.);
#1319=CARTESIAN_POINT('',(-4.910121633800E-2,1.712598425197E-1,
6.223717323297E-1));
#1320=DIRECTION('',(2.807276846064E-1,0.E0,9.597874593344E-1));
#1321=DIRECTION('',(-9.597874593344E-1,0.E0,2.807276846064E-1));
#1322=AXIS2_PLACEMENT_3D('',#1319,#1320,#1321);
#1323=PLANE('',#1322);
#1324=ORIENTED_EDGE('',*,*,#1310,.F.);
#1325=ORIENTED_EDGE('',*,*,#1253,.T.);
#1326=ORIENTED_EDGE('',*,*,#1275,.F.);
#1328=ORIENTED_EDGE('',*,*,#1327,.F.);
#1329=EDGE_LOOP('',(#1324,#1325,#1326,#1328));
#1330=FACE_OUTER_BOUND('',#1329,.F.);
#1332=CARTESIAN_POINT('',(-3.984403039880E-1,1.275281093959E-1,
6.211967962882E-1));
#1333=DIRECTION('',(0.E0,0.E0,-1.E0));
#1334=DIRECTION('',(1.E0,0.E0,0.E0));
#1335=AXIS2_PLACEMENT_3D('',#1332,#1333,#1334);
#1336=PLANE('',#1335);
#1337=ORIENTED_EDGE('',*,*,#1327,.T.);
#1338=ORIENTED_EDGE('',*,*,#1273,.T.);
#1339=ORIENTED_EDGE('',*,*,#1292,.T.);
#1340=ORIENTED_EDGE('',*,*,#1312,.T.);
#1341=EDGE_LOOP('',(#1337,#1338,#1339,#1340));
#1342=FACE_OUTER_BOUND('',#1341,.F.);
#1344=CARTESIAN_POINT('',(-3.984403039880E-1,1.712341170279E-1,
3.907760556849E-1));
#1345=DIRECTION('',(0.E0,-9.902497849187E-1,-1.393031351707E-1));
#1346=DIRECTION('',(0.E0,1.393031351707E-1,-9.902497849187E-1));
#1347=AXIS2_PLACEMENT_3D('',#1344,#1345,#1346);
#1348=PLANE('',#1347);
#1349=ORIENTED_EDGE('',*,*,#909,.F.);
#1351=ORIENTED_EDGE('',*,*,#1350,.F.);
#1353=ORIENTED_EDGE('',*,*,#1352,.F.);
#1354=ORIENTED_EDGE('',*,*,#868,.T.);
#1355=ORIENTED_EDGE('',*,*,#954,.T.);
#1356=ORIENTED_EDGE('',*,*,#1012,.T.);
#1357=EDGE_LOOP('',(#1349,#1351,#1353,#1354,#1355,#1356));
#1358=FACE_OUTER_BOUND('',#1357,.F.);
#1360=CARTESIAN_POINT('',(-4.390218252065E-2,1.712598425197E-1,
3.881307913759E-1));
#1361=DIRECTION('',(-9.990287494394E-1,0.E0,-4.406311148374E-2));
#1362=DIRECTION('',(4.406311148374E-2,0.E0,-9.990287494394E-1));
#1363=AXIS2_PLACEMENT_3D('',#1360,#1361,#1362);
#1364=PLANE('',#1363);
#1365=ORIENTED_EDGE('',*,*,#891,.T.);
#1367=ORIENTED_EDGE('',*,*,#1366,.F.);
#1369=ORIENTED_EDGE('',*,*,#1368,.F.);
#1370=ORIENTED_EDGE('',*,*,#1350,.T.);
#1371=ORIENTED_EDGE('',*,*,#907,.T.);
#1372=EDGE_LOOP('',(#1365,#1367,#1369,#1370,#1371));
#1373=FACE_OUTER_BOUND('',#1372,.F.);
#1375=CARTESIAN_POINT('',(-3.984403039880E-1,6.498781462471E-2,
3.907902327769E-1));
#1376=DIRECTION('',(0.E0,1.450865247007E-3,9.999989474945E-1));
#1377=DIRECTION('',(0.E0,-9.999989474945E-1,1.450865247007E-3));
#1378=AXIS2_PLACEMENT_3D('',#1375,#1376,#1377);
#1379=PLANE('',#1378);
#1380=ORIENTED_EDGE('',*,*,#1366,.T.);
#1381=ORIENTED_EDGE('',*,*,#889,.F.);
#1382=ORIENTED_EDGE('',*,*,#872,.T.);
#1384=ORIENTED_EDGE('',*,*,#1383,.T.);
#1385=EDGE_LOOP('',(#1380,#1381,#1382,#1384));
#1386=FACE_OUTER_BOUND('',#1385,.F.);
#1388=CARTESIAN_POINT('',(-3.984403039880E-1,1.189905602759E-1,
3.907118819875E-1));
#1389=DIRECTION('',(0.E0,-1.228355283816E-3,9.999992455714E-1));
#1390=DIRECTION('',(0.E0,-9.999992455714E-1,-1.228355283816E-3));
#1391=AXIS2_PLACEMENT_3D('',#1388,#1389,#1390);
#1392=PLANE('',#1391);
#1393=ORIENTED_EDGE('',*,*,#1368,.T.);
#1394=ORIENTED_EDGE('',*,*,#1383,.F.);
#1395=ORIENTED_EDGE('',*,*,#870,.T.);
#1396=ORIENTED_EDGE('',*,*,#1352,.T.);
#1397=EDGE_LOOP('',(#1393,#1394,#1395,#1396));
#1398=FACE_OUTER_BOUND('',#1397,.F.);
#1402=FILL_AREA_STYLE_COLOUR('',#9);
#1403=FILL_AREA_STYLE('',(#1402));
#1404=SURFACE_STYLE_FILL_AREA(#1403);
#1405=SURFACE_SIDE_STYLE('',(#1404));
#1406=SURFACE_STYLE_USAGE(.BOTH.,#1405);
#1407=PRESENTATION_STYLE_ASSIGNMENT((#1406));
#16=STYLED_ITEM('',(#1407),#1401);
#1408=PRESENTATION_LAYER_ASSIGNMENT('SHELL_198','',(#16,#876,#895,#900,#917,
#922,#936,#942,#961,#981,#998,#1003,#1016,#1035,#1048,#1065,#1071,#1089,#1095,
#1109,#1115,#1132,#1145,#1162,#1182,#1198,#1217,#1223,#1234,#1244,#1259,#1265,
#1279,#1285,#1299,#1305,#1318,#1331,#1343,#1359,#1374,#1387,#1399));
#1410=LENGTH_MEASURE_WITH_UNIT(LENGTH_MEASURE(2.54E1),#1409);
#1411=(CONVERSION_BASED_UNIT('INCH',#1410)LENGTH_UNIT()NAMED_UNIT(*));
#1413=PLANE_ANGLE_MEASURE_WITH_UNIT(PLANE_ANGLE_MEASURE(1.745329251994E-2),
#1412);
#1414=(CONVERSION_BASED_UNIT('DEGREE',#1413)NAMED_UNIT(*)PLANE_ANGLE_UNIT());
#1416=UNCERTAINTY_MEASURE_WITH_UNIT(LENGTH_MEASURE(2.555641209705E-5),#1411,
'closure',
'Maximum model space distance between geometric entities at asserted connectivities');
#1418=CARTESIAN_POINT('',(0.E0,0.E0,0.E0));
#1419=DIRECTION('',(0.E0,0.E0,1.E0));
#1420=DIRECTION('',(1.E0,0.E0,0.E0));
#1423=MECHANICAL_DESIGN_GEOMETRIC_PRESENTATION_REPRESENTATION('',(#24,#31,#38,
#45,#52,#63,#73,#80,#90,#101,#108,#115,#124,#131,#139,#147,#159,#169,#176,#186,
#198,#205,#212,#221,#228,#235,#243,#250,#258,#265,#272,#279,#292,#299,#309,#316,
#324,#340,#350,#368,#375,#392,#402,#409,#422,#438,#446,#453,#463,#470,#477,#484,
#491,#498,#505,#512,#520,#527,#535,#545,#552,#562,#582,#589,#609,#616,#623,#631,
#639,#660,#667,#688,#696,#703,#711,#718,#725,#732,#739,#746,#753,#760,#767,#774,
#16),#1417);
#1424=APPLICATION_CONTEXT('automotive design');
#1425=APPLICATION_PROTOCOL_DEFINITION('international standard',
'config_control_design',1994,#1424);
#1426=PRODUCT_DEFINITION_CONTEXT('',#1424,'design');
#1427=PRODUCT_CONTEXT('',#1424,'mechanical');
#1428=PRODUCT('MIRROR8100','MIRROR8100','NOT SPECIFIED',(#1427));
#1429=PRODUCT_DEFINITION_FORMATION_WITH_SPECIFIED_SOURCE('1','LAST_VERSION',
#1428,.MADE.);
#1437=LENGTH_MEASURE_WITH_UNIT(LENGTH_MEASURE(2.54E1),#1436);
#1438=(CONVERSION_BASED_UNIT('INCH',#1437)LENGTH_UNIT()NAMED_UNIT(*));
#1439=DERIVED_UNIT_ELEMENT(#1438,2.E0);
#1440=AREA_UNIT((#1439));
#1441=MEASURE_REPRESENTATION_ITEM('surface area measure',AREA_MEASURE(
2.473461306724E1),#1440);
#1446=LENGTH_MEASURE_WITH_UNIT(LENGTH_MEASURE(2.54E1),#1445);
#1447=(CONVERSION_BASED_UNIT('INCH',#1446)LENGTH_UNIT()NAMED_UNIT(*));
#1448=DERIVED_UNIT_ELEMENT(#1447,3.E0);
#1449=VOLUME_UNIT((#1448));
#1450=MEASURE_REPRESENTATION_ITEM('volume measure',VOLUME_MEASURE(
1.336334078239E0),#1449);
#1454=CARTESIAN_POINT('centre point',(-1.383061863887E0,2.999999646075E0,
1.336818728261E1));
#1459=LENGTH_MEASURE_WITH_UNIT(LENGTH_MEASURE(2.54E1),#1458);
#1460=(CONVERSION_BASED_UNIT('INCH',#1459)LENGTH_UNIT()NAMED_UNIT(*));
#1461=DERIVED_UNIT_ELEMENT(#1460,2.E0);
#1462=AREA_UNIT((#1461));
#1463=MEASURE_REPRESENTATION_ITEM('surface area measure',AREA_MEASURE(
2.473461306724E1),#1462);
#1468=LENGTH_MEASURE_WITH_UNIT(LENGTH_MEASURE(2.54E1),#1467);
#1469=(CONVERSION_BASED_UNIT('INCH',#1468)LENGTH_UNIT()NAMED_UNIT(*));
#1470=DERIVED_UNIT_ELEMENT(#1469,3.E0);
#1471=VOLUME_UNIT((#1470));
#1472=MEASURE_REPRESENTATION_ITEM('volume measure',VOLUME_MEASURE(
1.336334078239E0),#1471);
#1476=CARTESIAN_POINT('centre point',(-1.383061863887E0,2.999999646075E0,
1.336818728261E1));
#1=DRAUGHTING_PRE_DEFINED_COLOUR('green');
#2=COLOUR_RGB('',1.1E-2,1.2E-2,1.E0);
#3=COLOUR_RGB('',2.352941176471E-1,2.352941176471E-1,2.352941176471E-1);
#4=COLOUR_RGB('',4.1E-1,2.61589E-1,1.12848E-1);
#5=COLOUR_RGB('',5.04854E-1,1.5455E-2,1.5455E-2);
#6=COLOUR_RGB('',6.35294E-1,6.86275E-1,7.4902E-1);
#7=COLOUR_RGB('',6.40777E-1,6.40777E-1,6.40777E-1);
#8=COLOUR_RGB('',6.69062E-1,6.69903E-1,6.55217E-1);
#9=COLOUR_RGB('',7.921568627451E-1,8.196078431373E-1,9.333333333333E-1);
#10=COLOUR_RGB('',9.21569E-1,7.05882E-1,4.70588E-1);
#11=DRAUGHTING_PRE_DEFINED_COLOUR('red');
#12=DRAUGHTING_PRE_DEFINED_COLOUR('yellow');
#13=COLOUR_RGB('',1.E0,1.E0,5.3E-1);
#14=COLOUR_RGB('',1.E0,1.E0,9.49E-1);
#15=DRAUGHTING_PRE_DEFINED_COLOUR('white');
#60=B_SPLINE_CURVE_WITH_KNOTS('',3,(#53,#54,#55,#56,#57,#58,#59),.UNSPECIFIED.,
.F.,.F.,(4,1,1,1,4),(0.E0,2.5E-1,5.E-1,7.5E-1,1.E0),.UNSPECIFIED.);
#70=B_SPLINE_CURVE_WITH_KNOTS('',3,(#64,#65,#66,#67,#68,#69),.UNSPECIFIED.,.F.,
.F.,(4,1,1,4),(0.E0,3.333333333333E-1,6.666666666667E-1,1.E0),.UNSPECIFIED.);
#87=B_SPLINE_CURVE_WITH_KNOTS('',3,(#81,#82,#83,#84,#85,#86),.UNSPECIFIED.,.F.,
.F.,(4,1,1,4),(0.E0,3.333333333333E-1,6.666666666667E-1,1.E0),.UNSPECIFIED.);
#98=B_SPLINE_CURVE_WITH_KNOTS('',3,(#91,#92,#93,#94,#95,#96,#97),.UNSPECIFIED.,
.F.,.F.,(4,1,1,1,4),(0.E0,2.5E-1,5.E-1,7.5E-1,1.E0),.UNSPECIFIED.);
#121=B_SPLINE_CURVE_WITH_KNOTS('',3,(#116,#117,#118,#119,#120),.UNSPECIFIED.,
.F.,.F.,(4,1,4),(0.E0,5.E-1,1.E0),.UNSPECIFIED.);
#136=B_SPLINE_CURVE_WITH_KNOTS('',3,(#132,#133,#134,#135),.UNSPECIFIED.,.F.,.F.,
(4,4),(0.E0,1.E0),.UNSPECIFIED.);
#144=B_SPLINE_CURVE_WITH_KNOTS('',3,(#140,#141,#142,#143),.UNSPECIFIED.,.F.,.F.,
(4,4),(0.E0,1.E0),.UNSPECIFIED.);
#156=B_SPLINE_CURVE_WITH_KNOTS('',3,(#148,#149,#150,#151,#152,#153,#154,#155),
.UNSPECIFIED.,.F.,.F.,(4,1,1,1,1,4),(0.E0,2.E-1,4.E-1,6.E-1,8.E-1,1.E0),
.UNSPECIFIED.);
#166=B_SPLINE_CURVE_WITH_KNOTS('',3,(#160,#161,#162,#163,#164,#165),
.UNSPECIFIED.,.F.,.F.,(4,1,1,4),(0.E0,3.333333333333E-1,6.666666666667E-1,1.E0),
.UNSPECIFIED.);
#183=B_SPLINE_CURVE_WITH_KNOTS('',3,(#177,#178,#179,#180,#181,#182),
.UNSPECIFIED.,.F.,.F.,(4,1,1,4),(0.E0,3.333333333333E-1,6.666666666667E-1,1.E0),
.UNSPECIFIED.);
#195=B_SPLINE_CURVE_WITH_KNOTS('',3,(#187,#188,#189,#190,#191,#192,#193,#194),
.UNSPECIFIED.,.F.,.F.,(4,1,1,1,1,4),(0.E0,2.E-1,4.E-1,6.E-1,8.E-1,1.E0),
.UNSPECIFIED.);
#218=B_SPLINE_CURVE_WITH_KNOTS('',3,(#213,#214,#215,#216,#217),.UNSPECIFIED.,
.F.,.F.,(4,1,4),(0.E0,5.E-1,1.E0),.UNSPECIFIED.);
#240=B_SPLINE_CURVE_WITH_KNOTS('',3,(#236,#237,#238,#239),.UNSPECIFIED.,.F.,.F.,
(4,4),(0.E0,1.E0),.UNSPECIFIED.);
#255=B_SPLINE_CURVE_WITH_KNOTS('',3,(#251,#252,#253,#254),.UNSPECIFIED.,.F.,.F.,
(4,4),(0.E0,1.E0),.UNSPECIFIED.);
#289=B_SPLINE_CURVE_WITH_KNOTS('',3,(#280,#281,#282,#283,#284,#285,#286,#287,
#288),.UNSPECIFIED.,.F.,.F.,(4,1,1,1,1,1,4),(0.E0,1.666666666667E-1,
3.333333333333E-1,5.E-1,6.666666666667E-1,8.333333333333E-1,1.E0),
.UNSPECIFIED.);
#306=B_SPLINE_CURVE_WITH_KNOTS('',3,(#300,#301,#302,#303,#304,#305),
.UNSPECIFIED.,.F.,.F.,(4,1,1,4),(0.E0,3.333333333333E-1,6.666666666667E-1,1.E0),
.UNSPECIFIED.);
#321=B_SPLINE_CURVE_WITH_KNOTS('',3,(#317,#318,#319,#320),.UNSPECIFIED.,.F.,.F.,
(4,4),(0.E0,1.E0),.UNSPECIFIED.);
#337=B_SPLINE_CURVE_WITH_KNOTS('',3,(#325,#326,#327,#328,#329,#330,#331,#332,
#333,#334,#335,#336),.UNSPECIFIED.,.F.,.F.,(4,1,1,1,1,1,1,1,1,4),(0.E0,
1.111111111111E-1,2.222222222222E-1,3.333333333333E-1,4.444444444444E-1,
5.555555555556E-1,6.666666666667E-1,7.777777777778E-1,8.888888888889E-1,1.E0),
.UNSPECIFIED.);
#347=B_SPLINE_CURVE_WITH_KNOTS('',3,(#341,#342,#343,#344,#345,#346),
.UNSPECIFIED.,.F.,.F.,(4,1,1,4),(0.E0,3.333333333333E-1,6.666666666667E-1,1.E0),
.UNSPECIFIED.);
#365=B_SPLINE_CURVE_WITH_KNOTS('',3,(#351,#352,#353,#354,#355,#356,#357,#358,
#359,#360,#361,#362,#363,#364),.UNSPECIFIED.,.F.,.F.,(4,1,1,1,1,1,1,1,1,1,1,4),(
0.E0,9.090909090909E-2,1.818181818182E-1,2.727272727273E-1,3.636363636364E-1,
4.545454545455E-1,5.454545454545E-1,6.363636363636E-1,7.272727272727E-1,
8.181818181818E-1,9.090909090909E-1,1.E0),.UNSPECIFIED.);
#389=B_SPLINE_CURVE_WITH_KNOTS('',3,(#376,#377,#378,#379,#380,#381,#382,#383,
#384,#385,#386,#387,#388),.UNSPECIFIED.,.F.,.F.,(4,1,1,1,1,1,1,1,1,1,4),(0.E0,
1.E-1,2.E-1,3.E-1,4.E-1,5.E-1,6.E-1,7.E-1,8.E-1,9.E-1,1.E0),.UNSPECIFIED.);
#399=B_SPLINE_CURVE_WITH_KNOTS('',3,(#393,#394,#395,#396,#397,#398),
.UNSPECIFIED.,.F.,.F.,(4,1,1,4),(0.E0,3.333333333333E-1,6.666666666667E-1,1.E0),
.UNSPECIFIED.);
#419=B_SPLINE_CURVE_WITH_KNOTS('',3,(#410,#411,#412,#413,#414,#415,#416,#417,
#418),.UNSPECIFIED.,.F.,.F.,(4,1,1,1,1,1,4),(0.E0,1.666666666667E-1,
3.333333333333E-1,5.E-1,6.666666666667E-1,8.333333333333E-1,1.E0),
.UNSPECIFIED.);
#435=B_SPLINE_CURVE_WITH_KNOTS('',3,(#423,#424,#425,#426,#427,#428,#429,#430,
#431,#432,#433,#434),.UNSPECIFIED.,.F.,.F.,(4,1,1,1,1,1,1,1,1,4),(0.E0,
1.111111111111E-1,2.222222222222E-1,3.333333333333E-1,4.444444444444E-1,
5.555555555556E-1,6.666666666667E-1,7.777777777778E-1,8.888888888889E-1,1.E0),
.UNSPECIFIED.);
#443=B_SPLINE_CURVE_WITH_KNOTS('',3,(#439,#440,#441,#442),.UNSPECIFIED.,.F.,.F.,
(4,4),(0.E0,1.E0),.UNSPECIFIED.);
#460=B_SPLINE_CURVE_WITH_KNOTS('',3,(#454,#455,#456,#457,#458,#459),
.UNSPECIFIED.,.F.,.F.,(4,1,1,4),(0.E0,3.333333333333E-1,6.666666666667E-1,1.E0),
.UNSPECIFIED.);
#517=B_SPLINE_CURVE_WITH_KNOTS('',3,(#513,#514,#515,#516),.UNSPECIFIED.,.F.,.F.,
(4,4),(0.E0,1.E0),.UNSPECIFIED.);
#532=B_SPLINE_CURVE_WITH_KNOTS('',3,(#528,#529,#530,#531),.UNSPECIFIED.,.F.,.F.,
(4,4),(0.E0,1.E0),.UNSPECIFIED.);
#542=B_SPLINE_CURVE_WITH_KNOTS('',3,(#536,#537,#538,#539,#540,#541),
.UNSPECIFIED.,.F.,.F.,(4,1,1,4),(0.E0,3.333333333333E-1,6.666666666667E-1,1.E0),
.UNSPECIFIED.);
#559=B_SPLINE_CURVE_WITH_KNOTS('',3,(#553,#554,#555,#556,#557,#558),
.UNSPECIFIED.,.F.,.F.,(4,1,1,4),(0.E0,3.333333333333E-1,6.666666666667E-1,1.E0),
.UNSPECIFIED.);
#579=B_SPLINE_CURVE_WITH_KNOTS('',3,(#563,#564,#565,#566,#567,#568,#569,#570,
#571,#572,#573,#574,#575,#576,#577,#578),.UNSPECIFIED.,.F.,.F.,(4,1,1,1,1,1,1,1,
1,1,1,1,1,4),(0.E0,7.692307692308E-2,1.538461538462E-1,2.307692307692E-1,
3.076923076923E-1,3.846153846154E-1,4.615384615385E-1,5.384615384615E-1,
6.153846153846E-1,6.923076923077E-1,7.692307692308E-1,8.461538461538E-1,
9.230769230769E-1,1.E0),.UNSPECIFIED.);
#606=B_SPLINE_CURVE_WITH_KNOTS('',3,(#590,#591,#592,#593,#594,#595,#596,#597,
#598,#599,#600,#601,#602,#603,#604,#605),.UNSPECIFIED.,.F.,.F.,(4,1,1,1,1,1,1,1,
1,1,1,1,1,4),(0.E0,7.692307692308E-2,1.538461538462E-1,2.307692307692E-1,
3.076923076923E-1,3.846153846154E-1,4.615384615385E-1,5.384615384615E-1,
6.153846153846E-1,6.923076923077E-1,7.692307692308E-1,8.461538461538E-1,
9.230769230769E-1,1.E0),.UNSPECIFIED.);
#628=B_SPLINE_CURVE_WITH_KNOTS('',3,(#624,#625,#626,#627),.UNSPECIFIED.,.F.,.F.,
(4,4),(0.E0,1.E0),.UNSPECIFIED.);
#636=B_SPLINE_CURVE_WITH_KNOTS('',3,(#632,#633,#634,#635),.UNSPECIFIED.,.F.,.F.,
(4,4),(0.E0,1.E0),.UNSPECIFIED.);
#657=B_SPLINE_CURVE_WITH_KNOTS('',3,(#640,#641,#642,#643,#644,#645,#646,#647,
#648,#649,#650,#651,#652,#653,#654,#655,#656),.UNSPECIFIED.,.F.,.F.,(4,1,1,1,1,
1,1,1,1,1,1,1,1,1,4),(0.E0,7.142857142857E-2,1.428571428571E-1,
2.142857142857E-1,2.857142857143E-1,3.571428571429E-1,4.285714285714E-1,5.E-1,
5.714285714286E-1,6.428571428571E-1,7.142857142857E-1,7.857142857143E-1,
8.571428571429E-1,9.285714285714E-1,1.E0),.UNSPECIFIED.);
#685=B_SPLINE_CURVE_WITH_KNOTS('',3,(#668,#669,#670,#671,#672,#673,#674,#675,
#676,#677,#678,#679,#680,#681,#682,#683,#684),.UNSPECIFIED.,.F.,.F.,(4,1,1,1,1,
1,1,1,1,1,1,1,1,1,4),(0.E0,7.142857142857E-2,1.428571428571E-1,
2.142857142857E-1,2.857142857143E-1,3.571428571429E-1,4.285714285714E-1,5.E-1,
5.714285714286E-1,6.428571428571E-1,7.142857142857E-1,7.857142857143E-1,
8.571428571429E-1,9.285714285714E-1,1.E0),.UNSPECIFIED.);
#693=B_SPLINE_CURVE_WITH_KNOTS('',3,(#689,#690,#691,#692),.UNSPECIFIED.,.F.,.F.,
(4,4),(0.E0,1.E0),.UNSPECIFIED.);
#708=B_SPLINE_CURVE_WITH_KNOTS('',3,(#704,#705,#706,#707),.UNSPECIFIED.,.F.,.F.,
(4,4),(0.E0,1.E0),.UNSPECIFIED.);
#864=EDGE_CURVE('',#800,#852,#20,.T.);
#866=EDGE_CURVE('',#800,#789,#173,.T.);
#868=EDGE_CURVE('',#806,#789,#28,.T.);
#870=EDGE_CURVE('',#808,#806,#35,.T.);
#872=EDGE_CURVE('',#852,#808,#42,.T.);
#876=ADVANCED_FACE('',(#875),#863,.T.);
#882=EDGE_CURVE('',#835,#838,#70,.T.);
#884=EDGE_CURVE('',#835,#833,#112,.T.);
#886=EDGE_CURVE('',#833,#800,#183,.T.);
#889=EDGE_CURVE('',#852,#839,#764,.T.);
#891=EDGE_CURVE('',#838,#839,#49,.T.);
#895=ADVANCED_FACE('',(#894),#881,.F.);
#900=B_SPLINE_CURVE_WITH_KNOTS('',3,(#896,#897,#898,#899),.UNSPECIFIED.,.F.,.F.,
(4,4),(0.E0,1.E0),.UNSPECIFIED.);
#904=EDGE_CURVE('',#834,#835,#60,.T.);
#907=EDGE_CURVE('',#790,#838,#77,.T.);
#909=EDGE_CURVE('',#790,#788,#87,.T.);
#911=EDGE_CURVE('',#788,#793,#98,.T.);
#913=EDGE_CURVE('',#834,#793,#105,.T.);
#917=ADVANCED_FACE('',(#916),#903,.F.);
#922=B_SPLINE_CURVE_WITH_KNOTS('',3,(#918,#919,#920,#921),.UNSPECIFIED.,.F.,.F.,
(4,4),(0.E0,1.E0),.UNSPECIFIED.);
#926=EDGE_CURVE('',#792,#833,#195,.T.);
#930=EDGE_CURVE('',#798,#834,#121,.T.);
#932=EDGE_CURVE('',#792,#798,#128,.T.);
#936=ADVANCED_FACE('',(#935),#925,.T.);
#942=B_SPLINE_CURVE_WITH_KNOTS('',3,(#937,#938,#939,#940,#941),.UNSPECIFIED.,
.F.,.F.,(4,1,4),(0.E0,5.191725606574E-1,1.E0),.UNSPECIFIED.);
#946=EDGE_CURVE('',#791,#792,#136,.T.);
#948=EDGE_CURVE('',#791,#816,#247,.T.);
#950=EDGE_CURVE('',#794,#816,#144,.T.);
#952=EDGE_CURVE('',#787,#794,#156,.T.);
#954=EDGE_CURVE('',#789,#787,#166,.T.);
#961=ADVANCED_FACE('',(#960),#945,.F.);
#969=EDGE_CURVE('',#820,#798,#202,.T.);
#971=EDGE_CURVE('',#810,#820,#399,.T.);
#973=EDGE_CURVE('',#810,#819,#296,.T.);
#975=EDGE_CURVE('',#819,#817,#276,.T.);
#977=EDGE_CURVE('',#817,#791,#255,.T.);
#981=ADVANCED_FACE('',(#980),#966,.F.);
#987=EDGE_CURVE('',#793,#796,#218,.T.);
#989=EDGE_CURVE('',#796,#811,#232,.T.);
#991=EDGE_CURVE('',#811,#820,#406,.T.);
#998=ADVANCED_FACE('',(#997),#986,.T.);
#1003=B_SPLINE_CURVE_WITH_KNOTS('',3,(#999,#1000,#1001,#1002),.UNSPECIFIED.,.F.,
.F.,(4,4),(0.E0,1.E0),.UNSPECIFIED.);
#1008=EDGE_CURVE('',#796,#794,#209,.T.);
#1012=EDGE_CURVE('',#787,#788,#225,.T.);
#1016=ADVANCED_FACE('',(#1015),#1006,.T.);
#1023=EDGE_CURVE('',#816,#814,#240,.T.);
#1025=EDGE_CURVE('',#814,#815,#269,.T.);
#1027=EDGE_CURVE('',#815,#809,#467,.T.);
#1029=EDGE_CURVE('',#811,#809,#347,.T.);
#1035=ADVANCED_FACE('',(#1034),#1021,.F.);
#1044=EDGE_CURVE('',#814,#817,#262,.T.);
#1048=ADVANCED_FACE('',(#1047),#1040,.T.);
#1057=EDGE_CURVE('',#826,#819,#289,.T.);
#1059=EDGE_CURVE('',#826,#830,#474,.T.);
#1061=EDGE_CURVE('',#815,#830,#419,.T.);
#1065=ADVANCED_FACE('',(#1064),#1053,.T.);
#1071=B_SPLINE_CURVE_WITH_KNOTS('',3,(#1066,#1067,#1068,#1069,#1070),
.UNSPECIFIED.,.F.,.F.,(4,1,4),(0.E0,4.937481288876E-1,1.E0),.UNSPECIFIED.);
#1077=EDGE_CURVE('',#781,#810,#389,.T.);
#1079=EDGE_CURVE('',#824,#781,#306,.T.);
#1081=EDGE_CURVE('',#823,#824,#313,.T.);
#1083=EDGE_CURVE('',#823,#825,#321,.T.);
#1085=EDGE_CURVE('',#825,#826,#337,.T.);
#1089=ADVANCED_FACE('',(#1088),#1074,.T.);
#1095=B_SPLINE_CURVE_WITH_KNOTS('',3,(#1090,#1091,#1092,#1093,#1094),
.UNSPECIFIED.,.F.,.F.,(4,1,4),(0.E0,4.999865391791E-1,1.E0),.UNSPECIFIED.);
#1100=EDGE_CURVE('',#809,#782,#365,.T.);
#1102=EDGE_CURVE('',#781,#782,#372,.T.);
#1109=ADVANCED_FACE('',(#1108),#1098,.F.);
#1115=B_SPLINE_CURVE_WITH_KNOTS('',3,(#1110,#1111,#1112,#1113,#1114),
.UNSPECIFIED.,.F.,.F.,(4,1,4),(0.E0,5.073163171119E-1,1.E0),.UNSPECIFIED.);
#1120=EDGE_CURVE('',#830,#827,#435,.T.);
#1122=EDGE_CURVE('',#827,#828,#443,.T.);
#1124=EDGE_CURVE('',#829,#828,#450,.T.);
#1126=EDGE_CURVE('',#782,#829,#460,.T.);
#1132=ADVANCED_FACE('',(#1131),#1118,.T.);
#1141=EDGE_CURVE('',#827,#825,#481,.T.);
#1145=ADVANCED_FACE('',(#1144),#1137,.F.);
#1154=EDGE_CURVE('',#858,#823,#488,.T.);
#1156=EDGE_CURVE('',#858,#854,#524,.T.);
#1158=EDGE_CURVE('',#828,#854,#495,.T.);
#1162=ADVANCED_FACE('',(#1161),#1150,.T.);
#1170=EDGE_CURVE('',#778,#824,#502,.T.);
#1172=EDGE_CURVE('',#778,#849,#693,.T.);
#1174=EDGE_CURVE('',#849,#832,#613,.T.);
#1176=EDGE_CURVE('',#832,#850,#559,.T.);
#1178=EDGE_CURVE('',#850,#858,#532,.T.);
#1182=ADVANCED_FACE('',(#1181),#1167,.F.);
#1189=EDGE_CURVE('',#829,#777,#509,.T.);
#1191=EDGE_CURVE('',#777,#778,#700,.T.);
#1198=ADVANCED_FACE('',(#1197),#1187,.T.);
#1205=EDGE_CURVE('',#854,#856,#517,.T.);
#1207=EDGE_CURVE('',#856,#841,#542,.T.);
#1209=EDGE_CURVE('',#841,#783,#722,.T.);
#1211=EDGE_CURVE('',#783,#777,#636,.T.);
#1217=ADVANCED_FACE('',(#1216),#1203,.F.);
#1222=ELLIPSE('',#1221,1.181102362205E-2,5.351613735903E-4);
#1223=TRIMMED_CURVE('',#1222,(PARAMETER_VALUE(2.648644258205E2)),(PARAMETER_VALUE(2.696352015133E2)),.T.,.UNSPECIFIED.);
#1230=EDGE_CURVE('',#850,#856,#549,.T.);
#1234=ADVANCED_FACE('',(#1233),#1226,.F.);
#1244=B_SPLINE_CURVE_WITH_KNOTS('',3,(#1235,#1236,#1237,#1238,#1239,#1240,#1241,
#1242,#1243),.UNSPECIFIED.,.F.,.F.,(4,1,1,1,1,1,4),(0.E0,1.888341017838E-1,
2.941404314481E-1,4.019082055908E-1,5.123572254874E-1,7.066220634653E-1,1.E0),
.UNSPECIFIED.);
#1251=EDGE_CURVE('',#831,#832,#579,.T.);
#1253=EDGE_CURVE('',#844,#831,#586,.T.);
#1255=EDGE_CURVE('',#841,#844,#606,.T.);
#1259=ADVANCED_FACE('',(#1258),#1247,.F.);
#1264=ELLIPSE('',#1263,1.181102362205E-2,1.132464253781E-2);
#1265=TRIMMED_CURVE('',#1264,(PARAMETER_VALUE(9.E1)),(PARAMETER_VALUE(
1.719999999999E2)),.T.,.UNSPECIFIED.);
#1271=EDGE_CURVE('',#846,#849,#685,.T.);
#1273=EDGE_CURVE('',#848,#846,#620,.T.);
#1275=EDGE_CURVE('',#848,#831,#628,.T.);
#1279=ADVANCED_FACE('',(#1278),#1268,.T.);
#1284=ELLIPSE('',#1283,1.181102362205E-2,5.351613735786E-4);
#1285=TRIMMED_CURVE('',#1284,(PARAMETER_VALUE(2.704306550279E2)),(PARAMETER_VALUE(3.331114967168E2)),.T.,.UNSPECIFIED.);
#1290=EDGE_CURVE('',#783,#784,#657,.T.);
#1292=EDGE_CURVE('',#846,#784,#664,.T.);
#1299=ADVANCED_FACE('',(#1298),#1288,.F.);
#1304=ELLIPSE('',#1303,1.181102362205E-2,1.132464253781E-2);
#1305=TRIMMED_CURVE('',#1304,(PARAMETER_VALUE(8.000000000154E0)),(PARAMETER_VALUE(9.E1)),.T.,.UNSPECIFIED.);
#1310=EDGE_CURVE('',#844,#843,#708,.T.);
#1312=EDGE_CURVE('',#784,#843,#715,.T.);
#1318=ADVANCED_FACE('',(#1317),#1308,.T.);
#1327=EDGE_CURVE('',#843,#848,#729,.T.);
#1331=ADVANCED_FACE('',(#1330),#1323,.T.);
#1343=ADVANCED_FACE('',(#1342),#1336,.F.);
#1350=EDGE_CURVE('',#803,#790,#736,.T.);
#1352=EDGE_CURVE('',#806,#803,#743,.T.);
#1359=ADVANCED_FACE('',(#1358),#1348,.F.);
#1366=EDGE_CURVE('',#804,#839,#750,.T.);
#1368=EDGE_CURVE('',#803,#804,#757,.T.);
#1374=ADVANCED_FACE('',(#1373),#1364,.T.);
#1383=EDGE_CURVE('',#808,#804,#771,.T.);
#1387=ADVANCED_FACE('',(#1386),#1379,.F.);
#1399=ADVANCED_FACE('',(#1398),#1392,.F.);
#1400=CLOSED_SHELL('',(#876,#895,#917,#936,#961,#981,#998,#1016,#1035,#1048,
#1065,#1089,#1109,#1132,#1145,#1162,#1182,#1198,#1217,#1234,#1259,#1279,#1299,
#1318,#1331,#1343,#1359,#1374,#1387,#1399));
#1401=MANIFOLD_SOLID_BREP('',#1400);
#1409=(LENGTH_UNIT()NAMED_UNIT(*)SI_UNIT(.MILLI.,.METRE.));
#1412=(NAMED_UNIT(*)PLANE_ANGLE_UNIT()SI_UNIT($,.RADIAN.));
#1415=(NAMED_UNIT(*)SI_UNIT($,.STERADIAN.)SOLID_ANGLE_UNIT());
#1417=(GEOMETRIC_REPRESENTATION_CONTEXT(3)GLOBAL_UNCERTAINTY_ASSIGNED_CONTEXT((
#1416))GLOBAL_UNIT_ASSIGNED_CONTEXT((#1411,#1414,#1415))REPRESENTATION_CONTEXT(
'ID1','3'));
#1421=AXIS2_PLACEMENT_3D('',#1418,#1419,#1420);
#1422=ADVANCED_BREP_SHAPE_REPRESENTATION('',(#1421,#1401),#1417);
#1430=PRODUCT_DEFINITION('design','',#1429,#1426);
#1431=PRODUCT_DEFINITION_SHAPE('','SHAPE FOR MIRROR8100.',#1430);
#1432=SHAPE_ASPECT('','solid data associated with MIRROR8100',#1431,.F.);
#1433=PROPERTY_DEFINITION('',
'shape for solid data with which properties are associated',#1432);
#1434=SHAPE_REPRESENTATION('',(#1401),#1417);
#1435=SHAPE_DEFINITION_REPRESENTATION(#1433,#1434);
#1436=(LENGTH_UNIT()NAMED_UNIT(*)SI_UNIT(.MILLI.,.METRE.));
#1442=PROPERTY_DEFINITION('geometric validation property','area of MIRROR8100',
#1432);
#1443=REPRESENTATION('surface area',(#1441),#1417);
#1444=PROPERTY_DEFINITION_REPRESENTATION(#1442,#1443);
#1445=(LENGTH_UNIT()NAMED_UNIT(*)SI_UNIT(.MILLI.,.METRE.));
#1451=PROPERTY_DEFINITION('geometric validation property',
'volume of MIRROR8100',#1432);
#1452=REPRESENTATION('volume',(#1450),#1417);
#1453=PROPERTY_DEFINITION_REPRESENTATION(#1451,#1452);
#1455=PROPERTY_DEFINITION('geometric validation property',
'centroid of MIRROR8100',#1432);
#1456=REPRESENTATION('centroid',(#1454),#1417);
#1457=PROPERTY_DEFINITION_REPRESENTATION(#1455,#1456);
#1458=(LENGTH_UNIT()NAMED_UNIT(*)SI_UNIT(.MILLI.,.METRE.));
#1464=PROPERTY_DEFINITION('geometric validation property','area of MIRROR8100',
#1431);
#1465=REPRESENTATION('surface area',(#1463),#1417);
#1466=PROPERTY_DEFINITION_REPRESENTATION(#1464,#1465);
#1467=(LENGTH_UNIT()NAMED_UNIT(*)SI_UNIT(.MILLI.,.METRE.));
#1473=PROPERTY_DEFINITION('geometric validation property',
'volume of MIRROR8100',#1431);
#1474=REPRESENTATION('volume',(#1472),#1417);
#1475=PROPERTY_DEFINITION_REPRESENTATION(#1473,#1474);
#1477=PROPERTY_DEFINITION('geometric validation property',
'centroid of MIRROR8100',#1431);
#1478=REPRESENTATION('centroid',(#1476),#1417);
#1479=PROPERTY_DEFINITION_REPRESENTATION(#1477,#1478);
#1480=SHAPE_DEFINITION_REPRESENTATION(#1431,#1422);
ENDSEC;
END-ISO-10303-21;
