ISO-10303-21;
HEADER;
FILE_DESCRIPTION((''),'2;1');
FILE_NAME('MIRROR18','2026-06-15T13:46:10',('Esia'),(''),
'CREO PARAMETRIC BY PTC INC, 2025102','CREO PARAMETRIC BY PTC INC, 2025102','');
FILE_SCHEMA((
'AP242_MANAGED_MODEL_BASED_3D_ENGINEERING_MIM_LF { 1 0 10303 442 1 1 4 }'));
ENDSEC;
DATA;
#17=DIRECTION('',(4.946693897382E-1,1.456323433314E-1,8.567925159756E-1));
#18=VECTOR('',#17,2.636004097830E-2);
#19=CARTESIAN_POINT('',(2.703538306342E-1,9.225654899266E-2,5.811023622047E-1));
#20=LINE('',#19,#18);
#21=DRAUGHTING_PRE_DEFINED_CURVE_FONT('continuous');
#22=CURVE_STYLE('',#21,POSITIVE_LENGTH_MEASURE(2.E-2),#5);
#23=PRESENTATION_STYLE_ASSIGNMENT((#22));
#24=STYLED_ITEM('',(#23),#20);
#25=DIRECTION('',(-4.946693897382E-1,1.456323433317E-1,-8.567925159756E-1));
#26=VECTOR('',#25,2.636004097853E-2);
#27=CARTESIAN_POINT('',(2.833933360185E-1,1.401250489103E-1,6.036874480359E-1));
#28=LINE('',#27,#26);
#29=CURVE_STYLE('',#21,POSITIVE_LENGTH_MEASURE(2.E-2),#5);
#30=PRESENTATION_STYLE_ASSIGNMENT((#29));
#31=STYLED_ITEM('',(#30),#28);
#32=DIRECTION('',(4.403293659992E-14,1.E0,2.201646829996E-14));
#33=VECTOR('',#32,5.042693539668E-3);
#34=CARTESIAN_POINT('',(2.918660417175E-1,1.155888894507E-1,6.183626047840E-1));
#35=LINE('',#34,#33);
#36=CURVE_STYLE('',#21,POSITIVE_LENGTH_MEASURE(2.E-2),#5);
#37=PRESENTATION_STYLE_ASSIGNMENT((#36));
#38=STYLED_ITEM('',(#37),#35);
#39=DIRECTION('',(-1.E0,1.117696421965E-11,4.314487280711E-13));
#40=VECTOR('',#39,1.363819533510E-2);
#41=CARTESIAN_POINT('',(3.055042370526E-1,1.155888894505E-1,6.183626047840E-1));
#42=LINE('',#41,#40);
#43=CURVE_STYLE('',#21,POSITIVE_LENGTH_MEASURE(2.E-2),#5);
#44=PRESENTATION_STYLE_ASSIGNMENT((#43));
#45=STYLED_ITEM('',(#44),#42);
#46=CARTESIAN_POINT('',(3.055042370526E-1,1.155888894502E-1,6.183626047840E-1));
#47=CARTESIAN_POINT('',(3.055042370526E-1,1.141628941454E-1,6.183626047840E-1));
#48=CARTESIAN_POINT('',(3.053550548404E-1,1.115702677729E-1,6.181042136130E-1));
#49=CARTESIAN_POINT('',(3.046625686371E-1,1.070702246990E-1,6.169047923254E-1));
#50=CARTESIAN_POINT('',(3.032183210346E-1,1.024511787492E-1,6.144032820990E-1));
#51=CARTESIAN_POINT('',(3.011322745959E-1,9.894794723256E-2,6.107901436802E-1));
#52=CARTESIAN_POINT('',(2.990005255661E-1,9.695016833324E-2,6.070978460518E-1));
#53=CARTESIAN_POINT('',(2.977375901617E-1,9.629388371918E-2,6.049103777647E-1));
#54=CARTESIAN_POINT('',(2.970315313535E-1,9.609542353064E-2,6.036874480357E-1));
#56=CURVE_STYLE('',#21,POSITIVE_LENGTH_MEASURE(2.E-2),#5);
#57=PRESENTATION_STYLE_ASSIGNMENT((#56));
#58=STYLED_ITEM('',(#57),#55);
#59=DIRECTION('',(1.E0,-1.526351632326E-14,-6.512433631259E-14));
#60=VECTOR('',#59,1.363819533510E-2);
#61=CARTESIAN_POINT('',(2.833933360184E-1,9.609542353064E-2,6.036874480357E-1));
#62=LINE('',#61,#60);
#63=CURVE_STYLE('',#21,POSITIVE_LENGTH_MEASURE(2.E-2),#5);
#64=PRESENTATION_STYLE_ASSIGNMENT((#63));
#65=STYLED_ITEM('',(#64),#62);
#66=CARTESIAN_POINT('',(2.833933360184E-1,9.609542353064E-2,6.036874480357E-1));
#67=CARTESIAN_POINT('',(2.840993948267E-1,9.629388371918E-2,6.049103777647E-1));
#68=CARTESIAN_POINT('',(2.853623302311E-1,9.695016833327E-2,6.070978460518E-1));
#69=CARTESIAN_POINT('',(2.874940792608E-1,9.894794723264E-2,6.107901436804E-1));
#70=CARTESIAN_POINT('',(2.895801256995E-1,1.024511787494E-1,6.144032820991E-1));
#71=CARTESIAN_POINT('',(2.910243733021E-1,1.070702246993E-1,6.169047923255E-1));
#72=CARTESIAN_POINT('',(2.917168595054E-1,1.115702677733E-1,6.181042136131E-1));
#73=CARTESIAN_POINT('',(2.918660417175E-1,1.141628941459E-1,6.183626047840E-1));
#74=CARTESIAN_POINT('',(2.918660417175E-1,1.155888894507E-1,6.183626047840E-1));
#76=CURVE_STYLE('',#21,POSITIVE_LENGTH_MEASURE(2.E-2),#5);
#77=PRESENTATION_STYLE_ASSIGNMENT((#76));
#78=STYLED_ITEM('',(#77),#75);
#79=DIRECTION('',(-1.E0,1.017567754884E-14,-5.698379427351E-14));
#80=VECTOR('',#79,1.363819533511E-2);
#81=CARTESIAN_POINT('',(2.970315313536E-1,1.401250489103E-1,6.036874480359E-1));
#82=LINE('',#81,#80);
#83=CURVE_STYLE('',#21,POSITIVE_LENGTH_MEASURE(2.E-2),#5);
#84=PRESENTATION_STYLE_ASSIGNMENT((#83));
#85=STYLED_ITEM('',(#84),#82);
#86=CARTESIAN_POINT('',(2.970315313536E-1,1.401250489103E-1,6.036874480359E-1));
#87=CARTESIAN_POINT('',(2.977375901618E-1,1.399265887217E-1,6.049103777649E-1));
#88=CARTESIAN_POINT('',(2.990005255662E-1,1.392703041076E-1,6.070978460519E-1));
#89=CARTESIAN_POINT('',(3.011322745959E-1,1.372725252083E-1,6.107901436803E-1));
#90=CARTESIAN_POINT('',(3.032183210346E-1,1.337692936916E-1,6.144032820991E-1));
#91=CARTESIAN_POINT('',(3.046625686372E-1,1.291502477418E-1,6.169047923254E-1));
#92=CARTESIAN_POINT('',(3.053550548404E-1,1.246502046680E-1,6.181042136130E-1));
#93=CARTESIAN_POINT('',(3.055042370526E-1,1.220575782955E-1,6.183626047840E-1));
#94=CARTESIAN_POINT('',(3.055042370526E-1,1.206315829907E-1,6.183626047840E-1));
#96=CURVE_STYLE('',#21,POSITIVE_LENGTH_MEASURE(2.E-2),#5);
#97=PRESENTATION_STYLE_ASSIGNMENT((#96));
#98=STYLED_ITEM('',(#97),#95);
#99=DIRECTION('',(1.E0,9.763562608118E-12,-4.314487280711E-13));
#100=VECTOR('',#99,1.363819533510E-2);
#101=CARTESIAN_POINT('',(2.918660417175E-1,1.206315829903E-1,
6.183626047840E-1));
#102=LINE('',#101,#100);
#103=CURVE_STYLE('',#21,POSITIVE_LENGTH_MEASURE(2.E-2),#5);
#104=PRESENTATION_STYLE_ASSIGNMENT((#103));
#105=STYLED_ITEM('',(#104),#102);
#106=CARTESIAN_POINT('',(2.918660417175E-1,1.206315829903E-1,
6.183626047840E-1));
#107=CARTESIAN_POINT('',(2.918660417175E-1,1.220575782951E-1,
6.183626047840E-1));
#108=CARTESIAN_POINT('',(2.917168595054E-1,1.246502046677E-1,
6.181042136131E-1));
#109=CARTESIAN_POINT('',(2.910243733021E-1,1.291502477416E-1,
6.169047923255E-1));
#110=CARTESIAN_POINT('',(2.895801256995E-1,1.337692936915E-1,
6.144032820992E-1));
#111=CARTESIAN_POINT('',(2.874940792609E-1,1.372725252082E-1,
6.107901436804E-1));
#112=CARTESIAN_POINT('',(2.853623302311E-1,1.392703041076E-1,
6.070978460520E-1));
#113=CARTESIAN_POINT('',(2.840993948268E-1,1.399265887217E-1,
6.049103777649E-1));
#114=CARTESIAN_POINT('',(2.833933360185E-1,1.401250489103E-1,
6.036874480359E-1));
#116=CURVE_STYLE('',#21,POSITIVE_LENGTH_MEASURE(2.E-2),#5);
#117=PRESENTATION_STYLE_ASSIGNMENT((#116));
#118=STYLED_ITEM('',(#117),#115);
#119=DIRECTION('',(-1.932414346468E-13,1.E0,-3.370989471061E-13));
#120=VECTOR('',#119,5.170737445564E-2);
#121=CARTESIAN_POINT('',(2.703538306342E-1,9.225654899266E-2,
5.811023622047E-1));
#122=LINE('',#121,#120);
#123=CURVE_STYLE('',#21,POSITIVE_LENGTH_MEASURE(2.E-2),#5);
#124=PRESENTATION_STYLE_ASSIGNMENT((#123));
#125=STYLED_ITEM('',(#124),#122);
#126=CARTESIAN_POINT('',(2.677165354332E-1,9.058357147394E-2,
5.712598053616E-1));
#127=CARTESIAN_POINT('',(2.677165321202E-1,9.088189472356E-2,
5.730149177341E-1));
#128=CARTESIAN_POINT('',(2.681774279611E-1,9.145810071301E-2,
5.764048857050E-1));
#129=CARTESIAN_POINT('',(2.694731779285E-1,9.199728185415E-2,
5.795770269747E-1));
#130=CARTESIAN_POINT('',(2.703538306342E-1,9.225654899266E-2,
5.811023622047E-1));
#132=CURVE_STYLE('',#21,POSITIVE_LENGTH_MEASURE(2.E-2),#5);
#133=PRESENTATION_STYLE_ASSIGNMENT((#132));
#134=STYLED_ITEM('',(#133),#131);
#135=CARTESIAN_POINT('',(2.703538306342E-1,1.439639234483E-1,
5.811023622047E-1));
#136=CARTESIAN_POINT('',(2.694731779285E-1,1.442231905868E-1,
5.795770269746E-1));
#137=CARTESIAN_POINT('',(2.681774279611E-1,1.447623717279E-1,
5.764048857050E-1));
#138=CARTESIAN_POINT('',(2.677165321202E-1,1.453385777174E-1,
5.730149177340E-1));
#139=CARTESIAN_POINT('',(2.677165354332E-1,1.456369009670E-1,
5.712598053616E-1));
#141=CURVE_STYLE('',#21,POSITIVE_LENGTH_MEASURE(2.E-2),#5);
#142=PRESENTATION_STYLE_ASSIGNMENT((#141));
#143=STYLED_ITEM('',(#142),#140);
#144=DIRECTION('',(-4.946693897382E-1,-1.456323433314E-1,-8.567925159756E-1));
#145=VECTOR('',#144,3.325262197179E-2);
#146=CARTESIAN_POINT('',(2.970315313535E-1,9.609542353064E-2,
6.036874480357E-1));
#147=LINE('',#146,#145);
#148=CURVE_STYLE('',#21,POSITIVE_LENGTH_MEASURE(2.E-2),#5);
#149=PRESENTATION_STYLE_ASSIGNMENT((#148));
#150=STYLED_ITEM('',(#149),#147);
#151=DIRECTION('',(4.403293659743E-14,-1.E0,-2.201646829871E-14));
#152=VECTOR('',#151,5.042693539954E-3);
#153=CARTESIAN_POINT('',(3.055042370526E-1,1.206315829905E-1,
6.183626047840E-1));
#154=LINE('',#153,#152);
#155=CURVE_STYLE('',#21,POSITIVE_LENGTH_MEASURE(2.E-2),#5);
#156=PRESENTATION_STYLE_ASSIGNMENT((#155));
#157=STYLED_ITEM('',(#156),#154);
#158=DIRECTION('',(4.946693897382E-1,-1.456323433317E-1,8.567925159756E-1));
#159=VECTOR('',#158,3.325262197201E-2);
#160=CARTESIAN_POINT('',(2.805824771355E-1,1.449677061700E-1,
5.751968503937E-1));
#161=LINE('',#160,#159);
#162=CURVE_STYLE('',#21,POSITIVE_LENGTH_MEASURE(2.E-2),#5);
#163=PRESENTATION_STYLE_ASSIGNMENT((#162));
#164=STYLED_ITEM('',(#163),#161);
#165=CARTESIAN_POINT('',(2.805824771355E-1,9.125276627097E-2,
5.751968503937E-1));
#166=CARTESIAN_POINT('',(2.804501962329E-1,9.121387036738E-2,
5.749680157932E-1));
#167=CARTESIAN_POINT('',(2.802078030272E-1,9.113329941077E-2,
5.744939961417E-1));
#168=CARTESIAN_POINT('',(2.799100989122E-1,9.100209522234E-2,
5.737220881704E-1));
#169=CARTESIAN_POINT('',(2.796931189408E-1,9.086533258802E-2,
5.729174784328E-1));
#170=CARTESIAN_POINT('',(2.795599282612E-1,9.072447693828E-2,
5.720887884332E-1));
#171=CARTESIAN_POINT('',(2.795292470354E-1,9.063067642189E-2,
5.715369358804E-1));
#172=CARTESIAN_POINT('',(2.795282977456E-1,9.058356595310E-2,
5.712597728810E-1));
#174=CURVE_STYLE('',#21,POSITIVE_LENGTH_MEASURE(2.E-2),#5);
#175=PRESENTATION_STYLE_ASSIGNMENT((#174));
#176=STYLED_ITEM('',(#175),#173);
#177=DIRECTION('',(0.E0,-1.E0,0.E0));
#178=VECTOR('',#177,5.371493989900E-2);
#179=CARTESIAN_POINT('',(2.805824771355E-1,1.449677061700E-1,
5.751968503937E-1));
#180=LINE('',#179,#178);
#181=CURVE_STYLE('',#21,POSITIVE_LENGTH_MEASURE(2.E-2),#5);
#182=PRESENTATION_STYLE_ASSIGNMENT((#181));
#183=STYLED_ITEM('',(#182),#180);
#184=CARTESIAN_POINT('',(2.795282977456E-1,1.456369064879E-1,
5.712597728810E-1));
#185=CARTESIAN_POINT('',(2.795292429118E-1,1.455900006589E-1,
5.715357319315E-1));
#186=CARTESIAN_POINT('',(2.795596267763E-1,1.454965027508E-1,
5.720858041624E-1));
#187=CARTESIAN_POINT('',(2.796926267008E-1,1.453555069574E-1,
5.729153186625E-1));
#188=CARTESIAN_POINT('',(2.799093006199E-1,1.452188339147E-1,
5.737194013098E-1));
#189=CARTESIAN_POINT('',(2.802059185987E-1,1.450878832667E-1,
5.744898176374E-1));
#190=CARTESIAN_POINT('',(2.804492415027E-1,1.450068828026E-1,
5.749663641919E-1));
#191=CARTESIAN_POINT('',(2.805824771355E-1,1.449677061700E-1,
5.751968503937E-1));
#193=CURVE_STYLE('',#21,POSITIVE_LENGTH_MEASURE(2.E-2),#5);
#194=PRESENTATION_STYLE_ASSIGNMENT((#193));
#195=STYLED_ITEM('',(#194),#192);
#196=DIRECTION('',(-4.277279970192E-14,1.E0,3.888436336538E-14));
#197=VECTOR('',#196,5.710382933071E-2);
#198=CARTESIAN_POINT('',(2.823402550418E-1,8.955832155512E-2,
5.652279965109E-1));
#199=LINE('',#198,#197);
#200=CURVE_STYLE('',#21,POSITIVE_LENGTH_MEASURE(2.E-2),#5);
#201=PRESENTATION_STYLE_ASSIGNMENT((#200));
#202=STYLED_ITEM('',(#201),#199);
#203=CARTESIAN_POINT('',(2.795282977456E-1,9.058356595310E-2,
5.712597728810E-1));
#204=CARTESIAN_POINT('',(2.795275878438E-1,9.053669777273E-2,
5.709840353267E-1));
#205=CARTESIAN_POINT('',(2.795567212806E-1,9.044254009083E-2,
5.704300814774E-1));
#206=CARTESIAN_POINT('',(2.796970930601E-1,9.029811716916E-2,5.695804043E-1));
#207=CARTESIAN_POINT('',(2.799315640918E-1,9.015626856124E-2,
5.687458724722E-1));
#208=CARTESIAN_POINT('',(2.802595328134E-1,9.001755754068E-2,
5.679297998775E-1));
#209=CARTESIAN_POINT('',(2.806754154349E-1,8.988546152129E-2,
5.671526450353E-1));
#210=CARTESIAN_POINT('',(2.811651258709E-1,8.976368269317E-2,
5.664361888817E-1));
#211=CARTESIAN_POINT('',(2.817242034934E-1,8.965283370637E-2,
5.657840357946E-1));
#212=CARTESIAN_POINT('',(2.821290583821E-1,8.958842429954E-2,
5.654050986954E-1));
#213=CARTESIAN_POINT('',(2.823402550418E-1,8.955832155512E-2,
5.652279965109E-1));
#215=CURVE_STYLE('',#21,POSITIVE_LENGTH_MEASURE(2.E-2),#5);
#216=PRESENTATION_STYLE_ASSIGNMENT((#215));
#217=STYLED_ITEM('',(#216),#214);
#218=DIRECTION('',(0.E0,-1.E0,0.E0));
#219=VECTOR('',#218,5.505334053476E-2);
#220=CARTESIAN_POINT('',(2.795282977456E-1,1.456369064879E-1,
5.712597728810E-1));
#221=LINE('',#220,#219);
#222=CURVE_STYLE('',#21,POSITIVE_LENGTH_MEASURE(2.E-2),#5);
#223=PRESENTATION_STYLE_ASSIGNMENT((#222));
#224=STYLED_ITEM('',(#223),#221);
#225=CARTESIAN_POINT('',(2.823402550418E-1,1.466621508858E-1,
5.652279965109E-1));
#226=CARTESIAN_POINT('',(2.821293180930E-1,1.466320851591E-1,
5.654048809108E-1));
#227=CARTESIAN_POINT('',(2.817247123293E-1,1.465677394667E-1,
5.657834431613E-1));
#228=CARTESIAN_POINT('',(2.811643828172E-1,1.464566354156E-1,
5.664370968575E-1));
#229=CARTESIAN_POINT('',(2.806754075796E-1,1.463349790680E-1,
5.671528324266E-1));
#230=CARTESIAN_POINT('',(2.802603134605E-1,1.462031983686E-1,
5.679281321607E-1));
#231=CARTESIAN_POINT('',(2.799314312339E-1,1.460641873160E-1,
5.687459699207E-1));
#232=CARTESIAN_POINT('',(2.796968490994E-1,1.459221406809E-1,
5.695816667935E-1));
#233=CARTESIAN_POINT('',(2.795568478627E-1,1.457780580532E-1,
5.704293419341E-1));
#234=CARTESIAN_POINT('',(2.795275870109E-1,1.456838296545E-1,
5.709837118283E-1));
#235=CARTESIAN_POINT('',(2.795282977456E-1,1.456369064879E-1,
5.712597728810E-1));
#237=CURVE_STYLE('',#21,POSITIVE_LENGTH_MEASURE(2.E-2),#5);
#238=PRESENTATION_STYLE_ASSIGNMENT((#237));
#239=STYLED_ITEM('',(#238),#236);
#240=DIRECTION('',(7.615127941942E-1,-1.086107738142E-1,-6.389851047482E-1));
#241=VECTOR('',#240,2.418579609117E-2);
#242=CARTESIAN_POINT('',(2.823402550418E-1,8.955832155512E-2,
5.652279965109E-1));
#243=LINE('',#242,#241);
#244=CURVE_STYLE('',#21,POSITIVE_LENGTH_MEASURE(2.E-2),#5);
#245=PRESENTATION_STYLE_ASSIGNMENT((#244));
#246=STYLED_ITEM('',(#245),#243);
#247=DIRECTION('',(-7.615127941942E-1,-1.086107738145E-1,6.389851047482E-1));
#248=VECTOR('',#247,2.418579609118E-2);
#249=CARTESIAN_POINT('',(3.007580482030E-1,1.492889889146E-1,
5.497736330622E-1));
#250=LINE('',#249,#248);
#251=CURVE_STYLE('',#21,POSITIVE_LENGTH_MEASURE(2.E-2),#5);
#252=PRESENTATION_STYLE_ASSIGNMENT((#251));
#253=STYLED_ITEM('',(#252),#250);
#254=DIRECTION('',(1.077545891047E-14,1.E0,-1.923004974792E-13));
#255=VECTOR('',#254,6.697115844460E-2);
#256=CARTESIAN_POINT('',(3.070866141732E-1,8.462465699819E-2,
5.362019795423E-1));
#257=LINE('',#256,#255);
#258=CURVE_STYLE('',#21,POSITIVE_LENGTH_MEASURE(2.E-2),#5);
#259=PRESENTATION_STYLE_ASSIGNMENT((#258));
#260=STYLED_ITEM('',(#259),#257);
#261=CARTESIAN_POINT('',(3.007580482030E-1,8.693148352635E-2,
5.497736330622E-1));
#262=CARTESIAN_POINT('',(3.028763692292E-1,8.662935795788E-2,
5.479961506704E-1));
#263=CARTESIAN_POINT('',(3.058844203285E-1,8.592998387782E-2,
5.438815531575E-1));
#264=CARTESIAN_POINT('',(3.070866141732E-1,8.509079234550E-2,
5.389443736278E-1));
#265=CARTESIAN_POINT('',(3.070866141732E-1,8.462465699819E-2,
5.362019795423E-1));
#267=CURVE_STYLE('',#21,POSITIVE_LENGTH_MEASURE(2.E-2),#5);
#268=PRESENTATION_STYLE_ASSIGNMENT((#267));
#269=STYLED_ITEM('',(#268),#266);
#270=DIRECTION('',(0.E0,-1.E0,0.E0));
#271=VECTOR('',#270,6.235750538827E-2);
#272=CARTESIAN_POINT('',(3.007580482030E-1,1.492889889146E-1,
5.497736330622E-1));
#273=LINE('',#272,#271);
#274=CURVE_STYLE('',#21,POSITIVE_LENGTH_MEASURE(2.E-2),#5);
#275=PRESENTATION_STYLE_ASSIGNMENT((#274));
#276=STYLED_ITEM('',(#275),#273);
#277=CARTESIAN_POINT('',(3.070866141732E-1,1.515958154428E-1,
5.362019795423E-1));
#278=CARTESIAN_POINT('',(3.070866141732E-1,1.511296800955E-1,
5.389443736278E-1));
#279=CARTESIAN_POINT('',(3.058844203285E-1,1.502904885631E-1,
5.438815531575E-1));
#280=CARTESIAN_POINT('',(3.028763692292E-1,1.495911144831E-1,
5.479961506704E-1));
#281=CARTESIAN_POINT('',(3.007580482030E-1,1.492889889146E-1,
5.497736330622E-1));
#283=CURVE_STYLE('',#21,POSITIVE_LENGTH_MEASURE(2.E-2),#5);
#284=PRESENTATION_STYLE_ASSIGNMENT((#283));
#285=STYLED_ITEM('',(#284),#282);
#286=DIRECTION('',(0.E0,-1.391731009601E-1,-9.902680687416E-1));
#287=VECTOR('',#286,5.642615850841E-2);
#288=CARTESIAN_POINT('',(3.070866141732E-1,8.462465699819E-2,
5.362019795423E-1));
#289=LINE('',#288,#287);
#290=CURVE_STYLE('',#21,POSITIVE_LENGTH_MEASURE(2.E-2),#5);
#291=PRESENTATION_STYLE_ASSIGNMENT((#290));
#292=STYLED_ITEM('',(#291),#289);
#293=DIRECTION('',(0.E0,-1.391731009598E-1,9.902680687416E-1));
#294=VECTOR('',#293,5.642615850832E-2);
#295=CARTESIAN_POINT('',(3.070866141732E-1,1.594488188976E-1,
4.803249565298E-1));
#296=LINE('',#295,#294);
#297=CURVE_STYLE('',#21,POSITIVE_LENGTH_MEASURE(2.E-2),#5);
#298=PRESENTATION_STYLE_ASSIGNMENT((#297));
#299=STYLED_ITEM('',(#298),#296);
#300=DIRECTION('',(0.E0,0.E0,-1.E0));
#301=VECTOR('',#300,6.587222728967E-2);
#302=CARTESIAN_POINT('',(2.952755905512E-1,7.677165354330E-2,
4.803249565297E-1));
#303=LINE('',#302,#301);
#304=CURVE_STYLE('',#21,POSITIVE_LENGTH_MEASURE(2.E-2),#5);
#305=PRESENTATION_STYLE_ASSIGNMENT((#304));
#306=STYLED_ITEM('',(#305),#303);
#307=DIRECTION('',(-1.E0,0.E0,-1.409983241274E-14));
#308=VECTOR('',#307,1.181102362205E-2);
#309=CARTESIAN_POINT('',(3.070866141732E-1,7.677165354330E-2,
4.803249565297E-1));
#310=LINE('',#309,#308);
#311=CURVE_STYLE('',#21,POSITIVE_LENGTH_MEASURE(2.E-2),#5);
#312=PRESENTATION_STYLE_ASSIGNMENT((#311));
#313=STYLED_ITEM('',(#312),#310);
#314=DIRECTION('',(0.E0,0.E0,1.E0));
#315=VECTOR('',#314,6.586235487221E-2);
#316=CARTESIAN_POINT('',(3.070866141732E-1,7.677165354330E-2,
4.144626016575E-1));
#317=LINE('',#316,#315);
#318=CURVE_STYLE('',#21,POSITIVE_LENGTH_MEASURE(2.E-2),#5);
#319=PRESENTATION_STYLE_ASSIGNMENT((#318));
#320=STYLED_ITEM('',(#319),#317);
#321=DIRECTION('',(9.999996506653E-1,0.E0,8.358643860278E-4));
#322=VECTOR('',#321,1.181102774805E-2);
#323=CARTESIAN_POINT('',(2.952755905512E-1,7.677165354330E-2,
4.144527292400E-1));
#324=LINE('',#323,#322);
#325=CURVE_STYLE('',#21,POSITIVE_LENGTH_MEASURE(2.E-2),#5);
#326=PRESENTATION_STYLE_ASSIGNMENT((#325));
#327=STYLED_ITEM('',(#326),#324);
#328=DIRECTION('',(0.E0,1.391731009601E-1,9.902680687416E-1));
#329=VECTOR('',#328,5.642615850842E-2);
#330=CARTESIAN_POINT('',(2.952755905512E-1,7.677165354330E-2,
4.803249565297E-1));
#331=LINE('',#330,#329);
#332=CURVE_STYLE('',#21,POSITIVE_LENGTH_MEASURE(2.E-2),#5);
#333=PRESENTATION_STYLE_ASSIGNMENT((#332));
#334=STYLED_ITEM('',(#333),#331);
#335=DIRECTION('',(0.E0,-1.E0,0.E0));
#336=VECTOR('',#335,8.267716535433E-2);
#337=CARTESIAN_POINT('',(2.952755905512E-1,1.594488188976E-1,
4.144527292400E-1));
#338=LINE('',#337,#336);
#339=CURVE_STYLE('',#21,POSITIVE_LENGTH_MEASURE(2.E-2),#5);
#340=PRESENTATION_STYLE_ASSIGNMENT((#339));
#341=STYLED_ITEM('',(#340),#338);
#342=DIRECTION('',(0.E0,1.391731009598E-1,-9.902680687416E-1));
#343=VECTOR('',#342,5.642615850832E-2);
#344=CARTESIAN_POINT('',(2.952755905512E-1,1.515958154428E-1,
5.362019795423E-1));
#345=LINE('',#344,#343);
#346=CURVE_STYLE('',#21,POSITIVE_LENGTH_MEASURE(2.E-2),#5);
#347=PRESENTATION_STYLE_ASSIGNMENT((#346));
#348=STYLED_ITEM('',(#347),#345);
#349=DIRECTION('',(0.E0,1.E0,0.E0));
#350=VECTOR('',#349,6.543327409248E-2);
#351=CARTESIAN_POINT('',(2.931660685611E-1,8.539359917424E-2,
5.407258640489E-1));
#352=LINE('',#351,#350);
#353=CURVE_STYLE('',#21,POSITIVE_LENGTH_MEASURE(2.E-2),#5);
#354=PRESENTATION_STYLE_ASSIGNMENT((#353));
#355=STYLED_ITEM('',(#354),#352);
#356=CARTESIAN_POINT('',(2.952755905512E-1,8.462465699819E-2,
5.362019795423E-1));
#357=CARTESIAN_POINT('',(2.952755905512E-1,8.478003544729E-2,
5.371161109042E-1));
#358=CARTESIAN_POINT('',(2.948748592696E-1,8.505976595807E-2,
5.387618374141E-1));
#359=CARTESIAN_POINT('',(2.938721755698E-1,8.529289065142E-2,
5.401333699184E-1));
#360=CARTESIAN_POINT('',(2.931660685611E-1,8.539359917424E-2,
5.407258640489E-1));
#362=CURVE_STYLE('',#21,POSITIVE_LENGTH_MEASURE(2.E-2),#5);
#363=PRESENTATION_STYLE_ASSIGNMENT((#362));
#364=STYLED_ITEM('',(#363),#361);
#365=DIRECTION('',(0.E0,-1.E0,1.923004974792E-13));
#366=VECTOR('',#365,6.697115844460E-2);
#367=CARTESIAN_POINT('',(2.952755905512E-1,1.515958154428E-1,
5.362019795423E-1));
#368=LINE('',#367,#366);
#369=CURVE_STYLE('',#21,POSITIVE_LENGTH_MEASURE(2.E-2),#5);
#370=PRESENTATION_STYLE_ASSIGNMENT((#369));
#371=STYLED_ITEM('',(#370),#368);
#372=CARTESIAN_POINT('',(2.931660685611E-1,1.508268732667E-1,
5.407258640489E-1));
#373=CARTESIAN_POINT('',(2.938721755698E-1,1.509275817895E-1,
5.401333699184E-1));
#374=CARTESIAN_POINT('',(2.948748592696E-1,1.511607064829E-1,
5.387618374141E-1));
#375=CARTESIAN_POINT('',(2.952755905512E-1,1.514404369937E-1,
5.371161109041E-1));
#376=CARTESIAN_POINT('',(2.952755905512E-1,1.515958154428E-1,
5.362019795423E-1));
#378=CURVE_STYLE('',#21,POSITIVE_LENGTH_MEASURE(2.E-2),#5);
#379=PRESENTATION_STYLE_ASSIGNMENT((#378));
#380=STYLED_ITEM('',(#379),#377);
#381=DIRECTION('',(-7.615127941960E-1,1.086107738138E-1,6.389851047461E-1));
#382=VECTOR('',#381,2.418666630827E-2);
#383=CARTESIAN_POINT('',(2.931660685611E-1,8.539359917424E-2,
5.407258640489E-1));
#384=LINE('',#383,#382);
#385=CURVE_STYLE('',#21,POSITIVE_LENGTH_MEASURE(2.E-2),#5);
#386=PRESENTATION_STYLE_ASSIGNMENT((#385));
#387=STYLED_ITEM('',(#386),#384);
#388=DIRECTION('',(7.615127941959E-1,1.086107738141E-1,-6.389851047461E-1));
#389=VECTOR('',#388,2.418666630826E-2);
#390=CARTESIAN_POINT('',(2.747476127184E-1,1.481999407230E-1,
5.561807835534E-1));
#391=LINE('',#390,#389);
#392=CURVE_STYLE('',#21,POSITIVE_LENGTH_MEASURE(2.E-2),#5);
#393=PRESENTATION_STYLE_ASSIGNMENT((#392));
#394=STYLED_ITEM('',(#393),#391);
#395=DIRECTION('',(0.E0,1.E0,0.E0));
#396=VECTOR('',#395,5.505332949306E-2);
#397=CARTESIAN_POINT('',(2.677165354332E-1,9.058357147394E-2,
5.712598053616E-1));
#398=LINE('',#397,#396);
#399=CURVE_STYLE('',#21,POSITIVE_LENGTH_MEASURE(2.E-2),#5);
#400=PRESENTATION_STYLE_ASSIGNMENT((#399));
#401=STYLED_ITEM('',(#400),#398);
#402=CARTESIAN_POINT('',(2.747476127184E-1,8.802053171796E-2,
5.561807835534E-1));
#403=CARTESIAN_POINT('',(2.742797036924E-1,8.808721388514E-2,
5.565730918860E-1));
#404=CARTESIAN_POINT('',(2.733765067483E-1,8.822910780968E-2,
5.574078903231E-1));
#405=CARTESIAN_POINT('',(2.721107483389E-1,8.847097688271E-2,
5.588308682612E-1));
#406=CARTESIAN_POINT('',(2.709787375748E-1,8.873515284139E-2,
5.603850833422E-1));
#407=CARTESIAN_POINT('',(2.699908299596E-1,8.901943390453E-2,
5.620575819216E-1));
#408=CARTESIAN_POINT('',(2.691615642087E-1,8.932106221967E-2,
5.638321388442E-1));
#409=CARTESIAN_POINT('',(2.685109081490E-1,8.963361700005E-2,
5.656709789709E-1));
#410=CARTESIAN_POINT('',(2.680482595567E-1,8.995023991017E-2,
5.675337529507E-1));
#411=CARTESIAN_POINT('',(2.677723889110E-1,9.027031451262E-2,
5.694168341239E-1));
#412=CARTESIAN_POINT('',(2.677150019295E-1,9.047949157072E-2,
5.706474765333E-1));
#413=CARTESIAN_POINT('',(2.677165354332E-1,9.058357147394E-2,
5.712598053616E-1));
#415=CURVE_STYLE('',#21,POSITIVE_LENGTH_MEASURE(2.E-2),#5);
#416=PRESENTATION_STYLE_ASSIGNMENT((#415));
#417=STYLED_ITEM('',(#416),#414);
#418=DIRECTION('',(-1.060791805227E-13,-1.E0,8.670819973160E-14));
#419=VECTOR('',#418,6.017940900504E-2);
#420=CARTESIAN_POINT('',(2.747476127184E-1,1.481999407230E-1,
5.561807835534E-1));
#421=LINE('',#420,#419);
#422=CURVE_STYLE('',#21,POSITIVE_LENGTH_MEASURE(2.E-2),#5);
#423=PRESENTATION_STYLE_ASSIGNMENT((#422));
#424=STYLED_ITEM('',(#423),#421);
#425=CARTESIAN_POINT('',(2.677165354332E-1,1.456369009670E-1,
5.712598053616E-1));
#426=CARTESIAN_POINT('',(2.677150036990E-1,1.457408607723E-1,
5.706481831007E-1));
#427=CARTESIAN_POINT('',(2.677722522951E-1,1.459499317102E-1,
5.694181650231E-1));
#428=CARTESIAN_POINT('',(2.680482562140E-1,1.462703638007E-1,
5.675329806559E-1));
#429=CARTESIAN_POINT('',(2.685121762707E-1,1.465875193823E-1,
5.656670728328E-1));
#430=CARTESIAN_POINT('',(2.691603840447E-1,1.468988216441E-1,
5.638356015953E-1));
#431=CARTESIAN_POINT('',(2.699889242591E-1,1.472005049658E-1,
5.620607210546E-1));
#432=CARTESIAN_POINT('',(2.709809561477E-1,1.474859193005E-1,
5.603815551473E-1));
#433=CARTESIAN_POINT('',(2.721111830841E-1,1.477495452868E-1,
5.588305756951E-1));
#434=CARTESIAN_POINT('',(2.733755232995E-1,1.479911938689E-1,
5.574088949621E-1));
#435=CARTESIAN_POINT('',(2.742791367749E-1,1.481331777639E-1,
5.565735672059E-1));
#436=CARTESIAN_POINT('',(2.747476127184E-1,1.481999407230E-1,
5.561807835534E-1));
#438=CURVE_STYLE('',#21,POSITIVE_LENGTH_MEASURE(2.E-2),#5);
#439=PRESENTATION_STYLE_ASSIGNMENT((#438));
#440=STYLED_ITEM('',(#439),#437);
#441=DIRECTION('',(-1.E0,3.407459499746E-14,2.067975420535E-13));
#442=VECTOR('',#441,1.181102362205E-2);
#443=CARTESIAN_POINT('',(3.070866141732E-1,8.462465699819E-2,
5.362019795423E-1));
#444=LINE('',#443,#442);
#445=CURVE_STYLE('',#21,POSITIVE_LENGTH_MEASURE(2.E-2),#5);
#446=PRESENTATION_STYLE_ASSIGNMENT((#445));
#447=STYLED_ITEM('',(#446),#444);
#448=DIRECTION('',(0.E0,-1.E0,0.E0));
#449=VECTOR('',#448,8.267716535433E-2);
#450=CARTESIAN_POINT('',(3.070866141732E-1,1.594488188976E-1,
4.144626016575E-1));
#451=LINE('',#450,#449);
#452=CURVE_STYLE('',#21,POSITIVE_LENGTH_MEASURE(2.E-2),#5);
#453=PRESENTATION_STYLE_ASSIGNMENT((#452));
#454=STYLED_ITEM('',(#453),#451);
#455=DIRECTION('',(1.E0,0.E0,-1.879977655032E-14));
#456=VECTOR('',#455,1.181102362205E-2);
#457=CARTESIAN_POINT('',(2.952755905512E-1,1.594488188976E-1,
4.803249565298E-1));
#458=LINE('',#457,#456);
#459=CURVE_STYLE('',#21,POSITIVE_LENGTH_MEASURE(2.E-2),#5);
#460=PRESENTATION_STYLE_ASSIGNMENT((#459));
#461=STYLED_ITEM('',(#460),#458);
#462=DIRECTION('',(0.E0,0.E0,1.E0));
#463=VECTOR('',#462,6.587222728975E-2);
#464=CARTESIAN_POINT('',(2.952755905512E-1,1.594488188976E-1,
4.144527292400E-1));
#465=LINE('',#464,#463);
#466=CURVE_STYLE('',#21,POSITIVE_LENGTH_MEASURE(2.E-2),#5);
#467=PRESENTATION_STYLE_ASSIGNMENT((#466));
#468=STYLED_ITEM('',(#467),#465);
#469=DIRECTION('',(-9.999996506653E-1,0.E0,-8.358643860278E-4));
#470=VECTOR('',#469,1.181102774805E-2);
#471=CARTESIAN_POINT('',(3.070866141732E-1,1.594488188976E-1,
4.144626016575E-1));
#472=LINE('',#471,#470);
#473=CURVE_STYLE('',#21,POSITIVE_LENGTH_MEASURE(2.E-2),#5);
#474=PRESENTATION_STYLE_ASSIGNMENT((#473));
#475=STYLED_ITEM('',(#474),#472);
#476=DIRECTION('',(0.E0,0.E0,-1.E0));
#477=VECTOR('',#476,6.586235487229E-2);
#478=CARTESIAN_POINT('',(3.070866141732E-1,1.594488188976E-1,
4.803249565298E-1));
#479=LINE('',#478,#477);
#480=CURVE_STYLE('',#21,POSITIVE_LENGTH_MEASURE(2.E-2),#5);
#481=PRESENTATION_STYLE_ASSIGNMENT((#480));
#482=STYLED_ITEM('',(#481),#479);
#483=DIRECTION('',(1.E0,3.289960896306E-14,-2.067975420535E-13));
#484=VECTOR('',#483,1.181102362205E-2);
#485=CARTESIAN_POINT('',(2.952755905512E-1,1.515958154428E-1,
5.362019795423E-1));
#486=LINE('',#485,#484);
#487=CURVE_STYLE('',#21,POSITIVE_LENGTH_MEASURE(2.E-2),#5);
#488=PRESENTATION_STYLE_ASSIGNMENT((#487));
#489=STYLED_ITEM('',(#488),#486);
#490=CARTESIAN_POINT('',(2.833933360184E-1,9.609542353064E-2,
6.036874480357E-1));
#491=CARTESIAN_POINT('',(2.970315313535E-1,9.609542353064E-2,
6.036874480357E-1));
#492=VERTEX_POINT('',#490);
#493=VERTEX_POINT('',#491);
#494=CARTESIAN_POINT('',(3.055042370526E-1,1.155888894505E-1,
6.183626047840E-1));
#495=CARTESIAN_POINT('',(2.918660417175E-1,1.155888894507E-1,
6.183626047840E-1));
#496=VERTEX_POINT('',#494);
#497=VERTEX_POINT('',#495);
#498=CARTESIAN_POINT('',(3.070866141732E-1,8.462465699819E-2,
5.362019795423E-1));
#499=CARTESIAN_POINT('',(2.952755905512E-1,8.462465699819E-2,
5.362019795423E-1));
#500=VERTEX_POINT('',#498);
#501=VERTEX_POINT('',#499);
#502=CARTESIAN_POINT('',(2.823402550418E-1,8.955832155512E-2,
5.652279965109E-1));
#503=CARTESIAN_POINT('',(3.007580482030E-1,8.693148352635E-2,
5.497736330622E-1));
#504=VERTEX_POINT('',#502);
#505=VERTEX_POINT('',#503);
#506=CARTESIAN_POINT('',(2.805824771355E-1,9.125276627097E-2,
5.751968503937E-1));
#507=VERTEX_POINT('',#506);
#508=CARTESIAN_POINT('',(2.805824771355E-1,1.449677061700E-1,
5.751968503937E-1));
#509=VERTEX_POINT('',#508);
#510=VERTEX_POINT('',#172);
#511=VERTEX_POINT('',#184);
#512=CARTESIAN_POINT('',(2.970315313536E-1,1.401250489103E-1,
6.036874480359E-1));
#513=VERTEX_POINT('',#512);
#514=CARTESIAN_POINT('',(2.952755905512E-1,1.594488188976E-1,
4.803249565298E-1));
#515=CARTESIAN_POINT('',(3.070866141732E-1,1.594488188976E-1,
4.803249565298E-1));
#516=VERTEX_POINT('',#514);
#517=VERTEX_POINT('',#515);
#518=CARTESIAN_POINT('',(3.055042370526E-1,1.206315829905E-1,
6.183626047840E-1));
#519=VERTEX_POINT('',#518);
#520=VERTEX_POINT('',#225);
#521=CARTESIAN_POINT('',(3.007580482030E-1,1.492889889146E-1,
5.497736330622E-1));
#522=VERTEX_POINT('',#521);
#523=CARTESIAN_POINT('',(3.070866141732E-1,1.594488188976E-1,
4.144626016575E-1));
#524=VERTEX_POINT('',#523);
#525=CARTESIAN_POINT('',(3.070866141732E-1,7.677165354330E-2,
4.803249565297E-1));
#526=CARTESIAN_POINT('',(2.952755905512E-1,7.677165354330E-2,
4.803249565297E-1));
#527=VERTEX_POINT('',#525);
#528=VERTEX_POINT('',#526);
#529=CARTESIAN_POINT('',(2.952755905512E-1,1.594488188976E-1,
4.144527292400E-1));
#530=VERTEX_POINT('',#529);
#531=CARTESIAN_POINT('',(2.918660417175E-1,1.206315829903E-1,
6.183626047840E-1));
#532=VERTEX_POINT('',#531);
#533=CARTESIAN_POINT('',(2.703538306342E-1,9.225654899266E-2,
5.811023622047E-1));
#534=VERTEX_POINT('',#533);
#535=VERTEX_POINT('',#402);
#536=VERTEX_POINT('',#413);
#537=VERTEX_POINT('',#425);
#538=VERTEX_POINT('',#436);
#539=VERTEX_POINT('',#135);
#540=CARTESIAN_POINT('',(2.931660685611E-1,1.508268732667E-1,
5.407258640489E-1));
#541=VERTEX_POINT('',#540);
#542=CARTESIAN_POINT('',(2.931660685611E-1,8.539359917424E-2,
5.407258640489E-1));
#543=VERTEX_POINT('',#542);
#544=VERTEX_POINT('',#376);
#545=VERTEX_POINT('',#277);
#546=CARTESIAN_POINT('',(3.070866141732E-1,7.677165354330E-2,
4.144626016575E-1));
#547=VERTEX_POINT('',#546);
#548=CARTESIAN_POINT('',(2.833933360185E-1,1.401250489103E-1,
6.036874480359E-1));
#549=VERTEX_POINT('',#548);
#550=CARTESIAN_POINT('',(2.952755905512E-1,7.677165354330E-2,
4.144527292400E-1));
#551=VERTEX_POINT('',#550);
#552=CARTESIAN_POINT('',(2.868028848521E-1,1.594488188976E-1,
6.095929598466E-1));
#553=DIRECTION('',(8.660254037844E-1,0.E0,-5.E-1));
#554=DIRECTION('',(-5.E-1,0.E0,-8.660254037844E-1));
#555=AXIS2_PLACEMENT_3D('',#552,#553,#554);
#556=PLANE('',#555);
#558=ORIENTED_EDGE('',*,*,#557,.F.);
#560=ORIENTED_EDGE('',*,*,#559,.F.);
#562=ORIENTED_EDGE('',*,*,#561,.T.);
#564=ORIENTED_EDGE('',*,*,#563,.F.);
#566=ORIENTED_EDGE('',*,*,#565,.F.);
#568=ORIENTED_EDGE('',*,*,#567,.F.);
#569=EDGE_LOOP('',(#558,#560,#562,#564,#566,#568));
#570=FACE_OUTER_BOUND('',#569,.F.);
#572=CARTESIAN_POINT('',(2.322834645669E-1,1.155888894507E-1,
6.013148606151E-1));
#573=DIRECTION('',(1.E0,0.E0,0.E0));
#574=DIRECTION('',(0.E0,1.E0,0.E0));
#575=AXIS2_PLACEMENT_3D('',#572,#573,#574);
#578=DIRECTION('',(1.E0,0.E0,0.E0));
#579=VECTOR('',#578,1.E0);
#580=SURFACE_OF_LINEAR_EXTRUSION('',#577,#579);
#582=ORIENTED_EDGE('',*,*,#581,.F.);
#584=ORIENTED_EDGE('',*,*,#583,.T.);
#586=ORIENTED_EDGE('',*,*,#585,.F.);
#587=ORIENTED_EDGE('',*,*,#557,.T.);
#588=EDGE_LOOP('',(#582,#584,#586,#587));
#589=FACE_OUTER_BOUND('',#588,.F.);
#591=CARTESIAN_POINT('',(2.322834645669E-1,1.155888894507E-1,
6.183626047840E-1));
#592=DIRECTION('',(0.E0,0.E0,-1.E0));
#593=DIRECTION('',(-1.E0,0.E0,0.E0));
#594=AXIS2_PLACEMENT_3D('',#591,#592,#593);
#595=PLANE('',#594);
#597=ORIENTED_EDGE('',*,*,#596,.T.);
#599=ORIENTED_EDGE('',*,*,#598,.T.);
#600=ORIENTED_EDGE('',*,*,#581,.T.);
#601=ORIENTED_EDGE('',*,*,#567,.T.);
#602=EDGE_LOOP('',(#597,#599,#600,#601));
#603=FACE_OUTER_BOUND('',#602,.F.);
#605=CARTESIAN_POINT('',(2.322834645669E-1,1.206315829902E-1,
6.013148606151E-1));
#606=DIRECTION('',(1.E0,0.E0,0.E0));
#607=DIRECTION('',(0.E0,1.E0,0.E0));
#608=AXIS2_PLACEMENT_3D('',#605,#606,#607);
#611=DIRECTION('',(1.E0,0.E0,0.E0));
#612=VECTOR('',#611,1.E0);
#613=SURFACE_OF_LINEAR_EXTRUSION('',#610,#612);
#615=ORIENTED_EDGE('',*,*,#614,.F.);
#617=ORIENTED_EDGE('',*,*,#616,.T.);
#618=ORIENTED_EDGE('',*,*,#596,.F.);
#619=ORIENTED_EDGE('',*,*,#565,.T.);
#620=EDGE_LOOP('',(#615,#617,#618,#619));
#621=FACE_OUTER_BOUND('',#620,.F.);
#623=CARTESIAN_POINT('',(2.322834645669E-1,1.515958154428E-1,
5.362019795423E-1));
#624=DIRECTION('',(0.E0,-9.858601019494E-1,-1.675704609542E-1));
#625=DIRECTION('',(0.E0,-1.675704609542E-1,9.858601019494E-1));
#626=AXIS2_PLACEMENT_3D('',#623,#624,#625);
#627=PLANE('',#626);
#629=ORIENTED_EDGE('',*,*,#628,.T.);
#631=ORIENTED_EDGE('',*,*,#630,.T.);
#633=ORIENTED_EDGE('',*,*,#632,.T.);
#635=ORIENTED_EDGE('',*,*,#634,.T.);
#637=ORIENTED_EDGE('',*,*,#636,.T.);
#639=ORIENTED_EDGE('',*,*,#638,.T.);
#641=ORIENTED_EDGE('',*,*,#640,.T.);
#643=ORIENTED_EDGE('',*,*,#642,.T.);
#645=ORIENTED_EDGE('',*,*,#644,.T.);
#647=ORIENTED_EDGE('',*,*,#646,.T.);
#648=ORIENTED_EDGE('',*,*,#614,.T.);
#649=ORIENTED_EDGE('',*,*,#563,.T.);
#650=EDGE_LOOP('',(#629,#631,#633,#635,#637,#639,#641,#643,#645,#647,#648,
#649));
#651=FACE_OUTER_BOUND('',#650,.F.);
#653=CARTESIAN_POINT('',(2.874015748032E-1,1.594488188976E-1,
5.712598425197E-1));
#654=DIRECTION('',(0.E0,-1.E0,0.E0));
#655=DIRECTION('',(0.E0,0.E0,1.E0));
#656=AXIS2_PLACEMENT_3D('',#653,#654,#655);
#657=CYLINDRICAL_SURFACE('',#656,1.968503937006E-2);
#658=ORIENTED_EDGE('',*,*,#561,.F.);
#660=ORIENTED_EDGE('',*,*,#659,.F.);
#662=ORIENTED_EDGE('',*,*,#661,.T.);
#663=ORIENTED_EDGE('',*,*,#628,.F.);
#664=EDGE_LOOP('',(#658,#660,#662,#663));
#665=FACE_OUTER_BOUND('',#664,.F.);
#667=CARTESIAN_POINT('',(2.322834645669E-1,8.462465699819E-2,
5.362019795423E-1));
#668=DIRECTION('',(0.E0,9.858601019494E-1,-1.675704609538E-1));
#669=DIRECTION('',(0.E0,-1.675704609538E-1,-9.858601019494E-1));
#670=AXIS2_PLACEMENT_3D('',#667,#668,#669);
#671=PLANE('',#670);
#672=ORIENTED_EDGE('',*,*,#585,.T.);
#674=ORIENTED_EDGE('',*,*,#673,.T.);
#676=ORIENTED_EDGE('',*,*,#675,.T.);
#678=ORIENTED_EDGE('',*,*,#677,.T.);
#680=ORIENTED_EDGE('',*,*,#679,.T.);
#682=ORIENTED_EDGE('',*,*,#681,.T.);
#684=ORIENTED_EDGE('',*,*,#683,.T.);
#686=ORIENTED_EDGE('',*,*,#685,.T.);
#688=ORIENTED_EDGE('',*,*,#687,.T.);
#690=ORIENTED_EDGE('',*,*,#689,.T.);
#691=ORIENTED_EDGE('',*,*,#659,.T.);
#692=ORIENTED_EDGE('',*,*,#559,.T.);
#693=EDGE_LOOP('',(#672,#674,#676,#678,#680,#682,#684,#686,#688,#690,#691,
#692));
#694=FACE_OUTER_BOUND('',#693,.F.);
#696=CARTESIAN_POINT('',(2.805824771355E-1,1.594488188976E-1,
5.751968503937E-1));
#697=DIRECTION('',(-8.660254037844E-1,0.E0,5.E-1));
#698=DIRECTION('',(5.E-1,0.E0,8.660254037844E-1));
#699=AXIS2_PLACEMENT_3D('',#696,#697,#698);
#700=PLANE('',#699);
#702=ORIENTED_EDGE('',*,*,#701,.T.);
#703=ORIENTED_EDGE('',*,*,#673,.F.);
#704=ORIENTED_EDGE('',*,*,#583,.F.);
#705=ORIENTED_EDGE('',*,*,#598,.F.);
#706=ORIENTED_EDGE('',*,*,#616,.F.);
#707=ORIENTED_EDGE('',*,*,#646,.F.);
#708=EDGE_LOOP('',(#702,#703,#704,#705,#706,#707));
#709=FACE_OUTER_BOUND('',#708,.F.);
#711=CARTESIAN_POINT('',(2.795289773634E-1,1.594488188976E-1,
5.711255632535E-1));
#712=CARTESIAN_POINT('',(2.795091476913E-1,1.594488188976E-1,
5.725875878290E-1));
#713=CARTESIAN_POINT('',(2.798958299280E-1,1.594488188976E-1,
5.740587143917E-1));
#714=CARTESIAN_POINT('',(2.806506842532E-1,1.594488188976E-1,
5.753124560295E-1));
#716=DIRECTION('',(0.E0,-1.E0,0.E0));
#717=VECTOR('',#716,1.E0);
#718=SURFACE_OF_LINEAR_EXTRUSION('',#715,#717);
#720=ORIENTED_EDGE('',*,*,#719,.T.);
#721=ORIENTED_EDGE('',*,*,#675,.F.);
#722=ORIENTED_EDGE('',*,*,#701,.F.);
#723=ORIENTED_EDGE('',*,*,#644,.F.);
#724=EDGE_LOOP('',(#720,#721,#722,#723));
#725=FACE_OUTER_BOUND('',#724,.F.);
#727=CARTESIAN_POINT('',(2.824437939758E-1,1.594488188976E-1,
5.651427504135E-1));
#728=CARTESIAN_POINT('',(2.805917093315E-1,1.594488188976E-1,
5.666397526316E-1));
#729=CARTESIAN_POINT('',(2.794802482621E-1,1.594488188976E-1,
5.690142679058E-1));
#730=CARTESIAN_POINT('',(2.795298678584E-1,1.594488188976E-1,
5.713939322393E-1));
#732=DIRECTION('',(0.E0,-1.E0,0.E0));
#733=VECTOR('',#732,1.E0);
#734=SURFACE_OF_LINEAR_EXTRUSION('',#731,#733);
#736=ORIENTED_EDGE('',*,*,#735,.F.);
#737=ORIENTED_EDGE('',*,*,#677,.F.);
#738=ORIENTED_EDGE('',*,*,#719,.F.);
#739=ORIENTED_EDGE('',*,*,#642,.F.);
#740=EDGE_LOOP('',(#736,#737,#738,#739));
#741=FACE_OUTER_BOUND('',#740,.F.);
#743=CARTESIAN_POINT('',(3.007580482030E-1,1.594488188976E-1,
5.497736330622E-1));
#744=DIRECTION('',(-6.427876096883E-1,0.E0,-7.660444431175E-1));
#745=DIRECTION('',(-7.660444431175E-1,0.E0,6.427876096883E-1));
#746=AXIS2_PLACEMENT_3D('',#743,#744,#745);
#747=PLANE('',#746);
#749=ORIENTED_EDGE('',*,*,#748,.T.);
#750=ORIENTED_EDGE('',*,*,#679,.F.);
#751=ORIENTED_EDGE('',*,*,#735,.T.);
#752=ORIENTED_EDGE('',*,*,#640,.F.);
#753=EDGE_LOOP('',(#749,#750,#751,#752));
#754=FACE_OUTER_BOUND('',#753,.F.);
#756=CARTESIAN_POINT('',(2.893700787402E-1,1.594488188976E-1,
5.362019795423E-1));
#757=DIRECTION('',(0.E0,-1.E0,0.E0));
#758=DIRECTION('',(0.E0,0.E0,1.E0));
#759=AXIS2_PLACEMENT_3D('',#756,#757,#758);
#760=CYLINDRICAL_SURFACE('',#759,1.771653543306E-2);
#762=ORIENTED_EDGE('',*,*,#761,.F.);
#763=ORIENTED_EDGE('',*,*,#681,.F.);
#764=ORIENTED_EDGE('',*,*,#748,.F.);
#765=ORIENTED_EDGE('',*,*,#638,.F.);
#766=EDGE_LOOP('',(#762,#763,#764,#765));
#767=FACE_OUTER_BOUND('',#766,.F.);
#769=CARTESIAN_POINT('',(3.070866141732E-1,1.594488188976E-1,
4.144626016575E-1));
#770=DIRECTION('',(-1.E0,0.E0,0.E0));
#771=DIRECTION('',(0.E0,1.E0,0.E0));
#772=AXIS2_PLACEMENT_3D('',#769,#770,#771);
#773=PLANE('',#772);
#775=ORIENTED_EDGE('',*,*,#774,.T.);
#777=ORIENTED_EDGE('',*,*,#776,.F.);
#778=ORIENTED_EDGE('',*,*,#761,.T.);
#780=ORIENTED_EDGE('',*,*,#779,.F.);
#782=ORIENTED_EDGE('',*,*,#781,.T.);
#784=ORIENTED_EDGE('',*,*,#783,.T.);
#785=EDGE_LOOP('',(#775,#777,#778,#780,#782,#784));
#786=FACE_OUTER_BOUND('',#785,.F.);
#788=CARTESIAN_POINT('',(2.874015748032E-1,7.677165354330E-2,
5.712598425197E-1));
#789=DIRECTION('',(0.E0,1.E0,0.E0));
#790=DIRECTION('',(0.E0,0.E0,-1.E0));
#791=AXIS2_PLACEMENT_3D('',#788,#789,#790);
#792=PLANE('',#791);
#794=ORIENTED_EDGE('',*,*,#793,.F.);
#796=ORIENTED_EDGE('',*,*,#795,.F.);
#797=ORIENTED_EDGE('',*,*,#774,.F.);
#799=ORIENTED_EDGE('',*,*,#798,.F.);
#800=EDGE_LOOP('',(#794,#796,#797,#799));
#801=FACE_OUTER_BOUND('',#800,.F.);
#803=CARTESIAN_POINT('',(2.952755905512E-1,1.594488188976E-1,
5.362019795423E-1));
#804=DIRECTION('',(1.E0,0.E0,0.E0));
#805=DIRECTION('',(0.E0,-1.E0,0.E0));
#806=AXIS2_PLACEMENT_3D('',#803,#804,#805);
#807=PLANE('',#806);
#809=ORIENTED_EDGE('',*,*,#808,.T.);
#811=ORIENTED_EDGE('',*,*,#810,.F.);
#812=ORIENTED_EDGE('',*,*,#793,.T.);
#814=ORIENTED_EDGE('',*,*,#813,.F.);
#816=ORIENTED_EDGE('',*,*,#815,.T.);
#818=ORIENTED_EDGE('',*,*,#817,.F.);
#819=EDGE_LOOP('',(#809,#811,#812,#814,#816,#818));
#820=FACE_OUTER_BOUND('',#819,.F.);
#822=CARTESIAN_POINT('',(2.893700787402E-1,1.594488188976E-1,
5.362019795423E-1));
#823=DIRECTION('',(0.E0,-1.E0,0.E0));
#824=DIRECTION('',(0.E0,0.E0,1.E0));
#825=AXIS2_PLACEMENT_3D('',#822,#823,#824);
#826=CYLINDRICAL_SURFACE('',#825,5.905511811009E-3);
#828=ORIENTED_EDGE('',*,*,#827,.F.);
#829=ORIENTED_EDGE('',*,*,#685,.F.);
#830=ORIENTED_EDGE('',*,*,#808,.F.);
#831=ORIENTED_EDGE('',*,*,#634,.F.);
#832=EDGE_LOOP('',(#828,#829,#830,#831));
#833=FACE_OUTER_BOUND('',#832,.F.);
#835=CARTESIAN_POINT('',(2.747476127184E-1,1.594488188976E-1,
5.561807835534E-1));
#836=DIRECTION('',(6.427876096863E-1,0.E0,7.660444431192E-1));
#837=DIRECTION('',(7.660444431192E-1,0.E0,-6.427876096863E-1));
#838=AXIS2_PLACEMENT_3D('',#835,#836,#837);
#839=PLANE('',#838);
#841=ORIENTED_EDGE('',*,*,#840,.T.);
#842=ORIENTED_EDGE('',*,*,#687,.F.);
#843=ORIENTED_EDGE('',*,*,#827,.T.);
#844=ORIENTED_EDGE('',*,*,#632,.F.);
#845=EDGE_LOOP('',(#841,#842,#843,#844));
#846=FACE_OUTER_BOUND('',#845,.F.);
#848=CARTESIAN_POINT('',(2.677177666808E-1,1.594488188976E-1,
5.714314762770E-1));
#849=CARTESIAN_POINT('',(2.676485964307E-1,1.594488188976E-1,
5.655917486304E-1));
#850=CARTESIAN_POINT('',(2.703674273355E-1,1.594488188976E-1,
5.597839058687E-1));
#851=CARTESIAN_POINT('',(2.748796960368E-1,1.594488188976E-1,
5.560710747157E-1));
#853=DIRECTION('',(0.E0,-1.E0,0.E0));
#854=VECTOR('',#853,1.E0);
#855=SURFACE_OF_LINEAR_EXTRUSION('',#852,#854);
#856=ORIENTED_EDGE('',*,*,#661,.F.);
#857=ORIENTED_EDGE('',*,*,#689,.F.);
#858=ORIENTED_EDGE('',*,*,#840,.F.);
#859=ORIENTED_EDGE('',*,*,#630,.F.);
#860=EDGE_LOOP('',(#856,#857,#858,#859));
#861=FACE_OUTER_BOUND('',#860,.F.);
#863=CARTESIAN_POINT('',(2.322834645669E-1,8.462465699819E-2,
5.362019795423E-1));
#864=DIRECTION('',(0.E0,9.902680687416E-1,-1.391731009601E-1));
#865=DIRECTION('',(0.E0,-1.391731009601E-1,-9.902680687416E-1));
#866=AXIS2_PLACEMENT_3D('',#863,#864,#865);
#867=PLANE('',#866);
#868=ORIENTED_EDGE('',*,*,#683,.F.);
#869=ORIENTED_EDGE('',*,*,#776,.T.);
#870=ORIENTED_EDGE('',*,*,#795,.T.);
#871=ORIENTED_EDGE('',*,*,#810,.T.);
#872=EDGE_LOOP('',(#868,#869,#870,#871));
#873=FACE_OUTER_BOUND('',#872,.F.);
#875=CARTESIAN_POINT('',(3.070866141732E-1,1.594488188976E-1,
4.144626016575E-1));
#876=DIRECTION('',(-8.358643860317E-4,0.E0,9.999996506653E-1));
#877=DIRECTION('',(9.999996506653E-1,0.E0,8.358643860317E-4));
#878=AXIS2_PLACEMENT_3D('',#875,#876,#877);
#879=PLANE('',#878);
#880=ORIENTED_EDGE('',*,*,#798,.T.);
#881=ORIENTED_EDGE('',*,*,#783,.F.);
#883=ORIENTED_EDGE('',*,*,#882,.T.);
#884=ORIENTED_EDGE('',*,*,#813,.T.);
#885=EDGE_LOOP('',(#880,#881,#883,#884));
#886=FACE_OUTER_BOUND('',#885,.F.);
#888=CARTESIAN_POINT('',(2.874015748032E-1,1.594488188976E-1,
5.712598425197E-1));
#889=DIRECTION('',(0.E0,1.E0,0.E0));
#890=DIRECTION('',(0.E0,0.E0,-1.E0));
#891=AXIS2_PLACEMENT_3D('',#888,#889,#890);
#892=PLANE('',#891);
#894=ORIENTED_EDGE('',*,*,#893,.F.);
#895=ORIENTED_EDGE('',*,*,#815,.F.);
#896=ORIENTED_EDGE('',*,*,#882,.F.);
#897=ORIENTED_EDGE('',*,*,#781,.F.);
#898=EDGE_LOOP('',(#894,#895,#896,#897));
#899=FACE_OUTER_BOUND('',#898,.F.);
#901=CARTESIAN_POINT('',(2.322834645669E-1,1.675144080956E-1,
4.229353073570E-1));
#902=DIRECTION('',(0.E0,-9.902680687416E-1,-1.391731009598E-1));
#903=DIRECTION('',(0.E0,-1.391731009598E-1,9.902680687416E-1));
#904=AXIS2_PLACEMENT_3D('',#901,#902,#903);
#905=PLANE('',#904);
#906=ORIENTED_EDGE('',*,*,#893,.T.);
#907=ORIENTED_EDGE('',*,*,#779,.T.);
#908=ORIENTED_EDGE('',*,*,#636,.F.);
#909=ORIENTED_EDGE('',*,*,#817,.T.);
#910=EDGE_LOOP('',(#906,#907,#908,#909));
#911=FACE_OUTER_BOUND('',#910,.F.);
#915=FILL_AREA_STYLE_COLOUR('',#5);
#916=FILL_AREA_STYLE('',(#915));
#917=SURFACE_STYLE_FILL_AREA(#916);
#918=SURFACE_SIDE_STYLE('',(#917));
#919=SURFACE_STYLE_USAGE(.BOTH.,#918);
#920=PRESENTATION_STYLE_ASSIGNMENT((#919));
#16=STYLED_ITEM('',(#920),#914);
#921=PRESENTATION_LAYER_ASSIGNMENT('SHELL_241','',(#16,#571,#577,#590,#604,#610,
#622,#652,#666,#695,#710,#715,#726,#731,#742,#755,#768,#787,#802,#821,#834,#847,
#852,#862,#874,#887,#900,#912));
#923=LENGTH_MEASURE_WITH_UNIT(LENGTH_MEASURE(2.54E1),#922);
#924=(CONVERSION_BASED_UNIT('INCH',#923)LENGTH_UNIT()NAMED_UNIT(*));
#926=PLANE_ANGLE_MEASURE_WITH_UNIT(PLANE_ANGLE_MEASURE(1.745329251994E-2),#925);
#927=(CONVERSION_BASED_UNIT('DEGREE',#926)NAMED_UNIT(*)PLANE_ANGLE_UNIT());
#929=UNCERTAINTY_MEASURE_WITH_UNIT(LENGTH_MEASURE(2.235190407130E-5),#924,
'closure',
'Maximum model space distance between geometric entities at asserted connectivities');
#931=CARTESIAN_POINT('',(0.E0,0.E0,0.E0));
#932=DIRECTION('',(0.E0,0.E0,1.E0));
#933=DIRECTION('',(1.E0,0.E0,0.E0));
#936=MECHANICAL_DESIGN_GEOMETRIC_PRESENTATION_REPRESENTATION('',(#24,#31,#38,
#45,#58,#65,#78,#85,#98,#105,#118,#125,#134,#143,#150,#157,#164,#176,#183,#195,
#202,#217,#224,#239,#246,#253,#260,#269,#276,#285,#292,#299,#306,#313,#320,#327,
#334,#341,#348,#355,#364,#371,#380,#387,#394,#401,#417,#424,#440,#447,#454,#461,
#468,#475,#482,#489,#16),#930);
#937=APPLICATION_CONTEXT('automotive design');
#938=APPLICATION_PROTOCOL_DEFINITION('international standard',
'config_control_design',1994,#937);
#939=PRODUCT_DEFINITION_CONTEXT('',#937,'design');
#940=PRODUCT_CONTEXT('',#937,'mechanical');
#941=PRODUCT('MIRROR18','MIRROR18','NOT SPECIFIED',(#940));
#942=PRODUCT_DEFINITION_FORMATION_WITH_SPECIFIED_SOURCE('1','LAST_VERSION',#941,
.MADE.);
#950=LENGTH_MEASURE_WITH_UNIT(LENGTH_MEASURE(2.54E1),#949);
#951=(CONVERSION_BASED_UNIT('INCH',#950)LENGTH_UNIT()NAMED_UNIT(*));
#952=DERIVED_UNIT_ELEMENT(#951,2.E0);
#953=AREA_UNIT((#952));
#954=MEASURE_REPRESENTATION_ITEM('surface area measure',AREA_MEASURE(
2.346191997916E1),#953);
#959=LENGTH_MEASURE_WITH_UNIT(LENGTH_MEASURE(2.54E1),#958);
#960=(CONVERSION_BASED_UNIT('INCH',#959)LENGTH_UNIT()NAMED_UNIT(*));
#961=DERIVED_UNIT_ELEMENT(#960,3.E0);
#962=VOLUME_UNIT((#961));
#963=MEASURE_REPRESENTATION_ITEM('volume measure',VOLUME_MEASURE(
2.875922221821E0),#962);
#967=CARTESIAN_POINT('centre point',(7.514193278763E0,2.999999998573E0,
1.290005327332E1));
#972=LENGTH_MEASURE_WITH_UNIT(LENGTH_MEASURE(2.54E1),#971);
#973=(CONVERSION_BASED_UNIT('INCH',#972)LENGTH_UNIT()NAMED_UNIT(*));
#974=DERIVED_UNIT_ELEMENT(#973,2.E0);
#975=AREA_UNIT((#974));
#976=MEASURE_REPRESENTATION_ITEM('surface area measure',AREA_MEASURE(
2.346191997916E1),#975);
#981=LENGTH_MEASURE_WITH_UNIT(LENGTH_MEASURE(2.54E1),#980);
#982=(CONVERSION_BASED_UNIT('INCH',#981)LENGTH_UNIT()NAMED_UNIT(*));
#983=DERIVED_UNIT_ELEMENT(#982,3.E0);
#984=VOLUME_UNIT((#983));
#985=MEASURE_REPRESENTATION_ITEM('volume measure',VOLUME_MEASURE(
2.875922221821E0),#984);
#989=CARTESIAN_POINT('centre point',(7.514193278763E0,2.999999998573E0,
1.290005327332E1));
#1=DRAUGHTING_PRE_DEFINED_COLOUR('green');
#2=COLOUR_RGB('',1.1E-2,1.2E-2,1.E0);
#3=COLOUR_RGB('',2.352941176471E-1,2.352941176471E-1,2.352941176471E-1);
#4=COLOUR_RGB('',4.1E-1,2.61589E-1,1.12848E-1);
#5=COLOUR_RGB('',4.980392156863E-1,4.980392156863E-1,4.980392156863E-1);
#6=COLOUR_RGB('',5.04854E-1,1.5455E-2,1.5455E-2);
#7=COLOUR_RGB('',6.35294E-1,6.86275E-1,7.4902E-1);
#8=COLOUR_RGB('',6.40777E-1,6.40777E-1,6.40777E-1);
#9=COLOUR_RGB('',6.69062E-1,6.69903E-1,6.55217E-1);
#10=COLOUR_RGB('',9.21569E-1,7.05882E-1,4.70588E-1);
#11=DRAUGHTING_PRE_DEFINED_COLOUR('red');
#12=DRAUGHTING_PRE_DEFINED_COLOUR('yellow');
#13=COLOUR_RGB('',1.E0,1.E0,5.3E-1);
#14=COLOUR_RGB('',1.E0,1.E0,9.49E-1);
#15=DRAUGHTING_PRE_DEFINED_COLOUR('white');
#55=B_SPLINE_CURVE_WITH_KNOTS('',3,(#46,#47,#48,#49,#50,#51,#52,#53,#54),
.UNSPECIFIED.,.F.,.F.,(4,1,1,1,1,1,4),(0.E0,1.25E-1,2.5E-1,5.E-1,7.5E-1,8.75E-1,
1.E0),.UNSPECIFIED.);
#75=B_SPLINE_CURVE_WITH_KNOTS('',3,(#66,#67,#68,#69,#70,#71,#72,#73,#74),
.UNSPECIFIED.,.F.,.F.,(4,1,1,1,1,1,4),(0.E0,1.25E-1,2.5E-1,5.E-1,7.5E-1,8.75E-1,
1.E0),.UNSPECIFIED.);
#95=B_SPLINE_CURVE_WITH_KNOTS('',3,(#86,#87,#88,#89,#90,#91,#92,#93,#94),
.UNSPECIFIED.,.F.,.F.,(4,1,1,1,1,1,4),(0.E0,1.25E-1,2.5E-1,5.E-1,7.5E-1,8.75E-1,
1.E0),.UNSPECIFIED.);
#115=B_SPLINE_CURVE_WITH_KNOTS('',3,(#106,#107,#108,#109,#110,#111,#112,#113,
#114),.UNSPECIFIED.,.F.,.F.,(4,1,1,1,1,1,4),(0.E0,1.25E-1,2.5E-1,5.E-1,7.5E-1,
8.75E-1,1.E0),.UNSPECIFIED.);
#131=B_SPLINE_CURVE_WITH_KNOTS('',3,(#126,#127,#128,#129,#130),.UNSPECIFIED.,
.F.,.F.,(4,1,4),(0.E0,5.E-1,1.E0),.UNSPECIFIED.);
#140=B_SPLINE_CURVE_WITH_KNOTS('',3,(#135,#136,#137,#138,#139),.UNSPECIFIED.,
.F.,.F.,(4,1,4),(0.E0,5.E-1,1.E0),.UNSPECIFIED.);
#173=B_SPLINE_CURVE_WITH_KNOTS('',3,(#165,#166,#167,#168,#169,#170,#171,#172),
.UNSPECIFIED.,.F.,.F.,(4,1,1,1,1,4),(0.E0,2.E-1,4.E-1,6.E-1,8.E-1,1.E0),
.UNSPECIFIED.);
#192=B_SPLINE_CURVE_WITH_KNOTS('',3,(#184,#185,#186,#187,#188,#189,#190,#191),
.UNSPECIFIED.,.F.,.F.,(4,1,1,1,1,4),(0.E0,2.E-1,4.E-1,6.E-1,8.E-1,1.E0),
.UNSPECIFIED.);
#214=B_SPLINE_CURVE_WITH_KNOTS('',3,(#203,#204,#205,#206,#207,#208,#209,#210,
#211,#212,#213),.UNSPECIFIED.,.F.,.F.,(4,1,1,1,1,1,1,1,4),(0.E0,1.25E-1,2.5E-1,
3.75E-1,5.E-1,6.25E-1,7.5E-1,8.75E-1,1.E0),.UNSPECIFIED.);
#236=B_SPLINE_CURVE_WITH_KNOTS('',3,(#225,#226,#227,#228,#229,#230,#231,#232,
#233,#234,#235),.UNSPECIFIED.,.F.,.F.,(4,1,1,1,1,1,1,1,4),(0.E0,1.25E-1,2.5E-1,
3.75E-1,5.E-1,6.25E-1,7.5E-1,8.75E-1,1.E0),.UNSPECIFIED.);
#266=B_SPLINE_CURVE_WITH_KNOTS('',3,(#261,#262,#263,#264,#265),.UNSPECIFIED.,
.F.,.F.,(4,1,4),(0.E0,5.E-1,1.E0),.UNSPECIFIED.);
#282=B_SPLINE_CURVE_WITH_KNOTS('',3,(#277,#278,#279,#280,#281),.UNSPECIFIED.,
.F.,.F.,(4,1,4),(0.E0,5.E-1,1.E0),.UNSPECIFIED.);
#361=B_SPLINE_CURVE_WITH_KNOTS('',3,(#356,#357,#358,#359,#360),.UNSPECIFIED.,
.F.,.F.,(4,1,4),(0.E0,5.E-1,1.E0),.UNSPECIFIED.);
#377=B_SPLINE_CURVE_WITH_KNOTS('',3,(#372,#373,#374,#375,#376),.UNSPECIFIED.,
.F.,.F.,(4,1,4),(0.E0,5.E-1,1.E0),.UNSPECIFIED.);
#414=B_SPLINE_CURVE_WITH_KNOTS('',3,(#402,#403,#404,#405,#406,#407,#408,#409,
#410,#411,#412,#413),.UNSPECIFIED.,.F.,.F.,(4,1,1,1,1,1,1,1,1,4),(0.E0,
1.111111111111E-1,2.222222222222E-1,3.333333333333E-1,4.444444444444E-1,
5.555555555556E-1,6.666666666667E-1,7.777777777778E-1,8.888888888889E-1,1.E0),
.UNSPECIFIED.);
#437=B_SPLINE_CURVE_WITH_KNOTS('',3,(#425,#426,#427,#428,#429,#430,#431,#432,
#433,#434,#435,#436),.UNSPECIFIED.,.F.,.F.,(4,1,1,1,1,1,1,1,1,4),(0.E0,
1.111111111111E-1,2.222222222222E-1,3.333333333333E-1,4.444444444444E-1,
5.555555555556E-1,6.666666666667E-1,7.777777777778E-1,8.888888888889E-1,1.E0),
.UNSPECIFIED.);
#557=EDGE_CURVE('',#492,#497,#75,.T.);
#559=EDGE_CURVE('',#534,#492,#20,.T.);
#561=EDGE_CURVE('',#534,#539,#122,.T.);
#563=EDGE_CURVE('',#549,#539,#28,.T.);
#565=EDGE_CURVE('',#532,#549,#115,.T.);
#567=EDGE_CURVE('',#497,#532,#35,.T.);
#571=ADVANCED_FACE('',(#570),#556,.F.);
#576=ELLIPSE('',#575,1.968503937008E-2,1.704774416898E-2);
#577=TRIMMED_CURVE('',#576,(PARAMETER_VALUE(9.000000000015E1)),(PARAMETER_VALUE(
1.719999999991E2)),.T.,.UNSPECIFIED.);
#581=EDGE_CURVE('',#496,#497,#42,.T.);
#583=EDGE_CURVE('',#496,#493,#55,.T.);
#585=EDGE_CURVE('',#492,#493,#62,.T.);
#590=ADVANCED_FACE('',(#589),#580,.T.);
#596=EDGE_CURVE('',#532,#519,#102,.T.);
#598=EDGE_CURVE('',#519,#496,#154,.T.);
#604=ADVANCED_FACE('',(#603),#595,.F.);
#609=ELLIPSE('',#608,1.968503937008E-2,1.704774416898E-2);
#610=TRIMMED_CURVE('',#609,(PARAMETER_VALUE(8.000000001503E0)),(PARAMETER_VALUE(
8.999999999977E1)),.T.,.UNSPECIFIED.);
#614=EDGE_CURVE('',#513,#549,#82,.T.);
#616=EDGE_CURVE('',#513,#519,#95,.T.);
#622=ADVANCED_FACE('',(#621),#613,.T.);
#628=EDGE_CURVE('',#539,#537,#140,.T.);
#630=EDGE_CURVE('',#537,#538,#437,.T.);
#632=EDGE_CURVE('',#538,#541,#391,.T.);
#634=EDGE_CURVE('',#541,#544,#377,.T.);
#636=EDGE_CURVE('',#544,#545,#486,.T.);
#638=EDGE_CURVE('',#545,#522,#282,.T.);
#640=EDGE_CURVE('',#522,#520,#250,.T.);
#642=EDGE_CURVE('',#520,#511,#236,.T.);
#644=EDGE_CURVE('',#511,#509,#192,.T.);
#646=EDGE_CURVE('',#509,#513,#161,.T.);
#652=ADVANCED_FACE('',(#651),#627,.F.);
#659=EDGE_CURVE('',#536,#534,#131,.T.);
#661=EDGE_CURVE('',#536,#537,#398,.T.);
#666=ADVANCED_FACE('',(#665),#657,.T.);
#673=EDGE_CURVE('',#493,#507,#147,.T.);
#675=EDGE_CURVE('',#507,#510,#173,.T.);
#677=EDGE_CURVE('',#510,#504,#214,.T.);
#679=EDGE_CURVE('',#504,#505,#243,.T.);
#681=EDGE_CURVE('',#505,#500,#266,.T.);
#683=EDGE_CURVE('',#500,#501,#444,.T.);
#685=EDGE_CURVE('',#501,#543,#361,.T.);
#687=EDGE_CURVE('',#543,#535,#384,.T.);
#689=EDGE_CURVE('',#535,#536,#414,.T.);
#695=ADVANCED_FACE('',(#694),#671,.F.);
#701=EDGE_CURVE('',#509,#507,#180,.T.);
#710=ADVANCED_FACE('',(#709),#700,.F.);
#715=B_SPLINE_CURVE_WITH_KNOTS('',3,(#711,#712,#713,#714),.UNSPECIFIED.,.F.,.F.,
(4,4),(0.E0,1.E0),.UNSPECIFIED.);
#719=EDGE_CURVE('',#511,#510,#221,.T.);
#726=ADVANCED_FACE('',(#725),#718,.T.);
#731=B_SPLINE_CURVE_WITH_KNOTS('',3,(#727,#728,#729,#730),.UNSPECIFIED.,.F.,.F.,
(4,4),(0.E0,1.E0),.UNSPECIFIED.);
#735=EDGE_CURVE('',#504,#520,#199,.T.);
#742=ADVANCED_FACE('',(#741),#734,.T.);
#748=EDGE_CURVE('',#522,#505,#273,.T.);
#755=ADVANCED_FACE('',(#754),#747,.F.);
#761=EDGE_CURVE('',#500,#545,#257,.T.);
#768=ADVANCED_FACE('',(#767),#760,.T.);
#774=EDGE_CURVE('',#547,#527,#317,.T.);
#776=EDGE_CURVE('',#500,#527,#289,.T.);
#779=EDGE_CURVE('',#517,#545,#296,.T.);
#781=EDGE_CURVE('',#517,#524,#479,.T.);
#783=EDGE_CURVE('',#524,#547,#451,.T.);
#787=ADVANCED_FACE('',(#786),#773,.F.);
#793=EDGE_CURVE('',#528,#551,#303,.T.);
#795=EDGE_CURVE('',#527,#528,#310,.T.);
#798=EDGE_CURVE('',#551,#547,#324,.T.);
#802=ADVANCED_FACE('',(#801),#792,.F.);
#808=EDGE_CURVE('',#544,#501,#368,.T.);
#810=EDGE_CURVE('',#528,#501,#331,.T.);
#813=EDGE_CURVE('',#530,#551,#338,.T.);
#815=EDGE_CURVE('',#530,#516,#465,.T.);
#817=EDGE_CURVE('',#544,#516,#345,.T.);
#821=ADVANCED_FACE('',(#820),#807,.F.);
#827=EDGE_CURVE('',#543,#541,#352,.T.);
#834=ADVANCED_FACE('',(#833),#826,.F.);
#840=EDGE_CURVE('',#538,#535,#421,.T.);
#847=ADVANCED_FACE('',(#846),#839,.F.);
#852=B_SPLINE_CURVE_WITH_KNOTS('',3,(#848,#849,#850,#851),.UNSPECIFIED.,.F.,.F.,
(4,4),(0.E0,1.E0),.UNSPECIFIED.);
#862=ADVANCED_FACE('',(#861),#855,.T.);
#874=ADVANCED_FACE('',(#873),#867,.F.);
#882=EDGE_CURVE('',#524,#530,#472,.T.);
#887=ADVANCED_FACE('',(#886),#879,.F.);
#893=EDGE_CURVE('',#516,#517,#458,.T.);
#900=ADVANCED_FACE('',(#899),#892,.T.);
#912=ADVANCED_FACE('',(#911),#905,.F.);
#913=CLOSED_SHELL('',(#571,#590,#604,#622,#652,#666,#695,#710,#726,#742,#755,
#768,#787,#802,#821,#834,#847,#862,#874,#887,#900,#912));
#914=MANIFOLD_SOLID_BREP('',#913);
#922=(LENGTH_UNIT()NAMED_UNIT(*)SI_UNIT(.MILLI.,.METRE.));
#925=(NAMED_UNIT(*)PLANE_ANGLE_UNIT()SI_UNIT($,.RADIAN.));
#928=(NAMED_UNIT(*)SI_UNIT($,.STERADIAN.)SOLID_ANGLE_UNIT());
#930=(GEOMETRIC_REPRESENTATION_CONTEXT(3)GLOBAL_UNCERTAINTY_ASSIGNED_CONTEXT((
#929))GLOBAL_UNIT_ASSIGNED_CONTEXT((#924,#927,#928))REPRESENTATION_CONTEXT
('ID1','3'));
#934=AXIS2_PLACEMENT_3D('',#931,#932,#933);
#935=ADVANCED_BREP_SHAPE_REPRESENTATION('',(#934,#914),#930);
#943=PRODUCT_DEFINITION('design','',#942,#939);
#944=PRODUCT_DEFINITION_SHAPE('','SHAPE FOR MIRROR18.',#943);
#945=SHAPE_ASPECT('','solid data associated with MIRROR18',#944,.F.);
#946=PROPERTY_DEFINITION('',
'shape for solid data with which properties are associated',#945);
#947=SHAPE_REPRESENTATION('',(#914),#930);
#948=SHAPE_DEFINITION_REPRESENTATION(#946,#947);
#949=(LENGTH_UNIT()NAMED_UNIT(*)SI_UNIT(.MILLI.,.METRE.));
#955=PROPERTY_DEFINITION('geometric validation property','area of MIRROR18',
#945);
#956=REPRESENTATION('surface area',(#954),#930);
#957=PROPERTY_DEFINITION_REPRESENTATION(#955,#956);
#958=(LENGTH_UNIT()NAMED_UNIT(*)SI_UNIT(.MILLI.,.METRE.));
#964=PROPERTY_DEFINITION('geometric validation property','volume of MIRROR18',
#945);
#965=REPRESENTATION('volume',(#963),#930);
#966=PROPERTY_DEFINITION_REPRESENTATION(#964,#965);
#968=PROPERTY_DEFINITION('geometric validation property','centroid of MIRROR18',
#945);
#969=REPRESENTATION('centroid',(#967),#930);
#970=PROPERTY_DEFINITION_REPRESENTATION(#968,#969);
#971=(LENGTH_UNIT()NAMED_UNIT(*)SI_UNIT(.MILLI.,.METRE.));
#977=PROPERTY_DEFINITION('geometric validation property','area of MIRROR18',
#944);
#978=REPRESENTATION('surface area',(#976),#930);
#979=PROPERTY_DEFINITION_REPRESENTATION(#977,#978);
#980=(LENGTH_UNIT()NAMED_UNIT(*)SI_UNIT(.MILLI.,.METRE.));
#986=PROPERTY_DEFINITION('geometric validation property','volume of MIRROR18',
#944);
#987=REPRESENTATION('volume',(#985),#930);
#988=PROPERTY_DEFINITION_REPRESENTATION(#986,#987);
#990=PROPERTY_DEFINITION('geometric validation property','centroid of MIRROR18',
#944);
#991=REPRESENTATION('centroid',(#989),#930);
#992=PROPERTY_DEFINITION_REPRESENTATION(#990,#991);
#993=SHAPE_DEFINITION_REPRESENTATION(#944,#935);
ENDSEC;
END-ISO-10303-21;
