ISO-10303-21;
HEADER;
FILE_DESCRIPTION((''),'2;1');
FILE_NAME('MIRROR23200','2026-06-15T13:46:11',('Esia'),(''),
'CREO PARAMETRIC BY PTC INC, 2025102','CREO PARAMETRIC BY PTC INC, 2025102','');
FILE_SCHEMA((
'AP242_MANAGED_MODEL_BASED_3D_ENGINEERING_MIM_LF { 1 0 10303 442 1 1 4 }'));
ENDSEC;
DATA;
#17=DIRECTION('',(-6.427837174490E-1,-3.480015522790E-3,-7.660398044974E-1));
#18=VECTOR('',#17,2.244956966641E-3);
#19=CARTESIAN_POINT('',(-6.875470347372E-2,-1.475317713827E-1,
5.856328683188E-1));
#20=LINE('',#19,#18);
#21=DRAUGHTING_PRE_DEFINED_CURVE_FONT('continuous');
#22=CURVE_STYLE('',#21,POSITIVE_LENGTH_MEASURE(2.E-2),#9);
#23=PRESENTATION_STYLE_ASSIGNMENT((#22));
#24=STYLED_ITEM('',(#23),#20);
#25=CARTESIAN_POINT('',(-4.724409552488E-2,-1.140672050762E-1,
6.112682126193E-1));
#26=CARTESIAN_POINT('',(-4.724408880490E-2,-1.133038950755E-1,
6.112682206278E-1));
#27=CARTESIAN_POINT('',(-4.727758193037E-2,-1.117815241853E-1,
6.112283050757E-1));
#28=CARTESIAN_POINT('',(-4.742794527999E-2,-1.095059404510E-1,
6.110491090134E-1));
#29=CARTESIAN_POINT('',(-4.767772891034E-2,-1.072526486845E-1,
6.107514284746E-1));
#30=CARTESIAN_POINT('',(-4.802578233357E-2,-1.050308535791E-1,
6.103366345571E-1));
#31=CARTESIAN_POINT('',(-4.847047927279E-2,-1.028512613190E-1,
6.098066653822E-1));
#32=CARTESIAN_POINT('',(-4.900974717919E-2,-1.007239417516E-1,
6.091639909174E-1));
#33=CARTESIAN_POINT('',(-4.964107193200E-2,-9.865883667603E-2,
6.084116073752E-1));
#34=CARTESIAN_POINT('',(-5.036151008822E-2,-9.666556825351E-2,
6.075530226143E-1));
#35=CARTESIAN_POINT('',(-5.116770257357E-2,-9.475343179409E-2,
6.065922398236E-1));
#36=CARTESIAN_POINT('',(-5.205589146807E-2,-9.293134032478E-2,
6.055337375177E-1));
#37=CARTESIAN_POINT('',(-5.302193471385E-2,-9.120779131579E-2,
6.043824520090E-1));
#38=CARTESIAN_POINT('',(-5.406132980018E-2,-8.959081799702E-2,
6.031437491808E-1));
#39=CARTESIAN_POINT('',(-5.516922960986E-2,-8.808796131042E-2,
6.018234056024E-1));
#40=CARTESIAN_POINT('',(-5.634046952198E-2,-8.670622698700E-2,
6.004275762294E-1));
#41=CARTESIAN_POINT('',(-5.756958924953E-2,-8.545205705769E-2,
5.989627683785E-1));
#42=CARTESIAN_POINT('',(-5.885085704057E-2,-8.433130029501E-2,
5.974358128855E-1));
#43=CARTESIAN_POINT('',(-6.017830088359E-2,-8.334918005932E-2,
5.958538269167E-1));
#44=CARTESIAN_POINT('',(-6.154573262170E-2,-8.251027767009E-2,
5.942241852302E-1));
#45=CARTESIAN_POINT('',(-6.294676591372E-2,-8.181850264536E-2,
5.925544987712E-1));
#46=CARTESIAN_POINT('',(-6.437491928288E-2,-8.127708146871E-2,
5.908524918628E-1));
#47=CARTESIAN_POINT('',(-6.582333987164E-2,-8.088853887168E-2,
5.891263314226E-1));
#48=CARTESIAN_POINT('',(-6.728599741741E-2,-8.065468571025E-2,
5.873832040378E-1));
#49=CARTESIAN_POINT('',(-6.826425698713E-2,-8.060263752445E-2,
5.862173596811E-1));
#50=CARTESIAN_POINT('',(-6.875470347368E-2,-8.060263752445E-2,
5.856328683188E-1));
#52=CURVE_STYLE('',#21,POSITIVE_LENGTH_MEASURE(2.E-2),#9);
#53=PRESENTATION_STYLE_ASSIGNMENT((#52));
#54=STYLED_ITEM('',(#53),#51);
#55=DIRECTION('',(-1.E0,0.E0,2.160219653681E-14));
#56=VECTOR('',#55,1.541819633110E-2);
#57=CARTESIAN_POINT('',(-5.333650714257E-2,-8.060263752445E-2,
5.856328683188E-1));
#58=LINE('',#57,#56);
#59=CURVE_STYLE('',#21,POSITIVE_LENGTH_MEASURE(2.E-2),#9);
#60=PRESENTATION_STYLE_ASSIGNMENT((#59));
#61=STYLED_ITEM('',(#60),#58);
#62=CARTESIAN_POINT('',(-5.333650714257E-2,-8.060263752445E-2,
5.856328683188E-1));
#63=CARTESIAN_POINT('',(-5.126325571839E-2,-8.060263752445E-2,
5.881036731518E-1));
#64=CARTESIAN_POINT('',(-4.923245150011E-2,-8.105940070209E-2,
5.905238913747E-1));
#65=CARTESIAN_POINT('',(-4.724409448773E-2,-8.197292705737E-2,
5.928935229874E-1));
#67=CURVE_STYLE('',#21,POSITIVE_LENGTH_MEASURE(2.E-2),#9);
#68=PRESENTATION_STYLE_ASSIGNMENT((#67));
#69=STYLED_ITEM('',(#68),#66);
#70=CARTESIAN_POINT('',(-6.875470347372E-2,-1.475317713827E-1,
5.856328683188E-1));
#71=CARTESIAN_POINT('',(-6.826424703461E-2,-1.475317713827E-1,
5.862173715421E-1));
#72=CARTESIAN_POINT('',(-6.728596778953E-2,-1.474797210598E-1,
5.873832393469E-1));
#73=CARTESIAN_POINT('',(-6.582328225932E-2,-1.472458587612E-1,
5.891264000823E-1));
#74=CARTESIAN_POINT('',(-6.437483269677E-2,-1.468573005461E-1,
5.908525950521E-1));
#75=CARTESIAN_POINT('',(-6.294665233759E-2,-1.463158577963E-1,
5.925546341259E-1));
#76=CARTESIAN_POINT('',(-6.154559455993E-2,-1.456240560415E-1,
5.942243497658E-1));
#77=CARTESIAN_POINT('',(-6.017813785971E-2,-1.447851198241E-1,
5.958540212010E-1));
#78=CARTESIAN_POINT('',(-5.885067418634E-2,-1.438029623965E-1,
5.974360308027E-1));
#79=CARTESIAN_POINT('',(-5.756938636343E-2,-1.426821611727E-1,
5.989630101687E-1));
#80=CARTESIAN_POINT('',(-5.634025200880E-2,-1.414279443120E-1,
6.004278354515E-1));
#81=CARTESIAN_POINT('',(-5.516899956449E-2,-1.400461578430E-1,
6.018236797598E-1));
#82=CARTESIAN_POINT('',(-5.406109093394E-2,-1.385432452659E-1,
6.031440338505E-1));
#83=CARTESIAN_POINT('',(-5.302169178627E-2,-1.369262144966E-1,
6.043827415188E-1));
#84=CARTESIAN_POINT('',(-5.205564727293E-2,-1.352026033061E-1,
6.055340285382E-1));
#85=CARTESIAN_POINT('',(-5.116746274097E-2,-1.333804503457E-1,
6.065925256450E-1));
#86=CARTESIAN_POINT('',(-5.036127805063E-2,-1.314682491132E-1,
6.075532991459E-1));
#87=CARTESIAN_POINT('',(-4.964085280694E-2,-1.294749165979E-1,
6.084118685182E-1));
#88=CARTESIAN_POINT('',(-4.900954549115E-2,-1.274097474543E-1,
6.091642312798E-1));
#89=CARTESIAN_POINT('',(-4.847029954117E-2,-1.252823640573E-1,
6.098068795780E-1));
#90=CARTESIAN_POINT('',(-4.802562929713E-2,-1.231027094790E-1,
6.103368169388E-1));
#91=CARTESIAN_POINT('',(-4.767760790055E-2,-1.208808585475E-1,
6.107515726885E-1));
#92=CARTESIAN_POINT('',(-4.742785739751E-2,-1.186274938063E-1,
6.110492137477E-1));
#93=CARTESIAN_POINT('',(-4.727754499446E-2,-1.163519187787E-1,
6.112283490942E-1));
#94=CARTESIAN_POINT('',(-4.724408883186E-2,-1.148301257429E-1,
6.112682205957E-1));
#95=CARTESIAN_POINT('',(-4.724409552488E-2,-1.140672050762E-1,
6.112682126193E-1));
#97=CURVE_STYLE('',#21,POSITIVE_LENGTH_MEASURE(2.E-2),#9);
#98=PRESENTATION_STYLE_ASSIGNMENT((#97));
#99=STYLED_ITEM('',(#98),#96);
#100=CARTESIAN_POINT('',(-4.724409448773E-2,-1.461614818498E-1,
5.928935229874E-1));
#101=CARTESIAN_POINT('',(-4.923245150013E-2,-1.470750082051E-1,
5.905238913746E-1));
#102=CARTESIAN_POINT('',(-5.126325571842E-2,-1.475317713827E-1,
5.881036731518E-1));
#103=CARTESIAN_POINT('',(-5.333650714262E-2,-1.475317713827E-1,
5.856328683188E-1));
#105=CURVE_STYLE('',#21,POSITIVE_LENGTH_MEASURE(2.E-2),#9);
#106=PRESENTATION_STYLE_ASSIGNMENT((#105));
#107=STYLED_ITEM('',(#106),#104);
#108=DIRECTION('',(1.E0,1.080109826840E-14,7.920805396829E-14));
#109=VECTOR('',#108,1.541819633110E-2);
#110=CARTESIAN_POINT('',(-6.875470347372E-2,-1.475317713827E-1,
5.856328683188E-1));
#111=LINE('',#110,#109);
#112=CURVE_STYLE('',#21,POSITIVE_LENGTH_MEASURE(2.E-2),#9);
#113=PRESENTATION_STYLE_ASSIGNMENT((#112));
#114=STYLED_ITEM('',(#113),#111);
#115=DIRECTION('',(6.427876097060E-1,0.E0,7.660444431027E-1));
#116=VECTOR('',#115,2.244943372873E-3);
#117=CARTESIAN_POINT('',(-7.019772525825E-2,-8.060263752445E-2,
5.839131419230E-1));
#118=LINE('',#117,#116);
#119=CURVE_STYLE('',#21,POSITIVE_LENGTH_MEASURE(2.E-2),#9);
#120=PRESENTATION_STYLE_ASSIGNMENT((#119));
#121=STYLED_ITEM('',(#120),#118);
#122=CARTESIAN_POINT('',(-5.511811023622E-2,-8.060263752445E-2,
5.712598425197E-1));
#123=DIRECTION('',(0.E0,1.E0,0.E0));
#124=DIRECTION('',(-6.427876096940E-1,0.E0,-7.660444431127E-1));
#125=AXIS2_PLACEMENT_3D('',#122,#123,#124);
#127=CURVE_STYLE('',#21,POSITIVE_LENGTH_MEASURE(2.E-2),#9);
#128=PRESENTATION_STYLE_ASSIGNMENT((#127));
#129=STYLED_ITEM('',(#128),#126);
#130=DIRECTION('',(-7.660444431205E-1,0.E0,6.427876096847E-1));
#131=VECTOR('',#130,2.679650682908E-2);
#132=CARTESIAN_POINT('',(-4.724409448819E-2,-8.060263752445E-2,
5.389557649252E-1));
#133=LINE('',#132,#131);
#134=CURVE_STYLE('',#21,POSITIVE_LENGTH_MEASURE(2.E-2),#9);
#135=PRESENTATION_STYLE_ASSIGNMENT((#134));
#136=STYLED_ITEM('',(#135),#133);
#137=DIRECTION('',(7.660444431189E-1,0.E0,-6.427876096866E-1));
#138=VECTOR('',#137,1.688588126386E-2);
#139=CARTESIAN_POINT('',(-6.017942999753E-2,-8.060263752445E-2,
5.652279965109E-1));
#140=LINE('',#139,#138);
#141=CURVE_STYLE('',#21,POSITIVE_LENGTH_MEASURE(2.E-2),#9);
#142=PRESENTATION_STYLE_ASSIGNMENT((#141));
#143=STYLED_ITEM('',(#142),#140);
#144=CARTESIAN_POINT('',(-5.511811023633E-2,-8.060263752445E-2,
5.712598425196E-1));
#145=DIRECTION('',(0.E0,-1.E0,0.E0));
#146=DIRECTION('',(-7.660444429955E-1,0.E0,6.427876098337E-1));
#147=AXIS2_PLACEMENT_3D('',#144,#145,#146);
#149=CURVE_STYLE('',#21,POSITIVE_LENGTH_MEASURE(2.E-2),#9);
#150=PRESENTATION_STYLE_ASSIGNMENT((#149));
#151=STYLED_ITEM('',(#150),#148);
#152=DIRECTION('',(-6.427876097062E-1,0.E0,-7.660444431024E-1));
#153=VECTOR('',#152,1.215556893797E-2);
#154=CARTESIAN_POINT('',(-5.333650714257E-2,-8.060263752445E-2,
5.856328683188E-1));
#155=LINE('',#154,#153);
#156=CURVE_STYLE('',#21,POSITIVE_LENGTH_MEASURE(2.E-2),#9);
#157=PRESENTATION_STYLE_ASSIGNMENT((#156));
#158=STYLED_ITEM('',(#157),#155);
#159=CARTESIAN_POINT('',(-6.777140963965E-2,-1.476655707579E-1,
5.561802274978E-1));
#160=CARTESIAN_POINT('',(-6.902804535063E-2,-1.476607805676E-1,
5.572346700594E-1));
#161=CARTESIAN_POINT('',(-7.099504916641E-2,-1.476509830755E-1,
5.593913469123E-1));
#162=CARTESIAN_POINT('',(-7.363699783427E-2,-1.476308745688E-1,
5.638177399636E-1));
#163=CARTESIAN_POINT('',(-7.511875176470E-2,-1.476050153144E-1,
5.695100186606E-1));
#164=CARTESIAN_POINT('',(-7.464795956477E-2,-1.475783800300E-1,
5.753731212462E-1));
#165=CARTESIAN_POINT('',(-7.281478238303E-2,-1.475564929065E-1,
5.801910330372E-1));
#166=CARTESIAN_POINT('',(-7.125216593049E-2,-1.475452925841E-1,
5.826565084636E-1));
#167=CARTESIAN_POINT('',(-7.019772525825E-2,-1.475395838678E-1,
5.839131419230E-1));
#169=CURVE_STYLE('',#21,POSITIVE_LENGTH_MEASURE(2.E-2),#9);
#170=PRESENTATION_STYLE_ASSIGNMENT((#169));
#171=STYLED_ITEM('',(#170),#168);
#172=DIRECTION('',(0.E0,-1.E0,0.E0));
#173=VECTOR('',#172,6.706293323350E-2);
#174=CARTESIAN_POINT('',(-6.777140963965E-2,-8.060263752445E-2,
5.561802274978E-1));
#175=LINE('',#174,#173);
#176=CURVE_STYLE('',#21,POSITIVE_LENGTH_MEASURE(2.E-2),#9);
#177=PRESENTATION_STYLE_ASSIGNMENT((#176));
#178=STYLED_ITEM('',(#177),#175);
#179=DIRECTION('',(0.E0,1.E0,0.E0));
#180=VECTOR('',#179,6.693694634336E-2);
#181=CARTESIAN_POINT('',(-7.019772525825E-2,-1.475395838678E-1,
5.839131419230E-1));
#182=LINE('',#181,#180);
#183=CURVE_STYLE('',#21,POSITIVE_LENGTH_MEASURE(2.E-2),#9);
#184=PRESENTATION_STYLE_ASSIGNMENT((#183));
#185=STYLED_ITEM('',(#184),#182);
#186=DIRECTION('',(-7.660411771228E-1,2.920084973979E-3,6.427848691873E-1));
#187=VECTOR('',#186,2.679662107533E-2);
#188=CARTESIAN_POINT('',(-4.724409448819E-2,-1.477438191685E-1,
5.389557649252E-1));
#189=LINE('',#188,#187);
#190=CURVE_STYLE('',#21,POSITIVE_LENGTH_MEASURE(2.E-2),#9);
#191=PRESENTATION_STYLE_ASSIGNMENT((#190));
#192=STYLED_ITEM('',(#191),#189);
#193=DIRECTION('',(0.E0,-1.E0,0.E0));
#194=VECTOR('',#193,6.714118164406E-2);
#195=CARTESIAN_POINT('',(-4.724409448819E-2,-8.060263752445E-2,
5.389557649252E-1));
#196=LINE('',#195,#194);
#197=CURVE_STYLE('',#21,POSITIVE_LENGTH_MEASURE(2.E-2),#9);
#198=PRESENTATION_STYLE_ASSIGNMENT((#197));
#199=STYLED_ITEM('',(#198),#196);
#200=DIRECTION('',(0.E0,-4.542818262554E-3,-9.999896813479E-1));
#201=VECTOR('',#200,1.541835542726E-2);
#202=CARTESIAN_POINT('',(-4.724409448819E-2,-1.476737763819E-1,
5.543739612558E-1));
#203=LINE('',#202,#201);
#204=CURVE_STYLE('',#21,POSITIVE_LENGTH_MEASURE(2.E-2),#9);
#205=PRESENTATION_STYLE_ASSIGNMENT((#204));
#206=STYLED_ITEM('',(#205),#203);
#207=DIRECTION('',(0.E0,-1.E0,0.E0));
#208=VECTOR('',#207,6.707113885744E-2);
#209=CARTESIAN_POINT('',(-4.724409448819E-2,-8.060263752445E-2,
5.543739612558E-1));
#210=LINE('',#209,#208);
#211=CURVE_STYLE('',#21,POSITIVE_LENGTH_MEASURE(2.E-2),#9);
#212=PRESENTATION_STYLE_ASSIGNMENT((#211));
#213=STYLED_ITEM('',(#212),#210);
#214=DIRECTION('',(0.E0,0.E0,1.E0));
#215=VECTOR('',#214,1.541819633061E-2);
#216=CARTESIAN_POINT('',(-4.724409448819E-2,-8.060263752445E-2,
5.389557649252E-1));
#217=LINE('',#216,#215);
#218=CURVE_STYLE('',#21,POSITIVE_LENGTH_MEASURE(2.E-2),#9);
#219=PRESENTATION_STYLE_ASSIGNMENT((#218));
#220=STYLED_ITEM('',(#219),#217);
#221=DIRECTION('',(7.660411771212E-1,-2.920084973988E-3,-6.427848691891E-1));
#222=VECTOR('',#221,1.688595325640E-2);
#223=CARTESIAN_POINT('',(-6.017942999753E-2,-1.476244679635E-1,
5.652279965109E-1));
#224=LINE('',#223,#222);
#225=CURVE_STYLE('',#21,POSITIVE_LENGTH_MEASURE(2.E-2),#9);
#226=PRESENTATION_STYLE_ASSIGNMENT((#225));
#227=STYLED_ITEM('',(#226),#224);
#228=CARTESIAN_POINT('',(-6.114995624404E-2,-1.475740732075E-1,
5.763211622819E-1));
#229=CARTESIAN_POINT('',(-6.157173251311E-2,-1.475763566940E-1,
5.758185088982E-1));
#230=CARTESIAN_POINT('',(-6.219677909437E-2,-1.475808368229E-1,
5.748323187276E-1));
#231=CARTESIAN_POINT('',(-6.293004996741E-2,-1.475895916723E-1,
5.729051540111E-1));
#232=CARTESIAN_POINT('',(-6.311836684765E-2,-1.476002457861E-1,
5.705599129766E-1));
#233=CARTESIAN_POINT('',(-6.252566527560E-2,-1.476105894879E-1,
5.682830014976E-1));
#234=CARTESIAN_POINT('',(-6.146888580842E-2,-1.476186328905E-1,
5.665124442769E-1));
#235=CARTESIAN_POINT('',(-6.068208428202E-2,-1.476225518874E-1,
5.656497735356E-1));
#236=CARTESIAN_POINT('',(-6.017942999753E-2,-1.476244679635E-1,
5.652279965109E-1));
#238=CURVE_STYLE('',#21,POSITIVE_LENGTH_MEASURE(2.E-2),#9);
#239=PRESENTATION_STYLE_ASSIGNMENT((#238));
#240=STYLED_ITEM('',(#239),#237);
#241=DIRECTION('',(1.605951170282E-14,-1.E0,0.E0));
#242=VECTOR('',#241,6.697143568301E-2);
#243=CARTESIAN_POINT('',(-6.114995624483E-2,-8.060263752445E-2,
5.763211622812E-1));
#244=LINE('',#243,#242);
#245=CURVE_STYLE('',#21,POSITIVE_LENGTH_MEASURE(2.E-2),#9);
#246=PRESENTATION_STYLE_ASSIGNMENT((#245));
#247=STYLED_ITEM('',(#246),#244);
#248=DIRECTION('',(0.E0,1.E0,0.E0));
#249=VECTOR('',#248,6.702183043907E-2);
#250=CARTESIAN_POINT('',(-6.017942999753E-2,-1.476244679635E-1,
5.652279965109E-1));
#251=LINE('',#250,#249);
#252=CURVE_STYLE('',#21,POSITIVE_LENGTH_MEASURE(2.E-2),#9);
#253=PRESENTATION_STYLE_ASSIGNMENT((#252));
#254=STYLED_ITEM('',(#253),#251);
#255=DIRECTION('',(-6.427837174516E-1,-3.480015522782E-3,-7.660398044952E-1));
#256=VECTOR('',#255,1.215564254364E-2);
#257=CARTESIAN_POINT('',(-5.333650714262E-2,-1.475317713827E-1,
5.856328683188E-1));
#258=LINE('',#257,#256);
#259=CURVE_STYLE('',#21,POSITIVE_LENGTH_MEASURE(2.E-2),#9);
#260=PRESENTATION_STYLE_ASSIGNMENT((#259));
#261=STYLED_ITEM('',(#260),#258);
#262=DIRECTION('',(0.E0,-1.E0,2.594441551647E-14));
#263=VECTOR('',#262,6.418855479247E-2);
#264=CARTESIAN_POINT('',(-4.724409448803E-2,-8.197292705734E-2,
5.928935229873E-1));
#265=LINE('',#264,#263);
#266=CURVE_STYLE('',#21,POSITIVE_LENGTH_MEASURE(2.E-2),#9);
#267=PRESENTATION_STYLE_ASSIGNMENT((#266));
#268=STYLED_ITEM('',(#267),#265);
#269=CARTESIAN_POINT('',(-4.724409448817E-2,-8.197292705751E-2,
5.928935229878E-1));
#270=CARTESIAN_POINT('',(-4.724409448817E-2,-8.264293715843E-2,
5.946314882985E-1));
#271=CARTESIAN_POINT('',(-4.724409448817E-2,-8.430297357276E-2,
5.976410748122E-1));
#272=CARTESIAN_POINT('',(-4.724409448817E-2,-8.841533561209E-2,
6.025056831939E-1));
#273=CARTESIAN_POINT('',(-4.724409448817E-2,-9.466468540495E-2,
6.069705014923E-1));
#274=CARTESIAN_POINT('',(-4.724409448817E-2,-1.035181514165E-1,
6.103548060479E-1));
#275=CARTESIAN_POINT('',(-4.724409448817E-2,-1.103419195213E-1,
6.112682138563E-1));
#276=CARTESIAN_POINT('',(-4.724409448817E-2,-1.140672044536E-1,
6.112682138563E-1));
#278=CURVE_STYLE('',#21,POSITIVE_LENGTH_MEASURE(2.E-2),#9);
#279=PRESENTATION_STYLE_ASSIGNMENT((#278));
#280=STYLED_ITEM('',(#279),#277);
#281=CARTESIAN_POINT('',(-4.724409448817E-2,-1.140672044536E-1,
6.112682138563E-1));
#282=CARTESIAN_POINT('',(-4.724409448817E-2,-1.177924893858E-1,
6.112682138563E-1));
#283=CARTESIAN_POINT('',(-4.724409448817E-2,-1.246162574907E-1,
6.103548060479E-1));
#284=CARTESIAN_POINT('',(-4.724409448817E-2,-1.334697235022E-1,
6.069705014923E-1));
#285=CARTESIAN_POINT('',(-4.724409448817E-2,-1.397190732951E-1,
6.025056831939E-1));
#286=CARTESIAN_POINT('',(-4.724409448817E-2,-1.438314353344E-1,
5.976410748122E-1));
#287=CARTESIAN_POINT('',(-4.724409448817E-2,-1.454914717487E-1,
5.946314882985E-1));
#288=CARTESIAN_POINT('',(-4.724409448817E-2,-1.461614818497E-1,
5.928935229878E-1));
#290=CURVE_STYLE('',#21,POSITIVE_LENGTH_MEASURE(2.E-2),#9);
#291=PRESENTATION_STYLE_ASSIGNMENT((#290));
#292=STYLED_ITEM('',(#291),#289);
#293=VERTEX_POINT('',#269);
#294=VERTEX_POINT('',#276);
#295=CARTESIAN_POINT('',(-4.724409448803E-2,-1.461614818498E-1,
5.928935229873E-1));
#296=VERTEX_POINT('',#295);
#297=VERTEX_POINT('',#62);
#298=CARTESIAN_POINT('',(-6.875470347368E-2,-8.060263752445E-2,
5.856328683188E-1));
#299=VERTEX_POINT('',#298);
#300=CARTESIAN_POINT('',(-7.019772525825E-2,-8.060263752445E-2,
5.839131419230E-1));
#301=VERTEX_POINT('',#300);
#302=CARTESIAN_POINT('',(-6.777140963965E-2,-8.060263752445E-2,
5.561802274978E-1));
#303=VERTEX_POINT('',#302);
#304=VERTEX_POINT('',#159);
#305=VERTEX_POINT('',#167);
#306=VERTEX_POINT('',#70);
#307=CARTESIAN_POINT('',(-6.114995624483E-2,-8.060263752445E-2,
5.763211622812E-1));
#308=VERTEX_POINT('',#307);
#309=CARTESIAN_POINT('',(-6.017942999753E-2,-8.060263752445E-2,
5.652279965109E-1));
#310=VERTEX_POINT('',#309);
#311=VERTEX_POINT('',#103);
#312=CARTESIAN_POINT('',(-6.114995624483E-2,-1.475740732075E-1,
5.763211622812E-1));
#313=VERTEX_POINT('',#312);
#314=CARTESIAN_POINT('',(-6.017942999753E-2,-1.476244679635E-1,
5.652279965109E-1));
#315=VERTEX_POINT('',#314);
#316=CARTESIAN_POINT('',(-4.724409448819E-2,-8.060263752445E-2,
5.543739612558E-1));
#317=CARTESIAN_POINT('',(-4.724409448819E-2,-1.476737763819E-1,
5.543739612558E-1));
#318=VERTEX_POINT('',#316);
#319=VERTEX_POINT('',#317);
#320=CARTESIAN_POINT('',(-4.724409448819E-2,-8.060263752445E-2,
5.389557649252E-1));
#321=CARTESIAN_POINT('',(-4.724409448819E-2,-1.477438191685E-1,
5.389557649252E-1));
#322=VERTEX_POINT('',#320);
#323=VERTEX_POINT('',#321);
#324=CARTESIAN_POINT('',(-6.875470347371E-2,1.712598425197E-1,
5.856328683188E-1));
#325=DIRECTION('',(-7.660444431052E-1,0.E0,6.427876097030E-1));
#326=DIRECTION('',(-6.427876097030E-1,0.E0,-7.660444431052E-1));
#327=AXIS2_PLACEMENT_3D('',#324,#325,#326);
#328=PLANE('',#327);
#330=ORIENTED_EDGE('',*,*,#329,.T.);
#332=ORIENTED_EDGE('',*,*,#331,.T.);
#334=ORIENTED_EDGE('',*,*,#333,.T.);
#336=ORIENTED_EDGE('',*,*,#335,.F.);
#338=ORIENTED_EDGE('',*,*,#337,.F.);
#339=EDGE_LOOP('',(#330,#332,#334,#336,#338));
#340=FACE_OUTER_BOUND('',#339,.F.);
#342=CARTESIAN_POINT('',(-2.749064822791E-1,-1.477438191685E-1,
5.389557649252E-1));
#343=DIRECTION('',(0.E0,9.999896813479E-1,-4.542818262561E-3));
#344=DIRECTION('',(0.E0,4.542818262561E-3,9.999896813479E-1));
#345=AXIS2_PLACEMENT_3D('',#342,#343,#344);
#346=PLANE('',#345);
#347=ORIENTED_EDGE('',*,*,#329,.F.);
#349=ORIENTED_EDGE('',*,*,#348,.T.);
#351=ORIENTED_EDGE('',*,*,#350,.T.);
#353=ORIENTED_EDGE('',*,*,#352,.T.);
#355=ORIENTED_EDGE('',*,*,#354,.T.);
#357=ORIENTED_EDGE('',*,*,#356,.T.);
#359=ORIENTED_EDGE('',*,*,#358,.T.);
#361=ORIENTED_EDGE('',*,*,#360,.T.);
#362=EDGE_LOOP('',(#347,#349,#351,#353,#355,#357,#359,#361));
#363=FACE_OUTER_BOUND('',#362,.F.);
#365=CARTESIAN_POINT('',(-2.749064822791E-1,-1.140672044536E-1,
5.856328683188E-1));
#366=DIRECTION('',(1.E0,0.E0,0.E0));
#367=DIRECTION('',(0.E0,1.E0,0.E0));
#368=AXIS2_PLACEMENT_3D('',#365,#366,#367);
#371=DIRECTION('',(1.E0,0.E0,0.E0));
#372=VECTOR('',#371,1.E0);
#373=SURFACE_OF_LINEAR_EXTRUSION('',#370,#372);
#374=ORIENTED_EDGE('',*,*,#335,.T.);
#376=ORIENTED_EDGE('',*,*,#375,.F.);
#378=ORIENTED_EDGE('',*,*,#377,.T.);
#380=ORIENTED_EDGE('',*,*,#379,.T.);
#381=EDGE_LOOP('',(#374,#376,#378,#380));
#382=FACE_OUTER_BOUND('',#381,.F.);
#384=CARTESIAN_POINT('',(-2.749064822791E-1,-1.140672044536E-1,
5.856328683188E-1));
#385=DIRECTION('',(1.E0,0.E0,0.E0));
#386=DIRECTION('',(0.E0,1.E0,0.E0));
#387=AXIS2_PLACEMENT_3D('',#384,#385,#386);
#390=DIRECTION('',(1.E0,0.E0,0.E0));
#391=VECTOR('',#390,1.E0);
#392=SURFACE_OF_LINEAR_EXTRUSION('',#389,#391);
#393=ORIENTED_EDGE('',*,*,#337,.T.);
#395=ORIENTED_EDGE('',*,*,#394,.T.);
#397=ORIENTED_EDGE('',*,*,#396,.T.);
#398=ORIENTED_EDGE('',*,*,#348,.F.);
#399=EDGE_LOOP('',(#393,#395,#397,#398));
#400=FACE_OUTER_BOUND('',#399,.F.);
#402=CARTESIAN_POINT('',(-2.749064822791E-1,-8.060263752445E-2,
5.389557649252E-1));
#403=DIRECTION('',(0.E0,-1.E0,0.E0));
#404=DIRECTION('',(0.E0,0.E0,-1.E0));
#405=AXIS2_PLACEMENT_3D('',#402,#403,#404);
#406=PLANE('',#405);
#407=ORIENTED_EDGE('',*,*,#333,.F.);
#409=ORIENTED_EDGE('',*,*,#408,.F.);
#411=ORIENTED_EDGE('',*,*,#410,.F.);
#413=ORIENTED_EDGE('',*,*,#412,.T.);
#415=ORIENTED_EDGE('',*,*,#414,.F.);
#417=ORIENTED_EDGE('',*,*,#416,.F.);
#419=ORIENTED_EDGE('',*,*,#418,.F.);
#420=ORIENTED_EDGE('',*,*,#375,.T.);
#421=EDGE_LOOP('',(#407,#409,#411,#413,#415,#417,#419,#420));
#422=FACE_OUTER_BOUND('',#421,.F.);
#424=CARTESIAN_POINT('',(-5.511811023622E-2,1.712598425197E-1,
5.712598425197E-1));
#425=DIRECTION('',(0.E0,-1.E0,0.E0));
#426=DIRECTION('',(0.E0,0.E0,-1.E0));
#427=AXIS2_PLACEMENT_3D('',#424,#425,#426);
#428=CYLINDRICAL_SURFACE('',#427,1.968503937008E-2);
#429=ORIENTED_EDGE('',*,*,#360,.F.);
#431=ORIENTED_EDGE('',*,*,#430,.F.);
#432=ORIENTED_EDGE('',*,*,#408,.T.);
#433=ORIENTED_EDGE('',*,*,#331,.F.);
#434=EDGE_LOOP('',(#429,#431,#432,#433));
#435=FACE_OUTER_BOUND('',#434,.F.);
#437=CARTESIAN_POINT('',(-6.777140963965E-2,1.712598425197E-1,
5.561802274978E-1));
#438=DIRECTION('',(-6.427876096847E-1,0.E0,-7.660444431205E-1));
#439=DIRECTION('',(7.660444431205E-1,0.E0,-6.427876096847E-1));
#440=AXIS2_PLACEMENT_3D('',#437,#438,#439);
#441=PLANE('',#440);
#442=ORIENTED_EDGE('',*,*,#358,.F.);
#444=ORIENTED_EDGE('',*,*,#443,.F.);
#445=ORIENTED_EDGE('',*,*,#410,.T.);
#446=ORIENTED_EDGE('',*,*,#430,.T.);
#447=EDGE_LOOP('',(#442,#444,#445,#446));
#448=FACE_OUTER_BOUND('',#447,.F.);
#450=CARTESIAN_POINT('',(-4.724409448819E-2,1.712598425197E-1,
5.543739612558E-1));
#451=DIRECTION('',(1.E0,0.E0,0.E0));
#452=DIRECTION('',(0.E0,-1.E0,0.E0));
#453=AXIS2_PLACEMENT_3D('',#450,#451,#452);
#454=PLANE('',#453);
#455=ORIENTED_EDGE('',*,*,#356,.F.);
#457=ORIENTED_EDGE('',*,*,#456,.F.);
#458=ORIENTED_EDGE('',*,*,#412,.F.);
#459=ORIENTED_EDGE('',*,*,#443,.T.);
#460=EDGE_LOOP('',(#455,#457,#458,#459));
#461=FACE_OUTER_BOUND('',#460,.F.);
#463=CARTESIAN_POINT('',(-4.724409448819E-2,1.712598425197E-1,
5.543739612558E-1));
#464=DIRECTION('',(6.427876096866E-1,0.E0,7.660444431189E-1));
#465=DIRECTION('',(-7.660444431189E-1,0.E0,6.427876096866E-1));
#466=AXIS2_PLACEMENT_3D('',#463,#464,#465);
#467=PLANE('',#466);
#468=ORIENTED_EDGE('',*,*,#354,.F.);
#470=ORIENTED_EDGE('',*,*,#469,.T.);
#471=ORIENTED_EDGE('',*,*,#414,.T.);
#472=ORIENTED_EDGE('',*,*,#456,.T.);
#473=EDGE_LOOP('',(#468,#470,#471,#472));
#474=FACE_OUTER_BOUND('',#473,.F.);
#476=CARTESIAN_POINT('',(-5.511811023633E-2,1.712598425197E-1,
5.712598425196E-1));
#477=DIRECTION('',(0.E0,-1.E0,0.E0));
#478=DIRECTION('',(0.E0,0.E0,-1.E0));
#479=AXIS2_PLACEMENT_3D('',#476,#477,#478);
#480=CYLINDRICAL_SURFACE('',#479,7.874015747867E-3);
#481=ORIENTED_EDGE('',*,*,#352,.F.);
#483=ORIENTED_EDGE('',*,*,#482,.F.);
#484=ORIENTED_EDGE('',*,*,#416,.T.);
#485=ORIENTED_EDGE('',*,*,#469,.F.);
#486=EDGE_LOOP('',(#481,#483,#484,#485));
#487=FACE_OUTER_BOUND('',#486,.F.);
#489=CARTESIAN_POINT('',(-6.114995624522E-2,1.712598425197E-1,
5.763211622808E-1));
#490=DIRECTION('',(7.660444431E-1,0.E0,-6.427876097091E-1));
#491=DIRECTION('',(6.427876097091E-1,0.E0,7.660444431E-1));
#492=AXIS2_PLACEMENT_3D('',#489,#490,#491);
#493=PLANE('',#492);
#494=ORIENTED_EDGE('',*,*,#350,.F.);
#495=ORIENTED_EDGE('',*,*,#396,.F.);
#497=ORIENTED_EDGE('',*,*,#496,.F.);
#498=ORIENTED_EDGE('',*,*,#377,.F.);
#499=ORIENTED_EDGE('',*,*,#418,.T.);
#500=ORIENTED_EDGE('',*,*,#482,.T.);
#501=EDGE_LOOP('',(#494,#495,#497,#498,#499,#500));
#502=FACE_OUTER_BOUND('',#501,.F.);
#504=CARTESIAN_POINT('',(-4.724409448818E-2,1.712598425197E-1,
5.928935229878E-1));
#505=DIRECTION('',(1.E0,0.E0,2.230117513174E-14));
#506=DIRECTION('',(-2.230117513174E-14,0.E0,1.E0));
#507=AXIS2_PLACEMENT_3D('',#504,#505,#506);
#508=PLANE('',#507);
#509=ORIENTED_EDGE('',*,*,#379,.F.);
#510=ORIENTED_EDGE('',*,*,#496,.T.);
#511=ORIENTED_EDGE('',*,*,#394,.F.);
#512=EDGE_LOOP('',(#509,#510,#511));
#513=FACE_OUTER_BOUND('',#512,.F.);
#517=FILL_AREA_STYLE_COLOUR('',#9);
#518=FILL_AREA_STYLE('',(#517));
#519=SURFACE_STYLE_FILL_AREA(#518);
#520=SURFACE_SIDE_STYLE('',(#519));
#521=SURFACE_STYLE_USAGE(.BOTH.,#520);
#522=PRESENTATION_STYLE_ASSIGNMENT((#521));
#16=STYLED_ITEM('',(#522),#516);
#523=PRESENTATION_LAYER_ASSIGNMENT('SHELL_256','',(#16,#341,#364,#370,#383,#389,
#401,#423,#436,#449,#462,#475,#488,#503,#514));
#525=LENGTH_MEASURE_WITH_UNIT(LENGTH_MEASURE(2.54E1),#524);
#526=(CONVERSION_BASED_UNIT('INCH',#525)LENGTH_UNIT()NAMED_UNIT(*));
#528=PLANE_ANGLE_MEASURE_WITH_UNIT(PLANE_ANGLE_MEASURE(1.745329251994E-2),#527);
#529=(CONVERSION_BASED_UNIT('DEGREE',#528)NAMED_UNIT(*)PLANE_ANGLE_UNIT());
#531=UNCERTAINTY_MEASURE_WITH_UNIT(LENGTH_MEASURE(1.024522512603E-5),#526,
'closure',
'Maximum model space distance between geometric entities at asserted connectivities');
#533=CARTESIAN_POINT('',(0.E0,0.E0,0.E0));
#534=DIRECTION('',(0.E0,0.E0,1.E0));
#535=DIRECTION('',(1.E0,0.E0,0.E0));
#538=MECHANICAL_DESIGN_GEOMETRIC_PRESENTATION_REPRESENTATION('',(#24,#54,#61,
#69,#99,#107,#114,#121,#129,#136,#143,#151,#158,#171,#178,#185,#192,#199,#206,
#213,#220,#227,#240,#247,#254,#261,#268,#280,#292,#16),#532);
#539=APPLICATION_CONTEXT('automotive design');
#540=APPLICATION_PROTOCOL_DEFINITION('international standard',
'config_control_design',1994,#539);
#541=PRODUCT_DEFINITION_CONTEXT('',#539,'design');
#542=PRODUCT_CONTEXT('',#539,'mechanical');
#543=PRODUCT('MIRROR23200','MIRROR23200','NOT SPECIFIED',(#542));
#544=PRODUCT_DEFINITION_FORMATION_WITH_SPECIFIED_SOURCE('1','LAST_VERSION',#543,
.MADE.);
#552=LENGTH_MEASURE_WITH_UNIT(LENGTH_MEASURE(2.54E1),#551);
#553=(CONVERSION_BASED_UNIT('INCH',#552)LENGTH_UNIT()NAMED_UNIT(*));
#554=DERIVED_UNIT_ELEMENT(#553,2.E0);
#555=AREA_UNIT((#554));
#556=MEASURE_REPRESENTATION_ITEM('surface area measure',AREA_MEASURE(
8.327359269409E0),#555);
#561=LENGTH_MEASURE_WITH_UNIT(LENGTH_MEASURE(2.54E1),#560);
#562=(CONVERSION_BASED_UNIT('INCH',#561)LENGTH_UNIT()NAMED_UNIT(*));
#563=DERIVED_UNIT_ELEMENT(#562,3.E0);
#564=VOLUME_UNIT((#563));
#565=MEASURE_REPRESENTATION_ITEM('volume measure',VOLUME_MEASURE(
9.068391071488E-1),#564);
#569=CARTESIAN_POINT('centre point',(-1.527059940474E0,-2.898187900977E0,
1.454512354317E1));
#574=LENGTH_MEASURE_WITH_UNIT(LENGTH_MEASURE(2.54E1),#573);
#575=(CONVERSION_BASED_UNIT('INCH',#574)LENGTH_UNIT()NAMED_UNIT(*));
#576=DERIVED_UNIT_ELEMENT(#575,2.E0);
#577=AREA_UNIT((#576));
#578=MEASURE_REPRESENTATION_ITEM('surface area measure',AREA_MEASURE(
8.327359269409E0),#577);
#583=LENGTH_MEASURE_WITH_UNIT(LENGTH_MEASURE(2.54E1),#582);
#584=(CONVERSION_BASED_UNIT('INCH',#583)LENGTH_UNIT()NAMED_UNIT(*));
#585=DERIVED_UNIT_ELEMENT(#584,3.E0);
#586=VOLUME_UNIT((#585));
#587=MEASURE_REPRESENTATION_ITEM('volume measure',VOLUME_MEASURE(
9.068391071488E-1),#586);
#591=CARTESIAN_POINT('centre point',(-1.527059940474E0,-2.898187900977E0,
1.454512354317E1));
#1=DRAUGHTING_PRE_DEFINED_COLOUR('green');
#2=COLOUR_RGB('',1.1E-2,1.2E-2,1.E0);
#3=COLOUR_RGB('',2.352941176471E-1,2.352941176471E-1,2.352941176471E-1);
#4=COLOUR_RGB('',4.1E-1,2.61589E-1,1.12848E-1);
#5=COLOUR_RGB('',5.04854E-1,1.5455E-2,1.5455E-2);
#6=COLOUR_RGB('',6.35294E-1,6.86275E-1,7.4902E-1);
#7=COLOUR_RGB('',6.40777E-1,6.40777E-1,6.40777E-1);
#8=COLOUR_RGB('',6.69062E-1,6.69903E-1,6.55217E-1);
#9=COLOUR_RGB('',7.921568627451E-1,8.196078431373E-1,9.333333333333E-1);
#10=COLOUR_RGB('',9.21569E-1,7.05882E-1,4.70588E-1);
#11=DRAUGHTING_PRE_DEFINED_COLOUR('red');
#12=DRAUGHTING_PRE_DEFINED_COLOUR('yellow');
#13=COLOUR_RGB('',1.E0,1.E0,5.3E-1);
#14=COLOUR_RGB('',1.E0,1.E0,9.49E-1);
#15=DRAUGHTING_PRE_DEFINED_COLOUR('white');
#51=B_SPLINE_CURVE_WITH_KNOTS('',3,(#25,#26,#27,#28,#29,#30,#31,#32,#33,#34,#35,
#36,#37,#38,#39,#40,#41,#42,#43,#44,#45,#46,#47,#48,#49,#50),.UNSPECIFIED.,.F.,
.F.,(4,1,1,1,1,1,1,1,1,1,1,1,1,1,1,1,1,1,1,1,1,1,1,4),(0.E0,4.347826086957E-2,
8.695652173913E-2,1.304347826087E-1,1.739130434783E-1,2.173913043478E-1,
2.608695652174E-1,3.043478260870E-1,3.478260869565E-1,3.913043478261E-1,
4.347826086957E-1,4.782608695652E-1,5.217391304348E-1,5.652173913043E-1,
6.086956521739E-1,6.521739130435E-1,6.956521739130E-1,7.391304347826E-1,
7.826086956522E-1,8.260869565217E-1,8.695652173913E-1,9.130434782609E-1,
9.565217391304E-1,1.E0),.UNSPECIFIED.);
#66=B_SPLINE_CURVE_WITH_KNOTS('',3,(#62,#63,#64,#65),.UNSPECIFIED.,.F.,.F.,(4,
4),(0.E0,1.E0),.UNSPECIFIED.);
#96=B_SPLINE_CURVE_WITH_KNOTS('',3,(#70,#71,#72,#73,#74,#75,#76,#77,#78,#79,#80,
#81,#82,#83,#84,#85,#86,#87,#88,#89,#90,#91,#92,#93,#94,#95),.UNSPECIFIED.,.F.,
.F.,(4,1,1,1,1,1,1,1,1,1,1,1,1,1,1,1,1,1,1,1,1,1,1,4),(0.E0,4.347826086957E-2,
8.695652173913E-2,1.304347826087E-1,1.739130434783E-1,2.173913043478E-1,
2.608695652174E-1,3.043478260870E-1,3.478260869565E-1,3.913043478261E-1,
4.347826086957E-1,4.782608695652E-1,5.217391304348E-1,5.652173913043E-1,
6.086956521739E-1,6.521739130435E-1,6.956521739130E-1,7.391304347826E-1,
7.826086956522E-1,8.260869565217E-1,8.695652173913E-1,9.130434782609E-1,
9.565217391304E-1,1.E0),.UNSPECIFIED.);
#104=B_SPLINE_CURVE_WITH_KNOTS('',3,(#100,#101,#102,#103),.UNSPECIFIED.,.F.,.F.,
(4,4),(0.E0,1.E0),.UNSPECIFIED.);
#126=CIRCLE('',#125,1.968503937008E-2);
#148=CIRCLE('',#147,7.874015747867E-3);
#168=B_SPLINE_CURVE_WITH_KNOTS('',3,(#159,#160,#161,#162,#163,#164,#165,#166,
#167),.UNSPECIFIED.,.F.,.F.,(4,1,1,1,1,1,4),(0.E0,1.25E-1,2.5E-1,5.E-1,7.5E-1,
8.75E-1,1.E0),.UNSPECIFIED.);
#237=B_SPLINE_CURVE_WITH_KNOTS('',3,(#228,#229,#230,#231,#232,#233,#234,#235,
#236),.UNSPECIFIED.,.F.,.F.,(4,1,1,1,1,1,4),(0.E0,1.25E-1,2.5E-1,5.E-1,7.5E-1,
8.75E-1,1.E0),.UNSPECIFIED.);
#277=B_SPLINE_CURVE_WITH_KNOTS('',3,(#269,#270,#271,#272,#273,#274,#275,#276),
.UNSPECIFIED.,.F.,.F.,(4,1,1,1,1,4),(0.E0,1.25E-1,2.5E-1,5.E-1,7.5E-1,1.E0),
.UNSPECIFIED.);
#289=B_SPLINE_CURVE_WITH_KNOTS('',3,(#281,#282,#283,#284,#285,#286,#287,#288),
.UNSPECIFIED.,.F.,.F.,(4,1,1,1,1,4),(0.E0,2.5E-1,5.E-1,7.5E-1,8.75E-1,1.E0),
.UNSPECIFIED.);
#329=EDGE_CURVE('',#306,#305,#20,.T.);
#331=EDGE_CURVE('',#305,#301,#182,.T.);
#333=EDGE_CURVE('',#301,#299,#118,.T.);
#335=EDGE_CURVE('',#294,#299,#51,.T.);
#337=EDGE_CURVE('',#306,#294,#96,.T.);
#341=ADVANCED_FACE('',(#340),#328,.T.);
#348=EDGE_CURVE('',#306,#311,#111,.T.);
#350=EDGE_CURVE('',#311,#313,#258,.T.);
#352=EDGE_CURVE('',#313,#315,#237,.T.);
#354=EDGE_CURVE('',#315,#319,#224,.T.);
#356=EDGE_CURVE('',#319,#323,#203,.T.);
#358=EDGE_CURVE('',#323,#304,#189,.T.);
#360=EDGE_CURVE('',#304,#305,#168,.T.);
#364=ADVANCED_FACE('',(#363),#346,.F.);
#369=ELLIPSE('',#368,3.346456692913E-2,2.563534553745E-2);
#370=TRIMMED_CURVE('',#369,(PARAMETER_VALUE(0.E0)),(PARAMETER_VALUE(
9.000000151543E1)),.T.,.UNSPECIFIED.);
#375=EDGE_CURVE('',#297,#299,#58,.T.);
#377=EDGE_CURVE('',#297,#293,#66,.T.);
#379=EDGE_CURVE('',#293,#294,#277,.T.);
#383=ADVANCED_FACE('',(#382),#373,.T.);
#388=ELLIPSE('',#387,3.346456692913E-2,2.563534553745E-2);
#389=TRIMMED_CURVE('',#388,(PARAMETER_VALUE(0.E0)),(PARAMETER_VALUE(
9.000000151543E1)),.T.,.UNSPECIFIED.);
#394=EDGE_CURVE('',#294,#296,#289,.T.);
#396=EDGE_CURVE('',#296,#311,#104,.T.);
#401=ADVANCED_FACE('',(#400),#392,.T.);
#408=EDGE_CURVE('',#303,#301,#126,.T.);
#410=EDGE_CURVE('',#322,#303,#133,.T.);
#412=EDGE_CURVE('',#322,#318,#217,.T.);
#414=EDGE_CURVE('',#310,#318,#140,.T.);
#416=EDGE_CURVE('',#308,#310,#148,.T.);
#418=EDGE_CURVE('',#297,#308,#155,.T.);
#423=ADVANCED_FACE('',(#422),#406,.F.);
#430=EDGE_CURVE('',#303,#304,#175,.T.);
#436=ADVANCED_FACE('',(#435),#428,.T.);
#443=EDGE_CURVE('',#322,#323,#196,.T.);
#449=ADVANCED_FACE('',(#448),#441,.T.);
#456=EDGE_CURVE('',#318,#319,#210,.T.);
#462=ADVANCED_FACE('',(#461),#454,.T.);
#469=EDGE_CURVE('',#315,#310,#251,.T.);
#475=ADVANCED_FACE('',(#474),#467,.T.);
#482=EDGE_CURVE('',#308,#313,#244,.T.);
#488=ADVANCED_FACE('',(#487),#480,.F.);
#496=EDGE_CURVE('',#293,#296,#265,.T.);
#503=ADVANCED_FACE('',(#502),#493,.T.);
#514=ADVANCED_FACE('',(#513),#508,.T.);
#515=CLOSED_SHELL('',(#341,#364,#383,#401,#423,#436,#449,#462,#475,#488,#503,
#514));
#516=MANIFOLD_SOLID_BREP('',#515);
#524=(LENGTH_UNIT()NAMED_UNIT(*)SI_UNIT(.MILLI.,.METRE.));
#527=(NAMED_UNIT(*)PLANE_ANGLE_UNIT()SI_UNIT($,.RADIAN.));
#530=(NAMED_UNIT(*)SI_UNIT($,.STERADIAN.)SOLID_ANGLE_UNIT());
#532=(GEOMETRIC_REPRESENTATION_CONTEXT(3)GLOBAL_UNCERTAINTY_ASSIGNED_CONTEXT((
#531))GLOBAL_UNIT_ASSIGNED_CONTEXT((#526,#529,#530))REPRESENTATION_CONTEXT
('ID1','3'));
#536=AXIS2_PLACEMENT_3D('',#533,#534,#535);
#537=ADVANCED_BREP_SHAPE_REPRESENTATION('',(#536,#516),#532);
#545=PRODUCT_DEFINITION('design','',#544,#541);
#546=PRODUCT_DEFINITION_SHAPE('','SHAPE FOR MIRROR23200.',#545);
#547=SHAPE_ASPECT('','solid data associated with MIRROR23200',#546,.F.);
#548=PROPERTY_DEFINITION('',
'shape for solid data with which properties are associated',#547);
#549=SHAPE_REPRESENTATION('',(#516),#532);
#550=SHAPE_DEFINITION_REPRESENTATION(#548,#549);
#551=(LENGTH_UNIT()NAMED_UNIT(*)SI_UNIT(.MILLI.,.METRE.));
#557=PROPERTY_DEFINITION('geometric validation property','area of MIRROR23200',
#547);
#558=REPRESENTATION('surface area',(#556),#532);
#559=PROPERTY_DEFINITION_REPRESENTATION(#557,#558);
#560=(LENGTH_UNIT()NAMED_UNIT(*)SI_UNIT(.MILLI.,.METRE.));
#566=PROPERTY_DEFINITION('geometric validation property',
'volume of MIRROR23200',#547);
#567=REPRESENTATION('volume',(#565),#532);
#568=PROPERTY_DEFINITION_REPRESENTATION(#566,#567);
#570=PROPERTY_DEFINITION('geometric validation property',
'centroid of MIRROR23200',#547);
#571=REPRESENTATION('centroid',(#569),#532);
#572=PROPERTY_DEFINITION_REPRESENTATION(#570,#571);
#573=(LENGTH_UNIT()NAMED_UNIT(*)SI_UNIT(.MILLI.,.METRE.));
#579=PROPERTY_DEFINITION('geometric validation property','area of MIRROR23200',
#546);
#580=REPRESENTATION('surface area',(#578),#532);
#581=PROPERTY_DEFINITION_REPRESENTATION(#579,#580);
#582=(LENGTH_UNIT()NAMED_UNIT(*)SI_UNIT(.MILLI.,.METRE.));
#588=PROPERTY_DEFINITION('geometric validation property',
'volume of MIRROR23200',#546);
#589=REPRESENTATION('volume',(#587),#532);
#590=PROPERTY_DEFINITION_REPRESENTATION(#588,#589);
#592=PROPERTY_DEFINITION('geometric validation property',
'centroid of MIRROR23200',#546);
#593=REPRESENTATION('centroid',(#591),#532);
#594=PROPERTY_DEFINITION_REPRESENTATION(#592,#593);
#595=SHAPE_DEFINITION_REPRESENTATION(#546,#537);
ENDSEC;
END-ISO-10303-21;
