ISO-10303-21;
HEADER;
FILE_DESCRIPTION((''),'2;1');
FILE_NAME('MOTOR_MOUNT-200','2026-06-15T13:45:39',('Esia'),(''),
'CREO PARAMETRIC BY PTC INC, 2025102','CREO PARAMETRIC BY PTC INC, 2025102','');
FILE_SCHEMA((
'AP242_MANAGED_MODEL_BASED_3D_ENGINEERING_MIM_LF { 1 0 10303 442 1 1 4 }'));
ENDSEC;
DATA;
#19=CARTESIAN_POINT('',(0.E0,0.E0,-3.897637795276E-1));
#20=DIRECTION('',(0.E0,0.E0,1.E0));
#21=DIRECTION('',(-1.E0,0.E0,0.E0));
#22=AXIS2_PLACEMENT_3D('',#19,#20,#21);
#24=DRAUGHTING_PRE_DEFINED_CURVE_FONT('continuous');
#25=CURVE_STYLE('',#24,POSITIVE_LENGTH_MEASURE(2.E-2),#1);
#26=PRESENTATION_STYLE_ASSIGNMENT((#25));
#27=STYLED_ITEM('',(#26),#23);
#28=CARTESIAN_POINT('',(0.E0,0.E0,-3.897637795276E-1));
#29=DIRECTION('',(0.E0,0.E0,1.E0));
#30=DIRECTION('',(-9.637888196534E-1,2.666666666667E-1,0.E0));
#31=AXIS2_PLACEMENT_3D('',#28,#29,#30);
#33=CURVE_STYLE('',#24,POSITIVE_LENGTH_MEASURE(2.E-2),#1);
#34=PRESENTATION_STYLE_ASSIGNMENT((#33));
#35=STYLED_ITEM('',(#34),#32);
#36=DIRECTION('',(-5.108070528032E-1,-1.413330506675E-1,-8.479983040051E-1));
#37=VECTOR('',#36,3.714165800022E-2);
#38=CARTESIAN_POINT('',(-9.486110429659E-2,-2.624671916011E-2,
-3.582677165354E-1));
#39=LINE('',#38,#37);
#40=CURVE_STYLE('',#24,POSITIVE_LENGTH_MEASURE(2.E-2),#1);
#41=PRESENTATION_STYLE_ASSIGNMENT((#40));
#42=STYLED_ITEM('',(#41),#39);
#43=DIRECTION('',(0.E0,0.E0,1.E0));
#44=VECTOR('',#43,3.937007874016E-2);
#45=CARTESIAN_POINT('',(-9.486110429659E-2,2.624671916010E-2,
-3.976377952756E-1));
#46=LINE('',#45,#44);
#47=CURVE_STYLE('',#24,POSITIVE_LENGTH_MEASURE(2.E-2),#1);
#48=PRESENTATION_STYLE_ASSIGNMENT((#47));
#49=STYLED_ITEM('',(#48),#46);
#50=DIRECTION('',(0.E0,0.E0,-1.E0));
#51=VECTOR('',#50,3.937007874016E-2);
#52=CARTESIAN_POINT('',(-9.486110429659E-2,-2.624671916011E-2,
-3.582677165354E-1));
#53=LINE('',#52,#51);
#54=CURVE_STYLE('',#24,POSITIVE_LENGTH_MEASURE(2.E-2),#1);
#55=PRESENTATION_STYLE_ASSIGNMENT((#54));
#56=STYLED_ITEM('',(#55),#53);
#57=DIRECTION('',(0.E0,0.E0,1.E0));
#58=VECTOR('',#57,6.299212598425E-2);
#59=CARTESIAN_POINT('',(-8.523872084493E-2,-4.921259842520E-2,
-4.212598425197E-1));
#60=LINE('',#59,#58);
#61=CURVE_STYLE('',#24,POSITIVE_LENGTH_MEASURE(2.E-2),#1);
#62=PRESENTATION_STYLE_ASSIGNMENT((#61));
#63=STYLED_ITEM('',(#62),#60);
#64=DIRECTION('',(0.E0,0.E0,-1.E0));
#65=VECTOR('',#64,6.299212598425E-2);
#66=CARTESIAN_POINT('',(-8.523872084493E-2,4.921259842520E-2,
-3.582677165354E-1));
#67=LINE('',#66,#65);
#68=CURVE_STYLE('',#24,POSITIVE_LENGTH_MEASURE(2.E-2),#1);
#69=PRESENTATION_STYLE_ASSIGNMENT((#68));
#70=STYLED_ITEM('',(#69),#67);
#71=DIRECTION('',(5.108070528032E-1,-1.413330506675E-1,8.479983040051E-1));
#72=VECTOR('',#71,3.714165800022E-2);
#73=CARTESIAN_POINT('',(-1.138333251559E-1,3.149606299213E-2,
-3.897637795276E-1));
#74=LINE('',#73,#72);
#75=CURVE_STYLE('',#24,POSITIVE_LENGTH_MEASURE(2.E-2),#1);
#76=PRESENTATION_STYLE_ASSIGNMENT((#75));
#77=STYLED_ITEM('',(#76),#74);
#78=DIRECTION('',(0.E0,0.E0,1.E0));
#79=VECTOR('',#78,7.874015748032E-3);
#80=CARTESIAN_POINT('',(-1.138333251559E-1,-3.149606299213E-2,
-3.976377952756E-1));
#81=LINE('',#80,#79);
#82=CURVE_STYLE('',#24,POSITIVE_LENGTH_MEASURE(2.E-2),#1);
#83=PRESENTATION_STYLE_ASSIGNMENT((#82));
#84=STYLED_ITEM('',(#83),#81);
#85=DIRECTION('',(0.E0,0.E0,-1.E0));
#86=VECTOR('',#85,7.874015748032E-3);
#87=CARTESIAN_POINT('',(-1.138333251559E-1,3.149606299213E-2,
-3.897637795276E-1));
#88=LINE('',#87,#86);
#89=CURVE_STYLE('',#24,POSITIVE_LENGTH_MEASURE(2.E-2),#1);
#90=PRESENTATION_STYLE_ASSIGNMENT((#89));
#91=STYLED_ITEM('',(#90),#88);
#92=DIRECTION('',(-9.637888196534E-1,-2.666666666667E-1,0.E0));
#93=VECTOR('',#92,1.968503937008E-2);
#94=CARTESIAN_POINT('',(-9.486110429659E-2,-2.624671916010E-2,
-3.976377952756E-1));
#95=LINE('',#94,#93);
#96=CURVE_STYLE('',#24,POSITIVE_LENGTH_MEASURE(2.E-2),#1);
#97=PRESENTATION_STYLE_ASSIGNMENT((#96));
#98=STYLED_ITEM('',(#97),#95);
#99=CARTESIAN_POINT('',(0.E0,0.E0,-3.976377952756E-1));
#100=DIRECTION('',(0.E0,0.E0,1.E0));
#101=DIRECTION('',(-1.E0,0.E0,0.E0));
#102=AXIS2_PLACEMENT_3D('',#99,#100,#101);
#104=CURVE_STYLE('',#24,POSITIVE_LENGTH_MEASURE(2.E-2),#1);
#105=PRESENTATION_STYLE_ASSIGNMENT((#104));
#106=STYLED_ITEM('',(#105),#103);
#107=CARTESIAN_POINT('',(0.E0,0.E0,-3.976377952756E-1));
#108=DIRECTION('',(0.E0,0.E0,1.E0));
#109=DIRECTION('',(-9.637888196534E-1,2.666666666667E-1,0.E0));
#110=AXIS2_PLACEMENT_3D('',#107,#108,#109);
#112=CURVE_STYLE('',#24,POSITIVE_LENGTH_MEASURE(2.E-2),#1);
#113=PRESENTATION_STYLE_ASSIGNMENT((#112));
#114=STYLED_ITEM('',(#113),#111);
#115=DIRECTION('',(9.637888196534E-1,-2.666666666667E-1,0.E0));
#116=VECTOR('',#115,1.968503937008E-2);
#117=CARTESIAN_POINT('',(-1.138333251559E-1,3.149606299213E-2,
-3.976377952756E-1));
#118=LINE('',#117,#116);
#119=CURVE_STYLE('',#24,POSITIVE_LENGTH_MEASURE(2.E-2),#1);
#120=PRESENTATION_STYLE_ASSIGNMENT((#119));
#121=STYLED_ITEM('',(#120),#118);
#122=CARTESIAN_POINT('',(0.E0,0.E0,-3.976377952756E-1));
#123=DIRECTION('',(0.E0,0.E0,-1.E0));
#124=DIRECTION('',(-1.E0,0.E0,0.E0));
#125=AXIS2_PLACEMENT_3D('',#122,#123,#124);
#127=CURVE_STYLE('',#24,POSITIVE_LENGTH_MEASURE(2.E-2),#1);
#128=PRESENTATION_STYLE_ASSIGNMENT((#127));
#129=STYLED_ITEM('',(#128),#126);
#130=CARTESIAN_POINT('',(0.E0,0.E0,-3.976377952756E-1));
#131=DIRECTION('',(0.E0,0.E0,-1.E0));
#132=DIRECTION('',(-9.637888196534E-1,-2.666666666667E-1,0.E0));
#133=AXIS2_PLACEMENT_3D('',#130,#131,#132);
#135=CURVE_STYLE('',#24,POSITIVE_LENGTH_MEASURE(2.E-2),#1);
#136=PRESENTATION_STYLE_ASSIGNMENT((#135));
#137=STYLED_ITEM('',(#136),#134);
#138=CARTESIAN_POINT('',(0.E0,0.E0,-3.582677165354E-1));
#139=DIRECTION('',(0.E0,0.E0,1.E0));
#140=DIRECTION('',(-9.637888196534E-1,2.666666666667E-1,0.E0));
#141=AXIS2_PLACEMENT_3D('',#138,#139,#140);
#143=CURVE_STYLE('',#24,POSITIVE_LENGTH_MEASURE(2.E-2),#1);
#144=PRESENTATION_STYLE_ASSIGNMENT((#143));
#145=STYLED_ITEM('',(#144),#142);
#146=CARTESIAN_POINT('',(0.E0,0.E0,-3.582677165354E-1));
#147=DIRECTION('',(0.E0,0.E0,1.E0));
#148=DIRECTION('',(-8.660254037844E-1,5.E-1,0.E0));
#149=AXIS2_PLACEMENT_3D('',#146,#147,#148);
#151=CURVE_STYLE('',#24,POSITIVE_LENGTH_MEASURE(2.E-2),#1);
#152=PRESENTATION_STYLE_ASSIGNMENT((#151));
#153=STYLED_ITEM('',(#152),#150);
#154=DIRECTION('',(8.660254037844E-1,-5.E-1,0.E0));
#155=VECTOR('',#154,1.968503937008E-2);
#156=CARTESIAN_POINT('',(-1.022864650139E-1,5.905511811024E-2,
-3.582677165354E-1));
#157=LINE('',#156,#155);
#158=CURVE_STYLE('',#24,POSITIVE_LENGTH_MEASURE(2.E-2),#1);
#159=PRESENTATION_STYLE_ASSIGNMENT((#158));
#160=STYLED_ITEM('',(#159),#157);
#161=CARTESIAN_POINT('',(0.E0,0.E0,-3.582677165354E-1));
#162=DIRECTION('',(0.E0,0.E0,1.E0));
#163=DIRECTION('',(-5.E-1,8.660254037844E-1,0.E0));
#164=AXIS2_PLACEMENT_3D('',#161,#162,#163);
#166=CURVE_STYLE('',#24,POSITIVE_LENGTH_MEASURE(2.E-2),#1);
#167=PRESENTATION_STYLE_ASSIGNMENT((#166));
#168=STYLED_ITEM('',(#167),#165);
#169=DIRECTION('',(-5.E-1,8.660254037844E-1,0.E0));
#170=VECTOR('',#169,1.968503937008E-2);
#171=CARTESIAN_POINT('',(-4.921259842520E-2,8.523872084493E-2,
-3.582677165354E-1));
#172=LINE('',#171,#170);
#173=CURVE_STYLE('',#24,POSITIVE_LENGTH_MEASURE(2.E-2),#1);
#174=PRESENTATION_STYLE_ASSIGNMENT((#173));
#175=STYLED_ITEM('',(#174),#172);
#176=CARTESIAN_POINT('',(0.E0,0.E0,-3.582677165354E-1));
#177=DIRECTION('',(0.E0,0.E0,1.E0));
#178=DIRECTION('',(-2.666666666667E-1,9.637888196534E-1,0.E0));
#179=AXIS2_PLACEMENT_3D('',#176,#177,#178);
#181=CURVE_STYLE('',#24,POSITIVE_LENGTH_MEASURE(2.E-2),#1);
#182=PRESENTATION_STYLE_ASSIGNMENT((#181));
#183=STYLED_ITEM('',(#182),#180);
#184=CARTESIAN_POINT('',(0.E0,0.E0,-3.582677165354E-1));
#185=DIRECTION('',(0.E0,0.E0,1.E0));
#186=DIRECTION('',(2.666666666667E-1,9.637888196534E-1,0.E0));
#187=AXIS2_PLACEMENT_3D('',#184,#185,#186);
#189=CURVE_STYLE('',#24,POSITIVE_LENGTH_MEASURE(2.E-2),#1);
#190=PRESENTATION_STYLE_ASSIGNMENT((#189));
#191=STYLED_ITEM('',(#190),#188);
#192=CARTESIAN_POINT('',(0.E0,0.E0,-3.582677165354E-1));
#193=DIRECTION('',(0.E0,0.E0,1.E0));
#194=DIRECTION('',(5.E-1,8.660254037844E-1,0.E0));
#195=AXIS2_PLACEMENT_3D('',#192,#193,#194);
#197=CURVE_STYLE('',#24,POSITIVE_LENGTH_MEASURE(2.E-2),#1);
#198=PRESENTATION_STYLE_ASSIGNMENT((#197));
#199=STYLED_ITEM('',(#198),#196);
#200=DIRECTION('',(-5.E-1,-8.660254037844E-1,0.E0));
#201=VECTOR('',#200,1.968503937008E-2);
#202=CARTESIAN_POINT('',(5.905511811024E-2,1.022864650139E-1,
-3.582677165354E-1));
#203=LINE('',#202,#201);
#204=CURVE_STYLE('',#24,POSITIVE_LENGTH_MEASURE(2.E-2),#1);
#205=PRESENTATION_STYLE_ASSIGNMENT((#204));
#206=STYLED_ITEM('',(#205),#203);
#207=CARTESIAN_POINT('',(0.E0,0.E0,-3.582677165354E-1));
#208=DIRECTION('',(0.E0,0.E0,1.E0));
#209=DIRECTION('',(8.660254037844E-1,5.E-1,0.E0));
#210=AXIS2_PLACEMENT_3D('',#207,#208,#209);
#212=CURVE_STYLE('',#24,POSITIVE_LENGTH_MEASURE(2.E-2),#1);
#213=PRESENTATION_STYLE_ASSIGNMENT((#212));
#214=STYLED_ITEM('',(#213),#211);
#215=DIRECTION('',(8.660254037844E-1,5.E-1,0.E0));
#216=VECTOR('',#215,1.968503937008E-2);
#217=CARTESIAN_POINT('',(8.523872084493E-2,4.921259842520E-2,
-3.582677165354E-1));
#218=LINE('',#217,#216);
#219=CURVE_STYLE('',#24,POSITIVE_LENGTH_MEASURE(2.E-2),#1);
#220=PRESENTATION_STYLE_ASSIGNMENT((#219));
#221=STYLED_ITEM('',(#220),#218);
#222=CARTESIAN_POINT('',(0.E0,0.E0,-3.582677165354E-1));
#223=DIRECTION('',(0.E0,0.E0,1.E0));
#224=DIRECTION('',(9.637888196534E-1,2.666666666667E-1,0.E0));
#225=AXIS2_PLACEMENT_3D('',#222,#223,#224);
#227=CURVE_STYLE('',#24,POSITIVE_LENGTH_MEASURE(2.E-2),#1);
#228=PRESENTATION_STYLE_ASSIGNMENT((#227));
#229=STYLED_ITEM('',(#228),#226);
#230=CARTESIAN_POINT('',(0.E0,0.E0,-3.582677165354E-1));
#231=DIRECTION('',(0.E0,0.E0,1.E0));
#232=DIRECTION('',(9.637888196534E-1,-2.666666666667E-1,0.E0));
#233=AXIS2_PLACEMENT_3D('',#230,#231,#232);
#235=CURVE_STYLE('',#24,POSITIVE_LENGTH_MEASURE(2.E-2),#1);
#236=PRESENTATION_STYLE_ASSIGNMENT((#235));
#237=STYLED_ITEM('',(#236),#234);
#238=CARTESIAN_POINT('',(0.E0,0.E0,-3.582677165354E-1));
#239=DIRECTION('',(0.E0,0.E0,1.E0));
#240=DIRECTION('',(8.660254037844E-1,-5.E-1,0.E0));
#241=AXIS2_PLACEMENT_3D('',#238,#239,#240);
#243=CURVE_STYLE('',#24,POSITIVE_LENGTH_MEASURE(2.E-2),#1);
#244=PRESENTATION_STYLE_ASSIGNMENT((#243));
#245=STYLED_ITEM('',(#244),#242);
#246=DIRECTION('',(-8.660254037844E-1,5.E-1,0.E0));
#247=VECTOR('',#246,1.968503937008E-2);
#248=CARTESIAN_POINT('',(1.022864650139E-1,-5.905511811024E-2,
-3.582677165354E-1));
#249=LINE('',#248,#247);
#250=CURVE_STYLE('',#24,POSITIVE_LENGTH_MEASURE(2.E-2),#1);
#251=PRESENTATION_STYLE_ASSIGNMENT((#250));
#252=STYLED_ITEM('',(#251),#249);
#253=CARTESIAN_POINT('',(0.E0,0.E0,-3.582677165354E-1));
#254=DIRECTION('',(0.E0,0.E0,1.E0));
#255=DIRECTION('',(5.E-1,-8.660254037844E-1,0.E0));
#256=AXIS2_PLACEMENT_3D('',#253,#254,#255);
#258=CURVE_STYLE('',#24,POSITIVE_LENGTH_MEASURE(2.E-2),#1);
#259=PRESENTATION_STYLE_ASSIGNMENT((#258));
#260=STYLED_ITEM('',(#259),#257);
#261=DIRECTION('',(5.E-1,-8.660254037844E-1,0.E0));
#262=VECTOR('',#261,1.968503937008E-2);
#263=CARTESIAN_POINT('',(4.921259842520E-2,-8.523872084493E-2,
-3.582677165354E-1));
#264=LINE('',#263,#262);
#265=CURVE_STYLE('',#24,POSITIVE_LENGTH_MEASURE(2.E-2),#1);
#266=PRESENTATION_STYLE_ASSIGNMENT((#265));
#267=STYLED_ITEM('',(#266),#264);
#268=CARTESIAN_POINT('',(0.E0,0.E0,-3.582677165354E-1));
#269=DIRECTION('',(0.E0,0.E0,1.E0));
#270=DIRECTION('',(2.666666666667E-1,-9.637888196534E-1,0.E0));
#271=AXIS2_PLACEMENT_3D('',#268,#269,#270);
#273=CURVE_STYLE('',#24,POSITIVE_LENGTH_MEASURE(2.E-2),#1);
#274=PRESENTATION_STYLE_ASSIGNMENT((#273));
#275=STYLED_ITEM('',(#274),#272);
#276=CARTESIAN_POINT('',(0.E0,0.E0,-3.582677165354E-1));
#277=DIRECTION('',(0.E0,0.E0,1.E0));
#278=DIRECTION('',(-2.666666666667E-1,-9.637888196534E-1,0.E0));
#279=AXIS2_PLACEMENT_3D('',#276,#277,#278);
#281=CURVE_STYLE('',#24,POSITIVE_LENGTH_MEASURE(2.E-2),#1);
#282=PRESENTATION_STYLE_ASSIGNMENT((#281));
#283=STYLED_ITEM('',(#282),#280);
#284=CARTESIAN_POINT('',(0.E0,0.E0,-3.582677165354E-1));
#285=DIRECTION('',(0.E0,0.E0,1.E0));
#286=DIRECTION('',(-5.E-1,-8.660254037844E-1,0.E0));
#287=AXIS2_PLACEMENT_3D('',#284,#285,#286);
#289=CURVE_STYLE('',#24,POSITIVE_LENGTH_MEASURE(2.E-2),#1);
#290=PRESENTATION_STYLE_ASSIGNMENT((#289));
#291=STYLED_ITEM('',(#290),#288);
#292=DIRECTION('',(5.E-1,8.660254037844E-1,0.E0));
#293=VECTOR('',#292,1.968503937008E-2);
#294=CARTESIAN_POINT('',(-5.905511811024E-2,-1.022864650139E-1,
-3.582677165354E-1));
#295=LINE('',#294,#293);
#296=CURVE_STYLE('',#24,POSITIVE_LENGTH_MEASURE(2.E-2),#1);
#297=PRESENTATION_STYLE_ASSIGNMENT((#296));
#298=STYLED_ITEM('',(#297),#295);
#299=CARTESIAN_POINT('',(0.E0,0.E0,-3.582677165354E-1));
#300=DIRECTION('',(0.E0,0.E0,1.E0));
#301=DIRECTION('',(-8.660254037844E-1,-5.E-1,0.E0));
#302=AXIS2_PLACEMENT_3D('',#299,#300,#301);
#304=CURVE_STYLE('',#24,POSITIVE_LENGTH_MEASURE(2.E-2),#1);
#305=PRESENTATION_STYLE_ASSIGNMENT((#304));
#306=STYLED_ITEM('',(#305),#303);
#307=DIRECTION('',(-8.660254037844E-1,-5.E-1,0.E0));
#308=VECTOR('',#307,1.968503937008E-2);
#309=CARTESIAN_POINT('',(-8.523872084493E-2,-4.921259842520E-2,
-3.582677165354E-1));
#310=LINE('',#309,#308);
#311=CURVE_STYLE('',#24,POSITIVE_LENGTH_MEASURE(2.E-2),#1);
#312=PRESENTATION_STYLE_ASSIGNMENT((#311));
#313=STYLED_ITEM('',(#312),#310);
#314=CARTESIAN_POINT('',(0.E0,0.E0,-3.582677165354E-1));
#315=DIRECTION('',(0.E0,0.E0,1.E0));
#316=DIRECTION('',(-9.637888196534E-1,-2.666666666667E-1,0.E0));
#317=AXIS2_PLACEMENT_3D('',#314,#315,#316);
#319=CURVE_STYLE('',#24,POSITIVE_LENGTH_MEASURE(2.E-2),#1);
#320=PRESENTATION_STYLE_ASSIGNMENT((#319));
#321=STYLED_ITEM('',(#320),#318);
#322=DIRECTION('',(8.660254037844E-1,5.E-1,0.E0));
#323=VECTOR('',#322,1.968503937008E-2);
#324=CARTESIAN_POINT('',(-1.022864650139E-1,-5.905511811024E-2,
-4.212598425197E-1));
#325=LINE('',#324,#323);
#326=CURVE_STYLE('',#24,POSITIVE_LENGTH_MEASURE(2.E-2),#1);
#327=PRESENTATION_STYLE_ASSIGNMENT((#326));
#328=STYLED_ITEM('',(#327),#325);
#329=CARTESIAN_POINT('',(0.E0,0.E0,-4.212598425197E-1));
#330=DIRECTION('',(0.E0,0.E0,-1.E0));
#331=DIRECTION('',(-5.E-1,-8.660254037844E-1,0.E0));
#332=AXIS2_PLACEMENT_3D('',#329,#330,#331);
#334=CURVE_STYLE('',#24,POSITIVE_LENGTH_MEASURE(2.E-2),#1);
#335=PRESENTATION_STYLE_ASSIGNMENT((#334));
#336=STYLED_ITEM('',(#335),#333);
#337=DIRECTION('',(-5.E-1,-8.660254037844E-1,0.E0));
#338=VECTOR('',#337,1.968503937008E-2);
#339=CARTESIAN_POINT('',(-4.921259842520E-2,-8.523872084493E-2,
-4.212598425197E-1));
#340=LINE('',#339,#338);
#341=CURVE_STYLE('',#24,POSITIVE_LENGTH_MEASURE(2.E-2),#1);
#342=PRESENTATION_STYLE_ASSIGNMENT((#341));
#343=STYLED_ITEM('',(#342),#340);
#344=CARTESIAN_POINT('',(0.E0,0.E0,-4.212598425197E-1));
#345=DIRECTION('',(0.E0,0.E0,-1.E0));
#346=DIRECTION('',(5.E-1,-8.660254037844E-1,0.E0));
#347=AXIS2_PLACEMENT_3D('',#344,#345,#346);
#349=CURVE_STYLE('',#24,POSITIVE_LENGTH_MEASURE(2.E-2),#1);
#350=PRESENTATION_STYLE_ASSIGNMENT((#349));
#351=STYLED_ITEM('',(#350),#348);
#352=DIRECTION('',(-5.E-1,8.660254037844E-1,0.E0));
#353=VECTOR('',#352,1.968503937008E-2);
#354=CARTESIAN_POINT('',(5.905511811024E-2,-1.022864650139E-1,
-4.212598425197E-1));
#355=LINE('',#354,#353);
#356=CURVE_STYLE('',#24,POSITIVE_LENGTH_MEASURE(2.E-2),#1);
#357=PRESENTATION_STYLE_ASSIGNMENT((#356));
#358=STYLED_ITEM('',(#357),#355);
#359=CARTESIAN_POINT('',(0.E0,0.E0,-4.212598425197E-1));
#360=DIRECTION('',(0.E0,0.E0,-1.E0));
#361=DIRECTION('',(8.660254037844E-1,-5.E-1,0.E0));
#362=AXIS2_PLACEMENT_3D('',#359,#360,#361);
#364=CURVE_STYLE('',#24,POSITIVE_LENGTH_MEASURE(2.E-2),#1);
#365=PRESENTATION_STYLE_ASSIGNMENT((#364));
#366=STYLED_ITEM('',(#365),#363);
#367=DIRECTION('',(8.660254037844E-1,-5.E-1,0.E0));
#368=VECTOR('',#367,1.968503937008E-2);
#369=CARTESIAN_POINT('',(8.523872084493E-2,-4.921259842520E-2,
-4.212598425197E-1));
#370=LINE('',#369,#368);
#371=CURVE_STYLE('',#24,POSITIVE_LENGTH_MEASURE(2.E-2),#1);
#372=PRESENTATION_STYLE_ASSIGNMENT((#371));
#373=STYLED_ITEM('',(#372),#370);
#374=CARTESIAN_POINT('',(0.E0,0.E0,-4.212598425197E-1));
#375=DIRECTION('',(0.E0,0.E0,-1.E0));
#376=DIRECTION('',(8.660254037844E-1,5.E-1,0.E0));
#377=AXIS2_PLACEMENT_3D('',#374,#375,#376);
#379=CURVE_STYLE('',#24,POSITIVE_LENGTH_MEASURE(2.E-2),#1);
#380=PRESENTATION_STYLE_ASSIGNMENT((#379));
#381=STYLED_ITEM('',(#380),#378);
#382=DIRECTION('',(-8.660254037844E-1,-5.E-1,0.E0));
#383=VECTOR('',#382,1.968503937008E-2);
#384=CARTESIAN_POINT('',(1.022864650139E-1,5.905511811024E-2,
-4.212598425197E-1));
#385=LINE('',#384,#383);
#386=CURVE_STYLE('',#24,POSITIVE_LENGTH_MEASURE(2.E-2),#1);
#387=PRESENTATION_STYLE_ASSIGNMENT((#386));
#388=STYLED_ITEM('',(#387),#385);
#389=CARTESIAN_POINT('',(0.E0,0.E0,-4.212598425197E-1));
#390=DIRECTION('',(0.E0,0.E0,-1.E0));
#391=DIRECTION('',(5.E-1,8.660254037844E-1,0.E0));
#392=AXIS2_PLACEMENT_3D('',#389,#390,#391);
#394=CURVE_STYLE('',#24,POSITIVE_LENGTH_MEASURE(2.E-2),#1);
#395=PRESENTATION_STYLE_ASSIGNMENT((#394));
#396=STYLED_ITEM('',(#395),#393);
#397=DIRECTION('',(5.E-1,8.660254037844E-1,0.E0));
#398=VECTOR('',#397,1.968503937008E-2);
#399=CARTESIAN_POINT('',(4.921259842520E-2,8.523872084493E-2,
-4.212598425197E-1));
#400=LINE('',#399,#398);
#401=CURVE_STYLE('',#24,POSITIVE_LENGTH_MEASURE(2.E-2),#1);
#402=PRESENTATION_STYLE_ASSIGNMENT((#401));
#403=STYLED_ITEM('',(#402),#400);
#404=CARTESIAN_POINT('',(0.E0,0.E0,-4.212598425197E-1));
#405=DIRECTION('',(0.E0,0.E0,-1.E0));
#406=DIRECTION('',(-5.E-1,8.660254037844E-1,0.E0));
#407=AXIS2_PLACEMENT_3D('',#404,#405,#406);
#409=CURVE_STYLE('',#24,POSITIVE_LENGTH_MEASURE(2.E-2),#1);
#410=PRESENTATION_STYLE_ASSIGNMENT((#409));
#411=STYLED_ITEM('',(#410),#408);
#412=DIRECTION('',(5.E-1,-8.660254037844E-1,0.E0));
#413=VECTOR('',#412,1.968503937008E-2);
#414=CARTESIAN_POINT('',(-5.905511811024E-2,1.022864650139E-1,
-4.212598425197E-1));
#415=LINE('',#414,#413);
#416=CURVE_STYLE('',#24,POSITIVE_LENGTH_MEASURE(2.E-2),#1);
#417=PRESENTATION_STYLE_ASSIGNMENT((#416));
#418=STYLED_ITEM('',(#417),#415);
#419=CARTESIAN_POINT('',(0.E0,0.E0,-4.212598425197E-1));
#420=DIRECTION('',(0.E0,0.E0,-1.E0));
#421=DIRECTION('',(-8.660254037844E-1,5.E-1,0.E0));
#422=AXIS2_PLACEMENT_3D('',#419,#420,#421);
#424=CURVE_STYLE('',#24,POSITIVE_LENGTH_MEASURE(2.E-2),#1);
#425=PRESENTATION_STYLE_ASSIGNMENT((#424));
#426=STYLED_ITEM('',(#425),#423);
#427=DIRECTION('',(-8.660254037844E-1,5.E-1,0.E0));
#428=VECTOR('',#427,1.968503937008E-2);
#429=CARTESIAN_POINT('',(-8.523872084493E-2,4.921259842520E-2,
-4.212598425197E-1));
#430=LINE('',#429,#428);
#431=CURVE_STYLE('',#24,POSITIVE_LENGTH_MEASURE(2.E-2),#1);
#432=PRESENTATION_STYLE_ASSIGNMENT((#431));
#433=STYLED_ITEM('',(#432),#430);
#434=CARTESIAN_POINT('',(0.E0,0.E0,-4.212598425197E-1));
#435=DIRECTION('',(0.E0,0.E0,-1.E0));
#436=DIRECTION('',(-1.E0,0.E0,0.E0));
#437=AXIS2_PLACEMENT_3D('',#434,#435,#436);
#439=CURVE_STYLE('',#24,POSITIVE_LENGTH_MEASURE(2.E-2),#1);
#440=PRESENTATION_STYLE_ASSIGNMENT((#439));
#441=STYLED_ITEM('',(#440),#438);
#442=CARTESIAN_POINT('',(0.E0,0.E0,-4.212598425197E-1));
#443=DIRECTION('',(0.E0,0.E0,-1.E0));
#444=DIRECTION('',(-8.660254037844E-1,-5.E-1,0.E0));
#445=AXIS2_PLACEMENT_3D('',#442,#443,#444);
#447=CURVE_STYLE('',#24,POSITIVE_LENGTH_MEASURE(2.E-2),#1);
#448=PRESENTATION_STYLE_ASSIGNMENT((#447));
#449=STYLED_ITEM('',(#448),#446);
#450=DIRECTION('',(0.E0,0.E0,-1.E0));
#451=VECTOR('',#450,6.299212598425E-2);
#452=CARTESIAN_POINT('',(-1.022864650139E-1,-5.905511811024E-2,
-3.582677165354E-1));
#453=LINE('',#452,#451);
#454=CURVE_STYLE('',#24,POSITIVE_LENGTH_MEASURE(2.E-2),#1);
#455=PRESENTATION_STYLE_ASSIGNMENT((#454));
#456=STYLED_ITEM('',(#455),#453);
#457=DIRECTION('',(0.E0,0.E0,1.E0));
#458=VECTOR('',#457,6.299212598425E-2);
#459=CARTESIAN_POINT('',(-5.905511811024E-2,-1.022864650139E-1,
-4.212598425197E-1));
#460=LINE('',#459,#458);
#461=CURVE_STYLE('',#24,POSITIVE_LENGTH_MEASURE(2.E-2),#1);
#462=PRESENTATION_STYLE_ASSIGNMENT((#461));
#463=STYLED_ITEM('',(#462),#460);
#464=DIRECTION('',(0.E0,0.E0,1.E0));
#465=VECTOR('',#464,3.937007874016E-2);
#466=CARTESIAN_POINT('',(-2.624671916011E-2,-9.486110429659E-2,
-3.976377952756E-1));
#467=LINE('',#466,#465);
#468=CURVE_STYLE('',#24,POSITIVE_LENGTH_MEASURE(2.E-2),#1);
#469=PRESENTATION_STYLE_ASSIGNMENT((#468));
#470=STYLED_ITEM('',(#469),#467);
#471=DIRECTION('',(0.E0,0.E0,-1.E0));
#472=VECTOR('',#471,3.937007874016E-2);
#473=CARTESIAN_POINT('',(2.624671916011E-2,-9.486110429659E-2,
-3.582677165354E-1));
#474=LINE('',#473,#472);
#475=CURVE_STYLE('',#24,POSITIVE_LENGTH_MEASURE(2.E-2),#1);
#476=PRESENTATION_STYLE_ASSIGNMENT((#475));
#477=STYLED_ITEM('',(#476),#474);
#478=DIRECTION('',(0.E0,0.E0,1.E0));
#479=VECTOR('',#478,6.299212598425E-2);
#480=CARTESIAN_POINT('',(4.921259842520E-2,-8.523872084493E-2,
-4.212598425197E-1));
#481=LINE('',#480,#479);
#482=CURVE_STYLE('',#24,POSITIVE_LENGTH_MEASURE(2.E-2),#1);
#483=PRESENTATION_STYLE_ASSIGNMENT((#482));
#484=STYLED_ITEM('',(#483),#481);
#485=DIRECTION('',(0.E0,0.E0,-1.E0));
#486=VECTOR('',#485,6.299212598425E-2);
#487=CARTESIAN_POINT('',(-4.921259842520E-2,-8.523872084493E-2,
-3.582677165354E-1));
#488=LINE('',#487,#486);
#489=CURVE_STYLE('',#24,POSITIVE_LENGTH_MEASURE(2.E-2),#1);
#490=PRESENTATION_STYLE_ASSIGNMENT((#489));
#491=STYLED_ITEM('',(#490),#488);
#492=DIRECTION('',(1.413330506675E-1,5.108070528032E-1,8.479983040051E-1));
#493=VECTOR('',#492,3.714165800022E-2);
#494=CARTESIAN_POINT('',(-3.149606299213E-2,-1.138333251559E-1,
-3.897637795276E-1));
#495=LINE('',#494,#493);
#496=CURVE_STYLE('',#24,POSITIVE_LENGTH_MEASURE(2.E-2),#1);
#497=PRESENTATION_STYLE_ASSIGNMENT((#496));
#498=STYLED_ITEM('',(#497),#495);
#499=CARTESIAN_POINT('',(0.E0,0.E0,-3.897637795276E-1));
#500=DIRECTION('',(0.E0,0.E0,1.E0));
#501=DIRECTION('',(-2.666666666667E-1,-9.637888196534E-1,0.E0));
#502=AXIS2_PLACEMENT_3D('',#499,#500,#501);
#504=CURVE_STYLE('',#24,POSITIVE_LENGTH_MEASURE(2.E-2),#1);
#505=PRESENTATION_STYLE_ASSIGNMENT((#504));
#506=STYLED_ITEM('',(#505),#503);
#507=DIRECTION('',(1.413330506675E-1,-5.108070528032E-1,-8.479983040051E-1));
#508=VECTOR('',#507,3.714165800022E-2);
#509=CARTESIAN_POINT('',(2.624671916011E-2,-9.486110429659E-2,
-3.582677165354E-1));
#510=LINE('',#509,#508);
#511=CURVE_STYLE('',#24,POSITIVE_LENGTH_MEASURE(2.E-2),#1);
#512=PRESENTATION_STYLE_ASSIGNMENT((#511));
#513=STYLED_ITEM('',(#512),#510);
#514=DIRECTION('',(2.666666666667E-1,9.637888196534E-1,0.E0));
#515=VECTOR('',#514,1.968503937008E-2);
#516=CARTESIAN_POINT('',(-3.149606299213E-2,-1.138333251559E-1,
-3.976377952756E-1));
#517=LINE('',#516,#515);
#518=CURVE_STYLE('',#24,POSITIVE_LENGTH_MEASURE(2.E-2),#1);
#519=PRESENTATION_STYLE_ASSIGNMENT((#518));
#520=STYLED_ITEM('',(#519),#517);
#521=CARTESIAN_POINT('',(0.E0,0.E0,-3.976377952756E-1));
#522=DIRECTION('',(0.E0,0.E0,-1.E0));
#523=DIRECTION('',(2.666666666667E-1,-9.637888196534E-1,0.E0));
#524=AXIS2_PLACEMENT_3D('',#521,#522,#523);
#526=CURVE_STYLE('',#24,POSITIVE_LENGTH_MEASURE(2.E-2),#1);
#527=PRESENTATION_STYLE_ASSIGNMENT((#526));
#528=STYLED_ITEM('',(#527),#525);
#529=DIRECTION('',(2.666666666667E-1,-9.637888196534E-1,0.E0));
#530=VECTOR('',#529,1.968503937008E-2);
#531=CARTESIAN_POINT('',(2.624671916010E-2,-9.486110429659E-2,
-3.976377952756E-1));
#532=LINE('',#531,#530);
#533=CURVE_STYLE('',#24,POSITIVE_LENGTH_MEASURE(2.E-2),#1);
#534=PRESENTATION_STYLE_ASSIGNMENT((#533));
#535=STYLED_ITEM('',(#534),#532);
#536=CARTESIAN_POINT('',(0.E0,0.E0,-3.976377952756E-1));
#537=DIRECTION('',(0.E0,0.E0,1.E0));
#538=DIRECTION('',(-2.666666666667E-1,-9.637888196534E-1,0.E0));
#539=AXIS2_PLACEMENT_3D('',#536,#537,#538);
#541=CURVE_STYLE('',#24,POSITIVE_LENGTH_MEASURE(2.E-2),#1);
#542=PRESENTATION_STYLE_ASSIGNMENT((#541));
#543=STYLED_ITEM('',(#542),#540);
#544=DIRECTION('',(0.E0,0.E0,1.E0));
#545=VECTOR('',#544,7.874015748032E-3);
#546=CARTESIAN_POINT('',(3.149606299213E-2,-1.138333251559E-1,
-3.976377952756E-1));
#547=LINE('',#546,#545);
#548=CURVE_STYLE('',#24,POSITIVE_LENGTH_MEASURE(2.E-2),#1);
#549=PRESENTATION_STYLE_ASSIGNMENT((#548));
#550=STYLED_ITEM('',(#549),#547);
#551=DIRECTION('',(0.E0,0.E0,-1.E0));
#552=VECTOR('',#551,7.874015748032E-3);
#553=CARTESIAN_POINT('',(-3.149606299213E-2,-1.138333251559E-1,
-3.897637795276E-1));
#554=LINE('',#553,#552);
#555=CURVE_STYLE('',#24,POSITIVE_LENGTH_MEASURE(2.E-2),#1);
#556=PRESENTATION_STYLE_ASSIGNMENT((#555));
#557=STYLED_ITEM('',(#556),#554);
#558=DIRECTION('',(0.E0,0.E0,-1.E0));
#559=VECTOR('',#558,6.299212598425E-2);
#560=CARTESIAN_POINT('',(5.905511811024E-2,-1.022864650139E-1,
-3.582677165354E-1));
#561=LINE('',#560,#559);
#562=CURVE_STYLE('',#24,POSITIVE_LENGTH_MEASURE(2.E-2),#1);
#563=PRESENTATION_STYLE_ASSIGNMENT((#562));
#564=STYLED_ITEM('',(#563),#561);
#565=DIRECTION('',(0.E0,0.E0,1.E0));
#566=VECTOR('',#565,6.299212598425E-2);
#567=CARTESIAN_POINT('',(1.022864650139E-1,-5.905511811024E-2,
-4.212598425197E-1));
#568=LINE('',#567,#566);
#569=CURVE_STYLE('',#24,POSITIVE_LENGTH_MEASURE(2.E-2),#1);
#570=PRESENTATION_STYLE_ASSIGNMENT((#569));
#571=STYLED_ITEM('',(#570),#568);
#572=DIRECTION('',(0.E0,0.E0,1.E0));
#573=VECTOR('',#572,3.937007874016E-2);
#574=CARTESIAN_POINT('',(9.486110429659E-2,-2.624671916011E-2,
-3.976377952756E-1));
#575=LINE('',#574,#573);
#576=CURVE_STYLE('',#24,POSITIVE_LENGTH_MEASURE(2.E-2),#1);
#577=PRESENTATION_STYLE_ASSIGNMENT((#576));
#578=STYLED_ITEM('',(#577),#575);
#579=DIRECTION('',(0.E0,0.E0,-1.E0));
#580=VECTOR('',#579,3.937007874016E-2);
#581=CARTESIAN_POINT('',(9.486110429659E-2,2.624671916010E-2,
-3.582677165354E-1));
#582=LINE('',#581,#580);
#583=CURVE_STYLE('',#24,POSITIVE_LENGTH_MEASURE(2.E-2),#1);
#584=PRESENTATION_STYLE_ASSIGNMENT((#583));
#585=STYLED_ITEM('',(#584),#582);
#586=DIRECTION('',(0.E0,0.E0,1.E0));
#587=VECTOR('',#586,6.299212598425E-2);
#588=CARTESIAN_POINT('',(8.523872084493E-2,4.921259842520E-2,
-4.212598425197E-1));
#589=LINE('',#588,#587);
#590=CURVE_STYLE('',#24,POSITIVE_LENGTH_MEASURE(2.E-2),#1);
#591=PRESENTATION_STYLE_ASSIGNMENT((#590));
#592=STYLED_ITEM('',(#591),#589);
#593=DIRECTION('',(0.E0,0.E0,-1.E0));
#594=VECTOR('',#593,6.299212598425E-2);
#595=CARTESIAN_POINT('',(8.523872084493E-2,-4.921259842520E-2,
-3.582677165354E-1));
#596=LINE('',#595,#594);
#597=CURVE_STYLE('',#24,POSITIVE_LENGTH_MEASURE(2.E-2),#1);
#598=PRESENTATION_STYLE_ASSIGNMENT((#597));
#599=STYLED_ITEM('',(#598),#596);
#600=DIRECTION('',(-5.108070528032E-1,1.413330506675E-1,8.479983040051E-1));
#601=VECTOR('',#600,3.714165800022E-2);
#602=CARTESIAN_POINT('',(1.138333251559E-1,-3.149606299213E-2,
-3.897637795276E-1));
#603=LINE('',#602,#601);
#604=CURVE_STYLE('',#24,POSITIVE_LENGTH_MEASURE(2.E-2),#1);
#605=PRESENTATION_STYLE_ASSIGNMENT((#604));
#606=STYLED_ITEM('',(#605),#603);
#607=CARTESIAN_POINT('',(0.E0,0.E0,-3.897637795276E-1));
#608=DIRECTION('',(0.E0,0.E0,1.E0));
#609=DIRECTION('',(1.E0,0.E0,0.E0));
#610=AXIS2_PLACEMENT_3D('',#607,#608,#609);
#612=CURVE_STYLE('',#24,POSITIVE_LENGTH_MEASURE(2.E-2),#1);
#613=PRESENTATION_STYLE_ASSIGNMENT((#612));
#614=STYLED_ITEM('',(#613),#611);
#615=CARTESIAN_POINT('',(0.E0,0.E0,-3.897637795276E-1));
#616=DIRECTION('',(0.E0,0.E0,1.E0));
#617=DIRECTION('',(9.637888196534E-1,-2.666666666667E-1,0.E0));
#618=AXIS2_PLACEMENT_3D('',#615,#616,#617);
#620=CURVE_STYLE('',#24,POSITIVE_LENGTH_MEASURE(2.E-2),#1);
#621=PRESENTATION_STYLE_ASSIGNMENT((#620));
#622=STYLED_ITEM('',(#621),#619);
#623=DIRECTION('',(5.108070528032E-1,1.413330506675E-1,-8.479983040051E-1));
#624=VECTOR('',#623,3.714165800022E-2);
#625=CARTESIAN_POINT('',(9.486110429659E-2,2.624671916010E-2,
-3.582677165354E-1));
#626=LINE('',#625,#624);
#627=CURVE_STYLE('',#24,POSITIVE_LENGTH_MEASURE(2.E-2),#1);
#628=PRESENTATION_STYLE_ASSIGNMENT((#627));
#629=STYLED_ITEM('',(#628),#626);
#630=CARTESIAN_POINT('',(0.E0,0.E0,-3.976377952756E-1));
#631=DIRECTION('',(0.E0,0.E0,-1.E0));
#632=DIRECTION('',(9.637888196534E-1,2.666666666667E-1,0.E0));
#633=AXIS2_PLACEMENT_3D('',#630,#631,#632);
#635=CURVE_STYLE('',#24,POSITIVE_LENGTH_MEASURE(2.E-2),#1);
#636=PRESENTATION_STYLE_ASSIGNMENT((#635));
#637=STYLED_ITEM('',(#636),#634);
#638=DIRECTION('',(9.637888196534E-1,2.666666666667E-1,0.E0));
#639=VECTOR('',#638,1.968503937008E-2);
#640=CARTESIAN_POINT('',(9.486110429659E-2,2.624671916010E-2,
-3.976377952756E-1));
#641=LINE('',#640,#639);
#642=CURVE_STYLE('',#24,POSITIVE_LENGTH_MEASURE(2.E-2),#1);
#643=PRESENTATION_STYLE_ASSIGNMENT((#642));
#644=STYLED_ITEM('',(#643),#641);
#645=CARTESIAN_POINT('',(0.E0,0.E0,-3.976377952756E-1));
#646=DIRECTION('',(0.E0,0.E0,1.E0));
#647=DIRECTION('',(9.637888196534E-1,-2.666666666667E-1,0.E0));
#648=AXIS2_PLACEMENT_3D('',#645,#646,#647);
#650=CURVE_STYLE('',#24,POSITIVE_LENGTH_MEASURE(2.E-2),#1);
#651=PRESENTATION_STYLE_ASSIGNMENT((#650));
#652=STYLED_ITEM('',(#651),#649);
#653=DIRECTION('',(-9.637888196534E-1,2.666666666667E-1,0.E0));
#654=VECTOR('',#653,1.968503937008E-2);
#655=CARTESIAN_POINT('',(1.138333251559E-1,-3.149606299213E-2,
-3.976377952756E-1));
#656=LINE('',#655,#654);
#657=CURVE_STYLE('',#24,POSITIVE_LENGTH_MEASURE(2.E-2),#1);
#658=PRESENTATION_STYLE_ASSIGNMENT((#657));
#659=STYLED_ITEM('',(#658),#656);
#660=DIRECTION('',(0.E0,0.E0,1.E0));
#661=VECTOR('',#660,7.874015748032E-3);
#662=CARTESIAN_POINT('',(1.138333251559E-1,3.149606299213E-2,
-3.976377952756E-1));
#663=LINE('',#662,#661);
#664=CURVE_STYLE('',#24,POSITIVE_LENGTH_MEASURE(2.E-2),#1);
#665=PRESENTATION_STYLE_ASSIGNMENT((#664));
#666=STYLED_ITEM('',(#665),#663);
#667=DIRECTION('',(0.E0,0.E0,-1.E0));
#668=VECTOR('',#667,7.874015748032E-3);
#669=CARTESIAN_POINT('',(1.138333251559E-1,-3.149606299213E-2,
-3.897637795276E-1));
#670=LINE('',#669,#668);
#671=CURVE_STYLE('',#24,POSITIVE_LENGTH_MEASURE(2.E-2),#1);
#672=PRESENTATION_STYLE_ASSIGNMENT((#671));
#673=STYLED_ITEM('',(#672),#670);
#674=DIRECTION('',(0.E0,0.E0,1.E0));
#675=VECTOR('',#674,6.299212598425E-2);
#676=CARTESIAN_POINT('',(5.905511811024E-2,1.022864650139E-1,
-4.212598425197E-1));
#677=LINE('',#676,#675);
#678=CURVE_STYLE('',#24,POSITIVE_LENGTH_MEASURE(2.E-2),#1);
#679=PRESENTATION_STYLE_ASSIGNMENT((#678));
#680=STYLED_ITEM('',(#679),#677);
#681=DIRECTION('',(0.E0,0.E0,-1.E0));
#682=VECTOR('',#681,6.299212598425E-2);
#683=CARTESIAN_POINT('',(1.022864650139E-1,5.905511811024E-2,
-3.582677165354E-1));
#684=LINE('',#683,#682);
#685=CURVE_STYLE('',#24,POSITIVE_LENGTH_MEASURE(2.E-2),#1);
#686=PRESENTATION_STYLE_ASSIGNMENT((#685));
#687=STYLED_ITEM('',(#686),#684);
#688=DIRECTION('',(0.E0,0.E0,1.E0));
#689=VECTOR('',#688,3.937007874016E-2);
#690=CARTESIAN_POINT('',(2.624671916010E-2,9.486110429659E-2,
-3.976377952756E-1));
#691=LINE('',#690,#689);
#692=CURVE_STYLE('',#24,POSITIVE_LENGTH_MEASURE(2.E-2),#1);
#693=PRESENTATION_STYLE_ASSIGNMENT((#692));
#694=STYLED_ITEM('',(#693),#691);
#695=DIRECTION('',(0.E0,0.E0,-1.E0));
#696=VECTOR('',#695,3.937007874016E-2);
#697=CARTESIAN_POINT('',(-2.624671916011E-2,9.486110429659E-2,
-3.582677165354E-1));
#698=LINE('',#697,#696);
#699=CURVE_STYLE('',#24,POSITIVE_LENGTH_MEASURE(2.E-2),#1);
#700=PRESENTATION_STYLE_ASSIGNMENT((#699));
#701=STYLED_ITEM('',(#700),#698);
#702=DIRECTION('',(0.E0,0.E0,1.E0));
#703=VECTOR('',#702,6.299212598425E-2);
#704=CARTESIAN_POINT('',(-4.921259842520E-2,8.523872084493E-2,
-4.212598425197E-1));
#705=LINE('',#704,#703);
#706=CURVE_STYLE('',#24,POSITIVE_LENGTH_MEASURE(2.E-2),#1);
#707=PRESENTATION_STYLE_ASSIGNMENT((#706));
#708=STYLED_ITEM('',(#707),#705);
#709=DIRECTION('',(0.E0,0.E0,-1.E0));
#710=VECTOR('',#709,6.299212598425E-2);
#711=CARTESIAN_POINT('',(4.921259842520E-2,8.523872084493E-2,
-3.582677165354E-1));
#712=LINE('',#711,#710);
#713=CURVE_STYLE('',#24,POSITIVE_LENGTH_MEASURE(2.E-2),#1);
#714=PRESENTATION_STYLE_ASSIGNMENT((#713));
#715=STYLED_ITEM('',(#714),#712);
#716=DIRECTION('',(-1.413330506675E-1,-5.108070528032E-1,8.479983040051E-1));
#717=VECTOR('',#716,3.714165800022E-2);
#718=CARTESIAN_POINT('',(3.149606299213E-2,1.138333251559E-1,
-3.897637795276E-1));
#719=LINE('',#718,#717);
#720=CURVE_STYLE('',#24,POSITIVE_LENGTH_MEASURE(2.E-2),#1);
#721=PRESENTATION_STYLE_ASSIGNMENT((#720));
#722=STYLED_ITEM('',(#721),#719);
#723=CARTESIAN_POINT('',(0.E0,0.E0,-3.897637795276E-1));
#724=DIRECTION('',(0.E0,0.E0,1.E0));
#725=DIRECTION('',(2.666666666667E-1,9.637888196534E-1,0.E0));
#726=AXIS2_PLACEMENT_3D('',#723,#724,#725);
#728=CURVE_STYLE('',#24,POSITIVE_LENGTH_MEASURE(2.E-2),#1);
#729=PRESENTATION_STYLE_ASSIGNMENT((#728));
#730=STYLED_ITEM('',(#729),#727);
#731=DIRECTION('',(-1.413330506675E-1,5.108070528032E-1,-8.479983040051E-1));
#732=VECTOR('',#731,3.714165800022E-2);
#733=CARTESIAN_POINT('',(-2.624671916011E-2,9.486110429659E-2,
-3.582677165354E-1));
#734=LINE('',#733,#732);
#735=CURVE_STYLE('',#24,POSITIVE_LENGTH_MEASURE(2.E-2),#1);
#736=PRESENTATION_STYLE_ASSIGNMENT((#735));
#737=STYLED_ITEM('',(#736),#734);
#738=CARTESIAN_POINT('',(0.E0,0.E0,-3.976377952756E-1));
#739=DIRECTION('',(0.E0,0.E0,1.E0));
#740=DIRECTION('',(2.666666666667E-1,9.637888196534E-1,0.E0));
#741=AXIS2_PLACEMENT_3D('',#738,#739,#740);
#743=CURVE_STYLE('',#24,POSITIVE_LENGTH_MEASURE(2.E-2),#1);
#744=PRESENTATION_STYLE_ASSIGNMENT((#743));
#745=STYLED_ITEM('',(#744),#742);
#746=DIRECTION('',(-2.666666666667E-1,-9.637888196534E-1,0.E0));
#747=VECTOR('',#746,1.968503937008E-2);
#748=CARTESIAN_POINT('',(3.149606299213E-2,1.138333251559E-1,
-3.976377952756E-1));
#749=LINE('',#748,#747);
#750=CURVE_STYLE('',#24,POSITIVE_LENGTH_MEASURE(2.E-2),#1);
#751=PRESENTATION_STYLE_ASSIGNMENT((#750));
#752=STYLED_ITEM('',(#751),#749);
#753=CARTESIAN_POINT('',(0.E0,0.E0,-3.976377952756E-1));
#754=DIRECTION('',(0.E0,0.E0,-1.E0));
#755=DIRECTION('',(-2.666666666667E-1,9.637888196534E-1,0.E0));
#756=AXIS2_PLACEMENT_3D('',#753,#754,#755);
#758=CURVE_STYLE('',#24,POSITIVE_LENGTH_MEASURE(2.E-2),#1);
#759=PRESENTATION_STYLE_ASSIGNMENT((#758));
#760=STYLED_ITEM('',(#759),#757);
#761=DIRECTION('',(-2.666666666667E-1,9.637888196534E-1,0.E0));
#762=VECTOR('',#761,1.968503937008E-2);
#763=CARTESIAN_POINT('',(-2.624671916010E-2,9.486110429659E-2,
-3.976377952756E-1));
#764=LINE('',#763,#762);
#765=CURVE_STYLE('',#24,POSITIVE_LENGTH_MEASURE(2.E-2),#1);
#766=PRESENTATION_STYLE_ASSIGNMENT((#765));
#767=STYLED_ITEM('',(#766),#764);
#768=DIRECTION('',(0.E0,0.E0,1.E0));
#769=VECTOR('',#768,7.874015748032E-3);
#770=CARTESIAN_POINT('',(-3.149606299213E-2,1.138333251559E-1,
-3.976377952756E-1));
#771=LINE('',#770,#769);
#772=CURVE_STYLE('',#24,POSITIVE_LENGTH_MEASURE(2.E-2),#1);
#773=PRESENTATION_STYLE_ASSIGNMENT((#772));
#774=STYLED_ITEM('',(#773),#771);
#775=DIRECTION('',(0.E0,0.E0,-1.E0));
#776=VECTOR('',#775,7.874015748032E-3);
#777=CARTESIAN_POINT('',(3.149606299213E-2,1.138333251559E-1,
-3.897637795276E-1));
#778=LINE('',#777,#776);
#779=CURVE_STYLE('',#24,POSITIVE_LENGTH_MEASURE(2.E-2),#1);
#780=PRESENTATION_STYLE_ASSIGNMENT((#779));
#781=STYLED_ITEM('',(#780),#778);
#782=DIRECTION('',(0.E0,0.E0,1.E0));
#783=VECTOR('',#782,6.299212598425E-2);
#784=CARTESIAN_POINT('',(-1.022864650139E-1,5.905511811024E-2,
-4.212598425197E-1));
#785=LINE('',#784,#783);
#786=CURVE_STYLE('',#24,POSITIVE_LENGTH_MEASURE(2.E-2),#1);
#787=PRESENTATION_STYLE_ASSIGNMENT((#786));
#788=STYLED_ITEM('',(#787),#785);
#789=DIRECTION('',(0.E0,0.E0,-1.E0));
#790=VECTOR('',#789,6.299212598425E-2);
#791=CARTESIAN_POINT('',(-5.905511811024E-2,1.022864650139E-1,
-3.582677165354E-1));
#792=LINE('',#791,#790);
#793=CURVE_STYLE('',#24,POSITIVE_LENGTH_MEASURE(2.E-2),#1);
#794=PRESENTATION_STYLE_ASSIGNMENT((#793));
#795=STYLED_ITEM('',(#794),#792);
#796=CARTESIAN_POINT('',(-9.486110429659E-2,-2.624671916011E-2,
-3.582677165354E-1));
#797=CARTESIAN_POINT('',(-1.138333251559E-1,-3.149606299213E-2,
-3.897637795276E-1));
#798=VERTEX_POINT('',#796);
#799=VERTEX_POINT('',#797);
#800=CARTESIAN_POINT('',(-9.486110429659E-2,2.624671916011E-2,
-3.582677165354E-1));
#801=VERTEX_POINT('',#800);
#802=CARTESIAN_POINT('',(-1.138333251559E-1,3.149606299213E-2,
-3.897637795276E-1));
#803=VERTEX_POINT('',#802);
#804=CARTESIAN_POINT('',(-1.181102362205E-1,0.E0,-3.897637795276E-1));
#805=VERTEX_POINT('',#804);
#806=CARTESIAN_POINT('',(-9.486110429659E-2,2.624671916010E-2,
-3.976377952756E-1));
#807=VERTEX_POINT('',#806);
#808=CARTESIAN_POINT('',(-1.138333251559E-1,3.149606299213E-2,
-3.976377952756E-1));
#809=VERTEX_POINT('',#808);
#810=CARTESIAN_POINT('',(-8.523872084493E-2,-4.921259842520E-2,
-3.582677165354E-1));
#811=VERTEX_POINT('',#810);
#812=CARTESIAN_POINT('',(-1.022864650139E-1,-5.905511811024E-2,
-3.582677165354E-1));
#813=VERTEX_POINT('',#812);
#814=CARTESIAN_POINT('',(-5.905511811024E-2,-1.022864650139E-1,
-3.582677165354E-1));
#815=VERTEX_POINT('',#814);
#816=CARTESIAN_POINT('',(-4.921259842520E-2,-8.523872084493E-2,
-3.582677165354E-1));
#817=VERTEX_POINT('',#816);
#818=CARTESIAN_POINT('',(-2.624671916011E-2,-9.486110429659E-2,
-3.582677165354E-1));
#819=VERTEX_POINT('',#818);
#820=CARTESIAN_POINT('',(2.624671916011E-2,-9.486110429659E-2,
-3.582677165354E-1));
#821=VERTEX_POINT('',#820);
#822=CARTESIAN_POINT('',(4.921259842520E-2,-8.523872084493E-2,
-3.582677165354E-1));
#823=VERTEX_POINT('',#822);
#824=CARTESIAN_POINT('',(5.905511811024E-2,-1.022864650139E-1,
-3.582677165354E-1));
#825=VERTEX_POINT('',#824);
#826=CARTESIAN_POINT('',(1.022864650139E-1,-5.905511811024E-2,
-3.582677165354E-1));
#827=VERTEX_POINT('',#826);
#828=CARTESIAN_POINT('',(8.523872084493E-2,-4.921259842520E-2,
-3.582677165354E-1));
#829=VERTEX_POINT('',#828);
#830=CARTESIAN_POINT('',(9.486110429659E-2,-2.624671916011E-2,
-3.582677165354E-1));
#831=VERTEX_POINT('',#830);
#832=CARTESIAN_POINT('',(9.486110429659E-2,2.624671916011E-2,
-3.582677165354E-1));
#833=VERTEX_POINT('',#832);
#834=CARTESIAN_POINT('',(8.523872084493E-2,4.921259842520E-2,
-3.582677165354E-1));
#835=VERTEX_POINT('',#834);
#836=CARTESIAN_POINT('',(1.022864650139E-1,5.905511811024E-2,
-3.582677165354E-1));
#837=VERTEX_POINT('',#836);
#838=CARTESIAN_POINT('',(5.905511811024E-2,1.022864650139E-1,
-3.582677165354E-1));
#839=VERTEX_POINT('',#838);
#840=CARTESIAN_POINT('',(4.921259842520E-2,8.523872084493E-2,
-3.582677165354E-1));
#841=VERTEX_POINT('',#840);
#842=CARTESIAN_POINT('',(2.624671916011E-2,9.486110429659E-2,
-3.582677165354E-1));
#843=VERTEX_POINT('',#842);
#844=CARTESIAN_POINT('',(-2.624671916011E-2,9.486110429659E-2,
-3.582677165354E-1));
#845=VERTEX_POINT('',#844);
#846=CARTESIAN_POINT('',(-4.921259842520E-2,8.523872084493E-2,
-3.582677165354E-1));
#847=VERTEX_POINT('',#846);
#848=CARTESIAN_POINT('',(-5.905511811024E-2,1.022864650139E-1,
-3.582677165354E-1));
#849=VERTEX_POINT('',#848);
#850=CARTESIAN_POINT('',(-1.022864650139E-1,5.905511811024E-2,
-3.582677165354E-1));
#851=VERTEX_POINT('',#850);
#852=CARTESIAN_POINT('',(-8.523872084493E-2,4.921259842520E-2,
-3.582677165354E-1));
#853=VERTEX_POINT('',#852);
#854=CARTESIAN_POINT('',(-3.149606299213E-2,1.138333251559E-1,
-3.897637795276E-1));
#855=VERTEX_POINT('',#854);
#856=CARTESIAN_POINT('',(3.149606299213E-2,1.138333251559E-1,
-3.897637795276E-1));
#857=VERTEX_POINT('',#856);
#858=CARTESIAN_POINT('',(-3.149606299213E-2,1.138333251559E-1,
-3.976377952756E-1));
#859=VERTEX_POINT('',#858);
#860=CARTESIAN_POINT('',(-2.624671916010E-2,9.486110429659E-2,
-3.976377952756E-1));
#861=VERTEX_POINT('',#860);
#862=CARTESIAN_POINT('',(1.138333251559E-1,3.149606299213E-2,
-3.897637795276E-1));
#863=VERTEX_POINT('',#862);
#864=CARTESIAN_POINT('',(1.138333251559E-1,-3.149606299213E-2,
-3.897637795276E-1));
#865=VERTEX_POINT('',#864);
#866=CARTESIAN_POINT('',(1.181102362205E-1,0.E0,-3.897637795276E-1));
#867=VERTEX_POINT('',#866);
#868=CARTESIAN_POINT('',(1.138333251559E-1,-3.149606299213E-2,
-3.976377952756E-1));
#869=VERTEX_POINT('',#868);
#870=CARTESIAN_POINT('',(1.138333251559E-1,3.149606299213E-2,
-3.976377952756E-1));
#871=VERTEX_POINT('',#870);
#872=CARTESIAN_POINT('',(9.486110429659E-2,-2.624671916011E-2,
-3.976377952756E-1));
#873=VERTEX_POINT('',#872);
#874=CARTESIAN_POINT('',(3.149606299213E-2,-1.138333251559E-1,
-3.897637795276E-1));
#875=VERTEX_POINT('',#874);
#876=CARTESIAN_POINT('',(-3.149606299213E-2,-1.138333251559E-1,
-3.897637795276E-1));
#877=VERTEX_POINT('',#876);
#878=CARTESIAN_POINT('',(-3.149606299213E-2,-1.138333251559E-1,
-3.976377952756E-1));
#879=VERTEX_POINT('',#878);
#880=CARTESIAN_POINT('',(3.149606299213E-2,-1.138333251559E-1,
-3.976377952756E-1));
#881=VERTEX_POINT('',#880);
#882=CARTESIAN_POINT('',(-2.624671916011E-2,-9.486110429659E-2,
-3.976377952756E-1));
#883=VERTEX_POINT('',#882);
#884=CARTESIAN_POINT('',(9.486110429659E-2,2.624671916010E-2,
-3.976377952756E-1));
#885=VERTEX_POINT('',#884);
#886=CARTESIAN_POINT('',(-1.138333251559E-1,-3.149606299213E-2,
-3.976377952756E-1));
#887=VERTEX_POINT('',#886);
#888=CARTESIAN_POINT('',(-9.486110429659E-2,-2.624671916010E-2,
-3.976377952756E-1));
#889=VERTEX_POINT('',#888);
#890=CARTESIAN_POINT('',(-1.181102362205E-1,0.E0,-3.976377952756E-1));
#891=VERTEX_POINT('',#890);
#892=CARTESIAN_POINT('',(-9.842519685039E-2,0.E0,-3.976377952756E-1));
#893=VERTEX_POINT('',#892);
#894=CARTESIAN_POINT('',(2.624671916010E-2,-9.486110429659E-2,
-3.976377952756E-1));
#895=VERTEX_POINT('',#894);
#896=CARTESIAN_POINT('',(2.624671916010E-2,9.486110429659E-2,
-3.976377952756E-1));
#897=VERTEX_POINT('',#896);
#898=CARTESIAN_POINT('',(3.149606299213E-2,1.138333251559E-1,
-3.976377952756E-1));
#899=VERTEX_POINT('',#898);
#900=CARTESIAN_POINT('',(8.523872084493E-2,-4.921259842520E-2,
-4.212598425197E-1));
#901=VERTEX_POINT('',#900);
#902=CARTESIAN_POINT('',(8.523872084493E-2,4.921259842520E-2,
-4.212598425197E-1));
#903=VERTEX_POINT('',#902);
#904=CARTESIAN_POINT('',(-8.523872084493E-2,4.921259842520E-2,
-4.212598425197E-1));
#905=VERTEX_POINT('',#904);
#906=CARTESIAN_POINT('',(-8.523872084493E-2,-4.921259842520E-2,
-4.212598425197E-1));
#907=CARTESIAN_POINT('',(-9.842519685039E-2,0.E0,-4.212598425197E-1));
#908=VERTEX_POINT('',#906);
#909=VERTEX_POINT('',#907);
#910=CARTESIAN_POINT('',(-4.921259842520E-2,-8.523872084493E-2,
-4.212598425197E-1));
#911=VERTEX_POINT('',#910);
#912=CARTESIAN_POINT('',(4.921259842520E-2,-8.523872084493E-2,
-4.212598425197E-1));
#913=VERTEX_POINT('',#912);
#914=CARTESIAN_POINT('',(4.921259842520E-2,8.523872084493E-2,
-4.212598425197E-1));
#915=VERTEX_POINT('',#914);
#916=CARTESIAN_POINT('',(-4.921259842520E-2,8.523872084493E-2,
-4.212598425197E-1));
#917=VERTEX_POINT('',#916);
#918=CARTESIAN_POINT('',(1.022864650139E-1,-5.905511811024E-2,
-4.212598425197E-1));
#919=VERTEX_POINT('',#918);
#920=CARTESIAN_POINT('',(5.905511811024E-2,-1.022864650139E-1,
-4.212598425197E-1));
#921=VERTEX_POINT('',#920);
#922=CARTESIAN_POINT('',(-5.905511811024E-2,-1.022864650139E-1,
-4.212598425197E-1));
#923=VERTEX_POINT('',#922);
#924=CARTESIAN_POINT('',(-1.022864650139E-1,-5.905511811024E-2,
-4.212598425197E-1));
#925=VERTEX_POINT('',#924);
#926=CARTESIAN_POINT('',(-1.022864650139E-1,5.905511811024E-2,
-4.212598425197E-1));
#927=VERTEX_POINT('',#926);
#928=CARTESIAN_POINT('',(-5.905511811024E-2,1.022864650139E-1,
-4.212598425197E-1));
#929=VERTEX_POINT('',#928);
#930=CARTESIAN_POINT('',(5.905511811024E-2,1.022864650139E-1,
-4.212598425197E-1));
#931=VERTEX_POINT('',#930);
#932=CARTESIAN_POINT('',(1.022864650139E-1,5.905511811024E-2,
-4.212598425197E-1));
#933=VERTEX_POINT('',#932);
#934=CARTESIAN_POINT('',(0.E0,0.E0,-3.740157480315E-1));
#935=DIRECTION('',(0.E0,0.E0,-1.E0));
#936=DIRECTION('',(-1.E0,0.E0,0.E0));
#937=AXIS2_PLACEMENT_3D('',#934,#935,#936);
#938=CONICAL_SURFACE('',#937,1.082677165354E-1,3.200538320808E1);
#940=ORIENTED_EDGE('',*,*,#939,.T.);
#942=ORIENTED_EDGE('',*,*,#941,.F.);
#944=ORIENTED_EDGE('',*,*,#943,.F.);
#946=ORIENTED_EDGE('',*,*,#945,.T.);
#948=ORIENTED_EDGE('',*,*,#947,.T.);
#949=EDGE_LOOP('',(#940,#942,#944,#946,#948));
#950=FACE_OUTER_BOUND('',#949,.F.);
#952=CARTESIAN_POINT('',(-9.486110429659E-2,-2.624671916010E-2,
-3.582677165354E-1));
#953=DIRECTION('',(2.666666666667E-1,-9.637888196534E-1,0.E0));
#954=DIRECTION('',(-9.637888196534E-1,-2.666666666667E-1,0.E0));
#955=AXIS2_PLACEMENT_3D('',#952,#953,#954);
#956=PLANE('',#955);
#957=ORIENTED_EDGE('',*,*,#939,.F.);
#959=ORIENTED_EDGE('',*,*,#958,.T.);
#961=ORIENTED_EDGE('',*,*,#960,.T.);
#963=ORIENTED_EDGE('',*,*,#962,.T.);
#964=EDGE_LOOP('',(#957,#959,#961,#963));
#965=FACE_OUTER_BOUND('',#964,.F.);
#967=CARTESIAN_POINT('',(0.E0,0.E0,-4.212598425197E-1));
#968=DIRECTION('',(0.E0,0.E0,1.E0));
#969=DIRECTION('',(-1.E0,0.E0,0.E0));
#970=AXIS2_PLACEMENT_3D('',#967,#968,#969);
#971=CYLINDRICAL_SURFACE('',#970,9.842519685039E-2);
#973=ORIENTED_EDGE('',*,*,#972,.F.);
#975=ORIENTED_EDGE('',*,*,#974,.T.);
#977=ORIENTED_EDGE('',*,*,#976,.T.);
#978=ORIENTED_EDGE('',*,*,#958,.F.);
#980=ORIENTED_EDGE('',*,*,#979,.T.);
#982=ORIENTED_EDGE('',*,*,#981,.F.);
#984=ORIENTED_EDGE('',*,*,#983,.T.);
#986=ORIENTED_EDGE('',*,*,#985,.T.);
#988=ORIENTED_EDGE('',*,*,#987,.F.);
#990=ORIENTED_EDGE('',*,*,#989,.T.);
#991=EDGE_LOOP('',(#973,#975,#977,#978,#980,#982,#984,#986,#988,#990));
#992=FACE_OUTER_BOUND('',#991,.F.);
#994=CARTESIAN_POINT('',(-1.138333251559E-1,3.149606299213E-2,
-3.582677165354E-1));
#995=DIRECTION('',(2.666666666667E-1,9.637888196534E-1,0.E0));
#996=DIRECTION('',(9.637888196534E-1,-2.666666666667E-1,0.E0));
#997=AXIS2_PLACEMENT_3D('',#994,#995,#996);
#998=PLANE('',#997);
#999=ORIENTED_EDGE('',*,*,#945,.F.);
#1001=ORIENTED_EDGE('',*,*,#1000,.T.);
#1003=ORIENTED_EDGE('',*,*,#1002,.T.);
#1004=ORIENTED_EDGE('',*,*,#972,.T.);
#1005=EDGE_LOOP('',(#999,#1001,#1003,#1004));
#1006=FACE_OUTER_BOUND('',#1005,.F.);
#1008=CARTESIAN_POINT('',(0.E0,0.E0,-4.212598425197E-1));
#1009=DIRECTION('',(0.E0,0.E0,1.E0));
#1010=DIRECTION('',(-1.E0,0.E0,0.E0));
#1011=AXIS2_PLACEMENT_3D('',#1008,#1009,#1010);
#1012=CYLINDRICAL_SURFACE('',#1011,1.181102362205E-1);
#1013=ORIENTED_EDGE('',*,*,#941,.T.);
#1014=ORIENTED_EDGE('',*,*,#962,.F.);
#1016=ORIENTED_EDGE('',*,*,#1015,.T.);
#1018=ORIENTED_EDGE('',*,*,#1017,.T.);
#1019=ORIENTED_EDGE('',*,*,#1000,.F.);
#1020=ORIENTED_EDGE('',*,*,#943,.T.);
#1021=EDGE_LOOP('',(#1013,#1014,#1016,#1018,#1019,#1020));
#1022=FACE_OUTER_BOUND('',#1021,.F.);
#1024=CARTESIAN_POINT('',(0.E0,0.E0,-3.976377952756E-1));
#1025=DIRECTION('',(0.E0,0.E0,-1.E0));
#1026=DIRECTION('',(-1.E0,0.E0,0.E0));
#1027=AXIS2_PLACEMENT_3D('',#1024,#1025,#1026);
#1028=PLANE('',#1027);
#1029=ORIENTED_EDGE('',*,*,#960,.F.);
#1030=ORIENTED_EDGE('',*,*,#976,.F.);
#1031=ORIENTED_EDGE('',*,*,#974,.F.);
#1032=ORIENTED_EDGE('',*,*,#1002,.F.);
#1033=ORIENTED_EDGE('',*,*,#1017,.F.);
#1034=ORIENTED_EDGE('',*,*,#1015,.F.);
#1035=EDGE_LOOP('',(#1029,#1030,#1031,#1032,#1033,#1034));
#1036=FACE_OUTER_BOUND('',#1035,.F.);
#1038=CARTESIAN_POINT('',(0.E0,0.E0,-3.582677165354E-1));
#1039=DIRECTION('',(0.E0,0.E0,-1.E0));
#1040=DIRECTION('',(-1.E0,0.E0,0.E0));
#1041=AXIS2_PLACEMENT_3D('',#1038,#1039,#1040);
#1042=PLANE('',#1041);
#1043=ORIENTED_EDGE('',*,*,#947,.F.);
#1044=ORIENTED_EDGE('',*,*,#989,.F.);
#1046=ORIENTED_EDGE('',*,*,#1045,.F.);
#1048=ORIENTED_EDGE('',*,*,#1047,.F.);
#1050=ORIENTED_EDGE('',*,*,#1049,.F.);
#1052=ORIENTED_EDGE('',*,*,#1051,.F.);
#1054=ORIENTED_EDGE('',*,*,#1053,.F.);
#1056=ORIENTED_EDGE('',*,*,#1055,.F.);
#1058=ORIENTED_EDGE('',*,*,#1057,.F.);
#1060=ORIENTED_EDGE('',*,*,#1059,.F.);
#1062=ORIENTED_EDGE('',*,*,#1061,.F.);
#1064=ORIENTED_EDGE('',*,*,#1063,.F.);
#1066=ORIENTED_EDGE('',*,*,#1065,.F.);
#1068=ORIENTED_EDGE('',*,*,#1067,.F.);
#1070=ORIENTED_EDGE('',*,*,#1069,.F.);
#1072=ORIENTED_EDGE('',*,*,#1071,.F.);
#1074=ORIENTED_EDGE('',*,*,#1073,.F.);
#1076=ORIENTED_EDGE('',*,*,#1075,.F.);
#1078=ORIENTED_EDGE('',*,*,#1077,.F.);
#1080=ORIENTED_EDGE('',*,*,#1079,.F.);
#1082=ORIENTED_EDGE('',*,*,#1081,.F.);
#1084=ORIENTED_EDGE('',*,*,#1083,.F.);
#1086=ORIENTED_EDGE('',*,*,#1085,.F.);
#1087=ORIENTED_EDGE('',*,*,#979,.F.);
#1088=EDGE_LOOP('',(#1043,#1044,#1046,#1048,#1050,#1052,#1054,#1056,#1058,#1060,
#1062,#1064,#1066,#1068,#1070,#1072,#1074,#1076,#1078,#1080,#1082,#1084,#1086,
#1087));
#1089=FACE_OUTER_BOUND('',#1088,.F.);
#1091=CARTESIAN_POINT('',(-1.022864650139E-1,5.905511811024E-2,
-4.212598425197E-1));
#1092=DIRECTION('',(-5.E-1,-8.660254037844E-1,0.E0));
#1093=DIRECTION('',(8.660254037844E-1,-5.E-1,0.E0));
#1094=AXIS2_PLACEMENT_3D('',#1091,#1092,#1093);
#1095=PLANE('',#1094);
#1097=ORIENTED_EDGE('',*,*,#1096,.T.);
#1099=ORIENTED_EDGE('',*,*,#1098,.T.);
#1100=ORIENTED_EDGE('',*,*,#1045,.T.);
#1101=ORIENTED_EDGE('',*,*,#987,.T.);
#1102=EDGE_LOOP('',(#1097,#1099,#1100,#1101));
#1103=FACE_OUTER_BOUND('',#1102,.F.);
#1105=CARTESIAN_POINT('',(0.E0,0.E0,-4.212598425197E-1));
#1106=DIRECTION('',(0.E0,0.E0,-1.E0));
#1107=DIRECTION('',(-1.E0,0.E0,0.E0));
#1108=AXIS2_PLACEMENT_3D('',#1105,#1106,#1107);
#1109=PLANE('',#1108);
#1111=ORIENTED_EDGE('',*,*,#1110,.F.);
#1113=ORIENTED_EDGE('',*,*,#1112,.F.);
#1115=ORIENTED_EDGE('',*,*,#1114,.F.);
#1117=ORIENTED_EDGE('',*,*,#1116,.F.);
#1119=ORIENTED_EDGE('',*,*,#1118,.F.);
#1121=ORIENTED_EDGE('',*,*,#1120,.F.);
#1123=ORIENTED_EDGE('',*,*,#1122,.F.);
#1125=ORIENTED_EDGE('',*,*,#1124,.F.);
#1127=ORIENTED_EDGE('',*,*,#1126,.F.);
#1129=ORIENTED_EDGE('',*,*,#1128,.F.);
#1131=ORIENTED_EDGE('',*,*,#1130,.F.);
#1133=ORIENTED_EDGE('',*,*,#1132,.F.);
#1135=ORIENTED_EDGE('',*,*,#1134,.F.);
#1137=ORIENTED_EDGE('',*,*,#1136,.F.);
#1138=ORIENTED_EDGE('',*,*,#1096,.F.);
#1139=ORIENTED_EDGE('',*,*,#985,.F.);
#1140=ORIENTED_EDGE('',*,*,#983,.F.);
#1141=EDGE_LOOP('',(#1111,#1113,#1115,#1117,#1119,#1121,#1123,#1125,#1127,#1129,
#1131,#1133,#1135,#1137,#1138,#1139,#1140));
#1142=FACE_OUTER_BOUND('',#1141,.F.);
#1144=CARTESIAN_POINT('',(-8.523872084493E-2,-4.921259842520E-2,
-4.212598425197E-1));
#1145=DIRECTION('',(-5.E-1,8.660254037844E-1,0.E0));
#1146=DIRECTION('',(-8.660254037844E-1,-5.E-1,0.E0));
#1147=AXIS2_PLACEMENT_3D('',#1144,#1145,#1146);
#1148=PLANE('',#1147);
#1149=ORIENTED_EDGE('',*,*,#1110,.T.);
#1150=ORIENTED_EDGE('',*,*,#981,.T.);
#1151=ORIENTED_EDGE('',*,*,#1085,.T.);
#1153=ORIENTED_EDGE('',*,*,#1152,.T.);
#1154=EDGE_LOOP('',(#1149,#1150,#1151,#1153));
#1155=FACE_OUTER_BOUND('',#1154,.F.);
#1157=CARTESIAN_POINT('',(0.E0,0.E0,-4.212598425197E-1));
#1158=DIRECTION('',(0.E0,0.E0,1.E0));
#1159=DIRECTION('',(1.E0,0.E0,0.E0));
#1160=AXIS2_PLACEMENT_3D('',#1157,#1158,#1159);
#1161=CYLINDRICAL_SURFACE('',#1160,1.181102362205E-1);
#1162=ORIENTED_EDGE('',*,*,#1152,.F.);
#1163=ORIENTED_EDGE('',*,*,#1083,.T.);
#1165=ORIENTED_EDGE('',*,*,#1164,.F.);
#1166=ORIENTED_EDGE('',*,*,#1112,.T.);
#1167=EDGE_LOOP('',(#1162,#1163,#1165,#1166));
#1168=FACE_OUTER_BOUND('',#1167,.F.);
#1170=CARTESIAN_POINT('',(-5.905511811024E-2,-1.022864650139E-1,
-4.212598425197E-1));
#1171=DIRECTION('',(8.660254037844E-1,-5.E-1,0.E0));
#1172=DIRECTION('',(5.E-1,8.660254037844E-1,0.E0));
#1173=AXIS2_PLACEMENT_3D('',#1170,#1171,#1172);
#1174=PLANE('',#1173);
#1175=ORIENTED_EDGE('',*,*,#1114,.T.);
#1176=ORIENTED_EDGE('',*,*,#1164,.T.);
#1177=ORIENTED_EDGE('',*,*,#1081,.T.);
#1179=ORIENTED_EDGE('',*,*,#1178,.T.);
#1180=EDGE_LOOP('',(#1175,#1176,#1177,#1179));
#1181=FACE_OUTER_BOUND('',#1180,.F.);
#1183=CARTESIAN_POINT('',(0.E0,0.E0,-4.212598425197E-1));
#1184=DIRECTION('',(0.E0,0.E0,1.E0));
#1185=DIRECTION('',(1.E0,0.E0,0.E0));
#1186=AXIS2_PLACEMENT_3D('',#1183,#1184,#1185);
#1187=CYLINDRICAL_SURFACE('',#1186,9.842519685039E-2);
#1189=ORIENTED_EDGE('',*,*,#1188,.F.);
#1191=ORIENTED_EDGE('',*,*,#1190,.T.);
#1193=ORIENTED_EDGE('',*,*,#1192,.F.);
#1194=ORIENTED_EDGE('',*,*,#1075,.T.);
#1196=ORIENTED_EDGE('',*,*,#1195,.F.);
#1197=ORIENTED_EDGE('',*,*,#1116,.T.);
#1198=ORIENTED_EDGE('',*,*,#1178,.F.);
#1199=ORIENTED_EDGE('',*,*,#1079,.T.);
#1200=EDGE_LOOP('',(#1189,#1191,#1193,#1194,#1196,#1197,#1198,#1199));
#1201=FACE_OUTER_BOUND('',#1200,.F.);
#1203=CARTESIAN_POINT('',(-3.149606299213E-2,-1.138333251559E-1,
-3.582677165354E-1));
#1204=DIRECTION('',(-9.637888196534E-1,2.666666666667E-1,0.E0));
#1205=DIRECTION('',(2.666666666667E-1,9.637888196534E-1,0.E0));
#1206=AXIS2_PLACEMENT_3D('',#1203,#1204,#1205);
#1207=PLANE('',#1206);
#1209=ORIENTED_EDGE('',*,*,#1208,.F.);
#1211=ORIENTED_EDGE('',*,*,#1210,.T.);
#1213=ORIENTED_EDGE('',*,*,#1212,.T.);
#1214=ORIENTED_EDGE('',*,*,#1188,.T.);
#1215=EDGE_LOOP('',(#1209,#1211,#1213,#1214));
#1216=FACE_OUTER_BOUND('',#1215,.F.);
#1218=CARTESIAN_POINT('',(0.E0,0.E0,-3.740157480315E-1));
#1219=DIRECTION('',(0.E0,0.E0,-1.E0));
#1220=DIRECTION('',(1.E0,0.E0,0.E0));
#1221=AXIS2_PLACEMENT_3D('',#1218,#1219,#1220);
#1222=CONICAL_SURFACE('',#1221,1.082677165354E-1,3.200538320808E1);
#1224=ORIENTED_EDGE('',*,*,#1223,.T.);
#1226=ORIENTED_EDGE('',*,*,#1225,.F.);
#1227=ORIENTED_EDGE('',*,*,#1208,.T.);
#1228=ORIENTED_EDGE('',*,*,#1077,.T.);
#1229=EDGE_LOOP('',(#1224,#1226,#1227,#1228));
#1230=FACE_OUTER_BOUND('',#1229,.F.);
#1232=CARTESIAN_POINT('',(2.624671916010E-2,-9.486110429659E-2,
-3.582677165354E-1));
#1233=DIRECTION('',(9.637888196534E-1,2.666666666667E-1,0.E0));
#1234=DIRECTION('',(2.666666666667E-1,-9.637888196534E-1,0.E0));
#1235=AXIS2_PLACEMENT_3D('',#1232,#1233,#1234);
#1236=PLANE('',#1235);
#1237=ORIENTED_EDGE('',*,*,#1223,.F.);
#1238=ORIENTED_EDGE('',*,*,#1192,.T.);
#1240=ORIENTED_EDGE('',*,*,#1239,.T.);
#1242=ORIENTED_EDGE('',*,*,#1241,.T.);
#1243=EDGE_LOOP('',(#1237,#1238,#1240,#1242));
#1244=FACE_OUTER_BOUND('',#1243,.F.);
#1246=CARTESIAN_POINT('',(0.E0,0.E0,-3.976377952756E-1));
#1247=DIRECTION('',(0.E0,0.E0,-1.E0));
#1248=DIRECTION('',(-1.E0,0.E0,0.E0));
#1249=AXIS2_PLACEMENT_3D('',#1246,#1247,#1248);
#1250=PLANE('',#1249);
#1251=ORIENTED_EDGE('',*,*,#1212,.F.);
#1253=ORIENTED_EDGE('',*,*,#1252,.F.);
#1254=ORIENTED_EDGE('',*,*,#1239,.F.);
#1255=ORIENTED_EDGE('',*,*,#1190,.F.);
#1256=EDGE_LOOP('',(#1251,#1253,#1254,#1255));
#1257=FACE_OUTER_BOUND('',#1256,.F.);
#1259=CARTESIAN_POINT('',(0.E0,0.E0,-4.212598425197E-1));
#1260=DIRECTION('',(0.E0,0.E0,1.E0));
#1261=DIRECTION('',(1.E0,0.E0,0.E0));
#1262=AXIS2_PLACEMENT_3D('',#1259,#1260,#1261);
#1263=CYLINDRICAL_SURFACE('',#1262,1.181102362205E-1);
#1264=ORIENTED_EDGE('',*,*,#1225,.T.);
#1265=ORIENTED_EDGE('',*,*,#1241,.F.);
#1266=ORIENTED_EDGE('',*,*,#1252,.T.);
#1267=ORIENTED_EDGE('',*,*,#1210,.F.);
#1268=EDGE_LOOP('',(#1264,#1265,#1266,#1267));
#1269=FACE_OUTER_BOUND('',#1268,.F.);
#1271=CARTESIAN_POINT('',(4.921259842520E-2,-8.523872084493E-2,
-4.212598425197E-1));
#1272=DIRECTION('',(-8.660254037844E-1,-5.E-1,0.E0));
#1273=DIRECTION('',(5.E-1,-8.660254037844E-1,0.E0));
#1274=AXIS2_PLACEMENT_3D('',#1271,#1272,#1273);
#1275=PLANE('',#1274);
#1276=ORIENTED_EDGE('',*,*,#1118,.T.);
#1277=ORIENTED_EDGE('',*,*,#1195,.T.);
#1278=ORIENTED_EDGE('',*,*,#1073,.T.);
#1280=ORIENTED_EDGE('',*,*,#1279,.T.);
#1281=EDGE_LOOP('',(#1276,#1277,#1278,#1280));
#1282=FACE_OUTER_BOUND('',#1281,.F.);
#1284=CARTESIAN_POINT('',(0.E0,0.E0,-4.212598425197E-1));
#1285=DIRECTION('',(0.E0,0.E0,1.E0));
#1286=DIRECTION('',(1.E0,0.E0,0.E0));
#1287=AXIS2_PLACEMENT_3D('',#1284,#1285,#1286);
#1288=CYLINDRICAL_SURFACE('',#1287,1.181102362205E-1);
#1289=ORIENTED_EDGE('',*,*,#1279,.F.);
#1290=ORIENTED_EDGE('',*,*,#1071,.T.);
#1292=ORIENTED_EDGE('',*,*,#1291,.F.);
#1293=ORIENTED_EDGE('',*,*,#1120,.T.);
#1294=EDGE_LOOP('',(#1289,#1290,#1292,#1293));
#1295=FACE_OUTER_BOUND('',#1294,.F.);
#1297=CARTESIAN_POINT('',(1.022864650139E-1,-5.905511811024E-2,
-4.212598425197E-1));
#1298=DIRECTION('',(5.E-1,8.660254037844E-1,0.E0));
#1299=DIRECTION('',(-8.660254037844E-1,5.E-1,0.E0));
#1300=AXIS2_PLACEMENT_3D('',#1297,#1298,#1299);
#1301=PLANE('',#1300);
#1302=ORIENTED_EDGE('',*,*,#1122,.T.);
#1303=ORIENTED_EDGE('',*,*,#1291,.T.);
#1304=ORIENTED_EDGE('',*,*,#1069,.T.);
#1306=ORIENTED_EDGE('',*,*,#1305,.T.);
#1307=EDGE_LOOP('',(#1302,#1303,#1304,#1306));
#1308=FACE_OUTER_BOUND('',#1307,.F.);
#1310=CARTESIAN_POINT('',(0.E0,0.E0,-4.212598425197E-1));
#1311=DIRECTION('',(0.E0,0.E0,1.E0));
#1312=DIRECTION('',(1.E0,0.E0,0.E0));
#1313=AXIS2_PLACEMENT_3D('',#1310,#1311,#1312);
#1314=CYLINDRICAL_SURFACE('',#1313,9.842519685039E-2);
#1316=ORIENTED_EDGE('',*,*,#1315,.F.);
#1318=ORIENTED_EDGE('',*,*,#1317,.T.);
#1320=ORIENTED_EDGE('',*,*,#1319,.F.);
#1321=ORIENTED_EDGE('',*,*,#1063,.T.);
#1323=ORIENTED_EDGE('',*,*,#1322,.F.);
#1324=ORIENTED_EDGE('',*,*,#1124,.T.);
#1325=ORIENTED_EDGE('',*,*,#1305,.F.);
#1326=ORIENTED_EDGE('',*,*,#1067,.T.);
#1327=EDGE_LOOP('',(#1316,#1318,#1320,#1321,#1323,#1324,#1325,#1326));
#1328=FACE_OUTER_BOUND('',#1327,.F.);
#1330=CARTESIAN_POINT('',(1.138333251559E-1,-3.149606299213E-2,
-3.582677165354E-1));
#1331=DIRECTION('',(-2.666666666667E-1,-9.637888196534E-1,0.E0));
#1332=DIRECTION('',(-9.637888196534E-1,2.666666666667E-1,0.E0));
#1333=AXIS2_PLACEMENT_3D('',#1330,#1331,#1332);
#1334=PLANE('',#1333);
#1336=ORIENTED_EDGE('',*,*,#1335,.F.);
#1338=ORIENTED_EDGE('',*,*,#1337,.T.);
#1340=ORIENTED_EDGE('',*,*,#1339,.T.);
#1341=ORIENTED_EDGE('',*,*,#1315,.T.);
#1342=EDGE_LOOP('',(#1336,#1338,#1340,#1341));
#1343=FACE_OUTER_BOUND('',#1342,.F.);
#1345=CARTESIAN_POINT('',(0.E0,0.E0,-3.740157480315E-1));
#1346=DIRECTION('',(0.E0,0.E0,-1.E0));
#1347=DIRECTION('',(1.E0,0.E0,0.E0));
#1348=AXIS2_PLACEMENT_3D('',#1345,#1346,#1347);
#1349=CONICAL_SURFACE('',#1348,1.082677165354E-1,3.200538320808E1);
#1351=ORIENTED_EDGE('',*,*,#1350,.T.);
#1353=ORIENTED_EDGE('',*,*,#1352,.F.);
#1355=ORIENTED_EDGE('',*,*,#1354,.F.);
#1356=ORIENTED_EDGE('',*,*,#1335,.T.);
#1357=ORIENTED_EDGE('',*,*,#1065,.T.);
#1358=EDGE_LOOP('',(#1351,#1353,#1355,#1356,#1357));
#1359=FACE_OUTER_BOUND('',#1358,.F.);
#1361=CARTESIAN_POINT('',(9.486110429659E-2,2.624671916010E-2,
-3.582677165354E-1));
#1362=DIRECTION('',(-2.666666666667E-1,9.637888196534E-1,0.E0));
#1363=DIRECTION('',(9.637888196534E-1,2.666666666667E-1,0.E0));
#1364=AXIS2_PLACEMENT_3D('',#1361,#1362,#1363);
#1365=PLANE('',#1364);
#1366=ORIENTED_EDGE('',*,*,#1350,.F.);
#1367=ORIENTED_EDGE('',*,*,#1319,.T.);
#1369=ORIENTED_EDGE('',*,*,#1368,.T.);
#1371=ORIENTED_EDGE('',*,*,#1370,.T.);
#1372=EDGE_LOOP('',(#1366,#1367,#1369,#1371));
#1373=FACE_OUTER_BOUND('',#1372,.F.);
#1375=CARTESIAN_POINT('',(0.E0,0.E0,-3.976377952756E-1));
#1376=DIRECTION('',(0.E0,0.E0,-1.E0));
#1377=DIRECTION('',(-1.E0,0.E0,0.E0));
#1378=AXIS2_PLACEMENT_3D('',#1375,#1376,#1377);
#1379=PLANE('',#1378);
#1381=ORIENTED_EDGE('',*,*,#1380,.F.);
#1382=ORIENTED_EDGE('',*,*,#1368,.F.);
#1383=ORIENTED_EDGE('',*,*,#1317,.F.);
#1384=ORIENTED_EDGE('',*,*,#1339,.F.);
#1385=EDGE_LOOP('',(#1381,#1382,#1383,#1384));
#1386=FACE_OUTER_BOUND('',#1385,.F.);
#1388=CARTESIAN_POINT('',(0.E0,0.E0,-4.212598425197E-1));
#1389=DIRECTION('',(0.E0,0.E0,1.E0));
#1390=DIRECTION('',(1.E0,0.E0,0.E0));
#1391=AXIS2_PLACEMENT_3D('',#1388,#1389,#1390);
#1392=CYLINDRICAL_SURFACE('',#1391,1.181102362205E-1);
#1393=ORIENTED_EDGE('',*,*,#1352,.T.);
#1394=ORIENTED_EDGE('',*,*,#1370,.F.);
#1395=ORIENTED_EDGE('',*,*,#1380,.T.);
#1396=ORIENTED_EDGE('',*,*,#1337,.F.);
#1397=ORIENTED_EDGE('',*,*,#1354,.T.);
#1398=EDGE_LOOP('',(#1393,#1394,#1395,#1396,#1397));
#1399=FACE_OUTER_BOUND('',#1398,.F.);
#1401=CARTESIAN_POINT('',(8.523872084493E-2,4.921259842520E-2,
-4.212598425197E-1));
#1402=DIRECTION('',(5.E-1,-8.660254037844E-1,0.E0));
#1403=DIRECTION('',(8.660254037844E-1,5.E-1,0.E0));
#1404=AXIS2_PLACEMENT_3D('',#1401,#1402,#1403);
#1405=PLANE('',#1404);
#1406=ORIENTED_EDGE('',*,*,#1126,.T.);
#1407=ORIENTED_EDGE('',*,*,#1322,.T.);
#1408=ORIENTED_EDGE('',*,*,#1061,.T.);
#1410=ORIENTED_EDGE('',*,*,#1409,.T.);
#1411=EDGE_LOOP('',(#1406,#1407,#1408,#1410));
#1412=FACE_OUTER_BOUND('',#1411,.F.);
#1414=CARTESIAN_POINT('',(0.E0,0.E0,-4.212598425197E-1));
#1415=DIRECTION('',(0.E0,0.E0,1.E0));
#1416=DIRECTION('',(1.E0,0.E0,0.E0));
#1417=AXIS2_PLACEMENT_3D('',#1414,#1415,#1416);
#1418=CYLINDRICAL_SURFACE('',#1417,1.181102362205E-1);
#1420=ORIENTED_EDGE('',*,*,#1419,.F.);
#1421=ORIENTED_EDGE('',*,*,#1128,.T.);
#1422=ORIENTED_EDGE('',*,*,#1409,.F.);
#1423=ORIENTED_EDGE('',*,*,#1059,.T.);
#1424=EDGE_LOOP('',(#1420,#1421,#1422,#1423));
#1425=FACE_OUTER_BOUND('',#1424,.F.);
#1427=CARTESIAN_POINT('',(5.905511811024E-2,1.022864650139E-1,
-4.212598425197E-1));
#1428=DIRECTION('',(-8.660254037844E-1,5.E-1,0.E0));
#1429=DIRECTION('',(-5.E-1,-8.660254037844E-1,0.E0));
#1430=AXIS2_PLACEMENT_3D('',#1427,#1428,#1429);
#1431=PLANE('',#1430);
#1432=ORIENTED_EDGE('',*,*,#1130,.T.);
#1433=ORIENTED_EDGE('',*,*,#1419,.T.);
#1434=ORIENTED_EDGE('',*,*,#1057,.T.);
#1436=ORIENTED_EDGE('',*,*,#1435,.T.);
#1437=EDGE_LOOP('',(#1432,#1433,#1434,#1436));
#1438=FACE_OUTER_BOUND('',#1437,.F.);
#1440=CARTESIAN_POINT('',(0.E0,0.E0,-4.212598425197E-1));
#1441=DIRECTION('',(0.E0,0.E0,1.E0));
#1442=DIRECTION('',(1.E0,0.E0,0.E0));
#1443=AXIS2_PLACEMENT_3D('',#1440,#1441,#1442);
#1444=CYLINDRICAL_SURFACE('',#1443,9.842519685039E-2);
#1446=ORIENTED_EDGE('',*,*,#1445,.F.);
#1448=ORIENTED_EDGE('',*,*,#1447,.T.);
#1450=ORIENTED_EDGE('',*,*,#1449,.F.);
#1451=ORIENTED_EDGE('',*,*,#1051,.T.);
#1453=ORIENTED_EDGE('',*,*,#1452,.F.);
#1454=ORIENTED_EDGE('',*,*,#1132,.T.);
#1455=ORIENTED_EDGE('',*,*,#1435,.F.);
#1456=ORIENTED_EDGE('',*,*,#1055,.T.);
#1457=EDGE_LOOP('',(#1446,#1448,#1450,#1451,#1453,#1454,#1455,#1456));
#1458=FACE_OUTER_BOUND('',#1457,.F.);
#1460=CARTESIAN_POINT('',(3.149606299213E-2,1.138333251559E-1,
-3.582677165354E-1));
#1461=DIRECTION('',(9.637888196534E-1,-2.666666666667E-1,0.E0));
#1462=DIRECTION('',(-2.666666666667E-1,-9.637888196534E-1,0.E0));
#1463=AXIS2_PLACEMENT_3D('',#1460,#1461,#1462);
#1464=PLANE('',#1463);
#1466=ORIENTED_EDGE('',*,*,#1465,.F.);
#1468=ORIENTED_EDGE('',*,*,#1467,.T.);
#1470=ORIENTED_EDGE('',*,*,#1469,.T.);
#1471=ORIENTED_EDGE('',*,*,#1445,.T.);
#1472=EDGE_LOOP('',(#1466,#1468,#1470,#1471));
#1473=FACE_OUTER_BOUND('',#1472,.F.);
#1475=CARTESIAN_POINT('',(0.E0,0.E0,-3.740157480315E-1));
#1476=DIRECTION('',(0.E0,0.E0,-1.E0));
#1477=DIRECTION('',(1.E0,0.E0,0.E0));
#1478=AXIS2_PLACEMENT_3D('',#1475,#1476,#1477);
#1479=CONICAL_SURFACE('',#1478,1.082677165354E-1,3.200538320808E1);
#1481=ORIENTED_EDGE('',*,*,#1480,.T.);
#1483=ORIENTED_EDGE('',*,*,#1482,.F.);
#1484=ORIENTED_EDGE('',*,*,#1465,.T.);
#1485=ORIENTED_EDGE('',*,*,#1053,.T.);
#1486=EDGE_LOOP('',(#1481,#1483,#1484,#1485));
#1487=FACE_OUTER_BOUND('',#1486,.F.);
#1489=CARTESIAN_POINT('',(-2.624671916010E-2,9.486110429659E-2,
-3.582677165354E-1));
#1490=DIRECTION('',(-9.637888196534E-1,-2.666666666667E-1,0.E0));
#1491=DIRECTION('',(-2.666666666667E-1,9.637888196534E-1,0.E0));
#1492=AXIS2_PLACEMENT_3D('',#1489,#1490,#1491);
#1493=PLANE('',#1492);
#1494=ORIENTED_EDGE('',*,*,#1480,.F.);
#1495=ORIENTED_EDGE('',*,*,#1449,.T.);
#1497=ORIENTED_EDGE('',*,*,#1496,.T.);
#1499=ORIENTED_EDGE('',*,*,#1498,.T.);
#1500=EDGE_LOOP('',(#1494,#1495,#1497,#1499));
#1501=FACE_OUTER_BOUND('',#1500,.F.);
#1503=CARTESIAN_POINT('',(0.E0,0.E0,-3.976377952756E-1));
#1504=DIRECTION('',(0.E0,0.E0,-1.E0));
#1505=DIRECTION('',(-1.E0,0.E0,0.E0));
#1506=AXIS2_PLACEMENT_3D('',#1503,#1504,#1505);
#1507=PLANE('',#1506);
#1508=ORIENTED_EDGE('',*,*,#1447,.F.);
#1509=ORIENTED_EDGE('',*,*,#1469,.F.);
#1511=ORIENTED_EDGE('',*,*,#1510,.F.);
#1512=ORIENTED_EDGE('',*,*,#1496,.F.);
#1513=EDGE_LOOP('',(#1508,#1509,#1511,#1512));
#1514=FACE_OUTER_BOUND('',#1513,.F.);
#1516=CARTESIAN_POINT('',(0.E0,0.E0,-4.212598425197E-1));
#1517=DIRECTION('',(0.E0,0.E0,1.E0));
#1518=DIRECTION('',(1.E0,0.E0,0.E0));
#1519=AXIS2_PLACEMENT_3D('',#1516,#1517,#1518);
#1520=CYLINDRICAL_SURFACE('',#1519,1.181102362205E-1);
#1521=ORIENTED_EDGE('',*,*,#1482,.T.);
#1522=ORIENTED_EDGE('',*,*,#1498,.F.);
#1523=ORIENTED_EDGE('',*,*,#1510,.T.);
#1524=ORIENTED_EDGE('',*,*,#1467,.F.);
#1525=EDGE_LOOP('',(#1521,#1522,#1523,#1524));
#1526=FACE_OUTER_BOUND('',#1525,.F.);
#1528=CARTESIAN_POINT('',(-4.921259842520E-2,8.523872084493E-2,
-4.212598425197E-1));
#1529=DIRECTION('',(8.660254037844E-1,5.E-1,0.E0));
#1530=DIRECTION('',(-5.E-1,8.660254037844E-1,0.E0));
#1531=AXIS2_PLACEMENT_3D('',#1528,#1529,#1530);
#1532=PLANE('',#1531);
#1533=ORIENTED_EDGE('',*,*,#1134,.T.);
#1534=ORIENTED_EDGE('',*,*,#1452,.T.);
#1535=ORIENTED_EDGE('',*,*,#1049,.T.);
#1537=ORIENTED_EDGE('',*,*,#1536,.T.);
#1538=EDGE_LOOP('',(#1533,#1534,#1535,#1537));
#1539=FACE_OUTER_BOUND('',#1538,.F.);
#1541=CARTESIAN_POINT('',(0.E0,0.E0,-4.212598425197E-1));
#1542=DIRECTION('',(0.E0,0.E0,1.E0));
#1543=DIRECTION('',(1.E0,0.E0,0.E0));
#1544=AXIS2_PLACEMENT_3D('',#1541,#1542,#1543);
#1545=CYLINDRICAL_SURFACE('',#1544,1.181102362205E-1);
#1546=ORIENTED_EDGE('',*,*,#1098,.F.);
#1547=ORIENTED_EDGE('',*,*,#1136,.T.);
#1548=ORIENTED_EDGE('',*,*,#1536,.F.);
#1549=ORIENTED_EDGE('',*,*,#1047,.T.);
#1550=EDGE_LOOP('',(#1546,#1547,#1548,#1549));
#1551=FACE_OUTER_BOUND('',#1550,.F.);
#1555=FILL_AREA_STYLE_COLOUR('',#1);
#1556=FILL_AREA_STYLE('',(#1555));
#1557=SURFACE_STYLE_FILL_AREA(#1556);
#1558=SURFACE_SIDE_STYLE('',(#1557));
#1559=SURFACE_STYLE_USAGE(.BOTH.,#1558);
#1560=PRESENTATION_STYLE_ASSIGNMENT((#1559));
#18=STYLED_ITEM('',(#1560),#1554);
#1562=LENGTH_MEASURE_WITH_UNIT(LENGTH_MEASURE(2.54E1),#1561);
#1563=(CONVERSION_BASED_UNIT('INCH',#1562)LENGTH_UNIT()NAMED_UNIT(*));
#1565=PLANE_ANGLE_MEASURE_WITH_UNIT(PLANE_ANGLE_MEASURE(1.745329251994E-2),
#1564);
#1566=(CONVERSION_BASED_UNIT('DEGREE',#1565)NAMED_UNIT(*)PLANE_ANGLE_UNIT());
#1568=UNCERTAINTY_MEASURE_WITH_UNIT(LENGTH_MEASURE(3.399396797417E-5),#1563,
'closure',
'Maximum model space distance between geometric entities at asserted connectivities');
#1570=CARTESIAN_POINT('',(0.E0,0.E0,0.E0));
#1571=DIRECTION('',(0.E0,0.E0,1.E0));
#1572=DIRECTION('',(1.E0,0.E0,0.E0));
#1575=MECHANICAL_DESIGN_GEOMETRIC_PRESENTATION_REPRESENTATION('',(#27,#35,#42,
#49,#56,#63,#70,#77,#84,#91,#98,#106,#114,#121,#129,#137,#145,#153,#160,#168,
#175,#183,#191,#199,#206,#214,#221,#229,#237,#245,#252,#260,#267,#275,#283,#291,
#298,#306,#313,#321,#328,#336,#343,#351,#358,#366,#373,#381,#388,#396,#403,#411,
#418,#426,#433,#441,#449,#456,#463,#470,#477,#484,#491,#498,#506,#513,#520,#528,
#535,#543,#550,#557,#564,#571,#578,#585,#592,#599,#606,#614,#622,#629,#637,#644,
#652,#659,#666,#673,#680,#687,#694,#701,#708,#715,#722,#730,#737,#745,#752,#760,
#767,#774,#781,#788,#795,#18),#1569);
#1576=APPLICATION_CONTEXT('automotive design');
#1577=APPLICATION_PROTOCOL_DEFINITION('international standard',
'config_control_design',1994,#1576);
#1578=PRODUCT_DEFINITION_CONTEXT('',#1576,'design');
#1579=PRODUCT_CONTEXT('',#1576,'mechanical');
#1580=PRODUCT('MOTOR_MOUNT-200','MOTOR_MOUNT-200','NOT SPECIFIED',(#1579));
#1581=PRODUCT_DEFINITION_FORMATION_WITH_SPECIFIED_SOURCE('1','LAST_VERSION',
#1580,.MADE.);
#1589=LENGTH_MEASURE_WITH_UNIT(LENGTH_MEASURE(2.54E1),#1588);
#1590=(CONVERSION_BASED_UNIT('INCH',#1589)LENGTH_UNIT()NAMED_UNIT(*));
#1591=DERIVED_UNIT_ELEMENT(#1590,2.E0);
#1592=AREA_UNIT((#1591));
#1593=MEASURE_REPRESENTATION_ITEM('surface area measure',AREA_MEASURE(
8.510642425590E1),#1592);
#1598=LENGTH_MEASURE_WITH_UNIT(LENGTH_MEASURE(2.54E1),#1597);
#1599=(CONVERSION_BASED_UNIT('INCH',#1598)LENGTH_UNIT()NAMED_UNIT(*));
#1600=DERIVED_UNIT_ELEMENT(#1599,3.E0);
#1601=VOLUME_UNIT((#1600));
#1602=MEASURE_REPRESENTATION_ITEM('volume measure',VOLUME_MEASURE(
3.776916117422E1),#1601);
#1606=CARTESIAN_POINT('centre point',(-1.755819818211E-12,0.E0,
-9.893567780997E0));
#1611=LENGTH_MEASURE_WITH_UNIT(LENGTH_MEASURE(2.54E1),#1610);
#1612=(CONVERSION_BASED_UNIT('INCH',#1611)LENGTH_UNIT()NAMED_UNIT(*));
#1613=DERIVED_UNIT_ELEMENT(#1612,2.E0);
#1614=AREA_UNIT((#1613));
#1615=MEASURE_REPRESENTATION_ITEM('surface area measure',AREA_MEASURE(
8.510642425590E1),#1614);
#1620=LENGTH_MEASURE_WITH_UNIT(LENGTH_MEASURE(2.54E1),#1619);
#1621=(CONVERSION_BASED_UNIT('INCH',#1620)LENGTH_UNIT()NAMED_UNIT(*));
#1622=DERIVED_UNIT_ELEMENT(#1621,3.E0);
#1623=VOLUME_UNIT((#1622));
#1624=MEASURE_REPRESENTATION_ITEM('volume measure',VOLUME_MEASURE(
3.776916117422E1),#1623);
#1628=CARTESIAN_POINT('centre point',(-1.755819818211E-12,0.E0,
-9.893567780997E0));
#1=COLOUR_RGB('',5.921568627451E-1,5.921568627451E-1,5.921568627451E-1);
#2=DRAUGHTING_PRE_DEFINED_COLOUR('green');
#3=COLOUR_RGB('',1.1E-2,1.2E-2,1.E0);
#4=COLOUR_RGB('',9.803921568627E-2,9.803921568627E-2,9.803921568627E-2);
#5=COLOUR_RGB('',2.352941176471E-1,2.352941176471E-1,2.352941176471E-1);
#6=COLOUR_RGB('',4.1E-1,2.61589E-1,1.12848E-1);
#7=COLOUR_RGB('',5.04854E-1,1.5455E-2,1.5455E-2);
#8=COLOUR_RGB('',5.921568627451E-1,5.921568627451E-1,5.921568627451E-1);
#9=COLOUR_RGB('',6.35294E-1,6.86275E-1,7.4902E-1);
#10=COLOUR_RGB('',6.40777E-1,6.40777E-1,6.40777E-1);
#11=COLOUR_RGB('',6.69062E-1,6.69903E-1,6.55217E-1);
#12=COLOUR_RGB('',9.21569E-1,7.05882E-1,4.70588E-1);
#13=DRAUGHTING_PRE_DEFINED_COLOUR('red');
#14=DRAUGHTING_PRE_DEFINED_COLOUR('yellow');
#15=COLOUR_RGB('',1.E0,1.E0,5.3E-1);
#16=COLOUR_RGB('',1.E0,1.E0,9.49E-1);
#17=DRAUGHTING_PRE_DEFINED_COLOUR('white');
#23=CIRCLE('',#22,1.181102362205E-1);
#32=CIRCLE('',#31,1.181102362205E-1);
#103=CIRCLE('',#102,9.842519685039E-2);
#111=CIRCLE('',#110,9.842519685039E-2);
#126=CIRCLE('',#125,1.181102362205E-1);
#134=CIRCLE('',#133,1.181102362205E-1);
#142=CIRCLE('',#141,9.842519685039E-2);
#150=CIRCLE('',#149,9.842519685039E-2);
#165=CIRCLE('',#164,1.181102362205E-1);
#180=CIRCLE('',#179,9.842519685039E-2);
#188=CIRCLE('',#187,9.842519685039E-2);
#196=CIRCLE('',#195,9.842519685039E-2);
#211=CIRCLE('',#210,1.181102362205E-1);
#226=CIRCLE('',#225,9.842519685039E-2);
#234=CIRCLE('',#233,9.842519685039E-2);
#242=CIRCLE('',#241,9.842519685039E-2);
#257=CIRCLE('',#256,1.181102362205E-1);
#272=CIRCLE('',#271,9.842519685039E-2);
#280=CIRCLE('',#279,9.842519685039E-2);
#288=CIRCLE('',#287,9.842519685039E-2);
#303=CIRCLE('',#302,1.181102362205E-1);
#318=CIRCLE('',#317,9.842519685039E-2);
#333=CIRCLE('',#332,1.181102362205E-1);
#348=CIRCLE('',#347,9.842519685039E-2);
#363=CIRCLE('',#362,1.181102362205E-1);
#378=CIRCLE('',#377,9.842519685039E-2);
#393=CIRCLE('',#392,1.181102362205E-1);
#408=CIRCLE('',#407,9.842519685039E-2);
#423=CIRCLE('',#422,1.181102362205E-1);
#438=CIRCLE('',#437,9.842519685039E-2);
#446=CIRCLE('',#445,9.842519685039E-2);
#503=CIRCLE('',#502,1.181102362205E-1);
#525=CIRCLE('',#524,1.181102362205E-1);
#540=CIRCLE('',#539,9.842519685039E-2);
#611=CIRCLE('',#610,1.181102362205E-1);
#619=CIRCLE('',#618,1.181102362205E-1);
#634=CIRCLE('',#633,1.181102362205E-1);
#649=CIRCLE('',#648,9.842519685039E-2);
#727=CIRCLE('',#726,1.181102362205E-1);
#742=CIRCLE('',#741,9.842519685039E-2);
#757=CIRCLE('',#756,1.181102362205E-1);
#939=EDGE_CURVE('',#798,#799,#39,.T.);
#941=EDGE_CURVE('',#805,#799,#23,.T.);
#943=EDGE_CURVE('',#803,#805,#32,.T.);
#945=EDGE_CURVE('',#803,#801,#74,.T.);
#947=EDGE_CURVE('',#801,#798,#142,.T.);
#951=ADVANCED_FACE('',(#950),#938,.T.);
#958=EDGE_CURVE('',#798,#889,#53,.T.);
#960=EDGE_CURVE('',#889,#887,#95,.T.);
#962=EDGE_CURVE('',#887,#799,#81,.T.);
#966=ADVANCED_FACE('',(#965),#956,.T.);
#972=EDGE_CURVE('',#807,#801,#46,.T.);
#974=EDGE_CURVE('',#807,#893,#111,.T.);
#976=EDGE_CURVE('',#893,#889,#103,.T.);
#979=EDGE_CURVE('',#798,#811,#318,.T.);
#981=EDGE_CURVE('',#908,#811,#60,.T.);
#983=EDGE_CURVE('',#908,#909,#446,.T.);
#985=EDGE_CURVE('',#909,#905,#438,.T.);
#987=EDGE_CURVE('',#853,#905,#67,.T.);
#989=EDGE_CURVE('',#853,#801,#150,.T.);
#993=ADVANCED_FACE('',(#992),#971,.T.);
#1000=EDGE_CURVE('',#803,#809,#88,.T.);
#1002=EDGE_CURVE('',#809,#807,#118,.T.);
#1007=ADVANCED_FACE('',(#1006),#998,.T.);
#1015=EDGE_CURVE('',#887,#891,#134,.T.);
#1017=EDGE_CURVE('',#891,#809,#126,.T.);
#1023=ADVANCED_FACE('',(#1022),#1012,.T.);
#1037=ADVANCED_FACE('',(#1036),#1028,.T.);
#1045=EDGE_CURVE('',#851,#853,#157,.T.);
#1047=EDGE_CURVE('',#849,#851,#165,.T.);
#1049=EDGE_CURVE('',#847,#849,#172,.T.);
#1051=EDGE_CURVE('',#845,#847,#180,.T.);
#1053=EDGE_CURVE('',#843,#845,#188,.T.);
#1055=EDGE_CURVE('',#841,#843,#196,.T.);
#1057=EDGE_CURVE('',#839,#841,#203,.T.);
#1059=EDGE_CURVE('',#837,#839,#211,.T.);
#1061=EDGE_CURVE('',#835,#837,#218,.T.);
#1063=EDGE_CURVE('',#833,#835,#226,.T.);
#1065=EDGE_CURVE('',#831,#833,#234,.T.);
#1067=EDGE_CURVE('',#829,#831,#242,.T.);
#1069=EDGE_CURVE('',#827,#829,#249,.T.);
#1071=EDGE_CURVE('',#825,#827,#257,.T.);
#1073=EDGE_CURVE('',#823,#825,#264,.T.);
#1075=EDGE_CURVE('',#821,#823,#272,.T.);
#1077=EDGE_CURVE('',#819,#821,#280,.T.);
#1079=EDGE_CURVE('',#817,#819,#288,.T.);
#1081=EDGE_CURVE('',#815,#817,#295,.T.);
#1083=EDGE_CURVE('',#813,#815,#303,.T.);
#1085=EDGE_CURVE('',#811,#813,#310,.T.);
#1090=ADVANCED_FACE('',(#1089),#1042,.F.);
#1096=EDGE_CURVE('',#905,#927,#430,.T.);
#1098=EDGE_CURVE('',#927,#851,#785,.T.);
#1104=ADVANCED_FACE('',(#1103),#1095,.T.);
#1110=EDGE_CURVE('',#925,#908,#325,.T.);
#1112=EDGE_CURVE('',#923,#925,#333,.T.);
#1114=EDGE_CURVE('',#911,#923,#340,.T.);
#1116=EDGE_CURVE('',#913,#911,#348,.T.);
#1118=EDGE_CURVE('',#921,#913,#355,.T.);
#1120=EDGE_CURVE('',#919,#921,#363,.T.);
#1122=EDGE_CURVE('',#901,#919,#370,.T.);
#1124=EDGE_CURVE('',#903,#901,#378,.T.);
#1126=EDGE_CURVE('',#933,#903,#385,.T.);
#1128=EDGE_CURVE('',#931,#933,#393,.T.);
#1130=EDGE_CURVE('',#915,#931,#400,.T.);
#1132=EDGE_CURVE('',#917,#915,#408,.T.);
#1134=EDGE_CURVE('',#929,#917,#415,.T.);
#1136=EDGE_CURVE('',#927,#929,#423,.T.);
#1143=ADVANCED_FACE('',(#1142),#1109,.T.);
#1152=EDGE_CURVE('',#813,#925,#453,.T.);
#1156=ADVANCED_FACE('',(#1155),#1148,.T.);
#1164=EDGE_CURVE('',#923,#815,#460,.T.);
#1169=ADVANCED_FACE('',(#1168),#1161,.T.);
#1178=EDGE_CURVE('',#817,#911,#488,.T.);
#1182=ADVANCED_FACE('',(#1181),#1174,.T.);
#1188=EDGE_CURVE('',#883,#819,#467,.T.);
#1190=EDGE_CURVE('',#883,#895,#540,.T.);
#1192=EDGE_CURVE('',#821,#895,#474,.T.);
#1195=EDGE_CURVE('',#913,#823,#481,.T.);
#1202=ADVANCED_FACE('',(#1201),#1187,.T.);
#1208=EDGE_CURVE('',#877,#819,#495,.T.);
#1210=EDGE_CURVE('',#877,#879,#554,.T.);
#1212=EDGE_CURVE('',#879,#883,#517,.T.);
#1217=ADVANCED_FACE('',(#1216),#1207,.T.);
#1223=EDGE_CURVE('',#821,#875,#510,.T.);
#1225=EDGE_CURVE('',#877,#875,#503,.T.);
#1231=ADVANCED_FACE('',(#1230),#1222,.T.);
#1239=EDGE_CURVE('',#895,#881,#532,.T.);
#1241=EDGE_CURVE('',#881,#875,#547,.T.);
#1245=ADVANCED_FACE('',(#1244),#1236,.T.);
#1252=EDGE_CURVE('',#881,#879,#525,.T.);
#1258=ADVANCED_FACE('',(#1257),#1250,.T.);
#1270=ADVANCED_FACE('',(#1269),#1263,.T.);
#1279=EDGE_CURVE('',#825,#921,#561,.T.);
#1283=ADVANCED_FACE('',(#1282),#1275,.T.);
#1291=EDGE_CURVE('',#919,#827,#568,.T.);
#1296=ADVANCED_FACE('',(#1295),#1288,.T.);
#1305=EDGE_CURVE('',#829,#901,#596,.T.);
#1309=ADVANCED_FACE('',(#1308),#1301,.T.);
#1315=EDGE_CURVE('',#873,#831,#575,.T.);
#1317=EDGE_CURVE('',#873,#885,#649,.T.);
#1319=EDGE_CURVE('',#833,#885,#582,.T.);
#1322=EDGE_CURVE('',#903,#835,#589,.T.);
#1329=ADVANCED_FACE('',(#1328),#1314,.T.);
#1335=EDGE_CURVE('',#865,#831,#603,.T.);
#1337=EDGE_CURVE('',#865,#869,#670,.T.);
#1339=EDGE_CURVE('',#869,#873,#656,.T.);
#1344=ADVANCED_FACE('',(#1343),#1334,.T.);
#1350=EDGE_CURVE('',#833,#863,#626,.T.);
#1352=EDGE_CURVE('',#867,#863,#611,.T.);
#1354=EDGE_CURVE('',#865,#867,#619,.T.);
#1360=ADVANCED_FACE('',(#1359),#1349,.T.);
#1368=EDGE_CURVE('',#885,#871,#641,.T.);
#1370=EDGE_CURVE('',#871,#863,#663,.T.);
#1374=ADVANCED_FACE('',(#1373),#1365,.T.);
#1380=EDGE_CURVE('',#871,#869,#634,.T.);
#1387=ADVANCED_FACE('',(#1386),#1379,.T.);
#1400=ADVANCED_FACE('',(#1399),#1392,.T.);
#1409=EDGE_CURVE('',#837,#933,#684,.T.);
#1413=ADVANCED_FACE('',(#1412),#1405,.T.);
#1419=EDGE_CURVE('',#931,#839,#677,.T.);
#1426=ADVANCED_FACE('',(#1425),#1418,.T.);
#1435=EDGE_CURVE('',#841,#915,#712,.T.);
#1439=ADVANCED_FACE('',(#1438),#1431,.T.);
#1445=EDGE_CURVE('',#897,#843,#691,.T.);
#1447=EDGE_CURVE('',#897,#861,#742,.T.);
#1449=EDGE_CURVE('',#845,#861,#698,.T.);
#1452=EDGE_CURVE('',#917,#847,#705,.T.);
#1459=ADVANCED_FACE('',(#1458),#1444,.T.);
#1465=EDGE_CURVE('',#857,#843,#719,.T.);
#1467=EDGE_CURVE('',#857,#899,#778,.T.);
#1469=EDGE_CURVE('',#899,#897,#749,.T.);
#1474=ADVANCED_FACE('',(#1473),#1464,.T.);
#1480=EDGE_CURVE('',#845,#855,#734,.T.);
#1482=EDGE_CURVE('',#857,#855,#727,.T.);
#1488=ADVANCED_FACE('',(#1487),#1479,.T.);
#1496=EDGE_CURVE('',#861,#859,#764,.T.);
#1498=EDGE_CURVE('',#859,#855,#771,.T.);
#1502=ADVANCED_FACE('',(#1501),#1493,.T.);
#1510=EDGE_CURVE('',#859,#899,#757,.T.);
#1515=ADVANCED_FACE('',(#1514),#1507,.T.);
#1527=ADVANCED_FACE('',(#1526),#1520,.T.);
#1536=EDGE_CURVE('',#849,#929,#792,.T.);
#1540=ADVANCED_FACE('',(#1539),#1532,.T.);
#1552=ADVANCED_FACE('',(#1551),#1545,.T.);
#1553=CLOSED_SHELL('',(#951,#966,#993,#1007,#1023,#1037,#1090,#1104,#1143,#1156,
#1169,#1182,#1202,#1217,#1231,#1245,#1258,#1270,#1283,#1296,#1309,#1329,#1344,
#1360,#1374,#1387,#1400,#1413,#1426,#1439,#1459,#1474,#1488,#1502,#1515,#1527,
#1540,#1552));
#1554=MANIFOLD_SOLID_BREP('',#1553);
#1561=(LENGTH_UNIT()NAMED_UNIT(*)SI_UNIT(.MILLI.,.METRE.));
#1564=(NAMED_UNIT(*)PLANE_ANGLE_UNIT()SI_UNIT($,.RADIAN.));
#1567=(NAMED_UNIT(*)SI_UNIT($,.STERADIAN.)SOLID_ANGLE_UNIT());
#1569=(GEOMETRIC_REPRESENTATION_CONTEXT(3)GLOBAL_UNCERTAINTY_ASSIGNED_CONTEXT((
#1568))GLOBAL_UNIT_ASSIGNED_CONTEXT((#1563,#1566,#1567))REPRESENTATION_CONTEXT(
'ID1','3'));
#1573=AXIS2_PLACEMENT_3D('',#1570,#1571,#1572);
#1574=ADVANCED_BREP_SHAPE_REPRESENTATION('',(#1573,#1554),#1569);
#1582=PRODUCT_DEFINITION('design','',#1581,#1578);
#1583=PRODUCT_DEFINITION_SHAPE('','SHAPE FOR MOTOR_MOUNT-200.',#1582);
#1584=SHAPE_ASPECT('','solid data associated with MOTOR_MOUNT-200',#1583,.F.);
#1585=PROPERTY_DEFINITION('',
'shape for solid data with which properties are associated',#1584);
#1586=SHAPE_REPRESENTATION('',(#1554),#1569);
#1587=SHAPE_DEFINITION_REPRESENTATION(#1585,#1586);
#1588=(LENGTH_UNIT()NAMED_UNIT(*)SI_UNIT(.MILLI.,.METRE.));
#1594=PROPERTY_DEFINITION('geometric validation property',
'area of MOTOR_MOUNT-200',#1584);
#1595=REPRESENTATION('surface area',(#1593),#1569);
#1596=PROPERTY_DEFINITION_REPRESENTATION(#1594,#1595);
#1597=(LENGTH_UNIT()NAMED_UNIT(*)SI_UNIT(.MILLI.,.METRE.));
#1603=PROPERTY_DEFINITION('geometric validation property',
'volume of MOTOR_MOUNT-200',#1584);
#1604=REPRESENTATION('volume',(#1602),#1569);
#1605=PROPERTY_DEFINITION_REPRESENTATION(#1603,#1604);
#1607=PROPERTY_DEFINITION('geometric validation property',
'centroid of MOTOR_MOUNT-200',#1584);
#1608=REPRESENTATION('centroid',(#1606),#1569);
#1609=PROPERTY_DEFINITION_REPRESENTATION(#1607,#1608);
#1610=(LENGTH_UNIT()NAMED_UNIT(*)SI_UNIT(.MILLI.,.METRE.));
#1616=PROPERTY_DEFINITION('geometric validation property',
'area of MOTOR_MOUNT-200',#1583);
#1617=REPRESENTATION('surface area',(#1615),#1569);
#1618=PROPERTY_DEFINITION_REPRESENTATION(#1616,#1617);
#1619=(LENGTH_UNIT()NAMED_UNIT(*)SI_UNIT(.MILLI.,.METRE.));
#1625=PROPERTY_DEFINITION('geometric validation property',
'volume of MOTOR_MOUNT-200',#1583);
#1626=REPRESENTATION('volume',(#1624),#1569);
#1627=PROPERTY_DEFINITION_REPRESENTATION(#1625,#1626);
#1629=PROPERTY_DEFINITION('geometric validation property',
'centroid of MOTOR_MOUNT-200',#1583);
#1630=REPRESENTATION('centroid',(#1628),#1569);
#1631=PROPERTY_DEFINITION_REPRESENTATION(#1629,#1630);
#1632=SHAPE_DEFINITION_REPRESENTATION(#1583,#1574);
ENDSEC;
END-ISO-10303-21;
