ISO-10303-21;
HEADER;
FILE_DESCRIPTION((''),'2;1');
FILE_NAME('MOUNTING_TAPE','2026-06-15T13:45:32',('Esia'),(''),
'CREO PARAMETRIC BY PTC INC, 2025102','CREO PARAMETRIC BY PTC INC, 2025102','');
FILE_SCHEMA((
'AP242_MANAGED_MODEL_BASED_3D_ENGINEERING_MIM_LF { 1 0 10303 442 1 1 4 }'));
ENDSEC;
DATA;
#17=DIRECTION('',(0.E0,0.E0,-1.E0));
#18=VECTOR('',#17,5.203545706548E-1);
#19=CARTESIAN_POINT('',(0.E0,0.E0,-9.238372635634E-1));
#20=LINE('',#19,#18);
#21=DRAUGHTING_PRE_DEFINED_CURVE_FONT('continuous');
#22=CURVE_STYLE('',#21,POSITIVE_LENGTH_MEASURE(2.E-2),#9);
#23=PRESENTATION_STYLE_ASSIGNMENT((#22));
#24=STYLED_ITEM('',(#23),#20);
#25=DIRECTION('',(-1.E0,0.E0,0.E0));
#26=VECTOR('',#25,1.263905220472E-1);
#27=CARTESIAN_POINT('',(0.E0,0.E0,-1.444191834218E0));
#28=LINE('',#27,#26);
#29=CURVE_STYLE('',#21,POSITIVE_LENGTH_MEASURE(2.E-2),#9);
#30=PRESENTATION_STYLE_ASSIGNMENT((#29));
#31=STYLED_ITEM('',(#30),#28);
#32=DIRECTION('',(0.E0,0.E0,-1.E0));
#33=VECTOR('',#32,5.600852346901E-2);
#34=CARTESIAN_POINT('',(-1.263905220472E-1,0.E0,-1.444191834218E0));
#35=LINE('',#34,#33);
#36=CURVE_STYLE('',#21,POSITIVE_LENGTH_MEASURE(2.E-2),#9);
#37=PRESENTATION_STYLE_ASSIGNMENT((#36));
#38=STYLED_ITEM('',(#37),#35);
#39=DIRECTION('',(1.E0,0.E0,0.E0));
#40=VECTOR('',#39,1.263905220472E-1);
#41=CARTESIAN_POINT('',(-1.263905220472E-1,0.E0,-1.500200357687E0));
#42=LINE('',#41,#40);
#43=CURVE_STYLE('',#21,POSITIVE_LENGTH_MEASURE(2.E-2),#9);
#44=PRESENTATION_STYLE_ASSIGNMENT((#43));
#45=STYLED_ITEM('',(#44),#42);
#46=DIRECTION('',(0.E0,0.E0,-1.E0));
#47=VECTOR('',#46,6.25E-2);
#48=CARTESIAN_POINT('',(0.E0,0.E0,-1.500200357687E0));
#49=LINE('',#48,#47);
#50=CURVE_STYLE('',#21,POSITIVE_LENGTH_MEASURE(2.E-2),#9);
#51=PRESENTATION_STYLE_ASSIGNMENT((#50));
#52=STYLED_ITEM('',(#51),#49);
#53=DIRECTION('',(1.E0,0.E0,0.E0));
#54=VECTOR('',#53,4.356573765599E-1);
#55=CARTESIAN_POINT('',(0.E0,0.E0,-1.562700357687E0));
#56=LINE('',#55,#54);
#57=CURVE_STYLE('',#21,POSITIVE_LENGTH_MEASURE(2.E-2),#9);
#58=PRESENTATION_STYLE_ASSIGNMENT((#57));
#59=STYLED_ITEM('',(#58),#56);
#60=DIRECTION('',(0.E0,0.E0,1.E0));
#61=VECTOR('',#60,6.25E-2);
#62=CARTESIAN_POINT('',(4.356573765599E-1,0.E0,-1.562700357687E0));
#63=LINE('',#62,#61);
#64=CURVE_STYLE('',#21,POSITIVE_LENGTH_MEASURE(2.E-2),#9);
#65=PRESENTATION_STYLE_ASSIGNMENT((#64));
#66=STYLED_ITEM('',(#65),#63);
#67=DIRECTION('',(-1.E0,0.E0,0.E0));
#68=VECTOR('',#67,3.731573765599E-1);
#69=CARTESIAN_POINT('',(4.356573765599E-1,0.E0,-1.500200357687E0));
#70=LINE('',#69,#68);
#71=CURVE_STYLE('',#21,POSITIVE_LENGTH_MEASURE(2.E-2),#9);
#72=PRESENTATION_STYLE_ASSIGNMENT((#71));
#73=STYLED_ITEM('',(#72),#70);
#74=DIRECTION('',(0.E0,0.E0,1.E0));
#75=VECTOR('',#74,6.388630941238E-1);
#76=CARTESIAN_POINT('',(6.25E-2,0.E0,-1.500200357687E0));
#77=LINE('',#76,#75);
#78=CURVE_STYLE('',#21,POSITIVE_LENGTH_MEASURE(2.E-2),#9);
#79=PRESENTATION_STYLE_ASSIGNMENT((#78));
#80=STYLED_ITEM('',(#79),#77);
#81=DIRECTION('',(-1.E0,0.E0,0.E0));
#82=VECTOR('',#81,1.263905220472E-1);
#83=CARTESIAN_POINT('',(6.25E-2,0.E0,-8.613372635634E-1));
#84=LINE('',#83,#82);
#85=CURVE_STYLE('',#21,POSITIVE_LENGTH_MEASURE(2.E-2),#9);
#86=PRESENTATION_STYLE_ASSIGNMENT((#85));
#87=STYLED_ITEM('',(#86),#84);
#88=DIRECTION('',(0.E0,0.E0,1.E0));
#89=VECTOR('',#88,1.359793246991E-1);
#90=CARTESIAN_POINT('',(-6.389052204724E-2,0.E0,-8.613372635634E-1));
#91=LINE('',#90,#89);
#92=CURVE_STYLE('',#21,POSITIVE_LENGTH_MEASURE(2.E-2),#9);
#93=PRESENTATION_STYLE_ASSIGNMENT((#92));
#94=STYLED_ITEM('',(#93),#91);
#95=DIRECTION('',(-1.E0,0.E0,0.E0));
#96=VECTOR('',#95,6.25E-2);
#97=CARTESIAN_POINT('',(-6.389052204724E-2,0.E0,-7.253579388643E-1));
#98=LINE('',#97,#96);
#99=CURVE_STYLE('',#21,POSITIVE_LENGTH_MEASURE(2.E-2),#9);
#100=PRESENTATION_STYLE_ASSIGNMENT((#99));
#101=STYLED_ITEM('',(#100),#98);
#102=DIRECTION('',(0.E0,0.E0,-1.E0));
#103=VECTOR('',#102,1.984793246991E-1);
#104=CARTESIAN_POINT('',(-1.263905220472E-1,0.E0,-7.253579388643E-1));
#105=LINE('',#104,#103);
#106=CURVE_STYLE('',#21,POSITIVE_LENGTH_MEASURE(2.E-2),#9);
#107=PRESENTATION_STYLE_ASSIGNMENT((#106));
#108=STYLED_ITEM('',(#107),#105);
#109=DIRECTION('',(1.E0,0.E0,0.E0));
#110=VECTOR('',#109,1.263905220472E-1);
#111=CARTESIAN_POINT('',(-1.263905220472E-1,0.E0,-9.238372635634E-1));
#112=LINE('',#111,#110);
#113=CURVE_STYLE('',#21,POSITIVE_LENGTH_MEASURE(2.E-2),#9);
#114=PRESENTATION_STYLE_ASSIGNMENT((#113));
#115=STYLED_ITEM('',(#114),#112);
#116=DIRECTION('',(0.E0,-1.E0,0.E0));
#117=VECTOR('',#116,5.E-1);
#118=CARTESIAN_POINT('',(0.E0,0.E0,-9.238372635634E-1));
#119=LINE('',#118,#117);
#120=CURVE_STYLE('',#21,POSITIVE_LENGTH_MEASURE(2.E-2),#9);
#121=PRESENTATION_STYLE_ASSIGNMENT((#120));
#122=STYLED_ITEM('',(#121),#119);
#123=DIRECTION('',(0.E0,-1.E0,0.E0));
#124=VECTOR('',#123,5.E-1);
#125=CARTESIAN_POINT('',(-1.263905220472E-1,0.E0,-9.238372635634E-1));
#126=LINE('',#125,#124);
#127=CURVE_STYLE('',#21,POSITIVE_LENGTH_MEASURE(2.E-2),#9);
#128=PRESENTATION_STYLE_ASSIGNMENT((#127));
#129=STYLED_ITEM('',(#128),#126);
#130=DIRECTION('',(0.E0,-1.E0,0.E0));
#131=VECTOR('',#130,5.E-1);
#132=CARTESIAN_POINT('',(-1.263905220472E-1,0.E0,-7.253579388643E-1));
#133=LINE('',#132,#131);
#134=CURVE_STYLE('',#21,POSITIVE_LENGTH_MEASURE(2.E-2),#9);
#135=PRESENTATION_STYLE_ASSIGNMENT((#134));
#136=STYLED_ITEM('',(#135),#133);
#137=DIRECTION('',(0.E0,-1.E0,0.E0));
#138=VECTOR('',#137,5.E-1);
#139=CARTESIAN_POINT('',(-6.389052204724E-2,0.E0,-7.253579388643E-1));
#140=LINE('',#139,#138);
#141=CURVE_STYLE('',#21,POSITIVE_LENGTH_MEASURE(2.E-2),#9);
#142=PRESENTATION_STYLE_ASSIGNMENT((#141));
#143=STYLED_ITEM('',(#142),#140);
#144=DIRECTION('',(0.E0,-1.E0,0.E0));
#145=VECTOR('',#144,5.E-1);
#146=CARTESIAN_POINT('',(-6.389052204724E-2,0.E0,-8.613372635634E-1));
#147=LINE('',#146,#145);
#148=CURVE_STYLE('',#21,POSITIVE_LENGTH_MEASURE(2.E-2),#9);
#149=PRESENTATION_STYLE_ASSIGNMENT((#148));
#150=STYLED_ITEM('',(#149),#147);
#151=DIRECTION('',(0.E0,-1.E0,0.E0));
#152=VECTOR('',#151,5.E-1);
#153=CARTESIAN_POINT('',(6.25E-2,0.E0,-8.613372635634E-1));
#154=LINE('',#153,#152);
#155=CURVE_STYLE('',#21,POSITIVE_LENGTH_MEASURE(2.E-2),#9);
#156=PRESENTATION_STYLE_ASSIGNMENT((#155));
#157=STYLED_ITEM('',(#156),#154);
#158=DIRECTION('',(0.E0,-1.E0,0.E0));
#159=VECTOR('',#158,5.E-1);
#160=CARTESIAN_POINT('',(6.25E-2,0.E0,-1.500200357687E0));
#161=LINE('',#160,#159);
#162=CURVE_STYLE('',#21,POSITIVE_LENGTH_MEASURE(2.E-2),#9);
#163=PRESENTATION_STYLE_ASSIGNMENT((#162));
#164=STYLED_ITEM('',(#163),#161);
#165=DIRECTION('',(0.E0,-1.E0,0.E0));
#166=VECTOR('',#165,5.E-1);
#167=CARTESIAN_POINT('',(4.356573765599E-1,0.E0,-1.500200357687E0));
#168=LINE('',#167,#166);
#169=CURVE_STYLE('',#21,POSITIVE_LENGTH_MEASURE(2.E-2),#9);
#170=PRESENTATION_STYLE_ASSIGNMENT((#169));
#171=STYLED_ITEM('',(#170),#168);
#172=DIRECTION('',(0.E0,-1.E0,0.E0));
#173=VECTOR('',#172,5.E-1);
#174=CARTESIAN_POINT('',(4.356573765599E-1,0.E0,-1.562700357687E0));
#175=LINE('',#174,#173);
#176=CURVE_STYLE('',#21,POSITIVE_LENGTH_MEASURE(2.E-2),#9);
#177=PRESENTATION_STYLE_ASSIGNMENT((#176));
#178=STYLED_ITEM('',(#177),#175);
#179=DIRECTION('',(0.E0,-1.E0,0.E0));
#180=VECTOR('',#179,5.E-1);
#181=CARTESIAN_POINT('',(0.E0,0.E0,-1.562700357687E0));
#182=LINE('',#181,#180);
#183=CURVE_STYLE('',#21,POSITIVE_LENGTH_MEASURE(2.E-2),#9);
#184=PRESENTATION_STYLE_ASSIGNMENT((#183));
#185=STYLED_ITEM('',(#184),#182);
#186=DIRECTION('',(0.E0,-1.E0,0.E0));
#187=VECTOR('',#186,5.E-1);
#188=CARTESIAN_POINT('',(0.E0,0.E0,-1.500200357687E0));
#189=LINE('',#188,#187);
#190=CURVE_STYLE('',#21,POSITIVE_LENGTH_MEASURE(2.E-2),#9);
#191=PRESENTATION_STYLE_ASSIGNMENT((#190));
#192=STYLED_ITEM('',(#191),#189);
#193=DIRECTION('',(0.E0,-1.E0,0.E0));
#194=VECTOR('',#193,5.E-1);
#195=CARTESIAN_POINT('',(-1.263905220472E-1,0.E0,-1.500200357687E0));
#196=LINE('',#195,#194);
#197=CURVE_STYLE('',#21,POSITIVE_LENGTH_MEASURE(2.E-2),#9);
#198=PRESENTATION_STYLE_ASSIGNMENT((#197));
#199=STYLED_ITEM('',(#198),#196);
#200=DIRECTION('',(0.E0,-1.E0,0.E0));
#201=VECTOR('',#200,5.E-1);
#202=CARTESIAN_POINT('',(-1.263905220472E-1,0.E0,-1.444191834218E0));
#203=LINE('',#202,#201);
#204=CURVE_STYLE('',#21,POSITIVE_LENGTH_MEASURE(2.E-2),#9);
#205=PRESENTATION_STYLE_ASSIGNMENT((#204));
#206=STYLED_ITEM('',(#205),#203);
#207=DIRECTION('',(0.E0,-1.E0,0.E0));
#208=VECTOR('',#207,5.E-1);
#209=CARTESIAN_POINT('',(0.E0,0.E0,-1.444191834218E0));
#210=LINE('',#209,#208);
#211=CURVE_STYLE('',#21,POSITIVE_LENGTH_MEASURE(2.E-2),#9);
#212=PRESENTATION_STYLE_ASSIGNMENT((#211));
#213=STYLED_ITEM('',(#212),#210);
#214=DIRECTION('',(0.E0,0.E0,-1.E0));
#215=VECTOR('',#214,5.203545706548E-1);
#216=CARTESIAN_POINT('',(0.E0,-5.E-1,-9.238372635634E-1));
#217=LINE('',#216,#215);
#218=CURVE_STYLE('',#21,POSITIVE_LENGTH_MEASURE(2.E-2),#9);
#219=PRESENTATION_STYLE_ASSIGNMENT((#218));
#220=STYLED_ITEM('',(#219),#217);
#221=DIRECTION('',(1.E0,0.E0,0.E0));
#222=VECTOR('',#221,1.263905220472E-1);
#223=CARTESIAN_POINT('',(-1.263905220472E-1,-5.E-1,-9.238372635634E-1));
#224=LINE('',#223,#222);
#225=CURVE_STYLE('',#21,POSITIVE_LENGTH_MEASURE(2.E-2),#9);
#226=PRESENTATION_STYLE_ASSIGNMENT((#225));
#227=STYLED_ITEM('',(#226),#224);
#228=DIRECTION('',(0.E0,0.E0,-1.E0));
#229=VECTOR('',#228,1.984793246991E-1);
#230=CARTESIAN_POINT('',(-1.263905220472E-1,-5.E-1,-7.253579388643E-1));
#231=LINE('',#230,#229);
#232=CURVE_STYLE('',#21,POSITIVE_LENGTH_MEASURE(2.E-2),#9);
#233=PRESENTATION_STYLE_ASSIGNMENT((#232));
#234=STYLED_ITEM('',(#233),#231);
#235=DIRECTION('',(-1.E0,0.E0,0.E0));
#236=VECTOR('',#235,6.25E-2);
#237=CARTESIAN_POINT('',(-6.389052204724E-2,-5.E-1,-7.253579388643E-1));
#238=LINE('',#237,#236);
#239=CURVE_STYLE('',#21,POSITIVE_LENGTH_MEASURE(2.E-2),#9);
#240=PRESENTATION_STYLE_ASSIGNMENT((#239));
#241=STYLED_ITEM('',(#240),#238);
#242=DIRECTION('',(0.E0,0.E0,1.E0));
#243=VECTOR('',#242,1.359793246991E-1);
#244=CARTESIAN_POINT('',(-6.389052204724E-2,-5.E-1,-8.613372635634E-1));
#245=LINE('',#244,#243);
#246=CURVE_STYLE('',#21,POSITIVE_LENGTH_MEASURE(2.E-2),#9);
#247=PRESENTATION_STYLE_ASSIGNMENT((#246));
#248=STYLED_ITEM('',(#247),#245);
#249=DIRECTION('',(-1.E0,0.E0,0.E0));
#250=VECTOR('',#249,1.263905220472E-1);
#251=CARTESIAN_POINT('',(6.25E-2,-5.E-1,-8.613372635634E-1));
#252=LINE('',#251,#250);
#253=CURVE_STYLE('',#21,POSITIVE_LENGTH_MEASURE(2.E-2),#9);
#254=PRESENTATION_STYLE_ASSIGNMENT((#253));
#255=STYLED_ITEM('',(#254),#252);
#256=DIRECTION('',(0.E0,0.E0,1.E0));
#257=VECTOR('',#256,6.388630941238E-1);
#258=CARTESIAN_POINT('',(6.25E-2,-5.E-1,-1.500200357687E0));
#259=LINE('',#258,#257);
#260=CURVE_STYLE('',#21,POSITIVE_LENGTH_MEASURE(2.E-2),#9);
#261=PRESENTATION_STYLE_ASSIGNMENT((#260));
#262=STYLED_ITEM('',(#261),#259);
#263=DIRECTION('',(-1.E0,0.E0,0.E0));
#264=VECTOR('',#263,3.731573765599E-1);
#265=CARTESIAN_POINT('',(4.356573765599E-1,-5.E-1,-1.500200357687E0));
#266=LINE('',#265,#264);
#267=CURVE_STYLE('',#21,POSITIVE_LENGTH_MEASURE(2.E-2),#9);
#268=PRESENTATION_STYLE_ASSIGNMENT((#267));
#269=STYLED_ITEM('',(#268),#266);
#270=DIRECTION('',(0.E0,0.E0,1.E0));
#271=VECTOR('',#270,6.25E-2);
#272=CARTESIAN_POINT('',(4.356573765599E-1,-5.E-1,-1.562700357687E0));
#273=LINE('',#272,#271);
#274=CURVE_STYLE('',#21,POSITIVE_LENGTH_MEASURE(2.E-2),#9);
#275=PRESENTATION_STYLE_ASSIGNMENT((#274));
#276=STYLED_ITEM('',(#275),#273);
#277=DIRECTION('',(1.E0,0.E0,0.E0));
#278=VECTOR('',#277,4.356573765599E-1);
#279=CARTESIAN_POINT('',(0.E0,-5.E-1,-1.562700357687E0));
#280=LINE('',#279,#278);
#281=CURVE_STYLE('',#21,POSITIVE_LENGTH_MEASURE(2.E-2),#9);
#282=PRESENTATION_STYLE_ASSIGNMENT((#281));
#283=STYLED_ITEM('',(#282),#280);
#284=DIRECTION('',(0.E0,0.E0,-1.E0));
#285=VECTOR('',#284,6.25E-2);
#286=CARTESIAN_POINT('',(0.E0,-5.E-1,-1.500200357687E0));
#287=LINE('',#286,#285);
#288=CURVE_STYLE('',#21,POSITIVE_LENGTH_MEASURE(2.E-2),#9);
#289=PRESENTATION_STYLE_ASSIGNMENT((#288));
#290=STYLED_ITEM('',(#289),#287);
#291=DIRECTION('',(1.E0,0.E0,0.E0));
#292=VECTOR('',#291,1.263905220472E-1);
#293=CARTESIAN_POINT('',(-1.263905220472E-1,-5.E-1,-1.500200357687E0));
#294=LINE('',#293,#292);
#295=CURVE_STYLE('',#21,POSITIVE_LENGTH_MEASURE(2.E-2),#9);
#296=PRESENTATION_STYLE_ASSIGNMENT((#295));
#297=STYLED_ITEM('',(#296),#294);
#298=DIRECTION('',(0.E0,0.E0,-1.E0));
#299=VECTOR('',#298,5.600852346901E-2);
#300=CARTESIAN_POINT('',(-1.263905220472E-1,-5.E-1,-1.444191834218E0));
#301=LINE('',#300,#299);
#302=CURVE_STYLE('',#21,POSITIVE_LENGTH_MEASURE(2.E-2),#9);
#303=PRESENTATION_STYLE_ASSIGNMENT((#302));
#304=STYLED_ITEM('',(#303),#301);
#305=DIRECTION('',(-1.E0,0.E0,0.E0));
#306=VECTOR('',#305,1.263905220472E-1);
#307=CARTESIAN_POINT('',(0.E0,-5.E-1,-1.444191834218E0));
#308=LINE('',#307,#306);
#309=CURVE_STYLE('',#21,POSITIVE_LENGTH_MEASURE(2.E-2),#9);
#310=PRESENTATION_STYLE_ASSIGNMENT((#309));
#311=STYLED_ITEM('',(#310),#308);
#312=CARTESIAN_POINT('',(6.25E-2,0.E0,-1.500200357687E0));
#313=CARTESIAN_POINT('',(6.25E-2,0.E0,-8.613372635634E-1));
#314=VERTEX_POINT('',#312);
#315=VERTEX_POINT('',#313);
#316=CARTESIAN_POINT('',(4.356573765599E-1,0.E0,-1.500200357687E0));
#317=VERTEX_POINT('',#316);
#318=CARTESIAN_POINT('',(4.356573765599E-1,0.E0,-1.562700357687E0));
#319=VERTEX_POINT('',#318);
#320=CARTESIAN_POINT('',(0.E0,0.E0,-1.562700357687E0));
#321=VERTEX_POINT('',#320);
#322=CARTESIAN_POINT('',(0.E0,0.E0,-9.238372635634E-1));
#323=CARTESIAN_POINT('',(0.E0,0.E0,-1.444191834218E0));
#324=VERTEX_POINT('',#322);
#325=VERTEX_POINT('',#323);
#326=CARTESIAN_POINT('',(6.25E-2,-5.E-1,-1.500200357687E0));
#327=CARTESIAN_POINT('',(6.25E-2,-5.E-1,-8.613372635634E-1));
#328=VERTEX_POINT('',#326);
#329=VERTEX_POINT('',#327);
#330=CARTESIAN_POINT('',(4.356573765599E-1,-5.E-1,-1.500200357687E0));
#331=VERTEX_POINT('',#330);
#332=CARTESIAN_POINT('',(4.356573765599E-1,-5.E-1,-1.562700357687E0));
#333=VERTEX_POINT('',#332);
#334=CARTESIAN_POINT('',(0.E0,-5.E-1,-1.562700357687E0));
#335=VERTEX_POINT('',#334);
#336=CARTESIAN_POINT('',(0.E0,-5.E-1,-9.238372635634E-1));
#337=CARTESIAN_POINT('',(0.E0,-5.E-1,-1.444191834218E0));
#338=VERTEX_POINT('',#336);
#339=VERTEX_POINT('',#337);
#340=CARTESIAN_POINT('',(-6.389052204724E-2,0.E0,-8.613372635634E-1));
#341=VERTEX_POINT('',#340);
#342=CARTESIAN_POINT('',(-6.389052204724E-2,0.E0,-7.253579388643E-1));
#343=VERTEX_POINT('',#342);
#344=CARTESIAN_POINT('',(-1.263905220472E-1,0.E0,-7.253579388643E-1));
#345=VERTEX_POINT('',#344);
#346=CARTESIAN_POINT('',(-1.263905220472E-1,0.E0,-9.238372635634E-1));
#347=VERTEX_POINT('',#346);
#348=CARTESIAN_POINT('',(-6.389052204724E-2,-5.E-1,-8.613372635634E-1));
#349=VERTEX_POINT('',#348);
#350=CARTESIAN_POINT('',(-6.389052204724E-2,-5.E-1,-7.253579388643E-1));
#351=VERTEX_POINT('',#350);
#352=CARTESIAN_POINT('',(-1.263905220472E-1,-5.E-1,-7.253579388643E-1));
#353=VERTEX_POINT('',#352);
#354=CARTESIAN_POINT('',(-1.263905220472E-1,-5.E-1,-9.238372635634E-1));
#355=VERTEX_POINT('',#354);
#356=CARTESIAN_POINT('',(-1.263905220472E-1,0.E0,-1.444191834218E0));
#357=CARTESIAN_POINT('',(-1.263905220472E-1,0.E0,-1.500200357687E0));
#358=VERTEX_POINT('',#356);
#359=VERTEX_POINT('',#357);
#360=CARTESIAN_POINT('',(-1.263905220472E-1,-5.E-1,-1.444191834218E0));
#361=CARTESIAN_POINT('',(-1.263905220472E-1,-5.E-1,-1.500200357687E0));
#362=VERTEX_POINT('',#360);
#363=VERTEX_POINT('',#361);
#364=CARTESIAN_POINT('',(0.E0,0.E0,-1.500200357687E0));
#365=VERTEX_POINT('',#364);
#366=CARTESIAN_POINT('',(0.E0,-5.E-1,-1.500200357687E0));
#367=VERTEX_POINT('',#366);
#368=CARTESIAN_POINT('',(0.E0,0.E0,0.E0));
#369=DIRECTION('',(0.E0,-1.E0,0.E0));
#370=DIRECTION('',(0.E0,0.E0,1.E0));
#371=AXIS2_PLACEMENT_3D('',#368,#369,#370);
#372=PLANE('',#371);
#374=ORIENTED_EDGE('',*,*,#373,.T.);
#376=ORIENTED_EDGE('',*,*,#375,.T.);
#378=ORIENTED_EDGE('',*,*,#377,.T.);
#380=ORIENTED_EDGE('',*,*,#379,.T.);
#382=ORIENTED_EDGE('',*,*,#381,.T.);
#384=ORIENTED_EDGE('',*,*,#383,.T.);
#386=ORIENTED_EDGE('',*,*,#385,.T.);
#388=ORIENTED_EDGE('',*,*,#387,.T.);
#390=ORIENTED_EDGE('',*,*,#389,.T.);
#392=ORIENTED_EDGE('',*,*,#391,.T.);
#394=ORIENTED_EDGE('',*,*,#393,.T.);
#396=ORIENTED_EDGE('',*,*,#395,.T.);
#398=ORIENTED_EDGE('',*,*,#397,.T.);
#400=ORIENTED_EDGE('',*,*,#399,.T.);
#401=EDGE_LOOP('',(#374,#376,#378,#380,#382,#384,#386,#388,#390,#392,#394,#396,
#398,#400));
#402=FACE_OUTER_BOUND('',#401,.F.);
#404=CARTESIAN_POINT('',(0.E0,0.E0,-9.238372635634E-1));
#405=DIRECTION('',(-1.E0,0.E0,0.E0));
#406=DIRECTION('',(0.E0,0.E0,-1.E0));
#407=AXIS2_PLACEMENT_3D('',#404,#405,#406);
#408=PLANE('',#407);
#409=ORIENTED_EDGE('',*,*,#373,.F.);
#411=ORIENTED_EDGE('',*,*,#410,.T.);
#413=ORIENTED_EDGE('',*,*,#412,.T.);
#415=ORIENTED_EDGE('',*,*,#414,.F.);
#416=EDGE_LOOP('',(#409,#411,#413,#415));
#417=FACE_OUTER_BOUND('',#416,.F.);
#419=CARTESIAN_POINT('',(-1.263905220472E-1,0.E0,-9.238372635634E-1));
#420=DIRECTION('',(0.E0,0.E0,-1.E0));
#421=DIRECTION('',(1.E0,0.E0,0.E0));
#422=AXIS2_PLACEMENT_3D('',#419,#420,#421);
#423=PLANE('',#422);
#424=ORIENTED_EDGE('',*,*,#399,.F.);
#426=ORIENTED_EDGE('',*,*,#425,.T.);
#428=ORIENTED_EDGE('',*,*,#427,.T.);
#429=ORIENTED_EDGE('',*,*,#410,.F.);
#430=EDGE_LOOP('',(#424,#426,#428,#429));
#431=FACE_OUTER_BOUND('',#430,.F.);
#433=CARTESIAN_POINT('',(-1.263905220472E-1,0.E0,-7.253579388643E-1));
#434=DIRECTION('',(-1.E0,0.E0,0.E0));
#435=DIRECTION('',(0.E0,0.E0,-1.E0));
#436=AXIS2_PLACEMENT_3D('',#433,#434,#435);
#437=PLANE('',#436);
#438=ORIENTED_EDGE('',*,*,#397,.F.);
#440=ORIENTED_EDGE('',*,*,#439,.T.);
#442=ORIENTED_EDGE('',*,*,#441,.T.);
#443=ORIENTED_EDGE('',*,*,#425,.F.);
#444=EDGE_LOOP('',(#438,#440,#442,#443));
#445=FACE_OUTER_BOUND('',#444,.F.);
#447=CARTESIAN_POINT('',(-6.389052204724E-2,0.E0,-7.253579388643E-1));
#448=DIRECTION('',(0.E0,0.E0,1.E0));
#449=DIRECTION('',(-1.E0,0.E0,0.E0));
#450=AXIS2_PLACEMENT_3D('',#447,#448,#449);
#451=PLANE('',#450);
#452=ORIENTED_EDGE('',*,*,#395,.F.);
#454=ORIENTED_EDGE('',*,*,#453,.T.);
#456=ORIENTED_EDGE('',*,*,#455,.T.);
#457=ORIENTED_EDGE('',*,*,#439,.F.);
#458=EDGE_LOOP('',(#452,#454,#456,#457));
#459=FACE_OUTER_BOUND('',#458,.F.);
#461=CARTESIAN_POINT('',(-6.389052204724E-2,0.E0,-8.613372635634E-1));
#462=DIRECTION('',(1.E0,0.E0,0.E0));
#463=DIRECTION('',(0.E0,0.E0,1.E0));
#464=AXIS2_PLACEMENT_3D('',#461,#462,#463);
#465=PLANE('',#464);
#466=ORIENTED_EDGE('',*,*,#393,.F.);
#468=ORIENTED_EDGE('',*,*,#467,.T.);
#470=ORIENTED_EDGE('',*,*,#469,.T.);
#471=ORIENTED_EDGE('',*,*,#453,.F.);
#472=EDGE_LOOP('',(#466,#468,#470,#471));
#473=FACE_OUTER_BOUND('',#472,.F.);
#475=CARTESIAN_POINT('',(6.25E-2,0.E0,-8.613372635634E-1));
#476=DIRECTION('',(0.E0,0.E0,1.E0));
#477=DIRECTION('',(-1.E0,0.E0,0.E0));
#478=AXIS2_PLACEMENT_3D('',#475,#476,#477);
#479=PLANE('',#478);
#480=ORIENTED_EDGE('',*,*,#391,.F.);
#482=ORIENTED_EDGE('',*,*,#481,.T.);
#484=ORIENTED_EDGE('',*,*,#483,.T.);
#485=ORIENTED_EDGE('',*,*,#467,.F.);
#486=EDGE_LOOP('',(#480,#482,#484,#485));
#487=FACE_OUTER_BOUND('',#486,.F.);
#489=CARTESIAN_POINT('',(6.25E-2,0.E0,-1.500200357687E0));
#490=DIRECTION('',(1.E0,0.E0,0.E0));
#491=DIRECTION('',(0.E0,0.E0,1.E0));
#492=AXIS2_PLACEMENT_3D('',#489,#490,#491);
#493=PLANE('',#492);
#494=ORIENTED_EDGE('',*,*,#389,.F.);
#496=ORIENTED_EDGE('',*,*,#495,.T.);
#498=ORIENTED_EDGE('',*,*,#497,.T.);
#499=ORIENTED_EDGE('',*,*,#481,.F.);
#500=EDGE_LOOP('',(#494,#496,#498,#499));
#501=FACE_OUTER_BOUND('',#500,.F.);
#503=CARTESIAN_POINT('',(4.356573765599E-1,0.E0,-1.500200357687E0));
#504=DIRECTION('',(0.E0,0.E0,1.E0));
#505=DIRECTION('',(-1.E0,0.E0,0.E0));
#506=AXIS2_PLACEMENT_3D('',#503,#504,#505);
#507=PLANE('',#506);
#508=ORIENTED_EDGE('',*,*,#387,.F.);
#510=ORIENTED_EDGE('',*,*,#509,.T.);
#512=ORIENTED_EDGE('',*,*,#511,.T.);
#513=ORIENTED_EDGE('',*,*,#495,.F.);
#514=EDGE_LOOP('',(#508,#510,#512,#513));
#515=FACE_OUTER_BOUND('',#514,.F.);
#517=CARTESIAN_POINT('',(4.356573765599E-1,0.E0,-1.562700357687E0));
#518=DIRECTION('',(1.E0,0.E0,0.E0));
#519=DIRECTION('',(0.E0,0.E0,1.E0));
#520=AXIS2_PLACEMENT_3D('',#517,#518,#519);
#521=PLANE('',#520);
#522=ORIENTED_EDGE('',*,*,#385,.F.);
#524=ORIENTED_EDGE('',*,*,#523,.T.);
#526=ORIENTED_EDGE('',*,*,#525,.T.);
#527=ORIENTED_EDGE('',*,*,#509,.F.);
#528=EDGE_LOOP('',(#522,#524,#526,#527));
#529=FACE_OUTER_BOUND('',#528,.F.);
#531=CARTESIAN_POINT('',(0.E0,0.E0,-1.562700357687E0));
#532=DIRECTION('',(0.E0,0.E0,-1.E0));
#533=DIRECTION('',(1.E0,0.E0,0.E0));
#534=AXIS2_PLACEMENT_3D('',#531,#532,#533);
#535=PLANE('',#534);
#536=ORIENTED_EDGE('',*,*,#383,.F.);
#538=ORIENTED_EDGE('',*,*,#537,.T.);
#540=ORIENTED_EDGE('',*,*,#539,.T.);
#541=ORIENTED_EDGE('',*,*,#523,.F.);
#542=EDGE_LOOP('',(#536,#538,#540,#541));
#543=FACE_OUTER_BOUND('',#542,.F.);
#545=CARTESIAN_POINT('',(0.E0,0.E0,-1.500200357687E0));
#546=DIRECTION('',(-1.E0,0.E0,0.E0));
#547=DIRECTION('',(0.E0,0.E0,-1.E0));
#548=AXIS2_PLACEMENT_3D('',#545,#546,#547);
#549=PLANE('',#548);
#550=ORIENTED_EDGE('',*,*,#381,.F.);
#552=ORIENTED_EDGE('',*,*,#551,.T.);
#554=ORIENTED_EDGE('',*,*,#553,.T.);
#555=ORIENTED_EDGE('',*,*,#537,.F.);
#556=EDGE_LOOP('',(#550,#552,#554,#555));
#557=FACE_OUTER_BOUND('',#556,.F.);
#559=CARTESIAN_POINT('',(-1.263905220472E-1,0.E0,-1.500200357687E0));
#560=DIRECTION('',(0.E0,0.E0,-1.E0));
#561=DIRECTION('',(1.E0,0.E0,0.E0));
#562=AXIS2_PLACEMENT_3D('',#559,#560,#561);
#563=PLANE('',#562);
#564=ORIENTED_EDGE('',*,*,#379,.F.);
#566=ORIENTED_EDGE('',*,*,#565,.T.);
#568=ORIENTED_EDGE('',*,*,#567,.T.);
#569=ORIENTED_EDGE('',*,*,#551,.F.);
#570=EDGE_LOOP('',(#564,#566,#568,#569));
#571=FACE_OUTER_BOUND('',#570,.F.);
#573=CARTESIAN_POINT('',(-1.263905220472E-1,0.E0,-1.444191834218E0));
#574=DIRECTION('',(-1.E0,0.E0,0.E0));
#575=DIRECTION('',(0.E0,0.E0,-1.E0));
#576=AXIS2_PLACEMENT_3D('',#573,#574,#575);
#577=PLANE('',#576);
#578=ORIENTED_EDGE('',*,*,#377,.F.);
#580=ORIENTED_EDGE('',*,*,#579,.T.);
#582=ORIENTED_EDGE('',*,*,#581,.T.);
#583=ORIENTED_EDGE('',*,*,#565,.F.);
#584=EDGE_LOOP('',(#578,#580,#582,#583));
#585=FACE_OUTER_BOUND('',#584,.F.);
#587=CARTESIAN_POINT('',(0.E0,0.E0,-1.444191834218E0));
#588=DIRECTION('',(0.E0,0.E0,1.E0));
#589=DIRECTION('',(-1.E0,0.E0,0.E0));
#590=AXIS2_PLACEMENT_3D('',#587,#588,#589);
#591=PLANE('',#590);
#592=ORIENTED_EDGE('',*,*,#375,.F.);
#593=ORIENTED_EDGE('',*,*,#414,.T.);
#595=ORIENTED_EDGE('',*,*,#594,.T.);
#596=ORIENTED_EDGE('',*,*,#579,.F.);
#597=EDGE_LOOP('',(#592,#593,#595,#596));
#598=FACE_OUTER_BOUND('',#597,.F.);
#600=CARTESIAN_POINT('',(0.E0,-5.E-1,0.E0));
#601=DIRECTION('',(0.E0,-1.E0,0.E0));
#602=DIRECTION('',(0.E0,0.E0,1.E0));
#603=AXIS2_PLACEMENT_3D('',#600,#601,#602);
#604=PLANE('',#603);
#605=ORIENTED_EDGE('',*,*,#412,.F.);
#606=ORIENTED_EDGE('',*,*,#427,.F.);
#607=ORIENTED_EDGE('',*,*,#441,.F.);
#608=ORIENTED_EDGE('',*,*,#455,.F.);
#609=ORIENTED_EDGE('',*,*,#469,.F.);
#610=ORIENTED_EDGE('',*,*,#483,.F.);
#611=ORIENTED_EDGE('',*,*,#497,.F.);
#612=ORIENTED_EDGE('',*,*,#511,.F.);
#613=ORIENTED_EDGE('',*,*,#525,.F.);
#614=ORIENTED_EDGE('',*,*,#539,.F.);
#615=ORIENTED_EDGE('',*,*,#553,.F.);
#616=ORIENTED_EDGE('',*,*,#567,.F.);
#617=ORIENTED_EDGE('',*,*,#581,.F.);
#618=ORIENTED_EDGE('',*,*,#594,.F.);
#619=EDGE_LOOP('',(#605,#606,#607,#608,#609,#610,#611,#612,#613,#614,#615,#616,
#617,#618));
#620=FACE_OUTER_BOUND('',#619,.F.);
#624=FILL_AREA_STYLE_COLOUR('',#9);
#625=FILL_AREA_STYLE('',(#624));
#626=SURFACE_STYLE_FILL_AREA(#625);
#627=SURFACE_SIDE_STYLE('',(#626));
#628=SURFACE_STYLE_USAGE(.BOTH.,#627);
#629=PRESENTATION_STYLE_ASSIGNMENT((#628));
#16=STYLED_ITEM('',(#629),#623);
#631=LENGTH_MEASURE_WITH_UNIT(LENGTH_MEASURE(2.54E1),#630);
#632=(CONVERSION_BASED_UNIT('INCH',#631)LENGTH_UNIT()NAMED_UNIT(*));
#634=PLANE_ANGLE_MEASURE_WITH_UNIT(PLANE_ANGLE_MEASURE(1.745329251994E-2),#633);
#635=(CONVERSION_BASED_UNIT('DEGREE',#634)NAMED_UNIT(*)PLANE_ANGLE_UNIT());
#637=UNCERTAINTY_MEASURE_WITH_UNIT(LENGTH_MEASURE(1.125583762100E-4),#632,
'closure',
'Maximum model space distance between geometric entities at asserted connectivities');
#639=CARTESIAN_POINT('',(0.E0,0.E0,0.E0));
#640=DIRECTION('',(0.E0,0.E0,1.E0));
#641=DIRECTION('',(1.E0,0.E0,0.E0));
#644=MECHANICAL_DESIGN_GEOMETRIC_PRESENTATION_REPRESENTATION('',(#24,#31,#38,
#45,#52,#59,#66,#73,#80,#87,#94,#101,#108,#115,#122,#129,#136,#143,#150,#157,
#164,#171,#178,#185,#192,#199,#206,#213,#220,#227,#234,#241,#248,#255,#262,#269,
#276,#283,#290,#297,#304,#311,#16),#638);
#645=APPLICATION_CONTEXT('automotive design');
#646=APPLICATION_PROTOCOL_DEFINITION('international standard',
'config_control_design',1994,#645);
#647=PRODUCT_DEFINITION_CONTEXT('',#645,'design');
#648=PRODUCT_CONTEXT('',#645,'mechanical');
#649=PRODUCT('MOUNTING_TAPE','MOUNTING_TAPE','NOT SPECIFIED',(#648));
#650=PRODUCT_DEFINITION_FORMATION_WITH_SPECIFIED_SOURCE('1','LAST_VERSION',#649,
.MADE.);
#658=LENGTH_MEASURE_WITH_UNIT(LENGTH_MEASURE(2.54E1),#657);
#659=(CONVERSION_BASED_UNIT('INCH',#658)LENGTH_UNIT()NAMED_UNIT(*));
#660=DERIVED_UNIT_ELEMENT(#659,2.E0);
#661=AREA_UNIT((#660));
#662=MEASURE_REPRESENTATION_ITEM('surface area measure',AREA_MEASURE(
1.707050022197E0),#661);
#667=LENGTH_MEASURE_WITH_UNIT(LENGTH_MEASURE(2.54E1),#666);
#668=(CONVERSION_BASED_UNIT('INCH',#667)LENGTH_UNIT()NAMED_UNIT(*));
#669=DERIVED_UNIT_ELEMENT(#668,3.E0);
#670=VOLUME_UNIT((#669));
#671=MEASURE_REPRESENTATION_ITEM('volume measure',VOLUME_MEASURE(
4.531729567986E-2),#670);
#675=CARTESIAN_POINT('centre point',(5.984265039139E-2,-2.5E-1,
-1.247437811818E0));
#680=LENGTH_MEASURE_WITH_UNIT(LENGTH_MEASURE(2.54E1),#679);
#681=(CONVERSION_BASED_UNIT('INCH',#680)LENGTH_UNIT()NAMED_UNIT(*));
#682=DERIVED_UNIT_ELEMENT(#681,2.E0);
#683=AREA_UNIT((#682));
#684=MEASURE_REPRESENTATION_ITEM('surface area measure',AREA_MEASURE(
1.707050022197E0),#683);
#689=LENGTH_MEASURE_WITH_UNIT(LENGTH_MEASURE(2.54E1),#688);
#690=(CONVERSION_BASED_UNIT('INCH',#689)LENGTH_UNIT()NAMED_UNIT(*));
#691=DERIVED_UNIT_ELEMENT(#690,3.E0);
#692=VOLUME_UNIT((#691));
#693=MEASURE_REPRESENTATION_ITEM('volume measure',VOLUME_MEASURE(
4.531729567986E-2),#692);
#697=CARTESIAN_POINT('centre point',(5.984265039139E-2,-2.5E-1,
-1.247437811818E0));
#1=DRAUGHTING_PRE_DEFINED_COLOUR('green');
#2=COLOUR_RGB('',1.1E-2,1.2E-2,1.E0);
#3=COLOUR_RGB('',2.352941176471E-1,2.352941176471E-1,2.352941176471E-1);
#4=COLOUR_RGB('',4.1E-1,2.61589E-1,1.12848E-1);
#5=COLOUR_RGB('',5.04854E-1,1.5455E-2,1.5455E-2);
#6=COLOUR_RGB('',6.35294E-1,6.86275E-1,7.4902E-1);
#7=COLOUR_RGB('',6.40777E-1,6.40777E-1,6.40777E-1);
#8=COLOUR_RGB('',6.69062E-1,6.69903E-1,6.55217E-1);
#9=COLOUR_RGB('',7.4902E-1,1.604070558206E-1,1.954916675845E-1);
#10=COLOUR_RGB('',9.21569E-1,7.05882E-1,4.70588E-1);
#11=DRAUGHTING_PRE_DEFINED_COLOUR('red');
#12=DRAUGHTING_PRE_DEFINED_COLOUR('yellow');
#13=COLOUR_RGB('',1.E0,1.E0,5.3E-1);
#14=COLOUR_RGB('',1.E0,1.E0,9.49E-1);
#15=DRAUGHTING_PRE_DEFINED_COLOUR('white');
#373=EDGE_CURVE('',#324,#325,#20,.T.);
#375=EDGE_CURVE('',#325,#358,#28,.T.);
#377=EDGE_CURVE('',#358,#359,#35,.T.);
#379=EDGE_CURVE('',#359,#365,#42,.T.);
#381=EDGE_CURVE('',#365,#321,#49,.T.);
#383=EDGE_CURVE('',#321,#319,#56,.T.);
#385=EDGE_CURVE('',#319,#317,#63,.T.);
#387=EDGE_CURVE('',#317,#314,#70,.T.);
#389=EDGE_CURVE('',#314,#315,#77,.T.);
#391=EDGE_CURVE('',#315,#341,#84,.T.);
#393=EDGE_CURVE('',#341,#343,#91,.T.);
#395=EDGE_CURVE('',#343,#345,#98,.T.);
#397=EDGE_CURVE('',#345,#347,#105,.T.);
#399=EDGE_CURVE('',#347,#324,#112,.T.);
#403=ADVANCED_FACE('',(#402),#372,.F.);
#410=EDGE_CURVE('',#324,#338,#119,.T.);
#412=EDGE_CURVE('',#338,#339,#217,.T.);
#414=EDGE_CURVE('',#325,#339,#210,.T.);
#418=ADVANCED_FACE('',(#417),#408,.T.);
#425=EDGE_CURVE('',#347,#355,#126,.T.);
#427=EDGE_CURVE('',#355,#338,#224,.T.);
#432=ADVANCED_FACE('',(#431),#423,.T.);
#439=EDGE_CURVE('',#345,#353,#133,.T.);
#441=EDGE_CURVE('',#353,#355,#231,.T.);
#446=ADVANCED_FACE('',(#445),#437,.T.);
#453=EDGE_CURVE('',#343,#351,#140,.T.);
#455=EDGE_CURVE('',#351,#353,#238,.T.);
#460=ADVANCED_FACE('',(#459),#451,.T.);
#467=EDGE_CURVE('',#341,#349,#147,.T.);
#469=EDGE_CURVE('',#349,#351,#245,.T.);
#474=ADVANCED_FACE('',(#473),#465,.T.);
#481=EDGE_CURVE('',#315,#329,#154,.T.);
#483=EDGE_CURVE('',#329,#349,#252,.T.);
#488=ADVANCED_FACE('',(#487),#479,.T.);
#495=EDGE_CURVE('',#314,#328,#161,.T.);
#497=EDGE_CURVE('',#328,#329,#259,.T.);
#502=ADVANCED_FACE('',(#501),#493,.T.);
#509=EDGE_CURVE('',#317,#331,#168,.T.);
#511=EDGE_CURVE('',#331,#328,#266,.T.);
#516=ADVANCED_FACE('',(#515),#507,.T.);
#523=EDGE_CURVE('',#319,#333,#175,.T.);
#525=EDGE_CURVE('',#333,#331,#273,.T.);
#530=ADVANCED_FACE('',(#529),#521,.T.);
#537=EDGE_CURVE('',#321,#335,#182,.T.);
#539=EDGE_CURVE('',#335,#333,#280,.T.);
#544=ADVANCED_FACE('',(#543),#535,.T.);
#551=EDGE_CURVE('',#365,#367,#189,.T.);
#553=EDGE_CURVE('',#367,#335,#287,.T.);
#558=ADVANCED_FACE('',(#557),#549,.T.);
#565=EDGE_CURVE('',#359,#363,#196,.T.);
#567=EDGE_CURVE('',#363,#367,#294,.T.);
#572=ADVANCED_FACE('',(#571),#563,.T.);
#579=EDGE_CURVE('',#358,#362,#203,.T.);
#581=EDGE_CURVE('',#362,#363,#301,.T.);
#586=ADVANCED_FACE('',(#585),#577,.T.);
#594=EDGE_CURVE('',#339,#362,#308,.T.);
#599=ADVANCED_FACE('',(#598),#591,.T.);
#621=ADVANCED_FACE('',(#620),#604,.T.);
#622=CLOSED_SHELL('',(#403,#418,#432,#446,#460,#474,#488,#502,#516,#530,#544,
#558,#572,#586,#599,#621));
#623=MANIFOLD_SOLID_BREP('',#622);
#630=(LENGTH_UNIT()NAMED_UNIT(*)SI_UNIT(.MILLI.,.METRE.));
#633=(NAMED_UNIT(*)PLANE_ANGLE_UNIT()SI_UNIT($,.RADIAN.));
#636=(NAMED_UNIT(*)SI_UNIT($,.STERADIAN.)SOLID_ANGLE_UNIT());
#638=(GEOMETRIC_REPRESENTATION_CONTEXT(3)GLOBAL_UNCERTAINTY_ASSIGNED_CONTEXT((
#637))GLOBAL_UNIT_ASSIGNED_CONTEXT((#632,#635,#636))REPRESENTATION_CONTEXT
('ID1','3'));
#642=AXIS2_PLACEMENT_3D('',#639,#640,#641);
#643=ADVANCED_BREP_SHAPE_REPRESENTATION('',(#642,#623),#638);
#651=PRODUCT_DEFINITION('design','',#650,#647);
#652=PRODUCT_DEFINITION_SHAPE('','SHAPE FOR MOUNTING_TAPE.',#651);
#653=SHAPE_ASPECT('','solid data associated with MOUNTING_TAPE',#652,.F.);
#654=PROPERTY_DEFINITION('',
'shape for solid data with which properties are associated',#653);
#655=SHAPE_REPRESENTATION('',(#623),#638);
#656=SHAPE_DEFINITION_REPRESENTATION(#654,#655);
#657=(LENGTH_UNIT()NAMED_UNIT(*)SI_UNIT(.MILLI.,.METRE.));
#663=PROPERTY_DEFINITION('geometric validation property',
'area of MOUNTING_TAPE',#653);
#664=REPRESENTATION('surface area',(#662),#638);
#665=PROPERTY_DEFINITION_REPRESENTATION(#663,#664);
#666=(LENGTH_UNIT()NAMED_UNIT(*)SI_UNIT(.MILLI.,.METRE.));
#672=PROPERTY_DEFINITION('geometric validation property',
'volume of MOUNTING_TAPE',#653);
#673=REPRESENTATION('volume',(#671),#638);
#674=PROPERTY_DEFINITION_REPRESENTATION(#672,#673);
#676=PROPERTY_DEFINITION('geometric validation property',
'centroid of MOUNTING_TAPE',#653);
#677=REPRESENTATION('centroid',(#675),#638);
#678=PROPERTY_DEFINITION_REPRESENTATION(#676,#677);
#679=(LENGTH_UNIT()NAMED_UNIT(*)SI_UNIT(.MILLI.,.METRE.));
#685=PROPERTY_DEFINITION('geometric validation property',
'area of MOUNTING_TAPE',#652);
#686=REPRESENTATION('surface area',(#684),#638);
#687=PROPERTY_DEFINITION_REPRESENTATION(#685,#686);
#688=(LENGTH_UNIT()NAMED_UNIT(*)SI_UNIT(.MILLI.,.METRE.));
#694=PROPERTY_DEFINITION('geometric validation property',
'volume of MOUNTING_TAPE',#652);
#695=REPRESENTATION('volume',(#693),#638);
#696=PROPERTY_DEFINITION_REPRESENTATION(#694,#695);
#698=PROPERTY_DEFINITION('geometric validation property',
'centroid of MOUNTING_TAPE',#652);
#699=REPRESENTATION('centroid',(#697),#638);
#700=PROPERTY_DEFINITION_REPRESENTATION(#698,#699);
#701=SHAPE_DEFINITION_REPRESENTATION(#652,#643);
ENDSEC;
END-ISO-10303-21;
