ISO-10303-21;
HEADER;
FILE_DESCRIPTION((''),'2;1');
FILE_NAME('NO_10LOGO-268','2026-06-15T13:45:42',('Esia'),(''),
'CREO PARAMETRIC BY PTC INC, 2025102','CREO PARAMETRIC BY PTC INC, 2025102','');
FILE_SCHEMA((
'AP242_MANAGED_MODEL_BASED_3D_ENGINEERING_MIM_LF { 1 0 10303 442 1 1 4 }'));
ENDSEC;
DATA;
#15=DIRECTION('',(1.E0,0.E0,0.E0));
#16=VECTOR('',#15,5.596608094491E-3);
#17=CARTESIAN_POINT('',(1.391756466959E1,9.622450195890E0,0.E0));
#18=LINE('',#17,#16);
#19=DIRECTION('',(0.E0,1.E0,0.E0));
#20=VECTOR('',#19,2.950938826771E-2);
#21=CARTESIAN_POINT('',(1.391756466959E1,9.592940807622E0,0.E0));
#22=LINE('',#21,#20);
#23=DIRECTION('',(-1.E0,0.E0,0.E0));
#24=VECTOR('',#23,5.596608094491E-3);
#25=CARTESIAN_POINT('',(1.392316127769E1,9.592940807622E0,0.E0));
#26=LINE('',#25,#24);
#27=DIRECTION('',(0.E0,-1.E0,0.E0));
#28=VECTOR('',#27,1.247312234646E-2);
#29=CARTESIAN_POINT('',(1.392316127769E1,9.605413929969E0,0.E0));
#30=LINE('',#29,#28);
#31=CARTESIAN_POINT('',(1.393211267079E1,9.618379935449E0,0.E0));
#32=CARTESIAN_POINT('',(1.393172177953E1,9.618362437417E0,0.E0));
#33=CARTESIAN_POINT('',(1.393093713827E1,9.618327313370E0,0.E0));
#34=CARTESIAN_POINT('',(1.392977777476E1,9.618061778409E0,0.E0));
#35=CARTESIAN_POINT('',(1.392864293140E1,9.617636060976E0,0.E0));
#36=CARTESIAN_POINT('',(1.392755521583E1,9.617040651780E0,0.E0));
#37=CARTESIAN_POINT('',(1.392653803332E1,9.616301847638E0,0.E0));
#38=CARTESIAN_POINT('',(1.392564088715E1,9.615402146362E0,0.E0));
#39=CARTESIAN_POINT('',(1.392487800118E1,9.614361523937E0,0.E0));
#40=CARTESIAN_POINT('',(1.392434596587E1,9.613382479937E0,0.E0));
#41=CARTESIAN_POINT('',(1.392400453011E1,9.612503552693E0,0.E0));
#42=CARTESIAN_POINT('',(1.392377074894E1,9.611750292047E0,0.E0));
#43=CARTESIAN_POINT('',(1.392358798304E1,9.610908655512E0,0.E0));
#44=CARTESIAN_POINT('',(1.392342515282E1,9.609981075024E0,0.E0));
#45=CARTESIAN_POINT('',(1.392331176312E1,9.608963917795E0,0.E0));
#46=CARTESIAN_POINT('',(1.392322539817E1,9.607858328976E0,0.E0));
#47=CARTESIAN_POINT('',(1.392316739013E1,9.606665296913E0,0.E0));
#48=CARTESIAN_POINT('',(1.392316336200E1,9.605840636268E0,0.E0));
#49=CARTESIAN_POINT('',(1.392316127769E1,9.605413929969E0,0.E0));
#51=CARTESIAN_POINT('',(1.393893353693E1,9.607910144409E0,0.E0));
#52=CARTESIAN_POINT('',(1.393893271743E1,9.608310301323E0,0.E0));
#53=CARTESIAN_POINT('',(1.393893114869E1,9.609076310173E0,0.E0));
#54=CARTESIAN_POINT('',(1.393890006312E1,9.610173761055E0,0.E0));
#55=CARTESIAN_POINT('',(1.393884433110E1,9.611167700551E0,0.E0));
#56=CARTESIAN_POINT('',(1.393877239928E1,9.612058201370E0,0.E0));
#57=CARTESIAN_POINT('',(1.393869304602E1,9.612847707732E0,0.E0));
#58=CARTESIAN_POINT('',(1.393857114576E1,9.613531319669E0,0.E0));
#59=CARTESIAN_POINT('',(1.393843995255E1,9.614113695591E0,0.E0));
#60=CARTESIAN_POINT('',(1.393824318307E1,9.614750366409E0,0.E0));
#61=CARTESIAN_POINT('',(1.393790410176E1,9.615439083780E0,0.E0));
#62=CARTESIAN_POINT('',(1.393739601935E1,9.616180187858E0,0.E0));
#63=CARTESIAN_POINT('',(1.393675102899E1,9.616825189276E0,0.E0));
#64=CARTESIAN_POINT('',(1.393599900553E1,9.617379289890E0,0.E0));
#65=CARTESIAN_POINT('',(1.393514273121E1,9.617824040268E0,0.E0));
#66=CARTESIAN_POINT('',(1.393420478050E1,9.618153907087E0,0.E0));
#67=CARTESIAN_POINT('',(1.393318305661E1,9.618345754677E0,0.E0));
#68=CARTESIAN_POINT('',(1.393247652354E1,9.618368316472E0,0.E0));
#69=CARTESIAN_POINT('',(1.393211267079E1,9.618379935449E0,0.E0));
#71=DIRECTION('',(-1.186663687663E-13,1.E0,0.E0));
#72=VECTOR('',#71,1.496933678740E-2);
#73=CARTESIAN_POINT('',(1.393893353693E1,9.592940807622E0,0.E0));
#74=LINE('',#73,#72);
#75=DIRECTION('',(-1.E0,0.E0,0.E0));
#76=VECTOR('',#75,5.596608141731E-3);
#77=CARTESIAN_POINT('',(1.394453014507E1,9.592940807622E0,0.E0));
#78=LINE('',#77,#76);
#79=DIRECTION('',(0.E0,-1.E0,0.E0));
#80=VECTOR('',#79,1.156685343307E-2);
#81=CARTESIAN_POINT('',(1.394453014507E1,9.604507661055E0,0.E0));
#82=LINE('',#81,#80);
#83=CARTESIAN_POINT('',(1.395350538732E1,9.618379935449E0,0.E0));
#84=CARTESIAN_POINT('',(1.395309311991E1,9.618363812598E0,0.E0));
#85=CARTESIAN_POINT('',(1.395227595860E1,9.618331855228E0,0.E0));
#86=CARTESIAN_POINT('',(1.395107783334E1,9.618053748803E0,0.E0));
#87=CARTESIAN_POINT('',(1.394991816836E1,9.617624694520E0,0.E0));
#88=CARTESIAN_POINT('',(1.394882321027E1,9.617011479827E0,0.E0));
#89=CARTESIAN_POINT('',(1.394780753419E1,9.616253370283E0,0.E0));
#90=CARTESIAN_POINT('',(1.394692741809E1,9.615332142047E0,0.E0));
#91=CARTESIAN_POINT('',(1.394617024942E1,9.614282067354E0,0.E0));
#92=CARTESIAN_POINT('',(1.394566497576E1,9.613284457606E0,0.E0));
#93=CARTESIAN_POINT('',(1.394532780983E1,9.612386279622E0,0.E0));
#94=CARTESIAN_POINT('',(1.394511731414E1,9.611589223606E0,0.E0));
#95=CARTESIAN_POINT('',(1.394493736550E1,9.610683597449E0,0.E0));
#96=CARTESIAN_POINT('',(1.394478849515E1,9.609664528772E0,0.E0));
#97=CARTESIAN_POINT('',(1.394467170827E1,9.608534630173E0,0.E0));
#98=CARTESIAN_POINT('',(1.394458341850E1,9.607291295811E0,0.E0));
#99=CARTESIAN_POINT('',(1.394453917946E1,9.605936292E0,0.E0));
#100=CARTESIAN_POINT('',(1.394453322860E1,9.604995270898E0,0.E0));
#101=CARTESIAN_POINT('',(1.394453014507E1,9.604507661055E0,0.E0));
#103=CARTESIAN_POINT('',(1.396030240427E1,9.608872061433E0,0.E0));
#104=CARTESIAN_POINT('',(1.396030155959E1,9.609227171433E0,0.E0));
#105=CARTESIAN_POINT('',(1.396029993912E1,9.609908403921E0,0.E0));
#106=CARTESIAN_POINT('',(1.396026906458E1,9.610884019748E0,0.E0));
#107=CARTESIAN_POINT('',(1.396021296557E1,9.611769308173E0,0.E0));
#108=CARTESIAN_POINT('',(1.396014109663E1,9.612564440598E0,0.E0));
#109=CARTESIAN_POINT('',(1.396006116950E1,9.613274583024E0,0.E0));
#110=CARTESIAN_POINT('',(1.395994033035E1,9.613892134866E0,0.E0));
#111=CARTESIAN_POINT('',(1.395980750967E1,9.614421261921E0,0.E0));
#112=CARTESIAN_POINT('',(1.395961041524E1,9.615005672362E0,0.E0));
#113=CARTESIAN_POINT('',(1.395927067224E1,9.615642320835E0,0.E0));
#114=CARTESIAN_POINT('',(1.395875826402E1,9.616323561118E0,0.E0));
#115=CARTESIAN_POINT('',(1.395812728209E1,9.616930975134E0,0.E0));
#116=CARTESIAN_POINT('',(1.395737741655E1,9.617441099433E0,0.E0));
#117=CARTESIAN_POINT('',(1.395653279400E1,9.617867098961E0,0.E0));
#118=CARTESIAN_POINT('',(1.395559455288E1,9.618168205984E0,0.E0));
#119=CARTESIAN_POINT('',(1.395457443723E1,9.618342108520E0,0.E0));
#120=CARTESIAN_POINT('',(1.395386910704E1,9.618367065685E0,0.E0));
#121=CARTESIAN_POINT('',(1.395350538732E1,9.618379935449E0,0.E0));
#123=DIRECTION('',(0.E0,1.E0,0.E0));
#124=VECTOR('',#123,1.593125381102E-2);
#125=CARTESIAN_POINT('',(1.396030240427E1,9.592940807622E0,0.E0));
#126=LINE('',#125,#124);
#127=DIRECTION('',(-1.E0,0.E0,0.E0));
#128=VECTOR('',#127,5.596608141731E-3);
#129=CARTESIAN_POINT('',(1.396589901241E1,9.592940807622E0,0.E0));
#130=LINE('',#129,#128);
#131=DIRECTION('',(0.E0,-1.E0,0.E0));
#132=VECTOR('',#131,1.594715324409E-2);
#133=CARTESIAN_POINT('',(1.396589901241E1,9.608887960866E0,0.E0));
#134=LINE('',#133,#132);
#135=CARTESIAN_POINT('',(1.395429241035E1,9.622958978457E0,0.E0));
#136=CARTESIAN_POINT('',(1.395458941951E1,9.622955375291E0,0.E0));
#137=CARTESIAN_POINT('',(1.395517395231E1,9.622948284047E0,0.E0));
#138=CARTESIAN_POINT('',(1.395603626825E1,9.622862942740E0,0.E0));
#139=CARTESIAN_POINT('',(1.395687385606E1,9.622740389764E0,0.E0));
#140=CARTESIAN_POINT('',(1.395768512027E1,9.622553477244E0,0.E0));
#141=CARTESIAN_POINT('',(1.395847388820E1,9.622327880740E0,0.E0));
#142=CARTESIAN_POINT('',(1.395923085123E1,9.622036004362E0,0.E0));
#143=CARTESIAN_POINT('',(1.395996512041E1,9.621706482236E0,0.E0));
#144=CARTESIAN_POINT('',(1.396066215364E1,9.621312960709E0,0.E0));
#145=CARTESIAN_POINT('',(1.396132652622E1,9.620886884031E0,0.E0));
#146=CARTESIAN_POINT('',(1.396195176189E1,9.620429125228E0,0.E0));
#147=CARTESIAN_POINT('',(1.396251284504E1,9.619920726378E0,0.E0));
#148=CARTESIAN_POINT('',(1.396304485767E1,9.619398295559E0,0.E0));
#149=CARTESIAN_POINT('',(1.396352305616E1,9.618830966598E0,0.E0));
#150=CARTESIAN_POINT('',(1.396394872611E1,9.618227024976E0,0.E0));
#151=CARTESIAN_POINT('',(1.396433670425E1,9.617594920677E0,0.E0));
#152=CARTESIAN_POINT('',(1.396467148455E1,9.616918333181E0,0.E0));
#153=CARTESIAN_POINT('',(1.396497283493E1,9.616187842205E0,0.E0));
#154=CARTESIAN_POINT('',(1.396521183780E1,9.615378445890E0,0.E0));
#155=CARTESIAN_POINT('',(1.396542986561E1,9.614493387260E0,0.E0));
#156=CARTESIAN_POINT('',(1.396559966443E1,9.613526284157E0,0.E0));
#157=CARTESIAN_POINT('',(1.396573618294E1,9.612478592693E0,0.E0));
#158=CARTESIAN_POINT('',(1.396582507715E1,9.611353500283E0,0.E0));
#159=CARTESIAN_POINT('',(1.396589553430E1,9.610147545260E0,0.E0));
#160=CARTESIAN_POINT('',(1.396589782668E1,9.609317364425E0,0.E0));
#161=CARTESIAN_POINT('',(1.396589901241E1,9.608887960866E0,0.E0));
#163=CARTESIAN_POINT('',(1.394319459085E1,9.616082464205E0,0.E0));
#164=CARTESIAN_POINT('',(1.394330403076E1,9.616346868898E0,0.E0));
#165=CARTESIAN_POINT('',(1.394352053154E1,9.616869930520E0,0.E0));
#166=CARTESIAN_POINT('',(1.394392291479E1,9.617614985055E0,0.E0));
#167=CARTESIAN_POINT('',(1.394438652874E1,9.618314489291E0,0.E0));
#168=CARTESIAN_POINT('',(1.394489979921E1,9.618975848220E0,0.E0));
#169=CARTESIAN_POINT('',(1.394548000290E1,9.619585529717E0,0.E0));
#170=CARTESIAN_POINT('',(1.394611835046E1,9.620148165732E0,0.E0));
#171=CARTESIAN_POINT('',(1.394681041087E1,9.620678232425E0,0.E0));
#172=CARTESIAN_POINT('',(1.394756415879E1,9.621145440331E0,0.E0));
#173=CARTESIAN_POINT('',(1.394834411754E1,9.621576906520E0,0.E0));
#174=CARTESIAN_POINT('',(1.394915325444E1,9.621938785134E0,0.E0));
#175=CARTESIAN_POINT('',(1.394996972655E1,9.622262573102E0,0.E0));
#176=CARTESIAN_POINT('',(1.395080845058E1,9.622514821984E0,0.E0));
#177=CARTESIAN_POINT('',(1.395165823238E1,9.622712955969E0,0.E0));
#178=CARTESIAN_POINT('',(1.395252321128E1,9.622860381732E0,0.E0));
#179=CARTESIAN_POINT('',(1.395340333044E1,9.622936201748E0,0.E0));
#180=CARTESIAN_POINT('',(1.395399550120E1,9.622951372157E0,0.E0));
#181=CARTESIAN_POINT('',(1.395429241035E1,9.622958978457E0,0.E0));
#183=CARTESIAN_POINT('',(1.393289969381E1,9.622958978457E0,0.E0));
#184=CARTESIAN_POINT('',(1.393331905091E1,9.622949275890E0,0.E0));
#185=CARTESIAN_POINT('',(1.393415089356E1,9.622930029685E0,0.E0));
#186=CARTESIAN_POINT('',(1.393537994126E1,9.622745541732E0,0.E0));
#187=CARTESIAN_POINT('',(1.393657982414E1,9.622463775024E0,0.E0));
#188=CARTESIAN_POINT('',(1.393773075945E1,9.622054566472E0,0.E0));
#189=CARTESIAN_POINT('',(1.393881525378E1,9.621572166661E0,0.E0));
#190=CARTESIAN_POINT('',(1.393980346942E1,9.621014503748E0,0.E0));
#191=CARTESIAN_POINT('',(1.394067738425E1,9.620384340756E0,0.E0));
#192=CARTESIAN_POINT('',(1.394143834077E1,9.619682318740E0,0.E0));
#193=CARTESIAN_POINT('',(1.394208690600E1,9.618908429291E0,0.E0));
#194=CARTESIAN_POINT('',(1.394258962087E1,9.618040309559E0,0.E0));
#195=CARTESIAN_POINT('',(1.394298292460E1,9.617098297795E0,0.E0));
#196=CARTESIAN_POINT('',(1.394312325704E1,9.616424811024E0,0.E0));
#197=CARTESIAN_POINT('',(1.394319459085E1,9.616082464205E0,0.E0));
#199=CARTESIAN_POINT('',(1.392624577195E1,9.621448530236E0,0.E0));
#200=CARTESIAN_POINT('',(1.392677647852E1,9.621680665417E0,0.E0));
#201=CARTESIAN_POINT('',(1.392783092461E1,9.622141888252E0,0.E0));
#202=CARTESIAN_POINT('',(1.392948602197E1,9.622614883512E0,0.E0));
#203=CARTESIAN_POINT('',(1.393118030702E1,9.622903332898E0,0.E0));
#204=CARTESIAN_POINT('',(1.393232351750E1,9.622940331307E0,0.E0));
#205=CARTESIAN_POINT('',(1.393289969381E1,9.622958978457E0,0.E0));
#207=CARTESIAN_POINT('',(1.392316127769E1,9.617497515685E0,0.E0));
#208=CARTESIAN_POINT('',(1.392322884128E1,9.617710971496E0,0.E0));
#209=CARTESIAN_POINT('',(1.392336197239E1,9.618131576976E0,0.E0));
#210=CARTESIAN_POINT('',(1.392362798093E1,9.618729511843E0,0.E0));
#211=CARTESIAN_POINT('',(1.392393562039E1,9.619288205244E0,0.E0));
#212=CARTESIAN_POINT('',(1.392430014586E1,9.619803429638E0,0.E0));
#213=CARTESIAN_POINT('',(1.392471011995E1,9.620280579354E0,0.E0));
#214=CARTESIAN_POINT('',(1.392517983236E1,9.620709925654E0,0.E0));
#215=CARTESIAN_POINT('',(1.392568413161E1,9.621113185039E0,0.E0));
#216=CARTESIAN_POINT('',(1.392605744669E1,9.621336084661E0,0.E0));
#217=CARTESIAN_POINT('',(1.392624577195E1,9.621448530236E0,0.E0));
#219=DIRECTION('',(0.E0,-1.E0,0.E0));
#220=VECTOR('',#219,4.952680204724E-3);
#221=CARTESIAN_POINT('',(1.392316127769E1,9.622450195890E0,0.E0));
#222=LINE('',#221,#220);
#223=DIRECTION('',(1.E0,0.E0,0.E0));
#224=VECTOR('',#223,5.596608094491E-3);
#225=CARTESIAN_POINT('',(1.391756466959E1,9.622450195890E0,6.614173228346E-3));
#226=LINE('',#225,#224);
#227=CARTESIAN_POINT('',(1.392624577195E1,9.621448530236E0,6.614173228346E-3));
#228=CARTESIAN_POINT('',(1.392605744669E1,9.621336084661E0,6.614173228346E-3));
#229=CARTESIAN_POINT('',(1.392568413161E1,9.621113185039E0,6.614173228346E-3));
#230=CARTESIAN_POINT('',(1.392517983236E1,9.620709925654E0,6.614173228346E-3));
#231=CARTESIAN_POINT('',(1.392471011995E1,9.620280579354E0,6.614173228346E-3));
#232=CARTESIAN_POINT('',(1.392430014586E1,9.619803429638E0,6.614173228346E-3));
#233=CARTESIAN_POINT('',(1.392393562039E1,9.619288205244E0,6.614173228346E-3));
#234=CARTESIAN_POINT('',(1.392362798093E1,9.618729511843E0,6.614173228346E-3));
#235=CARTESIAN_POINT('',(1.392336197239E1,9.618131576976E0,6.614173228346E-3));
#236=CARTESIAN_POINT('',(1.392322884128E1,9.617710971496E0,6.614173228346E-3));
#237=CARTESIAN_POINT('',(1.392316127769E1,9.617497515685E0,6.614173228346E-3));
#239=CARTESIAN_POINT('',(1.393289969381E1,9.622958978457E0,6.614173228346E-3));
#240=CARTESIAN_POINT('',(1.393232351750E1,9.622940331307E0,6.614173228346E-3));
#241=CARTESIAN_POINT('',(1.393118030702E1,9.622903332898E0,6.614173228346E-3));
#242=CARTESIAN_POINT('',(1.392948602197E1,9.622614883512E0,6.614173228346E-3));
#243=CARTESIAN_POINT('',(1.392783092461E1,9.622141888252E0,6.614173228346E-3));
#244=CARTESIAN_POINT('',(1.392677647852E1,9.621680665417E0,6.614173228346E-3));
#245=CARTESIAN_POINT('',(1.392624577195E1,9.621448530236E0,6.614173228346E-3));
#247=CARTESIAN_POINT('',(1.394319459085E1,9.616082464205E0,6.614173228346E-3));
#248=CARTESIAN_POINT('',(1.394312325704E1,9.616424811024E0,6.614173228346E-3));
#249=CARTESIAN_POINT('',(1.394298292460E1,9.617098297795E0,6.614173228346E-3));
#250=CARTESIAN_POINT('',(1.394258962087E1,9.618040309559E0,6.614173228346E-3));
#251=CARTESIAN_POINT('',(1.394208690600E1,9.618908429291E0,6.614173228346E-3));
#252=CARTESIAN_POINT('',(1.394143834077E1,9.619682318740E0,6.614173228346E-3));
#253=CARTESIAN_POINT('',(1.394067738425E1,9.620384340756E0,6.614173228346E-3));
#254=CARTESIAN_POINT('',(1.393980346942E1,9.621014503748E0,6.614173228346E-3));
#255=CARTESIAN_POINT('',(1.393881525378E1,9.621572166661E0,6.614173228346E-3));
#256=CARTESIAN_POINT('',(1.393773075945E1,9.622054566472E0,6.614173228346E-3));
#257=CARTESIAN_POINT('',(1.393657982414E1,9.622463775024E0,6.614173228346E-3));
#258=CARTESIAN_POINT('',(1.393537994126E1,9.622745541732E0,6.614173228346E-3));
#259=CARTESIAN_POINT('',(1.393415089356E1,9.622930029685E0,6.614173228346E-3));
#260=CARTESIAN_POINT('',(1.393331905091E1,9.622949275890E0,6.614173228346E-3));
#261=CARTESIAN_POINT('',(1.393289969381E1,9.622958978457E0,6.614173228346E-3));
#263=CARTESIAN_POINT('',(1.395429241035E1,9.622958978457E0,6.614173228346E-3));
#264=CARTESIAN_POINT('',(1.395399550120E1,9.622951372157E0,6.614173228346E-3));
#265=CARTESIAN_POINT('',(1.395340333044E1,9.622936201748E0,6.614173228346E-3));
#266=CARTESIAN_POINT('',(1.395252321128E1,9.622860381732E0,6.614173228346E-3));
#267=CARTESIAN_POINT('',(1.395165823238E1,9.622712955969E0,6.614173228346E-3));
#268=CARTESIAN_POINT('',(1.395080845058E1,9.622514821984E0,6.614173228346E-3));
#269=CARTESIAN_POINT('',(1.394996972655E1,9.622262573102E0,6.614173228346E-3));
#270=CARTESIAN_POINT('',(1.394915325444E1,9.621938785134E0,6.614173228346E-3));
#271=CARTESIAN_POINT('',(1.394834411754E1,9.621576906520E0,6.614173228346E-3));
#272=CARTESIAN_POINT('',(1.394756415879E1,9.621145440331E0,6.614173228346E-3));
#273=CARTESIAN_POINT('',(1.394681041087E1,9.620678232425E0,6.614173228346E-3));
#274=CARTESIAN_POINT('',(1.394611835046E1,9.620148165732E0,6.614173228346E-3));
#275=CARTESIAN_POINT('',(1.394548000290E1,9.619585529717E0,6.614173228346E-3));
#276=CARTESIAN_POINT('',(1.394489979921E1,9.618975848220E0,6.614173228346E-3));
#277=CARTESIAN_POINT('',(1.394438652874E1,9.618314489291E0,6.614173228346E-3));
#278=CARTESIAN_POINT('',(1.394392291479E1,9.617614985055E0,6.614173228346E-3));
#279=CARTESIAN_POINT('',(1.394352053154E1,9.616869930520E0,6.614173228346E-3));
#280=CARTESIAN_POINT('',(1.394330403076E1,9.616346868898E0,6.614173228346E-3));
#281=CARTESIAN_POINT('',(1.394319459085E1,9.616082464205E0,6.614173228346E-3));
#283=CARTESIAN_POINT('',(1.396589901241E1,9.608887960866E0,6.614173228346E-3));
#284=CARTESIAN_POINT('',(1.396589782668E1,9.609317364425E0,6.614173228346E-3));
#285=CARTESIAN_POINT('',(1.396589553430E1,9.610147545260E0,6.614173228346E-3));
#286=CARTESIAN_POINT('',(1.396582507715E1,9.611353500283E0,6.614173228346E-3));
#287=CARTESIAN_POINT('',(1.396573618294E1,9.612478592693E0,6.614173228346E-3));
#288=CARTESIAN_POINT('',(1.396559966443E1,9.613526284157E0,6.614173228346E-3));
#289=CARTESIAN_POINT('',(1.396542986561E1,9.614493387260E0,6.614173228346E-3));
#290=CARTESIAN_POINT('',(1.396521183780E1,9.615378445890E0,6.614173228346E-3));
#291=CARTESIAN_POINT('',(1.396497283493E1,9.616187842205E0,6.614173228346E-3));
#292=CARTESIAN_POINT('',(1.396467148455E1,9.616918333181E0,6.614173228346E-3));
#293=CARTESIAN_POINT('',(1.396433670425E1,9.617594920677E0,6.614173228346E-3));
#294=CARTESIAN_POINT('',(1.396394872611E1,9.618227024976E0,6.614173228346E-3));
#295=CARTESIAN_POINT('',(1.396352305616E1,9.618830966598E0,6.614173228346E-3));
#296=CARTESIAN_POINT('',(1.396304485767E1,9.619398295559E0,6.614173228346E-3));
#297=CARTESIAN_POINT('',(1.396251284504E1,9.619920726378E0,6.614173228346E-3));
#298=CARTESIAN_POINT('',(1.396195176189E1,9.620429125228E0,6.614173228346E-3));
#299=CARTESIAN_POINT('',(1.396132652622E1,9.620886884031E0,6.614173228346E-3));
#300=CARTESIAN_POINT('',(1.396066215364E1,9.621312960709E0,6.614173228346E-3));
#301=CARTESIAN_POINT('',(1.395996512041E1,9.621706482236E0,6.614173228346E-3));
#302=CARTESIAN_POINT('',(1.395923085123E1,9.622036004362E0,6.614173228346E-3));
#303=CARTESIAN_POINT('',(1.395847388820E1,9.622327880740E0,6.614173228346E-3));
#304=CARTESIAN_POINT('',(1.395768512027E1,9.622553477244E0,6.614173228346E-3));
#305=CARTESIAN_POINT('',(1.395687385606E1,9.622740389764E0,6.614173228346E-3));
#306=CARTESIAN_POINT('',(1.395603626825E1,9.622862942740E0,6.614173228346E-3));
#307=CARTESIAN_POINT('',(1.395517395231E1,9.622948284047E0,6.614173228346E-3));
#308=CARTESIAN_POINT('',(1.395458941951E1,9.622955375291E0,6.614173228346E-3));
#309=CARTESIAN_POINT('',(1.395429241035E1,9.622958978457E0,6.614173228346E-3));
#311=CARTESIAN_POINT('',(1.395350538732E1,9.618379935449E0,6.614173228346E-3));
#312=CARTESIAN_POINT('',(1.395386910704E1,9.618367065685E0,6.614173228346E-3));
#313=CARTESIAN_POINT('',(1.395457443723E1,9.618342108520E0,6.614173228346E-3));
#314=CARTESIAN_POINT('',(1.395559455288E1,9.618168205984E0,6.614173228346E-3));
#315=CARTESIAN_POINT('',(1.395653279400E1,9.617867098961E0,6.614173228346E-3));
#316=CARTESIAN_POINT('',(1.395737741655E1,9.617441099433E0,6.614173228346E-3));
#317=CARTESIAN_POINT('',(1.395812728209E1,9.616930975134E0,6.614173228346E-3));
#318=CARTESIAN_POINT('',(1.395875826402E1,9.616323561118E0,6.614173228346E-3));
#319=CARTESIAN_POINT('',(1.395927067224E1,9.615642320835E0,6.614173228346E-3));
#320=CARTESIAN_POINT('',(1.395961041524E1,9.615005672362E0,6.614173228346E-3));
#321=CARTESIAN_POINT('',(1.395980750967E1,9.614421261921E0,6.614173228346E-3));
#322=CARTESIAN_POINT('',(1.395994033035E1,9.613892134866E0,6.614173228346E-3));
#323=CARTESIAN_POINT('',(1.396006116950E1,9.613274583024E0,6.614173228346E-3));
#324=CARTESIAN_POINT('',(1.396014109663E1,9.612564440598E0,6.614173228346E-3));
#325=CARTESIAN_POINT('',(1.396021296557E1,9.611769308173E0,6.614173228346E-3));
#326=CARTESIAN_POINT('',(1.396026906458E1,9.610884019748E0,6.614173228346E-3));
#327=CARTESIAN_POINT('',(1.396029993912E1,9.609908403921E0,6.614173228346E-3));
#328=CARTESIAN_POINT('',(1.396030155959E1,9.609227171433E0,6.614173228346E-3));
#329=CARTESIAN_POINT('',(1.396030240427E1,9.608872061433E0,6.614173228346E-3));
#331=CARTESIAN_POINT('',(1.394453014507E1,9.604507661055E0,6.614173228346E-3));
#332=CARTESIAN_POINT('',(1.394453322860E1,9.604995270898E0,6.614173228346E-3));
#333=CARTESIAN_POINT('',(1.394453917946E1,9.605936292E0,6.614173228346E-3));
#334=CARTESIAN_POINT('',(1.394458341850E1,9.607291295811E0,6.614173228346E-3));
#335=CARTESIAN_POINT('',(1.394467170827E1,9.608534630173E0,6.614173228346E-3));
#336=CARTESIAN_POINT('',(1.394478849515E1,9.609664528772E0,6.614173228346E-3));
#337=CARTESIAN_POINT('',(1.394493736550E1,9.610683597449E0,6.614173228346E-3));
#338=CARTESIAN_POINT('',(1.394511731414E1,9.611589223606E0,6.614173228346E-3));
#339=CARTESIAN_POINT('',(1.394532780983E1,9.612386279622E0,6.614173228346E-3));
#340=CARTESIAN_POINT('',(1.394566497576E1,9.613284457606E0,6.614173228346E-3));
#341=CARTESIAN_POINT('',(1.394617024942E1,9.614282067354E0,6.614173228346E-3));
#342=CARTESIAN_POINT('',(1.394692741809E1,9.615332142047E0,6.614173228346E-3));
#343=CARTESIAN_POINT('',(1.394780753419E1,9.616253370283E0,6.614173228346E-3));
#344=CARTESIAN_POINT('',(1.394882321027E1,9.617011479827E0,6.614173228346E-3));
#345=CARTESIAN_POINT('',(1.394991816836E1,9.617624694520E0,6.614173228346E-3));
#346=CARTESIAN_POINT('',(1.395107783334E1,9.618053748803E0,6.614173228346E-3));
#347=CARTESIAN_POINT('',(1.395227595860E1,9.618331855228E0,6.614173228346E-3));
#348=CARTESIAN_POINT('',(1.395309311991E1,9.618363812598E0,6.614173228346E-3));
#349=CARTESIAN_POINT('',(1.395350538732E1,9.618379935449E0,6.614173228346E-3));
#351=CARTESIAN_POINT('',(1.393211267079E1,9.618379935449E0,6.614173228346E-3));
#352=CARTESIAN_POINT('',(1.393247652354E1,9.618368316472E0,6.614173228346E-3));
#353=CARTESIAN_POINT('',(1.393318305661E1,9.618345754677E0,6.614173228346E-3));
#354=CARTESIAN_POINT('',(1.393420478050E1,9.618153907087E0,6.614173228346E-3));
#355=CARTESIAN_POINT('',(1.393514273121E1,9.617824040268E0,6.614173228346E-3));
#356=CARTESIAN_POINT('',(1.393599900553E1,9.617379289890E0,6.614173228346E-3));
#357=CARTESIAN_POINT('',(1.393675102899E1,9.616825189276E0,6.614173228346E-3));
#358=CARTESIAN_POINT('',(1.393739601935E1,9.616180187858E0,6.614173228346E-3));
#359=CARTESIAN_POINT('',(1.393790410176E1,9.615439083780E0,6.614173228346E-3));
#360=CARTESIAN_POINT('',(1.393824318307E1,9.614750366409E0,6.614173228346E-3));
#361=CARTESIAN_POINT('',(1.393843995255E1,9.614113695591E0,6.614173228346E-3));
#362=CARTESIAN_POINT('',(1.393857114576E1,9.613531319669E0,6.614173228346E-3));
#363=CARTESIAN_POINT('',(1.393869304602E1,9.612847707732E0,6.614173228346E-3));
#364=CARTESIAN_POINT('',(1.393877239928E1,9.612058201370E0,6.614173228346E-3));
#365=CARTESIAN_POINT('',(1.393884433110E1,9.611167700551E0,6.614173228346E-3));
#366=CARTESIAN_POINT('',(1.393890006312E1,9.610173761055E0,6.614173228346E-3));
#367=CARTESIAN_POINT('',(1.393893114869E1,9.609076310173E0,6.614173228346E-3));
#368=CARTESIAN_POINT('',(1.393893271743E1,9.608310301323E0,6.614173228346E-3));
#369=CARTESIAN_POINT('',(1.393893353693E1,9.607910144409E0,6.614173228346E-3));
#371=CARTESIAN_POINT('',(1.392316127769E1,9.605413929969E0,6.614173228346E-3));
#372=CARTESIAN_POINT('',(1.392316336200E1,9.605840636268E0,6.614173228346E-3));
#373=CARTESIAN_POINT('',(1.392316739013E1,9.606665296913E0,6.614173228346E-3));
#374=CARTESIAN_POINT('',(1.392322539817E1,9.607858328976E0,6.614173228346E-3));
#375=CARTESIAN_POINT('',(1.392331176312E1,9.608963917795E0,6.614173228346E-3));
#376=CARTESIAN_POINT('',(1.392342515282E1,9.609981075024E0,6.614173228346E-3));
#377=CARTESIAN_POINT('',(1.392358798304E1,9.610908655512E0,6.614173228346E-3));
#378=CARTESIAN_POINT('',(1.392377074894E1,9.611750292047E0,6.614173228346E-3));
#379=CARTESIAN_POINT('',(1.392400453011E1,9.612503552693E0,6.614173228346E-3));
#380=CARTESIAN_POINT('',(1.392434596587E1,9.613382479937E0,6.614173228346E-3));
#381=CARTESIAN_POINT('',(1.392487800118E1,9.614361523937E0,6.614173228346E-3));
#382=CARTESIAN_POINT('',(1.392564088715E1,9.615402146362E0,6.614173228346E-3));
#383=CARTESIAN_POINT('',(1.392653803332E1,9.616301847638E0,6.614173228346E-3));
#384=CARTESIAN_POINT('',(1.392755521583E1,9.617040651780E0,6.614173228346E-3));
#385=CARTESIAN_POINT('',(1.392864293140E1,9.617636060976E0,6.614173228346E-3));
#386=CARTESIAN_POINT('',(1.392977777476E1,9.618061778409E0,6.614173228346E-3));
#387=CARTESIAN_POINT('',(1.393093713827E1,9.618327313370E0,6.614173228346E-3));
#388=CARTESIAN_POINT('',(1.393172177953E1,9.618362437417E0,6.614173228346E-3));
#389=CARTESIAN_POINT('',(1.393211267079E1,9.618379935449E0,6.614173228346E-3));
#391=DIRECTION('',(0.E0,-1.E0,0.E0));
#392=VECTOR('',#391,4.952680204724E-3);
#393=CARTESIAN_POINT('',(1.392316127769E1,9.622450195890E0,6.614173228346E-3));
#394=LINE('',#393,#392);
#395=DIRECTION('',(0.E0,0.E0,1.E0));
#396=VECTOR('',#395,6.614173228346E-3);
#397=CARTESIAN_POINT('',(1.392316127769E1,9.622450195890E0,0.E0));
#398=LINE('',#397,#396);
#399=DIRECTION('',(0.E0,0.E0,1.E0));
#400=VECTOR('',#399,6.614173228346E-3);
#401=CARTESIAN_POINT('',(1.392316127769E1,9.617497515685E0,0.E0));
#402=LINE('',#401,#400);
#403=DIRECTION('',(0.E0,0.E0,1.E0));
#404=VECTOR('',#403,6.614173228346E-3);
#405=CARTESIAN_POINT('',(1.392624577195E1,9.621448530236E0,0.E0));
#406=LINE('',#405,#404);
#407=DIRECTION('',(0.E0,0.E0,1.E0));
#408=VECTOR('',#407,6.614173228346E-3);
#409=CARTESIAN_POINT('',(1.393289969381E1,9.622958978457E0,0.E0));
#410=LINE('',#409,#408);
#411=DIRECTION('',(0.E0,0.E0,1.E0));
#412=VECTOR('',#411,6.614173228346E-3);
#413=CARTESIAN_POINT('',(1.394319459085E1,9.616082464205E0,0.E0));
#414=LINE('',#413,#412);
#415=DIRECTION('',(0.E0,0.E0,1.E0));
#416=VECTOR('',#415,6.614173228346E-3);
#417=CARTESIAN_POINT('',(1.395429241035E1,9.622958978457E0,0.E0));
#418=LINE('',#417,#416);
#419=DIRECTION('',(0.E0,0.E0,-1.E0));
#420=VECTOR('',#419,6.614173228346E-3);
#421=CARTESIAN_POINT('',(1.396589901241E1,9.608887960866E0,6.614173228346E-3));
#422=LINE('',#421,#420);
#423=DIRECTION('',(0.E0,-1.E0,0.E0));
#424=VECTOR('',#423,1.594715324409E-2);
#425=CARTESIAN_POINT('',(1.396589901241E1,9.608887960866E0,6.614173228346E-3));
#426=LINE('',#425,#424);
#427=DIRECTION('',(-1.E0,0.E0,0.E0));
#428=VECTOR('',#427,5.596608141731E-3);
#429=CARTESIAN_POINT('',(1.396589901241E1,9.592940807622E0,6.614173228346E-3));
#430=LINE('',#429,#428);
#431=DIRECTION('',(0.E0,0.E0,1.E0));
#432=VECTOR('',#431,6.614173228346E-3);
#433=CARTESIAN_POINT('',(1.396589901241E1,9.592940807622E0,0.E0));
#434=LINE('',#433,#432);
#435=DIRECTION('',(0.E0,1.E0,0.E0));
#436=VECTOR('',#435,1.593125381102E-2);
#437=CARTESIAN_POINT('',(1.396030240427E1,9.592940807622E0,6.614173228346E-3));
#438=LINE('',#437,#436);
#439=DIRECTION('',(0.E0,0.E0,1.E0));
#440=VECTOR('',#439,6.614173228346E-3);
#441=CARTESIAN_POINT('',(1.396030240427E1,9.592940807622E0,0.E0));
#442=LINE('',#441,#440);
#443=DIRECTION('',(0.E0,2.685682364331E-13,1.E0));
#444=VECTOR('',#443,6.614173228346E-3);
#445=CARTESIAN_POINT('',(1.396030240427E1,9.608872061433E0,0.E0));
#446=LINE('',#445,#444);
#447=DIRECTION('',(0.E0,0.E0,1.E0));
#448=VECTOR('',#447,6.614173228346E-3);
#449=CARTESIAN_POINT('',(1.395350538732E1,9.618379935449E0,0.E0));
#450=LINE('',#449,#448);
#451=DIRECTION('',(0.E0,0.E0,-1.E0));
#452=VECTOR('',#451,6.614173228346E-3);
#453=CARTESIAN_POINT('',(1.394453014507E1,9.604507661055E0,6.614173228346E-3));
#454=LINE('',#453,#452);
#455=DIRECTION('',(-1.535730395201E-13,-1.E0,0.E0));
#456=VECTOR('',#455,1.156685343307E-2);
#457=CARTESIAN_POINT('',(1.394453014507E1,9.604507661055E0,6.614173228346E-3));
#458=LINE('',#457,#456);
#459=DIRECTION('',(-1.E0,0.E0,0.E0));
#460=VECTOR('',#459,5.596608141731E-3);
#461=CARTESIAN_POINT('',(1.394453014507E1,9.592940807622E0,6.614173228346E-3));
#462=LINE('',#461,#460);
#463=DIRECTION('',(0.E0,0.E0,1.E0));
#464=VECTOR('',#463,6.614173228346E-3);
#465=CARTESIAN_POINT('',(1.394453014507E1,9.592940807622E0,0.E0));
#466=LINE('',#465,#464);
#467=DIRECTION('',(-3.559991062988E-13,1.E0,0.E0));
#468=VECTOR('',#467,1.496933678740E-2);
#469=CARTESIAN_POINT('',(1.393893353693E1,9.592940807622E0,6.614173228346E-3));
#470=LINE('',#469,#468);
#471=DIRECTION('',(0.E0,0.E0,1.E0));
#472=VECTOR('',#471,6.614173228346E-3);
#473=CARTESIAN_POINT('',(1.393893353693E1,9.592940807622E0,0.E0));
#474=LINE('',#473,#472);
#475=DIRECTION('',(-2.685682364331E-13,0.E0,1.E0));
#476=VECTOR('',#475,6.614173228346E-3);
#477=CARTESIAN_POINT('',(1.393893353693E1,9.607910144409E0,0.E0));
#478=LINE('',#477,#476);
#479=DIRECTION('',(0.E0,0.E0,1.E0));
#480=VECTOR('',#479,6.614173228346E-3);
#481=CARTESIAN_POINT('',(1.393211267079E1,9.618379935449E0,0.E0));
#482=LINE('',#481,#480);
#483=DIRECTION('',(0.E0,0.E0,-1.E0));
#484=VECTOR('',#483,6.614173228346E-3);
#485=CARTESIAN_POINT('',(1.392316127769E1,9.605413929969E0,6.614173228346E-3));
#486=LINE('',#485,#484);
#487=DIRECTION('',(0.E0,-1.E0,0.E0));
#488=VECTOR('',#487,1.247312234646E-2);
#489=CARTESIAN_POINT('',(1.392316127769E1,9.605413929969E0,6.614173228346E-3));
#490=LINE('',#489,#488);
#491=DIRECTION('',(-1.E0,0.E0,0.E0));
#492=VECTOR('',#491,5.596608094491E-3);
#493=CARTESIAN_POINT('',(1.392316127769E1,9.592940807622E0,6.614173228346E-3));
#494=LINE('',#493,#492);
#495=DIRECTION('',(0.E0,0.E0,1.E0));
#496=VECTOR('',#495,6.614173228346E-3);
#497=CARTESIAN_POINT('',(1.392316127769E1,9.592940807622E0,0.E0));
#498=LINE('',#497,#496);
#499=DIRECTION('',(0.E0,1.E0,0.E0));
#500=VECTOR('',#499,2.950938826771E-2);
#501=CARTESIAN_POINT('',(1.391756466959E1,9.592940807622E0,6.614173228346E-3));
#502=LINE('',#501,#500);
#503=DIRECTION('',(0.E0,0.E0,1.E0));
#504=VECTOR('',#503,6.614173228346E-3);
#505=CARTESIAN_POINT('',(1.391756466959E1,9.592940807622E0,0.E0));
#506=LINE('',#505,#504);
#507=DIRECTION('',(0.E0,0.E0,-1.E0));
#508=VECTOR('',#507,6.614173228346E-3);
#509=CARTESIAN_POINT('',(1.391756466959E1,9.622450195890E0,6.614173228346E-3));
#510=LINE('',#509,#508);
#511=CARTESIAN_POINT('',(1.391756466959E1,9.622450195890E0,6.614173228346E-3));
#512=CARTESIAN_POINT('',(1.392316127769E1,9.622450195890E0,6.614173228346E-3));
#513=VERTEX_POINT('',#511);
#514=VERTEX_POINT('',#512);
#515=VERTEX_POINT('',#31);
#516=VERTEX_POINT('',#49);
#517=CARTESIAN_POINT('',(1.392316127769E1,9.617497515685E0,6.614173228346E-3));
#518=VERTEX_POINT('',#517);
#519=CARTESIAN_POINT('',(1.392316127769E1,9.622450195890E0,0.E0));
#520=VERTEX_POINT('',#519);
#521=VERTEX_POINT('',#51);
#522=CARTESIAN_POINT('',(1.393893353693E1,9.592940807622E0,0.E0));
#523=VERTEX_POINT('',#522);
#524=CARTESIAN_POINT('',(1.393211267079E1,9.618379935449E0,6.614173228346E-3));
#525=VERTEX_POINT('',#524);
#526=CARTESIAN_POINT('',(1.392316127769E1,9.605413929969E0,6.614173228346E-3));
#527=VERTEX_POINT('',#526);
#528=CARTESIAN_POINT('',(1.392316127769E1,9.592940807622E0,0.E0));
#529=CARTESIAN_POINT('',(1.392316127769E1,9.592940807622E0,6.614173228346E-3));
#530=VERTEX_POINT('',#528);
#531=VERTEX_POINT('',#529);
#532=VERTEX_POINT('',#369);
#533=CARTESIAN_POINT('',(1.391756466959E1,9.592940807622E0,6.614173228346E-3));
#534=VERTEX_POINT('',#533);
#535=CARTESIAN_POINT('',(1.391756466959E1,9.592940807622E0,0.E0));
#536=VERTEX_POINT('',#535);
#537=CARTESIAN_POINT('',(1.391756466959E1,9.622450195890E0,0.E0));
#538=VERTEX_POINT('',#537);
#539=CARTESIAN_POINT('',(1.392316127769E1,9.617497515685E0,0.E0));
#540=VERTEX_POINT('',#539);
#541=CARTESIAN_POINT('',(1.392624577195E1,9.621448530236E0,0.E0));
#542=CARTESIAN_POINT('',(1.392624577195E1,9.621448530236E0,6.614173228346E-3));
#543=VERTEX_POINT('',#541);
#544=VERTEX_POINT('',#542);
#545=CARTESIAN_POINT('',(1.396589901241E1,9.608887960866E0,0.E0));
#546=CARTESIAN_POINT('',(1.396589901241E1,9.592940807622E0,0.E0));
#547=VERTEX_POINT('',#545);
#548=VERTEX_POINT('',#546);
#549=CARTESIAN_POINT('',(1.396589901241E1,9.592940807622E0,6.614173228346E-3));
#550=VERTEX_POINT('',#549);
#551=CARTESIAN_POINT('',(1.396030240427E1,9.592940807622E0,0.E0));
#552=CARTESIAN_POINT('',(1.396030240427E1,9.592940807622E0,6.614173228346E-3));
#553=VERTEX_POINT('',#551);
#554=VERTEX_POINT('',#552);
#555=CARTESIAN_POINT('',(1.396030240427E1,9.608872061433E0,0.E0));
#556=CARTESIAN_POINT('',(1.396030240427E1,9.608872061433E0,6.614173228346E-3));
#557=VERTEX_POINT('',#555);
#558=VERTEX_POINT('',#556);
#559=CARTESIAN_POINT('',(1.395350538732E1,9.618379935449E0,0.E0));
#560=CARTESIAN_POINT('',(1.395350538732E1,9.618379935449E0,6.614173228346E-3));
#561=VERTEX_POINT('',#559);
#562=VERTEX_POINT('',#560);
#563=CARTESIAN_POINT('',(1.394453014507E1,9.604507661055E0,0.E0));
#564=CARTESIAN_POINT('',(1.394453014507E1,9.592940807622E0,0.E0));
#565=VERTEX_POINT('',#563);
#566=VERTEX_POINT('',#564);
#567=CARTESIAN_POINT('',(1.394453014507E1,9.592940807622E0,6.614173228346E-3));
#568=VERTEX_POINT('',#567);
#569=CARTESIAN_POINT('',(1.393893353693E1,9.592940807622E0,6.614173228346E-3));
#570=VERTEX_POINT('',#569);
#571=VERTEX_POINT('',#239);
#572=CARTESIAN_POINT('',(1.393289969381E1,9.622958978457E0,0.E0));
#573=VERTEX_POINT('',#572);
#574=VERTEX_POINT('',#197);
#575=VERTEX_POINT('',#181);
#576=CARTESIAN_POINT('',(1.394453014507E1,9.604507661055E0,6.614173228346E-3));
#577=VERTEX_POINT('',#576);
#578=CARTESIAN_POINT('',(1.396589901241E1,9.608887960866E0,6.614173228346E-3));
#579=VERTEX_POINT('',#578);
#580=VERTEX_POINT('',#309);
#581=CARTESIAN_POINT('',(1.394319459085E1,9.616082464205E0,6.614173228346E-3));
#582=VERTEX_POINT('',#581);
#583=CARTESIAN_POINT('',(1.391756466959E1,9.592940807622E0,0.E0));
#584=DIRECTION('',(0.E0,0.E0,1.E0));
#585=DIRECTION('',(1.E0,0.E0,0.E0));
#586=AXIS2_PLACEMENT_3D('',#583,#584,#585);
#587=PLANE('',#586);
#589=ORIENTED_EDGE('',*,*,#588,.F.);
#591=ORIENTED_EDGE('',*,*,#590,.F.);
#593=ORIENTED_EDGE('',*,*,#592,.F.);
#595=ORIENTED_EDGE('',*,*,#594,.F.);
#597=ORIENTED_EDGE('',*,*,#596,.F.);
#599=ORIENTED_EDGE('',*,*,#598,.F.);
#601=ORIENTED_EDGE('',*,*,#600,.F.);
#603=ORIENTED_EDGE('',*,*,#602,.F.);
#605=ORIENTED_EDGE('',*,*,#604,.F.);
#607=ORIENTED_EDGE('',*,*,#606,.F.);
#609=ORIENTED_EDGE('',*,*,#608,.F.);
#611=ORIENTED_EDGE('',*,*,#610,.F.);
#613=ORIENTED_EDGE('',*,*,#612,.F.);
#615=ORIENTED_EDGE('',*,*,#614,.F.);
#617=ORIENTED_EDGE('',*,*,#616,.F.);
#619=ORIENTED_EDGE('',*,*,#618,.F.);
#621=ORIENTED_EDGE('',*,*,#620,.F.);
#623=ORIENTED_EDGE('',*,*,#622,.F.);
#625=ORIENTED_EDGE('',*,*,#624,.F.);
#627=ORIENTED_EDGE('',*,*,#626,.F.);
#628=EDGE_LOOP('',(#589,#591,#593,#595,#597,#599,#601,#603,#605,#607,#609,#611,
#613,#615,#617,#619,#621,#623,#625,#627));
#629=FACE_OUTER_BOUND('',#628,.F.);
#631=FILL_AREA_STYLE_COLOUR('',#14);
#632=FILL_AREA_STYLE('',(#631));
#633=SURFACE_STYLE_FILL_AREA(#632);
#634=SURFACE_SIDE_STYLE('',(#633));
#635=SURFACE_STYLE_USAGE(.BOTH.,#634);
#636=PRESENTATION_STYLE_ASSIGNMENT((#635));
#637=STYLED_ITEM('',(#636),#630);
#638=CARTESIAN_POINT('',(1.391756466959E1,9.622450195890E0,0.E0));
#639=DIRECTION('',(0.E0,1.E0,0.E0));
#640=DIRECTION('',(0.E0,0.E0,1.E0));
#641=AXIS2_PLACEMENT_3D('',#638,#639,#640);
#642=PLANE('',#641);
#644=ORIENTED_EDGE('',*,*,#643,.F.);
#646=ORIENTED_EDGE('',*,*,#645,.T.);
#647=ORIENTED_EDGE('',*,*,#588,.T.);
#649=ORIENTED_EDGE('',*,*,#648,.T.);
#650=EDGE_LOOP('',(#644,#646,#647,#649));
#651=FACE_OUTER_BOUND('',#650,.F.);
#653=FILL_AREA_STYLE_COLOUR('',#14);
#654=FILL_AREA_STYLE('',(#653));
#655=SURFACE_STYLE_FILL_AREA(#654);
#656=SURFACE_SIDE_STYLE('',(#655));
#657=SURFACE_STYLE_USAGE(.BOTH.,#656);
#658=PRESENTATION_STYLE_ASSIGNMENT((#657));
#659=STYLED_ITEM('',(#658),#652);
#660=CARTESIAN_POINT('',(1.391756466959E1,9.592940807622E0,6.614173228346E-3));
#661=DIRECTION('',(0.E0,0.E0,1.E0));
#662=DIRECTION('',(1.E0,0.E0,0.E0));
#663=AXIS2_PLACEMENT_3D('',#660,#661,#662);
#664=PLANE('',#663);
#666=ORIENTED_EDGE('',*,*,#665,.T.);
#668=ORIENTED_EDGE('',*,*,#667,.F.);
#670=ORIENTED_EDGE('',*,*,#669,.F.);
#672=ORIENTED_EDGE('',*,*,#671,.F.);
#674=ORIENTED_EDGE('',*,*,#673,.F.);
#676=ORIENTED_EDGE('',*,*,#675,.F.);
#678=ORIENTED_EDGE('',*,*,#677,.T.);
#680=ORIENTED_EDGE('',*,*,#679,.T.);
#682=ORIENTED_EDGE('',*,*,#681,.T.);
#684=ORIENTED_EDGE('',*,*,#683,.F.);
#686=ORIENTED_EDGE('',*,*,#685,.F.);
#688=ORIENTED_EDGE('',*,*,#687,.T.);
#690=ORIENTED_EDGE('',*,*,#689,.T.);
#692=ORIENTED_EDGE('',*,*,#691,.T.);
#694=ORIENTED_EDGE('',*,*,#693,.F.);
#696=ORIENTED_EDGE('',*,*,#695,.F.);
#698=ORIENTED_EDGE('',*,*,#697,.T.);
#700=ORIENTED_EDGE('',*,*,#699,.T.);
#702=ORIENTED_EDGE('',*,*,#701,.T.);
#703=ORIENTED_EDGE('',*,*,#643,.T.);
#704=EDGE_LOOP('',(#666,#668,#670,#672,#674,#676,#678,#680,#682,#684,#686,#688,
#690,#692,#694,#696,#698,#700,#702,#703));
#705=FACE_OUTER_BOUND('',#704,.F.);
#707=FILL_AREA_STYLE_COLOUR('',#14);
#708=FILL_AREA_STYLE('',(#707));
#709=SURFACE_STYLE_FILL_AREA(#708);
#710=SURFACE_SIDE_STYLE('',(#709));
#711=SURFACE_STYLE_USAGE(.BOTH.,#710);
#712=PRESENTATION_STYLE_ASSIGNMENT((#711));
#713=STYLED_ITEM('',(#712),#706);
#714=CARTESIAN_POINT('',(1.392316127769E1,9.617497515685E0,6.614173228346E-3));
#715=DIRECTION('',(1.E0,0.E0,0.E0));
#716=DIRECTION('',(0.E0,0.E0,-1.E0));
#717=AXIS2_PLACEMENT_3D('',#714,#715,#716);
#718=PLANE('',#717);
#719=ORIENTED_EDGE('',*,*,#665,.F.);
#720=ORIENTED_EDGE('',*,*,#648,.F.);
#721=ORIENTED_EDGE('',*,*,#626,.T.);
#723=ORIENTED_EDGE('',*,*,#722,.T.);
#724=EDGE_LOOP('',(#719,#720,#721,#723));
#725=FACE_OUTER_BOUND('',#724,.F.);
#727=FILL_AREA_STYLE_COLOUR('',#14);
#728=FILL_AREA_STYLE('',(#727));
#729=SURFACE_STYLE_FILL_AREA(#728);
#730=SURFACE_SIDE_STYLE('',(#729));
#731=SURFACE_STYLE_USAGE(.BOTH.,#730);
#732=PRESENTATION_STYLE_ASSIGNMENT((#731));
#733=STYLED_ITEM('',(#732),#726);
#734=CARTESIAN_POINT('',(1.392307391552E1,9.617224778217E0,6.614173228346E-3));
#735=CARTESIAN_POINT('',(1.392317339122E1,9.617528121458E0,6.614173228346E-3));
#736=CARTESIAN_POINT('',(1.392332311766E1,9.618044239184E0,6.614173228346E-3));
#737=CARTESIAN_POINT('',(1.392362798093E1,9.618729511843E0,6.614173228346E-3));
#738=CARTESIAN_POINT('',(1.392393562039E1,9.619288205244E0,6.614173228346E-3));
#739=CARTESIAN_POINT('',(1.392430014586E1,9.619803429638E0,6.614173228346E-3));
#740=CARTESIAN_POINT('',(1.392471011995E1,9.620280579354E0,6.614173228346E-3));
#741=CARTESIAN_POINT('',(1.392517983236E1,9.620709925654E0,6.614173228346E-3));
#742=CARTESIAN_POINT('',(1.392575877779E1,9.621172875345E0,6.614173228346E-3));
#743=CARTESIAN_POINT('',(1.392622300853E1,9.621431618322E0,6.614173228346E-3));
#744=CARTESIAN_POINT('',(1.392649099972E1,9.621596396549E0,6.614173228346E-3));
#746=DRAUGHTING_PRE_DEFINED_CURVE_FONT('continuous');
#747=CURVE_STYLE('',#746,POSITIVE_LENGTH_MEASURE(2.E-2),#14);
#748=PRESENTATION_STYLE_ASSIGNMENT((#747));
#749=STYLED_ITEM('',(#748),#745);
#750=DIRECTION('',(0.E0,0.E0,-1.E0));
#751=VECTOR('',#750,1.E0);
#752=SURFACE_OF_LINEAR_EXTRUSION('',#745,#751);
#753=ORIENTED_EDGE('',*,*,#667,.T.);
#754=ORIENTED_EDGE('',*,*,#722,.F.);
#755=ORIENTED_EDGE('',*,*,#624,.T.);
#757=ORIENTED_EDGE('',*,*,#756,.T.);
#758=EDGE_LOOP('',(#753,#754,#755,#757));
#759=FACE_OUTER_BOUND('',#758,.F.);
#761=FILL_AREA_STYLE_COLOUR('',#14);
#762=FILL_AREA_STYLE('',(#761));
#763=SURFACE_STYLE_FILL_AREA(#762);
#764=SURFACE_SIDE_STYLE('',(#763));
#765=SURFACE_STYLE_USAGE(.BOTH.,#764);
#766=PRESENTATION_STYLE_ASSIGNMENT((#765));
#767=STYLED_ITEM('',(#766),#760);
#768=CARTESIAN_POINT('',(1.392598328599E1,9.621333907513E0,6.614173228346E-3));
#769=CARTESIAN_POINT('',(1.392660190173E1,9.621603147332E0,6.614173228346E-3));
#770=CARTESIAN_POINT('',(1.392773895491E1,9.622115605063E0,6.614173228346E-3));
#771=CARTESIAN_POINT('',(1.392948602197E1,9.622614883512E0,6.614173228346E-3));
#772=CARTESIAN_POINT('',(1.393127460417E1,9.622919386839E0,6.614173228346E-3));
#773=CARTESIAN_POINT('',(1.393251446571E1,9.622945425754E0,6.614173228346E-3));
#774=CARTESIAN_POINT('',(1.393318595904E1,9.622968422788E0,6.614173228346E-3));
#776=CURVE_STYLE('',#746,POSITIVE_LENGTH_MEASURE(2.E-2),#14);
#777=PRESENTATION_STYLE_ASSIGNMENT((#776));
#778=STYLED_ITEM('',(#777),#775);
#779=DIRECTION('',(0.E0,0.E0,-1.E0));
#780=VECTOR('',#779,1.E0);
#781=SURFACE_OF_LINEAR_EXTRUSION('',#775,#780);
#782=ORIENTED_EDGE('',*,*,#669,.T.);
#783=ORIENTED_EDGE('',*,*,#756,.F.);
#784=ORIENTED_EDGE('',*,*,#622,.T.);
#786=ORIENTED_EDGE('',*,*,#785,.T.);
#787=EDGE_LOOP('',(#782,#783,#784,#786));
#788=FACE_OUTER_BOUND('',#787,.F.);
#790=FILL_AREA_STYLE_COLOUR('',#14);
#791=FILL_AREA_STYLE('',(#790));
#792=SURFACE_STYLE_FILL_AREA(#791);
#793=SURFACE_SIDE_STYLE('',(#792));
#794=SURFACE_STYLE_USAGE(.BOTH.,#793);
#795=PRESENTATION_STYLE_ASSIGNMENT((#794));
#796=STYLED_ITEM('',(#795),#789);
#797=CARTESIAN_POINT('',(1.393261336346E1,9.622965916729E0,6.614173228346E-3));
#798=CARTESIAN_POINT('',(1.393312804383E1,9.622952317773E0,6.614173228346E-3));
#799=CARTESIAN_POINT('',(1.393405635165E1,9.622944221032E0,6.614173228346E-3));
#800=CARTESIAN_POINT('',(1.393537994126E1,9.622745541732E0,6.614173228346E-3));
#801=CARTESIAN_POINT('',(1.393657982414E1,9.622463775024E0,6.614173228346E-3));
#802=CARTESIAN_POINT('',(1.393773075945E1,9.622054566472E0,6.614173228346E-3));
#803=CARTESIAN_POINT('',(1.393881525378E1,9.621572166661E0,6.614173228346E-3));
#804=CARTESIAN_POINT('',(1.393980346942E1,9.621014503748E0,6.614173228346E-3));
#805=CARTESIAN_POINT('',(1.394067738425E1,9.620384340756E0,6.614173228346E-3));
#806=CARTESIAN_POINT('',(1.394143834077E1,9.619682318740E0,6.614173228346E-3));
#807=CARTESIAN_POINT('',(1.394208690600E1,9.618908429291E0,6.614173228346E-3));
#808=CARTESIAN_POINT('',(1.394258962087E1,9.618040309559E0,6.614173228346E-3));
#809=CARTESIAN_POINT('',(1.394301982459E1,9.617009917697E0,6.614173228346E-3));
#810=CARTESIAN_POINT('',(1.394315979074E1,9.616237165920E0,6.614173228346E-3));
#811=CARTESIAN_POINT('',(1.394325367892E1,9.615802248835E0,6.614173228346E-3));
#813=CURVE_STYLE('',#746,POSITIVE_LENGTH_MEASURE(2.E-2),#14);
#814=PRESENTATION_STYLE_ASSIGNMENT((#813));
#815=STYLED_ITEM('',(#814),#812);
#816=DIRECTION('',(0.E0,0.E0,-1.E0));
#817=VECTOR('',#816,1.E0);
#818=SURFACE_OF_LINEAR_EXTRUSION('',#812,#817);
#819=ORIENTED_EDGE('',*,*,#671,.T.);
#820=ORIENTED_EDGE('',*,*,#785,.F.);
#821=ORIENTED_EDGE('',*,*,#620,.T.);
#823=ORIENTED_EDGE('',*,*,#822,.T.);
#824=EDGE_LOOP('',(#819,#820,#821,#823));
#825=FACE_OUTER_BOUND('',#824,.F.);
#827=FILL_AREA_STYLE_COLOUR('',#14);
#828=FILL_AREA_STYLE('',(#827));
#829=SURFACE_STYLE_FILL_AREA(#828);
#830=SURFACE_SIDE_STYLE('',(#829));
#831=SURFACE_STYLE_USAGE(.BOTH.,#830);
#832=PRESENTATION_STYLE_ASSIGNMENT((#831));
#833=STYLED_ITEM('',(#832),#826);
#834=CARTESIAN_POINT('',(1.394308452924E1,9.615818001133E0,6.614173228346E-3));
#835=CARTESIAN_POINT('',(1.394323249656E1,9.616169717431E0,6.614173228346E-3));
#836=CARTESIAN_POINT('',(1.394347508766E1,9.616785786440E0,6.614173228346E-3));
#837=CARTESIAN_POINT('',(1.394392291479E1,9.617614985055E0,6.614173228346E-3));
#838=CARTESIAN_POINT('',(1.394438652874E1,9.618314489291E0,6.614173228346E-3));
#839=CARTESIAN_POINT('',(1.394489979921E1,9.618975848220E0,6.614173228346E-3));
#840=CARTESIAN_POINT('',(1.394548000290E1,9.619585529717E0,6.614173228346E-3));
#841=CARTESIAN_POINT('',(1.394611835046E1,9.620148165732E0,6.614173228346E-3));
#842=CARTESIAN_POINT('',(1.394681041087E1,9.620678232425E0,6.614173228346E-3));
#843=CARTESIAN_POINT('',(1.394756415879E1,9.621145440331E0,6.614173228346E-3));
#844=CARTESIAN_POINT('',(1.394834411754E1,9.621576906520E0,6.614173228346E-3));
#845=CARTESIAN_POINT('',(1.394915325444E1,9.621938785134E0,6.614173228346E-3));
#846=CARTESIAN_POINT('',(1.394996972655E1,9.622262573102E0,6.614173228346E-3));
#847=CARTESIAN_POINT('',(1.395080845058E1,9.622514821984E0,6.614173228346E-3));
#848=CARTESIAN_POINT('',(1.395165823238E1,9.622712955969E0,6.614173228346E-3));
#849=CARTESIAN_POINT('',(1.395252321128E1,9.622860381732E0,6.614173228346E-3));
#850=CARTESIAN_POINT('',(1.395349855997E1,9.622944405529E0,6.614173228346E-3));
#851=CARTESIAN_POINT('',(1.395418645627E1,9.622955334909E0,6.614173228346E-3));
#852=CARTESIAN_POINT('',(1.395457877560E1,9.622966613381E0,6.614173228346E-3));
#854=CURVE_STYLE('',#746,POSITIVE_LENGTH_MEASURE(2.E-2),#14);
#855=PRESENTATION_STYLE_ASSIGNMENT((#854));
#856=STYLED_ITEM('',(#855),#853);
#857=DIRECTION('',(0.E0,0.E0,-1.E0));
#858=VECTOR('',#857,1.E0);
#859=SURFACE_OF_LINEAR_EXTRUSION('',#853,#858);
#860=ORIENTED_EDGE('',*,*,#673,.T.);
#861=ORIENTED_EDGE('',*,*,#822,.F.);
#862=ORIENTED_EDGE('',*,*,#618,.T.);
#864=ORIENTED_EDGE('',*,*,#863,.T.);
#865=EDGE_LOOP('',(#860,#861,#862,#864));
#866=FACE_OUTER_BOUND('',#865,.F.);
#868=FILL_AREA_STYLE_COLOUR('',#14);
#869=FILL_AREA_STYLE('',(#868));
#870=SURFACE_STYLE_FILL_AREA(#869);
#871=SURFACE_SIDE_STYLE('',(#870));
#872=SURFACE_STYLE_USAGE(.BOTH.,#871);
#873=PRESENTATION_STYLE_ASSIGNMENT((#872));
#874=STYLED_ITEM('',(#873),#867);
#875=CARTESIAN_POINT('',(1.395400601796E1,9.622962886182E0,6.614173228346E-3));
#876=CARTESIAN_POINT('',(1.395439840871E1,9.622956344377E0,6.614173228346E-3));
#877=CARTESIAN_POINT('',(1.395507889716E1,9.622957691424E0,6.614173228346E-3));
#878=CARTESIAN_POINT('',(1.395603626825E1,9.622862942740E0,6.614173228346E-3));
#879=CARTESIAN_POINT('',(1.395687385606E1,9.622740389764E0,6.614173228346E-3));
#880=CARTESIAN_POINT('',(1.395768512027E1,9.622553477244E0,6.614173228346E-3));
#881=CARTESIAN_POINT('',(1.395847388820E1,9.622327880740E0,6.614173228346E-3));
#882=CARTESIAN_POINT('',(1.395923085123E1,9.622036004362E0,6.614173228346E-3));
#883=CARTESIAN_POINT('',(1.395996512041E1,9.621706482236E0,6.614173228346E-3));
#884=CARTESIAN_POINT('',(1.396066215364E1,9.621312960709E0,6.614173228346E-3));
#885=CARTESIAN_POINT('',(1.396132652622E1,9.620886884031E0,6.614173228346E-3));
#886=CARTESIAN_POINT('',(1.396195176189E1,9.620429125228E0,6.614173228346E-3));
#887=CARTESIAN_POINT('',(1.396251284504E1,9.619920726378E0,6.614173228346E-3));
#888=CARTESIAN_POINT('',(1.396304485767E1,9.619398295559E0,6.614173228346E-3));
#889=CARTESIAN_POINT('',(1.396352305616E1,9.618830966598E0,6.614173228346E-3));
#890=CARTESIAN_POINT('',(1.396394872611E1,9.618227024976E0,6.614173228346E-3));
#891=CARTESIAN_POINT('',(1.396433670425E1,9.617594920677E0,6.614173228346E-3));
#892=CARTESIAN_POINT('',(1.396467148455E1,9.616918333181E0,6.614173228346E-3));
#893=CARTESIAN_POINT('',(1.396497283493E1,9.616187842205E0,6.614173228346E-3));
#894=CARTESIAN_POINT('',(1.396521183780E1,9.615378445890E0,6.614173228346E-3));
#895=CARTESIAN_POINT('',(1.396542986561E1,9.614493387260E0,6.614173228346E-3));
#896=CARTESIAN_POINT('',(1.396559966443E1,9.613526284157E0,6.614173228346E-3));
#897=CARTESIAN_POINT('',(1.396573618294E1,9.612478592693E0,6.614173228346E-3));
#898=CARTESIAN_POINT('',(1.396582507715E1,9.611353500283E0,6.614173228346E-3));
#899=CARTESIAN_POINT('',(1.396590110363E1,9.610052219698E0,6.614173228346E-3));
#900=CARTESIAN_POINT('',(1.396589774376E1,9.609126390742E0,6.614173228346E-3));
#901=CARTESIAN_POINT('',(1.396589993904E1,9.608601530536E0,6.614173228346E-3));
#903=CURVE_STYLE('',#746,POSITIVE_LENGTH_MEASURE(2.E-2),#14);
#904=PRESENTATION_STYLE_ASSIGNMENT((#903));
#905=STYLED_ITEM('',(#904),#902);
#906=DIRECTION('',(0.E0,0.E0,-1.E0));
#907=VECTOR('',#906,1.E0);
#908=SURFACE_OF_LINEAR_EXTRUSION('',#902,#907);
#909=ORIENTED_EDGE('',*,*,#675,.T.);
#910=ORIENTED_EDGE('',*,*,#863,.F.);
#911=ORIENTED_EDGE('',*,*,#616,.T.);
#913=ORIENTED_EDGE('',*,*,#912,.F.);
#914=EDGE_LOOP('',(#909,#910,#911,#913));
#915=FACE_OUTER_BOUND('',#914,.F.);
#917=FILL_AREA_STYLE_COLOUR('',#14);
#918=FILL_AREA_STYLE('',(#917));
#919=SURFACE_STYLE_FILL_AREA(#918);
#920=SURFACE_SIDE_STYLE('',(#919));
#921=SURFACE_STYLE_USAGE(.BOTH.,#920);
#922=PRESENTATION_STYLE_ASSIGNMENT((#921));
#923=STYLED_ITEM('',(#922),#916);
#924=CARTESIAN_POINT('',(1.396589901241E1,9.592940807622E0,6.614173228346E-3));
#925=DIRECTION('',(1.E0,0.E0,0.E0));
#926=DIRECTION('',(0.E0,0.E0,-1.E0));
#927=AXIS2_PLACEMENT_3D('',#924,#925,#926);
#928=PLANE('',#927);
#929=ORIENTED_EDGE('',*,*,#677,.F.);
#930=ORIENTED_EDGE('',*,*,#912,.T.);
#931=ORIENTED_EDGE('',*,*,#614,.T.);
#933=ORIENTED_EDGE('',*,*,#932,.T.);
#934=EDGE_LOOP('',(#929,#930,#931,#933));
#935=FACE_OUTER_BOUND('',#934,.F.);
#937=FILL_AREA_STYLE_COLOUR('',#14);
#938=FILL_AREA_STYLE('',(#937));
#939=SURFACE_STYLE_FILL_AREA(#938);
#940=SURFACE_SIDE_STYLE('',(#939));
#941=SURFACE_STYLE_USAGE(.BOTH.,#940);
#942=PRESENTATION_STYLE_ASSIGNMENT((#941));
#943=STYLED_ITEM('',(#942),#936);
#944=CARTESIAN_POINT('',(1.396030240427E1,9.592940807622E0,6.614173228346E-3));
#945=DIRECTION('',(0.E0,-1.E0,0.E0));
#946=DIRECTION('',(0.E0,0.E0,-1.E0));
#947=AXIS2_PLACEMENT_3D('',#944,#945,#946);
#948=PLANE('',#947);
#949=ORIENTED_EDGE('',*,*,#679,.F.);
#950=ORIENTED_EDGE('',*,*,#932,.F.);
#951=ORIENTED_EDGE('',*,*,#612,.T.);
#953=ORIENTED_EDGE('',*,*,#952,.T.);
#954=EDGE_LOOP('',(#949,#950,#951,#953));
#955=FACE_OUTER_BOUND('',#954,.F.);
#957=FILL_AREA_STYLE_COLOUR('',#14);
#958=FILL_AREA_STYLE('',(#957));
#959=SURFACE_STYLE_FILL_AREA(#958);
#960=SURFACE_SIDE_STYLE('',(#959));
#961=SURFACE_STYLE_USAGE(.BOTH.,#960);
#962=PRESENTATION_STYLE_ASSIGNMENT((#961));
#963=STYLED_ITEM('',(#962),#956);
#964=CARTESIAN_POINT('',(1.396030240427E1,9.592940807622E0,0.E0));
#965=DIRECTION('',(-1.E0,0.E0,0.E0));
#966=DIRECTION('',(0.E0,0.E0,1.E0));
#967=AXIS2_PLACEMENT_3D('',#964,#965,#966);
#968=PLANE('',#967);
#969=ORIENTED_EDGE('',*,*,#681,.F.);
#970=ORIENTED_EDGE('',*,*,#952,.F.);
#971=ORIENTED_EDGE('',*,*,#610,.T.);
#973=ORIENTED_EDGE('',*,*,#972,.T.);
#974=EDGE_LOOP('',(#969,#970,#971,#973));
#975=FACE_OUTER_BOUND('',#974,.F.);
#977=FILL_AREA_STYLE_COLOUR('',#14);
#978=FILL_AREA_STYLE('',(#977));
#979=SURFACE_STYLE_FILL_AREA(#978);
#980=SURFACE_SIDE_STYLE('',(#979));
#981=SURFACE_STYLE_USAGE(.BOTH.,#980);
#982=PRESENTATION_STYLE_ASSIGNMENT((#981));
#983=STYLED_ITEM('',(#982),#976);
#984=CARTESIAN_POINT('',(1.396030319132E1,9.608585491463E0,6.614173228346E-3));
#985=CARTESIAN_POINT('',(1.396030162217E1,9.609036119075E0,6.614173228346E-3));
#986=CARTESIAN_POINT('',(1.396030296100E1,9.609812914518E0,6.614173228346E-3));
#987=CARTESIAN_POINT('',(1.396026906458E1,9.610884019748E0,6.614173228346E-3));
#988=CARTESIAN_POINT('',(1.396021296557E1,9.611769308173E0,6.614173228346E-3));
#989=CARTESIAN_POINT('',(1.396014109663E1,9.612564440598E0,6.614173228346E-3));
#990=CARTESIAN_POINT('',(1.396006116950E1,9.613274583024E0,6.614173228346E-3));
#991=CARTESIAN_POINT('',(1.395994033035E1,9.613892134866E0,6.614173228346E-3));
#992=CARTESIAN_POINT('',(1.395980750967E1,9.614421261921E0,6.614173228346E-3));
#993=CARTESIAN_POINT('',(1.395961041524E1,9.615005672362E0,6.614173228346E-3));
#994=CARTESIAN_POINT('',(1.395927067224E1,9.615642320835E0,6.614173228346E-3));
#995=CARTESIAN_POINT('',(1.395875826402E1,9.616323561118E0,6.614173228346E-3));
#996=CARTESIAN_POINT('',(1.395812728209E1,9.616930975134E0,6.614173228346E-3));
#997=CARTESIAN_POINT('',(1.395737741655E1,9.617441099433E0,6.614173228346E-3));
#998=CARTESIAN_POINT('',(1.395653279400E1,9.617867098961E0,6.614173228346E-3));
#999=CARTESIAN_POINT('',(1.395559455288E1,9.618168205984E0,6.614173228346E-3));
#1000=CARTESIAN_POINT('',(1.395448001458E1,9.618358205065E0,6.614173228346E-3));
#1001=CARTESIAN_POINT('',(1.395367803748E1,9.618372100004E0,6.614173228346E-3));
#1002=CARTESIAN_POINT('',(1.395321903149E1,9.618390520924E0,6.614173228346E-3));
#1004=CURVE_STYLE('',#746,POSITIVE_LENGTH_MEASURE(2.E-2),#14);
#1005=PRESENTATION_STYLE_ASSIGNMENT((#1004));
#1006=STYLED_ITEM('',(#1005),#1003);
#1007=DIRECTION('',(0.E0,0.E0,-1.E0));
#1008=VECTOR('',#1007,1.E0);
#1009=SURFACE_OF_LINEAR_EXTRUSION('',#1003,#1008);
#1010=ORIENTED_EDGE('',*,*,#683,.T.);
#1011=ORIENTED_EDGE('',*,*,#972,.F.);
#1012=ORIENTED_EDGE('',*,*,#608,.T.);
#1014=ORIENTED_EDGE('',*,*,#1013,.T.);
#1015=EDGE_LOOP('',(#1010,#1011,#1012,#1014));
#1016=FACE_OUTER_BOUND('',#1015,.F.);
#1018=FILL_AREA_STYLE_COLOUR('',#14);
#1019=FILL_AREA_STYLE('',(#1018));
#1020=SURFACE_STYLE_FILL_AREA(#1019);
#1021=SURFACE_SIDE_STYLE('',(#1020));
#1022=SURFACE_STYLE_USAGE(.BOTH.,#1021);
#1023=PRESENTATION_STYLE_ASSIGNMENT((#1022));
#1024=STYLED_ITEM('',(#1023),#1017);
#1025=CARTESIAN_POINT('',(1.395379168813E1,9.618391619281E0,6.614173228346E-3));
#1026=CARTESIAN_POINT('',(1.395328427145E1,9.618369183621E0,6.614173228346E-3));
#1027=CARTESIAN_POINT('',(1.395236930267E1,9.618353522067E0,6.614173228346E-3));
#1028=CARTESIAN_POINT('',(1.395107783334E1,9.618053748803E0,6.614173228346E-3));
#1029=CARTESIAN_POINT('',(1.394991816836E1,9.617624694520E0,6.614173228346E-3));
#1030=CARTESIAN_POINT('',(1.394882321027E1,9.617011479827E0,6.614173228346E-3));
#1031=CARTESIAN_POINT('',(1.394780753419E1,9.616253370283E0,6.614173228346E-3));
#1032=CARTESIAN_POINT('',(1.394692741809E1,9.615332142047E0,6.614173228346E-3));
#1033=CARTESIAN_POINT('',(1.394617024942E1,9.614282067354E0,6.614173228346E-3));
#1034=CARTESIAN_POINT('',(1.394566497576E1,9.613284457606E0,6.614173228346E-3));
#1035=CARTESIAN_POINT('',(1.394532780983E1,9.612386279622E0,6.614173228346E-3));
#1036=CARTESIAN_POINT('',(1.394511731414E1,9.611589223606E0,6.614173228346E-3));
#1037=CARTESIAN_POINT('',(1.394493736550E1,9.610683597449E0,6.614173228346E-3));
#1038=CARTESIAN_POINT('',(1.394478849515E1,9.609664528772E0,6.614173228346E-3));
#1039=CARTESIAN_POINT('',(1.394467170827E1,9.608534630173E0,6.614173228346E-3));
#1040=CARTESIAN_POINT('',(1.394458341850E1,9.607291295811E0,6.614173228346E-3));
#1041=CARTESIAN_POINT('',(1.394453606173E1,9.605840798467E0,6.614173228346E-3));
#1042=CARTESIAN_POINT('',(1.394453227561E1,9.604804220496E0,6.614173228346E-3));
#1043=CARTESIAN_POINT('',(1.394452828288E1,9.604221090653E0,6.614173228346E-3));
#1045=CURVE_STYLE('',#746,POSITIVE_LENGTH_MEASURE(2.E-2),#14);
#1046=PRESENTATION_STYLE_ASSIGNMENT((#1045));
#1047=STYLED_ITEM('',(#1046),#1044);
#1048=DIRECTION('',(0.E0,0.E0,-1.E0));
#1049=VECTOR('',#1048,1.E0);
#1050=SURFACE_OF_LINEAR_EXTRUSION('',#1044,#1049);
#1051=ORIENTED_EDGE('',*,*,#685,.T.);
#1052=ORIENTED_EDGE('',*,*,#1013,.F.);
#1053=ORIENTED_EDGE('',*,*,#606,.T.);
#1055=ORIENTED_EDGE('',*,*,#1054,.F.);
#1056=EDGE_LOOP('',(#1051,#1052,#1053,#1055));
#1057=FACE_OUTER_BOUND('',#1056,.F.);
#1059=FILL_AREA_STYLE_COLOUR('',#14);
#1060=FILL_AREA_STYLE('',(#1059));
#1061=SURFACE_STYLE_FILL_AREA(#1060);
#1062=SURFACE_SIDE_STYLE('',(#1061));
#1063=SURFACE_STYLE_USAGE(.BOTH.,#1062);
#1064=PRESENTATION_STYLE_ASSIGNMENT((#1063));
#1065=STYLED_ITEM('',(#1064),#1058);
#1066=CARTESIAN_POINT('',(1.394453014507E1,9.592940807622E0,6.614173228346E-3));
#1067=DIRECTION('',(1.E0,0.E0,0.E0));
#1068=DIRECTION('',(0.E0,0.E0,-1.E0));
#1069=AXIS2_PLACEMENT_3D('',#1066,#1067,#1068);
#1070=PLANE('',#1069);
#1071=ORIENTED_EDGE('',*,*,#687,.F.);
#1072=ORIENTED_EDGE('',*,*,#1054,.T.);
#1073=ORIENTED_EDGE('',*,*,#604,.T.);
#1075=ORIENTED_EDGE('',*,*,#1074,.T.);
#1076=EDGE_LOOP('',(#1071,#1072,#1073,#1075));
#1077=FACE_OUTER_BOUND('',#1076,.F.);
#1079=FILL_AREA_STYLE_COLOUR('',#14);
#1080=FILL_AREA_STYLE('',(#1079));
#1081=SURFACE_STYLE_FILL_AREA(#1080);
#1082=SURFACE_SIDE_STYLE('',(#1081));
#1083=SURFACE_STYLE_USAGE(.BOTH.,#1082);
#1084=PRESENTATION_STYLE_ASSIGNMENT((#1083));
#1085=STYLED_ITEM('',(#1084),#1078);
#1086=CARTESIAN_POINT('',(1.393893353693E1,9.592940807622E0,6.614173228346E-3));
#1087=DIRECTION('',(0.E0,-1.E0,0.E0));
#1088=DIRECTION('',(0.E0,0.E0,-1.E0));
#1089=AXIS2_PLACEMENT_3D('',#1086,#1087,#1088);
#1090=PLANE('',#1089);
#1091=ORIENTED_EDGE('',*,*,#689,.F.);
#1092=ORIENTED_EDGE('',*,*,#1074,.F.);
#1093=ORIENTED_EDGE('',*,*,#602,.T.);
#1095=ORIENTED_EDGE('',*,*,#1094,.T.);
#1096=EDGE_LOOP('',(#1091,#1092,#1093,#1095));
#1097=FACE_OUTER_BOUND('',#1096,.F.);
#1099=FILL_AREA_STYLE_COLOUR('',#14);
#1100=FILL_AREA_STYLE('',(#1099));
#1101=SURFACE_STYLE_FILL_AREA(#1100);
#1102=SURFACE_SIDE_STYLE('',(#1101));
#1103=SURFACE_STYLE_USAGE(.BOTH.,#1102);
#1104=PRESENTATION_STYLE_ASSIGNMENT((#1103));
#1105=STYLED_ITEM('',(#1104),#1098);
#1106=CARTESIAN_POINT('',(1.393893353693E1,9.592940807622E0,0.E0));
#1107=DIRECTION('',(-1.E0,0.E0,0.E0));
#1108=DIRECTION('',(0.E0,0.E0,1.E0));
#1109=AXIS2_PLACEMENT_3D('',#1106,#1107,#1108);
#1110=PLANE('',#1109);
#1111=ORIENTED_EDGE('',*,*,#691,.F.);
#1112=ORIENTED_EDGE('',*,*,#1094,.F.);
#1113=ORIENTED_EDGE('',*,*,#600,.T.);
#1115=ORIENTED_EDGE('',*,*,#1114,.T.);
#1116=EDGE_LOOP('',(#1111,#1112,#1113,#1115));
#1117=FACE_OUTER_BOUND('',#1116,.F.);
#1119=FILL_AREA_STYLE_COLOUR('',#14);
#1120=FILL_AREA_STYLE('',(#1119));
#1121=SURFACE_STYLE_FILL_AREA(#1120);
#1122=SURFACE_SIDE_STYLE('',(#1121));
#1123=SURFACE_STYLE_USAGE(.BOTH.,#1122);
#1124=PRESENTATION_STYLE_ASSIGNMENT((#1123));
#1125=STYLED_ITEM('',(#1124),#1118);
#1126=CARTESIAN_POINT('',(1.393893419851E1,9.607623572255E0,6.614173228346E-3));
#1127=CARTESIAN_POINT('',(1.393893279577E1,9.608119249110E0,6.614173228346E-3));
#1128=CARTESIAN_POINT('',(1.393893385364E1,9.608980814151E0,6.614173228346E-3));
#1129=CARTESIAN_POINT('',(1.393890006312E1,9.610173761055E0,6.614173228346E-3));
#1130=CARTESIAN_POINT('',(1.393884433110E1,9.611167700551E0,6.614173228346E-3));
#1131=CARTESIAN_POINT('',(1.393877239928E1,9.612058201370E0,6.614173228346E-3));
#1132=CARTESIAN_POINT('',(1.393869304602E1,9.612847707732E0,6.614173228346E-3));
#1133=CARTESIAN_POINT('',(1.393857114576E1,9.613531319669E0,6.614173228346E-3));
#1134=CARTESIAN_POINT('',(1.393843995255E1,9.614113695591E0,6.614173228346E-3));
#1135=CARTESIAN_POINT('',(1.393824318307E1,9.614750366409E0,6.614173228346E-3));
#1136=CARTESIAN_POINT('',(1.393790410176E1,9.615439083780E0,6.614173228346E-3));
#1137=CARTESIAN_POINT('',(1.393739601935E1,9.616180187858E0,6.614173228346E-3));
#1138=CARTESIAN_POINT('',(1.393675102899E1,9.616825189276E0,6.614173228346E-3));
#1139=CARTESIAN_POINT('',(1.393599900553E1,9.617379289890E0,6.614173228346E-3));
#1140=CARTESIAN_POINT('',(1.393514273121E1,9.617824040268E0,6.614173228346E-3));
#1141=CARTESIAN_POINT('',(1.393420478050E1,9.618153907087E0,6.614173228346E-3));
#1142=CARTESIAN_POINT('',(1.393308882687E1,9.618363448058E0,6.614173228346E-3));
#1143=CARTESIAN_POINT('',(1.393228540342E1,9.618372435195E0,6.614173228346E-3));
#1144=CARTESIAN_POINT('',(1.393182628738E1,9.618389601284E0,6.614173228346E-3));
#1146=CURVE_STYLE('',#746,POSITIVE_LENGTH_MEASURE(2.E-2),#14);
#1147=PRESENTATION_STYLE_ASSIGNMENT((#1146));
#1148=STYLED_ITEM('',(#1147),#1145);
#1149=DIRECTION('',(0.E0,0.E0,-1.E0));
#1150=VECTOR('',#1149,1.E0);
#1151=SURFACE_OF_LINEAR_EXTRUSION('',#1145,#1150);
#1152=ORIENTED_EDGE('',*,*,#693,.T.);
#1153=ORIENTED_EDGE('',*,*,#1114,.F.);
#1154=ORIENTED_EDGE('',*,*,#598,.T.);
#1156=ORIENTED_EDGE('',*,*,#1155,.T.);
#1157=EDGE_LOOP('',(#1152,#1153,#1154,#1156));
#1158=FACE_OUTER_BOUND('',#1157,.F.);
#1160=FILL_AREA_STYLE_COLOUR('',#14);
#1161=FILL_AREA_STYLE('',(#1160));
#1162=SURFACE_STYLE_FILL_AREA(#1161);
#1163=SURFACE_SIDE_STYLE('',(#1162));
#1164=SURFACE_STYLE_USAGE(.BOTH.,#1163);
#1165=PRESENTATION_STYLE_ASSIGNMENT((#1164));
#1166=STYLED_ITEM('',(#1165),#1159);
#1167=CARTESIAN_POINT('',(1.393239887663E1,9.618393258400E0,6.614173228346E-3));
#1168=CARTESIAN_POINT('',(1.393191286501E1,9.618368897531E0,6.614173228346E-3));
#1169=CARTESIAN_POINT('',(1.393103056859E1,9.618348712195E0,6.614173228346E-3));
#1170=CARTESIAN_POINT('',(1.392977777476E1,9.618061778409E0,6.614173228346E-3));
#1171=CARTESIAN_POINT('',(1.392864293140E1,9.617636060976E0,6.614173228346E-3));
#1172=CARTESIAN_POINT('',(1.392755521583E1,9.617040651780E0,6.614173228346E-3));
#1173=CARTESIAN_POINT('',(1.392653803332E1,9.616301847638E0,6.614173228346E-3));
#1174=CARTESIAN_POINT('',(1.392564088715E1,9.615402146362E0,6.614173228346E-3));
#1175=CARTESIAN_POINT('',(1.392487800118E1,9.614361523937E0,6.614173228346E-3));
#1176=CARTESIAN_POINT('',(1.392434596587E1,9.613382479937E0,6.614173228346E-3));
#1177=CARTESIAN_POINT('',(1.392400453011E1,9.612503552693E0,6.614173228346E-3));
#1178=CARTESIAN_POINT('',(1.392377074894E1,9.611750292047E0,6.614173228346E-3));
#1179=CARTESIAN_POINT('',(1.392358798304E1,9.610908655512E0,6.614173228346E-3));
#1180=CARTESIAN_POINT('',(1.392342515282E1,9.609981075024E0,6.614173228346E-3));
#1181=CARTESIAN_POINT('',(1.392331176312E1,9.608963917795E0,6.614173228346E-3));
#1182=CARTESIAN_POINT('',(1.392322539817E1,9.607858328976E0,6.614173228346E-3));
#1183=CARTESIAN_POINT('',(1.392316275038E1,9.606569872862E0,6.614173228346E-3));
#1184=CARTESIAN_POINT('',(1.392316291225E1,9.605649593477E0,6.614173228346E-3));
#1185=CARTESIAN_POINT('',(1.392315976979E1,9.605127384127E0,6.614173228346E-3));
#1187=CURVE_STYLE('',#746,POSITIVE_LENGTH_MEASURE(2.E-2),#14);
#1188=PRESENTATION_STYLE_ASSIGNMENT((#1187));
#1189=STYLED_ITEM('',(#1188),#1186);
#1190=DIRECTION('',(0.E0,0.E0,-1.E0));
#1191=VECTOR('',#1190,1.E0);
#1192=SURFACE_OF_LINEAR_EXTRUSION('',#1186,#1191);
#1193=ORIENTED_EDGE('',*,*,#695,.T.);
#1194=ORIENTED_EDGE('',*,*,#1155,.F.);
#1195=ORIENTED_EDGE('',*,*,#596,.T.);
#1197=ORIENTED_EDGE('',*,*,#1196,.F.);
#1198=EDGE_LOOP('',(#1193,#1194,#1195,#1197));
#1199=FACE_OUTER_BOUND('',#1198,.F.);
#1201=FILL_AREA_STYLE_COLOUR('',#14);
#1202=FILL_AREA_STYLE('',(#1201));
#1203=SURFACE_STYLE_FILL_AREA(#1202);
#1204=SURFACE_SIDE_STYLE('',(#1203));
#1205=SURFACE_STYLE_USAGE(.BOTH.,#1204);
#1206=PRESENTATION_STYLE_ASSIGNMENT((#1205));
#1207=STYLED_ITEM('',(#1206),#1200);
#1208=CARTESIAN_POINT('',(1.392316127769E1,9.592940807622E0,6.614173228346E-3));
#1209=DIRECTION('',(1.E0,0.E0,0.E0));
#1210=DIRECTION('',(0.E0,0.E0,-1.E0));
#1211=AXIS2_PLACEMENT_3D('',#1208,#1209,#1210);
#1212=PLANE('',#1211);
#1213=ORIENTED_EDGE('',*,*,#697,.F.);
#1214=ORIENTED_EDGE('',*,*,#1196,.T.);
#1215=ORIENTED_EDGE('',*,*,#594,.T.);
#1217=ORIENTED_EDGE('',*,*,#1216,.T.);
#1218=EDGE_LOOP('',(#1213,#1214,#1215,#1217));
#1219=FACE_OUTER_BOUND('',#1218,.F.);
#1221=FILL_AREA_STYLE_COLOUR('',#14);
#1222=FILL_AREA_STYLE('',(#1221));
#1223=SURFACE_STYLE_FILL_AREA(#1222);
#1224=SURFACE_SIDE_STYLE('',(#1223));
#1225=SURFACE_STYLE_USAGE(.BOTH.,#1224);
#1226=PRESENTATION_STYLE_ASSIGNMENT((#1225));
#1227=STYLED_ITEM('',(#1226),#1220);
#1228=CARTESIAN_POINT('',(1.391756466959E1,9.592940807622E0,6.614173228346E-3));
#1229=DIRECTION('',(0.E0,-1.E0,0.E0));
#1230=DIRECTION('',(0.E0,0.E0,-1.E0));
#1231=AXIS2_PLACEMENT_3D('',#1228,#1229,#1230);
#1232=PLANE('',#1231);
#1233=ORIENTED_EDGE('',*,*,#699,.F.);
#1234=ORIENTED_EDGE('',*,*,#1216,.F.);
#1235=ORIENTED_EDGE('',*,*,#592,.T.);
#1237=ORIENTED_EDGE('',*,*,#1236,.T.);
#1238=EDGE_LOOP('',(#1233,#1234,#1235,#1237));
#1239=FACE_OUTER_BOUND('',#1238,.F.);
#1241=FILL_AREA_STYLE_COLOUR('',#14);
#1242=FILL_AREA_STYLE('',(#1241));
#1243=SURFACE_STYLE_FILL_AREA(#1242);
#1244=SURFACE_SIDE_STYLE('',(#1243));
#1245=SURFACE_STYLE_USAGE(.BOTH.,#1244);
#1246=PRESENTATION_STYLE_ASSIGNMENT((#1245));
#1247=STYLED_ITEM('',(#1246),#1240);
#1248=CARTESIAN_POINT('',(1.391756466959E1,9.592940807622E0,0.E0));
#1249=DIRECTION('',(-1.E0,0.E0,0.E0));
#1250=DIRECTION('',(0.E0,0.E0,1.E0));
#1251=AXIS2_PLACEMENT_3D('',#1248,#1249,#1250);
#1252=PLANE('',#1251);
#1253=ORIENTED_EDGE('',*,*,#701,.F.);
#1254=ORIENTED_EDGE('',*,*,#1236,.F.);
#1255=ORIENTED_EDGE('',*,*,#590,.T.);
#1256=ORIENTED_EDGE('',*,*,#645,.F.);
#1257=EDGE_LOOP('',(#1253,#1254,#1255,#1256));
#1258=FACE_OUTER_BOUND('',#1257,.F.);
#1260=FILL_AREA_STYLE_COLOUR('',#14);
#1261=FILL_AREA_STYLE('',(#1260));
#1262=SURFACE_STYLE_FILL_AREA(#1261);
#1263=SURFACE_SIDE_STYLE('',(#1262));
#1264=SURFACE_STYLE_USAGE(.BOTH.,#1263);
#1265=PRESENTATION_STYLE_ASSIGNMENT((#1264));
#1266=STYLED_ITEM('',(#1265),#1259);
#1269=PRESENTATION_LAYER_ASSIGNMENT('SHELL_349','',(#630,#652,#706,#726,#745,
#760,#775,#789,#812,#826,#853,#867,#902,#916,#936,#956,#976,#1003,#1017,#1044,
#1058,#1078,#1098,#1118,#1145,#1159,#1186,#1200,#1220,#1240,#1259,#1268));
#1271=LENGTH_MEASURE_WITH_UNIT(LENGTH_MEASURE(2.54E1),#1270);
#1272=(CONVERSION_BASED_UNIT('INCH',#1271)LENGTH_UNIT()NAMED_UNIT(*));
#1274=PLANE_ANGLE_MEASURE_WITH_UNIT(PLANE_ANGLE_MEASURE(1.745329251994E-2),
#1273);
#1275=(CONVERSION_BASED_UNIT('DEGREE',#1274)NAMED_UNIT(*)PLANE_ANGLE_UNIT());
#1277=UNCERTAINTY_MEASURE_WITH_UNIT(LENGTH_MEASURE(4.773654751339E-5),#1272,
'closure',
'Maximum model space distance between geometric entities at asserted connectivities');
#1279=CARTESIAN_POINT('',(0.E0,0.E0,0.E0));
#1280=DIRECTION('',(0.E0,0.E0,1.E0));
#1281=DIRECTION('',(1.E0,0.E0,0.E0));
#1284=MECHANICAL_DESIGN_GEOMETRIC_PRESENTATION_REPRESENTATION('',(#637,#659,
#713,#733,#749,#767,#778,#796,#815,#833,#856,#874,#905,#923,#943,#963,#983,
#1006,#1024,#1047,#1065,#1085,#1105,#1125,#1148,#1166,#1189,#1207,#1227,#1247,
#1266),#1278);
#1285=APPLICATION_CONTEXT('automotive design');
#1286=APPLICATION_PROTOCOL_DEFINITION('international standard',
'config_control_design',1994,#1285);
#1287=PRODUCT_DEFINITION_CONTEXT('',#1285,'design');
#1288=PRODUCT_CONTEXT('',#1285,'mechanical');
#1289=PRODUCT('NO_10LOGO-268','NO_10LOGO-268','NOT SPECIFIED',(#1288));
#1290=PRODUCT_DEFINITION_FORMATION_WITH_SPECIFIED_SOURCE('1','LAST_VERSION',
#1289,.MADE.);
#1298=LENGTH_MEASURE_WITH_UNIT(LENGTH_MEASURE(2.54E1),#1297);
#1299=(CONVERSION_BASED_UNIT('INCH',#1298)LENGTH_UNIT()NAMED_UNIT(*));
#1300=DERIVED_UNIT_ELEMENT(#1299,2.E0);
#1301=AREA_UNIT((#1300));
#1302=MEASURE_REPRESENTATION_ITEM('surface area measure',AREA_MEASURE(
1.886843960974E-6),#1301);
#1307=LENGTH_MEASURE_WITH_UNIT(LENGTH_MEASURE(2.54E1),#1306);
#1308=(CONVERSION_BASED_UNIT('INCH',#1307)LENGTH_UNIT()NAMED_UNIT(*));
#1309=DERIVED_UNIT_ELEMENT(#1308,2.E0);
#1310=AREA_UNIT((#1309));
#1311=MEASURE_REPRESENTATION_ITEM('surface area measure',AREA_MEASURE(
1.886843960974E-6),#1310);
#1=DRAUGHTING_PRE_DEFINED_COLOUR('green');
#2=COLOUR_RGB('',1.1E-2,1.2E-2,1.E0);
#3=COLOUR_RGB('',2.352941176471E-1,2.352941176471E-1,2.352941176471E-1);
#4=COLOUR_RGB('',4.1E-1,2.61589E-1,1.12848E-1);
#5=COLOUR_RGB('',5.04854E-1,1.5455E-2,1.5455E-2);
#6=COLOUR_RGB('',6.35294E-1,6.86275E-1,7.4902E-1);
#7=COLOUR_RGB('',6.40777E-1,6.40777E-1,6.40777E-1);
#8=COLOUR_RGB('',6.69062E-1,6.69903E-1,6.55217E-1);
#9=COLOUR_RGB('',9.21569E-1,7.05882E-1,4.70588E-1);
#10=DRAUGHTING_PRE_DEFINED_COLOUR('red');
#11=DRAUGHTING_PRE_DEFINED_COLOUR('yellow');
#12=COLOUR_RGB('',1.E0,1.E0,5.3E-1);
#13=COLOUR_RGB('',1.E0,1.E0,9.49E-1);
#14=DRAUGHTING_PRE_DEFINED_COLOUR('white');
#50=B_SPLINE_CURVE_WITH_KNOTS('',3,(#31,#32,#33,#34,#35,#36,#37,#38,#39,#40,#41,
#42,#43,#44,#45,#46,#47,#48,#49),.UNSPECIFIED.,.F.,.F.,(4,1,1,1,1,1,1,1,1,1,1,1,
1,1,1,1,4),(0.E0,6.573888800005E-2,1.31958546E-1,1.99133865E-1,2.69177433E-1,
3.39998918E-1,4.10004144E-1,4.820727E-1,5.56495343E-1,5.96742761E-1,
6.40612279E-1,6.89080179E-1,7.41574392E-1,7.9904744E-1,8.61229192E-1,
9.28195466E-1,1.E0),.UNSPECIFIED.);
#70=B_SPLINE_CURVE_WITH_KNOTS('',3,(#51,#52,#53,#54,#55,#56,#57,#58,#59,#60,#61,
#62,#63,#64,#65,#66,#67,#68,#69),.UNSPECIFIED.,.F.,.F.,(4,1,1,1,1,1,1,1,1,1,1,1,
1,1,1,1,4),(0.E0,8.304606199994E-2,1.589726729999E-1,2.278256139999E-1,
2.89619892E-1,3.44401173E-1,3.92411929E-1,4.33633396E-1,4.68246057E-1,
5.3047929E-1,5.92114288E-1,6.53947711E-1,7.18845541E-1,7.8526354E-1,
8.53445503E-1,9.24526877E-1,1.E0),.UNSPECIFIED.);
#102=B_SPLINE_CURVE_WITH_KNOTS('',3,(#83,#84,#85,#86,#87,#88,#89,#90,#91,#92,
#93,#94,#95,#96,#97,#98,#99,#100,#101),.UNSPECIFIED.,.F.,.F.,(4,1,1,1,1,1,1,1,1,
1,1,1,1,1,1,1,4),(0.E0,6.581019499997E-2,1.30443345E-1,1.9557686E-1,
2.62874722E-1,3.30299066E-1,3.97391389E-1,4.65677471E-1,5.36516264E-1,
5.75378396E-1,6.188379E-1,6.6809164E-1,7.22895753E-1,7.83369732E-1,
8.49602388E-1,9.22068317E-1,1.E0),.UNSPECIFIED.);
#122=B_SPLINE_CURVE_WITH_KNOTS('',3,(#103,#104,#105,#106,#107,#108,#109,#110,
#111,#112,#113,#114,#115,#116,#117,#118,#119,#120,#121),.UNSPECIFIED.,.F.,.F.,
(4,1,1,1,1,1,1,1,1,1,1,1,1,1,1,1,4),(0.E0,7.851656000001E-2,1.50623822E-1,
2.15791046E-1,2.74620685E-1,3.27165081E-1,3.73704894E-1,4.1363838E-1,
4.47733157E-1,5.09844306E-1,5.72187172E-1,6.35589364E-1,7.02552007E-1,
7.71991292E-1,8.44069983E-1,9.19591099E-1,1.E0),.UNSPECIFIED.);
#162=B_SPLINE_CURVE_WITH_KNOTS('',3,(#135,#136,#137,#138,#139,#140,#141,#142,
#143,#144,#145,#146,#147,#148,#149,#150,#151,#152,#153,#154,#155,#156,#157,#158,
#159,#160,#161),.UNSPECIFIED.,.F.,.F.,(4,1,1,1,1,1,1,1,1,1,1,1,1,1,1,1,1,1,1,1,
1,1,1,1,4),(0.E0,4.267119100003E-2,8.397960300003E-2,1.24431119E-1,
1.64253816E-1,2.03542966E-1,2.42235029E-1,2.80752375E-1,3.19113119E-1,
3.57145379E-1,3.94164913E-1,4.30316169E-1,4.65864559E-1,5.01267798E-1,
5.3677536E-1,5.71981389E-1,6.07749441E-1,6.45162624E-1,6.85400218E-1,
7.28907931E-1,7.76121809E-1,8.26432318E-1,8.80706662E-1,9.38296598E-1,1.E0),
.UNSPECIFIED.);
#182=B_SPLINE_CURVE_WITH_KNOTS('',3,(#163,#164,#165,#166,#167,#168,#169,#170,
#171,#172,#173,#174,#175,#176,#177,#178,#179,#180,#181),.UNSPECIFIED.,.F.,.F.,
(4,1,1,1,1,1,1,1,1,1,1,1,1,1,1,1,4),(0.E0,6.187300000003E-2,1.22400978E-1,
1.82817559E-1,2.43250455E-1,3.03263199E-1,3.64578689E-1,4.2717769E-1,
4.9158778E-1,5.56232126E-1,6.19851688E-1,6.83191717E-1,7.46115339E-1,
8.09104206E-1,8.71868345E-1,9.35755933E-1,1.E0),.UNSPECIFIED.);
#198=B_SPLINE_CURVE_WITH_KNOTS('',3,(#183,#184,#185,#186,#187,#188,#189,#190,
#191,#192,#193,#194,#195,#196,#197),.UNSPECIFIED.,.F.,.F.,(4,1,1,1,1,1,1,1,1,1,
1,1,4),(0.E0,9.366337800003E-2,1.85792007E-1,2.77148391E-1,3.6873675E-1,
4.58333209E-1,5.42147207E-1,6.21871373E-1,6.98561686E-1,7.73024445E-1,
8.46560604E-1,9.22003687E-1,1.E0),.UNSPECIFIED.);
#206=B_SPLINE_CURVE_WITH_KNOTS('',3,(#199,#200,#201,#202,#203,#204,#205),
.UNSPECIFIED.,.F.,.F.,(4,1,1,1,4),(0.E0,2.52435153E-1,5.01556359E-1,
7.48785167E-1,1.E0),.UNSPECIFIED.);
#218=B_SPLINE_CURVE_WITH_KNOTS('',3,(#207,#208,#209,#210,#211,#212,#213,#214,
#215,#216,#217),.UNSPECIFIED.,.F.,.F.,(4,1,1,1,1,1,1,1,4),(0.E0,1.30443318E-1,
2.57032967E-1,3.80829609E-1,5.01699663E-1,6.24363242E-1,7.46793101E-1,
8.72265399E-1,1.E0),.UNSPECIFIED.);
#238=B_SPLINE_CURVE_WITH_KNOTS('',3,(#227,#228,#229,#230,#231,#232,#233,#234,
#235,#236,#237),.UNSPECIFIED.,.F.,.F.,(4,1,1,1,1,1,1,1,4),(0.E0,1.27734601E-1,
2.53206899E-1,3.75636758E-1,4.98300337E-1,6.19170391E-1,7.42967033E-1,
8.69556682E-1,1.E0),.UNSPECIFIED.);
#246=B_SPLINE_CURVE_WITH_KNOTS('',3,(#239,#240,#241,#242,#243,#244,#245),
.UNSPECIFIED.,.F.,.F.,(4,1,1,1,4),(0.E0,2.51214833E-1,4.98443641E-1,
7.47564847E-1,1.E0),.UNSPECIFIED.);
#262=B_SPLINE_CURVE_WITH_KNOTS('',3,(#247,#248,#249,#250,#251,#252,#253,#254,
#255,#256,#257,#258,#259,#260,#261),.UNSPECIFIED.,.F.,.F.,(4,1,1,1,1,1,1,1,1,1,
1,1,4),(0.E0,7.7996313E-2,1.53439396E-1,2.26975555E-1,3.01438314E-1,
3.78128627E-1,4.57852793E-1,5.41666791E-1,6.3126325E-1,7.22851609E-1,
8.14207993E-1,9.06336622E-1,1.E0),.UNSPECIFIED.);
#282=B_SPLINE_CURVE_WITH_KNOTS('',3,(#263,#264,#265,#266,#267,#268,#269,#270,
#271,#272,#273,#274,#275,#276,#277,#278,#279,#280,#281),.UNSPECIFIED.,.F.,.F.,
(4,1,1,1,1,1,1,1,1,1,1,1,1,1,1,1,4),(0.E0,6.4244067E-2,1.28131655E-1,
1.90895794E-1,2.53884661E-1,3.16808283E-1,3.80148312E-1,4.43767874E-1,
5.0841222E-1,5.7282231E-1,6.35421311E-1,6.96736801E-1,7.56749545E-1,
8.17182441E-1,8.77599022E-1,9.38127E-1,1.E0),.UNSPECIFIED.);
#310=B_SPLINE_CURVE_WITH_KNOTS('',3,(#283,#284,#285,#286,#287,#288,#289,#290,
#291,#292,#293,#294,#295,#296,#297,#298,#299,#300,#301,#302,#303,#304,#305,#306,
#307,#308,#309),.UNSPECIFIED.,.F.,.F.,(4,1,1,1,1,1,1,1,1,1,1,1,1,1,1,1,1,1,1,1,
1,1,1,1,4),(0.E0,6.1703402E-2,1.19293338E-1,1.73567682E-1,2.23878191E-1,
2.71092069E-1,3.14599782E-1,3.54837376E-1,3.92250559E-1,4.28018611E-1,
4.6322464E-1,4.98732202E-1,5.34135441E-1,5.69683831E-1,6.05835087E-1,
6.42854621E-1,6.80886881E-1,7.19247625E-1,7.57764971E-1,7.96457034E-1,
8.35746184E-1,8.75568881E-1,9.16020397E-1,9.57328809E-1,1.E0),.UNSPECIFIED.);
#330=B_SPLINE_CURVE_WITH_KNOTS('',3,(#311,#312,#313,#314,#315,#316,#317,#318,
#319,#320,#321,#322,#323,#324,#325,#326,#327,#328,#329),.UNSPECIFIED.,.F.,.F.,
(4,1,1,1,1,1,1,1,1,1,1,1,1,1,1,1,4),(0.E0,8.0408901E-2,1.55930017E-1,
2.28008708E-1,2.97447993E-1,3.64410636E-1,4.27812828E-1,4.90155694E-1,
5.52266843E-1,5.8636162E-1,6.26295106E-1,6.72834919E-1,7.25379315E-1,
7.84208954E-1,8.49376178E-1,9.2148344E-1,1.E0),.UNSPECIFIED.);
#350=B_SPLINE_CURVE_WITH_KNOTS('',3,(#331,#332,#333,#334,#335,#336,#337,#338,
#339,#340,#341,#342,#343,#344,#345,#346,#347,#348,#349),.UNSPECIFIED.,.F.,.F.,
(4,1,1,1,1,1,1,1,1,1,1,1,1,1,1,1,4),(0.E0,7.7931683E-2,1.50397612E-1,
2.16630268E-1,2.77104247E-1,3.3190836E-1,3.811621E-1,4.24621604E-1,
4.63483736E-1,5.34322529E-1,6.02608611E-1,6.69700934E-1,7.37125278E-1,
8.0442314E-1,8.69556655E-1,9.34189805E-1,1.E0),.UNSPECIFIED.);
#370=B_SPLINE_CURVE_WITH_KNOTS('',3,(#351,#352,#353,#354,#355,#356,#357,#358,
#359,#360,#361,#362,#363,#364,#365,#366,#367,#368,#369),.UNSPECIFIED.,.F.,.F.,
(4,1,1,1,1,1,1,1,1,1,1,1,1,1,1,1,4),(0.E0,7.547312300001E-2,1.46554497E-1,
2.1473646E-1,2.81154459E-1,3.46052289E-1,4.07885712E-1,4.6952071E-1,
5.31753943E-1,5.66366604E-1,6.07588071E-1,6.55598827E-1,7.10380108E-1,
7.721743860001E-1,8.410273270001E-1,9.169539380001E-1,1.E0),.UNSPECIFIED.);
#390=B_SPLINE_CURVE_WITH_KNOTS('',3,(#371,#372,#373,#374,#375,#376,#377,#378,
#379,#380,#381,#382,#383,#384,#385,#386,#387,#388,#389),.UNSPECIFIED.,.F.,.F.,
(4,1,1,1,1,1,1,1,1,1,1,1,1,1,1,1,4),(0.E0,7.1804534E-2,1.38770808E-1,
2.0095256E-1,2.58425608E-1,3.10919821E-1,3.59387721E-1,4.03257239E-1,
4.43504657E-1,5.179273E-1,5.89995856E-1,6.60001082E-1,7.30822567E-1,
8.00866135E-1,8.68041454E-1,9.342611119999E-1,1.E0),.UNSPECIFIED.);
#588=EDGE_CURVE('',#538,#520,#18,.T.);
#590=EDGE_CURVE('',#536,#538,#22,.T.);
#592=EDGE_CURVE('',#530,#536,#26,.T.);
#594=EDGE_CURVE('',#516,#530,#30,.T.);
#596=EDGE_CURVE('',#515,#516,#50,.T.);
#598=EDGE_CURVE('',#521,#515,#70,.T.);
#600=EDGE_CURVE('',#523,#521,#74,.T.);
#602=EDGE_CURVE('',#566,#523,#78,.T.);
#604=EDGE_CURVE('',#565,#566,#82,.T.);
#606=EDGE_CURVE('',#561,#565,#102,.T.);
#608=EDGE_CURVE('',#557,#561,#122,.T.);
#610=EDGE_CURVE('',#553,#557,#126,.T.);
#612=EDGE_CURVE('',#548,#553,#130,.T.);
#614=EDGE_CURVE('',#547,#548,#134,.T.);
#616=EDGE_CURVE('',#575,#547,#162,.T.);
#618=EDGE_CURVE('',#574,#575,#182,.T.);
#620=EDGE_CURVE('',#573,#574,#198,.T.);
#622=EDGE_CURVE('',#543,#573,#206,.T.);
#624=EDGE_CURVE('',#540,#543,#218,.T.);
#626=EDGE_CURVE('',#520,#540,#222,.T.);
#630=ADVANCED_FACE('',(#629),#587,.F.);
#643=EDGE_CURVE('',#513,#514,#226,.T.);
#645=EDGE_CURVE('',#513,#538,#510,.T.);
#648=EDGE_CURVE('',#520,#514,#398,.T.);
#652=ADVANCED_FACE('',(#651),#642,.T.);
#665=EDGE_CURVE('',#514,#518,#394,.T.);
#667=EDGE_CURVE('',#544,#518,#238,.T.);
#669=EDGE_CURVE('',#571,#544,#246,.T.);
#671=EDGE_CURVE('',#582,#571,#262,.T.);
#673=EDGE_CURVE('',#580,#582,#282,.T.);
#675=EDGE_CURVE('',#579,#580,#310,.T.);
#677=EDGE_CURVE('',#579,#550,#426,.T.);
#679=EDGE_CURVE('',#550,#554,#430,.T.);
#681=EDGE_CURVE('',#554,#558,#438,.T.);
#683=EDGE_CURVE('',#562,#558,#330,.T.);
#685=EDGE_CURVE('',#577,#562,#350,.T.);
#687=EDGE_CURVE('',#577,#568,#458,.T.);
#689=EDGE_CURVE('',#568,#570,#462,.T.);
#691=EDGE_CURVE('',#570,#532,#470,.T.);
#693=EDGE_CURVE('',#525,#532,#370,.T.);
#695=EDGE_CURVE('',#527,#525,#390,.T.);
#697=EDGE_CURVE('',#527,#531,#490,.T.);
#699=EDGE_CURVE('',#531,#534,#494,.T.);
#701=EDGE_CURVE('',#534,#513,#502,.T.);
#706=ADVANCED_FACE('',(#705),#664,.T.);
#722=EDGE_CURVE('',#540,#518,#402,.T.);
#726=ADVANCED_FACE('',(#725),#718,.T.);
#745=B_SPLINE_CURVE_WITH_KNOTS('',3,(#734,#735,#736,#737,#738,#739,#740,#741,
#742,#743,#744),.UNSPECIFIED.,.F.,.F.,(4,1,1,1,1,1,1,1,4),(0.E0,
1.674449447507E-1,2.813636682848E-1,3.927689494104E-1,5.015405778488E-1,
6.119262093297E-1,7.221015148931E-1,8.350147280978E-1,1.E0),.UNSPECIFIED.);
#756=EDGE_CURVE('',#543,#544,#406,.T.);
#760=ADVANCED_FACE('',(#759),#752,.T.);
#775=B_SPLINE_CURVE_WITH_KNOTS('',3,(#768,#769,#770,#771,#772,#773,#774),
.UNSPECIFIED.,.F.,.F.,(4,1,1,1,4),(0.E0,2.714543381457E-1,5.014375734963E-1,
7.296737885045E-1,1.E0),.UNSPECIFIED.);
#785=EDGE_CURVE('',#573,#571,#410,.T.);
#789=ADVANCED_FACE('',(#788),#781,.T.);
#812=B_SPLINE_CURVE_WITH_KNOTS('',3,(#797,#798,#799,#800,#801,#802,#803,#804,
#805,#806,#807,#808,#809,#810,#811),.UNSPECIFIED.,.F.,.F.,(4,1,1,1,1,1,1,1,1,1,
1,1,4),(0.E0,1.102828372048E-1,1.986459570231E-1,2.862683952725E-1,
3.741133271696E-1,4.600477726058E-1,5.404360995364E-1,6.169017553172E-1,
6.904575586552E-1,7.618768532538E-1,8.324074201278E-1,9.047669706274E-1,1.E0),
.UNSPECIFIED.);
#822=EDGE_CURVE('',#574,#582,#414,.T.);
#826=ADVANCED_FACE('',(#825),#818,.T.);
#853=B_SPLINE_CURVE_WITH_KNOTS('',3,(#834,#835,#836,#837,#838,#839,#840,#841,
#842,#843,#844,#845,#846,#847,#848,#849,#850,#851,#852),.UNSPECIFIED.,.F.,.F.,
(4,1,1,1,1,1,1,1,1,1,1,1,1,1,1,1,4),(0.E0,7.924678872856E-2,1.373740026584E-1,
1.953942380065E-1,2.534301412411E-1,3.110625572621E-1,3.699460475456E-1,
4.300621400231E-1,4.919174869946E-1,5.539977985044E-1,6.150939727480E-1,
6.759217013070E-1,7.363495391118E-1,7.968400340580E-1,8.571147145500E-1,
9.184682838884E-1,1.E0),.UNSPECIFIED.);
#863=EDGE_CURVE('',#575,#580,#418,.T.);
#867=ADVANCED_FACE('',(#866),#859,.T.);
#902=B_SPLINE_CURVE_WITH_KNOTS('',3,(#875,#876,#877,#878,#879,#880,#881,#882,
#883,#884,#885,#886,#887,#888,#889,#890,#891,#892,#893,#894,#895,#896,#897,#898,
#899,#900,#901),.UNSPECIFIED.,.F.,.F.,(4,1,1,1,1,1,1,1,1,1,1,1,1,1,1,1,1,1,1,1,
1,1,1,1,4),(0.E0,5.488178832603E-2,9.508712196700E-2,1.344584417133E-1,
1.732177341152E-1,2.114577270789E-1,2.491165773434E-1,2.866053761598E-1,
3.239417547947E-1,3.609584210955E-1,3.969894047049E-1,4.321752963587E-1,
4.667744206327E-1,5.012322699435E-1,5.357916564672E-1,5.700575619713E-1,
6.048704825055E-1,6.412846033166E-1,6.804477135248E-1,7.227936191752E-1,
7.687467223222E-1,8.177137656448E-1,8.705387957783E-1,9.265908800666E-1,1.E0),
.UNSPECIFIED.);
#912=EDGE_CURVE('',#579,#547,#422,.T.);
#916=ADVANCED_FACE('',(#915),#908,.T.);
#932=EDGE_CURVE('',#548,#550,#434,.T.);
#936=ADVANCED_FACE('',(#935),#928,.T.);
#952=EDGE_CURVE('',#553,#554,#442,.T.);
#956=ADVANCED_FACE('',(#955),#948,.T.);
#972=EDGE_CURVE('',#557,#558,#446,.T.);
#976=ADVANCED_FACE('',(#975),#968,.T.);
#1003=B_SPLINE_CURVE_WITH_KNOTS('',3,(#984,#985,#986,#987,#988,#989,#990,#991,
#992,#993,#994,#995,#996,#997,#998,#999,#1000,#1001,#1002),.UNSPECIFIED.,.F.,
.F.,(4,1,1,1,1,1,1,1,1,1,1,1,1,1,1,1,4),(0.E0,9.560055691020E-2,
1.647864167347E-1,2.273134119328E-1,2.837595873178E-1,3.341751642706E-1,
3.788294319431E-1,4.171450257969E-1,4.498584640394E-1,5.094532001182E-1,
5.692702652584E-1,6.301037381516E-1,6.943534115351E-1,7.609793865766E-1,
8.301378329459E-1,9.025992355903E-1,1.E0),.UNSPECIFIED.);
#1013=EDGE_CURVE('',#561,#562,#450,.T.);
#1017=ADVANCED_FACE('',(#1016),#1009,.T.);
#1044=B_SPLINE_CURVE_WITH_KNOTS('',3,(#1025,#1026,#1027,#1028,#1029,#1030,#1031,
#1032,#1033,#1034,#1035,#1036,#1037,#1038,#1039,#1040,#1041,#1042,#1043),
.UNSPECIFIED.,.F.,.F.,(4,1,1,1,1,1,1,1,1,1,1,1,1,1,1,1,4),(0.E0,
7.864819509280E-2,1.413681330336E-1,2.045736246221E-1,2.698793961680E-1,
3.353079057080E-1,4.004142224334E-1,4.666789615845E-1,5.354208486929E-1,
5.731326190040E-1,6.153056740666E-1,6.631014493948E-1,7.162833006005E-1,
7.749671835602E-1,8.392392803708E-1,9.095601384707E-1,1.E0),.UNSPECIFIED.);
#1054=EDGE_CURVE('',#577,#565,#454,.T.);
#1058=ADVANCED_FACE('',(#1057),#1050,.T.);
#1074=EDGE_CURVE('',#566,#568,#466,.T.);
#1078=ADVANCED_FACE('',(#1077),#1070,.T.);
#1094=EDGE_CURVE('',#523,#570,#474,.T.);
#1098=ADVANCED_FACE('',(#1097),#1090,.T.);
#1114=EDGE_CURVE('',#521,#532,#478,.T.);
#1118=ADVANCED_FACE('',(#1117),#1110,.T.);
#1145=B_SPLINE_CURVE_WITH_KNOTS('',3,(#1126,#1127,#1128,#1129,#1130,#1131,#1132,
#1133,#1134,#1135,#1136,#1137,#1138,#1139,#1140,#1141,#1142,#1143,#1144),
.UNSPECIFIED.,.F.,.F.,(4,1,1,1,1,1,1,1,1,1,1,1,1,1,1,1,4),(0.E0,
9.894933553947E-2,1.719817551985E-1,2.382101409467E-1,2.976489277434E-1,
3.503420408793E-1,3.965227097404E-1,4.361728855780E-1,4.694661716917E-1,
5.293271812815E-1,5.886127595568E-1,6.480891992136E-1,7.105132359656E-1,
7.743994954996E-1,8.399824797709E-1,9.083543545001E-1,1.E0),.UNSPECIFIED.);
#1155=EDGE_CURVE('',#515,#525,#482,.T.);
#1159=ADVANCED_FACE('',(#1158),#1151,.T.);
#1186=B_SPLINE_CURVE_WITH_KNOTS('',3,(#1167,#1168,#1169,#1170,#1171,#1172,#1173,
#1174,#1175,#1176,#1177,#1178,#1179,#1180,#1181,#1182,#1183,#1184,#1185),
.UNSPECIFIED.,.F.,.F.,(4,1,1,1,1,1,1,1,1,1,1,1,1,1,1,1,4),(0.E0,
7.924131314189E-2,1.434001379547E-1,2.084848824797E-1,2.763486127421E-1,
3.449660503178E-1,4.127926318280E-1,4.826183300959E-1,5.547248534238E-1,
5.937197247146E-1,6.362239720181E-1,6.831834942969E-1,7.340440260072E-1,
7.897284455506E-1,8.499750287196E-1,9.148572339695E-1,1.E0),.UNSPECIFIED.);
#1196=EDGE_CURVE('',#527,#516,#486,.T.);
#1200=ADVANCED_FACE('',(#1199),#1192,.T.);
#1216=EDGE_CURVE('',#530,#531,#498,.T.);
#1220=ADVANCED_FACE('',(#1219),#1212,.T.);
#1236=EDGE_CURVE('',#536,#534,#506,.T.);
#1240=ADVANCED_FACE('',(#1239),#1232,.T.);
#1259=ADVANCED_FACE('',(#1258),#1252,.T.);
#1267=CLOSED_SHELL('',(#630,#652,#706,#726,#760,#789,#826,#867,#916,#936,#956,
#976,#1017,#1058,#1078,#1098,#1118,#1159,#1200,#1220,#1240,#1259));
#1268=MANIFOLD_SOLID_BREP('',#1267);
#1270=(LENGTH_UNIT()NAMED_UNIT(*)SI_UNIT(.MILLI.,.METRE.));
#1273=(NAMED_UNIT(*)PLANE_ANGLE_UNIT()SI_UNIT($,.RADIAN.));
#1276=(NAMED_UNIT(*)SI_UNIT($,.STERADIAN.)SOLID_ANGLE_UNIT());
#1278=(GEOMETRIC_REPRESENTATION_CONTEXT(3)GLOBAL_UNCERTAINTY_ASSIGNED_CONTEXT((
#1277))GLOBAL_UNIT_ASSIGNED_CONTEXT((#1272,#1275,#1276))REPRESENTATION_CONTEXT(
'ID1','3'));
#1282=AXIS2_PLACEMENT_3D('',#1279,#1280,#1281);
#1283=ADVANCED_BREP_SHAPE_REPRESENTATION('',(#1282,#1268),#1278);
#1291=PRODUCT_DEFINITION('design','',#1290,#1287);
#1292=PRODUCT_DEFINITION_SHAPE('','SHAPE FOR NO_10LOGO-268.',#1291);
#1293=SHAPE_ASPECT('','solid data associated with NO_10LOGO-268',#1292,.F.);
#1294=PROPERTY_DEFINITION('',
'shape for solid data with which properties are associated',#1293);
#1295=SHAPE_REPRESENTATION('',(#1268),#1278);
#1296=SHAPE_DEFINITION_REPRESENTATION(#1294,#1295);
#1297=(LENGTH_UNIT()NAMED_UNIT(*)SI_UNIT(.MILLI.,.METRE.));
#1303=PROPERTY_DEFINITION('geometric validation property',
'area of NO_10LOGO-268',#1293);
#1304=REPRESENTATION('surface area',(#1302),#1278);
#1305=PROPERTY_DEFINITION_REPRESENTATION(#1303,#1304);
#1306=(LENGTH_UNIT()NAMED_UNIT(*)SI_UNIT(.MILLI.,.METRE.));
#1312=PROPERTY_DEFINITION('geometric validation property',
'area of NO_10LOGO-268',#1292);
#1313=REPRESENTATION('surface area',(#1311),#1278);
#1314=PROPERTY_DEFINITION_REPRESENTATION(#1312,#1313);
#1315=SHAPE_DEFINITION_REPRESENTATION(#1292,#1283);
ENDSEC;
END-ISO-10303-21;
