ISO-10303-21;
HEADER;
FILE_DESCRIPTION((''),'2;1');
FILE_NAME('NO_10LOGO-280','2026-06-15T13:45:42',('Esia'),(''),
'CREO PARAMETRIC BY PTC INC, 2025102','CREO PARAMETRIC BY PTC INC, 2025102','');
FILE_SCHEMA((
'AP242_MANAGED_MODEL_BASED_3D_ENGINEERING_MIM_LF { 1 0 10303 442 1 1 4 }'));
ENDSEC;
DATA;
#15=DIRECTION('',(0.E0,-1.E0,0.E0));
#16=VECTOR('',#15,2.324002648819E-2);
#17=CARTESIAN_POINT('',(1.372317093846E1,9.746460663213E0,0.E0));
#18=LINE('',#17,#16);
#19=DIRECTION('',(-1.E0,0.E0,0.E0));
#20=VECTOR('',#19,1.261039823622E-2);
#21=CARTESIAN_POINT('',(1.373578133669E1,9.746460663213E0,0.E0));
#22=LINE('',#21,#20);
#23=CARTESIAN_POINT('',(1.375510518435E1,9.734999413937E0,0.E0));
#24=CARTESIAN_POINT('',(1.375507755302E1,9.735555948992E0,0.E0));
#25=CARTESIAN_POINT('',(1.375502314280E1,9.736651849323E0,0.E0));
#26=CARTESIAN_POINT('',(1.375463193506E1,9.738259616882E0,0.E0));
#27=CARTESIAN_POINT('',(1.375397145666E1,9.739783591559E0,0.E0));
#28=CARTESIAN_POINT('',(1.375306297427E1,9.741212203890E0,0.E0));
#29=CARTESIAN_POINT('',(1.375195092940E1,9.742510102252E0,0.E0));
#30=CARTESIAN_POINT('',(1.375064386521E1,9.743628777543E0,0.E0));
#31=CARTESIAN_POINT('',(1.374916650770E1,9.744561313039E0,0.E0));
#32=CARTESIAN_POINT('',(1.374777856998E1,9.745154156457E0,0.E0));
#33=CARTESIAN_POINT('',(1.374653573287E1,9.745530531024E0,0.E0));
#34=CARTESIAN_POINT('',(1.374544579427E1,9.745788280157E0,0.E0));
#35=CARTESIAN_POINT('',(1.374420169417E1,9.745988985260E0,0.E0));
#36=CARTESIAN_POINT('',(1.374281167006E1,9.746180801906E0,0.E0));
#37=CARTESIAN_POINT('',(1.374126536329E1,9.746281367953E0,0.E0));
#38=CARTESIAN_POINT('',(1.373957302238E1,9.746399051575E0,0.E0));
#39=CARTESIAN_POINT('',(1.373772719537E1,9.746455239591E0,0.E0));
#40=CARTESIAN_POINT('',(1.373644665293E1,9.746458808787E0,0.E0));
#41=CARTESIAN_POINT('',(1.373578133669E1,9.746460663213E0,0.E0));
#43=CARTESIAN_POINT('',(1.373544868828E1,9.723145034787E0,0.E0));
#44=CARTESIAN_POINT('',(1.373609891561E1,9.723146626772E0,0.E0));
#45=CARTESIAN_POINT('',(1.373735936093E1,9.723149712709E0,0.E0));
#46=CARTESIAN_POINT('',(1.373917956945E1,9.723210330567E0,0.E0));
#47=CARTESIAN_POINT('',(1.374086413238E1,9.723312415370E0,0.E0));
#48=CARTESIAN_POINT('',(1.374240644872E1,9.723466743449E0,0.E0));
#49=CARTESIAN_POINT('',(1.374381985465E1,9.723643226551E0,0.E0));
#50=CARTESIAN_POINT('',(1.374509832184E1,9.723863100520E0,0.E0));
#51=CARTESIAN_POINT('',(1.374623760071E1,9.724138160126E0,0.E0));
#52=CARTESIAN_POINT('',(1.374755902909E1,9.724530625701E0,0.E0));
#53=CARTESIAN_POINT('',(1.374903269443E1,9.725162918976E0,0.E0));
#54=CARTESIAN_POINT('',(1.375060641255E1,9.726114683575E0,0.E0));
#55=CARTESIAN_POINT('',(1.375196299734E1,9.727270261512E0,0.E0));
#56=CARTESIAN_POINT('',(1.375309445046E1,9.728598265134E0,0.E0));
#57=CARTESIAN_POINT('',(1.375399341250E1,9.730069328315E0,0.E0));
#58=CARTESIAN_POINT('',(1.375462591611E1,9.731644589764E0,0.E0));
#59=CARTESIAN_POINT('',(1.375504626265E1,9.733294191874E0,0.E0));
#60=CARTESIAN_POINT('',(1.375508541595E1,9.734427307654E0,0.E0));
#61=CARTESIAN_POINT('',(1.375510518435E1,9.734999413937E0,0.E0));
#63=DIRECTION('',(9.999810422872E-1,-6.157521112275E-3,0.E0));
#64=VECTOR('',#63,1.227798258924E-2);
#65=CARTESIAN_POINT('',(1.372317093846E1,9.723220636724E0,0.E0));
#66=LINE('',#65,#64);
#67=DIRECTION('',(1.E0,0.E0,0.E0));
#68=VECTOR('',#67,1.699530892913E-2);
#69=CARTESIAN_POINT('',(1.371252618978E1,9.755170002992E0,0.E0));
#70=LINE('',#69,#68);
#71=DIRECTION('',(0.E0,1.E0,0.E0));
#72=VECTOR('',#71,7.548094488189E-2);
#73=CARTESIAN_POINT('',(1.371252618978E1,9.679689058110E0,0.E0));
#74=LINE('',#73,#72);
#75=DIRECTION('',(-1.E0,0.E0,0.E0));
#76=VECTOR('',#75,1.064474867717E-2);
#77=CARTESIAN_POINT('',(1.372317093846E1,9.679689058110E0,0.E0));
#78=LINE('',#77,#76);
#79=DIRECTION('',(0.E0,-1.E0,0.E0));
#80=VECTOR('',#79,3.483735916535E-2);
#81=CARTESIAN_POINT('',(1.372317093846E1,9.714526417276E0,0.E0));
#82=LINE('',#81,#80);
#83=DIRECTION('',(-1.E0,0.E0,0.E0));
#84=VECTOR('',#83,2.358779527560E-3);
#85=CARTESIAN_POINT('',(1.372552971798E1,9.714526417276E0,0.E0));
#86=LINE('',#85,#84);
#87=DIRECTION('',(-6.401843993571E-1,7.682212798536E-1,0.E0));
#88=VECTOR('',#87,4.534807883999E-2);
#89=CARTESIAN_POINT('',(1.375456085060E1,9.679689058110E0,0.E0));
#90=LINE('',#89,#88);
#91=DIRECTION('',(-1.E0,0.E0,0.E0));
#92=VECTOR('',#91,1.215678680315E-2);
#93=CARTESIAN_POINT('',(1.376671763740E1,9.679689058110E0,0.E0));
#94=LINE('',#93,#92);
#95=DIRECTION('',(6.399875590109E-1,-7.683852707537E-1,0.E0));
#96=VECTOR('',#95,4.533840052814E-2);
#97=CARTESIAN_POINT('',(1.373770162512E1,9.714526417276E0,0.E0));
#98=LINE('',#97,#96);
#99=CARTESIAN_POINT('',(1.376574993298E1,9.734969173181E0,0.E0));
#100=CARTESIAN_POINT('',(1.376574435071E1,9.734479683685E0,0.E0));
#101=CARTESIAN_POINT('',(1.376573332455E1,9.733512834898E0,0.E0));
#102=CARTESIAN_POINT('',(1.376555079043E1,9.732084495449E0,0.E0));
#103=CARTESIAN_POINT('',(1.376530070754E1,9.730688180646E0,0.E0));
#104=CARTESIAN_POINT('',(1.376493872679E1,9.729326838E0,0.E0));
#105=CARTESIAN_POINT('',(1.376446405904E1,9.728011315795E0,0.E0));
#106=CARTESIAN_POINT('',(1.376390777792E1,9.726725032583E0,0.E0));
#107=CARTESIAN_POINT('',(1.376321607373E1,9.725492149465E0,0.E0));
#108=CARTESIAN_POINT('',(1.376245582691E1,9.724277827937E0,0.E0));
#109=CARTESIAN_POINT('',(1.376157584839E1,9.723137522693E0,0.E0));
#110=CARTESIAN_POINT('',(1.376061679328E1,9.722050474819E0,0.E0));
#111=CARTESIAN_POINT('',(1.375955787019E1,9.721034906740E0,0.E0));
#112=CARTESIAN_POINT('',(1.375839193672E1,9.720104761087E0,0.E0));
#113=CARTESIAN_POINT('',(1.375714061636E1,9.719233671260E0,0.E0));
#114=CARTESIAN_POINT('',(1.375579735058E1,9.718433698299E0,0.E0));
#115=CARTESIAN_POINT('',(1.375435307230E1,9.717711513260E0,0.E0));
#116=CARTESIAN_POINT('',(1.375228819786E1,9.716805689906E0,0.E0));
#117=CARTESIAN_POINT('',(1.374946711167E1,9.715899679228E0,0.E0));
#118=CARTESIAN_POINT('',(1.374582499465E1,9.715123123984E0,0.E0));
#119=CARTESIAN_POINT('',(1.374186769852E1,9.714633418205E0,0.E0));
#120=CARTESIAN_POINT('',(1.373912441447E1,9.714562960016E0,0.E0));
#121=CARTESIAN_POINT('',(1.373770162512E1,9.714526417276E0,0.E0));
#123=CARTESIAN_POINT('',(1.374804396614E1,9.754156937433E0,0.E0));
#124=CARTESIAN_POINT('',(1.374870708128E1,9.754011570283E0,0.E0));
#125=CARTESIAN_POINT('',(1.375000580972E1,9.753726864850E0,0.E0));
#126=CARTESIAN_POINT('',(1.375187523406E1,9.753121556315E0,0.E0));
#127=CARTESIAN_POINT('',(1.375364642055E1,9.752432554252E0,0.E0));
#128=CARTESIAN_POINT('',(1.375531507706E1,9.751629336567E0,0.E0));
#129=CARTESIAN_POINT('',(1.375688438126E1,9.750717420614E0,0.E0));
#130=CARTESIAN_POINT('',(1.375834974255E1,9.749694603921E0,0.E0));
#131=CARTESIAN_POINT('',(1.375970240608E1,9.748547138598E0,0.E0));
#132=CARTESIAN_POINT('',(1.376095632633E1,9.747313415669E0,0.E0));
#133=CARTESIAN_POINT('',(1.376208360420E1,9.745995766157E0,0.E0));
#134=CARTESIAN_POINT('',(1.376306351490E1,9.744602143606E0,0.E0));
#135=CARTESIAN_POINT('',(1.376389587548E1,9.743150670756E0,0.E0));
#136=CARTESIAN_POINT('',(1.376458518548E1,9.741634846205E0,0.E0));
#137=CARTESIAN_POINT('',(1.376509301154E1,9.740048342929E0,0.E0));
#138=CARTESIAN_POINT('',(1.376547549066E1,9.738411177827E0,0.E0));
#139=CARTESIAN_POINT('',(1.376570770573E1,9.736709616425E0,0.E0));
#140=CARTESIAN_POINT('',(1.376573573050E1,9.735554543575E0,0.E0));
#141=CARTESIAN_POINT('',(1.376574993298E1,9.734969173181E0,0.E0));
#143=CARTESIAN_POINT('',(1.372952149871E1,9.755170002992E0,0.E0));
#144=CARTESIAN_POINT('',(1.373061019431E1,9.755167573323E0,0.E0));
#145=CARTESIAN_POINT('',(1.373269696479E1,9.755162916236E0,0.E0));
#146=CARTESIAN_POINT('',(1.373569087668E1,9.755114947606E0,0.E0));
#147=CARTESIAN_POINT('',(1.373841356414E1,9.755050607622E0,0.E0));
#148=CARTESIAN_POINT('',(1.374086223855E1,9.754917890929E0,0.E0));
#149=CARTESIAN_POINT('',(1.374304717847E1,9.754799256567E0,0.E0));
#150=CARTESIAN_POINT('',(1.374495586261E1,9.754606673102E0,0.E0));
#151=CARTESIAN_POINT('',(1.374659972872E1,9.754432559386E0,0.E0));
#152=CARTESIAN_POINT('',(1.374759122764E1,9.754243339181E0,0.E0));
#153=CARTESIAN_POINT('',(1.374804396614E1,9.754156937433E0,0.E0));
#155=DIRECTION('',(0.E0,-1.E0,0.E0));
#156=VECTOR('',#155,2.324002648819E-2);
#157=CARTESIAN_POINT('',(1.372317093846E1,9.746460663213E0,6.614173228346E-3));
#158=LINE('',#157,#156);
#159=DIRECTION('',(0.E0,0.E0,1.E0));
#160=VECTOR('',#159,6.614173228346E-3);
#161=CARTESIAN_POINT('',(1.372317093846E1,9.746460663213E0,0.E0));
#162=LINE('',#161,#160);
#163=DIRECTION('',(0.E0,-2.685682364331E-13,-1.E0));
#164=VECTOR('',#163,6.614173228346E-3);
#165=CARTESIAN_POINT('',(1.372317093846E1,9.723220636724E0,6.614173228346E-3));
#166=LINE('',#165,#164);
#167=CARTESIAN_POINT('',(1.375510518435E1,9.734999413937E0,6.614173228346E-3));
#168=CARTESIAN_POINT('',(1.375508541595E1,9.734427307654E0,6.614173228346E-3));
#169=CARTESIAN_POINT('',(1.375504626265E1,9.733294191874E0,6.614173228346E-3));
#170=CARTESIAN_POINT('',(1.375462591611E1,9.731644589764E0,6.614173228346E-3));
#171=CARTESIAN_POINT('',(1.375399341250E1,9.730069328315E0,6.614173228346E-3));
#172=CARTESIAN_POINT('',(1.375309445046E1,9.728598265134E0,6.614173228346E-3));
#173=CARTESIAN_POINT('',(1.375196299734E1,9.727270261512E0,6.614173228346E-3));
#174=CARTESIAN_POINT('',(1.375060641255E1,9.726114683575E0,6.614173228346E-3));
#175=CARTESIAN_POINT('',(1.374903269443E1,9.725162918976E0,6.614173228346E-3));
#176=CARTESIAN_POINT('',(1.374755902909E1,9.724530625701E0,6.614173228346E-3));
#177=CARTESIAN_POINT('',(1.374623760071E1,9.724138160126E0,6.614173228346E-3));
#178=CARTESIAN_POINT('',(1.374509832184E1,9.723863100520E0,6.614173228346E-3));
#179=CARTESIAN_POINT('',(1.374381985465E1,9.723643226551E0,6.614173228346E-3));
#180=CARTESIAN_POINT('',(1.374240644872E1,9.723466743449E0,6.614173228346E-3));
#181=CARTESIAN_POINT('',(1.374086413238E1,9.723312415370E0,6.614173228346E-3));
#182=CARTESIAN_POINT('',(1.373917956945E1,9.723210330567E0,6.614173228346E-3));
#183=CARTESIAN_POINT('',(1.373735936093E1,9.723149712709E0,6.614173228346E-3));
#184=CARTESIAN_POINT('',(1.373609891561E1,9.723146626772E0,6.614173228346E-3));
#185=CARTESIAN_POINT('',(1.373544868828E1,9.723145034787E0,6.614173228346E-3));
#187=CARTESIAN_POINT('',(1.373578133669E1,9.746460663213E0,6.614173228346E-3));
#188=CARTESIAN_POINT('',(1.373644665293E1,9.746458808787E0,6.614173228346E-3));
#189=CARTESIAN_POINT('',(1.373772719537E1,9.746455239591E0,6.614173228346E-3));
#190=CARTESIAN_POINT('',(1.373957302238E1,9.746399051575E0,6.614173228346E-3));
#191=CARTESIAN_POINT('',(1.374126536329E1,9.746281367953E0,6.614173228346E-3));
#192=CARTESIAN_POINT('',(1.374281167006E1,9.746180801906E0,6.614173228346E-3));
#193=CARTESIAN_POINT('',(1.374420169417E1,9.745988985260E0,6.614173228346E-3));
#194=CARTESIAN_POINT('',(1.374544579427E1,9.745788280157E0,6.614173228346E-3));
#195=CARTESIAN_POINT('',(1.374653573287E1,9.745530531024E0,6.614173228346E-3));
#196=CARTESIAN_POINT('',(1.374777856998E1,9.745154156457E0,6.614173228346E-3));
#197=CARTESIAN_POINT('',(1.374916650770E1,9.744561313039E0,6.614173228346E-3));
#198=CARTESIAN_POINT('',(1.375064386521E1,9.743628777543E0,6.614173228346E-3));
#199=CARTESIAN_POINT('',(1.375195092940E1,9.742510102252E0,6.614173228346E-3));
#200=CARTESIAN_POINT('',(1.375306297427E1,9.741212203890E0,6.614173228346E-3));
#201=CARTESIAN_POINT('',(1.375397145666E1,9.739783591559E0,6.614173228346E-3));
#202=CARTESIAN_POINT('',(1.375463193506E1,9.738259616882E0,6.614173228346E-3));
#203=CARTESIAN_POINT('',(1.375502314280E1,9.736651849323E0,6.614173228346E-3));
#204=CARTESIAN_POINT('',(1.375507755302E1,9.735555948992E0,6.614173228346E-3));
#205=CARTESIAN_POINT('',(1.375510518435E1,9.734999413937E0,6.614173228346E-3));
#207=CARTESIAN_POINT('',(1.372952149871E1,9.755170002992E0,6.614173228346E-3));
#208=CARTESIAN_POINT('',(1.373061019431E1,9.755167573323E0,6.614173228346E-3));
#209=CARTESIAN_POINT('',(1.373269696479E1,9.755162916236E0,6.614173228346E-3));
#210=CARTESIAN_POINT('',(1.373569087668E1,9.755114947606E0,6.614173228346E-3));
#211=CARTESIAN_POINT('',(1.373841356414E1,9.755050607622E0,6.614173228346E-3));
#212=CARTESIAN_POINT('',(1.374086223855E1,9.754917890929E0,6.614173228346E-3));
#213=CARTESIAN_POINT('',(1.374304717847E1,9.754799256567E0,6.614173228346E-3));
#214=CARTESIAN_POINT('',(1.374495586261E1,9.754606673102E0,6.614173228346E-3));
#215=CARTESIAN_POINT('',(1.374659972872E1,9.754432559386E0,6.614173228346E-3));
#216=CARTESIAN_POINT('',(1.374759122764E1,9.754243339181E0,6.614173228346E-3));
#217=CARTESIAN_POINT('',(1.374804396614E1,9.754156937433E0,6.614173228346E-3));
#219=CARTESIAN_POINT('',(1.376574993298E1,9.734969173181E0,6.614173228346E-3));
#220=CARTESIAN_POINT('',(1.376573573050E1,9.735554543575E0,6.614173228346E-3));
#221=CARTESIAN_POINT('',(1.376570770573E1,9.736709616425E0,6.614173228346E-3));
#222=CARTESIAN_POINT('',(1.376547549066E1,9.738411177827E0,6.614173228346E-3));
#223=CARTESIAN_POINT('',(1.376509301154E1,9.740048342929E0,6.614173228346E-3));
#224=CARTESIAN_POINT('',(1.376458518548E1,9.741634846205E0,6.614173228346E-3));
#225=CARTESIAN_POINT('',(1.376389587548E1,9.743150670756E0,6.614173228346E-3));
#226=CARTESIAN_POINT('',(1.376306351490E1,9.744602143606E0,6.614173228346E-3));
#227=CARTESIAN_POINT('',(1.376208360420E1,9.745995766157E0,6.614173228346E-3));
#228=CARTESIAN_POINT('',(1.376095632633E1,9.747313415669E0,6.614173228346E-3));
#229=CARTESIAN_POINT('',(1.375970240608E1,9.748547138598E0,6.614173228346E-3));
#230=CARTESIAN_POINT('',(1.375834974255E1,9.749694603921E0,6.614173228346E-3));
#231=CARTESIAN_POINT('',(1.375688438126E1,9.750717420614E0,6.614173228346E-3));
#232=CARTESIAN_POINT('',(1.375531507706E1,9.751629336567E0,6.614173228346E-3));
#233=CARTESIAN_POINT('',(1.375364642055E1,9.752432554252E0,6.614173228346E-3));
#234=CARTESIAN_POINT('',(1.375187523406E1,9.753121556315E0,6.614173228346E-3));
#235=CARTESIAN_POINT('',(1.375000580972E1,9.753726864850E0,6.614173228346E-3));
#236=CARTESIAN_POINT('',(1.374870708128E1,9.754011570283E0,6.614173228346E-3));
#237=CARTESIAN_POINT('',(1.374804396614E1,9.754156937433E0,6.614173228346E-3));
#239=CARTESIAN_POINT('',(1.373770162512E1,9.714526417276E0,6.614173228346E-3));
#240=CARTESIAN_POINT('',(1.373912441447E1,9.714562960016E0,6.614173228346E-3));
#241=CARTESIAN_POINT('',(1.374186769852E1,9.714633418205E0,6.614173228346E-3));
#242=CARTESIAN_POINT('',(1.374582499465E1,9.715123123984E0,6.614173228346E-3));
#243=CARTESIAN_POINT('',(1.374946711167E1,9.715899679228E0,6.614173228346E-3));
#244=CARTESIAN_POINT('',(1.375228819786E1,9.716805689906E0,6.614173228346E-3));
#245=CARTESIAN_POINT('',(1.375435307230E1,9.717711513260E0,6.614173228346E-3));
#246=CARTESIAN_POINT('',(1.375579735058E1,9.718433698299E0,6.614173228346E-3));
#247=CARTESIAN_POINT('',(1.375714061636E1,9.719233671260E0,6.614173228346E-3));
#248=CARTESIAN_POINT('',(1.375839193672E1,9.720104761087E0,6.614173228346E-3));
#249=CARTESIAN_POINT('',(1.375955787019E1,9.721034906740E0,6.614173228346E-3));
#250=CARTESIAN_POINT('',(1.376061679328E1,9.722050474819E0,6.614173228346E-3));
#251=CARTESIAN_POINT('',(1.376157584839E1,9.723137522693E0,6.614173228346E-3));
#252=CARTESIAN_POINT('',(1.376245582691E1,9.724277827937E0,6.614173228346E-3));
#253=CARTESIAN_POINT('',(1.376321607373E1,9.725492149465E0,6.614173228346E-3));
#254=CARTESIAN_POINT('',(1.376390777792E1,9.726725032583E0,6.614173228346E-3));
#255=CARTESIAN_POINT('',(1.376446405904E1,9.728011315795E0,6.614173228346E-3));
#256=CARTESIAN_POINT('',(1.376493872679E1,9.729326838E0,6.614173228346E-3));
#257=CARTESIAN_POINT('',(1.376530070754E1,9.730688180646E0,6.614173228346E-3));
#258=CARTESIAN_POINT('',(1.376555079043E1,9.732084495449E0,6.614173228346E-3));
#259=CARTESIAN_POINT('',(1.376573332455E1,9.733512834898E0,6.614173228346E-3));
#260=CARTESIAN_POINT('',(1.376574435071E1,9.734479683685E0,6.614173228346E-3));
#261=CARTESIAN_POINT('',(1.376574993298E1,9.734969173181E0,6.614173228346E-3));
#263=DIRECTION('',(-6.399875590109E-1,7.683852707537E-1,0.E0));
#264=VECTOR('',#263,4.533840052814E-2);
#265=CARTESIAN_POINT('',(1.376671763740E1,9.679689058110E0,6.614173228346E-3));
#266=LINE('',#265,#264);
#267=DIRECTION('',(6.401843993570E-1,-7.682212798536E-1,0.E0));
#268=VECTOR('',#267,4.534807883999E-2);
#269=CARTESIAN_POINT('',(1.372552971798E1,9.714526417276E0,6.614173228346E-3));
#270=LINE('',#269,#268);
#271=DIRECTION('',(0.E0,0.E0,1.E0));
#272=VECTOR('',#271,6.614173228346E-3);
#273=CARTESIAN_POINT('',(1.373544868828E1,9.723145034787E0,0.E0));
#274=LINE('',#273,#272);
#275=DIRECTION('',(9.999810422872E-1,-6.157521112131E-3,0.E0));
#276=VECTOR('',#275,1.227798258924E-2);
#277=CARTESIAN_POINT('',(1.372317093846E1,9.723220636724E0,6.614173228346E-3));
#278=LINE('',#277,#276);
#279=DIRECTION('',(0.E0,-2.685682364331E-13,1.E0));
#280=VECTOR('',#279,6.614173228346E-3);
#281=CARTESIAN_POINT('',(1.375510518435E1,9.734999413937E0,0.E0));
#282=LINE('',#281,#280);
#283=DIRECTION('',(0.E0,0.E0,-1.E0));
#284=VECTOR('',#283,6.614173228346E-3);
#285=CARTESIAN_POINT('',(1.373578133669E1,9.746460663213E0,6.614173228346E-3));
#286=LINE('',#285,#284);
#287=DIRECTION('',(-1.E0,0.E0,0.E0));
#288=VECTOR('',#287,1.261039823622E-2);
#289=CARTESIAN_POINT('',(1.373578133669E1,9.746460663213E0,6.614173228346E-3));
#290=LINE('',#289,#288);
#291=DIRECTION('',(0.E0,0.E0,1.E0));
#292=VECTOR('',#291,6.614173228346E-3);
#293=CARTESIAN_POINT('',(1.372952149871E1,9.755170002992E0,0.E0));
#294=LINE('',#293,#292);
#295=DIRECTION('',(1.E0,0.E0,0.E0));
#296=VECTOR('',#295,1.699530892913E-2);
#297=CARTESIAN_POINT('',(1.371252618978E1,9.755170002992E0,6.614173228346E-3));
#298=LINE('',#297,#296);
#299=DIRECTION('',(0.E0,1.E0,0.E0));
#300=VECTOR('',#299,7.548094488189E-2);
#301=CARTESIAN_POINT('',(1.371252618978E1,9.679689058110E0,6.614173228346E-3));
#302=LINE('',#301,#300);
#303=DIRECTION('',(0.E0,0.E0,1.E0));
#304=VECTOR('',#303,6.614173228346E-3);
#305=CARTESIAN_POINT('',(1.371252618978E1,9.679689058110E0,0.E0));
#306=LINE('',#305,#304);
#307=DIRECTION('',(0.E0,2.685682364331E-13,-1.E0));
#308=VECTOR('',#307,6.614173228346E-3);
#309=CARTESIAN_POINT('',(1.371252618978E1,9.755170002992E0,6.614173228346E-3));
#310=LINE('',#309,#308);
#311=DIRECTION('',(-1.E0,0.E0,0.E0));
#312=VECTOR('',#311,1.064474867717E-2);
#313=CARTESIAN_POINT('',(1.372317093846E1,9.679689058110E0,6.614173228346E-3));
#314=LINE('',#313,#312);
#315=DIRECTION('',(0.E0,0.E0,1.E0));
#316=VECTOR('',#315,6.614173228346E-3);
#317=CARTESIAN_POINT('',(1.372317093846E1,9.679689058110E0,0.E0));
#318=LINE('',#317,#316);
#319=DIRECTION('',(0.E0,-1.E0,0.E0));
#320=VECTOR('',#319,3.483735916535E-2);
#321=CARTESIAN_POINT('',(1.372317093846E1,9.714526417276E0,6.614173228346E-3));
#322=LINE('',#321,#320);
#323=DIRECTION('',(0.E0,0.E0,1.E0));
#324=VECTOR('',#323,6.614173228346E-3);
#325=CARTESIAN_POINT('',(1.372317093846E1,9.714526417276E0,0.E0));
#326=LINE('',#325,#324);
#327=DIRECTION('',(-1.E0,0.E0,0.E0));
#328=VECTOR('',#327,2.358779527560E-3);
#329=CARTESIAN_POINT('',(1.372552971798E1,9.714526417276E0,6.614173228346E-3));
#330=LINE('',#329,#328);
#331=DIRECTION('',(8.057047092994E-13,0.E0,1.E0));
#332=VECTOR('',#331,6.614173228346E-3);
#333=CARTESIAN_POINT('',(1.372552971798E1,9.714526417276E0,0.E0));
#334=LINE('',#333,#332);
#335=DIRECTION('',(0.E0,0.E0,1.E0));
#336=VECTOR('',#335,6.614173228346E-3);
#337=CARTESIAN_POINT('',(1.375456085060E1,9.679689058110E0,0.E0));
#338=LINE('',#337,#336);
#339=DIRECTION('',(-1.E0,0.E0,0.E0));
#340=VECTOR('',#339,1.215678680315E-2);
#341=CARTESIAN_POINT('',(1.376671763740E1,9.679689058110E0,6.614173228346E-3));
#342=LINE('',#341,#340);
#343=DIRECTION('',(0.E0,0.E0,1.E0));
#344=VECTOR('',#343,6.614173228346E-3);
#345=CARTESIAN_POINT('',(1.376671763740E1,9.679689058110E0,0.E0));
#346=LINE('',#345,#344);
#347=DIRECTION('',(0.E0,0.E0,1.E0));
#348=VECTOR('',#347,6.614173228346E-3);
#349=CARTESIAN_POINT('',(1.376574993298E1,9.734969173181E0,0.E0));
#350=LINE('',#349,#348);
#351=DIRECTION('',(2.685682364331E-13,0.E0,-1.E0));
#352=VECTOR('',#351,6.614173228346E-3);
#353=CARTESIAN_POINT('',(1.373770162512E1,9.714526417276E0,6.614173228346E-3));
#354=LINE('',#353,#352);
#355=DIRECTION('',(0.E0,0.E0,1.E0));
#356=VECTOR('',#355,6.614173228346E-3);
#357=CARTESIAN_POINT('',(1.374804396614E1,9.754156937433E0,0.E0));
#358=LINE('',#357,#356);
#359=CARTESIAN_POINT('',(1.372317093846E1,9.723220636724E0,6.614173228346E-3));
#360=CARTESIAN_POINT('',(1.373544868828E1,9.723145034787E0,6.614173228346E-3));
#361=VERTEX_POINT('',#359);
#362=VERTEX_POINT('',#360);
#363=VERTEX_POINT('',#99);
#364=VERTEX_POINT('',#121);
#365=VERTEX_POINT('',#167);
#366=CARTESIAN_POINT('',(1.373544868828E1,9.723145034787E0,0.E0));
#367=VERTEX_POINT('',#366);
#368=CARTESIAN_POINT('',(1.376671763740E1,9.679689058110E0,0.E0));
#369=VERTEX_POINT('',#368);
#370=CARTESIAN_POINT('',(1.371252618978E1,9.679689058110E0,0.E0));
#371=CARTESIAN_POINT('',(1.371252618978E1,9.755170002992E0,0.E0));
#372=VERTEX_POINT('',#370);
#373=VERTEX_POINT('',#371);
#374=CARTESIAN_POINT('',(1.373578133669E1,9.746460663213E0,0.E0));
#375=CARTESIAN_POINT('',(1.372317093846E1,9.746460663213E0,0.E0));
#376=VERTEX_POINT('',#374);
#377=VERTEX_POINT('',#375);
#378=CARTESIAN_POINT('',(1.372317093846E1,9.723220636724E0,0.E0));
#379=VERTEX_POINT('',#378);
#380=CARTESIAN_POINT('',(1.371252618978E1,9.679689058110E0,6.614173228346E-3));
#381=CARTESIAN_POINT('',(1.371252618978E1,9.755170002992E0,6.614173228346E-3));
#382=VERTEX_POINT('',#380);
#383=VERTEX_POINT('',#381);
#384=CARTESIAN_POINT('',(1.372317093846E1,9.679689058110E0,6.614173228346E-3));
#385=VERTEX_POINT('',#384);
#386=CARTESIAN_POINT('',(1.372952149871E1,9.755170002992E0,6.614173228346E-3));
#387=VERTEX_POINT('',#386);
#388=CARTESIAN_POINT('',(1.372952149871E1,9.755170002992E0,0.E0));
#389=VERTEX_POINT('',#388);
#390=VERTEX_POINT('',#217);
#391=CARTESIAN_POINT('',(1.372317093846E1,9.746460663213E0,6.614173228346E-3));
#392=VERTEX_POINT('',#391);
#393=CARTESIAN_POINT('',(1.373578133669E1,9.746460663213E0,6.614173228346E-3));
#394=VERTEX_POINT('',#393);
#395=VERTEX_POINT('',#219);
#396=CARTESIAN_POINT('',(1.375510518435E1,9.734999413937E0,0.E0));
#397=VERTEX_POINT('',#396);
#398=CARTESIAN_POINT('',(1.374804396614E1,9.754156937433E0,0.E0));
#399=VERTEX_POINT('',#398);
#400=CARTESIAN_POINT('',(1.373770162512E1,9.714526417276E0,6.614173228346E-3));
#401=VERTEX_POINT('',#400);
#402=CARTESIAN_POINT('',(1.376671763740E1,9.679689058110E0,6.614173228346E-3));
#403=VERTEX_POINT('',#402);
#404=CARTESIAN_POINT('',(1.375456085060E1,9.679689058110E0,6.614173228346E-3));
#405=VERTEX_POINT('',#404);
#406=CARTESIAN_POINT('',(1.372552971798E1,9.714526417276E0,6.614173228346E-3));
#407=VERTEX_POINT('',#406);
#408=CARTESIAN_POINT('',(1.375456085060E1,9.679689058110E0,0.E0));
#409=VERTEX_POINT('',#408);
#410=CARTESIAN_POINT('',(1.372552971798E1,9.714526417276E0,0.E0));
#411=VERTEX_POINT('',#410);
#412=CARTESIAN_POINT('',(1.372317093846E1,9.714526417276E0,6.614173228346E-3));
#413=VERTEX_POINT('',#412);
#414=CARTESIAN_POINT('',(1.372317093846E1,9.714526417276E0,0.E0));
#415=VERTEX_POINT('',#414);
#416=CARTESIAN_POINT('',(1.372317093846E1,9.679689058110E0,0.E0));
#417=VERTEX_POINT('',#416);
#418=CARTESIAN_POINT('',(1.371252618978E1,9.679689058110E0,0.E0));
#419=DIRECTION('',(0.E0,0.E0,1.E0));
#420=DIRECTION('',(1.E0,0.E0,0.E0));
#421=AXIS2_PLACEMENT_3D('',#418,#419,#420);
#422=PLANE('',#421);
#424=ORIENTED_EDGE('',*,*,#423,.F.);
#426=ORIENTED_EDGE('',*,*,#425,.F.);
#428=ORIENTED_EDGE('',*,*,#427,.F.);
#430=ORIENTED_EDGE('',*,*,#429,.F.);
#432=ORIENTED_EDGE('',*,*,#431,.F.);
#434=ORIENTED_EDGE('',*,*,#433,.F.);
#436=ORIENTED_EDGE('',*,*,#435,.F.);
#438=ORIENTED_EDGE('',*,*,#437,.F.);
#440=ORIENTED_EDGE('',*,*,#439,.F.);
#442=ORIENTED_EDGE('',*,*,#441,.F.);
#444=ORIENTED_EDGE('',*,*,#443,.F.);
#445=EDGE_LOOP('',(#424,#426,#428,#430,#432,#434,#436,#438,#440,#442,#444));
#446=FACE_OUTER_BOUND('',#445,.F.);
#448=ORIENTED_EDGE('',*,*,#447,.F.);
#450=ORIENTED_EDGE('',*,*,#449,.F.);
#452=ORIENTED_EDGE('',*,*,#451,.F.);
#454=ORIENTED_EDGE('',*,*,#453,.F.);
#456=ORIENTED_EDGE('',*,*,#455,.F.);
#457=EDGE_LOOP('',(#448,#450,#452,#454,#456));
#458=FACE_BOUND('',#457,.F.);
#460=FILL_AREA_STYLE_COLOUR('',#14);
#461=FILL_AREA_STYLE('',(#460));
#462=SURFACE_STYLE_FILL_AREA(#461);
#463=SURFACE_SIDE_STYLE('',(#462));
#464=SURFACE_STYLE_USAGE(.BOTH.,#463);
#465=PRESENTATION_STYLE_ASSIGNMENT((#464));
#466=STYLED_ITEM('',(#465),#459);
#467=CARTESIAN_POINT('',(1.372317093846E1,9.723220636724E0,6.614173228346E-3));
#468=DIRECTION('',(1.E0,0.E0,0.E0));
#469=DIRECTION('',(0.E0,0.E0,-1.E0));
#470=AXIS2_PLACEMENT_3D('',#467,#468,#469);
#471=PLANE('',#470);
#473=ORIENTED_EDGE('',*,*,#472,.F.);
#475=ORIENTED_EDGE('',*,*,#474,.F.);
#476=ORIENTED_EDGE('',*,*,#447,.T.);
#478=ORIENTED_EDGE('',*,*,#477,.F.);
#479=EDGE_LOOP('',(#473,#475,#476,#478));
#480=FACE_OUTER_BOUND('',#479,.F.);
#482=FILL_AREA_STYLE_COLOUR('',#14);
#483=FILL_AREA_STYLE('',(#482));
#484=SURFACE_STYLE_FILL_AREA(#483);
#485=SURFACE_SIDE_STYLE('',(#484));
#486=SURFACE_STYLE_USAGE(.BOTH.,#485);
#487=PRESENTATION_STYLE_ASSIGNMENT((#486));
#488=STYLED_ITEM('',(#487),#481);
#489=CARTESIAN_POINT('',(1.371252618978E1,9.679689058110E0,6.614173228346E-3));
#490=DIRECTION('',(0.E0,0.E0,1.E0));
#491=DIRECTION('',(1.E0,0.E0,0.E0));
#492=AXIS2_PLACEMENT_3D('',#489,#490,#491);
#493=PLANE('',#492);
#495=ORIENTED_EDGE('',*,*,#494,.T.);
#497=ORIENTED_EDGE('',*,*,#496,.F.);
#499=ORIENTED_EDGE('',*,*,#498,.F.);
#501=ORIENTED_EDGE('',*,*,#500,.F.);
#503=ORIENTED_EDGE('',*,*,#502,.T.);
#505=ORIENTED_EDGE('',*,*,#504,.F.);
#507=ORIENTED_EDGE('',*,*,#506,.T.);
#509=ORIENTED_EDGE('',*,*,#508,.T.);
#511=ORIENTED_EDGE('',*,*,#510,.T.);
#513=ORIENTED_EDGE('',*,*,#512,.T.);
#515=ORIENTED_EDGE('',*,*,#514,.T.);
#516=EDGE_LOOP('',(#495,#497,#499,#501,#503,#505,#507,#509,#511,#513,#515));
#517=FACE_OUTER_BOUND('',#516,.F.);
#519=ORIENTED_EDGE('',*,*,#518,.F.);
#521=ORIENTED_EDGE('',*,*,#520,.F.);
#523=ORIENTED_EDGE('',*,*,#522,.T.);
#524=ORIENTED_EDGE('',*,*,#472,.T.);
#526=ORIENTED_EDGE('',*,*,#525,.T.);
#527=EDGE_LOOP('',(#519,#521,#523,#524,#526));
#528=FACE_BOUND('',#527,.F.);
#530=FILL_AREA_STYLE_COLOUR('',#14);
#531=FILL_AREA_STYLE('',(#530));
#532=SURFACE_STYLE_FILL_AREA(#531);
#533=SURFACE_SIDE_STYLE('',(#532));
#534=SURFACE_STYLE_USAGE(.BOTH.,#533);
#535=PRESENTATION_STYLE_ASSIGNMENT((#534));
#536=STYLED_ITEM('',(#535),#529);
#537=CARTESIAN_POINT('',(1.373498262842E1,9.723143752612E0,6.614173228346E-3));
#538=CARTESIAN_POINT('',(1.373578819892E1,9.723146456574E0,6.614173228346E-3));
#539=CARTESIAN_POINT('',(1.373720407770E1,9.723144541358E0,6.614173228346E-3));
#540=CARTESIAN_POINT('',(1.373917956945E1,9.723210330567E0,6.614173228346E-3));
#541=CARTESIAN_POINT('',(1.374086413238E1,9.723312415370E0,6.614173228346E-3));
#542=CARTESIAN_POINT('',(1.374240644872E1,9.723466743449E0,6.614173228346E-3));
#543=CARTESIAN_POINT('',(1.374381985465E1,9.723643226551E0,6.614173228346E-3));
#544=CARTESIAN_POINT('',(1.374509832184E1,9.723863100520E0,6.614173228346E-3));
#545=CARTESIAN_POINT('',(1.374623760071E1,9.724138160126E0,6.614173228346E-3));
#546=CARTESIAN_POINT('',(1.374755902909E1,9.724530625701E0,6.614173228346E-3));
#547=CARTESIAN_POINT('',(1.374903269443E1,9.725162918976E0,6.614173228346E-3));
#548=CARTESIAN_POINT('',(1.375060641255E1,9.726114683575E0,6.614173228346E-3));
#549=CARTESIAN_POINT('',(1.375196299734E1,9.727270261512E0,6.614173228346E-3));
#550=CARTESIAN_POINT('',(1.375309445046E1,9.728598265134E0,6.614173228346E-3));
#551=CARTESIAN_POINT('',(1.375399341250E1,9.730069328315E0,6.614173228346E-3));
#552=CARTESIAN_POINT('',(1.375462591611E1,9.731644589764E0,6.614173228346E-3));
#553=CARTESIAN_POINT('',(1.375508476918E1,9.733445306373E0,6.614173228346E-3));
#554=CARTESIAN_POINT('',(1.375509160454E1,9.734738399496E0,6.614173228346E-3));
#555=CARTESIAN_POINT('',(1.375512251137E1,9.735465045065E0,6.614173228346E-3));
#557=DRAUGHTING_PRE_DEFINED_CURVE_FONT('continuous');
#558=CURVE_STYLE('',#557,POSITIVE_LENGTH_MEASURE(2.E-2),#14);
#559=PRESENTATION_STYLE_ASSIGNMENT((#558));
#560=STYLED_ITEM('',(#559),#556);
#561=DIRECTION('',(0.E0,0.E0,-1.E0));
#562=VECTOR('',#561,1.E0);
#563=SURFACE_OF_LINEAR_EXTRUSION('',#556,#562);
#564=ORIENTED_EDGE('',*,*,#518,.T.);
#566=ORIENTED_EDGE('',*,*,#565,.F.);
#567=ORIENTED_EDGE('',*,*,#453,.T.);
#569=ORIENTED_EDGE('',*,*,#568,.T.);
#570=EDGE_LOOP('',(#564,#566,#567,#569));
#571=FACE_OUTER_BOUND('',#570,.F.);
#573=FILL_AREA_STYLE_COLOUR('',#14);
#574=FILL_AREA_STYLE('',(#573));
#575=SURFACE_STYLE_FILL_AREA(#574);
#576=SURFACE_SIDE_STYLE('',(#575));
#577=SURFACE_STYLE_USAGE(.BOTH.,#576);
#578=PRESENTATION_STYLE_ASSIGNMENT((#577));
#579=STYLED_ITEM('',(#578),#572);
#580=CARTESIAN_POINT('',(1.373544868828E1,9.723145034787E0,0.E0));
#581=DIRECTION('',(6.157521112213E-3,9.999810422872E-1,0.E0));
#582=DIRECTION('',(-9.999810422872E-1,6.157521112213E-3,0.E0));
#583=AXIS2_PLACEMENT_3D('',#580,#581,#582);
#584=PLANE('',#583);
#585=ORIENTED_EDGE('',*,*,#525,.F.);
#586=ORIENTED_EDGE('',*,*,#477,.T.);
#587=ORIENTED_EDGE('',*,*,#455,.T.);
#588=ORIENTED_EDGE('',*,*,#565,.T.);
#589=EDGE_LOOP('',(#585,#586,#587,#588));
#590=FACE_OUTER_BOUND('',#589,.F.);
#592=FILL_AREA_STYLE_COLOUR('',#14);
#593=FILL_AREA_STYLE('',(#592));
#594=SURFACE_STYLE_FILL_AREA(#593);
#595=SURFACE_SIDE_STYLE('',(#594));
#596=SURFACE_STYLE_USAGE(.BOTH.,#595);
#597=PRESENTATION_STYLE_ASSIGNMENT((#596));
#598=STYLED_ITEM('',(#597),#591);
#599=CARTESIAN_POINT('',(1.375512945378E1,9.734533962098E0,6.614173228346E-3));
#600=CARTESIAN_POINT('',(1.375508882747E1,9.735245060983E0,6.614173228346E-3));
#601=CARTESIAN_POINT('',(1.375506005560E1,9.736500146829E0,6.614173228346E-3));
#602=CARTESIAN_POINT('',(1.375463193506E1,9.738259616882E0,6.614173228346E-3));
#603=CARTESIAN_POINT('',(1.375397145666E1,9.739783591559E0,6.614173228346E-3));
#604=CARTESIAN_POINT('',(1.375306297427E1,9.741212203890E0,6.614173228346E-3));
#605=CARTESIAN_POINT('',(1.375195092940E1,9.742510102252E0,6.614173228346E-3));
#606=CARTESIAN_POINT('',(1.375064386521E1,9.743628777543E0,6.614173228346E-3));
#607=CARTESIAN_POINT('',(1.374916650770E1,9.744561313039E0,6.614173228346E-3));
#608=CARTESIAN_POINT('',(1.374777856998E1,9.745154156457E0,6.614173228346E-3));
#609=CARTESIAN_POINT('',(1.374653573287E1,9.745530531024E0,6.614173228346E-3));
#610=CARTESIAN_POINT('',(1.374544579427E1,9.745788280157E0,6.614173228346E-3));
#611=CARTESIAN_POINT('',(1.374420169417E1,9.745988985260E0,6.614173228346E-3));
#612=CARTESIAN_POINT('',(1.374281167006E1,9.746180801906E0,6.614173228346E-3));
#613=CARTESIAN_POINT('',(1.374126536329E1,9.746281367953E0,6.614173228346E-3));
#614=CARTESIAN_POINT('',(1.373957302238E1,9.746399051575E0,6.614173228346E-3));
#615=CARTESIAN_POINT('',(1.373757183442E1,9.746459968866E0,6.614173228346E-3));
#616=CARTESIAN_POINT('',(1.373613587542E1,9.746459153676E0,6.614173228346E-3));
#617=CARTESIAN_POINT('',(1.373531517593E1,9.746462084296E0,6.614173228346E-3));
#619=CURVE_STYLE('',#557,POSITIVE_LENGTH_MEASURE(2.E-2),#14);
#620=PRESENTATION_STYLE_ASSIGNMENT((#619));
#621=STYLED_ITEM('',(#620),#618);
#622=DIRECTION('',(0.E0,0.E0,-1.E0));
#623=VECTOR('',#622,1.E0);
#624=SURFACE_OF_LINEAR_EXTRUSION('',#618,#623);
#625=ORIENTED_EDGE('',*,*,#520,.T.);
#626=ORIENTED_EDGE('',*,*,#568,.F.);
#627=ORIENTED_EDGE('',*,*,#451,.T.);
#629=ORIENTED_EDGE('',*,*,#628,.F.);
#630=EDGE_LOOP('',(#625,#626,#627,#629));
#631=FACE_OUTER_BOUND('',#630,.F.);
#633=FILL_AREA_STYLE_COLOUR('',#14);
#634=FILL_AREA_STYLE('',(#633));
#635=SURFACE_STYLE_FILL_AREA(#634);
#636=SURFACE_SIDE_STYLE('',(#635));
#637=SURFACE_STYLE_USAGE(.BOTH.,#636);
#638=PRESENTATION_STYLE_ASSIGNMENT((#637));
#639=STYLED_ITEM('',(#638),#632);
#640=CARTESIAN_POINT('',(1.372317093846E1,9.746460663213E0,6.614173228346E-3));
#641=DIRECTION('',(0.E0,-1.E0,0.E0));
#642=DIRECTION('',(0.E0,0.E0,-1.E0));
#643=AXIS2_PLACEMENT_3D('',#640,#641,#642);
#644=PLANE('',#643);
#645=ORIENTED_EDGE('',*,*,#522,.F.);
#646=ORIENTED_EDGE('',*,*,#628,.T.);
#647=ORIENTED_EDGE('',*,*,#449,.T.);
#648=ORIENTED_EDGE('',*,*,#474,.T.);
#649=EDGE_LOOP('',(#645,#646,#647,#648));
#650=FACE_OUTER_BOUND('',#649,.F.);
#652=FILL_AREA_STYLE_COLOUR('',#14);
#653=FILL_AREA_STYLE('',(#652));
#654=SURFACE_STYLE_FILL_AREA(#653);
#655=SURFACE_SIDE_STYLE('',(#654));
#656=SURFACE_STYLE_USAGE(.BOTH.,#655);
#657=PRESENTATION_STYLE_ASSIGNMENT((#656));
#658=STYLED_ITEM('',(#657),#651);
#659=CARTESIAN_POINT('',(1.372905567909E1,9.755171065294E0,6.614173228346E-3));
#660=CARTESIAN_POINT('',(1.373029964602E1,9.755168107075E0,6.614173228346E-3));
#661=CARTESIAN_POINT('',(1.373254171458E1,9.755165403664E0,6.614173228346E-3));
#662=CARTESIAN_POINT('',(1.373569087668E1,9.755114947606E0,6.614173228346E-3));
#663=CARTESIAN_POINT('',(1.373841356414E1,9.755050607622E0,6.614173228346E-3));
#664=CARTESIAN_POINT('',(1.374086223855E1,9.754917890929E0,6.614173228346E-3));
#665=CARTESIAN_POINT('',(1.374304717847E1,9.754799256567E0,6.614173228346E-3));
#666=CARTESIAN_POINT('',(1.374495586261E1,9.754606673102E0,6.614173228346E-3));
#667=CARTESIAN_POINT('',(1.374675418187E1,9.754416200139E0,6.614173228346E-3));
#668=CARTESIAN_POINT('',(1.374789597251E1,9.754183163115E0,6.614173228346E-3));
#669=CARTESIAN_POINT('',(1.374850162937E1,9.754070275608E0,6.614173228346E-3));
#671=CURVE_STYLE('',#557,POSITIVE_LENGTH_MEASURE(2.E-2),#14);
#672=PRESENTATION_STYLE_ASSIGNMENT((#671));
#673=STYLED_ITEM('',(#672),#670);
#674=DIRECTION('',(0.E0,0.E0,-1.E0));
#675=VECTOR('',#674,1.E0);
#676=SURFACE_OF_LINEAR_EXTRUSION('',#670,#675);
#677=ORIENTED_EDGE('',*,*,#494,.F.);
#679=ORIENTED_EDGE('',*,*,#678,.F.);
#680=ORIENTED_EDGE('',*,*,#443,.T.);
#682=ORIENTED_EDGE('',*,*,#681,.T.);
#683=EDGE_LOOP('',(#677,#679,#680,#682));
#684=FACE_OUTER_BOUND('',#683,.F.);
#686=FILL_AREA_STYLE_COLOUR('',#14);
#687=FILL_AREA_STYLE('',(#686));
#688=SURFACE_STYLE_FILL_AREA(#687);
#689=SURFACE_SIDE_STYLE('',(#688));
#690=SURFACE_STYLE_USAGE(.BOTH.,#689);
#691=PRESENTATION_STYLE_ASSIGNMENT((#690));
#692=STYLED_ITEM('',(#691),#685);
#693=CARTESIAN_POINT('',(1.371252618978E1,9.755170002992E0,0.E0));
#694=DIRECTION('',(0.E0,1.E0,0.E0));
#695=DIRECTION('',(0.E0,0.E0,1.E0));
#696=AXIS2_PLACEMENT_3D('',#693,#694,#695);
#697=PLANE('',#696);
#698=ORIENTED_EDGE('',*,*,#514,.F.);
#700=ORIENTED_EDGE('',*,*,#699,.T.);
#701=ORIENTED_EDGE('',*,*,#423,.T.);
#702=ORIENTED_EDGE('',*,*,#678,.T.);
#703=EDGE_LOOP('',(#698,#700,#701,#702));
#704=FACE_OUTER_BOUND('',#703,.F.);
#706=FILL_AREA_STYLE_COLOUR('',#14);
#707=FILL_AREA_STYLE('',(#706));
#708=SURFACE_STYLE_FILL_AREA(#707);
#709=SURFACE_SIDE_STYLE('',(#708));
#710=SURFACE_STYLE_USAGE(.BOTH.,#709);
#711=PRESENTATION_STYLE_ASSIGNMENT((#710));
#712=STYLED_ITEM('',(#711),#705);
#713=CARTESIAN_POINT('',(1.371252618978E1,9.679689058110E0,0.E0));
#714=DIRECTION('',(-1.E0,0.E0,0.E0));
#715=DIRECTION('',(0.E0,0.E0,1.E0));
#716=AXIS2_PLACEMENT_3D('',#713,#714,#715);
#717=PLANE('',#716);
#718=ORIENTED_EDGE('',*,*,#512,.F.);
#720=ORIENTED_EDGE('',*,*,#719,.F.);
#721=ORIENTED_EDGE('',*,*,#425,.T.);
#722=ORIENTED_EDGE('',*,*,#699,.F.);
#723=EDGE_LOOP('',(#718,#720,#721,#722));
#724=FACE_OUTER_BOUND('',#723,.F.);
#726=FILL_AREA_STYLE_COLOUR('',#14);
#727=FILL_AREA_STYLE('',(#726));
#728=SURFACE_STYLE_FILL_AREA(#727);
#729=SURFACE_SIDE_STYLE('',(#728));
#730=SURFACE_STYLE_USAGE(.BOTH.,#729);
#731=PRESENTATION_STYLE_ASSIGNMENT((#730));
#732=STYLED_ITEM('',(#731),#725);
#733=CARTESIAN_POINT('',(1.371252618978E1,9.679689058110E0,6.614173228346E-3));
#734=DIRECTION('',(0.E0,-1.E0,0.E0));
#735=DIRECTION('',(0.E0,0.E0,-1.E0));
#736=AXIS2_PLACEMENT_3D('',#733,#734,#735);
#737=PLANE('',#736);
#738=ORIENTED_EDGE('',*,*,#510,.F.);
#740=ORIENTED_EDGE('',*,*,#739,.F.);
#741=ORIENTED_EDGE('',*,*,#427,.T.);
#742=ORIENTED_EDGE('',*,*,#719,.T.);
#743=EDGE_LOOP('',(#738,#740,#741,#742));
#744=FACE_OUTER_BOUND('',#743,.F.);
#746=FILL_AREA_STYLE_COLOUR('',#14);
#747=FILL_AREA_STYLE('',(#746));
#748=SURFACE_STYLE_FILL_AREA(#747);
#749=SURFACE_SIDE_STYLE('',(#748));
#750=SURFACE_STYLE_USAGE(.BOTH.,#749);
#751=PRESENTATION_STYLE_ASSIGNMENT((#750));
#752=STYLED_ITEM('',(#751),#745);
#753=CARTESIAN_POINT('',(1.372317093846E1,9.679689058110E0,6.614173228346E-3));
#754=DIRECTION('',(1.E0,0.E0,0.E0));
#755=DIRECTION('',(0.E0,0.E0,-1.E0));
#756=AXIS2_PLACEMENT_3D('',#753,#754,#755);
#757=PLANE('',#756);
#758=ORIENTED_EDGE('',*,*,#508,.F.);
#760=ORIENTED_EDGE('',*,*,#759,.F.);
#761=ORIENTED_EDGE('',*,*,#429,.T.);
#762=ORIENTED_EDGE('',*,*,#739,.T.);
#763=EDGE_LOOP('',(#758,#760,#761,#762));
#764=FACE_OUTER_BOUND('',#763,.F.);
#766=FILL_AREA_STYLE_COLOUR('',#14);
#767=FILL_AREA_STYLE('',(#766));
#768=SURFACE_STYLE_FILL_AREA(#767);
#769=SURFACE_SIDE_STYLE('',(#768));
#770=SURFACE_STYLE_USAGE(.BOTH.,#769);
#771=PRESENTATION_STYLE_ASSIGNMENT((#770));
#772=STYLED_ITEM('',(#771),#765);
#773=CARTESIAN_POINT('',(1.372317093846E1,9.714526417276E0,6.614173228346E-3));
#774=DIRECTION('',(0.E0,-1.E0,0.E0));
#775=DIRECTION('',(0.E0,0.E0,-1.E0));
#776=AXIS2_PLACEMENT_3D('',#773,#774,#775);
#777=PLANE('',#776);
#778=ORIENTED_EDGE('',*,*,#506,.F.);
#780=ORIENTED_EDGE('',*,*,#779,.F.);
#781=ORIENTED_EDGE('',*,*,#431,.T.);
#782=ORIENTED_EDGE('',*,*,#759,.T.);
#783=EDGE_LOOP('',(#778,#780,#781,#782));
#784=FACE_OUTER_BOUND('',#783,.F.);
#786=FILL_AREA_STYLE_COLOUR('',#14);
#787=FILL_AREA_STYLE('',(#786));
#788=SURFACE_STYLE_FILL_AREA(#787);
#789=SURFACE_SIDE_STYLE('',(#788));
#790=SURFACE_STYLE_USAGE(.BOTH.,#789);
#791=PRESENTATION_STYLE_ASSIGNMENT((#790));
#792=STYLED_ITEM('',(#791),#785);
#793=CARTESIAN_POINT('',(1.372552971798E1,9.714526417276E0,0.E0));
#794=DIRECTION('',(-7.682212798536E-1,-6.401843993571E-1,0.E0));
#795=DIRECTION('',(6.401843993571E-1,-7.682212798536E-1,0.E0));
#796=AXIS2_PLACEMENT_3D('',#793,#794,#795);
#797=PLANE('',#796);
#798=ORIENTED_EDGE('',*,*,#504,.T.);
#800=ORIENTED_EDGE('',*,*,#799,.F.);
#801=ORIENTED_EDGE('',*,*,#433,.T.);
#802=ORIENTED_EDGE('',*,*,#779,.T.);
#803=EDGE_LOOP('',(#798,#800,#801,#802));
#804=FACE_OUTER_BOUND('',#803,.F.);
#806=FILL_AREA_STYLE_COLOUR('',#14);
#807=FILL_AREA_STYLE('',(#806));
#808=SURFACE_STYLE_FILL_AREA(#807);
#809=SURFACE_SIDE_STYLE('',(#808));
#810=SURFACE_STYLE_USAGE(.BOTH.,#809);
#811=PRESENTATION_STYLE_ASSIGNMENT((#810));
#812=STYLED_ITEM('',(#811),#805);
#813=CARTESIAN_POINT('',(1.375456085060E1,9.679689058110E0,6.614173228346E-3));
#814=DIRECTION('',(0.E0,-1.E0,0.E0));
#815=DIRECTION('',(0.E0,0.E0,-1.E0));
#816=AXIS2_PLACEMENT_3D('',#813,#814,#815);
#817=PLANE('',#816);
#818=ORIENTED_EDGE('',*,*,#502,.F.);
#820=ORIENTED_EDGE('',*,*,#819,.F.);
#821=ORIENTED_EDGE('',*,*,#435,.T.);
#822=ORIENTED_EDGE('',*,*,#799,.T.);
#823=EDGE_LOOP('',(#818,#820,#821,#822));
#824=FACE_OUTER_BOUND('',#823,.F.);
#826=FILL_AREA_STYLE_COLOUR('',#14);
#827=FILL_AREA_STYLE('',(#826));
#828=SURFACE_STYLE_FILL_AREA(#827);
#829=SURFACE_SIDE_STYLE('',(#828));
#830=SURFACE_STYLE_USAGE(.BOTH.,#829);
#831=PRESENTATION_STYLE_ASSIGNMENT((#830));
#832=STYLED_ITEM('',(#831),#825);
#833=CARTESIAN_POINT('',(1.376671763740E1,9.679689058110E0,0.E0));
#834=DIRECTION('',(7.683852707537E-1,6.399875590109E-1,0.E0));
#835=DIRECTION('',(-6.399875590109E-1,7.683852707537E-1,0.E0));
#836=AXIS2_PLACEMENT_3D('',#833,#834,#835);
#837=PLANE('',#836);
#838=ORIENTED_EDGE('',*,*,#500,.T.);
#840=ORIENTED_EDGE('',*,*,#839,.T.);
#841=ORIENTED_EDGE('',*,*,#437,.T.);
#842=ORIENTED_EDGE('',*,*,#819,.T.);
#843=EDGE_LOOP('',(#838,#840,#841,#842));
#844=FACE_OUTER_BOUND('',#843,.F.);
#846=FILL_AREA_STYLE_COLOUR('',#14);
#847=FILL_AREA_STYLE('',(#846));
#848=SURFACE_STYLE_FILL_AREA(#847);
#849=SURFACE_SIDE_STYLE('',(#848));
#850=SURFACE_STYLE_USAGE(.BOTH.,#849);
#851=PRESENTATION_STYLE_ASSIGNMENT((#850));
#852=STYLED_ITEM('',(#851),#845);
#853=CARTESIAN_POINT('',(1.376575615818E1,9.735434906738E0,6.614173228346E-3));
#854=CARTESIAN_POINT('',(1.376574501306E1,9.734790391116E0,6.614173228346E-3));
#855=CARTESIAN_POINT('',(1.376575302296E1,9.733666976022E0,6.614173228346E-3));
#856=CARTESIAN_POINT('',(1.376555079043E1,9.732084495449E0,6.614173228346E-3));
#857=CARTESIAN_POINT('',(1.376530070754E1,9.730688180646E0,6.614173228346E-3));
#858=CARTESIAN_POINT('',(1.376493872679E1,9.729326838E0,6.614173228346E-3));
#859=CARTESIAN_POINT('',(1.376446405904E1,9.728011315795E0,6.614173228346E-3));
#860=CARTESIAN_POINT('',(1.376390777792E1,9.726725032583E0,6.614173228346E-3));
#861=CARTESIAN_POINT('',(1.376321607373E1,9.725492149465E0,6.614173228346E-3));
#862=CARTESIAN_POINT('',(1.376245582691E1,9.724277827937E0,6.614173228346E-3));
#863=CARTESIAN_POINT('',(1.376157584839E1,9.723137522693E0,6.614173228346E-3));
#864=CARTESIAN_POINT('',(1.376061679328E1,9.722050474819E0,6.614173228346E-3));
#865=CARTESIAN_POINT('',(1.375955787019E1,9.721034906740E0,6.614173228346E-3));
#866=CARTESIAN_POINT('',(1.375839193672E1,9.720104761087E0,6.614173228346E-3));
#867=CARTESIAN_POINT('',(1.375714061636E1,9.719233671260E0,6.614173228346E-3));
#868=CARTESIAN_POINT('',(1.375579735058E1,9.718433698299E0,6.614173228346E-3));
#869=CARTESIAN_POINT('',(1.375435307230E1,9.717711513260E0,6.614173228346E-3));
#870=CARTESIAN_POINT('',(1.375228819786E1,9.716805689906E0,6.614173228346E-3));
#871=CARTESIAN_POINT('',(1.374946711167E1,9.715899679228E0,6.614173228346E-3));
#872=CARTESIAN_POINT('',(1.374582499465E1,9.715123123984E0,6.614173228346E-3));
#873=CARTESIAN_POINT('',(1.374171340587E1,9.714614324864E0,6.614173228346E-3));
#874=CARTESIAN_POINT('',(1.373881391689E1,9.714555841357E0,6.614173228346E-3));
#875=CARTESIAN_POINT('',(1.373723596340E1,9.714514363879E0,6.614173228346E-3));
#877=CURVE_STYLE('',#557,POSITIVE_LENGTH_MEASURE(2.E-2),#14);
#878=PRESENTATION_STYLE_ASSIGNMENT((#877));
#879=STYLED_ITEM('',(#878),#876);
#880=DIRECTION('',(0.E0,0.E0,-1.E0));
#881=VECTOR('',#880,1.E0);
#882=SURFACE_OF_LINEAR_EXTRUSION('',#876,#881);
#883=ORIENTED_EDGE('',*,*,#498,.T.);
#885=ORIENTED_EDGE('',*,*,#884,.F.);
#886=ORIENTED_EDGE('',*,*,#439,.T.);
#887=ORIENTED_EDGE('',*,*,#839,.F.);
#888=EDGE_LOOP('',(#883,#885,#886,#887));
#889=FACE_OUTER_BOUND('',#888,.F.);
#891=FILL_AREA_STYLE_COLOUR('',#14);
#892=FILL_AREA_STYLE('',(#891));
#893=SURFACE_STYLE_FILL_AREA(#892);
#894=SURFACE_SIDE_STYLE('',(#893));
#895=SURFACE_STYLE_USAGE(.BOTH.,#894);
#896=PRESENTATION_STYLE_ASSIGNMENT((#895));
#897=STYLED_ITEM('',(#896),#890);
#898=CARTESIAN_POINT('',(1.374758905275E1,9.754257075842E0,6.614173228346E-3));
#899=CARTESIAN_POINT('',(1.374840328865E1,9.754076361847E0,6.614173228346E-3));
#900=CARTESIAN_POINT('',(1.374985797921E1,9.753774731493E0,6.614173228346E-3));
#901=CARTESIAN_POINT('',(1.375187523406E1,9.753121556315E0,6.614173228346E-3));
#902=CARTESIAN_POINT('',(1.375364642055E1,9.752432554252E0,6.614173228346E-3));
#903=CARTESIAN_POINT('',(1.375531507706E1,9.751629336567E0,6.614173228346E-3));
#904=CARTESIAN_POINT('',(1.375688438126E1,9.750717420614E0,6.614173228346E-3));
#905=CARTESIAN_POINT('',(1.375834974255E1,9.749694603921E0,6.614173228346E-3));
#906=CARTESIAN_POINT('',(1.375970240608E1,9.748547138598E0,6.614173228346E-3));
#907=CARTESIAN_POINT('',(1.376095632633E1,9.747313415669E0,6.614173228346E-3));
#908=CARTESIAN_POINT('',(1.376208360420E1,9.745995766157E0,6.614173228346E-3));
#909=CARTESIAN_POINT('',(1.376306351490E1,9.744602143606E0,6.614173228346E-3));
#910=CARTESIAN_POINT('',(1.376389587548E1,9.743150670756E0,6.614173228346E-3));
#911=CARTESIAN_POINT('',(1.376458518548E1,9.741634846205E0,6.614173228346E-3));
#912=CARTESIAN_POINT('',(1.376509301154E1,9.740048342929E0,6.614173228346E-3));
#913=CARTESIAN_POINT('',(1.376547549066E1,9.738411177827E0,6.614173228346E-3));
#914=CARTESIAN_POINT('',(1.376572873666E1,9.736555511783E0,6.614173228346E-3));
#915=CARTESIAN_POINT('',(1.376574094272E1,9.735243936639E0,6.614173228346E-3));
#916=CARTESIAN_POINT('',(1.376576184684E1,9.734503529223E0,6.614173228346E-3));
#918=CURVE_STYLE('',#557,POSITIVE_LENGTH_MEASURE(2.E-2),#14);
#919=PRESENTATION_STYLE_ASSIGNMENT((#918));
#920=STYLED_ITEM('',(#919),#917);
#921=DIRECTION('',(0.E0,0.E0,-1.E0));
#922=VECTOR('',#921,1.E0);
#923=SURFACE_OF_LINEAR_EXTRUSION('',#917,#922);
#924=ORIENTED_EDGE('',*,*,#496,.T.);
#925=ORIENTED_EDGE('',*,*,#681,.F.);
#926=ORIENTED_EDGE('',*,*,#441,.T.);
#927=ORIENTED_EDGE('',*,*,#884,.T.);
#928=EDGE_LOOP('',(#924,#925,#926,#927));
#929=FACE_OUTER_BOUND('',#928,.F.);
#931=FILL_AREA_STYLE_COLOUR('',#14);
#932=FILL_AREA_STYLE('',(#931));
#933=SURFACE_STYLE_FILL_AREA(#932);
#934=SURFACE_SIDE_STYLE('',(#933));
#935=SURFACE_STYLE_USAGE(.BOTH.,#934);
#936=PRESENTATION_STYLE_ASSIGNMENT((#935));
#937=STYLED_ITEM('',(#936),#930);
#940=PRESENTATION_LAYER_ASSIGNMENT('SHELL_359','',(#459,#481,#529,#556,#572,
#591,#618,#632,#651,#670,#685,#705,#725,#745,#765,#785,#805,#825,#845,#876,#890,
#917,#930,#939));
#942=LENGTH_MEASURE_WITH_UNIT(LENGTH_MEASURE(2.54E1),#941);
#943=(CONVERSION_BASED_UNIT('INCH',#942)LENGTH_UNIT()NAMED_UNIT(*));
#945=PLANE_ANGLE_MEASURE_WITH_UNIT(PLANE_ANGLE_MEASURE(1.745329251994E-2),#944);
#946=(CONVERSION_BASED_UNIT('DEGREE',#945)NAMED_UNIT(*)PLANE_ANGLE_UNIT());
#948=UNCERTAINTY_MEASURE_WITH_UNIT(LENGTH_MEASURE(7.763373150455E-5),#943,
'closure',
'Maximum model space distance between geometric entities at asserted connectivities');
#950=CARTESIAN_POINT('',(0.E0,0.E0,0.E0));
#951=DIRECTION('',(0.E0,0.E0,1.E0));
#952=DIRECTION('',(1.E0,0.E0,0.E0));
#955=MECHANICAL_DESIGN_GEOMETRIC_PRESENTATION_REPRESENTATION('',(#466,#488,#536,
#560,#579,#598,#621,#639,#658,#673,#692,#712,#732,#752,#772,#792,#812,#832,#852,
#879,#897,#920,#937),#949);
#956=APPLICATION_CONTEXT('automotive design');
#957=APPLICATION_PROTOCOL_DEFINITION('international standard',
'config_control_design',1994,#956);
#958=PRODUCT_DEFINITION_CONTEXT('',#956,'design');
#959=PRODUCT_CONTEXT('',#956,'mechanical');
#960=PRODUCT('NO_10LOGO-280','NO_10LOGO-280','NOT SPECIFIED',(#959));
#961=PRODUCT_DEFINITION_FORMATION_WITH_SPECIFIED_SOURCE('1','LAST_VERSION',#960,
.MADE.);
#969=LENGTH_MEASURE_WITH_UNIT(LENGTH_MEASURE(2.54E1),#968);
#970=(CONVERSION_BASED_UNIT('INCH',#969)LENGTH_UNIT()NAMED_UNIT(*));
#971=DERIVED_UNIT_ELEMENT(#970,2.E0);
#972=AREA_UNIT((#971));
#973=MEASURE_REPRESENTATION_ITEM('surface area measure',AREA_MEASURE(
4.500511939195E-6),#972);
#978=LENGTH_MEASURE_WITH_UNIT(LENGTH_MEASURE(2.54E1),#977);
#979=(CONVERSION_BASED_UNIT('INCH',#978)LENGTH_UNIT()NAMED_UNIT(*));
#980=DERIVED_UNIT_ELEMENT(#979,2.E0);
#981=AREA_UNIT((#980));
#982=MEASURE_REPRESENTATION_ITEM('surface area measure',AREA_MEASURE(
4.500511939195E-6),#981);
#1=DRAUGHTING_PRE_DEFINED_COLOUR('green');
#2=COLOUR_RGB('',1.1E-2,1.2E-2,1.E0);
#3=COLOUR_RGB('',2.352941176471E-1,2.352941176471E-1,2.352941176471E-1);
#4=COLOUR_RGB('',4.1E-1,2.61589E-1,1.12848E-1);
#5=COLOUR_RGB('',5.04854E-1,1.5455E-2,1.5455E-2);
#6=COLOUR_RGB('',6.35294E-1,6.86275E-1,7.4902E-1);
#7=COLOUR_RGB('',6.40777E-1,6.40777E-1,6.40777E-1);
#8=COLOUR_RGB('',6.69062E-1,6.69903E-1,6.55217E-1);
#9=COLOUR_RGB('',9.21569E-1,7.05882E-1,4.70588E-1);
#10=DRAUGHTING_PRE_DEFINED_COLOUR('red');
#11=DRAUGHTING_PRE_DEFINED_COLOUR('yellow');
#12=COLOUR_RGB('',1.E0,1.E0,5.3E-1);
#13=COLOUR_RGB('',1.E0,1.E0,9.49E-1);
#14=DRAUGHTING_PRE_DEFINED_COLOUR('white');
#42=B_SPLINE_CURVE_WITH_KNOTS('',3,(#23,#24,#25,#26,#27,#28,#29,#30,#31,#32,#33,
#34,#35,#36,#37,#38,#39,#40,#41),.UNSPECIFIED.,.F.,.F.,(4,1,1,1,1,1,1,1,1,1,1,1,
1,1,1,1,4),(0.E0,6.5666683E-2,1.29307478E-1,1.94073087E-1,2.60925841E-1,
3.28429392E-1,3.95093898E-1,4.63270597E-1,5.33895701E-1,5.72477867E-1,
6.16494451E-1,6.65988918E-1,7.21190908E-1,7.82065415E-1,8.48833391E-1,
9.21460162E-1,1.E0),.UNSPECIFIED.);
#62=B_SPLINE_CURVE_WITH_KNOTS('',3,(#43,#44,#45,#46,#47,#48,#49,#50,#51,#52,#53,
#54,#55,#56,#57,#58,#59,#60,#61),.UNSPECIFIED.,.F.,.F.,(4,1,1,1,1,1,1,1,1,1,1,1,
1,1,1,1,4),(0.E0,7.5075667E-2,1.45531829E-1,2.10258205E-1,2.69903171E-1,
3.24474556E-1,3.74705875E-1,4.19592652E-1,4.59727106E-1,5.33773933E-1,
6.04039962E-1,6.71329246E-1,7.38618529E-1,8.04691357E-1,8.69425581E-1,
9.34073421E-1,1.E0),.UNSPECIFIED.);
#122=B_SPLINE_CURVE_WITH_KNOTS('',3,(#99,#100,#101,#102,#103,#104,#105,#106,
#107,#108,#109,#110,#111,#112,#113,#114,#115,#116,#117,#118,#119,#120,#121),
.UNSPECIFIED.,.F.,.F.,(4,1,1,1,1,1,1,1,1,1,1,1,1,1,1,1,1,1,1,1,4),(0.E0,
3.764990300001E-2,7.436678700001E-2,1.1066314E-1,1.46799491E-1,1.826305E-1,
2.18240295E-1,2.54528354E-1,2.9133531E-1,3.28425377E-1,3.6525073E-1,
4.02842623E-1,4.41195546E-1,4.7993892E-1,5.20125809E-1,5.61419177E-1,
6.04159736E-1,6.93596429E-1,7.8886674E-1,8.90496883E-1,1.E0),.UNSPECIFIED.);
#142=B_SPLINE_CURVE_WITH_KNOTS('',3,(#123,#124,#125,#126,#127,#128,#129,#130,
#131,#132,#133,#134,#135,#136,#137,#138,#139,#140,#141),.UNSPECIFIED.,.F.,.F.,
(4,1,1,1,1,1,1,1,1,1,1,1,1,1,1,1,4),(0.E0,7.165287999997E-2,1.40334054E-1,
2.07249725E-1,2.72240968E-1,3.35688151E-1,3.98741165E-1,4.60690425E-1,
5.227927E-1,5.84335897E-1,6.4355179E-1,7.02441449E-1,7.60809223E-1,
8.19048227E-1,8.78053233E-1,9.38199549E-1,1.E0),.UNSPECIFIED.);
#154=B_SPLINE_CURVE_WITH_KNOTS('',3,(#143,#144,#145,#146,#147,#148,#149,#150,
#151,#152,#153),.UNSPECIFIED.,.F.,.F.,(4,1,1,1,1,1,1,1,4),(0.E0,1.75850497E-1,
3.37063561E-1,4.83660596E-1,6.1570777E-1,7.33168925E-1,8.37021916E-1,
9.255809E-1,1.E0),.UNSPECIFIED.);
#186=B_SPLINE_CURVE_WITH_KNOTS('',3,(#167,#168,#169,#170,#171,#172,#173,#174,
#175,#176,#177,#178,#179,#180,#181,#182,#183,#184,#185),.UNSPECIFIED.,.F.,.F.,
(4,1,1,1,1,1,1,1,1,1,1,1,1,1,1,1,4),(0.E0,6.592657900004E-2,1.30574419E-1,
1.95308643E-1,2.61381471E-1,3.28670754E-1,3.95960038E-1,4.66226067E-1,
5.40272894E-1,5.80407348E-1,6.25294125E-1,6.75525444E-1,7.30096829E-1,
7.89741795E-1,8.54468171E-1,9.24924333E-1,1.E0),.UNSPECIFIED.);
#206=B_SPLINE_CURVE_WITH_KNOTS('',3,(#187,#188,#189,#190,#191,#192,#193,#194,
#195,#196,#197,#198,#199,#200,#201,#202,#203,#204,#205),.UNSPECIFIED.,.F.,.F.,
(4,1,1,1,1,1,1,1,1,1,1,1,1,1,1,1,4),(0.E0,7.8539838E-2,1.51166609E-1,
2.17934585E-1,2.78809092E-1,3.34011082E-1,3.83505549E-1,4.27522133E-1,
4.66104299E-1,5.36729403E-1,6.04906102E-1,6.71570608E-1,7.39074159E-1,
8.05926913E-1,8.70692522E-1,9.34333317E-1,1.E0),.UNSPECIFIED.);
#218=B_SPLINE_CURVE_WITH_KNOTS('',3,(#207,#208,#209,#210,#211,#212,#213,#214,
#215,#216,#217),.UNSPECIFIED.,.F.,.F.,(4,1,1,1,1,1,1,1,4),(0.E0,1.75850497E-1,
3.37063561E-1,4.83660596E-1,6.1570777E-1,7.33168925E-1,8.37021916E-1,
9.255809E-1,1.E0),.UNSPECIFIED.);
#238=B_SPLINE_CURVE_WITH_KNOTS('',3,(#219,#220,#221,#222,#223,#224,#225,#226,
#227,#228,#229,#230,#231,#232,#233,#234,#235,#236,#237),.UNSPECIFIED.,.F.,.F.,
(4,1,1,1,1,1,1,1,1,1,1,1,1,1,1,1,4),(0.E0,6.1800451E-2,1.21946767E-1,
1.80951773E-1,2.39190777E-1,2.97558551E-1,3.5644821E-1,4.15664103E-1,
4.772073E-1,5.39309575E-1,6.01258835E-1,6.64311849E-1,7.27759032E-1,
7.92750275E-1,8.59665946E-1,9.2834712E-1,1.E0),.UNSPECIFIED.);
#262=B_SPLINE_CURVE_WITH_KNOTS('',3,(#239,#240,#241,#242,#243,#244,#245,#246,
#247,#248,#249,#250,#251,#252,#253,#254,#255,#256,#257,#258,#259,#260,#261),
.UNSPECIFIED.,.F.,.F.,(4,1,1,1,1,1,1,1,1,1,1,1,1,1,1,1,1,1,1,1,4),(0.E0,
1.09503117E-1,2.1113326E-1,3.06403571E-1,3.95840264E-1,4.38580823E-1,
4.79874191E-1,5.2006108E-1,5.58804454E-1,5.97157377E-1,6.3474927E-1,
6.71574623E-1,7.0866469E-1,7.45471646E-1,7.81759705E-1,8.173695E-1,
8.53200509E-1,8.8933686E-1,9.25633213E-1,9.62350097E-1,1.E0),.UNSPECIFIED.);
#423=EDGE_CURVE('',#373,#389,#70,.T.);
#425=EDGE_CURVE('',#372,#373,#74,.T.);
#427=EDGE_CURVE('',#417,#372,#78,.T.);
#429=EDGE_CURVE('',#415,#417,#82,.T.);
#431=EDGE_CURVE('',#411,#415,#86,.T.);
#433=EDGE_CURVE('',#409,#411,#90,.T.);
#435=EDGE_CURVE('',#369,#409,#94,.T.);
#437=EDGE_CURVE('',#364,#369,#98,.T.);
#439=EDGE_CURVE('',#363,#364,#122,.T.);
#441=EDGE_CURVE('',#399,#363,#142,.T.);
#443=EDGE_CURVE('',#389,#399,#154,.T.);
#447=EDGE_CURVE('',#377,#379,#18,.T.);
#449=EDGE_CURVE('',#376,#377,#22,.T.);
#451=EDGE_CURVE('',#397,#376,#42,.T.);
#453=EDGE_CURVE('',#367,#397,#62,.T.);
#455=EDGE_CURVE('',#379,#367,#66,.T.);
#459=ADVANCED_FACE('',(#446,#458),#422,.F.);
#472=EDGE_CURVE('',#392,#361,#158,.T.);
#474=EDGE_CURVE('',#377,#392,#162,.T.);
#477=EDGE_CURVE('',#361,#379,#166,.T.);
#481=ADVANCED_FACE('',(#480),#471,.T.);
#494=EDGE_CURVE('',#387,#390,#218,.T.);
#496=EDGE_CURVE('',#395,#390,#238,.T.);
#498=EDGE_CURVE('',#401,#395,#262,.T.);
#500=EDGE_CURVE('',#403,#401,#266,.T.);
#502=EDGE_CURVE('',#403,#405,#342,.T.);
#504=EDGE_CURVE('',#407,#405,#270,.T.);
#506=EDGE_CURVE('',#407,#413,#330,.T.);
#508=EDGE_CURVE('',#413,#385,#322,.T.);
#510=EDGE_CURVE('',#385,#382,#314,.T.);
#512=EDGE_CURVE('',#382,#383,#302,.T.);
#514=EDGE_CURVE('',#383,#387,#298,.T.);
#518=EDGE_CURVE('',#365,#362,#186,.T.);
#520=EDGE_CURVE('',#394,#365,#206,.T.);
#522=EDGE_CURVE('',#394,#392,#290,.T.);
#525=EDGE_CURVE('',#361,#362,#278,.T.);
#529=ADVANCED_FACE('',(#517,#528),#493,.T.);
#556=B_SPLINE_CURVE_WITH_KNOTS('',3,(#537,#538,#539,#540,#541,#542,#543,#544,
#545,#546,#547,#548,#549,#550,#551,#552,#553,#554,#555),.UNSPECIFIED.,.F.,.F.,
(4,1,1,1,1,1,1,1,1,1,1,1,1,1,1,1,4),(0.E0,8.979566376465E-2,1.578147798248E-1,
2.203023005231E-1,2.778841748347E-1,3.305679609580E-1,3.790618019497E-1,
4.223959661685E-1,4.611421880339E-1,5.326277696584E-1,6.004633293308E-1,
6.654251082310E-1,7.303868861658E-1,7.941742857144E-1,8.566693829540E-1,
9.190810841761E-1,1.E0),.UNSPECIFIED.);
#565=EDGE_CURVE('',#367,#362,#274,.T.);
#568=EDGE_CURVE('',#397,#365,#282,.T.);
#572=ADVANCED_FACE('',(#571),#563,.T.);
#591=ADVANCED_FACE('',(#590),#584,.T.);
#618=B_SPLINE_CURVE_WITH_KNOTS('',3,(#599,#600,#601,#602,#603,#604,#605,#606,
#607,#608,#609,#610,#611,#612,#613,#614,#615,#616,#617),.UNSPECIFIED.,.F.,.F.,
(4,1,1,1,1,1,1,1,1,1,1,1,1,1,1,1,4),(0.E0,8.100922790462E-2,1.423997390456E-1,
2.048752917295E-1,2.693641897586E-1,3.344808731647E-1,3.987881794813E-1,
4.645542089522E-1,5.326820699248E-1,5.699000036679E-1,6.123601990573E-1,
6.601045842081E-1,7.133546792470E-1,7.720767159561E-1,8.364838336625E-1,
9.065425844089E-1,1.E0),.UNSPECIFIED.);
#628=EDGE_CURVE('',#394,#376,#286,.T.);
#632=ADVANCED_FACE('',(#631),#624,.T.);
#651=ADVANCED_FACE('',(#650),#644,.T.);
#670=B_SPLINE_CURVE_WITH_KNOTS('',3,(#659,#660,#661,#662,#663,#664,#665,#666,
#667,#668,#669),.UNSPECIFIED.,.F.,.F.,(4,1,1,1,1,1,1,1,4),(0.E0,
1.913351962714E-1,3.448493589097E-1,4.844454965607E-1,6.101866173011E-1,
7.220382898948E-1,8.209316708360E-1,9.052614263505E-1,1.E0),.UNSPECIFIED.);
#678=EDGE_CURVE('',#389,#387,#294,.T.);
#681=EDGE_CURVE('',#399,#390,#358,.T.);
#685=ADVANCED_FACE('',(#684),#676,.T.);
#699=EDGE_CURVE('',#383,#373,#310,.T.);
#705=ADVANCED_FACE('',(#704),#697,.T.);
#719=EDGE_CURVE('',#372,#382,#306,.T.);
#725=ADVANCED_FACE('',(#724),#717,.T.);
#739=EDGE_CURVE('',#417,#385,#318,.T.);
#745=ADVANCED_FACE('',(#744),#737,.T.);
#759=EDGE_CURVE('',#415,#413,#326,.T.);
#765=ADVANCED_FACE('',(#764),#757,.T.);
#779=EDGE_CURVE('',#411,#407,#334,.T.);
#785=ADVANCED_FACE('',(#784),#777,.T.);
#799=EDGE_CURVE('',#409,#405,#338,.T.);
#805=ADVANCED_FACE('',(#804),#797,.T.);
#819=EDGE_CURVE('',#369,#403,#346,.T.);
#825=ADVANCED_FACE('',(#824),#817,.T.);
#839=EDGE_CURVE('',#401,#364,#354,.T.);
#845=ADVANCED_FACE('',(#844),#837,.T.);
#876=B_SPLINE_CURVE_WITH_KNOTS('',3,(#853,#854,#855,#856,#857,#858,#859,#860,
#861,#862,#863,#864,#865,#866,#867,#868,#869,#870,#871,#872,#873,#874,#875),
.UNSPECIFIED.,.F.,.F.,(4,1,1,1,1,1,1,1,1,1,1,1,1,1,1,1,1,1,1,1,4),(0.E0,
4.843519951580E-2,8.429542389029E-2,1.197449288798E-1,1.550381649543E-1,
1.900331831129E-1,2.248121485237E-1,2.602535530245E-1,2.962017478850E-1,
3.324264483439E-1,3.683926109750E-1,4.051074290854E-1,4.425655212317E-1,
4.804049545743E-1,5.196542235605E-1,5.599841557426E-1,6.017275138019E-1,
6.890775154603E-1,7.821250281165E-1,8.813839884137E-1,1.E0),.UNSPECIFIED.);
#884=EDGE_CURVE('',#363,#395,#350,.T.);
#890=ADVANCED_FACE('',(#889),#882,.T.);
#917=B_SPLINE_CURVE_WITH_KNOTS('',3,(#898,#899,#900,#901,#902,#903,#904,#905,
#906,#907,#908,#909,#910,#911,#912,#913,#914,#915,#916),.UNSPECIFIED.,.F.,.F.,
(4,1,1,1,1,1,1,1,1,1,1,1,1,1,1,1,4),(0.E0,8.524762241013E-2,1.517490717365E-1,
2.165410495811E-1,2.794696747240E-1,3.409032434801E-1,4.019551529218E-1,
4.619383380475E-1,5.220696819580E-1,5.816596912475E-1,6.389962578539E-1,
6.960169441025E-1,7.525323083412E-1,8.089229893352E-1,8.660553618324E-1,
9.242928227360E-1,1.E0),.UNSPECIFIED.);
#930=ADVANCED_FACE('',(#929),#923,.T.);
#938=CLOSED_SHELL('',(#459,#481,#529,#572,#591,#632,#651,#685,#705,#725,#745,
#765,#785,#805,#825,#845,#890,#930));
#939=MANIFOLD_SOLID_BREP('',#938);
#941=(LENGTH_UNIT()NAMED_UNIT(*)SI_UNIT(.MILLI.,.METRE.));
#944=(NAMED_UNIT(*)PLANE_ANGLE_UNIT()SI_UNIT($,.RADIAN.));
#947=(NAMED_UNIT(*)SI_UNIT($,.STERADIAN.)SOLID_ANGLE_UNIT());
#949=(GEOMETRIC_REPRESENTATION_CONTEXT(3)GLOBAL_UNCERTAINTY_ASSIGNED_CONTEXT((
#948))GLOBAL_UNIT_ASSIGNED_CONTEXT((#943,#946,#947))REPRESENTATION_CONTEXT
('ID1','3'));
#953=AXIS2_PLACEMENT_3D('',#950,#951,#952);
#954=ADVANCED_BREP_SHAPE_REPRESENTATION('',(#953,#939),#949);
#962=PRODUCT_DEFINITION('design','',#961,#958);
#963=PRODUCT_DEFINITION_SHAPE('','SHAPE FOR NO_10LOGO-280.',#962);
#964=SHAPE_ASPECT('','solid data associated with NO_10LOGO-280',#963,.F.);
#965=PROPERTY_DEFINITION('',
'shape for solid data with which properties are associated',#964);
#966=SHAPE_REPRESENTATION('',(#939),#949);
#967=SHAPE_DEFINITION_REPRESENTATION(#965,#966);
#968=(LENGTH_UNIT()NAMED_UNIT(*)SI_UNIT(.MILLI.,.METRE.));
#974=PROPERTY_DEFINITION('geometric validation property',
'area of NO_10LOGO-280',#964);
#975=REPRESENTATION('surface area',(#973),#949);
#976=PROPERTY_DEFINITION_REPRESENTATION(#974,#975);
#977=(LENGTH_UNIT()NAMED_UNIT(*)SI_UNIT(.MILLI.,.METRE.));
#983=PROPERTY_DEFINITION('geometric validation property',
'area of NO_10LOGO-280',#963);
#984=REPRESENTATION('surface area',(#982),#949);
#985=PROPERTY_DEFINITION_REPRESENTATION(#983,#984);
#986=SHAPE_DEFINITION_REPRESENTATION(#963,#954);
ENDSEC;
END-ISO-10303-21;
