ISO-10303-21;
HEADER;
FILE_DESCRIPTION((''),'2;1');
FILE_NAME('NO_10LOGO-12','2026-06-15T13:45:41',('Esia'),(''),
'CREO PARAMETRIC BY PTC INC, 2025102','CREO PARAMETRIC BY PTC INC, 2025102','');
FILE_SCHEMA((
'AP242_MANAGED_MODEL_BASED_3D_ENGINEERING_MIM_LF { 1 0 10303 442 1 1 4 }'));
ENDSEC;
DATA;
#15=DIRECTION('',(-1.E0,0.E0,0.E0));
#16=VECTOR('',#15,1.064474862992E-2);
#17=CARTESIAN_POINT('',(1.367865653504E1,9.735815914583E0,6.614173228346E-3));
#18=LINE('',#17,#16);
#19=DIRECTION('',(0.E0,-1.E0,0.E0));
#20=VECTOR('',#19,2.128949725984E-2);
#21=CARTESIAN_POINT('',(1.367865653504E1,9.757105411843E0,6.614173228346E-3));
#22=LINE('',#21,#20);
#23=DIRECTION('',(-1.E0,0.E0,0.E0));
#24=VECTOR('',#23,1.064474862992E-2);
#25=CARTESIAN_POINT('',(1.368930128367E1,9.757105411843E0,6.614173228346E-3));
#26=LINE('',#25,#24);
#27=DIRECTION('',(0.E0,1.E0,0.E0));
#28=VECTOR('',#27,2.128949725984E-2);
#29=CARTESIAN_POINT('',(1.368930128367E1,9.735815914583E0,6.614173228346E-3));
#30=LINE('',#29,#28);
#31=DIRECTION('',(-1.E0,0.E0,0.E0));
#32=VECTOR('',#31,1.064474862992E-2);
#33=CARTESIAN_POINT('',(1.369994603230E1,9.735815914583E0,6.614173228346E-3));
#34=LINE('',#33,#32);
#35=DIRECTION('',(0.E0,1.E0,0.E0));
#36=VECTOR('',#35,8.709339826769E-3);
#37=CARTESIAN_POINT('',(1.369994603230E1,9.727106574756E0,6.614173228346E-3));
#38=LINE('',#37,#36);
#39=DIRECTION('',(1.E0,0.E0,0.E0));
#40=VECTOR('',#39,1.064474862992E-2);
#41=CARTESIAN_POINT('',(1.368930128367E1,9.727106574756E0,6.614173228346E-3));
#42=LINE('',#41,#40);
#43=DIRECTION('',(0.E0,1.E0,0.E0));
#44=VECTOR('',#43,4.741751664567E-2);
#45=CARTESIAN_POINT('',(1.368930128367E1,9.679689058110E0,6.614173228346E-3));
#46=LINE('',#45,#44);
#47=DIRECTION('',(1.E0,0.E0,0.E0));
#48=VECTOR('',#47,1.064474862992E-2);
#49=CARTESIAN_POINT('',(1.367865653504E1,9.679689058110E0,6.614173228346E-3));
#50=LINE('',#49,#48);
#51=DIRECTION('',(0.E0,-1.E0,0.E0));
#52=VECTOR('',#51,4.741751664567E-2);
#53=CARTESIAN_POINT('',(1.367865653504E1,9.727106574756E0,6.614173228346E-3));
#54=LINE('',#53,#52);
#55=DIRECTION('',(1.E0,0.E0,0.E0));
#56=VECTOR('',#55,1.064474862992E-2);
#57=CARTESIAN_POINT('',(1.366801178641E1,9.727106574756E0,6.614173228346E-3));
#58=LINE('',#57,#56);
#59=DIRECTION('',(0.E0,-1.E0,0.E0));
#60=VECTOR('',#59,8.709339826769E-3);
#61=CARTESIAN_POINT('',(1.366801178641E1,9.735815914583E0,6.614173228346E-3));
#62=LINE('',#61,#60);
#63=DIRECTION('',(-1.E0,0.E0,0.E0));
#64=VECTOR('',#63,1.064474862992E-2);
#65=CARTESIAN_POINT('',(1.367865653504E1,9.735815914583E0,0.E0));
#66=LINE('',#65,#64);
#67=DIRECTION('',(0.E0,-1.E0,0.E0));
#68=VECTOR('',#67,8.709339826769E-3);
#69=CARTESIAN_POINT('',(1.366801178641E1,9.735815914583E0,0.E0));
#70=LINE('',#69,#68);
#71=DIRECTION('',(0.E0,0.E0,-1.E0));
#72=VECTOR('',#71,6.614173228346E-3);
#73=CARTESIAN_POINT('',(1.366801178641E1,9.735815914583E0,6.614173228346E-3));
#74=LINE('',#73,#72);
#75=DIRECTION('',(1.E0,0.E0,0.E0));
#76=VECTOR('',#75,1.064474862992E-2);
#77=CARTESIAN_POINT('',(1.366801178641E1,9.727106574756E0,0.E0));
#78=LINE('',#77,#76);
#79=DIRECTION('',(0.E0,0.E0,-1.E0));
#80=VECTOR('',#79,6.614173228346E-3);
#81=CARTESIAN_POINT('',(1.366801178641E1,9.727106574756E0,6.614173228346E-3));
#82=LINE('',#81,#80);
#83=DIRECTION('',(0.E0,-1.E0,0.E0));
#84=VECTOR('',#83,4.741751664567E-2);
#85=CARTESIAN_POINT('',(1.367865653504E1,9.727106574756E0,0.E0));
#86=LINE('',#85,#84);
#87=DIRECTION('',(0.E0,0.E0,-1.E0));
#88=VECTOR('',#87,6.614173228346E-3);
#89=CARTESIAN_POINT('',(1.367865653504E1,9.727106574756E0,6.614173228346E-3));
#90=LINE('',#89,#88);
#91=DIRECTION('',(1.E0,0.E0,0.E0));
#92=VECTOR('',#91,1.064474862992E-2);
#93=CARTESIAN_POINT('',(1.367865653504E1,9.679689058110E0,0.E0));
#94=LINE('',#93,#92);
#95=DIRECTION('',(0.E0,0.E0,-1.E0));
#96=VECTOR('',#95,6.614173228346E-3);
#97=CARTESIAN_POINT('',(1.367865653504E1,9.679689058110E0,6.614173228346E-3));
#98=LINE('',#97,#96);
#99=DIRECTION('',(0.E0,1.E0,0.E0));
#100=VECTOR('',#99,4.741751664567E-2);
#101=CARTESIAN_POINT('',(1.368930128367E1,9.679689058110E0,0.E0));
#102=LINE('',#101,#100);
#103=DIRECTION('',(0.E0,0.E0,-1.E0));
#104=VECTOR('',#103,6.614173228346E-3);
#105=CARTESIAN_POINT('',(1.368930128367E1,9.679689058110E0,6.614173228346E-3));
#106=LINE('',#105,#104);
#107=DIRECTION('',(1.E0,0.E0,0.E0));
#108=VECTOR('',#107,1.064474862992E-2);
#109=CARTESIAN_POINT('',(1.368930128367E1,9.727106574756E0,0.E0));
#110=LINE('',#109,#108);
#111=DIRECTION('',(0.E0,0.E0,-1.E0));
#112=VECTOR('',#111,6.614173228346E-3);
#113=CARTESIAN_POINT('',(1.368930128367E1,9.727106574756E0,6.614173228346E-3));
#114=LINE('',#113,#112);
#115=DIRECTION('',(0.E0,1.E0,0.E0));
#116=VECTOR('',#115,8.709339826769E-3);
#117=CARTESIAN_POINT('',(1.369994603230E1,9.727106574756E0,0.E0));
#118=LINE('',#117,#116);
#119=DIRECTION('',(0.E0,0.E0,-1.E0));
#120=VECTOR('',#119,6.614173228346E-3);
#121=CARTESIAN_POINT('',(1.369994603230E1,9.727106574756E0,6.614173228346E-3));
#122=LINE('',#121,#120);
#123=DIRECTION('',(-1.E0,0.E0,0.E0));
#124=VECTOR('',#123,1.064474862992E-2);
#125=CARTESIAN_POINT('',(1.369994603230E1,9.735815914583E0,0.E0));
#126=LINE('',#125,#124);
#127=DIRECTION('',(0.E0,0.E0,-1.E0));
#128=VECTOR('',#127,6.614173228346E-3);
#129=CARTESIAN_POINT('',(1.369994603230E1,9.735815914583E0,6.614173228346E-3));
#130=LINE('',#129,#128);
#131=DIRECTION('',(0.E0,1.E0,0.E0));
#132=VECTOR('',#131,2.128949725984E-2);
#133=CARTESIAN_POINT('',(1.368930128367E1,9.735815914583E0,0.E0));
#134=LINE('',#133,#132);
#135=DIRECTION('',(0.E0,0.E0,-1.E0));
#136=VECTOR('',#135,6.614173228346E-3);
#137=CARTESIAN_POINT('',(1.368930128367E1,9.735815914583E0,6.614173228346E-3));
#138=LINE('',#137,#136);
#139=DIRECTION('',(-1.E0,0.E0,0.E0));
#140=VECTOR('',#139,1.064474862992E-2);
#141=CARTESIAN_POINT('',(1.368930128367E1,9.757105411843E0,0.E0));
#142=LINE('',#141,#140);
#143=DIRECTION('',(0.E0,0.E0,-1.E0));
#144=VECTOR('',#143,6.614173228346E-3);
#145=CARTESIAN_POINT('',(1.368930128367E1,9.757105411843E0,6.614173228346E-3));
#146=LINE('',#145,#144);
#147=DIRECTION('',(0.E0,0.E0,1.E0));
#148=VECTOR('',#147,6.614173228346E-3);
#149=CARTESIAN_POINT('',(1.367865653504E1,9.735815914583E0,0.E0));
#150=LINE('',#149,#148);
#151=DIRECTION('',(0.E0,-1.E0,0.E0));
#152=VECTOR('',#151,2.128949725984E-2);
#153=CARTESIAN_POINT('',(1.367865653504E1,9.757105411843E0,0.E0));
#154=LINE('',#153,#152);
#155=DIRECTION('',(0.E0,0.E0,-1.E0));
#156=VECTOR('',#155,6.614173228346E-3);
#157=CARTESIAN_POINT('',(1.367865653504E1,9.757105411843E0,6.614173228346E-3));
#158=LINE('',#157,#156);
#159=CARTESIAN_POINT('',(1.367865653504E1,9.735815914583E0,0.E0));
#160=CARTESIAN_POINT('',(1.366801178641E1,9.735815914583E0,0.E0));
#161=VERTEX_POINT('',#159);
#162=VERTEX_POINT('',#160);
#163=CARTESIAN_POINT('',(1.367865653504E1,9.757105411843E0,6.614173228346E-3));
#164=CARTESIAN_POINT('',(1.367865653504E1,9.735815914583E0,6.614173228346E-3));
#165=VERTEX_POINT('',#163);
#166=VERTEX_POINT('',#164);
#167=CARTESIAN_POINT('',(1.366801178641E1,9.727106574756E0,0.E0));
#168=VERTEX_POINT('',#167);
#169=CARTESIAN_POINT('',(1.366801178641E1,9.735815914583E0,6.614173228346E-3));
#170=VERTEX_POINT('',#169);
#171=CARTESIAN_POINT('',(1.368930128367E1,9.757105411843E0,6.614173228346E-3));
#172=VERTEX_POINT('',#171);
#173=CARTESIAN_POINT('',(1.367865653504E1,9.757105411843E0,0.E0));
#174=VERTEX_POINT('',#173);
#175=CARTESIAN_POINT('',(1.368930128367E1,9.735815914583E0,6.614173228346E-3));
#176=VERTEX_POINT('',#175);
#177=CARTESIAN_POINT('',(1.368930128367E1,9.757105411843E0,0.E0));
#178=VERTEX_POINT('',#177);
#179=CARTESIAN_POINT('',(1.368930128367E1,9.735815914583E0,0.E0));
#180=VERTEX_POINT('',#179);
#181=CARTESIAN_POINT('',(1.369994603230E1,9.735815914583E0,6.614173228346E-3));
#182=VERTEX_POINT('',#181);
#183=CARTESIAN_POINT('',(1.369994603230E1,9.735815914583E0,0.E0));
#184=VERTEX_POINT('',#183);
#185=CARTESIAN_POINT('',(1.369994603230E1,9.727106574756E0,6.614173228346E-3));
#186=VERTEX_POINT('',#185);
#187=CARTESIAN_POINT('',(1.369994603230E1,9.727106574756E0,0.E0));
#188=VERTEX_POINT('',#187);
#189=CARTESIAN_POINT('',(1.368930128367E1,9.727106574756E0,6.614173228346E-3));
#190=VERTEX_POINT('',#189);
#191=CARTESIAN_POINT('',(1.368930128367E1,9.727106574756E0,0.E0));
#192=VERTEX_POINT('',#191);
#193=CARTESIAN_POINT('',(1.368930128367E1,9.679689058110E0,6.614173228346E-3));
#194=VERTEX_POINT('',#193);
#195=CARTESIAN_POINT('',(1.368930128367E1,9.679689058110E0,0.E0));
#196=VERTEX_POINT('',#195);
#197=CARTESIAN_POINT('',(1.367865653504E1,9.679689058110E0,6.614173228346E-3));
#198=VERTEX_POINT('',#197);
#199=CARTESIAN_POINT('',(1.367865653504E1,9.679689058110E0,0.E0));
#200=VERTEX_POINT('',#199);
#201=CARTESIAN_POINT('',(1.367865653504E1,9.727106574756E0,6.614173228346E-3));
#202=VERTEX_POINT('',#201);
#203=CARTESIAN_POINT('',(1.367865653504E1,9.727106574756E0,0.E0));
#204=VERTEX_POINT('',#203);
#205=CARTESIAN_POINT('',(1.366801178641E1,9.727106574756E0,6.614173228346E-3));
#206=VERTEX_POINT('',#205);
#207=CARTESIAN_POINT('',(1.369994603230E1,9.679689058110E0,6.614173228346E-3));
#208=DIRECTION('',(0.E0,0.E0,-1.E0));
#209=DIRECTION('',(-1.E0,0.E0,0.E0));
#210=AXIS2_PLACEMENT_3D('',#207,#208,#209);
#211=PLANE('',#210);
#213=ORIENTED_EDGE('',*,*,#212,.F.);
#215=ORIENTED_EDGE('',*,*,#214,.F.);
#217=ORIENTED_EDGE('',*,*,#216,.F.);
#219=ORIENTED_EDGE('',*,*,#218,.F.);
#221=ORIENTED_EDGE('',*,*,#220,.F.);
#223=ORIENTED_EDGE('',*,*,#222,.F.);
#225=ORIENTED_EDGE('',*,*,#224,.F.);
#227=ORIENTED_EDGE('',*,*,#226,.F.);
#229=ORIENTED_EDGE('',*,*,#228,.F.);
#231=ORIENTED_EDGE('',*,*,#230,.F.);
#233=ORIENTED_EDGE('',*,*,#232,.F.);
#235=ORIENTED_EDGE('',*,*,#234,.F.);
#236=EDGE_LOOP('',(#213,#215,#217,#219,#221,#223,#225,#227,#229,#231,#233,
#235));
#237=FACE_OUTER_BOUND('',#236,.F.);
#239=FILL_AREA_STYLE_COLOUR('',#14);
#240=FILL_AREA_STYLE('',(#239));
#241=SURFACE_STYLE_FILL_AREA(#240);
#242=SURFACE_SIDE_STYLE('',(#241));
#243=SURFACE_STYLE_USAGE(.BOTH.,#242);
#244=PRESENTATION_STYLE_ASSIGNMENT((#243));
#245=STYLED_ITEM('',(#244),#238);
#246=CARTESIAN_POINT('',(1.366801178641E1,9.735815914583E0,0.E0));
#247=DIRECTION('',(0.E0,1.E0,0.E0));
#248=DIRECTION('',(0.E0,0.E0,1.E0));
#249=AXIS2_PLACEMENT_3D('',#246,#247,#248);
#250=PLANE('',#249);
#251=ORIENTED_EDGE('',*,*,#212,.T.);
#253=ORIENTED_EDGE('',*,*,#252,.T.);
#255=ORIENTED_EDGE('',*,*,#254,.F.);
#257=ORIENTED_EDGE('',*,*,#256,.T.);
#258=EDGE_LOOP('',(#251,#253,#255,#257));
#259=FACE_OUTER_BOUND('',#258,.F.);
#261=FILL_AREA_STYLE_COLOUR('',#14);
#262=FILL_AREA_STYLE('',(#261));
#263=SURFACE_STYLE_FILL_AREA(#262);
#264=SURFACE_SIDE_STYLE('',(#263));
#265=SURFACE_STYLE_USAGE(.BOTH.,#264);
#266=PRESENTATION_STYLE_ASSIGNMENT((#265));
#267=STYLED_ITEM('',(#266),#260);
#268=CARTESIAN_POINT('',(1.366801178641E1,9.727106574756E0,0.E0));
#269=DIRECTION('',(-1.E0,0.E0,0.E0));
#270=DIRECTION('',(0.E0,0.E0,1.E0));
#271=AXIS2_PLACEMENT_3D('',#268,#269,#270);
#272=PLANE('',#271);
#273=ORIENTED_EDGE('',*,*,#234,.T.);
#275=ORIENTED_EDGE('',*,*,#274,.T.);
#277=ORIENTED_EDGE('',*,*,#276,.F.);
#278=ORIENTED_EDGE('',*,*,#252,.F.);
#279=EDGE_LOOP('',(#273,#275,#277,#278));
#280=FACE_OUTER_BOUND('',#279,.F.);
#282=FILL_AREA_STYLE_COLOUR('',#14);
#283=FILL_AREA_STYLE('',(#282));
#284=SURFACE_STYLE_FILL_AREA(#283);
#285=SURFACE_SIDE_STYLE('',(#284));
#286=SURFACE_STYLE_USAGE(.BOTH.,#285);
#287=PRESENTATION_STYLE_ASSIGNMENT((#286));
#288=STYLED_ITEM('',(#287),#281);
#289=CARTESIAN_POINT('',(1.366801178641E1,9.727106574756E0,6.614173228346E-3));
#290=DIRECTION('',(0.E0,-1.E0,0.E0));
#291=DIRECTION('',(0.E0,0.E0,-1.E0));
#292=AXIS2_PLACEMENT_3D('',#289,#290,#291);
#293=PLANE('',#292);
#294=ORIENTED_EDGE('',*,*,#232,.T.);
#296=ORIENTED_EDGE('',*,*,#295,.T.);
#298=ORIENTED_EDGE('',*,*,#297,.F.);
#299=ORIENTED_EDGE('',*,*,#274,.F.);
#300=EDGE_LOOP('',(#294,#296,#298,#299));
#301=FACE_OUTER_BOUND('',#300,.F.);
#303=FILL_AREA_STYLE_COLOUR('',#14);
#304=FILL_AREA_STYLE('',(#303));
#305=SURFACE_STYLE_FILL_AREA(#304);
#306=SURFACE_SIDE_STYLE('',(#305));
#307=SURFACE_STYLE_USAGE(.BOTH.,#306);
#308=PRESENTATION_STYLE_ASSIGNMENT((#307));
#309=STYLED_ITEM('',(#308),#302);
#310=CARTESIAN_POINT('',(1.367865653504E1,9.679689058110E0,0.E0));
#311=DIRECTION('',(-1.E0,0.E0,0.E0));
#312=DIRECTION('',(0.E0,0.E0,1.E0));
#313=AXIS2_PLACEMENT_3D('',#310,#311,#312);
#314=PLANE('',#313);
#315=ORIENTED_EDGE('',*,*,#230,.T.);
#317=ORIENTED_EDGE('',*,*,#316,.T.);
#319=ORIENTED_EDGE('',*,*,#318,.F.);
#320=ORIENTED_EDGE('',*,*,#295,.F.);
#321=EDGE_LOOP('',(#315,#317,#319,#320));
#322=FACE_OUTER_BOUND('',#321,.F.);
#324=FILL_AREA_STYLE_COLOUR('',#14);
#325=FILL_AREA_STYLE('',(#324));
#326=SURFACE_STYLE_FILL_AREA(#325);
#327=SURFACE_SIDE_STYLE('',(#326));
#328=SURFACE_STYLE_USAGE(.BOTH.,#327);
#329=PRESENTATION_STYLE_ASSIGNMENT((#328));
#330=STYLED_ITEM('',(#329),#323);
#331=CARTESIAN_POINT('',(1.367865653504E1,9.679689058110E0,6.614173228346E-3));
#332=DIRECTION('',(0.E0,-1.E0,0.E0));
#333=DIRECTION('',(0.E0,0.E0,-1.E0));
#334=AXIS2_PLACEMENT_3D('',#331,#332,#333);
#335=PLANE('',#334);
#336=ORIENTED_EDGE('',*,*,#228,.T.);
#338=ORIENTED_EDGE('',*,*,#337,.T.);
#340=ORIENTED_EDGE('',*,*,#339,.F.);
#341=ORIENTED_EDGE('',*,*,#316,.F.);
#342=EDGE_LOOP('',(#336,#338,#340,#341));
#343=FACE_OUTER_BOUND('',#342,.F.);
#345=FILL_AREA_STYLE_COLOUR('',#14);
#346=FILL_AREA_STYLE('',(#345));
#347=SURFACE_STYLE_FILL_AREA(#346);
#348=SURFACE_SIDE_STYLE('',(#347));
#349=SURFACE_STYLE_USAGE(.BOTH.,#348);
#350=PRESENTATION_STYLE_ASSIGNMENT((#349));
#351=STYLED_ITEM('',(#350),#344);
#352=CARTESIAN_POINT('',(1.368930128367E1,9.679689058110E0,6.614173228346E-3));
#353=DIRECTION('',(1.E0,0.E0,0.E0));
#354=DIRECTION('',(0.E0,0.E0,-1.E0));
#355=AXIS2_PLACEMENT_3D('',#352,#353,#354);
#356=PLANE('',#355);
#357=ORIENTED_EDGE('',*,*,#226,.T.);
#359=ORIENTED_EDGE('',*,*,#358,.T.);
#361=ORIENTED_EDGE('',*,*,#360,.F.);
#362=ORIENTED_EDGE('',*,*,#337,.F.);
#363=EDGE_LOOP('',(#357,#359,#361,#362));
#364=FACE_OUTER_BOUND('',#363,.F.);
#366=FILL_AREA_STYLE_COLOUR('',#14);
#367=FILL_AREA_STYLE('',(#366));
#368=SURFACE_STYLE_FILL_AREA(#367);
#369=SURFACE_SIDE_STYLE('',(#368));
#370=SURFACE_STYLE_USAGE(.BOTH.,#369);
#371=PRESENTATION_STYLE_ASSIGNMENT((#370));
#372=STYLED_ITEM('',(#371),#365);
#373=CARTESIAN_POINT('',(1.368930128367E1,9.727106574756E0,6.614173228346E-3));
#374=DIRECTION('',(0.E0,-1.E0,0.E0));
#375=DIRECTION('',(0.E0,0.E0,-1.E0));
#376=AXIS2_PLACEMENT_3D('',#373,#374,#375);
#377=PLANE('',#376);
#378=ORIENTED_EDGE('',*,*,#224,.T.);
#380=ORIENTED_EDGE('',*,*,#379,.T.);
#382=ORIENTED_EDGE('',*,*,#381,.F.);
#383=ORIENTED_EDGE('',*,*,#358,.F.);
#384=EDGE_LOOP('',(#378,#380,#382,#383));
#385=FACE_OUTER_BOUND('',#384,.F.);
#387=FILL_AREA_STYLE_COLOUR('',#14);
#388=FILL_AREA_STYLE('',(#387));
#389=SURFACE_STYLE_FILL_AREA(#388);
#390=SURFACE_SIDE_STYLE('',(#389));
#391=SURFACE_STYLE_USAGE(.BOTH.,#390);
#392=PRESENTATION_STYLE_ASSIGNMENT((#391));
#393=STYLED_ITEM('',(#392),#386);
#394=CARTESIAN_POINT('',(1.369994603230E1,9.727106574756E0,6.614173228346E-3));
#395=DIRECTION('',(1.E0,0.E0,0.E0));
#396=DIRECTION('',(0.E0,0.E0,-1.E0));
#397=AXIS2_PLACEMENT_3D('',#394,#395,#396);
#398=PLANE('',#397);
#399=ORIENTED_EDGE('',*,*,#222,.T.);
#401=ORIENTED_EDGE('',*,*,#400,.T.);
#403=ORIENTED_EDGE('',*,*,#402,.F.);
#404=ORIENTED_EDGE('',*,*,#379,.F.);
#405=EDGE_LOOP('',(#399,#401,#403,#404));
#406=FACE_OUTER_BOUND('',#405,.F.);
#408=FILL_AREA_STYLE_COLOUR('',#14);
#409=FILL_AREA_STYLE('',(#408));
#410=SURFACE_STYLE_FILL_AREA(#409);
#411=SURFACE_SIDE_STYLE('',(#410));
#412=SURFACE_STYLE_USAGE(.BOTH.,#411);
#413=PRESENTATION_STYLE_ASSIGNMENT((#412));
#414=STYLED_ITEM('',(#413),#407);
#415=CARTESIAN_POINT('',(1.368930128367E1,9.735815914583E0,0.E0));
#416=DIRECTION('',(0.E0,1.E0,0.E0));
#417=DIRECTION('',(0.E0,0.E0,1.E0));
#418=AXIS2_PLACEMENT_3D('',#415,#416,#417);
#419=PLANE('',#418);
#420=ORIENTED_EDGE('',*,*,#220,.T.);
#422=ORIENTED_EDGE('',*,*,#421,.T.);
#424=ORIENTED_EDGE('',*,*,#423,.F.);
#425=ORIENTED_EDGE('',*,*,#400,.F.);
#426=EDGE_LOOP('',(#420,#422,#424,#425));
#427=FACE_OUTER_BOUND('',#426,.F.);
#429=FILL_AREA_STYLE_COLOUR('',#14);
#430=FILL_AREA_STYLE('',(#429));
#431=SURFACE_STYLE_FILL_AREA(#430);
#432=SURFACE_SIDE_STYLE('',(#431));
#433=SURFACE_STYLE_USAGE(.BOTH.,#432);
#434=PRESENTATION_STYLE_ASSIGNMENT((#433));
#435=STYLED_ITEM('',(#434),#428);
#436=CARTESIAN_POINT('',(1.368930128367E1,9.735815914583E0,6.614173228346E-3));
#437=DIRECTION('',(1.E0,0.E0,0.E0));
#438=DIRECTION('',(0.E0,0.E0,-1.E0));
#439=AXIS2_PLACEMENT_3D('',#436,#437,#438);
#440=PLANE('',#439);
#441=ORIENTED_EDGE('',*,*,#218,.T.);
#443=ORIENTED_EDGE('',*,*,#442,.T.);
#445=ORIENTED_EDGE('',*,*,#444,.F.);
#446=ORIENTED_EDGE('',*,*,#421,.F.);
#447=EDGE_LOOP('',(#441,#443,#445,#446));
#448=FACE_OUTER_BOUND('',#447,.F.);
#450=FILL_AREA_STYLE_COLOUR('',#14);
#451=FILL_AREA_STYLE('',(#450));
#452=SURFACE_STYLE_FILL_AREA(#451);
#453=SURFACE_SIDE_STYLE('',(#452));
#454=SURFACE_STYLE_USAGE(.BOTH.,#453);
#455=PRESENTATION_STYLE_ASSIGNMENT((#454));
#456=STYLED_ITEM('',(#455),#449);
#457=CARTESIAN_POINT('',(1.367865653504E1,9.757105411843E0,0.E0));
#458=DIRECTION('',(0.E0,1.E0,0.E0));
#459=DIRECTION('',(0.E0,0.E0,1.E0));
#460=AXIS2_PLACEMENT_3D('',#457,#458,#459);
#461=PLANE('',#460);
#462=ORIENTED_EDGE('',*,*,#216,.T.);
#464=ORIENTED_EDGE('',*,*,#463,.T.);
#466=ORIENTED_EDGE('',*,*,#465,.F.);
#467=ORIENTED_EDGE('',*,*,#442,.F.);
#468=EDGE_LOOP('',(#462,#464,#466,#467));
#469=FACE_OUTER_BOUND('',#468,.F.);
#471=FILL_AREA_STYLE_COLOUR('',#14);
#472=FILL_AREA_STYLE('',(#471));
#473=SURFACE_STYLE_FILL_AREA(#472);
#474=SURFACE_SIDE_STYLE('',(#473));
#475=SURFACE_STYLE_USAGE(.BOTH.,#474);
#476=PRESENTATION_STYLE_ASSIGNMENT((#475));
#477=STYLED_ITEM('',(#476),#470);
#478=CARTESIAN_POINT('',(1.367865653504E1,9.735815914583E0,0.E0));
#479=DIRECTION('',(-1.E0,0.E0,0.E0));
#480=DIRECTION('',(0.E0,0.E0,1.E0));
#481=AXIS2_PLACEMENT_3D('',#478,#479,#480);
#482=PLANE('',#481);
#483=ORIENTED_EDGE('',*,*,#214,.T.);
#484=ORIENTED_EDGE('',*,*,#256,.F.);
#486=ORIENTED_EDGE('',*,*,#485,.F.);
#487=ORIENTED_EDGE('',*,*,#463,.F.);
#488=EDGE_LOOP('',(#483,#484,#486,#487));
#489=FACE_OUTER_BOUND('',#488,.F.);
#491=FILL_AREA_STYLE_COLOUR('',#14);
#492=FILL_AREA_STYLE('',(#491));
#493=SURFACE_STYLE_FILL_AREA(#492);
#494=SURFACE_SIDE_STYLE('',(#493));
#495=SURFACE_STYLE_USAGE(.BOTH.,#494);
#496=PRESENTATION_STYLE_ASSIGNMENT((#495));
#497=STYLED_ITEM('',(#496),#490);
#498=CARTESIAN_POINT('',(1.369994603230E1,9.679689058110E0,0.E0));
#499=DIRECTION('',(0.E0,0.E0,-1.E0));
#500=DIRECTION('',(-1.E0,0.E0,0.E0));
#501=AXIS2_PLACEMENT_3D('',#498,#499,#500);
#502=PLANE('',#501);
#503=ORIENTED_EDGE('',*,*,#276,.T.);
#504=ORIENTED_EDGE('',*,*,#297,.T.);
#505=ORIENTED_EDGE('',*,*,#318,.T.);
#506=ORIENTED_EDGE('',*,*,#339,.T.);
#507=ORIENTED_EDGE('',*,*,#360,.T.);
#508=ORIENTED_EDGE('',*,*,#381,.T.);
#509=ORIENTED_EDGE('',*,*,#402,.T.);
#510=ORIENTED_EDGE('',*,*,#423,.T.);
#511=ORIENTED_EDGE('',*,*,#444,.T.);
#512=ORIENTED_EDGE('',*,*,#465,.T.);
#513=ORIENTED_EDGE('',*,*,#485,.T.);
#514=ORIENTED_EDGE('',*,*,#254,.T.);
#515=EDGE_LOOP('',(#503,#504,#505,#506,#507,#508,#509,#510,#511,#512,#513,
#514));
#516=FACE_OUTER_BOUND('',#515,.F.);
#518=FILL_AREA_STYLE_COLOUR('',#14);
#519=FILL_AREA_STYLE('',(#518));
#520=SURFACE_STYLE_FILL_AREA(#519);
#521=SURFACE_SIDE_STYLE('',(#520));
#522=SURFACE_STYLE_USAGE(.BOTH.,#521);
#523=PRESENTATION_STYLE_ASSIGNMENT((#522));
#524=STYLED_ITEM('',(#523),#517);
#527=PRESENTATION_LAYER_ASSIGNMENT('SHELL_371','',(#238,#260,#281,#302,#323,
#344,#365,#386,#407,#428,#449,#470,#490,#517,#526));
#529=LENGTH_MEASURE_WITH_UNIT(LENGTH_MEASURE(2.54E1),#528);
#530=(CONVERSION_BASED_UNIT('INCH',#529)LENGTH_UNIT()NAMED_UNIT(*));
#532=PLANE_ANGLE_MEASURE_WITH_UNIT(PLANE_ANGLE_MEASURE(1.745329251994E-2),#531);
#533=(CONVERSION_BASED_UNIT('DEGREE',#532)NAMED_UNIT(*)PLANE_ANGLE_UNIT());
#535=UNCERTAINTY_MEASURE_WITH_UNIT(LENGTH_MEASURE(7.000834257039E-5),#530,
'closure',
'Maximum model space distance between geometric entities at asserted connectivities');
#537=CARTESIAN_POINT('',(0.E0,0.E0,0.E0));
#538=DIRECTION('',(0.E0,0.E0,1.E0));
#539=DIRECTION('',(1.E0,0.E0,0.E0));
#542=MECHANICAL_DESIGN_GEOMETRIC_PRESENTATION_REPRESENTATION('',(#245,#267,#288,
#309,#330,#351,#372,#393,#414,#435,#456,#477,#497,#524),#536);
#543=APPLICATION_CONTEXT('automotive design');
#544=APPLICATION_PROTOCOL_DEFINITION('international standard',
'config_control_design',1994,#543);
#545=PRODUCT_DEFINITION_CONTEXT('',#543,'design');
#546=PRODUCT_CONTEXT('',#543,'mechanical');
#547=PRODUCT('NO_10LOGO-12','NO_10LOGO-12','NOT SPECIFIED',(#546));
#548=PRODUCT_DEFINITION_FORMATION_WITH_SPECIFIED_SOURCE('1','LAST_VERSION',#547,
.MADE.);
#556=LENGTH_MEASURE_WITH_UNIT(LENGTH_MEASURE(2.54E1),#555);
#557=(CONVERSION_BASED_UNIT('INCH',#556)LENGTH_UNIT()NAMED_UNIT(*));
#558=DERIVED_UNIT_ELEMENT(#557,2.E0);
#559=AREA_UNIT((#558));
#560=MEASURE_REPRESENTATION_ITEM('surface area measure',AREA_MEASURE(
2.235813464140E-6),#559);
#565=LENGTH_MEASURE_WITH_UNIT(LENGTH_MEASURE(2.54E1),#564);
#566=(CONVERSION_BASED_UNIT('INCH',#565)LENGTH_UNIT()NAMED_UNIT(*));
#567=DERIVED_UNIT_ELEMENT(#566,2.E0);
#568=AREA_UNIT((#567));
#569=MEASURE_REPRESENTATION_ITEM('surface area measure',AREA_MEASURE(
2.235813464140E-6),#568);
#1=DRAUGHTING_PRE_DEFINED_COLOUR('green');
#2=COLOUR_RGB('',1.1E-2,1.2E-2,1.E0);
#3=COLOUR_RGB('',2.352941176471E-1,2.352941176471E-1,2.352941176471E-1);
#4=COLOUR_RGB('',4.1E-1,2.61589E-1,1.12848E-1);
#5=COLOUR_RGB('',5.04854E-1,1.5455E-2,1.5455E-2);
#6=COLOUR_RGB('',6.35294E-1,6.86275E-1,7.4902E-1);
#7=COLOUR_RGB('',6.40777E-1,6.40777E-1,6.40777E-1);
#8=COLOUR_RGB('',6.69062E-1,6.69903E-1,6.55217E-1);
#9=COLOUR_RGB('',9.21569E-1,7.05882E-1,4.70588E-1);
#10=DRAUGHTING_PRE_DEFINED_COLOUR('red');
#11=DRAUGHTING_PRE_DEFINED_COLOUR('yellow');
#12=COLOUR_RGB('',1.E0,1.E0,5.3E-1);
#13=COLOUR_RGB('',1.E0,1.E0,9.49E-1);
#14=DRAUGHTING_PRE_DEFINED_COLOUR('white');
#212=EDGE_CURVE('',#166,#170,#18,.T.);
#214=EDGE_CURVE('',#165,#166,#22,.T.);
#216=EDGE_CURVE('',#172,#165,#26,.T.);
#218=EDGE_CURVE('',#176,#172,#30,.T.);
#220=EDGE_CURVE('',#182,#176,#34,.T.);
#222=EDGE_CURVE('',#186,#182,#38,.T.);
#224=EDGE_CURVE('',#190,#186,#42,.T.);
#226=EDGE_CURVE('',#194,#190,#46,.T.);
#228=EDGE_CURVE('',#198,#194,#50,.T.);
#230=EDGE_CURVE('',#202,#198,#54,.T.);
#232=EDGE_CURVE('',#206,#202,#58,.T.);
#234=EDGE_CURVE('',#170,#206,#62,.T.);
#238=ADVANCED_FACE('',(#237),#211,.F.);
#252=EDGE_CURVE('',#170,#162,#74,.T.);
#254=EDGE_CURVE('',#161,#162,#66,.T.);
#256=EDGE_CURVE('',#161,#166,#150,.T.);
#260=ADVANCED_FACE('',(#259),#250,.T.);
#274=EDGE_CURVE('',#206,#168,#82,.T.);
#276=EDGE_CURVE('',#162,#168,#70,.T.);
#281=ADVANCED_FACE('',(#280),#272,.T.);
#295=EDGE_CURVE('',#202,#204,#90,.T.);
#297=EDGE_CURVE('',#168,#204,#78,.T.);
#302=ADVANCED_FACE('',(#301),#293,.T.);
#316=EDGE_CURVE('',#198,#200,#98,.T.);
#318=EDGE_CURVE('',#204,#200,#86,.T.);
#323=ADVANCED_FACE('',(#322),#314,.T.);
#337=EDGE_CURVE('',#194,#196,#106,.T.);
#339=EDGE_CURVE('',#200,#196,#94,.T.);
#344=ADVANCED_FACE('',(#343),#335,.T.);
#358=EDGE_CURVE('',#190,#192,#114,.T.);
#360=EDGE_CURVE('',#196,#192,#102,.T.);
#365=ADVANCED_FACE('',(#364),#356,.T.);
#379=EDGE_CURVE('',#186,#188,#122,.T.);
#381=EDGE_CURVE('',#192,#188,#110,.T.);
#386=ADVANCED_FACE('',(#385),#377,.T.);
#400=EDGE_CURVE('',#182,#184,#130,.T.);
#402=EDGE_CURVE('',#188,#184,#118,.T.);
#407=ADVANCED_FACE('',(#406),#398,.T.);
#421=EDGE_CURVE('',#176,#180,#138,.T.);
#423=EDGE_CURVE('',#184,#180,#126,.T.);
#428=ADVANCED_FACE('',(#427),#419,.T.);
#442=EDGE_CURVE('',#172,#178,#146,.T.);
#444=EDGE_CURVE('',#180,#178,#134,.T.);
#449=ADVANCED_FACE('',(#448),#440,.T.);
#463=EDGE_CURVE('',#165,#174,#158,.T.);
#465=EDGE_CURVE('',#178,#174,#142,.T.);
#470=ADVANCED_FACE('',(#469),#461,.T.);
#485=EDGE_CURVE('',#174,#161,#154,.T.);
#490=ADVANCED_FACE('',(#489),#482,.T.);
#517=ADVANCED_FACE('',(#516),#502,.T.);
#525=CLOSED_SHELL('',(#238,#260,#281,#302,#323,#344,#365,#386,#407,#428,#449,
#470,#490,#517));
#526=MANIFOLD_SOLID_BREP('',#525);
#528=(LENGTH_UNIT()NAMED_UNIT(*)SI_UNIT(.MILLI.,.METRE.));
#531=(NAMED_UNIT(*)PLANE_ANGLE_UNIT()SI_UNIT($,.RADIAN.));
#534=(NAMED_UNIT(*)SI_UNIT($,.STERADIAN.)SOLID_ANGLE_UNIT());
#536=(GEOMETRIC_REPRESENTATION_CONTEXT(3)GLOBAL_UNCERTAINTY_ASSIGNED_CONTEXT((
#535))GLOBAL_UNIT_ASSIGNED_CONTEXT((#530,#533,#534))REPRESENTATION_CONTEXT
('ID1','3'));
#540=AXIS2_PLACEMENT_3D('',#537,#538,#539);
#541=ADVANCED_BREP_SHAPE_REPRESENTATION('',(#540,#526),#536);
#549=PRODUCT_DEFINITION('design','',#548,#545);
#550=PRODUCT_DEFINITION_SHAPE('','SHAPE FOR NO_10LOGO-12.',#549);
#551=SHAPE_ASPECT('','solid data associated with NO_10LOGO-12',#550,.F.);
#552=PROPERTY_DEFINITION('',
'shape for solid data with which properties are associated',#551);
#553=SHAPE_REPRESENTATION('',(#526),#536);
#554=SHAPE_DEFINITION_REPRESENTATION(#552,#553);
#555=(LENGTH_UNIT()NAMED_UNIT(*)SI_UNIT(.MILLI.,.METRE.));
#561=PROPERTY_DEFINITION('geometric validation property','area of NO_10LOGO-12',
#551);
#562=REPRESENTATION('surface area',(#560),#536);
#563=PROPERTY_DEFINITION_REPRESENTATION(#561,#562);
#564=(LENGTH_UNIT()NAMED_UNIT(*)SI_UNIT(.MILLI.,.METRE.));
#570=PROPERTY_DEFINITION('geometric validation property','area of NO_10LOGO-12',
#550);
#571=REPRESENTATION('surface area',(#569),#536);
#572=PROPERTY_DEFINITION_REPRESENTATION(#570,#571);
#573=SHAPE_DEFINITION_REPRESENTATION(#550,#541);
ENDSEC;
END-ISO-10303-21;
