ISO-10303-21;
HEADER;
FILE_DESCRIPTION((''),'2;1');
FILE_NAME('NO_10LOGO-340','2026-06-15T13:45:42',('Esia'),(''),
'CREO PARAMETRIC BY PTC INC, 2025102','CREO PARAMETRIC BY PTC INC, 2025102','');
FILE_SCHEMA((
'AP242_MANAGED_MODEL_BASED_3D_ENGINEERING_MIM_LF { 1 0 10303 442 1 1 4 }'));
ENDSEC;
DATA;
#15=DIRECTION('',(0.E0,-1.E0,0.E0));
#16=VECTOR('',#15,8.709339779529E-3);
#17=CARTESIAN_POINT('',(1.353543628063E1,9.688398397890E0,0.E0));
#18=LINE('',#17,#16);
#19=DIRECTION('',(1.E0,0.E0,0.E0));
#20=VECTOR('',#19,3.774047244094E-2);
#21=CARTESIAN_POINT('',(1.349769580819E1,9.688398397890E0,0.E0));
#22=LINE('',#21,#20);
#23=DIRECTION('',(0.E0,-1.E0,0.E0));
#24=VECTOR('',#23,2.806342823622E-2);
#25=CARTESIAN_POINT('',(1.349769580819E1,9.716461826126E0,0.E0));
#26=LINE('',#25,#24);
#27=DIRECTION('',(-1.E0,0.E0,0.E0));
#28=VECTOR('',#27,3.774047244094E-2);
#29=CARTESIAN_POINT('',(1.353543628063E1,9.716461826126E0,0.E0));
#30=LINE('',#29,#28);
#31=DIRECTION('',(0.E0,-1.E0,0.E0));
#32=VECTOR('',#31,8.709339779525E-3);
#33=CARTESIAN_POINT('',(1.353543628063E1,9.725171165906E0,0.E0));
#34=LINE('',#33,#32);
#35=DIRECTION('',(1.E0,0.E0,0.E0));
#36=VECTOR('',#35,3.774047244094E-2);
#37=CARTESIAN_POINT('',(1.349769580819E1,9.725171165906E0,0.E0));
#38=LINE('',#37,#36);
#39=DIRECTION('',(0.E0,-1.E0,0.E0));
#40=VECTOR('',#39,2.128949730709E-2);
#41=CARTESIAN_POINT('',(1.349769580819E1,9.746460663213E0,0.E0));
#42=LINE('',#41,#40);
#43=DIRECTION('',(-1.E0,0.E0,0.E0));
#44=VECTOR('',#43,3.774047244094E-2);
#45=CARTESIAN_POINT('',(1.353543628063E1,9.746460663213E0,0.E0));
#46=LINE('',#45,#44);
#47=DIRECTION('',(0.E0,-1.E0,0.E0));
#48=VECTOR('',#47,8.709339779529E-3);
#49=CARTESIAN_POINT('',(1.353543628063E1,9.755170002992E0,0.E0));
#50=LINE('',#49,#48);
#51=DIRECTION('',(1.E0,3.671279783549E-14,0.E0));
#52=VECTOR('',#51,4.838522107087E-2);
#53=CARTESIAN_POINT('',(1.348705105956E1,9.755170002992E0,0.E0));
#54=LINE('',#53,#52);
#55=DIRECTION('',(0.E0,1.E0,0.E0));
#56=VECTOR('',#55,7.548094488189E-2);
#57=CARTESIAN_POINT('',(1.348705105956E1,9.679689058110E0,0.E0));
#58=LINE('',#57,#56);
#59=DIRECTION('',(-1.E0,0.E0,0.E0));
#60=VECTOR('',#59,4.838522107087E-2);
#61=CARTESIAN_POINT('',(1.353543628063E1,9.679689058110E0,0.E0));
#62=LINE('',#61,#60);
#63=DIRECTION('',(0.E0,-1.E0,0.E0));
#64=VECTOR('',#63,8.709339779529E-3);
#65=CARTESIAN_POINT('',(1.353543628063E1,9.688398397890E0,6.614173228346E-3));
#66=LINE('',#65,#64);
#67=DIRECTION('',(0.E0,0.E0,-1.E0));
#68=VECTOR('',#67,6.614173228346E-3);
#69=CARTESIAN_POINT('',(1.353543628063E1,9.679689058110E0,6.614173228346E-3));
#70=LINE('',#69,#68);
#71=DIRECTION('',(-1.E0,0.E0,0.E0));
#72=VECTOR('',#71,4.838522107087E-2);
#73=CARTESIAN_POINT('',(1.353543628063E1,9.679689058110E0,6.614173228346E-3));
#74=LINE('',#73,#72);
#75=DIRECTION('',(0.E0,0.E0,-1.E0));
#76=VECTOR('',#75,6.614173228346E-3);
#77=CARTESIAN_POINT('',(1.348705105956E1,9.679689058110E0,6.614173228346E-3));
#78=LINE('',#77,#76);
#79=DIRECTION('',(0.E0,1.E0,0.E0));
#80=VECTOR('',#79,7.548094488189E-2);
#81=CARTESIAN_POINT('',(1.348705105956E1,9.679689058110E0,6.614173228346E-3));
#82=LINE('',#81,#80);
#83=DIRECTION('',(1.E0,-3.671279783549E-14,0.E0));
#84=VECTOR('',#83,4.838522107087E-2);
#85=CARTESIAN_POINT('',(1.348705105956E1,9.755170002992E0,6.614173228346E-3));
#86=LINE('',#85,#84);
#87=DIRECTION('',(0.E0,-2.685682364331E-13,1.E0));
#88=VECTOR('',#87,6.614173228346E-3);
#89=CARTESIAN_POINT('',(1.348705105956E1,9.755170002992E0,0.E0));
#90=LINE('',#89,#88);
#91=DIRECTION('',(0.E0,0.E0,-1.E0));
#92=VECTOR('',#91,6.614173228346E-3);
#93=CARTESIAN_POINT('',(1.353543628063E1,9.755170002992E0,6.614173228346E-3));
#94=LINE('',#93,#92);
#95=DIRECTION('',(0.E0,-1.E0,0.E0));
#96=VECTOR('',#95,8.709339779525E-3);
#97=CARTESIAN_POINT('',(1.353543628063E1,9.755170002992E0,6.614173228346E-3));
#98=LINE('',#97,#96);
#99=DIRECTION('',(0.E0,0.E0,-1.E0));
#100=VECTOR('',#99,6.614173228346E-3);
#101=CARTESIAN_POINT('',(1.353543628063E1,9.746460663213E0,6.614173228346E-3));
#102=LINE('',#101,#100);
#103=DIRECTION('',(-1.E0,0.E0,0.E0));
#104=VECTOR('',#103,3.774047244094E-2);
#105=CARTESIAN_POINT('',(1.353543628063E1,9.746460663213E0,6.614173228346E-3));
#106=LINE('',#105,#104);
#107=DIRECTION('',(0.E0,0.E0,-1.E0));
#108=VECTOR('',#107,6.614173228346E-3);
#109=CARTESIAN_POINT('',(1.349769580819E1,9.746460663213E0,6.614173228346E-3));
#110=LINE('',#109,#108);
#111=DIRECTION('',(0.E0,-1.E0,0.E0));
#112=VECTOR('',#111,2.128949730709E-2);
#113=CARTESIAN_POINT('',(1.349769580819E1,9.746460663213E0,6.614173228346E-3));
#114=LINE('',#113,#112);
#115=DIRECTION('',(0.E0,0.E0,-1.E0));
#116=VECTOR('',#115,6.614173228346E-3);
#117=CARTESIAN_POINT('',(1.349769580819E1,9.725171165906E0,6.614173228346E-3));
#118=LINE('',#117,#116);
#119=DIRECTION('',(1.E0,0.E0,0.E0));
#120=VECTOR('',#119,3.774047244094E-2);
#121=CARTESIAN_POINT('',(1.349769580819E1,9.725171165906E0,6.614173228346E-3));
#122=LINE('',#121,#120);
#123=DIRECTION('',(0.E0,0.E0,-1.E0));
#124=VECTOR('',#123,6.614173228346E-3);
#125=CARTESIAN_POINT('',(1.353543628063E1,9.725171165906E0,6.614173228346E-3));
#126=LINE('',#125,#124);
#127=DIRECTION('',(0.E0,-1.E0,0.E0));
#128=VECTOR('',#127,8.709339779525E-3);
#129=CARTESIAN_POINT('',(1.353543628063E1,9.725171165906E0,6.614173228346E-3));
#130=LINE('',#129,#128);
#131=DIRECTION('',(0.E0,0.E0,-1.E0));
#132=VECTOR('',#131,6.614173228346E-3);
#133=CARTESIAN_POINT('',(1.353543628063E1,9.716461826126E0,6.614173228346E-3));
#134=LINE('',#133,#132);
#135=DIRECTION('',(-1.E0,0.E0,0.E0));
#136=VECTOR('',#135,3.774047244094E-2);
#137=CARTESIAN_POINT('',(1.353543628063E1,9.716461826126E0,6.614173228346E-3));
#138=LINE('',#137,#136);
#139=DIRECTION('',(0.E0,0.E0,-1.E0));
#140=VECTOR('',#139,6.614173228346E-3);
#141=CARTESIAN_POINT('',(1.349769580819E1,9.716461826126E0,6.614173228346E-3));
#142=LINE('',#141,#140);
#143=DIRECTION('',(0.E0,-1.E0,0.E0));
#144=VECTOR('',#143,2.806342823622E-2);
#145=CARTESIAN_POINT('',(1.349769580819E1,9.716461826126E0,6.614173228346E-3));
#146=LINE('',#145,#144);
#147=DIRECTION('',(0.E0,0.E0,-1.E0));
#148=VECTOR('',#147,6.614173228346E-3);
#149=CARTESIAN_POINT('',(1.349769580819E1,9.688398397890E0,6.614173228346E-3));
#150=LINE('',#149,#148);
#151=DIRECTION('',(1.E0,0.E0,0.E0));
#152=VECTOR('',#151,3.774047244094E-2);
#153=CARTESIAN_POINT('',(1.349769580819E1,9.688398397890E0,6.614173228346E-3));
#154=LINE('',#153,#152);
#155=DIRECTION('',(0.E0,0.E0,-1.E0));
#156=VECTOR('',#155,6.614173228346E-3);
#157=CARTESIAN_POINT('',(1.353543628063E1,9.688398397890E0,6.614173228346E-3));
#158=LINE('',#157,#156);
#159=CARTESIAN_POINT('',(1.348705105956E1,9.679689058110E0,6.614173228346E-3));
#160=CARTESIAN_POINT('',(1.348705105956E1,9.755170002992E0,6.614173228346E-3));
#161=VERTEX_POINT('',#159);
#162=VERTEX_POINT('',#160);
#163=CARTESIAN_POINT('',(1.348705105956E1,9.755170002992E0,0.E0));
#164=CARTESIAN_POINT('',(1.353543628063E1,9.755170002992E0,0.E0));
#165=VERTEX_POINT('',#163);
#166=VERTEX_POINT('',#164);
#167=CARTESIAN_POINT('',(1.353543628063E1,9.679689058110E0,6.614173228346E-3));
#168=VERTEX_POINT('',#167);
#169=CARTESIAN_POINT('',(1.348705105956E1,9.679689058110E0,0.E0));
#170=VERTEX_POINT('',#169);
#171=CARTESIAN_POINT('',(1.353543628063E1,9.746460663213E0,0.E0));
#172=CARTESIAN_POINT('',(1.349769580819E1,9.746460663213E0,0.E0));
#173=VERTEX_POINT('',#171);
#174=VERTEX_POINT('',#172);
#175=CARTESIAN_POINT('',(1.353543628063E1,9.755170002992E0,6.614173228346E-3));
#176=VERTEX_POINT('',#175);
#177=CARTESIAN_POINT('',(1.353543628063E1,9.746460663213E0,6.614173228346E-3));
#178=VERTEX_POINT('',#177);
#179=CARTESIAN_POINT('',(1.349769580819E1,9.725171165906E0,0.E0));
#180=VERTEX_POINT('',#179);
#181=CARTESIAN_POINT('',(1.349769580819E1,9.746460663213E0,6.614173228346E-3));
#182=VERTEX_POINT('',#181);
#183=CARTESIAN_POINT('',(1.353543628063E1,9.725171165906E0,0.E0));
#184=VERTEX_POINT('',#183);
#185=CARTESIAN_POINT('',(1.349769580819E1,9.725171165906E0,6.614173228346E-3));
#186=VERTEX_POINT('',#185);
#187=CARTESIAN_POINT('',(1.353543628063E1,9.716461826126E0,0.E0));
#188=VERTEX_POINT('',#187);
#189=CARTESIAN_POINT('',(1.353543628063E1,9.725171165906E0,6.614173228346E-3));
#190=VERTEX_POINT('',#189);
#191=CARTESIAN_POINT('',(1.349769580819E1,9.716461826126E0,0.E0));
#192=VERTEX_POINT('',#191);
#193=CARTESIAN_POINT('',(1.353543628063E1,9.716461826126E0,6.614173228346E-3));
#194=VERTEX_POINT('',#193);
#195=CARTESIAN_POINT('',(1.349769580819E1,9.688398397890E0,0.E0));
#196=VERTEX_POINT('',#195);
#197=CARTESIAN_POINT('',(1.349769580819E1,9.716461826126E0,6.614173228346E-3));
#198=VERTEX_POINT('',#197);
#199=CARTESIAN_POINT('',(1.353543628063E1,9.688398397890E0,0.E0));
#200=VERTEX_POINT('',#199);
#201=CARTESIAN_POINT('',(1.349769580819E1,9.688398397890E0,6.614173228346E-3));
#202=VERTEX_POINT('',#201);
#203=CARTESIAN_POINT('',(1.353543628063E1,9.679689058110E0,0.E0));
#204=VERTEX_POINT('',#203);
#205=CARTESIAN_POINT('',(1.353543628063E1,9.688398397890E0,6.614173228346E-3));
#206=VERTEX_POINT('',#205);
#207=CARTESIAN_POINT('',(1.353543628063E1,9.679689058110E0,0.E0));
#208=DIRECTION('',(0.E0,0.E0,-1.E0));
#209=DIRECTION('',(-1.E0,0.E0,0.E0));
#210=AXIS2_PLACEMENT_3D('',#207,#208,#209);
#211=PLANE('',#210);
#213=ORIENTED_EDGE('',*,*,#212,.F.);
#215=ORIENTED_EDGE('',*,*,#214,.F.);
#217=ORIENTED_EDGE('',*,*,#216,.F.);
#219=ORIENTED_EDGE('',*,*,#218,.F.);
#221=ORIENTED_EDGE('',*,*,#220,.F.);
#223=ORIENTED_EDGE('',*,*,#222,.F.);
#225=ORIENTED_EDGE('',*,*,#224,.F.);
#227=ORIENTED_EDGE('',*,*,#226,.F.);
#229=ORIENTED_EDGE('',*,*,#228,.F.);
#231=ORIENTED_EDGE('',*,*,#230,.F.);
#233=ORIENTED_EDGE('',*,*,#232,.F.);
#235=ORIENTED_EDGE('',*,*,#234,.F.);
#236=EDGE_LOOP('',(#213,#215,#217,#219,#221,#223,#225,#227,#229,#231,#233,
#235));
#237=FACE_OUTER_BOUND('',#236,.F.);
#239=FILL_AREA_STYLE_COLOUR('',#14);
#240=FILL_AREA_STYLE('',(#239));
#241=SURFACE_STYLE_FILL_AREA(#240);
#242=SURFACE_SIDE_STYLE('',(#241));
#243=SURFACE_STYLE_USAGE(.BOTH.,#242);
#244=PRESENTATION_STYLE_ASSIGNMENT((#243));
#245=STYLED_ITEM('',(#244),#238);
#246=CARTESIAN_POINT('',(1.353543628063E1,9.679689058110E0,6.614173228346E-3));
#247=DIRECTION('',(1.E0,0.E0,0.E0));
#248=DIRECTION('',(0.E0,0.E0,-1.E0));
#249=AXIS2_PLACEMENT_3D('',#246,#247,#248);
#250=PLANE('',#249);
#252=ORIENTED_EDGE('',*,*,#251,.F.);
#254=ORIENTED_EDGE('',*,*,#253,.T.);
#255=ORIENTED_EDGE('',*,*,#212,.T.);
#257=ORIENTED_EDGE('',*,*,#256,.F.);
#258=EDGE_LOOP('',(#252,#254,#255,#257));
#259=FACE_OUTER_BOUND('',#258,.F.);
#261=FILL_AREA_STYLE_COLOUR('',#14);
#262=FILL_AREA_STYLE('',(#261));
#263=SURFACE_STYLE_FILL_AREA(#262);
#264=SURFACE_SIDE_STYLE('',(#263));
#265=SURFACE_STYLE_USAGE(.BOTH.,#264);
#266=PRESENTATION_STYLE_ASSIGNMENT((#265));
#267=STYLED_ITEM('',(#266),#260);
#268=CARTESIAN_POINT('',(1.353543628063E1,9.679689058110E0,6.614173228346E-3));
#269=DIRECTION('',(0.E0,0.E0,-1.E0));
#270=DIRECTION('',(-1.E0,0.E0,0.E0));
#271=AXIS2_PLACEMENT_3D('',#268,#269,#270);
#272=PLANE('',#271);
#274=ORIENTED_EDGE('',*,*,#273,.T.);
#276=ORIENTED_EDGE('',*,*,#275,.T.);
#278=ORIENTED_EDGE('',*,*,#277,.T.);
#280=ORIENTED_EDGE('',*,*,#279,.T.);
#282=ORIENTED_EDGE('',*,*,#281,.T.);
#284=ORIENTED_EDGE('',*,*,#283,.T.);
#286=ORIENTED_EDGE('',*,*,#285,.T.);
#288=ORIENTED_EDGE('',*,*,#287,.T.);
#290=ORIENTED_EDGE('',*,*,#289,.T.);
#292=ORIENTED_EDGE('',*,*,#291,.T.);
#294=ORIENTED_EDGE('',*,*,#293,.T.);
#295=ORIENTED_EDGE('',*,*,#251,.T.);
#296=EDGE_LOOP('',(#274,#276,#278,#280,#282,#284,#286,#288,#290,#292,#294,
#295));
#297=FACE_OUTER_BOUND('',#296,.F.);
#299=FILL_AREA_STYLE_COLOUR('',#14);
#300=FILL_AREA_STYLE('',(#299));
#301=SURFACE_STYLE_FILL_AREA(#300);
#302=SURFACE_SIDE_STYLE('',(#301));
#303=SURFACE_STYLE_USAGE(.BOTH.,#302);
#304=PRESENTATION_STYLE_ASSIGNMENT((#303));
#305=STYLED_ITEM('',(#304),#298);
#306=CARTESIAN_POINT('',(1.348705105956E1,9.679689058110E0,6.614173228346E-3));
#307=DIRECTION('',(0.E0,-1.E0,0.E0));
#308=DIRECTION('',(0.E0,0.E0,-1.E0));
#309=AXIS2_PLACEMENT_3D('',#306,#307,#308);
#310=PLANE('',#309);
#311=ORIENTED_EDGE('',*,*,#273,.F.);
#312=ORIENTED_EDGE('',*,*,#256,.T.);
#313=ORIENTED_EDGE('',*,*,#234,.T.);
#315=ORIENTED_EDGE('',*,*,#314,.F.);
#316=EDGE_LOOP('',(#311,#312,#313,#315));
#317=FACE_OUTER_BOUND('',#316,.F.);
#319=FILL_AREA_STYLE_COLOUR('',#14);
#320=FILL_AREA_STYLE('',(#319));
#321=SURFACE_STYLE_FILL_AREA(#320);
#322=SURFACE_SIDE_STYLE('',(#321));
#323=SURFACE_STYLE_USAGE(.BOTH.,#322);
#324=PRESENTATION_STYLE_ASSIGNMENT((#323));
#325=STYLED_ITEM('',(#324),#318);
#326=CARTESIAN_POINT('',(1.348705105956E1,9.679689058110E0,0.E0));
#327=DIRECTION('',(-1.E0,0.E0,0.E0));
#328=DIRECTION('',(0.E0,0.E0,1.E0));
#329=AXIS2_PLACEMENT_3D('',#326,#327,#328);
#330=PLANE('',#329);
#331=ORIENTED_EDGE('',*,*,#275,.F.);
#332=ORIENTED_EDGE('',*,*,#314,.T.);
#333=ORIENTED_EDGE('',*,*,#232,.T.);
#335=ORIENTED_EDGE('',*,*,#334,.T.);
#336=EDGE_LOOP('',(#331,#332,#333,#335));
#337=FACE_OUTER_BOUND('',#336,.F.);
#339=FILL_AREA_STYLE_COLOUR('',#14);
#340=FILL_AREA_STYLE('',(#339));
#341=SURFACE_STYLE_FILL_AREA(#340);
#342=SURFACE_SIDE_STYLE('',(#341));
#343=SURFACE_STYLE_USAGE(.BOTH.,#342);
#344=PRESENTATION_STYLE_ASSIGNMENT((#343));
#345=STYLED_ITEM('',(#344),#338);
#346=CARTESIAN_POINT('',(1.348705105956E1,9.755170002992E0,0.E0));
#347=DIRECTION('',(0.E0,1.E0,0.E0));
#348=DIRECTION('',(0.E0,0.E0,1.E0));
#349=AXIS2_PLACEMENT_3D('',#346,#347,#348);
#350=PLANE('',#349);
#351=ORIENTED_EDGE('',*,*,#277,.F.);
#352=ORIENTED_EDGE('',*,*,#334,.F.);
#353=ORIENTED_EDGE('',*,*,#230,.T.);
#355=ORIENTED_EDGE('',*,*,#354,.F.);
#356=EDGE_LOOP('',(#351,#352,#353,#355));
#357=FACE_OUTER_BOUND('',#356,.F.);
#359=FILL_AREA_STYLE_COLOUR('',#14);
#360=FILL_AREA_STYLE('',(#359));
#361=SURFACE_STYLE_FILL_AREA(#360);
#362=SURFACE_SIDE_STYLE('',(#361));
#363=SURFACE_STYLE_USAGE(.BOTH.,#362);
#364=PRESENTATION_STYLE_ASSIGNMENT((#363));
#365=STYLED_ITEM('',(#364),#358);
#366=CARTESIAN_POINT('',(1.353543628063E1,9.746460663213E0,6.614173228346E-3));
#367=DIRECTION('',(1.E0,0.E0,0.E0));
#368=DIRECTION('',(0.E0,0.E0,-1.E0));
#369=AXIS2_PLACEMENT_3D('',#366,#367,#368);
#370=PLANE('',#369);
#371=ORIENTED_EDGE('',*,*,#279,.F.);
#372=ORIENTED_EDGE('',*,*,#354,.T.);
#373=ORIENTED_EDGE('',*,*,#228,.T.);
#375=ORIENTED_EDGE('',*,*,#374,.F.);
#376=EDGE_LOOP('',(#371,#372,#373,#375));
#377=FACE_OUTER_BOUND('',#376,.F.);
#379=FILL_AREA_STYLE_COLOUR('',#14);
#380=FILL_AREA_STYLE('',(#379));
#381=SURFACE_STYLE_FILL_AREA(#380);
#382=SURFACE_SIDE_STYLE('',(#381));
#383=SURFACE_STYLE_USAGE(.BOTH.,#382);
#384=PRESENTATION_STYLE_ASSIGNMENT((#383));
#385=STYLED_ITEM('',(#384),#378);
#386=CARTESIAN_POINT('',(1.349769580819E1,9.746460663213E0,6.614173228346E-3));
#387=DIRECTION('',(0.E0,-1.E0,0.E0));
#388=DIRECTION('',(0.E0,0.E0,-1.E0));
#389=AXIS2_PLACEMENT_3D('',#386,#387,#388);
#390=PLANE('',#389);
#391=ORIENTED_EDGE('',*,*,#281,.F.);
#392=ORIENTED_EDGE('',*,*,#374,.T.);
#393=ORIENTED_EDGE('',*,*,#226,.T.);
#395=ORIENTED_EDGE('',*,*,#394,.F.);
#396=EDGE_LOOP('',(#391,#392,#393,#395));
#397=FACE_OUTER_BOUND('',#396,.F.);
#399=FILL_AREA_STYLE_COLOUR('',#14);
#400=FILL_AREA_STYLE('',(#399));
#401=SURFACE_STYLE_FILL_AREA(#400);
#402=SURFACE_SIDE_STYLE('',(#401));
#403=SURFACE_STYLE_USAGE(.BOTH.,#402);
#404=PRESENTATION_STYLE_ASSIGNMENT((#403));
#405=STYLED_ITEM('',(#404),#398);
#406=CARTESIAN_POINT('',(1.349769580819E1,9.725171165906E0,6.614173228346E-3));
#407=DIRECTION('',(1.E0,0.E0,0.E0));
#408=DIRECTION('',(0.E0,0.E0,-1.E0));
#409=AXIS2_PLACEMENT_3D('',#406,#407,#408);
#410=PLANE('',#409);
#411=ORIENTED_EDGE('',*,*,#283,.F.);
#412=ORIENTED_EDGE('',*,*,#394,.T.);
#413=ORIENTED_EDGE('',*,*,#224,.T.);
#415=ORIENTED_EDGE('',*,*,#414,.F.);
#416=EDGE_LOOP('',(#411,#412,#413,#415));
#417=FACE_OUTER_BOUND('',#416,.F.);
#419=FILL_AREA_STYLE_COLOUR('',#14);
#420=FILL_AREA_STYLE('',(#419));
#421=SURFACE_STYLE_FILL_AREA(#420);
#422=SURFACE_SIDE_STYLE('',(#421));
#423=SURFACE_STYLE_USAGE(.BOTH.,#422);
#424=PRESENTATION_STYLE_ASSIGNMENT((#423));
#425=STYLED_ITEM('',(#424),#418);
#426=CARTESIAN_POINT('',(1.349769580819E1,9.725171165906E0,0.E0));
#427=DIRECTION('',(0.E0,1.E0,0.E0));
#428=DIRECTION('',(0.E0,0.E0,1.E0));
#429=AXIS2_PLACEMENT_3D('',#426,#427,#428);
#430=PLANE('',#429);
#431=ORIENTED_EDGE('',*,*,#285,.F.);
#432=ORIENTED_EDGE('',*,*,#414,.T.);
#433=ORIENTED_EDGE('',*,*,#222,.T.);
#435=ORIENTED_EDGE('',*,*,#434,.F.);
#436=EDGE_LOOP('',(#431,#432,#433,#435));
#437=FACE_OUTER_BOUND('',#436,.F.);
#439=FILL_AREA_STYLE_COLOUR('',#14);
#440=FILL_AREA_STYLE('',(#439));
#441=SURFACE_STYLE_FILL_AREA(#440);
#442=SURFACE_SIDE_STYLE('',(#441));
#443=SURFACE_STYLE_USAGE(.BOTH.,#442);
#444=PRESENTATION_STYLE_ASSIGNMENT((#443));
#445=STYLED_ITEM('',(#444),#438);
#446=CARTESIAN_POINT('',(1.353543628063E1,9.716461826126E0,6.614173228346E-3));
#447=DIRECTION('',(1.E0,0.E0,0.E0));
#448=DIRECTION('',(0.E0,0.E0,-1.E0));
#449=AXIS2_PLACEMENT_3D('',#446,#447,#448);
#450=PLANE('',#449);
#451=ORIENTED_EDGE('',*,*,#287,.F.);
#452=ORIENTED_EDGE('',*,*,#434,.T.);
#453=ORIENTED_EDGE('',*,*,#220,.T.);
#455=ORIENTED_EDGE('',*,*,#454,.F.);
#456=EDGE_LOOP('',(#451,#452,#453,#455));
#457=FACE_OUTER_BOUND('',#456,.F.);
#459=FILL_AREA_STYLE_COLOUR('',#14);
#460=FILL_AREA_STYLE('',(#459));
#461=SURFACE_STYLE_FILL_AREA(#460);
#462=SURFACE_SIDE_STYLE('',(#461));
#463=SURFACE_STYLE_USAGE(.BOTH.,#462);
#464=PRESENTATION_STYLE_ASSIGNMENT((#463));
#465=STYLED_ITEM('',(#464),#458);
#466=CARTESIAN_POINT('',(1.349769580819E1,9.716461826126E0,6.614173228346E-3));
#467=DIRECTION('',(0.E0,-1.E0,0.E0));
#468=DIRECTION('',(0.E0,0.E0,-1.E0));
#469=AXIS2_PLACEMENT_3D('',#466,#467,#468);
#470=PLANE('',#469);
#471=ORIENTED_EDGE('',*,*,#289,.F.);
#472=ORIENTED_EDGE('',*,*,#454,.T.);
#473=ORIENTED_EDGE('',*,*,#218,.T.);
#475=ORIENTED_EDGE('',*,*,#474,.F.);
#476=EDGE_LOOP('',(#471,#472,#473,#475));
#477=FACE_OUTER_BOUND('',#476,.F.);
#479=FILL_AREA_STYLE_COLOUR('',#14);
#480=FILL_AREA_STYLE('',(#479));
#481=SURFACE_STYLE_FILL_AREA(#480);
#482=SURFACE_SIDE_STYLE('',(#481));
#483=SURFACE_STYLE_USAGE(.BOTH.,#482);
#484=PRESENTATION_STYLE_ASSIGNMENT((#483));
#485=STYLED_ITEM('',(#484),#478);
#486=CARTESIAN_POINT('',(1.349769580819E1,9.688398397890E0,6.614173228346E-3));
#487=DIRECTION('',(1.E0,0.E0,0.E0));
#488=DIRECTION('',(0.E0,0.E0,-1.E0));
#489=AXIS2_PLACEMENT_3D('',#486,#487,#488);
#490=PLANE('',#489);
#491=ORIENTED_EDGE('',*,*,#291,.F.);
#492=ORIENTED_EDGE('',*,*,#474,.T.);
#493=ORIENTED_EDGE('',*,*,#216,.T.);
#495=ORIENTED_EDGE('',*,*,#494,.F.);
#496=EDGE_LOOP('',(#491,#492,#493,#495));
#497=FACE_OUTER_BOUND('',#496,.F.);
#499=FILL_AREA_STYLE_COLOUR('',#14);
#500=FILL_AREA_STYLE('',(#499));
#501=SURFACE_STYLE_FILL_AREA(#500);
#502=SURFACE_SIDE_STYLE('',(#501));
#503=SURFACE_STYLE_USAGE(.BOTH.,#502);
#504=PRESENTATION_STYLE_ASSIGNMENT((#503));
#505=STYLED_ITEM('',(#504),#498);
#506=CARTESIAN_POINT('',(1.349769580819E1,9.688398397890E0,0.E0));
#507=DIRECTION('',(0.E0,1.E0,0.E0));
#508=DIRECTION('',(0.E0,0.E0,1.E0));
#509=AXIS2_PLACEMENT_3D('',#506,#507,#508);
#510=PLANE('',#509);
#511=ORIENTED_EDGE('',*,*,#293,.F.);
#512=ORIENTED_EDGE('',*,*,#494,.T.);
#513=ORIENTED_EDGE('',*,*,#214,.T.);
#514=ORIENTED_EDGE('',*,*,#253,.F.);
#515=EDGE_LOOP('',(#511,#512,#513,#514));
#516=FACE_OUTER_BOUND('',#515,.F.);
#518=FILL_AREA_STYLE_COLOUR('',#14);
#519=FILL_AREA_STYLE('',(#518));
#520=SURFACE_STYLE_FILL_AREA(#519);
#521=SURFACE_SIDE_STYLE('',(#520));
#522=SURFACE_STYLE_USAGE(.BOTH.,#521);
#523=PRESENTATION_STYLE_ASSIGNMENT((#522));
#524=STYLED_ITEM('',(#523),#517);
#527=PRESENTATION_LAYER_ASSIGNMENT('SHELL_354','',(#238,#260,#298,#318,#338,
#358,#378,#398,#418,#438,#458,#478,#498,#517,#526));
#529=LENGTH_MEASURE_WITH_UNIT(LENGTH_MEASURE(2.54E1),#528);
#530=(CONVERSION_BASED_UNIT('INCH',#529)LENGTH_UNIT()NAMED_UNIT(*));
#532=PLANE_ANGLE_MEASURE_WITH_UNIT(PLANE_ANGLE_MEASURE(1.745329251994E-2),#531);
#533=(CONVERSION_BASED_UNIT('DEGREE',#532)NAMED_UNIT(*)PLANE_ANGLE_UNIT());
#535=UNCERTAINTY_MEASURE_WITH_UNIT(LENGTH_MEASURE(7.492227352147E-5),#530,
'closure',
'Maximum model space distance between geometric entities at asserted connectivities');
#537=CARTESIAN_POINT('',(0.E0,0.E0,0.E0));
#538=DIRECTION('',(0.E0,0.E0,1.E0));
#539=DIRECTION('',(1.E0,0.E0,0.E0));
#542=MECHANICAL_DESIGN_GEOMETRIC_PRESENTATION_REPRESENTATION('',(#245,#267,#305,
#325,#345,#365,#385,#405,#425,#445,#465,#485,#505,#524),#536);
#543=APPLICATION_CONTEXT('automotive design');
#544=APPLICATION_PROTOCOL_DEFINITION('international standard',
'config_control_design',1994,#543);
#545=PRODUCT_DEFINITION_CONTEXT('',#543,'design');
#546=PRODUCT_CONTEXT('',#543,'mechanical');
#547=PRODUCT('NO_10LOGO-340','NO_10LOGO-340','NOT SPECIFIED',(#546));
#548=PRODUCT_DEFINITION_FORMATION_WITH_SPECIFIED_SOURCE('1','LAST_VERSION',#547,
.MADE.);
#556=LENGTH_MEASURE_WITH_UNIT(LENGTH_MEASURE(2.54E1),#555);
#557=(CONVERSION_BASED_UNIT('INCH',#556)LENGTH_UNIT()NAMED_UNIT(*));
#558=DERIVED_UNIT_ELEMENT(#557,2.E0);
#559=AREA_UNIT((#558));
#560=MEASURE_REPRESENTATION_ITEM('surface area measure',AREA_MEASURE(
4.010412368877E-6),#559);
#565=LENGTH_MEASURE_WITH_UNIT(LENGTH_MEASURE(2.54E1),#564);
#566=(CONVERSION_BASED_UNIT('INCH',#565)LENGTH_UNIT()NAMED_UNIT(*));
#567=DERIVED_UNIT_ELEMENT(#566,2.E0);
#568=AREA_UNIT((#567));
#569=MEASURE_REPRESENTATION_ITEM('surface area measure',AREA_MEASURE(
4.010412368877E-6),#568);
#1=DRAUGHTING_PRE_DEFINED_COLOUR('green');
#2=COLOUR_RGB('',1.1E-2,1.2E-2,1.E0);
#3=COLOUR_RGB('',2.352941176471E-1,2.352941176471E-1,2.352941176471E-1);
#4=COLOUR_RGB('',4.1E-1,2.61589E-1,1.12848E-1);
#5=COLOUR_RGB('',5.04854E-1,1.5455E-2,1.5455E-2);
#6=COLOUR_RGB('',6.35294E-1,6.86275E-1,7.4902E-1);
#7=COLOUR_RGB('',6.40777E-1,6.40777E-1,6.40777E-1);
#8=COLOUR_RGB('',6.69062E-1,6.69903E-1,6.55217E-1);
#9=COLOUR_RGB('',9.21569E-1,7.05882E-1,4.70588E-1);
#10=DRAUGHTING_PRE_DEFINED_COLOUR('red');
#11=DRAUGHTING_PRE_DEFINED_COLOUR('yellow');
#12=COLOUR_RGB('',1.E0,1.E0,5.3E-1);
#13=COLOUR_RGB('',1.E0,1.E0,9.49E-1);
#14=DRAUGHTING_PRE_DEFINED_COLOUR('white');
#212=EDGE_CURVE('',#200,#204,#18,.T.);
#214=EDGE_CURVE('',#196,#200,#22,.T.);
#216=EDGE_CURVE('',#192,#196,#26,.T.);
#218=EDGE_CURVE('',#188,#192,#30,.T.);
#220=EDGE_CURVE('',#184,#188,#34,.T.);
#222=EDGE_CURVE('',#180,#184,#38,.T.);
#224=EDGE_CURVE('',#174,#180,#42,.T.);
#226=EDGE_CURVE('',#173,#174,#46,.T.);
#228=EDGE_CURVE('',#166,#173,#50,.T.);
#230=EDGE_CURVE('',#165,#166,#54,.T.);
#232=EDGE_CURVE('',#170,#165,#58,.T.);
#234=EDGE_CURVE('',#204,#170,#62,.T.);
#238=ADVANCED_FACE('',(#237),#211,.T.);
#251=EDGE_CURVE('',#206,#168,#66,.T.);
#253=EDGE_CURVE('',#206,#200,#158,.T.);
#256=EDGE_CURVE('',#168,#204,#70,.T.);
#260=ADVANCED_FACE('',(#259),#250,.T.);
#273=EDGE_CURVE('',#168,#161,#74,.T.);
#275=EDGE_CURVE('',#161,#162,#82,.T.);
#277=EDGE_CURVE('',#162,#176,#86,.T.);
#279=EDGE_CURVE('',#176,#178,#98,.T.);
#281=EDGE_CURVE('',#178,#182,#106,.T.);
#283=EDGE_CURVE('',#182,#186,#114,.T.);
#285=EDGE_CURVE('',#186,#190,#122,.T.);
#287=EDGE_CURVE('',#190,#194,#130,.T.);
#289=EDGE_CURVE('',#194,#198,#138,.T.);
#291=EDGE_CURVE('',#198,#202,#146,.T.);
#293=EDGE_CURVE('',#202,#206,#154,.T.);
#298=ADVANCED_FACE('',(#297),#272,.F.);
#314=EDGE_CURVE('',#161,#170,#78,.T.);
#318=ADVANCED_FACE('',(#317),#310,.T.);
#334=EDGE_CURVE('',#165,#162,#90,.T.);
#338=ADVANCED_FACE('',(#337),#330,.T.);
#354=EDGE_CURVE('',#176,#166,#94,.T.);
#358=ADVANCED_FACE('',(#357),#350,.T.);
#374=EDGE_CURVE('',#178,#173,#102,.T.);
#378=ADVANCED_FACE('',(#377),#370,.T.);
#394=EDGE_CURVE('',#182,#174,#110,.T.);
#398=ADVANCED_FACE('',(#397),#390,.T.);
#414=EDGE_CURVE('',#186,#180,#118,.T.);
#418=ADVANCED_FACE('',(#417),#410,.T.);
#434=EDGE_CURVE('',#190,#184,#126,.T.);
#438=ADVANCED_FACE('',(#437),#430,.T.);
#454=EDGE_CURVE('',#194,#188,#134,.T.);
#458=ADVANCED_FACE('',(#457),#450,.T.);
#474=EDGE_CURVE('',#198,#192,#142,.T.);
#478=ADVANCED_FACE('',(#477),#470,.T.);
#494=EDGE_CURVE('',#202,#196,#150,.T.);
#498=ADVANCED_FACE('',(#497),#490,.T.);
#517=ADVANCED_FACE('',(#516),#510,.T.);
#525=CLOSED_SHELL('',(#238,#260,#298,#318,#338,#358,#378,#398,#418,#438,#458,
#478,#498,#517));
#526=MANIFOLD_SOLID_BREP('',#525);
#528=(LENGTH_UNIT()NAMED_UNIT(*)SI_UNIT(.MILLI.,.METRE.));
#531=(NAMED_UNIT(*)PLANE_ANGLE_UNIT()SI_UNIT($,.RADIAN.));
#534=(NAMED_UNIT(*)SI_UNIT($,.STERADIAN.)SOLID_ANGLE_UNIT());
#536=(GEOMETRIC_REPRESENTATION_CONTEXT(3)GLOBAL_UNCERTAINTY_ASSIGNED_CONTEXT((
#535))GLOBAL_UNIT_ASSIGNED_CONTEXT((#530,#533,#534))REPRESENTATION_CONTEXT
('ID1','3'));
#540=AXIS2_PLACEMENT_3D('',#537,#538,#539);
#541=ADVANCED_BREP_SHAPE_REPRESENTATION('',(#540,#526),#536);
#549=PRODUCT_DEFINITION('design','',#548,#545);
#550=PRODUCT_DEFINITION_SHAPE('','SHAPE FOR NO_10LOGO-340.',#549);
#551=SHAPE_ASPECT('','solid data associated with NO_10LOGO-340',#550,.F.);
#552=PROPERTY_DEFINITION('',
'shape for solid data with which properties are associated',#551);
#553=SHAPE_REPRESENTATION('',(#526),#536);
#554=SHAPE_DEFINITION_REPRESENTATION(#552,#553);
#555=(LENGTH_UNIT()NAMED_UNIT(*)SI_UNIT(.MILLI.,.METRE.));
#561=PROPERTY_DEFINITION('geometric validation property',
'area of NO_10LOGO-340',#551);
#562=REPRESENTATION('surface area',(#560),#536);
#563=PROPERTY_DEFINITION_REPRESENTATION(#561,#562);
#564=(LENGTH_UNIT()NAMED_UNIT(*)SI_UNIT(.MILLI.,.METRE.));
#570=PROPERTY_DEFINITION('geometric validation property',
'area of NO_10LOGO-340',#550);
#571=REPRESENTATION('surface area',(#569),#536);
#572=PROPERTY_DEFINITION_REPRESENTATION(#570,#571);
#573=SHAPE_DEFINITION_REPRESENTATION(#550,#541);
ENDSEC;
END-ISO-10303-21;
