ISO-10303-21;
HEADER;
FILE_DESCRIPTION((''),'2;1');
FILE_NAME('NO_10LOGO-352','2026-06-15T13:45:42',('Esia'),(''),
'CREO PARAMETRIC BY PTC INC, 2025102','CREO PARAMETRIC BY PTC INC, 2025102','');
FILE_SCHEMA((
'AP242_MANAGED_MODEL_BASED_3D_ENGINEERING_MIM_LF { 1 0 10303 442 1 1 4 }'));
ENDSEC;
DATA;
#15=DIRECTION('',(0.E0,-1.E0,0.E0));
#16=VECTOR('',#15,5.612685647244E-2);
#17=CARTESIAN_POINT('',(1.385961726189E1,9.735815914583E0,0.E0));
#18=LINE('',#17,#16);
#19=DIRECTION('',(1.E0,0.E0,0.E0));
#20=VECTOR('',#19,1.064474862992E-2);
#21=CARTESIAN_POINT('',(1.384897251326E1,9.735815914583E0,0.E0));
#22=LINE('',#21,#20);
#23=DIRECTION('',(0.E0,1.E0,0.E0));
#24=VECTOR('',#23,5.612685647244E-2);
#25=CARTESIAN_POINT('',(1.384897251326E1,9.679689058110E0,0.E0));
#26=LINE('',#25,#24);
#27=DIRECTION('',(-1.E0,0.E0,0.E0));
#28=VECTOR('',#27,1.064474862992E-2);
#29=CARTESIAN_POINT('',(1.385961726189E1,9.679689058110E0,0.E0));
#30=LINE('',#29,#28);
#31=DIRECTION('',(0.E0,-1.E0,0.E0));
#32=VECTOR('',#31,5.612685647244E-2);
#33=CARTESIAN_POINT('',(1.385961726189E1,9.735815914583E0,6.614173228346E-3));
#34=LINE('',#33,#32);
#35=DIRECTION('',(0.E0,0.E0,-1.E0));
#36=VECTOR('',#35,6.614173228346E-3);
#37=CARTESIAN_POINT('',(1.385961726189E1,9.679689058110E0,6.614173228346E-3));
#38=LINE('',#37,#36);
#39=DIRECTION('',(-1.E0,0.E0,0.E0));
#40=VECTOR('',#39,1.064474862992E-2);
#41=CARTESIAN_POINT('',(1.385961726189E1,9.679689058110E0,6.614173228346E-3));
#42=LINE('',#41,#40);
#43=DIRECTION('',(0.E0,0.E0,-1.E0));
#44=VECTOR('',#43,6.614173228346E-3);
#45=CARTESIAN_POINT('',(1.384897251326E1,9.679689058110E0,6.614173228346E-3));
#46=LINE('',#45,#44);
#47=DIRECTION('',(0.E0,1.E0,0.E0));
#48=VECTOR('',#47,5.612685647244E-2);
#49=CARTESIAN_POINT('',(1.384897251326E1,9.679689058110E0,6.614173228346E-3));
#50=LINE('',#49,#48);
#51=DIRECTION('',(1.E0,0.E0,0.E0));
#52=VECTOR('',#51,1.064474862992E-2);
#53=CARTESIAN_POINT('',(1.384897251326E1,9.735815914583E0,6.614173228346E-3));
#54=LINE('',#53,#52);
#55=DIRECTION('',(0.E0,0.E0,1.E0));
#56=VECTOR('',#55,6.614173228346E-3);
#57=CARTESIAN_POINT('',(1.384897251326E1,9.735815914583E0,0.E0));
#58=LINE('',#57,#56);
#59=DIRECTION('',(0.E0,0.E0,-1.E0));
#60=VECTOR('',#59,6.614173228346E-3);
#61=CARTESIAN_POINT('',(1.385961726189E1,9.735815914583E0,6.614173228346E-3));
#62=LINE('',#61,#60);
#63=CARTESIAN_POINT('',(1.384897251326E1,9.679689058110E0,6.614173228346E-3));
#64=CARTESIAN_POINT('',(1.384897251326E1,9.735815914583E0,6.614173228346E-3));
#65=VERTEX_POINT('',#63);
#66=VERTEX_POINT('',#64);
#67=CARTESIAN_POINT('',(1.384897251326E1,9.735815914583E0,0.E0));
#68=CARTESIAN_POINT('',(1.385961726189E1,9.735815914583E0,0.E0));
#69=VERTEX_POINT('',#67);
#70=VERTEX_POINT('',#68);
#71=CARTESIAN_POINT('',(1.385961726189E1,9.679689058110E0,6.614173228346E-3));
#72=VERTEX_POINT('',#71);
#73=CARTESIAN_POINT('',(1.384897251326E1,9.679689058110E0,0.E0));
#74=VERTEX_POINT('',#73);
#75=CARTESIAN_POINT('',(1.385961726189E1,9.679689058110E0,0.E0));
#76=VERTEX_POINT('',#75);
#77=CARTESIAN_POINT('',(1.385961726189E1,9.735815914583E0,6.614173228346E-3));
#78=VERTEX_POINT('',#77);
#79=CARTESIAN_POINT('',(1.385961726189E1,9.679689058110E0,0.E0));
#80=DIRECTION('',(0.E0,0.E0,-1.E0));
#81=DIRECTION('',(-1.E0,0.E0,0.E0));
#82=AXIS2_PLACEMENT_3D('',#79,#80,#81);
#83=PLANE('',#82);
#85=ORIENTED_EDGE('',*,*,#84,.F.);
#87=ORIENTED_EDGE('',*,*,#86,.F.);
#89=ORIENTED_EDGE('',*,*,#88,.F.);
#91=ORIENTED_EDGE('',*,*,#90,.F.);
#92=EDGE_LOOP('',(#85,#87,#89,#91));
#93=FACE_OUTER_BOUND('',#92,.F.);
#95=FILL_AREA_STYLE_COLOUR('',#14);
#96=FILL_AREA_STYLE('',(#95));
#97=SURFACE_STYLE_FILL_AREA(#96);
#98=SURFACE_SIDE_STYLE('',(#97));
#99=SURFACE_STYLE_USAGE(.BOTH.,#98);
#100=PRESENTATION_STYLE_ASSIGNMENT((#99));
#101=STYLED_ITEM('',(#100),#94);
#102=CARTESIAN_POINT('',(1.385961726189E1,9.679689058110E0,6.614173228346E-3));
#103=DIRECTION('',(1.E0,0.E0,0.E0));
#104=DIRECTION('',(0.E0,0.E0,-1.E0));
#105=AXIS2_PLACEMENT_3D('',#102,#103,#104);
#106=PLANE('',#105);
#108=ORIENTED_EDGE('',*,*,#107,.F.);
#110=ORIENTED_EDGE('',*,*,#109,.T.);
#111=ORIENTED_EDGE('',*,*,#84,.T.);
#113=ORIENTED_EDGE('',*,*,#112,.F.);
#114=EDGE_LOOP('',(#108,#110,#111,#113));
#115=FACE_OUTER_BOUND('',#114,.F.);
#117=FILL_AREA_STYLE_COLOUR('',#14);
#118=FILL_AREA_STYLE('',(#117));
#119=SURFACE_STYLE_FILL_AREA(#118);
#120=SURFACE_SIDE_STYLE('',(#119));
#121=SURFACE_STYLE_USAGE(.BOTH.,#120);
#122=PRESENTATION_STYLE_ASSIGNMENT((#121));
#123=STYLED_ITEM('',(#122),#116);
#124=CARTESIAN_POINT('',(1.385961726189E1,9.679689058110E0,6.614173228346E-3));
#125=DIRECTION('',(0.E0,0.E0,-1.E0));
#126=DIRECTION('',(-1.E0,0.E0,0.E0));
#127=AXIS2_PLACEMENT_3D('',#124,#125,#126);
#128=PLANE('',#127);
#130=ORIENTED_EDGE('',*,*,#129,.T.);
#132=ORIENTED_EDGE('',*,*,#131,.T.);
#134=ORIENTED_EDGE('',*,*,#133,.T.);
#135=ORIENTED_EDGE('',*,*,#107,.T.);
#136=EDGE_LOOP('',(#130,#132,#134,#135));
#137=FACE_OUTER_BOUND('',#136,.F.);
#139=FILL_AREA_STYLE_COLOUR('',#14);
#140=FILL_AREA_STYLE('',(#139));
#141=SURFACE_STYLE_FILL_AREA(#140);
#142=SURFACE_SIDE_STYLE('',(#141));
#143=SURFACE_STYLE_USAGE(.BOTH.,#142);
#144=PRESENTATION_STYLE_ASSIGNMENT((#143));
#145=STYLED_ITEM('',(#144),#138);
#146=CARTESIAN_POINT('',(1.384897251326E1,9.679689058110E0,6.614173228346E-3));
#147=DIRECTION('',(0.E0,-1.E0,0.E0));
#148=DIRECTION('',(0.E0,0.E0,-1.E0));
#149=AXIS2_PLACEMENT_3D('',#146,#147,#148);
#150=PLANE('',#149);
#151=ORIENTED_EDGE('',*,*,#129,.F.);
#152=ORIENTED_EDGE('',*,*,#112,.T.);
#153=ORIENTED_EDGE('',*,*,#90,.T.);
#155=ORIENTED_EDGE('',*,*,#154,.F.);
#156=EDGE_LOOP('',(#151,#152,#153,#155));
#157=FACE_OUTER_BOUND('',#156,.F.);
#159=FILL_AREA_STYLE_COLOUR('',#14);
#160=FILL_AREA_STYLE('',(#159));
#161=SURFACE_STYLE_FILL_AREA(#160);
#162=SURFACE_SIDE_STYLE('',(#161));
#163=SURFACE_STYLE_USAGE(.BOTH.,#162);
#164=PRESENTATION_STYLE_ASSIGNMENT((#163));
#165=STYLED_ITEM('',(#164),#158);
#166=CARTESIAN_POINT('',(1.384897251326E1,9.679689058110E0,0.E0));
#167=DIRECTION('',(-1.E0,0.E0,0.E0));
#168=DIRECTION('',(0.E0,0.E0,1.E0));
#169=AXIS2_PLACEMENT_3D('',#166,#167,#168);
#170=PLANE('',#169);
#171=ORIENTED_EDGE('',*,*,#131,.F.);
#172=ORIENTED_EDGE('',*,*,#154,.T.);
#173=ORIENTED_EDGE('',*,*,#88,.T.);
#175=ORIENTED_EDGE('',*,*,#174,.T.);
#176=EDGE_LOOP('',(#171,#172,#173,#175));
#177=FACE_OUTER_BOUND('',#176,.F.);
#179=FILL_AREA_STYLE_COLOUR('',#14);
#180=FILL_AREA_STYLE('',(#179));
#181=SURFACE_STYLE_FILL_AREA(#180);
#182=SURFACE_SIDE_STYLE('',(#181));
#183=SURFACE_STYLE_USAGE(.BOTH.,#182);
#184=PRESENTATION_STYLE_ASSIGNMENT((#183));
#185=STYLED_ITEM('',(#184),#178);
#186=CARTESIAN_POINT('',(1.384897251326E1,9.735815914583E0,0.E0));
#187=DIRECTION('',(0.E0,1.E0,0.E0));
#188=DIRECTION('',(0.E0,0.E0,1.E0));
#189=AXIS2_PLACEMENT_3D('',#186,#187,#188);
#190=PLANE('',#189);
#191=ORIENTED_EDGE('',*,*,#133,.F.);
#192=ORIENTED_EDGE('',*,*,#174,.F.);
#193=ORIENTED_EDGE('',*,*,#86,.T.);
#194=ORIENTED_EDGE('',*,*,#109,.F.);
#195=EDGE_LOOP('',(#191,#192,#193,#194));
#196=FACE_OUTER_BOUND('',#195,.F.);
#198=FILL_AREA_STYLE_COLOUR('',#14);
#199=FILL_AREA_STYLE('',(#198));
#200=SURFACE_STYLE_FILL_AREA(#199);
#201=SURFACE_SIDE_STYLE('',(#200));
#202=SURFACE_STYLE_USAGE(.BOTH.,#201);
#203=PRESENTATION_STYLE_ASSIGNMENT((#202));
#204=STYLED_ITEM('',(#203),#197);
#207=PRESENTATION_LAYER_ASSIGNMENT('SHELL_353','',(#94,#116,#138,#158,#178,#197,
#206));
#209=LENGTH_MEASURE_WITH_UNIT(LENGTH_MEASURE(2.54E1),#208);
#210=(CONVERSION_BASED_UNIT('INCH',#209)LENGTH_UNIT()NAMED_UNIT(*));
#212=PLANE_ANGLE_MEASURE_WITH_UNIT(PLANE_ANGLE_MEASURE(1.745329251994E-2),#211);
#213=(CONVERSION_BASED_UNIT('DEGREE',#212)NAMED_UNIT(*)PLANE_ANGLE_UNIT());
#215=UNCERTAINTY_MEASURE_WITH_UNIT(LENGTH_MEASURE(4.792701944428E-5),#210,
'closure',
'Maximum model space distance between geometric entities at asserted connectivities');
#217=CARTESIAN_POINT('',(0.E0,0.E0,0.E0));
#218=DIRECTION('',(0.E0,0.E0,1.E0));
#219=DIRECTION('',(1.E0,0.E0,0.E0));
#222=MECHANICAL_DESIGN_GEOMETRIC_PRESENTATION_REPRESENTATION('',(#101,#123,#145,
#165,#185,#204),#216);
#223=APPLICATION_CONTEXT('automotive design');
#224=APPLICATION_PROTOCOL_DEFINITION('international standard',
'config_control_design',1994,#223);
#225=PRODUCT_DEFINITION_CONTEXT('',#223,'design');
#226=PRODUCT_CONTEXT('',#223,'mechanical');
#227=PRODUCT('NO_10LOGO-352','NO_10LOGO-352','NOT SPECIFIED',(#226));
#228=PRODUCT_DEFINITION_FORMATION_WITH_SPECIFIED_SOURCE('1','LAST_VERSION',#227,
.MADE.);
#236=LENGTH_MEASURE_WITH_UNIT(LENGTH_MEASURE(2.54E1),#235);
#237=(CONVERSION_BASED_UNIT('INCH',#236)LENGTH_UNIT()NAMED_UNIT(*));
#238=DERIVED_UNIT_ELEMENT(#237,2.E0);
#239=AREA_UNIT((#238));
#240=MEASURE_REPRESENTATION_ITEM('surface area measure',AREA_MEASURE(
1.340765371907E-6),#239);
#245=LENGTH_MEASURE_WITH_UNIT(LENGTH_MEASURE(2.54E1),#244);
#246=(CONVERSION_BASED_UNIT('INCH',#245)LENGTH_UNIT()NAMED_UNIT(*));
#247=DERIVED_UNIT_ELEMENT(#246,2.E0);
#248=AREA_UNIT((#247));
#249=MEASURE_REPRESENTATION_ITEM('surface area measure',AREA_MEASURE(
1.340765371907E-6),#248);
#1=DRAUGHTING_PRE_DEFINED_COLOUR('green');
#2=COLOUR_RGB('',1.1E-2,1.2E-2,1.E0);
#3=COLOUR_RGB('',2.352941176471E-1,2.352941176471E-1,2.352941176471E-1);
#4=COLOUR_RGB('',4.1E-1,2.61589E-1,1.12848E-1);
#5=COLOUR_RGB('',5.04854E-1,1.5455E-2,1.5455E-2);
#6=COLOUR_RGB('',6.35294E-1,6.86275E-1,7.4902E-1);
#7=COLOUR_RGB('',6.40777E-1,6.40777E-1,6.40777E-1);
#8=COLOUR_RGB('',6.69062E-1,6.69903E-1,6.55217E-1);
#9=COLOUR_RGB('',9.21569E-1,7.05882E-1,4.70588E-1);
#10=DRAUGHTING_PRE_DEFINED_COLOUR('red');
#11=DRAUGHTING_PRE_DEFINED_COLOUR('yellow');
#12=COLOUR_RGB('',1.E0,1.E0,5.3E-1);
#13=COLOUR_RGB('',1.E0,1.E0,9.49E-1);
#14=DRAUGHTING_PRE_DEFINED_COLOUR('white');
#84=EDGE_CURVE('',#70,#76,#18,.T.);
#86=EDGE_CURVE('',#69,#70,#22,.T.);
#88=EDGE_CURVE('',#74,#69,#26,.T.);
#90=EDGE_CURVE('',#76,#74,#30,.T.);
#94=ADVANCED_FACE('',(#93),#83,.T.);
#107=EDGE_CURVE('',#78,#72,#34,.T.);
#109=EDGE_CURVE('',#78,#70,#62,.T.);
#112=EDGE_CURVE('',#72,#76,#38,.T.);
#116=ADVANCED_FACE('',(#115),#106,.T.);
#129=EDGE_CURVE('',#72,#65,#42,.T.);
#131=EDGE_CURVE('',#65,#66,#50,.T.);
#133=EDGE_CURVE('',#66,#78,#54,.T.);
#138=ADVANCED_FACE('',(#137),#128,.F.);
#154=EDGE_CURVE('',#65,#74,#46,.T.);
#158=ADVANCED_FACE('',(#157),#150,.T.);
#174=EDGE_CURVE('',#69,#66,#58,.T.);
#178=ADVANCED_FACE('',(#177),#170,.T.);
#197=ADVANCED_FACE('',(#196),#190,.T.);
#205=CLOSED_SHELL('',(#94,#116,#138,#158,#178,#197));
#206=MANIFOLD_SOLID_BREP('',#205);
#208=(LENGTH_UNIT()NAMED_UNIT(*)SI_UNIT(.MILLI.,.METRE.));
#211=(NAMED_UNIT(*)PLANE_ANGLE_UNIT()SI_UNIT($,.RADIAN.));
#214=(NAMED_UNIT(*)SI_UNIT($,.STERADIAN.)SOLID_ANGLE_UNIT());
#216=(GEOMETRIC_REPRESENTATION_CONTEXT(3)GLOBAL_UNCERTAINTY_ASSIGNED_CONTEXT((
#215))GLOBAL_UNIT_ASSIGNED_CONTEXT((#210,#213,#214))REPRESENTATION_CONTEXT
('ID1','3'));
#220=AXIS2_PLACEMENT_3D('',#217,#218,#219);
#221=ADVANCED_BREP_SHAPE_REPRESENTATION('',(#220,#206),#216);
#229=PRODUCT_DEFINITION('design','',#228,#225);
#230=PRODUCT_DEFINITION_SHAPE('','SHAPE FOR NO_10LOGO-352.',#229);
#231=SHAPE_ASPECT('','solid data associated with NO_10LOGO-352',#230,.F.);
#232=PROPERTY_DEFINITION('',
'shape for solid data with which properties are associated',#231);
#233=SHAPE_REPRESENTATION('',(#206),#216);
#234=SHAPE_DEFINITION_REPRESENTATION(#232,#233);
#235=(LENGTH_UNIT()NAMED_UNIT(*)SI_UNIT(.MILLI.,.METRE.));
#241=PROPERTY_DEFINITION('geometric validation property',
'area of NO_10LOGO-352',#231);
#242=REPRESENTATION('surface area',(#240),#216);
#243=PROPERTY_DEFINITION_REPRESENTATION(#241,#242);
#244=(LENGTH_UNIT()NAMED_UNIT(*)SI_UNIT(.MILLI.,.METRE.));
#250=PROPERTY_DEFINITION('geometric validation property',
'area of NO_10LOGO-352',#230);
#251=REPRESENTATION('surface area',(#249),#216);
#252=PROPERTY_DEFINITION_REPRESENTATION(#250,#251);
#253=SHAPE_DEFINITION_REPRESENTATION(#230,#221);
ENDSEC;
END-ISO-10303-21;
