ISO-10303-21;
HEADER;
FILE_DESCRIPTION((''),'2;1');
FILE_NAME('NO_10LOGO-232','2026-06-15T13:45:42',('Esia'),(''),
'CREO PARAMETRIC BY PTC INC, 2025102','CREO PARAMETRIC BY PTC INC, 2025102','');
FILE_SCHEMA((
'AP242_MANAGED_MODEL_BASED_3D_ENGINEERING_MIM_LF { 1 0 10303 442 1 1 4 }'));
ENDSEC;
DATA;
#15=DIRECTION('',(1.E0,1.668763538866E-13,0.E0));
#16=VECTOR('',#15,1.064474862992E-2);
#17=CARTESIAN_POINT('',(1.387219741937E1,9.735815914583E0,0.E0));
#18=LINE('',#17,#16);
#19=DIRECTION('',(0.E0,1.E0,0.E0));
#20=VECTOR('',#19,5.612685647244E-2);
#21=CARTESIAN_POINT('',(1.387219741937E1,9.679689058110E0,0.E0));
#22=LINE('',#21,#20);
#23=DIRECTION('',(-1.E0,0.E0,0.E0));
#24=VECTOR('',#23,1.064474862992E-2);
#25=CARTESIAN_POINT('',(1.388284216800E1,9.679689058110E0,0.E0));
#26=LINE('',#25,#24);
#27=DIRECTION('',(0.E0,-1.E0,0.E0));
#28=VECTOR('',#27,2.053347822048E-2);
#29=CARTESIAN_POINT('',(1.388284216800E1,9.700222536331E0,0.E0));
#30=LINE('',#29,#28);
#31=CARTESIAN_POINT('',(1.388385523356E1,9.714435695008E0,0.E0));
#32=CARTESIAN_POINT('',(1.388376883663E1,9.714099174898E0,0.E0));
#33=CARTESIAN_POINT('',(1.388357954617E1,9.713361880016E0,0.E0));
#34=CARTESIAN_POINT('',(1.388340491258E1,9.712124332110E0,0.E0));
#35=CARTESIAN_POINT('',(1.388321222258E1,9.710679811606E0,0.E0));
#36=CARTESIAN_POINT('',(1.388309368545E1,9.709008098882E0,0.E0));
#37=CARTESIAN_POINT('',(1.388296163660E1,9.707124129780E0,0.E0));
#38=CARTESIAN_POINT('',(1.388289695717E1,9.705016041165E0,0.E0));
#39=CARTESIAN_POINT('',(1.388284930351E1,9.702692436992E0,0.E0));
#40=CARTESIAN_POINT('',(1.388284461430E1,9.701069313638E0,0.E0));
#41=CARTESIAN_POINT('',(1.388284216800E1,9.700222536331E0,0.E0));
#43=CARTESIAN_POINT('',(1.390196945069E1,9.728074279181E0,0.E0));
#44=CARTESIAN_POINT('',(1.390146483161E1,9.728063167937E0,0.E0));
#45=CARTESIAN_POINT('',(1.390046239035E1,9.728041095024E0,0.E0));
#46=CARTESIAN_POINT('',(1.389897722466E1,9.727848289370E0,0.E0));
#47=CARTESIAN_POINT('',(1.389751976509E1,9.727565703354E0,0.E0));
#48=CARTESIAN_POINT('',(1.389608965998E1,9.727159260331E0,0.E0));
#49=CARTESIAN_POINT('',(1.389470075362E1,9.726605173795E0,0.E0));
#50=CARTESIAN_POINT('',(1.389333915392E1,9.725958344126E0,0.E0));
#51=CARTESIAN_POINT('',(1.389200726787E1,9.725193483543E0,0.E0));
#52=CARTESIAN_POINT('',(1.389072519888E1,9.724310962252E0,0.E0));
#53=CARTESIAN_POINT('',(1.388950848024E1,9.723334140142E0,0.E0));
#54=CARTESIAN_POINT('',(1.388838066430E1,9.722288409165E0,0.E0));
#55=CARTESIAN_POINT('',(1.388736254943E1,9.721166011606E0,0.E0));
#56=CARTESIAN_POINT('',(1.388645543721E1,9.719961758457E0,0.E0));
#57=CARTESIAN_POINT('',(1.388562970649E1,9.718696881543E0,0.E0));
#58=CARTESIAN_POINT('',(1.388494105110E1,9.717336261638E0,0.E0));
#59=CARTESIAN_POINT('',(1.388432737989E1,9.715920644882E0,0.E0));
#60=CARTESIAN_POINT('',(1.388401325249E1,9.714932681197E0,0.E0));
#61=CARTESIAN_POINT('',(1.388385523356E1,9.714435695008E0,0.E0));
#63=CARTESIAN_POINT('',(1.391598604441E1,9.718170429260E0,0.E0));
#64=CARTESIAN_POINT('',(1.391578110425E1,9.718950853748E0,0.E0));
#65=CARTESIAN_POINT('',(1.391538570605E1,9.720456553890E0,0.E0));
#66=CARTESIAN_POINT('',(1.391436790724E1,9.722507226189E0,0.E0));
#67=CARTESIAN_POINT('',(1.391303777858E1,9.724250260110E0,0.E0));
#68=CARTESIAN_POINT('',(1.391137911567E1,9.725666509748E0,0.E0));
#69=CARTESIAN_POINT('',(1.390942730159E1,9.726766392283E0,0.E0));
#70=CARTESIAN_POINT('',(1.390718576287E1,9.727524075213E0,0.E0));
#71=CARTESIAN_POINT('',(1.390467117137E1,9.728004612520E0,0.E0));
#72=CARTESIAN_POINT('',(1.390289923460E1,9.728050303748E0,0.E0));
#73=CARTESIAN_POINT('',(1.390196945069E1,9.728074279181E0,0.E0));
#75=CARTESIAN_POINT('',(1.391671182274E1,9.706104364724E0,0.E0));
#76=CARTESIAN_POINT('',(1.391670752013E1,9.706825098520E0,0.E0));
#77=CARTESIAN_POINT('',(1.391669927561E1,9.708206145685E0,0.E0));
#78=CARTESIAN_POINT('',(1.391667579482E1,9.710187358205E0,0.E0));
#79=CARTESIAN_POINT('',(1.391660978556E1,9.711981473528E0,0.E0));
#80=CARTESIAN_POINT('',(1.391654366169E1,9.713585325260E0,0.E0));
#81=CARTESIAN_POINT('',(1.391643259417E1,9.714996292252E0,0.E0));
#82=CARTESIAN_POINT('',(1.391631941863E1,9.716222852315E0,0.E0));
#83=CARTESIAN_POINT('',(1.391617342805E1,9.717262722614E0,0.E0));
#84=CARTESIAN_POINT('',(1.391604420794E1,9.717888678898E0,0.E0));
#85=CARTESIAN_POINT('',(1.391598604441E1,9.718170429260E0,0.E0));
#87=DIRECTION('',(0.E0,1.E0,0.E0));
#88=VECTOR('',#87,2.641530661417E-2);
#89=CARTESIAN_POINT('',(1.391671182274E1,9.679689058110E0,0.E0));
#90=LINE('',#89,#88);
#91=DIRECTION('',(-1.E0,0.E0,0.E0));
#92=VECTOR('',#91,1.064474862992E-2);
#93=CARTESIAN_POINT('',(1.392735657137E1,9.679689058110E0,0.E0));
#94=LINE('',#93,#92);
#95=DIRECTION('',(6.199522586344E-14,-1.E0,0.E0));
#96=VECTOR('',#95,2.865312311811E-2);
#97=CARTESIAN_POINT('',(1.392735657137E1,9.708342181228E0,0.E0));
#98=LINE('',#97,#96);
#99=CARTESIAN_POINT('',(1.390336052580E1,9.736783619008E0,0.E0));
#100=CARTESIAN_POINT('',(1.390397083701E1,9.736777852724E0,0.E0));
#101=CARTESIAN_POINT('',(1.390517872450E1,9.736766440488E0,0.E0));
#102=CARTESIAN_POINT('',(1.390695986244E1,9.736586729480E0,0.E0));
#103=CARTESIAN_POINT('',(1.390869258907E1,9.736334784283E0,0.E0));
#104=CARTESIAN_POINT('',(1.391037349323E1,9.735978308929E0,0.E0));
#105=CARTESIAN_POINT('',(1.391198990882E1,9.735485140016E0,0.E0));
#106=CARTESIAN_POINT('',(1.391355496885E1,9.734915788441E0,0.E0));
#107=CARTESIAN_POINT('',(1.391505926735E1,9.734229386362E0,0.E0));
#108=CARTESIAN_POINT('',(1.391650031835E1,9.733445306787E0,0.E0));
#109=CARTESIAN_POINT('',(1.391787800277E1,9.732587495953E0,0.E0));
#110=CARTESIAN_POINT('',(1.391916073219E1,9.731651537291E0,0.E0));
#111=CARTESIAN_POINT('',(1.392034448490E1,9.730652381291E0,0.E0));
#112=CARTESIAN_POINT('',(1.392142781778E1,9.729586935969E0,0.E0));
#113=CARTESIAN_POINT('',(1.392240775843E1,9.728450055354E0,0.E0));
#114=CARTESIAN_POINT('',(1.392330583517E1,9.727258023024E0,0.E0));
#115=CARTESIAN_POINT('',(1.392409023250E1,9.725993507291E0,0.E0));
#116=CARTESIAN_POINT('',(1.392480356287E1,9.724661686961E0,0.E0));
#117=CARTESIAN_POINT('',(1.392540968017E1,9.723202269024E0,0.E0));
#118=CARTESIAN_POINT('',(1.392594279619E1,9.721591921606E0,0.E0));
#119=CARTESIAN_POINT('',(1.392636979313E1,9.719804154378E0,0.E0));
#120=CARTESIAN_POINT('',(1.392673185099E1,9.717845948551E0,0.E0));
#121=CARTESIAN_POINT('',(1.392701870008E1,9.715716789543E0,0.E0));
#122=CARTESIAN_POINT('',(1.392720676833E1,9.713410248283E0,0.E0));
#123=CARTESIAN_POINT('',(1.392732959693E1,9.710934130488E0,0.E0));
#124=CARTESIAN_POINT('',(1.392734739052E1,9.709224360945E0,0.E0));
#125=CARTESIAN_POINT('',(1.392735657137E1,9.708342181228E0,0.E0));
#127=CARTESIAN_POINT('',(1.388284216800E1,9.726048148063E0,0.E0));
#128=CARTESIAN_POINT('',(1.388302414772E1,9.726491130189E0,0.E0));
#129=CARTESIAN_POINT('',(1.388338468290E1,9.727368758976E0,0.E0));
#130=CARTESIAN_POINT('',(1.388408999117E1,9.728598746598E0,0.E0));
#131=CARTESIAN_POINT('',(1.388491374071E1,9.729741376016E0,0.E0));
#132=CARTESIAN_POINT('',(1.388585165835E1,9.730799517591E0,0.E0));
#133=CARTESIAN_POINT('',(1.388690114627E1,9.731769944031E0,0.E0));
#134=CARTESIAN_POINT('',(1.388805971759E1,9.732660357449E0,0.E0));
#135=CARTESIAN_POINT('',(1.388935181863E1,9.733436161039E0,0.E0));
#136=CARTESIAN_POINT('',(1.389121315068E1,9.734387251890E0,0.E0));
#137=CARTESIAN_POINT('',(1.389369667814E1,9.735338110016E0,0.E0));
#138=CARTESIAN_POINT('',(1.389680628756E1,9.736179175843E0,0.E0));
#139=CARTESIAN_POINT('',(1.390004232709E1,9.736690768961E0,0.E0));
#140=CARTESIAN_POINT('',(1.390224482494E1,9.736752399354E0,0.E0));
#141=CARTESIAN_POINT('',(1.390336052580E1,9.736783619008E0,0.E0));
#143=DIRECTION('',(0.E0,-1.E0,0.E0));
#144=VECTOR('',#143,9.767766519683E-3);
#145=CARTESIAN_POINT('',(1.388284216800E1,9.735815914583E0,0.E0));
#146=LINE('',#145,#144);
#147=DIRECTION('',(1.E0,1.668763538866E-13,0.E0));
#148=VECTOR('',#147,1.064474862992E-2);
#149=CARTESIAN_POINT('',(1.387219741937E1,9.735815914583E0,6.614173228346E-3));
#150=LINE('',#149,#148);
#151=CARTESIAN_POINT('',(1.390336052580E1,9.736783619008E0,6.614173228346E-3));
#152=CARTESIAN_POINT('',(1.390224482494E1,9.736752399354E0,6.614173228346E-3));
#153=CARTESIAN_POINT('',(1.390004232709E1,9.736690768961E0,6.614173228346E-3));
#154=CARTESIAN_POINT('',(1.389680628756E1,9.736179175843E0,6.614173228346E-3));
#155=CARTESIAN_POINT('',(1.389369667814E1,9.735338110016E0,6.614173228346E-3));
#156=CARTESIAN_POINT('',(1.389121315068E1,9.734387251890E0,6.614173228346E-3));
#157=CARTESIAN_POINT('',(1.388935181863E1,9.733436161039E0,6.614173228346E-3));
#158=CARTESIAN_POINT('',(1.388805971759E1,9.732660357449E0,6.614173228346E-3));
#159=CARTESIAN_POINT('',(1.388690114627E1,9.731769944031E0,6.614173228346E-3));
#160=CARTESIAN_POINT('',(1.388585165835E1,9.730799517591E0,6.614173228346E-3));
#161=CARTESIAN_POINT('',(1.388491374071E1,9.729741376016E0,6.614173228346E-3));
#162=CARTESIAN_POINT('',(1.388408999117E1,9.728598746598E0,6.614173228346E-3));
#163=CARTESIAN_POINT('',(1.388338468290E1,9.727368758976E0,6.614173228346E-3));
#164=CARTESIAN_POINT('',(1.388302414772E1,9.726491130189E0,6.614173228346E-3));
#165=CARTESIAN_POINT('',(1.388284216800E1,9.726048148063E0,6.614173228346E-3));
#167=CARTESIAN_POINT('',(1.392735657137E1,9.708342181228E0,6.614173228346E-3));
#168=CARTESIAN_POINT('',(1.392734739052E1,9.709224360945E0,6.614173228346E-3));
#169=CARTESIAN_POINT('',(1.392732959693E1,9.710934130488E0,6.614173228346E-3));
#170=CARTESIAN_POINT('',(1.392720676833E1,9.713410248283E0,6.614173228346E-3));
#171=CARTESIAN_POINT('',(1.392701870008E1,9.715716789543E0,6.614173228346E-3));
#172=CARTESIAN_POINT('',(1.392673185099E1,9.717845948551E0,6.614173228346E-3));
#173=CARTESIAN_POINT('',(1.392636979313E1,9.719804154378E0,6.614173228346E-3));
#174=CARTESIAN_POINT('',(1.392594279619E1,9.721591921606E0,6.614173228346E-3));
#175=CARTESIAN_POINT('',(1.392540968017E1,9.723202269024E0,6.614173228346E-3));
#176=CARTESIAN_POINT('',(1.392480356287E1,9.724661686961E0,6.614173228346E-3));
#177=CARTESIAN_POINT('',(1.392409023250E1,9.725993507291E0,6.614173228346E-3));
#178=CARTESIAN_POINT('',(1.392330583517E1,9.727258023024E0,6.614173228346E-3));
#179=CARTESIAN_POINT('',(1.392240775843E1,9.728450055354E0,6.614173228346E-3));
#180=CARTESIAN_POINT('',(1.392142781778E1,9.729586935969E0,6.614173228346E-3));
#181=CARTESIAN_POINT('',(1.392034448490E1,9.730652381291E0,6.614173228346E-3));
#182=CARTESIAN_POINT('',(1.391916073219E1,9.731651537291E0,6.614173228346E-3));
#183=CARTESIAN_POINT('',(1.391787800277E1,9.732587495953E0,6.614173228346E-3));
#184=CARTESIAN_POINT('',(1.391650031835E1,9.733445306787E0,6.614173228346E-3));
#185=CARTESIAN_POINT('',(1.391505926735E1,9.734229386362E0,6.614173228346E-3));
#186=CARTESIAN_POINT('',(1.391355496885E1,9.734915788441E0,6.614173228346E-3));
#187=CARTESIAN_POINT('',(1.391198990882E1,9.735485140016E0,6.614173228346E-3));
#188=CARTESIAN_POINT('',(1.391037349323E1,9.735978308929E0,6.614173228346E-3));
#189=CARTESIAN_POINT('',(1.390869258907E1,9.736334784283E0,6.614173228346E-3));
#190=CARTESIAN_POINT('',(1.390695986244E1,9.736586729480E0,6.614173228346E-3));
#191=CARTESIAN_POINT('',(1.390517872450E1,9.736766440488E0,6.614173228346E-3));
#192=CARTESIAN_POINT('',(1.390397083701E1,9.736777852724E0,6.614173228346E-3));
#193=CARTESIAN_POINT('',(1.390336052580E1,9.736783619008E0,6.614173228346E-3));
#195=CARTESIAN_POINT('',(1.391598604441E1,9.718170429260E0,6.614173228346E-3));
#196=CARTESIAN_POINT('',(1.391604420794E1,9.717888678898E0,6.614173228346E-3));
#197=CARTESIAN_POINT('',(1.391617342805E1,9.717262722614E0,6.614173228346E-3));
#198=CARTESIAN_POINT('',(1.391631941863E1,9.716222852315E0,6.614173228346E-3));
#199=CARTESIAN_POINT('',(1.391643259417E1,9.714996292252E0,6.614173228346E-3));
#200=CARTESIAN_POINT('',(1.391654366169E1,9.713585325260E0,6.614173228346E-3));
#201=CARTESIAN_POINT('',(1.391660978556E1,9.711981473528E0,6.614173228346E-3));
#202=CARTESIAN_POINT('',(1.391667579482E1,9.710187358205E0,6.614173228346E-3));
#203=CARTESIAN_POINT('',(1.391669927561E1,9.708206145685E0,6.614173228346E-3));
#204=CARTESIAN_POINT('',(1.391670752013E1,9.706825098520E0,6.614173228346E-3));
#205=CARTESIAN_POINT('',(1.391671182274E1,9.706104364724E0,6.614173228346E-3));
#207=CARTESIAN_POINT('',(1.390196945069E1,9.728074279181E0,6.614173228346E-3));
#208=CARTESIAN_POINT('',(1.390289923460E1,9.728050303748E0,6.614173228346E-3));
#209=CARTESIAN_POINT('',(1.390467117137E1,9.728004612520E0,6.614173228346E-3));
#210=CARTESIAN_POINT('',(1.390718576287E1,9.727524075213E0,6.614173228346E-3));
#211=CARTESIAN_POINT('',(1.390942730159E1,9.726766392283E0,6.614173228346E-3));
#212=CARTESIAN_POINT('',(1.391137911567E1,9.725666509748E0,6.614173228346E-3));
#213=CARTESIAN_POINT('',(1.391303777858E1,9.724250260110E0,6.614173228346E-3));
#214=CARTESIAN_POINT('',(1.391436790724E1,9.722507226189E0,6.614173228346E-3));
#215=CARTESIAN_POINT('',(1.391538570605E1,9.720456553890E0,6.614173228346E-3));
#216=CARTESIAN_POINT('',(1.391578110425E1,9.718950853748E0,6.614173228346E-3));
#217=CARTESIAN_POINT('',(1.391598604441E1,9.718170429260E0,6.614173228346E-3));
#219=CARTESIAN_POINT('',(1.388385523356E1,9.714435695008E0,6.614173228346E-3));
#220=CARTESIAN_POINT('',(1.388401325249E1,9.714932681197E0,6.614173228346E-3));
#221=CARTESIAN_POINT('',(1.388432737989E1,9.715920644882E0,6.614173228346E-3));
#222=CARTESIAN_POINT('',(1.388494105110E1,9.717336261638E0,6.614173228346E-3));
#223=CARTESIAN_POINT('',(1.388562970649E1,9.718696881543E0,6.614173228346E-3));
#224=CARTESIAN_POINT('',(1.388645543721E1,9.719961758457E0,6.614173228346E-3));
#225=CARTESIAN_POINT('',(1.388736254943E1,9.721166011606E0,6.614173228346E-3));
#226=CARTESIAN_POINT('',(1.388838066430E1,9.722288409165E0,6.614173228346E-3));
#227=CARTESIAN_POINT('',(1.388950848024E1,9.723334140142E0,6.614173228346E-3));
#228=CARTESIAN_POINT('',(1.389072519888E1,9.724310962252E0,6.614173228346E-3));
#229=CARTESIAN_POINT('',(1.389200726787E1,9.725193483543E0,6.614173228346E-3));
#230=CARTESIAN_POINT('',(1.389333915392E1,9.725958344126E0,6.614173228346E-3));
#231=CARTESIAN_POINT('',(1.389470075362E1,9.726605173795E0,6.614173228346E-3));
#232=CARTESIAN_POINT('',(1.389608965998E1,9.727159260331E0,6.614173228346E-3));
#233=CARTESIAN_POINT('',(1.389751976509E1,9.727565703354E0,6.614173228346E-3));
#234=CARTESIAN_POINT('',(1.389897722466E1,9.727848289370E0,6.614173228346E-3));
#235=CARTESIAN_POINT('',(1.390046239035E1,9.728041095024E0,6.614173228346E-3));
#236=CARTESIAN_POINT('',(1.390146483161E1,9.728063167937E0,6.614173228346E-3));
#237=CARTESIAN_POINT('',(1.390196945069E1,9.728074279181E0,6.614173228346E-3));
#239=CARTESIAN_POINT('',(1.388284216800E1,9.700222536331E0,6.614173228346E-3));
#240=CARTESIAN_POINT('',(1.388284461430E1,9.701069313638E0,6.614173228346E-3));
#241=CARTESIAN_POINT('',(1.388284930351E1,9.702692436992E0,6.614173228346E-3));
#242=CARTESIAN_POINT('',(1.388289695717E1,9.705016041165E0,6.614173228346E-3));
#243=CARTESIAN_POINT('',(1.388296163660E1,9.707124129780E0,6.614173228346E-3));
#244=CARTESIAN_POINT('',(1.388309368545E1,9.709008098882E0,6.614173228346E-3));
#245=CARTESIAN_POINT('',(1.388321222258E1,9.710679811606E0,6.614173228346E-3));
#246=CARTESIAN_POINT('',(1.388340491258E1,9.712124332110E0,6.614173228346E-3));
#247=CARTESIAN_POINT('',(1.388357954617E1,9.713361880016E0,6.614173228346E-3));
#248=CARTESIAN_POINT('',(1.388376883663E1,9.714099174898E0,6.614173228346E-3));
#249=CARTESIAN_POINT('',(1.388385523356E1,9.714435695008E0,6.614173228346E-3));
#251=DIRECTION('',(0.E0,-1.E0,0.E0));
#252=VECTOR('',#251,9.767766519682E-3);
#253=CARTESIAN_POINT('',(1.388284216800E1,9.735815914583E0,6.614173228346E-3));
#254=LINE('',#253,#252);
#255=DIRECTION('',(0.E0,2.685682364331E-13,1.E0));
#256=VECTOR('',#255,6.614173228346E-3);
#257=CARTESIAN_POINT('',(1.388284216800E1,9.735815914583E0,0.E0));
#258=LINE('',#257,#256);
#259=DIRECTION('',(0.E0,0.E0,1.E0));
#260=VECTOR('',#259,6.614173228346E-3);
#261=CARTESIAN_POINT('',(1.388284216800E1,9.726048148063E0,0.E0));
#262=LINE('',#261,#260);
#263=DIRECTION('',(0.E0,0.E0,1.E0));
#264=VECTOR('',#263,6.614173228346E-3);
#265=CARTESIAN_POINT('',(1.390336052580E1,9.736783619008E0,0.E0));
#266=LINE('',#265,#264);
#267=DIRECTION('',(2.685682364331E-13,0.E0,-1.E0));
#268=VECTOR('',#267,6.614173228346E-3);
#269=CARTESIAN_POINT('',(1.392735657137E1,9.708342181228E0,6.614173228346E-3));
#270=LINE('',#269,#268);
#271=DIRECTION('',(0.E0,-1.E0,0.E0));
#272=VECTOR('',#271,2.865312311811E-2);
#273=CARTESIAN_POINT('',(1.392735657137E1,9.708342181228E0,6.614173228346E-3));
#274=LINE('',#273,#272);
#275=DIRECTION('',(-1.E0,0.E0,0.E0));
#276=VECTOR('',#275,1.064474862992E-2);
#277=CARTESIAN_POINT('',(1.392735657137E1,9.679689058110E0,6.614173228346E-3));
#278=LINE('',#277,#276);
#279=DIRECTION('',(0.E0,0.E0,1.E0));
#280=VECTOR('',#279,6.614173228346E-3);
#281=CARTESIAN_POINT('',(1.392735657137E1,9.679689058110E0,0.E0));
#282=LINE('',#281,#280);
#283=DIRECTION('',(0.E0,1.E0,0.E0));
#284=VECTOR('',#283,2.641530661417E-2);
#285=CARTESIAN_POINT('',(1.391671182274E1,9.679689058110E0,6.614173228346E-3));
#286=LINE('',#285,#284);
#287=DIRECTION('',(0.E0,0.E0,1.E0));
#288=VECTOR('',#287,6.614173228346E-3);
#289=CARTESIAN_POINT('',(1.391671182274E1,9.679689058110E0,0.E0));
#290=LINE('',#289,#288);
#291=DIRECTION('',(0.E0,0.E0,1.E0));
#292=VECTOR('',#291,6.614173228346E-3);
#293=CARTESIAN_POINT('',(1.391671182274E1,9.706104364724E0,0.E0));
#294=LINE('',#293,#292);
#295=DIRECTION('',(0.E0,0.E0,1.E0));
#296=VECTOR('',#295,6.614173228346E-3);
#297=CARTESIAN_POINT('',(1.391598604441E1,9.718170429260E0,0.E0));
#298=LINE('',#297,#296);
#299=DIRECTION('',(2.685682364331E-13,0.E0,1.E0));
#300=VECTOR('',#299,6.614173228346E-3);
#301=CARTESIAN_POINT('',(1.390196945069E1,9.728074279181E0,0.E0));
#302=LINE('',#301,#300);
#303=DIRECTION('',(0.E0,0.E0,1.E0));
#304=VECTOR('',#303,6.614173228346E-3);
#305=CARTESIAN_POINT('',(1.388385523356E1,9.714435695008E0,0.E0));
#306=LINE('',#305,#304);
#307=DIRECTION('',(0.E0,0.E0,-1.E0));
#308=VECTOR('',#307,6.614173228346E-3);
#309=CARTESIAN_POINT('',(1.388284216800E1,9.700222536331E0,6.614173228346E-3));
#310=LINE('',#309,#308);
#311=DIRECTION('',(0.E0,-1.E0,0.E0));
#312=VECTOR('',#311,2.053347822047E-2);
#313=CARTESIAN_POINT('',(1.388284216800E1,9.700222536331E0,6.614173228346E-3));
#314=LINE('',#313,#312);
#315=DIRECTION('',(-1.E0,0.E0,0.E0));
#316=VECTOR('',#315,1.064474862992E-2);
#317=CARTESIAN_POINT('',(1.388284216800E1,9.679689058110E0,6.614173228346E-3));
#318=LINE('',#317,#316);
#319=DIRECTION('',(0.E0,0.E0,1.E0));
#320=VECTOR('',#319,6.614173228346E-3);
#321=CARTESIAN_POINT('',(1.388284216800E1,9.679689058110E0,0.E0));
#322=LINE('',#321,#320);
#323=DIRECTION('',(0.E0,1.E0,0.E0));
#324=VECTOR('',#323,5.612685647244E-2);
#325=CARTESIAN_POINT('',(1.387219741937E1,9.679689058110E0,6.614173228346E-3));
#326=LINE('',#325,#324);
#327=DIRECTION('',(0.E0,0.E0,1.E0));
#328=VECTOR('',#327,6.614173228346E-3);
#329=CARTESIAN_POINT('',(1.387219741937E1,9.679689058110E0,0.E0));
#330=LINE('',#329,#328);
#331=DIRECTION('',(0.E0,0.E0,-1.E0));
#332=VECTOR('',#331,6.614173228346E-3);
#333=CARTESIAN_POINT('',(1.387219741937E1,9.735815914583E0,6.614173228346E-3));
#334=LINE('',#333,#332);
#335=CARTESIAN_POINT('',(1.387219741937E1,9.735815914583E0,6.614173228346E-3));
#336=CARTESIAN_POINT('',(1.388284216800E1,9.735815914583E0,6.614173228346E-3));
#337=VERTEX_POINT('',#335);
#338=VERTEX_POINT('',#336);
#339=VERTEX_POINT('',#31);
#340=VERTEX_POINT('',#41);
#341=CARTESIAN_POINT('',(1.388284216800E1,9.726048148063E0,6.614173228346E-3));
#342=VERTEX_POINT('',#341);
#343=CARTESIAN_POINT('',(1.388284216800E1,9.735815914583E0,0.E0));
#344=VERTEX_POINT('',#343);
#345=VERTEX_POINT('',#43);
#346=VERTEX_POINT('',#63);
#347=CARTESIAN_POINT('',(1.388385523356E1,9.714435695008E0,6.614173228346E-3));
#348=VERTEX_POINT('',#347);
#349=CARTESIAN_POINT('',(1.388284216800E1,9.700222536331E0,6.614173228346E-3));
#350=VERTEX_POINT('',#349);
#351=CARTESIAN_POINT('',(1.388284216800E1,9.679689058110E0,0.E0));
#352=CARTESIAN_POINT('',(1.388284216800E1,9.679689058110E0,6.614173228346E-3));
#353=VERTEX_POINT('',#351);
#354=VERTEX_POINT('',#352);
#355=VERTEX_POINT('',#237);
#356=CARTESIAN_POINT('',(1.387219741937E1,9.679689058110E0,6.614173228346E-3));
#357=VERTEX_POINT('',#356);
#358=CARTESIAN_POINT('',(1.387219741937E1,9.679689058110E0,0.E0));
#359=VERTEX_POINT('',#358);
#360=CARTESIAN_POINT('',(1.387219741937E1,9.735815914583E0,0.E0));
#361=VERTEX_POINT('',#360);
#362=CARTESIAN_POINT('',(1.388284216800E1,9.726048148063E0,0.E0));
#363=VERTEX_POINT('',#362);
#364=CARTESIAN_POINT('',(1.390336052580E1,9.736783619008E0,0.E0));
#365=CARTESIAN_POINT('',(1.390336052580E1,9.736783619008E0,6.614173228346E-3));
#366=VERTEX_POINT('',#364);
#367=VERTEX_POINT('',#365);
#368=CARTESIAN_POINT('',(1.392735657137E1,9.708342181228E0,0.E0));
#369=CARTESIAN_POINT('',(1.392735657137E1,9.679689058110E0,0.E0));
#370=VERTEX_POINT('',#368);
#371=VERTEX_POINT('',#369);
#372=CARTESIAN_POINT('',(1.392735657137E1,9.679689058110E0,6.614173228346E-3));
#373=VERTEX_POINT('',#372);
#374=CARTESIAN_POINT('',(1.391671182274E1,9.679689058110E0,0.E0));
#375=CARTESIAN_POINT('',(1.391671182274E1,9.679689058110E0,6.614173228346E-3));
#376=VERTEX_POINT('',#374);
#377=VERTEX_POINT('',#375);
#378=CARTESIAN_POINT('',(1.391671182274E1,9.706104364724E0,0.E0));
#379=CARTESIAN_POINT('',(1.391671182274E1,9.706104364724E0,6.614173228346E-3));
#380=VERTEX_POINT('',#378);
#381=VERTEX_POINT('',#379);
#382=CARTESIAN_POINT('',(1.391598604441E1,9.718170429260E0,6.614173228346E-3));
#383=VERTEX_POINT('',#382);
#384=VERTEX_POINT('',#167);
#385=CARTESIAN_POINT('',(1.387219741937E1,9.679689058110E0,0.E0));
#386=DIRECTION('',(0.E0,0.E0,1.E0));
#387=DIRECTION('',(1.E0,0.E0,0.E0));
#388=AXIS2_PLACEMENT_3D('',#385,#386,#387);
#389=PLANE('',#388);
#391=ORIENTED_EDGE('',*,*,#390,.F.);
#393=ORIENTED_EDGE('',*,*,#392,.F.);
#395=ORIENTED_EDGE('',*,*,#394,.F.);
#397=ORIENTED_EDGE('',*,*,#396,.F.);
#399=ORIENTED_EDGE('',*,*,#398,.F.);
#401=ORIENTED_EDGE('',*,*,#400,.F.);
#403=ORIENTED_EDGE('',*,*,#402,.F.);
#405=ORIENTED_EDGE('',*,*,#404,.F.);
#407=ORIENTED_EDGE('',*,*,#406,.F.);
#409=ORIENTED_EDGE('',*,*,#408,.F.);
#411=ORIENTED_EDGE('',*,*,#410,.F.);
#413=ORIENTED_EDGE('',*,*,#412,.F.);
#415=ORIENTED_EDGE('',*,*,#414,.F.);
#417=ORIENTED_EDGE('',*,*,#416,.F.);
#418=EDGE_LOOP('',(#391,#393,#395,#397,#399,#401,#403,#405,#407,#409,#411,#413,
#415,#417));
#419=FACE_OUTER_BOUND('',#418,.F.);
#421=FILL_AREA_STYLE_COLOUR('',#14);
#422=FILL_AREA_STYLE('',(#421));
#423=SURFACE_STYLE_FILL_AREA(#422);
#424=SURFACE_SIDE_STYLE('',(#423));
#425=SURFACE_STYLE_USAGE(.BOTH.,#424);
#426=PRESENTATION_STYLE_ASSIGNMENT((#425));
#427=STYLED_ITEM('',(#426),#420);
#428=CARTESIAN_POINT('',(1.387219741937E1,9.735815914583E0,0.E0));
#429=DIRECTION('',(0.E0,1.E0,0.E0));
#430=DIRECTION('',(0.E0,0.E0,1.E0));
#431=AXIS2_PLACEMENT_3D('',#428,#429,#430);
#432=PLANE('',#431);
#434=ORIENTED_EDGE('',*,*,#433,.F.);
#436=ORIENTED_EDGE('',*,*,#435,.T.);
#437=ORIENTED_EDGE('',*,*,#390,.T.);
#439=ORIENTED_EDGE('',*,*,#438,.T.);
#440=EDGE_LOOP('',(#434,#436,#437,#439));
#441=FACE_OUTER_BOUND('',#440,.F.);
#443=FILL_AREA_STYLE_COLOUR('',#14);
#444=FILL_AREA_STYLE('',(#443));
#445=SURFACE_STYLE_FILL_AREA(#444);
#446=SURFACE_SIDE_STYLE('',(#445));
#447=SURFACE_STYLE_USAGE(.BOTH.,#446);
#448=PRESENTATION_STYLE_ASSIGNMENT((#447));
#449=STYLED_ITEM('',(#448),#442);
#450=CARTESIAN_POINT('',(1.387219741937E1,9.679689058110E0,6.614173228346E-3));
#451=DIRECTION('',(0.E0,0.E0,1.E0));
#452=DIRECTION('',(1.E0,0.E0,0.E0));
#453=AXIS2_PLACEMENT_3D('',#450,#451,#452);
#454=PLANE('',#453);
#456=ORIENTED_EDGE('',*,*,#455,.T.);
#458=ORIENTED_EDGE('',*,*,#457,.F.);
#460=ORIENTED_EDGE('',*,*,#459,.F.);
#462=ORIENTED_EDGE('',*,*,#461,.T.);
#464=ORIENTED_EDGE('',*,*,#463,.T.);
#466=ORIENTED_EDGE('',*,*,#465,.T.);
#468=ORIENTED_EDGE('',*,*,#467,.F.);
#470=ORIENTED_EDGE('',*,*,#469,.F.);
#472=ORIENTED_EDGE('',*,*,#471,.F.);
#474=ORIENTED_EDGE('',*,*,#473,.F.);
#476=ORIENTED_EDGE('',*,*,#475,.T.);
#478=ORIENTED_EDGE('',*,*,#477,.T.);
#480=ORIENTED_EDGE('',*,*,#479,.T.);
#481=ORIENTED_EDGE('',*,*,#433,.T.);
#482=EDGE_LOOP('',(#456,#458,#460,#462,#464,#466,#468,#470,#472,#474,#476,#478,
#480,#481));
#483=FACE_OUTER_BOUND('',#482,.F.);
#485=FILL_AREA_STYLE_COLOUR('',#14);
#486=FILL_AREA_STYLE('',(#485));
#487=SURFACE_STYLE_FILL_AREA(#486);
#488=SURFACE_SIDE_STYLE('',(#487));
#489=SURFACE_STYLE_USAGE(.BOTH.,#488);
#490=PRESENTATION_STYLE_ASSIGNMENT((#489));
#491=STYLED_ITEM('',(#490),#484);
#492=CARTESIAN_POINT('',(1.388284216800E1,9.726048148063E0,6.614173228346E-3));
#493=DIRECTION('',(1.E0,0.E0,0.E0));
#494=DIRECTION('',(0.E0,0.E0,-1.E0));
#495=AXIS2_PLACEMENT_3D('',#492,#493,#494);
#496=PLANE('',#495);
#497=ORIENTED_EDGE('',*,*,#455,.F.);
#498=ORIENTED_EDGE('',*,*,#438,.F.);
#499=ORIENTED_EDGE('',*,*,#416,.T.);
#501=ORIENTED_EDGE('',*,*,#500,.T.);
#502=EDGE_LOOP('',(#497,#498,#499,#501));
#503=FACE_OUTER_BOUND('',#502,.F.);
#505=FILL_AREA_STYLE_COLOUR('',#14);
#506=FILL_AREA_STYLE('',(#505));
#507=SURFACE_STYLE_FILL_AREA(#506);
#508=SURFACE_SIDE_STYLE('',(#507));
#509=SURFACE_STYLE_USAGE(.BOTH.,#508);
#510=PRESENTATION_STYLE_ASSIGNMENT((#509));
#511=STYLED_ITEM('',(#510),#504);
#512=CARTESIAN_POINT('',(1.388269018770E1,9.725679964648E0,6.614173228346E-3));
#513=CARTESIAN_POINT('',(1.388292543579E1,9.726244447345E0,6.614173228346E-3));
#514=CARTESIAN_POINT('',(1.388331849649E1,9.727253336454E0,6.614173228346E-3));
#515=CARTESIAN_POINT('',(1.388408999117E1,9.728598746598E0,6.614173228346E-3));
#516=CARTESIAN_POINT('',(1.388491374071E1,9.729741376016E0,6.614173228346E-3));
#517=CARTESIAN_POINT('',(1.388585165835E1,9.730799517591E0,6.614173228346E-3));
#518=CARTESIAN_POINT('',(1.388690114627E1,9.731769944031E0,6.614173228346E-3));
#519=CARTESIAN_POINT('',(1.388805971759E1,9.732660357449E0,6.614173228346E-3));
#520=CARTESIAN_POINT('',(1.388935181863E1,9.733436161039E0,6.614173228346E-3));
#521=CARTESIAN_POINT('',(1.389121315068E1,9.734387251890E0,6.614173228346E-3));
#522=CARTESIAN_POINT('',(1.389369667814E1,9.735338110016E0,6.614173228346E-3));
#523=CARTESIAN_POINT('',(1.389680628756E1,9.736179175843E0,6.614173228346E-3));
#524=CARTESIAN_POINT('',(1.390017376750E1,9.736711548685E0,6.614173228346E-3));
#525=CARTESIAN_POINT('',(1.390251036612E1,9.736758799117E0,6.614173228346E-3));
#526=CARTESIAN_POINT('',(1.390375871158E1,9.736794883695E0,6.614173228346E-3));
#528=DRAUGHTING_PRE_DEFINED_CURVE_FONT('continuous');
#529=CURVE_STYLE('',#528,POSITIVE_LENGTH_MEASURE(2.E-2),#14);
#530=PRESENTATION_STYLE_ASSIGNMENT((#529));
#531=STYLED_ITEM('',(#530),#527);
#532=DIRECTION('',(0.E0,0.E0,-1.E0));
#533=VECTOR('',#532,1.E0);
#534=SURFACE_OF_LINEAR_EXTRUSION('',#527,#533);
#535=ORIENTED_EDGE('',*,*,#457,.T.);
#536=ORIENTED_EDGE('',*,*,#500,.F.);
#537=ORIENTED_EDGE('',*,*,#414,.T.);
#539=ORIENTED_EDGE('',*,*,#538,.T.);
#540=EDGE_LOOP('',(#535,#536,#537,#539));
#541=FACE_OUTER_BOUND('',#540,.F.);
#543=FILL_AREA_STYLE_COLOUR('',#14);
#544=FILL_AREA_STYLE('',(#543));
#545=SURFACE_STYLE_FILL_AREA(#544);
#546=SURFACE_SIDE_STYLE('',(#545));
#547=SURFACE_STYLE_USAGE(.BOTH.,#546);
#548=PRESENTATION_STYLE_ASSIGNMENT((#547));
#549=STYLED_ITEM('',(#548),#542);
#550=CARTESIAN_POINT('',(1.390293440267E1,9.736787999032E0,6.614173228346E-3));
#551=CARTESIAN_POINT('',(1.390368666939E1,9.736779016727E0,6.614173228346E-3));
#552=CARTESIAN_POINT('',(1.390503730759E1,9.736780708993E0,6.614173228346E-3));
#553=CARTESIAN_POINT('',(1.390695986244E1,9.736586729480E0,6.614173228346E-3));
#554=CARTESIAN_POINT('',(1.390869258907E1,9.736334784283E0,6.614173228346E-3));
#555=CARTESIAN_POINT('',(1.391037349323E1,9.735978308929E0,6.614173228346E-3));
#556=CARTESIAN_POINT('',(1.391198990882E1,9.735485140016E0,6.614173228346E-3));
#557=CARTESIAN_POINT('',(1.391355496885E1,9.734915788441E0,6.614173228346E-3));
#558=CARTESIAN_POINT('',(1.391505926735E1,9.734229386362E0,6.614173228346E-3));
#559=CARTESIAN_POINT('',(1.391650031835E1,9.733445306787E0,6.614173228346E-3));
#560=CARTESIAN_POINT('',(1.391787800277E1,9.732587495953E0,6.614173228346E-3));
#561=CARTESIAN_POINT('',(1.391916073219E1,9.731651537291E0,6.614173228346E-3));
#562=CARTESIAN_POINT('',(1.392034448490E1,9.730652381291E0,6.614173228346E-3));
#563=CARTESIAN_POINT('',(1.392142781778E1,9.729586935969E0,6.614173228346E-3));
#564=CARTESIAN_POINT('',(1.392240775843E1,9.728450055354E0,6.614173228346E-3));
#565=CARTESIAN_POINT('',(1.392330583517E1,9.727258023024E0,6.614173228346E-3));
#566=CARTESIAN_POINT('',(1.392409023250E1,9.725993507291E0,6.614173228346E-3));
#567=CARTESIAN_POINT('',(1.392480356287E1,9.724661686961E0,6.614173228346E-3));
#568=CARTESIAN_POINT('',(1.392540968017E1,9.723202269024E0,6.614173228346E-3));
#569=CARTESIAN_POINT('',(1.392594279619E1,9.721591921606E0,6.614173228346E-3));
#570=CARTESIAN_POINT('',(1.392636979313E1,9.719804154378E0,6.614173228346E-3));
#571=CARTESIAN_POINT('',(1.392673185099E1,9.717845948551E0,6.614173228346E-3));
#572=CARTESIAN_POINT('',(1.392701870008E1,9.715716789543E0,6.614173228346E-3));
#573=CARTESIAN_POINT('',(1.392720676833E1,9.713410248283E0,6.614173228346E-3));
#574=CARTESIAN_POINT('',(1.392733663583E1,9.710792232458E0,6.614173228346E-3));
#575=CARTESIAN_POINT('',(1.392734988509E1,9.708940257836E0,6.614173228346E-3));
#576=CARTESIAN_POINT('',(1.392736108056E1,9.707916046894E0,6.614173228346E-3));
#578=CURVE_STYLE('',#528,POSITIVE_LENGTH_MEASURE(2.E-2),#14);
#579=PRESENTATION_STYLE_ASSIGNMENT((#578));
#580=STYLED_ITEM('',(#579),#577);
#581=DIRECTION('',(0.E0,0.E0,-1.E0));
#582=VECTOR('',#581,1.E0);
#583=SURFACE_OF_LINEAR_EXTRUSION('',#577,#582);
#584=ORIENTED_EDGE('',*,*,#459,.T.);
#585=ORIENTED_EDGE('',*,*,#538,.F.);
#586=ORIENTED_EDGE('',*,*,#412,.T.);
#588=ORIENTED_EDGE('',*,*,#587,.F.);
#589=EDGE_LOOP('',(#584,#585,#586,#588));
#590=FACE_OUTER_BOUND('',#589,.F.);
#592=FILL_AREA_STYLE_COLOUR('',#14);
#593=FILL_AREA_STYLE('',(#592));
#594=SURFACE_STYLE_FILL_AREA(#593);
#595=SURFACE_SIDE_STYLE('',(#594));
#596=SURFACE_STYLE_USAGE(.BOTH.,#595);
#597=PRESENTATION_STYLE_ASSIGNMENT((#596));
#598=STYLED_ITEM('',(#597),#591);
#599=CARTESIAN_POINT('',(1.392735657137E1,9.679689058110E0,6.614173228346E-3));
#600=DIRECTION('',(1.E0,0.E0,0.E0));
#601=DIRECTION('',(0.E0,0.E0,-1.E0));
#602=AXIS2_PLACEMENT_3D('',#599,#600,#601);
#603=PLANE('',#602);
#604=ORIENTED_EDGE('',*,*,#461,.F.);
#605=ORIENTED_EDGE('',*,*,#587,.T.);
#606=ORIENTED_EDGE('',*,*,#410,.T.);
#608=ORIENTED_EDGE('',*,*,#607,.T.);
#609=EDGE_LOOP('',(#604,#605,#606,#608));
#610=FACE_OUTER_BOUND('',#609,.F.);
#612=FILL_AREA_STYLE_COLOUR('',#14);
#613=FILL_AREA_STYLE('',(#612));
#614=SURFACE_STYLE_FILL_AREA(#613);
#615=SURFACE_SIDE_STYLE('',(#614));
#616=SURFACE_STYLE_USAGE(.BOTH.,#615);
#617=PRESENTATION_STYLE_ASSIGNMENT((#616));
#618=STYLED_ITEM('',(#617),#611);
#619=CARTESIAN_POINT('',(1.391671182274E1,9.679689058110E0,6.614173228346E-3));
#620=DIRECTION('',(0.E0,-1.E0,0.E0));
#621=DIRECTION('',(0.E0,0.E0,-1.E0));
#622=AXIS2_PLACEMENT_3D('',#619,#620,#621);
#623=PLANE('',#622);
#624=ORIENTED_EDGE('',*,*,#463,.F.);
#625=ORIENTED_EDGE('',*,*,#607,.F.);
#626=ORIENTED_EDGE('',*,*,#408,.T.);
#628=ORIENTED_EDGE('',*,*,#627,.T.);
#629=EDGE_LOOP('',(#624,#625,#626,#628));
#630=FACE_OUTER_BOUND('',#629,.F.);
#632=FILL_AREA_STYLE_COLOUR('',#14);
#633=FILL_AREA_STYLE('',(#632));
#634=SURFACE_STYLE_FILL_AREA(#633);
#635=SURFACE_SIDE_STYLE('',(#634));
#636=SURFACE_STYLE_USAGE(.BOTH.,#635);
#637=PRESENTATION_STYLE_ASSIGNMENT((#636));
#638=STYLED_ITEM('',(#637),#631);
#639=CARTESIAN_POINT('',(1.391671182274E1,9.679689058110E0,0.E0));
#640=DIRECTION('',(-1.E0,0.E0,0.E0));
#641=DIRECTION('',(0.E0,0.E0,1.E0));
#642=AXIS2_PLACEMENT_3D('',#639,#640,#641);
#643=PLANE('',#642);
#644=ORIENTED_EDGE('',*,*,#465,.F.);
#645=ORIENTED_EDGE('',*,*,#627,.F.);
#646=ORIENTED_EDGE('',*,*,#406,.T.);
#648=ORIENTED_EDGE('',*,*,#647,.T.);
#649=EDGE_LOOP('',(#644,#645,#646,#648));
#650=FACE_OUTER_BOUND('',#649,.F.);
#652=FILL_AREA_STYLE_COLOUR('',#14);
#653=FILL_AREA_STYLE('',(#652));
#654=SURFACE_STYLE_FILL_AREA(#653);
#655=SURFACE_SIDE_STYLE('',(#654));
#656=SURFACE_STYLE_USAGE(.BOTH.,#655);
#657=PRESENTATION_STYLE_ASSIGNMENT((#656));
#658=STYLED_ITEM('',(#657),#651);
#659=CARTESIAN_POINT('',(1.391671421474E1,9.705705997324E0,6.614173228346E-3));
#660=CARTESIAN_POINT('',(1.391670903046E1,9.706559520774E0,6.614173228346E-3));
#661=CARTESIAN_POINT('',(1.391670084944E1,9.708073351906E0,6.614173228346E-3));
#662=CARTESIAN_POINT('',(1.391667579482E1,9.710187358205E0,6.614173228346E-3));
#663=CARTESIAN_POINT('',(1.391660978556E1,9.711981473528E0,6.614173228346E-3));
#664=CARTESIAN_POINT('',(1.391654366169E1,9.713585325260E0,6.614173228346E-3));
#665=CARTESIAN_POINT('',(1.391643259417E1,9.714996292252E0,6.614173228346E-3));
#666=CARTESIAN_POINT('',(1.391631941863E1,9.716222852315E0,6.614173228346E-3));
#667=CARTESIAN_POINT('',(1.391615495547E1,9.717394300205E0,6.614173228346E-3));
#668=CARTESIAN_POINT('',(1.391598877429E1,9.718148459951E0,6.614173228346E-3));
#669=CARTESIAN_POINT('',(1.391590630674E1,9.718560723741E0,6.614173228346E-3));
#671=CURVE_STYLE('',#528,POSITIVE_LENGTH_MEASURE(2.E-2),#14);
#672=PRESENTATION_STYLE_ASSIGNMENT((#671));
#673=STYLED_ITEM('',(#672),#670);
#674=DIRECTION('',(0.E0,0.E0,-1.E0));
#675=VECTOR('',#674,1.E0);
#676=SURFACE_OF_LINEAR_EXTRUSION('',#670,#675);
#677=ORIENTED_EDGE('',*,*,#467,.T.);
#678=ORIENTED_EDGE('',*,*,#647,.F.);
#679=ORIENTED_EDGE('',*,*,#404,.T.);
#681=ORIENTED_EDGE('',*,*,#680,.T.);
#682=EDGE_LOOP('',(#677,#678,#679,#681));
#683=FACE_OUTER_BOUND('',#682,.F.);
#685=FILL_AREA_STYLE_COLOUR('',#14);
#686=FILL_AREA_STYLE('',(#685));
#687=SURFACE_STYLE_FILL_AREA(#686);
#688=SURFACE_SIDE_STYLE('',(#687));
#689=SURFACE_STYLE_USAGE(.BOTH.,#688);
#690=PRESENTATION_STYLE_ASSIGNMENT((#689));
#691=STYLED_ITEM('',(#690),#684);
#692=CARTESIAN_POINT('',(1.391608758104E1,9.717785265621E0,6.614173228346E-3));
#693=CARTESIAN_POINT('',(1.391584636963E1,9.718693240872E0,6.614173228346E-3));
#694=CARTESIAN_POINT('',(1.391544505916E1,9.720336968577E0,6.614173228346E-3));
#695=CARTESIAN_POINT('',(1.391436790724E1,9.722507226189E0,6.614173228346E-3));
#696=CARTESIAN_POINT('',(1.391303777858E1,9.724250260110E0,6.614173228346E-3));
#697=CARTESIAN_POINT('',(1.391137911567E1,9.725666509748E0,6.614173228346E-3));
#698=CARTESIAN_POINT('',(1.390942730159E1,9.726766392283E0,6.614173228346E-3));
#699=CARTESIAN_POINT('',(1.390718576287E1,9.727524075213E0,6.614173228346E-3));
#700=CARTESIAN_POINT('',(1.390454039119E1,9.728029604554E0,6.614173228346E-3));
#701=CARTESIAN_POINT('',(1.390263360881E1,9.728055533605E0,6.614173228346E-3));
#702=CARTESIAN_POINT('',(1.390157125313E1,9.728084778331E0,6.614173228346E-3));
#704=CURVE_STYLE('',#528,POSITIVE_LENGTH_MEASURE(2.E-2),#14);
#705=PRESENTATION_STYLE_ASSIGNMENT((#704));
#706=STYLED_ITEM('',(#705),#703);
#707=DIRECTION('',(0.E0,0.E0,-1.E0));
#708=VECTOR('',#707,1.E0);
#709=SURFACE_OF_LINEAR_EXTRUSION('',#703,#708);
#710=ORIENTED_EDGE('',*,*,#469,.T.);
#711=ORIENTED_EDGE('',*,*,#680,.F.);
#712=ORIENTED_EDGE('',*,*,#402,.T.);
#714=ORIENTED_EDGE('',*,*,#713,.T.);
#715=EDGE_LOOP('',(#710,#711,#712,#714));
#716=FACE_OUTER_BOUND('',#715,.F.);
#718=FILL_AREA_STYLE_COLOUR('',#14);
#719=FILL_AREA_STYLE('',(#718));
#720=SURFACE_STYLE_FILL_AREA(#719);
#721=SURFACE_SIDE_STYLE('',(#720));
#722=SURFACE_STYLE_USAGE(.BOTH.,#721);
#723=PRESENTATION_STYLE_ASSIGNMENT((#722));
#724=STYLED_ITEM('',(#723),#717);
#725=CARTESIAN_POINT('',(1.390236767194E1,9.728083542628E0,6.614173228346E-3));
#726=CARTESIAN_POINT('',(1.390173046039E1,9.728067135272E0,6.614173228346E-3));
#727=CARTESIAN_POINT('',(1.390059419116E1,9.728058205533E0,6.614173228346E-3));
#728=CARTESIAN_POINT('',(1.389897722466E1,9.727848289370E0,6.614173228346E-3));
#729=CARTESIAN_POINT('',(1.389751976509E1,9.727565703354E0,6.614173228346E-3));
#730=CARTESIAN_POINT('',(1.389608965998E1,9.727159260331E0,6.614173228346E-3));
#731=CARTESIAN_POINT('',(1.389470075362E1,9.726605173795E0,6.614173228346E-3));
#732=CARTESIAN_POINT('',(1.389333915392E1,9.725958344126E0,6.614173228346E-3));
#733=CARTESIAN_POINT('',(1.389200726787E1,9.725193483543E0,6.614173228346E-3));
#734=CARTESIAN_POINT('',(1.389072519888E1,9.724310962252E0,6.614173228346E-3));
#735=CARTESIAN_POINT('',(1.388950848024E1,9.723334140142E0,6.614173228346E-3));
#736=CARTESIAN_POINT('',(1.388838066430E1,9.722288409165E0,6.614173228346E-3));
#737=CARTESIAN_POINT('',(1.388736254943E1,9.721166011606E0,6.614173228346E-3));
#738=CARTESIAN_POINT('',(1.388645543721E1,9.719961758457E0,6.614173228346E-3));
#739=CARTESIAN_POINT('',(1.388562970649E1,9.718696881543E0,6.614173228346E-3));
#740=CARTESIAN_POINT('',(1.388494105110E1,9.717336261638E0,6.614173228346E-3));
#741=CARTESIAN_POINT('',(1.388427453427E1,9.715798740612E0,6.614173228346E-3));
#742=CARTESIAN_POINT('',(1.388393439908E1,9.714679004760E0,6.614173228346E-3));
#743=CARTESIAN_POINT('',(1.388373411925E1,9.714056222456E0,6.614173228346E-3));
#745=CURVE_STYLE('',#528,POSITIVE_LENGTH_MEASURE(2.E-2),#14);
#746=PRESENTATION_STYLE_ASSIGNMENT((#745));
#747=STYLED_ITEM('',(#746),#744);
#748=DIRECTION('',(0.E0,0.E0,-1.E0));
#749=VECTOR('',#748,1.E0);
#750=SURFACE_OF_LINEAR_EXTRUSION('',#744,#749);
#751=ORIENTED_EDGE('',*,*,#471,.T.);
#752=ORIENTED_EDGE('',*,*,#713,.F.);
#753=ORIENTED_EDGE('',*,*,#400,.T.);
#755=ORIENTED_EDGE('',*,*,#754,.T.);
#756=EDGE_LOOP('',(#751,#752,#753,#755));
#757=FACE_OUTER_BOUND('',#756,.F.);
#759=FILL_AREA_STYLE_COLOUR('',#14);
#760=FILL_AREA_STYLE('',(#759));
#761=SURFACE_STYLE_FILL_AREA(#760);
#762=SURFACE_SIDE_STYLE('',(#761));
#763=SURFACE_STYLE_USAGE(.BOTH.,#762);
#764=PRESENTATION_STYLE_ASSIGNMENT((#763));
#765=STYLED_ITEM('',(#764),#758);
#766=CARTESIAN_POINT('',(1.388395333E1,9.714821735189E0,6.614173228346E-3));
#767=CARTESIAN_POINT('',(1.388383739870E1,9.714355892505E0,6.614173228346E-3));
#768=CARTESIAN_POINT('',(1.388359810954E1,9.713493430026E0,6.614173228346E-3));
#769=CARTESIAN_POINT('',(1.388340491258E1,9.712124332110E0,6.614173228346E-3));
#770=CARTESIAN_POINT('',(1.388321222258E1,9.710679811606E0,6.614173228346E-3));
#771=CARTESIAN_POINT('',(1.388309368545E1,9.709008098882E0,6.614173228346E-3));
#772=CARTESIAN_POINT('',(1.388296163660E1,9.707124129780E0,6.614173228346E-3));
#773=CARTESIAN_POINT('',(1.388289695717E1,9.705016041165E0,6.614173228346E-3));
#774=CARTESIAN_POINT('',(1.388284658095E1,9.702559684036E0,6.614173228346E-3));
#775=CARTESIAN_POINT('',(1.388284403841E1,9.700803740252E0,6.614173228346E-3));
#776=CARTESIAN_POINT('',(1.388284098717E1,9.699824180646E0,6.614173228346E-3));
#778=CURVE_STYLE('',#528,POSITIVE_LENGTH_MEASURE(2.E-2),#14);
#779=PRESENTATION_STYLE_ASSIGNMENT((#778));
#780=STYLED_ITEM('',(#779),#777);
#781=DIRECTION('',(0.E0,0.E0,-1.E0));
#782=VECTOR('',#781,1.E0);
#783=SURFACE_OF_LINEAR_EXTRUSION('',#777,#782);
#784=ORIENTED_EDGE('',*,*,#473,.T.);
#785=ORIENTED_EDGE('',*,*,#754,.F.);
#786=ORIENTED_EDGE('',*,*,#398,.T.);
#788=ORIENTED_EDGE('',*,*,#787,.F.);
#789=EDGE_LOOP('',(#784,#785,#786,#788));
#790=FACE_OUTER_BOUND('',#789,.F.);
#792=FILL_AREA_STYLE_COLOUR('',#14);
#793=FILL_AREA_STYLE('',(#792));
#794=SURFACE_STYLE_FILL_AREA(#793);
#795=SURFACE_SIDE_STYLE('',(#794));
#796=SURFACE_STYLE_USAGE(.BOTH.,#795);
#797=PRESENTATION_STYLE_ASSIGNMENT((#796));
#798=STYLED_ITEM('',(#797),#791);
#799=CARTESIAN_POINT('',(1.388284216800E1,9.679689058110E0,6.614173228346E-3));
#800=DIRECTION('',(1.E0,0.E0,0.E0));
#801=DIRECTION('',(0.E0,0.E0,-1.E0));
#802=AXIS2_PLACEMENT_3D('',#799,#800,#801);
#803=PLANE('',#802);
#804=ORIENTED_EDGE('',*,*,#475,.F.);
#805=ORIENTED_EDGE('',*,*,#787,.T.);
#806=ORIENTED_EDGE('',*,*,#396,.T.);
#808=ORIENTED_EDGE('',*,*,#807,.T.);
#809=EDGE_LOOP('',(#804,#805,#806,#808));
#810=FACE_OUTER_BOUND('',#809,.F.);
#812=FILL_AREA_STYLE_COLOUR('',#14);
#813=FILL_AREA_STYLE('',(#812));
#814=SURFACE_STYLE_FILL_AREA(#813);
#815=SURFACE_SIDE_STYLE('',(#814));
#816=SURFACE_STYLE_USAGE(.BOTH.,#815);
#817=PRESENTATION_STYLE_ASSIGNMENT((#816));
#818=STYLED_ITEM('',(#817),#811);
#819=CARTESIAN_POINT('',(1.387219741937E1,9.679689058110E0,6.614173228346E-3));
#820=DIRECTION('',(0.E0,-1.E0,0.E0));
#821=DIRECTION('',(0.E0,0.E0,-1.E0));
#822=AXIS2_PLACEMENT_3D('',#819,#820,#821);
#823=PLANE('',#822);
#824=ORIENTED_EDGE('',*,*,#477,.F.);
#825=ORIENTED_EDGE('',*,*,#807,.F.);
#826=ORIENTED_EDGE('',*,*,#394,.T.);
#828=ORIENTED_EDGE('',*,*,#827,.T.);
#829=EDGE_LOOP('',(#824,#825,#826,#828));
#830=FACE_OUTER_BOUND('',#829,.F.);
#832=FILL_AREA_STYLE_COLOUR('',#14);
#833=FILL_AREA_STYLE('',(#832));
#834=SURFACE_STYLE_FILL_AREA(#833);
#835=SURFACE_SIDE_STYLE('',(#834));
#836=SURFACE_STYLE_USAGE(.BOTH.,#835);
#837=PRESENTATION_STYLE_ASSIGNMENT((#836));
#838=STYLED_ITEM('',(#837),#831);
#839=CARTESIAN_POINT('',(1.387219741937E1,9.679689058110E0,0.E0));
#840=DIRECTION('',(-1.E0,0.E0,0.E0));
#841=DIRECTION('',(0.E0,0.E0,1.E0));
#842=AXIS2_PLACEMENT_3D('',#839,#840,#841);
#843=PLANE('',#842);
#844=ORIENTED_EDGE('',*,*,#479,.F.);
#845=ORIENTED_EDGE('',*,*,#827,.F.);
#846=ORIENTED_EDGE('',*,*,#392,.T.);
#847=ORIENTED_EDGE('',*,*,#435,.F.);
#848=EDGE_LOOP('',(#844,#845,#846,#847));
#849=FACE_OUTER_BOUND('',#848,.F.);
#851=FILL_AREA_STYLE_COLOUR('',#14);
#852=FILL_AREA_STYLE('',(#851));
#853=SURFACE_STYLE_FILL_AREA(#852);
#854=SURFACE_SIDE_STYLE('',(#853));
#855=SURFACE_STYLE_USAGE(.BOTH.,#854);
#856=PRESENTATION_STYLE_ASSIGNMENT((#855));
#857=STYLED_ITEM('',(#856),#850);
#860=PRESENTATION_LAYER_ASSIGNMENT('SHELL_341','',(#420,#442,#484,#504,#527,
#542,#577,#591,#611,#631,#651,#670,#684,#703,#717,#744,#758,#777,#791,#811,#831,
#850,#859));
#862=LENGTH_MEASURE_WITH_UNIT(LENGTH_MEASURE(2.54E1),#861);
#863=(CONVERSION_BASED_UNIT('INCH',#862)LENGTH_UNIT()NAMED_UNIT(*));
#865=PLANE_ANGLE_MEASURE_WITH_UNIT(PLANE_ANGLE_MEASURE(1.745329251994E-2),#864);
#866=(CONVERSION_BASED_UNIT('DEGREE',#865)NAMED_UNIT(*)PLANE_ANGLE_UNIT());
#868=UNCERTAINTY_MEASURE_WITH_UNIT(LENGTH_MEASURE(6.638916055900E-5),#863,
'closure',
'Maximum model space distance between geometric entities at asserted connectivities');
#870=CARTESIAN_POINT('',(0.E0,0.E0,0.E0));
#871=DIRECTION('',(0.E0,0.E0,1.E0));
#872=DIRECTION('',(1.E0,0.E0,0.E0));
#875=MECHANICAL_DESIGN_GEOMETRIC_PRESENTATION_REPRESENTATION('',(#427,#449,#491,
#511,#531,#549,#580,#598,#618,#638,#658,#673,#691,#706,#724,#747,#765,#780,#798,
#818,#838,#857),#869);
#876=APPLICATION_CONTEXT('automotive design');
#877=APPLICATION_PROTOCOL_DEFINITION('international standard',
'config_control_design',1994,#876);
#878=PRODUCT_DEFINITION_CONTEXT('',#876,'design');
#879=PRODUCT_CONTEXT('',#876,'mechanical');
#880=PRODUCT('NO_10LOGO-232','NO_10LOGO-232','NOT SPECIFIED',(#879));
#881=PRODUCT_DEFINITION_FORMATION_WITH_SPECIFIED_SOURCE('1','LAST_VERSION',#880,
.MADE.);
#889=LENGTH_MEASURE_WITH_UNIT(LENGTH_MEASURE(2.54E1),#888);
#890=(CONVERSION_BASED_UNIT('INCH',#889)LENGTH_UNIT()NAMED_UNIT(*));
#891=DERIVED_UNIT_ELEMENT(#890,2.E0);
#892=AREA_UNIT((#891));
#893=MEASURE_REPRESENTATION_ITEM('surface area measure',AREA_MEASURE(
3.200583393980E-6),#892);
#898=LENGTH_MEASURE_WITH_UNIT(LENGTH_MEASURE(2.54E1),#897);
#899=(CONVERSION_BASED_UNIT('INCH',#898)LENGTH_UNIT()NAMED_UNIT(*));
#900=DERIVED_UNIT_ELEMENT(#899,2.E0);
#901=AREA_UNIT((#900));
#902=MEASURE_REPRESENTATION_ITEM('surface area measure',AREA_MEASURE(
3.200583393980E-6),#901);
#1=DRAUGHTING_PRE_DEFINED_COLOUR('green');
#2=COLOUR_RGB('',1.1E-2,1.2E-2,1.E0);
#3=COLOUR_RGB('',2.352941176471E-1,2.352941176471E-1,2.352941176471E-1);
#4=COLOUR_RGB('',4.1E-1,2.61589E-1,1.12848E-1);
#5=COLOUR_RGB('',5.04854E-1,1.5455E-2,1.5455E-2);
#6=COLOUR_RGB('',6.35294E-1,6.86275E-1,7.4902E-1);
#7=COLOUR_RGB('',6.40777E-1,6.40777E-1,6.40777E-1);
#8=COLOUR_RGB('',6.69062E-1,6.69903E-1,6.55217E-1);
#9=COLOUR_RGB('',9.21569E-1,7.05882E-1,4.70588E-1);
#10=DRAUGHTING_PRE_DEFINED_COLOUR('red');
#11=DRAUGHTING_PRE_DEFINED_COLOUR('yellow');
#12=COLOUR_RGB('',1.E0,1.E0,5.3E-1);
#13=COLOUR_RGB('',1.E0,1.E0,9.49E-1);
#14=DRAUGHTING_PRE_DEFINED_COLOUR('white');
#42=B_SPLINE_CURVE_WITH_KNOTS('',3,(#31,#32,#33,#34,#35,#36,#37,#38,#39,#40,
#41),.UNSPECIFIED.,.F.,.F.,(4,1,1,1,1,1,1,1,4),(0.E0,7.293838399999E-2,
1.59803532E-1,2.62245038E-1,3.79108702E-1,5.11736837E-1,6.59013394E-1,
8.22108579E-1,1.E0),.UNSPECIFIED.);
#62=B_SPLINE_CURVE_WITH_KNOTS('',3,(#43,#44,#45,#46,#47,#48,#49,#50,#51,#52,#53,
#54,#55,#56,#57,#58,#59,#60,#61),.UNSPECIFIED.,.F.,.F.,(4,1,1,1,1,1,1,1,1,1,1,1,
1,1,1,1,4),(0.E0,6.226517999999E-2,1.23691692E-1,1.84577046E-1,2.45424243E-1,
3.06888551E-1,3.68945127E-1,4.31374829E-1,4.96261076E-1,5.60875325E-1,
6.23823688E-1,6.85930143E-1,7.47648976E-1,8.09777241E-1,8.72107661E-1,
9.35664916E-1,1.E0),.UNSPECIFIED.);
#74=B_SPLINE_CURVE_WITH_KNOTS('',3,(#63,#64,#65,#66,#67,#68,#69,#70,#71,#72,
#73),.UNSPECIFIED.,.F.,.F.,(4,1,1,1,1,1,1,1,4),(0.E0,1.28451281E-1,
2.47825521E-1,3.62484926E-1,4.75939997E-1,5.93315606E-1,7.17655049E-1,
8.51845848E-1,1.E0),.UNSPECIFIED.);
#86=B_SPLINE_CURVE_WITH_KNOTS('',3,(#75,#76,#77,#78,#79,#80,#81,#82,#83,#84,
#85),.UNSPECIFIED.,.F.,.F.,(4,1,1,1,1,1,1,1,4),(0.E0,1.78608803E-1,
3.42244522E-1,4.9095733E-1,6.23496633E-1,7.39980534E-1,8.41640309E-1,
9.28720428E-1,1.E0),.UNSPECIFIED.);
#126=B_SPLINE_CURVE_WITH_KNOTS('',3,(#99,#100,#101,#102,#103,#104,#105,#106,
#107,#108,#109,#110,#111,#112,#113,#114,#115,#116,#117,#118,#119,#120,#121,#122,
#123,#124,#125),.UNSPECIFIED.,.F.,.F.,(4,1,1,1,1,1,1,1,1,1,1,1,1,1,1,1,1,1,1,1,
1,1,1,1,4),(0.E0,4.295263400003E-2,8.500901200003E-2,1.25911692E-1,
1.66212647E-1,2.05845602E-1,2.44805568E-1,2.83396914E-1,3.2214133E-1,
3.60246653E-1,3.97582429E-1,4.33841881E-1,4.69224178E-1,5.04444158E-1,
5.3943455E-1,5.74192024E-1,6.09115769E-1,6.45695074E-1,6.8530896E-1,
7.2842985E-1,7.74993791E-1,8.25482899E-1,8.79620271E-1,9.37888382E-1,1.E0),
.UNSPECIFIED.);
#142=B_SPLINE_CURVE_WITH_KNOTS('',3,(#127,#128,#129,#130,#131,#132,#133,#134,
#135,#136,#137,#138,#139,#140,#141),.UNSPECIFIED.,.F.,.F.,(4,1,1,1,1,1,1,1,1,1,
1,1,4),(0.E0,5.837609399993E-2,1.156537379999E-1,1.724807359999E-1,
2.299790909999E-1,2.878477839999E-1,3.46633721E-1,4.07904458E-1,4.71429301E-1,
6.01487768E-1,7.31405164E-1,8.6394017E-1,1.E0),.UNSPECIFIED.);
#166=B_SPLINE_CURVE_WITH_KNOTS('',3,(#151,#152,#153,#154,#155,#156,#157,#158,
#159,#160,#161,#162,#163,#164,#165),.UNSPECIFIED.,.F.,.F.,(4,1,1,1,1,1,1,1,1,1,
1,1,4),(0.E0,1.3605983E-1,2.68594836E-1,3.98512232E-1,5.28570699E-1,
5.92095542E-1,6.53366279E-1,7.121522160001E-1,7.700209090001E-1,
8.275192640001E-1,8.843462620001E-1,9.416239060001E-1,1.E0),.UNSPECIFIED.);
#194=B_SPLINE_CURVE_WITH_KNOTS('',3,(#167,#168,#169,#170,#171,#172,#173,#174,
#175,#176,#177,#178,#179,#180,#181,#182,#183,#184,#185,#186,#187,#188,#189,#190,
#191,#192,#193),.UNSPECIFIED.,.F.,.F.,(4,1,1,1,1,1,1,1,1,1,1,1,1,1,1,1,1,1,1,1,
1,1,1,1,4),(0.E0,6.211161799998E-2,1.20379729E-1,1.74517101E-1,2.25006209E-1,
2.7157015E-1,3.1469104E-1,3.54304926E-1,3.90884231E-1,4.25807976E-1,
4.6056545E-1,4.95555842E-1,5.30775822E-1,5.66158119E-1,6.02417571E-1,
6.39753347E-1,6.7785867E-1,7.16603086E-1,7.55194432E-1,7.94154398E-1,
8.33787353E-1,8.74088308E-1,9.14990988E-1,9.57047366E-1,1.E0),.UNSPECIFIED.);
#206=B_SPLINE_CURVE_WITH_KNOTS('',3,(#195,#196,#197,#198,#199,#200,#201,#202,
#203,#204,#205),.UNSPECIFIED.,.F.,.F.,(4,1,1,1,1,1,1,1,4),(0.E0,7.1279572E-2,
1.58359691E-1,2.60019466E-1,3.76503367E-1,5.0904267E-1,6.57755478E-1,
8.21391197E-1,1.E0),.UNSPECIFIED.);
#218=B_SPLINE_CURVE_WITH_KNOTS('',3,(#207,#208,#209,#210,#211,#212,#213,#214,
#215,#216,#217),.UNSPECIFIED.,.F.,.F.,(4,1,1,1,1,1,1,1,4),(0.E0,1.48154152E-1,
2.82344951E-1,4.06684394E-1,5.24060003E-1,6.37515074E-1,7.52174479E-1,
8.71548719E-1,1.E0),.UNSPECIFIED.);
#238=B_SPLINE_CURVE_WITH_KNOTS('',3,(#219,#220,#221,#222,#223,#224,#225,#226,
#227,#228,#229,#230,#231,#232,#233,#234,#235,#236,#237),.UNSPECIFIED.,.F.,.F.,
(4,1,1,1,1,1,1,1,1,1,1,1,1,1,1,1,4),(0.E0,6.4335084E-2,1.27892339E-1,
1.90222759E-1,2.52351024E-1,3.14069857E-1,3.76176312E-1,4.39124675E-1,
5.03738924E-1,5.68625171E-1,6.31054873E-1,6.93111449E-1,7.54575757E-1,
8.15422954E-1,8.76308308E-1,9.3773482E-1,1.E0),.UNSPECIFIED.);
#250=B_SPLINE_CURVE_WITH_KNOTS('',3,(#239,#240,#241,#242,#243,#244,#245,#246,
#247,#248,#249),.UNSPECIFIED.,.F.,.F.,(4,1,1,1,1,1,1,1,4),(0.E0,1.77891421E-1,
3.40986606E-1,4.88263163E-1,6.20891298E-1,7.37754962E-1,8.40196468E-1,
9.27061616E-1,1.E0),.UNSPECIFIED.);
#390=EDGE_CURVE('',#361,#344,#18,.T.);
#392=EDGE_CURVE('',#359,#361,#22,.T.);
#394=EDGE_CURVE('',#353,#359,#26,.T.);
#396=EDGE_CURVE('',#340,#353,#30,.T.);
#398=EDGE_CURVE('',#339,#340,#42,.T.);
#400=EDGE_CURVE('',#345,#339,#62,.T.);
#402=EDGE_CURVE('',#346,#345,#74,.T.);
#404=EDGE_CURVE('',#380,#346,#86,.T.);
#406=EDGE_CURVE('',#376,#380,#90,.T.);
#408=EDGE_CURVE('',#371,#376,#94,.T.);
#410=EDGE_CURVE('',#370,#371,#98,.T.);
#412=EDGE_CURVE('',#366,#370,#126,.T.);
#414=EDGE_CURVE('',#363,#366,#142,.T.);
#416=EDGE_CURVE('',#344,#363,#146,.T.);
#420=ADVANCED_FACE('',(#419),#389,.F.);
#433=EDGE_CURVE('',#337,#338,#150,.T.);
#435=EDGE_CURVE('',#337,#361,#334,.T.);
#438=EDGE_CURVE('',#344,#338,#258,.T.);
#442=ADVANCED_FACE('',(#441),#432,.T.);
#455=EDGE_CURVE('',#338,#342,#254,.T.);
#457=EDGE_CURVE('',#367,#342,#166,.T.);
#459=EDGE_CURVE('',#384,#367,#194,.T.);
#461=EDGE_CURVE('',#384,#373,#274,.T.);
#463=EDGE_CURVE('',#373,#377,#278,.T.);
#465=EDGE_CURVE('',#377,#381,#286,.T.);
#467=EDGE_CURVE('',#383,#381,#206,.T.);
#469=EDGE_CURVE('',#355,#383,#218,.T.);
#471=EDGE_CURVE('',#348,#355,#238,.T.);
#473=EDGE_CURVE('',#350,#348,#250,.T.);
#475=EDGE_CURVE('',#350,#354,#314,.T.);
#477=EDGE_CURVE('',#354,#357,#318,.T.);
#479=EDGE_CURVE('',#357,#337,#326,.T.);
#484=ADVANCED_FACE('',(#483),#454,.T.);
#500=EDGE_CURVE('',#363,#342,#262,.T.);
#504=ADVANCED_FACE('',(#503),#496,.T.);
#527=B_SPLINE_CURVE_WITH_KNOTS('',3,(#512,#513,#514,#515,#516,#517,#518,#519,
#520,#521,#522,#523,#524,#525,#526),.UNSPECIFIED.,.F.,.F.,(4,1,1,1,1,1,1,1,1,1,
1,1,4),(0.E0,7.222370655719E-2,1.277052841871E-1,1.827503468124E-1,
2.384457145639E-1,2.944998075539E-1,3.514423823429E-1,4.107918407687E-1,
4.723247227485E-1,5.983049207692E-1,7.241484713812E-1,8.525275510805E-1,1.E0),
.UNSPECIFIED.);
#538=EDGE_CURVE('',#366,#367,#266,.T.);
#542=ADVANCED_FACE('',(#541),#534,.T.);
#577=B_SPLINE_CURVE_WITH_KNOTS('',3,(#550,#551,#552,#553,#554,#555,#556,#557,
#558,#559,#560,#561,#562,#563,#564,#565,#566,#567,#568,#569,#570,#571,#572,#573,
#574,#575,#576),.UNSPECIFIED.,.F.,.F.,(4,1,1,1,1,1,1,1,1,1,1,1,1,1,1,1,1,1,1,1,
1,1,1,1,4),(0.E0,5.191151170839E-2,9.314333588251E-2,1.332440813630E-1,
1.727548992135E-1,2.116108138161E-1,2.498069339846E-1,2.876416612860E-1,
3.256264575098E-1,3.629846907374E-1,3.995884646391E-1,4.351370168591E-1,
4.698256115065E-1,5.043550715274E-1,5.386594448314E-1,5.727354667063E-1,
6.069744996858E-1,6.428366338946E-1,6.816738533624E-1,7.239493188034E-1,
7.696003310747E-1,8.190995538505E-1,8.721755130677E-1,9.293012243620E-1,1.E0),
.UNSPECIFIED.);
#587=EDGE_CURVE('',#384,#370,#270,.T.);
#591=ADVANCED_FACE('',(#590),#583,.T.);
#607=EDGE_CURVE('',#371,#373,#282,.T.);
#611=ADVANCED_FACE('',(#610),#603,.T.);
#627=EDGE_CURVE('',#376,#377,#290,.T.);
#631=ADVANCED_FACE('',(#630),#623,.T.);
#647=EDGE_CURVE('',#380,#381,#294,.T.);
#651=ADVANCED_FACE('',(#650),#643,.T.);
#670=B_SPLINE_CURVE_WITH_KNOTS('',3,(#659,#660,#661,#662,#663,#664,#665,#666,
#667,#668,#669),.UNSPECIFIED.,.F.,.F.,(4,1,1,1,1,1,1,1,4),(0.E0,
1.984559500639E-1,3.519880119889E-1,4.915185752817E-1,6.158742636366E-1,
7.251658878058E-1,8.205486988813E-1,9.022520721084E-1,1.E0),.UNSPECIFIED.);
#680=EDGE_CURVE('',#346,#383,#298,.T.);
#684=ADVANCED_FACE('',(#683),#676,.T.);
#703=B_SPLINE_CURVE_WITH_KNOTS('',3,(#692,#693,#694,#695,#696,#697,#698,#699,
#700,#701,#702),.UNSPECIFIED.,.F.,.F.,(4,1,1,1,1,1,1,1,4),(0.E0,
1.435202632663E-1,2.580510616420E-1,3.680583228061E-1,4.769101141256E-1,
5.895233731386E-1,7.088179183971E-1,8.375641147637E-1,1.E0),.UNSPECIFIED.);
#713=EDGE_CURVE('',#345,#355,#302,.T.);
#717=ADVANCED_FACE('',(#716),#709,.T.);
#744=B_SPLINE_CURVE_WITH_KNOTS('',3,(#725,#726,#727,#728,#729,#730,#731,#732,
#733,#734,#735,#736,#737,#738,#739,#740,#741,#742,#743),.UNSPECIFIED.,.F.,.F.,
(4,1,1,1,1,1,1,1,1,1,1,1,1,1,1,1,4),(0.E0,7.615066424370E-2,1.356286140751E-1,
1.945825724355E-1,2.534995842063E-1,3.130141310789E-1,3.731021581190E-1,
4.335514749147E-1,4.963794105756E-1,5.589439765143E-1,6.198955014272E-1,
6.800318252135E-1,7.397928230840E-1,7.999502650169E-1,8.603034492206E-1,
9.218445509570E-1,1.E0),.UNSPECIFIED.);
#754=EDGE_CURVE('',#339,#348,#306,.T.);
#758=ADVANCED_FACE('',(#757),#750,.T.);
#777=B_SPLINE_CURVE_WITH_KNOTS('',3,(#766,#767,#768,#769,#770,#771,#772,#773,
#774,#775,#776),.UNSPECIFIED.,.F.,.F.,(4,1,1,1,1,1,1,1,4),(0.E0,
9.548913094953E-2,1.777655592354E-1,2.747955121677E-1,3.854857612687E-1,
5.111077107992E-1,6.506042679246E-1,8.050838215935E-1,1.E0),.UNSPECIFIED.);
#787=EDGE_CURVE('',#350,#340,#310,.T.);
#791=ADVANCED_FACE('',(#790),#783,.T.);
#807=EDGE_CURVE('',#353,#354,#322,.T.);
#811=ADVANCED_FACE('',(#810),#803,.T.);
#827=EDGE_CURVE('',#359,#357,#330,.T.);
#831=ADVANCED_FACE('',(#830),#823,.T.);
#850=ADVANCED_FACE('',(#849),#843,.T.);
#858=CLOSED_SHELL('',(#420,#442,#484,#504,#542,#591,#611,#631,#651,#684,#717,
#758,#791,#811,#831,#850));
#859=MANIFOLD_SOLID_BREP('',#858);
#861=(LENGTH_UNIT()NAMED_UNIT(*)SI_UNIT(.MILLI.,.METRE.));
#864=(NAMED_UNIT(*)PLANE_ANGLE_UNIT()SI_UNIT($,.RADIAN.));
#867=(NAMED_UNIT(*)SI_UNIT($,.STERADIAN.)SOLID_ANGLE_UNIT());
#869=(GEOMETRIC_REPRESENTATION_CONTEXT(3)GLOBAL_UNCERTAINTY_ASSIGNED_CONTEXT((
#868))GLOBAL_UNIT_ASSIGNED_CONTEXT((#863,#866,#867))REPRESENTATION_CONTEXT
('ID1','3'));
#873=AXIS2_PLACEMENT_3D('',#870,#871,#872);
#874=ADVANCED_BREP_SHAPE_REPRESENTATION('',(#873,#859),#869);
#882=PRODUCT_DEFINITION('design','',#881,#878);
#883=PRODUCT_DEFINITION_SHAPE('','SHAPE FOR NO_10LOGO-232.',#882);
#884=SHAPE_ASPECT('','solid data associated with NO_10LOGO-232',#883,.F.);
#885=PROPERTY_DEFINITION('',
'shape for solid data with which properties are associated',#884);
#886=SHAPE_REPRESENTATION('',(#859),#869);
#887=SHAPE_DEFINITION_REPRESENTATION(#885,#886);
#888=(LENGTH_UNIT()NAMED_UNIT(*)SI_UNIT(.MILLI.,.METRE.));
#894=PROPERTY_DEFINITION('geometric validation property',
'area of NO_10LOGO-232',#884);
#895=REPRESENTATION('surface area',(#893),#869);
#896=PROPERTY_DEFINITION_REPRESENTATION(#894,#895);
#897=(LENGTH_UNIT()NAMED_UNIT(*)SI_UNIT(.MILLI.,.METRE.));
#903=PROPERTY_DEFINITION('geometric validation property',
'area of NO_10LOGO-232',#883);
#904=REPRESENTATION('surface area',(#902),#869);
#905=PROPERTY_DEFINITION_REPRESENTATION(#903,#904);
#906=SHAPE_DEFINITION_REPRESENTATION(#883,#874);
ENDSEC;
END-ISO-10303-21;
