ISO-10303-21;
HEADER;
FILE_DESCRIPTION((''),'2;1');
FILE_NAME('NO_10LOGO-148','2026-06-15T13:45:41',('Esia'),(''),
'CREO PARAMETRIC BY PTC INC, 2025102','CREO PARAMETRIC BY PTC INC, 2025102','');
FILE_SCHEMA((
'AP242_MANAGED_MODEL_BASED_3D_ENGINEERING_MIM_LF { 1 0 10303 442 1 1 4 }'));
ENDSEC;
DATA;
#15=CARTESIAN_POINT('',(1.378507378063E1,9.758073116268E0,0.E0));
#16=CARTESIAN_POINT('',(1.378567580065E1,9.758047451575E0,0.E0));
#17=CARTESIAN_POINT('',(1.378684310683E1,9.757997688283E0,0.E0));
#18=CARTESIAN_POINT('',(1.378851525024E1,9.757599533150E0,0.E0));
#19=CARTESIAN_POINT('',(1.379002932789E1,9.756929839984E0,0.E0));
#20=CARTESIAN_POINT('',(1.379132542044E1,9.755987626866E0,0.E0));
#21=CARTESIAN_POINT('',(1.379240468320E1,9.754920566740E0,0.E0));
#22=CARTESIAN_POINT('',(1.379322104263E1,9.753773673638E0,0.E0));
#23=CARTESIAN_POINT('',(1.379372897858E1,9.752543660646E0,0.E0));
#24=CARTESIAN_POINT('',(1.379378537476E1,9.751691718614E0,0.E0));
#25=CARTESIAN_POINT('',(1.379381336121E1,9.751268944535E0,0.E0));
#27=CARTESIAN_POINT('',(1.377736238603E1,9.751268944535E0,0.E0));
#28=CARTESIAN_POINT('',(1.377739227794E1,9.751730866961E0,0.E0));
#29=CARTESIAN_POINT('',(1.377745077128E1,9.752634770551E0,0.E0));
#30=CARTESIAN_POINT('',(1.377789243567E1,9.753935798126E0,0.E0));
#31=CARTESIAN_POINT('',(1.377864546137E1,9.755099157260E0,0.E0));
#32=CARTESIAN_POINT('',(1.377964064532E1,9.756136876677E0,0.E0));
#33=CARTESIAN_POINT('',(1.378083693940E1,9.756982576583E0,0.E0));
#34=CARTESIAN_POINT('',(1.378215947334E1,9.757615524614E0,0.E0));
#35=CARTESIAN_POINT('',(1.378358453480E1,9.758010589228E0,0.E0));
#36=CARTESIAN_POINT('',(1.378457228065E1,9.758052060425E0,0.E0));
#37=CARTESIAN_POINT('',(1.378507378063E1,9.758073116268E0,0.E0));
#39=CARTESIAN_POINT('',(1.378507378063E1,9.744525254362E0,0.E0));
#40=CARTESIAN_POINT('',(1.378456672715E1,9.744544683354E0,0.E0));
#41=CARTESIAN_POINT('',(1.378357780743E1,9.744582576236E0,0.E0));
#42=CARTESIAN_POINT('',(1.378215658654E1,9.744994096394E0,0.E0));
#43=CARTESIAN_POINT('',(1.378082254866E1,9.745587866740E0,0.E0));
#44=CARTESIAN_POINT('',(1.377963963350E1,9.746453139402E0,0.E0));
#45=CARTESIAN_POINT('',(1.377865026935E1,9.747481507606E0,0.E0));
#46=CARTESIAN_POINT('',(1.377788847643E1,9.748634994378E0,0.E0));
#47=CARTESIAN_POINT('',(1.377745485312E1,9.749924095323E0,0.E0));
#48=CARTESIAN_POINT('',(1.377739343542E1,9.750817359827E0,0.E0));
#49=CARTESIAN_POINT('',(1.377736238603E1,9.751268944535E0,0.E0));
#51=CARTESIAN_POINT('',(1.379381336121E1,9.751268944535E0,0.E0));
#52=CARTESIAN_POINT('',(1.379378520165E1,9.750856035732E0,0.E0));
#53=CARTESIAN_POINT('',(1.379372808222E1,9.750018483024E0,0.E0));
#54=CARTESIAN_POINT('',(1.379321472113E1,9.748811076661E0,0.E0));
#55=CARTESIAN_POINT('',(1.379242209581E1,9.747658263449E0,0.E0));
#56=CARTESIAN_POINT('',(1.379134374931E1,9.746594994614E0,0.E0));
#57=CARTESIAN_POINT('',(1.379003962139E1,9.745670665701E0,0.E0));
#58=CARTESIAN_POINT('',(1.378853097420E1,9.744997915417E0,0.E0));
#59=CARTESIAN_POINT('',(1.378685313279E1,9.744599732787E0,0.E0));
#60=CARTESIAN_POINT('',(1.378568081915E1,9.744550663181E0,0.E0));
#61=CARTESIAN_POINT('',(1.378507378063E1,9.744525254362E0,0.E0));
#63=CARTESIAN_POINT('',(1.378507378063E1,9.744525254362E0,6.614173228346E-3));
#64=CARTESIAN_POINT('',(1.378568081915E1,9.744550663181E0,6.614173228346E-3));
#65=CARTESIAN_POINT('',(1.378685313279E1,9.744599732787E0,6.614173228346E-3));
#66=CARTESIAN_POINT('',(1.378853097420E1,9.744997915417E0,6.614173228346E-3));
#67=CARTESIAN_POINT('',(1.379003962139E1,9.745670665701E0,6.614173228346E-3));
#68=CARTESIAN_POINT('',(1.379134374931E1,9.746594994614E0,6.614173228346E-3));
#69=CARTESIAN_POINT('',(1.379242209581E1,9.747658263449E0,6.614173228346E-3));
#70=CARTESIAN_POINT('',(1.379321472113E1,9.748811076661E0,6.614173228346E-3));
#71=CARTESIAN_POINT('',(1.379372808222E1,9.750018483024E0,6.614173228346E-3));
#72=CARTESIAN_POINT('',(1.379378520165E1,9.750856035732E0,6.614173228346E-3));
#73=CARTESIAN_POINT('',(1.379381336121E1,9.751268944535E0,6.614173228346E-3));
#75=CARTESIAN_POINT('',(1.377736238603E1,9.751268944535E0,6.614173228346E-3));
#76=CARTESIAN_POINT('',(1.377739343542E1,9.750817359827E0,6.614173228346E-3));
#77=CARTESIAN_POINT('',(1.377745485312E1,9.749924095323E0,6.614173228346E-3));
#78=CARTESIAN_POINT('',(1.377788847643E1,9.748634994378E0,6.614173228346E-3));
#79=CARTESIAN_POINT('',(1.377865026935E1,9.747481507606E0,6.614173228346E-3));
#80=CARTESIAN_POINT('',(1.377963963350E1,9.746453139402E0,6.614173228346E-3));
#81=CARTESIAN_POINT('',(1.378082254866E1,9.745587866740E0,6.614173228346E-3));
#82=CARTESIAN_POINT('',(1.378215658654E1,9.744994096394E0,6.614173228346E-3));
#83=CARTESIAN_POINT('',(1.378357780743E1,9.744582576236E0,6.614173228346E-3));
#84=CARTESIAN_POINT('',(1.378456672715E1,9.744544683354E0,6.614173228346E-3));
#85=CARTESIAN_POINT('',(1.378507378063E1,9.744525254362E0,6.614173228346E-3));
#87=CARTESIAN_POINT('',(1.378507378063E1,9.758073116268E0,6.614173228346E-3));
#88=CARTESIAN_POINT('',(1.378457228065E1,9.758052060425E0,6.614173228346E-3));
#89=CARTESIAN_POINT('',(1.378358453480E1,9.758010589228E0,6.614173228346E-3));
#90=CARTESIAN_POINT('',(1.378215947334E1,9.757615524614E0,6.614173228346E-3));
#91=CARTESIAN_POINT('',(1.378083693940E1,9.756982576583E0,6.614173228346E-3));
#92=CARTESIAN_POINT('',(1.377964064532E1,9.756136876677E0,6.614173228346E-3));
#93=CARTESIAN_POINT('',(1.377864546137E1,9.755099157260E0,6.614173228346E-3));
#94=CARTESIAN_POINT('',(1.377789243567E1,9.753935798126E0,6.614173228346E-3));
#95=CARTESIAN_POINT('',(1.377745077128E1,9.752634770551E0,6.614173228346E-3));
#96=CARTESIAN_POINT('',(1.377739227794E1,9.751730866961E0,6.614173228346E-3));
#97=CARTESIAN_POINT('',(1.377736238603E1,9.751268944535E0,6.614173228346E-3));
#99=CARTESIAN_POINT('',(1.379381336121E1,9.751268944535E0,6.614173228346E-3));
#100=CARTESIAN_POINT('',(1.379378537476E1,9.751691718614E0,6.614173228346E-3));
#101=CARTESIAN_POINT('',(1.379372897858E1,9.752543660646E0,6.614173228346E-3));
#102=CARTESIAN_POINT('',(1.379322104263E1,9.753773673638E0,6.614173228346E-3));
#103=CARTESIAN_POINT('',(1.379240468320E1,9.754920566740E0,6.614173228346E-3));
#104=CARTESIAN_POINT('',(1.379132542044E1,9.755987626866E0,6.614173228346E-3));
#105=CARTESIAN_POINT('',(1.379002932789E1,9.756929839984E0,6.614173228346E-3));
#106=CARTESIAN_POINT('',(1.378851525024E1,9.757599533150E0,6.614173228346E-3));
#107=CARTESIAN_POINT('',(1.378684310683E1,9.757997688283E0,6.614173228346E-3));
#108=CARTESIAN_POINT('',(1.378567580065E1,9.758047451575E0,6.614173228346E-3));
#109=CARTESIAN_POINT('',(1.378507378063E1,9.758073116268E0,6.614173228346E-3));
#111=DIRECTION('',(0.E0,0.E0,1.E0));
#112=VECTOR('',#111,6.614173228346E-3);
#113=CARTESIAN_POINT('',(1.379381336121E1,9.751268944535E0,0.E0));
#114=LINE('',#113,#112);
#115=DIRECTION('',(0.E0,0.E0,1.E0));
#116=VECTOR('',#115,6.614173228346E-3);
#117=CARTESIAN_POINT('',(1.378507378063E1,9.744525254362E0,0.E0));
#118=LINE('',#117,#116);
#119=DIRECTION('',(0.E0,0.E0,1.E0));
#120=VECTOR('',#119,6.614173228346E-3);
#121=CARTESIAN_POINT('',(1.377736238603E1,9.751268944535E0,0.E0));
#122=LINE('',#121,#120);
#123=DIRECTION('',(0.E0,0.E0,-1.E0));
#124=VECTOR('',#123,6.614173228346E-3);
#125=CARTESIAN_POINT('',(1.378507378063E1,9.758073116268E0,6.614173228346E-3));
#126=LINE('',#125,#124);
#127=VERTEX_POINT('',#99);
#128=VERTEX_POINT('',#109);
#129=VERTEX_POINT('',#27);
#130=VERTEX_POINT('',#37);
#131=VERTEX_POINT('',#63);
#132=CARTESIAN_POINT('',(1.379381336121E1,9.751268944535E0,0.E0));
#133=VERTEX_POINT('',#132);
#134=VERTEX_POINT('',#39);
#135=VERTEX_POINT('',#97);
#136=CARTESIAN_POINT('',(1.377736238603E1,9.744525254362E0,0.E0));
#137=DIRECTION('',(0.E0,0.E0,1.E0));
#138=DIRECTION('',(1.E0,0.E0,0.E0));
#139=AXIS2_PLACEMENT_3D('',#136,#137,#138);
#140=PLANE('',#139);
#142=ORIENTED_EDGE('',*,*,#141,.F.);
#144=ORIENTED_EDGE('',*,*,#143,.F.);
#146=ORIENTED_EDGE('',*,*,#145,.F.);
#148=ORIENTED_EDGE('',*,*,#147,.F.);
#149=EDGE_LOOP('',(#142,#144,#146,#148));
#150=FACE_OUTER_BOUND('',#149,.F.);
#152=FILL_AREA_STYLE_COLOUR('',#14);
#153=FILL_AREA_STYLE('',(#152));
#154=SURFACE_STYLE_FILL_AREA(#153);
#155=SURFACE_SIDE_STYLE('',(#154));
#156=SURFACE_STYLE_USAGE(.BOTH.,#155);
#157=PRESENTATION_STYLE_ASSIGNMENT((#156));
#158=STYLED_ITEM('',(#157),#151);
#159=CARTESIAN_POINT('',(1.378495166818E1,9.758078340393E0,6.614173228346E-3));
#160=CARTESIAN_POINT('',(1.378559436017E1,9.758050652007E0,6.614173228346E-3));
#161=CARTESIAN_POINT('',(1.378680328491E1,9.758007170307E0,6.614173228346E-3));
#162=CARTESIAN_POINT('',(1.378851525024E1,9.757599533150E0,6.614173228346E-3));
#163=CARTESIAN_POINT('',(1.379002932789E1,9.756929839984E0,6.614173228346E-3));
#164=CARTESIAN_POINT('',(1.379132542044E1,9.755987626866E0,6.614173228346E-3));
#165=CARTESIAN_POINT('',(1.379240468320E1,9.754920566740E0,6.614173228346E-3));
#166=CARTESIAN_POINT('',(1.379322104263E1,9.753773673638E0,6.614173228346E-3));
#167=CARTESIAN_POINT('',(1.379374469958E1,9.752505590836E0,6.614173228346E-3));
#168=CARTESIAN_POINT('',(1.379379013521E1,9.751610289680E0,6.614173228346E-3));
#169=CARTESIAN_POINT('',(1.379382149431E1,9.751146997856E0,6.614173228346E-3));
#171=DRAUGHTING_PRE_DEFINED_CURVE_FONT('continuous');
#172=CURVE_STYLE('',#171,POSITIVE_LENGTH_MEASURE(2.E-2),#14);
#173=PRESENTATION_STYLE_ASSIGNMENT((#172));
#174=STYLED_ITEM('',(#173),#170);
#175=DIRECTION('',(0.E0,0.E0,-1.E0));
#176=VECTOR('',#175,1.E0);
#177=SURFACE_OF_LINEAR_EXTRUSION('',#170,#176);
#179=ORIENTED_EDGE('',*,*,#178,.T.);
#181=ORIENTED_EDGE('',*,*,#180,.T.);
#182=ORIENTED_EDGE('',*,*,#141,.T.);
#184=ORIENTED_EDGE('',*,*,#183,.T.);
#185=EDGE_LOOP('',(#179,#181,#182,#184));
#186=FACE_OUTER_BOUND('',#185,.F.);
#188=FILL_AREA_STYLE_COLOUR('',#14);
#189=FILL_AREA_STYLE('',(#188));
#190=SURFACE_STYLE_FILL_AREA(#189);
#191=SURFACE_SIDE_STYLE('',(#190));
#192=SURFACE_STYLE_USAGE(.BOTH.,#191);
#193=PRESENTATION_STYLE_ASSIGNMENT((#192));
#194=STYLED_ITEM('',(#193),#187);
#195=CARTESIAN_POINT('',(1.377736238603E1,9.744525254362E0,6.614173228346E-3));
#196=DIRECTION('',(0.E0,0.E0,1.E0));
#197=DIRECTION('',(1.E0,0.E0,0.E0));
#198=AXIS2_PLACEMENT_3D('',#195,#196,#197);
#199=PLANE('',#198);
#201=ORIENTED_EDGE('',*,*,#200,.F.);
#203=ORIENTED_EDGE('',*,*,#202,.F.);
#205=ORIENTED_EDGE('',*,*,#204,.F.);
#206=ORIENTED_EDGE('',*,*,#178,.F.);
#207=EDGE_LOOP('',(#201,#203,#205,#206));
#208=FACE_OUTER_BOUND('',#207,.F.);
#210=FILL_AREA_STYLE_COLOUR('',#14);
#211=FILL_AREA_STYLE('',(#210));
#212=SURFACE_STYLE_FILL_AREA(#211);
#213=SURFACE_SIDE_STYLE('',(#212));
#214=SURFACE_STYLE_USAGE(.BOTH.,#213);
#215=PRESENTATION_STYLE_ASSIGNMENT((#214));
#216=STYLED_ITEM('',(#215),#209);
#217=CARTESIAN_POINT('',(1.379382170872E1,9.751390409704E0,6.614173228346E-3));
#218=CARTESIAN_POINT('',(1.379379008300E1,9.750937155700E0,6.614173228346E-3));
#219=CARTESIAN_POINT('',(1.379374411681E1,9.750056195782E0,6.614173228346E-3));
#220=CARTESIAN_POINT('',(1.379321472113E1,9.748811076661E0,6.614173228346E-3));
#221=CARTESIAN_POINT('',(1.379242209581E1,9.747658263449E0,6.614173228346E-3));
#222=CARTESIAN_POINT('',(1.379134374931E1,9.746594994614E0,6.614173228346E-3));
#223=CARTESIAN_POINT('',(1.379003962139E1,9.745670665701E0,6.614173228346E-3));
#224=CARTESIAN_POINT('',(1.378853097420E1,9.744997915417E0,6.614173228346E-3));
#225=CARTESIAN_POINT('',(1.378681344190E1,9.744590313409E0,6.614173228346E-3));
#226=CARTESIAN_POINT('',(1.378559968673E1,9.744547535573E0,6.614173228346E-3));
#227=CARTESIAN_POINT('',(1.378495212862E1,9.744520144446E0,6.614173228346E-3));
#229=CURVE_STYLE('',#171,POSITIVE_LENGTH_MEASURE(2.E-2),#14);
#230=PRESENTATION_STYLE_ASSIGNMENT((#229));
#231=STYLED_ITEM('',(#230),#228);
#232=DIRECTION('',(0.E0,0.E0,-1.E0));
#233=VECTOR('',#232,1.E0);
#234=SURFACE_OF_LINEAR_EXTRUSION('',#228,#233);
#235=ORIENTED_EDGE('',*,*,#200,.T.);
#236=ORIENTED_EDGE('',*,*,#183,.F.);
#237=ORIENTED_EDGE('',*,*,#147,.T.);
#239=ORIENTED_EDGE('',*,*,#238,.T.);
#240=EDGE_LOOP('',(#235,#236,#237,#239));
#241=FACE_OUTER_BOUND('',#240,.F.);
#243=FILL_AREA_STYLE_COLOUR('',#14);
#244=FILL_AREA_STYLE('',(#243));
#245=SURFACE_STYLE_FILL_AREA(#244);
#246=SURFACE_SIDE_STYLE('',(#245));
#247=SURFACE_STYLE_USAGE(.BOTH.,#246);
#248=PRESENTATION_STYLE_ASSIGNMENT((#247));
#249=STYLED_ITEM('',(#248),#242);
#250=CARTESIAN_POINT('',(1.378518733903E1,9.744520876871E0,6.614173228346E-3));
#251=CARTESIAN_POINT('',(1.378464248612E1,9.744542131728E0,6.614173228346E-3));
#252=CARTESIAN_POINT('',(1.378361433328E1,9.744572000032E0,6.614173228346E-3));
#253=CARTESIAN_POINT('',(1.378215658654E1,9.744994096394E0,6.614173228346E-3));
#254=CARTESIAN_POINT('',(1.378082254866E1,9.745587866740E0,6.614173228346E-3));
#255=CARTESIAN_POINT('',(1.377963963350E1,9.746453139402E0,6.614173228346E-3));
#256=CARTESIAN_POINT('',(1.377865026935E1,9.747481507606E0,6.614173228346E-3));
#257=CARTESIAN_POINT('',(1.377788847643E1,9.748634994378E0,6.614173228346E-3));
#258=CARTESIAN_POINT('',(1.377744264396E1,9.749960391416E0,6.614173228346E-3));
#259=CARTESIAN_POINT('',(1.377738864506E1,9.750893008379E0,6.614173228346E-3));
#260=CARTESIAN_POINT('',(1.377735455654E1,9.751382317096E0,6.614173228346E-3));
#262=CURVE_STYLE('',#171,POSITIVE_LENGTH_MEASURE(2.E-2),#14);
#263=PRESENTATION_STYLE_ASSIGNMENT((#262));
#264=STYLED_ITEM('',(#263),#261);
#265=DIRECTION('',(0.E0,0.E0,-1.E0));
#266=VECTOR('',#265,1.E0);
#267=SURFACE_OF_LINEAR_EXTRUSION('',#261,#266);
#268=ORIENTED_EDGE('',*,*,#202,.T.);
#269=ORIENTED_EDGE('',*,*,#238,.F.);
#270=ORIENTED_EDGE('',*,*,#145,.T.);
#272=ORIENTED_EDGE('',*,*,#271,.T.);
#273=EDGE_LOOP('',(#268,#269,#270,#272));
#274=FACE_OUTER_BOUND('',#273,.F.);
#276=FILL_AREA_STYLE_COLOUR('',#14);
#277=FILL_AREA_STYLE('',(#276));
#278=SURFACE_STYLE_FILL_AREA(#277);
#279=SURFACE_SIDE_STYLE('',(#278));
#280=SURFACE_STYLE_USAGE(.BOTH.,#279);
#281=PRESENTATION_STYLE_ASSIGNMENT((#280));
#282=STYLED_ITEM('',(#281),#275);
#283=CARTESIAN_POINT('',(1.377735498239E1,9.751155068432E0,6.614173228346E-3));
#284=CARTESIAN_POINT('',(1.377738778047E1,9.751654879655E0,6.614173228346E-3));
#285=CARTESIAN_POINT('',(1.377743842036E1,9.752598388005E0,6.614173228346E-3));
#286=CARTESIAN_POINT('',(1.377789243567E1,9.753935798126E0,6.614173228346E-3));
#287=CARTESIAN_POINT('',(1.377864546137E1,9.755099157260E0,6.614173228346E-3));
#288=CARTESIAN_POINT('',(1.377964064532E1,9.756136876677E0,6.614173228346E-3));
#289=CARTESIAN_POINT('',(1.378083693940E1,9.756982576583E0,6.614173228346E-3));
#290=CARTESIAN_POINT('',(1.378215947334E1,9.757615524614E0,6.614173228346E-3));
#291=CARTESIAN_POINT('',(1.378362140948E1,9.758020811860E0,6.614173228346E-3));
#292=CARTESIAN_POINT('',(1.378464833706E1,9.758054919933E0,6.614173228346E-3));
#293=CARTESIAN_POINT('',(1.378518779662E1,9.758077928608E0,6.614173228346E-3));
#295=CURVE_STYLE('',#171,POSITIVE_LENGTH_MEASURE(2.E-2),#14);
#296=PRESENTATION_STYLE_ASSIGNMENT((#295));
#297=STYLED_ITEM('',(#296),#294);
#298=DIRECTION('',(0.E0,0.E0,-1.E0));
#299=VECTOR('',#298,1.E0);
#300=SURFACE_OF_LINEAR_EXTRUSION('',#294,#299);
#301=ORIENTED_EDGE('',*,*,#204,.T.);
#302=ORIENTED_EDGE('',*,*,#271,.F.);
#303=ORIENTED_EDGE('',*,*,#143,.T.);
#304=ORIENTED_EDGE('',*,*,#180,.F.);
#305=EDGE_LOOP('',(#301,#302,#303,#304));
#306=FACE_OUTER_BOUND('',#305,.F.);
#308=FILL_AREA_STYLE_COLOUR('',#14);
#309=FILL_AREA_STYLE('',(#308));
#310=SURFACE_STYLE_FILL_AREA(#309);
#311=SURFACE_SIDE_STYLE('',(#310));
#312=SURFACE_STYLE_USAGE(.BOTH.,#311);
#313=PRESENTATION_STYLE_ASSIGNMENT((#312));
#314=STYLED_ITEM('',(#313),#307);
#317=PRESENTATION_LAYER_ASSIGNMENT('SHELL_348','',(#151,#170,#187,#209,#228,
#242,#261,#275,#294,#307,#316));
#319=LENGTH_MEASURE_WITH_UNIT(LENGTH_MEASURE(2.54E1),#318);
#320=(CONVERSION_BASED_UNIT('INCH',#319)LENGTH_UNIT()NAMED_UNIT(*));
#322=PLANE_ANGLE_MEASURE_WITH_UNIT(PLANE_ANGLE_MEASURE(1.745329251994E-2),#321);
#323=(CONVERSION_BASED_UNIT('DEGREE',#322)NAMED_UNIT(*)PLANE_ANGLE_UNIT());
#325=UNCERTAINTY_MEASURE_WITH_UNIT(LENGTH_MEASURE(1.859633668927E-5),#320,
'closure',
'Maximum model space distance between geometric entities at asserted connectivities');
#327=CARTESIAN_POINT('',(0.E0,0.E0,0.E0));
#328=DIRECTION('',(0.E0,0.E0,1.E0));
#329=DIRECTION('',(1.E0,0.E0,0.E0));
#332=MECHANICAL_DESIGN_GEOMETRIC_PRESENTATION_REPRESENTATION('',(#158,#174,#194,
#216,#231,#249,#264,#282,#297,#314),#326);
#333=APPLICATION_CONTEXT('automotive design');
#334=APPLICATION_PROTOCOL_DEFINITION('international standard',
'config_control_design',1994,#333);
#335=PRODUCT_DEFINITION_CONTEXT('',#333,'design');
#336=PRODUCT_CONTEXT('',#333,'mechanical');
#337=PRODUCT('NO_10LOGO-148','NO_10LOGO-148','NOT SPECIFIED',(#336));
#338=PRODUCT_DEFINITION_FORMATION_WITH_SPECIFIED_SOURCE('1','LAST_VERSION',#337,
.MADE.);
#346=LENGTH_MEASURE_WITH_UNIT(LENGTH_MEASURE(2.54E1),#345);
#347=(CONVERSION_BASED_UNIT('INCH',#346)LENGTH_UNIT()NAMED_UNIT(*));
#348=DERIVED_UNIT_ELEMENT(#347,2.E0);
#349=AREA_UNIT((#348));
#350=MEASURE_REPRESENTATION_ITEM('surface area measure',AREA_MEASURE(
4.265628526715E-7),#349);
#355=LENGTH_MEASURE_WITH_UNIT(LENGTH_MEASURE(2.54E1),#354);
#356=(CONVERSION_BASED_UNIT('INCH',#355)LENGTH_UNIT()NAMED_UNIT(*));
#357=DERIVED_UNIT_ELEMENT(#356,2.E0);
#358=AREA_UNIT((#357));
#359=MEASURE_REPRESENTATION_ITEM('surface area measure',AREA_MEASURE(
4.265628526715E-7),#358);
#1=DRAUGHTING_PRE_DEFINED_COLOUR('green');
#2=COLOUR_RGB('',1.1E-2,1.2E-2,1.E0);
#3=COLOUR_RGB('',2.352941176471E-1,2.352941176471E-1,2.352941176471E-1);
#4=COLOUR_RGB('',4.1E-1,2.61589E-1,1.12848E-1);
#5=COLOUR_RGB('',5.04854E-1,1.5455E-2,1.5455E-2);
#6=COLOUR_RGB('',6.35294E-1,6.86275E-1,7.4902E-1);
#7=COLOUR_RGB('',6.40777E-1,6.40777E-1,6.40777E-1);
#8=COLOUR_RGB('',6.69062E-1,6.69903E-1,6.55217E-1);
#9=COLOUR_RGB('',9.21569E-1,7.05882E-1,4.70588E-1);
#10=DRAUGHTING_PRE_DEFINED_COLOUR('red');
#11=DRAUGHTING_PRE_DEFINED_COLOUR('yellow');
#12=COLOUR_RGB('',1.E0,1.E0,5.3E-1);
#13=COLOUR_RGB('',1.E0,1.E0,9.49E-1);
#14=DRAUGHTING_PRE_DEFINED_COLOUR('white');
#26=B_SPLINE_CURVE_WITH_KNOTS('',3,(#15,#16,#17,#18,#19,#20,#21,#22,#23,#24,
#25),.UNSPECIFIED.,.F.,.F.,(4,1,1,1,1,1,1,1,4),(0.E0,1.47843213E-1,
2.86665389E-1,4.19747231E-1,5.52094752E-1,6.78237821E-1,7.91298694E-1,
8.96432517E-1,1.E0),.UNSPECIFIED.);
#38=B_SPLINE_CURVE_WITH_KNOTS('',3,(#27,#28,#29,#30,#31,#32,#33,#34,#35,#36,
#37),.UNSPECIFIED.,.F.,.F.,(4,1,1,1,1,1,1,1,4),(0.E0,1.21473827E-1,2.377036E-1,
3.56976142E-1,4.8367152E-1,6.14010988E-1,7.40428128E-1,8.68209733E-1,1.E0),
.UNSPECIFIED.);
#50=B_SPLINE_CURVE_WITH_KNOTS('',3,(#39,#40,#41,#42,#43,#44,#45,#46,#47,#48,
#49),.UNSPECIFIED.,.F.,.F.,(4,1,1,1,1,1,1,1,4),(0.E0,1.336682690001E-1,
2.60696737E-1,3.88283023E-1,5.18083449E-1,6.45307432E-1,7.639531909999E-1,
8.806679039999E-1,1.E0),.UNSPECIFIED.);
#62=B_SPLINE_CURVE_WITH_KNOTS('',3,(#51,#52,#53,#54,#55,#56,#57,#58,#59,#60,
#61),.UNSPECIFIED.,.F.,.F.,(4,1,1,1,1,1,1,1,4),(0.E0,1.01492957E-1,
2.05870408E-1,3.18657796E-1,4.45281112E-1,5.77414679E-1,7.11003185E-1,
8.50353879E-1,1.E0),.UNSPECIFIED.);
#74=B_SPLINE_CURVE_WITH_KNOTS('',3,(#63,#64,#65,#66,#67,#68,#69,#70,#71,#72,
#73),.UNSPECIFIED.,.F.,.F.,(4,1,1,1,1,1,1,1,4),(0.E0,1.49646121E-1,
2.88996815E-1,4.22585321E-1,5.54718888E-1,6.81342204E-1,7.94129592E-1,
8.98507043E-1,1.E0),.UNSPECIFIED.);
#86=B_SPLINE_CURVE_WITH_KNOTS('',3,(#75,#76,#77,#78,#79,#80,#81,#82,#83,#84,
#85),.UNSPECIFIED.,.F.,.F.,(4,1,1,1,1,1,1,1,4),(0.E0,1.193320960001E-1,
2.360468090001E-1,3.54692568E-1,4.81916551E-1,6.11716977E-1,7.39303263E-1,
8.663317309999E-1,1.E0),.UNSPECIFIED.);
#98=B_SPLINE_CURVE_WITH_KNOTS('',3,(#87,#88,#89,#90,#91,#92,#93,#94,#95,#96,
#97),.UNSPECIFIED.,.F.,.F.,(4,1,1,1,1,1,1,1,4),(0.E0,1.31790267E-1,
2.59571872E-1,3.85989012E-1,5.1632848E-1,6.43023858E-1,7.622964E-1,
8.78526173E-1,1.E0),.UNSPECIFIED.);
#110=B_SPLINE_CURVE_WITH_KNOTS('',3,(#99,#100,#101,#102,#103,#104,#105,#106,
#107,#108,#109),.UNSPECIFIED.,.F.,.F.,(4,1,1,1,1,1,1,1,4),(0.E0,1.03567483E-1,
2.08701306E-1,3.21762179E-1,4.47905248E-1,5.80252769E-1,7.13334611E-1,
8.52156787E-1,1.E0),.UNSPECIFIED.);
#141=EDGE_CURVE('',#130,#133,#26,.T.);
#143=EDGE_CURVE('',#129,#130,#38,.T.);
#145=EDGE_CURVE('',#134,#129,#50,.T.);
#147=EDGE_CURVE('',#133,#134,#62,.T.);
#151=ADVANCED_FACE('',(#150),#140,.F.);
#170=B_SPLINE_CURVE_WITH_KNOTS('',3,(#159,#160,#161,#162,#163,#164,#165,#166,
#167,#168,#169),.UNSPECIFIED.,.F.,.F.,(4,1,1,1,1,1,1,1,4),(0.E0,
1.547513843512E-1,2.908575596920E-1,4.213357083844E-1,5.510939027751E-1,
6.747690328014E-1,7.856179147892E-1,8.886948363575E-1,1.E0),.UNSPECIFIED.);
#178=EDGE_CURVE('',#127,#128,#110,.T.);
#180=EDGE_CURVE('',#128,#130,#126,.T.);
#183=EDGE_CURVE('',#133,#127,#114,.T.);
#187=ADVANCED_FACE('',(#186),#177,.T.);
#200=EDGE_CURVE('',#131,#127,#74,.T.);
#202=EDGE_CURVE('',#135,#131,#86,.T.);
#204=EDGE_CURVE('',#128,#135,#98,.T.);
#209=ADVANCED_FACE('',(#208),#199,.T.);
#228=B_SPLINE_CURVE_WITH_KNOTS('',3,(#217,#218,#219,#220,#221,#222,#223,#224,
#225,#226,#227),.UNSPECIFIED.,.F.,.F.,(4,1,1,1,1,1,1,1,4),(0.E0,
1.092662439624E-1,2.116021177977E-1,3.221834339536E-1,4.463300534258E-1,
5.758791458051E-1,7.068547192157E-1,8.434797747561E-1,1.E0),.UNSPECIFIED.);
#238=EDGE_CURVE('',#134,#131,#118,.T.);
#242=ADVANCED_FACE('',(#241),#234,.T.);
#261=B_SPLINE_CURVE_WITH_KNOTS('',3,(#250,#251,#252,#253,#254,#255,#256,#257,
#258,#259,#260),.UNSPECIFIED.,.F.,.F.,(4,1,1,1,1,1,1,1,4),(0.E0,
1.408353836338E-1,2.653772766523E-1,3.904660684155E-1,5.177256585151E-1,
6.424592393388E-1,7.587825144057E-1,8.732125435873E-1,1.E0),.UNSPECIFIED.);
#271=EDGE_CURVE('',#129,#135,#122,.T.);
#275=ADVANCED_FACE('',(#274),#267,.T.);
#294=B_SPLINE_CURVE_WITH_KNOTS('',3,(#283,#284,#285,#286,#287,#288,#289,#290,
#291,#292,#293),.UNSPECIFIED.,.F.,.F.,(4,1,1,1,1,1,1,1,4),(0.E0,
1.288826325621E-1,2.428366927205E-1,3.597739461925E-1,4.839887007580E-1,
6.117761961140E-1,7.357181604212E-1,8.609978742799E-1,1.E0),.UNSPECIFIED.);
#307=ADVANCED_FACE('',(#306),#300,.T.);
#315=CLOSED_SHELL('',(#151,#187,#209,#242,#275,#307));
#316=MANIFOLD_SOLID_BREP('',#315);
#318=(LENGTH_UNIT()NAMED_UNIT(*)SI_UNIT(.MILLI.,.METRE.));
#321=(NAMED_UNIT(*)PLANE_ANGLE_UNIT()SI_UNIT($,.RADIAN.));
#324=(NAMED_UNIT(*)SI_UNIT($,.STERADIAN.)SOLID_ANGLE_UNIT());
#326=(GEOMETRIC_REPRESENTATION_CONTEXT(3)GLOBAL_UNCERTAINTY_ASSIGNED_CONTEXT((
#325))GLOBAL_UNIT_ASSIGNED_CONTEXT((#320,#323,#324))REPRESENTATION_CONTEXT
('ID1','3'));
#330=AXIS2_PLACEMENT_3D('',#327,#328,#329);
#331=ADVANCED_BREP_SHAPE_REPRESENTATION('',(#330,#316),#326);
#339=PRODUCT_DEFINITION('design','',#338,#335);
#340=PRODUCT_DEFINITION_SHAPE('','SHAPE FOR NO_10LOGO-148.',#339);
#341=SHAPE_ASPECT('','solid data associated with NO_10LOGO-148',#340,.F.);
#342=PROPERTY_DEFINITION('',
'shape for solid data with which properties are associated',#341);
#343=SHAPE_REPRESENTATION('',(#316),#326);
#344=SHAPE_DEFINITION_REPRESENTATION(#342,#343);
#345=(LENGTH_UNIT()NAMED_UNIT(*)SI_UNIT(.MILLI.,.METRE.));
#351=PROPERTY_DEFINITION('geometric validation property',
'area of NO_10LOGO-148',#341);
#352=REPRESENTATION('surface area',(#350),#326);
#353=PROPERTY_DEFINITION_REPRESENTATION(#351,#352);
#354=(LENGTH_UNIT()NAMED_UNIT(*)SI_UNIT(.MILLI.,.METRE.));
#360=PROPERTY_DEFINITION('geometric validation property',
'area of NO_10LOGO-148',#340);
#361=REPRESENTATION('surface area',(#359),#326);
#362=PROPERTY_DEFINITION_REPRESENTATION(#360,#361);
#363=SHAPE_DEFINITION_REPRESENTATION(#340,#331);
ENDSEC;
END-ISO-10303-21;
