ISO-10303-21;
HEADER;
FILE_DESCRIPTION((''),'2;1');
FILE_NAME('NO_10LOGO-184','2026-06-15T13:45:42',('Esia'),(''),
'CREO PARAMETRIC BY PTC INC, 2025102','CREO PARAMETRIC BY PTC INC, 2025102','');
FILE_SCHEMA((
'AP242_MANAGED_MODEL_BASED_3D_ENGINEERING_MIM_LF { 1 0 10303 442 1 1 4 }'));
ENDSEC;
DATA;
#15=DIRECTION('',(-1.E0,0.E0,0.E0));
#16=VECTOR('',#15,5.731753464568E-3);
#17=CARTESIAN_POINT('',(1.359373252238E1,9.582256373953E0,0.E0));
#18=LINE('',#17,#16);
#19=DIRECTION('',(-4.286777096659E-1,-9.034574816977E-1,0.E0));
#20=VECTOR('',#19,4.448889156518E-2);
#21=CARTESIAN_POINT('',(1.361280391852E1,9.622450195890E0,0.E0));
#22=LINE('',#21,#20);
#23=DIRECTION('',(1.E0,0.E0,0.E0));
#24=VECTOR('',#23,5.787401574802E-3);
#25=CARTESIAN_POINT('',(1.360701651694E1,9.622450195890E0,0.E0));
#26=LINE('',#25,#24);
#27=DIRECTION('',(4.143063459913E-1,9.101374905317E-1,0.E0));
#28=VECTOR('',#27,2.379317167388E-2);
#29=CARTESIAN_POINT('',(1.359715885493E1,9.600795138331E0,0.E0));
#30=LINE('',#29,#28);
#31=DIRECTION('',(4.073512954905E-1,-9.132715489175E-1,0.E0));
#32=VECTOR('',#31,2.371152105277E-2);
#33=CARTESIAN_POINT('',(1.358749993611E1,9.622450195890E0,0.E0));
#34=LINE('',#33,#32);
#35=DIRECTION('',(1.E0,0.E0,0.E0));
#36=VECTOR('',#35,5.731753511812E-3);
#37=CARTESIAN_POINT('',(1.358176818260E1,9.622450195890E0,0.E0));
#38=LINE('',#37,#36);
#39=DIRECTION('',(-4.192626849332E-1,9.078649684962E-1,0.E0));
#40=VECTOR('',#39,2.957948619999E-2);
#41=CARTESIAN_POINT('',(1.359416975740E1,9.595596016583E0,0.E0));
#42=LINE('',#41,#40);
#43=DIRECTION('',(4.197440867292E-1,9.076424966119E-1,0.E0));
#44=VECTOR('',#43,1.469702297955E-2);
#45=CARTESIAN_POINT('',(1.358800076891E1,9.582256373953E0,0.E0));
#46=LINE('',#45,#44);
#47=DIRECTION('',(-1.E0,0.E0,0.E0));
#48=VECTOR('',#47,5.731753464568E-3);
#49=CARTESIAN_POINT('',(1.359373252238E1,9.582256373953E0,6.614173228346E-3));
#50=LINE('',#49,#48);
#51=DIRECTION('',(0.E0,0.E0,-1.E0));
#52=VECTOR('',#51,6.614173228346E-3);
#53=CARTESIAN_POINT('',(1.358800076891E1,9.582256373953E0,6.614173228346E-3));
#54=LINE('',#53,#52);
#55=DIRECTION('',(-4.197440867293E-1,-9.076424966118E-1,0.E0));
#56=VECTOR('',#55,1.469702297955E-2);
#57=CARTESIAN_POINT('',(1.359416975740E1,9.595596016583E0,6.614173228346E-3));
#58=LINE('',#57,#56);
#59=DIRECTION('',(4.192626849332E-1,-9.078649684962E-1,0.E0));
#60=VECTOR('',#59,2.957948619999E-2);
#61=CARTESIAN_POINT('',(1.358176818260E1,9.622450195890E0,6.614173228346E-3));
#62=LINE('',#61,#60);
#63=DIRECTION('',(-4.073512954906E-1,9.132715489175E-1,0.E0));
#64=VECTOR('',#63,2.371152105277E-2);
#65=CARTESIAN_POINT('',(1.359715885493E1,9.600795138331E0,6.614173228346E-3));
#66=LINE('',#65,#64);
#67=DIRECTION('',(-4.143063459914E-1,-9.101374905317E-1,0.E0));
#68=VECTOR('',#67,2.379317167388E-2);
#69=CARTESIAN_POINT('',(1.360701651694E1,9.622450195890E0,6.614173228346E-3));
#70=LINE('',#69,#68);
#71=DIRECTION('',(4.286777096659E-1,9.034574816977E-1,0.E0));
#72=VECTOR('',#71,4.448889156518E-2);
#73=CARTESIAN_POINT('',(1.359373252238E1,9.582256373953E0,6.614173228346E-3));
#74=LINE('',#73,#72);
#75=DIRECTION('',(0.E0,0.E0,-1.E0));
#76=VECTOR('',#75,6.614173228346E-3);
#77=CARTESIAN_POINT('',(1.359416975740E1,9.595596016583E0,6.614173228346E-3));
#78=LINE('',#77,#76);
#79=DIRECTION('',(1.E0,0.E0,0.E0));
#80=VECTOR('',#79,5.731753511810E-3);
#81=CARTESIAN_POINT('',(1.358176818260E1,9.622450195890E0,6.614173228346E-3));
#82=LINE('',#81,#80);
#83=DIRECTION('',(2.685682364331E-13,0.E0,1.E0));
#84=VECTOR('',#83,6.614173228346E-3);
#85=CARTESIAN_POINT('',(1.358176818260E1,9.622450195890E0,0.E0));
#86=LINE('',#85,#84);
#87=DIRECTION('',(0.E0,0.E0,-1.E0));
#88=VECTOR('',#87,6.614173228346E-3);
#89=CARTESIAN_POINT('',(1.358749993611E1,9.622450195890E0,6.614173228346E-3));
#90=LINE('',#89,#88);
#91=DIRECTION('',(0.E0,-2.685682364331E-13,-1.E0));
#92=VECTOR('',#91,6.614173228346E-3);
#93=CARTESIAN_POINT('',(1.359715885493E1,9.600795138331E0,6.614173228346E-3));
#94=LINE('',#93,#92);
#95=DIRECTION('',(0.E0,0.E0,-1.E0));
#96=VECTOR('',#95,6.614173228346E-3);
#97=CARTESIAN_POINT('',(1.360701651694E1,9.622450195890E0,6.614173228346E-3));
#98=LINE('',#97,#96);
#99=DIRECTION('',(1.E0,0.E0,0.E0));
#100=VECTOR('',#99,5.787401574805E-3);
#101=CARTESIAN_POINT('',(1.360701651694E1,9.622450195890E0,6.614173228346E-3));
#102=LINE('',#101,#100);
#103=DIRECTION('',(0.E0,0.E0,-1.E0));
#104=VECTOR('',#103,6.614173228346E-3);
#105=CARTESIAN_POINT('',(1.361280391852E1,9.622450195890E0,6.614173228346E-3));
#106=LINE('',#105,#104);
#107=DIRECTION('',(0.E0,0.E0,-1.E0));
#108=VECTOR('',#107,6.614173228346E-3);
#109=CARTESIAN_POINT('',(1.359373252238E1,9.582256373953E0,6.614173228346E-3));
#110=LINE('',#109,#108);
#111=CARTESIAN_POINT('',(1.358176818260E1,9.622450195890E0,6.614173228346E-3));
#112=CARTESIAN_POINT('',(1.359416975740E1,9.595596016583E0,6.614173228346E-3));
#113=VERTEX_POINT('',#111);
#114=VERTEX_POINT('',#112);
#115=CARTESIAN_POINT('',(1.359715885493E1,9.600795138331E0,6.614173228346E-3));
#116=CARTESIAN_POINT('',(1.358749993611E1,9.622450195890E0,6.614173228346E-3));
#117=VERTEX_POINT('',#115);
#118=VERTEX_POINT('',#116);
#119=CARTESIAN_POINT('',(1.358800076891E1,9.582256373953E0,6.614173228346E-3));
#120=VERTEX_POINT('',#119);
#121=CARTESIAN_POINT('',(1.359416975740E1,9.595596016583E0,0.E0));
#122=VERTEX_POINT('',#121);
#123=CARTESIAN_POINT('',(1.358749993611E1,9.622450195890E0,0.E0));
#124=VERTEX_POINT('',#123);
#125=CARTESIAN_POINT('',(1.358176818260E1,9.622450195890E0,0.E0));
#126=VERTEX_POINT('',#125);
#127=CARTESIAN_POINT('',(1.359715885493E1,9.600795138331E0,0.E0));
#128=VERTEX_POINT('',#127);
#129=CARTESIAN_POINT('',(1.358800076891E1,9.582256373953E0,0.E0));
#130=VERTEX_POINT('',#129);
#131=CARTESIAN_POINT('',(1.359373252238E1,9.582256373953E0,6.614173228346E-3));
#132=CARTESIAN_POINT('',(1.359373252238E1,9.582256373953E0,0.E0));
#133=VERTEX_POINT('',#131);
#134=VERTEX_POINT('',#132);
#135=CARTESIAN_POINT('',(1.361280391852E1,9.622450195890E0,6.614173228346E-3));
#136=CARTESIAN_POINT('',(1.361280391852E1,9.622450195890E0,0.E0));
#137=VERTEX_POINT('',#135);
#138=VERTEX_POINT('',#136);
#139=CARTESIAN_POINT('',(1.360701651694E1,9.622450195890E0,6.614173228346E-3));
#140=CARTESIAN_POINT('',(1.360701651694E1,9.622450195890E0,0.E0));
#141=VERTEX_POINT('',#139);
#142=VERTEX_POINT('',#140);
#143=CARTESIAN_POINT('',(1.361280391852E1,9.582256373953E0,0.E0));
#144=DIRECTION('',(0.E0,0.E0,-1.E0));
#145=DIRECTION('',(-1.E0,0.E0,0.E0));
#146=AXIS2_PLACEMENT_3D('',#143,#144,#145);
#147=PLANE('',#146);
#149=ORIENTED_EDGE('',*,*,#148,.F.);
#151=ORIENTED_EDGE('',*,*,#150,.F.);
#153=ORIENTED_EDGE('',*,*,#152,.F.);
#155=ORIENTED_EDGE('',*,*,#154,.F.);
#157=ORIENTED_EDGE('',*,*,#156,.F.);
#159=ORIENTED_EDGE('',*,*,#158,.F.);
#161=ORIENTED_EDGE('',*,*,#160,.F.);
#163=ORIENTED_EDGE('',*,*,#162,.F.);
#164=EDGE_LOOP('',(#149,#151,#153,#155,#157,#159,#161,#163));
#165=FACE_OUTER_BOUND('',#164,.F.);
#167=FILL_AREA_STYLE_COLOUR('',#14);
#168=FILL_AREA_STYLE('',(#167));
#169=SURFACE_STYLE_FILL_AREA(#168);
#170=SURFACE_SIDE_STYLE('',(#169));
#171=SURFACE_STYLE_USAGE(.BOTH.,#170);
#172=PRESENTATION_STYLE_ASSIGNMENT((#171));
#173=STYLED_ITEM('',(#172),#166);
#174=CARTESIAN_POINT('',(1.358800076891E1,9.582256373953E0,6.614173228346E-3));
#175=DIRECTION('',(0.E0,-1.E0,0.E0));
#176=DIRECTION('',(0.E0,0.E0,-1.E0));
#177=AXIS2_PLACEMENT_3D('',#174,#175,#176);
#178=PLANE('',#177);
#180=ORIENTED_EDGE('',*,*,#179,.F.);
#182=ORIENTED_EDGE('',*,*,#181,.T.);
#183=ORIENTED_EDGE('',*,*,#148,.T.);
#185=ORIENTED_EDGE('',*,*,#184,.F.);
#186=EDGE_LOOP('',(#180,#182,#183,#185));
#187=FACE_OUTER_BOUND('',#186,.F.);
#189=FILL_AREA_STYLE_COLOUR('',#14);
#190=FILL_AREA_STYLE('',(#189));
#191=SURFACE_STYLE_FILL_AREA(#190);
#192=SURFACE_SIDE_STYLE('',(#191));
#193=SURFACE_STYLE_USAGE(.BOTH.,#192);
#194=PRESENTATION_STYLE_ASSIGNMENT((#193));
#195=STYLED_ITEM('',(#194),#188);
#196=CARTESIAN_POINT('',(1.361280391852E1,9.582256373953E0,6.614173228346E-3));
#197=DIRECTION('',(0.E0,0.E0,-1.E0));
#198=DIRECTION('',(-1.E0,0.E0,0.E0));
#199=AXIS2_PLACEMENT_3D('',#196,#197,#198);
#200=PLANE('',#199);
#202=ORIENTED_EDGE('',*,*,#201,.F.);
#204=ORIENTED_EDGE('',*,*,#203,.F.);
#206=ORIENTED_EDGE('',*,*,#205,.T.);
#208=ORIENTED_EDGE('',*,*,#207,.F.);
#210=ORIENTED_EDGE('',*,*,#209,.F.);
#212=ORIENTED_EDGE('',*,*,#211,.T.);
#214=ORIENTED_EDGE('',*,*,#213,.F.);
#215=ORIENTED_EDGE('',*,*,#179,.T.);
#216=EDGE_LOOP('',(#202,#204,#206,#208,#210,#212,#214,#215));
#217=FACE_OUTER_BOUND('',#216,.F.);
#219=FILL_AREA_STYLE_COLOUR('',#14);
#220=FILL_AREA_STYLE('',(#219));
#221=SURFACE_STYLE_FILL_AREA(#220);
#222=SURFACE_SIDE_STYLE('',(#221));
#223=SURFACE_STYLE_USAGE(.BOTH.,#222);
#224=PRESENTATION_STYLE_ASSIGNMENT((#223));
#225=STYLED_ITEM('',(#224),#218);
#226=CARTESIAN_POINT('',(1.359416975740E1,9.595596016583E0,0.E0));
#227=DIRECTION('',(-9.076424966118E-1,4.197440867294E-1,0.E0));
#228=DIRECTION('',(-4.197440867294E-1,-9.076424966118E-1,0.E0));
#229=AXIS2_PLACEMENT_3D('',#226,#227,#228);
#230=PLANE('',#229);
#231=ORIENTED_EDGE('',*,*,#201,.T.);
#232=ORIENTED_EDGE('',*,*,#184,.T.);
#233=ORIENTED_EDGE('',*,*,#162,.T.);
#235=ORIENTED_EDGE('',*,*,#234,.F.);
#236=EDGE_LOOP('',(#231,#232,#233,#235));
#237=FACE_OUTER_BOUND('',#236,.F.);
#239=FILL_AREA_STYLE_COLOUR('',#14);
#240=FILL_AREA_STYLE('',(#239));
#241=SURFACE_STYLE_FILL_AREA(#240);
#242=SURFACE_SIDE_STYLE('',(#241));
#243=SURFACE_STYLE_USAGE(.BOTH.,#242);
#244=PRESENTATION_STYLE_ASSIGNMENT((#243));
#245=STYLED_ITEM('',(#244),#238);
#246=CARTESIAN_POINT('',(1.358176818260E1,9.622450195890E0,0.E0));
#247=DIRECTION('',(-9.078649684962E-1,-4.192626849332E-1,0.E0));
#248=DIRECTION('',(4.192626849332E-1,-9.078649684962E-1,0.E0));
#249=AXIS2_PLACEMENT_3D('',#246,#247,#248);
#250=PLANE('',#249);
#251=ORIENTED_EDGE('',*,*,#203,.T.);
#252=ORIENTED_EDGE('',*,*,#234,.T.);
#253=ORIENTED_EDGE('',*,*,#160,.T.);
#255=ORIENTED_EDGE('',*,*,#254,.T.);
#256=EDGE_LOOP('',(#251,#252,#253,#255));
#257=FACE_OUTER_BOUND('',#256,.F.);
#259=FILL_AREA_STYLE_COLOUR('',#14);
#260=FILL_AREA_STYLE('',(#259));
#261=SURFACE_STYLE_FILL_AREA(#260);
#262=SURFACE_SIDE_STYLE('',(#261));
#263=SURFACE_STYLE_USAGE(.BOTH.,#262);
#264=PRESENTATION_STYLE_ASSIGNMENT((#263));
#265=STYLED_ITEM('',(#264),#258);
#266=CARTESIAN_POINT('',(1.358176818260E1,9.622450195890E0,0.E0));
#267=DIRECTION('',(0.E0,1.E0,0.E0));
#268=DIRECTION('',(0.E0,0.E0,1.E0));
#269=AXIS2_PLACEMENT_3D('',#266,#267,#268);
#270=PLANE('',#269);
#271=ORIENTED_EDGE('',*,*,#205,.F.);
#272=ORIENTED_EDGE('',*,*,#254,.F.);
#273=ORIENTED_EDGE('',*,*,#158,.T.);
#275=ORIENTED_EDGE('',*,*,#274,.F.);
#276=EDGE_LOOP('',(#271,#272,#273,#275));
#277=FACE_OUTER_BOUND('',#276,.F.);
#279=FILL_AREA_STYLE_COLOUR('',#14);
#280=FILL_AREA_STYLE('',(#279));
#281=SURFACE_STYLE_FILL_AREA(#280);
#282=SURFACE_SIDE_STYLE('',(#281));
#283=SURFACE_STYLE_USAGE(.BOTH.,#282);
#284=PRESENTATION_STYLE_ASSIGNMENT((#283));
#285=STYLED_ITEM('',(#284),#278);
#286=CARTESIAN_POINT('',(1.359715885493E1,9.600795138331E0,0.E0));
#287=DIRECTION('',(9.132715489175E-1,4.073512954905E-1,0.E0));
#288=DIRECTION('',(-4.073512954905E-1,9.132715489175E-1,0.E0));
#289=AXIS2_PLACEMENT_3D('',#286,#287,#288);
#290=PLANE('',#289);
#291=ORIENTED_EDGE('',*,*,#207,.T.);
#292=ORIENTED_EDGE('',*,*,#274,.T.);
#293=ORIENTED_EDGE('',*,*,#156,.T.);
#295=ORIENTED_EDGE('',*,*,#294,.F.);
#296=EDGE_LOOP('',(#291,#292,#293,#295));
#297=FACE_OUTER_BOUND('',#296,.F.);
#299=FILL_AREA_STYLE_COLOUR('',#14);
#300=FILL_AREA_STYLE('',(#299));
#301=SURFACE_STYLE_FILL_AREA(#300);
#302=SURFACE_SIDE_STYLE('',(#301));
#303=SURFACE_STYLE_USAGE(.BOTH.,#302);
#304=PRESENTATION_STYLE_ASSIGNMENT((#303));
#305=STYLED_ITEM('',(#304),#298);
#306=CARTESIAN_POINT('',(1.360701651694E1,9.622450195890E0,0.E0));
#307=DIRECTION('',(-9.101374905317E-1,4.143063459913E-1,0.E0));
#308=DIRECTION('',(-4.143063459913E-1,-9.101374905317E-1,0.E0));
#309=AXIS2_PLACEMENT_3D('',#306,#307,#308);
#310=PLANE('',#309);
#311=ORIENTED_EDGE('',*,*,#209,.T.);
#312=ORIENTED_EDGE('',*,*,#294,.T.);
#313=ORIENTED_EDGE('',*,*,#154,.T.);
#315=ORIENTED_EDGE('',*,*,#314,.F.);
#316=EDGE_LOOP('',(#311,#312,#313,#315));
#317=FACE_OUTER_BOUND('',#316,.F.);
#319=FILL_AREA_STYLE_COLOUR('',#14);
#320=FILL_AREA_STYLE('',(#319));
#321=SURFACE_STYLE_FILL_AREA(#320);
#322=SURFACE_SIDE_STYLE('',(#321));
#323=SURFACE_STYLE_USAGE(.BOTH.,#322);
#324=PRESENTATION_STYLE_ASSIGNMENT((#323));
#325=STYLED_ITEM('',(#324),#318);
#326=CARTESIAN_POINT('',(1.360701651694E1,9.622450195890E0,0.E0));
#327=DIRECTION('',(0.E0,1.E0,0.E0));
#328=DIRECTION('',(0.E0,0.E0,1.E0));
#329=AXIS2_PLACEMENT_3D('',#326,#327,#328);
#330=PLANE('',#329);
#331=ORIENTED_EDGE('',*,*,#211,.F.);
#332=ORIENTED_EDGE('',*,*,#314,.T.);
#333=ORIENTED_EDGE('',*,*,#152,.T.);
#335=ORIENTED_EDGE('',*,*,#334,.F.);
#336=EDGE_LOOP('',(#331,#332,#333,#335));
#337=FACE_OUTER_BOUND('',#336,.F.);
#339=FILL_AREA_STYLE_COLOUR('',#14);
#340=FILL_AREA_STYLE('',(#339));
#341=SURFACE_STYLE_FILL_AREA(#340);
#342=SURFACE_SIDE_STYLE('',(#341));
#343=SURFACE_STYLE_USAGE(.BOTH.,#342);
#344=PRESENTATION_STYLE_ASSIGNMENT((#343));
#345=STYLED_ITEM('',(#344),#338);
#346=CARTESIAN_POINT('',(1.359373252238E1,9.582256373953E0,0.E0));
#347=DIRECTION('',(9.034574816978E-1,-4.286777096658E-1,0.E0));
#348=DIRECTION('',(4.286777096658E-1,9.034574816978E-1,0.E0));
#349=AXIS2_PLACEMENT_3D('',#346,#347,#348);
#350=PLANE('',#349);
#351=ORIENTED_EDGE('',*,*,#213,.T.);
#352=ORIENTED_EDGE('',*,*,#334,.T.);
#353=ORIENTED_EDGE('',*,*,#150,.T.);
#354=ORIENTED_EDGE('',*,*,#181,.F.);
#355=EDGE_LOOP('',(#351,#352,#353,#354));
#356=FACE_OUTER_BOUND('',#355,.F.);
#358=FILL_AREA_STYLE_COLOUR('',#14);
#359=FILL_AREA_STYLE('',(#358));
#360=SURFACE_STYLE_FILL_AREA(#359);
#361=SURFACE_SIDE_STYLE('',(#360));
#362=SURFACE_STYLE_USAGE(.BOTH.,#361);
#363=PRESENTATION_STYLE_ASSIGNMENT((#362));
#364=STYLED_ITEM('',(#363),#357);
#367=PRESENTATION_LAYER_ASSIGNMENT('SHELL_345','',(#166,#188,#218,#238,#258,
#278,#298,#318,#338,#357,#366));
#369=LENGTH_MEASURE_WITH_UNIT(LENGTH_MEASURE(2.54E1),#368);
#370=(CONVERSION_BASED_UNIT('INCH',#369)LENGTH_UNIT()NAMED_UNIT(*));
#372=PLANE_ANGLE_MEASURE_WITH_UNIT(PLANE_ANGLE_MEASURE(1.745329251994E-2),#371);
#373=(CONVERSION_BASED_UNIT('DEGREE',#372)NAMED_UNIT(*)PLANE_ANGLE_UNIT());
#375=UNCERTAINTY_MEASURE_WITH_UNIT(LENGTH_MEASURE(4.267791358060E-5),#370,
'closure',
'Maximum model space distance between geometric entities at asserted connectivities');
#377=CARTESIAN_POINT('',(0.E0,0.E0,0.E0));
#378=DIRECTION('',(0.E0,0.E0,1.E0));
#379=DIRECTION('',(1.E0,0.E0,0.E0));
#382=MECHANICAL_DESIGN_GEOMETRIC_PRESENTATION_REPRESENTATION('',(#173,#195,#225,
#245,#265,#285,#305,#325,#345,#364),#376);
#383=APPLICATION_CONTEXT('automotive design');
#384=APPLICATION_PROTOCOL_DEFINITION('international standard',
'config_control_design',1994,#383);
#385=PRODUCT_DEFINITION_CONTEXT('',#383,'design');
#386=PRODUCT_CONTEXT('',#383,'mechanical');
#387=PRODUCT('NO_10LOGO-184','NO_10LOGO-184','NOT SPECIFIED',(#386));
#388=PRODUCT_DEFINITION_FORMATION_WITH_SPECIFIED_SOURCE('1','LAST_VERSION',#387,
.MADE.);
#396=LENGTH_MEASURE_WITH_UNIT(LENGTH_MEASURE(2.54E1),#395);
#397=(CONVERSION_BASED_UNIT('INCH',#396)LENGTH_UNIT()NAMED_UNIT(*));
#398=DERIVED_UNIT_ELEMENT(#397,2.E0);
#399=AREA_UNIT((#398));
#400=MEASURE_REPRESENTATION_ITEM('surface area measure',AREA_MEASURE(
1.122263589503E-6),#399);
#405=LENGTH_MEASURE_WITH_UNIT(LENGTH_MEASURE(2.54E1),#404);
#406=(CONVERSION_BASED_UNIT('INCH',#405)LENGTH_UNIT()NAMED_UNIT(*));
#407=DERIVED_UNIT_ELEMENT(#406,2.E0);
#408=AREA_UNIT((#407));
#409=MEASURE_REPRESENTATION_ITEM('surface area measure',AREA_MEASURE(
1.122263589503E-6),#408);
#1=DRAUGHTING_PRE_DEFINED_COLOUR('green');
#2=COLOUR_RGB('',1.1E-2,1.2E-2,1.E0);
#3=COLOUR_RGB('',2.352941176471E-1,2.352941176471E-1,2.352941176471E-1);
#4=COLOUR_RGB('',4.1E-1,2.61589E-1,1.12848E-1);
#5=COLOUR_RGB('',5.04854E-1,1.5455E-2,1.5455E-2);
#6=COLOUR_RGB('',6.35294E-1,6.86275E-1,7.4902E-1);
#7=COLOUR_RGB('',6.40777E-1,6.40777E-1,6.40777E-1);
#8=COLOUR_RGB('',6.69062E-1,6.69903E-1,6.55217E-1);
#9=COLOUR_RGB('',9.21569E-1,7.05882E-1,4.70588E-1);
#10=DRAUGHTING_PRE_DEFINED_COLOUR('red');
#11=DRAUGHTING_PRE_DEFINED_COLOUR('yellow');
#12=COLOUR_RGB('',1.E0,1.E0,5.3E-1);
#13=COLOUR_RGB('',1.E0,1.E0,9.49E-1);
#14=DRAUGHTING_PRE_DEFINED_COLOUR('white');
#148=EDGE_CURVE('',#134,#130,#18,.T.);
#150=EDGE_CURVE('',#138,#134,#22,.T.);
#152=EDGE_CURVE('',#142,#138,#26,.T.);
#154=EDGE_CURVE('',#128,#142,#30,.T.);
#156=EDGE_CURVE('',#124,#128,#34,.T.);
#158=EDGE_CURVE('',#126,#124,#38,.T.);
#160=EDGE_CURVE('',#122,#126,#42,.T.);
#162=EDGE_CURVE('',#130,#122,#46,.T.);
#166=ADVANCED_FACE('',(#165),#147,.T.);
#179=EDGE_CURVE('',#133,#120,#50,.T.);
#181=EDGE_CURVE('',#133,#134,#110,.T.);
#184=EDGE_CURVE('',#120,#130,#54,.T.);
#188=ADVANCED_FACE('',(#187),#178,.T.);
#201=EDGE_CURVE('',#114,#120,#58,.T.);
#203=EDGE_CURVE('',#113,#114,#62,.T.);
#205=EDGE_CURVE('',#113,#118,#82,.T.);
#207=EDGE_CURVE('',#117,#118,#66,.T.);
#209=EDGE_CURVE('',#141,#117,#70,.T.);
#211=EDGE_CURVE('',#141,#137,#102,.T.);
#213=EDGE_CURVE('',#133,#137,#74,.T.);
#218=ADVANCED_FACE('',(#217),#200,.F.);
#234=EDGE_CURVE('',#114,#122,#78,.T.);
#238=ADVANCED_FACE('',(#237),#230,.T.);
#254=EDGE_CURVE('',#126,#113,#86,.T.);
#258=ADVANCED_FACE('',(#257),#250,.T.);
#274=EDGE_CURVE('',#118,#124,#90,.T.);
#278=ADVANCED_FACE('',(#277),#270,.T.);
#294=EDGE_CURVE('',#117,#128,#94,.T.);
#298=ADVANCED_FACE('',(#297),#290,.T.);
#314=EDGE_CURVE('',#141,#142,#98,.T.);
#318=ADVANCED_FACE('',(#317),#310,.T.);
#334=EDGE_CURVE('',#137,#138,#106,.T.);
#338=ADVANCED_FACE('',(#337),#330,.T.);
#357=ADVANCED_FACE('',(#356),#350,.T.);
#365=CLOSED_SHELL('',(#166,#188,#218,#238,#258,#278,#298,#318,#338,#357));
#366=MANIFOLD_SOLID_BREP('',#365);
#368=(LENGTH_UNIT()NAMED_UNIT(*)SI_UNIT(.MILLI.,.METRE.));
#371=(NAMED_UNIT(*)PLANE_ANGLE_UNIT()SI_UNIT($,.RADIAN.));
#374=(NAMED_UNIT(*)SI_UNIT($,.STERADIAN.)SOLID_ANGLE_UNIT());
#376=(GEOMETRIC_REPRESENTATION_CONTEXT(3)GLOBAL_UNCERTAINTY_ASSIGNED_CONTEXT((
#375))GLOBAL_UNIT_ASSIGNED_CONTEXT((#370,#373,#374))REPRESENTATION_CONTEXT
('ID1','3'));
#380=AXIS2_PLACEMENT_3D('',#377,#378,#379);
#381=ADVANCED_BREP_SHAPE_REPRESENTATION('',(#380,#366),#376);
#389=PRODUCT_DEFINITION('design','',#388,#385);
#390=PRODUCT_DEFINITION_SHAPE('','SHAPE FOR NO_10LOGO-184.',#389);
#391=SHAPE_ASPECT('','solid data associated with NO_10LOGO-184',#390,.F.);
#392=PROPERTY_DEFINITION('',
'shape for solid data with which properties are associated',#391);
#393=SHAPE_REPRESENTATION('',(#366),#376);
#394=SHAPE_DEFINITION_REPRESENTATION(#392,#393);
#395=(LENGTH_UNIT()NAMED_UNIT(*)SI_UNIT(.MILLI.,.METRE.));
#401=PROPERTY_DEFINITION('geometric validation property',
'area of NO_10LOGO-184',#391);
#402=REPRESENTATION('surface area',(#400),#376);
#403=PROPERTY_DEFINITION_REPRESENTATION(#401,#402);
#404=(LENGTH_UNIT()NAMED_UNIT(*)SI_UNIT(.MILLI.,.METRE.));
#410=PROPERTY_DEFINITION('geometric validation property',
'area of NO_10LOGO-184',#390);
#411=REPRESENTATION('surface area',(#409),#376);
#412=PROPERTY_DEFINITION_REPRESENTATION(#410,#411);
#413=SHAPE_DEFINITION_REPRESENTATION(#390,#381);
ENDSEC;
END-ISO-10303-21;
