ISO-10303-21;
HEADER;
FILE_DESCRIPTION((''),'2;1');
FILE_NAME('NO_10LOGO-364','2026-06-15T13:45:42',('Esia'),(''),
'CREO PARAMETRIC BY PTC INC, 2025102','CREO PARAMETRIC BY PTC INC, 2025102','');
FILE_SCHEMA((
'AP242_MANAGED_MODEL_BASED_3D_ENGINEERING_MIM_LF { 1 0 10303 442 1 1 4 }'));
ENDSEC;
DATA;
#15=DIRECTION('',(-7.601213472290E-1,-6.497811458382E-1,0.E0));
#16=VECTOR('',#15,8.633155300422E-3);
#17=CARTESIAN_POINT('',(1.383542465135E1,9.727877714220E0,0.E0));
#18=LINE('',#17,#16);
#19=CARTESIAN_POINT('',(1.381790012906E1,9.736783619008E0,0.E0));
#20=CARTESIAN_POINT('',(1.381863808096E1,9.736758676913E0,0.E0));
#21=CARTESIAN_POINT('',(1.382012105542E1,9.736708553764E0,0.E0));
#22=CARTESIAN_POINT('',(1.382233298183E1,9.736257089953E0,0.E0));
#23=CARTESIAN_POINT('',(1.382453751468E1,9.735557501717E0,0.E0));
#24=CARTESIAN_POINT('',(1.382674406329E1,9.734580771307E0,0.E0));
#25=CARTESIAN_POINT('',(1.382893812208E1,9.733310378646E0,0.E0));
#26=CARTESIAN_POINT('',(1.383113751907E1,9.731778246945E0,0.E0));
#27=CARTESIAN_POINT('',(1.383331923170E1,9.729952659732E0,0.E0));
#28=CARTESIAN_POINT('',(1.383470847789E1,9.728583521717E0,0.E0));
#29=CARTESIAN_POINT('',(1.383542465135E1,9.727877714220E0,0.E0));
#31=CARTESIAN_POINT('',(1.380155499657E1,9.721587635480E0,0.E0));
#32=CARTESIAN_POINT('',(1.380157035472E1,9.722122537890E0,0.E0));
#33=CARTESIAN_POINT('',(1.380160047E1,9.723171412961E0,0.E0));
#34=CARTESIAN_POINT('',(1.380181243195E1,9.724708038142E0,0.E0));
#35=CARTESIAN_POINT('',(1.380218047540E1,9.726176952425E0,0.E0));
#36=CARTESIAN_POINT('',(1.380269027783E1,9.727576921984E0,0.E0));
#37=CARTESIAN_POINT('',(1.380334990545E1,9.728909950724E0,0.E0));
#38=CARTESIAN_POINT('',(1.380415198639E1,9.730170685276E0,0.E0));
#39=CARTESIAN_POINT('',(1.380511743061E1,9.731350781717E0,0.E0));
#40=CARTESIAN_POINT('',(1.380619563392E1,9.732464016567E0,0.E0));
#41=CARTESIAN_POINT('',(1.380739122614E1,9.733476160724E0,0.E0));
#42=CARTESIAN_POINT('',(1.380866927424E1,9.734367353339E0,0.E0));
#43=CARTESIAN_POINT('',(1.381002843217E1,9.735115997244E0,0.E0));
#44=CARTESIAN_POINT('',(1.381146044707E1,9.735717194787E0,0.E0));
#45=CARTESIAN_POINT('',(1.381295865926E1,9.736212990094E0,0.E0));
#46=CARTESIAN_POINT('',(1.381454332748E1,9.736530625417E0,0.E0));
#47=CARTESIAN_POINT('',(1.381619493043E1,9.736759578236E0,0.E0));
#48=CARTESIAN_POINT('',(1.381732470978E1,9.736775506441E0,0.E0));
#49=CARTESIAN_POINT('',(1.381790012906E1,9.736783619008E0,0.E0));
#51=CARTESIAN_POINT('',(1.380447323022E1,9.712651489984E0,0.E0));
#52=CARTESIAN_POINT('',(1.380402706479E1,9.713313970394E0,0.E0));
#53=CARTESIAN_POINT('',(1.380314230795E1,9.714627684945E0,0.E0));
#54=CARTESIAN_POINT('',(1.380221972981E1,9.716823646961E0,0.E0));
#55=CARTESIAN_POINT('',(1.380165307687E1,9.719159730803E0,0.E0));
#56=CARTESIAN_POINT('',(1.380158811397E1,9.720767838850E0,0.E0));
#57=CARTESIAN_POINT('',(1.380155499657E1,9.721587635480E0,0.E0));
#59=CARTESIAN_POINT('',(1.381516334003E1,9.704955215764E0,0.E0));
#60=CARTESIAN_POINT('',(1.381453676712E1,9.705274668378E0,0.E0));
#61=CARTESIAN_POINT('',(1.381332534591E1,9.705892300772E0,0.E0));
#62=CARTESIAN_POINT('',(1.381159162157E1,9.706840240961E0,0.E0));
#63=CARTESIAN_POINT('',(1.381002740660E1,9.707806916409E0,0.E0));
#64=CARTESIAN_POINT('',(1.380860489013E1,9.708763627701E0,0.E0));
#65=CARTESIAN_POINT('',(1.380733727797E1,9.709721944016E0,0.E0));
#66=CARTESIAN_POINT('',(1.380623408320E1,9.710690135150E0,0.E0));
#67=CARTESIAN_POINT('',(1.380527396324E1,9.711647715968E0,0.E0));
#68=CARTESIAN_POINT('',(1.380473459003E1,9.712323857480E0,0.E0));
#69=CARTESIAN_POINT('',(1.380447323022E1,9.712651489984E0,0.E0));
#71=CARTESIAN_POINT('',(1.382397852246E1,9.699602600646E0,0.E0));
#72=CARTESIAN_POINT('',(1.382379535474E1,9.699787669843E0,0.E0));
#73=CARTESIAN_POINT('',(1.382339773739E1,9.700189414724E0,0.E0));
#74=CARTESIAN_POINT('',(1.382267701715E1,9.700757717717E0,0.E0));
#75=CARTESIAN_POINT('',(1.382180163175E1,9.701361888756E0,0.E0));
#76=CARTESIAN_POINT('',(1.382078704167E1,9.702028013622E0,0.E0));
#77=CARTESIAN_POINT('',(1.381959494324E1,9.702698716441E0,0.E0));
#78=CARTESIAN_POINT('',(1.381826610595E1,9.703432878898E0,0.E0));
#79=CARTESIAN_POINT('',(1.381676629734E1,9.704179737732E0,0.E0));
#80=CARTESIAN_POINT('',(1.381571322444E1,9.704689192913E0,0.E0));
#81=CARTESIAN_POINT('',(1.381516334003E1,9.704955215764E0,0.E0));
#83=CARTESIAN_POINT('',(1.382574760710E1,9.695142088110E0,0.E0));
#84=CARTESIAN_POINT('',(1.382572904939E1,9.695547800362E0,0.E0));
#85=CARTESIAN_POINT('',(1.382569220783E1,9.696353235638E0,0.E0));
#86=CARTESIAN_POINT('',(1.382533853518E1,9.697523036362E0,0.E0));
#87=CARTESIAN_POINT('',(1.382477855102E1,9.698628970110E0,0.E0));
#88=CARTESIAN_POINT('',(1.382424867605E1,9.699273825165E0,0.E0));
#89=CARTESIAN_POINT('',(1.382397852246E1,9.699602600646E0,0.E0));
#91=CARTESIAN_POINT('',(1.381620664635E1,9.687430693465E0,0.E0));
#92=CARTESIAN_POINT('',(1.381685415052E1,9.687460226031E0,0.E0));
#93=CARTESIAN_POINT('',(1.381810837781E1,9.687517431118E0,0.E0));
#94=CARTESIAN_POINT('',(1.381991482238E1,9.687947281417E0,0.E0));
#95=CARTESIAN_POINT('',(1.382155685740E1,9.688680683953E0,0.E0));
#96=CARTESIAN_POINT('',(1.382299527926E1,9.689694942992E0,0.E0));
#97=CARTESIAN_POINT('',(1.382420187869E1,9.690879129307E0,0.E0));
#98=CARTESIAN_POINT('',(1.382508979710E1,9.692209703811E0,0.E0));
#99=CARTESIAN_POINT('',(1.382565933397E1,9.693641500866E0,0.E0));
#100=CARTESIAN_POINT('',(1.382571825742E1,9.694643161559E0,0.E0));
#101=CARTESIAN_POINT('',(1.382574760710E1,9.695142088110E0,0.E0));
#103=CARTESIAN_POINT('',(1.380473027669E1,9.693236920016E0,0.E0));
#104=CARTESIAN_POINT('',(1.380524919657E1,9.692777054929E0,0.E0));
#105=CARTESIAN_POINT('',(1.380624959778E1,9.691890502583E0,0.E0));
#106=CARTESIAN_POINT('',(1.380778046287E1,9.690709692614E0,0.E0));
#107=CARTESIAN_POINT('',(1.380926482502E1,9.689699990126E0,0.E0));
#108=CARTESIAN_POINT('',(1.381071966609E1,9.688876579134E0,0.E0));
#109=CARTESIAN_POINT('',(1.381214190406E1,9.688236426567E0,0.E0));
#110=CARTESIAN_POINT('',(1.381352859860E1,9.687775157669E0,0.E0));
#111=CARTESIAN_POINT('',(1.381487925557E1,9.687487051701E0,0.E0));
#112=CARTESIAN_POINT('',(1.381577190331E1,9.687449151732E0,0.E0));
#113=CARTESIAN_POINT('',(1.381620664635E1,9.687430693465E0,0.E0));
#115=DIRECTION('',(7.141773126060E-1,6.999648320872E-1,0.E0));
#116=VECTOR('',#115,8.511042351862E-3);
#117=CARTESIAN_POINT('',(1.379865188334E1,9.687279489685E0,0.E0));
#118=LINE('',#117,#116);
#119=CARTESIAN_POINT('',(1.381682658198E1,9.678721353685E0,0.E0));
#120=CARTESIAN_POINT('',(1.381595819655E1,9.678748219039E0,0.E0));
#121=CARTESIAN_POINT('',(1.381423269572E1,9.678801601087E0,0.E0));
#122=CARTESIAN_POINT('',(1.381167865918E1,9.679209038504E0,0.E0));
#123=CARTESIAN_POINT('',(1.380918698461E1,9.679862261055E0,0.E0));
#124=CARTESIAN_POINT('',(1.380676409627E1,9.680760734315E0,0.E0));
#125=CARTESIAN_POINT('',(1.380445835802E1,9.681950032819E0,0.E0));
#126=CARTESIAN_POINT('',(1.380233240683E1,9.683454991181E0,0.E0));
#127=CARTESIAN_POINT('',(1.380035134918E1,9.685208649260E0,0.E0));
#128=CARTESIAN_POINT('',(1.379922387917E1,9.686582498835E0,0.E0));
#129=CARTESIAN_POINT('',(1.379865188334E1,9.687279489685E0,0.E0));
#131=CARTESIAN_POINT('',(1.383639235578E1,9.695368893827E0,0.E0));
#132=CARTESIAN_POINT('',(1.383637456261E1,9.694818421087E0,0.E0));
#133=CARTESIAN_POINT('',(1.383633943228E1,9.693731583354E0,0.E0));
#134=CARTESIAN_POINT('',(1.383607005619E1,9.692130532819E0,0.E0));
#135=CARTESIAN_POINT('',(1.383565457187E1,9.690579150661E0,0.E0));
#136=CARTESIAN_POINT('',(1.383503504102E1,9.689089144252E0,0.E0));
#137=CARTESIAN_POINT('',(1.383426699898E1,9.687642438E0,0.E0));
#138=CARTESIAN_POINT('',(1.383329871491E1,9.686264343969E0,0.E0));
#139=CARTESIAN_POINT('',(1.383217877499E1,9.684930545906E0,0.E0));
#140=CARTESIAN_POINT('',(1.383089937917E1,9.683668799622E0,0.E0));
#141=CARTESIAN_POINT('',(1.382948721775E1,9.682507509921E0,0.E0));
#142=CARTESIAN_POINT('',(1.382796156383E1,9.681495031795E0,0.E0));
#143=CARTESIAN_POINT('',(1.382633708334E1,9.680642817165E0,0.E0));
#144=CARTESIAN_POINT('',(1.382462645065E1,9.679924781244E0,0.E0));
#145=CARTESIAN_POINT('',(1.382280598578E1,9.679381432394E0,0.E0));
#146=CARTESIAN_POINT('',(1.382088999562E1,9.679015815969E0,0.E0));
#147=CARTESIAN_POINT('',(1.381888994499E1,9.678757095118E0,0.E0));
#148=CARTESIAN_POINT('',(1.381752298389E1,9.678733416709E0,0.E0));
#149=CARTESIAN_POINT('',(1.381682658198E1,9.678721353685E0,0.E0));
#151=CARTESIAN_POINT('',(1.383318683485E1,9.704320159701E0,0.E0));
#152=CARTESIAN_POINT('',(1.383368052888E1,9.703619023323E0,0.E0));
#153=CARTESIAN_POINT('',(1.383464023096E1,9.702256069654E0,0.E0));
#154=CARTESIAN_POINT('',(1.383563532831E1,9.700009138252E0,0.E0));
#155=CARTESIAN_POINT('',(1.383628406655E1,9.697713757181E0,0.E0));
#156=CARTESIAN_POINT('',(1.383635631331E1,9.696149346709E0,0.E0));
#157=CARTESIAN_POINT('',(1.383639235578E1,9.695368893827E0,0.E0));
#159=CARTESIAN_POINT('',(1.382171046524E1,9.712197878504E0,0.E0));
#160=CARTESIAN_POINT('',(1.382240313855E1,9.711849234661E0,0.E0));
#161=CARTESIAN_POINT('',(1.382374259957E1,9.711175042630E0,0.E0));
#162=CARTESIAN_POINT('',(1.382563834384E1,9.710135787732E0,0.E0));
#163=CARTESIAN_POINT('',(1.382735821450E1,9.709124924693E0,0.E0));
#164=CARTESIAN_POINT('',(1.382888225173E1,9.70812462E0,0.E0));
#165=CARTESIAN_POINT('',(1.383023824710E1,9.707167922268E0,0.E0));
#166=CARTESIAN_POINT('',(1.383139175140E1,9.706203784441E0,0.E0));
#167=CARTESIAN_POINT('',(1.383238483191E1,9.705284528929E0,0.E0));
#168=CARTESIAN_POINT('',(1.383293071535E1,9.704628130866E0,0.E0));
#169=CARTESIAN_POINT('',(1.383318683485E1,9.704320159701E0,0.E0));
#171=CARTESIAN_POINT('',(1.381374202413E1,9.717520252866E0,0.E0));
#172=CARTESIAN_POINT('',(1.381393576488E1,9.717310822535E0,0.E0));
#173=CARTESIAN_POINT('',(1.381434277384E1,9.716870853024E0,0.E0));
#174=CARTESIAN_POINT('',(1.381504816583E1,9.716231026677E0,0.E0));
#175=CARTESIAN_POINT('',(1.381587510439E1,9.715588851402E0,0.E0));
#176=CARTESIAN_POINT('',(1.381682438291E1,9.714944160898E0,0.E0));
#177=CARTESIAN_POINT('',(1.381786379532E1,9.714249962220E0,0.E0));
#178=CARTESIAN_POINT('',(1.381904696494E1,9.713585561291E0,0.E0));
#179=CARTESIAN_POINT('',(1.382033339159E1,9.712882132252E0,0.E0));
#180=CARTESIAN_POINT('',(1.382124007554E1,9.712431610299E0,0.E0));
#181=CARTESIAN_POINT('',(1.382171046524E1,9.712197878504E0,0.E0));
#183=CARTESIAN_POINT('',(1.381219974520E1,9.721784200441E0,0.E0));
#184=CARTESIAN_POINT('',(1.381221286545E1,9.721378438913E0,0.E0));
#185=CARTESIAN_POINT('',(1.381223852216E1,9.720584970283E0,0.E0));
#186=CARTESIAN_POINT('',(1.381256508335E1,9.719461155638E0,0.E0));
#187=CARTESIAN_POINT('',(1.381302321326E1,9.718406959228E0,0.E0));
#188=CARTESIAN_POINT('',(1.381350031786E1,9.717818415402E0,0.E0));
#189=CARTESIAN_POINT('',(1.381374202413E1,9.717520252866E0,0.E0));
#191=CARTESIAN_POINT('',(1.381814205520E1,9.728074279181E0,0.E0));
#192=CARTESIAN_POINT('',(1.381777641231E1,9.728055524457E0,0.E0));
#193=CARTESIAN_POINT('',(1.381704470754E1,9.728017993417E0,0.E0));
#194=CARTESIAN_POINT('',(1.381598326682E1,9.727659321307E0,0.E0));
#195=CARTESIAN_POINT('',(1.381496667831E1,9.727106069764E0,0.E0));
#196=CARTESIAN_POINT('',(1.381403397950E1,9.726339067984E0,0.E0));
#197=CARTESIAN_POINT('',(1.381321070334E1,9.725421880205E0,0.E0));
#198=CARTESIAN_POINT('',(1.381262099702E1,9.724324325953E0,0.E0));
#199=CARTESIAN_POINT('',(1.381226707191E1,9.723096151937E0,0.E0));
#200=CARTESIAN_POINT('',(1.381222262962E1,9.722230134331E0,0.E0));
#201=CARTESIAN_POINT('',(1.381219974520E1,9.721784200441E0,0.E0));
#203=CARTESIAN_POINT('',(1.382886240572E1,9.722268052677E0,0.E0));
#204=CARTESIAN_POINT('',(1.382836863860E1,9.722727549685E0,0.E0));
#205=CARTESIAN_POINT('',(1.382741838359E1,9.723611851890E0,0.E0));
#206=CARTESIAN_POINT('',(1.382596381294E1,9.724793446583E0,0.E0));
#207=CARTESIAN_POINT('',(1.382455778778E1,9.725798812205E0,0.E0));
#208=CARTESIAN_POINT('',(1.382319493016E1,9.726622486252E0,0.E0));
#209=CARTESIAN_POINT('',(1.382187565450E1,9.727266647764E0,0.E0));
#210=CARTESIAN_POINT('',(1.382059475849E1,9.727728469323E0,0.E0));
#211=CARTESIAN_POINT('',(1.381935439271E1,9.728016275480E0,0.E0));
#212=CARTESIAN_POINT('',(1.381853654962E1,9.728055404787E0,0.E0));
#213=CARTESIAN_POINT('',(1.381814205520E1,9.728074279181E0,0.E0));
#215=CARTESIAN_POINT('',(1.381814205520E1,9.728074279181E0,6.614173228346E-3));
#216=CARTESIAN_POINT('',(1.381853654962E1,9.728055404787E0,6.614173228346E-3));
#217=CARTESIAN_POINT('',(1.381935439271E1,9.728016275480E0,6.614173228346E-3));
#218=CARTESIAN_POINT('',(1.382059475849E1,9.727728469323E0,6.614173228346E-3));
#219=CARTESIAN_POINT('',(1.382187565450E1,9.727266647764E0,6.614173228346E-3));
#220=CARTESIAN_POINT('',(1.382319493016E1,9.726622486252E0,6.614173228346E-3));
#221=CARTESIAN_POINT('',(1.382455778778E1,9.725798812205E0,6.614173228346E-3));
#222=CARTESIAN_POINT('',(1.382596381294E1,9.724793446583E0,6.614173228346E-3));
#223=CARTESIAN_POINT('',(1.382741838359E1,9.723611851890E0,6.614173228346E-3));
#224=CARTESIAN_POINT('',(1.382836863860E1,9.722727549685E0,6.614173228346E-3));
#225=CARTESIAN_POINT('',(1.382886240572E1,9.722268052677E0,6.614173228346E-3));
#227=CARTESIAN_POINT('',(1.381219974520E1,9.721784200441E0,6.614173228346E-3));
#228=CARTESIAN_POINT('',(1.381222262962E1,9.722230134331E0,6.614173228346E-3));
#229=CARTESIAN_POINT('',(1.381226707191E1,9.723096151937E0,6.614173228346E-3));
#230=CARTESIAN_POINT('',(1.381262099702E1,9.724324325953E0,6.614173228346E-3));
#231=CARTESIAN_POINT('',(1.381321070334E1,9.725421880205E0,6.614173228346E-3));
#232=CARTESIAN_POINT('',(1.381403397950E1,9.726339067984E0,6.614173228346E-3));
#233=CARTESIAN_POINT('',(1.381496667831E1,9.727106069764E0,6.614173228346E-3));
#234=CARTESIAN_POINT('',(1.381598326682E1,9.727659321307E0,6.614173228346E-3));
#235=CARTESIAN_POINT('',(1.381704470754E1,9.728017993417E0,6.614173228346E-3));
#236=CARTESIAN_POINT('',(1.381777641231E1,9.728055524457E0,6.614173228346E-3));
#237=CARTESIAN_POINT('',(1.381814205520E1,9.728074279181E0,6.614173228346E-3));
#239=CARTESIAN_POINT('',(1.381374202413E1,9.717520252866E0,6.614173228346E-3));
#240=CARTESIAN_POINT('',(1.381350031786E1,9.717818415402E0,6.614173228346E-3));
#241=CARTESIAN_POINT('',(1.381302321326E1,9.718406959228E0,6.614173228346E-3));
#242=CARTESIAN_POINT('',(1.381256508335E1,9.719461155638E0,6.614173228346E-3));
#243=CARTESIAN_POINT('',(1.381223852216E1,9.720584970283E0,6.614173228346E-3));
#244=CARTESIAN_POINT('',(1.381221286545E1,9.721378438913E0,6.614173228346E-3));
#245=CARTESIAN_POINT('',(1.381219974520E1,9.721784200441E0,6.614173228346E-3));
#247=CARTESIAN_POINT('',(1.381374202413E1,9.717520252866E0,6.614173228346E-3));
#248=CARTESIAN_POINT('',(1.381393576488E1,9.717310822535E0,6.614173228346E-3));
#249=CARTESIAN_POINT('',(1.381434277384E1,9.716870853024E0,6.614173228346E-3));
#250=CARTESIAN_POINT('',(1.381504816583E1,9.716231026677E0,6.614173228346E-3));
#251=CARTESIAN_POINT('',(1.381587510439E1,9.715588851402E0,6.614173228346E-3));
#252=CARTESIAN_POINT('',(1.381682438291E1,9.714944160898E0,6.614173228346E-3));
#253=CARTESIAN_POINT('',(1.381786379532E1,9.714249962220E0,6.614173228346E-3));
#254=CARTESIAN_POINT('',(1.381904696494E1,9.713585561291E0,6.614173228346E-3));
#255=CARTESIAN_POINT('',(1.382033339159E1,9.712882132252E0,6.614173228346E-3));
#256=CARTESIAN_POINT('',(1.382124007554E1,9.712431610299E0,6.614173228346E-3));
#257=CARTESIAN_POINT('',(1.382171046524E1,9.712197878504E0,6.614173228346E-3));
#259=CARTESIAN_POINT('',(1.383318683485E1,9.704320159701E0,6.614173228346E-3));
#260=CARTESIAN_POINT('',(1.383293071535E1,9.704628130866E0,6.614173228346E-3));
#261=CARTESIAN_POINT('',(1.383238483191E1,9.705284528929E0,6.614173228346E-3));
#262=CARTESIAN_POINT('',(1.383139175140E1,9.706203784441E0,6.614173228346E-3));
#263=CARTESIAN_POINT('',(1.383023824710E1,9.707167922268E0,6.614173228346E-3));
#264=CARTESIAN_POINT('',(1.382888225173E1,9.70812462E0,6.614173228346E-3));
#265=CARTESIAN_POINT('',(1.382735821450E1,9.709124924693E0,6.614173228346E-3));
#266=CARTESIAN_POINT('',(1.382563834384E1,9.710135787732E0,6.614173228346E-3));
#267=CARTESIAN_POINT('',(1.382374259957E1,9.711175042630E0,6.614173228346E-3));
#268=CARTESIAN_POINT('',(1.382240313855E1,9.711849234661E0,6.614173228346E-3));
#269=CARTESIAN_POINT('',(1.382171046524E1,9.712197878504E0,6.614173228346E-3));
#271=CARTESIAN_POINT('',(1.383639235578E1,9.695368893827E0,6.614173228346E-3));
#272=CARTESIAN_POINT('',(1.383635631331E1,9.696149346709E0,6.614173228346E-3));
#273=CARTESIAN_POINT('',(1.383628406655E1,9.697713757181E0,6.614173228346E-3));
#274=CARTESIAN_POINT('',(1.383563532831E1,9.700009138252E0,6.614173228346E-3));
#275=CARTESIAN_POINT('',(1.383464023096E1,9.702256069654E0,6.614173228346E-3));
#276=CARTESIAN_POINT('',(1.383368052888E1,9.703619023323E0,6.614173228346E-3));
#277=CARTESIAN_POINT('',(1.383318683485E1,9.704320159701E0,6.614173228346E-3));
#279=CARTESIAN_POINT('',(1.381682658198E1,9.678721353685E0,6.614173228346E-3));
#280=CARTESIAN_POINT('',(1.381752298389E1,9.678733416709E0,6.614173228346E-3));
#281=CARTESIAN_POINT('',(1.381888994499E1,9.678757095118E0,6.614173228346E-3));
#282=CARTESIAN_POINT('',(1.382088999562E1,9.679015815969E0,6.614173228346E-3));
#283=CARTESIAN_POINT('',(1.382280598578E1,9.679381432394E0,6.614173228346E-3));
#284=CARTESIAN_POINT('',(1.382462645065E1,9.679924781244E0,6.614173228346E-3));
#285=CARTESIAN_POINT('',(1.382633708334E1,9.680642817165E0,6.614173228346E-3));
#286=CARTESIAN_POINT('',(1.382796156383E1,9.681495031795E0,6.614173228346E-3));
#287=CARTESIAN_POINT('',(1.382948721775E1,9.682507509921E0,6.614173228346E-3));
#288=CARTESIAN_POINT('',(1.383089937917E1,9.683668799622E0,6.614173228346E-3));
#289=CARTESIAN_POINT('',(1.383217877499E1,9.684930545906E0,6.614173228346E-3));
#290=CARTESIAN_POINT('',(1.383329871491E1,9.686264343969E0,6.614173228346E-3));
#291=CARTESIAN_POINT('',(1.383426699898E1,9.687642438E0,6.614173228346E-3));
#292=CARTESIAN_POINT('',(1.383503504102E1,9.689089144252E0,6.614173228346E-3));
#293=CARTESIAN_POINT('',(1.383565457187E1,9.690579150661E0,6.614173228346E-3));
#294=CARTESIAN_POINT('',(1.383607005619E1,9.692130532819E0,6.614173228346E-3));
#295=CARTESIAN_POINT('',(1.383633943228E1,9.693731583354E0,6.614173228346E-3));
#296=CARTESIAN_POINT('',(1.383637456261E1,9.694818421087E0,6.614173228346E-3));
#297=CARTESIAN_POINT('',(1.383639235578E1,9.695368893827E0,6.614173228346E-3));
#299=CARTESIAN_POINT('',(1.379865188334E1,9.687279489685E0,6.614173228346E-3));
#300=CARTESIAN_POINT('',(1.379922387917E1,9.686582498835E0,6.614173228346E-3));
#301=CARTESIAN_POINT('',(1.380035134918E1,9.685208649260E0,6.614173228346E-3));
#302=CARTESIAN_POINT('',(1.380233240683E1,9.683454991181E0,6.614173228346E-3));
#303=CARTESIAN_POINT('',(1.380445835802E1,9.681950032819E0,6.614173228346E-3));
#304=CARTESIAN_POINT('',(1.380676409627E1,9.680760734315E0,6.614173228346E-3));
#305=CARTESIAN_POINT('',(1.380918698461E1,9.679862261055E0,6.614173228346E-3));
#306=CARTESIAN_POINT('',(1.381167865918E1,9.679209038504E0,6.614173228346E-3));
#307=CARTESIAN_POINT('',(1.381423269572E1,9.678801601087E0,6.614173228346E-3));
#308=CARTESIAN_POINT('',(1.381595819655E1,9.678748219039E0,6.614173228346E-3));
#309=CARTESIAN_POINT('',(1.381682658198E1,9.678721353685E0,6.614173228346E-3));
#311=DIRECTION('',(-7.141773126061E-1,-6.999648320871E-1,0.E0));
#312=VECTOR('',#311,8.511042351864E-3);
#313=CARTESIAN_POINT('',(1.380473027669E1,9.693236920016E0,6.614173228346E-3));
#314=LINE('',#313,#312);
#315=CARTESIAN_POINT('',(1.381620664635E1,9.687430693465E0,6.614173228346E-3));
#316=CARTESIAN_POINT('',(1.381577190331E1,9.687449151732E0,6.614173228346E-3));
#317=CARTESIAN_POINT('',(1.381487925557E1,9.687487051701E0,6.614173228346E-3));
#318=CARTESIAN_POINT('',(1.381352859860E1,9.687775157669E0,6.614173228346E-3));
#319=CARTESIAN_POINT('',(1.381214190406E1,9.688236426567E0,6.614173228346E-3));
#320=CARTESIAN_POINT('',(1.381071966609E1,9.688876579134E0,6.614173228346E-3));
#321=CARTESIAN_POINT('',(1.380926482502E1,9.689699990126E0,6.614173228346E-3));
#322=CARTESIAN_POINT('',(1.380778046287E1,9.690709692614E0,6.614173228346E-3));
#323=CARTESIAN_POINT('',(1.380624959778E1,9.691890502583E0,6.614173228346E-3));
#324=CARTESIAN_POINT('',(1.380524919657E1,9.692777054929E0,6.614173228346E-3));
#325=CARTESIAN_POINT('',(1.380473027669E1,9.693236920016E0,6.614173228346E-3));
#327=CARTESIAN_POINT('',(1.382574760710E1,9.695142088110E0,6.614173228346E-3));
#328=CARTESIAN_POINT('',(1.382571825742E1,9.694643161559E0,6.614173228346E-3));
#329=CARTESIAN_POINT('',(1.382565933397E1,9.693641500866E0,6.614173228346E-3));
#330=CARTESIAN_POINT('',(1.382508979710E1,9.692209703811E0,6.614173228346E-3));
#331=CARTESIAN_POINT('',(1.382420187869E1,9.690879129307E0,6.614173228346E-3));
#332=CARTESIAN_POINT('',(1.382299527926E1,9.689694942992E0,6.614173228346E-3));
#333=CARTESIAN_POINT('',(1.382155685740E1,9.688680683953E0,6.614173228346E-3));
#334=CARTESIAN_POINT('',(1.381991482238E1,9.687947281417E0,6.614173228346E-3));
#335=CARTESIAN_POINT('',(1.381810837781E1,9.687517431118E0,6.614173228346E-3));
#336=CARTESIAN_POINT('',(1.381685415052E1,9.687460226031E0,6.614173228346E-3));
#337=CARTESIAN_POINT('',(1.381620664635E1,9.687430693465E0,6.614173228346E-3));
#339=CARTESIAN_POINT('',(1.382397852246E1,9.699602600646E0,6.614173228346E-3));
#340=CARTESIAN_POINT('',(1.382424867605E1,9.699273825165E0,6.614173228346E-3));
#341=CARTESIAN_POINT('',(1.382477855102E1,9.698628970110E0,6.614173228346E-3));
#342=CARTESIAN_POINT('',(1.382533853518E1,9.697523036362E0,6.614173228346E-3));
#343=CARTESIAN_POINT('',(1.382569220783E1,9.696353235638E0,6.614173228346E-3));
#344=CARTESIAN_POINT('',(1.382572904939E1,9.695547800362E0,6.614173228346E-3));
#345=CARTESIAN_POINT('',(1.382574760710E1,9.695142088110E0,6.614173228346E-3));
#347=CARTESIAN_POINT('',(1.382397852246E1,9.699602600646E0,6.614173228346E-3));
#348=CARTESIAN_POINT('',(1.382379535474E1,9.699787669843E0,6.614173228346E-3));
#349=CARTESIAN_POINT('',(1.382339773739E1,9.700189414724E0,6.614173228346E-3));
#350=CARTESIAN_POINT('',(1.382267701715E1,9.700757717717E0,6.614173228346E-3));
#351=CARTESIAN_POINT('',(1.382180163175E1,9.701361888756E0,6.614173228346E-3));
#352=CARTESIAN_POINT('',(1.382078704167E1,9.702028013622E0,6.614173228346E-3));
#353=CARTESIAN_POINT('',(1.381959494324E1,9.702698716441E0,6.614173228346E-3));
#354=CARTESIAN_POINT('',(1.381826610595E1,9.703432878898E0,6.614173228346E-3));
#355=CARTESIAN_POINT('',(1.381676629734E1,9.704179737732E0,6.614173228346E-3));
#356=CARTESIAN_POINT('',(1.381571322444E1,9.704689192913E0,6.614173228346E-3));
#357=CARTESIAN_POINT('',(1.381516334003E1,9.704955215764E0,6.614173228346E-3));
#359=CARTESIAN_POINT('',(1.380447323022E1,9.712651489984E0,6.614173228346E-3));
#360=CARTESIAN_POINT('',(1.380473459003E1,9.712323857480E0,6.614173228346E-3));
#361=CARTESIAN_POINT('',(1.380527396324E1,9.711647715968E0,6.614173228346E-3));
#362=CARTESIAN_POINT('',(1.380623408320E1,9.710690135150E0,6.614173228346E-3));
#363=CARTESIAN_POINT('',(1.380733727797E1,9.709721944016E0,6.614173228346E-3));
#364=CARTESIAN_POINT('',(1.380860489013E1,9.708763627701E0,6.614173228346E-3));
#365=CARTESIAN_POINT('',(1.381002740660E1,9.707806916409E0,6.614173228346E-3));
#366=CARTESIAN_POINT('',(1.381159162157E1,9.706840240961E0,6.614173228346E-3));
#367=CARTESIAN_POINT('',(1.381332534591E1,9.705892300772E0,6.614173228346E-3));
#368=CARTESIAN_POINT('',(1.381453676712E1,9.705274668378E0,6.614173228346E-3));
#369=CARTESIAN_POINT('',(1.381516334003E1,9.704955215764E0,6.614173228346E-3));
#371=CARTESIAN_POINT('',(1.380155499657E1,9.721587635480E0,6.614173228346E-3));
#372=CARTESIAN_POINT('',(1.380158811397E1,9.720767838850E0,6.614173228346E-3));
#373=CARTESIAN_POINT('',(1.380165307687E1,9.719159730803E0,6.614173228346E-3));
#374=CARTESIAN_POINT('',(1.380221972981E1,9.716823646961E0,6.614173228346E-3));
#375=CARTESIAN_POINT('',(1.380314230795E1,9.714627684945E0,6.614173228346E-3));
#376=CARTESIAN_POINT('',(1.380402706479E1,9.713313970394E0,6.614173228346E-3));
#377=CARTESIAN_POINT('',(1.380447323022E1,9.712651489984E0,6.614173228346E-3));
#379=CARTESIAN_POINT('',(1.381790012906E1,9.736783619008E0,6.614173228346E-3));
#380=CARTESIAN_POINT('',(1.381732470978E1,9.736775506441E0,6.614173228346E-3));
#381=CARTESIAN_POINT('',(1.381619493043E1,9.736759578236E0,6.614173228346E-3));
#382=CARTESIAN_POINT('',(1.381454332748E1,9.736530625417E0,6.614173228346E-3));
#383=CARTESIAN_POINT('',(1.381295865926E1,9.736212990094E0,6.614173228346E-3));
#384=CARTESIAN_POINT('',(1.381146044707E1,9.735717194787E0,6.614173228346E-3));
#385=CARTESIAN_POINT('',(1.381002843217E1,9.735115997244E0,6.614173228346E-3));
#386=CARTESIAN_POINT('',(1.380866927424E1,9.734367353339E0,6.614173228346E-3));
#387=CARTESIAN_POINT('',(1.380739122614E1,9.733476160724E0,6.614173228346E-3));
#388=CARTESIAN_POINT('',(1.380619563392E1,9.732464016567E0,6.614173228346E-3));
#389=CARTESIAN_POINT('',(1.380511743061E1,9.731350781717E0,6.614173228346E-3));
#390=CARTESIAN_POINT('',(1.380415198639E1,9.730170685276E0,6.614173228346E-3));
#391=CARTESIAN_POINT('',(1.380334990545E1,9.728909950724E0,6.614173228346E-3));
#392=CARTESIAN_POINT('',(1.380269027783E1,9.727576921984E0,6.614173228346E-3));
#393=CARTESIAN_POINT('',(1.380218047540E1,9.726176952425E0,6.614173228346E-3));
#394=CARTESIAN_POINT('',(1.380181243195E1,9.724708038142E0,6.614173228346E-3));
#395=CARTESIAN_POINT('',(1.380160047E1,9.723171412961E0,6.614173228346E-3));
#396=CARTESIAN_POINT('',(1.380157035472E1,9.722122537890E0,6.614173228346E-3));
#397=CARTESIAN_POINT('',(1.380155499657E1,9.721587635480E0,6.614173228346E-3));
#399=CARTESIAN_POINT('',(1.383542465135E1,9.727877714220E0,6.614173228346E-3));
#400=CARTESIAN_POINT('',(1.383470847789E1,9.728583521717E0,6.614173228346E-3));
#401=CARTESIAN_POINT('',(1.383331923170E1,9.729952659732E0,6.614173228346E-3));
#402=CARTESIAN_POINT('',(1.383113751907E1,9.731778246945E0,6.614173228346E-3));
#403=CARTESIAN_POINT('',(1.382893812208E1,9.733310378646E0,6.614173228346E-3));
#404=CARTESIAN_POINT('',(1.382674406329E1,9.734580771307E0,6.614173228346E-3));
#405=CARTESIAN_POINT('',(1.382453751468E1,9.735557501717E0,6.614173228346E-3));
#406=CARTESIAN_POINT('',(1.382233298183E1,9.736257089953E0,6.614173228346E-3));
#407=CARTESIAN_POINT('',(1.382012105542E1,9.736708553764E0,6.614173228346E-3));
#408=CARTESIAN_POINT('',(1.381863808096E1,9.736758676913E0,6.614173228346E-3));
#409=CARTESIAN_POINT('',(1.381790012906E1,9.736783619008E0,6.614173228346E-3));
#411=DIRECTION('',(7.601213472290E-1,6.497811458382E-1,0.E0));
#412=VECTOR('',#411,8.633155300422E-3);
#413=CARTESIAN_POINT('',(1.382886240572E1,9.722268052677E0,6.614173228346E-3));
#414=LINE('',#413,#412);
#415=DIRECTION('',(0.E0,0.E0,1.E0));
#416=VECTOR('',#415,6.614173228346E-3);
#417=CARTESIAN_POINT('',(1.382886240572E1,9.722268052677E0,0.E0));
#418=LINE('',#417,#416);
#419=DIRECTION('',(-2.685682364331E-13,0.E0,1.E0));
#420=VECTOR('',#419,6.614173228346E-3);
#421=CARTESIAN_POINT('',(1.381814205520E1,9.728074279181E0,0.E0));
#422=LINE('',#421,#420);
#423=DIRECTION('',(0.E0,0.E0,1.E0));
#424=VECTOR('',#423,6.614173228346E-3);
#425=CARTESIAN_POINT('',(1.381219974520E1,9.721784200441E0,0.E0));
#426=LINE('',#425,#424);
#427=DIRECTION('',(-5.371364728663E-13,2.685682364331E-13,1.E0));
#428=VECTOR('',#427,6.614173228346E-3);
#429=CARTESIAN_POINT('',(1.381374202413E1,9.717520252866E0,0.E0));
#430=LINE('',#429,#428);
#431=DIRECTION('',(0.E0,0.E0,1.E0));
#432=VECTOR('',#431,6.614173228346E-3);
#433=CARTESIAN_POINT('',(1.382171046524E1,9.712197878504E0,0.E0));
#434=LINE('',#433,#432);
#435=DIRECTION('',(0.E0,0.E0,1.E0));
#436=VECTOR('',#435,6.614173228346E-3);
#437=CARTESIAN_POINT('',(1.383318683485E1,9.704320159701E0,0.E0));
#438=LINE('',#437,#436);
#439=DIRECTION('',(0.E0,0.E0,1.E0));
#440=VECTOR('',#439,6.614173228346E-3);
#441=CARTESIAN_POINT('',(1.383639235578E1,9.695368893827E0,0.E0));
#442=LINE('',#441,#440);
#443=DIRECTION('',(0.E0,0.E0,1.E0));
#444=VECTOR('',#443,6.614173228346E-3);
#445=CARTESIAN_POINT('',(1.381682658198E1,9.678721353685E0,0.E0));
#446=LINE('',#445,#444);
#447=DIRECTION('',(-2.685682364331E-13,0.E0,-1.E0));
#448=VECTOR('',#447,6.614173228346E-3);
#449=CARTESIAN_POINT('',(1.379865188334E1,9.687279489685E0,6.614173228346E-3));
#450=LINE('',#449,#448);
#451=DIRECTION('',(0.E0,0.E0,1.E0));
#452=VECTOR('',#451,6.614173228346E-3);
#453=CARTESIAN_POINT('',(1.380473027669E1,9.693236920016E0,0.E0));
#454=LINE('',#453,#452);
#455=DIRECTION('',(0.E0,0.E0,1.E0));
#456=VECTOR('',#455,6.614173228346E-3);
#457=CARTESIAN_POINT('',(1.381620664635E1,9.687430693465E0,0.E0));
#458=LINE('',#457,#456);
#459=DIRECTION('',(0.E0,0.E0,1.E0));
#460=VECTOR('',#459,6.614173228346E-3);
#461=CARTESIAN_POINT('',(1.382574760710E1,9.695142088110E0,0.E0));
#462=LINE('',#461,#460);
#463=DIRECTION('',(0.E0,0.E0,1.E0));
#464=VECTOR('',#463,6.614173228346E-3);
#465=CARTESIAN_POINT('',(1.382397852246E1,9.699602600646E0,0.E0));
#466=LINE('',#465,#464);
#467=DIRECTION('',(-5.371364728663E-13,0.E0,1.E0));
#468=VECTOR('',#467,6.614173228346E-3);
#469=CARTESIAN_POINT('',(1.381516334003E1,9.704955215764E0,0.E0));
#470=LINE('',#469,#468);
#471=DIRECTION('',(2.685682364331E-13,0.E0,1.E0));
#472=VECTOR('',#471,6.614173228346E-3);
#473=CARTESIAN_POINT('',(1.380447323022E1,9.712651489984E0,0.E0));
#474=LINE('',#473,#472);
#475=DIRECTION('',(5.371364728663E-13,0.E0,1.E0));
#476=VECTOR('',#475,6.614173228346E-3);
#477=CARTESIAN_POINT('',(1.380155499657E1,9.721587635480E0,0.E0));
#478=LINE('',#477,#476);
#479=DIRECTION('',(0.E0,0.E0,1.E0));
#480=VECTOR('',#479,6.614173228346E-3);
#481=CARTESIAN_POINT('',(1.381790012906E1,9.736783619008E0,0.E0));
#482=LINE('',#481,#480);
#483=DIRECTION('',(0.E0,0.E0,-1.E0));
#484=VECTOR('',#483,6.614173228346E-3);
#485=CARTESIAN_POINT('',(1.383542465135E1,9.727877714220E0,6.614173228346E-3));
#486=LINE('',#485,#484);
#487=CARTESIAN_POINT('',(1.382886240572E1,9.722268052677E0,6.614173228346E-3));
#488=CARTESIAN_POINT('',(1.383542465135E1,9.727877714220E0,6.614173228346E-3));
#489=VERTEX_POINT('',#487);
#490=VERTEX_POINT('',#488);
#491=VERTEX_POINT('',#19);
#492=VERTEX_POINT('',#29);
#493=VERTEX_POINT('',#215);
#494=CARTESIAN_POINT('',(1.382886240572E1,9.722268052677E0,0.E0));
#495=VERTEX_POINT('',#494);
#496=VERTEX_POINT('',#31);
#497=VERTEX_POINT('',#409);
#498=CARTESIAN_POINT('',(1.381814205520E1,9.728074279181E0,0.E0));
#499=VERTEX_POINT('',#498);
#500=CARTESIAN_POINT('',(1.379865188334E1,9.687279489685E0,0.E0));
#501=CARTESIAN_POINT('',(1.380473027669E1,9.693236920016E0,0.E0));
#502=VERTEX_POINT('',#500);
#503=VERTEX_POINT('',#501);
#504=CARTESIAN_POINT('',(1.380473027669E1,9.693236920016E0,6.614173228346E-3));
#505=VERTEX_POINT('',#504);
#506=CARTESIAN_POINT('',(1.381620664635E1,9.687430693465E0,0.E0));
#507=CARTESIAN_POINT('',(1.381620664635E1,9.687430693465E0,6.614173228346E-3));
#508=VERTEX_POINT('',#506);
#509=VERTEX_POINT('',#507);
#510=VERTEX_POINT('',#227);
#511=CARTESIAN_POINT('',(1.381219974520E1,9.721784200441E0,0.E0));
#512=VERTEX_POINT('',#511);
#513=VERTEX_POINT('',#189);
#514=VERTEX_POINT('',#181);
#515=VERTEX_POINT('',#169);
#516=VERTEX_POINT('',#157);
#517=VERTEX_POINT('',#149);
#518=VERTEX_POINT('',#101);
#519=VERTEX_POINT('',#89);
#520=VERTEX_POINT('',#81);
#521=VERTEX_POINT('',#69);
#522=CARTESIAN_POINT('',(1.380155499657E1,9.721587635480E0,6.614173228346E-3));
#523=VERTEX_POINT('',#522);
#524=VERTEX_POINT('',#377);
#525=VERTEX_POINT('',#369);
#526=CARTESIAN_POINT('',(1.381374202413E1,9.717520252866E0,6.614173228346E-3));
#527=VERTEX_POINT('',#526);
#528=CARTESIAN_POINT('',(1.382171046524E1,9.712197878504E0,6.614173228346E-3));
#529=VERTEX_POINT('',#528);
#530=CARTESIAN_POINT('',(1.383318683485E1,9.704320159701E0,6.614173228346E-3));
#531=VERTEX_POINT('',#530);
#532=CARTESIAN_POINT('',(1.383639235578E1,9.695368893827E0,6.614173228346E-3));
#533=VERTEX_POINT('',#532);
#534=CARTESIAN_POINT('',(1.381682658198E1,9.678721353685E0,6.614173228346E-3));
#535=VERTEX_POINT('',#534);
#536=CARTESIAN_POINT('',(1.379865188334E1,9.687279489685E0,6.614173228346E-3));
#537=VERTEX_POINT('',#536);
#538=CARTESIAN_POINT('',(1.382574760710E1,9.695142088110E0,6.614173228346E-3));
#539=VERTEX_POINT('',#538);
#540=CARTESIAN_POINT('',(1.382397852246E1,9.699602600646E0,6.614173228346E-3));
#541=VERTEX_POINT('',#540);
#542=CARTESIAN_POINT('',(1.379865188334E1,9.678721353685E0,0.E0));
#543=DIRECTION('',(0.E0,0.E0,1.E0));
#544=DIRECTION('',(1.E0,0.E0,0.E0));
#545=AXIS2_PLACEMENT_3D('',#542,#543,#544);
#546=PLANE('',#545);
#548=ORIENTED_EDGE('',*,*,#547,.F.);
#550=ORIENTED_EDGE('',*,*,#549,.F.);
#552=ORIENTED_EDGE('',*,*,#551,.F.);
#554=ORIENTED_EDGE('',*,*,#553,.F.);
#556=ORIENTED_EDGE('',*,*,#555,.F.);
#558=ORIENTED_EDGE('',*,*,#557,.F.);
#560=ORIENTED_EDGE('',*,*,#559,.F.);
#562=ORIENTED_EDGE('',*,*,#561,.F.);
#564=ORIENTED_EDGE('',*,*,#563,.F.);
#566=ORIENTED_EDGE('',*,*,#565,.F.);
#568=ORIENTED_EDGE('',*,*,#567,.F.);
#570=ORIENTED_EDGE('',*,*,#569,.F.);
#572=ORIENTED_EDGE('',*,*,#571,.F.);
#574=ORIENTED_EDGE('',*,*,#573,.F.);
#576=ORIENTED_EDGE('',*,*,#575,.F.);
#578=ORIENTED_EDGE('',*,*,#577,.F.);
#580=ORIENTED_EDGE('',*,*,#579,.F.);
#582=ORIENTED_EDGE('',*,*,#581,.F.);
#583=EDGE_LOOP('',(#548,#550,#552,#554,#556,#558,#560,#562,#564,#566,#568,#570,
#572,#574,#576,#578,#580,#582));
#584=FACE_OUTER_BOUND('',#583,.F.);
#586=FILL_AREA_STYLE_COLOUR('',#14);
#587=FILL_AREA_STYLE('',(#586));
#588=SURFACE_STYLE_FILL_AREA(#587);
#589=SURFACE_SIDE_STYLE('',(#588));
#590=SURFACE_STYLE_USAGE(.BOTH.,#589);
#591=PRESENTATION_STYLE_ASSIGNMENT((#590));
#592=STYLED_ITEM('',(#591),#585);
#593=CARTESIAN_POINT('',(1.382886240572E1,9.722268052677E0,0.E0));
#594=DIRECTION('',(6.497811458383E-1,-7.601213472289E-1,0.E0));
#595=DIRECTION('',(7.601213472289E-1,6.497811458383E-1,0.E0));
#596=AXIS2_PLACEMENT_3D('',#593,#594,#595);
#597=PLANE('',#596);
#599=ORIENTED_EDGE('',*,*,#598,.T.);
#601=ORIENTED_EDGE('',*,*,#600,.T.);
#602=ORIENTED_EDGE('',*,*,#547,.T.);
#604=ORIENTED_EDGE('',*,*,#603,.T.);
#605=EDGE_LOOP('',(#599,#601,#602,#604));
#606=FACE_OUTER_BOUND('',#605,.F.);
#608=FILL_AREA_STYLE_COLOUR('',#14);
#609=FILL_AREA_STYLE('',(#608));
#610=SURFACE_STYLE_FILL_AREA(#609);
#611=SURFACE_SIDE_STYLE('',(#610));
#612=SURFACE_STYLE_USAGE(.BOTH.,#611);
#613=PRESENTATION_STYLE_ASSIGNMENT((#612));
#614=STYLED_ITEM('',(#613),#607);
#615=CARTESIAN_POINT('',(1.379865188334E1,9.678721353685E0,6.614173228346E-3));
#616=DIRECTION('',(0.E0,0.E0,1.E0));
#617=DIRECTION('',(1.E0,0.E0,0.E0));
#618=AXIS2_PLACEMENT_3D('',#615,#616,#617);
#619=PLANE('',#618);
#621=ORIENTED_EDGE('',*,*,#620,.F.);
#623=ORIENTED_EDGE('',*,*,#622,.F.);
#625=ORIENTED_EDGE('',*,*,#624,.F.);
#627=ORIENTED_EDGE('',*,*,#626,.T.);
#629=ORIENTED_EDGE('',*,*,#628,.F.);
#631=ORIENTED_EDGE('',*,*,#630,.F.);
#633=ORIENTED_EDGE('',*,*,#632,.F.);
#635=ORIENTED_EDGE('',*,*,#634,.F.);
#637=ORIENTED_EDGE('',*,*,#636,.F.);
#639=ORIENTED_EDGE('',*,*,#638,.F.);
#641=ORIENTED_EDGE('',*,*,#640,.F.);
#643=ORIENTED_EDGE('',*,*,#642,.F.);
#645=ORIENTED_EDGE('',*,*,#644,.T.);
#647=ORIENTED_EDGE('',*,*,#646,.F.);
#649=ORIENTED_EDGE('',*,*,#648,.F.);
#651=ORIENTED_EDGE('',*,*,#650,.F.);
#653=ORIENTED_EDGE('',*,*,#652,.F.);
#654=ORIENTED_EDGE('',*,*,#598,.F.);
#655=EDGE_LOOP('',(#621,#623,#625,#627,#629,#631,#633,#635,#637,#639,#641,#643,
#645,#647,#649,#651,#653,#654));
#656=FACE_OUTER_BOUND('',#655,.F.);
#658=FILL_AREA_STYLE_COLOUR('',#14);
#659=FILL_AREA_STYLE('',(#658));
#660=SURFACE_STYLE_FILL_AREA(#659);
#661=SURFACE_SIDE_STYLE('',(#660));
#662=SURFACE_STYLE_USAGE(.BOTH.,#661);
#663=PRESENTATION_STYLE_ASSIGNMENT((#662));
#664=STYLED_ITEM('',(#663),#657);
#665=CARTESIAN_POINT('',(1.382911716635E1,9.722031137410E0,6.614173228346E-3));
#666=CARTESIAN_POINT('',(1.382853796449E1,9.722569024398E0,6.614173228346E-3));
#667=CARTESIAN_POINT('',(1.382750844451E1,9.723538692499E0,6.614173228346E-3));
#668=CARTESIAN_POINT('',(1.382596381294E1,9.724793446583E0,6.614173228346E-3));
#669=CARTESIAN_POINT('',(1.382455778778E1,9.725798812205E0,6.614173228346E-3));
#670=CARTESIAN_POINT('',(1.382319493016E1,9.726622486252E0,6.614173228346E-3));
#671=CARTESIAN_POINT('',(1.382187565450E1,9.727266647764E0,6.614173228346E-3));
#672=CARTESIAN_POINT('',(1.382059475849E1,9.727728469323E0,6.614173228346E-3));
#673=CARTESIAN_POINT('',(1.381924105067E1,9.728042574608E0,6.614173228346E-3));
#674=CARTESIAN_POINT('',(1.381830452881E1,9.728063548924E0,6.614173228346E-3));
#675=CARTESIAN_POINT('',(1.381779465706E1,9.728091768466E0,6.614173228346E-3));
#677=DRAUGHTING_PRE_DEFINED_CURVE_FONT('continuous');
#678=CURVE_STYLE('',#677,POSITIVE_LENGTH_MEASURE(2.E-2),#14);
#679=PRESENTATION_STYLE_ASSIGNMENT((#678));
#680=STYLED_ITEM('',(#679),#676);
#681=DIRECTION('',(0.E0,0.E0,-1.E0));
#682=VECTOR('',#681,1.E0);
#683=SURFACE_OF_LINEAR_EXTRUSION('',#676,#682);
#684=ORIENTED_EDGE('',*,*,#620,.T.);
#685=ORIENTED_EDGE('',*,*,#603,.F.);
#686=ORIENTED_EDGE('',*,*,#581,.T.);
#688=ORIENTED_EDGE('',*,*,#687,.T.);
#689=EDGE_LOOP('',(#684,#685,#686,#688));
#690=FACE_OUTER_BOUND('',#689,.F.);
#692=FILL_AREA_STYLE_COLOUR('',#14);
#693=FILL_AREA_STYLE('',(#692));
#694=SURFACE_STYLE_FILL_AREA(#693);
#695=SURFACE_SIDE_STYLE('',(#694));
#696=SURFACE_STYLE_USAGE(.BOTH.,#695);
#697=PRESENTATION_STYLE_ASSIGNMENT((#696));
#698=STYLED_ITEM('',(#697),#691);
#699=CARTESIAN_POINT('',(1.381848919686E1,9.728093673310E0,6.614173228346E-3));
#700=CARTESIAN_POINT('',(1.381800884367E1,9.728062431111E0,6.614173228346E-3));
#701=CARTESIAN_POINT('',(1.381715527319E1,9.728055354726E0,6.614173228346E-3));
#702=CARTESIAN_POINT('',(1.381598326682E1,9.727659321307E0,6.614173228346E-3));
#703=CARTESIAN_POINT('',(1.381496667831E1,9.727106069764E0,6.614173228346E-3));
#704=CARTESIAN_POINT('',(1.381403397950E1,9.726339067984E0,6.614173228346E-3));
#705=CARTESIAN_POINT('',(1.381321070334E1,9.725421880205E0,6.614173228346E-3));
#706=CARTESIAN_POINT('',(1.381262099702E1,9.724324325953E0,6.614173228346E-3));
#707=CARTESIAN_POINT('',(1.381223474880E1,9.722983985831E0,6.614173228346E-3));
#708=CARTESIAN_POINT('',(1.381221427176E1,9.721998045830E0,6.614173228346E-3));
#709=CARTESIAN_POINT('',(1.381218100111E1,9.721436923022E0,6.614173228346E-3));
#711=CURVE_STYLE('',#677,POSITIVE_LENGTH_MEASURE(2.E-2),#14);
#712=PRESENTATION_STYLE_ASSIGNMENT((#711));
#713=STYLED_ITEM('',(#712),#710);
#714=DIRECTION('',(0.E0,0.E0,-1.E0));
#715=VECTOR('',#714,1.E0);
#716=SURFACE_OF_LINEAR_EXTRUSION('',#710,#715);
#717=ORIENTED_EDGE('',*,*,#622,.T.);
#718=ORIENTED_EDGE('',*,*,#687,.F.);
#719=ORIENTED_EDGE('',*,*,#579,.T.);
#721=ORIENTED_EDGE('',*,*,#720,.T.);
#722=EDGE_LOOP('',(#717,#718,#719,#721));
#723=FACE_OUTER_BOUND('',#722,.F.);
#725=FILL_AREA_STYLE_COLOUR('',#14);
#726=FILL_AREA_STYLE('',(#725));
#727=SURFACE_STYLE_FILL_AREA(#726);
#728=SURFACE_SIDE_STYLE('',(#727));
#729=SURFACE_STYLE_USAGE(.BOTH.,#728);
#730=PRESENTATION_STYLE_ASSIGNMENT((#729));
#731=STYLED_ITEM('',(#730),#724);
#732=CARTESIAN_POINT('',(1.381216768700E1,9.722478131858E0,6.614173228346E-3));
#733=CARTESIAN_POINT('',(1.381221463578E1,9.721844508644E0,6.614173228346E-3));
#734=CARTESIAN_POINT('',(1.381217365361E1,9.720808206295E0,6.614173228346E-3));
#735=CARTESIAN_POINT('',(1.381256508335E1,9.719461155638E0,6.614173228346E-3));
#736=CARTESIAN_POINT('',(1.381306957626E1,9.718300273979E0,6.614173228346E-3));
#737=CARTESIAN_POINT('',(1.381365043592E1,9.717640808408E0,6.614173228346E-3));
#738=CARTESIAN_POINT('',(1.381395984929E1,9.717249261123E0,6.614173228346E-3));
#740=CURVE_STYLE('',#677,POSITIVE_LENGTH_MEASURE(2.E-2),#14);
#741=PRESENTATION_STYLE_ASSIGNMENT((#740));
#742=STYLED_ITEM('',(#741),#739);
#743=DIRECTION('',(0.E0,0.E0,-1.E0));
#744=VECTOR('',#743,1.E0);
#745=SURFACE_OF_LINEAR_EXTRUSION('',#739,#744);
#746=ORIENTED_EDGE('',*,*,#624,.T.);
#747=ORIENTED_EDGE('',*,*,#720,.F.);
#748=ORIENTED_EDGE('',*,*,#577,.T.);
#750=ORIENTED_EDGE('',*,*,#749,.T.);
#751=EDGE_LOOP('',(#746,#747,#748,#750));
#752=FACE_OUTER_BOUND('',#751,.F.);
#754=FILL_AREA_STYLE_COLOUR('',#14);
#755=FILL_AREA_STYLE('',(#754));
#756=SURFACE_STYLE_FILL_AREA(#755);
#757=SURFACE_SIDE_STYLE('',(#756));
#758=SURFACE_STYLE_USAGE(.BOTH.,#757);
#759=PRESENTATION_STYLE_ASSIGNMENT((#758));
#760=STYLED_ITEM('',(#759),#753);
#761=CARTESIAN_POINT('',(1.381350523161E1,9.717775045588E0,6.614173228346E-3));
#762=CARTESIAN_POINT('',(1.381377968196E1,9.717482438439E0,6.614173228346E-3));
#763=CARTESIAN_POINT('',(1.381425679853E1,9.716948836995E0,6.614173228346E-3));
#764=CARTESIAN_POINT('',(1.381504816583E1,9.716231026677E0,6.614173228346E-3));
#765=CARTESIAN_POINT('',(1.381587510439E1,9.715588851402E0,6.614173228346E-3));
#766=CARTESIAN_POINT('',(1.381682438291E1,9.714944160898E0,6.614173228346E-3));
#767=CARTESIAN_POINT('',(1.381786379532E1,9.714249962220E0,6.614173228346E-3));
#768=CARTESIAN_POINT('',(1.381904696494E1,9.713585561291E0,6.614173228346E-3));
#769=CARTESIAN_POINT('',(1.382043511622E1,9.712826508360E0,6.614173228346E-3));
#770=CARTESIAN_POINT('',(1.382144799974E1,9.712328876471E0,6.614173228346E-3));
#771=CARTESIAN_POINT('',(1.382202193450E1,9.712042984257E0,6.614173228346E-3));
#773=CURVE_STYLE('',#677,POSITIVE_LENGTH_MEASURE(2.E-2),#14);
#774=PRESENTATION_STYLE_ASSIGNMENT((#773));
#775=STYLED_ITEM('',(#774),#772);
#776=DIRECTION('',(0.E0,0.E0,-1.E0));
#777=VECTOR('',#776,1.E0);
#778=SURFACE_OF_LINEAR_EXTRUSION('',#772,#777);
#779=ORIENTED_EDGE('',*,*,#626,.F.);
#780=ORIENTED_EDGE('',*,*,#749,.F.);
#781=ORIENTED_EDGE('',*,*,#575,.T.);
#783=ORIENTED_EDGE('',*,*,#782,.T.);
#784=EDGE_LOOP('',(#779,#780,#781,#783));
#785=FACE_OUTER_BOUND('',#784,.F.);
#787=FILL_AREA_STYLE_COLOUR('',#14);
#788=FILL_AREA_STYLE('',(#787));
#789=SURFACE_STYLE_FILL_AREA(#788);
#790=SURFACE_SIDE_STYLE('',(#789));
#791=SURFACE_STYLE_USAGE(.BOTH.,#790);
#792=PRESENTATION_STYLE_ASSIGNMENT((#791));
#793=STYLED_ITEM('',(#792),#786);
#794=CARTESIAN_POINT('',(1.382139975776E1,9.712354319929E0,6.614173228346E-3));
#795=CARTESIAN_POINT('',(1.382219583973E1,9.711953221699E0,6.614173228346E-3));
#796=CARTESIAN_POINT('',(1.382364091065E1,9.711230788920E0,6.614173228346E-3));
#797=CARTESIAN_POINT('',(1.382563834384E1,9.710135787732E0,6.614173228346E-3));
#798=CARTESIAN_POINT('',(1.382735821450E1,9.709124924693E0,6.614173228346E-3));
#799=CARTESIAN_POINT('',(1.382888225173E1,9.70812462E0,6.614173228346E-3));
#800=CARTESIAN_POINT('',(1.383023824710E1,9.707167922268E0,6.614173228346E-3));
#801=CARTESIAN_POINT('',(1.383139175140E1,9.706203784441E0,6.614173228346E-3));
#802=CARTESIAN_POINT('',(1.383247002147E1,9.705205672308E0,6.614173228346E-3));
#803=CARTESIAN_POINT('',(1.383307750361E1,9.704448422502E0,6.614173228346E-3));
#804=CARTESIAN_POINT('',(1.383340970188E1,9.704053100135E0,6.614173228346E-3));
#806=CURVE_STYLE('',#677,POSITIVE_LENGTH_MEASURE(2.E-2),#14);
#807=PRESENTATION_STYLE_ASSIGNMENT((#806));
#808=STYLED_ITEM('',(#807),#805);
#809=DIRECTION('',(0.E0,0.E0,-1.E0));
#810=VECTOR('',#809,1.E0);
#811=SURFACE_OF_LINEAR_EXTRUSION('',#805,#810);
#812=ORIENTED_EDGE('',*,*,#628,.T.);
#813=ORIENTED_EDGE('',*,*,#782,.F.);
#814=ORIENTED_EDGE('',*,*,#573,.T.);
#816=ORIENTED_EDGE('',*,*,#815,.T.);
#817=EDGE_LOOP('',(#812,#813,#814,#816));
#818=FACE_OUTER_BOUND('',#817,.F.);
#820=FILL_AREA_STYLE_COLOUR('',#14);
#821=FILL_AREA_STYLE('',(#820));
#822=SURFACE_STYLE_FILL_AREA(#821);
#823=SURFACE_SIDE_STYLE('',(#822));
#824=SURFACE_STYLE_USAGE(.BOTH.,#823);
#825=PRESENTATION_STYLE_ASSIGNMENT((#824));
#826=STYLED_ITEM('',(#825),#819);
#827=CARTESIAN_POINT('',(1.383298674655E1,9.704604692873E0,6.614173228346E-3));
#828=CARTESIAN_POINT('',(1.383354564398E1,9.703807841328E0,6.614173228346E-3));
#829=CARTESIAN_POINT('',(1.383459315774E1,9.702362361049E0,6.614173228346E-3));
#830=CARTESIAN_POINT('',(1.383563532831E1,9.700009138252E0,6.614173228346E-3));
#831=CARTESIAN_POINT('',(1.383631572546E1,9.697601740876E0,6.614173228346E-3));
#832=CARTESIAN_POINT('',(1.383636506373E1,9.695917404045E0,6.614173228346E-3));
#833=CARTESIAN_POINT('',(1.383640869251E1,9.695021445300E0,6.614173228346E-3));
#835=CURVE_STYLE('',#677,POSITIVE_LENGTH_MEASURE(2.E-2),#14);
#836=PRESENTATION_STYLE_ASSIGNMENT((#835));
#837=STYLED_ITEM('',(#836),#834);
#838=DIRECTION('',(0.E0,0.E0,-1.E0));
#839=VECTOR('',#838,1.E0);
#840=SURFACE_OF_LINEAR_EXTRUSION('',#834,#839);
#841=ORIENTED_EDGE('',*,*,#630,.T.);
#842=ORIENTED_EDGE('',*,*,#815,.F.);
#843=ORIENTED_EDGE('',*,*,#571,.T.);
#845=ORIENTED_EDGE('',*,*,#844,.T.);
#846=EDGE_LOOP('',(#841,#842,#843,#845));
#847=FACE_OUTER_BOUND('',#846,.F.);
#849=FILL_AREA_STYLE_COLOUR('',#14);
#850=FILL_AREA_STYLE('',(#849));
#851=SURFACE_STYLE_FILL_AREA(#850);
#852=SURFACE_SIDE_STYLE('',(#851));
#853=SURFACE_STYLE_USAGE(.BOTH.,#852);
#854=PRESENTATION_STYLE_ASSIGNMENT((#853));
#855=STYLED_ITEM('',(#854),#848);
#856=CARTESIAN_POINT('',(1.383640394244E1,9.695716542242E0,6.614173228346E-3));
#857=CARTESIAN_POINT('',(1.383638039954E1,9.695050353326E0,6.614173228346E-3));
#858=CARTESIAN_POINT('',(1.383635870069E1,9.693846106105E0,6.614173228346E-3));
#859=CARTESIAN_POINT('',(1.383607005619E1,9.692130532819E0,6.614173228346E-3));
#860=CARTESIAN_POINT('',(1.383565457187E1,9.690579150661E0,6.614173228346E-3));
#861=CARTESIAN_POINT('',(1.383503504102E1,9.689089144252E0,6.614173228346E-3));
#862=CARTESIAN_POINT('',(1.383426699898E1,9.687642438E0,6.614173228346E-3));
#863=CARTESIAN_POINT('',(1.383329871491E1,9.686264343969E0,6.614173228346E-3));
#864=CARTESIAN_POINT('',(1.383217877499E1,9.684930545906E0,6.614173228346E-3));
#865=CARTESIAN_POINT('',(1.383089937917E1,9.683668799622E0,6.614173228346E-3));
#866=CARTESIAN_POINT('',(1.382948721775E1,9.682507509921E0,6.614173228346E-3));
#867=CARTESIAN_POINT('',(1.382796156383E1,9.681495031795E0,6.614173228346E-3));
#868=CARTESIAN_POINT('',(1.382633708334E1,9.680642817165E0,6.614173228346E-3));
#869=CARTESIAN_POINT('',(1.382462645065E1,9.679924781244E0,6.614173228346E-3));
#870=CARTESIAN_POINT('',(1.382280598578E1,9.679381432394E0,6.614173228346E-3));
#871=CARTESIAN_POINT('',(1.382088999562E1,9.679015815969E0,6.614173228346E-3));
#872=CARTESIAN_POINT('',(1.381877485614E1,9.678742207552E0,6.614173228346E-3));
#873=CARTESIAN_POINT('',(1.381729103960E1,9.678730492566E0,6.614173228346E-3));
#874=CARTESIAN_POINT('',(1.381647878532E1,9.678715147119E0,6.614173228346E-3));
#876=CURVE_STYLE('',#677,POSITIVE_LENGTH_MEASURE(2.E-2),#14);
#877=PRESENTATION_STYLE_ASSIGNMENT((#876));
#878=STYLED_ITEM('',(#877),#875);
#879=DIRECTION('',(0.E0,0.E0,-1.E0));
#880=VECTOR('',#879,1.E0);
#881=SURFACE_OF_LINEAR_EXTRUSION('',#875,#880);
#882=ORIENTED_EDGE('',*,*,#632,.T.);
#883=ORIENTED_EDGE('',*,*,#844,.F.);
#884=ORIENTED_EDGE('',*,*,#569,.T.);
#886=ORIENTED_EDGE('',*,*,#885,.T.);
#887=EDGE_LOOP('',(#882,#883,#884,#886));
#888=FACE_OUTER_BOUND('',#887,.F.);
#890=FILL_AREA_STYLE_COLOUR('',#14);
#891=FILL_AREA_STYLE('',(#890));
#892=SURFACE_STYLE_FILL_AREA(#891);
#893=SURFACE_SIDE_STYLE('',(#892));
#894=SURFACE_STYLE_USAGE(.BOTH.,#893);
#895=PRESENTATION_STYLE_ASSIGNMENT((#894));
#896=STYLED_ITEM('',(#895),#889);
#897=CARTESIAN_POINT('',(1.381717426584E1,9.678710465104E0,6.614173228346E-3));
#898=CARTESIAN_POINT('',(1.381619007213E1,9.678742036303E0,6.614173228346E-3));
#899=CARTESIAN_POINT('',(1.381434741355E1,9.678783300511E0,6.614173228346E-3));
#900=CARTESIAN_POINT('',(1.381167865918E1,9.679209038504E0,6.614173228346E-3));
#901=CARTESIAN_POINT('',(1.380918698461E1,9.679862261055E0,6.614173228346E-3));
#902=CARTESIAN_POINT('',(1.380676409627E1,9.680760734315E0,6.614173228346E-3));
#903=CARTESIAN_POINT('',(1.380445835802E1,9.681950032819E0,6.614173228346E-3));
#904=CARTESIAN_POINT('',(1.380233240683E1,9.683454991181E0,6.614173228346E-3));
#905=CARTESIAN_POINT('',(1.380026433027E1,9.685285679537E0,6.614173228346E-3));
#906=CARTESIAN_POINT('',(1.379907763843E1,9.686762589047E0,6.614173228346E-3));
#907=CARTESIAN_POINT('',(1.379843109212E1,9.687548285813E0,6.614173228346E-3));
#909=CURVE_STYLE('',#677,POSITIVE_LENGTH_MEASURE(2.E-2),#14);
#910=PRESENTATION_STYLE_ASSIGNMENT((#909));
#911=STYLED_ITEM('',(#910),#908);
#912=DIRECTION('',(0.E0,0.E0,-1.E0));
#913=VECTOR('',#912,1.E0);
#914=SURFACE_OF_LINEAR_EXTRUSION('',#908,#913);
#915=ORIENTED_EDGE('',*,*,#634,.T.);
#916=ORIENTED_EDGE('',*,*,#885,.F.);
#917=ORIENTED_EDGE('',*,*,#567,.T.);
#919=ORIENTED_EDGE('',*,*,#918,.F.);
#920=EDGE_LOOP('',(#915,#916,#917,#919));
#921=FACE_OUTER_BOUND('',#920,.F.);
#923=FILL_AREA_STYLE_COLOUR('',#14);
#924=FILL_AREA_STYLE('',(#923));
#925=SURFACE_STYLE_FILL_AREA(#924);
#926=SURFACE_SIDE_STYLE('',(#925));
#927=SURFACE_STYLE_USAGE(.BOTH.,#926);
#928=PRESENTATION_STYLE_ASSIGNMENT((#927));
#929=STYLED_ITEM('',(#928),#922);
#930=CARTESIAN_POINT('',(1.380473027669E1,9.693236920016E0,0.E0));
#931=DIRECTION('',(-6.999648320870E-1,7.141773126062E-1,0.E0));
#932=DIRECTION('',(-7.141773126062E-1,-6.999648320870E-1,0.E0));
#933=AXIS2_PLACEMENT_3D('',#930,#931,#932);
#934=PLANE('',#933);
#935=ORIENTED_EDGE('',*,*,#636,.T.);
#936=ORIENTED_EDGE('',*,*,#918,.T.);
#937=ORIENTED_EDGE('',*,*,#565,.T.);
#939=ORIENTED_EDGE('',*,*,#938,.T.);
#940=EDGE_LOOP('',(#935,#936,#937,#939));
#941=FACE_OUTER_BOUND('',#940,.F.);
#943=FILL_AREA_STYLE_COLOUR('',#14);
#944=FILL_AREA_STYLE('',(#943));
#945=SURFACE_STYLE_FILL_AREA(#944);
#946=SURFACE_SIDE_STYLE('',(#945));
#947=SURFACE_STYLE_USAGE(.BOTH.,#946);
#948=PRESENTATION_STYLE_ASSIGNMENT((#947));
#949=STYLED_ITEM('',(#948),#942);
#950=CARTESIAN_POINT('',(1.380446983725E1,9.693467567481E0,6.614173228346E-3));
#951=CARTESIAN_POINT('',(1.380507606029E1,9.692931403202E0,6.614173228346E-3));
#952=CARTESIAN_POINT('',(1.380615772765E1,9.691961365235E0,6.614173228346E-3));
#953=CARTESIAN_POINT('',(1.380778046287E1,9.690709692614E0,6.614173228346E-3));
#954=CARTESIAN_POINT('',(1.380926482502E1,9.689699990126E0,6.614173228346E-3));
#955=CARTESIAN_POINT('',(1.381071966609E1,9.688876579134E0,6.614173228346E-3));
#956=CARTESIAN_POINT('',(1.381214190406E1,9.688236426567E0,6.614173228346E-3));
#957=CARTESIAN_POINT('',(1.381352859860E1,9.687775157669E0,6.614173228346E-3));
#958=CARTESIAN_POINT('',(1.381499299418E1,9.687462790343E0,6.614173228346E-3));
#959=CARTESIAN_POINT('',(1.381600389804E1,9.687441823894E0,6.614173228346E-3));
#960=CARTESIAN_POINT('',(1.381655415214E1,9.687415266946E0,6.614173228346E-3));
#962=CURVE_STYLE('',#677,POSITIVE_LENGTH_MEASURE(2.E-2),#14);
#963=PRESENTATION_STYLE_ASSIGNMENT((#962));
#964=STYLED_ITEM('',(#963),#961);
#965=DIRECTION('',(0.E0,0.E0,-1.E0));
#966=VECTOR('',#965,1.E0);
#967=SURFACE_OF_LINEAR_EXTRUSION('',#961,#966);
#968=ORIENTED_EDGE('',*,*,#638,.T.);
#969=ORIENTED_EDGE('',*,*,#938,.F.);
#970=ORIENTED_EDGE('',*,*,#563,.T.);
#972=ORIENTED_EDGE('',*,*,#971,.T.);
#973=EDGE_LOOP('',(#968,#969,#970,#972));
#974=FACE_OUTER_BOUND('',#973,.F.);
#976=FILL_AREA_STYLE_COLOUR('',#14);
#977=FILL_AREA_STYLE('',(#976));
#978=SURFACE_STYLE_FILL_AREA(#977);
#979=SURFACE_SIDE_STYLE('',(#978));
#980=SURFACE_STYLE_USAGE(.BOTH.,#979);
#981=PRESENTATION_STYLE_ASSIGNMENT((#980));
#982=STYLED_ITEM('',(#981),#975);
#983=CARTESIAN_POINT('',(1.381585918748E1,9.687414485645E0,6.614173228346E-3));
#984=CARTESIAN_POINT('',(1.381662225683E1,9.687451663309E0,6.614173228346E-3));
#985=CARTESIAN_POINT('',(1.381799500617E1,9.687490453909E0,6.614173228346E-3));
#986=CARTESIAN_POINT('',(1.381991482238E1,9.687947281417E0,6.614173228346E-3));
#987=CARTESIAN_POINT('',(1.382155685740E1,9.688680683953E0,6.614173228346E-3));
#988=CARTESIAN_POINT('',(1.382299527926E1,9.689694942992E0,6.614173228346E-3));
#989=CARTESIAN_POINT('',(1.382420187869E1,9.690879129307E0,6.614173228346E-3));
#990=CARTESIAN_POINT('',(1.382508979710E1,9.692209703811E0,6.614173228346E-3));
#991=CARTESIAN_POINT('',(1.382570260225E1,9.693750275919E0,6.614173228346E-3));
#992=CARTESIAN_POINT('',(1.382572766273E1,9.694875474980E0,6.614173228346E-3));
#993=CARTESIAN_POINT('',(1.382576901242E1,9.695489161479E0,6.614173228346E-3));
#995=CURVE_STYLE('',#677,POSITIVE_LENGTH_MEASURE(2.E-2),#14);
#996=PRESENTATION_STYLE_ASSIGNMENT((#995));
#997=STYLED_ITEM('',(#996),#994);
#998=DIRECTION('',(0.E0,0.E0,-1.E0));
#999=VECTOR('',#998,1.E0);
#1000=SURFACE_OF_LINEAR_EXTRUSION('',#994,#999);
#1001=ORIENTED_EDGE('',*,*,#640,.T.);
#1002=ORIENTED_EDGE('',*,*,#971,.F.);
#1003=ORIENTED_EDGE('',*,*,#561,.T.);
#1005=ORIENTED_EDGE('',*,*,#1004,.T.);
#1006=EDGE_LOOP('',(#1001,#1002,#1003,#1005));
#1007=FACE_OUTER_BOUND('',#1006,.F.);
#1009=FILL_AREA_STYLE_COLOUR('',#14);
#1010=FILL_AREA_STYLE('',(#1009));
#1011=SURFACE_STYLE_FILL_AREA(#1010);
#1012=SURFACE_SIDE_STYLE('',(#1011));
#1013=SURFACE_STYLE_USAGE(.BOTH.,#1012);
#1014=PRESENTATION_STYLE_ASSIGNMENT((#1013));
#1015=STYLED_ITEM('',(#1014),#1008);
#1016=CARTESIAN_POINT('',(1.382576466955E1,9.694794765346E0,6.614173228346E-3));
#1017=CARTESIAN_POINT('',(1.382573555658E1,9.695315523514E0,6.614173228346E-3));
#1018=CARTESIAN_POINT('',(1.382572594184E1,9.696241657669E0,6.614173228346E-3));
#1019=CARTESIAN_POINT('',(1.382533853518E1,9.697523036362E0,6.614173228346E-3));
#1020=CARTESIAN_POINT('',(1.382472595208E1,9.698732849735E0,6.614173228346E-3));
#1021=CARTESIAN_POINT('',(1.382409852710E1,9.699451016994E0,6.614173228346E-3));
#1022=CARTESIAN_POINT('',(1.382375847413E1,9.699871907520E0,6.614173228346E-3));
#1024=CURVE_STYLE('',#677,POSITIVE_LENGTH_MEASURE(2.E-2),#14);
#1025=PRESENTATION_STYLE_ASSIGNMENT((#1024));
#1026=STYLED_ITEM('',(#1025),#1023);
#1027=DIRECTION('',(0.E0,0.E0,-1.E0));
#1028=VECTOR('',#1027,1.E0);
#1029=SURFACE_OF_LINEAR_EXTRUSION('',#1023,#1028);
#1030=ORIENTED_EDGE('',*,*,#642,.T.);
#1031=ORIENTED_EDGE('',*,*,#1004,.F.);
#1032=ORIENTED_EDGE('',*,*,#559,.T.);
#1034=ORIENTED_EDGE('',*,*,#1033,.T.);
#1035=EDGE_LOOP('',(#1030,#1031,#1032,#1034));
#1036=FACE_OUTER_BOUND('',#1035,.F.);
#1038=FILL_AREA_STYLE_COLOUR('',#14);
#1039=FILL_AREA_STYLE('',(#1038));
#1040=SURFACE_STYLE_FILL_AREA(#1039);
#1041=SURFACE_SIDE_STYLE('',(#1040));
#1042=SURFACE_STYLE_USAGE(.BOTH.,#1041);
#1043=PRESENTATION_STYLE_ASSIGNMENT((#1042));
#1044=STYLED_ITEM('',(#1043),#1037);
#1045=CARTESIAN_POINT('',(1.382422414685E1,9.699356275443E0,6.614173228346E-3));
#1046=CARTESIAN_POINT('',(1.382395654423E1,9.699620655513E0,6.614173228346E-3));
#1047=CARTESIAN_POINT('',(1.382348894017E1,9.700117499420E0,6.614173228346E-3));
#1048=CARTESIAN_POINT('',(1.382267701715E1,9.700757717717E0,6.614173228346E-3));
#1049=CARTESIAN_POINT('',(1.382180163175E1,9.701361888756E0,6.614173228346E-3));
#1050=CARTESIAN_POINT('',(1.382078704167E1,9.702028013622E0,6.614173228346E-3));
#1051=CARTESIAN_POINT('',(1.381959494324E1,9.702698716441E0,6.614173228346E-3));
#1052=CARTESIAN_POINT('',(1.381826610595E1,9.703432878898E0,6.614173228346E-3));
#1053=CARTESIAN_POINT('',(1.381666245506E1,9.704231448011E0,6.614173228346E-3));
#1054=CARTESIAN_POINT('',(1.381550437091E1,9.704790085912E0,6.614173228346E-3));
#1055=CARTESIAN_POINT('',(1.381485015301E1,9.705106756982E0,6.614173228346E-3));
#1057=CURVE_STYLE('',#677,POSITIVE_LENGTH_MEASURE(2.E-2),#14);
#1058=PRESENTATION_STYLE_ASSIGNMENT((#1057));
#1059=STYLED_ITEM('',(#1058),#1056);
#1060=DIRECTION('',(0.E0,0.E0,-1.E0));
#1061=VECTOR('',#1060,1.E0);
#1062=SURFACE_OF_LINEAR_EXTRUSION('',#1056,#1061);
#1063=ORIENTED_EDGE('',*,*,#644,.F.);
#1064=ORIENTED_EDGE('',*,*,#1033,.F.);
#1065=ORIENTED_EDGE('',*,*,#557,.T.);
#1067=ORIENTED_EDGE('',*,*,#1066,.T.);
#1068=EDGE_LOOP('',(#1063,#1064,#1065,#1067));
#1069=FACE_OUTER_BOUND('',#1068,.F.);
#1071=FILL_AREA_STYLE_COLOUR('',#14);
#1072=FILL_AREA_STYLE('',(#1071));
#1073=SURFACE_STYLE_FILL_AREA(#1072);
#1074=SURFACE_SIDE_STYLE('',(#1073));
#1075=SURFACE_STYLE_USAGE(.BOTH.,#1074);
#1076=PRESENTATION_STYLE_ASSIGNMENT((#1075));
#1077=STYLED_ITEM('',(#1076),#1070);
#1078=CARTESIAN_POINT('',(1.381547326299E1,9.704797151460E0,6.614173228346E-3));
#1079=CARTESIAN_POINT('',(1.381474352700E1,9.705169574212E0,6.614173228346E-3));
#1080=CARTESIAN_POINT('',(1.381342713324E1,9.705836646995E0,6.614173228346E-3));
#1081=CARTESIAN_POINT('',(1.381159162157E1,9.706840240961E0,6.614173228346E-3));
#1082=CARTESIAN_POINT('',(1.381002740660E1,9.707806916409E0,6.614173228346E-3));
#1083=CARTESIAN_POINT('',(1.380860489013E1,9.708763627701E0,6.614173228346E-3));
#1084=CARTESIAN_POINT('',(1.380733727797E1,9.709721944016E0,6.614173228346E-3));
#1085=CARTESIAN_POINT('',(1.380623408320E1,9.710690135150E0,6.614173228346E-3));
#1086=CARTESIAN_POINT('',(1.380519176538E1,9.711729696454E0,6.614173228346E-3));
#1087=CARTESIAN_POINT('',(1.380459127767E1,9.712506333137E0,6.614173228346E-3));
#1088=CARTESIAN_POINT('',(1.380425590818E1,9.712923136773E0,6.614173228346E-3));
#1090=CURVE_STYLE('',#677,POSITIVE_LENGTH_MEASURE(2.E-2),#14);
#1091=PRESENTATION_STYLE_ASSIGNMENT((#1090));
#1092=STYLED_ITEM('',(#1091),#1089);
#1093=DIRECTION('',(0.E0,0.E0,-1.E0));
#1094=VECTOR('',#1093,1.E0);
#1095=SURFACE_OF_LINEAR_EXTRUSION('',#1089,#1094);
#1096=ORIENTED_EDGE('',*,*,#646,.T.);
#1097=ORIENTED_EDGE('',*,*,#1066,.F.);
#1098=ORIENTED_EDGE('',*,*,#555,.T.);
#1100=ORIENTED_EDGE('',*,*,#1099,.T.);
#1101=EDGE_LOOP('',(#1096,#1097,#1098,#1100));
#1102=FACE_OUTER_BOUND('',#1101,.F.);
#1104=FILL_AREA_STYLE_COLOUR('',#14);
#1105=FILL_AREA_STYLE('',(#1104));
#1106=SURFACE_STYLE_FILL_AREA(#1105);
#1107=SURFACE_SIDE_STYLE('',(#1106));
#1108=SURFACE_STYLE_USAGE(.BOTH.,#1107);
#1109=PRESENTATION_STYLE_ASSIGNMENT((#1108));
#1110=STYLED_ITEM('',(#1109),#1103);
#1111=CARTESIAN_POINT('',(1.380466733770E1,9.712362844060E0,6.614173228346E-3));
#1112=CARTESIAN_POINT('',(1.380415805054E1,9.713122434120E0,6.614173228346E-3));
#1113=CARTESIAN_POINT('',(1.380318739329E1,9.714520370804E0,6.614173228346E-3));
#1114=CARTESIAN_POINT('',(1.380221972981E1,9.716823646961E0,6.614173228346E-3));
#1115=CARTESIAN_POINT('',(1.380162563840E1,9.719272848664E0,6.614173228346E-3));
#1116=CARTESIAN_POINT('',(1.380158039288E1,9.720999754545E0,6.614173228346E-3));
#1117=CARTESIAN_POINT('',(1.380154072373E1,9.721935184858E0,6.614173228346E-3));
#1119=CURVE_STYLE('',#677,POSITIVE_LENGTH_MEASURE(2.E-2),#14);
#1120=PRESENTATION_STYLE_ASSIGNMENT((#1119));
#1121=STYLED_ITEM('',(#1120),#1118);
#1122=DIRECTION('',(0.E0,0.E0,-1.E0));
#1123=VECTOR('',#1122,1.E0);
#1124=SURFACE_OF_LINEAR_EXTRUSION('',#1118,#1123);
#1125=ORIENTED_EDGE('',*,*,#648,.T.);
#1126=ORIENTED_EDGE('',*,*,#1099,.F.);
#1127=ORIENTED_EDGE('',*,*,#553,.T.);
#1129=ORIENTED_EDGE('',*,*,#1128,.T.);
#1130=EDGE_LOOP('',(#1125,#1126,#1127,#1129));
#1131=FACE_OUTER_BOUND('',#1130,.F.);
#1133=FILL_AREA_STYLE_COLOUR('',#14);
#1134=FILL_AREA_STYLE('',(#1133));
#1135=SURFACE_STYLE_FILL_AREA(#1134);
#1136=SURFACE_SIDE_STYLE('',(#1135));
#1137=SURFACE_STYLE_USAGE(.BOTH.,#1136);
#1138=PRESENTATION_STYLE_ASSIGNMENT((#1137));
#1139=STYLED_ITEM('',(#1138),#1132);
#1140=CARTESIAN_POINT('',(1.380154471185E1,9.721239918498E0,6.614173228346E-3));
#1141=CARTESIAN_POINT('',(1.380156508514E1,9.721890621976E0,6.614173228346E-3));
#1142=CARTESIAN_POINT('',(1.380158459517E1,9.723056327883E0,6.614173228346E-3));
#1143=CARTESIAN_POINT('',(1.380181243195E1,9.724708038142E0,6.614173228346E-3));
#1144=CARTESIAN_POINT('',(1.380218047540E1,9.726176952425E0,6.614173228346E-3));
#1145=CARTESIAN_POINT('',(1.380269027783E1,9.727576921984E0,6.614173228346E-3));
#1146=CARTESIAN_POINT('',(1.380334990545E1,9.728909950724E0,6.614173228346E-3));
#1147=CARTESIAN_POINT('',(1.380415198639E1,9.730170685276E0,6.614173228346E-3));
#1148=CARTESIAN_POINT('',(1.380511743061E1,9.731350781717E0,6.614173228346E-3));
#1149=CARTESIAN_POINT('',(1.380619563392E1,9.732464016567E0,6.614173228346E-3));
#1150=CARTESIAN_POINT('',(1.380739122614E1,9.733476160724E0,6.614173228346E-3));
#1151=CARTESIAN_POINT('',(1.380866927424E1,9.734367353339E0,6.614173228346E-3));
#1152=CARTESIAN_POINT('',(1.381002843217E1,9.735115997244E0,6.614173228346E-3));
#1153=CARTESIAN_POINT('',(1.381146044707E1,9.735717194787E0,6.614173228346E-3));
#1154=CARTESIAN_POINT('',(1.381295865926E1,9.736212990094E0,6.614173228346E-3));
#1155=CARTESIAN_POINT('',(1.381454332748E1,9.736530625417E0,6.614173228346E-3));
#1156=CARTESIAN_POINT('',(1.381630987626E1,9.736775512558E0,6.614173228346E-3));
#1157=CARTESIAN_POINT('',(1.381755670971E1,9.736777308283E0,6.614173228346E-3));
#1158=CARTESIAN_POINT('',(1.381824795384E1,9.736788818838E0,6.614173228346E-3));
#1160=CURVE_STYLE('',#677,POSITIVE_LENGTH_MEASURE(2.E-2),#14);
#1161=PRESENTATION_STYLE_ASSIGNMENT((#1160));
#1162=STYLED_ITEM('',(#1161),#1159);
#1163=DIRECTION('',(0.E0,0.E0,-1.E0));
#1164=VECTOR('',#1163,1.E0);
#1165=SURFACE_OF_LINEAR_EXTRUSION('',#1159,#1164);
#1166=ORIENTED_EDGE('',*,*,#650,.T.);
#1167=ORIENTED_EDGE('',*,*,#1128,.F.);
#1168=ORIENTED_EDGE('',*,*,#551,.T.);
#1170=ORIENTED_EDGE('',*,*,#1169,.T.);
#1171=EDGE_LOOP('',(#1166,#1167,#1168,#1170));
#1172=FACE_OUTER_BOUND('',#1171,.F.);
#1174=FILL_AREA_STYLE_COLOUR('',#14);
#1175=FILL_AREA_STYLE('',(#1174));
#1176=SURFACE_STYLE_FILL_AREA(#1175);
#1177=SURFACE_SIDE_STYLE('',(#1176));
#1178=SURFACE_STYLE_USAGE(.BOTH.,#1177);
#1179=PRESENTATION_STYLE_ASSIGNMENT((#1178));
#1180=STYLED_ITEM('',(#1179),#1173);
#1181=CARTESIAN_POINT('',(1.381755245461E1,9.736795608218E0,6.614173228346E-3));
#1182=CARTESIAN_POINT('',(1.381840612690E1,9.736765000507E0,6.614173228346E-3));
#1183=CARTESIAN_POINT('',(1.382000713787E1,9.736731804832E0,6.614173228346E-3));
#1184=CARTESIAN_POINT('',(1.382233298183E1,9.736257089953E0,6.614173228346E-3));
#1185=CARTESIAN_POINT('',(1.382453751468E1,9.735557501717E0,6.614173228346E-3));
#1186=CARTESIAN_POINT('',(1.382674406329E1,9.734580771307E0,6.614173228346E-3));
#1187=CARTESIAN_POINT('',(1.382893812208E1,9.733310378646E0,6.614173228346E-3));
#1188=CARTESIAN_POINT('',(1.383113751907E1,9.731778246945E0,6.614173228346E-3));
#1189=CARTESIAN_POINT('',(1.383340827379E1,9.729878152165E0,6.614173228346E-3));
#1190=CARTESIAN_POINT('',(1.383487328614E1,9.728420311421E0,6.614173228346E-3));
#1191=CARTESIAN_POINT('',(1.383567248282E1,9.727633560713E0,6.614173228346E-3));
#1193=CURVE_STYLE('',#677,POSITIVE_LENGTH_MEASURE(2.E-2),#14);
#1194=PRESENTATION_STYLE_ASSIGNMENT((#1193));
#1195=STYLED_ITEM('',(#1194),#1192);
#1196=DIRECTION('',(0.E0,0.E0,-1.E0));
#1197=VECTOR('',#1196,1.E0);
#1198=SURFACE_OF_LINEAR_EXTRUSION('',#1192,#1197);
#1199=ORIENTED_EDGE('',*,*,#652,.T.);
#1200=ORIENTED_EDGE('',*,*,#1169,.F.);
#1201=ORIENTED_EDGE('',*,*,#549,.T.);
#1202=ORIENTED_EDGE('',*,*,#600,.F.);
#1203=EDGE_LOOP('',(#1199,#1200,#1201,#1202));
#1204=FACE_OUTER_BOUND('',#1203,.F.);
#1206=FILL_AREA_STYLE_COLOUR('',#14);
#1207=FILL_AREA_STYLE('',(#1206));
#1208=SURFACE_STYLE_FILL_AREA(#1207);
#1209=SURFACE_SIDE_STYLE('',(#1208));
#1210=SURFACE_STYLE_USAGE(.BOTH.,#1209);
#1211=PRESENTATION_STYLE_ASSIGNMENT((#1210));
#1212=STYLED_ITEM('',(#1211),#1205);
#1215=PRESENTATION_LAYER_ASSIGNMENT('SHELL_352','',(#585,#607,#657,#676,#691,
#710,#724,#739,#753,#772,#786,#805,#819,#834,#848,#875,#889,#908,#922,#942,#961,
#975,#994,#1008,#1023,#1037,#1056,#1070,#1089,#1103,#1118,#1132,#1159,#1173,
#1192,#1205,#1214));
#1217=LENGTH_MEASURE_WITH_UNIT(LENGTH_MEASURE(2.54E1),#1216);
#1218=(CONVERSION_BASED_UNIT('INCH',#1217)LENGTH_UNIT()NAMED_UNIT(*));
#1220=PLANE_ANGLE_MEASURE_WITH_UNIT(PLANE_ANGLE_MEASURE(1.745329251994E-2),
#1219);
#1221=(CONVERSION_BASED_UNIT('DEGREE',#1220)NAMED_UNIT(*)PLANE_ANGLE_UNIT());
#1223=UNCERTAINTY_MEASURE_WITH_UNIT(LENGTH_MEASURE(5.797447893223E-5),#1218,
'closure',
'Maximum model space distance between geometric entities at asserted connectivities');
#1225=CARTESIAN_POINT('',(0.E0,0.E0,0.E0));
#1226=DIRECTION('',(0.E0,0.E0,1.E0));
#1227=DIRECTION('',(1.E0,0.E0,0.E0));
#1230=MECHANICAL_DESIGN_GEOMETRIC_PRESENTATION_REPRESENTATION('',(#592,#614,
#664,#680,#698,#713,#731,#742,#760,#775,#793,#808,#826,#837,#855,#878,#896,#911,
#929,#949,#964,#982,#997,#1015,#1026,#1044,#1059,#1077,#1092,#1110,#1121,#1139,
#1162,#1180,#1195,#1212),#1224);
#1231=APPLICATION_CONTEXT('automotive design');
#1232=APPLICATION_PROTOCOL_DEFINITION('international standard',
'config_control_design',1994,#1231);
#1233=PRODUCT_DEFINITION_CONTEXT('',#1231,'design');
#1234=PRODUCT_CONTEXT('',#1231,'mechanical');
#1235=PRODUCT('NO_10LOGO-364','NO_10LOGO-364','NOT SPECIFIED',(#1234));
#1236=PRODUCT_DEFINITION_FORMATION_WITH_SPECIFIED_SOURCE('1','LAST_VERSION',
#1235,.MADE.);
#1244=LENGTH_MEASURE_WITH_UNIT(LENGTH_MEASURE(2.54E1),#1243);
#1245=(CONVERSION_BASED_UNIT('INCH',#1244)LENGTH_UNIT()NAMED_UNIT(*));
#1246=DERIVED_UNIT_ELEMENT(#1245,2.E0);
#1247=AREA_UNIT((#1246));
#1248=MEASURE_REPRESENTATION_ITEM('surface area measure',AREA_MEASURE(
2.357523280709E-6),#1247);
#1253=LENGTH_MEASURE_WITH_UNIT(LENGTH_MEASURE(2.54E1),#1252);
#1254=(CONVERSION_BASED_UNIT('INCH',#1253)LENGTH_UNIT()NAMED_UNIT(*));
#1255=DERIVED_UNIT_ELEMENT(#1254,2.E0);
#1256=AREA_UNIT((#1255));
#1257=MEASURE_REPRESENTATION_ITEM('surface area measure',AREA_MEASURE(
2.357523280709E-6),#1256);
#1=DRAUGHTING_PRE_DEFINED_COLOUR('green');
#2=COLOUR_RGB('',1.1E-2,1.2E-2,1.E0);
#3=COLOUR_RGB('',2.352941176471E-1,2.352941176471E-1,2.352941176471E-1);
#4=COLOUR_RGB('',4.1E-1,2.61589E-1,1.12848E-1);
#5=COLOUR_RGB('',5.04854E-1,1.5455E-2,1.5455E-2);
#6=COLOUR_RGB('',6.35294E-1,6.86275E-1,7.4902E-1);
#7=COLOUR_RGB('',6.40777E-1,6.40777E-1,6.40777E-1);
#8=COLOUR_RGB('',6.69062E-1,6.69903E-1,6.55217E-1);
#9=COLOUR_RGB('',9.21569E-1,7.05882E-1,4.70588E-1);
#10=DRAUGHTING_PRE_DEFINED_COLOUR('red');
#11=DRAUGHTING_PRE_DEFINED_COLOUR('yellow');
#12=COLOUR_RGB('',1.E0,1.E0,5.3E-1);
#13=COLOUR_RGB('',1.E0,1.E0,9.49E-1);
#14=DRAUGHTING_PRE_DEFINED_COLOUR('white');
#30=B_SPLINE_CURVE_WITH_KNOTS('',3,(#19,#20,#21,#22,#23,#24,#25,#26,#27,#28,
#29),.UNSPECIFIED.,.F.,.F.,(4,1,1,1,1,1,1,1,4),(0.E0,1.09550173E-1,
2.20150014E-1,3.34077282E-1,4.52778476E-1,5.77904505E-1,7.10245624E-1,
8.50628063E-1,1.E0),.UNSPECIFIED.);
#50=B_SPLINE_CURVE_WITH_KNOTS('',3,(#31,#32,#33,#34,#35,#36,#37,#38,#39,#40,#41,
#42,#43,#44,#45,#46,#47,#48,#49),.UNSPECIFIED.,.F.,.F.,(4,1,1,1,1,1,1,1,1,1,1,1,
1,1,1,1,4),(0.E0,6.430548299999E-2,1.26094822E-1,1.86059462E-1,2.46063893E-1,
3.04872226E-1,3.64548352E-1,4.25306897E-1,4.87872859E-1,5.50643908E-1,
6.13344718E-1,6.74910791E-1,7.3681591E-1,7.99864224E-1,8.64280965E-1,
9.30875571E-1,1.E0),.UNSPECIFIED.);
#58=B_SPLINE_CURVE_WITH_KNOTS('',3,(#51,#52,#53,#54,#55,#56,#57),.UNSPECIFIED.,
.F.,.F.,(4,1,1,1,4),(0.E0,2.50134282E-1,4.96022281E-1,7.43077437E-1,1.E0),
.UNSPECIFIED.);
#70=B_SPLINE_CURVE_WITH_KNOTS('',3,(#59,#60,#61,#62,#63,#64,#65,#66,#67,#68,
#69),.UNSPECIFIED.,.F.,.F.,(4,1,1,1,1,1,1,1,4),(0.E0,1.5885771E-1,3.07136813E-1,
4.46154791E-1,5.7403351E-1,6.94254251E-1,8.04774969E-1,9.05401367E-1,1.E0),
.UNSPECIFIED.);
#82=B_SPLINE_CURVE_WITH_KNOTS('',3,(#71,#72,#73,#74,#75,#76,#77,#78,#79,#80,
#81),.UNSPECIFIED.,.F.,.F.,(4,1,1,1,1,1,1,1,4),(0.E0,7.535261699993E-2,
1.635741439999E-1,2.652167579999E-1,3.834396699999E-1,5.148814359999E-1,
6.611966699999E-1,8.230866399999E-1,1.E0),.UNSPECIFIED.);
#90=B_SPLINE_CURVE_WITH_KNOTS('',3,(#83,#84,#85,#86,#87,#88,#89),.UNSPECIFIED.,
.F.,.F.,(4,1,1,1,4),(0.E0,2.47415184E-1,4.91177926E-1,7.40580106E-1,1.E0),
.UNSPECIFIED.);
#102=B_SPLINE_CURVE_WITH_KNOTS('',3,(#91,#92,#93,#94,#95,#96,#97,#98,#99,#100,
#101),.UNSPECIFIED.,.F.,.F.,(4,1,1,1,1,1,1,1,4),(0.E0,1.43079986E-1,
2.77148523E-1,4.07839711E-1,5.38302635E-1,6.64384485E-1,7.79363986E-1,
8.90101341E-1,1.E0),.UNSPECIFIED.);
#114=B_SPLINE_CURVE_WITH_KNOTS('',3,(#103,#104,#105,#106,#107,#108,#109,#110,
#111,#112,#113),.UNSPECIFIED.,.F.,.F.,(4,1,1,1,1,1,1,1,4),(0.E0,1.58226616E-1,
3.05037673E-1,4.40965257E-1,5.67681149E-1,6.86126445E-1,7.96359002E-1,
9.00821454E-1,1.E0),.UNSPECIFIED.);
#130=B_SPLINE_CURVE_WITH_KNOTS('',3,(#119,#120,#121,#122,#123,#124,#125,#126,
#127,#128,#129),.UNSPECIFIED.,.F.,.F.,(4,1,1,1,1,1,1,1,4),(0.E0,1.25081535E-1,
2.48539737E-1,3.7166642E-1,4.95763754E-1,6.20168825E-1,7.44274659E-1,
8.70263659E-1,1.E0),.UNSPECIFIED.);
#150=B_SPLINE_CURVE_WITH_KNOTS('',3,(#131,#132,#133,#134,#135,#136,#137,#138,
#139,#140,#141,#142,#143,#144,#145,#146,#147,#148,#149),.UNSPECIFIED.,.F.,.F.,
(4,1,1,1,1,1,1,1,1,1,1,1,1,1,1,1,4),(0.E0,5.776177900006E-2,1.140432150001E-1,
1.700103810001E-1,2.260175520001E-1,2.83069733E-1,3.41632977E-1,4.02470681E-1,
4.65702605E-1,5.29997104E-1,5.941281E-1,6.57561164E-1,7.22317759E-1,
7.88608303E-1,8.56577512E-1,9.26933039E-1,1.E0),.UNSPECIFIED.);
#158=B_SPLINE_CURVE_WITH_KNOTS('',3,(#151,#152,#153,#154,#155,#156,#157),
.UNSPECIFIED.,.F.,.F.,(4,1,1,1,4),(0.E0,2.65325109E-1,5.157710300001E-1,
7.584279230001E-1,1.E0),.UNSPECIFIED.);
#170=B_SPLINE_CURVE_WITH_KNOTS('',3,(#159,#160,#161,#162,#163,#164,#165,#166,
#167,#168,#169),.UNSPECIFIED.,.F.,.F.,(4,1,1,1,1,1,1,1,4),(0.E0,
1.659465819999E-1,3.209001719999E-1,4.62601392E-1,5.9274244E-1,7.10985698E-1,
8.17466001E-1,9.14358067E-1,1.E0),.UNSPECIFIED.);
#182=B_SPLINE_CURVE_WITH_KNOTS('',3,(#171,#172,#173,#174,#175,#176,#177,#178,
#179,#180,#181),.UNSPECIFIED.,.F.,.F.,(4,1,1,1,1,1,1,1,4),(0.E0,8.8773887E-2,
1.86495458E-1,2.96021486E-1,4.14392445E-1,5.43627848E-1,6.84900541E-1,
8.36525697E-1,1.E0),.UNSPECIFIED.);
#190=B_SPLINE_CURVE_WITH_KNOTS('',3,(#183,#184,#185,#186,#187,#188,#189),
.UNSPECIFIED.,.F.,.F.,(4,1,1,1,4),(0.E0,2.61739151E-1,5.11832167E-1,
7.526889729999E-1,1.E0),.UNSPECIFIED.);
#202=B_SPLINE_CURVE_WITH_KNOTS('',3,(#191,#192,#193,#194,#195,#196,#197,#198,
#199,#200,#201),.UNSPECIFIED.,.F.,.F.,(4,1,1,1,1,1,1,1,4),(0.E0,1.14015757E-1,
2.28162166E-1,3.4665459E-1,4.74407909E-1,6.03995333E-1,7.29532145E-1,
8.60729412E-1,1.E0),.UNSPECIFIED.);
#214=B_SPLINE_CURVE_WITH_KNOTS('',3,(#203,#204,#205,#206,#207,#208,#209,#210,
#211,#212,#213),.UNSPECIFIED.,.F.,.F.,(4,1,1,1,1,1,1,1,4),(0.E0,1.62279341E-1,
3.12306645E-1,4.50624985E-1,5.77927373E-1,6.95102443E-1,8.03288671E-1,
9.05114402E-1,1.E0),.UNSPECIFIED.);
#226=B_SPLINE_CURVE_WITH_KNOTS('',3,(#215,#216,#217,#218,#219,#220,#221,#222,
#223,#224,#225),.UNSPECIFIED.,.F.,.F.,(4,1,1,1,1,1,1,1,4),(0.E0,9.4885598E-2,
1.96711329E-1,3.04897557E-1,4.22072627E-1,5.49375015E-1,6.87693355E-1,
8.37720659E-1,1.E0),.UNSPECIFIED.);
#238=B_SPLINE_CURVE_WITH_KNOTS('',3,(#227,#228,#229,#230,#231,#232,#233,#234,
#235,#236,#237),.UNSPECIFIED.,.F.,.F.,(4,1,1,1,1,1,1,1,4),(0.E0,1.39270588E-1,
2.70467855E-1,3.96004667E-1,5.25592091E-1,6.5334541E-1,7.71837834E-1,
8.85984243E-1,1.E0),.UNSPECIFIED.);
#246=B_SPLINE_CURVE_WITH_KNOTS('',3,(#239,#240,#241,#242,#243,#244,#245),
.UNSPECIFIED.,.F.,.F.,(4,1,1,1,4),(0.E0,2.473110270001E-1,4.88167833E-1,
7.38260849E-1,1.E0),.UNSPECIFIED.);
#258=B_SPLINE_CURVE_WITH_KNOTS('',3,(#247,#248,#249,#250,#251,#252,#253,#254,
#255,#256,#257),.UNSPECIFIED.,.F.,.F.,(4,1,1,1,1,1,1,1,4),(0.E0,8.8773887E-2,
1.86495458E-1,2.96021486E-1,4.14392445E-1,5.43627848E-1,6.84900541E-1,
8.36525697E-1,1.E0),.UNSPECIFIED.);
#270=B_SPLINE_CURVE_WITH_KNOTS('',3,(#259,#260,#261,#262,#263,#264,#265,#266,
#267,#268,#269),.UNSPECIFIED.,.F.,.F.,(4,1,1,1,1,1,1,1,4),(0.E0,
8.564193300001E-2,1.82533999E-1,2.89014302E-1,4.0725756E-1,5.37398608E-1,
6.790998280001E-1,8.340534180001E-1,1.E0),.UNSPECIFIED.);
#278=B_SPLINE_CURVE_WITH_KNOTS('',3,(#271,#272,#273,#274,#275,#276,#277),
.UNSPECIFIED.,.F.,.F.,(4,1,1,1,4),(0.E0,2.415720769999E-1,4.842289699999E-1,
7.34674891E-1,1.E0),.UNSPECIFIED.);
#298=B_SPLINE_CURVE_WITH_KNOTS('',3,(#279,#280,#281,#282,#283,#284,#285,#286,
#287,#288,#289,#290,#291,#292,#293,#294,#295,#296,#297),.UNSPECIFIED.,.F.,.F.,
(4,1,1,1,1,1,1,1,1,1,1,1,1,1,1,1,4),(0.E0,7.3066961E-2,1.43422488E-1,
2.11391697E-1,2.77682241E-1,3.42438836E-1,4.058719E-1,4.70002896E-1,
5.34297395E-1,5.97529319E-1,6.58367023E-1,7.16930267E-1,7.739824479999E-1,
8.299896189999E-1,8.859567849999E-1,9.422382209999E-1,1.E0),.UNSPECIFIED.);
#310=B_SPLINE_CURVE_WITH_KNOTS('',3,(#299,#300,#301,#302,#303,#304,#305,#306,
#307,#308,#309),.UNSPECIFIED.,.F.,.F.,(4,1,1,1,1,1,1,1,4),(0.E0,1.29736341E-1,
2.55725341E-1,3.79831175E-1,5.04236246E-1,6.2833358E-1,7.51460263E-1,
8.74918465E-1,1.E0),.UNSPECIFIED.);
#326=B_SPLINE_CURVE_WITH_KNOTS('',3,(#315,#316,#317,#318,#319,#320,#321,#322,
#323,#324,#325),.UNSPECIFIED.,.F.,.F.,(4,1,1,1,1,1,1,1,4),(0.E0,9.9178546E-2,
2.03640998E-1,3.13873555E-1,4.32318851E-1,5.59034743E-1,6.94962327E-1,
8.41773384E-1,1.E0),.UNSPECIFIED.);
#338=B_SPLINE_CURVE_WITH_KNOTS('',3,(#327,#328,#329,#330,#331,#332,#333,#334,
#335,#336,#337),.UNSPECIFIED.,.F.,.F.,(4,1,1,1,1,1,1,1,4),(0.E0,1.09898659E-1,
2.20636014E-1,3.35615515E-1,4.61697365E-1,5.92160289E-1,7.22851477E-1,
8.56920014E-1,1.E0),.UNSPECIFIED.);
#346=B_SPLINE_CURVE_WITH_KNOTS('',3,(#339,#340,#341,#342,#343,#344,#345),
.UNSPECIFIED.,.F.,.F.,(4,1,1,1,4),(0.E0,2.59419894E-1,5.08822074E-1,
7.52584816E-1,1.E0),.UNSPECIFIED.);
#358=B_SPLINE_CURVE_WITH_KNOTS('',3,(#347,#348,#349,#350,#351,#352,#353,#354,
#355,#356,#357),.UNSPECIFIED.,.F.,.F.,(4,1,1,1,1,1,1,1,4),(0.E0,
7.535261699993E-2,1.635741439999E-1,2.652167579999E-1,3.834396699999E-1,
5.148814359999E-1,6.611966699999E-1,8.230866399999E-1,1.E0),.UNSPECIFIED.);
#370=B_SPLINE_CURVE_WITH_KNOTS('',3,(#359,#360,#361,#362,#363,#364,#365,#366,
#367,#368,#369),.UNSPECIFIED.,.F.,.F.,(4,1,1,1,1,1,1,1,4),(0.E0,9.4598633E-2,
1.95225031E-1,3.05745749E-1,4.2596649E-1,5.53845209E-1,6.92863187E-1,
8.4114229E-1,1.E0),.UNSPECIFIED.);
#378=B_SPLINE_CURVE_WITH_KNOTS('',3,(#371,#372,#373,#374,#375,#376,#377),
.UNSPECIFIED.,.F.,.F.,(4,1,1,1,4),(0.E0,2.56922563E-1,5.03977719E-1,
7.49865718E-1,1.E0),.UNSPECIFIED.);
#398=B_SPLINE_CURVE_WITH_KNOTS('',3,(#379,#380,#381,#382,#383,#384,#385,#386,
#387,#388,#389,#390,#391,#392,#393,#394,#395,#396,#397),.UNSPECIFIED.,.F.,.F.,
(4,1,1,1,1,1,1,1,1,1,1,1,1,1,1,1,4),(0.E0,6.9124429E-2,1.35719035E-1,
2.00135776E-1,2.6318409E-1,3.25089209E-1,3.86655282E-1,4.49356092E-1,
5.12127141E-1,5.74693103E-1,6.35451648E-1,6.95127774E-1,7.53936107E-1,
8.13940538E-1,8.73905178E-1,9.35694517E-1,1.E0),.UNSPECIFIED.);
#410=B_SPLINE_CURVE_WITH_KNOTS('',3,(#399,#400,#401,#402,#403,#404,#405,#406,
#407,#408,#409),.UNSPECIFIED.,.F.,.F.,(4,1,1,1,1,1,1,1,4),(0.E0,1.49371937E-1,
2.89754376E-1,4.22095495E-1,5.47221524E-1,6.65922718E-1,7.79849986E-1,
8.90449827E-1,1.E0),.UNSPECIFIED.);
#547=EDGE_CURVE('',#492,#495,#18,.T.);
#549=EDGE_CURVE('',#491,#492,#30,.T.);
#551=EDGE_CURVE('',#496,#491,#50,.T.);
#553=EDGE_CURVE('',#521,#496,#58,.T.);
#555=EDGE_CURVE('',#520,#521,#70,.T.);
#557=EDGE_CURVE('',#519,#520,#82,.T.);
#559=EDGE_CURVE('',#518,#519,#90,.T.);
#561=EDGE_CURVE('',#508,#518,#102,.T.);
#563=EDGE_CURVE('',#503,#508,#114,.T.);
#565=EDGE_CURVE('',#502,#503,#118,.T.);
#567=EDGE_CURVE('',#517,#502,#130,.T.);
#569=EDGE_CURVE('',#516,#517,#150,.T.);
#571=EDGE_CURVE('',#515,#516,#158,.T.);
#573=EDGE_CURVE('',#514,#515,#170,.T.);
#575=EDGE_CURVE('',#513,#514,#182,.T.);
#577=EDGE_CURVE('',#512,#513,#190,.T.);
#579=EDGE_CURVE('',#499,#512,#202,.T.);
#581=EDGE_CURVE('',#495,#499,#214,.T.);
#585=ADVANCED_FACE('',(#584),#546,.F.);
#598=EDGE_CURVE('',#489,#490,#414,.T.);
#600=EDGE_CURVE('',#490,#492,#486,.T.);
#603=EDGE_CURVE('',#495,#489,#418,.T.);
#607=ADVANCED_FACE('',(#606),#597,.T.);
#620=EDGE_CURVE('',#493,#489,#226,.T.);
#622=EDGE_CURVE('',#510,#493,#238,.T.);
#624=EDGE_CURVE('',#527,#510,#246,.T.);
#626=EDGE_CURVE('',#527,#529,#258,.T.);
#628=EDGE_CURVE('',#531,#529,#270,.T.);
#630=EDGE_CURVE('',#533,#531,#278,.T.);
#632=EDGE_CURVE('',#535,#533,#298,.T.);
#634=EDGE_CURVE('',#537,#535,#310,.T.);
#636=EDGE_CURVE('',#505,#537,#314,.T.);
#638=EDGE_CURVE('',#509,#505,#326,.T.);
#640=EDGE_CURVE('',#539,#509,#338,.T.);
#642=EDGE_CURVE('',#541,#539,#346,.T.);
#644=EDGE_CURVE('',#541,#525,#358,.T.);
#646=EDGE_CURVE('',#524,#525,#370,.T.);
#648=EDGE_CURVE('',#523,#524,#378,.T.);
#650=EDGE_CURVE('',#497,#523,#398,.T.);
#652=EDGE_CURVE('',#490,#497,#410,.T.);
#657=ADVANCED_FACE('',(#656),#619,.T.);
#676=B_SPLINE_CURVE_WITH_KNOTS('',3,(#665,#666,#667,#668,#669,#670,#671,#672,
#673,#674,#675),.UNSPECIFIED.,.F.,.F.,(4,1,1,1,1,1,1,1,4),(0.E0,
1.801354876082E-1,3.222388637332E-1,4.532517031961E-1,5.738304154789E-1,
6.848166999800E-1,7.872889023002E-1,8.837365472668E-1,1.E0),.UNSPECIFIED.);
#687=EDGE_CURVE('',#499,#493,#422,.T.);
#691=ADVANCED_FACE('',(#690),#683,.T.);
#710=B_SPLINE_CURVE_WITH_KNOTS('',3,(#699,#700,#701,#702,#703,#704,#705,#706,
#707,#708,#709),.UNSPECIFIED.,.F.,.F.,(4,1,1,1,1,1,1,1,4),(0.E0,
1.400062163122E-1,2.464587049792E-1,3.569642700117E-1,4.761065090199E-1,
5.969592270825E-1,7.140343604467E-1,8.363884117112E-1,1.E0),.UNSPECIFIED.);
#720=EDGE_CURVE('',#512,#510,#426,.T.);
#724=ADVANCED_FACE('',(#723),#716,.T.);
#739=B_SPLINE_CURVE_WITH_KNOTS('',3,(#732,#733,#734,#735,#736,#737,#738),
.UNSPECIFIED.,.F.,.F.,(4,1,1,1,4),(0.E0,3.359296097099E-1,5.402159956363E-1,
7.369578607650E-1,1.E0),.UNSPECIFIED.);
#749=EDGE_CURVE('',#513,#527,#430,.T.);
#753=ADVANCED_FACE('',(#752),#745,.T.);
#772=B_SPLINE_CURVE_WITH_KNOTS('',3,(#761,#762,#763,#764,#765,#766,#767,#768,
#769,#770,#771),.UNSPECIFIED.,.F.,.F.,(4,1,1,1,1,1,1,1,4),(0.E0,
1.164499475027E-1,2.075938644778E-1,3.097476786304E-1,4.201510701125E-1,
5.406876181923E-1,6.724512244245E-1,8.138704677745E-1,1.E0),.UNSPECIFIED.);
#782=EDGE_CURVE('',#514,#529,#434,.T.);
#786=ADVANCED_FACE('',(#785),#778,.T.);
#805=B_SPLINE_CURVE_WITH_KNOTS('',3,(#794,#795,#796,#797,#798,#799,#800,#801,
#802,#803,#804),.UNSPECIFIED.,.F.,.F.,(4,1,1,1,1,1,1,1,4),(0.E0,
1.817450268688E-1,3.293751606231E-1,4.643792612815E-1,5.883695497490E-1,
7.010243646137E-1,8.024721682696E-1,8.947848966375E-1,1.E0),.UNSPECIFIED.);
#815=EDGE_CURVE('',#515,#531,#438,.T.);
#819=ADVANCED_FACE('',(#818),#811,.T.);
#834=B_SPLINE_CURVE_WITH_KNOTS('',3,(#827,#828,#829,#830,#831,#832,#833),
.UNSPECIFIED.,.F.,.F.,(4,1,1,1,4),(0.E0,2.810433447948E-1,5.147270805643E-1,
7.411431029937E-1,1.E0),.UNSPECIFIED.);
#844=EDGE_CURVE('',#516,#533,#442,.T.);
#848=ADVANCED_FACE('',(#847),#840,.T.);
#875=B_SPLINE_CURVE_WITH_KNOTS('',3,(#856,#857,#858,#859,#860,#861,#862,#863,
#864,#865,#866,#867,#868,#869,#870,#871,#872,#873,#874),.UNSPECIFIED.,.F.,.F.,
(4,1,1,1,1,1,1,1,1,1,1,1,1,1,1,1,4),(0.E0,6.826211025891E-2,1.232070165392E-1,
1.778451158700E-1,2.325222701917E-1,2.882196183925E-1,3.453921459921E-1,
4.047851214057E-1,4.665154606619E-1,5.292831416765E-1,5.918912024390E-1,
6.538179051719E-1,7.170367086741E-1,7.817530340954E-1,8.481081608276E-1,
9.167929370533E-1,1.E0),.UNSPECIFIED.);
#885=EDGE_CURVE('',#517,#535,#446,.T.);
#889=ADVANCED_FACE('',(#888),#881,.T.);
#908=B_SPLINE_CURVE_WITH_KNOTS('',3,(#897,#898,#899,#900,#901,#902,#903,#904,
#905,#906,#907),.UNSPECIFIED.,.F.,.F.,(4,1,1,1,1,1,1,1,4),(0.E0,
1.371960605527E-1,2.566665591880E-1,3.758162468962E-1,4.959052335501E-1,
6.162920172903E-1,7.363892293939E-1,8.583087811833E-1,1.E0),.UNSPECIFIED.);
#918=EDGE_CURVE('',#537,#502,#450,.T.);
#922=ADVANCED_FACE('',(#921),#914,.T.);
#938=EDGE_CURVE('',#503,#505,#454,.T.);
#942=ADVANCED_FACE('',(#941),#934,.T.);
#961=B_SPLINE_CURVE_WITH_KNOTS('',3,(#950,#951,#952,#953,#954,#955,#956,#957,
#958,#959,#960),.UNSPECIFIED.,.F.,.F.,(4,1,1,1,1,1,1,1,4),(0.E0,
1.754114931094E-1,3.148471821891E-1,4.439461528476E-1,5.642962005853E-1,
6.767911434289E-1,7.814859318079E-1,8.807004887713E-1,1.E0),.UNSPECIFIED.);
#971=EDGE_CURVE('',#508,#509,#458,.T.);
#975=ADVANCED_FACE('',(#974),#967,.T.);
#994=B_SPLINE_CURVE_WITH_KNOTS('',3,(#983,#984,#985,#986,#987,#988,#989,#990,
#991,#992,#993),.UNSPECIFIED.,.F.,.F.,(4,1,1,1,1,1,1,1,4),(0.E0,
1.604766080615E-1,2.880281684668E-1,4.123665504142E-1,5.364877641129E-1,
6.564408647146E-1,7.658312936352E-1,8.711857842672E-1,1.E0),.UNSPECIFIED.);
#1004=EDGE_CURVE('',#518,#539,#462,.T.);
#1008=ADVANCED_FACE('',(#1007),#1000,.T.);
#1023=B_SPLINE_CURVE_WITH_KNOTS('',3,(#1016,#1017,#1018,#1019,#1020,#1021,
#1022),.UNSPECIFIED.,.F.,.F.,(4,1,1,1,4),(0.E0,2.786694677993E-1,
4.922476668344E-1,7.107669860823E-1,1.E0),.UNSPECIFIED.);
#1033=EDGE_CURVE('',#519,#541,#466,.T.);
#1037=ADVANCED_FACE('',(#1036),#1029,.T.);
#1056=B_SPLINE_CURVE_WITH_KNOTS('',3,(#1045,#1046,#1047,#1048,#1049,#1050,#1051,
#1052,#1053,#1054,#1055),.UNSPECIFIED.,.F.,.F.,(4,1,1,1,1,1,1,1,4),(0.E0,
1.020608343520E-1,1.847310762103E-1,2.799778914519E-1,3.907616996741E-1,
5.139325736663E-1,6.510410118635E-1,8.027441554096E-1,1.E0),.UNSPECIFIED.);
#1066=EDGE_CURVE('',#520,#525,#470,.T.);
#1070=ADVANCED_FACE('',(#1069),#1062,.T.);
#1089=B_SPLINE_CURVE_WITH_KNOTS('',3,(#1078,#1079,#1080,#1081,#1082,#1083,#1084,
#1085,#1086,#1087,#1088),.UNSPECIFIED.,.F.,.F.,(4,1,1,1,1,1,1,1,4),(0.E0,
1.758427792418E-1,3.167430244555E-1,4.488430088297E-1,5.703580605138E-1,
6.845962204700E-1,7.896170626004E-1,8.852359587652E-1,1.E0),.UNSPECIFIED.);
#1099=EDGE_CURVE('',#521,#524,#474,.T.);
#1103=ADVANCED_FACE('',(#1102),#1095,.T.);
#1118=B_SPLINE_CURVE_WITH_KNOTS('',3,(#1111,#1112,#1113,#1114,#1115,#1116,
#1117),.UNSPECIFIED.,.F.,.F.,(4,1,1,1,4),(0.E0,2.670533183539E-1,
4.962931545190E-1,7.266211238202E-1,1.E0),.UNSPECIFIED.);
#1128=EDGE_CURVE('',#496,#523,#478,.T.);
#1132=ADVANCED_FACE('',(#1131),#1124,.T.);
#1159=B_SPLINE_CURVE_WITH_KNOTS('',3,(#1140,#1141,#1142,#1143,#1144,#1145,#1146,
#1147,#1148,#1149,#1150,#1151,#1152,#1153,#1154,#1155,#1156,#1157,#1158),
.UNSPECIFIED.,.F.,.F.,(4,1,1,1,1,1,1,1,1,1,1,1,1,1,1,1,4),(0.E0,
7.611938811400E-2,1.362337239491E-1,1.945728252492E-1,2.529506388835E-1,
3.101647786862E-1,3.682231871068E-1,4.273346720020E-1,4.882045779175E-1,
5.492740112757E-1,6.102751096928E-1,6.701722318868E-1,7.303992091244E-1,
7.917383913032E-1,8.544089047696E-1,9.191982450454E-1,1.E0),.UNSPECIFIED.);
#1169=EDGE_CURVE('',#491,#497,#482,.T.);
#1173=ADVANCED_FACE('',(#1172),#1165,.T.);
#1192=B_SPLINE_CURVE_WITH_KNOTS('',3,(#1181,#1182,#1183,#1184,#1185,#1186,#1187,
#1188,#1189,#1190,#1191),.UNSPECIFIED.,.F.,.F.,(4,1,1,1,1,1,1,1,4),(0.E0,
1.225364292708E-1,2.294548096328E-1,3.395898592269E-1,4.543399284383E-1,
5.753009735976E-1,7.032369450316E-1,8.389465705920E-1,1.E0),.UNSPECIFIED.);
#1205=ADVANCED_FACE('',(#1204),#1198,.T.);
#1213=CLOSED_SHELL('',(#585,#607,#657,#691,#724,#753,#786,#819,#848,#889,#922,
#942,#975,#1008,#1037,#1070,#1103,#1132,#1173,#1205));
#1214=MANIFOLD_SOLID_BREP('',#1213);
#1216=(LENGTH_UNIT()NAMED_UNIT(*)SI_UNIT(.MILLI.,.METRE.));
#1219=(NAMED_UNIT(*)PLANE_ANGLE_UNIT()SI_UNIT($,.RADIAN.));
#1222=(NAMED_UNIT(*)SI_UNIT($,.STERADIAN.)SOLID_ANGLE_UNIT());
#1224=(GEOMETRIC_REPRESENTATION_CONTEXT(3)GLOBAL_UNCERTAINTY_ASSIGNED_CONTEXT((
#1223))GLOBAL_UNIT_ASSIGNED_CONTEXT((#1218,#1221,#1222))REPRESENTATION_CONTEXT(
'ID1','3'));
#1228=AXIS2_PLACEMENT_3D('',#1225,#1226,#1227);
#1229=ADVANCED_BREP_SHAPE_REPRESENTATION('',(#1228,#1214),#1224);
#1237=PRODUCT_DEFINITION('design','',#1236,#1233);
#1238=PRODUCT_DEFINITION_SHAPE('','SHAPE FOR NO_10LOGO-364.',#1237);
#1239=SHAPE_ASPECT('','solid data associated with NO_10LOGO-364',#1238,.F.);
#1240=PROPERTY_DEFINITION('',
'shape for solid data with which properties are associated',#1239);
#1241=SHAPE_REPRESENTATION('',(#1214),#1224);
#1242=SHAPE_DEFINITION_REPRESENTATION(#1240,#1241);
#1243=(LENGTH_UNIT()NAMED_UNIT(*)SI_UNIT(.MILLI.,.METRE.));
#1249=PROPERTY_DEFINITION('geometric validation property',
'area of NO_10LOGO-364',#1239);
#1250=REPRESENTATION('surface area',(#1248),#1224);
#1251=PROPERTY_DEFINITION_REPRESENTATION(#1249,#1250);
#1252=(LENGTH_UNIT()NAMED_UNIT(*)SI_UNIT(.MILLI.,.METRE.));
#1258=PROPERTY_DEFINITION('geometric validation property',
'area of NO_10LOGO-364',#1238);
#1259=REPRESENTATION('surface area',(#1257),#1224);
#1260=PROPERTY_DEFINITION_REPRESENTATION(#1258,#1259);
#1261=SHAPE_DEFINITION_REPRESENTATION(#1238,#1229);
ENDSEC;
END-ISO-10303-21;
