ISO-10303-21;
HEADER;
FILE_DESCRIPTION((''),'2;1');
FILE_NAME('NO_10LOGO-136','2026-06-15T13:45:41',('Esia'),(''),
'CREO PARAMETRIC BY PTC INC, 2025102','CREO PARAMETRIC BY PTC INC, 2025102','');
FILE_SCHEMA((
'AP242_MANAGED_MODEL_BASED_3D_ENGINEERING_MIM_LF { 1 0 10303 442 1 1 4 }'));
ENDSEC;
DATA;
#15=DIRECTION('',(-1.E0,0.E0,0.E0));
#16=VECTOR('',#15,1.201396771654E-2);
#17=CARTESIAN_POINT('',(1.357828014468E1,9.763779831969E0,0.E0));
#18=LINE('',#17,#16);
#19=DIRECTION('',(2.755232006930E-1,-9.612944220580E-1,0.E0));
#20=VECTOR('',#19,1.198615379743E-1);
#21=CARTESIAN_POINT('',(1.354525551009E1,9.879002059843E0,0.E0));
#22=LINE('',#21,#20);
#23=DIRECTION('',(-9.448778049432E-1,3.274231722491E-1,0.E0));
#24=VECTOR('',#23,7.286335509570E-2);
#25=CARTESIAN_POINT('',(1.361410247712E1,9.855144908976E0,0.E0));
#26=LINE('',#25,#24);
#27=DIRECTION('',(-8.894079152881E-2,-9.960369147789E-1,0.E0));
#28=VECTOR('',#27,3.052596082673E-2);
#29=CARTESIAN_POINT('',(1.361681748024E1,9.885549892819E0,0.E0));
#30=LINE('',#29,#28);
#31=DIRECTION('',(9.685753979967E-1,-2.487201206084E-1,0.E0));
#32=VECTOR('',#31,1.062214814805E-1);
#33=CARTESIAN_POINT('',(1.351393396654E1,9.911969312504E0,0.E0));
#34=LINE('',#33,#32);
#35=DIRECTION('',(-3.329900887011E-1,9.429303266026E-1,0.E0));
#36=VECTOR('',#35,1.571584626717E-1);
#37=CARTESIAN_POINT('',(1.356626617696E1,9.763779831969E0,0.E0));
#38=LINE('',#37,#36);
#39=DIRECTION('',(0.E0,0.E0,-1.E0));
#40=VECTOR('',#39,6.614173228346E-3);
#41=CARTESIAN_POINT('',(1.356626617696E1,9.763779831969E0,6.614173228346E-3));
#42=LINE('',#41,#40);
#43=DIRECTION('',(-1.E0,0.E0,0.E0));
#44=VECTOR('',#43,1.201396771653E-2);
#45=CARTESIAN_POINT('',(1.357828014468E1,9.763779831969E0,6.614173228346E-3));
#46=LINE('',#45,#44);
#47=DIRECTION('',(0.E0,0.E0,-1.E0));
#48=VECTOR('',#47,6.614173228346E-3);
#49=CARTESIAN_POINT('',(1.357828014468E1,9.763779831969E0,6.614173228346E-3));
#50=LINE('',#49,#48);
#51=DIRECTION('',(0.E0,0.E0,-1.E0));
#52=VECTOR('',#51,6.614173228346E-3);
#53=CARTESIAN_POINT('',(1.354525551009E1,9.879002059843E0,6.614173228346E-3));
#54=LINE('',#53,#52);
#55=DIRECTION('',(0.E0,0.E0,1.E0));
#56=VECTOR('',#55,6.614173228346E-3);
#57=CARTESIAN_POINT('',(1.361681748024E1,9.885549892819E0,0.E0));
#58=LINE('',#57,#56);
#59=DIRECTION('',(0.E0,0.E0,-1.E0));
#60=VECTOR('',#59,6.614173228346E-3);
#61=CARTESIAN_POINT('',(1.361410247712E1,9.855144908976E0,6.614173228346E-3));
#62=LINE('',#61,#60);
#63=DIRECTION('',(0.E0,0.E0,-1.E0));
#64=VECTOR('',#63,6.614173228346E-3);
#65=CARTESIAN_POINT('',(1.351393396654E1,9.911969312504E0,6.614173228346E-3));
#66=LINE('',#65,#64);
#67=DIRECTION('',(3.329900887011E-1,-9.429303266026E-1,0.E0));
#68=VECTOR('',#67,1.571584626717E-1);
#69=CARTESIAN_POINT('',(1.351393396654E1,9.911969312504E0,6.614173228346E-3));
#70=LINE('',#69,#68);
#71=DIRECTION('',(-9.685753979967E-1,2.487201206084E-1,0.E0));
#72=VECTOR('',#71,1.062214814805E-1);
#73=CARTESIAN_POINT('',(1.361681748024E1,9.885549892819E0,6.614173228346E-3));
#74=LINE('',#73,#72);
#75=DIRECTION('',(8.894079152881E-2,9.960369147789E-1,0.E0));
#76=VECTOR('',#75,3.052596082673E-2);
#77=CARTESIAN_POINT('',(1.361410247712E1,9.855144908976E0,6.614173228346E-3));
#78=LINE('',#77,#76);
#79=DIRECTION('',(9.448778049432E-1,-3.274231722491E-1,0.E0));
#80=VECTOR('',#79,7.286335509570E-2);
#81=CARTESIAN_POINT('',(1.354525551009E1,9.879002059843E0,6.614173228346E-3));
#82=LINE('',#81,#80);
#83=DIRECTION('',(-2.755232006930E-1,9.612944220580E-1,0.E0));
#84=VECTOR('',#83,1.198615379743E-1);
#85=CARTESIAN_POINT('',(1.357828014468E1,9.763779831969E0,6.614173228346E-3));
#86=LINE('',#85,#84);
#87=CARTESIAN_POINT('',(1.361681748024E1,9.885549892819E0,6.614173228346E-3));
#88=CARTESIAN_POINT('',(1.351393396654E1,9.911969312504E0,6.614173228346E-3));
#89=VERTEX_POINT('',#87);
#90=VERTEX_POINT('',#88);
#91=CARTESIAN_POINT('',(1.361410247712E1,9.855144908976E0,6.614173228346E-3));
#92=VERTEX_POINT('',#91);
#93=CARTESIAN_POINT('',(1.356626617696E1,9.763779831969E0,6.614173228346E-3));
#94=VERTEX_POINT('',#93);
#95=CARTESIAN_POINT('',(1.351393396654E1,9.911969312504E0,0.E0));
#96=VERTEX_POINT('',#95);
#97=CARTESIAN_POINT('',(1.356626617696E1,9.763779831969E0,0.E0));
#98=VERTEX_POINT('',#97);
#99=CARTESIAN_POINT('',(1.361681748024E1,9.885549892819E0,0.E0));
#100=CARTESIAN_POINT('',(1.361410247712E1,9.855144908976E0,0.E0));
#101=VERTEX_POINT('',#99);
#102=VERTEX_POINT('',#100);
#103=CARTESIAN_POINT('',(1.354525551009E1,9.879002059843E0,0.E0));
#104=VERTEX_POINT('',#103);
#105=CARTESIAN_POINT('',(1.354525551009E1,9.879002059843E0,6.614173228346E-3));
#106=VERTEX_POINT('',#105);
#107=CARTESIAN_POINT('',(1.357828014468E1,9.763779831969E0,6.614173228346E-3));
#108=CARTESIAN_POINT('',(1.357828014468E1,9.763779831969E0,0.E0));
#109=VERTEX_POINT('',#107);
#110=VERTEX_POINT('',#108);
#111=CARTESIAN_POINT('',(1.361681748024E1,9.763779831969E0,0.E0));
#112=DIRECTION('',(0.E0,0.E0,-1.E0));
#113=DIRECTION('',(-1.E0,0.E0,0.E0));
#114=AXIS2_PLACEMENT_3D('',#111,#112,#113);
#115=PLANE('',#114);
#117=ORIENTED_EDGE('',*,*,#116,.F.);
#119=ORIENTED_EDGE('',*,*,#118,.F.);
#121=ORIENTED_EDGE('',*,*,#120,.F.);
#123=ORIENTED_EDGE('',*,*,#122,.F.);
#125=ORIENTED_EDGE('',*,*,#124,.F.);
#127=ORIENTED_EDGE('',*,*,#126,.F.);
#128=EDGE_LOOP('',(#117,#119,#121,#123,#125,#127));
#129=FACE_OUTER_BOUND('',#128,.F.);
#131=FILL_AREA_STYLE_COLOUR('',#14);
#132=FILL_AREA_STYLE('',(#131));
#133=SURFACE_STYLE_FILL_AREA(#132);
#134=SURFACE_SIDE_STYLE('',(#133));
#135=SURFACE_STYLE_USAGE(.BOTH.,#134);
#136=PRESENTATION_STYLE_ASSIGNMENT((#135));
#137=STYLED_ITEM('',(#136),#130);
#138=CARTESIAN_POINT('',(1.356626617696E1,9.763779831969E0,0.E0));
#139=DIRECTION('',(0.E0,1.E0,0.E0));
#140=DIRECTION('',(0.E0,0.E0,1.E0));
#141=AXIS2_PLACEMENT_3D('',#138,#139,#140);
#142=PLANE('',#141);
#144=ORIENTED_EDGE('',*,*,#143,.T.);
#145=ORIENTED_EDGE('',*,*,#116,.T.);
#147=ORIENTED_EDGE('',*,*,#146,.F.);
#149=ORIENTED_EDGE('',*,*,#148,.F.);
#150=EDGE_LOOP('',(#144,#145,#147,#149));
#151=FACE_OUTER_BOUND('',#150,.F.);
#153=FILL_AREA_STYLE_COLOUR('',#14);
#154=FILL_AREA_STYLE('',(#153));
#155=SURFACE_STYLE_FILL_AREA(#154);
#156=SURFACE_SIDE_STYLE('',(#155));
#157=SURFACE_STYLE_USAGE(.BOTH.,#156);
#158=PRESENTATION_STYLE_ASSIGNMENT((#157));
#159=STYLED_ITEM('',(#158),#152);
#160=CARTESIAN_POINT('',(1.354525551009E1,9.879002059843E0,0.E0));
#161=DIRECTION('',(-9.612944220580E-1,-2.755232006930E-1,0.E0));
#162=DIRECTION('',(2.755232006930E-1,-9.612944220580E-1,0.E0));
#163=AXIS2_PLACEMENT_3D('',#160,#161,#162);
#164=PLANE('',#163);
#166=ORIENTED_EDGE('',*,*,#165,.T.);
#167=ORIENTED_EDGE('',*,*,#118,.T.);
#168=ORIENTED_EDGE('',*,*,#143,.F.);
#170=ORIENTED_EDGE('',*,*,#169,.T.);
#171=EDGE_LOOP('',(#166,#167,#168,#170));
#172=FACE_OUTER_BOUND('',#171,.F.);
#174=FILL_AREA_STYLE_COLOUR('',#14);
#175=FILL_AREA_STYLE('',(#174));
#176=SURFACE_STYLE_FILL_AREA(#175);
#177=SURFACE_SIDE_STYLE('',(#176));
#178=SURFACE_STYLE_USAGE(.BOTH.,#177);
#179=PRESENTATION_STYLE_ASSIGNMENT((#178));
#180=STYLED_ITEM('',(#179),#173);
#181=CARTESIAN_POINT('',(1.361410247712E1,9.855144908976E0,0.E0));
#182=DIRECTION('',(3.274231722490E-1,9.448778049432E-1,0.E0));
#183=DIRECTION('',(-9.448778049432E-1,3.274231722490E-1,0.E0));
#184=AXIS2_PLACEMENT_3D('',#181,#182,#183);
#185=PLANE('',#184);
#187=ORIENTED_EDGE('',*,*,#186,.T.);
#188=ORIENTED_EDGE('',*,*,#120,.T.);
#189=ORIENTED_EDGE('',*,*,#165,.F.);
#191=ORIENTED_EDGE('',*,*,#190,.T.);
#192=EDGE_LOOP('',(#187,#188,#189,#191));
#193=FACE_OUTER_BOUND('',#192,.F.);
#195=FILL_AREA_STYLE_COLOUR('',#14);
#196=FILL_AREA_STYLE('',(#195));
#197=SURFACE_STYLE_FILL_AREA(#196);
#198=SURFACE_SIDE_STYLE('',(#197));
#199=SURFACE_STYLE_USAGE(.BOTH.,#198);
#200=PRESENTATION_STYLE_ASSIGNMENT((#199));
#201=STYLED_ITEM('',(#200),#194);
#202=CARTESIAN_POINT('',(1.361681748024E1,9.885549892819E0,0.E0));
#203=DIRECTION('',(-9.960369147789E-1,8.894079152883E-2,0.E0));
#204=DIRECTION('',(-8.894079152883E-2,-9.960369147789E-1,0.E0));
#205=AXIS2_PLACEMENT_3D('',#202,#203,#204);
#206=PLANE('',#205);
#208=ORIENTED_EDGE('',*,*,#207,.F.);
#209=ORIENTED_EDGE('',*,*,#122,.T.);
#210=ORIENTED_EDGE('',*,*,#186,.F.);
#212=ORIENTED_EDGE('',*,*,#211,.T.);
#213=EDGE_LOOP('',(#208,#209,#210,#212));
#214=FACE_OUTER_BOUND('',#213,.F.);
#216=FILL_AREA_STYLE_COLOUR('',#14);
#217=FILL_AREA_STYLE('',(#216));
#218=SURFACE_STYLE_FILL_AREA(#217);
#219=SURFACE_SIDE_STYLE('',(#218));
#220=SURFACE_STYLE_USAGE(.BOTH.,#219);
#221=PRESENTATION_STYLE_ASSIGNMENT((#220));
#222=STYLED_ITEM('',(#221),#215);
#223=CARTESIAN_POINT('',(1.351393396654E1,9.911969312504E0,0.E0));
#224=DIRECTION('',(-2.487201206084E-1,-9.685753979967E-1,0.E0));
#225=DIRECTION('',(9.685753979967E-1,-2.487201206084E-1,0.E0));
#226=AXIS2_PLACEMENT_3D('',#223,#224,#225);
#227=PLANE('',#226);
#229=ORIENTED_EDGE('',*,*,#228,.T.);
#230=ORIENTED_EDGE('',*,*,#124,.T.);
#231=ORIENTED_EDGE('',*,*,#207,.T.);
#233=ORIENTED_EDGE('',*,*,#232,.T.);
#234=EDGE_LOOP('',(#229,#230,#231,#233));
#235=FACE_OUTER_BOUND('',#234,.F.);
#237=FILL_AREA_STYLE_COLOUR('',#14);
#238=FILL_AREA_STYLE('',(#237));
#239=SURFACE_STYLE_FILL_AREA(#238);
#240=SURFACE_SIDE_STYLE('',(#239));
#241=SURFACE_STYLE_USAGE(.BOTH.,#240);
#242=PRESENTATION_STYLE_ASSIGNMENT((#241));
#243=STYLED_ITEM('',(#242),#236);
#244=CARTESIAN_POINT('',(1.356626617696E1,9.763779831969E0,0.E0));
#245=DIRECTION('',(9.429303266026E-1,3.329900887011E-1,0.E0));
#246=DIRECTION('',(-3.329900887011E-1,9.429303266026E-1,0.E0));
#247=AXIS2_PLACEMENT_3D('',#244,#245,#246);
#248=PLANE('',#247);
#249=ORIENTED_EDGE('',*,*,#146,.T.);
#250=ORIENTED_EDGE('',*,*,#126,.T.);
#251=ORIENTED_EDGE('',*,*,#228,.F.);
#253=ORIENTED_EDGE('',*,*,#252,.T.);
#254=EDGE_LOOP('',(#249,#250,#251,#253));
#255=FACE_OUTER_BOUND('',#254,.F.);
#257=FILL_AREA_STYLE_COLOUR('',#14);
#258=FILL_AREA_STYLE('',(#257));
#259=SURFACE_STYLE_FILL_AREA(#258);
#260=SURFACE_SIDE_STYLE('',(#259));
#261=SURFACE_STYLE_USAGE(.BOTH.,#260);
#262=PRESENTATION_STYLE_ASSIGNMENT((#261));
#263=STYLED_ITEM('',(#262),#256);
#264=CARTESIAN_POINT('',(1.361681748024E1,9.763779831969E0,6.614173228346E-3));
#265=DIRECTION('',(0.E0,0.E0,-1.E0));
#266=DIRECTION('',(-1.E0,0.E0,0.E0));
#267=AXIS2_PLACEMENT_3D('',#264,#265,#266);
#268=PLANE('',#267);
#269=ORIENTED_EDGE('',*,*,#252,.F.);
#270=ORIENTED_EDGE('',*,*,#232,.F.);
#271=ORIENTED_EDGE('',*,*,#211,.F.);
#272=ORIENTED_EDGE('',*,*,#190,.F.);
#273=ORIENTED_EDGE('',*,*,#169,.F.);
#274=ORIENTED_EDGE('',*,*,#148,.T.);
#275=EDGE_LOOP('',(#269,#270,#271,#272,#273,#274));
#276=FACE_OUTER_BOUND('',#275,.F.);
#278=FILL_AREA_STYLE_COLOUR('',#14);
#279=FILL_AREA_STYLE('',(#278));
#280=SURFACE_STYLE_FILL_AREA(#279);
#281=SURFACE_SIDE_STYLE('',(#280));
#282=SURFACE_STYLE_USAGE(.BOTH.,#281);
#283=PRESENTATION_STYLE_ASSIGNMENT((#282));
#284=STYLED_ITEM('',(#283),#277);
#287=PRESENTATION_LAYER_ASSIGNMENT('SHELL_360','',(#130,#152,#173,#194,#215,
#236,#256,#277,#286));
#289=LENGTH_MEASURE_WITH_UNIT(LENGTH_MEASURE(2.54E1),#288);
#290=(CONVERSION_BASED_UNIT('INCH',#289)LENGTH_UNIT()NAMED_UNIT(*));
#292=PLANE_ANGLE_MEASURE_WITH_UNIT(PLANE_ANGLE_MEASURE(1.745329251994E-2),#291);
#293=(CONVERSION_BASED_UNIT('DEGREE',#292)NAMED_UNIT(*)PLANE_ANGLE_UNIT());
#295=UNCERTAINTY_MEASURE_WITH_UNIT(LENGTH_MEASURE(1.102474662876E-4),#290,
'closure',
'Maximum model space distance between geometric entities at asserted connectivities');
#297=CARTESIAN_POINT('',(0.E0,0.E0,0.E0));
#298=DIRECTION('',(0.E0,0.E0,1.E0));
#299=DIRECTION('',(1.E0,0.E0,0.E0));
#302=MECHANICAL_DESIGN_GEOMETRIC_PRESENTATION_REPRESENTATION('',(#137,#159,#180,
#201,#222,#243,#263,#284),#296);
#303=APPLICATION_CONTEXT('automotive design');
#304=APPLICATION_PROTOCOL_DEFINITION('international standard',
'config_control_design',1994,#303);
#305=PRODUCT_DEFINITION_CONTEXT('',#303,'design');
#306=PRODUCT_CONTEXT('',#303,'mechanical');
#307=PRODUCT('NO_10LOGO-136','NO_10LOGO-136','NOT SPECIFIED',(#306));
#308=PRODUCT_DEFINITION_FORMATION_WITH_SPECIFIED_SOURCE('1','LAST_VERSION',#307,
.MADE.);
#316=LENGTH_MEASURE_WITH_UNIT(LENGTH_MEASURE(2.54E1),#315);
#317=(CONVERSION_BASED_UNIT('INCH',#316)LENGTH_UNIT()NAMED_UNIT(*));
#318=DERIVED_UNIT_ELEMENT(#317,2.E0);
#319=AREA_UNIT((#318));
#320=MEASURE_REPRESENTATION_ITEM('surface area measure',AREA_MEASURE(
7.949033132613E-6),#319);
#325=LENGTH_MEASURE_WITH_UNIT(LENGTH_MEASURE(2.54E1),#324);
#326=(CONVERSION_BASED_UNIT('INCH',#325)LENGTH_UNIT()NAMED_UNIT(*));
#327=DERIVED_UNIT_ELEMENT(#326,2.E0);
#328=AREA_UNIT((#327));
#329=MEASURE_REPRESENTATION_ITEM('surface area measure',AREA_MEASURE(
7.949033132613E-6),#328);
#1=DRAUGHTING_PRE_DEFINED_COLOUR('green');
#2=COLOUR_RGB('',1.1E-2,1.2E-2,1.E0);
#3=COLOUR_RGB('',2.352941176471E-1,2.352941176471E-1,2.352941176471E-1);
#4=COLOUR_RGB('',4.1E-1,2.61589E-1,1.12848E-1);
#5=COLOUR_RGB('',5.04854E-1,1.5455E-2,1.5455E-2);
#6=COLOUR_RGB('',6.35294E-1,6.86275E-1,7.4902E-1);
#7=COLOUR_RGB('',6.40777E-1,6.40777E-1,6.40777E-1);
#8=COLOUR_RGB('',6.69062E-1,6.69903E-1,6.55217E-1);
#9=COLOUR_RGB('',9.21569E-1,7.05882E-1,4.70588E-1);
#10=DRAUGHTING_PRE_DEFINED_COLOUR('red');
#11=DRAUGHTING_PRE_DEFINED_COLOUR('yellow');
#12=COLOUR_RGB('',1.E0,1.E0,5.3E-1);
#13=COLOUR_RGB('',1.E0,1.E0,9.49E-1);
#14=DRAUGHTING_PRE_DEFINED_COLOUR('white');
#116=EDGE_CURVE('',#110,#98,#18,.T.);
#118=EDGE_CURVE('',#104,#110,#22,.T.);
#120=EDGE_CURVE('',#102,#104,#26,.T.);
#122=EDGE_CURVE('',#101,#102,#30,.T.);
#124=EDGE_CURVE('',#96,#101,#34,.T.);
#126=EDGE_CURVE('',#98,#96,#38,.T.);
#130=ADVANCED_FACE('',(#129),#115,.T.);
#143=EDGE_CURVE('',#109,#110,#50,.T.);
#146=EDGE_CURVE('',#94,#98,#42,.T.);
#148=EDGE_CURVE('',#109,#94,#46,.T.);
#152=ADVANCED_FACE('',(#151),#142,.F.);
#165=EDGE_CURVE('',#106,#104,#54,.T.);
#169=EDGE_CURVE('',#109,#106,#86,.T.);
#173=ADVANCED_FACE('',(#172),#164,.F.);
#186=EDGE_CURVE('',#92,#102,#62,.T.);
#190=EDGE_CURVE('',#106,#92,#82,.T.);
#194=ADVANCED_FACE('',(#193),#185,.F.);
#207=EDGE_CURVE('',#101,#89,#58,.T.);
#211=EDGE_CURVE('',#92,#89,#78,.T.);
#215=ADVANCED_FACE('',(#214),#206,.F.);
#228=EDGE_CURVE('',#90,#96,#66,.T.);
#232=EDGE_CURVE('',#89,#90,#74,.T.);
#236=ADVANCED_FACE('',(#235),#227,.F.);
#252=EDGE_CURVE('',#90,#94,#70,.T.);
#256=ADVANCED_FACE('',(#255),#248,.F.);
#277=ADVANCED_FACE('',(#276),#268,.F.);
#285=CLOSED_SHELL('',(#130,#152,#173,#194,#215,#236,#256,#277));
#286=MANIFOLD_SOLID_BREP('',#285);
#288=(LENGTH_UNIT()NAMED_UNIT(*)SI_UNIT(.MILLI.,.METRE.));
#291=(NAMED_UNIT(*)PLANE_ANGLE_UNIT()SI_UNIT($,.RADIAN.));
#294=(NAMED_UNIT(*)SI_UNIT($,.STERADIAN.)SOLID_ANGLE_UNIT());
#296=(GEOMETRIC_REPRESENTATION_CONTEXT(3)GLOBAL_UNCERTAINTY_ASSIGNED_CONTEXT((
#295))GLOBAL_UNIT_ASSIGNED_CONTEXT((#290,#293,#294))REPRESENTATION_CONTEXT
('ID1','3'));
#300=AXIS2_PLACEMENT_3D('',#297,#298,#299);
#301=ADVANCED_BREP_SHAPE_REPRESENTATION('',(#300,#286),#296);
#309=PRODUCT_DEFINITION('design','',#308,#305);
#310=PRODUCT_DEFINITION_SHAPE('','SHAPE FOR NO_10LOGO-136.',#309);
#311=SHAPE_ASPECT('','solid data associated with NO_10LOGO-136',#310,.F.);
#312=PROPERTY_DEFINITION('',
'shape for solid data with which properties are associated',#311);
#313=SHAPE_REPRESENTATION('',(#286),#296);
#314=SHAPE_DEFINITION_REPRESENTATION(#312,#313);
#315=(LENGTH_UNIT()NAMED_UNIT(*)SI_UNIT(.MILLI.,.METRE.));
#321=PROPERTY_DEFINITION('geometric validation property',
'area of NO_10LOGO-136',#311);
#322=REPRESENTATION('surface area',(#320),#296);
#323=PROPERTY_DEFINITION_REPRESENTATION(#321,#322);
#324=(LENGTH_UNIT()NAMED_UNIT(*)SI_UNIT(.MILLI.,.METRE.));
#330=PROPERTY_DEFINITION('geometric validation property',
'area of NO_10LOGO-136',#310);
#331=REPRESENTATION('surface area',(#329),#296);
#332=PROPERTY_DEFINITION_REPRESENTATION(#330,#331);
#333=SHAPE_DEFINITION_REPRESENTATION(#310,#301);
ENDSEC;
END-ISO-10303-21;
