ISO-10303-21;
HEADER;
FILE_DESCRIPTION((''),'2;1');
FILE_NAME('NO_10LOGO-76','2026-06-15T13:45:41',('Esia'),(''),
'CREO PARAMETRIC BY PTC INC, 2025102','CREO PARAMETRIC BY PTC INC, 2025102','');
FILE_SCHEMA((
'AP242_MANAGED_MODEL_BASED_3D_ENGINEERING_MIM_LF { 1 0 10303 442 1 1 4 }'));
ENDSEC;
DATA;
#15=DIRECTION('',(-5.953421698931E-2,9.982262654366E-1,0.E0));
#16=VECTOR('',#15,1.917439430481E-1);
#17=CARTESIAN_POINT('',(1.368935241203E1,9.779472521197E0,6.614173228346E-3));
#18=LINE('',#17,#16);
#19=DIRECTION('',(-9.997482462027E-1,-2.243756258076E-2,0.E0));
#20=VECTOR('',#19,1.229062297006E-1);
#21=CARTESIAN_POINT('',(1.381222769962E1,9.782230237417E0,6.614173228346E-3));
#22=LINE('',#21,#20);
#23=DIRECTION('',(-6.502827340791E-2,-9.978834218773E-1,0.E0));
#24=VECTOR('',#23,1.479674676971E-1);
#25=CARTESIAN_POINT('',(1.382184976857E1,9.929884520409E0,6.614173228346E-3));
#26=LINE('',#25,#24);
#27=DIRECTION('',(9.617461777718E-1,-2.739421280879E-1,0.E0));
#28=VECTOR('',#27,1.496368640431E-1);
#29=CARTESIAN_POINT('',(1.367793708652E1,9.970876361386E0,6.614173228346E-3));
#30=LINE('',#29,#28);
#31=DIRECTION('',(1.243434772189E-1,9.922392351006E-1,0.E0));
#32=VECTOR('',#31,1.889584376005E-1);
#33=CARTESIAN_POINT('',(1.381953184677E1,9.764201212819E0,6.614173228346E-3));
#34=LINE('',#33,#32);
#35=DIRECTION('',(9.998525598006E-1,-1.717144898053E-2,0.E0));
#36=VECTOR('',#35,1.428607719404E-1);
#37=CARTESIAN_POINT('',(1.367669213825E1,9.766654339276E0,6.614173228346E-3));
#38=LINE('',#37,#36);
#39=DIRECTION('',(8.327678431934E-2,-9.965264558422E-1,0.E0));
#40=VECTOR('',#39,2.237663282063E-1);
#41=CARTESIAN_POINT('',(1.365805759800E1,9.989643405260E0,6.614173228346E-3));
#42=LINE('',#41,#40);
#43=DIRECTION('',(-9.795947215447E-1,2.009830378958E-1,0.E0));
#44=VECTOR('',#43,1.888229835100E-1);
#45=CARTESIAN_POINT('',(1.384302759595E1,9.951693188409E0,6.614173228346E-3));
#46=LINE('',#45,#44);
#47=DIRECTION('',(0.E0,0.E0,1.E0));
#48=VECTOR('',#47,6.614173228346E-3);
#49=CARTESIAN_POINT('',(1.367793708652E1,9.970876361386E0,0.E0));
#50=LINE('',#49,#48);
#51=DIRECTION('',(0.E0,0.E0,-1.E0));
#52=VECTOR('',#51,6.614173228346E-3);
#53=CARTESIAN_POINT('',(1.368935241203E1,9.779472521197E0,6.614173228346E-3));
#54=LINE('',#53,#52);
#55=DIRECTION('',(0.E0,2.685682364331E-13,-1.E0));
#56=VECTOR('',#55,6.614173228346E-3);
#57=CARTESIAN_POINT('',(1.382184976857E1,9.929884520409E0,6.614173228346E-3));
#58=LINE('',#57,#56);
#59=DIRECTION('',(0.E0,0.E0,-1.E0));
#60=VECTOR('',#59,6.614173228346E-3);
#61=CARTESIAN_POINT('',(1.381222769962E1,9.782230237417E0,6.614173228346E-3));
#62=LINE('',#61,#60);
#63=DIRECTION('',(6.502827340791E-2,9.978834218773E-1,0.E0));
#64=VECTOR('',#63,1.479674676971E-1);
#65=CARTESIAN_POINT('',(1.381222769962E1,9.782230237417E0,0.E0));
#66=LINE('',#65,#64);
#67=DIRECTION('',(9.997482462027E-1,2.243756258076E-2,0.E0));
#68=VECTOR('',#67,1.229062297006E-1);
#69=CARTESIAN_POINT('',(1.368935241203E1,9.779472521197E0,0.E0));
#70=LINE('',#69,#68);
#71=DIRECTION('',(5.953421698931E-2,-9.982262654366E-1,0.E0));
#72=VECTOR('',#71,1.917439430481E-1);
#73=CARTESIAN_POINT('',(1.367793708652E1,9.970876361386E0,0.E0));
#74=LINE('',#73,#72);
#75=DIRECTION('',(-9.617461777718E-1,2.739421280879E-1,0.E0));
#76=VECTOR('',#75,1.496368640431E-1);
#77=CARTESIAN_POINT('',(1.382184976857E1,9.929884520409E0,0.E0));
#78=LINE('',#77,#76);
#79=DIRECTION('',(9.795947215447E-1,-2.009830378958E-1,0.E0));
#80=VECTOR('',#79,1.888229835100E-1);
#81=CARTESIAN_POINT('',(1.365805759800E1,9.989643405260E0,0.E0));
#82=LINE('',#81,#80);
#83=DIRECTION('',(-8.327678431934E-2,9.965264558422E-1,0.E0));
#84=VECTOR('',#83,2.237663282063E-1);
#85=CARTESIAN_POINT('',(1.367669213825E1,9.766654339276E0,0.E0));
#86=LINE('',#85,#84);
#87=DIRECTION('',(-9.998525598006E-1,1.717144898053E-2,0.E0));
#88=VECTOR('',#87,1.428607719404E-1);
#89=CARTESIAN_POINT('',(1.381953184677E1,9.764201212819E0,0.E0));
#90=LINE('',#89,#88);
#91=DIRECTION('',(-1.243434772189E-1,-9.922392351006E-1,0.E0));
#92=VECTOR('',#91,1.889584376005E-1);
#93=CARTESIAN_POINT('',(1.384302759595E1,9.951693188409E0,0.E0));
#94=LINE('',#93,#92);
#95=DIRECTION('',(0.E0,0.E0,-1.E0));
#96=VECTOR('',#95,6.614173228346E-3);
#97=CARTESIAN_POINT('',(1.384302759595E1,9.951693188409E0,6.614173228346E-3));
#98=LINE('',#97,#96);
#99=DIRECTION('',(0.E0,0.E0,-1.E0));
#100=VECTOR('',#99,6.614173228346E-3);
#101=CARTESIAN_POINT('',(1.365805759800E1,9.989643405260E0,6.614173228346E-3));
#102=LINE('',#101,#100);
#103=DIRECTION('',(0.E0,0.E0,1.E0));
#104=VECTOR('',#103,6.614173228346E-3);
#105=CARTESIAN_POINT('',(1.381953184677E1,9.764201212819E0,0.E0));
#106=LINE('',#105,#104);
#107=DIRECTION('',(0.E0,0.E0,-1.E0));
#108=VECTOR('',#107,6.614173228346E-3);
#109=CARTESIAN_POINT('',(1.367669213825E1,9.766654339276E0,6.614173228346E-3));
#110=LINE('',#109,#108);
#111=CARTESIAN_POINT('',(1.382184976857E1,9.929884520409E0,0.E0));
#112=CARTESIAN_POINT('',(1.367793708652E1,9.970876361386E0,0.E0));
#113=VERTEX_POINT('',#111);
#114=VERTEX_POINT('',#112);
#115=CARTESIAN_POINT('',(1.381953184677E1,9.764201212819E0,0.E0));
#116=CARTESIAN_POINT('',(1.367669213825E1,9.766654339276E0,0.E0));
#117=VERTEX_POINT('',#115);
#118=VERTEX_POINT('',#116);
#119=CARTESIAN_POINT('',(1.381222769962E1,9.782230237417E0,0.E0));
#120=VERTEX_POINT('',#119);
#121=CARTESIAN_POINT('',(1.382184976857E1,9.929884520409E0,6.614173228346E-3));
#122=VERTEX_POINT('',#121);
#123=CARTESIAN_POINT('',(1.368935241203E1,9.779472521197E0,6.614173228346E-3));
#124=CARTESIAN_POINT('',(1.367793708652E1,9.970876361386E0,6.614173228346E-3));
#125=VERTEX_POINT('',#123);
#126=VERTEX_POINT('',#124);
#127=CARTESIAN_POINT('',(1.384302759595E1,9.951693188409E0,6.614173228346E-3));
#128=CARTESIAN_POINT('',(1.365805759800E1,9.989643405260E0,6.614173228346E-3));
#129=VERTEX_POINT('',#127);
#130=VERTEX_POINT('',#128);
#131=CARTESIAN_POINT('',(1.367669213825E1,9.766654339276E0,6.614173228346E-3));
#132=VERTEX_POINT('',#131);
#133=CARTESIAN_POINT('',(1.381953184677E1,9.764201212819E0,6.614173228346E-3));
#134=VERTEX_POINT('',#133);
#135=CARTESIAN_POINT('',(1.365805759800E1,9.989643405260E0,0.E0));
#136=VERTEX_POINT('',#135);
#137=CARTESIAN_POINT('',(1.368935241203E1,9.779472521197E0,0.E0));
#138=VERTEX_POINT('',#137);
#139=CARTESIAN_POINT('',(1.384302759595E1,9.951693188409E0,0.E0));
#140=VERTEX_POINT('',#139);
#141=CARTESIAN_POINT('',(1.381222769962E1,9.782230237417E0,6.614173228346E-3));
#142=VERTEX_POINT('',#141);
#143=CARTESIAN_POINT('',(1.384302759595E1,9.764201212819E0,6.614173228346E-3));
#144=DIRECTION('',(0.E0,0.E0,-1.E0));
#145=DIRECTION('',(-1.E0,0.E0,0.E0));
#146=AXIS2_PLACEMENT_3D('',#143,#144,#145);
#147=PLANE('',#146);
#149=ORIENTED_EDGE('',*,*,#148,.F.);
#151=ORIENTED_EDGE('',*,*,#150,.F.);
#153=ORIENTED_EDGE('',*,*,#152,.F.);
#155=ORIENTED_EDGE('',*,*,#154,.F.);
#156=EDGE_LOOP('',(#149,#151,#153,#155));
#157=FACE_OUTER_BOUND('',#156,.F.);
#159=ORIENTED_EDGE('',*,*,#158,.F.);
#161=ORIENTED_EDGE('',*,*,#160,.F.);
#163=ORIENTED_EDGE('',*,*,#162,.F.);
#165=ORIENTED_EDGE('',*,*,#164,.F.);
#166=EDGE_LOOP('',(#159,#161,#163,#165));
#167=FACE_BOUND('',#166,.F.);
#169=FILL_AREA_STYLE_COLOUR('',#14);
#170=FILL_AREA_STYLE('',(#169));
#171=SURFACE_STYLE_FILL_AREA(#170);
#172=SURFACE_SIDE_STYLE('',(#171));
#173=SURFACE_STYLE_USAGE(.BOTH.,#172);
#174=PRESENTATION_STYLE_ASSIGNMENT((#173));
#175=STYLED_ITEM('',(#174),#168);
#176=CARTESIAN_POINT('',(1.368935241203E1,9.779472521197E0,0.E0));
#177=DIRECTION('',(9.982262654366E-1,5.953421698932E-2,0.E0));
#178=DIRECTION('',(-5.953421698932E-2,9.982262654366E-1,0.E0));
#179=AXIS2_PLACEMENT_3D('',#176,#177,#178);
#180=PLANE('',#179);
#181=ORIENTED_EDGE('',*,*,#158,.T.);
#183=ORIENTED_EDGE('',*,*,#182,.F.);
#185=ORIENTED_EDGE('',*,*,#184,.T.);
#187=ORIENTED_EDGE('',*,*,#186,.F.);
#188=EDGE_LOOP('',(#181,#183,#185,#187));
#189=FACE_OUTER_BOUND('',#188,.F.);
#191=FILL_AREA_STYLE_COLOUR('',#14);
#192=FILL_AREA_STYLE('',(#191));
#193=SURFACE_STYLE_FILL_AREA(#192);
#194=SURFACE_SIDE_STYLE('',(#193));
#195=SURFACE_STYLE_USAGE(.BOTH.,#194);
#196=PRESENTATION_STYLE_ASSIGNMENT((#195));
#197=STYLED_ITEM('',(#196),#190);
#198=CARTESIAN_POINT('',(1.367793708652E1,9.970876361386E0,0.E0));
#199=DIRECTION('',(-2.739421280879E-1,-9.617461777718E-1,0.E0));
#200=DIRECTION('',(9.617461777718E-1,-2.739421280879E-1,0.E0));
#201=AXIS2_PLACEMENT_3D('',#198,#199,#200);
#202=PLANE('',#201);
#203=ORIENTED_EDGE('',*,*,#164,.T.);
#205=ORIENTED_EDGE('',*,*,#204,.T.);
#207=ORIENTED_EDGE('',*,*,#206,.T.);
#208=ORIENTED_EDGE('',*,*,#182,.T.);
#209=EDGE_LOOP('',(#203,#205,#207,#208));
#210=FACE_OUTER_BOUND('',#209,.F.);
#212=FILL_AREA_STYLE_COLOUR('',#14);
#213=FILL_AREA_STYLE('',(#212));
#214=SURFACE_STYLE_FILL_AREA(#213);
#215=SURFACE_SIDE_STYLE('',(#214));
#216=SURFACE_STYLE_USAGE(.BOTH.,#215);
#217=PRESENTATION_STYLE_ASSIGNMENT((#216));
#218=STYLED_ITEM('',(#217),#211);
#219=CARTESIAN_POINT('',(1.382184976857E1,9.929884520409E0,0.E0));
#220=DIRECTION('',(-9.978834218773E-1,6.502827340789E-2,0.E0));
#221=DIRECTION('',(-6.502827340789E-2,-9.978834218773E-1,0.E0));
#222=AXIS2_PLACEMENT_3D('',#219,#220,#221);
#223=PLANE('',#222);
#224=ORIENTED_EDGE('',*,*,#162,.T.);
#226=ORIENTED_EDGE('',*,*,#225,.T.);
#228=ORIENTED_EDGE('',*,*,#227,.T.);
#229=ORIENTED_EDGE('',*,*,#204,.F.);
#230=EDGE_LOOP('',(#224,#226,#228,#229));
#231=FACE_OUTER_BOUND('',#230,.F.);
#233=FILL_AREA_STYLE_COLOUR('',#14);
#234=FILL_AREA_STYLE('',(#233));
#235=SURFACE_STYLE_FILL_AREA(#234);
#236=SURFACE_SIDE_STYLE('',(#235));
#237=SURFACE_STYLE_USAGE(.BOTH.,#236);
#238=PRESENTATION_STYLE_ASSIGNMENT((#237));
#239=STYLED_ITEM('',(#238),#232);
#240=CARTESIAN_POINT('',(1.381222769962E1,9.782230237417E0,0.E0));
#241=DIRECTION('',(-2.243756258076E-2,9.997482462027E-1,0.E0));
#242=DIRECTION('',(-9.997482462027E-1,-2.243756258076E-2,0.E0));
#243=AXIS2_PLACEMENT_3D('',#240,#241,#242);
#244=PLANE('',#243);
#245=ORIENTED_EDGE('',*,*,#160,.T.);
#246=ORIENTED_EDGE('',*,*,#186,.T.);
#248=ORIENTED_EDGE('',*,*,#247,.T.);
#249=ORIENTED_EDGE('',*,*,#225,.F.);
#250=EDGE_LOOP('',(#245,#246,#248,#249));
#251=FACE_OUTER_BOUND('',#250,.F.);
#253=FILL_AREA_STYLE_COLOUR('',#14);
#254=FILL_AREA_STYLE('',(#253));
#255=SURFACE_STYLE_FILL_AREA(#254);
#256=SURFACE_SIDE_STYLE('',(#255));
#257=SURFACE_STYLE_USAGE(.BOTH.,#256);
#258=PRESENTATION_STYLE_ASSIGNMENT((#257));
#259=STYLED_ITEM('',(#258),#252);
#260=CARTESIAN_POINT('',(1.384302759595E1,9.764201212819E0,0.E0));
#261=DIRECTION('',(0.E0,0.E0,-1.E0));
#262=DIRECTION('',(-1.E0,0.E0,0.E0));
#263=AXIS2_PLACEMENT_3D('',#260,#261,#262);
#264=PLANE('',#263);
#266=ORIENTED_EDGE('',*,*,#265,.F.);
#268=ORIENTED_EDGE('',*,*,#267,.F.);
#270=ORIENTED_EDGE('',*,*,#269,.F.);
#272=ORIENTED_EDGE('',*,*,#271,.F.);
#273=EDGE_LOOP('',(#266,#268,#270,#272));
#274=FACE_OUTER_BOUND('',#273,.F.);
#275=ORIENTED_EDGE('',*,*,#227,.F.);
#276=ORIENTED_EDGE('',*,*,#247,.F.);
#277=ORIENTED_EDGE('',*,*,#184,.F.);
#278=ORIENTED_EDGE('',*,*,#206,.F.);
#279=EDGE_LOOP('',(#275,#276,#277,#278));
#280=FACE_BOUND('',#279,.F.);
#282=FILL_AREA_STYLE_COLOUR('',#14);
#283=FILL_AREA_STYLE('',(#282));
#284=SURFACE_STYLE_FILL_AREA(#283);
#285=SURFACE_SIDE_STYLE('',(#284));
#286=SURFACE_STYLE_USAGE(.BOTH.,#285);
#287=PRESENTATION_STYLE_ASSIGNMENT((#286));
#288=STYLED_ITEM('',(#287),#281);
#289=CARTESIAN_POINT('',(1.365805759800E1,9.989643405260E0,0.E0));
#290=DIRECTION('',(-2.009830378958E-1,-9.795947215447E-1,0.E0));
#291=DIRECTION('',(9.795947215447E-1,-2.009830378958E-1,0.E0));
#292=AXIS2_PLACEMENT_3D('',#289,#290,#291);
#293=PLANE('',#292);
#295=ORIENTED_EDGE('',*,*,#294,.T.);
#296=ORIENTED_EDGE('',*,*,#265,.T.);
#298=ORIENTED_EDGE('',*,*,#297,.F.);
#299=ORIENTED_EDGE('',*,*,#154,.T.);
#300=EDGE_LOOP('',(#295,#296,#298,#299));
#301=FACE_OUTER_BOUND('',#300,.F.);
#303=FILL_AREA_STYLE_COLOUR('',#14);
#304=FILL_AREA_STYLE('',(#303));
#305=SURFACE_STYLE_FILL_AREA(#304);
#306=SURFACE_SIDE_STYLE('',(#305));
#307=SURFACE_STYLE_USAGE(.BOTH.,#306);
#308=PRESENTATION_STYLE_ASSIGNMENT((#307));
#309=STYLED_ITEM('',(#308),#302);
#310=CARTESIAN_POINT('',(1.367669213825E1,9.766654339276E0,0.E0));
#311=DIRECTION('',(9.965264558422E-1,8.327678431935E-2,0.E0));
#312=DIRECTION('',(-8.327678431935E-2,9.965264558422E-1,0.E0));
#313=AXIS2_PLACEMENT_3D('',#310,#311,#312);
#314=PLANE('',#313);
#316=ORIENTED_EDGE('',*,*,#315,.T.);
#317=ORIENTED_EDGE('',*,*,#267,.T.);
#318=ORIENTED_EDGE('',*,*,#294,.F.);
#319=ORIENTED_EDGE('',*,*,#152,.T.);
#320=EDGE_LOOP('',(#316,#317,#318,#319));
#321=FACE_OUTER_BOUND('',#320,.F.);
#323=FILL_AREA_STYLE_COLOUR('',#14);
#324=FILL_AREA_STYLE('',(#323));
#325=SURFACE_STYLE_FILL_AREA(#324);
#326=SURFACE_SIDE_STYLE('',(#325));
#327=SURFACE_STYLE_USAGE(.BOTH.,#326);
#328=PRESENTATION_STYLE_ASSIGNMENT((#327));
#329=STYLED_ITEM('',(#328),#322);
#330=CARTESIAN_POINT('',(1.381953184677E1,9.764201212819E0,0.E0));
#331=DIRECTION('',(1.717144898053E-2,9.998525598006E-1,0.E0));
#332=DIRECTION('',(-9.998525598006E-1,1.717144898053E-2,0.E0));
#333=AXIS2_PLACEMENT_3D('',#330,#331,#332);
#334=PLANE('',#333);
#336=ORIENTED_EDGE('',*,*,#335,.F.);
#337=ORIENTED_EDGE('',*,*,#269,.T.);
#338=ORIENTED_EDGE('',*,*,#315,.F.);
#339=ORIENTED_EDGE('',*,*,#150,.T.);
#340=EDGE_LOOP('',(#336,#337,#338,#339));
#341=FACE_OUTER_BOUND('',#340,.F.);
#343=FILL_AREA_STYLE_COLOUR('',#14);
#344=FILL_AREA_STYLE('',(#343));
#345=SURFACE_STYLE_FILL_AREA(#344);
#346=SURFACE_SIDE_STYLE('',(#345));
#347=SURFACE_STYLE_USAGE(.BOTH.,#346);
#348=PRESENTATION_STYLE_ASSIGNMENT((#347));
#349=STYLED_ITEM('',(#348),#342);
#350=CARTESIAN_POINT('',(1.384302759595E1,9.951693188409E0,0.E0));
#351=DIRECTION('',(-9.922392351006E-1,1.243434772189E-1,0.E0));
#352=DIRECTION('',(-1.243434772189E-1,-9.922392351006E-1,0.E0));
#353=AXIS2_PLACEMENT_3D('',#350,#351,#352);
#354=PLANE('',#353);
#355=ORIENTED_EDGE('',*,*,#297,.T.);
#356=ORIENTED_EDGE('',*,*,#271,.T.);
#357=ORIENTED_EDGE('',*,*,#335,.T.);
#358=ORIENTED_EDGE('',*,*,#148,.T.);
#359=EDGE_LOOP('',(#355,#356,#357,#358));
#360=FACE_OUTER_BOUND('',#359,.F.);
#362=FILL_AREA_STYLE_COLOUR('',#14);
#363=FILL_AREA_STYLE('',(#362));
#364=SURFACE_STYLE_FILL_AREA(#363);
#365=SURFACE_SIDE_STYLE('',(#364));
#366=SURFACE_STYLE_USAGE(.BOTH.,#365);
#367=PRESENTATION_STYLE_ASSIGNMENT((#366));
#368=STYLED_ITEM('',(#367),#361);
#371=PRESENTATION_LAYER_ASSIGNMENT('SHELL_366','',(#168,#190,#211,#232,#252,
#281,#302,#322,#342,#361,#370));
#373=LENGTH_MEASURE_WITH_UNIT(LENGTH_MEASURE(2.54E1),#372);
#374=(CONVERSION_BASED_UNIT('INCH',#373)LENGTH_UNIT()NAMED_UNIT(*));
#376=PLANE_ANGLE_MEASURE_WITH_UNIT(PLANE_ANGLE_MEASURE(1.745329251994E-2),#375);
#377=(CONVERSION_BASED_UNIT('DEGREE',#376)NAMED_UNIT(*)PLANE_ANGLE_UNIT());
#379=UNCERTAINTY_MEASURE_WITH_UNIT(LENGTH_MEASURE(1.102474662876E-4),#374,
'closure',
'Maximum model space distance between geometric entities at asserted connectivities');
#381=CARTESIAN_POINT('',(0.E0,0.E0,0.E0));
#382=DIRECTION('',(0.E0,0.E0,1.E0));
#383=DIRECTION('',(1.E0,0.E0,0.E0));
#386=MECHANICAL_DESIGN_GEOMETRIC_PRESENTATION_REPRESENTATION('',(#175,#197,#218,
#239,#259,#288,#309,#329,#349,#368),#380);
#387=APPLICATION_CONTEXT('automotive design');
#388=APPLICATION_PROTOCOL_DEFINITION('international standard',
'config_control_design',1994,#387);
#389=PRODUCT_DEFINITION_CONTEXT('',#387,'design');
#390=PRODUCT_CONTEXT('',#387,'mechanical');
#391=PRODUCT('NO_10LOGO-76','NO_10LOGO-76','NOT SPECIFIED',(#390));
#392=PRODUCT_DEFINITION_FORMATION_WITH_SPECIFIED_SOURCE('1','LAST_VERSION',#391,
.MADE.);
#400=LENGTH_MEASURE_WITH_UNIT(LENGTH_MEASURE(2.54E1),#399);
#401=(CONVERSION_BASED_UNIT('INCH',#400)LENGTH_UNIT()NAMED_UNIT(*));
#402=DERIVED_UNIT_ELEMENT(#401,2.E0);
#403=AREA_UNIT((#402));
#404=MEASURE_REPRESENTATION_ITEM('surface area measure',AREA_MEASURE(
2.010138647346E-5),#403);
#409=LENGTH_MEASURE_WITH_UNIT(LENGTH_MEASURE(2.54E1),#408);
#410=(CONVERSION_BASED_UNIT('INCH',#409)LENGTH_UNIT()NAMED_UNIT(*));
#411=DERIVED_UNIT_ELEMENT(#410,3.E0);
#412=VOLUME_UNIT((#411));
#413=MEASURE_REPRESENTATION_ITEM('volume measure',VOLUME_MEASURE(
1.202227656839E-9),#412);
#417=CARTESIAN_POINT('centre point',(3.491680346476E-1,2.510015275051E-1,
8.4E-5));
#422=LENGTH_MEASURE_WITH_UNIT(LENGTH_MEASURE(2.54E1),#421);
#423=(CONVERSION_BASED_UNIT('INCH',#422)LENGTH_UNIT()NAMED_UNIT(*));
#424=DERIVED_UNIT_ELEMENT(#423,2.E0);
#425=AREA_UNIT((#424));
#426=MEASURE_REPRESENTATION_ITEM('surface area measure',AREA_MEASURE(
2.010138647346E-5),#425);
#431=LENGTH_MEASURE_WITH_UNIT(LENGTH_MEASURE(2.54E1),#430);
#432=(CONVERSION_BASED_UNIT('INCH',#431)LENGTH_UNIT()NAMED_UNIT(*));
#433=DERIVED_UNIT_ELEMENT(#432,3.E0);
#434=VOLUME_UNIT((#433));
#435=MEASURE_REPRESENTATION_ITEM('volume measure',VOLUME_MEASURE(
1.202227656839E-9),#434);
#439=CARTESIAN_POINT('centre point',(3.491680346476E-1,2.510015275051E-1,
8.4E-5));
#1=DRAUGHTING_PRE_DEFINED_COLOUR('green');
#2=COLOUR_RGB('',1.1E-2,1.2E-2,1.E0);
#3=COLOUR_RGB('',2.352941176471E-1,2.352941176471E-1,2.352941176471E-1);
#4=COLOUR_RGB('',4.1E-1,2.61589E-1,1.12848E-1);
#5=COLOUR_RGB('',5.04854E-1,1.5455E-2,1.5455E-2);
#6=COLOUR_RGB('',6.35294E-1,6.86275E-1,7.4902E-1);
#7=COLOUR_RGB('',6.40777E-1,6.40777E-1,6.40777E-1);
#8=COLOUR_RGB('',6.69062E-1,6.69903E-1,6.55217E-1);
#9=COLOUR_RGB('',9.21569E-1,7.05882E-1,4.70588E-1);
#10=DRAUGHTING_PRE_DEFINED_COLOUR('red');
#11=DRAUGHTING_PRE_DEFINED_COLOUR('yellow');
#12=COLOUR_RGB('',1.E0,1.E0,5.3E-1);
#13=COLOUR_RGB('',1.E0,1.E0,9.49E-1);
#14=DRAUGHTING_PRE_DEFINED_COLOUR('white');
#148=EDGE_CURVE('',#134,#129,#34,.T.);
#150=EDGE_CURVE('',#132,#134,#38,.T.);
#152=EDGE_CURVE('',#130,#132,#42,.T.);
#154=EDGE_CURVE('',#129,#130,#46,.T.);
#158=EDGE_CURVE('',#125,#126,#18,.T.);
#160=EDGE_CURVE('',#142,#125,#22,.T.);
#162=EDGE_CURVE('',#122,#142,#26,.T.);
#164=EDGE_CURVE('',#126,#122,#30,.T.);
#168=ADVANCED_FACE('',(#157,#167),#147,.F.);
#182=EDGE_CURVE('',#114,#126,#50,.T.);
#184=EDGE_CURVE('',#114,#138,#74,.T.);
#186=EDGE_CURVE('',#125,#138,#54,.T.);
#190=ADVANCED_FACE('',(#189),#180,.T.);
#204=EDGE_CURVE('',#122,#113,#58,.T.);
#206=EDGE_CURVE('',#113,#114,#78,.T.);
#211=ADVANCED_FACE('',(#210),#202,.T.);
#225=EDGE_CURVE('',#142,#120,#62,.T.);
#227=EDGE_CURVE('',#120,#113,#66,.T.);
#232=ADVANCED_FACE('',(#231),#223,.T.);
#247=EDGE_CURVE('',#138,#120,#70,.T.);
#252=ADVANCED_FACE('',(#251),#244,.T.);
#265=EDGE_CURVE('',#136,#140,#82,.T.);
#267=EDGE_CURVE('',#118,#136,#86,.T.);
#269=EDGE_CURVE('',#117,#118,#90,.T.);
#271=EDGE_CURVE('',#140,#117,#94,.T.);
#281=ADVANCED_FACE('',(#274,#280),#264,.T.);
#294=EDGE_CURVE('',#130,#136,#102,.T.);
#297=EDGE_CURVE('',#129,#140,#98,.T.);
#302=ADVANCED_FACE('',(#301),#293,.F.);
#315=EDGE_CURVE('',#132,#118,#110,.T.);
#322=ADVANCED_FACE('',(#321),#314,.F.);
#335=EDGE_CURVE('',#117,#134,#106,.T.);
#342=ADVANCED_FACE('',(#341),#334,.F.);
#361=ADVANCED_FACE('',(#360),#354,.F.);
#369=CLOSED_SHELL('',(#168,#190,#211,#232,#252,#281,#302,#322,#342,#361));
#370=MANIFOLD_SOLID_BREP('',#369);
#372=(LENGTH_UNIT()NAMED_UNIT(*)SI_UNIT(.MILLI.,.METRE.));
#375=(NAMED_UNIT(*)PLANE_ANGLE_UNIT()SI_UNIT($,.RADIAN.));
#378=(NAMED_UNIT(*)SI_UNIT($,.STERADIAN.)SOLID_ANGLE_UNIT());
#380=(GEOMETRIC_REPRESENTATION_CONTEXT(3)GLOBAL_UNCERTAINTY_ASSIGNED_CONTEXT((
#379))GLOBAL_UNIT_ASSIGNED_CONTEXT((#374,#377,#378))REPRESENTATION_CONTEXT
('ID1','3'));
#384=AXIS2_PLACEMENT_3D('',#381,#382,#383);
#385=ADVANCED_BREP_SHAPE_REPRESENTATION('',(#384,#370),#380);
#393=PRODUCT_DEFINITION('design','',#392,#389);
#394=PRODUCT_DEFINITION_SHAPE('','SHAPE FOR NO_10LOGO-76.',#393);
#395=SHAPE_ASPECT('','solid data associated with NO_10LOGO-76',#394,.F.);
#396=PROPERTY_DEFINITION('',
'shape for solid data with which properties are associated',#395);
#397=SHAPE_REPRESENTATION('',(#370),#380);
#398=SHAPE_DEFINITION_REPRESENTATION(#396,#397);
#399=(LENGTH_UNIT()NAMED_UNIT(*)SI_UNIT(.MILLI.,.METRE.));
#405=PROPERTY_DEFINITION('geometric validation property','area of NO_10LOGO-76',
#395);
#406=REPRESENTATION('surface area',(#404),#380);
#407=PROPERTY_DEFINITION_REPRESENTATION(#405,#406);
#408=(LENGTH_UNIT()NAMED_UNIT(*)SI_UNIT(.MILLI.,.METRE.));
#414=PROPERTY_DEFINITION('geometric validation property',
'volume of NO_10LOGO-76',#395);
#415=REPRESENTATION('volume',(#413),#380);
#416=PROPERTY_DEFINITION_REPRESENTATION(#414,#415);
#418=PROPERTY_DEFINITION('geometric validation property',
'centroid of NO_10LOGO-76',#395);
#419=REPRESENTATION('centroid',(#417),#380);
#420=PROPERTY_DEFINITION_REPRESENTATION(#418,#419);
#421=(LENGTH_UNIT()NAMED_UNIT(*)SI_UNIT(.MILLI.,.METRE.));
#427=PROPERTY_DEFINITION('geometric validation property','area of NO_10LOGO-76',
#394);
#428=REPRESENTATION('surface area',(#426),#380);
#429=PROPERTY_DEFINITION_REPRESENTATION(#427,#428);
#430=(LENGTH_UNIT()NAMED_UNIT(*)SI_UNIT(.MILLI.,.METRE.));
#436=PROPERTY_DEFINITION('geometric validation property',
'volume of NO_10LOGO-76',#394);
#437=REPRESENTATION('volume',(#435),#380);
#438=PROPERTY_DEFINITION_REPRESENTATION(#436,#437);
#440=PROPERTY_DEFINITION('geometric validation property',
'centroid of NO_10LOGO-76',#394);
#441=REPRESENTATION('centroid',(#439),#380);
#442=PROPERTY_DEFINITION_REPRESENTATION(#440,#441);
#443=SHAPE_DEFINITION_REPRESENTATION(#394,#385);
ENDSEC;
END-ISO-10303-21;
