ISO-10303-21;
HEADER;
FILE_DESCRIPTION((''),'2;1');
FILE_NAME('OVAL_CONNECTOR','2026-06-15T13:45:23',('Esia'),(''),
'CREO PARAMETRIC BY PTC INC, 2025102','CREO PARAMETRIC BY PTC INC, 2025102','');
FILE_SCHEMA((
'AP242_MANAGED_MODEL_BASED_3D_ENGINEERING_MIM_LF { 1 0 10303 442 1 1 4 }'));
ENDSEC;
DATA;
#16=DIRECTION('',(0.E0,0.E0,-1.E0));
#17=VECTOR('',#16,6.733267792454E-1);
#18=CARTESIAN_POINT('',(0.E0,1.0775E-1,-8.099469603210E-1));
#19=LINE('',#18,#17);
#20=DRAUGHTING_PRE_DEFINED_CURVE_FONT('continuous');
#21=CURVE_STYLE('',#20,POSITIVE_LENGTH_MEASURE(2.E-2),#3);
#22=PRESENTATION_STYLE_ASSIGNMENT((#21));
#23=STYLED_ITEM('',(#22),#19);
#24=DIRECTION('',(0.E0,1.E0,0.E0));
#25=VECTOR('',#24,3.829812622191E-1);
#26=CARTESIAN_POINT('',(0.E0,1.0775E-1,-1.483273739566E0));
#27=LINE('',#26,#25);
#28=CURVE_STYLE('',#20,POSITIVE_LENGTH_MEASURE(2.E-2),#3);
#29=PRESENTATION_STYLE_ASSIGNMENT((#28));
#30=STYLED_ITEM('',(#29),#27);
#31=DIRECTION('',(0.E0,1.E0,0.E0));
#32=VECTOR('',#31,1.913923936605E-1);
#33=CARTESIAN_POINT('',(0.E0,4.907312622191E-1,-1.483273739566E0));
#34=LINE('',#33,#32);
#35=CURVE_STYLE('',#20,POSITIVE_LENGTH_MEASURE(2.E-2),#3);
#36=PRESENTATION_STYLE_ASSIGNMENT((#35));
#37=STYLED_ITEM('',(#36),#34);
#38=CARTESIAN_POINT('',(0.E0,5.864274590494E-1,-1.146610349944E0));
#39=DIRECTION('',(1.E0,0.E0,0.E0));
#40=DIRECTION('',(0.E0,2.734177052292E-1,-9.618953989219E-1));
#41=AXIS2_PLACEMENT_3D('',#38,#39,#40);
#43=CURVE_STYLE('',#20,POSITIVE_LENGTH_MEASURE(2.E-2),#3);
#44=PRESENTATION_STYLE_ASSIGNMENT((#43));
#45=STYLED_ITEM('',(#44),#42);
#46=DIRECTION('',(0.E0,-1.E0,0.E0));
#47=VECTOR('',#46,5.743736558796E-1);
#48=CARTESIAN_POINT('',(3.186890695831E0,6.821236558796E-1,-8.099469603210E-1));
#49=LINE('',#48,#47);
#50=CURVE_STYLE('',#20,POSITIVE_LENGTH_MEASURE(2.E-2),#3);
#51=PRESENTATION_STYLE_ASSIGNMENT((#50));
#52=STYLED_ITEM('',(#51),#49);
#53=DIRECTION('',(0.E0,1.E0,0.E0));
#54=VECTOR('',#53,5.743736558796E-1);
#55=CARTESIAN_POINT('',(0.E0,1.0775E-1,-8.099469603210E-1));
#56=LINE('',#55,#54);
#57=CURVE_STYLE('',#20,POSITIVE_LENGTH_MEASURE(2.E-2),#3);
#58=PRESENTATION_STYLE_ASSIGNMENT((#57));
#59=STYLED_ITEM('',(#58),#56);
#60=DIRECTION('',(1.E0,0.E0,0.E0));
#61=VECTOR('',#60,3.186890695831E0);
#62=CARTESIAN_POINT('',(0.E0,6.821236558796E-1,-8.099469603210E-1));
#63=LINE('',#62,#61);
#64=CURVE_STYLE('',#20,POSITIVE_LENGTH_MEASURE(2.E-2),#3);
#65=PRESENTATION_STYLE_ASSIGNMENT((#64));
#66=STYLED_ITEM('',(#65),#63);
#67=DIRECTION('',(0.E0,-1.E0,0.E0));
#68=VECTOR('',#67,6.937636485384E-1);
#69=CARTESIAN_POINT('',(3.209087596063E0,8.015136485384E-1,-8.704981787323E-1));
#70=LINE('',#69,#68);
#71=CURVE_STYLE('',#20,POSITIVE_LENGTH_MEASURE(2.E-2),#3);
#72=PRESENTATION_STYLE_ASSIGNMENT((#71));
#73=STYLED_ITEM('',(#72),#70);
#74=CARTESIAN_POINT('',(1.3E0,5.864274590494E-1,-1.146610349944E0));
#75=DIRECTION('',(1.E0,0.E0,0.E0));
#76=DIRECTION('',(0.E0,8.443993155384E-1,-5.357142857143E-1));
#77=AXIS2_PLACEMENT_3D('',#74,#75,#76);
#79=CURVE_STYLE('',#20,POSITIVE_LENGTH_MEASURE(2.E-2),#3);
#80=PRESENTATION_STYLE_ASSIGNMENT((#79));
#81=STYLED_ITEM('',(#80),#78);
#82=DIRECTION('',(1.E0,0.E0,0.E0));
#83=VECTOR('',#82,1.25E0);
#84=CARTESIAN_POINT('',(5.E-2,8.819672194878E-1,-1.334110349944E0));
#85=LINE('',#84,#83);
#86=CURVE_STYLE('',#20,POSITIVE_LENGTH_MEASURE(2.E-2),#3);
#87=PRESENTATION_STYLE_ASSIGNMENT((#86));
#88=STYLED_ITEM('',(#87),#85);
#89=CARTESIAN_POINT('',(5.E-2,5.864274590494E-1,-1.146610349944E0));
#90=DIRECTION('',(1.E0,0.E0,0.E0));
#91=DIRECTION('',(0.E0,8.443993155384E-1,-5.357142857143E-1));
#92=AXIS2_PLACEMENT_3D('',#89,#90,#91);
#94=CURVE_STYLE('',#20,POSITIVE_LENGTH_MEASURE(2.E-2),#3);
#95=PRESENTATION_STYLE_ASSIGNMENT((#94));
#96=STYLED_ITEM('',(#95),#93);
#97=DIRECTION('',(1.E0,0.E0,0.E0));
#98=VECTOR('',#97,1.25E0);
#99=CARTESIAN_POINT('',(5.E-2,8.819672194878E-1,-9.591103499437E-1));
#100=LINE('',#99,#98);
#101=CURVE_STYLE('',#20,POSITIVE_LENGTH_MEASURE(2.E-2),#3);
#102=PRESENTATION_STYLE_ASSIGNMENT((#101));
#103=STYLED_ITEM('',(#102),#100);
#104=CARTESIAN_POINT('',(3.209087596063E0,8.015136485384E-1,
-8.704981787323E-1));
#105=CARTESIAN_POINT('',(3.198946406112E0,7.660002283983E-1,
-8.428338922209E-1));
#106=CARTESIAN_POINT('',(3.191492731709E0,7.262890153771E-1,
-8.225009150005E-1));
#107=CARTESIAN_POINT('',(3.186890695831E0,6.821236558796E-1,
-8.099469603210E-1));
#109=CURVE_STYLE('',#20,POSITIVE_LENGTH_MEASURE(2.E-2),#3);
#110=PRESENTATION_STYLE_ASSIGNMENT((#109));
#111=STYLED_ITEM('',(#110),#108);
#112=DIRECTION('',(1.E0,0.E0,0.E0));
#113=VECTOR('',#112,3.5E0);
#114=CARTESIAN_POINT('',(0.E0,6.821236558796E-1,-1.483273739566E0));
#115=LINE('',#114,#113);
#116=CURVE_STYLE('',#20,POSITIVE_LENGTH_MEASURE(2.E-2),#3);
#117=PRESENTATION_STYLE_ASSIGNMENT((#116));
#118=STYLED_ITEM('',(#117),#115);
#119=DIRECTION('',(1.E0,0.E0,0.E0));
#120=VECTOR('',#119,5.E-2);
#121=CARTESIAN_POINT('',(3.45E0,9.164239026566E-1,-1.029981248916E0));
#122=LINE('',#121,#120);
#123=CURVE_STYLE('',#20,POSITIVE_LENGTH_MEASURE(2.E-2),#3);
#124=PRESENTATION_STYLE_ASSIGNMENT((#123));
#125=STYLED_ITEM('',(#124),#122);
#126=CARTESIAN_POINT('',(3.45E0,5.864274590494E-1,-1.146610349944E0));
#127=DIRECTION('',(1.E0,0.E0,0.E0));
#128=DIRECTION('',(0.E0,8.443993155384E-1,-5.357142857143E-1));
#129=AXIS2_PLACEMENT_3D('',#126,#127,#128);
#131=CURVE_STYLE('',#20,POSITIVE_LENGTH_MEASURE(2.E-2),#3);
#132=PRESENTATION_STYLE_ASSIGNMENT((#131));
#133=STYLED_ITEM('',(#132),#130);
#134=DIRECTION('',(1.E0,0.E0,0.E0));
#135=VECTOR('',#134,1.25E0);
#136=CARTESIAN_POINT('',(2.2E0,8.819672194878E-1,-1.334110349944E0));
#137=LINE('',#136,#135);
#138=CURVE_STYLE('',#20,POSITIVE_LENGTH_MEASURE(2.E-2),#3);
#139=PRESENTATION_STYLE_ASSIGNMENT((#138));
#140=STYLED_ITEM('',(#139),#137);
#141=CARTESIAN_POINT('',(2.2E0,5.864274590494E-1,-1.146610349944E0));
#142=DIRECTION('',(1.E0,0.E0,0.E0));
#143=DIRECTION('',(0.E0,8.443993155384E-1,-5.357142857143E-1));
#144=AXIS2_PLACEMENT_3D('',#141,#142,#143);
#146=CURVE_STYLE('',#20,POSITIVE_LENGTH_MEASURE(2.E-2),#3);
#147=PRESENTATION_STYLE_ASSIGNMENT((#146));
#148=STYLED_ITEM('',(#147),#145);
#149=DIRECTION('',(1.E0,0.E0,0.E0));
#150=VECTOR('',#149,1.065812545417E0);
#151=CARTESIAN_POINT('',(2.2E0,8.819672194878E-1,-9.591103499437E-1));
#152=LINE('',#151,#150);
#153=CURVE_STYLE('',#20,POSITIVE_LENGTH_MEASURE(2.E-2),#3);
#154=PRESENTATION_STYLE_ASSIGNMENT((#153));
#155=STYLED_ITEM('',(#154),#152);
#156=CARTESIAN_POINT('',(3.209087596063E0,8.015136485384E-1,
-8.704981787323E-1));
#157=CARTESIAN_POINT('',(3.211054474866E0,8.084014589075E-1,
-8.758636534947E-1));
#158=CARTESIAN_POINT('',(3.215571184075E0,8.216797397532E-1,
-8.870300081026E-1));
#159=CARTESIAN_POINT('',(3.224603640913E0,8.401958433774E-1,
-9.051179236509E-1));
#160=CARTESIAN_POINT('',(3.235969091086E0,8.565348974757E-1,
-9.236153639304E-1));
#161=CARTESIAN_POINT('',(3.249286454077E0,8.702864344123E-1,
-9.414673245215E-1));
#162=CARTESIAN_POINT('',(3.259993663531E0,8.782907844372E-1,
-9.533155086951E-1));
#163=CARTESIAN_POINT('',(3.265812545417E0,8.819672194878E-1,
-9.591103499437E-1));
#165=CURVE_STYLE('',#20,POSITIVE_LENGTH_MEASURE(2.E-2),#3);
#166=PRESENTATION_STYLE_ASSIGNMENT((#165));
#167=STYLED_ITEM('',(#166),#164);
#168=DIRECTION('',(0.E0,-1.E0,0.E0));
#169=VECTOR('',#168,5.678278051219E-2);
#170=CARTESIAN_POINT('',(1.3E0,9.3875E-1,-1.334110349944E0));
#171=LINE('',#170,#169);
#172=CURVE_STYLE('',#20,POSITIVE_LENGTH_MEASURE(2.E-2),#3);
#173=PRESENTATION_STYLE_ASSIGNMENT((#172));
#174=STYLED_ITEM('',(#173),#171);
#175=DIRECTION('',(0.E0,-1.E0,0.E0));
#176=VECTOR('',#175,5.678278051220E-2);
#177=CARTESIAN_POINT('',(1.3E0,9.3875E-1,-9.591103499437E-1));
#178=LINE('',#177,#176);
#179=CURVE_STYLE('',#20,POSITIVE_LENGTH_MEASURE(2.E-2),#3);
#180=PRESENTATION_STYLE_ASSIGNMENT((#179));
#181=STYLED_ITEM('',(#180),#178);
#182=DIRECTION('',(0.E0,-1.E0,0.E0));
#183=VECTOR('',#182,5.678278051220E-2);
#184=CARTESIAN_POINT('',(5.E-2,9.3875E-1,-9.591103499437E-1));
#185=LINE('',#184,#183);
#186=CURVE_STYLE('',#20,POSITIVE_LENGTH_MEASURE(2.E-2),#3);
#187=PRESENTATION_STYLE_ASSIGNMENT((#186));
#188=STYLED_ITEM('',(#187),#185);
#189=DIRECTION('',(0.E0,-1.E0,0.E0));
#190=VECTOR('',#189,5.678278051219E-2);
#191=CARTESIAN_POINT('',(5.E-2,9.3875E-1,-1.334110349944E0));
#192=LINE('',#191,#190);
#193=CURVE_STYLE('',#20,POSITIVE_LENGTH_MEASURE(2.E-2),#3);
#194=PRESENTATION_STYLE_ASSIGNMENT((#193));
#195=STYLED_ITEM('',(#194),#192);
#196=CARTESIAN_POINT('',(6.75E-1,9.3875E-1,-1.146610349944E0));
#197=DIRECTION('',(0.E0,1.E0,0.E0));
#198=DIRECTION('',(1.E0,0.E0,0.E0));
#199=AXIS2_PLACEMENT_3D('',#196,#197,#198);
#201=CURVE_STYLE('',#20,POSITIVE_LENGTH_MEASURE(2.E-2),#3);
#202=PRESENTATION_STYLE_ASSIGNMENT((#201));
#203=STYLED_ITEM('',(#202),#200);
#204=CARTESIAN_POINT('',(6.75E-1,9.3875E-1,-1.146610349944E0));
#205=DIRECTION('',(0.E0,1.E0,0.E0));
#206=DIRECTION('',(-1.E0,0.E0,0.E0));
#207=AXIS2_PLACEMENT_3D('',#204,#205,#206);
#209=CURVE_STYLE('',#20,POSITIVE_LENGTH_MEASURE(2.E-2),#3);
#210=PRESENTATION_STYLE_ASSIGNMENT((#209));
#211=STYLED_ITEM('',(#210),#208);
#212=CARTESIAN_POINT('',(1.1E0,9.3875E-1,-1.146610349944E0));
#213=DIRECTION('',(0.E0,1.E0,0.E0));
#214=DIRECTION('',(1.E0,0.E0,0.E0));
#215=AXIS2_PLACEMENT_3D('',#212,#213,#214);
#217=CURVE_STYLE('',#20,POSITIVE_LENGTH_MEASURE(2.E-2),#3);
#218=PRESENTATION_STYLE_ASSIGNMENT((#217));
#219=STYLED_ITEM('',(#218),#216);
#220=CARTESIAN_POINT('',(1.1E0,9.3875E-1,-1.146610349944E0));
#221=DIRECTION('',(0.E0,1.E0,0.E0));
#222=DIRECTION('',(-1.E0,0.E0,0.E0));
#223=AXIS2_PLACEMENT_3D('',#220,#221,#222);
#225=CURVE_STYLE('',#20,POSITIVE_LENGTH_MEASURE(2.E-2),#3);
#226=PRESENTATION_STYLE_ASSIGNMENT((#225));
#227=STYLED_ITEM('',(#226),#224);
#228=CARTESIAN_POINT('',(2.5E-1,9.3875E-1,-1.146610349944E0));
#229=DIRECTION('',(0.E0,1.E0,0.E0));
#230=DIRECTION('',(1.E0,0.E0,0.E0));
#231=AXIS2_PLACEMENT_3D('',#228,#229,#230);
#233=CURVE_STYLE('',#20,POSITIVE_LENGTH_MEASURE(2.E-2),#3);
#234=PRESENTATION_STYLE_ASSIGNMENT((#233));
#235=STYLED_ITEM('',(#234),#232);
#236=CARTESIAN_POINT('',(2.5E-1,9.3875E-1,-1.146610349944E0));
#237=DIRECTION('',(0.E0,1.E0,0.E0));
#238=DIRECTION('',(-1.E0,0.E0,0.E0));
#239=AXIS2_PLACEMENT_3D('',#236,#237,#238);
#241=CURVE_STYLE('',#20,POSITIVE_LENGTH_MEASURE(2.E-2),#3);
#242=PRESENTATION_STYLE_ASSIGNMENT((#241));
#243=STYLED_ITEM('',(#242),#240);
#244=CARTESIAN_POINT('',(2.4E0,9.3875E-1,-1.146610349944E0));
#245=DIRECTION('',(0.E0,1.E0,0.E0));
#246=DIRECTION('',(1.E0,0.E0,0.E0));
#247=AXIS2_PLACEMENT_3D('',#244,#245,#246);
#249=CURVE_STYLE('',#20,POSITIVE_LENGTH_MEASURE(2.E-2),#3);
#250=PRESENTATION_STYLE_ASSIGNMENT((#249));
#251=STYLED_ITEM('',(#250),#248);
#252=CARTESIAN_POINT('',(2.4E0,9.3875E-1,-1.146610349944E0));
#253=DIRECTION('',(0.E0,1.E0,0.E0));
#254=DIRECTION('',(-1.E0,0.E0,0.E0));
#255=AXIS2_PLACEMENT_3D('',#252,#253,#254);
#257=CURVE_STYLE('',#20,POSITIVE_LENGTH_MEASURE(2.E-2),#3);
#258=PRESENTATION_STYLE_ASSIGNMENT((#257));
#259=STYLED_ITEM('',(#258),#256);
#260=CARTESIAN_POINT('',(2.825E0,9.3875E-1,-1.146610349944E0));
#261=DIRECTION('',(0.E0,1.E0,0.E0));
#262=DIRECTION('',(1.E0,0.E0,0.E0));
#263=AXIS2_PLACEMENT_3D('',#260,#261,#262);
#265=CURVE_STYLE('',#20,POSITIVE_LENGTH_MEASURE(2.E-2),#3);
#266=PRESENTATION_STYLE_ASSIGNMENT((#265));
#267=STYLED_ITEM('',(#266),#264);
#268=CARTESIAN_POINT('',(2.825E0,9.3875E-1,-1.146610349944E0));
#269=DIRECTION('',(0.E0,1.E0,0.E0));
#270=DIRECTION('',(-1.E0,0.E0,0.E0));
#271=AXIS2_PLACEMENT_3D('',#268,#269,#270);
#273=CURVE_STYLE('',#20,POSITIVE_LENGTH_MEASURE(2.E-2),#3);
#274=PRESENTATION_STYLE_ASSIGNMENT((#273));
#275=STYLED_ITEM('',(#274),#272);
#276=CARTESIAN_POINT('',(3.25E0,9.3875E-1,-1.146610349944E0));
#277=DIRECTION('',(0.E0,1.E0,0.E0));
#278=DIRECTION('',(1.E0,0.E0,0.E0));
#279=AXIS2_PLACEMENT_3D('',#276,#277,#278);
#281=CURVE_STYLE('',#20,POSITIVE_LENGTH_MEASURE(2.E-2),#3);
#282=PRESENTATION_STYLE_ASSIGNMENT((#281));
#283=STYLED_ITEM('',(#282),#280);
#284=CARTESIAN_POINT('',(3.25E0,9.3875E-1,-1.146610349944E0));
#285=DIRECTION('',(0.E0,1.E0,0.E0));
#286=DIRECTION('',(-1.E0,0.E0,0.E0));
#287=AXIS2_PLACEMENT_3D('',#284,#285,#286);
#289=CURVE_STYLE('',#20,POSITIVE_LENGTH_MEASURE(2.E-2),#3);
#290=PRESENTATION_STYLE_ASSIGNMENT((#289));
#291=STYLED_ITEM('',(#290),#288);
#292=DIRECTION('',(0.E0,0.E0,1.E0));
#293=VECTOR('',#292,3.75E-1);
#294=CARTESIAN_POINT('',(1.3E0,9.3875E-1,-1.334110349944E0));
#295=LINE('',#294,#293);
#296=CURVE_STYLE('',#20,POSITIVE_LENGTH_MEASURE(2.E-2),#3);
#297=PRESENTATION_STYLE_ASSIGNMENT((#296));
#298=STYLED_ITEM('',(#297),#295);
#299=DIRECTION('',(-1.E0,0.E0,0.E0));
#300=VECTOR('',#299,1.25E0);
#301=CARTESIAN_POINT('',(1.3E0,9.3875E-1,-9.591103499437E-1));
#302=LINE('',#301,#300);
#303=CURVE_STYLE('',#20,POSITIVE_LENGTH_MEASURE(2.E-2),#3);
#304=PRESENTATION_STYLE_ASSIGNMENT((#303));
#305=STYLED_ITEM('',(#304),#302);
#306=DIRECTION('',(0.E0,0.E0,-1.E0));
#307=VECTOR('',#306,3.75E-1);
#308=CARTESIAN_POINT('',(5.E-2,9.3875E-1,-9.591103499437E-1));
#309=LINE('',#308,#307);
#310=CURVE_STYLE('',#20,POSITIVE_LENGTH_MEASURE(2.E-2),#3);
#311=PRESENTATION_STYLE_ASSIGNMENT((#310));
#312=STYLED_ITEM('',(#311),#309);
#313=DIRECTION('',(1.E0,0.E0,0.E0));
#314=VECTOR('',#313,1.25E0);
#315=CARTESIAN_POINT('',(5.E-2,9.3875E-1,-1.334110349944E0));
#316=LINE('',#315,#314);
#317=CURVE_STYLE('',#20,POSITIVE_LENGTH_MEASURE(2.E-2),#3);
#318=PRESENTATION_STYLE_ASSIGNMENT((#317));
#319=STYLED_ITEM('',(#318),#316);
#320=CARTESIAN_POINT('',(3.437412164417E0,9.3875E-1,-7.867988280480E-1));
#321=DIRECTION('',(0.E0,1.E0,0.E0));
#322=DIRECTION('',(0.E0,0.E0,-1.E0));
#323=AXIS2_PLACEMENT_3D('',#320,#321,#322);
#325=CURVE_STYLE('',#20,POSITIVE_LENGTH_MEASURE(2.E-2),#3);
#326=PRESENTATION_STYLE_ASSIGNMENT((#325));
#327=STYLED_ITEM('',(#326),#324);
#328=DIRECTION('',(-1.E0,0.E0,0.E0));
#329=VECTOR('',#328,1.065812545417E0);
#330=CARTESIAN_POINT('',(3.265812545417E0,9.3875E-1,-9.591103499437E-1));
#331=LINE('',#330,#329);
#332=CURVE_STYLE('',#20,POSITIVE_LENGTH_MEASURE(2.E-2),#3);
#333=PRESENTATION_STYLE_ASSIGNMENT((#332));
#334=STYLED_ITEM('',(#333),#331);
#335=DIRECTION('',(0.E0,0.E0,-1.E0));
#336=VECTOR('',#335,3.75E-1);
#337=CARTESIAN_POINT('',(2.2E0,9.3875E-1,-9.591103499437E-1));
#338=LINE('',#337,#336);
#339=CURVE_STYLE('',#20,POSITIVE_LENGTH_MEASURE(2.E-2),#3);
#340=PRESENTATION_STYLE_ASSIGNMENT((#339));
#341=STYLED_ITEM('',(#340),#338);
#342=DIRECTION('',(1.E0,0.E0,0.E0));
#343=VECTOR('',#342,1.25E0);
#344=CARTESIAN_POINT('',(2.2E0,9.3875E-1,-1.334110349944E0));
#345=LINE('',#344,#343);
#346=CURVE_STYLE('',#20,POSITIVE_LENGTH_MEASURE(2.E-2),#3);
#347=PRESENTATION_STYLE_ASSIGNMENT((#346));
#348=STYLED_ITEM('',(#347),#345);
#349=DIRECTION('',(0.E0,0.E0,1.E0));
#350=VECTOR('',#349,3.041291010281E-1);
#351=CARTESIAN_POINT('',(3.45E0,9.3875E-1,-1.334110349944E0));
#352=LINE('',#351,#350);
#353=CURVE_STYLE('',#20,POSITIVE_LENGTH_MEASURE(2.E-2),#3);
#354=PRESENTATION_STYLE_ASSIGNMENT((#353));
#355=STYLED_ITEM('',(#354),#352);
#356=DIRECTION('',(-1.E0,0.E0,0.E0));
#357=VECTOR('',#356,1.258783558290E-2);
#358=CARTESIAN_POINT('',(3.45E0,9.3875E-1,-1.029981248916E0));
#359=LINE('',#358,#357);
#360=CURVE_STYLE('',#20,POSITIVE_LENGTH_MEASURE(2.E-2),#3);
#361=PRESENTATION_STYLE_ASSIGNMENT((#360));
#362=STYLED_ITEM('',(#361),#359);
#363=DIRECTION('',(0.E0,1.E0,0.E0));
#364=VECTOR('',#363,8.31E-1);
#365=CARTESIAN_POINT('',(7.61614E-1,1.0775E-1,-1.146610349944E0));
#366=LINE('',#365,#364);
#367=CURVE_STYLE('',#20,POSITIVE_LENGTH_MEASURE(2.E-2),#3);
#368=PRESENTATION_STYLE_ASSIGNMENT((#367));
#369=STYLED_ITEM('',(#368),#366);
#370=DIRECTION('',(0.E0,-1.E0,0.E0));
#371=VECTOR('',#370,8.31E-1);
#372=CARTESIAN_POINT('',(5.88386E-1,9.3875E-1,-1.146610349944E0));
#373=LINE('',#372,#371);
#374=CURVE_STYLE('',#20,POSITIVE_LENGTH_MEASURE(2.E-2),#3);
#375=PRESENTATION_STYLE_ASSIGNMENT((#374));
#376=STYLED_ITEM('',(#375),#373);
#377=CARTESIAN_POINT('',(3.25E0,1.0775E-1,-1.146610349944E0));
#378=DIRECTION('',(0.E0,-1.E0,0.E0));
#379=DIRECTION('',(-1.E0,0.E0,0.E0));
#380=AXIS2_PLACEMENT_3D('',#377,#378,#379);
#382=CURVE_STYLE('',#20,POSITIVE_LENGTH_MEASURE(2.E-2),#3);
#383=PRESENTATION_STYLE_ASSIGNMENT((#382));
#384=STYLED_ITEM('',(#383),#381);
#385=CARTESIAN_POINT('',(3.25E0,1.0775E-1,-1.146610349944E0));
#386=DIRECTION('',(0.E0,-1.E0,0.E0));
#387=DIRECTION('',(1.E0,0.E0,0.E0));
#388=AXIS2_PLACEMENT_3D('',#385,#386,#387);
#390=CURVE_STYLE('',#20,POSITIVE_LENGTH_MEASURE(2.E-2),#3);
#391=PRESENTATION_STYLE_ASSIGNMENT((#390));
#392=STYLED_ITEM('',(#391),#389);
#393=CARTESIAN_POINT('',(2.4E0,1.0775E-1,-1.146610349944E0));
#394=DIRECTION('',(0.E0,-1.E0,0.E0));
#395=DIRECTION('',(-1.E0,0.E0,0.E0));
#396=AXIS2_PLACEMENT_3D('',#393,#394,#395);
#398=CURVE_STYLE('',#20,POSITIVE_LENGTH_MEASURE(2.E-2),#3);
#399=PRESENTATION_STYLE_ASSIGNMENT((#398));
#400=STYLED_ITEM('',(#399),#397);
#401=CARTESIAN_POINT('',(2.4E0,1.0775E-1,-1.146610349944E0));
#402=DIRECTION('',(0.E0,-1.E0,0.E0));
#403=DIRECTION('',(1.E0,0.E0,0.E0));
#404=AXIS2_PLACEMENT_3D('',#401,#402,#403);
#406=CURVE_STYLE('',#20,POSITIVE_LENGTH_MEASURE(2.E-2),#3);
#407=PRESENTATION_STYLE_ASSIGNMENT((#406));
#408=STYLED_ITEM('',(#407),#405);
#409=CARTESIAN_POINT('',(2.825E0,1.0775E-1,-1.146610349944E0));
#410=DIRECTION('',(0.E0,-1.E0,0.E0));
#411=DIRECTION('',(-1.E0,0.E0,0.E0));
#412=AXIS2_PLACEMENT_3D('',#409,#410,#411);
#414=CURVE_STYLE('',#20,POSITIVE_LENGTH_MEASURE(2.E-2),#3);
#415=PRESENTATION_STYLE_ASSIGNMENT((#414));
#416=STYLED_ITEM('',(#415),#413);
#417=CARTESIAN_POINT('',(2.825E0,1.0775E-1,-1.146610349944E0));
#418=DIRECTION('',(0.E0,-1.E0,0.E0));
#419=DIRECTION('',(1.E0,0.E0,0.E0));
#420=AXIS2_PLACEMENT_3D('',#417,#418,#419);
#422=CURVE_STYLE('',#20,POSITIVE_LENGTH_MEASURE(2.E-2),#3);
#423=PRESENTATION_STYLE_ASSIGNMENT((#422));
#424=STYLED_ITEM('',(#423),#421);
#425=CARTESIAN_POINT('',(2.5E-1,1.0775E-1,-1.146610349944E0));
#426=DIRECTION('',(0.E0,-1.E0,0.E0));
#427=DIRECTION('',(-1.E0,0.E0,0.E0));
#428=AXIS2_PLACEMENT_3D('',#425,#426,#427);
#430=CURVE_STYLE('',#20,POSITIVE_LENGTH_MEASURE(2.E-2),#3);
#431=PRESENTATION_STYLE_ASSIGNMENT((#430));
#432=STYLED_ITEM('',(#431),#429);
#433=CARTESIAN_POINT('',(2.5E-1,1.0775E-1,-1.146610349944E0));
#434=DIRECTION('',(0.E0,-1.E0,0.E0));
#435=DIRECTION('',(1.E0,0.E0,0.E0));
#436=AXIS2_PLACEMENT_3D('',#433,#434,#435);
#438=CURVE_STYLE('',#20,POSITIVE_LENGTH_MEASURE(2.E-2),#3);
#439=PRESENTATION_STYLE_ASSIGNMENT((#438));
#440=STYLED_ITEM('',(#439),#437);
#441=CARTESIAN_POINT('',(1.1E0,1.0775E-1,-1.146610349944E0));
#442=DIRECTION('',(0.E0,-1.E0,0.E0));
#443=DIRECTION('',(-1.E0,0.E0,0.E0));
#444=AXIS2_PLACEMENT_3D('',#441,#442,#443);
#446=CURVE_STYLE('',#20,POSITIVE_LENGTH_MEASURE(2.E-2),#3);
#447=PRESENTATION_STYLE_ASSIGNMENT((#446));
#448=STYLED_ITEM('',(#447),#445);
#449=CARTESIAN_POINT('',(1.1E0,1.0775E-1,-1.146610349944E0));
#450=DIRECTION('',(0.E0,-1.E0,0.E0));
#451=DIRECTION('',(1.E0,0.E0,0.E0));
#452=AXIS2_PLACEMENT_3D('',#449,#450,#451);
#454=CURVE_STYLE('',#20,POSITIVE_LENGTH_MEASURE(2.E-2),#3);
#455=PRESENTATION_STYLE_ASSIGNMENT((#454));
#456=STYLED_ITEM('',(#455),#453);
#457=CARTESIAN_POINT('',(6.75E-1,1.0775E-1,-1.146610349944E0));
#458=DIRECTION('',(0.E0,-1.E0,0.E0));
#459=DIRECTION('',(-1.E0,0.E0,0.E0));
#460=AXIS2_PLACEMENT_3D('',#457,#458,#459);
#462=CURVE_STYLE('',#20,POSITIVE_LENGTH_MEASURE(2.E-2),#3);
#463=PRESENTATION_STYLE_ASSIGNMENT((#462));
#464=STYLED_ITEM('',(#463),#461);
#465=CARTESIAN_POINT('',(6.75E-1,1.0775E-1,-1.146610349944E0));
#466=DIRECTION('',(0.E0,-1.E0,0.E0));
#467=DIRECTION('',(1.E0,0.E0,0.E0));
#468=AXIS2_PLACEMENT_3D('',#465,#466,#467);
#470=CURVE_STYLE('',#20,POSITIVE_LENGTH_MEASURE(2.E-2),#3);
#471=PRESENTATION_STYLE_ASSIGNMENT((#470));
#472=STYLED_ITEM('',(#471),#469);
#473=CARTESIAN_POINT('',(3.437412164417E0,1.0775E-1,-7.867988280480E-1));
#474=DIRECTION('',(0.E0,1.E0,0.E0));
#475=DIRECTION('',(0.E0,0.E0,-1.E0));
#476=AXIS2_PLACEMENT_3D('',#473,#474,#475);
#478=CURVE_STYLE('',#20,POSITIVE_LENGTH_MEASURE(2.E-2),#3);
#479=PRESENTATION_STYLE_ASSIGNMENT((#478));
#480=STYLED_ITEM('',(#479),#477);
#481=DIRECTION('',(-1.E0,0.E0,0.E0));
#482=VECTOR('',#481,6.258783558290E-2);
#483=CARTESIAN_POINT('',(3.5E0,1.0775E-1,-1.029981248916E0));
#484=LINE('',#483,#482);
#485=CURVE_STYLE('',#20,POSITIVE_LENGTH_MEASURE(2.E-2),#3);
#486=PRESENTATION_STYLE_ASSIGNMENT((#485));
#487=STYLED_ITEM('',(#486),#484);
#488=DIRECTION('',(1.E0,0.E0,0.E0));
#489=VECTOR('',#488,3.186890695831E0);
#490=CARTESIAN_POINT('',(0.E0,1.0775E-1,-8.099469603210E-1));
#491=LINE('',#490,#489);
#492=CURVE_STYLE('',#20,POSITIVE_LENGTH_MEASURE(2.E-2),#3);
#493=PRESENTATION_STYLE_ASSIGNMENT((#492));
#494=STYLED_ITEM('',(#493),#491);
#495=DIRECTION('',(-3.441833928029E-1,0.E0,9.389024401495E-1));
#496=VECTOR('',#495,6.449149115171E-2);
#497=CARTESIAN_POINT('',(3.209087596063E0,1.0775E-1,-8.704981787323E-1));
#498=LINE('',#497,#496);
#499=CURVE_STYLE('',#20,POSITIVE_LENGTH_MEASURE(2.E-2),#3);
#500=PRESENTATION_STYLE_ASSIGNMENT((#499));
#501=STYLED_ITEM('',(#500),#498);
#502=DIRECTION('',(0.E0,1.E0,0.E0));
#503=VECTOR('',#502,8.31E-1);
#504=CARTESIAN_POINT('',(3.336614E0,1.0775E-1,-1.146610349944E0));
#505=LINE('',#504,#503);
#506=CURVE_STYLE('',#20,POSITIVE_LENGTH_MEASURE(2.E-2),#3);
#507=PRESENTATION_STYLE_ASSIGNMENT((#506));
#508=STYLED_ITEM('',(#507),#505);
#509=DIRECTION('',(0.E0,-1.E0,0.E0));
#510=VECTOR('',#509,8.31E-1);
#511=CARTESIAN_POINT('',(3.163386E0,9.3875E-1,-1.146610349944E0));
#512=LINE('',#511,#510);
#513=CURVE_STYLE('',#20,POSITIVE_LENGTH_MEASURE(2.E-2),#3);
#514=PRESENTATION_STYLE_ASSIGNMENT((#513));
#515=STYLED_ITEM('',(#514),#512);
#516=DIRECTION('',(0.E0,1.E0,0.E0));
#517=VECTOR('',#516,8.31E-1);
#518=CARTESIAN_POINT('',(2.486614E0,1.0775E-1,-1.146610349944E0));
#519=LINE('',#518,#517);
#520=CURVE_STYLE('',#20,POSITIVE_LENGTH_MEASURE(2.E-2),#3);
#521=PRESENTATION_STYLE_ASSIGNMENT((#520));
#522=STYLED_ITEM('',(#521),#519);
#523=DIRECTION('',(0.E0,-1.E0,0.E0));
#524=VECTOR('',#523,8.31E-1);
#525=CARTESIAN_POINT('',(2.313386E0,9.3875E-1,-1.146610349944E0));
#526=LINE('',#525,#524);
#527=CURVE_STYLE('',#20,POSITIVE_LENGTH_MEASURE(2.E-2),#3);
#528=PRESENTATION_STYLE_ASSIGNMENT((#527));
#529=STYLED_ITEM('',(#528),#526);
#530=DIRECTION('',(0.E0,1.E0,0.E0));
#531=VECTOR('',#530,8.31E-1);
#532=CARTESIAN_POINT('',(2.911614E0,1.0775E-1,-1.146610349944E0));
#533=LINE('',#532,#531);
#534=CURVE_STYLE('',#20,POSITIVE_LENGTH_MEASURE(2.E-2),#3);
#535=PRESENTATION_STYLE_ASSIGNMENT((#534));
#536=STYLED_ITEM('',(#535),#533);
#537=DIRECTION('',(0.E0,-1.E0,0.E0));
#538=VECTOR('',#537,8.31E-1);
#539=CARTESIAN_POINT('',(2.738386E0,9.3875E-1,-1.146610349944E0));
#540=LINE('',#539,#538);
#541=CURVE_STYLE('',#20,POSITIVE_LENGTH_MEASURE(2.E-2),#3);
#542=PRESENTATION_STYLE_ASSIGNMENT((#541));
#543=STYLED_ITEM('',(#542),#540);
#544=DIRECTION('',(0.E0,1.E0,0.E0));
#545=VECTOR('',#544,8.31E-1);
#546=CARTESIAN_POINT('',(3.36614E-1,1.0775E-1,-1.146610349944E0));
#547=LINE('',#546,#545);
#548=CURVE_STYLE('',#20,POSITIVE_LENGTH_MEASURE(2.E-2),#3);
#549=PRESENTATION_STYLE_ASSIGNMENT((#548));
#550=STYLED_ITEM('',(#549),#547);
#551=DIRECTION('',(0.E0,-1.E0,0.E0));
#552=VECTOR('',#551,8.31E-1);
#553=CARTESIAN_POINT('',(1.63386E-1,9.3875E-1,-1.146610349944E0));
#554=LINE('',#553,#552);
#555=CURVE_STYLE('',#20,POSITIVE_LENGTH_MEASURE(2.E-2),#3);
#556=PRESENTATION_STYLE_ASSIGNMENT((#555));
#557=STYLED_ITEM('',(#556),#554);
#558=DIRECTION('',(0.E0,1.E0,0.E0));
#559=VECTOR('',#558,8.31E-1);
#560=CARTESIAN_POINT('',(1.186614E0,1.0775E-1,-1.146610349944E0));
#561=LINE('',#560,#559);
#562=CURVE_STYLE('',#20,POSITIVE_LENGTH_MEASURE(2.E-2),#3);
#563=PRESENTATION_STYLE_ASSIGNMENT((#562));
#564=STYLED_ITEM('',(#563),#561);
#565=DIRECTION('',(0.E0,-1.E0,0.E0));
#566=VECTOR('',#565,8.31E-1);
#567=CARTESIAN_POINT('',(1.013386E0,9.3875E-1,-1.146610349944E0));
#568=LINE('',#567,#566);
#569=CURVE_STYLE('',#20,POSITIVE_LENGTH_MEASURE(2.E-2),#3);
#570=PRESENTATION_STYLE_ASSIGNMENT((#569));
#571=STYLED_ITEM('',(#570),#568);
#572=DIRECTION('',(0.E0,-1.E0,0.E0));
#573=VECTOR('',#572,8.31E-1);
#574=CARTESIAN_POINT('',(3.437412164417E0,9.3875E-1,-1.029981248916E0));
#575=LINE('',#574,#573);
#576=CURVE_STYLE('',#20,POSITIVE_LENGTH_MEASURE(2.E-2),#3);
#577=PRESENTATION_STYLE_ASSIGNMENT((#576));
#578=STYLED_ITEM('',(#577),#575);
#579=DIRECTION('',(0.E0,1.E0,0.E0));
#580=VECTOR('',#579,5.678278051220E-2);
#581=CARTESIAN_POINT('',(3.265812545417E0,8.819672194878E-1,
-9.591103499437E-1));
#582=LINE('',#581,#580);
#583=CURVE_STYLE('',#20,POSITIVE_LENGTH_MEASURE(2.E-2),#3);
#584=PRESENTATION_STYLE_ASSIGNMENT((#583));
#585=STYLED_ITEM('',(#584),#582);
#586=DIRECTION('',(0.E0,-1.E0,0.E0));
#587=VECTOR('',#586,5.678278051220E-2);
#588=CARTESIAN_POINT('',(2.2E0,9.3875E-1,-9.591103499437E-1));
#589=LINE('',#588,#587);
#590=CURVE_STYLE('',#20,POSITIVE_LENGTH_MEASURE(2.E-2),#3);
#591=PRESENTATION_STYLE_ASSIGNMENT((#590));
#592=STYLED_ITEM('',(#591),#589);
#593=DIRECTION('',(0.E0,-1.E0,0.E0));
#594=VECTOR('',#593,5.678278051219E-2);
#595=CARTESIAN_POINT('',(2.2E0,9.3875E-1,-1.334110349944E0));
#596=LINE('',#595,#594);
#597=CURVE_STYLE('',#20,POSITIVE_LENGTH_MEASURE(2.E-2),#3);
#598=PRESENTATION_STYLE_ASSIGNMENT((#597));
#599=STYLED_ITEM('',(#598),#596);
#600=DIRECTION('',(0.E0,-1.E0,0.E0));
#601=VECTOR('',#600,2.232609734344E-2);
#602=CARTESIAN_POINT('',(3.45E0,9.3875E-1,-1.029981248916E0));
#603=LINE('',#602,#601);
#604=CURVE_STYLE('',#20,POSITIVE_LENGTH_MEASURE(2.E-2),#3);
#605=PRESENTATION_STYLE_ASSIGNMENT((#604));
#606=STYLED_ITEM('',(#605),#603);
#607=DIRECTION('',(0.E0,-1.E0,0.E0));
#608=VECTOR('',#607,5.678278051219E-2);
#609=CARTESIAN_POINT('',(3.45E0,9.3875E-1,-1.334110349944E0));
#610=LINE('',#609,#608);
#611=CURVE_STYLE('',#20,POSITIVE_LENGTH_MEASURE(2.E-2),#3);
#612=PRESENTATION_STYLE_ASSIGNMENT((#611));
#613=STYLED_ITEM('',(#612),#610);
#614=DIRECTION('',(0.E0,1.E0,0.E0));
#615=VECTOR('',#614,8.086739026566E-1);
#616=CARTESIAN_POINT('',(3.5E0,1.0775E-1,-1.029981248916E0));
#617=LINE('',#616,#615);
#618=CURVE_STYLE('',#20,POSITIVE_LENGTH_MEASURE(2.E-2),#3);
#619=PRESENTATION_STYLE_ASSIGNMENT((#618));
#620=STYLED_ITEM('',(#619),#617);
#621=CARTESIAN_POINT('',(3.5E0,5.864274590494E-1,-1.146610349944E0));
#622=DIRECTION('',(1.E0,0.E0,0.E0));
#623=DIRECTION('',(0.E0,2.734177052292E-1,-9.618953989219E-1));
#624=AXIS2_PLACEMENT_3D('',#621,#622,#623);
#626=CURVE_STYLE('',#20,POSITIVE_LENGTH_MEASURE(2.E-2),#3);
#627=PRESENTATION_STYLE_ASSIGNMENT((#626));
#628=STYLED_ITEM('',(#627),#625);
#629=DIRECTION('',(0.E0,1.E0,0.E0));
#630=VECTOR('',#629,1.913923936605E-1);
#631=CARTESIAN_POINT('',(3.5E0,4.907312622191E-1,-1.483273739566E0));
#632=LINE('',#631,#630);
#633=CURVE_STYLE('',#20,POSITIVE_LENGTH_MEASURE(2.E-2),#3);
#634=PRESENTATION_STYLE_ASSIGNMENT((#633));
#635=STYLED_ITEM('',(#634),#632);
#636=DIRECTION('',(0.E0,1.E0,0.E0));
#637=VECTOR('',#636,3.829812622191E-1);
#638=CARTESIAN_POINT('',(3.5E0,1.0775E-1,-1.483273739566E0));
#639=LINE('',#638,#637);
#640=CURVE_STYLE('',#20,POSITIVE_LENGTH_MEASURE(2.E-2),#3);
#641=PRESENTATION_STYLE_ASSIGNMENT((#640));
#642=STYLED_ITEM('',(#641),#639);
#643=DIRECTION('',(0.E0,0.E0,-1.E0));
#644=VECTOR('',#643,4.532924906507E-1);
#645=CARTESIAN_POINT('',(3.5E0,1.0775E-1,-1.029981248916E0));
#646=LINE('',#645,#644);
#647=CURVE_STYLE('',#20,POSITIVE_LENGTH_MEASURE(2.E-2),#3);
#648=PRESENTATION_STYLE_ASSIGNMENT((#647));
#649=STYLED_ITEM('',(#648),#646);
#650=DIRECTION('',(1.E0,0.E0,0.E0));
#651=VECTOR('',#650,3.5E0);
#652=CARTESIAN_POINT('',(0.E0,4.907312622191E-1,-1.483273739566E0));
#653=LINE('',#652,#651);
#654=CURVE_STYLE('',#20,POSITIVE_LENGTH_MEASURE(2.E-2),#3);
#655=PRESENTATION_STYLE_ASSIGNMENT((#654));
#656=STYLED_ITEM('',(#655),#653);
#657=DIRECTION('',(1.E0,0.E0,0.E0));
#658=VECTOR('',#657,3.5E0);
#659=CARTESIAN_POINT('',(0.E0,1.0775E-1,-1.483273739566E0));
#660=LINE('',#659,#658);
#661=CURVE_STYLE('',#20,POSITIVE_LENGTH_MEASURE(2.E-2),#3);
#662=PRESENTATION_STYLE_ASSIGNMENT((#661));
#663=STYLED_ITEM('',(#662),#660);
#664=CARTESIAN_POINT('',(0.E0,4.907312622191E-1,-1.483273739566E0));
#665=CARTESIAN_POINT('',(0.E0,6.821236558796E-1,-1.483273739566E0));
#666=VERTEX_POINT('',#664);
#667=VERTEX_POINT('',#665);
#668=CARTESIAN_POINT('',(0.E0,6.821236558796E-1,-8.099469603210E-1));
#669=VERTEX_POINT('',#668);
#670=CARTESIAN_POINT('',(3.5E0,4.907312622191E-1,-1.483273739566E0));
#671=CARTESIAN_POINT('',(3.5E0,6.821236558796E-1,-1.483273739566E0));
#672=VERTEX_POINT('',#670);
#673=VERTEX_POINT('',#671);
#674=CARTESIAN_POINT('',(0.E0,1.0775E-1,-8.099469603210E-1));
#675=CARTESIAN_POINT('',(0.E0,1.0775E-1,-1.483273739566E0));
#676=VERTEX_POINT('',#674);
#677=VERTEX_POINT('',#675);
#678=CARTESIAN_POINT('',(3.5E0,1.0775E-1,-1.483273739566E0));
#679=VERTEX_POINT('',#678);
#680=CARTESIAN_POINT('',(3.163386E0,1.0775E-1,-1.146610349944E0));
#681=CARTESIAN_POINT('',(3.336614E0,1.0775E-1,-1.146610349944E0));
#682=VERTEX_POINT('',#680);
#683=VERTEX_POINT('',#681);
#684=CARTESIAN_POINT('',(2.313386E0,1.0775E-1,-1.146610349944E0));
#685=CARTESIAN_POINT('',(2.486614E0,1.0775E-1,-1.146610349944E0));
#686=VERTEX_POINT('',#684);
#687=VERTEX_POINT('',#685);
#688=CARTESIAN_POINT('',(2.738386E0,1.0775E-1,-1.146610349944E0));
#689=CARTESIAN_POINT('',(2.911614E0,1.0775E-1,-1.146610349944E0));
#690=VERTEX_POINT('',#688);
#691=VERTEX_POINT('',#689);
#692=CARTESIAN_POINT('',(1.63386E-1,1.0775E-1,-1.146610349944E0));
#693=CARTESIAN_POINT('',(3.36614E-1,1.0775E-1,-1.146610349944E0));
#694=VERTEX_POINT('',#692);
#695=VERTEX_POINT('',#693);
#696=CARTESIAN_POINT('',(1.013386E0,1.0775E-1,-1.146610349944E0));
#697=CARTESIAN_POINT('',(1.186614E0,1.0775E-1,-1.146610349944E0));
#698=VERTEX_POINT('',#696);
#699=VERTEX_POINT('',#697);
#700=CARTESIAN_POINT('',(5.88386E-1,1.0775E-1,-1.146610349944E0));
#701=CARTESIAN_POINT('',(7.61614E-1,1.0775E-1,-1.146610349944E0));
#702=VERTEX_POINT('',#700);
#703=VERTEX_POINT('',#701);
#704=CARTESIAN_POINT('',(7.61614E-1,9.3875E-1,-1.146610349944E0));
#705=CARTESIAN_POINT('',(5.88386E-1,9.3875E-1,-1.146610349944E0));
#706=VERTEX_POINT('',#704);
#707=VERTEX_POINT('',#705);
#708=CARTESIAN_POINT('',(1.186614E0,9.3875E-1,-1.146610349944E0));
#709=CARTESIAN_POINT('',(1.013386E0,9.3875E-1,-1.146610349944E0));
#710=VERTEX_POINT('',#708);
#711=VERTEX_POINT('',#709);
#712=CARTESIAN_POINT('',(3.36614E-1,9.3875E-1,-1.146610349944E0));
#713=CARTESIAN_POINT('',(1.63386E-1,9.3875E-1,-1.146610349944E0));
#714=VERTEX_POINT('',#712);
#715=VERTEX_POINT('',#713);
#716=CARTESIAN_POINT('',(2.486614E0,9.3875E-1,-1.146610349944E0));
#717=CARTESIAN_POINT('',(2.313386E0,9.3875E-1,-1.146610349944E0));
#718=VERTEX_POINT('',#716);
#719=VERTEX_POINT('',#717);
#720=CARTESIAN_POINT('',(2.911614E0,9.3875E-1,-1.146610349944E0));
#721=CARTESIAN_POINT('',(2.738386E0,9.3875E-1,-1.146610349944E0));
#722=VERTEX_POINT('',#720);
#723=VERTEX_POINT('',#721);
#724=CARTESIAN_POINT('',(3.336614E0,9.3875E-1,-1.146610349944E0));
#725=CARTESIAN_POINT('',(3.163386E0,9.3875E-1,-1.146610349944E0));
#726=VERTEX_POINT('',#724);
#727=VERTEX_POINT('',#725);
#728=CARTESIAN_POINT('',(1.3E0,9.3875E-1,-1.334110349944E0));
#729=CARTESIAN_POINT('',(1.3E0,9.3875E-1,-9.591103499437E-1));
#730=VERTEX_POINT('',#728);
#731=VERTEX_POINT('',#729);
#732=CARTESIAN_POINT('',(5.E-2,9.3875E-1,-9.591103499437E-1));
#733=VERTEX_POINT('',#732);
#734=CARTESIAN_POINT('',(5.E-2,9.3875E-1,-1.334110349944E0));
#735=VERTEX_POINT('',#734);
#736=CARTESIAN_POINT('',(2.2E0,9.3875E-1,-9.591103499437E-1));
#737=CARTESIAN_POINT('',(2.2E0,9.3875E-1,-1.334110349944E0));
#738=VERTEX_POINT('',#736);
#739=VERTEX_POINT('',#737);
#740=CARTESIAN_POINT('',(3.45E0,9.3875E-1,-1.334110349944E0));
#741=VERTEX_POINT('',#740);
#742=CARTESIAN_POINT('',(1.3E0,8.819672194878E-1,-1.334110349944E0));
#743=CARTESIAN_POINT('',(1.3E0,8.819672194878E-1,-9.591103499437E-1));
#744=VERTEX_POINT('',#742);
#745=VERTEX_POINT('',#743);
#746=CARTESIAN_POINT('',(5.E-2,8.819672194878E-1,-9.591103499437E-1));
#747=VERTEX_POINT('',#746);
#748=CARTESIAN_POINT('',(5.E-2,8.819672194878E-1,-1.334110349944E0));
#749=VERTEX_POINT('',#748);
#750=CARTESIAN_POINT('',(2.2E0,8.819672194878E-1,-1.334110349944E0));
#751=CARTESIAN_POINT('',(2.2E0,8.819672194878E-1,-9.591103499437E-1));
#752=VERTEX_POINT('',#750);
#753=VERTEX_POINT('',#751);
#754=CARTESIAN_POINT('',(3.45E0,8.819672194878E-1,-1.334110349944E0));
#755=VERTEX_POINT('',#754);
#756=CARTESIAN_POINT('',(3.5E0,1.0775E-1,-1.029981248916E0));
#757=CARTESIAN_POINT('',(3.5E0,9.164239026566E-1,-1.029981248916E0));
#758=VERTEX_POINT('',#756);
#759=VERTEX_POINT('',#757);
#760=VERTEX_POINT('',#104);
#761=VERTEX_POINT('',#107);
#762=CARTESIAN_POINT('',(3.45E0,9.164239026566E-1,-1.029981248916E0));
#763=VERTEX_POINT('',#762);
#764=CARTESIAN_POINT('',(3.437412164417E0,1.0775E-1,-1.029981248916E0));
#765=CARTESIAN_POINT('',(3.209087596063E0,1.0775E-1,-8.704981787323E-1));
#766=VERTEX_POINT('',#764);
#767=VERTEX_POINT('',#765);
#768=CARTESIAN_POINT('',(3.186890695831E0,1.0775E-1,-8.099469603210E-1));
#769=VERTEX_POINT('',#768);
#770=CARTESIAN_POINT('',(3.437412164417E0,9.3875E-1,-1.029981248916E0));
#771=CARTESIAN_POINT('',(3.265812545417E0,9.3875E-1,-9.591103499437E-1));
#772=VERTEX_POINT('',#770);
#773=VERTEX_POINT('',#771);
#774=CARTESIAN_POINT('',(3.45E0,9.3875E-1,-1.029981248916E0));
#775=VERTEX_POINT('',#774);
#776=CARTESIAN_POINT('',(3.265812545417E0,8.819672194878E-1,
-9.591103499437E-1));
#777=VERTEX_POINT('',#776);
#778=CARTESIAN_POINT('',(0.E0,0.E0,0.E0));
#779=DIRECTION('',(1.E0,0.E0,0.E0));
#780=DIRECTION('',(0.E0,0.E0,-1.E0));
#781=AXIS2_PLACEMENT_3D('',#778,#779,#780);
#782=PLANE('',#781);
#784=ORIENTED_EDGE('',*,*,#783,.F.);
#786=ORIENTED_EDGE('',*,*,#785,.T.);
#788=ORIENTED_EDGE('',*,*,#787,.T.);
#790=ORIENTED_EDGE('',*,*,#789,.T.);
#792=ORIENTED_EDGE('',*,*,#791,.T.);
#793=EDGE_LOOP('',(#784,#786,#788,#790,#792));
#794=FACE_OUTER_BOUND('',#793,.F.);
#796=CARTESIAN_POINT('',(0.E0,6.821236558796E-1,-8.099469603210E-1));
#797=DIRECTION('',(0.E0,0.E0,1.E0));
#798=DIRECTION('',(0.E0,-1.E0,0.E0));
#799=AXIS2_PLACEMENT_3D('',#796,#797,#798);
#800=PLANE('',#799);
#802=ORIENTED_EDGE('',*,*,#801,.T.);
#804=ORIENTED_EDGE('',*,*,#803,.F.);
#805=ORIENTED_EDGE('',*,*,#783,.T.);
#807=ORIENTED_EDGE('',*,*,#806,.T.);
#808=EDGE_LOOP('',(#802,#804,#805,#807));
#809=FACE_OUTER_BOUND('',#808,.F.);
#811=CARTESIAN_POINT('',(3.209087596063E0,9.3875E-1,-8.704981787323E-1));
#812=DIRECTION('',(-9.389024401495E-1,0.E0,-3.441833928029E-1));
#813=DIRECTION('',(-3.441833928029E-1,0.E0,9.389024401495E-1));
#814=AXIS2_PLACEMENT_3D('',#811,#812,#813);
#815=PLANE('',#814);
#816=ORIENTED_EDGE('',*,*,#801,.F.);
#818=ORIENTED_EDGE('',*,*,#817,.F.);
#820=ORIENTED_EDGE('',*,*,#819,.T.);
#822=ORIENTED_EDGE('',*,*,#821,.T.);
#823=EDGE_LOOP('',(#816,#818,#820,#822));
#824=FACE_OUTER_BOUND('',#823,.F.);
#826=CARTESIAN_POINT('',(0.E0,5.864274590494E-1,-1.146610349944E0));
#827=DIRECTION('',(1.E0,0.E0,0.E0));
#828=DIRECTION('',(0.E0,0.E0,-1.E0));
#829=AXIS2_PLACEMENT_3D('',#826,#827,#828);
#830=CYLINDRICAL_SURFACE('',#829,3.5E-1);
#831=ORIENTED_EDGE('',*,*,#817,.T.);
#832=ORIENTED_EDGE('',*,*,#806,.F.);
#833=ORIENTED_EDGE('',*,*,#791,.F.);
#835=ORIENTED_EDGE('',*,*,#834,.T.);
#837=ORIENTED_EDGE('',*,*,#836,.T.);
#839=ORIENTED_EDGE('',*,*,#838,.F.);
#841=ORIENTED_EDGE('',*,*,#840,.F.);
#843=ORIENTED_EDGE('',*,*,#842,.F.);
#845=ORIENTED_EDGE('',*,*,#844,.T.);
#847=ORIENTED_EDGE('',*,*,#846,.T.);
#849=ORIENTED_EDGE('',*,*,#848,.F.);
#850=EDGE_LOOP('',(#831,#832,#833,#835,#837,#839,#841,#843,#845,#847,#849));
#851=FACE_OUTER_BOUND('',#850,.F.);
#853=ORIENTED_EDGE('',*,*,#852,.F.);
#855=ORIENTED_EDGE('',*,*,#854,.F.);
#857=ORIENTED_EDGE('',*,*,#856,.T.);
#859=ORIENTED_EDGE('',*,*,#858,.T.);
#860=EDGE_LOOP('',(#853,#855,#857,#859));
#861=FACE_BOUND('',#860,.F.);
#863=CARTESIAN_POINT('',(1.3E0,9.3875E-1,-1.334110349944E0));
#864=DIRECTION('',(1.E0,0.E0,0.E0));
#865=DIRECTION('',(0.E0,0.E0,1.E0));
#866=AXIS2_PLACEMENT_3D('',#863,#864,#865);
#867=PLANE('',#866);
#868=ORIENTED_EDGE('',*,*,#852,.T.);
#870=ORIENTED_EDGE('',*,*,#869,.F.);
#872=ORIENTED_EDGE('',*,*,#871,.F.);
#874=ORIENTED_EDGE('',*,*,#873,.T.);
#875=EDGE_LOOP('',(#868,#870,#872,#874));
#876=FACE_OUTER_BOUND('',#875,.F.);
#878=CARTESIAN_POINT('',(1.3E0,9.3875E-1,-9.591103499437E-1));
#879=DIRECTION('',(0.E0,0.E0,1.E0));
#880=DIRECTION('',(-1.E0,0.E0,0.E0));
#881=AXIS2_PLACEMENT_3D('',#878,#879,#880);
#882=PLANE('',#881);
#883=ORIENTED_EDGE('',*,*,#858,.F.);
#885=ORIENTED_EDGE('',*,*,#884,.F.);
#887=ORIENTED_EDGE('',*,*,#886,.F.);
#888=ORIENTED_EDGE('',*,*,#869,.T.);
#889=EDGE_LOOP('',(#883,#885,#887,#888));
#890=FACE_OUTER_BOUND('',#889,.F.);
#892=CARTESIAN_POINT('',(5.E-2,9.3875E-1,-9.591103499437E-1));
#893=DIRECTION('',(-1.E0,0.E0,0.E0));
#894=DIRECTION('',(0.E0,0.E0,-1.E0));
#895=AXIS2_PLACEMENT_3D('',#892,#893,#894);
#896=PLANE('',#895);
#897=ORIENTED_EDGE('',*,*,#856,.F.);
#899=ORIENTED_EDGE('',*,*,#898,.F.);
#901=ORIENTED_EDGE('',*,*,#900,.F.);
#902=ORIENTED_EDGE('',*,*,#884,.T.);
#903=EDGE_LOOP('',(#897,#899,#901,#902));
#904=FACE_OUTER_BOUND('',#903,.F.);
#906=CARTESIAN_POINT('',(5.E-2,9.3875E-1,-1.334110349944E0));
#907=DIRECTION('',(0.E0,0.E0,-1.E0));
#908=DIRECTION('',(1.E0,0.E0,0.E0));
#909=AXIS2_PLACEMENT_3D('',#906,#907,#908);
#910=PLANE('',#909);
#911=ORIENTED_EDGE('',*,*,#854,.T.);
#912=ORIENTED_EDGE('',*,*,#873,.F.);
#914=ORIENTED_EDGE('',*,*,#913,.F.);
#915=ORIENTED_EDGE('',*,*,#898,.T.);
#916=EDGE_LOOP('',(#911,#912,#914,#915));
#917=FACE_OUTER_BOUND('',#916,.F.);
#919=CARTESIAN_POINT('',(0.E0,9.3875E-1,0.E0));
#920=DIRECTION('',(0.E0,-1.E0,0.E0));
#921=DIRECTION('',(0.E0,0.E0,1.E0));
#922=AXIS2_PLACEMENT_3D('',#919,#920,#921);
#923=PLANE('',#922);
#924=ORIENTED_EDGE('',*,*,#871,.T.);
#925=ORIENTED_EDGE('',*,*,#886,.T.);
#926=ORIENTED_EDGE('',*,*,#900,.T.);
#927=ORIENTED_EDGE('',*,*,#913,.T.);
#928=EDGE_LOOP('',(#924,#925,#926,#927));
#929=FACE_OUTER_BOUND('',#928,.F.);
#931=ORIENTED_EDGE('',*,*,#930,.T.);
#933=ORIENTED_EDGE('',*,*,#932,.T.);
#934=EDGE_LOOP('',(#931,#933));
#935=FACE_BOUND('',#934,.F.);
#937=ORIENTED_EDGE('',*,*,#936,.T.);
#939=ORIENTED_EDGE('',*,*,#938,.T.);
#940=EDGE_LOOP('',(#937,#939));
#941=FACE_BOUND('',#940,.F.);
#943=ORIENTED_EDGE('',*,*,#942,.T.);
#945=ORIENTED_EDGE('',*,*,#944,.T.);
#946=EDGE_LOOP('',(#943,#945));
#947=FACE_BOUND('',#946,.F.);
#949=CARTESIAN_POINT('',(0.E0,9.3875E-1,0.E0));
#950=DIRECTION('',(0.E0,-1.E0,0.E0));
#951=DIRECTION('',(0.E0,0.E0,1.E0));
#952=AXIS2_PLACEMENT_3D('',#949,#950,#951);
#953=PLANE('',#952);
#955=ORIENTED_EDGE('',*,*,#954,.T.);
#957=ORIENTED_EDGE('',*,*,#956,.T.);
#959=ORIENTED_EDGE('',*,*,#958,.T.);
#961=ORIENTED_EDGE('',*,*,#960,.T.);
#963=ORIENTED_EDGE('',*,*,#962,.T.);
#965=ORIENTED_EDGE('',*,*,#964,.T.);
#966=EDGE_LOOP('',(#955,#957,#959,#961,#963,#965));
#967=FACE_OUTER_BOUND('',#966,.F.);
#969=ORIENTED_EDGE('',*,*,#968,.T.);
#971=ORIENTED_EDGE('',*,*,#970,.T.);
#972=EDGE_LOOP('',(#969,#971));
#973=FACE_BOUND('',#972,.F.);
#975=ORIENTED_EDGE('',*,*,#974,.T.);
#977=ORIENTED_EDGE('',*,*,#976,.T.);
#978=EDGE_LOOP('',(#975,#977));
#979=FACE_BOUND('',#978,.F.);
#981=ORIENTED_EDGE('',*,*,#980,.T.);
#983=ORIENTED_EDGE('',*,*,#982,.T.);
#984=EDGE_LOOP('',(#981,#983));
#985=FACE_BOUND('',#984,.F.);
#987=CARTESIAN_POINT('',(6.75E-1,1.0775E-1,-1.146610349944E0));
#988=DIRECTION('',(0.E0,-1.E0,0.E0));
#989=DIRECTION('',(-1.E0,0.E0,0.E0));
#990=AXIS2_PLACEMENT_3D('',#987,#988,#989);
#991=CYLINDRICAL_SURFACE('',#990,8.6614E-2);
#993=ORIENTED_EDGE('',*,*,#992,.F.);
#994=ORIENTED_EDGE('',*,*,#930,.F.);
#996=ORIENTED_EDGE('',*,*,#995,.F.);
#998=ORIENTED_EDGE('',*,*,#997,.F.);
#999=EDGE_LOOP('',(#993,#994,#996,#998));
#1000=FACE_OUTER_BOUND('',#999,.F.);
#1002=CARTESIAN_POINT('',(6.75E-1,1.0775E-1,-1.146610349944E0));
#1003=DIRECTION('',(0.E0,-1.E0,0.E0));
#1004=DIRECTION('',(-1.E0,0.E0,0.E0));
#1005=AXIS2_PLACEMENT_3D('',#1002,#1003,#1004);
#1006=CYLINDRICAL_SURFACE('',#1005,8.6614E-2);
#1007=ORIENTED_EDGE('',*,*,#995,.T.);
#1008=ORIENTED_EDGE('',*,*,#932,.F.);
#1009=ORIENTED_EDGE('',*,*,#992,.T.);
#1011=ORIENTED_EDGE('',*,*,#1010,.F.);
#1012=EDGE_LOOP('',(#1007,#1008,#1009,#1011));
#1013=FACE_OUTER_BOUND('',#1012,.F.);
#1015=CARTESIAN_POINT('',(0.E0,1.0775E-1,-8.099469603210E-1));
#1016=DIRECTION('',(0.E0,-1.E0,0.E0));
#1017=DIRECTION('',(0.E0,0.E0,-1.E0));
#1018=AXIS2_PLACEMENT_3D('',#1015,#1016,#1017);
#1019=PLANE('',#1018);
#1021=ORIENTED_EDGE('',*,*,#1020,.F.);
#1023=ORIENTED_EDGE('',*,*,#1022,.F.);
#1025=ORIENTED_EDGE('',*,*,#1024,.T.);
#1027=ORIENTED_EDGE('',*,*,#1026,.F.);
#1028=ORIENTED_EDGE('',*,*,#785,.F.);
#1029=ORIENTED_EDGE('',*,*,#803,.T.);
#1030=ORIENTED_EDGE('',*,*,#821,.F.);
#1031=EDGE_LOOP('',(#1021,#1023,#1025,#1027,#1028,#1029,#1030));
#1032=FACE_OUTER_BOUND('',#1031,.F.);
#1034=ORIENTED_EDGE('',*,*,#1033,.T.);
#1036=ORIENTED_EDGE('',*,*,#1035,.T.);
#1037=EDGE_LOOP('',(#1034,#1036));
#1038=FACE_BOUND('',#1037,.F.);
#1040=ORIENTED_EDGE('',*,*,#1039,.T.);
#1042=ORIENTED_EDGE('',*,*,#1041,.T.);
#1043=EDGE_LOOP('',(#1040,#1042));
#1044=FACE_BOUND('',#1043,.F.);
#1046=ORIENTED_EDGE('',*,*,#1045,.T.);
#1048=ORIENTED_EDGE('',*,*,#1047,.T.);
#1049=EDGE_LOOP('',(#1046,#1048));
#1050=FACE_BOUND('',#1049,.F.);
#1052=ORIENTED_EDGE('',*,*,#1051,.T.);
#1054=ORIENTED_EDGE('',*,*,#1053,.T.);
#1055=EDGE_LOOP('',(#1052,#1054));
#1056=FACE_BOUND('',#1055,.F.);
#1057=ORIENTED_EDGE('',*,*,#997,.T.);
#1058=ORIENTED_EDGE('',*,*,#1010,.T.);
#1059=EDGE_LOOP('',(#1057,#1058));
#1060=FACE_BOUND('',#1059,.F.);
#1062=ORIENTED_EDGE('',*,*,#1061,.T.);
#1064=ORIENTED_EDGE('',*,*,#1063,.T.);
#1065=EDGE_LOOP('',(#1062,#1064));
#1066=FACE_BOUND('',#1065,.F.);
#1068=CARTESIAN_POINT('',(3.25E0,1.0775E-1,-1.146610349944E0));
#1069=DIRECTION('',(0.E0,-1.E0,0.E0));
#1070=DIRECTION('',(-1.E0,0.E0,0.E0));
#1071=AXIS2_PLACEMENT_3D('',#1068,#1069,#1070);
#1072=CYLINDRICAL_SURFACE('',#1071,8.6614E-2);
#1074=ORIENTED_EDGE('',*,*,#1073,.F.);
#1075=ORIENTED_EDGE('',*,*,#980,.F.);
#1077=ORIENTED_EDGE('',*,*,#1076,.F.);
#1078=ORIENTED_EDGE('',*,*,#1061,.F.);
#1079=EDGE_LOOP('',(#1074,#1075,#1077,#1078));
#1080=FACE_OUTER_BOUND('',#1079,.F.);
#1082=CARTESIAN_POINT('',(3.25E0,1.0775E-1,-1.146610349944E0));
#1083=DIRECTION('',(0.E0,-1.E0,0.E0));
#1084=DIRECTION('',(-1.E0,0.E0,0.E0));
#1085=AXIS2_PLACEMENT_3D('',#1082,#1083,#1084);
#1086=CYLINDRICAL_SURFACE('',#1085,8.6614E-2);
#1087=ORIENTED_EDGE('',*,*,#1076,.T.);
#1088=ORIENTED_EDGE('',*,*,#982,.F.);
#1089=ORIENTED_EDGE('',*,*,#1073,.T.);
#1090=ORIENTED_EDGE('',*,*,#1063,.F.);
#1091=EDGE_LOOP('',(#1087,#1088,#1089,#1090));
#1092=FACE_OUTER_BOUND('',#1091,.F.);
#1094=CARTESIAN_POINT('',(2.4E0,1.0775E-1,-1.146610349944E0));
#1095=DIRECTION('',(0.E0,-1.E0,0.E0));
#1096=DIRECTION('',(-1.E0,0.E0,0.E0));
#1097=AXIS2_PLACEMENT_3D('',#1094,#1095,#1096);
#1098=CYLINDRICAL_SURFACE('',#1097,8.6614E-2);
#1100=ORIENTED_EDGE('',*,*,#1099,.F.);
#1101=ORIENTED_EDGE('',*,*,#968,.F.);
#1103=ORIENTED_EDGE('',*,*,#1102,.F.);
#1104=ORIENTED_EDGE('',*,*,#1033,.F.);
#1105=EDGE_LOOP('',(#1100,#1101,#1103,#1104));
#1106=FACE_OUTER_BOUND('',#1105,.F.);
#1108=CARTESIAN_POINT('',(2.4E0,1.0775E-1,-1.146610349944E0));
#1109=DIRECTION('',(0.E0,-1.E0,0.E0));
#1110=DIRECTION('',(-1.E0,0.E0,0.E0));
#1111=AXIS2_PLACEMENT_3D('',#1108,#1109,#1110);
#1112=CYLINDRICAL_SURFACE('',#1111,8.6614E-2);
#1113=ORIENTED_EDGE('',*,*,#1102,.T.);
#1114=ORIENTED_EDGE('',*,*,#970,.F.);
#1115=ORIENTED_EDGE('',*,*,#1099,.T.);
#1116=ORIENTED_EDGE('',*,*,#1035,.F.);
#1117=EDGE_LOOP('',(#1113,#1114,#1115,#1116));
#1118=FACE_OUTER_BOUND('',#1117,.F.);
#1120=CARTESIAN_POINT('',(2.825E0,1.0775E-1,-1.146610349944E0));
#1121=DIRECTION('',(0.E0,-1.E0,0.E0));
#1122=DIRECTION('',(-1.E0,0.E0,0.E0));
#1123=AXIS2_PLACEMENT_3D('',#1120,#1121,#1122);
#1124=CYLINDRICAL_SURFACE('',#1123,8.6614E-2);
#1126=ORIENTED_EDGE('',*,*,#1125,.F.);
#1127=ORIENTED_EDGE('',*,*,#974,.F.);
#1129=ORIENTED_EDGE('',*,*,#1128,.F.);
#1130=ORIENTED_EDGE('',*,*,#1039,.F.);
#1131=EDGE_LOOP('',(#1126,#1127,#1129,#1130));
#1132=FACE_OUTER_BOUND('',#1131,.F.);
#1134=CARTESIAN_POINT('',(2.825E0,1.0775E-1,-1.146610349944E0));
#1135=DIRECTION('',(0.E0,-1.E0,0.E0));
#1136=DIRECTION('',(-1.E0,0.E0,0.E0));
#1137=AXIS2_PLACEMENT_3D('',#1134,#1135,#1136);
#1138=CYLINDRICAL_SURFACE('',#1137,8.6614E-2);
#1139=ORIENTED_EDGE('',*,*,#1128,.T.);
#1140=ORIENTED_EDGE('',*,*,#976,.F.);
#1141=ORIENTED_EDGE('',*,*,#1125,.T.);
#1142=ORIENTED_EDGE('',*,*,#1041,.F.);
#1143=EDGE_LOOP('',(#1139,#1140,#1141,#1142));
#1144=FACE_OUTER_BOUND('',#1143,.F.);
#1146=CARTESIAN_POINT('',(2.5E-1,1.0775E-1,-1.146610349944E0));
#1147=DIRECTION('',(0.E0,-1.E0,0.E0));
#1148=DIRECTION('',(-1.E0,0.E0,0.E0));
#1149=AXIS2_PLACEMENT_3D('',#1146,#1147,#1148);
#1150=CYLINDRICAL_SURFACE('',#1149,8.6614E-2);
#1152=ORIENTED_EDGE('',*,*,#1151,.F.);
#1153=ORIENTED_EDGE('',*,*,#942,.F.);
#1155=ORIENTED_EDGE('',*,*,#1154,.F.);
#1156=ORIENTED_EDGE('',*,*,#1045,.F.);
#1157=EDGE_LOOP('',(#1152,#1153,#1155,#1156));
#1158=FACE_OUTER_BOUND('',#1157,.F.);
#1160=CARTESIAN_POINT('',(2.5E-1,1.0775E-1,-1.146610349944E0));
#1161=DIRECTION('',(0.E0,-1.E0,0.E0));
#1162=DIRECTION('',(-1.E0,0.E0,0.E0));
#1163=AXIS2_PLACEMENT_3D('',#1160,#1161,#1162);
#1164=CYLINDRICAL_SURFACE('',#1163,8.6614E-2);
#1165=ORIENTED_EDGE('',*,*,#1154,.T.);
#1166=ORIENTED_EDGE('',*,*,#944,.F.);
#1167=ORIENTED_EDGE('',*,*,#1151,.T.);
#1168=ORIENTED_EDGE('',*,*,#1047,.F.);
#1169=EDGE_LOOP('',(#1165,#1166,#1167,#1168));
#1170=FACE_OUTER_BOUND('',#1169,.F.);
#1172=CARTESIAN_POINT('',(1.1E0,1.0775E-1,-1.146610349944E0));
#1173=DIRECTION('',(0.E0,-1.E0,0.E0));
#1174=DIRECTION('',(-1.E0,0.E0,0.E0));
#1175=AXIS2_PLACEMENT_3D('',#1172,#1173,#1174);
#1176=CYLINDRICAL_SURFACE('',#1175,8.6614E-2);
#1178=ORIENTED_EDGE('',*,*,#1177,.F.);
#1179=ORIENTED_EDGE('',*,*,#936,.F.);
#1181=ORIENTED_EDGE('',*,*,#1180,.F.);
#1182=ORIENTED_EDGE('',*,*,#1051,.F.);
#1183=EDGE_LOOP('',(#1178,#1179,#1181,#1182));
#1184=FACE_OUTER_BOUND('',#1183,.F.);
#1186=CARTESIAN_POINT('',(1.1E0,1.0775E-1,-1.146610349944E0));
#1187=DIRECTION('',(0.E0,-1.E0,0.E0));
#1188=DIRECTION('',(-1.E0,0.E0,0.E0));
#1189=AXIS2_PLACEMENT_3D('',#1186,#1187,#1188);
#1190=CYLINDRICAL_SURFACE('',#1189,8.6614E-2);
#1191=ORIENTED_EDGE('',*,*,#1180,.T.);
#1192=ORIENTED_EDGE('',*,*,#938,.F.);
#1193=ORIENTED_EDGE('',*,*,#1177,.T.);
#1194=ORIENTED_EDGE('',*,*,#1053,.F.);
#1195=EDGE_LOOP('',(#1191,#1192,#1193,#1194));
#1196=FACE_OUTER_BOUND('',#1195,.F.);
#1198=CARTESIAN_POINT('',(3.437412164417E0,9.3875E-1,-7.867988280480E-1));
#1199=DIRECTION('',(0.E0,1.E0,0.E0));
#1200=DIRECTION('',(0.E0,0.E0,1.E0));
#1201=AXIS2_PLACEMENT_3D('',#1198,#1199,#1200);
#1202=CYLINDRICAL_SURFACE('',#1201,2.431824208677E-1);
#1203=ORIENTED_EDGE('',*,*,#1020,.T.);
#1204=ORIENTED_EDGE('',*,*,#819,.F.);
#1205=ORIENTED_EDGE('',*,*,#848,.T.);
#1207=ORIENTED_EDGE('',*,*,#1206,.T.);
#1208=ORIENTED_EDGE('',*,*,#954,.F.);
#1210=ORIENTED_EDGE('',*,*,#1209,.T.);
#1211=EDGE_LOOP('',(#1203,#1204,#1205,#1207,#1208,#1210));
#1212=FACE_OUTER_BOUND('',#1211,.F.);
#1214=CARTESIAN_POINT('',(3.45E0,9.3875E-1,-9.591103499437E-1));
#1215=DIRECTION('',(0.E0,0.E0,1.E0));
#1216=DIRECTION('',(-1.E0,0.E0,0.E0));
#1217=AXIS2_PLACEMENT_3D('',#1214,#1215,#1216);
#1218=PLANE('',#1217);
#1219=ORIENTED_EDGE('',*,*,#956,.F.);
#1220=ORIENTED_EDGE('',*,*,#1206,.F.);
#1221=ORIENTED_EDGE('',*,*,#846,.F.);
#1223=ORIENTED_EDGE('',*,*,#1222,.F.);
#1224=EDGE_LOOP('',(#1219,#1220,#1221,#1223));
#1225=FACE_OUTER_BOUND('',#1224,.F.);
#1227=CARTESIAN_POINT('',(2.2E0,9.3875E-1,-9.591103499437E-1));
#1228=DIRECTION('',(-1.E0,0.E0,0.E0));
#1229=DIRECTION('',(0.E0,0.E0,-1.E0));
#1230=AXIS2_PLACEMENT_3D('',#1227,#1228,#1229);
#1231=PLANE('',#1230);
#1232=ORIENTED_EDGE('',*,*,#844,.F.);
#1234=ORIENTED_EDGE('',*,*,#1233,.F.);
#1235=ORIENTED_EDGE('',*,*,#958,.F.);
#1236=ORIENTED_EDGE('',*,*,#1222,.T.);
#1237=EDGE_LOOP('',(#1232,#1234,#1235,#1236));
#1238=FACE_OUTER_BOUND('',#1237,.F.);
#1240=CARTESIAN_POINT('',(2.2E0,9.3875E-1,-1.334110349944E0));
#1241=DIRECTION('',(0.E0,0.E0,-1.E0));
#1242=DIRECTION('',(1.E0,0.E0,0.E0));
#1243=AXIS2_PLACEMENT_3D('',#1240,#1241,#1242);
#1244=PLANE('',#1243);
#1245=ORIENTED_EDGE('',*,*,#842,.T.);
#1247=ORIENTED_EDGE('',*,*,#1246,.F.);
#1248=ORIENTED_EDGE('',*,*,#960,.F.);
#1249=ORIENTED_EDGE('',*,*,#1233,.T.);
#1250=EDGE_LOOP('',(#1245,#1247,#1248,#1249));
#1251=FACE_OUTER_BOUND('',#1250,.F.);
#1253=CARTESIAN_POINT('',(3.45E0,9.3875E-1,-1.334110349944E0));
#1254=DIRECTION('',(1.E0,0.E0,0.E0));
#1255=DIRECTION('',(0.E0,0.E0,1.E0));
#1256=AXIS2_PLACEMENT_3D('',#1253,#1254,#1255);
#1257=PLANE('',#1256);
#1259=ORIENTED_EDGE('',*,*,#1258,.F.);
#1260=ORIENTED_EDGE('',*,*,#962,.F.);
#1261=ORIENTED_EDGE('',*,*,#1246,.T.);
#1262=ORIENTED_EDGE('',*,*,#840,.T.);
#1263=EDGE_LOOP('',(#1259,#1260,#1261,#1262));
#1264=FACE_OUTER_BOUND('',#1263,.F.);
#1266=CARTESIAN_POINT('',(3.5E0,9.3875E-1,-1.029981248916E0));
#1267=DIRECTION('',(0.E0,0.E0,-1.E0));
#1268=DIRECTION('',(-1.E0,0.E0,0.E0));
#1269=AXIS2_PLACEMENT_3D('',#1266,#1267,#1268);
#1270=PLANE('',#1269);
#1272=ORIENTED_EDGE('',*,*,#1271,.F.);
#1273=ORIENTED_EDGE('',*,*,#1022,.T.);
#1274=ORIENTED_EDGE('',*,*,#1209,.F.);
#1275=ORIENTED_EDGE('',*,*,#964,.F.);
#1276=ORIENTED_EDGE('',*,*,#1258,.T.);
#1277=ORIENTED_EDGE('',*,*,#838,.T.);
#1278=EDGE_LOOP('',(#1272,#1273,#1274,#1275,#1276,#1277));
#1279=FACE_OUTER_BOUND('',#1278,.F.);
#1281=CARTESIAN_POINT('',(3.5E0,0.E0,0.E0));
#1282=DIRECTION('',(1.E0,0.E0,0.E0));
#1283=DIRECTION('',(0.E0,0.E0,-1.E0));
#1284=AXIS2_PLACEMENT_3D('',#1281,#1282,#1283);
#1285=PLANE('',#1284);
#1286=ORIENTED_EDGE('',*,*,#1271,.T.);
#1287=ORIENTED_EDGE('',*,*,#836,.F.);
#1289=ORIENTED_EDGE('',*,*,#1288,.F.);
#1291=ORIENTED_EDGE('',*,*,#1290,.F.);
#1292=ORIENTED_EDGE('',*,*,#1024,.F.);
#1293=EDGE_LOOP('',(#1286,#1287,#1289,#1291,#1292));
#1294=FACE_OUTER_BOUND('',#1293,.F.);
#1296=CARTESIAN_POINT('',(0.E0,4.907312622191E-1,-1.483273739566E0));
#1297=DIRECTION('',(0.E0,0.E0,-1.E0));
#1298=DIRECTION('',(0.E0,1.E0,0.E0));
#1299=AXIS2_PLACEMENT_3D('',#1296,#1297,#1298);
#1300=PLANE('',#1299);
#1301=ORIENTED_EDGE('',*,*,#789,.F.);
#1303=ORIENTED_EDGE('',*,*,#1302,.T.);
#1304=ORIENTED_EDGE('',*,*,#1288,.T.);
#1305=ORIENTED_EDGE('',*,*,#834,.F.);
#1306=EDGE_LOOP('',(#1301,#1303,#1304,#1305));
#1307=FACE_OUTER_BOUND('',#1306,.F.);
#1309=CARTESIAN_POINT('',(0.E0,1.0775E-1,-1.483273739566E0));
#1310=DIRECTION('',(0.E0,0.E0,-1.E0));
#1311=DIRECTION('',(0.E0,1.E0,0.E0));
#1312=AXIS2_PLACEMENT_3D('',#1309,#1310,#1311);
#1313=PLANE('',#1312);
#1314=ORIENTED_EDGE('',*,*,#787,.F.);
#1315=ORIENTED_EDGE('',*,*,#1026,.T.);
#1316=ORIENTED_EDGE('',*,*,#1290,.T.);
#1317=ORIENTED_EDGE('',*,*,#1302,.F.);
#1318=EDGE_LOOP('',(#1314,#1315,#1316,#1317));
#1319=FACE_OUTER_BOUND('',#1318,.F.);
#1323=FILL_AREA_STYLE_COLOUR('',#3);
#1324=FILL_AREA_STYLE('',(#1323));
#1325=SURFACE_STYLE_FILL_AREA(#1324);
#1326=SURFACE_SIDE_STYLE('',(#1325));
#1327=SURFACE_STYLE_USAGE(.BOTH.,#1326);
#1328=PRESENTATION_STYLE_ASSIGNMENT((#1327));
#15=STYLED_ITEM('',(#1328),#1322);
#1330=LENGTH_MEASURE_WITH_UNIT(LENGTH_MEASURE(2.54E1),#1329);
#1331=(CONVERSION_BASED_UNIT('INCH',#1330)LENGTH_UNIT()NAMED_UNIT(*));
#1333=PLANE_ANGLE_MEASURE_WITH_UNIT(PLANE_ANGLE_MEASURE(1.745329251994E-2),
#1332);
#1334=(CONVERSION_BASED_UNIT('DEGREE',#1333)NAMED_UNIT(*)PLANE_ANGLE_UNIT());
#1336=UNCERTAINTY_MEASURE_WITH_UNIT(LENGTH_MEASURE(3.659625453333E-4),#1331,
'closure',
'Maximum model space distance between geometric entities at asserted connectivities');
#1338=CARTESIAN_POINT('',(0.E0,0.E0,0.E0));
#1339=DIRECTION('',(0.E0,0.E0,1.E0));
#1340=DIRECTION('',(1.E0,0.E0,0.E0));
#1343=MECHANICAL_DESIGN_GEOMETRIC_PRESENTATION_REPRESENTATION('',(#23,#30,#37,
#45,#52,#59,#66,#73,#81,#88,#96,#103,#111,#118,#125,#133,#140,#148,#155,#167,
#174,#181,#188,#195,#203,#211,#219,#227,#235,#243,#251,#259,#267,#275,#283,#291,
#298,#305,#312,#319,#327,#334,#341,#348,#355,#362,#369,#376,#384,#392,#400,#408,
#416,#424,#432,#440,#448,#456,#464,#472,#480,#487,#494,#501,#508,#515,#522,#529,
#536,#543,#550,#557,#564,#571,#578,#585,#592,#599,#606,#613,#620,#628,#635,#642,
#649,#656,#663,#15),#1337);
#1344=APPLICATION_CONTEXT('automotive design');
#1345=APPLICATION_PROTOCOL_DEFINITION('international standard',
'config_control_design',1994,#1344);
#1346=PRODUCT_DEFINITION_CONTEXT('',#1344,'design');
#1347=PRODUCT_CONTEXT('',#1344,'mechanical');
#1348=PRODUCT('OVAL_CONNECTOR','OVAL_CONNECTOR','NOT SPECIFIED',(#1347));
#1349=PRODUCT_DEFINITION_FORMATION_WITH_SPECIFIED_SOURCE('1','LAST_VERSION',
#1348,.MADE.);
#1357=LENGTH_MEASURE_WITH_UNIT(LENGTH_MEASURE(2.54E1),#1356);
#1358=(CONVERSION_BASED_UNIT('INCH',#1357)LENGTH_UNIT()NAMED_UNIT(*));
#1359=DERIVED_UNIT_ELEMENT(#1358,2.E0);
#1360=AREA_UNIT((#1359));
#1361=MEASURE_REPRESENTATION_ITEM('surface area measure',AREA_MEASURE(
1.310016179992E1),#1360);
#1366=LENGTH_MEASURE_WITH_UNIT(LENGTH_MEASURE(2.54E1),#1365);
#1367=(CONVERSION_BASED_UNIT('INCH',#1366)LENGTH_UNIT()NAMED_UNIT(*));
#1368=DERIVED_UNIT_ELEMENT(#1367,3.E0);
#1369=VOLUME_UNIT((#1368));
#1370=MEASURE_REPRESENTATION_ITEM('volume measure',VOLUME_MEASURE(
1.656968173980E0),#1369);
#1374=CARTESIAN_POINT('centre point',(1.711135263065E0,4.946855805983E-1,
-1.152222422692E0));
#1379=LENGTH_MEASURE_WITH_UNIT(LENGTH_MEASURE(2.54E1),#1378);
#1380=(CONVERSION_BASED_UNIT('INCH',#1379)LENGTH_UNIT()NAMED_UNIT(*));
#1381=DERIVED_UNIT_ELEMENT(#1380,2.E0);
#1382=AREA_UNIT((#1381));
#1383=MEASURE_REPRESENTATION_ITEM('surface area measure',AREA_MEASURE(
1.310016179992E1),#1382);
#1388=LENGTH_MEASURE_WITH_UNIT(LENGTH_MEASURE(2.54E1),#1387);
#1389=(CONVERSION_BASED_UNIT('INCH',#1388)LENGTH_UNIT()NAMED_UNIT(*));
#1390=DERIVED_UNIT_ELEMENT(#1389,3.E0);
#1391=VOLUME_UNIT((#1390));
#1392=MEASURE_REPRESENTATION_ITEM('volume measure',VOLUME_MEASURE(
1.656968173980E0),#1391);
#1396=CARTESIAN_POINT('centre point',(1.711135263065E0,4.946855805983E-1,
-1.152222422692E0));
#1=DRAUGHTING_PRE_DEFINED_COLOUR('green');
#2=COLOUR_RGB('',1.1E-2,1.2E-2,1.E0);
#3=COLOUR_RGB('',2.352941176471E-1,2.352941176471E-1,2.352941176471E-1);
#4=COLOUR_RGB('',4.1E-1,2.61589E-1,1.12848E-1);
#5=COLOUR_RGB('',5.04854E-1,1.5455E-2,1.5455E-2);
#6=COLOUR_RGB('',6.35294E-1,6.86275E-1,7.4902E-1);
#7=COLOUR_RGB('',6.40777E-1,6.40777E-1,6.40777E-1);
#8=COLOUR_RGB('',6.69062E-1,6.69903E-1,6.55217E-1);
#9=COLOUR_RGB('',9.21569E-1,7.05882E-1,4.70588E-1);
#10=DRAUGHTING_PRE_DEFINED_COLOUR('red');
#11=DRAUGHTING_PRE_DEFINED_COLOUR('yellow');
#12=COLOUR_RGB('',1.E0,1.E0,5.3E-1);
#13=COLOUR_RGB('',1.E0,1.E0,9.49E-1);
#14=DRAUGHTING_PRE_DEFINED_COLOUR('white');
#42=CIRCLE('',#41,3.5E-1);
#78=CIRCLE('',#77,3.5E-1);
#93=CIRCLE('',#92,3.5E-1);
#108=B_SPLINE_CURVE_WITH_KNOTS('',3,(#104,#105,#106,#107),.UNSPECIFIED.,.F.,.F.,
(4,4),(0.E0,1.E0),.UNSPECIFIED.);
#130=CIRCLE('',#129,3.5E-1);
#145=CIRCLE('',#144,3.5E-1);
#164=B_SPLINE_CURVE_WITH_KNOTS('',3,(#156,#157,#158,#159,#160,#161,#162,#163),
.UNSPECIFIED.,.F.,.F.,(4,1,1,1,1,4),(0.E0,2.E-1,4.E-1,6.E-1,8.E-1,1.E0),
.UNSPECIFIED.);
#200=CIRCLE('',#199,8.6614E-2);
#208=CIRCLE('',#207,8.6614E-2);
#216=CIRCLE('',#215,8.6614E-2);
#224=CIRCLE('',#223,8.6614E-2);
#232=CIRCLE('',#231,8.6614E-2);
#240=CIRCLE('',#239,8.6614E-2);
#248=CIRCLE('',#247,8.6614E-2);
#256=CIRCLE('',#255,8.6614E-2);
#264=CIRCLE('',#263,8.6614E-2);
#272=CIRCLE('',#271,8.6614E-2);
#280=CIRCLE('',#279,8.6614E-2);
#288=CIRCLE('',#287,8.6614E-2);
#324=CIRCLE('',#323,2.431824208677E-1);
#381=CIRCLE('',#380,8.6614E-2);
#389=CIRCLE('',#388,8.6614E-2);
#397=CIRCLE('',#396,8.6614E-2);
#405=CIRCLE('',#404,8.6614E-2);
#413=CIRCLE('',#412,8.6614E-2);
#421=CIRCLE('',#420,8.6614E-2);
#429=CIRCLE('',#428,8.6614E-2);
#437=CIRCLE('',#436,8.6614E-2);
#445=CIRCLE('',#444,8.6614E-2);
#453=CIRCLE('',#452,8.6614E-2);
#461=CIRCLE('',#460,8.6614E-2);
#469=CIRCLE('',#468,8.6614E-2);
#477=CIRCLE('',#476,2.431824208677E-1);
#625=CIRCLE('',#624,3.5E-1);
#783=EDGE_CURVE('',#676,#669,#56,.T.);
#785=EDGE_CURVE('',#676,#677,#19,.T.);
#787=EDGE_CURVE('',#677,#666,#27,.T.);
#789=EDGE_CURVE('',#666,#667,#34,.T.);
#791=EDGE_CURVE('',#667,#669,#42,.T.);
#795=ADVANCED_FACE('',(#794),#782,.F.);
#801=EDGE_CURVE('',#761,#769,#49,.T.);
#803=EDGE_CURVE('',#676,#769,#491,.T.);
#806=EDGE_CURVE('',#669,#761,#63,.T.);
#810=ADVANCED_FACE('',(#809),#800,.T.);
#817=EDGE_CURVE('',#760,#761,#108,.T.);
#819=EDGE_CURVE('',#760,#767,#70,.T.);
#821=EDGE_CURVE('',#767,#769,#498,.T.);
#825=ADVANCED_FACE('',(#824),#815,.F.);
#834=EDGE_CURVE('',#667,#673,#115,.T.);
#836=EDGE_CURVE('',#673,#759,#625,.T.);
#838=EDGE_CURVE('',#763,#759,#122,.T.);
#840=EDGE_CURVE('',#755,#763,#130,.T.);
#842=EDGE_CURVE('',#752,#755,#137,.T.);
#844=EDGE_CURVE('',#752,#753,#145,.T.);
#846=EDGE_CURVE('',#753,#777,#152,.T.);
#848=EDGE_CURVE('',#760,#777,#164,.T.);
#852=EDGE_CURVE('',#744,#745,#78,.T.);
#854=EDGE_CURVE('',#749,#744,#85,.T.);
#856=EDGE_CURVE('',#749,#747,#93,.T.);
#858=EDGE_CURVE('',#747,#745,#100,.T.);
#862=ADVANCED_FACE('',(#851,#861),#830,.T.);
#869=EDGE_CURVE('',#731,#745,#178,.T.);
#871=EDGE_CURVE('',#730,#731,#295,.T.);
#873=EDGE_CURVE('',#730,#744,#171,.T.);
#877=ADVANCED_FACE('',(#876),#867,.T.);
#884=EDGE_CURVE('',#733,#747,#185,.T.);
#886=EDGE_CURVE('',#731,#733,#302,.T.);
#891=ADVANCED_FACE('',(#890),#882,.T.);
#898=EDGE_CURVE('',#735,#749,#192,.T.);
#900=EDGE_CURVE('',#733,#735,#309,.T.);
#905=ADVANCED_FACE('',(#904),#896,.T.);
#913=EDGE_CURVE('',#735,#730,#316,.T.);
#918=ADVANCED_FACE('',(#917),#910,.T.);
#930=EDGE_CURVE('',#706,#707,#200,.T.);
#932=EDGE_CURVE('',#707,#706,#208,.T.);
#936=EDGE_CURVE('',#710,#711,#216,.T.);
#938=EDGE_CURVE('',#711,#710,#224,.T.);
#942=EDGE_CURVE('',#714,#715,#232,.T.);
#944=EDGE_CURVE('',#715,#714,#240,.T.);
#948=ADVANCED_FACE('',(#929,#935,#941,#947),#923,.F.);
#954=EDGE_CURVE('',#772,#773,#324,.T.);
#956=EDGE_CURVE('',#773,#738,#331,.T.);
#958=EDGE_CURVE('',#738,#739,#338,.T.);
#960=EDGE_CURVE('',#739,#741,#345,.T.);
#962=EDGE_CURVE('',#741,#775,#352,.T.);
#964=EDGE_CURVE('',#775,#772,#359,.T.);
#968=EDGE_CURVE('',#718,#719,#248,.T.);
#970=EDGE_CURVE('',#719,#718,#256,.T.);
#974=EDGE_CURVE('',#722,#723,#264,.T.);
#976=EDGE_CURVE('',#723,#722,#272,.T.);
#980=EDGE_CURVE('',#726,#727,#280,.T.);
#982=EDGE_CURVE('',#727,#726,#288,.T.);
#986=ADVANCED_FACE('',(#967,#973,#979,#985),#953,.F.);
#992=EDGE_CURVE('',#707,#702,#373,.T.);
#995=EDGE_CURVE('',#703,#706,#366,.T.);
#997=EDGE_CURVE('',#702,#703,#461,.T.);
#1001=ADVANCED_FACE('',(#1000),#991,.F.);
#1010=EDGE_CURVE('',#703,#702,#469,.T.);
#1014=ADVANCED_FACE('',(#1013),#1006,.F.);
#1020=EDGE_CURVE('',#766,#767,#477,.T.);
#1022=EDGE_CURVE('',#758,#766,#484,.T.);
#1024=EDGE_CURVE('',#758,#679,#646,.T.);
#1026=EDGE_CURVE('',#677,#679,#660,.T.);
#1033=EDGE_CURVE('',#686,#687,#397,.T.);
#1035=EDGE_CURVE('',#687,#686,#405,.T.);
#1039=EDGE_CURVE('',#690,#691,#413,.T.);
#1041=EDGE_CURVE('',#691,#690,#421,.T.);
#1045=EDGE_CURVE('',#694,#695,#429,.T.);
#1047=EDGE_CURVE('',#695,#694,#437,.T.);
#1051=EDGE_CURVE('',#698,#699,#445,.T.);
#1053=EDGE_CURVE('',#699,#698,#453,.T.);
#1061=EDGE_CURVE('',#682,#683,#381,.T.);
#1063=EDGE_CURVE('',#683,#682,#389,.T.);
#1067=ADVANCED_FACE('',(#1032,#1038,#1044,#1050,#1056,#1060,#1066),#1019,.T.);
#1073=EDGE_CURVE('',#727,#682,#512,.T.);
#1076=EDGE_CURVE('',#683,#726,#505,.T.);
#1081=ADVANCED_FACE('',(#1080),#1072,.F.);
#1093=ADVANCED_FACE('',(#1092),#1086,.F.);
#1099=EDGE_CURVE('',#719,#686,#526,.T.);
#1102=EDGE_CURVE('',#687,#718,#519,.T.);
#1107=ADVANCED_FACE('',(#1106),#1098,.F.);
#1119=ADVANCED_FACE('',(#1118),#1112,.F.);
#1125=EDGE_CURVE('',#723,#690,#540,.T.);
#1128=EDGE_CURVE('',#691,#722,#533,.T.);
#1133=ADVANCED_FACE('',(#1132),#1124,.F.);
#1145=ADVANCED_FACE('',(#1144),#1138,.F.);
#1151=EDGE_CURVE('',#715,#694,#554,.T.);
#1154=EDGE_CURVE('',#695,#714,#547,.T.);
#1159=ADVANCED_FACE('',(#1158),#1150,.F.);
#1171=ADVANCED_FACE('',(#1170),#1164,.F.);
#1177=EDGE_CURVE('',#711,#698,#568,.T.);
#1180=EDGE_CURVE('',#699,#710,#561,.T.);
#1185=ADVANCED_FACE('',(#1184),#1176,.F.);
#1197=ADVANCED_FACE('',(#1196),#1190,.F.);
#1206=EDGE_CURVE('',#777,#773,#582,.T.);
#1209=EDGE_CURVE('',#772,#766,#575,.T.);
#1213=ADVANCED_FACE('',(#1212),#1202,.F.);
#1222=EDGE_CURVE('',#738,#753,#589,.T.);
#1226=ADVANCED_FACE('',(#1225),#1218,.T.);
#1233=EDGE_CURVE('',#739,#752,#596,.T.);
#1239=ADVANCED_FACE('',(#1238),#1231,.T.);
#1246=EDGE_CURVE('',#741,#755,#610,.T.);
#1252=ADVANCED_FACE('',(#1251),#1244,.T.);
#1258=EDGE_CURVE('',#775,#763,#603,.T.);
#1265=ADVANCED_FACE('',(#1264),#1257,.T.);
#1271=EDGE_CURVE('',#758,#759,#617,.T.);
#1280=ADVANCED_FACE('',(#1279),#1270,.F.);
#1288=EDGE_CURVE('',#672,#673,#632,.T.);
#1290=EDGE_CURVE('',#679,#672,#639,.T.);
#1295=ADVANCED_FACE('',(#1294),#1285,.T.);
#1302=EDGE_CURVE('',#666,#672,#653,.T.);
#1308=ADVANCED_FACE('',(#1307),#1300,.T.);
#1320=ADVANCED_FACE('',(#1319),#1313,.T.);
#1321=CLOSED_SHELL('',(#795,#810,#825,#862,#877,#891,#905,#918,#948,#986,#1001,
#1014,#1067,#1081,#1093,#1107,#1119,#1133,#1145,#1159,#1171,#1185,#1197,#1213,
#1226,#1239,#1252,#1265,#1280,#1295,#1308,#1320));
#1322=MANIFOLD_SOLID_BREP('',#1321);
#1329=(LENGTH_UNIT()NAMED_UNIT(*)SI_UNIT(.MILLI.,.METRE.));
#1332=(NAMED_UNIT(*)PLANE_ANGLE_UNIT()SI_UNIT($,.RADIAN.));
#1335=(NAMED_UNIT(*)SI_UNIT($,.STERADIAN.)SOLID_ANGLE_UNIT());
#1337=(GEOMETRIC_REPRESENTATION_CONTEXT(3)GLOBAL_UNCERTAINTY_ASSIGNED_CONTEXT((
#1336))GLOBAL_UNIT_ASSIGNED_CONTEXT((#1331,#1334,#1335))REPRESENTATION_CONTEXT(
'ID1','3'));
#1341=AXIS2_PLACEMENT_3D('',#1338,#1339,#1340);
#1342=ADVANCED_BREP_SHAPE_REPRESENTATION('',(#1341,#1322),#1337);
#1350=PRODUCT_DEFINITION('design','',#1349,#1346);
#1351=PRODUCT_DEFINITION_SHAPE('','SHAPE FOR OVAL_CONNECTOR.',#1350);
#1352=SHAPE_ASPECT('','solid data associated with OVAL_CONNECTOR',#1351,.F.);
#1353=PROPERTY_DEFINITION('',
'shape for solid data with which properties are associated',#1352);
#1354=SHAPE_REPRESENTATION('',(#1322),#1337);
#1355=SHAPE_DEFINITION_REPRESENTATION(#1353,#1354);
#1356=(LENGTH_UNIT()NAMED_UNIT(*)SI_UNIT(.MILLI.,.METRE.));
#1362=PROPERTY_DEFINITION('geometric validation property',
'area of OVAL_CONNECTOR',#1352);
#1363=REPRESENTATION('surface area',(#1361),#1337);
#1364=PROPERTY_DEFINITION_REPRESENTATION(#1362,#1363);
#1365=(LENGTH_UNIT()NAMED_UNIT(*)SI_UNIT(.MILLI.,.METRE.));
#1371=PROPERTY_DEFINITION('geometric validation property',
'volume of OVAL_CONNECTOR',#1352);
#1372=REPRESENTATION('volume',(#1370),#1337);
#1373=PROPERTY_DEFINITION_REPRESENTATION(#1371,#1372);
#1375=PROPERTY_DEFINITION('geometric validation property',
'centroid of OVAL_CONNECTOR',#1352);
#1376=REPRESENTATION('centroid',(#1374),#1337);
#1377=PROPERTY_DEFINITION_REPRESENTATION(#1375,#1376);
#1378=(LENGTH_UNIT()NAMED_UNIT(*)SI_UNIT(.MILLI.,.METRE.));
#1384=PROPERTY_DEFINITION('geometric validation property',
'area of OVAL_CONNECTOR',#1351);
#1385=REPRESENTATION('surface area',(#1383),#1337);
#1386=PROPERTY_DEFINITION_REPRESENTATION(#1384,#1385);
#1387=(LENGTH_UNIT()NAMED_UNIT(*)SI_UNIT(.MILLI.,.METRE.));
#1393=PROPERTY_DEFINITION('geometric validation property',
'volume of OVAL_CONNECTOR',#1351);
#1394=REPRESENTATION('volume',(#1392),#1337);
#1395=PROPERTY_DEFINITION_REPRESENTATION(#1393,#1394);
#1397=PROPERTY_DEFINITION('geometric validation property',
'centroid of OVAL_CONNECTOR',#1351);
#1398=REPRESENTATION('centroid',(#1396),#1337);
#1399=PROPERTY_DEFINITION_REPRESENTATION(#1397,#1398);
#1400=SHAPE_DEFINITION_REPRESENTATION(#1351,#1342);
ENDSEC;
END-ISO-10303-21;
