ISO-10303-21;
HEADER;
FILE_DESCRIPTION((''),'2;1');
FILE_NAME('OVAL_CONNECTOR_MIR','2026-06-15T13:45:35',('Esia'),(''),
'CREO PARAMETRIC BY PTC INC, 2025102','CREO PARAMETRIC BY PTC INC, 2025102','');
FILE_SCHEMA((
'AP242_MANAGED_MODEL_BASED_3D_ENGINEERING_MIM_LF { 1 0 10303 442 1 1 4 }'));
ENDSEC;
DATA;
#16=CARTESIAN_POINT('',(0.E0,5.864274590494E-1,1.146610349944E0));
#17=DIRECTION('',(-1.E0,0.E0,0.E0));
#18=DIRECTION('',(0.E0,2.734177052292E-1,9.618953989219E-1));
#19=AXIS2_PLACEMENT_3D('',#16,#17,#18);
#21=DRAUGHTING_PRE_DEFINED_CURVE_FONT('continuous');
#22=CURVE_STYLE('',#21,POSITIVE_LENGTH_MEASURE(2.E-2),#3);
#23=PRESENTATION_STYLE_ASSIGNMENT((#22));
#24=STYLED_ITEM('',(#23),#20);
#25=DIRECTION('',(0.E0,1.E0,0.E0));
#26=VECTOR('',#25,1.913923936605E-1);
#27=CARTESIAN_POINT('',(0.E0,4.907312622191E-1,1.483273739566E0));
#28=LINE('',#27,#26);
#29=CURVE_STYLE('',#21,POSITIVE_LENGTH_MEASURE(2.E-2),#3);
#30=PRESENTATION_STYLE_ASSIGNMENT((#29));
#31=STYLED_ITEM('',(#30),#28);
#32=DIRECTION('',(0.E0,1.E0,0.E0));
#33=VECTOR('',#32,3.829812622191E-1);
#34=CARTESIAN_POINT('',(0.E0,1.0775E-1,1.483273739566E0));
#35=LINE('',#34,#33);
#36=CURVE_STYLE('',#21,POSITIVE_LENGTH_MEASURE(2.E-2),#3);
#37=PRESENTATION_STYLE_ASSIGNMENT((#36));
#38=STYLED_ITEM('',(#37),#35);
#39=DIRECTION('',(0.E0,0.E0,1.E0));
#40=VECTOR('',#39,6.733267792454E-1);
#41=CARTESIAN_POINT('',(0.E0,1.0775E-1,8.099469603210E-1));
#42=LINE('',#41,#40);
#43=CURVE_STYLE('',#21,POSITIVE_LENGTH_MEASURE(2.E-2),#3);
#44=PRESENTATION_STYLE_ASSIGNMENT((#43));
#45=STYLED_ITEM('',(#44),#42);
#46=DIRECTION('',(0.E0,-1.E0,0.E0));
#47=VECTOR('',#46,5.743736558796E-1);
#48=CARTESIAN_POINT('',(3.186890695831E0,6.821236558796E-1,8.099469603210E-1));
#49=LINE('',#48,#47);
#50=CURVE_STYLE('',#21,POSITIVE_LENGTH_MEASURE(2.E-2),#3);
#51=PRESENTATION_STYLE_ASSIGNMENT((#50));
#52=STYLED_ITEM('',(#51),#49);
#53=DIRECTION('',(1.E0,0.E0,0.E0));
#54=VECTOR('',#53,3.186890695831E0);
#55=CARTESIAN_POINT('',(0.E0,6.821236558796E-1,8.099469603210E-1));
#56=LINE('',#55,#54);
#57=CURVE_STYLE('',#21,POSITIVE_LENGTH_MEASURE(2.E-2),#3);
#58=PRESENTATION_STYLE_ASSIGNMENT((#57));
#59=STYLED_ITEM('',(#58),#56);
#60=DIRECTION('',(0.E0,1.E0,0.E0));
#61=VECTOR('',#60,5.743736558796E-1);
#62=CARTESIAN_POINT('',(0.E0,1.0775E-1,8.099469603210E-1));
#63=LINE('',#62,#61);
#64=CURVE_STYLE('',#21,POSITIVE_LENGTH_MEASURE(2.E-2),#3);
#65=PRESENTATION_STYLE_ASSIGNMENT((#64));
#66=STYLED_ITEM('',(#65),#63);
#67=DIRECTION('',(0.E0,-1.E0,0.E0));
#68=VECTOR('',#67,6.937636485384E-1);
#69=CARTESIAN_POINT('',(3.209087596063E0,8.015136485384E-1,8.704981787323E-1));
#70=LINE('',#69,#68);
#71=CURVE_STYLE('',#21,POSITIVE_LENGTH_MEASURE(2.E-2),#3);
#72=PRESENTATION_STYLE_ASSIGNMENT((#71));
#73=STYLED_ITEM('',(#72),#70);
#74=CARTESIAN_POINT('',(3.25E0,1.0775E-1,1.146610349944E0));
#75=DIRECTION('',(0.E0,1.E0,0.E0));
#76=DIRECTION('',(-1.E0,0.E0,0.E0));
#77=AXIS2_PLACEMENT_3D('',#74,#75,#76);
#79=CURVE_STYLE('',#21,POSITIVE_LENGTH_MEASURE(2.E-2),#3);
#80=PRESENTATION_STYLE_ASSIGNMENT((#79));
#81=STYLED_ITEM('',(#80),#78);
#82=CARTESIAN_POINT('',(3.25E0,1.0775E-1,1.146610349944E0));
#83=DIRECTION('',(0.E0,1.E0,0.E0));
#84=DIRECTION('',(1.E0,0.E0,0.E0));
#85=AXIS2_PLACEMENT_3D('',#82,#83,#84);
#87=CURVE_STYLE('',#21,POSITIVE_LENGTH_MEASURE(2.E-2),#3);
#88=PRESENTATION_STYLE_ASSIGNMENT((#87));
#89=STYLED_ITEM('',(#88),#86);
#90=CARTESIAN_POINT('',(2.4E0,1.0775E-1,1.146610349944E0));
#91=DIRECTION('',(0.E0,1.E0,0.E0));
#92=DIRECTION('',(-1.E0,0.E0,0.E0));
#93=AXIS2_PLACEMENT_3D('',#90,#91,#92);
#95=CURVE_STYLE('',#21,POSITIVE_LENGTH_MEASURE(2.E-2),#3);
#96=PRESENTATION_STYLE_ASSIGNMENT((#95));
#97=STYLED_ITEM('',(#96),#94);
#98=CARTESIAN_POINT('',(2.4E0,1.0775E-1,1.146610349944E0));
#99=DIRECTION('',(0.E0,1.E0,0.E0));
#100=DIRECTION('',(1.E0,0.E0,0.E0));
#101=AXIS2_PLACEMENT_3D('',#98,#99,#100);
#103=CURVE_STYLE('',#21,POSITIVE_LENGTH_MEASURE(2.E-2),#3);
#104=PRESENTATION_STYLE_ASSIGNMENT((#103));
#105=STYLED_ITEM('',(#104),#102);
#106=CARTESIAN_POINT('',(2.825E0,1.0775E-1,1.146610349944E0));
#107=DIRECTION('',(0.E0,1.E0,0.E0));
#108=DIRECTION('',(-1.E0,0.E0,0.E0));
#109=AXIS2_PLACEMENT_3D('',#106,#107,#108);
#111=CURVE_STYLE('',#21,POSITIVE_LENGTH_MEASURE(2.E-2),#3);
#112=PRESENTATION_STYLE_ASSIGNMENT((#111));
#113=STYLED_ITEM('',(#112),#110);
#114=CARTESIAN_POINT('',(2.825E0,1.0775E-1,1.146610349944E0));
#115=DIRECTION('',(0.E0,1.E0,0.E0));
#116=DIRECTION('',(1.E0,0.E0,0.E0));
#117=AXIS2_PLACEMENT_3D('',#114,#115,#116);
#119=CURVE_STYLE('',#21,POSITIVE_LENGTH_MEASURE(2.E-2),#3);
#120=PRESENTATION_STYLE_ASSIGNMENT((#119));
#121=STYLED_ITEM('',(#120),#118);
#122=CARTESIAN_POINT('',(2.5E-1,1.0775E-1,1.146610349944E0));
#123=DIRECTION('',(0.E0,1.E0,0.E0));
#124=DIRECTION('',(-1.E0,0.E0,0.E0));
#125=AXIS2_PLACEMENT_3D('',#122,#123,#124);
#127=CURVE_STYLE('',#21,POSITIVE_LENGTH_MEASURE(2.E-2),#3);
#128=PRESENTATION_STYLE_ASSIGNMENT((#127));
#129=STYLED_ITEM('',(#128),#126);
#130=CARTESIAN_POINT('',(2.5E-1,1.0775E-1,1.146610349944E0));
#131=DIRECTION('',(0.E0,1.E0,0.E0));
#132=DIRECTION('',(1.E0,0.E0,0.E0));
#133=AXIS2_PLACEMENT_3D('',#130,#131,#132);
#135=CURVE_STYLE('',#21,POSITIVE_LENGTH_MEASURE(2.E-2),#3);
#136=PRESENTATION_STYLE_ASSIGNMENT((#135));
#137=STYLED_ITEM('',(#136),#134);
#138=CARTESIAN_POINT('',(1.1E0,1.0775E-1,1.146610349944E0));
#139=DIRECTION('',(0.E0,1.E0,0.E0));
#140=DIRECTION('',(-1.E0,0.E0,0.E0));
#141=AXIS2_PLACEMENT_3D('',#138,#139,#140);
#143=CURVE_STYLE('',#21,POSITIVE_LENGTH_MEASURE(2.E-2),#3);
#144=PRESENTATION_STYLE_ASSIGNMENT((#143));
#145=STYLED_ITEM('',(#144),#142);
#146=CARTESIAN_POINT('',(1.1E0,1.0775E-1,1.146610349944E0));
#147=DIRECTION('',(0.E0,1.E0,0.E0));
#148=DIRECTION('',(1.E0,0.E0,0.E0));
#149=AXIS2_PLACEMENT_3D('',#146,#147,#148);
#151=CURVE_STYLE('',#21,POSITIVE_LENGTH_MEASURE(2.E-2),#3);
#152=PRESENTATION_STYLE_ASSIGNMENT((#151));
#153=STYLED_ITEM('',(#152),#150);
#154=CARTESIAN_POINT('',(6.75E-1,1.0775E-1,1.146610349944E0));
#155=DIRECTION('',(0.E0,1.E0,0.E0));
#156=DIRECTION('',(-1.E0,0.E0,0.E0));
#157=AXIS2_PLACEMENT_3D('',#154,#155,#156);
#159=CURVE_STYLE('',#21,POSITIVE_LENGTH_MEASURE(2.E-2),#3);
#160=PRESENTATION_STYLE_ASSIGNMENT((#159));
#161=STYLED_ITEM('',(#160),#158);
#162=CARTESIAN_POINT('',(6.75E-1,1.0775E-1,1.146610349944E0));
#163=DIRECTION('',(0.E0,1.E0,0.E0));
#164=DIRECTION('',(1.E0,0.E0,0.E0));
#165=AXIS2_PLACEMENT_3D('',#162,#163,#164);
#167=CURVE_STYLE('',#21,POSITIVE_LENGTH_MEASURE(2.E-2),#3);
#168=PRESENTATION_STYLE_ASSIGNMENT((#167));
#169=STYLED_ITEM('',(#168),#166);
#170=CARTESIAN_POINT('',(3.437412164417E0,1.0775E-1,7.867988280480E-1));
#171=DIRECTION('',(0.E0,-1.E0,0.E0));
#172=DIRECTION('',(0.E0,0.E0,1.E0));
#173=AXIS2_PLACEMENT_3D('',#170,#171,#172);
#175=CURVE_STYLE('',#21,POSITIVE_LENGTH_MEASURE(2.E-2),#3);
#176=PRESENTATION_STYLE_ASSIGNMENT((#175));
#177=STYLED_ITEM('',(#176),#174);
#178=DIRECTION('',(-3.441833928029E-1,0.E0,-9.389024401495E-1));
#179=VECTOR('',#178,6.449149115171E-2);
#180=CARTESIAN_POINT('',(3.209087596063E0,1.0775E-1,8.704981787323E-1));
#181=LINE('',#180,#179);
#182=CURVE_STYLE('',#21,POSITIVE_LENGTH_MEASURE(2.E-2),#3);
#183=PRESENTATION_STYLE_ASSIGNMENT((#182));
#184=STYLED_ITEM('',(#183),#181);
#185=DIRECTION('',(1.E0,0.E0,0.E0));
#186=VECTOR('',#185,3.186890695831E0);
#187=CARTESIAN_POINT('',(0.E0,1.0775E-1,8.099469603210E-1));
#188=LINE('',#187,#186);
#189=CURVE_STYLE('',#21,POSITIVE_LENGTH_MEASURE(2.E-2),#3);
#190=PRESENTATION_STYLE_ASSIGNMENT((#189));
#191=STYLED_ITEM('',(#190),#188);
#192=DIRECTION('',(-1.E0,0.E0,0.E0));
#193=VECTOR('',#192,6.258783558290E-2);
#194=CARTESIAN_POINT('',(3.5E0,1.0775E-1,1.029981248916E0));
#195=LINE('',#194,#193);
#196=CURVE_STYLE('',#21,POSITIVE_LENGTH_MEASURE(2.E-2),#3);
#197=PRESENTATION_STYLE_ASSIGNMENT((#196));
#198=STYLED_ITEM('',(#197),#195);
#199=DIRECTION('',(0.E0,1.E0,0.E0));
#200=VECTOR('',#199,8.31E-1);
#201=CARTESIAN_POINT('',(3.336614E0,1.0775E-1,1.146610349944E0));
#202=LINE('',#201,#200);
#203=CURVE_STYLE('',#21,POSITIVE_LENGTH_MEASURE(2.E-2),#3);
#204=PRESENTATION_STYLE_ASSIGNMENT((#203));
#205=STYLED_ITEM('',(#204),#202);
#206=DIRECTION('',(0.E0,-1.E0,0.E0));
#207=VECTOR('',#206,8.31E-1);
#208=CARTESIAN_POINT('',(3.163386E0,9.3875E-1,1.146610349944E0));
#209=LINE('',#208,#207);
#210=CURVE_STYLE('',#21,POSITIVE_LENGTH_MEASURE(2.E-2),#3);
#211=PRESENTATION_STYLE_ASSIGNMENT((#210));
#212=STYLED_ITEM('',(#211),#209);
#213=CARTESIAN_POINT('',(6.75E-1,9.3875E-1,1.146610349944E0));
#214=DIRECTION('',(0.E0,-1.E0,0.E0));
#215=DIRECTION('',(1.E0,0.E0,0.E0));
#216=AXIS2_PLACEMENT_3D('',#213,#214,#215);
#218=CURVE_STYLE('',#21,POSITIVE_LENGTH_MEASURE(2.E-2),#3);
#219=PRESENTATION_STYLE_ASSIGNMENT((#218));
#220=STYLED_ITEM('',(#219),#217);
#221=CARTESIAN_POINT('',(6.75E-1,9.3875E-1,1.146610349944E0));
#222=DIRECTION('',(0.E0,-1.E0,0.E0));
#223=DIRECTION('',(-1.E0,0.E0,0.E0));
#224=AXIS2_PLACEMENT_3D('',#221,#222,#223);
#226=CURVE_STYLE('',#21,POSITIVE_LENGTH_MEASURE(2.E-2),#3);
#227=PRESENTATION_STYLE_ASSIGNMENT((#226));
#228=STYLED_ITEM('',(#227),#225);
#229=CARTESIAN_POINT('',(1.1E0,9.3875E-1,1.146610349944E0));
#230=DIRECTION('',(0.E0,-1.E0,0.E0));
#231=DIRECTION('',(1.E0,0.E0,0.E0));
#232=AXIS2_PLACEMENT_3D('',#229,#230,#231);
#234=CURVE_STYLE('',#21,POSITIVE_LENGTH_MEASURE(2.E-2),#3);
#235=PRESENTATION_STYLE_ASSIGNMENT((#234));
#236=STYLED_ITEM('',(#235),#233);
#237=CARTESIAN_POINT('',(1.1E0,9.3875E-1,1.146610349944E0));
#238=DIRECTION('',(0.E0,-1.E0,0.E0));
#239=DIRECTION('',(-1.E0,0.E0,0.E0));
#240=AXIS2_PLACEMENT_3D('',#237,#238,#239);
#242=CURVE_STYLE('',#21,POSITIVE_LENGTH_MEASURE(2.E-2),#3);
#243=PRESENTATION_STYLE_ASSIGNMENT((#242));
#244=STYLED_ITEM('',(#243),#241);
#245=CARTESIAN_POINT('',(2.5E-1,9.3875E-1,1.146610349944E0));
#246=DIRECTION('',(0.E0,-1.E0,0.E0));
#247=DIRECTION('',(1.E0,0.E0,0.E0));
#248=AXIS2_PLACEMENT_3D('',#245,#246,#247);
#250=CURVE_STYLE('',#21,POSITIVE_LENGTH_MEASURE(2.E-2),#3);
#251=PRESENTATION_STYLE_ASSIGNMENT((#250));
#252=STYLED_ITEM('',(#251),#249);
#253=CARTESIAN_POINT('',(2.5E-1,9.3875E-1,1.146610349944E0));
#254=DIRECTION('',(0.E0,-1.E0,0.E0));
#255=DIRECTION('',(-1.E0,0.E0,0.E0));
#256=AXIS2_PLACEMENT_3D('',#253,#254,#255);
#258=CURVE_STYLE('',#21,POSITIVE_LENGTH_MEASURE(2.E-2),#3);
#259=PRESENTATION_STYLE_ASSIGNMENT((#258));
#260=STYLED_ITEM('',(#259),#257);
#261=CARTESIAN_POINT('',(2.4E0,9.3875E-1,1.146610349944E0));
#262=DIRECTION('',(0.E0,-1.E0,0.E0));
#263=DIRECTION('',(1.E0,0.E0,0.E0));
#264=AXIS2_PLACEMENT_3D('',#261,#262,#263);
#266=CURVE_STYLE('',#21,POSITIVE_LENGTH_MEASURE(2.E-2),#3);
#267=PRESENTATION_STYLE_ASSIGNMENT((#266));
#268=STYLED_ITEM('',(#267),#265);
#269=CARTESIAN_POINT('',(2.4E0,9.3875E-1,1.146610349944E0));
#270=DIRECTION('',(0.E0,-1.E0,0.E0));
#271=DIRECTION('',(-1.E0,0.E0,0.E0));
#272=AXIS2_PLACEMENT_3D('',#269,#270,#271);
#274=CURVE_STYLE('',#21,POSITIVE_LENGTH_MEASURE(2.E-2),#3);
#275=PRESENTATION_STYLE_ASSIGNMENT((#274));
#276=STYLED_ITEM('',(#275),#273);
#277=CARTESIAN_POINT('',(2.825E0,9.3875E-1,1.146610349944E0));
#278=DIRECTION('',(0.E0,-1.E0,0.E0));
#279=DIRECTION('',(1.E0,0.E0,0.E0));
#280=AXIS2_PLACEMENT_3D('',#277,#278,#279);
#282=CURVE_STYLE('',#21,POSITIVE_LENGTH_MEASURE(2.E-2),#3);
#283=PRESENTATION_STYLE_ASSIGNMENT((#282));
#284=STYLED_ITEM('',(#283),#281);
#285=CARTESIAN_POINT('',(2.825E0,9.3875E-1,1.146610349944E0));
#286=DIRECTION('',(0.E0,-1.E0,0.E0));
#287=DIRECTION('',(-1.E0,0.E0,0.E0));
#288=AXIS2_PLACEMENT_3D('',#285,#286,#287);
#290=CURVE_STYLE('',#21,POSITIVE_LENGTH_MEASURE(2.E-2),#3);
#291=PRESENTATION_STYLE_ASSIGNMENT((#290));
#292=STYLED_ITEM('',(#291),#289);
#293=CARTESIAN_POINT('',(3.25E0,9.3875E-1,1.146610349944E0));
#294=DIRECTION('',(0.E0,-1.E0,0.E0));
#295=DIRECTION('',(1.E0,0.E0,0.E0));
#296=AXIS2_PLACEMENT_3D('',#293,#294,#295);
#298=CURVE_STYLE('',#21,POSITIVE_LENGTH_MEASURE(2.E-2),#3);
#299=PRESENTATION_STYLE_ASSIGNMENT((#298));
#300=STYLED_ITEM('',(#299),#297);
#301=CARTESIAN_POINT('',(3.25E0,9.3875E-1,1.146610349944E0));
#302=DIRECTION('',(0.E0,-1.E0,0.E0));
#303=DIRECTION('',(-1.E0,0.E0,0.E0));
#304=AXIS2_PLACEMENT_3D('',#301,#302,#303);
#306=CURVE_STYLE('',#21,POSITIVE_LENGTH_MEASURE(2.E-2),#3);
#307=PRESENTATION_STYLE_ASSIGNMENT((#306));
#308=STYLED_ITEM('',(#307),#305);
#309=DIRECTION('',(0.E0,0.E0,-1.E0));
#310=VECTOR('',#309,3.75E-1);
#311=CARTESIAN_POINT('',(1.3E0,9.3875E-1,1.334110349944E0));
#312=LINE('',#311,#310);
#313=CURVE_STYLE('',#21,POSITIVE_LENGTH_MEASURE(2.E-2),#3);
#314=PRESENTATION_STYLE_ASSIGNMENT((#313));
#315=STYLED_ITEM('',(#314),#312);
#316=DIRECTION('',(1.E0,0.E0,0.E0));
#317=VECTOR('',#316,1.25E0);
#318=CARTESIAN_POINT('',(5.E-2,9.3875E-1,1.334110349944E0));
#319=LINE('',#318,#317);
#320=CURVE_STYLE('',#21,POSITIVE_LENGTH_MEASURE(2.E-2),#3);
#321=PRESENTATION_STYLE_ASSIGNMENT((#320));
#322=STYLED_ITEM('',(#321),#319);
#323=DIRECTION('',(0.E0,0.E0,1.E0));
#324=VECTOR('',#323,3.75E-1);
#325=CARTESIAN_POINT('',(5.E-2,9.3875E-1,9.591103499437E-1));
#326=LINE('',#325,#324);
#327=CURVE_STYLE('',#21,POSITIVE_LENGTH_MEASURE(2.E-2),#3);
#328=PRESENTATION_STYLE_ASSIGNMENT((#327));
#329=STYLED_ITEM('',(#328),#326);
#330=DIRECTION('',(-1.E0,0.E0,0.E0));
#331=VECTOR('',#330,1.25E0);
#332=CARTESIAN_POINT('',(1.3E0,9.3875E-1,9.591103499437E-1));
#333=LINE('',#332,#331);
#334=CURVE_STYLE('',#21,POSITIVE_LENGTH_MEASURE(2.E-2),#3);
#335=PRESENTATION_STYLE_ASSIGNMENT((#334));
#336=STYLED_ITEM('',(#335),#333);
#337=CARTESIAN_POINT('',(3.437412164417E0,9.3875E-1,7.867988280480E-1));
#338=DIRECTION('',(0.E0,-1.E0,0.E0));
#339=DIRECTION('',(0.E0,0.E0,1.E0));
#340=AXIS2_PLACEMENT_3D('',#337,#338,#339);
#342=CURVE_STYLE('',#21,POSITIVE_LENGTH_MEASURE(2.E-2),#3);
#343=PRESENTATION_STYLE_ASSIGNMENT((#342));
#344=STYLED_ITEM('',(#343),#341);
#345=DIRECTION('',(-1.E0,0.E0,0.E0));
#346=VECTOR('',#345,1.258783558290E-2);
#347=CARTESIAN_POINT('',(3.45E0,9.3875E-1,1.029981248916E0));
#348=LINE('',#347,#346);
#349=CURVE_STYLE('',#21,POSITIVE_LENGTH_MEASURE(2.E-2),#3);
#350=PRESENTATION_STYLE_ASSIGNMENT((#349));
#351=STYLED_ITEM('',(#350),#348);
#352=DIRECTION('',(0.E0,0.E0,-1.E0));
#353=VECTOR('',#352,3.041291010281E-1);
#354=CARTESIAN_POINT('',(3.45E0,9.3875E-1,1.334110349944E0));
#355=LINE('',#354,#353);
#356=CURVE_STYLE('',#21,POSITIVE_LENGTH_MEASURE(2.E-2),#3);
#357=PRESENTATION_STYLE_ASSIGNMENT((#356));
#358=STYLED_ITEM('',(#357),#355);
#359=DIRECTION('',(1.E0,0.E0,0.E0));
#360=VECTOR('',#359,1.25E0);
#361=CARTESIAN_POINT('',(2.2E0,9.3875E-1,1.334110349944E0));
#362=LINE('',#361,#360);
#363=CURVE_STYLE('',#21,POSITIVE_LENGTH_MEASURE(2.E-2),#3);
#364=PRESENTATION_STYLE_ASSIGNMENT((#363));
#365=STYLED_ITEM('',(#364),#362);
#366=DIRECTION('',(0.E0,0.E0,1.E0));
#367=VECTOR('',#366,3.75E-1);
#368=CARTESIAN_POINT('',(2.2E0,9.3875E-1,9.591103499437E-1));
#369=LINE('',#368,#367);
#370=CURVE_STYLE('',#21,POSITIVE_LENGTH_MEASURE(2.E-2),#3);
#371=PRESENTATION_STYLE_ASSIGNMENT((#370));
#372=STYLED_ITEM('',(#371),#369);
#373=DIRECTION('',(-1.E0,0.E0,0.E0));
#374=VECTOR('',#373,1.065812545417E0);
#375=CARTESIAN_POINT('',(3.265812545417E0,9.3875E-1,9.591103499437E-1));
#376=LINE('',#375,#374);
#377=CURVE_STYLE('',#21,POSITIVE_LENGTH_MEASURE(2.E-2),#3);
#378=PRESENTATION_STYLE_ASSIGNMENT((#377));
#379=STYLED_ITEM('',(#378),#376);
#380=DIRECTION('',(0.E0,1.E0,0.E0));
#381=VECTOR('',#380,8.31E-1);
#382=CARTESIAN_POINT('',(7.61614E-1,1.0775E-1,1.146610349944E0));
#383=LINE('',#382,#381);
#384=CURVE_STYLE('',#21,POSITIVE_LENGTH_MEASURE(2.E-2),#3);
#385=PRESENTATION_STYLE_ASSIGNMENT((#384));
#386=STYLED_ITEM('',(#385),#383);
#387=DIRECTION('',(0.E0,-1.E0,0.E0));
#388=VECTOR('',#387,8.31E-1);
#389=CARTESIAN_POINT('',(5.88386E-1,9.3875E-1,1.146610349944E0));
#390=LINE('',#389,#388);
#391=CURVE_STYLE('',#21,POSITIVE_LENGTH_MEASURE(2.E-2),#3);
#392=PRESENTATION_STYLE_ASSIGNMENT((#391));
#393=STYLED_ITEM('',(#392),#390);
#394=DIRECTION('',(0.E0,1.E0,0.E0));
#395=VECTOR('',#394,8.31E-1);
#396=CARTESIAN_POINT('',(1.186614E0,1.0775E-1,1.146610349944E0));
#397=LINE('',#396,#395);
#398=CURVE_STYLE('',#21,POSITIVE_LENGTH_MEASURE(2.E-2),#3);
#399=PRESENTATION_STYLE_ASSIGNMENT((#398));
#400=STYLED_ITEM('',(#399),#397);
#401=DIRECTION('',(0.E0,-1.E0,0.E0));
#402=VECTOR('',#401,8.31E-1);
#403=CARTESIAN_POINT('',(1.013386E0,9.3875E-1,1.146610349944E0));
#404=LINE('',#403,#402);
#405=CURVE_STYLE('',#21,POSITIVE_LENGTH_MEASURE(2.E-2),#3);
#406=PRESENTATION_STYLE_ASSIGNMENT((#405));
#407=STYLED_ITEM('',(#406),#404);
#408=DIRECTION('',(0.E0,1.E0,0.E0));
#409=VECTOR('',#408,8.31E-1);
#410=CARTESIAN_POINT('',(3.36614E-1,1.0775E-1,1.146610349944E0));
#411=LINE('',#410,#409);
#412=CURVE_STYLE('',#21,POSITIVE_LENGTH_MEASURE(2.E-2),#3);
#413=PRESENTATION_STYLE_ASSIGNMENT((#412));
#414=STYLED_ITEM('',(#413),#411);
#415=DIRECTION('',(0.E0,-1.E0,0.E0));
#416=VECTOR('',#415,8.31E-1);
#417=CARTESIAN_POINT('',(1.63386E-1,9.3875E-1,1.146610349944E0));
#418=LINE('',#417,#416);
#419=CURVE_STYLE('',#21,POSITIVE_LENGTH_MEASURE(2.E-2),#3);
#420=PRESENTATION_STYLE_ASSIGNMENT((#419));
#421=STYLED_ITEM('',(#420),#418);
#422=DIRECTION('',(0.E0,1.E0,0.E0));
#423=VECTOR('',#422,8.31E-1);
#424=CARTESIAN_POINT('',(2.486614E0,1.0775E-1,1.146610349944E0));
#425=LINE('',#424,#423);
#426=CURVE_STYLE('',#21,POSITIVE_LENGTH_MEASURE(2.E-2),#3);
#427=PRESENTATION_STYLE_ASSIGNMENT((#426));
#428=STYLED_ITEM('',(#427),#425);
#429=DIRECTION('',(0.E0,-1.E0,0.E0));
#430=VECTOR('',#429,8.31E-1);
#431=CARTESIAN_POINT('',(2.313386E0,9.3875E-1,1.146610349944E0));
#432=LINE('',#431,#430);
#433=CURVE_STYLE('',#21,POSITIVE_LENGTH_MEASURE(2.E-2),#3);
#434=PRESENTATION_STYLE_ASSIGNMENT((#433));
#435=STYLED_ITEM('',(#434),#432);
#436=DIRECTION('',(0.E0,1.E0,0.E0));
#437=VECTOR('',#436,8.31E-1);
#438=CARTESIAN_POINT('',(2.911614E0,1.0775E-1,1.146610349944E0));
#439=LINE('',#438,#437);
#440=CURVE_STYLE('',#21,POSITIVE_LENGTH_MEASURE(2.E-2),#3);
#441=PRESENTATION_STYLE_ASSIGNMENT((#440));
#442=STYLED_ITEM('',(#441),#439);
#443=DIRECTION('',(0.E0,-1.E0,0.E0));
#444=VECTOR('',#443,8.31E-1);
#445=CARTESIAN_POINT('',(2.738386E0,9.3875E-1,1.146610349944E0));
#446=LINE('',#445,#444);
#447=CURVE_STYLE('',#21,POSITIVE_LENGTH_MEASURE(2.E-2),#3);
#448=PRESENTATION_STYLE_ASSIGNMENT((#447));
#449=STYLED_ITEM('',(#448),#446);
#450=DIRECTION('',(0.E0,-1.E0,0.E0));
#451=VECTOR('',#450,5.678278051219E-2);
#452=CARTESIAN_POINT('',(1.3E0,9.3875E-1,1.334110349944E0));
#453=LINE('',#452,#451);
#454=CURVE_STYLE('',#21,POSITIVE_LENGTH_MEASURE(2.E-2),#3);
#455=PRESENTATION_STYLE_ASSIGNMENT((#454));
#456=STYLED_ITEM('',(#455),#453);
#457=CARTESIAN_POINT('',(1.3E0,5.864274590494E-1,1.146610349944E0));
#458=DIRECTION('',(-1.E0,0.E0,0.E0));
#459=DIRECTION('',(0.E0,8.443993155384E-1,5.357142857143E-1));
#460=AXIS2_PLACEMENT_3D('',#457,#458,#459);
#462=CURVE_STYLE('',#21,POSITIVE_LENGTH_MEASURE(2.E-2),#3);
#463=PRESENTATION_STYLE_ASSIGNMENT((#462));
#464=STYLED_ITEM('',(#463),#461);
#465=DIRECTION('',(1.E0,0.E0,0.E0));
#466=VECTOR('',#465,1.25E0);
#467=CARTESIAN_POINT('',(5.E-2,8.819672194878E-1,9.591103499437E-1));
#468=LINE('',#467,#466);
#469=CURVE_STYLE('',#21,POSITIVE_LENGTH_MEASURE(2.E-2),#3);
#470=PRESENTATION_STYLE_ASSIGNMENT((#469));
#471=STYLED_ITEM('',(#470),#468);
#472=CARTESIAN_POINT('',(5.E-2,5.864274590494E-1,1.146610349944E0));
#473=DIRECTION('',(-1.E0,0.E0,0.E0));
#474=DIRECTION('',(0.E0,8.443993155384E-1,5.357142857143E-1));
#475=AXIS2_PLACEMENT_3D('',#472,#473,#474);
#477=CURVE_STYLE('',#21,POSITIVE_LENGTH_MEASURE(2.E-2),#3);
#478=PRESENTATION_STYLE_ASSIGNMENT((#477));
#479=STYLED_ITEM('',(#478),#476);
#480=DIRECTION('',(1.E0,0.E0,0.E0));
#481=VECTOR('',#480,1.25E0);
#482=CARTESIAN_POINT('',(5.E-2,8.819672194878E-1,1.334110349944E0));
#483=LINE('',#482,#481);
#484=CURVE_STYLE('',#21,POSITIVE_LENGTH_MEASURE(2.E-2),#3);
#485=PRESENTATION_STYLE_ASSIGNMENT((#484));
#486=STYLED_ITEM('',(#485),#483);
#487=CARTESIAN_POINT('',(3.209087596063E0,8.015136485384E-1,8.704981787323E-1));
#488=CARTESIAN_POINT('',(3.198946406112E0,7.660002283983E-1,8.428338922209E-1));
#489=CARTESIAN_POINT('',(3.191492731709E0,7.262890153771E-1,8.225009150005E-1));
#490=CARTESIAN_POINT('',(3.186890695831E0,6.821236558796E-1,8.099469603210E-1));
#492=CURVE_STYLE('',#21,POSITIVE_LENGTH_MEASURE(2.E-2),#3);
#493=PRESENTATION_STYLE_ASSIGNMENT((#492));
#494=STYLED_ITEM('',(#493),#491);
#495=CARTESIAN_POINT('',(3.209087596063E0,8.015136485384E-1,8.704981787323E-1));
#496=CARTESIAN_POINT('',(3.211054474866E0,8.084014589075E-1,8.758636534947E-1));
#497=CARTESIAN_POINT('',(3.215571184075E0,8.216797397532E-1,8.870300081026E-1));
#498=CARTESIAN_POINT('',(3.224603640913E0,8.401958433774E-1,9.051179236509E-1));
#499=CARTESIAN_POINT('',(3.235969091086E0,8.565348974757E-1,9.236153639304E-1));
#500=CARTESIAN_POINT('',(3.249286454077E0,8.702864344123E-1,9.414673245215E-1));
#501=CARTESIAN_POINT('',(3.259993663531E0,8.782907844372E-1,9.533155086951E-1));
#502=CARTESIAN_POINT('',(3.265812545417E0,8.819672194878E-1,9.591103499437E-1));
#504=CURVE_STYLE('',#21,POSITIVE_LENGTH_MEASURE(2.E-2),#3);
#505=PRESENTATION_STYLE_ASSIGNMENT((#504));
#506=STYLED_ITEM('',(#505),#503);
#507=DIRECTION('',(1.E0,0.E0,0.E0));
#508=VECTOR('',#507,1.065812545417E0);
#509=CARTESIAN_POINT('',(2.2E0,8.819672194878E-1,9.591103499437E-1));
#510=LINE('',#509,#508);
#511=CURVE_STYLE('',#21,POSITIVE_LENGTH_MEASURE(2.E-2),#3);
#512=PRESENTATION_STYLE_ASSIGNMENT((#511));
#513=STYLED_ITEM('',(#512),#510);
#514=CARTESIAN_POINT('',(2.2E0,5.864274590494E-1,1.146610349944E0));
#515=DIRECTION('',(-1.E0,0.E0,0.E0));
#516=DIRECTION('',(0.E0,8.443993155384E-1,5.357142857143E-1));
#517=AXIS2_PLACEMENT_3D('',#514,#515,#516);
#519=CURVE_STYLE('',#21,POSITIVE_LENGTH_MEASURE(2.E-2),#3);
#520=PRESENTATION_STYLE_ASSIGNMENT((#519));
#521=STYLED_ITEM('',(#520),#518);
#522=DIRECTION('',(1.E0,0.E0,0.E0));
#523=VECTOR('',#522,1.25E0);
#524=CARTESIAN_POINT('',(2.2E0,8.819672194878E-1,1.334110349944E0));
#525=LINE('',#524,#523);
#526=CURVE_STYLE('',#21,POSITIVE_LENGTH_MEASURE(2.E-2),#3);
#527=PRESENTATION_STYLE_ASSIGNMENT((#526));
#528=STYLED_ITEM('',(#527),#525);
#529=CARTESIAN_POINT('',(3.45E0,5.864274590494E-1,1.146610349944E0));
#530=DIRECTION('',(-1.E0,0.E0,0.E0));
#531=DIRECTION('',(0.E0,8.443993155384E-1,5.357142857143E-1));
#532=AXIS2_PLACEMENT_3D('',#529,#530,#531);
#534=CURVE_STYLE('',#21,POSITIVE_LENGTH_MEASURE(2.E-2),#3);
#535=PRESENTATION_STYLE_ASSIGNMENT((#534));
#536=STYLED_ITEM('',(#535),#533);
#537=DIRECTION('',(1.E0,0.E0,0.E0));
#538=VECTOR('',#537,5.E-2);
#539=CARTESIAN_POINT('',(3.45E0,9.164239026566E-1,1.029981248916E0));
#540=LINE('',#539,#538);
#541=CURVE_STYLE('',#21,POSITIVE_LENGTH_MEASURE(2.E-2),#3);
#542=PRESENTATION_STYLE_ASSIGNMENT((#541));
#543=STYLED_ITEM('',(#542),#540);
#544=DIRECTION('',(1.E0,0.E0,0.E0));
#545=VECTOR('',#544,3.5E0);
#546=CARTESIAN_POINT('',(0.E0,6.821236558796E-1,1.483273739566E0));
#547=LINE('',#546,#545);
#548=CURVE_STYLE('',#21,POSITIVE_LENGTH_MEASURE(2.E-2),#3);
#549=PRESENTATION_STYLE_ASSIGNMENT((#548));
#550=STYLED_ITEM('',(#549),#547);
#551=DIRECTION('',(0.E0,-1.E0,0.E0));
#552=VECTOR('',#551,5.678278051220E-2);
#553=CARTESIAN_POINT('',(1.3E0,9.3875E-1,9.591103499437E-1));
#554=LINE('',#553,#552);
#555=CURVE_STYLE('',#21,POSITIVE_LENGTH_MEASURE(2.E-2),#3);
#556=PRESENTATION_STYLE_ASSIGNMENT((#555));
#557=STYLED_ITEM('',(#556),#554);
#558=DIRECTION('',(0.E0,-1.E0,0.E0));
#559=VECTOR('',#558,5.678278051220E-2);
#560=CARTESIAN_POINT('',(5.E-2,9.3875E-1,9.591103499437E-1));
#561=LINE('',#560,#559);
#562=CURVE_STYLE('',#21,POSITIVE_LENGTH_MEASURE(2.E-2),#3);
#563=PRESENTATION_STYLE_ASSIGNMENT((#562));
#564=STYLED_ITEM('',(#563),#561);
#565=DIRECTION('',(0.E0,-1.E0,0.E0));
#566=VECTOR('',#565,5.678278051219E-2);
#567=CARTESIAN_POINT('',(5.E-2,9.3875E-1,1.334110349944E0));
#568=LINE('',#567,#566);
#569=CURVE_STYLE('',#21,POSITIVE_LENGTH_MEASURE(2.E-2),#3);
#570=PRESENTATION_STYLE_ASSIGNMENT((#569));
#571=STYLED_ITEM('',(#570),#568);
#572=DIRECTION('',(0.E0,-1.E0,0.E0));
#573=VECTOR('',#572,8.31E-1);
#574=CARTESIAN_POINT('',(3.437412164417E0,9.3875E-1,1.029981248916E0));
#575=LINE('',#574,#573);
#576=CURVE_STYLE('',#21,POSITIVE_LENGTH_MEASURE(2.E-2),#3);
#577=PRESENTATION_STYLE_ASSIGNMENT((#576));
#578=STYLED_ITEM('',(#577),#575);
#579=DIRECTION('',(0.E0,1.E0,0.E0));
#580=VECTOR('',#579,8.086739026566E-1);
#581=CARTESIAN_POINT('',(3.5E0,1.0775E-1,1.029981248916E0));
#582=LINE('',#581,#580);
#583=CURVE_STYLE('',#21,POSITIVE_LENGTH_MEASURE(2.E-2),#3);
#584=PRESENTATION_STYLE_ASSIGNMENT((#583));
#585=STYLED_ITEM('',(#584),#582);
#586=DIRECTION('',(0.E0,0.E0,1.E0));
#587=VECTOR('',#586,4.532924906507E-1);
#588=CARTESIAN_POINT('',(3.5E0,1.0775E-1,1.029981248916E0));
#589=LINE('',#588,#587);
#590=CURVE_STYLE('',#21,POSITIVE_LENGTH_MEASURE(2.E-2),#3);
#591=PRESENTATION_STYLE_ASSIGNMENT((#590));
#592=STYLED_ITEM('',(#591),#589);
#593=DIRECTION('',(0.E0,1.E0,0.E0));
#594=VECTOR('',#593,3.829812622191E-1);
#595=CARTESIAN_POINT('',(3.5E0,1.0775E-1,1.483273739566E0));
#596=LINE('',#595,#594);
#597=CURVE_STYLE('',#21,POSITIVE_LENGTH_MEASURE(2.E-2),#3);
#598=PRESENTATION_STYLE_ASSIGNMENT((#597));
#599=STYLED_ITEM('',(#598),#596);
#600=DIRECTION('',(0.E0,1.E0,0.E0));
#601=VECTOR('',#600,1.913923936605E-1);
#602=CARTESIAN_POINT('',(3.5E0,4.907312622191E-1,1.483273739566E0));
#603=LINE('',#602,#601);
#604=CURVE_STYLE('',#21,POSITIVE_LENGTH_MEASURE(2.E-2),#3);
#605=PRESENTATION_STYLE_ASSIGNMENT((#604));
#606=STYLED_ITEM('',(#605),#603);
#607=CARTESIAN_POINT('',(3.5E0,5.864274590494E-1,1.146610349944E0));
#608=DIRECTION('',(-1.E0,0.E0,0.E0));
#609=DIRECTION('',(0.E0,2.734177052292E-1,9.618953989219E-1));
#610=AXIS2_PLACEMENT_3D('',#607,#608,#609);
#612=CURVE_STYLE('',#21,POSITIVE_LENGTH_MEASURE(2.E-2),#3);
#613=PRESENTATION_STYLE_ASSIGNMENT((#612));
#614=STYLED_ITEM('',(#613),#611);
#615=DIRECTION('',(1.E0,0.E0,0.E0));
#616=VECTOR('',#615,3.5E0);
#617=CARTESIAN_POINT('',(0.E0,1.0775E-1,1.483273739566E0));
#618=LINE('',#617,#616);
#619=CURVE_STYLE('',#21,POSITIVE_LENGTH_MEASURE(2.E-2),#3);
#620=PRESENTATION_STYLE_ASSIGNMENT((#619));
#621=STYLED_ITEM('',(#620),#618);
#622=DIRECTION('',(1.E0,0.E0,0.E0));
#623=VECTOR('',#622,3.5E0);
#624=CARTESIAN_POINT('',(0.E0,4.907312622191E-1,1.483273739566E0));
#625=LINE('',#624,#623);
#626=CURVE_STYLE('',#21,POSITIVE_LENGTH_MEASURE(2.E-2),#3);
#627=PRESENTATION_STYLE_ASSIGNMENT((#626));
#628=STYLED_ITEM('',(#627),#625);
#629=DIRECTION('',(0.E0,-1.E0,0.E0));
#630=VECTOR('',#629,2.232609734344E-2);
#631=CARTESIAN_POINT('',(3.45E0,9.3875E-1,1.029981248916E0));
#632=LINE('',#631,#630);
#633=CURVE_STYLE('',#21,POSITIVE_LENGTH_MEASURE(2.E-2),#3);
#634=PRESENTATION_STYLE_ASSIGNMENT((#633));
#635=STYLED_ITEM('',(#634),#632);
#636=DIRECTION('',(0.E0,-1.E0,0.E0));
#637=VECTOR('',#636,5.678278051219E-2);
#638=CARTESIAN_POINT('',(3.45E0,9.3875E-1,1.334110349944E0));
#639=LINE('',#638,#637);
#640=CURVE_STYLE('',#21,POSITIVE_LENGTH_MEASURE(2.E-2),#3);
#641=PRESENTATION_STYLE_ASSIGNMENT((#640));
#642=STYLED_ITEM('',(#641),#639);
#643=DIRECTION('',(0.E0,-1.E0,0.E0));
#644=VECTOR('',#643,5.678278051219E-2);
#645=CARTESIAN_POINT('',(2.2E0,9.3875E-1,1.334110349944E0));
#646=LINE('',#645,#644);
#647=CURVE_STYLE('',#21,POSITIVE_LENGTH_MEASURE(2.E-2),#3);
#648=PRESENTATION_STYLE_ASSIGNMENT((#647));
#649=STYLED_ITEM('',(#648),#646);
#650=DIRECTION('',(0.E0,-1.E0,0.E0));
#651=VECTOR('',#650,5.678278051220E-2);
#652=CARTESIAN_POINT('',(2.2E0,9.3875E-1,9.591103499437E-1));
#653=LINE('',#652,#651);
#654=CURVE_STYLE('',#21,POSITIVE_LENGTH_MEASURE(2.E-2),#3);
#655=PRESENTATION_STYLE_ASSIGNMENT((#654));
#656=STYLED_ITEM('',(#655),#653);
#657=DIRECTION('',(0.E0,1.E0,0.E0));
#658=VECTOR('',#657,5.678278051220E-2);
#659=CARTESIAN_POINT('',(3.265812545417E0,8.819672194878E-1,9.591103499437E-1));
#660=LINE('',#659,#658);
#661=CURVE_STYLE('',#21,POSITIVE_LENGTH_MEASURE(2.E-2),#3);
#662=PRESENTATION_STYLE_ASSIGNMENT((#661));
#663=STYLED_ITEM('',(#662),#660);
#664=CARTESIAN_POINT('',(0.E0,4.907312622191E-1,1.483273739566E0));
#665=CARTESIAN_POINT('',(0.E0,6.821236558796E-1,1.483273739566E0));
#666=VERTEX_POINT('',#664);
#667=VERTEX_POINT('',#665);
#668=CARTESIAN_POINT('',(0.E0,6.821236558796E-1,8.099469603210E-1));
#669=VERTEX_POINT('',#668);
#670=CARTESIAN_POINT('',(3.5E0,4.907312622191E-1,1.483273739566E0));
#671=CARTESIAN_POINT('',(3.5E0,6.821236558796E-1,1.483273739566E0));
#672=VERTEX_POINT('',#670);
#673=VERTEX_POINT('',#671);
#674=CARTESIAN_POINT('',(0.E0,1.0775E-1,8.099469603210E-1));
#675=CARTESIAN_POINT('',(0.E0,1.0775E-1,1.483273739566E0));
#676=VERTEX_POINT('',#674);
#677=VERTEX_POINT('',#675);
#678=CARTESIAN_POINT('',(3.5E0,1.0775E-1,1.483273739566E0));
#679=VERTEX_POINT('',#678);
#680=CARTESIAN_POINT('',(3.163386E0,1.0775E-1,1.146610349944E0));
#681=CARTESIAN_POINT('',(3.336614E0,1.0775E-1,1.146610349944E0));
#682=VERTEX_POINT('',#680);
#683=VERTEX_POINT('',#681);
#684=CARTESIAN_POINT('',(2.313386E0,1.0775E-1,1.146610349944E0));
#685=CARTESIAN_POINT('',(2.486614E0,1.0775E-1,1.146610349944E0));
#686=VERTEX_POINT('',#684);
#687=VERTEX_POINT('',#685);
#688=CARTESIAN_POINT('',(2.738386E0,1.0775E-1,1.146610349944E0));
#689=CARTESIAN_POINT('',(2.911614E0,1.0775E-1,1.146610349944E0));
#690=VERTEX_POINT('',#688);
#691=VERTEX_POINT('',#689);
#692=CARTESIAN_POINT('',(1.63386E-1,1.0775E-1,1.146610349944E0));
#693=CARTESIAN_POINT('',(3.36614E-1,1.0775E-1,1.146610349944E0));
#694=VERTEX_POINT('',#692);
#695=VERTEX_POINT('',#693);
#696=CARTESIAN_POINT('',(1.013386E0,1.0775E-1,1.146610349944E0));
#697=CARTESIAN_POINT('',(1.186614E0,1.0775E-1,1.146610349944E0));
#698=VERTEX_POINT('',#696);
#699=VERTEX_POINT('',#697);
#700=CARTESIAN_POINT('',(5.88386E-1,1.0775E-1,1.146610349944E0));
#701=CARTESIAN_POINT('',(7.61614E-1,1.0775E-1,1.146610349944E0));
#702=VERTEX_POINT('',#700);
#703=VERTEX_POINT('',#701);
#704=CARTESIAN_POINT('',(7.61614E-1,9.3875E-1,1.146610349944E0));
#705=CARTESIAN_POINT('',(5.88386E-1,9.3875E-1,1.146610349944E0));
#706=VERTEX_POINT('',#704);
#707=VERTEX_POINT('',#705);
#708=CARTESIAN_POINT('',(1.186614E0,9.3875E-1,1.146610349944E0));
#709=CARTESIAN_POINT('',(1.013386E0,9.3875E-1,1.146610349944E0));
#710=VERTEX_POINT('',#708);
#711=VERTEX_POINT('',#709);
#712=CARTESIAN_POINT('',(3.36614E-1,9.3875E-1,1.146610349944E0));
#713=CARTESIAN_POINT('',(1.63386E-1,9.3875E-1,1.146610349944E0));
#714=VERTEX_POINT('',#712);
#715=VERTEX_POINT('',#713);
#716=CARTESIAN_POINT('',(2.486614E0,9.3875E-1,1.146610349944E0));
#717=CARTESIAN_POINT('',(2.313386E0,9.3875E-1,1.146610349944E0));
#718=VERTEX_POINT('',#716);
#719=VERTEX_POINT('',#717);
#720=CARTESIAN_POINT('',(2.911614E0,9.3875E-1,1.146610349944E0));
#721=CARTESIAN_POINT('',(2.738386E0,9.3875E-1,1.146610349944E0));
#722=VERTEX_POINT('',#720);
#723=VERTEX_POINT('',#721);
#724=CARTESIAN_POINT('',(3.336614E0,9.3875E-1,1.146610349944E0));
#725=CARTESIAN_POINT('',(3.163386E0,9.3875E-1,1.146610349944E0));
#726=VERTEX_POINT('',#724);
#727=VERTEX_POINT('',#725);
#728=CARTESIAN_POINT('',(1.3E0,9.3875E-1,1.334110349944E0));
#729=CARTESIAN_POINT('',(1.3E0,9.3875E-1,9.591103499437E-1));
#730=VERTEX_POINT('',#728);
#731=VERTEX_POINT('',#729);
#732=CARTESIAN_POINT('',(5.E-2,9.3875E-1,9.591103499437E-1));
#733=VERTEX_POINT('',#732);
#734=CARTESIAN_POINT('',(5.E-2,9.3875E-1,1.334110349944E0));
#735=VERTEX_POINT('',#734);
#736=CARTESIAN_POINT('',(2.2E0,9.3875E-1,9.591103499437E-1));
#737=CARTESIAN_POINT('',(2.2E0,9.3875E-1,1.334110349944E0));
#738=VERTEX_POINT('',#736);
#739=VERTEX_POINT('',#737);
#740=CARTESIAN_POINT('',(3.45E0,9.3875E-1,1.334110349944E0));
#741=VERTEX_POINT('',#740);
#742=CARTESIAN_POINT('',(1.3E0,8.819672194878E-1,1.334110349944E0));
#743=CARTESIAN_POINT('',(1.3E0,8.819672194878E-1,9.591103499437E-1));
#744=VERTEX_POINT('',#742);
#745=VERTEX_POINT('',#743);
#746=CARTESIAN_POINT('',(5.E-2,8.819672194878E-1,9.591103499437E-1));
#747=VERTEX_POINT('',#746);
#748=CARTESIAN_POINT('',(5.E-2,8.819672194878E-1,1.334110349944E0));
#749=VERTEX_POINT('',#748);
#750=CARTESIAN_POINT('',(2.2E0,8.819672194878E-1,1.334110349944E0));
#751=CARTESIAN_POINT('',(2.2E0,8.819672194878E-1,9.591103499437E-1));
#752=VERTEX_POINT('',#750);
#753=VERTEX_POINT('',#751);
#754=CARTESIAN_POINT('',(3.45E0,8.819672194878E-1,1.334110349944E0));
#755=VERTEX_POINT('',#754);
#756=CARTESIAN_POINT('',(3.5E0,1.0775E-1,1.029981248916E0));
#757=CARTESIAN_POINT('',(3.5E0,9.164239026566E-1,1.029981248916E0));
#758=VERTEX_POINT('',#756);
#759=VERTEX_POINT('',#757);
#760=VERTEX_POINT('',#487);
#761=VERTEX_POINT('',#490);
#762=CARTESIAN_POINT('',(3.45E0,9.164239026566E-1,1.029981248916E0));
#763=VERTEX_POINT('',#762);
#764=CARTESIAN_POINT('',(3.437412164417E0,1.0775E-1,1.029981248916E0));
#765=CARTESIAN_POINT('',(3.209087596063E0,1.0775E-1,8.704981787323E-1));
#766=VERTEX_POINT('',#764);
#767=VERTEX_POINT('',#765);
#768=CARTESIAN_POINT('',(3.186890695831E0,1.0775E-1,8.099469603210E-1));
#769=VERTEX_POINT('',#768);
#770=CARTESIAN_POINT('',(3.437412164417E0,9.3875E-1,1.029981248916E0));
#771=CARTESIAN_POINT('',(3.265812545417E0,9.3875E-1,9.591103499437E-1));
#772=VERTEX_POINT('',#770);
#773=VERTEX_POINT('',#771);
#774=CARTESIAN_POINT('',(3.45E0,9.3875E-1,1.029981248916E0));
#775=VERTEX_POINT('',#774);
#776=CARTESIAN_POINT('',(3.265812545417E0,8.819672194878E-1,9.591103499437E-1));
#777=VERTEX_POINT('',#776);
#778=CARTESIAN_POINT('',(0.E0,0.E0,0.E0));
#779=DIRECTION('',(-1.E0,0.E0,0.E0));
#780=DIRECTION('',(0.E0,0.E0,1.E0));
#781=AXIS2_PLACEMENT_3D('',#778,#779,#780);
#782=PLANE('',#781);
#784=ORIENTED_EDGE('',*,*,#783,.T.);
#786=ORIENTED_EDGE('',*,*,#785,.F.);
#788=ORIENTED_EDGE('',*,*,#787,.F.);
#790=ORIENTED_EDGE('',*,*,#789,.F.);
#792=ORIENTED_EDGE('',*,*,#791,.F.);
#793=EDGE_LOOP('',(#784,#786,#788,#790,#792));
#794=FACE_OUTER_BOUND('',#793,.F.);
#796=CARTESIAN_POINT('',(0.E0,6.821236558796E-1,8.099469603210E-1));
#797=DIRECTION('',(0.E0,0.E0,1.E0));
#798=DIRECTION('',(0.E0,-1.E0,0.E0));
#799=AXIS2_PLACEMENT_3D('',#796,#797,#798);
#800=PLANE('',#799);
#802=ORIENTED_EDGE('',*,*,#801,.F.);
#804=ORIENTED_EDGE('',*,*,#803,.F.);
#805=ORIENTED_EDGE('',*,*,#783,.F.);
#807=ORIENTED_EDGE('',*,*,#806,.T.);
#808=EDGE_LOOP('',(#802,#804,#805,#807));
#809=FACE_OUTER_BOUND('',#808,.F.);
#811=CARTESIAN_POINT('',(3.209087596063E0,9.3875E-1,8.704981787323E-1));
#812=DIRECTION('',(9.389024401495E-1,0.E0,-3.441833928029E-1));
#813=DIRECTION('',(-3.441833928029E-1,0.E0,-9.389024401495E-1));
#814=AXIS2_PLACEMENT_3D('',#811,#812,#813);
#815=PLANE('',#814);
#816=ORIENTED_EDGE('',*,*,#801,.T.);
#818=ORIENTED_EDGE('',*,*,#817,.F.);
#820=ORIENTED_EDGE('',*,*,#819,.F.);
#822=ORIENTED_EDGE('',*,*,#821,.T.);
#823=EDGE_LOOP('',(#816,#818,#820,#822));
#824=FACE_OUTER_BOUND('',#823,.F.);
#826=CARTESIAN_POINT('',(0.E0,1.0775E-1,8.099469603210E-1));
#827=DIRECTION('',(0.E0,1.E0,0.E0));
#828=DIRECTION('',(0.E0,0.E0,1.E0));
#829=AXIS2_PLACEMENT_3D('',#826,#827,#828);
#830=PLANE('',#829);
#832=ORIENTED_EDGE('',*,*,#831,.T.);
#833=ORIENTED_EDGE('',*,*,#817,.T.);
#834=ORIENTED_EDGE('',*,*,#806,.F.);
#835=ORIENTED_EDGE('',*,*,#791,.T.);
#837=ORIENTED_EDGE('',*,*,#836,.T.);
#839=ORIENTED_EDGE('',*,*,#838,.F.);
#841=ORIENTED_EDGE('',*,*,#840,.T.);
#842=EDGE_LOOP('',(#832,#833,#834,#835,#837,#839,#841));
#843=FACE_OUTER_BOUND('',#842,.F.);
#845=ORIENTED_EDGE('',*,*,#844,.F.);
#847=ORIENTED_EDGE('',*,*,#846,.F.);
#848=EDGE_LOOP('',(#845,#847));
#849=FACE_BOUND('',#848,.F.);
#851=ORIENTED_EDGE('',*,*,#850,.F.);
#853=ORIENTED_EDGE('',*,*,#852,.F.);
#854=EDGE_LOOP('',(#851,#853));
#855=FACE_BOUND('',#854,.F.);
#857=ORIENTED_EDGE('',*,*,#856,.F.);
#859=ORIENTED_EDGE('',*,*,#858,.F.);
#860=EDGE_LOOP('',(#857,#859));
#861=FACE_BOUND('',#860,.F.);
#863=ORIENTED_EDGE('',*,*,#862,.F.);
#865=ORIENTED_EDGE('',*,*,#864,.F.);
#866=EDGE_LOOP('',(#863,#865));
#867=FACE_BOUND('',#866,.F.);
#869=ORIENTED_EDGE('',*,*,#868,.F.);
#871=ORIENTED_EDGE('',*,*,#870,.F.);
#872=EDGE_LOOP('',(#869,#871));
#873=FACE_BOUND('',#872,.F.);
#875=ORIENTED_EDGE('',*,*,#874,.F.);
#877=ORIENTED_EDGE('',*,*,#876,.F.);
#878=EDGE_LOOP('',(#875,#877));
#879=FACE_BOUND('',#878,.F.);
#881=CARTESIAN_POINT('',(3.25E0,1.0775E-1,1.146610349944E0));
#882=DIRECTION('',(0.E0,1.E0,0.E0));
#883=DIRECTION('',(-1.E0,0.E0,0.E0));
#884=AXIS2_PLACEMENT_3D('',#881,#882,#883);
#885=CYLINDRICAL_SURFACE('',#884,8.6614E-2);
#887=ORIENTED_EDGE('',*,*,#886,.T.);
#888=ORIENTED_EDGE('',*,*,#874,.T.);
#890=ORIENTED_EDGE('',*,*,#889,.T.);
#892=ORIENTED_EDGE('',*,*,#891,.T.);
#893=EDGE_LOOP('',(#887,#888,#890,#892));
#894=FACE_OUTER_BOUND('',#893,.F.);
#896=CARTESIAN_POINT('',(3.25E0,1.0775E-1,1.146610349944E0));
#897=DIRECTION('',(0.E0,1.E0,0.E0));
#898=DIRECTION('',(-1.E0,0.E0,0.E0));
#899=AXIS2_PLACEMENT_3D('',#896,#897,#898);
#900=CYLINDRICAL_SURFACE('',#899,8.6614E-2);
#901=ORIENTED_EDGE('',*,*,#889,.F.);
#902=ORIENTED_EDGE('',*,*,#876,.T.);
#903=ORIENTED_EDGE('',*,*,#886,.F.);
#905=ORIENTED_EDGE('',*,*,#904,.T.);
#906=EDGE_LOOP('',(#901,#902,#903,#905));
#907=FACE_OUTER_BOUND('',#906,.F.);
#909=CARTESIAN_POINT('',(0.E0,9.3875E-1,0.E0));
#910=DIRECTION('',(0.E0,1.E0,0.E0));
#911=DIRECTION('',(0.E0,0.E0,-1.E0));
#912=AXIS2_PLACEMENT_3D('',#909,#910,#911);
#913=PLANE('',#912);
#915=ORIENTED_EDGE('',*,*,#914,.F.);
#917=ORIENTED_EDGE('',*,*,#916,.F.);
#919=ORIENTED_EDGE('',*,*,#918,.F.);
#921=ORIENTED_EDGE('',*,*,#920,.F.);
#922=EDGE_LOOP('',(#915,#917,#919,#921));
#923=FACE_OUTER_BOUND('',#922,.F.);
#925=ORIENTED_EDGE('',*,*,#924,.F.);
#927=ORIENTED_EDGE('',*,*,#926,.F.);
#928=EDGE_LOOP('',(#925,#927));
#929=FACE_BOUND('',#928,.F.);
#931=ORIENTED_EDGE('',*,*,#930,.F.);
#933=ORIENTED_EDGE('',*,*,#932,.F.);
#934=EDGE_LOOP('',(#931,#933));
#935=FACE_BOUND('',#934,.F.);
#937=ORIENTED_EDGE('',*,*,#936,.F.);
#939=ORIENTED_EDGE('',*,*,#938,.F.);
#940=EDGE_LOOP('',(#937,#939));
#941=FACE_BOUND('',#940,.F.);
#943=CARTESIAN_POINT('',(0.E0,9.3875E-1,0.E0));
#944=DIRECTION('',(0.E0,1.E0,0.E0));
#945=DIRECTION('',(0.E0,0.E0,-1.E0));
#946=AXIS2_PLACEMENT_3D('',#943,#944,#945);
#947=PLANE('',#946);
#949=ORIENTED_EDGE('',*,*,#948,.F.);
#951=ORIENTED_EDGE('',*,*,#950,.F.);
#953=ORIENTED_EDGE('',*,*,#952,.F.);
#955=ORIENTED_EDGE('',*,*,#954,.F.);
#957=ORIENTED_EDGE('',*,*,#956,.F.);
#959=ORIENTED_EDGE('',*,*,#958,.F.);
#960=EDGE_LOOP('',(#949,#951,#953,#955,#957,#959));
#961=FACE_OUTER_BOUND('',#960,.F.);
#963=ORIENTED_EDGE('',*,*,#962,.F.);
#965=ORIENTED_EDGE('',*,*,#964,.F.);
#966=EDGE_LOOP('',(#963,#965));
#967=FACE_BOUND('',#966,.F.);
#969=ORIENTED_EDGE('',*,*,#968,.F.);
#971=ORIENTED_EDGE('',*,*,#970,.F.);
#972=EDGE_LOOP('',(#969,#971));
#973=FACE_BOUND('',#972,.F.);
#974=ORIENTED_EDGE('',*,*,#891,.F.);
#975=ORIENTED_EDGE('',*,*,#904,.F.);
#976=EDGE_LOOP('',(#974,#975));
#977=FACE_BOUND('',#976,.F.);
#979=CARTESIAN_POINT('',(6.75E-1,1.0775E-1,1.146610349944E0));
#980=DIRECTION('',(0.E0,1.E0,0.E0));
#981=DIRECTION('',(-1.E0,0.E0,0.E0));
#982=AXIS2_PLACEMENT_3D('',#979,#980,#981);
#983=CYLINDRICAL_SURFACE('',#982,8.6614E-2);
#985=ORIENTED_EDGE('',*,*,#984,.T.);
#986=ORIENTED_EDGE('',*,*,#868,.T.);
#988=ORIENTED_EDGE('',*,*,#987,.T.);
#989=ORIENTED_EDGE('',*,*,#924,.T.);
#990=EDGE_LOOP('',(#985,#986,#988,#989));
#991=FACE_OUTER_BOUND('',#990,.F.);
#993=CARTESIAN_POINT('',(6.75E-1,1.0775E-1,1.146610349944E0));
#994=DIRECTION('',(0.E0,1.E0,0.E0));
#995=DIRECTION('',(-1.E0,0.E0,0.E0));
#996=AXIS2_PLACEMENT_3D('',#993,#994,#995);
#997=CYLINDRICAL_SURFACE('',#996,8.6614E-2);
#998=ORIENTED_EDGE('',*,*,#987,.F.);
#999=ORIENTED_EDGE('',*,*,#870,.T.);
#1000=ORIENTED_EDGE('',*,*,#984,.F.);
#1001=ORIENTED_EDGE('',*,*,#926,.T.);
#1002=EDGE_LOOP('',(#998,#999,#1000,#1001));
#1003=FACE_OUTER_BOUND('',#1002,.F.);
#1005=CARTESIAN_POINT('',(1.1E0,1.0775E-1,1.146610349944E0));
#1006=DIRECTION('',(0.E0,1.E0,0.E0));
#1007=DIRECTION('',(-1.E0,0.E0,0.E0));
#1008=AXIS2_PLACEMENT_3D('',#1005,#1006,#1007);
#1009=CYLINDRICAL_SURFACE('',#1008,8.6614E-2);
#1011=ORIENTED_EDGE('',*,*,#1010,.T.);
#1012=ORIENTED_EDGE('',*,*,#862,.T.);
#1014=ORIENTED_EDGE('',*,*,#1013,.T.);
#1015=ORIENTED_EDGE('',*,*,#930,.T.);
#1016=EDGE_LOOP('',(#1011,#1012,#1014,#1015));
#1017=FACE_OUTER_BOUND('',#1016,.F.);
#1019=CARTESIAN_POINT('',(1.1E0,1.0775E-1,1.146610349944E0));
#1020=DIRECTION('',(0.E0,1.E0,0.E0));
#1021=DIRECTION('',(-1.E0,0.E0,0.E0));
#1022=AXIS2_PLACEMENT_3D('',#1019,#1020,#1021);
#1023=CYLINDRICAL_SURFACE('',#1022,8.6614E-2);
#1024=ORIENTED_EDGE('',*,*,#1013,.F.);
#1025=ORIENTED_EDGE('',*,*,#864,.T.);
#1026=ORIENTED_EDGE('',*,*,#1010,.F.);
#1027=ORIENTED_EDGE('',*,*,#932,.T.);
#1028=EDGE_LOOP('',(#1024,#1025,#1026,#1027));
#1029=FACE_OUTER_BOUND('',#1028,.F.);
#1031=CARTESIAN_POINT('',(2.5E-1,1.0775E-1,1.146610349944E0));
#1032=DIRECTION('',(0.E0,1.E0,0.E0));
#1033=DIRECTION('',(-1.E0,0.E0,0.E0));
#1034=AXIS2_PLACEMENT_3D('',#1031,#1032,#1033);
#1035=CYLINDRICAL_SURFACE('',#1034,8.6614E-2);
#1037=ORIENTED_EDGE('',*,*,#1036,.T.);
#1038=ORIENTED_EDGE('',*,*,#856,.T.);
#1040=ORIENTED_EDGE('',*,*,#1039,.T.);
#1041=ORIENTED_EDGE('',*,*,#936,.T.);
#1042=EDGE_LOOP('',(#1037,#1038,#1040,#1041));
#1043=FACE_OUTER_BOUND('',#1042,.F.);
#1045=CARTESIAN_POINT('',(2.5E-1,1.0775E-1,1.146610349944E0));
#1046=DIRECTION('',(0.E0,1.E0,0.E0));
#1047=DIRECTION('',(-1.E0,0.E0,0.E0));
#1048=AXIS2_PLACEMENT_3D('',#1045,#1046,#1047);
#1049=CYLINDRICAL_SURFACE('',#1048,8.6614E-2);
#1050=ORIENTED_EDGE('',*,*,#1039,.F.);
#1051=ORIENTED_EDGE('',*,*,#858,.T.);
#1052=ORIENTED_EDGE('',*,*,#1036,.F.);
#1053=ORIENTED_EDGE('',*,*,#938,.T.);
#1054=EDGE_LOOP('',(#1050,#1051,#1052,#1053));
#1055=FACE_OUTER_BOUND('',#1054,.F.);
#1057=CARTESIAN_POINT('',(2.4E0,1.0775E-1,1.146610349944E0));
#1058=DIRECTION('',(0.E0,1.E0,0.E0));
#1059=DIRECTION('',(-1.E0,0.E0,0.E0));
#1060=AXIS2_PLACEMENT_3D('',#1057,#1058,#1059);
#1061=CYLINDRICAL_SURFACE('',#1060,8.6614E-2);
#1063=ORIENTED_EDGE('',*,*,#1062,.T.);
#1064=ORIENTED_EDGE('',*,*,#844,.T.);
#1066=ORIENTED_EDGE('',*,*,#1065,.T.);
#1067=ORIENTED_EDGE('',*,*,#962,.T.);
#1068=EDGE_LOOP('',(#1063,#1064,#1066,#1067));
#1069=FACE_OUTER_BOUND('',#1068,.F.);
#1071=CARTESIAN_POINT('',(2.4E0,1.0775E-1,1.146610349944E0));
#1072=DIRECTION('',(0.E0,1.E0,0.E0));
#1073=DIRECTION('',(-1.E0,0.E0,0.E0));
#1074=AXIS2_PLACEMENT_3D('',#1071,#1072,#1073);
#1075=CYLINDRICAL_SURFACE('',#1074,8.6614E-2);
#1076=ORIENTED_EDGE('',*,*,#1065,.F.);
#1077=ORIENTED_EDGE('',*,*,#846,.T.);
#1078=ORIENTED_EDGE('',*,*,#1062,.F.);
#1079=ORIENTED_EDGE('',*,*,#964,.T.);
#1080=EDGE_LOOP('',(#1076,#1077,#1078,#1079));
#1081=FACE_OUTER_BOUND('',#1080,.F.);
#1083=CARTESIAN_POINT('',(2.825E0,1.0775E-1,1.146610349944E0));
#1084=DIRECTION('',(0.E0,1.E0,0.E0));
#1085=DIRECTION('',(-1.E0,0.E0,0.E0));
#1086=AXIS2_PLACEMENT_3D('',#1083,#1084,#1085);
#1087=CYLINDRICAL_SURFACE('',#1086,8.6614E-2);
#1089=ORIENTED_EDGE('',*,*,#1088,.T.);
#1090=ORIENTED_EDGE('',*,*,#850,.T.);
#1092=ORIENTED_EDGE('',*,*,#1091,.T.);
#1093=ORIENTED_EDGE('',*,*,#968,.T.);
#1094=EDGE_LOOP('',(#1089,#1090,#1092,#1093));
#1095=FACE_OUTER_BOUND('',#1094,.F.);
#1097=CARTESIAN_POINT('',(2.825E0,1.0775E-1,1.146610349944E0));
#1098=DIRECTION('',(0.E0,1.E0,0.E0));
#1099=DIRECTION('',(-1.E0,0.E0,0.E0));
#1100=AXIS2_PLACEMENT_3D('',#1097,#1098,#1099);
#1101=CYLINDRICAL_SURFACE('',#1100,8.6614E-2);
#1102=ORIENTED_EDGE('',*,*,#1091,.F.);
#1103=ORIENTED_EDGE('',*,*,#852,.T.);
#1104=ORIENTED_EDGE('',*,*,#1088,.F.);
#1105=ORIENTED_EDGE('',*,*,#970,.T.);
#1106=EDGE_LOOP('',(#1102,#1103,#1104,#1105));
#1107=FACE_OUTER_BOUND('',#1106,.F.);
#1109=CARTESIAN_POINT('',(1.3E0,9.3875E-1,1.334110349944E0));
#1110=DIRECTION('',(-1.E0,0.E0,0.E0));
#1111=DIRECTION('',(0.E0,0.E0,-1.E0));
#1112=AXIS2_PLACEMENT_3D('',#1109,#1110,#1111);
#1113=PLANE('',#1112);
#1115=ORIENTED_EDGE('',*,*,#1114,.F.);
#1117=ORIENTED_EDGE('',*,*,#1116,.F.);
#1118=ORIENTED_EDGE('',*,*,#914,.T.);
#1120=ORIENTED_EDGE('',*,*,#1119,.T.);
#1121=EDGE_LOOP('',(#1115,#1117,#1118,#1120));
#1122=FACE_OUTER_BOUND('',#1121,.F.);
#1124=CARTESIAN_POINT('',(0.E0,5.864274590494E-1,1.146610349944E0));
#1125=DIRECTION('',(-1.E0,0.E0,0.E0));
#1126=DIRECTION('',(0.E0,0.E0,1.E0));
#1127=AXIS2_PLACEMENT_3D('',#1124,#1125,#1126);
#1128=CYLINDRICAL_SURFACE('',#1127,3.5E-1);
#1129=ORIENTED_EDGE('',*,*,#821,.F.);
#1131=ORIENTED_EDGE('',*,*,#1130,.T.);
#1133=ORIENTED_EDGE('',*,*,#1132,.F.);
#1135=ORIENTED_EDGE('',*,*,#1134,.F.);
#1137=ORIENTED_EDGE('',*,*,#1136,.T.);
#1139=ORIENTED_EDGE('',*,*,#1138,.T.);
#1141=ORIENTED_EDGE('',*,*,#1140,.T.);
#1143=ORIENTED_EDGE('',*,*,#1142,.F.);
#1145=ORIENTED_EDGE('',*,*,#1144,.F.);
#1146=ORIENTED_EDGE('',*,*,#785,.T.);
#1147=ORIENTED_EDGE('',*,*,#803,.T.);
#1148=EDGE_LOOP('',(#1129,#1131,#1133,#1135,#1137,#1139,#1141,#1143,#1145,#1146,
#1147));
#1149=FACE_OUTER_BOUND('',#1148,.F.);
#1150=ORIENTED_EDGE('',*,*,#1114,.T.);
#1152=ORIENTED_EDGE('',*,*,#1151,.F.);
#1154=ORIENTED_EDGE('',*,*,#1153,.F.);
#1156=ORIENTED_EDGE('',*,*,#1155,.T.);
#1157=EDGE_LOOP('',(#1150,#1152,#1154,#1156));
#1158=FACE_BOUND('',#1157,.F.);
#1160=CARTESIAN_POINT('',(1.3E0,9.3875E-1,9.591103499437E-1));
#1161=DIRECTION('',(0.E0,0.E0,1.E0));
#1162=DIRECTION('',(-1.E0,0.E0,0.E0));
#1163=AXIS2_PLACEMENT_3D('',#1160,#1161,#1162);
#1164=PLANE('',#1163);
#1165=ORIENTED_EDGE('',*,*,#1151,.T.);
#1166=ORIENTED_EDGE('',*,*,#1119,.F.);
#1167=ORIENTED_EDGE('',*,*,#920,.T.);
#1169=ORIENTED_EDGE('',*,*,#1168,.T.);
#1170=EDGE_LOOP('',(#1165,#1166,#1167,#1169));
#1171=FACE_OUTER_BOUND('',#1170,.F.);
#1173=CARTESIAN_POINT('',(5.E-2,9.3875E-1,9.591103499437E-1));
#1174=DIRECTION('',(1.E0,0.E0,0.E0));
#1175=DIRECTION('',(0.E0,0.E0,1.E0));
#1176=AXIS2_PLACEMENT_3D('',#1173,#1174,#1175);
#1177=PLANE('',#1176);
#1178=ORIENTED_EDGE('',*,*,#1153,.T.);
#1179=ORIENTED_EDGE('',*,*,#1168,.F.);
#1180=ORIENTED_EDGE('',*,*,#918,.T.);
#1182=ORIENTED_EDGE('',*,*,#1181,.T.);
#1183=EDGE_LOOP('',(#1178,#1179,#1180,#1182));
#1184=FACE_OUTER_BOUND('',#1183,.F.);
#1186=CARTESIAN_POINT('',(5.E-2,9.3875E-1,1.334110349944E0));
#1187=DIRECTION('',(0.E0,0.E0,-1.E0));
#1188=DIRECTION('',(1.E0,0.E0,0.E0));
#1189=AXIS2_PLACEMENT_3D('',#1186,#1187,#1188);
#1190=PLANE('',#1189);
#1191=ORIENTED_EDGE('',*,*,#1155,.F.);
#1192=ORIENTED_EDGE('',*,*,#1181,.F.);
#1193=ORIENTED_EDGE('',*,*,#916,.T.);
#1194=ORIENTED_EDGE('',*,*,#1116,.T.);
#1195=EDGE_LOOP('',(#1191,#1192,#1193,#1194));
#1196=FACE_OUTER_BOUND('',#1195,.F.);
#1198=CARTESIAN_POINT('',(3.437412164417E0,9.3875E-1,7.867988280480E-1));
#1199=DIRECTION('',(0.E0,-1.E0,0.E0));
#1200=DIRECTION('',(0.E0,0.E0,-1.E0));
#1201=AXIS2_PLACEMENT_3D('',#1198,#1199,#1200);
#1202=CYLINDRICAL_SURFACE('',#1201,2.431824208677E-1);
#1203=ORIENTED_EDGE('',*,*,#831,.F.);
#1205=ORIENTED_EDGE('',*,*,#1204,.F.);
#1206=ORIENTED_EDGE('',*,*,#948,.T.);
#1208=ORIENTED_EDGE('',*,*,#1207,.F.);
#1209=ORIENTED_EDGE('',*,*,#1130,.F.);
#1210=ORIENTED_EDGE('',*,*,#819,.T.);
#1211=EDGE_LOOP('',(#1203,#1205,#1206,#1208,#1209,#1210));
#1212=FACE_OUTER_BOUND('',#1211,.F.);
#1214=CARTESIAN_POINT('',(3.5E0,9.3875E-1,1.029981248916E0));
#1215=DIRECTION('',(0.E0,0.E0,-1.E0));
#1216=DIRECTION('',(-1.E0,0.E0,0.E0));
#1217=AXIS2_PLACEMENT_3D('',#1214,#1215,#1216);
#1218=PLANE('',#1217);
#1220=ORIENTED_EDGE('',*,*,#1219,.T.);
#1221=ORIENTED_EDGE('',*,*,#1140,.F.);
#1223=ORIENTED_EDGE('',*,*,#1222,.F.);
#1224=ORIENTED_EDGE('',*,*,#950,.T.);
#1225=ORIENTED_EDGE('',*,*,#1204,.T.);
#1226=ORIENTED_EDGE('',*,*,#840,.F.);
#1227=EDGE_LOOP('',(#1220,#1221,#1223,#1224,#1225,#1226));
#1228=FACE_OUTER_BOUND('',#1227,.F.);
#1230=CARTESIAN_POINT('',(3.5E0,0.E0,0.E0));
#1231=DIRECTION('',(-1.E0,0.E0,0.E0));
#1232=DIRECTION('',(0.E0,0.E0,1.E0));
#1233=AXIS2_PLACEMENT_3D('',#1230,#1231,#1232);
#1234=PLANE('',#1233);
#1235=ORIENTED_EDGE('',*,*,#1219,.F.);
#1236=ORIENTED_EDGE('',*,*,#838,.T.);
#1238=ORIENTED_EDGE('',*,*,#1237,.T.);
#1240=ORIENTED_EDGE('',*,*,#1239,.T.);
#1241=ORIENTED_EDGE('',*,*,#1142,.T.);
#1242=EDGE_LOOP('',(#1235,#1236,#1238,#1240,#1241));
#1243=FACE_OUTER_BOUND('',#1242,.F.);
#1245=CARTESIAN_POINT('',(0.E0,1.0775E-1,1.483273739566E0));
#1246=DIRECTION('',(0.E0,0.E0,-1.E0));
#1247=DIRECTION('',(0.E0,1.E0,0.E0));
#1248=AXIS2_PLACEMENT_3D('',#1245,#1246,#1247);
#1249=PLANE('',#1248);
#1250=ORIENTED_EDGE('',*,*,#789,.T.);
#1252=ORIENTED_EDGE('',*,*,#1251,.T.);
#1253=ORIENTED_EDGE('',*,*,#1237,.F.);
#1254=ORIENTED_EDGE('',*,*,#836,.F.);
#1255=EDGE_LOOP('',(#1250,#1252,#1253,#1254));
#1256=FACE_OUTER_BOUND('',#1255,.F.);
#1258=CARTESIAN_POINT('',(0.E0,4.907312622191E-1,1.483273739566E0));
#1259=DIRECTION('',(0.E0,0.E0,-1.E0));
#1260=DIRECTION('',(0.E0,1.E0,0.E0));
#1261=AXIS2_PLACEMENT_3D('',#1258,#1259,#1260);
#1262=PLANE('',#1261);
#1263=ORIENTED_EDGE('',*,*,#787,.T.);
#1264=ORIENTED_EDGE('',*,*,#1144,.T.);
#1265=ORIENTED_EDGE('',*,*,#1239,.F.);
#1266=ORIENTED_EDGE('',*,*,#1251,.F.);
#1267=EDGE_LOOP('',(#1263,#1264,#1265,#1266));
#1268=FACE_OUTER_BOUND('',#1267,.F.);
#1270=CARTESIAN_POINT('',(3.45E0,9.3875E-1,1.334110349944E0));
#1271=DIRECTION('',(-1.E0,0.E0,0.E0));
#1272=DIRECTION('',(0.E0,0.E0,-1.E0));
#1273=AXIS2_PLACEMENT_3D('',#1270,#1271,#1272);
#1274=PLANE('',#1273);
#1275=ORIENTED_EDGE('',*,*,#1222,.T.);
#1276=ORIENTED_EDGE('',*,*,#1138,.F.);
#1278=ORIENTED_EDGE('',*,*,#1277,.F.);
#1279=ORIENTED_EDGE('',*,*,#952,.T.);
#1280=EDGE_LOOP('',(#1275,#1276,#1278,#1279));
#1281=FACE_OUTER_BOUND('',#1280,.F.);
#1283=CARTESIAN_POINT('',(2.2E0,9.3875E-1,1.334110349944E0));
#1284=DIRECTION('',(0.E0,0.E0,-1.E0));
#1285=DIRECTION('',(1.E0,0.E0,0.E0));
#1286=AXIS2_PLACEMENT_3D('',#1283,#1284,#1285);
#1287=PLANE('',#1286);
#1288=ORIENTED_EDGE('',*,*,#1136,.F.);
#1290=ORIENTED_EDGE('',*,*,#1289,.F.);
#1291=ORIENTED_EDGE('',*,*,#954,.T.);
#1292=ORIENTED_EDGE('',*,*,#1277,.T.);
#1293=EDGE_LOOP('',(#1288,#1290,#1291,#1292));
#1294=FACE_OUTER_BOUND('',#1293,.F.);
#1296=CARTESIAN_POINT('',(2.2E0,9.3875E-1,9.591103499437E-1));
#1297=DIRECTION('',(1.E0,0.E0,0.E0));
#1298=DIRECTION('',(0.E0,0.E0,1.E0));
#1299=AXIS2_PLACEMENT_3D('',#1296,#1297,#1298);
#1300=PLANE('',#1299);
#1301=ORIENTED_EDGE('',*,*,#1134,.T.);
#1303=ORIENTED_EDGE('',*,*,#1302,.F.);
#1304=ORIENTED_EDGE('',*,*,#956,.T.);
#1305=ORIENTED_EDGE('',*,*,#1289,.T.);
#1306=EDGE_LOOP('',(#1301,#1303,#1304,#1305));
#1307=FACE_OUTER_BOUND('',#1306,.F.);
#1309=CARTESIAN_POINT('',(3.45E0,9.3875E-1,9.591103499437E-1));
#1310=DIRECTION('',(0.E0,0.E0,1.E0));
#1311=DIRECTION('',(-1.E0,0.E0,0.E0));
#1312=AXIS2_PLACEMENT_3D('',#1309,#1310,#1311);
#1313=PLANE('',#1312);
#1314=ORIENTED_EDGE('',*,*,#958,.T.);
#1315=ORIENTED_EDGE('',*,*,#1302,.T.);
#1316=ORIENTED_EDGE('',*,*,#1132,.T.);
#1317=ORIENTED_EDGE('',*,*,#1207,.T.);
#1318=EDGE_LOOP('',(#1314,#1315,#1316,#1317));
#1319=FACE_OUTER_BOUND('',#1318,.F.);
#1323=FILL_AREA_STYLE_COLOUR('',#3);
#1324=FILL_AREA_STYLE('',(#1323));
#1325=SURFACE_STYLE_FILL_AREA(#1324);
#1326=SURFACE_SIDE_STYLE('',(#1325));
#1327=SURFACE_STYLE_USAGE(.BOTH.,#1326);
#1328=PRESENTATION_STYLE_ASSIGNMENT((#1327));
#15=STYLED_ITEM('',(#1328),#1322);
#1330=LENGTH_MEASURE_WITH_UNIT(LENGTH_MEASURE(2.54E1),#1329);
#1331=(CONVERSION_BASED_UNIT('INCH',#1330)LENGTH_UNIT()NAMED_UNIT(*));
#1333=PLANE_ANGLE_MEASURE_WITH_UNIT(PLANE_ANGLE_MEASURE(1.745329251994E-2),
#1332);
#1334=(CONVERSION_BASED_UNIT('DEGREE',#1333)NAMED_UNIT(*)PLANE_ANGLE_UNIT());
#1336=UNCERTAINTY_MEASURE_WITH_UNIT(LENGTH_MEASURE(3.659625453333E-4),#1331,
'closure',
'Maximum model space distance between geometric entities at asserted connectivities');
#1338=CARTESIAN_POINT('',(0.E0,0.E0,0.E0));
#1339=DIRECTION('',(0.E0,0.E0,1.E0));
#1340=DIRECTION('',(1.E0,0.E0,0.E0));
#1343=MECHANICAL_DESIGN_GEOMETRIC_PRESENTATION_REPRESENTATION('',(#24,#31,#38,
#45,#52,#59,#66,#73,#81,#89,#97,#105,#113,#121,#129,#137,#145,#153,#161,#169,
#177,#184,#191,#198,#205,#212,#220,#228,#236,#244,#252,#260,#268,#276,#284,#292,
#300,#308,#315,#322,#329,#336,#344,#351,#358,#365,#372,#379,#386,#393,#400,#407,
#414,#421,#428,#435,#442,#449,#456,#464,#471,#479,#486,#494,#506,#513,#521,#528,
#536,#543,#550,#557,#564,#571,#578,#585,#592,#599,#606,#614,#621,#628,#635,#642,
#649,#656,#663,#15),#1337);
#1344=APPLICATION_CONTEXT('automotive design');
#1345=APPLICATION_PROTOCOL_DEFINITION('international standard',
'config_control_design',1994,#1344);
#1346=PRODUCT_DEFINITION_CONTEXT('',#1344,'design');
#1347=PRODUCT_CONTEXT('',#1344,'mechanical');
#1348=PRODUCT('OVAL_CONNECTOR_MIR','OVAL_CONNECTOR_MIR','NOT SPECIFIED',
(#1347));
#1349=PRODUCT_DEFINITION_FORMATION_WITH_SPECIFIED_SOURCE('1','LAST_VERSION',
#1348,.MADE.);
#1357=LENGTH_MEASURE_WITH_UNIT(LENGTH_MEASURE(2.54E1),#1356);
#1358=(CONVERSION_BASED_UNIT('INCH',#1357)LENGTH_UNIT()NAMED_UNIT(*));
#1359=DERIVED_UNIT_ELEMENT(#1358,2.E0);
#1360=AREA_UNIT((#1359));
#1361=MEASURE_REPRESENTATION_ITEM('surface area measure',AREA_MEASURE(
1.310016179992E1),#1360);
#1366=LENGTH_MEASURE_WITH_UNIT(LENGTH_MEASURE(2.54E1),#1365);
#1367=(CONVERSION_BASED_UNIT('INCH',#1366)LENGTH_UNIT()NAMED_UNIT(*));
#1368=DERIVED_UNIT_ELEMENT(#1367,3.E0);
#1369=VOLUME_UNIT((#1368));
#1370=MEASURE_REPRESENTATION_ITEM('volume measure',VOLUME_MEASURE(
1.656968173980E0),#1369);
#1374=CARTESIAN_POINT('centre point',(1.711135263065E0,4.946855805983E-1,
1.152222422692E0));
#1379=LENGTH_MEASURE_WITH_UNIT(LENGTH_MEASURE(2.54E1),#1378);
#1380=(CONVERSION_BASED_UNIT('INCH',#1379)LENGTH_UNIT()NAMED_UNIT(*));
#1381=DERIVED_UNIT_ELEMENT(#1380,2.E0);
#1382=AREA_UNIT((#1381));
#1383=MEASURE_REPRESENTATION_ITEM('surface area measure',AREA_MEASURE(
1.310016179992E1),#1382);
#1388=LENGTH_MEASURE_WITH_UNIT(LENGTH_MEASURE(2.54E1),#1387);
#1389=(CONVERSION_BASED_UNIT('INCH',#1388)LENGTH_UNIT()NAMED_UNIT(*));
#1390=DERIVED_UNIT_ELEMENT(#1389,3.E0);
#1391=VOLUME_UNIT((#1390));
#1392=MEASURE_REPRESENTATION_ITEM('volume measure',VOLUME_MEASURE(
1.656968173980E0),#1391);
#1396=CARTESIAN_POINT('centre point',(1.711135263065E0,4.946855805983E-1,
1.152222422692E0));
#1=DRAUGHTING_PRE_DEFINED_COLOUR('green');
#2=COLOUR_RGB('',1.1E-2,1.2E-2,1.E0);
#3=COLOUR_RGB('',2.352941176471E-1,2.352941176471E-1,2.352941176471E-1);
#4=COLOUR_RGB('',4.1E-1,2.61589E-1,1.12848E-1);
#5=COLOUR_RGB('',5.04854E-1,1.5455E-2,1.5455E-2);
#6=COLOUR_RGB('',6.35294E-1,6.86275E-1,7.4902E-1);
#7=COLOUR_RGB('',6.40777E-1,6.40777E-1,6.40777E-1);
#8=COLOUR_RGB('',6.69062E-1,6.69903E-1,6.55217E-1);
#9=COLOUR_RGB('',9.21569E-1,7.05882E-1,4.70588E-1);
#10=DRAUGHTING_PRE_DEFINED_COLOUR('red');
#11=DRAUGHTING_PRE_DEFINED_COLOUR('yellow');
#12=COLOUR_RGB('',1.E0,1.E0,5.3E-1);
#13=COLOUR_RGB('',1.E0,1.E0,9.49E-1);
#14=DRAUGHTING_PRE_DEFINED_COLOUR('white');
#20=CIRCLE('',#19,3.5E-1);
#78=CIRCLE('',#77,8.6614E-2);
#86=CIRCLE('',#85,8.6614E-2);
#94=CIRCLE('',#93,8.6614E-2);
#102=CIRCLE('',#101,8.6614E-2);
#110=CIRCLE('',#109,8.6614E-2);
#118=CIRCLE('',#117,8.6614E-2);
#126=CIRCLE('',#125,8.6614E-2);
#134=CIRCLE('',#133,8.6614E-2);
#142=CIRCLE('',#141,8.6614E-2);
#150=CIRCLE('',#149,8.6614E-2);
#158=CIRCLE('',#157,8.6614E-2);
#166=CIRCLE('',#165,8.6614E-2);
#174=CIRCLE('',#173,2.431824208677E-1);
#217=CIRCLE('',#216,8.6614E-2);
#225=CIRCLE('',#224,8.6614E-2);
#233=CIRCLE('',#232,8.6614E-2);
#241=CIRCLE('',#240,8.6614E-2);
#249=CIRCLE('',#248,8.6614E-2);
#257=CIRCLE('',#256,8.6614E-2);
#265=CIRCLE('',#264,8.6614E-2);
#273=CIRCLE('',#272,8.6614E-2);
#281=CIRCLE('',#280,8.6614E-2);
#289=CIRCLE('',#288,8.6614E-2);
#297=CIRCLE('',#296,8.6614E-2);
#305=CIRCLE('',#304,8.6614E-2);
#341=CIRCLE('',#340,2.431824208677E-1);
#461=CIRCLE('',#460,3.5E-1);
#476=CIRCLE('',#475,3.5E-1);
#491=B_SPLINE_CURVE_WITH_KNOTS('',3,(#487,#488,#489,#490),.UNSPECIFIED.,.F.,.F.,
(4,4),(0.E0,1.E0),.UNSPECIFIED.);
#503=B_SPLINE_CURVE_WITH_KNOTS('',3,(#495,#496,#497,#498,#499,#500,#501,#502),
.UNSPECIFIED.,.F.,.F.,(4,1,1,1,1,4),(0.E0,2.E-1,4.E-1,6.E-1,8.E-1,1.E0),
.UNSPECIFIED.);
#518=CIRCLE('',#517,3.5E-1);
#533=CIRCLE('',#532,3.5E-1);
#611=CIRCLE('',#610,3.5E-1);
#783=EDGE_CURVE('',#676,#669,#63,.T.);
#785=EDGE_CURVE('',#667,#669,#20,.T.);
#787=EDGE_CURVE('',#666,#667,#28,.T.);
#789=EDGE_CURVE('',#677,#666,#35,.T.);
#791=EDGE_CURVE('',#676,#677,#42,.T.);
#795=ADVANCED_FACE('',(#794),#782,.T.);
#801=EDGE_CURVE('',#761,#769,#49,.T.);
#803=EDGE_CURVE('',#669,#761,#56,.T.);
#806=EDGE_CURVE('',#676,#769,#188,.T.);
#810=ADVANCED_FACE('',(#809),#800,.F.);
#817=EDGE_CURVE('',#767,#769,#181,.T.);
#819=EDGE_CURVE('',#760,#767,#70,.T.);
#821=EDGE_CURVE('',#760,#761,#491,.T.);
#825=ADVANCED_FACE('',(#824),#815,.T.);
#831=EDGE_CURVE('',#766,#767,#174,.T.);
#836=EDGE_CURVE('',#677,#679,#618,.T.);
#838=EDGE_CURVE('',#758,#679,#589,.T.);
#840=EDGE_CURVE('',#758,#766,#195,.T.);
#844=EDGE_CURVE('',#686,#687,#94,.T.);
#846=EDGE_CURVE('',#687,#686,#102,.T.);
#850=EDGE_CURVE('',#690,#691,#110,.T.);
#852=EDGE_CURVE('',#691,#690,#118,.T.);
#856=EDGE_CURVE('',#694,#695,#126,.T.);
#858=EDGE_CURVE('',#695,#694,#134,.T.);
#862=EDGE_CURVE('',#698,#699,#142,.T.);
#864=EDGE_CURVE('',#699,#698,#150,.T.);
#868=EDGE_CURVE('',#702,#703,#158,.T.);
#870=EDGE_CURVE('',#703,#702,#166,.T.);
#874=EDGE_CURVE('',#682,#683,#78,.T.);
#876=EDGE_CURVE('',#683,#682,#86,.T.);
#880=ADVANCED_FACE('',(#843,#849,#855,#861,#867,#873,#879),#830,.F.);
#886=EDGE_CURVE('',#727,#682,#209,.T.);
#889=EDGE_CURVE('',#683,#726,#202,.T.);
#891=EDGE_CURVE('',#726,#727,#297,.T.);
#895=ADVANCED_FACE('',(#894),#885,.F.);
#904=EDGE_CURVE('',#727,#726,#305,.T.);
#908=ADVANCED_FACE('',(#907),#900,.F.);
#914=EDGE_CURVE('',#730,#731,#312,.T.);
#916=EDGE_CURVE('',#735,#730,#319,.T.);
#918=EDGE_CURVE('',#733,#735,#326,.T.);
#920=EDGE_CURVE('',#731,#733,#333,.T.);
#924=EDGE_CURVE('',#706,#707,#217,.T.);
#926=EDGE_CURVE('',#707,#706,#225,.T.);
#930=EDGE_CURVE('',#710,#711,#233,.T.);
#932=EDGE_CURVE('',#711,#710,#241,.T.);
#936=EDGE_CURVE('',#714,#715,#249,.T.);
#938=EDGE_CURVE('',#715,#714,#257,.T.);
#942=ADVANCED_FACE('',(#923,#929,#935,#941),#913,.T.);
#948=EDGE_CURVE('',#772,#773,#341,.T.);
#950=EDGE_CURVE('',#775,#772,#348,.T.);
#952=EDGE_CURVE('',#741,#775,#355,.T.);
#954=EDGE_CURVE('',#739,#741,#362,.T.);
#956=EDGE_CURVE('',#738,#739,#369,.T.);
#958=EDGE_CURVE('',#773,#738,#376,.T.);
#962=EDGE_CURVE('',#718,#719,#265,.T.);
#964=EDGE_CURVE('',#719,#718,#273,.T.);
#968=EDGE_CURVE('',#722,#723,#281,.T.);
#970=EDGE_CURVE('',#723,#722,#289,.T.);
#978=ADVANCED_FACE('',(#961,#967,#973,#977),#947,.T.);
#984=EDGE_CURVE('',#707,#702,#390,.T.);
#987=EDGE_CURVE('',#703,#706,#383,.T.);
#992=ADVANCED_FACE('',(#991),#983,.F.);
#1004=ADVANCED_FACE('',(#1003),#997,.F.);
#1010=EDGE_CURVE('',#711,#698,#404,.T.);
#1013=EDGE_CURVE('',#699,#710,#397,.T.);
#1018=ADVANCED_FACE('',(#1017),#1009,.F.);
#1030=ADVANCED_FACE('',(#1029),#1023,.F.);
#1036=EDGE_CURVE('',#715,#694,#418,.T.);
#1039=EDGE_CURVE('',#695,#714,#411,.T.);
#1044=ADVANCED_FACE('',(#1043),#1035,.F.);
#1056=ADVANCED_FACE('',(#1055),#1049,.F.);
#1062=EDGE_CURVE('',#719,#686,#432,.T.);
#1065=EDGE_CURVE('',#687,#718,#425,.T.);
#1070=ADVANCED_FACE('',(#1069),#1061,.F.);
#1082=ADVANCED_FACE('',(#1081),#1075,.F.);
#1088=EDGE_CURVE('',#723,#690,#446,.T.);
#1091=EDGE_CURVE('',#691,#722,#439,.T.);
#1096=ADVANCED_FACE('',(#1095),#1087,.F.);
#1108=ADVANCED_FACE('',(#1107),#1101,.F.);
#1114=EDGE_CURVE('',#744,#745,#461,.T.);
#1116=EDGE_CURVE('',#730,#744,#453,.T.);
#1119=EDGE_CURVE('',#731,#745,#554,.T.);
#1123=ADVANCED_FACE('',(#1122),#1113,.F.);
#1130=EDGE_CURVE('',#760,#777,#503,.T.);
#1132=EDGE_CURVE('',#753,#777,#510,.T.);
#1134=EDGE_CURVE('',#752,#753,#518,.T.);
#1136=EDGE_CURVE('',#752,#755,#525,.T.);
#1138=EDGE_CURVE('',#755,#763,#533,.T.);
#1140=EDGE_CURVE('',#763,#759,#540,.T.);
#1142=EDGE_CURVE('',#673,#759,#611,.T.);
#1144=EDGE_CURVE('',#667,#673,#547,.T.);
#1151=EDGE_CURVE('',#747,#745,#468,.T.);
#1153=EDGE_CURVE('',#749,#747,#476,.T.);
#1155=EDGE_CURVE('',#749,#744,#483,.T.);
#1159=ADVANCED_FACE('',(#1149,#1158),#1128,.T.);
#1168=EDGE_CURVE('',#733,#747,#561,.T.);
#1172=ADVANCED_FACE('',(#1171),#1164,.F.);
#1181=EDGE_CURVE('',#735,#749,#568,.T.);
#1185=ADVANCED_FACE('',(#1184),#1177,.F.);
#1197=ADVANCED_FACE('',(#1196),#1190,.F.);
#1204=EDGE_CURVE('',#772,#766,#575,.T.);
#1207=EDGE_CURVE('',#777,#773,#660,.T.);
#1213=ADVANCED_FACE('',(#1212),#1202,.F.);
#1219=EDGE_CURVE('',#758,#759,#582,.T.);
#1222=EDGE_CURVE('',#775,#763,#632,.T.);
#1229=ADVANCED_FACE('',(#1228),#1218,.T.);
#1237=EDGE_CURVE('',#679,#672,#596,.T.);
#1239=EDGE_CURVE('',#672,#673,#603,.T.);
#1244=ADVANCED_FACE('',(#1243),#1234,.F.);
#1251=EDGE_CURVE('',#666,#672,#625,.T.);
#1257=ADVANCED_FACE('',(#1256),#1249,.F.);
#1269=ADVANCED_FACE('',(#1268),#1262,.F.);
#1277=EDGE_CURVE('',#741,#755,#639,.T.);
#1282=ADVANCED_FACE('',(#1281),#1274,.F.);
#1289=EDGE_CURVE('',#739,#752,#646,.T.);
#1295=ADVANCED_FACE('',(#1294),#1287,.F.);
#1302=EDGE_CURVE('',#738,#753,#653,.T.);
#1308=ADVANCED_FACE('',(#1307),#1300,.F.);
#1320=ADVANCED_FACE('',(#1319),#1313,.F.);
#1321=CLOSED_SHELL('',(#795,#810,#825,#880,#895,#908,#942,#978,#992,#1004,#1018,
#1030,#1044,#1056,#1070,#1082,#1096,#1108,#1123,#1159,#1172,#1185,#1197,#1213,
#1229,#1244,#1257,#1269,#1282,#1295,#1308,#1320));
#1322=MANIFOLD_SOLID_BREP('',#1321);
#1329=(LENGTH_UNIT()NAMED_UNIT(*)SI_UNIT(.MILLI.,.METRE.));
#1332=(NAMED_UNIT(*)PLANE_ANGLE_UNIT()SI_UNIT($,.RADIAN.));
#1335=(NAMED_UNIT(*)SI_UNIT($,.STERADIAN.)SOLID_ANGLE_UNIT());
#1337=(GEOMETRIC_REPRESENTATION_CONTEXT(3)GLOBAL_UNCERTAINTY_ASSIGNED_CONTEXT((
#1336))GLOBAL_UNIT_ASSIGNED_CONTEXT((#1331,#1334,#1335))REPRESENTATION_CONTEXT(
'ID1','3'));
#1341=AXIS2_PLACEMENT_3D('',#1338,#1339,#1340);
#1342=ADVANCED_BREP_SHAPE_REPRESENTATION('',(#1341,#1322),#1337);
#1350=PRODUCT_DEFINITION('design','',#1349,#1346);
#1351=PRODUCT_DEFINITION_SHAPE('','SHAPE FOR OVAL_CONNECTOR_MIR.',#1350);
#1352=SHAPE_ASPECT('','solid data associated with OVAL_CONNECTOR_MIR',#1351,
.F.);
#1353=PROPERTY_DEFINITION('',
'shape for solid data with which properties are associated',#1352);
#1354=SHAPE_REPRESENTATION('',(#1322),#1337);
#1355=SHAPE_DEFINITION_REPRESENTATION(#1353,#1354);
#1356=(LENGTH_UNIT()NAMED_UNIT(*)SI_UNIT(.MILLI.,.METRE.));
#1362=PROPERTY_DEFINITION('geometric validation property',
'area of OVAL_CONNECTOR_MIR',#1352);
#1363=REPRESENTATION('surface area',(#1361),#1337);
#1364=PROPERTY_DEFINITION_REPRESENTATION(#1362,#1363);
#1365=(LENGTH_UNIT()NAMED_UNIT(*)SI_UNIT(.MILLI.,.METRE.));
#1371=PROPERTY_DEFINITION('geometric validation property',
'volume of OVAL_CONNECTOR_MIR',#1352);
#1372=REPRESENTATION('volume',(#1370),#1337);
#1373=PROPERTY_DEFINITION_REPRESENTATION(#1371,#1372);
#1375=PROPERTY_DEFINITION('geometric validation property',
'centroid of OVAL_CONNECTOR_MIR',#1352);
#1376=REPRESENTATION('centroid',(#1374),#1337);
#1377=PROPERTY_DEFINITION_REPRESENTATION(#1375,#1376);
#1378=(LENGTH_UNIT()NAMED_UNIT(*)SI_UNIT(.MILLI.,.METRE.));
#1384=PROPERTY_DEFINITION('geometric validation property',
'area of OVAL_CONNECTOR_MIR',#1351);
#1385=REPRESENTATION('surface area',(#1383),#1337);
#1386=PROPERTY_DEFINITION_REPRESENTATION(#1384,#1385);
#1387=(LENGTH_UNIT()NAMED_UNIT(*)SI_UNIT(.MILLI.,.METRE.));
#1393=PROPERTY_DEFINITION('geometric validation property',
'volume of OVAL_CONNECTOR_MIR',#1351);
#1394=REPRESENTATION('volume',(#1392),#1337);
#1395=PROPERTY_DEFINITION_REPRESENTATION(#1393,#1394);
#1397=PROPERTY_DEFINITION('geometric validation property',
'centroid of OVAL_CONNECTOR_MIR',#1351);
#1398=REPRESENTATION('centroid',(#1396),#1337);
#1399=PROPERTY_DEFINITION_REPRESENTATION(#1397,#1398);
#1400=SHAPE_DEFINITION_REPRESENTATION(#1351,#1342);
ENDSEC;
END-ISO-10303-21;
