ISO-10303-21;
HEADER;
FILE_DESCRIPTION((''),'2;1');
FILE_NAME('PCB_7','2026-06-15T13:45:15',('Esia'),(''),
'CREO PARAMETRIC BY PTC INC, 2025102','CREO PARAMETRIC BY PTC INC, 2025102','');
FILE_SCHEMA((
'AP242_MANAGED_MODEL_BASED_3D_ENGINEERING_MIM_LF { 1 0 10303 442 1 1 4 }'));
ENDSEC;
DATA;
#15=DIRECTION('',(0.E0,1.885617587997E-9,-1.E0));
#16=VECTOR('',#15,5.905511811024E-2);
#17=CARTESIAN_POINT('',(-2.334083292394E-1,-2.755905541144E-1,0.E0));
#18=LINE('',#17,#16);
#19=DIRECTION('',(0.E0,0.E0,1.E0));
#20=VECTOR('',#19,5.905511811024E-2);
#21=CARTESIAN_POINT('',(-2.727784079796E-1,-2.755905541144E-1,
-5.905511811024E-2));
#22=LINE('',#21,#20);
#23=CARTESIAN_POINT('',(-2.530933686095E-1,-2.755905541144E-1,0.E0));
#24=DIRECTION('',(0.E0,0.E0,1.E0));
#25=DIRECTION('',(1.E0,1.131370928794E-8,0.E0));
#26=AXIS2_PLACEMENT_3D('',#23,#24,#25);
#28=CARTESIAN_POINT('',(-2.530933686095E-1,-2.755905541144E-1,0.E0));
#29=DIRECTION('',(0.E0,0.E0,1.E0));
#30=DIRECTION('',(-1.E0,0.E0,0.E0));
#31=AXIS2_PLACEMENT_3D('',#28,#29,#30);
#33=CARTESIAN_POINT('',(-2.530933686095E-1,-2.755905541144E-1,0.E0));
#34=DIRECTION('',(0.E0,0.E0,-1.E0));
#35=DIRECTION('',(1.E0,0.E0,0.E0));
#36=AXIS2_PLACEMENT_3D('',#33,#34,#35);
#38=CARTESIAN_POINT('',(-2.530933686095E-1,-2.755905541144E-1,0.E0));
#39=DIRECTION('',(0.E0,0.E0,-1.E0));
#40=DIRECTION('',(-1.E0,0.E0,0.E0));
#41=AXIS2_PLACEMENT_3D('',#38,#39,#40);
#43=DIRECTION('',(0.E0,1.885617587997E-9,1.E0));
#44=VECTOR('',#43,5.905511811024E-2);
#45=CARTESIAN_POINT('',(-2.235658095544E-1,-2.755905541144E-1,
-5.905511811024E-2));
#46=LINE('',#45,#44);
#47=DIRECTION('',(0.E0,0.E0,-1.E0));
#48=VECTOR('',#47,5.905511811024E-2);
#49=CARTESIAN_POINT('',(-2.826209276646E-1,-2.755905541144E-1,0.E0));
#50=LINE('',#49,#48);
#51=CARTESIAN_POINT('',(-2.530933686095E-1,-2.755905541144E-1,
-5.905511811024E-2));
#52=DIRECTION('',(0.E0,0.E0,-1.E0));
#53=DIRECTION('',(1.E0,0.E0,0.E0));
#54=AXIS2_PLACEMENT_3D('',#51,#52,#53);
#56=CARTESIAN_POINT('',(-2.530933686095E-1,-2.755905541144E-1,
-5.905511811024E-2));
#57=DIRECTION('',(0.E0,0.E0,-1.E0));
#58=DIRECTION('',(-1.E0,0.E0,0.E0));
#59=AXIS2_PLACEMENT_3D('',#56,#57,#58);
#61=CARTESIAN_POINT('',(-2.530933686095E-1,-2.755905541144E-1,
-5.905511811024E-2));
#62=DIRECTION('',(0.E0,0.E0,1.E0));
#63=DIRECTION('',(1.E0,1.697056957184E-8,0.E0));
#64=AXIS2_PLACEMENT_3D('',#61,#62,#63);
#66=CARTESIAN_POINT('',(-2.530933686095E-1,-2.755905541144E-1,
-5.905511811024E-2));
#67=DIRECTION('',(0.E0,0.E0,1.E0));
#68=DIRECTION('',(-1.E0,0.E0,0.E0));
#69=AXIS2_PLACEMENT_3D('',#66,#67,#68);
#71=CARTESIAN_POINT('',(-2.334083292394E-1,-2.755905541144E-1,0.E0));
#72=CARTESIAN_POINT('',(-2.334083292394E-1,-2.755905540030E-1,
-5.905511811024E-2));
#73=VERTEX_POINT('',#71);
#74=VERTEX_POINT('',#72);
#75=CARTESIAN_POINT('',(-2.727784079796E-1,-2.755905541144E-1,
-5.905511811024E-2));
#76=VERTEX_POINT('',#75);
#77=CARTESIAN_POINT('',(-2.727784079796E-1,-2.755905541144E-1,0.E0));
#78=VERTEX_POINT('',#77);
#79=CARTESIAN_POINT('',(-2.235658095544E-1,-2.755905541144E-1,
-5.905511811024E-2));
#80=CARTESIAN_POINT('',(-2.235658095544E-1,-2.755905540030E-1,0.E0));
#81=VERTEX_POINT('',#79);
#82=VERTEX_POINT('',#80);
#83=CARTESIAN_POINT('',(-2.826209276646E-1,-2.755905541144E-1,
-5.905511811024E-2));
#84=VERTEX_POINT('',#83);
#85=CARTESIAN_POINT('',(-2.826209276646E-1,-2.755905541144E-1,0.E0));
#86=VERTEX_POINT('',#85);
#87=CARTESIAN_POINT('',(-2.530933686095E-1,-2.755905541144E-1,
-2.952755905512E-2));
#88=DIRECTION('',(0.E0,0.E0,-1.E0));
#89=DIRECTION('',(-1.E0,0.E0,0.E0));
#90=AXIS2_PLACEMENT_3D('',#87,#88,#89);
#91=CYLINDRICAL_SURFACE('',#90,1.968503937008E-2);
#93=ORIENTED_EDGE('',*,*,#92,.T.);
#95=ORIENTED_EDGE('',*,*,#94,.T.);
#97=ORIENTED_EDGE('',*,*,#96,.T.);
#99=ORIENTED_EDGE('',*,*,#98,.T.);
#100=EDGE_LOOP('',(#93,#95,#97,#99));
#101=FACE_OUTER_BOUND('',#100,.F.);
#103=FILL_AREA_STYLE_COLOUR('',#9);
#104=FILL_AREA_STYLE('',(#103));
#105=SURFACE_STYLE_FILL_AREA(#104);
#106=SURFACE_SIDE_STYLE('',(#105));
#107=SURFACE_STYLE_USAGE(.BOTH.,#106);
#108=PRESENTATION_STYLE_ASSIGNMENT((#107));
#109=STYLED_ITEM('',(#108),#102);
#110=CARTESIAN_POINT('',(-2.530933686095E-1,-2.755905541144E-1,
-2.952755905512E-2));
#111=DIRECTION('',(0.E0,0.E0,-1.E0));
#112=DIRECTION('',(1.E0,0.E0,0.E0));
#113=AXIS2_PLACEMENT_3D('',#110,#111,#112);
#114=CYLINDRICAL_SURFACE('',#113,1.968503937008E-2);
#115=ORIENTED_EDGE('',*,*,#92,.F.);
#117=ORIENTED_EDGE('',*,*,#116,.T.);
#118=ORIENTED_EDGE('',*,*,#96,.F.);
#120=ORIENTED_EDGE('',*,*,#119,.T.);
#121=EDGE_LOOP('',(#115,#117,#118,#120));
#122=FACE_OUTER_BOUND('',#121,.F.);
#124=FILL_AREA_STYLE_COLOUR('',#9);
#125=FILL_AREA_STYLE('',(#124));
#126=SURFACE_STYLE_FILL_AREA(#125);
#127=SURFACE_SIDE_STYLE('',(#126));
#128=SURFACE_STYLE_USAGE(.BOTH.,#127);
#129=PRESENTATION_STYLE_ASSIGNMENT((#128));
#130=STYLED_ITEM('',(#129),#123);
#131=CARTESIAN_POINT('',(-2.530933686095E-1,-2.755905541144E-1,0.E0));
#132=DIRECTION('',(0.E0,0.E0,1.E0));
#133=DIRECTION('',(1.E0,0.E0,0.E0));
#134=AXIS2_PLACEMENT_3D('',#131,#132,#133);
#135=PLANE('',#134);
#137=ORIENTED_EDGE('',*,*,#136,.F.);
#139=ORIENTED_EDGE('',*,*,#138,.F.);
#140=EDGE_LOOP('',(#137,#139));
#141=FACE_OUTER_BOUND('',#140,.F.);
#142=ORIENTED_EDGE('',*,*,#116,.F.);
#143=ORIENTED_EDGE('',*,*,#98,.F.);
#144=EDGE_LOOP('',(#142,#143));
#145=FACE_BOUND('',#144,.F.);
#147=FILL_AREA_STYLE_COLOUR('',#9);
#148=FILL_AREA_STYLE('',(#147));
#149=SURFACE_STYLE_FILL_AREA(#148);
#150=SURFACE_SIDE_STYLE('',(#149));
#151=SURFACE_STYLE_USAGE(.BOTH.,#150);
#152=PRESENTATION_STYLE_ASSIGNMENT((#151));
#153=STYLED_ITEM('',(#152),#146);
#154=CARTESIAN_POINT('',(-2.530933686095E-1,-2.755905541144E-1,
-2.952755905512E-2));
#155=DIRECTION('',(0.E0,0.E0,1.E0));
#156=DIRECTION('',(-1.E0,0.E0,0.E0));
#157=AXIS2_PLACEMENT_3D('',#154,#155,#156);
#158=CYLINDRICAL_SURFACE('',#157,2.952755905512E-2);
#160=ORIENTED_EDGE('',*,*,#159,.T.);
#161=ORIENTED_EDGE('',*,*,#136,.T.);
#163=ORIENTED_EDGE('',*,*,#162,.T.);
#165=ORIENTED_EDGE('',*,*,#164,.T.);
#166=EDGE_LOOP('',(#160,#161,#163,#165));
#167=FACE_OUTER_BOUND('',#166,.F.);
#169=FILL_AREA_STYLE_COLOUR('',#9);
#170=FILL_AREA_STYLE('',(#169));
#171=SURFACE_STYLE_FILL_AREA(#170);
#172=SURFACE_SIDE_STYLE('',(#171));
#173=SURFACE_STYLE_USAGE(.BOTH.,#172);
#174=PRESENTATION_STYLE_ASSIGNMENT((#173));
#175=STYLED_ITEM('',(#174),#168);
#176=CARTESIAN_POINT('',(-2.530933686095E-1,-2.755905541144E-1,
-2.952755905512E-2));
#177=DIRECTION('',(0.E0,0.E0,1.E0));
#178=DIRECTION('',(1.E0,0.E0,0.E0));
#179=AXIS2_PLACEMENT_3D('',#176,#177,#178);
#180=CYLINDRICAL_SURFACE('',#179,2.952755905512E-2);
#181=ORIENTED_EDGE('',*,*,#159,.F.);
#183=ORIENTED_EDGE('',*,*,#182,.T.);
#184=ORIENTED_EDGE('',*,*,#162,.F.);
#185=ORIENTED_EDGE('',*,*,#138,.T.);
#186=EDGE_LOOP('',(#181,#183,#184,#185));
#187=FACE_OUTER_BOUND('',#186,.F.);
#189=FILL_AREA_STYLE_COLOUR('',#9);
#190=FILL_AREA_STYLE('',(#189));
#191=SURFACE_STYLE_FILL_AREA(#190);
#192=SURFACE_SIDE_STYLE('',(#191));
#193=SURFACE_STYLE_USAGE(.BOTH.,#192);
#194=PRESENTATION_STYLE_ASSIGNMENT((#193));
#195=STYLED_ITEM('',(#194),#188);
#196=CARTESIAN_POINT('',(-2.530933686095E-1,-2.755905541144E-1,
-5.905511811024E-2));
#197=DIRECTION('',(0.E0,0.E0,1.E0));
#198=DIRECTION('',(-1.E0,0.E0,0.E0));
#199=AXIS2_PLACEMENT_3D('',#196,#197,#198);
#200=PLANE('',#199);
#201=ORIENTED_EDGE('',*,*,#182,.F.);
#202=ORIENTED_EDGE('',*,*,#164,.F.);
#203=EDGE_LOOP('',(#201,#202));
#204=FACE_OUTER_BOUND('',#203,.F.);
#205=ORIENTED_EDGE('',*,*,#94,.F.);
#206=ORIENTED_EDGE('',*,*,#119,.F.);
#207=EDGE_LOOP('',(#205,#206));
#208=FACE_BOUND('',#207,.F.);
#210=FILL_AREA_STYLE_COLOUR('',#9);
#211=FILL_AREA_STYLE('',(#210));
#212=SURFACE_STYLE_FILL_AREA(#211);
#213=SURFACE_SIDE_STYLE('',(#212));
#214=SURFACE_STYLE_USAGE(.BOTH.,#213);
#215=PRESENTATION_STYLE_ASSIGNMENT((#214));
#216=STYLED_ITEM('',(#215),#209);
#220=LENGTH_MEASURE_WITH_UNIT(LENGTH_MEASURE(2.54E1),#219);
#221=(CONVERSION_BASED_UNIT('INCH',#220)LENGTH_UNIT()NAMED_UNIT(*));
#223=PLANE_ANGLE_MEASURE_WITH_UNIT(PLANE_ANGLE_MEASURE(1.745329251994E-2),#222);
#224=(CONVERSION_BASED_UNIT('DEGREE',#223)NAMED_UNIT(*)PLANE_ANGLE_UNIT());
#226=UNCERTAINTY_MEASURE_WITH_UNIT(LENGTH_MEASURE(1.022823737734E-5),#221,
'closure',
'Maximum model space distance between geometric entities at asserted connectivities');
#228=CARTESIAN_POINT('',(0.E0,0.E0,0.E0));
#229=DIRECTION('',(0.E0,0.E0,1.E0));
#230=DIRECTION('',(1.E0,0.E0,0.E0));
#233=MECHANICAL_DESIGN_GEOMETRIC_PRESENTATION_REPRESENTATION('',(#109,#130,#153,
#175,#195,#216),#227);
#234=APPLICATION_CONTEXT('automotive design');
#235=APPLICATION_PROTOCOL_DEFINITION('international standard',
'config_control_design',1994,#234);
#236=PRODUCT_DEFINITION_CONTEXT('',#234,'design');
#237=PRODUCT_CONTEXT('',#234,'mechanical');
#238=PRODUCT('PCB_7','PCB_7','NOT SPECIFIED',(#237));
#239=PRODUCT_DEFINITION_FORMATION_WITH_SPECIFIED_SOURCE('1','LAST_VERSION',#238,
.MADE.);
#247=LENGTH_MEASURE_WITH_UNIT(LENGTH_MEASURE(2.54E1),#246);
#248=(CONVERSION_BASED_UNIT('INCH',#247)LENGTH_UNIT()NAMED_UNIT(*));
#249=DERIVED_UNIT_ELEMENT(#248,2.E0);
#250=AREA_UNIT((#249));
#251=MEASURE_REPRESENTATION_ITEM('surface area measure',AREA_MEASURE(
1.374446786003E1),#250);
#256=LENGTH_MEASURE_WITH_UNIT(LENGTH_MEASURE(2.54E1),#255);
#257=(CONVERSION_BASED_UNIT('INCH',#256)LENGTH_UNIT()NAMED_UNIT(*));
#258=DERIVED_UNIT_ELEMENT(#257,3.E0);
#259=VOLUME_UNIT((#258));
#260=MEASURE_REPRESENTATION_ITEM('volume measure',VOLUME_MEASURE(
1.472621556514E0),#259);
#264=CARTESIAN_POINT('centre point',(-6.428571562682E0,-7.000000074514E0,
-7.5E-1));
#269=LENGTH_MEASURE_WITH_UNIT(LENGTH_MEASURE(2.54E1),#268);
#270=(CONVERSION_BASED_UNIT('INCH',#269)LENGTH_UNIT()NAMED_UNIT(*));
#271=DERIVED_UNIT_ELEMENT(#270,2.E0);
#272=AREA_UNIT((#271));
#273=MEASURE_REPRESENTATION_ITEM('surface area measure',AREA_MEASURE(
1.374446786003E1),#272);
#278=LENGTH_MEASURE_WITH_UNIT(LENGTH_MEASURE(2.54E1),#277);
#279=(CONVERSION_BASED_UNIT('INCH',#278)LENGTH_UNIT()NAMED_UNIT(*));
#280=DERIVED_UNIT_ELEMENT(#279,3.E0);
#281=VOLUME_UNIT((#280));
#282=MEASURE_REPRESENTATION_ITEM('volume measure',VOLUME_MEASURE(
1.472621556514E0),#281);
#286=CARTESIAN_POINT('centre point',(-6.428571562682E0,-7.000000074514E0,
-7.5E-1));
#1=DRAUGHTING_PRE_DEFINED_COLOUR('green');
#2=COLOUR_RGB('',1.1E-2,1.2E-2,1.E0);
#3=COLOUR_RGB('',4.1E-1,2.61589E-1,1.12848E-1);
#4=COLOUR_RGB('',5.04854E-1,1.5455E-2,1.5455E-2);
#5=COLOUR_RGB('',6.35294E-1,6.86275E-1,7.4902E-1);
#6=COLOUR_RGB('',6.40777E-1,6.40777E-1,6.40777E-1);
#7=COLOUR_RGB('',6.69062E-1,6.69903E-1,6.55217E-1);
#8=COLOUR_RGB('',9.21569E-1,7.05882E-1,4.70588E-1);
#9=COLOUR_RGB('',9.568627450980E-1,8.980392156863E-1,6.549019607843E-1);
#10=DRAUGHTING_PRE_DEFINED_COLOUR('red');
#11=DRAUGHTING_PRE_DEFINED_COLOUR('yellow');
#12=COLOUR_RGB('',1.E0,1.E0,5.3E-1);
#13=COLOUR_RGB('',1.E0,1.E0,9.49E-1);
#14=DRAUGHTING_PRE_DEFINED_COLOUR('white');
#27=CIRCLE('',#26,2.952755905512E-2);
#32=CIRCLE('',#31,2.952755905512E-2);
#37=CIRCLE('',#36,1.968503937008E-2);
#42=CIRCLE('',#41,1.968503937008E-2);
#55=CIRCLE('',#54,2.952755905512E-2);
#60=CIRCLE('',#59,2.952755905512E-2);
#65=CIRCLE('',#64,1.968503937008E-2);
#70=CIRCLE('',#69,1.968503937008E-2);
#92=EDGE_CURVE('',#73,#74,#18,.T.);
#94=EDGE_CURVE('',#74,#76,#65,.T.);
#96=EDGE_CURVE('',#76,#78,#22,.T.);
#98=EDGE_CURVE('',#78,#73,#42,.T.);
#102=ADVANCED_FACE('',(#101),#91,.F.);
#116=EDGE_CURVE('',#73,#78,#37,.T.);
#119=EDGE_CURVE('',#76,#74,#70,.T.);
#123=ADVANCED_FACE('',(#122),#114,.F.);
#136=EDGE_CURVE('',#82,#86,#27,.T.);
#138=EDGE_CURVE('',#86,#82,#32,.T.);
#146=ADVANCED_FACE('',(#141,#145),#135,.T.);
#159=EDGE_CURVE('',#81,#82,#46,.T.);
#162=EDGE_CURVE('',#86,#84,#50,.T.);
#164=EDGE_CURVE('',#84,#81,#60,.T.);
#168=ADVANCED_FACE('',(#167),#158,.T.);
#182=EDGE_CURVE('',#81,#84,#55,.T.);
#188=ADVANCED_FACE('',(#187),#180,.T.);
#209=ADVANCED_FACE('',(#204,#208),#200,.F.);
#217=CLOSED_SHELL('',(#102,#123,#146,#168,#188,#209));
#218=MANIFOLD_SOLID_BREP('',#217);
#219=(LENGTH_UNIT()NAMED_UNIT(*)SI_UNIT(.MILLI.,.METRE.));
#222=(NAMED_UNIT(*)PLANE_ANGLE_UNIT()SI_UNIT($,.RADIAN.));
#225=(NAMED_UNIT(*)SI_UNIT($,.STERADIAN.)SOLID_ANGLE_UNIT());
#227=(GEOMETRIC_REPRESENTATION_CONTEXT(3)GLOBAL_UNCERTAINTY_ASSIGNED_CONTEXT((
#226))GLOBAL_UNIT_ASSIGNED_CONTEXT((#221,#224,#225))REPRESENTATION_CONTEXT
('ID1','3'));
#231=AXIS2_PLACEMENT_3D('',#228,#229,#230);
#232=ADVANCED_BREP_SHAPE_REPRESENTATION('',(#231,#218),#227);
#240=PRODUCT_DEFINITION('design','',#239,#236);
#241=PRODUCT_DEFINITION_SHAPE('','SHAPE FOR PCB_7.',#240);
#242=SHAPE_ASPECT('','solid data associated with PCB_7',#241,.F.);
#243=PROPERTY_DEFINITION('',
'shape for solid data with which properties are associated',#242);
#244=SHAPE_REPRESENTATION('',(#218),#227);
#245=SHAPE_DEFINITION_REPRESENTATION(#243,#244);
#246=(LENGTH_UNIT()NAMED_UNIT(*)SI_UNIT(.MILLI.,.METRE.));
#252=PROPERTY_DEFINITION('geometric validation property','area of PCB_7',#242);
#253=REPRESENTATION('surface area',(#251),#227);
#254=PROPERTY_DEFINITION_REPRESENTATION(#252,#253);
#255=(LENGTH_UNIT()NAMED_UNIT(*)SI_UNIT(.MILLI.,.METRE.));
#261=PROPERTY_DEFINITION('geometric validation property','volume of PCB_7',
#242);
#262=REPRESENTATION('volume',(#260),#227);
#263=PROPERTY_DEFINITION_REPRESENTATION(#261,#262);
#265=PROPERTY_DEFINITION('geometric validation property','centroid of PCB_7',
#242);
#266=REPRESENTATION('centroid',(#264),#227);
#267=PROPERTY_DEFINITION_REPRESENTATION(#265,#266);
#268=(LENGTH_UNIT()NAMED_UNIT(*)SI_UNIT(.MILLI.,.METRE.));
#274=PROPERTY_DEFINITION('geometric validation property','area of PCB_7',#241);
#275=REPRESENTATION('surface area',(#273),#227);
#276=PROPERTY_DEFINITION_REPRESENTATION(#274,#275);
#277=(LENGTH_UNIT()NAMED_UNIT(*)SI_UNIT(.MILLI.,.METRE.));
#283=PROPERTY_DEFINITION('geometric validation property','volume of PCB_7',
#241);
#284=REPRESENTATION('volume',(#282),#227);
#285=PROPERTY_DEFINITION_REPRESENTATION(#283,#284);
#287=PROPERTY_DEFINITION('geometric validation property','centroid of PCB_7',
#241);
#288=REPRESENTATION('centroid',(#286),#227);
#289=PROPERTY_DEFINITION_REPRESENTATION(#287,#288);
#290=SHAPE_DEFINITION_REPRESENTATION(#241,#232);
ENDSEC;
END-ISO-10303-21;
