ISO-10303-21;
HEADER;
FILE_DESCRIPTION((''),'2;1');
FILE_NAME('PCB_1','2026-06-15T13:45:15',('Esia'),(''),
'CREO PARAMETRIC BY PTC INC, 2025102','CREO PARAMETRIC BY PTC INC, 2025102','');
FILE_SCHEMA((
'AP242_MANAGED_MODEL_BASED_3D_ENGINEERING_MIM_LF { 1 0 10303 442 1 1 4 }'));
ENDSEC;
DATA;
#15=DIRECTION('',(7.071067811866E-1,-7.071067811865E-1,0.E0));
#16=VECTOR('',#15,8.351654709230E-3);
#17=CARTESIAN_POINT('',(2.559055060911E-1,1.377952725106E-1,0.E0));
#18=LINE('',#17,#16);
#19=DIRECTION('',(-7.071067811865E-1,-7.071067811865E-1,0.E0));
#20=VECTOR('',#19,1.670330941846E-2);
#21=CARTESIAN_POINT('',(2.677165294491E-1,1.496062958686E-1,0.E0));
#22=LINE('',#21,#20);
#23=DIRECTION('',(7.071067811866E-1,-7.071067811865E-1,0.E0));
#24=VECTOR('',#23,1.670330941846E-2);
#25=CARTESIAN_POINT('',(2.559055060911E-1,1.614173192267E-1,0.E0));
#26=LINE('',#25,#24);
#27=DIRECTION('',(-7.071067811866E-1,-7.071067811865E-1,0.E0));
#28=VECTOR('',#27,8.351654709230E-3);
#29=CARTESIAN_POINT('',(2.618110177701E-1,1.673228309057E-1,0.E0));
#30=LINE('',#29,#28);
#31=DIRECTION('',(-7.071067811865E-1,7.071067811865E-1,0.E0));
#32=VECTOR('',#31,1.948719432154E-2);
#33=CARTESIAN_POINT('',(2.755905450212E-1,1.535433036547E-1,0.E0));
#34=LINE('',#33,#32);
#35=DIRECTION('',(-1.E0,0.E0,0.E0));
#36=VECTOR('',#35,1.574803114407E-2);
#37=CARTESIAN_POINT('',(2.913385761652E-1,1.535433036547E-1,0.E0));
#38=LINE('',#37,#36);
#39=DIRECTION('',(0.E0,1.E0,0.E0));
#40=VECTOR('',#39,7.874015572033E-3);
#41=CARTESIAN_POINT('',(2.913385761652E-1,1.456692880826E-1,0.E0));
#42=LINE('',#41,#40);
#43=DIRECTION('',(1.E0,0.E0,0.E0));
#44=VECTOR('',#43,1.574803114407E-2);
#45=CARTESIAN_POINT('',(2.755905450212E-1,1.456692880826E-1,0.E0));
#46=LINE('',#45,#44);
#47=DIRECTION('',(7.071067811865E-1,7.071067811865E-1,0.E0));
#48=VECTOR('',#47,1.948719432154E-2);
#49=CARTESIAN_POINT('',(2.618110177701E-1,1.318897608316E-1,0.E0));
#50=LINE('',#49,#48);
#51=DIRECTION('',(0.E0,0.E0,1.E0));
#52=VECTOR('',#51,1.968503937008E-2);
#53=CARTESIAN_POINT('',(2.618110177701E-1,1.318897608316E-1,
-1.968503937008E-2));
#54=LINE('',#53,#52);
#55=DIRECTION('',(0.E0,0.E0,-1.E0));
#56=VECTOR('',#55,1.968503937008E-2);
#57=CARTESIAN_POINT('',(2.559055060911E-1,1.377952725106E-1,0.E0));
#58=LINE('',#57,#56);
#59=DIRECTION('',(-7.071067811866E-1,7.071067811865E-1,0.E0));
#60=VECTOR('',#59,8.351654709230E-3);
#61=CARTESIAN_POINT('',(2.618110177701E-1,1.318897608316E-1,
-1.968503937008E-2));
#62=LINE('',#61,#60);
#63=DIRECTION('',(-7.071067811865E-1,-7.071067811865E-1,0.E0));
#64=VECTOR('',#63,1.948719432154E-2);
#65=CARTESIAN_POINT('',(2.755905450212E-1,1.456692880826E-1,
-1.968503937008E-2));
#66=LINE('',#65,#64);
#67=DIRECTION('',(-1.E0,0.E0,0.E0));
#68=VECTOR('',#67,1.574803114407E-2);
#69=CARTESIAN_POINT('',(2.913385761652E-1,1.456692880826E-1,
-1.968503937008E-2));
#70=LINE('',#69,#68);
#71=DIRECTION('',(0.E0,-1.E0,0.E0));
#72=VECTOR('',#71,7.874015572033E-3);
#73=CARTESIAN_POINT('',(2.913385761652E-1,1.535433036547E-1,
-1.968503937008E-2));
#74=LINE('',#73,#72);
#75=DIRECTION('',(1.E0,0.E0,0.E0));
#76=VECTOR('',#75,1.574803114407E-2);
#77=CARTESIAN_POINT('',(2.755905450212E-1,1.535433036547E-1,
-1.968503937008E-2));
#78=LINE('',#77,#76);
#79=DIRECTION('',(7.071067811865E-1,-7.071067811865E-1,0.E0));
#80=VECTOR('',#79,1.948719432154E-2);
#81=CARTESIAN_POINT('',(2.618110177701E-1,1.673228309057E-1,
-1.968503937008E-2));
#82=LINE('',#81,#80);
#83=DIRECTION('',(7.071067811865E-1,7.071067811865E-1,0.E0));
#84=VECTOR('',#83,8.351654709230E-3);
#85=CARTESIAN_POINT('',(2.559055060911E-1,1.614173192267E-1,
-1.968503937008E-2));
#86=LINE('',#85,#84);
#87=DIRECTION('',(-7.071067811866E-1,7.071067811865E-1,0.E0));
#88=VECTOR('',#87,1.670330941846E-2);
#89=CARTESIAN_POINT('',(2.677165294491E-1,1.496062958686E-1,
-1.968503937008E-2));
#90=LINE('',#89,#88);
#91=DIRECTION('',(7.071067811865E-1,7.071067811865E-1,0.E0));
#92=VECTOR('',#91,1.670330941846E-2);
#93=CARTESIAN_POINT('',(2.559055060911E-1,1.377952725106E-1,
-1.968503937008E-2));
#94=LINE('',#93,#92);
#95=DIRECTION('',(0.E0,0.E0,-1.E0));
#96=VECTOR('',#95,1.968503937008E-2);
#97=CARTESIAN_POINT('',(2.755905450212E-1,1.456692880826E-1,0.E0));
#98=LINE('',#97,#96);
#99=DIRECTION('',(0.E0,0.E0,-1.E0));
#100=VECTOR('',#99,1.968503937008E-2);
#101=CARTESIAN_POINT('',(2.913385761652E-1,1.456692880826E-1,0.E0));
#102=LINE('',#101,#100);
#103=DIRECTION('',(0.E0,0.E0,-1.E0));
#104=VECTOR('',#103,1.968503937008E-2);
#105=CARTESIAN_POINT('',(2.913385761652E-1,1.535433036547E-1,0.E0));
#106=LINE('',#105,#104);
#107=DIRECTION('',(0.E0,0.E0,-1.E0));
#108=VECTOR('',#107,1.968503937008E-2);
#109=CARTESIAN_POINT('',(2.755905450212E-1,1.535433036547E-1,0.E0));
#110=LINE('',#109,#108);
#111=DIRECTION('',(0.E0,0.E0,-1.E0));
#112=VECTOR('',#111,1.968503937008E-2);
#113=CARTESIAN_POINT('',(2.618110177701E-1,1.673228309057E-1,0.E0));
#114=LINE('',#113,#112);
#115=DIRECTION('',(0.E0,0.E0,-1.E0));
#116=VECTOR('',#115,1.968503937008E-2);
#117=CARTESIAN_POINT('',(2.559055060911E-1,1.614173192267E-1,0.E0));
#118=LINE('',#117,#116);
#119=DIRECTION('',(0.E0,0.E0,-1.E0));
#120=VECTOR('',#119,1.968503937008E-2);
#121=CARTESIAN_POINT('',(2.677165294491E-1,1.496062958686E-1,0.E0));
#122=LINE('',#121,#120);
#123=CARTESIAN_POINT('',(2.618110177701E-1,1.318897608316E-1,0.E0));
#124=CARTESIAN_POINT('',(2.755905450212E-1,1.456692880826E-1,0.E0));
#125=VERTEX_POINT('',#123);
#126=VERTEX_POINT('',#124);
#127=CARTESIAN_POINT('',(2.618110177701E-1,1.318897608316E-1,
-1.968503937008E-2));
#128=VERTEX_POINT('',#127);
#129=CARTESIAN_POINT('',(2.755905450212E-1,1.456692880826E-1,
-1.968503937008E-2));
#130=VERTEX_POINT('',#129);
#131=CARTESIAN_POINT('',(2.913385761652E-1,1.456692880826E-1,0.E0));
#132=VERTEX_POINT('',#131);
#133=CARTESIAN_POINT('',(2.913385761652E-1,1.456692880826E-1,
-1.968503937008E-2));
#134=VERTEX_POINT('',#133);
#135=CARTESIAN_POINT('',(2.913385761652E-1,1.535433036547E-1,0.E0));
#136=VERTEX_POINT('',#135);
#137=CARTESIAN_POINT('',(2.913385761652E-1,1.535433036547E-1,
-1.968503937008E-2));
#138=VERTEX_POINT('',#137);
#139=CARTESIAN_POINT('',(2.755905450212E-1,1.535433036547E-1,0.E0));
#140=VERTEX_POINT('',#139);
#141=CARTESIAN_POINT('',(2.755905450212E-1,1.535433036547E-1,
-1.968503937008E-2));
#142=VERTEX_POINT('',#141);
#143=CARTESIAN_POINT('',(2.618110177701E-1,1.673228309057E-1,0.E0));
#144=VERTEX_POINT('',#143);
#145=CARTESIAN_POINT('',(2.618110177701E-1,1.673228309057E-1,
-1.968503937008E-2));
#146=VERTEX_POINT('',#145);
#147=CARTESIAN_POINT('',(2.559055060911E-1,1.614173192267E-1,0.E0));
#148=VERTEX_POINT('',#147);
#149=CARTESIAN_POINT('',(2.559055060911E-1,1.614173192267E-1,
-1.968503937008E-2));
#150=VERTEX_POINT('',#149);
#151=CARTESIAN_POINT('',(2.677165294491E-1,1.496062958686E-1,0.E0));
#152=VERTEX_POINT('',#151);
#153=CARTESIAN_POINT('',(2.677165294491E-1,1.496062958686E-1,
-1.968503937008E-2));
#154=VERTEX_POINT('',#153);
#155=CARTESIAN_POINT('',(2.559055060911E-1,1.377952725106E-1,0.E0));
#156=VERTEX_POINT('',#155);
#157=CARTESIAN_POINT('',(2.559055060911E-1,1.377952725106E-1,
-1.968503937008E-2));
#158=VERTEX_POINT('',#157);
#159=CARTESIAN_POINT('',(2.687007813956E-1,1.387795244571E-1,
-9.842519685039E-3));
#160=DIRECTION('',(7.071067811865E-1,-7.071067811865E-1,0.E0));
#161=DIRECTION('',(-7.071067811865E-1,-7.071067811865E-1,0.E0));
#162=AXIS2_PLACEMENT_3D('',#159,#160,#161);
#163=PLANE('',#162);
#165=ORIENTED_EDGE('',*,*,#164,.T.);
#167=ORIENTED_EDGE('',*,*,#166,.T.);
#169=ORIENTED_EDGE('',*,*,#168,.T.);
#171=ORIENTED_EDGE('',*,*,#170,.T.);
#172=EDGE_LOOP('',(#165,#167,#169,#171));
#173=FACE_OUTER_BOUND('',#172,.F.);
#175=FILL_AREA_STYLE_COLOUR('',#9);
#176=FILL_AREA_STYLE('',(#175));
#177=SURFACE_STYLE_FILL_AREA(#176);
#178=SURFACE_SIDE_STYLE('',(#177));
#179=SURFACE_STYLE_USAGE(.BOTH.,#178);
#180=PRESENTATION_STYLE_ASSIGNMENT((#179));
#181=STYLED_ITEM('',(#180),#174);
#182=CARTESIAN_POINT('',(2.736220411282E-1,1.496062958686E-1,0.E0));
#183=DIRECTION('',(0.E0,0.E0,1.E0));
#184=DIRECTION('',(1.E0,0.E0,0.E0));
#185=AXIS2_PLACEMENT_3D('',#182,#183,#184);
#186=PLANE('',#185);
#188=ORIENTED_EDGE('',*,*,#187,.F.);
#190=ORIENTED_EDGE('',*,*,#189,.F.);
#192=ORIENTED_EDGE('',*,*,#191,.F.);
#194=ORIENTED_EDGE('',*,*,#193,.F.);
#196=ORIENTED_EDGE('',*,*,#195,.F.);
#198=ORIENTED_EDGE('',*,*,#197,.F.);
#200=ORIENTED_EDGE('',*,*,#199,.F.);
#202=ORIENTED_EDGE('',*,*,#201,.F.);
#203=ORIENTED_EDGE('',*,*,#164,.F.);
#204=EDGE_LOOP('',(#188,#190,#192,#194,#196,#198,#200,#202,#203));
#205=FACE_OUTER_BOUND('',#204,.F.);
#207=FILL_AREA_STYLE_COLOUR('',#9);
#208=FILL_AREA_STYLE('',(#207));
#209=SURFACE_STYLE_FILL_AREA(#208);
#210=SURFACE_SIDE_STYLE('',(#209));
#211=SURFACE_STYLE_USAGE(.BOTH.,#210);
#212=PRESENTATION_STYLE_ASSIGNMENT((#211));
#213=STYLED_ITEM('',(#212),#206);
#214=CARTESIAN_POINT('',(2.588582619306E-1,1.348425166711E-1,
-9.842519685039E-3));
#215=DIRECTION('',(7.071067811865E-1,7.071067811865E-1,0.E0));
#216=DIRECTION('',(-7.071067811865E-1,7.071067811865E-1,0.E0));
#217=AXIS2_PLACEMENT_3D('',#214,#215,#216);
#218=PLANE('',#217);
#219=ORIENTED_EDGE('',*,*,#187,.T.);
#220=ORIENTED_EDGE('',*,*,#170,.F.);
#222=ORIENTED_EDGE('',*,*,#221,.T.);
#224=ORIENTED_EDGE('',*,*,#223,.F.);
#225=EDGE_LOOP('',(#219,#220,#222,#224));
#226=FACE_OUTER_BOUND('',#225,.F.);
#228=FILL_AREA_STYLE_COLOUR('',#9);
#229=FILL_AREA_STYLE('',(#228));
#230=SURFACE_STYLE_FILL_AREA(#229);
#231=SURFACE_SIDE_STYLE('',(#230));
#232=SURFACE_STYLE_USAGE(.BOTH.,#231);
#233=PRESENTATION_STYLE_ASSIGNMENT((#232));
#234=STYLED_ITEM('',(#233),#227);
#235=CARTESIAN_POINT('',(2.736220411282E-1,1.496062958686E-1,
-1.968503937008E-2));
#236=DIRECTION('',(0.E0,0.E0,1.E0));
#237=DIRECTION('',(-1.E0,0.E0,0.E0));
#238=AXIS2_PLACEMENT_3D('',#235,#236,#237);
#239=PLANE('',#238);
#240=ORIENTED_EDGE('',*,*,#221,.F.);
#241=ORIENTED_EDGE('',*,*,#168,.F.);
#243=ORIENTED_EDGE('',*,*,#242,.F.);
#245=ORIENTED_EDGE('',*,*,#244,.F.);
#247=ORIENTED_EDGE('',*,*,#246,.F.);
#249=ORIENTED_EDGE('',*,*,#248,.F.);
#251=ORIENTED_EDGE('',*,*,#250,.F.);
#253=ORIENTED_EDGE('',*,*,#252,.F.);
#255=ORIENTED_EDGE('',*,*,#254,.F.);
#256=EDGE_LOOP('',(#240,#241,#243,#245,#247,#249,#251,#253,#255));
#257=FACE_OUTER_BOUND('',#256,.F.);
#259=FILL_AREA_STYLE_COLOUR('',#9);
#260=FILL_AREA_STYLE('',(#259));
#261=SURFACE_STYLE_FILL_AREA(#260);
#262=SURFACE_SIDE_STYLE('',(#261));
#263=SURFACE_STYLE_USAGE(.BOTH.,#262);
#264=PRESENTATION_STYLE_ASSIGNMENT((#263));
#265=STYLED_ITEM('',(#264),#258);
#266=CARTESIAN_POINT('',(2.834645605932E-1,1.456692880826E-1,
-9.842519685039E-3));
#267=DIRECTION('',(0.E0,1.E0,0.E0));
#268=DIRECTION('',(-1.E0,0.E0,0.E0));
#269=AXIS2_PLACEMENT_3D('',#266,#267,#268);
#270=PLANE('',#269);
#271=ORIENTED_EDGE('',*,*,#201,.T.);
#273=ORIENTED_EDGE('',*,*,#272,.T.);
#274=ORIENTED_EDGE('',*,*,#242,.T.);
#275=ORIENTED_EDGE('',*,*,#166,.F.);
#276=EDGE_LOOP('',(#271,#273,#274,#275));
#277=FACE_OUTER_BOUND('',#276,.F.);
#279=FILL_AREA_STYLE_COLOUR('',#9);
#280=FILL_AREA_STYLE('',(#279));
#281=SURFACE_STYLE_FILL_AREA(#280);
#282=SURFACE_SIDE_STYLE('',(#281));
#283=SURFACE_STYLE_USAGE(.BOTH.,#282);
#284=PRESENTATION_STYLE_ASSIGNMENT((#283));
#285=STYLED_ITEM('',(#284),#278);
#286=CARTESIAN_POINT('',(2.913385761652E-1,1.496062958686E-1,
-9.842519685039E-3));
#287=DIRECTION('',(1.E0,0.E0,0.E0));
#288=DIRECTION('',(0.E0,-1.E0,0.E0));
#289=AXIS2_PLACEMENT_3D('',#286,#287,#288);
#290=PLANE('',#289);
#291=ORIENTED_EDGE('',*,*,#199,.T.);
#293=ORIENTED_EDGE('',*,*,#292,.T.);
#294=ORIENTED_EDGE('',*,*,#244,.T.);
#295=ORIENTED_EDGE('',*,*,#272,.F.);
#296=EDGE_LOOP('',(#291,#293,#294,#295));
#297=FACE_OUTER_BOUND('',#296,.F.);
#299=FILL_AREA_STYLE_COLOUR('',#9);
#300=FILL_AREA_STYLE('',(#299));
#301=SURFACE_STYLE_FILL_AREA(#300);
#302=SURFACE_SIDE_STYLE('',(#301));
#303=SURFACE_STYLE_USAGE(.BOTH.,#302);
#304=PRESENTATION_STYLE_ASSIGNMENT((#303));
#305=STYLED_ITEM('',(#304),#298);
#306=CARTESIAN_POINT('',(2.834645605932E-1,1.535433036547E-1,
-9.842519685039E-3));
#307=DIRECTION('',(0.E0,1.E0,0.E0));
#308=DIRECTION('',(1.E0,0.E0,0.E0));
#309=AXIS2_PLACEMENT_3D('',#306,#307,#308);
#310=PLANE('',#309);
#311=ORIENTED_EDGE('',*,*,#197,.T.);
#313=ORIENTED_EDGE('',*,*,#312,.T.);
#314=ORIENTED_EDGE('',*,*,#246,.T.);
#315=ORIENTED_EDGE('',*,*,#292,.F.);
#316=EDGE_LOOP('',(#311,#313,#314,#315));
#317=FACE_OUTER_BOUND('',#316,.F.);
#319=FILL_AREA_STYLE_COLOUR('',#9);
#320=FILL_AREA_STYLE('',(#319));
#321=SURFACE_STYLE_FILL_AREA(#320);
#322=SURFACE_SIDE_STYLE('',(#321));
#323=SURFACE_STYLE_USAGE(.BOTH.,#322);
#324=PRESENTATION_STYLE_ASSIGNMENT((#323));
#325=STYLED_ITEM('',(#324),#318);
#326=CARTESIAN_POINT('',(2.687007813956E-1,1.604330672802E-1,
-9.842519685039E-3));
#327=DIRECTION('',(7.071067811865E-1,7.071067811865E-1,0.E0));
#328=DIRECTION('',(7.071067811865E-1,-7.071067811865E-1,0.E0));
#329=AXIS2_PLACEMENT_3D('',#326,#327,#328);
#330=PLANE('',#329);
#331=ORIENTED_EDGE('',*,*,#195,.T.);
#333=ORIENTED_EDGE('',*,*,#332,.T.);
#334=ORIENTED_EDGE('',*,*,#248,.T.);
#335=ORIENTED_EDGE('',*,*,#312,.F.);
#336=EDGE_LOOP('',(#331,#333,#334,#335));
#337=FACE_OUTER_BOUND('',#336,.F.);
#339=FILL_AREA_STYLE_COLOUR('',#9);
#340=FILL_AREA_STYLE('',(#339));
#341=SURFACE_STYLE_FILL_AREA(#340);
#342=SURFACE_SIDE_STYLE('',(#341));
#343=SURFACE_STYLE_USAGE(.BOTH.,#342);
#344=PRESENTATION_STYLE_ASSIGNMENT((#343));
#345=STYLED_ITEM('',(#344),#338);
#346=CARTESIAN_POINT('',(2.588582619306E-1,1.643700750662E-1,
-9.842519685039E-3));
#347=DIRECTION('',(7.071067811865E-1,-7.071067811865E-1,0.E0));
#348=DIRECTION('',(7.071067811865E-1,7.071067811865E-1,0.E0));
#349=AXIS2_PLACEMENT_3D('',#346,#347,#348);
#350=PLANE('',#349);
#351=ORIENTED_EDGE('',*,*,#193,.T.);
#353=ORIENTED_EDGE('',*,*,#352,.T.);
#354=ORIENTED_EDGE('',*,*,#250,.T.);
#355=ORIENTED_EDGE('',*,*,#332,.F.);
#356=EDGE_LOOP('',(#351,#353,#354,#355));
#357=FACE_OUTER_BOUND('',#356,.F.);
#359=FILL_AREA_STYLE_COLOUR('',#9);
#360=FILL_AREA_STYLE('',(#359));
#361=SURFACE_STYLE_FILL_AREA(#360);
#362=SURFACE_SIDE_STYLE('',(#361));
#363=SURFACE_STYLE_USAGE(.BOTH.,#362);
#364=PRESENTATION_STYLE_ASSIGNMENT((#363));
#365=STYLED_ITEM('',(#364),#358);
#366=CARTESIAN_POINT('',(2.618110177701E-1,1.555118075477E-1,
-9.842519685039E-3));
#367=DIRECTION('',(7.071067811865E-1,7.071067811866E-1,0.E0));
#368=DIRECTION('',(-7.071067811866E-1,7.071067811865E-1,0.E0));
#369=AXIS2_PLACEMENT_3D('',#366,#367,#368);
#370=PLANE('',#369);
#371=ORIENTED_EDGE('',*,*,#191,.T.);
#373=ORIENTED_EDGE('',*,*,#372,.T.);
#374=ORIENTED_EDGE('',*,*,#252,.T.);
#375=ORIENTED_EDGE('',*,*,#352,.F.);
#376=EDGE_LOOP('',(#371,#373,#374,#375));
#377=FACE_OUTER_BOUND('',#376,.F.);
#379=FILL_AREA_STYLE_COLOUR('',#9);
#380=FILL_AREA_STYLE('',(#379));
#381=SURFACE_STYLE_FILL_AREA(#380);
#382=SURFACE_SIDE_STYLE('',(#381));
#383=SURFACE_STYLE_USAGE(.BOTH.,#382);
#384=PRESENTATION_STYLE_ASSIGNMENT((#383));
#385=STYLED_ITEM('',(#384),#378);
#386=CARTESIAN_POINT('',(2.618110177701E-1,1.437007841896E-1,
-9.842519685039E-3));
#387=DIRECTION('',(7.071067811865E-1,-7.071067811865E-1,0.E0));
#388=DIRECTION('',(7.071067811865E-1,7.071067811865E-1,0.E0));
#389=AXIS2_PLACEMENT_3D('',#386,#387,#388);
#390=PLANE('',#389);
#391=ORIENTED_EDGE('',*,*,#189,.T.);
#392=ORIENTED_EDGE('',*,*,#223,.T.);
#393=ORIENTED_EDGE('',*,*,#254,.T.);
#394=ORIENTED_EDGE('',*,*,#372,.F.);
#395=EDGE_LOOP('',(#391,#392,#393,#394));
#396=FACE_OUTER_BOUND('',#395,.F.);
#398=FILL_AREA_STYLE_COLOUR('',#9);
#399=FILL_AREA_STYLE('',(#398));
#400=SURFACE_STYLE_FILL_AREA(#399);
#401=SURFACE_SIDE_STYLE('',(#400));
#402=SURFACE_STYLE_USAGE(.BOTH.,#401);
#403=PRESENTATION_STYLE_ASSIGNMENT((#402));
#404=STYLED_ITEM('',(#403),#397);
#408=LENGTH_MEASURE_WITH_UNIT(LENGTH_MEASURE(2.54E1),#407);
#409=(CONVERSION_BASED_UNIT('INCH',#408)LENGTH_UNIT()NAMED_UNIT(*));
#411=PLANE_ANGLE_MEASURE_WITH_UNIT(PLANE_ANGLE_MEASURE(1.745329251994E-2),#410);
#412=(CONVERSION_BASED_UNIT('DEGREE',#411)NAMED_UNIT(*)PLANE_ANGLE_UNIT());
#414=UNCERTAINTY_MEASURE_WITH_UNIT(LENGTH_MEASURE(5.383561840402E-6),#409,
'closure',
'Maximum model space distance between geometric entities at asserted connectivities');
#416=CARTESIAN_POINT('',(0.E0,0.E0,0.E0));
#417=DIRECTION('',(0.E0,0.E0,1.E0));
#418=DIRECTION('',(1.E0,0.E0,0.E0));
#421=MECHANICAL_DESIGN_GEOMETRIC_PRESENTATION_REPRESENTATION('',(#181,#213,#234,
#265,#285,#305,#325,#345,#365,#385,#404),#415);
#422=APPLICATION_CONTEXT('automotive design');
#423=APPLICATION_PROTOCOL_DEFINITION('international standard',
'config_control_design',1994,#422);
#424=PRODUCT_DEFINITION_CONTEXT('',#422,'design');
#425=PRODUCT_CONTEXT('',#422,'mechanical');
#426=PRODUCT('PCB_1','PCB_1','NOT SPECIFIED',(#425));
#427=PRODUCT_DEFINITION_FORMATION_WITH_SPECIFIED_SOURCE('1','LAST_VERSION',#426,
.MADE.);
#435=LENGTH_MEASURE_WITH_UNIT(LENGTH_MEASURE(2.54E1),#434);
#436=(CONVERSION_BASED_UNIT('INCH',#435)LENGTH_UNIT()NAMED_UNIT(*));
#437=DERIVED_UNIT_ELEMENT(#436,2.E0);
#438=AREA_UNIT((#437));
#439=MEASURE_REPRESENTATION_ITEM('surface area measure',AREA_MEASURE(
2.221370787059E0),#438);
#444=LENGTH_MEASURE_WITH_UNIT(LENGTH_MEASURE(2.54E1),#443);
#445=(CONVERSION_BASED_UNIT('INCH',#444)LENGTH_UNIT()NAMED_UNIT(*));
#446=DERIVED_UNIT_ELEMENT(#445,3.E0);
#447=VOLUME_UNIT((#446));
#448=MEASURE_REPRESENTATION_ITEM('volume measure',VOLUME_MEASURE(
1.474999934062E-1),#447);
#452=CARTESIAN_POINT('centre point',(6.877683462091E0,3.799999915063E0,
-2.5E-1));
#457=LENGTH_MEASURE_WITH_UNIT(LENGTH_MEASURE(2.54E1),#456);
#458=(CONVERSION_BASED_UNIT('INCH',#457)LENGTH_UNIT()NAMED_UNIT(*));
#459=DERIVED_UNIT_ELEMENT(#458,2.E0);
#460=AREA_UNIT((#459));
#461=MEASURE_REPRESENTATION_ITEM('surface area measure',AREA_MEASURE(
2.221370787059E0),#460);
#466=LENGTH_MEASURE_WITH_UNIT(LENGTH_MEASURE(2.54E1),#465);
#467=(CONVERSION_BASED_UNIT('INCH',#466)LENGTH_UNIT()NAMED_UNIT(*));
#468=DERIVED_UNIT_ELEMENT(#467,3.E0);
#469=VOLUME_UNIT((#468));
#470=MEASURE_REPRESENTATION_ITEM('volume measure',VOLUME_MEASURE(
1.474999934062E-1),#469);
#474=CARTESIAN_POINT('centre point',(6.877683462091E0,3.799999915063E0,
-2.5E-1));
#1=DRAUGHTING_PRE_DEFINED_COLOUR('green');
#2=COLOUR_RGB('',1.1E-2,1.2E-2,1.E0);
#3=COLOUR_RGB('',4.1E-1,2.61589E-1,1.12848E-1);
#4=COLOUR_RGB('',5.04854E-1,1.5455E-2,1.5455E-2);
#5=COLOUR_RGB('',6.35294E-1,6.86275E-1,7.4902E-1);
#6=COLOUR_RGB('',6.40777E-1,6.40777E-1,6.40777E-1);
#7=COLOUR_RGB('',6.69062E-1,6.69903E-1,6.55217E-1);
#8=COLOUR_RGB('',9.21569E-1,7.05882E-1,4.70588E-1);
#9=COLOUR_RGB('',9.647058823529E-1,9.647058823529E-1,9.529411764706E-1);
#10=DRAUGHTING_PRE_DEFINED_COLOUR('red');
#11=DRAUGHTING_PRE_DEFINED_COLOUR('yellow');
#12=COLOUR_RGB('',1.E0,1.E0,5.3E-1);
#13=COLOUR_RGB('',1.E0,1.E0,9.49E-1);
#14=DRAUGHTING_PRE_DEFINED_COLOUR('white');
#164=EDGE_CURVE('',#125,#126,#50,.T.);
#166=EDGE_CURVE('',#126,#130,#98,.T.);
#168=EDGE_CURVE('',#130,#128,#66,.T.);
#170=EDGE_CURVE('',#128,#125,#54,.T.);
#174=ADVANCED_FACE('',(#173),#163,.T.);
#187=EDGE_CURVE('',#156,#125,#18,.T.);
#189=EDGE_CURVE('',#152,#156,#22,.T.);
#191=EDGE_CURVE('',#148,#152,#26,.T.);
#193=EDGE_CURVE('',#144,#148,#30,.T.);
#195=EDGE_CURVE('',#140,#144,#34,.T.);
#197=EDGE_CURVE('',#136,#140,#38,.T.);
#199=EDGE_CURVE('',#132,#136,#42,.T.);
#201=EDGE_CURVE('',#126,#132,#46,.T.);
#206=ADVANCED_FACE('',(#205),#186,.T.);
#221=EDGE_CURVE('',#128,#158,#62,.T.);
#223=EDGE_CURVE('',#156,#158,#58,.T.);
#227=ADVANCED_FACE('',(#226),#218,.F.);
#242=EDGE_CURVE('',#134,#130,#70,.T.);
#244=EDGE_CURVE('',#138,#134,#74,.T.);
#246=EDGE_CURVE('',#142,#138,#78,.T.);
#248=EDGE_CURVE('',#146,#142,#82,.T.);
#250=EDGE_CURVE('',#150,#146,#86,.T.);
#252=EDGE_CURVE('',#154,#150,#90,.T.);
#254=EDGE_CURVE('',#158,#154,#94,.T.);
#258=ADVANCED_FACE('',(#257),#239,.F.);
#272=EDGE_CURVE('',#132,#134,#102,.T.);
#278=ADVANCED_FACE('',(#277),#270,.F.);
#292=EDGE_CURVE('',#136,#138,#106,.T.);
#298=ADVANCED_FACE('',(#297),#290,.T.);
#312=EDGE_CURVE('',#140,#142,#110,.T.);
#318=ADVANCED_FACE('',(#317),#310,.T.);
#332=EDGE_CURVE('',#144,#146,#114,.T.);
#338=ADVANCED_FACE('',(#337),#330,.T.);
#352=EDGE_CURVE('',#148,#150,#118,.T.);
#358=ADVANCED_FACE('',(#357),#350,.F.);
#372=EDGE_CURVE('',#152,#154,#122,.T.);
#378=ADVANCED_FACE('',(#377),#370,.F.);
#397=ADVANCED_FACE('',(#396),#390,.F.);
#405=CLOSED_SHELL('',(#174,#206,#227,#258,#278,#298,#318,#338,#358,#378,#397));
#406=MANIFOLD_SOLID_BREP('',#405);
#407=(LENGTH_UNIT()NAMED_UNIT(*)SI_UNIT(.MILLI.,.METRE.));
#410=(NAMED_UNIT(*)PLANE_ANGLE_UNIT()SI_UNIT($,.RADIAN.));
#413=(NAMED_UNIT(*)SI_UNIT($,.STERADIAN.)SOLID_ANGLE_UNIT());
#415=(GEOMETRIC_REPRESENTATION_CONTEXT(3)GLOBAL_UNCERTAINTY_ASSIGNED_CONTEXT((
#414))GLOBAL_UNIT_ASSIGNED_CONTEXT((#409,#412,#413))REPRESENTATION_CONTEXT
('ID1','3'));
#419=AXIS2_PLACEMENT_3D('',#416,#417,#418);
#420=ADVANCED_BREP_SHAPE_REPRESENTATION('',(#419,#406),#415);
#428=PRODUCT_DEFINITION('design','',#427,#424);
#429=PRODUCT_DEFINITION_SHAPE('','SHAPE FOR PCB_1.',#428);
#430=SHAPE_ASPECT('','solid data associated with PCB_1',#429,.F.);
#431=PROPERTY_DEFINITION('',
'shape for solid data with which properties are associated',#430);
#432=SHAPE_REPRESENTATION('',(#406),#415);
#433=SHAPE_DEFINITION_REPRESENTATION(#431,#432);
#434=(LENGTH_UNIT()NAMED_UNIT(*)SI_UNIT(.MILLI.,.METRE.));
#440=PROPERTY_DEFINITION('geometric validation property','area of PCB_1',#430);
#441=REPRESENTATION('surface area',(#439),#415);
#442=PROPERTY_DEFINITION_REPRESENTATION(#440,#441);
#443=(LENGTH_UNIT()NAMED_UNIT(*)SI_UNIT(.MILLI.,.METRE.));
#449=PROPERTY_DEFINITION('geometric validation property','volume of PCB_1',
#430);
#450=REPRESENTATION('volume',(#448),#415);
#451=PROPERTY_DEFINITION_REPRESENTATION(#449,#450);
#453=PROPERTY_DEFINITION('geometric validation property','centroid of PCB_1',
#430);
#454=REPRESENTATION('centroid',(#452),#415);
#455=PROPERTY_DEFINITION_REPRESENTATION(#453,#454);
#456=(LENGTH_UNIT()NAMED_UNIT(*)SI_UNIT(.MILLI.,.METRE.));
#462=PROPERTY_DEFINITION('geometric validation property','area of PCB_1',#429);
#463=REPRESENTATION('surface area',(#461),#415);
#464=PROPERTY_DEFINITION_REPRESENTATION(#462,#463);
#465=(LENGTH_UNIT()NAMED_UNIT(*)SI_UNIT(.MILLI.,.METRE.));
#471=PROPERTY_DEFINITION('geometric validation property','volume of PCB_1',
#429);
#472=REPRESENTATION('volume',(#470),#415);
#473=PROPERTY_DEFINITION_REPRESENTATION(#471,#472);
#475=PROPERTY_DEFINITION('geometric validation property','centroid of PCB_1',
#429);
#476=REPRESENTATION('centroid',(#474),#415);
#477=PROPERTY_DEFINITION_REPRESENTATION(#475,#476);
#478=SHAPE_DEFINITION_REPRESENTATION(#429,#420);
ENDSEC;
END-ISO-10303-21;
