ISO-10303-21;
HEADER;
FILE_DESCRIPTION((''),'2;1');
FILE_NAME('PCB_1_2','2026-06-15T13:45:17',('Esia'),(''),
'CREO PARAMETRIC BY PTC INC, 2025102','CREO PARAMETRIC BY PTC INC, 2025102','');
FILE_SCHEMA((
'AP242_MANAGED_MODEL_BASED_3D_ENGINEERING_MIM_LF { 1 0 10303 442 1 1 4 }'));
ENDSEC;
DATA;
#17=DIRECTION('',(0.E0,0.E0,-1.E0));
#18=VECTOR('',#17,6.299212598425E-2);
#19=CARTESIAN_POINT('',(9.763779527559E-1,6.318897637795E-1,0.E0));
#20=LINE('',#19,#18);
#21=DRAUGHTING_PRE_DEFINED_CURVE_FONT('continuous');
#22=CURVE_STYLE('',#21,POSITIVE_LENGTH_MEASURE(2.E-2),#1);
#23=PRESENTATION_STYLE_ASSIGNMENT((#22));
#24=STYLED_ITEM('',(#23),#20);
#25=DIRECTION('',(0.E0,0.E0,1.E0));
#26=VECTOR('',#25,6.299212598425E-2);
#27=CARTESIAN_POINT('',(1.035433070866E0,6.318897637795E-1,-6.299212598425E-2));
#28=LINE('',#27,#26);
#29=CURVE_STYLE('',#21,POSITIVE_LENGTH_MEASURE(2.E-2),#1);
#30=PRESENTATION_STYLE_ASSIGNMENT((#29));
#31=STYLED_ITEM('',(#30),#28);
#32=CARTESIAN_POINT('',(1.005905511811E0,6.318897637795E-1,0.E0));
#33=DIRECTION('',(0.E0,0.E0,-1.E0));
#34=DIRECTION('',(1.E0,0.E0,0.E0));
#35=AXIS2_PLACEMENT_3D('',#32,#33,#34);
#37=CURVE_STYLE('',#21,POSITIVE_LENGTH_MEASURE(2.E-2),#1);
#38=PRESENTATION_STYLE_ASSIGNMENT((#37));
#39=STYLED_ITEM('',(#38),#36);
#40=CARTESIAN_POINT('',(1.005905511811E0,6.318897637795E-1,0.E0));
#41=DIRECTION('',(0.E0,0.E0,-1.E0));
#42=DIRECTION('',(-1.E0,0.E0,0.E0));
#43=AXIS2_PLACEMENT_3D('',#40,#41,#42);
#45=CURVE_STYLE('',#21,POSITIVE_LENGTH_MEASURE(2.E-2),#1);
#46=PRESENTATION_STYLE_ASSIGNMENT((#45));
#47=STYLED_ITEM('',(#46),#44);
#48=CARTESIAN_POINT('',(2.578740157480E-1,6.318897637795E-1,0.E0));
#49=DIRECTION('',(0.E0,0.E0,-1.E0));
#50=DIRECTION('',(1.E0,0.E0,0.E0));
#51=AXIS2_PLACEMENT_3D('',#48,#49,#50);
#53=CURVE_STYLE('',#21,POSITIVE_LENGTH_MEASURE(2.E-2),#1);
#54=PRESENTATION_STYLE_ASSIGNMENT((#53));
#55=STYLED_ITEM('',(#54),#52);
#56=CARTESIAN_POINT('',(2.578740157480E-1,6.318897637795E-1,0.E0));
#57=DIRECTION('',(0.E0,0.E0,-1.E0));
#58=DIRECTION('',(-1.E0,0.E0,0.E0));
#59=AXIS2_PLACEMENT_3D('',#56,#57,#58);
#61=CURVE_STYLE('',#21,POSITIVE_LENGTH_MEASURE(2.E-2),#1);
#62=PRESENTATION_STYLE_ASSIGNMENT((#61));
#63=STYLED_ITEM('',(#62),#60);
#64=CARTESIAN_POINT('',(1.165354330709E0,1.165354330709E0,0.E0));
#65=DIRECTION('',(0.E0,0.E0,-1.E0));
#66=DIRECTION('',(-1.E0,0.E0,0.E0));
#67=AXIS2_PLACEMENT_3D('',#64,#65,#66);
#69=CURVE_STYLE('',#21,POSITIVE_LENGTH_MEASURE(2.E-2),#1);
#70=PRESENTATION_STYLE_ASSIGNMENT((#69));
#71=STYLED_ITEM('',(#70),#68);
#72=CARTESIAN_POINT('',(1.165354330709E0,1.165354330709E0,0.E0));
#73=DIRECTION('',(0.E0,0.E0,-1.E0));
#74=DIRECTION('',(1.E0,0.E0,0.E0));
#75=AXIS2_PLACEMENT_3D('',#72,#73,#74);
#77=CURVE_STYLE('',#21,POSITIVE_LENGTH_MEASURE(2.E-2),#1);
#78=PRESENTATION_STYLE_ASSIGNMENT((#77));
#79=STYLED_ITEM('',(#78),#76);
#80=CARTESIAN_POINT('',(1.165354330709E0,9.842519685039E-2,0.E0));
#81=DIRECTION('',(0.E0,0.E0,-1.E0));
#82=DIRECTION('',(1.E0,0.E0,0.E0));
#83=AXIS2_PLACEMENT_3D('',#80,#81,#82);
#85=CURVE_STYLE('',#21,POSITIVE_LENGTH_MEASURE(2.E-2),#1);
#86=PRESENTATION_STYLE_ASSIGNMENT((#85));
#87=STYLED_ITEM('',(#86),#84);
#88=CARTESIAN_POINT('',(1.165354330709E0,9.842519685039E-2,0.E0));
#89=DIRECTION('',(0.E0,0.E0,-1.E0));
#90=DIRECTION('',(0.E0,1.E0,0.E0));
#91=AXIS2_PLACEMENT_3D('',#88,#89,#90);
#93=CURVE_STYLE('',#21,POSITIVE_LENGTH_MEASURE(2.E-2),#1);
#94=PRESENTATION_STYLE_ASSIGNMENT((#93));
#95=STYLED_ITEM('',(#94),#92);
#96=CARTESIAN_POINT('',(1.165354330709E0,9.842519685039E-2,0.E0));
#97=DIRECTION('',(0.E0,0.E0,-1.E0));
#98=DIRECTION('',(-1.E0,0.E0,0.E0));
#99=AXIS2_PLACEMENT_3D('',#96,#97,#98);
#101=CURVE_STYLE('',#21,POSITIVE_LENGTH_MEASURE(2.E-2),#1);
#102=PRESENTATION_STYLE_ASSIGNMENT((#101));
#103=STYLED_ITEM('',(#102),#100);
#104=CARTESIAN_POINT('',(9.842519685039E-2,9.842519685039E-2,0.E0));
#105=DIRECTION('',(0.E0,0.E0,-1.E0));
#106=DIRECTION('',(1.E0,0.E0,0.E0));
#107=AXIS2_PLACEMENT_3D('',#104,#105,#106);
#109=CURVE_STYLE('',#21,POSITIVE_LENGTH_MEASURE(2.E-2),#1);
#110=PRESENTATION_STYLE_ASSIGNMENT((#109));
#111=STYLED_ITEM('',(#110),#108);
#112=CARTESIAN_POINT('',(9.842519685039E-2,9.842519685039E-2,0.E0));
#113=DIRECTION('',(0.E0,0.E0,-1.E0));
#114=DIRECTION('',(-1.E0,0.E0,0.E0));
#115=AXIS2_PLACEMENT_3D('',#112,#113,#114);
#117=CURVE_STYLE('',#21,POSITIVE_LENGTH_MEASURE(2.E-2),#1);
#118=PRESENTATION_STYLE_ASSIGNMENT((#117));
#119=STYLED_ITEM('',(#118),#116);
#120=CARTESIAN_POINT('',(9.842519685039E-2,1.165354330709E0,0.E0));
#121=DIRECTION('',(0.E0,0.E0,-1.E0));
#122=DIRECTION('',(0.E0,-1.E0,0.E0));
#123=AXIS2_PLACEMENT_3D('',#120,#121,#122);
#125=CURVE_STYLE('',#21,POSITIVE_LENGTH_MEASURE(2.E-2),#1);
#126=PRESENTATION_STYLE_ASSIGNMENT((#125));
#127=STYLED_ITEM('',(#126),#124);
#128=CARTESIAN_POINT('',(9.842519685039E-2,1.165354330709E0,0.E0));
#129=DIRECTION('',(0.E0,0.E0,-1.E0));
#130=DIRECTION('',(1.E0,0.E0,0.E0));
#131=AXIS2_PLACEMENT_3D('',#128,#129,#130);
#133=CURVE_STYLE('',#21,POSITIVE_LENGTH_MEASURE(2.E-2),#1);
#134=PRESENTATION_STYLE_ASSIGNMENT((#133));
#135=STYLED_ITEM('',(#134),#132);
#136=CARTESIAN_POINT('',(9.842519685039E-2,1.165354330709E0,0.E0));
#137=DIRECTION('',(0.E0,0.E0,-1.E0));
#138=DIRECTION('',(-1.E0,0.E0,0.E0));
#139=AXIS2_PLACEMENT_3D('',#136,#137,#138);
#141=CURVE_STYLE('',#21,POSITIVE_LENGTH_MEASURE(2.E-2),#1);
#142=PRESENTATION_STYLE_ASSIGNMENT((#141));
#143=STYLED_ITEM('',(#142),#140);
#144=DIRECTION('',(-1.E0,0.E0,0.E0));
#145=VECTOR('',#144,1.263779527559E0);
#146=CARTESIAN_POINT('',(1.263779527559E0,0.E0,0.E0));
#147=LINE('',#146,#145);
#148=CURVE_STYLE('',#21,POSITIVE_LENGTH_MEASURE(2.E-2),#1);
#149=PRESENTATION_STYLE_ASSIGNMENT((#148));
#150=STYLED_ITEM('',(#149),#147);
#151=DIRECTION('',(0.E0,0.E0,1.E0));
#152=VECTOR('',#151,6.299212598425E-2);
#153=CARTESIAN_POINT('',(1.263779527559E0,0.E0,-6.299212598425E-2));
#154=LINE('',#153,#152);
#155=CURVE_STYLE('',#21,POSITIVE_LENGTH_MEASURE(2.E-2),#1);
#156=PRESENTATION_STYLE_ASSIGNMENT((#155));
#157=STYLED_ITEM('',(#156),#154);
#158=DIRECTION('',(1.E0,0.E0,0.E0));
#159=VECTOR('',#158,1.263779527559E0);
#160=CARTESIAN_POINT('',(0.E0,0.E0,-6.299212598425E-2));
#161=LINE('',#160,#159);
#162=CURVE_STYLE('',#21,POSITIVE_LENGTH_MEASURE(2.E-2),#1);
#163=PRESENTATION_STYLE_ASSIGNMENT((#162));
#164=STYLED_ITEM('',(#163),#161);
#165=DIRECTION('',(0.E0,-1.E0,0.E0));
#166=VECTOR('',#165,1.263779527559E0);
#167=CARTESIAN_POINT('',(1.263779527559E0,1.263779527559E0,0.E0));
#168=LINE('',#167,#166);
#169=CURVE_STYLE('',#21,POSITIVE_LENGTH_MEASURE(2.E-2),#1);
#170=PRESENTATION_STYLE_ASSIGNMENT((#169));
#171=STYLED_ITEM('',(#170),#168);
#172=DIRECTION('',(0.E0,0.E0,1.E0));
#173=VECTOR('',#172,6.299212598425E-2);
#174=CARTESIAN_POINT('',(1.263779527559E0,1.263779527559E0,-6.299212598425E-2));
#175=LINE('',#174,#173);
#176=CURVE_STYLE('',#21,POSITIVE_LENGTH_MEASURE(2.E-2),#1);
#177=PRESENTATION_STYLE_ASSIGNMENT((#176));
#178=STYLED_ITEM('',(#177),#175);
#179=DIRECTION('',(0.E0,1.E0,0.E0));
#180=VECTOR('',#179,1.263779527559E0);
#181=CARTESIAN_POINT('',(1.263779527559E0,0.E0,-6.299212598425E-2));
#182=LINE('',#181,#180);
#183=CURVE_STYLE('',#21,POSITIVE_LENGTH_MEASURE(2.E-2),#1);
#184=PRESENTATION_STYLE_ASSIGNMENT((#183));
#185=STYLED_ITEM('',(#184),#182);
#186=DIRECTION('',(1.E0,0.E0,0.E0));
#187=VECTOR('',#186,1.263779527559E0);
#188=CARTESIAN_POINT('',(0.E0,1.263779527559E0,0.E0));
#189=LINE('',#188,#187);
#190=CURVE_STYLE('',#21,POSITIVE_LENGTH_MEASURE(2.E-2),#1);
#191=PRESENTATION_STYLE_ASSIGNMENT((#190));
#192=STYLED_ITEM('',(#191),#189);
#193=DIRECTION('',(0.E0,0.E0,1.E0));
#194=VECTOR('',#193,6.299212598425E-2);
#195=CARTESIAN_POINT('',(0.E0,1.263779527559E0,-6.299212598425E-2));
#196=LINE('',#195,#194);
#197=CURVE_STYLE('',#21,POSITIVE_LENGTH_MEASURE(2.E-2),#1);
#198=PRESENTATION_STYLE_ASSIGNMENT((#197));
#199=STYLED_ITEM('',(#198),#196);
#200=DIRECTION('',(-1.E0,0.E0,0.E0));
#201=VECTOR('',#200,1.263779527559E0);
#202=CARTESIAN_POINT('',(1.263779527559E0,1.263779527559E0,-6.299212598425E-2));
#203=LINE('',#202,#201);
#204=CURVE_STYLE('',#21,POSITIVE_LENGTH_MEASURE(2.E-2),#1);
#205=PRESENTATION_STYLE_ASSIGNMENT((#204));
#206=STYLED_ITEM('',(#205),#203);
#207=DIRECTION('',(0.E0,1.E0,0.E0));
#208=VECTOR('',#207,1.263779527559E0);
#209=CARTESIAN_POINT('',(0.E0,0.E0,0.E0));
#210=LINE('',#209,#208);
#211=CURVE_STYLE('',#21,POSITIVE_LENGTH_MEASURE(2.E-2),#1);
#212=PRESENTATION_STYLE_ASSIGNMENT((#211));
#213=STYLED_ITEM('',(#212),#210);
#214=DIRECTION('',(0.E0,0.E0,1.E0));
#215=VECTOR('',#214,6.299212598425E-2);
#216=CARTESIAN_POINT('',(0.E0,0.E0,-6.299212598425E-2));
#217=LINE('',#216,#215);
#218=CURVE_STYLE('',#21,POSITIVE_LENGTH_MEASURE(2.E-2),#1);
#219=PRESENTATION_STYLE_ASSIGNMENT((#218));
#220=STYLED_ITEM('',(#219),#217);
#221=DIRECTION('',(0.E0,-1.E0,0.E0));
#222=VECTOR('',#221,1.263779527559E0);
#223=CARTESIAN_POINT('',(0.E0,1.263779527559E0,-6.299212598425E-2));
#224=LINE('',#223,#222);
#225=CURVE_STYLE('',#21,POSITIVE_LENGTH_MEASURE(2.E-2),#1);
#226=PRESENTATION_STYLE_ASSIGNMENT((#225));
#227=STYLED_ITEM('',(#226),#224);
#228=CARTESIAN_POINT('',(1.005905511811E0,6.318897637795E-1,
-6.299212598425E-2));
#229=DIRECTION('',(0.E0,0.E0,1.E0));
#230=DIRECTION('',(1.E0,0.E0,0.E0));
#231=AXIS2_PLACEMENT_3D('',#228,#229,#230);
#233=CURVE_STYLE('',#21,POSITIVE_LENGTH_MEASURE(2.E-2),#1);
#234=PRESENTATION_STYLE_ASSIGNMENT((#233));
#235=STYLED_ITEM('',(#234),#232);
#236=CARTESIAN_POINT('',(1.005905511811E0,6.318897637795E-1,
-6.299212598425E-2));
#237=DIRECTION('',(0.E0,0.E0,1.E0));
#238=DIRECTION('',(-1.E0,0.E0,0.E0));
#239=AXIS2_PLACEMENT_3D('',#236,#237,#238);
#241=CURVE_STYLE('',#21,POSITIVE_LENGTH_MEASURE(2.E-2),#1);
#242=PRESENTATION_STYLE_ASSIGNMENT((#241));
#243=STYLED_ITEM('',(#242),#240);
#244=CARTESIAN_POINT('',(2.578740157480E-1,6.318897637795E-1,
-6.299212598425E-2));
#245=DIRECTION('',(0.E0,0.E0,1.E0));
#246=DIRECTION('',(1.E0,0.E0,0.E0));
#247=AXIS2_PLACEMENT_3D('',#244,#245,#246);
#249=CURVE_STYLE('',#21,POSITIVE_LENGTH_MEASURE(2.E-2),#1);
#250=PRESENTATION_STYLE_ASSIGNMENT((#249));
#251=STYLED_ITEM('',(#250),#248);
#252=CARTESIAN_POINT('',(2.578740157480E-1,6.318897637795E-1,
-6.299212598425E-2));
#253=DIRECTION('',(0.E0,0.E0,1.E0));
#254=DIRECTION('',(-1.E0,0.E0,0.E0));
#255=AXIS2_PLACEMENT_3D('',#252,#253,#254);
#257=CURVE_STYLE('',#21,POSITIVE_LENGTH_MEASURE(2.E-2),#1);
#258=PRESENTATION_STYLE_ASSIGNMENT((#257));
#259=STYLED_ITEM('',(#258),#256);
#260=CARTESIAN_POINT('',(1.165354330709E0,1.165354330709E0,-6.299212598425E-2));
#261=DIRECTION('',(0.E0,0.E0,1.E0));
#262=DIRECTION('',(1.E0,0.E0,0.E0));
#263=AXIS2_PLACEMENT_3D('',#260,#261,#262);
#265=CURVE_STYLE('',#21,POSITIVE_LENGTH_MEASURE(2.E-2),#1);
#266=PRESENTATION_STYLE_ASSIGNMENT((#265));
#267=STYLED_ITEM('',(#266),#264);
#268=CARTESIAN_POINT('',(1.165354330709E0,1.165354330709E0,-6.299212598425E-2));
#269=DIRECTION('',(0.E0,0.E0,1.E0));
#270=DIRECTION('',(-1.E0,0.E0,0.E0));
#271=AXIS2_PLACEMENT_3D('',#268,#269,#270);
#273=CURVE_STYLE('',#21,POSITIVE_LENGTH_MEASURE(2.E-2),#1);
#274=PRESENTATION_STYLE_ASSIGNMENT((#273));
#275=STYLED_ITEM('',(#274),#272);
#276=CARTESIAN_POINT('',(1.165354330709E0,9.842519685039E-2,
-6.299212598425E-2));
#277=DIRECTION('',(0.E0,0.E0,1.E0));
#278=DIRECTION('',(1.E0,0.E0,0.E0));
#279=AXIS2_PLACEMENT_3D('',#276,#277,#278);
#281=CURVE_STYLE('',#21,POSITIVE_LENGTH_MEASURE(2.E-2),#1);
#282=PRESENTATION_STYLE_ASSIGNMENT((#281));
#283=STYLED_ITEM('',(#282),#280);
#284=CARTESIAN_POINT('',(1.165354330709E0,9.842519685039E-2,
-6.299212598425E-2));
#285=DIRECTION('',(0.E0,0.E0,1.E0));
#286=DIRECTION('',(-1.E0,0.E0,0.E0));
#287=AXIS2_PLACEMENT_3D('',#284,#285,#286);
#289=CURVE_STYLE('',#21,POSITIVE_LENGTH_MEASURE(2.E-2),#1);
#290=PRESENTATION_STYLE_ASSIGNMENT((#289));
#291=STYLED_ITEM('',(#290),#288);
#292=CARTESIAN_POINT('',(9.842519685039E-2,9.842519685039E-2,
-6.299212598425E-2));
#293=DIRECTION('',(0.E0,0.E0,1.E0));
#294=DIRECTION('',(1.E0,0.E0,0.E0));
#295=AXIS2_PLACEMENT_3D('',#292,#293,#294);
#297=CURVE_STYLE('',#21,POSITIVE_LENGTH_MEASURE(2.E-2),#1);
#298=PRESENTATION_STYLE_ASSIGNMENT((#297));
#299=STYLED_ITEM('',(#298),#296);
#300=CARTESIAN_POINT('',(9.842519685039E-2,9.842519685039E-2,
-6.299212598425E-2));
#301=DIRECTION('',(0.E0,0.E0,1.E0));
#302=DIRECTION('',(-1.E0,0.E0,0.E0));
#303=AXIS2_PLACEMENT_3D('',#300,#301,#302);
#305=CURVE_STYLE('',#21,POSITIVE_LENGTH_MEASURE(2.E-2),#1);
#306=PRESENTATION_STYLE_ASSIGNMENT((#305));
#307=STYLED_ITEM('',(#306),#304);
#308=CARTESIAN_POINT('',(9.842519685039E-2,1.165354330709E0,
-6.299212598425E-2));
#309=DIRECTION('',(0.E0,0.E0,1.E0));
#310=DIRECTION('',(1.E0,0.E0,0.E0));
#311=AXIS2_PLACEMENT_3D('',#308,#309,#310);
#313=CURVE_STYLE('',#21,POSITIVE_LENGTH_MEASURE(2.E-2),#1);
#314=PRESENTATION_STYLE_ASSIGNMENT((#313));
#315=STYLED_ITEM('',(#314),#312);
#316=CARTESIAN_POINT('',(9.842519685039E-2,1.165354330709E0,
-6.299212598425E-2));
#317=DIRECTION('',(0.E0,0.E0,1.E0));
#318=DIRECTION('',(-1.E0,0.E0,0.E0));
#319=AXIS2_PLACEMENT_3D('',#316,#317,#318);
#321=CURVE_STYLE('',#21,POSITIVE_LENGTH_MEASURE(2.E-2),#1);
#322=PRESENTATION_STYLE_ASSIGNMENT((#321));
#323=STYLED_ITEM('',(#322),#320);
#324=DIRECTION('',(0.E0,0.E0,-1.E0));
#325=VECTOR('',#324,6.299212598425E-2);
#326=CARTESIAN_POINT('',(2.283464566929E-1,6.318897637795E-1,0.E0));
#327=LINE('',#326,#325);
#328=CURVE_STYLE('',#21,POSITIVE_LENGTH_MEASURE(2.E-2),#1);
#329=PRESENTATION_STYLE_ASSIGNMENT((#328));
#330=STYLED_ITEM('',(#329),#327);
#331=DIRECTION('',(0.E0,0.E0,1.E0));
#332=VECTOR('',#331,6.299212598425E-2);
#333=CARTESIAN_POINT('',(2.874015748031E-1,6.318897637795E-1,
-6.299212598425E-2));
#334=LINE('',#333,#332);
#335=CURVE_STYLE('',#21,POSITIVE_LENGTH_MEASURE(2.E-2),#1);
#336=PRESENTATION_STYLE_ASSIGNMENT((#335));
#337=STYLED_ITEM('',(#336),#334);
#338=DIRECTION('',(0.E0,0.E0,-1.E0));
#339=VECTOR('',#338,6.299212598425E-2);
#340=CARTESIAN_POINT('',(1.116141732283E0,1.165354330709E0,0.E0));
#341=LINE('',#340,#339);
#342=CURVE_STYLE('',#21,POSITIVE_LENGTH_MEASURE(2.E-2),#1);
#343=PRESENTATION_STYLE_ASSIGNMENT((#342));
#344=STYLED_ITEM('',(#343),#341);
#345=DIRECTION('',(0.E0,0.E0,1.E0));
#346=VECTOR('',#345,6.299212598425E-2);
#347=CARTESIAN_POINT('',(1.214566929134E0,1.165354330709E0,-6.299212598425E-2));
#348=LINE('',#347,#346);
#349=CURVE_STYLE('',#21,POSITIVE_LENGTH_MEASURE(2.E-2),#1);
#350=PRESENTATION_STYLE_ASSIGNMENT((#349));
#351=STYLED_ITEM('',(#350),#348);
#352=DIRECTION('',(0.E0,0.E0,-1.E0));
#353=VECTOR('',#352,6.299212598425E-2);
#354=CARTESIAN_POINT('',(1.116141732283E0,9.842519685039E-2,0.E0));
#355=LINE('',#354,#353);
#356=CURVE_STYLE('',#21,POSITIVE_LENGTH_MEASURE(2.E-2),#1);
#357=PRESENTATION_STYLE_ASSIGNMENT((#356));
#358=STYLED_ITEM('',(#357),#355);
#359=DIRECTION('',(0.E0,0.E0,1.E0));
#360=VECTOR('',#359,6.299212598425E-2);
#361=CARTESIAN_POINT('',(1.214566929134E0,9.842519685039E-2,
-6.299212598425E-2));
#362=LINE('',#361,#360);
#363=CURVE_STYLE('',#21,POSITIVE_LENGTH_MEASURE(2.E-2),#1);
#364=PRESENTATION_STYLE_ASSIGNMENT((#363));
#365=STYLED_ITEM('',(#364),#362);
#366=DIRECTION('',(0.E0,0.E0,-1.E0));
#367=VECTOR('',#366,6.299212598425E-2);
#368=CARTESIAN_POINT('',(4.921259842520E-2,9.842519685039E-2,0.E0));
#369=LINE('',#368,#367);
#370=CURVE_STYLE('',#21,POSITIVE_LENGTH_MEASURE(2.E-2),#1);
#371=PRESENTATION_STYLE_ASSIGNMENT((#370));
#372=STYLED_ITEM('',(#371),#369);
#373=DIRECTION('',(0.E0,0.E0,1.E0));
#374=VECTOR('',#373,6.299212598425E-2);
#375=CARTESIAN_POINT('',(1.476377952756E-1,9.842519685039E-2,
-6.299212598425E-2));
#376=LINE('',#375,#374);
#377=CURVE_STYLE('',#21,POSITIVE_LENGTH_MEASURE(2.E-2),#1);
#378=PRESENTATION_STYLE_ASSIGNMENT((#377));
#379=STYLED_ITEM('',(#378),#376);
#380=DIRECTION('',(0.E0,0.E0,-1.E0));
#381=VECTOR('',#380,6.299212598425E-2);
#382=CARTESIAN_POINT('',(4.921259842520E-2,1.165354330709E0,0.E0));
#383=LINE('',#382,#381);
#384=CURVE_STYLE('',#21,POSITIVE_LENGTH_MEASURE(2.E-2),#1);
#385=PRESENTATION_STYLE_ASSIGNMENT((#384));
#386=STYLED_ITEM('',(#385),#383);
#387=DIRECTION('',(0.E0,0.E0,1.E0));
#388=VECTOR('',#387,6.299212598425E-2);
#389=CARTESIAN_POINT('',(1.476377952756E-1,1.165354330709E0,
-6.299212598425E-2));
#390=LINE('',#389,#388);
#391=CURVE_STYLE('',#21,POSITIVE_LENGTH_MEASURE(2.E-2),#1);
#392=PRESENTATION_STYLE_ASSIGNMENT((#391));
#393=STYLED_ITEM('',(#392),#390);
#394=CARTESIAN_POINT('',(1.165354330709E0,1.476377952756E-1,0.E0));
#395=CARTESIAN_POINT('',(1.214566929134E0,9.842519685039E-2,0.E0));
#396=VERTEX_POINT('',#394);
#397=VERTEX_POINT('',#395);
#398=CARTESIAN_POINT('',(1.476377952756E-1,1.165354330709E0,0.E0));
#399=CARTESIAN_POINT('',(9.842519685039E-2,1.116141732283E0,0.E0));
#400=VERTEX_POINT('',#398);
#401=VERTEX_POINT('',#399);
#402=CARTESIAN_POINT('',(0.E0,1.263779527559E0,-6.299212598425E-2));
#403=CARTESIAN_POINT('',(0.E0,0.E0,-6.299212598425E-2));
#404=VERTEX_POINT('',#402);
#405=VERTEX_POINT('',#403);
#406=CARTESIAN_POINT('',(1.263779527559E0,1.263779527559E0,-6.299212598425E-2));
#407=VERTEX_POINT('',#406);
#408=CARTESIAN_POINT('',(1.263779527559E0,0.E0,-6.299212598425E-2));
#409=VERTEX_POINT('',#408);
#410=CARTESIAN_POINT('',(0.E0,0.E0,0.E0));
#411=CARTESIAN_POINT('',(0.E0,1.263779527559E0,0.E0));
#412=VERTEX_POINT('',#410);
#413=VERTEX_POINT('',#411);
#414=CARTESIAN_POINT('',(1.263779527559E0,1.263779527559E0,0.E0));
#415=VERTEX_POINT('',#414);
#416=CARTESIAN_POINT('',(1.263779527559E0,0.E0,0.E0));
#417=VERTEX_POINT('',#416);
#418=CARTESIAN_POINT('',(9.763779527559E-1,6.318897637795E-1,0.E0));
#419=CARTESIAN_POINT('',(9.763779527559E-1,6.318897637795E-1,
-6.299212598425E-2));
#420=VERTEX_POINT('',#418);
#421=VERTEX_POINT('',#419);
#422=CARTESIAN_POINT('',(1.035433070866E0,6.318897637795E-1,0.E0));
#423=VERTEX_POINT('',#422);
#424=CARTESIAN_POINT('',(1.035433070866E0,6.318897637795E-1,
-6.299212598425E-2));
#425=VERTEX_POINT('',#424);
#426=CARTESIAN_POINT('',(2.283464566929E-1,6.318897637795E-1,0.E0));
#427=CARTESIAN_POINT('',(2.283464566929E-1,6.318897637795E-1,
-6.299212598425E-2));
#428=VERTEX_POINT('',#426);
#429=VERTEX_POINT('',#427);
#430=CARTESIAN_POINT('',(2.874015748031E-1,6.318897637795E-1,0.E0));
#431=VERTEX_POINT('',#430);
#432=CARTESIAN_POINT('',(2.874015748031E-1,6.318897637795E-1,
-6.299212598425E-2));
#433=VERTEX_POINT('',#432);
#434=CARTESIAN_POINT('',(1.116141732283E0,1.165354330709E0,0.E0));
#435=CARTESIAN_POINT('',(1.116141732283E0,1.165354330709E0,-6.299212598425E-2));
#436=VERTEX_POINT('',#434);
#437=VERTEX_POINT('',#435);
#438=CARTESIAN_POINT('',(1.214566929134E0,1.165354330709E0,0.E0));
#439=VERTEX_POINT('',#438);
#440=CARTESIAN_POINT('',(1.214566929134E0,1.165354330709E0,-6.299212598425E-2));
#441=VERTEX_POINT('',#440);
#442=CARTESIAN_POINT('',(1.116141732283E0,9.842519685039E-2,0.E0));
#443=CARTESIAN_POINT('',(1.116141732283E0,9.842519685039E-2,
-6.299212598425E-2));
#444=VERTEX_POINT('',#442);
#445=VERTEX_POINT('',#443);
#446=CARTESIAN_POINT('',(1.214566929134E0,9.842519685039E-2,
-6.299212598425E-2));
#447=VERTEX_POINT('',#446);
#448=CARTESIAN_POINT('',(4.921259842520E-2,9.842519685039E-2,0.E0));
#449=CARTESIAN_POINT('',(4.921259842520E-2,9.842519685039E-2,
-6.299212598425E-2));
#450=VERTEX_POINT('',#448);
#451=VERTEX_POINT('',#449);
#452=CARTESIAN_POINT('',(1.476377952756E-1,9.842519685039E-2,0.E0));
#453=VERTEX_POINT('',#452);
#454=CARTESIAN_POINT('',(1.476377952756E-1,9.842519685039E-2,
-6.299212598425E-2));
#455=VERTEX_POINT('',#454);
#456=CARTESIAN_POINT('',(4.921259842520E-2,1.165354330709E0,0.E0));
#457=CARTESIAN_POINT('',(4.921259842520E-2,1.165354330709E0,
-6.299212598425E-2));
#458=VERTEX_POINT('',#456);
#459=VERTEX_POINT('',#457);
#460=CARTESIAN_POINT('',(1.476377952756E-1,1.165354330709E0,
-6.299212598425E-2));
#461=VERTEX_POINT('',#460);
#462=CARTESIAN_POINT('',(1.005905511811E0,6.318897637795E-1,2.185039370079E-1));
#463=DIRECTION('',(0.E0,0.E0,-1.E0));
#464=DIRECTION('',(-1.E0,0.E0,0.E0));
#465=AXIS2_PLACEMENT_3D('',#462,#463,#464);
#466=CYLINDRICAL_SURFACE('',#465,2.952755905512E-2);
#468=ORIENTED_EDGE('',*,*,#467,.T.);
#470=ORIENTED_EDGE('',*,*,#469,.T.);
#472=ORIENTED_EDGE('',*,*,#471,.T.);
#474=ORIENTED_EDGE('',*,*,#473,.T.);
#475=EDGE_LOOP('',(#468,#470,#472,#474));
#476=FACE_OUTER_BOUND('',#475,.F.);
#478=CARTESIAN_POINT('',(1.005905511811E0,6.318897637795E-1,2.185039370079E-1));
#479=DIRECTION('',(0.E0,0.E0,-1.E0));
#480=DIRECTION('',(-1.E0,0.E0,0.E0));
#481=AXIS2_PLACEMENT_3D('',#478,#479,#480);
#482=CYLINDRICAL_SURFACE('',#481,2.952755905512E-2);
#483=ORIENTED_EDGE('',*,*,#467,.F.);
#485=ORIENTED_EDGE('',*,*,#484,.T.);
#486=ORIENTED_EDGE('',*,*,#471,.F.);
#488=ORIENTED_EDGE('',*,*,#487,.T.);
#489=EDGE_LOOP('',(#483,#485,#486,#488));
#490=FACE_OUTER_BOUND('',#489,.F.);
#492=CARTESIAN_POINT('',(6.318897637795E-1,6.318897637795E-1,0.E0));
#493=DIRECTION('',(0.E0,0.E0,1.E0));
#494=DIRECTION('',(1.E0,0.E0,0.E0));
#495=AXIS2_PLACEMENT_3D('',#492,#493,#494);
#496=PLANE('',#495);
#498=ORIENTED_EDGE('',*,*,#497,.T.);
#500=ORIENTED_EDGE('',*,*,#499,.T.);
#502=ORIENTED_EDGE('',*,*,#501,.T.);
#504=ORIENTED_EDGE('',*,*,#503,.T.);
#505=EDGE_LOOP('',(#498,#500,#502,#504));
#506=FACE_OUTER_BOUND('',#505,.F.);
#507=ORIENTED_EDGE('',*,*,#473,.F.);
#508=ORIENTED_EDGE('',*,*,#484,.F.);
#509=EDGE_LOOP('',(#507,#508));
#510=FACE_BOUND('',#509,.F.);
#512=ORIENTED_EDGE('',*,*,#511,.F.);
#514=ORIENTED_EDGE('',*,*,#513,.F.);
#515=EDGE_LOOP('',(#512,#514));
#516=FACE_BOUND('',#515,.F.);
#518=ORIENTED_EDGE('',*,*,#517,.F.);
#520=ORIENTED_EDGE('',*,*,#519,.F.);
#521=EDGE_LOOP('',(#518,#520));
#522=FACE_BOUND('',#521,.F.);
#524=ORIENTED_EDGE('',*,*,#523,.F.);
#526=ORIENTED_EDGE('',*,*,#525,.F.);
#528=ORIENTED_EDGE('',*,*,#527,.F.);
#529=EDGE_LOOP('',(#524,#526,#528));
#530=FACE_BOUND('',#529,.F.);
#532=ORIENTED_EDGE('',*,*,#531,.F.);
#534=ORIENTED_EDGE('',*,*,#533,.F.);
#535=EDGE_LOOP('',(#532,#534));
#536=FACE_BOUND('',#535,.F.);
#538=ORIENTED_EDGE('',*,*,#537,.F.);
#540=ORIENTED_EDGE('',*,*,#539,.F.);
#542=ORIENTED_EDGE('',*,*,#541,.F.);
#543=EDGE_LOOP('',(#538,#540,#542));
#544=FACE_BOUND('',#543,.F.);
#546=CARTESIAN_POINT('',(1.263779527559E0,0.E0,0.E0));
#547=DIRECTION('',(0.E0,-1.E0,0.E0));
#548=DIRECTION('',(-1.E0,0.E0,0.E0));
#549=AXIS2_PLACEMENT_3D('',#546,#547,#548);
#550=PLANE('',#549);
#551=ORIENTED_EDGE('',*,*,#497,.F.);
#553=ORIENTED_EDGE('',*,*,#552,.F.);
#555=ORIENTED_EDGE('',*,*,#554,.F.);
#557=ORIENTED_EDGE('',*,*,#556,.T.);
#558=EDGE_LOOP('',(#551,#553,#555,#557));
#559=FACE_OUTER_BOUND('',#558,.F.);
#561=CARTESIAN_POINT('',(1.263779527559E0,1.263779527559E0,0.E0));
#562=DIRECTION('',(1.E0,0.E0,0.E0));
#563=DIRECTION('',(0.E0,-1.E0,0.E0));
#564=AXIS2_PLACEMENT_3D('',#561,#562,#563);
#565=PLANE('',#564);
#566=ORIENTED_EDGE('',*,*,#503,.F.);
#568=ORIENTED_EDGE('',*,*,#567,.F.);
#570=ORIENTED_EDGE('',*,*,#569,.F.);
#571=ORIENTED_EDGE('',*,*,#552,.T.);
#572=EDGE_LOOP('',(#566,#568,#570,#571));
#573=FACE_OUTER_BOUND('',#572,.F.);
#575=CARTESIAN_POINT('',(0.E0,1.263779527559E0,0.E0));
#576=DIRECTION('',(0.E0,1.E0,0.E0));
#577=DIRECTION('',(1.E0,0.E0,0.E0));
#578=AXIS2_PLACEMENT_3D('',#575,#576,#577);
#579=PLANE('',#578);
#580=ORIENTED_EDGE('',*,*,#501,.F.);
#582=ORIENTED_EDGE('',*,*,#581,.F.);
#584=ORIENTED_EDGE('',*,*,#583,.F.);
#585=ORIENTED_EDGE('',*,*,#567,.T.);
#586=EDGE_LOOP('',(#580,#582,#584,#585));
#587=FACE_OUTER_BOUND('',#586,.F.);
#589=CARTESIAN_POINT('',(0.E0,0.E0,0.E0));
#590=DIRECTION('',(-1.E0,0.E0,0.E0));
#591=DIRECTION('',(0.E0,1.E0,0.E0));
#592=AXIS2_PLACEMENT_3D('',#589,#590,#591);
#593=PLANE('',#592);
#594=ORIENTED_EDGE('',*,*,#499,.F.);
#595=ORIENTED_EDGE('',*,*,#556,.F.);
#597=ORIENTED_EDGE('',*,*,#596,.F.);
#598=ORIENTED_EDGE('',*,*,#581,.T.);
#599=EDGE_LOOP('',(#594,#595,#597,#598));
#600=FACE_OUTER_BOUND('',#599,.F.);
#602=CARTESIAN_POINT('',(6.318897637795E-1,6.318897637795E-1,
-6.299212598425E-2));
#603=DIRECTION('',(0.E0,0.E0,-1.E0));
#604=DIRECTION('',(-1.E0,0.E0,0.E0));
#605=AXIS2_PLACEMENT_3D('',#602,#603,#604);
#606=PLANE('',#605);
#607=ORIENTED_EDGE('',*,*,#596,.T.);
#608=ORIENTED_EDGE('',*,*,#554,.T.);
#609=ORIENTED_EDGE('',*,*,#569,.T.);
#610=ORIENTED_EDGE('',*,*,#583,.T.);
#611=EDGE_LOOP('',(#607,#608,#609,#610));
#612=FACE_OUTER_BOUND('',#611,.F.);
#613=ORIENTED_EDGE('',*,*,#487,.F.);
#614=ORIENTED_EDGE('',*,*,#469,.F.);
#615=EDGE_LOOP('',(#613,#614));
#616=FACE_BOUND('',#615,.F.);
#618=ORIENTED_EDGE('',*,*,#617,.F.);
#620=ORIENTED_EDGE('',*,*,#619,.F.);
#621=EDGE_LOOP('',(#618,#620));
#622=FACE_BOUND('',#621,.F.);
#624=ORIENTED_EDGE('',*,*,#623,.F.);
#626=ORIENTED_EDGE('',*,*,#625,.F.);
#627=EDGE_LOOP('',(#624,#626));
#628=FACE_BOUND('',#627,.F.);
#630=ORIENTED_EDGE('',*,*,#629,.F.);
#632=ORIENTED_EDGE('',*,*,#631,.F.);
#633=EDGE_LOOP('',(#630,#632));
#634=FACE_BOUND('',#633,.F.);
#636=ORIENTED_EDGE('',*,*,#635,.F.);
#638=ORIENTED_EDGE('',*,*,#637,.F.);
#639=EDGE_LOOP('',(#636,#638));
#640=FACE_BOUND('',#639,.F.);
#642=ORIENTED_EDGE('',*,*,#641,.F.);
#644=ORIENTED_EDGE('',*,*,#643,.F.);
#645=EDGE_LOOP('',(#642,#644));
#646=FACE_BOUND('',#645,.F.);
#648=CARTESIAN_POINT('',(2.578740157480E-1,6.318897637795E-1,
2.185039370079E-1));
#649=DIRECTION('',(0.E0,0.E0,-1.E0));
#650=DIRECTION('',(-1.E0,0.E0,0.E0));
#651=AXIS2_PLACEMENT_3D('',#648,#649,#650);
#652=CYLINDRICAL_SURFACE('',#651,2.952755905512E-2);
#654=ORIENTED_EDGE('',*,*,#653,.F.);
#655=ORIENTED_EDGE('',*,*,#513,.T.);
#657=ORIENTED_EDGE('',*,*,#656,.F.);
#658=ORIENTED_EDGE('',*,*,#617,.T.);
#659=EDGE_LOOP('',(#654,#655,#657,#658));
#660=FACE_OUTER_BOUND('',#659,.F.);
#662=CARTESIAN_POINT('',(2.578740157480E-1,6.318897637795E-1,
2.185039370079E-1));
#663=DIRECTION('',(0.E0,0.E0,-1.E0));
#664=DIRECTION('',(-1.E0,0.E0,0.E0));
#665=AXIS2_PLACEMENT_3D('',#662,#663,#664);
#666=CYLINDRICAL_SURFACE('',#665,2.952755905512E-2);
#667=ORIENTED_EDGE('',*,*,#653,.T.);
#668=ORIENTED_EDGE('',*,*,#619,.T.);
#669=ORIENTED_EDGE('',*,*,#656,.T.);
#670=ORIENTED_EDGE('',*,*,#511,.T.);
#671=EDGE_LOOP('',(#667,#668,#669,#670));
#672=FACE_OUTER_BOUND('',#671,.F.);
#674=CARTESIAN_POINT('',(1.165354330709E0,1.165354330709E0,0.E0));
#675=DIRECTION('',(0.E0,0.E0,-1.E0));
#676=DIRECTION('',(-1.E0,0.E0,0.E0));
#677=AXIS2_PLACEMENT_3D('',#674,#675,#676);
#678=CYLINDRICAL_SURFACE('',#677,4.921259842520E-2);
#680=ORIENTED_EDGE('',*,*,#679,.F.);
#681=ORIENTED_EDGE('',*,*,#517,.T.);
#683=ORIENTED_EDGE('',*,*,#682,.F.);
#684=ORIENTED_EDGE('',*,*,#623,.T.);
#685=EDGE_LOOP('',(#680,#681,#683,#684));
#686=FACE_OUTER_BOUND('',#685,.F.);
#688=CARTESIAN_POINT('',(1.165354330709E0,1.165354330709E0,0.E0));
#689=DIRECTION('',(0.E0,0.E0,-1.E0));
#690=DIRECTION('',(-1.E0,0.E0,0.E0));
#691=AXIS2_PLACEMENT_3D('',#688,#689,#690);
#692=CYLINDRICAL_SURFACE('',#691,4.921259842520E-2);
#693=ORIENTED_EDGE('',*,*,#679,.T.);
#694=ORIENTED_EDGE('',*,*,#625,.T.);
#695=ORIENTED_EDGE('',*,*,#682,.T.);
#696=ORIENTED_EDGE('',*,*,#519,.T.);
#697=EDGE_LOOP('',(#693,#694,#695,#696));
#698=FACE_OUTER_BOUND('',#697,.F.);
#700=CARTESIAN_POINT('',(1.165354330709E0,9.842519685039E-2,0.E0));
#701=DIRECTION('',(0.E0,0.E0,-1.E0));
#702=DIRECTION('',(-1.E0,0.E0,0.E0));
#703=AXIS2_PLACEMENT_3D('',#700,#701,#702);
#704=CYLINDRICAL_SURFACE('',#703,4.921259842520E-2);
#706=ORIENTED_EDGE('',*,*,#705,.F.);
#707=ORIENTED_EDGE('',*,*,#527,.T.);
#708=ORIENTED_EDGE('',*,*,#525,.T.);
#710=ORIENTED_EDGE('',*,*,#709,.F.);
#711=ORIENTED_EDGE('',*,*,#629,.T.);
#712=EDGE_LOOP('',(#706,#707,#708,#710,#711));
#713=FACE_OUTER_BOUND('',#712,.F.);
#715=CARTESIAN_POINT('',(1.165354330709E0,9.842519685039E-2,0.E0));
#716=DIRECTION('',(0.E0,0.E0,-1.E0));
#717=DIRECTION('',(-1.E0,0.E0,0.E0));
#718=AXIS2_PLACEMENT_3D('',#715,#716,#717);
#719=CYLINDRICAL_SURFACE('',#718,4.921259842520E-2);
#720=ORIENTED_EDGE('',*,*,#705,.T.);
#721=ORIENTED_EDGE('',*,*,#631,.T.);
#722=ORIENTED_EDGE('',*,*,#709,.T.);
#723=ORIENTED_EDGE('',*,*,#523,.T.);
#724=EDGE_LOOP('',(#720,#721,#722,#723));
#725=FACE_OUTER_BOUND('',#724,.F.);
#727=CARTESIAN_POINT('',(9.842519685039E-2,9.842519685039E-2,0.E0));
#728=DIRECTION('',(0.E0,0.E0,-1.E0));
#729=DIRECTION('',(-1.E0,0.E0,0.E0));
#730=AXIS2_PLACEMENT_3D('',#727,#728,#729);
#731=CYLINDRICAL_SURFACE('',#730,4.921259842520E-2);
#733=ORIENTED_EDGE('',*,*,#732,.F.);
#734=ORIENTED_EDGE('',*,*,#533,.T.);
#736=ORIENTED_EDGE('',*,*,#735,.F.);
#737=ORIENTED_EDGE('',*,*,#635,.T.);
#738=EDGE_LOOP('',(#733,#734,#736,#737));
#739=FACE_OUTER_BOUND('',#738,.F.);
#741=CARTESIAN_POINT('',(9.842519685039E-2,9.842519685039E-2,0.E0));
#742=DIRECTION('',(0.E0,0.E0,-1.E0));
#743=DIRECTION('',(-1.E0,0.E0,0.E0));
#744=AXIS2_PLACEMENT_3D('',#741,#742,#743);
#745=CYLINDRICAL_SURFACE('',#744,4.921259842520E-2);
#746=ORIENTED_EDGE('',*,*,#732,.T.);
#747=ORIENTED_EDGE('',*,*,#637,.T.);
#748=ORIENTED_EDGE('',*,*,#735,.T.);
#749=ORIENTED_EDGE('',*,*,#531,.T.);
#750=EDGE_LOOP('',(#746,#747,#748,#749));
#751=FACE_OUTER_BOUND('',#750,.F.);
#753=CARTESIAN_POINT('',(9.842519685039E-2,1.165354330709E0,0.E0));
#754=DIRECTION('',(0.E0,0.E0,-1.E0));
#755=DIRECTION('',(-1.E0,0.E0,0.E0));
#756=AXIS2_PLACEMENT_3D('',#753,#754,#755);
#757=CYLINDRICAL_SURFACE('',#756,4.921259842520E-2);
#759=ORIENTED_EDGE('',*,*,#758,.F.);
#760=ORIENTED_EDGE('',*,*,#541,.T.);
#762=ORIENTED_EDGE('',*,*,#761,.F.);
#763=ORIENTED_EDGE('',*,*,#641,.T.);
#764=EDGE_LOOP('',(#759,#760,#762,#763));
#765=FACE_OUTER_BOUND('',#764,.F.);
#767=CARTESIAN_POINT('',(9.842519685039E-2,1.165354330709E0,0.E0));
#768=DIRECTION('',(0.E0,0.E0,-1.E0));
#769=DIRECTION('',(-1.E0,0.E0,0.E0));
#770=AXIS2_PLACEMENT_3D('',#767,#768,#769);
#771=CYLINDRICAL_SURFACE('',#770,4.921259842520E-2);
#772=ORIENTED_EDGE('',*,*,#758,.T.);
#773=ORIENTED_EDGE('',*,*,#643,.T.);
#774=ORIENTED_EDGE('',*,*,#761,.T.);
#775=ORIENTED_EDGE('',*,*,#539,.T.);
#776=ORIENTED_EDGE('',*,*,#537,.T.);
#777=EDGE_LOOP('',(#772,#773,#774,#775,#776));
#778=FACE_OUTER_BOUND('',#777,.F.);
#782=FILL_AREA_STYLE_COLOUR('',#1);
#783=FILL_AREA_STYLE('',(#782));
#784=SURFACE_STYLE_FILL_AREA(#783);
#785=SURFACE_SIDE_STYLE('',(#784));
#786=SURFACE_STYLE_USAGE(.BOTH.,#785);
#787=PRESENTATION_STYLE_ASSIGNMENT((#786));
#16=STYLED_ITEM('',(#787),#781);
#789=LENGTH_MEASURE_WITH_UNIT(LENGTH_MEASURE(2.54E1),#788);
#790=(CONVERSION_BASED_UNIT('INCH',#789)LENGTH_UNIT()NAMED_UNIT(*));
#792=PLANE_ANGLE_MEASURE_WITH_UNIT(PLANE_ANGLE_MEASURE(1.745329251994E-2),#791);
#793=(CONVERSION_BASED_UNIT('DEGREE',#792)NAMED_UNIT(*)PLANE_ANGLE_UNIT());
#795=UNCERTAINTY_MEASURE_WITH_UNIT(LENGTH_MEASURE(1.788292353609E-4),#790,
'closure',
'Maximum model space distance between geometric entities at asserted connectivities');
#797=CARTESIAN_POINT('',(0.E0,0.E0,0.E0));
#798=DIRECTION('',(0.E0,0.E0,1.E0));
#799=DIRECTION('',(1.E0,0.E0,0.E0));
#802=MECHANICAL_DESIGN_GEOMETRIC_PRESENTATION_REPRESENTATION('',(#24,#31,#39,
#47,#55,#63,#71,#79,#87,#95,#103,#111,#119,#127,#135,#143,#150,#157,#164,#171,
#178,#185,#192,#199,#206,#213,#220,#227,#235,#243,#251,#259,#267,#275,#283,#291,
#299,#307,#315,#323,#330,#337,#344,#351,#358,#365,#372,#379,#386,#393,#16),
#796);
#803=APPLICATION_CONTEXT('automotive design');
#804=APPLICATION_PROTOCOL_DEFINITION('international standard',
'config_control_design',1994,#803);
#805=PRODUCT_DEFINITION_CONTEXT('',#803,'design');
#806=PRODUCT_CONTEXT('',#803,'mechanical');
#807=PRODUCT('PCB_1_2','PCB_1_2','NOT SPECIFIED',(#806));
#808=PRODUCT_DEFINITION_FORMATION_WITH_SPECIFIED_SOURCE('1','LAST_VERSION',#807,
.MADE.);
#816=LENGTH_MEASURE_WITH_UNIT(LENGTH_MEASURE(2.54E1),#815);
#817=(CONVERSION_BASED_UNIT('INCH',#816)LENGTH_UNIT()NAMED_UNIT(*));
#818=DERIVED_UNIT_ELEMENT(#817,2.E0);
#819=AREA_UNIT((#818));
#820=MEASURE_REPRESENTATION_ITEM('surface area measure',AREA_MEASURE(
2.285266635573E3),#819);
#825=LENGTH_MEASURE_WITH_UNIT(LENGTH_MEASURE(2.54E1),#824);
#826=(CONVERSION_BASED_UNIT('INCH',#825)LENGTH_UNIT()NAMED_UNIT(*));
#827=DERIVED_UNIT_ELEMENT(#826,3.E0);
#828=VOLUME_UNIT((#827));
#829=MEASURE_REPRESENTATION_ITEM('volume measure',VOLUME_MEASURE(
1.611585143026E3),#828);
#833=CARTESIAN_POINT('centre point',(1.604999999997E1,1.605E1,
-7.999999999997E-1));
#838=LENGTH_MEASURE_WITH_UNIT(LENGTH_MEASURE(2.54E1),#837);
#839=(CONVERSION_BASED_UNIT('INCH',#838)LENGTH_UNIT()NAMED_UNIT(*));
#840=DERIVED_UNIT_ELEMENT(#839,2.E0);
#841=AREA_UNIT((#840));
#842=MEASURE_REPRESENTATION_ITEM('surface area measure',AREA_MEASURE(
2.285266635573E3),#841);
#847=LENGTH_MEASURE_WITH_UNIT(LENGTH_MEASURE(2.54E1),#846);
#848=(CONVERSION_BASED_UNIT('INCH',#847)LENGTH_UNIT()NAMED_UNIT(*));
#849=DERIVED_UNIT_ELEMENT(#848,3.E0);
#850=VOLUME_UNIT((#849));
#851=MEASURE_REPRESENTATION_ITEM('volume measure',VOLUME_MEASURE(
1.611585143026E3),#850);
#855=CARTESIAN_POINT('centre point',(1.604999999997E1,1.605E1,
-7.999999999997E-1));
#1=COLOUR_RGB('',0.E0,6.666666666667E-1,0.E0);
#2=DRAUGHTING_PRE_DEFINED_COLOUR('green');
#3=COLOUR_RGB('',1.1E-2,1.2E-2,1.E0);
#4=COLOUR_RGB('',2.352941176471E-1,2.352941176471E-1,2.352941176471E-1);
#5=COLOUR_RGB('',4.1E-1,2.61589E-1,1.12848E-1);
#6=COLOUR_RGB('',5.04854E-1,1.5455E-2,1.5455E-2);
#7=COLOUR_RGB('',6.35294E-1,6.86275E-1,7.4902E-1);
#8=COLOUR_RGB('',6.40777E-1,6.40777E-1,6.40777E-1);
#9=COLOUR_RGB('',6.69062E-1,6.69903E-1,6.55217E-1);
#10=COLOUR_RGB('',9.21569E-1,7.05882E-1,4.70588E-1);
#11=DRAUGHTING_PRE_DEFINED_COLOUR('red');
#12=DRAUGHTING_PRE_DEFINED_COLOUR('yellow');
#13=COLOUR_RGB('',1.E0,1.E0,5.3E-1);
#14=COLOUR_RGB('',1.E0,1.E0,9.49E-1);
#15=DRAUGHTING_PRE_DEFINED_COLOUR('white');
#36=CIRCLE('',#35,2.952755905512E-2);
#44=CIRCLE('',#43,2.952755905512E-2);
#52=CIRCLE('',#51,2.952755905512E-2);
#60=CIRCLE('',#59,2.952755905512E-2);
#68=CIRCLE('',#67,4.921259842520E-2);
#76=CIRCLE('',#75,4.921259842520E-2);
#84=CIRCLE('',#83,4.921259842520E-2);
#92=CIRCLE('',#91,4.921259842520E-2);
#100=CIRCLE('',#99,4.921259842520E-2);
#108=CIRCLE('',#107,4.921259842520E-2);
#116=CIRCLE('',#115,4.921259842520E-2);
#124=CIRCLE('',#123,4.921259842520E-2);
#132=CIRCLE('',#131,4.921259842520E-2);
#140=CIRCLE('',#139,4.921259842520E-2);
#232=CIRCLE('',#231,2.952755905512E-2);
#240=CIRCLE('',#239,2.952755905512E-2);
#248=CIRCLE('',#247,2.952755905512E-2);
#256=CIRCLE('',#255,2.952755905512E-2);
#264=CIRCLE('',#263,4.921259842520E-2);
#272=CIRCLE('',#271,4.921259842520E-2);
#280=CIRCLE('',#279,4.921259842520E-2);
#288=CIRCLE('',#287,4.921259842520E-2);
#296=CIRCLE('',#295,4.921259842520E-2);
#304=CIRCLE('',#303,4.921259842520E-2);
#312=CIRCLE('',#311,4.921259842520E-2);
#320=CIRCLE('',#319,4.921259842520E-2);
#467=EDGE_CURVE('',#420,#421,#20,.T.);
#469=EDGE_CURVE('',#421,#425,#240,.T.);
#471=EDGE_CURVE('',#425,#423,#28,.T.);
#473=EDGE_CURVE('',#423,#420,#36,.T.);
#477=ADVANCED_FACE('',(#476),#466,.F.);
#484=EDGE_CURVE('',#420,#423,#44,.T.);
#487=EDGE_CURVE('',#425,#421,#232,.T.);
#491=ADVANCED_FACE('',(#490),#482,.F.);
#497=EDGE_CURVE('',#417,#412,#147,.T.);
#499=EDGE_CURVE('',#412,#413,#210,.T.);
#501=EDGE_CURVE('',#413,#415,#189,.T.);
#503=EDGE_CURVE('',#415,#417,#168,.T.);
#511=EDGE_CURVE('',#431,#428,#52,.T.);
#513=EDGE_CURVE('',#428,#431,#60,.T.);
#517=EDGE_CURVE('',#436,#439,#68,.T.);
#519=EDGE_CURVE('',#439,#436,#76,.T.);
#523=EDGE_CURVE('',#397,#444,#84,.T.);
#525=EDGE_CURVE('',#396,#397,#92,.T.);
#527=EDGE_CURVE('',#444,#396,#100,.T.);
#531=EDGE_CURVE('',#453,#450,#108,.T.);
#533=EDGE_CURVE('',#450,#453,#116,.T.);
#537=EDGE_CURVE('',#401,#458,#124,.T.);
#539=EDGE_CURVE('',#400,#401,#132,.T.);
#541=EDGE_CURVE('',#458,#400,#140,.T.);
#545=ADVANCED_FACE('',(#506,#510,#516,#522,#530,#536,#544),#496,.T.);
#552=EDGE_CURVE('',#409,#417,#154,.T.);
#554=EDGE_CURVE('',#405,#409,#161,.T.);
#556=EDGE_CURVE('',#405,#412,#217,.T.);
#560=ADVANCED_FACE('',(#559),#550,.T.);
#567=EDGE_CURVE('',#407,#415,#175,.T.);
#569=EDGE_CURVE('',#409,#407,#182,.T.);
#574=ADVANCED_FACE('',(#573),#565,.T.);
#581=EDGE_CURVE('',#404,#413,#196,.T.);
#583=EDGE_CURVE('',#407,#404,#203,.T.);
#588=ADVANCED_FACE('',(#587),#579,.T.);
#596=EDGE_CURVE('',#404,#405,#224,.T.);
#601=ADVANCED_FACE('',(#600),#593,.T.);
#617=EDGE_CURVE('',#433,#429,#248,.T.);
#619=EDGE_CURVE('',#429,#433,#256,.T.);
#623=EDGE_CURVE('',#441,#437,#264,.T.);
#625=EDGE_CURVE('',#437,#441,#272,.T.);
#629=EDGE_CURVE('',#447,#445,#280,.T.);
#631=EDGE_CURVE('',#445,#447,#288,.T.);
#635=EDGE_CURVE('',#455,#451,#296,.T.);
#637=EDGE_CURVE('',#451,#455,#304,.T.);
#641=EDGE_CURVE('',#461,#459,#312,.T.);
#643=EDGE_CURVE('',#459,#461,#320,.T.);
#647=ADVANCED_FACE('',(#612,#616,#622,#628,#634,#640,#646),#606,.T.);
#653=EDGE_CURVE('',#428,#429,#327,.T.);
#656=EDGE_CURVE('',#433,#431,#334,.T.);
#661=ADVANCED_FACE('',(#660),#652,.F.);
#673=ADVANCED_FACE('',(#672),#666,.F.);
#679=EDGE_CURVE('',#436,#437,#341,.T.);
#682=EDGE_CURVE('',#441,#439,#348,.T.);
#687=ADVANCED_FACE('',(#686),#678,.F.);
#699=ADVANCED_FACE('',(#698),#692,.F.);
#705=EDGE_CURVE('',#444,#445,#355,.T.);
#709=EDGE_CURVE('',#447,#397,#362,.T.);
#714=ADVANCED_FACE('',(#713),#704,.F.);
#726=ADVANCED_FACE('',(#725),#719,.F.);
#732=EDGE_CURVE('',#450,#451,#369,.T.);
#735=EDGE_CURVE('',#455,#453,#376,.T.);
#740=ADVANCED_FACE('',(#739),#731,.F.);
#752=ADVANCED_FACE('',(#751),#745,.F.);
#758=EDGE_CURVE('',#458,#459,#383,.T.);
#761=EDGE_CURVE('',#461,#400,#390,.T.);
#766=ADVANCED_FACE('',(#765),#757,.F.);
#779=ADVANCED_FACE('',(#778),#771,.F.);
#780=CLOSED_SHELL('',(#477,#491,#545,#560,#574,#588,#601,#647,#661,#673,#687,
#699,#714,#726,#740,#752,#766,#779));
#781=MANIFOLD_SOLID_BREP('',#780);
#788=(LENGTH_UNIT()NAMED_UNIT(*)SI_UNIT(.MILLI.,.METRE.));
#791=(NAMED_UNIT(*)PLANE_ANGLE_UNIT()SI_UNIT($,.RADIAN.));
#794=(NAMED_UNIT(*)SI_UNIT($,.STERADIAN.)SOLID_ANGLE_UNIT());
#796=(GEOMETRIC_REPRESENTATION_CONTEXT(3)GLOBAL_UNCERTAINTY_ASSIGNED_CONTEXT((
#795))GLOBAL_UNIT_ASSIGNED_CONTEXT((#790,#793,#794))REPRESENTATION_CONTEXT
('ID1','3'));
#800=AXIS2_PLACEMENT_3D('',#797,#798,#799);
#801=ADVANCED_BREP_SHAPE_REPRESENTATION('',(#800,#781),#796);
#809=PRODUCT_DEFINITION('design','',#808,#805);
#810=PRODUCT_DEFINITION_SHAPE('','SHAPE FOR PCB_1_2.',#809);
#811=SHAPE_ASPECT('','solid data associated with PCB_1_2',#810,.F.);
#812=PROPERTY_DEFINITION('',
'shape for solid data with which properties are associated',#811);
#813=SHAPE_REPRESENTATION('',(#781),#796);
#814=SHAPE_DEFINITION_REPRESENTATION(#812,#813);
#815=(LENGTH_UNIT()NAMED_UNIT(*)SI_UNIT(.MILLI.,.METRE.));
#821=PROPERTY_DEFINITION('geometric validation property','area of PCB_1_2',
#811);
#822=REPRESENTATION('surface area',(#820),#796);
#823=PROPERTY_DEFINITION_REPRESENTATION(#821,#822);
#824=(LENGTH_UNIT()NAMED_UNIT(*)SI_UNIT(.MILLI.,.METRE.));
#830=PROPERTY_DEFINITION('geometric validation property','volume of PCB_1_2',
#811);
#831=REPRESENTATION('volume',(#829),#796);
#832=PROPERTY_DEFINITION_REPRESENTATION(#830,#831);
#834=PROPERTY_DEFINITION('geometric validation property','centroid of PCB_1_2',
#811);
#835=REPRESENTATION('centroid',(#833),#796);
#836=PROPERTY_DEFINITION_REPRESENTATION(#834,#835);
#837=(LENGTH_UNIT()NAMED_UNIT(*)SI_UNIT(.MILLI.,.METRE.));
#843=PROPERTY_DEFINITION('geometric validation property','area of PCB_1_2',
#810);
#844=REPRESENTATION('surface area',(#842),#796);
#845=PROPERTY_DEFINITION_REPRESENTATION(#843,#844);
#846=(LENGTH_UNIT()NAMED_UNIT(*)SI_UNIT(.MILLI.,.METRE.));
#852=PROPERTY_DEFINITION('geometric validation property','volume of PCB_1_2',
#810);
#853=REPRESENTATION('volume',(#851),#796);
#854=PROPERTY_DEFINITION_REPRESENTATION(#852,#853);
#856=PROPERTY_DEFINITION('geometric validation property','centroid of PCB_1_2',
#810);
#857=REPRESENTATION('centroid',(#855),#796);
#858=PROPERTY_DEFINITION_REPRESENTATION(#856,#857);
#859=SHAPE_DEFINITION_REPRESENTATION(#810,#801);
ENDSEC;
END-ISO-10303-21;
