ISO-10303-21;
HEADER;
FILE_DESCRIPTION((''),'2;1');
FILE_NAME('PCB_12','2026-06-15T13:45:15',('Esia'),(''),
'CREO PARAMETRIC BY PTC INC, 2025102','CREO PARAMETRIC BY PTC INC, 2025102','');
FILE_SCHEMA((
'AP242_MANAGED_MODEL_BASED_3D_ENGINEERING_MIM_LF { 1 0 10303 442 1 1 4 }'));
ENDSEC;
DATA;
#15=DIRECTION('',(1.E0,0.E0,0.E0));
#16=VECTOR('',#15,5.905511811024E-2);
#17=CARTESIAN_POINT('',(-3.838582729965E-1,-2.460629950593E-1,
-5.905511811024E-2));
#18=LINE('',#17,#16);
#19=DIRECTION('',(0.E0,1.E0,0.E0));
#20=VECTOR('',#19,5.905511811024E-2);
#21=CARTESIAN_POINT('',(-3.838582729965E-1,-3.051181131695E-1,
-5.905511811024E-2));
#22=LINE('',#21,#20);
#23=DIRECTION('',(-1.E0,0.E0,0.E0));
#24=VECTOR('',#23,5.905511811024E-2);
#25=CARTESIAN_POINT('',(-3.248031548862E-1,-3.051181131695E-1,
-5.905511811024E-2));
#26=LINE('',#25,#24);
#27=DIRECTION('',(0.E0,-1.E0,0.E0));
#28=VECTOR('',#27,5.905511811024E-2);
#29=CARTESIAN_POINT('',(-3.248031548862E-1,-2.460629950593E-1,
-5.905511811024E-2));
#30=LINE('',#29,#28);
#31=CARTESIAN_POINT('',(-3.543307139414E-1,-2.755905541144E-1,
-5.905511811024E-2));
#32=DIRECTION('',(0.E0,0.E0,1.E0));
#33=DIRECTION('',(1.E0,1.697056957184E-8,0.E0));
#34=AXIS2_PLACEMENT_3D('',#31,#32,#33);
#36=CARTESIAN_POINT('',(-3.543307139414E-1,-2.755905541144E-1,
-5.905511811024E-2));
#37=DIRECTION('',(0.E0,0.E0,1.E0));
#38=DIRECTION('',(-1.E0,0.E0,0.E0));
#39=AXIS2_PLACEMENT_3D('',#36,#37,#38);
#41=DIRECTION('',(0.E0,0.E0,-1.E0));
#42=VECTOR('',#41,5.905511811024E-2);
#43=CARTESIAN_POINT('',(-3.248031548862E-1,-2.460629950593E-1,0.E0));
#44=LINE('',#43,#42);
#45=DIRECTION('',(0.E0,0.E0,-1.E0));
#46=VECTOR('',#45,5.905511811024E-2);
#47=CARTESIAN_POINT('',(-3.248031548862E-1,-3.051181131695E-1,0.E0));
#48=LINE('',#47,#46);
#49=DIRECTION('',(0.E0,1.E0,0.E0));
#50=VECTOR('',#49,5.905511811024E-2);
#51=CARTESIAN_POINT('',(-3.248031548862E-1,-3.051181131695E-1,0.E0));
#52=LINE('',#51,#50);
#53=DIRECTION('',(1.E0,0.E0,0.E0));
#54=VECTOR('',#53,5.905511811024E-2);
#55=CARTESIAN_POINT('',(-3.838582729965E-1,-3.051181131695E-1,0.E0));
#56=LINE('',#55,#54);
#57=DIRECTION('',(0.E0,-1.E0,0.E0));
#58=VECTOR('',#57,5.905511811024E-2);
#59=CARTESIAN_POINT('',(-3.838582729965E-1,-2.460629950593E-1,0.E0));
#60=LINE('',#59,#58);
#61=DIRECTION('',(-1.E0,0.E0,0.E0));
#62=VECTOR('',#61,5.905511811024E-2);
#63=CARTESIAN_POINT('',(-3.248031548862E-1,-2.460629950593E-1,0.E0));
#64=LINE('',#63,#62);
#65=CARTESIAN_POINT('',(-3.543307139414E-1,-2.755905541144E-1,0.E0));
#66=DIRECTION('',(0.E0,0.E0,-1.E0));
#67=DIRECTION('',(1.E0,0.E0,0.E0));
#68=AXIS2_PLACEMENT_3D('',#65,#66,#67);
#70=CARTESIAN_POINT('',(-3.543307139414E-1,-2.755905541144E-1,0.E0));
#71=DIRECTION('',(0.E0,0.E0,-1.E0));
#72=DIRECTION('',(-1.E0,0.E0,0.E0));
#73=AXIS2_PLACEMENT_3D('',#70,#71,#72);
#75=DIRECTION('',(0.E0,0.E0,-1.E0));
#76=VECTOR('',#75,5.905511811024E-2);
#77=CARTESIAN_POINT('',(-3.838582729965E-1,-2.460629950593E-1,0.E0));
#78=LINE('',#77,#76);
#79=DIRECTION('',(0.E0,0.E0,1.E0));
#80=VECTOR('',#79,5.905511811024E-2);
#81=CARTESIAN_POINT('',(-3.838582729965E-1,-3.051181131695E-1,
-5.905511811024E-2));
#82=LINE('',#81,#80);
#83=DIRECTION('',(0.E0,1.885617587997E-9,-1.E0));
#84=VECTOR('',#83,5.905511811024E-2);
#85=CARTESIAN_POINT('',(-3.346456745713E-1,-2.755905541144E-1,0.E0));
#86=LINE('',#85,#84);
#87=DIRECTION('',(0.E0,0.E0,1.E0));
#88=VECTOR('',#87,5.905511811024E-2);
#89=CARTESIAN_POINT('',(-3.740157533114E-1,-2.755905541144E-1,
-5.905511811024E-2));
#90=LINE('',#89,#88);
#91=CARTESIAN_POINT('',(-3.248031548862E-1,-3.051181131695E-1,
-5.905511811024E-2));
#92=CARTESIAN_POINT('',(-3.838582729965E-1,-3.051181131695E-1,
-5.905511811024E-2));
#93=VERTEX_POINT('',#91);
#94=VERTEX_POINT('',#92);
#95=CARTESIAN_POINT('',(-3.248031548862E-1,-3.051181131695E-1,0.E0));
#96=VERTEX_POINT('',#95);
#97=CARTESIAN_POINT('',(-3.838582729965E-1,-3.051181131695E-1,0.E0));
#98=VERTEX_POINT('',#97);
#99=CARTESIAN_POINT('',(-3.248031548862E-1,-2.460629950593E-1,
-5.905511811024E-2));
#100=VERTEX_POINT('',#99);
#101=CARTESIAN_POINT('',(-3.248031548862E-1,-2.460629950593E-1,0.E0));
#102=VERTEX_POINT('',#101);
#103=CARTESIAN_POINT('',(-3.838582729965E-1,-2.460629950593E-1,
-5.905511811024E-2));
#104=VERTEX_POINT('',#103);
#105=CARTESIAN_POINT('',(-3.838582729965E-1,-2.460629950593E-1,0.E0));
#106=VERTEX_POINT('',#105);
#107=CARTESIAN_POINT('',(-3.346456745713E-1,-2.755905541144E-1,0.E0));
#108=CARTESIAN_POINT('',(-3.346456745713E-1,-2.755905540030E-1,
-5.905511811024E-2));
#109=VERTEX_POINT('',#107);
#110=VERTEX_POINT('',#108);
#111=CARTESIAN_POINT('',(-3.740157533114E-1,-2.755905541144E-1,
-5.905511811024E-2));
#112=VERTEX_POINT('',#111);
#113=CARTESIAN_POINT('',(-3.740157533114E-1,-2.755905541144E-1,0.E0));
#114=VERTEX_POINT('',#113);
#115=CARTESIAN_POINT('',(-3.543307139414E-1,-3.051181131695E-1,
-2.952755905512E-2));
#116=DIRECTION('',(0.E0,1.E0,0.E0));
#117=DIRECTION('',(-1.E0,0.E0,0.E0));
#118=AXIS2_PLACEMENT_3D('',#115,#116,#117);
#119=PLANE('',#118);
#121=ORIENTED_EDGE('',*,*,#120,.T.);
#123=ORIENTED_EDGE('',*,*,#122,.T.);
#125=ORIENTED_EDGE('',*,*,#124,.T.);
#127=ORIENTED_EDGE('',*,*,#126,.T.);
#128=EDGE_LOOP('',(#121,#123,#125,#127));
#129=FACE_OUTER_BOUND('',#128,.F.);
#131=FILL_AREA_STYLE_COLOUR('',#9);
#132=FILL_AREA_STYLE('',(#131));
#133=SURFACE_STYLE_FILL_AREA(#132);
#134=SURFACE_SIDE_STYLE('',(#133));
#135=SURFACE_STYLE_USAGE(.BOTH.,#134);
#136=PRESENTATION_STYLE_ASSIGNMENT((#135));
#137=STYLED_ITEM('',(#136),#130);
#138=CARTESIAN_POINT('',(-3.543307139414E-1,-2.755905541144E-1,
-5.905511811024E-2));
#139=DIRECTION('',(0.E0,0.E0,1.E0));
#140=DIRECTION('',(-1.E0,0.E0,0.E0));
#141=AXIS2_PLACEMENT_3D('',#138,#139,#140);
#142=PLANE('',#141);
#144=ORIENTED_EDGE('',*,*,#143,.F.);
#146=ORIENTED_EDGE('',*,*,#145,.F.);
#147=ORIENTED_EDGE('',*,*,#120,.F.);
#149=ORIENTED_EDGE('',*,*,#148,.F.);
#150=EDGE_LOOP('',(#144,#146,#147,#149));
#151=FACE_OUTER_BOUND('',#150,.F.);
#153=ORIENTED_EDGE('',*,*,#152,.F.);
#155=ORIENTED_EDGE('',*,*,#154,.F.);
#156=EDGE_LOOP('',(#153,#155));
#157=FACE_BOUND('',#156,.F.);
#159=FILL_AREA_STYLE_COLOUR('',#9);
#160=FILL_AREA_STYLE('',(#159));
#161=SURFACE_STYLE_FILL_AREA(#160);
#162=SURFACE_SIDE_STYLE('',(#161));
#163=SURFACE_STYLE_USAGE(.BOTH.,#162);
#164=PRESENTATION_STYLE_ASSIGNMENT((#163));
#165=STYLED_ITEM('',(#164),#158);
#166=CARTESIAN_POINT('',(-3.543307139414E-1,-2.460629950593E-1,
-2.952755905512E-2));
#167=DIRECTION('',(0.E0,1.E0,0.E0));
#168=DIRECTION('',(1.E0,0.E0,0.E0));
#169=AXIS2_PLACEMENT_3D('',#166,#167,#168);
#170=PLANE('',#169);
#171=ORIENTED_EDGE('',*,*,#143,.T.);
#173=ORIENTED_EDGE('',*,*,#172,.F.);
#175=ORIENTED_EDGE('',*,*,#174,.T.);
#177=ORIENTED_EDGE('',*,*,#176,.T.);
#178=EDGE_LOOP('',(#171,#173,#175,#177));
#179=FACE_OUTER_BOUND('',#178,.F.);
#181=FILL_AREA_STYLE_COLOUR('',#9);
#182=FILL_AREA_STYLE('',(#181));
#183=SURFACE_STYLE_FILL_AREA(#182);
#184=SURFACE_SIDE_STYLE('',(#183));
#185=SURFACE_STYLE_USAGE(.BOTH.,#184);
#186=PRESENTATION_STYLE_ASSIGNMENT((#185));
#187=STYLED_ITEM('',(#186),#180);
#188=CARTESIAN_POINT('',(-3.248031548862E-1,-2.755905541144E-1,
-2.952755905512E-2));
#189=DIRECTION('',(1.E0,0.E0,0.E0));
#190=DIRECTION('',(0.E0,-1.E0,0.E0));
#191=AXIS2_PLACEMENT_3D('',#188,#189,#190);
#192=PLANE('',#191);
#193=ORIENTED_EDGE('',*,*,#148,.T.);
#194=ORIENTED_EDGE('',*,*,#126,.F.);
#196=ORIENTED_EDGE('',*,*,#195,.T.);
#197=ORIENTED_EDGE('',*,*,#172,.T.);
#198=EDGE_LOOP('',(#193,#194,#196,#197));
#199=FACE_OUTER_BOUND('',#198,.F.);
#201=FILL_AREA_STYLE_COLOUR('',#9);
#202=FILL_AREA_STYLE('',(#201));
#203=SURFACE_STYLE_FILL_AREA(#202);
#204=SURFACE_SIDE_STYLE('',(#203));
#205=SURFACE_STYLE_USAGE(.BOTH.,#204);
#206=PRESENTATION_STYLE_ASSIGNMENT((#205));
#207=STYLED_ITEM('',(#206),#200);
#208=CARTESIAN_POINT('',(-3.543307139414E-1,-2.755905541144E-1,0.E0));
#209=DIRECTION('',(0.E0,0.E0,1.E0));
#210=DIRECTION('',(1.E0,0.E0,0.E0));
#211=AXIS2_PLACEMENT_3D('',#208,#209,#210);
#212=PLANE('',#211);
#213=ORIENTED_EDGE('',*,*,#195,.F.);
#214=ORIENTED_EDGE('',*,*,#124,.F.);
#216=ORIENTED_EDGE('',*,*,#215,.F.);
#217=ORIENTED_EDGE('',*,*,#174,.F.);
#218=EDGE_LOOP('',(#213,#214,#216,#217));
#219=FACE_OUTER_BOUND('',#218,.F.);
#221=ORIENTED_EDGE('',*,*,#220,.F.);
#223=ORIENTED_EDGE('',*,*,#222,.F.);
#224=EDGE_LOOP('',(#221,#223));
#225=FACE_BOUND('',#224,.F.);
#227=FILL_AREA_STYLE_COLOUR('',#9);
#228=FILL_AREA_STYLE('',(#227));
#229=SURFACE_STYLE_FILL_AREA(#228);
#230=SURFACE_SIDE_STYLE('',(#229));
#231=SURFACE_STYLE_USAGE(.BOTH.,#230);
#232=PRESENTATION_STYLE_ASSIGNMENT((#231));
#233=STYLED_ITEM('',(#232),#226);
#234=CARTESIAN_POINT('',(-3.838582729965E-1,-2.755905541144E-1,
-2.952755905512E-2));
#235=DIRECTION('',(1.E0,0.E0,0.E0));
#236=DIRECTION('',(0.E0,1.E0,0.E0));
#237=AXIS2_PLACEMENT_3D('',#234,#235,#236);
#238=PLANE('',#237);
#239=ORIENTED_EDGE('',*,*,#145,.T.);
#240=ORIENTED_EDGE('',*,*,#176,.F.);
#241=ORIENTED_EDGE('',*,*,#215,.T.);
#242=ORIENTED_EDGE('',*,*,#122,.F.);
#243=EDGE_LOOP('',(#239,#240,#241,#242));
#244=FACE_OUTER_BOUND('',#243,.F.);
#246=FILL_AREA_STYLE_COLOUR('',#9);
#247=FILL_AREA_STYLE('',(#246));
#248=SURFACE_STYLE_FILL_AREA(#247);
#249=SURFACE_SIDE_STYLE('',(#248));
#250=SURFACE_STYLE_USAGE(.BOTH.,#249);
#251=PRESENTATION_STYLE_ASSIGNMENT((#250));
#252=STYLED_ITEM('',(#251),#245);
#253=CARTESIAN_POINT('',(-3.543307139414E-1,-2.755905541144E-1,
-2.952755905512E-2));
#254=DIRECTION('',(0.E0,0.E0,-1.E0));
#255=DIRECTION('',(1.E0,0.E0,0.E0));
#256=AXIS2_PLACEMENT_3D('',#253,#254,#255);
#257=CYLINDRICAL_SURFACE('',#256,1.968503937008E-2);
#259=ORIENTED_EDGE('',*,*,#258,.F.);
#260=ORIENTED_EDGE('',*,*,#220,.T.);
#262=ORIENTED_EDGE('',*,*,#261,.F.);
#263=ORIENTED_EDGE('',*,*,#154,.T.);
#264=EDGE_LOOP('',(#259,#260,#262,#263));
#265=FACE_OUTER_BOUND('',#264,.F.);
#267=FILL_AREA_STYLE_COLOUR('',#9);
#268=FILL_AREA_STYLE('',(#267));
#269=SURFACE_STYLE_FILL_AREA(#268);
#270=SURFACE_SIDE_STYLE('',(#269));
#271=SURFACE_STYLE_USAGE(.BOTH.,#270);
#272=PRESENTATION_STYLE_ASSIGNMENT((#271));
#273=STYLED_ITEM('',(#272),#266);
#274=CARTESIAN_POINT('',(-3.543307139414E-1,-2.755905541144E-1,
-2.952755905512E-2));
#275=DIRECTION('',(0.E0,0.E0,-1.E0));
#276=DIRECTION('',(-1.E0,0.E0,0.E0));
#277=AXIS2_PLACEMENT_3D('',#274,#275,#276);
#278=CYLINDRICAL_SURFACE('',#277,1.968503937008E-2);
#279=ORIENTED_EDGE('',*,*,#258,.T.);
#280=ORIENTED_EDGE('',*,*,#152,.T.);
#281=ORIENTED_EDGE('',*,*,#261,.T.);
#282=ORIENTED_EDGE('',*,*,#222,.T.);
#283=EDGE_LOOP('',(#279,#280,#281,#282));
#284=FACE_OUTER_BOUND('',#283,.F.);
#286=FILL_AREA_STYLE_COLOUR('',#9);
#287=FILL_AREA_STYLE('',(#286));
#288=SURFACE_STYLE_FILL_AREA(#287);
#289=SURFACE_SIDE_STYLE('',(#288));
#290=SURFACE_STYLE_USAGE(.BOTH.,#289);
#291=PRESENTATION_STYLE_ASSIGNMENT((#290));
#292=STYLED_ITEM('',(#291),#285);
#296=LENGTH_MEASURE_WITH_UNIT(LENGTH_MEASURE(2.54E1),#295);
#297=(CONVERSION_BASED_UNIT('INCH',#296)LENGTH_UNIT()NAMED_UNIT(*));
#299=PLANE_ANGLE_MEASURE_WITH_UNIT(PLANE_ANGLE_MEASURE(1.745329251994E-2),#298);
#300=(CONVERSION_BASED_UNIT('DEGREE',#299)NAMED_UNIT(*)PLANE_ANGLE_UNIT());
#302=UNCERTAINTY_MEASURE_WITH_UNIT(LENGTH_MEASURE(1.022823735553E-5),#297,
'closure',
'Maximum model space distance between geometric entities at asserted connectivities');
#304=CARTESIAN_POINT('',(0.E0,0.E0,0.E0));
#305=DIRECTION('',(0.E0,0.E0,1.E0));
#306=DIRECTION('',(1.E0,0.E0,0.E0));
#309=MECHANICAL_DESIGN_GEOMETRIC_PRESENTATION_REPRESENTATION('',(#137,#165,#187,
#207,#233,#252,#273,#292),#303);
#310=APPLICATION_CONTEXT('automotive design');
#311=APPLICATION_PROTOCOL_DEFINITION('international standard',
'config_control_design',1994,#310);
#312=PRODUCT_DEFINITION_CONTEXT('',#310,'design');
#313=PRODUCT_CONTEXT('',#310,'mechanical');
#314=PRODUCT('PCB_12','PCB_12','NOT SPECIFIED',(#313));
#315=PRODUCT_DEFINITION_FORMATION_WITH_SPECIFIED_SOURCE('1','LAST_VERSION',#314,
.MADE.);
#323=LENGTH_MEASURE_WITH_UNIT(LENGTH_MEASURE(2.54E1),#322);
#324=(CONVERSION_BASED_UNIT('INCH',#323)LENGTH_UNIT()NAMED_UNIT(*));
#325=DERIVED_UNIT_ELEMENT(#324,2.E0);
#326=AREA_UNIT((#325));
#327=MEASURE_REPRESENTATION_ITEM('surface area measure',AREA_MEASURE(
1.664159265374E1),#326);
#332=LENGTH_MEASURE_WITH_UNIT(LENGTH_MEASURE(2.54E1),#331);
#333=(CONVERSION_BASED_UNIT('INCH',#332)LENGTH_UNIT()NAMED_UNIT(*));
#334=DERIVED_UNIT_ELEMENT(#333,3.E0);
#335=VOLUME_UNIT((#334));
#336=MEASURE_REPRESENTATION_ITEM('volume measure',VOLUME_MEASURE(
2.196902754942E0),#335);
#340=CARTESIAN_POINT('centre point',(-9.000000134110E0,-7.000000074509E0,
-7.5E-1));
#345=LENGTH_MEASURE_WITH_UNIT(LENGTH_MEASURE(2.54E1),#344);
#346=(CONVERSION_BASED_UNIT('INCH',#345)LENGTH_UNIT()NAMED_UNIT(*));
#347=DERIVED_UNIT_ELEMENT(#346,2.E0);
#348=AREA_UNIT((#347));
#349=MEASURE_REPRESENTATION_ITEM('surface area measure',AREA_MEASURE(
1.664159265374E1),#348);
#354=LENGTH_MEASURE_WITH_UNIT(LENGTH_MEASURE(2.54E1),#353);
#355=(CONVERSION_BASED_UNIT('INCH',#354)LENGTH_UNIT()NAMED_UNIT(*));
#356=DERIVED_UNIT_ELEMENT(#355,3.E0);
#357=VOLUME_UNIT((#356));
#358=MEASURE_REPRESENTATION_ITEM('volume measure',VOLUME_MEASURE(
2.196902754942E0),#357);
#362=CARTESIAN_POINT('centre point',(-9.000000134110E0,-7.000000074509E0,
-7.5E-1));
#1=DRAUGHTING_PRE_DEFINED_COLOUR('green');
#2=COLOUR_RGB('',1.1E-2,1.2E-2,1.E0);
#3=COLOUR_RGB('',4.1E-1,2.61589E-1,1.12848E-1);
#4=COLOUR_RGB('',5.04854E-1,1.5455E-2,1.5455E-2);
#5=COLOUR_RGB('',6.35294E-1,6.86275E-1,7.4902E-1);
#6=COLOUR_RGB('',6.40777E-1,6.40777E-1,6.40777E-1);
#7=COLOUR_RGB('',6.69062E-1,6.69903E-1,6.55217E-1);
#8=COLOUR_RGB('',9.21569E-1,7.05882E-1,4.70588E-1);
#9=COLOUR_RGB('',9.568627450980E-1,8.980392156863E-1,6.549019607843E-1);
#10=DRAUGHTING_PRE_DEFINED_COLOUR('red');
#11=DRAUGHTING_PRE_DEFINED_COLOUR('yellow');
#12=COLOUR_RGB('',1.E0,1.E0,5.3E-1);
#13=COLOUR_RGB('',1.E0,1.E0,9.49E-1);
#14=DRAUGHTING_PRE_DEFINED_COLOUR('white');
#35=CIRCLE('',#34,1.968503937008E-2);
#40=CIRCLE('',#39,1.968503937008E-2);
#69=CIRCLE('',#68,1.968503937008E-2);
#74=CIRCLE('',#73,1.968503937008E-2);
#120=EDGE_CURVE('',#93,#94,#26,.T.);
#122=EDGE_CURVE('',#94,#98,#82,.T.);
#124=EDGE_CURVE('',#98,#96,#56,.T.);
#126=EDGE_CURVE('',#96,#93,#48,.T.);
#130=ADVANCED_FACE('',(#129),#119,.F.);
#143=EDGE_CURVE('',#104,#100,#18,.T.);
#145=EDGE_CURVE('',#94,#104,#22,.T.);
#148=EDGE_CURVE('',#100,#93,#30,.T.);
#152=EDGE_CURVE('',#110,#112,#35,.T.);
#154=EDGE_CURVE('',#112,#110,#40,.T.);
#158=ADVANCED_FACE('',(#151,#157),#142,.F.);
#172=EDGE_CURVE('',#102,#100,#44,.T.);
#174=EDGE_CURVE('',#102,#106,#64,.T.);
#176=EDGE_CURVE('',#106,#104,#78,.T.);
#180=ADVANCED_FACE('',(#179),#170,.T.);
#195=EDGE_CURVE('',#96,#102,#52,.T.);
#200=ADVANCED_FACE('',(#199),#192,.T.);
#215=EDGE_CURVE('',#106,#98,#60,.T.);
#220=EDGE_CURVE('',#109,#114,#69,.T.);
#222=EDGE_CURVE('',#114,#109,#74,.T.);
#226=ADVANCED_FACE('',(#219,#225),#212,.T.);
#245=ADVANCED_FACE('',(#244),#238,.F.);
#258=EDGE_CURVE('',#109,#110,#86,.T.);
#261=EDGE_CURVE('',#112,#114,#90,.T.);
#266=ADVANCED_FACE('',(#265),#257,.F.);
#285=ADVANCED_FACE('',(#284),#278,.F.);
#293=CLOSED_SHELL('',(#130,#158,#180,#200,#226,#245,#266,#285));
#294=MANIFOLD_SOLID_BREP('',#293);
#295=(LENGTH_UNIT()NAMED_UNIT(*)SI_UNIT(.MILLI.,.METRE.));
#298=(NAMED_UNIT(*)PLANE_ANGLE_UNIT()SI_UNIT($,.RADIAN.));
#301=(NAMED_UNIT(*)SI_UNIT($,.STERADIAN.)SOLID_ANGLE_UNIT());
#303=(GEOMETRIC_REPRESENTATION_CONTEXT(3)GLOBAL_UNCERTAINTY_ASSIGNED_CONTEXT((
#302))GLOBAL_UNIT_ASSIGNED_CONTEXT((#297,#300,#301))REPRESENTATION_CONTEXT
('ID1','3'));
#307=AXIS2_PLACEMENT_3D('',#304,#305,#306);
#308=ADVANCED_BREP_SHAPE_REPRESENTATION('',(#307,#294),#303);
#316=PRODUCT_DEFINITION('design','',#315,#312);
#317=PRODUCT_DEFINITION_SHAPE('','SHAPE FOR PCB_12.',#316);
#318=SHAPE_ASPECT('','solid data associated with PCB_12',#317,.F.);
#319=PROPERTY_DEFINITION('',
'shape for solid data with which properties are associated',#318);
#320=SHAPE_REPRESENTATION('',(#294),#303);
#321=SHAPE_DEFINITION_REPRESENTATION(#319,#320);
#322=(LENGTH_UNIT()NAMED_UNIT(*)SI_UNIT(.MILLI.,.METRE.));
#328=PROPERTY_DEFINITION('geometric validation property','area of PCB_12',#318);
#329=REPRESENTATION('surface area',(#327),#303);
#330=PROPERTY_DEFINITION_REPRESENTATION(#328,#329);
#331=(LENGTH_UNIT()NAMED_UNIT(*)SI_UNIT(.MILLI.,.METRE.));
#337=PROPERTY_DEFINITION('geometric validation property','volume of PCB_12',
#318);
#338=REPRESENTATION('volume',(#336),#303);
#339=PROPERTY_DEFINITION_REPRESENTATION(#337,#338);
#341=PROPERTY_DEFINITION('geometric validation property','centroid of PCB_12',
#318);
#342=REPRESENTATION('centroid',(#340),#303);
#343=PROPERTY_DEFINITION_REPRESENTATION(#341,#342);
#344=(LENGTH_UNIT()NAMED_UNIT(*)SI_UNIT(.MILLI.,.METRE.));
#350=PROPERTY_DEFINITION('geometric validation property','area of PCB_12',#317);
#351=REPRESENTATION('surface area',(#349),#303);
#352=PROPERTY_DEFINITION_REPRESENTATION(#350,#351);
#353=(LENGTH_UNIT()NAMED_UNIT(*)SI_UNIT(.MILLI.,.METRE.));
#359=PROPERTY_DEFINITION('geometric validation property','volume of PCB_12',
#317);
#360=REPRESENTATION('volume',(#358),#303);
#361=PROPERTY_DEFINITION_REPRESENTATION(#359,#360);
#363=PROPERTY_DEFINITION('geometric validation property','centroid of PCB_12',
#317);
#364=REPRESENTATION('centroid',(#362),#303);
#365=PROPERTY_DEFINITION_REPRESENTATION(#363,#364);
#366=SHAPE_DEFINITION_REPRESENTATION(#317,#308);
ENDSEC;
END-ISO-10303-21;
