ISO-10303-21;
HEADER;
FILE_DESCRIPTION((''),'2;1');
FILE_NAME('PIVOT-DISK_BUNGEE_CORD','2026-06-15T13:45:38',('Esia'),(''),
'CREO PARAMETRIC BY PTC INC, 2025102','CREO PARAMETRIC BY PTC INC, 2025102','');
FILE_SCHEMA((
'AP242_MANAGED_MODEL_BASED_3D_ENGINEERING_MIM_LF { 1 0 10303 442 1 1 4 }'));
ENDSEC;
DATA;
#15=CARTESIAN_POINT('',(7.076615092134E-1,-5.457228717963E-3,
7.074128525099E-1));
#16=DIRECTION('',(-9.070884195868E-3,-9.999579779049E-1,-1.327209219866E-3));
#17=DIRECTION('',(9.639875588464E-1,-9.097362989089E-3,2.657916935799E-1));
#18=AXIS2_PLACEMENT_3D('',#15,#16,#17);
#20=DIRECTION('',(9.070884195868E-3,9.999579779049E-1,1.327209219866E-3));
#21=VECTOR('',#20,1.199255189009E0);
#22=CARTESIAN_POINT('',(6.784999742628E-1,-5.182024887447E-3,
6.993724025157E-1));
#23=LINE('',#22,#21);
#24=CARTESIAN_POINT('',(7.070723440202E-1,-7.040574117818E-2,
7.073266486229E-1));
#25=DIRECTION('',(-9.070884195868E-3,-9.999579779049E-1,-1.327209219866E-3));
#26=DIRECTION('',(0.E0,1.327263825247E-3,-9.999991191850E-1));
#27=AXIS2_PLACEMENT_3D('',#24,#25,#26);
#29=CARTESIAN_POINT('',(7.070723440202E-1,-7.040574117818E-2,
7.073266486229E-1));
#30=DIRECTION('',(9.070884195868E-3,9.999579779049E-1,1.327209219866E-3));
#31=DIRECTION('',(0.E0,1.327263825247E-3,-9.999991191850E-1));
#32=AXIS2_PLACEMENT_3D('',#29,#30,#31);
#34=CARTESIAN_POINT('',(7.076615092134E-1,-5.457228717963E-3,
7.074128525099E-1));
#35=DIRECTION('',(-9.070884195868E-3,-9.999579779049E-1,-1.327209219866E-3));
#36=DIRECTION('',(-9.639875588464E-1,9.097362989089E-3,-2.657916935799E-1));
#37=AXIS2_PLACEMENT_3D('',#34,#35,#36);
#39=DIRECTION('',(9.070884195868E-3,9.999579779049E-1,1.327209219866E-3));
#40=VECTOR('',#39,1.261787274390E0);
#41=CARTESIAN_POINT('',(7.368230441640E-1,-5.732432548479E-3,
7.154533025041E-1));
#42=LINE('',#41,#40);
#43=DIRECTION('',(-9.637620186370E-1,-2.389939964876E-2,-2.656907791573E-1));
#44=VECTOR('',#43,1.386003196971E-1);
#45=CARTESIAN_POINT('',(7.482685704098E-1,1.256001818897E0,7.171279582082E-1));
#46=LINE('',#45,#44);
#47=CARTESIAN_POINT('',(6.153787253301E-1,1.222447069119E0,6.805282839458E-1));
#48=DIRECTION('',(-9.637620186370E-1,-2.389939964876E-2,-2.656907791573E-1));
#49=DIRECTION('',(-2.273908493071E-2,9.997137281669E-1,-7.442830855130E-3));
#50=AXIS2_PLACEMENT_3D('',#47,#48,#49);
#52=DIRECTION('',(9.637620186370E-1,2.389939964876E-2,2.656907791573E-1));
#53=VECTOR('',#52,7.606823431567E-2);
#54=CARTESIAN_POINT('',(6.160666041454E-1,1.192204783773E0,6.807534366151E-1));
#55=LINE('',#54,#53);
#56=CARTESIAN_POINT('',(7.268639021774E-1,1.224978063369E0,6.798832057700E-1));
#57=CARTESIAN_POINT('',(7.251513531877E-1,1.223175692260E0,6.794131544540E-1));
#58=CARTESIAN_POINT('',(7.216490425509E-1,1.219575169813E0,6.787674682645E-1));
#59=CARTESIAN_POINT('',(7.161906317568E-1,1.214224292904E0,6.787233134869E-1));
#60=CARTESIAN_POINT('',(7.107373259967E-1,1.209144579336E0,6.796618870585E-1));
#61=CARTESIAN_POINT('',(7.054550254750E-1,1.204501298982E0,6.815942707709E-1));
#62=CARTESIAN_POINT('',(7.004350513086E-1,1.200400296436E0,6.845814679760E-1));
#63=CARTESIAN_POINT('',(6.958338962922E-1,1.197017629364E0,6.887083629533E-1));
#64=CARTESIAN_POINT('',(6.918653536465E-1,1.194621462710E0,6.941929819702E-1));
#65=CARTESIAN_POINT('',(6.900290987361E-1,1.194019998187E0,6.986035430652E-1));
#66=CARTESIAN_POINT('',(6.893782792036E-1,1.194022768906E0,7.009640650596E-1));
#68=CARTESIAN_POINT('',(7.482685704098E-1,1.256001818897E0,7.171279582082E-1));
#69=CARTESIAN_POINT('',(7.489190611321E-1,1.255999049578E0,7.147686288080E-1));
#70=CARTESIAN_POINT('',(7.496017644846E-1,1.255387440127E0,7.100450676524E-1));
#71=CARTESIAN_POINT('',(7.490058424786E-1,1.252982040676E0,7.033161173953E-1));
#72=CARTESIAN_POINT('',(7.471745626430E-1,1.249596648959E0,6.974301551096E-1));
#73=CARTESIAN_POINT('',(7.443984031831E-1,1.245492202738E0,6.923015925059E-1));
#74=CARTESIAN_POINT('',(7.408521109892E-1,1.240842240840E0,6.879400933700E-1));
#75=CARTESIAN_POINT('',(7.366438278244E-1,1.235751687776E0,6.843425199305E-1));
#76=CARTESIAN_POINT('',(7.319233156249E-1,1.230388510484E0,6.815881916561E-1));
#77=CARTESIAN_POINT('',(7.285785447696E-1,1.226782637888E0,6.803538317269E-1));
#78=CARTESIAN_POINT('',(7.268639021774E-1,1.224978063369E0,6.798832057700E-1));
#80=CARTESIAN_POINT('',(6.153787253301E-1,1.222447069119E0,6.805282839458E-1));
#81=DIRECTION('',(-9.637620186370E-1,-2.389939964876E-2,-2.656907791573E-1));
#82=DIRECTION('',(2.273908493071E-2,-9.997137281669E-1,7.442830855130E-3));
#83=AXIS2_PLACEMENT_3D('',#80,#81,#82);
#85=CARTESIAN_POINT('',(7.107829474360E-1,1.225046524434E0,7.382088174977E-1));
#86=CARTESIAN_POINT('',(7.124954964256E-1,1.226848895543E0,7.386788688137E-1));
#87=CARTESIAN_POINT('',(7.159978070625E-1,1.230449417990E0,7.393245550032E-1));
#88=CARTESIAN_POINT('',(7.214562178565E-1,1.235800294899E0,7.393687097808E-1));
#89=CARTESIAN_POINT('',(7.269095236167E-1,1.240880008466E0,7.384301362093E-1));
#90=CARTESIAN_POINT('',(7.321918241383E-1,1.245523288820E0,7.364977524968E-1));
#91=CARTESIAN_POINT('',(7.372117983048E-1,1.249624291366E0,7.335105552918E-1));
#92=CARTESIAN_POINT('',(7.418129533211E-1,1.253006958439E0,7.293836603145E-1));
#93=CARTESIAN_POINT('',(7.457814959669E-1,1.255403125093E0,7.238990412976E-1));
#94=CARTESIAN_POINT('',(7.476177508773E-1,1.256004589615E0,7.194884802025E-1));
#95=CARTESIAN_POINT('',(7.482685704098E-1,1.256001818897E0,7.171279582082E-1));
#97=CARTESIAN_POINT('',(6.893782792036E-1,1.194022768906E0,7.009640650596E-1));
#98=CARTESIAN_POINT('',(6.887277884812E-1,1.194025538224E0,7.033233944597E-1));
#99=CARTESIAN_POINT('',(6.880450851288E-1,1.194637147676E0,7.080469556153E-1));
#100=CARTESIAN_POINT('',(6.886410071347E-1,1.197042547127E0,7.147759058724E-1));
#101=CARTESIAN_POINT('',(6.904722869703E-1,1.200427938844E0,7.206618681581E-1));
#102=CARTESIAN_POINT('',(6.932484464302E-1,1.204532385064E0,7.257904307618E-1));
#103=CARTESIAN_POINT('',(6.967947386241E-1,1.209182346963E0,7.301519298977E-1));
#104=CARTESIAN_POINT('',(7.010030217890E-1,1.214272900027E0,7.337495033372E-1));
#105=CARTESIAN_POINT('',(7.057235339885E-1,1.219636077318E0,7.365038316117E-1));
#106=CARTESIAN_POINT('',(7.090683048437E-1,1.223241949915E0,7.377381915409E-1));
#107=CARTESIAN_POINT('',(7.107829474360E-1,1.225046524434E0,7.382088174977E-1));
#109=CARTESIAN_POINT('',(5.901568632777E-1,1.221821616622E0,6.735750983554E-1));
#110=DIRECTION('',(-9.637620186370E-1,-2.389939964877E-2,-2.656907791573E-1));
#111=DIRECTION('',(0.E0,9.959787115637E-1,-8.959021214368E-2));
#112=AXIS2_PLACEMENT_3D('',#109,#110,#111);
#114=CARTESIAN_POINT('',(5.901568632777E-1,1.221821616622E0,6.735750983554E-1));
#115=DIRECTION('',(9.637620186370E-1,2.389939964877E-2,2.656907791573E-1));
#116=DIRECTION('',(0.E0,9.959787115637E-1,-8.959021214368E-2));
#117=AXIS2_PLACEMENT_3D('',#114,#115,#116);
#119=VERTEX_POINT('',#97);
#120=VERTEX_POINT('',#107);
#121=VERTEX_POINT('',#95);
#122=VERTEX_POINT('',#78);
#123=CARTESIAN_POINT('',(7.070723440202E-1,-7.031064216001E-2,
6.356762859746E-1));
#124=CARTESIAN_POINT('',(7.070723440202E-1,-7.050084019636E-2,
7.789770112712E-1));
#125=VERTEX_POINT('',#123);
#126=VERTEX_POINT('',#124);
#127=CARTESIAN_POINT('',(7.368230441640E-1,-5.732432548479E-3,
7.154533025041E-1));
#128=CARTESIAN_POINT('',(6.784999742628E-1,-5.182024887447E-3,
6.993724025157E-1));
#129=VERTEX_POINT('',#127);
#130=VERTEX_POINT('',#128);
#131=CARTESIAN_POINT('',(5.901568632777E-1,1.261660765085E0,6.699914898697E-1));
#132=CARTESIAN_POINT('',(5.901568632777E-1,1.181982468160E0,6.771587068412E-1));
#133=VERTEX_POINT('',#131);
#134=VERTEX_POINT('',#132);
#135=CARTESIAN_POINT('',(6.160666041454E-1,1.192204783773E0,6.807534366151E-1));
#136=CARTESIAN_POINT('',(6.146908465148E-1,1.252689354465E0,6.803031312764E-1));
#137=VERTEX_POINT('',#135);
#138=VERTEX_POINT('',#136);
#139=CARTESIAN_POINT('',(7.070723440202E-1,-7.040574117818E-2,
7.073266486229E-1));
#140=DIRECTION('',(9.070884195868E-3,9.999579779049E-1,1.327209219866E-3));
#141=DIRECTION('',(-9.639875588464E-1,9.097362989089E-3,-2.657916935799E-1));
#142=AXIS2_PLACEMENT_3D('',#139,#140,#141);
#143=CYLINDRICAL_SURFACE('',#142,3.025094533946E-2);
#145=ORIENTED_EDGE('',*,*,#144,.T.);
#147=ORIENTED_EDGE('',*,*,#146,.T.);
#149=ORIENTED_EDGE('',*,*,#148,.T.);
#151=ORIENTED_EDGE('',*,*,#150,.T.);
#153=ORIENTED_EDGE('',*,*,#152,.F.);
#154=EDGE_LOOP('',(#145,#147,#149,#151,#153));
#155=FACE_OUTER_BOUND('',#154,.F.);
#157=FILL_AREA_STYLE_COLOUR('',#3);
#158=FILL_AREA_STYLE('',(#157));
#159=SURFACE_STYLE_FILL_AREA(#158);
#160=SURFACE_SIDE_STYLE('',(#159));
#161=SURFACE_STYLE_USAGE(.POSITIVE.,#160);
#162=PRESENTATION_STYLE_ASSIGNMENT((#161));
#163=STYLED_ITEM('',(#162),#156);
#164=CARTESIAN_POINT('',(7.070723440202E-1,-7.040574117818E-2,
7.073266486229E-1));
#165=DIRECTION('',(0.E0,-1.327263825247E-3,9.999991191850E-1));
#166=DIRECTION('',(9.999588586836E-1,-9.070876206097E-3,-1.203945645618E-5));
#167=AXIS2_PLACEMENT_3D('',#164,#165,#166);
#168=SPHERICAL_SURFACE('',#167,7.165042575911E-2);
#170=ORIENTED_EDGE('',*,*,#169,.T.);
#172=ORIENTED_EDGE('',*,*,#171,.F.);
#173=EDGE_LOOP('',(#170,#172));
#174=FACE_OUTER_BOUND('',#173,.F.);
#175=ORIENTED_EDGE('',*,*,#144,.F.);
#177=ORIENTED_EDGE('',*,*,#176,.F.);
#178=EDGE_LOOP('',(#175,#177));
#179=FACE_BOUND('',#178,.F.);
#181=FILL_AREA_STYLE_COLOUR('',#3);
#182=FILL_AREA_STYLE('',(#181));
#183=SURFACE_STYLE_FILL_AREA(#182);
#184=SURFACE_SIDE_STYLE('',(#183));
#185=SURFACE_STYLE_USAGE(.POSITIVE.,#184);
#186=PRESENTATION_STYLE_ASSIGNMENT((#185));
#187=STYLED_ITEM('',(#186),#180);
#188=CARTESIAN_POINT('',(7.070723440202E-1,-7.040574117818E-2,
7.073266486229E-1));
#189=DIRECTION('',(0.E0,-1.327263825247E-3,9.999991191850E-1));
#190=DIRECTION('',(9.999588586836E-1,-9.070876206097E-3,-1.203945645618E-5));
#191=AXIS2_PLACEMENT_3D('',#188,#189,#190);
#192=SPHERICAL_SURFACE('',#191,7.165042575911E-2);
#193=ORIENTED_EDGE('',*,*,#169,.F.);
#194=ORIENTED_EDGE('',*,*,#171,.T.);
#195=EDGE_LOOP('',(#193,#194));
#196=FACE_OUTER_BOUND('',#195,.F.);
#198=FILL_AREA_STYLE_COLOUR('',#3);
#199=FILL_AREA_STYLE('',(#198));
#200=SURFACE_STYLE_FILL_AREA(#199);
#201=SURFACE_SIDE_STYLE('',(#200));
#202=SURFACE_STYLE_USAGE(.POSITIVE.,#201);
#203=PRESENTATION_STYLE_ASSIGNMENT((#202));
#204=STYLED_ITEM('',(#203),#197);
#205=CARTESIAN_POINT('',(7.070723440202E-1,-7.040574117818E-2,
7.073266486229E-1));
#206=DIRECTION('',(9.070884195868E-3,9.999579779049E-1,1.327209219866E-3));
#207=DIRECTION('',(-9.639875588464E-1,9.097362989089E-3,-2.657916935799E-1));
#208=AXIS2_PLACEMENT_3D('',#205,#206,#207);
#209=CYLINDRICAL_SURFACE('',#208,3.025094533946E-2);
#210=ORIENTED_EDGE('',*,*,#176,.T.);
#211=ORIENTED_EDGE('',*,*,#152,.T.);
#213=ORIENTED_EDGE('',*,*,#212,.T.);
#215=ORIENTED_EDGE('',*,*,#214,.T.);
#216=ORIENTED_EDGE('',*,*,#146,.F.);
#217=EDGE_LOOP('',(#210,#211,#213,#215,#216));
#218=FACE_OUTER_BOUND('',#217,.F.);
#220=FILL_AREA_STYLE_COLOUR('',#3);
#221=FILL_AREA_STYLE('',(#220));
#222=SURFACE_STYLE_FILL_AREA(#221);
#223=SURFACE_SIDE_STYLE('',(#222));
#224=SURFACE_STYLE_USAGE(.POSITIVE.,#223);
#225=PRESENTATION_STYLE_ASSIGNMENT((#224));
#226=STYLED_ITEM('',(#225),#219);
#227=CARTESIAN_POINT('',(7.188234248067E-1,1.225012293901E0,7.090460116339E-1));
#228=DIRECTION('',(-9.637620186370E-1,-2.389939964876E-2,-2.656907791573E-1));
#229=DIRECTION('',(2.273908493071E-2,-9.997137281669E-1,7.442830855130E-3));
#230=AXIS2_PLACEMENT_3D('',#227,#228,#229);
#231=CYLINDRICAL_SURFACE('',#230,3.025094533946E-2);
#233=ORIENTED_EDGE('',*,*,#232,.T.);
#235=ORIENTED_EDGE('',*,*,#234,.T.);
#237=ORIENTED_EDGE('',*,*,#236,.T.);
#238=ORIENTED_EDGE('',*,*,#214,.F.);
#239=ORIENTED_EDGE('',*,*,#212,.F.);
#240=EDGE_LOOP('',(#233,#235,#237,#238,#239));
#241=FACE_OUTER_BOUND('',#240,.F.);
#243=FILL_AREA_STYLE_COLOUR('',#3);
#244=FILL_AREA_STYLE('',(#243));
#245=SURFACE_STYLE_FILL_AREA(#244);
#246=SURFACE_SIDE_STYLE('',(#245));
#247=SURFACE_STYLE_USAGE(.POSITIVE.,#246);
#248=PRESENTATION_STYLE_ASSIGNMENT((#247));
#249=STYLED_ITEM('',(#248),#242);
#250=CARTESIAN_POINT('',(7.188234248067E-1,1.225012293901E0,7.090460116339E-1));
#251=DIRECTION('',(-9.637620186370E-1,-2.389939964876E-2,-2.656907791573E-1));
#252=DIRECTION('',(2.273908493071E-2,-9.997137281669E-1,7.442830855130E-3));
#253=AXIS2_PLACEMENT_3D('',#250,#251,#252);
#254=CYLINDRICAL_SURFACE('',#253,3.025094533946E-2);
#255=ORIENTED_EDGE('',*,*,#236,.F.);
#257=ORIENTED_EDGE('',*,*,#256,.T.);
#258=ORIENTED_EDGE('',*,*,#232,.F.);
#259=ORIENTED_EDGE('',*,*,#150,.F.);
#260=ORIENTED_EDGE('',*,*,#148,.F.);
#261=EDGE_LOOP('',(#255,#257,#258,#259,#260));
#262=FACE_OUTER_BOUND('',#261,.F.);
#264=FILL_AREA_STYLE_COLOUR('',#3);
#265=FILL_AREA_STYLE('',(#264));
#266=SURFACE_STYLE_FILL_AREA(#265);
#267=SURFACE_SIDE_STYLE('',(#266));
#268=SURFACE_STYLE_USAGE(.POSITIVE.,#267);
#269=PRESENTATION_STYLE_ASSIGNMENT((#268));
#270=STYLED_ITEM('',(#269),#263);
#271=CARTESIAN_POINT('',(5.901568632777E-1,1.221821616622E0,6.735750983554E-1));
#272=DIRECTION('',(0.E0,-9.959787115637E-1,8.959021214368E-2));
#273=DIRECTION('',(2.667635121841E-1,-8.634364370571E-2,-9.598864535761E-1));
#274=AXIS2_PLACEMENT_3D('',#271,#272,#273);
#275=SPHERICAL_SURFACE('',#274,4.E-2);
#277=ORIENTED_EDGE('',*,*,#276,.T.);
#279=ORIENTED_EDGE('',*,*,#278,.F.);
#280=EDGE_LOOP('',(#277,#279));
#281=FACE_OUTER_BOUND('',#280,.F.);
#282=ORIENTED_EDGE('',*,*,#256,.F.);
#283=ORIENTED_EDGE('',*,*,#234,.F.);
#284=EDGE_LOOP('',(#282,#283));
#285=FACE_BOUND('',#284,.F.);
#287=FILL_AREA_STYLE_COLOUR('',#3);
#288=FILL_AREA_STYLE('',(#287));
#289=SURFACE_STYLE_FILL_AREA(#288);
#290=SURFACE_SIDE_STYLE('',(#289));
#291=SURFACE_STYLE_USAGE(.POSITIVE.,#290);
#292=PRESENTATION_STYLE_ASSIGNMENT((#291));
#293=STYLED_ITEM('',(#292),#286);
#294=CARTESIAN_POINT('',(5.901568632777E-1,1.221821616622E0,6.735750983554E-1));
#295=DIRECTION('',(0.E0,-9.959787115637E-1,8.959021214368E-2));
#296=DIRECTION('',(2.667635121841E-1,-8.634364370571E-2,-9.598864535761E-1));
#297=AXIS2_PLACEMENT_3D('',#294,#295,#296);
#298=SPHERICAL_SURFACE('',#297,4.E-2);
#299=ORIENTED_EDGE('',*,*,#276,.F.);
#300=ORIENTED_EDGE('',*,*,#278,.T.);
#301=EDGE_LOOP('',(#299,#300));
#302=FACE_OUTER_BOUND('',#301,.F.);
#304=FILL_AREA_STYLE_COLOUR('',#3);
#305=FILL_AREA_STYLE('',(#304));
#306=SURFACE_STYLE_FILL_AREA(#305);
#307=SURFACE_SIDE_STYLE('',(#306));
#308=SURFACE_STYLE_USAGE(.POSITIVE.,#307);
#309=PRESENTATION_STYLE_ASSIGNMENT((#308));
#310=STYLED_ITEM('',(#309),#303);
#314=LENGTH_MEASURE_WITH_UNIT(LENGTH_MEASURE(2.54E1),#313);
#315=(CONVERSION_BASED_UNIT('INCH',#314)LENGTH_UNIT()NAMED_UNIT(*));
#317=PLANE_ANGLE_MEASURE_WITH_UNIT(PLANE_ANGLE_MEASURE(1.745329251994E-2),#316);
#318=(CONVERSION_BASED_UNIT('DEGREE',#317)NAMED_UNIT(*)PLANE_ANGLE_UNIT());
#320=UNCERTAINTY_MEASURE_WITH_UNIT(LENGTH_MEASURE(3.9E-4),#315,'closure',
'Maximum model space distance between geometric entities at asserted connectivities');
#322=CARTESIAN_POINT('',(0.E0,0.E0,0.E0));
#323=DIRECTION('',(0.E0,0.E0,1.E0));
#324=DIRECTION('',(1.E0,0.E0,0.E0));
#327=MECHANICAL_DESIGN_GEOMETRIC_PRESENTATION_REPRESENTATION('',(#163,#187,#204,
#226,#249,#270,#293,#310),#321);
#328=APPLICATION_CONTEXT('automotive design');
#329=APPLICATION_PROTOCOL_DEFINITION('international standard',
'config_control_design',1994,#328);
#330=PRODUCT_DEFINITION_CONTEXT('',#328,'design');
#331=PRODUCT_CONTEXT('',#328,'mechanical');
#332=PRODUCT('PIVOT-DISK_BUNGEE_CORD','PIVOT-DISK_BUNGEE_CORD','NOT SPECIFIED',(
#331));
#333=PRODUCT_DEFINITION_FORMATION_WITH_SPECIFIED_SOURCE('1','LAST_VERSION',#332,
.MADE.);
#341=LENGTH_MEASURE_WITH_UNIT(LENGTH_MEASURE(2.54E1),#340);
#342=(CONVERSION_BASED_UNIT('INCH',#341)LENGTH_UNIT()NAMED_UNIT(*));
#343=DERIVED_UNIT_ELEMENT(#342,2.E0);
#344=AREA_UNIT((#343));
#345=MEASURE_REPRESENTATION_ITEM('surface area measure',AREA_MEASURE(
3.324215895534E-1),#344);
#350=LENGTH_MEASURE_WITH_UNIT(LENGTH_MEASURE(2.54E1),#349);
#351=(CONVERSION_BASED_UNIT('INCH',#350)LENGTH_UNIT()NAMED_UNIT(*));
#352=DERIVED_UNIT_ELEMENT(#351,3.E0);
#353=VOLUME_UNIT((#352));
#354=MEASURE_REPRESENTATION_ITEM('volume measure',VOLUME_MEASURE(
5.623714610793E-3),#353);
#358=CARTESIAN_POINT('centre point',(7.036902446622E-1,4.852371257761E-1,
7.057416658900E-1));
#363=LENGTH_MEASURE_WITH_UNIT(LENGTH_MEASURE(2.54E1),#362);
#364=(CONVERSION_BASED_UNIT('INCH',#363)LENGTH_UNIT()NAMED_UNIT(*));
#365=DERIVED_UNIT_ELEMENT(#364,2.E0);
#366=AREA_UNIT((#365));
#367=MEASURE_REPRESENTATION_ITEM('surface area measure',AREA_MEASURE(
3.324215895534E-1),#366);
#372=LENGTH_MEASURE_WITH_UNIT(LENGTH_MEASURE(2.54E1),#371);
#373=(CONVERSION_BASED_UNIT('INCH',#372)LENGTH_UNIT()NAMED_UNIT(*));
#374=DERIVED_UNIT_ELEMENT(#373,3.E0);
#375=VOLUME_UNIT((#374));
#376=MEASURE_REPRESENTATION_ITEM('volume measure',VOLUME_MEASURE(
5.623714610793E-3),#375);
#380=CARTESIAN_POINT('centre point',(7.036902446622E-1,4.852371257761E-1,
7.057416658900E-1));
#1=DRAUGHTING_PRE_DEFINED_COLOUR('green');
#2=COLOUR_RGB('',1.1E-2,1.2E-2,1.E0);
#3=COLOUR_RGB('',2.352941176471E-1,2.352941176471E-1,2.352941176471E-1);
#4=COLOUR_RGB('',4.1E-1,2.61589E-1,1.12848E-1);
#5=COLOUR_RGB('',5.04854E-1,1.5455E-2,1.5455E-2);
#6=COLOUR_RGB('',6.35294E-1,6.86275E-1,7.4902E-1);
#7=COLOUR_RGB('',6.40777E-1,6.40777E-1,6.40777E-1);
#8=COLOUR_RGB('',6.69062E-1,6.69903E-1,6.55217E-1);
#9=COLOUR_RGB('',9.21569E-1,7.05882E-1,4.70588E-1);
#10=DRAUGHTING_PRE_DEFINED_COLOUR('red');
#11=DRAUGHTING_PRE_DEFINED_COLOUR('yellow');
#12=COLOUR_RGB('',1.E0,1.E0,5.3E-1);
#13=COLOUR_RGB('',1.E0,1.E0,9.49E-1);
#14=DRAUGHTING_PRE_DEFINED_COLOUR('white');
#19=CIRCLE('',#18,3.025094533946E-2);
#28=CIRCLE('',#27,7.165042575911E-2);
#33=CIRCLE('',#32,7.165042575911E-2);
#38=CIRCLE('',#37,3.025094533946E-2);
#51=CIRCLE('',#50,3.025094533946E-2);
#67=B_SPLINE_CURVE_WITH_KNOTS('',3,(#56,#57,#58,#59,#60,#61,#62,#63,#64,#65,
#66),.UNSPECIFIED.,.F.,.F.,(4,1,1,1,1,1,1,1,4),(0.E0,1.25E-1,2.5E-1,3.75E-1,
5.E-1,6.25E-1,7.5E-1,8.75E-1,1.E0),.UNSPECIFIED.);
#79=B_SPLINE_CURVE_WITH_KNOTS('',3,(#68,#69,#70,#71,#72,#73,#74,#75,#76,#77,
#78),.UNSPECIFIED.,.F.,.F.,(4,1,1,1,1,1,1,1,4),(0.E0,1.25E-1,2.5E-1,3.75E-1,
5.E-1,6.25E-1,7.5E-1,8.75E-1,1.E0),.UNSPECIFIED.);
#84=CIRCLE('',#83,3.025094533946E-2);
#96=B_SPLINE_CURVE_WITH_KNOTS('',3,(#85,#86,#87,#88,#89,#90,#91,#92,#93,#94,
#95),.UNSPECIFIED.,.F.,.F.,(4,1,1,1,1,1,1,1,4),(0.E0,1.25E-1,2.5E-1,3.75E-1,
5.E-1,6.25E-1,7.5E-1,8.75E-1,1.E0),.UNSPECIFIED.);
#108=B_SPLINE_CURVE_WITH_KNOTS('',3,(#97,#98,#99,#100,#101,#102,#103,#104,#105,
#106,#107),.UNSPECIFIED.,.F.,.F.,(4,1,1,1,1,1,1,1,4),(0.E0,1.25E-1,2.5E-1,
3.75E-1,5.E-1,6.25E-1,7.5E-1,8.75E-1,1.E0),.UNSPECIFIED.);
#113=CIRCLE('',#112,4.E-2);
#118=CIRCLE('',#117,4.E-2);
#144=EDGE_CURVE('',#129,#130,#19,.T.);
#146=EDGE_CURVE('',#130,#119,#23,.T.);
#148=EDGE_CURVE('',#119,#120,#108,.T.);
#150=EDGE_CURVE('',#120,#121,#96,.T.);
#152=EDGE_CURVE('',#129,#121,#42,.T.);
#156=ADVANCED_FACE('',(#155),#143,.T.);
#169=EDGE_CURVE('',#125,#126,#28,.T.);
#171=EDGE_CURVE('',#125,#126,#33,.T.);
#176=EDGE_CURVE('',#130,#129,#38,.T.);
#180=ADVANCED_FACE('',(#174,#179),#168,.T.);
#197=ADVANCED_FACE('',(#196),#192,.T.);
#212=EDGE_CURVE('',#121,#122,#79,.T.);
#214=EDGE_CURVE('',#122,#119,#67,.T.);
#219=ADVANCED_FACE('',(#218),#209,.T.);
#232=EDGE_CURVE('',#121,#138,#46,.T.);
#234=EDGE_CURVE('',#138,#137,#51,.T.);
#236=EDGE_CURVE('',#137,#119,#55,.T.);
#242=ADVANCED_FACE('',(#241),#231,.T.);
#256=EDGE_CURVE('',#137,#138,#84,.T.);
#263=ADVANCED_FACE('',(#262),#254,.T.);
#276=EDGE_CURVE('',#133,#134,#113,.T.);
#278=EDGE_CURVE('',#133,#134,#118,.T.);
#286=ADVANCED_FACE('',(#281,#285),#275,.T.);
#303=ADVANCED_FACE('',(#302),#298,.T.);
#311=CLOSED_SHELL('',(#156,#180,#197,#219,#242,#263,#286,#303));
#312=MANIFOLD_SOLID_BREP('',#311);
#313=(LENGTH_UNIT()NAMED_UNIT(*)SI_UNIT(.MILLI.,.METRE.));
#316=(NAMED_UNIT(*)PLANE_ANGLE_UNIT()SI_UNIT($,.RADIAN.));
#319=(NAMED_UNIT(*)SI_UNIT($,.STERADIAN.)SOLID_ANGLE_UNIT());
#321=(GEOMETRIC_REPRESENTATION_CONTEXT(3)GLOBAL_UNCERTAINTY_ASSIGNED_CONTEXT((
#320))GLOBAL_UNIT_ASSIGNED_CONTEXT((#315,#318,#319))REPRESENTATION_CONTEXT
('ID1','3'));
#325=AXIS2_PLACEMENT_3D('',#322,#323,#324);
#326=ADVANCED_BREP_SHAPE_REPRESENTATION('',(#325,#312),#321);
#334=PRODUCT_DEFINITION('design','',#333,#330);
#335=PRODUCT_DEFINITION_SHAPE('','SHAPE FOR PIVOT-DISK_BUNGEE_CORD.',#334);
#336=SHAPE_ASPECT('','solid data associated with PIVOT-DISK_BUNGEE_CORD',#335,
.F.);
#337=PROPERTY_DEFINITION('',
'shape for solid data with which properties are associated',#336);
#338=SHAPE_REPRESENTATION('',(#312),#321);
#339=SHAPE_DEFINITION_REPRESENTATION(#337,#338);
#340=(LENGTH_UNIT()NAMED_UNIT(*)SI_UNIT(.MILLI.,.METRE.));
#346=PROPERTY_DEFINITION('geometric validation property',
'area of PIVOT-DISK_BUNGEE_CORD',#336);
#347=REPRESENTATION('surface area',(#345),#321);
#348=PROPERTY_DEFINITION_REPRESENTATION(#346,#347);
#349=(LENGTH_UNIT()NAMED_UNIT(*)SI_UNIT(.MILLI.,.METRE.));
#355=PROPERTY_DEFINITION('geometric validation property',
'volume of PIVOT-DISK_BUNGEE_CORD',#336);
#356=REPRESENTATION('volume',(#354),#321);
#357=PROPERTY_DEFINITION_REPRESENTATION(#355,#356);
#359=PROPERTY_DEFINITION('geometric validation property',
'centroid of PIVOT-DISK_BUNGEE_CORD',#336);
#360=REPRESENTATION('centroid',(#358),#321);
#361=PROPERTY_DEFINITION_REPRESENTATION(#359,#360);
#362=(LENGTH_UNIT()NAMED_UNIT(*)SI_UNIT(.MILLI.,.METRE.));
#368=PROPERTY_DEFINITION('geometric validation property',
'area of PIVOT-DISK_BUNGEE_CORD',#335);
#369=REPRESENTATION('surface area',(#367),#321);
#370=PROPERTY_DEFINITION_REPRESENTATION(#368,#369);
#371=(LENGTH_UNIT()NAMED_UNIT(*)SI_UNIT(.MILLI.,.METRE.));
#377=PROPERTY_DEFINITION('geometric validation property',
'volume of PIVOT-DISK_BUNGEE_CORD',#335);
#378=REPRESENTATION('volume',(#376),#321);
#379=PROPERTY_DEFINITION_REPRESENTATION(#377,#378);
#381=PROPERTY_DEFINITION('geometric validation property',
'centroid of PIVOT-DISK_BUNGEE_CORD',#335);
#382=REPRESENTATION('centroid',(#380),#321);
#383=PROPERTY_DEFINITION_REPRESENTATION(#381,#382);
#384=SHAPE_DEFINITION_REPRESENTATION(#335,#326);
ENDSEC;
END-ISO-10303-21;
