ISO-10303-21;
HEADER;
FILE_DESCRIPTION((''),'2;1');
FILE_NAME('REVOLVE1_1_','2026-06-15T13:45:39',('Esia'),(''),
'CREO PARAMETRIC BY PTC INC, 2025102','CREO PARAMETRIC BY PTC INC, 2025102','');
FILE_SCHEMA((
'AP242_MANAGED_MODEL_BASED_3D_ENGINEERING_MIM_LF { 1 0 10303 442 1 1 4 }'));
ENDSEC;
DATA;
#18=CARTESIAN_POINT('',(6.801181102362E-2,0.E0,0.E0));
#19=DIRECTION('',(-1.E0,0.E0,0.E0));
#20=DIRECTION('',(0.E0,1.E0,0.E0));
#21=AXIS2_PLACEMENT_3D('',#18,#19,#20);
#23=DRAUGHTING_PRE_DEFINED_CURVE_FONT('continuous');
#24=CURVE_STYLE('',#23,POSITIVE_LENGTH_MEASURE(2.E-2),#1);
#25=PRESENTATION_STYLE_ASSIGNMENT((#24));
#26=STYLED_ITEM('',(#25),#22);
#27=DIRECTION('',(-7.071067811865E-1,-7.071067811866E-1,0.E0));
#28=VECTOR('',#27,1.252748234386E-3);
#29=CARTESIAN_POINT('',(6.889763779528E-2,2.134842519685E-1,0.E0));
#30=LINE('',#29,#28);
#31=CURVE_STYLE('',#23,POSITIVE_LENGTH_MEASURE(2.E-2),#1);
#32=PRESENTATION_STYLE_ASSIGNMENT((#31));
#33=STYLED_ITEM('',(#32),#30);
#34=DIRECTION('',(1.E0,0.E0,0.E0));
#35=VECTOR('',#34,9.448818897638E-3);
#36=CARTESIAN_POINT('',(5.856299212598E-2,-2.125984251969E-1,0.E0));
#37=LINE('',#36,#35);
#38=CURVE_STYLE('',#23,POSITIVE_LENGTH_MEASURE(2.E-2),#1);
#39=PRESENTATION_STYLE_ASSIGNMENT((#38));
#40=STYLED_ITEM('',(#39),#37);
#41=DIRECTION('',(1.E0,0.E0,0.E0));
#42=VECTOR('',#41,9.448818897638E-3);
#43=CARTESIAN_POINT('',(5.856299212598E-2,2.125984251969E-1,0.E0));
#44=LINE('',#43,#42);
#45=CURVE_STYLE('',#23,POSITIVE_LENGTH_MEASURE(2.E-2),#1);
#46=PRESENTATION_STYLE_ASSIGNMENT((#45));
#47=STYLED_ITEM('',(#46),#44);
#48=CARTESIAN_POINT('',(5.856299212598E-2,0.E0,0.E0));
#49=DIRECTION('',(-1.E0,0.E0,0.E0));
#50=DIRECTION('',(0.E0,-1.E0,0.E0));
#51=AXIS2_PLACEMENT_3D('',#48,#49,#50);
#53=CURVE_STYLE('',#23,POSITIVE_LENGTH_MEASURE(2.E-2),#1);
#54=PRESENTATION_STYLE_ASSIGNMENT((#53));
#55=STYLED_ITEM('',(#54),#52);
#56=CARTESIAN_POINT('',(5.856299212598E-2,0.E0,0.E0));
#57=DIRECTION('',(-1.E0,0.E0,0.E0));
#58=DIRECTION('',(0.E0,1.E0,0.E0));
#59=AXIS2_PLACEMENT_3D('',#56,#57,#58);
#61=CURVE_STYLE('',#23,POSITIVE_LENGTH_MEASURE(2.E-2),#1);
#62=PRESENTATION_STYLE_ASSIGNMENT((#61));
#63=STYLED_ITEM('',(#62),#60);
#64=CARTESIAN_POINT('',(5.856299212598E-2,0.E0,0.E0));
#65=DIRECTION('',(1.E0,0.E0,0.E0));
#66=DIRECTION('',(0.E0,1.E0,0.E0));
#67=AXIS2_PLACEMENT_3D('',#64,#65,#66);
#69=CURVE_STYLE('',#23,POSITIVE_LENGTH_MEASURE(2.E-2),#1);
#70=PRESENTATION_STYLE_ASSIGNMENT((#69));
#71=STYLED_ITEM('',(#70),#68);
#72=CARTESIAN_POINT('',(5.856299212598E-2,0.E0,0.E0));
#73=DIRECTION('',(1.E0,0.E0,0.E0));
#74=DIRECTION('',(0.E0,-1.E0,0.E0));
#75=AXIS2_PLACEMENT_3D('',#72,#73,#74);
#77=CURVE_STYLE('',#23,POSITIVE_LENGTH_MEASURE(2.E-2),#1);
#78=PRESENTATION_STYLE_ASSIGNMENT((#77));
#79=STYLED_ITEM('',(#78),#76);
#80=DIRECTION('',(1.E0,0.E0,0.E0));
#81=VECTOR('',#80,1.171259842520E-1);
#82=CARTESIAN_POINT('',(-5.856299212598E-2,2.140157480315E-1,0.E0));
#83=LINE('',#82,#81);
#84=CURVE_STYLE('',#23,POSITIVE_LENGTH_MEASURE(2.E-2),#1);
#85=PRESENTATION_STYLE_ASSIGNMENT((#84));
#86=STYLED_ITEM('',(#85),#83);
#87=DIRECTION('',(1.E0,0.E0,0.E0));
#88=VECTOR('',#87,1.171259842520E-1);
#89=CARTESIAN_POINT('',(-5.856299212598E-2,-2.140157480315E-1,0.E0));
#90=LINE('',#89,#88);
#91=CURVE_STYLE('',#23,POSITIVE_LENGTH_MEASURE(2.E-2),#1);
#92=PRESENTATION_STYLE_ASSIGNMENT((#91));
#93=STYLED_ITEM('',(#92),#90);
#94=CARTESIAN_POINT('',(-5.856299212598E-2,0.E0,0.E0));
#95=DIRECTION('',(1.E0,0.E0,0.E0));
#96=DIRECTION('',(0.E0,1.E0,0.E0));
#97=AXIS2_PLACEMENT_3D('',#94,#95,#96);
#99=CURVE_STYLE('',#23,POSITIVE_LENGTH_MEASURE(2.E-2),#1);
#100=PRESENTATION_STYLE_ASSIGNMENT((#99));
#101=STYLED_ITEM('',(#100),#98);
#102=CARTESIAN_POINT('',(-5.856299212598E-2,0.E0,0.E0));
#103=DIRECTION('',(1.E0,0.E0,0.E0));
#104=DIRECTION('',(0.E0,-1.E0,0.E0));
#105=AXIS2_PLACEMENT_3D('',#102,#103,#104);
#107=CURVE_STYLE('',#23,POSITIVE_LENGTH_MEASURE(2.E-2),#1);
#108=PRESENTATION_STYLE_ASSIGNMENT((#107));
#109=STYLED_ITEM('',(#108),#106);
#110=CARTESIAN_POINT('',(-5.856299212598E-2,0.E0,0.E0));
#111=DIRECTION('',(-1.E0,0.E0,0.E0));
#112=DIRECTION('',(0.E0,-1.E0,0.E0));
#113=AXIS2_PLACEMENT_3D('',#110,#111,#112);
#115=CURVE_STYLE('',#23,POSITIVE_LENGTH_MEASURE(2.E-2),#1);
#116=PRESENTATION_STYLE_ASSIGNMENT((#115));
#117=STYLED_ITEM('',(#116),#114);
#118=CARTESIAN_POINT('',(-5.856299212598E-2,0.E0,0.E0));
#119=DIRECTION('',(-1.E0,0.E0,0.E0));
#120=DIRECTION('',(0.E0,1.E0,0.E0));
#121=AXIS2_PLACEMENT_3D('',#118,#119,#120);
#123=CURVE_STYLE('',#23,POSITIVE_LENGTH_MEASURE(2.E-2),#1);
#124=PRESENTATION_STYLE_ASSIGNMENT((#123));
#125=STYLED_ITEM('',(#124),#122);
#126=DIRECTION('',(1.E0,0.E0,0.E0));
#127=VECTOR('',#126,9.448818897638E-3);
#128=CARTESIAN_POINT('',(-6.801181102362E-2,2.125984251969E-1,0.E0));
#129=LINE('',#128,#127);
#130=CURVE_STYLE('',#23,POSITIVE_LENGTH_MEASURE(2.E-2),#1);
#131=PRESENTATION_STYLE_ASSIGNMENT((#130));
#132=STYLED_ITEM('',(#131),#129);
#133=DIRECTION('',(1.E0,0.E0,0.E0));
#134=VECTOR('',#133,9.448818897638E-3);
#135=CARTESIAN_POINT('',(-6.801181102362E-2,-2.125984251969E-1,0.E0));
#136=LINE('',#135,#134);
#137=CURVE_STYLE('',#23,POSITIVE_LENGTH_MEASURE(2.E-2),#1);
#138=PRESENTATION_STYLE_ASSIGNMENT((#137));
#139=STYLED_ITEM('',(#138),#136);
#140=CARTESIAN_POINT('',(-6.801181102362E-2,0.E0,0.E0));
#141=DIRECTION('',(1.E0,0.E0,0.E0));
#142=DIRECTION('',(0.E0,-1.E0,0.E0));
#143=AXIS2_PLACEMENT_3D('',#140,#141,#142);
#145=CURVE_STYLE('',#23,POSITIVE_LENGTH_MEASURE(2.E-2),#1);
#146=PRESENTATION_STYLE_ASSIGNMENT((#145));
#147=STYLED_ITEM('',(#146),#144);
#148=DIRECTION('',(7.071067811866E-1,7.071067811865E-1,0.E0));
#149=VECTOR('',#148,1.252748234386E-3);
#150=CARTESIAN_POINT('',(-6.889763779528E-2,-2.134842519685E-1,0.E0));
#151=LINE('',#150,#149);
#152=CURVE_STYLE('',#23,POSITIVE_LENGTH_MEASURE(2.E-2),#1);
#153=PRESENTATION_STYLE_ASSIGNMENT((#152));
#154=STYLED_ITEM('',(#153),#151);
#155=DIRECTION('',(7.071067811866E-1,-7.071067811865E-1,0.E0));
#156=VECTOR('',#155,1.252748234386E-3);
#157=CARTESIAN_POINT('',(-6.889763779528E-2,2.134842519685E-1,0.E0));
#158=LINE('',#157,#156);
#159=CURVE_STYLE('',#23,POSITIVE_LENGTH_MEASURE(2.E-2),#1);
#160=PRESENTATION_STYLE_ASSIGNMENT((#159));
#161=STYLED_ITEM('',(#160),#158);
#162=CARTESIAN_POINT('',(-6.801181102362E-2,0.E0,0.E0));
#163=DIRECTION('',(1.E0,0.E0,0.E0));
#164=DIRECTION('',(0.E0,1.E0,0.E0));
#165=AXIS2_PLACEMENT_3D('',#162,#163,#164);
#167=CURVE_STYLE('',#23,POSITIVE_LENGTH_MEASURE(2.E-2),#1);
#168=PRESENTATION_STYLE_ASSIGNMENT((#167));
#169=STYLED_ITEM('',(#168),#166);
#170=CARTESIAN_POINT('',(-6.889763779528E-2,0.E0,0.E0));
#171=DIRECTION('',(-1.E0,0.E0,0.E0));
#172=DIRECTION('',(0.E0,-1.E0,0.E0));
#173=AXIS2_PLACEMENT_3D('',#170,#171,#172);
#175=CURVE_STYLE('',#23,POSITIVE_LENGTH_MEASURE(2.E-2),#1);
#176=PRESENTATION_STYLE_ASSIGNMENT((#175));
#177=STYLED_ITEM('',(#176),#174);
#178=CARTESIAN_POINT('',(-6.889763779528E-2,0.E0,0.E0));
#179=DIRECTION('',(-1.E0,0.E0,0.E0));
#180=DIRECTION('',(0.E0,1.E0,0.E0));
#181=AXIS2_PLACEMENT_3D('',#178,#179,#180);
#183=CURVE_STYLE('',#23,POSITIVE_LENGTH_MEASURE(2.E-2),#1);
#184=PRESENTATION_STYLE_ASSIGNMENT((#183));
#185=STYLED_ITEM('',(#184),#182);
#186=CARTESIAN_POINT('',(-6.889763779528E-2,0.E0,0.E0));
#187=DIRECTION('',(1.E0,0.E0,0.E0));
#188=DIRECTION('',(0.E0,1.E0,0.E0));
#189=AXIS2_PLACEMENT_3D('',#186,#187,#188);
#191=CURVE_STYLE('',#23,POSITIVE_LENGTH_MEASURE(2.E-2),#1);
#192=PRESENTATION_STYLE_ASSIGNMENT((#191));
#193=STYLED_ITEM('',(#192),#190);
#194=CARTESIAN_POINT('',(-6.889763779528E-2,0.E0,0.E0));
#195=DIRECTION('',(1.E0,0.E0,0.E0));
#196=DIRECTION('',(0.E0,-1.E0,0.E0));
#197=AXIS2_PLACEMENT_3D('',#194,#195,#196);
#199=CURVE_STYLE('',#23,POSITIVE_LENGTH_MEASURE(2.E-2),#1);
#200=PRESENTATION_STYLE_ASSIGNMENT((#199));
#201=STYLED_ITEM('',(#200),#198);
#202=CARTESIAN_POINT('',(-6.200787401575E-2,0.E0,0.E0));
#203=DIRECTION('',(-1.E0,0.E0,0.E0));
#204=DIRECTION('',(0.E0,-1.E0,0.E0));
#205=AXIS2_PLACEMENT_3D('',#202,#203,#204);
#207=CURVE_STYLE('',#23,POSITIVE_LENGTH_MEASURE(2.E-2),#1);
#208=PRESENTATION_STYLE_ASSIGNMENT((#207));
#209=STYLED_ITEM('',(#208),#206);
#210=CARTESIAN_POINT('',(-6.200787401575E-2,-2.293307086614E-1,0.E0));
#211=DIRECTION('',(0.E0,0.E0,1.E0));
#212=DIRECTION('',(-1.E0,0.E0,0.E0));
#213=AXIS2_PLACEMENT_3D('',#210,#211,#212);
#215=CURVE_STYLE('',#23,POSITIVE_LENGTH_MEASURE(2.E-2),#1);
#216=PRESENTATION_STYLE_ASSIGNMENT((#215));
#217=STYLED_ITEM('',(#216),#214);
#218=DIRECTION('',(1.E0,0.E0,0.E0));
#219=VECTOR('',#218,1.240157480315E-1);
#220=CARTESIAN_POINT('',(-6.200787401575E-2,-2.362204724409E-1,0.E0));
#221=LINE('',#220,#219);
#222=CURVE_STYLE('',#23,POSITIVE_LENGTH_MEASURE(2.E-2),#1);
#223=PRESENTATION_STYLE_ASSIGNMENT((#222));
#224=STYLED_ITEM('',(#223),#221);
#225=CARTESIAN_POINT('',(6.200787401575E-2,-2.293307086614E-1,0.E0));
#226=DIRECTION('',(0.E0,0.E0,1.E0));
#227=DIRECTION('',(0.E0,-1.E0,0.E0));
#228=AXIS2_PLACEMENT_3D('',#225,#226,#227);
#230=CURVE_STYLE('',#23,POSITIVE_LENGTH_MEASURE(2.E-2),#1);
#231=PRESENTATION_STYLE_ASSIGNMENT((#230));
#232=STYLED_ITEM('',(#231),#229);
#233=CARTESIAN_POINT('',(6.200787401575E-2,0.E0,0.E0));
#234=DIRECTION('',(1.E0,0.E0,0.E0));
#235=DIRECTION('',(0.E0,1.E0,0.E0));
#236=AXIS2_PLACEMENT_3D('',#233,#234,#235);
#238=CURVE_STYLE('',#23,POSITIVE_LENGTH_MEASURE(2.E-2),#1);
#239=PRESENTATION_STYLE_ASSIGNMENT((#238));
#240=STYLED_ITEM('',(#239),#237);
#241=CARTESIAN_POINT('',(6.889763779528E-2,0.E0,0.E0));
#242=DIRECTION('',(1.E0,0.E0,0.E0));
#243=DIRECTION('',(0.E0,1.E0,0.E0));
#244=AXIS2_PLACEMENT_3D('',#241,#242,#243);
#246=CURVE_STYLE('',#23,POSITIVE_LENGTH_MEASURE(2.E-2),#1);
#247=PRESENTATION_STYLE_ASSIGNMENT((#246));
#248=STYLED_ITEM('',(#247),#245);
#249=CARTESIAN_POINT('',(6.889763779528E-2,0.E0,0.E0));
#250=DIRECTION('',(1.E0,0.E0,0.E0));
#251=DIRECTION('',(0.E0,-1.E0,0.E0));
#252=AXIS2_PLACEMENT_3D('',#249,#250,#251);
#254=CURVE_STYLE('',#23,POSITIVE_LENGTH_MEASURE(2.E-2),#1);
#255=PRESENTATION_STYLE_ASSIGNMENT((#254));
#256=STYLED_ITEM('',(#255),#253);
#257=CARTESIAN_POINT('',(6.889763779528E-2,0.E0,0.E0));
#258=DIRECTION('',(-1.E0,0.E0,0.E0));
#259=DIRECTION('',(0.E0,1.E0,0.E0));
#260=AXIS2_PLACEMENT_3D('',#257,#258,#259);
#262=CURVE_STYLE('',#23,POSITIVE_LENGTH_MEASURE(2.E-2),#1);
#263=PRESENTATION_STYLE_ASSIGNMENT((#262));
#264=STYLED_ITEM('',(#263),#261);
#265=CARTESIAN_POINT('',(6.889763779528E-2,0.E0,0.E0));
#266=DIRECTION('',(-1.E0,0.E0,0.E0));
#267=DIRECTION('',(0.E0,-1.E0,0.E0));
#268=AXIS2_PLACEMENT_3D('',#265,#266,#267);
#270=CURVE_STYLE('',#23,POSITIVE_LENGTH_MEASURE(2.E-2),#1);
#271=PRESENTATION_STYLE_ASSIGNMENT((#270));
#272=STYLED_ITEM('',(#271),#269);
#273=CARTESIAN_POINT('',(6.200787401575E-2,2.293307086614E-1,0.E0));
#274=DIRECTION('',(0.E0,0.E0,-1.E0));
#275=DIRECTION('',(0.E0,1.E0,0.E0));
#276=AXIS2_PLACEMENT_3D('',#273,#274,#275);
#278=CURVE_STYLE('',#23,POSITIVE_LENGTH_MEASURE(2.E-2),#1);
#279=PRESENTATION_STYLE_ASSIGNMENT((#278));
#280=STYLED_ITEM('',(#279),#277);
#281=CARTESIAN_POINT('',(6.200787401575E-2,0.E0,0.E0));
#282=DIRECTION('',(1.E0,0.E0,0.E0));
#283=DIRECTION('',(0.E0,-1.E0,0.E0));
#284=AXIS2_PLACEMENT_3D('',#281,#282,#283);
#286=CURVE_STYLE('',#23,POSITIVE_LENGTH_MEASURE(2.E-2),#1);
#287=PRESENTATION_STYLE_ASSIGNMENT((#286));
#288=STYLED_ITEM('',(#287),#285);
#289=DIRECTION('',(1.E0,0.E0,0.E0));
#290=VECTOR('',#289,1.240157480315E-1);
#291=CARTESIAN_POINT('',(-6.200787401575E-2,2.362204724409E-1,0.E0));
#292=LINE('',#291,#290);
#293=CURVE_STYLE('',#23,POSITIVE_LENGTH_MEASURE(2.E-2),#1);
#294=PRESENTATION_STYLE_ASSIGNMENT((#293));
#295=STYLED_ITEM('',(#294),#292);
#296=CARTESIAN_POINT('',(-6.200787401575E-2,2.293307086614E-1,0.E0));
#297=DIRECTION('',(0.E0,0.E0,-1.E0));
#298=DIRECTION('',(-1.E0,0.E0,0.E0));
#299=AXIS2_PLACEMENT_3D('',#296,#297,#298);
#301=CURVE_STYLE('',#23,POSITIVE_LENGTH_MEASURE(2.E-2),#1);
#302=PRESENTATION_STYLE_ASSIGNMENT((#301));
#303=STYLED_ITEM('',(#302),#300);
#304=CARTESIAN_POINT('',(-6.200787401575E-2,0.E0,0.E0));
#305=DIRECTION('',(-1.E0,0.E0,0.E0));
#306=DIRECTION('',(0.E0,1.E0,0.E0));
#307=AXIS2_PLACEMENT_3D('',#304,#305,#306);
#309=CURVE_STYLE('',#23,POSITIVE_LENGTH_MEASURE(2.E-2),#1);
#310=PRESENTATION_STYLE_ASSIGNMENT((#309));
#311=STYLED_ITEM('',(#310),#308);
#312=DIRECTION('',(-7.071067811865E-1,7.071067811866E-1,0.E0));
#313=VECTOR('',#312,1.252748234386E-3);
#314=CARTESIAN_POINT('',(6.889763779528E-2,-2.134842519685E-1,0.E0));
#315=LINE('',#314,#313);
#316=CURVE_STYLE('',#23,POSITIVE_LENGTH_MEASURE(2.E-2),#1);
#317=PRESENTATION_STYLE_ASSIGNMENT((#316));
#318=STYLED_ITEM('',(#317),#315);
#319=CARTESIAN_POINT('',(6.801181102362E-2,0.E0,0.E0));
#320=DIRECTION('',(-1.E0,0.E0,0.E0));
#321=DIRECTION('',(0.E0,-1.E0,0.E0));
#322=AXIS2_PLACEMENT_3D('',#319,#320,#321);
#324=CURVE_STYLE('',#23,POSITIVE_LENGTH_MEASURE(2.E-2),#1);
#325=PRESENTATION_STYLE_ASSIGNMENT((#324));
#326=STYLED_ITEM('',(#325),#323);
#327=CARTESIAN_POINT('',(-5.856299212598E-2,2.140157480315E-1,0.E0));
#328=CARTESIAN_POINT('',(-5.856299212598E-2,-2.140157480315E-1,0.E0));
#329=VERTEX_POINT('',#327);
#330=VERTEX_POINT('',#328);
#331=CARTESIAN_POINT('',(-6.889763779528E-2,2.134842519685E-1,0.E0));
#332=CARTESIAN_POINT('',(-6.889763779528E-2,-2.134842519685E-1,0.E0));
#333=VERTEX_POINT('',#331);
#334=VERTEX_POINT('',#332);
#335=CARTESIAN_POINT('',(6.200787401575E-2,2.362204724409E-1,0.E0));
#336=CARTESIAN_POINT('',(6.200787401575E-2,-2.362204724409E-1,0.E0));
#337=VERTEX_POINT('',#335);
#338=VERTEX_POINT('',#336);
#339=CARTESIAN_POINT('',(5.856299212598E-2,2.140157480315E-1,0.E0));
#340=CARTESIAN_POINT('',(5.856299212598E-2,-2.140157480315E-1,0.E0));
#341=VERTEX_POINT('',#339);
#342=VERTEX_POINT('',#340);
#343=CARTESIAN_POINT('',(-6.200787401575E-2,2.362204724409E-1,0.E0));
#344=CARTESIAN_POINT('',(-6.200787401575E-2,-2.362204724409E-1,0.E0));
#345=VERTEX_POINT('',#343);
#346=VERTEX_POINT('',#344);
#347=CARTESIAN_POINT('',(6.889763779528E-2,-2.134842519685E-1,0.E0));
#348=CARTESIAN_POINT('',(6.801181102362E-2,-2.125984251969E-1,0.E0));
#349=VERTEX_POINT('',#347);
#350=VERTEX_POINT('',#348);
#351=CARTESIAN_POINT('',(5.856299212598E-2,-2.125984251969E-1,0.E0));
#352=CARTESIAN_POINT('',(5.856299212598E-2,2.125984251969E-1,0.E0));
#353=VERTEX_POINT('',#351);
#354=VERTEX_POINT('',#352);
#355=CARTESIAN_POINT('',(-6.801181102362E-2,-2.125984251969E-1,0.E0));
#356=CARTESIAN_POINT('',(-6.801181102362E-2,2.125984251969E-1,0.E0));
#357=VERTEX_POINT('',#355);
#358=VERTEX_POINT('',#356);
#359=CARTESIAN_POINT('',(-6.889763779528E-2,2.293307086614E-1,0.E0));
#360=CARTESIAN_POINT('',(-6.889763779528E-2,-2.293307086614E-1,0.E0));
#361=VERTEX_POINT('',#359);
#362=VERTEX_POINT('',#360);
#363=CARTESIAN_POINT('',(6.801181102362E-2,2.125984251969E-1,0.E0));
#364=VERTEX_POINT('',#363);
#365=CARTESIAN_POINT('',(6.889763779528E-2,2.293307086614E-1,0.E0));
#366=CARTESIAN_POINT('',(6.889763779528E-2,-2.293307086614E-1,0.E0));
#367=VERTEX_POINT('',#365);
#368=VERTEX_POINT('',#366);
#369=CARTESIAN_POINT('',(-5.856299212598E-2,-2.125984251969E-1,0.E0));
#370=CARTESIAN_POINT('',(-5.856299212598E-2,2.125984251969E-1,0.E0));
#371=VERTEX_POINT('',#369);
#372=VERTEX_POINT('',#370);
#373=CARTESIAN_POINT('',(6.889763779528E-2,2.134842519685E-1,0.E0));
#374=VERTEX_POINT('',#373);
#375=CARTESIAN_POINT('',(6.845472440945E-2,0.E0,0.E0));
#376=DIRECTION('',(1.E0,0.E0,0.E0));
#377=DIRECTION('',(0.E0,1.E0,0.E0));
#378=AXIS2_PLACEMENT_3D('',#375,#376,#377);
#379=CONICAL_SURFACE('',#378,2.130413385827E-1,4.5E1);
#381=ORIENTED_EDGE('',*,*,#380,.F.);
#383=ORIENTED_EDGE('',*,*,#382,.F.);
#385=ORIENTED_EDGE('',*,*,#384,.T.);
#387=ORIENTED_EDGE('',*,*,#386,.T.);
#388=EDGE_LOOP('',(#381,#383,#385,#387));
#389=FACE_OUTER_BOUND('',#388,.F.);
#391=CARTESIAN_POINT('',(-6.200787401575E-2,0.E0,0.E0));
#392=DIRECTION('',(-1.E0,0.E0,0.E0));
#393=DIRECTION('',(0.E0,-1.E0,0.E0));
#394=AXIS2_PLACEMENT_3D('',#391,#392,#393);
#395=CYLINDRICAL_SURFACE('',#394,2.125984251969E-1);
#396=ORIENTED_EDGE('',*,*,#380,.T.);
#398=ORIENTED_EDGE('',*,*,#397,.F.);
#400=ORIENTED_EDGE('',*,*,#399,.T.);
#402=ORIENTED_EDGE('',*,*,#401,.T.);
#403=EDGE_LOOP('',(#396,#398,#400,#402));
#404=FACE_OUTER_BOUND('',#403,.F.);
#406=CARTESIAN_POINT('',(-6.200787401575E-2,0.E0,0.E0));
#407=DIRECTION('',(-1.E0,0.E0,0.E0));
#408=DIRECTION('',(0.E0,-1.E0,0.E0));
#409=AXIS2_PLACEMENT_3D('',#406,#407,#408);
#410=CYLINDRICAL_SURFACE('',#409,2.125984251969E-1);
#411=ORIENTED_EDGE('',*,*,#401,.F.);
#413=ORIENTED_EDGE('',*,*,#412,.T.);
#414=ORIENTED_EDGE('',*,*,#397,.T.);
#416=ORIENTED_EDGE('',*,*,#415,.T.);
#417=EDGE_LOOP('',(#411,#413,#414,#416));
#418=FACE_OUTER_BOUND('',#417,.F.);
#420=CARTESIAN_POINT('',(5.856299212598E-2,2.125984251969E-1,0.E0));
#421=DIRECTION('',(1.E0,0.E0,0.E0));
#422=DIRECTION('',(0.E0,1.E0,0.E0));
#423=AXIS2_PLACEMENT_3D('',#420,#421,#422);
#424=PLANE('',#423);
#426=ORIENTED_EDGE('',*,*,#425,.F.);
#428=ORIENTED_EDGE('',*,*,#427,.F.);
#429=EDGE_LOOP('',(#426,#428));
#430=FACE_OUTER_BOUND('',#429,.F.);
#431=ORIENTED_EDGE('',*,*,#412,.F.);
#432=ORIENTED_EDGE('',*,*,#399,.F.);
#433=EDGE_LOOP('',(#431,#432));
#434=FACE_BOUND('',#433,.F.);
#436=CARTESIAN_POINT('',(-6.200787401575E-2,0.E0,0.E0));
#437=DIRECTION('',(-1.E0,0.E0,0.E0));
#438=DIRECTION('',(0.E0,-1.E0,0.E0));
#439=AXIS2_PLACEMENT_3D('',#436,#437,#438);
#440=CYLINDRICAL_SURFACE('',#439,2.140157480315E-1);
#442=ORIENTED_EDGE('',*,*,#441,.F.);
#444=ORIENTED_EDGE('',*,*,#443,.T.);
#446=ORIENTED_EDGE('',*,*,#445,.T.);
#447=ORIENTED_EDGE('',*,*,#425,.T.);
#448=EDGE_LOOP('',(#442,#444,#446,#447));
#449=FACE_OUTER_BOUND('',#448,.F.);
#451=CARTESIAN_POINT('',(-6.200787401575E-2,0.E0,0.E0));
#452=DIRECTION('',(-1.E0,0.E0,0.E0));
#453=DIRECTION('',(0.E0,-1.E0,0.E0));
#454=AXIS2_PLACEMENT_3D('',#451,#452,#453);
#455=CYLINDRICAL_SURFACE('',#454,2.140157480315E-1);
#456=ORIENTED_EDGE('',*,*,#427,.T.);
#457=ORIENTED_EDGE('',*,*,#445,.F.);
#459=ORIENTED_EDGE('',*,*,#458,.T.);
#460=ORIENTED_EDGE('',*,*,#441,.T.);
#461=EDGE_LOOP('',(#456,#457,#459,#460));
#462=FACE_OUTER_BOUND('',#461,.F.);
#464=CARTESIAN_POINT('',(-5.856299212598E-2,2.125984251969E-1,0.E0));
#465=DIRECTION('',(-1.E0,0.E0,0.E0));
#466=DIRECTION('',(0.E0,-1.E0,0.E0));
#467=AXIS2_PLACEMENT_3D('',#464,#465,#466);
#468=PLANE('',#467);
#469=ORIENTED_EDGE('',*,*,#443,.F.);
#470=ORIENTED_EDGE('',*,*,#458,.F.);
#471=EDGE_LOOP('',(#469,#470));
#472=FACE_OUTER_BOUND('',#471,.F.);
#474=ORIENTED_EDGE('',*,*,#473,.F.);
#476=ORIENTED_EDGE('',*,*,#475,.F.);
#477=EDGE_LOOP('',(#474,#476));
#478=FACE_BOUND('',#477,.F.);
#480=CARTESIAN_POINT('',(-6.200787401575E-2,0.E0,0.E0));
#481=DIRECTION('',(-1.E0,0.E0,0.E0));
#482=DIRECTION('',(0.E0,-1.E0,0.E0));
#483=AXIS2_PLACEMENT_3D('',#480,#481,#482);
#484=CYLINDRICAL_SURFACE('',#483,2.125984251969E-1);
#486=ORIENTED_EDGE('',*,*,#485,.F.);
#488=ORIENTED_EDGE('',*,*,#487,.T.);
#490=ORIENTED_EDGE('',*,*,#489,.T.);
#491=ORIENTED_EDGE('',*,*,#473,.T.);
#492=EDGE_LOOP('',(#486,#488,#490,#491));
#493=FACE_OUTER_BOUND('',#492,.F.);
#495=CARTESIAN_POINT('',(-6.200787401575E-2,0.E0,0.E0));
#496=DIRECTION('',(-1.E0,0.E0,0.E0));
#497=DIRECTION('',(0.E0,-1.E0,0.E0));
#498=AXIS2_PLACEMENT_3D('',#495,#496,#497);
#499=CYLINDRICAL_SURFACE('',#498,2.125984251969E-1);
#500=ORIENTED_EDGE('',*,*,#475,.T.);
#501=ORIENTED_EDGE('',*,*,#489,.F.);
#503=ORIENTED_EDGE('',*,*,#502,.T.);
#504=ORIENTED_EDGE('',*,*,#485,.T.);
#505=EDGE_LOOP('',(#500,#501,#503,#504));
#506=FACE_OUTER_BOUND('',#505,.F.);
#508=CARTESIAN_POINT('',(-6.845472440945E-2,0.E0,0.E0));
#509=DIRECTION('',(-1.E0,0.E0,0.E0));
#510=DIRECTION('',(0.E0,-1.E0,0.E0));
#511=AXIS2_PLACEMENT_3D('',#508,#509,#510);
#512=CONICAL_SURFACE('',#511,2.130413385827E-1,4.5E1);
#513=ORIENTED_EDGE('',*,*,#502,.F.);
#515=ORIENTED_EDGE('',*,*,#514,.F.);
#517=ORIENTED_EDGE('',*,*,#516,.T.);
#519=ORIENTED_EDGE('',*,*,#518,.T.);
#520=EDGE_LOOP('',(#513,#515,#517,#519));
#521=FACE_OUTER_BOUND('',#520,.F.);
#523=CARTESIAN_POINT('',(-6.845472440945E-2,0.E0,0.E0));
#524=DIRECTION('',(-1.E0,0.E0,0.E0));
#525=DIRECTION('',(0.E0,-1.E0,0.E0));
#526=AXIS2_PLACEMENT_3D('',#523,#524,#525);
#527=CONICAL_SURFACE('',#526,2.130413385827E-1,4.5E1);
#528=ORIENTED_EDGE('',*,*,#518,.F.);
#530=ORIENTED_EDGE('',*,*,#529,.T.);
#531=ORIENTED_EDGE('',*,*,#514,.T.);
#532=ORIENTED_EDGE('',*,*,#487,.F.);
#533=EDGE_LOOP('',(#528,#530,#531,#532));
#534=FACE_OUTER_BOUND('',#533,.F.);
#536=CARTESIAN_POINT('',(-6.889763779528E-2,2.293307086614E-1,0.E0));
#537=DIRECTION('',(1.E0,0.E0,0.E0));
#538=DIRECTION('',(0.E0,1.E0,0.E0));
#539=AXIS2_PLACEMENT_3D('',#536,#537,#538);
#540=PLANE('',#539);
#542=ORIENTED_EDGE('',*,*,#541,.F.);
#544=ORIENTED_EDGE('',*,*,#543,.F.);
#545=EDGE_LOOP('',(#542,#544));
#546=FACE_OUTER_BOUND('',#545,.F.);
#547=ORIENTED_EDGE('',*,*,#529,.F.);
#548=ORIENTED_EDGE('',*,*,#516,.F.);
#549=EDGE_LOOP('',(#547,#548));
#550=FACE_BOUND('',#549,.F.);
#552=CARTESIAN_POINT('',(-6.200787401575E-2,0.E0,0.E0));
#553=DIRECTION('',(-1.E0,0.E0,0.E0));
#554=DIRECTION('',(0.E0,-1.E0,0.E0));
#555=AXIS2_PLACEMENT_3D('',#552,#553,#554);
#556=TOROIDAL_SURFACE('',#555,2.293307086614E-1,6.889763779528E-3);
#558=ORIENTED_EDGE('',*,*,#557,.F.);
#560=ORIENTED_EDGE('',*,*,#559,.F.);
#561=ORIENTED_EDGE('',*,*,#541,.T.);
#563=ORIENTED_EDGE('',*,*,#562,.T.);
#564=EDGE_LOOP('',(#558,#560,#561,#563));
#565=FACE_OUTER_BOUND('',#564,.F.);
#567=CARTESIAN_POINT('',(-6.200787401575E-2,0.E0,0.E0));
#568=DIRECTION('',(-1.E0,0.E0,0.E0));
#569=DIRECTION('',(0.E0,-1.E0,0.E0));
#570=AXIS2_PLACEMENT_3D('',#567,#568,#569);
#571=CYLINDRICAL_SURFACE('',#570,2.362204724409E-1);
#573=ORIENTED_EDGE('',*,*,#572,.T.);
#575=ORIENTED_EDGE('',*,*,#574,.F.);
#576=ORIENTED_EDGE('',*,*,#557,.T.);
#578=ORIENTED_EDGE('',*,*,#577,.T.);
#579=EDGE_LOOP('',(#573,#575,#576,#578));
#580=FACE_OUTER_BOUND('',#579,.F.);
#582=CARTESIAN_POINT('',(6.200787401575E-2,0.E0,0.E0));
#583=DIRECTION('',(-1.E0,0.E0,0.E0));
#584=DIRECTION('',(0.E0,-1.E0,0.E0));
#585=AXIS2_PLACEMENT_3D('',#582,#583,#584);
#586=TOROIDAL_SURFACE('',#585,2.293307086614E-1,6.889763779528E-3);
#588=ORIENTED_EDGE('',*,*,#587,.T.);
#590=ORIENTED_EDGE('',*,*,#589,.F.);
#591=ORIENTED_EDGE('',*,*,#572,.F.);
#593=ORIENTED_EDGE('',*,*,#592,.T.);
#594=EDGE_LOOP('',(#588,#590,#591,#593));
#595=FACE_OUTER_BOUND('',#594,.F.);
#597=CARTESIAN_POINT('',(6.889763779528E-2,2.293307086614E-1,0.E0));
#598=DIRECTION('',(-1.E0,0.E0,0.E0));
#599=DIRECTION('',(0.E0,-1.E0,0.E0));
#600=AXIS2_PLACEMENT_3D('',#597,#598,#599);
#601=PLANE('',#600);
#602=ORIENTED_EDGE('',*,*,#587,.F.);
#604=ORIENTED_EDGE('',*,*,#603,.F.);
#605=EDGE_LOOP('',(#602,#604));
#606=FACE_OUTER_BOUND('',#605,.F.);
#607=ORIENTED_EDGE('',*,*,#384,.F.);
#609=ORIENTED_EDGE('',*,*,#608,.F.);
#610=EDGE_LOOP('',(#607,#609));
#611=FACE_BOUND('',#610,.F.);
#613=CARTESIAN_POINT('',(6.200787401575E-2,0.E0,0.E0));
#614=DIRECTION('',(-1.E0,0.E0,0.E0));
#615=DIRECTION('',(0.E0,-1.E0,0.E0));
#616=AXIS2_PLACEMENT_3D('',#613,#614,#615);
#617=TOROIDAL_SURFACE('',#616,2.293307086614E-1,6.889763779528E-3);
#618=ORIENTED_EDGE('',*,*,#592,.F.);
#620=ORIENTED_EDGE('',*,*,#619,.F.);
#621=ORIENTED_EDGE('',*,*,#589,.T.);
#622=ORIENTED_EDGE('',*,*,#603,.T.);
#623=EDGE_LOOP('',(#618,#620,#621,#622));
#624=FACE_OUTER_BOUND('',#623,.F.);
#626=CARTESIAN_POINT('',(-6.200787401575E-2,0.E0,0.E0));
#627=DIRECTION('',(-1.E0,0.E0,0.E0));
#628=DIRECTION('',(0.E0,-1.E0,0.E0));
#629=AXIS2_PLACEMENT_3D('',#626,#627,#628);
#630=CYLINDRICAL_SURFACE('',#629,2.362204724409E-1);
#631=ORIENTED_EDGE('',*,*,#577,.F.);
#633=ORIENTED_EDGE('',*,*,#632,.T.);
#634=ORIENTED_EDGE('',*,*,#574,.T.);
#635=ORIENTED_EDGE('',*,*,#619,.T.);
#636=EDGE_LOOP('',(#631,#633,#634,#635));
#637=FACE_OUTER_BOUND('',#636,.F.);
#639=CARTESIAN_POINT('',(-6.200787401575E-2,0.E0,0.E0));
#640=DIRECTION('',(-1.E0,0.E0,0.E0));
#641=DIRECTION('',(0.E0,-1.E0,0.E0));
#642=AXIS2_PLACEMENT_3D('',#639,#640,#641);
#643=TOROIDAL_SURFACE('',#642,2.293307086614E-1,6.889763779528E-3);
#644=ORIENTED_EDGE('',*,*,#562,.F.);
#645=ORIENTED_EDGE('',*,*,#543,.T.);
#646=ORIENTED_EDGE('',*,*,#559,.T.);
#647=ORIENTED_EDGE('',*,*,#632,.F.);
#648=EDGE_LOOP('',(#644,#645,#646,#647));
#649=FACE_OUTER_BOUND('',#648,.F.);
#651=CARTESIAN_POINT('',(6.845472440945E-2,0.E0,0.E0));
#652=DIRECTION('',(1.E0,0.E0,0.E0));
#653=DIRECTION('',(0.E0,1.E0,0.E0));
#654=AXIS2_PLACEMENT_3D('',#651,#652,#653);
#655=CONICAL_SURFACE('',#654,2.130413385827E-1,4.5E1);
#656=ORIENTED_EDGE('',*,*,#386,.F.);
#657=ORIENTED_EDGE('',*,*,#608,.T.);
#658=ORIENTED_EDGE('',*,*,#382,.T.);
#659=ORIENTED_EDGE('',*,*,#415,.F.);
#660=EDGE_LOOP('',(#656,#657,#658,#659));
#661=FACE_OUTER_BOUND('',#660,.F.);
#665=FILL_AREA_STYLE_COLOUR('',#1);
#666=FILL_AREA_STYLE('',(#665));
#667=SURFACE_STYLE_FILL_AREA(#666);
#668=SURFACE_SIDE_STYLE('',(#667));
#669=SURFACE_STYLE_USAGE(.BOTH.,#668);
#670=PRESENTATION_STYLE_ASSIGNMENT((#669));
#17=STYLED_ITEM('',(#670),#664);
#671=PRESENTATION_LAYER_ASSIGNMENT('NONE_33','',(#17,#390,#405,#419,#435,#450,
#463,#479,#494,#507,#522,#535,#551,#566,#581,#596,#612,#625,#638,#650,#662));
#673=LENGTH_MEASURE_WITH_UNIT(LENGTH_MEASURE(2.54E1),#672);
#674=(CONVERSION_BASED_UNIT('INCH',#673)LENGTH_UNIT()NAMED_UNIT(*));
#676=PLANE_ANGLE_MEASURE_WITH_UNIT(PLANE_ANGLE_MEASURE(1.745329251994E-2),#675);
#677=(CONVERSION_BASED_UNIT('DEGREE',#676)NAMED_UNIT(*)PLANE_ANGLE_UNIT());
#679=UNCERTAINTY_MEASURE_WITH_UNIT(LENGTH_MEASURE(6.821665489065E-5),#674,
'closure',
'Maximum model space distance between geometric entities at asserted connectivities');
#681=CARTESIAN_POINT('',(0.E0,0.E0,0.E0));
#682=DIRECTION('',(0.E0,0.E0,1.E0));
#683=DIRECTION('',(1.E0,0.E0,0.E0));
#686=MECHANICAL_DESIGN_GEOMETRIC_PRESENTATION_REPRESENTATION('',(#26,#33,#40,
#47,#55,#63,#71,#79,#86,#93,#101,#109,#117,#125,#132,#139,#147,#154,#161,#169,
#177,#185,#193,#201,#209,#217,#224,#232,#240,#248,#256,#264,#272,#280,#288,#295,
#303,#311,#318,#326,#17),#680);
#687=APPLICATION_CONTEXT('automotive design');
#688=APPLICATION_PROTOCOL_DEFINITION('international standard',
'config_control_design',1994,#687);
#689=PRODUCT_DEFINITION_CONTEXT('',#687,'design');
#690=PRODUCT_CONTEXT('',#687,'mechanical');
#691=PRODUCT('REVOLVE1_1_','REVOLVE1_1_','NOT SPECIFIED',(#690));
#692=PRODUCT_DEFINITION_FORMATION_WITH_SPECIFIED_SOURCE('1','LAST_VERSION',#691,
.MADE.);
#700=LENGTH_MEASURE_WITH_UNIT(LENGTH_MEASURE(2.54E1),#699);
#701=(CONVERSION_BASED_UNIT('INCH',#700)LENGTH_UNIT()NAMED_UNIT(*));
#702=DERIVED_UNIT_ELEMENT(#701,2.E0);
#703=AREA_UNIT((#702));
#704=MEASURE_REPRESENTATION_ITEM('surface area measure',AREA_MEASURE(
2.902165317952E2),#703);
#709=LENGTH_MEASURE_WITH_UNIT(LENGTH_MEASURE(2.54E1),#708);
#710=(CONVERSION_BASED_UNIT('INCH',#709)LENGTH_UNIT()NAMED_UNIT(*));
#711=DERIVED_UNIT_ELEMENT(#710,3.E0);
#712=VOLUME_UNIT((#711));
#713=MEASURE_REPRESENTATION_ITEM('volume measure',VOLUME_MEASURE(
7.105429501869E1),#712);
#717=CARTESIAN_POINT('centre point',(0.E0,0.E0,-9.168887858023E-12));
#722=LENGTH_MEASURE_WITH_UNIT(LENGTH_MEASURE(2.54E1),#721);
#723=(CONVERSION_BASED_UNIT('INCH',#722)LENGTH_UNIT()NAMED_UNIT(*));
#724=DERIVED_UNIT_ELEMENT(#723,2.E0);
#725=AREA_UNIT((#724));
#726=MEASURE_REPRESENTATION_ITEM('surface area measure',AREA_MEASURE(
2.902165317952E2),#725);
#731=LENGTH_MEASURE_WITH_UNIT(LENGTH_MEASURE(2.54E1),#730);
#732=(CONVERSION_BASED_UNIT('INCH',#731)LENGTH_UNIT()NAMED_UNIT(*));
#733=DERIVED_UNIT_ELEMENT(#732,3.E0);
#734=VOLUME_UNIT((#733));
#735=MEASURE_REPRESENTATION_ITEM('volume measure',VOLUME_MEASURE(
7.105429501869E1),#734);
#739=CARTESIAN_POINT('centre point',(0.E0,0.E0,-9.168887858023E-12));
#1=COLOUR_RGB('',8.23529E-1,7.05882E-1,4.31373E-1);
#2=DRAUGHTING_PRE_DEFINED_COLOUR('green');
#3=COLOUR_RGB('',1.1E-2,1.2E-2,1.E0);
#4=COLOUR_RGB('',2.352941176471E-1,2.352941176471E-1,2.352941176471E-1);
#5=COLOUR_RGB('',4.1E-1,2.61589E-1,1.12848E-1);
#6=COLOUR_RGB('',5.04854E-1,1.5455E-2,1.5455E-2);
#7=COLOUR_RGB('',6.35294E-1,6.86275E-1,7.4902E-1);
#8=COLOUR_RGB('',6.40777E-1,6.40777E-1,6.40777E-1);
#9=COLOUR_RGB('',6.69062E-1,6.69903E-1,6.55217E-1);
#10=COLOUR_RGB('',8.23529E-1,7.05882E-1,4.31373E-1);
#11=COLOUR_RGB('',9.21569E-1,7.05882E-1,4.70588E-1);
#12=DRAUGHTING_PRE_DEFINED_COLOUR('red');
#13=DRAUGHTING_PRE_DEFINED_COLOUR('yellow');
#14=COLOUR_RGB('',1.E0,1.E0,5.3E-1);
#15=COLOUR_RGB('',1.E0,1.E0,9.49E-1);
#16=DRAUGHTING_PRE_DEFINED_COLOUR('white');
#22=CIRCLE('',#21,2.125984251969E-1);
#52=CIRCLE('',#51,2.140157480315E-1);
#60=CIRCLE('',#59,2.140157480315E-1);
#68=CIRCLE('',#67,2.125984251969E-1);
#76=CIRCLE('',#75,2.125984251969E-1);
#98=CIRCLE('',#97,2.140157480315E-1);
#106=CIRCLE('',#105,2.140157480315E-1);
#114=CIRCLE('',#113,2.125984251969E-1);
#122=CIRCLE('',#121,2.125984251969E-1);
#144=CIRCLE('',#143,2.125984251969E-1);
#166=CIRCLE('',#165,2.125984251969E-1);
#174=CIRCLE('',#173,2.293307086614E-1);
#182=CIRCLE('',#181,2.293307086614E-1);
#190=CIRCLE('',#189,2.134842519685E-1);
#198=CIRCLE('',#197,2.134842519685E-1);
#206=CIRCLE('',#205,2.362204724409E-1);
#214=CIRCLE('',#213,6.889763779528E-3);
#229=CIRCLE('',#228,6.889763779528E-3);
#237=CIRCLE('',#236,2.362204724409E-1);
#245=CIRCLE('',#244,2.293307086614E-1);
#253=CIRCLE('',#252,2.293307086614E-1);
#261=CIRCLE('',#260,2.134842519685E-1);
#269=CIRCLE('',#268,2.134842519685E-1);
#277=CIRCLE('',#276,6.889763779528E-3);
#285=CIRCLE('',#284,2.362204724409E-1);
#300=CIRCLE('',#299,6.889763779528E-3);
#308=CIRCLE('',#307,2.362204724409E-1);
#323=CIRCLE('',#322,2.125984251969E-1);
#380=EDGE_CURVE('',#364,#350,#22,.T.);
#382=EDGE_CURVE('',#374,#364,#30,.T.);
#384=EDGE_CURVE('',#374,#349,#261,.T.);
#386=EDGE_CURVE('',#349,#350,#315,.T.);
#390=ADVANCED_FACE('',(#389),#379,.F.);
#397=EDGE_CURVE('',#353,#350,#37,.T.);
#399=EDGE_CURVE('',#353,#354,#76,.T.);
#401=EDGE_CURVE('',#354,#364,#44,.T.);
#405=ADVANCED_FACE('',(#404),#395,.F.);
#412=EDGE_CURVE('',#354,#353,#68,.T.);
#415=EDGE_CURVE('',#350,#364,#323,.T.);
#419=ADVANCED_FACE('',(#418),#410,.F.);
#425=EDGE_CURVE('',#342,#341,#52,.T.);
#427=EDGE_CURVE('',#341,#342,#60,.T.);
#435=ADVANCED_FACE('',(#430,#434),#424,.F.);
#441=EDGE_CURVE('',#329,#341,#83,.T.);
#443=EDGE_CURVE('',#329,#330,#98,.T.);
#445=EDGE_CURVE('',#330,#342,#90,.T.);
#450=ADVANCED_FACE('',(#449),#440,.F.);
#458=EDGE_CURVE('',#330,#329,#106,.T.);
#463=ADVANCED_FACE('',(#462),#455,.F.);
#473=EDGE_CURVE('',#371,#372,#114,.T.);
#475=EDGE_CURVE('',#372,#371,#122,.T.);
#479=ADVANCED_FACE('',(#472,#478),#468,.F.);
#485=EDGE_CURVE('',#358,#372,#129,.T.);
#487=EDGE_CURVE('',#358,#357,#166,.T.);
#489=EDGE_CURVE('',#357,#371,#136,.T.);
#494=ADVANCED_FACE('',(#493),#484,.F.);
#502=EDGE_CURVE('',#357,#358,#144,.T.);
#507=ADVANCED_FACE('',(#506),#499,.F.);
#514=EDGE_CURVE('',#334,#357,#151,.T.);
#516=EDGE_CURVE('',#334,#333,#198,.T.);
#518=EDGE_CURVE('',#333,#358,#158,.T.);
#522=ADVANCED_FACE('',(#521),#512,.F.);
#529=EDGE_CURVE('',#333,#334,#190,.T.);
#535=ADVANCED_FACE('',(#534),#527,.F.);
#541=EDGE_CURVE('',#362,#361,#174,.T.);
#543=EDGE_CURVE('',#361,#362,#182,.T.);
#551=ADVANCED_FACE('',(#546,#550),#540,.F.);
#557=EDGE_CURVE('',#346,#345,#206,.T.);
#559=EDGE_CURVE('',#362,#346,#214,.T.);
#562=EDGE_CURVE('',#361,#345,#300,.T.);
#566=ADVANCED_FACE('',(#565),#556,.T.);
#572=EDGE_CURVE('',#337,#338,#237,.T.);
#574=EDGE_CURVE('',#346,#338,#221,.T.);
#577=EDGE_CURVE('',#345,#337,#292,.T.);
#581=ADVANCED_FACE('',(#580),#571,.T.);
#587=EDGE_CURVE('',#367,#368,#245,.T.);
#589=EDGE_CURVE('',#338,#368,#229,.T.);
#592=EDGE_CURVE('',#337,#367,#277,.T.);
#596=ADVANCED_FACE('',(#595),#586,.T.);
#603=EDGE_CURVE('',#368,#367,#253,.T.);
#608=EDGE_CURVE('',#349,#374,#269,.T.);
#612=ADVANCED_FACE('',(#606,#611),#601,.F.);
#619=EDGE_CURVE('',#338,#337,#285,.T.);
#625=ADVANCED_FACE('',(#624),#617,.T.);
#632=EDGE_CURVE('',#345,#346,#308,.T.);
#638=ADVANCED_FACE('',(#637),#630,.T.);
#650=ADVANCED_FACE('',(#649),#643,.T.);
#662=ADVANCED_FACE('',(#661),#655,.F.);
#663=CLOSED_SHELL('',(#390,#405,#419,#435,#450,#463,#479,#494,#507,#522,#535,
#551,#566,#581,#596,#612,#625,#638,#650,#662));
#664=MANIFOLD_SOLID_BREP('',#663);
#672=(LENGTH_UNIT()NAMED_UNIT(*)SI_UNIT(.MILLI.,.METRE.));
#675=(NAMED_UNIT(*)PLANE_ANGLE_UNIT()SI_UNIT($,.RADIAN.));
#678=(NAMED_UNIT(*)SI_UNIT($,.STERADIAN.)SOLID_ANGLE_UNIT());
#680=(GEOMETRIC_REPRESENTATION_CONTEXT(3)GLOBAL_UNCERTAINTY_ASSIGNED_CONTEXT((
#679))GLOBAL_UNIT_ASSIGNED_CONTEXT((#674,#677,#678))REPRESENTATION_CONTEXT
('ID1','3'));
#684=AXIS2_PLACEMENT_3D('',#681,#682,#683);
#685=ADVANCED_BREP_SHAPE_REPRESENTATION('',(#684,#664),#680);
#693=PRODUCT_DEFINITION('design','',#692,#689);
#694=PRODUCT_DEFINITION_SHAPE('','SHAPE FOR REVOLVE1_1_.',#693);
#695=SHAPE_ASPECT('','solid data associated with REVOLVE1_1_',#694,.F.);
#696=PROPERTY_DEFINITION('',
'shape for solid data with which properties are associated',#695);
#697=SHAPE_REPRESENTATION('',(#664),#680);
#698=SHAPE_DEFINITION_REPRESENTATION(#696,#697);
#699=(LENGTH_UNIT()NAMED_UNIT(*)SI_UNIT(.MILLI.,.METRE.));
#705=PROPERTY_DEFINITION('geometric validation property','area of REVOLVE1_1_',
#695);
#706=REPRESENTATION('surface area',(#704),#680);
#707=PROPERTY_DEFINITION_REPRESENTATION(#705,#706);
#708=(LENGTH_UNIT()NAMED_UNIT(*)SI_UNIT(.MILLI.,.METRE.));
#714=PROPERTY_DEFINITION('geometric validation property',
'volume of REVOLVE1_1_',#695);
#715=REPRESENTATION('volume',(#713),#680);
#716=PROPERTY_DEFINITION_REPRESENTATION(#714,#715);
#718=PROPERTY_DEFINITION('geometric validation property',
'centroid of REVOLVE1_1_',#695);
#719=REPRESENTATION('centroid',(#717),#680);
#720=PROPERTY_DEFINITION_REPRESENTATION(#718,#719);
#721=(LENGTH_UNIT()NAMED_UNIT(*)SI_UNIT(.MILLI.,.METRE.));
#727=PROPERTY_DEFINITION('geometric validation property','area of REVOLVE1_1_',
#694);
#728=REPRESENTATION('surface area',(#726),#680);
#729=PROPERTY_DEFINITION_REPRESENTATION(#727,#728);
#730=(LENGTH_UNIT()NAMED_UNIT(*)SI_UNIT(.MILLI.,.METRE.));
#736=PROPERTY_DEFINITION('geometric validation property',
'volume of REVOLVE1_1_',#694);
#737=REPRESENTATION('volume',(#735),#680);
#738=PROPERTY_DEFINITION_REPRESENTATION(#736,#737);
#740=PROPERTY_DEFINITION('geometric validation property',
'centroid of REVOLVE1_1_',#694);
#741=REPRESENTATION('centroid',(#739),#680);
#742=PROPERTY_DEFINITION_REPRESENTATION(#740,#741);
#743=SHAPE_DEFINITION_REPRESENTATION(#694,#685);
ENDSEC;
END-ISO-10303-21;
