ISO-10303-21;
HEADER;
FILE_DESCRIPTION((''),'2;1');
FILE_NAME('REVOLVE1_2_','2026-06-15T13:45:39',('Esia'),(''),
'CREO PARAMETRIC BY PTC INC, 2025102','CREO PARAMETRIC BY PTC INC, 2025102','');
FILE_SCHEMA((
'AP242_MANAGED_MODEL_BASED_3D_ENGINEERING_MIM_LF { 1 0 10303 442 1 1 4 }'));
ENDSEC;
DATA;
#18=DIRECTION('',(1.E0,0.E0,0.E0));
#19=VECTOR('',#18,1.240157480315E-1);
#20=CARTESIAN_POINT('',(-6.200787401575E-2,-1.574803149606E-1,0.E0));
#21=LINE('',#20,#19);
#22=DRAUGHTING_PRE_DEFINED_CURVE_FONT('continuous');
#23=CURVE_STYLE('',#22,POSITIVE_LENGTH_MEASURE(2.E-2),#1);
#24=PRESENTATION_STYLE_ASSIGNMENT((#23));
#25=STYLED_ITEM('',(#24),#21);
#26=CARTESIAN_POINT('',(6.200787401575E-2,1.643700787402E-1,0.E0));
#27=DIRECTION('',(0.E0,0.E0,-1.E0));
#28=DIRECTION('',(1.E0,0.E0,0.E0));
#29=AXIS2_PLACEMENT_3D('',#26,#27,#28);
#31=CURVE_STYLE('',#22,POSITIVE_LENGTH_MEASURE(2.E-2),#1);
#32=PRESENTATION_STYLE_ASSIGNMENT((#31));
#33=STYLED_ITEM('',(#32),#30);
#34=CARTESIAN_POINT('',(6.200787401575E-2,0.E0,0.E0));
#35=DIRECTION('',(-1.E0,0.E0,0.E0));
#36=DIRECTION('',(0.E0,1.E0,0.E0));
#37=AXIS2_PLACEMENT_3D('',#34,#35,#36);
#39=CURVE_STYLE('',#22,POSITIVE_LENGTH_MEASURE(2.E-2),#1);
#40=PRESENTATION_STYLE_ASSIGNMENT((#39));
#41=STYLED_ITEM('',(#40),#38);
#42=CARTESIAN_POINT('',(6.200787401575E-2,0.E0,0.E0));
#43=DIRECTION('',(-1.E0,0.E0,0.E0));
#44=DIRECTION('',(0.E0,-1.E0,0.E0));
#45=AXIS2_PLACEMENT_3D('',#42,#43,#44);
#47=CURVE_STYLE('',#22,POSITIVE_LENGTH_MEASURE(2.E-2),#1);
#48=PRESENTATION_STYLE_ASSIGNMENT((#47));
#49=STYLED_ITEM('',(#48),#46);
#50=CARTESIAN_POINT('',(6.200787401575E-2,-1.643700787402E-1,0.E0));
#51=DIRECTION('',(0.E0,0.E0,1.E0));
#52=DIRECTION('',(1.E0,0.E0,0.E0));
#53=AXIS2_PLACEMENT_3D('',#50,#51,#52);
#55=CURVE_STYLE('',#22,POSITIVE_LENGTH_MEASURE(2.E-2),#1);
#56=PRESENTATION_STYLE_ASSIGNMENT((#55));
#57=STYLED_ITEM('',(#56),#54);
#58=DIRECTION('',(1.E0,0.E0,0.E0));
#59=VECTOR('',#58,1.240157480315E-1);
#60=CARTESIAN_POINT('',(-6.200787401575E-2,1.574803149606E-1,0.E0));
#61=LINE('',#60,#59);
#62=CURVE_STYLE('',#22,POSITIVE_LENGTH_MEASURE(2.E-2),#1);
#63=PRESENTATION_STYLE_ASSIGNMENT((#62));
#64=STYLED_ITEM('',(#63),#61);
#65=CARTESIAN_POINT('',(-6.200787401575E-2,-1.643700787402E-1,0.E0));
#66=DIRECTION('',(0.E0,0.E0,1.E0));
#67=DIRECTION('',(0.E0,1.E0,0.E0));
#68=AXIS2_PLACEMENT_3D('',#65,#66,#67);
#70=CURVE_STYLE('',#22,POSITIVE_LENGTH_MEASURE(2.E-2),#1);
#71=PRESENTATION_STYLE_ASSIGNMENT((#70));
#72=STYLED_ITEM('',(#71),#69);
#73=CARTESIAN_POINT('',(-6.200787401575E-2,0.E0,0.E0));
#74=DIRECTION('',(1.E0,0.E0,0.E0));
#75=DIRECTION('',(0.E0,1.E0,0.E0));
#76=AXIS2_PLACEMENT_3D('',#73,#74,#75);
#78=CURVE_STYLE('',#22,POSITIVE_LENGTH_MEASURE(2.E-2),#1);
#79=PRESENTATION_STYLE_ASSIGNMENT((#78));
#80=STYLED_ITEM('',(#79),#77);
#81=CARTESIAN_POINT('',(-6.889763779528E-2,0.E0,0.E0));
#82=DIRECTION('',(-1.E0,0.E0,0.E0));
#83=DIRECTION('',(0.E0,1.E0,0.E0));
#84=AXIS2_PLACEMENT_3D('',#81,#82,#83);
#86=CURVE_STYLE('',#22,POSITIVE_LENGTH_MEASURE(2.E-2),#1);
#87=PRESENTATION_STYLE_ASSIGNMENT((#86));
#88=STYLED_ITEM('',(#87),#85);
#89=CARTESIAN_POINT('',(-6.889763779528E-2,0.E0,0.E0));
#90=DIRECTION('',(-1.E0,0.E0,0.E0));
#91=DIRECTION('',(0.E0,-1.E0,0.E0));
#92=AXIS2_PLACEMENT_3D('',#89,#90,#91);
#94=CURVE_STYLE('',#22,POSITIVE_LENGTH_MEASURE(2.E-2),#1);
#95=PRESENTATION_STYLE_ASSIGNMENT((#94));
#96=STYLED_ITEM('',(#95),#93);
#97=CARTESIAN_POINT('',(-6.889763779528E-2,0.E0,0.E0));
#98=DIRECTION('',(1.E0,0.E0,0.E0));
#99=DIRECTION('',(0.E0,1.E0,0.E0));
#100=AXIS2_PLACEMENT_3D('',#97,#98,#99);
#102=CURVE_STYLE('',#22,POSITIVE_LENGTH_MEASURE(2.E-2),#1);
#103=PRESENTATION_STYLE_ASSIGNMENT((#102));
#104=STYLED_ITEM('',(#103),#101);
#105=CARTESIAN_POINT('',(-6.889763779528E-2,0.E0,0.E0));
#106=DIRECTION('',(1.E0,0.E0,0.E0));
#107=DIRECTION('',(0.E0,-1.E0,0.E0));
#108=AXIS2_PLACEMENT_3D('',#105,#106,#107);
#110=CURVE_STYLE('',#22,POSITIVE_LENGTH_MEASURE(2.E-2),#1);
#111=PRESENTATION_STYLE_ASSIGNMENT((#110));
#112=STYLED_ITEM('',(#111),#109);
#113=DIRECTION('',(-7.071067811865E-1,7.071067811865E-1,0.E0));
#114=VECTOR('',#113,1.252748234386E-3);
#115=CARTESIAN_POINT('',(-6.801181102362E-2,-1.776282603346E-1,0.E0));
#116=LINE('',#115,#114);
#117=CURVE_STYLE('',#22,POSITIVE_LENGTH_MEASURE(2.E-2),#1);
#118=PRESENTATION_STYLE_ASSIGNMENT((#117));
#119=STYLED_ITEM('',(#118),#116);
#120=CARTESIAN_POINT('',(-6.801181102362E-2,0.E0,0.E0));
#121=DIRECTION('',(-1.E0,0.E0,0.E0));
#122=DIRECTION('',(0.E0,1.E0,0.E0));
#123=AXIS2_PLACEMENT_3D('',#120,#121,#122);
#125=CURVE_STYLE('',#22,POSITIVE_LENGTH_MEASURE(2.E-2),#1);
#126=PRESENTATION_STYLE_ASSIGNMENT((#125));
#127=STYLED_ITEM('',(#126),#124);
#128=DIRECTION('',(-7.071067811865E-1,-7.071067811866E-1,0.E0));
#129=VECTOR('',#128,1.252748234386E-3);
#130=CARTESIAN_POINT('',(-6.801181102362E-2,1.776282603346E-1,0.E0));
#131=LINE('',#130,#129);
#132=CURVE_STYLE('',#22,POSITIVE_LENGTH_MEASURE(2.E-2),#1);
#133=PRESENTATION_STYLE_ASSIGNMENT((#132));
#134=STYLED_ITEM('',(#133),#131);
#135=CARTESIAN_POINT('',(-6.801181102362E-2,0.E0,0.E0));
#136=DIRECTION('',(-1.E0,0.E0,0.E0));
#137=DIRECTION('',(0.E0,-1.E0,0.E0));
#138=AXIS2_PLACEMENT_3D('',#135,#136,#137);
#140=CURVE_STYLE('',#22,POSITIVE_LENGTH_MEASURE(2.E-2),#1);
#141=PRESENTATION_STYLE_ASSIGNMENT((#140));
#142=STYLED_ITEM('',(#141),#139);
#143=DIRECTION('',(1.E0,0.E0,0.E0));
#144=VECTOR('',#143,6.380720964567E-3);
#145=CARTESIAN_POINT('',(-6.801181102362E-2,-1.776282603346E-1,0.E0));
#146=LINE('',#145,#144);
#147=CURVE_STYLE('',#22,POSITIVE_LENGTH_MEASURE(2.E-2),#1);
#148=PRESENTATION_STYLE_ASSIGNMENT((#147));
#149=STYLED_ITEM('',(#148),#146);
#150=CARTESIAN_POINT('',(-6.163109005906E-2,1.821011230668E-1,0.E0));
#151=DIRECTION('',(0.E0,0.E0,-1.E0));
#152=DIRECTION('',(9.747512729156E-1,-2.232934301530E-1,0.E0));
#153=AXIS2_PLACEMENT_3D('',#150,#151,#152);
#155=CURVE_STYLE('',#22,POSITIVE_LENGTH_MEASURE(2.E-2),#1);
#156=PRESENTATION_STYLE_ASSIGNMENT((#155));
#157=STYLED_ITEM('',(#156),#154);
#158=CARTESIAN_POINT('',(-6.163109005906E-2,0.E0,0.E0));
#159=DIRECTION('',(1.E0,0.E0,0.E0));
#160=DIRECTION('',(0.E0,1.E0,0.E0));
#161=AXIS2_PLACEMENT_3D('',#158,#159,#160);
#163=CURVE_STYLE('',#22,POSITIVE_LENGTH_MEASURE(2.E-2),#1);
#164=PRESENTATION_STYLE_ASSIGNMENT((#163));
#165=STYLED_ITEM('',(#164),#162);
#166=CARTESIAN_POINT('',(-6.163109005906E-2,0.E0,0.E0));
#167=DIRECTION('',(1.E0,0.E0,0.E0));
#168=DIRECTION('',(0.E0,-1.E0,0.E0));
#169=AXIS2_PLACEMENT_3D('',#166,#167,#168);
#171=CURVE_STYLE('',#22,POSITIVE_LENGTH_MEASURE(2.E-2),#1);
#172=PRESENTATION_STYLE_ASSIGNMENT((#171));
#173=STYLED_ITEM('',(#172),#170);
#174=CARTESIAN_POINT('',(-6.163109005906E-2,-1.821011230668E-1,0.E0));
#175=DIRECTION('',(0.E0,0.E0,1.E0));
#176=DIRECTION('',(9.747512729156E-1,2.232934301530E-1,0.E0));
#177=AXIS2_PLACEMENT_3D('',#174,#175,#176);
#179=CURVE_STYLE('',#22,POSITIVE_LENGTH_MEASURE(2.E-2),#1);
#180=PRESENTATION_STYLE_ASSIGNMENT((#179));
#181=STYLED_ITEM('',(#180),#178);
#182=DIRECTION('',(1.E0,0.E0,0.E0));
#183=VECTOR('',#182,6.380720964567E-3);
#184=CARTESIAN_POINT('',(-6.801181102362E-2,1.776282603346E-1,0.E0));
#185=LINE('',#184,#183);
#186=CURVE_STYLE('',#22,POSITIVE_LENGTH_MEASURE(2.E-2),#1);
#187=PRESENTATION_STYLE_ASSIGNMENT((#186));
#188=STYLED_ITEM('',(#187),#185);
#189=CARTESIAN_POINT('',(-5.727116141732E-2,0.E0,0.E0));
#190=DIRECTION('',(-1.E0,0.E0,0.E0));
#191=DIRECTION('',(0.E0,-1.E0,0.E0));
#192=AXIS2_PLACEMENT_3D('',#189,#190,#191);
#194=CURVE_STYLE('',#22,POSITIVE_LENGTH_MEASURE(2.E-2),#1);
#195=PRESENTATION_STYLE_ASSIGNMENT((#194));
#196=STYLED_ITEM('',(#195),#193);
#197=CARTESIAN_POINT('',(-5.727116141732E-2,0.E0,0.E0));
#198=DIRECTION('',(-1.E0,0.E0,0.E0));
#199=DIRECTION('',(0.E0,1.E0,0.E0));
#200=AXIS2_PLACEMENT_3D('',#197,#198,#199);
#202=CURVE_STYLE('',#22,POSITIVE_LENGTH_MEASURE(2.E-2),#1);
#203=PRESENTATION_STYLE_ASSIGNMENT((#202));
#204=STYLED_ITEM('',(#203),#201);
#205=CARTESIAN_POINT('',(-5.727116141732E-2,0.E0,0.E0));
#206=DIRECTION('',(1.E0,0.E0,0.E0));
#207=DIRECTION('',(0.E0,1.E0,0.E0));
#208=AXIS2_PLACEMENT_3D('',#205,#206,#207);
#210=CURVE_STYLE('',#22,POSITIVE_LENGTH_MEASURE(2.E-2),#1);
#211=PRESENTATION_STYLE_ASSIGNMENT((#210));
#212=STYLED_ITEM('',(#211),#209);
#213=CARTESIAN_POINT('',(-5.727116141732E-2,0.E0,0.E0));
#214=DIRECTION('',(1.E0,0.E0,0.E0));
#215=DIRECTION('',(0.E0,-1.E0,0.E0));
#216=AXIS2_PLACEMENT_3D('',#213,#214,#215);
#218=CURVE_STYLE('',#22,POSITIVE_LENGTH_MEASURE(2.E-2),#1);
#219=PRESENTATION_STYLE_ASSIGNMENT((#218));
#220=STYLED_ITEM('',(#219),#217);
#221=DIRECTION('',(1.E0,0.E0,0.E0));
#222=VECTOR('',#221,1.145423228346E-1);
#223=CARTESIAN_POINT('',(-5.727116141732E-2,-1.825196850394E-1,0.E0));
#224=LINE('',#223,#222);
#225=CURVE_STYLE('',#22,POSITIVE_LENGTH_MEASURE(2.E-2),#1);
#226=PRESENTATION_STYLE_ASSIGNMENT((#225));
#227=STYLED_ITEM('',(#226),#224);
#228=CARTESIAN_POINT('',(5.727116141732E-2,0.E0,0.E0));
#229=DIRECTION('',(1.E0,0.E0,0.E0));
#230=DIRECTION('',(0.E0,1.E0,0.E0));
#231=AXIS2_PLACEMENT_3D('',#228,#229,#230);
#233=CURVE_STYLE('',#22,POSITIVE_LENGTH_MEASURE(2.E-2),#1);
#234=PRESENTATION_STYLE_ASSIGNMENT((#233));
#235=STYLED_ITEM('',(#234),#232);
#236=CARTESIAN_POINT('',(5.727116141732E-2,0.E0,0.E0));
#237=DIRECTION('',(1.E0,0.E0,0.E0));
#238=DIRECTION('',(0.E0,-1.E0,0.E0));
#239=AXIS2_PLACEMENT_3D('',#236,#237,#238);
#241=CURVE_STYLE('',#22,POSITIVE_LENGTH_MEASURE(2.E-2),#1);
#242=PRESENTATION_STYLE_ASSIGNMENT((#241));
#243=STYLED_ITEM('',(#242),#240);
#244=CARTESIAN_POINT('',(5.727116141732E-2,0.E0,0.E0));
#245=DIRECTION('',(-1.E0,0.E0,0.E0));
#246=DIRECTION('',(0.E0,-1.E0,0.E0));
#247=AXIS2_PLACEMENT_3D('',#244,#245,#246);
#249=CURVE_STYLE('',#22,POSITIVE_LENGTH_MEASURE(2.E-2),#1);
#250=PRESENTATION_STYLE_ASSIGNMENT((#249));
#251=STYLED_ITEM('',(#250),#248);
#252=CARTESIAN_POINT('',(5.727116141732E-2,0.E0,0.E0));
#253=DIRECTION('',(-1.E0,0.E0,0.E0));
#254=DIRECTION('',(0.E0,1.E0,0.E0));
#255=AXIS2_PLACEMENT_3D('',#252,#253,#254);
#257=CURVE_STYLE('',#22,POSITIVE_LENGTH_MEASURE(2.E-2),#1);
#258=PRESENTATION_STYLE_ASSIGNMENT((#257));
#259=STYLED_ITEM('',(#258),#256);
#260=DIRECTION('',(1.E0,0.E0,0.E0));
#261=VECTOR('',#260,1.145423228346E-1);
#262=CARTESIAN_POINT('',(-5.727116141732E-2,1.825196850394E-1,0.E0));
#263=LINE('',#262,#261);
#264=CURVE_STYLE('',#22,POSITIVE_LENGTH_MEASURE(2.E-2),#1);
#265=PRESENTATION_STYLE_ASSIGNMENT((#264));
#266=STYLED_ITEM('',(#265),#263);
#267=CARTESIAN_POINT('',(6.163109005906E-2,1.821011230668E-1,0.E0));
#268=DIRECTION('',(0.E0,0.E0,-1.E0));
#269=DIRECTION('',(0.E0,-1.E0,0.E0));
#270=AXIS2_PLACEMENT_3D('',#267,#268,#269);
#272=CURVE_STYLE('',#22,POSITIVE_LENGTH_MEASURE(2.E-2),#1);
#273=PRESENTATION_STYLE_ASSIGNMENT((#272));
#274=STYLED_ITEM('',(#273),#271);
#275=CARTESIAN_POINT('',(6.163109005906E-2,0.E0,0.E0));
#276=DIRECTION('',(-1.E0,0.E0,0.E0));
#277=DIRECTION('',(0.E0,-1.E0,0.E0));
#278=AXIS2_PLACEMENT_3D('',#275,#276,#277);
#280=CURVE_STYLE('',#22,POSITIVE_LENGTH_MEASURE(2.E-2),#1);
#281=PRESENTATION_STYLE_ASSIGNMENT((#280));
#282=STYLED_ITEM('',(#281),#279);
#283=CARTESIAN_POINT('',(6.163109005906E-2,-1.821011230668E-1,0.E0));
#284=DIRECTION('',(0.E0,0.E0,1.E0));
#285=DIRECTION('',(0.E0,1.E0,0.E0));
#286=AXIS2_PLACEMENT_3D('',#283,#284,#285);
#288=CURVE_STYLE('',#22,POSITIVE_LENGTH_MEASURE(2.E-2),#1);
#289=PRESENTATION_STYLE_ASSIGNMENT((#288));
#290=STYLED_ITEM('',(#289),#287);
#291=CARTESIAN_POINT('',(6.163109005906E-2,0.E0,0.E0));
#292=DIRECTION('',(-1.E0,0.E0,0.E0));
#293=DIRECTION('',(0.E0,1.E0,0.E0));
#294=AXIS2_PLACEMENT_3D('',#291,#292,#293);
#296=CURVE_STYLE('',#22,POSITIVE_LENGTH_MEASURE(2.E-2),#1);
#297=PRESENTATION_STYLE_ASSIGNMENT((#296));
#298=STYLED_ITEM('',(#297),#295);
#299=DIRECTION('',(1.E0,1.304973643406E-14,0.E0));
#300=VECTOR('',#299,6.380720964567E-3);
#301=CARTESIAN_POINT('',(6.163109005906E-2,1.776282603346E-1,0.E0));
#302=LINE('',#301,#300);
#303=CURVE_STYLE('',#22,POSITIVE_LENGTH_MEASURE(2.E-2),#1);
#304=PRESENTATION_STYLE_ASSIGNMENT((#303));
#305=STYLED_ITEM('',(#304),#302);
#306=DIRECTION('',(1.E0,-1.304973643406E-14,0.E0));
#307=VECTOR('',#306,6.380720964567E-3);
#308=CARTESIAN_POINT('',(6.163109005906E-2,-1.776282603346E-1,0.E0));
#309=LINE('',#308,#307);
#310=CURVE_STYLE('',#22,POSITIVE_LENGTH_MEASURE(2.E-2),#1);
#311=PRESENTATION_STYLE_ASSIGNMENT((#310));
#312=STYLED_ITEM('',(#311),#309);
#313=DIRECTION('',(7.071067811865E-1,7.071067811866E-1,0.E0));
#314=VECTOR('',#313,1.252748234386E-3);
#315=CARTESIAN_POINT('',(6.801181102362E-2,-1.776282603346E-1,0.E0));
#316=LINE('',#315,#314);
#317=CURVE_STYLE('',#22,POSITIVE_LENGTH_MEASURE(2.E-2),#1);
#318=PRESENTATION_STYLE_ASSIGNMENT((#317));
#319=STYLED_ITEM('',(#318),#316);
#320=CARTESIAN_POINT('',(6.801181102362E-2,0.E0,0.E0));
#321=DIRECTION('',(1.E0,0.E0,0.E0));
#322=DIRECTION('',(0.E0,1.E0,0.E0));
#323=AXIS2_PLACEMENT_3D('',#320,#321,#322);
#325=CURVE_STYLE('',#22,POSITIVE_LENGTH_MEASURE(2.E-2),#1);
#326=PRESENTATION_STYLE_ASSIGNMENT((#325));
#327=STYLED_ITEM('',(#326),#324);
#328=CARTESIAN_POINT('',(6.889763779528E-2,0.E0,0.E0));
#329=DIRECTION('',(1.E0,0.E0,0.E0));
#330=DIRECTION('',(0.E0,1.E0,0.E0));
#331=AXIS2_PLACEMENT_3D('',#328,#329,#330);
#333=CURVE_STYLE('',#22,POSITIVE_LENGTH_MEASURE(2.E-2),#1);
#334=PRESENTATION_STYLE_ASSIGNMENT((#333));
#335=STYLED_ITEM('',(#334),#332);
#336=CARTESIAN_POINT('',(6.889763779528E-2,0.E0,0.E0));
#337=DIRECTION('',(1.E0,0.E0,0.E0));
#338=DIRECTION('',(0.E0,-1.E0,0.E0));
#339=AXIS2_PLACEMENT_3D('',#336,#337,#338);
#341=CURVE_STYLE('',#22,POSITIVE_LENGTH_MEASURE(2.E-2),#1);
#342=PRESENTATION_STYLE_ASSIGNMENT((#341));
#343=STYLED_ITEM('',(#342),#340);
#344=CARTESIAN_POINT('',(6.889763779528E-2,0.E0,0.E0));
#345=DIRECTION('',(-1.E0,0.E0,0.E0));
#346=DIRECTION('',(0.E0,-1.E0,0.E0));
#347=AXIS2_PLACEMENT_3D('',#344,#345,#346);
#349=CURVE_STYLE('',#22,POSITIVE_LENGTH_MEASURE(2.E-2),#1);
#350=PRESENTATION_STYLE_ASSIGNMENT((#349));
#351=STYLED_ITEM('',(#350),#348);
#352=CARTESIAN_POINT('',(6.889763779528E-2,0.E0,0.E0));
#353=DIRECTION('',(-1.E0,0.E0,0.E0));
#354=DIRECTION('',(0.E0,1.E0,0.E0));
#355=AXIS2_PLACEMENT_3D('',#352,#353,#354);
#357=CURVE_STYLE('',#22,POSITIVE_LENGTH_MEASURE(2.E-2),#1);
#358=PRESENTATION_STYLE_ASSIGNMENT((#357));
#359=STYLED_ITEM('',(#358),#356);
#360=DIRECTION('',(7.071067811865E-1,-7.071067811866E-1,0.E0));
#361=VECTOR('',#360,1.252748234386E-3);
#362=CARTESIAN_POINT('',(6.801181102362E-2,1.776282603346E-1,0.E0));
#363=LINE('',#362,#361);
#364=CURVE_STYLE('',#22,POSITIVE_LENGTH_MEASURE(2.E-2),#1);
#365=PRESENTATION_STYLE_ASSIGNMENT((#364));
#366=STYLED_ITEM('',(#365),#363);
#367=CARTESIAN_POINT('',(6.801181102362E-2,0.E0,0.E0));
#368=DIRECTION('',(1.E0,0.E0,0.E0));
#369=DIRECTION('',(0.E0,-1.E0,0.E0));
#370=AXIS2_PLACEMENT_3D('',#367,#368,#369);
#372=CURVE_STYLE('',#22,POSITIVE_LENGTH_MEASURE(2.E-2),#1);
#373=PRESENTATION_STYLE_ASSIGNMENT((#372));
#374=STYLED_ITEM('',(#373),#371);
#375=CARTESIAN_POINT('',(-6.200787401575E-2,1.643700787402E-1,0.E0));
#376=DIRECTION('',(0.E0,0.E0,-1.E0));
#377=DIRECTION('',(0.E0,-1.E0,0.E0));
#378=AXIS2_PLACEMENT_3D('',#375,#376,#377);
#380=CURVE_STYLE('',#22,POSITIVE_LENGTH_MEASURE(2.E-2),#1);
#381=PRESENTATION_STYLE_ASSIGNMENT((#380));
#382=STYLED_ITEM('',(#381),#379);
#383=CARTESIAN_POINT('',(-6.200787401575E-2,0.E0,0.E0));
#384=DIRECTION('',(1.E0,0.E0,0.E0));
#385=DIRECTION('',(0.E0,-1.E0,0.E0));
#386=AXIS2_PLACEMENT_3D('',#383,#384,#385);
#388=CURVE_STYLE('',#22,POSITIVE_LENGTH_MEASURE(2.E-2),#1);
#389=PRESENTATION_STYLE_ASSIGNMENT((#388));
#390=STYLED_ITEM('',(#389),#387);
#391=CARTESIAN_POINT('',(6.163109005906E-2,-1.776282603346E-1,0.E0));
#392=CARTESIAN_POINT('',(6.163109005906E-2,1.776282603346E-1,0.E0));
#393=VERTEX_POINT('',#391);
#394=VERTEX_POINT('',#392);
#395=CARTESIAN_POINT('',(6.889763779528E-2,1.643700787402E-1,0.E0));
#396=CARTESIAN_POINT('',(6.200787401575E-2,1.574803149606E-1,0.E0));
#397=VERTEX_POINT('',#395);
#398=VERTEX_POINT('',#396);
#399=CARTESIAN_POINT('',(-6.200787401575E-2,1.574803149606E-1,0.E0));
#400=VERTEX_POINT('',#399);
#401=CARTESIAN_POINT('',(5.727116141732E-2,-1.811023622047E-1,0.E0));
#402=VERTEX_POINT('',#401);
#403=CARTESIAN_POINT('',(6.801181102362E-2,-1.776282603346E-1,0.E0));
#404=VERTEX_POINT('',#403);
#405=CARTESIAN_POINT('',(6.200787401575E-2,-1.574803149606E-1,0.E0));
#406=VERTEX_POINT('',#405);
#407=CARTESIAN_POINT('',(-5.727116141732E-2,-1.811023622047E-1,0.E0));
#408=CARTESIAN_POINT('',(-5.727116141732E-2,1.811023622047E-1,0.E0));
#409=VERTEX_POINT('',#407);
#410=VERTEX_POINT('',#408);
#411=CARTESIAN_POINT('',(5.727116141732E-2,1.811023622047E-1,0.E0));
#412=VERTEX_POINT('',#411);
#413=CARTESIAN_POINT('',(-6.801181102362E-2,-1.776282603346E-1,0.E0));
#414=CARTESIAN_POINT('',(-6.889763779528E-2,-1.767424335630E-1,0.E0));
#415=VERTEX_POINT('',#413);
#416=VERTEX_POINT('',#414);
#417=CARTESIAN_POINT('',(-6.801181102362E-2,1.776282603346E-1,0.E0));
#418=CARTESIAN_POINT('',(-6.163109005906E-2,1.776282603346E-1,0.E0));
#419=VERTEX_POINT('',#417);
#420=VERTEX_POINT('',#418);
#421=CARTESIAN_POINT('',(6.889763779528E-2,-1.767424335630E-1,0.E0));
#422=CARTESIAN_POINT('',(6.889763779528E-2,1.767424335630E-1,0.E0));
#423=VERTEX_POINT('',#421);
#424=VERTEX_POINT('',#422);
#425=CARTESIAN_POINT('',(-6.889763779528E-2,1.643700787402E-1,0.E0));
#426=VERTEX_POINT('',#425);
#427=CARTESIAN_POINT('',(-6.163109005906E-2,-1.776282603346E-1,0.E0));
#428=VERTEX_POINT('',#427);
#429=CARTESIAN_POINT('',(6.801181102362E-2,1.776282603346E-1,0.E0));
#430=VERTEX_POINT('',#429);
#431=CARTESIAN_POINT('',(-6.200787401575E-2,-1.574803149606E-1,0.E0));
#432=CARTESIAN_POINT('',(-6.889763779528E-2,-1.643700787402E-1,0.E0));
#433=VERTEX_POINT('',#431);
#434=VERTEX_POINT('',#432);
#435=CARTESIAN_POINT('',(-5.727116141732E-2,-1.825196850394E-1,0.E0));
#436=CARTESIAN_POINT('',(5.727116141732E-2,-1.825196850394E-1,0.E0));
#437=VERTEX_POINT('',#435);
#438=VERTEX_POINT('',#436);
#439=CARTESIAN_POINT('',(-5.727116141732E-2,1.825196850394E-1,0.E0));
#440=CARTESIAN_POINT('',(5.727116141732E-2,1.825196850394E-1,0.E0));
#441=VERTEX_POINT('',#439);
#442=VERTEX_POINT('',#440);
#443=CARTESIAN_POINT('',(-6.889763779528E-2,1.767424335630E-1,0.E0));
#444=VERTEX_POINT('',#443);
#445=CARTESIAN_POINT('',(6.889763779528E-2,-1.643700787402E-1,0.E0));
#446=VERTEX_POINT('',#445);
#447=CARTESIAN_POINT('',(-6.200787401575E-2,0.E0,0.E0));
#448=DIRECTION('',(-1.E0,0.E0,0.E0));
#449=DIRECTION('',(0.E0,-1.E0,0.E0));
#450=AXIS2_PLACEMENT_3D('',#447,#448,#449);
#451=CYLINDRICAL_SURFACE('',#450,1.574803149606E-1);
#453=ORIENTED_EDGE('',*,*,#452,.T.);
#455=ORIENTED_EDGE('',*,*,#454,.F.);
#457=ORIENTED_EDGE('',*,*,#456,.T.);
#459=ORIENTED_EDGE('',*,*,#458,.T.);
#460=EDGE_LOOP('',(#453,#455,#457,#459));
#461=FACE_OUTER_BOUND('',#460,.F.);
#463=CARTESIAN_POINT('',(6.200787401575E-2,0.E0,0.E0));
#464=DIRECTION('',(-1.E0,0.E0,0.E0));
#465=DIRECTION('',(0.E0,-1.E0,0.E0));
#466=AXIS2_PLACEMENT_3D('',#463,#464,#465);
#467=TOROIDAL_SURFACE('',#466,1.643700787402E-1,6.889763779528E-3);
#469=ORIENTED_EDGE('',*,*,#468,.F.);
#471=ORIENTED_EDGE('',*,*,#470,.T.);
#473=ORIENTED_EDGE('',*,*,#472,.T.);
#474=ORIENTED_EDGE('',*,*,#452,.F.);
#475=EDGE_LOOP('',(#469,#471,#473,#474));
#476=FACE_OUTER_BOUND('',#475,.F.);
#478=CARTESIAN_POINT('',(6.200787401575E-2,0.E0,0.E0));
#479=DIRECTION('',(-1.E0,0.E0,0.E0));
#480=DIRECTION('',(0.E0,-1.E0,0.E0));
#481=AXIS2_PLACEMENT_3D('',#478,#479,#480);
#482=TOROIDAL_SURFACE('',#481,1.643700787402E-1,6.889763779528E-3);
#484=ORIENTED_EDGE('',*,*,#483,.F.);
#485=ORIENTED_EDGE('',*,*,#472,.F.);
#487=ORIENTED_EDGE('',*,*,#486,.T.);
#488=ORIENTED_EDGE('',*,*,#468,.T.);
#489=EDGE_LOOP('',(#484,#485,#487,#488));
#490=FACE_OUTER_BOUND('',#489,.F.);
#492=CARTESIAN_POINT('',(-6.200787401575E-2,0.E0,0.E0));
#493=DIRECTION('',(-1.E0,0.E0,0.E0));
#494=DIRECTION('',(0.E0,-1.E0,0.E0));
#495=AXIS2_PLACEMENT_3D('',#492,#493,#494);
#496=CYLINDRICAL_SURFACE('',#495,1.574803149606E-1);
#497=ORIENTED_EDGE('',*,*,#458,.F.);
#499=ORIENTED_EDGE('',*,*,#498,.T.);
#500=ORIENTED_EDGE('',*,*,#454,.T.);
#501=ORIENTED_EDGE('',*,*,#483,.T.);
#502=EDGE_LOOP('',(#497,#499,#500,#501));
#503=FACE_OUTER_BOUND('',#502,.F.);
#505=CARTESIAN_POINT('',(-6.200787401575E-2,0.E0,0.E0));
#506=DIRECTION('',(-1.E0,0.E0,0.E0));
#507=DIRECTION('',(0.E0,-1.E0,0.E0));
#508=AXIS2_PLACEMENT_3D('',#505,#506,#507);
#509=TOROIDAL_SURFACE('',#508,1.643700787402E-1,6.889763779528E-3);
#511=ORIENTED_EDGE('',*,*,#510,.T.);
#513=ORIENTED_EDGE('',*,*,#512,.F.);
#514=ORIENTED_EDGE('',*,*,#498,.F.);
#516=ORIENTED_EDGE('',*,*,#515,.T.);
#517=EDGE_LOOP('',(#511,#513,#514,#516));
#518=FACE_OUTER_BOUND('',#517,.F.);
#520=CARTESIAN_POINT('',(-6.889763779528E-2,1.643700787402E-1,0.E0));
#521=DIRECTION('',(1.E0,0.E0,0.E0));
#522=DIRECTION('',(0.E0,1.E0,0.E0));
#523=AXIS2_PLACEMENT_3D('',#520,#521,#522);
#524=PLANE('',#523);
#526=ORIENTED_EDGE('',*,*,#525,.F.);
#528=ORIENTED_EDGE('',*,*,#527,.F.);
#529=EDGE_LOOP('',(#526,#528));
#530=FACE_OUTER_BOUND('',#529,.F.);
#531=ORIENTED_EDGE('',*,*,#510,.F.);
#533=ORIENTED_EDGE('',*,*,#532,.F.);
#534=EDGE_LOOP('',(#531,#533));
#535=FACE_BOUND('',#534,.F.);
#537=CARTESIAN_POINT('',(-6.845472440945E-2,0.E0,0.E0));
#538=DIRECTION('',(1.E0,0.E0,0.E0));
#539=DIRECTION('',(0.E0,1.E0,0.E0));
#540=AXIS2_PLACEMENT_3D('',#537,#538,#539);
#541=CONICAL_SURFACE('',#540,1.771853469488E-1,4.5E1);
#543=ORIENTED_EDGE('',*,*,#542,.F.);
#545=ORIENTED_EDGE('',*,*,#544,.F.);
#547=ORIENTED_EDGE('',*,*,#546,.T.);
#548=ORIENTED_EDGE('',*,*,#525,.T.);
#549=EDGE_LOOP('',(#543,#545,#547,#548));
#550=FACE_OUTER_BOUND('',#549,.F.);
#552=CARTESIAN_POINT('',(-6.845472440945E-2,0.E0,0.E0));
#553=DIRECTION('',(1.E0,0.E0,0.E0));
#554=DIRECTION('',(0.E0,1.E0,0.E0));
#555=AXIS2_PLACEMENT_3D('',#552,#553,#554);
#556=CONICAL_SURFACE('',#555,1.771853469488E-1,4.5E1);
#557=ORIENTED_EDGE('',*,*,#527,.T.);
#558=ORIENTED_EDGE('',*,*,#546,.F.);
#560=ORIENTED_EDGE('',*,*,#559,.F.);
#561=ORIENTED_EDGE('',*,*,#542,.T.);
#562=EDGE_LOOP('',(#557,#558,#560,#561));
#563=FACE_OUTER_BOUND('',#562,.F.);
#565=CARTESIAN_POINT('',(-6.200787401575E-2,0.E0,0.E0));
#566=DIRECTION('',(-1.E0,0.E0,0.E0));
#567=DIRECTION('',(0.E0,-1.E0,0.E0));
#568=AXIS2_PLACEMENT_3D('',#565,#566,#567);
#569=CYLINDRICAL_SURFACE('',#568,1.776282603346E-1);
#571=ORIENTED_EDGE('',*,*,#570,.T.);
#573=ORIENTED_EDGE('',*,*,#572,.F.);
#574=ORIENTED_EDGE('',*,*,#559,.T.);
#576=ORIENTED_EDGE('',*,*,#575,.T.);
#577=EDGE_LOOP('',(#571,#573,#574,#576));
#578=FACE_OUTER_BOUND('',#577,.F.);
#580=CARTESIAN_POINT('',(-6.163109005906E-2,0.E0,0.E0));
#581=DIRECTION('',(-1.E0,0.E0,0.E0));
#582=DIRECTION('',(0.E0,-1.E0,0.E0));
#583=AXIS2_PLACEMENT_3D('',#580,#581,#582);
#584=TOROIDAL_SURFACE('',#583,1.821011230668E-1,4.472862732142E-3);
#586=ORIENTED_EDGE('',*,*,#585,.F.);
#588=ORIENTED_EDGE('',*,*,#587,.T.);
#590=ORIENTED_EDGE('',*,*,#589,.T.);
#591=ORIENTED_EDGE('',*,*,#570,.F.);
#592=EDGE_LOOP('',(#586,#588,#590,#591));
#593=FACE_OUTER_BOUND('',#592,.F.);
#595=CARTESIAN_POINT('',(-6.163109005906E-2,0.E0,0.E0));
#596=DIRECTION('',(-1.E0,0.E0,0.E0));
#597=DIRECTION('',(0.E0,-1.E0,0.E0));
#598=AXIS2_PLACEMENT_3D('',#595,#596,#597);
#599=TOROIDAL_SURFACE('',#598,1.821011230668E-1,4.472862732142E-3);
#601=ORIENTED_EDGE('',*,*,#600,.F.);
#602=ORIENTED_EDGE('',*,*,#589,.F.);
#604=ORIENTED_EDGE('',*,*,#603,.T.);
#605=ORIENTED_EDGE('',*,*,#585,.T.);
#606=EDGE_LOOP('',(#601,#602,#604,#605));
#607=FACE_OUTER_BOUND('',#606,.F.);
#609=CARTESIAN_POINT('',(-6.200787401575E-2,0.E0,0.E0));
#610=DIRECTION('',(-1.E0,0.E0,0.E0));
#611=DIRECTION('',(0.E0,-1.E0,0.E0));
#612=AXIS2_PLACEMENT_3D('',#609,#610,#611);
#613=CYLINDRICAL_SURFACE('',#612,1.776282603346E-1);
#614=ORIENTED_EDGE('',*,*,#575,.F.);
#615=ORIENTED_EDGE('',*,*,#544,.T.);
#616=ORIENTED_EDGE('',*,*,#572,.T.);
#617=ORIENTED_EDGE('',*,*,#600,.T.);
#618=EDGE_LOOP('',(#614,#615,#616,#617));
#619=FACE_OUTER_BOUND('',#618,.F.);
#621=CARTESIAN_POINT('',(-5.727116141732E-2,1.811023622047E-1,0.E0));
#622=DIRECTION('',(1.E0,0.E0,0.E0));
#623=DIRECTION('',(0.E0,1.E0,0.E0));
#624=AXIS2_PLACEMENT_3D('',#621,#622,#623);
#625=PLANE('',#624);
#627=ORIENTED_EDGE('',*,*,#626,.F.);
#629=ORIENTED_EDGE('',*,*,#628,.F.);
#630=EDGE_LOOP('',(#627,#629));
#631=FACE_OUTER_BOUND('',#630,.F.);
#632=ORIENTED_EDGE('',*,*,#587,.F.);
#633=ORIENTED_EDGE('',*,*,#603,.F.);
#634=EDGE_LOOP('',(#632,#633));
#635=FACE_BOUND('',#634,.F.);
#637=CARTESIAN_POINT('',(-6.200787401575E-2,0.E0,0.E0));
#638=DIRECTION('',(-1.E0,0.E0,0.E0));
#639=DIRECTION('',(0.E0,-1.E0,0.E0));
#640=AXIS2_PLACEMENT_3D('',#637,#638,#639);
#641=CYLINDRICAL_SURFACE('',#640,1.825196850394E-1);
#643=ORIENTED_EDGE('',*,*,#642,.T.);
#645=ORIENTED_EDGE('',*,*,#644,.F.);
#646=ORIENTED_EDGE('',*,*,#626,.T.);
#648=ORIENTED_EDGE('',*,*,#647,.T.);
#649=EDGE_LOOP('',(#643,#645,#646,#648));
#650=FACE_OUTER_BOUND('',#649,.F.);
#652=CARTESIAN_POINT('',(5.727116141732E-2,1.825196850394E-1,0.E0));
#653=DIRECTION('',(-1.E0,0.E0,0.E0));
#654=DIRECTION('',(0.E0,-1.E0,0.E0));
#655=AXIS2_PLACEMENT_3D('',#652,#653,#654);
#656=PLANE('',#655);
#657=ORIENTED_EDGE('',*,*,#642,.F.);
#659=ORIENTED_EDGE('',*,*,#658,.F.);
#660=EDGE_LOOP('',(#657,#659));
#661=FACE_OUTER_BOUND('',#660,.F.);
#663=ORIENTED_EDGE('',*,*,#662,.F.);
#665=ORIENTED_EDGE('',*,*,#664,.F.);
#666=EDGE_LOOP('',(#663,#665));
#667=FACE_BOUND('',#666,.F.);
#669=CARTESIAN_POINT('',(-6.200787401575E-2,0.E0,0.E0));
#670=DIRECTION('',(-1.E0,0.E0,0.E0));
#671=DIRECTION('',(0.E0,-1.E0,0.E0));
#672=AXIS2_PLACEMENT_3D('',#669,#670,#671);
#673=CYLINDRICAL_SURFACE('',#672,1.825196850394E-1);
#674=ORIENTED_EDGE('',*,*,#647,.F.);
#675=ORIENTED_EDGE('',*,*,#628,.T.);
#676=ORIENTED_EDGE('',*,*,#644,.T.);
#677=ORIENTED_EDGE('',*,*,#658,.T.);
#678=EDGE_LOOP('',(#674,#675,#676,#677));
#679=FACE_OUTER_BOUND('',#678,.F.);
#681=CARTESIAN_POINT('',(6.163109005906E-2,0.E0,0.E0));
#682=DIRECTION('',(-1.E0,0.E0,0.E0));
#683=DIRECTION('',(0.E0,-1.E0,0.E0));
#684=AXIS2_PLACEMENT_3D('',#681,#682,#683);
#685=TOROIDAL_SURFACE('',#684,1.821011230668E-1,4.472862732142E-3);
#687=ORIENTED_EDGE('',*,*,#686,.F.);
#689=ORIENTED_EDGE('',*,*,#688,.F.);
#691=ORIENTED_EDGE('',*,*,#690,.T.);
#692=ORIENTED_EDGE('',*,*,#662,.T.);
#693=EDGE_LOOP('',(#687,#689,#691,#692));
#694=FACE_OUTER_BOUND('',#693,.F.);
#696=CARTESIAN_POINT('',(6.163109005906E-2,0.E0,0.E0));
#697=DIRECTION('',(-1.E0,0.E0,0.E0));
#698=DIRECTION('',(0.E0,-1.E0,0.E0));
#699=AXIS2_PLACEMENT_3D('',#696,#697,#698);
#700=TOROIDAL_SURFACE('',#699,1.821011230668E-1,4.472862732142E-3);
#701=ORIENTED_EDGE('',*,*,#664,.T.);
#702=ORIENTED_EDGE('',*,*,#690,.F.);
#704=ORIENTED_EDGE('',*,*,#703,.F.);
#705=ORIENTED_EDGE('',*,*,#686,.T.);
#706=EDGE_LOOP('',(#701,#702,#704,#705));
#707=FACE_OUTER_BOUND('',#706,.F.);
#709=CARTESIAN_POINT('',(-6.200787401575E-2,0.E0,0.E0));
#710=DIRECTION('',(-1.E0,0.E0,0.E0));
#711=DIRECTION('',(0.E0,-1.E0,0.E0));
#712=AXIS2_PLACEMENT_3D('',#709,#710,#711);
#713=CYLINDRICAL_SURFACE('',#712,1.776282603346E-1);
#715=ORIENTED_EDGE('',*,*,#714,.F.);
#716=ORIENTED_EDGE('',*,*,#703,.T.);
#718=ORIENTED_EDGE('',*,*,#717,.T.);
#720=ORIENTED_EDGE('',*,*,#719,.T.);
#721=EDGE_LOOP('',(#715,#716,#718,#720));
#722=FACE_OUTER_BOUND('',#721,.F.);
#724=CARTESIAN_POINT('',(-6.200787401575E-2,0.E0,0.E0));
#725=DIRECTION('',(-1.E0,0.E0,0.E0));
#726=DIRECTION('',(0.E0,-1.E0,0.E0));
#727=AXIS2_PLACEMENT_3D('',#724,#725,#726);
#728=CYLINDRICAL_SURFACE('',#727,1.776282603346E-1);
#730=ORIENTED_EDGE('',*,*,#729,.T.);
#731=ORIENTED_EDGE('',*,*,#717,.F.);
#732=ORIENTED_EDGE('',*,*,#688,.T.);
#733=ORIENTED_EDGE('',*,*,#714,.T.);
#734=EDGE_LOOP('',(#730,#731,#732,#733));
#735=FACE_OUTER_BOUND('',#734,.F.);
#737=CARTESIAN_POINT('',(6.845472440945E-2,0.E0,0.E0));
#738=DIRECTION('',(-1.E0,0.E0,0.E0));
#739=DIRECTION('',(0.E0,-1.E0,0.E0));
#740=AXIS2_PLACEMENT_3D('',#737,#738,#739);
#741=CONICAL_SURFACE('',#740,1.771853469488E-1,4.5E1);
#743=ORIENTED_EDGE('',*,*,#742,.T.);
#745=ORIENTED_EDGE('',*,*,#744,.F.);
#746=ORIENTED_EDGE('',*,*,#729,.F.);
#748=ORIENTED_EDGE('',*,*,#747,.T.);
#749=EDGE_LOOP('',(#743,#745,#746,#748));
#750=FACE_OUTER_BOUND('',#749,.F.);
#752=CARTESIAN_POINT('',(6.889763779528E-2,1.643700787402E-1,0.E0));
#753=DIRECTION('',(-1.E0,0.E0,0.E0));
#754=DIRECTION('',(0.E0,-1.E0,0.E0));
#755=AXIS2_PLACEMENT_3D('',#752,#753,#754);
#756=PLANE('',#755);
#757=ORIENTED_EDGE('',*,*,#742,.F.);
#759=ORIENTED_EDGE('',*,*,#758,.F.);
#760=EDGE_LOOP('',(#757,#759));
#761=FACE_OUTER_BOUND('',#760,.F.);
#762=ORIENTED_EDGE('',*,*,#486,.F.);
#763=ORIENTED_EDGE('',*,*,#470,.F.);
#764=EDGE_LOOP('',(#762,#763));
#765=FACE_BOUND('',#764,.F.);
#767=CARTESIAN_POINT('',(6.845472440945E-2,0.E0,0.E0));
#768=DIRECTION('',(-1.E0,0.E0,0.E0));
#769=DIRECTION('',(0.E0,-1.E0,0.E0));
#770=AXIS2_PLACEMENT_3D('',#767,#768,#769);
#771=CONICAL_SURFACE('',#770,1.771853469488E-1,4.5E1);
#772=ORIENTED_EDGE('',*,*,#747,.F.);
#773=ORIENTED_EDGE('',*,*,#719,.F.);
#774=ORIENTED_EDGE('',*,*,#744,.T.);
#775=ORIENTED_EDGE('',*,*,#758,.T.);
#776=EDGE_LOOP('',(#772,#773,#774,#775));
#777=FACE_OUTER_BOUND('',#776,.F.);
#779=CARTESIAN_POINT('',(-6.200787401575E-2,0.E0,0.E0));
#780=DIRECTION('',(-1.E0,0.E0,0.E0));
#781=DIRECTION('',(0.E0,-1.E0,0.E0));
#782=AXIS2_PLACEMENT_3D('',#779,#780,#781);
#783=TOROIDAL_SURFACE('',#782,1.643700787402E-1,6.889763779528E-3);
#784=ORIENTED_EDGE('',*,*,#515,.F.);
#785=ORIENTED_EDGE('',*,*,#456,.F.);
#786=ORIENTED_EDGE('',*,*,#512,.T.);
#787=ORIENTED_EDGE('',*,*,#532,.T.);
#788=EDGE_LOOP('',(#784,#785,#786,#787));
#789=FACE_OUTER_BOUND('',#788,.F.);
#793=FILL_AREA_STYLE_COLOUR('',#1);
#794=FILL_AREA_STYLE('',(#793));
#795=SURFACE_STYLE_FILL_AREA(#794);
#796=SURFACE_SIDE_STYLE('',(#795));
#797=SURFACE_STYLE_USAGE(.BOTH.,#796);
#798=PRESENTATION_STYLE_ASSIGNMENT((#797));
#17=STYLED_ITEM('',(#798),#792);
#799=PRESENTATION_LAYER_ASSIGNMENT('NONE_34','',(#17,#462,#477,#491,#504,#519,
#536,#551,#564,#579,#594,#608,#620,#636,#651,#668,#680,#695,#708,#723,#736,#751,
#766,#778,#790));
#801=LENGTH_MEASURE_WITH_UNIT(LENGTH_MEASURE(2.54E1),#800);
#802=(CONVERSION_BASED_UNIT('INCH',#801)LENGTH_UNIT()NAMED_UNIT(*));
#804=PLANE_ANGLE_MEASURE_WITH_UNIT(PLANE_ANGLE_MEASURE(1.745329251994E-2),#803);
#805=(CONVERSION_BASED_UNIT('DEGREE',#804)NAMED_UNIT(*)PLANE_ANGLE_UNIT());
#807=UNCERTAINTY_MEASURE_WITH_UNIT(LENGTH_MEASURE(5.344667097947E-5),#802,
'closure',
'Maximum model space distance between geometric entities at asserted connectivities');
#809=CARTESIAN_POINT('',(0.E0,0.E0,0.E0));
#810=DIRECTION('',(0.E0,0.E0,1.E0));
#811=DIRECTION('',(1.E0,0.E0,0.E0));
#814=MECHANICAL_DESIGN_GEOMETRIC_PRESENTATION_REPRESENTATION('',(#25,#33,#41,
#49,#57,#64,#72,#80,#88,#96,#104,#112,#119,#127,#134,#142,#149,#157,#165,#173,
#181,#188,#196,#204,#212,#220,#227,#235,#243,#251,#259,#266,#274,#282,#290,#298,
#305,#312,#319,#327,#335,#343,#351,#359,#366,#374,#382,#390,#17),#808);
#815=APPLICATION_CONTEXT('automotive design');
#816=APPLICATION_PROTOCOL_DEFINITION('international standard',
'config_control_design',1994,#815);
#817=PRODUCT_DEFINITION_CONTEXT('',#815,'design');
#818=PRODUCT_CONTEXT('',#815,'mechanical');
#819=PRODUCT('REVOLVE1_2_','REVOLVE1_2_','NOT SPECIFIED',(#818));
#820=PRODUCT_DEFINITION_FORMATION_WITH_SPECIFIED_SOURCE('1','LAST_VERSION',#819,
.MADE.);
#828=LENGTH_MEASURE_WITH_UNIT(LENGTH_MEASURE(2.54E1),#827);
#829=(CONVERSION_BASED_UNIT('INCH',#828)LENGTH_UNIT()NAMED_UNIT(*));
#830=DERIVED_UNIT_ELEMENT(#829,2.E0);
#831=AREA_UNIT((#830));
#832=MEASURE_REPRESENTATION_ITEM('surface area measure',AREA_MEASURE(
2.168650459615E2),#831);
#837=LENGTH_MEASURE_WITH_UNIT(LENGTH_MEASURE(2.54E1),#836);
#838=(CONVERSION_BASED_UNIT('INCH',#837)LENGTH_UNIT()NAMED_UNIT(*));
#839=DERIVED_UNIT_ELEMENT(#838,3.E0);
#840=VOLUME_UNIT((#839));
#841=MEASURE_REPRESENTATION_ITEM('volume measure',VOLUME_MEASURE(
5.807843041080E1),#840);
#845=CARTESIAN_POINT('centre point',(0.E0,0.E0,-5.119210969361E-11));
#850=LENGTH_MEASURE_WITH_UNIT(LENGTH_MEASURE(2.54E1),#849);
#851=(CONVERSION_BASED_UNIT('INCH',#850)LENGTH_UNIT()NAMED_UNIT(*));
#852=DERIVED_UNIT_ELEMENT(#851,2.E0);
#853=AREA_UNIT((#852));
#854=MEASURE_REPRESENTATION_ITEM('surface area measure',AREA_MEASURE(
2.168650459615E2),#853);
#859=LENGTH_MEASURE_WITH_UNIT(LENGTH_MEASURE(2.54E1),#858);
#860=(CONVERSION_BASED_UNIT('INCH',#859)LENGTH_UNIT()NAMED_UNIT(*));
#861=DERIVED_UNIT_ELEMENT(#860,3.E0);
#862=VOLUME_UNIT((#861));
#863=MEASURE_REPRESENTATION_ITEM('volume measure',VOLUME_MEASURE(
5.807843041080E1),#862);
#867=CARTESIAN_POINT('centre point',(0.E0,0.E0,-5.119210969361E-11));
#1=COLOUR_RGB('',8.23529E-1,7.05882E-1,4.31373E-1);
#2=DRAUGHTING_PRE_DEFINED_COLOUR('green');
#3=COLOUR_RGB('',1.1E-2,1.2E-2,1.E0);
#4=COLOUR_RGB('',2.352941176471E-1,2.352941176471E-1,2.352941176471E-1);
#5=COLOUR_RGB('',4.1E-1,2.61589E-1,1.12848E-1);
#6=COLOUR_RGB('',5.04854E-1,1.5455E-2,1.5455E-2);
#7=COLOUR_RGB('',6.35294E-1,6.86275E-1,7.4902E-1);
#8=COLOUR_RGB('',6.40777E-1,6.40777E-1,6.40777E-1);
#9=COLOUR_RGB('',6.69062E-1,6.69903E-1,6.55217E-1);
#10=COLOUR_RGB('',8.23529E-1,7.05882E-1,4.31373E-1);
#11=COLOUR_RGB('',9.21569E-1,7.05882E-1,4.70588E-1);
#12=DRAUGHTING_PRE_DEFINED_COLOUR('red');
#13=DRAUGHTING_PRE_DEFINED_COLOUR('yellow');
#14=COLOUR_RGB('',1.E0,1.E0,5.3E-1);
#15=COLOUR_RGB('',1.E0,1.E0,9.49E-1);
#16=DRAUGHTING_PRE_DEFINED_COLOUR('white');
#30=CIRCLE('',#29,6.889763779528E-3);
#38=CIRCLE('',#37,1.574803149606E-1);
#46=CIRCLE('',#45,1.574803149606E-1);
#54=CIRCLE('',#53,6.889763779528E-3);
#69=CIRCLE('',#68,6.889763779528E-3);
#77=CIRCLE('',#76,1.574803149606E-1);
#85=CIRCLE('',#84,1.767424335630E-1);
#93=CIRCLE('',#92,1.767424335630E-1);
#101=CIRCLE('',#100,1.643700787402E-1);
#109=CIRCLE('',#108,1.643700787402E-1);
#124=CIRCLE('',#123,1.776282603346E-1);
#139=CIRCLE('',#138,1.776282603346E-1);
#154=CIRCLE('',#153,4.472862732142E-3);
#162=CIRCLE('',#161,1.776282603346E-1);
#170=CIRCLE('',#169,1.776282603346E-1);
#178=CIRCLE('',#177,4.472862732142E-3);
#193=CIRCLE('',#192,1.825196850394E-1);
#201=CIRCLE('',#200,1.825196850394E-1);
#209=CIRCLE('',#208,1.811023622047E-1);
#217=CIRCLE('',#216,1.811023622047E-1);
#232=CIRCLE('',#231,1.825196850394E-1);
#240=CIRCLE('',#239,1.825196850394E-1);
#248=CIRCLE('',#247,1.811023622047E-1);
#256=CIRCLE('',#255,1.811023622047E-1);
#271=CIRCLE('',#270,4.472862732142E-3);
#279=CIRCLE('',#278,1.776282603346E-1);
#287=CIRCLE('',#286,4.472862732142E-3);
#295=CIRCLE('',#294,1.776282603346E-1);
#324=CIRCLE('',#323,1.776282603346E-1);
#332=CIRCLE('',#331,1.767424335630E-1);
#340=CIRCLE('',#339,1.767424335630E-1);
#348=CIRCLE('',#347,1.643700787402E-1);
#356=CIRCLE('',#355,1.643700787402E-1);
#371=CIRCLE('',#370,1.776282603346E-1);
#379=CIRCLE('',#378,6.889763779528E-3);
#387=CIRCLE('',#386,1.574803149606E-1);
#452=EDGE_CURVE('',#398,#406,#38,.T.);
#454=EDGE_CURVE('',#433,#406,#21,.T.);
#456=EDGE_CURVE('',#433,#400,#387,.T.);
#458=EDGE_CURVE('',#400,#398,#61,.T.);
#462=ADVANCED_FACE('',(#461),#451,.F.);
#468=EDGE_CURVE('',#397,#398,#30,.T.);
#470=EDGE_CURVE('',#397,#446,#356,.T.);
#472=EDGE_CURVE('',#446,#406,#54,.T.);
#477=ADVANCED_FACE('',(#476),#467,.T.);
#483=EDGE_CURVE('',#406,#398,#46,.T.);
#486=EDGE_CURVE('',#446,#397,#348,.T.);
#491=ADVANCED_FACE('',(#490),#482,.T.);
#498=EDGE_CURVE('',#400,#433,#77,.T.);
#504=ADVANCED_FACE('',(#503),#496,.F.);
#510=EDGE_CURVE('',#426,#434,#101,.T.);
#512=EDGE_CURVE('',#433,#434,#69,.T.);
#515=EDGE_CURVE('',#400,#426,#379,.T.);
#519=ADVANCED_FACE('',(#518),#509,.T.);
#525=EDGE_CURVE('',#444,#416,#85,.T.);
#527=EDGE_CURVE('',#416,#444,#93,.T.);
#532=EDGE_CURVE('',#434,#426,#109,.T.);
#536=ADVANCED_FACE('',(#530,#535),#524,.F.);
#542=EDGE_CURVE('',#415,#416,#116,.T.);
#544=EDGE_CURVE('',#419,#415,#124,.T.);
#546=EDGE_CURVE('',#419,#444,#131,.T.);
#551=ADVANCED_FACE('',(#550),#541,.T.);
#559=EDGE_CURVE('',#415,#419,#139,.T.);
#564=ADVANCED_FACE('',(#563),#556,.T.);
#570=EDGE_CURVE('',#420,#428,#162,.T.);
#572=EDGE_CURVE('',#415,#428,#146,.T.);
#575=EDGE_CURVE('',#419,#420,#185,.T.);
#579=ADVANCED_FACE('',(#578),#569,.T.);
#585=EDGE_CURVE('',#410,#420,#154,.T.);
#587=EDGE_CURVE('',#410,#409,#209,.T.);
#589=EDGE_CURVE('',#409,#428,#178,.T.);
#594=ADVANCED_FACE('',(#593),#584,.F.);
#600=EDGE_CURVE('',#428,#420,#170,.T.);
#603=EDGE_CURVE('',#409,#410,#217,.T.);
#608=ADVANCED_FACE('',(#607),#599,.F.);
#620=ADVANCED_FACE('',(#619),#613,.T.);
#626=EDGE_CURVE('',#437,#441,#193,.T.);
#628=EDGE_CURVE('',#441,#437,#201,.T.);
#636=ADVANCED_FACE('',(#631,#635),#625,.F.);
#642=EDGE_CURVE('',#442,#438,#232,.T.);
#644=EDGE_CURVE('',#437,#438,#224,.T.);
#647=EDGE_CURVE('',#441,#442,#263,.T.);
#651=ADVANCED_FACE('',(#650),#641,.T.);
#658=EDGE_CURVE('',#438,#442,#240,.T.);
#662=EDGE_CURVE('',#402,#412,#248,.T.);
#664=EDGE_CURVE('',#412,#402,#256,.T.);
#668=ADVANCED_FACE('',(#661,#667),#656,.F.);
#680=ADVANCED_FACE('',(#679),#673,.T.);
#686=EDGE_CURVE('',#394,#412,#271,.T.);
#688=EDGE_CURVE('',#393,#394,#279,.T.);
#690=EDGE_CURVE('',#393,#402,#287,.T.);
#695=ADVANCED_FACE('',(#694),#685,.F.);
#703=EDGE_CURVE('',#394,#393,#295,.T.);
#708=ADVANCED_FACE('',(#707),#700,.F.);
#714=EDGE_CURVE('',#394,#430,#302,.T.);
#717=EDGE_CURVE('',#393,#404,#309,.T.);
#719=EDGE_CURVE('',#404,#430,#371,.T.);
#723=ADVANCED_FACE('',(#722),#713,.T.);
#729=EDGE_CURVE('',#430,#404,#324,.T.);
#736=ADVANCED_FACE('',(#735),#728,.T.);
#742=EDGE_CURVE('',#424,#423,#332,.T.);
#744=EDGE_CURVE('',#404,#423,#316,.T.);
#747=EDGE_CURVE('',#430,#424,#363,.T.);
#751=ADVANCED_FACE('',(#750),#741,.T.);
#758=EDGE_CURVE('',#423,#424,#340,.T.);
#766=ADVANCED_FACE('',(#761,#765),#756,.F.);
#778=ADVANCED_FACE('',(#777),#771,.T.);
#790=ADVANCED_FACE('',(#789),#783,.T.);
#791=CLOSED_SHELL('',(#462,#477,#491,#504,#519,#536,#551,#564,#579,#594,#608,
#620,#636,#651,#668,#680,#695,#708,#723,#736,#751,#766,#778,#790));
#792=MANIFOLD_SOLID_BREP('',#791);
#800=(LENGTH_UNIT()NAMED_UNIT(*)SI_UNIT(.MILLI.,.METRE.));
#803=(NAMED_UNIT(*)PLANE_ANGLE_UNIT()SI_UNIT($,.RADIAN.));
#806=(NAMED_UNIT(*)SI_UNIT($,.STERADIAN.)SOLID_ANGLE_UNIT());
#808=(GEOMETRIC_REPRESENTATION_CONTEXT(3)GLOBAL_UNCERTAINTY_ASSIGNED_CONTEXT((
#807))GLOBAL_UNIT_ASSIGNED_CONTEXT((#802,#805,#806))REPRESENTATION_CONTEXT
('ID1','3'));
#812=AXIS2_PLACEMENT_3D('',#809,#810,#811);
#813=ADVANCED_BREP_SHAPE_REPRESENTATION('',(#812,#792),#808);
#821=PRODUCT_DEFINITION('design','',#820,#817);
#822=PRODUCT_DEFINITION_SHAPE('','SHAPE FOR REVOLVE1_2_.',#821);
#823=SHAPE_ASPECT('','solid data associated with REVOLVE1_2_',#822,.F.);
#824=PROPERTY_DEFINITION('',
'shape for solid data with which properties are associated',#823);
#825=SHAPE_REPRESENTATION('',(#792),#808);
#826=SHAPE_DEFINITION_REPRESENTATION(#824,#825);
#827=(LENGTH_UNIT()NAMED_UNIT(*)SI_UNIT(.MILLI.,.METRE.));
#833=PROPERTY_DEFINITION('geometric validation property','area of REVOLVE1_2_',
#823);
#834=REPRESENTATION('surface area',(#832),#808);
#835=PROPERTY_DEFINITION_REPRESENTATION(#833,#834);
#836=(LENGTH_UNIT()NAMED_UNIT(*)SI_UNIT(.MILLI.,.METRE.));
#842=PROPERTY_DEFINITION('geometric validation property',
'volume of REVOLVE1_2_',#823);
#843=REPRESENTATION('volume',(#841),#808);
#844=PROPERTY_DEFINITION_REPRESENTATION(#842,#843);
#846=PROPERTY_DEFINITION('geometric validation property',
'centroid of REVOLVE1_2_',#823);
#847=REPRESENTATION('centroid',(#845),#808);
#848=PROPERTY_DEFINITION_REPRESENTATION(#846,#847);
#849=(LENGTH_UNIT()NAMED_UNIT(*)SI_UNIT(.MILLI.,.METRE.));
#855=PROPERTY_DEFINITION('geometric validation property','area of REVOLVE1_2_',
#822);
#856=REPRESENTATION('surface area',(#854),#808);
#857=PROPERTY_DEFINITION_REPRESENTATION(#855,#856);
#858=(LENGTH_UNIT()NAMED_UNIT(*)SI_UNIT(.MILLI.,.METRE.));
#864=PROPERTY_DEFINITION('geometric validation property',
'volume of REVOLVE1_2_',#822);
#865=REPRESENTATION('volume',(#863),#808);
#866=PROPERTY_DEFINITION_REPRESENTATION(#864,#865);
#868=PROPERTY_DEFINITION('geometric validation property',
'centroid of REVOLVE1_2_',#822);
#869=REPRESENTATION('centroid',(#867),#808);
#870=PROPERTY_DEFINITION_REPRESENTATION(#868,#869);
#871=SHAPE_DEFINITION_REPRESENTATION(#822,#813);
ENDSEC;
END-ISO-10303-21;
