ISO-10303-21;
HEADER;
FILE_DESCRIPTION((''),'2;1');
FILE_NAME('REVOLVE-THIN1','2026-06-15T13:45:39',('Esia'),(''),
'CREO PARAMETRIC BY PTC INC, 2025102','CREO PARAMETRIC BY PTC INC, 2025102','');
FILE_SCHEMA((
'AP242_MANAGED_MODEL_BASED_3D_ENGINEERING_MIM_LF { 1 0 10303 442 1 1 4 }'));
ENDSEC;
DATA;
#18=DIRECTION('',(5.E-1,-8.660254037844E-1,0.E0));
#19=VECTOR('',#18,2.755905511811E-3);
#20=CARTESIAN_POINT('',(6.456213349975E-2,2.094488188976E-1,0.E0));
#21=LINE('',#20,#19);
#22=DRAUGHTING_PRE_DEFINED_CURVE_FONT('continuous');
#23=CURVE_STYLE('',#22,POSITIVE_LENGTH_MEASURE(2.E-2),#1);
#24=PRESENTATION_STYLE_ASSIGNMENT((#23));
#25=STYLED_ITEM('',(#24),#21);
#26=DIRECTION('',(5.E-1,8.660254037844E-1,0.E0));
#27=VECTOR('',#26,2.755905511811E-3);
#28=CARTESIAN_POINT('',(6.456213349975E-2,-2.094488188976E-1,0.E0));
#29=LINE('',#28,#27);
#30=CURVE_STYLE('',#22,POSITIVE_LENGTH_MEASURE(2.E-2),#1);
#31=PRESENTATION_STYLE_ASSIGNMENT((#30));
#32=STYLED_ITEM('',(#31),#29);
#33=CARTESIAN_POINT('',(6.389435695538E-2,-2.058810323518E-1,0.E0));
#34=DIRECTION('',(0.E0,0.E0,1.E0));
#35=DIRECTION('',(8.660254037844E-1,-5.E-1,0.E0));
#36=AXIS2_PLACEMENT_3D('',#33,#34,#35);
#38=CURVE_STYLE('',#22,POSITIVE_LENGTH_MEASURE(2.E-2),#1);
#39=PRESENTATION_STYLE_ASSIGNMENT((#38));
#40=STYLED_ITEM('',(#39),#37);
#41=CARTESIAN_POINT('',(6.594008625566E-2,0.E0,0.E0));
#42=DIRECTION('',(-1.E0,0.E0,0.E0));
#43=DIRECTION('',(0.E0,1.E0,0.E0));
#44=AXIS2_PLACEMENT_3D('',#41,#42,#43);
#46=CURVE_STYLE('',#22,POSITIVE_LENGTH_MEASURE(2.E-2),#1);
#47=PRESENTATION_STYLE_ASSIGNMENT((#46));
#48=STYLED_ITEM('',(#47),#45);
#49=CARTESIAN_POINT('',(6.389435695538E-2,0.E0,0.E0));
#50=DIRECTION('',(-1.E0,0.E0,0.E0));
#51=DIRECTION('',(0.E0,-1.E0,0.E0));
#52=AXIS2_PLACEMENT_3D('',#49,#50,#51);
#54=CURVE_STYLE('',#22,POSITIVE_LENGTH_MEASURE(2.E-2),#1);
#55=PRESENTATION_STYLE_ASSIGNMENT((#54));
#56=STYLED_ITEM('',(#55),#53);
#57=CARTESIAN_POINT('',(6.389435695538E-2,0.E0,0.E0));
#58=DIRECTION('',(-1.E0,0.E0,0.E0));
#59=DIRECTION('',(0.E0,1.E0,0.E0));
#60=AXIS2_PLACEMENT_3D('',#57,#58,#59);
#62=CURVE_STYLE('',#22,POSITIVE_LENGTH_MEASURE(2.E-2),#1);
#63=PRESENTATION_STYLE_ASSIGNMENT((#62));
#64=STYLED_ITEM('',(#63),#61);
#65=CARTESIAN_POINT('',(6.389435695538E-2,0.E0,0.E0));
#66=DIRECTION('',(1.E0,0.E0,0.E0));
#67=DIRECTION('',(0.E0,1.E0,0.E0));
#68=AXIS2_PLACEMENT_3D('',#65,#66,#67);
#70=CURVE_STYLE('',#22,POSITIVE_LENGTH_MEASURE(2.E-2),#1);
#71=PRESENTATION_STYLE_ASSIGNMENT((#70));
#72=STYLED_ITEM('',(#71),#69);
#73=CARTESIAN_POINT('',(6.389435695538E-2,0.E0,0.E0));
#74=DIRECTION('',(1.E0,0.E0,0.E0));
#75=DIRECTION('',(0.E0,-1.E0,0.E0));
#76=AXIS2_PLACEMENT_3D('',#73,#74,#75);
#78=CURVE_STYLE('',#22,POSITIVE_LENGTH_MEASURE(2.E-2),#1);
#79=PRESENTATION_STYLE_ASSIGNMENT((#78));
#80=STYLED_ITEM('',(#79),#77);
#81=CARTESIAN_POINT('',(6.389435695538E-2,2.058810323518E-1,0.E0));
#82=DIRECTION('',(0.E0,0.E0,-1.E0));
#83=DIRECTION('',(8.660254037844E-1,5.E-1,0.E0));
#84=AXIS2_PLACEMENT_3D('',#81,#82,#83);
#86=CURVE_STYLE('',#22,POSITIVE_LENGTH_MEASURE(2.E-2),#1);
#87=PRESENTATION_STYLE_ASSIGNMENT((#86));
#88=STYLED_ITEM('',(#87),#85);
#89=CARTESIAN_POINT('',(6.594008625566E-2,0.E0,0.E0));
#90=DIRECTION('',(-1.E0,0.E0,0.E0));
#91=DIRECTION('',(0.E0,-1.E0,0.E0));
#92=AXIS2_PLACEMENT_3D('',#89,#90,#91);
#94=CURVE_STYLE('',#22,POSITIVE_LENGTH_MEASURE(2.E-2),#1);
#95=PRESENTATION_STYLE_ASSIGNMENT((#94));
#96=STYLED_ITEM('',(#95),#93);
#97=CARTESIAN_POINT('',(6.389435695538E-2,-2.058810323518E-1,0.E0));
#98=DIRECTION('',(0.E0,0.E0,1.E0));
#99=DIRECTION('',(8.660254037844E-1,-5.E-1,0.E0));
#100=AXIS2_PLACEMENT_3D('',#97,#98,#99);
#102=CURVE_STYLE('',#22,POSITIVE_LENGTH_MEASURE(2.E-2),#1);
#103=PRESENTATION_STYLE_ASSIGNMENT((#102));
#104=STYLED_ITEM('',(#103),#101);
#105=CARTESIAN_POINT('',(6.764486067256E-2,0.E0,0.E0));
#106=DIRECTION('',(1.E0,0.E0,0.E0));
#107=DIRECTION('',(0.E0,1.E0,0.E0));
#108=AXIS2_PLACEMENT_3D('',#105,#106,#107);
#110=CURVE_STYLE('',#22,POSITIVE_LENGTH_MEASURE(2.E-2),#1);
#111=PRESENTATION_STYLE_ASSIGNMENT((#110));
#112=STYLED_ITEM('',(#111),#109);
#113=CARTESIAN_POINT('',(6.389435695538E-2,2.058810323518E-1,0.E0));
#114=DIRECTION('',(0.E0,0.E0,-1.E0));
#115=DIRECTION('',(8.660254037844E-1,5.E-1,0.E0));
#116=AXIS2_PLACEMENT_3D('',#113,#114,#115);
#118=CURVE_STYLE('',#22,POSITIVE_LENGTH_MEASURE(2.E-2),#1);
#119=PRESENTATION_STYLE_ASSIGNMENT((#118));
#120=STYLED_ITEM('',(#119),#117);
#121=CARTESIAN_POINT('',(6.764486067256E-2,0.E0,0.E0));
#122=DIRECTION('',(1.E0,0.E0,0.E0));
#123=DIRECTION('',(0.E0,-1.E0,0.E0));
#124=AXIS2_PLACEMENT_3D('',#121,#122,#123);
#126=CURVE_STYLE('',#22,POSITIVE_LENGTH_MEASURE(2.E-2),#1);
#127=PRESENTATION_STYLE_ASSIGNMENT((#126));
#128=STYLED_ITEM('',(#127),#125);
#129=DIRECTION('',(5.E-1,-8.660254037844E-1,0.E0));
#130=VECTOR('',#129,2.755905511811E-3);
#131=CARTESIAN_POINT('',(6.626690791665E-2,2.104330708661E-1,0.E0));
#132=LINE('',#131,#130);
#133=CURVE_STYLE('',#22,POSITIVE_LENGTH_MEASURE(2.E-2),#1);
#134=PRESENTATION_STYLE_ASSIGNMENT((#133));
#135=STYLED_ITEM('',(#134),#132);
#136=DIRECTION('',(5.E-1,8.660254037844E-1,0.E0));
#137=VECTOR('',#136,2.755905511811E-3);
#138=CARTESIAN_POINT('',(6.626690791665E-2,-2.104330708661E-1,0.E0));
#139=LINE('',#138,#137);
#140=CURVE_STYLE('',#22,POSITIVE_LENGTH_MEASURE(2.E-2),#1);
#141=PRESENTATION_STYLE_ASSIGNMENT((#140));
#142=STYLED_ITEM('',(#141),#139);
#143=CARTESIAN_POINT('',(6.626690791665E-2,0.E0,0.E0));
#144=DIRECTION('',(-1.E0,0.E0,0.E0));
#145=DIRECTION('',(0.E0,-1.E0,0.E0));
#146=AXIS2_PLACEMENT_3D('',#143,#144,#145);
#148=CURVE_STYLE('',#22,POSITIVE_LENGTH_MEASURE(2.E-2),#1);
#149=PRESENTATION_STYLE_ASSIGNMENT((#148));
#150=STYLED_ITEM('',(#149),#147);
#151=CARTESIAN_POINT('',(6.251640419948E-2,-2.082677165354E-1,0.E0));
#152=DIRECTION('',(0.E0,0.E0,1.E0));
#153=DIRECTION('',(0.E0,-1.E0,0.E0));
#154=AXIS2_PLACEMENT_3D('',#151,#152,#153);
#156=CURVE_STYLE('',#22,POSITIVE_LENGTH_MEASURE(2.E-2),#1);
#157=PRESENTATION_STYLE_ASSIGNMENT((#156));
#158=STYLED_ITEM('',(#157),#155);
#159=CARTESIAN_POINT('',(6.251640419948E-2,-2.082677165354E-1,0.E0));
#160=DIRECTION('',(0.E0,0.E0,1.E0));
#161=DIRECTION('',(-1.E0,0.E0,0.E0));
#162=AXIS2_PLACEMENT_3D('',#159,#160,#161);
#164=CURVE_STYLE('',#22,POSITIVE_LENGTH_MEASURE(2.E-2),#1);
#165=PRESENTATION_STYLE_ASSIGNMENT((#164));
#166=STYLED_ITEM('',(#165),#163);
#167=CARTESIAN_POINT('',(6.251640419948E-2,2.082677165354E-1,0.E0));
#168=DIRECTION('',(0.E0,0.E0,-1.E0));
#169=DIRECTION('',(-1.E0,0.E0,0.E0));
#170=AXIS2_PLACEMENT_3D('',#167,#168,#169);
#172=CURVE_STYLE('',#22,POSITIVE_LENGTH_MEASURE(2.E-2),#1);
#173=PRESENTATION_STYLE_ASSIGNMENT((#172));
#174=STYLED_ITEM('',(#173),#171);
#175=CARTESIAN_POINT('',(6.626690791665E-2,0.E0,0.E0));
#176=DIRECTION('',(-1.E0,0.E0,0.E0));
#177=DIRECTION('',(0.E0,1.E0,0.E0));
#178=AXIS2_PLACEMENT_3D('',#175,#176,#177);
#180=CURVE_STYLE('',#22,POSITIVE_LENGTH_MEASURE(2.E-2),#1);
#181=PRESENTATION_STYLE_ASSIGNMENT((#180));
#182=STYLED_ITEM('',(#181),#179);
#183=CARTESIAN_POINT('',(6.251640419948E-2,2.082677165354E-1,0.E0));
#184=DIRECTION('',(0.E0,0.E0,-1.E0));
#185=DIRECTION('',(0.E0,1.E0,0.E0));
#186=AXIS2_PLACEMENT_3D('',#183,#184,#185);
#188=CURVE_STYLE('',#22,POSITIVE_LENGTH_MEASURE(2.E-2),#1);
#189=PRESENTATION_STYLE_ASSIGNMENT((#188));
#190=STYLED_ITEM('',(#189),#187);
#191=CARTESIAN_POINT('',(5.818569553806E-2,0.E0,0.E0));
#192=DIRECTION('',(-1.E0,0.E0,0.E0));
#193=DIRECTION('',(0.E0,-1.E0,0.E0));
#194=AXIS2_PLACEMENT_3D('',#191,#192,#193);
#196=CURVE_STYLE('',#22,POSITIVE_LENGTH_MEASURE(2.E-2),#1);
#197=PRESENTATION_STYLE_ASSIGNMENT((#196));
#198=STYLED_ITEM('',(#197),#195);
#199=CARTESIAN_POINT('',(5.818569553806E-2,0.E0,0.E0));
#200=DIRECTION('',(-1.E0,0.E0,0.E0));
#201=DIRECTION('',(0.E0,1.E0,0.E0));
#202=AXIS2_PLACEMENT_3D('',#199,#200,#201);
#204=CURVE_STYLE('',#22,POSITIVE_LENGTH_MEASURE(2.E-2),#1);
#205=PRESENTATION_STYLE_ASSIGNMENT((#204));
#206=STYLED_ITEM('',(#205),#203);
#207=CARTESIAN_POINT('',(5.818569553806E-2,0.E0,0.E0));
#208=DIRECTION('',(1.E0,0.E0,0.E0));
#209=DIRECTION('',(0.E0,1.E0,0.E0));
#210=AXIS2_PLACEMENT_3D('',#207,#208,#209);
#212=CURVE_STYLE('',#22,POSITIVE_LENGTH_MEASURE(2.E-2),#1);
#213=PRESENTATION_STYLE_ASSIGNMENT((#212));
#214=STYLED_ITEM('',(#213),#211);
#215=CARTESIAN_POINT('',(5.818569553806E-2,0.E0,0.E0));
#216=DIRECTION('',(1.E0,0.E0,0.E0));
#217=DIRECTION('',(0.E0,-1.E0,0.E0));
#218=AXIS2_PLACEMENT_3D('',#215,#216,#217);
#220=CURVE_STYLE('',#22,POSITIVE_LENGTH_MEASURE(2.E-2),#1);
#221=PRESENTATION_STYLE_ASSIGNMENT((#220));
#222=STYLED_ITEM('',(#221),#219);
#223=CARTESIAN_POINT('',(6.084317585302E-2,-2.025283093319E-1,0.E0));
#224=DIRECTION('',(0.E0,0.E0,1.E0));
#225=DIRECTION('',(-5.E-1,8.660254037844E-1,0.E0));
#226=AXIS2_PLACEMENT_3D('',#223,#224,#225);
#228=CURVE_STYLE('',#22,POSITIVE_LENGTH_MEASURE(2.E-2),#1);
#229=PRESENTATION_STYLE_ASSIGNMENT((#228));
#230=STYLED_ITEM('',(#229),#227);
#231=CARTESIAN_POINT('',(5.951443569554E-2,0.E0,0.E0));
#232=DIRECTION('',(1.E0,0.E0,0.E0));
#233=DIRECTION('',(0.E0,1.E0,0.E0));
#234=AXIS2_PLACEMENT_3D('',#231,#232,#233);
#236=CURVE_STYLE('',#22,POSITIVE_LENGTH_MEASURE(2.E-2),#1);
#237=PRESENTATION_STYLE_ASSIGNMENT((#236));
#238=STYLED_ITEM('',(#237),#235);
#239=CARTESIAN_POINT('',(6.084317585302E-2,2.025283093319E-1,0.E0));
#240=DIRECTION('',(0.E0,0.E0,-1.E0));
#241=DIRECTION('',(-5.E-1,-8.660254037844E-1,0.E0));
#242=AXIS2_PLACEMENT_3D('',#239,#240,#241);
#244=CURVE_STYLE('',#22,POSITIVE_LENGTH_MEASURE(2.E-2),#1);
#245=PRESENTATION_STYLE_ASSIGNMENT((#244));
#246=STYLED_ITEM('',(#245),#243);
#247=CARTESIAN_POINT('',(5.951443569554E-2,0.E0,0.E0));
#248=DIRECTION('',(1.E0,0.E0,0.E0));
#249=DIRECTION('',(0.E0,-1.E0,0.E0));
#250=AXIS2_PLACEMENT_3D('',#247,#248,#249);
#252=CURVE_STYLE('',#22,POSITIVE_LENGTH_MEASURE(2.E-2),#1);
#253=PRESENTATION_STYLE_ASSIGNMENT((#252));
#254=STYLED_ITEM('',(#253),#251);
#255=DIRECTION('',(8.660254037844E-1,5.E-1,0.E0));
#256=VECTOR('',#255,5.919355614231E-3);
#257=CARTESIAN_POINT('',(5.951443569554E-2,-2.002268638691E-1,0.E0));
#258=LINE('',#257,#256);
#259=CURVE_STYLE('',#22,POSITIVE_LENGTH_MEASURE(2.E-2),#1);
#260=PRESENTATION_STYLE_ASSIGNMENT((#259));
#261=STYLED_ITEM('',(#260),#258);
#262=CARTESIAN_POINT('',(6.407480314961E-2,-1.962869407722E-1,0.E0));
#263=DIRECTION('',(0.E0,0.E0,1.E0));
#264=DIRECTION('',(5.E-1,-8.660254037844E-1,0.E0));
#265=AXIS2_PLACEMENT_3D('',#262,#263,#264);
#267=CURVE_STYLE('',#22,POSITIVE_LENGTH_MEASURE(2.E-2),#1);
#268=PRESENTATION_STYLE_ASSIGNMENT((#267));
#269=STYLED_ITEM('',(#268),#266);
#270=CARTESIAN_POINT('',(6.464074803150E-2,0.E0,0.E0));
#271=DIRECTION('',(-1.E0,0.E0,0.E0));
#272=DIRECTION('',(0.E0,1.E0,0.E0));
#273=AXIS2_PLACEMENT_3D('',#270,#271,#272);
#275=CURVE_STYLE('',#22,POSITIVE_LENGTH_MEASURE(2.E-2),#1);
#276=PRESENTATION_STYLE_ASSIGNMENT((#275));
#277=STYLED_ITEM('',(#276),#274);
#278=CARTESIAN_POINT('',(6.520669291339E-2,0.E0,0.E0));
#279=DIRECTION('',(-1.E0,0.E0,0.E0));
#280=DIRECTION('',(0.E0,-1.E0,0.E0));
#281=AXIS2_PLACEMENT_3D('',#278,#279,#280);
#283=CURVE_STYLE('',#22,POSITIVE_LENGTH_MEASURE(2.E-2),#1);
#284=PRESENTATION_STYLE_ASSIGNMENT((#283));
#285=STYLED_ITEM('',(#284),#282);
#286=CARTESIAN_POINT('',(6.520669291339E-2,0.E0,0.E0));
#287=DIRECTION('',(-1.E0,0.E0,0.E0));
#288=DIRECTION('',(0.E0,1.E0,0.E0));
#289=AXIS2_PLACEMENT_3D('',#286,#287,#288);
#291=CURVE_STYLE('',#22,POSITIVE_LENGTH_MEASURE(2.E-2),#1);
#292=PRESENTATION_STYLE_ASSIGNMENT((#291));
#293=STYLED_ITEM('',(#292),#290);
#294=CARTESIAN_POINT('',(6.520669291339E-2,0.E0,0.E0));
#295=DIRECTION('',(1.E0,0.E0,0.E0));
#296=DIRECTION('',(0.E0,1.E0,0.E0));
#297=AXIS2_PLACEMENT_3D('',#294,#295,#296);
#299=CURVE_STYLE('',#22,POSITIVE_LENGTH_MEASURE(2.E-2),#1);
#300=PRESENTATION_STYLE_ASSIGNMENT((#299));
#301=STYLED_ITEM('',(#300),#298);
#302=CARTESIAN_POINT('',(6.520669291339E-2,0.E0,0.E0));
#303=DIRECTION('',(1.E0,0.E0,0.E0));
#304=DIRECTION('',(0.E0,-1.E0,0.E0));
#305=AXIS2_PLACEMENT_3D('',#302,#303,#304);
#307=CURVE_STYLE('',#22,POSITIVE_LENGTH_MEASURE(2.E-2),#1);
#308=PRESENTATION_STYLE_ASSIGNMENT((#307));
#309=STYLED_ITEM('',(#308),#306);
#310=CARTESIAN_POINT('',(6.407480314961E-2,1.962869407722E-1,0.E0));
#311=DIRECTION('',(0.E0,0.E0,-1.E0));
#312=DIRECTION('',(5.E-1,8.660254037844E-1,0.E0));
#313=AXIS2_PLACEMENT_3D('',#310,#311,#312);
#315=CURVE_STYLE('',#22,POSITIVE_LENGTH_MEASURE(2.E-2),#1);
#316=PRESENTATION_STYLE_ASSIGNMENT((#315));
#317=STYLED_ITEM('',(#316),#314);
#318=CARTESIAN_POINT('',(6.464074803150E-2,0.E0,0.E0));
#319=DIRECTION('',(-1.E0,0.E0,0.E0));
#320=DIRECTION('',(0.E0,-1.E0,0.E0));
#321=AXIS2_PLACEMENT_3D('',#318,#319,#320);
#323=CURVE_STYLE('',#22,POSITIVE_LENGTH_MEASURE(2.E-2),#1);
#324=PRESENTATION_STYLE_ASSIGNMENT((#323));
#325=STYLED_ITEM('',(#324),#322);
#326=DIRECTION('',(8.660254037844E-1,-5.E-1,0.E0));
#327=VECTOR('',#326,5.919355614231E-3);
#328=CARTESIAN_POINT('',(5.951443569554E-2,2.002268638691E-1,0.E0));
#329=LINE('',#328,#327);
#330=CURVE_STYLE('',#22,POSITIVE_LENGTH_MEASURE(2.E-2),#1);
#331=PRESENTATION_STYLE_ASSIGNMENT((#330));
#332=STYLED_ITEM('',(#331),#329);
#333=DIRECTION('',(1.E0,0.E0,0.E0));
#334=VECTOR('',#333,1.968503937008E-3);
#335=CARTESIAN_POINT('',(6.520669291339E-2,1.811023622047E-1,0.E0));
#336=LINE('',#335,#334);
#337=CURVE_STYLE('',#22,POSITIVE_LENGTH_MEASURE(2.E-2),#1);
#338=PRESENTATION_STYLE_ASSIGNMENT((#337));
#339=STYLED_ITEM('',(#338),#336);
#340=DIRECTION('',(1.E0,0.E0,0.E0));
#341=VECTOR('',#340,1.968503937008E-3);
#342=CARTESIAN_POINT('',(6.520669291339E-2,-1.811023622047E-1,0.E0));
#343=LINE('',#342,#341);
#344=CURVE_STYLE('',#22,POSITIVE_LENGTH_MEASURE(2.E-2),#1);
#345=PRESENTATION_STYLE_ASSIGNMENT((#344));
#346=STYLED_ITEM('',(#345),#343);
#347=CARTESIAN_POINT('',(6.717519685039E-2,0.E0,0.E0));
#348=DIRECTION('',(1.E0,0.E0,0.E0));
#349=DIRECTION('',(0.E0,1.E0,0.E0));
#350=AXIS2_PLACEMENT_3D('',#347,#348,#349);
#352=CURVE_STYLE('',#22,POSITIVE_LENGTH_MEASURE(2.E-2),#1);
#353=PRESENTATION_STYLE_ASSIGNMENT((#352));
#354=STYLED_ITEM('',(#353),#351);
#355=CARTESIAN_POINT('',(6.717519685039E-2,0.E0,0.E0));
#356=DIRECTION('',(1.E0,0.E0,0.E0));
#357=DIRECTION('',(0.E0,-1.E0,0.E0));
#358=AXIS2_PLACEMENT_3D('',#355,#356,#357);
#360=CURVE_STYLE('',#22,POSITIVE_LENGTH_MEASURE(2.E-2),#1);
#361=PRESENTATION_STYLE_ASSIGNMENT((#360));
#362=STYLED_ITEM('',(#361),#359);
#363=CARTESIAN_POINT('',(6.717519685039E-2,0.E0,0.E0));
#364=DIRECTION('',(-1.E0,0.E0,0.E0));
#365=DIRECTION('',(0.E0,-1.E0,0.E0));
#366=AXIS2_PLACEMENT_3D('',#363,#364,#365);
#368=CURVE_STYLE('',#22,POSITIVE_LENGTH_MEASURE(2.E-2),#1);
#369=PRESENTATION_STYLE_ASSIGNMENT((#368));
#370=STYLED_ITEM('',(#369),#367);
#371=CARTESIAN_POINT('',(6.717519685039E-2,0.E0,0.E0));
#372=DIRECTION('',(-1.E0,0.E0,0.E0));
#373=DIRECTION('',(0.E0,1.E0,0.E0));
#374=AXIS2_PLACEMENT_3D('',#371,#372,#373);
#376=CURVE_STYLE('',#22,POSITIVE_LENGTH_MEASURE(2.E-2),#1);
#377=PRESENTATION_STYLE_ASSIGNMENT((#376));
#378=STYLED_ITEM('',(#377),#375);
#379=CARTESIAN_POINT('',(6.407480314961E-2,-1.962869407722E-1,0.E0));
#380=DIRECTION('',(0.E0,0.E0,1.E0));
#381=DIRECTION('',(5.E-1,-8.660254037844E-1,0.E0));
#382=AXIS2_PLACEMENT_3D('',#379,#380,#381);
#384=CURVE_STYLE('',#22,POSITIVE_LENGTH_MEASURE(2.E-2),#1);
#385=PRESENTATION_STYLE_ASSIGNMENT((#384));
#386=STYLED_ITEM('',(#385),#383);
#387=CARTESIAN_POINT('',(6.5625E-2,0.E0,0.E0));
#388=DIRECTION('',(1.E0,0.E0,0.E0));
#389=DIRECTION('',(0.E0,1.E0,0.E0));
#390=AXIS2_PLACEMENT_3D('',#387,#388,#389);
#392=CURVE_STYLE('',#22,POSITIVE_LENGTH_MEASURE(2.E-2),#1);
#393=PRESENTATION_STYLE_ASSIGNMENT((#392));
#394=STYLED_ITEM('',(#393),#391);
#395=CARTESIAN_POINT('',(6.407480314961E-2,1.962869407722E-1,0.E0));
#396=DIRECTION('',(0.E0,0.E0,-1.E0));
#397=DIRECTION('',(5.E-1,8.660254037844E-1,0.E0));
#398=AXIS2_PLACEMENT_3D('',#395,#396,#397);
#400=CURVE_STYLE('',#22,POSITIVE_LENGTH_MEASURE(2.E-2),#1);
#401=PRESENTATION_STYLE_ASSIGNMENT((#400));
#402=STYLED_ITEM('',(#401),#399);
#403=CARTESIAN_POINT('',(6.5625E-2,0.E0,0.E0));
#404=DIRECTION('',(1.E0,0.E0,0.E0));
#405=DIRECTION('',(0.E0,-1.E0,0.E0));
#406=AXIS2_PLACEMENT_3D('',#403,#404,#405);
#408=CURVE_STYLE('',#22,POSITIVE_LENGTH_MEASURE(2.E-2),#1);
#409=PRESENTATION_STYLE_ASSIGNMENT((#408));
#410=STYLED_ITEM('',(#409),#407);
#411=DIRECTION('',(8.660254037844E-1,-5.E-1,0.E0));
#412=VECTOR('',#411,5.919355614231E-3);
#413=CARTESIAN_POINT('',(6.049868766404E-2,2.019316382860E-1,0.E0));
#414=LINE('',#413,#412);
#415=CURVE_STYLE('',#22,POSITIVE_LENGTH_MEASURE(2.E-2),#1);
#416=PRESENTATION_STYLE_ASSIGNMENT((#415));
#417=STYLED_ITEM('',(#416),#414);
#418=DIRECTION('',(8.660254037844E-1,5.E-1,0.E0));
#419=VECTOR('',#418,5.919355614231E-3);
#420=CARTESIAN_POINT('',(6.049868766404E-2,-2.019316382860E-1,0.E0));
#421=LINE('',#420,#419);
#422=CURVE_STYLE('',#22,POSITIVE_LENGTH_MEASURE(2.E-2),#1);
#423=PRESENTATION_STYLE_ASSIGNMENT((#422));
#424=STYLED_ITEM('',(#423),#421);
#425=CARTESIAN_POINT('',(6.084317585302E-2,2.025283093319E-1,0.E0));
#426=DIRECTION('',(0.E0,0.E0,-1.E0));
#427=DIRECTION('',(-5.E-1,-8.660254037844E-1,0.E0));
#428=AXIS2_PLACEMENT_3D('',#425,#426,#427);
#430=CURVE_STYLE('',#22,POSITIVE_LENGTH_MEASURE(2.E-2),#1);
#431=PRESENTATION_STYLE_ASSIGNMENT((#430));
#432=STYLED_ITEM('',(#431),#429);
#433=CARTESIAN_POINT('',(6.049868766404E-2,0.E0,0.E0));
#434=DIRECTION('',(-1.E0,0.E0,0.E0));
#435=DIRECTION('',(0.E0,-1.E0,0.E0));
#436=AXIS2_PLACEMENT_3D('',#433,#434,#435);
#438=CURVE_STYLE('',#22,POSITIVE_LENGTH_MEASURE(2.E-2),#1);
#439=PRESENTATION_STYLE_ASSIGNMENT((#438));
#440=STYLED_ITEM('',(#439),#437);
#441=CARTESIAN_POINT('',(6.084317585302E-2,-2.025283093319E-1,0.E0));
#442=DIRECTION('',(0.E0,0.E0,1.E0));
#443=DIRECTION('',(-5.E-1,8.660254037844E-1,0.E0));
#444=AXIS2_PLACEMENT_3D('',#441,#442,#443);
#446=CURVE_STYLE('',#22,POSITIVE_LENGTH_MEASURE(2.E-2),#1);
#447=PRESENTATION_STYLE_ASSIGNMENT((#446));
#448=STYLED_ITEM('',(#447),#445);
#449=CARTESIAN_POINT('',(6.049868766404E-2,0.E0,0.E0));
#450=DIRECTION('',(-1.E0,0.E0,0.E0));
#451=DIRECTION('',(0.E0,1.E0,0.E0));
#452=AXIS2_PLACEMENT_3D('',#449,#450,#451);
#454=CURVE_STYLE('',#22,POSITIVE_LENGTH_MEASURE(2.E-2),#1);
#455=PRESENTATION_STYLE_ASSIGNMENT((#454));
#456=STYLED_ITEM('',(#455),#453);
#457=CARTESIAN_POINT('',(6.015419947507E-2,0.E0,0.E0));
#458=DIRECTION('',(1.E0,0.E0,0.E0));
#459=DIRECTION('',(0.E0,1.E0,0.E0));
#460=AXIS2_PLACEMENT_3D('',#457,#458,#459);
#462=CURVE_STYLE('',#22,POSITIVE_LENGTH_MEASURE(2.E-2),#1);
#463=PRESENTATION_STYLE_ASSIGNMENT((#462));
#464=STYLED_ITEM('',(#463),#461);
#465=CARTESIAN_POINT('',(6.015419947507E-2,0.E0,0.E0));
#466=DIRECTION('',(1.E0,0.E0,0.E0));
#467=DIRECTION('',(0.E0,-1.E0,0.E0));
#468=AXIS2_PLACEMENT_3D('',#465,#466,#467);
#470=CURVE_STYLE('',#22,POSITIVE_LENGTH_MEASURE(2.E-2),#1);
#471=PRESENTATION_STYLE_ASSIGNMENT((#470));
#472=STYLED_ITEM('',(#471),#469);
#473=CARTESIAN_POINT('',(6.015419947507E-2,0.E0,0.E0));
#474=DIRECTION('',(-1.E0,0.E0,0.E0));
#475=DIRECTION('',(0.E0,-1.E0,0.E0));
#476=AXIS2_PLACEMENT_3D('',#473,#474,#475);
#478=CURVE_STYLE('',#22,POSITIVE_LENGTH_MEASURE(2.E-2),#1);
#479=PRESENTATION_STYLE_ASSIGNMENT((#478));
#480=STYLED_ITEM('',(#479),#477);
#481=CARTESIAN_POINT('',(6.015419947507E-2,0.E0,0.E0));
#482=DIRECTION('',(-1.E0,0.E0,0.E0));
#483=DIRECTION('',(0.E0,1.E0,0.E0));
#484=AXIS2_PLACEMENT_3D('',#481,#482,#483);
#486=CURVE_STYLE('',#22,POSITIVE_LENGTH_MEASURE(2.E-2),#1);
#487=PRESENTATION_STYLE_ASSIGNMENT((#486));
#488=STYLED_ITEM('',(#487),#485);
#489=CARTESIAN_POINT('',(6.251640419948E-2,2.082677165354E-1,0.E0));
#490=DIRECTION('',(0.E0,0.E0,-1.E0));
#491=DIRECTION('',(-1.E0,0.E0,0.E0));
#492=AXIS2_PLACEMENT_3D('',#489,#490,#491);
#494=CURVE_STYLE('',#22,POSITIVE_LENGTH_MEASURE(2.E-2),#1);
#495=PRESENTATION_STYLE_ASSIGNMENT((#494));
#496=STYLED_ITEM('',(#495),#493);
#497=CARTESIAN_POINT('',(6.456213349975E-2,0.E0,0.E0));
#498=DIRECTION('',(1.E0,0.E0,0.E0));
#499=DIRECTION('',(0.E0,1.E0,0.E0));
#500=AXIS2_PLACEMENT_3D('',#497,#498,#499);
#502=CURVE_STYLE('',#22,POSITIVE_LENGTH_MEASURE(2.E-2),#1);
#503=PRESENTATION_STYLE_ASSIGNMENT((#502));
#504=STYLED_ITEM('',(#503),#501);
#505=CARTESIAN_POINT('',(6.251640419948E-2,2.082677165354E-1,0.E0));
#506=DIRECTION('',(0.E0,0.E0,-1.E0));
#507=DIRECTION('',(0.E0,1.E0,0.E0));
#508=AXIS2_PLACEMENT_3D('',#505,#506,#507);
#510=CURVE_STYLE('',#22,POSITIVE_LENGTH_MEASURE(2.E-2),#1);
#511=PRESENTATION_STYLE_ASSIGNMENT((#510));
#512=STYLED_ITEM('',(#511),#509);
#513=CARTESIAN_POINT('',(6.456213349975E-2,0.E0,0.E0));
#514=DIRECTION('',(1.E0,0.E0,0.E0));
#515=DIRECTION('',(0.E0,-1.E0,0.E0));
#516=AXIS2_PLACEMENT_3D('',#513,#514,#515);
#518=CURVE_STYLE('',#22,POSITIVE_LENGTH_MEASURE(2.E-2),#1);
#519=PRESENTATION_STYLE_ASSIGNMENT((#518));
#520=STYLED_ITEM('',(#519),#517);
#521=CARTESIAN_POINT('',(6.251640419948E-2,-2.082677165354E-1,0.E0));
#522=DIRECTION('',(0.E0,0.E0,1.E0));
#523=DIRECTION('',(0.E0,-1.E0,0.E0));
#524=AXIS2_PLACEMENT_3D('',#521,#522,#523);
#526=CURVE_STYLE('',#22,POSITIVE_LENGTH_MEASURE(2.E-2),#1);
#527=PRESENTATION_STYLE_ASSIGNMENT((#526));
#528=STYLED_ITEM('',(#527),#525);
#529=CARTESIAN_POINT('',(6.251640419948E-2,-2.082677165354E-1,0.E0));
#530=DIRECTION('',(0.E0,0.E0,1.E0));
#531=DIRECTION('',(-1.E0,0.E0,0.E0));
#532=AXIS2_PLACEMENT_3D('',#529,#530,#531);
#534=CURVE_STYLE('',#22,POSITIVE_LENGTH_MEASURE(2.E-2),#1);
#535=PRESENTATION_STYLE_ASSIGNMENT((#534));
#536=STYLED_ITEM('',(#535),#533);
#537=CARTESIAN_POINT('',(6.626690791665E-2,2.104330708661E-1,0.E0));
#538=CARTESIAN_POINT('',(6.764486067256E-2,2.080463866825E-1,0.E0));
#539=VERTEX_POINT('',#537);
#540=VERTEX_POINT('',#538);
#541=CARTESIAN_POINT('',(6.594008625566E-2,-2.070621347140E-1,0.E0));
#542=CARTESIAN_POINT('',(6.594008625566E-2,2.070621347140E-1,0.E0));
#543=VERTEX_POINT('',#541);
#544=VERTEX_POINT('',#542);
#545=CARTESIAN_POINT('',(6.251640419948E-2,2.106299212598E-1,0.E0));
#546=CARTESIAN_POINT('',(6.456213349975E-2,2.094488188976E-1,0.E0));
#547=VERTEX_POINT('',#545);
#548=VERTEX_POINT('',#546);
#549=CARTESIAN_POINT('',(6.015419947507E-2,2.082677165354E-1,0.E0));
#550=VERTEX_POINT('',#549);
#551=CARTESIAN_POINT('',(6.049868766404E-2,-2.019316382860E-1,0.E0));
#552=CARTESIAN_POINT('',(6.015419947507E-2,-2.025283093319E-1,0.E0));
#553=VERTEX_POINT('',#551);
#554=VERTEX_POINT('',#552);
#555=CARTESIAN_POINT('',(6.626690791665E-2,-2.104330708661E-1,0.E0));
#556=CARTESIAN_POINT('',(6.764486067256E-2,-2.080463866825E-1,0.E0));
#557=VERTEX_POINT('',#555);
#558=VERTEX_POINT('',#556);
#559=CARTESIAN_POINT('',(6.717519685039E-2,-1.811023622047E-1,0.E0));
#560=CARTESIAN_POINT('',(6.717519685039E-2,1.811023622047E-1,0.E0));
#561=VERTEX_POINT('',#559);
#562=VERTEX_POINT('',#560);
#563=CARTESIAN_POINT('',(6.520669291339E-2,-1.962869407722E-1,0.E0));
#564=CARTESIAN_POINT('',(6.520669291339E-2,1.962869407722E-1,0.E0));
#565=VERTEX_POINT('',#563);
#566=VERTEX_POINT('',#564);
#567=CARTESIAN_POINT('',(6.049868766404E-2,2.019316382860E-1,0.E0));
#568=VERTEX_POINT('',#567);
#569=CARTESIAN_POINT('',(5.818569553806E-2,-2.082677165354E-1,0.E0));
#570=CARTESIAN_POINT('',(5.818569553806E-2,2.082677165354E-1,0.E0));
#571=VERTEX_POINT('',#569);
#572=VERTEX_POINT('',#570);
#573=CARTESIAN_POINT('',(6.389435695538E-2,2.035188276274E-1,0.E0));
#574=VERTEX_POINT('',#573);
#575=CARTESIAN_POINT('',(6.251640419948E-2,-2.106299212598E-1,0.E0));
#576=CARTESIAN_POINT('',(6.456213349975E-2,-2.094488188976E-1,0.E0));
#577=VERTEX_POINT('',#575);
#578=VERTEX_POINT('',#576);
#579=CARTESIAN_POINT('',(6.015419947507E-2,-2.082677165354E-1,0.E0));
#580=VERTEX_POINT('',#579);
#581=CARTESIAN_POINT('',(6.520669291339E-2,-1.811023622047E-1,0.E0));
#582=VERTEX_POINT('',#581);
#583=CARTESIAN_POINT('',(6.5625E-2,1.989719604788E-1,0.E0));
#584=VERTEX_POINT('',#583);
#585=CARTESIAN_POINT('',(6.389435695538E-2,-2.015503236904E-1,0.E0));
#586=CARTESIAN_POINT('',(6.389435695538E-2,2.015503236904E-1,0.E0));
#587=VERTEX_POINT('',#585);
#588=VERTEX_POINT('',#586);
#589=CARTESIAN_POINT('',(6.389435695538E-2,-2.035188276274E-1,0.E0));
#590=VERTEX_POINT('',#589);
#591=CARTESIAN_POINT('',(5.951443569554E-2,2.002268638691E-1,0.E0));
#592=CARTESIAN_POINT('',(5.818569553806E-2,2.025283093319E-1,0.E0));
#593=VERTEX_POINT('',#591);
#594=VERTEX_POINT('',#592);
#595=CARTESIAN_POINT('',(5.818569553806E-2,-2.025283093319E-1,0.E0));
#596=VERTEX_POINT('',#595);
#597=CARTESIAN_POINT('',(5.951443569554E-2,-2.002268638691E-1,0.E0));
#598=VERTEX_POINT('',#597);
#599=CARTESIAN_POINT('',(6.717519685039E-2,-1.962869407722E-1,0.E0));
#600=CARTESIAN_POINT('',(6.717519685039E-2,1.962869407722E-1,0.E0));
#601=VERTEX_POINT('',#599);
#602=VERTEX_POINT('',#600);
#603=CARTESIAN_POINT('',(6.464074803150E-2,1.972671860619E-1,0.E0));
#604=VERTEX_POINT('',#603);
#605=CARTESIAN_POINT('',(6.520669291339E-2,1.811023622047E-1,0.E0));
#606=VERTEX_POINT('',#605);
#607=CARTESIAN_POINT('',(6.464074803150E-2,-1.972671860619E-1,0.E0));
#608=VERTEX_POINT('',#607);
#609=CARTESIAN_POINT('',(6.251640419948E-2,2.125984251969E-1,0.E0));
#610=VERTEX_POINT('',#609);
#611=CARTESIAN_POINT('',(6.015419947507E-2,2.025283093319E-1,0.E0));
#612=VERTEX_POINT('',#611);
#613=CARTESIAN_POINT('',(6.5625E-2,-1.989719604788E-1,0.E0));
#614=VERTEX_POINT('',#613);
#615=CARTESIAN_POINT('',(6.251640419948E-2,-2.125984251969E-1,0.E0));
#616=VERTEX_POINT('',#615);
#617=CARTESIAN_POINT('',(6.525110987771E-2,0.E0,0.E0));
#618=DIRECTION('',(-1.E0,0.E0,0.E0));
#619=DIRECTION('',(0.E0,-1.E0,0.E0));
#620=AXIS2_PLACEMENT_3D('',#617,#618,#619);
#621=CONICAL_SURFACE('',#620,2.082554768058E-1,6.E1);
#623=ORIENTED_EDGE('',*,*,#622,.F.);
#625=ORIENTED_EDGE('',*,*,#624,.T.);
#627=ORIENTED_EDGE('',*,*,#626,.T.);
#629=ORIENTED_EDGE('',*,*,#628,.T.);
#630=EDGE_LOOP('',(#623,#625,#627,#629));
#631=FACE_OUTER_BOUND('',#630,.F.);
#633=CARTESIAN_POINT('',(6.525110987771E-2,0.E0,0.E0));
#634=DIRECTION('',(-1.E0,0.E0,0.E0));
#635=DIRECTION('',(0.E0,-1.E0,0.E0));
#636=AXIS2_PLACEMENT_3D('',#633,#634,#635);
#637=CONICAL_SURFACE('',#636,2.082554768058E-1,6.E1);
#639=ORIENTED_EDGE('',*,*,#638,.T.);
#640=ORIENTED_EDGE('',*,*,#626,.F.);
#642=ORIENTED_EDGE('',*,*,#641,.T.);
#643=ORIENTED_EDGE('',*,*,#622,.T.);
#644=EDGE_LOOP('',(#639,#640,#642,#643));
#645=FACE_OUTER_BOUND('',#644,.F.);
#647=CARTESIAN_POINT('',(6.389435695538E-2,0.E0,0.E0));
#648=DIRECTION('',(-1.E0,0.E0,0.E0));
#649=DIRECTION('',(0.E0,-1.E0,0.E0));
#650=AXIS2_PLACEMENT_3D('',#647,#648,#649);
#651=TOROIDAL_SURFACE('',#650,2.058810323518E-1,2.362204724409E-3);
#653=ORIENTED_EDGE('',*,*,#652,.T.);
#655=ORIENTED_EDGE('',*,*,#654,.F.);
#656=ORIENTED_EDGE('',*,*,#638,.F.);
#658=ORIENTED_EDGE('',*,*,#657,.T.);
#659=EDGE_LOOP('',(#653,#655,#656,#658));
#660=FACE_OUTER_BOUND('',#659,.F.);
#662=CARTESIAN_POINT('',(6.389435695538E-2,2.015503236904E-1,0.E0));
#663=DIRECTION('',(-1.E0,0.E0,0.E0));
#664=DIRECTION('',(0.E0,-1.E0,0.E0));
#665=AXIS2_PLACEMENT_3D('',#662,#663,#664);
#666=PLANE('',#665);
#668=ORIENTED_EDGE('',*,*,#667,.F.);
#669=ORIENTED_EDGE('',*,*,#652,.F.);
#670=EDGE_LOOP('',(#668,#669));
#671=FACE_OUTER_BOUND('',#670,.F.);
#673=ORIENTED_EDGE('',*,*,#672,.F.);
#675=ORIENTED_EDGE('',*,*,#674,.F.);
#676=EDGE_LOOP('',(#673,#675));
#677=FACE_BOUND('',#676,.F.);
#679=CARTESIAN_POINT('',(6.389435695538E-2,0.E0,0.E0));
#680=DIRECTION('',(-1.E0,0.E0,0.E0));
#681=DIRECTION('',(0.E0,-1.E0,0.E0));
#682=AXIS2_PLACEMENT_3D('',#679,#680,#681);
#683=TOROIDAL_SURFACE('',#682,2.058810323518E-1,2.362204724409E-3);
#684=ORIENTED_EDGE('',*,*,#657,.F.);
#685=ORIENTED_EDGE('',*,*,#628,.F.);
#686=ORIENTED_EDGE('',*,*,#654,.T.);
#687=ORIENTED_EDGE('',*,*,#667,.T.);
#688=EDGE_LOOP('',(#684,#685,#686,#687));
#689=FACE_OUTER_BOUND('',#688,.F.);
#691=CARTESIAN_POINT('',(6.389435695538E-2,0.E0,0.E0));
#692=DIRECTION('',(-1.E0,0.E0,0.E0));
#693=DIRECTION('',(0.E0,-1.E0,0.E0));
#694=AXIS2_PLACEMENT_3D('',#691,#692,#693);
#695=TOROIDAL_SURFACE('',#694,2.058810323518E-1,4.330708661417E-3);
#696=ORIENTED_EDGE('',*,*,#672,.T.);
#698=ORIENTED_EDGE('',*,*,#697,.F.);
#700=ORIENTED_EDGE('',*,*,#699,.F.);
#702=ORIENTED_EDGE('',*,*,#701,.T.);
#703=EDGE_LOOP('',(#696,#698,#700,#702));
#704=FACE_OUTER_BOUND('',#703,.F.);
#706=CARTESIAN_POINT('',(6.389435695538E-2,0.E0,0.E0));
#707=DIRECTION('',(-1.E0,0.E0,0.E0));
#708=DIRECTION('',(0.E0,-1.E0,0.E0));
#709=AXIS2_PLACEMENT_3D('',#706,#707,#708);
#710=TOROIDAL_SURFACE('',#709,2.058810323518E-1,4.330708661417E-3);
#711=ORIENTED_EDGE('',*,*,#701,.F.);
#713=ORIENTED_EDGE('',*,*,#712,.F.);
#714=ORIENTED_EDGE('',*,*,#697,.T.);
#715=ORIENTED_EDGE('',*,*,#674,.T.);
#716=EDGE_LOOP('',(#711,#713,#714,#715));
#717=FACE_OUTER_BOUND('',#716,.F.);
#719=CARTESIAN_POINT('',(6.695588429460E-2,0.E0,0.E0));
#720=DIRECTION('',(-1.E0,0.E0,0.E0));
#721=DIRECTION('',(0.E0,-1.E0,0.E0));
#722=AXIS2_PLACEMENT_3D('',#719,#720,#721);
#723=CONICAL_SURFACE('',#722,2.092397287743E-1,6.E1);
#725=ORIENTED_EDGE('',*,*,#724,.F.);
#727=ORIENTED_EDGE('',*,*,#726,.T.);
#729=ORIENTED_EDGE('',*,*,#728,.T.);
#730=ORIENTED_EDGE('',*,*,#712,.T.);
#731=EDGE_LOOP('',(#725,#727,#729,#730));
#732=FACE_OUTER_BOUND('',#731,.F.);
#734=CARTESIAN_POINT('',(6.695588429460E-2,0.E0,0.E0));
#735=DIRECTION('',(-1.E0,0.E0,0.E0));
#736=DIRECTION('',(0.E0,-1.E0,0.E0));
#737=AXIS2_PLACEMENT_3D('',#734,#735,#736);
#738=CONICAL_SURFACE('',#737,2.092397287743E-1,6.E1);
#739=ORIENTED_EDGE('',*,*,#699,.T.);
#740=ORIENTED_EDGE('',*,*,#728,.F.);
#742=ORIENTED_EDGE('',*,*,#741,.T.);
#743=ORIENTED_EDGE('',*,*,#724,.T.);
#744=EDGE_LOOP('',(#739,#740,#742,#743));
#745=FACE_OUTER_BOUND('',#744,.F.);
#747=CARTESIAN_POINT('',(6.251640419948E-2,0.E0,0.E0));
#748=DIRECTION('',(-1.E0,0.E0,0.E0));
#749=DIRECTION('',(0.E0,-1.E0,0.E0));
#750=AXIS2_PLACEMENT_3D('',#747,#748,#749);
#751=TOROIDAL_SURFACE('',#750,2.082677165354E-1,4.330708661417E-3);
#752=ORIENTED_EDGE('',*,*,#741,.F.);
#754=ORIENTED_EDGE('',*,*,#753,.F.);
#756=ORIENTED_EDGE('',*,*,#755,.F.);
#758=ORIENTED_EDGE('',*,*,#757,.T.);
#760=ORIENTED_EDGE('',*,*,#759,.T.);
#762=ORIENTED_EDGE('',*,*,#761,.T.);
#763=EDGE_LOOP('',(#752,#754,#756,#758,#760,#762));
#764=FACE_OUTER_BOUND('',#763,.F.);
#766=CARTESIAN_POINT('',(6.251640419948E-2,0.E0,0.E0));
#767=DIRECTION('',(-1.E0,0.E0,0.E0));
#768=DIRECTION('',(0.E0,-1.E0,0.E0));
#769=AXIS2_PLACEMENT_3D('',#766,#767,#768);
#770=TOROIDAL_SURFACE('',#769,2.082677165354E-1,4.330708661417E-3);
#771=ORIENTED_EDGE('',*,*,#759,.F.);
#773=ORIENTED_EDGE('',*,*,#772,.T.);
#774=ORIENTED_EDGE('',*,*,#755,.T.);
#775=ORIENTED_EDGE('',*,*,#753,.T.);
#776=ORIENTED_EDGE('',*,*,#726,.F.);
#777=ORIENTED_EDGE('',*,*,#761,.F.);
#778=EDGE_LOOP('',(#771,#773,#774,#775,#776,#777));
#779=FACE_OUTER_BOUND('',#778,.F.);
#781=CARTESIAN_POINT('',(5.818569553806E-2,2.082677165354E-1,0.E0));
#782=DIRECTION('',(1.E0,0.E0,0.E0));
#783=DIRECTION('',(0.E0,1.E0,0.E0));
#784=AXIS2_PLACEMENT_3D('',#781,#782,#783);
#785=PLANE('',#784);
#786=ORIENTED_EDGE('',*,*,#757,.F.);
#787=ORIENTED_EDGE('',*,*,#772,.F.);
#788=EDGE_LOOP('',(#786,#787));
#789=FACE_OUTER_BOUND('',#788,.F.);
#791=ORIENTED_EDGE('',*,*,#790,.F.);
#793=ORIENTED_EDGE('',*,*,#792,.F.);
#794=EDGE_LOOP('',(#791,#793));
#795=FACE_BOUND('',#794,.F.);
#797=CARTESIAN_POINT('',(6.084317585302E-2,0.E0,0.E0));
#798=DIRECTION('',(-1.E0,0.E0,0.E0));
#799=DIRECTION('',(0.E0,-1.E0,0.E0));
#800=AXIS2_PLACEMENT_3D('',#797,#798,#799);
#801=TOROIDAL_SURFACE('',#800,2.025283093319E-1,2.657480314961E-3);
#802=ORIENTED_EDGE('',*,*,#790,.T.);
#804=ORIENTED_EDGE('',*,*,#803,.F.);
#806=ORIENTED_EDGE('',*,*,#805,.F.);
#808=ORIENTED_EDGE('',*,*,#807,.T.);
#809=EDGE_LOOP('',(#802,#804,#806,#808));
#810=FACE_OUTER_BOUND('',#809,.F.);
#812=CARTESIAN_POINT('',(6.084317585302E-2,0.E0,0.E0));
#813=DIRECTION('',(-1.E0,0.E0,0.E0));
#814=DIRECTION('',(0.E0,-1.E0,0.E0));
#815=AXIS2_PLACEMENT_3D('',#812,#813,#814);
#816=TOROIDAL_SURFACE('',#815,2.025283093319E-1,2.657480314961E-3);
#817=ORIENTED_EDGE('',*,*,#807,.F.);
#819=ORIENTED_EDGE('',*,*,#818,.F.);
#820=ORIENTED_EDGE('',*,*,#803,.T.);
#821=ORIENTED_EDGE('',*,*,#792,.T.);
#822=EDGE_LOOP('',(#817,#819,#820,#821));
#823=FACE_OUTER_BOUND('',#822,.F.);
#825=CARTESIAN_POINT('',(6.207759186352E-2,0.E0,0.E0));
#826=DIRECTION('',(-1.E0,0.E0,0.E0));
#827=DIRECTION('',(0.E0,-1.E0,0.E0));
#828=AXIS2_PLACEMENT_3D('',#825,#826,#827);
#829=CONICAL_SURFACE('',#828,1.987470249655E-1,3.E1);
#831=ORIENTED_EDGE('',*,*,#830,.T.);
#833=ORIENTED_EDGE('',*,*,#832,.F.);
#834=ORIENTED_EDGE('',*,*,#818,.T.);
#836=ORIENTED_EDGE('',*,*,#835,.T.);
#837=EDGE_LOOP('',(#831,#833,#834,#836));
#838=FACE_OUTER_BOUND('',#837,.F.);
#840=CARTESIAN_POINT('',(6.407480314961E-2,0.E0,0.E0));
#841=DIRECTION('',(-1.E0,0.E0,0.E0));
#842=DIRECTION('',(0.E0,-1.E0,0.E0));
#843=AXIS2_PLACEMENT_3D('',#840,#841,#842);
#844=TOROIDAL_SURFACE('',#843,1.962869407722E-1,1.131889763780E-3);
#846=ORIENTED_EDGE('',*,*,#845,.T.);
#848=ORIENTED_EDGE('',*,*,#847,.F.);
#849=ORIENTED_EDGE('',*,*,#830,.F.);
#851=ORIENTED_EDGE('',*,*,#850,.T.);
#852=EDGE_LOOP('',(#846,#848,#849,#851));
#853=FACE_OUTER_BOUND('',#852,.F.);
#855=CARTESIAN_POINT('',(6.520669291339E-2,1.962869407722E-1,0.E0));
#856=DIRECTION('',(1.E0,0.E0,0.E0));
#857=DIRECTION('',(0.E0,1.E0,0.E0));
#858=AXIS2_PLACEMENT_3D('',#855,#856,#857);
#859=PLANE('',#858);
#861=ORIENTED_EDGE('',*,*,#860,.F.);
#862=ORIENTED_EDGE('',*,*,#845,.F.);
#863=EDGE_LOOP('',(#861,#862));
#864=FACE_OUTER_BOUND('',#863,.F.);
#866=ORIENTED_EDGE('',*,*,#865,.F.);
#868=ORIENTED_EDGE('',*,*,#867,.F.);
#869=EDGE_LOOP('',(#866,#868));
#870=FACE_BOUND('',#869,.F.);
#872=CARTESIAN_POINT('',(6.407480314961E-2,0.E0,0.E0));
#873=DIRECTION('',(-1.E0,0.E0,0.E0));
#874=DIRECTION('',(0.E0,-1.E0,0.E0));
#875=AXIS2_PLACEMENT_3D('',#872,#873,#874);
#876=TOROIDAL_SURFACE('',#875,1.962869407722E-1,1.131889763780E-3);
#877=ORIENTED_EDGE('',*,*,#850,.F.);
#879=ORIENTED_EDGE('',*,*,#878,.F.);
#880=ORIENTED_EDGE('',*,*,#847,.T.);
#881=ORIENTED_EDGE('',*,*,#860,.T.);
#882=EDGE_LOOP('',(#877,#879,#880,#881));
#883=FACE_OUTER_BOUND('',#882,.F.);
#885=CARTESIAN_POINT('',(6.207759186352E-2,0.E0,0.E0));
#886=DIRECTION('',(-1.E0,0.E0,0.E0));
#887=DIRECTION('',(0.E0,-1.E0,0.E0));
#888=AXIS2_PLACEMENT_3D('',#885,#886,#887);
#889=CONICAL_SURFACE('',#888,1.987470249655E-1,3.E1);
#890=ORIENTED_EDGE('',*,*,#835,.F.);
#891=ORIENTED_EDGE('',*,*,#805,.T.);
#892=ORIENTED_EDGE('',*,*,#832,.T.);
#893=ORIENTED_EDGE('',*,*,#878,.T.);
#894=EDGE_LOOP('',(#890,#891,#892,#893));
#895=FACE_OUTER_BOUND('',#894,.F.);
#897=CARTESIAN_POINT('',(-6.200787401575E-2,0.E0,0.E0));
#898=DIRECTION('',(-1.E0,0.E0,0.E0));
#899=DIRECTION('',(0.E0,-1.E0,0.E0));
#900=AXIS2_PLACEMENT_3D('',#897,#898,#899);
#901=CYLINDRICAL_SURFACE('',#900,1.811023622047E-1);
#903=ORIENTED_EDGE('',*,*,#902,.F.);
#904=ORIENTED_EDGE('',*,*,#865,.T.);
#906=ORIENTED_EDGE('',*,*,#905,.T.);
#908=ORIENTED_EDGE('',*,*,#907,.T.);
#909=EDGE_LOOP('',(#903,#904,#906,#908));
#910=FACE_OUTER_BOUND('',#909,.F.);
#912=CARTESIAN_POINT('',(-6.200787401575E-2,0.E0,0.E0));
#913=DIRECTION('',(-1.E0,0.E0,0.E0));
#914=DIRECTION('',(0.E0,-1.E0,0.E0));
#915=AXIS2_PLACEMENT_3D('',#912,#913,#914);
#916=CYLINDRICAL_SURFACE('',#915,1.811023622047E-1);
#918=ORIENTED_EDGE('',*,*,#917,.T.);
#919=ORIENTED_EDGE('',*,*,#905,.F.);
#920=ORIENTED_EDGE('',*,*,#867,.T.);
#921=ORIENTED_EDGE('',*,*,#902,.T.);
#922=EDGE_LOOP('',(#918,#919,#920,#921));
#923=FACE_OUTER_BOUND('',#922,.F.);
#925=CARTESIAN_POINT('',(6.717519685039E-2,1.962869407722E-1,0.E0));
#926=DIRECTION('',(1.E0,0.E0,0.E0));
#927=DIRECTION('',(0.E0,1.E0,0.E0));
#928=AXIS2_PLACEMENT_3D('',#925,#926,#927);
#929=PLANE('',#928);
#931=ORIENTED_EDGE('',*,*,#930,.F.);
#933=ORIENTED_EDGE('',*,*,#932,.F.);
#934=EDGE_LOOP('',(#931,#933));
#935=FACE_OUTER_BOUND('',#934,.F.);
#936=ORIENTED_EDGE('',*,*,#907,.F.);
#937=ORIENTED_EDGE('',*,*,#917,.F.);
#938=EDGE_LOOP('',(#936,#937));
#939=FACE_BOUND('',#938,.F.);
#941=CARTESIAN_POINT('',(6.407480314961E-2,0.E0,0.E0));
#942=DIRECTION('',(-1.E0,0.E0,0.E0));
#943=DIRECTION('',(0.E0,-1.E0,0.E0));
#944=AXIS2_PLACEMENT_3D('',#941,#942,#943);
#945=TOROIDAL_SURFACE('',#944,1.962869407722E-1,3.100393700787E-3);
#946=ORIENTED_EDGE('',*,*,#930,.T.);
#948=ORIENTED_EDGE('',*,*,#947,.F.);
#950=ORIENTED_EDGE('',*,*,#949,.F.);
#952=ORIENTED_EDGE('',*,*,#951,.T.);
#953=EDGE_LOOP('',(#946,#948,#950,#952));
#954=FACE_OUTER_BOUND('',#953,.F.);
#956=CARTESIAN_POINT('',(6.407480314961E-2,0.E0,0.E0));
#957=DIRECTION('',(-1.E0,0.E0,0.E0));
#958=DIRECTION('',(0.E0,-1.E0,0.E0));
#959=AXIS2_PLACEMENT_3D('',#956,#957,#958);
#960=TOROIDAL_SURFACE('',#959,1.962869407722E-1,3.100393700787E-3);
#961=ORIENTED_EDGE('',*,*,#951,.F.);
#963=ORIENTED_EDGE('',*,*,#962,.F.);
#964=ORIENTED_EDGE('',*,*,#947,.T.);
#965=ORIENTED_EDGE('',*,*,#932,.T.);
#966=EDGE_LOOP('',(#961,#963,#964,#965));
#967=FACE_OUTER_BOUND('',#966,.F.);
#969=CARTESIAN_POINT('',(6.306184383202E-2,0.E0,0.E0));
#970=DIRECTION('',(-1.E0,0.E0,0.E0));
#971=DIRECTION('',(0.E0,-1.E0,0.E0));
#972=AXIS2_PLACEMENT_3D('',#969,#970,#971);
#973=CONICAL_SURFACE('',#972,2.004517993824E-1,3.E1);
#975=ORIENTED_EDGE('',*,*,#974,.F.);
#977=ORIENTED_EDGE('',*,*,#976,.T.);
#979=ORIENTED_EDGE('',*,*,#978,.T.);
#980=ORIENTED_EDGE('',*,*,#962,.T.);
#981=EDGE_LOOP('',(#975,#977,#979,#980));
#982=FACE_OUTER_BOUND('',#981,.F.);
#984=CARTESIAN_POINT('',(6.306184383202E-2,0.E0,0.E0));
#985=DIRECTION('',(-1.E0,0.E0,0.E0));
#986=DIRECTION('',(0.E0,-1.E0,0.E0));
#987=AXIS2_PLACEMENT_3D('',#984,#985,#986);
#988=CONICAL_SURFACE('',#987,2.004517993824E-1,3.E1);
#989=ORIENTED_EDGE('',*,*,#949,.T.);
#990=ORIENTED_EDGE('',*,*,#978,.F.);
#992=ORIENTED_EDGE('',*,*,#991,.T.);
#993=ORIENTED_EDGE('',*,*,#974,.T.);
#994=EDGE_LOOP('',(#989,#990,#992,#993));
#995=FACE_OUTER_BOUND('',#994,.F.);
#997=CARTESIAN_POINT('',(6.084317585302E-2,0.E0,0.E0));
#998=DIRECTION('',(-1.E0,0.E0,0.E0));
#999=DIRECTION('',(0.E0,-1.E0,0.E0));
#1000=AXIS2_PLACEMENT_3D('',#997,#998,#999);
#1001=TOROIDAL_SURFACE('',#1000,2.025283093319E-1,6.889763779528E-4);
#1003=ORIENTED_EDGE('',*,*,#1002,.F.);
#1004=ORIENTED_EDGE('',*,*,#991,.F.);
#1006=ORIENTED_EDGE('',*,*,#1005,.T.);
#1008=ORIENTED_EDGE('',*,*,#1007,.T.);
#1009=EDGE_LOOP('',(#1003,#1004,#1006,#1008));
#1010=FACE_OUTER_BOUND('',#1009,.F.);
#1012=CARTESIAN_POINT('',(6.084317585302E-2,0.E0,0.E0));
#1013=DIRECTION('',(-1.E0,0.E0,0.E0));
#1014=DIRECTION('',(0.E0,-1.E0,0.E0));
#1015=AXIS2_PLACEMENT_3D('',#1012,#1013,#1014);
#1016=TOROIDAL_SURFACE('',#1015,2.025283093319E-1,6.889763779528E-4);
#1018=ORIENTED_EDGE('',*,*,#1017,.T.);
#1019=ORIENTED_EDGE('',*,*,#1005,.F.);
#1020=ORIENTED_EDGE('',*,*,#976,.F.);
#1021=ORIENTED_EDGE('',*,*,#1002,.T.);
#1022=EDGE_LOOP('',(#1018,#1019,#1020,#1021));
#1023=FACE_OUTER_BOUND('',#1022,.F.);
#1025=CARTESIAN_POINT('',(6.015419947507E-2,2.082677165354E-1,0.E0));
#1026=DIRECTION('',(1.E0,0.E0,0.E0));
#1027=DIRECTION('',(0.E0,1.E0,0.E0));
#1028=AXIS2_PLACEMENT_3D('',#1025,#1026,#1027);
#1029=PLANE('',#1028);
#1031=ORIENTED_EDGE('',*,*,#1030,.F.);
#1033=ORIENTED_EDGE('',*,*,#1032,.F.);
#1034=EDGE_LOOP('',(#1031,#1033));
#1035=FACE_OUTER_BOUND('',#1034,.F.);
#1036=ORIENTED_EDGE('',*,*,#1007,.F.);
#1037=ORIENTED_EDGE('',*,*,#1017,.F.);
#1038=EDGE_LOOP('',(#1036,#1037));
#1039=FACE_BOUND('',#1038,.F.);
#1041=CARTESIAN_POINT('',(6.251640419948E-2,0.E0,0.E0));
#1042=DIRECTION('',(-1.E0,0.E0,0.E0));
#1043=DIRECTION('',(0.E0,-1.E0,0.E0));
#1044=AXIS2_PLACEMENT_3D('',#1041,#1042,#1043);
#1045=TOROIDAL_SURFACE('',#1044,2.082677165354E-1,2.362204724409E-3);
#1047=ORIENTED_EDGE('',*,*,#1046,.F.);
#1048=ORIENTED_EDGE('',*,*,#1030,.T.);
#1050=ORIENTED_EDGE('',*,*,#1049,.T.);
#1052=ORIENTED_EDGE('',*,*,#1051,.T.);
#1053=ORIENTED_EDGE('',*,*,#624,.F.);
#1055=ORIENTED_EDGE('',*,*,#1054,.F.);
#1056=EDGE_LOOP('',(#1047,#1048,#1050,#1052,#1053,#1055));
#1057=FACE_OUTER_BOUND('',#1056,.F.);
#1059=CARTESIAN_POINT('',(6.251640419948E-2,0.E0,0.E0));
#1060=DIRECTION('',(-1.E0,0.E0,0.E0));
#1061=DIRECTION('',(0.E0,-1.E0,0.E0));
#1062=AXIS2_PLACEMENT_3D('',#1059,#1060,#1061);
#1063=TOROIDAL_SURFACE('',#1062,2.082677165354E-1,2.362204724409E-3);
#1064=ORIENTED_EDGE('',*,*,#641,.F.);
#1065=ORIENTED_EDGE('',*,*,#1051,.F.);
#1066=ORIENTED_EDGE('',*,*,#1049,.F.);
#1067=ORIENTED_EDGE('',*,*,#1032,.T.);
#1068=ORIENTED_EDGE('',*,*,#1046,.T.);
#1069=ORIENTED_EDGE('',*,*,#1054,.T.);
#1070=EDGE_LOOP('',(#1064,#1065,#1066,#1067,#1068,#1069));
#1071=FACE_OUTER_BOUND('',#1070,.F.);
#1075=FILL_AREA_STYLE_COLOUR('',#1);
#1076=FILL_AREA_STYLE('',(#1075));
#1077=SURFACE_STYLE_FILL_AREA(#1076);
#1078=SURFACE_SIDE_STYLE('',(#1077));
#1079=SURFACE_STYLE_USAGE(.BOTH.,#1078);
#1080=PRESENTATION_STYLE_ASSIGNMENT((#1079));
#17=STYLED_ITEM('',(#1080),#1074);
#1081=PRESENTATION_LAYER_ASSIGNMENT('NONE_31','',(#17,#632,#646,#661,#678,#690,
#705,#718,#733,#746,#765,#780,#796,#811,#824,#839,#854,#871,#884,#896,#911,#924,
#940,#955,#968,#983,#996,#1011,#1024,#1040,#1058,#1072));
#1083=LENGTH_MEASURE_WITH_UNIT(LENGTH_MEASURE(2.54E1),#1082);
#1084=(CONVERSION_BASED_UNIT('INCH',#1083)LENGTH_UNIT()NAMED_UNIT(*));
#1086=PLANE_ANGLE_MEASURE_WITH_UNIT(PLANE_ANGLE_MEASURE(1.745329251994E-2),
#1085);
#1087=(CONVERSION_BASED_UNIT('DEGREE',#1086)NAMED_UNIT(*)PLANE_ANGLE_UNIT());
#1089=UNCERTAINTY_MEASURE_WITH_UNIT(LENGTH_MEASURE(6.013788970847E-5),#1084,
'closure',
'Maximum model space distance between geometric entities at asserted connectivities');
#1091=CARTESIAN_POINT('',(0.E0,0.E0,0.E0));
#1092=DIRECTION('',(0.E0,0.E0,1.E0));
#1093=DIRECTION('',(1.E0,0.E0,0.E0));
#1096=MECHANICAL_DESIGN_GEOMETRIC_PRESENTATION_REPRESENTATION('',(#25,#32,#40,
#48,#56,#64,#72,#80,#88,#96,#104,#112,#120,#128,#135,#142,#150,#158,#166,#174,
#182,#190,#198,#206,#214,#222,#230,#238,#246,#254,#261,#269,#277,#285,#293,#301,
#309,#317,#325,#332,#339,#346,#354,#362,#370,#378,#386,#394,#402,#410,#417,#424,
#432,#440,#448,#456,#464,#472,#480,#488,#496,#504,#512,#520,#528,#536,#17),
#1090);
#1097=APPLICATION_CONTEXT('automotive design');
#1098=APPLICATION_PROTOCOL_DEFINITION('international standard',
'config_control_design',1994,#1097);
#1099=PRODUCT_DEFINITION_CONTEXT('',#1097,'design');
#1100=PRODUCT_CONTEXT('',#1097,'mechanical');
#1101=PRODUCT('REVOLVE-THIN1','REVOLVE-THIN1','NOT SPECIFIED',(#1100));
#1102=PRODUCT_DEFINITION_FORMATION_WITH_SPECIFIED_SOURCE('1','LAST_VERSION',
#1101,.MADE.);
#1110=LENGTH_MEASURE_WITH_UNIT(LENGTH_MEASURE(2.54E1),#1109);
#1111=(CONVERSION_BASED_UNIT('INCH',#1110)LENGTH_UNIT()NAMED_UNIT(*));
#1112=DERIVED_UNIT_ELEMENT(#1111,2.E0);
#1113=AREA_UNIT((#1112));
#1114=MEASURE_REPRESENTATION_ITEM('surface area measure',AREA_MEASURE(
8.309160798831E1),#1113);
#1119=LENGTH_MEASURE_WITH_UNIT(LENGTH_MEASURE(2.54E1),#1118);
#1120=(CONVERSION_BASED_UNIT('INCH',#1119)LENGTH_UNIT()NAMED_UNIT(*));
#1121=DERIVED_UNIT_ELEMENT(#1120,3.E0);
#1122=VOLUME_UNIT((#1121));
#1123=MEASURE_REPRESENTATION_ITEM('volume measure',VOLUME_MEASURE(
2.000627132554E0),#1122);
#1127=CARTESIAN_POINT('centre point',(1.622350035202E0,-2.978701043185E-14,
-3.295973605597E-11));
#1132=LENGTH_MEASURE_WITH_UNIT(LENGTH_MEASURE(2.54E1),#1131);
#1133=(CONVERSION_BASED_UNIT('INCH',#1132)LENGTH_UNIT()NAMED_UNIT(*));
#1134=DERIVED_UNIT_ELEMENT(#1133,2.E0);
#1135=AREA_UNIT((#1134));
#1136=MEASURE_REPRESENTATION_ITEM('surface area measure',AREA_MEASURE(
8.309160798831E1),#1135);
#1141=LENGTH_MEASURE_WITH_UNIT(LENGTH_MEASURE(2.54E1),#1140);
#1142=(CONVERSION_BASED_UNIT('INCH',#1141)LENGTH_UNIT()NAMED_UNIT(*));
#1143=DERIVED_UNIT_ELEMENT(#1142,3.E0);
#1144=VOLUME_UNIT((#1143));
#1145=MEASURE_REPRESENTATION_ITEM('volume measure',VOLUME_MEASURE(
2.000627132554E0),#1144);
#1149=CARTESIAN_POINT('centre point',(1.622350035202E0,-2.978701043185E-14,
-3.295973605597E-11));
#1=COLOUR_RGB('',8.23529E-1,7.05882E-1,4.31373E-1);
#2=DRAUGHTING_PRE_DEFINED_COLOUR('green');
#3=COLOUR_RGB('',1.1E-2,1.2E-2,1.E0);
#4=COLOUR_RGB('',2.352941176471E-1,2.352941176471E-1,2.352941176471E-1);
#5=COLOUR_RGB('',4.1E-1,2.61589E-1,1.12848E-1);
#6=COLOUR_RGB('',5.04854E-1,1.5455E-2,1.5455E-2);
#7=COLOUR_RGB('',6.35294E-1,6.86275E-1,7.4902E-1);
#8=COLOUR_RGB('',6.40777E-1,6.40777E-1,6.40777E-1);
#9=COLOUR_RGB('',6.69062E-1,6.69903E-1,6.55217E-1);
#10=COLOUR_RGB('',8.23529E-1,7.05882E-1,4.31373E-1);
#11=COLOUR_RGB('',9.21569E-1,7.05882E-1,4.70588E-1);
#12=DRAUGHTING_PRE_DEFINED_COLOUR('red');
#13=DRAUGHTING_PRE_DEFINED_COLOUR('yellow');
#14=COLOUR_RGB('',1.E0,1.E0,5.3E-1);
#15=COLOUR_RGB('',1.E0,1.E0,9.49E-1);
#16=DRAUGHTING_PRE_DEFINED_COLOUR('white');
#37=CIRCLE('',#36,2.362204724409E-3);
#45=CIRCLE('',#44,2.070621347140E-1);
#53=CIRCLE('',#52,2.035188276274E-1);
#61=CIRCLE('',#60,2.035188276274E-1);
#69=CIRCLE('',#68,2.015503236904E-1);
#77=CIRCLE('',#76,2.015503236904E-1);
#85=CIRCLE('',#84,2.362204724409E-3);
#93=CIRCLE('',#92,2.070621347140E-1);
#101=CIRCLE('',#100,4.330708661417E-3);
#109=CIRCLE('',#108,2.080463866825E-1);
#117=CIRCLE('',#116,4.330708661417E-3);
#125=CIRCLE('',#124,2.080463866825E-1);
#147=CIRCLE('',#146,2.104330708661E-1);
#155=CIRCLE('',#154,4.330708661417E-3);
#163=CIRCLE('',#162,4.330708661417E-3);
#171=CIRCLE('',#170,4.330708661417E-3);
#179=CIRCLE('',#178,2.104330708661E-1);
#187=CIRCLE('',#186,4.330708661417E-3);
#195=CIRCLE('',#194,2.082677165354E-1);
#203=CIRCLE('',#202,2.082677165354E-1);
#211=CIRCLE('',#210,2.025283093319E-1);
#219=CIRCLE('',#218,2.025283093319E-1);
#227=CIRCLE('',#226,2.657480314961E-3);
#235=CIRCLE('',#234,2.002268638691E-1);
#243=CIRCLE('',#242,2.657480314961E-3);
#251=CIRCLE('',#250,2.002268638691E-1);
#266=CIRCLE('',#265,1.131889763780E-3);
#274=CIRCLE('',#273,1.972671860619E-1);
#282=CIRCLE('',#281,1.962869407722E-1);
#290=CIRCLE('',#289,1.962869407722E-1);
#298=CIRCLE('',#297,1.811023622047E-1);
#306=CIRCLE('',#305,1.811023622047E-1);
#314=CIRCLE('',#313,1.131889763780E-3);
#322=CIRCLE('',#321,1.972671860619E-1);
#351=CIRCLE('',#350,1.962869407722E-1);
#359=CIRCLE('',#358,1.962869407722E-1);
#367=CIRCLE('',#366,1.811023622047E-1);
#375=CIRCLE('',#374,1.811023622047E-1);
#383=CIRCLE('',#382,3.100393700787E-3);
#391=CIRCLE('',#390,1.989719604788E-1);
#399=CIRCLE('',#398,3.100393700787E-3);
#407=CIRCLE('',#406,1.989719604788E-1);
#429=CIRCLE('',#428,6.889763779528E-4);
#437=CIRCLE('',#436,2.019316382860E-1);
#445=CIRCLE('',#444,6.889763779528E-4);
#453=CIRCLE('',#452,2.019316382860E-1);
#461=CIRCLE('',#460,2.082677165354E-1);
#469=CIRCLE('',#468,2.082677165354E-1);
#477=CIRCLE('',#476,2.025283093319E-1);
#485=CIRCLE('',#484,2.025283093319E-1);
#493=CIRCLE('',#492,2.362204724409E-3);
#501=CIRCLE('',#500,2.094488188976E-1);
#509=CIRCLE('',#508,2.362204724409E-3);
#517=CIRCLE('',#516,2.094488188976E-1);
#525=CIRCLE('',#524,2.362204724409E-3);
#533=CIRCLE('',#532,2.362204724409E-3);
#622=EDGE_CURVE('',#548,#544,#21,.T.);
#624=EDGE_CURVE('',#548,#578,#501,.T.);
#626=EDGE_CURVE('',#578,#543,#29,.T.);
#628=EDGE_CURVE('',#543,#544,#93,.T.);
#632=ADVANCED_FACE('',(#631),#621,.F.);
#638=EDGE_CURVE('',#544,#543,#45,.T.);
#641=EDGE_CURVE('',#578,#548,#517,.T.);
#646=ADVANCED_FACE('',(#645),#637,.F.);
#652=EDGE_CURVE('',#574,#590,#61,.T.);
#654=EDGE_CURVE('',#543,#590,#37,.T.);
#657=EDGE_CURVE('',#544,#574,#85,.T.);
#661=ADVANCED_FACE('',(#660),#651,.F.);
#667=EDGE_CURVE('',#590,#574,#53,.T.);
#672=EDGE_CURVE('',#588,#587,#69,.T.);
#674=EDGE_CURVE('',#587,#588,#77,.T.);
#678=ADVANCED_FACE('',(#671,#677),#666,.T.);
#690=ADVANCED_FACE('',(#689),#683,.F.);
#697=EDGE_CURVE('',#558,#587,#101,.T.);
#699=EDGE_CURVE('',#540,#558,#109,.T.);
#701=EDGE_CURVE('',#540,#588,#117,.T.);
#705=ADVANCED_FACE('',(#704),#695,.T.);
#712=EDGE_CURVE('',#558,#540,#125,.T.);
#718=ADVANCED_FACE('',(#717),#710,.T.);
#724=EDGE_CURVE('',#539,#540,#132,.T.);
#726=EDGE_CURVE('',#539,#557,#179,.T.);
#728=EDGE_CURVE('',#557,#558,#139,.T.);
#733=ADVANCED_FACE('',(#732),#723,.T.);
#741=EDGE_CURVE('',#557,#539,#147,.T.);
#746=ADVANCED_FACE('',(#745),#738,.T.);
#753=EDGE_CURVE('',#616,#557,#155,.T.);
#755=EDGE_CURVE('',#571,#616,#163,.T.);
#757=EDGE_CURVE('',#571,#572,#195,.T.);
#759=EDGE_CURVE('',#572,#610,#171,.T.);
#761=EDGE_CURVE('',#610,#539,#187,.T.);
#765=ADVANCED_FACE('',(#764),#751,.T.);
#772=EDGE_CURVE('',#572,#571,#203,.T.);
#780=ADVANCED_FACE('',(#779),#770,.T.);
#790=EDGE_CURVE('',#594,#596,#211,.T.);
#792=EDGE_CURVE('',#596,#594,#219,.T.);
#796=ADVANCED_FACE('',(#789,#795),#785,.F.);
#803=EDGE_CURVE('',#598,#596,#227,.T.);
#805=EDGE_CURVE('',#593,#598,#235,.T.);
#807=EDGE_CURVE('',#593,#594,#243,.T.);
#811=ADVANCED_FACE('',(#810),#801,.T.);
#818=EDGE_CURVE('',#598,#593,#251,.T.);
#824=ADVANCED_FACE('',(#823),#816,.T.);
#830=EDGE_CURVE('',#604,#608,#274,.T.);
#832=EDGE_CURVE('',#598,#608,#258,.T.);
#835=EDGE_CURVE('',#593,#604,#329,.T.);
#839=ADVANCED_FACE('',(#838),#829,.F.);
#845=EDGE_CURVE('',#566,#565,#290,.T.);
#847=EDGE_CURVE('',#608,#565,#266,.T.);
#850=EDGE_CURVE('',#604,#566,#314,.T.);
#854=ADVANCED_FACE('',(#853),#844,.F.);
#860=EDGE_CURVE('',#565,#566,#282,.T.);
#865=EDGE_CURVE('',#606,#582,#298,.T.);
#867=EDGE_CURVE('',#582,#606,#306,.T.);
#871=ADVANCED_FACE('',(#864,#870),#859,.F.);
#878=EDGE_CURVE('',#608,#604,#322,.T.);
#884=ADVANCED_FACE('',(#883),#876,.F.);
#896=ADVANCED_FACE('',(#895),#889,.F.);
#902=EDGE_CURVE('',#606,#562,#336,.T.);
#905=EDGE_CURVE('',#582,#561,#343,.T.);
#907=EDGE_CURVE('',#561,#562,#367,.T.);
#911=ADVANCED_FACE('',(#910),#901,.F.);
#917=EDGE_CURVE('',#562,#561,#375,.T.);
#924=ADVANCED_FACE('',(#923),#916,.F.);
#930=EDGE_CURVE('',#602,#601,#351,.T.);
#932=EDGE_CURVE('',#601,#602,#359,.T.);
#940=ADVANCED_FACE('',(#935,#939),#929,.T.);
#947=EDGE_CURVE('',#614,#601,#383,.T.);
#949=EDGE_CURVE('',#584,#614,#391,.T.);
#951=EDGE_CURVE('',#584,#602,#399,.T.);
#955=ADVANCED_FACE('',(#954),#945,.T.);
#962=EDGE_CURVE('',#614,#584,#407,.T.);
#968=ADVANCED_FACE('',(#967),#960,.T.);
#974=EDGE_CURVE('',#568,#584,#414,.T.);
#976=EDGE_CURVE('',#568,#553,#453,.T.);
#978=EDGE_CURVE('',#553,#614,#421,.T.);
#983=ADVANCED_FACE('',(#982),#973,.T.);
#991=EDGE_CURVE('',#553,#568,#437,.T.);
#996=ADVANCED_FACE('',(#995),#988,.T.);
#1002=EDGE_CURVE('',#568,#612,#429,.T.);
#1005=EDGE_CURVE('',#553,#554,#445,.T.);
#1007=EDGE_CURVE('',#554,#612,#477,.T.);
#1011=ADVANCED_FACE('',(#1010),#1001,.F.);
#1017=EDGE_CURVE('',#612,#554,#485,.T.);
#1024=ADVANCED_FACE('',(#1023),#1016,.F.);
#1030=EDGE_CURVE('',#550,#580,#461,.T.);
#1032=EDGE_CURVE('',#580,#550,#469,.T.);
#1040=ADVANCED_FACE('',(#1035,#1039),#1029,.T.);
#1046=EDGE_CURVE('',#550,#547,#493,.T.);
#1049=EDGE_CURVE('',#580,#577,#533,.T.);
#1051=EDGE_CURVE('',#577,#578,#525,.T.);
#1054=EDGE_CURVE('',#547,#548,#509,.T.);
#1058=ADVANCED_FACE('',(#1057),#1045,.F.);
#1072=ADVANCED_FACE('',(#1071),#1063,.F.);
#1073=CLOSED_SHELL('',(#632,#646,#661,#678,#690,#705,#718,#733,#746,#765,#780,
#796,#811,#824,#839,#854,#871,#884,#896,#911,#924,#940,#955,#968,#983,#996,
#1011,#1024,#1040,#1058,#1072));
#1074=MANIFOLD_SOLID_BREP('',#1073);
#1082=(LENGTH_UNIT()NAMED_UNIT(*)SI_UNIT(.MILLI.,.METRE.));
#1085=(NAMED_UNIT(*)PLANE_ANGLE_UNIT()SI_UNIT($,.RADIAN.));
#1088=(NAMED_UNIT(*)SI_UNIT($,.STERADIAN.)SOLID_ANGLE_UNIT());
#1090=(GEOMETRIC_REPRESENTATION_CONTEXT(3)GLOBAL_UNCERTAINTY_ASSIGNED_CONTEXT((
#1089))GLOBAL_UNIT_ASSIGNED_CONTEXT((#1084,#1087,#1088))REPRESENTATION_CONTEXT(
'ID1','3'));
#1094=AXIS2_PLACEMENT_3D('',#1091,#1092,#1093);
#1095=ADVANCED_BREP_SHAPE_REPRESENTATION('',(#1094,#1074),#1090);
#1103=PRODUCT_DEFINITION('design','',#1102,#1099);
#1104=PRODUCT_DEFINITION_SHAPE('','SHAPE FOR REVOLVE-THIN1.',#1103);
#1105=SHAPE_ASPECT('','solid data associated with REVOLVE-THIN1',#1104,.F.);
#1106=PROPERTY_DEFINITION('',
'shape for solid data with which properties are associated',#1105);
#1107=SHAPE_REPRESENTATION('',(#1074),#1090);
#1108=SHAPE_DEFINITION_REPRESENTATION(#1106,#1107);
#1109=(LENGTH_UNIT()NAMED_UNIT(*)SI_UNIT(.MILLI.,.METRE.));
#1115=PROPERTY_DEFINITION('geometric validation property',
'area of REVOLVE-THIN1',#1105);
#1116=REPRESENTATION('surface area',(#1114),#1090);
#1117=PROPERTY_DEFINITION_REPRESENTATION(#1115,#1116);
#1118=(LENGTH_UNIT()NAMED_UNIT(*)SI_UNIT(.MILLI.,.METRE.));
#1124=PROPERTY_DEFINITION('geometric validation property',
'volume of REVOLVE-THIN1',#1105);
#1125=REPRESENTATION('volume',(#1123),#1090);
#1126=PROPERTY_DEFINITION_REPRESENTATION(#1124,#1125);
#1128=PROPERTY_DEFINITION('geometric validation property',
'centroid of REVOLVE-THIN1',#1105);
#1129=REPRESENTATION('centroid',(#1127),#1090);
#1130=PROPERTY_DEFINITION_REPRESENTATION(#1128,#1129);
#1131=(LENGTH_UNIT()NAMED_UNIT(*)SI_UNIT(.MILLI.,.METRE.));
#1137=PROPERTY_DEFINITION('geometric validation property',
'area of REVOLVE-THIN1',#1104);
#1138=REPRESENTATION('surface area',(#1136),#1090);
#1139=PROPERTY_DEFINITION_REPRESENTATION(#1137,#1138);
#1140=(LENGTH_UNIT()NAMED_UNIT(*)SI_UNIT(.MILLI.,.METRE.));
#1146=PROPERTY_DEFINITION('geometric validation property',
'volume of REVOLVE-THIN1',#1104);
#1147=REPRESENTATION('volume',(#1145),#1090);
#1148=PROPERTY_DEFINITION_REPRESENTATION(#1146,#1147);
#1150=PROPERTY_DEFINITION('geometric validation property',
'centroid of REVOLVE-THIN1',#1104);
#1151=REPRESENTATION('centroid',(#1149),#1090);
#1152=PROPERTY_DEFINITION_REPRESENTATION(#1150,#1151);
#1153=SHAPE_DEFINITION_REPRESENTATION(#1104,#1095);
ENDSEC;
END-ISO-10303-21;
