ISO-10303-21;
HEADER;
FILE_DESCRIPTION((''),'2;1');
FILE_NAME('SEGMENT-BASE_','2026-06-15T13:45:38',('Esia'),(''),
'CREO PARAMETRIC BY PTC INC, 2025102','CREO PARAMETRIC BY PTC INC, 2025102','');
FILE_SCHEMA((
'AP242_MANAGED_MODEL_BASED_3D_ENGINEERING_MIM_LF { 1 0 10303 442 1 1 4 }'));
ENDSEC;
DATA;
#16=CARTESIAN_POINT('',(0.E0,1.5E0,0.E0));
#17=DIRECTION('',(0.E0,-1.E0,0.E0));
#18=DIRECTION('',(1.E0,0.E0,0.E0));
#19=AXIS2_PLACEMENT_3D('',#16,#17,#18);
#21=DRAUGHTING_PRE_DEFINED_CURVE_FONT('continuous');
#22=CURVE_STYLE('',#21,POSITIVE_LENGTH_MEASURE(2.E-2),#14);
#23=PRESENTATION_STYLE_ASSIGNMENT((#22));
#24=STYLED_ITEM('',(#23),#20);
#25=CARTESIAN_POINT('',(0.E0,1.5E0,0.E0));
#26=DIRECTION('',(0.E0,-1.E0,0.E0));
#27=DIRECTION('',(-1.E0,0.E0,0.E0));
#28=AXIS2_PLACEMENT_3D('',#25,#26,#27);
#30=CURVE_STYLE('',#21,POSITIVE_LENGTH_MEASURE(2.E-2),#14);
#31=PRESENTATION_STYLE_ASSIGNMENT((#30));
#32=STYLED_ITEM('',(#31),#29);
#33=DIRECTION('',(-1.E0,0.E0,0.E0));
#34=VECTOR('',#33,1.E0);
#35=CARTESIAN_POINT('',(5.E-1,1.5E0,2.5E-1));
#36=LINE('',#35,#34);
#37=CURVE_STYLE('',#21,POSITIVE_LENGTH_MEASURE(2.E-2),#14);
#38=PRESENTATION_STYLE_ASSIGNMENT((#37));
#39=STYLED_ITEM('',(#38),#36);
#40=DIRECTION('',(0.E0,0.E0,1.E0));
#41=VECTOR('',#40,5.E-1);
#42=CARTESIAN_POINT('',(5.E-1,1.5E0,-2.5E-1));
#43=LINE('',#42,#41);
#44=CURVE_STYLE('',#21,POSITIVE_LENGTH_MEASURE(2.E-2),#14);
#45=PRESENTATION_STYLE_ASSIGNMENT((#44));
#46=STYLED_ITEM('',(#45),#43);
#47=DIRECTION('',(-1.E0,0.E0,0.E0));
#48=VECTOR('',#47,1.E0);
#49=CARTESIAN_POINT('',(5.E-1,1.5E0,-2.5E-1));
#50=LINE('',#49,#48);
#51=CURVE_STYLE('',#21,POSITIVE_LENGTH_MEASURE(2.E-2),#14);
#52=PRESENTATION_STYLE_ASSIGNMENT((#51));
#53=STYLED_ITEM('',(#52),#50);
#54=DIRECTION('',(0.E0,1.E0,0.E0));
#55=VECTOR('',#54,2.E-1);
#56=CARTESIAN_POINT('',(-1.181102362205E-1,1.5E0,0.E0));
#57=LINE('',#56,#55);
#58=CURVE_STYLE('',#21,POSITIVE_LENGTH_MEASURE(2.E-2),#14);
#59=PRESENTATION_STYLE_ASSIGNMENT((#58));
#60=STYLED_ITEM('',(#59),#57);
#61=DIRECTION('',(0.E0,1.E0,0.E0));
#62=VECTOR('',#61,2.E-1);
#63=CARTESIAN_POINT('',(1.181102362205E-1,1.5E0,0.E0));
#64=LINE('',#63,#62);
#65=CURVE_STYLE('',#21,POSITIVE_LENGTH_MEASURE(2.E-2),#14);
#66=PRESENTATION_STYLE_ASSIGNMENT((#65));
#67=STYLED_ITEM('',(#66),#64);
#68=CARTESIAN_POINT('',(0.E0,1.7E0,0.E0));
#69=DIRECTION('',(0.E0,1.E0,0.E0));
#70=DIRECTION('',(-1.E0,0.E0,0.E0));
#71=AXIS2_PLACEMENT_3D('',#68,#69,#70);
#73=CURVE_STYLE('',#21,POSITIVE_LENGTH_MEASURE(2.E-2),#14);
#74=PRESENTATION_STYLE_ASSIGNMENT((#73));
#75=STYLED_ITEM('',(#74),#72);
#76=CARTESIAN_POINT('',(0.E0,1.7E0,0.E0));
#77=DIRECTION('',(0.E0,1.E0,0.E0));
#78=DIRECTION('',(1.E0,0.E0,0.E0));
#79=AXIS2_PLACEMENT_3D('',#76,#77,#78);
#81=CURVE_STYLE('',#21,POSITIVE_LENGTH_MEASURE(2.E-2),#14);
#82=PRESENTATION_STYLE_ASSIGNMENT((#81));
#83=STYLED_ITEM('',(#82),#80);
#84=DIRECTION('',(-1.E0,0.E0,0.E0));
#85=VECTOR('',#84,1.4E0);
#86=CARTESIAN_POINT('',(7.E-1,1.7E0,3.E-1));
#87=LINE('',#86,#85);
#88=CURVE_STYLE('',#21,POSITIVE_LENGTH_MEASURE(2.E-2),#14);
#89=PRESENTATION_STYLE_ASSIGNMENT((#88));
#90=STYLED_ITEM('',(#89),#87);
#91=DIRECTION('',(-1.E0,0.E0,0.E0));
#92=VECTOR('',#91,1.4E0);
#93=CARTESIAN_POINT('',(7.E-1,1.7E0,-3.E-1));
#94=LINE('',#93,#92);
#95=CURVE_STYLE('',#21,POSITIVE_LENGTH_MEASURE(2.E-2),#14);
#96=PRESENTATION_STYLE_ASSIGNMENT((#95));
#97=STYLED_ITEM('',(#96),#94);
#98=DIRECTION('',(0.E0,0.E0,1.E0));
#99=VECTOR('',#98,6.E-1);
#100=CARTESIAN_POINT('',(7.E-1,1.7E0,-3.E-1));
#101=LINE('',#100,#99);
#102=CURVE_STYLE('',#21,POSITIVE_LENGTH_MEASURE(2.E-2),#14);
#103=PRESENTATION_STYLE_ASSIGNMENT((#102));
#104=STYLED_ITEM('',(#103),#101);
#105=CARTESIAN_POINT('',(-1.E-2,4.9E-1,3.E-1));
#106=DIRECTION('',(0.E0,0.E0,1.E0));
#107=DIRECTION('',(-1.E0,0.E0,0.E0));
#108=AXIS2_PLACEMENT_3D('',#105,#106,#107);
#110=CURVE_STYLE('',#21,POSITIVE_LENGTH_MEASURE(2.E-2),#14);
#111=PRESENTATION_STYLE_ASSIGNMENT((#110));
#112=STYLED_ITEM('',(#111),#109);
#113=CARTESIAN_POINT('',(1.E-2,4.9E-1,3.E-1));
#114=DIRECTION('',(0.E0,0.E0,1.E0));
#115=DIRECTION('',(0.E0,-1.E0,0.E0));
#116=AXIS2_PLACEMENT_3D('',#113,#114,#115);
#118=CURVE_STYLE('',#21,POSITIVE_LENGTH_MEASURE(2.E-2),#14);
#119=PRESENTATION_STYLE_ASSIGNMENT((#118));
#120=STYLED_ITEM('',(#119),#117);
#121=DIRECTION('',(0.E0,0.E0,-1.E0));
#122=VECTOR('',#121,5.E-1);
#123=CARTESIAN_POINT('',(-5.E-1,4.201687940355E-3,2.5E-1));
#124=LINE('',#123,#122);
#125=CURVE_STYLE('',#21,POSITIVE_LENGTH_MEASURE(2.E-2),#14);
#126=PRESENTATION_STYLE_ASSIGNMENT((#125));
#127=STYLED_ITEM('',(#126),#124);
#128=DIRECTION('',(0.E0,0.E0,1.E0));
#129=VECTOR('',#128,6.E-1);
#130=CARTESIAN_POINT('',(-7.E-1,4.9E-1,-3.E-1));
#131=LINE('',#130,#129);
#132=CURVE_STYLE('',#21,POSITIVE_LENGTH_MEASURE(2.E-2),#14);
#133=PRESENTATION_STYLE_ASSIGNMENT((#132));
#134=STYLED_ITEM('',(#133),#131);
#135=CARTESIAN_POINT('',(-5.E-1,8.75E-1,0.E0));
#136=DIRECTION('',(-1.E0,0.E0,0.E0));
#137=DIRECTION('',(0.E0,0.E0,1.E0));
#138=AXIS2_PLACEMENT_3D('',#135,#136,#137);
#140=CURVE_STYLE('',#21,POSITIVE_LENGTH_MEASURE(2.E-2),#14);
#141=PRESENTATION_STYLE_ASSIGNMENT((#140));
#142=STYLED_ITEM('',(#141),#139);
#143=CARTESIAN_POINT('',(-5.E-1,8.75E-1,0.E0));
#144=DIRECTION('',(-1.E0,0.E0,0.E0));
#145=DIRECTION('',(0.E0,0.E0,-1.E0));
#146=AXIS2_PLACEMENT_3D('',#143,#144,#145);
#148=CURVE_STYLE('',#21,POSITIVE_LENGTH_MEASURE(2.E-2),#14);
#149=PRESENTATION_STYLE_ASSIGNMENT((#148));
#150=STYLED_ITEM('',(#149),#147);
#151=DIRECTION('',(0.E0,-1.E0,0.E0));
#152=VECTOR('',#151,1.495798312060E0);
#153=CARTESIAN_POINT('',(-5.E-1,1.5E0,2.5E-1));
#154=LINE('',#153,#152);
#155=CURVE_STYLE('',#21,POSITIVE_LENGTH_MEASURE(2.E-2),#14);
#156=PRESENTATION_STYLE_ASSIGNMENT((#155));
#157=STYLED_ITEM('',(#156),#154);
#158=DIRECTION('',(0.E0,0.E0,1.E0));
#159=VECTOR('',#158,5.E-1);
#160=CARTESIAN_POINT('',(-5.E-1,1.5E0,-2.5E-1));
#161=LINE('',#160,#159);
#162=CURVE_STYLE('',#21,POSITIVE_LENGTH_MEASURE(2.E-2),#14);
#163=PRESENTATION_STYLE_ASSIGNMENT((#162));
#164=STYLED_ITEM('',(#163),#161);
#165=DIRECTION('',(0.E0,-1.E0,0.E0));
#166=VECTOR('',#165,1.495798312060E0);
#167=CARTESIAN_POINT('',(-5.E-1,1.5E0,-2.5E-1));
#168=LINE('',#167,#166);
#169=CURVE_STYLE('',#21,POSITIVE_LENGTH_MEASURE(2.E-2),#14);
#170=PRESENTATION_STYLE_ASSIGNMENT((#169));
#171=STYLED_ITEM('',(#170),#168);
#172=DIRECTION('',(1.E0,0.E0,0.E0));
#173=VECTOR('',#172,2.E-1);
#174=CARTESIAN_POINT('',(-7.E-1,8.75E-1,1.574803149606E-1));
#175=LINE('',#174,#173);
#176=CURVE_STYLE('',#21,POSITIVE_LENGTH_MEASURE(2.E-2),#14);
#177=PRESENTATION_STYLE_ASSIGNMENT((#176));
#178=STYLED_ITEM('',(#177),#175);
#179=DIRECTION('',(1.E0,0.E0,0.E0));
#180=VECTOR('',#179,2.E-1);
#181=CARTESIAN_POINT('',(-7.E-1,8.75E-1,-1.574803149606E-1));
#182=LINE('',#181,#180);
#183=CURVE_STYLE('',#21,POSITIVE_LENGTH_MEASURE(2.E-2),#14);
#184=PRESENTATION_STYLE_ASSIGNMENT((#183));
#185=STYLED_ITEM('',(#184),#182);
#186=CARTESIAN_POINT('',(-7.E-1,8.75E-1,0.E0));
#187=DIRECTION('',(-1.E0,0.E0,0.E0));
#188=DIRECTION('',(0.E0,0.E0,1.E0));
#189=AXIS2_PLACEMENT_3D('',#186,#187,#188);
#191=CURVE_STYLE('',#21,POSITIVE_LENGTH_MEASURE(2.E-2),#14);
#192=PRESENTATION_STYLE_ASSIGNMENT((#191));
#193=STYLED_ITEM('',(#192),#190);
#194=CARTESIAN_POINT('',(-7.E-1,8.75E-1,0.E0));
#195=DIRECTION('',(-1.E0,0.E0,0.E0));
#196=DIRECTION('',(0.E0,0.E0,-1.E0));
#197=AXIS2_PLACEMENT_3D('',#194,#195,#196);
#199=CURVE_STYLE('',#21,POSITIVE_LENGTH_MEASURE(2.E-2),#14);
#200=PRESENTATION_STYLE_ASSIGNMENT((#199));
#201=STYLED_ITEM('',(#200),#198);
#202=DIRECTION('',(0.E0,-1.E0,0.E0));
#203=VECTOR('',#202,1.21E0);
#204=CARTESIAN_POINT('',(-7.E-1,1.7E0,-3.E-1));
#205=LINE('',#204,#203);
#206=CURVE_STYLE('',#21,POSITIVE_LENGTH_MEASURE(2.E-2),#14);
#207=PRESENTATION_STYLE_ASSIGNMENT((#206));
#208=STYLED_ITEM('',(#207),#205);
#209=DIRECTION('',(0.E0,0.E0,1.E0));
#210=VECTOR('',#209,6.E-1);
#211=CARTESIAN_POINT('',(-7.E-1,1.7E0,-3.E-1));
#212=LINE('',#211,#210);
#213=CURVE_STYLE('',#21,POSITIVE_LENGTH_MEASURE(2.E-2),#14);
#214=PRESENTATION_STYLE_ASSIGNMENT((#213));
#215=STYLED_ITEM('',(#214),#212);
#216=DIRECTION('',(0.E0,-1.E0,0.E0));
#217=VECTOR('',#216,1.21E0);
#218=CARTESIAN_POINT('',(-7.E-1,1.7E0,3.E-1));
#219=LINE('',#218,#217);
#220=CURVE_STYLE('',#21,POSITIVE_LENGTH_MEASURE(2.E-2),#14);
#221=PRESENTATION_STYLE_ASSIGNMENT((#220));
#222=STYLED_ITEM('',(#221),#219);
#223=CARTESIAN_POINT('',(-1.E-2,4.9E-1,-3.E-1));
#224=DIRECTION('',(0.E0,0.E0,-1.E0));
#225=DIRECTION('',(0.E0,-1.E0,0.E0));
#226=AXIS2_PLACEMENT_3D('',#223,#224,#225);
#228=CURVE_STYLE('',#21,POSITIVE_LENGTH_MEASURE(2.E-2),#14);
#229=PRESENTATION_STYLE_ASSIGNMENT((#228));
#230=STYLED_ITEM('',(#229),#227);
#231=CARTESIAN_POINT('',(1.E-2,4.9E-1,-3.E-1));
#232=DIRECTION('',(0.E0,0.E0,-1.E0));
#233=DIRECTION('',(1.E0,0.E0,0.E0));
#234=AXIS2_PLACEMENT_3D('',#231,#232,#233);
#236=CURVE_STYLE('',#21,POSITIVE_LENGTH_MEASURE(2.E-2),#14);
#237=PRESENTATION_STYLE_ASSIGNMENT((#236));
#238=STYLED_ITEM('',(#237),#235);
#239=DIRECTION('',(0.E0,0.E0,-1.E0));
#240=VECTOR('',#239,5.E-2);
#241=CARTESIAN_POINT('',(-1.E-2,-2.E-1,-2.5E-1));
#242=LINE('',#241,#240);
#243=CURVE_STYLE('',#21,POSITIVE_LENGTH_MEASURE(2.E-2),#14);
#244=PRESENTATION_STYLE_ASSIGNMENT((#243));
#245=STYLED_ITEM('',(#244),#242);
#246=DIRECTION('',(0.E0,0.E0,-1.E0));
#247=VECTOR('',#246,5.E-2);
#248=CARTESIAN_POINT('',(1.E-2,-2.E-1,-2.5E-1));
#249=LINE('',#248,#247);
#250=CURVE_STYLE('',#21,POSITIVE_LENGTH_MEASURE(2.E-2),#14);
#251=PRESENTATION_STYLE_ASSIGNMENT((#250));
#252=STYLED_ITEM('',(#251),#249);
#253=DIRECTION('',(-1.E0,0.E0,0.E0));
#254=VECTOR('',#253,2.E-2);
#255=CARTESIAN_POINT('',(1.E-2,-2.E-1,-3.E-1));
#256=LINE('',#255,#254);
#257=CURVE_STYLE('',#21,POSITIVE_LENGTH_MEASURE(2.E-2),#14);
#258=PRESENTATION_STYLE_ASSIGNMENT((#257));
#259=STYLED_ITEM('',(#258),#256);
#260=DIRECTION('',(0.E0,0.E0,-1.E0));
#261=VECTOR('',#260,5.E-2);
#262=CARTESIAN_POINT('',(-1.E-2,-2.E-1,3.E-1));
#263=LINE('',#262,#261);
#264=CURVE_STYLE('',#21,POSITIVE_LENGTH_MEASURE(2.E-2),#14);
#265=PRESENTATION_STYLE_ASSIGNMENT((#264));
#266=STYLED_ITEM('',(#265),#263);
#267=DIRECTION('',(1.E0,0.E0,0.E0));
#268=VECTOR('',#267,2.E-2);
#269=CARTESIAN_POINT('',(-1.E-2,-2.E-1,3.E-1));
#270=LINE('',#269,#268);
#271=CURVE_STYLE('',#21,POSITIVE_LENGTH_MEASURE(2.E-2),#14);
#272=PRESENTATION_STYLE_ASSIGNMENT((#271));
#273=STYLED_ITEM('',(#272),#270);
#274=DIRECTION('',(0.E0,0.E0,-1.E0));
#275=VECTOR('',#274,5.E-2);
#276=CARTESIAN_POINT('',(1.E-2,-2.E-1,3.E-1));
#277=LINE('',#276,#275);
#278=CURVE_STYLE('',#21,POSITIVE_LENGTH_MEASURE(2.E-2),#14);
#279=PRESENTATION_STYLE_ASSIGNMENT((#278));
#280=STYLED_ITEM('',(#279),#277);
#281=CARTESIAN_POINT('',(-1.E-2,4.9E-1,-2.5E-1));
#282=DIRECTION('',(0.E0,0.E0,-1.E0));
#283=DIRECTION('',(0.E0,-1.E0,0.E0));
#284=AXIS2_PLACEMENT_3D('',#281,#282,#283);
#286=CURVE_STYLE('',#21,POSITIVE_LENGTH_MEASURE(2.E-2),#14);
#287=PRESENTATION_STYLE_ASSIGNMENT((#286));
#288=STYLED_ITEM('',(#287),#285);
#289=CARTESIAN_POINT('',(1.E-2,4.9E-1,-2.5E-1));
#290=DIRECTION('',(0.E0,0.E0,-1.E0));
#291=DIRECTION('',(7.101449275362E-1,-7.040555247241E-1,0.E0));
#292=AXIS2_PLACEMENT_3D('',#289,#290,#291);
#294=CURVE_STYLE('',#21,POSITIVE_LENGTH_MEASURE(2.E-2),#14);
#295=PRESENTATION_STYLE_ASSIGNMENT((#294));
#296=STYLED_ITEM('',(#295),#293);
#297=DIRECTION('',(-1.E0,0.E0,0.E0));
#298=VECTOR('',#297,2.E-2);
#299=CARTESIAN_POINT('',(1.E-2,-2.E-1,-2.5E-1));
#300=LINE('',#299,#298);
#301=CURVE_STYLE('',#21,POSITIVE_LENGTH_MEASURE(2.E-2),#14);
#302=PRESENTATION_STYLE_ASSIGNMENT((#301));
#303=STYLED_ITEM('',(#302),#300);
#304=CARTESIAN_POINT('',(5.E-1,8.75E-1,0.E0));
#305=DIRECTION('',(1.E0,0.E0,0.E0));
#306=DIRECTION('',(0.E0,-9.230058709252E-1,-3.847858654338E-1));
#307=AXIS2_PLACEMENT_3D('',#304,#305,#306);
#309=CURVE_STYLE('',#21,POSITIVE_LENGTH_MEASURE(2.E-2),#14);
#310=PRESENTATION_STYLE_ASSIGNMENT((#309));
#311=STYLED_ITEM('',(#310),#308);
#312=CARTESIAN_POINT('',(5.E-1,6.203307086614E-1,0.E0));
#313=DIRECTION('',(1.E0,0.E0,0.E0));
#314=DIRECTION('',(0.E0,3.738409024783E-1,9.274928461364E-1));
#315=AXIS2_PLACEMENT_3D('',#312,#313,#314);
#317=CURVE_STYLE('',#21,POSITIVE_LENGTH_MEASURE(2.E-2),#14);
#318=PRESENTATION_STYLE_ASSIGNMENT((#317));
#319=STYLED_ITEM('',(#318),#316);
#320=CARTESIAN_POINT('',(5.E-1,1.219368110236E0,0.E0));
#321=DIRECTION('',(1.E0,0.E0,0.E0));
#322=DIRECTION('',(0.E0,0.E0,-1.E0));
#323=AXIS2_PLACEMENT_3D('',#320,#321,#322);
#325=CURVE_STYLE('',#21,POSITIVE_LENGTH_MEASURE(2.E-2),#14);
#326=PRESENTATION_STYLE_ASSIGNMENT((#325));
#327=STYLED_ITEM('',(#326),#324);
#328=CARTESIAN_POINT('',(5.E-1,1.219368110236E0,0.E0));
#329=DIRECTION('',(1.E0,0.E0,0.E0));
#330=DIRECTION('',(0.E0,0.E0,1.E0));
#331=AXIS2_PLACEMENT_3D('',#328,#329,#330);
#333=CURVE_STYLE('',#21,POSITIVE_LENGTH_MEASURE(2.E-2),#14);
#334=PRESENTATION_STYLE_ASSIGNMENT((#333));
#335=STYLED_ITEM('',(#334),#332);
#336=CARTESIAN_POINT('',(5.E-1,1.211830708661E-1,0.E0));
#337=DIRECTION('',(1.E0,0.E0,0.E0));
#338=DIRECTION('',(0.E0,0.E0,-1.E0));
#339=AXIS2_PLACEMENT_3D('',#336,#337,#338);
#341=CURVE_STYLE('',#21,POSITIVE_LENGTH_MEASURE(2.E-2),#14);
#342=PRESENTATION_STYLE_ASSIGNMENT((#341));
#343=STYLED_ITEM('',(#342),#340);
#344=CARTESIAN_POINT('',(5.E-1,1.211830708661E-1,0.E0));
#345=DIRECTION('',(1.E0,0.E0,0.E0));
#346=DIRECTION('',(0.E0,0.E0,1.E0));
#347=AXIS2_PLACEMENT_3D('',#344,#345,#346);
#349=CURVE_STYLE('',#21,POSITIVE_LENGTH_MEASURE(2.E-2),#14);
#350=PRESENTATION_STYLE_ASSIGNMENT((#349));
#351=STYLED_ITEM('',(#350),#348);
#352=DIRECTION('',(0.E0,1.E0,0.E0));
#353=VECTOR('',#352,1.495798312060E0);
#354=CARTESIAN_POINT('',(5.E-1,4.201687940355E-3,-2.5E-1));
#355=LINE('',#354,#353);
#356=CURVE_STYLE('',#21,POSITIVE_LENGTH_MEASURE(2.E-2),#14);
#357=PRESENTATION_STYLE_ASSIGNMENT((#356));
#358=STYLED_ITEM('',(#357),#355);
#359=DIRECTION('',(0.E0,1.E0,0.E0));
#360=VECTOR('',#359,1.495798312060E0);
#361=CARTESIAN_POINT('',(5.E-1,4.201687940355E-3,2.5E-1));
#362=LINE('',#361,#360);
#363=CURVE_STYLE('',#21,POSITIVE_LENGTH_MEASURE(2.E-2),#14);
#364=PRESENTATION_STYLE_ASSIGNMENT((#363));
#365=STYLED_ITEM('',(#364),#362);
#366=DIRECTION('',(1.E0,0.E0,0.E0));
#367=VECTOR('',#366,2.E-1);
#368=CARTESIAN_POINT('',(5.E-1,6.569671171043E-1,-9.089429892137E-2));
#369=LINE('',#368,#367);
#370=CURVE_STYLE('',#21,POSITIVE_LENGTH_MEASURE(2.E-2),#14);
#371=PRESENTATION_STYLE_ASSIGNMENT((#370));
#372=STYLED_ITEM('',(#371),#369);
#373=DIRECTION('',(1.E0,0.E0,0.E0));
#374=VECTOR('',#373,2.E-1);
#375=CARTESIAN_POINT('',(5.E-1,6.569671171043E-1,9.089429892137E-2));
#376=LINE('',#375,#374);
#377=CURVE_STYLE('',#21,POSITIVE_LENGTH_MEASURE(2.E-2),#14);
#378=PRESENTATION_STYLE_ASSIGNMENT((#377));
#379=STYLED_ITEM('',(#378),#376);
#380=CARTESIAN_POINT('',(7.E-1,8.75E-1,0.E0));
#381=DIRECTION('',(1.E0,0.E0,0.E0));
#382=DIRECTION('',(0.E0,-9.230058709252E-1,-3.847858654338E-1));
#383=AXIS2_PLACEMENT_3D('',#380,#381,#382);
#385=CURVE_STYLE('',#21,POSITIVE_LENGTH_MEASURE(2.E-2),#14);
#386=PRESENTATION_STYLE_ASSIGNMENT((#385));
#387=STYLED_ITEM('',(#386),#384);
#388=CARTESIAN_POINT('',(7.E-1,6.203307086614E-1,0.E0));
#389=DIRECTION('',(1.E0,0.E0,0.E0));
#390=DIRECTION('',(0.E0,3.738409024783E-1,9.274928461364E-1));
#391=AXIS2_PLACEMENT_3D('',#388,#389,#390);
#393=CURVE_STYLE('',#21,POSITIVE_LENGTH_MEASURE(2.E-2),#14);
#394=PRESENTATION_STYLE_ASSIGNMENT((#393));
#395=STYLED_ITEM('',(#394),#392);
#396=CARTESIAN_POINT('',(7.E-1,1.219368110236E0,0.E0));
#397=DIRECTION('',(1.E0,0.E0,0.E0));
#398=DIRECTION('',(0.E0,0.E0,-1.E0));
#399=AXIS2_PLACEMENT_3D('',#396,#397,#398);
#401=CURVE_STYLE('',#21,POSITIVE_LENGTH_MEASURE(2.E-2),#14);
#402=PRESENTATION_STYLE_ASSIGNMENT((#401));
#403=STYLED_ITEM('',(#402),#400);
#404=CARTESIAN_POINT('',(7.E-1,1.219368110236E0,0.E0));
#405=DIRECTION('',(1.E0,0.E0,0.E0));
#406=DIRECTION('',(0.E0,0.E0,1.E0));
#407=AXIS2_PLACEMENT_3D('',#404,#405,#406);
#409=CURVE_STYLE('',#21,POSITIVE_LENGTH_MEASURE(2.E-2),#14);
#410=PRESENTATION_STYLE_ASSIGNMENT((#409));
#411=STYLED_ITEM('',(#410),#408);
#412=DIRECTION('',(0.E0,1.E0,0.E0));
#413=VECTOR('',#412,1.21E0);
#414=CARTESIAN_POINT('',(7.E-1,4.9E-1,3.E-1));
#415=LINE('',#414,#413);
#416=CURVE_STYLE('',#21,POSITIVE_LENGTH_MEASURE(2.E-2),#14);
#417=PRESENTATION_STYLE_ASSIGNMENT((#416));
#418=STYLED_ITEM('',(#417),#415);
#419=DIRECTION('',(0.E0,1.E0,0.E0));
#420=VECTOR('',#419,1.21E0);
#421=CARTESIAN_POINT('',(7.E-1,4.9E-1,-3.E-1));
#422=LINE('',#421,#420);
#423=CURVE_STYLE('',#21,POSITIVE_LENGTH_MEASURE(2.E-2),#14);
#424=PRESENTATION_STYLE_ASSIGNMENT((#423));
#425=STYLED_ITEM('',(#424),#422);
#426=DIRECTION('',(-1.E0,0.E0,0.E0));
#427=VECTOR('',#426,2.E-1);
#428=CARTESIAN_POINT('',(7.E-1,1.219368110236E0,-4.125E-2));
#429=LINE('',#428,#427);
#430=CURVE_STYLE('',#21,POSITIVE_LENGTH_MEASURE(2.E-2),#14);
#431=PRESENTATION_STYLE_ASSIGNMENT((#430));
#432=STYLED_ITEM('',(#431),#429);
#433=DIRECTION('',(-1.E0,0.E0,0.E0));
#434=VECTOR('',#433,2.E-1);
#435=CARTESIAN_POINT('',(7.E-1,1.219368110236E0,4.125E-2));
#436=LINE('',#435,#434);
#437=CURVE_STYLE('',#21,POSITIVE_LENGTH_MEASURE(2.E-2),#14);
#438=PRESENTATION_STYLE_ASSIGNMENT((#437));
#439=STYLED_ITEM('',(#438),#436);
#440=DIRECTION('',(0.E0,0.E0,-1.E0));
#441=VECTOR('',#440,6.E-1);
#442=CARTESIAN_POINT('',(7.E-1,4.9E-1,3.E-1));
#443=LINE('',#442,#441);
#444=CURVE_STYLE('',#21,POSITIVE_LENGTH_MEASURE(2.E-2),#14);
#445=PRESENTATION_STYLE_ASSIGNMENT((#444));
#446=STYLED_ITEM('',(#445),#443);
#447=DIRECTION('',(0.E0,0.E0,1.E0));
#448=VECTOR('',#447,5.E-1);
#449=CARTESIAN_POINT('',(5.E-1,4.201687940355E-3,-2.5E-1));
#450=LINE('',#449,#448);
#451=CURVE_STYLE('',#21,POSITIVE_LENGTH_MEASURE(2.E-2),#14);
#452=PRESENTATION_STYLE_ASSIGNMENT((#451));
#453=STYLED_ITEM('',(#452),#450);
#454=CARTESIAN_POINT('',(5.931587029139E-1,1.211830708661E-1,4.125E-2));
#455=CARTESIAN_POINT('',(5.895582242436E-1,1.154901367695E-1,4.125E-2));
#456=CARTESIAN_POINT('',(5.828328951403E-1,1.052102567201E-1,
3.907777986813E-2));
#457=CARTESIAN_POINT('',(5.737598809735E-1,9.208768116750E-2,
3.049592589561E-2));
#458=CARTESIAN_POINT('',(5.677483532769E-1,8.375733905302E-2,
1.902451275625E-2));
#459=CARTESIAN_POINT('',(5.647966216632E-1,7.975424388438E-2,
6.349615527908E-3));
#460=CARTESIAN_POINT('',(5.648048452932E-1,7.976547822167E-2,
-6.379245737340E-3));
#461=CARTESIAN_POINT('',(5.677370796252E-1,8.374179965806E-2,
-1.899294094812E-2));
#462=CARTESIAN_POINT('',(5.737639263586E-1,9.209341592635E-2,
-3.050442707714E-2));
#463=CARTESIAN_POINT('',(5.828236176232E-1,1.051966481616E-1,
-3.906949315146E-2));
#464=CARTESIAN_POINT('',(5.895547190394E-1,1.154845944797E-1,-4.125E-2));
#465=CARTESIAN_POINT('',(5.931587029139E-1,1.211830708661E-1,-4.125E-2));
#467=CURVE_STYLE('',#21,POSITIVE_LENGTH_MEASURE(2.E-2),#14);
#468=PRESENTATION_STYLE_ASSIGNMENT((#467));
#469=STYLED_ITEM('',(#468),#466);
#470=CARTESIAN_POINT('',(5.931587029139E-1,1.211830708661E-1,-4.125E-2));
#471=CARTESIAN_POINT('',(5.966318241864E-1,1.266746324955E-1,-4.125E-2));
#472=CARTESIAN_POINT('',(6.027905646235E-1,1.367454514621E-1,
-3.918774286252E-2));
#473=CARTESIAN_POINT('',(6.102370578669E-1,1.496066198642E-1,
-3.108029560386E-2));
#474=CARTESIAN_POINT('',(6.150294838556E-1,1.582536464788E-1,
-1.977099299139E-2));
#475=CARTESIAN_POINT('',(6.173885773734E-1,1.626165062484E-1,
-6.760928778302E-3));
#476=CARTESIAN_POINT('',(6.173884958559E-1,1.626163539853E-1,
6.761685510942E-3));
#477=CARTESIAN_POINT('',(6.150293690261E-1,1.582534384218E-1,
1.977126325432E-2));
#478=CARTESIAN_POINT('',(6.102370688803E-1,1.496066408029E-1,
3.108025543453E-2));
#479=CARTESIAN_POINT('',(6.027905585844E-1,1.367454406905E-1,
3.918775585668E-2));
#480=CARTESIAN_POINT('',(5.966318256E-1,1.266746347307E-1,4.125E-2));
#481=CARTESIAN_POINT('',(5.931587029139E-1,1.211830708661E-1,4.125E-2));
#483=CURVE_STYLE('',#21,POSITIVE_LENGTH_MEASURE(2.E-2),#14);
#484=PRESENTATION_STYLE_ASSIGNMENT((#483));
#485=STYLED_ITEM('',(#484),#482);
#486=CARTESIAN_POINT('',(-1.E-2,4.9E-1,2.5E-1));
#487=DIRECTION('',(0.E0,0.E0,1.E0));
#488=DIRECTION('',(-7.101449275362E-1,-7.040555247241E-1,0.E0));
#489=AXIS2_PLACEMENT_3D('',#486,#487,#488);
#491=CURVE_STYLE('',#21,POSITIVE_LENGTH_MEASURE(2.E-2),#14);
#492=PRESENTATION_STYLE_ASSIGNMENT((#491));
#493=STYLED_ITEM('',(#492),#490);
#494=DIRECTION('',(-1.E0,0.E0,0.E0));
#495=VECTOR('',#494,2.E-2);
#496=CARTESIAN_POINT('',(1.E-2,-2.E-1,2.5E-1));
#497=LINE('',#496,#495);
#498=CURVE_STYLE('',#21,POSITIVE_LENGTH_MEASURE(2.E-2),#14);
#499=PRESENTATION_STYLE_ASSIGNMENT((#498));
#500=STYLED_ITEM('',(#499),#497);
#501=CARTESIAN_POINT('',(1.E-2,4.9E-1,2.5E-1));
#502=DIRECTION('',(0.E0,0.E0,1.E0));
#503=DIRECTION('',(0.E0,-1.E0,0.E0));
#504=AXIS2_PLACEMENT_3D('',#501,#502,#503);
#506=CURVE_STYLE('',#21,POSITIVE_LENGTH_MEASURE(2.E-2),#14);
#507=PRESENTATION_STYLE_ASSIGNMENT((#506));
#508=STYLED_ITEM('',(#507),#505);
#509=DIRECTION('',(-1.E0,0.E0,0.E0));
#510=VECTOR('',#509,9.315870291394E-2);
#511=CARTESIAN_POINT('',(5.931587029139E-1,1.211830708661E-1,4.125E-2));
#512=LINE('',#511,#510);
#513=CURVE_STYLE('',#21,POSITIVE_LENGTH_MEASURE(2.E-2),#14);
#514=PRESENTATION_STYLE_ASSIGNMENT((#513));
#515=STYLED_ITEM('',(#514),#512);
#516=DIRECTION('',(-1.E0,0.E0,0.E0));
#517=VECTOR('',#516,9.315870291394E-2);
#518=CARTESIAN_POINT('',(5.931587029139E-1,1.211830708661E-1,-4.125E-2));
#519=LINE('',#518,#517);
#520=CURVE_STYLE('',#21,POSITIVE_LENGTH_MEASURE(2.E-2),#14);
#521=PRESENTATION_STYLE_ASSIGNMENT((#520));
#522=STYLED_ITEM('',(#521),#519);
#523=CARTESIAN_POINT('',(-5.E-1,8.75E-1,1.574803149606E-1));
#524=CARTESIAN_POINT('',(-5.E-1,8.75E-1,-1.574803149606E-1));
#525=VERTEX_POINT('',#523);
#526=VERTEX_POINT('',#524);
#527=CARTESIAN_POINT('',(-7.E-1,8.75E-1,1.574803149606E-1));
#528=CARTESIAN_POINT('',(-7.E-1,8.75E-1,-1.574803149606E-1));
#529=VERTEX_POINT('',#527);
#530=VERTEX_POINT('',#528);
#531=CARTESIAN_POINT('',(5.E-1,6.569671171043E-1,-9.089429892137E-2));
#532=CARTESIAN_POINT('',(5.E-1,6.569671171043E-1,9.089429892137E-2));
#533=VERTEX_POINT('',#531);
#534=VERTEX_POINT('',#532);
#535=CARTESIAN_POINT('',(7.E-1,6.569671171043E-1,-9.089429892137E-2));
#536=CARTESIAN_POINT('',(7.E-1,6.569671171043E-1,9.089429892137E-2));
#537=VERTEX_POINT('',#535);
#538=VERTEX_POINT('',#536);
#539=CARTESIAN_POINT('',(1.181102362205E-1,1.5E0,0.E0));
#540=CARTESIAN_POINT('',(1.181102362205E-1,1.7E0,0.E0));
#541=VERTEX_POINT('',#539);
#542=VERTEX_POINT('',#540);
#543=CARTESIAN_POINT('',(-1.181102362205E-1,1.5E0,0.E0));
#544=CARTESIAN_POINT('',(-1.181102362205E-1,1.7E0,0.E0));
#545=VERTEX_POINT('',#543);
#546=VERTEX_POINT('',#544);
#547=CARTESIAN_POINT('',(5.E-1,1.219368110236E0,-4.125E-2));
#548=CARTESIAN_POINT('',(5.E-1,1.219368110236E0,4.125E-2));
#549=VERTEX_POINT('',#547);
#550=VERTEX_POINT('',#548);
#551=CARTESIAN_POINT('',(5.E-1,1.211830708661E-1,-4.125E-2));
#552=CARTESIAN_POINT('',(5.E-1,1.211830708661E-1,4.125E-2));
#553=VERTEX_POINT('',#551);
#554=VERTEX_POINT('',#552);
#555=CARTESIAN_POINT('',(7.E-1,1.219368110236E0,-4.125E-2));
#556=VERTEX_POINT('',#555);
#557=CARTESIAN_POINT('',(7.E-1,1.219368110236E0,4.125E-2));
#558=VERTEX_POINT('',#557);
#559=CARTESIAN_POINT('',(7.E-1,1.7E0,3.E-1));
#560=CARTESIAN_POINT('',(-7.E-1,1.7E0,3.E-1));
#561=VERTEX_POINT('',#559);
#562=VERTEX_POINT('',#560);
#563=CARTESIAN_POINT('',(7.E-1,1.7E0,-3.E-1));
#564=CARTESIAN_POINT('',(-7.E-1,1.7E0,-3.E-1));
#565=VERTEX_POINT('',#563);
#566=VERTEX_POINT('',#564);
#567=CARTESIAN_POINT('',(5.E-1,1.5E0,-2.5E-1));
#568=CARTESIAN_POINT('',(-5.E-1,1.5E0,-2.5E-1));
#569=VERTEX_POINT('',#567);
#570=VERTEX_POINT('',#568);
#571=CARTESIAN_POINT('',(5.E-1,1.5E0,2.5E-1));
#572=CARTESIAN_POINT('',(-5.E-1,1.5E0,2.5E-1));
#573=VERTEX_POINT('',#571);
#574=VERTEX_POINT('',#572);
#575=CARTESIAN_POINT('',(-1.E-2,-2.E-1,-3.E-1));
#576=CARTESIAN_POINT('',(-7.E-1,4.9E-1,-3.E-1));
#577=VERTEX_POINT('',#575);
#578=VERTEX_POINT('',#576);
#579=CARTESIAN_POINT('',(-1.E-2,-2.E-1,-2.5E-1));
#580=CARTESIAN_POINT('',(-5.E-1,4.201687940355E-3,-2.5E-1));
#581=VERTEX_POINT('',#579);
#582=VERTEX_POINT('',#580);
#583=CARTESIAN_POINT('',(-7.E-1,4.9E-1,3.E-1));
#584=CARTESIAN_POINT('',(-1.E-2,-2.E-1,3.E-1));
#585=VERTEX_POINT('',#583);
#586=VERTEX_POINT('',#584);
#587=CARTESIAN_POINT('',(-1.E-2,-2.E-1,2.5E-1));
#588=VERTEX_POINT('',#587);
#589=CARTESIAN_POINT('',(-5.E-1,4.201687940355E-3,2.5E-1));
#590=VERTEX_POINT('',#589);
#591=CARTESIAN_POINT('',(7.E-1,4.9E-1,-3.E-1));
#592=CARTESIAN_POINT('',(1.E-2,-2.E-1,-3.E-1));
#593=VERTEX_POINT('',#591);
#594=VERTEX_POINT('',#592);
#595=CARTESIAN_POINT('',(1.E-2,-2.E-1,-2.5E-1));
#596=VERTEX_POINT('',#595);
#597=CARTESIAN_POINT('',(5.E-1,4.201687940355E-3,-2.5E-1));
#598=VERTEX_POINT('',#597);
#599=CARTESIAN_POINT('',(1.E-2,-2.E-1,3.E-1));
#600=CARTESIAN_POINT('',(7.E-1,4.9E-1,3.E-1));
#601=VERTEX_POINT('',#599);
#602=VERTEX_POINT('',#600);
#603=CARTESIAN_POINT('',(1.E-2,-2.E-1,2.5E-1));
#604=CARTESIAN_POINT('',(5.E-1,4.201687940355E-3,2.5E-1));
#605=VERTEX_POINT('',#603);
#606=VERTEX_POINT('',#604);
#607=CARTESIAN_POINT('',(5.931587029139E-1,1.211830708661E-1,-4.125E-2));
#608=VERTEX_POINT('',#607);
#609=CARTESIAN_POINT('',(5.931587029139E-1,1.211830708661E-1,4.125E-2));
#610=VERTEX_POINT('',#609);
#611=CARTESIAN_POINT('',(-1.034400287770E-1,1.5E0,-5.E-1));
#612=DIRECTION('',(0.E0,1.E0,0.E0));
#613=DIRECTION('',(-1.E0,0.E0,0.E0));
#614=AXIS2_PLACEMENT_3D('',#611,#612,#613);
#615=PLANE('',#614);
#617=ORIENTED_EDGE('',*,*,#616,.F.);
#619=ORIENTED_EDGE('',*,*,#618,.F.);
#621=ORIENTED_EDGE('',*,*,#620,.T.);
#623=ORIENTED_EDGE('',*,*,#622,.T.);
#624=EDGE_LOOP('',(#617,#619,#621,#623));
#625=FACE_OUTER_BOUND('',#624,.F.);
#627=ORIENTED_EDGE('',*,*,#626,.T.);
#629=ORIENTED_EDGE('',*,*,#628,.T.);
#630=EDGE_LOOP('',(#627,#629));
#631=FACE_BOUND('',#630,.F.);
#633=FILL_AREA_STYLE_COLOUR('',#14);
#634=FILL_AREA_STYLE('',(#633));
#635=SURFACE_STYLE_FILL_AREA(#634);
#636=SURFACE_SIDE_STYLE('',(#635));
#637=SURFACE_STYLE_USAGE(.BOTH.,#636);
#638=PRESENTATION_STYLE_ASSIGNMENT((#637));
#639=STYLED_ITEM('',(#638),#632);
#640=CARTESIAN_POINT('',(0.E0,0.E0,0.E0));
#641=DIRECTION('',(0.E0,1.E0,0.E0));
#642=DIRECTION('',(1.E0,0.E0,0.E0));
#643=AXIS2_PLACEMENT_3D('',#640,#641,#642);
#644=CYLINDRICAL_SURFACE('',#643,1.181102362205E-1);
#645=ORIENTED_EDGE('',*,*,#626,.F.);
#647=ORIENTED_EDGE('',*,*,#646,.T.);
#649=ORIENTED_EDGE('',*,*,#648,.F.);
#651=ORIENTED_EDGE('',*,*,#650,.F.);
#652=EDGE_LOOP('',(#645,#647,#649,#651));
#653=FACE_OUTER_BOUND('',#652,.F.);
#655=FILL_AREA_STYLE_COLOUR('',#14);
#656=FILL_AREA_STYLE('',(#655));
#657=SURFACE_STYLE_FILL_AREA(#656);
#658=SURFACE_SIDE_STYLE('',(#657));
#659=SURFACE_STYLE_USAGE(.BOTH.,#658);
#660=PRESENTATION_STYLE_ASSIGNMENT((#659));
#661=STYLED_ITEM('',(#660),#654);
#662=CARTESIAN_POINT('',(0.E0,0.E0,0.E0));
#663=DIRECTION('',(0.E0,1.E0,0.E0));
#664=DIRECTION('',(1.E0,0.E0,0.E0));
#665=AXIS2_PLACEMENT_3D('',#662,#663,#664);
#666=CYLINDRICAL_SURFACE('',#665,1.181102362205E-1);
#667=ORIENTED_EDGE('',*,*,#628,.F.);
#668=ORIENTED_EDGE('',*,*,#650,.T.);
#670=ORIENTED_EDGE('',*,*,#669,.F.);
#671=ORIENTED_EDGE('',*,*,#646,.F.);
#672=EDGE_LOOP('',(#667,#668,#670,#671));
#673=FACE_OUTER_BOUND('',#672,.F.);
#675=FILL_AREA_STYLE_COLOUR('',#14);
#676=FILL_AREA_STYLE('',(#675));
#677=SURFACE_STYLE_FILL_AREA(#676);
#678=SURFACE_SIDE_STYLE('',(#677));
#679=SURFACE_STYLE_USAGE(.BOTH.,#678);
#680=PRESENTATION_STYLE_ASSIGNMENT((#679));
#681=STYLED_ITEM('',(#680),#674);
#682=CARTESIAN_POINT('',(5.E-1,1.7E0,-5.E-1));
#683=DIRECTION('',(0.E0,1.E0,0.E0));
#684=DIRECTION('',(-1.E0,0.E0,0.E0));
#685=AXIS2_PLACEMENT_3D('',#682,#683,#684);
#686=PLANE('',#685);
#688=ORIENTED_EDGE('',*,*,#687,.T.);
#690=ORIENTED_EDGE('',*,*,#689,.F.);
#692=ORIENTED_EDGE('',*,*,#691,.F.);
#694=ORIENTED_EDGE('',*,*,#693,.T.);
#695=EDGE_LOOP('',(#688,#690,#692,#694));
#696=FACE_OUTER_BOUND('',#695,.F.);
#697=ORIENTED_EDGE('',*,*,#648,.T.);
#698=ORIENTED_EDGE('',*,*,#669,.T.);
#699=EDGE_LOOP('',(#697,#698));
#700=FACE_BOUND('',#699,.F.);
#702=FILL_AREA_STYLE_COLOUR('',#14);
#703=FILL_AREA_STYLE('',(#702));
#704=SURFACE_STYLE_FILL_AREA(#703);
#705=SURFACE_SIDE_STYLE('',(#704));
#706=SURFACE_STYLE_USAGE(.BOTH.,#705);
#707=PRESENTATION_STYLE_ASSIGNMENT((#706));
#708=STYLED_ITEM('',(#707),#701);
#709=CARTESIAN_POINT('',(7.E-1,1.7E0,3.E-1));
#710=DIRECTION('',(0.E0,0.E0,-1.E0));
#711=DIRECTION('',(-1.E0,0.E0,0.E0));
#712=AXIS2_PLACEMENT_3D('',#709,#710,#711);
#713=PLANE('',#712);
#715=ORIENTED_EDGE('',*,*,#714,.F.);
#717=ORIENTED_EDGE('',*,*,#716,.F.);
#718=ORIENTED_EDGE('',*,*,#687,.F.);
#720=ORIENTED_EDGE('',*,*,#719,.F.);
#722=ORIENTED_EDGE('',*,*,#721,.F.);
#724=ORIENTED_EDGE('',*,*,#723,.F.);
#725=EDGE_LOOP('',(#715,#717,#718,#720,#722,#724));
#726=FACE_OUTER_BOUND('',#725,.F.);
#728=FILL_AREA_STYLE_COLOUR('',#14);
#729=FILL_AREA_STYLE('',(#728));
#730=SURFACE_STYLE_FILL_AREA(#729);
#731=SURFACE_SIDE_STYLE('',(#730));
#732=SURFACE_STYLE_USAGE(.BOTH.,#731);
#733=PRESENTATION_STYLE_ASSIGNMENT((#732));
#734=STYLED_ITEM('',(#733),#727);
#735=CARTESIAN_POINT('',(-1.E-2,4.9E-1,1.190376E0));
#736=DIRECTION('',(0.E0,0.E0,-1.E0));
#737=DIRECTION('',(0.E0,-1.E0,0.E0));
#738=AXIS2_PLACEMENT_3D('',#735,#736,#737);
#739=CYLINDRICAL_SURFACE('',#738,6.9E-1);
#741=ORIENTED_EDGE('',*,*,#740,.T.);
#743=ORIENTED_EDGE('',*,*,#742,.F.);
#745=ORIENTED_EDGE('',*,*,#744,.T.);
#747=ORIENTED_EDGE('',*,*,#746,.T.);
#749=ORIENTED_EDGE('',*,*,#748,.T.);
#750=ORIENTED_EDGE('',*,*,#714,.T.);
#752=ORIENTED_EDGE('',*,*,#751,.T.);
#754=ORIENTED_EDGE('',*,*,#753,.F.);
#755=EDGE_LOOP('',(#741,#743,#745,#747,#749,#750,#752,#754));
#756=FACE_OUTER_BOUND('',#755,.F.);
#758=FILL_AREA_STYLE_COLOUR('',#14);
#759=FILL_AREA_STYLE('',(#758));
#760=SURFACE_STYLE_FILL_AREA(#759);
#761=SURFACE_SIDE_STYLE('',(#760));
#762=SURFACE_STYLE_USAGE(.BOTH.,#761);
#763=PRESENTATION_STYLE_ASSIGNMENT((#762));
#764=STYLED_ITEM('',(#763),#757);
#765=CARTESIAN_POINT('',(-5.E-1,1.5E0,-5.E-1));
#766=DIRECTION('',(-1.E0,0.E0,0.E0));
#767=DIRECTION('',(0.E0,-1.E0,0.E0));
#768=AXIS2_PLACEMENT_3D('',#765,#766,#767);
#769=PLANE('',#768);
#770=ORIENTED_EDGE('',*,*,#740,.F.);
#772=ORIENTED_EDGE('',*,*,#771,.F.);
#773=ORIENTED_EDGE('',*,*,#622,.F.);
#775=ORIENTED_EDGE('',*,*,#774,.T.);
#776=EDGE_LOOP('',(#770,#772,#773,#775));
#777=FACE_OUTER_BOUND('',#776,.F.);
#779=ORIENTED_EDGE('',*,*,#778,.F.);
#781=ORIENTED_EDGE('',*,*,#780,.F.);
#782=EDGE_LOOP('',(#779,#781));
#783=FACE_BOUND('',#782,.F.);
#785=FILL_AREA_STYLE_COLOUR('',#14);
#786=FILL_AREA_STYLE('',(#785));
#787=SURFACE_STYLE_FILL_AREA(#786);
#788=SURFACE_SIDE_STYLE('',(#787));
#789=SURFACE_STYLE_USAGE(.BOTH.,#788);
#790=PRESENTATION_STYLE_ASSIGNMENT((#789));
#791=STYLED_ITEM('',(#790),#784);
#792=CARTESIAN_POINT('',(-7.E-1,8.75E-1,0.E0));
#793=DIRECTION('',(-1.E0,0.E0,0.E0));
#794=DIRECTION('',(0.E0,0.E0,1.E0));
#795=AXIS2_PLACEMENT_3D('',#792,#793,#794);
#796=CYLINDRICAL_SURFACE('',#795,1.574803149606E-1);
#797=ORIENTED_EDGE('',*,*,#778,.T.);
#799=ORIENTED_EDGE('',*,*,#798,.F.);
#801=ORIENTED_EDGE('',*,*,#800,.F.);
#803=ORIENTED_EDGE('',*,*,#802,.T.);
#804=EDGE_LOOP('',(#797,#799,#801,#803));
#805=FACE_OUTER_BOUND('',#804,.F.);
#807=FILL_AREA_STYLE_COLOUR('',#14);
#808=FILL_AREA_STYLE('',(#807));
#809=SURFACE_STYLE_FILL_AREA(#808);
#810=SURFACE_SIDE_STYLE('',(#809));
#811=SURFACE_STYLE_USAGE(.BOTH.,#810);
#812=PRESENTATION_STYLE_ASSIGNMENT((#811));
#813=STYLED_ITEM('',(#812),#806);
#814=CARTESIAN_POINT('',(-7.E-1,8.75E-1,0.E0));
#815=DIRECTION('',(-1.E0,0.E0,0.E0));
#816=DIRECTION('',(0.E0,0.E0,1.E0));
#817=AXIS2_PLACEMENT_3D('',#814,#815,#816);
#818=CYLINDRICAL_SURFACE('',#817,1.574803149606E-1);
#819=ORIENTED_EDGE('',*,*,#780,.T.);
#820=ORIENTED_EDGE('',*,*,#802,.F.);
#822=ORIENTED_EDGE('',*,*,#821,.F.);
#823=ORIENTED_EDGE('',*,*,#798,.T.);
#824=EDGE_LOOP('',(#819,#820,#822,#823));
#825=FACE_OUTER_BOUND('',#824,.F.);
#827=FILL_AREA_STYLE_COLOUR('',#14);
#828=FILL_AREA_STYLE('',(#827));
#829=SURFACE_STYLE_FILL_AREA(#828);
#830=SURFACE_SIDE_STYLE('',(#829));
#831=SURFACE_STYLE_USAGE(.BOTH.,#830);
#832=PRESENTATION_STYLE_ASSIGNMENT((#831));
#833=STYLED_ITEM('',(#832),#826);
#834=CARTESIAN_POINT('',(-7.E-1,1.5E0,-5.E-1));
#835=DIRECTION('',(-1.E0,0.E0,0.E0));
#836=DIRECTION('',(0.E0,-1.E0,0.E0));
#837=AXIS2_PLACEMENT_3D('',#834,#835,#836);
#838=PLANE('',#837);
#839=ORIENTED_EDGE('',*,*,#748,.F.);
#841=ORIENTED_EDGE('',*,*,#840,.F.);
#842=ORIENTED_EDGE('',*,*,#689,.T.);
#843=ORIENTED_EDGE('',*,*,#716,.T.);
#844=EDGE_LOOP('',(#839,#841,#842,#843));
#845=FACE_OUTER_BOUND('',#844,.F.);
#846=ORIENTED_EDGE('',*,*,#800,.T.);
#847=ORIENTED_EDGE('',*,*,#821,.T.);
#848=EDGE_LOOP('',(#846,#847));
#849=FACE_BOUND('',#848,.F.);
#851=FILL_AREA_STYLE_COLOUR('',#14);
#852=FILL_AREA_STYLE('',(#851));
#853=SURFACE_STYLE_FILL_AREA(#852);
#854=SURFACE_SIDE_STYLE('',(#853));
#855=SURFACE_STYLE_USAGE(.BOTH.,#854);
#856=PRESENTATION_STYLE_ASSIGNMENT((#855));
#857=STYLED_ITEM('',(#856),#850);
#858=CARTESIAN_POINT('',(-7.E-1,1.7E0,-3.E-1));
#859=DIRECTION('',(0.E0,0.E0,1.E0));
#860=DIRECTION('',(1.E0,0.E0,0.E0));
#861=AXIS2_PLACEMENT_3D('',#858,#859,#860);
#862=PLANE('',#861);
#863=ORIENTED_EDGE('',*,*,#746,.F.);
#865=ORIENTED_EDGE('',*,*,#864,.F.);
#867=ORIENTED_EDGE('',*,*,#866,.F.);
#869=ORIENTED_EDGE('',*,*,#868,.T.);
#870=ORIENTED_EDGE('',*,*,#691,.T.);
#871=ORIENTED_EDGE('',*,*,#840,.T.);
#872=EDGE_LOOP('',(#863,#865,#867,#869,#870,#871));
#873=FACE_OUTER_BOUND('',#872,.F.);
#875=FILL_AREA_STYLE_COLOUR('',#14);
#876=FILL_AREA_STYLE('',(#875));
#877=SURFACE_STYLE_FILL_AREA(#876);
#878=SURFACE_SIDE_STYLE('',(#877));
#879=SURFACE_STYLE_USAGE(.BOTH.,#878);
#880=PRESENTATION_STYLE_ASSIGNMENT((#879));
#881=STYLED_ITEM('',(#880),#874);
#882=CARTESIAN_POINT('',(-5.E-1,-2.E-1,-5.E-1));
#883=DIRECTION('',(0.E0,-1.E0,0.E0));
#884=DIRECTION('',(1.E0,0.E0,0.E0));
#885=AXIS2_PLACEMENT_3D('',#882,#883,#884);
#886=PLANE('',#885);
#887=ORIENTED_EDGE('',*,*,#744,.F.);
#889=ORIENTED_EDGE('',*,*,#888,.F.);
#891=ORIENTED_EDGE('',*,*,#890,.T.);
#892=ORIENTED_EDGE('',*,*,#864,.T.);
#893=EDGE_LOOP('',(#887,#889,#891,#892));
#894=FACE_OUTER_BOUND('',#893,.F.);
#896=FILL_AREA_STYLE_COLOUR('',#14);
#897=FILL_AREA_STYLE('',(#896));
#898=SURFACE_STYLE_FILL_AREA(#897);
#899=SURFACE_SIDE_STYLE('',(#898));
#900=SURFACE_STYLE_USAGE(.BOTH.,#899);
#901=PRESENTATION_STYLE_ASSIGNMENT((#900));
#902=STYLED_ITEM('',(#901),#895);
#903=CARTESIAN_POINT('',(-5.E-1,-2.E-1,-5.E-1));
#904=DIRECTION('',(0.E0,-1.E0,0.E0));
#905=DIRECTION('',(1.E0,0.E0,0.E0));
#906=AXIS2_PLACEMENT_3D('',#903,#904,#905);
#907=PLANE('',#906);
#908=ORIENTED_EDGE('',*,*,#751,.F.);
#909=ORIENTED_EDGE('',*,*,#723,.T.);
#911=ORIENTED_EDGE('',*,*,#910,.T.);
#913=ORIENTED_EDGE('',*,*,#912,.T.);
#914=EDGE_LOOP('',(#908,#909,#911,#913));
#915=FACE_OUTER_BOUND('',#914,.F.);
#917=FILL_AREA_STYLE_COLOUR('',#14);
#918=FILL_AREA_STYLE('',(#917));
#919=SURFACE_STYLE_FILL_AREA(#918);
#920=SURFACE_SIDE_STYLE('',(#919));
#921=SURFACE_STYLE_USAGE(.POSITIVE.,#920);
#922=PRESENTATION_STYLE_ASSIGNMENT((#921));
#923=STYLED_ITEM('',(#922),#916);
#924=CARTESIAN_POINT('',(0.E0,1.7E0,-2.5E-1));
#925=DIRECTION('',(0.E0,0.E0,-1.E0));
#926=DIRECTION('',(-1.E0,0.E0,0.E0));
#927=AXIS2_PLACEMENT_3D('',#924,#925,#926);
#928=PLANE('',#927);
#929=ORIENTED_EDGE('',*,*,#742,.T.);
#930=ORIENTED_EDGE('',*,*,#774,.F.);
#931=ORIENTED_EDGE('',*,*,#620,.F.);
#933=ORIENTED_EDGE('',*,*,#932,.F.);
#935=ORIENTED_EDGE('',*,*,#934,.T.);
#936=ORIENTED_EDGE('',*,*,#888,.T.);
#937=EDGE_LOOP('',(#929,#930,#931,#933,#935,#936));
#938=FACE_OUTER_BOUND('',#937,.F.);
#940=FILL_AREA_STYLE_COLOUR('',#14);
#941=FILL_AREA_STYLE('',(#940));
#942=SURFACE_STYLE_FILL_AREA(#941);
#943=SURFACE_SIDE_STYLE('',(#942));
#944=SURFACE_STYLE_USAGE(.BOTH.,#943);
#945=PRESENTATION_STYLE_ASSIGNMENT((#944));
#946=STYLED_ITEM('',(#945),#939);
#947=CARTESIAN_POINT('',(5.E-1,0.E0,-5.E-1));
#948=DIRECTION('',(1.E0,0.E0,0.E0));
#949=DIRECTION('',(0.E0,1.E0,0.E0));
#950=AXIS2_PLACEMENT_3D('',#947,#948,#949);
#951=PLANE('',#950);
#953=ORIENTED_EDGE('',*,*,#952,.F.);
#954=ORIENTED_EDGE('',*,*,#932,.T.);
#955=ORIENTED_EDGE('',*,*,#618,.T.);
#957=ORIENTED_EDGE('',*,*,#956,.F.);
#958=EDGE_LOOP('',(#953,#954,#955,#957));
#959=FACE_OUTER_BOUND('',#958,.F.);
#961=ORIENTED_EDGE('',*,*,#960,.F.);
#963=ORIENTED_EDGE('',*,*,#962,.F.);
#964=EDGE_LOOP('',(#961,#963));
#965=FACE_BOUND('',#964,.F.);
#967=ORIENTED_EDGE('',*,*,#966,.F.);
#969=ORIENTED_EDGE('',*,*,#968,.F.);
#970=EDGE_LOOP('',(#967,#969));
#971=FACE_BOUND('',#970,.F.);
#973=ORIENTED_EDGE('',*,*,#972,.F.);
#975=ORIENTED_EDGE('',*,*,#974,.F.);
#976=EDGE_LOOP('',(#973,#975));
#977=FACE_BOUND('',#976,.F.);
#979=FILL_AREA_STYLE_COLOUR('',#14);
#980=FILL_AREA_STYLE('',(#979));
#981=SURFACE_STYLE_FILL_AREA(#980);
#982=SURFACE_SIDE_STYLE('',(#981));
#983=SURFACE_STYLE_USAGE(.BOTH.,#982);
#984=PRESENTATION_STYLE_ASSIGNMENT((#983));
#985=STYLED_ITEM('',(#984),#978);
#986=CARTESIAN_POINT('',(5.E-1,8.75E-1,0.E0));
#987=DIRECTION('',(1.E0,0.E0,0.E0));
#988=DIRECTION('',(0.E0,0.E0,1.E0));
#989=AXIS2_PLACEMENT_3D('',#986,#987,#988);
#990=CYLINDRICAL_SURFACE('',#989,2.362204724409E-1);
#991=ORIENTED_EDGE('',*,*,#972,.T.);
#993=ORIENTED_EDGE('',*,*,#992,.T.);
#995=ORIENTED_EDGE('',*,*,#994,.F.);
#997=ORIENTED_EDGE('',*,*,#996,.F.);
#998=EDGE_LOOP('',(#991,#993,#995,#997));
#999=FACE_OUTER_BOUND('',#998,.F.);
#1001=FILL_AREA_STYLE_COLOUR('',#14);
#1002=FILL_AREA_STYLE('',(#1001));
#1003=SURFACE_STYLE_FILL_AREA(#1002);
#1004=SURFACE_SIDE_STYLE('',(#1003));
#1005=SURFACE_STYLE_USAGE(.BOTH.,#1004);
#1006=PRESENTATION_STYLE_ASSIGNMENT((#1005));
#1007=STYLED_ITEM('',(#1006),#1000);
#1008=CARTESIAN_POINT('',(5.E-1,6.203307086614E-1,0.E0));
#1009=DIRECTION('',(1.E0,0.E0,0.E0));
#1010=DIRECTION('',(0.E0,0.E0,1.E0));
#1011=AXIS2_PLACEMENT_3D('',#1008,#1009,#1010);
#1012=CYLINDRICAL_SURFACE('',#1011,9.8E-2);
#1013=ORIENTED_EDGE('',*,*,#974,.T.);
#1014=ORIENTED_EDGE('',*,*,#996,.T.);
#1016=ORIENTED_EDGE('',*,*,#1015,.F.);
#1017=ORIENTED_EDGE('',*,*,#992,.F.);
#1018=EDGE_LOOP('',(#1013,#1014,#1016,#1017));
#1019=FACE_OUTER_BOUND('',#1018,.F.);
#1021=FILL_AREA_STYLE_COLOUR('',#14);
#1022=FILL_AREA_STYLE('',(#1021));
#1023=SURFACE_STYLE_FILL_AREA(#1022);
#1024=SURFACE_SIDE_STYLE('',(#1023));
#1025=SURFACE_STYLE_USAGE(.BOTH.,#1024);
#1026=PRESENTATION_STYLE_ASSIGNMENT((#1025));
#1027=STYLED_ITEM('',(#1026),#1020);
#1028=CARTESIAN_POINT('',(7.E-1,0.E0,-5.E-1));
#1029=DIRECTION('',(1.E0,0.E0,0.E0));
#1030=DIRECTION('',(0.E0,1.E0,0.E0));
#1031=AXIS2_PLACEMENT_3D('',#1028,#1029,#1030);
#1032=PLANE('',#1031);
#1034=ORIENTED_EDGE('',*,*,#1033,.F.);
#1035=ORIENTED_EDGE('',*,*,#719,.T.);
#1036=ORIENTED_EDGE('',*,*,#693,.F.);
#1037=ORIENTED_EDGE('',*,*,#868,.F.);
#1038=EDGE_LOOP('',(#1034,#1035,#1036,#1037));
#1039=FACE_OUTER_BOUND('',#1038,.F.);
#1041=ORIENTED_EDGE('',*,*,#1040,.T.);
#1043=ORIENTED_EDGE('',*,*,#1042,.T.);
#1044=EDGE_LOOP('',(#1041,#1043));
#1045=FACE_BOUND('',#1044,.F.);
#1046=ORIENTED_EDGE('',*,*,#994,.T.);
#1047=ORIENTED_EDGE('',*,*,#1015,.T.);
#1048=EDGE_LOOP('',(#1046,#1047));
#1049=FACE_BOUND('',#1048,.F.);
#1051=FILL_AREA_STYLE_COLOUR('',#14);
#1052=FILL_AREA_STYLE('',(#1051));
#1053=SURFACE_STYLE_FILL_AREA(#1052);
#1054=SURFACE_SIDE_STYLE('',(#1053));
#1055=SURFACE_STYLE_USAGE(.BOTH.,#1054);
#1056=PRESENTATION_STYLE_ASSIGNMENT((#1055));
#1057=STYLED_ITEM('',(#1056),#1050);
#1058=CARTESIAN_POINT('',(7.E-1,1.219368110236E0,0.E0));
#1059=DIRECTION('',(1.E0,0.E0,0.E0));
#1060=DIRECTION('',(0.E0,0.E0,-1.E0));
#1061=AXIS2_PLACEMENT_3D('',#1058,#1059,#1060);
#1062=CYLINDRICAL_SURFACE('',#1061,4.125E-2);
#1063=ORIENTED_EDGE('',*,*,#960,.T.);
#1065=ORIENTED_EDGE('',*,*,#1064,.F.);
#1066=ORIENTED_EDGE('',*,*,#1040,.F.);
#1068=ORIENTED_EDGE('',*,*,#1067,.T.);
#1069=EDGE_LOOP('',(#1063,#1065,#1066,#1068));
#1070=FACE_OUTER_BOUND('',#1069,.F.);
#1072=FILL_AREA_STYLE_COLOUR('',#14);
#1073=FILL_AREA_STYLE('',(#1072));
#1074=SURFACE_STYLE_FILL_AREA(#1073);
#1075=SURFACE_SIDE_STYLE('',(#1074));
#1076=SURFACE_STYLE_USAGE(.BOTH.,#1075);
#1077=PRESENTATION_STYLE_ASSIGNMENT((#1076));
#1078=STYLED_ITEM('',(#1077),#1071);
#1079=CARTESIAN_POINT('',(7.E-1,1.219368110236E0,0.E0));
#1080=DIRECTION('',(1.E0,0.E0,0.E0));
#1081=DIRECTION('',(0.E0,0.E0,-1.E0));
#1082=AXIS2_PLACEMENT_3D('',#1079,#1080,#1081);
#1083=CYLINDRICAL_SURFACE('',#1082,4.125E-2);
#1084=ORIENTED_EDGE('',*,*,#962,.T.);
#1085=ORIENTED_EDGE('',*,*,#1067,.F.);
#1086=ORIENTED_EDGE('',*,*,#1042,.F.);
#1087=ORIENTED_EDGE('',*,*,#1064,.T.);
#1088=EDGE_LOOP('',(#1084,#1085,#1086,#1087));
#1089=FACE_OUTER_BOUND('',#1088,.F.);
#1091=FILL_AREA_STYLE_COLOUR('',#14);
#1092=FILL_AREA_STYLE('',(#1091));
#1093=SURFACE_STYLE_FILL_AREA(#1092);
#1094=SURFACE_SIDE_STYLE('',(#1093));
#1095=SURFACE_STYLE_USAGE(.BOTH.,#1094);
#1096=PRESENTATION_STYLE_ASSIGNMENT((#1095));
#1097=STYLED_ITEM('',(#1096),#1090);
#1098=CARTESIAN_POINT('',(1.E-2,4.9E-1,1.190376E0));
#1099=DIRECTION('',(0.E0,0.E0,-1.E0));
#1100=DIRECTION('',(1.E0,0.E0,0.E0));
#1101=AXIS2_PLACEMENT_3D('',#1098,#1099,#1100);
#1102=CYLINDRICAL_SURFACE('',#1101,6.9E-1);
#1103=ORIENTED_EDGE('',*,*,#1033,.T.);
#1104=ORIENTED_EDGE('',*,*,#866,.T.);
#1105=ORIENTED_EDGE('',*,*,#890,.F.);
#1106=ORIENTED_EDGE('',*,*,#934,.F.);
#1107=ORIENTED_EDGE('',*,*,#952,.T.);
#1109=ORIENTED_EDGE('',*,*,#1108,.F.);
#1110=ORIENTED_EDGE('',*,*,#910,.F.);
#1111=ORIENTED_EDGE('',*,*,#721,.T.);
#1112=EDGE_LOOP('',(#1103,#1104,#1105,#1106,#1107,#1109,#1110,#1111));
#1113=FACE_OUTER_BOUND('',#1112,.F.);
#1115=ORIENTED_EDGE('',*,*,#1114,.T.);
#1117=ORIENTED_EDGE('',*,*,#1116,.T.);
#1118=EDGE_LOOP('',(#1115,#1117));
#1119=FACE_BOUND('',#1118,.F.);
#1121=FILL_AREA_STYLE_COLOUR('',#14);
#1122=FILL_AREA_STYLE('',(#1121));
#1123=SURFACE_STYLE_FILL_AREA(#1122);
#1124=SURFACE_SIDE_STYLE('',(#1123));
#1125=SURFACE_STYLE_USAGE(.BOTH.,#1124);
#1126=PRESENTATION_STYLE_ASSIGNMENT((#1125));
#1127=STYLED_ITEM('',(#1126),#1120);
#1128=CARTESIAN_POINT('',(0.E0,1.7E0,2.5E-1));
#1129=DIRECTION('',(0.E0,0.E0,-1.E0));
#1130=DIRECTION('',(-1.E0,0.E0,0.E0));
#1131=AXIS2_PLACEMENT_3D('',#1128,#1129,#1130);
#1132=PLANE('',#1131);
#1133=ORIENTED_EDGE('',*,*,#753,.T.);
#1134=ORIENTED_EDGE('',*,*,#912,.F.);
#1135=ORIENTED_EDGE('',*,*,#1108,.T.);
#1136=ORIENTED_EDGE('',*,*,#956,.T.);
#1137=ORIENTED_EDGE('',*,*,#616,.T.);
#1138=ORIENTED_EDGE('',*,*,#771,.T.);
#1139=EDGE_LOOP('',(#1133,#1134,#1135,#1136,#1137,#1138));
#1140=FACE_OUTER_BOUND('',#1139,.F.);
#1142=FILL_AREA_STYLE_COLOUR('',#14);
#1143=FILL_AREA_STYLE('',(#1142));
#1144=SURFACE_STYLE_FILL_AREA(#1143);
#1145=SURFACE_SIDE_STYLE('',(#1144));
#1146=SURFACE_STYLE_USAGE(.BOTH.,#1145);
#1147=PRESENTATION_STYLE_ASSIGNMENT((#1146));
#1148=STYLED_ITEM('',(#1147),#1141);
#1149=CARTESIAN_POINT('',(7.E-1,1.211830708661E-1,0.E0));
#1150=DIRECTION('',(1.E0,0.E0,0.E0));
#1151=DIRECTION('',(0.E0,0.E0,-1.E0));
#1152=AXIS2_PLACEMENT_3D('',#1149,#1150,#1151);
#1153=CYLINDRICAL_SURFACE('',#1152,4.125E-2);
#1154=ORIENTED_EDGE('',*,*,#1114,.F.);
#1156=ORIENTED_EDGE('',*,*,#1155,.T.);
#1157=ORIENTED_EDGE('',*,*,#968,.T.);
#1159=ORIENTED_EDGE('',*,*,#1158,.F.);
#1160=EDGE_LOOP('',(#1154,#1156,#1157,#1159));
#1161=FACE_OUTER_BOUND('',#1160,.F.);
#1163=FILL_AREA_STYLE_COLOUR('',#14);
#1164=FILL_AREA_STYLE('',(#1163));
#1165=SURFACE_STYLE_FILL_AREA(#1164);
#1166=SURFACE_SIDE_STYLE('',(#1165));
#1167=SURFACE_STYLE_USAGE(.BOTH.,#1166);
#1168=PRESENTATION_STYLE_ASSIGNMENT((#1167));
#1169=STYLED_ITEM('',(#1168),#1162);
#1170=CARTESIAN_POINT('',(7.E-1,1.211830708661E-1,0.E0));
#1171=DIRECTION('',(1.E0,0.E0,0.E0));
#1172=DIRECTION('',(0.E0,0.E0,-1.E0));
#1173=AXIS2_PLACEMENT_3D('',#1170,#1171,#1172);
#1174=CYLINDRICAL_SURFACE('',#1173,4.125E-2);
#1175=ORIENTED_EDGE('',*,*,#1116,.F.);
#1176=ORIENTED_EDGE('',*,*,#1158,.T.);
#1177=ORIENTED_EDGE('',*,*,#966,.T.);
#1178=ORIENTED_EDGE('',*,*,#1155,.F.);
#1179=EDGE_LOOP('',(#1175,#1176,#1177,#1178));
#1180=FACE_OUTER_BOUND('',#1179,.F.);
#1182=FILL_AREA_STYLE_COLOUR('',#14);
#1183=FILL_AREA_STYLE('',(#1182));
#1184=SURFACE_STYLE_FILL_AREA(#1183);
#1185=SURFACE_SIDE_STYLE('',(#1184));
#1186=SURFACE_STYLE_USAGE(.BOTH.,#1185);
#1187=PRESENTATION_STYLE_ASSIGNMENT((#1186));
#1188=STYLED_ITEM('',(#1187),#1181);
#1191=FILL_AREA_STYLE_COLOUR('',#14);
#1192=FILL_AREA_STYLE('',(#1191));
#1193=SURFACE_STYLE_FILL_AREA(#1192);
#1194=SURFACE_SIDE_STYLE('',(#1193));
#1195=SURFACE_STYLE_USAGE(.BOTH.,#1194);
#1196=PRESENTATION_STYLE_ASSIGNMENT((#1195));
#15=STYLED_ITEM('',(#1196),#1190);
#1198=LENGTH_MEASURE_WITH_UNIT(LENGTH_MEASURE(2.54E1),#1197);
#1199=(CONVERSION_BASED_UNIT('INCH',#1198)LENGTH_UNIT()NAMED_UNIT(*));
#1201=PLANE_ANGLE_MEASURE_WITH_UNIT(PLANE_ANGLE_MEASURE(1.745329251994E-2),
#1200);
#1202=(CONVERSION_BASED_UNIT('DEGREE',#1201)NAMED_UNIT(*)PLANE_ANGLE_UNIT());
#1204=UNCERTAINTY_MEASURE_WITH_UNIT(LENGTH_MEASURE(3.9E-4),#1199,'closure',
'Maximum model space distance between geometric entities at asserted connectivities');
#1206=CARTESIAN_POINT('',(0.E0,0.E0,0.E0));
#1207=DIRECTION('',(0.E0,0.E0,1.E0));
#1208=DIRECTION('',(1.E0,0.E0,0.E0));
#1211=MECHANICAL_DESIGN_GEOMETRIC_PRESENTATION_REPRESENTATION('',(#24,#32,#39,
#46,#53,#60,#67,#75,#83,#90,#97,#104,#112,#120,#127,#134,#142,#150,#157,#164,
#171,#178,#185,#193,#201,#208,#215,#222,#230,#238,#245,#252,#259,#266,#273,#280,
#288,#296,#303,#311,#319,#327,#335,#343,#351,#358,#365,#372,#379,#387,#395,#403,
#411,#418,#425,#432,#439,#446,#453,#469,#485,#493,#500,#508,#515,#522,#639,#661,
#681,#708,#734,#764,#791,#813,#833,#857,#881,#902,#923,#946,#985,#1007,#1027,
#1057,#1078,#1097,#1127,#1148,#1169,#1188,#15),#1205);
#1212=APPLICATION_CONTEXT('automotive design');
#1213=APPLICATION_PROTOCOL_DEFINITION('international standard',
'config_control_design',1994,#1212);
#1214=PRODUCT_DEFINITION_CONTEXT('',#1212,'design');
#1215=PRODUCT_CONTEXT('',#1212,'mechanical');
#1216=PRODUCT('SEGMENT-BASE_','SEGMENT-BASE_','NOT SPECIFIED',(#1215));
#1217=PRODUCT_DEFINITION_FORMATION_WITH_SPECIFIED_SOURCE('1','LAST_VERSION',
#1216,.MADE.);
#1225=LENGTH_MEASURE_WITH_UNIT(LENGTH_MEASURE(2.54E1),#1224);
#1226=(CONVERSION_BASED_UNIT('INCH',#1225)LENGTH_UNIT()NAMED_UNIT(*));
#1227=DERIVED_UNIT_ELEMENT(#1226,2.E0);
#1228=AREA_UNIT((#1227));
#1229=MEASURE_REPRESENTATION_ITEM('surface area measure',AREA_MEASURE(
1.333443195564E1),#1228);
#1234=LENGTH_MEASURE_WITH_UNIT(LENGTH_MEASURE(2.54E1),#1233);
#1235=(CONVERSION_BASED_UNIT('INCH',#1234)LENGTH_UNIT()NAMED_UNIT(*));
#1236=DERIVED_UNIT_ELEMENT(#1235,3.E0);
#1237=VOLUME_UNIT((#1236));
#1238=MEASURE_REPRESENTATION_ITEM('volume measure',VOLUME_MEASURE(
5.895384452048E-1),#1237);
#1242=CARTESIAN_POINT('centre point',(-2.541579110656E-2,9.900917768432E-1,
-1.625451028644E-8));
#1247=LENGTH_MEASURE_WITH_UNIT(LENGTH_MEASURE(2.54E1),#1246);
#1248=(CONVERSION_BASED_UNIT('INCH',#1247)LENGTH_UNIT()NAMED_UNIT(*));
#1249=DERIVED_UNIT_ELEMENT(#1248,2.E0);
#1250=AREA_UNIT((#1249));
#1251=MEASURE_REPRESENTATION_ITEM('surface area measure',AREA_MEASURE(
1.333443195564E1),#1250);
#1256=LENGTH_MEASURE_WITH_UNIT(LENGTH_MEASURE(2.54E1),#1255);
#1257=(CONVERSION_BASED_UNIT('INCH',#1256)LENGTH_UNIT()NAMED_UNIT(*));
#1258=DERIVED_UNIT_ELEMENT(#1257,3.E0);
#1259=VOLUME_UNIT((#1258));
#1260=MEASURE_REPRESENTATION_ITEM('volume measure',VOLUME_MEASURE(
5.895384452048E-1),#1259);
#1264=CARTESIAN_POINT('centre point',(-2.541579110656E-2,9.900917768432E-1,
-1.625451028644E-8));
#1=DRAUGHTING_PRE_DEFINED_COLOUR('green');
#2=COLOUR_RGB('',1.1E-2,1.2E-2,1.E0);
#3=COLOUR_RGB('',2.352941176471E-1,2.352941176471E-1,2.352941176471E-1);
#4=COLOUR_RGB('',4.1E-1,2.61589E-1,1.12848E-1);
#5=COLOUR_RGB('',5.04854E-1,1.5455E-2,1.5455E-2);
#6=COLOUR_RGB('',6.35294E-1,6.86275E-1,7.4902E-1);
#7=COLOUR_RGB('',6.40777E-1,6.40777E-1,6.40777E-1);
#8=COLOUR_RGB('',6.69062E-1,6.69903E-1,6.55217E-1);
#9=COLOUR_RGB('',9.21569E-1,7.05882E-1,4.70588E-1);
#10=DRAUGHTING_PRE_DEFINED_COLOUR('red');
#11=DRAUGHTING_PRE_DEFINED_COLOUR('yellow');
#12=COLOUR_RGB('',1.E0,1.E0,5.3E-1);
#13=COLOUR_RGB('',1.E0,1.E0,9.49E-1);
#14=DRAUGHTING_PRE_DEFINED_COLOUR('white');
#20=CIRCLE('',#19,1.181102362205E-1);
#29=CIRCLE('',#28,1.181102362205E-1);
#72=CIRCLE('',#71,1.181102362205E-1);
#80=CIRCLE('',#79,1.181102362205E-1);
#109=CIRCLE('',#108,6.9E-1);
#117=CIRCLE('',#116,6.9E-1);
#139=CIRCLE('',#138,1.574803149606E-1);
#147=CIRCLE('',#146,1.574803149606E-1);
#190=CIRCLE('',#189,1.574803149606E-1);
#198=CIRCLE('',#197,1.574803149606E-1);
#227=CIRCLE('',#226,6.9E-1);
#235=CIRCLE('',#234,6.9E-1);
#285=CIRCLE('',#284,6.9E-1);
#293=CIRCLE('',#292,6.9E-1);
#308=CIRCLE('',#307,2.362204724409E-1);
#316=CIRCLE('',#315,9.8E-2);
#324=CIRCLE('',#323,4.125E-2);
#332=CIRCLE('',#331,4.125E-2);
#340=CIRCLE('',#339,4.125E-2);
#348=CIRCLE('',#347,4.125E-2);
#384=CIRCLE('',#383,2.362204724409E-1);
#392=CIRCLE('',#391,9.8E-2);
#400=CIRCLE('',#399,4.125E-2);
#408=CIRCLE('',#407,4.125E-2);
#466=B_SPLINE_CURVE_WITH_KNOTS('',3,(#454,#455,#456,#457,#458,#459,#460,#461,
#462,#463,#464,#465),.UNSPECIFIED.,.F.,.F.,(4,1,1,1,1,1,1,1,1,4),(0.E0,
1.111111111111E-1,2.222222222222E-1,3.333333333333E-1,4.444444444444E-1,
5.555555555556E-1,6.666666666667E-1,7.777777777778E-1,8.888888888889E-1,1.E0),
.UNSPECIFIED.);
#482=B_SPLINE_CURVE_WITH_KNOTS('',3,(#470,#471,#472,#473,#474,#475,#476,#477,
#478,#479,#480,#481),.UNSPECIFIED.,.F.,.F.,(4,1,1,1,1,1,1,1,1,4),(0.E0,
1.111111111111E-1,2.222222222222E-1,3.333333333333E-1,4.444444444444E-1,
5.555555555556E-1,6.666666666667E-1,7.777777777778E-1,8.888888888889E-1,1.E0),
.UNSPECIFIED.);
#490=CIRCLE('',#489,6.9E-1);
#505=CIRCLE('',#504,6.9E-1);
#616=EDGE_CURVE('',#573,#574,#36,.T.);
#618=EDGE_CURVE('',#569,#573,#43,.T.);
#620=EDGE_CURVE('',#569,#570,#50,.T.);
#622=EDGE_CURVE('',#570,#574,#161,.T.);
#626=EDGE_CURVE('',#541,#545,#20,.T.);
#628=EDGE_CURVE('',#545,#541,#29,.T.);
#632=ADVANCED_FACE('',(#625,#631),#615,.F.);
#646=EDGE_CURVE('',#541,#542,#64,.T.);
#648=EDGE_CURVE('',#546,#542,#72,.T.);
#650=EDGE_CURVE('',#545,#546,#57,.T.);
#654=ADVANCED_FACE('',(#653),#644,.F.);
#669=EDGE_CURVE('',#542,#546,#80,.T.);
#674=ADVANCED_FACE('',(#673),#666,.F.);
#687=EDGE_CURVE('',#561,#562,#87,.T.);
#689=EDGE_CURVE('',#566,#562,#212,.T.);
#691=EDGE_CURVE('',#565,#566,#94,.T.);
#693=EDGE_CURVE('',#565,#561,#101,.T.);
#701=ADVANCED_FACE('',(#696,#700),#686,.T.);
#714=EDGE_CURVE('',#585,#586,#109,.T.);
#716=EDGE_CURVE('',#562,#585,#219,.T.);
#719=EDGE_CURVE('',#602,#561,#415,.T.);
#721=EDGE_CURVE('',#601,#602,#117,.T.);
#723=EDGE_CURVE('',#586,#601,#270,.T.);
#727=ADVANCED_FACE('',(#726),#713,.F.);
#740=EDGE_CURVE('',#590,#582,#124,.T.);
#742=EDGE_CURVE('',#581,#582,#285,.T.);
#744=EDGE_CURVE('',#581,#577,#242,.T.);
#746=EDGE_CURVE('',#577,#578,#227,.T.);
#748=EDGE_CURVE('',#578,#585,#131,.T.);
#751=EDGE_CURVE('',#586,#588,#263,.T.);
#753=EDGE_CURVE('',#590,#588,#490,.T.);
#757=ADVANCED_FACE('',(#756),#739,.T.);
#771=EDGE_CURVE('',#574,#590,#154,.T.);
#774=EDGE_CURVE('',#570,#582,#168,.T.);
#778=EDGE_CURVE('',#525,#526,#139,.T.);
#780=EDGE_CURVE('',#526,#525,#147,.T.);
#784=ADVANCED_FACE('',(#777,#783),#769,.F.);
#798=EDGE_CURVE('',#530,#526,#182,.T.);
#800=EDGE_CURVE('',#529,#530,#190,.T.);
#802=EDGE_CURVE('',#529,#525,#175,.T.);
#806=ADVANCED_FACE('',(#805),#796,.F.);
#821=EDGE_CURVE('',#530,#529,#198,.T.);
#826=ADVANCED_FACE('',(#825),#818,.F.);
#840=EDGE_CURVE('',#566,#578,#205,.T.);
#850=ADVANCED_FACE('',(#845,#849),#838,.T.);
#864=EDGE_CURVE('',#594,#577,#256,.T.);
#866=EDGE_CURVE('',#593,#594,#235,.T.);
#868=EDGE_CURVE('',#593,#565,#422,.T.);
#874=ADVANCED_FACE('',(#873),#862,.F.);
#888=EDGE_CURVE('',#596,#581,#300,.T.);
#890=EDGE_CURVE('',#596,#594,#249,.T.);
#895=ADVANCED_FACE('',(#894),#886,.T.);
#910=EDGE_CURVE('',#601,#605,#277,.T.);
#912=EDGE_CURVE('',#605,#588,#497,.T.);
#916=ADVANCED_FACE('',(#915),#907,.T.);
#932=EDGE_CURVE('',#598,#569,#355,.T.);
#934=EDGE_CURVE('',#598,#596,#293,.T.);
#939=ADVANCED_FACE('',(#938),#928,.F.);
#952=EDGE_CURVE('',#598,#606,#450,.T.);
#956=EDGE_CURVE('',#606,#573,#362,.T.);
#960=EDGE_CURVE('',#549,#550,#324,.T.);
#962=EDGE_CURVE('',#550,#549,#332,.T.);
#966=EDGE_CURVE('',#553,#554,#340,.T.);
#968=EDGE_CURVE('',#554,#553,#348,.T.);
#972=EDGE_CURVE('',#533,#534,#308,.T.);
#974=EDGE_CURVE('',#534,#533,#316,.T.);
#978=ADVANCED_FACE('',(#959,#965,#971,#977),#951,.F.);
#992=EDGE_CURVE('',#534,#538,#376,.T.);
#994=EDGE_CURVE('',#537,#538,#384,.T.);
#996=EDGE_CURVE('',#533,#537,#369,.T.);
#1000=ADVANCED_FACE('',(#999),#990,.F.);
#1015=EDGE_CURVE('',#538,#537,#392,.T.);
#1020=ADVANCED_FACE('',(#1019),#1012,.F.);
#1033=EDGE_CURVE('',#602,#593,#443,.T.);
#1040=EDGE_CURVE('',#556,#558,#400,.T.);
#1042=EDGE_CURVE('',#558,#556,#408,.T.);
#1050=ADVANCED_FACE('',(#1039,#1045,#1049),#1032,.T.);
#1064=EDGE_CURVE('',#558,#550,#436,.T.);
#1067=EDGE_CURVE('',#556,#549,#429,.T.);
#1071=ADVANCED_FACE('',(#1070),#1062,.F.);
#1090=ADVANCED_FACE('',(#1089),#1083,.F.);
#1108=EDGE_CURVE('',#605,#606,#505,.T.);
#1114=EDGE_CURVE('',#610,#608,#466,.T.);
#1116=EDGE_CURVE('',#608,#610,#482,.T.);
#1120=ADVANCED_FACE('',(#1113,#1119),#1102,.T.);
#1141=ADVANCED_FACE('',(#1140),#1132,.T.);
#1155=EDGE_CURVE('',#610,#554,#512,.T.);
#1158=EDGE_CURVE('',#608,#553,#519,.T.);
#1162=ADVANCED_FACE('',(#1161),#1153,.F.);
#1181=ADVANCED_FACE('',(#1180),#1174,.F.);
#1189=CLOSED_SHELL('',(#632,#654,#674,#701,#727,#757,#784,#806,#826,#850,#874,
#895,#916,#939,#978,#1000,#1020,#1050,#1071,#1090,#1120,#1141,#1162,#1181));
#1190=MANIFOLD_SOLID_BREP('',#1189);
#1197=(LENGTH_UNIT()NAMED_UNIT(*)SI_UNIT(.MILLI.,.METRE.));
#1200=(NAMED_UNIT(*)PLANE_ANGLE_UNIT()SI_UNIT($,.RADIAN.));
#1203=(NAMED_UNIT(*)SI_UNIT($,.STERADIAN.)SOLID_ANGLE_UNIT());
#1205=(GEOMETRIC_REPRESENTATION_CONTEXT(3)GLOBAL_UNCERTAINTY_ASSIGNED_CONTEXT((
#1204))GLOBAL_UNIT_ASSIGNED_CONTEXT((#1199,#1202,#1203))REPRESENTATION_CONTEXT(
'ID1','3'));
#1209=AXIS2_PLACEMENT_3D('',#1206,#1207,#1208);
#1210=ADVANCED_BREP_SHAPE_REPRESENTATION('',(#1209,#1190),#1205);
#1218=PRODUCT_DEFINITION('design','',#1217,#1214);
#1219=PRODUCT_DEFINITION_SHAPE('','SHAPE FOR SEGMENT-BASE_.',#1218);
#1220=SHAPE_ASPECT('','solid data associated with SEGMENT-BASE_',#1219,.F.);
#1221=PROPERTY_DEFINITION('',
'shape for solid data with which properties are associated',#1220);
#1222=SHAPE_REPRESENTATION('',(#1190),#1205);
#1223=SHAPE_DEFINITION_REPRESENTATION(#1221,#1222);
#1224=(LENGTH_UNIT()NAMED_UNIT(*)SI_UNIT(.MILLI.,.METRE.));
#1230=PROPERTY_DEFINITION('geometric validation property',
'area of SEGMENT-BASE_',#1220);
#1231=REPRESENTATION('surface area',(#1229),#1205);
#1232=PROPERTY_DEFINITION_REPRESENTATION(#1230,#1231);
#1233=(LENGTH_UNIT()NAMED_UNIT(*)SI_UNIT(.MILLI.,.METRE.));
#1239=PROPERTY_DEFINITION('geometric validation property',
'volume of SEGMENT-BASE_',#1220);
#1240=REPRESENTATION('volume',(#1238),#1205);
#1241=PROPERTY_DEFINITION_REPRESENTATION(#1239,#1240);
#1243=PROPERTY_DEFINITION('geometric validation property',
'centroid of SEGMENT-BASE_',#1220);
#1244=REPRESENTATION('centroid',(#1242),#1205);
#1245=PROPERTY_DEFINITION_REPRESENTATION(#1243,#1244);
#1246=(LENGTH_UNIT()NAMED_UNIT(*)SI_UNIT(.MILLI.,.METRE.));
#1252=PROPERTY_DEFINITION('geometric validation property',
'area of SEGMENT-BASE_',#1219);
#1253=REPRESENTATION('surface area',(#1251),#1205);
#1254=PROPERTY_DEFINITION_REPRESENTATION(#1252,#1253);
#1255=(LENGTH_UNIT()NAMED_UNIT(*)SI_UNIT(.MILLI.,.METRE.));
#1261=PROPERTY_DEFINITION('geometric validation property',
'volume of SEGMENT-BASE_',#1219);
#1262=REPRESENTATION('volume',(#1260),#1205);
#1263=PROPERTY_DEFINITION_REPRESENTATION(#1261,#1262);
#1265=PROPERTY_DEFINITION('geometric validation property',
'centroid of SEGMENT-BASE_',#1219);
#1266=REPRESENTATION('centroid',(#1264),#1205);
#1267=PROPERTY_DEFINITION_REPRESENTATION(#1265,#1266);
#1268=SHAPE_DEFINITION_REPRESENTATION(#1219,#1210);
ENDSEC;
END-ISO-10303-21;
