ISO-10303-21;
HEADER;
FILE_DESCRIPTION((''),'2;1');
FILE_NAME('SFAZOWANIE2','2026-06-15T13:46:07',('Esia'),(''),
'CREO PARAMETRIC BY PTC INC, 2025102','CREO PARAMETRIC BY PTC INC, 2025102','');
FILE_SCHEMA((
'AP242_MANAGED_MODEL_BASED_3D_ENGINEERING_MIM_LF { 1 0 10303 442 1 1 4 }'));
ENDSEC;
DATA;
#17=DIRECTION('',(0.E0,-1.E0,0.E0));
#18=VECTOR('',#17,1.279527559055E-1);
#19=CARTESIAN_POINT('',(2.879921259842E-1,-2.588582677165E-1,
-4.133858267717E-1));
#20=LINE('',#19,#18);
#21=DRAUGHTING_PRE_DEFINED_CURVE_FONT('continuous');
#22=CURVE_STYLE('',#21,POSITIVE_LENGTH_MEASURE(2.E-2),#11);
#23=PRESENTATION_STYLE_ASSIGNMENT((#22));
#24=STYLED_ITEM('',(#23),#20);
#25=DIRECTION('',(0.E0,0.E0,1.E0));
#26=VECTOR('',#25,1.968503937005E-2);
#27=CARTESIAN_POINT('',(2.879921259842E-1,-2.588582677165E-1,
-4.330708661417E-1));
#28=LINE('',#27,#26);
#29=CURVE_STYLE('',#21,POSITIVE_LENGTH_MEASURE(2.E-2),#11);
#30=PRESENTATION_STYLE_ASSIGNMENT((#29));
#31=STYLED_ITEM('',(#30),#28);
#32=DIRECTION('',(0.E0,1.E0,0.E0));
#33=VECTOR('',#32,1.279527559055E-1);
#34=CARTESIAN_POINT('',(2.879921259842E-1,-3.868110236220E-1,
-4.330708661417E-1));
#35=LINE('',#34,#33);
#36=CURVE_STYLE('',#21,POSITIVE_LENGTH_MEASURE(2.E-2),#11);
#37=PRESENTATION_STYLE_ASSIGNMENT((#36));
#38=STYLED_ITEM('',(#37),#35);
#39=DIRECTION('',(0.E0,0.E0,-1.E0));
#40=VECTOR('',#39,1.968503937005E-2);
#41=CARTESIAN_POINT('',(2.879921259842E-1,-3.868110236220E-1,
-4.133858267717E-1));
#42=LINE('',#41,#40);
#43=CURVE_STYLE('',#21,POSITIVE_LENGTH_MEASURE(2.E-2),#11);
#44=PRESENTATION_STYLE_ASSIGNMENT((#43));
#45=STYLED_ITEM('',(#44),#42);
#46=DIRECTION('',(-1.E0,0.E0,-5.357936316796E-13));
#47=VECTOR('',#46,1.968503937024E-3);
#48=CARTESIAN_POINT('',(2.879921259842E-1,-2.588582677165E-1,
-4.133858267717E-1));
#49=LINE('',#48,#47);
#50=CURVE_STYLE('',#21,POSITIVE_LENGTH_MEASURE(2.E-2),#11);
#51=PRESENTATION_STYLE_ASSIGNMENT((#50));
#52=STYLED_ITEM('',(#51),#49);
#53=DIRECTION('',(4.472135955E-1,8.944271909999E-1,2.270029229700E-13));
#54=VECTOR('',#53,4.401708617183E-3);
#55=CARTESIAN_POINT('',(2.860236220472E-1,-3.907480314961E-1,
-4.133858267717E-1));
#56=LINE('',#55,#54);
#57=CURVE_STYLE('',#21,POSITIVE_LENGTH_MEASURE(2.E-2),#11);
#58=PRESENTATION_STYLE_ASSIGNMENT((#57));
#59=STYLED_ITEM('',(#58),#56);
#60=DIRECTION('',(0.E0,-1.E0,0.E0));
#61=VECTOR('',#60,1.318897637795E-1);
#62=CARTESIAN_POINT('',(2.348425196850E-1,-2.588582677165E-1,
-3.622047244095E-1));
#63=LINE('',#62,#61);
#64=CURVE_STYLE('',#21,POSITIVE_LENGTH_MEASURE(2.E-2),#11);
#65=PRESENTATION_STYLE_ASSIGNMENT((#64));
#66=STYLED_ITEM('',(#65),#63);
#67=DIRECTION('',(7.070960732356E-14,1.E0,0.E0));
#68=VECTOR('',#67,1.318897637796E-1);
#69=CARTESIAN_POINT('',(2.860236220472E-1,-3.907480314961E-1,
-4.133858267717E-1));
#70=LINE('',#69,#68);
#71=CURVE_STYLE('',#21,POSITIVE_LENGTH_MEASURE(2.E-2),#11);
#72=PRESENTATION_STYLE_ASSIGNMENT((#71));
#73=STYLED_ITEM('',(#72),#70);
#74=CARTESIAN_POINT('',(2.722440944882E-1,-4.183070866142E-1,
-4.114960001006E-1));
#75=CARTESIAN_POINT('',(2.768191965331E-1,-4.091568825244E-1,
-4.127749839335E-1));
#76=CARTESIAN_POINT('',(2.814129042451E-1,-3.999694671003E-1,
-4.133858267717E-1));
#77=CARTESIAN_POINT('',(2.860236220472E-1,-3.907480314962E-1,
-4.133858267717E-1));
#79=CURVE_STYLE('',#21,POSITIVE_LENGTH_MEASURE(2.E-2),#11);
#80=PRESENTATION_STYLE_ASSIGNMENT((#79));
#81=STYLED_ITEM('',(#80),#78);
#82=CARTESIAN_POINT('',(2.348425196850E-1,-3.907480314961E-1,
-3.622047244095E-1));
#83=CARTESIAN_POINT('',(2.348425196850E-1,-3.999694671002E-1,
-3.668154422115E-1));
#84=CARTESIAN_POINT('',(2.354533625232E-1,-4.091568825243E-1,
-3.714091499236E-1));
#85=CARTESIAN_POINT('',(2.367323463561E-1,-4.183070866142E-1,
-3.759842519685E-1));
#87=CURVE_STYLE('',#21,POSITIVE_LENGTH_MEASURE(2.E-2),#11);
#88=PRESENTATION_STYLE_ASSIGNMENT((#87));
#89=STYLED_ITEM('',(#88),#86);
#90=DIRECTION('',(0.E0,-1.E0,0.E0));
#91=VECTOR('',#90,1.279527559055E-1);
#92=CARTESIAN_POINT('',(2.348425196850E-1,-2.588582677165E-1,
-3.602362204725E-1));
#93=LINE('',#92,#91);
#94=CURVE_STYLE('',#21,POSITIVE_LENGTH_MEASURE(2.E-2),#11);
#95=PRESENTATION_STYLE_ASSIGNMENT((#94));
#96=STYLED_ITEM('',(#95),#93);
#97=DIRECTION('',(0.E0,0.E0,1.E0));
#98=VECTOR('',#97,1.968503937005E-3);
#99=CARTESIAN_POINT('',(2.348425196850E-1,-2.588582677165E-1,
-3.622047244095E-1));
#100=LINE('',#99,#98);
#101=CURVE_STYLE('',#21,POSITIVE_LENGTH_MEASURE(2.E-2),#11);
#102=PRESENTATION_STYLE_ASSIGNMENT((#101));
#103=STYLED_ITEM('',(#102),#100);
#104=DIRECTION('',(0.E0,-8.944271909999E-1,-4.472135954999E-1));
#105=VECTOR('',#104,4.401708617118E-3);
#106=CARTESIAN_POINT('',(2.348425196850E-1,-3.868110236220E-1,
-3.602362204725E-1));
#107=LINE('',#106,#105);
#108=CURVE_STYLE('',#21,POSITIVE_LENGTH_MEASURE(2.E-2),#11);
#109=PRESENTATION_STYLE_ASSIGNMENT((#108));
#110=STYLED_ITEM('',(#109),#107);
#111=DIRECTION('',(0.E0,-1.E0,0.E0));
#112=VECTOR('',#111,1.279527559055E-1);
#113=CARTESIAN_POINT('',(2.151574803150E-1,-2.588582677165E-1,
-3.602362204725E-1));
#114=LINE('',#113,#112);
#115=CURVE_STYLE('',#21,POSITIVE_LENGTH_MEASURE(2.E-2),#11);
#116=PRESENTATION_STYLE_ASSIGNMENT((#115));
#117=STYLED_ITEM('',(#116),#114);
#118=DIRECTION('',(-1.E0,0.E0,0.E0));
#119=VECTOR('',#118,1.968503937007E-2);
#120=CARTESIAN_POINT('',(2.348425196850E-1,-2.588582677165E-1,
-3.602362204725E-1));
#121=LINE('',#120,#119);
#122=CURVE_STYLE('',#21,POSITIVE_LENGTH_MEASURE(2.E-2),#11);
#123=PRESENTATION_STYLE_ASSIGNMENT((#122));
#124=STYLED_ITEM('',(#123),#121);
#125=DIRECTION('',(1.E0,0.E0,0.E0));
#126=VECTOR('',#125,1.968503937007E-2);
#127=CARTESIAN_POINT('',(2.151574803150E-1,-3.868110236220E-1,
-3.602362204725E-1));
#128=LINE('',#127,#126);
#129=CURVE_STYLE('',#21,POSITIVE_LENGTH_MEASURE(2.E-2),#11);
#130=PRESENTATION_STYLE_ASSIGNMENT((#129));
#131=STYLED_ITEM('',(#130),#128);
#132=DIRECTION('',(-1.720179554396E-12,0.E0,-1.E0));
#133=VECTOR('',#132,1.968503936960E-3);
#134=CARTESIAN_POINT('',(2.151574803150E-1,-2.588582677165E-1,
-3.602362204725E-1));
#135=LINE('',#134,#133);
#136=CURVE_STYLE('',#21,POSITIVE_LENGTH_MEASURE(2.E-2),#11);
#137=PRESENTATION_STYLE_ASSIGNMENT((#136));
#138=STYLED_ITEM('',(#137),#135);
#139=DIRECTION('',(7.692876834376E-13,8.944271909999E-1,4.472135954999E-1));
#140=VECTOR('',#139,4.401708616958E-3);
#141=CARTESIAN_POINT('',(2.151574803150E-1,-3.907480314959E-1,
-3.622047244094E-1));
#142=LINE('',#141,#140);
#143=CURVE_STYLE('',#21,POSITIVE_LENGTH_MEASURE(2.E-2),#11);
#144=PRESENTATION_STYLE_ASSIGNMENT((#143));
#145=STYLED_ITEM('',(#144),#142);
#146=DIRECTION('',(0.E0,-1.E0,0.E0));
#147=VECTOR('',#146,1.318897637795E-1);
#148=CARTESIAN_POINT('',(1.639763779528E-1,-2.588582677165E-1,
-4.133858267717E-1));
#149=LINE('',#148,#147);
#150=CURVE_STYLE('',#21,POSITIVE_LENGTH_MEASURE(2.E-2),#11);
#151=PRESENTATION_STYLE_ASSIGNMENT((#150));
#152=STYLED_ITEM('',(#151),#149);
#153=DIRECTION('',(0.E0,1.E0,-2.037110115753E-13));
#154=VECTOR('',#153,1.318897637794E-1);
#155=CARTESIAN_POINT('',(2.151574803150E-1,-3.907480314959E-1,
-3.622047244094E-1));
#156=LINE('',#155,#154);
#157=CURVE_STYLE('',#21,POSITIVE_LENGTH_MEASURE(2.E-2),#11);
#158=PRESENTATION_STYLE_ASSIGNMENT((#157));
#159=STYLED_ITEM('',(#158),#156);
#160=CARTESIAN_POINT('',(2.132676536439E-1,-4.183070866142E-1,
-3.759842519685E-1));
#161=CARTESIAN_POINT('',(2.145466374768E-1,-4.091568825242E-1,
-3.714091499235E-1));
#162=CARTESIAN_POINT('',(2.151574803150E-1,-3.999694671E-1,-3.668154422114E-1));
#163=CARTESIAN_POINT('',(2.151574803149E-1,-3.907480314956E-1,
-3.622047244092E-1));
#165=CURVE_STYLE('',#21,POSITIVE_LENGTH_MEASURE(2.E-2),#11);
#166=PRESENTATION_STYLE_ASSIGNMENT((#165));
#167=STYLED_ITEM('',(#166),#164);
#168=CARTESIAN_POINT('',(1.639763779528E-1,-3.907480314961E-1,
-4.133858267717E-1));
#169=CARTESIAN_POINT('',(1.685870957548E-1,-3.999694671002E-1,
-4.133858267717E-1));
#170=CARTESIAN_POINT('',(1.731808034669E-1,-4.091568825243E-1,
-4.127749839335E-1));
#171=CARTESIAN_POINT('',(1.777559055118E-1,-4.183070866142E-1,
-4.114960001006E-1));
#173=CURVE_STYLE('',#21,POSITIVE_LENGTH_MEASURE(2.E-2),#11);
#174=PRESENTATION_STYLE_ASSIGNMENT((#173));
#175=STYLED_ITEM('',(#174),#172);
#176=DIRECTION('',(0.E0,-1.E0,0.E0));
#177=VECTOR('',#176,1.279527559055E-1);
#178=CARTESIAN_POINT('',(1.620078740157E-1,-2.588582677165E-1,
-4.133858267717E-1));
#179=LINE('',#178,#177);
#180=CURVE_STYLE('',#21,POSITIVE_LENGTH_MEASURE(2.E-2),#11);
#181=PRESENTATION_STYLE_ASSIGNMENT((#180));
#182=STYLED_ITEM('',(#181),#179);
#183=DIRECTION('',(-1.E0,0.E0,0.E0));
#184=VECTOR('',#183,1.968503937005E-3);
#185=CARTESIAN_POINT('',(1.639763779528E-1,-2.588582677165E-1,
-4.133858267717E-1));
#186=LINE('',#185,#184);
#187=CURVE_STYLE('',#21,POSITIVE_LENGTH_MEASURE(2.E-2),#11);
#188=PRESENTATION_STYLE_ASSIGNMENT((#187));
#189=STYLED_ITEM('',(#188),#186);
#190=DIRECTION('',(4.472135954999E-1,-8.944271909999E-1,0.E0));
#191=VECTOR('',#190,4.401708617119E-3);
#192=CARTESIAN_POINT('',(1.620078740157E-1,-3.868110236220E-1,
-4.133858267717E-1));
#193=LINE('',#192,#191);
#194=CURVE_STYLE('',#21,POSITIVE_LENGTH_MEASURE(2.E-2),#11);
#195=PRESENTATION_STYLE_ASSIGNMENT((#194));
#196=STYLED_ITEM('',(#195),#193);
#197=DIRECTION('',(0.E0,-1.E0,0.E0));
#198=VECTOR('',#197,1.279527559055E-1);
#199=CARTESIAN_POINT('',(1.620078740157E-1,-2.588582677165E-1,
-4.330708661417E-1));
#200=LINE('',#199,#198);
#201=CURVE_STYLE('',#21,POSITIVE_LENGTH_MEASURE(2.E-2),#11);
#202=PRESENTATION_STYLE_ASSIGNMENT((#201));
#203=STYLED_ITEM('',(#202),#200);
#204=DIRECTION('',(0.E0,0.E0,-1.E0));
#205=VECTOR('',#204,1.968503937008E-2);
#206=CARTESIAN_POINT('',(1.620078740157E-1,-2.588582677165E-1,
-4.133858267717E-1));
#207=LINE('',#206,#205);
#208=CURVE_STYLE('',#21,POSITIVE_LENGTH_MEASURE(2.E-2),#11);
#209=PRESENTATION_STYLE_ASSIGNMENT((#208));
#210=STYLED_ITEM('',(#209),#207);
#211=DIRECTION('',(0.E0,0.E0,1.E0));
#212=VECTOR('',#211,1.968503937008E-2);
#213=CARTESIAN_POINT('',(1.620078740157E-1,-3.868110236220E-1,
-4.330708661417E-1));
#214=LINE('',#213,#212);
#215=CURVE_STYLE('',#21,POSITIVE_LENGTH_MEASURE(2.E-2),#11);
#216=PRESENTATION_STYLE_ASSIGNMENT((#215));
#217=STYLED_ITEM('',(#216),#214);
#218=DIRECTION('',(1.E0,0.E0,2.989164471385E-12));
#219=VECTOR('',#218,1.968503937084E-3);
#220=CARTESIAN_POINT('',(1.620078740157E-1,-2.588582677165E-1,
-4.330708661417E-1));
#221=LINE('',#220,#219);
#222=CURVE_STYLE('',#21,POSITIVE_LENGTH_MEASURE(2.E-2),#11);
#223=PRESENTATION_STYLE_ASSIGNMENT((#222));
#224=STYLED_ITEM('',(#223),#221);
#225=DIRECTION('',(-4.472135954991E-1,8.944271910003E-1,-1.324183717257E-12));
#226=VECTOR('',#225,4.401708617408E-3);
#227=CARTESIAN_POINT('',(1.639763779529E-1,-3.907480314963E-1,
-4.330708661417E-1));
#228=LINE('',#227,#226);
#229=CURVE_STYLE('',#21,POSITIVE_LENGTH_MEASURE(2.E-2),#11);
#230=PRESENTATION_STYLE_ASSIGNMENT((#229));
#231=STYLED_ITEM('',(#230),#228);
#232=DIRECTION('',(0.E0,-1.E0,0.E0));
#233=VECTOR('',#232,1.318897637795E-1);
#234=CARTESIAN_POINT('',(2.151574803150E-1,-2.588582677165E-1,
-4.842519685039E-1));
#235=LINE('',#234,#233);
#236=CURVE_STYLE('',#21,POSITIVE_LENGTH_MEASURE(2.E-2),#11);
#237=PRESENTATION_STYLE_ASSIGNMENT((#236));
#238=STYLED_ITEM('',(#237),#235);
#239=DIRECTION('',(-3.537584818772E-13,1.E0,0.E0));
#240=VECTOR('',#239,1.318897637798E-1);
#241=CARTESIAN_POINT('',(1.639763779529E-1,-3.907480314963E-1,
-4.330708661417E-1));
#242=LINE('',#241,#240);
#243=CURVE_STYLE('',#21,POSITIVE_LENGTH_MEASURE(2.E-2),#11);
#244=PRESENTATION_STYLE_ASSIGNMENT((#243));
#245=STYLED_ITEM('',(#244),#242);
#246=CARTESIAN_POINT('',(1.777559055118E-1,-4.183070866142E-1,
-4.349606928128E-1));
#247=CARTESIAN_POINT('',(1.731808034670E-1,-4.091568825246E-1,
-4.336817089799E-1));
#248=CARTESIAN_POINT('',(1.685870957551E-1,-3.999694671008E-1,
-4.330708661418E-1));
#249=CARTESIAN_POINT('',(1.639763779531E-1,-3.907480314968E-1,
-4.330708661417E-1));
#251=CURVE_STYLE('',#21,POSITIVE_LENGTH_MEASURE(2.E-2),#11);
#252=PRESENTATION_STYLE_ASSIGNMENT((#251));
#253=STYLED_ITEM('',(#252),#250);
#254=CARTESIAN_POINT('',(2.151574803150E-1,-3.907480314961E-1,
-4.842519685039E-1));
#255=CARTESIAN_POINT('',(2.151574803150E-1,-3.999694671002E-1,
-4.796412507018E-1));
#256=CARTESIAN_POINT('',(2.145466374768E-1,-4.091568825243E-1,
-4.750475429898E-1));
#257=CARTESIAN_POINT('',(2.132676536439E-1,-4.183070866142E-1,
-4.704724409449E-1));
#259=CURVE_STYLE('',#21,POSITIVE_LENGTH_MEASURE(2.E-2),#11);
#260=PRESENTATION_STYLE_ASSIGNMENT((#259));
#261=STYLED_ITEM('',(#260),#258);
#262=DIRECTION('',(0.E0,-1.E0,0.E0));
#263=VECTOR('',#262,1.279527559055E-1);
#264=CARTESIAN_POINT('',(2.151574803150E-1,-2.588582677165E-1,
-4.862204724409E-1));
#265=LINE('',#264,#263);
#266=CURVE_STYLE('',#21,POSITIVE_LENGTH_MEASURE(2.E-2),#11);
#267=PRESENTATION_STYLE_ASSIGNMENT((#266));
#268=STYLED_ITEM('',(#267),#265);
#269=DIRECTION('',(0.E0,0.E0,-1.E0));
#270=VECTOR('',#269,1.968503937005E-3);
#271=CARTESIAN_POINT('',(2.151574803150E-1,-2.588582677165E-1,
-4.842519685039E-1));
#272=LINE('',#271,#270);
#273=CURVE_STYLE('',#21,POSITIVE_LENGTH_MEASURE(2.E-2),#11);
#274=PRESENTATION_STYLE_ASSIGNMENT((#273));
#275=STYLED_ITEM('',(#274),#272);
#276=DIRECTION('',(0.E0,-8.944271909999E-1,4.472135954999E-1));
#277=VECTOR('',#276,4.401708617118E-3);
#278=CARTESIAN_POINT('',(2.151574803150E-1,-3.868110236220E-1,
-4.862204724409E-1));
#279=LINE('',#278,#277);
#280=CURVE_STYLE('',#21,POSITIVE_LENGTH_MEASURE(2.E-2),#11);
#281=PRESENTATION_STYLE_ASSIGNMENT((#280));
#282=STYLED_ITEM('',(#281),#279);
#283=DIRECTION('',(0.E0,-1.E0,0.E0));
#284=VECTOR('',#283,1.279527559055E-1);
#285=CARTESIAN_POINT('',(2.348425196850E-1,-2.588582677165E-1,
-4.862204724409E-1));
#286=LINE('',#285,#284);
#287=CURVE_STYLE('',#21,POSITIVE_LENGTH_MEASURE(2.E-2),#11);
#288=PRESENTATION_STYLE_ASSIGNMENT((#287));
#289=STYLED_ITEM('',(#288),#286);
#290=DIRECTION('',(1.E0,0.E0,0.E0));
#291=VECTOR('',#290,1.968503937007E-2);
#292=CARTESIAN_POINT('',(2.151574803150E-1,-2.588582677165E-1,
-4.862204724409E-1));
#293=LINE('',#292,#291);
#294=CURVE_STYLE('',#21,POSITIVE_LENGTH_MEASURE(2.E-2),#11);
#295=PRESENTATION_STYLE_ASSIGNMENT((#294));
#296=STYLED_ITEM('',(#295),#293);
#297=DIRECTION('',(-1.E0,0.E0,0.E0));
#298=VECTOR('',#297,1.968503937007E-2);
#299=CARTESIAN_POINT('',(2.348425196850E-1,-3.868110236220E-1,
-4.862204724409E-1));
#300=LINE('',#299,#298);
#301=CURVE_STYLE('',#21,POSITIVE_LENGTH_MEASURE(2.E-2),#11);
#302=PRESENTATION_STYLE_ASSIGNMENT((#301));
#303=STYLED_ITEM('',(#302),#300);
#304=DIRECTION('',(1.268984917170E-12,0.E0,1.E0));
#305=VECTOR('',#304,1.968503936971E-3);
#306=CARTESIAN_POINT('',(2.348425196850E-1,-2.588582677165E-1,
-4.862204724409E-1));
#307=LINE('',#306,#305);
#308=CURVE_STYLE('',#21,POSITIVE_LENGTH_MEASURE(2.E-2),#11);
#309=PRESENTATION_STYLE_ASSIGNMENT((#308));
#310=STYLED_ITEM('',(#309),#307);
#311=DIRECTION('',(-5.675073074488E-13,8.944271909999E-1,-4.472135954999E-1));
#312=VECTOR('',#311,4.401708616998E-3);
#313=CARTESIAN_POINT('',(2.348425196850E-1,-3.907480314959E-1,
-4.842519685040E-1));
#314=LINE('',#313,#312);
#315=CURVE_STYLE('',#21,POSITIVE_LENGTH_MEASURE(2.E-2),#11);
#316=PRESENTATION_STYLE_ASSIGNMENT((#315));
#317=STYLED_ITEM('',(#316),#314);
#318=CARTESIAN_POINT('',(2.860236220472E-1,-3.907480314961E-1,
-4.330708661417E-1));
#319=CARTESIAN_POINT('',(2.814129042451E-1,-3.999694671002E-1,
-4.330708661417E-1));
#320=CARTESIAN_POINT('',(2.768191965331E-1,-4.091568825243E-1,
-4.336817089799E-1));
#321=CARTESIAN_POINT('',(2.722440944882E-1,-4.183070866142E-1,
-4.349606928128E-1));
#323=CURVE_STYLE('',#21,POSITIVE_LENGTH_MEASURE(2.E-2),#11);
#324=PRESENTATION_STYLE_ASSIGNMENT((#323));
#325=STYLED_ITEM('',(#324),#322);
#326=DIRECTION('',(0.E0,-1.E0,0.E0));
#327=VECTOR('',#326,1.318897637795E-1);
#328=CARTESIAN_POINT('',(2.860236220472E-1,-2.588582677165E-1,
-4.330708661417E-1));
#329=LINE('',#328,#327);
#330=CURVE_STYLE('',#21,POSITIVE_LENGTH_MEASURE(2.E-2),#11);
#331=PRESENTATION_STYLE_ASSIGNMENT((#330));
#332=STYLED_ITEM('',(#331),#329);
#333=DIRECTION('',(0.E0,1.E0,1.527832586815E-13));
#334=VECTOR('',#333,1.318897637794E-1);
#335=CARTESIAN_POINT('',(2.348425196850E-1,-3.907480314959E-1,
-4.842519685040E-1));
#336=LINE('',#335,#334);
#337=CURVE_STYLE('',#21,POSITIVE_LENGTH_MEASURE(2.E-2),#11);
#338=PRESENTATION_STYLE_ASSIGNMENT((#337));
#339=STYLED_ITEM('',(#338),#336);
#340=CARTESIAN_POINT('',(2.367323463561E-1,-4.183070866142E-1,
-4.704724409449E-1));
#341=CARTESIAN_POINT('',(2.354533625232E-1,-4.091568825242E-1,
-4.750475429899E-1));
#342=CARTESIAN_POINT('',(2.348425196850E-1,-3.999694671E-1,-4.796412507019E-1));
#343=CARTESIAN_POINT('',(2.348425196850E-1,-3.907480314957E-1,
-4.842519685041E-1));
#345=CURVE_STYLE('',#21,POSITIVE_LENGTH_MEASURE(2.E-2),#11);
#346=PRESENTATION_STYLE_ASSIGNMENT((#345));
#347=STYLED_ITEM('',(#346),#344);
#348=CARTESIAN_POINT('',(1.639763779527E-1,-4.183070866142E-1,
-4.842519685039E-1));
#349=DIRECTION('',(0.E0,1.E0,0.E0));
#350=DIRECTION('',(2.692307692311E-1,0.E0,9.630756942729E-1));
#351=AXIS2_PLACEMENT_3D('',#348,#349,#350);
#353=CURVE_STYLE('',#21,POSITIVE_LENGTH_MEASURE(2.E-2),#11);
#354=PRESENTATION_STYLE_ASSIGNMENT((#353));
#355=STYLED_ITEM('',(#354),#352);
#356=DIRECTION('',(0.E0,0.E0,-1.E0));
#357=VECTOR('',#356,2.346469271220E-2);
#358=CARTESIAN_POINT('',(1.777559055118E-1,-4.183070866142E-1,
-4.114960001006E-1));
#359=LINE('',#358,#357);
#360=CURVE_STYLE('',#21,POSITIVE_LENGTH_MEASURE(2.E-2),#11);
#361=PRESENTATION_STYLE_ASSIGNMENT((#360));
#362=STYLED_ITEM('',(#361),#359);
#363=CARTESIAN_POINT('',(1.639763779528E-1,-4.183070866142E-1,
-3.622047244095E-1));
#364=DIRECTION('',(0.E0,1.E0,0.E0));
#365=DIRECTION('',(9.630756942730E-1,0.E0,-2.692307692307E-1));
#366=AXIS2_PLACEMENT_3D('',#363,#364,#365);
#368=CURVE_STYLE('',#21,POSITIVE_LENGTH_MEASURE(2.E-2),#11);
#369=PRESENTATION_STYLE_ASSIGNMENT((#368));
#370=STYLED_ITEM('',(#369),#367);
#371=DIRECTION('',(-1.E0,0.E0,0.E0));
#372=VECTOR('',#371,2.346469271222E-2);
#373=CARTESIAN_POINT('',(2.367323463561E-1,-4.183070866142E-1,
-3.759842519685E-1));
#374=LINE('',#373,#372);
#375=CURVE_STYLE('',#21,POSITIVE_LENGTH_MEASURE(2.E-2),#11);
#376=PRESENTATION_STYLE_ASSIGNMENT((#375));
#377=STYLED_ITEM('',(#376),#374);
#378=CARTESIAN_POINT('',(2.860236220472E-1,-4.183070866142E-1,
-3.622047244095E-1));
#379=DIRECTION('',(0.E0,1.E0,0.E0));
#380=DIRECTION('',(-2.692307692307E-1,0.E0,-9.630756942730E-1));
#381=AXIS2_PLACEMENT_3D('',#378,#379,#380);
#383=CURVE_STYLE('',#21,POSITIVE_LENGTH_MEASURE(2.E-2),#11);
#384=PRESENTATION_STYLE_ASSIGNMENT((#383));
#385=STYLED_ITEM('',(#384),#382);
#386=DIRECTION('',(0.E0,0.E0,1.E0));
#387=VECTOR('',#386,2.346469271219E-2);
#388=CARTESIAN_POINT('',(2.722440944882E-1,-4.183070866142E-1,
-4.349606928128E-1));
#389=LINE('',#388,#387);
#390=CURVE_STYLE('',#21,POSITIVE_LENGTH_MEASURE(2.E-2),#11);
#391=PRESENTATION_STYLE_ASSIGNMENT((#390));
#392=STYLED_ITEM('',(#391),#389);
#393=CARTESIAN_POINT('',(2.860236220472E-1,-4.183070866142E-1,
-4.842519685039E-1));
#394=DIRECTION('',(0.E0,1.E0,0.E0));
#395=DIRECTION('',(-9.630756942730E-1,0.E0,2.692307692306E-1));
#396=AXIS2_PLACEMENT_3D('',#393,#394,#395);
#398=CURVE_STYLE('',#21,POSITIVE_LENGTH_MEASURE(2.E-2),#11);
#399=PRESENTATION_STYLE_ASSIGNMENT((#398));
#400=STYLED_ITEM('',(#399),#397);
#401=DIRECTION('',(1.E0,0.E0,0.E0));
#402=VECTOR('',#401,2.346469271222E-2);
#403=CARTESIAN_POINT('',(2.132676536439E-1,-4.183070866142E-1,
-4.704724409449E-1));
#404=LINE('',#403,#402);
#405=CURVE_STYLE('',#21,POSITIVE_LENGTH_MEASURE(2.E-2),#11);
#406=PRESENTATION_STYLE_ASSIGNMENT((#405));
#407=STYLED_ITEM('',(#406),#404);
#408=DIRECTION('',(1.E0,0.E0,0.E0));
#409=VECTOR('',#408,1.968503937008E-3);
#410=CARTESIAN_POINT('',(2.860236220472E-1,-2.588582677165E-1,
-4.330708661417E-1));
#411=LINE('',#410,#409);
#412=CURVE_STYLE('',#21,POSITIVE_LENGTH_MEASURE(2.E-2),#11);
#413=PRESENTATION_STYLE_ASSIGNMENT((#412));
#414=STYLED_ITEM('',(#413),#411);
#415=DIRECTION('',(-4.472135954999E-1,-8.944271909999E-1,0.E0));
#416=VECTOR('',#415,4.401708617126E-3);
#417=CARTESIAN_POINT('',(2.879921259842E-1,-3.868110236220E-1,
-4.330708661417E-1));
#418=LINE('',#417,#416);
#419=CURVE_STYLE('',#21,POSITIVE_LENGTH_MEASURE(2.E-2),#11);
#420=PRESENTATION_STYLE_ASSIGNMENT((#419));
#421=STYLED_ITEM('',(#420),#418);
#422=CARTESIAN_POINT('',(2.860236220472E-1,-2.588582677165E-1,
-3.622047244095E-1));
#423=DIRECTION('',(0.E0,-1.E0,0.E0));
#424=DIRECTION('',(-1.E0,0.E0,6.073773962410E-14));
#425=AXIS2_PLACEMENT_3D('',#422,#423,#424);
#427=CURVE_STYLE('',#21,POSITIVE_LENGTH_MEASURE(2.E-2),#11);
#428=PRESENTATION_STYLE_ASSIGNMENT((#427));
#429=STYLED_ITEM('',(#428),#426);
#430=CARTESIAN_POINT('',(1.639763779528E-1,-2.588582677165E-1,
-3.622047244095E-1));
#431=DIRECTION('',(0.E0,-1.E0,0.E0));
#432=DIRECTION('',(0.E0,0.E0,-1.E0));
#433=AXIS2_PLACEMENT_3D('',#430,#431,#432);
#435=CURVE_STYLE('',#21,POSITIVE_LENGTH_MEASURE(2.E-2),#11);
#436=PRESENTATION_STYLE_ASSIGNMENT((#435));
#437=STYLED_ITEM('',(#436),#434);
#438=CARTESIAN_POINT('',(1.639763779527E-1,-2.588582677165E-1,
-4.842519685039E-1));
#439=DIRECTION('',(0.E0,-1.E0,0.E0));
#440=DIRECTION('',(1.E0,0.E0,-3.362267729191E-14));
#441=AXIS2_PLACEMENT_3D('',#438,#439,#440);
#443=CURVE_STYLE('',#21,POSITIVE_LENGTH_MEASURE(2.E-2),#11);
#444=PRESENTATION_STYLE_ASSIGNMENT((#443));
#445=STYLED_ITEM('',(#444),#442);
#446=CARTESIAN_POINT('',(2.860236220472E-1,-2.588582677165E-1,
-4.842519685039E-1));
#447=DIRECTION('',(0.E0,-1.E0,0.E0));
#448=DIRECTION('',(0.E0,0.E0,1.E0));
#449=AXIS2_PLACEMENT_3D('',#446,#447,#448);
#451=CURVE_STYLE('',#21,POSITIVE_LENGTH_MEASURE(2.E-2),#11);
#452=PRESENTATION_STYLE_ASSIGNMENT((#451));
#453=STYLED_ITEM('',(#452),#450);
#454=CARTESIAN_POINT('',(2.879921259842E-1,-3.868110236220E-1,
-4.330708661417E-1));
#455=CARTESIAN_POINT('',(2.860236220472E-1,-3.907480314961E-1,
-4.330708661417E-1));
#456=VERTEX_POINT('',#454);
#457=VERTEX_POINT('',#455);
#458=CARTESIAN_POINT('',(2.879921259842E-1,-3.868110236220E-1,
-4.133858267717E-1));
#459=VERTEX_POINT('',#458);
#460=CARTESIAN_POINT('',(2.860236220472E-1,-3.907480314961E-1,
-4.133858267717E-1));
#461=VERTEX_POINT('',#460);
#462=CARTESIAN_POINT('',(2.879921259842E-1,-2.588582677165E-1,
-4.133858267717E-1));
#463=VERTEX_POINT('',#462);
#464=CARTESIAN_POINT('',(2.860236220472E-1,-2.588582677165E-1,
-4.133858267717E-1));
#465=VERTEX_POINT('',#464);
#466=CARTESIAN_POINT('',(2.722440944882E-1,-4.183070866142E-1,
-4.349606928128E-1));
#467=CARTESIAN_POINT('',(2.722440944882E-1,-4.183070866142E-1,
-4.114960001006E-1));
#468=VERTEX_POINT('',#466);
#469=VERTEX_POINT('',#467);
#470=CARTESIAN_POINT('',(2.879921259842E-1,-2.588582677165E-1,
-4.330708661417E-1));
#471=VERTEX_POINT('',#470);
#472=CARTESIAN_POINT('',(2.348425196850E-1,-2.588582677165E-1,
-3.622047244095E-1));
#473=VERTEX_POINT('',#472);
#474=CARTESIAN_POINT('',(2.367323463561E-1,-4.183070866142E-1,
-4.704724409449E-1));
#475=VERTEX_POINT('',#474);
#476=CARTESIAN_POINT('',(2.348425196850E-1,-2.588582677165E-1,
-3.602362204725E-1));
#477=VERTEX_POINT('',#476);
#478=CARTESIAN_POINT('',(2.151574803150E-1,-2.588582677165E-1,
-3.602362204725E-1));
#479=VERTEX_POINT('',#478);
#480=CARTESIAN_POINT('',(2.151574803150E-1,-2.588582677165E-1,
-3.622047244094E-1));
#481=VERTEX_POINT('',#480);
#482=CARTESIAN_POINT('',(1.639763779528E-1,-2.588582677165E-1,
-4.133858267717E-1));
#483=VERTEX_POINT('',#482);
#484=CARTESIAN_POINT('',(1.620078740157E-1,-2.588582677165E-1,
-4.133858267717E-1));
#485=VERTEX_POINT('',#484);
#486=CARTESIAN_POINT('',(1.620078740157E-1,-2.588582677165E-1,
-4.330708661417E-1));
#487=VERTEX_POINT('',#486);
#488=CARTESIAN_POINT('',(1.639763779528E-1,-2.588582677165E-1,
-4.330708661417E-1));
#489=VERTEX_POINT('',#488);
#490=CARTESIAN_POINT('',(2.151574803150E-1,-2.588582677165E-1,
-4.842519685039E-1));
#491=VERTEX_POINT('',#490);
#492=CARTESIAN_POINT('',(2.151574803150E-1,-2.588582677165E-1,
-4.862204724409E-1));
#493=VERTEX_POINT('',#492);
#494=CARTESIAN_POINT('',(2.348425196850E-1,-2.588582677165E-1,
-4.862204724409E-1));
#495=VERTEX_POINT('',#494);
#496=CARTESIAN_POINT('',(2.348425196850E-1,-2.588582677165E-1,
-4.842519685040E-1));
#497=VERTEX_POINT('',#496);
#498=CARTESIAN_POINT('',(2.860236220472E-1,-2.588582677165E-1,
-4.330708661417E-1));
#499=VERTEX_POINT('',#498);
#500=CARTESIAN_POINT('',(2.367323463561E-1,-4.183070866142E-1,
-3.759842519685E-1));
#501=VERTEX_POINT('',#500);
#502=CARTESIAN_POINT('',(2.348425196850E-1,-3.907480314959E-1,
-4.842519685040E-1));
#503=VERTEX_POINT('',#502);
#504=CARTESIAN_POINT('',(2.348425196850E-1,-3.868110236220E-1,
-4.862204724409E-1));
#505=VERTEX_POINT('',#504);
#506=CARTESIAN_POINT('',(2.151574803150E-1,-3.868110236220E-1,
-4.862204724409E-1));
#507=VERTEX_POINT('',#506);
#508=CARTESIAN_POINT('',(2.151574803150E-1,-3.907480314961E-1,
-4.842519685039E-1));
#509=VERTEX_POINT('',#508);
#510=CARTESIAN_POINT('',(1.639763779529E-1,-3.907480314963E-1,
-4.330708661417E-1));
#511=VERTEX_POINT('',#510);
#512=CARTESIAN_POINT('',(1.620078740157E-1,-3.868110236220E-1,
-4.330708661417E-1));
#513=VERTEX_POINT('',#512);
#514=CARTESIAN_POINT('',(1.620078740157E-1,-3.868110236220E-1,
-4.133858267717E-1));
#515=VERTEX_POINT('',#514);
#516=CARTESIAN_POINT('',(1.639763779528E-1,-3.907480314961E-1,
-4.133858267717E-1));
#517=VERTEX_POINT('',#516);
#518=CARTESIAN_POINT('',(2.151574803150E-1,-3.907480314959E-1,
-3.622047244094E-1));
#519=VERTEX_POINT('',#518);
#520=CARTESIAN_POINT('',(2.151574803150E-1,-3.868110236220E-1,
-3.602362204725E-1));
#521=VERTEX_POINT('',#520);
#522=CARTESIAN_POINT('',(2.348425196850E-1,-3.868110236220E-1,
-3.602362204725E-1));
#523=VERTEX_POINT('',#522);
#524=CARTESIAN_POINT('',(2.348425196850E-1,-3.907480314961E-1,
-3.622047244095E-1));
#525=VERTEX_POINT('',#524);
#526=CARTESIAN_POINT('',(2.132676536439E-1,-4.183070866142E-1,
-3.759842519685E-1));
#527=VERTEX_POINT('',#526);
#528=CARTESIAN_POINT('',(1.777559055118E-1,-4.183070866142E-1,
-4.114960001006E-1));
#529=CARTESIAN_POINT('',(1.777559055118E-1,-4.183070866142E-1,
-4.349606928128E-1));
#530=VERTEX_POINT('',#528);
#531=VERTEX_POINT('',#529);
#532=CARTESIAN_POINT('',(2.132676536439E-1,-4.183070866142E-1,
-4.704724409449E-1));
#533=VERTEX_POINT('',#532);
#534=CARTESIAN_POINT('',(2.879921259842E-1,-4.183070866142E-1,
-4.330708661417E-1));
#535=DIRECTION('',(-1.E0,0.E0,0.E0));
#536=DIRECTION('',(0.E0,0.E0,1.E0));
#537=AXIS2_PLACEMENT_3D('',#534,#535,#536);
#538=PLANE('',#537);
#540=ORIENTED_EDGE('',*,*,#539,.F.);
#542=ORIENTED_EDGE('',*,*,#541,.F.);
#544=ORIENTED_EDGE('',*,*,#543,.F.);
#546=ORIENTED_EDGE('',*,*,#545,.F.);
#547=EDGE_LOOP('',(#540,#542,#544,#546));
#548=FACE_OUTER_BOUND('',#547,.F.);
#550=CARTESIAN_POINT('',(2.879921259842E-1,-4.183070866142E-1,
-4.133858267717E-1));
#551=DIRECTION('',(0.E0,0.E0,-1.E0));
#552=DIRECTION('',(-1.E0,0.E0,0.E0));
#553=AXIS2_PLACEMENT_3D('',#550,#551,#552);
#554=PLANE('',#553);
#556=ORIENTED_EDGE('',*,*,#555,.T.);
#558=ORIENTED_EDGE('',*,*,#557,.F.);
#559=ORIENTED_EDGE('',*,*,#539,.T.);
#561=ORIENTED_EDGE('',*,*,#560,.F.);
#562=EDGE_LOOP('',(#556,#558,#559,#561));
#563=FACE_OUTER_BOUND('',#562,.F.);
#565=CARTESIAN_POINT('',(2.860236220472E-1,-4.183070866142E-1,
-3.622047244095E-1));
#566=DIRECTION('',(0.E0,1.E0,0.E0));
#567=DIRECTION('',(0.E0,0.E0,1.E0));
#568=AXIS2_PLACEMENT_3D('',#565,#566,#567);
#569=CYLINDRICAL_SURFACE('',#568,5.118110236221E-2);
#571=ORIENTED_EDGE('',*,*,#570,.F.);
#573=ORIENTED_EDGE('',*,*,#572,.T.);
#574=ORIENTED_EDGE('',*,*,#555,.F.);
#576=ORIENTED_EDGE('',*,*,#575,.F.);
#578=ORIENTED_EDGE('',*,*,#577,.T.);
#580=ORIENTED_EDGE('',*,*,#579,.F.);
#581=EDGE_LOOP('',(#571,#573,#574,#576,#578,#580));
#582=FACE_OUTER_BOUND('',#581,.F.);
#584=CARTESIAN_POINT('',(2.348425196850E-1,-4.183070866142E-1,
-3.622047244095E-1));
#585=DIRECTION('',(-1.E0,0.E0,0.E0));
#586=DIRECTION('',(0.E0,0.E0,1.E0));
#587=AXIS2_PLACEMENT_3D('',#584,#585,#586);
#588=PLANE('',#587);
#590=ORIENTED_EDGE('',*,*,#589,.F.);
#592=ORIENTED_EDGE('',*,*,#591,.F.);
#593=ORIENTED_EDGE('',*,*,#570,.T.);
#595=ORIENTED_EDGE('',*,*,#594,.F.);
#596=EDGE_LOOP('',(#590,#592,#593,#595));
#597=FACE_OUTER_BOUND('',#596,.F.);
#599=CARTESIAN_POINT('',(2.348425196850E-1,-4.183070866142E-1,
-3.602362204725E-1));
#600=DIRECTION('',(0.E0,0.E0,-1.E0));
#601=DIRECTION('',(-1.E0,0.E0,0.E0));
#602=AXIS2_PLACEMENT_3D('',#599,#600,#601);
#603=PLANE('',#602);
#605=ORIENTED_EDGE('',*,*,#604,.F.);
#607=ORIENTED_EDGE('',*,*,#606,.F.);
#608=ORIENTED_EDGE('',*,*,#589,.T.);
#610=ORIENTED_EDGE('',*,*,#609,.F.);
#611=EDGE_LOOP('',(#605,#607,#608,#610));
#612=FACE_OUTER_BOUND('',#611,.F.);
#614=CARTESIAN_POINT('',(2.151574803150E-1,-4.183070866142E-1,
-3.602362204725E-1));
#615=DIRECTION('',(1.E0,0.E0,0.E0));
#616=DIRECTION('',(0.E0,0.E0,-1.E0));
#617=AXIS2_PLACEMENT_3D('',#614,#615,#616);
#618=PLANE('',#617);
#620=ORIENTED_EDGE('',*,*,#619,.T.);
#622=ORIENTED_EDGE('',*,*,#621,.F.);
#623=ORIENTED_EDGE('',*,*,#604,.T.);
#625=ORIENTED_EDGE('',*,*,#624,.F.);
#626=EDGE_LOOP('',(#620,#622,#623,#625));
#627=FACE_OUTER_BOUND('',#626,.F.);
#629=CARTESIAN_POINT('',(1.639763779528E-1,-4.183070866142E-1,
-3.622047244095E-1));
#630=DIRECTION('',(0.E0,1.E0,0.E0));
#631=DIRECTION('',(0.E0,0.E0,1.E0));
#632=AXIS2_PLACEMENT_3D('',#629,#630,#631);
#633=CYLINDRICAL_SURFACE('',#632,5.118110236219E-2);
#635=ORIENTED_EDGE('',*,*,#634,.F.);
#637=ORIENTED_EDGE('',*,*,#636,.T.);
#638=ORIENTED_EDGE('',*,*,#619,.F.);
#640=ORIENTED_EDGE('',*,*,#639,.F.);
#642=ORIENTED_EDGE('',*,*,#641,.T.);
#644=ORIENTED_EDGE('',*,*,#643,.F.);
#645=EDGE_LOOP('',(#635,#637,#638,#640,#642,#644));
#646=FACE_OUTER_BOUND('',#645,.F.);
#648=CARTESIAN_POINT('',(1.639763779528E-1,-4.183070866142E-1,
-4.133858267717E-1));
#649=DIRECTION('',(0.E0,0.E0,-1.E0));
#650=DIRECTION('',(-1.E0,0.E0,0.E0));
#651=AXIS2_PLACEMENT_3D('',#648,#649,#650);
#652=PLANE('',#651);
#654=ORIENTED_EDGE('',*,*,#653,.F.);
#656=ORIENTED_EDGE('',*,*,#655,.F.);
#657=ORIENTED_EDGE('',*,*,#634,.T.);
#659=ORIENTED_EDGE('',*,*,#658,.F.);
#660=EDGE_LOOP('',(#654,#656,#657,#659));
#661=FACE_OUTER_BOUND('',#660,.F.);
#663=CARTESIAN_POINT('',(1.620078740157E-1,-4.183070866142E-1,
-4.133858267717E-1));
#664=DIRECTION('',(1.E0,0.E0,0.E0));
#665=DIRECTION('',(0.E0,0.E0,-1.E0));
#666=AXIS2_PLACEMENT_3D('',#663,#664,#665);
#667=PLANE('',#666);
#669=ORIENTED_EDGE('',*,*,#668,.F.);
#671=ORIENTED_EDGE('',*,*,#670,.F.);
#672=ORIENTED_EDGE('',*,*,#653,.T.);
#674=ORIENTED_EDGE('',*,*,#673,.F.);
#675=EDGE_LOOP('',(#669,#671,#672,#674));
#676=FACE_OUTER_BOUND('',#675,.F.);
#678=CARTESIAN_POINT('',(1.620078740157E-1,-4.183070866142E-1,
-4.330708661417E-1));
#679=DIRECTION('',(0.E0,0.E0,1.E0));
#680=DIRECTION('',(1.E0,0.E0,0.E0));
#681=AXIS2_PLACEMENT_3D('',#678,#679,#680);
#682=PLANE('',#681);
#684=ORIENTED_EDGE('',*,*,#683,.T.);
#686=ORIENTED_EDGE('',*,*,#685,.F.);
#687=ORIENTED_EDGE('',*,*,#668,.T.);
#689=ORIENTED_EDGE('',*,*,#688,.F.);
#690=EDGE_LOOP('',(#684,#686,#687,#689));
#691=FACE_OUTER_BOUND('',#690,.F.);
#693=CARTESIAN_POINT('',(1.639763779527E-1,-4.183070866142E-1,
-4.842519685039E-1));
#694=DIRECTION('',(0.E0,1.E0,0.E0));
#695=DIRECTION('',(0.E0,0.E0,1.E0));
#696=AXIS2_PLACEMENT_3D('',#693,#694,#695);
#697=CYLINDRICAL_SURFACE('',#696,5.118110236221E-2);
#699=ORIENTED_EDGE('',*,*,#698,.F.);
#701=ORIENTED_EDGE('',*,*,#700,.T.);
#702=ORIENTED_EDGE('',*,*,#683,.F.);
#704=ORIENTED_EDGE('',*,*,#703,.F.);
#706=ORIENTED_EDGE('',*,*,#705,.T.);
#708=ORIENTED_EDGE('',*,*,#707,.F.);
#709=EDGE_LOOP('',(#699,#701,#702,#704,#706,#708));
#710=FACE_OUTER_BOUND('',#709,.F.);
#712=CARTESIAN_POINT('',(2.151574803150E-1,-4.183070866142E-1,
-4.842519685039E-1));
#713=DIRECTION('',(1.E0,0.E0,0.E0));
#714=DIRECTION('',(0.E0,0.E0,-1.E0));
#715=AXIS2_PLACEMENT_3D('',#712,#713,#714);
#716=PLANE('',#715);
#718=ORIENTED_EDGE('',*,*,#717,.F.);
#720=ORIENTED_EDGE('',*,*,#719,.F.);
#721=ORIENTED_EDGE('',*,*,#698,.T.);
#723=ORIENTED_EDGE('',*,*,#722,.F.);
#724=EDGE_LOOP('',(#718,#720,#721,#723));
#725=FACE_OUTER_BOUND('',#724,.F.);
#727=CARTESIAN_POINT('',(2.151574803150E-1,-4.183070866142E-1,
-4.862204724409E-1));
#728=DIRECTION('',(0.E0,0.E0,1.E0));
#729=DIRECTION('',(1.E0,0.E0,0.E0));
#730=AXIS2_PLACEMENT_3D('',#727,#728,#729);
#731=PLANE('',#730);
#733=ORIENTED_EDGE('',*,*,#732,.F.);
#735=ORIENTED_EDGE('',*,*,#734,.F.);
#736=ORIENTED_EDGE('',*,*,#717,.T.);
#738=ORIENTED_EDGE('',*,*,#737,.F.);
#739=EDGE_LOOP('',(#733,#735,#736,#738));
#740=FACE_OUTER_BOUND('',#739,.F.);
#742=CARTESIAN_POINT('',(2.348425196850E-1,-4.183070866142E-1,
-4.862204724409E-1));
#743=DIRECTION('',(-1.E0,0.E0,0.E0));
#744=DIRECTION('',(0.E0,0.E0,1.E0));
#745=AXIS2_PLACEMENT_3D('',#742,#743,#744);
#746=PLANE('',#745);
#748=ORIENTED_EDGE('',*,*,#747,.T.);
#750=ORIENTED_EDGE('',*,*,#749,.F.);
#751=ORIENTED_EDGE('',*,*,#732,.T.);
#753=ORIENTED_EDGE('',*,*,#752,.F.);
#754=EDGE_LOOP('',(#748,#750,#751,#753));
#755=FACE_OUTER_BOUND('',#754,.F.);
#757=CARTESIAN_POINT('',(2.860236220472E-1,-4.183070866142E-1,
-4.842519685039E-1));
#758=DIRECTION('',(0.E0,1.E0,0.E0));
#759=DIRECTION('',(0.E0,0.E0,1.E0));
#760=AXIS2_PLACEMENT_3D('',#757,#758,#759);
#761=CYLINDRICAL_SURFACE('',#760,5.118110236220E-2);
#763=ORIENTED_EDGE('',*,*,#762,.T.);
#765=ORIENTED_EDGE('',*,*,#764,.F.);
#767=ORIENTED_EDGE('',*,*,#766,.F.);
#769=ORIENTED_EDGE('',*,*,#768,.T.);
#770=ORIENTED_EDGE('',*,*,#747,.F.);
#772=ORIENTED_EDGE('',*,*,#771,.F.);
#773=EDGE_LOOP('',(#763,#765,#767,#769,#770,#772));
#774=FACE_OUTER_BOUND('',#773,.F.);
#776=CARTESIAN_POINT('',(2.860236220472E-1,-4.183070866142E-1,
-3.622047244095E-1));
#777=DIRECTION('',(0.E0,-1.E0,0.E0));
#778=DIRECTION('',(0.E0,0.E0,-1.E0));
#779=AXIS2_PLACEMENT_3D('',#776,#777,#778);
#780=PLANE('',#779);
#781=ORIENTED_EDGE('',*,*,#705,.F.);
#783=ORIENTED_EDGE('',*,*,#782,.F.);
#784=ORIENTED_EDGE('',*,*,#641,.F.);
#786=ORIENTED_EDGE('',*,*,#785,.F.);
#787=ORIENTED_EDGE('',*,*,#577,.F.);
#789=ORIENTED_EDGE('',*,*,#788,.F.);
#790=ORIENTED_EDGE('',*,*,#762,.F.);
#792=ORIENTED_EDGE('',*,*,#791,.F.);
#793=EDGE_LOOP('',(#781,#783,#784,#786,#787,#789,#790,#792));
#794=FACE_OUTER_BOUND('',#793,.F.);
#796=CARTESIAN_POINT('',(1.777559055118E-1,-4.183070866142E-1,
-3.622047244095E-1));
#797=DIRECTION('',(-8.944271909999E-1,-4.472135955E-1,0.E0));
#798=DIRECTION('',(0.E0,0.E0,1.E0));
#799=AXIS2_PLACEMENT_3D('',#796,#797,#798);
#800=PLANE('',#799);
#801=ORIENTED_EDGE('',*,*,#658,.T.);
#802=ORIENTED_EDGE('',*,*,#643,.T.);
#803=ORIENTED_EDGE('',*,*,#782,.T.);
#804=ORIENTED_EDGE('',*,*,#703,.T.);
#805=ORIENTED_EDGE('',*,*,#688,.T.);
#806=ORIENTED_EDGE('',*,*,#673,.T.);
#807=EDGE_LOOP('',(#801,#802,#803,#804,#805,#806));
#808=FACE_OUTER_BOUND('',#807,.F.);
#810=CARTESIAN_POINT('',(2.860236220472E-1,-4.183070866142E-1,
-3.759842519685E-1));
#811=DIRECTION('',(0.E0,-4.472135955E-1,8.944271909999E-1));
#812=DIRECTION('',(1.E0,0.E0,0.E0));
#813=AXIS2_PLACEMENT_3D('',#810,#811,#812);
#814=PLANE('',#813);
#815=ORIENTED_EDGE('',*,*,#594,.T.);
#816=ORIENTED_EDGE('',*,*,#579,.T.);
#817=ORIENTED_EDGE('',*,*,#785,.T.);
#818=ORIENTED_EDGE('',*,*,#639,.T.);
#819=ORIENTED_EDGE('',*,*,#624,.T.);
#820=ORIENTED_EDGE('',*,*,#609,.T.);
#821=EDGE_LOOP('',(#815,#816,#817,#818,#819,#820));
#822=FACE_OUTER_BOUND('',#821,.F.);
#824=CARTESIAN_POINT('',(2.722440944882E-1,-4.183070866142E-1,
-3.622047244095E-1));
#825=DIRECTION('',(8.944271909999E-1,-4.472135955E-1,0.E0));
#826=DIRECTION('',(0.E0,0.E0,-1.E0));
#827=AXIS2_PLACEMENT_3D('',#824,#825,#826);
#828=PLANE('',#827);
#830=ORIENTED_EDGE('',*,*,#829,.T.);
#831=ORIENTED_EDGE('',*,*,#764,.T.);
#832=ORIENTED_EDGE('',*,*,#788,.T.);
#833=ORIENTED_EDGE('',*,*,#575,.T.);
#834=ORIENTED_EDGE('',*,*,#560,.T.);
#835=ORIENTED_EDGE('',*,*,#545,.T.);
#836=EDGE_LOOP('',(#830,#831,#832,#833,#834,#835));
#837=FACE_OUTER_BOUND('',#836,.F.);
#839=CARTESIAN_POINT('',(2.860236220472E-1,-4.183070866142E-1,
-4.330708661417E-1));
#840=DIRECTION('',(0.E0,0.E0,1.E0));
#841=DIRECTION('',(1.E0,0.E0,0.E0));
#842=AXIS2_PLACEMENT_3D('',#839,#840,#841);
#843=PLANE('',#842);
#844=ORIENTED_EDGE('',*,*,#543,.T.);
#846=ORIENTED_EDGE('',*,*,#845,.F.);
#847=ORIENTED_EDGE('',*,*,#766,.T.);
#848=ORIENTED_EDGE('',*,*,#829,.F.);
#849=EDGE_LOOP('',(#844,#846,#847,#848));
#850=FACE_OUTER_BOUND('',#849,.F.);
#852=CARTESIAN_POINT('',(2.860236220472E-1,-2.588582677165E-1,
-3.622047244095E-1));
#853=DIRECTION('',(0.E0,-1.E0,0.E0));
#854=DIRECTION('',(0.E0,0.E0,-1.E0));
#855=AXIS2_PLACEMENT_3D('',#852,#853,#854);
#856=PLANE('',#855);
#857=ORIENTED_EDGE('',*,*,#541,.T.);
#858=ORIENTED_EDGE('',*,*,#557,.T.);
#859=ORIENTED_EDGE('',*,*,#572,.F.);
#860=ORIENTED_EDGE('',*,*,#591,.T.);
#861=ORIENTED_EDGE('',*,*,#606,.T.);
#862=ORIENTED_EDGE('',*,*,#621,.T.);
#863=ORIENTED_EDGE('',*,*,#636,.F.);
#864=ORIENTED_EDGE('',*,*,#655,.T.);
#865=ORIENTED_EDGE('',*,*,#670,.T.);
#866=ORIENTED_EDGE('',*,*,#685,.T.);
#867=ORIENTED_EDGE('',*,*,#700,.F.);
#868=ORIENTED_EDGE('',*,*,#719,.T.);
#869=ORIENTED_EDGE('',*,*,#734,.T.);
#870=ORIENTED_EDGE('',*,*,#749,.T.);
#871=ORIENTED_EDGE('',*,*,#768,.F.);
#872=ORIENTED_EDGE('',*,*,#845,.T.);
#873=EDGE_LOOP('',(#857,#858,#859,#860,#861,#862,#863,#864,#865,#866,#867,#868,
#869,#870,#871,#872));
#874=FACE_OUTER_BOUND('',#873,.F.);
#876=CARTESIAN_POINT('',(2.860236220472E-1,-4.183070866142E-1,
-4.704724409449E-1));
#877=DIRECTION('',(0.E0,-4.472135955E-1,-8.944271909999E-1));
#878=DIRECTION('',(-1.E0,0.E0,0.E0));
#879=AXIS2_PLACEMENT_3D('',#876,#877,#878);
#880=PLANE('',#879);
#881=ORIENTED_EDGE('',*,*,#722,.T.);
#882=ORIENTED_EDGE('',*,*,#707,.T.);
#883=ORIENTED_EDGE('',*,*,#791,.T.);
#884=ORIENTED_EDGE('',*,*,#771,.T.);
#885=ORIENTED_EDGE('',*,*,#752,.T.);
#886=ORIENTED_EDGE('',*,*,#737,.T.);
#887=EDGE_LOOP('',(#881,#882,#883,#884,#885,#886));
#888=FACE_OUTER_BOUND('',#887,.F.);
#892=FILL_AREA_STYLE_COLOUR('',#11);
#893=FILL_AREA_STYLE('',(#892));
#894=SURFACE_STYLE_FILL_AREA(#893);
#895=SURFACE_SIDE_STYLE('',(#894));
#896=SURFACE_STYLE_USAGE(.BOTH.,#895);
#897=PRESENTATION_STYLE_ASSIGNMENT((#896));
#16=STYLED_ITEM('',(#897),#891);
#898=PRESENTATION_LAYER_ASSIGNMENT('SHELL_826','',(#16,#549,#564,#583,#598,#613,
#628,#647,#662,#677,#692,#711,#726,#741,#756,#775,#795,#809,#823,#838,#851,#875,
#889));
#900=LENGTH_MEASURE_WITH_UNIT(LENGTH_MEASURE(2.54E1),#899);
#901=(CONVERSION_BASED_UNIT('INCH',#900)LENGTH_UNIT()NAMED_UNIT(*));
#903=PLANE_ANGLE_MEASURE_WITH_UNIT(PLANE_ANGLE_MEASURE(1.745329251994E-2),#902);
#904=(CONVERSION_BASED_UNIT('DEGREE',#903)NAMED_UNIT(*)PLANE_ANGLE_UNIT());
#906=UNCERTAINTY_MEASURE_WITH_UNIT(LENGTH_MEASURE(2.390887199102E-5),#901,
'closure',
'Maximum model space distance between geometric entities at asserted connectivities');
#908=CARTESIAN_POINT('',(0.E0,0.E0,0.E0));
#909=DIRECTION('',(0.E0,0.E0,1.E0));
#910=DIRECTION('',(1.E0,0.E0,0.E0));
#913=MECHANICAL_DESIGN_GEOMETRIC_PRESENTATION_REPRESENTATION('',(#24,#31,#38,
#45,#52,#59,#66,#73,#81,#89,#96,#103,#110,#117,#124,#131,#138,#145,#152,#159,
#167,#175,#182,#189,#196,#203,#210,#217,#224,#231,#238,#245,#253,#261,#268,#275,
#282,#289,#296,#303,#310,#317,#325,#332,#339,#347,#355,#362,#370,#377,#385,#392,
#400,#407,#414,#421,#429,#437,#445,#453,#16),#907);
#914=APPLICATION_CONTEXT('automotive design');
#915=APPLICATION_PROTOCOL_DEFINITION('international standard',
'config_control_design',1994,#914);
#916=PRODUCT_DEFINITION_CONTEXT('',#914,'design');
#917=PRODUCT_CONTEXT('',#914,'mechanical');
#918=PRODUCT('SFAZOWANIE2','SFAZOWANIE2','NOT SPECIFIED',(#917));
#919=PRODUCT_DEFINITION_FORMATION_WITH_SPECIFIED_SOURCE('1','LAST_VERSION',#918,
.MADE.);
#927=LENGTH_MEASURE_WITH_UNIT(LENGTH_MEASURE(2.54E1),#926);
#928=(CONVERSION_BASED_UNIT('INCH',#927)LENGTH_UNIT()NAMED_UNIT(*));
#929=DERIVED_UNIT_ELEMENT(#928,2.E0);
#930=AREA_UNIT((#929));
#931=MEASURE_REPRESENTATION_ITEM('surface area measure',AREA_MEASURE(
4.976016109636E1),#930);
#936=LENGTH_MEASURE_WITH_UNIT(LENGTH_MEASURE(2.54E1),#935);
#937=(CONVERSION_BASED_UNIT('INCH',#936)LENGTH_UNIT()NAMED_UNIT(*));
#938=DERIVED_UNIT_ELEMENT(#937,3.E0);
#939=VOLUME_UNIT((#938));
#940=MEASURE_REPRESENTATION_ITEM('volume measure',VOLUME_MEASURE(
1.749511641492E1),#939);
#944=CARTESIAN_POINT('centre point',(5.715E0,-8.567002955448E0,-1.075E1));
#949=LENGTH_MEASURE_WITH_UNIT(LENGTH_MEASURE(2.54E1),#948);
#950=(CONVERSION_BASED_UNIT('INCH',#949)LENGTH_UNIT()NAMED_UNIT(*));
#951=DERIVED_UNIT_ELEMENT(#950,2.E0);
#952=AREA_UNIT((#951));
#953=MEASURE_REPRESENTATION_ITEM('surface area measure',AREA_MEASURE(
4.976016109636E1),#952);
#958=LENGTH_MEASURE_WITH_UNIT(LENGTH_MEASURE(2.54E1),#957);
#959=(CONVERSION_BASED_UNIT('INCH',#958)LENGTH_UNIT()NAMED_UNIT(*));
#960=DERIVED_UNIT_ELEMENT(#959,3.E0);
#961=VOLUME_UNIT((#960));
#962=MEASURE_REPRESENTATION_ITEM('volume measure',VOLUME_MEASURE(
1.749511641492E1),#961);
#966=CARTESIAN_POINT('centre point',(5.715E0,-8.567002955448E0,-1.075E1));
#1=DRAUGHTING_PRE_DEFINED_COLOUR('green');
#2=COLOUR_RGB('',1.1E-2,1.2E-2,1.E0);
#3=COLOUR_RGB('',2.352941176471E-1,2.352941176471E-1,2.352941176471E-1);
#4=COLOUR_RGB('',4.1E-1,2.61589E-1,1.12848E-1);
#5=COLOUR_RGB('',5.04854E-1,1.5455E-2,1.5455E-2);
#6=COLOUR_RGB('',6.35294E-1,6.86275E-1,7.4902E-1);
#7=COLOUR_RGB('',6.40777E-1,6.40777E-1,6.40777E-1);
#8=COLOUR_RGB('',6.69062E-1,6.69903E-1,6.55217E-1);
#9=COLOUR_RGB('',9.21569E-1,7.05882E-1,4.70588E-1);
#10=DRAUGHTING_PRE_DEFINED_COLOUR('red');
#11=COLOUR_RGB('',1.E0,0.E0,5.019607843137E-1);
#12=DRAUGHTING_PRE_DEFINED_COLOUR('yellow');
#13=COLOUR_RGB('',1.E0,1.E0,5.3E-1);
#14=COLOUR_RGB('',1.E0,1.E0,9.49E-1);
#15=DRAUGHTING_PRE_DEFINED_COLOUR('white');
#78=B_SPLINE_CURVE_WITH_KNOTS('',3,(#74,#75,#76,#77),.UNSPECIFIED.,.F.,.F.,(4,
4),(0.E0,1.E0),.UNSPECIFIED.);
#86=B_SPLINE_CURVE_WITH_KNOTS('',3,(#82,#83,#84,#85),.UNSPECIFIED.,.F.,.F.,(4,
4),(0.E0,1.E0),.UNSPECIFIED.);
#164=B_SPLINE_CURVE_WITH_KNOTS('',3,(#160,#161,#162,#163),.UNSPECIFIED.,.F.,.F.,
(4,4),(0.E0,1.E0),.UNSPECIFIED.);
#172=B_SPLINE_CURVE_WITH_KNOTS('',3,(#168,#169,#170,#171),.UNSPECIFIED.,.F.,.F.,
(4,4),(0.E0,1.E0),.UNSPECIFIED.);
#250=B_SPLINE_CURVE_WITH_KNOTS('',3,(#246,#247,#248,#249),.UNSPECIFIED.,.F.,.F.,
(4,4),(0.E0,1.E0),.UNSPECIFIED.);
#258=B_SPLINE_CURVE_WITH_KNOTS('',3,(#254,#255,#256,#257),.UNSPECIFIED.,.F.,.F.,
(4,4),(0.E0,1.E0),.UNSPECIFIED.);
#322=B_SPLINE_CURVE_WITH_KNOTS('',3,(#318,#319,#320,#321),.UNSPECIFIED.,.F.,.F.,
(4,4),(0.E0,1.E0),.UNSPECIFIED.);
#344=B_SPLINE_CURVE_WITH_KNOTS('',3,(#340,#341,#342,#343),.UNSPECIFIED.,.F.,.F.,
(4,4),(0.E0,1.E0),.UNSPECIFIED.);
#352=CIRCLE('',#351,5.118110236221E-2);
#367=CIRCLE('',#366,5.118110236219E-2);
#382=CIRCLE('',#381,5.118110236221E-2);
#397=CIRCLE('',#396,5.118110236220E-2);
#426=CIRCLE('',#425,5.118110236221E-2);
#434=CIRCLE('',#433,5.118110236219E-2);
#442=CIRCLE('',#441,5.118110236221E-2);
#450=CIRCLE('',#449,5.118110236220E-2);
#539=EDGE_CURVE('',#463,#459,#20,.T.);
#541=EDGE_CURVE('',#471,#463,#28,.T.);
#543=EDGE_CURVE('',#456,#471,#35,.T.);
#545=EDGE_CURVE('',#459,#456,#42,.T.);
#549=ADVANCED_FACE('',(#548),#538,.F.);
#555=EDGE_CURVE('',#461,#465,#70,.T.);
#557=EDGE_CURVE('',#463,#465,#49,.T.);
#560=EDGE_CURVE('',#461,#459,#56,.T.);
#564=ADVANCED_FACE('',(#563),#554,.F.);
#570=EDGE_CURVE('',#473,#525,#63,.T.);
#572=EDGE_CURVE('',#473,#465,#426,.T.);
#575=EDGE_CURVE('',#469,#461,#78,.T.);
#577=EDGE_CURVE('',#469,#501,#382,.T.);
#579=EDGE_CURVE('',#525,#501,#86,.T.);
#583=ADVANCED_FACE('',(#582),#569,.F.);
#589=EDGE_CURVE('',#477,#523,#93,.T.);
#591=EDGE_CURVE('',#473,#477,#100,.T.);
#594=EDGE_CURVE('',#523,#525,#107,.T.);
#598=ADVANCED_FACE('',(#597),#588,.F.);
#604=EDGE_CURVE('',#479,#521,#114,.T.);
#606=EDGE_CURVE('',#477,#479,#121,.T.);
#609=EDGE_CURVE('',#521,#523,#128,.T.);
#613=ADVANCED_FACE('',(#612),#603,.F.);
#619=EDGE_CURVE('',#519,#481,#156,.T.);
#621=EDGE_CURVE('',#479,#481,#135,.T.);
#624=EDGE_CURVE('',#519,#521,#142,.T.);
#628=ADVANCED_FACE('',(#627),#618,.F.);
#634=EDGE_CURVE('',#483,#517,#149,.T.);
#636=EDGE_CURVE('',#483,#481,#434,.T.);
#639=EDGE_CURVE('',#527,#519,#164,.T.);
#641=EDGE_CURVE('',#527,#530,#367,.T.);
#643=EDGE_CURVE('',#517,#530,#172,.T.);
#647=ADVANCED_FACE('',(#646),#633,.F.);
#653=EDGE_CURVE('',#485,#515,#179,.T.);
#655=EDGE_CURVE('',#483,#485,#186,.T.);
#658=EDGE_CURVE('',#515,#517,#193,.T.);
#662=ADVANCED_FACE('',(#661),#652,.F.);
#668=EDGE_CURVE('',#487,#513,#200,.T.);
#670=EDGE_CURVE('',#485,#487,#207,.T.);
#673=EDGE_CURVE('',#513,#515,#214,.T.);
#677=ADVANCED_FACE('',(#676),#667,.F.);
#683=EDGE_CURVE('',#511,#489,#242,.T.);
#685=EDGE_CURVE('',#487,#489,#221,.T.);
#688=EDGE_CURVE('',#511,#513,#228,.T.);
#692=ADVANCED_FACE('',(#691),#682,.F.);
#698=EDGE_CURVE('',#491,#509,#235,.T.);
#700=EDGE_CURVE('',#491,#489,#442,.T.);
#703=EDGE_CURVE('',#531,#511,#250,.T.);
#705=EDGE_CURVE('',#531,#533,#352,.T.);
#707=EDGE_CURVE('',#509,#533,#258,.T.);
#711=ADVANCED_FACE('',(#710),#697,.F.);
#717=EDGE_CURVE('',#493,#507,#265,.T.);
#719=EDGE_CURVE('',#491,#493,#272,.T.);
#722=EDGE_CURVE('',#507,#509,#279,.T.);
#726=ADVANCED_FACE('',(#725),#716,.F.);
#732=EDGE_CURVE('',#495,#505,#286,.T.);
#734=EDGE_CURVE('',#493,#495,#293,.T.);
#737=EDGE_CURVE('',#505,#507,#300,.T.);
#741=ADVANCED_FACE('',(#740),#731,.F.);
#747=EDGE_CURVE('',#503,#497,#336,.T.);
#749=EDGE_CURVE('',#495,#497,#307,.T.);
#752=EDGE_CURVE('',#503,#505,#314,.T.);
#756=ADVANCED_FACE('',(#755),#746,.F.);
#762=EDGE_CURVE('',#475,#468,#397,.T.);
#764=EDGE_CURVE('',#457,#468,#322,.T.);
#766=EDGE_CURVE('',#499,#457,#329,.T.);
#768=EDGE_CURVE('',#499,#497,#450,.T.);
#771=EDGE_CURVE('',#475,#503,#344,.T.);
#775=ADVANCED_FACE('',(#774),#761,.F.);
#782=EDGE_CURVE('',#530,#531,#359,.T.);
#785=EDGE_CURVE('',#501,#527,#374,.T.);
#788=EDGE_CURVE('',#468,#469,#389,.T.);
#791=EDGE_CURVE('',#533,#475,#404,.T.);
#795=ADVANCED_FACE('',(#794),#780,.T.);
#809=ADVANCED_FACE('',(#808),#800,.T.);
#823=ADVANCED_FACE('',(#822),#814,.T.);
#829=EDGE_CURVE('',#456,#457,#418,.T.);
#838=ADVANCED_FACE('',(#837),#828,.T.);
#845=EDGE_CURVE('',#499,#471,#411,.T.);
#851=ADVANCED_FACE('',(#850),#843,.F.);
#875=ADVANCED_FACE('',(#874),#856,.F.);
#889=ADVANCED_FACE('',(#888),#880,.T.);
#890=CLOSED_SHELL('',(#549,#564,#583,#598,#613,#628,#647,#662,#677,#692,#711,
#726,#741,#756,#775,#795,#809,#823,#838,#851,#875,#889));
#891=MANIFOLD_SOLID_BREP('',#890);
#899=(LENGTH_UNIT()NAMED_UNIT(*)SI_UNIT(.MILLI.,.METRE.));
#902=(NAMED_UNIT(*)PLANE_ANGLE_UNIT()SI_UNIT($,.RADIAN.));
#905=(NAMED_UNIT(*)SI_UNIT($,.STERADIAN.)SOLID_ANGLE_UNIT());
#907=(GEOMETRIC_REPRESENTATION_CONTEXT(3)GLOBAL_UNCERTAINTY_ASSIGNED_CONTEXT((
#906))GLOBAL_UNIT_ASSIGNED_CONTEXT((#901,#904,#905))REPRESENTATION_CONTEXT
('ID1','3'));
#911=AXIS2_PLACEMENT_3D('',#908,#909,#910);
#912=ADVANCED_BREP_SHAPE_REPRESENTATION('',(#911,#891),#907);
#920=PRODUCT_DEFINITION('design','',#919,#916);
#921=PRODUCT_DEFINITION_SHAPE('','SHAPE FOR SFAZOWANIE2.',#920);
#922=SHAPE_ASPECT('','solid data associated with SFAZOWANIE2',#921,.F.);
#923=PROPERTY_DEFINITION('',
'shape for solid data with which properties are associated',#922);
#924=SHAPE_REPRESENTATION('',(#891),#907);
#925=SHAPE_DEFINITION_REPRESENTATION(#923,#924);
#926=(LENGTH_UNIT()NAMED_UNIT(*)SI_UNIT(.MILLI.,.METRE.));
#932=PROPERTY_DEFINITION('geometric validation property','area of SFAZOWANIE2',
#922);
#933=REPRESENTATION('surface area',(#931),#907);
#934=PROPERTY_DEFINITION_REPRESENTATION(#932,#933);
#935=(LENGTH_UNIT()NAMED_UNIT(*)SI_UNIT(.MILLI.,.METRE.));
#941=PROPERTY_DEFINITION('geometric validation property',
'volume of SFAZOWANIE2',#922);
#942=REPRESENTATION('volume',(#940),#907);
#943=PROPERTY_DEFINITION_REPRESENTATION(#941,#942);
#945=PROPERTY_DEFINITION('geometric validation property',
'centroid of SFAZOWANIE2',#922);
#946=REPRESENTATION('centroid',(#944),#907);
#947=PROPERTY_DEFINITION_REPRESENTATION(#945,#946);
#948=(LENGTH_UNIT()NAMED_UNIT(*)SI_UNIT(.MILLI.,.METRE.));
#954=PROPERTY_DEFINITION('geometric validation property','area of SFAZOWANIE2',
#921);
#955=REPRESENTATION('surface area',(#953),#907);
#956=PROPERTY_DEFINITION_REPRESENTATION(#954,#955);
#957=(LENGTH_UNIT()NAMED_UNIT(*)SI_UNIT(.MILLI.,.METRE.));
#963=PROPERTY_DEFINITION('geometric validation property',
'volume of SFAZOWANIE2',#921);
#964=REPRESENTATION('volume',(#962),#907);
#965=PROPERTY_DEFINITION_REPRESENTATION(#963,#964);
#967=PROPERTY_DEFINITION('geometric validation property',
'centroid of SFAZOWANIE2',#921);
#968=REPRESENTATION('centroid',(#966),#907);
#969=PROPERTY_DEFINITION_REPRESENTATION(#967,#968);
#970=SHAPE_DEFINITION_REPRESENTATION(#921,#912);
ENDSEC;
END-ISO-10303-21;
