ISO-10303-21;
HEADER;
FILE_DESCRIPTION((''),'2;1');
FILE_NAME('SHAFT-ADAPTER','2026-06-15T13:45:37',('Esia'),(''),
'CREO PARAMETRIC BY PTC INC, 2025102','CREO PARAMETRIC BY PTC INC, 2025102','');
FILE_SCHEMA((
'AP242_MANAGED_MODEL_BASED_3D_ENGINEERING_MIM_LF { 1 0 10303 442 1 1 4 }'));
ENDSEC;
DATA;
#16=CARTESIAN_POINT('',(0.E0,0.E0,-1.968503937008E-1));
#17=DIRECTION('',(0.E0,0.E0,1.E0));
#18=DIRECTION('',(1.E0,0.E0,0.E0));
#19=AXIS2_PLACEMENT_3D('',#16,#17,#18);
#21=DRAUGHTING_PRE_DEFINED_CURVE_FONT('continuous');
#22=CURVE_STYLE('',#21,POSITIVE_LENGTH_MEASURE(2.E-2),#3);
#23=PRESENTATION_STYLE_ASSIGNMENT((#22));
#24=STYLED_ITEM('',(#23),#20);
#25=CARTESIAN_POINT('',(0.E0,0.E0,-1.968503937008E-1));
#26=DIRECTION('',(0.E0,0.E0,1.E0));
#27=DIRECTION('',(-1.E0,0.E0,0.E0));
#28=AXIS2_PLACEMENT_3D('',#25,#26,#27);
#30=CURVE_STYLE('',#21,POSITIVE_LENGTH_MEASURE(2.E-2),#3);
#31=PRESENTATION_STYLE_ASSIGNMENT((#30));
#32=STYLED_ITEM('',(#31),#29);
#33=CARTESIAN_POINT('',(0.E0,0.E0,-1.968503937008E-1));
#34=DIRECTION('',(0.E0,0.E0,-1.E0));
#35=DIRECTION('',(1.E0,0.E0,0.E0));
#36=AXIS2_PLACEMENT_3D('',#33,#34,#35);
#38=CURVE_STYLE('',#21,POSITIVE_LENGTH_MEASURE(2.E-2),#3);
#39=PRESENTATION_STYLE_ASSIGNMENT((#38));
#40=STYLED_ITEM('',(#39),#37);
#41=CARTESIAN_POINT('',(0.E0,0.E0,-1.968503937008E-1));
#42=DIRECTION('',(0.E0,0.E0,-1.E0));
#43=DIRECTION('',(-1.E0,0.E0,0.E0));
#44=AXIS2_PLACEMENT_3D('',#41,#42,#43);
#46=CURVE_STYLE('',#21,POSITIVE_LENGTH_MEASURE(2.E-2),#3);
#47=PRESENTATION_STYLE_ASSIGNMENT((#46));
#48=STYLED_ITEM('',(#47),#45);
#49=CARTESIAN_POINT('',(-2.85E-1,0.E0,-1.968503937008E-1));
#50=DIRECTION('',(0.E0,0.E0,1.E0));
#51=DIRECTION('',(1.E0,0.E0,0.E0));
#52=AXIS2_PLACEMENT_3D('',#49,#50,#51);
#54=CURVE_STYLE('',#21,POSITIVE_LENGTH_MEASURE(2.E-2),#3);
#55=PRESENTATION_STYLE_ASSIGNMENT((#54));
#56=STYLED_ITEM('',(#55),#53);
#57=CARTESIAN_POINT('',(-2.85E-1,0.E0,-1.968503937008E-1));
#58=DIRECTION('',(0.E0,0.E0,1.E0));
#59=DIRECTION('',(-1.E0,0.E0,0.E0));
#60=AXIS2_PLACEMENT_3D('',#57,#58,#59);
#62=CURVE_STYLE('',#21,POSITIVE_LENGTH_MEASURE(2.E-2),#3);
#63=PRESENTATION_STYLE_ASSIGNMENT((#62));
#64=STYLED_ITEM('',(#63),#61);
#65=CARTESIAN_POINT('',(0.E0,-2.85E-1,-1.968503937008E-1));
#66=DIRECTION('',(0.E0,0.E0,1.E0));
#67=DIRECTION('',(1.E0,0.E0,0.E0));
#68=AXIS2_PLACEMENT_3D('',#65,#66,#67);
#70=CURVE_STYLE('',#21,POSITIVE_LENGTH_MEASURE(2.E-2),#3);
#71=PRESENTATION_STYLE_ASSIGNMENT((#70));
#72=STYLED_ITEM('',(#71),#69);
#73=CARTESIAN_POINT('',(0.E0,-2.85E-1,-1.968503937008E-1));
#74=DIRECTION('',(0.E0,0.E0,1.E0));
#75=DIRECTION('',(-1.E0,0.E0,0.E0));
#76=AXIS2_PLACEMENT_3D('',#73,#74,#75);
#78=CURVE_STYLE('',#21,POSITIVE_LENGTH_MEASURE(2.E-2),#3);
#79=PRESENTATION_STYLE_ASSIGNMENT((#78));
#80=STYLED_ITEM('',(#79),#77);
#81=CARTESIAN_POINT('',(0.E0,2.85E-1,-1.968503937008E-1));
#82=DIRECTION('',(0.E0,0.E0,1.E0));
#83=DIRECTION('',(1.E0,0.E0,0.E0));
#84=AXIS2_PLACEMENT_3D('',#81,#82,#83);
#86=CURVE_STYLE('',#21,POSITIVE_LENGTH_MEASURE(2.E-2),#3);
#87=PRESENTATION_STYLE_ASSIGNMENT((#86));
#88=STYLED_ITEM('',(#87),#85);
#89=CARTESIAN_POINT('',(0.E0,2.85E-1,-1.968503937008E-1));
#90=DIRECTION('',(0.E0,0.E0,1.E0));
#91=DIRECTION('',(-1.E0,0.E0,0.E0));
#92=AXIS2_PLACEMENT_3D('',#89,#90,#91);
#94=CURVE_STYLE('',#21,POSITIVE_LENGTH_MEASURE(2.E-2),#3);
#95=PRESENTATION_STYLE_ASSIGNMENT((#94));
#96=STYLED_ITEM('',(#95),#93);
#97=CARTESIAN_POINT('',(2.85E-1,0.E0,-1.968503937008E-1));
#98=DIRECTION('',(0.E0,0.E0,1.E0));
#99=DIRECTION('',(1.E0,0.E0,0.E0));
#100=AXIS2_PLACEMENT_3D('',#97,#98,#99);
#102=CURVE_STYLE('',#21,POSITIVE_LENGTH_MEASURE(2.E-2),#3);
#103=PRESENTATION_STYLE_ASSIGNMENT((#102));
#104=STYLED_ITEM('',(#103),#101);
#105=CARTESIAN_POINT('',(2.85E-1,0.E0,-1.968503937008E-1));
#106=DIRECTION('',(0.E0,0.E0,1.E0));
#107=DIRECTION('',(-1.E0,0.E0,0.E0));
#108=AXIS2_PLACEMENT_3D('',#105,#106,#107);
#110=CURVE_STYLE('',#21,POSITIVE_LENGTH_MEASURE(2.E-2),#3);
#111=PRESENTATION_STYLE_ASSIGNMENT((#110));
#112=STYLED_ITEM('',(#111),#109);
#113=DIRECTION('',(0.E0,0.E0,1.E0));
#114=VECTOR('',#113,3.937007874016E-1);
#115=CARTESIAN_POINT('',(4.724409448819E-1,0.E0,-1.968503937008E-1));
#116=LINE('',#115,#114);
#117=CURVE_STYLE('',#21,POSITIVE_LENGTH_MEASURE(2.E-2),#3);
#118=PRESENTATION_STYLE_ASSIGNMENT((#117));
#119=STYLED_ITEM('',(#118),#116);
#120=DIRECTION('',(0.E0,0.E0,1.E0));
#121=VECTOR('',#120,3.937007874016E-1);
#122=CARTESIAN_POINT('',(-4.724409448819E-1,0.E0,-1.968503937008E-1));
#123=LINE('',#122,#121);
#124=CURVE_STYLE('',#21,POSITIVE_LENGTH_MEASURE(2.E-2),#3);
#125=PRESENTATION_STYLE_ASSIGNMENT((#124));
#126=STYLED_ITEM('',(#125),#123);
#127=CARTESIAN_POINT('',(0.E0,0.E0,1.968503937008E-1));
#128=DIRECTION('',(0.E0,0.E0,1.E0));
#129=DIRECTION('',(1.E0,0.E0,0.E0));
#130=AXIS2_PLACEMENT_3D('',#127,#128,#129);
#132=CURVE_STYLE('',#21,POSITIVE_LENGTH_MEASURE(2.E-2),#3);
#133=PRESENTATION_STYLE_ASSIGNMENT((#132));
#134=STYLED_ITEM('',(#133),#131);
#135=CARTESIAN_POINT('',(0.E0,0.E0,1.968503937008E-1));
#136=DIRECTION('',(0.E0,0.E0,1.E0));
#137=DIRECTION('',(-1.E0,0.E0,0.E0));
#138=AXIS2_PLACEMENT_3D('',#135,#136,#137);
#140=CURVE_STYLE('',#21,POSITIVE_LENGTH_MEASURE(2.E-2),#3);
#141=PRESENTATION_STYLE_ASSIGNMENT((#140));
#142=STYLED_ITEM('',(#141),#139);
#143=CARTESIAN_POINT('',(0.E0,2.85E-1,1.968503937008E-1));
#144=DIRECTION('',(0.E0,0.E0,-1.E0));
#145=DIRECTION('',(1.E0,0.E0,0.E0));
#146=AXIS2_PLACEMENT_3D('',#143,#144,#145);
#148=CURVE_STYLE('',#21,POSITIVE_LENGTH_MEASURE(2.E-2),#3);
#149=PRESENTATION_STYLE_ASSIGNMENT((#148));
#150=STYLED_ITEM('',(#149),#147);
#151=CARTESIAN_POINT('',(0.E0,2.85E-1,1.968503937008E-1));
#152=DIRECTION('',(0.E0,0.E0,-1.E0));
#153=DIRECTION('',(-1.E0,0.E0,0.E0));
#154=AXIS2_PLACEMENT_3D('',#151,#152,#153);
#156=CURVE_STYLE('',#21,POSITIVE_LENGTH_MEASURE(2.E-2),#3);
#157=PRESENTATION_STYLE_ASSIGNMENT((#156));
#158=STYLED_ITEM('',(#157),#155);
#159=CARTESIAN_POINT('',(2.85E-1,0.E0,1.968503937008E-1));
#160=DIRECTION('',(0.E0,0.E0,-1.E0));
#161=DIRECTION('',(1.E0,0.E0,0.E0));
#162=AXIS2_PLACEMENT_3D('',#159,#160,#161);
#164=CURVE_STYLE('',#21,POSITIVE_LENGTH_MEASURE(2.E-2),#3);
#165=PRESENTATION_STYLE_ASSIGNMENT((#164));
#166=STYLED_ITEM('',(#165),#163);
#167=CARTESIAN_POINT('',(2.85E-1,0.E0,1.968503937008E-1));
#168=DIRECTION('',(0.E0,0.E0,-1.E0));
#169=DIRECTION('',(-1.E0,0.E0,0.E0));
#170=AXIS2_PLACEMENT_3D('',#167,#168,#169);
#172=CURVE_STYLE('',#21,POSITIVE_LENGTH_MEASURE(2.E-2),#3);
#173=PRESENTATION_STYLE_ASSIGNMENT((#172));
#174=STYLED_ITEM('',(#173),#171);
#175=CARTESIAN_POINT('',(0.E0,-2.85E-1,1.968503937008E-1));
#176=DIRECTION('',(0.E0,0.E0,-1.E0));
#177=DIRECTION('',(1.E0,0.E0,0.E0));
#178=AXIS2_PLACEMENT_3D('',#175,#176,#177);
#180=CURVE_STYLE('',#21,POSITIVE_LENGTH_MEASURE(2.E-2),#3);
#181=PRESENTATION_STYLE_ASSIGNMENT((#180));
#182=STYLED_ITEM('',(#181),#179);
#183=CARTESIAN_POINT('',(0.E0,-2.85E-1,1.968503937008E-1));
#184=DIRECTION('',(0.E0,0.E0,-1.E0));
#185=DIRECTION('',(-1.E0,0.E0,0.E0));
#186=AXIS2_PLACEMENT_3D('',#183,#184,#185);
#188=CURVE_STYLE('',#21,POSITIVE_LENGTH_MEASURE(2.E-2),#3);
#189=PRESENTATION_STYLE_ASSIGNMENT((#188));
#190=STYLED_ITEM('',(#189),#187);
#191=CARTESIAN_POINT('',(-2.85E-1,0.E0,1.968503937008E-1));
#192=DIRECTION('',(0.E0,0.E0,-1.E0));
#193=DIRECTION('',(1.E0,0.E0,0.E0));
#194=AXIS2_PLACEMENT_3D('',#191,#192,#193);
#196=CURVE_STYLE('',#21,POSITIVE_LENGTH_MEASURE(2.E-2),#3);
#197=PRESENTATION_STYLE_ASSIGNMENT((#196));
#198=STYLED_ITEM('',(#197),#195);
#199=CARTESIAN_POINT('',(-2.85E-1,0.E0,1.968503937008E-1));
#200=DIRECTION('',(0.E0,0.E0,-1.E0));
#201=DIRECTION('',(-1.E0,0.E0,0.E0));
#202=AXIS2_PLACEMENT_3D('',#199,#200,#201);
#204=CURVE_STYLE('',#21,POSITIVE_LENGTH_MEASURE(2.E-2),#3);
#205=PRESENTATION_STYLE_ASSIGNMENT((#204));
#206=STYLED_ITEM('',(#205),#203);
#207=CARTESIAN_POINT('',(0.E0,0.E0,1.968503937008E-1));
#208=DIRECTION('',(0.E0,0.E0,-1.E0));
#209=DIRECTION('',(1.E0,0.E0,0.E0));
#210=AXIS2_PLACEMENT_3D('',#207,#208,#209);
#212=CURVE_STYLE('',#21,POSITIVE_LENGTH_MEASURE(2.E-2),#3);
#213=PRESENTATION_STYLE_ASSIGNMENT((#212));
#214=STYLED_ITEM('',(#213),#211);
#215=CARTESIAN_POINT('',(0.E0,0.E0,1.968503937008E-1));
#216=DIRECTION('',(0.E0,0.E0,-1.E0));
#217=DIRECTION('',(-1.E0,0.E0,0.E0));
#218=AXIS2_PLACEMENT_3D('',#215,#216,#217);
#220=CURVE_STYLE('',#21,POSITIVE_LENGTH_MEASURE(2.E-2),#3);
#221=PRESENTATION_STYLE_ASSIGNMENT((#220));
#222=STYLED_ITEM('',(#221),#219);
#223=DIRECTION('',(2.621340652190E-9,1.926738348219E-8,1.E0));
#224=VECTOR('',#223,3.547007864718E-1);
#225=CARTESIAN_POINT('',(4.724409355840E-2,2.849999931658E-1,
-1.578503927710E-1));
#226=LINE('',#225,#224);
#227=CURVE_STYLE('',#21,POSITIVE_LENGTH_MEASURE(2.E-2),#3);
#228=PRESENTATION_STYLE_ASSIGNMENT((#227));
#229=STYLED_ITEM('',(#228),#226);
#230=CARTESIAN_POINT('',(0.E0,2.85E-1,-1.578503937008E-1));
#231=DIRECTION('',(0.E0,0.E0,1.E0));
#232=DIRECTION('',(-1.E0,0.E0,0.E0));
#233=AXIS2_PLACEMENT_3D('',#230,#231,#232);
#235=CURVE_STYLE('',#21,POSITIVE_LENGTH_MEASURE(2.E-2),#3);
#236=PRESENTATION_STYLE_ASSIGNMENT((#235));
#237=STYLED_ITEM('',(#236),#234);
#238=CARTESIAN_POINT('',(0.E0,2.85E-1,-1.578503937008E-1));
#239=DIRECTION('',(0.E0,0.E0,1.E0));
#240=DIRECTION('',(1.E0,0.E0,0.E0));
#241=AXIS2_PLACEMENT_3D('',#238,#239,#240);
#243=CURVE_STYLE('',#21,POSITIVE_LENGTH_MEASURE(2.E-2),#3);
#244=PRESENTATION_STYLE_ASSIGNMENT((#243));
#245=STYLED_ITEM('',(#244),#242);
#246=DIRECTION('',(-2.621340652190E-9,-1.926738379519E-8,1.E0));
#247=VECTOR('',#246,3.547007864718E-1);
#248=CARTESIAN_POINT('',(-4.724409355840E-2,2.850000068342E-1,
-1.578503927710E-1));
#249=LINE('',#248,#247);
#250=CURVE_STYLE('',#21,POSITIVE_LENGTH_MEASURE(2.E-2),#3);
#251=PRESENTATION_STYLE_ASSIGNMENT((#250));
#252=STYLED_ITEM('',(#251),#249);
#253=DIRECTION('',(-7.071067811865E-1,1.776865090925E-7,7.071067811866E-1));
#254=VECTOR('',#253,5.515432704695E-2);
#255=CARTESIAN_POINT('',(8.624409222508E-2,2.849999833657E-1,
-1.968503914377E-1));
#256=LINE('',#255,#254);
#257=CURVE_STYLE('',#21,POSITIVE_LENGTH_MEASURE(2.E-2),#3);
#258=PRESENTATION_STYLE_ASSIGNMENT((#257));
#259=STYLED_ITEM('',(#258),#256);
#260=DIRECTION('',(7.071067811865E-1,-1.776865090925E-7,7.071067811866E-1));
#261=VECTOR('',#260,5.515432704695E-2);
#262=CARTESIAN_POINT('',(-8.624409222508E-2,2.850000166343E-1,
-1.968503914377E-1));
#263=LINE('',#262,#261);
#264=CURVE_STYLE('',#21,POSITIVE_LENGTH_MEASURE(2.E-2),#3);
#265=PRESENTATION_STYLE_ASSIGNMENT((#264));
#266=STYLED_ITEM('',(#265),#263);
#267=DIRECTION('',(2.621340613065E-9,1.926738359542E-8,1.E0));
#268=VECTOR('',#267,3.547007864718E-1);
#269=CARTESIAN_POINT('',(3.322440935584E-1,-6.834156120336E-9,
-1.578503927710E-1));
#270=LINE('',#269,#268);
#271=CURVE_STYLE('',#21,POSITIVE_LENGTH_MEASURE(2.E-2),#3);
#272=PRESENTATION_STYLE_ASSIGNMENT((#271));
#273=STYLED_ITEM('',(#272),#270);
#274=CARTESIAN_POINT('',(2.85E-1,0.E0,-1.578503937008E-1));
#275=DIRECTION('',(0.E0,0.E0,1.E0));
#276=DIRECTION('',(-1.E0,0.E0,0.E0));
#277=AXIS2_PLACEMENT_3D('',#274,#275,#276);
#279=CURVE_STYLE('',#21,POSITIVE_LENGTH_MEASURE(2.E-2),#3);
#280=PRESENTATION_STYLE_ASSIGNMENT((#279));
#281=STYLED_ITEM('',(#280),#278);
#282=CARTESIAN_POINT('',(2.85E-1,0.E0,-1.578503937008E-1));
#283=DIRECTION('',(0.E0,0.E0,1.E0));
#284=DIRECTION('',(1.E0,0.E0,0.E0));
#285=AXIS2_PLACEMENT_3D('',#282,#283,#284);
#287=CURVE_STYLE('',#21,POSITIVE_LENGTH_MEASURE(2.E-2),#3);
#288=PRESENTATION_STYLE_ASSIGNMENT((#287));
#289=STYLED_ITEM('',(#288),#286);
#290=DIRECTION('',(-2.621340691315E-9,-1.926738359135E-8,1.E0));
#291=VECTOR('',#290,3.547007864718E-1);
#292=CARTESIAN_POINT('',(2.377559064416E-1,6.834156118890E-9,
-1.578503927710E-1));
#293=LINE('',#292,#291);
#294=CURVE_STYLE('',#21,POSITIVE_LENGTH_MEASURE(2.E-2),#3);
#295=PRESENTATION_STYLE_ASSIGNMENT((#294));
#296=STYLED_ITEM('',(#295),#293);
#297=DIRECTION('',(-7.071067811865E-1,1.776865097946E-7,7.071067811866E-1));
#298=VECTOR('',#297,5.515432704695E-2);
#299=CARTESIAN_POINT('',(3.712440922251E-1,-1.663433599338E-8,
-1.968503914377E-1));
#300=LINE('',#299,#298);
#301=CURVE_STYLE('',#21,POSITIVE_LENGTH_MEASURE(2.E-2),#3);
#302=PRESENTATION_STYLE_ASSIGNMENT((#301));
#303=STYLED_ITEM('',(#302),#300);
#304=DIRECTION('',(7.071067811865E-1,-1.776865096412E-7,7.071067811866E-1));
#305=VECTOR('',#304,5.515432704695E-2);
#306=CARTESIAN_POINT('',(1.987559077749E-1,1.663433598347E-8,
-1.968503914377E-1));
#307=LINE('',#306,#305);
#308=CURVE_STYLE('',#21,POSITIVE_LENGTH_MEASURE(2.E-2),#3);
#309=PRESENTATION_STYLE_ASSIGNMENT((#308));
#310=STYLED_ITEM('',(#309),#307);
#311=DIRECTION('',(2.621340652190E-9,1.926738363869E-8,1.E0));
#312=VECTOR('',#311,3.547007864718E-1);
#313=CARTESIAN_POINT('',(4.724409355840E-2,-2.850000068342E-1,
-1.578503927710E-1));
#314=LINE('',#313,#312);
#315=CURVE_STYLE('',#21,POSITIVE_LENGTH_MEASURE(2.E-2),#3);
#316=PRESENTATION_STYLE_ASSIGNMENT((#315));
#317=STYLED_ITEM('',(#316),#314);
#318=CARTESIAN_POINT('',(0.E0,-2.85E-1,-1.578503937008E-1));
#319=DIRECTION('',(0.E0,0.E0,1.E0));
#320=DIRECTION('',(-1.E0,0.E0,0.E0));
#321=AXIS2_PLACEMENT_3D('',#318,#319,#320);
#323=CURVE_STYLE('',#21,POSITIVE_LENGTH_MEASURE(2.E-2),#3);
#324=PRESENTATION_STYLE_ASSIGNMENT((#323));
#325=STYLED_ITEM('',(#324),#322);
#326=CARTESIAN_POINT('',(0.E0,-2.85E-1,-1.578503937008E-1));
#327=DIRECTION('',(0.E0,0.E0,1.E0));
#328=DIRECTION('',(1.E0,0.E0,0.E0));
#329=AXIS2_PLACEMENT_3D('',#326,#327,#328);
#331=CURVE_STYLE('',#21,POSITIVE_LENGTH_MEASURE(2.E-2),#3);
#332=PRESENTATION_STYLE_ASSIGNMENT((#331));
#333=STYLED_ITEM('',(#332),#330);
#334=DIRECTION('',(-2.621340652190E-9,-1.926738348219E-8,1.E0));
#335=VECTOR('',#334,3.547007864718E-1);
#336=CARTESIAN_POINT('',(-4.724409355840E-2,-2.849999931658E-1,
-1.578503927710E-1));
#337=LINE('',#336,#335);
#338=CURVE_STYLE('',#21,POSITIVE_LENGTH_MEASURE(2.E-2),#3);
#339=PRESENTATION_STYLE_ASSIGNMENT((#338));
#340=STYLED_ITEM('',(#339),#337);
#341=DIRECTION('',(-7.071067811865E-1,1.776865100990E-7,7.071067811866E-1));
#342=VECTOR('',#341,5.515432704695E-2);
#343=CARTESIAN_POINT('',(8.624409222508E-2,-2.850000166343E-1,
-1.968503914377E-1));
#344=LINE('',#343,#342);
#345=CURVE_STYLE('',#21,POSITIVE_LENGTH_MEASURE(2.E-2),#3);
#346=PRESENTATION_STYLE_ASSIGNMENT((#345));
#347=STYLED_ITEM('',(#346),#344);
#348=DIRECTION('',(7.071067811865E-1,-1.776865090925E-7,7.071067811866E-1));
#349=VECTOR('',#348,5.515432704695E-2);
#350=CARTESIAN_POINT('',(-8.624409222508E-2,-2.849999833657E-1,
-1.968503914377E-1));
#351=LINE('',#350,#349);
#352=CURVE_STYLE('',#21,POSITIVE_LENGTH_MEASURE(2.E-2),#3);
#353=PRESENTATION_STYLE_ASSIGNMENT((#352));
#354=STYLED_ITEM('',(#353),#351);
#355=DIRECTION('',(2.621340691315E-9,1.926738358803E-8,1.E0));
#356=VECTOR('',#355,3.547007864718E-1);
#357=CARTESIAN_POINT('',(-2.377559064416E-1,-6.834156117714E-9,
-1.578503927710E-1));
#358=LINE('',#357,#356);
#359=CURVE_STYLE('',#21,POSITIVE_LENGTH_MEASURE(2.E-2),#3);
#360=PRESENTATION_STYLE_ASSIGNMENT((#359));
#361=STYLED_ITEM('',(#360),#358);
#362=CARTESIAN_POINT('',(-2.85E-1,0.E0,-1.578503937008E-1));
#363=DIRECTION('',(0.E0,0.E0,1.E0));
#364=DIRECTION('',(-1.E0,0.E0,0.E0));
#365=AXIS2_PLACEMENT_3D('',#362,#363,#364);
#367=CURVE_STYLE('',#21,POSITIVE_LENGTH_MEASURE(2.E-2),#3);
#368=PRESENTATION_STYLE_ASSIGNMENT((#367));
#369=STYLED_ITEM('',(#368),#366);
#370=CARTESIAN_POINT('',(-2.85E-1,0.E0,-1.578503937008E-1));
#371=DIRECTION('',(0.E0,0.E0,1.E0));
#372=DIRECTION('',(1.E0,0.E0,0.E0));
#373=AXIS2_PLACEMENT_3D('',#370,#371,#372);
#375=CURVE_STYLE('',#21,POSITIVE_LENGTH_MEASURE(2.E-2),#3);
#376=PRESENTATION_STYLE_ASSIGNMENT((#375));
#377=STYLED_ITEM('',(#376),#374);
#378=DIRECTION('',(-2.621340769566E-9,-1.926738358395E-8,1.E0));
#379=VECTOR('',#378,3.547007864718E-1);
#380=CARTESIAN_POINT('',(-3.322440935584E-1,6.834156116267E-9,
-1.578503927710E-1));
#381=LINE('',#380,#379);
#382=CURVE_STYLE('',#21,POSITIVE_LENGTH_MEASURE(2.E-2),#3);
#383=PRESENTATION_STYLE_ASSIGNMENT((#382));
#384=STYLED_ITEM('',(#383),#381);
#385=DIRECTION('',(-7.071067811865E-1,1.776865097264E-7,7.071067811866E-1));
#386=VECTOR('',#385,5.515432704695E-2);
#387=CARTESIAN_POINT('',(-1.987559077749E-1,-1.663433598699E-8,
-1.968503914377E-1));
#388=LINE('',#387,#386);
#389=CURVE_STYLE('',#21,POSITIVE_LENGTH_MEASURE(2.E-2),#3);
#390=PRESENTATION_STYLE_ASSIGNMENT((#389));
#391=STYLED_ITEM('',(#390),#388);
#392=DIRECTION('',(7.071067811865E-1,-1.776865096888E-7,7.071067811866E-1));
#393=VECTOR('',#392,5.515432704695E-2);
#394=CARTESIAN_POINT('',(-3.712440922251E-1,1.663433598347E-8,
-1.968503914377E-1));
#395=LINE('',#394,#393);
#396=CURVE_STYLE('',#21,POSITIVE_LENGTH_MEASURE(2.E-2),#3);
#397=PRESENTATION_STYLE_ASSIGNMENT((#396));
#398=STYLED_ITEM('',(#397),#395);
#399=DIRECTION('',(0.E0,0.E0,1.E0));
#400=VECTOR('',#399,3.937007874016E-1);
#401=CARTESIAN_POINT('',(1.574803149606E-1,0.E0,-1.968503937008E-1));
#402=LINE('',#401,#400);
#403=CURVE_STYLE('',#21,POSITIVE_LENGTH_MEASURE(2.E-2),#3);
#404=PRESENTATION_STYLE_ASSIGNMENT((#403));
#405=STYLED_ITEM('',(#404),#402);
#406=DIRECTION('',(0.E0,0.E0,1.E0));
#407=VECTOR('',#406,3.937007874016E-1);
#408=CARTESIAN_POINT('',(-1.574803149606E-1,0.E0,-1.968503937008E-1));
#409=LINE('',#408,#407);
#410=CURVE_STYLE('',#21,POSITIVE_LENGTH_MEASURE(2.E-2),#3);
#411=PRESENTATION_STYLE_ASSIGNMENT((#410));
#412=STYLED_ITEM('',(#411),#409);
#413=CARTESIAN_POINT('',(4.724409448819E-1,0.E0,-1.968503937008E-1));
#414=CARTESIAN_POINT('',(-4.724409448819E-1,0.E0,-1.968503937008E-1));
#415=VERTEX_POINT('',#413);
#416=VERTEX_POINT('',#414);
#417=CARTESIAN_POINT('',(4.724409448819E-1,0.E0,1.968503937008E-1));
#418=CARTESIAN_POINT('',(-4.724409448819E-1,0.E0,1.968503937008E-1));
#419=VERTEX_POINT('',#417);
#420=VERTEX_POINT('',#418);
#421=CARTESIAN_POINT('',(4.724409448819E-2,2.85E-1,1.968503937008E-1));
#422=CARTESIAN_POINT('',(-4.724409448819E-2,2.85E-1,1.968503937008E-1));
#423=VERTEX_POINT('',#421);
#424=VERTEX_POINT('',#422);
#425=CARTESIAN_POINT('',(3.322440944882E-1,0.E0,1.968503937008E-1));
#426=CARTESIAN_POINT('',(2.377559055118E-1,0.E0,1.968503937008E-1));
#427=VERTEX_POINT('',#425);
#428=VERTEX_POINT('',#426);
#429=CARTESIAN_POINT('',(4.724409448819E-2,-2.85E-1,1.968503937008E-1));
#430=CARTESIAN_POINT('',(-4.724409448819E-2,-2.85E-1,1.968503937008E-1));
#431=VERTEX_POINT('',#429);
#432=VERTEX_POINT('',#430);
#433=CARTESIAN_POINT('',(-2.377559055118E-1,0.E0,1.968503937008E-1));
#434=CARTESIAN_POINT('',(-3.322440944882E-1,0.E0,1.968503937008E-1));
#435=VERTEX_POINT('',#433);
#436=VERTEX_POINT('',#434);
#437=CARTESIAN_POINT('',(1.574803149606E-1,0.E0,-1.968503937008E-1));
#438=CARTESIAN_POINT('',(-1.574803149606E-1,0.E0,-1.968503937008E-1));
#439=VERTEX_POINT('',#437);
#440=VERTEX_POINT('',#438);
#441=CARTESIAN_POINT('',(1.574803149606E-1,0.E0,1.968503937008E-1));
#442=CARTESIAN_POINT('',(-1.574803149606E-1,0.E0,1.968503937008E-1));
#443=VERTEX_POINT('',#441);
#444=VERTEX_POINT('',#442);
#445=CARTESIAN_POINT('',(4.724409355840E-2,-2.850000068342E-1,
-1.578503927710E-1));
#446=VERTEX_POINT('',#445);
#447=CARTESIAN_POINT('',(-4.724409355840E-2,-2.849999931658E-1,
-1.578503927710E-1));
#448=VERTEX_POINT('',#447);
#449=CARTESIAN_POINT('',(4.724409355840E-2,2.849999931658E-1,
-1.578503927710E-1));
#450=VERTEX_POINT('',#449);
#451=CARTESIAN_POINT('',(-4.724409355840E-2,2.850000068342E-1,
-1.578503927710E-1));
#452=VERTEX_POINT('',#451);
#453=CARTESIAN_POINT('',(3.322440935584E-1,-6.834156120336E-9,
-1.578503927710E-1));
#454=VERTEX_POINT('',#453);
#455=CARTESIAN_POINT('',(2.377559064416E-1,6.834156118890E-9,
-1.578503927710E-1));
#456=VERTEX_POINT('',#455);
#457=CARTESIAN_POINT('',(-2.377559064416E-1,-6.834156117714E-9,
-1.578503927710E-1));
#458=VERTEX_POINT('',#457);
#459=CARTESIAN_POINT('',(-3.322440935584E-1,6.834156116267E-9,
-1.578503927710E-1));
#460=VERTEX_POINT('',#459);
#461=CARTESIAN_POINT('',(-1.987559055118E-1,0.E0,-1.968503937008E-1));
#462=CARTESIAN_POINT('',(-3.712440944882E-1,0.E0,-1.968503937008E-1));
#463=VERTEX_POINT('',#461);
#464=VERTEX_POINT('',#462);
#465=CARTESIAN_POINT('',(8.624409448819E-2,-2.85E-1,-1.968503937008E-1));
#466=CARTESIAN_POINT('',(-8.624409448819E-2,-2.85E-1,-1.968503937008E-1));
#467=VERTEX_POINT('',#465);
#468=VERTEX_POINT('',#466);
#469=CARTESIAN_POINT('',(8.624409448819E-2,2.85E-1,-1.968503937008E-1));
#470=CARTESIAN_POINT('',(-8.624409448819E-2,2.85E-1,-1.968503937008E-1));
#471=VERTEX_POINT('',#469);
#472=VERTEX_POINT('',#470);
#473=CARTESIAN_POINT('',(3.712440944882E-1,0.E0,-1.968503937008E-1));
#474=CARTESIAN_POINT('',(1.987559055118E-1,0.E0,-1.968503937008E-1));
#475=VERTEX_POINT('',#473);
#476=VERTEX_POINT('',#474);
#477=CARTESIAN_POINT('',(0.E0,0.E0,-1.968503937008E-1));
#478=DIRECTION('',(0.E0,0.E0,1.E0));
#479=DIRECTION('',(1.E0,0.E0,0.E0));
#480=AXIS2_PLACEMENT_3D('',#477,#478,#479);
#481=PLANE('',#480);
#483=ORIENTED_EDGE('',*,*,#482,.T.);
#485=ORIENTED_EDGE('',*,*,#484,.T.);
#486=EDGE_LOOP('',(#483,#485));
#487=FACE_OUTER_BOUND('',#486,.F.);
#489=ORIENTED_EDGE('',*,*,#488,.T.);
#491=ORIENTED_EDGE('',*,*,#490,.T.);
#492=EDGE_LOOP('',(#489,#491));
#493=FACE_BOUND('',#492,.F.);
#495=ORIENTED_EDGE('',*,*,#494,.F.);
#497=ORIENTED_EDGE('',*,*,#496,.F.);
#498=EDGE_LOOP('',(#495,#497));
#499=FACE_BOUND('',#498,.F.);
#501=ORIENTED_EDGE('',*,*,#500,.F.);
#503=ORIENTED_EDGE('',*,*,#502,.F.);
#504=EDGE_LOOP('',(#501,#503));
#505=FACE_BOUND('',#504,.F.);
#507=ORIENTED_EDGE('',*,*,#506,.F.);
#509=ORIENTED_EDGE('',*,*,#508,.F.);
#510=EDGE_LOOP('',(#507,#509));
#511=FACE_BOUND('',#510,.F.);
#513=ORIENTED_EDGE('',*,*,#512,.F.);
#515=ORIENTED_EDGE('',*,*,#514,.F.);
#516=EDGE_LOOP('',(#513,#515));
#517=FACE_BOUND('',#516,.F.);
#519=CARTESIAN_POINT('',(0.E0,0.E0,-1.968503937008E-1));
#520=DIRECTION('',(0.E0,0.E0,1.E0));
#521=DIRECTION('',(1.E0,0.E0,0.E0));
#522=AXIS2_PLACEMENT_3D('',#519,#520,#521);
#523=CYLINDRICAL_SURFACE('',#522,4.724409448819E-1);
#524=ORIENTED_EDGE('',*,*,#482,.F.);
#526=ORIENTED_EDGE('',*,*,#525,.T.);
#528=ORIENTED_EDGE('',*,*,#527,.T.);
#530=ORIENTED_EDGE('',*,*,#529,.F.);
#531=EDGE_LOOP('',(#524,#526,#528,#530));
#532=FACE_OUTER_BOUND('',#531,.F.);
#534=CARTESIAN_POINT('',(0.E0,0.E0,-1.968503937008E-1));
#535=DIRECTION('',(0.E0,0.E0,1.E0));
#536=DIRECTION('',(1.E0,0.E0,0.E0));
#537=AXIS2_PLACEMENT_3D('',#534,#535,#536);
#538=CYLINDRICAL_SURFACE('',#537,4.724409448819E-1);
#539=ORIENTED_EDGE('',*,*,#484,.F.);
#540=ORIENTED_EDGE('',*,*,#529,.T.);
#542=ORIENTED_EDGE('',*,*,#541,.T.);
#543=ORIENTED_EDGE('',*,*,#525,.F.);
#544=EDGE_LOOP('',(#539,#540,#542,#543));
#545=FACE_OUTER_BOUND('',#544,.F.);
#547=CARTESIAN_POINT('',(0.E0,0.E0,1.968503937008E-1));
#548=DIRECTION('',(0.E0,0.E0,1.E0));
#549=DIRECTION('',(1.E0,0.E0,0.E0));
#550=AXIS2_PLACEMENT_3D('',#547,#548,#549);
#551=PLANE('',#550);
#552=ORIENTED_EDGE('',*,*,#527,.F.);
#553=ORIENTED_EDGE('',*,*,#541,.F.);
#554=EDGE_LOOP('',(#552,#553));
#555=FACE_OUTER_BOUND('',#554,.F.);
#557=ORIENTED_EDGE('',*,*,#556,.F.);
#559=ORIENTED_EDGE('',*,*,#558,.F.);
#560=EDGE_LOOP('',(#557,#559));
#561=FACE_BOUND('',#560,.F.);
#563=ORIENTED_EDGE('',*,*,#562,.F.);
#565=ORIENTED_EDGE('',*,*,#564,.F.);
#566=EDGE_LOOP('',(#563,#565));
#567=FACE_BOUND('',#566,.F.);
#569=ORIENTED_EDGE('',*,*,#568,.F.);
#571=ORIENTED_EDGE('',*,*,#570,.F.);
#572=EDGE_LOOP('',(#569,#571));
#573=FACE_BOUND('',#572,.F.);
#575=ORIENTED_EDGE('',*,*,#574,.F.);
#577=ORIENTED_EDGE('',*,*,#576,.F.);
#578=EDGE_LOOP('',(#575,#577));
#579=FACE_BOUND('',#578,.F.);
#581=ORIENTED_EDGE('',*,*,#580,.F.);
#583=ORIENTED_EDGE('',*,*,#582,.F.);
#584=EDGE_LOOP('',(#581,#583));
#585=FACE_BOUND('',#584,.F.);
#587=CARTESIAN_POINT('',(0.E0,2.85E-1,-1.968503937008E-1));
#588=DIRECTION('',(0.E0,0.E0,1.E0));
#589=DIRECTION('',(1.E0,0.E0,0.E0));
#590=AXIS2_PLACEMENT_3D('',#587,#588,#589);
#591=CYLINDRICAL_SURFACE('',#590,4.724409448819E-2);
#593=ORIENTED_EDGE('',*,*,#592,.T.);
#594=ORIENTED_EDGE('',*,*,#556,.T.);
#596=ORIENTED_EDGE('',*,*,#595,.F.);
#598=ORIENTED_EDGE('',*,*,#597,.T.);
#599=EDGE_LOOP('',(#593,#594,#596,#598));
#600=FACE_OUTER_BOUND('',#599,.F.);
#602=CARTESIAN_POINT('',(0.E0,2.85E-1,-1.968503937008E-1));
#603=DIRECTION('',(0.E0,0.E0,1.E0));
#604=DIRECTION('',(1.E0,0.E0,0.E0));
#605=AXIS2_PLACEMENT_3D('',#602,#603,#604);
#606=CYLINDRICAL_SURFACE('',#605,4.724409448819E-2);
#607=ORIENTED_EDGE('',*,*,#592,.F.);
#609=ORIENTED_EDGE('',*,*,#608,.T.);
#610=ORIENTED_EDGE('',*,*,#595,.T.);
#611=ORIENTED_EDGE('',*,*,#558,.T.);
#612=EDGE_LOOP('',(#607,#609,#610,#611));
#613=FACE_OUTER_BOUND('',#612,.F.);
#615=CARTESIAN_POINT('',(0.E0,2.85E-1,-1.773503925921E-1));
#616=DIRECTION('',(0.E0,0.E0,-1.E0));
#617=DIRECTION('',(0.E0,-1.E0,0.E0));
#618=AXIS2_PLACEMENT_3D('',#615,#616,#617);
#619=CONICAL_SURFACE('',#618,6.674409337946E-2,4.5E1);
#620=ORIENTED_EDGE('',*,*,#506,.T.);
#622=ORIENTED_EDGE('',*,*,#621,.T.);
#623=ORIENTED_EDGE('',*,*,#608,.F.);
#625=ORIENTED_EDGE('',*,*,#624,.F.);
#626=EDGE_LOOP('',(#620,#622,#623,#625));
#627=FACE_OUTER_BOUND('',#626,.F.);
#629=CARTESIAN_POINT('',(0.E0,2.85E-1,-1.773503925921E-1));
#630=DIRECTION('',(0.E0,0.E0,-1.E0));
#631=DIRECTION('',(0.E0,-1.E0,0.E0));
#632=AXIS2_PLACEMENT_3D('',#629,#630,#631);
#633=CONICAL_SURFACE('',#632,6.674409337946E-2,4.5E1);
#634=ORIENTED_EDGE('',*,*,#508,.T.);
#635=ORIENTED_EDGE('',*,*,#624,.T.);
#636=ORIENTED_EDGE('',*,*,#597,.F.);
#637=ORIENTED_EDGE('',*,*,#621,.F.);
#638=EDGE_LOOP('',(#634,#635,#636,#637));
#639=FACE_OUTER_BOUND('',#638,.F.);
#641=CARTESIAN_POINT('',(2.85E-1,0.E0,-1.968503937008E-1));
#642=DIRECTION('',(0.E0,0.E0,1.E0));
#643=DIRECTION('',(1.E0,0.E0,0.E0));
#644=AXIS2_PLACEMENT_3D('',#641,#642,#643);
#645=CYLINDRICAL_SURFACE('',#644,4.724409448819E-2);
#647=ORIENTED_EDGE('',*,*,#646,.T.);
#648=ORIENTED_EDGE('',*,*,#562,.T.);
#650=ORIENTED_EDGE('',*,*,#649,.F.);
#652=ORIENTED_EDGE('',*,*,#651,.T.);
#653=EDGE_LOOP('',(#647,#648,#650,#652));
#654=FACE_OUTER_BOUND('',#653,.F.);
#656=CARTESIAN_POINT('',(2.85E-1,0.E0,-1.968503937008E-1));
#657=DIRECTION('',(0.E0,0.E0,1.E0));
#658=DIRECTION('',(1.E0,0.E0,0.E0));
#659=AXIS2_PLACEMENT_3D('',#656,#657,#658);
#660=CYLINDRICAL_SURFACE('',#659,4.724409448819E-2);
#661=ORIENTED_EDGE('',*,*,#646,.F.);
#663=ORIENTED_EDGE('',*,*,#662,.T.);
#664=ORIENTED_EDGE('',*,*,#649,.T.);
#665=ORIENTED_EDGE('',*,*,#564,.T.);
#666=EDGE_LOOP('',(#661,#663,#664,#665));
#667=FACE_OUTER_BOUND('',#666,.F.);
#669=CARTESIAN_POINT('',(2.85E-1,0.E0,-1.773503925921E-1));
#670=DIRECTION('',(0.E0,0.E0,-1.E0));
#671=DIRECTION('',(0.E0,-1.E0,0.E0));
#672=AXIS2_PLACEMENT_3D('',#669,#670,#671);
#673=CONICAL_SURFACE('',#672,6.674409337946E-2,4.5E1);
#674=ORIENTED_EDGE('',*,*,#512,.T.);
#676=ORIENTED_EDGE('',*,*,#675,.T.);
#677=ORIENTED_EDGE('',*,*,#662,.F.);
#679=ORIENTED_EDGE('',*,*,#678,.F.);
#680=EDGE_LOOP('',(#674,#676,#677,#679));
#681=FACE_OUTER_BOUND('',#680,.F.);
#683=CARTESIAN_POINT('',(2.85E-1,0.E0,-1.773503925921E-1));
#684=DIRECTION('',(0.E0,0.E0,-1.E0));
#685=DIRECTION('',(0.E0,-1.E0,0.E0));
#686=AXIS2_PLACEMENT_3D('',#683,#684,#685);
#687=CONICAL_SURFACE('',#686,6.674409337946E-2,4.5E1);
#688=ORIENTED_EDGE('',*,*,#514,.T.);
#689=ORIENTED_EDGE('',*,*,#678,.T.);
#690=ORIENTED_EDGE('',*,*,#651,.F.);
#691=ORIENTED_EDGE('',*,*,#675,.F.);
#692=EDGE_LOOP('',(#688,#689,#690,#691));
#693=FACE_OUTER_BOUND('',#692,.F.);
#695=CARTESIAN_POINT('',(0.E0,-2.85E-1,-1.968503937008E-1));
#696=DIRECTION('',(0.E0,0.E0,1.E0));
#697=DIRECTION('',(1.E0,0.E0,0.E0));
#698=AXIS2_PLACEMENT_3D('',#695,#696,#697);
#699=CYLINDRICAL_SURFACE('',#698,4.724409448819E-2);
#701=ORIENTED_EDGE('',*,*,#700,.T.);
#702=ORIENTED_EDGE('',*,*,#568,.T.);
#704=ORIENTED_EDGE('',*,*,#703,.F.);
#706=ORIENTED_EDGE('',*,*,#705,.T.);
#707=EDGE_LOOP('',(#701,#702,#704,#706));
#708=FACE_OUTER_BOUND('',#707,.F.);
#710=CARTESIAN_POINT('',(0.E0,-2.85E-1,-1.968503937008E-1));
#711=DIRECTION('',(0.E0,0.E0,1.E0));
#712=DIRECTION('',(1.E0,0.E0,0.E0));
#713=AXIS2_PLACEMENT_3D('',#710,#711,#712);
#714=CYLINDRICAL_SURFACE('',#713,4.724409448819E-2);
#715=ORIENTED_EDGE('',*,*,#700,.F.);
#717=ORIENTED_EDGE('',*,*,#716,.T.);
#718=ORIENTED_EDGE('',*,*,#703,.T.);
#719=ORIENTED_EDGE('',*,*,#570,.T.);
#720=EDGE_LOOP('',(#715,#717,#718,#719));
#721=FACE_OUTER_BOUND('',#720,.F.);
#723=CARTESIAN_POINT('',(0.E0,-2.85E-1,-1.773503925921E-1));
#724=DIRECTION('',(0.E0,0.E0,-1.E0));
#725=DIRECTION('',(0.E0,-1.E0,0.E0));
#726=AXIS2_PLACEMENT_3D('',#723,#724,#725);
#727=CONICAL_SURFACE('',#726,6.674409337946E-2,4.5E1);
#728=ORIENTED_EDGE('',*,*,#500,.T.);
#730=ORIENTED_EDGE('',*,*,#729,.T.);
#731=ORIENTED_EDGE('',*,*,#716,.F.);
#733=ORIENTED_EDGE('',*,*,#732,.F.);
#734=EDGE_LOOP('',(#728,#730,#731,#733));
#735=FACE_OUTER_BOUND('',#734,.F.);
#737=CARTESIAN_POINT('',(0.E0,-2.85E-1,-1.773503925921E-1));
#738=DIRECTION('',(0.E0,0.E0,-1.E0));
#739=DIRECTION('',(0.E0,-1.E0,0.E0));
#740=AXIS2_PLACEMENT_3D('',#737,#738,#739);
#741=CONICAL_SURFACE('',#740,6.674409337946E-2,4.5E1);
#742=ORIENTED_EDGE('',*,*,#502,.T.);
#743=ORIENTED_EDGE('',*,*,#732,.T.);
#744=ORIENTED_EDGE('',*,*,#705,.F.);
#745=ORIENTED_EDGE('',*,*,#729,.F.);
#746=EDGE_LOOP('',(#742,#743,#744,#745));
#747=FACE_OUTER_BOUND('',#746,.F.);
#749=CARTESIAN_POINT('',(-2.85E-1,0.E0,-1.968503937008E-1));
#750=DIRECTION('',(0.E0,0.E0,1.E0));
#751=DIRECTION('',(1.E0,0.E0,0.E0));
#752=AXIS2_PLACEMENT_3D('',#749,#750,#751);
#753=CYLINDRICAL_SURFACE('',#752,4.724409448819E-2);
#755=ORIENTED_EDGE('',*,*,#754,.T.);
#756=ORIENTED_EDGE('',*,*,#574,.T.);
#758=ORIENTED_EDGE('',*,*,#757,.F.);
#760=ORIENTED_EDGE('',*,*,#759,.T.);
#761=EDGE_LOOP('',(#755,#756,#758,#760));
#762=FACE_OUTER_BOUND('',#761,.F.);
#764=CARTESIAN_POINT('',(-2.85E-1,0.E0,-1.968503937008E-1));
#765=DIRECTION('',(0.E0,0.E0,1.E0));
#766=DIRECTION('',(1.E0,0.E0,0.E0));
#767=AXIS2_PLACEMENT_3D('',#764,#765,#766);
#768=CYLINDRICAL_SURFACE('',#767,4.724409448819E-2);
#769=ORIENTED_EDGE('',*,*,#754,.F.);
#771=ORIENTED_EDGE('',*,*,#770,.T.);
#772=ORIENTED_EDGE('',*,*,#757,.T.);
#773=ORIENTED_EDGE('',*,*,#576,.T.);
#774=EDGE_LOOP('',(#769,#771,#772,#773));
#775=FACE_OUTER_BOUND('',#774,.F.);
#777=CARTESIAN_POINT('',(-2.85E-1,0.E0,-1.773503925921E-1));
#778=DIRECTION('',(0.E0,0.E0,-1.E0));
#779=DIRECTION('',(0.E0,-1.E0,0.E0));
#780=AXIS2_PLACEMENT_3D('',#777,#778,#779);
#781=CONICAL_SURFACE('',#780,6.674409337946E-2,4.5E1);
#782=ORIENTED_EDGE('',*,*,#494,.T.);
#784=ORIENTED_EDGE('',*,*,#783,.T.);
#785=ORIENTED_EDGE('',*,*,#770,.F.);
#787=ORIENTED_EDGE('',*,*,#786,.F.);
#788=EDGE_LOOP('',(#782,#784,#785,#787));
#789=FACE_OUTER_BOUND('',#788,.F.);
#791=CARTESIAN_POINT('',(-2.85E-1,0.E0,-1.773503925921E-1));
#792=DIRECTION('',(0.E0,0.E0,-1.E0));
#793=DIRECTION('',(0.E0,-1.E0,0.E0));
#794=AXIS2_PLACEMENT_3D('',#791,#792,#793);
#795=CONICAL_SURFACE('',#794,6.674409337946E-2,4.5E1);
#796=ORIENTED_EDGE('',*,*,#496,.T.);
#797=ORIENTED_EDGE('',*,*,#786,.T.);
#798=ORIENTED_EDGE('',*,*,#759,.F.);
#799=ORIENTED_EDGE('',*,*,#783,.F.);
#800=EDGE_LOOP('',(#796,#797,#798,#799));
#801=FACE_OUTER_BOUND('',#800,.F.);
#803=CARTESIAN_POINT('',(0.E0,0.E0,-1.968503937008E-1));
#804=DIRECTION('',(0.E0,0.E0,-1.E0));
#805=DIRECTION('',(1.E0,0.E0,0.E0));
#806=AXIS2_PLACEMENT_3D('',#803,#804,#805);
#807=CYLINDRICAL_SURFACE('',#806,1.574803149606E-1);
#808=ORIENTED_EDGE('',*,*,#488,.F.);
#810=ORIENTED_EDGE('',*,*,#809,.T.);
#811=ORIENTED_EDGE('',*,*,#580,.T.);
#813=ORIENTED_EDGE('',*,*,#812,.F.);
#814=EDGE_LOOP('',(#808,#810,#811,#813));
#815=FACE_OUTER_BOUND('',#814,.F.);
#817=CARTESIAN_POINT('',(0.E0,0.E0,-1.968503937008E-1));
#818=DIRECTION('',(0.E0,0.E0,-1.E0));
#819=DIRECTION('',(1.E0,0.E0,0.E0));
#820=AXIS2_PLACEMENT_3D('',#817,#818,#819);
#821=CYLINDRICAL_SURFACE('',#820,1.574803149606E-1);
#822=ORIENTED_EDGE('',*,*,#490,.F.);
#823=ORIENTED_EDGE('',*,*,#812,.T.);
#824=ORIENTED_EDGE('',*,*,#582,.T.);
#825=ORIENTED_EDGE('',*,*,#809,.F.);
#826=EDGE_LOOP('',(#822,#823,#824,#825));
#827=FACE_OUTER_BOUND('',#826,.F.);
#831=FILL_AREA_STYLE_COLOUR('',#3);
#832=FILL_AREA_STYLE('',(#831));
#833=SURFACE_STYLE_FILL_AREA(#832);
#834=SURFACE_SIDE_STYLE('',(#833));
#835=SURFACE_STYLE_USAGE(.BOTH.,#834);
#836=PRESENTATION_STYLE_ASSIGNMENT((#835));
#15=STYLED_ITEM('',(#836),#830);
#838=LENGTH_MEASURE_WITH_UNIT(LENGTH_MEASURE(2.54E1),#837);
#839=(CONVERSION_BASED_UNIT('INCH',#838)LENGTH_UNIT()NAMED_UNIT(*));
#841=PLANE_ANGLE_MEASURE_WITH_UNIT(PLANE_ANGLE_MEASURE(1.745329251994E-2),#840);
#842=(CONVERSION_BASED_UNIT('DEGREE',#841)NAMED_UNIT(*)PLANE_ANGLE_UNIT());
#844=UNCERTAINTY_MEASURE_WITH_UNIT(LENGTH_MEASURE(3.9E-4),#839,'closure',
'Maximum model space distance between geometric entities at asserted connectivities');
#846=CARTESIAN_POINT('',(0.E0,0.E0,0.E0));
#847=DIRECTION('',(0.E0,0.E0,1.E0));
#848=DIRECTION('',(1.E0,0.E0,0.E0));
#851=MECHANICAL_DESIGN_GEOMETRIC_PRESENTATION_REPRESENTATION('',(#24,#32,#40,
#48,#56,#64,#72,#80,#88,#96,#104,#112,#119,#126,#134,#142,#150,#158,#166,#174,
#182,#190,#198,#206,#214,#222,#229,#237,#245,#252,#259,#266,#273,#281,#289,#296,
#303,#310,#317,#325,#333,#340,#347,#354,#361,#369,#377,#384,#391,#398,#405,#412,
#15),#845);
#852=APPLICATION_CONTEXT('automotive design');
#853=APPLICATION_PROTOCOL_DEFINITION('international standard',
'config_control_design',1994,#852);
#854=PRODUCT_DEFINITION_CONTEXT('',#852,'design');
#855=PRODUCT_CONTEXT('',#852,'mechanical');
#856=PRODUCT('SHAFT-ADAPTER','SHAFT-ADAPTER','NOT SPECIFIED',(#855));
#857=PRODUCT_DEFINITION_FORMATION_WITH_SPECIFIED_SOURCE('1','LAST_VERSION',#856,
.MADE.);
#865=LENGTH_MEASURE_WITH_UNIT(LENGTH_MEASURE(2.54E1),#864);
#866=(CONVERSION_BASED_UNIT('INCH',#865)LENGTH_UNIT()NAMED_UNIT(*));
#867=DERIVED_UNIT_ELEMENT(#866,2.E0);
#868=AREA_UNIT((#867));
#869=MEASURE_REPRESENTATION_ITEM('surface area measure',AREA_MEASURE(
3.196983791075E0),#868);
#874=LENGTH_MEASURE_WITH_UNIT(LENGTH_MEASURE(2.54E1),#873);
#875=(CONVERSION_BASED_UNIT('INCH',#874)LENGTH_UNIT()NAMED_UNIT(*));
#876=DERIVED_UNIT_ELEMENT(#875,3.E0);
#877=VOLUME_UNIT((#876));
#878=MEASURE_REPRESENTATION_ITEM('volume measure',VOLUME_MEASURE(
2.331969687212E-1),#877);
#882=CARTESIAN_POINT('centre point',(0.E0,3.860648596640E-14,
9.112717174774E-4));
#887=LENGTH_MEASURE_WITH_UNIT(LENGTH_MEASURE(2.54E1),#886);
#888=(CONVERSION_BASED_UNIT('INCH',#887)LENGTH_UNIT()NAMED_UNIT(*));
#889=DERIVED_UNIT_ELEMENT(#888,2.E0);
#890=AREA_UNIT((#889));
#891=MEASURE_REPRESENTATION_ITEM('surface area measure',AREA_MEASURE(
3.196983791075E0),#890);
#896=LENGTH_MEASURE_WITH_UNIT(LENGTH_MEASURE(2.54E1),#895);
#897=(CONVERSION_BASED_UNIT('INCH',#896)LENGTH_UNIT()NAMED_UNIT(*));
#898=DERIVED_UNIT_ELEMENT(#897,3.E0);
#899=VOLUME_UNIT((#898));
#900=MEASURE_REPRESENTATION_ITEM('volume measure',VOLUME_MEASURE(
2.331969687212E-1),#899);
#904=CARTESIAN_POINT('centre point',(0.E0,3.860648596640E-14,
9.112717174774E-4));
#1=DRAUGHTING_PRE_DEFINED_COLOUR('green');
#2=COLOUR_RGB('',1.1E-2,1.2E-2,1.E0);
#3=COLOUR_RGB('',2.352941176471E-1,2.352941176471E-1,2.352941176471E-1);
#4=COLOUR_RGB('',4.1E-1,2.61589E-1,1.12848E-1);
#5=COLOUR_RGB('',5.04854E-1,1.5455E-2,1.5455E-2);
#6=COLOUR_RGB('',6.35294E-1,6.86275E-1,7.4902E-1);
#7=COLOUR_RGB('',6.40777E-1,6.40777E-1,6.40777E-1);
#8=COLOUR_RGB('',6.69062E-1,6.69903E-1,6.55217E-1);
#9=COLOUR_RGB('',9.21569E-1,7.05882E-1,4.70588E-1);
#10=DRAUGHTING_PRE_DEFINED_COLOUR('red');
#11=DRAUGHTING_PRE_DEFINED_COLOUR('yellow');
#12=COLOUR_RGB('',1.E0,1.E0,5.3E-1);
#13=COLOUR_RGB('',1.E0,1.E0,9.49E-1);
#14=DRAUGHTING_PRE_DEFINED_COLOUR('white');
#20=CIRCLE('',#19,4.724409448819E-1);
#29=CIRCLE('',#28,4.724409448819E-1);
#37=CIRCLE('',#36,1.574803149606E-1);
#45=CIRCLE('',#44,1.574803149606E-1);
#53=CIRCLE('',#52,8.624409448819E-2);
#61=CIRCLE('',#60,8.624409448819E-2);
#69=CIRCLE('',#68,8.624409448819E-2);
#77=CIRCLE('',#76,8.624409448819E-2);
#85=CIRCLE('',#84,8.624409448819E-2);
#93=CIRCLE('',#92,8.624409448819E-2);
#101=CIRCLE('',#100,8.624409448819E-2);
#109=CIRCLE('',#108,8.624409448819E-2);
#131=CIRCLE('',#130,4.724409448819E-1);
#139=CIRCLE('',#138,4.724409448819E-1);
#147=CIRCLE('',#146,4.724409448819E-2);
#155=CIRCLE('',#154,4.724409448819E-2);
#163=CIRCLE('',#162,4.724409448819E-2);
#171=CIRCLE('',#170,4.724409448819E-2);
#179=CIRCLE('',#178,4.724409448819E-2);
#187=CIRCLE('',#186,4.724409448819E-2);
#195=CIRCLE('',#194,4.724409448819E-2);
#203=CIRCLE('',#202,4.724409448819E-2);
#211=CIRCLE('',#210,1.574803149606E-1);
#219=CIRCLE('',#218,1.574803149606E-1);
#234=CIRCLE('',#233,4.724409448819E-2);
#242=CIRCLE('',#241,4.724409448819E-2);
#278=CIRCLE('',#277,4.724409448819E-2);
#286=CIRCLE('',#285,4.724409448819E-2);
#322=CIRCLE('',#321,4.724409448819E-2);
#330=CIRCLE('',#329,4.724409448819E-2);
#366=CIRCLE('',#365,4.724409448819E-2);
#374=CIRCLE('',#373,4.724409448819E-2);
#482=EDGE_CURVE('',#415,#416,#20,.T.);
#484=EDGE_CURVE('',#416,#415,#29,.T.);
#488=EDGE_CURVE('',#439,#440,#37,.T.);
#490=EDGE_CURVE('',#440,#439,#45,.T.);
#494=EDGE_CURVE('',#463,#464,#53,.T.);
#496=EDGE_CURVE('',#464,#463,#61,.T.);
#500=EDGE_CURVE('',#467,#468,#69,.T.);
#502=EDGE_CURVE('',#468,#467,#77,.T.);
#506=EDGE_CURVE('',#471,#472,#85,.T.);
#508=EDGE_CURVE('',#472,#471,#93,.T.);
#512=EDGE_CURVE('',#475,#476,#101,.T.);
#514=EDGE_CURVE('',#476,#475,#109,.T.);
#518=ADVANCED_FACE('',(#487,#493,#499,#505,#511,#517),#481,.F.);
#525=EDGE_CURVE('',#415,#419,#116,.T.);
#527=EDGE_CURVE('',#419,#420,#131,.T.);
#529=EDGE_CURVE('',#416,#420,#123,.T.);
#533=ADVANCED_FACE('',(#532),#523,.T.);
#541=EDGE_CURVE('',#420,#419,#139,.T.);
#546=ADVANCED_FACE('',(#545),#538,.T.);
#556=EDGE_CURVE('',#423,#424,#147,.T.);
#558=EDGE_CURVE('',#424,#423,#155,.T.);
#562=EDGE_CURVE('',#427,#428,#163,.T.);
#564=EDGE_CURVE('',#428,#427,#171,.T.);
#568=EDGE_CURVE('',#431,#432,#179,.T.);
#570=EDGE_CURVE('',#432,#431,#187,.T.);
#574=EDGE_CURVE('',#435,#436,#195,.T.);
#576=EDGE_CURVE('',#436,#435,#203,.T.);
#580=EDGE_CURVE('',#443,#444,#211,.T.);
#582=EDGE_CURVE('',#444,#443,#219,.T.);
#586=ADVANCED_FACE('',(#555,#561,#567,#573,#579,#585),#551,.T.);
#592=EDGE_CURVE('',#450,#423,#226,.T.);
#595=EDGE_CURVE('',#452,#424,#249,.T.);
#597=EDGE_CURVE('',#452,#450,#234,.T.);
#601=ADVANCED_FACE('',(#600),#591,.F.);
#608=EDGE_CURVE('',#450,#452,#242,.T.);
#614=ADVANCED_FACE('',(#613),#606,.F.);
#621=EDGE_CURVE('',#472,#452,#263,.T.);
#624=EDGE_CURVE('',#471,#450,#256,.T.);
#628=ADVANCED_FACE('',(#627),#619,.F.);
#640=ADVANCED_FACE('',(#639),#633,.F.);
#646=EDGE_CURVE('',#454,#427,#270,.T.);
#649=EDGE_CURVE('',#456,#428,#293,.T.);
#651=EDGE_CURVE('',#456,#454,#278,.T.);
#655=ADVANCED_FACE('',(#654),#645,.F.);
#662=EDGE_CURVE('',#454,#456,#286,.T.);
#668=ADVANCED_FACE('',(#667),#660,.F.);
#675=EDGE_CURVE('',#476,#456,#307,.T.);
#678=EDGE_CURVE('',#475,#454,#300,.T.);
#682=ADVANCED_FACE('',(#681),#673,.F.);
#694=ADVANCED_FACE('',(#693),#687,.F.);
#700=EDGE_CURVE('',#446,#431,#314,.T.);
#703=EDGE_CURVE('',#448,#432,#337,.T.);
#705=EDGE_CURVE('',#448,#446,#322,.T.);
#709=ADVANCED_FACE('',(#708),#699,.F.);
#716=EDGE_CURVE('',#446,#448,#330,.T.);
#722=ADVANCED_FACE('',(#721),#714,.F.);
#729=EDGE_CURVE('',#468,#448,#351,.T.);
#732=EDGE_CURVE('',#467,#446,#344,.T.);
#736=ADVANCED_FACE('',(#735),#727,.F.);
#748=ADVANCED_FACE('',(#747),#741,.F.);
#754=EDGE_CURVE('',#458,#435,#358,.T.);
#757=EDGE_CURVE('',#460,#436,#381,.T.);
#759=EDGE_CURVE('',#460,#458,#366,.T.);
#763=ADVANCED_FACE('',(#762),#753,.F.);
#770=EDGE_CURVE('',#458,#460,#374,.T.);
#776=ADVANCED_FACE('',(#775),#768,.F.);
#783=EDGE_CURVE('',#464,#460,#395,.T.);
#786=EDGE_CURVE('',#463,#458,#388,.T.);
#790=ADVANCED_FACE('',(#789),#781,.F.);
#802=ADVANCED_FACE('',(#801),#795,.F.);
#809=EDGE_CURVE('',#439,#443,#402,.T.);
#812=EDGE_CURVE('',#440,#444,#409,.T.);
#816=ADVANCED_FACE('',(#815),#807,.F.);
#828=ADVANCED_FACE('',(#827),#821,.F.);
#829=CLOSED_SHELL('',(#518,#533,#546,#586,#601,#614,#628,#640,#655,#668,#682,
#694,#709,#722,#736,#748,#763,#776,#790,#802,#816,#828));
#830=MANIFOLD_SOLID_BREP('',#829);
#837=(LENGTH_UNIT()NAMED_UNIT(*)SI_UNIT(.MILLI.,.METRE.));
#840=(NAMED_UNIT(*)PLANE_ANGLE_UNIT()SI_UNIT($,.RADIAN.));
#843=(NAMED_UNIT(*)SI_UNIT($,.STERADIAN.)SOLID_ANGLE_UNIT());
#845=(GEOMETRIC_REPRESENTATION_CONTEXT(3)GLOBAL_UNCERTAINTY_ASSIGNED_CONTEXT((
#844))GLOBAL_UNIT_ASSIGNED_CONTEXT((#839,#842,#843))REPRESENTATION_CONTEXT
('ID1','3'));
#849=AXIS2_PLACEMENT_3D('',#846,#847,#848);
#850=ADVANCED_BREP_SHAPE_REPRESENTATION('',(#849,#830),#845);
#858=PRODUCT_DEFINITION('design','',#857,#854);
#859=PRODUCT_DEFINITION_SHAPE('','SHAPE FOR SHAFT-ADAPTER.',#858);
#860=SHAPE_ASPECT('','solid data associated with SHAFT-ADAPTER',#859,.F.);
#861=PROPERTY_DEFINITION('',
'shape for solid data with which properties are associated',#860);
#862=SHAPE_REPRESENTATION('',(#830),#845);
#863=SHAPE_DEFINITION_REPRESENTATION(#861,#862);
#864=(LENGTH_UNIT()NAMED_UNIT(*)SI_UNIT(.MILLI.,.METRE.));
#870=PROPERTY_DEFINITION('geometric validation property',
'area of SHAFT-ADAPTER',#860);
#871=REPRESENTATION('surface area',(#869),#845);
#872=PROPERTY_DEFINITION_REPRESENTATION(#870,#871);
#873=(LENGTH_UNIT()NAMED_UNIT(*)SI_UNIT(.MILLI.,.METRE.));
#879=PROPERTY_DEFINITION('geometric validation property',
'volume of SHAFT-ADAPTER',#860);
#880=REPRESENTATION('volume',(#878),#845);
#881=PROPERTY_DEFINITION_REPRESENTATION(#879,#880);
#883=PROPERTY_DEFINITION('geometric validation property',
'centroid of SHAFT-ADAPTER',#860);
#884=REPRESENTATION('centroid',(#882),#845);
#885=PROPERTY_DEFINITION_REPRESENTATION(#883,#884);
#886=(LENGTH_UNIT()NAMED_UNIT(*)SI_UNIT(.MILLI.,.METRE.));
#892=PROPERTY_DEFINITION('geometric validation property',
'area of SHAFT-ADAPTER',#859);
#893=REPRESENTATION('surface area',(#891),#845);
#894=PROPERTY_DEFINITION_REPRESENTATION(#892,#893);
#895=(LENGTH_UNIT()NAMED_UNIT(*)SI_UNIT(.MILLI.,.METRE.));
#901=PROPERTY_DEFINITION('geometric validation property',
'volume of SHAFT-ADAPTER',#859);
#902=REPRESENTATION('volume',(#900),#845);
#903=PROPERTY_DEFINITION_REPRESENTATION(#901,#902);
#905=PROPERTY_DEFINITION('geometric validation property',
'centroid of SHAFT-ADAPTER',#859);
#906=REPRESENTATION('centroid',(#904),#845);
#907=PROPERTY_DEFINITION_REPRESENTATION(#905,#906);
#908=SHAPE_DEFINITION_REPRESENTATION(#859,#850);
ENDSEC;
END-ISO-10303-21;
