ISO-10303-21;
HEADER;
FILE_DESCRIPTION((''),'2;1');
FILE_NAME('SWEEP3','2026-06-15T13:45:13',('Esia'),(''),
'CREO PARAMETRIC BY PTC INC, 2025102','CREO PARAMETRIC BY PTC INC, 2025102','');
FILE_SCHEMA((
'AP242_MANAGED_MODEL_BASED_3D_ENGINEERING_MIM_LF { 1 0 10303 442 1 1 4 }'));
ENDSEC;
DATA;
#17=CARTESIAN_POINT('',(1.181102362205E-1,0.E0,3.149606299213E-2));
#18=CARTESIAN_POINT('',(1.181102362205E-1,-1.360630453665E-3,
3.149606299213E-2));
#19=CARTESIAN_POINT('',(1.181102362205E-1,-4.081891360995E-3,
3.133328543229E-2));
#20=CARTESIAN_POINT('',(1.181102362205E-1,-1.031642882801E-2,
3.008014102197E-2));
#21=CARTESIAN_POINT('',(1.181102362205E-1,-1.902614830991E-2,
2.615561072749E-2));
#22=CARTESIAN_POINT('',(1.181102362205E-1,-2.870674860040E-2,
1.569361237139E-2));
#23=CARTESIAN_POINT('',(1.181102362205E-1,-3.289072018799E-2,0.E0));
#24=CARTESIAN_POINT('',(1.181102362205E-1,-2.870674860040E-2,
-1.569361237139E-2));
#25=CARTESIAN_POINT('',(1.181102362205E-1,-1.902614830991E-2,
-2.615561072749E-2));
#26=CARTESIAN_POINT('',(1.181102362205E-1,-1.031642882801E-2,
-3.008014102197E-2));
#27=CARTESIAN_POINT('',(1.181102362205E-1,-4.081891360995E-3,
-3.133328543229E-2));
#28=CARTESIAN_POINT('',(1.181102362205E-1,-1.360630453665E-3,
-3.149606299213E-2));
#29=CARTESIAN_POINT('',(1.181102362205E-1,0.E0,-3.149606299213E-2));
#31=DRAUGHTING_PRE_DEFINED_CURVE_FONT('continuous');
#32=CURVE_STYLE('',#31,POSITIVE_LENGTH_MEASURE(2.E-2),#11);
#33=PRESENTATION_STYLE_ASSIGNMENT((#32));
#34=STYLED_ITEM('',(#33),#30);
#35=CARTESIAN_POINT('',(1.181102362205E-1,0.E0,-3.149606299213E-2));
#36=CARTESIAN_POINT('',(1.181102362205E-1,1.360630453665E-3,
-3.149606299213E-2));
#37=CARTESIAN_POINT('',(1.181102362205E-1,4.081891360995E-3,
-3.133328543229E-2));
#38=CARTESIAN_POINT('',(1.181102362205E-1,1.031642882801E-2,
-3.008014102197E-2));
#39=CARTESIAN_POINT('',(1.181102362205E-1,1.902614830991E-2,
-2.615561072749E-2));
#40=CARTESIAN_POINT('',(1.181102362205E-1,2.870674860040E-2,
-1.569361237139E-2));
#41=CARTESIAN_POINT('',(1.181102362205E-1,3.289072018799E-2,0.E0));
#42=CARTESIAN_POINT('',(1.181102362205E-1,2.870674860040E-2,1.569361237139E-2));
#43=CARTESIAN_POINT('',(1.181102362205E-1,1.902614830991E-2,2.615561072749E-2));
#44=CARTESIAN_POINT('',(1.181102362205E-1,1.031642882801E-2,3.008014102197E-2));
#45=CARTESIAN_POINT('',(1.181102362205E-1,4.081891360995E-3,3.133328543229E-2));
#46=CARTESIAN_POINT('',(1.181102362205E-1,1.360630453665E-3,3.149606299213E-2));
#47=CARTESIAN_POINT('',(1.181102362205E-1,0.E0,3.149606299213E-2));
#49=CURVE_STYLE('',#31,POSITIVE_LENGTH_MEASURE(2.E-2),#11);
#50=PRESENTATION_STYLE_ASSIGNMENT((#49));
#51=STYLED_ITEM('',(#50),#48);
#52=CARTESIAN_POINT('',(1.181102362205E-1,0.E0,3.149606299213E-2));
#53=CARTESIAN_POINT('',(9.186351706040E-2,0.E0,3.149606299213E-2));
#54=CARTESIAN_POINT('',(1.132869799130E-2,3.481535966889E-7,3.149606299213E-2));
#55=CARTESIAN_POINT('',(-9.635015068759E-2,-2.042993911154E-6,
3.149606299213E-2));
#56=CARTESIAN_POINT('',(-1.913543550402E-1,2.792442697871E-6,
3.149606299213E-2));
#57=CARTESIAN_POINT('',(-2.388563933664E-1,-3.933289808012E-6,
3.149606299213E-2));
#58=CARTESIAN_POINT('',(-2.626075022424E-1,5.550879374673E-6,
3.149606299213E-2));
#59=CARTESIAN_POINT('',(-2.761794197851E-1,-9.746877437667E-6,
3.149606299213E-2));
#60=CARTESIAN_POINT('',(-2.854709204075E-1,3.316102113888E-5,
3.149606299213E-2));
#61=CARTESIAN_POINT('',(-2.938734548703E-1,-8.845143878991E-5,
3.149606299213E-2));
#62=CARTESIAN_POINT('',(-3.013761612104E-1,-5.276540520506E-4,
3.149606299213E-2));
#63=CARTESIAN_POINT('',(-3.088573314222E-1,-1.241377072372E-3,
3.149606299213E-2));
#64=CARTESIAN_POINT('',(-3.187893634989E-1,-2.576919259686E-3,
3.149606299213E-2));
#65=CARTESIAN_POINT('',(-3.310978328988E-1,-4.955370224974E-3,
3.149606299213E-2));
#66=CARTESIAN_POINT('',(-3.456102189870E-1,-8.927969542154E-3,
3.149606299213E-2));
#67=CARTESIAN_POINT('',(-3.597766580334E-1,-1.399777040772E-2,
3.149606299213E-2));
#68=CARTESIAN_POINT('',(-3.712233925908E-1,-1.910930084927E-2,
3.149606299213E-2));
#69=CARTESIAN_POINT('',(-3.801252658542E-1,-2.371207791693E-2,
3.149606299213E-2));
#70=CARTESIAN_POINT('',(-3.866628767253E-1,-2.741842378370E-2,
3.149606299213E-2));
#71=CARTESIAN_POINT('',(-3.930605740468E-1,-3.136213606593E-2,
3.149606299213E-2));
#72=CARTESIAN_POINT('',(-3.999207922295E-1,-3.601855816446E-2,
3.149606299213E-2));
#73=CARTESIAN_POINT('',(-4.073244959864E-1,-4.125307895455E-2,
3.149606299213E-2));
#74=CARTESIAN_POINT('',(-4.180828161448E-1,-4.876830686412E-2,
3.149606299213E-2));
#75=CARTESIAN_POINT('',(-4.368900855198E-1,-6.194864435787E-2,
3.149606299213E-2));
#76=CARTESIAN_POINT('',(-4.530173875790E-1,-7.323624038605E-2,
3.149606299213E-2));
#77=CARTESIAN_POINT('',(-4.637674144070E-1,-8.076349020697E-2,
3.149606299213E-2));
#79=CURVE_STYLE('',#31,POSITIVE_LENGTH_MEASURE(2.E-2),#11);
#80=PRESENTATION_STYLE_ASSIGNMENT((#79));
#81=STYLED_ITEM('',(#80),#78);
#82=CARTESIAN_POINT('',(1.181102362205E-1,0.E0,-3.149606299213E-2));
#83=CARTESIAN_POINT('',(9.186351706040E-2,0.E0,-3.149606299213E-2));
#84=CARTESIAN_POINT('',(1.132869799130E-2,3.481535967008E-7,
-3.149606299213E-2));
#85=CARTESIAN_POINT('',(-9.635015068759E-2,-2.042993911151E-6,
-3.149606299213E-2));
#86=CARTESIAN_POINT('',(-1.913543550402E-1,2.792442697875E-6,
-3.149606299213E-2));
#87=CARTESIAN_POINT('',(-2.388563933664E-1,-3.933289808008E-6,
-3.149606299213E-2));
#88=CARTESIAN_POINT('',(-2.626075022424E-1,5.550879374677E-6,
-3.149606299213E-2));
#89=CARTESIAN_POINT('',(-2.761794197851E-1,-9.746877437664E-6,
-3.149606299213E-2));
#90=CARTESIAN_POINT('',(-2.854709204075E-1,3.316102113888E-5,
-3.149606299213E-2));
#91=CARTESIAN_POINT('',(-2.938734548703E-1,-8.845143878991E-5,
-3.149606299213E-2));
#92=CARTESIAN_POINT('',(-3.013761612104E-1,-5.276540520506E-4,
-3.149606299213E-2));
#93=CARTESIAN_POINT('',(-3.088573314222E-1,-1.241377072372E-3,
-3.149606299213E-2));
#94=CARTESIAN_POINT('',(-3.187893634989E-1,-2.576919259686E-3,
-3.149606299213E-2));
#95=CARTESIAN_POINT('',(-3.310978328988E-1,-4.955370224974E-3,
-3.149606299213E-2));
#96=CARTESIAN_POINT('',(-3.456102189870E-1,-8.927969542154E-3,
-3.149606299213E-2));
#97=CARTESIAN_POINT('',(-3.597766580334E-1,-1.399777040772E-2,
-3.149606299213E-2));
#98=CARTESIAN_POINT('',(-3.712233925908E-1,-1.910930084927E-2,
-3.149606299213E-2));
#99=CARTESIAN_POINT('',(-3.801252658542E-1,-2.371207791693E-2,
-3.149606299213E-2));
#100=CARTESIAN_POINT('',(-3.866628767253E-1,-2.741842378370E-2,
-3.149606299213E-2));
#101=CARTESIAN_POINT('',(-3.930605740468E-1,-3.136213606593E-2,
-3.149606299213E-2));
#102=CARTESIAN_POINT('',(-3.999207922295E-1,-3.601855816446E-2,
-3.149606299213E-2));
#103=CARTESIAN_POINT('',(-4.073244959864E-1,-4.125307895455E-2,
-3.149606299213E-2));
#104=CARTESIAN_POINT('',(-4.180828161448E-1,-4.876830686412E-2,
-3.149606299213E-2));
#105=CARTESIAN_POINT('',(-4.368900855198E-1,-6.194864435787E-2,
-3.149606299213E-2));
#106=CARTESIAN_POINT('',(-4.530173875790E-1,-7.323624038605E-2,
-3.149606299213E-2));
#107=CARTESIAN_POINT('',(-4.637674144070E-1,-8.076349020697E-2,
-3.149606299213E-2));
#109=CURVE_STYLE('',#31,POSITIVE_LENGTH_MEASURE(2.E-2),#11);
#110=PRESENTATION_STYLE_ASSIGNMENT((#109));
#111=STYLED_ITEM('',(#110),#108);
#112=CARTESIAN_POINT('',(-4.637674144070E-1,-8.076349020697E-2,
3.149606299213E-2));
#113=CARTESIAN_POINT('',(-4.645478399738E-1,-7.964892698933E-2,
3.149606299213E-2));
#114=CARTESIAN_POINT('',(-4.661086911074E-1,-7.741980055405E-2,
3.133328543229E-2));
#115=CARTESIAN_POINT('',(-4.696846748901E-1,-7.231276644275E-2,
3.008014102197E-2));
#116=CARTESIAN_POINT('',(-4.746803647521E-1,-6.517818192397E-2,
2.615561072749E-2));
#117=CARTESIAN_POINT('',(-4.802329289685E-1,-5.724829840607E-2,
1.569361237139E-2));
#118=CARTESIAN_POINT('',(-4.826327564815E-1,-5.382098952685E-2,0.E0));
#119=CARTESIAN_POINT('',(-4.802329289685E-1,-5.724829840607E-2,
-1.569361237139E-2));
#120=CARTESIAN_POINT('',(-4.746803647521E-1,-6.517818192397E-2,
-2.615561072749E-2));
#121=CARTESIAN_POINT('',(-4.696846748901E-1,-7.231276644275E-2,
-3.008014102197E-2));
#122=CARTESIAN_POINT('',(-4.661086911074E-1,-7.741980055405E-2,
-3.133328543229E-2));
#123=CARTESIAN_POINT('',(-4.645478399738E-1,-7.964892698933E-2,
-3.149606299213E-2));
#124=CARTESIAN_POINT('',(-4.637674144070E-1,-8.076349020697E-2,
-3.149606299213E-2));
#126=CURVE_STYLE('',#31,POSITIVE_LENGTH_MEASURE(2.E-2),#11);
#127=PRESENTATION_STYLE_ASSIGNMENT((#126));
#128=STYLED_ITEM('',(#127),#125);
#129=CARTESIAN_POINT('',(-4.637674144070E-1,-8.076349020697E-2,
-3.149606299213E-2));
#130=CARTESIAN_POINT('',(-4.629869888402E-1,-8.187805342462E-2,
-3.149606299213E-2));
#131=CARTESIAN_POINT('',(-4.614261377066E-1,-8.410717985990E-2,
-3.133328543229E-2));
#132=CARTESIAN_POINT('',(-4.578501539240E-1,-8.921421397120E-2,
-3.008014102197E-2));
#133=CARTESIAN_POINT('',(-4.528544640619E-1,-9.634879848998E-2,
-2.615561072749E-2));
#134=CARTESIAN_POINT('',(-4.473018998456E-1,-1.042786820079E-1,
-1.569361237139E-2));
#135=CARTESIAN_POINT('',(-4.449020723326E-1,-1.077059908871E-1,0.E0));
#136=CARTESIAN_POINT('',(-4.473018998456E-1,-1.042786820079E-1,
1.569361237139E-2));
#137=CARTESIAN_POINT('',(-4.528544640619E-1,-9.634879848998E-2,
2.615561072749E-2));
#138=CARTESIAN_POINT('',(-4.578501539240E-1,-8.921421397120E-2,
3.008014102197E-2));
#139=CARTESIAN_POINT('',(-4.614261377066E-1,-8.410717985990E-2,
3.133328543229E-2));
#140=CARTESIAN_POINT('',(-4.629869888402E-1,-8.187805342462E-2,
3.149606299213E-2));
#141=CARTESIAN_POINT('',(-4.637674144070E-1,-8.076349020697E-2,
3.149606299213E-2));
#143=CURVE_STYLE('',#31,POSITIVE_LENGTH_MEASURE(2.E-2),#11);
#144=PRESENTATION_STYLE_ASSIGNMENT((#143));
#145=STYLED_ITEM('',(#144),#142);
#146=VERTEX_POINT('',#82);
#147=VERTEX_POINT('',#107);
#148=VERTEX_POINT('',#52);
#149=VERTEX_POINT('',#77);
#150=CARTESIAN_POINT('',(1.181102362205E-1,0.E0,0.E0));
#151=DIRECTION('',(-1.E0,0.E0,0.E0));
#152=DIRECTION('',(0.E0,0.E0,1.E0));
#153=AXIS2_PLACEMENT_3D('',#150,#151,#152);
#154=PLANE('',#153);
#156=ORIENTED_EDGE('',*,*,#155,.F.);
#158=ORIENTED_EDGE('',*,*,#157,.F.);
#159=EDGE_LOOP('',(#156,#158));
#160=FACE_OUTER_BOUND('',#159,.F.);
#162=CARTESIAN_POINT('',(1.239525933514E-1,1.309451358056E-3,
-3.146992790074E-2));
#163=CARTESIAN_POINT('',(9.575841260075E-2,1.309431124241E-3,
-3.146992790074E-2));
#164=CARTESIAN_POINT('',(1.327633808938E-2,1.309843334522E-3,
-3.146992790074E-2));
#165=CARTESIAN_POINT('',(-9.635113377613E-2,1.307392747555E-3,
-3.146992790074E-2));
#166=CARTESIAN_POINT('',(-1.913530113170E-1,1.312260349888E-3,
-3.146992790074E-2));
#167=CARTESIAN_POINT('',(-2.388582860652E-1,1.305489877253E-3,
-3.146992790074E-2));
#168=CARTESIAN_POINT('',(-2.626048311596E-1,1.315037135915E-3,
-3.146992790074E-2));
#169=CARTESIAN_POINT('',(-2.761841099819E-1,1.299637617157E-3,
-3.146992790074E-2));
#170=CARTESIAN_POINT('',(-2.854549633263E-1,1.342830942629E-3,
-3.146992790074E-2));
#171=CARTESIAN_POINT('',(-2.939160176969E-1,1.220409506543E-3,
-3.146992790074E-2));
#172=CARTESIAN_POINT('',(-3.014780454416E-1,7.782853502077E-4,
-3.146992790074E-2));
#173=CARTESIAN_POINT('',(-3.090064732968E-1,5.981451581002E-5,
-3.146992790074E-2));
#174=CARTESIAN_POINT('',(-3.190053934083E-1,-1.284611071093E-3,
-3.146992790074E-2));
#175=CARTESIAN_POINT('',(-3.313953430107E-1,-3.678888304658E-3,
-3.146992790074E-2));
#176=CARTESIAN_POINT('',(-3.460043666453E-1,-7.677893476333E-3,
-3.146992790074E-2));
#177=CARTESIAN_POINT('',(-3.602651113373E-1,-1.278149244898E-2,
-3.146992790074E-2));
#178=CARTESIAN_POINT('',(-3.717876704854E-1,-1.792679544802E-2,
-3.146992790074E-2));
#179=CARTESIAN_POINT('',(-3.807494258631E-1,-2.256065789537E-2,
-3.146992790074E-2));
#180=CARTESIAN_POINT('',(-3.873284853873E-1,-2.629023011943E-2,
-3.146992790074E-2));
#181=CARTESIAN_POINT('',(-3.937763982914E-1,-3.026553827534E-2,
-3.146992790074E-2));
#182=CARTESIAN_POINT('',(-4.006845910793E-1,-3.495457367083E-2,
-3.146992790074E-2));
#183=CARTESIAN_POINT('',(-4.080718663927E-1,-4.017792635007E-2,
-3.146992790074E-2));
#184=CARTESIAN_POINT('',(-4.188359990689E-1,-4.769710562870E-2,
-3.146992790074E-2));
#185=CARTESIAN_POINT('',(-4.392346166583E-1,-6.199276143278E-2,
-3.146992790074E-2));
#186=CARTESIAN_POINT('',(-4.569609484039E-1,-7.439789629289E-2,
-3.146992790074E-2));
#187=CARTESIAN_POINT('',(-4.693057145671E-1,-8.304315501078E-2,
-3.146992790074E-2));
#188=CARTESIAN_POINT('',(1.239525930269E-1,8.708055122856E-4,
-3.148772878106E-2));
#189=CARTESIAN_POINT('',(9.575841551629E-2,8.707853232602E-4,
-3.148772878106E-2));
#190=CARTESIAN_POINT('',(1.327627499787E-2,8.711966210633E-4,
-3.148772878106E-2));
#191=CARTESIAN_POINT('',(-9.635080445625E-2,8.687514587706E-4,
-3.148772878106E-2));
#192=CARTESIAN_POINT('',(-1.913534614441E-1,8.736082860702E-4,
-3.148772878106E-2));
#193=CARTESIAN_POINT('',(-2.388576520395E-1,8.668528007055E-4,
-3.148772878106E-2));
#194=CARTESIAN_POINT('',(-2.626057259322E-1,8.763789253401E-4,
-3.148772878106E-2));
#195=CARTESIAN_POINT('',(-2.761825388365E-1,8.610134953043E-4,
-3.148772878106E-2));
#196=CARTESIAN_POINT('',(-2.854603087087E-1,9.041112070572E-4,
-3.148772878106E-2));
#197=CARTESIAN_POINT('',(-2.939017597899E-1,7.819607658226E-4,
-3.148772878106E-2));
#198=CARTESIAN_POINT('',(-3.014439157558E-1,3.408152824981E-4,
-3.148772878106E-2));
#199=CARTESIAN_POINT('',(-3.089565130108E-1,-3.760651055575E-4,
-3.148772878106E-2));
#200=CARTESIAN_POINT('',(-3.189330266362E-1,-1.717514887141E-3,
-3.148772878106E-2));
#201=CARTESIAN_POINT('',(-3.312956815956E-1,-4.106490558748E-3,
-3.148772878106E-2));
#202=CARTESIAN_POINT('',(-3.458723331050E-1,-8.096650166124E-3,
-3.148772878106E-2));
#203=CARTESIAN_POINT('',(-3.601014868234E-1,-1.318892728098E-2,
-3.148772878106E-2));
#204=CARTESIAN_POINT('',(-3.715986458734E-1,-1.832291698096E-2,
-3.148772878106E-2));
#205=CARTESIAN_POINT('',(-3.805403416431E-1,-2.294636629342E-2,
-3.148772878106E-2));
#206=CARTESIAN_POINT('',(-3.871055164916E-1,-2.666815803695E-2,
-3.148772878106E-2));
#207=CARTESIAN_POINT('',(-3.935366079304E-1,-3.063288205015E-2,
-3.148772878106E-2));
#208=CARTESIAN_POINT('',(-4.004287299467E-1,-3.531099248143E-2,
-3.148772878106E-2));
#209=CARTESIAN_POINT('',(-4.078215085417E-1,-4.053808630991E-2,
-3.148772878106E-2));
#210=CARTESIAN_POINT('',(-4.185836941118E-1,-4.805594193931E-2,
-3.148772878106E-2));
#211=CARTESIAN_POINT('',(-4.389836558749E-1,-6.235251151715E-2,
-3.148772878106E-2));
#212=CARTESIAN_POINT('',(-4.567092307766E-1,-7.475713187222E-2,
-3.148772878106E-2));
#213=CARTESIAN_POINT('',(-4.690541445269E-1,-8.340249092034E-2,
-3.148772878106E-2));
#214=CARTESIAN_POINT('',(1.239525916983E-1,-9.252267049190E-4,
-3.152210740170E-2));
#215=CARTESIAN_POINT('',(9.575842745395E-2,-9.252467105520E-4,
-3.152210740170E-2));
#216=CARTESIAN_POINT('',(1.327601667016E-2,-9.248391488834E-4,
-3.152210740170E-2));
#217=CARTESIAN_POINT('',(-9.634945605839E-2,-9.272620998855E-4,
-3.152210740170E-2));
#218=CARTESIAN_POINT('',(-1.913553044862E-1,-9.224493908853E-4,
-3.152210740170E-2));
#219=CARTESIAN_POINT('',(-2.388550560262E-1,-9.291435109786E-4,
-3.152210740170E-2));
#220=CARTESIAN_POINT('',(-2.626093895720E-1,-9.197039194636E-4,
-3.152210740170E-2));
#221=CARTESIAN_POINT('',(-2.761761057930E-1,-9.349297734760E-4,
-3.152210740170E-2));
#222=CARTESIAN_POINT('',(-2.854821953376E-1,-8.922235513993E-4,
-3.152210740170E-2));
#223=CARTESIAN_POINT('',(-2.938433808933E-1,-1.013264406191E-3,
-3.152210740170E-2));
#224=CARTESIAN_POINT('',(-3.013041720060E-1,-1.450402720009E-3,
-3.152210740170E-2));
#225=CARTESIAN_POINT('',(-3.087519509842E-1,-2.160771037113E-3,
-3.152210740170E-2));
#226=CARTESIAN_POINT('',(-3.186367214154E-1,-3.490036405516E-3,
-3.152210740170E-2));
#227=CARTESIAN_POINT('',(-3.308876186584E-1,-5.857304870339E-3,
-3.152210740170E-2));
#228=CARTESIAN_POINT('',(-3.453317227367E-1,-9.811246379186E-3,
-3.152210740170E-2));
#229=CARTESIAN_POINT('',(-3.594315274441E-1,-1.485716622987E-2,
-3.152210740170E-2));
#230=CARTESIAN_POINT('',(-3.708246859781E-1,-1.994483370934E-2,
-3.152210740170E-2));
#231=CARTESIAN_POINT('',(-3.796842478284E-1,-2.452564651691E-2,
-3.152210740170E-2));
#232=CARTESIAN_POINT('',(-3.861925719737E-1,-2.821558113962E-2,
-3.152210740170E-2));
#233=CARTESIAN_POINT('',(-3.925547880455E-1,-3.213696845770E-2,
-3.152210740170E-2));
#234=CARTESIAN_POINT('',(-3.993811084050E-1,-3.677034670269E-2,
-3.152210740170E-2));
#235=CARTESIAN_POINT('',(-4.067964201465E-1,-4.201275863947E-2,
-3.152210740170E-2));
#236=CARTESIAN_POINT('',(-4.175506333048E-1,-4.952519459674E-2,
-3.152210740170E-2));
#237=CARTESIAN_POINT('',(-4.379560987773E-1,-6.382550561455E-2,
-3.152210740170E-2));
#238=CARTESIAN_POINT('',(-4.556785747869E-1,-7.622801933250E-2,
-3.152210740170E-2));
#239=CARTESIAN_POINT('',(-4.680240928317E-1,-8.487378918199E-2,
-3.152210740170E-2));
#240=CARTESIAN_POINT('',(1.239525893631E-1,-4.081889389703E-3,
-3.133328543229E-2));
#241=CARTESIAN_POINT('',(9.575844843529E-2,-4.081909073010E-3,
-3.133328543229E-2));
#242=CARTESIAN_POINT('',(1.327556263964E-2,-4.081508077881E-3,
-3.133328543229E-2));
#243=CARTESIAN_POINT('',(-9.634708614701E-2,-4.083891990857E-3,
-3.133328543229E-2));
#244=CARTESIAN_POINT('',(-1.913585437722E-1,-4.079156823110E-3,
-3.133328543229E-2));
#245=CARTESIAN_POINT('',(-2.388504933360E-1,-4.085743089090E-3,
-3.133328543229E-2));
#246=CARTESIAN_POINT('',(-2.626158286965E-1,-4.076455586088E-3,
-3.133328543229E-2));
#247=CARTESIAN_POINT('',(-2.761647992318E-1,-4.091436124665E-3,
-3.133328543229E-2));
#248=CARTESIAN_POINT('',(-2.855206627461E-1,-4.049417975353E-3,
-3.133328543229E-2));
#249=CARTESIAN_POINT('',(-2.937407755600E-1,-4.168508647911E-3,
-3.133328543229E-2));
#250=CARTESIAN_POINT('',(-3.010585617790E-1,-4.598604057748E-3,
-3.133328543229E-2));
#251=CARTESIAN_POINT('',(-3.083924177252E-1,-5.297526916817E-3,
-3.133328543229E-2));
#252=CARTESIAN_POINT('',(-3.181159425426E-1,-6.605377255992E-3,
-3.133328543229E-2));
#253=CARTESIAN_POINT('',(-3.301704171324E-1,-8.934493660409E-3,
-3.133328543229E-2));
#254=CARTESIAN_POINT('',(-3.443815590591E-1,-1.282477911729E-2,
-3.133328543229E-2));
#255=CARTESIAN_POINT('',(-3.582540230805E-1,-1.778922256428E-2,
-3.133328543229E-2));
#256=CARTESIAN_POINT('',(-3.694643928287E-1,-2.279547523194E-2,
-3.133328543229E-2));
#257=CARTESIAN_POINT('',(-3.781795980937E-1,-2.730135115212E-2,
-3.133328543229E-2));
#258=CARTESIAN_POINT('',(-3.845880028209E-1,-3.093529447159E-2,
-3.133328543229E-2));
#259=CARTESIAN_POINT('',(-3.908291652176E-1,-3.478051426492E-2,
-3.133328543229E-2));
#260=CARTESIAN_POINT('',(-3.975398341800E-1,-3.933527230368E-2,
-3.133328543229E-2));
#261=CARTESIAN_POINT('',(-4.049947496336E-1,-4.460460697625E-2,
-3.133328543229E-2));
#262=CARTESIAN_POINT('',(-4.157349506744E-1,-5.210751744917E-2,
-3.133328543229E-2));
#263=CARTESIAN_POINT('',(-4.361500893328E-1,-6.641440433120E-2,
-3.133328543229E-2));
#264=CARTESIAN_POINT('',(-4.538671188051E-1,-7.881321547480E-2,
-3.133328543229E-2));
#265=CARTESIAN_POINT('',(-4.662136989431E-1,-8.745970733882E-2,
-3.133328543229E-2));
#266=CARTESIAN_POINT('',(1.239525847511E-1,-1.031642692047E-2,
-3.008014102197E-2));
#267=CARTESIAN_POINT('',(9.575848987431E-2,-1.031644596717E-2,
-3.008014102197E-2));
#268=CARTESIAN_POINT('',(1.327466591085E-2,-1.031605794122E-2,
-3.008014102197E-2));
#269=CARTESIAN_POINT('',(-9.634240547540E-2,-1.031836475251E-2,
-3.008014102197E-2));
#270=CARTESIAN_POINT('',(-1.913649414943E-1,-1.031378273190E-2,
-3.008014102197E-2));
#271=CARTESIAN_POINT('',(-2.388414818368E-1,-1.032015598160E-2,
-3.008014102197E-2));
#272=CARTESIAN_POINT('',(-2.626285462300E-1,-1.031116885962E-2,
-3.008014102197E-2));
#273=CARTESIAN_POINT('',(-2.761424683123E-1,-1.032566489021E-2,
-3.008014102197E-2));
#274=CARTESIAN_POINT('',(-2.855966374466E-1,-1.028500571266E-2,
-3.008014102197E-2));
#275=CARTESIAN_POINT('',(-2.935381258425E-1,-1.040024469578E-2,
-3.008014102197E-2));
#276=CARTESIAN_POINT('',(-3.005734715649E-1,-1.081643008305E-2,
-3.008014102197E-2));
#277=CARTESIAN_POINT('',(-3.076823248771E-1,-1.149274769575E-2,
-3.008014102197E-2));
#278=CARTESIAN_POINT('',(-3.170873830315E-1,-1.275830247890E-2,
-3.008014102197E-2));
#279=CARTESIAN_POINT('',(-3.287539148710E-1,-1.501206700818E-2,
-3.008014102197E-2));
#280=CARTESIAN_POINT('',(-3.425049470482E-1,-1.877662916656E-2,
-3.008014102197E-2));
#281=CARTESIAN_POINT('',(-3.559284039439E-1,-2.358015339364E-2,
-3.008014102197E-2));
#282=CARTESIAN_POINT('',(-3.667777583859E-1,-2.842560848790E-2,
-3.008014102197E-2));
#283=CARTESIAN_POINT('',(-3.752078535080E-1,-3.278348099957E-2,
-3.008014102197E-2));
#284=CARTESIAN_POINT('',(-3.814189133102E-1,-3.630683921182E-2,
-3.008014102197E-2));
#285=CARTESIAN_POINT('',(-3.874209897618E-1,-4.000162503764E-2,
-3.008014102197E-2));
#286=CARTESIAN_POINT('',(-3.939032424989E-1,-4.440110496299E-2,
-3.008014102197E-2));
#287=CARTESIAN_POINT('',(-4.014363768987E-1,-4.972361313666E-2,
-3.008014102197E-2));
#288=CARTESIAN_POINT('',(-4.121489034359E-1,-5.720771038955E-2,
-3.008014102197E-2));
#289=CARTESIAN_POINT('',(-4.325831470313E-1,-7.152758487154E-2,
-3.008014102197E-2));
#290=CARTESIAN_POINT('',(-4.502894193700E-1,-8.391908327983E-2,
-3.008014102197E-2));
#291=CARTESIAN_POINT('',(-4.626380971855E-1,-9.256700115201E-2,
-3.008014102197E-2));
#292=CARTESIAN_POINT('',(1.239525783080E-1,-1.902614649144E-2,
-2.615561072749E-2));
#293=CARTESIAN_POINT('',(9.575854776508E-2,-1.902616464879E-2,
-2.615561072749E-2));
#294=CARTESIAN_POINT('',(1.327341317057E-2,-1.902579474094E-2,
-2.615561072749E-2));
#295=CARTESIAN_POINT('',(-9.633586652412E-2,-1.902799384029E-2,
-2.615561072749E-2));
#296=CARTESIAN_POINT('',(-1.913738791846E-1,-1.902362576796E-2,
-2.615561072749E-2));
#297=CARTESIAN_POINT('',(-2.388288926703E-1,-1.902970143153E-2,
-2.615561072749E-2));
#298=CARTESIAN_POINT('',(-2.626463127684E-1,-1.902113394522E-2,
-2.615561072749E-2));
#299=CARTESIAN_POINT('',(-2.761112717647E-1,-1.903495311266E-2,
-2.615561072749E-2));
#300=CARTESIAN_POINT('',(-2.857027749639E-1,-1.899619243408E-2,
-2.615561072749E-2));
#301=CARTESIAN_POINT('',(-2.932550218910E-1,-1.910605056341E-2,
-2.615561072749E-2));
#302=CARTESIAN_POINT('',(-2.998957950394E-1,-1.950280349153E-2,
-2.615561072749E-2));
#303=CARTESIAN_POINT('',(-3.066903171225E-1,-2.014754131894E-2,
-2.615561072749E-2));
#304=CARTESIAN_POINT('',(-3.156504737404E-1,-2.135400873109E-2,
-2.615561072749E-2));
#305=CARTESIAN_POINT('',(-3.267750451623E-1,-2.350250583702E-2,
-2.615561072749E-2));
#306=CARTESIAN_POINT('',(-3.398832988061E-1,-2.709143112287E-2,
-2.615561072749E-2));
#307=CARTESIAN_POINT('',(-3.526794876596E-1,-3.167014937646E-2,
-2.615561072749E-2));
#308=CARTESIAN_POINT('',(-3.630244996285E-1,-3.629096843874E-2,
-2.615561072749E-2));
#309=CARTESIAN_POINT('',(-3.710562926506E-1,-4.044207851179E-2,
-2.615561072749E-2));
#310=CARTESIAN_POINT('',(-3.769916593563E-1,-4.381094807625E-2,
-2.615561072749E-2));
#311=CARTESIAN_POINT('',(-3.826597300338E-1,-4.729557594499E-2,
-2.615561072749E-2));
#312=CARTESIAN_POINT('',(-3.888228827159E-1,-5.147813058653E-2,
-2.615561072749E-2));
#313=CARTESIAN_POINT('',(-3.964652898699E-1,-5.687492274370E-2,
-2.615561072749E-2));
#314=CARTESIAN_POINT('',(-4.071391548120E-1,-6.433273771504E-2,
-2.615561072749E-2));
#315=CARTESIAN_POINT('',(-4.276000882207E-1,-7.867075602134E-2,
-2.615561072749E-2));
#316=CARTESIAN_POINT('',(-4.452913327221E-1,-9.105203845555E-2,
-2.615561072749E-2));
#317=CARTESIAN_POINT('',(-4.576429410167E-1,-9.970194847727E-2,
-2.615561072749E-2));
#318=CARTESIAN_POINT('',(1.239525711467E-1,-2.870674688093E-2,
-1.569361237139E-2));
#319=CARTESIAN_POINT('',(9.575861210899E-2,-2.870676404980E-2,
-1.569361237139E-2));
#320=CARTESIAN_POINT('',(1.327202078613E-2,-2.870641427968E-2,
-1.569361237139E-2));
#321=CARTESIAN_POINT('',(-9.632859866964E-2,-2.870849366034E-2,
-1.569361237139E-2));
#322=CARTESIAN_POINT('',(-1.913838131678E-1,-2.870436338532E-2,
-1.569361237139E-2));
#323=CARTESIAN_POINT('',(-2.388149001774E-1,-2.871010829052E-2,
-1.569361237139E-2));
#324=CARTESIAN_POINT('',(-2.626660597600E-1,-2.870200721710E-2,
-1.569361237139E-2));
#325=CARTESIAN_POINT('',(-2.760765977080E-1,-2.871507407080E-2,
-1.569361237139E-2));
#326=CARTESIAN_POINT('',(-2.858207437324E-1,-2.867842351868E-2,
-1.569361237139E-2));
#327=CARTESIAN_POINT('',(-2.929403600697E-1,-2.878230098527E-2,
-1.569361237139E-2));
#328=CARTESIAN_POINT('',(-2.991425772598E-1,-2.915745529935E-2,
-1.569361237139E-2));
#329=CARTESIAN_POINT('',(-3.055877293094E-1,-2.976709311241E-2,
-1.569361237139E-2));
#330=CARTESIAN_POINT('',(-3.140533907885E-1,-3.090788662748E-2,
-1.569361237139E-2));
#331=CARTESIAN_POINT('',(-3.245755889436E-1,-3.293938204912E-2,
-1.569361237139E-2));
#332=CARTESIAN_POINT('',(-3.369694129126E-1,-3.633309205132E-2,
-1.569361237139E-2));
#333=CARTESIAN_POINT('',(-3.490684115520E-1,-4.066194499330E-2,
-1.569361237139E-2));
#334=CARTESIAN_POINT('',(-3.588528615072E-1,-4.503308762906E-2,
-1.569361237139E-2));
#335=CARTESIAN_POINT('',(-3.664419533109E-1,-4.895438725554E-2,
-1.569361237139E-2));
#336=CARTESIAN_POINT('',(-3.720708951456E-1,-5.215154717406E-2,
-1.569361237139E-2));
#337=CARTESIAN_POINT('',(-3.773677281039E-1,-5.540259057608E-2,
-1.569361237139E-2));
#338=CARTESIAN_POINT('',(-3.831762103410E-1,-5.934403906375E-2,
-1.569361237139E-2));
#339=CARTESIAN_POINT('',(-3.909400709882E-1,-6.482339571154E-2,
-1.569361237139E-2));
#340=CARTESIAN_POINT('',(-4.015709646901E-1,-7.225199869012E-2,
-1.569361237139E-2));
#341=CARTESIAN_POINT('',(-4.220615630513E-1,-8.661018333028E-2,
-1.569361237139E-2));
#342=CARTESIAN_POINT('',(-4.397361045478E-1,-9.898011100594E-2,
-1.569361237139E-2));
#343=CARTESIAN_POINT('',(-4.520909699849E-1,-1.076322352440E-1,
-1.569361237139E-2));
#344=CARTESIAN_POINT('',(1.239525680516E-1,-3.289071851131E-2,0.E0));
#345=CARTESIAN_POINT('',(9.575863991853E-2,-3.289073525295E-2,0.E0));
#346=CARTESIAN_POINT('',(1.327141899525E-2,-3.289039418640E-2,0.E0));
#347=CARTESIAN_POINT('',(-9.632545749082E-2,-3.289242182444E-2,0.E0));
#348=CARTESIAN_POINT('',(-1.913881066519E-1,-3.288839432581E-2,0.E0));
#349=CARTESIAN_POINT('',(-2.388088525986E-1,-3.289399627670E-2,0.E0));
#350=CARTESIAN_POINT('',(-2.626745944426E-1,-3.288609678770E-2,0.E0));
#351=CARTESIAN_POINT('',(-2.760616115228E-1,-3.289883849015E-2,0.E0));
#352=CARTESIAN_POINT('',(-2.858717300309E-1,-3.286309993820E-2,0.E0));
#353=CARTESIAN_POINT('',(-2.928043627058E-1,-3.296439255239E-2,0.E0));
#354=CARTESIAN_POINT('',(-2.988170352795E-1,-3.333021190946E-2,0.E0));
#355=CARTESIAN_POINT('',(-3.051111890180E-1,-3.392467943779E-2,0.E0));
#356=CARTESIAN_POINT('',(-3.133631288735E-1,-3.503708858503E-2,0.E0));
#357=CARTESIAN_POINT('',(-3.236249802984E-1,-3.701801568364E-2,0.E0));
#358=CARTESIAN_POINT('',(-3.357100265706E-1,-4.032735331473E-2,0.E0));
#359=CARTESIAN_POINT('',(-3.475076984370E-1,-4.454821405239E-2,0.E0));
#360=CARTESIAN_POINT('',(-3.570498725550E-1,-4.881144612027E-2,0.E0));
#361=CARTESIAN_POINT('',(-3.644476281540E-1,-5.263342128856E-2,0.E0));
#362=CARTESIAN_POINT('',(-3.699441326486E-1,-5.575636801178E-2,0.E0));
#363=CARTESIAN_POINT('',(-3.750805160456E-1,-5.890645581778E-2,0.E0));
#364=CARTESIAN_POINT('',(-3.807357091250E-1,-6.274369782372E-2,0.E0));
#365=CARTESIAN_POINT('',(-3.885520621745E-1,-6.825873898202E-2,0.E0));
#366=CARTESIAN_POINT('',(-3.991643836346E-1,-7.567471648863E-2,0.E0));
#367=CARTESIAN_POINT('',(-4.196678032378E-1,-9.004161705190E-2,0.E0));
#368=CARTESIAN_POINT('',(-4.373351256677E-1,-1.024066371820E-1,0.E0));
#369=CARTESIAN_POINT('',(-4.496913988473E-1,-1.110597184081E-1,0.E0));
#370=CARTESIAN_POINT('',(1.239525711467E-1,-2.870674688093E-2,
1.569361237139E-2));
#371=CARTESIAN_POINT('',(9.575861210899E-2,-2.870676404980E-2,
1.569361237139E-2));
#372=CARTESIAN_POINT('',(1.327202078613E-2,-2.870641427968E-2,
1.569361237139E-2));
#373=CARTESIAN_POINT('',(-9.632859866964E-2,-2.870849366034E-2,
1.569361237139E-2));
#374=CARTESIAN_POINT('',(-1.913838131678E-1,-2.870436338532E-2,
1.569361237139E-2));
#375=CARTESIAN_POINT('',(-2.388149001774E-1,-2.871010829052E-2,
1.569361237139E-2));
#376=CARTESIAN_POINT('',(-2.626660597600E-1,-2.870200721710E-2,
1.569361237139E-2));
#377=CARTESIAN_POINT('',(-2.760765977080E-1,-2.871507407080E-2,
1.569361237139E-2));
#378=CARTESIAN_POINT('',(-2.858207437324E-1,-2.867842351868E-2,
1.569361237139E-2));
#379=CARTESIAN_POINT('',(-2.929403600697E-1,-2.878230098527E-2,
1.569361237139E-2));
#380=CARTESIAN_POINT('',(-2.991425772598E-1,-2.915745529935E-2,
1.569361237139E-2));
#381=CARTESIAN_POINT('',(-3.055877293094E-1,-2.976709311241E-2,
1.569361237139E-2));
#382=CARTESIAN_POINT('',(-3.140533907885E-1,-3.090788662748E-2,
1.569361237139E-2));
#383=CARTESIAN_POINT('',(-3.245755889436E-1,-3.293938204912E-2,
1.569361237139E-2));
#384=CARTESIAN_POINT('',(-3.369694129126E-1,-3.633309205132E-2,
1.569361237139E-2));
#385=CARTESIAN_POINT('',(-3.490684115520E-1,-4.066194499330E-2,
1.569361237139E-2));
#386=CARTESIAN_POINT('',(-3.588528615072E-1,-4.503308762906E-2,
1.569361237139E-2));
#387=CARTESIAN_POINT('',(-3.664419533109E-1,-4.895438725554E-2,
1.569361237139E-2));
#388=CARTESIAN_POINT('',(-3.720708951456E-1,-5.215154717406E-2,
1.569361237139E-2));
#389=CARTESIAN_POINT('',(-3.773677281039E-1,-5.540259057608E-2,
1.569361237139E-2));
#390=CARTESIAN_POINT('',(-3.831762103410E-1,-5.934403906375E-2,
1.569361237139E-2));
#391=CARTESIAN_POINT('',(-3.909400709882E-1,-6.482339571154E-2,
1.569361237139E-2));
#392=CARTESIAN_POINT('',(-4.015709646901E-1,-7.225199869012E-2,
1.569361237139E-2));
#393=CARTESIAN_POINT('',(-4.220615630513E-1,-8.661018333028E-2,
1.569361237139E-2));
#394=CARTESIAN_POINT('',(-4.397361045478E-1,-9.898011100594E-2,
1.569361237139E-2));
#395=CARTESIAN_POINT('',(-4.520909699849E-1,-1.076322352440E-1,
1.569361237139E-2));
#396=CARTESIAN_POINT('',(1.239525783080E-1,-1.902614649144E-2,
2.615561072749E-2));
#397=CARTESIAN_POINT('',(9.575854776508E-2,-1.902616464879E-2,
2.615561072749E-2));
#398=CARTESIAN_POINT('',(1.327341317057E-2,-1.902579474094E-2,
2.615561072749E-2));
#399=CARTESIAN_POINT('',(-9.633586652412E-2,-1.902799384029E-2,
2.615561072749E-2));
#400=CARTESIAN_POINT('',(-1.913738791846E-1,-1.902362576796E-2,
2.615561072749E-2));
#401=CARTESIAN_POINT('',(-2.388288926703E-1,-1.902970143153E-2,
2.615561072749E-2));
#402=CARTESIAN_POINT('',(-2.626463127684E-1,-1.902113394522E-2,
2.615561072749E-2));
#403=CARTESIAN_POINT('',(-2.761112717647E-1,-1.903495311266E-2,
2.615561072749E-2));
#404=CARTESIAN_POINT('',(-2.857027749639E-1,-1.899619243408E-2,
2.615561072749E-2));
#405=CARTESIAN_POINT('',(-2.932550218910E-1,-1.910605056341E-2,
2.615561072749E-2));
#406=CARTESIAN_POINT('',(-2.998957950394E-1,-1.950280349153E-2,
2.615561072749E-2));
#407=CARTESIAN_POINT('',(-3.066903171225E-1,-2.014754131894E-2,
2.615561072749E-2));
#408=CARTESIAN_POINT('',(-3.156504737404E-1,-2.135400873109E-2,
2.615561072749E-2));
#409=CARTESIAN_POINT('',(-3.267750451623E-1,-2.350250583702E-2,
2.615561072749E-2));
#410=CARTESIAN_POINT('',(-3.398832988061E-1,-2.709143112287E-2,
2.615561072749E-2));
#411=CARTESIAN_POINT('',(-3.526794876596E-1,-3.167014937646E-2,
2.615561072749E-2));
#412=CARTESIAN_POINT('',(-3.630244996285E-1,-3.629096843874E-2,
2.615561072749E-2));
#413=CARTESIAN_POINT('',(-3.710562926506E-1,-4.044207851179E-2,
2.615561072749E-2));
#414=CARTESIAN_POINT('',(-3.769916593563E-1,-4.381094807625E-2,
2.615561072749E-2));
#415=CARTESIAN_POINT('',(-3.826597300338E-1,-4.729557594499E-2,
2.615561072749E-2));
#416=CARTESIAN_POINT('',(-3.888228827159E-1,-5.147813058653E-2,
2.615561072749E-2));
#417=CARTESIAN_POINT('',(-3.964652898699E-1,-5.687492274370E-2,
2.615561072749E-2));
#418=CARTESIAN_POINT('',(-4.071391548120E-1,-6.433273771504E-2,
2.615561072749E-2));
#419=CARTESIAN_POINT('',(-4.276000882207E-1,-7.867075602134E-2,
2.615561072749E-2));
#420=CARTESIAN_POINT('',(-4.452913327221E-1,-9.105203845555E-2,
2.615561072749E-2));
#421=CARTESIAN_POINT('',(-4.576429410167E-1,-9.970194847727E-2,
2.615561072749E-2));
#422=CARTESIAN_POINT('',(1.239525847511E-1,-1.031642692047E-2,
3.008014102197E-2));
#423=CARTESIAN_POINT('',(9.575848987431E-2,-1.031644596717E-2,
3.008014102197E-2));
#424=CARTESIAN_POINT('',(1.327466591085E-2,-1.031605794122E-2,
3.008014102197E-2));
#425=CARTESIAN_POINT('',(-9.634240547540E-2,-1.031836475251E-2,
3.008014102197E-2));
#426=CARTESIAN_POINT('',(-1.913649414943E-1,-1.031378273190E-2,
3.008014102197E-2));
#427=CARTESIAN_POINT('',(-2.388414818368E-1,-1.032015598160E-2,
3.008014102197E-2));
#428=CARTESIAN_POINT('',(-2.626285462300E-1,-1.031116885962E-2,
3.008014102197E-2));
#429=CARTESIAN_POINT('',(-2.761424683123E-1,-1.032566489021E-2,
3.008014102197E-2));
#430=CARTESIAN_POINT('',(-2.855966374466E-1,-1.028500571266E-2,
3.008014102197E-2));
#431=CARTESIAN_POINT('',(-2.935381258425E-1,-1.040024469578E-2,
3.008014102197E-2));
#432=CARTESIAN_POINT('',(-3.005734715649E-1,-1.081643008305E-2,
3.008014102197E-2));
#433=CARTESIAN_POINT('',(-3.076823248771E-1,-1.149274769575E-2,
3.008014102197E-2));
#434=CARTESIAN_POINT('',(-3.170873830315E-1,-1.275830247890E-2,
3.008014102197E-2));
#435=CARTESIAN_POINT('',(-3.287539148710E-1,-1.501206700818E-2,
3.008014102197E-2));
#436=CARTESIAN_POINT('',(-3.425049470482E-1,-1.877662916656E-2,
3.008014102197E-2));
#437=CARTESIAN_POINT('',(-3.559284039439E-1,-2.358015339364E-2,
3.008014102197E-2));
#438=CARTESIAN_POINT('',(-3.667777583859E-1,-2.842560848790E-2,
3.008014102197E-2));
#439=CARTESIAN_POINT('',(-3.752078535080E-1,-3.278348099957E-2,
3.008014102197E-2));
#440=CARTESIAN_POINT('',(-3.814189133102E-1,-3.630683921182E-2,
3.008014102197E-2));
#441=CARTESIAN_POINT('',(-3.874209897619E-1,-4.000162503764E-2,
3.008014102197E-2));
#442=CARTESIAN_POINT('',(-3.939032424989E-1,-4.440110496299E-2,
3.008014102197E-2));
#443=CARTESIAN_POINT('',(-4.014363768987E-1,-4.972361313666E-2,
3.008014102197E-2));
#444=CARTESIAN_POINT('',(-4.121489034359E-1,-5.720771038955E-2,
3.008014102197E-2));
#445=CARTESIAN_POINT('',(-4.325831470313E-1,-7.152758487154E-2,
3.008014102197E-2));
#446=CARTESIAN_POINT('',(-4.502894193700E-1,-8.391908327983E-2,
3.008014102197E-2));
#447=CARTESIAN_POINT('',(-4.626380971855E-1,-9.256700115201E-2,
3.008014102197E-2));
#448=CARTESIAN_POINT('',(1.239525893631E-1,-4.081889389703E-3,
3.133328543229E-2));
#449=CARTESIAN_POINT('',(9.575844843529E-2,-4.081909073010E-3,
3.133328543229E-2));
#450=CARTESIAN_POINT('',(1.327556263964E-2,-4.081508077881E-3,
3.133328543229E-2));
#451=CARTESIAN_POINT('',(-9.634708614701E-2,-4.083891990857E-3,
3.133328543229E-2));
#452=CARTESIAN_POINT('',(-1.913585437722E-1,-4.079156823110E-3,
3.133328543229E-2));
#453=CARTESIAN_POINT('',(-2.388504933360E-1,-4.085743089090E-3,
3.133328543229E-2));
#454=CARTESIAN_POINT('',(-2.626158286965E-1,-4.076455586088E-3,
3.133328543229E-2));
#455=CARTESIAN_POINT('',(-2.761647992318E-1,-4.091436124665E-3,
3.133328543229E-2));
#456=CARTESIAN_POINT('',(-2.855206627461E-1,-4.049417975353E-3,
3.133328543229E-2));
#457=CARTESIAN_POINT('',(-2.937407755600E-1,-4.168508647911E-3,
3.133328543229E-2));
#458=CARTESIAN_POINT('',(-3.010585617790E-1,-4.598604057748E-3,
3.133328543229E-2));
#459=CARTESIAN_POINT('',(-3.083924177252E-1,-5.297526916817E-3,
3.133328543229E-2));
#460=CARTESIAN_POINT('',(-3.181159425426E-1,-6.605377255992E-3,
3.133328543229E-2));
#461=CARTESIAN_POINT('',(-3.301704171324E-1,-8.934493660409E-3,
3.133328543229E-2));
#462=CARTESIAN_POINT('',(-3.443815590591E-1,-1.282477911729E-2,
3.133328543229E-2));
#463=CARTESIAN_POINT('',(-3.582540230805E-1,-1.778922256428E-2,
3.133328543229E-2));
#464=CARTESIAN_POINT('',(-3.694643928287E-1,-2.279547523194E-2,
3.133328543229E-2));
#465=CARTESIAN_POINT('',(-3.781795980937E-1,-2.730135115212E-2,
3.133328543229E-2));
#466=CARTESIAN_POINT('',(-3.845880028209E-1,-3.093529447159E-2,
3.133328543229E-2));
#467=CARTESIAN_POINT('',(-3.908291652176E-1,-3.478051426492E-2,
3.133328543229E-2));
#468=CARTESIAN_POINT('',(-3.975398341800E-1,-3.933527230368E-2,
3.133328543229E-2));
#469=CARTESIAN_POINT('',(-4.049947496336E-1,-4.460460697625E-2,
3.133328543229E-2));
#470=CARTESIAN_POINT('',(-4.157349506744E-1,-5.210751744917E-2,
3.133328543229E-2));
#471=CARTESIAN_POINT('',(-4.361500893328E-1,-6.641440433120E-2,
3.133328543229E-2));
#472=CARTESIAN_POINT('',(-4.538671188051E-1,-7.881321547480E-2,
3.133328543229E-2));
#473=CARTESIAN_POINT('',(-4.662136989431E-1,-8.745970733882E-2,
3.133328543229E-2));
#474=CARTESIAN_POINT('',(1.239525916983E-1,-9.252267049190E-4,
3.152210740170E-2));
#475=CARTESIAN_POINT('',(9.575842745395E-2,-9.252467105520E-4,
3.152210740170E-2));
#476=CARTESIAN_POINT('',(1.327601667016E-2,-9.248391488834E-4,
3.152210740170E-2));
#477=CARTESIAN_POINT('',(-9.634945605839E-2,-9.272620998855E-4,
3.152210740170E-2));
#478=CARTESIAN_POINT('',(-1.913553044862E-1,-9.224493908853E-4,
3.152210740170E-2));
#479=CARTESIAN_POINT('',(-2.388550560262E-1,-9.291435109786E-4,
3.152210740170E-2));
#480=CARTESIAN_POINT('',(-2.626093895720E-1,-9.197039194636E-4,
3.152210740170E-2));
#481=CARTESIAN_POINT('',(-2.761761057930E-1,-9.349297734760E-4,
3.152210740170E-2));
#482=CARTESIAN_POINT('',(-2.854821953376E-1,-8.922235513993E-4,
3.152210740170E-2));
#483=CARTESIAN_POINT('',(-2.938433808933E-1,-1.013264406191E-3,
3.152210740170E-2));
#484=CARTESIAN_POINT('',(-3.013041720060E-1,-1.450402720009E-3,
3.152210740170E-2));
#485=CARTESIAN_POINT('',(-3.087519509842E-1,-2.160771037113E-3,
3.152210740170E-2));
#486=CARTESIAN_POINT('',(-3.186367214154E-1,-3.490036405516E-3,
3.152210740170E-2));
#487=CARTESIAN_POINT('',(-3.308876186584E-1,-5.857304870339E-3,
3.152210740170E-2));
#488=CARTESIAN_POINT('',(-3.453317227367E-1,-9.811246379186E-3,
3.152210740170E-2));
#489=CARTESIAN_POINT('',(-3.594315274441E-1,-1.485716622987E-2,
3.152210740170E-2));
#490=CARTESIAN_POINT('',(-3.708246859781E-1,-1.994483370934E-2,
3.152210740170E-2));
#491=CARTESIAN_POINT('',(-3.796842478284E-1,-2.452564651691E-2,
3.152210740170E-2));
#492=CARTESIAN_POINT('',(-3.861925719737E-1,-2.821558113962E-2,
3.152210740170E-2));
#493=CARTESIAN_POINT('',(-3.925547880455E-1,-3.213696845770E-2,
3.152210740170E-2));
#494=CARTESIAN_POINT('',(-3.993811084050E-1,-3.677034670269E-2,
3.152210740170E-2));
#495=CARTESIAN_POINT('',(-4.067964201465E-1,-4.201275863947E-2,
3.152210740170E-2));
#496=CARTESIAN_POINT('',(-4.175506333048E-1,-4.952519459674E-2,
3.152210740170E-2));
#497=CARTESIAN_POINT('',(-4.379560987773E-1,-6.382550561455E-2,
3.152210740170E-2));
#498=CARTESIAN_POINT('',(-4.556785747869E-1,-7.622801933250E-2,
3.152210740170E-2));
#499=CARTESIAN_POINT('',(-4.680240928317E-1,-8.487378918199E-2,
3.152210740170E-2));
#500=CARTESIAN_POINT('',(1.239525930269E-1,8.708055122856E-4,
3.148772878106E-2));
#501=CARTESIAN_POINT('',(9.575841551629E-2,8.707853232602E-4,
3.148772878106E-2));
#502=CARTESIAN_POINT('',(1.327627499787E-2,8.711966210633E-4,
3.148772878106E-2));
#503=CARTESIAN_POINT('',(-9.635080445625E-2,8.687514587706E-4,
3.148772878106E-2));
#504=CARTESIAN_POINT('',(-1.913534614441E-1,8.736082860702E-4,
3.148772878106E-2));
#505=CARTESIAN_POINT('',(-2.388576520395E-1,8.668528007055E-4,
3.148772878106E-2));
#506=CARTESIAN_POINT('',(-2.626057259322E-1,8.763789253401E-4,
3.148772878106E-2));
#507=CARTESIAN_POINT('',(-2.761825388365E-1,8.610134953043E-4,
3.148772878106E-2));
#508=CARTESIAN_POINT('',(-2.854603087087E-1,9.041112070572E-4,
3.148772878106E-2));
#509=CARTESIAN_POINT('',(-2.939017597899E-1,7.819607658226E-4,
3.148772878106E-2));
#510=CARTESIAN_POINT('',(-3.014439157558E-1,3.408152824981E-4,
3.148772878106E-2));
#511=CARTESIAN_POINT('',(-3.089565130108E-1,-3.760651055575E-4,
3.148772878106E-2));
#512=CARTESIAN_POINT('',(-3.189330266362E-1,-1.717514887141E-3,
3.148772878106E-2));
#513=CARTESIAN_POINT('',(-3.312956815956E-1,-4.106490558748E-3,
3.148772878106E-2));
#514=CARTESIAN_POINT('',(-3.458723331050E-1,-8.096650166124E-3,
3.148772878106E-2));
#515=CARTESIAN_POINT('',(-3.601014868234E-1,-1.318892728098E-2,
3.148772878106E-2));
#516=CARTESIAN_POINT('',(-3.715986458734E-1,-1.832291698096E-2,
3.148772878106E-2));
#517=CARTESIAN_POINT('',(-3.805403416431E-1,-2.294636629342E-2,
3.148772878106E-2));
#518=CARTESIAN_POINT('',(-3.871055164916E-1,-2.666815803695E-2,
3.148772878106E-2));
#519=CARTESIAN_POINT('',(-3.935366079304E-1,-3.063288205015E-2,
3.148772878106E-2));
#520=CARTESIAN_POINT('',(-4.004287299467E-1,-3.531099248143E-2,
3.148772878106E-2));
#521=CARTESIAN_POINT('',(-4.078215085417E-1,-4.053808630991E-2,
3.148772878106E-2));
#522=CARTESIAN_POINT('',(-4.185836941118E-1,-4.805594193931E-2,
3.148772878106E-2));
#523=CARTESIAN_POINT('',(-4.389836558749E-1,-6.235251151715E-2,
3.148772878106E-2));
#524=CARTESIAN_POINT('',(-4.567092307766E-1,-7.475713187222E-2,
3.148772878106E-2));
#525=CARTESIAN_POINT('',(-4.690541445269E-1,-8.340249092034E-2,
3.148772878106E-2));
#526=CARTESIAN_POINT('',(1.239525933514E-1,1.309451358056E-3,
3.146992790074E-2));
#527=CARTESIAN_POINT('',(9.575841260075E-2,1.309431124241E-3,
3.146992790074E-2));
#528=CARTESIAN_POINT('',(1.327633808938E-2,1.309843334522E-3,
3.146992790074E-2));
#529=CARTESIAN_POINT('',(-9.635113377613E-2,1.307392747555E-3,
3.146992790074E-2));
#530=CARTESIAN_POINT('',(-1.913530113170E-1,1.312260349888E-3,
3.146992790074E-2));
#531=CARTESIAN_POINT('',(-2.388582860652E-1,1.305489877253E-3,
3.146992790074E-2));
#532=CARTESIAN_POINT('',(-2.626048311596E-1,1.315037135915E-3,
3.146992790074E-2));
#533=CARTESIAN_POINT('',(-2.761841099819E-1,1.299637617157E-3,
3.146992790074E-2));
#534=CARTESIAN_POINT('',(-2.854549633263E-1,1.342830942629E-3,
3.146992790074E-2));
#535=CARTESIAN_POINT('',(-2.939160176969E-1,1.220409506543E-3,
3.146992790074E-2));
#536=CARTESIAN_POINT('',(-3.014780454416E-1,7.782853502077E-4,
3.146992790074E-2));
#537=CARTESIAN_POINT('',(-3.090064732968E-1,5.981451581002E-5,
3.146992790074E-2));
#538=CARTESIAN_POINT('',(-3.190053934083E-1,-1.284611071093E-3,
3.146992790074E-2));
#539=CARTESIAN_POINT('',(-3.313953430107E-1,-3.678888304658E-3,
3.146992790074E-2));
#540=CARTESIAN_POINT('',(-3.460043666453E-1,-7.677893476333E-3,
3.146992790074E-2));
#541=CARTESIAN_POINT('',(-3.602651113373E-1,-1.278149244898E-2,
3.146992790074E-2));
#542=CARTESIAN_POINT('',(-3.717876704854E-1,-1.792679544802E-2,
3.146992790074E-2));
#543=CARTESIAN_POINT('',(-3.807494258631E-1,-2.256065789537E-2,
3.146992790074E-2));
#544=CARTESIAN_POINT('',(-3.873284853873E-1,-2.629023011943E-2,
3.146992790074E-2));
#545=CARTESIAN_POINT('',(-3.937763982914E-1,-3.026553827534E-2,
3.146992790074E-2));
#546=CARTESIAN_POINT('',(-4.006845910793E-1,-3.495457367083E-2,
3.146992790074E-2));
#547=CARTESIAN_POINT('',(-4.080718663927E-1,-4.017792635007E-2,
3.146992790074E-2));
#548=CARTESIAN_POINT('',(-4.188359990689E-1,-4.769710562870E-2,
3.146992790074E-2));
#549=CARTESIAN_POINT('',(-4.392346166583E-1,-6.199276143278E-2,
3.146992790074E-2));
#550=CARTESIAN_POINT('',(-4.569609484039E-1,-7.439789629289E-2,
3.146992790074E-2));
#551=CARTESIAN_POINT('',(-4.693057145671E-1,-8.304315501078E-2,
3.146992790074E-2));
#552=B_SPLINE_SURFACE_WITH_KNOTS('',3,3,((#162,#163,#164,#165,#166,#167,#168,
#169,#170,#171,#172,#173,#174,#175,#176,#177,#178,#179,#180,#181,#182,#183,#184,
#185,#186,#187),(#188,#189,#190,#191,#192,#193,#194,#195,#196,#197,#198,#199,
#200,#201,#202,#203,#204,#205,#206,#207,#208,#209,#210,#211,#212,#213),(#214,
#215,#216,#217,#218,#219,#220,#221,#222,#223,#224,#225,#226,#227,#228,#229,#230,
#231,#232,#233,#234,#235,#236,#237,#238,#239),(#240,#241,#242,#243,#244,#245,
#246,#247,#248,#249,#250,#251,#252,#253,#254,#255,#256,#257,#258,#259,#260,#261,
#262,#263,#264,#265),(#266,#267,#268,#269,#270,#271,#272,#273,#274,#275,#276,
#277,#278,#279,#280,#281,#282,#283,#284,#285,#286,#287,#288,#289,#290,#291),(
#292,#293,#294,#295,#296,#297,#298,#299,#300,#301,#302,#303,#304,#305,#306,#307,
#308,#309,#310,#311,#312,#313,#314,#315,#316,#317),(#318,#319,#320,#321,#322,
#323,#324,#325,#326,#327,#328,#329,#330,#331,#332,#333,#334,#335,#336,#337,#338,
#339,#340,#341,#342,#343),(#344,#345,#346,#347,#348,#349,#350,#351,#352,#353,
#354,#355,#356,#357,#358,#359,#360,#361,#362,#363,#364,#365,#366,#367,#368,
#369),(#370,#371,#372,#373,#374,#375,#376,#377,#378,#379,#380,#381,#382,#383,
#384,#385,#386,#387,#388,#389,#390,#391,#392,#393,#394,#395),(#396,#397,#398,
#399,#400,#401,#402,#403,#404,#405,#406,#407,#408,#409,#410,#411,#412,#413,#414,
#415,#416,#417,#418,#419,#420,#421),(#422,#423,#424,#425,#426,#427,#428,#429,
#430,#431,#432,#433,#434,#435,#436,#437,#438,#439,#440,#441,#442,#443,#444,#445,
#446,#447),(#448,#449,#450,#451,#452,#453,#454,#455,#456,#457,#458,#459,#460,
#461,#462,#463,#464,#465,#466,#467,#468,#469,#470,#471,#472,#473),(#474,#475,
#476,#477,#478,#479,#480,#481,#482,#483,#484,#485,#486,#487,#488,#489,#490,#491,
#492,#493,#494,#495,#496,#497,#498,#499),(#500,#501,#502,#503,#504,#505,#506,
#507,#508,#509,#510,#511,#512,#513,#514,#515,#516,#517,#518,#519,#520,#521,#522,
#523,#524,#525),(#526,#527,#528,#529,#530,#531,#532,#533,#534,#535,#536,#537,
#538,#539,#540,#541,#542,#543,#544,#545,#546,#547,#548,#549,#550,#551)),
.UNSPECIFIED.,.F.,.F.,.F.,(4,1,1,1,1,1,1,1,1,1,1,1,4),(4,1,1,1,1,1,1,1,1,1,1,1,
1,1,1,1,1,1,1,1,1,1,1,4),(4.9E-1,5.E-1,5.3125E-1,5.625E-1,6.25E-1,6.875E-1,
7.5E-1,8.125E-1,8.75E-1,9.375E-1,9.6875E-1,1.E0,1.01E0),(-9.681463398793E-3,
1.304815950373E-1,4.003666617088E-1,5.353091950446E-1,6.027804617125E-1,
6.365160950464E-1,6.533839117134E-1,6.702517283804E-1,6.827058956668E-1,
6.951600629532E-1,7.076142302396E-1,7.200683975260E-1,7.449767320988E-1,
7.698850666715E-1,7.947934012443E-1,8.197017358171E-1,8.321559031035E-1,
8.446100703899E-1,8.570642376763E-1,8.695184049627E-1,8.858286043424E-1,
9.021388037220E-1,9.347592024813E-1,1.009684796424E0),.UNSPECIFIED.);
#554=ORIENTED_EDGE('',*,*,#553,.T.);
#556=ORIENTED_EDGE('',*,*,#555,.F.);
#557=ORIENTED_EDGE('',*,*,#155,.T.);
#559=ORIENTED_EDGE('',*,*,#558,.T.);
#560=EDGE_LOOP('',(#554,#556,#557,#559));
#561=FACE_OUTER_BOUND('',#560,.F.);
#563=CARTESIAN_POINT('',(-4.637674144070E-1,-8.076349020697E-2,0.E0));
#564=DIRECTION('',(-8.191520442890E-1,-5.735764363510E-1,0.E0));
#565=DIRECTION('',(0.E0,0.E0,1.E0));
#566=AXIS2_PLACEMENT_3D('',#563,#564,#565);
#567=PLANE('',#566);
#569=ORIENTED_EDGE('',*,*,#568,.F.);
#570=ORIENTED_EDGE('',*,*,#553,.F.);
#571=EDGE_LOOP('',(#569,#570));
#572=FACE_OUTER_BOUND('',#571,.F.);
#574=CARTESIAN_POINT('',(1.239525914140E-1,-1.309447331986E-3,
3.146992790074E-2));
#575=CARTESIAN_POINT('',(9.575843000774E-2,-1.309467298387E-3,
3.146992790074E-2));
#576=CARTESIAN_POINT('',(1.327596140677E-2,-1.309060535980E-3,
3.146992790074E-2));
#577=CARTESIAN_POINT('',(-9.634916759905E-2,-1.311478735377E-3,
3.146992790074E-2));
#578=CARTESIAN_POINT('',(-1.913556987635E-1,-1.306675464493E-3,
3.146992790074E-2));
#579=CARTESIAN_POINT('',(-2.388545006676E-1,-1.313356456869E-3,
3.146992790074E-2));
#580=CARTESIAN_POINT('',(-2.626101733252E-1,-1.303935377165E-3,
3.146992790074E-2));
#581=CARTESIAN_POINT('',(-2.761747295883E-1,-1.319131372032E-3,
3.146992790074E-2));
#582=CARTESIAN_POINT('',(-2.854868774888E-1,-1.276508900351E-3,
3.146992790074E-2));
#583=CARTESIAN_POINT('',(-2.938308920437E-1,-1.397312384123E-3,
3.146992790074E-2));
#584=CARTESIAN_POINT('',(-3.012742769792E-1,-1.833593454309E-3,
3.146992790074E-2));
#585=CARTESIAN_POINT('',(-3.087081895475E-1,-2.542568660555E-3,
3.146992790074E-2));
#586=CARTESIAN_POINT('',(-3.185733335894E-1,-3.869227448280E-3,
3.146992790074E-2));
#587=CARTESIAN_POINT('',(-3.308003227869E-1,-6.231852145290E-3,
3.146992790074E-2));
#588=CARTESIAN_POINT('',(-3.452160713287E-1,-1.017804560797E-2,
3.146992790074E-2));
#589=CARTESIAN_POINT('',(-3.592882047295E-1,-1.521404836645E-2,
3.146992790074E-2));
#590=CARTESIAN_POINT('',(-3.706591146963E-1,-2.029180625051E-2,
3.146992790074E-2));
#591=CARTESIAN_POINT('',(-3.795011058452E-1,-2.486349793848E-2,
3.146992790074E-2));
#592=CARTESIAN_POINT('',(-3.859972680633E-1,-2.854661744796E-2,
3.146992790074E-2));
#593=CARTESIAN_POINT('',(-3.923447498022E-1,-3.245873385653E-2,
3.146992790074E-2));
#594=CARTESIAN_POINT('',(-3.991569933797E-1,-3.708254265810E-2,
3.146992790074E-2));
#595=CARTESIAN_POINT('',(-4.065771255802E-1,-4.232823155902E-2,
3.146992790074E-2));
#596=CARTESIAN_POINT('',(-4.173296332207E-1,-4.983950809955E-2,
3.146992790074E-2));
#597=CARTESIAN_POINT('',(-4.377362760877E-1,-6.414061951415E-2,
3.146992790074E-2));
#598=CARTESIAN_POINT('',(-4.554580891593E-1,-7.654268256455E-2,
3.146992790074E-2));
#599=CARTESIAN_POINT('',(-4.678037364792E-1,-8.518854029573E-2,
3.146992790074E-2));
#600=CARTESIAN_POINT('',(1.239525917385E-1,-8.708014862159E-4,
3.148772878106E-2));
#601=CARTESIAN_POINT('',(9.575842709220E-2,-8.708214974062E-4,
3.148772878106E-2));
#602=CARTESIAN_POINT('',(1.327602449827E-2,-8.704138225214E-4,
3.148772878106E-2));
#603=CARTESIAN_POINT('',(-9.634949691893E-2,-8.728374465929E-4,
3.148772878106E-2));
#604=CARTESIAN_POINT('',(-1.913552486364E-1,-8.680234006745E-4,
3.148772878106E-2));
#605=CARTESIAN_POINT('',(-2.388551346932E-1,-8.747193803215E-4,
3.148772878106E-2));
#606=CARTESIAN_POINT('',(-2.626092785526E-1,-8.652771665908E-4,
3.148772878106E-2));
#607=CARTESIAN_POINT('',(-2.761763007337E-1,-8.805072501796E-4,
3.148772878106E-2));
#608=CARTESIAN_POINT('',(-2.854815321064E-1,-8.377891647794E-4,
3.148772878106E-2));
#609=CARTESIAN_POINT('',(-2.938451499508E-1,-9.588636434024E-4,
3.148772878106E-2));
#610=CARTESIAN_POINT('',(-3.013084066651E-1,-1.396123386599E-3,
3.148772878106E-2));
#611=CARTESIAN_POINT('',(-3.087581498335E-1,-2.106689039187E-3,
3.148772878106E-2));
#612=CARTESIAN_POINT('',(-3.186457003615E-1,-3.436323632232E-3,
3.148772878106E-2));
#613=CARTESIAN_POINT('',(-3.308999842019E-1,-5.804249891200E-3,
3.148772878106E-2));
#614=CARTESIAN_POINT('',(-3.453481048691E-1,-9.759288918184E-3,
3.148772878106E-2));
#615=CARTESIAN_POINT('',(-3.594518292434E-1,-1.480661353445E-2,
3.148772878106E-2));
#616=CARTESIAN_POINT('',(-3.708481393082E-1,-1.989568471757E-2,
3.148772878106E-2));
#617=CARTESIAN_POINT('',(-3.797101900653E-1,-2.447778954044E-2,
3.148772878106E-2));
#618=CARTESIAN_POINT('',(-3.862202369590E-1,-2.816868953045E-2,
3.148772878106E-2));
#619=CARTESIAN_POINT('',(-3.925845401632E-1,-3.209139008172E-2,
3.148772878106E-2));
#620=CARTESIAN_POINT('',(-3.994128545123E-1,-3.672612384750E-2,
3.148772878106E-2));
#621=CARTESIAN_POINT('',(-4.068274834312E-1,-4.196807159918E-2,
3.148772878106E-2));
#622=CARTESIAN_POINT('',(-4.175819381778E-1,-4.948067178894E-2,
3.148772878106E-2));
#623=CARTESIAN_POINT('',(-4.379872368711E-1,-6.378086942978E-2,
3.148772878106E-2));
#624=CARTESIAN_POINT('',(-4.557098067866E-1,-7.618344698522E-2,
3.148772878106E-2));
#625=CARTESIAN_POINT('',(-4.680553065194E-1,-8.482920438618E-2,
3.148772878106E-2));
#626=CARTESIAN_POINT('',(1.239525930672E-1,9.252307309888E-4,
3.152210740170E-2));
#627=CARTESIAN_POINT('',(9.575841515454E-2,9.252105364060E-4,
3.152210740170E-2));
#628=CARTESIAN_POINT('',(1.327628282598E-2,9.256219474253E-4,
3.152210740170E-2));
#629=CARTESIAN_POINT('',(-9.635084531679E-2,9.231761120632E-4,
3.152210740170E-2));
#630=CARTESIAN_POINT('',(-1.913534055943E-1,9.280342762810E-4,
3.152210740170E-2));
#631=CARTESIAN_POINT('',(-2.388577307066E-1,9.212769313626E-4,
3.152210740170E-2));
#632=CARTESIAN_POINT('',(-2.626056149128E-1,9.308056782130E-4,
3.152210740170E-2));
#633=CARTESIAN_POINT('',(-2.761827337772E-1,9.154360186006E-4,
3.152210740170E-2));
#634=CARTESIAN_POINT('',(-2.854596454775E-1,9.585455936771E-4,
3.152210740170E-2));
#635=CARTESIAN_POINT('',(-2.939035288473E-1,8.363615286108E-4,
3.152210740170E-2));
#636=CARTESIAN_POINT('',(-3.014481504149E-1,3.950946159074E-4,
3.152210740170E-2));
#637=CARTESIAN_POINT('',(-3.089627118601E-1,-3.219831076315E-4,
3.152210740170E-2));
#638=CARTESIAN_POINT('',(-3.189420055823E-1,-1.663802113857E-3,
3.152210740170E-2));
#639=CARTESIAN_POINT('',(-3.313080471392E-1,-4.053435579609E-3,
3.152210740170E-2));
#640=CARTESIAN_POINT('',(-3.458887152374E-1,-8.044692705122E-3,
3.152210740170E-2));
#641=CARTESIAN_POINT('',(-3.601217886227E-1,-1.313837458556E-2,
3.152210740170E-2));
#642=CARTESIAN_POINT('',(-3.716220992036E-1,-1.827376798919E-2,
3.152210740170E-2));
#643=CARTESIAN_POINT('',(-3.805662838799E-1,-2.289850931695E-2,
3.152210740170E-2));
#644=CARTESIAN_POINT('',(-3.871331814770E-1,-2.662126642777E-2,
3.152210740170E-2));
#645=CARTESIAN_POINT('',(-3.935663600481E-1,-3.058730367416E-2,
3.152210740170E-2));
#646=CARTESIAN_POINT('',(-4.004604760540E-1,-3.526676962624E-2,
3.152210740170E-2));
#647=CARTESIAN_POINT('',(-4.078525718264E-1,-4.049339926963E-2,
3.152210740170E-2));
#648=CARTESIAN_POINT('',(-4.186149989847E-1,-4.801141913151E-2,
3.152210740170E-2));
#649=CARTESIAN_POINT('',(-4.390147939688E-1,-6.230787533238E-2,
3.152210740170E-2));
#650=CARTESIAN_POINT('',(-4.567404627763E-1,-7.471255952494E-2,
3.152210740170E-2));
#651=CARTESIAN_POINT('',(-4.690853582147E-1,-8.335790612453E-2,
3.152210740170E-2));
#652=CARTESIAN_POINT('',(1.239525954023E-1,4.081893415773E-3,
3.133328543229E-2));
#653=CARTESIAN_POINT('',(9.575839417320E-2,4.081872898864E-3,
3.133328543229E-2));
#654=CARTESIAN_POINT('',(1.327673685650E-2,4.082290876422E-3,
3.133328543229E-2));
#655=CARTESIAN_POINT('',(-9.635321522816E-2,4.079806003035E-3,
3.133328543229E-2));
#656=CARTESIAN_POINT('',(-1.913501663083E-1,4.084741708506E-3,
3.133328543229E-2));
#657=CARTESIAN_POINT('',(-2.388622933968E-1,4.077876509474E-3,
3.133328543229E-2));
#658=CARTESIAN_POINT('',(-2.625991757882E-1,4.087557344838E-3,
3.133328543229E-2));
#659=CARTESIAN_POINT('',(-2.761940403384E-1,4.071942369790E-3,
3.133328543229E-2));
#660=CARTESIAN_POINT('',(-2.854211780690E-1,4.115740017631E-3,
3.133328543229E-2));
#661=CARTESIAN_POINT('',(-2.940061341806E-1,3.991605770331E-3,
3.133328543229E-2));
#662=CARTESIAN_POINT('',(-3.016937606418E-1,3.543295953647E-3,
3.133328543229E-2));
#663=CARTESIAN_POINT('',(-3.093222451191E-1,2.814772772072E-3,
3.133328543229E-2));
#664=CARTESIAN_POINT('',(-3.194627844551E-1,1.451538736619E-3,
3.133328543229E-2));
#665=CARTESIAN_POINT('',(-3.320252486652E-1,-9.762467895391E-4,
3.133328543229E-2));
#666=CARTESIAN_POINT('',(-3.468388789150E-1,-5.031159967013E-3,
3.133328543229E-2));
#667=CARTESIAN_POINT('',(-3.612992929863E-1,-1.020631825115E-2,
3.133328543229E-2));
#668=CARTESIAN_POINT('',(-3.729823923530E-1,-1.542312646659E-2,
3.133328543229E-2));
#669=CARTESIAN_POINT('',(-3.820709336146E-1,-2.012280468174E-2,
3.133328543229E-2));
#670=CARTESIAN_POINT('',(-3.887377506297E-1,-2.390155309580E-2,
3.133328543229E-2));
#671=CARTESIAN_POINT('',(-3.952919828760E-1,-2.794375786695E-2,
3.133328543229E-2));
#672=CARTESIAN_POINT('',(-4.023017502790E-1,-3.270184402525E-2,
3.133328543229E-2));
#673=CARTESIAN_POINT('',(-4.096542423393E-1,-3.790155093284E-2,
3.133328543229E-2));
#674=CARTESIAN_POINT('',(-4.204306816152E-1,-4.542909627907E-2,
3.133328543229E-2));
#675=CARTESIAN_POINT('',(-4.408208034132E-1,-5.971897661574E-2,
3.133328543229E-2));
#676=CARTESIAN_POINT('',(-4.585519187581E-1,-7.212736338264E-2,
3.133328543229E-2));
#677=CARTESIAN_POINT('',(-4.708957521032E-1,-8.077198796769E-2,
3.133328543229E-2));
#678=CARTESIAN_POINT('',(1.239526000144E-1,1.031643094654E-2,
3.008014102197E-2));
#679=CARTESIAN_POINT('',(9.575835273418E-2,1.031640979302E-2,
3.008014102197E-2));
#680=CARTESIAN_POINT('',(1.327763358529E-2,1.031684073976E-2,
3.008014102197E-2));
#681=CARTESIAN_POINT('',(-9.635789589978E-2,1.031427876468E-2,
3.008014102197E-2));
#682=CARTESIAN_POINT('',(-1.913437685862E-1,1.031936761729E-2,
3.008014102197E-2));
#683=CARTESIAN_POINT('',(-2.388713048960E-1,1.031228940199E-2,
3.008014102197E-2));
#684=CARTESIAN_POINT('',(-2.625864582547E-1,1.032227061837E-2,
3.008014102197E-2));
#685=CARTESIAN_POINT('',(-2.762163712579E-1,1.030617113533E-2,
3.008014102197E-2));
#686=CARTESIAN_POINT('',(-2.853452033685E-1,1.035132775494E-2,
3.008014102197E-2));
#687=CARTESIAN_POINT('',(-2.942087838982E-1,1.022334181820E-2,
3.008014102197E-2));
#688=CARTESIAN_POINT('',(-3.021788508559E-1,9.761121978947E-3,
3.008014102197E-2));
#689=CARTESIAN_POINT('',(-3.100323379672E-1,9.009993551008E-3,
3.008014102197E-2));
#690=CARTESIAN_POINT('',(-3.204913439662E-1,7.604463959529E-3,
3.008014102197E-2));
#691=CARTESIAN_POINT('',(-3.334417509265E-1,5.101326558231E-3,
3.008014102197E-2));
#692=CARTESIAN_POINT('',(-3.487154909258E-1,9.206900822479E-4,
3.008014102197E-2));
#693=CARTESIAN_POINT('',(-3.636249121229E-1,-4.415387421793E-3,
3.008014102197E-2));
#694=CARTESIAN_POINT('',(-3.756690267958E-1,-9.792993210637E-3,
3.008014102197E-2));
#695=CARTESIAN_POINT('',(-3.850426782003E-1,-1.464067483429E-2,
3.008014102197E-2));
#696=CARTESIAN_POINT('',(-3.919068401404E-1,-1.853000835558E-2,
3.008014102197E-2));
#697=CARTESIAN_POINT('',(-3.987001583318E-1,-2.272264709422E-2,
3.008014102197E-2));
#698=CARTESIAN_POINT('',(-4.059383419601E-1,-2.763601136593E-2,
3.008014102197E-2));
#699=CARTESIAN_POINT('',(-4.132126150742E-1,-3.278254477243E-2,
3.008014102197E-2));
#700=CARTESIAN_POINT('',(-4.240167288537E-1,-4.032890333870E-2,
3.008014102197E-2));
#701=CARTESIAN_POINT('',(-4.443877457148E-1,-5.460579607540E-2,
3.008014102197E-2));
#702=CARTESIAN_POINT('',(-4.621296181931E-1,-6.702149557761E-2,
3.008014102197E-2));
#703=CARTESIAN_POINT('',(-4.744713538609E-1,-7.566469415451E-2,
3.008014102197E-2));
#704=CARTESIAN_POINT('',(1.239526064574E-1,1.902615051751E-2,
2.615561072749E-2));
#705=CARTESIAN_POINT('',(9.575829484341E-2,1.902612847465E-2,
2.615561072749E-2));
#706=CARTESIAN_POINT('',(1.327888632557E-2,1.902657753948E-2,
2.615561072749E-2));
#707=CARTESIAN_POINT('',(-9.636443485106E-2,1.902390785246E-2,
2.615561072749E-2));
#708=CARTESIAN_POINT('',(-1.913348308959E-1,1.902921065336E-2,
2.615561072749E-2));
#709=CARTESIAN_POINT('',(-2.388838940624E-1,1.902183485191E-2,
2.615561072749E-2));
#710=CARTESIAN_POINT('',(-2.625686917163E-1,1.903223570397E-2,
2.615561072749E-2));
#711=CARTESIAN_POINT('',(-2.762475678055E-1,1.901545935779E-2,
2.615561072749E-2));
#712=CARTESIAN_POINT('',(-2.852390658512E-1,1.906251447636E-2,
2.615561072749E-2));
#713=CARTESIAN_POINT('',(-2.944918878497E-1,1.892914768583E-2,
2.615561072749E-2));
#714=CARTESIAN_POINT('',(-3.028565273814E-1,1.844749538743E-2,
2.615561072749E-2));
#715=CARTESIAN_POINT('',(-3.110243457218E-1,1.766478717419E-2,
2.615561072749E-2));
#716=CARTESIAN_POINT('',(-3.219282532573E-1,1.620017021172E-2,
2.615561072749E-2));
#717=CARTESIAN_POINT('',(-3.354206206353E-1,1.359176538707E-2,
2.615561072749E-2));
#718=CARTESIAN_POINT('',(-3.513371391680E-1,9.235492038563E-3,
2.615561072749E-2));
#719=CARTESIAN_POINT('',(-3.668738284072E-1,3.674608561022E-3,
2.615561072749E-2));
#720=CARTESIAN_POINT('',(-3.794222855532E-1,-1.927633259788E-3,
2.615561072749E-2));
#721=CARTESIAN_POINT('',(-3.891942390578E-1,-6.982077322073E-3,
2.615561072749E-2));
#722=CARTESIAN_POINT('',(-3.963340940943E-1,-1.102589949114E-2,
2.615561072749E-2));
#723=CARTESIAN_POINT('',(-4.034614180598E-1,-1.542869618688E-2,
2.615561072749E-2));
#724=CARTESIAN_POINT('',(-4.110187017431E-1,-2.055898574240E-2,
2.615561072749E-2));
#725=CARTESIAN_POINT('',(-4.181837021030E-1,-2.563123516539E-2,
2.615561072749E-2));
#726=CARTESIAN_POINT('',(-4.290264774776E-1,-3.320387601320E-2,
2.615561072749E-2));
#727=CARTESIAN_POINT('',(-4.493708045253E-1,-4.746262492559E-2,
2.615561072749E-2));
#728=CARTESIAN_POINT('',(-4.671277048411E-1,-5.988854040189E-2,
2.615561072749E-2));
#729=CARTESIAN_POINT('',(-4.794665100296E-1,-6.852974682924E-2,
2.615561072749E-2));
#730=CARTESIAN_POINT('',(1.239526136187E-1,2.870675090700E-2,
1.569361237139E-2));
#731=CARTESIAN_POINT('',(9.575823049951E-2,2.870672787565E-2,
1.569361237139E-2));
#732=CARTESIAN_POINT('',(1.328027871002E-2,2.870719707822E-2,
1.569361237139E-2));
#733=CARTESIAN_POINT('',(-9.637170270554E-2,2.870440767251E-2,
1.569361237139E-2));
#734=CARTESIAN_POINT('',(-1.913248969127E-1,2.870994827072E-2,
1.569361237139E-2));
#735=CARTESIAN_POINT('',(-2.388978865554E-1,2.870224171091E-2,
1.569361237139E-2));
#736=CARTESIAN_POINT('',(-2.625489447248E-1,2.871310897585E-2,
1.569361237139E-2));
#737=CARTESIAN_POINT('',(-2.762822418622E-1,2.869558031592E-2,
1.569361237139E-2));
#738=CARTESIAN_POINT('',(-2.851210970827E-1,2.874474556096E-2,
1.569361237139E-2));
#739=CARTESIAN_POINT('',(-2.948065496710E-1,2.860539810769E-2,
1.569361237139E-2));
#740=CARTESIAN_POINT('',(-3.036097451611E-1,2.810214719524E-2,
1.569361237139E-2));
#741=CARTESIAN_POINT('',(-3.121269335350E-1,2.728433896766E-2,
1.569361237139E-2));
#742=CARTESIAN_POINT('',(-3.235253362093E-1,2.575404810810E-2,
1.569361237139E-2));
#743=CARTESIAN_POINT('',(-3.376200768539E-1,2.302864159918E-2,
1.569361237139E-2));
#744=CARTESIAN_POINT('',(-3.542510250615E-1,1.847715296701E-2,
1.569361237139E-2));
#745=CARTESIAN_POINT('',(-3.704849045148E-1,1.266640417787E-2,
1.569361237139E-2));
#746=CARTESIAN_POINT('',(-3.835939236745E-1,6.814485930526E-3,
1.569361237139E-2));
#747=CARTESIAN_POINT('',(-3.938085783975E-1,1.530231421686E-3,
1.569361237139E-2));
#748=CARTESIAN_POINT('',(-4.012548583050E-1,-2.685300393330E-3,
1.569361237139E-2));
#749=CARTESIAN_POINT('',(-4.087534199897E-1,-7.321681555791E-3,
1.569361237139E-2));
#750=CARTESIAN_POINT('',(-4.166653741180E-1,-1.269307726518E-2,
1.569361237139E-2));
#751=CARTESIAN_POINT('',(-4.237089209847E-1,-1.768276219755E-2,
1.569361237139E-2));
#752=CARTESIAN_POINT('',(-4.345946675995E-1,-2.528461503813E-2,
1.569361237139E-2));
#753=CARTESIAN_POINT('',(-4.549093296947E-1,-3.952319761666E-2,
1.569361237139E-2));
#754=CARTESIAN_POINT('',(-4.726829330154E-1,-5.196046785150E-2,
1.569361237139E-2));
#755=CARTESIAN_POINT('',(-4.850184810614E-1,-6.059946006248E-2,
1.569361237139E-2));
#756=CARTESIAN_POINT('',(1.239526167138E-1,3.289072253738E-2,0.E0));
#757=CARTESIAN_POINT('',(9.575820268996E-2,3.289069907880E-2,0.E0));
#758=CARTESIAN_POINT('',(1.328088050090E-2,3.289117698494E-2,0.E0));
#759=CARTESIAN_POINT('',(-9.637484388436E-2,3.288833583661E-2,0.E0));
#760=CARTESIAN_POINT('',(-1.913206034286E-1,3.289397921121E-2,0.E0));
#761=CARTESIAN_POINT('',(-2.389039341342E-1,3.288612969708E-2,0.E0));
#762=CARTESIAN_POINT('',(-2.625404100421E-1,3.289719854645E-2,0.E0));
#763=CARTESIAN_POINT('',(-2.762972280473E-1,3.287934473527E-2,0.E0));
#764=CARTESIAN_POINT('',(-2.850701107842E-1,3.292942198048E-2,0.E0));
#765=CARTESIAN_POINT('',(-2.949425470348E-1,3.278748967481E-2,0.E0));
#766=CARTESIAN_POINT('',(-3.039352871414E-1,3.227490380535E-2,0.E0));
#767=CARTESIAN_POINT('',(-3.126034738264E-1,3.144192529304E-2,0.E0));
#768=CARTESIAN_POINT('',(-3.242155981242E-1,2.988325006566E-2,0.E0));
#769=CARTESIAN_POINT('',(-3.385706854992E-1,2.710727523369E-2,0.E0));
#770=CARTESIAN_POINT('',(-3.555104114034E-1,2.247141423042E-2,0.E0));
#771=CARTESIAN_POINT('',(-3.720456176298E-1,1.655267323695E-2,0.E0));
#772=CARTESIAN_POINT('',(-3.853969126267E-1,1.059284442174E-2,0.E0));
#773=CARTESIAN_POINT('',(-3.958029035543E-1,5.209265454698E-3,0.E0));
#774=CARTESIAN_POINT('',(-4.033816208021E-1,9.195204443820E-4,0.E0));
#775=CARTESIAN_POINT('',(-4.110406320480E-1,-3.817816314089E-3,0.E0));
#776=CARTESIAN_POINT('',(-4.191058753340E-1,-9.293418505211E-3,0.E0));
#777=CARTESIAN_POINT('',(-4.260969297984E-1,-1.424741892707E-2,0.E0));
#778=CARTESIAN_POINT('',(-4.370012486549E-1,-2.186189723962E-2,0.E0));
#779=CARTESIAN_POINT('',(-4.573030895082E-1,-3.609176389503E-2,0.E0));
#780=CARTESIAN_POINT('',(-4.750839118954E-1,-4.853394167545E-2,0.E0));
#781=CARTESIAN_POINT('',(-4.874180521990E-1,-5.717197689843E-2,0.E0));
#782=CARTESIAN_POINT('',(1.239526136187E-1,2.870675090700E-2,
-1.569361237139E-2));
#783=CARTESIAN_POINT('',(9.575823049951E-2,2.870672787565E-2,
-1.569361237139E-2));
#784=CARTESIAN_POINT('',(1.328027871002E-2,2.870719707822E-2,
-1.569361237139E-2));
#785=CARTESIAN_POINT('',(-9.637170270554E-2,2.870440767251E-2,
-1.569361237139E-2));
#786=CARTESIAN_POINT('',(-1.913248969127E-1,2.870994827072E-2,
-1.569361237139E-2));
#787=CARTESIAN_POINT('',(-2.388978865554E-1,2.870224171091E-2,
-1.569361237139E-2));
#788=CARTESIAN_POINT('',(-2.625489447248E-1,2.871310897585E-2,
-1.569361237139E-2));
#789=CARTESIAN_POINT('',(-2.762822418622E-1,2.869558031592E-2,
-1.569361237139E-2));
#790=CARTESIAN_POINT('',(-2.851210970827E-1,2.874474556096E-2,
-1.569361237139E-2));
#791=CARTESIAN_POINT('',(-2.948065496710E-1,2.860539810769E-2,
-1.569361237139E-2));
#792=CARTESIAN_POINT('',(-3.036097451611E-1,2.810214719524E-2,
-1.569361237139E-2));
#793=CARTESIAN_POINT('',(-3.121269335350E-1,2.728433896766E-2,
-1.569361237139E-2));
#794=CARTESIAN_POINT('',(-3.235253362093E-1,2.575404810810E-2,
-1.569361237139E-2));
#795=CARTESIAN_POINT('',(-3.376200768539E-1,2.302864159918E-2,
-1.569361237139E-2));
#796=CARTESIAN_POINT('',(-3.542510250615E-1,1.847715296701E-2,
-1.569361237139E-2));
#797=CARTESIAN_POINT('',(-3.704849045148E-1,1.266640417787E-2,
-1.569361237139E-2));
#798=CARTESIAN_POINT('',(-3.835939236745E-1,6.814485930526E-3,
-1.569361237139E-2));
#799=CARTESIAN_POINT('',(-3.938085783975E-1,1.530231421686E-3,
-1.569361237139E-2));
#800=CARTESIAN_POINT('',(-4.012548583050E-1,-2.685300393330E-3,
-1.569361237139E-2));
#801=CARTESIAN_POINT('',(-4.087534199897E-1,-7.321681555791E-3,
-1.569361237139E-2));
#802=CARTESIAN_POINT('',(-4.166653741180E-1,-1.269307726518E-2,
-1.569361237139E-2));
#803=CARTESIAN_POINT('',(-4.237089209847E-1,-1.768276219755E-2,
-1.569361237139E-2));
#804=CARTESIAN_POINT('',(-4.345946675995E-1,-2.528461503813E-2,
-1.569361237139E-2));
#805=CARTESIAN_POINT('',(-4.549093296947E-1,-3.952319761666E-2,
-1.569361237139E-2));
#806=CARTESIAN_POINT('',(-4.726829330154E-1,-5.196046785150E-2,
-1.569361237139E-2));
#807=CARTESIAN_POINT('',(-4.850184810614E-1,-6.059946006248E-2,
-1.569361237139E-2));
#808=CARTESIAN_POINT('',(1.239526064574E-1,1.902615051751E-2,
-2.615561072749E-2));
#809=CARTESIAN_POINT('',(9.575829484341E-2,1.902612847465E-2,
-2.615561072749E-2));
#810=CARTESIAN_POINT('',(1.327888632557E-2,1.902657753948E-2,
-2.615561072749E-2));
#811=CARTESIAN_POINT('',(-9.636443485106E-2,1.902390785246E-2,
-2.615561072749E-2));
#812=CARTESIAN_POINT('',(-1.913348308959E-1,1.902921065336E-2,
-2.615561072749E-2));
#813=CARTESIAN_POINT('',(-2.388838940624E-1,1.902183485191E-2,
-2.615561072749E-2));
#814=CARTESIAN_POINT('',(-2.625686917163E-1,1.903223570397E-2,
-2.615561072749E-2));
#815=CARTESIAN_POINT('',(-2.762475678055E-1,1.901545935779E-2,
-2.615561072749E-2));
#816=CARTESIAN_POINT('',(-2.852390658512E-1,1.906251447636E-2,
-2.615561072749E-2));
#817=CARTESIAN_POINT('',(-2.944918878497E-1,1.892914768583E-2,
-2.615561072749E-2));
#818=CARTESIAN_POINT('',(-3.028565273814E-1,1.844749538743E-2,
-2.615561072749E-2));
#819=CARTESIAN_POINT('',(-3.110243457218E-1,1.766478717419E-2,
-2.615561072749E-2));
#820=CARTESIAN_POINT('',(-3.219282532573E-1,1.620017021172E-2,
-2.615561072749E-2));
#821=CARTESIAN_POINT('',(-3.354206206353E-1,1.359176538707E-2,
-2.615561072749E-2));
#822=CARTESIAN_POINT('',(-3.513371391680E-1,9.235492038563E-3,
-2.615561072749E-2));
#823=CARTESIAN_POINT('',(-3.668738284072E-1,3.674608561022E-3,
-2.615561072749E-2));
#824=CARTESIAN_POINT('',(-3.794222855532E-1,-1.927633259788E-3,
-2.615561072749E-2));
#825=CARTESIAN_POINT('',(-3.891942390578E-1,-6.982077322073E-3,
-2.615561072749E-2));
#826=CARTESIAN_POINT('',(-3.963340940943E-1,-1.102589949114E-2,
-2.615561072749E-2));
#827=CARTESIAN_POINT('',(-4.034614180598E-1,-1.542869618688E-2,
-2.615561072749E-2));
#828=CARTESIAN_POINT('',(-4.110187017431E-1,-2.055898574240E-2,
-2.615561072749E-2));
#829=CARTESIAN_POINT('',(-4.181837021030E-1,-2.563123516539E-2,
-2.615561072749E-2));
#830=CARTESIAN_POINT('',(-4.290264774776E-1,-3.320387601320E-2,
-2.615561072749E-2));
#831=CARTESIAN_POINT('',(-4.493708045253E-1,-4.746262492559E-2,
-2.615561072749E-2));
#832=CARTESIAN_POINT('',(-4.671277048411E-1,-5.988854040189E-2,
-2.615561072749E-2));
#833=CARTESIAN_POINT('',(-4.794665100296E-1,-6.852974682924E-2,
-2.615561072749E-2));
#834=CARTESIAN_POINT('',(1.239526000144E-1,1.031643094654E-2,
-3.008014102197E-2));
#835=CARTESIAN_POINT('',(9.575835273418E-2,1.031640979302E-2,
-3.008014102197E-2));
#836=CARTESIAN_POINT('',(1.327763358529E-2,1.031684073976E-2,
-3.008014102197E-2));
#837=CARTESIAN_POINT('',(-9.635789589978E-2,1.031427876468E-2,
-3.008014102197E-2));
#838=CARTESIAN_POINT('',(-1.913437685862E-1,1.031936761729E-2,
-3.008014102197E-2));
#839=CARTESIAN_POINT('',(-2.388713048960E-1,1.031228940199E-2,
-3.008014102197E-2));
#840=CARTESIAN_POINT('',(-2.625864582547E-1,1.032227061837E-2,
-3.008014102197E-2));
#841=CARTESIAN_POINT('',(-2.762163712579E-1,1.030617113533E-2,
-3.008014102197E-2));
#842=CARTESIAN_POINT('',(-2.853452033685E-1,1.035132775494E-2,
-3.008014102197E-2));
#843=CARTESIAN_POINT('',(-2.942087838982E-1,1.022334181820E-2,
-3.008014102197E-2));
#844=CARTESIAN_POINT('',(-3.021788508559E-1,9.761121978947E-3,
-3.008014102197E-2));
#845=CARTESIAN_POINT('',(-3.100323379672E-1,9.009993551008E-3,
-3.008014102197E-2));
#846=CARTESIAN_POINT('',(-3.204913439662E-1,7.604463959529E-3,
-3.008014102197E-2));
#847=CARTESIAN_POINT('',(-3.334417509265E-1,5.101326558231E-3,
-3.008014102197E-2));
#848=CARTESIAN_POINT('',(-3.487154909258E-1,9.206900822479E-4,
-3.008014102197E-2));
#849=CARTESIAN_POINT('',(-3.636249121229E-1,-4.415387421793E-3,
-3.008014102197E-2));
#850=CARTESIAN_POINT('',(-3.756690267958E-1,-9.792993210637E-3,
-3.008014102197E-2));
#851=CARTESIAN_POINT('',(-3.850426782003E-1,-1.464067483429E-2,
-3.008014102197E-2));
#852=CARTESIAN_POINT('',(-3.919068401404E-1,-1.853000835558E-2,
-3.008014102197E-2));
#853=CARTESIAN_POINT('',(-3.987001583318E-1,-2.272264709422E-2,
-3.008014102197E-2));
#854=CARTESIAN_POINT('',(-4.059383419601E-1,-2.763601136593E-2,
-3.008014102197E-2));
#855=CARTESIAN_POINT('',(-4.132126150742E-1,-3.278254477243E-2,
-3.008014102197E-2));
#856=CARTESIAN_POINT('',(-4.240167288537E-1,-4.032890333870E-2,
-3.008014102197E-2));
#857=CARTESIAN_POINT('',(-4.443877457148E-1,-5.460579607540E-2,
-3.008014102197E-2));
#858=CARTESIAN_POINT('',(-4.621296181931E-1,-6.702149557761E-2,
-3.008014102197E-2));
#859=CARTESIAN_POINT('',(-4.744713538609E-1,-7.566469415451E-2,
-3.008014102197E-2));
#860=CARTESIAN_POINT('',(1.239525954023E-1,4.081893415773E-3,
-3.133328543229E-2));
#861=CARTESIAN_POINT('',(9.575839417320E-2,4.081872898864E-3,
-3.133328543229E-2));
#862=CARTESIAN_POINT('',(1.327673685650E-2,4.082290876422E-3,
-3.133328543229E-2));
#863=CARTESIAN_POINT('',(-9.635321522816E-2,4.079806003035E-3,
-3.133328543229E-2));
#864=CARTESIAN_POINT('',(-1.913501663083E-1,4.084741708506E-3,
-3.133328543229E-2));
#865=CARTESIAN_POINT('',(-2.388622933968E-1,4.077876509474E-3,
-3.133328543229E-2));
#866=CARTESIAN_POINT('',(-2.625991757882E-1,4.087557344838E-3,
-3.133328543229E-2));
#867=CARTESIAN_POINT('',(-2.761940403384E-1,4.071942369790E-3,
-3.133328543229E-2));
#868=CARTESIAN_POINT('',(-2.854211780690E-1,4.115740017631E-3,
-3.133328543229E-2));
#869=CARTESIAN_POINT('',(-2.940061341806E-1,3.991605770331E-3,
-3.133328543229E-2));
#870=CARTESIAN_POINT('',(-3.016937606418E-1,3.543295953647E-3,
-3.133328543229E-2));
#871=CARTESIAN_POINT('',(-3.093222451191E-1,2.814772772072E-3,
-3.133328543229E-2));
#872=CARTESIAN_POINT('',(-3.194627844551E-1,1.451538736619E-3,
-3.133328543229E-2));
#873=CARTESIAN_POINT('',(-3.320252486652E-1,-9.762467895391E-4,
-3.133328543229E-2));
#874=CARTESIAN_POINT('',(-3.468388789150E-1,-5.031159967013E-3,
-3.133328543229E-2));
#875=CARTESIAN_POINT('',(-3.612992929863E-1,-1.020631825115E-2,
-3.133328543229E-2));
#876=CARTESIAN_POINT('',(-3.729823923530E-1,-1.542312646659E-2,
-3.133328543229E-2));
#877=CARTESIAN_POINT('',(-3.820709336146E-1,-2.012280468174E-2,
-3.133328543229E-2));
#878=CARTESIAN_POINT('',(-3.887377506297E-1,-2.390155309580E-2,
-3.133328543229E-2));
#879=CARTESIAN_POINT('',(-3.952919828760E-1,-2.794375786695E-2,
-3.133328543229E-2));
#880=CARTESIAN_POINT('',(-4.023017502790E-1,-3.270184402525E-2,
-3.133328543229E-2));
#881=CARTESIAN_POINT('',(-4.096542423393E-1,-3.790155093284E-2,
-3.133328543229E-2));
#882=CARTESIAN_POINT('',(-4.204306816152E-1,-4.542909627907E-2,
-3.133328543229E-2));
#883=CARTESIAN_POINT('',(-4.408208034132E-1,-5.971897661574E-2,
-3.133328543229E-2));
#884=CARTESIAN_POINT('',(-4.585519187581E-1,-7.212736338264E-2,
-3.133328543229E-2));
#885=CARTESIAN_POINT('',(-4.708957521032E-1,-8.077198796769E-2,
-3.133328543229E-2));
#886=CARTESIAN_POINT('',(1.239525930672E-1,9.252307309888E-4,
-3.152210740170E-2));
#887=CARTESIAN_POINT('',(9.575841515454E-2,9.252105364060E-4,
-3.152210740170E-2));
#888=CARTESIAN_POINT('',(1.327628282598E-2,9.256219474253E-4,
-3.152210740170E-2));
#889=CARTESIAN_POINT('',(-9.635084531679E-2,9.231761120632E-4,
-3.152210740170E-2));
#890=CARTESIAN_POINT('',(-1.913534055943E-1,9.280342762810E-4,
-3.152210740170E-2));
#891=CARTESIAN_POINT('',(-2.388577307066E-1,9.212769313626E-4,
-3.152210740170E-2));
#892=CARTESIAN_POINT('',(-2.626056149128E-1,9.308056782130E-4,
-3.152210740170E-2));
#893=CARTESIAN_POINT('',(-2.761827337772E-1,9.154360186006E-4,
-3.152210740170E-2));
#894=CARTESIAN_POINT('',(-2.854596454775E-1,9.585455936771E-4,
-3.152210740170E-2));
#895=CARTESIAN_POINT('',(-2.939035288473E-1,8.363615286108E-4,
-3.152210740170E-2));
#896=CARTESIAN_POINT('',(-3.014481504149E-1,3.950946159074E-4,
-3.152210740170E-2));
#897=CARTESIAN_POINT('',(-3.089627118601E-1,-3.219831076315E-4,
-3.152210740170E-2));
#898=CARTESIAN_POINT('',(-3.189420055823E-1,-1.663802113857E-3,
-3.152210740170E-2));
#899=CARTESIAN_POINT('',(-3.313080471392E-1,-4.053435579609E-3,
-3.152210740170E-2));
#900=CARTESIAN_POINT('',(-3.458887152374E-1,-8.044692705122E-3,
-3.152210740170E-2));
#901=CARTESIAN_POINT('',(-3.601217886227E-1,-1.313837458556E-2,
-3.152210740170E-2));
#902=CARTESIAN_POINT('',(-3.716220992036E-1,-1.827376798919E-2,
-3.152210740170E-2));
#903=CARTESIAN_POINT('',(-3.805662838799E-1,-2.289850931695E-2,
-3.152210740170E-2));
#904=CARTESIAN_POINT('',(-3.871331814770E-1,-2.662126642777E-2,
-3.152210740170E-2));
#905=CARTESIAN_POINT('',(-3.935663600481E-1,-3.058730367416E-2,
-3.152210740170E-2));
#906=CARTESIAN_POINT('',(-4.004604760540E-1,-3.526676962624E-2,
-3.152210740170E-2));
#907=CARTESIAN_POINT('',(-4.078525718264E-1,-4.049339926963E-2,
-3.152210740170E-2));
#908=CARTESIAN_POINT('',(-4.186149989847E-1,-4.801141913151E-2,
-3.152210740170E-2));
#909=CARTESIAN_POINT('',(-4.390147939688E-1,-6.230787533238E-2,
-3.152210740170E-2));
#910=CARTESIAN_POINT('',(-4.567404627763E-1,-7.471255952494E-2,
-3.152210740170E-2));
#911=CARTESIAN_POINT('',(-4.690853582147E-1,-8.335790612453E-2,
-3.152210740170E-2));
#912=CARTESIAN_POINT('',(1.239525917385E-1,-8.708014862159E-4,
-3.148772878106E-2));
#913=CARTESIAN_POINT('',(9.575842709220E-2,-8.708214974062E-4,
-3.148772878106E-2));
#914=CARTESIAN_POINT('',(1.327602449827E-2,-8.704138225214E-4,
-3.148772878106E-2));
#915=CARTESIAN_POINT('',(-9.634949691893E-2,-8.728374465929E-4,
-3.148772878106E-2));
#916=CARTESIAN_POINT('',(-1.913552486364E-1,-8.680234006745E-4,
-3.148772878106E-2));
#917=CARTESIAN_POINT('',(-2.388551346932E-1,-8.747193803215E-4,
-3.148772878106E-2));
#918=CARTESIAN_POINT('',(-2.626092785526E-1,-8.652771665908E-4,
-3.148772878106E-2));
#919=CARTESIAN_POINT('',(-2.761763007337E-1,-8.805072501796E-4,
-3.148772878106E-2));
#920=CARTESIAN_POINT('',(-2.854815321064E-1,-8.377891647794E-4,
-3.148772878106E-2));
#921=CARTESIAN_POINT('',(-2.938451499508E-1,-9.588636434024E-4,
-3.148772878106E-2));
#922=CARTESIAN_POINT('',(-3.013084066651E-1,-1.396123386599E-3,
-3.148772878106E-2));
#923=CARTESIAN_POINT('',(-3.087581498335E-1,-2.106689039187E-3,
-3.148772878106E-2));
#924=CARTESIAN_POINT('',(-3.186457003615E-1,-3.436323632232E-3,
-3.148772878106E-2));
#925=CARTESIAN_POINT('',(-3.308999842019E-1,-5.804249891200E-3,
-3.148772878106E-2));
#926=CARTESIAN_POINT('',(-3.453481048691E-1,-9.759288918184E-3,
-3.148772878106E-2));
#927=CARTESIAN_POINT('',(-3.594518292434E-1,-1.480661353445E-2,
-3.148772878106E-2));
#928=CARTESIAN_POINT('',(-3.708481393082E-1,-1.989568471757E-2,
-3.148772878106E-2));
#929=CARTESIAN_POINT('',(-3.797101900653E-1,-2.447778954044E-2,
-3.148772878106E-2));
#930=CARTESIAN_POINT('',(-3.862202369590E-1,-2.816868953045E-2,
-3.148772878106E-2));
#931=CARTESIAN_POINT('',(-3.925845401632E-1,-3.209139008172E-2,
-3.148772878106E-2));
#932=CARTESIAN_POINT('',(-3.994128545123E-1,-3.672612384750E-2,
-3.148772878106E-2));
#933=CARTESIAN_POINT('',(-4.068274834312E-1,-4.196807159918E-2,
-3.148772878106E-2));
#934=CARTESIAN_POINT('',(-4.175819381778E-1,-4.948067178894E-2,
-3.148772878106E-2));
#935=CARTESIAN_POINT('',(-4.379872368711E-1,-6.378086942978E-2,
-3.148772878106E-2));
#936=CARTESIAN_POINT('',(-4.557098067866E-1,-7.618344698522E-2,
-3.148772878106E-2));
#937=CARTESIAN_POINT('',(-4.680553065194E-1,-8.482920438618E-2,
-3.148772878106E-2));
#938=CARTESIAN_POINT('',(1.239525914140E-1,-1.309447331986E-3,
-3.146992790074E-2));
#939=CARTESIAN_POINT('',(9.575843000774E-2,-1.309467298387E-3,
-3.146992790074E-2));
#940=CARTESIAN_POINT('',(1.327596140677E-2,-1.309060535980E-3,
-3.146992790074E-2));
#941=CARTESIAN_POINT('',(-9.634916759905E-2,-1.311478735377E-3,
-3.146992790074E-2));
#942=CARTESIAN_POINT('',(-1.913556987635E-1,-1.306675464493E-3,
-3.146992790074E-2));
#943=CARTESIAN_POINT('',(-2.388545006676E-1,-1.313356456869E-3,
-3.146992790074E-2));
#944=CARTESIAN_POINT('',(-2.626101733252E-1,-1.303935377165E-3,
-3.146992790074E-2));
#945=CARTESIAN_POINT('',(-2.761747295883E-1,-1.319131372032E-3,
-3.146992790074E-2));
#946=CARTESIAN_POINT('',(-2.854868774888E-1,-1.276508900351E-3,
-3.146992790074E-2));
#947=CARTESIAN_POINT('',(-2.938308920437E-1,-1.397312384123E-3,
-3.146992790074E-2));
#948=CARTESIAN_POINT('',(-3.012742769792E-1,-1.833593454309E-3,
-3.146992790074E-2));
#949=CARTESIAN_POINT('',(-3.087081895475E-1,-2.542568660555E-3,
-3.146992790074E-2));
#950=CARTESIAN_POINT('',(-3.185733335894E-1,-3.869227448280E-3,
-3.146992790074E-2));
#951=CARTESIAN_POINT('',(-3.308003227869E-1,-6.231852145290E-3,
-3.146992790074E-2));
#952=CARTESIAN_POINT('',(-3.452160713287E-1,-1.017804560797E-2,
-3.146992790074E-2));
#953=CARTESIAN_POINT('',(-3.592882047295E-1,-1.521404836645E-2,
-3.146992790074E-2));
#954=CARTESIAN_POINT('',(-3.706591146963E-1,-2.029180625051E-2,
-3.146992790074E-2));
#955=CARTESIAN_POINT('',(-3.795011058452E-1,-2.486349793848E-2,
-3.146992790074E-2));
#956=CARTESIAN_POINT('',(-3.859972680633E-1,-2.854661744796E-2,
-3.146992790074E-2));
#957=CARTESIAN_POINT('',(-3.923447498022E-1,-3.245873385653E-2,
-3.146992790074E-2));
#958=CARTESIAN_POINT('',(-3.991569933797E-1,-3.708254265810E-2,
-3.146992790074E-2));
#959=CARTESIAN_POINT('',(-4.065771255802E-1,-4.232823155902E-2,
-3.146992790074E-2));
#960=CARTESIAN_POINT('',(-4.173296332207E-1,-4.983950809955E-2,
-3.146992790074E-2));
#961=CARTESIAN_POINT('',(-4.377362760877E-1,-6.414061951415E-2,
-3.146992790074E-2));
#962=CARTESIAN_POINT('',(-4.554580891593E-1,-7.654268256455E-2,
-3.146992790074E-2));
#963=CARTESIAN_POINT('',(-4.678037364792E-1,-8.518854029573E-2,
-3.146992790074E-2));
#964=B_SPLINE_SURFACE_WITH_KNOTS('',3,3,((#574,#575,#576,#577,#578,#579,#580,
#581,#582,#583,#584,#585,#586,#587,#588,#589,#590,#591,#592,#593,#594,#595,#596,
#597,#598,#599),(#600,#601,#602,#603,#604,#605,#606,#607,#608,#609,#610,#611,
#612,#613,#614,#615,#616,#617,#618,#619,#620,#621,#622,#623,#624,#625),(#626,
#627,#628,#629,#630,#631,#632,#633,#634,#635,#636,#637,#638,#639,#640,#641,#642,
#643,#644,#645,#646,#647,#648,#649,#650,#651),(#652,#653,#654,#655,#656,#657,
#658,#659,#660,#661,#662,#663,#664,#665,#666,#667,#668,#669,#670,#671,#672,#673,
#674,#675,#676,#677),(#678,#679,#680,#681,#682,#683,#684,#685,#686,#687,#688,
#689,#690,#691,#692,#693,#694,#695,#696,#697,#698,#699,#700,#701,#702,#703),(
#704,#705,#706,#707,#708,#709,#710,#711,#712,#713,#714,#715,#716,#717,#718,#719,
#720,#721,#722,#723,#724,#725,#726,#727,#728,#729),(#730,#731,#732,#733,#734,
#735,#736,#737,#738,#739,#740,#741,#742,#743,#744,#745,#746,#747,#748,#749,#750,
#751,#752,#753,#754,#755),(#756,#757,#758,#759,#760,#761,#762,#763,#764,#765,
#766,#767,#768,#769,#770,#771,#772,#773,#774,#775,#776,#777,#778,#779,#780,
#781),(#782,#783,#784,#785,#786,#787,#788,#789,#790,#791,#792,#793,#794,#795,
#796,#797,#798,#799,#800,#801,#802,#803,#804,#805,#806,#807),(#808,#809,#810,
#811,#812,#813,#814,#815,#816,#817,#818,#819,#820,#821,#822,#823,#824,#825,#826,
#827,#828,#829,#830,#831,#832,#833),(#834,#835,#836,#837,#838,#839,#840,#841,
#842,#843,#844,#845,#846,#847,#848,#849,#850,#851,#852,#853,#854,#855,#856,#857,
#858,#859),(#860,#861,#862,#863,#864,#865,#866,#867,#868,#869,#870,#871,#872,
#873,#874,#875,#876,#877,#878,#879,#880,#881,#882,#883,#884,#885),(#886,#887,
#888,#889,#890,#891,#892,#893,#894,#895,#896,#897,#898,#899,#900,#901,#902,#903,
#904,#905,#906,#907,#908,#909,#910,#911),(#912,#913,#914,#915,#916,#917,#918,
#919,#920,#921,#922,#923,#924,#925,#926,#927,#928,#929,#930,#931,#932,#933,#934,
#935,#936,#937),(#938,#939,#940,#941,#942,#943,#944,#945,#946,#947,#948,#949,
#950,#951,#952,#953,#954,#955,#956,#957,#958,#959,#960,#961,#962,#963)),
.UNSPECIFIED.,.F.,.F.,.F.,(4,1,1,1,1,1,1,1,1,1,1,1,4),(4,1,1,1,1,1,1,1,1,1,1,1,
1,1,1,1,1,1,1,1,1,1,1,4),(-1.E-2,0.E0,3.125E-2,6.25E-2,1.25E-1,1.875E-1,2.5E-1,
3.125E-1,3.75E-1,4.375E-1,4.6875E-1,5.E-1,5.1E-1),(-9.681463398793E-3,
1.304815950373E-1,4.003666617088E-1,5.353091950446E-1,6.027804617125E-1,
6.365160950464E-1,6.533839117134E-1,6.702517283804E-1,6.827058956668E-1,
6.951600629532E-1,7.076142302396E-1,7.200683975260E-1,7.449767320988E-1,
7.698850666715E-1,7.947934012443E-1,8.197017358171E-1,8.321559031035E-1,
8.446100703899E-1,8.570642376763E-1,8.695184049627E-1,8.858286043424E-1,
9.021388037220E-1,9.347592024813E-1,1.009684796424E0),.UNSPECIFIED.);
#965=ORIENTED_EDGE('',*,*,#568,.T.);
#966=ORIENTED_EDGE('',*,*,#558,.F.);
#967=ORIENTED_EDGE('',*,*,#157,.T.);
#968=ORIENTED_EDGE('',*,*,#555,.T.);
#969=EDGE_LOOP('',(#965,#966,#967,#968));
#970=FACE_OUTER_BOUND('',#969,.F.);
#974=FILL_AREA_STYLE_COLOUR('',#11);
#975=FILL_AREA_STYLE('',(#974));
#976=SURFACE_STYLE_FILL_AREA(#975);
#977=SURFACE_SIDE_STYLE('',(#976));
#978=SURFACE_STYLE_USAGE(.BOTH.,#977);
#979=PRESENTATION_STYLE_ASSIGNMENT((#978));
#16=STYLED_ITEM('',(#979),#973);
#980=PRESENTATION_LAYER_ASSIGNMENT('SHELL_321','',(#16,#161,#562,#573,#971));
#982=LENGTH_MEASURE_WITH_UNIT(LENGTH_MEASURE(2.54E1),#981);
#983=(CONVERSION_BASED_UNIT('INCH',#982)LENGTH_UNIT()NAMED_UNIT(*));
#985=PLANE_ANGLE_MEASURE_WITH_UNIT(PLANE_ANGLE_MEASURE(1.745329251994E-2),#984);
#986=(CONVERSION_BASED_UNIT('DEGREE',#985)NAMED_UNIT(*)PLANE_ANGLE_UNIT());
#988=UNCERTAINTY_MEASURE_WITH_UNIT(LENGTH_MEASURE(6.205319850775E-5),#983,
'closure',
'Maximum model space distance between geometric entities at asserted connectivities');
#990=CARTESIAN_POINT('',(0.E0,0.E0,0.E0));
#991=DIRECTION('',(0.E0,0.E0,1.E0));
#992=DIRECTION('',(1.E0,0.E0,0.E0));
#995=MECHANICAL_DESIGN_GEOMETRIC_PRESENTATION_REPRESENTATION('',(#34,#51,#81,
#111,#128,#145,#16),#989);
#996=APPLICATION_CONTEXT('automotive design');
#997=APPLICATION_PROTOCOL_DEFINITION('international standard',
'config_control_design',1994,#996);
#998=PRODUCT_DEFINITION_CONTEXT('',#996,'design');
#999=PRODUCT_CONTEXT('',#996,'mechanical');
#1000=PRODUCT('SWEEP3','SWEEP3','NOT SPECIFIED',(#999));
#1001=PRODUCT_DEFINITION_FORMATION_WITH_SPECIFIED_SOURCE('1','LAST_VERSION',
#1000,.MADE.);
#1009=LENGTH_MEASURE_WITH_UNIT(LENGTH_MEASURE(2.54E1),#1008);
#1010=(CONVERSION_BASED_UNIT('INCH',#1009)LENGTH_UNIT()NAMED_UNIT(*));
#1011=DERIVED_UNIT_ELEMENT(#1010,2.E0);
#1012=AREA_UNIT((#1011));
#1013=MEASURE_REPRESENTATION_ITEM('surface area measure',AREA_MEASURE(
8.106069753686E1),#1012);
#1018=LENGTH_MEASURE_WITH_UNIT(LENGTH_MEASURE(2.54E1),#1017);
#1019=(CONVERSION_BASED_UNIT('INCH',#1018)LENGTH_UNIT()NAMED_UNIT(*));
#1020=DERIVED_UNIT_ELEMENT(#1019,3.E0);
#1021=VOLUME_UNIT((#1020));
#1022=MEASURE_REPRESENTATION_ITEM('volume measure',VOLUME_MEASURE(
3.081354432672E1),#1021);
#1026=CARTESIAN_POINT('centre point',(-4.608480695761E0,-2.476856350718E-1,
5.771891280775E-6));
#1031=LENGTH_MEASURE_WITH_UNIT(LENGTH_MEASURE(2.54E1),#1030);
#1032=(CONVERSION_BASED_UNIT('INCH',#1031)LENGTH_UNIT()NAMED_UNIT(*));
#1033=DERIVED_UNIT_ELEMENT(#1032,2.E0);
#1034=AREA_UNIT((#1033));
#1035=MEASURE_REPRESENTATION_ITEM('surface area measure',AREA_MEASURE(
8.106069753686E1),#1034);
#1040=LENGTH_MEASURE_WITH_UNIT(LENGTH_MEASURE(2.54E1),#1039);
#1041=(CONVERSION_BASED_UNIT('INCH',#1040)LENGTH_UNIT()NAMED_UNIT(*));
#1042=DERIVED_UNIT_ELEMENT(#1041,3.E0);
#1043=VOLUME_UNIT((#1042));
#1044=MEASURE_REPRESENTATION_ITEM('volume measure',VOLUME_MEASURE(
3.081354432672E1),#1043);
#1048=CARTESIAN_POINT('centre point',(-4.608480695761E0,-2.476856350718E-1,
5.771891280775E-6));
#1=DRAUGHTING_PRE_DEFINED_COLOUR('green');
#2=COLOUR_RGB('',1.1E-2,1.2E-2,1.E0);
#3=COLOUR_RGB('',2.352941176471E-1,2.352941176471E-1,2.352941176471E-1);
#4=COLOUR_RGB('',4.1E-1,2.61589E-1,1.12848E-1);
#5=COLOUR_RGB('',5.04854E-1,1.5455E-2,1.5455E-2);
#6=COLOUR_RGB('',6.35294E-1,6.86275E-1,7.4902E-1);
#7=COLOUR_RGB('',6.40777E-1,6.40777E-1,6.40777E-1);
#8=COLOUR_RGB('',6.69062E-1,6.69903E-1,6.55217E-1);
#9=COLOUR_RGB('',9.21569E-1,7.05882E-1,4.70588E-1);
#10=DRAUGHTING_PRE_DEFINED_COLOUR('red');
#11=COLOUR_RGB('',1.E0,1.686274509804E-1,0.E0);
#12=DRAUGHTING_PRE_DEFINED_COLOUR('yellow');
#13=COLOUR_RGB('',1.E0,1.E0,5.3E-1);
#14=COLOUR_RGB('',1.E0,1.E0,9.49E-1);
#15=DRAUGHTING_PRE_DEFINED_COLOUR('white');
#30=B_SPLINE_CURVE_WITH_KNOTS('',3,(#17,#18,#19,#20,#21,#22,#23,#24,#25,#26,#27,
#28,#29),.UNSPECIFIED.,.F.,.F.,(4,1,1,1,1,1,1,1,1,1,4),(0.E0,6.25E-2,1.25E-1,
2.5E-1,3.75E-1,5.E-1,6.25E-1,7.5E-1,8.75E-1,9.375E-1,1.E0),.UNSPECIFIED.);
#48=B_SPLINE_CURVE_WITH_KNOTS('',3,(#35,#36,#37,#38,#39,#40,#41,#42,#43,#44,#45,
#46,#47),.UNSPECIFIED.,.F.,.F.,(4,1,1,1,1,1,1,1,1,1,4),(0.E0,6.25E-2,1.25E-1,
2.5E-1,3.75E-1,5.E-1,6.25E-1,7.5E-1,8.75E-1,9.375E-1,1.E0),.UNSPECIFIED.);
#78=B_SPLINE_CURVE_WITH_KNOTS('',3,(#52,#53,#54,#55,#56,#57,#58,#59,#60,#61,#62,
#63,#64,#65,#66,#67,#68,#69,#70,#71,#72,#73,#74,#75,#76,#77),.UNSPECIFIED.,.F.,
.F.,(4,1,1,1,1,1,1,1,1,1,1,1,1,1,1,1,1,1,1,1,1,1,1,4),(0.E0,1.304815950373E-1,
4.003666617088E-1,5.353091950446E-1,6.027804617125E-1,6.365160950464E-1,
6.533839117134E-1,6.702517283804E-1,6.827058956668E-1,6.951600629532E-1,
7.076142302396E-1,7.200683975260E-1,7.449767320988E-1,7.698850666715E-1,
7.947934012443E-1,8.197017358171E-1,8.321559031035E-1,8.446100703899E-1,
8.570642376763E-1,8.695184049627E-1,8.858286043424E-1,9.021388037220E-1,
9.347592024813E-1,1.E0),.UNSPECIFIED.);
#108=B_SPLINE_CURVE_WITH_KNOTS('',3,(#82,#83,#84,#85,#86,#87,#88,#89,#90,#91,
#92,#93,#94,#95,#96,#97,#98,#99,#100,#101,#102,#103,#104,#105,#106,#107),
.UNSPECIFIED.,.F.,.F.,(4,1,1,1,1,1,1,1,1,1,1,1,1,1,1,1,1,1,1,1,1,1,1,4),(0.E0,
1.304815950373E-1,4.003666617088E-1,5.353091950446E-1,6.027804617125E-1,
6.365160950464E-1,6.533839117134E-1,6.702517283804E-1,6.827058956668E-1,
6.951600629532E-1,7.076142302396E-1,7.200683975260E-1,7.449767320988E-1,
7.698850666715E-1,7.947934012443E-1,8.197017358171E-1,8.321559031035E-1,
8.446100703899E-1,8.570642376763E-1,8.695184049627E-1,8.858286043424E-1,
9.021388037220E-1,9.347592024813E-1,1.E0),.UNSPECIFIED.);
#125=B_SPLINE_CURVE_WITH_KNOTS('',3,(#112,#113,#114,#115,#116,#117,#118,#119,
#120,#121,#122,#123,#124),.UNSPECIFIED.,.F.,.F.,(4,1,1,1,1,1,1,1,1,1,4),(0.E0,
6.25E-2,1.25E-1,2.5E-1,3.75E-1,5.E-1,6.25E-1,7.5E-1,8.75E-1,9.375E-1,1.E0),
.UNSPECIFIED.);
#142=B_SPLINE_CURVE_WITH_KNOTS('',3,(#129,#130,#131,#132,#133,#134,#135,#136,
#137,#138,#139,#140,#141),.UNSPECIFIED.,.F.,.F.,(4,1,1,1,1,1,1,1,1,1,4),(0.E0,
6.25E-2,1.25E-1,2.5E-1,3.75E-1,5.E-1,6.25E-1,7.5E-1,8.75E-1,9.375E-1,1.E0),
.UNSPECIFIED.);
#155=EDGE_CURVE('',#148,#146,#30,.T.);
#157=EDGE_CURVE('',#146,#148,#48,.T.);
#161=ADVANCED_FACE('',(#160),#154,.F.);
#553=EDGE_CURVE('',#147,#149,#142,.T.);
#555=EDGE_CURVE('',#148,#149,#78,.T.);
#558=EDGE_CURVE('',#146,#147,#108,.T.);
#562=ADVANCED_FACE('',(#561),#552,.T.);
#568=EDGE_CURVE('',#149,#147,#125,.T.);
#573=ADVANCED_FACE('',(#572),#567,.T.);
#971=ADVANCED_FACE('',(#970),#964,.T.);
#972=CLOSED_SHELL('',(#161,#562,#573,#971));
#973=MANIFOLD_SOLID_BREP('',#972);
#981=(LENGTH_UNIT()NAMED_UNIT(*)SI_UNIT(.MILLI.,.METRE.));
#984=(NAMED_UNIT(*)PLANE_ANGLE_UNIT()SI_UNIT($,.RADIAN.));
#987=(NAMED_UNIT(*)SI_UNIT($,.STERADIAN.)SOLID_ANGLE_UNIT());
#989=(GEOMETRIC_REPRESENTATION_CONTEXT(3)GLOBAL_UNCERTAINTY_ASSIGNED_CONTEXT((
#988))GLOBAL_UNIT_ASSIGNED_CONTEXT((#983,#986,#987))REPRESENTATION_CONTEXT
('ID1','3'));
#993=AXIS2_PLACEMENT_3D('',#990,#991,#992);
#994=ADVANCED_BREP_SHAPE_REPRESENTATION('',(#993,#973),#989);
#1002=PRODUCT_DEFINITION('design','',#1001,#998);
#1003=PRODUCT_DEFINITION_SHAPE('','SHAPE FOR SWEEP3.',#1002);
#1004=SHAPE_ASPECT('','solid data associated with SWEEP3',#1003,.F.);
#1005=PROPERTY_DEFINITION('',
'shape for solid data with which properties are associated',#1004);
#1006=SHAPE_REPRESENTATION('',(#973),#989);
#1007=SHAPE_DEFINITION_REPRESENTATION(#1005,#1006);
#1008=(LENGTH_UNIT()NAMED_UNIT(*)SI_UNIT(.MILLI.,.METRE.));
#1014=PROPERTY_DEFINITION('geometric validation property','area of SWEEP3',
#1004);
#1015=REPRESENTATION('surface area',(#1013),#989);
#1016=PROPERTY_DEFINITION_REPRESENTATION(#1014,#1015);
#1017=(LENGTH_UNIT()NAMED_UNIT(*)SI_UNIT(.MILLI.,.METRE.));
#1023=PROPERTY_DEFINITION('geometric validation property','volume of SWEEP3',
#1004);
#1024=REPRESENTATION('volume',(#1022),#989);
#1025=PROPERTY_DEFINITION_REPRESENTATION(#1023,#1024);
#1027=PROPERTY_DEFINITION('geometric validation property','centroid of SWEEP3',
#1004);
#1028=REPRESENTATION('centroid',(#1026),#989);
#1029=PROPERTY_DEFINITION_REPRESENTATION(#1027,#1028);
#1030=(LENGTH_UNIT()NAMED_UNIT(*)SI_UNIT(.MILLI.,.METRE.));
#1036=PROPERTY_DEFINITION('geometric validation property','area of SWEEP3',
#1003);
#1037=REPRESENTATION('surface area',(#1035),#989);
#1038=PROPERTY_DEFINITION_REPRESENTATION(#1036,#1037);
#1039=(LENGTH_UNIT()NAMED_UNIT(*)SI_UNIT(.MILLI.,.METRE.));
#1045=PROPERTY_DEFINITION('geometric validation property','volume of SWEEP3',
#1003);
#1046=REPRESENTATION('volume',(#1044),#989);
#1047=PROPERTY_DEFINITION_REPRESENTATION(#1045,#1046);
#1049=PROPERTY_DEFINITION('geometric validation property','centroid of SWEEP3',
#1003);
#1050=REPRESENTATION('centroid',(#1048),#989);
#1051=PROPERTY_DEFINITION_REPRESENTATION(#1049,#1050);
#1052=SHAPE_DEFINITION_REPRESENTATION(#1003,#994);
ENDSEC;
END-ISO-10303-21;
