ISO-10303-21;
HEADER;
FILE_DESCRIPTION((''),'2;1');
FILE_NAME('SZYKLINIOWY22000','2026-06-15T13:46:50',('Esia'),(''),
'CREO PARAMETRIC BY PTC INC, 2025102','CREO PARAMETRIC BY PTC INC, 2025102','');
FILE_SCHEMA((
'AP242_MANAGED_MODEL_BASED_3D_ENGINEERING_MIM_LF { 1 0 10303 442 1 1 4 }'));
ENDSEC;
DATA;
#17=DIRECTION('',(0.E0,1.409982905108E-14,1.E0));
#18=VECTOR('',#17,1.574803525069E-2);
#19=CARTESIAN_POINT('',(3.209292982507E-1,-8.831496062992E-1,
6.301173074978E-2));
#20=LINE('',#19,#18);
#21=DRAUGHTING_PRE_DEFINED_CURVE_FONT('continuous');
#22=CURVE_STYLE('',#21,POSITIVE_LENGTH_MEASURE(2.E-2),#9);
#23=PRESENTATION_STYLE_ASSIGNMENT((#22));
#24=STYLED_ITEM('',(#23),#20);
#25=DIRECTION('',(0.E0,1.E0,0.E0));
#26=VECTOR('',#25,7.874015748031E-3);
#27=CARTESIAN_POINT('',(3.209292982507E-1,-8.910236220472E-1,
6.301173074978E-2));
#28=LINE('',#27,#26);
#29=CURVE_STYLE('',#21,POSITIVE_LENGTH_MEASURE(2.E-2),#9);
#30=PRESENTATION_STYLE_ASSIGNMENT((#29));
#31=STYLED_ITEM('',(#30),#28);
#32=DIRECTION('',(0.E0,0.E0,-1.E0));
#33=VECTOR('',#32,1.574803525069E-2);
#34=CARTESIAN_POINT('',(3.209292982507E-1,-8.910236220472E-1,
7.875976600046E-2));
#35=LINE('',#34,#33);
#36=CURVE_STYLE('',#21,POSITIVE_LENGTH_MEASURE(2.E-2),#9);
#37=PRESENTATION_STYLE_ASSIGNMENT((#36));
#38=STYLED_ITEM('',(#37),#35);
#39=DIRECTION('',(0.E0,-1.E0,0.E0));
#40=VECTOR('',#39,7.874015748031E-3);
#41=CARTESIAN_POINT('',(3.209292982507E-1,-8.831496062992E-1,
7.875976600046E-2));
#42=LINE('',#41,#40);
#43=CURVE_STYLE('',#21,POSITIVE_LENGTH_MEASURE(2.E-2),#9);
#44=PRESENTATION_STYLE_ASSIGNMENT((#43));
#45=STYLED_ITEM('',(#44),#42);
#46=CARTESIAN_POINT('',(2.953387433150E-1,-8.831496062992E-1,
7.285425043482E-2));
#47=DIRECTION('',(0.E0,1.E0,0.E0));
#48=DIRECTION('',(2.255973186038E-14,0.E0,-1.E0));
#49=AXIS2_PLACEMENT_3D('',#46,#47,#48);
#51=CURVE_STYLE('',#21,POSITIVE_LENGTH_MEASURE(2.E-2),#9);
#52=PRESENTATION_STYLE_ASSIGNMENT((#51));
#53=STYLED_ITEM('',(#52),#50);
#54=DIRECTION('',(-1.E0,1.025442001676E-14,0.E0));
#55=VECTOR('',#54,2.165355081633E-2);
#56=CARTESIAN_POINT('',(3.209292982507E-1,-8.831496062992E-1,
7.875976600046E-2));
#57=LINE('',#56,#55);
#58=CURVE_STYLE('',#21,POSITIVE_LENGTH_MEASURE(2.E-2),#9);
#59=PRESENTATION_STYLE_ASSIGNMENT((#58));
#60=STYLED_ITEM('',(#59),#57);
#61=DIRECTION('',(1.E0,0.E0,0.E0));
#62=VECTOR('',#61,2.165355081633E-2);
#63=CARTESIAN_POINT('',(2.992757474344E-1,-8.910236220472E-1,
7.875976600046E-2));
#64=LINE('',#63,#62);
#65=CURVE_STYLE('',#21,POSITIVE_LENGTH_MEASURE(2.E-2),#9);
#66=PRESENTATION_STYLE_ASSIGNMENT((#65));
#67=STYLED_ITEM('',(#66),#64);
#68=CARTESIAN_POINT('',(2.953387433150E-1,-8.910236220472E-1,
7.285425043482E-2));
#69=DIRECTION('',(0.E0,-1.E0,0.E0));
#70=DIRECTION('',(-1.E0,0.E0,0.E0));
#71=AXIS2_PLACEMENT_3D('',#68,#69,#70);
#73=CURVE_STYLE('',#21,POSITIVE_LENGTH_MEASURE(2.E-2),#9);
#74=PRESENTATION_STYLE_ASSIGNMENT((#73));
#75=STYLED_ITEM('',(#74),#72);
#76=DIRECTION('',(1.E0,0.E0,0.E0));
#77=VECTOR('',#76,2.559055493573E-2);
#78=CARTESIAN_POINT('',(2.953387433150E-1,-8.831496062992E-1,
6.301173074978E-2));
#79=LINE('',#78,#77);
#80=CURVE_STYLE('',#21,POSITIVE_LENGTH_MEASURE(2.E-2),#9);
#81=PRESENTATION_STYLE_ASSIGNMENT((#80));
#82=STYLED_ITEM('',(#81),#79);
#83=DIRECTION('',(-1.E0,0.E0,0.E0));
#84=VECTOR('',#83,2.559055493573E-2);
#85=CARTESIAN_POINT('',(3.209292982507E-1,-8.910236220472E-1,
6.301173074978E-2));
#86=LINE('',#85,#84);
#87=CURVE_STYLE('',#21,POSITIVE_LENGTH_MEASURE(2.E-2),#9);
#88=PRESENTATION_STYLE_ASSIGNMENT((#87));
#89=STYLED_ITEM('',(#88),#86);
#90=DIRECTION('',(0.E0,1.E0,0.E0));
#91=VECTOR('',#90,7.874015748031E-3);
#92=CARTESIAN_POINT('',(2.854962236299E-1,-8.910236220472E-1,
7.285425043482E-2));
#93=LINE('',#92,#91);
#94=CURVE_STYLE('',#21,POSITIVE_LENGTH_MEASURE(2.E-2),#9);
#95=PRESENTATION_STYLE_ASSIGNMENT((#94));
#96=STYLED_ITEM('',(#95),#93);
#97=DIRECTION('',(0.E0,-1.E0,0.E0));
#98=VECTOR('',#97,7.874015748031E-3);
#99=CARTESIAN_POINT('',(2.953387433150E-1,-8.831496062992E-1,
6.301173074978E-2));
#100=LINE('',#99,#98);
#101=CURVE_STYLE('',#21,POSITIVE_LENGTH_MEASURE(2.E-2),#9);
#102=PRESENTATION_STYLE_ASSIGNMENT((#101));
#103=STYLED_ITEM('',(#102),#100);
#104=DIRECTION('',(1.E0,1.127993047447E-13,0.E0));
#105=VECTOR('',#104,1.968492673138E-3);
#106=CARTESIAN_POINT('',(2.835277309568E-1,-8.831496062992E-1,
7.285425043482E-2));
#107=LINE('',#106,#105);
#108=CURVE_STYLE('',#21,POSITIVE_LENGTH_MEASURE(2.E-2),#9);
#109=PRESENTATION_STYLE_ASSIGNMENT((#108));
#110=STYLED_ITEM('',(#109),#107);
#111=DIRECTION('',(0.E0,1.E0,0.E0));
#112=VECTOR('',#111,7.874015748031E-3);
#113=CARTESIAN_POINT('',(2.835277309568E-1,-8.910236220472E-1,
7.285425043482E-2));
#114=LINE('',#113,#112);
#115=CURVE_STYLE('',#21,POSITIVE_LENGTH_MEASURE(2.E-2),#9);
#116=PRESENTATION_STYLE_ASSIGNMENT((#115));
#117=STYLED_ITEM('',(#116),#114);
#118=DIRECTION('',(-1.E0,0.E0,0.E0));
#119=VECTOR('',#118,1.968492673138E-3);
#120=CARTESIAN_POINT('',(2.854962236299E-1,-8.910236220472E-1,
7.285425043482E-2));
#121=LINE('',#120,#119);
#122=CURVE_STYLE('',#21,POSITIVE_LENGTH_MEASURE(2.E-2),#9);
#123=PRESENTATION_STYLE_ASSIGNMENT((#122));
#124=STYLED_ITEM('',(#123),#121);
#125=DIRECTION('',(0.E0,1.127986593019E-14,-1.E0));
#126=VECTOR('',#125,1.968503937008E-2);
#127=CARTESIAN_POINT('',(2.835277309568E-1,-8.831496062992E-1,
9.253928980489E-2));
#128=LINE('',#127,#126);
#129=CURVE_STYLE('',#21,POSITIVE_LENGTH_MEASURE(2.E-2),#9);
#130=PRESENTATION_STYLE_ASSIGNMENT((#129));
#131=STYLED_ITEM('',(#130),#128);
#132=DIRECTION('',(0.E0,1.E0,0.E0));
#133=VECTOR('',#132,7.874015748031E-3);
#134=CARTESIAN_POINT('',(2.835277309568E-1,-8.910236220472E-1,
9.253928980489E-2));
#135=LINE('',#134,#133);
#136=CURVE_STYLE('',#21,POSITIVE_LENGTH_MEASURE(2.E-2),#9);
#137=PRESENTATION_STYLE_ASSIGNMENT((#136));
#138=STYLED_ITEM('',(#137),#135);
#139=DIRECTION('',(0.E0,0.E0,1.E0));
#140=VECTOR('',#139,1.968503937008E-2);
#141=CARTESIAN_POINT('',(2.835277309568E-1,-8.910236220472E-1,
7.285425043482E-2));
#142=LINE('',#141,#140);
#143=CURVE_STYLE('',#21,POSITIVE_LENGTH_MEASURE(2.E-2),#9);
#144=PRESENTATION_STYLE_ASSIGNMENT((#143));
#145=STYLED_ITEM('',(#144),#142);
#146=DIRECTION('',(-1.E0,5.127227789123E-14,0.E0));
#147=VECTOR('',#146,4.330695144773E-3);
#148=CARTESIAN_POINT('',(2.878584261016E-1,-8.831496062992E-1,
9.253928980489E-2));
#149=LINE('',#148,#147);
#150=CURVE_STYLE('',#21,POSITIVE_LENGTH_MEASURE(2.E-2),#9);
#151=PRESENTATION_STYLE_ASSIGNMENT((#150));
#152=STYLED_ITEM('',(#151),#149);
#153=DIRECTION('',(0.E0,1.E0,0.E0));
#154=VECTOR('',#153,7.874015748031E-3);
#155=CARTESIAN_POINT('',(2.878584261016E-1,-8.910236220472E-1,
9.253928980489E-2));
#156=LINE('',#155,#154);
#157=CURVE_STYLE('',#21,POSITIVE_LENGTH_MEASURE(2.E-2),#9);
#158=PRESENTATION_STYLE_ASSIGNMENT((#157));
#159=STYLED_ITEM('',(#158),#156);
#160=DIRECTION('',(1.E0,0.E0,0.E0));
#161=VECTOR('',#160,4.330695144773E-3);
#162=CARTESIAN_POINT('',(2.835277309568E-1,-8.910236220472E-1,
9.253928980489E-2));
#163=LINE('',#162,#161);
#164=CURVE_STYLE('',#21,POSITIVE_LENGTH_MEASURE(2.E-2),#9);
#165=PRESENTATION_STYLE_ASSIGNMENT((#164));
#166=STYLED_ITEM('',(#165),#163);
#167=DIRECTION('',(0.E0,1.127987668752E-13,1.E0));
#168=VECTOR('',#167,1.968502059696E-3);
#169=CARTESIAN_POINT('',(2.878584261016E-1,-8.831496062992E-1,
9.057078774520E-2));
#170=LINE('',#169,#168);
#171=CURVE_STYLE('',#21,POSITIVE_LENGTH_MEASURE(2.E-2),#9);
#172=PRESENTATION_STYLE_ASSIGNMENT((#171));
#173=STYLED_ITEM('',(#172),#170);
#174=DIRECTION('',(0.E0,1.E0,0.E0));
#175=VECTOR('',#174,7.874015748031E-3);
#176=CARTESIAN_POINT('',(2.878584261016E-1,-8.910236220472E-1,
9.057078774520E-2));
#177=LINE('',#176,#175);
#178=CURVE_STYLE('',#21,POSITIVE_LENGTH_MEASURE(2.E-2),#9);
#179=PRESENTATION_STYLE_ASSIGNMENT((#178));
#180=STYLED_ITEM('',(#179),#177);
#181=DIRECTION('',(0.E0,0.E0,-1.E0));
#182=VECTOR('',#181,1.968502059696E-3);
#183=CARTESIAN_POINT('',(2.878584261016E-1,-8.910236220472E-1,
9.253928980489E-2));
#184=LINE('',#183,#182);
#185=CURVE_STYLE('',#21,POSITIVE_LENGTH_MEASURE(2.E-2),#9);
#186=PRESENTATION_STYLE_ASSIGNMENT((#185));
#187=STYLED_ITEM('',(#186),#184);
#188=DIRECTION('',(-1.E0,1.944804726545E-14,0.E0));
#189=VECTOR('',#188,1.141732133280E-2);
#190=CARTESIAN_POINT('',(2.992757474344E-1,-8.831496062992E-1,
9.057078774520E-2));
#191=LINE('',#190,#189);
#192=CURVE_STYLE('',#21,POSITIVE_LENGTH_MEASURE(2.E-2),#9);
#193=PRESENTATION_STYLE_ASSIGNMENT((#192));
#194=STYLED_ITEM('',(#193),#191);
#195=DIRECTION('',(0.E0,1.E0,0.E0));
#196=VECTOR('',#195,7.874015748031E-3);
#197=CARTESIAN_POINT('',(2.992757474344E-1,-8.910236220472E-1,
9.057078774520E-2));
#198=LINE('',#197,#196);
#199=CURVE_STYLE('',#21,POSITIVE_LENGTH_MEASURE(2.E-2),#9);
#200=PRESENTATION_STYLE_ASSIGNMENT((#199));
#201=STYLED_ITEM('',(#200),#198);
#202=DIRECTION('',(1.E0,0.E0,0.E0));
#203=VECTOR('',#202,1.141732133280E-2);
#204=CARTESIAN_POINT('',(2.878584261016E-1,-8.910236220472E-1,
9.057078774520E-2));
#205=LINE('',#204,#203);
#206=CURVE_STYLE('',#21,POSITIVE_LENGTH_MEASURE(2.E-2),#9);
#207=PRESENTATION_STYLE_ASSIGNMENT((#206));
#208=STYLED_ITEM('',(#207),#205);
#209=DIRECTION('',(0.E0,1.879977953846E-14,1.E0));
#210=VECTOR('',#209,1.181102174474E-2);
#211=CARTESIAN_POINT('',(2.992757474344E-1,-8.831496062992E-1,
7.875976600046E-2));
#212=LINE('',#211,#210);
#213=CURVE_STYLE('',#21,POSITIVE_LENGTH_MEASURE(2.E-2),#9);
#214=PRESENTATION_STYLE_ASSIGNMENT((#213));
#215=STYLED_ITEM('',(#214),#212);
#216=DIRECTION('',(0.E0,1.E0,0.E0));
#217=VECTOR('',#216,7.874015748031E-3);
#218=CARTESIAN_POINT('',(2.992757474344E-1,-8.910236220472E-1,
7.875976600046E-2));
#219=LINE('',#218,#217);
#220=CURVE_STYLE('',#21,POSITIVE_LENGTH_MEASURE(2.E-2),#9);
#221=PRESENTATION_STYLE_ASSIGNMENT((#220));
#222=STYLED_ITEM('',(#221),#219);
#223=DIRECTION('',(0.E0,0.E0,-1.E0));
#224=VECTOR('',#223,1.181102174474E-2);
#225=CARTESIAN_POINT('',(2.992757474344E-1,-8.910236220472E-1,
9.057078774520E-2));
#226=LINE('',#225,#224);
#227=CURVE_STYLE('',#21,POSITIVE_LENGTH_MEASURE(2.E-2),#9);
#228=PRESENTATION_STYLE_ASSIGNMENT((#227));
#229=STYLED_ITEM('',(#228),#226);
#230=CARTESIAN_POINT('',(3.209292982507E-1,-8.910236220472E-1,
6.301173074978E-2));
#231=CARTESIAN_POINT('',(3.209292982507E-1,-8.831496062992E-1,
6.301173074978E-2));
#232=VERTEX_POINT('',#230);
#233=VERTEX_POINT('',#231);
#234=CARTESIAN_POINT('',(3.209292982507E-1,-8.831496062992E-1,
7.875976600046E-2));
#235=CARTESIAN_POINT('',(3.209292982507E-1,-8.910236220472E-1,
7.875976600046E-2));
#236=VERTEX_POINT('',#234);
#237=VERTEX_POINT('',#235);
#238=CARTESIAN_POINT('',(2.953387433150E-1,-8.831496062992E-1,
6.301173074978E-2));
#239=CARTESIAN_POINT('',(2.953387433150E-1,-8.910236220472E-1,
6.301173074978E-2));
#240=VERTEX_POINT('',#238);
#241=VERTEX_POINT('',#239);
#242=CARTESIAN_POINT('',(2.854962236299E-1,-8.831496062992E-1,
7.285425043482E-2));
#243=VERTEX_POINT('',#242);
#244=CARTESIAN_POINT('',(2.992757474344E-1,-8.910236220472E-1,
7.875976600046E-2));
#245=VERTEX_POINT('',#244);
#246=CARTESIAN_POINT('',(2.854962236299E-1,-8.910236220472E-1,
7.285425043482E-2));
#247=CARTESIAN_POINT('',(2.835277309568E-1,-8.910236220472E-1,
7.285425043482E-2));
#248=VERTEX_POINT('',#246);
#249=VERTEX_POINT('',#247);
#250=CARTESIAN_POINT('',(2.835277309568E-1,-8.910236220472E-1,
9.253928980489E-2));
#251=VERTEX_POINT('',#250);
#252=CARTESIAN_POINT('',(2.835277309568E-1,-8.831496062992E-1,
7.285425043482E-2));
#253=VERTEX_POINT('',#252);
#254=CARTESIAN_POINT('',(2.992757474344E-1,-8.831496062992E-1,
7.875976600046E-2));
#255=VERTEX_POINT('',#254);
#256=CARTESIAN_POINT('',(2.992757474344E-1,-8.831496062992E-1,
9.057078774520E-2));
#257=VERTEX_POINT('',#256);
#258=CARTESIAN_POINT('',(2.878584261016E-1,-8.831496062992E-1,
9.057078774520E-2));
#259=VERTEX_POINT('',#258);
#260=CARTESIAN_POINT('',(2.878584261016E-1,-8.831496062992E-1,
9.253928980489E-2));
#261=VERTEX_POINT('',#260);
#262=CARTESIAN_POINT('',(2.835277309568E-1,-8.831496062992E-1,
9.253928980489E-2));
#263=VERTEX_POINT('',#262);
#264=CARTESIAN_POINT('',(2.878584261016E-1,-8.910236220472E-1,
9.253928980489E-2));
#265=VERTEX_POINT('',#264);
#266=CARTESIAN_POINT('',(2.878584261016E-1,-8.910236220472E-1,
9.057078774520E-2));
#267=VERTEX_POINT('',#266);
#268=CARTESIAN_POINT('',(2.992757474344E-1,-8.910236220472E-1,
9.057078774520E-2));
#269=VERTEX_POINT('',#268);
#270=CARTESIAN_POINT('',(3.209292982507E-1,-8.910236220472E-1,
7.875976600046E-2));
#271=DIRECTION('',(1.E0,0.E0,0.E0));
#272=DIRECTION('',(0.E0,0.E0,1.E0));
#273=AXIS2_PLACEMENT_3D('',#270,#271,#272);
#274=PLANE('',#273);
#276=ORIENTED_EDGE('',*,*,#275,.F.);
#278=ORIENTED_EDGE('',*,*,#277,.F.);
#280=ORIENTED_EDGE('',*,*,#279,.F.);
#282=ORIENTED_EDGE('',*,*,#281,.F.);
#283=EDGE_LOOP('',(#276,#278,#280,#282));
#284=FACE_OUTER_BOUND('',#283,.F.);
#286=CARTESIAN_POINT('',(2.953387433150E-1,-8.831496062992E-1,
7.285425043482E-2));
#287=DIRECTION('',(0.E0,-1.E0,0.E0));
#288=DIRECTION('',(0.E0,0.E0,-1.E0));
#289=AXIS2_PLACEMENT_3D('',#286,#287,#288);
#290=PLANE('',#289);
#291=ORIENTED_EDGE('',*,*,#275,.T.);
#293=ORIENTED_EDGE('',*,*,#292,.T.);
#295=ORIENTED_EDGE('',*,*,#294,.T.);
#297=ORIENTED_EDGE('',*,*,#296,.T.);
#299=ORIENTED_EDGE('',*,*,#298,.T.);
#301=ORIENTED_EDGE('',*,*,#300,.T.);
#303=ORIENTED_EDGE('',*,*,#302,.T.);
#305=ORIENTED_EDGE('',*,*,#304,.T.);
#307=ORIENTED_EDGE('',*,*,#306,.F.);
#309=ORIENTED_EDGE('',*,*,#308,.T.);
#310=EDGE_LOOP('',(#291,#293,#295,#297,#299,#301,#303,#305,#307,#309));
#311=FACE_OUTER_BOUND('',#310,.F.);
#313=CARTESIAN_POINT('',(3.209292982507E-1,-8.910236220472E-1,
7.875976600046E-2));
#314=DIRECTION('',(0.E0,0.E0,1.E0));
#315=DIRECTION('',(-1.E0,0.E0,0.E0));
#316=AXIS2_PLACEMENT_3D('',#313,#314,#315);
#317=PLANE('',#316);
#318=ORIENTED_EDGE('',*,*,#292,.F.);
#319=ORIENTED_EDGE('',*,*,#281,.T.);
#321=ORIENTED_EDGE('',*,*,#320,.F.);
#323=ORIENTED_EDGE('',*,*,#322,.T.);
#324=EDGE_LOOP('',(#318,#319,#321,#323));
#325=FACE_OUTER_BOUND('',#324,.F.);
#327=CARTESIAN_POINT('',(2.953387433150E-1,-8.910236220472E-1,
7.285425043482E-2));
#328=DIRECTION('',(0.E0,-1.E0,0.E0));
#329=DIRECTION('',(0.E0,0.E0,-1.E0));
#330=AXIS2_PLACEMENT_3D('',#327,#328,#329);
#331=PLANE('',#330);
#332=ORIENTED_EDGE('',*,*,#279,.T.);
#334=ORIENTED_EDGE('',*,*,#333,.T.);
#336=ORIENTED_EDGE('',*,*,#335,.F.);
#338=ORIENTED_EDGE('',*,*,#337,.T.);
#340=ORIENTED_EDGE('',*,*,#339,.T.);
#342=ORIENTED_EDGE('',*,*,#341,.T.);
#344=ORIENTED_EDGE('',*,*,#343,.T.);
#346=ORIENTED_EDGE('',*,*,#345,.T.);
#348=ORIENTED_EDGE('',*,*,#347,.T.);
#349=ORIENTED_EDGE('',*,*,#320,.T.);
#350=EDGE_LOOP('',(#332,#334,#336,#338,#340,#342,#344,#346,#348,#349));
#351=FACE_OUTER_BOUND('',#350,.F.);
#353=CARTESIAN_POINT('',(3.209292982507E-1,-8.910236220472E-1,
6.301173074978E-2));
#354=DIRECTION('',(0.E0,0.E0,-1.E0));
#355=DIRECTION('',(1.E0,0.E0,0.E0));
#356=AXIS2_PLACEMENT_3D('',#353,#354,#355);
#357=PLANE('',#356);
#358=ORIENTED_EDGE('',*,*,#308,.F.);
#360=ORIENTED_EDGE('',*,*,#359,.T.);
#361=ORIENTED_EDGE('',*,*,#333,.F.);
#362=ORIENTED_EDGE('',*,*,#277,.T.);
#363=EDGE_LOOP('',(#358,#360,#361,#362));
#364=FACE_OUTER_BOUND('',#363,.F.);
#366=CARTESIAN_POINT('',(2.953387433150E-1,-8.910236220472E-1,
7.285425043482E-2));
#367=DIRECTION('',(0.E0,1.E0,0.E0));
#368=DIRECTION('',(0.E0,0.E0,1.E0));
#369=AXIS2_PLACEMENT_3D('',#366,#367,#368);
#370=CYLINDRICAL_SURFACE('',#369,9.842519685039E-3);
#371=ORIENTED_EDGE('',*,*,#306,.T.);
#373=ORIENTED_EDGE('',*,*,#372,.F.);
#374=ORIENTED_EDGE('',*,*,#335,.T.);
#375=ORIENTED_EDGE('',*,*,#359,.F.);
#376=EDGE_LOOP('',(#371,#373,#374,#375));
#377=FACE_OUTER_BOUND('',#376,.F.);
#379=CARTESIAN_POINT('',(2.835277309568E-1,-8.910236220472E-1,
7.285425043482E-2));
#380=DIRECTION('',(0.E0,0.E0,-1.E0));
#381=DIRECTION('',(1.E0,0.E0,0.E0));
#382=AXIS2_PLACEMENT_3D('',#379,#380,#381);
#383=PLANE('',#382);
#384=ORIENTED_EDGE('',*,*,#304,.F.);
#386=ORIENTED_EDGE('',*,*,#385,.F.);
#387=ORIENTED_EDGE('',*,*,#337,.F.);
#388=ORIENTED_EDGE('',*,*,#372,.T.);
#389=EDGE_LOOP('',(#384,#386,#387,#388));
#390=FACE_OUTER_BOUND('',#389,.F.);
#392=CARTESIAN_POINT('',(2.835277309568E-1,-8.910236220472E-1,
9.253928980489E-2));
#393=DIRECTION('',(-1.E0,0.E0,0.E0));
#394=DIRECTION('',(0.E0,0.E0,-1.E0));
#395=AXIS2_PLACEMENT_3D('',#392,#393,#394);
#396=PLANE('',#395);
#397=ORIENTED_EDGE('',*,*,#302,.F.);
#399=ORIENTED_EDGE('',*,*,#398,.F.);
#400=ORIENTED_EDGE('',*,*,#339,.F.);
#401=ORIENTED_EDGE('',*,*,#385,.T.);
#402=EDGE_LOOP('',(#397,#399,#400,#401));
#403=FACE_OUTER_BOUND('',#402,.F.);
#405=CARTESIAN_POINT('',(2.878584261016E-1,-8.910236220472E-1,
9.253928980489E-2));
#406=DIRECTION('',(0.E0,0.E0,1.E0));
#407=DIRECTION('',(-1.E0,0.E0,0.E0));
#408=AXIS2_PLACEMENT_3D('',#405,#406,#407);
#409=PLANE('',#408);
#410=ORIENTED_EDGE('',*,*,#300,.F.);
#412=ORIENTED_EDGE('',*,*,#411,.F.);
#413=ORIENTED_EDGE('',*,*,#341,.F.);
#414=ORIENTED_EDGE('',*,*,#398,.T.);
#415=EDGE_LOOP('',(#410,#412,#413,#414));
#416=FACE_OUTER_BOUND('',#415,.F.);
#418=CARTESIAN_POINT('',(2.878584261016E-1,-8.910236220472E-1,
9.057078774520E-2));
#419=DIRECTION('',(1.E0,0.E0,0.E0));
#420=DIRECTION('',(0.E0,0.E0,1.E0));
#421=AXIS2_PLACEMENT_3D('',#418,#419,#420);
#422=PLANE('',#421);
#423=ORIENTED_EDGE('',*,*,#298,.F.);
#425=ORIENTED_EDGE('',*,*,#424,.F.);
#426=ORIENTED_EDGE('',*,*,#343,.F.);
#427=ORIENTED_EDGE('',*,*,#411,.T.);
#428=EDGE_LOOP('',(#423,#425,#426,#427));
#429=FACE_OUTER_BOUND('',#428,.F.);
#431=CARTESIAN_POINT('',(2.992757474344E-1,-8.910236220472E-1,
9.057078774520E-2));
#432=DIRECTION('',(0.E0,0.E0,1.E0));
#433=DIRECTION('',(-1.E0,0.E0,0.E0));
#434=AXIS2_PLACEMENT_3D('',#431,#432,#433);
#435=PLANE('',#434);
#436=ORIENTED_EDGE('',*,*,#296,.F.);
#438=ORIENTED_EDGE('',*,*,#437,.F.);
#439=ORIENTED_EDGE('',*,*,#345,.F.);
#440=ORIENTED_EDGE('',*,*,#424,.T.);
#441=EDGE_LOOP('',(#436,#438,#439,#440));
#442=FACE_OUTER_BOUND('',#441,.F.);
#444=CARTESIAN_POINT('',(2.992757474344E-1,-8.910236220472E-1,
7.875976600046E-2));
#445=DIRECTION('',(1.E0,0.E0,0.E0));
#446=DIRECTION('',(0.E0,0.E0,1.E0));
#447=AXIS2_PLACEMENT_3D('',#444,#445,#446);
#448=PLANE('',#447);
#449=ORIENTED_EDGE('',*,*,#294,.F.);
#450=ORIENTED_EDGE('',*,*,#322,.F.);
#451=ORIENTED_EDGE('',*,*,#347,.F.);
#452=ORIENTED_EDGE('',*,*,#437,.T.);
#453=EDGE_LOOP('',(#449,#450,#451,#452));
#454=FACE_OUTER_BOUND('',#453,.F.);
#458=FILL_AREA_STYLE_COLOUR('',#9);
#459=FILL_AREA_STYLE('',(#458));
#460=SURFACE_STYLE_FILL_AREA(#459);
#461=SURFACE_SIDE_STYLE('',(#460));
#462=SURFACE_STYLE_USAGE(.BOTH.,#461);
#463=PRESENTATION_STYLE_ASSIGNMENT((#462));
#16=STYLED_ITEM('',(#463),#457);
#464=PRESENTATION_LAYER_ASSIGNMENT('SHELL_488','',(#16,#285,#312,#326,#352,#365,
#378,#391,#404,#417,#430,#443,#455));
#466=LENGTH_MEASURE_WITH_UNIT(LENGTH_MEASURE(2.54E1),#465);
#467=(CONVERSION_BASED_UNIT('INCH',#466)LENGTH_UNIT()NAMED_UNIT(*));
#469=PLANE_ANGLE_MEASURE_WITH_UNIT(PLANE_ANGLE_MEASURE(1.745329251994E-2),#468);
#470=(CONVERSION_BASED_UNIT('DEGREE',#469)NAMED_UNIT(*)PLANE_ANGLE_UNIT());
#472=UNCERTAINTY_MEASURE_WITH_UNIT(LENGTH_MEASURE(4.829666124276E-6),#467,
'closure',
'Maximum model space distance between geometric entities at asserted connectivities');
#474=CARTESIAN_POINT('',(0.E0,0.E0,0.E0));
#475=DIRECTION('',(0.E0,0.E0,1.E0));
#476=DIRECTION('',(1.E0,0.E0,0.E0));
#479=MECHANICAL_DESIGN_GEOMETRIC_PRESENTATION_REPRESENTATION('',(#24,#31,#38,
#45,#53,#60,#67,#75,#82,#89,#96,#103,#110,#117,#124,#131,#138,#145,#152,#159,
#166,#173,#180,#187,#194,#201,#208,#215,#222,#229,#16),#473);
#480=APPLICATION_CONTEXT('automotive design');
#481=APPLICATION_PROTOCOL_DEFINITION('international standard',
'config_control_design',1994,#480);
#482=PRODUCT_DEFINITION_CONTEXT('',#480,'design');
#483=PRODUCT_CONTEXT('',#480,'mechanical');
#484=PRODUCT('SZYKLINIOWY22000','SZYKLINIOWY22000','NOT SPECIFIED',(#483));
#485=PRODUCT_DEFINITION_FORMATION_WITH_SPECIFIED_SOURCE('1','LAST_VERSION',#484,
.MADE.);
#493=LENGTH_MEASURE_WITH_UNIT(LENGTH_MEASURE(2.54E1),#492);
#494=(CONVERSION_BASED_UNIT('INCH',#493)LENGTH_UNIT()NAMED_UNIT(*));
#495=DERIVED_UNIT_ELEMENT(#494,2.E0);
#496=AREA_UNIT((#495));
#497=MEASURE_REPRESENTATION_ITEM('surface area measure',AREA_MEASURE(
1.617714370280E0),#496);
#502=LENGTH_MEASURE_WITH_UNIT(LENGTH_MEASURE(2.54E1),#501);
#503=(CONVERSION_BASED_UNIT('INCH',#502)LENGTH_UNIT()NAMED_UNIT(*));
#504=DERIVED_UNIT_ELEMENT(#503,3.E0);
#505=VOLUME_UNIT((#504));
#506=MEASURE_REPRESENTATION_ITEM('volume measure',VOLUME_MEASURE(
9.591746302385E-2),#505);
#510=CARTESIAN_POINT('centre point',(7.625031554701E0,-2.2532E1,
1.900080450707E0));
#515=LENGTH_MEASURE_WITH_UNIT(LENGTH_MEASURE(2.54E1),#514);
#516=(CONVERSION_BASED_UNIT('INCH',#515)LENGTH_UNIT()NAMED_UNIT(*));
#517=DERIVED_UNIT_ELEMENT(#516,2.E0);
#518=AREA_UNIT((#517));
#519=MEASURE_REPRESENTATION_ITEM('surface area measure',AREA_MEASURE(
1.617714370280E0),#518);
#524=LENGTH_MEASURE_WITH_UNIT(LENGTH_MEASURE(2.54E1),#523);
#525=(CONVERSION_BASED_UNIT('INCH',#524)LENGTH_UNIT()NAMED_UNIT(*));
#526=DERIVED_UNIT_ELEMENT(#525,3.E0);
#527=VOLUME_UNIT((#526));
#528=MEASURE_REPRESENTATION_ITEM('volume measure',VOLUME_MEASURE(
9.591746302385E-2),#527);
#532=CARTESIAN_POINT('centre point',(7.625031554701E0,-2.2532E1,
1.900080450707E0));
#1=DRAUGHTING_PRE_DEFINED_COLOUR('green');
#2=COLOUR_RGB('',1.1E-2,1.2E-2,1.E0);
#3=COLOUR_RGB('',2.352941176471E-1,2.352941176471E-1,2.352941176471E-1);
#4=COLOUR_RGB('',4.1E-1,2.61589E-1,1.12848E-1);
#5=COLOUR_RGB('',5.04854E-1,1.5455E-2,1.5455E-2);
#6=COLOUR_RGB('',6.35294E-1,6.86275E-1,7.4902E-1);
#7=COLOUR_RGB('',6.40777E-1,6.40777E-1,6.40777E-1);
#8=COLOUR_RGB('',6.69062E-1,6.69903E-1,6.55217E-1);
#9=COLOUR_RGB('',7.921568627451E-1,8.196078431373E-1,9.333333333333E-1);
#10=COLOUR_RGB('',9.21569E-1,7.05882E-1,4.70588E-1);
#11=DRAUGHTING_PRE_DEFINED_COLOUR('red');
#12=DRAUGHTING_PRE_DEFINED_COLOUR('yellow');
#13=COLOUR_RGB('',1.E0,1.E0,5.3E-1);
#14=COLOUR_RGB('',1.E0,1.E0,9.49E-1);
#15=DRAUGHTING_PRE_DEFINED_COLOUR('white');
#50=CIRCLE('',#49,9.842519685039E-3);
#72=CIRCLE('',#71,9.842519685039E-3);
#275=EDGE_CURVE('',#233,#236,#20,.T.);
#277=EDGE_CURVE('',#232,#233,#28,.T.);
#279=EDGE_CURVE('',#237,#232,#35,.T.);
#281=EDGE_CURVE('',#236,#237,#42,.T.);
#285=ADVANCED_FACE('',(#284),#274,.T.);
#292=EDGE_CURVE('',#236,#255,#57,.T.);
#294=EDGE_CURVE('',#255,#257,#212,.T.);
#296=EDGE_CURVE('',#257,#259,#191,.T.);
#298=EDGE_CURVE('',#259,#261,#170,.T.);
#300=EDGE_CURVE('',#261,#263,#149,.T.);
#302=EDGE_CURVE('',#263,#253,#128,.T.);
#304=EDGE_CURVE('',#253,#243,#107,.T.);
#306=EDGE_CURVE('',#240,#243,#50,.T.);
#308=EDGE_CURVE('',#240,#233,#79,.T.);
#312=ADVANCED_FACE('',(#311),#290,.F.);
#320=EDGE_CURVE('',#245,#237,#64,.T.);
#322=EDGE_CURVE('',#245,#255,#219,.T.);
#326=ADVANCED_FACE('',(#325),#317,.T.);
#333=EDGE_CURVE('',#232,#241,#86,.T.);
#335=EDGE_CURVE('',#248,#241,#72,.T.);
#337=EDGE_CURVE('',#248,#249,#121,.T.);
#339=EDGE_CURVE('',#249,#251,#142,.T.);
#341=EDGE_CURVE('',#251,#265,#163,.T.);
#343=EDGE_CURVE('',#265,#267,#184,.T.);
#345=EDGE_CURVE('',#267,#269,#205,.T.);
#347=EDGE_CURVE('',#269,#245,#226,.T.);
#352=ADVANCED_FACE('',(#351),#331,.T.);
#359=EDGE_CURVE('',#240,#241,#100,.T.);
#365=ADVANCED_FACE('',(#364),#357,.T.);
#372=EDGE_CURVE('',#248,#243,#93,.T.);
#378=ADVANCED_FACE('',(#377),#370,.T.);
#385=EDGE_CURVE('',#249,#253,#114,.T.);
#391=ADVANCED_FACE('',(#390),#383,.T.);
#398=EDGE_CURVE('',#251,#263,#135,.T.);
#404=ADVANCED_FACE('',(#403),#396,.T.);
#411=EDGE_CURVE('',#265,#261,#156,.T.);
#417=ADVANCED_FACE('',(#416),#409,.T.);
#424=EDGE_CURVE('',#267,#259,#177,.T.);
#430=ADVANCED_FACE('',(#429),#422,.T.);
#437=EDGE_CURVE('',#269,#257,#198,.T.);
#443=ADVANCED_FACE('',(#442),#435,.T.);
#455=ADVANCED_FACE('',(#454),#448,.T.);
#456=CLOSED_SHELL('',(#285,#312,#326,#352,#365,#378,#391,#404,#417,#430,#443,
#455));
#457=MANIFOLD_SOLID_BREP('',#456);
#465=(LENGTH_UNIT()NAMED_UNIT(*)SI_UNIT(.MILLI.,.METRE.));
#468=(NAMED_UNIT(*)PLANE_ANGLE_UNIT()SI_UNIT($,.RADIAN.));
#471=(NAMED_UNIT(*)SI_UNIT($,.STERADIAN.)SOLID_ANGLE_UNIT());
#473=(GEOMETRIC_REPRESENTATION_CONTEXT(3)GLOBAL_UNCERTAINTY_ASSIGNED_CONTEXT((
#472))GLOBAL_UNIT_ASSIGNED_CONTEXT((#467,#470,#471))REPRESENTATION_CONTEXT
('ID1','3'));
#477=AXIS2_PLACEMENT_3D('',#474,#475,#476);
#478=ADVANCED_BREP_SHAPE_REPRESENTATION('',(#477,#457),#473);
#486=PRODUCT_DEFINITION('design','',#485,#482);
#487=PRODUCT_DEFINITION_SHAPE('','SHAPE FOR SZYKLINIOWY22000.',#486);
#488=SHAPE_ASPECT('','solid data associated with SZYKLINIOWY22000',#487,.F.);
#489=PROPERTY_DEFINITION('',
'shape for solid data with which properties are associated',#488);
#490=SHAPE_REPRESENTATION('',(#457),#473);
#491=SHAPE_DEFINITION_REPRESENTATION(#489,#490);
#492=(LENGTH_UNIT()NAMED_UNIT(*)SI_UNIT(.MILLI.,.METRE.));
#498=PROPERTY_DEFINITION('geometric validation property',
'area of SZYKLINIOWY22000',#488);
#499=REPRESENTATION('surface area',(#497),#473);
#500=PROPERTY_DEFINITION_REPRESENTATION(#498,#499);
#501=(LENGTH_UNIT()NAMED_UNIT(*)SI_UNIT(.MILLI.,.METRE.));
#507=PROPERTY_DEFINITION('geometric validation property',
'volume of SZYKLINIOWY22000',#488);
#508=REPRESENTATION('volume',(#506),#473);
#509=PROPERTY_DEFINITION_REPRESENTATION(#507,#508);
#511=PROPERTY_DEFINITION('geometric validation property',
'centroid of SZYKLINIOWY22000',#488);
#512=REPRESENTATION('centroid',(#510),#473);
#513=PROPERTY_DEFINITION_REPRESENTATION(#511,#512);
#514=(LENGTH_UNIT()NAMED_UNIT(*)SI_UNIT(.MILLI.,.METRE.));
#520=PROPERTY_DEFINITION('geometric validation property',
'area of SZYKLINIOWY22000',#487);
#521=REPRESENTATION('surface area',(#519),#473);
#522=PROPERTY_DEFINITION_REPRESENTATION(#520,#521);
#523=(LENGTH_UNIT()NAMED_UNIT(*)SI_UNIT(.MILLI.,.METRE.));
#529=PROPERTY_DEFINITION('geometric validation property',
'volume of SZYKLINIOWY22000',#487);
#530=REPRESENTATION('volume',(#528),#473);
#531=PROPERTY_DEFINITION_REPRESENTATION(#529,#530);
#533=PROPERTY_DEFINITION('geometric validation property',
'centroid of SZYKLINIOWY22000',#487);
#534=REPRESENTATION('centroid',(#532),#473);
#535=PROPERTY_DEFINITION_REPRESENTATION(#533,#534);
#536=SHAPE_DEFINITION_REPRESENTATION(#487,#478);
ENDSEC;
END-ISO-10303-21;
