ISO-10303-21;
HEADER;
FILE_DESCRIPTION((''),'2;1');
FILE_NAME('ZAOKRGLENIE40','2026-06-15T13:46:07',('Esia'),(''),
'CREO PARAMETRIC BY PTC INC, 2025102','CREO PARAMETRIC BY PTC INC, 2025102','');
FILE_SCHEMA((
'AP242_MANAGED_MODEL_BASED_3D_ENGINEERING_MIM_LF { 1 0 10303 442 1 1 4 }'));
ENDSEC;
DATA;
#16=DIRECTION('',(-1.E0,0.E0,0.E0));
#17=VECTOR('',#16,1.041634374435E-1);
#18=CARTESIAN_POINT('',(2.674360494304E-1,-1.545275590551E-1,
-9.842519685039E-3));
#19=LINE('',#18,#17);
#20=DRAUGHTING_PRE_DEFINED_CURVE_FONT('continuous');
#21=CURVE_STYLE('',#20,POSITIVE_LENGTH_MEASURE(2.E-2),#11);
#22=PRESENTATION_STYLE_ASSIGNMENT((#21));
#23=STYLED_ITEM('',(#22),#19);
#24=CARTESIAN_POINT('',(2.153540350006E-1,-1.545275590551E-1,
3.916528824507E-3));
#25=CARTESIAN_POINT('',(2.185411614102E-1,-1.545275590551E-1,
3.872568312364E-3));
#26=CARTESIAN_POINT('',(2.251013670333E-1,-1.545275590551E-1,
3.641857635552E-3));
#27=CARTESIAN_POINT('',(2.350312270540E-1,-1.545275590551E-1,
2.806991758808E-3));
#28=CARTESIAN_POINT('',(2.444654343713E-1,-1.545275590551E-1,
1.461935993051E-3));
#29=CARTESIAN_POINT('',(2.527888719323E-1,-1.545275590551E-1,
-3.531195594362E-4));
#30=CARTESIAN_POINT('',(2.594787363217E-1,-1.545275590551E-1,
-2.539001831028E-3));
#31=CARTESIAN_POINT('',(2.642098936896E-1,-1.545275590551E-1,
-4.954274602728E-3));
#32=CARTESIAN_POINT('',(2.669029303433E-1,-1.545275590551E-1,
-7.444411692743E-3));
#33=CARTESIAN_POINT('',(2.674360494304E-1,-1.545275590551E-1,
-9.061849015166E-3));
#34=CARTESIAN_POINT('',(2.674360494304E-1,-1.545275590551E-1,
-9.842519685039E-3));
#36=CURVE_STYLE('',#20,POSITIVE_LENGTH_MEASURE(2.E-2),#11);
#37=PRESENTATION_STYLE_ASSIGNMENT((#36));
#38=STYLED_ITEM('',(#37),#35);
#39=CARTESIAN_POINT('',(1.632726119869E-1,-1.545275590551E-1,
-9.842519685039E-3));
#40=CARTESIAN_POINT('',(1.632726119869E-1,-1.545275590551E-1,
-9.061849015166E-3));
#41=CARTESIAN_POINT('',(1.638057311829E-1,-1.545275590551E-1,
-7.444411692743E-3));
#42=CARTESIAN_POINT('',(1.664987673466E-1,-1.545275590551E-1,
-4.954274602729E-3));
#43=CARTESIAN_POINT('',(1.712299265110E-1,-1.545275590551E-1,
-2.539001831028E-3));
#44=CARTESIAN_POINT('',(1.779197842046E-1,-1.545275590551E-1,
-3.531195594364E-4));
#45=CARTESIAN_POINT('',(1.862432467526E-1,-1.545275590551E-1,
1.461935993051E-3));
#46=CARTESIAN_POINT('',(1.956773608174E-1,-1.545275590551E-1,
2.806991758807E-3));
#47=CARTESIAN_POINT('',(2.056075688612E-1,-1.545275590551E-1,
3.641857635552E-3));
#48=CARTESIAN_POINT('',(2.121669085910E-1,-1.545275590551E-1,
3.872568312364E-3));
#49=CARTESIAN_POINT('',(2.153540350006E-1,-1.545275590551E-1,
3.916528824507E-3));
#51=CURVE_STYLE('',#20,POSITIVE_LENGTH_MEASURE(2.E-2),#11);
#52=PRESENTATION_STYLE_ASSIGNMENT((#51));
#53=STYLED_ITEM('',(#52),#50);
#54=DIRECTION('',(0.E0,-1.E0,0.E0));
#55=VECTOR('',#54,7.480314960630E-2);
#56=CARTESIAN_POINT('',(2.674360494304E-1,-1.545275590551E-1,
-9.842519685039E-3));
#57=LINE('',#56,#55);
#58=CURVE_STYLE('',#20,POSITIVE_LENGTH_MEASURE(2.E-2),#11);
#59=PRESENTATION_STYLE_ASSIGNMENT((#58));
#60=STYLED_ITEM('',(#59),#57);
#61=DIRECTION('',(0.E0,1.E0,0.E0));
#62=VECTOR('',#61,7.480314960630E-2);
#63=CARTESIAN_POINT('',(1.632726119869E-1,-2.293307086614E-1,
-9.842519685039E-3));
#64=LINE('',#63,#62);
#65=CURVE_STYLE('',#20,POSITIVE_LENGTH_MEASURE(2.E-2),#11);
#66=PRESENTATION_STYLE_ASSIGNMENT((#65));
#67=STYLED_ITEM('',(#66),#64);
#68=DIRECTION('',(7.903654966102E-6,-9.999999999688E-1,8.001464731766E-11));
#69=VECTOR('',#68,7.480314960864E-2);
#70=CARTESIAN_POINT('',(2.153540350006E-1,-1.545275590551E-1,
3.916528824507E-3));
#71=LINE('',#70,#69);
#72=CURVE_STYLE('',#20,POSITIVE_LENGTH_MEASURE(2.E-2),#11);
#73=PRESENTATION_STYLE_ASSIGNMENT((#72));
#74=STYLED_ITEM('',(#73),#71);
#75=CARTESIAN_POINT('',(2.674360494304E-1,-2.293307086614E-1,
-9.842519685039E-3));
#76=CARTESIAN_POINT('',(2.674360494304E-1,-2.293307086614E-1,
-9.061849015166E-3));
#77=CARTESIAN_POINT('',(2.669029302344E-1,-2.293307086614E-1,
-7.444411692744E-3));
#78=CARTESIAN_POINT('',(2.642098940706E-1,-2.293307086614E-1,
-4.954274602725E-3));
#79=CARTESIAN_POINT('',(2.594787349068E-1,-2.293307086614E-1,
-2.539001831042E-3));
#80=CARTESIAN_POINT('',(2.527888772110E-1,-2.293307086614E-1,
-3.531195593828E-4));
#81=CARTESIAN_POINT('',(2.444654146713E-1,-2.293307086614E-1,
1.461935992852E-3));
#82=CARTESIAN_POINT('',(2.350313005753E-1,-2.293307086614E-1,
2.806991759552E-3));
#83=CARTESIAN_POINT('',(2.251010926479E-1,-2.293307086614E-1,
3.641857632774E-3));
#84=CARTESIAN_POINT('',(2.185417526284E-1,-2.293307086614E-1,
3.872568318350E-3));
#85=CARTESIAN_POINT('',(2.153546262189E-1,-2.293307086614E-1,
3.916528830492E-3));
#87=CURVE_STYLE('',#20,POSITIVE_LENGTH_MEASURE(2.E-2),#11);
#88=PRESENTATION_STYLE_ASSIGNMENT((#87));
#89=STYLED_ITEM('',(#88),#86);
#90=DIRECTION('',(1.E0,0.E0,0.E0));
#91=VECTOR('',#90,1.041634374435E-1);
#92=CARTESIAN_POINT('',(1.632726119869E-1,-2.293307086614E-1,
-9.842519685039E-3));
#93=LINE('',#92,#91);
#94=CURVE_STYLE('',#20,POSITIVE_LENGTH_MEASURE(2.E-2),#11);
#95=PRESENTATION_STYLE_ASSIGNMENT((#94));
#96=STYLED_ITEM('',(#95),#93);
#97=CARTESIAN_POINT('',(2.153546262189E-1,-2.293307086614E-1,
3.916528830492E-3));
#98=CARTESIAN_POINT('',(2.121674998093E-1,-2.293307086614E-1,
3.872568318349E-3));
#99=CARTESIAN_POINT('',(2.056072944759E-1,-2.293307086614E-1,
3.641857632774E-3));
#100=CARTESIAN_POINT('',(1.956774343388E-1,-2.293307086614E-1,
2.806991759552E-3));
#101=CARTESIAN_POINT('',(1.862432270526E-1,-2.293307086614E-1,
1.461935992852E-3));
#102=CARTESIAN_POINT('',(1.779197894833E-1,-2.293307086614E-1,
-3.531195593830E-4));
#103=CARTESIAN_POINT('',(1.712299250961E-1,-2.293307086614E-1,
-2.539001831042E-3));
#104=CARTESIAN_POINT('',(1.664987677275E-1,-2.293307086614E-1,
-4.954274602725E-3));
#105=CARTESIAN_POINT('',(1.638057310741E-1,-2.293307086614E-1,
-7.444411692744E-3));
#106=CARTESIAN_POINT('',(1.632726119869E-1,-2.293307086614E-1,
-9.061849015165E-3));
#107=CARTESIAN_POINT('',(1.632726119869E-1,-2.293307086614E-1,
-9.842519685039E-3));
#109=CURVE_STYLE('',#20,POSITIVE_LENGTH_MEASURE(2.E-2),#11);
#110=PRESENTATION_STYLE_ASSIGNMENT((#109));
#111=STYLED_ITEM('',(#110),#108);
#112=VERTEX_POINT('',#39);
#113=VERTEX_POINT('',#49);
#114=VERTEX_POINT('',#34);
#115=VERTEX_POINT('',#75);
#116=VERTEX_POINT('',#85);
#117=VERTEX_POINT('',#107);
#118=CARTESIAN_POINT('',(2.674360494304E-1,-1.545275590551E-1,
3.937007874016E-3));
#119=DIRECTION('',(0.E0,-1.E0,0.E0));
#120=DIRECTION('',(0.E0,0.E0,-1.E0));
#121=AXIS2_PLACEMENT_3D('',#118,#119,#120);
#122=PLANE('',#121);
#124=ORIENTED_EDGE('',*,*,#123,.F.);
#126=ORIENTED_EDGE('',*,*,#125,.F.);
#128=ORIENTED_EDGE('',*,*,#127,.F.);
#129=EDGE_LOOP('',(#124,#126,#128));
#130=FACE_OUTER_BOUND('',#129,.F.);
#132=CARTESIAN_POINT('',(0.E0,0.E0,-9.842519685039E-3));
#133=DIRECTION('',(0.E0,0.E0,1.E0));
#134=DIRECTION('',(1.E0,0.E0,0.E0));
#135=AXIS2_PLACEMENT_3D('',#132,#133,#134);
#136=PLANE('',#135);
#138=ORIENTED_EDGE('',*,*,#137,.F.);
#139=ORIENTED_EDGE('',*,*,#123,.T.);
#141=ORIENTED_EDGE('',*,*,#140,.F.);
#143=ORIENTED_EDGE('',*,*,#142,.T.);
#144=EDGE_LOOP('',(#138,#139,#141,#143));
#145=FACE_OUTER_BOUND('',#144,.F.);
#147=CARTESIAN_POINT('',(2.674041154163E-1,-1.507874015748E-1,
-1.031151230493E-2));
#148=CARTESIAN_POINT('',(2.676209121153E-1,-1.507874015748E-1,
-8.720002564044E-3));
#149=CARTESIAN_POINT('',(2.658336752541E-1,-1.507874015748E-1,
-5.256129786315E-3));
#150=CARTESIAN_POINT('',(2.542111567801E-1,-1.507874015748E-1,
-2.738099161500E-4));
#151=CARTESIAN_POINT('',(2.352279528926E-1,-1.507874015748E-1,
3.104456452391E-3));
#152=CARTESIAN_POINT('',(2.211931761203E-1,-1.507874015748E-1,
3.856087930858E-3));
#153=CARTESIAN_POINT('',(2.146267788120E-1,-1.507874015748E-1,
3.924913208458E-3));
#155=DIRECTION('',(0.E0,-1.E0,0.E0));
#156=VECTOR('',#155,1.E0);
#157=SURFACE_OF_LINEAR_EXTRUSION('',#154,#156);
#158=ORIENTED_EDGE('',*,*,#137,.T.);
#160=ORIENTED_EDGE('',*,*,#159,.T.);
#162=ORIENTED_EDGE('',*,*,#161,.F.);
#163=ORIENTED_EDGE('',*,*,#125,.T.);
#164=EDGE_LOOP('',(#158,#160,#162,#163));
#165=FACE_OUTER_BOUND('',#164,.F.);
#167=CARTESIAN_POINT('',(1.632726119869E-1,-2.293307086614E-1,
3.937007874016E-3));
#168=DIRECTION('',(0.E0,1.E0,0.E0));
#169=DIRECTION('',(0.E0,0.E0,1.E0));
#170=AXIS2_PLACEMENT_3D('',#167,#168,#169);
#171=PLANE('',#170);
#172=ORIENTED_EDGE('',*,*,#159,.F.);
#173=ORIENTED_EDGE('',*,*,#142,.F.);
#175=ORIENTED_EDGE('',*,*,#174,.F.);
#176=EDGE_LOOP('',(#172,#173,#175));
#177=FACE_OUTER_BOUND('',#176,.F.);
#179=CARTESIAN_POINT('',(1.633045460010E-1,-2.330708661417E-1,
-1.031151230493E-2));
#180=CARTESIAN_POINT('',(1.630877493020E-1,-2.330708661417E-1,
-8.720002564044E-3));
#181=CARTESIAN_POINT('',(1.648749861632E-1,-2.330708661417E-1,
-5.256129786315E-3));
#182=CARTESIAN_POINT('',(1.764975046372E-1,-2.330708661417E-1,
-2.738099161502E-4));
#183=CARTESIAN_POINT('',(1.954807085247E-1,-2.330708661417E-1,
3.104456452391E-3));
#184=CARTESIAN_POINT('',(2.095154852971E-1,-2.330708661417E-1,
3.856087930858E-3));
#185=CARTESIAN_POINT('',(2.160818826053E-1,-2.330708661417E-1,
3.924913208458E-3));
#187=DIRECTION('',(0.E0,1.E0,0.E0));
#188=VECTOR('',#187,1.E0);
#189=SURFACE_OF_LINEAR_EXTRUSION('',#186,#188);
#190=ORIENTED_EDGE('',*,*,#127,.T.);
#191=ORIENTED_EDGE('',*,*,#161,.T.);
#192=ORIENTED_EDGE('',*,*,#174,.T.);
#193=ORIENTED_EDGE('',*,*,#140,.T.);
#194=EDGE_LOOP('',(#190,#191,#192,#193));
#195=FACE_OUTER_BOUND('',#194,.F.);
#199=FILL_AREA_STYLE_COLOUR('',#11);
#200=FILL_AREA_STYLE('',(#199));
#201=SURFACE_STYLE_FILL_AREA(#200);
#202=SURFACE_SIDE_STYLE('',(#201));
#203=SURFACE_STYLE_USAGE(.BOTH.,#202);
#204=PRESENTATION_STYLE_ASSIGNMENT((#203));
#15=STYLED_ITEM('',(#204),#198);
#205=PRESENTATION_LAYER_ASSIGNMENT('SHELL_844','',(#15,#131,#146,#154,#166,#178,
#186,#196));
#207=LENGTH_MEASURE_WITH_UNIT(LENGTH_MEASURE(2.54E1),#206);
#208=(CONVERSION_BASED_UNIT('INCH',#207)LENGTH_UNIT()NAMED_UNIT(*));
#210=PLANE_ANGLE_MEASURE_WITH_UNIT(PLANE_ANGLE_MEASURE(1.745329251994E-2),#209);
#211=(CONVERSION_BASED_UNIT('DEGREE',#210)NAMED_UNIT(*)PLANE_ANGLE_UNIT());
#213=UNCERTAINTY_MEASURE_WITH_UNIT(LENGTH_MEASURE(3.937007874016E-5),#208,
'closure',
'Maximum model space distance between geometric entities at asserted connectivities');
#215=CARTESIAN_POINT('',(0.E0,0.E0,0.E0));
#216=DIRECTION('',(0.E0,0.E0,1.E0));
#217=DIRECTION('',(1.E0,0.E0,0.E0));
#220=MECHANICAL_DESIGN_GEOMETRIC_PRESENTATION_REPRESENTATION('',(#23,#38,#53,
#60,#67,#74,#89,#96,#111,#15),#214);
#221=APPLICATION_CONTEXT('automotive design');
#222=APPLICATION_PROTOCOL_DEFINITION('international standard',
'config_control_design',1994,#221);
#223=PRODUCT_DEFINITION_CONTEXT('',#221,'design');
#224=PRODUCT_CONTEXT('',#221,'mechanical');
#225=PRODUCT('ZAOKRGLENIE40','ZAOKRGLENIE40','NOT SPECIFIED',(#224));
#226=PRODUCT_DEFINITION_FORMATION_WITH_SPECIFIED_SOURCE('1','LAST_VERSION',#225,
.MADE.);
#234=LENGTH_MEASURE_WITH_UNIT(LENGTH_MEASURE(2.54E1),#233);
#235=(CONVERSION_BASED_UNIT('INCH',#234)LENGTH_UNIT()NAMED_UNIT(*));
#236=DERIVED_UNIT_ELEMENT(#235,2.E0);
#237=AREA_UNIT((#236));
#238=MEASURE_REPRESENTATION_ITEM('surface area measure',AREA_MEASURE(
1.186993086517E1),#237);
#243=LENGTH_MEASURE_WITH_UNIT(LENGTH_MEASURE(2.54E1),#242);
#244=(CONVERSION_BASED_UNIT('INCH',#243)LENGTH_UNIT()NAMED_UNIT(*));
#245=DERIVED_UNIT_ELEMENT(#244,3.E0);
#246=VOLUME_UNIT((#245));
#247=MEASURE_REPRESENTATION_ITEM('volume measure',VOLUME_MEASURE(
1.359879591268E0),#246);
#251=CARTESIAN_POINT('centre point',(5.47E0,-4.875000000007E0,
-1.034443380738E-1));
#256=LENGTH_MEASURE_WITH_UNIT(LENGTH_MEASURE(2.54E1),#255);
#257=(CONVERSION_BASED_UNIT('INCH',#256)LENGTH_UNIT()NAMED_UNIT(*));
#258=DERIVED_UNIT_ELEMENT(#257,2.E0);
#259=AREA_UNIT((#258));
#260=MEASURE_REPRESENTATION_ITEM('surface area measure',AREA_MEASURE(
1.186993086517E1),#259);
#265=LENGTH_MEASURE_WITH_UNIT(LENGTH_MEASURE(2.54E1),#264);
#266=(CONVERSION_BASED_UNIT('INCH',#265)LENGTH_UNIT()NAMED_UNIT(*));
#267=DERIVED_UNIT_ELEMENT(#266,3.E0);
#268=VOLUME_UNIT((#267));
#269=MEASURE_REPRESENTATION_ITEM('volume measure',VOLUME_MEASURE(
1.359879591268E0),#268);
#273=CARTESIAN_POINT('centre point',(5.47E0,-4.875000000007E0,
-1.034443380738E-1));
#1=DRAUGHTING_PRE_DEFINED_COLOUR('green');
#2=COLOUR_RGB('',1.1E-2,1.2E-2,1.E0);
#3=COLOUR_RGB('',2.352941176471E-1,2.352941176471E-1,2.352941176471E-1);
#4=COLOUR_RGB('',4.1E-1,2.61589E-1,1.12848E-1);
#5=COLOUR_RGB('',5.04854E-1,1.5455E-2,1.5455E-2);
#6=COLOUR_RGB('',6.35294E-1,6.86275E-1,7.4902E-1);
#7=COLOUR_RGB('',6.40777E-1,6.40777E-1,6.40777E-1);
#8=COLOUR_RGB('',6.69062E-1,6.69903E-1,6.55217E-1);
#9=COLOUR_RGB('',9.21569E-1,7.05882E-1,4.70588E-1);
#10=DRAUGHTING_PRE_DEFINED_COLOUR('red');
#11=DRAUGHTING_PRE_DEFINED_COLOUR('yellow');
#12=COLOUR_RGB('',1.E0,1.E0,5.3E-1);
#13=COLOUR_RGB('',1.E0,1.E0,9.49E-1);
#14=DRAUGHTING_PRE_DEFINED_COLOUR('white');
#35=B_SPLINE_CURVE_WITH_KNOTS('',3,(#24,#25,#26,#27,#28,#29,#30,#31,#32,#33,
#34),.UNSPECIFIED.,.F.,.F.,(4,1,1,1,1,1,1,1,4),(0.E0,1.25E-1,2.5E-1,3.75E-1,
5.E-1,6.25E-1,7.5E-1,8.75E-1,1.E0),.UNSPECIFIED.);
#50=B_SPLINE_CURVE_WITH_KNOTS('',3,(#39,#40,#41,#42,#43,#44,#45,#46,#47,#48,
#49),.UNSPECIFIED.,.F.,.F.,(4,1,1,1,1,1,1,1,4),(0.E0,1.25E-1,2.5E-1,3.75E-1,
5.E-1,6.25E-1,7.5E-1,8.75E-1,1.E0),.UNSPECIFIED.);
#86=B_SPLINE_CURVE_WITH_KNOTS('',3,(#75,#76,#77,#78,#79,#80,#81,#82,#83,#84,
#85),.UNSPECIFIED.,.F.,.F.,(4,1,1,1,1,1,1,1,4),(0.E0,1.25E-1,2.5E-1,3.75E-1,
5.E-1,6.25E-1,7.5E-1,8.75E-1,1.E0),.UNSPECIFIED.);
#108=B_SPLINE_CURVE_WITH_KNOTS('',3,(#97,#98,#99,#100,#101,#102,#103,#104,#105,
#106,#107),.UNSPECIFIED.,.F.,.F.,(4,1,1,1,1,1,1,1,4),(0.E0,1.25E-1,2.5E-1,
3.75E-1,5.E-1,6.25E-1,7.5E-1,8.75E-1,1.E0),.UNSPECIFIED.);
#123=EDGE_CURVE('',#114,#112,#19,.T.);
#125=EDGE_CURVE('',#113,#114,#35,.T.);
#127=EDGE_CURVE('',#112,#113,#50,.T.);
#131=ADVANCED_FACE('',(#130),#122,.F.);
#137=EDGE_CURVE('',#114,#115,#57,.T.);
#140=EDGE_CURVE('',#117,#112,#64,.T.);
#142=EDGE_CURVE('',#117,#115,#93,.T.);
#146=ADVANCED_FACE('',(#145),#136,.F.);
#154=B_SPLINE_CURVE_WITH_KNOTS('',3,(#147,#148,#149,#150,#151,#152,#153),
.UNSPECIFIED.,.F.,.F.,(4,1,1,1,4),(0.E0,2.5E-1,5.E-1,7.5E-1,1.E0),
.UNSPECIFIED.);
#159=EDGE_CURVE('',#115,#116,#86,.T.);
#161=EDGE_CURVE('',#113,#116,#71,.T.);
#166=ADVANCED_FACE('',(#165),#157,.T.);
#174=EDGE_CURVE('',#116,#117,#108,.T.);
#178=ADVANCED_FACE('',(#177),#171,.F.);
#186=B_SPLINE_CURVE_WITH_KNOTS('',3,(#179,#180,#181,#182,#183,#184,#185),
.UNSPECIFIED.,.F.,.F.,(4,1,1,1,4),(0.E0,2.5E-1,5.E-1,7.5E-1,1.E0),
.UNSPECIFIED.);
#196=ADVANCED_FACE('',(#195),#189,.T.);
#197=CLOSED_SHELL('',(#131,#146,#166,#178,#196));
#198=MANIFOLD_SOLID_BREP('',#197);
#206=(LENGTH_UNIT()NAMED_UNIT(*)SI_UNIT(.MILLI.,.METRE.));
#209=(NAMED_UNIT(*)PLANE_ANGLE_UNIT()SI_UNIT($,.RADIAN.));
#212=(NAMED_UNIT(*)SI_UNIT($,.STERADIAN.)SOLID_ANGLE_UNIT());
#214=(GEOMETRIC_REPRESENTATION_CONTEXT(3)GLOBAL_UNCERTAINTY_ASSIGNED_CONTEXT((
#213))GLOBAL_UNIT_ASSIGNED_CONTEXT((#208,#211,#212))REPRESENTATION_CONTEXT
('ID1','3'));
#218=AXIS2_PLACEMENT_3D('',#215,#216,#217);
#219=ADVANCED_BREP_SHAPE_REPRESENTATION('',(#218,#198),#214);
#227=PRODUCT_DEFINITION('design','',#226,#223);
#228=PRODUCT_DEFINITION_SHAPE('','SHAPE FOR ZAOKRGLENIE40.',#227);
#229=SHAPE_ASPECT('','solid data associated with ZAOKRGLENIE40',#228,.F.);
#230=PROPERTY_DEFINITION('',
'shape for solid data with which properties are associated',#229);
#231=SHAPE_REPRESENTATION('',(#198),#214);
#232=SHAPE_DEFINITION_REPRESENTATION(#230,#231);
#233=(LENGTH_UNIT()NAMED_UNIT(*)SI_UNIT(.MILLI.,.METRE.));
#239=PROPERTY_DEFINITION('geometric validation property',
'area of ZAOKRGLENIE40',#229);
#240=REPRESENTATION('surface area',(#238),#214);
#241=PROPERTY_DEFINITION_REPRESENTATION(#239,#240);
#242=(LENGTH_UNIT()NAMED_UNIT(*)SI_UNIT(.MILLI.,.METRE.));
#248=PROPERTY_DEFINITION('geometric validation property',
'volume of ZAOKRGLENIE40',#229);
#249=REPRESENTATION('volume',(#247),#214);
#250=PROPERTY_DEFINITION_REPRESENTATION(#248,#249);
#252=PROPERTY_DEFINITION('geometric validation property',
'centroid of ZAOKRGLENIE40',#229);
#253=REPRESENTATION('centroid',(#251),#214);
#254=PROPERTY_DEFINITION_REPRESENTATION(#252,#253);
#255=(LENGTH_UNIT()NAMED_UNIT(*)SI_UNIT(.MILLI.,.METRE.));
#261=PROPERTY_DEFINITION('geometric validation property',
'area of ZAOKRGLENIE40',#228);
#262=REPRESENTATION('surface area',(#260),#214);
#263=PROPERTY_DEFINITION_REPRESENTATION(#261,#262);
#264=(LENGTH_UNIT()NAMED_UNIT(*)SI_UNIT(.MILLI.,.METRE.));
#270=PROPERTY_DEFINITION('geometric validation property',
'volume of ZAOKRGLENIE40',#228);
#271=REPRESENTATION('volume',(#269),#214);
#272=PROPERTY_DEFINITION_REPRESENTATION(#270,#271);
#274=PROPERTY_DEFINITION('geometric validation property',
'centroid of ZAOKRGLENIE40',#228);
#275=REPRESENTATION('centroid',(#273),#214);
#276=PROPERTY_DEFINITION_REPRESENTATION(#274,#275);
#277=SHAPE_DEFINITION_REPRESENTATION(#228,#219);
ENDSEC;
END-ISO-10303-21;
