ISO-10303-21;
HEADER;
FILE_DESCRIPTION((''),'2;1');
FILE_NAME('ZAOKRGLENIE30','2026-06-15T13:46:07',('Esia'),(''),
'CREO PARAMETRIC BY PTC INC, 2025102','CREO PARAMETRIC BY PTC INC, 2025102','');
FILE_SCHEMA((
'AP242_MANAGED_MODEL_BASED_3D_ENGINEERING_MIM_LF { 1 0 10303 442 1 1 4 }'));
ENDSEC;
DATA;
#17=CARTESIAN_POINT('',(-2.595620336824E-1,-1.545275590551E-1,
-9.842519685039E-3));
#18=CARTESIAN_POINT('',(-2.595620336824E-1,-1.545275590551E-1,
-9.061849015166E-3));
#19=CARTESIAN_POINT('',(-2.590289144864E-1,-1.545275590551E-1,
-7.444411692744E-3));
#20=CARTESIAN_POINT('',(-2.563358783226E-1,-1.545275590551E-1,
-4.954274602725E-3));
#21=CARTESIAN_POINT('',(-2.516047191588E-1,-1.545275590551E-1,
-2.539001831042E-3));
#22=CARTESIAN_POINT('',(-2.449148614630E-1,-1.545275590551E-1,
-3.531195593829E-4));
#23=CARTESIAN_POINT('',(-2.365913989232E-1,-1.545275590551E-1,
1.461935992852E-3));
#24=CARTESIAN_POINT('',(-2.271572848273E-1,-1.545275590551E-1,
2.806991759552E-3));
#25=CARTESIAN_POINT('',(-2.172270768999E-1,-1.545275590551E-1,
3.641857632774E-3));
#26=CARTESIAN_POINT('',(-2.106677368804E-1,-1.545275590551E-1,
3.872568318350E-3));
#27=CARTESIAN_POINT('',(-2.074806104708E-1,-1.545275590551E-1,
3.916528830492E-3));
#29=DRAUGHTING_PRE_DEFINED_CURVE_FONT('continuous');
#30=CURVE_STYLE('',#29,POSITIVE_LENGTH_MEASURE(2.E-2),#4);
#31=PRESENTATION_STYLE_ASSIGNMENT((#30));
#32=STYLED_ITEM('',(#31),#28);
#33=DIRECTION('',(-1.E0,0.E0,0.E0));
#34=VECTOR('',#33,1.041634374435E-1);
#35=CARTESIAN_POINT('',(-1.553985962389E-1,-1.545275590551E-1,
-9.842519685039E-3));
#36=LINE('',#35,#34);
#37=CURVE_STYLE('',#29,POSITIVE_LENGTH_MEASURE(2.E-2),#4);
#38=PRESENTATION_STYLE_ASSIGNMENT((#37));
#39=STYLED_ITEM('',(#38),#36);
#40=CARTESIAN_POINT('',(-2.074806104708E-1,-1.545275590551E-1,
3.916528830492E-3));
#41=CARTESIAN_POINT('',(-2.042934840613E-1,-1.545275590551E-1,
3.872568318349E-3));
#42=CARTESIAN_POINT('',(-1.977332787278E-1,-1.545275590551E-1,
3.641857632774E-3));
#43=CARTESIAN_POINT('',(-1.878034185907E-1,-1.545275590551E-1,
2.806991759552E-3));
#44=CARTESIAN_POINT('',(-1.783692113046E-1,-1.545275590551E-1,
1.461935992852E-3));
#45=CARTESIAN_POINT('',(-1.700457737353E-1,-1.545275590551E-1,
-3.531195593830E-4));
#46=CARTESIAN_POINT('',(-1.633559093481E-1,-1.545275590551E-1,
-2.539001831042E-3));
#47=CARTESIAN_POINT('',(-1.586247519795E-1,-1.545275590551E-1,
-4.954274602725E-3));
#48=CARTESIAN_POINT('',(-1.559317153260E-1,-1.545275590551E-1,
-7.444411692744E-3));
#49=CARTESIAN_POINT('',(-1.553985962389E-1,-1.545275590551E-1,
-9.061849015165E-3));
#50=CARTESIAN_POINT('',(-1.553985962389E-1,-1.545275590551E-1,
-9.842519685039E-3));
#52=CURVE_STYLE('',#29,POSITIVE_LENGTH_MEASURE(2.E-2),#4);
#53=PRESENTATION_STYLE_ASSIGNMENT((#52));
#54=STYLED_ITEM('',(#53),#51);
#55=DIRECTION('',(-7.903654967958E-6,9.999999999688E-1,8.001479805600E-11));
#56=VECTOR('',#55,7.480314960864E-2);
#57=CARTESIAN_POINT('',(-2.074800192526E-1,-2.293307086614E-1,
3.916528824507E-3));
#58=LINE('',#57,#56);
#59=CURVE_STYLE('',#29,POSITIVE_LENGTH_MEASURE(2.E-2),#4);
#60=PRESENTATION_STYLE_ASSIGNMENT((#59));
#61=STYLED_ITEM('',(#60),#58);
#62=DIRECTION('',(0.E0,-1.E0,0.E0));
#63=VECTOR('',#62,7.480314960630E-2);
#64=CARTESIAN_POINT('',(-1.553985962389E-1,-1.545275590551E-1,
-9.842519685039E-3));
#65=LINE('',#64,#63);
#66=CURVE_STYLE('',#29,POSITIVE_LENGTH_MEASURE(2.E-2),#4);
#67=PRESENTATION_STYLE_ASSIGNMENT((#66));
#68=STYLED_ITEM('',(#67),#65);
#69=DIRECTION('',(0.E0,1.E0,0.E0));
#70=VECTOR('',#69,7.480314960630E-2);
#71=CARTESIAN_POINT('',(-2.595620336824E-1,-2.293307086614E-1,
-9.842519685039E-3));
#72=LINE('',#71,#70);
#73=CURVE_STYLE('',#29,POSITIVE_LENGTH_MEASURE(2.E-2),#4);
#74=PRESENTATION_STYLE_ASSIGNMENT((#73));
#75=STYLED_ITEM('',(#74),#72);
#76=DIRECTION('',(1.E0,0.E0,0.E0));
#77=VECTOR('',#76,1.041634374435E-1);
#78=CARTESIAN_POINT('',(-2.595620336824E-1,-2.293307086614E-1,
-9.842519685039E-3));
#79=LINE('',#78,#77);
#80=CURVE_STYLE('',#29,POSITIVE_LENGTH_MEASURE(2.E-2),#4);
#81=PRESENTATION_STYLE_ASSIGNMENT((#80));
#82=STYLED_ITEM('',(#81),#79);
#83=CARTESIAN_POINT('',(-2.074800192526E-1,-2.293307086614E-1,
3.916528824507E-3));
#84=CARTESIAN_POINT('',(-2.106671456621E-1,-2.293307086614E-1,
3.872568312364E-3));
#85=CARTESIAN_POINT('',(-2.172273512853E-1,-2.293307086614E-1,
3.641857635552E-3));
#86=CARTESIAN_POINT('',(-2.271572113059E-1,-2.293307086614E-1,
2.806991758807E-3));
#87=CARTESIAN_POINT('',(-2.365914186233E-1,-2.293307086614E-1,
1.461935993051E-3));
#88=CARTESIAN_POINT('',(-2.449148561842E-1,-2.293307086614E-1,
-3.531195594362E-4));
#89=CARTESIAN_POINT('',(-2.516047205737E-1,-2.293307086614E-1,
-2.539001831028E-3));
#90=CARTESIAN_POINT('',(-2.563358779416E-1,-2.293307086614E-1,
-4.954274602728E-3));
#91=CARTESIAN_POINT('',(-2.590289145953E-1,-2.293307086614E-1,
-7.444411692743E-3));
#92=CARTESIAN_POINT('',(-2.595620336824E-1,-2.293307086614E-1,
-9.061849015166E-3));
#93=CARTESIAN_POINT('',(-2.595620336824E-1,-2.293307086614E-1,
-9.842519685039E-3));
#95=CURVE_STYLE('',#29,POSITIVE_LENGTH_MEASURE(2.E-2),#4);
#96=PRESENTATION_STYLE_ASSIGNMENT((#95));
#97=STYLED_ITEM('',(#96),#94);
#98=CARTESIAN_POINT('',(-1.553985962389E-1,-2.293307086614E-1,
-9.842519685039E-3));
#99=CARTESIAN_POINT('',(-1.553985962389E-1,-2.293307086614E-1,
-9.061849015166E-3));
#100=CARTESIAN_POINT('',(-1.559317154349E-1,-2.293307086614E-1,
-7.444411692743E-3));
#101=CARTESIAN_POINT('',(-1.586247515986E-1,-2.293307086614E-1,
-4.954274602729E-3));
#102=CARTESIAN_POINT('',(-1.633559107630E-1,-2.293307086614E-1,
-2.539001831028E-3));
#103=CARTESIAN_POINT('',(-1.700457684565E-1,-2.293307086614E-1,
-3.531195594364E-4));
#104=CARTESIAN_POINT('',(-1.783692310046E-1,-2.293307086614E-1,
1.461935993051E-3));
#105=CARTESIAN_POINT('',(-1.878033450694E-1,-2.293307086614E-1,
2.806991758807E-3));
#106=CARTESIAN_POINT('',(-1.977335531132E-1,-2.293307086614E-1,
3.641857635552E-3));
#107=CARTESIAN_POINT('',(-2.042928928430E-1,-2.293307086614E-1,
3.872568312364E-3));
#108=CARTESIAN_POINT('',(-2.074800192526E-1,-2.293307086614E-1,
3.916528824507E-3));
#110=CURVE_STYLE('',#29,POSITIVE_LENGTH_MEASURE(2.E-2),#4);
#111=PRESENTATION_STYLE_ASSIGNMENT((#110));
#112=STYLED_ITEM('',(#111),#109);
#113=VERTEX_POINT('',#98);
#114=VERTEX_POINT('',#108);
#115=VERTEX_POINT('',#93);
#116=VERTEX_POINT('',#17);
#117=VERTEX_POINT('',#27);
#118=VERTEX_POINT('',#50);
#119=CARTESIAN_POINT('',(-1.553985962389E-1,-1.545275590551E-1,
3.937007874016E-3));
#120=DIRECTION('',(0.E0,-1.E0,0.E0));
#121=DIRECTION('',(0.E0,0.E0,-1.E0));
#122=AXIS2_PLACEMENT_3D('',#119,#120,#121);
#123=PLANE('',#122);
#125=ORIENTED_EDGE('',*,*,#124,.F.);
#127=ORIENTED_EDGE('',*,*,#126,.F.);
#129=ORIENTED_EDGE('',*,*,#128,.F.);
#130=EDGE_LOOP('',(#125,#127,#129));
#131=FACE_OUTER_BOUND('',#130,.F.);
#133=CARTESIAN_POINT('',(-2.595300996682E-1,-2.330708661417E-1,
-1.031151230493E-2));
#134=CARTESIAN_POINT('',(-2.597468963673E-1,-2.330708661417E-1,
-8.720002564044E-3));
#135=CARTESIAN_POINT('',(-2.579596595061E-1,-2.330708661417E-1,
-5.256129786315E-3));
#136=CARTESIAN_POINT('',(-2.463371410321E-1,-2.330708661417E-1,
-2.738099161501E-4));
#137=CARTESIAN_POINT('',(-2.273539371446E-1,-2.330708661417E-1,
3.104456452391E-3));
#138=CARTESIAN_POINT('',(-2.133191603722E-1,-2.330708661417E-1,
3.856087930858E-3));
#139=CARTESIAN_POINT('',(-2.067527630640E-1,-2.330708661417E-1,
3.924913208458E-3));
#141=DIRECTION('',(0.E0,1.E0,0.E0));
#142=VECTOR('',#141,1.E0);
#143=SURFACE_OF_LINEAR_EXTRUSION('',#140,#142);
#145=ORIENTED_EDGE('',*,*,#144,.T.);
#146=ORIENTED_EDGE('',*,*,#124,.T.);
#148=ORIENTED_EDGE('',*,*,#147,.F.);
#150=ORIENTED_EDGE('',*,*,#149,.T.);
#151=EDGE_LOOP('',(#145,#146,#148,#150));
#152=FACE_OUTER_BOUND('',#151,.F.);
#154=CARTESIAN_POINT('',(0.E0,0.E0,-9.842519685039E-3));
#155=DIRECTION('',(0.E0,0.E0,1.E0));
#156=DIRECTION('',(1.E0,0.E0,0.E0));
#157=AXIS2_PLACEMENT_3D('',#154,#155,#156);
#158=PLANE('',#157);
#160=ORIENTED_EDGE('',*,*,#159,.F.);
#161=ORIENTED_EDGE('',*,*,#126,.T.);
#162=ORIENTED_EDGE('',*,*,#144,.F.);
#164=ORIENTED_EDGE('',*,*,#163,.T.);
#165=EDGE_LOOP('',(#160,#161,#162,#164));
#166=FACE_OUTER_BOUND('',#165,.F.);
#168=CARTESIAN_POINT('',(-1.554305302530E-1,-1.507874015748E-1,
-1.031151230493E-2));
#169=CARTESIAN_POINT('',(-1.552137335540E-1,-1.507874015748E-1,
-8.720002564044E-3));
#170=CARTESIAN_POINT('',(-1.570009704152E-1,-1.507874015748E-1,
-5.256129786315E-3));
#171=CARTESIAN_POINT('',(-1.686234888891E-1,-1.507874015748E-1,
-2.738099161502E-4));
#172=CARTESIAN_POINT('',(-1.876066927767E-1,-1.507874015748E-1,
3.104456452391E-3));
#173=CARTESIAN_POINT('',(-2.016414695490E-1,-1.507874015748E-1,
3.856087930858E-3));
#174=CARTESIAN_POINT('',(-2.082078668573E-1,-1.507874015748E-1,
3.924913208458E-3));
#176=DIRECTION('',(0.E0,-1.E0,0.E0));
#177=VECTOR('',#176,1.E0);
#178=SURFACE_OF_LINEAR_EXTRUSION('',#175,#177);
#180=ORIENTED_EDGE('',*,*,#179,.T.);
#181=ORIENTED_EDGE('',*,*,#147,.T.);
#182=ORIENTED_EDGE('',*,*,#128,.T.);
#183=ORIENTED_EDGE('',*,*,#159,.T.);
#184=EDGE_LOOP('',(#180,#181,#182,#183));
#185=FACE_OUTER_BOUND('',#184,.F.);
#187=CARTESIAN_POINT('',(-2.595620336824E-1,-2.293307086614E-1,
3.937007874016E-3));
#188=DIRECTION('',(0.E0,1.E0,0.E0));
#189=DIRECTION('',(0.E0,0.E0,1.E0));
#190=AXIS2_PLACEMENT_3D('',#187,#188,#189);
#191=PLANE('',#190);
#192=ORIENTED_EDGE('',*,*,#163,.F.);
#193=ORIENTED_EDGE('',*,*,#149,.F.);
#194=ORIENTED_EDGE('',*,*,#179,.F.);
#195=EDGE_LOOP('',(#192,#193,#194));
#196=FACE_OUTER_BOUND('',#195,.F.);
#200=FILL_AREA_STYLE_COLOUR('',#4);
#201=FILL_AREA_STYLE('',(#200));
#202=SURFACE_STYLE_FILL_AREA(#201);
#203=SURFACE_SIDE_STYLE('',(#202));
#204=SURFACE_STYLE_USAGE(.BOTH.,#203);
#205=PRESENTATION_STYLE_ASSIGNMENT((#204));
#16=STYLED_ITEM('',(#205),#199);
#206=PRESENTATION_LAYER_ASSIGNMENT('SHELL_843','',(#16,#132,#140,#153,#167,#175,
#186,#197));
#208=LENGTH_MEASURE_WITH_UNIT(LENGTH_MEASURE(2.54E1),#207);
#209=(CONVERSION_BASED_UNIT('INCH',#208)LENGTH_UNIT()NAMED_UNIT(*));
#211=PLANE_ANGLE_MEASURE_WITH_UNIT(PLANE_ANGLE_MEASURE(1.745329251994E-2),#210);
#212=(CONVERSION_BASED_UNIT('DEGREE',#211)NAMED_UNIT(*)PLANE_ANGLE_UNIT());
#214=UNCERTAINTY_MEASURE_WITH_UNIT(LENGTH_MEASURE(3.937007874016E-5),#209,
'closure',
'Maximum model space distance between geometric entities at asserted connectivities');
#216=CARTESIAN_POINT('',(0.E0,0.E0,0.E0));
#217=DIRECTION('',(0.E0,0.E0,1.E0));
#218=DIRECTION('',(1.E0,0.E0,0.E0));
#221=MECHANICAL_DESIGN_GEOMETRIC_PRESENTATION_REPRESENTATION('',(#32,#39,#54,
#61,#68,#75,#82,#97,#112,#16),#215);
#222=APPLICATION_CONTEXT('automotive design');
#223=APPLICATION_PROTOCOL_DEFINITION('international standard',
'config_control_design',1994,#222);
#224=PRODUCT_DEFINITION_CONTEXT('',#222,'design');
#225=PRODUCT_CONTEXT('',#222,'mechanical');
#226=PRODUCT('ZAOKRGLENIE30','ZAOKRGLENIE30','NOT SPECIFIED',(#225));
#227=PRODUCT_DEFINITION_FORMATION_WITH_SPECIFIED_SOURCE('1','LAST_VERSION',#226,
.MADE.);
#235=LENGTH_MEASURE_WITH_UNIT(LENGTH_MEASURE(2.54E1),#234);
#236=(CONVERSION_BASED_UNIT('INCH',#235)LENGTH_UNIT()NAMED_UNIT(*));
#237=DERIVED_UNIT_ELEMENT(#236,2.E0);
#238=AREA_UNIT((#237));
#239=MEASURE_REPRESENTATION_ITEM('surface area measure',AREA_MEASURE(
1.186993086517E1),#238);
#244=LENGTH_MEASURE_WITH_UNIT(LENGTH_MEASURE(2.54E1),#243);
#245=(CONVERSION_BASED_UNIT('INCH',#244)LENGTH_UNIT()NAMED_UNIT(*));
#246=DERIVED_UNIT_ELEMENT(#245,3.E0);
#247=VOLUME_UNIT((#246));
#248=MEASURE_REPRESENTATION_ITEM('volume measure',VOLUME_MEASURE(
1.359879591268E0),#247);
#252=CARTESIAN_POINT('centre point',(-5.27E0,-4.874999999993E0,
-1.034443380738E-1));
#257=LENGTH_MEASURE_WITH_UNIT(LENGTH_MEASURE(2.54E1),#256);
#258=(CONVERSION_BASED_UNIT('INCH',#257)LENGTH_UNIT()NAMED_UNIT(*));
#259=DERIVED_UNIT_ELEMENT(#258,2.E0);
#260=AREA_UNIT((#259));
#261=MEASURE_REPRESENTATION_ITEM('surface area measure',AREA_MEASURE(
1.186993086517E1),#260);
#266=LENGTH_MEASURE_WITH_UNIT(LENGTH_MEASURE(2.54E1),#265);
#267=(CONVERSION_BASED_UNIT('INCH',#266)LENGTH_UNIT()NAMED_UNIT(*));
#268=DERIVED_UNIT_ELEMENT(#267,3.E0);
#269=VOLUME_UNIT((#268));
#270=MEASURE_REPRESENTATION_ITEM('volume measure',VOLUME_MEASURE(
1.359879591268E0),#269);
#274=CARTESIAN_POINT('centre point',(-5.27E0,-4.874999999993E0,
-1.034443380738E-1));
#1=DRAUGHTING_PRE_DEFINED_COLOUR('green');
#2=COLOUR_RGB('',1.1E-2,1.2E-2,1.E0);
#3=COLOUR_RGB('',2.352941176471E-1,2.352941176471E-1,2.352941176471E-1);
#4=COLOUR_RGB('',3.411764705882E-1,8.392156862745E-1,4.117647058824E-1);
#5=COLOUR_RGB('',4.1E-1,2.61589E-1,1.12848E-1);
#6=COLOUR_RGB('',5.04854E-1,1.5455E-2,1.5455E-2);
#7=COLOUR_RGB('',6.35294E-1,6.86275E-1,7.4902E-1);
#8=COLOUR_RGB('',6.40777E-1,6.40777E-1,6.40777E-1);
#9=COLOUR_RGB('',6.69062E-1,6.69903E-1,6.55217E-1);
#10=COLOUR_RGB('',9.21569E-1,7.05882E-1,4.70588E-1);
#11=DRAUGHTING_PRE_DEFINED_COLOUR('red');
#12=DRAUGHTING_PRE_DEFINED_COLOUR('yellow');
#13=COLOUR_RGB('',1.E0,1.E0,5.3E-1);
#14=COLOUR_RGB('',1.E0,1.E0,9.49E-1);
#15=DRAUGHTING_PRE_DEFINED_COLOUR('white');
#28=B_SPLINE_CURVE_WITH_KNOTS('',3,(#17,#18,#19,#20,#21,#22,#23,#24,#25,#26,
#27),.UNSPECIFIED.,.F.,.F.,(4,1,1,1,1,1,1,1,4),(0.E0,1.25E-1,2.5E-1,3.75E-1,
5.E-1,6.25E-1,7.5E-1,8.75E-1,1.E0),.UNSPECIFIED.);
#51=B_SPLINE_CURVE_WITH_KNOTS('',3,(#40,#41,#42,#43,#44,#45,#46,#47,#48,#49,
#50),.UNSPECIFIED.,.F.,.F.,(4,1,1,1,1,1,1,1,4),(0.E0,1.25E-1,2.5E-1,3.75E-1,
5.E-1,6.25E-1,7.5E-1,8.75E-1,1.E0),.UNSPECIFIED.);
#94=B_SPLINE_CURVE_WITH_KNOTS('',3,(#83,#84,#85,#86,#87,#88,#89,#90,#91,#92,
#93),.UNSPECIFIED.,.F.,.F.,(4,1,1,1,1,1,1,1,4),(0.E0,1.25E-1,2.5E-1,3.75E-1,
5.E-1,6.25E-1,7.5E-1,8.75E-1,1.E0),.UNSPECIFIED.);
#109=B_SPLINE_CURVE_WITH_KNOTS('',3,(#98,#99,#100,#101,#102,#103,#104,#105,#106,
#107,#108),.UNSPECIFIED.,.F.,.F.,(4,1,1,1,1,1,1,1,4),(0.E0,1.25E-1,2.5E-1,
3.75E-1,5.E-1,6.25E-1,7.5E-1,8.75E-1,1.E0),.UNSPECIFIED.);
#124=EDGE_CURVE('',#116,#117,#28,.T.);
#126=EDGE_CURVE('',#118,#116,#36,.T.);
#128=EDGE_CURVE('',#117,#118,#51,.T.);
#132=ADVANCED_FACE('',(#131),#123,.F.);
#140=B_SPLINE_CURVE_WITH_KNOTS('',3,(#133,#134,#135,#136,#137,#138,#139),
.UNSPECIFIED.,.F.,.F.,(4,1,1,1,4),(0.E0,2.5E-1,5.E-1,7.5E-1,1.E0),
.UNSPECIFIED.);
#144=EDGE_CURVE('',#115,#116,#72,.T.);
#147=EDGE_CURVE('',#114,#117,#58,.T.);
#149=EDGE_CURVE('',#114,#115,#94,.T.);
#153=ADVANCED_FACE('',(#152),#143,.T.);
#159=EDGE_CURVE('',#118,#113,#65,.T.);
#163=EDGE_CURVE('',#115,#113,#79,.T.);
#167=ADVANCED_FACE('',(#166),#158,.F.);
#175=B_SPLINE_CURVE_WITH_KNOTS('',3,(#168,#169,#170,#171,#172,#173,#174),
.UNSPECIFIED.,.F.,.F.,(4,1,1,1,4),(0.E0,2.5E-1,5.E-1,7.5E-1,1.E0),
.UNSPECIFIED.);
#179=EDGE_CURVE('',#113,#114,#109,.T.);
#186=ADVANCED_FACE('',(#185),#178,.T.);
#197=ADVANCED_FACE('',(#196),#191,.F.);
#198=CLOSED_SHELL('',(#132,#153,#167,#186,#197));
#199=MANIFOLD_SOLID_BREP('',#198);
#207=(LENGTH_UNIT()NAMED_UNIT(*)SI_UNIT(.MILLI.,.METRE.));
#210=(NAMED_UNIT(*)PLANE_ANGLE_UNIT()SI_UNIT($,.RADIAN.));
#213=(NAMED_UNIT(*)SI_UNIT($,.STERADIAN.)SOLID_ANGLE_UNIT());
#215=(GEOMETRIC_REPRESENTATION_CONTEXT(3)GLOBAL_UNCERTAINTY_ASSIGNED_CONTEXT((
#214))GLOBAL_UNIT_ASSIGNED_CONTEXT((#209,#212,#213))REPRESENTATION_CONTEXT
('ID1','3'));
#219=AXIS2_PLACEMENT_3D('',#216,#217,#218);
#220=ADVANCED_BREP_SHAPE_REPRESENTATION('',(#219,#199),#215);
#228=PRODUCT_DEFINITION('design','',#227,#224);
#229=PRODUCT_DEFINITION_SHAPE('','SHAPE FOR ZAOKRGLENIE30.',#228);
#230=SHAPE_ASPECT('','solid data associated with ZAOKRGLENIE30',#229,.F.);
#231=PROPERTY_DEFINITION('',
'shape for solid data with which properties are associated',#230);
#232=SHAPE_REPRESENTATION('',(#199),#215);
#233=SHAPE_DEFINITION_REPRESENTATION(#231,#232);
#234=(LENGTH_UNIT()NAMED_UNIT(*)SI_UNIT(.MILLI.,.METRE.));
#240=PROPERTY_DEFINITION('geometric validation property',
'area of ZAOKRGLENIE30',#230);
#241=REPRESENTATION('surface area',(#239),#215);
#242=PROPERTY_DEFINITION_REPRESENTATION(#240,#241);
#243=(LENGTH_UNIT()NAMED_UNIT(*)SI_UNIT(.MILLI.,.METRE.));
#249=PROPERTY_DEFINITION('geometric validation property',
'volume of ZAOKRGLENIE30',#230);
#250=REPRESENTATION('volume',(#248),#215);
#251=PROPERTY_DEFINITION_REPRESENTATION(#249,#250);
#253=PROPERTY_DEFINITION('geometric validation property',
'centroid of ZAOKRGLENIE30',#230);
#254=REPRESENTATION('centroid',(#252),#215);
#255=PROPERTY_DEFINITION_REPRESENTATION(#253,#254);
#256=(LENGTH_UNIT()NAMED_UNIT(*)SI_UNIT(.MILLI.,.METRE.));
#262=PROPERTY_DEFINITION('geometric validation property',
'area of ZAOKRGLENIE30',#229);
#263=REPRESENTATION('surface area',(#261),#215);
#264=PROPERTY_DEFINITION_REPRESENTATION(#262,#263);
#265=(LENGTH_UNIT()NAMED_UNIT(*)SI_UNIT(.MILLI.,.METRE.));
#271=PROPERTY_DEFINITION('geometric validation property',
'volume of ZAOKRGLENIE30',#229);
#272=REPRESENTATION('volume',(#270),#215);
#273=PROPERTY_DEFINITION_REPRESENTATION(#271,#272);
#275=PROPERTY_DEFINITION('geometric validation property',
'centroid of ZAOKRGLENIE30',#229);
#276=REPRESENTATION('centroid',(#274),#215);
#277=PROPERTY_DEFINITION_REPRESENTATION(#275,#276);
#278=SHAPE_DEFINITION_REPRESENTATION(#229,#220);
ENDSEC;
END-ISO-10303-21;
